<svg width="640" height="480" xmlns="http://www.w3.org/2000/svg" xmlns:svg="http://www.w3.org/2000/svg" xmlns:xlink="http://www.w3.org/1999/xlink">
 <!-- Sketchy ANNOTATION
  ImageNet ID: n02676566_1324
  URL: http://static.flickr.com/3077/2591076012_b394745012.jpg
  Image Width: 375
  Image Height: 500
  BBox X: 82
  BBox Y: 35
  BBox Width: 216
  BBox Height: 418
  Exposure: 2000ms
  Synset Label: guitar
  Synset ID: n03467517
  Worker Tag: guitar
  Sanity Check: 
   Saved
  Comment: 
   {}
  Worker ID: AQ9ISCTDF9B48
  Assignment ID: 3L70J4KAZGMVCIT0WAONTB8ICAKDA1
  HIT ID: 3SD15I2WD2UUK4H6N6WXBDPZLMR36R
  Work Time: 82s
  Worker Score: 0.7857
 END ANNOTATION -->
 <g display="inline">
  <title>Layer 1</title>
  <path t="0,22,23,23,23,30,30,30,30,30,30,30,46,46,46,46,46,46,46,62,62,62,62,62,62,62,62,79,79,79,79,79,79,79,79,79,96,96,96,96,96,96,96,96,96,112,112,112,112,112,112,112,112,112,128,129,129,129,129,129,129,129,129,146,146,146,146,146,146,146,146,146,162,162,162,162,162,162,162,162,162,179,179,179,179,179,179,179,179,179,196,196,196,196,196,196,196,196,196,212,212,212,212,212,212,212,212,212,229,229,229,229,229,229,229,229,229,246,246,246,246,246,246,246,246,246,262,262,262,262,262,262,262,262,262,279,279,279,279,279,279,279,279,279,296,296,296,296,296,296,296,296,296,312,312,312,312,312,312,329,346,346,362,363,379,379,462,462,478,478,496,496,512,529,529,546,546,582" d="m293,57c-0.00134,2.97467 -0.00146,3.70433 -0.03601,4.52934c-0.03894,0.92982 -0.12234,1.97155 -0.24933,3.12533c-0.06744,0.61284 -0.1489,1.2429 -0.2355,1.887c-0.08801,0.65458 -0.27798,1.97739 -0.47916,3.29167c-0.09879,0.64536 -0.19849,1.28158 -0.39999,2.53066c-0.09924,0.61529 -0.19934,1.22544 -0.39999,2.43467c-0.19934,1.20144 -0.30215,1.80231 -0.40002,2.412c-0.20447,1.27396 -0.30304,1.95557 -0.39999,2.67733c-0.10327,0.7689 -0.21103,1.59351 -0.39999,3.44534c-0.10602,1.03905 -0.20288,2.157 -0.2955,3.351c-0.0983,1.26733 -0.18845,2.60705 -0.26849,4.017c-0.08386,1.47739 -0.16714,3.02077 -0.26935,6.29867c-0.05386,1.72758 -0.08496,3.50262 -0.1095,5.3115c-0.02481,1.82979 -0.03827,3.66766 -0.04648,5.5005c-0.00812,1.81483 -0.01001,3.59867 -0.01068,7.02134c-0.00031,1.616 0,3.168 0,4.66199c0,1.442 0,2.83801 0,4.194c0,1.322 0,2.616 0,5.144c0,1.24533 0,2.48267 0,3.714c0,1.22734 0,2.45267 0,3.67799c0,1.22734 0.00015,2.45868 0,4.94135c-0.00009,1.25467 0.00018,2.51733 -0.00449,3.786c-0.00467,1.27266 -0.01334,2.54738 -0.03152,3.82201c-0.01816,1.27271 -0.0347,2.54184 -0.13065,5.05865c-0.04745,1.24513 -0.11496,2.47881 -0.186,3.7005c-0.07031,1.20897 -0.14786,2.40364 -0.22202,3.58351c-0.07315,1.1638 -0.15341,2.31006 -0.25867,4.54933c-0.05121,1.08957 -0.08432,2.15862 -0.11398,3.20549c-0.02899,1.02379 -0.0513,2.0237 -0.078,2.9985c-0.026,0.94887 -0.04233,1.87151 -0.14133,3.62933c-0.04706,0.83563 -0.11383,1.64178 -0.19052,2.41949c-0.07413,0.75165 -0.16006,1.47681 -0.25348,2.1765c-0.09036,0.67665 -0.18515,1.33025 -0.38934,2.57068c-0.0972,0.59044 -0.19839,1.16003 -0.2955,1.70999c-0.0936,0.53004 -0.18494,1.03978 -0.26849,1.53c-0.08008,0.46979 -0.16119,0.91858 -0.26935,1.76001c-0.05005,0.3894 -0.0842,0.75978 -0.1095,1.11c-0.02383,0.32982 -0.03806,0.63994 -0.04648,0.92999c-0.00781,0.26996 -0.01001,0.52 -0.01068,0.96001c-0.00031,0.19049 0,0.364 0,0.5235c0,0.1485 0,0.289 0,0.4245c0,0.1335 0,0.26799 0,0.552c0,0.15483 0,0.31866 0,0.49049c0,0.17883 0,0.36366 0,0.5535c0,0.19383 0,0.39067 0,0.78934c0,0.2 0,0.39999 0,0.60001c0,0.2 0,0.39999 0,0.59999c0,0.2 0,0.40001 0,0.8c0,0.2 0,0.39999 0,0.60001c0,0.2 0,0.39999 0,0.59999c0,0.2 0,0.40001 0,0.8c0,0.19983 0,0.39867 0,0.5955c0,0.19383 0,0.5685 0,1.51917c0,0.88533 0,1.6425 0,2.5425c0,0.74733 -0.0545,1.74721 0.03601,2.54283c0.11496,1.01035 0.53534,1.75499 0.84265,2.77867c0.22809,0.75983 0.50342,1.66225 0.76868,2.36867c0.33301,0.8868 0.35266,1.81934 0.35266,2.65266l0,0.9785l0,0.82016l0,0.90134" id="svg_1" stroke-width="2" stroke="#000" fill="none"/>
  <path t="7006,7246,7246,7262,7279,7295,7295,7312,7334,7344,7366,7390,7414,7430,7486,7486,7495,7527,7527,7545,7545,7545,7562,7578,7594,7594,7614,7630,7644,7645,7662,7718,7822,7830,7854,7870,7870,7886,7902,7982,7998,8012,8028,8029,8044,8045,8062,8062,8079,8095,8111,8129,8144,8161,8190,8350,8350,8366,8378,8394,8395,8411,8412,8412,8428,8429,8429,8444,8445,8445,8445,8462,8479,8479,8479,8495,8495,8495,8511,8528,8544,8561,8562,8578,8598,8611,8638,8662,8679,8679,8702,8742,8750,8750,8761,8779,9038,9047,9062,9078,9094,9111,9112,9127,9144,9161,9178,9195,9211,9212,9230,9230,9246,9261,9278,9295,9312,9327,9328,9344,9345,9362,9362,9377,9378,9395,9411,9412,9427,9445,9445,9462,9462,9478,9478,9478,9495,9495,9512,9512,9512,9528,9544,9545,9562,9562,9562,9578,9578,9595,9612,9612,9612,9627,9628,9644,9645,9662,9662,9678,9678,9678,9695,9695,9712,9712,9712,9728,9728,9745,9745,9745,9762,9762,9762,9778,9795,9795,9795,9795,9812,9812,9812,9812,9828,9828,9845,9845,9845,9845,9862,9862,9862,9878,9878,9895,9895,9912,9912,9912,9928,9928,9945,9945,9962,9962,9962,9978,9978,9978,9995,9995,10012,10012,10012,10028,10045,10045,10045,10062,10062,10078,10078,10078,10095,10095,10112,10112,10112,10112,10128,10128,10128,10128,10128,10145,10145,10162,10162,10178,10178,10195,10196,10212,10212,10212,10228,10228,10228,10245,10262,10278,10278,10295,10295,10312,10312,10312,10334,10334,10334,10345,10345,10362,10378,10395,10412,10428,10428,10445,10462,10478,10495,10512,10512,10534,10558,10558,10878,10886,10902,10918,10934,10945,10945,10962,10998,10998,11012,11012,11028,11045,11062,11062,11078" d="m292,53c-1.16666,-1 -1.74478,-1.53772 -1.96399,-2.4c-0.22195,-0.87314 -0.42209,-1.73836 -0.75201,-2.4c-0.42056,-0.84336 -0.284,-1.8 -0.284,-2.7c0,-0.9 0,-1.8 0,-2.7c0,-0.9 -0.0372,-1.80087 0,-2.6c0.04272,-0.91765 0.85428,-1.52873 1,-2.24167c0.19479,-0.95301 0.45782,-1.73547 0.716,-2.473c0.32562,-0.93013 1.00549,-1.44677 1.5795,-2.19517c0.44421,-0.57919 0.56216,-1.54204 0.70584,-2.49017c0.13882,-0.91604 0.79718,-1.45631 0.98798,-2.4c0.17432,-0.86228 0.62411,-1.39965 1.06335,-2.1045c0.49231,-0.79002 0.71094,-1.64593 0.97266,-2.43417c0.28186,-0.84886 0.91129,-1.63613 1.67917,-1.85683c0.86069,-0.24738 1.70618,-0.0045 2.617,-0.0045c0.88916,0 1.87833,0 2.65765,0c0.99933,0 1.81952,0 2.72086,0c0.89999,0 1.79999,0 2.69998,0c0.89999,0 1.80002,0 2.70001,0c0.89999,0 1.83954,-0.41085 2.54282,0.05717c0.65588,0.43649 0.35718,1.6045 0.35718,2.4045c0,0.95983 0.00006,1.77433 0,2.64283c-0.00009,1.1955 0.02853,1.79726 -0.03601,2.6955c-0.08652,1.20399 -0.23624,1.80037 -0.46399,2.65833c-0.20544,0.77388 -0.41901,1.89525 -0.66666,2.70834c-0.21198,0.69597 -0.60745,1.51015 -0.74802,2.516c-0.1106,0.79142 -0.08466,1.548 -0.08533,2.64533c-0.00058,0.972 0.05438,1.87365 -0.00015,2.772c-0.04272,0.70387 -0.7468,1.43718 -0.96384,2.3c-0.21973,0.8735 -0.03601,1.8 -0.03601,2.7c0,0.9 0.0173,1.70017 0,2.6c-0.01801,0.93652 -0.16974,1.85411 -0.7045,2.59016c-0.49503,0.68135 -1.32397,1.08582 -1.87018,1.73517c-0.53461,0.63556 -1.10806,1.39805 -1.36816,2.27467c-0.22815,0.76891 -0.05716,1.7 -0.05716,2.5c0,0.9 0,1.8 0,2.7c0,0.9 0.08578,1.82803 -0.22134,2.82133c-0.21671,0.7009 -0.69058,1.50088 -0.77417,2.37417c-0.08618,0.90039 -0.00449,1.8045 -0.00449,2.7045c0,0.9 0,1.8 0,2.70016c0,0.78516 0,1.73583 0,2.50117c0,0.99866 0,1.79867 0,2.79733c0,0.76534 0,1.84417 0,2.7015c0,0.78516 0,1.72517 0,2.73317c0,0.792 0,1.65333 0,2.41333c0,1.1745 0,1.968 0,2.7435c0,1.04183 0,1.81517 0,2.77783c0,0.732 0,1.464 0,2.57067c0,0.98283 0,1.68217 0,2.66133c0,0.8 0,1.6 0,2.78933c0,0.72533 0,1.73151 0,2.54401c0,0.91733 0,1.66133 0,2.69733c0,0.852 -0.00171,1.80533 0,2.57066c0.00226,1.00317 0.01733,1.86346 0.22134,2.81983c0.17093,0.80128 0.50323,1.55218 0.69333,2.61083c0.13742,0.76531 0.08533,1.73734 0.08533,2.48884c0,0.7965 0,1.79517 0,2.7045c0,0.94133 0,1.72733 0,2.54933c0,1.05867 -0.09238,1.99597 0.08533,2.73867c0.21777,0.91024 0.77277,1.81634 0.862,2.5055c0.10812,0.83514 0.10306,1.4744 0.33667,2.86382c0.1236,0.73521 0.30365,1.45349 0.43201,2.14801c0.22107,1.19608 0.2702,1.94839 0.284,3.136c0.00919,0.79045 -0.01935,1.35803 0.08533,2.23466c0.14377,1.20383 0.43063,2.05269 0.63068,2.828c0.24664,0.95595 0.28333,1.65332 0.284,2.61732c0.00058,0.84 0,1.83734 0,2.65334c0,0.81599 -0.00006,1.81467 0,2.68933c0.00009,1.01067 -0.06061,1.82597 0.16666,2.81067c0.19138,0.82913 0.54352,1.44424 0.71185,2.42134c0.13727,0.79678 0.11923,1.62599 0.12149,2.65717c0.00195,0.90067 0,1.92149 0,2.71083c0,0.72533 0,1.73149 0,2.75349c0,0.71851 0,1.509 0,2.53568c0,0.90067 0,1.92149 0,2.7215c0,0.8 0,1.80899 0,2.472c0,1.06133 0.00455,2.04259 -0.02084,2.76967c-0.02679,0.76773 -0.13275,1.96036 -0.26315,2.75566c-0.12848,0.78355 -0.30246,1.5284 -0.43201,2.23199c-0.22006,1.19514 -0.19745,2.14777 -0.50534,2.94934c-0.31677,0.82474 -0.69321,1.68385 -0.83133,2.42583c-0.18726,1.00604 -0.52774,1.59593 -0.78067,2.76218c-0.16833,0.77617 -0.12601,1.61893 -0.33331,2.66666c-0.14151,0.71526 -0.59863,1.47467 -0.77618,2.4095c-0.17892,0.94203 -0.0528,1.85736 -0.05716,2.6425c-0.00534,0.96138 -0.01514,1.58449 -0.2215,2.53616c-0.1785,0.82314 -0.48233,1.68324 -0.7785,2.57851c-0.29483,0.89122 -0.60995,1.716 -0.83334,2.66667c-0.18414,0.78363 -0.16666,1.73332 -0.16666,2.63333c0,0.89999 0,1.8 0,2.7c0,0.8 0,1.7 0,2.60001c0,0.89999 0,1.81065 0,2.72133c0,0.85333 0,1.79333 0,2.67867c0,0.8 -0.04486,1.85353 -0.80133,1.99867c-0.8826,0.16933 -1.79868,0.00133 -2.71951,0.00133c-0.96317,0 -1.65381,0 -2.7265,0c-0.91931,0 -1.75266,0 -2.73114,0c-0.71701,0 -1.62152,0 -2.54236,0l-0.96317,0l-0.69064,0l-1.06818,0" id="svg_3" stroke-width="2" stroke="#000" fill="none"/>
  <path t="12638,12710,12718,12727,12728,12728,12744,12745,12761,12762,12762,12778,12778,12778,12794,12795,12811,12812,12812,12828,12828,12828,12828,12845,12845,12845,12862,12862,12862,12878,12878,12894,12895,12895,12911,12912,12912,12927,12945,12945,12961,12962,12978,12994,12995,13012,13012,13028,13028,13045,13045,13045,13062,13062,13062,13078,13078,13095,13095,13095,13095,13112,13112,13112,13112,13128,13128,13128,13145,13145,13162,13162,13162,13178,13178,13178,13178,13195,13195,13195,13212,13212,13228,13228,13246,13246,13262,13262,13278,13295,13295,13312,13312,13312,13327,13328,13344,13345,13362,13362,13378,13378,13378,13395,13395,13395,13412,13412,13412,13427,13428,13445,13445,13462,13462,13478,13478,13478,13495,13495,13495,13512,13512,13528,13528,13545,13545,13562,13562,13562,13578,13578,13595,13595,13595,13612,13612,13628,13628,13645,13645,13662,13662,13662,13678,13678,13678,13695,13695,13695,13695,13712,13712,13712,13712,13712,13728,13728,13728,13745,13745,13745,13745,13762,13762,13762,13762,13778,13778,13778,13795,13795,13795,13812,13812,13812,13812,13812,13828,13828,13828,13828,13845,13845,13862,13862,13862,13862,13862,13878,13878,13878,13878,13878,13878,13895,13895,13912,13912,13912,13928,13928,13928,13928,13945,13945,13945,13945,13962,13962,13962,13962,13978,13978,13978,13978,13995,13995,13995,13995,14012,14012,14012,14012,14028,14028,14028,14028,14045,14045,14045,14045,14062,14062,14062,14062,14062,14078,14078,14078,14078,14078,14078,14095,14095,14095,14095,14095,14112,14112,14112,14112,14112,14112,14112,14128,14128,14128,14128,14128,14145,14145,14145,14145,14145,14145,14162,14162,14162,14162,14162,14178,14178,14178,14178,14195,14195,14195,14195,14195,14212,14212,14212,14212,14228,14228,14228,14228,14245,14245,14245,14245,14262,14262,14262,14262,14262,14278,14278,14278,14278,14278,14278,14295,14295,14295,14295,14295,14312,14312,14312,14312,14312,14328,14328,14328,14328,14345,14345,14345,14345,14362,14362,14362,14362,14378,14378,14378,14378,14378,14395,14395,14395,14395,14395,14412,14412,14412,14412,14428,14428,14428,14428,14445,14445,14445,14445,14462,14462,14462,14462,14478,14478,14478,14478,14478,14478,14478,14479,14495,14495,14495,14495,14495,14495,14495,14512,14512,14512,14512,14512,14512,14528,14528,14528,14528,14528,14528,14528,14545,14545,14545,14545,14545,14545,14545,14562,14562,14562,14562,14562,14562,14562,14563,14578,14578,14578,14578,14578,14578,14578,14579,14595,14595,14595,14595,14595,14595,14595,14596,14596,14612,14612,14612,14612,14612,14612,14612,14613,14613,14628,14628,14628,14628,14628,14628,14629,14629,14629,14645,14645,14645,14645,14645,14645,14646,14646,14662,14662,14662,14662,14662,14663,14663,14678,14678,14678,14678,14678,14679,14679,14679,14695,14695,14695,14695,14695,14696,14696,14712,14712,14712,14712,14712,14712,14713,14728,14728,14728,14728,14728,14729,14729,14745,14745,14745,14745,14745,14746,14762,14762,14762,14762,14762,14762,14778,14778,14778,14778,14778,14795,14795,14795,14795,14812,14812,14812,14828,14828,14828,14845,14845,14845,14845,14845,14862,14862,14862,14863,14863,14878,14878,14878,14878,14879,14879,14895,14895,14895,14896,14896,14912,14912,14912,14912,14912,14928,14928,14928,14945,14945,14945,14945,14962,14962,14962,14978,14978,14978,14978,14995,14995,14995,14995,15012,15012,15012,15012,15012,15028,15028,15028,15045,15045,15045,15062,15062,15062,15062,15078,15078,15078,15078,15095,15095,15095,15112,15112,15112,15128,15128,15128,15145,15145,15162,15162,15178,15178,15178,15195,15195,15195,15216,15216,15228,15245,15245,15262,15262,15278,15278,15278,15295,15295,15295,15295,15312,15312,15312,15312,15312,15328,15328,15328,15345,15345,15345,15362,15362,15362,15363,15378,15378,15378,15395,15395,15412,15412,15412,15412,15428,15428,15428,15445,15445,15445,15462,15462,15462,15462,15478,15478,15478,15479,15495,15495,15495,15495,15512,15512,15528,15528,15528,15545,15545,15545,15545,15562,15562,15562,15578,15578,15578,15578,15595,15595,15595,15612,15612,15612,15628,15628,15628,15645,15645,15645,15662,15662,15678,15678,15678,15679,15695,15695,15695,15712,15712,15712,15728,15728,15745,15745,15762,15762,15762,15778,15778,15795,15795,15795,15812,15812,15812,15828,15828,15828,15845,15845,15862,15862,15878,15878,15878,15879,15895,15895,15912,15912,15928,15928,15928,15928,15945,15945,15945,15962,15962,15962,15978,15978,15978,15978,15995,15995,16012,16012,16028,16028,16045,16045,16045,16062,16062,16062,16078,16078,16078,16079,16095,16095,16095,16112,16128,16145,16145,16162,16178,16178,16195,16195,16195,16212,16212,16212,16212,16228,16228,16228,16229,16245,16245,16245,16246,16262,16262,16278,16278,16295,16295,16317,16445,16502,16502,16518,16528,16574,16622" d="m288,176c-2.58932,0 -3.43192,-0.04201 -4.33334,0.16667c-0.93143,0.21562 -1.68811,0.48395 -2.52399,0.93333c-0.66672,0.35846 -1.46896,0.91641 -2.1525,1.2c-0.76804,0.31865 -1.82944,0.68636 -2.53302,1c-0.86023,0.38347 -1.65717,0.8 -2.45715,1.2c-1,0.5 -1.59799,0.81409 -2.23599,1.10001c-1.17413,0.52618 -1.71945,0.70493 -2.57468,1c-0.58951,0.2034 -1.78934,0.59999 -2.68933,0.89999c-0.60001,0.2 -1.80148,0.59468 -2.39099,0.8c-0.83966,0.29245 -1.79437,0.67012 -2.44766,1.09999c-0.85422,0.56207 -1.49945,1.01828 -2.12302,1.3c-0.9473,0.42798 -1.74585,0.71227 -2.5285,0.94284c-1.03065,0.30363 -2.04094,0.4846 -2.60983,0.96783c-0.74883,0.63606 -1.2755,1.14256 -2.22533,1.364c-0.99933,0.23297 -1.65172,0.58014 -2.496,1.12534c-0.66179,0.42735 -1.54062,0.8653 -2.17867,1.42082c-0.70006,0.6095 -1.15717,1.13634 -1.71066,1.68983c-0.78934,0.78934 -1.38484,1.38484 -1.95334,1.95334c-0.81467,0.81467 -1.33449,1.33751 -2.00267,2.00267c-0.49838,0.49612 -1.10913,1.08775 -1.60533,1.51999c-0.85883,0.74812 -1.52774,1.26289 -2.20717,1.79251c-0.65727,0.51234 -1.56253,1.14124 -2.31284,1.8595c-0.53569,0.5128 -1.0358,1.30969 -1.40799,2.123c-0.43268,0.94548 -0.71024,1.76839 -0.864,2.349c-0.31218,1.1788 -0.32745,1.79143 -0.45683,2.6685c-0.12384,0.83951 -0.52267,1.85381 -1,2.5c-0.47171,0.63858 -1.16965,1.38301 -1.5325,2.22083c-0.41786,0.96483 -0.32788,1.81122 -0.61334,2.63333c-0.29222,0.84163 -0.78621,1.64793 -0.82883,2.51401c-0.04424,0.89891 -0.0045,1.81934 -0.0045,2.67349c0,0.97917 0,1.77917 0,2.57918c0,1 0,1.79999 0,2.79866c0,0.76534 -0.06155,1.72723 0.08533,2.57066c0.14153,0.81271 0.40462,1.57596 0.80135,2.34801c0.53165,1.03461 1.12689,1.66864 1.51782,2.07816c0.78107,0.81819 1.3846,1.39409 1.93834,1.94734c0.77283,0.77217 1.3905,1.38191 2.14116,1.85716c0.67436,0.42694 1.66905,0.96541 2.14134,1.472c0.76018,0.81538 1.0058,1.35342 1.58533,2.07733c0.75632,0.94475 1.41936,1.39568 1.91734,1.86534c0.68832,0.64917 0.74803,1.61148 1.15733,2.50133c0.31854,0.69252 0.9278,1.36224 1.31467,2.09467c0.51775,0.98016 0.79999,1.58934 1.2,2.38934c0.5,1 0.80701,1.59653 1.29984,2.59999c0.29367,0.59796 0.69476,1.38507 0.843,2.40001c0.11588,0.7933 0.05716,1.79999 0.05716,2.60001c0,1 0,1.79999 0,2.79999c0,0.81067 0,1.68533 0,2.68668c0,0.56 0,1.47498 0,2.47998c0,1.09052 0,1.85419 0,2.63785c0,1.1955 0.00693,1.99432 -0.01067,2.78482c-0.01724,0.7749 -0.02852,1.53226 -0.21083,2.58917c-0.17145,0.9939 -0.38155,1.61331 -0.7785,2.8215c-0.19756,0.60126 -0.50166,1.5079 -0.75717,2.10001c-0.52531,1.21735 -0.8907,1.79837 -1.24283,2.37915c-0.50912,0.83972 -1.00674,1.58472 -1.47917,2.52084c-0.34013,0.67395 -0.71416,1.6904 -0.94215,2.24667c-0.37766,0.92142 -0.90228,1.92596 -1.34668,2.63733c-0.2323,0.37186 -0.74347,1.10852 -1.22665,1.86334c-0.68852,1.07559 -1.04535,1.7597 -1.33334,2.39532c-0.37709,0.83224 -0.87627,1.88873 -1.308,2.54401c-0.5343,0.81094 -0.85336,1.3692 -1.21066,2.03198c-0.40306,0.74768 -0.83479,1.57355 -1.32001,2.448c-0.50922,0.91772 -1.04031,1.83569 -1.29166,2.29169c-0.48039,0.87152 -0.78845,1.24771 -1.287,2.68567c-0.26913,0.77625 -0.39685,1.86426 -0.61183,2.46048c-0.31229,0.86612 -0.75706,1.81216 -0.93834,2.35718c-0.29189,0.87756 -0.45595,1.52014 -0.62183,2.92233c-0.08746,0.73929 -0.10443,1.49753 -0.252,2.23199c-0.21616,1.07581 -0.53351,1.73477 -1.01601,2.70935c-0.32727,0.66104 -0.80804,1.69077 -1.0575,2.42731c-0.25143,0.7424 -0.44426,1.49707 -0.75717,2.58069c-0.29218,1.01178 -0.49789,1.64648 -0.7,2.26215c-0.3959,1.20602 -0.60597,1.80713 -0.90001,2.74051c-0.20415,0.64804 -0.50208,1.68475 -0.7,2.41666c-0.30319,1.12115 -0.49178,1.86569 -0.8,2.92603c-0.19481,0.67017 -0.40717,1.31915 -0.7,2.30533c-0.30756,1.03577 -0.5085,1.78461 -0.7,2.59933c-0.2093,0.89053 -0.31274,1.37167 -0.60001,2.9805c-0.10463,0.586 -0.19936,1.18976 -0.39999,2.41531c-0.09969,0.60892 -0.17955,1.20953 -0.5,2.85419c-0.09402,0.48251 -0.3,1.35599 -0.5,2.16666c-0.2,0.81067 -0.50484,2.16574 -0.59984,2.68549c-0.20616,1.12781 -0.29228,1.7261 -0.37933,2.33536c-0.08765,0.61343 -0.24922,1.82715 -0.35416,2.97916c-0.09512,1.04425 -0.11281,1.53305 -0.16667,2.45834c-0.05154,0.88538 -0.15865,2.20938 -0.284,3.12698c-0.06453,0.47241 -0.21834,1.43518 -0.29066,1.92535c-0.14607,0.98999 -0.30939,2.48862 -0.34001,2.98666c-0.06029,0.98071 -0.07693,1.93063 -0.08083,2.38834c-0.01088,1.28094 -0.0209,2.04678 0.01633,3.11432c0.02461,0.70584 0.13423,1.83508 0.26451,2.668c0.13837,0.88467 0.22397,1.33444 0.41916,2.22665c0.27908,1.2757 0.47795,2.04062 0.70616,2.73334c0.32024,0.97208 0.74582,1.8775 1.07333,2.47202c0.50058,0.90866 0.89325,1.48447 1.34933,2.39999c0.44357,0.89038 0.65665,1.5249 1.05067,2.48532c0.42702,1.04086 0.77682,1.77902 0.97333,2.16135c0.41417,0.80582 0.89799,1.65085 1.476,2.51999c0.6171,0.92795 0.96962,1.38327 1.31734,1.84802c0.69394,0.92752 1.05299,1.36868 2.01601,2.65198c0.56934,0.7587 0.82037,1.12131 1.3125,1.79169c0.46603,0.63483 1.17668,1.55121 1.70616,2.14032c0.53981,0.60062 1.11292,1.17899 1.716,1.716c0.88081,0.78433 1.79469,1.45157 2.36267,1.91068c0.55734,0.4505 1.31761,1.19354 2.02133,2c0.47789,0.54767 0.94206,1.14157 1.8575,1.853c0.63976,0.49716 1.3687,0.89847 2.10899,1.26001c1.06874,0.52197 1.76367,0.78244 2.4335,1.03632c0.67418,0.25552 1.3862,0.50351 2.55733,0.94666c0.86432,0.32706 1.75719,0.67908 2.20668,0.85333c0.88237,0.3421 2.10634,0.80753 2.83632,1.06818c0.67146,0.23975 1.6111,0.55759 2.51451,0.85718c0.90991,0.30176 1.53375,0.50687 2.18517,0.69998c1.39439,0.41339 2.13759,0.60004 2.88933,0.76401c0.73911,0.16119 1.80374,0.32471 2.49066,0.38333c1.10275,0.09412 1.51703,0.09323 2.96802,0.21933c0.57425,0.0499 1.84344,0.18616 2.52533,0.25867c0.7038,0.07483 1.42245,0.15137 2.14951,0.22202c0.72763,0.07068 2.15811,0.1918 2.84866,0.23117c1.32373,0.07547 1.96042,0.08884 2.58066,0.10065c1.19623,0.0228 1.77451,0.02017 2.89584,0.02084c1.08264,0.00064 1.61398,0 2.66666,0c1.05267,0 1.58401,0 2.66666,0c1.12,0 1.69501,0 2.875,0c0.60501,0 1.22,0 1.845,0c1.93484,0 2.59866,0 3.27051,0c0.67883,0 1.36368,0 2.74734,0c0.69681,0 2.09549,0.00052 2.7955,-0.00015c0.69998,-0.00067 1.40002,-0.0011 2.09998,-0.01053c1.40012,-0.01886 2.10028,-0.04025 2.80002,-0.07465c1.40067,-0.06885 2.10071,-0.13242 2.80267,-0.20001c0.7067,-0.06805 1.41916,-0.14636 2.86932,-0.32532c0.74261,-0.09164 1.49829,-0.19345 3.06134,-0.38934c0.80948,-0.10144 1.63724,-0.20081 2.48099,-0.29999c0.85757,-0.1008 1.72726,-0.20047 2.60699,-0.30002c0.8876,-0.10046 1.78137,-0.19974 3.57867,-0.39999c0.89951,-0.10022 1.79642,-0.19913 2.68649,-0.30899c0.88193,-0.10886 1.75217,-0.22534 2.6055,-0.36301c0.83771,-0.13516 1.66119,-0.26126 3.20801,-0.66135c0.74048,-0.19153 1.4476,-0.42819 2.133,-0.672c0.67197,-0.23901 1.32507,-0.49539 1.97101,-0.74399c0.63937,-0.24606 1.26837,-0.51016 2.56265,-0.91733c0.6503,-0.20459 1.31506,-0.36926 1.98151,-0.52802c0.66559,-0.15857 1.33163,-0.30252 1.99051,-0.45599c0.65213,-0.15189 2.53192,-0.67188 3.1185,-0.89233c0.57758,-0.2171 1.68402,-0.72403 2.22198,-0.99866c0.53809,-0.27469 1.06564,-0.57349 2.6875,-1.45834c0.55371,-0.30209 1.11761,-0.60202 1.69052,-0.89999c1.16153,-0.60413 1.75317,-0.9006 2.34732,-1.20001c0.59653,-0.3006 2.39511,-1.20062 2.99551,-1.49866c0.59958,-0.29764 1.19843,-0.59393 1.79999,-0.88049c1.19693,-0.57019 1.79492,-0.84738 3,-1.35419c0.59738,-0.25125 1.19803,-0.48428 2.38934,-0.94131c0.58951,-0.22614 1.18118,-0.4346 2.32532,-0.90933c1.12534,-0.46695 1.67062,-0.72424 2.72818,-1.27316c0.5246,-0.27231 1.03976,-0.55774 2.05267,-1.14734c0.50488,-0.29388 1.50626,-0.89255 2.50314,-1.49683c0.49774,-0.30173 0.99707,-0.59946 1.96533,-1.23468c0.48209,-0.31628 1.87302,-1.32611 2.31433,-1.68518c0.43872,-0.35699 1.27618,-1.09219 1.68002,-1.45798c0.78226,-0.70853 1.87161,-1.69156 2.22015,-1.978c0.65805,-0.54077 1.30756,-1.01306 1.91699,-1.49103c1.21823,-0.95547 1.8056,-1.4942 2.36285,-2.05182c0.53723,-0.5376 1.23904,-1.31186 1.72733,-2.04285c0.42023,-0.62912 0.81433,-1.45715 1.22501,-2.27847c0.3465,-0.69302 0.76309,-1.50854 1.242,-2.49301c0.35257,-0.72479 0.53888,-1.09982 0.86331,-1.88834c0.48853,-1.18741 0.73279,-2.00732 1.00485,-2.83899c0.28583,-0.87372 0.42502,-1.33835 1.02167,-2.80103c0.21573,-0.52884 0.46323,-1.06052 0.93665,-2.15732c0.23666,-0.54828 0.70892,-1.61874 1.02084,-2.66666c0.28342,-0.95215 0.35071,-1.41666 0.45834,-2.29169c0.10217,-0.83075 0.19595,-2.04358 0.32565,-2.84033c0.12906,-0.79276 0.30731,-1.56241 0.43201,-2.31598c0.2309,-1.39526 0.23923,-2.05118 0.33667,-2.98083c0.09506,-0.90671 0.30472,-1.80334 0.522,-2.7045c0.14447,-0.59924 0.35446,-1.80032 0.38931,-2.41068c0.05399,-0.9455 0.03043,-1.95602 0.03735,-2.67334c0.0108,-1.11612 0.01819,-1.8678 0.16531,-2.94934c0.09354,-0.68765 0.34943,-1.68427 0.48068,-2.3765c0.21213,-1.11887 0.27689,-1.95633 0.31665,-2.83017c0.01996,-0.43896 0.03375,-1.29749 0.03601,-2.79565c0.00089,-0.59735 0,-1.608 0,-2.58585c0,-0.81448 0,-1.38916 0,-2.57849c0,-0.90451 0,-1.52084 0,-2.48532c0,-1.03601 0,-1.76733 0,-2.51468c0,-1.116 0.00903,-2.17847 -0.00449,-2.83835c-0.01877,-0.91531 -0.12476,-2.00604 -0.35269,-2.70898c-0.29907,-0.92239 -0.75006,-1.87115 -0.93832,-2.40085c-0.27957,-0.78665 -0.54535,-1.9173 -0.72983,-2.66647c-0.21735,-0.88266 -0.57715,-1.62698 -1.14133,-2.38535c-0.62259,-0.83688 -1.04132,-1.20267 -1.83334,-2c-0.59351,-0.59747 -1.17258,-1.15552 -1.97833,-1.97849c-0.48523,-0.49561 -0.81705,-1.39435 -1.30701,-2.22153c-0.40329,-0.68085 -1.12033,-1.2294 -1.68533,-1.68533c-0.77802,-0.62784 -1.56403,-1.13934 -2.08115,-1.57632c-0.80392,-0.67932 -1.50031,-1.49167 -1.94818,-2.05917c-0.45758,-0.5798 -1.15796,-1.48679 -1.68399,-2.07782c-0.53265,-0.59851 -1.0885,-1.16748 -1.63202,-1.716c-0.99472,-1.00391 -1.44803,-1.44931 -2.0795,-2.08084c-0.80453,-0.80463 -1.2204,-1.19424 -1.8045,-1.84048c-0.82291,-0.91046 -1.21173,-1.43887 -1.77914,-2.26401c-0.37234,-0.54147 -0.99915,-1.57846 -1.38486,-2.25333c-0.43445,-0.76013 -0.96414,-1.48618 -1.39316,-2.11368c-0.59818,-0.87494 -0.8967,-1.49731 -1.26367,-2.15384c-0.38025,-0.68024 -1.17303,-1.94049 -1.57016,-2.46481c-0.52933,-0.69888 -1.116,-1.50137 -1.35834,-2.32501c-0.18771,-0.638 -0.48294,-1.61642 -0.91199,-2.436c-0.31625,-0.60413 -0.69376,-1.22397 -1.11716,-2.27466c-0.29065,-0.72128 -0.50214,-1.47824 -0.82019,-2.59467c-0.30255,-1.06195 -0.50717,-1.71936 -0.76532,-2.63733c-0.15698,-0.55826 -0.3671,-1.79608 -0.46133,-2.47202c-0.16739,-1.20053 -0.32007,-1.73541 -0.58533,-2.58533c-0.37283,-1.19461 -0.60287,-1.78339 -0.8685,-2.66849c-0.24954,-0.83142 -0.43933,-1.83786 -0.52084,-2.54169c-0.08667,-0.7482 -0.27762,-1.95023 -0.436,-2.6405c-0.16656,-0.72589 -0.35257,-1.45966 -0.664,-2.517c-0.28821,-0.97853 -0.47971,-1.58272 -0.89999,-2.65498c-0.28198,-0.71945 -0.70758,-1.60583 -0.87851,-2.588c-0.13861,-0.79655 -0.11923,-1.62601 -0.12149,-2.65718c-0.00195,-0.90067 0,-1.52016 0,-2.53049c0,-0.90533 0,-2.03368 0,-2.69633c0,-0.69467 0,-1.72667 0,-2.65184c0,-1.022 0,-1.72549 0,-2.72684c0,-0.81599 0,-1.63199 0,-2.63066c0,-0.87466 -0.04736,-1.88797 0.02084,-2.68533c0.08612,-1.0069 0.43277,-1.79028 0.6265,-2.39999c0.31384,-0.98775 0.34732,-1.83595 0.35266,-2.76668c0.00452,-0.78598 0,-1.608 0,-2.66666c0,-0.94135 0,-1.61934 0,-2.85068c0,-0.81599 0,-1.36333 0,-2.62933c0,-0.84 0.00006,-1.66566 0,-2.55367c-0.00009,-0.89716 0.00128,-1.82021 -0.03601,-2.493c-0.03735,-0.6741 -0.16495,-1.90256 -0.57465,-2.78267c-0.40891,-0.8784 -0.93011,-1.3627 -1.556,-2.19066c-0.50232,-0.66449 -1.01587,-1.44704 -1.34933,-1.98401c-0.61465,-0.98972 -0.97385,-1.68846 -1.36801,-2.36667c-0.58633,-1.00887 -0.93433,-1.55382 -1.52051,-2.36333c-0.57834,-0.79871 -1.19281,-1.49388 -1.57465,-1.93184c-0.53812,-0.61723 -1.30371,-1.59386 -1.57419,-2.18483c-0.48038,-1.04959 -0.58719,-1.74084 -1.15649,-2.49767c-0.45319,-0.60245 -1.15091,-1.49124 -1.53299,-2.2865c-0.37378,-0.77797 -0.69031,-1.76573 -1.18918,-2.40117c-0.39108,-0.49812 -1.33078,-1.1949 -1.92599,-1.65601c-0.64069,-0.49635 -1.29276,-0.9783 -2.142,-1.66133c-0.63516,-0.51083 -1.38574,-1.05338 -1.97916,-1.83333c-0.56125,-0.73769 -0.7117,-1.62602 -1.22534,-2.2c-0.65802,-0.73532 -1.39566,-1.40018 -1.93149,-1.936c-0.68567,-0.68567 -1.21069,-1.21066 -1.82568,-1.82567c-0.70499,-0.705 -1.22232,-1.22232 -1.76367,-1.76366c-0.54935,-0.54933 -1.60587,-1.61015 -2.09067,-2.08934c-0.45667,-0.45137 -1.11572,-1.10672 -2.10532,-1.88516c-0.52069,-0.40959 -1.06836,-0.79541 -1.89468,-1.31483c-0.98538,-0.6194 -1.67569,-0.91217 -2.51733,-1.48534c-0.67508,-0.45973 -1.29028,-1.30385 -1.96664,-1.71466c-0.77612,-0.47142 -1.25183,-1.14172 -2.20001,-1.28534c-0.79095,-0.11981 -1.70001,0 -2.60001,0l-0.89999,0l-0.88934,-0.01067" id="svg_4" stroke-width="2" stroke="#000" fill="none"/>
  <path t="17182,17270,17278,17295,17311,17328,17345,17345,17361,17362,17362,17378,17378,17378,17395,17395,17395,17411,17411,17411,17411,17428,17428,17428,17428,17445,17445,17445,17445,17461,17461,17478,17478,17478,17495,17495,17511,17511,17511,17528,17528,17528,17545,17545,17545,17561,17561,17561,17578,17578,17578,17578,17595,17595,17595,17611,17611,17611,17611,17611,17628,17628,17628,17628,17628,17645,17645,17645,17645,17645,17662,17662,17662,17678,17678,17678,17678,17679,17679,17695,17695,17695,17695,17711,17711,17728,17745,17761,17761,17761,17778,17778,17778,17778,17795,17795,17795,17795,17811,17811,17811,17828,17828,17845,17845,17845,17861,17861,17878,17878,17878,17878,17895,17895,17895,17895,17895,17911,17911,17911,17911,17928,17928,17928,17950,17950,17961,17982,17998,17998,18014,18014,18028,18045,18045,18061,18061,18078,18078,18095,18095,18111,18128,18145,18145,18161,18182,18182,18222,18222,18222,18254,18278" d="m309,221c-1.70001,0 -2.60001,0 -3.5,0c-0.89999,0 -1.8045,0 -2.8215,0c-0.69934,0 -1.67941,-0.02917 -2.48917,0.01067c-0.87677,0.04314 -1.87854,0.25726 -2.68933,0.51016c-0.55115,0.17191 -1.60077,0.53607 -2.5,1.02084c-0.46515,0.25076 -1.42606,0.99599 -1.95715,1.46815c-0.5686,0.50552 -1.13135,1.06071 -2.04285,1.8235c-0.5899,0.49367 -1.49686,1.15039 -2.10001,1.56216c-0.89539,0.6113 -1.5004,0.99864 -2.35834,1.58368c-0.52924,0.36087 -1.45178,0.94389 -2,1.52083c-0.71811,0.75572 -1.03885,1.53636 -1.427,2.10133c-0.56519,0.82268 -1.168,1.35652 -1.948,2.39867c-0.436,0.58253 -0.78967,1.21782 -1,2.16667c-0.17188,0.77539 -0.11517,1.62112 -0.33331,2.66666c-0.19998,0.95848 -0.56018,1.61052 -0.93317,2.58817c-0.30814,0.80765 -0.52792,1.37651 -0.73352,2.57851c-0.15277,0.89313 -0.17664,1.50407 -0.07999,2.39999c0.13062,1.21085 0.34039,1.81728 0.56,2.436c0.47784,1.34637 0.83362,2.05171 1.18933,2.8c0.36945,0.77716 0.56641,1.16956 1.164,2.364c0.39993,0.79936 0.80051,1.595 1.23599,2.36401c0.21616,0.38168 0.91119,1.48462 1.448,2.14798c0.52283,0.64612 1.0708,1.22726 1.63202,1.716c0.96985,0.84454 1.72958,1.28687 2.25098,1.63449c0.94022,0.62683 1.68747,1.18936 2.09552,1.5c0.86072,0.65524 1.29517,1.00052 2.17084,1.67084c0.83112,0.6362 1.58698,1.20245 2.27332,1.67334c0.5946,0.40796 1.52307,1.10284 2.47202,1.272c0.90729,0.16171 1.83237,0.04654 2.74316,0.021c0.74152,-0.02081 1.46896,-0.11789 2.64749,-0.57034c0.70462,-0.27051 1.4223,-0.63882 2.14801,-1.03198c1.07059,-0.58002 1.72723,-0.98785 2.341,-1.39734c0.58609,-0.39102 1.62714,-1.19165 2.07999,-1.59549c0.62506,-0.5574 1.48965,-1.34149 1.94083,-1.92535c0.59012,-0.76367 0.80585,-1.49072 1.12085,-2.22849c0.47729,-1.11789 0.98386,-1.71356 1.23334,-2.58401c0.19373,-0.67584 0.16028,-1.59595 0.16531,-2.32532c0.00903,-1.30531 0.00134,-1.79333 0.00134,-2.81734c0,-1.048 0,-1.56601 0,-3.024c0,-0.84267 0,-1.58133 0,-2.23199c0,-1.10133 -0.00189,-2.03201 0,-2.86667c0.00226,-0.99684 -0.04544,-1.78462 0.35266,-2.64417c0.42264,-0.91249 0.64734,-1.75717 0.64734,-2.51434c0,-0.89549 0,-1.75883 0,-2.74283c0,-0.8215 0,-1.71066 0,-2.69983c0,-0.77934 0,-1.77884 0,-2.55284c0,-0.89999 0.00558,-1.76335 0,-2.7265c-0.00534,-0.92087 -0.27216,-1.73242 -0.80133,-2.32083c-0.66165,-0.7357 -1.07846,-1.5213 -1.19867,-2.22083c-0.16824,-0.9789 -0.436,-1.76851 -0.80133,-2.49384l-0.59866,-0.83867l-0.70001,-0.52516" id="svg_5" stroke-width="2" stroke="#000" fill="none"/>
  <path t="19431,19463,19463,19471,19471,19479,19479,19479,19495,19495,19495,19495,19495,19495,19511,19511,19511,19511,19511,19511,19511,19511,19511,19528,19528,19528,19528,19528,19528,19528,19528,19528,19545,19545,19545,19545,19545,19545,19545,19545,19545,19561,19561,19561,19561,19561,19561,19561,19561,19561,19578,19578,19578,19578,19578,19578,19578,19578,19578,19767,19767,19767,19767,19767,19767,19767,19767,19767,19791,19791,19791,19791,19791,19791,19791,19791,19799,19811,19811,19828,19828,19845,19845,19845,19861,19861,19878,19878,19878,19895,19895,19911,19967,20007,20079,20095,20102,20111,20128,20128,20145,20145,20145,20161,20161,20161,20161,20161,20178,20178,20178,20178,20178,20178,20178,20195,20195,20195,20195,20195,20195,20195,20211,20211,20211,20211,20211,20228,20228,20228,20228,20245,20245,20261,20261,20278,20278,20295,20295,20311,20311,20328,20328,20328,20345,20366,20367,20391,20391,20415,20439,20446,20471,20487,20495,20511,20528,20528,20545,20545,20561,20561,20578,20578,20595,20595,20611,20611,20628,20628,20645,20663,20663,20678,20679,20695,20695,20711,20728,20728,20745,20745,20761,20761,20778,20778,20778,20807,20807,20854,20862" d="m267,303c1.836,0 2.60132,0 3.60449,0c0.85266,0 1.81735,0 2.65283,0c0.62534,0 2.07602,0 2.91733,0c0.45319,0 1.4295,0 1.95468,0c1.12933,0 2.37067,0.00049 3.03549,-0.00015c0.69385,-0.00067 1.41571,-0.00253 2.16452,-0.01053c0.77484,-0.0083 1.57474,-0.02222 2.3985,-0.04648c0.84692,-0.02496 2.60577,-0.10522 3.5155,-0.16452c0.9303,-0.06061 1.88034,-0.13599 2.84998,-0.22498c0.99042,-0.09091 2.00043,-0.19626 3.03,-0.315c1.05048,-0.12115 3.21045,-0.40189 4.31967,-0.55984c1.12814,-0.16064 2.27164,-0.33365 3.42902,-0.5145c1.16995,-0.1828 2.34949,-0.37372 3.53699,-0.56851c1.19382,-0.19583 3.59097,-0.59564 4.79034,-0.79532c1.19528,-0.19901 2.38254,-0.39633 3.55798,-0.58951c1.15921,-0.19049 2.29846,-0.37592 3.414,-0.5535c1.08716,-0.17307 3.16171,-0.49258 4.142,-0.6355c0.93973,-0.13699 1.83969,-0.26239 2.70001,-0.375c0.8197,-0.1073 1.5997,-0.20282 2.34,-0.285c0.69971,-0.07767 1.97977,-0.19818 2.56018,-0.24017c0.54095,-0.03912 1.04422,-0.06668 1.5105,-0.08548c0.43005,-0.01733 0.82529,-0.0267 1.18649,-0.03152c0.32816,-0.00439 0.8895,-0.0051 1.12482,-0.00433c0.20734,0.00067 0.38879,0.00153 0.54602,0.01053c0.13547,0.00775 0.26205,-0.00385 0.34799,0.04648c0.44922,0.26303 0.59903,1.26132 0.87067,1.94284c0.38858,0.97485 0.49774,1.80984 0.5,2.76935c0.00177,0.7515 0,1.54797 0,2.54666c0,0.90933 0,1.85065 0,2.63217c0,0.7905 0,1.90881 0,2.74283c0,0.909 0,1.80899 0,2.70898c0,0.89999 0.32535,2.07965 -0.35718,2.54285c-0.69901,0.47437 -1.74316,0.05765 -2.45715,0.05716c-0.95901,-0.00067 -1.7699,-0.00754 -2.409,-0.05716c-1.11206,-0.08636 -1.94855,-0.22769 -2.85934,-0.36816c-0.97452,-0.15027 -1.48053,-0.24963 -3.08398,-0.40802c-0.55399,-0.05472 -1.11832,-0.09106 -2.26935,-0.13065c-0.58469,-0.02011 -1.76849,-0.03278 -2.36533,-0.03467c-1.19867,-0.00381 -2.39734,-0.00134 -2.99417,-0.00134c-0.59384,0 -1.76849,0 -2.34732,0c-0.57184,0 -2.23535,0 -2.76917,0c-1.03067,0 -2.00534,0 -2.46918,0c-1.28549,0 -2.39999,0 -3.05634,0c-0.87451,0 -1.87717,0 -2.75183,0c-1.0105,0 -1.78983,0 -2.78934,0c-0.77399,0 -1.68488,-0.05368 -2.42584,0.05716c-1.01035,0.15112 -1.82349,0.5488 -2.59549,1.1095c-0.61963,0.45004 -1.15625,0.98276 -2.11334,1.66534c-0.71429,0.50943 -0.74194,1.23431 -1.108,2.14648c-0.31061,0.77402 -0.78497,1.6131 -1.48315,2.07419c-0.75528,0.49881 -0.99295,1.50055 -1.65268,1.89017c-0.81329,0.48032 -1.84283,0.05716 -2.74298,0.05716c-0.78519,0 -1.73584,0.00171 -2.50116,0c-0.99869,-0.00226 -1.81693,0.01196 -2.79736,-0.284c-0.78372,-0.23657 -1.61804,-0.49292 -2.35397,-0.82584c-0.78629,-0.35571 -1.3476,-1.15305 -2.22583,-1.64734c-0.76898,-0.4328 -1.51608,-0.80182 -2.34283,-1.34283c-0.65918,-0.43137 -1.54126,-0.86438 -2.15784,-1.39999c-0.75784,-0.65833 -1.36563,-1.26797 -1.51016,-2.13599c-0.13953,-0.83786 -0.01068,-1.76852 -0.01068,-2.76401c0,-0.80002 0,-1.80002 0,-2.60001c0,-1 0,-1.79999 0,-2.60001c0,-0.99548 0,-1.74283 0,-2.76401l0,-0.836" id="svg_6" stroke-width="2" stroke="#000" fill="none"/>
  <path t="22262,22366,22366,22378,22378,22395,22395,22395,22411,22411,22411,22411,22428,22428,22428,22428,22454,22454" d="m295,54c1.836,0.964 2.60132,0.99933 3.60001,1c0.79999,0.00053 1.80518,-0.02191 2.70801,0.036c0.54907,0.03522 1.94543,0.24724 2.35449,0.31667c0.85861,0.14573 1.7334,0.3185 3.00415,0.48067c0.75967,0.09695 1.45068,0.14133 2.36719,0.21933l1.04449,0.16867l0.88,0.27867" id="svg_7" stroke-width="2" stroke="#000" fill="none"/>
  <path t="25934,26030,26030,26038,26038,26046,26046,26046,26061,26061,26078,26078,26078,26094,26094,26094,26094,26094,26094,26094,26111,26111,26111,26111,26111,26128,26128,26128,26128,26144,26144,26144,26144,26144,26161,26161,26161,26161,26178,26178,26178,26178,26194,26194,26194,26194,26211,26211,26211,26211,26228,26228,26228,26244,26244,26244,26244,26261,26261,26261,26261,26278,26278,26278,26294,26294,26294,26294,26294,26311,26311,26311,26328,26328,26344,26344,26344,26361,26361,26361,26361,26378,26378,26378,26394,26394,26394,26411,26411,26429,26429,26429,26444,26444,26444,26444,26461,26461,26461,26461,26478,26478,26478,26478,26494,26494,26494,26494,26494,26511,26511,26511,26528,26528,26528,26544,26561,26561,26561,26578,26578,26578,26594,26594,26594,26611,26611,26628,26628,26644,26644,26644,26662,26662,26678,26678,26678,26694,26694,26694,26694,26711,26711,26711,26711,26728,26728,26728,26744,26744,26744,26761,26761,26778,26778,26778,26778,26794,26794,26794,26811,26811,26828,26828,26828,26844,26844,26844,26861,26878,26878,26894,26894,26894,26911,26911,26911,26928,26928,26928,26944,26944,26944,26961,26961,26961,26978,26978,26978,26978,26994,26994,26994,27011,27011,27011,27011,27028,27028,27044,27044,27061,27061,27061,27078,27078,27094,27094,27094,27094,27111,27111,27111,27128,27128,27144,27144,27161,27161,27161,27178,27178,27194,27194,27211,27228,27228,27244,27244,27244,27261,27261,27278,27278,27294,27294,27294,27294,27311,27312,27312,27328,27328,27328,27344,27344,27345,27345,27362,27362,27362,27362,27378,27379,27379,27379,27379,27379,27394,27395,27395,27395,27411,27411,27412,27412,27428,27428,27429,27429,27429,27444,27445,27445,27462,27462,27478,27502,27518,27549,27565,27566,27582,27597,27621,27629,27653,27677,27693,27701,27702,27725,27757,27821,27838" d="m298,53c0,2.00533 0,2.74933 0,3.85733c0,0.79333 0,1.6855 0,2.6635c0,0.7965 0,1.79383 0,2.45834c0,1.02083 0,1.87416 0,2.70667c0,1.1475 0,1.62116 0,2.68649c0,0.57567 0,1.773 0,2.37867c0,0.59967 0,2.2845 0,2.793c0,0.948 0.00006,1.824 0,2.652c-0.00009,1.204 0.00549,2.00426 -0.02084,2.804c-0.02634,0.80039 -0.12955,2.00259 -0.2645,2.79867c-0.13452,0.79357 -0.31598,1.56776 -0.51599,2.316c-0.2854,1.06763 -0.59979,2.05965 -0.79868,2.71066c-0.20111,0.65833 -0.50955,1.69347 -0.6955,2.42734c-0.28336,1.11833 -0.44955,1.85909 -0.58301,2.92599c-0.08337,0.66656 -0.11499,1.64662 -0.12015,2.30534c-0.00809,1.0373 0.00021,2.14185 -0.03735,2.89066c-0.0372,0.74204 -0.15698,1.81047 -0.39999,2.78934c-0.15643,0.63013 -0.57092,1.83376 -0.76266,2.43733c-0.29105,0.91621 -0.48755,1.5486 -0.63467,2.56533c-0.1557,1.07583 -0.15234,1.81238 -0.16217,2.52351c-0.01346,0.97641 0.01749,1.8105 -0.0405,2.5965c-0.08978,1.21704 -0.24615,1.96565 -0.38931,2.78933c-0.14746,0.84834 -0.31073,1.66919 -0.45334,2.75951c-0.11176,0.85458 -0.11807,1.56539 -0.40533,2.56583c-0.24393,0.8495 -0.58234,1.76146 -0.65884,2.55583c-0.08194,0.85083 -0.05716,2.04283 -0.05716,2.64283c0,0.9 0,1.8 0,2.69984c0,0.8895 0,1.743 0,2.77867c0,0.6855 0,1.52016 0,2.526c0,0.85266 0.01636,1.81737 -0.01068,2.63148c-0.02887,0.86928 -0.20462,2.06552 -0.34198,2.6685c-0.21268,0.93367 -0.39859,1.57593 -0.52585,2.61684c-0.08911,0.72873 -0.11502,1.85329 -0.12015,2.59467c-0.00735,1.06281 -0.00134,1.73584 -0.00134,2.74533c0,0.70801 0,1.88133 0,2.744c0,0.89467 0,1.34401 0,2.22667c0,1.22484 0,2.28534 0,2.91066c0,1.09067 0,2.01067 0,2.77068c0,1.00749 0,2.0295 0,2.748c0,0.7905 0,1.81732 0,2.51334c0,0.90933 0,1.90933 0,2.72533c0,0.81599 0,1.81467 0,2.68933c0,1.01067 0,1.81067 0,2.81067c0,0.8 0,1.60001 0,2.60451c0,0.85266 0,1.81715 0,2.64217c0,0.59999 0,1.92 0,2.63733c0,0.74133 0,1.49066 0,2.94933c0,0.68001 0,1.32001 0,2.205c0,1.04033 0.00046,1.96167 0,2.64568c-0.00067,1 0.03372,1.82216 -0.08533,2.63199c-0.1839,1.25098 -0.54831,1.93282 -0.74802,3.01733c-0.11588,0.62929 -0.14398,1.31702 -0.16217,2.36134c-0.01691,0.97186 -0.00449,1.791 -0.00449,2.69633c0,1.01033 0,1.84499 0,2.77567c0,0.786 0,1.608 0,2.66666c0,0.92 0,1.68001 0,2.66667c0,0.98666 0,1.74667 0,2.66667c0,0.786 0,1.608 0,2.66666c0,0.94135 0,1.61934 0,2.58817c0,0.8145 0,1.68301 0,2.87834c0,0.59566 0,1.46417 0,2.53349c0,0.95201 0,1.6765 0,2.80934c0,0.66266 0,1.35733 0,2.38933c0,0.92534 0,1.968 0,2.73601c0,0.87466 0,1.88266 0,2.58133c0,0.68266 0,1.88 0,2.82933c0,1.02133 0,1.82133 0,2.82133c0,0.8 0.01532,1.60017 -0.00134,2.40266c-0.01807,0.86984 -0.15787,1.93208 -0.28265,2.56534c-0.20386,1.03447 -0.39072,1.72183 -0.54935,2.69867c-0.13245,0.8156 -0.1644,1.72433 -0.16666,2.73332c-0.00177,0.8 0,1.80017 0,2.62083c0,1.14584 0,1.92734 0,2.71783c0,0.92801 0,1.74051 0,2.74533c0,0.69067 0,1.76334 0,2.68268c0,0.85416 0,1.83333 0,2.63333c0,0.8 0,1.8 0,2.59999c0,1.00134 0,1.62085 0,2.76666c0,0.7905 0,1.64401 0,2.23468c0,1.19733 0,2.07782 0,2.91333c0,1.004 0,1.72699 0,2.54001c0,1.00949 0,1.80783 0,2.66617c0,0.87833 0,2.14581 0,2.91116c0,0.71732 0,1.41867 0,2.90134c0,0.40948 0,1.27649 0,2.1875c0,0.931 0,1.39648 0,2.75748c0,0.86002 0,1.68002 0,2.46002c0,1.095 0.00494,2.1138 -0.02084,2.7825c-0.02658,0.68945 -0.19757,2.22208 -0.26315,2.64581c-0.13531,0.8743 -0.29895,1.7453 -0.43201,2.58002c-0.17331,1.08716 -0.26471,1.94482 -0.28265,2.84933c-0.01984,0.9993 -0.00134,1.74683 -0.00134,2.76801c0,0.93597 0,1.836 0,2.73599c0,0.89999 0,1.69998 0,2.60001c0,0.89999 0,1.79999 0,2.69998c0,0.89999 0,1.80002 0,2.70001c0,0.89999 0,1.69998 0,2.60001l0,0.89999l0,0.89999l0,0.89999" id="svg_9" stroke-width="2" stroke="#000" fill="none"/>
  <path t="28926,29029,29038,29046,29046,29061,29078,29078,29094,29094,29094,29094,29111,29111,29111,29111,29128,29128,29128,29144,29144,29144,29144,29161,29161,29161,29178,29178,29178,29194,29194,29194,29211,29211,29211,29211,29228,29228,29228,29244,29244,29244,29261,29261,29261,29278,29278,29294,29294,29294,29294,29311,29311,29311,29311,29328,29328,29328,29344,29344,29344,29344,29361,29361,29361,29361,29378,29378,29378,29394,29394,29394,29411,29411,29428,29428,29428,29444,29444,29461,29461,29461,29478,29478,29478,29494,29494,29494,29494,29511,29511,29511,29511,29528,29528,29528,29528,29544,29544,29544,29544,29561,29561,29561,29578,29578,29594,29594,29611,29611,29628,29628,29628,29644,29644,29644,29661,29661,29661,29678,29678,29678,29694,29694,29694,29694,29711,29711,29728,29728,29728,29744,29744,29761,29761,29778,29778,29778,29794,29794,29794,29811,29811,29811,29828,29828,29828,29844,29844,29844,29861,29861,29878,29878,29878,29894,29894,29894,29911,29911,29928,29928,29944,29944,29944,29961,29961,29961,29978,29978,29978,29994,29994,30011,30028,30028,30044,30044,30061,30061,30061,30078,30078,30078,30094,30094,30094,30094,30111,30111,30111,30128,30128,30128,30144,30144,30161,30161,30161,30178,30178,30178,30194,30194,30194,30194,30211,30211,30211,30211,30228,30228,30228,30244,30244,30244,30261,30261,30261,30278,30278,30278,30294,30294,30311,30328,30328,30344,30344,30361,30361,30378,30394,30394,30411,30411,30428,30428,30444,30461,30478,30478,30478,30494,30494,30494,30494,30511,30511,30511,30511,30528,30528,30528,30544,30544,30544,30561,30561,30561,30578,30578,30578,30578,30594,30594,30594,30594,30611,30611,30611,30611,30628,30628,30628,30629,30629,30644,30644,30644,30661,30661,30661,30661,30678,30678,30694,30694,30711,30711,30728,30744,30761,30778,30778,30794,30837,30853,30853" d="m301,53c1.564,0.61067 1.98199,1.41013 2,2.32133c0.01688,0.85316 0,1.79333 0,2.67867c0,0.8715 0,1.7645 0,2.708c0,0.724 0,1.496 0,2.69167c0,0.79134 0,1.55867 0,2.286c0,1.27167 0,2.06367 0,2.81966c0,1.13734 0,1.8 0,2.49467c0,1.032 0.0231,2.2317 -0.02084,2.97916c-0.04147,0.70523 -0.26315,1.70483 -0.47916,2.52084c-0.216,0.816 -0.41849,1.81705 -0.5,2.52084c-0.08667,0.74819 -0.28333,1.94863 -0.42532,2.6405c-0.14865,0.72414 -0.33649,1.45025 -0.48935,2.85333c-0.07053,0.64738 -0.07877,1.58084 -0.08548,2.78517c-0.00333,0.59567 0.03589,1.4754 -0.1665,2.5335c-0.13779,0.72041 -0.54663,1.54684 -0.74933,2.56933c-0.12534,0.63219 -0.24463,1.93182 -0.36801,2.56667c-0.13474,0.69331 -0.33276,1.40911 -0.54935,2.86401c-0.10104,0.67869 -0.14468,1.3303 -0.16217,2.26216c-0.02261,1.2043 -0.00449,1.8045 -0.00449,2.70451c0,1.2 0,1.80133 0,2.72083c0,0.63633 0,2.00033 0,2.72733c0,0.731 0,1.442 0,2.709c0,0.7815 0,1.491 0,2.72683c0,0.816 0,1.632 0,2.63067c0,0.6645 0,1.68533 0,2.48534c0,0.8 0,1.8045 0,2.65717c0,0.96416 0,1.76817 0,2.59016c0,1.0315 0,1.9735 0,2.722c0,1.20133 0,1.90266 0,2.65201c0,0.78133 0,1.97849 0,2.77415c0,0.78368 0,1.54733 0,2.63783c0,1.01401 0,1.66667 0,2.65067c0,1.03717 0,1.76418 0,2.49518c0,1.0515 0,1.97783 0,2.97916c0,0.63901 0,1.64168 0,2.44167c0,1 0,1.8 0,2.8c0,0.8 0,1.8 0,2.61067c0,0.87466 0,1.87466 0,2.71016c0,0.88051 0,1.77901 0,2.6685c0,0.8535 0,1.8895 0,2.59601c0,0.98399 0.01285,1.85754 -0.01068,2.86533c-0.01633,0.69894 0.01273,1.39925 -0.27466,2.57867c-0.18137,0.74431 -0.72916,1.76373 -1.01016,2.37067c-0.36642,0.79141 -0.65216,1.79759 -0.69382,2.59999c-0.05185,0.99872 -0.01068,1.8 -0.01068,2.8c0,0.81067 0,1.45717 0,2.68533c0,0.55066 0,1.41917 0,2.6145c0,0.8895 0,1.46417 0,2.53349c0,0.94135 0,1.61934 0,2.85068c0,0.81599 0,1.36333 0,2.63066c0,0.66451 0,1.68533 0,2.496c0,0.87466 0,1.87334 0,2.68933c0,0.81599 0.00006,1.81467 0,2.68933c-0.00009,1.01067 0.06061,1.82597 -0.16666,2.81067c-0.19138,0.82913 -0.53726,1.44533 -0.71201,2.42134c-0.1427,0.79703 -0.10336,1.64006 -0.34268,2.65717c-0.21594,0.91772 -0.5766,1.50499 -0.7215,2.517c-0.13049,0.91156 -0.05716,1.77916 -0.05716,2.726c0,0.88916 0,1.87849 0,2.6785c0,1 0.00006,1.81067 0,2.45717c-0.00009,0.96449 0.01572,1.79123 -0.05716,2.7045c-0.08041,1.00775 -0.22144,1.72206 -0.44284,2.8175c-0.14383,0.71172 -0.34488,1.68599 -0.44733,2.511c-0.11874,0.95642 -0.26324,1.93385 -0.478,2.72449c-0.21146,0.77846 -0.5087,1.63745 -0.57019,2.59067c-0.06213,0.96335 0.0072,1.7394 -0.08981,2.59734c-0.10196,0.90184 -0.34952,1.79504 -0.48935,2.39734c-0.27762,1.19576 -0.38007,2.10391 -0.40448,2.72083c-0.03812,0.96396 -0.02084,2.00034 -0.02084,2.72734c0,0.731 0.00931,1.78255 -0.00015,2.709c-0.01044,1.02216 -0.05649,1.73161 -0.28384,2.72816c-0.19196,0.84135 -0.4205,1.40953 -0.59451,2.6145c-0.12772,0.88441 -0.10614,1.46422 -0.12164,2.77867c-0.00809,0.68553 -0.02902,1.53694 -0.35251,2.517c-0.2518,0.76285 -0.61874,1.6505 -0.64734,2.57117c-0.02588,0.83293 0,1.812 0,2.586c0,0.89999 0,1.76334 0,2.74733c0,0.8215 0,1.71066 0,2.69983c0,0.77933 0,1.77866 0,2.59885c0,0.90134 0,1.72217 0,2.69064c0,0.82935 0,1.36801 0,2.76401c0,0.83334 0,1.26752 0,2.14584c0,1.26749 0,2.02884 0,3.03833c0,0.59634 0,1.87982 0,2.58334c0,0.7485 0,1.94714 0,2.62982c0,0.69867 0,2.01599 0,2.84399c0,0.75601 0,1.83868 0,2.47467c0,1.05151 0,1.7825 0,2.86401c0,0.68265 0.00003,1.66666 0,2.31934c-0.00009,1.36884 0.005,2.10477 -0.02084,2.86816c-0.02655,0.78406 -0.13345,1.98108 -0.26315,2.77783c-0.12906,0.79276 -0.30359,1.56302 -0.43201,2.31598c-0.18091,1.06088 -0.24762,2.05035 -0.30933,2.67468c-0.1199,1.21298 -0.32565,2.1066 -0.47467,2.68982c-0.21362,0.83612 -0.44733,1.83334 -0.48932,2.71017c-0.04834,1.0094 -0.01068,1.78983 -0.01068,2.78915c0,0.82019 0,1.72153 0,2.62152c0,0.92084 0,1.884 0,2.57465c0,1.06818 0,1.92535 0,2.82535l0,0.79999" id="svg_10" stroke-width="2" stroke="#000" fill="none"/>
  <path t="31845,31933,31933,31941,31941,31949,31949,31949,31949,31961,31961,31961,31978,31978,31978,31994,31994,31994,31994,32011,32011,32011,32011,32011,32028,32028,32028,32028,32028,32044,32044,32044,32044,32044,32044,32061,32061,32061,32061,32061,32078,32078,32078,32078,32079,32094,32094,32094,32094,32111,32111,32111,32111,32128,32128,32128,32144,32144,32144,32144,32144,32161,32161,32161,32161,32178,32178,32178,32194,32194,32194,32211,32211,32228,32228,32244,32244,32261,32261,32278,32278,32278,32278,32294,32294,32295,32295,32295,32311,32311,32311,32311,32328,32328,32328,32344,32344,32344,32362,32362,32379,32379,32379,32394,32394,32411,32411,32411,32429,32429,32429,32444,32444,32444,32462,32462,32462,32479,32479,32479,32494,32494,32494,32494,32494,32511,32511,32511,32528,32528,32528,32544,32544,32544,32544,32561,32561,32561,32561,32578,32578,32578,32578,32594,32594,32594,32611,32611,32611,32628,32628,32628,32629,32644,32644,32644,32661,32661,32678,32678,32694,32694,32694,32711,32711,32711,32728,32728,32744,32744,32761,32761,32761,32778,32794,32794,32811,32811,32828,32828,32828,32844,32844,32861,32861,32878,32878,32894,32894,32894,32911,32911,32928,32928,32944,32944,32944,32961,32961,32961,32978,32994,33011,33011,33028,33028,33044,33061,33061,33078,33078,33094,33094,33111,33111,33111,33128,33128,33144,33144,33161,33161,33161,33178,33178,33194,33194,33194,33211,33211,33228,33228,33244,33244,33261,33261,33278,33278,33294,33294,33294,33311,33311,33328,33328,33344,33344,33361,33378,33394,33411,33411,33428,33444,33444,33461,33461,33478,33478,33494,33511,33511,33528,33544,33589,33621,33621,33637" d="m301,76c0,2.8 0,3.6 0,4.40266c0,0.86934 0,1.93067 0,2.56534c0,1.032 0,1.72666 0,2.98917c0,0.7815 -0.00623,1.49102 0.00015,2.46433c0.00534,0.81455 0.00769,1.69082 0.22134,2.87883c0.11038,0.61375 0.39514,1.57007 0.57983,2.27033c0.3085,1.16958 0.40796,1.59647 0.58801,2.49067c0.18564,0.92186 0.34164,1.85403 0.444,2.772c0.09839,0.88239 0.13837,1.75217 0.19199,2.628c0.0556,0.90819 0.134,1.87286 0.25867,2.90666c0.06485,0.53781 0.21747,1.63181 0.29068,2.18134c0.1442,1.08229 0.2731,2.11623 0.34,3.08134c0.0629,0.90716 0.0712,1.3484 0.08084,2.2175c0.01465,1.31842 0.00449,2.2345 0.00449,2.7c0,0.931 0,1.842 0,3.1185c0,0.764 0,1.472 0,2.48151c0,1.01849 0,1.7345 0,2.4665c0,1.0755 -0.02991,2.05286 0.009,2.88c0.03564,0.75778 0.3147,1.84231 0.55899,2.476c0.272,0.70554 0.61362,1.43974 0.86401,2.232c0.37381,1.18282 0.47318,1.99126 0.52634,2.7765c0.05164,0.7626 0.04166,2.19916 0.04166,2.85916c0,0.91499 -0.01965,1.99539 0.00449,2.7045c0.02905,0.85379 0.28717,1.85297 0.57019,2.62117c0.34949,0.94856 0.42465,1.72 0.42532,2.672c0.00055,0.76534 -0.04099,1.77254 0.05716,2.62117c0.11243,0.97206 0.37827,1.79785 0.51752,2.42549c0.1524,0.68698 0.31866,1.85919 0.36816,2.72717c0.05191,0.91025 0.05069,1.37547 0.05582,2.3075c0.00748,1.36082 0.00134,2.21651 0.00134,3.02017c0,0.74367 0,2.01967 0,2.80116c0,0.7095 0,1.68268 0,2.48666c0,0.82201 0,1.85318 0,2.75385c0,1.02083 0,1.82083 0,2.62083c0,1.0045 0,1.85716 0,2.82133c0,0.80399 0,1.62599 0,2.65732c0,0.69601 0,1.60535 0,2.60667c0,0.83549 0,1.716 0,2.6145c0,0.8895 0,1.743 0,2.77916c0,0.71701 0,1.48801 0,2.78517c0,0.79834 0,1.65666 0,2.09584c0,0.87332 0,2.09683 0,3.15733c0,0.62532 0,1.71599 0,2.668c0,0.72449 0,1.8575 0,2.52449c0,0.711 0,1.442 0,2.86884c0,0.66867 0,1.64667 0,2.30533c0,1.03734 0,1.76868 0,2.89067c0,0.74133 0.00903,1.80379 -0.00449,2.46367c-0.01877,0.91534 -0.14603,1.99937 -0.34818,2.7135c-0.27301,0.96439 -0.50986,1.77866 -0.59018,2.75349c-0.05713,0.69327 -0.04639,1.38939 -0.05731,2.65167c-0.00668,0.77104 -0.03915,1.65375 -0.35251,2.64301c-0.25742,0.81274 -0.56857,1.59604 -0.6265,2.42082c-0.08029,1.14322 -0.02084,1.93184 -0.02084,2.75385c0,1.05865 0,1.76816 0,2.62082c0,1.0045 0.01285,1.8046 -0.00015,2.8045c-0.01041,0.8002 -0.1412,1.80875 -0.42517,2.58934c-0.26715,0.73431 -0.55667,1.58481 -0.57468,2.53217c-0.01691,0.88899 0.04736,1.88113 -0.02084,2.6785c-0.08612,1.0069 -0.36865,1.58739 -0.6265,2.39999c-0.31265,0.98543 -0.34732,1.76396 -0.35266,2.85184c-0.00351,0.71748 0,1.758 0,2.53351c0,1.04799 0,1.75749 0,2.61015c0,1.0045 0.01285,1.8046 -0.00015,2.8045c-0.01041,0.8002 -0.15762,1.80289 -0.42517,2.61067c-0.2149,0.6489 -0.48227,1.60791 -0.53867,2.40399c-0.07184,1.01405 -0.03601,1.97101 -0.03601,2.88535c0,0.89999 0,1.65717 0,2.55267c0,0.86331 0,1.84732 0,2.83133c0,0.69064 0,1.76782 0,2.48532c0,1.0405 0,1.81601 0,2.86401c0,0.7095 0,1.56216 0,2.56665c0,0.80002 0,1.80002 0,2.60001c0,1 -0.0018,1.79999 0,2.60001c0.00226,1.00449 0.01733,1.86478 0.22134,2.82117c0.1709,0.80127 0.49905,1.55292 0.69333,2.6095c0.13058,0.71014 0.08533,1.6265 0.08533,2.37384c0,0.99548 -0.02646,1.79584 0.00134,2.99417c0.01776,0.7659 0.35776,1.68417 0.646,2.41116c0.3671,0.92593 0.34103,1.71082 0.35132,2.50748c0.01288,0.99725 0.00134,1.87201 0.00134,2.88251c0,0.77933 -0.14938,1.8067 0.05716,2.49567c0.2637,0.87967 0.91425,1.60312 0.94284,2.50452c0.02853,0.89969 -0.06674,1.68848 0.01068,2.62534c0.08398,1.01654 0.61749,1.62698 0.86783,2.49597c0.23822,0.82687 0.12149,1.79468 0.12149,2.56268c0,0.94135 -0.00864,1.9494 0,2.70532c0.01044,0.91086 0.42532,1.81067 0.87851,2.51068l0.12149,0.89999l0,0.79999l0,0.90002" id="svg_11" stroke-width="2" stroke="#000" fill="none"/>
  <path t="34405,34461,34461,34470,34470,34470,34478,34478,34478,34494,34494,34494,34511,34511,34511,34511,34511,34527,34527,34527,34527,34527,34527,34544,34544,34544,34544,34561,34561,34561,34561,34577,34577,34577,34577,34577,34594,34594,34594,34594,34594,34594,34611,34611,34611,34611,34611,34627,34627,34627,34627,34644,34644,34644,34644,34661,34661,34662,34662,34677,34677,34677,34694,34694,34711,34711,34711,34711,34727,34727,34744,34744,34744,34761,34761,34761,34777,34777,34777,34794,34794,34811,34811,34827,34827,34844,34844,34861,34861,34861,34877,34877,34877,34894,34894,34911,34912,34912,34912,34927,34927,34927,34944,34944,34944,34961,34961,34977,34977,34977,34994,34994,35011,35027,35027,35044,35044,35061,35061,35077,35094,35094,35111,35133,35144,35144,35213" d="m298,202c0,2.60451 0,3.45717 0,4.42149c0,0.8145 0,1.68301 0,2.87834c0,0.59566 0,1.46417 0,2.53349c0,0.96268 0,1.73367 0,2.66667c0,0.756 0,1.608 0,2.532c0,0.48151 0,1.968 0,2.96667c0,0.49683 0,1.4805 0,1.96533c0,0.95067 0,2.31433 0,3.17433c0,0.81999 0,1.59999 0,2.69499c0,0.68401 0,1.6875 0,2.37651c0,1.12349 0,1.96083 0,2.86217c0,0.94933 0,1.437 0,2.92799c0,0.49983 0,1.4955 0,2.47917c0,0.48483 0,1.4355 0,2.79933c0,0.86433 0,1.70067 0,2.11082c0,0.80934 0,2.0105 0,3.20001c0,0.77466 0,1.52533 0,2.58932c0,0.66867 0,1.64667 0,2.30533c0,1.40001 0,2.14134 0,2.89067c0,0.74133 0,1.8035 0,2.76801c0,0.8385 0,1.89066 0,2.54401c0,1.07748 0,2 0,2.67331c0,0.67334 0,1.87067 0,2.61917c0,1.1875 0,1.97351 0,2.7955c0,1.05869 0,1.77267 0,2.67801c0,0.96866 0,1.77267 0,2.59467c0,1.03101 0,1.91101 0,2.78601c0,0.91931 -0.00049,1.82382 0,2.57117c0.00067,0.99683 -0.00705,1.83856 0.16666,2.76215c0.14929,0.79379 0.45404,1.59781 0.66669,2.66669c0.14008,0.7041 0.1644,1.56216 0.16666,2.56934c0.00192,0.86932 0,1.93066 0,2.56531c0,0.68268 0,1.72668 0,2.69867c0,0.82352 0,1.78152 0,2.75467c0,0.80402 0,1.62601 0,2.65717c0,0.90067 0,1.92151 0,2.7215c0,0.80002 0,1.7955 0,2.54285c0,0.90451 0,1.82382 0,2.67801c0,0.97916 0,1.76849 0,2.8125c0,0.75598 0,1.6875 0,2.65067c0,0.69064 0,1.75882 0,2.616l0,0.89999l0,0.79999l0,0.90002" id="svg_12" stroke-width="2" stroke="#000" fill="none"/>
  <path t="36206,36278,36287,36287,36287,36294,36294,36294,36311,36311,36311,36327,36327,36327,36327,36343,36344,36344,36344,36344,36344,36361,36361,36361,36361,36361,36361,36377,36377,36377,36377,36377,36394,36394,36394,36394,36411,36411,36411,36411,36426,36427,36427,36427,36444,36444,36444,36444,36461,36461,36461,36477,36477,36477,36494,36494,36494,36511,36511,36511,36527,36527,36527,36544,36544,36561,36561,36561,36577,36577,36577,36594,36594,36594,36611,36611,36611,36611,36627,36627,36644,36662,36662,36662,36677,36677,36677,36694,36694,36711,36711,36711,36711,36727,36727,36727,36744,36744,36761,36761,36761,36761,36777,36777,36794,36794,36811,36838,36838,36886,36902,36926,36942,36966,36990,36990,37022,37022,37038,37054" d="m308,206c0,1.672 0,2.77066 0,3.54167c0,0.56732 0,1.75816 0,2.64766c0,0.8535 0,1.8895 0,2.59601c0,0.72449 -0.005,1.85803 0.00449,2.53799c0.01059,0.7601 0.03171,1.60179 0.16217,3.00999c0.04727,0.5101 0.18668,1.57257 0.26935,2.11734c0.1669,1.09987 0.25674,1.64626 0.564,3.216c0.09616,0.49123 0.30331,1.42192 0.47916,2.3125c0.1713,0.86752 0.27069,1.29965 0.39935,2.642c0.08865,0.92499 0.10333,1.85796 0.11081,2.31749c0.01453,0.89194 0.01068,2.1185 0.01068,3.20001c0,0.67599 -0.00815,1.34402 0.00134,2.74533c0.00504,0.74138 0.01208,1.49251 0.08398,2.23199c0.1037,1.06633 0.34433,2.06041 0.52533,2.70934c0.18423,0.66049 0.50128,1.6927 0.77869,2.78934c0.18265,0.72203 0.37299,1.40903 0.52533,2.616c0.09409,0.74536 0.07364,1.45207 0.08667,2.45467c0.01086,0.83565 0.04388,1.72334 0.28265,2.91467c0.12112,0.60439 0.39822,1.4935 0.54935,2.39999c0.14847,0.89044 0.12549,1.77493 0.33331,2.83334c0.14133,0.71973 0.55991,1.54437 0.74802,2.56799c0.11258,0.61261 0.08533,1.76532 0.08533,2.55133c0,0.82199 -0.01849,1.88104 0.00449,2.59467c0.02921,0.9064 0.21326,1.87509 0.42084,2.68866c0.14679,0.57535 0.43863,1.7608 0.51752,2.65952c0.07605,0.86642 0.05649,1.41916 0.05716,2.64282c0.00043,0.80002 -0.06311,1.72583 0.16666,2.79501c0.14767,0.6871 0.42368,1.45978 0.83334,2.5c0.28165,0.71512 0.65591,1.33185 0.87851,2.36682c0.17386,0.80835 0.12149,1.96649 0.12149,2.75699c0,0.56369 0,1.44418 0,2.64151c0,0.59067 0,1.44418 0,2.71735c0,0.68399 0,1.85065 0,2.63666c0,0.82199 0,1.36334 0,2.59018c0,0.85266 -0.00055,1.85583 0,2.62115c0.00067,0.95065 0.24213,1.78976 0.64734,2.53601c0.41327,0.76111 0.35266,1.69998 0.35266,2.59998c0,0.90002 -0.03391,1.80066 0,2.70001c0.02859,0.75879 0.35266,1.65268 0.64734,2.34732l0.31665,1.01669l0.0405,0.93597" id="svg_13" stroke-width="2" stroke="#000" fill="none"/>
  <path t="39246,39310,39310,39318,39327,39344,39361,39377,39413,39429,39438,39438,39454,39461,39550,39565,39577,39594" d="m293,69c1,1 1.79999,1 2.70001,1c0.89999,0 1.79999,0 2.69998,0c0.89999,0 1.80002,0 2.70001,0c0.89999,0 1.69998,0 2.60001,0c0.89999,0 1.79999,0 2.69998,0l0.89551,0.0045l0.67917,0.42083" id="svg_14" stroke-width="2" stroke="#000" fill="none"/>
  <path t="40198,40254,40254,40269,40270,40278,40294,40311,40311,40327,40327,40327,40344,40344,40390,40397,40413,40518,40526,40526,40544,40622,40630" d="m291,91c1,1 1.75717,1 2.65268,1c0.86331,0 1.82648,0 2.758,0c0.91083,0 1.61017,0 2.58932,0c0.79999,0 1.60001,0 2.59549,0c0.91919,0 1.88367,0 2.8045,0c0.89999,0 1.80136,-0.00794 2.76666,0c0.64807,0.00533 1.664,0.284 2.18152,0.94283l-0.15085,0.05717" id="svg_15" stroke-width="2" stroke="#000" fill="none"/>
  <path t="41246,41301,41310,41327,41344,41344,41361,41377,41377,41394,41414,41414,41414,41438,41445,41477,41477,41493" d="m288,119c1.79999,0 2.70001,0 3.52084,0c0.96317,0 1.66226,-0.12972 2.72198,0.0045c0.87717,0.11111 1.5267,0.84105 2.42917,0.98483c0.85989,0.137 1.57867,0.01067 2.56,0.01067c0.95367,0 1.86801,0 2.76801,0l0.79999,0l0.90002,0.05717" id="svg_16" stroke-width="2" stroke="#000" fill="none"/>
  <path t="42149,42189,42189,42197,42197,42197,42211,42211,42227,42227,42227,42227,42244,42244,42244,42244,42244,42260,42260,42260,42260,42277,42277,42277,42294,42294,42325,42341,42373,42509" d="m285,140c1.84668,0 2.68677,0.01125 3.68399,-0.00133c0.81619,-0.0103 1.64767,-0.01741 2.63202,-0.28401c0.69824,-0.1891 1.84549,-0.72873 2.37198,-0.91333c0.86667,-0.30388 1.52484,-0.4836 2.64536,-0.63466c0.83121,-0.11206 1.71759,-0.13683 2.616,-0.192c0.88293,-0.05423 1.72241,-0.11292 2.83633,-0.32733c0.67621,-0.13016 1.29599,-0.35049 2.51398,-0.52583c0.87418,-0.12584 1.686,-0.11925 2.72968,-0.12151c0.76801,-0.00166 1.67068,0 2.57068,0l0.89999,0l0.95834,0" id="svg_17" stroke-width="2" stroke="#000" fill="none"/>
  <path t="42965,43029,43038,43038,43045,43045,43060,43060,43077,43077,43077,43094,43094,43094,43094,43094,43110,43110,43110,43110,43110,43157,43157,43173,43173,43189,43189" d="m285,160c1.75717,0 2.65717,0 3.40451,0c0.99548,0 1.7955,0 2.7955,0c0.79999,0 1.79999,0 2.63199,0c0.7395,0 2.0325,0 2.83951,0c0.43649,0 1.3605,0 2.33249,0c0.996,0 1.99066,0 2.95334,0c0.45932,0 1.31409,-0.01675 2.65683,0.00017c0.82352,0.01038 1.70715,0.22133 2.38583,0.52066l0.97849,0.57901l0.61084,0.46416" id="svg_18" stroke-width="2" stroke="#000" fill="none"/>
  <path t="43813,43877,43886,43886,43894,43894,43894,43911,43911,43911,43927,43927,43944,43944,43960,43977,43994,44010,44027,44027,44044,44061,44157,44269" d="m289,188c0.88666,0.99867 1.84668,1.00034 2.46167,1c1.22232,-0.00067 2.04352,0.02687 2.85434,-0.08533c1.00992,-0.13974 1.67319,-0.45244 2.36798,-0.63068c0.98633,-0.25304 1.79504,-0.27357 2.98267,-0.284c0.79166,-0.00694 1.73334,0 2.63333,0c0.90002,0 1.80002,0 2.70001,0c0.79999,0 1.70001,0 2.60001,0l0.89999,0l0.88934,0.01067" id="svg_19" stroke-width="2" stroke="#000" fill="none"/>
  <path t="46989,47101,47109,47109,47127,47144,47160,47177,47205,47205,47221,47221,47229,47245,47245,47260,47277,47581,47581,47597,47605,47629,47629" d="m315,26c1.75717,0 2.67322,-0.11853 3.51599,0.08533c0.88803,0.21481 1.94797,0.53223 2.39868,1.2c0.51468,0.76253 0.08533,1.88133 0.08533,2.54c0,1.008 0.03284,1.92657 -0.436,2.57467c-0.56543,0.78163 -1.21689,1.40763 -2.164,1.58933c-0.90442,0.17351 -1.72131,0.01067 -2.57465,0.01067c-0.94,0 -1.92535,0.00017 -2.82535,0.16667l-0.60001,0.408" id="svg_20" stroke-width="2" stroke="#000" fill="none"/>
  <path t="47909,47981,47989,48029,48045,48061,48061,48085,48109,48109,48117,48117,48141,48165,48197,48245,48277,48301,48301,48310,48327" d="m311,35c0,2.58933 -0.00223,3.5 0,4.4c0.00226,0.90001 0.19525,1.72211 0.7045,2.3c0.6525,0.74047 1.1925,1.458 1.27466,2.3c0.09503,0.9741 0.02084,1.79867 0.02084,2.7c0,0.9 0.00223,1.8 0,2.7c-0.00226,0.90001 -0.28534,1.79866 -0.80133,2.31467l-0.89868,0.28083l-0.89999,0.0045" id="svg_21" stroke-width="2" stroke="#000" fill="none"/>
  <path t="48869,48925,49005,49013,49029,49044,49059,49077,49077,49116,49148,49148,49292,49317,49333,49344,49360,49377,49394" d="m311,43c1.79999,0 2.80127,-0.37143 3.564,0.036c0.73041,0.39015 1.09888,1.39034 1.35068,2.164c0.27985,0.85981 0.08533,1.68533 0.08533,2.62533c0,1.008 0.0097,1.76405 0,2.67467c-0.01044,0.97934 -0.61066,1.48933 -1.5,1.5l-0.89999,0l-0.89999,0l-0.90002,0" id="svg_22" stroke-width="2" stroke="#000" fill="none"/>
  <path t="50077,50124,50156,50172,50180,50194,50210,50236,50236,50268,50268,50308,50372,50372,50388,50428,50437,50437,50452,50548,50564,50676,50684,50700,50701" d="m294,23c-1.70001,0 -2.69107,-0.37457 -3.564,0.036c-0.74161,0.34881 -1.41769,0.6551 -2.19333,1.1855c-0.79941,0.54665 -1.29581,1.22948 -2.07602,1.7785c-0.65457,0.46061 -1.12393,1.19698 -1.16666,2.10017c-0.03708,0.78429 -0.44403,1.9572 0.2215,2.65683c0.62827,0.66045 1.55594,0.36729 2.37851,0.81767c0.7804,0.42727 1.69998,0.42533 2.60001,0.42533l0.89999,0l0.89999,0l0.79999,0.08533" id="svg_23" stroke-width="2" stroke="#000" fill="none"/>
  <path t="51292,51404,51444,51444,51452,51460,51460,51477,51493,51493,51510,51510,51532,51596,51620,51628,51652,51652,51709,51725,51765,51781,51796" d="m287,41c-0.16666,1.83333 -1.03348,2.12469 -1.60001,2.61067c-0.74326,0.63756 -1.31491,1.37673 -1.39865,2.18933c-0.08569,0.8316 -0.00134,1.85717 -0.00134,2.6045c0,0.99417 0,1.7595 0,2.71017c0,0.98533 -0.43427,2.11774 0.16666,2.71867c0.60092,0.60094 1.63333,0.16667 2.53336,0.16667c0.89999,0 1.77914,-0.02083 2.35266,-0.64734l0.66333,-0.43666" id="svg_24" stroke-width="2" stroke="#000" fill="none"/>
  <path t="52844,52892,52892,52900,52916,52916,52996,52996,53020" d="m299,24c1,1 1.8186,1.05593 2.52084,1.52083c0.82388,0.54543 1.5,0.95833 2.47916,1.3125l0.77866,0.14133l0.888,0.192" id="svg_25" stroke-width="2" stroke="#000" fill="none"/>
  <path t="53501,53589,53589,53693,53693" d="m299,34c1,1.16667 1.63599,1.57467 2.48267,1.916l0.8075,0.13667" id="svg_26" stroke-width="2" stroke="#000" fill="none"/>
  <path t="54109,54213,54229,54245,54253,54269" d="m293,47c1.79999,0 2.70001,0 3.60001,0l0.89999,0l0.89999,0" id="svg_27" stroke-width="2" stroke="#000" fill="none"/>
  <path t="54917,54949,54965,54965,54981,54989,55013,55021" d="m308,27c0,1.75717 0,2.65267 0,3.516c0,0.96317 0,1.884 0,2.784l0,0.9" id="svg_28" stroke-width="2" stroke="#000" fill="none"/>
  <path t="55421,55517,55533,55533,55565" d="m305,44c0,1.82533 0,2.83333 -0.05716,3.6955l-0.44284,0.8045" id="svg_29" stroke-width="2" stroke="#000" fill="none"/>
 </g>
 <g display="none">
  <title>muse_image</title>
  <image xlink:href="http://static.flickr.com/3077/2591076012_b394745012.jpg" id="muse" height="480" width="360" y="0" x="140"/>
 </g>
 <g display="none">
  <title>bbox</title>
  <rect stroke="#f00" fill="none" stroke-width="3" height="401.28" width="207.36" y="33.6" x="218.72" id="bbox"/>
 </g>
</svg>
