<svg width="640" height="480" xmlns="http://www.w3.org/2000/svg" xmlns:svg="http://www.w3.org/2000/svg" xmlns:xlink="http://www.w3.org/1999/xlink">
 <!-- Sketchy ANNOTATION
  ImageNet ID: n02676566_6631
  URL: http://farm1.static.flickr.com/225/493218376_e099c1f15d.jpg
  Image Width: 375
  Image Height: 500
  BBox X: 85
  BBox Y: 17
  BBox Width: 193
  BBox Height: 466
  Exposure: 2000ms
  Synset Label: guitar
  Synset ID: n03467517
  Worker Tag: wooden tan guitar
  Sanity Check: 
   Saved
  Comment: 
   {}
  Worker ID: A2HCKWFKLJAMRG
  Assignment ID: 35USIKEBNRG3BS8AVRLE9BIQUMT6N1
  HIT ID: 3FK4G712NX03RJ0IKY01KQT3VRMSST
  Work Time: 50s
  Worker Score: 0.6548
 END ANNOTATION -->
 <g display="inline">
  <title>Layer 1</title>
  <path t="0,161,191,213,229,243,259,267,267,273,281,289,297,303,311,311,319,327,333,341,349,349,357,363,363,371,371,379,387,393,401,409,409,417,417,423,431,439,439,447,447,453,453,461,469,477,477,483,491,491,499,506,507,513,513,520,529,537,537,543,559,559,567,567,572,589,597,597,611,611,619,627,627,633,633,641,641,649,649,656,657,663,663,670,671,679,679,687,687,687,687,693,693,701,701,709,709,709,709,717,717,722,723,723,731,731,731,731,739,739,739,747,747,747,747,753,753,753,761,761,761,769,769,769,769,769,777,777,777,783,783,783,783,790,791,791,799,799,799,799,806,807,807,807,813,813,813,813,820,821,821,829,829,829,829,829,837,837,837,837,843,843,843,843,851,851,851,859,859,859,859,867,867,867,872,873,881,881,881,888,888,897,897,903,903,903,911,911,919,927,933,933,940,949,963,1173,1369,1383,1391,1399,1406,1413,1413,1420,1429,1436,1437,1442,1443,1450,1451,1458,1466,1467,1472,1472,1473,1481,1481,1488,1488,1489,1497,1497,1502,1503,1503,1503,1511,1511,1511,1518,1519,1519,1519,1527,1527,1527,1533,1533,1540,1541,1541,1549,1549,1549,1556,1556,1563,1563,1570,1571,1578,1579,1587,1587,1592,1593,1601,1609,1609,1609,1617,1617,1622,1623,1631,1631,1638,1639,1647,1653,1653,1660,1668,1676,1683,1683,1691,1699,1699,1706,1706,1713,1713,1720,1721,1728,1729,1729,1736,1737,1743,1743,1751,1751,1751,1759,1759,1766,1767,1767,1772,1772,1781,1781,1788,1788,1789,1797,1797,1797,1802,1803,1810,1811,1819,1819,1826,1827,1827,1832,1833,1840,1841,1841,1849,1849,1849,1856,1856,1863,1863,1863,1870,1871,1871,1871,1878,1879,1879,1886,1887,1892,1893,1893,1901,1901,1901,1901,1908,1909,1909,1917,1917,1917,1922,1922,1923,1931,1931,1931,1938,1938,1939,1939,1947,1947,1952,1953,1953,1953,1960,1961,1961,1968,1969,1969,1969,1977,1977,1977,1977,1983,1983,1983,1983,1990,1991,1991,1991,1999,1999,1999,1999,2006,2006,2007,2007,2007,2013,2013,2013,2013,2020,2021,2021,2021,2021,2028,2029,2029,2029,2037,2037,2037,2037,2037,2042,2043,2043,2043,2050,2051,2051,2051,2051,2058,2059,2059,2059,2059,2067,2067,2067,2067,2067,2072,2072,2073,2073,2073,2081,2081,2081,2081,2081,2088,2089,2089,2089,2089,2089,2097,2097,2097,2097,2097,2102,2103,2103,2103,2103,2110,2111,2111,2111,2111,2111,2119,2119,2119,2119,2119,2126,2127,2127,2127,2127,2133,2133,2133,2133,2133,2133,2140,2141,2141,2141,2141,2141,2149,2149,2149,2149,2149,2149,2156,2156,2157,2157,2157,2163,2163,2163,2163,2163,2163,2170,2171,2171,2171,2171,2178,2179,2179,2179,2179,2187,2187,2187,2187,2187,2187,2192,2193,2193,2193,2193,2201,2201,2201,2201,2201,2208,2209,2209,2209,2217,2217,2217,2217,2222,2222,2223,2223,2231,2231,2231,2231,2238,2238,2239,2239,2247,2247,2247,2253,2253,2253,2260,2261,2261,2261,2269,2269,2269,2276,2277,2277,2283,2283,2291,2291,2291,2299,2299,2307,2307,2313,2313,2320,2321,2328,2329,2337,2337,2342,2343,2351,2351,2358,2359,2367,2367,2373,2374,2381,2388,2389,2397,2397,2403,2410,2411,2419,2426,2427,2427,2433,2440,2441,2449,2449,2457,2457,2463,2470,2471,2478,2479,2487,2487,2492,2501,2501,2501,2508,2517,2517,2523,2524,2531,2531,2538,2539,2547,2553,2553,2560,2569,2569,2576,2577,2583,2590,2591,2599,2599,2607,2607,2613,2613,2621,2621,2629,2637,2637,2637,2642,2643,2651,2651,2658,2667,2667,2674,2674,2681,2681,2688,2703,2703,2710,2719,2726,2727,2733,2740,2741,2749,2757,2757,2763,2770,2778,2779,2787,2792,2801,2816,2824,2831,2839,2853,2860,2869,2876,2877,2883,2883,2890,2891,2899,2907,2907,2913,2913,2913,2920,2921,2928,2937,2937,2942,2943,2943,2951,2958,2959,2967,2974,2974,2981,2989,2997,2997,3002,3010,3019,3019,3026,3027,3033,3033,3040,3041,3049,3049,3057,3057,3063,3063,3071,3078,3087,3087,3092,3093,3101,3108,3109,3117,3117,3124,3124,3131,3131,3138,3139,3147,3147,3152,3153,3160,3161,3169,3169,3169,3176,3177,3183,3183,3190,3190,3191,3199,3207,3207,3213,3213,3220,3221,3228,3237,3242,3251,3251,3258,3259,3267,3274,3274,3281,3281,3289,3289,3297,3303,3310,3311,3319,3319,3326,3333,3340,3349,3349,3357,3363,3370,3371,3378,3379,3387,3387,3392,3393,3401,3401,3408,3409,3417,3417,3424,3431,3431,3438,3447,3447,3452,3453,3460,3461,3469,3469,3476,3477,3483,3483,3483,3490,3490,3499,3499,3507,3507,3507,3513,3513,3520,3521,3528,3529,3529,3537,3537,3542,3543,3551,3551,3558,3559,3559,3567,3567,3574,3574,3581,3581,3588,3589,3597,3597,3602,3610,3611,3619,3619,3619,3626,3627,3633,3633,3640,3641,3649,3649,3650,3657,3657,3663,3663,3670,3671,3678,3679,3679,3687,3687,3692,3693,3701,3701,3708,3709,3709,3717,3717,3717,3724,3724,3731,3731,3731,3738,3739,3747,3747,3752,3753,3753,3760,3761,3761,3769,3769,3776,3777,3783,3783,3790,3791,3791,3799,3799,3807,3807,3813,3813,3813,3820,3821,3828,3829,3829,3837,3837,3842,3843,3843,3851,3858,3859,3867,3874,3874,3881,3881,3888,3889,3897,3902,3910,3932,3956,3957" d="m266,198c1,0 1.45834,0 0.60001,0c-0.89999,0 -1.80002,0 -2.70001,0c-0.89999,0 -1.73441,0.19597 -2.60001,-0.05716c-0.87762,-0.25664 -1.5986,-0.91425 -2.5,-0.94284c-0.89954,-0.02853 -1.79999,0 -2.59998,0c-0.90001,0 -1.80002,0 -2.70001,0c-0.91066,0 -1.82133,0 -2.5,0c-0.9785,0 -2,0 -2.75717,0c-0.89549,0 -1.75883,0 -2.722,0c-0.92082,0 -1.82083,0 -2.72083,0c-0.90018,0 -1.68533,0 -2.62534,0c-0.69067,0 -1.76401,0 -2.58533,0c-0.91068,0 -1.76544,-0.05058 -2.70534,0.00133c-0.77141,0.0426 -1.69171,0.47006 -2.40001,0.71468c-0.94377,0.32594 -1.92148,0.20276 -2.68533,0.56799c-0.72986,0.34898 -1.66202,0.5479 -2.63199,0.88268c-0.68703,0.23712 -1.5094,0.68311 -2.36801,1.11732c-0.59259,0.29968 -1.4722,0.56699 -2.31467,0.8c-0.88103,0.24368 -1.73763,0.705 -2.584,1.13733c-0.6553,0.33473 -1.4453,0.70627 -2.38399,1.06401c-0.71341,0.27188 -1.43686,0.9005 -2.2115,1.3575c-0.75813,0.44725 -1.61833,0.69958 -2.3045,1.35716c-0.61263,0.58711 -1.20898,1.19115 -1.8,1.8c-0.68982,0.71065 -1.06325,1.52426 -1.2,2.2c-0.19901,0.98344 -0.72995,1.72934 -0.94733,2.65717c-0.17216,0.73482 -0.33896,1.74063 -0.62733,2.50684c-0.30627,0.81375 -0.38374,1.72136 -0.436,2.672c-0.04221,0.76781 -0.35992,1.75768 -0.564,2.364c-0.33344,0.99069 -0.41492,1.82069 -0.42534,2.96667c-0.00714,0.78596 0.0015,1.33333 0,2.14932c-0.00226,1.22684 -0.00038,2.09401 -0.284,3.08534c-0.18047,0.63077 -0.57776,1.7619 -0.65884,2.55133c-0.05605,0.54567 -0.05649,1.36333 -0.05716,2.59467c-0.00037,0.67799 0,1.87416 0,2.68866c0,0.57468 0,1.76401 0,2.664c0,0.60001 -0.00867,1.50005 0.00133,2.70001c0.005,0.60004 0.00826,1.50748 0.22,2.7c0.10738,0.60474 0.3736,1.49559 0.49467,2.09999c0.23892,1.19266 0.27016,2.09985 0.2795,2.70001c0.01866,1.20003 -0.00276,2.11165 0.0405,2.73599c0.09244,1.33388 0.24492,2.0486 0.38934,2.78934c0.14621,0.74994 0.31984,1.4866 0.45332,2.55316c0.12297,0.98251 0.13649,1.92252 0.28801,2.8215c0.15289,0.90714 0.34601,1.50259 0.63466,2.39999c0.29034,0.90265 0.61783,1.79214 0.84151,2.70001c0.22008,0.89322 0.30399,1.80453 0.35716,2.42084c0.08322,0.96454 0.20975,2.00278 0.35716,2.73181c0.15163,0.74988 0.33698,1.49756 0.64284,2.58069c0.28584,1.01227 0.51184,1.63806 0.71466,2.56534c0.19579,0.89511 0.24571,1.81326 0.33801,2.75848c0.09872,1.01111 0.22379,1.73001 0.38333,2.47882c0.16548,0.7767 0.36711,1.56491 0.66383,2.76385c0.19684,0.79535 0.39394,1.57632 0.543,2.34299c0.21127,1.08667 0.30179,2.10025 0.35716,2.73633c0.08009,0.91986 0.21281,1.82281 0.42534,2.72086c0.21347,0.90207 0.4258,1.79791 0.52199,2.69998c0.09578,0.89828 0.09512,1.50769 0.33667,2.69867c0.12073,0.59521 0.40799,1.43521 0.59467,2.47983c0.15987,0.89462 0.27141,1.92706 0.54668,2.7215c0.20946,0.60449 0.46762,1.60349 0.59999,2.40002c0.16705,1.00525 0.54893,1.77823 0.808,2.79999c0.19966,0.78748 0.20409,1.61313 0.45067,2.39868c0.24519,0.78107 0.60919,1.84891 0.71617,2.70132c0.11398,0.90814 0.761,1.43765 0.979,2.39999c0.1989,0.87799 -0.0462,1.84543 0.44617,2.47467c0.47028,0.60101 0.15335,1.28418 -0.304,2.12515c-0.40652,0.7475 -0.93526,1.32407 -1.40668,2.10019c-0.41081,0.67636 -1.27731,1.25436 -1.63066,2c-0.40707,0.85901 -0.81549,1.53946 -1.284,2.284c-0.42508,0.67551 -0.87012,1.52057 -1.5,2.21149c-0.57381,0.62939 -1.29999,1.3045 -1.82083,1.82535c-0.80049,0.80048 -1.30452,1.3045 -1.82651,1.82648c-0.76868,0.76868 -1.2832,1.27286 -1.974,1.97418c-0.68385,0.69427 -1.22502,1.2579 -1.79466,2.07849c-0.40622,0.58521 -1.03928,1.60944 -1.54117,2.2045c-0.5414,0.64191 -0.96339,1.06577 -1.74283,2.0795c-0.41028,0.5336 -0.77573,1.10947 -1.60001,2.14935c-0.38875,0.49045 -0.99557,1.15012 -1.60001,1.76532c-0.79291,0.80704 -1.40485,1.37936 -1.91466,2.00134c-0.63441,0.77402 -0.93968,1.43198 -1.65201,2.39999c-0.45764,0.62189 -1.04462,1.1712 -1.66666,2c-0.43605,0.58099 -0.85979,1.40121 -1.26668,2.19983c-0.39767,0.78052 -0.89999,1.63351 -1.39999,2.30017c-0.5,0.66666 -0.85063,1.35641 -1.5,2.33334c-0.37259,0.56055 -1.03983,1.31134 -1.38933,1.992c-0.50311,0.97983 -0.5649,1.80356 -1.04668,2.58533c-0.49484,0.80295 -1.02068,1.40009 -1.27866,2.19064c-0.3181,0.97485 -0.27515,1.81458 -0.50684,2.59851c-0.23662,0.8006 -0.84978,1.58768 -1.25768,2.30017c-0.53462,0.93387 -0.3858,1.68369 -0.52533,2.74283c-0.11548,0.87662 -0.80537,1.41125 -0.98483,2.35718c-0.16777,0.88428 -0.01067,1.81067 -0.01067,2.72131c0,0.67868 0,1.79333 0,2.67868c0,0.75717 -0.0005,1.65717 0,2.40451c0.00067,0.99548 -0.03937,1.81244 0.22133,2.7955c0.21715,0.81882 0.62766,1.79739 0.75334,2.59998c0.12492,0.79773 0.39586,1.7937 0.59999,2.40002c0.3335,0.99057 0.34616,1.81647 0.59201,2.79999c0.20471,0.81891 0.53603,1.40088 1.03333,2.39999c0.39856,0.80075 0.8214,1.58994 1.18933,2.39999c0.26936,0.59305 0.50357,1.60352 0.636,2.40002c0.16714,1.00525 0.48712,1.80405 0.97467,2.79999c0.29495,0.60251 0.7,1.39999 1.10001,2.20001c0.39999,0.79999 0.68712,1.40656 1.2,2.39548c0.39026,0.75247 0.92587,1.50101 1.39999,2.15717c0.63571,0.87979 0.90213,1.45694 1.40001,2.44736c0.40172,0.79913 0.7,1.39999 1.2,2.39999c0.3,0.60001 0.78291,1.60925 1.11066,2.19998c0.45129,0.81345 1.07333,1.60001 1.58934,2.20001c0.51601,0.60001 1.10486,1.4072 1.62534,2.20001c0.53011,0.80746 1.02184,1.40936 1.58533,2c0.77579,0.81314 1.38934,1.39999 1.78934,1.79999c0.60001,0.60001 1.38846,1.41086 2,1.97916c0.58913,0.54745 1.40718,1.12573 2.2,1.64618c0.80748,0.53009 1.40938,1.02185 2,1.58533c0.81314,0.77579 1.39203,1.39883 1.82083,1.76849c0.64639,0.55725 1.65541,1.15341 2.47917,1.5c0.54248,0.22824 1.59947,0.57877 2.47917,1.04169c0.63608,0.33472 1.41342,0.97385 2.04166,1.47916c0.65558,0.52728 1.6572,1.13144 2.21516,1.36401c0.85808,0.35764 1.76543,0.63181 2.6595,0.93597c0.8699,0.29596 1.42619,0.48288 2.4205,0.90002c0.91606,0.38434 1.84747,0.80859 2.64117,1.09998c0.56145,0.20612 1.44409,0.50021 2.34283,0.80002c0.89992,0.3002 1.5,0.5 2.7,0.89999c0.60001,0.20001 1.5,0.50003 2.10001,0.70001c1.20015,0.40002 2.10959,0.70337 2.73599,0.89999c0.64825,0.20349 1.68466,0.50247 2.78934,0.79999c0.74889,0.20169 1.49213,0.39484 2.55333,0.69983c0.66962,0.19244 1.64192,0.48669 2.30533,0.61484c1.03133,0.19922 1.77313,0.23334 2.53683,0.28534c0.78363,0.05338 1.98097,0.15497 2.77917,0.284c0.80199,0.12964 1.59731,0.30679 2.39999,0.43201c1.19649,0.18661 1.99962,0.23682 2.8,0.26315c0.79971,0.02634 2,0.02084 2.79999,0.02084c0.80002,0 1.60001,0 2.40002,0c1.19998,0 2,0 2.79999,0c0.79999,0 2,0 2.79999,0c0.80002,0 1.60001,0 2.40002,0c1.19998,0 2,0 2.79999,0c0.79999,0 2.00003,0.00394 2.80133,-0.00134c0.80936,-0.00534 1.63596,-0.01624 2.48401,-0.08398c1.33865,-0.10696 1.79916,-0.19537 2.73999,-0.34c0.94986,-0.14603 1.41855,-0.24982 2.80801,-0.40802c0.88083,-0.10031 1.74158,-0.1376 2.59198,-0.19199c0.85892,-0.05493 1.74323,-0.12756 2.65869,-0.26001c0.94348,-0.13651 1.41772,-0.22672 2.36331,-0.41916c1.3887,-0.28262 2.26825,-0.49603 2.70001,-0.591c0.85187,-0.18735 1.70065,-0.38297 3.01932,-0.53784c0.91479,-0.10745 1.38602,-0.11398 2.33334,-0.16666c0.94733,-0.05267 1.42023,-0.04703 2.77866,-0.2215c0.87204,-0.112 1.72214,-0.29565 2.57401,-0.483c0.43176,-0.09497 1.76837,-0.39771 2.7045,-0.59549c0.47861,-0.10114 1.45337,-0.30078 2.44418,-0.5c0.9985,-0.20078 1.99792,-0.39844 2.49417,-0.50452c0.98489,-0.21057 1.95026,-0.44229 2.41916,-0.58084c1.37326,-0.40579 2.23315,-0.76614 2.66,-0.94c0.85162,-0.34689 1.69873,-0.72244 3.04681,-1.15314c0.46048,-0.14713 1.41357,-0.38959 1.89935,-0.50067c0.98181,-0.22455 2.47934,-0.51987 2.97916,-0.621c1.0004,-0.20242 1.50186,-0.30243 2.5,-0.53583c0.50098,-0.11713 2.00186,-0.52481 2.5,-0.68552c1.00388,-0.32388 1.50214,-0.50882 2.5,-0.88916c0.5011,-0.19101 2.00012,-0.789 2.49985,-0.98935c0.99594,-0.39932 1.49069,-0.59698 2.46414,-1c0.47946,-0.19852 1.87012,-0.79831 2.75201,-1.19867c0.4317,-0.19598 1.27588,-0.60013 2.13666,-0.94415c1.3024,-0.52051 1.76602,-0.64526 2.70001,-0.90451c0.94473,-0.26221 1.4277,-0.35803 2.36331,-0.63666c1.37152,-0.40845 1.80487,-0.5867 2.64801,-0.952c0.8317,-0.36035 1.63495,-0.7648 2.436,-1.164c0.80161,-0.39948 1.60907,-0.80328 2.436,-1.20001c0.42038,-0.20166 1.72821,-0.80569 2.64801,-1.19867c0.46744,-0.19971 1.41464,-0.58398 1.89066,-0.76532c0.93869,-0.3576 2.30319,-0.81671 2.73999,-0.952c0.84811,-0.26266 1.68002,-0.49323 2.48401,-0.76801c1.20966,-0.41342 1.99902,-0.7684 2.39066,-0.952c0.77917,-0.36526 1.53424,-0.74976 2.58917,-1.36401c0.67014,-0.3902 1.61212,-0.99805 2.22018,-1.39999c0.90323,-0.59711 1.50131,-1 2.10132,-1.39999c0.89999,-0.60001 1.79999,-1.20001 2.39999,-1.60001c0.60001,-0.39999 1.19803,-0.80295 2.39999,-1.59982c0.59903,-0.39716 1.18979,-0.79678 1.80002,-1.14301c1.18115,-0.67017 1.80179,-0.90027 2.69998,-1.2825c0.60123,-0.25583 1.80249,-0.85214 2.38934,-1.20001c0.57852,-0.34293 1.64053,-1.01404 2.358,-1.422c0.6748,-0.3837 1.62149,-0.9158 2.13666,-1.23666c0.81949,-0.51044 1.35535,-0.87656 2.3945,-1.49466c0.68039,-0.40472 1.54089,-0.87863 2.3215,-1.50534c0.6171,-0.49542 1.17831,-1.06207 2,-1.63199c0.58536,-0.40601 1.61441,-1.03354 2.1955,-1.53668c0.58347,-0.50522 1.23788,-1.18063 1.88367,-1.82648c0.62088,-0.62097 1.24942,-1.25916 1.72086,-2.00485c0.42648,-0.67459 1.0213,-1.61581 1.5,-2.26865c0.5239,-0.71445 0.8736,-1.43903 1.39981,-2.22601c0.44244,-0.66171 0.77921,-1.51291 0.95285,-2.42584c0.19098,-1.004 0.52716,-1.57233 0.78067,-2.59549c0.19241,-0.77658 0.16605,-1.83334 0.16666,-2.62534c0.00067,-0.85867 -0.05087,-1.7652 0.35266,-2.61749c0.38379,-0.81061 0.64508,-1.51434 0.64734,-2.40985c0.00217,-0.86331 0,-1.84732 0,-2.83133c0,-0.69064 0.0863,-1.78406 -0.16666,-2.68265c-0.19174,-0.68118 -0.66843,-1.32498 -0.8125,-2.33334c-0.13922,-0.97437 0.01096,-1.88159 -0.3735,-2.74734c-0.29752,-0.66995 -0.53912,-1.59634 -0.73135,-2.26865c-0.2937,-1.02716 -0.75305,-1.81354 -0.94131,-2.65866c-0.21228,-0.95288 -0.69705,-1.55637 -0.922,-2.47803c-0.20724,-0.84915 -0.52283,-1.69873 -1.05267,-2.51398c-0.41696,-0.64157 -0.72394,-1.34668 -1,-2.33334c-0.22922,-0.81921 -0.58047,-1.69382 -1.09982,-2.47867c-0.43927,-0.66382 -0.76669,-1.51501 -0.92551,-2.19598c-0.25403,-1.08929 -0.77533,-1.62469 -1.47467,-2.32535c-0.59943,-0.60059 -1.20001,-1.20001 -1.89999,-1.89999c-0.60001,-0.60001 -1.20001,-1.20001 -1.89999,-1.89999c-0.5,-0.5 -1.18207,-1.21844 -1.90134,-1.90002c-0.54269,-0.51425 -1.3158,-0.95267 -1.97333,-1.43597c-0.85114,-0.62561 -1.26343,-1.39114 -1.82535,-2.19736c-0.46701,-0.67004 -1.10229,-1.2644 -1.70001,-1.86667c-0.70267,-0.70801 -1.2854,-1.47598 -1.71066,-2.12534c-0.45914,-0.70108 -1.06723,-1.29834 -1.76398,-1.76398c-0.93198,-0.62286 -1.52197,-1.10956 -2.12534,-1.71066c-0.70132,-0.6987 -1.26047,-1.34256 -1.90134,-1.89868c-0.64713,-0.56158 -1.6449,-0.68445 -2.31467,-0.88535c-1.013,-0.30383 -1.58173,-1.01831 -2.18402,-1.616c-0.69733,-0.69202 -1.45895,-1.03583 -2.29999,-1.46664c-0.66434,-0.3403 -1.21674,-1.25952 -2,-1.66669c-0.74384,-0.38669 -1.60266,-0.77463 -2.20001,-1.36667c-0.60266,-0.59729 -1.36261,-1.25436 -1.71597,-2c-0.40704,-0.85886 -0.85858,-1.43771 -1.47336,-2.19998c-0.60059,-0.74466 -1.15732,-1.27032 -1.5535,-1.95718c-0.46982,-0.81458 -0.72766,-1.44968 -1.03632,-2.16367c-0.34894,-0.80719 -0.02084,-1.77914 -0.02084,-2.68048c0,-0.96533 0,-1.79868 0,-2.77734c0,-0.77399 0,-1.67401 0,-2.53732c0,-0.85867 -0.06412,-1.81042 0.03601,-2.69467c0.11325,-1.00018 0.4379,-1.5733 0.67999,-2.38934c0.29068,-0.9798 0.27087,-1.76901 0.70932,-2.77466c0.35608,-0.81668 0.50943,-1.65955 0.74133,-2.62534c0.14566,-0.60663 0.52472,-1.52258 0.80801,-2.36401c0.28482,-0.84598 0.84711,-1.49963 0.98932,-2.46133c0.14755,-0.99777 0.20602,-1.60953 0.68335,-2.28448c0.47086,-0.6658 0.16714,-1.75641 0.40982,-2.58566c0.25793,-0.88138 0.91425,-1.60757 0.94284,-2.47116c0.02826,-0.85373 0,-1.83334 0,-2.62268c0,-1.04401 -0.00684,-1.84952 0.284,-2.69598c0.25391,-0.73901 0.63657,-1.71024 0.69516,-2.49384c0.07455,-0.99695 -0.01892,-1.77457 0.02533,-2.67352c0.04263,-0.86603 0.61279,-1.62543 0.91019,-2.54733c0.27759,-0.8605 0.08533,-1.68533 0.08533,-2.62534c0,-0.69064 -0.04593,-1.69498 0.284,-2.65866c0.24271,-0.70892 0.66772,-1.62885 0.71466,-2.39999c0.05783,-0.95032 0.04135,-1.73056 0.354,-2.716c0.25784,-0.81262 0.48511,-1.60693 0.67267,-2.564c0.16116,-0.82227 0.70462,-1.56534 0.922,-2.49316c0.17218,-0.73483 0.31152,-1.75412 0.66333,-2.54283c0.36246,-0.81255 0.81915,-1.58449 1.03217,-2.2c0.33905,-0.97963 0.31226,-1.81638 0.57852,-2.8c0.22134,-0.81772 0.62289,-1.79813 0.75333,-2.58934c0.11932,-0.72375 0.59683,-1.52835 0.90384,-2.532c0.20068,-0.65608 0.01349,-1.67413 0.20682,-2.56267c0.17303,-0.79521 0.7366,-1.60799 0.87866,-2.48c0.1506,-0.92451 0.08453,-1.83731 0.03586,-2.73618c-0.04272,-0.7886 -0.47314,-1.70688 -0.71585,-2.41583c-0.3299,-0.96367 -0.19254,-1.81413 -0.32001,-2.65866c-0.14526,-0.96254 -0.72708,-1.54794 -0.90683,-2.478c-0.16415,-0.84943 -0.02655,-1.84911 -0.40982,-2.65184c-0.42529,-0.89079 -0.62933,-1.52034 -0.64734,-2.52882c-0.01538,-0.86203 0.00241,-1.78654 -0.42532,-2.56667c-0.4512,-0.82291 -0.80862,-1.55827 -1.22202,-2.3c-0.42563,-0.76369 -0.84476,-1.54042 -1.186,-2.46667c-0.29379,-0.79742 -0.29358,-1.69028 -0.77731,-2.45866c-0.45328,-0.72 -0.84708,-1.40154 -1.38934,-2.20799c-0.465,-0.69154 -1.09735,-1.48958 -1.5,-2.16667c-0.49673,-0.83528 -0.99475,-1.48431 -1.70001,-2.2c-0.49634,-0.50365 -1.19998,-1.2 -1.89999,-1.90001c-0.5,-0.5 -1.19287,-1.20717 -1.89999,-1.89999c-0.51572,-0.50529 -1.29944,-1.14195 -2,-1.47917c-0.95245,-0.45847 -1.76129,-0.54858 -2.65717,-0.87349c-0.75522,-0.2739 -1.5387,-0.5677 -2.34283,-0.62651c-0.99756,-0.07295 -1.80908,0.03543 -2.60001,-0.10616c-1.01892,-0.1824 -1.785,-0.62582 -2.79999,-0.83067c-0.7915,-0.15973 -1.80215,-0.29912 -2.39999,-0.50934c-0.80298,-0.28236 -1.80603,-0.48357 -2.60001,-0.62733c-1.00998,-0.18288 -1.78162,-0.59087 -2.80002,-0.82599c-0.59204,-0.13669 -1.41318,-0.1604 -2.39999,-0.474c-0.8125,-0.25821 -1.79761,-0.59496 -2.60001,-0.63667c-0.99872,-0.05193 -1.81573,0.05185 -2.79999,-0.17734c-0.81885,-0.19067 -1.38107,-0.5656 -2.39999,-0.748c-0.79092,-0.14159 -1.79984,-0.08533 -2.57916,-0.08533c-0.99951,0 -1.90485,0 -2.85684,0c-0.76532,0 -1.75949,0 -2.50684,0c-1.03183,0 -1.97867,0 -2.67801,0c-0.97916,0 -1.77914,0 -2.57916,0c-1,0 -1.79999,0 -2.79999,0c-0.80002,0 -1.80002,0 -2.60001,0c-1,0 -1.79999,0 -2.60001,0c-1,0 -1.79999,0 -2.79999,0c-0.80002,0 -1.80002,0 -2.60001,0c-1,0 -1.79999,0 -2.60001,0c-1,0 -1.79999,0 -2.79999,0c-0.80002,0 -1.80002,0 -2.60001,0c-1,0 -1.81067,-0.00058 -2.68533,0c-0.99866,0.00067 -1.81985,-0.02698 -2.63068,0.08533c-1.00861,0.13969 -1.64056,0.49403 -2.68399,0.748c-0.7876,0.19171 -1.60001,0.166 -2.60001,0.16667c-0.79999,0.00053 -1.80133,0 -2.63599,0c-0.93066,0 -1.71667,0 -2.53867,0c-1.05869,0 -1.98935,0 -2.82401,0c-1.00134,0 -1.80133,0 -2.80133,0c-0.80002,0 -1.80002,0 -2.60001,0c-1,0 -1.79999,0 -2.60001,0c-1,0 -1.80023,-0.02098 -2.79999,0.00133c-0.80057,0.01787 -1.80215,0.21379 -2.39999,0.42401c-0.80298,0.28236 -1.80334,0.54182 -2.65717,0.57016c-0.96365,0.03198 -1.76819,0.0045 -2.59018,0.0045c-1.03116,0 -1.93182,0 -2.95267,0c-0.78934,0 -1.51468,0 -2.5,0c-0.98401,0 -1.67467,0 -2.74733,0c-0.91934,0 -1.75267,0 -2.586,0c-0.91934,0 -1.81934,0 -2.68268,0c-0.84799,0 -1.784,0 -2.68399,0l-0.90001,0l-0.89999,0l-0.8,0" id="svg_1" stroke-width="2" stroke="#000" fill="none"/>
  <path t="4730,4797,4803,4811,4833,4833,4840,4841,4849,4856,4863,4863,4870,4870,4879,4886,4886,4893,4900,4900,4901,4909,4909,4916,4922,4922,4931,4931,4938,4939,4947,4947,4952,4952,4961,4961,4968,4968,4969,4977,4977,4982,4982,4983,4990,4991,4991,4999,4999,4999,4999,4999,5006,5006,5007,5007,5013,5013,5013,5013,5013,5020,5021,5021,5021,5029,5029,5029,5029,5029,5036,5037,5037,5037,5037,5043,5043,5043,5043,5050,5051,5051,5051,5051,5059,5059,5059,5059,5066,5067,5067,5067,5067,5072,5073,5073,5073,5081,5081,5081,5081,5081,5089,5089,5089,5089,5103,5103,5103,5103,5103,5105,5105,5105,5105,5105,5120,5120,5120,5120,5120,5122,5122,5122,5122,5136,5136,5136,5136,5136,5137,5137,5137,5137,5141,5141,5141,5141,5141,5149,5149,5149,5149,5157,5157,5157,5163,5163,5163,5163,5170,5170,5170,5171,5171,5179,5179,5179,5179,5179,5186,5187,5187,5187,5187,5234,5234,5234,5234,5234,5235,5235,5235,5235,5235,5235,5239,5239,5239,5239,5239,5239,5239,5239,5239,5247,5247,5247,5247,5247,5247,5252,5252,5261,5261" d="m299,254c-0.99551,-1.7 -1.19379,-2.48737 -1.716,-3.084c-0.67236,-0.76816 -0.89197,-1.51866 -1.58398,-2.216c-0.49808,-0.50192 -1.15735,-1.26118 -2,-1.64732c-0.76889,-0.35234 -1.42694,-0.81589 -2.35269,-0.99551c-0.84927,-0.16479 -1.84732,-0.05716 -2.66864,-0.05716c-0.85333,0 -1.79468,0 -2.84534,0c-0.66934,0 -1.43466,0 -2.42883,0c-0.91919,0 -1.90469,-0.01715 -2.72583,0.00017c-0.85388,0.01801 -1.79517,0.28444 -2.43134,0.70433c-0.9007,0.59448 -1.62964,0.94553 -2.362,1.4955c-0.61282,0.46022 -1.29672,1.20998 -1.77069,1.68533c-0.76846,0.77071 -1.33359,1.29041 -1.948,2.11467c-0.57373,0.7697 -0.86395,1.39908 -1.36667,2.39999c-0.30109,0.59946 -0.82068,1.59033 -1.09549,2.2045c-0.37604,0.84039 -0.59622,1.81577 -0.67917,2.64218c-0.06015,0.59912 -0.18329,1.92145 -0.30933,2.63867c-0.1322,0.75229 -0.30737,1.52252 -0.43201,2.31598c-0.18771,1.19498 -0.23682,1.99829 -0.26315,2.79868c-0.02634,0.79971 -0.02484,2.00003 -0.0195,2.79999c0.00534,0.80005 0.01407,1.60153 0.08398,2.40002c0.10538,1.20309 0.25757,2.00446 0.45633,2.79999c0.20111,0.80493 0.61646,2.00345 0.94235,2.79999c0.1644,0.40179 0.52594,1.19577 0.86331,2c0.50085,1.19391 0.76996,1.99826 1.02734,2.78934c0.25192,0.77429 0.4657,1.54434 0.94699,2.58917c0.31223,0.67783 0.70053,1.31439 1.14001,1.91699c0.67575,0.92657 1.21341,1.51291 1.77432,2.09384c0.56451,0.58466 1.14319,1.15219 2.06418,1.88916c0.88986,0.71207 1.52841,1.12283 2.18515,1.52017c1.02496,0.62012 1.76968,1.0011 2.15067,1.19067c0.77042,0.38336 1.55307,0.75839 2.76401,1.189c0.7926,0.28186 1.59494,0.50418 2.39999,0.66c1.1936,0.23105 1.99936,0.2883 2.80002,0.32565c0.79953,0.03729 1.60001,0.03851 2.79999,0.03586c0.80002,-0.00177 1.60104,-0.00244 2.39999,-0.05701c1.20221,-0.08209 2.00226,-0.21667 2.80002,-0.37885c0.80243,-0.16312 1.60165,-0.3588 2.79999,-0.66434c0.80115,-0.20428 1.20703,-0.29962 2,-0.57166c0.80774,-0.2771 2.00876,-0.85599 2.7955,-1.33783c0.3985,-0.24405 1.16974,-0.77377 1.91916,-1.3075c1.06558,-0.75888 1.73163,-1.22519 2.3645,-1.68268c0.61975,-0.448 1.5304,-1.15585 2.11951,-1.68533c0.60059,-0.53983 1.17908,-1.11282 1.716,-1.716c0.78427,-0.88104 1.23953,-1.4953 1.66449,-2.11951c0.42792,-0.6286 1.02887,-1.64142 1.41953,-2.36316c0.3989,-0.73694 0.77661,-1.48541 1.116,-2.23199c0.47974,-1.05533 0.75433,-1.71716 1.03867,-2.67334c0.17957,-0.60388 0.38171,-1.81079 0.42581,-2.73151c0.03046,-0.6358 0.03027,-1.6459 0.01636,-2.73633c-0.00974,-0.76379 -0.01831,-1.55096 -0.16217,-2.74283c-0.09692,-0.8031 -0.26147,-1.60486 -0.48001,-2.39999c-0.22134,-0.80539 -0.50641,-1.60556 -0.83865,-2.39999c-0.33701,-0.80588 -0.72211,-1.60159 -1.116,-2.40002c-0.39545,-0.80161 -0.79041,-1.6037 -1.20935,-2.38931c-0.41586,-0.77982 -0.84305,-1.54791 -1.61084,-2.58917c-0.2536,-0.34396 -0.80621,-0.99321 -1.38916,-1.61084c-0.58249,-0.61714 -1.47696,-1.52586 -2.12982,-2.11516c-0.34827,-0.31436 -1.17648,-0.9425 -1.67401,-1.25267c-0.54605,-0.34041 -1.88095,-1.01987 -2.67734,-1.36366c-0.85806,-0.37041 -1.77521,-0.72496 -2.72549,-1.07251c-0.95938,-0.35088 -1.91699,-0.67842 -2.8515,-0.9825c-0.88828,-0.28902 -2.46286,-0.7635 -3.11615,-0.93817c-0.56033,-0.14981 -1.04077,-0.27095 -1.45502,-0.342c-0.91034,-0.15611 -1.95868,-0.14267 -2.724,-0.108l-0.95065,0.24934l-0.68402,0.51599" id="svg_2" stroke-width="2" stroke="#000" fill="none"/>
  <path t="6131,6242,6251,6267,6272,6281,6281,6289,6296,6296,6302,6310,6318,6326,6332,6340,6340,6348,6356,6362,6370,6370,6378,6378,6386,6392,6392,6400,6408,6416,6416,6422,6430,6430,6438,6446,6452,6452,6460,6468,6468,6468,6474,6482,6482,6490,6490,6498,6499,6506,6506,6512,6512,6512,6520,6520,6520,6528,6528,6536,6536,6542,6542,6542,6550,6550,6550,6558,6558,6566,6566,6566,6572,6572,6580,6580,6588,6588,6588,6596,6596,6596,6602,6602,6610,6610,6611,6619,6619,6626,6627,6632,6632,6632,6640,6640,6648,6648,6648,6656,6656,6656,6662,6662,6670,6670,6678,6678,6686,6686,6692,6692,6700,6700,6708,6716,6716,6722,6722,6722,6730,6730,6738,6738,6746,6746,6752,6752,6760,6760,6768,6768,6768,6776,6776,6782,6782,6790,6790,6798,6798,6806,6812,6812,6828,6828,6836,6850,6858,6866,6872,6880,6888,6888,6896,6896,6902,6910,6910,6918,6926,6926,6932,6932,6932,6940,6948,6948,6956,6956,6962,6962,6970,6970,6978,6978,6986,6992,6992,6992,7000,7000,7008,7008,7009,7016,7016,7016,7022,7030,7030,7038,7038,7046,7060,7068,7082,7090,7098,7105,7112,7112,7120,7120,7120,7128,7128,7136,7136,7142,7142,7150,7150,7150,7158,7158,7166,7166,7172,7172,7180,7188,7188,7188,7196,7196,7202,7202,7210,7210,7211,7218,7218,7226,7232,7232,7240,7240,7248,7248,7256,7263,7270,7270,7278,7286,7292,7300,7300,7300,7308,7316,7316,7322,7322,7330,7330,7338,7338,7346,7352" d="m312,249c-0.77866,-0.87866 -0.18848,-1.48917 0.436,-1.97467c0.74597,-0.57993 1.50592,-1.09444 2.064,-1.5045c0.82791,-0.60834 1.63837,-0.90691 2.29999,-1.23683c0.84338,-0.42056 1.81961,-0.28206 2.60001,-0.70934c0.82257,-0.45038 1.70001,-0.57466 2.60001,-0.57466c0.79999,0 1.70001,0 2.60001,0c0.92084,0 1.89133,-0.07011 2.57465,0.036c0.96066,0.14917 1.59253,0.80847 2.46133,0.95334c1.00296,0.16724 1.75424,-0.03409 2.72803,0.436c0.77844,0.37579 1.66788,0.7012 2.23599,1.18533c0.74533,0.63516 1.44064,1.11806 2.19998,1.47333c0.73141,0.34221 1.04388,1.38005 1.48535,2.116c0.4071,0.67862 1.16309,1.17464 1.71466,1.96667c0.44037,0.63237 0.85452,1.31435 1.38934,2.20799c0.54724,0.91441 0.47736,1.66537 0.832,2.604c0.26044,0.68933 0.73163,1.50409 0.77417,2.42584c0.0459,0.99445 -0.00806,1.79559 0.00464,2.79565c0.01041,0.82086 0.05411,1.49185 0.28384,2.48383c0.19043,0.82236 0.48782,1.62253 0.63068,2.63068c0.12314,0.86917 0.08533,1.88535 0.08533,2.68533c0,1 0.00037,1.81067 0,2.45715c-0.00067,1.22684 0.03879,1.77249 -0.05716,2.59018c-0.15002,1.27872 -0.52222,1.90924 -0.77618,2.95267c-0.19168,0.7876 -0.13538,1.60062 -0.17114,2.60001c-0.02869,0.80121 -0.28665,1.79745 -0.49551,2.39999c-0.34521,0.99597 -0.48074,1.81018 -0.49866,2.68533c-0.02045,0.99844 -0.00079,1.81467 -0.00134,2.63068c-0.00067,0.99866 0.03738,1.88959 -0.22134,2.884c-0.15958,0.61328 -0.57394,1.38525 -0.7215,2.39999c-0.11536,0.79337 -0.00266,1.80438 -0.09317,2.60001c-0.11496,1.0105 -0.5014,1.78781 -0.67999,2.39999c-0.28836,0.98859 -0.27551,1.85718 -0.28415,2.82132c-0.0072,0.80405 0.01581,1.64026 -0.22119,2.65717c-0.21399,0.91818 -0.57388,1.50546 -0.7215,2.52151c-0.11526,0.7934 -0.05716,1.79999 -0.05716,2.60001c0,0.99982 0,1.77914 0,2.77866c0,0.90533 0,1.85733 0,2.62265c0,0.99417 -0.10736,1.74823 0.01068,2.77335c0.11096,0.96362 0.56528,1.62354 0.82266,2.62534c0.20215,0.7868 0.19534,1.616 0.452,2.39999c0.26871,0.82077 0.83063,1.79218 1.104,2.38934c0.47223,1.03156 0.59799,1.84836 0.89465,2.69598c0.25812,0.73755 0.58884,1.71561 0.716,2.51468c0.15933,1.00119 0.38913,1.58749 0.64734,2.39999c0.3136,0.98682 0.30371,1.81747 0.57401,2.79984c0.21954,0.798 0.59039,1.63907 0.80399,2.42551c0.23505,0.86545 0.73892,1.69171 0.91751,2.62201c0.17365,0.90457 0.05716,1.75266 0.05716,2.586c0,0.86215 0.146,1.8894 -0.436,2.556c-0.60956,0.69818 -1.30185,1.22095 -2,1.57465c-0.77542,0.39285 -1.88531,0.03601 -2.564,0.03601c-0.97849,0 -1.79868,0 -2.75717,0c-0.89551,0 -1.7645,0.0885 -2.61749,-0.01068c-0.96353,-0.11203 -1.64752,-0.50745 -2.62534,-0.98932c-0.59631,-0.29385 -1.33392,-0.67191 -2.37466,-0.97467c-0.93936,-0.27328 -1.6507,-0.50458 -2.45868,-1.02533c-0.69006,-0.44476 -1.49619,-0.83707 -2.34131,-1.02533c-0.95288,-0.21228 -1.55637,-0.69705 -2.47803,-0.922c-0.84915,-0.20724 -1.70001,-0.52087 -2.51398,-1.05267c-0.65277,-0.42648 -1.44498,-0.78009 -2.23203,-1.20132c-0.776,-0.41531 -1.5979,-1.10687 -1.97598,-1.63467c-0.53534,-0.74734 -1.09778,-1.57315 -1.62534,-2.14316c-0.50513,-0.54578 -1.24283,-1.26367 -2,-2.02084c-0.5,-0.5 -1.19733,-1.2027 -1.79999,-1.79999c-0.59735,-0.59204 -1.48227,-0.99692 -2.14734,-1.55267c-0.65317,-0.54578 -1.04733,-1.25793 -1.05267,-2.14734c-0.00546,-0.91064 0,-1.8215 0,-2.52084c0,-0.97916 0,-1.77914 0,-2.57916c0,-1 -0.02097,-1.80023 0.00134,-2.79999c0.01788,-0.80057 0.18494,-1.81409 0.5195,-2.60001c0.43433,-1.02026 0.74564,-1.61441 1.17917,-2.34283c0.55383,-0.9306 1.07446,-1.52682 1.27466,-2.49316c0.15683,-0.75702 0.39877,-1.75162 0.67267,-2.50684c0.32489,-0.89587 0.52124,-1.82309 0.77798,-2.49316c0.29291,-0.76447 0.48358,-1.77002 0.62735,-2.564c0.18289,-1.00998 0.52826,-1.57657 0.78067,-2.60001c0.19412,-0.78699 0.16599,-1.60001 0.16666,-2.59549c0.00061,-0.91919 0.01981,-1.77939 -0.00015,-2.72583c-0.01801,-0.85388 -0.34818,-1.76205 -0.64719,-2.43134c-0.38699,-0.86618 -0.37488,-1.79092 -0.77798,-2.61136c-0.42746,-0.87 -0.80966,-1.59369 -1.22202,-2.336c-0.45795,-0.8244 -1.05872,-1.18182 -1.75266,-1.74664c-0.7269,-0.59164 -0.96906,-1.39755 -1.39999,-2.06934c-0.56088,-0.87439 -1.30081,-1.58322 -1.80002,-2.08401c-0.70111,-0.70337 -1.22128,-1.27188 -1.69998,-2.05267c-0.41898,-0.68338 -1,-1.59015 -1.5,-2.146l-0.67917,-0.70132l-0.46817,-0.79999" id="svg_3" stroke-width="2" stroke="#000" fill="none"/>
  <path t="8201,8260,8276,8276,8282,8290,8290,8298,8298,8298,8305,8305,8305,8312,8312,8320,8320,8320,8328,8328,8336,8336,8342,8358,8372" d="m262,353c-1.71466,-0.91333 -2,0 -2,0.79999c0,0.836 -0.00006,1.86166 0,2.66168c0.00009,0.95966 -0.03091,1.76709 0.05716,2.58566c0.11169,1.03815 0.41589,1.70157 0.65884,2.55133c0.28342,0.99136 0.27087,1.63736 0.28415,2.82251c0.00888,0.79352 -0.073,1.60614 0.28384,2.6095c0.2695,0.75775 0.65884,1.62201 0.71152,2.31665l0.01517,1.01669l0.27332,0.836l0.54935,0.79999" id="svg_4" stroke-width="2" stroke="#000" fill="none"/>
  <path t="8552,8628,8628,8636,8636,8642,8650,8650,8650,8658,8658,8658,8666,8666,8666,8672,8672,8672,8672,8680,8680,8680,8688,8688,8688,8696,8696,8696,8696,8696,8702,8702,8702,8702,8710,8710,8710,8710,8718,8718,8718,8718,8724,8724,8724,8724,8732,8732,8732,8740,8740,8740,8748,8748,8748,8756,8756,8756,8762,8770,8770,8778,8778,8786,8786,8792,8800,8808,8822,8822,8830,8928,8936,8942,8942,8950,8950,8958,8958,8966,8966,8972,8972,8980,8980,8988,8988,8994,8994,9010,9062" d="m255,353c1,-1 1.77011,-0.97949 2.65268,-0.64734c0.70621,0.26578 1.59811,0.61517 2.68066,0.64734c0.67621,0.02011 1.46411,-0.03912 2.5,0.16666c0.95749,0.19022 1.60638,0.54395 2.58817,0.71185c0.80722,0.13806 1.68298,0.11923 2.57849,0.12149c0.89999,0.00226 1.79999,0 2.39999,0c1.20001,0 2.10001,0 2.70001,0c1.20016,0 2.11066,0 2.73599,0c1.33066,0 2.04935,0 2.79999,0c0.77469,0 1.56534,0 2.76385,0c0.79565,0 1.57932,0 2.34299,0c1.09052,0 2.10449,0 2.75717,0c0.98401,0 2.02133,0 2.75266,0c0.74734,0 1.49469,0 2.92584,0c0.66434,0 1.61084,0 2.22018,0c1.20132,0 2.10132,0 2.70132,0c1.19983,0 2.08932,0 2.94284,0c1.03583,0 1.73181,0 2.64114,0c0.99869,0 1.79517,0 2.54666,0c1.108,0 2.09085,0 2.79019,0c0.97916,0 1.80798,0.15778 2.8125,-0.16666c0.69159,-0.22336 1.46527,-0.80475 2.36667,-0.83334c0.89954,-0.02853 1.80084,0.0372 2.59998,0c0.91766,-0.04272 1.10684,-0.45218 1.21069,0.41068c0.11172,0.92816 0.57068,1.58615 0.82266,2.58932c0.19492,0.77597 0.16605,1.83334 0.16666,2.62534c0.00067,0.85999 -0.04156,1.60306 0.22134,2.57449c0.21622,0.79892 0.71356,1.7724 0.77417,2.55283c0.07004,0.90179 0.00449,1.65186 0.00449,2.64603l0,0.94415l0,0.89999l-0.00134,0.95584" id="svg_5" stroke-width="2" stroke="#000" fill="none"/>
  <path t="9265,9318,9324,9324,9332,9332,9340,9340,9348,9348,9348,9356,9356,9356,9356,9362,9362,9362,9362,9362,9370,9370,9370,9370,9370,9378,9378,9378,9378,9378,9378,9386,9386,9386,9386,9386,9386,9392,9392,9392,9392,9392,9392,9400,9400,9400,9400,9400,9400,9408,9408,9408,9408,9408,9408,9416,9416,9416,9416,9416,9422,9422,9422,9422,9422,9430,9430,9430,9430,9430,9438,9438,9438,9446,9446,9446,9446,9452,9452,9460,9468" d="m260,370c0.20001,0 1.10016,-0.00443 1.88535,0c0.95068,0.00534 1.72711,0.0466 2.71915,0.35266c0.63965,0.19733 1.55829,0.51367 2.35266,0.59018c0.85083,0.08194 2.04285,0.05716 2.95184,0.05716c0.63266,0 1.30533,0 2.42435,0c0.836,0 1.728,0 2.65198,0c0.46652,0 1.84802,0 2.73068,0c0.85867,0 1.70932,0 2.56799,0c0.88266,0 1.80273,0.00385 2.76266,-0.01068c0.49506,-0.00748 1.51547,-0.03873 2.04001,-0.07465c1.63651,-0.11203 2.19852,-0.19128 3.33865,-0.35068c0.57532,-0.08044 1.15036,-0.1687 2.29068,-0.36533c1.11835,-0.19284 2.19934,-0.39661 2.72684,-0.50317c1.03769,-0.20966 1.55057,-0.31552 2.55582,-0.58084c1.00568,-0.26541 2.00211,-0.59644 2.50134,-0.76733c1.00156,-0.34286 1.49637,-0.53281 2.5,-0.86331c0.99652,-0.32816 1.9978,-0.6077 3,-0.84802c0.49893,-0.11966 1.49973,-0.33279 2,-0.43466c1.49905,-0.30527 1.99899,-0.39975 2.98932,-0.60132c0.97498,-0.19846 1.45514,-0.2926 2.84402,-0.60001c0.88239,-0.19531 1.73083,-0.3992 2.14581,-0.5c0.81674,-0.19843 2.02109,-0.49905 2.81952,-0.70001c0.79089,-0.19904 1.56708,-0.39359 2.31598,-0.59998c1.40338,-0.38672 2.04489,-0.60611 2.67468,-0.76401c1.20303,-0.30161 2.10645,-0.38034 2.68982,-0.436c0.83594,-0.07974 2.05917,-0.35266 2.67416,-0.57468l0.96133,-0.34l0.98535,-0.08533" id="svg_6" stroke-width="2" stroke="#000" fill="none"/>
  <path t="12190,12288,12294,12294,12301,12302,12310,12310,12317,12318,12318,12326,12326,12326,12332,12332,12332,12339,12339,12340,12348,12348,12348,12356,12356,12356,12362,12362,12370,12370,12378,12378,12392,12392,12430,12452" d="m282,244c0.20001,0 1.11533,-0.0903 1.88535,0.08533c0.79367,0.18103 1.63391,0.71123 2.36649,1.21468c0.72073,0.49532 1.51462,0.90738 2.26901,1.2c0.79349,0.3078 1.78738,0.71849 2.47916,0.97917c0.67691,0.2551 1.68512,0.43895 2.52084,0.52083c0.88028,0.08624 2.07993,0.28085 2.67917,0.42534c0.90115,0.21727 1.79678,0.43858 2.6955,0.5175c0.86642,0.07608 1.93784,0.05716 2.64734,0.05716c0.85266,0 1.85715,0 2.65717,0c1,0 1.79999,0 2.79999,0c0.78934,0 1.83334,0 2.58932,0l0.93869,0l-0.47534,-0.35266" id="svg_7" stroke-width="2" stroke="#000" fill="none"/>
  <path t="12700,12798,12812,12812,12820,12820,12828,12836,12842,12842,12850,12850,12850,12858,12858,12866,12866,12872,12872,12872,12872,12880,12880,12880,12888,12888,12888,12896,12896,12896,12902,12902,12902,12910,12910,12910,12918,12918,12918,12924,12924,12924,12932,12932,12940,12940,12940,12948,12948,12954,12954,12954,12961,12962,12962,12969,12969,12969,12978,12978,12978,12983,12983,12983,12983,12992,12992,12992,12999,12999,12999,13007,13008,13008,13008,13015,13015,13023,13023,13023,13030,13030,13030,13038,13038,13038,13046,13046,13046,13051,13051,13051,13051,13060,13060,13060,13067,13067,13068,13068,13073,13073,13073,13082,13082,13082,13089,13090,13090,13098,13098,13098,13106,13106,13106,13106,13112,13112,13112,13119,13119,13119,13128,13128,13128,13128,13133,13133,13142,13142,13142,13149,13149,13150,13150,13157,13158,13158,13165,13165,13166,13173,13173,13173,13173,13180,13180,13180,13188,13188,13188,13188,13196,13196,13196,13201,13201,13210,13210,13210,13217,13217,13218,13223,13223,13232,13232,13240,13240,13248,13261,13269,13278,13285,13285,13292,13299,13307,13314,13337,13435,13441,13457,13465,13473" d="m282,244c-1.83334,-0.16667 -2,-1 -2,-1.75717c0,-0.89549 0,-1.75883 0,-2.722c0,-0.93149 0,-1.84233 0,-2.54166c0,-0.97917 -0.05624,-1.78827 0.08533,-2.57918c0.1824,-1.01892 0.64886,-1.78075 0.82935,-2.80133c0.14594,-0.82518 0.07297,-1.7655 0.08981,-2.55583c0.01819,-0.85388 0.03824,-1.45201 0.27951,-2.64284c0.18378,-0.90712 0.42029,-1.49042 0.59451,-2.69983c0.12741,-0.88446 0.11615,-1.46413 0.12149,-2.53349c0.0047,-0.94133 0,-1.61934 0,-2.85201c0,-0.55066 -0.00699,-1.41919 0.00015,-2.6145c0.00531,-0.88954 -0.04208,-1.47661 0.1665,-2.53349c0.18903,-0.95776 0.54327,-1.60651 0.71185,-2.588c0.13687,-0.79686 0.11923,-1.62601 0.12149,-2.65718c0.00195,-0.90067 0,-1.92149 0,-2.7215c0,-0.8 -0.00006,-1.8045 0,-2.65717c0.00009,-0.96416 -0.03091,-1.77158 0.05716,-2.59016c0.11172,-1.03833 0.40332,-1.71683 0.59018,-2.40533c0.33035,-1.21729 0.33078,-1.78293 0.34818,-2.65184c0.02393,-1.19527 0.00449,-2.09549 0.00449,-2.6955c0,-1.2 0,-2.09999 0,-2.7c0,-0.89999 0,-2.10001 0,-2.7c0,-0.90001 0,-2.10001 0,-2.7c0,-0.90001 0,-2.10001 0,-2.69867c0,-0.88051 0,-1.716 0,-2.71733c0,-0.90933 0,-1.85068 0,-2.63667c0,-0.82201 0,-1.88066 0,-2.59467c0,-0.90533 0,-1.87416 0,-2.68866c0,-0.86852 0,-2.06401 0,-2.664c0,-0.90001 0,-2.10001 0,-2.70001c0,-0.89999 -0.00519,-1.8 0.00015,-2.7c0.00534,-0.90004 0.01987,-1.8053 0.1665,-2.7c0.14862,-0.90692 0.36557,-1.49287 0.54935,-2.39999c0.24127,-1.19083 0.2619,-1.78894 0.27951,-2.64284c0.02136,-1.03563 0.00403,-1.95717 0.00449,-2.64117c0.00067,-1.00133 -0.0192,-1.84067 0.08533,-2.71733c0.14386,-1.20648 0.35715,-1.7946 0.56201,-2.69867c0.20309,-0.89629 0.31174,-1.7993 0.34198,-2.7c0.02014,-0.59973 0.01068,-1.8 0.01068,-2.7c0,-0.60001 0,-1.8 0,-2.7c0,-0.60001 0,-1.8 0,-2.6955c0,-0.58368 0,-1.41917 0,-2.65184c0,-0.67799 0,-1.87416 0,-2.68866c0,-0.57468 0,-1.76401 0,-2.664c0,-0.60001 0,-1.50001 0,-2.7c0,-0.6 0,-1.5 0,-2.7c0,-0.6 0,-1.5 0,-2.7c0,-0.6 0,-1.5 0,-2.4c0,-0.9 0,-1.8 0,-2.7c0,-0.9 -0.01666,-1.80099 0.03601,-2.7c0.03522,-0.60099 0.24133,-1.80032 0.46399,-2.67916c0.14307,-0.56477 0.44006,-1.83353 0.47916,-2.5c0.05978,-1.01929 0.02084,-1.8315 0.02084,-2.70617c0,-0.99866 -0.00055,-1.81467 0,-2.63067c0.00067,-0.99733 -0.08966,-1.87881 0.284,-2.8c0.27554,-0.6793 0.68613,-1.53533 0.71466,-2.4c0.03177,-0.96264 0.00134,-1.784 0.00134,-2.684c0,-0.9 -0.02536,-1.80041 0,-2.60001c0.02859,-0.90135 0.68619,-1.62236 0.94284,-2.5c0.25311,-0.86555 0.05716,-1.8 0.05716,-2.7c0,-0.45834 0,0.4 0,1.3l0,0.89999" id="svg_8" stroke-width="2" stroke="#000" fill="none"/>
  <path t="13510,13669,13674,13690,13699,13699,13704,13704,13712,13720,13720,13728,13728,13736,13736,13742,13742,13742,13750,13750,13758,13758,13764,13764,13780,13794,13794,13832,13848,13870,13968,14012,14012,14020,14028,14034,14042,14042,14042,14050,14050,14050,14058,14058,14058,14064,14064,14064,14064,14072,14072,14072,14072,14072,14080,14080,14080,14080,14080,14089,14089,14089,14089,14089,14096,14096,14096,14096,14096,14096,14097,14102,14102,14102,14102,14102,14102,14102,14110,14110,14110,14110,14110,14110,14118,14118,14118,14118,14118,14118,14118,14124,14124,14124,14124,14124,14124,14124,14132,14132,14132,14132,14132,14132,14140,14140,14140,14140,14140,14140,14148,14148,14148,14148,14149,14149,14156,14156,14156,14156,14156,14156,14162,14162,14162,14162,14162,14163,14170,14170,14170,14170,14170,14170,14178,14178,14178,14178,14178,14178,14184,14184,14184,14184,14184,14193,14193,14193,14193,14193,14193,14201,14201,14201,14201,14201,14209,14209,14209,14209,14209,14217,14217,14217,14217,14223,14223,14223,14223,14223,14231,14231,14231,14231,14239,14239,14239,14239,14239,14247,14247,14247,14247,14253,14253,14253,14253,14253,14261,14261,14261,14261,14269,14269,14269,14269,14275,14275,14275,14275,14283,14283,14283,14283,14291,14291,14299,14299,14299,14299,14307,14307,14307,14312,14312,14320,14320,14329,14329,14336,14342,14350,14403,14411,14418" d="m289,90c-1.83334,-0.16666 -1.78476,-0.93911 -0.89999,-1c0.89786,-0.06179 1.65717,0 2.55267,0c0.86331,0 1.84766,0.02401 2.83133,-0.00134c0.69128,-0.01781 1.63199,-0.284 2.26865,-0.70316c0.90451,-0.59551 1.6514,-0.9964 2.44736,-1.3955c0.79953,-0.4009 1.40656,-0.68713 2.39548,-1.2c0.75247,-0.39026 1.50406,-0.9217 2.15717,-1.39999c0.71417,-0.52299 1.59192,-0.95107 2.49017,-1.24734c0.85461,-0.28187 1.40924,-0.87362 2.35718,-1.042c0.86566,-0.15376 1.63879,0.43855 2.116,1.07333c0.57626,0.76656 0.284,1.716 0.284,2.616c0,0.9 0,1.72134 0,2.63334c0,0.92799 0,1.7185 0,2.74533c0,0.696 0.01077,1.6054 -0.00134,2.608c-0.01031,0.85516 -0.01749,1.48018 -0.22,2.83483c-0.1105,0.73908 -0.29102,1.49712 -0.42599,2.283c-0.2048,1.19243 -0.27264,1.99522 -0.32733,2.7955c-0.05466,0.79974 -0.08063,1.60363 -0.24667,2.80017c-0.11203,0.80724 -0.28137,1.62019 -0.35333,2.03583c-0.14688,0.84839 -0.3118,2.18513 -0.37265,3.12567c-0.03137,0.48476 -0.07339,1.48527 -0.10535,2c-0.09964,1.60595 -0.16312,2.16048 -0.29999,3.2955c-0.06982,0.57918 -0.15283,1.16299 -0.29468,2.34733c-0.07144,0.5965 -0.19595,1.79486 -0.26865,2.9955c-0.03632,0.59972 -0.05667,1.20009 -0.10934,2.4c-0.02634,0.60004 -0.0336,1.2021 -0.19601,3c-0.05429,0.60081 -0.13034,1.20013 -0.27866,2.4c-0.07419,0.60007 -0.17239,1.19759 -0.33334,3c-0.0535,0.59932 -0.09082,1.19965 -0.13065,2.39999c-0.0199,0.59987 -0.02933,1.19998 -0.03467,2.40001c-0.00534,1.19998 -0.00134,1.79984 -0.00134,2.9955c0,0.59383 0,1.18367 0,2.34734c0,0.57182 0,2.23582 0,2.77316c0,1.05867 0,1.584 0,2.63667c0,0.53133 0,2.16866 0,2.73132c0,0.56866 0,1.716 0,2.29066c0,1.14134 0,2.25867 0,3.34134c0,0.53133 0,1.584 0,2.10933c0,1.05867 0,2.14134 0,3.25867c0,0.56866 0,1.14134 0,2.29066c0,0.57268 0,2.25867 0,2.80383c0,1.06435 0,1.58551 0,2.61084c0,0.50616 0,2.01067 0,2.51067c0,1 0,2 0,2.5c0,1 0,2 0,3c0,1 0,1.5 0,2.5c0,0.5 0,2 0,3c0,0.5 0,1.5 0,2c0,1.5 0,2.5 0,3c0,1 0,1.5 0,2.5c0,1.49983 0,1.99867 0,2.98933c0,0.97467 0,1.45351 0,2.84399c0,0.88133 0,1.73067 0,2.556c0,0.80934 0,2.01067 0,2.81067c0,0.8 0,1.60001 0,2.8c0,0.8 0,1.60001 0,2.39999c0,0.8 0,2 0,2.8c0,0.8 0,1.60001 0,2.8c0,0.8 0,1.60001 0,2.39999c0,0.8 0.00586,2.00006 -0.00449,2.8c-0.01035,0.80011 -0.01993,1.60344 -0.16217,2.8c-0.09543,0.80292 -0.186,1.2 -0.33334,2c-0.14734,0.8 -0.349,1.99857 -0.41467,2.79866c-0.06479,0.78957 -0.082,1.94417 -0.08533,3.03467c-0.00208,0.68134 0.00272,1.64769 -0.05716,2.26218c-0.11795,1.21007 -0.30469,1.80685 -0.51752,2.74049c-0.14771,0.64792 -0.35184,2.04596 -0.38931,2.77867c-0.03702,0.7235 -0.03534,1.416 -0.03601,2.616c-0.00043,0.7485 0,1.936 0,2.7265c0,0.8535 0,1.44417 0,2.64149c0,0.88051 0,1.716 0,2.716c0,0.87466 0,1.68533 0,2.66451c0,0.85416 0,1.71632 0,2.62083c0,0.89999 0,1.79999 0,2.69099l-0.08533,-0.09367l-0.41467,-0.71815" id="svg_9" stroke-width="2" stroke="#000" fill="none"/>
  <path t="15041,15114,15122,15122,15122,15130,15130,15130,15130,15139,15139,15139,15139,15139,15144,15144,15144,15144,15144,15144,15144,15152,15152,15152,15152,15152,15152,15152,15152,15160,15160,15160,15160,15160,15160,15161,15161,15161,15168,15168,15168,15168,15168,15168,15168,15168,15168,15174,15174,15174,15174,15174,15174,15174,15174,15174,15182,15182,15182,15182,15182,15182,15182,15183,15183,15190,15190,15190,15190,15190,15190,15190,15190,15190,15199,15199,15199,15199,15199,15199,15199,15199,15199,15205,15205,15205,15205,15205,15205,15205,15205,15205,15213,15213,15213,15213,15213,15213,15213,15213,15213,15221,15221,15221,15221,15221,15221,15221,15221,15221,15229,15229,15229,15229,15229,15229,15229,15229,15229,15235,15235,15235,15235,15235,15235,15235,15235,15235,15243,15243,15243,15243,15243,15243,15243,15243,15243,15251,15251,15251,15251,15251,15251,15251,15251,15251,15259,15259,15259,15259,15259,15259,15259,15259,15259,15265,15265,15265,15265,15265,15265,15265,15265,15265,15297,15297,15297,15297,15297,15297,15297,15297,15297,15303,15303,15303,15311,15311,15319,15319,15319,15325,15325,15325,15333,15333,15333,15333,15341,15341,15341,15341" d="m295,87c0.57468,1.672 0.90738,2.54019 0.96399,3.272c0.06458,0.8351 0.03601,2.02833 0.03601,2.63699c0,0.96301 0,1.66167 0,2.83417c0,0.87567 0,1.3395 0,2.31417c0,1.03066 0,2.10933 0,2.66433c0,1.14 0,1.725 0,2.925c0,0.615 0.00064,1.24 0,2.52c-0.00067,1.32133 -0.00259,1.99953 -0.01068,2.69067c-0.00824,0.70519 -0.02216,1.42544 -0.04648,2.16151c-0.0249,0.75328 -0.10577,2.31476 -0.16434,3.1245c-0.06003,0.83028 -0.13364,1.68018 -0.21451,2.55c-0.08276,0.8902 -0.17419,1.80004 -0.26849,2.73c-0.09634,0.95005 -0.29642,2.90991 -0.39551,3.91984c-0.10095,1.02874 -0.20071,2.07559 -0.29999,3.1395c-0.10074,1.07977 -0.20059,2.17462 -0.30002,3.28351c-0.10059,1.12178 -0.30038,3.40047 -0.39999,4.55533c-0.1004,1.1638 -0.20023,2.33565 -0.29999,3.5145c-0.10025,1.18481 -0.20016,2.37465 -0.30002,3.5685c-0.10013,1.19682 -0.30002,3.5955 -0.39999,4.79567c-0.10004,1.20117 -0.20013,2.40433 -0.29999,3.6105c-0.10016,1.21014 -0.20032,2.42529 -0.30002,3.6465c-0.10028,1.22813 -0.30029,3.70947 -0.39999,4.96417c-0.10031,1.26263 -0.20007,2.53133 -0.29999,3.80399c-0.1001,1.27467 -0.19986,2.54936 -0.30002,3.82201c-0.09982,1.26868 -0.29965,3.78603 -0.39999,5.03133c-0.0997,1.23737 -0.19989,2.46867 -0.29999,3.69601c-0.09991,1.22533 -0.2002,2.45064 -0.30002,3.67799c-0.10016,1.23132 -0.30075,3.71394 -0.39981,4.96851c-0.09961,1.26143 -0.1976,2.52686 -0.28952,3.79349c-0.09174,1.26437 -0.17783,2.5238 -0.25348,3.77551c-0.07498,1.24031 -0.19418,3.67636 -0.23584,4.8665c-0.04092,1.16988 -0.06946,2.31998 -0.09601,3.45c-0.02609,1.10999 -0.04837,2.20006 -0.078,3.26999c-0.02908,1.05006 -0.10941,3.09027 -0.16867,4.08017c-0.05817,0.97145 -0.12967,1.92445 -0.20398,2.8605c-0.07306,0.9203 -0.15085,1.82521 -0.22202,2.71651c-0.07013,0.87804 -0.19025,2.59927 -0.23117,3.44432c-0.04037,0.83363 -0.0672,1.65559 -0.08548,2.46451c-0.01797,0.79477 -0.02682,1.57465 -0.03152,2.3385c-0.00461,0.74683 -0.00394,2.1855 -0.00464,2.87566c-0.00067,0.67117 -0.00223,1.32437 -0.01053,1.96051c-0.00809,0.62019 -0.02151,1.22548 -0.04648,1.8165c-0.02444,0.57834 -0.10498,1.69997 -0.16418,2.24449c-0.05823,0.53551 -0.12961,1.06026 -0.20398,1.57501c-0.073,0.50523 -0.1506,0.99982 -0.22202,1.485c-0.06989,0.47481 -0.19006,1.39459 -0.23117,1.84c-0.04013,0.43465 -0.06714,0.85986 -0.08548,1.27499c-0.01788,0.40489 -0.02682,0.79999 -0.03152,1.185c-0.00458,0.37498 -0.00449,1.095 -0.00449,1.43983c0,0.33383 0,0.65567 0,0.96451c0,0.29483 0,0.57466 0,0.8385c0,0.24683 0,0.6855 0,0.87582c0,0.17233 0,0.32867 0,0.47101c0,0.13033 0,0.25067 0,0.36299c0,0.10634 0,0.30901 0,0.40868c0,0.09766 0,0.19133 0,0.27899c0,0.07967 0,0.14934 0,0.207c0,0.04367 0.0004,0.08099 -0.00015,0.07117c-0.01205,-0.21997 -0.30737,-1.13318 -0.57452,-1.86749c-0.28397,-0.78059 -0.40546,-1.59952 -0.42398,-2.47467c-0.02118,-1.00111 -0.00308,-1.85776 -0.0585,-2.47633c-0.12219,-1.36407 -0.2955,-2.091 -0.44284,-2.83833c-0.14734,-0.74733 -0.33334,-1.83333 -0.44284,-2.83833l-0.03632,-0.62l-0.0195,-0.85501" id="svg_10" stroke-width="2" stroke="#000" fill="none"/>
  <path t="15625,15670,15670,15678,15678,15678,15684,15684,15684,15684,15684,15692,15692,15692,15692,15692,15692,15692,15700,15700,15700,15700,15700,15700,15700,15700,15700,15708,15708,15708,15708,15708,15708,15708,15708,15708,15714,15714,15714,15714,15714,15714,15714,15714,15714,15722,15722,15722,15722,15722,15722,15722,15722,15722,15730,15730,15730,15730,15730,15730,15731,15731,15731,15739,15739,15739,15739,15739,15739,15739,15739,15739,15745,15745,15745,15745,15745,15745,15745,15745,15745,15753,15753,15753,15753,15753,15753,15753,15753,15753,15761,15761,15761,15761,15761,15761,15761,15761,15761,15769,15769,15769,15769,15769,15769,15769,15769,15769,15775,15775,15775,15775,15775,15775,15775,15775,15775,15783,15783,15783,15783,15783,15783,15783,15783,15783,15791,15791,15791,15791,15791,15791,15791,15791,15791,15805,15805,15805,15805,15805,15805,15805,15805,15805,15813,15813,15813,15813,15813,15813,15813,15813,15813,15821,15821,15821,15821,15821,15821,15821,15821,15821,15829,15829,15829,15829,15829,15829,15829,15829,15829,15835,15835,15835,15835,15835,15835,15835,15835,15835,15843,15843,15843,15843,15843,15843,15843,15843,15843" d="m303,94c0.22134,0.10033 0.73978,0.79322 0.91467,1.772c0.1395,0.78076 0.08307,1.39416 0.08533,2.75c0.00125,0.74866 0,1.56133 0,2.45399c0,0.48134 0,2.08884 0,2.68267c0,0.62183 0,1.27067 0,2.64533c0,0.72383 0.00015,1.47066 0,3.02934c-0.00009,0.81 0.00012,1.64001 -0.00449,2.49c-0.0047,0.87001 -0.01358,1.76006 -0.03152,2.67c-0.01831,0.93006 -0.03662,1.88057 -0.13065,3.84c-0.04849,1.01033 -0.11581,2.04031 -0.19501,3.09c-0.08075,1.07033 -0.17606,2.16039 -0.285,3.27c-0.11099,1.13039 -0.22934,2.28129 -0.51999,4.63999c-0.1492,1.21069 -0.31671,2.44009 -0.48602,3.69c-0.17203,1.2701 -0.34958,2.55969 -0.52197,3.87c-0.17496,1.3297 -0.35757,2.67819 -0.65869,5.44c-0.15363,1.40895 -0.2854,2.83842 -0.414,4.28551c-0.1301,1.46359 -0.25226,2.9437 -0.37799,4.43849c-0.12692,1.50887 -0.24698,3.03177 -0.54132,6.10934c-0.14874,1.55524 -0.31558,3.11751 -0.48602,4.68599c-0.1709,1.57288 -0.34821,3.14725 -0.52197,4.722c-0.17355,1.57259 -0.35349,3.14014 -0.65869,6.25867c-0.15115,1.54442 -0.28439,3.07974 -0.40948,4.60501c-0.12424,1.51476 -0.23795,3.01987 -0.3465,4.515c-0.10779,1.48488 -0.20914,2.96001 -0.41068,5.87999c-0.09973,1.44484 -0.19974,2.8786 -0.2955,4.30051c-0.09488,1.40875 -0.18619,2.80351 -0.26849,4.1835c-0.08133,1.36368 -0.16364,2.71011 -0.26935,5.34933c-0.05167,1.28975 -0.08441,2.55995 -0.11398,3.81c-0.02908,1.22995 -0.05142,2.44003 -0.078,3.63c-0.02612,1.17003 -0.04382,2.32059 -0.14133,4.56c-0.04745,1.09016 -0.11453,2.15884 -0.186,3.20549c-0.06992,1.02403 -0.14734,2.02367 -0.22202,2.9985c-0.07266,0.94884 -0.1524,1.86996 -0.25867,3.62933c-0.05042,0.83485 -0.08444,1.64122 -0.1095,2.41949c-0.02417,0.75108 -0.03818,1.4763 -0.04648,2.1765c-0.008,0.67616 -0.01001,1.32935 -0.01068,2.57068c-0.00031,0.59 0,1.15999 0,1.70999c0,0.53 0,1.04001 0,1.53c0,0.47 0,0.92 0,1.76001c0,0.39 0,0.75999 0,1.11c0,0.33 0,0.64 0,0.92999c0,0.27 0,0.52 0,0.96001c0,0.19032 0,0.36266 0,0.519c0,0.14233 0,0.27266 0,0.39301c0,0.11232 0,0.21866 0,0.42133c0,0.09933 0,0.19467 0,0.282c0,0.07533 0,0.13467 0,0.174c0,0.01534 0,0.00267 0,-0.12267c0,-0.11949 0,-0.276 0,-0.46649c0,-0.2215 0,-0.47101 0,-0.7455c0,-0.29651 0,-0.612 0,-1.28801c0,-0.35516 0,-0.72133 0,-1.09949c0,-0.39117 0,-0.79634 0,-1.21651c0,-0.43617 0.00015,-0.88933 0,-1.85066c-0.00009,-0.51001 0.00006,-1.04002 -0.00449,-1.59001c-0.00473,-0.57001 -0.0137,-1.16006 -0.03152,-1.76999c-0.0184,-0.6301 -0.0376,-1.28075 -0.13065,-2.64c-0.04858,-0.70944 -0.11545,-1.43219 -0.186,-2.16301c-0.07077,-0.73318 -0.14752,-1.46198 -0.22202,-2.181c-0.07285,-0.70299 -0.15045,-1.38319 -0.25867,-2.65599c-0.04935,-0.58034 -0.08423,-1.12518 -0.1095,-1.638c-0.0239,-0.48454 -0.03632,-0.94534 -0.04648,-1.386l-0.0062,-0.42467l-0.00314,-0.41267" id="svg_11" stroke-width="2" stroke="#000" fill="none"/>
  <path t="16031,16074,16074,16074,16082,16082,16082,16082,16082,16082,16090,16090,16090,16090,16090,16090,16090,16090,16098,16098,16098,16098,16098,16098,16098,16098,16098,16104,16104,16104,16104,16104,16104,16104,16104,16104,16112,16112,16112,16112,16112,16112,16112,16112,16112,16120,16120,16120,16120,16120,16120,16120,16120,16120,16128,16128,16128,16128,16128,16128,16128,16128,16128,16134,16134,16134,16134,16134,16134,16134,16134,16134,16142,16142,16142,16142,16142,16142,16142,16142,16142,16150,16150,16150,16150,16150,16150,16150,16150,16150,16158,16158,16158,16158,16158,16158,16158,16158,16158,16164,16164,16164,16164,16164,16164,16164,16164,16164,16172,16172,16172,16172,16172,16172,16172,16173,16173,16180,16180,16180,16180,16180,16180,16180,16181,16181,16189,16189,16189,16189,16189,16189,16189,16189,16189" d="m307,96c0.94733,2.02333 1.01489,2.89432 1.08401,3.57333c0.11932,1.17213 0.27026,2.05425 0.34131,2.53066c0.15283,1.02483 0.23163,1.57544 0.29068,2.15467c0.194,1.90354 0.20264,2.60251 0.22232,3.33083c0.02057,0.76104 0.02472,1.55637 0.01501,2.3865c-0.01013,0.86623 -0.02835,1.76985 -0.12,3.69067c-0.04865,1.01998 -0.11639,2.07749 -0.19052,3.17101c-0.07645,1.12782 -0.16275,2.2874 -0.25348,3.477c-0.0929,1.21774 -0.19238,2.4612 -0.38934,5.01867c-0.10089,1.30993 -0.20071,2.63995 -0.29999,3.99c-0.10074,1.36995 -0.20071,2.75995 -0.30002,4.17c-0.10071,1.42996 -0.20193,2.87987 -0.39999,5.84c-0.10101,1.50978 -0.20053,3.03864 -0.29999,4.58551c-0.10052,1.5638 -0.20044,3.14363 -0.30002,4.73849c-0.10043,1.6088 -0.2009,3.23061 -0.39999,6.50934c-0.10046,1.65446 -0.20001,3.31599 -0.29999,4.98149c-0.10001,1.6665 -0.19977,3.33102 -0.30002,4.99051c-0.09976,1.6515 -0.19824,3.2921 -0.39999,6.528c-0.09915,1.59006 -0.19934,3.16003 -0.29999,4.70999c-0.09933,1.53004 -0.19934,3.04005 -0.30002,4.53c-0.09933,1.47005 -0.198,2.92014 -0.39999,5.76001c-0.09885,1.38991 -0.19934,2.75862 -0.2955,4.1055c-0.09451,1.32378 -0.18582,2.62352 -0.26849,3.8985c-0.08096,1.24869 -0.16306,2.47006 -0.26935,4.82933c-0.05112,1.1349 -0.08456,2.24126 -0.1095,3.3195c-0.02429,1.0511 -0.03824,2.07631 -0.04648,3.07649c-0.00806,0.97615 -0.01001,1.92934 -0.01068,3.77068c-0.00034,0.89 0,1.75999 0,2.61c0,0.83 0,1.64 0,2.42999c0,0.77 0,1.52 0,2.96001c0,0.69 0,1.36 0,2.00999c0,0.63 0,1.24001 0,1.83c0,0.56999 0,1.12 0,2.16c0,0.49033 0,0.96266 0,1.41899c0,0.44234 0,0.87267 0,1.293c0,0.41234 0,0.81866 0,1.62134c0,0.39967 0,0.79733 0,1.19099c0,0.38768 0,0.76733 0,1.13701c0,0.35767 0,0.70132 0,1.33867c0,0.28983 0,0.55865 0,0.8055c0,0.22383 0,0.42366 0,0.5985c0,0.14883 0,0.27068 0,0.42934c0,0.03551 0,0.04401 0,0.0285c0,-0.0365 0,-0.091 0,-0.16051l0,-0.0815l0,-0.0905" id="svg_12" stroke-width="2" stroke="#000" fill="none"/>
  <path t="17621,17650,17658,17658,17658,17664,17664,17664,17664,17672,17672,17672,17672,17672,17672,17672,17680,17680,17680,17680,17680,17680,17680,17680,17689,17689,17689,17689,17689,17689,17689,17689,17695,17695,17695,17695,17695,17695,17695,17695,17695,17702,17702,17702,17702,17702,17702,17702,17702,17702,17710,17710,17711,17711,17711,17711,17711,17711,17711,17718,17718,17718,17718,17718,17718,17718,17718,17719,17724,17724,17724,17724,17724,17724,17724,17725,17725,17732,17732,17732,17733,17733,17733,17733,17733,17733,17740,17740,17740,17740,17740,17740,17741,17741,17741,17748,17748,17748,17748,17748,17749,17749,17749,17749,17754,17754,17754,17754,17754,17762,17762,17770,17770,17770,17778,17792,17800,17808,17808,17814,17814,17814,17822,17822,17830" d="m284,249c0,-0.02667 0,1.01883 0,1.85733c0,0.63068 0,1.66451 0,2.8c0,0.40517 0,1.26151 0,2.67601c0,0.50983 0,1.58548 0,2.14932c0,1.17468 0,1.78351 0,2.40533c0,1.27866 0,2.59866 0,3.27365c0,0.68503 0,1.38 0,2.08502c0,0.715 0,1.44 0,3.67517c0,0.76614 0,1.54431 0,2.33548c0,0.80518 0,1.62534 0,2.46152c0,0.85315 0,2.6145 0,3.52417c0,0.92764 0,1.87131 0,2.82898c0,0.96967 0,1.94934 0,2.93701c0,0.99365 0,2.991 0,3.99084c0,0.99881 0,1.99567 0,2.98947c0,0.98984 0,1.97467 0,2.95352c0,0.97183 -0.00052,2.8905 0.00015,3.83582c0.00067,0.93735 0.00235,1.86871 0.01053,2.79602c0.00818,0.92535 0.02188,1.85074 0.04648,2.77798c0.02472,0.93143 0.10574,2.81421 0.16418,3.76849c0.0589,0.96176 0.13025,1.92709 0.20398,2.89352c0.07361,0.96457 0.15094,1.92386 0.22202,2.87549c0.07022,0.94037 0.19009,2.77628 0.23117,3.66666c0.04016,0.871 0.06717,1.72427 0.08548,2.56052c0.01794,0.8201 0.02682,1.62534 0.03152,2.4165c0.00461,0.77817 0.00449,2.2995 0.00449,3.04449c0,0.73499 0,1.45999 0,2.17499c0,0.70502 0,1.39999 0,2.08502c0,0.67499 0,1.995 0,2.63998c0,0.63501 0,1.26001 0,1.875c0,0.60501 0,1.20001 0,1.785c0,0.57501 0,1.69501 0,2.23984c0,0.53381 0,1.05566 0,1.56448c0,0.49484 0,0.97467 0,1.43851c0,0.44684 0,1.28549 0,1.67566c0,0.37119 0,1.06052 0,1.97702c0,1.04465 0,1.94531 0,2.96616c0,0.78934 0.49963,1.66272 -0.03601,2.55334c-0.39758,0.66107 -1.56485,-0.04382 -1.84265,-0.87485c-0.22504,-0.67316 -0.27371,-1.68326 -0.54666,-2.47849c-0.27631,-0.80508 -0.51752,-1.7955 -0.57019,-2.54285l-0.00449,-1.03183" id="svg_13" stroke-width="2" stroke="#000" fill="none"/>
  <path t="18003,18040,18040,18041,18048,18048,18048,18048,18054,18054,18054,18054,18054,18062,18062,18062,18062,18062,18062,18062,18070,18070,18070,18070,18070,18070,18070,18070,18070,18078,18078,18078,18078,18078,18078,18078,18078,18078,18084,18084,18084,18084,18084,18084,18084,18084,18084,18092,18092,18092,18093,18093,18093,18093,18093,18093,18100,18100,18100,18100,18100,18100,18100,18100,18100,18108,18108,18108,18108,18108,18108,18108,18108,18109,18114,18114,18114,18114,18114,18114,18115,18115,18115,18122,18122,18122,18122,18122,18122,18123,18123,18123,18130,18130,18130,18130,18130,18130,18130,18130,18130,18139,18139,18139,18139,18139,18139,18139,18139,18139,18144,18144,18144,18144,18144,18144,18144,18144,18144,18152,18152,18152,18152,18152,18152,18152,18152,18152,18160,18160,18160,18160,18160,18160,18160,18160,18160,18182,18182,18182,18182,18182,18182,18182,18182,18182,18190,18191,18191,18191,18191,18191,18191,18198,18198" d="m293,236c0,-0.67816 0,0.0625 0,0.772c0,1.2 0,1.91066 0,2.68533c0,0.83066 -0.00153,2.16434 0.00134,2.62933c0.00589,0.96002 0.02771,1.96033 0.05582,2.47499c0.08777,1.60635 0.16153,2.16064 0.22684,2.72768c0.1358,1.17931 0.2182,1.79373 0.29068,2.42934c0.07492,0.65707 0.26379,2.78104 0.30383,3.54599c0.04147,0.7924 0.0675,1.61127 0.08548,2.45401c0.01843,0.86461 0.02689,1.74931 0.03152,2.65199c0.00473,0.91867 0.00449,2.79599 0.00449,3.75101c0,0.965 0,1.94 0,2.92499c0,0.995 0,2 0,3.01501c0,1.02499 0,3.10498 0,4.16c0,1.06497 0,2.13998 0,3.22498c0,1.095 0,2.20001 0,3.315c0,1.125 0,3.405 0,4.56c0,1.16501 0,2.34 0,3.52502c0,1.19498 0,2.39999 0,3.61499c0,1.22501 -0.00052,3.70499 0.00015,4.95984c0.00067,1.26382 0.00238,2.53564 0.01053,3.81448c0.00818,1.28485 0.02185,2.57474 0.04648,3.8685c0.02469,1.29691 0.1055,3.89569 0.16418,5.19534c0.05865,1.29901 0.13019,2.59573 0.20398,3.8895c0.07355,1.28989 0.15115,2.57458 0.22202,3.85352c0.07047,1.27173 0.19034,3.79034 0.23117,5.03531c0.04047,1.23373 0.06723,2.45563 0.08548,3.66452c0.01804,1.19479 0.02682,2.37466 0.03152,3.53848c0.00464,1.14685 0.00449,3.3855 0.00449,4.47568c0,1.07117 0,2.12433 0,3.16049c0,1.02017 0,2.02533 0,3.01651c0,0.97815 -0.00052,2.89951 0.00015,3.84418c0.00067,0.93265 0.00226,1.85135 0.01053,2.754c0.00812,0.88467 0.02142,1.74945 0.04648,2.59198c0.02435,0.81879 0.10431,2.3764 0.16418,3.11133c0.05765,0.70776 0.12906,1.38892 0.20398,2.04602c0.07248,0.63556 0.15039,1.25055 0.22202,1.84799c0.06967,0.58121 0.19016,1.70367 0.23117,2.24899c0.04022,0.5347 0.06717,1.05988 0.08548,1.57501c0.01794,0.50491 0.02682,0.99997 0.03152,1.48499c0.00461,0.47501 0.00449,1.39502 0.00449,1.83984c0,0.43384 0,0.85565 0,1.2645c0,0.39484 0,0.77466 0,1.13849c0,0.34686 0,0.9855 0,1.2757c0,0.27115 0,0.52432 0,0.7605c0,0.22015 0,0.42532 0,0.61649c0,0.17816 0,0.49951 0,0.64417c0,0.13266 0,0.25134 0,0.354c0,0.08466 0,0.14932 0,0.19199c0,0.01868 0,-0.02399 0,-0.0885c0,-0.09149 0,-0.207 0,-0.34348c0,-0.15451 0,-0.32401 -0.00015,-1.29202l-0.02069,-0.79999" id="svg_14" stroke-width="2" stroke="#000" fill="none"/>
  <path t="18333,18370,18378,18378,18384,18384,18384,18384,18384,18384,18392,18392,18392,18392,18392,18392,18400,18400,18400,18400,18400,18400,18400,18400,18408,18408,18408,18408,18408,18408,18408,18408,18408,18415,18415,18415,18415,18415,18415,18415,18415,18415,18422,18422,18422,18422,18422,18422,18423,18423,18423,18430,18431,18431,18431,18431,18431,18431,18431,18431,18439,18439,18439,18439,18439,18439,18439,18439,18439,18444,18445,18445,18445,18445,18445,18445,18445,18445,18452,18452,18452,18452,18452,18453,18453,18453,18453,18460,18461,18461,18461,18461,18461,18461,18461,18461,18468,18468,18468,18468,18468,18468,18468,18468,18469,18474,18474,18474,18474,18474,18474,18474,18474,18482,18498,18504,18504,18513,18513,18513" d="m301,251c0,-2.392 0,-1.38651 0,-0.692c0,1.192 0,1.94934 0,2.81067c0,0.46466 -0.00003,1.452 0,1.97067c0.00009,1.63234 -0.00391,2.19737 0.01068,3.35732c0.00748,0.59503 0.01065,1.20068 0.07465,2.44c0.06616,1.28088 0.13364,1.93539 0.19867,2.60135c0.06625,0.67841 0.14563,1.36887 0.29068,2.79465c0.07489,0.73596 0.1564,1.48828 0.25867,3.05069c0.05298,0.80917 0.08502,1.63721 0.1095,2.48099c0.0249,0.85757 0.03833,1.72729 0.04648,2.60699c0.00824,0.88763 0.01001,1.78134 0.01068,3.57867c0.00034,0.90033 0,1.80267 0,2.70901c0,0.91232 0,1.83264 0,2.76297c0,0.94235 -0.00015,1.89868 0,3.86136c0.00009,1.00949 -0.00015,2.03598 0.00449,3.07648c0.0047,1.05151 0.0134,2.11108 0.03152,3.17551c0.01816,1.06656 0.03464,2.13263 0.13065,4.24802c0.04745,1.04535 0.11499,2.08014 0.186,3.10498c0.07034,1.01517 0.14798,2.01996 0.22202,3.01501c0.0733,0.98492 0.15408,1.95926 0.25867,3.88c0.05145,0.94482 0.08475,1.88123 0.1095,2.80948c0.02454,0.92108 0.0383,1.8363 0.04648,2.74652c0.00815,0.90613 0.00986,1.80933 0.01068,3.61066c0.0004,0.89984 -0.00018,1.79868 0.00449,2.6955c0.00467,0.89383 0.01331,1.78372 0.03152,2.66852c0.0181,0.87888 0.03439,1.7514 0.13065,3.46933c0.04736,0.84528 0.11478,1.67886 0.186,2.50049c0.07013,0.80905 0.14758,1.60364 0.22202,2.38351c0.07291,0.76379 0.15286,1.50977 0.25867,2.94931c0.05069,0.68979 0.08456,1.36124 0.1095,2.0145c0.02429,0.63605 0.03824,1.25632 0.04648,1.86151c0.00806,0.59113 0.01001,1.16934 0.01068,2.29068c0.00034,0.54483 0,1.07864 0,1.60049c0,0.50882 0,1.00366 0,1.48349c0,0.46384 0,0.91068 0,1.74933c0,0.39001 0,0.76001 0,1.11002c0,0.32999 0,0.63998 0,0.92999c0,0.26999 0,1.479 0,2.29333c0,0.224 0,-0.47067 0,-1.42151l0,-0.81448l0,-0.8685" id="svg_15" stroke-width="2" stroke="#000" fill="none"/>
  <path t="18641,18670,18670,18678,18678,18678,18678,18684,18684,18684,18684,18684,18684,18692,18692,18692,18692,18692,18692,18692,18692,18692,18700,18700,18700,18700,18700,18700,18700,18700,18700,18709,18709,18709,18709,18709,18709,18709,18709,18709,18714,18714,18714,18714,18715,18715,18715,18715,18715,18723,18723,18723,18723,18723,18723,18723,18723,18723,18730,18730,18730,18730,18730,18730,18730,18730,18730,18739,18739,18739,18739,18739,18739,18739,18739,18739,18744,18744,18744,18744,18744,18744,18744,18744,18744,18753,18753,18753,18753,18753,18753,18753,18753,18753,18760,18761,18761,18761,18761,18761,18761,18761,18761,18768,18768,18768,18768,18768,18769,18790,18790,18798,18804,18804,18804" d="m304,247c0.97916,-1.375 0.99112,-0.59195 1.00134,0.604c0.00537,0.62804 0.02054,1.30507 0.08398,2.052c0.11139,1.31116 0.27078,2.32465 0.35068,2.87332c0.08371,0.57501 0.26959,1.79834 0.36533,2.44534c0.20099,1.35834 0.29987,2.06833 0.39868,2.79733c0.1012,0.74667 0.2009,1.51053 0.29999,2.2905c0.10095,0.79471 0.20102,1.60355 0.29999,2.42551c0.20209,1.67841 0.30048,2.53345 0.40002,3.39734c0.10043,0.87177 0.20026,1.75061 0.29999,2.6355c0.10028,0.8898 0.20013,1.78366 0.29999,2.68048c0.20026,1.79865 0.30026,2.69897 0.40002,3.60135c0.10022,0.90631 0.2005,1.8186 0.29999,2.73898c0.10056,0.93027 0.20126,1.87256 0.29999,2.82901c0.20258,1.9624 0.30069,2.97211 0.40002,3.99866c0.10068,1.04044 0.20023,2.09198 0.29999,3.15152c0.10025,1.06445 0.19965,2.13101 0.29999,3.1965c0.19928,2.11606 0.29956,3.16101 0.40002,4.19598c0.09952,1.02502 0.19949,2.04007 0.29999,3.04501c0.09952,0.99506 0.19922,1.98007 0.29999,2.95499c0.19846,1.92017 0.2995,2.86505 0.40002,3.80002c0.09946,0.92505 0.19943,1.84006 0.29999,2.745c0.09946,0.89505 0.19913,1.78009 0.29999,2.655c0.1983,1.72021 0.29944,2.56506 0.40002,3.39999c0.0994,0.82507 0.19937,1.64008 0.29999,2.44501c0.0994,0.79507 0.19904,1.58011 0.29999,2.35498c0.19809,1.52026 0.30017,2.26498 0.39868,3c0.09717,0.72498 0.1925,1.43976 0.28049,2.14502c0.08667,0.69476 0.16919,1.37943 0.2355,2.05499c0.12949,1.319 0.1676,1.96478 0.20001,2.60001c0.03186,0.62482 0.05173,1.23993 0.06448,1.845c0.01254,0.59497 0.01758,1.17999 0.0195,1.755c0.00372,1.12 0.00134,1.66483 0.00134,2.19864c0,0.52185 0,1.03067 0,1.52551c0,0.47983 0,0.94366 0,1.3905c0,0.83865 0,1.22882 0,1.60001c0,0.35315 0.00031,1.00949 0,1.60583c-0.00067,1.27548 -0.03601,2.01147 -0.5,1.88281l-0.33334,-0.91666l-0.14133,-0.81067l-0.10934,-0.87466" id="svg_16" stroke-width="2" stroke="#000" fill="none"/>
  <path t="18993,19014,19014,19014,19014,19022,19022,19022,19022,19022,19022,19030,19030,19030,19030,19030,19030,19030,19030,19039,19039,19039,19039,19039,19039,19039,19039,19039,19044,19044,19044,19044,19044,19044,19044,19044,19044,19052,19052,19052,19052,19052,19052,19052,19052,19052,19060,19060,19060,19060,19060,19060,19061,19061,19061,19068,19068,19068,19068,19068,19068,19068,19068,19068,19074,19074,19074,19074,19074,19074,19074,19074,19074,19082,19082,19082,19082,19082,19082,19082,19082,19082,19090,19090,19090,19090,19090,19090,19090,19090,19090,19098,19098,19098,19098,19098,19098,19098,19098,19098,19104,19104,19104,19104,19104,19104,19104,19104,19104,19112,19112,19112,19112,19113,19113,19113,19113,19113,19120,19120,19120,19120,19120,19120,19120,19120,19120,19134,19134,19134,19134,19134,19150,19158" d="m295,237c-1.19867,1.144 -1.49512,2.12193 -1.64282,2.93233c-0.0806,0.44217 -0.24051,1.91054 -0.27316,2.43967c-0.06851,1.11011 -0.08249,1.69057 -0.10934,2.28534c-0.05554,1.23082 -0.13733,2.50969 -0.19617,3.16434c-0.05978,0.66537 -0.21268,2.02522 -0.29935,2.72c-0.08795,0.70523 -0.18341,1.42003 -0.28049,2.14499c-0.19818,1.48007 -0.29932,2.23491 -0.39868,3c-0.10065,0.77492 -0.20059,1.55992 -0.29999,2.355c-0.10062,0.80493 -0.20087,1.6199 -0.29999,2.44501c-0.20178,1.67978 -0.30139,2.53482 -0.39868,3.39999c-0.09839,0.87482 -0.1936,1.75974 -0.28049,2.655c-0.0878,0.90472 -0.17035,1.81952 -0.2355,2.745c-0.13226,1.87909 -0.16711,2.83472 -0.20132,3.79868c-0.03448,0.97174 -0.05875,1.95068 -0.08401,2.93552c-0.02539,0.98984 -0.04773,1.9838 -0.08401,2.9805c-0.07275,1.99905 -0.13358,2.99905 -0.20132,4c-0.06793,1.00342 -0.14841,2.00952 -0.2355,3.0195c-0.08755,1.01535 -0.18301,2.03638 -0.28049,3.06448c-0.19736,2.08145 -0.29977,3.13589 -0.39734,4.19867c-0.09811,1.06854 -0.19315,2.14111 -0.28049,3.216c-0.08731,1.07449 -0.16962,2.14694 -0.2355,3.216c-0.13046,2.11664 -0.16772,3.16238 -0.20001,4.19867c-0.03201,1.02805 -0.05179,2.04929 -0.06448,3.06448c-0.01263,1.01013 -0.01758,2.01636 -0.0195,3.0195c-0.00381,2.00134 -0.00134,3.00119 -0.00134,4c0,0.99686 0,1.99066 0,2.9805c0,0.98483 0,1.96368 0,2.93552c0,1.91867 0,2.86365 0,3.79868c0,0.92499 0,1.84 0,2.745c0,0.89499 0,1.78 0,2.655c0,1.72 0,2.56482 0,3.39865c0,0.82184 0,1.63068 0,2.42551c0,0.77985 0,1.54367 0,2.2905c0,1.43866 -0.00089,2.12866 0.00134,2.79868c0.00214,0.64999 0.00659,1.28006 0.0195,1.88998c0.01251,0.59006 0.02893,1.16043 0.06448,1.71002c0.06735,1.04099 0.13174,1.53073 0.19867,2.00131c0.06454,0.4538 0.13998,0.88959 0.216,1.30951c0.07339,0.40543 0.15082,0.79572 0.216,1.1745c0.12396,0.72025 0.16605,1.06598 0.19867,1.40134c0.03159,0.32471 0.05164,0.63989 0.06448,0.94501c0.01242,0.29489 0.01758,0.57999 0.0195,0.85498c0.00363,0.52002 0.00043,0.76483 0.00269,0.99869c0.00214,0.22183 0.08398,1.116 0.71466,1.51465l0.26315,-0.86832" id="svg_17" stroke-width="2" stroke="#000" fill="none"/>
  <path t="20034,20162,20170,20178,20178,20184,20184,20192,20192,20200,20200,20200,20200,20208,20208,20208,20208,20208,20214,20214,20214,20214,20214,20222,20222,20222,20222,20222,20230,20230,20230,20230,20230,20230,20238,20238,20238,20239,20244,20244,20244,20244,20244,20244,20252,20252,20252,20252,20260,20260,20260,20260,20268,20268,20268,20274,20274,20274,20274,20282,20282,20291,20291,20298,20298,20304,20304,20304,20312,20320,20380,20402,20402,20410,20418,20424,20620,20628,20642,20642,20650,20658,20664,20664,20672,20672,20680,20688,20688,20694,20694,20702,20702,20710,20710,20724,20724,20732,20822,20844,20844,20852,20860,20868,20874,20874,20882,20882,20890,20890,20890,20898,20898,20898,20898,20904,20904,20904,20904,20912,20912,20912,20912,20912,20920,20920,20920,20920,20920,20920,20928,20928,20928,20928,20928,20928,20934,20934,20934,20934,20934,20934,20942,20942,20942,20942,20950,20950,20950,20950,20950,20958,20958,20958,20958,20964,20964,20964,20972,20972,20972,20980,20980,20989" d="m291,82c-0.87851,0.7785 -1,-0.1 -1,-1c0,-0.75716 0.06976,-1.66649 -0.08533,-2.60133c-0.13492,-0.81319 -0.5527,-1.61934 -0.74802,-2.56533c-0.16318,-0.79029 -0.16025,-1.71596 -0.16531,-2.40533c-0.00861,-1.17081 -0.00134,-2.03783 -0.00134,-2.94884c0,-0.4645 0,-1.3965 0,-2.75783c0,-0.86867 0,-1.29601 0,-2.14667c0,-0.85867 0,-2.19617 0,-3.13184c0,-0.47883 0,-1.4535 0,-2.44417c0,-0.99866 0,-1.99733 0,-2.49416c0,-0.98367 0,-1.94733 0,-2.41917c0,-1.364 0,-2.23267 0,-3.08533c0,-0.85266 0,-2.16667 0,-2.62133c0,-0.93133 0,-1.87867 0,-2.35333c0,-0.94133 0,-2.30367 0,-3.16367c0,-0.82 0,-1.6 0,-2.695c0,-1.0095 -0.00009,-1.64584 0,-2.56533c0.00009,-0.90133 -0.02054,-1.80349 0.05716,-2.70133c0.07819,-0.90326 0.29507,-1.79561 0.51752,-2.664c0.14105,-0.55074 0.39258,-1.77768 0.42084,-2.6315c0.03323,-1.00396 0.00449,-1.8045 0.00449,-2.8045c0,-0.8 0,-1.8 0,-2.58933c0,-0.72533 -0.16086,-1.70589 0.01068,-2.61067c0.17932,-0.94593 0.9043,-1.5874 0.98798,-2.4c0.09219,-0.89527 0.11319,-1.67754 0.71735,-2.284c0.3316,-0.33289 0.14871,0.55017 0.56934,1.284c0.39355,0.68656 1.1774,1.34961 2.01465,1.74733c0.86908,0.41285 1.56488,0.85539 2.35269,0.9955c0.85175,0.15148 1.86322,0.02149 2.66882,0.2785c0.91153,0.2908 1.67883,0.61015 2.46783,0.75333c1.04446,0.18955 1.66751,0.64765 2.69467,0.94133c0.6723,0.19222 1.59436,0.43169 2.31467,0.8c0.87891,0.4494 1.43085,0.99029 2.20132,1.45067c0.71948,0.42992 1.12317,1.19811 1.64734,1.886c0.47873,0.62826 0.35266,1.6045 0.35266,2.35183c0,0.9955 0,1.7955 0,2.79583c0,0.84134 0,1.57034 0,2.77033c0,0.70134 0,1.45067 0,2.232c0,1.19733 0,1.99733 0,2.79733c0,0.8 0.00394,2.00002 -0.00134,2.80133c-0.00534,0.80937 -0.01617,1.63594 -0.08398,2.484c-0.10706,1.33898 -0.19327,1.80242 -0.35068,2.76133c-0.08136,0.49559 -0.26892,1.51492 -0.36533,2.04c-0.30005,1.63441 -0.39935,2.19722 -0.59866,3.33867c-0.10034,0.57461 -0.19791,1.1497 -0.39999,2.29066c-0.19797,1.1177 -0.39981,2.19713 -0.49551,2.72233c-0.18582,1.01961 -0.28586,1.51244 -0.41916,2.475c-0.18863,1.36198 -0.23203,2.22953 -0.28534,3.06583c-0.05203,0.81638 -0.15451,2.02274 -0.28534,2.82084c-0.06573,0.40104 -0.22919,1.20147 -0.41916,2c-0.28601,1.20229 -0.49823,1.99635 -0.68484,2.77866c-0.17853,0.74842 -0.47211,2.08475 -0.5535,2.9115c-0.07114,0.7225 -0.04382,1.67669 -0.06165,2.458c-0.01804,0.79092 -0.21686,1.90884 -0.57019,2.6305l-0.40448,0.92133" id="svg_18" stroke-width="2" stroke="#000" fill="none"/>
  <path t="21392,21444,21460,21468,21474,21482,21482,21490,21490,21498,21504,21512,21572,21580,21588,21594,21594,21602,21610,21610,21618,21624,21632,21632,21648,21654" d="m309,38c1.79999,0 2.7171,0.14491 3.5,-0.02083c0.85138,-0.18024 1.65799,-0.87618 2.5,-0.95834c0.97409,-0.09505 1.79868,-0.02083 2.60001,-0.02083c0.89999,0 2.56516,-0.9551 2.77866,0c0.04373,0.19558 -0.98132,0.60798 -1.57867,1.2c-0.60266,0.59729 -1.29999,1.3 -1.89999,1.9c-0.60001,0.6 -1.23465,1.39958 -2,1.77867c-0.84677,0.41942 -1.5,0.732 -2.19998,1.41684l-0.70001,0.53783" id="svg_19" stroke-width="2" stroke="#000" fill="none"/>
  <path t="21954,22014,22030,22038,22052,22068,22120,22128,22134,22142,22150,22150,22158,22158,22164,22172,22180,22232" d="m311,52c1.79999,0 2.71979,-0.1571 3.5,0.02083c0.96201,0.21939 2.13004,0.39956 2.41333,1.26317c0.23828,0.72639 -1.21332,0.71592 -2.11334,0.716c-0.90015,0.00008 -1.69415,0.06125 -2.45267,0.35266c-0.87436,0.33591 -1.80566,0.64734 -2.34732,1.16817l-0.436,0.8685l-0.66367,0.48917" id="svg_20" stroke-width="2" stroke="#000" fill="none"/>
  <path t="22390,22458,22464,22472,22480,22480,22488,22494,22502,22502,22510,22548,22554,22562,22570,22570,22578,22584,22584,22592,22592,22600,22614,22614,22630,22638" d="m310,60c1.79999,0 2.7085,-0.09866 3.52084,0.02083c0.98785,0.14531 1.65921,0.53931 2.5925,0.89517c0.76996,0.29359 1.00449,1.29794 1.59116,1.72683c0.75946,0.55521 1.7413,1.23921 1.18118,2c-0.48462,0.65824 -1.72171,0.51869 -2.36484,0.85717c-0.82886,0.43623 -1.84216,0.5 -2.52084,0.5c-0.97849,0 -1.79868,0 -2.75717,0c-0.89551,0 -1.75882,0 -2.72198,0l-0.81635,-0.0045" id="svg_21" stroke-width="2" stroke="#000" fill="none"/>
  <path t="22974,23063,23072,23080,23088,23094,23094,23101,23101,23110,23110,23118,23123,23132,23132,23153,23162,23184,23200,23214,23222,23222,23230,23238,23244,23244,23251,23260,23260,23274,23290,23290" d="m293,32c-1.70001,0 -2.61945,-0.00166 -3.39999,0.42533c-0.82373,0.45061 -1.76666,0.57467 -2.60001,0.57467c-0.83334,0 -1.76584,0.01965 -2.65268,0.35266c-0.70639,0.26525 -1.59677,0.52205 -2.54733,0.64867c-0.80975,0.10786 -1.45438,0.79064 -2.29999,0.97783c-0.95688,0.21183 -1.65994,0.65001 -1.47916,1.52083c0.17642,0.8497 0.90628,1.58932 1.57916,2.064c0.7348,0.51836 1.52731,0.84488 2.39999,1.26933c0.65967,0.32085 1.47168,0.79586 2.32132,1.04517c0.82568,0.24229 1.79333,0.1215 2.67868,0.1215l0.79999,0" id="svg_22" stroke-width="2" stroke="#000" fill="none"/>
  <path t="23478,23530,23538,23538,23544,23544,23551,23560,23573,23589,23628,23641,23657,23657,23664,23664,23672,23679,23688,23694,23710,23710,23769" d="m288,48c-1.2215,-0.87867 -2.05106,-1.30887 -2.75717,-1.64734c-0.85034,-0.40761 -1.59015,-0.35041 -2.60684,-0.35266c-0.93597,-0.00207 -1.836,0 -2.73599,0c-0.89999,0 -1.55167,0.30564 -0.89999,1c0.48389,0.5156 1.11911,1.31136 1.79999,1.71467c0.82718,0.48997 1.51038,0.90337 2.40002,1.2c0.85764,0.28595 1.79999,0.252 2.5,0.73267l0.828,0.342" id="svg_23" stroke-width="2" stroke="#000" fill="none"/>
  <path t="23904,24001,24010,24017,24017,24023,24023,24031,24039,24047,24048,24069,24083,24091,24099,24107,24113,24114,24121,24129,24129,24129,24138,24138,24144,24144,24151,24160,24160,24167,24167" d="m283,58c1.58566,1 0.67566,0.92152 -0.16666,1.16667c-0.86179,0.25081 -1.69092,0.58862 -2.42267,0.85867c-0.84808,0.31298 -1.66431,0.76369 -2.51068,1.196c-0.6553,0.33473 -1.69257,0.70452 -1.89551,1.48317c-0.23703,0.90943 0.71164,1.1793 1.6315,1.3315c0.87167,0.14423 1.50195,0.66628 2.48001,0.87866c1.03012,0.22368 1.72,0.08533 2.48532,0.08533c0.99869,0 1.79868,0 2.79736,0c0.94415,0 1.84866,0 2.76797,0l0.83334,0l0.97849,0l0.82019,0" id="svg_24" stroke-width="2" stroke="#000" fill="none"/>
  <path t="24618,24789,24871,24909,24923" d="m297,48c-1.05267,-1.7 -1.5,-2.45833 -1.83334,-2.16667l0.74802,-0.11866" id="svg_25" stroke-width="2" stroke="#000" fill="none"/>
  <path t="25682,25771,25771,25809" d="m299,54" id="svg_26" stroke-width="2" stroke="#000" fill="none"/>
  <path t="27647,27751,27751,27849,27893" d="m305,46c1,-1 1,-1.8 1,-2.62933l0,0.92933" id="svg_27" stroke-width="2" stroke="#000" fill="none"/>
  <path t="28262,28283,28359,28427" d="m305,55" id="svg_28" stroke-width="2" stroke="#000" fill="none"/>
  <path t="28727,28853,28861,28869,28869,28877,28921,28929,28937,28943,29011,29033,29033,29041,29041,29057,29101,29109,29131" d="m294,63c0.57468,-1.6 0.83432,-2.47359 1.35718,-3.3c0.35757,-0.56517 0.61514,-2.23269 1.60681,-2.07867c0.18268,0.02837 0.03601,1.07867 0.03601,1.97866c0,0.928 -0.04517,0.23105 0.01068,-0.42533c0.08646,-1.01632 0.564,-1.764 0.96399,-2.564l0.52533,-0.569l0.48932,0.569l0.01068,0.88933" id="svg_29" stroke-width="2" stroke="#000" fill="none"/>
  <path t="29282,29393,29393,29423,29439,29439,29447,29453" d="m304,55c1.16666,-1 1.04874,-2.64449 1.97916,-2.45833c0.44989,0.09001 0.02084,1.25833 0.02084,2.15833l0,0.9" id="svg_30" stroke-width="2" stroke="#000" fill="none"/>
  <path t="29740,29911,29919,29927,29957,29971,29979,29987,29993" d="m303,74c0.57468,-1.6 0.70255,-2.45148 1.00449,-3.2955c0.27878,-0.77921 0.98483,-0.09383 0.99551,0.7955l-0.01068,0.9l-0.27332,0.8" id="svg_31" stroke-width="2" stroke="#000" fill="none"/>
  <path t="30167,30227,30227,30233,30249,30293,30309,30323,30361" d="m298,75c-1,-1 -1.19595,-1.83444 -0.94284,-2.7c0.25665,-0.87764 0.88568,-1.591 0.94284,-1.591l0,0.891l0,0.928" id="svg_32" stroke-width="2" stroke="#000" fill="none"/>
 </g>
 <g display="none">
  <title>muse_image</title>
  <image xlink:href="http://farm1.static.flickr.com/225/493218376_e099c1f15d.jpg" id="muse" height="480" width="360" y="0" x="140"/>
 </g>
 <g display="none">
  <title>bbox</title>
  <rect stroke="#f00" fill="none" stroke-width="3" height="447.36" width="185.28" y="16.32" x="221.6" id="bbox"/>
 </g>
</svg>
