<svg width="640" height="480" xmlns="http://www.w3.org/2000/svg" xmlns:svg="http://www.w3.org/2000/svg" xmlns:xlink="http://www.w3.org/1999/xlink">
 <!-- Sketchy ANNOTATION
  ImageNet ID: n02676566_5489
  URL: http://farm3.static.flickr.com/2284/2096307701_47c0c6a052.jpg
  Image Width: 334
  Image Height: 500
  BBox X: 76
  BBox Y: 48
  BBox Width: 198
  BBox Height: 436
  Exposure: 2000ms
  Synset Label: guitar
  Synset ID: n03467517
  Worker Tag: classic guitar bed
  Sanity Check: 
   Saved
  Comment: 
   {}
  Worker ID: AXD2DZ7U6CK35
  Assignment ID: 30BUDKLTXDV3YIVJX98QRIAHK3J5E5
  HIT ID: 31GN6YMHLPSWY0HR43A2HFWO14ISW8
  Work Time: 44s
  Worker Score: 0.5762
 END ANNOTATION -->
 <g display="inline">
  <title>Layer 1</title>
  <path t="0,18,18,18,25,25,25,37,54,54,54,70,70,70,87,87,104,104,104,120,120,137,137,154,154,154,170,170,187,187,204,204,220,220,237,237,254,270,270,292,336,360,370,387,387,404,420,437,437,454,470,470,487,504,661,697,721,721,745,757,773,787,804,804,820,837,854,854,870,870,887,887,904,904,920,920,937,937,937,954,954,954,970,970,970,987,987,987,1004,1004,1004,1020,1020,1021,1021,1021,1037,1037,1037,1037,1054,1054,1054,1054,1054,1070,1070,1070,1070,1087,1087,1087,1088,1104,1104,1104,1105,1105,1121,1121,1121,1121,1121,1137,1137,1137,1138,1154,1154,1154,1170,1170,1170,1170,1187,1187,1187,1187,1187,1204,1204,1205,1205,1220,1220,1220,1221,1237,1237,1237,1238,1238,1238,1254,1254,1254,1254,1270,1270,1270,1270,1287,1288,1288,1288,1288,1304,1304,1305,1305,1305,1320,1320,1320,1321,1321,1321,1339,1339,1339,1339,1339,1354,1354,1355,1355,1355,1355,1370,1370,1371,1371,1371,1387,1387,1387,1388,1405,1405,1405,1406,1406,1420,1420,1421,1421,1421,1421,1437,1437,1437,1438,1454,1454,1454,1455,1470,1470,1471,1471,1487,1487,1487,1488,1504,1504,1504,1520,1520,1521,1537,1538,1538,1538,1554,1554,1554,1555,1570,1570,1571,1571,1587,1588,1588,1604,1605,1605,1620,1621,1621,1621,1637,1637,1638,1654,1655,1655,1670,1670,1671,1687,1709,1724,1829,1853,1871,1888,1904,1904,1905,1905,1920,1921,1921,1921,1937,1938,1938,1938,1955,1955,1955,1970,1971,1988,2040,2057,2072,2073" d="m175,53c1.2,5.428 1.38692,6.12167 1.60001,6.74267c0.37703,1.09881 0.73036,1.78141 1.04283,2.59566c0.34346,0.895 0.53418,1.82449 0.7825,2.50833c0.30338,0.83549 0.49066,1.83733 0.57466,2.65334c0.084,0.816 0.24562,1.83048 0.61067,2.68933c0.35179,0.82765 0.81912,1.59514 1.03217,2.21067c0.33907,0.97962 0.31223,1.81638 0.57849,2.8c0.22136,0.81772 0.65964,1.79366 0.74268,2.60001c0.08202,0.79653 0.03546,1.8 0.036,2.6c0.00067,0.99866 -0.08704,1.80488 0.284,2.716c0.27647,0.67892 0.68297,1.53986 0.7115,2.28851c0.03787,0.99346 -0.04755,1.98187 0.35716,2.83833c0.38316,0.81087 0.28236,1.66816 0.7045,2.39999c0.46788,0.81113 1.22484,1.31445 2.04285,1.35717c0.89877,0.04694 1.75471,0.01022 2.5,0.61066c0.65419,0.52705 1.42917,1.1452 2.09999,1.442c0.84766,0.37505 1.42363,1.25118 2.10001,1.662c0.77614,0.47141 1.5697,0.71444 2.07849,1.50683c0.47917,0.74627 -0.04666,1.81494 0.20683,2.57851c0.25635,0.77216 0.89667,1.59946 0.91467,2.5c0.01799,0.89981 -0.14651,1.83404 0.08533,2.5c0.30832,0.88565 0.89667,1.61013 0.91467,2.52133c0.01686,0.85316 -0.08778,1.80973 0.08533,2.56267c0.22652,0.98519 0.69138,1.70464 0.82935,2.516c0.13469,0.7921 0.08533,1.8 0.08533,2.6c0,1 -0.03772,1.81615 0.08533,2.68533c0.14291,1.00948 0.43111,1.8316 0.56201,2.41917c0.26477,1.18838 0.29739,2.0881 0.40533,2.93833c0.13217,1.04112 0.40068,1.72329 0.59467,2.40984c0.27092,0.95885 0.31725,1.80553 0.40533,2.76616c0.10229,1.11563 0.2287,1.94984 0.30449,2.38651c0.15553,0.89612 0.3297,1.79356 0.64284,3.06134c0.18938,0.76669 0.40001,1.472 0.60001,2.14799c0.40001,1.35201 0.6088,2.06816 0.78932,2.82133c0.18509,0.77223 0.35529,1.56161 0.48933,2.76382c0.0885,0.7937 0.10786,1.5804 0.17401,2.343c0.09474,1.09235 0.21332,1.77802 0.46815,2.75717c0.17078,0.65616 0.48409,1.66533 0.67917,2.38667c0.20517,0.75862 0.40536,1.55875 0.60001,2.39999c0.30832,1.33257 0.49821,2.26097 0.58932,2.728c0.18005,0.92296 0.34927,1.81305 0.48933,3.04234c0.08286,0.72717 0.08542,1.40523 0.20534,2.34033c0.15511,1.2095 0.33974,1.80641 0.6205,2.70267c0.28317,0.90395 0.60095,1.8073 0.7955,2.44167c0.20576,0.67093 0.50874,1.78963 0.69867,2.62633c0.19989,0.88062 0.37125,1.78033 0.44417,2.22667c0.20738,1.26936 0.30077,2.3913 0.35716,3.06366c0.0788,0.93947 0.20917,1.84511 0.436,2.77367c0.1657,0.67827 0.37999,1.42075 0.664,2.73201c0.10545,0.48685 0.29971,1.51204 0.39999,2.036c0.19945,1.04211 0.27725,1.55312 0.60001,2.93567c0.18687,0.80051 0.40227,1.52199 0.7,2.54567c0.30232,1.03949 0.5024,1.77521 0.7,2.53949c0.20245,0.78305 0.5,1.97917 0.7,2.77917c0.2,0.8 0.40004,1.59999 0.60001,2.39999c0.30003,1.20032 0.40355,1.60182 0.59999,2.42134c0.2037,0.84979 0.4061,1.74808 0.60001,2.71199c0.20789,1.03337 0.29817,1.57327 0.52083,2.66667c0.112,0.54999 0.33743,1.63974 0.64584,2.66667c0.2919,0.97198 0.48253,1.42485 0.83333,2.3125c0.34395,0.87033 0.84074,2.1852 0.9785,2.64217c0.27943,0.92691 0.50287,1.87816 0.61084,2.35333c0.21367,0.94035 0.50742,2.30447 0.612,2.73866c0.20271,0.84161 0.40767,1.6494 0.68399,2.39999c0.39767,1.08023 0.94476,2.05881 1.28934,2.71201c0.34613,0.65616 0.81862,1.69139 1.07266,2.44083c0.2682,0.79124 0.50375,1.65314 0.63667,2.10583c0.43219,1.47202 0.59711,1.99559 0.94133,3.06801c0.17322,0.53964 0.34811,1.07375 0.69067,2.10666c0.46085,1.38956 0.73018,2.18526 0.96317,2.91167c0.21948,0.68433 0.52383,1.7075 0.72083,2.42567c0.20311,0.74049 0.38699,1.49429 0.8,2.94933c0.19389,0.68309 0.39595,1.33199 0.7,2.26218c0.29607,0.90579 0.60001,1.80449 0.8,2.4045c0.3,0.89999 0.59435,1.80176 0.89999,2.68933c0.29457,0.85539 0.59306,1.64699 1,2.58534c0.29498,0.68019 0.71117,1.64302 1,2.472c0.20808,0.59724 0.41071,1.23697 0.8,2.63733c0.20566,0.73978 0.39574,1.49182 0.60001,2.23199c0.2937,1.06421 0.51163,1.72241 0.76399,2.67334c0.16101,0.60669 0.34976,1.80954 0.436,2.68982c0.08188,0.83572 0.2951,1.83627 0.5,2.5625c0.22844,0.8096 0.39349,1.82129 0.44284,2.61633c0.05222,0.84119 0.0549,1.68402 0.05716,2.84201c0.00125,0.64532 0,1.70401 0,2.66666c0,0.78601 0,1.608 0,2.66669c0,0.70499 -0.00247,1.505 0,2.53067c0.00226,0.93149 0.36028,1.68369 1.02533,2.21066c0.62622,0.49622 1.57802,0.48944 2.39601,0.41464c0.92139,-0.08426 1.59749,-0.3465 2.43599,-0.59998c0.63068,-0.19067 2.02641,-0.59033 2.76801,-0.78934c0.74907,-0.20099 1.49239,-0.39395 2.55316,-0.69983c0.66544,-0.19189 1.60548,-0.48782 2.22017,-0.61484c1.19138,-0.24619 2.08034,-0.27368 2.916,-0.284c0.9986,-0.01233 1.83867,-0.00134 2.8,-0.00134c0.88533,0 1.76382,-0.2215 1.88533,-1.10016l0,-0.78519" id="svg_1" stroke-width="2" stroke="#000" fill="none"/>
  <path t="3622,3645,3645,3645,3721,3737,3757,3772,3787,3787,3804,3804,3820,3820,3837,3854,3854,3854,3870,3870,3887,3904,3904,3904,3920,3920,3952,3985,4012,4073,4081,4097,4117,4125,4141,4169,4169,4189,4189,4206,4206,4206,4223,4223,4223,4239,4240,4240,4240,4257,4257,4257,4257,4270,4270,4270,4287,4287,4287,4304,4304,4305,4320,4320,4321,4321,4337,4337,4338,4338,4354,4354,4354,4370,4370,4371,4387,4388,4388,4405,4405,4421,4421,4421,4437,4454,4470,4500,4532,4568,4588,4589,4604,4620,4638,4638,4654,4654,4785,4786,4801,5094,5094,5117,5145,5161,5171,5188,5204,5204,5221,5221,5238,5238,5238,5254,5254,5254,5271,5271,5271,5288,5288,5289,5304,5304,5305,5321,5321,5321,5321,5338,5338,5338,5338,5354,5354,5354,5355,5371,5371,5371,5388,5388,5388,5388,5405,5405,5405,5405,5405,5421,5421,5421,5421,5438,5438,5438,5438,5454,5454,5454,5455,5455,5455,5471,5471,5471,5471,5488,5488,5489,5489,5489,5504,5504,5505,5521,5521,5522,5522,5538,5538,5538,5538,5539,5539,5554,5554,5554,5554,5571,5572,5572,5572,5587,5587,5587,5587,5587,5617,5617,5617,5617,5623,5623,5623,5623,5623,5637,5637,5637,5637,5637,5638,5638,5653,5653,5654,5654,5654,5654,5671,5671,5671,5671,5671,5672,5687,5688,5688,5688,5688,5688,5688,5703,5703,5703,5703,5703,5720,5720,5720,5720,5720,5737,5737,5737,5737,5753,5753,5753,5753,5753,5754,5770,5770,5770,5770,5787,5787,5788,5788,5803,5803,5804,5820,5820,5820,5821,5837,5837,5837,5837,5837,5853,5853,5853,5853,5870,5870,5870,5887,5887,5888,5903,5903,5903,5920,5920,5920,5920,5937,5937,5956,5956,5976,6001,6020,6020,6044,6068,6112,6148,6165,6174,6188" d="m174,53c-1.09984,-7.47083 -1.28485,-8.25595 -1.564,-9.1c-0.33655,-1.01765 -0.08029,-1.8714 0.76399,-1.9c0.89949,-0.03047 1.8,0 2.55717,0c0.89999,0 1.84416,0 2.83833,0c0.74733,0 1.67229,0.08533 2.57117,-0.16667c0.88286,-0.24751 1.41945,-0.63135 2.42883,-0.77617c0.91151,-0.13078 1.93336,-0.03868 2.73782,-0.22383c0.92883,-0.21378 1.64772,-0.53928 2.52367,-0.71183c0.93011,-0.18323 1.843,-0.1215 2.74301,-0.1215c0.89999,0 1.83482,-0.24287 2.6955,0.0045c0.7679,0.22071 1.11903,1.07957 1.75717,1.64283c0.5954,0.52553 1.11067,1.355 1.558,1.98867c0.48573,0.68806 0.89789,1.38051 1.38933,2.364c0.30077,0.6019 0.6962,1.44565 0.87883,2.4215c0.15111,0.80742 0.16382,1.7025 0.4545,2.5785c0.30725,0.92593 0.69441,1.49623 1.01851,2.1c0.64024,1.19272 0.92094,1.78868 1.20149,2.7c0.18271,0.59348 0.36514,1.79977 0.44667,2.7c0.05432,0.59985 0.1956,1.80648 0.436,2.68933c0.15781,0.57952 0.56238,1.64468 0.864,2.3625c0.2984,0.71017 0.70743,1.77921 0.89999,2.4175c0.20805,0.68962 0.49165,1.78485 0.8,2.86401c0.19473,0.68153 0.38225,1.32622 0.7,2.20499c0.379,1.04817 0.70848,1.73264 1,2.41434c0.41206,0.9636 0.69176,1.77573 1,2.59467c0.38962,1.03513 0.6933,1.71991 1.10001,2.55133c0.39354,0.80453 0.79565,1.60352 1.2,2.40134c0.39574,0.78083 0.95711,1.2588 1.64284,2.04816c0.48863,0.56248 0.35521,1.57144 0.7825,2.35184c0.45038,0.82256 0.57466,1.7 0.57466,2.6c0,0.8 0.11528,1.7116 -0.036,2.636c-0.14275,0.87229 -0.53065,1.56717 -1.06401,2.34267c-0.46321,0.67351 -1.1441,1.48315 -1.46399,2.196c-0.41075,0.91535 -0.436,1.82533 -0.436,2.62534c0,0.89999 0,1.8 0,2.7c0,0.9 -0.07848,1.82433 0.16667,2.66666c0.25081,0.86177 0.67043,1.6658 0.85866,2.49467c0.20001,0.88077 0.42833,1.60367 0.62201,2.44767c0.27132,1.18237 0.28183,1.78832 0.37799,2.655c0.11894,1.07206 0.3022,1.79151 0.67917,2.6315c0.3671,0.81802 0.81004,1.61896 1.0955,2.28983c0.42169,0.99105 0.70212,1.83478 0.89999,2.41917c0.40436,1.1942 0.60597,1.7981 0.90001,2.7315c0.20415,0.64805 0.502,1.68479 0.7,2.41667c0.20203,0.74678 0.38579,1.4987 0.8,2.92583c0.19339,0.66629 0.39726,1.30156 0.7,2.22017c0.29733,0.90222 0.59999,1.80133 0.8,2.40134c0.40001,1.2 0.59668,1.80426 0.92082,2.74167c0.233,0.67383 0.64346,1.79257 0.96317,2.62633c0.33882,0.88364 0.5184,1.33107 0.86334,2.22667c0.4894,1.27069 0.77061,2.03351 1.01666,2.73334c0.22839,0.6496 0.63486,1.87238 0.83734,2.47466c0.20813,0.61906 0.54807,1.61455 0.96533,2.73067c0.31287,0.83687 0.48199,1.27551 0.85416,2.16667c0.37514,0.89828 0.55577,1.34439 1.179,2.55716c0.38072,0.74088 0.79588,1.41328 1.14301,2.091c0.51535,1.00616 0.78384,1.7319 1.02116,2.47717c0.23743,0.74559 0.42116,1.49461 0.836,2.88933c0.19371,0.65125 0.49866,1.58128 0.8,2.48534c0.30315,0.90945 0.51648,1.54321 0.75717,2.21434c0.40225,1.12161 0.7278,1.95461 1.06816,2.847c0.17517,0.45929 0.52667,1.38882 0.69067,1.85599c0.47612,1.35631 0.73096,2.21983 0.96317,3.041c0.22025,0.7789 0.51709,1.8761 0.72083,2.55768c0.29462,0.98563 0.50824,1.63426 0.8,2.65067c0.20583,0.71701 0.4019,1.46884 0.60001,2.24399c0.20195,0.79019 0.5,1.98933 0.7,2.78934c0.2,0.8 0.39952,1.60013 0.7,2.8c0.20102,0.80275 0.40707,1.6223 0.636,2.472c0.11931,0.44284 0.52905,1.86182 0.68533,2.37083c0.32793,1.06805 0.50529,1.6181 0.67867,2.17799c0.34996,1.1302 0.535,1.69133 0.9785,3.35767c0.14229,0.53459 0.38814,1.58493 0.50067,2.10068c0.22151,1.01521 0.32066,1.51927 0.62083,3.02116c0.10039,0.50226 0.30144,1.52072 0.39999,2.04134c0.20297,1.0721 0.30559,1.62805 0.5,2.79166c0.2059,1.23236 0.3,1.86751 0.39999,2.50667c0.10001,0.63918 0.29727,1.89796 0.40001,2.50667c0.19481,1.15422 0.39215,2.19904 0.59999,3.14534c0.19275,0.87762 0.29936,1.29465 0.60001,2.508c0.19824,0.80011 0.40086,1.59758 0.564,2.39999c0.16217,0.79774 0.32301,1.9995 0.38333,2.8045c0.06113,0.81573 0.078,1.65533 0.21935,2.96217c0.09947,0.9196 0.18082,1.38773 0.35416,2.33333c0.17398,0.94916 0.27188,1.41792 0.57918,2.77834c0.19455,0.86125 0.3936,1.68166 0.59999,2.45999c0.291,1.09743 0.50514,1.77448 0.68933,2.42567c0.26276,0.92894 0.49759,2.13512 0.558,2.73599c0.09036,0.89885 0.20393,2.10324 0.33801,2.70267c0.21133,0.94475 0.43289,1.60814 0.71466,2.73067c0.20888,0.83217 0.39302,1.71661 0.47917,2.16667c0.17101,0.8933 0.36302,2.16576 0.43683,2.92799c0.06668,0.68861 0.06726,1.61943 0.30533,2.65067c0.21651,0.9379 0.54228,1.597 0.69467,2.60535c0.12257,0.8111 0.10605,1.64647 0.36934,2.63333c0.19124,0.71678 0.53769,1.44499 0.91466,2.65065c0.21228,0.67896 0.3875,1.38513 0.60001,2.06403c0.37662,1.20313 0.7963,1.86783 1.07849,2.94647c0.20981,0.80197 0.43599,1.40866 0.95483,2.18817c0.47087,0.70746 0.16667,1.63333 0.16667,2.53336c0,0.89999 0,1.79999 0,2.69998l0,0.89999l-0.00133,0.89868l-0.35133,0.74866" id="svg_2" stroke-width="2" stroke="#000" fill="none"/>
  <path t="7562,7597,7614,7637,7656,7656,7673,7688,7704,7721,7721,7738,7738,7754,7754,7771,7771,7771,7788,7788,7788,7788,7804,7804,7821,7821,7838,7838,7838,7838,7854,7854,7871,7888,7905,7921,7921,7938,7938,7938,7954,7971,7971,7988,7988,7988,8004,8004,8021,8021,8021,8038,8038,8038,8054,8054,8071,8071,8071,8088,8088,8088,8104,8104,8121,8121,8121,8138,8138,8154,8154,8170,8170,8170,8188,8189,8189,8204,8204,8220,8237,8237,8253,8253,8270,8288,8303,8320,8320,8337,8353,8370,8387,8387,8403,8420,8420,8437,8437,8453,8470,8487,8487,8503,8520,8537,8537,8553,8570,8570,8587,8587,8603,8603,8620,8637,8637,8637,8653,8653,8670,8670,8670,8687,8687,8687,8703,8703,8720,8720,8737,8737,8737,8753,8753,8753,8770,8770,8770,8787,8787,8804,8804,8820,8820,8820,8837,8837,8837,8853,8853,8870,8870,8870,8887,8888,8903,8903,8920,8920,8920,8921,8937,8937,8937,8953,8953,8954,8970,8970,8970,8971,8987,8987,8987,8987,9003,9003,9003,9020,9020,9021,9037,9037,9037,9053,9053,9053,9070,9070,9070,9087,9087,9087,9103,9103,9103,9120,9120,9120,9120,9136,9137,9137,9137,9153,9153,9153,9153,9170,9170,9170,9187,9187,9187,9202,9203,9203,9203,9220,9220,9220,9237,9237,9237,9237,9237,9253,9253,9253,9270,9270,9270,9287,9287,9287,9303,9303,9303,9303,9320,9320,9320,9337,9337,9337,9353,9353,9353,9353,9370,9370,9387,9387,9403,9403,9420,9420,9420,9437,9437,9437,9453,9453,9470,9470,9470,9487,9487,9487,9503,9503,9503,9520,9520,9520,9520,9537,9537,9537,9553,9553,9553,9570,9570,9587,9587,9587,9587,9603,9603,9620,9620,9637,9637,9637,9653,9653,9653,9653,9670,9670,9687,9687,9687,9703,9703,9720,9720,9720,9737,9737,9737,9753,9753,9754,9771,9771,9771,9788,9788,9788,9803,9803,9803,9821,9822,9822,9822,9838,9838,9838,9839,9854,9854,9854,9871,9871,9871,9872,9888,9888,9888,9904,9904,9904,9904,9920,9920,9920,9938,9938,9938,9938,9954,9954,9954,9954,9973,9973,9987,9987,9987,10003,10003,10003,10021,10021,10021,10021,10039,10039,10039,10039,10054,10054,10054,10070,10070,10070,10088,10089,10089,10103,10103,10121,10121,10121,10138,10138,10138,10138,10154,10154,10154,10154,10171,10171,10171,10188,10188,10188,10189,10204,10204,10204,10221,10221,10221,10238,10238,10239,10239,10254,10254,10255,10255,10270,10270,10270,10288,10288,10304,10372,10387,10404" d="m221,223c-2.58934,0.98933 -3.53476,0.94704 -4.3,1.35266c-0.84595,0.44841 -1.47954,0.76639 -2.3,1.222c-0.78195,0.43422 -1.52274,0.84369 -2.39999,1.25867c-0.7126,0.33708 -1.66185,0.51393 -2.4045,0.87117c-0.80052,0.38507 -1.64964,0.72763 -2.42883,1.46217c-0.46916,0.44229 -0.92891,1.28447 -1.7095,2.03316c-0.44174,0.42369 -1.2355,0.97504 -1.77451,1.31483c-0.98363,0.62009 -1.67781,0.9077 -2.6615,1.58551c-0.56496,0.38928 -1.35112,1.0712 -2.0265,1.55249c-0.49223,0.35077 -1.23103,0.8576 -2.18033,1.58566c-0.61452,0.4713 -1.44737,0.82021 -1.89833,1.563c-0.42761,0.70435 -1.11734,1.40001 -1.67317,1.95584c-0.72682,0.72682 -1.24283,1.24283 -1.75883,1.75883c-0.84799,0.84799 -1.5166,1.45454 -1.98399,2.00482c-0.64778,0.76268 -0.99384,1.51785 -1.38533,2.08051c-0.71933,1.03378 -1.32596,1.56987 -1.948,2.39867c-0.43605,0.58099 -0.76027,1.19783 -1.26668,2.2c-0.4034,0.79829 -0.71973,1.39047 -1.1955,2.40001c-0.28023,0.5946 -0.56346,1.60385 -0.72533,2.42084c-0.13232,0.66791 -0.54433,1.66464 -0.97917,2.47916c-0.29276,0.54837 -0.7843,1.57224 -0.97917,2.47916c-0.21805,1.01477 -0.47435,1.81116 -0.66817,2.42084c-0.3136,0.98648 -0.34732,1.79999 -0.35266,2.80017c-0.00438,0.82068 0,1.96649 0,2.7525c0,0.82199 0,1.88068 0,2.59018c0,0.85266 0,1.85583 0,2.62115c0,0.95065 0,1.93616 0,2.72134c0,0.94 0,1.63065 0,2.70398c0,0.91068 -0.13531,1.87686 0.28534,2.61069c0.39354,0.68655 1.3886,1.2153 1.6575,2.09998c0.2623,0.86295 0.18065,1.73541 0.76166,2.40002c0.55638,0.63641 1.29584,1.29965 1.89551,1.89999c0.599,0.59967 1.03937,1.23196 1.45267,2.10001c0.39847,0.83688 1.04964,1.39771 1.64732,2c0.692,0.69733 1.03586,1.45895 1.46667,2.29999c0.3403,0.66434 1.13333,1.29999 1.83333,2c0.5,0.5 1.24179,1.16641 1.7,1.75717c0.6591,0.84979 0.91481,1.60028 1.25183,2.49017c0.35252,0.93082 0.80765,1.37015 1.34283,2.15717c0.51743,0.76093 0.61728,1.61047 0.87201,2.59549c0.21387,0.82703 0.5589,1.44879 0.93317,2.42133c0.30692,0.79752 0.58627,1.61707 0.77882,2.65701c0.12411,0.67038 0.30952,1.745 0.62134,2.4425c0.3584,0.80176 0.47801,1.74005 0.4955,2.53098c0.02269,1.02661 0.0045,1.72284 0.0045,2.63217c0,1 0,1.81601 0,2.63202c0,0.99866 0,1.87332 0,2.884c0,0.79999 0,1.79999 0,2.61066c0,0.64648 0,1.87332 0,2.68933c0,0.81601 0.03603,1.8168 -0.02083,2.47916c-0.08818,1.02744 -0.45348,1.80469 -0.69518,2.62085c-0.29144,0.98416 -0.28273,1.814 -0.56799,2.80133c-0.18211,0.63031 -0.57837,1.76184 -0.65884,2.55582c-0.05696,0.56198 -0.05649,1.44418 -0.05716,2.64285c-0.00034,0.60001 0,1.5 0,2.69998c0,0.60001 0,1.5 0,2.70001c0,0.60132 0,1.52084 0,2.48532c0,1.03601 0,1.76733 0,2.51468c0,0.74734 0,2.17834 0,2.83835c0,0.91498 0,1.995 0,2.70898c0,0.67801 0,1.87418 0,2.68866c0,0.57468 0,1.76401 0,2.65952c0,0.8685 -0.01431,1.93808 0.0045,2.65182c0.01788,0.6785 0.1981,1.87927 0.4315,2.67801c0.16167,0.55328 0.57333,1.60422 0.8595,2.32199c0.35912,0.90073 0.5972,1.87302 0.67917,2.70999c0.06116,0.62439 0.08926,1.3172 0.24666,2.48535c0.11652,0.86481 0.28674,1.75604 0.42601,2.65198c0.19745,1.27026 0.26866,2.03336 0.32733,2.72269c0.078,0.9165 0.23579,1.9646 0.45067,2.65732c0.21136,0.6814 0.46465,1.6456 0.54933,2.46133c0.09006,0.86734 0.23122,2.06775 0.38249,2.664c0.22993,0.90631 0.44614,1.49936 0.84283,2.70132c0.201,0.60901 0.50858,1.55334 0.8,2.56534c0.20607,0.71564 0.399,1.45895 0.60001,2.20801c0.19901,0.74161 0.59235,2.14111 0.79999,2.77866c0.28938,0.88855 0.59306,1.68301 1,2.62134c0.29498,0.68021 0.70734,1.6442 1,2.46133c0.20517,0.57285 0.60001,1.76401 0.8,2.36401c0.3,0.89999 0.49873,1.50043 0.90001,2.69983c0.19937,0.59589 0.47595,1.47348 0.89999,2.53351c0.2883,0.72067 0.61902,1.40176 1.16667,2.33331c0.46716,0.79462 0.86389,1.30695 1.26399,2.14935c0.461,0.97064 0.45813,1.87952 0.79083,2.66266c0.35674,0.83969 0.99158,1.4996 1.37851,2.23199c0.51784,0.98022 0.76857,1.61584 1.28532,2.38934c0.55505,0.83084 1.13498,1.38312 1.63068,2c0.62636,0.77951 0.93436,1.43494 1.65067,2.39999c0.45981,0.61951 1.01285,1.20258 1.83333,1.83334c0.575,0.44205 1.41339,0.85141 2.11734,1.65332c0.45267,0.51566 0.82559,1.22141 1.42549,1.93451c0.6891,0.81915 1.22556,1.33649 1.77451,1.80948c0.96861,0.83456 1.67558,1.22815 2.28133,1.65201c0.82086,0.5744 1.38399,1.13821 2.00134,1.63333c0.78032,0.62579 1.62486,1.09952 2.56667,1.48401c0.77742,0.31738 1.32321,0.51758 2.14932,0.71466c1.21461,0.28976 1.89,0.23868 2.884,0.50668c0.81793,0.22055 1.79396,0.65829 2.62134,0.74265c0.69014,0.07037 1.82133,0.03601 2.48399,0.03601c1.04401,0 1.72667,0 2.92401,0c0.72899,0 1.77066,0 2.57066,0c0.8,0 1.8045,0 2.65717,0c0.96432,0 1.77882,0 2.64734,0c0.89549,0 1.79099,0 2.6595,0c1.06934,0 1.78333,0 2.68866,0c0.96866,0 1.77267,-0.00006 2.59467,0c1.03134,0.00009 1.73303,-0.04086 2.63666,0.08533c1.01236,0.14139 1.85416,0.43033 2.47766,0.56201c1,0.21121 2.09073,0.311 2.83835,0.311c0.74762,0 1.83649,-0.10809 2.51468,-0.24234c0.96954,-0.19193 1.5712,-0.42075 2.78531,-0.59451c0.89496,-0.12808 1.49997,-0.11615 2.70001,-0.12149c0.89999,-0.004 1.5,0.00049 2.39999,0c1.20132,-0.00067 1.81244,0.01721 2.75717,-0.05716c1.01227,-0.07968 1.72641,-0.22214 2.45749,-0.36816c1.0769,-0.21509 2.04868,-0.4371 2.88,-0.51752c0.75391,-0.07294 1.83878,-0.04816 2.81519,-0.06165c0.71112,-0.00983 1.44739,-0.00839 2.5235,-0.16217c1.01178,-0.14459 1.61981,-0.35504 2.47998,-0.54935c0.99731,-0.22528 1.91873,-0.27023 2.85333,-0.45065c0.79309,-0.15311 1.59836,-0.45126 2.66669,-0.66669c0.70877,-0.14291 1.40375,-0.13034 2.58832,-0.38834c0.83554,-0.18198 1.42981,-0.41257 2.065,-0.66498c1.04279,-0.4144 1.7634,-0.76205 2.49249,-1.11334c0.71286,-0.34348 1.97784,-0.97852 2.74884,-1.36401c0.66299,-0.33151 1.46637,-0.74811 2.29285,-1.13599c0.66,-0.30975 1.65637,-0.71921 2.47916,-0.97916c0.80984,-0.25586 1.81628,-0.42487 2.47916,-0.52084c1.02368,-0.14822 1.83789,-0.4473 2.53519,-0.7045c1.12189,-0.41379 1.7948,-0.59802 2.5065,-0.7955c0.73026,-0.20264 1.81586,-0.48898 2.8175,-0.79999c0.62216,-0.19318 1.47983,-0.48804 2.47897,-0.90002c0.70706,-0.29156 1.44559,-0.61945 2.3255,-0.89999c1.0116,-0.32254 1.74341,-0.49677 2.47452,-0.69998c1.06232,-0.29532 1.72684,-0.48273 2.63599,-0.80002c1.0874,-0.37949 1.80402,-0.68478 2.47202,-1.03598c0.95645,-0.50287 1.73135,-1.02512 2.31631,-1.36401c0.6149,-0.35626 1.61871,-0.84988 2.341,-1.11465c0.72607,-0.26614 1.81552,-0.55624 2.784,-0.88535c0.82184,-0.2793 1.50455,-0.55515 2.31183,-1.09982c0.74557,-0.50305 1.52151,-0.87933 2.47986,-0.90018l-0.37433,-0.284l-0.44119,-0.66785" id="svg_3" stroke-width="2" stroke="#000" fill="none"/>
  <path t="11601,11717,11730,11753,11772,11789,11789,11805,11805,11822,11839,11854,11854,11871,11871,11888,11888,11888,11904,11904,11904,11921,11921,11938,11938,11954,11954,11971,11971,11988,11988,11988,12004,12004,12004,12021,12021,12038,12038,12054,12054,12054,12071,12071,12088,12088,12104,12104,12121,12138,12154,12155,12171,12172,12187,12187,12203,12203,12203,12220,12220,12220,12238,12238,12238,12253,12253,12270,12270,12287,12287,12287,12303,12303,12320,12320,12320,12337,12337,12353,12370,12370,12441,12472,12490,12506,12506,12593,12625,12640,12656,12673,12673,12690,12690,12704,12704,12720,12738,12738,12754,12754,12771,12788,12788,12804,12804,12821,12838,12838,12854,12854,12871,12871,12888,12888,12904,12921,12921,12938,12954,12954,12971,12971,12988,12988,13004,13004,13004,13021,13021,13038,13038,13054,13054,13071,13071,13071,13088,13088,13104,13121,13121,13121,13121,13137,13137,13137,13154,13154,13170,13171,13171,13186,13187,13187,13187,13204,13204,13204,13221,13221,13221,13237,13237,13237,13253,13254,13254,13271,13271,13271,13286,13287,13287,13304,13304,13321,13321,13321,13337,13337,13337,13354,13354,13354,13371,13371,13371,13371,13387,13387,13387,13404,13404,13404,13421,13421,13421,13421,13437,13437,13437,13437,13454,13454,13454,13454,13471,13471,13471,13487,13487,13487,13487,13487,13503,13504,13504,13504,13521,13521,13521,13521,13537,13537,13537,13537,13537,13554,13554,13554,13571,13571,13571,13571,13571,13587,13587,13587,13587,13604,13604,13604,13621,13621,13621,13621,13636,13637,13637,13637,13653,13654,13654,13654,13673,13673,13673,13673,13686,13687,13687,13705,13705,13705,13705,13720,13720,13721,13721,13721,13738,13738,13738,13738,13755,13755,13755,13756,13770,13771,13771,13771,13788,13788,13788,13789,13803,13803,13804,13804,13820,13821,13821,13838,13838,13839,13853,13853,13854,13870,13871,13886,13886,13904,13904,13921,13921,13936,13936,13955,13955,13971,13971,13971,13987,13987,14004,14021,14021,14037,14037,14054,14054,14071,14089,14089,14089,14103" d="m247,222c1.8,0 2.61987,-0.00241 3.39999,0.42534c0.82291,0.4512 1.69139,0.80833 2.35718,1.27916c0.71761,0.50748 1.43112,0.82509 2.35616,1.2115c0.81581,0.34079 1.01369,1.26831 1.32268,1.90933c0.50153,1.04048 1.00351,1.52089 1.564,2.34134c0.44296,0.64841 0.86591,1.44957 1.48267,2.23332c0.4816,0.61201 1.06219,1.15488 1.4075,2.19551c0.24057,0.72498 0.47995,1.64297 0.91116,2.2885c0.5097,0.76302 0.90771,1.50465 1.11465,2.51599c0.16187,0.79105 0.28525,1.80785 0.60486,2.62083c0.26392,0.67126 0.67139,1.66481 0.97916,2.45834c0.2926,0.75439 0.70456,1.54836 1.20001,2.269c0.50464,0.73399 0.89175,1.46669 1.40015,2.45166c0.3056,0.59207 0.72229,1.38744 1.55252,2.043c0.65073,0.51381 1.39529,1.07542 2.23132,1.47183c0.72568,0.34409 1.65918,0.30832 2.48001,0.71068c0.87082,0.42686 1.80649,0.63632 2.63599,0.55383c0.84186,-0.08372 1.59207,-0.65398 2.48532,-0.89517c0.70816,-0.19121 1.73315,-0.26221 2.53552,-0.62567c0.68201,-0.30894 1.66382,-0.94128 2.2045,-1.28366c0.54999,-0.34827 1.60165,-1.0192 2.3175,-1.4175c0.64096,-0.35663 1.64597,-0.88054 2.43631,-1.23634c0.8432,-0.37959 1.69153,-0.51225 2.50616,-1.09016c0.57129,-0.40527 1.0853,-0.99142 1.91467,-1.54533c0.77359,-0.51665 1.60001,-0.88533 2.39999,-1.28532c0.80002,-0.40001 1.58292,-0.83376 2.36401,-1.164c0.93372,-0.39476 1.80267,-0.6566 2.436,-1.01067c0.86127,-0.48151 1.80814,-0.30885 2.69998,-0.42984c0.82135,-0.11142 1.46686,-0.84135 2.30002,-0.98483c0.88699,-0.15276 1.80411,-0.09238 2.7045,-0.00616c0.87329,0.0836 1.67386,0.55574 2.52884,0.82883c0.77631,0.24796 1.63837,0.48137 2.51398,0.81401c0.88422,0.33591 1.67957,0.66722 2.15268,1.37349c0.53094,0.79262 0.95761,1.51479 1.79999,1.9265c0.86417,0.42236 1.45709,0.77875 1.99551,1.70534c0.3902,0.67152 0.54059,1.63405 0.92584,2.44751c0.33514,0.70767 0.69299,1.56239 0.83133,2.30432c0.18707,1.00343 0.6355,1.72632 0.862,2.7115c0.1731,0.75294 0.08533,1.70934 0.08533,2.71735c0,0.75598 0.02237,1.68781 -0.00134,2.65198c-0.01785,0.72595 -0.20886,1.7186 -0.49866,2.49384c-0.32108,0.85889 -0.4852,1.68225 -0.50015,2.56351c-0.01624,0.95743 0.05215,1.73944 -0.35703,2.64749c-0.33798,0.75006 -1.00195,1.44061 -1.28564,2.21436c-0.35535,0.96918 -0.31592,1.81088 -0.57852,2.7955c-0.1633,0.6123 -0.57666,1.3848 -0.7215,2.39548c-0.13065,0.91156 -0.05582,1.80051 -0.05716,2.90451c-0.00067,0.55334 0.005,1.52274 -0.05716,2.19916c-0.11609,1.26318 -0.38965,2.02203 -0.59018,2.69183c-0.29974,1.00122 -0.34732,1.84494 -0.35266,2.77567c-0.00455,0.7905 0,1.64401 0,2.83334c0,0.60001 0,1.5 0,2.39999c0,0.89984 0,1.78934 0,2.64285c0,1.03583 0,1.95715 0,2.64114c0,1.00134 0,1.83685 0,2.71735c0,0.89865 0,1.79868 0,2.69867c0,0.89999 0,1.7955 0,2.664c0,1.06934 -0.00113,1.77884 0,2.6315c0.00134,1.00449 -0.05164,1.8595 0.44284,2.8045c0.33914,0.64813 0.95667,1.16483 1.53564,2.00015c0.54764,0.79013 0.82996,1.48129 1.22284,2.48517c0.21469,0.54858 0.52548,1.43369 0.96533,2.31467c0.45514,0.91159 0.83694,1.47693 1.34933,2.31467c0.46597,0.76181 0.81885,1.47501 1.36801,2.284c0.56314,0.82959 1.1387,1.42236 1.80267,2.00134c0.715,0.62344 1.27805,0.98911 2.08798,1.63599c0.54971,0.43906 1.3147,1.17621 2,1.98935c0.45789,0.5433 0.87354,1.12698 1.64667,1.85315c0.77014,0.72336 1.3595,1.10281 1.89468,1.52017c1.01187,0.78903 1.47882,1.20346 2.13666,1.91568c0.73721,0.79816 1.23529,1.4519 1.77267,2.147c0.2767,0.35791 0.82877,1.0856 1.608,2.172c0.48557,0.67697 0.92255,1.32584 1.35599,1.91998c0.7959,1.09094 1.20972,1.56604 1.83151,2.26752c0.43469,0.49042 1.1524,1.30719 1.66183,1.94714c0.53903,0.67712 1.06604,1.37421 1.54797,2.06403c0.64001,0.91605 1.116,1.71301 1.384,2.21866c0.56912,1.07376 0.87238,1.71716 1.21069,2.41068c0.35245,0.72247 0.70612,1.44937 1.15332,2.51715c0.41028,0.97964 0.62799,1.61911 0.90533,2.22018c0.56262,1.21927 0.94894,1.79697 1.29065,2.40131c0.67377,1.19162 0.95752,1.79312 1.3045,2.70001c0.22794,0.5957 0.61624,1.80182 0.82535,2.40451c0.3241,0.93408 0.56683,1.58682 1.01682,2.61682c0.32141,0.73575 0.68402,1.47623 1.026,2.22601c0.49374,1.08252 0.78467,1.76074 1.00601,2.41666c0.31149,0.92297 0.53357,2.1351 0.59399,2.73599c0.09036,0.89883 0.20258,2.10355 0.33801,2.70132c0.20975,0.92575 0.42679,1.55365 0.71466,2.56534c0.20407,0.71716 0.40231,1.46652 0.564,2.24402c0.16385,0.78802 0.3222,1.98856 0.38333,2.78482c0.06012,0.78311 0.1019,1.92422 0.27402,2.98318c0.10931,0.67258 0.37183,1.64297 0.49466,2.30533c0.1915,1.03256 0.23703,1.77274 0.26315,2.53683c0.02679,0.78339 0.01492,1.97919 0.02219,2.77783c0.01074,1.1806 0.01727,1.9487 0.16531,3.03467c0.0932,0.68372 0.3457,1.62201 0.48068,2.20499c0.29443,1.2717 0.34241,1.96146 0.35132,2.64566c0.01657,1.27307 0.02069,1.84073 -0.08398,2.71735c-0.14377,1.20383 -0.3468,1.77551 -0.56201,2.58432c-0.27744,1.04272 -0.39529,1.91333 -0.78867,2.85034c-0.24338,0.57971 -0.7923,1.54922 -1.12799,2.328c-0.3457,0.802 -0.48346,1.73392 -0.79318,2.49316c-0.31128,0.76306 -0.84283,1.74283 -1.14282,2.34283c-0.5,1 -0.7644,1.61566 -1.20001,2.34283c-0.55585,0.92789 -1.09998,1.45584 -1.79999,2.15717c-0.70001,0.70132 -1.22858,1.23831 -1.70001,1.98401c-0.42648,0.67459 -0.97867,1.64972 -1.5,2.21149c-0.58151,0.62662 -1.46664,1.3045 -2.12534,1.69385l-0.69064,0.32532l-0.98401,0.22284" id="svg_4" stroke-width="2" stroke="#000" fill="none"/>
  <path t="15167,15182,15182,15182,15182,15190,15190,15206,15206,15220,15220,15236,15236,15236,15254,15254,15254,15254,15270,15270,15270,15286,15286,15303,15303,15303,15320,15320,15337,15337,15337,15353,15353,15370,15371,15371,15386,15386,15404,15404,15421,15421,15421,15437,15437,15437,15437,15454,15454,15454,15454,15471,15471,15471,15487,15487,15487,15504,15504,15521,15521,15521,15537,15537,15537,15537,15554,15554,15571,15571,15587,15587,15587,15604,15604,15621,15621,15637,15637,15637,15654,15654,15671,15671,15671,15687,15687,15704,15704,15721,15721,15737,15737,15737,15754,15754,15754,15771,15771,15787,15787,15804,15804,15821,15821,15837,15837,15837,15854,15854,15871,15871,15887,15887,15904,15904,15921,15921,15937,15954,15954,15971,15971,15987,15987,16004,16021,16021,16037,16037,16037,16054,16054,16054,16071,16071,16071,16089,16104,16104" d="m238,276c-2.6355,12.74182 -2.76268,13.37204 -2.892,14.35733c-0.08887,0.67712 -0.108,1.75867 -0.108,2.52667c0,0.952 0,1.71732 0,2.72049c0,0.85266 0,1.81702 0,2.6315c0,0.8685 0,1.76401 0,2.664c0,0.89999 -0.0126,1.50009 0.00133,2.69867c0.01024,0.88065 -0.04698,1.46698 0.28401,2.716c0.18059,0.68146 0.71466,1.68533 1.01466,2.28534c0.39999,0.79999 0.84128,1.58163 1.17917,2.39999c0.40488,0.98056 0.45139,1.80725 0.60483,2.60001c0.15675,0.80991 0.50832,1.60919 1.01617,2.59967c0.29976,0.58459 0.71866,1.3804 1.73582,1.73898c0.73447,0.25891 1.78705,0.37885 2.364,0.70801c1.0479,0.59784 1.59065,1.2045 2.25717,1.70065c0.68985,0.51352 1.49028,0.9343 2.3895,1.20602c0.63148,0.19083 1.67355,0.33951 2.40601,0.3895c0.74648,0.05093 1.86333,0.05649 2.92566,0.05716c0.66,0.00043 1.575,0 2.655,0c0.93068,0 1.56218,0 2.56801,0c0.83466,0 2.02029,0.00757 2.55582,-0.00449c0.85388,-0.01923 2.05008,-0.13101 2.93384,-0.35269c0.57275,-0.14365 1.39804,-0.34375 2.29916,-0.94733c0.75095,-0.50299 1.27951,-1.19626 1.83069,-1.6955c0.95297,-0.86316 1.59842,-1.21384 2.14316,-1.62534c0.85486,-0.64575 1.28024,-1.39752 1.836,-2.20801c0.47125,-0.68729 1.1394,-1.46811 1.47916,-2.1875c0.26752,-0.56644 0.44678,-1.58658 0.57352,-2.43631c0.14438,-0.96796 0.38327,-1.75455 0.59467,-2.53302c0.28152,-1.03674 0.35199,-1.89249 0.35266,-2.84583c0.00055,-0.76532 0,-1.76849 0,-2.62115c0,-0.96417 0,-1.76819 0,-2.59018c0,-1.03116 0,-1.71667 0,-2.55133c0,-1.00134 0,-1.80133 0,-2.80002c0,-0.94415 0,-1.85315 0,-2.57065c0,-1.0405 0,-1.81601 0,-2.86401c0,-0.93066 0,-1.56216 0,-2.56665c0,-0.80002 0,-1.80002 0,-2.60001c0,-1 0.18506,-1.83807 -0.16666,-2.83334c-0.29211,-0.82663 -1.03336,-1.36667 -1.63333,-1.96664c-0.70001,-0.70001 -1.26016,-1.34702 -1.95718,-1.90002c-0.69052,-0.54785 -1.38138,-0.98294 -2.35883,-1.21466c-0.75174,-0.17822 -1.74365,0.05188 -2.71735,-0.25198c-0.72937,-0.2276 -1.49463,-0.71323 -2.42798,-0.79733c-0.78793,-0.07098 -1.81735,-0.03601 -2.51334,-0.03601c-0.90933,0 -1.90802,0 -2.7045,0c-0.7515,0 -1.84885,0.01068 -2.72084,0.28534l-0.60001,0.51599" id="svg_5" stroke-width="2" stroke="#000" fill="none"/>
  <path t="16856,16864,16864,16864,16864,16864,16864,16864,16864,16864,16873,16874,16874,16874,16874,16874,16874,16889,16889,16904,16904,16921,16921,16937,16937,16954,16954,16954,16971,16971,16971,16987,16987,16987,17004,17004,17020,17020,17020,17036,17036,17036,17053,17053,17070,17070,17086,17086,17103,17103,17103,17120,17120,17136,17153,17170,17189,17189,17213,17237,17367,17373,17373,17387,17405,17421,17422,17422,17437,17456,17456,17497,17521,17537,17537,17554,17571,17587,17604,17604,17621,17621,17621,17637,17637,17637,17654,17654,17671,17671,17671,17687,17687,17687,17704,17704,17721,17721,17721,17737,17737,17754,17754,17754,17771,17787,17787,17787,17804,17804,17821,17837,17837,17837,17854,17854,17854,17871,17871,17887,17887,17904,17904,17921,17921,17937,17937,17954,17954,17971,17971,17971,17987,17987,18004,18004,18021,18021,18037,18037,18037,18054,18054,18071,18071,18087,18104,18104,18121,18121,18137,18157,18197,18225,18233,18269,18285,18293,18303,18321,18321,18337,18337,18353,18353,18354,18354,18389,18389,18413" d="m246,349c4.66667,3.83334 5.50809,4.19299 6.44,4.51068c0.9814,0.33453 2.01083,0.63068 3.06,0.90598c1.04425,0.27402 2.07129,0.51688 3.06,0.72601c1.76984,0.37439 2.52374,0.49854 3.18399,0.60132c0.57458,0.08948 1.07419,0.15302 1.50601,0.19351c0.37097,0.03479 1.60718,0.0625 2.36465,0.0625c1.04251,0 1.78986,0 2.78534,0c0.80002,0 1.80267,0.04736 2.60001,-0.02084c1.0069,-0.08612 1.81006,-0.41663 2.45715,-0.68365c0.96329,-0.39749 1.75934,-0.71555 2.59018,-0.93832c1.0217,-0.27396 1.72604,-0.27536 2.55133,-0.44119c1.01761,-0.20447 1.59604,-0.53763 2.6015,-1.01581c0.81647,-0.38831 1.47662,-0.66315 2.48383,-0.81616c0.811,-0.1232 1.64783,-0.1011 2.62933,-0.36801c0.85773,-0.23325 1.7088,-0.48126 2.43933,-0.82584c0.98059,-0.46252 1.46164,-1.07965 2.08069,-1.89017c0.43866,-0.57434 0.83627,-1.36066 1.46216,-2.24283c0.40283,-0.56778 0.75717,-1.45718 1.2045,-2.25717c0.44733,-0.79999 0.69305,-1.62405 1.2045,-2.20001c0.65021,-0.73227 0.85498,-1.9136 1.65268,-2.23831c0.80646,-0.32828 1.29767,0.7645 1.6955,1.63834c0.33456,0.73489 0.95419,1.46252 1.34732,2.12534c0.40714,0.68646 0.99084,1.54749 1.70001,2.27466c0.59244,0.60748 1.40952,1.08142 1.7785,2c0.3385,0.84271 0.1395,1.70016 0.12149,2.60001c-0.01801,0.90054 -0.53433,1.66129 -0.83334,2.46664c-0.30438,0.81985 -0.46765,1.85489 -0.8765,2.43335c-0.44186,0.62518 -1.14432,1.38638 -1.65417,2.18933c-0.34583,0.54465 -0.92734,1.47012 -1.39316,1.96332c-0.70993,0.75165 -1.27045,1.28418 -1.9295,1.84866c-0.7196,0.61633 -1.52878,1.18692 -2.052,1.56268c-0.92938,0.66742 -1.56439,1.24924 -2.42798,1.836c-0.64496,0.43823 -1.2374,0.70093 -2.23334,1.20001c-0.79965,0.40073 -1.60712,0.78625 -2.38934,1.19998c-0.73221,0.38727 -1.38382,1.04947 -2.37732,1.43335c-0.63812,0.24655 -1.4512,0.19562 -2.42883,0.51932c-0.76263,0.2525 -1.797,0.58966 -2.73785,0.814c-0.68246,0.16272 -1.44153,0.45483 -2.5,0.66669c-0.70395,0.1409 -1.56247,0.1424 -2.56534,0.168c-0.76587,0.01956 -1.66818,0.38486 -2.48532,0.71466c-0.91226,0.36819 -1.71732,0.28333 -2.716,0.284c-0.79999,0.00055 -1.79999,0 -2.60001,0c-1,0 -1.80002,0.00668 -2.79999,0c-0.80005,-0.00534 -1.61356,-0.03903 -2.60001,-0.35266c-0.60968,-0.19382 -1.60406,-0.50128 -2.37915,-0.64734c-1.0062,-0.18961 -1.65747,-0.65808 -2.56351,-1.10001c-0.6911,-0.3371 -1.48109,-0.54361 -2.48801,-1.09866c-0.60327,-0.33255 -1.46812,-0.6442 -2.31667,-0.854c-0.9182,-0.22702 -1.65266,-0.94733 -2.15266,-1.44733c-0.7,-0.70001 -1.24538,-1.36133 -1.89999,-1.88934c-0.74493,-0.60086 -1.70439,-0.52197 -2.60001,-0.61066c-0.84569,-0.08374 -1.56886,-0.67661 -1.964,-1.436c-0.39915,-0.76709 -0.08452,-1.76532 -0.03583,-2.66415c0.04271,-0.78864 0.3736,-1.55942 0.70433,-2.41867c0.31125,-0.80862 0.59273,-1.78284 0.7955,-2.46033c0.1973,-0.65918 0.59984,-1.75635 1.064,-2.58884l0.40001,-0.832" id="svg_6" stroke-width="2" stroke="#000" fill="none"/>
  <path t="19376,19389,19390,19398,19405,19420,19436,19453,19453,19453,19470,19470,19486,19486,19486,19503,19520,19520,19536,19536,19553,19584,19605,19606,19628,19648,19664,19680,19688,19688,19703,19720,19740,19740,19740,19752,19753,19774,19774,19786,19786,19786,19807,19807,19819,19820,19820,19836,19836,19853,19853,19853,19874,19874,19874,19874,19886,19886,19886,19903,19903,19903,19903,19920,19920,19920,19936,19936,19936,19936,19953,19953,19953,19953,19970,19970,19970,19970,19986,19986,19986,19986,20003,20003,20003,20003,20019,20020,20020,20020,20038,20038,20038,20038,20053,20053,20053,20053,20069,20070,20070,20070,20086,20086,20086,20103,20103,20120,20120,20120,20136,20136,20153,20153,20153,20170,20170,20170,20170,20186,20186,20186,20203,20203,20220,20220,20220,20236,20253,20253,20269,20270,20270,20286,20286,20303,20303,20320,20320,20336,20336,20336,20353,20353,20353,20370,20370,20370,20386,20386,20386,20386,20403,20403,20403,20420,20420,20420,20436,20436,20436,20453,20453,20453,20470,20470,20470,20470,20470,20486,20486,20486,20486,20503,20503,20503,20520,20520,20521,20536,20536,20536,20553,20553,20553,20553,20570,20570,20570,20570,20570,20588,20589,20589,20589,20605,20605,20605,20624,20624,20624,20624,20624,20639,20639,20640,20656,20656,20656,20670,20670,20670,20688,20688,20688,20703,20703,20703,20703,20723,20723,20737,20737,20737,20753,20753,20770,20770,20770,20786,20786,20803,20820,20820,20836,20853,20873,20873,20888,20906,20906,20924,20924,20924,20938,20938,20938,20938,20939,20955,20956,20956,20956,20972,20972,20972,20973,20973,20988,20988,20988,20988,20988,20989,21005,21005,21005,21005,21020,21020,21065" d="m184,249c-2.24283,3.18567 -2.88669,3.72168 -3.47917,4.5c-0.55908,0.73445 -1.04202,1.38863 -1.54166,2.04167c-0.53874,0.70415 -0.99631,1.48634 -1.58183,1.97432c-0.76575,0.63818 -1.4586,0.89044 -2.23067,1.65067c-0.60272,0.59348 -0.9077,1.39331 -1.56667,2.19736c-0.55423,0.67624 -1.2,1.23599 -1.8,1.836c-0.59999,0.59998 -1.36116,1.25735 -1.74733,2.09998c-0.35231,0.76877 -0.8889,1.46857 -1.04201,2.30002c-0.16309,0.88565 -0.55385,1.60327 -0.88916,2.5c-0.31808,0.85065 -0.11037,1.70004 -0.12151,2.60001c-0.01042,0.84183 -0.21799,1.84363 -0.42534,2.55066c-0.21849,0.74503 -0.43256,1.79355 -0.65866,2.63199c-0.21454,0.79559 -0.62636,1.56598 -0.79449,2.53867c-0.13773,0.79672 -0.10751,1.6261 -0.12167,2.65717c-0.01237,0.90082 -0.1499,1.92706 -0.42517,2.7215c-0.20946,0.60449 -0.52234,1.5976 -0.564,2.40002c-0.05185,0.99905 -0.01106,1.84164 -0.01067,2.57065c0.00067,1.19867 -0.00104,1.8912 0.036,2.61469c0.03749,0.7327 0.24164,2.13074 0.38934,2.77866c0.21284,0.93362 0.4258,1.83392 0.52199,2.73599c0.09578,0.89828 0.09706,1.50726 0.33667,2.70001c0.1214,0.60437 0.40569,1.49261 0.59483,2.70016c0.09421,0.60141 0.15234,1.54156 0.2905,2.18515c0.2249,1.04764 0.53207,1.7709 0.8515,2.51468c0.32254,0.75104 0.83102,1.82605 1.222,2.84732c0.24818,0.64828 0.46394,1.30203 0.75717,2.31934c0.31204,1.08261 0.49699,1.83417 0.7,2.58069c0.29564,1.08719 0.49585,1.76862 0.7,2.41666c0.29404,0.93338 0.60294,1.83502 0.90001,2.74051c0.202,0.61569 0.50774,1.57861 0.8,2.61682c0.20544,0.7298 0.39699,1.47949 0.59999,2.22601c0.29564,1.08719 0.60001,2.09998 0.8,2.75266c0.2,0.65268 0.60051,2.02103 0.8,2.74817c0.20052,0.73083 0.37656,1.44949 0.7,2.41849c0.27568,0.8259 0.70752,1.70825 0.87849,2.53336c0.16359,0.78952 0.12151,1.79999 0.12151,2.59998c0,0.80002 0.00008,1.8045 0,2.65717c-0.00009,0.96436 0.02538,1.78152 -0.05716,2.64734c-0.11452,1.20129 -0.28514,1.79984 -0.55351,2.6955c-0.18069,0.60309 -0.59496,1.79648 -0.77866,2.38934c-0.26352,0.85046 -0.5302,1.88553 -0.58984,2.78983c-0.0672,1.01883 0.07457,1.8291 -0.10616,2.53552c-0.26495,1.03568 -0.83589,1.802 -0.89384,2.50616c-0.08034,0.97607 -0.02083,1.77914 -0.02083,2.57916c0,1 0,1.79999 0,2.79999c0,0.80002 0,1.80002 0,2.60001c0,1 0,1.81067 0,2.68533c0,1 0,1.83551 0,2.716c0,0.89865 0,1.79868 0,2.69867c0,0.89999 0,1.79999 0,2.69998c0,0.60001 -0.01726,1.79929 0.02083,2.67917c0.02443,0.56433 0.2449,1.84393 0.5,2.52084c0.26068,0.69177 0.67917,1.68399 0.97917,2.5c0.3,0.81601 0.71071,1.8143 1,2.54166c0.20773,0.52231 0.60558,1.82114 0.8,2.62085c0.10295,0.42346 0.29332,1.29904 0.5,2.17084c0.29063,1.22592 0.49319,1.95438 0.7,2.625c0.29048,0.94199 0.59435,1.84341 0.89999,2.73099c0.29457,0.85541 0.69667,1.89081 1,2.58533c0.29674,0.67944 0.69632,1.64835 1.01067,2.46133c0.22261,0.57574 0.7485,1.76804 1.07333,2.36533c0.33368,0.61359 0.90067,1.53873 1.34933,2.56534c0.30876,0.70651 0.53651,1.4603 0.79201,2.20801c0.25389,0.74298 0.67653,1.81406 1.03183,2.46368c0.34491,0.63062 0.92885,1.48721 1.54283,2.24048c0.58563,0.71848 1.0428,1.15186 1.8,2.25452c0.42465,0.61841 0.79649,1.31934 1.2,2.01599c0.39658,0.68469 0.98424,1.61984 1.58934,2.37866c0.3654,0.45822 1.19571,1.46786 1.58533,2.07199c0.38434,0.59598 0.93213,1.41296 1.46133,2c0.55345,0.61392 1.37279,1.39166 1.964,2.01068c0.60918,0.63785 1.20998,1.34848 1.7955,2.13751c0.39038,0.52606 0.89049,1.30484 1.52049,2.08249c0.48779,0.60211 1.22079,1.27615 1.884,1.99017c0.52858,0.56906 1.13458,1.36749 1.47917,1.97916c0.55341,0.98233 0.78522,1.61566 1.22083,2.34283c0.55586,0.92792 1.09967,1.45618 1.8,2.15717c0.69968,0.70035 1.13605,1.27164 1.89999,1.88934c0.74478,0.6022 1.55196,0.85617 2.3,1.258c0.77995,0.41898 1.78534,0.35266 2.51067,0.35266c0.98984,0 1.85184,0 2.64534,0c1.00833,0 1.811,0 2.68567,0c0.45433,0 1.377,-0.00333 2.73683,0.00015c0.86435,0.00223 1.70172,0.00183 2.517,0.05701c1.20671,0.08163 2.0085,0.22116 2.82584,0.37885c0.42105,0.08124 1.29134,0.27658 2.71199,0.564c0.50859,0.10291 1.56755,0.29977 2.10667,0.39999c1.07341,0.19955 1.6021,0.27841 3.06,0.60001c0.84418,0.18622 1.57066,0.38934 2.47217,0.64282l0.88483,0.23584l0.834,0.17401l0.78818,0.44733" id="svg_7" stroke-width="2" stroke="#000" fill="none"/>
 </g>
 <g display="none">
  <title>muse_image</title>
  <image xlink:href="http://farm3.static.flickr.com/2284/2096307701_47c0c6a052.jpg" id="muse" height="480" width="320" y="0" x="160"/>
 </g>
 <g display="none">
  <title>bbox</title>
  <rect stroke="#f00" fill="none" stroke-width="3" height="418.56" width="189.7006" y="46.08" x="232.81437" id="bbox"/>
 </g>
</svg>
