<svg width="640" height="480" xmlns="http://www.w3.org/2000/svg" xmlns:svg="http://www.w3.org/2000/svg" xmlns:xlink="http://www.w3.org/1999/xlink">
 <!-- Sketchy ANNOTATION
  ImageNet ID: n02676566_9243
  URL: http://farm2.static.flickr.com/1334/1250348458_3691905acf.jpg
  Image Width: 375
  Image Height: 500
  BBox X: 90
  BBox Y: 5
  BBox Width: 202
  BBox Height: 482
  Exposure: 2000ms
  Synset Label: guitar
  Synset ID: n03467517
  Worker Tag: guitar standing upright in room
  Sanity Check: 
   Saved
  Comment: 
   {}
  Worker ID: A2HM35CWB7IIFM
  Assignment ID: 30ZX6P7VF8VJA1YOTRHJQRKX5TO2J6
  HIT ID: 3I7SHAD35MWEAQ3LCY64DQY1GOR7M9
  Work Time: 112s
  Worker Score: 0.7857
 END ANNOTATION -->
 <g display="inline">
  <title>Layer 1</title>
  <path t="0,234,244,244,257,270,270,279,279,297,298,298,305,316,317,341,341,354,365,366,379,379,379,396,396,402,402,403,413,413,430,430,430,439,439,451,451,463,463,479,480,488,513,513,537,537,537,549,563,563,580,598,598,613,613,613,624,624,635,635,647,663,664,672,673,684,696,696,696,712,712,712,712,721,721,721,733,733,745,762,762,770,770,782,795,795,814,814,819,830,831,845,856,856,856,868,868,868,868,880,880,880,895,895,896,905,905,905,917,929,929,929,946,946,954,965,965,978,979,995,995,995,1003,1003,1003,1003,1014,1015,1015,1029,1029,1029,1045,1045,1045,1045,1045,1045,1051,1051,1051,1051,1052,1064,1064,1064,1064,1078,1079,1079,1079,1088,1089,1089,1100,1100" d="m296,224.89999c-1.75717,0 -2.65268,0 -3.51599,0c-0.85867,0 -1.80551,0 -2.69467,0c-0.98935,0 -1.78937,-0.00676 -2.78934,0c-0.7894,0.00534 -1.59821,-0.06552 -2.47916,0.52084c-0.70679,0.47044 -1.24783,1.23486 -2.17352,1.422c-0.68283,0.13803 -1.74188,-0.00726 -2.66882,0.2785c-0.71939,0.22179 -1.6759,0.62764 -2.47849,0.75333c-0.79773,0.12494 -1.79742,0.39926 -2.436,0.60001c-0.92148,0.28967 -1.71811,0.325 -2.75418,0.478c-0.87399,0.12906 -1.65295,0.60402 -2.34317,1.114c-0.66489,0.49127 -1.3851,1.02974 -2.33331,1.5c-0.76956,0.38165 -1.53745,0.90002 -1.93335,1.51868c-0.5054,0.78981 -1.01303,1.43716 -1.88266,2.01466c-0.64008,0.42505 -1.23428,1.05847 -1.73901,1.90016c-0.35172,0.58653 -1.09964,1.22115 -1.77832,1.89983c-0.51599,0.51601 -1.14801,1.38454 -2,1.83334c-0.64902,0.34189 -1.48517,0.74034 -2.3215,1.26649c-0.6734,0.42365 -1.6785,0.73351 -2.2785,0.85201c-0.79999,0.158 -1.80367,0.60953 -2.37917,1.04816c-0.86176,0.65681 -1.67682,0.90579 -2.42082,1.436c-0.78574,0.55994 -1.20001,1.164 -1.90001,1.864c-0.5,0.5 -1.26074,1.17874 -1.8,2.02184c-0.45357,0.70912 -0.7169,1.44452 -1,2.32083c-0.21278,0.65868 -0.49025,1.70959 -0.7,2.38934c-0.28673,0.92918 -0.69304,1.92964 -1,2.56534c-0.48457,1.00351 -0.89626,1.52789 -1.11467,2.51865c-0.22694,1.02942 0.07294,1.75049 -0.252,2.71735c-0.27367,0.81433 -0.75154,1.59454 -1.05466,2.48801c-0.2357,0.69473 -0.71375,1.65021 -0.77417,2.37415c-0.07823,0.93729 -0.0045,1.78851 -0.0045,2.65186c0,0.90448 0,1.98599 0,2.66699c0,0.80701 0,1.98566 0,2.58566c0,0.89999 0,1.79999 0,2.70001c0,0.89999 0,1.79999 0,2.69998c0,0.89551 0,1.76401 0,2.83334c0,0.70499 0,1.67999 0,2.552c0,0.948 -0.0462,1.87106 0.05716,2.60931c0.14688,1.04901 0.63725,1.67789 0.94284,2.52618c0.34013,0.94424 0.53531,1.7674 1.3215,2.23651c0.63567,0.3793 1.6985,0.54648 2.48917,1.10397c0.43698,0.30811 1.34515,0.99332 2.142,1.38602c0.81154,0.39996 1.4066,0.57004 2.362,1.23801c0.69943,0.48898 1.29298,1.10712 2.08667,1.91867c0.41408,0.4234 1.0757,1.15262 1.76534,2.09598c0.26234,0.35886 0.79272,1.16284 1.33333,2.04169c0.27815,0.45218 0.82304,1.37305 1.33333,2.29166c0.48677,0.87628 0.71323,1.30084 1.125,2.125c0.3878,0.77615 0.88737,1.87003 1.15633,2.55768c0.3822,0.97723 0.59064,1.63376 0.88535,2.65067c0.20691,0.71402 0.38602,1.452 0.70001,2.5235c0.28726,0.98032 0.59549,1.7955 0.86398,2.48849l0.31467,1.02115l0.12134,0.77936" id="svg_1" stroke-width="2" stroke="#000" fill="none"/>
  <path t="2269,2487,2488,2488,2503,2504,2504,2504,2517,2517,2517,2517,2522,2523,2523,2535,2535,2535,2546,2546,2562,2572,2583,2583,2596,2596,2612,2612,2621,2621,2632,2645,2646,2662,2669,2669,2682,2695,2695,2712,2712,2719,2719,2719,2730,2730,2730,2745,2745,2756,2756,2767,2779,2797,2797,2805,2817,2817,2817,2829,2829,2829,2846,2846,2846,2846,2853,2853,2853,2853,2865,2865,2865,2865,2865,2879,2879,2879,2896,2896,2896,2903,2903,2914,2914,2914,2929,2929,2929,2929,2939,2939,2939,2939,2951,2951,2951,2951,2951,2951,2951,2963,2963,2963,2963,2963,2963,2964,2964,2978,2978,2978,2979,2979,2988,2988,2988,2989,2989,3000,3000,3000,3012,3012,3012,3028,3029,3037,3049,3049,3049,3062" d="m259,314.89999c0,2.01883 0.00006,2.85733 0,3.48801c-0.00009,1.03351 0.00079,2.14847 -0.03601,2.92267c-0.0376,0.79132 -0.16956,1.99191 -0.32117,2.78033c-0.14816,0.77048 -0.31638,1.50452 -0.64282,2.47568c-0.27841,0.82825 -0.57779,1.55356 -1.32132,2.53314c-0.4689,0.6178 -1.00606,1.16342 -1.79335,1.91351c-0.56685,0.54007 -1.40308,0.84866 -2.18983,1.23932c-0.88412,0.439 -1.56834,0.45291 -2.52882,0.81403c-0.82066,0.30856 -1.40674,1.00107 -1.86667,1.59048c-0.66083,0.84686 -1.03503,1.4982 -1.68933,2.19217c-0.55806,0.59192 -0.48672,1.48843 -1.04668,2.41467c-0.43977,0.72745 -1.30528,1.17053 -1.528,2.04666c-0.22458,0.88345 -0.0233,1.80008 -0.03616,2.78934c-0.01041,0.8002 -0.14201,1.80826 -0.35699,2.40451c-0.31229,0.86612 -0.75616,1.81186 -1.03217,2.61014c-0.26662,0.77112 -0.54308,1.63708 -0.60617,2.53351c-0.06351,0.90231 -0.02797,1.79535 -0.42984,2.61584c-0.42609,0.86993 -0.41606,1.66931 -0.65999,2.436c-0.25761,0.80972 -0.82147,1.74002 -0.87868,2.46133c-0.06255,0.78864 -0.036,1.81747 -0.036,2.75949c0,0.7485 0.01196,1.62234 -0.01067,2.65115c-0.01649,0.7496 -0.04501,1.53442 -0.21066,2.728c-0.11145,0.80304 -0.29002,1.59799 -0.42601,2.40002c-0.20299,1.19724 -0.27905,1.99802 -0.31667,2.78934c-0.0368,0.7742 -0.03532,1.52533 -0.036,2.58899c-0.00061,0.97501 0,1.85999 0,2.90018c0,0.68549 0,1.52014 0,2.526c0,0.85266 0,1.81699 0,2.63147c0,0.86853 0,1.76401 0,2.66852c0,0.93149 0,1.58084 0,2.61734c0,0.74432 0,1.54065 0,2.397c0,1.41449 0,1.9245 0,3.00449c0,0.57001 0,1.16 0,2.39999c0,0.64999 0,2.01001 0,2.71899c0,0.72302 0,1.45401 0,2.91602c0,0.71899 0,1.422 0,2.103c0,1.272 0,2.39868 0,2.91449c0,0.96167 0,1.86334 0,3.19086c0,0.45432 0,1.37698 0,2.29166c0,0.87466 0,2.04166 0,2.68567c0,1.02399 0,1.85599 0,2.65601c0,0.79999 -0.09145,2.00723 0.08533,2.71466c0.22516,0.90103 0.91467,1.65201 1.31467,2.31067l0.40001,0.69067l0.59999,0.83731" id="svg_2" stroke-width="2" stroke="#000" fill="none"/>
  <path t="3714,3884,3903,3904,3904,3908,3908,3923,3923,3923,3931,3931,3946,3947,3961,3968,3968,3980,4005,4017,4017,4029,4029,4029,4045,4055,4055,4055,4067,4067,4079,4079,4079,4095,4095,4095,4103,4103,4115,4115,4129,4129,4145,4152,4152,4165,4165,4165,4179,4180,4180,4180,4194,4195,4195,4195,4195,4202,4202,4202,4202,4202,4213,4213,4213,4213,4228,4228,4229,4238,4238,4238,4238,4250,4250,4262,4262,4278,4279,4279,4287,4287,4288,4288,4299,4299,4299,4299,4300,4300,4312,4312,4312,4312,4312,4312,4329,4329,4329,4329,4329,4337,4337,4337,4337" d="m244,424.89999c1.52083,1.5 2.31316,2.11496 3.02083,2.5c0.57399,0.31229 1.59579,0.77606 2.17917,1.13602c1.0316,0.63651 1.59604,1.18231 2.14284,1.71133c0.78288,0.75742 1.26126,1.27298 2.13983,1.85266c0.64131,0.42316 1.2972,1.15518 1.73883,1.89999c0.39285,0.66254 1.08295,1.46805 1.87851,1.7785c0.84604,0.33014 1.72073,0.15326 2.668,0.40549c0.73752,0.19638 1.46378,0.43298 2.57065,0.69067c0.82785,0.19275 1.66943,0.56339 2.26266,0.74133c0.98608,0.29581 1.86285,0.30051 2.82001,0.50534c0.81113,0.17358 1.61743,0.4682 2.65717,0.65732c0.68103,0.12387 1.54654,0.12289 2.517,0.47852c0.7738,0.28357 1.59433,1.0426 2.28851,1.35748c0.88937,0.40344 1.71521,0.21951 2.59515,0.80618c0.70654,0.47107 1.31546,1.20404 2.2915,1.39517c0.76111,0.14905 1.34576,0.09073 2.52966,0.30533c0.92822,0.16824 1.56766,0.37494 2.27036,0.49466c1.16656,0.19873 2.03906,0.23282 2.95016,0.284c0.46445,0.02609 1.40036,0.04987 2.75766,0.22134c0.86734,0.10956 1.69995,0.28268 2.517,0.42599c0.40283,0.07065 1.60318,0.24747 2.39999,0.2955c1.16733,0.0704 1.91916,0.05649 2.983,0.05716c0.66434,0.0004 1.61084,0 2.8215,0c0.59866,0 1.47916,0 2.31467,0c0.99866,0 1.83865,0 2.80267,0c0.85199,0 1.90149,0 2.44516,0c0.92551,0 1.95917,0 2.69916,0c0.78,0 1.60001,0 2.905,0c0.92001,0 1.39502,0 2.375,0c1.02002,0 1.54501,0 3.1795,0c0.56149,0 1.12701,0 2.258,0c0.55951,0 1.65152,0.0007 2.6875,0c0.96133,-0.00067 1.85123,0.00311 2.67603,-0.03598c0.77002,-0.0365 1.836,-0.18552 2.83197,-0.40002l0.6507,-0.17465l0.65866,-0.19067" id="svg_3" stroke-width="2" stroke="#000" fill="none"/>
  <path t="5111,5281,5281,5293,5293,5307,5307,5307,5324,5324,5324,5340,5340,5344,5357,5379,5379,5396,5403,5403,5414,5429,5429,5429,5430,5440,5440,5440,5440,5450,5451,5451,5451,5451,5463,5463,5463,5463,5463,5479,5480,5480,5488,5488,5488,5500,5500,5500,5514,5514,5530,5530,5530,5538,5538,5549,5549,5563,5563,5580,5580,5580,5586,5587,5587,5599,5599,5599,5613,5613,5613,5613,5631,5631,5631,5635,5635,5647,5647,5663,5663,5683,5684,5696,5696,5713,5713,5721,5721,5733,5733,5733,5747,5747,5748,5763,5763,5764,5771,5771,5771,5782,5782,5796,5812,5831,5832,5846,5847,5847,5856,5868,5880,5897,5897,5897,5906,5906,5906,5916,5930,5930,5947,5947,5955,5955,5955,5968,5968,5979,5995,6015,6029,6046,6046,6052,6064,6064,6064,6078,6078,6090,6090,6090,6090,6101,6101,6101,6112,6112,6113,6129,6129,6138,6138,6138,6150,6162,6163,6163,6179,6179,6179,6188,6199,6199,6199,6219,6219,6226,6226,6226,6239,6239,6250,6250,6250,6264,6264,6265,6265,6278,6278,6297,6297" d="m336,442.89999c1.836,-0.97467 2.61148,-1.04852 3.60449,-1.35266c0.86258,-0.26419 1.81573,-0.53574 2.62085,-0.62201c0.82098,-0.08795 1.858,-0.23099 2.53867,-0.45065c0.84109,-0.27145 1.83014,-0.54218 2.57883,-0.57016c1.02048,-0.03815 1.85718,-0.00452 2.75732,-0.00452c0.78519,0 1.7634,0.14938 2.73318,-0.16666c0.69101,-0.22519 1.4837,-0.746 2.5,-1c0.68723,-0.17175 1.49707,-0.45908 2.06934,-0.72c1.21964,-0.55609 1.81332,-0.95175 2.43332,-1.36002c0.65509,-0.43137 1.68506,-1.17526 2.42117,-1.70599c0.3786,-0.27295 1.14664,-0.83215 1.94415,-1.36331c0.79199,-0.5275 1.59476,-1.00089 2.37735,-1.44803c0.74814,-0.42743 1.47311,-0.80136 2.37833,-1.43597c0.54285,-0.38055 1.22543,-0.99615 2.043,-1.80002c0.60278,-0.59268 1.17096,-1.20032 2,-1.83331c0.57645,-0.44012 1.24097,-0.71091 1.97867,-1.48801c0.5892,-0.62067 1.16382,-1.54254 1.67401,-1.92151c0.66559,-0.49438 1.57242,-1.08685 2.23132,-1.55716c0.74942,-0.53491 1.52005,-0.90091 2.31601,-1.30002c0.79953,-0.40091 1.79999,-0.89999 2.39999,-1.19998c0.79999,-0.39999 1.60614,-0.7887 2.42084,-1.22083c0.66956,-0.35513 1.66299,-0.96558 2.21515,-1.3045c0.57315,-0.35184 1.75668,-1.0242 2.36401,-1.28934c0.88989,-0.38852 1.50018,-0.58029 2.69965,-0.98535c0.59143,-0.19971 1.45724,-0.43802 2.367,-0.89999c0.6973,-0.35406 1.51239,-0.98056 2.14801,-1.39999c0.86975,-0.57394 1.21136,-1.36496 1.53799,-2.25717c0.27615,-0.75436 0.56769,-1.53867 0.6265,-2.34283c0.07294,-0.99756 -0.14285,-1.83078 0.1875,-2.83331c0.23627,-0.71701 0.98251,-1.46442 1.3125,-2.20834c0.27841,-0.62766 0.43896,-1.64346 0.52084,-2.47916c0.08624,-0.88031 0.20844,-1.78207 0.42532,-2.66852c0.20959,-0.85663 0.4892,-1.88586 0.55383,-2.78983c0.04419,-0.61823 0.02084,-1.61633 0.02084,-2.53549c0,-0.96451 -0.05783,-1.91461 0.22134,-2.80685c0.22479,-0.71844 0.65808,-1.67224 0.74265,-2.46783c0.07675,-0.72208 0.03601,-1.79999 0.03601,-2.61066c0,-0.909 0,-1.93332 0,-2.60983c0,-0.77551 0,-1.82349 0,-2.7435c0,-0.76001 0,-1.74667 0,-2.73199c0,-0.72534 0,-1.71466 0,-2.51468c0,-1 0,-1.79999 0,-2.60001c0,-0.99548 0,-1.91464 0,-2.87915c0,-0.82083 0,-1.72083 0,-2.62085c0,-0.89999 0.00052,-1.69998 0,-2.57199c-0.00067,-1.09732 0.02505,-1.85388 -0.08533,-2.64532c-0.14066,-1.00845 -0.49417,-1.66284 -0.74802,-2.84933c-0.16708,-0.78101 -0.13525,-1.35773 -0.25067,-2.23468c-0.15842,-1.20377 -0.32651,-1.79645 -0.62048,-2.64148c-0.36426,-1.04709 -0.68878,-1.72443 -1.09549,-2.55585c-0.39355,-0.80453 -0.79785,-1.60239 -1.20001,-2.40134c-0.39786,-0.79041 -0.78326,-1.52658 -1.39999,-2.37466c-0.58438,-0.80359 -0.99109,-1.47375 -1.35718,-2.02982c-0.5361,-0.81433 -1.19937,-1.60638 -1.75882,-2.02484c-0.80386,-0.60126 -1.81165,-1.0061 -2.32001,-1.43201c-0.57556,-0.48221 -1.38342,-1.0892 -2.14316,-1.63867c-0.87799,-0.63498 -1.25845,-1.15607 -1.71634,-1.84732c-0.60217,-0.90906 -1.08051,-1.44836 -1.62582,-2.19568c-0.52243,-0.71594 -0.89517,-1.25589 -1.51202,-2.457c-0.30219,-0.58841 -0.64413,-1.4798 -0.86215,-2.04282c-0.40143,-1.03671 -0.8045,-1.9155 -1.3045,-2.7905l-0.47916,-0.64584" id="svg_4" stroke-width="2" stroke="#000" fill="none"/>
  <path t="7440,7636,7647,7669,7674,7674,7687,7703,7703,7713,7714,7714,7719,7719,7731,7731,7731,7746,7746,7763,7763,7769,7793,7793,7805,7830,7854,7867,7891,7918,7941,7965,7989,8013,8014,8030,8046,8051,8063,8063,8081,8087,8087,8099,8100,8123,8136,8136,8160,8160,8175,8188,8202,8213,8246,8263,8283,8319,8320,8344,8356,8356,8368,8405,8422,8467,8492,8518,8518,8540,8615,8650,9105,9179,9277,9277,9301,9325,9352,9367,9380,9397,9397,9412,9412,9429,9435,9459,9459,9497" d="m383,324.89999c-1.83334,-0.16666 -1.6232,-1.17996 -2.16666,-1.83331c-0.57397,-0.69003 -1.436,-0.77466 -2.13333,-1.46667c-0.7027,-0.69733 -1.22086,-1.22083 -1.86667,-1.86667c-0.65866,-0.65869 -1.19308,-1.16846 -1.94934,-1.95068c-0.51797,-0.53577 -1.05548,-1.21249 -1.53668,-1.888c-0.52728,-0.74023 -1.15997,-1.67834 -1.59015,-2.18033c-0.72354,-0.84433 -1.30582,-1.27753 -1.7045,-2.11432c-0.41296,-0.86679 -1.03967,-1.11987 -1.76733,-1.784c-0.59595,-0.54391 -0.95624,-1.38193 -1.67468,-1.89069c-0.65601,-0.46454 -0.61066,-1.42532 -0.61066,-2.32532c0,-0.89999 0,-1.80002 0,-2.70001c0,-0.79999 0,-1.69998 0,-2.60001c0,-0.92081 0,-1.88397 0,-2.57465c0,-1.07266 0,-1.992 0,-2.82535c0,-0.83331 0.01068,-1.72339 0.52084,-2.52081c0.53241,-0.83218 0.81186,-1.62274 1.57916,-2.23636c0.60287,-0.48215 1.55389,-0.72534 2.28934,-1.2175c0.66946,-0.448 1.29987,-0.68384 2.08981,-1.04614c0.73068,-0.33514 0.94766,-1.388 1.62085,-2.07919c0.59204,-0.60785 1.34125,-1.11188 1.77866,-2c0.3223,-0.65442 0.86829,-1.43719 1.08533,-2.29999c0.21973,-0.8735 0.03601,-1.79999 0.03601,-2.70001c0,-0.89999 0.1243,-1.6774 0.57468,-2.5c0.42728,-0.78036 0.42532,-1.69998 0.42532,-2.59998c0,-0.90002 0,-1.80002 0,-2.60001c0,-0.89999 0,-1.80002 0,-2.70001c0,-0.89999 0.13867,-1.85339 -0.2215,-2.60016c-0.35425,-0.7345 -1.12357,-1.52985 -1.42133,-2.24716c-0.36206,-0.87225 -0.35733,-1.75269 -0.52383,-2.65268l-0.48068,-0.69998l-0.35266,-0.77917" id="svg_5" stroke-width="2" stroke="#000" fill="none"/>
  <path t="10222,10393,10406,10406,10406,10406,10421,10421,10421,10421,10438,10439,10439,10448,10448,10448,10453,10453,10466,10466,10481,10481,10481,10496,10501,10501,10501,10513,10513,10528,10538,10538,10538,10550,10550,10561,10561,10577,10577,10577,10587,10587,10599,10599,10611,10611,10635,10660,10684,10709,10745,10745,10772,10808,10808,10821,10869" d="m374,258.89999c-1.5625,-0.52081 -2.49347,-1.01953 -3.367,-1.29999c-0.66998,-0.21512 -1.39182,-0.3913 -2.46634,-0.70001c-0.68161,-0.19583 -1.63885,-0.48932 -2.20499,-0.75717c-1.06976,-0.50615 -1.71637,-1.09518 -2.41434,-1.59015c-0.94299,-0.6687 -1.49612,-0.8941 -2.28601,-1.242c-0.92871,-0.40903 -1.72983,-0.89999 -2.36148,-1.51083c-0.54474,-0.52676 -1.20459,-1.23854 -1.89984,-1.879c-0.5043,-0.46454 -1.58905,-0.95134 -2.10001,-1.685c-0.39493,-0.56705 -0.50198,-1.38864 -1.10001,-2.36517c-0.43314,-0.70724 -1.15161,-1.23567 -1.79999,-2.13733c-0.44788,-0.62285 -0.82059,-1.39645 -1.65717,-1.7235c-0.71143,-0.27812 -1.75412,-0.36867 -2.54285,-0.7205c-0.81253,-0.36244 -1.5997,-0.78986 -2.39999,-1.18933c-0.79971,-0.39919 -1.5762,-0.85326 -2.59982,-1.07851c-0.76743,-0.16888 -1.8067,0.02788 -2.49567,-0.17867c-0.87967,-0.26372 -1.60312,-0.91425 -2.50452,-0.94284c-0.89954,-0.02855 -1.83923,0.17644 -2.59998,-0.08533c-0.77957,-0.26823 -1.40002,-1.11467 -2,-1.71466l-0.70001,-0.67917l-0.70001,-0.4355" id="svg_6" stroke-width="2" stroke="#000" fill="none"/>
  <path t="14093,14338,14368,14388,14425,14449,14466,14486,14486,14486,14500,14501,14501,14501,14512,14512,14521,14521,14532,14532,14532,14545,14570,14594,14611,14619,14619,14631,14631,14644,14644,14661,14661,14661,14661,14662,14669,14669,14669,14669,14669,14685,14685,14685,14694,14694,14694,14705,14706,14717,14741,14741,14741,14755,14766,14766,14778,14778,14794,14794,14794,14804,14804,14804,14815,14815,14815,14815,14828,14828,14844,14845,14852,14852,14863,14863,14863,14879,14894,14901,14901,14912,14912,14912,14929,14929,14929,14937,14937,14937,14949,14949,14949,14949,14949,14962,14962,14962,14978,14978,14978,14987,14987,14987,14999,14999,15011,15011,15028,15028,15035,15035,15036,15048,15048,15061,15061,15061,15061,15061,15078,15078,15078,15078,15084,15084,15084,15084,15096,15096,15111,15111,15111,15122,15122,15122,15134,15134,15146,15146,15161,15161" d="m296,87.9c0,1.8 0,2.7 0,3.6c0,0.9 0,1.8 0,2.60133c0,0.96533 0,1.656 0,2.57067c0,0.87067 0,1.87866 0,2.57733c0,0.68266 0,1.88 0,2.82933c0,1.02133 0.00677,1.82136 0,2.82133c-0.00534,0.78938 -0.04297,1.534 -0.5,2.47916c-0.40601,0.83967 -0.5,1.72083 -0.5,2.62083c0,0.9 0,1.65717 0,2.55717c0,0.74734 0,1.7455 0,2.61484c0,1.06133 0,1.7 0,2.41066c0,0.77467 0,1.60534 0,2.93834c0,0.92266 0,1.83733 0,2.28166c0,0.84267 0,2.24267 0,3.05567c0,0.723 0,1.72566 0,2.54166c0,0.81601 -0.00198,2.03835 0,2.83835c0.00226,0.90901 0.13461,1.84236 0.436,2.487c0.33093,0.70778 1.09277,1.48598 1.39734,2.34132c0.28378,0.79697 0.09921,1.81958 0.22382,2.64317c0.14771,0.97614 0.4606,1.72751 0.59018,2.29916c0.26819,1.18321 0.32663,2.09067 0.34198,2.69099c0.03064,1.19965 0.01068,2.0955 0.01068,2.67917c0,0.83549 0,2.06367 0,2.91634c0,1.0045 0,1.8045 0,2.8045c0,0.79999 0,1.79999 0,2.58932c0,0.72534 0,1.68983 0,2.62134c0,0.91083 -0.00845,1.80003 0.00015,2.78951c0.00531,0.61055 0.05682,1.49123 0.28384,2.48517c0.19217,0.84129 0.41498,1.41031 0.59467,2.61482c0.13507,0.90553 0.10925,1.54034 0.28799,2.8665c0.09711,0.72035 0.26181,1.45805 0.40802,2.20801c0.14441,0.74074 0.32983,1.80193 0.38931,2.78932c0.05606,0.93034 0.03601,1.836 0.03601,2.73151c0,0.8685 0,1.93784 0,2.64734c0,0.85266 0,1.85583 0,2.62115c0,0.95334 0,1.80534 0,2.60535c0,1.01599 0,2.064 0,2.7735c0,0.85266 0.02481,1.86116 -0.02084,2.49883c-0.0928,1.29655 -0.25839,1.93034 -0.41516,2.63034c-0.16812,0.75082 -0.36725,1.53018 -0.66382,2.72783c-0.19696,0.79535 -0.39392,1.57634 -0.543,2.343c-0.2113,1.08667 -0.3111,2.09496 -0.33633,2.7155c-0.03476,0.85451 -0.02084,2.089 -0.02084,2.767c0,0.94133 0,1.72733 0,2.54933c0,1.05867 0,1.98933 0,2.82401c0,1.00133 0,1.80133 0,2.80133l0,0.8l0,0.99983l0,0.77933" id="svg_7" stroke-width="2" stroke="#000" fill="none"/>
  <path t="16068,16226,16240,16240,16255,16256,16271,16271,16271,16276,16276,16276,16287,16297,16297,16312,16312,16312,16328,16328,16328,16334,16334,16334,16334,16346,16347,16347,16347,16347,16347,16361,16362,16362,16372,16372,16372,16384,16384,16395,16395,16412,16412,16413,16421,16421,16421,16432,16432,16432,16445,16445,16445,16463,16463,16463,16471,16471,16482,16482,16495,16495,16495,16511,16511,16519,16519,16531,16531,16544,16544,16544,16544,16561,16561,16561,16568,16568,16568,16568,16579,16579,16579,16579,16595,16596,16596,16605,16605,16605,16605,16616,16616,16616,16629,16629,16629,16645,16645,16645,16654,16665,16665,16677,16677,16677,16696,16696,16696,16703,16703,16704,16704,16704,16704,16718,16718,16718,16719,16719,16734,16735,16735,16735,16745,16745,16745,16752,16752,16752,16764,16764,16765,16779,16779,16788,16788,16800,16800,16811,16811" d="m298,214.89999c0,1.75717 -0.05261,2.66341 0.05716,3.40451c0.14981,1.01128 0.57977,1.81639 0.77618,2.76216c0.16135,0.77701 0.16132,1.60796 0.16666,2.66667c0.00357,0.70499 0,1.67999 0,2.54134c0,0.94682 0,1.836 0,2.8255c0,0.82066 0,1.48517 0,2.4865c0,0.855 -0.00391,1.47499 0.00015,2.83499c0.0022,0.74002 0.00452,1.52087 0.05701,2.34001c0.08374,1.3069 0.15668,1.76059 0.2955,2.68649c0.13977,0.93216 0.29971,1.84123 0.36334,2.2825c0.17651,1.2244 0.25781,2.29703 0.27332,2.948c0.02911,1.22102 0.01068,2.11234 0.01068,2.67967c0,1.20833 0,2.02083 0,2.86333c0,0.925 0,1.845 0,2.631c0,0.82201 0,1.88068 0,2.82201c0,0.67799 0,1.64684 0,2.46132c0,0.86853 0,2.06384 0,2.65952c0,0.8685 0,1.93784 0,2.8685c0,0.6315 0,1.63599 0,2.436c0,1 0,1.79999 0,2.79999c0,0.80002 0,1.60001 0,2.60001c0,0.79999 0,1.79999 0,2.60001c0,1.00015 0,1.82083 0,2.96667c0,0.7905 0,1.64398 0,2.23465c0,1.19867 0,2.09866 0,2.69867c0,1.20016 0,2.11066 0,2.73599c0,0.64935 0,2.048 0,2.78934c0,0.74933 -0.00925,1.49069 0.00134,2.89069c0.00497,0.65872 -0.00909,1.3143 0.16531,2.65067c0.09387,0.71942 0.26266,1.44717 0.40802,2.172c0.26602,1.32654 0.35812,2.1532 0.45065,2.87598c0.12219,0.95468 0.33728,1.73538 0.54935,2.56003c0.27142,1.05545 0.39276,1.76239 0.42084,2.56366c0.03632,1.03568 0.00446,1.98315 0.00449,2.6825c0.00009,1.17932 -0.03793,1.79535 0.08533,2.66449c0.14377,1.01358 0.44324,1.896 0.61917,2.59067c0.30911,1.22064 0.4035,1.68661 0.591,2.68649c0.09814,0.52338 0.27502,1.59659 0.34732,2.13669c0.20947,1.56509 0.27631,2.52859 0.30002,2.98199c0.04474,0.85593 0.0549,1.65268 0.05716,3.09732c0.00104,0.66434 0,1.30069 0,2.22018c0,1.20132 0,1.80133 0,2.70132c0,1.19983 0,1.7955 0,2.664c0,1.06934 0,2 0,2.83466c0,1.00134 0,1.80133 0,2.80133c0,0.80002 0,1.79984 0,2.57919l0,0.99933l0,0.71698" id="svg_8" stroke-width="2" stroke="#000" fill="none"/>
  <path t="17465,17623,17636,17637,17651,17651,17667,17667,17667,17672,17673,17673,17673,17673,17683,17683,17683,17683,17683,17695,17695,17695,17695,17695,17711,17711,17711,17720,17721,17721,17732,17732,17744,17760,17769,17770,17793,17793,17805,17879,17990,18018,18126" d="m305,340.89999c0,1.82535 0,2.83334 0,3.62534c0,1.03635 0.00604,1.83636 -0.00015,2.79633c-0.00534,0.82507 0.00558,1.42978 -0.1665,2.74503c-0.09464,0.72333 -0.26584,1.47867 -0.40802,2.28c-0.14883,0.83871 -0.30978,2.17422 -0.34,2.63733c-0.0614,0.94061 -0.07697,1.89063 -0.08084,2.36331c-0.01132,1.38599 -0.00449,2.26602 -0.00449,3.10602c0,0.79999 0,1.56 0,2.625c0,0.97501 0,1.85999 0,2.90018c0,0.68549 0,1.52014 0,2.517c0,0.74731 0,1.76849 0,2.70898c0,0.86218 0,1.6955 0,2.67401c0,0.82016 0,1.7215 0,2.62149l0,0.89999l0,0.89999l0,0.90002" id="svg_9" stroke-width="2" stroke="#000" fill="none"/>
  <path t="19613,19792,19793,19807,19807,19807,19807,19819,19819,19819,19828,19828,19844,19844,19865,19865,19877,19894,19901,19926,19939,19939,19951,19962,19978,19987,19999,19999,19999,20010,20011,20036,20037,20073,20073,20111,20133,20149,20168,20168,20197,20233,20256,20429,20444,20465,20489,20502,20503,20514,20528,20544,20545,20576,20576,20576,20661,20783,20808,20808,20833,20844,20844,20860,20860,20870,20870,20881,20881,20894,20894,20919,20919,20931,20956,20968,20980,20980,21004,21029,21030,21051,21055,21066,21077,21093,21114,21114,21152,21152,21152,21201,21226,21251,21274,21289,21312,21374,21374,21471,21631,21655,21692,21728,21729" d="m297,378.89999c2.01434,0 2.82132,0 4,0c0.60001,0 1.5,0 2.39999,0c0.89984,0 1.78934,0 2.64285,0c1.03549,0 1.9155,0 2.7905,0c0.79199,0 1.81934,0 2.51398,0c1.01669,0 1.95267,0 2.85269,0c0.89999,0 1.79999,0 2.59998,0c0.90002,0 1.80002,0 2.70001,0c0.92133,0 1.83334,0 2.50983,0c0.77551,0 2.06851,0 2.7435,0c1.08002,0 1.87201,0 2.73068,0c0.86331,0 1.75882,0 2.716,0c0.89999,0 1.79999,0 2.59998,0c0.90002,0 1.80005,-0.0054 2.70001,0c0.8894,0.00534 1.49176,0.52063 1.5,1.39999c0.00842,0.89999 -0.38608,1.73837 -0.716,2.40002c-0.42056,0.84335 -0.284,1.836 -0.284,2.68665c0,0.76001 0,1.93451 0,2.728c0,0.77551 0.41614,2.03885 -0.16666,2.61868c-0.60245,0.5994 -1.63333,0.16666 -2.59052,0.16666c-0.89999,0 -1.64734,0 -2.64282,0c-0.80002,0 -1.80002,0 -2.60001,0c-1,0 -1.78934,0 -2.83334,0c-0.79199,0 -1.65067,0 -2.51398,0c-1.01669,0 -1.85269,0 -2.75269,0c-0.89999,0 -1.69998,0 -2.65717,0c-0.89551,0 -1.77835,0.17331 -2.72198,-0.02081c-0.86722,-0.17841 -1.66959,-0.5654 -2.35419,-1.14584c-0.66714,-0.56564 -1.33331,-0.83334 -2.1875,-0.83334c-0.97916,0 -1.76849,0 -2.49384,0c-1.07465,0 -1.88531,0 -2.78531,0c-0.90002,0 -1.99777,0.31903 -2.616,-0.28534c-0.62204,-0.60809 -0.85461,-1.54465 -1.68402,-1.70398c-0.94778,-0.18207 -1.45267,-0.65802 -2.23334,-1.17734l-0.16666,-0.83334l0,-0.79999" id="svg_10" stroke-width="2" stroke="#000" fill="none"/>
  <path t="23530,23727,23727,23740,23740,23752,23752,23766,23766,23788,23788,23811,23828,23849,23873,23898,23922,23923,23935,23958,23972,23982,23982,23982,23995,24012,24012,24020,24032,24044,24070,24081,24094,24094,24111,24118,24119,24130,24130,24145,24155,24192,24192,24210,24216,24228,24244,24253,24253,24278,24294,24294,24302,24314,24314,24327,24344,24344,24351,24363,24378,24378,24387,24387,24399,24399,24412,24428,24437,24461,24485,24485,24500,24517,24533,24534,24559,24559,24571,24572,24583,24608,24620,24621,24632,24645,24645,24660,24660,24670,24671,24681,24695,24695,24695,24710,24710,24730,24743,24761,24791,24805,24816,24817,24828,24843,24853,24865,24865,24877,24878,24894,24902,24903,24914,24927,24927,24943,24951,24963,24963,24984,25003,25014,25037,25037,25049,25049,25062,25078,25086,25111,25128,25137,25151,25165,25177,25178,25184,25184,25196,25196,25211,25232,25232,25244,25260,25260,25282,25306,25331,25343,25361,25367,25379,25380,25393,25394,25410,25410,25410,25417,25429,25444,25444,25454,25465,25490,25490" d="m325,307.89999c-1.836,-0.01065 -2.61456,-0.04001 -3.60001,-0.35266c-0.81262,-0.25784 -1.79761,-0.59494 -2.60001,-0.63666c-0.99854,-0.05191 -1.82501,0.1282 -2.77847,-0.23199c-0.66013,-0.24939 -1.52133,-0.76825 -2.42151,-0.77869c-0.89993,-0.01041 -1.80002,0 -2.70001,0c-0.89999,0 -1.69998,0 -2.60001,0c-0.89999,0 -1.72131,0 -2.63333,0c-0.91733,0 -1.66132,0 -2.69598,0c-0.97067,0 -1.77075,-0.01172 -2.67068,0c-0.8002,0.01044 -1.6756,0.46542 -2.39981,0.87866c-0.79199,0.45193 -1.09323,1.24539 -1.60468,1.82135c-0.65021,0.73227 -1.13422,1.41171 -1.37952,2.18533c-0.30338,0.95679 -0.72571,1.62494 -1.30533,2.47867c-0.4964,0.73114 -0.44247,1.67242 -0.69598,2.436c-0.25635,0.77216 -0.76239,1.7171 -1.35068,2.17465c-0.74261,0.57755 -1.479,1.01273 -1.56265,1.82535c-0.09802,0.95212 0.11722,1.8732 -0.08667,2.716c-0.21481,0.888 -0.85251,1.57736 -0.91333,2.36932c-0.07196,0.93726 -0.00134,1.948 -0.00134,2.70401c0,0.91064 0,1.82132 0,2.73215c0,0.88916 0,1.87833 0,2.65768c0,0.99933 0,1.71631 0,2.62082c0,0.89999 -0.13272,1.81049 0.00449,2.70001c0.14368,0.9314 0.63568,1.53214 1.04819,2.39999c0.39792,0.83716 1.0939,1.3605 1.64734,2.05716c0.54877,0.69077 0.86359,1.44131 1.39981,2.22134c0.50949,0.74115 0.77621,1.58932 1.25735,2.3215c0.52191,0.79422 1.22815,1.29391 2.04282,1.67465c0.88971,0.4158 1.45392,0.87961 2.25717,1.32083c0.72232,0.39676 1.73901,0.65216 2.50684,0.69385c0.95065,0.05161 2.00266,0.01065 2.672,0.01065c0.76532,0 1.75949,0 2.67868,0c0.96448,0 1.88531,0 2.78531,0c0.90002,0 1.80002,0 2.70001,0c0.79999,0 1.70007,0.01016 2.60001,0c0.92102,-0.01041 1.71594,-0.23459 2.57465,-0.57465c0.79901,-0.31644 1.59018,-0.57233 2.46133,-1c0.82059,-0.40286 1.58527,-0.319 2.47867,-0.70935c0.95477,-0.41714 1.58536,-0.76868 2.38535,-1.216c0.79999,-0.44733 1.73865,-0.60303 2.21466,-1.30133c0.51077,-0.7493 0.89822,-1.54141 1.50684,-2.07733c0.70764,-0.62314 1.49222,-0.86172 1.72583,-1.7695c0.198,-0.76929 0.90692,-1.39453 1.05133,-2.15317c0.16806,-0.88281 0.00134,-1.79868 0.00134,-2.69867c0,-0.89999 0,-1.79999 0,-2.69998c0,-0.90018 0,-1.68533 0,-2.63602c0,-0.76532 0,-1.75949 0,-2.67865c0,-0.86002 0,-1.80667 0,-2.66c0,-0.94 0,-1.82535 0,-2.62534c0,-0.89999 0,-1.80002 0,-2.70001c0,-0.89999 0,-1.79999 0,-2.69998c0,-0.90018 0.03723,-1.68646 -0.01068,-2.64667c-0.04205,-0.84225 -0.26733,-1.83765 -0.48932,-2.63251c-0.21033,-0.75311 -0.47141,-1.70517 -0.5,-2.62085c-0.02808,-0.89957 -0.08533,-1.69998 -0.61066,-2.5l-0.58801,-0.59998l-0.63467,-0.80002l-0.25067,-0.71466" id="svg_11" stroke-width="2" stroke="#000" fill="none"/>
  <path t="26987,27220,27242,27255,27292,27321,27342,27366,27390,27390,27403,27403,27414,27415,27426,27426,27445,27452,27453,27476,27476,27488,27500,27500,27512,27526,27538,27549,27549,27562,27577,27577,27587,27587,27598,27599,27610,27610,27611,27627,27635,27635,27648,27648,27648,27660,27661,27677,27685,27685,27696,27696,27710,27710,27727,27727,27727,27733,27745,27745,27761,27771,27771,27782,27782,27794,27820,27843,27843,27868,27905,27930,27955,27955,27967,27979" d="m301,91.9c0,1.8 0,2.7 0,3.6c0,0.9 0,1.8 0,2.7c0,0.89999 0,1.7 0,2.58533c0,0.95067 0,1.716 0,2.71467c0,0.8 0,1.79867 0,2.564c0,0.95067 0,1.836 0,2.72133c0,0.94 0,1.63067 0,2.61467c0,0.984 0,1.67467 0,2.74284c0,0.95716 0,1.85716 0,2.75716c0,0.8 0,1.636 0,2.48534c0,0.91917 0,1.91467 0,2.71466c0,1 0,1.8 0,2.8c0,0.78933 0,1.51466 0,2.5c0,0.98667 0,1.74667 0,2.66666c0,0.78151 0,1.8235 0,2.69034c0,0.94034 0,1.77899 0,2.62833c0,0.91917 0,1.91467 0,2.71468c0,1 0,1.79999 0,2.79999c0,0.78934 0,1.51468 0,2.5c0,0.98401 0,1.67467 0,2.74734c0,0.91933 0,1.75266 0,2.73116c0,0.82018 0,1.72151 0,2.54234c0,0.96317 0,1.65382 0,2.722c0,0.95717 0,1.85716 0,2.75716l0,0.8l0,0.90001l0,0.89999" id="svg_12" stroke-width="2" stroke="#000" fill="none"/>
  <path t="28598,28777,28789,28789,28802,28803,28803,28803,28803,28819,28819,28819,28819,28819,28836,28837,28837,28837,28837,28837,28841,28841,28841,28841,28851,28852,28852,28862,28862,28878,28878,28885,28885,28885,28897,28897,28897,28897,28911,28911,28911,28911,28911,28911,28911,28911,28928,28928,28928,28928,28928,28928,28929,28934,28935,28935,28935,28935,28935,28947,28947,28947,28947,28947,28947,28961,28962,28962,28979,28979,28979,28979,28984,28984,28995,28995,29012,29012,29012,29012,29021,29021,29021,29021,29033,29033,29033,29033,29033,29033,29045,29045,29046,29046,29046,29046,29062,29062,29062,29062,29062,29070,29070,29071,29081,29082,29082,29082,29095,29095,29095,29095,29112,29112,29112,29112,29118,29119,29119,29131,29131,29131,29145,29145,29145,29162,29162,29162,29162,29168,29169,29169,29169,29179,29179,29179,29195,29195,29195,29204,29204,29205,29216,29217,29217,29228,29228,29245,29246,29246,29254,29254" d="m301,161.89999c0.05716,1.75717 0.36807,2.6618 0.61066,3.28267c0.40778,1.04366 0.60239,1.68562 0.77869,2.40001c0.19025,0.77098 0.36133,1.60139 0.48917,2.939c0.08963,0.93793 0.09213,1.42485 0.11081,2.425c0.00961,0.51495 0.00967,2.12 0.01083,2.67433c0.00232,1.12267 0.00131,1.68324 0.03586,2.78166c0.01669,0.53049 0.11017,2.00043 0.24799,2.84134c0.12311,0.75122 0.33496,1.41553 0.54935,2.65599c0.10266,0.59404 0.15622,1.45821 0.16666,2.66667c0.00702,0.81247 0,1.65483 0,2.54401c0,0.98967 0,1.61066 0,2.56c0,0.87283 0,1.93333 0,2.3335c0,0.87634 -0.00049,2.39583 0.00015,2.96034c0.00067,0.59149 0.00821,1.84354 0.02069,2.49799c0.01279,0.66956 0.02802,1.35139 0.06448,2.0415c0.11081,2.09715 0.19638,2.79356 0.26733,3.487c0.0704,0.6879 0.14832,1.36723 0.22202,2.037c0.14319,1.30113 0.26334,2.53833 0.30399,3.129c0.07761,1.1281 0.09332,1.67114 0.14667,2.72166c0.02603,0.51241 0.13083,2.02263 0.25867,3.01868c0.06345,0.49437 0.21652,1.46092 0.29068,1.93066c0.1423,0.90118 0.32565,2.12747 0.38931,3.2c0.03857,0.65001 0.03601,1.87199 0.03601,2.47067c0,0.88049 0,1.71599 0,2.71599c0,0.87468 0,1.88551 0,2.70618c0,1.14583 0,1.94083 0,2.52083c0,0.94501 0,1.98 0,2.72c0,0.78 0,1.60001 0,2.905c0,0.92 0,1.395 0,2.375c0,1.02 0,1.545 0,2.625c0,1.116 0,1.6815 0,2.8125c0,0.55951 0,1.6515 0,2.6875c0,0.96133 0,1.85066 0,2.67601c0,0.76933 0,1.83583 0,2.82132c0,0.62534 0,1.836 0,2.43733c0,0.91951 0,1.55583 0,2.92c0,0.73135 0,1.47867 0,2.22601c0,1.086 0,2.09549 0,2.73184c0,0.91949 0,2.12082 0,2.72083c0,0.89999 -0.00848,2.09995 0.00449,2.6955c0.01892,0.86887 0.14694,1.94211 0.42084,2.88983c0.21039,0.72797 0.43768,1.54514 0.51752,2.52451c0.05786,0.70956 0.0549,1.44199 0.05716,2.86865c0.00104,0.66434 0,1.30069 0,2.22018c0,1.20132 0,1.80133 0,2.70132c0,1.19983 0,1.7955 0,2.664c0,1.06934 0,2.01068 0,2.68866c0,0.96869 0,1.77267 0,2.59467c0,1.26733 0,1.93185 0,2.95267c0,0.80002 0,1.60001 0,2.60001l0,0.79999" id="svg_13" stroke-width="2" stroke="#000" fill="none"/>
  <path t="29795,29966,29986,29986,29986,29986,29992,29992,29992,29992,29992,30007,30008,30008,30008,30021,30021,30021,30021,30028,30028,30028,30037,30049,30049,30049,30061,30061,30077,30077,30077,30087,30087,30087,30088,30088,30098,30098,30098,30098,30110,30110,30110,30128,30128,30128,30128,30135,30146,30171,30182,30185,30185,30216,30216,30246,30246,30246,30246,30246,30246,30274,30275,30275,30275,30275,30275,30275,30303,30304,30304,30304,30306,30307,30307,30319,30349,30382,30382,30405,30405,30418,30441,30455,30492,30507,30508,30523,30543,30543,30556,30556,30590,30637" d="m307,298.89999c0.03601,1.70801 0.22324,2.76428 0.35266,3.37601c0.14954,0.70688 0.32971,1.49011 0.48068,2.79068c0.10602,0.91345 0.11929,1.38116 0.14581,2.3125c0.02594,0.91077 0.02084,2.1875 0.02084,2.95148c0,0.70801 0,1.7175 0,2.73602c0,0.71597 0,1.448 0,2.5235c0,0.9765 -0.1019,1.80429 0.05716,2.64365c0.17877,0.94333 0.82587,1.82504 0.90683,2.50217c0.09097,0.76071 0.03601,1.76852 0.03601,2.62119c0,0.96448 0,1.78949 0,2.7045c0,1.005 0,1.72366 0,2.47433c0,0.77466 0,1.56534 0,2.76382c0,1.18951 0,1.96417 0,2.71484c0,1.06381 0,1.72815 0,2.67465c0,1.21066 0,1.80801 0,2.66901c0,0.771 0,1.86966 0,2.84167c0,0.89999 0,1.79999 0,2.69998c0,0.75717 0,1.67068 0,2.57602c0,0.92398 -0.0032,1.68405 0.01068,2.564c0.00766,0.48505 0.04004,1.54535 0.07465,2.12c0.11472,1.90491 0.19684,2.5882 0.26733,3.28448c0.07083,0.69971 0.14709,1.39304 0.22202,2.0715c0.1409,1.27606 0.26819,2.38318 0.34,3.27335c0.05685,0.70474 0.08307,1.54083 0.08533,2.79333c0.00143,0.79651 0,1.548 0,2.50299c0,1.01434 0,1.91452 0,2.69968c0,0.94 0,1.63068 0,2.70401c0,0.91064 0,1.81064 0,2.71066c0,0.90134 0,1.58533 0,2.52533c0,1.008 0,1.79999 0,2.82733l0,0.69467l0.01068,1.00598l0.48932,0.64667" id="svg_14" stroke-width="2" stroke="#000" fill="none"/>
  <path t="31952,32134,32135,32135,32135,32150,32150,32150,32150,32151,32165,32165,32165,32166,32171,32171,32172,32185,32185,32185,32185,32186,32195,32195,32195,32195,32195,32195,32195,32210,32210,32210,32211,32211,32211,32211,32219,32219,32220,32220,32220,32230,32230,32230,32231,32243,32243,32260,32260,32269,32280,32280,32293,32309,32309,32317,32317,32329,32329,32344,32344,32345,32359,32359,32366,32366,32366,32377,32377,32394,32395,32395,32395,32403,32403,32404,32404,32415,32415,32415,32427,32427,32443,32443,32443,32452,32452,32476,32494,32494,32503,32503,32504,32513,32513,32514,32514,32534,32534,32535,32535,32535,32541,32541,32541,32542,32553,32553,32562,32562,32562,32577,32577,32599,32611,32611,32627,32636,32636,32647,32647,32660,32660,32660,32661,32677,32677,32677,32678,32678,32678,32685,32686,32686,32686,32696,32697,32697,32697,32711,32711,32711,32728,32728,32734,32734,32745,32761,32761,32761,32777,32778,32778,32783,32783,32783,32783,32794,32794,32794,32794,32794,32794,32810,32810,32811,32811,32811,32820,32820,32821,32821,32821,32831,32832,32832,32832,32832,32843,32843,32843,32843,32843,32860,32860,32861,32861,32861,32869,32869,32869,32869,32870,32881,32881,32881,32881,32893,32893" d="m310,86.9c-0.00134,2.05733 -0.01254,3.08376 -0.05716,3.87067c-0.02374,0.41894 -0.15668,1.7516 -0.2955,2.6775c-0.13977,0.93217 -0.23334,1.38878 -0.36334,2.2825c-0.17807,1.22417 -0.24258,1.95439 -0.27332,2.948c-0.01913,0.61844 0.00443,1.82317 -0.03152,2.74217c-0.02493,0.63688 -0.19836,2.00155 -0.33182,2.74983c-0.14502,0.81309 -0.23959,1.24552 -0.36334,2.18667c-0.13681,1.04029 -0.20248,2.19717 -0.22684,2.80966c-0.02505,0.63019 -0.048,1.92899 -0.05267,2.58933c-0.00467,0.66233 -0.00345,1.97701 -0.00464,2.622c-0.00232,1.26001 -0.00632,1.87508 -0.02069,2.48c-0.02808,1.18022 -0.03513,1.75766 -0.2005,3.41983c-0.05322,0.53486 -0.20273,1.56469 -0.27866,2.05933c-0.14493,0.94404 -0.34668,2.22786 -0.41467,2.9905c-0.06137,0.68836 -0.08307,1.60583 -0.08533,2.65033c-0.00189,0.88 0,1.90016 0,2.61717c0,0.94049 0,1.7885 0,2.65182c0,1.02734 0,1.974 0,2.65266c0,0.97867 0,1.884 0,2.66167c0,0.8 0,2.02234 0,2.56367c0,0.82201 0,2.08932 0,2.75383c0,1.02083 0,1.82083 0,2.62083c0,1.009 0,1.91434 0,2.73334c0,0.9765 0,1.6875 0,2.4185c0,1.42667 0,2.09099 0,2.72733c0,0.91951 0,2.11951 0,3c0,0.56367 0,1.83549 0,2.5c0,1.02083 -0.0018,1.82083 0,2.62083c0.00226,0.9955 0.04309,1.93259 0.42532,2.77467c0.36823,0.81125 0.56424,1.646 0.57468,2.62532c0.00873,0.82129 0,1.51434 0,2.64301c0,0.67134 0,1.39867 0,2.166c0,1.19099 0,1.991 0,2.791c0,0.8 0,1.60001 0,2.79967c0,0.79134 0,1.92833 0,2.62967c0,1.2 0,1.929 0,2.97066c0,0.8 0,1.60001 0,2.5955c0,0.74733 0,1.77917 0,2.72583c0,0.67867 0,1.79333 0,2.67867c0,0.75717 -0.00006,1.66617 0,2.51884c0.00009,1.12433 -0.00412,1.80025 0.02084,2.54366c0.02701,0.80405 0.13745,2.10529 0.26315,3.02151c0.06439,0.46927 0.22018,1.41534 0.36334,2.36333c0.07074,0.46835 0.24426,1.83011 0.2955,2.69099c0.04877,0.81937 0.0549,1.60001 0.05716,2.69501c0.00208,1.00949 0,1.64583 0,2.56534c0,0.90115 -0.00006,1.79066 0,2.64417c0.00009,1.03549 -0.12082,1.95129 0.16666,2.7905c0.27838,0.81271 0.78036,1.59425 1,2.5c0.16534,0.68184 0.457,1.44112 0.66669,2.5c0.18491,0.93375 0.18268,1.62642 0.38815,2.58867c0.18225,0.85352 0.39944,1.49408 0.57983,2.23532c0.31699,1.30255 0.39819,1.79637 0.60934,2.82935c0.10922,0.53436 0.33502,1.61537 0.47467,2.14667c0.40289,1.5327 0.76196,2.45265 0.92932,2.89467c0.32236,0.85129 0.67725,1.65436 0.9425,2.87216c0.17349,0.79659 0.22278,1.62061 0.29099,2.457c0.03491,0.42813 0.16745,1.76515 0.3045,2.7c0.14142,0.96455 0.23428,1.45183 0.36334,2.44417c0.1297,0.99713 0.20798,1.99692 0.24799,2.98799c0.01978,0.48967 0.03375,1.45351 0.03601,2.84401c0.00073,0.44516 0,1.30949 0,2.14583c0,0.81633 0,2.02083 0,2.82083c0,0.8 0,1.59999 0,2.40001c0,1.19968 0,1.991 0,2.75833l0,1.07098l0,0.92752l0,0.98065" id="svg_15" stroke-width="2" stroke="#000" fill="none"/>
  <path t="33620,33801,33802,33802,33816,33816,33816,33816,33831,33832,33832,33832,33832,33836,33837,33837,33837,33848,33848,33848,33860,33860,33860,33860,33878,33878,33878,33886,33886,33886,33886,33886,33886,33898,33898,33898,33898,33898,33898,33910,33910,33910,33910,33910,33910,33926,33927,33927,33927,33934,33935,33935,33935,33947,33947,33947,33960,33960,33960,33976,33977,33984,33984,33984,33995,33995,33995,33995,33995,34010,34010,34010,34010,34026,34026,34027,34027,34027,34033,34033,34033,34045,34045,34059,34060,34060,34070,34070,34081,34093,34093,34093,34110,34110,34119,34119,34130,34130,34143,34143,34143,34143,34159,34160,34160,34160,34167,34168,34179,34179,34180,34194,34194,34216,34216,34229,34244,34254,34277,34277,34292,34293,34315,34315,34327,34327,34343,34343,34351,34351,34363,34363,34388,34388" d="m316,264.89999c0,2.01883 0,2.85733 0,3.48801c0,1.03366 0,2.15866 0,2.95868c0,0.41498 0,1.72 0,2.63599c0,0.93201 0,1.39651 0,2.3075c0,1.27652 0,2.03918 0,3.06818c0,0.63266 0,1.84167 0,2.74167c0,0.60001 0,1.79999 0,2.69998c0,0.60001 0,1.5 0,2.70267c0,0.61868 0,1.61169 0,2.73068c0,0.83865 0,1.28549 0,2.22916c0,1.00366 0,1.52551 0,3.15884c0,0.56265 0,1.13132 0,2.27866c0,0.57468 0,1.716 0,2.83334c0,1.07999 0,1.60501 0,2.625c0,0.495 0,1.45499 0,2.82001c0,0.85999 0,1.67999 0,2.45999c0,1.095 0,1.77634 0,2.74084c0,0.61633 0,1.82065 0,2.71014c0,0.57468 0,1.88919 0,2.57468c0,0.83466 0,1.84052 0,2.69318c0,0.96448 0,1.78949 0,2.3895c0,1.32001 0,2.03867 0,2.78934c0,0.77466 0,1.56534 0,2.76398c0,0.80002 0,1.60001 0,2.40002c0,1.19998 0,1.99866 0,2.78934c0,0.77466 0,1.52533 0,2.92398c0,0.64001 0,1.52499 0,2.56519c0,0.90067 0.03186,1.92255 -0.01068,2.7215c-0.04272,0.80234 -0.36447,1.78702 -0.63666,2.54282c-0.32242,0.89526 -0.35266,1.82385 -0.35266,2.69885c0,0.64499 0,1.64099 0,2.4375c0,1.1875 0,2 0,2.84265c0,0.74066 0,2.01151 0,2.64749c0,0.69202 0,1.41602 0,2.86401c0,0.67999 0,1.625 0,2.20499c0,1.27634 0,1.94086 0,2.96167c0,0.80002 0,1.60001 0,2.60001c0,0.79999 0,1.79868 0,2.74283c0,0.89999 0,1.85718 0,2.75717c0,0.89999 -0.04361,1.65845 0.00449,2.54816c0.04245,0.78552 0.90778,1.50385 0.99103,2.17068c0.11761,0.94186 0.00449,1.68115 0.00449,2.84784c0,0.8125 -0.00006,1.65482 0,2.54398c0.00009,0.98917 0.02084,1.76852 0.2215,2.76767l0.483,0.66" id="svg_16" stroke-width="2" stroke="#000" fill="none"/>
  <path t="35763,35935,35951,35951,35951,35963,35963,35963,35963,35970,35971,35971,35981,35981,35981,35981,35995,35995,35995,36010,36011,36020,36020,36031,36031,36045,36045,36060,36060,36067,36068,36080,36080,36080,36080,36080,36094,36094,36094,36094,36110,36111,36111,36117,36117,36117,36117,36129,36129,36145,36145,36160,36161,36166,36166,36178,36178,36194,36194,36203,36203,36215,36215,36228,36229,36229,36244,36245,36245,36252,36252,36252,36263,36263,36276,36276,36293,36293,36312,36313,36328,36328,36344,36350,36360,36361,36376,36377,36377,36386,36386,36387,36398,36398,36399,36411,36411,36411,36427,36428,36436,36437,36447,36448,36460,36460,36484,36484,36497,36509,36526,36533,36534,36534,36545,36545,36545,36545,36560,36560,36560,36560,36570,36570,36571,36571,36594,36594,36610,36621,36621,36637,36651,36651,36662,36662,36679,36680,36705,36705" d="m315,87.9c0.57468,1.672 0.89255,2.54131 0.97467,3.272c0.0939,0.83537 0.23877,2.02979 0.37799,2.628c0.21011,0.90285 0.41992,1.492 0.56201,2.70133c0.10754,0.91547 0.08307,1.55582 0.08533,2.56533c0.00241,1.0815 0,1.8125 0,2.52351c0,1.26683 0,2.03783 0,2.70083c0,1.009 0,1.809 0,2.80884c0,0.96416 0,1.91616 0,2.68417c0,0.952 0,1.71733 0,2.716c0,0.8 0,1.80267 0,2.672c0,1.06133 0,1.69866 0,2.39999c0,0.74934 0,1.53067 0,2.72784c0,0.79567 0,1.96416 0,2.71484c0,1.06383 0,1.72816 0,2.67466c0,1.21067 0,1.80933 0,2.68983c0,0.83549 0,1.83549 0,2.71017c0,1.01067 0,1.81065 0,2.81065c0,0.78934 0.00061,1.83334 0,2.62534c-0.00067,0.85867 0.0318,1.75626 -0.35266,2.62201c-0.29752,0.66995 -0.62814,1.58809 -0.646,2.35399c-0.02338,1.0029 -0.00134,1.85583 -0.00134,2.82018c0,0.8145 0,1.683 0,2.57849c0,0.89551 0,1.76401 0,2.83334c0,0.7095 0,1.56216 0,2.56534c0,0.76532 0,1.85316 0,2.57066c0,1.036 0,1.78 0,2.88783c0,0.75749 0,1.62683 0,2.49016c0,1.01668 0,1.854 0,2.81934c0,0.66934 0,1.83333 0,2.644c0,0.6465 0,1.61084 0,2.42534c0,0.8685 0,2.06383 0,2.6595c0,0.8685 0,1.93784 0,2.8685c0,0.83467 0,1.836 0,2.636c0,1 0,1.8 0,2.79984c0,0.77933 0,1.6335 0,2.55283c0,0.90001 0,1.76334 0,2.61134c0,0.93599 0,1.83733 0,2.80266c0,0.69067 0,1.60533 0,2.47633c0,1.02901 0,1.77834 0,2.55966c0,1.19717 0,1.99284 0,2.7765c0,0.76367 0,1.85417 0,2.85918c0,0.62 0,1.47499 0,2.47499c0,0.84 0,1.9295 0,2.78683c0,0.78517 0,1.72517 0,2.73317c0,0.79199 0,1.65199 0,2.57117c0,0.9955 0,1.7955 0,2.7955l0,0.79999" id="svg_17" stroke-width="2" stroke="#000" fill="none"/>
  <path t="37444,37600,37601,37601,37618,37618,37618,37626,37626,37626,37636,37636,37636,37636,37648,37649,37649,37661,37661,37661,37661,37677,37677,37677,37677,37686,37686,37686,37686,37697,37697,37697,37710,37710,37711,37727,37727,37727,37734,37734,37734,37746,37746,37746,37746,37760,37760,37760,37760,37777,37777,37777,37777,37784,37784,37784,37784,37784,37795,37796,37796,37796,37810,37810,37810,37810,37826,37826,37826,37832,37832,37832,37844,37844,37844,37844,37860,37860,37860,37870,37870,37881,37881,37881,37905,37919,37919,37929,37944,37944,37961,37961,37968,37968,37968,37979,37979,37979,37995,37995,37995,38011,38011,38011,38017,38028,38043,38052,38053,38064,38077,38095,38095,38095,38102,38102,38102,38102,38114,38114,38114,38114,38126,38127,38127,38127,38145,38145,38145,38145,38151,38152,38152,38163,38163,38177,38177,38193,38193,38200,38200,38212,38212,38227,38227,38244,38249,38250,38262,38262,38276,38276,38277,38286,38286,38286,38298,38298,38310,38310,38326,38347,38347,38371,38384,38384,38396,38409,38427,38433,38433,38445,38445,38460,38476,38482,38494,38511,38511,38529" d="m316,214.89999c0.35266,2.01434 0.59628,2.8165 0.716,3.40268c0.24286,1.18915 0.27017,2.09717 0.27951,2.69733c0.01868,1.19986 -0.0047,2.10118 0.0405,2.7c0.09082,1.20366 0.31824,2.09962 0.46399,2.7c0.21835,0.89944 0.4054,1.79785 0.46399,2.70001c0.05835,0.89865 0.03601,1.79999 0.03601,2.7045c0,0.9315 -0.00299,1.58083 0.00015,2.61684c0.00223,0.73134 0.01331,1.85518 0.08517,2.59467c0.10361,1.06615 0.26852,1.72655 0.48935,2.67332c0.14209,0.60916 0.35992,1.80946 0.40448,2.71066c0.02963,0.5995 0.02084,1.8 0.02084,2.70001c0,0.59999 0,1.79999 0,2.6955c0,0.8685 0,1.93784 0,2.65633c0,0.7095 0,1.78151 0,2.75801c0,0.711 0,1.442 0,2.5235c0,1.01401 0,1.66666 0,2.65067c0,1.03766 0,1.77768 0,2.55768c0,0.81998 0,2.125 0,2.5795c0,0.927 0,1.858 0,2.76898c0,1.27652 0,2.03918 0,2.73785c0,0.65067 0,1.87198 0,2.77197c0,0.60001 0,1.5 0,2.70001c0,0.60001 0,1.5 0,2.70001c0,0.59998 0,1.5 0,2.69998c0,0.60001 0,1.5 0,2.39999c0,0.89984 0,1.78934 0,2.64285c0,1.03568 0,1.93634 0,2.95715c0,0.78934 0,1.51468 0,2.5c0,0.98401 0,1.67468 0,2.74283c0,0.85736 0,1.64252 0,2.60385c0,0.84 0,1.83865 0,2.67416c0,0.58368 0,1.77899 0,2.66849c0,0.85352 0,1.88934 0,2.58536c0,0.90933 0,1.90799 0,2.7045c0,0.7515 0,1.84882 0,2.72083c0,0.89999 0,1.79999 0,2.60001c0,0.89999 0,1.87198 0,2.74316c0,0.7395 0,1.62299 0,2.6235c0,0.71732 0,1.83331 0,2.58066c0,1.086 0,1.76868 0,2.75266c0,0.65268 0,2.02133 0,2.75269c0,0.74731 0,1.49466 0,2.58066c0,1.00949 0,1.64584 0,2.56534c0,0.90115 0,1.79065 0,2.64417c0,1.03549 0,1.9155 0,2.93582c0,0.77402 0,1.6785 0,2.42584c0,0.99548 0,1.7955 0,2.79532c0,0.77936 0,1.77869 0,2.59885c0,0.9585 0,1.85849 0,2.60583c0,0.99683 0,1.83148 0,2.76218c0,0.78598 0,1.608 0,2.66666c0,0.93066 0,1.76532 0,2.76666c0,0.79999 0,1.79868 0,2.564c0,0.95068 0,1.836 0,2.63602c0,0.95715 0,1.85266 0,2.716c0,0.96317 -0.07568,1.78729 0.00134,2.68533c0.08368,0.9758 0.51685,1.59122 0.832,2.63199c0.22372,0.7388 0.16666,1.66666 0.16666,2.56665c0,0.90002 0.00134,1.80002 0.22134,2.70001l0.42599,0.60001l0.34198,0.89999" id="svg_18" stroke-width="2" stroke="#000" fill="none"/>
  <path t="42004,42172,42173,42173,42173,42186,42186,42186,42186,42186,42203,42203,42203,42203,42203,42219,42219,42219,42220,42220,42223,42223,42223,42223,42223,42232,42232,42232,42233,42233,42233,42244,42245,42245,42245,42245,42245,42245,42245,42260,42260,42260,42260,42260,42260,42275,42275,42275,42275,42281,42282,42282,42293,42294,42294,42309,42309,42309,42319,42319,42319,42330,42331,42331,42331,42342,42342,42342,42342,42359,42359,42359,42359,42368,42368,42368,42379,42380,42380,42392,42392,42410,42410,42410,42417,42417,42417,42428,42429,42442,42442,42442,42459,42459,42465,42465,42476,42493,42493,42503,42503,42503,42515,42515,42515,42515,42526,42526,42526,42527,42543,42543,42543,42551,42552,42552,42563,42563,42575,42576,42594,42594,42600,42612,42612,42625,42625,42642,42642,42642,42650,42650,42650,42661,42662,42662,42676,42676,42676,42676,42686,42686,42686,42699,42699,42699,42710,42710,42711,42711,42726,42726,42735,42735,42747,42747,42748,42759,42760,42776,42776,42785,42795,42796,42809,42809,42809,42826,42826,42826,42833,42833,42848" d="m320,89.9c0.284,2.05733 0.43521,2.71677 0.57468,3.468c0.15213,0.8194 0.31531,2.15278 0.36816,3.08916c0.02701,0.47854 0.05048,1.45347 0.05582,2.44417c0.00537,0.99865 0.00134,1.99733 0.00134,2.49416c0,0.98367 0,1.94733 0,3.33784c0,0.44517 0,1.30949 0,2.14583c0,0.81634 0,2.02084 0,2.82217c0,0.80933 0,1.63467 0,2.484c0,1.33667 0,1.804 0,2.78267c0,0.51534 0,1.608 0,2.18933c0,1.24267 -0.00012,2.59467 0.00449,3.30067c0.0047,0.71801 0.01328,1.44207 0.03152,2.166c0.0181,0.71809 0.01511,1.42664 0.18533,3.41133c0.05219,0.60833 0.12592,1.18941 0.27866,2.28133c0.07214,0.5157 0.24561,1.49081 0.37851,2.8615c0.08282,0.85408 0.10715,1.65923 0.117,2.403c0.01309,0.98543 0.00449,1.80901 0.00449,2.76701c0,0.97333 0,1.78783 0,2.65633c0,0.89549 0,1.791 0,2.6595c0,1.06934 0,1.78783 0,2.49733c0,1.07201 0,2.04851 0,2.75951c0,0.731 0,1.8125 0,2.82649c0,0.65266 0,1.63667 0,2.67401c0,0.73132 0,1.47865 0,2.226c0,1.431 0,2.091 0,3.006c0,1.08 0,1.78951 0,2.64217c0,1.00583 0,1.8405 0,2.77116c0,0.786 0,1.608 0,2.66667c0,0.93066 0,1.56216 0,2.56799c0,0.83467 0,2.02 0,2.82401c0,0.54933 0,1.853 0,2.528c0,1.08 0,1.836 0,2.7675c0,0.96584 0,1.72583 0,2.64583c0,0.7905 0,1.644 0,2.83333c0,0.60133 0,1.52084 0,2.15718c0,1.364 0,2.09099 0,2.82199c0,0.711 0,1.978 0,2.75951c0,0.944 0,1.94533 0,2.76132c0,0.81601 0,1.81467 0,2.68935c0,0.81065 0,1.78983 0,2.644c0,0.86217 0,1.80266 0,2.65199c0,0.72534 0,1.71468 0,2.51466c0,1 0,1.81067 0,2.68535c0,1 0,1.83549 0,2.71599c0,0.89867 0,1.79868 0,2.69867c0,0.89999 0,1.8 0,2.7c0,0.60001 0,1.8 0,2.7c0,0.60001 0,1.8 0,2.70001c0,0.59999 0,1.79999 0,2.6955c0,0.58366 0,1.41916 0,2.64734c0,0.85266 0,1.65717 0,2.45715c0,1 0,1.8 0,2.60001c0,1 0,1.8 0,2.9955c0,0.74733 0,1.65184 0,2.57117c0,0.85417 0,1.83333 0,2.644c0,0.87468 0,1.87334 0,2.68933c0,0.81601 0,1.81334 0,2.65334l0,0.96133" id="svg_19" stroke-width="2" stroke="#000" fill="none"/>
  <path t="43621,43790,43790,43803,43803,43817,43818,43818,43818,43827,43827,43827,43827,43827,43843,43843,43843,43843,43855,43855,43855,43855,43863,43863,43863,43863,43863,43876,43876,43876,43876,43876,43876,43876,43892,43892,43892,43892,43892,43892,43892,43892,43892,43900,43900,43900,43900,43900,43900,43900,43911,43911,43911,43911,43911,43911,43926,43926,43926,43926,43943,43943,43943,43943,43949,43949,43949,43960,43961,43961,43961,43961,43976,43976,43976,43977,43977,43977,43986,43986,43986,43986,43986,43986,43986,43997,43997,43997,43997,43997,43997,44010,44010,44010,44010,44027,44027,44027,44034,44035,44035,44059,44076,44076,44076,44083,44084,44084,44096,44096,44096,44096,44109,44109,44110,44110,44120,44120,44120,44120,44132,44132,44132,44144,44144,44160,44160,44170,44170,44181,44181,44193,44193,44209,44209,44219,44219,44230,44230,44230,44243,44259,44267,44268,44279,44293,44293,44309,44310,44315,44316,44316,44328,44328,44328,44344,44344,44353,44353,44365,44376,44376,44394,44403,44403,44413,44438" d="m322,245.89999c0.42532,1.83601 0.79288,2.58707 0.94284,3.60901c0.0965,0.65758 0.05716,1.72433 0.05716,2.70534c0,0.72733 0,1.49466 0,2.68565c0,0.8 0,1.60001 0,2.39999c0,0.80002 0,1.99985 0,2.7955c0,0.78369 0,1.54733 0,2.63785c0,1.01401 0,1.66666 0,2.65067c0,1.03799 0,1.78665 0,2.59933c0,0.89267 0,1.37399 0,2.98132c0,0.59268 0,1.21133 0,1.854c0,1.34933 0,2.052 0,2.77066c0,1.47736 0,2.23203 0,2.99469c0,0.76865 0,1.54132 0,2.31598c0,0.77469 0,1.54733 0,2.31601c0,1.51733 -0.00806,2.26205 0.009,3.71332c0.00827,0.70273 0.02597,1.3877 0.06299,2.052c0.03586,0.64307 0.24481,2.42233 0.37085,2.95401c0.23624,0.99649 0.57263,1.88351 0.74249,2.29666c0.32187,0.78293 0.82397,1.83557 1.168,2.84268c0.22003,0.64417 0.41364,1.30267 0.56134,2.70932c0.07761,0.73892 0.0788,1.49063 0.08398,2.23199c0.00745,1.06265 -0.0069,2.05969 0.03735,2.70935c0.09158,1.34457 0.24771,2.0614 0.38931,2.82132c0.14908,0.80008 0.3103,1.63763 0.40802,2.52002c0.10181,0.91928 0.13431,1.89056 0.14581,2.39581c0.02402,1.05618 0.02017,1.6095 0.02084,3.38019c0.00024,0.62531 0,1.26266 0,1.90799c0,1.29868 0,1.944 0,2.58133c0,1.23468 0,2.396 0,2.94916c0,1.05634 0,1.56152 0,2.53085c0,1.36615 0,2.22183 0,3.02548c0,0.74368 0,2.01968 0,2.80118c0,0.7095 0,1.6825 0,2.47598c0,0.77551 -0.09821,1.99823 0.16666,2.95203c0.19568,0.70474 0.56155,1.28555 0.93317,2.25482c0.30945,0.80713 0.5831,1.67542 0.73352,2.57849c0.14969,0.89874 0.16022,1.83594 0.16531,2.48535c0.00812,1.03595 0.00134,1.76733 0.00134,2.88931c0,0.74133 0,1.80402 0,2.47269c0,0.978 -0.00836,1.63669 0.00134,3.034c0.005,0.72269 -0.08832,1.44122 0.16531,2.61865c0.17545,0.81451 0.74539,1.48734 0.82886,2.25717c0.09702,0.89478 0.00449,1.84418 0.00449,2.84283c0,0.79999 0,1.79868 0,2.564c0,0.952 0,1.72 0,2.68268c0,0.84 0,1.836 0,2.63251c0,0.7515 0,1.84882 0,2.72083c0,0.90018 0,1.68533 0,2.62534c0,1.008 0,1.79999 0,2.66132c0,0.76001 0,1.93484 0,2.74933c0,0.57468 0,1.76401 0,2.65503c0,0.83698 0,1.77567 0,2.58817c0,1.00482 0,1.6955 0,2.76364c0,0.85736 0,1.64252 0,2.58252c0,1.008 0,1.76401 0,2.67465l0,0.89999" id="svg_20" stroke-width="2" stroke="#000" fill="none"/>
  <path t="46473,46730,46743,46743,46767,46804,46804,46855,46878,46940,46976,47000,47001,47014,47026,47042,47042,47050,47050,47062,47062,47075,47111,47197,47234,47345,47777,48153,48252,48288,48325,48336,48398,48473,48509,48545,48565,48580,48597,48608,48619,48655,48705,48779,48804,48902,49098,49257,49342,49363,49403,49415,49440,49525,49601,49623,49638,49652,49667,49678,49733,49746" d="m298,86.9c-1.75717,0 -2.65268,0 -3.51599,0c-0.85867,0 -1.80533,0 -2.65866,0c-0.94,0 -1.92975,0.08868 -2.82535,0c-0.8457,-0.08374 -1.21097,-0.97215 -1.57468,-1.6c-0.44598,-0.76986 -0.42532,-1.7 -0.42532,-2.60267c0,-0.768 0,-1.80267 0,-2.54667c0,-1.10767 0,-1.94167 0,-2.75066c0,-0.9 -0.18451,-2.14651 0.52084,-2.47916c0.79538,-0.37512 1.8013,0.17611 2.67783,-0.02217c0.79868,-0.18067 0.12799,-0.8202 -0.18799,-1.60933c-0.32306,-0.80679 -0.70615,-1.03452 -1.48984,-1.41017c-0.70325,-0.33708 -0.68365,-1.41722 -1.16818,-2.03183c-0.51199,-0.64944 -0.35266,-1.64733 -0.35266,-2.54733c0,-0.9 -0.00067,-1.8 0,-2.7c0.00067,-0.89866 0.35571,-1.6714 1.20001,-1.7c0.89948,-0.03047 2.25546,0.45834 2.25833,0c0.00534,-0.84774 -1.14597,-0.58254 -1.46902,-1.38933c-0.31598,-0.78914 -0.98706,-1.31516 -0.98932,-2.21067c-0.00226,-0.9 0,-1.8 0,-2.7c0,-0.9 0.00015,-1.79984 0.22134,-2.57833l0.72598,0.231" id="svg_21" stroke-width="2" stroke="#000" fill="none"/>
  <path t="50707,51047,51317,51333,51348,51352,51376,51450,51474,51549,51572,51597,51609,51658,51674,51683,51683,51707,51719,51744,51758,51774,51805,51829,51841,51859,51867,51867,51878,51903,51903,51939,51953,51964,51988,52026,52026,52063,52137,52199,52213,52235,52246,52246,52259,52274,52283,52283,52295,52308,52308,52357,52542,52565,52590,52615,52615,52627,52651,52675,52789,52800,52813,52830,52836,52847,52897,52920,52934,52934,53142,53142,53179,53180,53314,53338,53365,53380,53449,53498,53755,53791,53792,53976,54123,54147,54162,54162,54183,54295,54318,54344,54360,54379,54379,54540" d="m290,54.9c1.79999,0 2.81561,0.00297 2.99866,-0.80133c0.1994,-0.87626 0.00134,-1.79866 0.00134,-2.69867c0,-0.9 -0.00009,-1.8 0,-2.7c0.00009,-0.89983 0.30557,-1.56969 0.94733,-2.15266c0.57932,-0.52624 1.5015,-0.54346 2.25269,-0.93134c0.65692,-0.33919 1.52686,-0.53003 2.39999,-0.752c0.86227,-0.21921 1.69131,-0.75026 2.34732,-1.31667c0.59238,-0.51148 1.35266,-0.64734 2.25269,-0.64734c0.89999,0 1.79999,0 2.59998,0c0.95718,0 1.85269,0 2.716,0c0.96317,0 1.784,0 2.68402,0c0.89999,0 1.79999,0 2.59998,0c0.90002,0 1.92334,-0.14665 2.58936,0.436c0.69785,0.61049 0.56287,1.66527 0.61066,2.564c0.04272,0.8034 0.74707,1.53792 0.96399,2.41067c0.21985,0.88447 0.03601,1.764 0.03601,2.704c0,0.88533 -0.01874,1.68553 0,2.58533c0.01801,0.86456 0.49005,1.01105 1.2215,0.42133c0.64621,-0.52099 1.18936,-0.97297 1.80383,-1.68533c0.52557,-0.60929 1.57471,-0.4414 2.47467,-0.436c0.8894,0.00533 1.48956,0.52065 1.5,1.4c0.01068,0.89993 0.15045,1.81269 -0.00015,2.69983c-0.14471,0.85236 -1.09164,1.13327 -1.75702,1.60466c-0.71536,0.5068 -1.6178,1.09241 -1.24283,1.2955c0.70343,0.38099 1.54321,0.22578 2.22134,0.87867c0.57904,0.55749 0.77866,1.32133 0.77866,2.22133c0,0.9 -0.1543,1.81626 -1,1.9c-0.79608,0.07883 -2.2767,0.25803 -1.7785,0.8785c0.55527,0.69154 1.81494,-0.04665 2.57849,0.20683c0.77219,0.25634 1.84863,0.70275 2.17917,1.4355c0.3616,0.80163 0.01184,1.77467 -0.54849,2.39516l-0.7825,0.13667l-0.88651,0.3045" id="svg_22" stroke-width="2" stroke="#000" fill="none"/>
  <path t="55362,55642,55643,55667,55667,55691,55715,55715,55730,55747,55753,55764,55802,55825,55842,55842,55850,55862,55862,55900,55900,55911,55926,55963,55984,56170,56220,56237,56248,56248,56261,56261,56267,56267,56267,56278,56290,56290,56307,56307,56316,56328,56328,56352,56353,56365,56376,56391,56401,56413,56425,56426,56442,56462,56462,56475,56499,56499,56511,56512,56524,56542,56542,56549,56549,56559,56560,56575,56575,56591,56598,56609,56868,56885,56901,56906,56906,56917,56940,56965,56989,56990,57014,57014,57026,57026,57042,57043,57043,57052,57052,57052,57052,57052,57062,57063,57063,57063,57075,57075,57075,57092,57092,57092,57100,57100,57112,57125,57142,57149,57149,57161,57161,57175,57192,57210,57210,57235,57248,57248,57259,57275,57275,57285,57296,57382,57406,57470,57494,57517,57523,57524,57524,57524,57538,57538,57538,57548,57548,57548,57548,57561,57561,57561,57566,57566,57567,57577,57577,57602,57602,57615,57615,57627,57627,57642,57642,57651,57652,57652,57664,57664,57664,57676,57676,57676,57693,57693,57693,57700,57700,57712,57737,57762,57798,57799,57835,57847,57873,57873,58057,58093,58118,58129,58144,58144,58159,58159,58159,58166,58166,58166,58178,58178,58178,58179,58192,58192,58209,58209,58209,58216,58226,58227,58244,58258,58276,58276,58291,58313,58325,58342,58350,58362,58362,58411,58412,58449,58460,58484,58497,58597,58658,58695,58716,58716,58721,58721,58722,58737,58737,58737,58746,58746,58746,58758,58758,58767,58768,58779,58779,58779,58792,58792,58792,58809,58809,58816,58865,58877,58893,58893,58893,58908,58909,58909,58914,58914,58926,58943,59001,59020" d="m324,70.9c1,1.16666 1.69449,1.60331 1.91467,2.484c0.21033,0.84122 -0.06311,1.81287 0.30667,2.616c0.35849,0.77858 0.7764,1.59999 0.77866,2.5c0.00223,0.9 0.00067,1.8 0,2.7c-0.00067,0.89999 -0.1235,1.73539 -0.7045,2.39999c-0.55637,0.63644 -1.29483,1.30067 -1.89551,1.9c-0.60065,0.59933 -1.27899,1.13852 -2.21466,1.37467c-0.8468,0.21372 -1.41739,0.84311 -2.28516,1.0255c-0.79233,0.16653 -1.50208,1.17834 -1.86417,0.55317c-0.43881,-0.75768 -0.03601,-1.76401 -0.03601,-2.75333c0,-0.8 0,-1.8 0,-2.58933c0,-0.72533 0,-1.71067 0,-2.69601c0,-0.72533 0,-1.7145 0,-2.49383c0,-0.99934 0,-2.02084 0,-2.778c0,-0.8955 0,-1.75883 0,-2.722c0,-0.92084 0,-1.82084 0,-2.72083c0,-0.9 0,-1.8 0,-2.60001c0,-0.836 0.0036,-1.85267 0,-2.54733c-0.00534,-1.02737 -0.23929,-1.96728 -0.5,-2.6735c-0.35822,-0.97034 -0.1763,-1.88101 -0.66666,-2.64584c-0.4498,-0.70155 -0.83267,-1.22 -0.83334,-2.16933c-0.00055,-0.76534 0,-1.764 0,-2.564c0,-0.99866 0,-1.94283 0,-2.84283c0,-0.95717 0.08868,-1.86155 0,-2.75717c-0.08374,-0.8457 -0.77368,-0.72993 -1.22134,0.1c-0.34933,0.64764 -0.77332,1.49995 -0.77866,2.4c-0.0054,0.91065 0.00061,1.82133 0,2.67467c-0.00067,0.94133 -0.07687,1.7123 -0.35266,2.487c-0.28592,0.80317 -0.55426,1.75755 -0.61133,2.585c-0.06299,0.91338 -0.03601,1.92 -0.03601,2.63867c0,0.75067 0,1.52533 0,2.316c0,1.1985 0,1.99417 0,2.77783c0,1.13551 0,2.19917 0,2.85917c0,0.915 0,1.995 0,2.7045c0,0.85267 0,1.85583 0,2.8c0,0.9 0,1.85716 0,2.75716c0,0.9 0,1.65717 0,2.55267c0,0.86333 0,1.8265 0,2.758c0,0.91067 0,1.58933 0,2.56783c0,1.0215 0,1.8215 0,2.6575c0,1.01666 0,1.71133 0,2.728c0,0.936 0,1.836 0,2.736c0,0.9 0.06339,1.42525 -0.00449,0.591c-0.08411,-1.03368 -0.34763,-1.70695 -0.60617,-2.51234c-0.18701,-0.58252 -0.60074,-1.77616 -0.77869,-2.38934c-0.2731,-0.94102 -0.45776,-1.95454 -0.52664,-2.672c-0.10507,-1.09468 -0.08203,-1.81544 -0.25067,-2.784c-0.14423,-0.82841 -0.53424,-1.7261 -0.93335,-2.53333c-0.39642,-0.80178 -0.72537,-1.38782 -1.1955,-2.4c-0.3674,-0.79099 -0.54218,-1.60697 -0.72983,-2.564c-0.16122,-0.8223 -0.72659,-1.55883 -1.17334,-2.32133c-0.41055,-0.70073 -0.72168,-1.7105 -0.78049,-2.51466c-0.07294,-0.99755 -0.02084,-1.81067 -0.02084,-2.45717c0,-1.22816 0,-1.77883 0,-2.64733c0,-1.19534 0,-2.08483 0,-2.6595c0,-1.06933 0.06329,-2.00995 -0.08533,-2.83467c-0.18246,-1.01258 -0.61914,-1.68703 -1.30402,-2.34c-0.61063,-0.58219 -1.13785,-1.27077 -1.48917,-2.16133c-0.26062,-0.66069 -0.12149,-1.6 -0.12149,-2.536c0,-0.848 0.99533,-2.70667 0,-2.70667c-0.14532,0 0,1.04267 0,1.97867c0,0.84933 0,1.7685 0,2.76667c0,0.639 0,1.368 0,2.56667c0,0.692 0.00143,1.416 0,2.864c-0.00067,0.68 0.03528,1.32362 -0.05716,2.205c-0.10986,1.0473 -0.52109,1.91852 -0.77618,2.96167c-0.19003,0.77717 -0.16599,1.51466 -0.16666,2.5c-0.00067,0.984 0,1.67467 0,2.74284c0,0.85716 0,1.75716 0,2.55717c0,0.89999 0,1.8 0,2.7c0,0.9 0,1.8045 0,2.66666c0,0.83334 0,1.81184 0,2.632c0,0.90133 0,1.80133 0,2.70133c0,0.9 0.19797,1.82238 -0.00134,2.69867c-0.18069,0.7945 -0.9516,0.23197 -0.99417,-0.66483c-0.04529,-0.95411 -0.00449,-1.75917 -0.00449,-2.58117c0,-1.03133 0,-1.72733 0,-2.63667c0,-1 0,-1.816 0,-2.632c0,-0.99866 0.013,-1.87341 -0.00015,-2.884c-0.01041,-0.8002 -0.15762,-1.80289 -0.42517,-2.61067c-0.2149,-0.6489 -0.46133,-1.60957 -0.54935,-2.404c-0.08582,-0.77467 -0.39304,-1.77325 -0.74133,-2.58266c-0.3735,-0.868 -0.284,-1.80267 -0.284,-2.624c0,-0.912 0,-1.84 0,-2.6305c0,-1.02666 0,-1.71217 0,-2.54683c0,-0.99683 0,-1.916 0,-2.8805l0,-0.92083l0,-0.9l0.00266,-0.89867" id="svg_23" stroke-width="2" stroke="#000" fill="none"/>
  <path t="61514,61697,61698,61714,61714,61731,61731,61736,61758,61775,61783,61783,61794,61821,61831,61843,61856,61879,61893,61917,61942,61959,61966,61966,61966,61978,61978,61978,61978,61991,61991,61991,61991,62008,62015,62039,62052,62064,62076,62101,62101,62112,62124,62140,62151,62174,62199,62199,62234,62235,62247,62259,62274,62274,62285,62296,62297,62309,62310,62325,62334,62345,62345,62395,62419,62443,62457,62492" d="m248,248.89999c0.70984,-2.59549 1.17995,-3.16927 1.9785,-3.97849c0.49734,-0.50398 1.32535,-1.14514 1.73616,-1.8215c0.47142,-0.77614 1.00934,-1.44427 1.56934,-2.11734c0.50749,-0.60995 0.60927,-1.51974 1.23683,-2.06183c0.65231,-0.56346 1.15245,-1.24863 1.70052,-1.89951c0.55762,-0.66225 0.62988,-1.41103 1.13132,-2.06866c0.51608,-0.67686 1.33789,-0.73958 2.14734,-1.11517c0.77121,-0.35783 0.89111,-1.26096 1.31433,-2.05099c0.48508,-0.90552 0.94189,-1.49635 1.44699,-2.07584c0.51099,-0.58627 1.5687,-1.64737 2.052,-2.12267c0.64063,-0.63 1.27856,-0.99927 2.14502,-1.66716c0.60669,-0.46767 0.84314,-1.39528 1.64148,-1.89951c0.77048,-0.48662 1.32407,-0.93524 2.10019,-1.40666c0.67636,-0.41083 1.30576,-1.18417 2.09549,-1.662c0.65671,-0.39735 1.29053,-0.93559 2.00449,-1.40984c0.79166,-0.52586 1.16418,-1.27945 2.18402,-1.5575c0.6702,-0.18272 1.75882,-0.08534 2.616,-0.08534c0.89999,0 1.69998,0 2.65717,0c0.89999,0 1.64734,0 2.64151,0c0.76532,0 1.84415,0 2.70132,0c0.89999,0 1.69998,0 2.60001,0c0.89999,0 1.79999,0 2.69998,0l0.89999,0" id="svg_24" stroke-width="2" stroke="#000" fill="none"/>
  <path t="63671,63866,63866,63878,63878,63892,63892,63915,63915,63926,63926,63976,64001,64025,64042,64049,64080,64080,64099,64119,64138,64138,64157,64157,64157,64177,64177,64177,64196,64196,64220,64234,64234,64252,64271,64271,64290,64307,64307,64345,64346,64367,64368,64368,64370,64371,64391,64393,64393,64407,64430,64430,64442,64466,64502,64503,64516,64516,64526,64541,64541,64558,64558,64588,64625,64626,64651,64651,64663,64687,64711,64785,64809,64809,64809,64883" d="m324,216.89999c2.79999,0 3.60001,0 4.60001,0c0.79999,0 1.79999,0 2.60001,0c0.99982,0 1.77914,0 2.63333,0c0.86215,0 1.76666,0 2.66666,0c0.89999,0 1.8121,-0.02159 2.48532,0.42534c0.74396,0.4939 1.40863,0.52844 2.37869,1c0.77728,0.37785 1.46762,0.91917 1.89066,1.46133c0.68686,0.88026 1.27533,1.13133 2.064,1.62933c0.98199,0.62009 1.64209,0.99263 2.28,1.19734c0.97495,0.31287 2.06714,0.13153 2.75467,0.73332c0.76764,0.67191 0.33469,1.72954 1.00385,2.4435c0.63657,0.6792 1.44312,0.91087 2.04282,1.50984c0.7005,0.69965 1.19885,1.25644 2.08667,1.8c0.73245,0.44846 1.67941,0.80147 2.46152,1.09999c0.78992,0.3015 1.72495,0.68924 2.37982,1.08934c0.77991,0.47647 1.71124,0.43423 2.47198,0.696c0.77957,0.26825 1.39734,1.11737 2,1.71466c0.59735,0.59203 1.49219,0.92087 2.29984,1.42168c0.65082,0.40356 0.77527,1.44588 0.95285,2.12566c0.27463,1.05127 1.06067,1.5679 1.51132,2.28867c0.48651,0.77808 0.43375,1.71132 0.436,2.61134c0.00229,0.91933 -0.13901,1.79959 0.22134,2.73116c0.3009,0.77785 0.76822,1.52132 0.77866,2.42151c0.01041,0.89993 0.00134,1.80133 0.16666,2.76666l0.26935,0.65868l0.36533,0.69066l0.58801,0.84801" id="svg_25" stroke-width="2" stroke="#000" fill="none"/>
  <path t="66207,66403,66440,66458,66501,66513,66526,66543,66543,66562,66612,66612,66648,66660,66675,66696,66709,66725,66746,66759,66783,66795,66808,66825,66832,66858,66872,66893,66910,66924,66943,66943,66959,66959,66967,66967,66967,66978,66978,67003,67004,67017,67028,67042,67065,67076,67076,67101,67114,67126,67142,67142,67163,67163,67175,67176,67192,67192,67199,67199,67211,67226,67242,67242,67249,67261,67275,67322,67322,67340,67347,67359,67359,67375,67384,67384,67407,67425,67425,67433,67433,67444,67458,67459" d="m369,287.89999c-1.60001,0.61069 -2.39639,1.23297 -2.83334,2c-0.44427,0.77988 -1.10577,1.21524 -1.16666,2.10001c-0.0618,0.89786 0,1.70001 0,2.65717c0,0.89551 0,1.59018 0,2.60684c0,0.936 -0.32498,2.11505 0.35718,2.57883c0.69757,0.47427 1.39264,0.68002 2.16367,1.03635c0.78891,0.36456 1.57153,0.4281 2.1265,1.07349c0.50046,0.582 0.89474,1.39304 1.64816,1.89465c0.68927,0.45892 0.69559,1.45825 1.2045,2.05267c0.50638,0.59146 1.28632,1.03891 1.79999,1.71436c0.48523,0.63803 0.86035,1.70886 1.22086,2.26483c0.58258,0.89847 1.31314,1.37137 1.99515,1.81949c0.74103,0.48691 1.35474,1.02237 2.13669,1.50134c0.68353,0.4187 1.53186,1.08881 2.34732,1.53333c0.78806,0.42957 1.36163,0.92795 2.09982,1.38815c0.71716,0.44711 0.89175,1.3963 1.3255,2.1785c0.4548,0.82016 0.48508,1.71521 0.66,2.48535c0.18124,0.79797 0.62711,1.51526 1.11334,2.51334c0.3714,0.76239 0.6413,1.58972 0.854,2.354c0.25436,0.91394 0.72845,1.56232 0.91132,2.61133c0.16089,0.92297 0.34705,1.68054 0.75201,2.436c0.40521,0.75595 0.80133,1.55035 1.19998,2.39999c0.40372,0.86044 0.84821,1.44623 1.47336,2.19998c0.54523,0.65738 0.97412,1.33365 1.75998,1.62534c0.83417,0.30963 1.11411,1.19424 1.65201,1.77469c0.67221,0.7254 1.50119,1.33234 1.84149,1.95715c0.45172,0.82938 0.35583,1.75885 0.35718,2.74283l0,0.82135l0,0.85333" id="svg_26" stroke-width="2" stroke="#000" fill="none"/>
 </g>
 <g display="none">
  <title>muse_image</title>
  <image xlink:href="http://farm2.static.flickr.com/1334/1250348458_3691905acf.jpg" id="muse" height="480" width="360" y="0" x="140"/>
 </g>
 <g display="none">
  <title>bbox</title>
  <rect stroke="#f00" fill="none" stroke-width="3" height="462.72" width="193.92" y="4.8" x="226.4" id="bbox"/>
 </g>
</svg>
