<svg width="640" height="480" xmlns="http://www.w3.org/2000/svg" xmlns:svg="http://www.w3.org/2000/svg" xmlns:xlink="http://www.w3.org/1999/xlink">
 <!-- Sketchy ANNOTATION
  ImageNet ID: n02676566_6631
  URL: http://farm1.static.flickr.com/225/493218376_e099c1f15d.jpg
  Image Width: 375
  Image Height: 500
  BBox X: 85
  BBox Y: 17
  BBox Width: 193
  BBox Height: 466
  Exposure: 2000ms
  Synset Label: guitar
  Synset ID: n03467517
  Worker Tag: acoustic guitar slanted against wall
  Sanity Check: 
   Saved
  Comment: 
   {}
  Worker ID: A1P7U2ULSAE7YL
  Assignment ID: 3P59JYT76LKDO4UT5LVNSX762TCT2U
  HIT ID: 3FK4G712NX03RJ0IKY01KQT3VRMSST
  Work Time: 149s
  Worker Score: 0.7857
 END ANNOTATION -->
 <g display="inline">
  <title>Layer 1</title>
  <path t="5823,5982,5990,6001,6007,6014,6023,6023,6030,6039,6046,6054,6071,6071,6087,6087,6095,6095,6103,6111,6119,6119,6127,6136,6143,6158,6158,6167,6167,6175,6185,6191,6209,6209,6217,6217,6223,6231,6246,6246,6255,6255,6271,6271,6278,6287,6294,6302,6310,6326,6334,6334,6350,6350,6366,6366,6374,6390,6406,6406,6416,6422,6422,6430,6438,6446,6454,6462,6470,6487,6488,6503,6510,6526,6526,6537,6542,6553,6560,6568,6583,6590,6600,6616,6616,6622,6623,6638,6655,6655,6663,6670,6678,6687,6695,6709,6711,6711,6718,6727,6736,6743,6750,6759,6769,6774,6775,6783,6783,6791,6801,6807,6816,6832,6839,6840,6854,6854,6862,6870,6878,6894,6903,6910,6926,6926,6934,6942,6950,6950,6959,6966,6974,6975,6982,6990,6999,7006,7015,7019,7031,7031,7039,7047,7047,7054,7054,7062,7078,7086,7094,7102,7118,7118,7126,7135,7152,7168,7174,7206,7238,7254,7254,7286" d="m317.51135,99.09091c0,2.436 0,3.38934 0,4.28533c0,0.91467 0,1.81467 0,2.71467c0,0.8 0,1.7 0,2.6c0,0.9 0,1.78934 0,2.73334c0,0.6875 0,1.64533 0,2.55067c0,0.94133 0,1.632 0,2.70533c0,0.82133 0,1.732 0,2.58533c0,0.93867 0,1.88667 0,2.68667c0,0.972 0,1.764 0,2.79133c0,0.69467 0,1.71133 0,2.64733c0,0.9 0,1.80016 0,2.58533c0,0.94 0,1.63068 0,2.70399c0,0.82133 0,1.73201 0,2.58534c0,0.94133 0,1.70934 0,2.66133c0,0.76534 0,1.755 0,2.83067c0,0.76933 0,1.73332 0,2.63333c0,0.89999 0,1.80016 0,2.58533c0,0.95067 0,1.716 0,2.71017c0,0.74733 0,1.75783 0,2.68983c0,0.916 0,1.59999 0,2.53999c0,1.008 0,1.87016 0,2.77467c0,0.89999 0,1.79999 0,2.7c0,0.89867 0,1.75267 0,2.7c0,0.8 0,1.7 0,2.52083c0,0.96317 0,1.82651 0,2.722c0,0.95717 0,1.85718 0,2.75717c0,0.83333 0,1.7045 0,2.60001c0,0.81065 0,1.72133 0,2.57466c0,0.94133 0,1.70934 0,2.65067c0,1.008 0,1.87016 0,2.77467c0,0.89999 0,1.79999 0,2.7c0,0.89999 0,1.8 0,2.7c0,0.8 0,1.7 0,2.60001c0,0.89999 0,1.79999 0,2.7c0,0.89999 0,1.8 0,2.7c0,0.75717 0,1.65266 0,2.51601c0,0.96317 0,1.88399 0,2.7795c0,0.81433 0,1.72533 0,2.68317c0,0.774 0,1.674 0,2.53734c0,0.96317 0,1.88399 0,2.784c0,0.89999 0,1.79984 0,2.65182c0,0.75801 0,1.56551 0,2.6375c0,0.82133 0,1.73201 0,2.58534c0,0.94 0,1.92534 0,2.82533c0,0.8 -0.36316,1.79689 0.03601,2.564c0.39514,0.75938 0.96332,1.23734 0.96399,2.136c0.0007,0.94284 -0.0954,1.88232 0.05719,2.65184c0.18259,0.92079 0.85486,1.6355 0.93832,2.40533c0.09653,0.89029 0.00449,1.75883 0.00449,2.79616c0,0.88268 0,1.74667 0,2.64667c0,0.90001 0,1.8 0,2.60001c0,0.89999 0,1.8 0,2.7c0,0.89999 0,1.7955 0,2.7215c0,0.87851 0,1.7785 0,2.57851l0,0.89999" id="svg_3" stroke-width="2" stroke="#000" fill="none"/>
  <path t="9310,9454,9463,9470,9486,9496,9502,9510,9518,9526,9526,9542,9542,9550,9550,9566,9574,9574,9582,9582,9582,9590,9598,9606,9606,9614,9622,9622,9630,9630,9638,9638,9646,9655,9662,9662,9670,9670,9679,9686,9695,9695,9695,9702,9712,9718,9718,9726,9726,9734,9742,9750,9750,9758,9758,9762,9763,9774,9783,9783,9798,9806,9806,9814,9814,9822,9830,9830,9838,9838,9846,9854,9854,9862,9862,9870,9870,9870,9878,9886,9895,9902,9903,9912,9918,9934,9934,9943,9943,9950,9950,9958,9958,9966,9974,9990,9990,9998,9999,10006,10006,10014,10014,10022,10030,10038,10046,10054,10062,10062,10070,10078,10078,10086,10095,10102,10112,10118,10118,10126,10134,10142,10158,10166,10174,10182,10190,10209,10225,10225,10231,10238,10254,10262,10270,10286,10286,10294,10311,10328,10342,10342,10358,10358,10374,10398,10398,10422,10422,10454,10486,10518,10550,10558,10558,10598,10630,10678,10702,10766,10794,10822,10886,10886,10934,10942,11022,11031,11047,11086,11126,11158,11182,11214,11230,11254,11270,11334,11342,11366,11382,11406,11430,11430,11470,11534,11550,11574,11686,11710,11718,11758,11766,11821,11830,11862,11934,12103,12126,12166,12166,12222,12238,12294,12342,12374,12414,12454,12478" d="m341.51135,97.09091c0,1.8 0,2.7 0,3.564c0,0.872 0,1.83601 0,2.736c0,0.9 0,1.8 0,2.7c0,0.75716 0,1.65717 0,2.4045c0,0.99284 0,1.88117 0,2.88217c0,0.88 0,1.73417 0,2.71333c0,0.78933 0,1.51466 0,2.58933c0,0.82133 0,1.732 0,2.58533c0,0.93999 0,1.82533 0,2.71066c0,0.95067 0,1.716 0,2.71017c0,0.74734 0,1.7685 0,2.60583c0,0.96534 0,1.79867 0,2.77717c0,0.82016 0,1.62151 0,2.56317c0,1.00099 0,1.709 0,2.45299c0,1.19101 0,2.10535 0,3.00534c0,0.75717 0,1.65266 0,2.51601c0,0.96317 0,1.7885 0,2.80533c0,0.67867 0,1.65733 0,2.56267c0,0.93066 0,1.78267 0,2.65767c0,0.94099 0,1.74849 0,2.745c0,0.88 0,1.71333 0,2.69183c0,0.82016 0,1.6575 0,2.50684c0,0.91916 0,1.91333 0,2.67867c0,0.95067 0,1.836 0,2.72133c0,0.77634 0,1.57634 0,2.79733c0,0.79651 0,1.548 0,2.50301c0,0.91434 0,1.91434 0,2.81433c0,0.8 0,1.7 0,2.52083c0,0.96451 0,1.68983 0,2.67917c0,0.8 0,1.8 0,2.58934c0,1.04399 0,1.90616 0,2.81067c0,0.81065 0,1.7215 0,2.61066c0,0.98917 0,1.76851 0,2.76801c0,0.774 0,1.674 0,2.53734c0,0.96317 0,1.88399 0,2.784c0,0.89999 0,1.8 0,2.7c0,0.8 0,1.636 0,2.48399c0,0.86334 0,1.88 0,2.81601c0,0.89999 0,1.8 0,2.7c0,0.8 0,1.7 0,2.60001c0,0.89999 0,1.79999 0,2.7c0,0.89999 0,1.79984 0,2.64732c0,0.81435 0,1.70534 0,2.56868c0,0.96317 0,1.88399 0,2.784c0,0.89999 0,1.8 0,2.7c0,0.8 0,1.7 0,2.60001c0,0.81065 0,1.72133 0,2.57466c0,0.94133 0,1.70934 0,2.65067c0,1.008 0,1.8 0,2.65866c0,0.86334 0,1.86934 0,2.80135c0,0.91466 0,1.81467 0,2.71466c0,0.8 0,1.7 0,2.60001c0,0.89999 0,1.79999 0,2.7c0,0.89867 0,1.73599 0,2.7c0,0.8 0.3934,1.81339 -0.03598,2.564c-0.39508,0.69066 -1.41711,0.57341 -2.048,1.15201c-0.69406,0.63652 -1.19836,1.2412 -2.116,1.284c-0.89886,0.04192 -1.5636,0.31114 -2.15268,0.94733c-0.53296,0.57559 -1.22192,1.04733 -2.08331,1.05267c-0.96399,0.00597 -1.86401,0 -2.76401,0c-0.89999,0 -1.80002,0 -2.60001,0c-0.89999,0 -1.79999,0 -2.70001,0c-0.88931,0 -1.80148,0.16974 -2.69864,-0.00133c-0.75739,-0.14441 -1.20432,-0.9989 -1.80136,-1.49867c-0.62509,-0.52325 -1,-1.02083 -1,-1.89999c0,-0.90001 0.08212,-1.80377 -0.00015,-2.70001c-0.08368,-0.91144 -0.75607,-1.35802 -1.49985,-1.92082c-0.61115,-0.46245 -0.21091,-1.53114 -0.51065,-2.3685c-0.26373,-0.73677 -0.97867,-1.22134 -0.98935,-2.11067l0,-0.89999" id="svg_4" stroke-width="2" stroke="#000" fill="none"/>
  <path t="13702,13870,13878,13884,13902,13934,13942,13950,13966,13966,13982,13998,14022,14038,14062,14118,14134,14166,14214,14278,14310,14342,14414,14422,14446,14454,14510,14526,14550,14622,14622,14638,14774,14790,14822,14854,14854,14886,14911,14966,14990,15006,15086,15118,15190,15190,15286,15334,15358,15374,15382,15398,15398,15414,15422,15439,15462,15478,15478,15486,15566,15582,15606,15646,15662,15671,15694,15694,15710,15718,15726,15750,15798,15830,15846,15854,15854,15870,15886,15910,15934,15939" d="m318.51135,96.09091c0,-1.8 0,-2.6 0,-3.564c0,-0.936 0,-1.79317 0,-2.636c0,-0.89999 0,-1.8 0,-2.6c0,-0.9 0,-1.8 0,-2.7c0,-0.9 0,-1.8 0,-2.7c0,-0.99866 0,-1.85266 0,-2.60133c0,-0.89867 0,-1.79867 0,-2.69867c0,-0.9 -0.27026,-1.83866 0.00452,-2.7955c0.22052,-0.76794 1.07956,-1.11903 1.64282,-1.75716c0.52554,-0.59541 1.39081,-0.77409 2.15268,-1.03267c0.75354,-0.25575 1.48532,-0.91467 2.39999,-0.91467c0.89999,0 1.79999,0 2.60001,0c0.89999,0 1.76401,0 2.63599,0c0.96402,0 1.86401,0 2.76266,0c0.854,0 1.80133,0 2.60135,0c0.91467,0 1.81161,0.01106 2.25266,0.7045c0.48981,0.77008 0.78375,1.64256 1.16867,2.3955c0.39014,0.7632 0.77332,1.49995 0.77866,2.4c0.00531,0.89999 -0.13651,1.85663 0.28403,2.7c0.32993,0.66163 0.7153,1.51467 0.71597,2.41067c0.00064,0.88934 0,1.78934 0,2.68933c0,0.9 0,1.8 0,2.7c0,0.8 0,1.7 0,2.6c0,0.9 0,1.78934 0,2.68533c0,0.91467 0,1.81467 0,2.71467c0,0.8 0,1.7 0,2.6l0,0.9l0,0.9l0,0.8955" id="svg_5" stroke-width="2" stroke="#000" fill="none"/>
  <path t="17206,17493,17494,17518,17550,17574,17598,17614,17614,17630,17639,17678,17694,17710,17726,17750,17758,17758,17766,17806,17814,17838,17862,17886,17894,17918,17942,17966,18000,18022,18094,18094,18102,18126,18182,18222,18270,18318,18350,18406,18414,18422,18462,18470,18502,18526,18566,18614,18662,18678,18709,18710,18718,18742,18806,18870,18878,18934,18974,18982,19006,19028,19126,19158,19367,19455,19471,19495,19607,19663,19711,19727,19758,19871,19911,19943,19959,19975,19991,20022,20046,20060,20086,20127,20127,20151,20167,20191,20223,20230,20262,20279,20303,20303,20327,20342,20351,20382,20407,20422,20455,20478,20526,20566,20615,20615,20671,20687,20695,20726,20750,20823,20854,20903,20919,21023" d="m319.51135,70.09091c-1.16666,-1 -1.74692,-1.53717 -1.96399,-2.4c-0.21976,-0.8735 -0.03601,-1.8 -0.03601,-2.7c0,-0.9 0,-1.7 0,-2.6c0,-0.94283 0,-1.82084 0,-2.7c0,-0.9 0,-1.8 0,-2.7c0,-0.9 0.39294,-1.83035 -0.08533,-2.61467c-0.49005,-0.80362 -0.91467,-1.38533 -0.91467,-2.28533c0,-0.87867 0,-1.7045 0,-2.6c0,-0.9 0,-1.8 0,-2.7c0,-0.89867 0,-1.78534 0,-2.7c0,-0.8 0,-1.7 0,-2.64283c0,-0.878 0,-1.75717 0,-2.65717c0,-0.9 -0.08868,-1.80438 0,-2.7c0.08374,-0.84571 0.82715,-1.35193 1.35269,-1.94733c0.56323,-0.63813 1.25793,-1.04733 2.14731,-1.05267c0.89999,-0.0054 1.80002,0 2.69867,0c0.88535,0 1.80133,0 2.60135,0c0.89999,0 1.79999,0 2.69998,0c0.90002,0 1.80002,0 2.70001,0c0.89999,0 1.79999,0 2.67868,0c0.83731,0 1.73199,0 2.62131,0c0.90002,0 1.80002,-0.00008 2.70001,0c0.89984,0.00008 1.63751,0.34293 2.15268,0.94733c0.55096,0.6464 0.53519,1.57046 1.16815,2.05267c0.67706,0.5158 1.46875,0.9998 1.47916,1.80133c0.01166,0.89859 0,1.79867 0,2.67783c0,0.95684 0,1.82084 0,2.7195c0,0.88667 0,1.80133 0,2.60133c0,0.9 0,1.8 0,2.7c0,0.9 0,1.7955 0,2.7215c0,0.8785 0,1.7785 0,2.5785c0,0.9 0,1.8 0,2.7c0,0.9 0,1.8 0,2.7c0,0.89983 -0.30246,1.36431 -0.87848,2.0215c-0.58456,0.66693 -0.12152,1.7785 -0.12152,2.5785c0,0.9 -0.2002,1.6008 -0.71597,2.284c-0.46457,0.61535 0.18292,1.78974 -0.34119,2.56333c-0.46158,0.6813 -1.54282,0.38866 -2.34283,0.778l-0.79999,0.48933" id="svg_6" stroke-width="2" stroke="#000" fill="none"/>
  <path t="23543,23830,23838,23902,23918,23942,23982,24022,24038,24038,24094,24103,24150,24166,24190,24222,24278,24278,24294,24382,24406,24406,24438,24462,24478,24510,24518,24558,24590,24614,24654,24686,24686,24694,24718,24726,24758,24766,24798,24822,24854,24863,24886,24902,24918,24928,24934,24966,24998,25014,25030,25054,25062,25086,25110,25150,25182,25206,25222,25262,25271,25302,25326,25382,25398,25422,25422,25446,25470,25502,25518,25518,25542,25590,25606,25662,25686,25702,25726,25750,25750,25759,25783,25814,25862,25878,25918,25929,25951,25951,25967,25984,26000,26022,26038,26054,26073,26086,26110,26121,26142,26166,26182,26199,26217,26223,26246,26246,26262,26294,26318,26329,26334,26354,26367,26385,26385,26391,26414,26430,26449,26463,26470,26486,26496,26496,26510,26510,26527,26543,26543,26566,26566,26583,26606,26622,26632,26649,26649,26663,26663,26683,26699,26710,26710,26719,26719,26727,26735,26743,26751,26766,26776,26776,26783,26806,26816,26816,26833,26838,26839,26849,26865,26870,26886,26886,26903,26919,26919,26922,26950,26950,26959,26959,26975,26975,26982,26983,26991,26991,27006,27006,27016,27022,27023,27031,27031,27039,27049,27055,27070,27070,27086,27099,27099,27126,27126,27136,27142,27143,27151,27159,27166,27166,27183,27192,27198,27207,27216,27216,27222,27232,27249,27249,27254,27262,27262,27270,27294,27310,27319,27334,27343,27359,27376,27382,27383,27392,27407,27422,27422,27430,27449,27449,27462,27462,27471,27478,27487,27503,27512,27512,27519,27531,27548,27551,27551,27560,27567,27575,27583,27592,27598,27616,27633,27638,27638,27648,27654,27665,27671,27683,27687,27687,27700,27703,27710,27710,27720,27735,27749,27749,27751,27759,27768,27775,27784,27792,27809,27814,27838,27838,27850,27872,27884,27885,27903,27905,27916,27950,27951,27953,27975,27990,28001,28024,28034,28042,28047,28052,28059,28087,28104,28113,28135,28138,28138,28143,28159,28176,28176,28185,28193,28201,28216,28232,28239,28240,28251,28254,28255,28267,28268,28270,28271,28279,28287,28287,28302,28302,28318,28334,28334,28349,28359,28383,28383,28392,28402,28408,28426,28430,28449,28454,28455,28465,28470,28481,28486,28495,28502,28515,28515,28518,28532,28532,28549,28559,28559,28567,28568,28582,28582,28599,28599,28623,28639,28654,28664,28664,28670,28671,28681,28687,28697,28702,28714,28719,28730,28735,28750,28764,28777,28777,28791,28791,28807,28846,28846,28856,28902,28918,28931,28931,28935,28935,28948,28951,28959,28977,28981,28998,29007,29024,29024,29046,29067,29071,29080,29098,29103,29110,29131,29147,29167,29183,29190,29207,29214,29224,29224,29231,29247,29262,29280,29287,29287,29296,29318,29328,29329,29335,29350,29364,29367,29382,29397,29399,29414,29423,29440,29457,29464,29464,29480,29487,29502,29502,29526,29526,29542,29566,29567,29583,29591,29591,29599,29622,29638,29654,29670,29694,29704,29726,29748,29748,29750,29774,29774,29806,29816,29830,29862,29894,29894,29918,29930,29946,29974,29990,29990,30006,30012,30013,30038,30048,30062,30086,30098,30118,30118,30129,30146,30150,30163,30179,30183,30198,30214,30229,30239,30240,30247,30256,30264,30272,30287,30299,30299,30304,30342,30358,30366,30379,30399,30399,30412,30415,30422,30439,30463,30479,30480,30494,30502,30518,30534,30543,30543,30551,30566,30582,30583,30591,30599,30614,30630,30639,30646,30655,30663,30678,30679,30696,30712,30718,30742,30752,30764,30774,30782,30783,30790,30807,30808,30814,30823,30846,30856,30856,30863,30863,30872,30889,30890,30903,30915,30916,30918,30926,30934,30946,30962,30966,30979,30993,30999,30999,31014,31030,31039,31039,31045,31046,31055,31072,31072,31089,31089,31103,31103,31114,31134,31134,31146,31150,31166,31166,31176,31182,31183,31198,31209,31223,31231,31246,31262,31272,31289,31296,31296,31306,31319,31320,31334,31350,31363,31366,31379,31382,31398,31414,31422,31422,31439,31455,31462,31471,31488,31505,31519,31520,31530,31535,31547,31550,31550,31562,31566,31579,31579,31595,31598,31646,31646,31662,31686,31702,31726,31729,31729,31758,31758,31774,31791,31799,31799,31811,31830,31831,31844,31847,31862,31862,31878,31878,31894,31911,31911,31929,31945,31958,31958,31967,31982,31998,32010,32028,32031,32046,32055,32063,32078,32087,32104,32120,32129,32135,32135,32150,32160,32177,32194,32211,32215,32230,32246,32256,32270,32287,32294,32295,32303,32320,32344,32344,32358,32358,32367,32382,32395,32395,32402,32415,32419,32423,32430,32438,32462,32471,32478,32487,32504,32535,32535,32542,32543,32551,32566,32582,32598,32606,32614,32627,32644,32644,32647,32662,32678,32679,32702,32702,32719,32735,32743,32751,32774,32785,32798,32814,32828,32828,32830,32862,32876,32894,32910,32920,32936,32952,32977,32983,32992,33014,33030,33039,33047,33062,33078,33150,33174,33206,33246,33246,33262,33302,33366,33382,33486,33486,33518,33574" d="m316.51135,215.09091c-1.69998,0 -2.64282,0 -3.52081,0c-0.87918,0 -1.77917,0 -2.67917,0c-0.89999,0 -1.80002,0 -2.60001,0c-0.89999,0 -1.58716,0.31448 -2.36667,0.83333c-0.70746,0.47089 -1.21011,0.63858 -1.8905,1.16217c-0.74722,0.57501 -1.85358,-0.35986 -2.58566,0.06166c-0.81149,0.46724 -1.35718,0.94284 -2.15717,0.94284c-0.89999,0 -1.69177,0.1888 -2.284,0.716c-0.6022,0.53607 -1.45233,1.04492 -2.39517,1.26317c-0.85562,0.19806 -1.72083,0.02083 -2.62082,0.02083c-0.90002,0 -1.70001,0 -2.60001,0c-0.89999,0 -1.73807,0.1628 -2.35266,0.64734c-0.64944,0.51202 -1.64734,0.35266 -2.51135,0.35266c-0.95682,0 -1.85919,-0.24252 -2.72,0.00133c-0.77972,0.22089 -1.31845,0.6302 -2.19516,1.0195c-0.71091,0.31567 -1.22534,1.03185 -2.02084,1.47917c-0.79547,0.44733 -1.24982,1.12286 -2.02081,1.47917c-0.78891,0.36458 -1.14639,0.58635 -1.48984,1.44617c-0.28503,0.71362 -1.36377,0.87611 -1.86801,1.6745c-0.4866,0.77046 -0.83054,1.30286 -1.12582,2.19566c-0.24985,0.75542 -1.55853,0.33063 -1.99551,0.92599c-0.51984,0.70821 -0.2421,1.73228 -0.64731,2.4785c-0.4133,0.76112 -0.23621,1.70816 -0.35718,2.60001c-0.11142,0.82135 -0.84732,1.46861 -0.991,2.39999c-0.13724,0.8895 -0.00452,1.77917 -0.00452,2.65717c0,0.94284 0,1.84283 0,2.74284c0,0.89999 0,1.7 0,2.59999c0,0.90001 0,1.8 0,2.7c0,0.89551 0,1.76668 0,2.70001c0,0.89999 0,1.7 0,2.59999c0,0.90001 0,1.8 0,2.7c0,0.89999 0,1.80002 0,2.69983c0,0.8475 0,1.70151 0,2.60019c0,0.89999 0,1.79999 0,2.69998c0,0.89999 0,1.80002 0,2.70001c0,0.89999 0,1.69998 0,2.61465c0,0.896 0,1.78534 0,2.68533c0,0.89999 0,1.80002 0,2.70001c0,0.89999 0,1.69998 0,2.60001c0,0.89999 0,1.77914 0,2.65717c0,0.94281 0,1.84283 0,2.74283c0,0.89999 0,1.65717 0,2.55267c0,0.86331 0,1.84732 0,2.66849c0,0.8175 -0.27209,1.76727 -0.64731,2.38333c-0.49866,0.8187 -0.29977,1.83023 -0.70535,2.59549c-0.4483,0.84589 -0.64734,1.70001 -0.64734,2.45718c0,0.89551 0.00262,1.75882 0,2.72198c-0.00226,0.82535 -0.22443,1.84088 -0.5,2.52084c-0.33713,0.83182 -0.49774,1.6955 -0.5,2.60001c-0.00226,0.89999 0,1.79999 0,2.69998c0,0.90134 0.11099,1.87717 -0.02081,2.67917c-0.14435,0.8782 -0.79446,1.24704 -1.14584,2.02084c-0.36499,0.80377 -1.2746,1.21185 -1.71201,2.10001c-0.3223,0.65442 -0.86612,1.43771 -1.08533,2.29999c-0.22198,0.87314 -0.2995,1.81952 -0.83734,2.39999c-0.57608,0.62173 -1.41269,1.21375 -1.84149,1.90002c-0.49329,0.78943 -0.55295,1.7569 -0.96783,2.48532c-0.4613,0.80997 -1.03404,1.40997 -1.48917,2.13617c-0.4225,0.67413 -0.73164,1.67883 -0.87483,2.46783c-0.18956,1.04446 -0.56232,1.67496 -1.224,2.41068c-0.52917,0.58838 -0.79713,1.47873 -1.36934,2.284c-0.3898,0.54855 -1.23268,1.3071 -1.41066,2.10532c-0.19386,0.86948 -0.80904,1.4758 -0.98534,2.272c-0.21028,0.94968 0.04489,1.79703 -0.472,2.53867c-0.55154,0.79135 -1.28189,1.1936 -1.78532,2.04285c-0.41931,0.70734 -0.68884,1.67227 -0.77867,2.55716c-0.08125,0.80042 -0.69348,1.43796 -1.38933,1.98532c-0.61662,0.48505 -0.61,1.44669 -0.61067,2.37186c-0.00067,0.94281 0.26512,2.01825 -0.28534,2.55881c-0.62068,0.60953 -1.56557,0.85367 -1.71016,1.78403c-0.12605,0.8111 0.10312,1.79803 -0.06168,2.64731c-0.17963,0.92572 -0.83029,1.64337 -0.9415,2.45267c-0.11502,0.83701 -0.91759,1.35431 -1.00133,2.20001c-0.09026,0.91153 0.18274,1.73087 -0.036,2.60001c-0.21715,0.86279 -0.75302,1.65366 -1.18533,2.5c-0.33473,0.65533 -0.77333,1.49994 -0.77867,2.31067c-0.006,0.91061 0,1.76398 0,2.70398c0,0.9855 0,1.77069 0,2.71066c0,0.69067 0,1.76401 0,2.67468c0,0.89999 0,1.8045 0,2.66666c0,0.83334 0,1.81168 0,2.66669c0,0.81332 0.23592,1.87924 -0.08533,2.59732c-0.34097,0.76218 -0.914,1.37067 -0.91467,2.26935c-0.00067,0.89999 0,1.79999 0,2.69998c0,0.89999 -0.1637,1.8573 0.22133,2.70001c0.3058,0.66931 0.77333,1.49994 0.77867,2.39999c0.00533,0.89996 -0.0909,1.80472 0.00133,2.70001c0.08371,0.81259 0.74919,1.45792 1.29417,2.09998c0.64059,0.7547 0.53635,1.73645 0.78983,2.5c0.25635,0.77219 0.71004,1.57285 1.20001,2.40002c0.40331,0.68085 1.36568,1.21887 1.62933,2c0.28912,0.85654 -0.23705,1.9538 0.30666,2.67865c0.48232,0.64304 0.77867,1.32001 0.77867,2.17401c0,0.94733 -0.40274,1.88373 0.08533,2.66199c0.46432,0.74042 0.95349,1.41888 1.61917,1.92816c0.67752,0.51834 1.53429,0.80637 2.01151,1.44116c0.57629,0.76657 0.23228,1.82172 0.784,2.39517c0.65387,0.67963 1.62524,0.71295 2.33333,1.35419c0.62617,0.56708 1.46849,0.92838 2.08267,1.45065c0.65376,0.55594 1.07155,1.23669 1.084,2.10535c0.01379,0.96323 0.45203,1.44016 1.39999,1.62131c0.83038,0.15866 1.76863,0.54852 2.31468,1.07333c0.55624,0.53461 0.49292,1.66119 1.28531,2.08267c0.64063,0.34073 1.47592,0.66345 2.2955,1.186c0.74146,0.47275 1.47095,0.61166 2.2045,1.16818c0.77704,0.58951 1.1362,1.25064 1.90002,1.8685c0.74609,0.60352 1.52063,0.73306 2.25266,1.3205c0.55072,0.44193 1.25256,1.35794 1.93668,1.84351c0.74503,0.52881 1.59436,0.75626 2.29599,1.24799c0.74942,0.52521 1.47128,0.88495 2.35751,1.49417c0.76535,0.52612 1.5806,0.2912 2.39999,0.76166c0.81207,0.46628 1.35754,0.91748 2.15717,0.94284c0.90137,0.02859 1.62234,0.68619 2.5,0.94284c0.86557,0.25311 1.98441,-0.2713 2.57867,0.27866c0.60922,0.56378 0.7785,1.58597 1.72131,1.76782c0.88376,0.17044 1.80002,0.01001 2.70001,0.01068c0.89865,0.00067 1.46033,0.50363 2.26932,0.91599c0.70773,0.36072 1.59937,0.58078 2.43066,0.91736c0.7572,0.30658 1.64905,0.16174 2.48535,0.45065c0.73859,0.25516 1.71024,0.63651 2.49384,0.69516c0.99692,0.07462 1.91373,0.08185 2.67349,0.3735c0.87448,0.33569 1.71082,0.62933 2.64734,0.64734c0.90118,0.01733 1.86667,0 2.52533,0c1.008,0 1.87018,0 2.77466,0c0.89999,0 1.80002,0 2.70001,0c0.89999,0 1.79984,0 2.67465,0c0.82669,0 1.71387,0.0791 2.54617,0.5c0.79019,0.39963 1.65381,0.49466 2.59518,0.5c0.76797,0.00436 1.70932,0 2.71732,0c0.75601,0 1.64584,0 2.60266,0c0.8685,0 1.73068,0 2.564,0c0.97852,0 1.79868,0 2.70001,0c0.89999,0 1.79999,0 2.70001,0c0.89548,0 1.8215,0 2.69998,0c0.89999,0 1.70001,0 2.60001,0c0.89999,0 1.79999,0 2.70001,0c0.89999,0 1.79999,0 2.69983,0c0.87482,0 1.70169,0.01797 2.60016,0c0.90054,-0.01801 1.61035,-0.61813 2.5,-0.91467c0.85764,-0.28589 1.80038,-0.05997 2.60001,-0.08533c0.90137,-0.02859 1.51035,-0.61813 2.39999,-0.91467c0.85764,-0.28589 1.83826,0.08823 2.60001,-0.17065c0.88791,-0.30176 1.61075,-0.87677 2.52115,-0.91483c0.81757,-0.03418 1.45715,-0.67197 2.19968,-0.979c0.81268,-0.33606 1.80084,0.17404 2.67783,-0.02219c0.80707,-0.18057 1.32199,-0.98822 2.20135,-0.99866c0.89993,-0.01068 1.79999,0 2.69998,0c0.89999,0 1.68997,-0.10278 2.39999,-0.5c0.888,-0.4968 1.64532,-0.88913 2.38535,-1.216c0.89182,-0.39392 1.63742,-0.35239 2.61465,-0.784c0.82727,-0.36539 1.49985,-0.48956 2.61469,-0.5c0.88528,-0.00827 1.71759,0.24078 2.60001,0c0.80783,-0.22043 1.55856,-0.68015 2.33798,-1.05716c0.7916,-0.3829 1.46167,-0.79041 2.34735,-0.95352c0.83142,-0.15311 1.63821,-0.72324 2.39999,-1.07333c0.74973,-0.34454 1.30795,-1.24683 2,-1.63065c0.82449,-0.45728 1.85513,-0.22531 2.58932,-0.71066c0.72968,-0.48236 1.5824,-0.78638 2.21066,-1.14935c0.84567,-0.48859 1.53836,-0.87473 2.116,-1.50934c0.58859,-0.64667 1.24228,-1.14993 1.98401,-1.56332c0.76367,-0.42563 1.8233,-0.52371 2.28934,-1.34201c0.42682,-0.74939 0.84818,-1.35358 1.36334,-1.95798c0.55096,-0.64642 0.46863,-1.51163 0.86865,-2.27417c0.35406,-0.67493 0.9639,-1.26413 1.612,-1.94516c0.60281,-0.63345 0.88095,-1.23441 1.17117,-2.12885c0.24377,-0.75137 1.55539,-0.44193 1.9595,-1.1405c0.43311,-0.74869 0.22888,-1.87579 0.83734,-2.27866c0.82144,-0.54388 1.31796,-1.06604 1.77332,-1.88535c0.43451,-0.78177 0.8783,-1.50723 1.25867,-2.39999c0.32019,-0.75153 0.48157,-1.38687 1,-2.16666c0.47293,-0.71136 -0.17682,-1.73712 0.25201,-2.548c0.4538,-0.85809 0.78934,-1.31421 0.91483,-2.26367c0.12146,-0.9191 0.95709,-1.30402 0.99982,-2.22168c0.04184,-0.89902 0,-1.79999 0,-2.59998c0,-0.90002 -0.00241,-1.81989 0.42535,-2.60001c0.4512,-0.82291 0.81677,-1.5538 1.22198,-2.30002c0.4133,-0.76111 0.35266,-1.71066 0.35266,-2.62131c0,-0.85336 0,-1.79333 0,-2.67868c0,-0.91602 0.05814,-1.70398 0.5,-2.5c0.44379,-0.79947 0.5,-1.70001 0.5,-2.60001c0,-0.89999 0,-1.69998 0,-2.60001c0,-0.89999 0,-1.77914 0,-2.73599c0,-0.86398 0,-1.76401 0,-2.664c0,-0.89999 0,-1.69998 0,-2.53598c0,-1.01669 0,-1.71133 0,-2.72803c0,-0.93149 0,-1.85767 0,-2.80264c0,-0.65869 0,-1.66669 0,-2.52884c0,-0.94049 0,-1.78851 0,-2.65182c0,-0.90002 0,-1.81934 0,-2.63184c0,-1 0,-1.82217 0,-2.72086c0,-0.89999 0,-1.79999 0,-2.69998c0,-0.89999 0,-1.80002 0,-2.70016c0,-0.78519 0.15836,-1.72794 -0.00015,-2.65717c-0.14471,-0.84839 -0.54459,-1.47321 -1.19849,-2.35602c-0.47104,-0.63593 -0.77948,-1.42859 -0.80267,-2.37198c-0.01785,-0.72595 -0.1647,-1.73816 -0.5195,-2.49384c-0.41626,-0.88657 -1.07025,-1.44589 -1.422,-2.31635c-0.33698,-0.83395 -0.85654,-1.36493 -1.04651,-2.3045c-0.18262,-0.90311 -0.24533,-1.71591 -0.58533,-2.57468c-0.31631,-0.79901 -0.26883,-1.85629 -0.48251,-2.52533c-0.27585,-0.86368 -1.51401,-1.00702 -1.90683,-1.73599c-0.45276,-0.84027 -0.61337,-1.50519 -1.06134,-2.17465c-0.49213,-0.73544 -0.75464,-1.64551 -1.14133,-2.38934c-0.40717,-0.78326 -1.2746,-1.21185 -1.71201,-2.10001c-0.3223,-0.65442 -0.77493,-1.46042 -1.41681,-2.19998c-0.57861,-0.66669 -1.12134,-1.25494 -1.58301,-1.92136c-0.49609,-0.71613 -0.56671,-1.51736 -1.06885,-2.13583c-0.57208,-0.70459 -0.68777,-1.47736 -1.10532,-2.34283c-0.39499,-0.8187 -1.52118,-1.00558 -1.91135,-1.73599c-0.40744,-0.76273 0.06302,-1.78799 -0.20267,-2.73065c-0.18927,-0.67157 -0.72797,-1.57825 -1.186,-2.19052c-0.54517,-0.72873 -0.62198,-1.64322 -0.64734,-2.44281c-0.02859,-0.9014 -0.54175,-1.68033 -1.19864,-2.40002c-0.53348,-0.5845 -1.04013,-1.24609 -1.51733,-1.884c-0.57446,-0.76791 -0.38321,-1.70728 -0.85867,-2.47998c-0.43826,-0.71222 -0.34805,-1.61075 -0.44617,-2.45685c-0.11267,-0.97174 -0.79901,-1.56226 -0.97919,-2.422c-0.15228,-0.72672 0,-1.79999 0,-2.65717c0,-0.89999 0,-1.69998 0,-2.61465c0,-0.99518 0.00241,-1.63718 0,-2.64935c-0.00226,-0.93597 -0.38214,-1.78442 -0.71597,-2.52133c-0.33017,-0.72885 -0.28336,-1.63065 -0.28403,-2.61465c-0.00067,-0.98401 0,-1.67468 0,-2.74283c0,-0.85718 0,-1.75717 0,-2.55716c0,-0.90002 0,-1.80002 0,-2.70001c0,-0.89999 0,-1.79999 0,-2.70001c0,-0.89981 0,-1.79999 0,-2.60132c0,-0.89868 0,-1.79868 0,-2.69867c0,-0.89999 0.13657,-1.85663 -0.284,-2.70001c-0.32993,-0.66162 -0.71375,-1.5 -0.716,-2.39999c-0.0022,-0.87915 0.00064,-1.836 0,-2.69998c-0.00067,-0.89868 -0.6102,-1.4379 -0.96399,-2.13602c-0.3909,-0.77133 0.04611,-1.76776 -0.03616,-2.664c-0.08368,-0.91144 -0.64716,-1.59999 -0.99985,-2.39999c-0.35266,-0.8 -0.84702,-1.60913 -1.08398,-2.38533c-0.23737,-0.77759 -0.73584,-1.60699 -0.88,-2.47867c-0.15286,-0.92433 -0.39542,-1.78835 -0.75198,-2.436c-0.47549,-0.86368 -1.12045,-1.34108 -1.26318,-2.22083c-0.15338,-0.94537 -0.49274,-1.35597 -1.01633,-2.03635c-0.57501,-0.74719 0.0137,-1.77634 -0.00452,-2.64732c-0.01801,-0.86006 -0.77542,-1.34242 -1.29999,-2.00534c-0.46936,-0.59317 -0.98987,-1.54228 -1.5,-2.08882c-0.66617,-0.71371 -1.07944,-1.50763 -1.20001,-2.40001c-0.10959,-0.81111 -0.78699,-1.10796 -1.00131,-2c-0.18024,-0.75015 -1.12665,-0.98997 -1.69867,-1.50583c-0.7272,-0.65579 -1.09708,-1.54301 -1.46667,-2.2955c-0.34195,-0.69621 -1.05737,-1.46915 -1.39734,-2.13867c-0.47052,-0.92665 -0.67377,-1.65381 -1.53583,-1.8615c-0.83884,-0.2021 -1.17526,-0.8028 -1.81616,-1.28383c-0.69144,-0.51897 -1.19122,-1.16895 -2.08401,-1.54933c-0.75153,-0.32019 -1.38715,-0.48117 -2.16666,-1c-0.70746,-0.47089 -1.43106,-0.4263 -1.86932,-1.192c-0.39493,-0.68997 -1.46384,-0.96425 -2.36401,-0.97467c-0.89993,-0.01041 -1.90063,0.18057 -2.51599,-0.284c-0.6832,-0.51579 -1.384,-0.71591 -2.284,-0.716c-0.89984,-0.00009 -1.46805,-0.54781 -2.15268,-0.94284c-0.80933,-0.467 -1.84732,-0.05716 -2.74731,-0.05716c-0.90002,0 -1.60001,-0.05716 -2.40002,-0.5c-0.79999,-0.44283 -1.69998,-0.5 -2.59998,-0.5c-0.90002,0 -1.70001,0 -2.61469,0l-0.896,0" id="svg_7" stroke-width="2" stroke="#000" fill="none"/>
  <path t="35231,35398,35398,35470,35479,35494,35510,35519,35519,35534,35542,35550,35558,35582,35598,35598,35607,35622,35646,35655,35662,35694,35703,35710,35718,35734,35742,35766,35782,35798,35814,35830,35846,35846,35854,35878,35886,35902,35918,35934,35934,35942,35966,35976,35988,35999,36006,36016,36032,36032,36039,36055,36071,36094,36104,36110,36111,36126,36142,36158,36174,36190,36199,36206,36222,36238,36263,36271,36278,36294,36310,36350,36359,36374,36390,36398,36415,36422,36438,36446,36462,36486,36502,36510,36534,36543,36574,36598,36606,36630,36654,36694,36694,36711,36726,36742,36766,36798,36808,36823,36847,36848,36855,36880,36883,36903,36919,36920,36935,36943,36959,36967,36991,37015,37023,37039,37049,37055,37063,37079,37088,37095,37111,37135,37151,37167,37167,37183,37183,37192,37207,37207,37215,37215,37232,37239,37255,37271,37279,37288,37304,37319,37327,37343,37367,37367,37375,37407,37415,37439,37448,37455,37465,37471,37479,37503,37527,37543,37559,37599,37615,37624,37639,37655,37695,37695,37712,37719,37759,37791,37800,37815,37839,37887,37959,37975,37991,37999,38020,38023,38023,38031" d="m333.51135,298.09091c-1,-1 -1.79999,-1 -2.69998,-1c-0.89999,0 -1.83478,-0.05295 -2.60001,0.35266c-0.84592,0.44839 -1.48074,0.76419 -2.29999,1.22202c-0.77246,0.4317 -1.5119,0.90472 -2.04733,1.478c-0.64001,0.68524 -1.35355,0.91013 -2.15268,0.94733c-0.91766,0.04272 -1.31708,0.78192 -1.77466,1.60001c-0.43198,0.77231 -1.15094,1.27393 -1.41467,2.01065c-0.29977,0.83737 -0.07022,1.83185 -0.58533,2.41467c-0.5195,0.5878 -1.26178,1.11578 -1.40451,1.99551c-0.15338,0.94534 -0.46695,1.52676 -0.93549,2.2645c-0.43915,0.69147 -0.08536,1.71466 -0.08536,2.51465c0,1.03336 0.00525,1.8107 0,2.70001c-0.00534,0.90005 -0.50049,1.71881 -0.83331,2.5c-0.32019,0.75153 -0.16669,1.71466 -0.16669,2.61066c0,0.88934 0,1.78934 0,2.68933c0,0.90002 0,1.80002 0,2.70001c0,0.79999 0,1.70001 0,2.60001c0,0.96399 -0.12732,1.8461 0.00452,2.69998c0.1438,0.9314 0.84732,1.46863 0.991,2.40002c0.13721,0.8895 0.00449,1.79999 0.00449,2.69998c0,0.89999 -0.16281,1.90063 0.35269,2.54733c0.4837,0.60681 1.31168,0.88947 1.6265,1.57352c0.36334,0.78949 0.78024,1.42035 1.01633,2.18365c0.26489,0.85638 0.40042,1.74448 1.10434,2.17416c0.7778,0.47482 1.30182,0.83377 2.19565,1.12582c0.76486,0.24991 0.7724,1.4711 1.62051,1.91019c0.70432,0.36462 1.68402,0.07993 2.58398,0.08533c0.8894,0.00534 1.43665,0.77481 2.20453,0.99551c0.86066,0.24738 1.79547,0.00449 2.6955,0.00449c0.89999,0 1.79865,0 2.65265,0c0.94733,0 1.74734,0 2.64734,0c0.89999,0 1.79999,0 2.70001,0c0.89999,0 1.9754,0.26514 2.51599,-0.28534c0.60953,-0.62067 1.07721,-1.13461 1.72684,-1.76733c0.64471,-0.62793 0.99423,-1.36951 1.35733,-2.16882c0.37469,-0.8248 0.80969,-1.43259 0.98917,-2.37851c0.16779,-0.88428 0.01941,-1.79117 0.58533,-2.38934c0.42389,-0.44803 0.18246,-1.4455 0.42984,-2.30615c0.2207,-0.76788 1.12671,-1.08032 1.64282,-1.75717c0.50146,-0.65762 0.35266,-1.64734 0.35266,-2.54733c0,-0.89999 0,-1.79999 0,-2.6955c0,-0.87115 0,-1.80466 0,-2.58984c0,-0.94 0,-1.63065 0,-2.61465c0,-0.98532 0,-1.71066 0,-2.69983c0,-0.77933 0,-1.7785 0,-2.7475c0,-0.854 0,-1.75269 0,-2.65268c0,-0.89999 0,-1.79999 0,-2.69998c0,-0.90002 0,-1.80002 0,-2.70001c0,-0.79999 0.17725,-1.66519 -0.02081,-2.52084c-0.21823,-0.94281 -0.80725,-1.58743 -0.97919,-2.47916c-0.17154,-0.88971 -0.75952,-1.31366 -1.00131,-2.19867c-0.21796,-0.79776 -0.78918,-1.34586 -1.35583,-2.09683c-0.50485,-0.66907 -1.45557,-0.87555 -1.64285,-1.7045c-0.19965,-0.88373 -1.10349,-0.92133 -1.94733,-1c-0.89764,-0.08368 -1.10086,-1.11807 -1.66333,-1.564c-0.7691,-0.60971 -1.79489,-0.42706 -2.38934,-0.936c-0.59143,-0.50635 -1.04395,-1.35425 -1.80133,-1.49866c-0.88275,-0.16833 -1.84149,-0.00134 -2.71948,-0.00134c-0.87918,0 -1.77917,0 -2.67917,0c-0.89999,0 -1.80002,0 -2.60001,0l-0.89999,0" id="svg_8" stroke-width="2" stroke="#000" fill="none"/>
  <path t="39263,39431,39455,39463,39471,39487,39496,39503,39512,39519,39519,39529,39543,39559,39567,39583,39599,39607,39631,39631,39639,39647,39655,39663,39679,39687,39687,39703,39712,39729,39751,39759,39775,39791,39800,39815,39815,39839,39839,39855,39879,39887,39911,39927,39943,39951,39959,39967,39983,40239,40255,40279,40295,40303,40327,40367,40383,40415,40439,40455,40463,40487,40503,40503,40511,40519,40535,40545,40551,40567,40591,40599,40623,40647,40655,40679,40687,40703,40791,40863,40871,40887" d="m317.51135,427.09091c1.80002,0 2.70001,0 3.60001,0c0.89999,0 1.80002,0 2.70001,0c0.89999,0 1.79999,0 2.69998,0c0.80002,0 1.70001,0 2.60001,0c0.89999,0 1.80002,0 2.70001,0c0.89865,0 1.75266,0 2.69998,0c0.80002,0 1.70001,0 2.60001,0c0.89999,0 1.80002,0 2.70001,0c0.80017,0 1.58533,0 2.51465,0c1.01602,0 1.79602,0 2.78534,0c0.89999,0 1.80002,0 2.70001,0c0.89999,0 1.71649,0.10501 2.58533,-0.08533c0.79373,-0.17389 1.60635,-0.73672 2.46799,-0.87866c0.92029,-0.15161 1.94455,0.12335 2.59402,-0.38867c0.61459,-0.48453 1.48749,-0.40445 2.34814,-0.65182c0.76788,-0.2207 1.21225,-0.96594 1.71518,-1.42084c0.573,-0.51825 0.98706,0.12982 0.98932,1.02533c0.00226,0.89999 0,1.79999 0,2.69998c0,0.90002 0,1.79984 0,2.67468c0,0.82666 -0.05716,1.72534 -0.5,2.52533c-0.44281,0.79999 -0.49551,1.60016 -0.5,2.38535c-0.00534,0.92935 -0.30365,1.77805 -0.91599,2.39865c-0.60272,0.61087 -0.8504,1.26859 -1.08401,2.10535c-0.19067,0.68295 -0.98737,1.13135 -1,2.01065c-0.01285,0.89542 -0.4165,1.58447 -1,2.10001c-0.63785,0.56357 -1.05264,1.2045 -1.5,1.97916l-0.50131,0.80484l-0.43466,0.67999l-0.86401,0.03601" id="svg_9" stroke-width="2" stroke="#000" fill="none"/>
  <path t="42223,42351,42359,42391,42463,42479,42511,42583,42639,42639,42807,42823,42871,42887,42927,42951,42967,42975,42983,42999,43008,43025,43047,43054,43056,43087,43103,43159,43207,43255,43255,43271,43295,43311,43399,43423,43583" d="m317.51135,427.09091c-1.69998,0 -2.59998,0 -3.564,0c-0.87198,0 -1.73599,0 -2.63599,0c-0.89999,0 -1.80002,0 -2.60001,0c-0.89999,0 -1.67401,0.20319 -2.36667,0.83334c-0.59973,0.54559 -0.83334,1.26648 -0.83334,2.16666c0,0.80133 0,1.70001 0,2.60001c0,0.89999 0,1.79999 0,2.69998c0,0.90002 0,1.79984 0,2.70001c0,0.80133 0.06821,1.77289 0.94736,2c0.87286,0.22549 1.26434,0.97174 1.62732,1.60001c0.48856,0.84564 1,1.42532 1.478,2.04733l0.78067,0.51932l0.45068,0.74933l0.66333,0.43668" id="svg_10" stroke-width="2" stroke="#000" fill="none"/>
  <path t="44928,45007,45015,45031,45040,45047,45056,45073,45079,45079,45087,45087,45095,45103,45111,45118,45127,45127,45134,45143,45151,45159,45159,45167,45167,45175,45183,45183,45191,45191,45199,45207,45215,45223,45231,45239,45239,45247,45247,45255,45263,45272,45278,45287,45287,45303,45311,45311,45319,45319,45327,45335,45335,45343,45350,45351,45359,45367,45367,45375,45383,45390,45391,45398,45406,45414,45427,45427,45427,45430,45438,45438,45446,45455,45455,45462,45478,45478,45488,45494,45494,45502,45511,45511,45518,45518,45526,45534,45534,45543,45543,45550,45550,45558,45559,45566,45566,45574,45574,45582,45590,45590,45598,45606,45606,45614,45614,45622,45622,45630,45638,45646,45646,45655,45656,45663,45663,45672,45672,45678,45679,45689,45689,45689,45695,45695,45703,45711,45711,45720,45720,45727,45727,45727,45735,45735,45743,45743,45751,45751,45751,45759,45759,45759,45766,45775,45775,45775,45783,45783,45783,45791,45791,45799,45799,45810,45815,45815,45827,45827,45831,45831,45847,45847,45855,45863,45872,45872,45888,45895,45905,45935,45945,45945,45951,45967,45983,46007,46023,46039,46039,46048,46063,46071,46079,46095,46111,46127,46143,46159,46183,46199,46215,46231,46243,46260,46271,46288,46288,46295,46327,46335,46367,46383,46398,46430,46478,46542" d="m321.51135,243.09091c0,1.8 0,2.7 0,3.60001c0,0.79999 0,1.7 0,2.59999c0,0.90001 0,1.8 0,2.68533c0,0.94 0,1.63068 0,2.70399c0,0.91068 0,1.81067 0,2.71066c0,0.80017 0,1.58536 0,2.51468c0,1.01599 0,1.832 0,2.67065c0,0.91919 0,1.91333 0,2.67868c0,0.95065 0,1.836 0,2.72134c0,0.93997 0,1.63065 0,2.70398c0,0.91068 0,1.81067 0,2.71066c0,0.90002 0,1.70001 0,2.58536c0,0.93997 0,1.63065 0,2.70398c0,0.91068 0,1.81067 0,2.71066c0,0.80017 0,1.58536 0,2.52533c0,1.00803 0,1.80002 0,2.65869c0,0.86331 0,1.89066 0,2.83731c0,0.67868 0,1.65717 0,2.67868c0,0.79999 0,1.63599 0,2.48401c0,0.86331 0,1.88 0,2.81598c0,0.80017 0,1.58536 0,2.51468c0,1.01599 0,1.86801 0,2.728c0,0.70801 0,1.68933 0,2.64301c0,0.91449 0,1.69968 0,2.63965c0,1.00803 0,1.87018 0,2.73868c0,0.87885 0,1.62134 0,2.67883c0,0.85733 0,1.64252 0,2.58249c0,1.00803 0.01385,1.81601 -0.284,2.65869c-0.24973,0.70648 -0.68738,1.75739 -0.716,2.61615c-0.02615,0.78476 0,1.73584 0,2.50116c0,0.99869 0,1.79868 0,2.79868c0,0.80002 0.00006,1.79984 0,2.57916c-0.00009,0.99933 -0.12741,1.79694 -0.5,2.54169c-0.46918,0.93781 -0.49466,1.65378 -0.5,2.7265c-0.00458,0.91931 0,1.57797 0,2.586c0,0.79199 0,1.81934 0,2.51398c0,1.01669 0,1.95267 0,2.85535c0,0.76801 0,1.80267 0,2.54666c0,0.91733 0,1.86533 0,2.73599c0,0.72534 0,1.71469 0,2.51468c0,1 0,1.79999 0,2.60001c0,1.18933 0,1.91467 0,2.89999c0,0.98532 0,1.71066 0,2.70001c0,0.79999 0,1.79999 0,2.59998c0,0.80002 0,1.80002 0,2.60001c0,1.00134 0,1.836 0,2.76666c0,0.78601 0,1.608 0,2.66669c0,0.91998 0,1.67999 0,2.6875c0,0.8125 0,1.74048 0,2.53098c0,1.02667 0,1.92734 0,2.54684c0,1.00134 0,1.80133 0,2.99234c0,0.69467 0,1.69565 0,2.57565c0,0.83334 0.09296,1.82458 -0.05716,2.586c-0.18405,0.93359 -0.67319,1.63318 -0.85748,2.646c-0.13766,0.75656 -0.08536,1.716 -0.08536,2.70135c0,0.89999 0.19595,1.73441 -0.05716,2.60001c-0.25665,0.87762 -0.90012,1.49698 -0.94284,2.39999c-0.04254,0.89899 0,1.69998 0,2.60001c0,0.89999 0.00226,1.86398 0,2.73599c-0.00226,0.86398 -0.38605,1.70236 -0.71597,2.36398c-0.42056,0.84338 -0.28403,1.80002 -0.28403,2.70001c0,0.89999 0,1.79999 0,2.70001c0,0.89981 0,1.79999 0,2.60132c0,0.89868 0,1.79868 0,2.69867c0,0.89999 0,1.79999 0,2.70001c0,0.89999 0,1.79999 0,2.59998c0,0.91467 0,1.81067 0,2.70001c0,0.89999 0,1.79999 0,2.70001l0,0.89999l0,0.89999l-0.16666,0.83334" id="svg_11" stroke-width="2" stroke="#000" fill="none"/>
  <path t="47623,47735,47743,47744,47752,47759,47759,47767,47767,47775,47783,47783,47791,47799,47799,47807,47807,47815,47823,47823,47830,47830,47839,47839,47839,47846,47846,47855,47855,47858,47858,47871,47879,47887,47894,47894,47903,47903,47903,47911,47911,47922,47935,47935,47939,47939,47946,47946,47946,47952,47952,47952,47961,47967,47967,47977,47977,47977,47984,47984,47993,47994,47998,47998,48009,48009,48014,48014,48025,48025,48025,48025,48030,48030,48030,48039,48039,48046,48046,48046,48058,48058,48058,48062,48062,48062,48075,48078,48078,48078,48086,48086,48087,48087,48094,48094,48094,48103,48103,48111,48111,48111,48120,48121,48121,48126,48127,48127,48136,48136,48143,48143,48143,48151,48151,48151,48161,48161,48161,48167,48167,48167,48176,48176,48176,48183,48183,48194,48194,48194,48199,48199,48209,48215,48215,48226,48226,48226,48232,48246,48246,48249,48249,48259,48263,48263,48272,48272,48279,48292,48292,48295,48295,48303,48311,48320,48327,48327,48336,48338,48343,48353,48353,48359,48367,48374,48391,48391,48399,48415,48415,48423,48423,48439,48455,48471,48495,48510,48510,48527,48537,48543,48552,48558,48574,48582,48583,48599,48607,48615,48623,48631,48639,48655,48663,48678,48678,48687,48694,48735,48743,48759,48768,48783,48798,48814,48854,48887" d="m341.51135,243.09091c0,1.75717 0,2.65266 0,3.51601c0,0.85866 0,1.80533 0,2.65866c0,0.94133 0,1.70934 0,2.65067c0,1.008 0,1.87016 0,2.6955c0,0.96451 0,1.68983 0,2.679c0,0.77933 0,1.77866 0,2.80017c0,0.75717 0,1.66165 0,2.46167c0,0.95966 0,1.76367 0,2.58566c0,1.03101 0,1.91101 0,2.93134c0,0.77399 0,1.66949 0,2.452c0,1.00534 0,1.96933 0,2.77066c0,0.96533 0,1.81952 0,2.79868c0,0.79999 0,1.60001 0,2.59549c0,0.74734 0,1.76852 0,2.60718c0,0.76801 0,1.80716 0,2.58267c0,1.048 0,1.76199 0,2.66733c0,0.96851 0,1.76199 0,2.53751c0,1.1955 0,2.00983 0,2.82416c0,0.95499 0,1.70651 0,2.50299c0,1.22552 0,1.87201 0,2.88269c0,0.79999 0,1.79999 0,2.58932c0,1.04401 0,1.836 0,2.69867c0,0.79465 0,1.84534 0,2.81732c0,0.69467 0,1.38934 0,2.65167c0,0.771 0,1.64032 0,2.64749c0,0.6315 0,1.81683 0,2.62085c0,0.82199 0,1.85333 0,2.54932c0,0.90933 0,1.90802 0,2.7045c0,0.7515 0,1.8595 0,2.84268c0,0.74066 0,1.45016 0,2.64749c0,0.69202 0,1.41602 0,2.14801c0,1.39465 0,2.02533 0,2.86383c0,1.2135 0,1.98682 0,2.78949c0,0.771 0,1.63202 0,2.82935c0,0.60001 0,1.5 0,2.69965c0,0.87903 0,1.686 0,2.55768c0,0.79333 0,1.91333 0,2.68433c0,0.56735 0,1.75833 0,2.65836c0,0.59998 0,1.79999 0,2.6955c0,0.8685 0,1.93784 0,2.65182c0,0.67801 0,1.87384 0,2.66733c0,0.77551 0,1.81735 0,2.59067c0,0.96399 0,1.71552 0,2.51199c0,1.22101 0,2.021 0,2.93002c0,0.91931 0,1.7735 0,2.75266c0,0.78934 0,1.51468 0,2.5c0,0.98532 0,1.71066 0,2.69968c0,0.92831 0,1.85098 0,2.67233c0,0.73065 0,1.72348 0,2.64267c0,0.85999 0,1.80664 0,2.65997c0,0.94135 0,1.70935 0,2.64001c0,1.01599 0,1.832 0,2.67065c0,0.91919 0,1.91333 0,2.67868c0,0.95065 0,1.836 0,2.72134c0,0.92932 0,1.78131 0,2.65631c0,0.94235 0,1.633 0,2.70569c0,0.91931 0,1.75266 0,2.73114c0,0.82019 0.00226,1.6413 -0.42532,2.42151c-0.45013,0.82141 -0.57468,1.76666 -0.57468,2.60001c0,0.79999 0,1.70001 0,2.60001c0,0.89999 0,1.79999 0,2.69998c0,0.90134 0,1.86667 0,2.67917c0,0.91101 0,1.72534 0,2.62085c0,0.89999 0,1.79999 0,2.69998c0,0.90002 0,1.80002 0,2.70001c0,0.79999 0,1.70001 0,2.64282c0,0.87802 0.00067,1.75717 0,2.65717c-0.00067,0.89868 -0.35266,1.64734 -0.97916,2.22086l-0.02084,0.87915l0,0.89999l0,0.89868" id="svg_12" stroke-width="2" stroke="#000" fill="none"/>
  <path t="49983,50062,50071,50087,50087,50094,50094,50103,50103,50111,50111,50119,50127,50127,50135,50135,50143,50143,50152,50152,50159,50159,50159,50168,50175,50183,50183,50191,50191,50199,50199,50206,50206,50216,50222,50222,50230,50231,50239,50239,50239,50246,50247,50255,50255,50263,50263,50270,50270,50278,50278,50286,50286,50294,50302,50302,50310,50310,50310,50318,50318,50318,50326,50326,50334,50334,50342,50342,50350,50350,50350,50358,50366,50366,50383,50383,50387,50387,50392,50399,50399,50406,50406,50416,50422,50422,50430,50439,50439,50446,50454,50462,50470,50470,50478,50478,50486,50494,50494,50494,50502,50502,50510,50518,50526,50526,50534,50542,50542,50551,50551,50551,50559,50559,50567,50567,50575,50575,50583,50583,50591,50591,50599,50599,50607,50607,50616,50616,50623,50623,50633,50633,50639,50647,50647,50655,50663,50671,50671,50671,50679,50687,50687,50694,50703,50703,50710,50719,50727,50735,50735,50743,50751,50751,50758,50775,50775,50783,50799,50799,50807,50807,50807,50816,50816,50823,50832,50839,50839,50846,50846,50855,50863,50871,50871,50879,50879,50887,50894,50894,50918,50934,50943,50947,50950,50967,50975,50983,50991,51007,51007,51030,51046,51070,51070,51079,51094,51110,51118" d="m326.51135,251.09091c0,0.88667 0,1.82533 0,2.83333c0,0.79201 0,1.65201 0,2.57118c0,0.99548 0,1.7955 0,2.79517c0,0.75867 0,1.69498 0,2.51465c0,0.88834 0,1.88568 0,2.68567c0,1 0,1.80002 0,2.80002c0,0.79999 0,1.79999 0,2.58932c0,0.72534 0,1.68982 0,2.62134c0,0.91064 0,1.76398 0,2.70667c0,0.6925 0,1.65067 0,2.63199c0,0.91733 0,1.70901 0,2.66135c0,0.91083 0,1.79999 0,2.78934c0,0.79999 0,1.79999 0,2.59998c0,0.80002 0,1.80002 0,2.60001c0,0.99866 0,1.76401 0,2.716c0,0.76801 0,1.72 0,2.48532c0,0.99869 0,1.79868 0,2.79733c0,0.76535 0,1.84869 0,2.76801c0,0.66934 0,1.83334 0,2.64401c0,0.64648 0,1.61066 0,2.41467c0,0.82199 0,1.85315 0,2.75381c0,1.02084 0,1.81018 0,2.85419c0,0.828 0,1.70932 0,2.41733c0,0.98132 0,1.93948 0,2.91599c0,0.83334 0,1.66669 0,2.49469c0,0.88116 0,1.81781 0,2.83865c0,0.83334 0,1.68533 0,2.616c0,0.76801 0,1.70932 0,2.71735c0,0.75598 0,1.6875 0,2.65067c0,0.69064 0,1.75433 0,2.62582c0,0.7515 0,1.72351 0,2.64282c0,0.90002 0,1.59467 0,2.63269c0,0.948 0,1.86533 0,2.60931c0,1.03467 0,1.80267 0,2.70535c0,0.93597 0,1.784 0,2.64731c0,0.90002 0,1.81934 0,2.67352c0,0.97916 0,1.77914 0,2.57916c0,1 0,1.79999 0,2.79999c0,0.80002 0,1.80002 0,2.60001c0,1 0,1.78934 0,2.83334c0,0.79199 0,1.65198 0,2.57117c0,0.99548 0,1.7955 0,2.79532c0,0.77933 0,1.63351 0,2.55283c0,0.90002 0,1.59467 0,2.62201c0,0.9465 0,1.76401 0,2.73068c0,0.76666 0,1.89465 0,2.68399c0,0.72534 0,1.71066 0,2.69467c0,0.69064 0,1.76334 0,2.68265c0,0.8125 0.0654,1.73102 -0.00449,2.53867c-0.08405,0.97128 -0.91043,1.44736 -0.99417,2.18134c-0.10638,0.93262 -0.00134,1.94669 -0.00134,2.80884c0,0.82535 0,1.78851 0,2.47916c0,1.07269 0.05267,1.9949 -0.02081,2.84619c-0.08514,0.9863 -0.36868,1.56656 -0.6265,2.37915c-0.31265,0.98541 -0.34735,1.76398 -0.35269,2.84283c-0.00424,0.85718 0.09149,1.76971 -0.05716,2.51434c-0.1846,0.92474 -0.72656,1.55734 -0.90683,2.60684c-0.15933,0.92758 -0.03601,1.80264 -0.03601,2.63599c0,0.97849 0,1.79868 0,2.63599c0,1.01218 0,1.79468 0,2.72119c0,0.94281 0,1.84283 0,2.74265c0,0.87933 0,1.70151 0,2.60019c0,0.89999 0,1.82083 0,2.62115c0,0.8175 0,1.90033 0,2.77884c0,0.89999 0,1.69998 0,2.60001l0,0.89999l0,0.89999l0,0.89999" id="svg_13" stroke-width="2" stroke="#000" fill="none"/>
  <path t="52119,52190,52198,52198,52206,52231,52240,52240,52248,52255,52255,52255,52264,52264,52271,52279,52287,52294,52295,52303,52303,52303,52311,52311,52319,52319,52319,52326,52326,52335,52335,52335,52342,52342,52342,52350,52351,52351,52358,52358,52359,52359,52366,52367,52367,52374,52375,52375,52385,52385,52385,52390,52390,52390,52390,52398,52398,52398,52398,52406,52406,52414,52414,52414,52422,52422,52422,52422,52430,52430,52430,52430,52438,52438,52446,52446,52446,52446,52447,52454,52454,52454,52463,52463,52463,52463,52470,52470,52470,52480,52480,52480,52480,52486,52486,52486,52494,52494,52494,52502,52502,52502,52510,52510,52510,52518,52518,52526,52526,52526,52534,52534,52534,52534,52542,52542,52542,52550,52551,52551,52558,52559,52559,52566,52567,52567,52574,52574,52574,52582,52583,52590,52591,52598,52599,52599,52606,52607,52614,52615,52623,52631,52631,52638,52639,52639,52647,52647,52654,52655,52664,52671,52671,52680,52680,52687,52694,52695,52702,52702,52710,52719,52719,52726,52726,52735,52735,52742,52750,52751,52759,52766,52767,52774,52782,52790,52790,52798,52806,52807,52822,52823,52838,52839,52870,52879,52896,52911,52919,52935,52935,52958,53005,53038,53078" d="m333.51135,246.09091c0,1.82533 0,2.83333 0,3.6955c0,0.8685 0,1.75117 0,2.62584c0,0.85333 0,1.79466 0,2.84534c0,0.66933 0,1.43465 0,2.42882c0,0.91919 0,1.88367 0,2.8045c0,0.90451 0,1.76666 0,2.62085c0,0.97916 0,1.77914 0,2.57916c0,1.00449 0,1.85715 0,2.82117c0,0.79349 0,1.569 0,2.61084c0,0.77332 0,1.73865 0,2.50964c0,0.86102 0,2.05835 0,2.65836c0,0.89999 0,2.09998 0,2.69998c0,0.89999 0,2.10001 0,2.70001c0,0.89999 0,1.79999 0,2.69998c0,0.90002 0,1.80002 0,2.70001c0,0.89551 0,1.76401 0,2.83334c0,0.71848 0,1.42798 0,2.5c0,0.9765 0,1.6875 0,2.41849c0,1.08151 0,2.08649 0,2.70651c0,0.85498 0,2.08899 0,2.767c0,0.94131 0,1.73181 0,2.58533c0,1.18933 0,2.09384 0,2.71017c0,0.96448 0,2.00015 0,2.72281c0,0.71469 0,1.70169 0,2.70569c0,0.96582 0,2.03632 0,2.77032c0,0.82199 0,1.25101 0,2.11499c0,1.22235 0,2.29333 0,2.944c0,1.22134 0,2.12134 0,2.72134c0,0.89999 0,2.10132 0,2.71066c0,0.9465 0,1.95599 0,2.672c0,0.73199 0,1.8075 0,2.784c0,0.82352 0,1.78149 0,2.75485c0,0.81448 0,1.68298 0,2.57849c0,0.89551 0,1.76401 0,2.83334c0,0.7095 0,1.56216 0,2.56799c0,0.83466 0,1.76532 0,2.55582c0,0.85352 0,2.04285 0,2.64285c0,0.89999 0,1.79999 0,2.69983c0,0.8895 0,1.74301 0,2.77884c0,0.69598 0,1.60532 0,2.60666c0,0.83551 0,1.716 0,2.6145c0,0.8895 0,1.74301 0,2.77866c0,0.68552 0.03067,1.52078 -0.00449,2.52151c-0.02814,0.80124 -0.30637,1.79245 -0.57016,2.63599c-0.2883,0.92191 -0.38763,1.71124 -0.41467,2.50269c-0.03821,1.11789 -0.01068,1.87598 -0.01068,2.914c0,0.69464 0,1.72198 0,2.66898c0,0.72 0,1.845 0,2.6265c0,0.79053 0,1.71851 0,2.53101c0,1.00485 0,1.86816 0,2.76819c0,0.91931 0,1.75266 0,2.73114c0,0.82019 0,1.6575 0,2.50684c0,0.91919 0,1.91333 0,2.67868c0,0.95065 0,1.93616 0,2.72134c0,0.95065 0,1.71597 0,2.71014c0,0.74734 0,1.77917 0,2.72583c0,0.67868 0,1.65717 0,2.67868c0,0.79999 0,1.70001 0,2.52084c0,0.96317 0,1.82648 0,2.72198c0,0.9585 0,1.64252 0,2.59317c0,0.76532 0,1.755 0,2.59332c0,1.00668 0,1.97067 0,2.87067c0,0.90002 0,1.80002 0,2.70001c0,0.79999 0,1.70001 0,2.564l0,0.87201l0,0.95334" id="svg_14" stroke-width="2" stroke="#000" fill="none"/>
  <path t="54975,55111,55127,55135,55144,55167,55183,55183,55191,55214,55214,55223,55239,55255,55263,55271,55287,55303,55311,55311,55319,55335,55344,55351,55367,55375,55383,55391,55391,55407,55423,55439,55447,55447,55463,55463,55479,55487,55487,55495,55503,55519,55535,55544,55551,55561,55561,55567,55583,55591,55599,55615,55631,55639,55647,55663,55671,55679,55687,55687,55695,55703,55711,55719,55719,55727,55744,55751,55752,55767,55775,55791,55791,55807,55807,55815,55823,55847,55863,55863,55871,55885,55885,55888,55896,55903,55919,55935,55935,55945,55951,55960,55967,55967,55983,55983,55991,55991,55999,55999,56007,56015,56015,56023,56023,56032,56032,56039,56039,56049,56049,56063,56071,56087,56087,56098,56098,56103,56119,56135,56135,56151,56160,56177,56177,56183,56184,56199,56208,56208,56216,56223,56231,56239,56247,56255,56265,56275,56275,56280,56287,56287,56298,56303,56311,56319,56319,56332,56335,56335,56343,56343,56351,56359,56367,56383,56383,56391,56392,56399,56399,56407,56415,56423,56431,56439,56447,56455,56471,56479,56487,56503,56511,56511,56527,56535,56535,56543,56551,56583,56583,56599,56615,56624,56639,56639,56655,56671,56687,56719,56781" d="m323.51135,72.09091c0,1.8 0,2.7 0,3.6c0,0.9 0,1.7045 0,2.72117c0,0.8175 0,1.727 0,2.67883c0,0.8 0,1.7 0,2.6c0,0.9 0,1.8 0,2.7c0,0.9 0,1.8 0,2.7c0,0.8 0,1.64283 0,2.52084c0,0.97916 0,1.87917 0,2.77916c0,0.9 0,1.8 0,2.7c0,0.8 0,1.7 0,2.6c0,0.81067 0,1.72117 0,2.53867c0,1.028 0,1.748 0,2.68667c0,1.008 0,1.87016 0,2.77467c0,0.9 0,1.8 0,2.7c0,0.9 0,1.8 0,2.7c0,0.8 0,1.7 0,2.6c0,0.9 0,1.8 0,2.7c0,0.9 0,1.79984 0,2.64734c0,0.75716 0,1.75266 0,2.5735c0,0.96317 0,1.65383 0,2.722c0,0.95716 0,1.85717 0,2.75716c0,0.8 0,1.64284 0,2.52083c0,0.97917 0,1.8685 0,2.76451c0,0.91466 0,1.71466 0,2.59999c0,0.94 0,1.63068 0,2.70399c0,0.88985 0,1.77234 0,2.73201c0,0.67867 0,1.65717 0,2.67867c0,0.8 0.1571,1.71976 -0.02081,2.5c-0.21939,0.96202 -0.9183,1.59389 -0.97919,2.5c-0.05365,0.7982 0,1.7 0,2.60001c0,0.92082 0,1.88533 0,2.61066c0,0.98933 0,1.78934 0,2.78934c0,0.78934 0,1.83333 0,2.58932c0,0.9315 0,1.89601 0,2.62134c0,0.98933 0,1.78934 0,2.78934c0,0.78934 0,1.83333 0,2.62534c0,0.85866 0,1.722 0,2.73866c0,0.83734 0,1.80267 0,2.636c0,0.83333 0,1.6955 0,2.60001c0,0.92082 0,1.88266 0,2.69016c0,0.93134 0,1.80984 0,2.70984c0,0.75717 0,1.65266 0,2.51601c0,0.98399 0,1.96799 0,2.65866c0,1.06816 0,1.92517 0,2.85066c0,0.776 0,1.67467 0,2.57468c0,0.92082 0,1.88399 0,2.57466c0,1.06816 0,1.92549 0,2.71066c0,0.92934 0,1.87184 0,2.76134c0,0.83733 0.15436,1.7141 -0.01065,2.71733c-0.14294,0.86916 -0.79205,1.50087 -0.93216,2.28867c-0.15149,0.85178 -0.05719,1.82651 -0.05719,2.74733c0,0.90451 0,1.76668 0,2.60001c0,0.97867 0,1.75267 0,2.65266c0,0.86334 0,1.82651 0,2.74733c0,0.90001 0,1.8 0,2.70001c0,0.89999 0,1.81599 0,2.60449c0,0.89551 0,1.7955 0,2.70616c0,0.91068 0,1.76401 0,2.70401c0,0.88533 0,1.68533 0,2.58533c0,0.94284 0,1.86934 0,2.65184c0,1.01216 0,1.84816 0,2.74817c0,0.89999 0,1.7 0,2.59999c0,0.90001 0,1.8 0,2.68933l0,0.96333" id="svg_15" stroke-width="2" stroke="#000" fill="none"/>
  <path t="57887,58031,58039,58047,58047,58056,58056,58064,58064,58071,58079,58080,58087,58087,58097,58097,58103,58103,58113,58113,58119,58119,58130,58135,58146,58146,58151,58151,58151,58163,58163,58167,58167,58183,58183,58191,58199,58199,58208,58208,58215,58224,58224,58231,58241,58241,58247,58247,58255,58263,58264,58271,58271,58279,58279,58287,58287,58296,58296,58303,58303,58311,58311,58311,58319,58319,58319,58330,58336,58345,58345,58345,58351,58351,58351,58351,58359,58359,58367,58367,58375,58375,58375,58383,58383,58383,58391,58391,58399,58399,58407,58407,58407,58415,58415,58415,58424,58424,58431,58431,58441,58441,58447,58447,58455,58463,58463,58471,58471,58471,58479,58479,58495,58495,58502,58502,58511,58511,58519,58519,58527,58527,58535,58543,58543,58551,58551,58559,58559,58567,58567,58575,58575,58583,58591,58599,58599,58607,58607,58607,58614,58623,58640,58640,58647,58647,58663,58663,58671,58671,58679,58679,58687,58687,58695,58703,58720,58727,58735,58735,58743,58751,58759,58767,58775,58791,58807,58807,58815,58831,58831,58841,58843,58843,58857,58871,58879,58879,58887,58895,58919,58927,58935,58951,58975,58983,58984,58999,59015,59039,59039,59063,59079,59103,59119,59119,59143" d="m328.51135,71.09091c0,1.8 0,2.636 0,3.48533c0,0.91917 0,1.91467 0,2.71467c0,0.99967 0,1.75834 0,2.74934c0,0.765 0,1.65334 0,2.65067c0,0.8 0,1.79867 0,2.564c0,0.952 0,1.72 0,2.672c0,0.76534 0,1.7595 0,2.67867c0,0.9645 0,1.78983 0,2.80684c0,0.69933 0,1.6785 0,2.47849c0,0.8 0,1.8 0,2.60001c0,0.99733 0,1.88567 0,2.93333c0,0.6875 0,1.64516 0,2.66666c0,0.75716 0,1.65266 0,2.516c0,0.85867 0,1.80534 0,2.65867c0,0.93999 0,1.82533 0,2.71066c0,0.94 0,1.63067 0,2.61467c0,0.98533 0,1.71066 0,2.7c0,0.8 0,1.8 0,2.58933c0,1.04401 0,1.83601 0,2.696c0,0.91917 0,1.916 0,2.75067c0,0.93066 0,1.71667 0,2.53867c0,1.05866 0,1.76366 0,2.73867c0,0.96584 0,1.79567 0,2.81999c0,0.681 0,1.48801 0,2.66667c0,0.59866 0,1.47917 0,2.31467c0,1.22816 0,1.87466 0,2.8855c0,0.82066 0,1.96651 0,2.7525c0,0.82199 0,1.88066 0,2.59016c0,0.85266 0,1.85716 0,2.65717c0,1 0,1.8 0,2.8c0,0.81067 0,1.45717 0,2.68401c0,0.54132 0,1.36333 0,2.63066c0,0.66451 0,1.68533 0,2.47467c0,1.04399 0,1.836 0,2.69466c0,0.86334 0,1.89067 0,2.83751c0,0.69933 0,1.6785 0,2.4785c0,0.8 0,1.791 0,2.62933c0,1.01349 0,1.756 0,2.82249c0,0.7175 0,1.75349 0,2.4975c0,1.10783 0,1.86534 0,2.73334c0,0.948 0,1.77066 0,2.58434c0,0.98933 0,2.01134 0,2.68633c0,1.08 0,1.87201 0,2.73201c0,0.91916 0,1.91333 0,2.67867c0,0.95067 0,1.936 0,2.836c0,0.672 0,1.76801 0,2.5c0,0.73199 0,1.828 0,2.70134c0,0.96533 0.12225,1.83926 -0.22131,2.77733c-0.25342,0.69196 -0.62473,1.51935 -0.83133,2.36867c-0.22525,0.92595 -0.73099,1.60815 -0.862,2.42067c-0.15668,0.9716 -0.08536,1.89867 -0.08536,2.69032c0,0.94167 0,1.83717 0,2.76317c0,0.87851 0,1.7785 0,2.57851c0,0.89999 0,1.8 0,2.7c0,0.89999 0,1.8 0,2.70134c0,0.96533 0,1.77783 0,2.69333c0,0.81517 0,1.62267 0,2.60533c0,0.98267 0,1.79016 0,2.67067c0,0.85016 0,1.80783 0,2.62799c0,0.90134 0,1.80135 0,2.70134c0,0.89999 0,1.8 0,2.7c0,0.90001 0,1.8 0,2.60001c0,0.89999 0,1.836 0,2.68266c0,0.8075 0,1.8745 0,2.71733c0,0.90001 0,1.8 0,2.60001l0,0.89999" id="svg_16" stroke-width="2" stroke="#000" fill="none"/>
  <path t="60495,60710,60719,60726,60734,60734,60734,60743,60743,60750,60758,60766,60766,60766,60774,60782,60782,60790,60790,60798,60798,60806,60814,60822,60822,60822,60830,60830,60839,60839,60847,60847,60854,60854,60863,60871,60878,60878,60888,60888,60888,60894,60894,60899,60904,60911,60919,60919,60927,60927,60935,60943,60951,60959,60959,60974,60975,60982,60990,60998,61006,61015,61015,61022,61022,61023,61030,61030,61046,61047,61054,61054,61062,61062,61071,61071,61078,61079,61087,61094,61095,61104,61104,61110,61110,61118,61118,61127,61135,61135,61142,61143,61143,61150,61158,61166,61167,61175,61175,61182,61182,61182,61190,61191,61198,61198,61206,61206,61207,61214,61215,61215,61222,61222,61230,61230,61238,61239,61246,61247,61254,61254,61262,61278,61286,61287,61294,61294,61294,61303,61310,61311,61320,61320,61327,61335,61342,61343,61350,61351,61358,61366,61366,61374,61374,61382,61383,61390,61398,61399,61407,61414,61414,61422,61423,61430,61431,61447,61455,61455,61463,61471,61471,61487,61487,61495,61504,61511,61520,61543,61551,61567,61567,61575,61582,61599,61607,61615,61623,61639,61647,61663,61671,61687,61695,61711,61721,61737,61751,61761,61761,61776,61799,61810,61847,61862,61886,61910,61929,61930" d="m333.51135,70.09091c0,1.8 0,2.7 0,3.54166c0,1.001 0,1.709 0,2.453c0,1.1955 0,1.888 0,2.82c0,1.01867 0,1.8495 0,2.70617c0,0.71249 0,1.80716 0,2.68183c0,0.768 0,1.80267 0,2.54666c0,1.10767 0,1.94167 0,2.75067c0,0.92133 0,1.83334 0,2.76133c0,0.7905 0,1.817 0,2.492c0,1.08 0,1.872 0,2.73199c0,0.91917 0,1.912 0,2.64267c0,0.97733 0,1.89284 0,2.85084c0,0.6825 0,1.7905 0,2.542c0,0.79649 0,1.7925 0,2.6325c0,0.96 0,1.88266 0,2.6655c0,0.94917 0,1.68117 0,2.84783c0,0.79167 0,1.63333 0,2.53333c0,0.9 0,1.8 0,2.68533c0,0.94 0,1.63067 0,2.704c0,0.81067 0,1.71066 0,2.612c0,0.96533 0,1.8195 0,2.79867c0,0.8 0,1.60001 0,2.591c0,0.83833 0,1.85182 0,2.59433c0,0.93066 0,1.69867 0,2.65067c0,0.76534 0,1.76401 0,2.564c0,0.99867 0,1.94284 0,2.84283c0,0.85733 0,1.6425 0,2.59317c0,0.76534 0,1.76401 0,2.564c0,0.99867 0,1.94284 0,2.84734c0,0.91934 0,1.7735 0,2.75267c0,0.78934 0,1.51466 0,2.58932c0,0.82133 0,1.73218 0,2.62134c0,0.98933 0,1.78934 0,2.78934c0,0.8 0,1.60001 0,2.60001c0,0.79999 0,1.79999 0,2.59999c0,1.00017 0,1.82083 0,2.48534c0,0.99867 0,1.81467 0,2.63066c0,1.22684 0,1.87334 0,2.884c0,0.8 0,1.8 0,2.58934c0,1.04399 0,1.836 0,2.69466c0,0.86334 0,1.86934 0,2.80267c0,0.88 0,1.73416 0,2.71333c0,0.78934 0,1.51466 0,2.5c0,0.98534 0,1.71066 0,2.69966c0,0.92834 0,1.851 0,2.66167c0,0.972 0,1.76401 0,2.62267c0,0.86334 0,1.89067 0,2.83751c0,0.69933 0,1.6785 0,2.46783c0,1.04399 0,1.90616 0,2.73149c0,0.96317 0,1.65384 0,2.722c0,0.85733 0,1.6425 0,2.59317c0,0.76534 0,1.755 0,2.59334c0,1.01733 0,1.892 0,2.74533c0,0.94 0,1.82533 0,2.71066c0,0.94 0,1.63068 0,2.70399c0,0.91068 0,1.81067 0,2.70618c0,0.87117 0,1.8045 0,2.7045c0,0.8 0,1.7 0,2.60001c0,0.89999 0,1.79999 0,2.7c0,0.89999 0,1.79984 0,2.64732c0,0.75717 0,1.75267 0,2.65268c0,0.89999 0,1.79999 0,2.7c0,0.89999 0,1.8 0,2.7c0,0.8 0,1.64284 0,2.52083c0,0.97917 0,1.87917 0,2.77917c0,0.89999 0,1.8 0,2.7l0,0.83333" id="svg_17" stroke-width="2" stroke="#000" fill="none"/>
  <path t="63862,64006,64022,64038,64062,64078,64094,64118,64118,64134,64158,64174,64198,64222,64230,64294,64310,64310,64326,64358,64414,64430,64494" d="m319.51135,82.09091c1.61069,0 2.5,0 3.38934,0c0.96783,0 1.81067,0 2.71066,0c0.89999,0 1.70001,0 2.60001,0c0.89999,0 1.79999,0 2.70001,0c0.89999,0 1.79865,0 2.76666,0c0.83331,0 1.63333,0 2.53333,0c0.89999,0 1.79999,0 2.70001,0l0.89999,0" id="svg_18" stroke-width="2" stroke="#000" fill="none"/>
  <path t="65630,65726,65742,65750,65774,65798,65806,65815,65838,65854,65854,65878,65886,65902,65926,65958,65974,65998,66014,66030,66047,66050,66086,66094,66118,66142,66166,66190,66190,66238" d="m315.51135,95.09091c1.80002,0 2.70001,0 3.60001,0c0.89999,0 1.80002,0 2.70001,0c0.89865,0 1.75266,0 2.69998,0c0.80002,0 1.70001,0 2.60001,0c0.89999,0 1.80002,0 2.70001,0c0.89999,0 1.79999,0 2.69998,0c0.83334,0 1.61069,0 2.56403,0c0.87198,0 1.836,0 2.73599,0c0.89999,0 1.79999,0 2.69998,0l0.80002,0l0.89999,0" id="svg_19" stroke-width="2" stroke="#000" fill="none"/>
  <path t="67302,67502,67518,67534,67542,67558,67582,67614,67646,67646,67662,67670,67686,67702,67710,67726,67742,67766,67775,67798,67830,67838,67854,67878,67910,67926,67974,67974" d="m317.51135,110.09091c1.70001,0.9955 2.60001,1 3.5,1c0.90002,0 1.7955,0 2.72153,0c0.87848,0 1.77847,0 2.57849,0c0.89999,0 1.79999,0 2.69998,0c0.90002,0 1.80002,0 2.70001,0c0.89984,0 1.82535,0 2.716,0c0.78851,0 1.68399,0 2.58398,0c0.90002,0 1.80002,0 2.70001,0l0.89999,0l0.89999,0l0.80002,0" id="svg_20" stroke-width="2" stroke="#000" fill="none"/>
  <path t="68790,68910,68918,68928,68942,68958,68982,68990,68998,69006,69038,69054,69062,69078,69078,69094,69118,69118,69134,69182,69206,69254,69286,69286,69294,69342" d="m317.51135,125.09091c0.80136,0 1.70001,0 2.60001,0c0.89999,0 1.80002,-0.00067 2.70001,0c0.89865,0.00067 1.4379,0.61021 2.13599,0.964c0.77136,0.39091 1.76401,0.036 2.664,0.036c0.89999,0 1.70001,0 2.65717,0c0.89551,0 1.75885,0 2.70117,0c0.89883,0 1.74167,0 2.64166,0c0.89999,0 1.70001,0 2.60001,0l0.89999,0" id="svg_21" stroke-width="2" stroke="#000" fill="none"/>
  <path t="70558,70710,70719,70732,70742,70759,70766,70782,70782,70790,70790,70790,70798,70806,70814,70822,70830,70838,70856,70886,70902,70918,70958,70958,70990,71030,71062" d="m317.51135,140.09091c1.80002,0 2.70001,0 3.60001,0c0.89999,0 1.80002,0 2.60135,0c0.96533,0 1.81949,0 2.79865,0c0.78934,0 1.51468,0 2.58936,0c0.91064,0 1.81067,0.00067 2.71066,0c0.89865,-0.00067 1.37366,-0.56801 2.12534,-0.964c0.76154,-0.40118 1.77466,-0.036 2.67465,-0.036c0.89999,0 1.70001,0 2.60001,0l0.89999,0l0.89999,0" id="svg_22" stroke-width="2" stroke="#000" fill="none"/>
  <path t="72111,72303,72327,72351,72375,72391,72399,72415,72431,72455,72455,72463,72503,72519,72543,72583,72655,72783,72912,72914,73015,73031,73055" d="m319.51135,154.09091c1.80002,0 2.70001,0 3.56403,0c0.87198,0 1.836,0 2.73599,0c0.89999,0 1.79999,0 2.69998,0c0.80002,0 1.70001,0 2.60001,0c0.89999,0 1.78934,0 2.68533,0c0.91467,0 1.81467,0 2.71466,0c0.83334,0 1.61069,0 2.60001,0l0.89999,0" id="svg_23" stroke-width="2" stroke="#000" fill="none"/>
  <path t="73871,73991,73999,74007,74015,74023,74040,74047,74047,74056,74056,74063,74063,74073,74087,74087,74102,74127,74183,74183,74207,74239,74255,74263,74272,74287,74295" d="m318.51135,171.09091c0.80136,0 1.70001,0 2.60001,0c0.89999,0 1.78934,0 2.68668,0c0.88,0 1.73416,0 2.71332,0c0.78934,0 1.83334,0 2.58936,0c0.93149,0 1.89465,0 2.58533,0c1.06366,0 1.90933,0 2.82532,0c0.80002,0 1.70001,0 2.60001,0c0.89999,0 1.80002,0 2.70001,0l0.89999,0l0.89999,0" id="svg_24" stroke-width="2" stroke="#000" fill="none"/>
  <path t="75135,75431,75439,75439,75447,75447,75455,75471,75503,75503,75543,75566,75575,75623,75703,75719,75751,75791,76000" d="m323.51135,184.09091c0.22153,0 1.10019,0 1.88535,0c0.94,0 1.63068,0 2.70401,0c0.93149,0 1.73199,0 2.58533,0c0.94,0 1.92517,0 2.79999,0c0.82669,0 1.72534,0 2.62534,0l0.89999,0l0.90002,0l0.89548,0" id="svg_25" stroke-width="2" stroke="#000" fill="none"/>
  <path t="76671,76806,76815,76815,76831,76831,76839,76839,76847,76847,76855,76855,76863,76863,76870,76911,77007,77032,77055,77126,77126,77150,77406" d="m319.51135,195.09091c1.82535,0 2.83334,0 3.71335,0c0.85733,0 1.69568,0 2.68668,0c0.79999,0 1.79984,0 2.57916,0c0.99948,0 1.7735,0 2.67349,0c0.86334,0 1.80566,0 2.7045,0c0.94284,0 1.84149,0 2.70001,0c0.94281,0 1.74283,0 2.64282,0l0.89999,0" id="svg_26" stroke-width="2" stroke="#000" fill="none"/>
  <path t="78295,78438,78446,78463,78471,78479,78494,78494,78503,78503,78510,78511,78518,78518,78535,78551,78551,78638,78670,78710,78742,78748,78782,78806" d="m317.51135,209.09091c1.80002,0 2.70001,0 3.60001,0c0.89999,0 1.78934,0 2.73334,0c0.70834,0 1.66666,0 2.45599,0c1.04401,0 1.836,0 2.69467,0c0.86334,0 1.89069,0 2.83716,0c0.8175,0 1.72702,0 2.48019,0c0.99866,0 1.89865,0 2.76266,0l0.87198,0l0.96402,0" id="svg_27" stroke-width="2" stroke="#000" fill="none"/>
  <path t="79838,79974,79983,79991,80000,80006,80015,80023,80032,80039,80039,80047,80055,80070,80087,80094,80151,80160,80183,80184,80207,80239,80255,80367" d="m318.51135,218.09091c1.80002,0 2.70001,0 3.60001,0c0.89999,0 1.80002,0 2.70001,0c0.89999,0 1.79999,0 2.69998,0c0.80002,0 1.70001,0 2.60001,0c0.89999,0 1.80002,0 2.6955,0c0.87119,0 1.8045,0 2.7045,0c0.80002,0 1.70001,0 2.60001,0l0.89999,0l0.90002,0" id="svg_28" stroke-width="2" stroke="#000" fill="none"/>
  <path t="81087,81255,81263,81270,81279,81279,81279,81279,81287,81287,81287,81294,81295,81302,81310,81327,81350,81367,81367,81471,81543,81567,81607,81687" d="m319.51135,226.09091c1.80002,0 2.70319,-0.05606 3.5625,0.02083c0.94501,0.08455 1.79956,0.33391 2.45834,0.47917c0.67789,0.14948 1.93362,0.40576 2.70718,0.464c0.86755,0.06532 1.86749,0.036 2.61481,0.036c1.02118,0 1.95267,0 2.82385,0c0.93332,0 1.83331,0 2.63333,0c0.89999,0 1.79999,0 2.69998,0l0.90002,0l0.89999,0" id="svg_29" stroke-width="2" stroke="#000" fill="none"/>
  <path t="82471,82631,82646,82654,82663,82671,82687,82695,82703,82711,82711,82727,82736,82751,82759,82766,82774,82790,82807,82807,82831,82864,82902,82966,83014,83063,83103,83311,83311" d="m316.51135,236.09091c1.80002,0 2.70001,0 3.60001,0c0.89999,0 1.80002,0 2.70001,0c0.89999,0 1.79999,0 2.69998,0c0.80002,0 1.70001,0 2.60001,0c0.89999,0 1.80002,0 2.70001,0c0.89999,0 1.79999,0 2.69998,0c0.80002,0 1.70001,0 2.56403,0c0.87198,0 1.836,0 2.73599,0c0.89999,0 1.79999,0 2.69998,0l0.80002,0" id="svg_30" stroke-width="2" stroke="#000" fill="none"/>
  <path t="86214,86358,86390,86438,86454,86670,86710,86734,86774,86806,86985,87014,87102,87102,87174,87230" d="m315.51135,37.09091c-1,-1 -1.87866,-1 -2.7045,-1c-0.89548,0 -2.00824,-0.11849 -2.28482,0.61066c-0.31543,0.83158 -0.01068,1.78933 -0.01068,2.68933c0,0.89867 0.08536,1.7 1,1.7l0.80002,0l0.91467,0l0.896,0" id="svg_31" stroke-width="2" stroke="#000" fill="none"/>
  <path t="88078,88232,88350,88430,88590,88598,88614,88622,88630,88646,88846,88862,88878,88886,88910,88958,88966,89022,89044" d="m315.51135,51.09091c-1.83331,0 -2.61072,-0.00946 -3.5,0c-0.97931,0.01042 -1.49466,0.61061 -1.5,1.5c-0.0054,0.89998 -0.00009,1.8 0,2.7c0.00009,0.89983 0.21527,1.73911 1.10001,1.8c0.89786,0.0618 1.81601,0 2.60452,0l0.89548,0l0.89999,0l0.88934,0" id="svg_32" stroke-width="2" stroke="#000" fill="none"/>
  <path t="89567,89695,89711,89822,90006,90014,90037,90061,90230,90246,90254,90286,90310,90320,90320,90342,90390,90518,90526" d="m316.51135,66.09091c-1.69998,0 -2.64288,-0.00954 -3.52081,0c-0.95853,0.01042 -1.47385,0.61062 -1.47919,1.5c-0.0054,0.89999 -0.25458,2.06883 0.436,2.464c0.74664,0.42725 1.78552,0.036 2.664,0.036c0.89999,0 1.70001,0 2.60001,0l0.89999,0l0.89999,0l0.88934,-0.01067" id="svg_33" stroke-width="2" stroke="#000" fill="none"/>
  <path t="91438,91637,91654,91791,91925,91942,91951,91966,91989,92013,92046,92086,92222,92254,92254,92277,92294" d="m343.51135,35.09091c1.70001,0 2.70004,-0.00535 3.56403,0c0.86139,0.00533 1.43063,0.61061 1.43597,1.5c0.0054,0.89998 0,1.8 0,2.7c0,0.89983 0.45007,2.01308 -0.16666,2.63333c-0.59921,0.60264 -1.63333,0.16667 -2.53333,0.16667l-0.89999,0" id="svg_34" stroke-width="2" stroke="#000" fill="none"/>
  <path t="92942,93086,93117,93421,93445,93453,93493,93702,93725,93749,93765,93790,93846" d="m344.51135,50.09091c1.83334,0.16666 2.21667,0.92123 3.09985,1c0.88672,0.07909 0.92734,0.80174 0.90015,1.7c-0.02859,0.94413 -0.80133,1.29866 -1.69998,1.3l-0.89999,0l-0.90002,0l-0.88931,0" id="svg_35" stroke-width="2" stroke="#000" fill="none"/>
  <path t="94462,94605,94629,94677,94677,94693,94837,94861,94869,94877,95037,95069,95085,95093,95125" d="m343.51135,63.09091c1,0 1.7063,0.22954 2.16669,1c0.42993,0.71949 1.40665,0.65561 2.22266,1.01067c0.73138,0.31824 -0.20322,1.04488 -0.38934,1.86784c-0.1857,0.82109 -0.80133,1.2055 -1.59998,1.69617l-0.80002,0.38933l-0.89548,0.036" id="svg_36" stroke-width="2" stroke="#000" fill="none"/>
  <path t="97030,97285,97310,97325,97333,97349,97381,97397,97413,97445,97485,97501,97525,97541,97549,97565,97597,97606,97621,97621,97653,97701,97901,97933,97968,98037,98085,98133,98237,98317,98317,98661,98701,98709,98717,98741,98749,98773,98781,98789,98805,98805,98821,98829,98869,98893,98917,98933,98950,98957,98957,98989,98994,99061,99077,99253,99381,99397,99453,99477,99517,99541,99557,99573,99582,99598,99877,99886,99893,99909,99909" d="m325.51135,41.09091c0,1.8 0,2.7 0,3.6c0,0.9 0,1.8 0,2.7c0,0.9 0,1.8 0,2.7c0,0.83333 0,1.61066 0,2.6c0,0.9 0,1.8 0,2.7c0,0.9 0,1.8 0,2.7c0,0.8 -0.00537,1.70002 0,2.564c0.00534,0.86138 0.61063,1.43067 1.47919,1.436c0.87796,0.00539 1.82083,0 2.72083,0c0.89999,0 1.80084,0.0372 2.60001,0c0.91766,-0.04271 1.19998,-0.916 1.19998,-1.7045c0,-0.8955 0,-1.7955 0,-2.6955c0,-0.9 0,-1.8 0,-2.7c0,-0.9 0,-1.7 0,-2.6c0,-0.94283 0,-1.82084 0,-2.7c0,-0.9 0,-1.8 0,-2.7c0,-0.9 0,-1.7 0,-2.6c0,-0.94283 0,-1.82084 0,-2.68933c0,-0.96783 0.01819,-1.81085 0,-2.7105c-0.01801,-0.89005 -0.80133,-0.90017 -1.69998,-0.90017c-0.89999,0 -1.80002,-0.00485 -2.70001,0c-0.98935,0.00533 -1.67758,0.42608 -2.17465,1.02533c-0.5101,0.61495 -0.42535,1.6175 -0.42667,2.54267l-0.05585,0.72667" id="svg_37" stroke-width="2" stroke="#000" fill="none"/>
 </g>
 <g display="none">
  <title>muse_image</title>
  <image xlink:href="http://farm1.static.flickr.com/225/493218376_e099c1f15d.jpg" id="muse" height="480" width="360" y="0" x="140"/>
 </g>
 <g display="none">
  <title>bbox</title>
  <rect stroke="#f00" fill="none" stroke-width="3" height="447.36" width="185.28" y="16.32" x="221.6" id="bbox"/>
 </g>
</svg>
