<svg width="640" height="480" xmlns="http://www.w3.org/2000/svg" xmlns:svg="http://www.w3.org/2000/svg" xmlns:xlink="http://www.w3.org/1999/xlink">
 <!-- Sketchy ANNOTATION
  ImageNet ID: n02676566_12344
  URL: http://farm4.static.flickr.com/3465/3812354362_9728b49907.jpg
  Image Width: 333
  Image Height: 500
  BBox X: 5
  BBox Y: 3
  BBox Width: 196
  BBox Height: 486
  Exposure: 2000ms
  Synset Label: guitar
  Synset ID: n03467517
  Worker Tag: guitar, acoustic guitar, instrument
  Sanity Check: 
   Saved
  Comment: 
   {}
  Worker ID: A11HH2SFNNBRCC
  Assignment ID: 3F1567XTNW5BW8N09QG7XF4XP43Q9A
  HIT ID: 30P8I9JKOILID9JB2XSY223IGB95VA
  Work Time: 194s
  Worker Score: 0.7857
 END ANNOTATION -->
 <g display="inline">
  <title>Layer 1</title>
  <path t="0,248,282,300,317,335,335,354,372,400,400,447,480,497,521,540,556,556,573,590,606,606,623,623,640,640,656,657,673,673,690,708,708,708,724,724,742,759,759,759,776,776,794,812,812,829,829,845,863,888,888,907,924,924,940,957,957,974,974,974,990,991,1008,1008,1008,1008,1024,1024,1041,1041,1041,1058,1074,1075,1091,1091,1091,1112,1112,1129,1146,1164,1164,1181,1181,1181,1199,1199,1199,1216,1216,1216,1216,1240,1240,1241,1279,1279,1296,1314,1331,1348,1348,1365,1365,1382,1400,1417,1452,1452,1469,1487,1487,1504,1504,1521,1538,1538,1557,1576,1592,1609,1626,1643,1661,1679,1696,1713,1731,1761,1777,1794,1811,1912,1924,1924,1924,1924,1945,1945,1960,1977,1994,2013,2013,2028,2048,2072,2089,2106,2123,2124,2166,2167,2176,2195,2195,2214,2229,2229,2245,2245,2261,2261,2279,2295,2295,2312,2329,2346,2346,2363,2363,2381,2398,2416,2416,2433,2433,2450,2468,2488,2488,2506,2506,2523,2540,2540,2558,2576,2576,2595,2595,2612,2612,2612,2629,2629,2645,2646,2664,2664,2681,2681,2698,2715,2715,2732,2750,2750,2768,2785,2785,2802,2819,2836,2837,2837,2854,2854,2872,2872,2889,2889,2906,2906,2923,2956,2964,2964,2980,2980,2997,2997,2997,3014,3014,3014,3030,3048,3048,3063,3063,3080,3097,3097,3097,3114,3114,3131,3131,3131,3148,3148,3164,3182,3182,3182,3197,3197,3214,3214,3232,3232,3247,3264,3281,3281,3298,3298,3298,3314,3314,3331,3331,3331,3349,3349,3364,3364,3381,3382,3382,3382,3398,3398,3398,3398,3420,3420,3420,3420,3433,3433,3450,3450,3450,3450,3450,3467,3467,3467,3484,3484,3502,3502,3502,3519,3536,3536,3553,3570,3588,3588,3605,3605,3605,3623,3623,3640,3640,3657,3657,3674,3674,3691,3709,3710,3727,3744,3763,3763,3783,3800,3800,3817,3817,3817,3832,3833,3833,3849,3866,3866,3866,3883,3883,3899,3899,3899,3916,3916,3933,3933,3950,3950,3950,3967,3983,3983,4000,4000,4017,4017,4033,4033,4050,4050,4050,4066,4067,4067,4083,4083,4083,4100,4100,4100,4117,4117,4117,4134,4134,4135,4135,4135,4152,4152,4152,4152,4169,4169,4169,4169,4186,4186,4186,4203,4203,4203,4220,4220,4238,4238,4238,4238,4255,4255,4255,4255,4273,4273,4273,4289,4290,4290,4290,4306,4306,4307,4323,4324,4340,4340,4340,4358,4358,4358,4375,4375,4392,4392,4393,4409,4409,4409,4433,4433,4444,4444,4461,4461,4481,4481,4496,4513,4513,4513,4532,4532,4532,4552,4568,4568,4585,4585,4601,4619,4619,4619,4635,4635,4651,4652,4669,4685,4685,4703,4703,4718,4719,4735,4735,4752,4752,4769,4770,4770,4785,4785,4785,4785,4802,4802,4819,4819,4835,4835,4852,4852,4872,4872,4889,4925,4942,4943,4959,4959,4978,4978,5000,5000,5021,5021,5036,5053,5053,5069,5069,5086,5103,5103,5119,5120,5136,5137,5153,5154,5170,5170,5187,5187,5204,5221,5238,5239,5256,5256,5273,5273,5273,5290,5290,5307,5328,5328,5346,5363,5380,5380,5381,5399,5399,5416,5416,5432,5433,5454,5454,5471,5487,5504,5504,5521,5537,5538,5554,5554,5571,5571,5588,5605,5605,5622,5638,5638,5638,5655,5655,5671,5671,5688,5689,5705,5706,5721,5738,5738,5755,5772,5788,5808,5808,5825,5825,5841,5842,5859,5859,5877,5894,5894,5912,5932,5932,5945,5945,5962,5980,5998,6014,6015,6032,6056,6056,6091,6108,6126,6144,6161,6161,6178,6178,6195,6212,6229,6229,6247,6247,6264,6265,6281,6282,6282,6299,6299,6316,6317,6334,6334,6351,6351,6368,6368,6368,6387,6406,6424,6424,6440,6440,6457,6473,6490,6490,6507,6507,6523,6540,6540,6557,6557,6574,6590,6607,6608,6624,6624,6641,6641,6657,6674,6674,6691,6708,6708,6728,6752,6752,6792,6816,6833,6833,6851,6868,6888,6909,6925,6941,6958,6988,7009,7027,7044,7062,7079,7096,7120,7120,7153,7171,7192,7209,7232,7232,7249,7266,7284,7319,7352,7369,7400,7432,7432,7456,7488,7504,7523,7543,7560,7577,7593,7616,7633,7650,7668,7668,7685,7685" d="m246,172.89999c1.71466,-0.99866 2.44038,-1.42651 2.916,-2.19865c0.45575,-0.73988 1.23199,-1.16873 1.884,-1.51733c0.8474,-0.45306 1.67236,-0.91083 2.52116,-1.16251c0.79095,-0.23451 1.68047,-0.31224 2.38333,-0.76883c0.72974,-0.47403 1.49878,-0.89586 2.39551,-1.23117c0.85065,-0.31808 1.73306,0.06976 2.60001,-0.17867c0.89658,-0.25693 1.61627,-0.87177 2.47464,-0.93216c0.93909,-0.06607 1.70935,-0.01068 2.66135,-0.01068c0.76532,0 1.76401,0 2.564,0c0.99869,0 1.76401,0 2.716,0c1.05066,0 1.72,0 2.48532,0c0.99417,0 1.91336,0 2.91953,0c0.8125,0 1.72983,0 2.47382,0c1.03601,0 1.888,0 2.83069,0c1.008,0 1.79999,0 2.65866,0c0.86331,0 1.76578,0.1138 2.716,-0.00133c0.91977,-0.11143 1.45361,-0.79941 2.32083,-0.97783c0.94363,-0.19414 1.82648,-0.02084 2.7265,-0.02084c0.91931,0 1.7735,0 2.75266,0c0.79999,0 1.60001,0 2.60901,0c0.66299,0 1.72433,0 2.69183,0c0.67831,0 1.64581,0 2.64581,0c0.85419,0 1.82135,0 2.55334,0c0.73199,0 1.83865,0 2.8215,0c0.69934,0 1.6785,0 2.47849,0c0.80002,0 1.7955,0 2.71469,0c0.96448,0 1.896,0 2.80682,0c0.69934,0 1.6785,0 2.48917,0c0.87466,0 1.87601,0 2.73099,0c0.62,0 1.97958,-0.00578 2.70651,0.0045c0.73111,0.01035 1.45529,-0.02913 2.70883,0.21684c0.78259,0.15356 1.41458,0.51451 2.44168,0.69333c0.93356,0.16254 1.89902,-0.0002 2.57599,0.51067c0.63266,0.47742 1.51666,0.50456 2.19998,0.61067c0.96066,0.14917 1.59744,0.78777 2.52536,0.9595c0.92905,0.17195 1.36078,0.81071 2.29999,1.00449c0.78793,0.16257 1.48849,0.56844 2.32132,1.09984c0.65543,0.41821 1.55072,0.6162 2.37418,0.95284c0.8616,0.35222 1.50644,0.96875 1.94733,1.64734c0.5148,0.79234 1.19629,1.1808 1.83633,1.82083c0.64005,0.64003 1.04724,1.28888 1.71951,1.7645c0.78027,0.55202 1.21896,1.26909 1.67984,1.93617c0.50403,0.72952 0.66815,1.44882 1.06433,2.13567c0.46982,0.81456 0.72379,1.45137 1.03632,2.16367c0.3663,0.83488 0.18347,1.98003 0.30484,2.53116c0.20908,0.94954 0.40506,1.58202 0.59451,2.6835c0.14236,0.8277 0.12149,1.7645 0.12149,2.66451c0,0.9045 0,1.92116 0,2.57916c0,1.03551 0.01797,1.82236 0,2.72084c-0.01801,0.90053 -0.44421,1.69231 -1.09982,2.39999c-0.54996,0.59364 -0.73276,1.41722 -0.91086,2.3c-0.1904,0.94376 -0.73645,1.63231 -1.07333,2.39999c-0.33444,0.76212 -0.79376,1.69115 -0.94131,2.37466c-0.20599,0.95425 -0.74316,1.69545 -0.922,2.47801c-0.19473,0.85211 -0.48807,1.7119 -1.1525,2.44733c-0.54248,0.60046 -0.80829,1.50623 -0.91086,2.31067c-0.11823,0.9272 -0.60086,1.55319 -0.86783,2.56783c-0.21091,0.80165 -0.08542,1.78337 -0.64233,2.5215c-0.50226,0.66571 -1.23999,1.22595 -1.422,2.15268c-0.16672,0.84891 -0.05716,1.82649 -0.05716,2.65182c0,1.01683 0,1.6955 0,2.674c0,0.82018 0,1.77867 0,2.67418c0,0.86333 0,1.722 0,2.66882c0,0.88918 -0.04736,1.88115 0.02084,2.6785c0.08612,1.0069 0.31647,1.60892 0.68365,2.40001c0.46909,1.0107 0.85535,1.55057 1.17416,2.57866c0.23499,0.75772 0.51663,1.66307 0.76868,2.42584c0.323,0.97751 0.26038,1.76404 0.354,2.71016c0.08868,0.89626 0.70248,1.56331 0.99866,2.40617c0.27527,0.78345 0.4696,1.76878 1.20001,2.30983c0.7883,0.58394 1.41382,0.88678 1.82532,1.76933c0.38403,0.82362 0.98154,1.56255 1.37466,2.22534c0.40717,0.68646 1.04108,1.53389 1.39999,2.144c0.45261,0.76938 0.73041,1.51631 1.03336,2.69733c0.20102,0.78365 0.51318,1.64302 0.96799,2.13335c0.66263,0.71439 0.97427,1.58514 1.48532,2.39999c0.36642,0.58426 1.40857,1.05444 1.888,1.47198c0.89371,0.77835 1.19794,1.58575 1.41467,2.11334c0.4277,1.04117 0.82837,1.95651 1.0535,2.55301c0.38065,1.00858 0.66821,1.84436 1.15851,2.547c0.52228,0.7485 0.88321,1.44894 1.146,2.362c0.26138,0.90826 0.4819,1.59192 0.854,2.354c0.48978,1.00305 0.80905,1.59354 1.29849,2.59866c0.3876,0.79602 0.65582,1.3913 0.8475,2.39551c0.17422,0.91278 0.52567,1.75406 1.05267,2.57117c0.41968,0.65073 0.75955,1.4252 0.94733,2.42883c0.13879,0.74182 0.42197,1.64355 0.854,2.28848c0.50861,0.75922 0.82178,1.47 1.17334,2.48001c0.29303,0.84186 0.87787,1.6308 1.05066,2.30798c0.2207,0.86493 0.49094,1.8446 0.62201,2.37985c0.30707,1.25403 0.27618,1.94281 0.51932,2.94815c0.19763,0.81723 0.62863,1.58527 0.77618,2.60001c0.11536,0.79337 0.02908,1.80295 0.078,2.42084c0.09119,1.15149 0.33243,1.94196 0.5,2.52084c0.27411,0.94684 0.58646,1.97769 0.77466,2.711c0.19128,0.74539 0.38037,1.48938 0.53784,2.58066c0.14444,1.00107 0.11591,1.63153 0.25067,2.48001c0.19894,1.25256 0.55118,1.93939 0.91599,3.01999c0.2131,0.63129 0.40158,1.32516 0.564,2.052c0.16299,0.72934 0.36389,2.12711 0.39999,2.76801c0.0498,0.88412 0.03601,1.92517 0.03601,2.82584c0,1.02081 0,1.81015 0,2.53549c0,0.98532 0,1.96933 0,2.83267c0,0.89548 0.13235,1.89246 -0.16666,2.65265c-0.28775,0.73163 -0.72098,1.54178 -0.83334,2.52084c-0.09131,0.79572 -0.27359,1.79608 -0.5,2.4375c-0.36227,1.02634 -0.55981,1.82819 -1.06799,2.52567c-0.53162,0.72964 -1.13779,1.51758 -1.48016,2.21149c-0.41287,0.83676 -1.15884,1.32266 -1.59467,2.00452c-0.52667,0.82397 -0.784,1.7088 -1.45718,2.39999c-0.49335,0.50656 -1.21414,1.18616 -1.89999,1.89999c-0.51074,0.53159 -1.00214,1.3324 -1.3045,2.00534c-0.33383,0.74295 -0.78333,1.75226 -1.52084,2.31201c-0.63364,0.4809 -1.61166,0.55673 -2.49597,1.12549c-0.55099,0.35437 -1.16043,1.11093 -1.93051,1.79999c-0.53546,0.47913 -1.51462,0.96454 -2.26901,1.25717c-0.52899,0.2052 -1.57693,0.55972 -2.4375,1c-0.89719,0.45898 -1.3866,0.94141 -2.20831,1.5c-0.6373,0.43326 -1.39487,0.74036 -2.19736,1.39999c-0.78476,0.64505 -1.23019,1.26419 -2.12131,1.79868c-0.69647,0.41776 -1.51675,0.62286 -2.49384,0.80133c-0.85614,0.15637 -1.51541,0.56851 -2.35419,1c-0.65805,0.33853 -1.45877,0.58267 -2.5,1c-0.71887,0.28812 -1.61179,0.71881 -2.58798,1.09985c-0.52747,0.20587 -1.34119,0.51746 -2.41202,0.73349c-0.93307,0.18823 -1.62704,0.17981 -2.58832,0.38815c-0.8331,0.18057 -1.42206,0.39935 -2.745,0.7785c-0.71713,0.20554 -1.46884,0.40189 -2.24402,0.60001c-0.79016,0.20193 -1.98953,0.49857 -2.78482,0.70001c-0.78403,0.19858 -1.54965,0.39166 -2.63785,0.69998c-0.68283,0.19345 -1.64072,0.49973 -2.26215,0.64285c-1.19586,0.27545 -1.79922,0.31891 -2.66852,0.3465c-1.06885,0.03394 -2,0.01065 -2.83466,0.01065c-1.01035,0 -1.67334,0 -2.73468,0c-0.9765,0 -1.6875,0 -2.41849,0c-1.08151,0 -2.091,0 -2.72733,0c-0.91953,0 -1.82083,0 -2.72086,0c-0.89999,0 -1.80017,-0.01349 -2.69998,0.00452c-0.90036,0.01801 -1.50845,0.03522 -2.69867,0.27948c-0.88809,0.18225 -1.43137,0.43393 -2.716,0.63068c-0.65991,0.10107 -1.68533,0.08533 -2.496,0.08533c-0.87466,0 -1.87332,0 -2.68933,0c-0.81601,0 -1.81467,0 -2.68933,0c-1.01083,0 -1.83151,0 -2.496,0c-0.99866,0 -1.81467,0 -2.63068,0c-1.22684,0 -1.87332,0 -2.88382,0c-0.77933,0 -1.77884,0.00513 -2.68417,0c-0.94138,-0.00534 -1.66138,-0.01981 -2.50134,-0.436c-0.9884,-0.48975 -1.62381,-0.86575 -2.39999,-1.164c-1.04709,-0.40237 -1.74295,-0.71976 -2.36798,-0.96399c-1.07837,-0.42136 -2.01563,-0.39081 -2.67203,-0.44666c-1.01633,-0.08646 -1.7034,-0.73627 -2.59598,-0.95334c-0.88687,-0.2157 -1.58401,-0.03601 -2.57333,-0.03601c-1.03601,0 -1.75458,0.03998 -2.65802,-0.00449c-0.86603,-0.0426 -1.77496,-0.39063 -2.34732,-1.16217c-0.4537,-0.6116 -0.96954,-1.56262 -1.63599,-1.84799c-0.81946,-0.35092 -1.57831,-0.58871 -2.56384,-1.08536c-0.78227,-0.39423 -1.63591,-0.89676 -2.17484,-1.29999c-0.79558,-0.59525 -1.47067,-1.02802 -2.14417,-1.29999c-1.10591,-0.44662 -1.77969,-0.60422 -2.46034,-0.77917c-0.9644,-0.24789 -1.98355,-0.35892 -2.90216,-0.60483c-0.7919,-0.21201 -1.53445,-0.61115 -2.23466,-1.39999c-0.56969,-0.64182 -1.17119,-1.54526 -1.70934,-1.86935c-0.95641,-0.57596 -1.6161,-0.77466 -2.25867,-1.36267c-0.69479,-0.63583 -1.04068,-1.31747 -1.52667,-1.884c-0.64171,-0.74805 -1.27362,-1.20157 -2.04199,-1.7045c-0.69374,-0.4541 -1.47462,-1.17096 -1.93668,-1.87015c-0.52501,-0.79443 -1.05833,-1.37793 -1.38533,-2.23599c-0.33597,-0.88165 -0.58664,-1.56778 -0.90399,-2.56784c-0.25572,-0.80588 -0.74503,-1.49786 -1.03734,-2.50549c-0.19482,-0.67157 -0.45776,-1.58804 -0.8,-2.40002c-0.31294,-0.74249 -0.25276,-1.71793 -0.2885,-2.716c-0.02869,-0.80121 -0.2778,-1.79929 -0.4955,-2.37915c-0.37558,-1.00043 -0.49933,-1.81949 -0.5,-2.72083c-0.00069,-0.936 0,-1.78534 0,-2.51068c0,-0.98932 0,-1.78934 0,-2.78934c0,-0.79999 0,-1.60001 0,-2.78934c0,-0.72531 0,-1.71066 0,-2.69333c0,-0.8075 0,-1.68533 0,-2.55899c0,-0.95834 -0.0018,-1.75833 0,-2.55835c0.00226,-1 -0.01193,-1.81824 0.284,-2.79865c0.23657,-0.78375 0.66769,-1.7142 0.71468,-2.48535c0.05724,-0.93964 0.0446,-1.65121 0.50133,-2.59515c0.40622,-0.83957 0.49612,-1.72217 0.5,-2.40616c0.00534,-0.94003 0.18805,-1.93774 0.5,-2.61469c0.4471,-0.97025 0.39008,-1.72284 0.784,-2.61465c0.32687,-0.74002 0.69832,-1.53568 1,-2.36932c0.31873,-0.8808 0.59581,-1.7821 0.88268,-2.68268c0.21899,-0.68747 0.64143,-1.4313 1.032,-2.23199c0.37181,-0.76224 0.66821,-1.72977 0.88533,-2.48535c0.27931,-0.97202 0.67624,-1.70804 0.86333,-2.71149c0.13834,-0.74194 0.50835,-1.59103 0.886,-2.40451c0.35301,-0.76041 0.91156,-1.53769 1.13068,-2.39999c0.22299,-0.87753 0.19925,-1.76801 0.46133,-2.42532c0.40276,-1.0101 0.53798,-1.82129 0.86,-2.65866c0.27403,-0.71259 0.99423,-1.57693 1.3575,-2.21152c0.44276,-0.77347 0.24953,-1.80252 0.41432,-2.65182c0.17963,-0.92575 0.85486,-1.64001 0.93834,-2.40985c0.09653,-0.89026 0.0045,-1.75882 0.0045,-2.72198c0,-0.92084 -0.13168,-1.87091 0.22133,-2.62085c0.36504,-0.77551 0.77333,-1.53592 0.77867,-2.38266c0.00597,-0.94797 0.66866,-1.35217 0.97917,-2.03815c0.36266,-0.80118 0.02083,-1.78369 0.02083,-2.64584c0,-0.83334 0,-1.81183 0,-2.632c0,-0.90134 0,-1.83733 0,-2.68666c0,-0.91917 0.00006,-1.91467 0,-2.71468c-0.00009,-1 0.05653,-1.81438 -0.16667,-2.8c-0.13875,-0.61264 -0.54149,-1.38559 -0.74933,-2.39867c-0.15536,-0.75732 -0.37045,-1.7166 -0.7885,-2.35399c-0.59258,-0.90349 -0.93826,-1.43633 -1.17416,-2.44734c-0.18387,-0.78798 -0.26271,-1.80875 -0.54668,-2.58932c-0.26714,-0.73433 -0.50398,-1.72395 -0.92732,-2.51067c-0.45375,-0.84325 -0.70784,-1.59398 -1,-2.35268c-0.33659,-0.8741 -0.56876,-1.86491 -1,-2.64732c-0.4099,-0.74367 -0.60556,-1.45831 -0.65184,-2.35268c-0.04482,-0.86594 -0.46565,-1.69876 -0.9955,-2.51399c-0.41696,-0.64154 -0.89766,-1.6562 -0.98933,-2.42267c-0.10822,-0.90477 -0.50346,-1.65083 -0.84399,-2.57733c-0.23166,-0.63029 -0.07378,-1.67641 -0.20267,-2.45866c-0.14529,-0.88188 -0.72629,-1.69196 -0.90685,-2.61751c-0.16451,-0.84334 -0.05716,-1.6425 -0.05716,-2.5825c0,-1.008 0,-1.76399 0,-2.6955c0,-0.96184 0,-1.76933 0,-2.70067c0,-0.87849 0,-1.7785 0,-2.57849c0,-0.90001 0,-1.8 0,-2.70001c0,-0.89999 -0.0173,-1.81134 0.5,-2.5c0.46999,-0.62567 0.46098,-1.51288 0.92534,-2.01067c0.51363,-0.55061 0.66414,-1.40669 1.14932,-2.01466c0.49838,-0.6245 0.40598,-1.62888 0.70934,-2.45734c0.24672,-0.67375 1.14587,-1.16557 1.63068,-1.80266c0.55557,-0.73009 0.61703,-1.4617 1,-2.284c0.33212,-0.71312 -0.01268,-1.73796 0.51067,-2.40533c0.48921,-0.62386 0.97655,-1.29504 1.45332,-2.12517c0.45386,-0.79021 0.9686,-1.30458 1.40533,-2.10017c0.35577,-0.6481 0.76772,-1.50053 1.216,-2.3c0.44637,-0.79602 1.0264,-1.30971 1.69867,-1.78532c0.78027,-0.55202 1.21895,-1.26912 1.67982,-1.93617c0.50404,-0.72952 0.56644,-1.51741 1.06883,-2.13567c0.57346,-0.7057 0.75717,-1.39999 1.35718,-2.3l0.3315,-0.5535" id="svg_1" stroke-width="2" stroke="#000" fill="none"/>
  <path t="12336,12447,12465,12502,12527,12574,12600,12624,12648,12671,12695,12743,12744,12762,12784,12801,12818,12835,12835,12864,12887,12943,12961,12978,12996,12996,13016,13039,13057,13074,13091,13109,13126,13126,13144,13144,13161,13183,13183,13207,13231,13256,13279,13296,13313,13349,13366,13384,13384,13401,13428,13435,13453,13453,13470,13489,13508,13525,13542,13559,13575,13606,13607,13626,13657,13676,13695,13712,13712,13736,13753,13770,13792,13809,13827,13847,13865,13883,13900,13920,13937,13967,13985,14007,14027,14043,14060,14077,14094,14110,14110,14127,14151,14152,14190,14224,14224,14257,14277,14277,14277,14294,14311,14328,14345,14362,14380,14398,14398,14415,14416,14439,14456,14475,14495,14511,14529,14559,14578,14595,14595,14611,14628,14645,14662,14662,14680,14714,14714,14732,14749,14766,14766,14784,14819,14837,14854,14872,14889,14906,14906,14927,14951,14951,14968,15003,15021,15038,15038,15056,15080,15096,15114,15114,15131,15149,15167,15199,15231,15255,15272,15312,15312,15343,15376,15394,15424,15479,15514,15530,15530,15566,15583,15607,15631,15655,15673,15720,15720,15736,15783,15801,15847" d="m271,207.89999c0,-1.7 0.00323,-2.79018 0.80133,-2.99866c0.87134,-0.22762 1.70871,-0.48392 2.49417,-0.94867c0.66058,-0.39087 1.22516,-1.04225 2.10449,-1.05267c0.89545,-0.01062 1.68845,-0.27209 2.3045,-0.64732c0.8187,-0.49864 1.8085,-0.21059 2.6955,-0.36334c0.83316,-0.14348 1.5874,-0.9043 2.39999,-0.98799c0.89529,-0.09222 1.76401,-0.00134 2.72086,-0.00134c0.87915,0 1.78366,0 2.64581,0c0.83334,0 1.81168,0 2.71201,0c0.82584,0 1.72137,-0.00528 2.62134,0c0.91074,0.00534 1.81851,0.22832 2.5,0.5c0.97455,0.38852 1.70721,0.38252 2.63599,0.53601c0.87173,0.14406 1.56354,0.47678 2.47736,0.87999c0.86127,0.38004 1.39429,0.92592 2.18216,1.43668c0.70245,0.45538 1.24762,0.87425 1.92584,1.526c0.58072,0.55807 1.4028,0.86232 2.07333,1.174c0.80048,0.37207 0.5939,1.51689 1.0625,2.24733c0.51318,0.79991 1.38171,1.23438 1.60681,2.10001c0.22562,0.86755 0.42358,1.61496 1.06134,2.17467c0.5896,0.51744 0.57196,1.36316 1.06,2.14c0.46494,0.74005 0.95538,1.18909 1.34,2.09999c0.36746,0.87027 0.4989,1.66078 0.92734,2.48534c0.44141,0.84952 0.64667,1.5 0.64734,2.40001c0.00067,0.89999 0,1.79999 0,2.7c0,0.89999 0,1.8 0,2.69983c0,0.92551 0,1.70151 0,2.60017c0,0.89999 0.05298,1.83478 -0.35266,2.59999c-0.44836,0.84579 -1.194,1.37033 -1.59018,2.05717c-0.46982,0.81456 -0.59784,1.51746 -1.05716,2.16367c-0.49548,0.6971 -0.7774,1.61722 -1.08401,2.27916c-0.40256,0.86908 -1.21597,1.5 -1.71597,2c-0.70001,0.7 -1.29877,1.3009 -1.91467,1.91467c-0.64587,0.64363 -1.43451,1.31657 -2.11069,1.67467c-0.67465,0.35728 -1.72018,0.48546 -2.47015,0.96333c-0.79507,0.50662 -1.48193,0.774 -2.3045,1.222c-0.78976,0.43013 -1.7215,0.42532 -2.42084,0.42532c-0.97916,0 -1.9375,0 -2.80981,0c-0.87384,0 -1.76935,0 -2.66934,0c-0.89999,0 -1.79999,0.00008 -2.70001,0c-0.89999,-0.00008 -1.76666,-0.22058 -2.39999,-0.57466c-0.86127,-0.48151 -1.80814,-0.30884 -2.69998,-0.42982c-0.82135,-0.11142 -1.46677,-0.84605 -2.34283,-0.99101c-0.91278,-0.15103 -1.83069,0.0054 -2.29584,-0.85516c-0.40286,-0.74535 -1.0296,-1.36713 -1.66135,-1.724c-0.84259,-0.47597 -1.30374,-0.96741 -1.92084,-1.42534c-0.68503,-0.50833 -1.08627,-1.28987 -1.70065,-1.87866c-0.68073,-0.65237 -1.47314,-0.80507 -1.7785,-1.64217c-0.34369,-0.94217 -0.31058,-1.84518 -1.08401,-2.4765c-0.68109,-0.55594 -0.7327,-1.15694 -1.08264,-2.00267c-0.32468,-0.78462 -0.68094,-1.51434 -0.84402,-2.39999c-0.15311,-0.83142 -0.9043,-1.5874 -0.98798,-2.39999c-0.09222,-0.89528 -0.00134,-1.8 -0.00134,-2.70001c0,-0.89999 0,-1.79999 0,-2.69865c0,-0.88535 0,-1.80135 0,-2.60133c0,-0.90001 0,-1.8 0,-2.70001c0,-0.88933 -0.1087,-1.79196 0.00134,-2.7c0.11148,-0.91977 0.79718,-1.45631 0.98798,-2.39999c0.17435,-0.86229 0.76233,-1.34364 1.0062,-2.10451c0.28702,-0.89548 0.86087,-1.34731 1.00449,-2.2955c0.11981,-0.79097 0.05716,-1.64282 0.83334,-2.16666l0.45065,-0.74933l0.65884,-0.44118" id="svg_2" stroke-width="2" stroke="#000" fill="none"/>
  <path t="23031,23200,23220,23220,23239,23256,23280,23311,23329,23346,23364,23382,23382,23402,23423,23447,23447,23465,23486,23503,23519,23519,23536,23552,23569,23586,23632,23648,23648,23671,23688,23705,23722,23739,23740,23758,23758,23758,23774,23792,23809,23855,23855,23873,23890,23908,23926,23943,23943,23960,23960,23978,23995,24015,24015,24032,24032,24050,24071,24087,24104,24121,24137,24154,24171,24171,24188,24204,24222,24238,24238,24256,24256,24279,24279,24297,24314,24331,24331,24349,24349,24368,24369,24388,24404,24423,24440,24440,24471,24495,24512,24552,24568,24588,24605,24622,24639,24663,24687,24707,24707,24727,24745,24767,24786,24806,24831,24848,24865,24882,24911,24928,24951,24969,24999,25040,25057,25087,25107,25136,25157,25175,25199,25199,25216,25247,25289,25320,25341,25341,25358,25406,25446,25446,25464" d="m313,205.89999c1.83334,0 2.32693,0.5508 2.64734,1.35184c0.34756,0.86894 0.89334,1.5228 1.35266,2.16901c0.49548,0.6971 0.67236,1.70773 1.22134,2.35783c0.56097,0.66431 1.04651,1.33682 1.57999,1.92133c0.65686,0.7197 0.94211,1.47856 1.42017,2.29984c0.3656,0.62807 1.22672,1.03033 1.86252,1.61617c0.62405,0.575 1.36188,1.12022 1.63065,1.80133c0.39703,1.00609 1.07611,1.48357 1.284,2.28401c0.21204,0.81644 0.74652,1.40627 1.168,2.19865c0.34073,0.64061 0.90781,1.41026 1.40802,2.02534c0.50412,0.61987 0.40417,1.62958 0.71066,2.45999c0.27527,0.74577 0.82483,1.70955 1.104,2.304c0.33792,0.71954 0.54071,1.85522 1.03598,2.60001c0.48434,0.72838 0.54932,1.61105 0.57468,2.41066c0.02859,0.90137 0.66287,1.62634 0.91467,2.40001c0.27979,0.85965 0.08533,1.79999 0.08533,2.68533c0,0.94 -0.00552,1.63068 0,2.59383c0.00534,0.93155 0.22833,1.83934 0.5,2.52083c0.38852,0.97456 0.49933,1.79868 0.5,2.70001c0.00067,0.89999 0,1.79999 0,2.7c0,0.89999 0,1.8 0,2.7c0,0.89999 0,1.7 0,2.60001c0,0.89999 0,1.82083 0,2.62149c0,0.88916 0.0665,1.88297 -0.02084,2.65768c-0.1142,1.01282 -0.6265,1.71631 -0.97916,2.52081c-0.35266,0.8045 -0.84097,1.6651 -0.97467,2.32535c-0.20364,1.00571 -0.65338,1.74771 -1.224,2.37466c-0.53265,0.58527 -0.90622,1.47665 -1.60266,1.884c-0.82581,0.483 -1.30664,1.24683 -1.99866,1.63065c-0.82449,0.45728 -1.64835,0.52737 -2.28403,1.00134c-0.76883,0.57324 -1.79465,0.284 -2.62048,0.284c-0.89551,0 -1.7955,0 -2.6955,0c-0.89999,0 -1.84848,0.15353 -2.60001,-0.16666c-0.78122,-0.33286 -1.43356,-0.98834 -2.05267,-1.48068c-0.64728,-0.51471 -1.63553,-0.45227 -2.03134,-1.15399c-0.46051,-0.81644 -0.89066,-1.58798 -1.41599,-2.19867c-0.52533,-0.61066 -0.93448,-1.39444 -1.41599,-2.19867c-0.44522,-0.74362 -1.06595,-1.23679 -1.08401,-2.09683c-0.01947,-0.9256 -0.62769,-1.45209 -0.97916,-2.22531c-0.36392,-0.8006 -0.02084,-1.77917 -0.02084,-2.67917c0,-0.90002 -0.02536,-1.80042 0,-2.60001c0.02859,-0.90137 0.73862,-1.56551 1,-2.42151c0.25656,-0.84019 -0.0372,-1.77937 0,-2.57849c0.04272,-0.91765 0.83334,-1.36667 1,-2.20001l0,-0.79999l0.08533,-0.91467" id="svg_3" stroke-width="2" stroke="#000" fill="none"/>
  <path t="28030,28136,28153,28153,28171,28171,28188,28188,28206,28223,28223,28240,28257,28274,28274,28292,28292,28292,28309,28309,28309,28328,28350,28366,28366,28383,28401,28401,28416,28433,28449,28465,28482,28498,28499,28499,28515,28515,28532,28566,28583,28633,28633,28650,28668,28687,28704,28722,28838,28863,29134,29198,29218,29239,29256,29302,29350,29383,29550,29568,29585,29602,29602,29619,29635,29635,29653,29653,29670,29688,29688,29722,29739,29757,29775,29792,29810,29827,29844,29878,29926,29974,30016,30032,30052,30052,30070,30070,30070,30086,30103,30120,30120,30136,30136,30153,30153,30153,30170,30191,30209,30226,30243,30261,30261,30287,30334,30438,30463,30483,30503,30521,30538,30559,30591,30591,30608,30626,30643,30661,30661,30679,30726,30726,30774,30807,30894,30967" d="m276,298.89999c1.75717,-0.05716 2.64172,-0.39529 3.40451,-0.64734c0.97751,-0.323 1.75946,-0.34732 2.71149,-0.35266c0.76801,-0.0043 1.70935,0 2.71735,0c0.75598,0 1.70132,0.0528 2.46664,-0.35266c0.84631,-0.44836 1.5715,-0.64508 2.46417,-0.64734c0.92252,-0.00232 1.59583,0 2.9025,0c0.81451,0 1.47601,0 2.448,0c0.98535,0 1.88535,0 2.68533,0c0.836,0 1.85269,0 2.54733,0c1.01669,0 1.95267,0 2.85269,0c0.89981,0 1.75632,0 2.65466,0c0.68698,0 1.46399,0 2.68365,0c0.80002,0 1.7045,0 2.66034,0c0.88535,0 1.80133,0 2.60132,0c0.90002,0 1.80005,0.0054 2.70001,0c0.8894,-0.00534 1.37393,-0.72559 2.11066,-0.98932c0.83737,-0.29977 1.85339,-0.35034 2.77869,0c0.72931,0.27615 0.61066,1.38931 0.61066,2.28934c0,0.89999 0.04498,1.80099 0,2.67465c-0.04272,0.82996 -0.60919,1.37677 -1.38934,2.01068c-0.61032,0.49588 -0.44226,1.47684 -0.96783,2.25299c-0.5499,0.81207 -1.52979,0.71576 -2.46817,0.77234c-0.69342,0.04181 -1.66394,0.49948 -2.27448,1.08917c-0.6254,0.60406 -1.52716,0.7413 -2.19568,1.25732c-0.7475,0.577 -1.00504,1.46457 -1.80432,1.64301c-0.84335,0.18826 -1.30875,0.99344 -1.90018,1.49982c-0.59442,0.50894 -1.5,0.5 -2.38934,0.5c-0.96783,0 -1.81198,0 -2.77731,0c-0.66934,0 -1.83334,0 -2.62268,0c-0.72534,0 -1.68982,0 -2.62134,0c-0.91083,0 -1.79999,0 -2.78934,0c-0.79999,0 -1.79999,0 -2.58932,0c-0.72534,0 -1.68982,0 -2.61066,0c-0.89999,0 -1.80002,0 -2.70001,0c-0.89999,0 -1.69998,0 -2.60001,0c-0.94281,0 -1.82083,0.0022 -2.69998,0c-0.89551,-0.00226 -1.62848,-0.37598 -2.17468,-1.02533c-0.53461,-0.63556 -0.94089,-1.47983 -1.52533,-2.07468c-0.59467,-0.60526 -1.34238,-1.26575 -1.77866,-1.99982c-0.46588,-0.78387 -1.24738,-1.09103 -1.82135,-1.60468c-0.73532,-0.65802 -1.39398,-1.21936 -1.86398,-1.89551c-0.56009,-0.80579 -1.01068,-1.42532 -1.43466,-2.116l0.03467,-0.89465" id="svg_4" stroke-width="2" stroke="#000" fill="none"/>
  <path t="35663,35824,35842,35859,35876,35895,35919,35936,35936,35967,35985,36002,36020,36036,36053,36071,36071,36088,36106,36106,36127,36168,36186,36203,36203,36220,36220,36238,36238,36255,36272,36272,36289,36311,36328,36351,36370,36386,36403,36422,36440,36472,36472,36489,36506,36521,36539,36556,36575,36575,36599,36639,36656,36673,36695,36695,36712,36729,36729,36747,36768,36791,36808,36826,36843,36861,36861,36878,36878,36895,36912,36912,36929,36947,36947,36964,36964,36982,36999,36999,36999,37016,37016,37033,37034,37052,37052,37072,37088,37088,37106,37106,37106,37122,37122,37122,37139,37139,37155,37156,37173,37173,37189,37189,37189,37206,37206,37223,37223,37239,37239,37256,37272,37272,37289,37289,37306,37307,37327,37327,37344,37361,37379,37379,37397,37397,37414,37414,37431,37455,37455,37474,37489,37507,37507,37523,37524,37541,37541,37558,37575,37599,37599,37634,37651,37652,37671,37690,37707,37725,37740,37759,37775,37775,37791,37792,37809,37809,37831,37848,37865,37888,37888,37908,37908,37924,37924,37941,37958,37958,37975,37975,37991,37991,38009,38009,38025,38041,38058,38058,38079,38118" d="m298,199.89999c0,-1.61066 0,-2.5 0,-3.39999c0,-0.89999 0,-1.8 0,-2.7c0,-0.90001 0,-1.7 0,-2.60001c0,-0.89999 0,-1.8 0,-2.7c0,-0.89999 0,-1.80133 0,-2.76666c0,-0.8125 0,-1.728 0,-2.54317c0,-0.8075 0.00461,-1.84352 0,-2.72617c-0.00452,-0.86403 -0.47961,-1.61925 -1,-2.08484c-0.82117,-0.7347 -0.83871,-1.5251 -1.22134,-2.45766c-0.31659,-0.77159 -0.76822,-1.54218 -0.77866,-2.50551c-0.00748,-0.69061 0,-1.75883 0,-2.61583c0,-0.92551 0.19562,-1.7359 -0.05716,-2.60017c-0.25668,-0.87762 -0.91425,-1.59863 -0.94284,-2.5c-0.02853,-0.89954 0,-1.8 0,-2.59999c0,-0.90001 0.00195,-1.81961 -0.42532,-2.60001c-0.45038,-0.82257 -0.57468,-1.7 -0.57468,-2.60001c0,-0.79999 0,-1.71466 0,-2.61066c0,-0.88934 0,-1.8 0,-2.71066c0,-0.67868 0,-1.79333 0,-2.67868c0,-0.79999 0,-1.7 0,-2.59999c0,-0.90001 0,-1.8 0,-2.7c0,-0.90001 0.00446,-1.80019 0,-2.58534c-0.00534,-0.94005 -0.06915,-1.63763 -0.5,-2.61467c-0.3649,-0.82745 -0.49466,-1.67461 -0.5,-2.61465c-0.00504,-0.88533 0,-1.6425 0,-2.53801c0,-0.86333 0,-1.86816 0,-2.68066c0,-0.91733 0,-1.66133 0,-2.69733c0,-0.85201 0,-1.80534 0,-2.57067c0,-0.99416 0.10736,-1.74822 -0.01068,-2.77333c-0.11096,-0.96362 -0.57281,-1.62161 -0.82266,-2.62534c-0.19833,-0.79681 -0.1644,-1.45716 -0.16666,-2.68266c-0.00146,-0.7965 0,-1.548 0,-2.512c0,-0.77334 0.04132,-1.81403 -0.03601,-2.55467c-0.11667,-1.11731 -0.58508,-1.71436 -0.8425,-2.79333c-0.1655,-0.69367 -0.11923,-1.452 -0.12149,-2.48801c-0.00183,-0.852 0,-1.80533 0,-2.57066c0,-0.99416 0,-1.91333 0,-2.77333c0,-0.94684 0,-1.83601 0,-2.82517c0,-0.77933 0,-1.6335 0,-2.55283c0,-0.89999 0,-1.76333 0,-2.61133c0,-0.9405 0.13998,-1.82163 -0.04166,-2.636c-0.23019,-1.03212 -1.15665,-1.29605 -1.71533,-2.1c-0.42236,-0.60777 -0.24301,-1.65717 -0.24301,-2.55267c0,-0.86333 0,-1.8265 0,-2.65183c0,-1.01684 0,-1.6955 0,-2.67417c0,-0.90533 0,-1.84666 0,-2.53733c0,-0.96317 0,-1.89467 0,-2.80517c0,-0.8175 0,-1.8455 0,-2.67883c0,-0.8 0,-1.7 0,-2.6c0,-0.9 0,-1.8 0,-2.7c0,-0.90133 0,-1.86666 0,-2.7c0,-0.97867 0,-1.75267 0,-2.65267c0,-0.86333 0,-1.8265 0,-2.64733c0,-0.90133 0,-1.86667 0,-2.7c0,-0.97867 0,-1.75267 0,-2.65267c0,-0.86333 0,-1.722 0,-2.66867c0,-0.85333 0,-1.79467 0,-2.56266c0,-0.952 0.04135,-1.71838 -0.00449,-2.7115c-0.04254,-0.92173 -0.58331,-1.69053 -0.87402,-2.5045c-0.30548,-0.85525 -0.12149,-1.7 -0.12149,-2.6l0,-0.9" id="svg_5" stroke-width="2" stroke="#000" fill="none"/>
  <path t="39431,39553,39570,39588,39588,39588,39605,39605,39622,39622,39639,39639,39657,39674,39692,39692,39712,39730,39730,39746,39746,39764,39764,39780,39780,39797,39813,39813,39829,39829,39846,39863,39863,39879,39896,39896,39919,39919,39961,39992,40009,40028,40048,40064,40064,40080,40096,40096,40113,40130,40147,40147,40147,40164,40164,40180,40181,40197,40197,40214,40214,40215,40231,40248,40264,40264,40280,40280,40303,40303,40320,40337,40354,40354,40372,40372,40390,40390,40390,40407,40407,40425,40425,40442,40442,40459,40476,40476,40494,40514,40531,40531,40548,40549,40565,40565,40581,40581,40598,40615,40615,40631,40648,40648,40665,40665,40687,40687,40703,41438,41455,41455,41472,41472,41490,41490,41507,41525,41525,41542,41542,41559,41559,41576,41593,41615,41634,41651,41668,41668,41684,41702,41718,41718,41734,41751,41751,41769,41769,41785,41802,41819,41819,41836,41836,41853,41854,41871,41871,41871,41888,41888,41905,41922,41922,41940,41940,41957,41958,41975,41975,41975,41991,41991,42008,42008,42026,42026,42043,42061,42077,42095,42095,42112,42135,42183,42222" d="m277,198.89999c0,-1.7 0,-2.672 0,-3.54283c0,-0.71849 0,-1.50899 0,-2.77182c0,-0.66451 0.05313,-1.68787 -0.01068,-2.47467c-0.08533,-1.05214 -0.69482,-1.61246 -0.95331,-2.61067c-0.22577,-0.87196 -0.03156,-1.70018 -0.03601,-2.48534c-0.00534,-0.94005 -0.17734,-1.94276 -0.5,-2.61467c-0.39157,-0.81535 -0.4816,-1.71078 -0.50015,-2.69983c-0.01462,-0.77946 -0.25681,-1.7594 -0.57452,-2.3895c-0.45724,-0.90677 -0.33374,-1.74083 -0.46133,-2.58533c-0.14523,-0.96126 -0.81036,-1.59221 -0.95331,-2.46133c-0.16501,-1.00325 0.09619,-1.71803 -0.02136,-2.73868c-0.11096,-0.96344 -0.59247,-1.59145 -0.86783,-2.60367c-0.1955,-0.71864 -0.12149,-1.63232 -0.12149,-2.52167c0,-0.89999 0,-1.79999 0,-2.7c0,-0.90016 0,-1.68533 0,-2.62534c0,-1.008 0.00421,-1.78458 -0.42532,-2.57466c-0.44849,-0.82491 -0.57468,-1.76666 -0.57468,-2.436c0,-0.76532 0.00055,-1.76399 0,-2.564c-0.00067,-1 0.03934,-1.81696 -0.22134,-2.8c-0.21713,-0.81885 -0.65808,-1.79375 -0.74265,-2.58932c-0.07675,-0.72211 -0.03601,-1.8 -0.03601,-2.73151c0,-0.80049 0,-1.65382 0,-2.5965c0,-0.85201 0,-1.8835 0,-2.59601c0,-1.032 0,-1.82832 0,-2.77199c0,-0.72534 0.04736,-1.71732 -0.02084,-2.51468c-0.08612,-1.0069 -0.4552,-1.78334 -0.69516,-2.59999c-0.28906,-0.98381 -0.28174,-1.8 -0.284,-2.79867c-0.00171,-0.76534 0,-1.71733 0,-2.48534c0,-0.94133 0,-1.94933 0,-2.8115c0,-0.9045 0,-1.71516 0,-2.62583c0,-0.85333 0,-1.79466 0,-2.56267c0,-0.952 0,-1.71733 0,-2.71149c0,-0.91917 0,-1.9045 0,-2.72584c0,-0.85333 0,-1.79333 0,-2.779c0,-0.714 0,-1.66766 0,-2.39967c0,-1.16666 0,-1.95834 0,-2.9c0,-0.9 0,-1.80133 0,-2.48533c0,-0.95067 0,-1.716 0,-2.71017c0,-0.91917 0,-1.9045 0,-2.72601c0,-0.88917 0.0665,-1.88297 -0.02084,-2.65766c-0.1142,-1.01283 -0.7403,-1.54852 -0.95831,-2.52084c-0.19696,-0.87843 -0.02084,-1.8 -0.02084,-2.7c0,-0.9 0,-1.8 0,-2.60001c0,-0.89999 0.04193,-1.74023 -0.284,-2.684c-0.24463,-0.70829 -0.63986,-1.62983 -0.716,-2.516c-0.065,-0.75653 -0.38748,-1.6389 -0.64734,-2.34734c-0.3667,-0.9997 -0.27682,-1.97623 -0.51932,-2.81933c-0.19562,-0.68007 -0.73932,-1.65577 -0.82266,-2.45867c-0.08893,-0.85679 -0.00296,-1.62135 -0.01083,-2.79583c-0.00531,-0.79356 0.08939,-1.61217 -0.28384,-2.60817c-0.26489,-0.70686 -0.70557,-1.49133 -0.716,-2.456c-0.00784,-0.72529 0.06647,-1.71913 -0.02084,-2.49383c-0.1142,-1.01316 -0.64948,-1.65481 -0.85767,-2.56367c-0.16156,-0.7053 -0.11923,-1.50899 -0.12149,-2.7705c-0.0015,-0.84 0,-1.80267 0,-2.57067c0,-0.94133 0.21991,-1.66234 -0.03601,-2.70533c-0.21432,-0.87339 -0.92126,-1.60727 -0.96399,-2.41067c-0.04248,-0.79887 0,-1.7 0,-2.64283l0,-0.878l0,-0.87917" id="svg_6" stroke-width="2" stroke="#000" fill="none"/>
  <path t="52130,52225,52226,52241,52241,52241,52295,52295,52323,52323,52352,52379,52382,52397,52409,52427,52447,52462,52481,52481,52527,52622,52694,52750" d="m265,61.9c2.00983,0 2.78534,0 3.83334,0c0.93066,0 1.56262,0.02895 2.56534,-0.00134c0.94537,-0.02856 1.80719,-0.43631 2.48532,-0.71466c0.89099,-0.36574 1.87317,-0.284 2.72665,-0.284c0.88934,0 1.78934,0 2.68933,0c0.90002,0 1.85428,0.18327 2.70001,-0.16667c0.78464,-0.32466 1.5,-0.8125 2.39999,-0.83333l0.89999,0l0.90002,0" id="svg_8" stroke-width="2" stroke="#000" fill="none"/>
  <path t="55142,55213,55247,55264,55280,55280,55298,55315,55315,55315,55335,55335,55354,55354,55371,55388,55404,55421,55421,55438,55438,55455,55478,55478,55495,55519,55553,55571,55588,55604,55621,55621,55646,55647,55664,55681,55699,55716,55716,55733,55750,55750,55774,55774,55798,55816,55834,55852,55872,55872,55906,55906,55926,55943,55966,55983,56000,56017,56046,56063,56086,56086,56106,56213,56239,56270,56290,56306,56323,56340,56340,56357,56373,56373,56398,56430,56454,56478,56495,56518,56535,56554,56574,56590,56607,56624,56624,56641,56641,56662,56686,56734,56758,56776,56793,56810,56827,56828,56846,56863,56881,56898,56918,56935,56958,56975,56998,57016,57033,57050,57050,57051" d="m288,54.9c0,-1.7 0,-2.6 0,-3.52083c0,-0.96317 0.17648,-1.66995 -0.009,-2.7265c-0.16855,-0.96019 -0.75046,-1.37016 -1.28568,-2.15717c-0.5174,-0.76077 -0.53867,-1.62176 -0.92667,-2.574c-0.3147,-0.77235 -0.92819,-1.45944 -1.42599,-2.07417c-0.4971,-0.61385 -0.29984,-1.61076 -0.40982,-2.35183c-0.14972,-1.00867 -0.55042,-1.74833 -0.85883,-2.71017c-0.28098,-0.87619 -0.88406,-1.53797 -1.06317,-2.38533c-0.18396,-0.87035 -0.64499,-1.29073 -1,-2.02083c-0.38458,-0.79087 0.09583,-1.82234 -0.24219,-2.57933c-0.31924,-0.71498 -0.62967,-1.57338 -0.86267,-2.41583c-0.24368,-0.88103 -0.87326,-1.68097 -0.91599,-2.584c-0.04251,-0.89899 -0.11456,-1.68396 -0.5,-2.42083c-0.41046,-0.78468 -0.39008,-1.70201 -0.784,-2.59383c-0.32687,-0.74003 -0.74792,-1.59678 -1.14133,-2.28533c-0.46524,-0.81427 -0.37439,-1.7615 -0.74133,-2.6c-0.32181,-0.73535 -0.83334,-1.44283 -0.83334,-2.18533c0,-1.053 -0.19196,-1.81668 -0.64734,-2.51917c-0.51074,-0.78788 -0.99664,-1.35014 -1.43668,-2.09683c-0.41284,-0.70053 -0.76819,-1.70666 -1.35864,-2.2985c-0.59714,-0.59854 -1.10931,-1.19679 -1.77884,-1.77867c-0.6694,-0.58176 -1.93927,-0.61353 -2.61185,-0.1215c-0.59659,0.43645 -0.69717,1.49081 -1.26648,2.1c-0.55252,0.59124 -0.88522,1.57879 -1.6055,2.2c-0.5394,0.46519 -1.25867,1.09784 -1.29468,2c-0.03592,0.89928 0,1.79983 0,2.72533c0,0.776 0,1.67467 0,2.57467c0,0.9 0,1.8 0,2.7045c0,0.86217 0,1.6955 0,2.674c0,0.82017 0,1.7215 0,2.66433c0,0.878 0,1.75717 0,2.65717c0,0.9 0,1.8 0,2.7c0,0.8 0,1.7 0,2.6c0,0.9 0,1.8 0,2.7c0,0.9 0,1.79984 0,2.72533c0,0.776 0,1.67467 0,2.64667l0,0.871l0,0.729l0,0.837" id="svg_9" stroke-width="2" stroke="#000" fill="none"/>
  <path t="59528,59703,59720,59720,59737,59737,59755,59755,59774,59792,59792,59809,59838,59838,59901,59965,59990,60022,60039,60056,60078,60133,60166,60166,60183,60221,60232,60251,60270,60287,60325,60343,60360,60382,60416" d="m267,17.9c-1.83334,0 -2.71432,0 -3.409,0c-0.991,0 -1.79102,0 -2.79083,0c-0.77933,0 -1.77866,0 -2.80017,0c-0.79999,0 -1.63599,0 -2.48399,0c-0.86334,0 -1.90938,-0.22762 -2.81151,0.0045c-0.71391,0.18369 -0.8994,1.31718 -0.70317,2.19417c0.18057,0.80705 0.7892,1.34586 1.35583,2.09683c0.50484,0.66906 1.62207,1.16944 2.3575,0.61917c0.61673,-0.46147 0.28534,-1.61467 0.28534,-2.51467c0,-0.9 0.26782,-1.8424 -0.0045,-2.6955c-0.26192,-0.82051 -1.02083,-1.27917 -1.7115,-1.70317l-0.8465,-0.00133" id="svg_10" stroke-width="2" stroke="#000" fill="none"/>
  <path t="61030,61152,61169,61169,61186,61186,61206,61231,61254,61271,61271,61294,61318,61358,61382,61621,61654,61678,61710,61727,61765,61805,61823,61862,61909,61944,61966,62029,62047,62085" d="m271,29.9c-1.75717,0 -2.65717,0 -3.40451,0c-0.99417,0 -1.93832,0 -2.83832,0c-0.95718,0 -1.85718,0 -2.75717,0c-0.79999,0 -1.60001,0 -2.564,0c-0.87201,0 -1.76733,-0.24342 -2.73151,0.0045c-0.71394,0.18358 -0.89938,1.31718 -0.70316,2.19417c0.18057,0.80704 0.80859,1.46482 1.5195,1.7805c0.87668,0.3893 1.4545,1.14193 2.19516,0.93417c0.90457,-0.25374 1.19867,-1.19867 1.284,-2.11333l-0.00015,-0.89983l-0.22134,-0.77867" id="svg_11" stroke-width="2" stroke="#000" fill="none"/>
  <path t="62622,62719,62739,62739,62739,62758,62758,62774,62774,62791,62807,62807,62825,62841,62857,62874,62874,62917,62965,63206,63230,63230,63247,63278,63295,63312,63329,63346,63366,63501,63518,63542,63542,63574,63661" d="m273,39.9c-1.672,0 -2.76935,0 -3.52084,0c-0.79648,0 -1.79248,0 -2.63248,0c-0.96268,0 -1.73068,0 -2.67203,0c-1.008,0 -1.87015,0 -2.77466,0c-0.89999,0 -1.7045,0 -2.72131,0c-0.67868,0 -1.66119,-0.08996 -2.62601,0c-0.89764,0.08369 -1.22083,1.03644 -0.96735,1.8c0.25635,0.77217 0.65428,1.63911 0.91916,2.4955c0.23608,0.76331 1.07959,1.11903 1.64285,1.75716c0.52554,0.5954 1.58508,1.3816 2.186,0.78067c0.60092,-0.60093 0.16666,-1.63333 0.16666,-2.53333l-0.03601,-0.864" id="svg_12" stroke-width="2" stroke="#000" fill="none"/>
  <path t="79469,79624,79641,79658,79675,79693,79710,79727,79744,79761,79782,79806,79830,79864,79864,79881,79910,79927,79958,79975,79998,79998,80022,80039,80057,80074,80092,80110,80142,80190,80190,80207,80230,80262,80310,80326,80350,80374,80391,80414,80431,80466,80486,80486,80505,80535,80558,80606,80623,80646,80670,80689,80689,80706,80722,80742,80759,80782,80823,80846,80863,80863,80887,80910,80958,80974,81006,81030,81047,81064,81087,81087,81106,81123,81142,81142,81166,81166,81190,81207,81230,81254,81278,81295,81313,81330,81350,81367,81367,81385,81385,81404,81424,81441,81441,81471,81471,81494,81518,81535,81552,81569,81590,81639,81662,81686,81710,81727,81759,81783,81807,81831,81847,81871,81903,81942,81942,81961,81995,82022,82022,82045,82062,82102,82119,82136,82136,82158,82158,82182,82199,82223,82270,82302,82319,82342,82342,82374,82429,82454,82486,82518,82518,82535,82581,82614,82646,82694" d="m272,63.9c0,1.8 0,2.7 0,3.6c0,0.9 -0.00067,1.8 0,2.7c0.00067,0.89867 0.56885,1.37663 0.96399,2.13599c0.39917,0.76711 0.03601,1.76267 0.03601,2.648c0,0.916 0.1243,1.69343 0.57468,2.516c0.42728,0.78039 0.42532,1.7 0.42532,2.6c0,0.9 0,1.8 0,2.60001c0,0.89999 0,1.8 0,2.7c0,0.9 0,1.8 0,2.69867c0,0.854 0,1.80133 0,2.60133c0,0.89999 0,1.8 0,2.67916c0,0.87801 0,1.82084 0,2.72083c0,0.89983 -0.02802,1.77515 0,2.60133c0.02859,0.84296 0.91626,1.35297 1,2.19867c0.07883,0.79611 0,1.7 0,2.6c0,0.964 0,1.836 0,2.7c0,0.89999 0,1.8 0,2.7c0,0.8 0,1.7 0,2.6c0,0.9 0,1.8 0,2.6955c0,0.92599 0,1.8045 0,2.7045c0,0.8 0,1.7 0,2.64283c0,0.87801 0,1.75717 0,2.65717c0,0.89867 0,1.80983 0,2.572c0,1.128 0,1.90666 0,2.79466c0,0.875 0,1.81866 0,2.54401c0,0.98917 0,1.76849 0,2.76767c0,0.93765 0,1.72617 0,2.62166c0,0.89999 0,1.8 0,2.7c0,0.90001 0,1.8 0,2.7c0,0.75717 0,1.65268 0,2.51601c0,0.96317 -0.06244,1.91473 0.22134,2.80533c0.22275,0.69902 0.71646,1.65065 0.77731,2.47734c0.06616,0.89891 -0.00406,1.80135 0.00134,2.70132c0.00534,0.88939 0.73193,1.3759 0.99551,2.14734c0.28241,0.8266 0.00449,1.75267 0.00449,2.65266c0,0.90001 0,1.8 0,2.7c0,0.916 -0.18271,1.7309 0.03601,2.60001c0.21713,0.86279 0.92126,1.59558 0.96399,2.48401c0.04398,0.91493 -0.40274,1.8524 0.08533,2.63066c0.46436,0.74042 0.91467,1.28532 0.91467,2.08533c0,0.90001 -0.0304,1.85989 0.42532,2.636c0.45941,0.78238 0.57468,1.66417 0.57468,2.44934c0,0.94 0,1.63066 0,2.70399c0,0.91066 0,1.8 0,2.696c0,0.91467 0,1.81467 0,2.71466c0,0.8 -0.0304,1.6599 0.42532,2.436c0.45941,0.78238 0.57468,1.664 0.57468,2.564c0,0.8 0,1.70001 0,2.60001l0,0.89999l0,0.88934l0,0.896" id="svg_14" stroke-width="2" stroke="#000" fill="none"/>
  <path t="83902,84007,84007,84025,84025,84042,84042,84042,84059,84059,84059,84076,84076,84095,84095,84117,84149,84213,84237,84261,84261,84293,84312,84333,84390,84421,84421,84446,84469,84525,84557,84589,84621,84653,84685,84724,84741,84765,84789,84814,84852,84918,84941,84965,84965,84989,85015,85068,85093,85117,85149,85149,85169,85189,85231,85252,85268,85285,85302,85319,85319,85336,85358,85382,85403,85422,85445,85469,85501,85519,85541,85565,85589,85613,85653,85653,85686,85704,85725,85767,85789,85806,85806,85823,85840,85840,85857,85858,85875,85892,85892,85910,85910,85910,85927,85927,85944,85944,85961,85961,85978,85978,85996,85996,86013,86013,86030,86030,86047,86065,86084,86084,86105,86122,86122,86138,86155,86172,86172,86188,86205,86229,86261,86310,86333,86355,86371,86388,86405,86422,86439,86455" d="m281,191.89999c0,1.83601 0,2.60133 0,3.60451c0,0.85266 0,1.81683 0,2.62083c0,0.82201 0,1.85333 0,2.77466c0,0.68401 0,1.68268 0,2.47917c0,1.1875 0,1.97917 0,2.92084c0,0.89549 0,1.8215 0,2.7c0,0.89999 0,1.7 0,2.60001c0,0.89999 -0.12357,1.83401 0.284,2.58533c0.42981,0.79233 0.71533,1.51466 0.716,2.41467c0.00064,0.864 0,1.82083 0,2.7c0,0.89999 0,1.8 0,2.69983c0,0.87483 0,1.70151 0,2.60017c0,0.89999 0,1.79999 0,2.7c0,0.89549 0,1.8215 0,2.7c0,0.89999 0,1.7 0,2.60001c0,0.864 -0.04742,1.85359 0.35266,2.59999c0.45227,0.84378 0.64734,1.7 0.64734,2.5c0,0.90001 0,1.76401 0,2.636c0,0.964 0,1.864 0,2.76401c0,0.89999 0,1.79999 0,2.59999c0,0.90001 -0.00534,1.80002 0,2.7c0.00534,0.90005 0.50018,1.55852 0.87851,2.37885c0.34985,0.75859 0.12149,1.78783 0.12149,2.642c0,0.87917 0,1.77916 0,2.67783c0,0.854 0,1.80133 0,2.60135c0,0.89999 0,1.79999 0,2.67917c0,0.87799 0,1.82083 0,2.72217c0,0.68399 0,1.62399 0,2.63199c0,0.79199 0,1.81934 0,2.51401c0,1.02731 0,1.97415 0,2.67349c0,0.97916 0,1.77917 0,2.57916c0,1 0,1.79999 0,2.79999c0,0.80002 0,1.79984 0,2.76401c0,0.952 0,1.72 0,2.672c0,0.76535 0,1.76401 0,2.564c0,0.99869 0,1.76401 0,2.71469c0,0.98532 -0.1633,1.92017 0.08533,2.68533c0.25696,0.79089 0.8436,1.5163 0.90399,2.37466c0.06598,0.93774 0.01068,1.92532 0.01068,2.82532c0,0.80002 0,1.70001 0,2.60001c0,0.89999 0,1.78934 0,2.68533c0,0.91467 -0.08868,1.81906 0,2.71466c0.08374,0.8457 0.87851,1.2215 1,2.10001l0,0.89999l0.22134,0.87866" id="svg_15" stroke-width="2" stroke="#000" fill="none"/>
  <path t="88134,88270,88287,88305,88326,88344,88366,88398,88430,88454,88478,88510,88534,88566,88590,88622,88663,88686,88710,88710,88728,88745,88763,88778,88798,88832,88850,88850,88867,88867,88884,88902,88919,88935,88936,88953,88953,88975,88975,88995,89013,89029,89045,89062,89079,89079,89095,89112,89140,89140,89151,89174,89174,89192,89213,89229,89247,89263,89280,89296,89313,89329,89350,89367,89390,89407,89438,89462,89480,89502,89537,89554,89572,89572,89589,89606,89629,89647,89664,89685,89685,89702,89727,89774,89797,89822,89838,89861,89880,89897,89914,89930,89948,89948,89965,89982,89999,89999,90021,90038,90038,90055,90072,90073,90090,90107,90125,90125,90145,90166,90183,90201,90219,90235,90235,90262,90319,90335,90352,90369,90369,90390,90407,90424,90441,90458,90493,91366,91386,91403,91422,91438,91438,91485,91485,91525,91565,91598,91685,91720,91757,91790,91822,91822,91861,91925,91958,91976,92013,92053,92072,92104,92123,92151,92182,92200,92200,92239,92262,92262,92279,92318,92318,92342,92390,92413,92430,92461,92501,92523,92557,92581,92614,92614,92655,92673,92690,92709,92709,92725,92749,92766,92789,92813,92831,92848,92865,92882,92903,92903,92942,92960,92977,92994,93021,93053,93075,93093,93093,93110,93141,93190,93213,93230,93253,93295,93312,93312,93333,93333,93350,93368,93387,93409,93409,93426,93454,93476,93492,93509,93526,93542,93542,93559,93576,93576,93592,93610,93627,93627,93644,93662,93662,93679,93679,93696,93696,93713,93713,93730,93748,93748,93766,93766,93783,93783,93800,93800,93800,93817,93817,93817,93834,93852,93852,93871,93893,93893,93910,93927,93943,93960,93960,93989,93989,94011,94029,94077,94116,94141,94173,94215,94232,94261,94285,94332,94420,94437" d="m279,60.9c0,1.8 0,2.7 0,3.6c0,0.9 0,1.8 0,2.7c0,0.89999 0,1.79983 0,2.65183c0,0.75349 0,1.71483 0,2.569c0,0.97916 0,1.87917 0,2.77467c0,0.87116 0,1.8045 0,2.7045c0,0.8 0,1.7 0,2.6c0,0.9 0,1.8 0,2.6955c0,0.87116 0,1.7045 0,2.58983c0,0.94 0,1.63067 0,2.704c0,0.91067 0,1.71516 0,2.732c0,0.67867 0,1.65733 0,2.56267c0,0.94133 0,1.632 0,2.70533c0,0.91067 0,1.81067 0,2.71067c0,0.89999 -0.17355,1.73825 0.08533,2.5c0.30176,0.88792 0.89667,1.61013 0.91467,2.52133c0.01688,0.85316 0,1.79333 0,2.67867c0,0.8 0,1.7 0,2.6c0,0.9 0.06696,1.74356 0.57468,2.42533c0.4772,0.64082 0.42532,1.57467 0.42532,2.47467c0,0.9 0,1.7955 0,2.66933c0,0.83067 0,1.76933 0,2.632c0,0.89867 0,1.79867 0,2.67783c0,0.87801 -0.01105,1.8254 0,2.6875c0.01044,0.8127 0.61359,1.52848 0.96399,2.26933c0.36975,0.78172 0.03601,1.76401 0.03601,2.664c0,0.89999 0,1.7 0,2.60001c0,0.94283 0,1.82083 0,2.7c0,0.89999 0,1.8 0,2.69983c0,0.90016 0,1.70151 0,2.60017c0,0.93599 0,1.784 0,2.64732c0,0.89551 0,1.85268 0,2.75284c0,0.78517 0,1.72517 0,2.73317c0,0.756 0,1.6875 0,2.65067c0,0.69066 0,1.75883 0,2.616c0,0.89999 0,1.7 0,2.60001c0,0.89999 -0.05292,1.83473 0.35266,2.59999c0.4483,0.8459 0.64734,1.7 0.64734,2.5c0,0.91467 0.00061,1.82915 0.42532,2.60001c0.45255,0.82138 0.57468,1.59999 0.57468,2.39999c0,0.90001 -0.39819,1.90259 0.03601,2.76401c0.35226,0.69887 0.96332,1.23734 0.96399,2.15067c0.00067,0.896 0,1.78532 0,2.68533c0,0.9045 0,1.76666 0,2.59999c0,0.9785 0,1.79868 0,2.70001c0,0.89999 0,1.77916 0,2.73599c0,0.864 0,1.76401 0,2.664c0,0.89999 0,1.7 0,2.61467c0,0.896 0,1.78532 0,2.68533c0,0.89999 -0.14496,1.81061 0,2.68401c0.14395,0.86726 0.97141,1.27171 1,2.116c0.03046,0.89948 0,1.79999 0,2.59999c0,1.03334 -0.22629,1.97058 0.08533,2.632c0.3862,0.81973 0.91467,1.56799 0.91467,2.368c0,0.91467 0,1.81067 0,2.7c0,0.90001 -0.04773,1.80127 0,2.69867c0.04272,0.80341 0.95728,1.08333 1,1.90134c0.04694,0.89877 0,1.7 0,2.73334c0,0.77733 -0.02347,1.68782 0.00134,2.65067c0.01782,0.6913 0.44904,1.547 0.832,2.51599c0.31235,0.79036 0.16666,1.61067 0.16666,2.5c0,0.90001 0,1.8 0,2.70001c0,0.89999 0,1.79999 0,2.59999c0,1.03334 0,1.81067 0,2.7c0,0.90001 0,1.8 0,2.70001c0,0.89999 0,1.79999 0,2.59999c0,0.90001 0,1.84283 0,2.72084c0,0.87917 0,1.77916 0,2.67783c0,0.968 0,1.80133 0,2.68668c0,0.94 -0.00708,1.63069 0,2.70399c0.00534,0.81071 0.50052,1.62946 0.83334,2.41066c0.32019,0.75154 0.16666,1.70001 0.16666,2.60001c0,0.89999 0,1.8 0,2.7c0,0.90001 0,1.80017 0,2.58534c0,0.94 -0.14954,1.97025 0.03601,2.70401c0.22046,0.87183 0.92126,1.60764 0.96399,2.51083c0.03708,0.78427 0,1.72516 0,2.73315c0,0.79199 0,1.65201 0,2.37732c0,0.98917 0,1.95334 0,2.90533c0,0.76801 0,1.70935 0,2.71735c0,0.79199 0,1.65201 0,2.37732c0,0.98935 0,1.78934 0,2.78934c0,0.81067 0,1.68533 0,2.68268c0,0.79651 0,1.548 0,2.65601c0,0.98267 0,1.836 0,2.776c0,0.88531 0,1.68533 0,2.58533c0,0.89999 -0.03745,1.83774 0.22134,2.62134c0.28964,0.87698 0.71646,1.65063 0.77731,2.47733c0.06616,0.8989 0.00134,1.84418 0.00134,2.72217c0,0.87915 0,1.77917 0,2.67783c0,0.96802 0.56885,1.47797 0.96399,2.23734c0.39917,0.76712 0.03601,1.76401 0.03616,2.66385l0.22134,0.77847" id="svg_16" stroke-width="2" stroke="#000" fill="none"/>
  <path t="95878,95973,95974,95990,96008,96025,96054,96125,96149,96174,96198,96198,96216,96238,96279,96310,96334,96351,96374,96391,96408,96425,96442,96462,96494,96516,96534,96534,96558,96592,96610,96629,96650,96650,96667,96684,96684,96702,96720,96736,96754,96774,96798,96817,96834,96834,96850,96870,96887,96910,96951,96969,96987,97004,97004,97022,97040,97057,97074,97092,97109,97126,97126,97143,97143,97160,97160,97177,97177,97195,97195,97214,97214,97235,97251,97269,97286,97286,97302,97319,97319,97336,97358,97390,97407,97431,97451,97470,97487,97504,97504,97522,97539,97557,97574,97574,97591,97608,97625,97625,97643,97660,97660,97678,97678,97696,97696,97714,97714,97731,97731,97750,97773,97773,97789,97805,97821,97822,97838,97855,97855,97871,97888,97905,97905,97922,97938,97938,97956,97956,97972,97972,97989,98005,98022,98022,98039,98056,98078,98095,98113" d="m282,63.9c1,1 1,1.8 1,2.7c0,0.9 0,1.8 0,2.68934c0,0.896 -0.08212,1.81443 0.00015,2.71066c0.08368,0.91144 0.76086,1.4377 0.979,2.4c0.19666,0.86757 0.02084,1.78533 0.02084,2.7c0,0.89983 0,1.75184 0,2.50533c0,1.05183 0,1.81551 0,2.79467c0,0.9 0,1.8 0,2.7c0,0.9 0,1.8 0,2.60001c0,0.84283 0,1.72083 0,2.7c0,0.8045 0,1.82133 0,2.5c0,0.9785 0,2 0,2.8c0,0.89999 0,1.8 0,2.7c0,0.9 0,1.8 0,2.7c0,0.9 0,1.8 0,2.60001c0,0.89999 0,1.8 0,2.7c0,0.88934 0,1.78533 0,2.7c0,0.9 0,1.8 0,2.60001c0,0.89999 0,1.8 0,2.7c0,0.9 -0.09085,1.80474 0.00134,2.7c0.08368,0.81261 0.70099,1.39547 0.91333,2.28534c0.21417,0.89751 0.08533,1.91333 0.08533,2.67867c0,0.952 0,1.72 0,2.672c0,0.76534 0,1.7595 0,2.67867c0,0.9645 0,1.88534 0,2.78533c0,0.90134 0,1.58534 0,2.52534c0,1.008 0,1.87016 0,2.77466c0,0.89999 0,1.8 0,2.7c0,0.90001 0,1.8 0,2.7c0,0.83334 0,1.70984 0,2.51733c0,0.96184 -0.11652,1.89084 0.00449,2.78267c0.11142,0.82135 0.84146,1.46684 0.98483,2.3c0.15616,0.90756 0.01068,1.884 0.01068,2.57466c0,1.06818 -0.14938,1.97374 0.17065,2.71068c0.37402,0.86122 1.1192,1.25169 1.58652,2.3145c0.32617,0.74179 0.4483,1.61467 0.8175,2.42549c0.38242,0.83981 0.47961,1.66382 0.92532,2.37466c0.44446,0.70883 0.49933,1.51733 0.5,2.47917c0.00064,0.9315 0,1.84216 0,2.6955c0,0.94 0,1.82533 0,2.62534c0,0.90001 -0.0267,1.83646 0.00134,2.68401c0.02859,0.86465 0.48721,1.70422 0.832,2.68266c0.22318,0.63333 0.16492,1.66667 0.16666,2.45866c0.00226,1.02284 0.17853,1.73192 0.64734,2.42284c0.44577,0.65695 0.35266,1.60451 0.35266,2.46783c0,0.96317 0,1.884 0,2.784l0.00134,0.89867l0.35132,0.74867" id="svg_17" stroke-width="2" stroke="#000" fill="none"/>
  <path t="99918,100038,100055,100076,100093,100110,100127,100150,100174,100174,100198,100223,100246,100280,100297,100315,100342,100366,100366,100383,100414,100430,100447,100464,100481,100499,100516,100534,100551,100573,100597,100623,100623,100644,100660,100678,100678,100694,100717,100741,100773,100797,100821,100838,100857,100878,100895,100912,100929,100929,100945,100962,100980,100980,100998,101015,101015,101032,101032,101049,101067,101084,101084,101102,101102,101119,101136,101136,101153,101170,101188,101206,101206,101223,101242,101242,101263,101279,101296,101296,101314,101330,101330,101346,101346,101363,101363,101380,101396,101396,101414,101414,101430,101449,101464,101464,101464,101481,101481,101481,101497,101497,101513,101513,101530,101530,101530,101547,101547,101565,101565,101580,101580,101596,101596,101596,101613,101613,101630,101630,101647,101664,101664,101685,101685,101702,101719,101736,101757,101757,101812,101829,101846,101877,101909,101933,101980,102028" d="m292,181.89999c0,1.8 0,2.70001 0,3.60001c0,0.8 0,1.7 0,2.60001c0,0.89999 0,1.79999 0,2.59999c0,0.90001 0,1.8 0,2.76401c0,0.87199 0,1.73599 0,2.636c0,0.89999 0,1.79999 0,2.59999c0,0.90001 -0.00958,1.80005 0,2.7c0.01044,0.97934 0.77481,1.43661 0.99551,2.20451c0.24738,0.86066 0.00449,1.79549 0.00449,2.6955c0,0.89999 0,1.8 0,2.7c0,0.89999 0,1.7 0,2.60001c0,0.93599 0,1.784 0,2.64732c0,0.89551 0,1.85268 0,2.75267c0,0.89999 0,1.77867 0,2.60451c0,0.89549 0,1.79549 0,2.6955c0,0.89999 -0.16367,1.8573 0.22134,2.7c0.30579,0.6693 0.77332,1.49995 0.77866,2.42084c0.00464,0.80048 0,1.65382 0,2.59517c0,1.05066 0,1.70934 0,2.71733c0,0.86217 -0.00009,1.76666 0,2.6875c0.00009,0.80066 -0.04572,1.70871 0.22134,2.67883c0.21451,0.77924 0.73593,1.62863 0.77866,2.36966c0.04504,0.7812 0,1.79468 0,2.73067c0,0.90001 -0.00446,1.80019 0,2.58534c0.00534,0.94005 0.16077,1.95107 0.5,2.59383c0.43533,0.82484 0.5,1.72084 0.5,2.621c0,0.78517 0,1.72517 0,2.73317c0,0.79199 -0.10699,1.66458 0.05716,2.51401c0.17975,0.93005 0.76459,1.51498 0.90683,2.478c0.1474,0.9978 0.03601,1.79999 0.03601,2.65866c0,0.86334 0,1.88 0,2.71735c0,0.96533 0,1.64532 0,2.48532c0,0.99734 0,1.81332 0,2.62933c0,0.99866 0,1.87332 0,2.884c0,0.79999 0,1.79999 0,2.60001c0,0.79999 -0.00055,1.79999 0,2.59998c0.00067,1 -0.03934,1.81696 0.22134,2.80002c0.21713,0.81882 0.65964,1.79364 0.74265,2.60001c0.082,0.79654 0.03601,1.79999 0.03601,2.59998c0,0.99869 0,1.76401 0,2.71469c0,0.88531 0.05563,1.68268 0.56799,2.36798c0.52484,0.70203 1.37469,1.40152 1.43201,2.22183c0.06491,0.92926 0,1.77817 0,2.58566c0,0.99518 -0.15933,2.00772 0.35266,2.65717c0.48453,0.61462 0.64734,1.35269 0.64734,2.25269l0,0.89999l0,0.89999" id="svg_18" stroke-width="2" stroke="#000" fill="none"/>
  <path t="104398,104492,104510,104510,104551,104589" d="m277,195.89999c0,1.75717 0,2.64818 0,3.43068l0.01068,0.99466l0.564,0.60001" id="svg_19" stroke-width="2" stroke="#000" fill="none"/>
  <path t="120685,120749,120767,120767,120785,120785,120785,120802,120819,120836,120853,120853,120870,120901,120919,120936,120957,120957,120996,121021,121021,121061" d="m269,87.9c0.88666,0 1.84668,0 2.68668,0c0.996,0 1.79248,0 2.54398,0c1.09735,0 1.96936,0 2.86935,0c0.89999,0 1.69998,0 2.60001,0c0.89999,0 1.79999,0 2.71066,0c0.91064,0 1.76398,0 2.70398,0l0.88535,0l0.79999,0l0.90002,0" id="svg_20" stroke-width="2" stroke="#000" fill="none"/>
  <path t="121740,121839,121857,121875,121892,121909,121933,121933,121980,122014,122035,122051,122051,122077,122094,122113,122133,122165,122185,122215,122260,122300,122348" d="m270,128.89999c1.2215,-0.87849 2.1044,-0.91131 3,-0.99999c0.8457,-0.08374 1.33112,-0.81427 2.10001,-1.22134c0.75751,-0.40104 1.54282,-0.77641 2.42084,-0.77866c0.88983,-0.00228 1.80048,0 2.65381,0c0.93869,0 1.82535,0 2.62668,0c0.89868,0 1.79868,0 2.69867,0c0.89999,0 1.79999,0 2.70001,0l0.89981,0" id="svg_21" stroke-width="2" stroke="#000" fill="none"/>
 </g>
 <g display="none">
  <title>muse_image</title>
  <image xlink:href="http://farm4.static.flickr.com/3465/3812354362_9728b49907.jpg" id="muse" height="480" width="319" y="0" x="160.5"/>
 </g>
 <g display="none">
  <title>bbox</title>
  <rect stroke="#f00" fill="none" stroke-width="3" height="466.56" width="187.75976" y="2.88" x="165.28979" id="bbox"/>
 </g>
</svg>
