<svg width="640" height="480" xmlns="http://www.w3.org/2000/svg" xmlns:svg="http://www.w3.org/2000/svg" xmlns:xlink="http://www.w3.org/1999/xlink">
 <!-- Sketchy ANNOTATION
  ImageNet ID: n02676566_7385
  URL: http://farm4.static.flickr.com/3036/2565784190_6a9344239b.jpg
  Image Width: 278
  Image Height: 500
  BBox X: 41
  BBox Y: 6
  BBox Width: 195
  BBox Height: 487
  Exposure: 2000ms
  Synset Label: guitar
  Synset ID: n03467517
  Worker Tag: acoustic guitar
  Sanity Check: 
   Saved
  Comment: 
   {}
  Worker ID: A1VGZ2K3HF66TE
  Assignment ID: 36ZN444YTRY1MX3NY7UGL380SAIIOK
  HIT ID: 39RRBHZ0AU1GKN309LZER6ADHAFZV9
  Work Time: 108s
  Worker Score: 0.7857
 END ANNOTATION -->
 <g display="inline">
  <title>Layer 1</title>
  <path t="0,192,193,194,196,212,212,213,213,213,245,245,245,261,261,274,275,292,346,351,351,351,351,364,365,367,367,367,374,375,375,375,375,380,381,381,381,409,409,409,409,409,427,428,428,428,429,429,442,442,442,442,443,443,474,475,475,475,493,493,495,495,510,510,510,511,524,525,525,525,525,541,541,542,542,576,576,589,589,590,603,603,608,608,609,609,619,622,622,622,623,623,628,643,644,644,660,661,661,674,676,690,691,691,691,692,724,724,756,757,757,758,758,758,764,765,765,765,766,766,766,767,792,792,793,793,793,793,803,805,816,816,825,825,826,826,842,842,843,843,844,861,863,863,864,874,875,875,875,924,925,925,926,926,934,934,935,935,936,936,944,945,945,946,946,982,984,984,984,985,998,999,1000,1000,1001,1009,1011,1012,1012,1013,1013,1014,1050,1052,1052,1053,1056,1057,1069,1070,1071,1071,1072,1073,1091,1092,1093,1093,1094,1095,1096,1096,1097,1102,1103,1105,1106,1106,1113,1115,1115,1116,1117,1142,1143,1144,1144,1145,1145,1160,1161,1162,1162,1163,1163,1164,1175,1176,1177,1177,1178,1207,1208,1208,1209,1210,1224,1225,1226,1226,1227,1228,1256,1258,1258,1259,1260,1261,1262,1263,1264,1269,1270,1271,1272,1272,1289,1290,1291,1292,1292,1294,1310,1311,1312,1312,1313,1325,1326,1327,1328,1329,1330,1330,1333,1342,1343,1344,1344,1345,1346,1358,1359,1361,1361,1362,1391,1392,1394,1395,1410,1411,1411,1412,1413,1414,1425,1426,1428,1431,1432,1433,1444,1445,1446,1446,1447,1477,1478,1479,1480,1481,1491,1493,1494,1495,1496,1511,1512,1513,1514,1515,1525,1527,1528,1530,1575,1576,1577,1578,1584,1586,1605,1606,1608,1609,1610,1611,1623,1624,1626,1627,1628,1643,1658,1660,1662,1663,1664,1666,1678,1679,1680,1681,1692,1739,1741,1742,1743,1750,1752,1753,1754,1755,1756,1770,1782,1783,1784,1785,1809,1843,1850,1852,1853,1854,1856,1857,1879,1881,1882,1899,1900,1911,1912,1913,1914,1944,1945,1946,1947,1948,1957,1959,1960,1961,1976,1978,1979,1980,1980,1992,1993,1996,1997,1999,2000,2025,2027,2028,2030,2031,2058,2059,2074,2076,2078,2079,2080" d="m281,236c-6.81433,0 -7.68033,0 -8.45834,0c-0.73798,0 -1.875,0 -2.70831,0c-0.87335,0 -1.74667,0 -2.58002,0c-1.08884,0 -1.94531,0 -2.84933,0c-1.004,0 -1.80399,0 -2.79999,0c-0.83249,0 -1.28687,0.44666 -1.83234,1.10716c-0.57114,0.69159 -1.31531,1.45355 -1.69168,1.87418c-0.38034,0.42505 -1.44516,1.66435 -1.93997,2.44933c-0.43541,0.6907 -0.73453,1.3835 -1.02002,2.052c-0.44331,1.03806 -0.77303,1.77649 -1.14082,2.53816c-0.37941,0.78574 -0.58789,1.17685 -1.17867,2.37917c-0.39192,0.79761 -0.78909,1.58322 -1.02901,2.40001c-0.34673,1.18047 -0.32462,2.0014 -0.30617,2.81067c0.01881,0.82542 0.13271,1.2646 -0.132,2.55598c-0.19247,0.93893 -0.44043,1.39844 -0.89583,2.35419c-0.23543,0.49411 -0.77011,1.47412 -1.27083,2.47916c-0.49384,0.99121 -0.71095,1.49036 -1.14584,2.45834c-0.21086,0.46936 -0.59378,1.38394 -1.22066,2.59866c-0.38025,0.73685 -0.78787,1.39651 -1.14301,2.034c-0.50267,0.90231 -0.90308,1.8096 -1.15717,2.409c-0.38188,0.90091 -0.81366,1.8046 -1.15717,2.40451c-0.35559,0.62103 -0.95049,1.57718 -1.54317,2.61667c-0.41309,0.72449 -0.59679,1.10913 -1.07167,1.81747c-0.47498,0.70847 -1.34935,1.64664 -2.03783,2.147c-0.69066,0.50195 -1.44791,0.89496 -2.5235,1.51434c-0.68785,0.39609 -1.35645,0.81473 -2.028,1.272c-0.35086,0.23892 -1.47334,1.05957 -2.308,1.69598c-0.44121,0.33643 -0.88847,0.68738 -1.81601,1.38135c-0.46474,0.34772 -1.84335,1.32458 -2.29317,1.60751c-0.85573,0.53827 -1.27557,0.7803 -2.11082,1.18582c-0.80029,0.38855 -2.00911,0.83966 -2.80167,1.10468c-0.76616,0.2562 -1.52531,0.43915 -2.47568,0.91931c-0.84105,0.42493 -1.44786,0.9639 -2.16933,1.66934c-0.44576,0.43585 -1.27052,1.27051 -1.92284,1.92282c-0.35716,0.35718 -1.07852,1.07849 -1.42067,1.42068c-0.99242,0.99258 -1.4261,1.6178 -2.04716,2.61917c-0.25388,0.40933 -0.87811,1.36758 -1.22667,1.91199c-0.36981,0.57758 -0.7597,1.18002 -1.54666,2.45599c-0.40244,0.6525 -0.79926,1.31262 -1.17751,1.98151c-0.37505,0.66321 -0.73564,1.32275 -1.0425,1.99051c-0.58687,1.2771 -0.97371,2.52283 -1.073,3.11798c-0.18562,1.1127 -0.16322,1.65002 -0.16167,2.65002c0.00143,0.91998 0.03024,1.78046 -0.30783,2.879c-0.21194,0.68869 -0.6308,1.27377 -0.99451,2.51465c-0.17499,0.59702 -0.23019,1.5715 -0.24033,2.27036c-0.01698,1.17188 -0.00267,2.03467 -0.00267,2.92932c0,0.44934 0,1.332 0,2.55716c0,0.733 -0.00011,1.75751 0,2.42551c0.00017,1.03885 -0.00143,2.15515 0.07201,2.92801c0.07536,0.79321 0.36003,1.99326 0.5,2.39066c0.28799,0.81766 0.67337,1.64084 1.116,2.48401c0.46616,0.888 0.99521,1.79913 1.26466,2.26733c0.54573,0.94824 0.82597,1.41974 1.36333,2.36331c0.52118,0.91516 0.99947,1.79694 1.22684,2.22235c0.43785,0.81921 0.83745,1.60855 1.45717,2.69501c0.3918,0.68686 0.79883,1.33887 1.23599,1.95599c0.43765,0.6178 1.17792,1.51816 1.73018,2.11966c0.588,0.64041 1.25195,1.30603 1.60583,1.66168c1.16849,1.17432 1.59613,1.59851 2.03783,2.03467c0.90855,0.89713 1.37373,1.34586 1.842,1.78931c0.46376,0.43921 1.82486,1.66464 2.26283,2.03601c0.42642,0.36157 1.26654,1.04602 2.08084,1.7175c0.40417,0.33328 1.60536,1.37314 2.00983,1.73718c0.41287,0.37161 1.27414,1.14011 1.73868,1.52533c0.48071,0.39865 2.11786,1.59686 2.74117,1.98898c0.64462,0.40552 1.3188,0.79526 2.00549,1.17902c0.68634,0.38358 1.37164,0.75003 2.0415,1.10699c0.64615,0.34433 1.83859,0.97372 2.8425,1.54367c0.44583,0.25311 1.24002,0.7323 1.96001,1.16165c1.02919,0.61374 1.74809,1.01385 2.50133,1.409c0.77206,0.40503 1.16725,0.60251 2.364,1.20001c0.80449,0.40167 1.64012,0.80569 2.08333,1c0.94011,0.41217 1.45064,0.62137 2.58334,1c1.26024,0.42126 1.93835,0.59521 2.62399,0.77866c0.68739,0.1839 1.36998,0.35825 2.0415,0.50702c1.82927,0.4053 2.35783,0.4939 3.291,0.60001c0.81232,0.09238 1.56863,0.1098 2.71017,0.11432c0.836,0.0033 1.728,0 2.65198,0c0.46652,0 1.84839,0.01978 2.73602,-0.00665c0.89682,-0.0267 1.36932,-0.06107 2.35999,-0.27917c0.5488,-0.12082 1.7562,-0.53748 2.42517,-0.82101c0.7168,-0.3038 1.4545,-0.65656 2.2095,-1.03049c0.76538,-0.37906 1.52155,-0.77161 2.26349,-1.15649c0.71539,-0.37112 2.01437,-1.05243 3.11118,-1.56616c0.47275,-0.22144 1.32358,-0.58371 2.09668,-0.87918c1.14252,-0.43668 1.9863,-0.73276 2.85266,-1.11816c0.44287,-0.19702 1.31351,-0.6373 1.70667,-0.91467c1.13989,-0.80423 1.71387,-1.54279 2.25333,-2.33215c0.28601,-0.41852 0.84335,-1.35995 1.5,-2.39584c0.35931,-0.56683 0.75,-1.15204 1.15799,-1.75351c0.41595,-0.61322 0.8403,-1.22684 1.68402,-2.43134c0.40515,-0.5784 1.15878,-1.64795 1.49365,-2.12933c0.59875,-0.86069 1.12137,-1.62424 1.608,-2.32498c0.23703,-0.34131 0.97995,-1.3804 1.50452,-2.11349c0.53348,-0.74557 1.05048,-1.48929 1.28247,-1.86334c0.6503,-1.04843 1.11877,-2.0705 1.31201,-2.78134c0.20358,-0.74884 0.34232,-2.06656 0.37201,-2.55734c0.06305,-1.04193 0.06955,-1.58691 0.08084,-2.70166c0.00571,-0.56229 0.00449,-1.677 0.00449,-2.75833c0,-1.04932 0,-1.56448 0,-2.58084c0,-0.50314 0,-2.00433 0,-2.50314c0,-0.99066 0,-1.96533 0,-2.44418c0,-1.3905 -0.02097,-2.27301 0.03201,-3.12115c0.05167,-0.82724 0.15475,-1.66049 0.63232,-2.836c0.16672,-0.4104 0.62451,-1.20538 1.13165,-2c0.51413,-0.80554 1.04761,-1.59393 1.51868,-2.39868c0.45941,-0.78485 0.6618,-1.18195 1.08084,-1.94415c0.60068,-1.09262 1.00989,-1.76923 1.39383,-2.43182c0.56342,-0.97235 1.06052,-1.98575 1.32401,-2.70401c0.25616,-0.69827 0.27032,-1.7746 0.85199,-2.56702c0.34024,-0.46353 1.14755,-0.99918 1.81149,-1.741c0.38516,-0.43036 0.78531,-0.89697 1.63135,-1.87332c0.42764,-0.4935 1.25366,-1.44437 2.01584,-2.27866c0.34152,-0.37384 0.8631,-1.11331 1.63199,-1.716c0.74924,-0.58728 1.61993,-0.71994 2.48334,-1.07401c0.50879,-0.20865 1.60474,-0.7084 2.168,-0.98935c0.56485,-0.28174 1.64532,-0.85312 2.54599,-1.47665c0.77747,-0.53827 1.28894,-1.14432 2.1615,-1.82001c0.55304,-0.42828 1.36923,-0.93484 2.03851,-1.46399c0.37143,-0.29367 1.54919,-1.28516 1.94598,-1.642c0.78775,-0.70844 1.15366,-1.06674 1.85669,-1.70999c0.59897,-0.54807 1.79102,-1.23029 2.40781,-1.99734c0.44205,-0.54974 0.83017,-1.26343 1.22101,-1.95599c0.55051,-0.97552 0.23239,-1.07928 0.61517,-1.98267c0.34937,-0.82455 0.56387,-1.30692 0.97916,-2.375c0.2142,-0.55093 0.50583,-1.078 0.85419,-2.625c0.1788,-0.79404 0.06039,-1.67419 -0.16669,-2.5c-0.20554,-0.74744 -0.15143,-1.75964 -0.19867,-2.50269c-0.05402,-0.84967 -0.16956,-1.76831 -0.46799,-2.664c-0.29974,-0.89966 -0.78143,-1.72305 -1.02084,-2.125c-0.46823,-0.7861 -1.1622,-1.86649 -1.50983,-2.55634c-0.32343,-0.64178 -0.69016,-1.59396 -1.13599,-2.48532c-0.30554,-0.6109 -0.91788,-1.53769 -1.46652,-2.15717c-0.29907,-0.33768 -1.44794,-1.36792 -1.89749,-1.7215c-0.45847,-0.36057 -1.3851,-1.03925 -1.82401,-1.35199c-0.76648,-0.54617 -1.80597,-1.60934 -2.23465,-1.99069c-0.59052,-0.5253 -1.28918,-1.06598 -1.90802,-1.64398c-0.82614,-0.77161 -1.17841,-1.57858 -1.73065,-2.241c-0.56033,-0.67209 -1.272,-1.35201 -1.62,-1.69501l-0.64801,-0.608" id="svg_1" stroke-width="2" stroke="#000" fill="none"/>
  <path t="2629,2823,2824,2824,2824,2824,2824,2824,2824,2824,2842,2842,2842,2842,2842,2842,2842,2842,2876,2877,2877,2877,2877,2877,2877,2877,2904,2905,2905,2905,2905,2906,2906,2906,2906,2911,2911,2911,2912,2912,2912,2924,2924,2924,2924,2924,2959,2959,2960,2960,2974,2974,2974,2975,2975,2975,3008,3009,3009,3009,3009,3010,3010,3014,3015,3015,3015,3015,3016,3016,3016,3060,3061,3061,3061,3061,3062,3062,3062,3068,3069,3069,3069,3069,3069,3070,3070,3070,3089,3090,3090,3090,3091,3091,3092,3093,3111,3111,3112,3112,3112,3127,3128,3128,3129,3143,3143,3144,3145,3145,3146,3159,3160,3161,3161,3161,3162,3162,3178,3179,3179,3179,3180,3180,3180" d="m264,283c9.66666,5.66666 10.55426,6.16098 11.42667,6.62534c0.84769,0.4512 1.67691,0.87698 2.48999,1.27051c0.78708,0.38095 1.55444,0.73694 2.31,1.0455c1.42993,0.58395 2.12747,0.8042 2.80402,1.00131c0.65665,0.19131 1.30612,0.34787 1.94849,0.474c0.63379,0.12445 1.90201,0.31097 3.1875,0.41669c0.65454,0.05383 1.32117,0.08658 1.99951,0.1095c1.396,0.04715 2.11649,0.04803 2.85266,0.05267c0.75317,0.00473 2.31451,0.00598 3.12335,0.004c0.82181,-0.00201 1.64981,-0.00687 2.47647,-0.03152c0.81906,-0.02441 1.62375,-0.064 2.40451,-0.1395c0.75406,-0.07294 2.15216,-0.29849 2.76901,-0.49316c1.13156,-0.35712 1.63556,-0.6102 2.48248,-1.20334c0.40338,-0.2825 1.42706,-1.27267 1.95068,-2.01599c0.50571,-0.7179 0.90897,-1.47043 1.116,-2.23199c0.28348,-1.04276 0.2085,-1.74237 0.117,-2.42566c-0.14957,-1.11703 -0.28778,-1.95871 -0.38101,-2.91168c-0.10114,-1.03375 -0.15689,-1.57269 -0.28265,-2.10666c-0.25586,-1.08621 -0.73453,-2.15442 -1.50803,-3.06668c-0.40436,-0.47693 -0.90222,-0.89447 -1.4325,-1.28998c-0.54318,-0.40515 -1.73236,-1.14108 -3.02081,-1.75c-0.64743,-0.30597 -1.31433,-0.56949 -1.98602,-0.81451c-0.66974,-0.24432 -1.34467,-0.4653 -2.02197,-0.6615c-1.33633,-0.38708 -2.65762,-0.69556 -3.30469,-0.83551c-0.64096,-0.13864 -1.28241,-0.28036 -2.604,-0.45932c-0.68439,-0.09268 -1.39722,-0.15811 -2.142,-0.19049c-1.60696,-0.06985 -2.48129,-0.03717 -3.392,0c-0.93738,0.03824 -1.8887,0.10272 -2.841,0.19049c-0.94376,0.08698 -1.86615,0.18887 -2.75098,0.3255c-1.62845,0.25146 -2.34338,0.42142 -2.99335,0.59866c-0.60034,0.16373 -1.1496,0.34924 -1.65149,0.55499c-0.47546,0.19492 -1.35181,0.62042 -2.54535,1.37985c-0.40179,0.25565 -1.18759,0.7912 -1.89249,1.38916c-0.6709,0.56912 -1.5029,1.45688 -1.81851,2.10284c-0.30432,0.62286 -0.45874,1.37445 -0.22284,2.58649c0.18945,0.9733 0.4361,1.47507 0.95834,2.5c0.27182,0.53348 0.53033,1.10345 1.70834,2.5c0.38559,0.45712 0.81842,0.86841 1.73865,1.60266c0.46051,0.36746 0.94864,0.70236 1.93066,1.37866c0.99664,0.68637 1.49753,1.03979 2.50183,1.76685c0.50623,0.36646 1.01636,0.73099 1.53152,1.09048l1.04932,0.69202" id="svg_2" stroke-width="2" stroke="#000" fill="none"/>
  <path t="3756,4024,4024,4024,4024,4025,4025,4025,4025,4025,4046,4046,4046,4046,4046,4046,4046,4047,4047,4077,4077,4077,4077,4077,4078,4078,4078,4079,4106,4108,4108,4117,4117,4117,4117,4117,4118,4122,4123,4124,4124,4124,4124,4124,4125,4125,4142,4143,4143,4143,4143,4143,4143,4144,4144,4149,4150,4151,4151,4151,4151,4151,4152,4152,4174,4175,4175,4176,4176,4176,4177,4177,4177,4192,4193,4193,4193,4194,4194,4194,4195,4195,4210,4212,4212,4213,4214,4214,4214,4215,4215,4226,4226,4227,4227,4228,4228,4229,4229,4229,4274,4275,4275,4276,4276,4277,4277,4277,4278,4283,4284,4284,4284,4285,4285,4285,4286,4286" d="m285,233c11,-11.66667 11.86728,-12.53358 12.69467,-13.32401c0.78055,-0.74567 1.54001,-1.44426 2.28448,-2.11349c0.73425,-0.66006 1.47986,-1.3121 2.2395,-1.9785c1.61511,-1.41685 2.48941,-2.19069 3.40802,-3.00934c0.95978,-0.85532 1.95276,-1.74461 2.97748,-2.65799c1.04858,-0.93465 2.11563,-1.88509 3.20251,-2.83801c2.18787,-1.91821 3.29288,-2.85709 4.388,-3.79466c1.08755,-0.93109 2.16705,-1.85367 3.22198,-2.784c1.0437,-0.92041 2.0694,-1.83733 3.04202,-2.784c1.9039,-1.8531 2.76462,-2.82906 3.60132,-3.79733c0.82489,-0.95459 1.6088,-1.92094 2.3775,-2.877c0.75793,-0.94264 1.49219,-1.88245 2.24249,-2.787c1.46826,-1.7701 2.23514,-2.59819 3.01199,-3.408c0.78052,-0.81361 1.59509,-1.61565 2.43301,-2.42999c0.86334,-0.83907 1.76932,-1.69923 2.703,-2.61c2.01398,-1.96452 3.08157,-3.05267 4.18933,-4.19334c1.14035,-1.17424 2.2894,-2.37866 3.44101,-3.5925c1.14435,-1.20618 2.26318,-2.39575 3.35098,-3.5475c2.02252,-2.14142 2.93881,-3.10297 3.79468,-3.99199c0.79892,-0.82986 1.5535,-1.60513 2.271,-2.33551c0.68524,-0.69757 1.35007,-1.36761 2.00101,-2.02049c1.28943,-1.29324 1.9455,-1.94766 2.61331,-2.61334c0.68085,-0.67867 1.37753,-1.37048 2.09402,-2.07449c0.73416,-0.72136 1.48999,-1.45908 2.27399,-2.2095c1.63718,-1.56709 2.50513,-2.37166 3.392,-3.19333c0.89841,-0.83235 1.80515,-1.66422 2.70901,-2.493c0.89346,-0.81921 1.77081,-1.62041 2.61899,-2.403c1.5921,-1.46899 2.31653,-2.15089 2.99466,-2.79601c0.6391,-0.60799 1.23843,-1.18686 1.80301,-1.73849c0.53674,-0.52443 1.04593,-1.0284 1.53299,-1.5135c0.92651,-0.92282 1.37033,-1.36899 1.80536,-1.804c0.42499,-0.42499 0.84,-0.84 1.245,-1.245c0.39499,-0.395 0.78,-0.78 1.155,-1.155c0.72,-0.72 1.06448,-1.0645 1.396,-1.39601c0.31549,-0.31549 0.612,-0.61198 0.88651,-0.88649c0.24948,-0.2495 0.47098,-0.47099 0.6615,-0.6615c0.276,-0.27599 0.35681,-0.35686 0.40265,-0.40268c0.01584,-0.01582 0.00668,-0.00665 -0.02249,0.02251l-0.04416,0.04417l-0.05417,0.05415l-0.05917,0.05917" id="svg_3" stroke-width="2" stroke="#000" fill="none"/>
  <path t="4698,4924,4925,4941,4941,4941,4942,4958,4958,5041,5065,5066,5066,5066,5066,5066,5092,5092,5092,5092,5093,5108,5108,5109,5109,5109,5109,5109,5110,5137,5140,5140,5140,5140,5141,5141,5145,5146,5146,5146,5146,5146,5146,5175,5176,5176,5176,5176,5177,5177,5195,5196,5196,5196,5196,5196,5197,5197,5197,5207,5208,5208,5208,5208,5208,5208,5209,5209,5224,5224,5225,5225,5225,5225,5226,5259,5260,5260,5260,5261,5261,5261,5261,5274,5274,5275,5275,5275,5275,5276,5276,5294,5294,5295,5295,5295,5295,5296,5296,5296,5308,5309,5310,5310,5311,5311,5311,5342,5343,5343,5344,5344,5344,5345,5377,5377,5378,5378,5378,5379,5379,5379,5386,5386,5387,5387,5388,5388,5389,5408,5409,5409,5410,5411,5411,5425,5426,5426,5427,5427,5427,5428,5441,5442,5443,5460,5492,5493,5493,5494,5494,5495,5509,5510,5511,5511,5526,5576,5577,5578,5594,5642,5659,5660,5660,5661,5678,5679,5679,5680,5680,5680,5681,5705,5706,5706,5707,5708,5709,5710,5715,5716,5718,5718,5718,5719,5742,5743,5743,5744,5744,5745,5776,5777,5777,5778,5779,5780,5781,5782,5787,5788,5789,5789,5790,5790,5805,5807,5807,5844,5875,5909,5910,5911,5911,5927,5928,5929,5929,5929,5930,5931,5932,5941,5942,5943,5943,5944,5961,5962,5962,5963,5993,5994,5995,5996,6008,6009,6011,6011,6012,6013,6014,6015,6028,6029,6030,6031,6032,6033,6054,6056,6057,6058,6059,6059,6077,6078,6079,6079,6096,6098,6100,6100,6101,6102,6108,6125,6126,6127,6128,6129,6130,6159,6160,6161,6179,6181,6182,6183,6183,6184,6185,6194,6195,6196,6196,6197,6198,6199,6200,6201,6225,6226,6226,6228,6229,6230,6231,6232,6233,6242,6243,6244,6245,6245,6246,6249,6251,6251,6260,6261,6262,6263,6264,6264,6265,6266,6266,6274,6276,6276,6277,6278,6279,6279,6280,6281,6292,6294,6295,6296,6297,6298,6299,6300,6302,6326,6327,6328,6329,6330,6332,6333" d="m324,260c-5.92883,-9.22183 -6.62991,-10.0551 -7.22,-10.87199c-0.2493,-0.34511 -0.77472,-1.13168 -1.31665,-1.90668c-0.62393,-0.89227 -0.41812,-0.67197 -0.63486,-0.56433c-0.98679,0.49007 -0.69049,-1.36111 -1.09381,-2.25166c-0.22006,-0.4859 -0.6459,-1.50978 -0.79733,-2.04266c-0.42645,-1.50076 -0.42264,-2.46379 -0.37201,-2.92267c0.10294,-0.93295 0.39667,-1.89822 0.76801,-2.94c0.20209,-0.56693 0.6777,-1.76387 0.93866,-2.38667c0.2663,-0.63557 0.5459,-1.27489 0.83701,-1.91249c0.29025,-0.63574 1.18698,-2.46005 1.49231,-3.03017c0.29913,-0.55853 0.59726,-1.10596 1.23468,-2.14934c0.31525,-0.51601 0.63141,-1.03116 1.68533,-2.52133c0.35666,-0.5043 0.73068,-1.00047 1.104,-1.5c0.74805,-1.00095 1.12677,-1.49654 1.49066,-2c1.07712,-1.49022 1.40323,-2.0023 1.74033,-2.509c0.68646,-1.03191 1.03824,-1.56491 1.41068,-2.10533c0.3848,-0.55832 1.22852,-1.72244 1.69751,-2.32834c0.48685,-0.62894 1.00275,-1.26622 1.54349,-1.90799c0.5502,-0.65298 1.11954,-1.3027 1.70551,-1.944c0.58606,-0.6414 1.78192,-1.87669 2.38632,-2.46217c0.59439,-0.57581 1.19257,-1.12779 1.78952,-1.66049c0.58676,-0.52361 1.17288,-1.02744 1.75348,-1.51651c0.5701,-0.48022 1.69031,-1.39975 2.2355,-1.84467c0.53479,-0.43642 1.06216,-0.86169 2.08002,-1.70067c0.49606,-0.40887 0.9921,-0.80243 2.375,-2.02083c0.44949,-0.39601 0.89139,-0.79633 1.75198,-1.632c0.43933,-0.42661 0.87833,-0.87375 1.32449,-1.33949c0.46191,-0.48219 1.93454,-2.09149 2.4595,-2.68317c0.54205,-0.61095 1.09305,-1.24178 1.65152,-1.88701c0.56555,-0.65341 1.13193,-1.31386 1.6965,-1.97699c1.11789,-1.31306 1.66095,-1.95953 2.19598,-2.59334c0.52496,-0.62187 1.03918,-1.23135 1.54501,-1.8255c0.4942,-0.58051 0.97733,-1.14597 1.45499,-1.69051c0.91498,-1.04311 1.36328,-1.53073 1.80133,-2.00133c0.42633,-0.45804 0.84613,-0.90179 1.67468,-1.74933c0.4046,-0.41386 1.6109,-1.62108 2.01083,-2.02167c0.40143,-0.40208 1.21167,-1.21983 1.62067,-1.64134c0.41638,-0.42914 1.27048,-1.32356 2.14581,-2.29166c0.45798,-0.50652 0.91867,-1.03467 1.3905,-1.57201c0.47885,-0.54533 0.9559,-1.1017 1.94733,-2.18933c0.49301,-0.54086 1.49118,-1.57646 1.99518,-2.06216c0.49347,-0.47557 0.98587,-0.93054 1.95868,-1.78067c0.46707,-0.40816 0.93527,-0.78717 2.20831,-1.89583c0.39331,-0.34251 1.13144,-1.01518 1.49335,-1.34134c0.72455,-0.65302 1.4845,-1.32039 2.34,-1.992c0.4592,-0.36049 1.4527,-1.08263 1.96533,-1.448c0.51303,-0.36563 1.52258,-1.0712 1.99734,-1.416c1.25912,-0.91449 1.61182,-1.17171 2.39148,-1.86516c0.74954,-0.66667 1.37585,-1.33131 1.97534,-1.93817c0.35541,-0.35977 1.12827,-1.15633 1.526,-1.57867c0.39832,-0.42297 1.49136,-1.63445 2.064,-2.3595c0.48639,-0.61584 0.93076,-1.42468 1.55917,-2.19583c0.61707,-0.7572 1.07935,-1.09 1.74533,-1.756c0.776,-0.776 1.36877,-1.39969 1.94116,-1.94c0.66824,-0.6308 1.28329,-1.11435 2.08017,-1.48399c0.89471,-0.41502 1.9931,-0.60765 2.57883,-0.68051c0.60779,-0.07561 1.23785,-0.12411 2.53668,-0.15799c0.659,-0.01718 1.9725,-0.0135 2.61765,-0.0135c1.26434,0 1.88553,0 2.50067,0c1.21634,0 1.81952,0.00134 3.02084,0c1.19733,-0.00134 1.79117,-0.00223 2.37866,-0.02133c1.14987,-0.0374 1.71738,-0.028 3.28799,-0.312c0.49496,-0.08949 1.43942,-0.36748 2.35419,-0.72917c0.46954,-0.18565 1.4313,-0.62808 2.47916,-1.10417c0.56354,-0.25604 1.15201,-0.52034 2.38666,-1.05865c0.63351,-0.27621 1.27301,-0.55014 1.91251,-0.82201c0.63382,-0.26945 1.86465,-0.79295 3.0275,-1.26334c0.54871,-0.22195 1.58624,-0.61766 2.08002,-0.77066c0.91354,-0.28307 2.1517,-0.50548 2.86099,-0.45168c0.87402,0.0663 1.49066,0.64238 0.97632,0.19167c-0.75388,-0.66061 -1.07227,-1.41289 -1.68399,-2.10133c-0.33862,-0.38109 -1.55438,-1.56393 -2.02417,-1.957c-0.48349,-0.40454 -0.98831,-0.8053 -2.05667,-1.55865c-0.53424,-0.37672 -1.0741,-0.73398 -1.61249,-1.071c-1.5119,-0.94644 -1.99188,-1.205 -2.884,-1.69867c-0.82278,-0.45529 -1.22519,-0.64754 -2.31601,-1.272c-0.68423,-0.39172 -1.63278,-0.9874 -2.14783,-1.45717c-0.72888,-0.66482 -1.23099,-1.5098 -1.51883,-2.147c-0.32535,-0.72028 -0.83203,-2.06303 -1.04285,-2.5815c-0.2251,-0.55357 -0.71814,-1.73714 -0.978,-2.356c-0.26416,-0.62914 -0.53149,-1.26179 -0.79648,-1.89301c-0.51703,-1.23158 -0.99628,-2.39436 -1.23001,-2.9465c-0.44803,-1.05831 -0.65842,-1.57101 -1.13666,-2.53084c-0.46387,-0.93095 -0.99475,-1.8047 -1.26868,-2.22633c-0.53711,-0.82673 -1.09467,-1.59999 -1.36334,-1.975c-0.76318,-1.0653 -1.22696,-1.74812 -1.74649,-2.38667c-0.54343,-0.66794 -1.59952,-1.6722 -2.02216,-2.02067c-0.44125,-0.36384 -1.37225,-1.06441 -1.832,-1.396c-0.84085,-0.60645 -1.75156,-1.30095 -2.58334,-1.25c-0.66507,0.04074 -1.57059,0.13434 -2.08334,0.14583c-1.07117,0.02401 -1.60266,-0.02156 -3.00949,0.02184c-1.0499,0.03239 -1.71146,0.10558 -2.74051,0.999c-0.34128,0.29629 -0.98135,1.15005 -1.31732,1.648c-0.3595,0.53279 -0.72098,1.11221 -1.04401,1.7505c-1.0455,2.06591 -1.27487,2.86153 -1.53067,3.65617c-0.26016,0.80817 -0.48358,1.63972 -0.6705,2.487c-0.18787,0.85157 -0.34442,1.71199 -0.4455,2.577c-0.19983,1.71036 -0.20538,2.55978 -0.20398,3.396c0.0014,0.82826 0.03751,1.64964 0.08698,2.4645c0.04922,0.81049 0.11707,1.61615 0.177,2.4195c0.11945,1.60098 0.16391,2.40149 0.19601,3.204c0.03226,0.80618 0.05188,1.61862 0.06448,2.439c0.01276,0.8303 0.01761,1.67267 0.0195,2.529c0.00391,1.76266 0.00134,2.67183 0.00134,3.59601c0,0.93416 0,1.87332 0,2.8125c0,0.93416 0,1.85832 0,2.7675c0,1.75333 0.00266,2.58867 -0.004,3.396c-0.00644,0.78136 -0.0199,1.53905 -0.0585,2.274c-0.0376,0.71579 -0.08893,1.41545 -0.19351,2.09399c-0.20486,1.32928 -0.39655,1.97116 -0.59866,2.60133c-0.20068,0.62569 -0.43564,1.2336 -0.68698,1.8255c-0.24747,0.58279 -0.5112,1.14534 -0.77701,1.69051c-0.50803,1.04193 -0.75943,1.52986 -0.99866,2.00533c-0.46658,0.92738 -0.70352,1.3875 -1.1925,2.32916l-0.25952,0.49084" id="svg_4" stroke-width="2" stroke="#000" fill="none"/>
  <path t="7445,7574,7574,7574,7575,7575,7575,7591,7591,7591,7591,7591,7592,7592,7592,7628,7629,7629,7629,7629,7629,7629,7629,7629,7643,7643,7643,7644,7644,7644,7644,7644,7644,7675,7675,7676,7676,7676,7676,7676,7676,7677,7684,7685,7685,7685,7685,7686,7686,7686,7686,7710,7711,7711,7711,7711,7712,7712,7712,7712,7726" d="m223,314c9.45033,1.32184 10.02197,1.45569 11.00133,1.85733c0.46349,0.19009 1.3531,0.66135 1.81601,0.91467c1.59047,0.87042 2.20851,1.20026 2.8685,1.54233c0.6933,0.35934 1.41791,0.72815 2.1675,1.10699c0.76874,0.38852 1.55327,0.78146 3.14667,1.57867c0.80096,0.40073 1.60858,0.80417 2.427,1.21799c0.8376,0.42349 1.69905,0.86331 2.589,1.32602c0.92809,0.48254 1.90018,0.98959 3.98399,2.12265c1.12979,0.61432 2.30098,1.26627 3.5025,1.93951c1.21848,0.68274 2.43567,1.3718 3.63751,2.05649c1.17316,0.66833 2.30151,1.31339 4.35999,2.504c0.90717,0.52469 1.73245,1.00592 2.4855,1.44751c0.69089,0.40512 1.3273,0.78116 1.91849,1.13251c0.55582,0.33035 1.08408,0.64658 2.09601,1.25333c0.49969,0.29962 0.9968,0.59824 1.491,0.89099c0.48715,0.28857 0.96622,0.56934 1.43701,0.83701c0.45657,0.25958 0.89545,0.51279 1.73865,0.93866c0.38705,0.1955 0.75629,0.3638 1.10101,0.5145c0.31668,0.13843 0.60733,0.25635 0.867,0.36151l0.22766,0.09116l0.19366,0.07819l0.33734,0.27731" id="svg_5" stroke-width="2" stroke="#000" fill="none"/>
  <path t="8109,8241,8241,8241,8241,8241,8241,8241,8241,8241,8258,8258,8258,8258,8258,8259,8259,8259,8259,8292,8293,8293,8293,8293,8293,8293,8294,8294,8307,8308,8308,8308,8308,8308,8309,8309,8309,8325,8325,8325,8325,8325,8326,8326,8326,8326,8360,8361,8361,8361,8361,8361,8361,8362,8362,8375,8375,8375,8376,8376,8376,8376,8376,8376,8391,8391,8391,8392,8392,8393,8393,8393,8396" d="m240,316c7.66667,-11.66666 8.35803,-12.75656 9.032,-13.82935c0.66336,-1.05591 1.31506,-2.1001 1.968,-3.129c0.64841,-1.02176 1.29727,-2.03799 1.968,-3.039c1.34921,-2.01355 2.07028,-3.00598 2.80133,-4.00266c0.73595,-1.00336 1.4904,-2.00119 2.25151,-3c0.76291,-1.00119 1.53336,-1.9982 2.29648,-3c1.52075,-1.9964 2.26373,-3.00015 3.00668,-4.00934c0.75174,-1.02112 1.51331,-2.06635 2.30099,-3.13651c0.81494,-1.10721 1.66501,-2.25861 2.57101,-3.45148c1.9585,-2.57861 3.05225,-3.95425 4.19598,-5.39868c1.18851,-1.50098 2.41998,-3.04321 3.6705,-4.629c1.27084,-1.61154 2.55191,-3.24054 3.80551,-4.89899c2.4884,-3.29205 3.65164,-4.9494 4.79065,-6.58134c1.11823,-1.60214 2.19473,-3.18579 3.258,-4.728c1.03815,-1.50575 2.04651,-2.97575 3.078,-4.36801c1.96976,-2.65872 2.99176,-3.85913 4,-4.99866c0.97498,-1.10191 1.95636,-2.13284 2.922,-3.1125c0.93326,-0.94684 1.85632,-1.83997 2.742,-2.7075c1.67783,-1.64346 2.46033,-2.43352 3.20535,-3.21466c0.72958,-0.76495 1.43713,-1.53375 2.13599,-2.30701c0.70383,-0.77875 1.41064,-1.57803 2.13599,-2.39699c1.53058,-1.72809 2.34747,-2.64738 3.19736,-3.59201c0.86676,-0.96339 1.74664,-1.92799 2.625,-2.886l0.86832,-0.93799l0.84833,-0.90601l0.81836,-0.862" id="svg_6" stroke-width="2" stroke="#000" fill="none"/>
  <path t="8672,8775,8775,8776,8776,8776,8776,8776,8776,8776,8808,8808,8808,8808,8808,8808,8808,8808,8808,8818,8818,8818,8818,8818,8819,8819,8819,8819,8839,8840,8840,8840,8840,8840,8840,8840,8840,8859,8860,8860,8860,8860,8860,8860,8860,8861,8886,8887,8888,8888,8888,8888,8889,8889,8889,8899,8899,8900,8900,8900,8900,8900,8900,8900,8907,8908,8908,8908,8908,8909,8909,8909,8909" d="m254,323c5,-11.5 5.49475,-12.54105 6.01199,-13.56134c0.52173,-1.02914 1.07761,-2.07288 1.67551,-3.147c0.62979,-1.13141 1.32013,-2.32541 2.08051,-3.59698c1.71655,-2.87061 2.72208,-4.47321 3.78799,-6.18668c1.116,-1.79391 2.272,-3.63733 3.444,-5.508c1.172,-1.87067 2.32947,-3.71317 3.444,-5.508c2.06244,-3.32135 2.9657,-4.81235 3.79599,-6.19202c0.77457,-1.28711 1.4989,-2.50729 2.19751,-3.67499c0.68143,-1.13898 1.35852,-2.27066 2.0625,-3.405c1.48642,-2.39514 2.32495,-3.67215 3.20801,-5.01199c0.91782,-1.39258 1.87433,-2.81848 2.85449,-4.27051c0.99182,-1.4693 1.99316,-2.94025 2.9895,-4.40549c1.94827,-2.86516 2.88449,-4.2469 3.79868,-5.59868c0.90048,-1.33156 1.79355,-2.65408 2.69098,-3.97501c0.90524,-1.33241 1.82736,-2.68564 2.78101,-4.065c2.00369,-2.89816 3.08157,-4.42328 4.20001,-5.99733c1.14682,-1.61401 2.32205,-3.25038 3.51898,-4.896c1.20041,-1.65038 2.40283,-3.28886 3.60901,-4.896c2.33676,-3.11349 3.4794,-4.57806 4.58932,-5.98534c1.07025,-1.35693 2.11533,-2.65317 3.13501,-3.8895c0.98053,-1.18886 1.93341,-2.32202 2.86499,-3.3945c1.74774,-2.01208 2.59125,-2.9306 3.40268,-3.80534c0.77744,-0.83812 1.53867,-1.62799 2.27399,-2.3835l0.71533,-0.72049l0.69736,-0.68851l0.68134,-0.6595" id="svg_7" stroke-width="2" stroke="#000" fill="none"/>
  <path t="9163,9290,9290,9290,9290,9290,9290,9291,9291,9291,9307,9308,9308,9308,9308,9308,9308,9308,9308,9324,9324,9324,9325,9329,9329,9329,9329,9329,9359,9359,9359,9359,9360,9360,9360,9360,9360" d="m270,328c7.16666,-16 7.9184,-17.6019 8.68668,-19.20267c0.7717,-1.60791 1.55795,-3.21967 2.35498,-4.83899c0.80295,-1.63135 1.61899,-3.27316 2.44501,-4.92902c1.67795,-3.36368 2.53546,-5.07193 3.39734,-6.79999c0.86945,-1.74329 1.74332,-3.50037 2.616,-5.271c0.87665,-1.77869 1.75238,-3.56494 2.616,-5.36102c1.72742,-3.5925 2.56531,-5.39545 3.39734,-7.19333c0.82797,-1.78912 1.64133,-3.57138 2.44501,-5.34149c0.79633,-1.75388 1.57916,-3.49136 2.35498,-5.20651c1.5184,-3.35672 2.26498,-4.99313 3.00534,-6.61066c0.73697,-1.61015 1.47733,-3.22267 2.22299,-4.8495l0.75568,-1.65182l0.76965,-1.68784l0.78769,-1.73483" id="svg_8" stroke-width="2" stroke="#000" fill="none"/>
 </g>
 <g display="none">
  <title>muse_image</title>
  <image xlink:href="http://farm4.static.flickr.com/3036/2565784190_6a9344239b.jpg" id="muse" height="480" width="266" y="0" x="187"/>
 </g>
 <g display="none">
  <title>bbox</title>
  <rect stroke="#f00" fill="none" stroke-width="3" height="467.52" width="186.58273" y="5.76" x="226.23022" id="bbox"/>
 </g>
</svg>
