<svg width="640" height="480" xmlns="http://www.w3.org/2000/svg" xmlns:svg="http://www.w3.org/2000/svg" xmlns:xlink="http://www.w3.org/1999/xlink">
 <!-- Sketchy ANNOTATION
  ImageNet ID: n02676566_7844
  URL: http://farm4.static.flickr.com/3388/3298944812_993b6c1c2c.jpg
  Image Width: 330
  Image Height: 500
  BBox X: 26
  BBox Y: 12
  BBox Width: 261
  BBox Height: 471
  Exposure: 2000ms
  Synset Label: guitar
  Synset ID: n03467517
  Worker Tag: guitar on white sofa
  Sanity Check: 
   Saved
  Comment: 
   {}
  Worker ID: A2HM35CWB7IIFM
  Assignment ID: 3FE2ERCCZX8T3JQRB2K0U09CF25OPN
  HIT ID: 3TX9T2ZCB91TZC35ZV4AD8TROJHZWJ
  Work Time: 134s
  Worker Score: 0.7857
 END ANNOTATION -->
 <g display="inline">
  <title>Layer 1</title>
  <path t="0,182,230,230,253,275,290,315,341,353,370,370,376,386,386,403,419,424,436,451,472,472,496,510,522,540,571,571,595,609,645,657,668,686,706,718,735,735,743,754,755,767,768,786,792,792,804,817,817,830,853,877,890,914,939,939,952,967,976,989,1000,1001,1018,1018,1037,1037,1062,1062,1086,1101,1101,1117,1124,1147,1174,1174,1189,1202,1234,1258,1259,1271,1296,1308,1319,1319,1336,1337,1345,1345,1357,1357,1369,1369,1384,1384,1406,1406,1430,1430,1467" d="m364.5,204.89999c0,1.82535 0,2.83334 0,3.69551c0,0.9045 0,1.80449 0,2.7045c0,0.89999 0,1.8 0,2.7c0,0.89999 0.01346,1.7502 0.52084,2.39999c0.59967,0.76802 1.31171,1.27139 1.47467,2.20001c0.15573,0.88734 0.46027,1.68207 0.92047,2.49866c0.39612,0.7029 1.20807,0.99442 1.78403,1.50584c0.73227,0.65021 1.59921,1.06029 2.21597,1.5795c0.66138,0.55676 1.30765,0.97508 1.884,1.51733c0.70966,0.66766 0.97806,1.65643 1.63602,2.17332c0.64816,0.5092 1.72617,0.59612 2.39734,1.192c0.60632,0.5383 1.26666,0.83333 2.16666,0.83333c0.79999,0 1.75717,0 2.65717,0c0.74734,0 1.74152,0 2.50684,0c1.07883,0 1.93616,0 2.72134,0c0.94,0 1.948,0 2.70398,0c0.91068,0 1.81067,0 2.71066,0c0.90002,0 1.80002,0 2.70001,0c0.79999,0 1.70001,0.05717 2.5,0.5c0.79999,0.44284 1.7594,0.33183 2.60016,0.72151c0.60083,0.27849 1.36179,1.02234 2.07449,1.3425c0.91675,0.41182 1.73395,0.46017 2.6507,0.87199c0.71271,0.32016 1.42038,0.86086 2.17465,1.564c0.60236,0.56151 1.6442,0.7901 1.97916,1.52084c0.36658,0.79971 0.40891,1.62495 0.73685,2.3645c0.39105,0.88184 0.67908,1.69989 1.19998,2.39999c0.51935,0.69801 0.88293,1.37091 1.07333,2.31467c0.1781,0.88277 0.50351,1.64015 0.84402,2.56667c0.23166,0.63028 0.16666,1.66667 0.16666,2.45866c0,1.03185 0,1.77917 0,2.77467c0,0.8 0,1.8 0,2.59999c0,1 0,1.78934 0,2.83334c0,0.79199 0,1.65067 0,2.51401l0,0.89548" id="svg_1" stroke-width="2" stroke="#000" fill="none"/>
  <path t="2194,2413,2414,2427,2427,2428,2443,2443,2443,2457,2457,2457,2463,2463,2486,2486,2501,2517,2517,2523,2534,2552,2585,2609,2620,2647,2659,2682,2682,2695,2696,2706,2707,2719,2719,2733,2734,2744,2744,2768,2793,2805,2805,2817,2834,2843,2853,2873,2874" d="m413.5,262.89999c-1,1.16669 -1.63748,1.62045 -2.10016,2.32169c-0.45926,0.69604 -0.77426,1.37164 -1.38385,2.36234c-0.33536,0.54504 -0.8754,1.35596 -1.34933,2.14932c-0.54468,0.91177 -0.82678,1.52954 -1.46664,2.414c-0.47452,0.65588 -1.04346,1.38336 -1.34283,2.10001c-0.36459,0.87274 -0.55008,1.96445 -1.15851,2.36731c-0.82144,0.54388 -0.98892,1.12524 -1.25583,1.98535c-0.26874,0.86597 -1.28381,1.18851 -1.91751,1.72534c-0.59351,0.50278 -1.46344,0.4978 -2.32983,0.92731c-0.61383,0.30429 -1.53949,0.57599 -2.29681,0.73135c-1.01309,0.20782 -1.78107,0.64111 -2.79868,0.83066c-0.59326,0.1105 -1.60001,0.08533 -2.57916,0.08533c-0.85419,0 -1.74414,-0.18945 -2.62085,0.03601c-0.86624,0.22278 -1.42432,1.16156 -2.10001,1.60684c-0.71567,0.47165 -1.35266,1.00449 -2.01599,1.44116l-0.36801,0.80267l-0.27316,0.76147l-0.44415,0.7825" id="svg_2" stroke-width="2" stroke="#000" fill="none"/>
  <path t="3681,3862,3876,3876,3890,3890,3908,3908,3911,3934,3959,3959,3972,3984,4000,4001,4008,4008,4020,4020,4021,4033,4033,4051,4051,4051,4069,4069,4084,4084,4107,4119,4119,4134,4144,4144,4156,4167,4168,4185,4185,4185,4193,4193,4193,4204,4204,4204,4217,4217,4234,4241,4254,4254" d="m382.5,288.89999c-0.61066,1.63602 -1.09409,2.32486 -1.5,3c-0.59143,0.9837 -1.12024,1.57016 -1.69867,2.20001c-0.53528,0.58286 -1.17108,1.22821 -1.67984,2.02148c-0.47879,0.74655 -0.24792,1.55478 -0.69617,2.37851c-0.42984,0.78992 -0.42532,1.7215 -0.42532,2.61066c0,0.98935 0,1.78934 0,2.78934c0,0.80002 0.0228,1.60037 -0.00449,2.60452c-0.01718,0.63202 -0.20609,1.81949 -0.42084,2.61014c-0.21146,0.77847 -0.50934,1.63693 -0.57019,2.53351c-0.06125,0.90244 -0.00449,1.76785 -0.00449,2.6265c0,0.94669 0,1.80002 0,2.74002c0,0.88531 0,1.68533 0,2.64249c0,0.90451 0,1.7045 0,2.66434c0,0.81448 0,1.68301 0,2.57849c0,0.89551 0,1.76401 0,2.83334c0,0.7095 0,1.56216 0,2.56534c0,0.76532 0,1.84415 0,2.70132l0,0.89999l0,0.80002" id="svg_3" stroke-width="2" stroke="#000" fill="none"/>
  <path t="10529,10762,10776,10788,10801,10801,10812,10812,10812,10824,10824,10836,10836,10836,10852,10852,10859,10859,10871,10872,10896,10920,10920,10934,10934,10957,10970,10985,11002,11002,11018,11019,11035,11035,11044,11056,11056,11068,11068,11085,11085,11093,11094,11104,11104,11118,11135,11142,11153,11178,11191,11203,11203,11217,11234,11235,11240,11251,11252,11269,11269,11269,11277,11277,11289,11302,11318,11318,11326,11326,11338,11352,11368,11387,11387,11401,11418,11418,11424,11435,11436,11449" d="m376.5,326.89999c0,1.80002 0.23825,2.47433 0.716,3.16934c0.53091,0.77234 0.32758,1.52771 0.56934,2.51468c0.20206,0.82489 0.49402,1.64105 0.91467,2.63065c0.28522,0.67099 0.7926,1.68912 1.09998,2.28085c0.39072,0.75223 1.02884,1.63019 1.5,2.28848c0.53372,0.74567 0.84665,1.50092 1.40002,2.23068c0.54974,0.72498 1.24554,1.26196 1.79999,2.052c0.43744,0.62332 1.14545,1.31616 1.71466,1.91599c0.55618,0.58612 0.89798,1.49945 1.26001,2.31732c0.3479,0.78592 0.87964,1.45389 1.32083,2.25717c0.39673,0.72232 0.65158,1.73904 0.69382,2.50684c0.05222,0.94931 0.23938,1.80023 0.58536,2.47202c0.41888,0.81332 0.42307,1.76849 0.42532,2.76398c0.0018,0.80002 0,1.79984 0,2.57919c0,0.99933 0,1.81949 0,2.72083c0,0.89999 0,1.79999 0,2.69998c0,0.90002 -0.15353,1.84848 0.16666,2.60001c0.33282,0.78122 0.82291,1.52066 0.83334,2.48401c0.00748,0.69064 0,1.76334 0,2.68268c0,0.85416 0,1.83331 0,2.63333c0,0.79999 0,1.7955 0,2.54282c0,1.02118 0,1.85718 0,2.75751c0,0.87033 0.07501,1.67221 -0.03601,2.61301c-0.11023,0.9343 -0.8226,1.51114 -0.96414,2.38666c-0.14606,0.90353 -0.60782,1.50266 -1.29984,2.20001c-0.6973,0.70267 -1.17917,1.19998 -1.64734,2.00449l-0.21933,0.86218l-0.35419,0.8125l-0.57898,0.77798" id="svg_5" stroke-width="2" stroke="#000" fill="none"/>
  <path t="12051,12234,12259,12271,12309,12321,12322,12335,12336,12352,12352,12352,12356,12357,12369,12369,12384,12384,12394,12394,12406,12417,12433,12443,12454,12454,12467,12467,12483,12483,12492,12492,12504,12505,12505,12517,12517,12517,12533,12533,12533,12542,12542,12553,12553,12566,12566,12584,12584,12590,12602,12602,12622,12622,12628,12628,12629,12629,12642,12642,12642,12642,12642,12642,12651,12651,12651,12651,12667,12667,12668,12668,12677,12677,12677,12688,12688,12688,12701,12701,12717,12717,12726,12726,12726,12738,12738,12739,12756,12757,12757,12757,12757,12771,12771,12772,12772,12772,12775,12775,12776,12776,12776,12787,12787,12787,12787,12787,12801,12801,12817,12817,12817,12823,12823,12823,12836,12836,12850,12850,12851,12851,12861,12861,12861,12861,12873,12873,12873,12873,12884,12884,12885,12885,12900,12900,12900,12910,12911,12911,12921,12922,12934,12950,12950" d="m385.5,394.89999c0,1.70001 0.00241,2.61987 -0.42532,3.39999c-0.4512,0.82291 -0.68762,1.83594 -1.33633,2.24286c-0.80252,0.50339 -1.69724,0.36392 -2.63834,0.92648c-0.64453,0.38528 -1.17477,0.98331 -1.99869,1.54535c-0.74396,0.50751 -1.60257,0.95871 -2.19064,1.48532c-0.74551,0.6676 -1.29031,1.20883 -2.05884,1.70001c-0.63736,0.40735 -1.26923,1.26007 -1.96249,1.72531c-0.7348,0.4931 -1.59784,0.82489 -2.48935,0.97501c-0.71042,0.11963 -1.20551,0.9552 -1.78534,1.43167c-0.83228,0.68393 -1.72684,0.61316 -2.71915,0.92065c-0.6394,0.19812 -1.56119,0.48746 -2.34818,0.59918c-0.82101,0.11658 -1.90402,0.34 -2.59018,0.75351c-0.67172,0.40482 -1.64706,1.09204 -2.45715,1.27383c-0.59409,0.13333 -1.58755,0.40982 -2.39999,0.66815c-0.98557,0.31339 -1.81671,0.2316 -2.716,0.638c-0.69461,0.3139 -1.51471,1.05814 -2.23132,1.35751c-0.87277,0.36459 -1.70401,0.6655 -2.40985,1.00449c-0.85901,0.41257 -1.71027,0.37527 -2.66483,0.57401c-0.85199,0.17737 -1.49246,0.3775 -2.23532,0.49466c-1.30084,0.20517 -1.79575,0.20483 -2.82935,0.25867c-0.53406,0.02783 -1.61304,0.06964 -2.14667,0.10934c-1.52545,0.11346 -2.44879,0.26328 -3.30417,0.41599c-0.79724,0.14233 -1.89395,0.35107 -2.57718,0.41467c-0.96246,0.08957 -1.58081,0.08307 -2.78516,0.08533c-0.8895,0.00165 -1.46417,0 -2.77866,0c-0.68552,0 -1.52017,0 -2.52151,0c-0.79999,0 -1.80438,-0.0545 -2.60001,0.03601c-1.01065,0.11496 -1.8092,0.50378 -2.48532,0.67999c-0.98911,0.25778 -1.87704,0.27002 -2.53351,0.27951c-1.11438,0.01611 -1.95062,-0.00174 -2.8425,0.01517c-0.92416,0.01752 -1.39389,0.00989 -2.772,0.15601c-0.88547,0.09387 -1.74094,0.26096 -2.59198,0.40799c-0.42715,0.07379 -1.74002,0.27521 -2.65869,0.34c-0.94028,0.06631 -1.41589,0.07114 -2.36331,0.08084c-1.38596,0.01419 -2.26468,0.00449 -2.68649,0.00449c-0.80368,0 -1.8942,0 -2.82318,0c-1.00134,0 -2.043,0 -2.85367,0c-0.64648,0 -1.61066,0 -2.41467,0c-0.82199,0 -2.09067,0 -2.77466,0c-1.16666,0 -1.96167,0 -2.54166,0c-0.94501,0 -1.97986,0 -2.71552,0c-0.76367,0 -1.54733,0 -2.74283,0c-0.79868,0 -1.58932,0 -2.36401,0c-1.46933,0 -2.15067,0 -2.79999,0c-0.93149,0 -2.13583,0 -2.73151,0c-0.8685,0 -1.93784,0 -2.8685,0c-0.83466,0 -1.83148,0 -2.57883,0l-1.02118,-0.01065l-0.836,-0.27469l-0.59998,-0.51599" id="svg_6" stroke-width="2" stroke="#000" fill="none"/>
  <path t="13809,13991,14004,14023,14041,14041,14041,14054,14054,14054,14054,14054,14073,14073,14073,14073,14076,14076,14076,14088,14088,14088,14100,14100,14100,14116,14116,14125,14137,14137,14150,14150,14166,14174,14174,14174,14186,14200,14200,14211,14211,14222,14223,14236,14249,14249,14260,14273,14273,14284,14284,14284,14301,14301,14301,14301,14309,14309,14309,14310,14321,14321,14321,14333,14333,14333,14333,14350,14350,14350,14358,14358,14358,14370,14370,14383,14383,14383,14400,14401,14419,14419,14433,14449,14469,14469,14483,14494,14505,14517,14517,14533,14533,14533,14543,14543,14543,14554,14555,14555,14566,14566,14584,14584,14591,14603,14603,14616,14633,14641,14641,14652,14666,14683,14683,14690,14690,14702,14702,14702,14716,14716,14727,14751,14751,14776,14776,14777,14788,14788,14800,14800,14817,14817,14826,14826,14836,14850,14866,14866,14885,14885,14900,14900,14922,14922,14935,14935,14950,14950,14960,14972,14972,14985,15001,15010,15021,15021,15033,15052,15052,15052,15059,15059,15070,15083,15083,15083,15100,15101,15107,15108,15131,15131" d="m265.5,419.89999c-1.70001,-1.05267 -2.44907,-1.60736 -3.3045,-1.94733c-0.82672,-0.32855 -1.56262,-0.50128 -2.27148,-0.81433c-0.92288,-0.40756 -1.67593,-0.72577 -2.51068,-1.06366c-0.87189,-0.35294 -1.30994,-0.52875 -2.58,-1.008c-0.75981,-0.28671 -1.47226,-0.49274 -2.36716,-0.91934c-1.07367,-0.51181 -1.5098,-0.89902 -2.1555,-1.422c-0.81168,-0.65741 -1.62146,-1.18341 -2.21066,-1.578c-0.81541,-0.54611 -1.58374,-1.24265 -2.11467,-1.76334c-0.73454,-0.7204 -1.31718,-1.25174 -1.88533,-1.89465c-0.63913,-0.72324 -1.07454,-1.38129 -1.43333,-2.42267c-0.25409,-0.73746 -0.64395,-1.54822 -1.16667,-2.33334c-0.42403,-0.63687 -0.71405,-1.34952 -1,-2.33334c-0.28606,-0.98416 -0.56631,-1.7496 -1.32117,-2.47849c-0.45049,-0.435 -1.33345,-1.02823 -1.72701,-1.7215c-0.45874,-0.80807 -1.05183,-1.40002 -1.65182,-2c-0.70001,-0.70001 -1.30005,-1.29999 -1.936,-1.936c-0.68555,-0.68561 -1.21388,-1.19812 -1.76849,-1.82568c-0.61111,-0.6915 -1.20248,-1.48785 -1.57468,-2.05914c-0.37538,-0.5762 -1.01363,-1.77307 -1.26366,-2.37918c-0.36775,-0.89151 -0.55643,-1.49979 -0.95717,-2.70001c-0.20029,-0.59988 -0.5,-1.5 -0.8,-2.39999c-0.3,-0.89999 -0.49985,-1.50006 -0.8,-2.39999c-0.3998,-1.19873 -0.58698,-1.79404 -0.89999,-2.64282c-0.38414,-1.04166 -0.69423,-1.72397 -1,-2.35266c-0.49077,-1.00906 -0.89786,-1.80557 -1.3,-2.60452c-0.39786,-0.79041 -0.77579,-1.53177 -1.3,-2.24731c-0.47844,-0.65305 -1.06177,-1.37619 -1.41466,-2.26868c-0.32239,-0.81537 -0.97043,-1.41641 -1.22818,-2.19385c-0.25471,-0.76831 -0.05716,-1.76932 -0.05716,-2.69016c0,-0.90451 0,-1.76666 0,-2.62082c0,-0.97919 0,-1.78986 0,-2.66452c0,-1 0,-1.83548 0,-2.41916c0,-1.19534 0,-2.08484 0,-2.93832c0,-1.03552 0,-1.71051 0,-2.7905c0,-0.75601 0,-1.6875 0,-2.65067c0,-0.69067 0,-1.75885 0,-2.61603c0,-0.89999 0,-1.69998 0,-2.59998c0,-0.936 -0.00061,-1.78534 0,-2.7045c0.00067,-0.99551 -0.03571,-1.81149 0.22133,-2.7955c0.16017,-0.61316 0.57178,-1.38556 0.72151,-2.39551c0.10988,-0.74109 -0.01889,-1.80273 0.27866,-2.72601c0.23334,-0.724 0.75729,-1.68982 1.08301,-2.27399c0.42551,-0.76312 1.20917,-1.48346 1.67467,-1.90451c0.83902,-0.75888 0.76025,-1.73029 1.59016,-2.33066c0.65804,-0.47604 1.69501,-0.50082 2.22932,-0.97067c0.73245,-0.64407 1.55205,-1.02805 2.30151,-1.42017c0.72252,-0.37802 1.39247,-0.9639 2.07449,-1.37851c0.95386,-0.57986 1.55513,-1.13525 2.31067,-1.59998c0.70555,-0.43396 1.73273,-0.86691 2.29333,-1.20001c0.92134,-0.54742 1.17924,-1.36072 1.74216,-2.10001c0.50511,-0.66339 1.28171,-0.96588 2.04317,-1.52533c0.6669,-0.48999 1.29796,-0.9245 2.26933,-0.97467c0.86292,-0.04459 1.67888,-0.57327 2.5,-1c0.6514,-0.33853 1.39862,-0.63336 2.52367,-0.87848c0.71339,-0.15543 1.71422,-0.07538 2.46451,-0.56436c0.76009,-0.49536 1.25438,-1.11008 2.07716,-1.67181c0.74376,-0.50781 1.58,-0.98535 2.22667,-1.48535l0.696,-0.49982l0.67867,-0.37933" id="svg_7" stroke-width="2" stroke="#000" fill="none"/>
  <path t="16042,16189,16189,16206,16226,16227,16241,16263,16275,16289,16311,16338,16338,16373,16385,16405,16410,16410,16423,16423,16433,16433,16434,16451,16458,16469,16484,16506,16532,16544,16544,16555,16568,16568,16584,16584,16593,16593,16605,16605,16605,16616,16616,16616,16634,16634,16634,16641,16641,16653,16654,16654,16666,16666,16683,16684,16691,16691,16691,16702,16703,16703,16703,16716,16716,16716,16716,16716,16733,16733,16733,16733,16733,16733,16740,16740,16740,16740,16740,16740,16740,16752,16753,16753,16753,16753,16753,16765,16766,16766,16766,16766,16782,16783,16789,16789,16789,16814,16814" d="m257.5,304.89999c0.94733,-2.59549 1.04233,-3.53238 1.42532,-4.37466c0.36877,-0.811 0.47043,-1.63071 0.57483,-2.60367c0.09293,-0.86606 1.27374,-0.56842 1.87836,-1.24316c0.59183,-0.66052 0.12149,-1.7785 0.12149,-2.57849c0,-0.89999 0,-1.80002 0,-2.72083c0,-0.80069 0,-1.68985 0,-2.67917c0,-0.80002 0,-1.80002 0,-2.58936c0,-0.72531 0,-1.79999 0,-2.71066c0,-0.89999 0.00006,-1.79999 0,-2.69998c-0.00009,-0.90002 -0.21259,-1.77124 -0.57468,-2.40002c-0.44876,-0.7793 -0.42471,-1.72131 -0.42532,-2.57465c-0.00067,-0.94135 -0.05551,-1.72073 -0.436,-2.672c-0.24921,-0.62308 -0.68262,-1.56815 -0.95334,-2.37866c-0.27255,-0.81589 -0.49539,-1.85251 -0.58533,-2.54935c-0.11725,-0.90836 -0.30933,-1.90933 -0.52533,-2.72534c-0.216,-0.81598 -0.40927,-1.81683 -0.5,-2.5c-0.15518,-1.16824 -0.35187,-1.94836 -0.5,-2.47916c-0.33157,-1.18799 -0.44897,-2.01511 -0.72134,-2.84235c-0.23541,-0.71503 -0.60309,-1.68022 -0.76399,-2.48915c-0.17438,-0.87665 -0.4381,-1.62148 -0.88666,-2.436c-0.33492,-0.60817 -0.74059,-1.23434 -1.32834,-2.27499c-0.41573,-0.73607 -0.83322,-1.52473 -1.314,-2.34001c-0.25211,-0.42751 -1.12578,-1.76176 -1.455,-2.22366c-0.33772,-0.47383 -1.0518,-1.43527 -1.416,-1.92534c-0.36681,-0.49359 -1.45108,-1.98723 -1.79317,-2.48933c-0.33923,-0.49792 -0.9873,-1.49887 -1.30067,-2c-0.31197,-0.49889 -0.91995,-1.49973 -1.52083,-2.5c-0.30006,-0.49953 -0.89499,-1.4913 -1.18933,-1.97865c-0.5737,-0.94992 -0.84734,-1.41084 -1.644,-2.688c-0.47633,-0.76364 -0.92163,-1.44963 -1.32001,-2.076c-0.3615,-0.56839 -1.00279,-1.55147 -1.30499,-2.2365c-0.43895,-0.99503 -0.50568,-1.82083 -0.54034,-2.62083l-0.00133,-0.9955l0,-0.74733" id="svg_8" stroke-width="2" stroke="#000" fill="none"/>
  <path t="17590,17687,17687,17705,17705,17705,17716,17716,17716,17716,17722,17722,17723,17733,17734,17734,17750,17750,17759,17759,17771,17783,17783,17799,17809,17819,17820,17833,17849,17849,17857,17869,17883,17883,17883,17899,17899,17899,17906,17906,17918,17918,17943,17943,17956,17956,17968,18004,18016,18032,18032,18042,18042,18054,18054,18066,18066,18083,18084,18084,18090,18090,18103,18103,18116,18116,18139,18139,18164,18164,18188,18201,18217,18226,18226,18237,18237,18250,18250,18250,18267,18267,18267,18275,18275,18275,18286,18286,18299,18299,18316,18316,18324,18324,18336,18361,18361,18361,18373,18374,18385,18385,18399,18410,18410,18422,18422,18423,18434,18434,18449,18459,18459,18471,18471,18483,18499" d="m238.5,221.89999c0.01067,-1.84666 0.047,-2.69511 0.28534,-3.68533c0.20313,-0.84395 0.41402,-1.42087 0.81483,-2.61465c0.20175,-0.60088 0.51517,-1.509 0.78516,-2.10001c0.55673,-1.2187 0.93832,-1.79036 1.28934,-2.364c0.65552,-1.07126 1.11029,-1.75813 1.37866,-2.42534c0.39616,-0.98489 0.26442,-1.84857 0.66817,-2.78915c0.341,-0.79442 1.06776,-1.33241 1.7785,-2.02151c0.59122,-0.57321 1.49518,-0.79594 2.19867,-1.28532c0.78462,-0.54582 0.76166,-1.47643 1.32216,-2.21468c0.58922,-0.77606 1.31534,-1.26813 1.46851,-2.09999c0.17061,-0.92662 0.2188,-1.94696 0.44667,-2.66133c0.25371,-0.79536 0.66995,-1.81462 0.95332,-2.50267c0.25912,-0.62921 0.41371,-1.66533 0.67201,-2.39999c0.35791,-1.01799 1.20161,-1.38177 1.91699,-2.15733c0.42593,-0.46176 0.58778,-1.63922 1.07434,-2.317c0.46603,-0.6492 1.16257,-1.30078 2.04733,-1.36168c0.89786,-0.0618 1.66617,-0.03105 2.55716,-0.35266c0.75562,-0.27275 1.74042,-0.595 2.54285,-0.63666c0.99872,-0.05185 1.79999,-0.01068 2.79999,-0.01068c0.79999,0 1.60001,0 2.60001,0c0.79999,0 1.79999,0 2.60001,0c0.99982,0 1.77914,0 2.77866,0c0.77399,0 1.67401,0 2.53732,0c0.96317,0 1.784,-0.00008 2.68402,0c0.90015,0.00009 1.68643,0.08223 2.64667,0.42534c0.61569,0.22 1.57358,0.46465 2.38931,0.54933c0.86734,0.09004 2.06818,0.22902 2.65952,0.38251c0.87573,0.22731 1.93973,0.63835 2.64282,0.93832c0.80222,0.34225 1.74615,0.56854 2.34567,0.87384c0.83737,0.42642 1.46445,1.18137 2.09448,1.80916c0.61194,0.60974 1.3252,1.31786 1.8215,1.8215c0.70526,0.7157 1.29349,1.52556 1.72086,2.22084c0.35892,0.58395 0.92975,1.40918 1.47916,1.9375c0.78836,0.75809 1.59586,1.04355 2.41068,1.467c0.76227,0.39613 1.62473,0.50459 2.58932,0.74133c0.81653,0.20039 1.58679,0.61314 2.39868,0.748c0.93478,0.15527 1.84872,0.07384 2.76797,0.08533c0.83353,0.01042 1.81183,0.22134 2.52884,0.64734l0.78366,0.35266l0.54617,0.57468" id="svg_9" stroke-width="2" stroke="#000" fill="none"/>
  <path t="22133,22304,22315,22315,22328,22328,22341,22341,22341,22353,22353,22353,22367,22367,22387,22413,22413,22437,22449,22450,22466,22474,22486,22499,22516,22523,22547,22547,22566,22584,22600,22600,22609,22609,22646,22659,22659,22670,22695,22695,22707,22707,22719,22719,22732,22748,22749,22749,22756,22756,22756,22756,22769,22770,22770,22782,22782,22793,22793,22806,22829,22843,22843,22855,22866,22883,22891,22892,22892,22904,22904,22915,22938,22943,22956,22956,22972,22988,22988,22990,22990,23002,23017,23038,23039,23050,23075,23087,23100,23100,23116,23116,23125,23125,23137,23137,23149,23149,23149,23167,23167,23186,23186,23210,23211,23224,23224,23224,23235,23248,23248,23259,23260,23272,23283,23283,23308,23321,23321,23321,23333,23350,23350,23358,23358,23370,23382,23400,23407,23407,23419,23419,23419,23432,23432,23432,23450,23450,23450,23450,23456,23457,23457,23468,23469,23493,23493,23493,23517,23517,23533,23542,23554,23554,23566,23582,23591,23591,23603,23616,23616,23617,23633,23633,23641,23652,23652,23666,23682,23689,23714" d="m325.5,269.89999c-1.82535,0 -2.83334,0 -3.62534,0c-1.03632,0 -1.83633,0 -2.79599,0c-0.80402,0 -1.62601,0 -2.65717,0c-0.68552,0 -1.52017,0 -2.517,0c-0.91919,0 -1.90451,0 -2.72583,0c-0.85333,0 -1.84674,-0.17838 -2.67868,0.16669c-0.78436,0.32532 -1.75342,0.77045 -1.99551,1.53781c-0.26971,0.85489 -0.46988,1.67111 -0.88315,2.39536c-0.45193,0.79199 -1.36383,1.00055 -1.836,1.70148c-0.47879,0.71075 -0.7551,1.5853 -1.28534,2.36536c-0.42807,0.62979 -1.12561,1.33563 -1.71466,1.91599c-0.62418,0.61499 -1.31802,1.04294 -1.88535,1.52802c-0.7467,0.63843 -1.43262,1.35986 -1.89999,1.91016c-0.64761,0.76251 -0.95984,1.50461 -1.5,2.3125c-0.44699,0.66852 -0.97141,1.47449 -1,2.5c-0.01898,0.68073 0,1.48801 0,2.66666c0,0.60001 0,1.5 0,2.39999c0,0.89984 0,1.78934 0,2.64285c0,1.03549 0,1.9155 0,2.7905c0,0.86215 -0.00064,1.76666 0,2.6875c0.00067,0.96182 0.01578,1.79776 0.5,2.45834c0.48563,0.66251 0.89886,1.48331 1.66666,2.02081c0.63434,0.44409 1.42719,0.74908 2.42435,0.94733c0.83307,0.16565 1.28729,0.89099 1.92984,1.53186c0.6452,0.64355 1.47043,0.86081 1.97916,1.52081c0.58981,0.7652 1.33698,1.33249 1.5,2.02084c0.22653,0.95648 0.76343,1.6218 1.38934,2.37915c0.5441,0.65836 0.65884,1.71808 1.22131,2.164c0.7691,0.60974 1.78934,0.436 2.69385,0.436c0.86215,0 1.6955,0 2.67416,0c0.77399,0 1.68475,-0.0527 2.42584,0.05716c1.00995,0.14972 1.77301,0.60498 2.79565,0.82135c0.80893,0.17114 1.48517,0.12082 2.48251,0.12149c0.79648,0.00052 1.99057,0.08444 2.79648,-0.02081c0.85849,-0.11212 1.60495,-0.42215 2.35419,-1.14584c0.6084,-0.58765 0.91489,-1.38684 1.46664,-2.07617c0.64438,-0.80505 1.30002,-1.35715 1.90002,-1.95715c0.60001,-0.60001 1.29999,-1.30002 1.89999,-1.90002c0.60001,-0.59998 1.15884,-1.26028 2.06665,-1.89999c0.62994,-0.44391 1.38708,-0.74911 2.07617,-1.29999c0.80545,-0.64389 1.28363,-1.17459 1.95584,-1.89999c0.5379,-0.58044 0.42139,-1.60516 0.85849,-2.44284c0.39017,-0.74768 0.92361,-1.23929 0.9415,-2.04517c0.02213,-0.9971 0.00134,-1.83282 0.00134,-2.71335c0,-0.89865 0,-1.79865 0,-2.69867c0,-0.89999 0,-1.79999 0,-2.69998c0,-0.60001 -0.0228,-1.79953 0.02084,-2.67917c0.04153,-0.83698 0.26273,-1.83566 0.47916,-2.5c0.33267,-1.02106 0.48257,-1.82025 0.49866,-2.62085c0.01999,-0.9953 0.20108,-1.88129 -0.43466,-2.75333c-0.49875,-0.68414 -1.30185,-1.00854 -1.58932,-1.79599c-0.30347,-0.83124 -0.90314,-1.45767 -1.54266,-2.05066c-0.64682,-0.59973 -1.30576,-1.25409 -1.76535,-1.96667c-0.45755,-0.70941 -1.01736,-1.18179 -1.78131,-1.948c-0.57999,-0.5817 -1.29468,-1.27612 -1.88535,-1.88535c-0.57321,-0.59122 -1,-1.47916 -1.61066,-1.98932l-0.88934,-0.01068l-0.89999,0" id="svg_10" stroke-width="2" stroke="#000" fill="none"/>
  <path t="27227,27423,27438,27454,27454,27460,27461,27472,27472,27483,27483,27483,27498,27499,27508,27520,27532,27532,27549,27557,27568,27582,27583,27599,27599,27606,27606,27618,27618,27618,27636,27636,27636,27636,27649,27649,27656,27656,27667,27667,27682,27682,27696,27705,27716,27717,27733,27733,27741,27741,27741,27753,27753,27753,27753,27766,27766,27766,27766,27766,27783,27783,27783,27783,27784,27790,27790,27790,27802,27802,27803,27816,27816,27833,27833,27839,27840,27852,27852,27866,27866,27867,27883,27883,27888,27888,27889,27889,27901,27902,27902,27902,27916,27916,27917,27917,27917,27917,27926,27926,27926,27938,27938,27938,27950,27950,27966,27966,27975,27987,27987,27999" d="m341.5,33.9c0,1.8 0,2.636 0,3.48533c0,0.91917 0,1.91467 0,2.71467c0,1 0,1.8 0,2.8c0,0.8 0,1.6 0,2.5955c0,0.74733 0,1.7685 0,2.60583c0,0.96534 0.21786,1.89284 -0.284,2.62933c-0.47491,0.69694 -0.66165,1.47105 -0.71735,2.37067c-0.04257,0.68782 -0.47678,1.61664 -0.71466,2.4c-0.29913,0.98508 -0.26117,1.64364 -0.50534,2.82017c-0.17062,0.82214 -0.40057,1.37986 -0.612,2.5785c-0.10495,0.59498 -0.15512,1.479 -0.16531,2.31467c-0.01501,1.22807 0.01199,1.87476 -0.0015,2.88517c-0.01041,0.77953 -0.29486,1.74264 -0.64719,2.55283c-0.37775,0.86868 -0.34799,1.59467 -0.35266,2.61133c-0.0043,0.9405 -0.12701,1.8203 -0.436,2.46133c-0.50153,1.0405 -1.12149,1.47996 -1.4425,2.4965c-0.2251,0.71278 -0.11362,1.4502 -0.12283,2.65017c-0.00546,0.7107 -0.01703,1.48657 -0.08398,2.316c-0.10782,1.33592 -0.18909,1.79781 -0.35068,2.73733c-0.1636,0.9513 -0.25897,1.42407 -0.564,2.80801c-0.19397,0.88002 -0.39163,1.71154 -0.60001,2.484c-0.19229,0.71278 -0.50879,1.63657 -0.78934,2.42133c-0.33612,0.9402 -0.52664,1.94533 -0.61066,2.76133c-0.08401,0.816 -0.28354,1.81481 -0.5,2.47916c-0.33267,1.02106 -0.45828,1.81038 -0.5,2.85417c-0.03168,0.79218 -0.27176,1.65824 -0.61066,2.37733c-0.47049,0.99834 -0.84308,1.56607 -1.104,2.38933c-0.31152,0.98291 -0.25043,1.64757 -0.50702,2.82167c-0.18259,0.8354 -0.4126,1.42978 -0.66498,2.06499c-0.41449,1.04325 -0.77316,1.77186 -1.11334,2.555c-0.3548,0.8168 -0.8414,2.12251 -0.97833,2.57951c-0.27634,0.92226 -0.48608,1.85678 -0.57501,2.3175c-0.17175,0.88981 -0.33032,2.11772 -0.42133,3.17867c-0.05362,0.62509 -0.16504,1.72362 -0.37799,2.4255c-0.26193,0.8633 -0.59497,1.85333 -0.63666,2.62117c-0.05161,0.95065 -0.01068,1.72 -0.01068,2.66133l0,1.008l0,0.86217l0,0.9045" id="svg_11" stroke-width="2" stroke="#000" fill="none"/>
  <path t="28788,28958,28973,28973,28973,28973,28987,28987,28987,28987,29004,29004,29004,29006,29006,29007,29017,29017,29033,29033,29042,29042,29054,29054,29067,29067,29082,29082,29082,29092,29092,29092,29092,29104,29104,29104,29115,29116,29116,29131,29131,29132,29141,29142,29152,29153,29165,29165,29182,29182,29190,29202,29215,29215,29232,29232,29239,29240,29250,29251,29251,29251,29266,29266,29266,29276,29276,29276,29287,29288,29288,29288,29300,29300,29315,29325,29325,29337,29337,29350,29366,29366,29375,29375,29386,29386,29398,29399,29399,29415,29416,29424,29424,29424,29435,29435,29435,29448,29449,29449,29465,29466,29466,29472,29472,29485,29498,29509,29510,29521,29521,29533,29534,29548,29548,29558,29558,29559" d="m324.5,132.89999c-0.52084,1.5625 -1.02731,2.49117 -1.2955,3.367c-0.20471,0.66858 -0.38113,1.38391 -0.53784,2.46634c-0.14554,1.00543 -0.13907,1.64877 -0.25067,2.56534c-0.1102,0.90488 -0.35623,1.78693 -0.56332,2.64417c-0.24921,1.03148 -0.33344,1.72063 -0.35132,2.55583c-0.02145,1.0011 -0.00134,1.80133 -0.00134,2.80133c0,0.8 0.0665,1.80447 -0.02084,2.57916c-0.1142,1.01299 -0.71307,1.74937 -0.92648,2.6825c-0.1799,0.78659 -0.27042,1.76076 -0.478,2.57434c-0.14679,0.57532 -0.43533,1.76109 -0.51752,2.664c-0.05447,0.59862 -0.05649,1.5 -0.05716,2.7c-0.00034,0.60001 0.0043,1.50002 -0.00015,2.69983c-0.0022,0.59569 0.03589,1.4754 -0.1665,2.53351c-0.13779,0.72041 -0.56543,1.54337 -0.74802,2.56667c-0.14114,0.79099 -0.08533,1.79984 -0.08533,2.57916c0,0.9995 0.04382,1.7748 -0.00449,2.66901c-0.04245,0.78552 -0.832,1.49164 -0.97467,2.37267c-0.15314,0.94574 0.00873,1.73245 -0.02533,2.63634c-0.0282,0.74866 -0.3161,1.7341 -0.57019,2.61482c-0.3028,1.04961 -0.34512,1.69568 -0.39999,2.37868c-0.08383,1.04353 -0.16116,2.02356 -0.37799,2.83949c-0.19461,0.73233 -0.50131,1.6738 -0.59467,2.467c-0.10019,0.85118 -0.20529,2.04576 -0.33667,2.64151c-0.19525,0.88533 -0.48605,1.70674 -0.63068,2.71466c-0.11975,0.83476 -0.08533,1.80133 -0.08533,2.78683c0,0.78517 0.00732,1.72522 0,2.41583c-0.01044,0.98416 -0.30197,1.96071 -0.57468,2.65866c-0.36426,0.93224 -0.42465,1.70934 -0.42532,2.67201c-0.00058,0.84 0,1.83733 0,2.65332c0,0.81601 0.00006,1.81467 0,2.68935c-0.00009,1.01083 0.03827,1.62689 -0.08533,2.496c-0.14359,1.00964 -0.43127,1.83685 -0.61917,2.41916c-0.38663,1.19817 -0.61414,1.78418 -0.8595,2.6595c-0.29764,1.06181 -0.41434,1.99945 -0.43152,2.6315c-0.02725,1.00281 -0.00449,1.94733 -0.00449,2.84734c0,0.95717 0.08759,1.87189 -0.08533,2.6425c-0.17883,0.797 -0.6261,1.50404 -0.83066,2.51466c-0.16019,0.7914 -0.30536,1.8 -0.58401,2.59999l-0.33334,1l-0.13065,0.8l-0.03467,0.8" id="svg_12" stroke-width="2" stroke="#000" fill="none"/>
  <path t="30168,30321,30321,30337,30337,30337,30337,30355,30355,30358,30358,30372,30372,30372,30384,30384,30400,30400,30400,30400,30406,30406,30406,30406,30406,30418,30418,30418,30418,30418,30433,30433,30433,30433,30433,30450,30450,30456,30456,30456,30467,30467,30483,30484,30492,30492,30503,30503,30503,30515,30516,30533,30533,30533,30540,30540,30540,30540,30553,30553,30553,30553,30565,30565,30565,30582,30582,30582,30590,30590,30602,30602,30616,30616,30632,30639,30639,30651,30666,30666,30677,30677,30677,30688,30688,30700,30700,30700,30723,30724,30724,30728,30728,30749,30749,30767,30823,30824,30835,30849,30874,30898,30909,30921,30922" d="m309.5,238.89999c0,2.01434 0,2.82133 0,4c0,0.59868 0,1.47917 0,2.31467c0,1 0,1.87468 0,2.88535c0,0.79999 0,1.79999 0,2.59999c0,0.8 0.04099,1.80853 -0.05716,2.65717c-0.11243,0.97208 -0.37827,1.79785 -0.51752,2.42551c-0.1524,0.68697 -0.31866,1.85918 -0.36816,2.72716c-0.05191,0.91025 -0.05063,1.37549 -0.05582,2.3075c-0.00757,1.36133 0.00415,2.23026 -0.02219,3.08267c-0.02634,0.85303 -0.03778,1.28699 -0.2005,2.621c-0.11285,0.92511 -0.27872,1.83734 -0.35333,2.28168c-0.14148,0.84262 -0.36441,2.23972 -0.40448,3.03482c-0.0535,1.06137 -0.02084,1.86252 -0.02084,2.66251c0,1 0,1.79999 0,2.79999c0,0.80002 0,1.80002 0,2.60001c0,1 0,1.80002 0,2.60001c0,1.00452 0,1.63599 0,2.8215c0,0.81448 0.00296,1.38916 0,2.57849c-0.00226,0.90451 0.00989,1.52338 -0.08533,2.48535c-0.10291,1.03979 -0.26733,1.76733 -0.41467,2.51465c-0.14734,0.74734 -0.39383,2.17703 -0.44284,2.83835c-0.06769,0.91367 -0.05716,1.995 -0.05716,2.7045c0,0.85266 0,1.85715 0,2.65717c0,0.99982 0.05161,1.78052 -0.00015,2.7785c-0.04269,0.82346 -0.64789,1.49133 -0.91452,2.50549c-0.17664,0.67188 -0.04614,1.63147 -0.08548,2.61633c-0.02859,0.7157 -0.28952,1.66739 -0.49985,2.4205c-0.22198,0.79486 -0.44733,1.79166 -0.48932,2.66849c-0.04834,1.00974 -0.01068,1.83151 -0.01068,2.496c0,0.99869 0,1.81467 0,2.63068c0,1.22684 0,1.87332 0,2.88382c0,0.96417 0,1.91486 0,2.80017c0,0.80002 0,1.70001 0,2.60001c0,0.89999 0,1.79999 -0.00449,2.70001l-0.21686,0.79999l-0.49466,0.70001" id="svg_13" stroke-width="2" stroke="#000" fill="none"/>
  <path t="32334,32631,32653,32690,32701,32714" d="m356.5,45.9c-1.71466,-1.084 -2.08401,-1.80133 -2.57468,-2.6l-0.38931,-0.8l-0.03601,-0.9" id="svg_14" stroke-width="2" stroke="#000" fill="none"/>
  <path t="32999,33180,33180,33192,33192,33193,33193,33204,33205,33205,33217,33217,33217,33231,33232,33243,33243,33243,33254,33254,33254,33254,33254,33254,33269,33269,33269,33269,33270,33270,33270,33281,33281,33281,33281,33281,33282,33282,33290,33290,33291,33291,33291,33303,33303,33303,33316,33316,33316,33332,33333,33333,33341,33341,33341,33341,33341,33353,33353,33353,33353,33353,33366,33366,33366,33366,33366,33366,33382,33382,33382,33382,33382,33389,33389,33389,33390,33390,33401,33402,33402,33402,33415,33415,33415,33427,33427,33438,33438,33438,33450,33450,33466,33467,33467,33467,33475,33475,33476,33476,33487,33487,33487,33487,33488,33499,33499,33499,33499,33499,33515,33515,33515,33515,33515,33515,33524,33524,33524,33524,33536,33536,33536,33548" d="m353.5,39.9c0,2.01433 0.00131,2.82133 0,4c-0.00067,0.6 0.0145,1.50323 -0.08533,2.4c-0.10068,0.90449 -0.32819,1.79674 -0.61917,2.64283c-0.27448,0.79804 -0.72192,1.70751 -0.93832,2.35266c-0.33102,0.98695 -0.31137,1.82113 -0.57886,2.80517c-0.17844,0.65646 -0.55243,1.42322 -0.94498,2.466c-0.32779,0.8708 -0.4942,1.35934 -0.83334,2.41666c-0.17899,0.55796 -0.37314,1.12783 -0.83334,2.91667c-0.15381,0.59784 -0.2905,1.19813 -0.53067,2.4c-0.11972,0.5991 -0.22757,1.1996 -0.33148,1.8c-0.31131,1.79884 -0.40549,2.39948 -0.50317,2.99734c-0.19296,1.18096 -0.28769,1.75998 -0.44415,2.88834c-0.07532,0.54319 -0.24069,2.0708 -0.27185,2.54233c-0.05875,0.88876 -0.07858,1.71463 -0.08398,2.484c-0.00986,1.40131 0.034,2.04496 -0.0585,2.92633c-0.10992,1.04749 -0.38046,1.73569 -0.74417,2.64567c-0.40048,1.00196 -0.61093,1.55873 -0.89868,2.47767c-0.31342,1.00089 -0.5029,1.7229 -0.69998,2.47433c-0.20297,0.7739 -0.39868,1.56566 -0.70016,2.76433c-0.20346,0.80889 -0.4166,1.64245 -0.65701,2.514c-0.12604,0.45693 -0.56281,1.92875 -0.72684,2.45367c-0.33859,1.08353 -0.51666,1.63179 -0.69064,2.18134c-0.34265,1.08226 -0.66638,2.11513 -0.94,3.08134c-0.25656,0.90598 -0.37192,1.34669 -0.58084,2.2175c-0.3157,1.31586 -0.50452,2.2345 -0.60449,2.7c-0.19998,0.93101 -0.38339,1.84602 -0.70001,3.1185c-0.19006,0.76388 -0.38693,1.455 -0.60001,2.076c-0.37704,1.09882 -0.6904,1.80473 -1.10001,2.65283c-0.39072,0.80895 -0.86969,1.5769 -1.13333,2.6045c-0.20145,0.78517 -0.14319,1.60037 -0.17114,2.6045c-0.01761,0.63204 -0.20819,1.81947 -0.35269,2.35717c-0.23895,0.88903 -0.45914,1.52079 -0.74265,2.56c-0.30576,1.1207 -0.40073,1.51601 -0.543,2.34c-0.2244,1.2996 -0.28146,2.22188 -0.32117,3.16367c-0.02002,0.47447 -0.03354,1.422 -0.03601,2.808c-0.00079,0.4455 0.00507,1.31873 -0.02084,2.1875c-0.02652,0.88934 -0.14163,2.31297 -0.2005,2.82167c-0.12262,1.05937 -0.20425,1.59744 -0.35333,2.67082c-0.07278,0.52415 -0.27112,1.98555 -0.34,2.82935c-0.06021,0.73785 -0.07465,1.38933 -0.08533,2.49066l-0.01068,0.92l-0.07465,0.75999l-0.41467,0.98666" id="svg_15" stroke-width="2" stroke="#000" fill="none"/>
  <path t="34154,34335,34336,34336,34355,34355,34355,34355,34371,34371,34371,34371,34371,34371,34371,34372,34376,34376,34376,34376,34376,34376,34386,34386,34386,34386,34386,34386,34400,34400,34400,34400,34409,34409,34421,34421,34421,34433,34433,34433,34450,34450,34450,34450,34457,34458,34458,34458,34458,34458,34470,34470,34470,34470,34470,34470,34483,34483,34483,34483,34484,34500,34500,34500,34500,34501,34507,34507,34507,34519,34519,34534,34534,34550,34550,34550,34550,34556,34556,34556,34556,34569,34569,34570,34570,34570,34571,34583,34584,34584,34584,34584,34584,34584,34599,34600,34600,34600,34600,34600,34606,34607,34607,34607,34607,34607,34607,34617,34617,34617,34617,34617,34618,34633,34634,34634,34642,34642,34654,34654,34678,34692,34692,34703,34703,34703,34703,34703,34704,34718,34718,34718,34718,34718,34719,34735,34735,34735,34736,34736,34736,34740,34740,34741,34741,34752,34753,34765,34782,34782,34789,34789,34801,34802,34802,34816,34816,34827,34827,34838,34838,34850,34850,34865,34866,34875,34875,34876,34876,34887,34887,34887,34887,34899,34900,34916,34916,34916,34925,34925,34925,34936,34949,34973,34985,34999,35016,35016,35023,35023,35034,35034,35048,35049,35049,35049,35059,35059,35059,35059,35071,35071,35082,35082,35099,35099,35099,35119,35120" d="m331.5,150.89999c-0.00449,2.01884 -0.01935,2.85887 -0.08533,3.48801c-0.10876,1.03723 -0.27014,1.783 -0.43552,2.59534c-0.18179,0.89305 -0.48175,2.4162 -0.57898,2.981c-0.10156,0.58987 -0.2926,1.83257 -0.37933,2.47733c-0.08795,0.65393 -0.17181,1.31383 -0.2355,1.97701c-0.18805,1.9575 -0.20309,2.59457 -0.23267,3.21967c-0.02908,0.61493 -0.07202,1.81531 -0.10535,2.39999c-0.09665,1.69609 -0.15912,2.24107 -0.29999,3.2955c-0.06805,0.50948 -0.22882,1.48247 -0.36334,2.39417c-0.1236,0.83777 -0.22617,1.9536 -0.284,2.6095c-0.07715,0.87514 -0.28925,1.87544 -0.57468,2.75185c-0.26352,0.8091 -0.40546,1.62083 -0.42398,2.496c-0.02115,0.99979 0.01175,1.83864 -0.08667,2.71599c-0.10138,0.90375 -0.35178,1.8304 -0.52533,2.50667c-0.19189,0.7477 -0.49222,2.05576 -0.58936,2.54668c-0.20609,1.04147 -0.30087,1.58684 -0.5,2.70166c-0.10043,0.56226 -0.29773,1.67743 -0.5,2.75833c-0.09888,0.52838 -0.29947,1.56461 -0.39999,2.07466c-0.19897,1.00954 -0.50119,2.51024 -0.59866,3.00934c-0.19339,0.99014 -0.29596,1.478 -0.44415,2.44417c-0.2128,1.38727 -0.27493,2.26904 -0.3045,2.69099c-0.08295,1.18317 -0.0791,1.90454 -0.27402,2.82317c-0.21576,1.01675 -0.54294,1.6304 -0.72598,2.64301c-0.14352,0.79404 -0.36353,1.79245 -0.62735,2.636c-0.28833,0.92191 -0.37109,1.7258 -0.45065,2.61067c-0.05756,0.64011 -0.19193,1.67572 -0.32733,2.41499c-0.14301,0.78081 -0.32874,1.5956 -0.48068,2.905c-0.10663,0.91887 -0.11606,1.3994 -0.16666,2.39583c-0.0264,0.52011 -0.06964,1.61063 -0.16666,2.77084c-0.10336,1.23604 -0.18781,1.87233 -0.26935,2.51733c-0.08212,0.64967 -0.16699,1.29982 -0.36533,2.58133c-0.19128,1.23582 -0.2916,1.82649 -0.50317,2.95816c-0.10266,0.54918 -0.32498,1.62604 -0.45267,2.158c-0.38968,1.62338 -0.55878,2.17488 -0.72949,2.73584c-0.34842,1.14493 -0.54773,1.71863 -0.76001,2.29066c-0.42554,1.1468 -0.91251,2.26222 -1.1745,2.80333c-0.51248,1.05849 -0.79025,1.55579 -1.05798,2.03867c-0.50494,0.91074 -1.18997,2.08194 -1.55017,2.726c-0.43198,0.77235 -1.02914,1.65231 -1.44983,2.35733c-0.46793,0.78419 -0.4028,1.7191 -0.8735,2.39017c-0.50037,0.71338 -0.80551,1.341 -1.09018,2.31735c-0.25696,0.88132 -0.4231,1.37112 -0.74249,2.44583c-0.16895,0.56842 -0.35886,1.14664 -0.793,2.9465c-0.14395,0.59674 -0.26672,1.1944 -0.375,1.78949c-0.21329,1.1723 -0.31219,1.75058 -0.48001,3.444c-0.05392,0.54404 -0.11346,1.60034 -0.13065,2.10934c-0.0329,0.97443 -0.03534,1.88531 -0.03601,3.11417c-0.0004,0.72433 0,1.38065 0,2.25516c0,1.22632 0,2.02634 0,2.93533c0,0.91934 0,1.75266 0,2.73151c0,0.83099 0,1.7905 0,2.54199c0,0.79651 0,1.79382 0,2.66849c0,1.0105 0,1.78986 0,2.78934c0,0.77402 0,1.6785 0,2.42584c0,0.99683 0,1.83148 0,2.76218c0,0.79498 0,1.67999 0,2.31998c0,1.396 0,2.12802 0,2.85202c0,0.69199 0,1.892 0,2.87598c0,0.95203 0,1.73801 0,2.56003c0,1.05865 0,1.97864 0,2.73865c0,0.96585 0,1.88666 0,2.78668c0,0.89999 0,1.79999 0,2.69998c0,0.75717 0,1.65717 0,2.40451c0,0.99817 0,1.86749 0,2.92883c0,0.63599 0,1.6875 0,2.41849c0,1.08151 0,1.76151 0,2.70651c0,0.85501 0,1.85632 0,2.73099c0,1.01068 0,1.81067 0,2.81067c0,0.80002 0,1.60001 0,2.59552l0,0.74731" id="svg_16" stroke-width="2" stroke="#000" fill="none"/>
  <path t="36252,36423,36423,36423,36438,36439,36439,36453,36453,36453,36458,36458,36458,36458,36471,36471,36471,36471,36471,36471,36471,36483,36483,36483,36483,36483,36483,36483,36483,36483,36498,36498,36498,36498,36498,36498,36498,36499,36499,36509,36509,36509,36509,36509,36509,36509,36509,36509,36519,36519,36519,36519,36519,36519,36520,36520,36520,36532,36532,36532,36532,36532,36532,36532,36532,36532,36548,36549,36549,36549,36549,36549,36549,36549,36549,36557,36557,36557,36557,36557,36557,36557,36557,36558,36569,36569,36569,36569,36569,36569,36569,36570,36570,36582,36582,36582,36582,36582,36582,36583,36583,36583,36598,36598,36599,36599,36599,36599,36599,36606,36607,36607,36607,36607,36607,36617,36618,36618,36618,36618,36618,36618,36632,36632,36632,36632,36632,36632,36632,36648,36648,36648,36648,36649,36649,36649,36649,36649,36655,36656,36656,36656,36656,36656,36656,36656,36657,36667,36667,36667,36668,36668,36668,36682,36682,36682,36692,36692,36692,36704,36704,36704,36716,36716,36717,36732,36732,36732,36742,36742,36742,36752,36753,36765,36766,36766,36766,36782,36782,36782,36782,36782,36790,36790,36791,36791,36803,36803,36803,36803,36815,36816,36816,36832,36832,36832,36832,36840,36840,36841,36851,36852,36852,36852,36865,36865,36866,36866,36876,36877,36877" d="m359.5,53.9c0,2.95716 0,3.52083 0,4.40133c0,1.19867 0,1.79867 0,2.69867c0,1.2 0,1.8 0,2.7c0,1.2 0,1.804 0,2.7625c0,0.709 0,1.9375 0,2.8975c0,0.525 0,1.08 0,2.28c0,0.645 0.00031,1.32 0,2.76c-0.00018,0.76466 0.00015,1.55736 -0.009,2.376c-0.00943,0.8427 -0.0271,1.70754 -0.06299,2.592c-0.03665,0.90292 -0.07245,1.82378 -0.26135,3.69866c-0.09631,0.95595 -0.23056,1.91703 -0.38098,2.8815c-0.15091,0.96758 -0.32272,1.93187 -0.50702,2.8905c-0.18307,0.95239 -0.37405,1.89359 -0.77866,3.728c-0.19647,0.89079 -0.39774,1.76054 -0.60001,2.61c-0.19775,0.83053 -0.39758,1.64062 -0.60001,2.43c-0.19763,0.77061 -0.39209,1.52222 -0.79999,2.96c-0.1962,0.6916 -0.39847,1.36447 -0.60001,2.02351c-0.19846,0.64896 -0.39972,1.28908 -0.60001,1.9245c-0.19971,0.63358 -0.40359,1.26688 -0.79999,2.55199c-0.20184,0.65443 -0.40134,1.3196 -0.60001,1.995c-0.20135,0.68459 -0.40131,1.37962 -0.60001,2.085c-0.20132,0.71463 -0.40372,1.439 -0.79999,2.92c-0.2019,0.75466 -0.40155,1.52094 -0.60001,2.2995c-0.20157,0.79076 -0.40182,1.59589 -0.60001,2.4165c-0.20184,0.83572 -0.40613,1.68795 -0.79999,3.45067c-0.203,0.90846 -0.4006,1.83292 -0.59549,2.76749c-0.19577,0.93877 -0.38562,1.87794 -0.56851,2.8125c-0.18079,0.92379 -0.35718,1.83218 -0.66934,3.58666c-0.14856,0.83496 -0.28268,1.64424 -0.41849,2.42851c-0.13223,0.76372 -0.26398,1.50998 -0.40952,2.2395c-0.14352,0.7195 -0.28207,1.43497 -0.672,2.83199c-0.19635,0.70343 -0.43015,1.3989 -0.672,2.091c-0.24084,0.68925 -0.49445,1.36742 -0.74399,2.037c-0.24512,0.65775 -0.49857,1.29585 -0.91733,2.53867c-0.19806,0.58784 -0.36734,1.16173 -0.5235,1.71901c-0.15173,0.54143 -0.28091,1.0748 -0.55801,2.10533c-0.40665,1.51222 -0.56689,2.01108 -0.90451,3.00899c-0.16953,0.50107 -0.52676,1.49837 -0.69464,2c-0.50037,1.49527 -0.64331,1.99724 -0.89551,3.009c-0.12735,0.51085 -0.34918,1.56248 -0.45267,2.10533c-0.10596,0.55582 -0.40616,2.32892 -0.50452,2.96034c-0.10168,0.65291 -0.20251,1.32898 -0.29999,2.0295c-0.20532,1.4756 -0.30493,2.25391 -0.5,3.89583c-0.1026,0.86371 -0.20065,1.75194 -0.29999,2.658c-0.10065,0.91792 -0.19968,1.84203 -0.30002,2.76601c-0.09967,0.91803 -0.19513,1.82455 -0.39999,3.57599c-0.09769,0.83528 -0.19803,1.64027 -0.29999,2.41501c-0.09808,0.74525 -0.19778,1.46033 -0.30002,2.145c-0.09787,0.65532 -0.19211,1.28139 -0.39999,2.43999c-0.09619,0.53601 -0.19769,1.04288 -0.38934,1.98134c-0.17377,0.85085 -0.35138,1.62566 -0.48932,2.69701c-0.08472,0.65813 -0.07562,1.58669 -0.28799,2.655c-0.14322,0.72054 -0.53918,1.56151 -0.93335,2.36684c-0.40137,0.81999 -0.72787,1.4745 -1.09866,2.48517c-0.30356,0.82739 -0.50351,1.40897 -0.67984,2.61449c-0.12933,0.8842 -0.11002,1.46419 -0.12149,2.53351c-0.00998,0.93068 -0.05292,1.77448 -0.35266,2.77567c-0.20053,0.6698 -0.50201,1.72197 -0.56201,2.36166c-0.10022,1.06825 -0.08307,1.83833 -0.08533,3.02933c-0.0015,0.79868 0,1.58934 0,2.36401c0,0.75066 0,1.81467 0,2.81065c0,0.65068 0.00815,1.30937 -0.00134,2.70934c-0.00504,0.74138 -0.01212,1.49252 -0.08398,2.23201c-0.10361,1.06615 -0.3475,2.04625 -0.48935,2.67332c-0.27313,1.20747 -0.37982,2.11008 -0.40448,2.71066c-0.03696,0.89946 -0.0119,2.10158 -0.03152,2.71068c-0.03052,0.94716 -0.14658,1.9576 -0.27332,2.67332c-0.13159,0.74312 -0.33212,1.48393 -0.54935,2.94934c-0.10062,0.67876 -0.13065,1.33066 -0.16217,2.26216l-0.00449,1.2045l0,0.60001l0,0.89999" id="svg_17" stroke-width="2" stroke="#000" fill="none"/>
  <path t="37640,37798,37810,37823,37823,37823,37837,37837,37837,37837,37851,37851,37851,37851,37851,37860,37860,37860,37860,37871,37872,37882,37899,37899,37908,37920,37920,37932,37932,37949,37949,37949,37957,37957,37957,37968,37968,37968,37968,37982,37982,37982,37982,37999,37999,38000,38006,38006,38018,38032,38033,38049,38049,38055,38068,38083,38083,38093,38093,38104,38116,38116,38132,38132,38132,38141,38141,38141,38141,38141,38153,38153,38153,38153,38153,38166,38166,38166,38166,38183,38184,38190,38202,38202,38216,38234,38239,38252,38252,38268,38268,38283,38283,38288,38288,38300,38316,38316,38326,38326,38337,38349,38350,38373" d="m329.5,242.89999c-1.05267,1.70001 -1.62665,2.47247 -1.87851,3.32184c-0.21249,0.71663 -0.11362,1.4502 -0.12283,2.65016c-0.00546,0.71072 -0.01709,1.48657 -0.08398,2.31601c-0.10776,1.33574 -0.19412,1.79536 -0.34,2.72667c-0.14484,0.92471 -0.3172,1.81277 -0.45319,3.04218c-0.07996,0.72278 -0.10992,1.38049 -0.12015,2.25516c-0.01434,1.22623 -0.00134,2.02634 -0.00134,2.93082c0,0.95853 0.06674,1.64566 -0.01068,2.58252c-0.08398,1.01654 -0.63904,1.6243 -0.90399,2.66c-0.18069,0.70639 -0.08533,1.71481 -0.08533,2.53549c0,0.66449 0,1.66583 0,2.52084c0,0.94498 0,1.97983 0,2.71548c0,0.76367 0,1.54733 0,2.74283c0,0.79733 0,1.57867 0,2.328c0,1.33868 0,2.15768 0,2.85068c0,1.02115 0,1.98532 0,2.936c0,0.88531 -0.02051,1.65543 -0.35266,2.53799c-0.26581,0.70624 -0.62933,1.71075 -0.64734,2.54868c-0.02075,0.96512 0,1.79865 0,2.77716c0,0.71698 0,1.6575 0,2.50815c0,0.76001 0,1.935 0,2.76001c0,0.60001 0,1.92001 0,2.64001c0,0.75998 0.00006,1.56 0,2.39999c-0.00009,1.3345 0.00674,1.79611 -0.01068,2.728c-0.0173,0.92416 -0.0325,1.82141 -0.21066,3.04218c-0.10629,0.72842 -0.29895,1.37589 -0.49466,2.25516c-0.2218,0.99649 -0.19073,1.84592 -0.28534,2.80267c-0.08862,0.89624 -0.79883,1.53793 -0.97781,2.38531c-0.18604,0.8808 -0.02084,1.8045 -0.02084,2.8215c0,0.69934 0,1.6785 0,2.46783c0,1.04401 0,1.836 0,2.69467c0,0.86334 0,1.89066 0,2.83734c0,0.67865 0,1.65717 0,2.47733c0,0.9585 0,1.854 0,2.71735l0,0.96317" id="svg_18" stroke-width="2" stroke="#000" fill="none"/>
  <path t="39458,39615,39615,39627,39628,39628,39641,39641,39641,39656,39656,39656,39656,39673,39673,39673,39678,39678,39678,39678,39678,39689,39689,39689,39689,39689,39701,39701,39701,39701,39718,39718,39718,39718,39725,39725,39737,39737,39752,39752,39775,39775,39787,39787,39801,39802,39817,39825,39825,39836,39836,39836,39852,39852,39852,39852,39867,39867,39867,39872,39872,39872,39872,39884,39884,39884,39898,39899,39909,39909,39921,39933,39933,39950,39950,39959,39970,39970,39983,39984,39984,39984,39999,39999,39999,40007,40007,40007,40007,40019,40019,40019,40019,40044,40044,40068,40082,40082,40098,40129,40154" d="m318.5,242.89999c0,1.84668 0,2.68668 0,3.68535c0,0.83549 0,1.71599 0,2.61465c0,0.90001 0,1.8 0,2.7c0,0.90001 0,1.8 0,2.40001c0,1.20267 0,1.82133 0,2.81435c0,1.11899 0,1.95499 0,2.84698c0,0.4595 0,1.3905 0,2.772c0,0.88132 0,1.30951 0,2.14584c0,0.81631 0,2.02081 0,2.81949c0,0.79068 0,1.94415 0,3.03467c0,0.67999 0,1.625 0,2.20499c0,1.27502 0,2.11502 0,3.07901c0,0.6925 0,1.65067 0,2.38266c0,1.16669 0.04535,1.99774 -0.22134,2.82135c-0.28452,0.87866 -0.71649,1.65063 -0.77731,2.47733c-0.07031,0.9559 -0.00134,1.86301 -0.00134,2.66299c0,0.95984 0,1.77432 0,2.64285c0,0.89548 0,1.79547 0,2.6955c0,0.59998 0,1.80133 0,2.72083c0,0.63632 0,1.64584 0,2.72733c0,0.73102 0,1.44202 0,2.70883c0,0.771 0,1.64035 0,2.64301c0,0.79999 0,1.79868 0,2.564c0,0.95068 0.00189,1.836 0,2.59317c-0.00226,0.89551 -0.05579,1.77115 -0.42532,2.61749c-0.4201,0.96216 -0.56424,1.66687 -0.57468,2.79202c-0.00732,0.79047 0,1.35416 0,2.23465c0,1.20001 0,1.80933 0,2.75583c0,1.00952 0.01599,1.72726 -0.02084,2.84283c-0.02469,0.74783 -0.12756,1.83676 -0.26315,2.51334c-0.19049,0.95047 -0.48602,1.7908 -0.63068,2.80002c-0.11966,0.83478 -0.08533,1.80133 -0.08533,2.68665c0,0.80002 0,1.70001 0,2.60001l0,0.89999" id="svg_19" stroke-width="2" stroke="#000" fill="none"/>
  <path t="41532,41714,41728,41728,41741,41755,41770,41770,41770,41776,41776,41776,41787,41787,41787,41788,41800,41800,41800,41800,41814,41814,41824,41836,41860,41860,41885,41885,41898,41898,41915,41915,41922,41922,41922,41934,41934,41934,41949,41949,41964,41972,41972,41983,42009,42009,42033,42033,42047,42058,42058,42070,42082,42098,42098,42098,42107,42107,42107,42108,42118,42119,42119,42132,42132,42132,42148,42148,42148,42156,42156,42168,42168,42189,42189,42192,42192,42205,42217,42218,42231,42231,42231,42248,42248,42254,42254,42254,42254,42266,42266,42266,42266,42282,42282,42283,42283,42292,42292" d="m365.5,52.9c0,2.62533 0,3.484 0,4.34733c0,0.8955 0,1.854 0,2.81934c0,0.68 0,1.52 0,2.52c0,0.855 0.00394,1.47501 -0.00015,2.83466c-0.0022,0.73135 -0.00131,1.47987 -0.05701,2.226c-0.08127,1.08849 -0.29111,2.09206 -0.44284,2.71101c-0.20996,0.8565 -0.44781,1.85271 -0.48932,2.695c-0.05359,1.08823 0.02322,1.9473 -0.01068,2.84666c-0.02859,0.75878 -0.39542,1.64169 -0.64734,2.4045c-0.32324,0.97878 -0.34732,1.79545 -0.35266,2.79549c-0.00427,0.8 0,1.8 0,2.61067c0,0.6465 0,1.87333 0,2.68933c0,0.54733 0,1.81333 0,2.65334c0,0.96133 0,1.84666 0,2.64667c0,0.836 0,1.85716 0,2.6045c0,0.99416 0.08694,1.7636 -0.00134,2.71017c-0.08365,0.89674 -0.79416,1.53894 -0.97781,2.38533c-0.1955,0.9009 -0.18686,1.8335 -0.3735,2.51434c-0.22128,0.80721 -0.49384,1.984 -0.56332,2.58566c-0.1037,0.89795 -0.13596,1.80548 -0.30536,2.7c-0.17169,0.90671 -0.4631,1.79312 -0.612,2.7c-0.14618,0.89025 -0.16132,1.76396 -0.16666,2.83334c-0.00354,0.70949 0,1.56216 0,2.56533c0,0.76534 0.08777,1.73239 -0.08533,2.48534c-0.2265,0.98519 -0.70779,1.70283 -0.85751,2.71149c-0.10999,0.74107 0.02298,1.80375 -0.34116,2.60717c-0.29367,0.64799 -0.63434,1.56641 -0.716,2.31817c-0.08649,0.79623 -0.26334,1.80334 -0.61066,2.7045c-0.36633,0.95052 -0.6965,1.7339 -0.88934,2.31633c-0.31165,0.94124 -0.60733,1.97771 -0.7955,2.711c-0.19128,0.74541 -0.38278,1.48904 -0.53784,2.58067c-0.14218,1.0009 -0.14581,1.625 -0.16531,2.48l-0.00134,1.23401l0,0.67799" id="svg_20" stroke-width="2" stroke="#000" fill="none"/>
  <path t="43032,43189,43206,43207,43222,43224,43224,43236,43236,43237,43248,43249,43249,43249,43264,43264,43264,43264,43274,43274,43274,43274,43286,43286,43298,43298,43298,43315,43316,43316,43322,43335,43335,43348,43348,43365,43366,43372,43372,43383,43383,43398,43398,43398,43414,43414,43414,43414,43415,43420,43420,43421,43433,43433,43433,43448,43448,43449,43458,43458,43458,43470,43470,43470,43482,43482,43482,43483,43499,43499,43499,43508,43508,43519,43519,43519,43532,43533,43533,43549,43549,43549,43556,43557,43557,43557,43571,43572,43572,43572,43584,43585,43585,43599,43599,43599,43599,43605,43617,43634,43654,43655,43658,43658,43668,43668,43684,43685,43685,43685,43692,43692,43692,43692,43703,43703,43704,43716,43717" d="m355.5,143.89999c0,1.82535 0.17398,2.86295 -0.05716,3.69551c-0.21518,0.77505 -0.86404,1.62117 -0.922,2.32533c-0.08032,0.97607 -0.00473,1.80281 -0.078,2.4935c-0.12033,1.13417 -0.29919,1.79927 -0.44284,2.52733c-0.15125,0.76657 -0.34616,1.95711 -0.41599,2.757c-0.10294,1.179 -0.10037,1.94858 -0.25067,3.03467c-0.0946,0.68353 -0.34564,1.62201 -0.48068,2.205c-0.29425,1.27039 -0.33551,1.94075 -0.35266,2.96165c-0.01361,0.81062 -0.05145,1.6927 -0.284,2.68268c-0.18872,0.80339 -0.40656,1.55452 -0.66333,2.50299c-0.24948,0.92151 -0.81308,1.54196 -0.99551,2.47151c-0.14429,0.73515 -0.05716,1.74283 -0.05716,2.54283c0,0.99983 0.03415,1.77975 -0.00015,2.77882c-0.02859,0.83247 -0.29779,1.79092 -0.49985,2.60451c-0.15829,0.63737 -0.34659,1.74879 -0.41599,2.58333c-0.07254,0.8723 -0.08633,1.74861 -0.16803,2.58c-0.10733,1.09239 -0.24759,1.69522 -0.52664,2.45734c-0.35703,0.97511 -0.68469,1.75037 -0.98935,2.57066c-0.39401,1.06091 -0.69189,1.77199 -1,2.41467c-0.48746,1.01685 -0.89224,1.82898 -1.28534,2.41066c-0.56052,0.82941 -1.14725,1.41075 -1.71597,2.08534c-0.61151,0.72537 -1.19675,1.54138 -1.59869,2.08932c-0.3981,0.54272 -1.21448,1.52588 -1.75833,2.2045c-0.48666,0.60727 -0.89539,1.4174 -1.05634,2.25684c-0.17758,0.92612 -0.34793,1.71404 -0.56,2.53867c-0.27142,1.05547 -0.3924,1.77159 -0.42084,2.67799c-0.0304,0.96854 -0.00449,1.79401 -0.00449,2.709c0,1.005 0,1.72234 0,2.46367c0,1.12201 0.00623,2.20805 -0.00134,2.88934c-0.01071,0.96463 -0.00778,1.58835 -0.22,2.78532c-0.10721,0.60478 -0.39972,1.49094 -0.612,2.7c-0.10425,0.59377 -0.15509,1.45816 -0.16531,2.22934c-0.01456,1.09857 0.10559,2.07719 -0.00269,2.97067c-0.11148,0.91992 -0.72888,1.53366 -0.94598,2.45717c-0.1727,0.7347 -0.35297,1.73871 -0.55267,2.36366c-0.36325,1.1367 -0.45499,1.94019 -0.47916,2.52083c-0.03931,0.9444 -0.02084,1.97968 -0.02084,2.711c0,0.74733 0,1.86334 0,2.92551c0,0.65567 0,1.53917 0,2.679l0,0.75749" id="svg_21" stroke-width="2" stroke="#000" fill="none"/>
  <path t="44294,44429,44443,44443,44459,44459,44474,44474,44474,44474,44483,44483,44483,44483,44483,44490,44490,44490,44490,44490,44490,44490,44502,44502,44502,44502,44502,44502,44502,44515,44515,44515,44515,44515,44515,44515,44531,44532,44532,44532,44532,44532,44539,44540,44540,44540,44540,44540,44550,44550,44550,44550,44550,44550,44566,44566,44566,44566,44566,44575,44576,44576,44576,44588,44588,44588,44588,44599,44599,44599,44616,44616,44624,44624,44624,44636,44637,44637,44649,44649,44666,44666,44666,44674,44674,44674,44685,44698,44698,44715,44715,44723,44724,44735,44749,44749,44765,44765,44772,44773,44783,44819,44820" d="m335.5,247.89999c0,1.82535 0,2.83334 0,3.62534c0,1.03633 0,1.83633 0,2.79651c0,0.83549 0,1.46083 0,2.15018c0,1.17114 0,2.04681 0,2.99048c0,0.49484 0,1.52551 0,2.60419c0,1.12 0,1.69498 0,2.875c0,0.60498 0,1.22 0,1.845c0,1.93466 0,2.59732 0,3.26599c0,0.67267 0,1.34732 0,2.69467c0,0.66867 0,1.98599 0,2.63098c0,1.26001 0,1.875 0,2.48001c0,1.17999 0,1.755 0,2.875c0,1.08267 0,1.61398 0,2.66666c0,0.52533 0,1.58401 0,2.66669c0,1.11731 0,1.68597 0,2.83331c0,0.57468 0,1.14734 0,2.83334c0,0.54498 0,1.60501 0,2.12c0,1 0,1.95999 0,2.88c0,0.88132 0,1.73065 0,2.556c0,0.80933 0,2.0105 0,2.80615c0,0.78369 0,1.54733 0,2.983c0,0.66434 0,1.61084 0,2.22018c0,1.19998 0,2.08051 0,2.64417c0,1.27182 0,1.93634 0,2.95715c0,0.81067 0.01126,1.68542 -0.00134,2.68402c-0.01031,0.81616 -0.02942,1.64438 -0.28265,2.63199c-0.17816,0.69482 -0.58163,1.84686 -0.65884,2.63666c-0.08011,0.81943 -0.05716,1.88068 -0.05716,2.58566c0,0.80002 0,1.83633 0,2.78317c0,0.69934 0,1.6785 0,2.46783c0,1.04401 0.09909,1.91464 -0.02084,2.73151c-0.14526,0.98917 -0.6387,1.66763 -0.85767,2.67899c-0.16629,0.76804 -0.12149,1.77869 -0.12149,2.49567l0,0.94052l0,0.84799l0,0.86334" id="svg_22" stroke-width="2" stroke="#000" fill="none"/>
  <path t="46039,46259,46277,46289,46289,46289,46294,46294,46308,46308,46318,46332,46350,46355,46368,46405,46442,46455" d="m365.5,217.89999c-1.5,-1.47916 -2.30789,-1.96797 -3.33334,-2c-0.67169,-0.02098 -1.46124,0.14268 -2.52365,-0.2215c-0.7756,-0.26587 -1.38303,-1.18227 -2.02835,-1.49316c-0.86938,-0.41884 -1.76196,-0.60573 -2.39865,-1.20132c-0.57996,-0.54253 -1.23685,-1.06317 -2.116,-1.08401l-0.89551,-0.00449l-0.67917,-0.42084" id="svg_23" stroke-width="2" stroke="#000" fill="none"/>
  <path t="51935,52067,52068,52086,52086,52092,52092,52092,52103,52103,52116,52116,52134,52134,52141,52141,52151,52164,52164,52181,52181,52188,52200,52200,52214,52230,52231,52238,52238,52249,52250,52264,52264,52264,52274,52274,52286,52298,52298,52314,52323,52336,52336,52348,52373,52373,52385,52397,52397,52416,52422,52434,52434,52448,52448,52464,52464,52472,52473,52473,52490,52506,52506,52509,52509,52519,52544,52556,52581,52599,52607,52618,52618,52634,52650,52655,52667,52667,52683,52701,52705,52716,52716,52731,52731,52748,52748,52753,52765,52782,52782,52791,52791,52801,52814,52814,52832,52839,52852,52852,52864,52881,52889,52900,52900,52900,52916,52916,52916,52931,52931,52931,52937,52937,52937,52950,52950,52965,52966,52981,52981,52986,52986,52998,52998,53016,53016,53024,53024,53059,53059,53084,53108,53133,53196,53196,53245,53281" d="m354.5,211.89999c1.836,-0.95332 2.61908,-0.97218 3.60449,-0.64282c0.64539,0.21571 1.81668,0.74283 2.34369,0.94283c0.7905,0.3 1.94464,0.75076 2.51016,1.2c0.79932,0.63493 1.27997,1.22859 2.02567,1.70001c0.67459,0.42648 1.64886,0.97957 2.21149,1.5c0.72906,0.67439 1.3045,1.29999 1.90451,1.89999c0.69998,0.7 1.19998,1.2 1.89999,1.89999c0.60001,0.60001 1.20001,1.20003 1.89999,1.90001c0.60001,0.59999 1.20041,1.26646 2.08401,1.51599c0.84116,0.23753 1.75446,0.46362 2.32584,0.78851c0.93771,0.53319 1.70505,0.76146 2.42215,1.09549c0.9761,0.45468 1.56601,0.99933 2.26801,1.7c0.70068,0.69934 1.13571,1.27208 1.89999,1.88934c0.74457,0.60135 1.60001,0.61066 2.39999,0.61066c0.95718,0 1.87433,-0.12306 2.716,0.08534c0.89075,0.22057 1.52261,1.09102 2.08401,1.47867c0.80753,0.55759 1.39352,1.11255 1.96933,1.63733c0.70941,0.64653 1.37711,1.1467 1.93066,1.77783c0.63147,0.71996 1.53476,0.93802 2.5,1.1875c0.8042,0.20787 1.51001,0.5654 2.37466,0.808c0.94189,0.26427 1.60376,0.58665 2.60382,0.90401c0.80591,0.25574 1.54767,0.57771 2.31702,1.06866c0.70532,0.45009 0.98502,1.45609 1.7045,1.886c0.77048,0.46039 1.47012,0.94794 2.14932,1.192c0.82846,0.29771 0.75522,1.4192 1.13467,2.17467c0.43558,0.8672 0.77039,1.49904 1.216,2.29999c0.44455,0.79906 0.5,1.70001 0.5,2.60034c0,0.714 0,1.66766 0,2.39966c0,1.16667 0,1.95834 0,2.90001c0,0.9045 0,1.76668 0,2.59999c0,0.97852 0,1.79868 0,2.63602c0,1.01666 0.15454,1.72479 -0.01068,2.728c-0.14294,0.86786 -0.9043,1.62338 -0.98798,2.436c-0.09219,0.89526 0.08527,1.80579 -0.01202,2.61066c-0.11221,0.92831 -0.51984,1.62689 -0.79065,2.276c-0.41354,0.99127 -0.68765,1.81747 -0.99866,2.62933c-0.3851,1.00531 -0.72513,1.66986 -0.91467,2.36801c-0.26727,0.98444 -0.23767,1.8223 -0.36935,2.63199c-0.20105,1.23624 -0.45132,1.88779 -1.116,2.79868c-0.45175,0.61908 -1.06735,1.23206 -1.68533,1.68533c-0.90192,0.66153 -1.50333,0.90909 -2.51465,1.116c-0.79108,0.16183 -1.80249,0.29803 -2.57916,0.58398c-1.00302,0.36926 -1.78613,0.51715 -2.67352,0.85266c-0.70581,0.26685 -1.58887,0.61874 -2.54733,0.64734c-0.8996,0.02682 -1.79999,0 -2.59998,0l-0.84283,-0.05716l-0.35583,-0.74417" id="svg_24" stroke-width="20" stroke="#fff" fill="none"/>
  <path t="59058,59273,59323,59334,59397,59435,59455,59465,59470,59481,59508,59519,59543,59543,59569,59644,59705,59740,59740,59777,59802,59852,59888,59912,59936,59936,59961,59961,59986,59998,60023,60073,60096,60117,60145,60182,60182,60207,60218,60243,60257,60268,60280,60305,60305,60317,60317,60330,60354,60366,60381,60397,60414,60431,60452,60464,60538" d="m342.5,212.89999c0.16666,1.83334 0.76358,2.31117 1.35266,2.94734c0.53299,0.57559 1.1962,0.99904 2.04733,1.478c0.72672,0.40895 1.75381,0.2523 2.47867,0.79601c0.64301,0.48232 1.36981,0.62514 2.12134,0.94533c0.78122,0.33282 1.53204,0.76813 2.29999,1.186c0.84091,0.4576 1.70001,0.64732 2.5,0.64732c0.90002,0 1.80002,0 2.70001,0c0.89999,0 1.8045,0 2.66666,0c0.83334,0 1.81183,0 2.63202,0c0.90134,0 1.80133,0 2.70132,0c0.89999,0 1.79999,0 2.70001,0c0.89999,0 1.79999,0 2.59998,0c0.90002,0 1.80002,0 2.70001,0c0.89999,0 1.81747,-0.1739 2.70001,0.00267c0.84882,0.16983 1.25098,1.05046 1.79999,1.83067c0.4606,0.65457 1.35123,1.04327 1.97467,1.592c0.58444,0.5144 1.11267,1.27856 1.87601,1.54933c0.88541,0.31406 1.43332,0.94133 2.11331,1.46133l0.0405,0.8595l0.42084,0.67917" id="svg_25" stroke-width="2" stroke="#000" fill="none"/>
  <path t="61364,61522,61538,61538,61552,61552,61558,61558,61558,61569,61569,61569,61581,61582,61597,61607,61618,61630,61647,61656,61656,61667,61668,61680,61680,61680,61697,61697,61697,61697,61704,61704,61704,61716,61716,61730,61730,61730,61754,61754,61765,61765,61780,61797,61797,61803,61815,61815,61831,61831,61840,61840,61851,61851,61863,61863,61863,61881,61881,61888,61889,61889,61900,61901,61913,61930,61930,61937,61949,61963,61980,61999,62036" d="m385.5,229.89999c1.5,1.52084 2.09735,2.32291 2.5,3c0.49673,0.8353 1.00339,1.54262 1.83334,2c0.64615,0.35608 1.49216,0.52202 2.33331,1.16667c0.74084,0.56778 0.96518,1.22391 1.63333,2.07617c0.46127,0.58838 1.22421,1.19743 1.99551,1.7045c0.69193,0.45488 0.59756,1.35919 0.70584,2.25267c0.11148,0.91992 0.76108,1.52737 0.9415,2.46165c0.15201,0.78719 0.05716,1.75984 0.05716,2.57434c0,0.8685 0,1.76399 0,2.664c0,0.89999 0,1.5 0,2.69867c0,0.88049 0,1.71599 0,2.71733c0,0.90933 0,1.85068 0,2.63217c0,0.7905 0.00058,1.909 0,2.6665c-0.00067,0.86932 0.05087,1.77588 -0.35266,2.62814c-0.38379,0.81061 -0.70239,1.57556 -1.16818,2.27802c-0.54596,0.82339 -1.04105,1.44934 -1.35782,2.45782c-0.23773,0.75687 -0.44189,1.69357 -0.82584,2.36868c-0.4523,0.79529 -1.03079,1.44098 -1.21017,2.422c-0.13565,0.74194 -0.06558,1.54822 -0.08667,2.54532c-0.01852,0.87515 -0.18872,1.89783 -0.5195,2.68533c-0.2565,0.61066 -0.81638,1.57751 -1.12198,2.34283c-0.35391,0.88635 -0.44543,1.86276 -0.87802,2.63635c-0.409,0.73141 -1.3125,1.1875 -1.7005,1.89948l-0.72598,0.474l-0.48868,0.62201l-0.8595,0.38251" id="svg_26" stroke-width="2" stroke="#000" fill="none"/>
  <path t="65133,65267,65267,65284,65285,65285,65301,65301,65303,65303,65303,65314,65331,65339,65339,65351,65363,65379,65379,65388,65388,65388,65399,65399,65412,65412,65430,65430,65437,65511,65524,65535,65560,65561,65572,65584,65596,65612,65657" d="m340.5,38.9c1.41068,-1.836 1.71796,-2.43383 2.3215,-3.19983c0.48425,-0.61459 1.05414,-1.18161 2.07718,-1.91617c0.56537,-0.40593 1.45822,-1.03206 1.96533,-1.69867c0.45645,-0.60003 1.18152,-1.21589 1.69733,-1.796c0.62671,-0.70484 1.25656,-1.17079 2.30267,-1.35333c0.92715,-0.16179 1.80554,0.01666 2.65683,-0.05683c0.9863,-0.08515 1.78445,-0.4036 2.37915,-0.68367c1.00806,-0.47474 1.74304,-0.92037 2.57867,-1.17417c0.75906,-0.23055 1.76578,-0.3407 2.452,-0.92267c0.66501,-0.56398 1.17999,-1.18806 2.06934,-1.19867c0.89999,-0.01073 1.75845,-0.43963 2.38535,-0.716c0.88269,-0.38913 1.87164,-0.5055 2.11465,-1.284l0.22134,-0.87867l0.69464,-0.40667" id="svg_27" stroke-width="2" stroke="#000" fill="none"/>
  <path t="66756,66888,66889,66890,66893,66936,66936,66936,66936,66936,66936,66936,66947,66947,66947,66947,66947,66947,66947,66947,66947,66967,66968,66968,66968,66968,66968,66968,66968,66973,66973,66998,67019,67024,67046,67046,67062,67062,67083,67083,67097,67113,67133,67146,67146,67157,67168,67179,67196,67196,67205,67217,67217,67229,67230,67246,67246,67278,67328,67346,67346,67352,67376,67377,67401,67697,67709,67723,67723,67741,67741,67741,67741,67756,67756,67756,67758,67759,67759,67759,67770,67770,67781,67782,67797,67798,67813,67819,67832,67857,67880,67880,67897,67917,67930,67930,67930,67947,67947,67947,67954,67954,67954,67967,67967,67967,67979,67980,67996,68016,68029,68030,68052,68336,68423,68424,68434,68447,68465,68470,68470,68482,68482,68520,68594,68620,68679,68889" d="m360.5,67.9c3.60132,-0.856 4.21719,-1.30032 4.836,-1.832c0.65634,-0.56393 1.33316,-1.16503 2.056,-1.78c0.80014,-0.68073 1.23807,-1.07016 1.69867,-1.512c0.50528,-0.4847 1.0582,-1.02542 2.24268,-2.376c0.68506,-0.78111 1.38654,-1.65022 2.11649,-2.565c0.74884,-0.93849 1.48923,-1.89212 2.21552,-2.835c0.70135,-0.9105 1.3551,-1.77605 2.50131,-3.26667c0.4599,-0.59809 0.84982,-1.09666 1.17603,-1.509c0.26862,-0.33955 0.49127,-0.61551 0.672,-0.843c0.14984,-0.1886 0.54956,-0.82561 0.98532,-1.4605c0.55591,-0.80996 1.11075,-1.52782 1.86166,-1.96367c0.69797,-0.40511 1.63901,-0.02129 2.617,-0.05733c0.77554,-0.02858 1.66025,-0.38732 2.36865,-0.64717c0.99973,-0.36671 1.9574,-0.26178 2.85269,-0.354c0.81259,-0.0837 1.45438,-0.79064 2.29999,-0.97783c0.95688,-0.21183 1.42847,-0.62784 2.06799,-1.22083c0.64682,-0.59975 1.31912,-1.22831 1.6535,-2.12133c0.2601,-0.69465 0.83704,-1.47359 1.25766,-2.17867c0.4679,-0.78432 0.35834,-1.689 0.52219,-2.61333c0.14874,-0.83915 0.85568,-1.46862 1.05133,-2.2385c0.23154,-0.91118 0.83478,-1.63887 0.94598,-2.44817c0.11499,-0.837 1.07904,-1.35373 1.00134,-2.2c-0.08206,-0.89377 -1.06955,-0.95866 -2.16666,-1.16667c-0.52277,-0.09911 -1.35593,-0.34876 -2.23468,-0.63467c-0.90048,-0.29297 -1.79352,-0.60683 -2.39865,-0.76267c-1.19101,-0.3067 -2.09579,-0.38036 -2.67917,-0.436c-0.83594,-0.07973 -2.08099,-0.30962 -2.67416,-0.61067c-1.00592,-0.51053 -1.57846,-1.10235 -2.49484,-1.33667c-0.76959,-0.19678 -1.39453,-0.90692 -2.15317,-1.05133c-0.88284,-0.16806 -1.83466,-0.00133 -2.68268,-0.00133c-0.86331,0 -1.88,0 -2.71732,0c-0.96533,0 -1.64536,-0.00056 -2.48535,0c-0.99866,0.00067 -1.83731,-0.01313 -2.71466,0.08533c-0.90308,0.10135 -1.79642,0.32524 -2.64151,0.61917c-1.04703,0.36415 -1.7074,0.72223 -2.35266,0.93833c-0.98553,0.33008 -1.76846,0.35183 -2.84732,0.35717c-0.85718,0.00424 -1.75717,0 -2.55716,0c-0.90002,0 -1.59457,0.30351 -2.36667,0.83333c-0.60913,0.41799 -1.7868,-0.14747 -2.59052,0.388c-0.66974,0.4462 -1.40948,0.77867 -2.24283,0.77867c-0.83334,0 -1.6955,0 -2.60001,0c-0.89999,0 -1.79999,0 -2.6955,0.0045l-0.7045,0.4955" id="svg_28" stroke-width="2" stroke="#000" fill="none"/>
  <path t="70009,70130,70142,70155,70177,70201,70238,70301,70317,70329,70361,70399,70400,70424,70439,70455,70465,70472,70483,70483,70496,70496,70497,70513,70532,70532,70557,70593,70618,70618,70630,70630,70656,70680,70696,70705,70705,70716,70741,70790,70803,70827,70864,70963,70987,71003,71003,71012,71012,71029,71030,71036,71036,71048,71062,71062,71073,71085,71085,71148,71161,71161,71174,71210,71236,71676,71689,71712,71729,71749,71763,71779,71779,71786,71797,71822,71859,71859,71934,71970,71996,72070,72071,72093,72105,72106,72121,72192,72205,72227,72228,72265" d="m369.5,50.9c0,1.8 0,2.7 0,3.6c0,0.9 0,1.8 0,2.7c0,0.9 -0.38943,2.04738 0.2215,2.5785c0.66931,0.58187 1.7789,0.14687 2.57849,0.1215c0.9014,-0.0286 1.62259,-0.6855 2.5,-0.94283c0.8642,-0.25345 1.47684,-0.45269 2.14285,-1.15733c0.49106,-0.51953 1.42975,-1.03673 1.92117,-1.72517c0.47412,-0.6642 1.09851,-1.32315 1.46933,-2.17467c0.32614,-0.74897 0.28192,-1.71161 0.13065,-2.636c-0.14276,-0.87229 -0.48373,-1.60231 -1.164,-2.47733c-0.44498,-0.57237 -1.39993,-0.89212 -2.29999,-0.88667c-0.88959,0.00539 -1.45331,0.5663 -1.49551,1.35183c-0.05432,1.01072 0.19357,1.97057 -0.00583,2.84683c-0.18304,0.8043 -1.48227,0.47328 -1.9415,1.1585c-0.52319,0.7807 0.29874,1.61424 1.25183,1.64283c0.66138,0.01984 1.69635,0 2.44034,0c1.10785,0 1.86615,0.03701 2.90335,-0.0045c0.69608,-0.02786 1.55148,-0.41707 2.44733,-0.87433c0.67502,-0.34455 1.14658,-1.11092 1.89999,-1.78783c0.61511,-0.55265 1.3772,-0.96923 1.83334,-1.66666c0.45883,-0.70156 0.83878,-1.44495 1.14581,-2.1875c0.33603,-0.81268 -0.16367,-2.12568 0.54169,-2.45834c0.79538,-0.37513 1.77914,-0.02075 2.67917,-0.02083c0.89999,-0.00008 1.76666,-0.22059 2.39999,-0.57467c0.86127,-0.48151 1.80814,-0.30885 2.69998,-0.42984c0.82135,-0.11143 1.51834,-0.66768 2.30002,-1.02083c0.81085,-0.36634 1.35727,-1.17164 1.39999,-2.07483c0.03708,-0.78429 0.03571,-1.7258 0,-2.73317c-0.02859,-0.80652 -0.42911,-1.53638 -1.2215,-2.04517c-0.74628,-0.47918 -1.7785,-0.1215 -2.57849,-0.1215l-0.90002,0.05717" id="svg_29" stroke-width="2" stroke="#000" fill="none"/>
  <path t="73335,73469,73485,73506,73528,73548,73578,73590,73615,73702,73751,73775,73811,73860,73860,73873,73887,73888,73903,73923,73972,73995,74015,74044,74095,74108,74328,74353,74377,74414,74451,74469,74486,74511,74531,74535,74559,74609,74633,74695,74713,74732,74732,74749,74903,74940,74977,74989,75038,75076,75090,75091,75105,75122,75160,75160,75185,75191" d="m368.5,24.9c1.70001,0 2.70001,0 3.60001,0c0.89999,0 1.80557,0.00893 2.39999,-0.5c0.59146,-0.50638 1.36972,-0.9291 1.87851,-1.7215c0.47916,-0.74627 0.55576,-2.01091 -0.04517,-2.61183c-0.60092,-0.60093 -1.63333,-0.16667 -2.46933,-0.16667c-1.01669,0 -1.71133,0 -2.72803,0c-0.93597,0 -1.836,0 -2.73599,0c-0.89999,0 -1.7128,0.17104 -1.89999,1c-0.19958,0.88386 -0.93478,1.34663 -1,1.291c-0.71185,-0.60711 -0.80133,-1.29033 -1.70001,-1.291c-0.89999,-0.00067 -1.79999,0 -2.69998,0c-0.89999,0 -1.80002,0 -2.70001,0c-0.89999,0 -1.58237,0.28145 -2.18399,0.916c-0.54727,0.57723 -0.716,1.40533 -0.716,2.084c0,0.9785 0.52798,2.52656 0,2.528c-0.82352,0.00224 -0.43546,-1.51241 -1.39999,-1.528c-0.8999,-0.01455 -1.83865,0.10302 -2.31467,0.80133c-0.5108,0.74931 -1.00134,1.28267 -1.28534,2.19867l0,0.8l0,0.9l0,0.9" id="svg_30" stroke-width="2" stroke="#000" fill="none"/>
  <path t="80381,80551,80568,80568,80584,80584,80590,80590,80599,80599,80624,80624,80638,80649,80674,80687,80698,80698,80712,80728,80736,80747,80747,80762,80762,80762,80772,80772,80772,80784,80784,80784,80795,80795,80821,80821,80821,80832,80833,80846,80846,80870,80882,80882,80895,80911,80920,80931,80945,80945,80961,80961,80961,80969,80969,80980,80980,80980,80995,80995,81005,81005,81005,81017,81029,81030,81030,81044,81054,81067,81079,81079,81095,81104,81105,81115,81116,81116,81128,81128,81128,81146,81146,81146,81146,81152,81153,81165,81165,81165,81165,81177,81178,81195,81201,81201,81214,81227,81227,81263,81279,81300,81311,81311,81330,81338,81338,81348,81387,81437,81462,81463,81484,81509,81509,81521,81557,81596,81597,81634,81634" d="m241.5,225.89999c0,-1.75716 0,-2.65717 0,-3.4045c0,-0.9955 0,-1.7955 0,-2.79533c0,-0.77933 0,-1.77882 0,-2.68416c0,-0.94135 0,-1.632 0,-2.70534c0,-0.91068 -0.09508,-1.8165 0.00133,-2.61067c0.11165,-0.91978 0.77321,-1.43774 1.388,-2.2c0.6006,-0.74466 1.09732,-1.35287 1.48933,-2.043c0.39119,-0.68869 0.32254,-1.76486 0.64217,-2.57784c0.26392,-0.67126 0.67998,-1.66287 0.97917,-2.47917c0.20053,-0.54713 0.58519,-1.58522 1,-2.47916c0.28973,-0.62437 0.81192,-1.61981 1.10001,-2.25684c0.4174,-0.92299 0.68259,-1.71901 1,-2.50267c0.37936,-0.93661 0.9052,-1.71484 1.49983,-2.36133c0.54784,-0.5956 0.88618,-1.57274 1.46815,-2.10001c0.65369,-0.59224 1.26648,-1.30934 1.95284,-1.8c0.69395,-0.49609 1.112,-1.32944 1.8125,-1.83333c0.59071,-0.42493 1.68709,-0.27963 2.45601,-0.60266c0.74878,-0.31454 1.57001,-1.00488 2.17999,-1.364c0.77078,-0.4538 1.55475,-0.69157 2.34799,-1c1.00153,-0.3894 1.87198,-0.80006 2.68268,-1.20001c0.78931,-0.38939 1.53656,-0.65302 2.37466,-0.98532c0.97733,-0.3875 1.40372,-0.92624 2.14133,-1.44667c0.80273,-0.56638 1.79056,-0.46097 2.68402,-0.56934c0.9198,-0.11156 1.42438,-0.79153 2.21066,-1.388c0.69849,-0.52986 1.62384,-0.54419 2.58932,-0.77733c0.61609,-0.14877 1.45013,-0.5554 2.42151,-0.93333c0.8089,-0.31473 1.38837,-0.50241 2.57849,-0.90001c0.59827,-0.19986 1.47076,-0.51122 2.31467,-0.71466c0.99292,-0.23938 1.69467,-0.22961 2.85199,-0.452c0.79425,-0.15262 1.3403,-0.33466 2.14935,-0.63467c1.00656,-0.37326 1.82477,-0.799 2.79865,-1.11465c0.87531,-0.28372 1.44577,-0.73763 2.18533,-1.3795c0.66669,-0.57863 1.47711,-0.82797 2.30002,-1.27917c0.78012,-0.42775 1.69998,-0.42534 2.60132,-0.42534c0.68402,0 1.62402,0 2.63202,0c0.86215,0 1.76666,0 2.66666,0c0.91068,0 1.82132,0 2.5,0c0.97849,0 2.0004,-0.02538 2.79999,0c0.9014,0.02859 1.60001,0.44667 2.20001,1.16667l0.38934,0.65868l0.444,1.008l0.15598,0.756" id="svg_31" stroke-width="2" stroke="#000" fill="none"/>
  <path t="82734,82888,82907,82907,82926,82926,82947,82947,82947,82962,82963,82971,82994,82995,83019,83045,83045,83062,83068,83069,83080,83080,83095,83112,83117,83130,83155,83167,83191,83192,83204,83228,83245,83253,83265,83265,83278,83295,83295,83302,83314,83314,83329,83350,83362,83380,83388,83388,83412,83430,83439,83439,83463,83467,83467,83477,83487,83487,83498,83498,83513,83533,83533,83533,83536,83536,83547,83561,83561,83578,83596,83622,83622,83633,83633,83633,83646,83646,83663,83663,83663,83663,83671,83671,83671,83671,83682,83682,83682,83695,83695,83719,83719,83733,83745,83769,83793,83814,83842,83855,83856,83867,83878,83879,83896,83896,83905,83906,83906,83906,83915,83916,83916,83929,83929,83945,83945,83964,83989,83989,83989,84002,84002" d="m346.5,192.89999c1.63599,0.57468 2.48267,0.94797 3.21066,0.98933c0.98798,0.05614 1.82019,-0.03268 2.95599,0.17734c0.79099,0.14627 1.35132,0.26736 2.5,0.83333c0.68842,0.33919 1.43173,0.89108 2.33334,1c0.79871,0.0965 1.46985,0.64801 2.48401,0.91467c0.67184,0.17665 1.63199,0.08533 2.68265,0.08533c0.65869,0 1.66669,0 2.52884,0c0.90451,0 1.8045,0 2.7045,0c0.89999,0 1.80002,0 2.70001,0c0.89999,0 1.69998,0 2.60001,0c0.89999,0 1.79999,0 2.71066,0c0.91064,0 1.76398,0 2.70398,0c0.88535,0 1.68533,-0.00185 2.52133,0c1.01669,0.00226 1.75421,-0.04466 2.72803,0.42534c0.77841,0.37569 1.75037,0.28821 2.46933,0.74133c0.70502,0.44432 1.49374,0.62305 2.10532,1.26933c0.57626,0.60899 0.79529,1.60223 1.14536,2.364c0.34454,0.74973 1.24167,1.31085 1.63065,2c0.43253,0.76633 0.14761,1.89149 0.39966,2.54733c0.38489,1.00154 1.28308,1.26622 1.83502,2.06334c0.4827,0.69713 0.90469,1.42162 1.4025,1.93666c0.75195,0.77798 1.3436,1.34822 2.04816,2.05267c0.69998,0.69987 1.28778,1.01971 2.07916,1.59999c0.60602,0.44435 0.79294,1.49141 1.1315,2.21068c0.37482,0.79633 0.84525,1.56538 1.104,2.38933c0.30997,0.98695 0.28,1.67195 0.28534,2.73334c0.00491,0.97649 0,1.6875 0,2.4185c0,1.0815 0,2.09099 0,2.72733c0,0.91951 0,1.82066 0,2.71017c0,0.8535 0,1.88899 0,2.769c0,1.02016 0,1.73717 0,2.64166c0,0.89999 0,1.8 0,2.7c0,0.90001 0.18329,1.85428 -0.16666,2.7c-0.32468,0.78464 -0.7709,1.5408 -1.05484,2.32133c-0.32065,0.88138 -0.87555,1.65994 -1.29935,2.19951c-0.64111,0.81622 -1.14038,1.48331 -1.65381,2.2645c-0.34717,0.52821 -0.93112,1.53534 -1.32535,2.19383c-0.37439,0.62537 -1.16614,1.6013 -1.63867,2.18483c-0.64362,0.7948 -0.86157,1.56087 -1.38217,2.35684c-0.44019,0.673 -0.87915,1.31517 -1.27914,2.08049l-0.49551,0.99419l-0.34732,0.74731" id="svg_32" stroke-width="2" stroke="#000" fill="none"/>
  <path t="85206,85365,85377,85394,85402,85414,85429,85429,85439,85439,85439,85451,85451,85451,85462,85462,85462,85463,85478,85478,85478,85499,85499,85524,85524,85524,85537,85548,85562,85578,85586,85598,85598,85623,85636,85648,85648,85661,85678,85684,85684,85697,85697,85697,85711,85711,85721,85721,85732,85732,85732,85745,85745,85761,85770,85770,85782,85795,85795,85819,85819,85832,85832,85856,85869,85869,85882,85882,85882,85901,85901,85901,85901,85919,85919,85919,85935,85935,85936,85944,85945,85954,85954,85967,85978,85996,86003,86016,86016,86028" d="m382.5,290.89999c0,1.80002 0,2.70001 0,3.60001c0,0.89999 0,1.7045 0,2.7215c0,0.69934 -0.02914,1.67941 0.01068,2.48917c0.04312,0.87677 0.26834,1.87775 0.42532,2.436c0.25815,0.91797 0.56604,1.91943 0.76401,2.63599c0.20209,0.73145 0.47656,1.81503 0.79999,2.78403c0.27567,0.8259 0.65372,1.48859 0.87851,2.53333c0.16962,0.78824 0.08636,1.80124 0.13217,2.58932c0.0423,0.72794 0.67453,1.61429 0.93216,2.51068c0.24878,0.86551 0.55594,1.50415 1.03183,2.13599c0.49619,0.65878 0.91269,1.28992 1.50449,2.064c0.56201,0.73511 1.14499,1.241 1.81552,1.55267c0.80048,0.37207 0.65277,1.49136 0.99066,2.43268c0.26855,0.74817 0.74155,1.50211 1.104,2.31467c0.35181,0.7887 0.50354,1.60349 0.63599,2.39999c0.16714,1.00525 0.49011,1.80258 0.97467,2.79999c0.29227,0.60159 0.72784,1.38065 0.91467,2.39868c0.13879,0.75632 -0.1077,1.77563 0.25198,2.60132c0.2981,0.6843 1.2514,1.22369 1.71219,2.10019c0.32407,0.61642 0.84167,1.53995 1.27048,2.07449c0.63052,0.78604 0.84933,1.62399 0.85068,2.46133c0.00162,1.02567 0,1.82565 0,2.78549c0,0.81448 0,1.68301 0,2.57849c0,0.89999 0,1.80002 0,2.39999c0,1.20001 0.00003,2.10001 0,2.70001c-0.00009,1.19968 0.04111,2.08334 -0.05716,2.88568c-0.10782,0.88025 -0.60901,1.59839 -0.85883,2.49698c-0.21936,0.78906 -0.81433,1.36212 -1.47336,1.95334c-0.68991,0.6189 -0.96783,1.51584 -1.71066,2.00668l-0.39999,0.55731l-0.69867,0.83069" id="svg_33" stroke-width="2" stroke="#000" fill="none"/>
  <path t="87947,88105,88105,88105,88105,88122,88123,88123,88132,88132,88146,88146,88153,88165,88165,88178,88195,88202,88202,88202,88214,88214,88214,88228,88228,88228,88228,88239,88239,88239,88251,88251,88262,88263,88279,88300,88300,88351,88351,88389,88405,88405,88423,88423,88509,88509,88534,88548,88548,88563,88718,88792,88792,88804,88828,88864,88878,88894,88894,88894,88901,88901,88913,88914,88963,88963,89004,89061,89077,89086,89086,89098,89098,89098,89111,89111,89128,89129,89135,89135,89147,89148,89162,89162,89177,89177,89177,89184,89184,89184,89195,89195,89195,89212,89212,89221,89221,89232,89233,89245,89260,89260,89282,89294,89294,89312,89331,89345,89362,89362,89368" d="m294.5,334.89999c3.74249,0 4.60083,0 5.47916,0c0.85834,0 2.02084,0 2.94934,0c0.7395,0 1.77133,0 2.55066,0c0.99933,0 1.81952,0 2.65683,0c1.01669,0 1.71133,0 2.72803,0c0.94049,0 1.80264,0 2.67764,0c0.64502,0 1.64569,-0.01804 2.5,0.02084c0.94623,0.04306 1.9809,0.19318 2.70651,0.33182c0.73245,0.13995 1.77872,0.38651 2.70883,0.526c0.76837,0.11523 1.65359,0.15994 2.64301,0.474c0.81259,0.25793 1.79617,0.595 2.564,0.63669c0.94931,0.05154 1.836,0.01065 2.59317,0.01065c0.89551,0 1.75882,0 2.74283,0c0.98532,0 1.71066,0 2.69983,0c0.77933,0 1.77866,0 2.59885,0c0.83731,0 1.90704,-0.22009 2.63199,0.08533c0.8092,0.34091 1.48032,0.71954 2.40268,1.08136c0.78748,0.3089 1.14865,1.23276 1.16666,2.13333c0.01801,0.89981 0.23361,1.92575 -0.33334,2.69998c-0.3952,0.53967 -1.26883,0.8136 -1.90948,1.65717c-0.52844,0.69583 -0.83575,1.55405 -1.25717,2.32202c-0.47614,0.86768 -0.93591,1.52637 -1.44733,2.31631c-0.44193,0.68259 -0.98456,0.10117 -1.62201,-0.49683c-0.54987,-0.51581 -1.4292,-1.1058 -1.93066,-1.81949c-0.40015,-0.56949 -0.97067,-1.38998 -1.5,-1.95834c-0.81329,-0.87326 -1.34525,-1.40417 -2,-2.02084c-0.6188,-0.58279 -1.48267,-0.94803 -2.21066,-0.98932c-0.98798,-0.05606 -1.81018,-0.01068 -2.95599,-0.01068c-0.78601,0 -1.608,0 -2.66669,0c-0.71399,0 -1.61932,0 -2.58783,0c-0.79349,0 -1.569,0 -2.6095,0c-0.85199,0 -1.81412,0.05231 -2.57065,-0.08533c-1.01285,-0.1843 -1.71164,-0.67685 -2.64151,-0.85751c-0.84344,-0.16388 -1.64566,0.00961 -2.58252,-0.06781c-1.01654,-0.08398 -1.57806,-0.67526 -2.47464,-0.93219c-0.86694,-0.24844 -1.80002,-0.05716 -2.70001,-0.05716l-0.79999,0l-0.90002,0" id="svg_34" stroke-width="2" stroke="#000" fill="none"/>
  <path t="93594,93766,93766,93784,93784,93784,93801,93801,93801,93805,93806,93806,93825,93825,93825,93834,93846,93846,93846,93850,93850,93862,93879,93879,93888,93898,93924,93924,93936,93937,93960,93978,93986,93986,93997,93997,94011,94011,94011,94027,94027,94035,94035,94047,94047,94060,94078,94083,94096,94111,94111,94121,94133,94158,94158,94170,94170,94182,94182,94195,94196,94213,94214,94219,94220,94243,94243,94263,94264,94268,94280,94306,94317,94328,94345,94354,94354,94366,94366,94377,94378,94394,94394,94402,94402,94414,94414,94427,94427,94444,94452,94464,94464,94477,94477,94494,94494,94500,94501,94513,94513,94527,94527,94543,94544,94550,94550,94562,94562,94577,94577,94577,94587,94587,94587,94598,94599,94611,94611,94611,94627,94627,94636,94637,94648,94648,94660,94660,94677,94685,94685,94697,94722,94747,94760,94777,94783,94783,94795,94795,94812,94812,94821,94821,94831,94857,94857,94858,94919,94968,94969,95104,95105,95122,95122,95122,95130,95130,95144,95144,95152,95152,95152,95164,95164,95178,95178,95194,95195,95201,95201,95201,95213,95213,95227,95227,95252,95252,95252,95267,95267,95268,95268,95268,95279,95279,95280,95280,95287,95288,95299,95312,95330,95348,95361,95361,95377,95385,95396,95410,95426,95434,95434,95434,95459,95459" d="m300.5,235.89999c0,-1.84666 0,-2.68666 0,-3.68533c0,-0.83549 0,-1.71599 0,-2.61465c0,-0.90001 0.00226,-1.8 0,-2.70001c-0.00226,-0.89551 0.03656,-1.77538 -0.16666,-2.83333c-0.13754,-0.71603 -0.51938,-1.49313 -0.78067,-2.414c-0.258,-0.90924 -0.4826,-1.5916 -0.854,-2.35399c-0.48624,-0.99808 -0.80032,-1.54956 -1.11465,-2.51334c-0.28531,-0.8748 -0.73218,-1.58498 -1.08401,-2.38535c-0.35349,-0.80412 -0.83334,-1.66666 -1,-2.5c-0.16666,-0.83333 -0.54068,-1.73323 -1.39999,-1.96399c-0.87009,-0.23364 -1.74789,-0.41931 -2.48535,-0.752c-0.73721,-0.33258 -1.57632,-0.28175 -2.79865,-0.28401c-0.54135,-0.00099 -1.36334,0 -2.62933,0c-0.64502,0 -1.66534,0 -2.57068,0c-0.94135,0 -1.63199,0 -2.70532,0c-0.81067,0 -1.71719,-0.10695 -2.61069,0.00134c-0.91977,0.11148 -1.61737,0.67299 -2.39999,1.024c-0.8205,0.368 -1.46762,1.11195 -2.03598,1.57466c-0.8056,0.65587 -1.57269,0.94904 -2.3425,1.5c-0.64191,0.45943 -1.29404,1.23978 -1.90686,1.7c-0.73236,0.54997 -1.48599,0.86548 -2.362,1.5c-0.65561,0.47487 -1.41678,0.98077 -2.09998,1.40001c-0.77966,0.47842 -1.07111,1.28596 -1.73669,2.01466c-0.54413,0.59572 -1.6572,0.82893 -1.87997,1.68533c-0.22678,0.8717 -0.03601,1.80133 -0.03601,2.76666c0,0.65868 0,1.66667 0,2.45866c0,1.03185 0,1.77917 0,2.77335c0,0.76532 0,1.71866 0,2.57066c0,1.036 0,1.78 0,2.69733c0,0.912 -0.11142,1.90289 0.35718,2.63333c0.51318,0.79991 1.13171,1.24518 1.96414,1.8c0.65552,0.4369 1.50888,0.90419 2.17868,1.39999c0.81754,0.60516 1.52686,0.95773 2.33334,1.5c0.69153,0.46498 1.48956,1.09735 2.16666,1.5c0.8353,0.49672 1.49814,0.98097 2.10001,1.60017c0.62015,0.63802 1.08261,1.39671 1.53598,2.1105c0.50995,0.80286 1.04068,1.37476 1.53867,2.02533c0.69302,0.90538 1.08698,1.70311 1.28369,2.24316c0.42624,1.17009 0.4093,1.92339 0.9845,2.84233c0.35187,0.56218 0.948,1.05377 1.53564,1.87833c0.5376,0.75436 1.02573,1.63037 1.52151,2.30017c0.60516,0.81757 0.95984,1.52545 1.5,2.33334c0.44699,0.66852 0.78903,1.42029 1.22134,2.26666c0.33472,0.6553 0.77332,1.49994 0.77866,2.39999c0.00534,0.89996 -0.10693,1.80655 0.00134,2.70001c0.11148,0.91995 0.72888,1.53366 0.94598,2.45715c0.17273,0.73471 0.28568,1.76593 0.66333,2.50684c0.43146,0.8465 1.13049,1.36151 1.35333,2.25735c0.22031,0.88571 0.03601,1.82932 0.03601,2.5733c0,1.03467 -0.13345,2.01654 0,2.80536c0.11224,0.66351 0.66394,-0.00839 0.87851,-1.00018c0.17484,-0.80811 0.10928,-1.48526 0.12283,-2.48248c0.01083,-0.79666 0.09421,-2.01709 0.43466,-2.65601c0.47113,-0.88416 1.01859,-1.47278 1.27866,-2.26266c0.31964,-0.97079 0.25861,-1.84137 0.85468,-2.51334c0.51605,-0.58176 1.61032,-1.0303 2.01999,-1.55734c0.61948,-0.79694 0.78656,-1.58887 1.11069,-2.32266c0.46457,-1.05173 1.02722,-1.72946 1.24731,-2.66251c0.17325,-0.73456 0.34424,-1.74603 0.57352,-2.42615c0.28836,-0.85538 0.58398,-2.0011 0.67783,-2.45401c0.20148,-0.9725 0.2948,-1.48129 0.44415,-2.50917c0.21078,-1.45071 0.25537,-1.88736 0.32117,-3.02417c0.03616,-0.6248 -0.14148,-1.81799 0.09317,-2.62033c0.25891,-0.88519 0.91425,-1.60764 0.94284,-2.509c0.02853,-0.89954 0,-1.8 0,-2.59999c0,-0.90001 0,-1.8 0,-2.70001c0,-0.89999 0,-1.80449 0,-2.66666c0,-0.875 0,-1.52 0,-2.51601l0,-0.79649" id="svg_35" stroke-width="2" stroke="#000" fill="none"/>
 </g>
 <g display="none">
  <title>muse_image</title>
  <image xlink:href="http://farm4.static.flickr.com/3388/3298944812_993b6c1c2c.jpg" id="muse" height="480" width="316" y="0" x="162"/>
 </g>
 <g display="none">
  <title>bbox</title>
  <rect stroke="#f00" fill="none" stroke-width="3" height="452.16" width="249.92727" y="11.52" x="186.89697" id="bbox"/>
 </g>
</svg>
