<svg width="640" height="480" xmlns="http://www.w3.org/2000/svg" xmlns:svg="http://www.w3.org/2000/svg" xmlns:xlink="http://www.w3.org/1999/xlink">
 <!-- Sketchy ANNOTATION
  ImageNet ID: n02676566_7830
  URL: http://farm3.static.flickr.com/2057/2049602630_954ddcaf12.jpg
  Image Width: 500
  Image Height: 375
  BBox X: 153
  BBox Y: 1
  BBox Width: 143
  BBox Height: 347
  Exposure: 2000ms
  Synset Label: guitar
  Synset ID: n03467517
  Worker Tag: acoustic guitar hanging on the wall
  Sanity Check: 
   Saved
  Comment: 
   {}
  Worker ID: A1P7U2ULSAE7YL
  Assignment ID: 31N2WW6R9RQSQH8BE143U3XXHVDF3M
  HIT ID: 36QZ6V1589DJ6WSM93V1ZRBRGO7SU9
  Work Time: 168s
  Worker Score: 0.7857
 END ANNOTATION -->
 <g display="inline">
  <title>Layer 1</title>
  <path t="0,141,173,197,205,229,245,253,269,269,277,285,293,309,317,333,349,373,382,389,399,405,421,437,453,453,469,477,477,485,501,509,525,525,533,541,549,557,566,573,582,589,599,600,605,616,629,629,637,645,653,662,679,679,685,685,693,701,709,717,733,734,749,757,765,765,773,773,783,789,789,798,805,815,821,837,837,848,848,853,862,862,869,885,885,893,901,909,909,917,917,925,925,933,941,949,957,966,973,973,983,989,998,1005,1013,1013,1021,1031,1037,1045,1053,1062,1069,1078,1078,1085,1094,1101,1109,1117,1125,1141,1149,1157,1165,1181,1181,1189,1189,1197,1221,1237,1248,1248,1253,1261,1261,1269,1269,1278,1285,1295,1302,1310,1334,1342,1342,1350,1358,1374,1382,1399,1406,1422,1438,1438,1454,1454,1462,1479,1502,1510,1510,1526,1550,1558,1575,1575,1590,1606,1622,1622,1630,1647,1662,1670,1670,1679,1686,1695,1702,1712,1726,1735,1742,1751,1751,1766,1774,1782,1790,1790,1799,1814,1822,1846,1862,1871,1871,1879,1902,1918,1918,1934,1942,1950,1967,1974,1989,1998,2006,2022,2038,2049,2050,2062,2078,2086,2102,2112,2126,2142,2150,2150,2174,2190,2206,2215,2231,2254,2270,2278,2278,2294,2318,2334,2342,2365,2389,2414,2429,2430,2445,2446,2462,2486,2502,2502,2517,2518,2528,2534,2550,2581,2590,2606,2622,2622,2637,2654,2665,2678,2686,2702,2717,2727,2741,2765,2766,2774,2782,2790,2798,2806,2830,2854,2854,2870,2901,2910,2949,2958,2982,2982,2997,3015,3030,3047,3070,3081,3118,3126,3144,3158,3158,3166,3190,3198,3214,3231,3231,3238,3253,3277,3293,3302,3318,3342,3358,3358,3374,3397,3437,3447,3465,3470,3494,3510,3518,3542,3542,3550,3566,3589,3598,3606,3614,3630,3677,3686,3709,3733,3749,3765,3766,3782,3790,3813,3830,3861,3870,3886,3896,3897,3910,3926,3926,3934,3942,3959,3966,3989,3990,3998,4006,4015,4022,4022,4038,4038,4047,4054,4070,4085,4096,4102,4117,4129,4130,4134,4149,4159,4166,4166,4176,4183,4198,4214,4222,4230,4246,4254,4263,4263,4280,4302,4313,4318,4333,4342,4342,4358,4376,4382,4383,4398,4398,4407,4414,4422,4430,4446,4446,4465,4466,4470,4486,4486,4497,4502,4510,4510,4518,4529,4534,4550,4550,4559,4559,4582,4598,4598,4622,4622,4630,4647,4648,4670,4679,4679,4698,4702,4750,4774,4790,4821,4854,4854,4893" d="m270.51135,288.09091c-0.16666,1.83334 -0.66922,2.29602 -1.05716,3.05267c-0.40115,0.78244 -0.87756,1.4794 -1.2955,2.24731c-0.4577,0.84097 -0.85901,1.67175 -1.22198,2.30002c-0.48856,0.84564 -1.11456,1.0585 -1.90451,1.42084c-0.73065,0.33514 -1.13672,1.2901 -1.43549,2.17783c-0.27377,0.81342 -0.31744,1.61911 -1.18518,1.80148c-0.79233,0.16653 -1.25388,0.94595 -1.90018,1.49985c-0.61163,0.52417 -1.52155,0.88031 -1.83331,1.66666c-0.30569,0.77103 -0.58981,1.60382 -1.26651,2.05484c-0.70325,0.46869 -0.74753,1.50061 -1.33615,2.16785c-0.6144,0.69641 -1.61285,0.91147 -2.04318,1.61066c-0.52608,0.85477 -0.57628,1.70544 -1.02083,2.5c-0.44562,0.79648 -0.98669,1.3248 -1.5,2.02084c-0.5076,0.68832 -0.93912,1.57303 -1,2.47916c-0.05363,0.79819 0.07736,1.66757 -0.436,2.39999c-0.55377,0.7901 -1.22061,1.34717 -1.864,1.89551c-0.75337,0.64206 -1.55862,0.92899 -1.70016,1.8045c-0.14607,0.90353 -0.63638,1.51855 -1.19983,2.38266c-0.41966,0.64362 -1.27206,1.07916 -1.71468,1.80267c-0.4794,0.78363 -0.08533,1.81467 -0.08533,2.71466c0,0.79999 0.11526,1.71161 -0.036,2.63599c-0.14275,0.87231 -0.53453,1.56451 -1.06384,2.3425c-0.50594,0.74362 -0.88974,1.54218 -0.90016,2.50552c-0.00746,0.69061 0.01666,1.75897 0,2.61581c-0.01801,0.92603 -0.69615,1.50732 -0.91467,2.3855c-0.17607,0.70761 -0.08533,1.71451 -0.08533,2.67868c0,0.95065 0,1.836 0,2.63599c0,0.836 0,1.85269 0,2.54733c0,1.01669 0,1.95718 0,2.81934c0,0.83334 0,1.81201 0,2.586c0,0.90002 0,1.76334 0,2.7265c0,0.92084 0,1.82083 0,2.72086c0,0.89999 0,1.79999 0,2.59998c0,0.90002 0,1.80002 0,2.70001c0,0.91068 0,1.82132 0,2.5c0,1.11334 -0.17551,2.01227 0.08533,2.80133c0.25499,0.77142 0.89667,1.59805 0.91467,2.39868c0.02023,0.89978 0,1.79999 0,2.59998c0,0.90002 0.0905,1.90179 0.85066,2.17468c0.88411,0.31738 1.14934,1.12515 1.14934,2.00449c0,0.82217 0.05545,1.7218 0.5,2.52084c0.44562,0.80093 0.80673,1.55209 1.14734,2.25717c0.40894,0.84653 0.60568,1.54434 1.06866,2.3255c0.48961,0.82608 0.44394,1.78879 1.284,1.91733c0.79529,0.12167 1.52318,0.49777 2.2,1.20132c0.51833,0.53879 1.02054,1.50381 1.5,2.08884c0.59991,0.73199 1.24016,1.26065 1.65266,2.00983c0.46169,0.8385 0.76756,1.43448 1.48067,1.86667c0.80145,0.48572 1.36845,0.77692 2.14584,1.33334c0.64572,0.46219 1.01511,1.31808 1.82217,1.49866c0.87698,0.19623 1.8385,-0.03488 2.60931,0.43735c0.80429,0.49274 1.5484,0.79898 2.25601,1.564c0.50757,0.54877 1.27115,0.59729 2.048,1.08533c0.74005,0.46494 1.24359,1.14862 1.98532,1.56201c0.76367,0.42563 1.5033,0.89587 2.39999,1.23117c0.85062,0.31808 1.68909,0.22586 2.39999,0.62149c0.8765,0.48779 1.71967,0.72336 2.20453,1.2045c0.69284,0.68753 1.49246,1.25278 2.39548,1.2955c0.89899,0.04251 1.68811,0.10608 2.39999,0.5c0.88599,0.49026 1.81592,0.33301 2.69867,0.50134c0.75739,0.14441 1.23679,0.98001 2.10135,0.99866c0.89978,0.01941 1.7569,0.2897 2.39999,0.64734c0.85312,0.4744 1.61209,0.96558 2.5,1.26733c0.76175,0.25888 1.63443,-0.11063 2.5,0.14249c0.87762,0.25665 1.59418,0.91425 2.52151,0.94284c0.87805,0.02707 1.77847,0 2.57849,0c0.89999,0 1.836,0 2.68399,0c0.86334,0 1.88,0 2.716,0c0.89984,0 1.79999,0 2.60135,0c0.89865,0 1.81827,-0.00195 2.59866,0.42532c0.82257,0.45038 1.69998,0.57468 2.59998,0.57468c0.80002,0 1.70001,0 2.60001,0c0.87918,0 1.836,0 2.70001,0c0.89999,0 1.79999,0 2.69998,0c0.80002,0 1.70001,0 2.60001,0c0.89999,0 1.80002,0 2.6955,0c0.92603,0 1.8045,0 2.7045,0c0.80002,0 1.70001,0 2.60001,0c0.89999,0 1.80002,0 2.70001,0c0.89999,0 1.79999,0 2.69998,0c0.75717,0 1.67322,0.11856 2.51602,-0.08533c0.888,-0.21481 1.68253,-0.87198 2.65067,-0.91467c0.65802,-0.02902 1.66666,0 2.52884,0c0.90448,0 1.70584,-0.09409 2.29999,-0.64734c0.47171,-0.43927 1.32242,-0.9418 2.10449,-1.23117c0.85172,-0.31512 1.70044,-0.09424 2.60001,-0.12149c0.94415,-0.02859 1.4411,-0.83643 2.32083,-0.97916c0.94537,-0.15338 1.53406,-0.43768 2.2005,-0.89935c0.71613,-0.49609 1.76093,-0.13876 2.48849,-0.47415c0.80417,-0.37067 1.71054,-0.68747 2.31552,-1.22202c0.58783,-0.51941 0.90863,-1.35141 1.49548,-1.90448c0.73444,-0.69217 1.6315,-0.88025 2.27917,-1.23685c0.86368,-0.47552 1.70798,-0.73193 2.19867,-1.36932c0.55798,-0.72476 0.15564,-1.83093 1.00131,-1.91467c0.79611,-0.07883 1.56003,-0.20877 2.22134,-0.87866c0.60648,-0.61435 1.00018,-1.12134 1.87866,-1.12134c0.89999,0 1.71768,-0.23209 1.90018,-1.09982c0.16663,-0.79236 1.22427,-1.01047 1.64267,-1.60468c0.53354,-0.75772 0.35474,-1.73151 0.35715,-2.6955c0.00226,-0.89999 0.32614,-1.63666 0.716,-2.39999c0.38455,-0.7529 0.30814,-1.73892 0.784,-2.22086c0.55496,-0.56204 1.11813,-1.28949 1.41467,-2.17917c0.28586,-0.85764 -0.08279,-1.83643 0.17068,-2.59998c0.25635,-0.77216 0.88596,-1.49866 0.91464,-2.40002c0.02863,-0.89935 0.3067,-1.58673 1.19867,-1.80133c0.7489,-0.18018 0.80133,-1.19867 0.80133,-2.09866c0,-0.89999 0,-1.69998 0,-2.60001c0,-0.89999 -0.28909,-1.85196 0.01068,-2.68933c0.26373,-0.73672 0.98398,-1.22128 0.98932,-2.17465c0.00488,-0.87201 0,-1.836 0,-2.73599c0,-0.90002 0,-1.80002 0,-2.70001c0,-0.79999 0,-1.70001 0,-2.60001c0,-0.89999 0,-1.78934 0,-2.68533c0,-0.91467 0,-1.81467 0,-2.71466c0,-0.79999 0,-1.63599 0,-2.48401c0,-0.86331 0,-1.88 0,-2.81598c0,-0.89868 0,-1.75269 0,-2.70001c0,-0.79999 0.00592,-1.70004 0,-2.60001c-0.00534,-0.81073 -0.22833,-1.71848 -0.5,-2.39999c-0.38855,-0.9747 -0.49774,-1.75266 -0.5,-2.64816c-0.00256,-1.01849 0,-1.87268 0,-2.75183c0,-0.89999 0,-1.80002 0,-2.70001c0,-0.89999 -0.12427,-1.67743 -0.57465,-2.5c-0.42728,-0.7804 -0.24188,-1.77673 -0.64685,-2.49982c-0.41296,-0.73737 -1.59418,-0.89304 -1.77716,-1.70151c-0.19839,-0.87653 0.00061,-1.81827 -0.42667,-2.59866c-0.45038,-0.82257 -0.19073,-1.80447 -0.79617,-2.47867c-0.5546,-0.61758 -1.57629,-0.77692 -1.75766,-1.62134c-0.18906,-0.88016 0.09015,-2.01627 -0.54166,-2.5c-0.67731,-0.51855 -1.25659,-1.13806 -1.56317,-1.79999c-0.40256,-0.86911 -1.23889,-1.31558 -1.74933,-2.20001c-0.37622,-0.65189 -0.9599,-1.19171 -1.59866,-1.79999c-0.6958,-0.66263 -1.39825,-1.08984 -2.04718,-1.72086c-0.57892,-0.56296 -0.75381,-1.57101 -1.22534,-2.23633c-0.508,-0.71677 -0.75803,-1.53851 -1.59549,-2.133c-0.80151,-0.56894 -1.56119,-0.85654 -2.08932,-1.50983c-0.60217,-0.74484 -0.79935,-1.728 -1.31519,-2.30002c-0.65579,-0.7272 -1.53925,-0.9549 -2.17432,-1.52148c-0.67267,-0.60013 -1.16867,-1.23758 -1.9545,-1.7785c-0.64871,-0.44653 -1.50076,-0.81036 -2.16669,-1.33334c-0.65536,-0.51471 -1.12598,-1.37292 -1.79999,-1.74933c-0.83685,-0.46735 -1.39999,-1.11734 -2,-1.71732c-0.70001,-0.70001 -1.40195,-1.22144 -1.84283,-1.90002c-0.51477,-0.79233 -0.80881,-1.63 -1.52383,-2.13333c-0.69495,-0.48917 -1.77615,-0.17114 -2,-1l-0.83334,-0.16666l-0.79999,-0.08533l-0.79999,-0.48935" id="svg_1" stroke-width="2" stroke="#000" fill="none"/>
  <path t="12341,12468,12484,12509,12524,12548,12565,12565,12572,12629,12660,12676,12700,12732,12732,12741,12764,12788,12797,12828,12876,12885,12908,12908,12920,12924,12940,12949,12949,12956,12972,12981,12988,13012,13029,13044,13044,13060,13069,13069,13076,13092,13102,13121,13135,13150,13156,13168,13172,13180,13197,13197,13214,13214,13220,13228,13252,13260,13268,13276,13276,13285,13300,13308,13317,13324,13340,13351,13351,13367,13367,13381,13389,13397,13414,13421,13444,13444,13460,13469,13476,13487,13492,13502,13508,13524,13537,13553,13557,13573,13581,13604,13613,13620,13620,13636,13668,13678,13684,13692,13703,13724,13740,13764,13780,13780,13796,13805,13844" d="m263.51135,297.09091c0.28534,-0.91467 1.38293,-0.60526 1.91467,-1.28534c0.56583,-0.72369 -0.09601,-1.86813 0.25201,-2.71466c0.27588,-0.67108 0.82291,-1.47897 0.83331,-2.35718c0.01117,-0.94275 0,-1.84283 0,-2.74283c0,-0.89999 0,-1.69998 0,-2.60001c0,-0.89999 0,-1.79999 0,-2.69998c0,-0.89551 0,-1.76666 0,-2.70001c0,-0.89999 0.01172,-1.70004 0,-2.60001c-0.01041,-0.8002 -0.43597,-1.69998 -1,-2.29999c-0.564,-0.60001 -0.98734,-1.49985 -1,-2.39999c-0.0126,-0.89542 -0.67514,-1.34131 -1,-1.95718c-0.39322,-0.74548 0,-1.74298 0,-2.52817c0,-0.94 0,-1.948 0,-2.70398c0,-0.91068 0.00067,-1.81067 0,-2.71066c-0.00067,-0.89868 -0.62769,-1.44763 -0.97916,-2.22086c-0.36389,-0.80057 -0.02084,-1.77914 -0.02084,-2.67917c0,-0.89999 0,-1.79999 0,-2.55716c0,-0.89549 0,-1.75883 0,-2.722c0,-0.91016 0,-1.80617 0,-2.72083c0,-0.90001 0,-1.8 0,-2.60001c0,-0.89999 0,-1.8 0,-2.7c0,-0.89999 0,-1.8 0,-2.7c0,-0.90018 0,-1.68533 0,-2.62534c0,-0.69067 -0.00449,-1.78473 0.42535,-2.57466c0.44824,-0.82373 0.57202,-1.60001 0.57465,-2.51733c0.00226,-0.79253 -0.1633,-1.76187 0.52084,-2.541c0.60446,-0.68837 1.42529,-0.89539 1.97916,-1.54167c0.5242,-0.61166 0.95642,-1.38173 1.41602,-2.19867c0.39529,-0.70265 0.82886,-1.27649 1.0885,-2.09683c0.2428,-0.76714 1.24673,-1.13736 1.99548,-1.53783c0.79144,-0.42329 1.36163,-0.92795 2.09985,-1.38817c0.71716,-0.4471 0.81384,-1.59166 1.42099,-1.7785c0.93585,-0.28801 2.12125,0.18242 2.45834,-0.52083c0.37564,-0.78369 0.55853,-1.31551 1.42084,-1.48984c0.9437,-0.19078 1.59998,-0.82266 2.39999,-1.07333l0.69998,-0.416l0.90002,-0.464l0.89548,-0.036" id="svg_3" stroke-width="2" stroke="#000" fill="none"/>
  <path t="21333,21508,21519,21525,21548,21581,21597,21613,21629,21661,21677,21684,21684,21701,21709,21748,21756,21772,21781,21796,21805,21813,21828,21829,21844,21869,21876,21885,21924,21941,21956,21964,21972,21989,22013,22021,22021,22045,22061,22077,22116,22133,22141,22164,22189,22189,22197,22213,22236,22260,22269,22308,22325,22348,22349,22372,22388,22397,22420,22436,22452,22452,22461,22470,22485,22508,22517,22548,22557,22574,22590,22612,22613,22628,22637,22660,22676,22685,22700,22701,22709,22732,22748,22756,22773,22805,22813,22836,22868,22877,22900,22932,22988,23020,23029,23045,23085,23117,23149,23173,23205,23301,23301,23325,23373,23389,23429,23461,23493,23493,23517,23557,23621,23645,23669,23709,23725,23733,23749,23758,23765" d="m343.51135,213.09091c1.70001,0.05716 2.52359,0.4604 3.2955,0.94733c0.70245,0.44312 1.16833,1.1817 1.75717,1.70001c0.65057,0.57266 1.55566,0.94182 1.922,1.75266c0.35315,0.78166 0.77731,1.63091 1.078,2.3c0.37259,0.82913 1.5318,0.92128 1.94733,1.58534c0.43213,0.69061 -0.32236,1.86845 0.22134,2.59332c0.4823,0.64302 0.53189,1.5009 1.13583,2.06866c0.66071,0.62114 1.49399,0.82228 1.63834,1.75267c0.138,0.88937 0.15356,1.66484 0.65182,2.35268c0.50253,0.69373 0.35266,1.558 0.35266,2.44733c0,0.89999 0,1.8 0,2.7c0,0.90001 0,1.8 0,2.60001c0,0.89999 0,1.8 0,2.76399c0,0.87201 0,1.73601 0,2.636c0,0.90001 0,1.8 0,2.60001c0,0.89999 0,1.8 0,2.7c0,0.89999 0,1.88933 0,2.78534c0,0.81467 0,1.71466 0,2.51466c0,0.89999 0,1.8 0,2.7c0,0.89999 0,1.8045 0,2.82117c0,0.65799 0,1.69351 0,2.48016c0,0.89868 0,1.79868 0,2.69867c0,0.89999 0,1.79999 0,2.70001c0,0.89999 0,1.79999 0,2.59998c0,1.03336 -0.49124,1.3884 -1.16666,2.03336c-0.63205,0.60355 -0.83334,1.26666 -0.83334,2.16666c0,0.79999 -0.37061,1.42902 -0.87848,2.2215c-0.47842,0.74655 -0.66879,1.44687 -1.06433,2.13116c-0.46698,0.80792 -0.67978,1.39182 -1.03635,2.14734c-0.39517,0.83728 -0.74643,1.37393 -1.01016,2.11066c-0.29977,0.83737 -0.01001,1.78934 -0.01068,2.68933c-0.00067,0.89868 -0.62769,1.44763 -0.97916,2.22086c-0.36389,0.80057 -0.02084,1.77914 -0.02084,2.67783c0,0.88531 0,1.80133 0,2.60132c0,0.90002 0,1.80002 0,2.70001c0,0.89999 -0.13165,1.85004 0.22134,2.60001c0.36502,0.77551 0.42807,1.67432 0.77866,2.46399c0.27481,0.61902 0.96365,1.0816 1.42535,1.82535c0.50983,0.82129 0.85999,1.52533 1.77466,1.61066l0.89999,0l0.89999,0l0.83334,0.16666" id="svg_5" stroke-width="2" stroke="#000" fill="none"/>
  <path t="26141,26220,26220,26230,26238,26238,26238,26244,26244,26245,26245,26253,26253,26253,26261,26261,26270,26270,26270,26285,26285,26285" d="m269.51135,287.09091c0,2.78934 0,3.51468 0,4.52084c0,1.02216 0,1.75116 0,2.58817c0,0.89099 0,1.79099 0,2.69098c0,0.60001 0,1.79868 0,2.67917c0,0.83551 0,1.83551 0,2.71017c0,0.81067 -0.01065,1.62134 -0.08533,2.496l-0.19867,0.99734l-0.216,0.79648l-0.21597,0.7515" id="svg_6" stroke-width="20" stroke="#fff" fill="none"/>
  <path t="26956,26981,26981,26988,26988,26999,26999,27004,27004,27004,27004,27012,27012,27012,27012,27012,27021,27021,27021,27028,27028,27028,27028,27028,27037,27037,27037,27037,27045,27045,27045,27045,27053,27053,27053,27060,27060,27060,27060,27069,27069,27077,27093,27093,27093,27101,27108" d="m341.51135,284.09091c1.40002,0.87201 1.82022,1.5929 2.2955,2.60001c0.28055,0.59448 0.43811,1.64923 0.767,2.37915c0.42981,0.95392 1.36105,1.26889 1.97919,1.5625c0.66626,0.31647 1.66116,0.92383 2.18765,1.51169c0.53778,0.60049 0.94208,1.31122 1.36801,1.97998c0.59262,0.93048 1.21204,1.70868 1.60266,2.21735c0.81992,1.06766 1.20343,1.7153 1.60001,2.39999c0.4035,0.69666 0.77039,1.40121 1.39999,2.30667c0.38242,0.54996 1.0184,1.27963 1.39999,1.81067c0.84161,1.17117 1.1965,1.88467 1.60001,2.58133c0.39658,0.68469 0.98282,1.62112 1.39999,2.13632c0.57687,0.7124 1.40515,1.50928 1.99551,2.11435c0.38705,0.3967 0.94727,0.97995 1.64734,1.991c0.47198,0.68167 1.32257,1.27493 1.63583,2.07315c0.3161,0.80542 0.20532,1.56918 0.474,2.52151l0.48065,0.81433" id="svg_7" stroke-width="20" stroke="#fff" fill="none"/>
  <path t="30084,30252,30284,30308,30356,30412,30444,30492,30516,30580,30628,30668,30716,30716,30724,30756,30764,30788,30812,30828,30877,30892,30972,30996,31036,31053" d="m265.51135,286.09091c0,1.79999 0,2.70001 0,3.60001c0,0.87915 0,1.75717 0,2.69998c0,0.90002 0.08868,1.80441 0,2.70001c-0.08374,0.8457 -0.77368,1.27005 -1.22131,2.10001c-0.34933,0.64764 -0.79587,1.43463 -1.27869,1.92084c-0.58865,0.59277 -0.94843,1.31979 -1.72131,1.85767c-0.69794,0.48572 -1.58078,0.60568 -2.25784,1.12149c-0.63297,0.48221 -0.52084,1.5 -0.52084,2.39999l-0.00449,0.89551" id="svg_8" stroke-width="2" stroke="#000" fill="none"/>
  <path t="32021,32108,32124,32148,32156,32172,32196,32204,32236,32268,32268,32300,32324,32380,32388,32396,32444,32468,32484,32484,32508,32516,32525,32542,32580,32612,32676,32756,32772,32828,32932,32940,32958,32988,33004,33044,33060,33068,33092,33132,33148,33180,33196,33220,33252,33292,33348,33372,33372" d="m353.51135,279.09091c0,1.83334 0,2.61066 0,3.5c0,0.89999 0,1.89999 0,2.79999c0,0.90002 0,1.80002 0,2.70001c0,0.79999 0,1.70001 0,2.564c0,0.87201 0,1.836 0,2.73151c0,0.87115 -0.03668,1.80524 0,2.7045c0.02863,0.70175 0.46042,1.52359 0.94736,2.2955c0.44312,0.70242 0.76004,1.36584 1.05264,2.18365c0.22931,0.64096 0.68762,1.10339 1.01068,1.91019c0.31598,0.78912 0.97647,1.31525 0.98932,2.21066c0.01263,0.8793 0.69028,1.05624 1.47919,1.42084c0.771,0.35632 1.07526,1.39679 1.74234,1.85767c0.72952,0.50403 1.616,0.46442 2.13116,1.06882c0.55096,0.64642 0.46494,1.69476 1.16815,2.03183c0.78369,0.37564 1.47916,0.54169 1.83185,1.32083l0.526,0.80002l0.28799,0.89999l0.444,0.564" id="svg_9" stroke-width="2" stroke="#000" fill="none"/>
  <path t="35220,35491,35508,35508,35516,35564,35604,35636,35652,35692,35692,35756,35764" d="m283.51135,218.09091c0.16669,-1.83333 1.03644,-1.83183 1.80002,-2.08533c0.77216,-0.25635 1.59946,-0.89667 2.5,-0.91467c0.89981,-0.01799 1.79999,0 2.69998,0l0.80002,0l0.89999,-0.05717l0.77917,-0.44283" id="svg_10" stroke-width="2" stroke="#000" fill="none"/>
  <path t="36541,36708,36725,36742,36757,36836,36853,36877,36885,36893,36932,36933,36957,37044,37117" d="m343.51135,212.09091c-0.05716,-1.64734 -0.80133,-1.99933 -1.69998,-2c-0.89999,-0.00067 -1.80002,0 -2.70001,0c-0.89999,0 -1.79865,0 -2.65265,0c-0.94736,0 -1.74734,0 -2.59018,0l-0.87799,0l-0.97919,0" id="svg_11" stroke-width="2" stroke="#000" fill="none"/>
  <path t="38957,39116,39133,39148,39149,39165,39180,39197,39212,39212,39229,39244,39253,39261,39277,39285,39293,39308,39325,39334,39349,39364,39381,39388,39405,39413,39429,39429,39468,39492,39493,39509,39532,39532,39556,39588,39589,39805,39821,39829,39884,39917,39980,40004,40028,40052,40084,40108,40117,40141,40165,40188,40212,40228,40260,40292,40340,40380,40412,40412,40484,40508,40524,40580,40636,41348,41364,41381,41404,41413,41436,41436,41460,41484,41500,41516,41556,41572,41597,41612,41613,41621,41637,41660,41668,41692,41708,41740,41780,41780,41789,41805,41812,41828,41837,41844,41868,41884,41916,41940,41956,41988,42020,42052,42061,42092,42108,42108,42118,42132,42151,42172,42204,42260,42292,42316,42316,42332,42342,42355,42357,42373,42389,42405" d="m293.51135,215.09091c0,1.8 0,2.636 0,3.48399c0,0.86334 0,1.86934 0,2.80135c0,0.91466 0,1.81467 0,2.51466c0,1 0,1.8 0,2.8c0,0.79999 0,1.7 0,2.59999c0,0.99867 0,1.85268 0,2.60133c0,0.89867 0,1.79868 0,2.69867c0,0.89999 0,1.8 0,2.7c0,0.90001 0,1.8 0,2.60001c0,1.03333 0,1.90984 0,2.71733c0,0.85733 0,1.804 0,2.65733c0,0.94 0,1.82533 0,2.62534c0,1.03333 0.80096,0.83882 1.56403,1.23599c0.75934,0.39523 1.23734,0.96333 2.13599,0.964c0.89999,0.00067 1.79999,0 2.70001,0c0.89999,0 1.79999,0 2.69983,0c0.92551,0 1.70151,0 2.60016,0c0.89999,0 1.79999,0 2.70001,0c0.89999,0 1.79999,0 2.69998,0c0.89999,0 1.70001,0 2.73334,0c0.77734,0 1.66666,0 2.56668,0c0.89999,0 2.08206,0.32703 2.54282,-0.35716c0.52762,-0.78348 0.05716,-1.84283 0.05716,-2.74284c0,-0.89999 0,-1.7 0,-2.59999c0,-0.90001 0,-1.8 0,-2.68933c0,-0.89601 0,-1.81067 0,-2.71068c0,-0.89999 0,-1.7 0,-2.59999c0,-0.90001 0,-1.8 0,-2.7c0,-0.90001 0,-1.79868 0,-2.65268c0,-0.94733 0,-1.74733 0,-2.64732c0,-0.90001 0,-1.8 0,-2.7c0,-0.90001 0,-1.8 0,-2.70001c0,-0.89999 0,-1.73332 0,-2.60449c0,-0.89551 0,-1.7955 0,-2.6955c0,-0.90001 0,-1.8 0,-2.70001c0,-0.89999 0,-1.7 0,-2.59999c0,-0.90001 0,-1.77917 0,-2.65717c0,-0.94284 0,-1.84283 0,-2.74284c0,-0.89999 0,-1.7 0,-2.59999c0,-0.90001 0,-1.8 0,-2.7l0,-0.90001l0,-0.89999l0,-0.90001" id="svg_12" stroke-width="2" stroke="#000" fill="none"/>
  <path t="43068,43180,43180,43196,43212,43220,43236,43260,43268,43300,43420,43452,43477" d="m331.51135,212.09091c-1,-1 -1.79999,-1 -2.69998,-1c-0.89999,0 -1.83475,0.0529 -2.60001,-0.35266c-0.84589,-0.4483 -1.70001,-0.64734 -2.53333,-0.64734l-0.77734,0l-0.98932,0l-0.90002,0" id="svg_13" stroke-width="2" stroke="#000" fill="none"/>
  <path t="45980,46244,46268,46284,46300,46309,46332,46340,46340,46356,46365,46372,46396,46412,46428,46436,46452,46452,46460,46460,46468,46476,46484,46500,46509,46516,46516,46526,46532,46540,46548,46548,46556,46564,46572,46580,46588,46596,46604,46620,46620,46628,46636,46645,46645,46661,46669,46677,46684,46700,46700,46709,46717,46717,46733,46742,46749,46756,46765,46773,46781,46790,46790,46797,46797,46805,46813,46829,46845,46861,46869,46869,46877,46885,46901,46909,46916,46933,46957,46997,47013,47036,47060,47077,47093,47109,47140" d="m298.51135,250.09091c0,1.61067 0,2.5 0,3.39999c0,0.90001 0,1.8 0,2.70001c0,0.89999 0,1.69998 0,2.60001c0,0.89999 0,1.86398 0,2.73599c0,0.86398 0,1.76401 0,2.664c0,0.89999 0,1.65717 0,2.55267c0,0.86331 0,1.82648 0,2.74731c0,0.89551 0,1.8215 0,2.70001c0,0.89999 0,1.69998 0,2.60001c0,0.89999 0,1.82083 0,2.784c0,0.69064 0,1.75882 0,2.61581c0,0.92551 0,1.70151 0,2.60019c0,0.89999 0,1.82083 0,2.784c0,0.69064 0,1.75882 0,2.616c0,0.89999 0,1.69998 0,2.73334c0,0.77731 0,1.66666 0,2.57733c0,0.91064 0,1.76398 0,2.70398c0,0.88535 0,1.68533 0,2.58536c0,0.89999 0,1.79999 0,2.69998c0,0.89999 0,1.80002 0,2.70001c0,0.89999 0,1.65717 0,2.55267c0,0.86331 0,1.82648 0,2.74731c0,0.89551 0,1.8215 0,2.70001c0,0.89999 0,1.69998 0,2.60001c0,0.89999 0,1.79999 0,2.69998c0,0.89999 0,1.80002 0,2.69983c0,0.92551 0,1.70151 0,2.60019c0,0.89999 0,1.79999 0.01068,2.68933l0.564,0.63599l0.42084,0.67917" id="svg_14" stroke-width="2" stroke="#000" fill="none"/>
  <path t="48452,48644,48653,48653,48660,48668,48676,48684,48692,48700,48700,48708,48708,48716,48724,48732,48740,48740,48748,48756,48756,48764,48764,48773,48780,48780,48789,48796,48796,48804,48804,48812,48820,48836,48844,48844,48852,48852,48861,48869,48869,48876,48884,48893,48900,48900,48908,48924,48924,48932,48948,48948,48964,48973,48990,48996,49004,49013,49029,49036,49052,49052,49060,49060,49068,49084,49100,49116,49124,49140,49148,49156,49156,49173,49190,49206,49236" d="m303.51135,252.09091c0,1.82533 0,2.83333 0,3.6955c0,0.90451 0,1.8045 0,2.7045c0,0.89999 0,1.80002 0,2.70016c0,0.78519 0,1.72516 0,2.41583c0,1.07333 0,1.98401 0,2.89468c0,0.91064 0,1.58932 0,2.70398c0,0.88535 0,1.64252 0,2.53802c0,0.86331 0,1.84732 0,2.66864c0,0.85333 -0.05313,1.79477 0.00018,2.77884c0.04272,0.78864 0.40219,1.53326 0.71582,2.41583c0.29584,0.83255 0.284,1.784 0.284,2.68533c0,0.96533 0,1.79868 0,2.63202c0,0.86215 0,1.80264 0,2.65067c0,0.86331 0,1.88 0,2.716c0,0.89999 0,1.79999 0,2.59998c0,0.95718 0,1.85269 0,2.716c0,0.85867 0,1.80533 0,2.65866c0,0.94 0,1.82535 0,2.74133c0,0.78851 0,1.68402 0,2.58401c0,0.89999 0,1.8045 0,2.66666c0,0.83334 0,1.81183 0,2.63202c0,0.90134 0,1.84415 0,2.72217c0,0.87915 0,1.77914 0,2.67917c0,0.89999 0,1.79999 0,2.59998c0,0.90002 0,1.80002 0,2.70001l0,0.88934" id="svg_15" stroke-width="2" stroke="#000" fill="none"/>
  <path t="50108,50196,50204,50204,50212,50222,50222,50228,50228,50228,50244,50244,50252,50260,50260,50268,50268,50276,50276,50284,50284,50292,50292,50300,50308,50308,50316,50316,50324,50332,50332,50340,50340,50348,50348,50364,50364,50372,50380,50380,50388,50396,50396,50405,50405,50412,50428,50438,50438,50445,50445,50452,50460,50477,50484,50492,50500,50508,50516,50532,50540,50540,50556,50564,50564,50580,50580,50588,50597,50612,50621,50628,50652,50684,50700,50701" d="m306.51135,249.09091c0,2.62534 -0.1076,3.49803 0.05719,4.34734c0.17963,0.92572 0.85492,1.64087 0.93832,2.467c0.09595,0.95016 0.00449,1.70651 0.00449,2.50299c0,0.996 0,1.836 0,2.79868c0,1.05066 0,1.70932 0,2.71735c0,0.79199 0,1.82382 0,2.57117c0,0.99548 0,1.7955 0,2.79517c0,0.75867 -0.04163,1.7511 0.01068,2.67233c0.04163,0.73328 0.36392,1.71521 0.63666,2.47083c0.32159,0.89099 0.28931,1.76608 0.43802,2.62784c0.13974,0.80975 0.46823,1.51532 0.74799,2.69598c0.18088,0.7634 0.16666,1.66669 0.16666,2.51868c0,0.92932 0,1.81467 0,2.61465c0,0.95718 0,1.85718 0,2.60452c0,0.99414 0,1.75949 0,2.83383c0,0.92831 0,1.76166 0,2.647c0,0.93997 0,1.63065 0,2.59381c0,0.92084 0,1.82083 0,2.72086c0,0.89999 0,1.79999 0,2.71597c0,0.78851 0,1.72 0,2.56802c0,0.86331 0,1.89066 0,2.83731c0,0.67868 0,1.65717 0,2.47736c0,0.90134 0,1.84415 0,2.72217c0,0.87915 0,1.77914 0,2.67917l0,0.89999l0,0.89999l0,0.79999" id="svg_16" stroke-width="2" stroke="#000" fill="none"/>
  <path t="51524,51604,51620,51620,51629,51629,51636,51636,51644,51644,51653,51653,51653,51660,51660,51670,51670,51670,51676,51676,51676,51684,51684,51692,51692,51700,51700,51708,51708,51708,51716,51724,51732,51732,51740,51740,51748,51756,51756,51764,51764,51772,51780,51780,51788,51796,51796,51805,51812,51812,51820,51820,51828,51828,51837,51837,51853,51853,51876,51877,51884,51892,51892,51900,51908,51916,51924,51932,51948,51964,51972,51972,51980,51988,51996,52004,52012,52029,52036,52053,52060,52076,52092,52109,52148,52156,52252,52261,52261,52269,52269,52269,52269" d="m310.51135,249.09091c0,1.83333 0,2.71432 0,3.409c0,0.98967 -0.04871,1.93538 0.00452,2.84283c0.04227,0.72079 0.36249,1.75403 0.57016,2.53351c0.27792,1.04306 0.39258,1.75635 0.42084,2.61017c0.03323,1.00394 0.00449,1.8045 0.00449,2.80466c0,0.82068 0,1.48517 0,2.48383c0,0.81601 0,1.63202 0,2.85434c0,0.79999 0,1.7135 0,2.431c0,1.0405 0,1.81601 0,2.86401c0,0.70499 0,1.67999 0,2.64581c0,0.82535 0,1.84216 0,2.52084c0,0.97849 0,1.79868 0,2.75717c0,0.89999 0,1.64734 0,2.64148c0,0.94418 0,1.84418 0,2.70151c0,0.78519 0,1.72516 0,2.73318c0,0.86215 0,1.6875 0,2.65198c0,0.72534 0,1.71451 0,2.49384c0,0.99951 0,1.90485 0,2.85684c0,0.76532 0,1.755 0,2.59332c0,1.01352 0,1.75601 0,2.68533c0,0.88535 0,1.68533 0,2.58536c0,0.89999 0,1.79999 0,2.69998c0,0.89999 0,1.89551 0,2.76666c0,0.83334 0,1.63333 0,2.53336c0,0.89999 0,1.79999 0,2.69998c0,0.89999 0,1.80002 0,2.70001c0,0.89999 0,1.84732 0,2.60449c0,0.89551 0,1.7955 0,2.6955c0,0.89999 0,1.88202 0,1.47134c0,-0.71402 0,-1.87134 0,-2.77585l0,-0.61633l0,-0.96448" id="svg_17" stroke-width="2" stroke="#000" fill="none"/>
  <path t="52868,52980,52980,52988,52988,52988,52996,53004,53004,53012,53012,53020,53028,53028,53036,53036,53044,53044,53052,53052,53060,53060,53060,53068,53076,53085,53085,53092,53092,53101,53101,53101,53108,53108,53116,53124,53124,53132,53132,53132,53140,53140,53148,53156,53157,53164,53172,53180,53180,53188,53188,53196,53204,53220,53220,53220,53228,53236,53236,53244,53252,53252,53260,53268,53276,53276,53292,53308,53318,53324,53332,53348,53356,53372,53372,53389,53396,53420,53444,53508,53540" d="m315.51135,251.09091c0,1 0,1.81433 0,2.76801c0,0.73199 0,1.46399 0,2.57065c0,0.98267 0,1.836 0,2.77734c0,0.76801 0,1.70932 0,2.71735c0,0.79199 0,1.65198 0,2.57117c0,0.99548 0,1.7955 0,2.7955c0,0.79999 0,1.79999 0,2.58932c0,0.72534 0,1.68982 0,2.62134c0,0.91083 0,1.79999 0,2.78934c0,0.79999 0,1.79999 0,2.59998c0,0.80002 0,1.7955 0,2.54285c0,0.90451 0,1.82382 0,2.67801c0,0.97916 0,1.77914 0,2.57916c0,0.99548 0,1.74283 0,2.77466c0,0.9465 0,1.76401 0,2.73068c0,0.75598 0,1.728 0,2.64731c0,0.90002 0,1.59467 0,2.61136c0,0.94498 0,1.96933 0,2.63681c0,0.93668 0,1.91251 0,2.70901c0,0.8075 0,1.79016 0,2.77417c0,0.69064 0,1.75882 0,2.616c0,0.89999 0,1.69998 0,2.60001c0,0.89999 0,1.79999 0,2.69998c0,0.89999 0,1.80002 0,2.70001c0,0.89999 0,1.69998 0,2.60001c0,0.89999 0,1.79999 0,2.68933l0,0.96783l0,0.84283" id="svg_18" stroke-width="2" stroke="#000" fill="none"/>
  <path t="55277,55396,55405,55405,55413,55421,55429,55429,55437,55437,55437,55445,55445,55460,55469,55469,55477,55477,55485,55493,55493,55501,55509,55509,55524,55533,55533,55541,55541,55549,55557,55566,55573,55573,55582,55589,55613,55613,55628,55629,55645,55661,55661,55669,55677,55693,55701,55709,55717,55733,55749,55749,55757,55766,55783,55783,55797,55805,55829,55837,55845,55853,55861,55869,55869,55877,55885,55893,55901,55917,55933,55949,55957,55957,55973,55983,55989,55997,56013,56021,56045,56093,56093,56109,56861,56877,56887,56901,56917,56925,56933,56949,56957,56973,56973,56981,56998,56998,57005,57021,57021,57038,57053,57061,57077,57093,57109,57117,57133,57133,57149,57165,57165,57181,57205,57221,57221,57229,57245,57245,57253,57269" d="m293.51135,249.09091c0,1.83333 0,2.70984 0,3.51733c0,0.96184 0,1.78717 0,2.80417c0,0.69934 0,1.6785 0,2.47849c0,0.80002 0,1.79102 0,2.62933c0,1.01733 0,1.892 0,2.74533c0,0.94135 0,1.70935 0,2.65067c0,1.00803 0,1.87018 0,2.69553c0,0.96182 0,1.76932 0,2.76581c0,0.88 0,1.71335 0,2.69183c0,0.82019 0,1.62152 0,2.62152c0,0.81067 0,1.72131 0,2.57465c0,0.93869 0,1.87802 0,2.82535c0,0.75717 0,1.65268 0,2.51599c0,0.85867 0,1.80533 0,2.65866c0,0.94 0,1.92535 0,2.82535c0,0.83334 0,1.61066 0,2.60001c0,0.81067 0,1.72131 0,2.57465c0,0.94 0,1.92535 0,2.82535c0,0.79999 0,1.70001 0,2.564c0,0.87201 0,1.836 0,2.73599c0,0.90002 0,1.80002 0,2.70001c0,0.79999 0,1.70001 0,2.60001c0,0.89999 0,1.78934 0,2.68533c0,0.91467 0,1.81467 0,2.71466c0,0.79999 0,1.70001 0,2.60001c0,0.89999 0,1.79999 0,2.69998c0,0.89868 0,1.75269 0,2.70001c0,0.79999 0,1.70001 0,2.60001c0,0.89999 0,1.79999 0,2.69998c0,0.90002 0,1.80002 0,2.70001c0,0.83334 0,1.64667 0,2.48401c0,0.86331 0,1.89066 0,2.83731c0,0.67868 0,1.65717 0,2.67868c0,0.79999 0,1.70001 0,2.60001c0,0.89999 0,1.79999 0,2.69998c0,0.90002 0,1.80002 0,2.70001c0,0.79999 0,1.63599 0,2.48401c0,0.86331 0,1.86932 0,2.80133c0,0.81482 0,1.60001 0,2.53998c0,1.00803 0,1.87018 0,2.77469l0,0.89999" id="svg_19" stroke-width="2" stroke="#000" fill="none"/>
  <path t="58485,58549,58557,58557,58565,58573,58581,58581,58589,58589,58589,58597,58597,58597,58605,58605,58613,58613,58621,58629,58629,58637,58637,58637,58646,58653,58669,58677,58677,58693,58693,58709,58709,58725,58749,58749,58901" d="m299.51135,326.09091c0,1.75717 0,2.65268 0,3.51599c0,0.96317 0,1.884 0,2.68668c0,0.76801 0,1.81168 0,2.61865c0,0.58136 0,1.77734 0,2.65784c0,0.83551 0,1.83417 0,2.67416c0,0.96268 0,1.73068 0,2.672c0,1.00803 0,1.83603 0,2.71735c0,0.70801 0,1.68933 0,2.64301c0,1.01434 0,1.91434 0,2.81433c0,0.75717 0,1.65717 0,2.40451c0,0.99414 0,1.93832 0,2.84283l0,0.91931l0,0.83334l0,0.97818" id="svg_20" stroke-width="2" stroke="#000" fill="none"/>
  <path t="59542,59605,59613,59613,59621,59621,59621,59629,59629,59637,59637,59637,59645,59645,59653,59653,59662,59662,59669,59669,59669,59678,59678,59685,59701,59717,59733,59733,59741,59741,59749,59749,59757,59765,59773,59789,59813,59829,59829,59845" d="m303.51135,319.09091c0,1.83334 0,2.71884 0,3.46616c0,0.95517 0,1.75919 0,2.58118c0,1.03116 0,1.93182 0,2.95267c0,0.79999 0,1.60001 0,2.60001c0,0.79999 0,1.79999 0,2.60001c0,1 0,1.79999 0,2.79999c0,0.79999 0,1.60001 0,2.59549c0,0.74734 0,1.75784 0,2.68985c0,0.91467 0,1.71466 0,2.52899c0,0.95367 0,1.68567 0,2.85233c0,0.79169 0,1.73334 0,2.63333c0,0.89868 0,1.72086 0,2.56134l0,0.97202l0,0.86215l0,0.90451" id="svg_21" stroke-width="2" stroke="#000" fill="none"/>
  <path t="60621,60669,60677,60677,60685,60685,60685,60693,60693,60693,60701,60701,60710,60710,60710,60717,60717,60717,60725,60725,60725,60733,60733,60733,60741,60741,60741,60749,60749,60749,60765,60773,60796,60796,60813,60813" d="m311.51135,323.09091c0,2.62534 0,3.48666 0,4.24667c0,1.17465 0,1.70599 0,2.52798c0,1.05869 0,1.98935 0,2.82401c0,1.00583 0,1.85849 0,2.82285c0,0.81448 0,1.68298 0,2.57849c0,0.89551 0,1.76401 0,2.83334c0,0.71399 0,1.61932 0,2.58817c0,0.81448 0,1.68298 0,2.57849c0,0.89551 0,1.76401 0,2.83334c0,0.7005 0,1.59467 0,2.52383c0,0.94733 0,1.80948 0,2.64282l0,0.97849l0,0.82019" id="svg_22" stroke-width="2" stroke="#000" fill="none"/>
  <path t="61772,61860,61868,61877,61877,61885,61885,61885,61893,61893,61893,61900,61900,61909,61909,61909,61917,61917,61926,61926,61933,61933,61949,61957,61957,61957,61965,61965,61973,61981,61989,62005,62021,62061,62332,62348,62364,62373,62589,62637,62645,62668,62677,62685,62700,62709,62717,62725,62741,62758,62758,62775,62775,62796,62813,62820,62836,62852,62868,62885,62900,62900,62932,62941,62957,62996,63021,63332,63348,63357,63357,63364,63374,63380,63390,63396,63404,63413,63501,63701,63717,63733,63749,63757,63757,63773,63781,63796,63813,63821,63837,63853,63853,63868,63877,63885,63893,63917,63940,63973,64004,64013,64013,64029,64037,64053,64084,64125,64140,64157,64269,64533,64549,64556,64557,64565,64572,64581,64589,64589,64597,64613,64805" d="m315.51135,321.09091c0,1.79999 0,2.63599 0,3.48666c0,0.76001 0,1.93466 0,2.73868c0,0.82199 0,1.85315 0,2.53867c0,0.83466 0,1.84048 0,2.69315c0,0.96417 0,1.76819 0,2.59018c0,1.03101 0,1.91101 0,2.93134c0,0.77399 0,1.66949 0,2.452c0,1.02667 0,1.90268 0,2.82001c0,0.74399 0,1.77866 0,2.54666c0,0.90268 0,1.90268 0,2.80267c0,0.79999 0,1.78934 0,2.68533c0,0.91467 -0.27411,1.95297 0.22134,2.59332c0.49188,0.63574 1.10403,1.60098 0.42151,2.06418c-0.69901,0.47437 -1.74268,0.05716 -2.66818,0.05716c-0.776,0 -1.67465,0 -2.57465,0c-0.90002,0 -1.80002,0 -2.7045,0c-1.01685,0 -1.69553,0 -2.67401,0c-0.82016,0 -1.85483,0 -2.63217,0c-0.88934,0 -1.78934,0 -2.68933,0c-0.89999,0 -1.79999,0 -2.70001,0c-0.79999,0 -1.69998,0 -2.59998,0c-0.96402,0 -1.836,-0.00064 -2.70001,0c-0.89865,0.00067 -1.67142,0.36038 -1.70001,1.32132c-0.0202,0.67838 0,1.79333 0,2.67868c0,0.83334 0,1.7045 0,2.60001c0,0.89999 -0.00067,1.79999 0,2.69998c0.00067,0.89868 0.28235,1.65729 1.20001,1.70001c0.89902,0.04184 1.79999,0 2.60001,0c0.89999,0 1.79999,0 2.69998,0c0.90002,0 1.80002,0 2.70001,0c0.90018,0 1.68533,0 2.61465,0c0.9425,0 1.79602,0 2.68533,0c0.90002,0 1.80002,0 2.70001,0c0.89999,0 1.79999,0 2.60001,0c0.89999,0 1.65244,-0.2366 2.284,-0.716c0.72391,-0.5495 1.61996,-0.34213 2.41599,-0.784c0.79947,-0.44382 1.71274,-0.3493 2.59985,-0.50015c0.85107,-0.14471 0.90015,-1.20117 0.90015,-1.88519c0,-0.92932 0,-1.94531 0,-2.76132c0,-0.83734 0,-1.70065 0,-2.71735l0,-0.93597l0,-0.90002" id="svg_23" stroke-width="2" stroke="#000" fill="none"/>
  <path t="65620,65756,65764,65775,65780,65796,65805,65828,65852,65852,65868,65876,65884,65900,65909,65916,65932,65948,65948,65972,65972,65988,65996,66012,66020,66037,66045,66060,66070,66076,66077,66084,66092,66109,66125,66132,66141,66148,66148,66156,66172,66180,66196,66204,66221,66244,66254,66254,66270,66284,66292,66300,66308,66340,66348,66372,66396,66404,66412,66436,66460,66460,66469,66476,66476,66493,66500,66548,66564,66564,66588,66604,66605,66620,66620,66628,66653,66668,66692,66700,66700,66716,66740,66780,66796,66812,66820,66844,66853,66853,66860,66877,66900,66908,66956,66964,66981,66996,67012,67028,67045,67053,67060,67069,67093,67100,67116,67125,67132,67148,67149,67164,67172,67190,67206,67220,67229,67244,67245,67261,67284,67301,67324,67325,67334,67349,67372,67373,67396,67420,67431,67469,67485,67496,67502,67540,67540,67550,67580,67596,67637,67646,67677,67693,67725,67725,67765,67797,67805" d="m314.51135,288.09091c-0.16666,-1.83334 -1.07477,-1.92502 -1.57465,-2.61066c-0.51572,-0.70737 -0.96021,-1.24033 -1.82535,-1.40002c-0.83136,-0.15344 -1.5874,-0.9043 -2.39999,-0.98798c-0.89526,-0.09219 -1.79999,-0.00134 -2.70001,-0.00134c-0.89999,0 -1.79547,0 -2.66931,0c-0.8515,0 -1.80933,0 -2.58334,0c-0.89999,0 -1.76334,0 -2.7265,0c-0.92084,0 -1.82083,0 -2.72083,0c-0.89984,0 -1.77631,-0.05228 -2.60135,0c-0.90408,0.05728 -1.38818,0.79532 -1.99866,1.43201c-0.60614,0.63217 -1.71042,0.46152 -2.20001,1.08884c-0.60086,0.7699 -0.72916,1.67206 -1.284,2.39648c-0.48245,0.62991 -0.71066,1.26797 -0.716,2.32101c-0.0047,0.92831 -0.56885,1.43826 -0.96399,2.19766c-0.39917,0.76709 -0.03601,1.76401 -0.03601,2.664c0,0.89999 0,1.69998 0,2.60001c0,0.89999 -0.2962,1.85455 0.01068,2.68933c0.26443,0.7193 0.98932,1.04666 0.98932,1.91064c0,0.90002 -0.22247,1.91589 0.28403,2.616c0.50177,0.69357 0.55688,1.50137 1.15866,2.18402c0.45364,0.51459 1.30826,1.1384 1.724,1.89999c0.40686,0.74533 0.78452,1.54709 1.48065,1.99551c0.66974,0.43143 1.35233,1.00482 1.99551,1.64731c0.64218,0.64151 1.43384,1.0452 2.05716,1.46701c0.84412,0.57126 0.9812,1.56116 1.89999,1.86884c0.85434,0.2861 1.6033,0.56454 2.5,0.89984c0.85062,0.31808 1.70001,0.12149 2.60001,0.12149c0.86401,0 1.82083,0 2.70001,0c0.89999,0 1.79999,0 2.69998,0c0.89999,0 1.70001,0 2.60001,0c0.89999,0 1.79999,0 2.68933,0c0.896,0 1.90854,0.15936 2.55801,-0.35266c0.61459,-0.48453 1.37506,-0.44928 2.25131,-0.64868c0.80429,-0.18304 0.54779,-1.56567 1.23734,-1.96265c0.7457,-0.42929 1.45776,-0.51001 1.84802,-1.23602c0.45947,-0.85477 0.68375,-1.70633 1.23682,-2.32083c0.64191,-0.7132 1.32434,-1.2457 1.46851,-2.07916c0.15341,-0.8869 0.01065,-1.79999 0.01065,-2.69998c0,-0.90002 0,-1.80002 0,-2.70001c0,-0.79999 0,-1.71466 0,-2.61066c0,-0.91019 0,-1.87335 0,-2.56403c0,-1.06815 0,-1.92532 0,-2.82532c0,-0.79999 0,-1.70001 0,-2.60001c0,-0.96399 0.18781,-1.94595 -0.35715,-2.6955c-0.49289,-0.67792 -1.38803,-0.91208 -1.80951,-1.7045c-0.34073,-0.64059 -0.70099,-1.70447 -1.444,-1.98935c-0.81146,-0.31113 -1.54813,-0.52878 -2.10532,-1.09467c-0.66068,-0.67102 -1.384,-0.91599 -2.28403,-0.91599c-0.79999,0 -1.71466,0 -2.57465,-0.03601l-0.50934,-0.67999" id="svg_24" stroke-width="2" stroke="#000" fill="none"/>
  <path t="69589,69741,69758,69773,69782,69790,69806,69829,69829,69845,69861,69861,69877,69877,69893,69925,69949,69973,69997,70005,70037,70053,70077,70085,70117,70133,70141,70141,70165,70181,70189,70245" d="m293.51135,193.09091c0,1.8 0,2.7 0,3.60001c0,0.79999 0,1.7 0,2.6955c0,0.87117 0,1.59117 0,2.52983c0,1.008 0,1.8 0,2.65866c0,0.86334 0,1.88 0,2.81601c0,0.89999 0,1.79984 0,2.64732c0,0.75717 0,1.65268 0,2.55267c0,0.89999 0,1.8 0,2.7c0,0.90001 0,1.8 0,2.60001c0,0.89999 0,1.8 0,2.76399l0,0.87201" id="svg_25" stroke-width="2" stroke="#000" fill="none"/>
  <path t="72214,72470,72470,72486,72494,72498,72542,72558,72574,72590,72598,72598,72615,72631,72639,72647,72654,72678,72694,72694,72718,72727,72727,72734,72753,72766,72788,72790,72790,72806,72806,72822,72822,72831,72848,72855,72862,72871,72878,72887,72894,72902,72921,72921,72926,72942,72942,72958,72958,72967,72974,72990,73006,73014,73022,73031,73031,73039,73054,73062,73071,73094,73110,73110,73121,73121,73126,73134,73151,73159,73171,73183,73190,73200,73201,73206,73222,73222,73230,73238,73247,73254,73264,73271,73278,73287,73294,73294,73304,73304,73310,73321,73321,73326,73335,73342,73350,73358,73374,73387,73387,73390,73390,73404,73406,73416,73430,73438,73447,73447,73454,73455,73455,73463,73470,73478,73478,73487,73494,73503,73510,73510,73520,73526,73526,73537,73537,73542,73543,73553,73553,73558,73558,73569,73569,73574,73575,73575,73583,73583,73583,73590,73599,73599,73607,73607,73620,73620,73622,73630,73630,73646,73646,73654,73663,73663,73670,73679,73694,73710,73710,73720,73726,73736,73736,73742,73750,73759,73770,73774,73798,73822,73846,74470,74494,74517,74541,74550,74590,74621,74653,74669,74670,74701,74725,74781,74837,74893,75085,75117,75141,75142,75157,75350,76157,76229,76437,77213,77253,77293,77333,77389,77421,77421,77429,77453,77469,77477,77486,77517,77533,77565,77565,77589,77605,77629,77661,77677,77709,77741,77757,77773,77781,77781,77797,77805,77837,77853,77862,77877,77893,77909,77917,77933,77941,77950,77957,77975,77982,77991,78006,78006,78021,78038,78047,78069,78077,78095,78110,78118,78118,78129,78141,78158,78166,78197,78206,78222,78245,78246,78261,78277,78278,78286,78301,78302,78312,78318,78318,78326,78342,78358,78358,78366,78375,78382,78397,78398,78408,78408,78414,78421,78430,78438,78438,78446,78446,78454,78469,78485,78493,78502,78517,78525,78534,78534,78549,78557,78566,78581,78613,78613,78622,78629,78630,78646,78661,78669,78669,78693,78709,78725,78741,78741,78757,78781,78789,78807,78822,78837,78845,78861,78878,78886,78893,78909,78917,78925,78941,78950,78965,78965,78973,78990,79021,79045,79053,79077,79086,79093,79093,79117,79133,79157,79166,79189,79197,79206,79214,79214,79229,79246,79262,79277,79277,79293,79302,79317,79318,79333,79333,79349,79350,79365,79381,79389,79406,79413,79423,79437,79453,79461,79485,79517,79549,79565,79565" d="m293.51135,195.09091c0,-1 0,-1.8 0,-2.7c0,-0.90001 0,-1.864 0,-2.73601c0,-0.864 0,-1.76399 0,-2.664c0,-0.89999 0,-1.7 0,-2.59999c0,-0.90001 0,-1.8 0,-2.7c0,-0.89551 0,-1.8215 0,-2.70018c0,-0.78516 0,-1.72516 0,-2.73315c0,-0.75601 0,-1.66667 0,-2.56667c0,-0.90001 0,-1.8 0,-2.70018c0,-0.78516 0,-1.73582 0,-2.50116c0,-0.99417 0,-1.7415 0,-2.76266c0,-0.936 0,-1.836 0,-2.73601c0,-0.89999 0,-1.81599 0,-2.60449c0,-0.89551 0,-1.81633 0,-2.7795c0,-0.69067 0,-1.76334 0,-2.68268c0,-0.66933 0,-1.83333 0,-2.612c0,-0.888 0,-1.74216 0,-2.62132c0,-0.90001 0,-1.8 0,-2.70001c0,-0.89999 0,-1.7 0,-2.59999c0,-0.90001 0,-1.8 0,-2.68933c0,-0.97234 0,-1.77734 0,-2.61067c0,-0.9785 0,-1.79866 0,-2.7c0,-0.90001 0,-1.8 0,-2.7c0,-0.90001 0,-1.8 0,-2.70001c0,-0.89999 0,-1.7 0,-2.65717c0,-0.89549 0,-1.59016 0,-2.60683c0,-0.936 0,-1.83601 0,-2.736c0,-0.9 0,-1.816 0,-2.6045c0,-0.9315 0,-1.78084 0,-2.7c0,-0.99416 0,-1.7595 0,-2.71017c0,-0.88533 0,-1.64249 0,-2.5335c0,-1.01849 0,-1.87267 0,-2.75183c0,-0.9 0,-1.80133 0,-2.76666c0,-0.83334 0,-1.66667 0,-2.52884c0,-0.9045 0,-1.8045 0,-2.69383c0,-0.96783 0,-1.812 0,-2.77733c0,-0.66933 0,-1.83334 0,-2.62267c0,-0.72533 0,-1.68983 0,-2.62133c0,-0.9105 0,-1.728 0,-2.672c0,-0.804 0,-1.74267 0,-2.75067c0,-0.756 0,-1.6875 0,-2.652c0,-0.72533 0,-1.7145 0,-2.49383c0,-0.9995 0,-1.77351 0,-2.678c0,-0.94417 0,-1.94283 0,-2.74284c0,-1.00134 0,-1.62083 0,-2.76666c0,-0.786 0,-1.608 0,-2.66667c0,-0.705 0,-1.505 0,-2.54133c0,-0.94684 0,-1.83601 0,-2.82517c0,-0.77933 0,-1.6335 0,-2.49567c0,-0.9405 0,-1.78716 0,-2.59467c0,-1.04317 0,-1.89516 0,-2.8245c0,-0.88533 0,-1.68533 0,-2.58533c0,-0.9 0,-1.82084 0,-2.784c0,-0.69067 0,-1.75883 0,-2.616c0,-0.9 0,-1.7 0,-2.6c0,-0.9 0,-1.8 0,-2.7c0,-0.9 0,-1.8 0,-2.7c0,-0.9 -0.00253,-1.85725 0.70453,-1.9c0.89386,-0.05404 1.79547,0 2.6955,0c0.89999,0 1.79999,0 2.69998,0c0.89999,0 1.70001,0 2.60001,0c0.94284,0 1.82083,0 2.70001,0c0.89999,0 1.79999,0 2.69998,0c0.89999,0 1.70001,0 2.60001,0c0.89999,0 1.79999,0 2.77917,0c0.87799,0 2.06818,-0.26495 2.46365,0.35717c0.50674,0.79713 0.05716,1.84283 0.05716,2.74283c0,0.9 0,1.7 0,2.6c0,0.9 0,1.8 0,2.7c0,0.8955 0,1.8215 0,2.7c0,0.9 0,1.7 0,2.6c0,0.9 0,1.8 0,2.7c0,0.9 -0.01065,1.80007 0,2.69983c0.01044,0.87952 0.91626,1.05447 1,1.90017c0.07883,0.79611 0,1.7 0,2.6c0,0.9 0,1.8 0,2.7c0,0.9 0,1.79984 0,2.72533c0,0.776 0,1.67467 0,2.57467c0,0.9 0,1.8 0,2.7c0,0.9 0,1.8 0,2.7c0,0.8 0,1.7 0,2.6c0,0.9 0,1.8 0,2.7c0,0.9 0,1.8 0,2.7c0,0.8 0,1.7 0,2.6c0,0.9 0,1.87917 0,2.75716c0,0.84283 0,1.74284 0,2.64284c0,0.8 0,1.75716 0,2.65266c0,0.86333 0,1.722 0,2.66867c0,0.85333 0,1.79333 0,2.67867c0,0.8 0,1.7 0,2.636c0,0.848 0,1.71133 0,2.728c0,0.836 0,1.736 0,2.636c0,0.88533 0,1.82533 0,2.516c0,1.07333 0,1.884 0,2.7885c0,1.01684 0,1.6955 0,2.674c0,0.82017 0,1.7215 0,2.6215c0,0.9 0,1.8 0,2.7c0,0.9 0,1.8 0,2.7c0,0.8 0,1.7 0,2.60001c0,0.89999 0,1.87917 0,2.73332c0,0.85201 0,1.78134 0,2.66667c0,0.8 0,1.7 0,2.636c0,0.84799 0,1.71133 0,2.728c0,0.836 0,1.73601 0,2.636c0,0.8 0,1.7 0,2.60001c0,0.89999 0,1.79999 0,2.7c0,0.89999 0,1.8 0,2.7c0,0.94733 0,1.7045 0,2.60001c0,0.89999 0,1.79999 0,2.7c0,0.89999 0,1.8 0,2.7c0,0.8 0,1.7 0,2.64284c0,0.87799 0,1.75716 0,2.65717c0,0.89999 0,1.8 0,2.7c0,0.8 0,1.7 0,2.60001c0,0.89999 0,1.87917 0,2.75716c0,0.84283 0,1.74284 0,2.64284c0,0.8 0,1.7 0,2.60001c0,0.92082 0,1.88266 0,2.69016c0,0.99518 0,1.80984 0,2.70984c0,0.88533 0,1.836 0,2.60133c0,0.99417 0,1.7415 0,2.76266c0,0.836 0,1.73584 0,2.66133c0,0.776 0,1.67467 0,2.57468c0,0.89999 0,1.79999 0,2.7c0,0.89999 0,1.8 0,2.7l0,0.8" id="svg_26" stroke-width="2" stroke="#000" fill="none"/>
  <path t="81405,81589,81589,81597,81605,81613,81629,81645,81645,81661,81661,81678,81687,81701,81717,81749,81773,81783,81805,81805,81813,81829,81840,81869,81869,81877,81886,81901,81911,81927,81965,81965,82045,82101,82157,82205,82269,82325,82805,82829,82853,82877,82877,82893,82909,82919,82925,82957,82965,82981,83005,83005,83021,83061,83085,83117,83125,83149,83237,83246,83246,83261,83285,83294,83309,83333,83349,83373,83389,83413,83469,83479,83502,83525,83557,83581,83621,83645,83653,83677,83677,83685,84037,84269,84293,84309,84333,84357,84381,84405,84413,84429,84445,84453,84461,84461,84477,84485,84502,84517,84533,84541,84557,84567,84573,84581,84605,84621,84629,84661,84677,84693,84693,84725,84733,84773,84782,84829,84877,84877,84893,84901,84965,84997,84997,85021,85053,85141" d="m293.51135,40.09091c0,-1 0,-1.8 0,-2.7c0,-0.9 0.00006,-1.8 0,-2.71067c-0.00009,-0.91067 0.13055,-1.82474 -0.284,-2.70267c-0.31567,-0.66854 -0.35733,-1.48559 -0.73682,-2.36583c-0.30795,-0.71428 -1.03452,-1.22383 -1.47919,-2.02083c-0.4455,-0.7985 -0.34647,-1.74846 -0.66666,-2.5c-0.33282,-0.78119 -0.82068,-1.49985 -0.83334,-2.4c-0.01266,-0.89992 -0.19287,-1.9118 -0.80133,-2.31467c-0.82144,-0.54387 -1.17081,-1.0871 -1.19867,-1.98533c-0.0293,-0.94411 -0.91626,-1.4543 -1,-2.3c-0.07883,-0.79611 0,-1.7 0,-2.6c0,-0.9 0,-1.78933 0,-2.68533c0,-0.91467 -0.39172,-2.09374 0.28534,-2.62933c0.64243,-0.50819 1.71466,-0.08533 2.51468,-0.08533c0.89999,0 1.79999,0 2.69998,0c0.88934,0 1.85718,0 2.70001,0c0.89999,0 1.79999,0 2.60001,0c0.89999,0 1.79999,0 2.69998,0c0.90002,0 1.80002,0 2.69867,0c0.96802,0 1.80133,0 2.60135,0c0.89999,0 1.90256,0.39823 2.76401,-0.036c0.69885,-0.35228 1.23734,-0.96333 2.13599,-0.964c0.89999,-0.00067 1.86707,0.10813 2.59549,-0.35267c0.77225,-0.48851 1.50586,-0.64733 2.40451,-0.64733c0.89999,0 1.79999,0 2.70001,0c0.89999,0 1.79999,0 2.69998,0c0.89999,0 1.70001,0 2.61469,0c0.896,0 1.99808,-0.11849 2.27466,0.61067c0.31543,0.83159 0.01065,1.78933 0.01065,2.68933c0,0.89867 -0.19867,1.6977 -0.64731,2.4045c-0.46191,0.72772 -0.21997,1.70601 -0.35718,2.5955c-0.14368,0.93139 -0.84732,1.46861 -0.991,2.4c-0.13724,0.88949 -0.00452,1.8 -0.00452,2.68933c0,0.96783 0.27411,1.8811 -0.08533,2.69467c-0.33832,0.76576 -1.04395,1.27618 -1.56198,1.96867c-0.49539,0.66221 -0.34229,1.64739 -0.35269,2.54733c-0.01041,0.90018 -0.50049,1.61881 -0.83331,2.4c-0.32019,0.75154 -0.27167,1.63885 -0.814,2.05717c-0.73947,0.57038 -1.30997,1.22482 -1.35269,2.04283c-0.04697,0.89878 0.02725,1.70041 0,2.6c-0.02859,0.94413 -0.91626,1.45429 -1,2.3c-0.07883,0.7961 0,1.7 -0.03598,2.564l-0.67999,0.43467" id="svg_27" stroke-width="2" stroke="#000" fill="none"/>
  <path t="87550,87589,87605,87614,87630,87653,87669,87677,87693,87702,87709,87725,87741,87757,87757,87773,87789,87797,87813,87813,87829,87837,87869,87885,87893,87901,87917,87925,87925,87949,87965,87973,88005,88021,88029,88047,88063,88063,88069,88085,88109,88125,88149,88181,88197,88213,88213,88229,88237,88261,88277,88301,88301,88309,88318,88333,88357,88366,88373,88389,88405,88421,88421,88437,88437,88437,88446,88462,88479,88493,88501,88509,88517,88517,88525,88541,88549,88549,88565,88581,88581,88605,88621,88621,88637,88653,88653,88669,88679,88685,88709,88709,88717,88734,88742,88750,88766,88774,88782,88790,88798,88814,88830,88838,88854,88870,88886,88894,88910,88910,88926,88942,88950,88966,88966,88984,88984,88990,88990,89001,89016,89022,89030,89046,89054,89063,89063,89070,89070,89079,89096,89102,89110,89119,89126,89142,89142,89150,89168,89184,89198,89199,89214,89231,89246,89246,89262,89270,89279,89296,89296,89302,89310,89319,89319,89334,89358,89366,89374,89390,89406,89406,89422,89438,89438,89454,89454,89470,89486,89495,89502,89510,89510,89518,89526,89534,89550,89566,89582,89582,89598,89606,89606,89614,89630,89646,89654,89662,89679,89686,89686,89695,89712,89718,89726,89734,89750,89758,89766,89766,89782,89798,89806,89814,89822,89838,89846,89854,89854,89862,89870,89886,89902,89926,89942,89958,89958,89966,89974,89990,90006,90006,90022,90022,90030,90062,90070,90086,90110,90126,90158" d="m298.51135,41.09091c0,1.8 0,2.7 0,3.6c0,0.9 0,1.8 0,2.7c0,0.9 0,1.8 0,2.7c0,0.83333 0,1.61066 0,2.52083c0,0.96317 0,1.65384 0,2.722c0,0.95717 0,1.85717 0,2.75717c0,0.8 0,1.7 0,2.564c0,0.872 0,1.836 0,2.736c0,0.9 0,1.8 0,2.7c0,0.8 0,1.7 0,2.6c0,0.87917 0,1.75716 0,2.7c0,0.9 0,1.8 0,2.7c0,0.8 0,1.7 0,2.6c0,0.9 0,1.8 0,2.6955c0,0.87116 0,1.8045 0,2.7045c0,0.8 0,1.7 0,2.6c0,0.9 0,1.7045 0,2.72134c0,0.67867 0,1.65717 0,2.67867c0,0.83334 0,1.61066 0,2.6c0,0.9 0,1.8 0,2.60133c0,0.96533 0,1.8195 0,2.79867c0,0.78933 0,1.51466 0,2.55333c0,0.88267 0,1.84667 0,2.74667c0,0.9 0,1.8 0,2.7c0,0.8 0,1.7 0,2.52084c0,0.96183 0,1.76933 0,2.7645c0,0.81483 0,1.6 0,2.54c0,1.008 0,1.87016 0,2.6955c0,0.96317 0,1.65383 0,2.722c0,0.95583 0,1.80983 0,2.75716c0,0.8 0,1.7 0,2.6c0,0.9 0,1.8 0,2.7c0,0.9 0,1.80001 0,2.7c0,0.83333 0,1.61067 0,2.60001c0,0.89999 0,1.79999 0,2.7c0,0.89999 0,1.8 0,2.7c0,0.8 0,1.7 0,2.60001c0,0.81065 0,1.7215 0,2.61066c0,0.98917 0,1.76851 0,2.76784c0,0.82016 0,1.7215 0,2.62151c0,0.89999 0,1.78932 0,2.68533c0,0.91466 0,1.71466 0,2.59999c0,0.94 0,1.63068 0,2.70399c0,0.91068 0,1.81067 0,2.71068c0,0.89867 0,1.75267 0,2.7c0,0.8 0,1.7 0,2.60001c0,0.81065 0,1.72133 0,2.57466c0,0.94 0,1.92534 0,2.82533c0,0.8 0,1.7 0,2.60001c0,0.81065 0,1.72133 0,2.57466c0,0.94 0,1.92534 0,2.82533c0,0.8 0,1.64284 0,2.52083c0,0.97917 0,1.87917 0,2.77917c0,0.80016 0,1.58533 0,2.52533c0,1.008 0,1.8 0,2.65733c0,0.948 0,1.8745 0,2.81734c0,0.89999 0,1.8 0,2.7c0,0.8 0,1.7 0,2.60001c0,0.89999 0,1.79999 0,2.7c0,0.80016 0,1.58533 0,2.52533c0,1.008 0,1.87016 0,2.77467c0,0.89999 0,1.79999 0,2.7c0,0.89999 0,1.8 0,2.7c0,0.8 0,1.7 0,2.60001c0,0.89999 0,1.79999 0,2.7c0,0.89999 0,1.8 0,2.7c0,0.8 0,1.7 0,2.60001c0,0.89999 0,1.79999 0,2.7c0,0.89999 0,1.8 0,2.7c0,0.8 0,1.7 0,2.60001c0,0.89999 0.00009,1.78932 0,2.68533c-0.00009,0.81467 -0.2421,1.66844 -0.64731,2.41466c-0.4133,0.76112 -0.35269,1.7 -0.35269,2.60451c0,0.86217 0,1.6955 0,2.674c0,0.82016 0,1.73616 0,2.63217c0,0.88933 0,1.78932 0,2.68933l0,0.89999l0,0.90001" id="svg_28" stroke-width="2" stroke="#000" fill="none"/>
  <path t="91230,91293,91294,91302,91310,91318,91326,91343,91350,91350,91359,91359,91366,91374,91374,91382,91382,91390,91390,91398,91398,91406,91414,91422,91430,91438,91446,91454,91454,91462,91462,91470,91470,91478,91486,91494,91494,91502,91502,91510,91518,91526,91543,91550,91574,91590,91590,91598,91598,91606,91615,91622,91630,91638,91646,91646,91654,91662,91670,91670,91670,91678,91686,91694,91694,91702,91702,91710,91734,91743,91759,91766,91766,91774,91774,91782,91798,91798,91806,91830,91846,91854,91862,91862,91870,91886,91886,91894,91902,91902,91926,91934,91934,91942,91959,91966,91976,91982,91999,92014,92014,92030,92030,92038,92047,92054,92062,92062,92078,92078,92086,92086,92094,92110,92110,92118,92126,92126,92142,92150,92150,92159,92176,92182,92190,92206,92206,92222,92222,92230,92230,92238,92238,92246,92254,92254,92262,92270,92278,92286,92286,92302,92318,92318,92334,92334,92342,92366,92375,92390,92406,92414,92422,92422,92438,92446,92453,92470,92470,92478,92486,92502,92502,92518,92518,92526,92534,92542,92558,92566,92575,92575,92582,92592,92598,92614,92630,92630,92638,92646,92654,92662,92670,92685,92694,92702,92718,92726,92726,92734,92734,92750,92758,92775,92798,92805,92822,92846,92846,92862,92870,92886,92894,92910,92926,92934,92949,92950,92958,92974,92991,93008,93008,93014,93022,93046,93046,93054,93070,93086,93094,93102,93102,93112,93118,93129,93134,93146,93166,93182,93198,93207" d="m302.51135,41.09091c0,1 0,1.8 0,2.7c0,0.9 0,1.8 0,2.7c0,0.9045 0,1.76667 0,2.6c0,0.9785 0,1.79866 0,2.75716c0,0.9 0,1.64734 0,2.64283c0,0.8 0,1.79984 0,2.57917c0,0.99934 0,1.8195 0,2.72084c0,0.9 0,1.8 0,2.7c0,0.9 0,1.8 0,2.70034c0,0.714 0,1.66766 0,2.64899c0,0.91734 0,1.70901 0,2.65067c0,0.9045 0,1.76666 0,2.6c0,0.9785 0,1.79867 0,2.7c0,0.9 0,1.8 0,2.7c0,0.8955 0,1.82166 0,2.76666c0,0.83334 0,1.66667 0,2.52883c0,0.9045 0,1.8045 0,2.70451c0,0.89999 0,1.80133 0,2.76666c0,0.8125 0,1.7235 0,2.516c0,0.86 0,1.81734 0,2.54934c0,1.09599 0,1.96933 0,2.93466c0,0.83334 0,1.66667 0,2.52883c0,0.94733 0,1.82534 0,2.70451c0,0.9045 0,1.76666 0,2.6c0,0.9785 0,1.79867 0,2.75716c0,0.8955 0,1.59017 0,2.70117c0,0.89883 0,1.74166 0,2.64166c0,0.9 0,1.7 0,2.65717c0,0.8955 0,1.59017 0,2.6175c0,0.9465 0,1.764 0,2.792c0,0.83334 0,1.63333 0,2.53333c0,0.9 0,1.8 0,2.7c0,0.89999 0,1.80134 0,2.76667c0,0.83333 -0.18549,1.69954 0.05719,2.52882c0.25793,0.88135 0.91422,1.60315 0.94281,2.50584c0.03055,0.96484 0,1.62399 0,2.63199c0,0.79201 0,1.81934 0,2.51401c0,1.006 0,1.98599 0,2.67349c0,1.09384 0,1.97917 0,2.77917c0,0.836 0,1.85266 0,2.54733c0,1.01666 0,1.95267 0,2.85133c0,0.88533 0,1.80133 0,2.5585c0,0.89999 0,1.64732 0,2.64282c0,0.8 0,1.79984 0,2.76401c0,0.95067 0,1.836 0,2.636c0,0.89999 0,1.8 0,2.72083c0,0.96317 0,1.65384 0,2.59517c0,1.05067 0,1.70934 0,2.71733c0,0.86217 0,1.73067 0,2.6875c0,0.87917 0,1.77917 0,2.67917c0,0.90001 0,1.8 0,2.60001c0,0.89999 0,1.8 0,2.67917c0,0.96365 0,1.70616 0,2.6355c0,0.98534 0,1.88533 0,2.6425c0,0.89549 0,1.75883 0,2.722c0,0.92082 0,1.82083 0,2.72083c0,0.90001 0,1.8 0,2.60001c0,0.89999 0,1.8 0,2.7c0,0.91066 0,1.82133 0,2.67467c0,0.93866 0,1.8 0,2.62666c0,0.89867 0,1.79868 0,2.69867c0,0.89999 0,1.8 0,2.70134c0,0.96533 0,1.62399 0,2.63199c0,0.88 0,1.77734 0,2.66667c0,0.89999 0,1.8 0,2.7c0,0.90001 0,1.8 0,2.60001c0,0.89999 0,1.8 0,2.7c0,0.88933 0,1.78534 0,2.7c0,0.90001 0,1.8 0,2.60001c0,0.89999 0,1.8 0,2.72083c0,0.96317 0,1.65384 0,2.7175c0,0.84567 0,1.76167 0,2.56168c0,0.89999 0,1.8 0,2.7c0,0.91066 0,1.82133 0,2.67467c0,0.94 0,1.82533 0,2.70399c0,0.82584 0,1.72134 0,2.62134l0,0.89999l0,0.90001l0,0.89999" id="svg_29" stroke-width="2" stroke="#000" fill="none"/>
  <path t="94862,95005,95014,95022,95030,95030,95039,95039,95046,95056,95056,95062,95070,95078,95086,95086,95094,95094,95102,95102,95110,95118,95118,95126,95134,95142,95142,95168,95168,95169,95169,95182,95192,95192,95198,95208,95208,95213,95213,95222,95232,95242,95242,95246,95255,95255,95262,95262,95270,95278,95278,95278,95286,95294,95294,95302,95302,95310,95318,95318,95326,95334,95334,95342,95342,95349,95349,95365,95365,95365,95374,95374,95382,95382,95382,95390,95398,95398,95414,95422,95422,95430,95430,95430,95439,95446,95454,95455,95461,95471,95471,95478,95478,95485,95486,95494,95501,95501,95510,95510,95518,95526,95534,95542,95542,95550,95558,95558,95566,95574,95574,95582,95590,95598,95598,95606,95606,95614,95614,95622,95622,95630,95630,95638,95646,95646,95655,95655,95662,95662,95671,95678,95686,95686,95694,95694,95702,95710,95710,95717,95726,95734,95734,95742,95742,95749,95749,95758,95766,95766,95774,95774,95781,95781,95790,95798,95813,95822,95829,95838,95838,95846,95846,95854,95862,95862,95862,95871,95878,95885,95886,95894,95894,95902,95902,95910,95918,95918,95926,95926,95934,95942,95949,95958,95965,95973,95974,95981,95982,95989,95997,96005,96013,96021,96022,96029,96038,96038,96054,96061,96061,96077,96087,96093,96094,96101,96102,96111,96117,96126,96141,96157,96158,96165,96181,96189,96190,96197,96213,96221,96229,96261,96301,96310,96317,96341,96350,96375,96375,96405,96429,96469,96493" d="m308.51135,41.09091c0,1.8 0,2.7 0,3.52083c0,0.9645 0,1.68983 0,2.679c0,0.77933 0,1.77867 0,2.80017c0,0.8 0,1.7 0,2.6c0,0.81067 0,1.7215 0,2.61067c0,0.98917 0,1.7685 0,2.76783c0,0.82016 0,1.6575 0,2.5055c0,0.86333 0,1.88 0,2.71733c0,0.96533 0,1.79867 0,2.77734c0,0.77399 0,1.674 0,2.53733c0,0.94234 0,1.92683 0,2.66933c0,0.92933 0,1.81467 0,2.7c0,0.94 0,1.63067 0,2.704c0,0.82133 0,1.732 0,2.58533c0,0.93999 0,1.82533 0,2.71066c0,0.94 0,1.63067 0,2.63551c0,1.02183 0,1.72983 0,2.47383c0,1.191 0,2.00533 0,2.89066c0,0.94 0,1.63067 0,2.61467c0,0.984 0,1.67467 0,2.74733c0,0.91933 0,1.75267 0,2.73134c0,0.77399 0,1.66949 0,2.452c0,1.06934 0,1.86667 0,2.62567c0,1.02216 0,1.92283 0,2.94366c0,0.78933 0,1.51466 0,2.5c0,0.984 0,1.67467 0,2.74733c0,0.91933 0,1.77351 0,2.75267c0,0.78933 0,1.51466 0,2.58933c0,0.82133 0,1.732 0,2.58533c0,0.93999 0,1.82533 0,2.71066c0,0.95067 0,1.716 0,2.71017c0,0.74734 0,1.77917 0,2.72601c0,0.69933 0,1.6785 0,2.45717c0,1.052 0,1.832 0,2.74216c0,0.96317 0,1.65384 0,2.722c0,0.85733 0,1.6425 0,2.5825c0,1.008 0,1.87016 0,2.67467c0,0.91066 0,1.82133 0,2.67467c0,0.94133 0,1.70934 0,2.66133c0,0.76534 0,1.76401 0,2.564c0,0.99867 0,1.94284 0,2.84283c0,0.85733 0,1.6425 0,2.59317c0,0.76534 0,1.75951 0,2.67867c0,0.96451 0,1.78984 0,2.80667c0,0.67867 0,1.65717 0,2.47733c0,0.95851 0,1.854 0,2.71735c0,0.96317 0,1.7885 0,2.8055c0,0.69933 0,1.6785 0,2.46783c0,1.04399 0,1.90616 0,2.73149c0,0.96451 0,1.68983 0,2.679c0,0.77934 0,1.77867 0,2.59883c0,0.90134 0,1.84418 0,2.72217c0,0.87917 0,1.78368 0,2.80051c0,0.67867 0,1.65717 0,2.47733c0,0.87334 0,1.96935 0,2.70134c0,0.73199 0,1.828 0,2.8c0,0.80016 0,1.58533 0,2.536c0,0.76534 -0.12689,1.7807 0.08536,2.67867c0.21271,0.89996 0.81168,1.64334 0.89383,2.48534c0.09503,0.97409 0.02081,1.79866 0.02081,2.7c0,0.90001 0,1.8 0,2.7c0,0.90451 0,1.76668 0,2.60001c0,0.9785 0,1.79866 0,2.7c0,0.90001 0,1.8 0,2.71066c0,0.91068 0,1.58934 0,2.70401c0,0.88533 0,1.68533 0,2.52133c0,1.01666 0,1.71133 0,2.728c0,0.94051 0,1.80267 0,2.636c0,0.9785 0,1.79866 0,2.7c0,0.90001 0,1.8 0,2.71066c0,0.91051 0,1.72801 0,2.64c0,0.81067 0,1.78267 0,2.64484c0,0.90451 -0.00226,1.8045 0,2.7045c0.00226,0.89552 0.67056,1.40686 0.97919,2.12083c0.34894,0.80722 0.02081,1.77467 0.02081,2.70067c0,0.87851 0,1.7785 0,2.57851c0,0.89999 0,1.8 0,2.7l0,0.89999" id="svg_30" stroke-width="2" stroke="#000" fill="none"/>
  <path t="98798,98909,98957,99069,99197,99373,99389,99413,99429,99461,99477,99501,99517,99557,99557" d="m288.51135,18.09091c-1.69998,0 -2.60004,-0.00957 -3.5,0c-0.97931,0.01042 -1.84494,0.69139 -1.47916,1.47917c0.32843,0.70733 1.47916,0.52083 2.37918,0.52083c0.89999,0 1.79999,0 2.69998,0l0.89999,0l0.80002,0" id="svg_31" stroke-width="2" stroke="#000" fill="none"/>
  <path t="100070,100213,100222,100238,100253,100277,100525,100541,100557,100581,100613,100629,100669,100757,100845" d="m290.51135,23.09091c-1.69998,0.05717 -2.52359,0.46042 -3.29547,0.94733c-0.70242,0.44311 -1.39999,0.69785 -2.18369,1.0735c-0.70325,0.33709 -0.82559,1.53692 -0.51016,2.3685c0.27658,0.72916 1.38934,0.61067 2.28934,0.61067l0.89999,0l0.89999,0" id="svg_32" stroke-width="2" stroke="#000" fill="none"/>
  <path t="101494,101741,101789,101829,101941,102053,102365,102389" d="m284.51135,31.09091c-0.29547,0 0.60001,0 1.5,0c0.90002,0 1.80002,0 2.70001,0l0.89999,0" id="svg_33" stroke-width="2" stroke="#000" fill="none"/>
  <path t="103397,103533,103542,103589,103765,103797,103829,103845" d="m323.51135,11.09091c0.70453,0.64733 1.59995,0.99467 2.5,1c0.89999,0.00533 1.80002,0 2.70001,0l0.89984,0.00017" id="svg_34" stroke-width="2" stroke="#000" fill="none"/>
  <path t="104478,104557,104573,104605,104629,104661,104677,104709,104797" d="m320.51135,19.09091c1.80002,0 2.74451,-0.38874 3.57468,0.036c0.69086,0.35346 1.22668,0.96267 2.12534,0.964l0.89999,0l0.89999,0" id="svg_35" stroke-width="2" stroke="#000" fill="none"/>
  <path t="105493,105581,105589,105613,105621,105629,105645,105661,105677,105709" d="m318.51135,30.09091c1.80002,0 2.38718,0.31449 3.16669,0.83333c0.70743,0.47087 1.71182,0.16667 2.53784,0.16667l0.89548,0l0.89999,0l0.90002,0" id="svg_36" stroke-width="2" stroke="#000" fill="none"/>
  <path t="106574,106646,106654,106662,106670,106678,106678,106694,106702,106710,106726,106726,106734,106750,106750,106766,106766,106776,106776,106782,106790,106806,106822,106830,106838,106854,106862,106870,106878,106942" d="m318.51135,11.09091c0,2.58933 0.00223,3.5 0,4.4c-0.00226,0.90001 -0.19308,1.72403 -0.7045,2.3c-0.65021,0.73226 -1.25278,1.49697 -1.2955,2.4c-0.04254,0.899 0,1.7 0,2.536c0,1.02117 0.02185,1.76877 -0.00131,2.76267c-0.01785,0.76591 -0.37595,1.66533 -0.71466,2.4c-0.39511,0.85698 -0.28403,1.80133 -0.28403,2.70133c0,0.9 0,1.8 0,2.7c0,0.9 0,1.8 -0.16666,2.63333l-0.74799,0.452l-0.08536,0.81467" id="svg_37" stroke-width="2" stroke="#000" fill="none"/>
  <path t="107910,107997,108006,108014,108014,108022,108022,108030,108030,108038,108038,108047,108047,108054,108054,108062,108062,108070,108070,108070,108086,108086,108102,108102,108118,108126,108158" d="m292.51135,17.09091c0,1.8 0,2.636 0,3.48533c0,0.91917 0,1.91333 0,2.67867c0,0.95333 0,1.80533 0,2.604c0,0.98133 0,1.89867 0,2.71117c0,1.00617 0,1.7315 0,2.72083c0,0.8 0,1.8 0,2.6c0,0.8 -0.00055,1.8 0,2.6c0.00067,0.99867 0.03601,1.764 0.35269,2.84283l0.48065,0.75717l0.16666,0.83333" id="svg_38" stroke-width="2" stroke="#000" fill="none"/>
  <path t="121869,122047,122061,122061,122085,122101,122109,122117,122117,122133,122149,122165,122181,122205,122221,122237,122269,122269,122277,122285,122293,122309,122317,122325,122333,122349,122357,122365,122373,122381,122390,122397,122421,122445,122445,122453,122461,122477,122493,122501,122509,122517,122541,122549,122549,122557,122573,122590,122607,122607,122613,122637,122645,122653,122653,122661,122669,122669,122677,122685,122693,122701,122701,122709,122717,122733,122741,122741,122757,122757,122765,122765,122773,122781,122790,122797,122807,122821,122830,122837,122837,122845,122853,122863,122877,122877,122885,122895,122909,122917,122933,122945,122949,122957,122965,122973,122981,122997,122997,123013,123013,123022,123046,123061,123077,123077,123085,123093,123093,123101,123112,123117,123133,123157,123165,123181,123190,123190,123213,123245,123261,123301,123341,123381,123389,123437,123437,123461,123469,123497,123517,123517,123518,123533,123557,123566,123582,123589,123614,123630,123646,123662,123670,123694,123694,123711,123718,123734,123750,123782,123806,123815,123846,123871,123886,123896,123916,123916,123918,123929,123946,123966,123979,123982,124014,124022,124030,124039,124056,124062,124062,124062,124079,124096,124102,124111,124134,124134,124145,124150,124166,124182,124182,124190,124190,124198,124208,124208,124215,124223,124230,124239,124246,124246,124256,124270,124270,124279,124286,124286,124295,124302,124311,124318,124318,124328,124334,124334,124345,124361,124361,124366,124366,124378,124382,124382,124390,124411,124411,124422,124422,124430,124439,124446,124446,124456,124462,124470,124479,124486,124502,124511,124511,124528,124528,124545,124545,124550,124561,124578,124578,124582,124606,124622,124630,124630,124639,124647,124662,124662,124672,124686,124702,124718,124734,124745,124761,124766,124778,124782,124794,124798,124814,124830,124839,124846,124862,124878,124886,124902,124918,124918,124927,124944,124950,124966,124978,124990,125011,125027,125030,125047,125062,125078,125102,125111,125142,125142,125151,125177,125177,125193,125198,125214,125227,125231,125238,125247,125255,125262,125271,125302,125318,125334,125344,125361,125366,125377,125393,125406,125427,125430,125446,125462,125471,125542,125558,125566,125577,125582,125598,125638,125670,125686,125702,125702,125718,125727,125734,125806,125830,125894,126062,126071,126071" d="m318.51135,195.09091c2.62534,0 3.48267,0 4.29019,0c0.99515,0 1.90982,0 2.80981,0c0.89999,0 1.70001,0 2.60001,0c0.89999,0 1.79999,0 2.70001,0c0.89999,0 1.79865,0 2.68399,0c0.91599,0 1.716,0 2.616,0c0.89999,0 1.79999,0 2.70001,0c0.89999,0 1.79999,0 2.69998,0c0.89999,0 1.77887,-0.01729 2.60452,0c0.86008,0.01801 1.33945,0.85425 2.09683,0.99867c0.88275,0.16832 1.83466,0.00133 2.68265,0.00133c0.86334,0 1.88,0 2.716,0c0.89984,0 1.82535,0 2.60135,0c0.89865,0 1.58582,0.31448 2.36533,0.83333c0.70743,0.47087 1.62143,0.27275 2.33331,0.66667c0.88599,0.49026 1.85007,0.36833 2.60001,0.72133c0.77554,0.36505 1.56586,0.73421 2.336,1.20401c0.68628,0.41864 1.56558,0.52415 2.36401,0.57466c0.90543,0.05728 1.39172,0.79323 2,1.43199c0.66263,0.69582 1.27893,1.29817 2.06134,1.54268c0.94565,0.29553 1.60406,0.69043 2.11331,1.41466c0.47125,0.67018 1.33249,0.96013 2.02533,1.61067c0.52634,0.49422 1.3443,1.06424 1.97919,1.5c0.81015,0.55606 1.12894,1.3775 1.87149,1.88933c0.84811,0.58458 1.70145,0.56947 2.54935,1.03601c0.73053,0.40196 1.55725,0.85666 1.59998,1.67467c0.04694,0.89877 0.1243,1.67744 0.57468,2.5c0.42728,0.78038 0.22324,1.79312 0.71066,2.59866c0.37778,0.62434 1.56824,0.84492 1.71335,1.60266c0.16904,0.88263 0.29352,1.53751 0.83466,2.19867c0.45853,0.56023 0.16666,1.60001 0.16666,2.5c0,0.89999 0,1.8 0,2.7c0,0.90016 0,1.68533 0,2.62534c0,0.69067 0,1.728 0,2.6955c0,0.88983 0,1.80051 0,2.65384c0,0.94 0,1.82533 0,2.62534c0,0.89999 0,1.8 0,2.7c0,0.88933 0,1.78534 0,2.7c0,0.90001 0,1.8 0,2.60001c0,0.89999 0,1.8 0,2.7c0,0.89999 0,1.8 0,2.69867c0,0.88533 0.02536,1.80173 0,2.60133c-0.02859,0.90135 -0.57367,1.66306 -0.94733,2.5c-0.34473,0.77217 -0.8985,1.46684 -1.04199,2.3c-0.15277,0.88699 0.24014,1.83713 -0.01517,2.6955c-0.22684,0.76263 -1.642,0.51999 -1.97467,1.22534c-0.37512,0.79538 -0.02084,1.77914 -0.02084,2.67783c0,0.88531 0,1.80133 0,2.60132c0,0.90002 -0.2002,1.6008 -0.71597,2.284c-0.46457,0.61536 -0.28403,1.74936 -0.28403,2.52667c0,0.88934 0,1.78934 0,2.68933c0,0.90002 0,1.80002 0,2.70001c0,0.79999 0,1.70001 0,2.60001c0,0.96399 0.72482,1.29138 0.98935,2.01065c0.2998,0.81519 -0.22235,1.8588 0.01517,2.68484c0.22079,0.76788 0.91418,1.26776 1.35266,2.009c0.54752,0.9256 0.9379,1.5928 1.44284,2.12616c0.68097,0.71927 1.6178,0.98645 2.116,1.76801c0.46381,0.72757 1.3634,0.88577 1.79999,1.60266c0.47141,0.77408 0.97971,1.29486 1.39383,1.96033c0.56821,0.91309 1.13947,1.39191 1.55685,2.23834c0.36478,0.73975 0.58838,1.69894 1.33331,2.16666c0.63214,0.39691 1.3829,1.07413 1.83334,1.83334c0.49011,0.82608 0.98096,1.33112 1.388,2.10001c0.40103,0.75751 0.76102,1.55032 1.06268,2.384c0.25497,0.70459 0.49173,1.68301 0.88266,2.51599c0.36078,0.76871 0.76797,1.53214 1.186,2.29999c0.45776,0.84085 1.01077,1.43365 1.79666,1.72534c0.83417,0.30963 1.24371,1.11826 1.56665,1.86002c0.38806,0.89133 0.1904,1.95786 0.32001,2.73999c0.14597,0.88083 0.57104,1.51663 1.25949,2.26932c0.61862,0.67633 0.68439,1.56781 1.40985,1.99551c0.86169,0.50803 1.31104,0.883 1.64734,1.76251c0.2695,0.70477 0.50815,1.72153 0.65182,2.64731c0.12711,0.81909 0.84732,1.46863 0.991,2.40002c0.13721,0.8895 0.00449,1.79999 0.00449,2.69998c0,0.89999 -0.04852,1.80133 0.00018,2.70016c0.04272,0.78864 0.39511,1.54156 0.64716,2.30435c0.32297,0.97748 0.34732,1.75946 0.35266,2.83832c0.00424,0.85718 0,1.75717 0,2.55716c0,0.91467 0,1.81067 0,2.72086c0,0.96317 0,1.65381 0,2.72198c0,0.85718 0,1.75717 0,2.55716c0,0.90002 0,1.80002 0,2.76401c0,0.87201 0,1.73599 0,2.63602c0,0.89999 0.32321,1.95441 -0.22131,2.67865c-0.48331,0.64285 -1.44919,0.92819 -1.75784,1.64218c-0.34894,0.80719 0.02231,1.78018 -0.02084,2.67783c-0.04272,0.8884 -0.80017,1.45819 -0.97916,2.30133c-0.18695,0.88062 0.11572,1.85663 -0.30484,2.70001c-0.32993,0.66162 -0.70309,1.50009 -0.716,2.39999c-0.0126,0.8793 -0.6568,1.42484 -0.97464,2.25067c-0.33737,0.87662 -0.74698,1.33792 -1.24667,2.02798c-0.50775,0.70123 -0.63525,1.40698 -1.13135,2.06866c-0.50116,0.66843 -0.52509,1.4184 -0.65182,2.35266c-0.11142,0.82141 -0.69888,1.40112 -1.39551,2.10001c-0.69885,0.70114 -1.15726,1.24585 -1.89999,1.89551c-0.66446,0.58118 -1.57678,0.75763 -2.22083,1.2045c-0.73495,0.50995 -1.35635,1.21664 -2.08984,1.48932c-0.81461,0.30283 -1.62119,0.46515 -2.10532,1.09467c-0.55493,0.72156 -0.85944,1.32751 -1.67334,1.89069c-0.66245,0.45837 -1.30093,0.68158 -2.08984,1.04617c-0.771,0.35632 -1.22534,1.03183 -2.02084,1.47916c-0.79547,0.44733 -1.30646,1.17136 -2.02081,1.47916c-0.89948,0.38754 -1.8685,0.02017 -2.7645,0.02084c-0.91333,0.00067 -1.56592,0.33679 -2.14001,0.97467c-0.52087,0.57874 -1.20798,0.84424 -2.07468,1.04617c-0.96097,0.22391 -1.65051,0.73184 -2.5,1.14581c-0.65225,0.31784 -1.55774,0.52722 -2.38931,0.84399c-0.71619,0.27283 -1.00351,1.03671 -1.63602,1.56403c-0.65912,0.5495 -0.75314,1.30365 0.02533,1.25867l0.63602,-0.51602" id="svg_40" stroke-width="2" stroke="#000" fill="none"/>
  <path t="127606,127828,127853,127869,127885,127909,127925,127934,127965,127981,127989,128021,128045,128061,128108,128117,128125,128149,128157,128181,128189,128196,128212,128221,128229,128245,128253,128269,128285,128301,128309,128324,128373,128404,128477,128484,128501,128565,128573,128581,128604,128645,128677,128693,128709,128749,128772,128772,128804,128884,128909" d="m295.51135,199.09091c-1.83331,0 -2.61066,0 -3.5,0c-0.89999,0 -1.88391,0.01747 -2.5,0.5c-0.64178,0.50266 -1.52081,0.49779 -2.39999,0.5c-0.89548,0.00226 -1.40652,0.67122 -2.12082,0.97917c-0.88025,0.3795 -1.69598,0.40788 -2.47919,0.85416c-0.77982,0.44434 -1.23773,0.95937 -2.09982,1.16684c-0.84012,0.20218 -1.25388,0.94594 -1.90018,1.49983c-0.61163,0.52419 -1.44009,0.90332 -1.91599,1.69867c-0.41394,0.69183 -1.06537,1.23679 -1.08401,2.10133c-0.01938,0.89845 -0.38297,1.48633 -1.19864,1.70132c-0.79764,0.21024 -0.80136,1.29868 -0.80136,2.19867c0,0.90001 0.33707,1.9489 -0.16666,2.63333c-0.48059,0.65298 -0.58911,1.39882 -1.11734,2.08267c-0.48471,0.62747 -0.71591,1.384 -0.716,2.284c-0.00009,0.89984 -0.5256,1.28525 -1,1.96667c-0.47614,0.68391 0,1.63333 -0.05716,2.53333l-0.44284,0.8l-0.44733,0.7955" id="svg_41" stroke-width="2" stroke="#000" fill="none"/>
 </g>
 <g display="none">
  <title>muse_image</title>
  <image xlink:href="http://farm3.static.flickr.com/2057/2049602630_954ddcaf12.jpg" id="muse" height="480" width="640" y="0" x="0"/>
 </g>
 <g display="none">
  <title>bbox</title>
  <rect stroke="#f00" fill="none" stroke-width="3" height="444.16" width="183.04" y="1.28" x="195.84" id="bbox"/>
 </g>
</svg>
