<svg width="640" height="480" xmlns="http://www.w3.org/2000/svg" xmlns:svg="http://www.w3.org/2000/svg" xmlns:xlink="http://www.w3.org/1999/xlink">
 <!-- Sketchy ANNOTATION
  ImageNet ID: n02676566_4605
  URL: http://static.flickr.com/33/61725814_98891ecf8c.jpg
  Image Width: 375
  Image Height: 500
  BBox X: 157
  BBox Y: 0
  BBox Width: 124
  BBox Height: 497
  Exposure: 2000ms
  Synset Label: guitar
  Synset ID: n03467517
  Worker Tag: acoustic guitar
  Sanity Check: 
   Saved
  Comment: 
   {}
  Worker ID: A1P7U2ULSAE7YL
  Assignment ID: 39LNWE0K4UWWZ2NKUT6PK90PDW8UIE
  HIT ID: 3E6L1VR4XWMP0GXZ71XZCMEWPGUF6J
  Work Time: 75s
  Worker Score: 0.7857
 END ANNOTATION -->
 <g display="inline">
  <title>Layer 1</title>
  <path t="0,135,135,143,159,167,175,183,191,207,223,232,239,247,247,263,279,295,327,351,359,383,407,415,871,879,895,903,911,919,919,935,943,951,959,959,967,975,983,983,991,991,1007,1015,1023,1023,1031,1031,1039,1039,1048,1055,1055,1063,1071,1079,1079,1087,1087,1095,1103,1103,1111,1111,1119,1127,1127,1135,1135,1143,1143,1151,1151,1159,1159,1159,1167,1183,1183,1191,1191,1200,1200,1207,1215,1215,1223,1223,1232,1239,1239,1248,1255,1255,1265,1271,1271,1279,1279,1287,1287,1296,1303,1303,1311,1311,1319,1327,1327,1335,1343,1351,1359,1359,1368,1375,1383,1383,1391,1391,1400,1407,1415,1415,1423,1431,1431,1439,1449,1449,1455,1465,1471,1471,1479,1487,1487,1496,1496,1503,1511,1519,1519,1536,1536,1543,1551,1551,1559,1568,1568,1575,1575,1584,1591,1602,1607,1617,1617,1623,1631,1631,1639,1648,1655,1664,1679,1703,1711,1727,1727,1743,1752,1759,1783,1791,1831,1879" d="m336.51135,76.09091c0,1 0.02725,1.80041 0,2.7c-0.02859,0.94413 -0.86417,0.82994 -1.64282,1.35717c-0.68301,0.46248 -0.34677,1.64289 -0.35718,2.54283c-0.01041,0.90018 -0.54318,1.60331 -0.87848,2.5c-0.31808,0.85064 -0.12152,1.7 -0.12152,2.6c0,0.864 0.20547,1.75841 0,2.68934c-0.14542,0.65883 -0.98135,1.04611 -1,1.91066c-0.01938,0.89847 -0.61172,1.43713 -0.96399,2.136c-0.4342,0.86143 -0.03601,1.864 -0.03601,2.764c0,0.9 0,1.8 0,2.6c0,0.9 0,1.8 0,2.61067c0,0.91067 0,1.764 0,2.70399c0,0.98534 0,1.88534 0,2.6425c0,0.8955 0,1.75883 0,2.722c0,0.9315 0,1.84217 0,2.52084c0,1.116 0,1.884 0,2.82533c0,0.69067 0,1.67467 0,2.65867c0,0.86333 0,1.75883 0,2.716c0,0.90017 0,1.68533 0,2.62534c0,0.69067 0,1.67467 0,2.66c0,0.72533 0,1.7145 0,2.49384c0,1.1355 0.09094,2.03325 -0.05716,2.778c-0.18475,0.92908 -0.67526,1.62828 -0.85748,2.64282c-0.14203,0.79083 -0.08536,1.8 -0.08536,2.60001c0,1 0,1.78934 0,2.51466c0,1.03867 0,1.92833 0,2.70667c0,0.9785 0,1.75784 0,2.75717c0,0.82016 0,1.77867 0,2.67867c0,0.74733 0,1.7415 0,2.50684c0,1.07883 0,1.93616 0,2.72133c0,0.94 0,1.948 0,2.70399c0,0.9315 0,1.89601 0,2.62134c0,0.98917 0,1.76851 0,2.76784c0,0.82016 0,1.77867 0,2.67867c0,0.74733 0,1.7415 0,2.50684c0,1.07883 0,1.93616 0,2.72133c0,0.92934 0,1.94534 0,2.76134c0,0.83733 0,1.70067 0,2.71733c0,0.83734 0,1.80267 0,2.636c0,0.9785 0,1.6955 0,2.60001c0,0.92082 0,1.88399 0,2.57466c0,1.06816 0,1.92549 0,2.71066c0,0.94 0,1.948 0,2.70399c0,0.91068 0,1.82133 0,2.73201c0,0.85333 0,1.79333 0,2.67867c0,0.75717 0,1.82533 0,2.51601c0,0.96317 0,1.89465 0,2.80533c0,0.85333 0,1.79466 0,2.56267c0,0.94133 0,1.94933 0,2.70532c0,0.9315 0,1.89601 0,2.62134c0,0.98917 0,1.76851 0,2.76767c0,0.93767 0.07996,1.71423 0.5,2.5425c0.40051,0.78973 0.49466,1.65379 0.5,2.59384c0.005,0.88531 0,1.68533 0,2.58533c0,0.90001 0,1.8 0,2.7c0,0.89551 0,1.8215 0,2.70001c0,0.89999 0,1.7 0,2.59999c0,0.90001 0,1.8 0,2.7l0,0.90001l0,0.89999l0,0.89984" id="svg_1" stroke-width="2" stroke="#000" fill="none"/>
  <path t="3519,3942,3959,3959,3974,3983,3991,4023,4054,4095,4111,4143,4167,4183,4191,4222,4239,4239,4255,4264,4295,4295,4326,4327,4350,4382,4398,4415,4423,4431,4447,4463,4471,4471,4479,4518,4534,4543,4551,4576,4583,4599,4615,4631,4647,4670,4671,4695,4703,4734,4743,4759,4783,4807,4807,4823,4823,4847,4855,4871,4894,4918,4935,4950,4951,4967,4983,5007,5015,5039,5047,5063,5095,5111,5134,5135,5151,5151,5160,5167,5191,5214,5271,5846,5870,5894,5902,5926,5934,5942,5950,5966,5975,5992,5999,5999,6014,6022,6030,6046,6055,6086,6094,6095,6102,6110,6126,6127,6142,6151,6151,6159,6176,6183,6193,6193,6199,6214,6222,6231,6238,6238,6254,6263,6263,6279,6279,6287,6302,6310,6311,6319,6319,6328,6328,6335,6345,6345,6351,6366,6375,6375,6383,6392,6392,6399,6399,6408,6415,6430,6438,6438,6454,6455,6462,6463,6478,6479,6486,6487,6495,6503,6510,6519,6519,6526,6535,6542,6551,6558,6566,6567,6575,6591,6599,6608,6615,6615,6622,6638,6646,6654,6655,6663,6671,6679,6687,6694,6703,6711,6719,6726,6735,6742,6743,6750,6758,6767,6782,6791,6791,6799,6799,6814,6823,6823,6830,6831,6838,6854,6870,6871,6886,6894" d="m331.51135,231.09091c0.08536,0.88667 0.46222,1.81096 0.716,2.51601c0.33334,0.92603 1.0618,1.42023 1.28268,2.2c0.24384,0.86081 -0.14078,1.797 0.01199,2.68399c0.14349,0.83315 0.87491,1.59169 0.98932,2.47867c0.1059,0.82101 0.57367,1.58438 0.94736,2.42134c0.34476,0.77216 0.53323,1.63824 1.10532,2.34283c0.50214,0.61845 0.85583,1.36971 1.00452,2.11433c0.18463,0.92474 0.72507,1.55728 0.90683,2.59616c0.14975,0.85591 -0.0527,1.75105 0.03598,2.64667c0.08374,0.8457 0.95728,1.28236 1,2.2c0.04184,0.89903 -0.0271,1.80046 0,2.59999c0.02863,0.8443 0.91626,1.35431 1,2.20001c0.08658,0.87439 0,1.7045 0,2.60001c0,0.89999 0,1.79999 0,2.69998c0,0.90002 0,1.80002 0,2.70001c0,0.79999 0,1.70001 0,2.64282c0,0.87802 0,1.75717 0,2.65717c0,0.90134 0,1.86667 0,2.70001c0,0.83334 0,1.6955 0,2.60001c0,0.89999 0,1.78934 0,2.75717c0,0.84283 0,1.74283 0,2.64282c0,0.79999 0,1.70001 0,2.60001c0,0.89999 0.00067,1.79999 0,2.69998c-0.00067,0.89868 -0.6217,1.35825 -1,1.98535c-0.47244,0.7832 -0.02774,1.87933 -0.76166,2.35748c-0.78537,0.51169 -1.90189,0.29239 -2.22934,1.06168c-0.36841,0.86551 -0.55255,1.52032 -1.23032,2.17416c-0.57849,0.55807 -0.77869,1.32135 -0.77869,2.22134c0,0.89999 -0.0173,1.77884 0,2.60449c0.01801,0.86008 0.84134,1.17413 1.47919,1.81635c0.63892,0.64328 0.27405,1.8587 0.87799,2.42648c0.66071,0.62112 1.47455,0.8255 1.63834,1.75269c0.15048,0.85175 0.82364,1.35147 1.00317,2.10132c0.21362,0.89221 0.77502,1.46872 1.22266,2.29868c0.34933,0.64764 0.51004,1.55356 0.82034,2.39999c0.30145,0.8223 1.38278,0.89578 1.84399,1.8045c0.39362,0.77554 -0.07693,1.78305 0.46701,2.58566c0.45978,0.67841 0.51077,1.46646 0.93134,2.30984c0.32993,0.66162 0.77036,1.49905 1.21597,2.29999c0.44455,0.79904 0.39301,1.70642 0.50034,2.60001c0.08591,0.71527 1.01663,1.12299 1.66635,1.89999c0.45441,0.54343 0.33331,1.65268 0.33331,2.34732c0,1.01669 -0.01077,1.95724 0,2.81934c0.01044,0.83353 0.20273,1.8237 0.61069,2.45868c0.56253,0.87555 1.07861,1.51169 1.30399,2.48932c0.1998,0.86673 0.08533,1.68533 0.08533,2.60001c0,0.827 0,1.76935 0,2.63266c0,0.90002 0,1.81934 0,2.65268c0,0.97849 -0.01804,1.79886 0,2.70001c0.01801,0.90054 0.55167,1.65509 0.83334,2.46664c0.2774,0.79922 0.16666,1.81201 0.16666,2.586c0,0.90451 0,1.65186 0,2.64734c0,0.80002 0,1.79984 0,2.57916c0,1.13419 0,1.96817 0,2.7825c0,0.89102 0,1.75433 0,2.7175c0,0.92084 0,1.82083 0,2.72086c0,0.89999 0,1.79999 0,2.59998c0,0.91467 0.00931,1.83466 -0.42532,2.60001c-0.41183,0.72522 -0.81677,1.5538 -1.22198,2.30002c-0.4133,0.76111 -0.25723,1.74451 -0.63669,2.5c-0.43558,0.86719 -0.69659,1.60019 -0.716,2.5c-0.01865,0.86453 -0.68863,1.39291 -0.97464,2.15067c-0.36288,0.96146 -0.81464,1.53156 -1.02667,2.34799c-0.20789,0.80045 -0.66049,1.39896 -1.02002,2.19067c-0.31387,0.69113 -1.64301,0.54651 -1.96967,1.31516c-0.36792,0.86572 -0.73938,1.30569 -1.52982,1.81635c-0.82983,0.53607 -1.62271,0.81186 -2.23633,1.57916c-0.48212,0.60287 -0.75278,1.44366 -1.56403,2c-0.63504,0.43549 -1.54883,0.97412 -1.67615,1.78534c-0.1441,0.91818 -0.22418,1.87183 -1.00269,2.28131l-0.59998,0.40802l-0.87918,0.42532l-0.51016,0.57468" id="svg_2" stroke-width="2" stroke="#000" fill="none"/>
  <path t="8391,8526,8542,8550,8558,8566,8574,8582,8598,8598,8606,8606,8622,8622,8639,8646,8646,8662,8678,8678,8686,8686,8694,8711,8720,8735,8744,8760,8760,8768,9119,9135,9151,9151,9168,9168,9175,9175,9184,9193,9199,9208,9215,9215,9224,9232,9239,9256,9263,9272,9279,9287,9303,9303,9311,9311,9319,9327,9335,9335,9351,9360,9375,9383,9383,9392,9407,9415,9439,9439,9447,9447,9455,9479,9479,9489,9496,9496,9503,9511,9519,9535,9535,9551,9551,9567,9576,9591,9599,9607,9623,9623,9631,9639,9647,9655,9679,9688,9704,9719,9719,9735,9735,9751,9760,9775,9799,9807,9839,9839,9847,9863,9879,9895,9905,9927,9943,9951,9983,9991,10047,10063,10087,10127,10143,10407,10423,10431,10431,10439,10447,10455,10463,10479,10488,10488,10495,10511,10527,10543,10551,10551,10567,10591,10599,10615,10615,10631,10639,10663,10663,10671,10680,10695,10704,10704,10711,10727,10735,10751,10767,10776,10792,10792,10799,10799,10808,10815,10831,10840,10847,10863,10871,10887,10895,10904,10911,10927,10943,10943,10951,10951,10959,10967,10983,10999,11007,11023,11031,11039,11039,11047,11063,11072,11095,11104,11104,11111,11120,11120,11127,11143,11144,11152,11175,11183,11192,11199,11208,11215,11224,11239,11248,11256,11263,11287,11295,11311,11320,11321,11344,11359,11359,11367,11383,11423,11439,11439,11448,11455,11479,11479,11495,11519,11551,11559,11567,11583,11599,11615,11639,11639,11655,11671,11671,11679,11695,11703,11720,11743,11767,11768,11783,11799,11823,11847,11856,11879,11895,11918,11927,11943,11959,11984,11999,12015,12031,12047,12072,12087" d="m331.51135,230.09091c1,0 1.91602,0 2.70453,0c0.89548,0 1.79547,0 2.6955,0c0.90448,0 1.76666,0 2.62082,0c0.97916,0 1.76849,0 2.8125,0c0.75601,0 1.6875,0 2.65067,0c0.69067,0 1.78406,0.08629 2.68268,-0.16667c0.68115,-0.19176 1.65518,-0.73976 2.42267,-0.82266c0.90543,-0.09781 1.81067,-0.01067 2.70615,-0.01067c0.87119,0 1.8045,0 2.7045,0c0.80002,0 1.62628,0.06723 2.08401,0.80133c0.44189,0.70874 1.23889,1.29602 1.91599,1.69867c0.8353,0.49673 1.51099,0.96875 2.19867,1.7c0.54214,0.57651 0.42175,1.49294 0.83734,2.364c0.35291,0.73969 0.91382,1.29796 0.96399,2.26933c0.04459,0.86292 0.63632,1.60487 0.94284,2.46217c0.26978,0.7545 0.85577,1.36508 1.04651,2.3045c0.17505,0.86214 0.7565,1.23859 1.39999,1.84666c0.61481,0.58098 0.60025,1.55316 0.61066,2.53183c0.00873,0.82011 -0.03616,1.78345 0.52084,2.5215c0.50223,0.66547 1.31293,0.9939 2.05383,1.536c0.58942,0.43124 0.86954,1.35631 1.52518,2.06401c0.54996,0.59363 0.89481,1.49995 0.90015,2.39999c0.00525,0.88931 -0.00006,1.83334 0,2.52084c0.00009,0.95764 0.00882,1.83255 0.57468,2.54315c0.6308,0.79214 1.24713,1.30093 1.38934,2.26132c0.14774,0.9978 -0.13132,1.78342 0.05682,2.67468c0.17889,0.84741 0.91827,1.59387 0.97916,2.5c0.05075,0.75546 0,1.64816 0,2.43066c0,1.00534 0,1.96933 0,2.86932c0,0.90002 0,1.80002 0,2.70001c0,0.79999 0,1.70001 0,2.60001c0,0.89999 0,1.78934 0,2.68533c0,0.91467 0,1.81467 0,2.71466c0,0.75717 0,1.65268 0,2.51599c0,0.96317 0,1.884 0,2.784c0,0.89868 0,1.75269 0,2.70001c0,0.79999 0,1.70001 0,2.60001c0,0.89999 0.24289,1.83481 -0.00449,2.6955c-0.2207,0.76788 -1.10938,1.09393 -1.64282,1.75717c-0.46313,0.57584 -0.3223,1.60721 -0.77802,2.38333c-0.45938,0.78238 -0.1853,1.91132 -0.79617,2.4425c-0.66913,0.58185 -1.73578,0.40347 -1.7785,1.2215c-0.04697,0.89877 -0.42865,1.85327 0.08536,2.61465c0.45078,0.66772 1.52997,0.8717 1.87866,1.67468c0.37863,0.87195 1.17944,1.19736 1.75067,1.69464c0.60855,0.52979 0.89828,1.49799 1.25998,2.31601c0.34686,0.78448 0.91458,1.59045 1.02402,2.39999c0.12082,0.8938 0.57492,1.66309 0.94867,2.5c0.34485,0.77219 0.77887,1.37912 1.44199,2.08936c0.63058,0.67542 0.83127,1.57733 1.18533,2.21066c0.48151,0.86127 0.3299,1.84451 0.70935,2.60001c0.43558,0.86719 0.71371,1.5 0.71597,2.39999c0.00223,0.89999 0,1.79999 0,2.6955c0,0.92599 0,1.8045 0,2.7045c0,0.75717 0,1.82532 0,2.51599c0,0.96317 0,1.884 0,2.784c0,0.90002 0,1.79984 0,2.72534c0,0.776 0,1.67468 0,2.57468c0,0.89999 0,1.79999 0,2.7045c0,1.01682 0,1.6955 0,2.67398c0,0.82019 0,1.72153 0,2.62152c0,0.89999 0,1.79999 0,2.69998c0,0.90002 0,1.80002 0,2.70001c0,0.79999 0,1.70001 0,2.60001c0,0.89999 0.01987,1.81088 -0.00015,2.72116c-0.01797,0.81808 -0.59357,1.53625 -0.94717,2.38416c-0.28461,0.68246 -0.90906,1.34518 -1.05267,2.29468c-0.11966,0.79099 -0.31448,1.38715 -0.83331,2.16666c-0.47089,0.70746 -0.16669,1.71201 -0.16669,2.53784c0,0.89551 -0.10474,1.6947 -0.64731,2.34818c-0.49033,0.59055 -0.81311,1.47092 -1.30002,2.24283c-0.44308,0.70242 -0.99896,1.25342 -1.478,2.10449c-0.40906,0.72678 -0.69791,1.63489 -1.22198,2.24283c-0.59061,0.68512 -1.26764,1.34457 -1.35135,2.15717c-0.09222,0.89529 0.26205,1.89648 -0.043,2.72086c-0.29813,0.8056 -1.18121,0.95261 -2.19666,1.42648c-0.74213,0.34631 -1.02075,1.27631 -1.56302,1.85266c-0.66769,0.70966 -1.3945,1.15732 -2.36533,1.20001c-0.83255,0.03662 -1.43958,0.48383 -2.11734,0.91467c-0.79443,0.50504 -1.86948,-0.09607 -2.716,0.25198c-0.67105,0.27591 -1.41074,0.79544 -2.32117,0.8335c-0.81754,0.03418 -1.53516,0.72604 -2.28949,0.98917c-0.83978,0.29294 -1.79333,-0.07382 -2.68481,0.01068c-0.88303,0.08371 -1.36288,0.80984 -2.3045,0.98932c-0.88419,0.16852 -1.80002,0.01001 -2.70001,0.01068c-0.89865,0.00067 -1.4379,0.6102 -2.13599,0.96399c-0.77136,0.39093 -1.76401,0.03601 -2.66385,0.03601c-0.92551,0 -1.70151,0 -2.60016,0c-0.89999,0 -1.80002,0 -2.70001,0l-0.89999,0l-0.89999,0" id="svg_3" stroke-width="2" stroke="#000" fill="none"/>
  <path t="14016,14095,14095,14104,14159,14175,14183,14215,14239,14247,14263,14279,14303,14335,14335,14343,14359,14367,14391,14400,14407,14416,14447,14455,14479,14543,14575,14607,14615,14639,14655,14679,14687,14695,14711,14719,14736,14743,14759,14831,14831,14895,15007,15055,15103,15127,15135,15135,15184,15414,15433,15455,15471,15511,15543,15559,15559,15575,15599,15615,15639,15655,15663,15687,15711,15719,15743,15767,15767,15775,15775,15799,15807,15847,15847,15855,15871,15895,15895,15911,15927,15959,16015,16031,16055,16231,16279,16319,16383,16415,16431,16439,16463,16479,16559,16623,16687,16719,16751,17263,17279,17303,17327,17335,17343,17343,17367,17391,17415,17431,17439,17455,17471,17479,17479,17496,17512,17519,17551,17567,17575,17591,17607,17607,17623,17623,17639,17655,17655,17671,17679,17696,17696,17703,17703,17713,17719,17727,17735,17751,17767,17783,17791,17791,17799,17808,17815,17815,17823,17831,17831,17847,17863,17879,17879,17896,17896,17903,17912,17912,17919,17935,17951,17959,17975,17975,17991,17991,17999,17999,18015,18015,18031,18031,18047,18063,18071,18071,18079,18079,18087,18095,18103,18113,18119,18129,18143,18143,18151,18159,18159,18167,18167,18175,18183,18191,18191,18199,18207,18207,18215,18215,18223,18223,18231,18239,18247,18255,18255,18263,18263,18271,18279,18279,18287,18287,18295,18303,18303,18312,18312,18312,18319,18329,18329,18335,18335,18343,18343,18351,18359,18367,18367,18375,18375,18383,18391,18391,18399,18416,18423,18431,18431,18439,18455,18463,18471,18482,18487,18495,18503,18503,18511,18519,18535,18543,18559,18567,18583,18591,18591,18600,18615,18631,18639,18663,18687,18703,18751,18751" d="m333.51135,80.09091c0,-1 -0.39304,-1.93043 0.08536,-2.71467c0.4902,-0.80361 1.48352,-0.96195 1.87866,-1.72134c0.39914,-0.76711 -0.1138,-1.77659 0.03616,-2.66383c0.14401,-0.85204 0.88266,-1.26293 0.99982,-2.19567c0.11053,-0.88005 0.44235,-1.53246 1.02536,-2.2685c0.53677,-0.67768 0.97397,-1.23733 0.97464,-2.136c0.00067,-0.89999 0.1441,-1.66845 0.64734,-2.35266c0.48999,-0.66622 0.35266,-1.64734 0.35266,-2.51133c0,-0.872 -0.00067,-1.836 0,-2.736c0.00067,-0.89867 0.56888,-1.37662 0.96402,-2.136c0.39917,-0.76711 -0.28937,-2.04364 0.39316,-2.50683c0.69901,-0.47437 2.02573,0.33755 2.5575,-0.3425c0.56506,-0.72261 0.22501,-1.52828 1.08533,-1.88133c0.67126,-0.27546 1.49982,-0.82291 2.40002,-0.83333c0.89993,-0.01041 1.79999,0 2.69998,0c0.89999,0 1.69095,0.10102 2.39999,0.5c0.87854,0.49436 1.48959,1.02065 1.5,1.9c0.01065,0.89994 0,1.8 0,2.7c0,0.9 0,1.7 0,2.6c0,0.9 0.3212,1.8392 -0.01065,2.72533c-0.26471,0.70685 -1.22812,1.02389 -1.70532,1.65867c-0.57629,0.76656 -0.7049,1.46827 -1.16251,2.13766c-0.53769,0.78656 -0.08127,1.77931 -0.12152,2.61167c-0.04272,0.88309 -0.93909,1.38137 -1,2.21933c-0.0687,0.94484 -0.09409,1.74221 -0.5,2.44733c-0.45728,0.79435 -0.8674,1.648 -1.21597,2.3c-0.45306,0.8474 -0.97018,1.62238 -1.22684,2.5c-0.25311,0.86556 0.46936,1.98702 -0.06784,2.664c-0.52667,0.66369 -1.34128,0.86314 -1.93668,1.38867c-0.63815,0.56326 -0.99631,1.39896 -1.75717,1.64283c-0.89548,0.28702 -0.87839,0.94975 -1.35266,1.64733c-0.46378,0.68214 -1.64282,0.35717 -2.54282,0.35717c-0.90002,0 -1.83716,-0.25079 -2.6955,0.0045c-0.76266,0.22684 -0.70453,1.29549 -0.70453,2.1955c0,0.9 0,1.8 0,2.6c0,0.91467 0,1.81067 0,2.7c0,0.9 0,1.8 0,2.7c0,0.9 0,1.8 0,2.6c0,0.9 0,1.8 0,2.764c0,0.872 0,1.736 0,2.636c0,0.9 0,1.8 0,2.55717c0,0.8955 0,1.75883 0,2.74284c0,0.98267 0,1.79017 0,2.7215c0,0.8785 0,1.7785 0,2.53567c0,0.8955 0,1.75883 0,2.722c0,0.92084 0,1.82083 0,2.72083c0,0.89983 0,1.82084 0,2.66134c0,0.972 0,1.728 0,2.63866c0,0.91067 0,1.82133 0,2.67467c0,0.94 0,1.82533 0,2.62534c0,0.89999 0,1.836 0,2.68533c0,0.91916 0,1.91333 0,2.67867c0,0.95067 0,1.836 0,2.636c0,0.89999 0,1.8 0,2.7c0,0.91066 0,1.8215 0,2.71066c0,0.98917 0,1.76851 0,2.62267c0,0.91934 0,1.82384 0,2.57117c0,0.99284 0,1.88116 0,2.7635c0,0.85283 0,1.81067 0,2.58467c0,0.89999 -0.00565,1.76335 0,2.7265c0.00534,0.9102 0.77481,1.45743 0.99551,2.22533c0.24738,0.86067 0.00449,1.77467 0.00449,2.73833c0,0.74251 0,1.67184 0,2.65733c0,0.78517 0,1.72517 0,2.41585c0,1.07332 0,2.00482 0,2.80533c0,0.85333 0,1.79333 0,2.77882c0,0.78517 0,1.73584 0,2.50117c0,0.99417 0,1.7415 0,2.76266c0,0.936 0,1.83734 0,2.80267c0,0.65866 0,1.66666 0,2.52882c0,0.82533 0,1.78984 0,2.51517c0,0.98917 0,1.95334 0,2.90401c0,0.88533 0,1.69966 0,2.65334c0,0.73199 0,1.46399 0,2.57066c0,0.98267 0,1.66133 0,2.77733c0,0.76801 0,1.70934 0,2.40001c0,1.07332 -0.03745,2.02173 0.22134,2.80533c0.28964,0.877 0.69193,1.65282 0.77734,2.47733c0.09894,0.95518 0.38287,1.84245 0.64865,2.54868c0.33215,0.88255 0.35266,1.85266 0.35266,2.75267c0,0.89999 0,1.7 0,2.59999c0,0.90001 0,1.8 0,2.7c0,0.90001 0,1.8 0,2.70001c0,0.89999 0,1.7 0,2.59999c0,0.864 0,1.82083 0,2.7c0,0.90001 0,1.8 0,2.70001c0,0.89999 0,1.7 0,2.59999c0,0.90001 0,1.8 0,2.68933c0,0.89601 0,1.81067 0,2.71068l0,0.89999l0,0.8" id="svg_4" stroke-width="2" stroke="#000" fill="none"/>
  <path t="21959,22038,22048,22055,22063,22071,22071,22079,22087,22103,22103,22111,22111,22119,22143,22159,22159,22175,22199,22199,22223,22255,22255,22271,22311,22503,22527,22543,22567,22567,22575,22575,22583,22599,22856,22887,22927,22960,22975,22991,23000,23095,23112,23143,23408,23431,23440,23464,23480,23496,23504,23512,23528,23528,23544,23560,23560,23568,23576,23591,23599,23615,23623,23624,23632,23656,23663,23687,23695,23703,23719,23719,23735,23751,23751,23760,23775,23784,23807,23815,23816,23831,23839,23840,23848,23856,23873,23873,23895,23895,23912,23919,23935,23944,23960,23975,23976,23991,23992,24007,24023,24024,24039,24048,24063,24064,24073,24073,24089,24089,24104,24104,24112,24119,24128,24128,24135,24144,24152,24160,24168,24168,24175,24176,24184,24192,24200,24200,24209,24216,24223,24223,24232,24242,24242,24247,24263,24273,24289,24289,24295,24296,24304,24304,24312,24320,24328,24344,24344,24351,24352,24360,24367,24376,24384,24392,24399,24407,24425,24432,24432,24442,24448,24448,24456,24464,24464,24473,24474,24480,24489,24489,24496,24496,24505,24512,24512,24519,24519,24528,24536,24544,24544,24552,24560,24560,24567,24577,24578,24584,24592,24608,24626,24626,24632,24632,24642,24642,24648,24655,24672,24680,24688,24688,24711,24727,24736,24751,24768,24783,24792,24807,24808,24831,24855,24871,24887,24904,24927,24943,24959,24960,24968,24991,25000,25047,25058,25071,25095,25111,25112,25121,25136,25151,25160,25168,25199,25215,25255,25255,25319,25335,25359,25384,25415,25431,25479,25519,25543,25567,25607,25631,25640,25671,25703,25727,25759,25823,25879" d="m331.51135,229.09091c0,1 0,1.916 0,2.7045c0,0.9315 0,1.7795 0,2.64284c0,1.01666 0,1.854 0,2.81934c0,0.83333 0,1.66666 0,2.52882c0,0.94734 0,1.84618 0,2.7885c0,0.69067 0,1.75883 0,2.61617c0,0.78517 0,1.72517 0,2.73317c0,0.756 0,1.66667 0,2.556c0,0.96783 0,1.81067 0,2.71068c0,0.89999 0,1.65717 0,2.55266c0,0.86333 0.00232,1.82649 0,2.74733c-0.00226,0.89551 -0.49677,1.27243 -1.38931,1.61066c-0.73178,0.27731 -1.22128,0.98401 -2.11069,0.98935c-0.88928,0.00534 -1.78531,0 -2.69998,0c-0.89984,0 -1.80002,-0.00449 -1.80002,-0.80133c0,-0.89868 0,-1.79868 0,-2.69867c0,-0.89999 0,-1.8 0,-2.7c0,-0.90018 0,-1.68533 0,-2.62534c0,-1.008 0,-1.76401 0,-2.67467c0,-0.89999 0,-1.8 0,-2.7c0,-0.90001 0,-1.8 0,-2.60001c0,-0.91466 0,-1.81067 0,-2.67917c0,-0.95683 0,-1.82083 0,-2.72083c0,-0.90018 0,-1.68533 0,-2.62534c0,-1.008 0,-1.76401 0,-2.67467c0,-0.89999 0,-1.7955 0,-2.7215c0,-0.87868 0,-1.66383 0,-2.60384c0,-1.008 -0.1673,-1.78342 0.02084,-2.67467c0.17889,-0.84743 0.91702,-1.59337 0.97784,-2.38533c0.07196,-0.93724 0.00131,-1.63068 0.00131,-2.70401c0,-0.91066 0,-1.81065 0,-2.71066c0,-0.89999 0,-1.80017 0,-2.58533c0,-0.94 0,-1.63068 0,-2.61467c0,-0.98267 0,-1.79016 0,-2.78534c0,-0.91466 0,-1.81483 0,-2.59999c0,-0.95067 0,-1.716 0,-2.71468c0,-0.79999 0,-1.79866 0,-2.564c0,-0.95067 0,-1.936 0,-2.836c0,-0.8 0,-1.7 0,-2.60001c0,-0.89999 0.01379,-1.81078 -0.00015,-2.72133c-0.01038,-0.67889 -0.28531,-1.62276 -0.64716,-2.37416c-0.41956,-0.87125 -0.35269,-1.82533 -0.35269,-2.62584c0,-0.85333 0,-1.79333 0,-2.77867c0,-0.89999 0,-1.7 0,-2.536c0,-1.01666 0,-1.71133 0,-2.71733c0,-0.93201 0,-1.84801 0,-2.81334c0,-0.65866 0,-1.66666 0,-2.45866c0,-1.02733 0,-1.722 0,-2.73866c0,-0.936 0,-1.836 0,-2.73618c0,-0.78516 0,-1.72516 0,-2.41583c0,-1.07333 0,-1.98399 0,-2.88399c0,-0.90001 0,-1.8 0,-2.69984c0,-0.87483 0,-1.66183 0,-2.55283c0,-0.86334 0,-1.84734 0,-2.66867c0,-0.85333 0,-1.79466 0,-2.84534c0,-0.65866 0,-1.66666 0,-2.52882c0,-0.82533 0,-1.78984 0,-2.51517c0,-0.98917 0,-1.95334 0,-2.90401c0,-0.88533 0,-1.6425 0,-2.53799c0,-0.86334 0,-1.82651 0,-2.75801c0,-0.91066 0,-1.58932 0,-2.70399c0,-0.88533 0,-1.68533 0,-2.52133c0,-1.01666 0,-1.71133 0,-2.728c0,-0.9315 0,-1.85767 0,-2.80267c0,-0.65866 0,-1.66666 0,-2.45866c0,-1.02733 0,-1.722 0,-2.73866c0,-0.936 0,-1.83601 0,-2.736c0,-0.9 0,-1.7 0,-2.60001c0,-0.89999 0,-1.8 0,-2.7c0,-0.9 0,-1.8 0,-2.7c0,-0.9 0,-1.7 0,-2.61467c0,-0.896 0,-1.78533 0,-2.68533c0,-0.9 0,-1.8 0,-2.7c0,-0.9 0,-1.7 0,-2.60001c0,-0.89999 0,-1.77916 0,-2.65717c0,-0.94283 0,-1.84283 0,-2.74283c0,-0.9 0,-1.7 0,-2.60001c0,-0.89999 0,-1.8 0,-2.7c0,-0.8955 0,-1.8215 0,-2.7c0,-0.9 0,-1.7 0,-2.60001c0,-0.89999 0,-1.8 0,-2.7c0,-0.9 0,-1.8 0,-2.7c0,-0.9 0.25449,-1.50397 1,-1.92084c0.71875,-0.40192 0.73965,-1.41827 1.00452,-2.27467c0.23608,-0.76331 1.02084,-1.27917 1.64282,-1.75716l0.51935,-0.78067l0.74933,-0.45067l0.44116,-0.65883" id="svg_5" stroke-width="2" stroke="#000" fill="none"/>
  <path t="26641,26736,26736,26752,26760,26800,26816,26824,26825,26832,26864,26872,26889,26897,26929,26936,26960,26992,27016,27024,27048,27080,27097,27120,27137,27152,27170,27201,27264,27265" d="m330.51135,74.09091c0,-1 -0.20081,-1.83588 0.05719,-2.7c0.25638,-0.85874 0.94281,-1.5215 0.94281,-2.39999c0,-0.9 -0.39294,-1.83037 0.08536,-2.61467c0.49008,-0.80362 0.82596,-1.38971 0.91464,-2.28533c0.08374,-0.84571 0.94781,-1.28254 1,-2.09983c0.05737,-0.89858 0.81781,-1.13224 1.00018,-2c0.16653,-0.79231 0.78912,-1.28239 1.00116,-2.09883c0.20789,-0.80045 0.89337,-1.27692 1.35135,-2.10133c0.41235,-0.74229 0.814,-1.53334 1.56332,-1.98534l0.30551,-0.8145l0.57983,-0.61483" id="svg_6" stroke-width="2" stroke="#000" fill="none"/>
  <path t="29761,29864,29864,29873,29880,29888,29888,29896,29896,29905,29905,29912,29912,29920,29920,29928,29928,29936,29936,29936,29944,29944,29944,29952,29960,29960,29968,29968,29968,29976,29976,29976,29984,29984,29992,30000,30000,30008,30008,30008,30016,30016,30024,30024,30024,30034,30034,30040,30040,30040,30049,30050,30050,30056,30056,30064,30064,30064,30072,30073,30073,30080,30080,30080,30088,30088,30088,30096,30096,30104,30105,30105,30112,30112,30112,30120,30120,30120,30128,30128,30136,30136,30136,30144,30144,30144,30152,30152,30152,30160,30160,30168,30176,30176,30184,30184,30184,30192,30192,30200,30200,30208,30208,30208,30216,30216,30216,30224,30224,30233,30233,30233,30240,30240,30249,30249,30256,30256,30264,30264,30272,30272,30280,30280,30280,30288,30296,30296,30304,30304,30312,30312,30320,30328,30337,30337,30344,30352,30360,30368,30376,30392,30400,30432" d="m324.51135,260.09091c0,1 0,1.79999 0,2.70001c0,0.93597 0,1.78531 0,2.7045c0,0.99548 0,1.7955 0,2.79532c0,0.77933 0,1.63351 0,2.55283c0,0.90451 0,1.65186 0,2.64868c0,0.83466 0,1.76532 0,2.55133c0,0.82199 0,1.88068 0,2.80066c0,0.76001 0,1.74667 0,2.73199c0,0.72534 0,1.71484 0,2.53552c0,0.66449 0,1.93182 0,2.47916c0,0.81601 0,2.03833 0,2.83832c0,0.90903 0,1.82834 0,2.68253c0,0.97916 0,1.77914 0,2.57916c0,1.00449 0,1.85715 0,2.82132c0,0.80402 0,1.62601 0,2.65717c0,0.90067 0,1.92151 0,2.73218c0,0.64648 0,1.61066 0,2.41467c0,0.82199 0,1.85315 0,2.75381c0,1.02084 0,1.83151 0,2.70618c0,1 0,1.83551 0,2.41916c0,1.19534 0,2.08484 0,2.93835c0,1.03564 0,1.72116 0,2.55582c0,1.00583 0,1.85849 0,2.82285c0,0.81448 0,1.68298 0,2.57849c0,0.89551 0,1.76401 0,2.83334c0,0.7095 0,1.56216 0,2.56665c0,0.80002 0,1.80017 0,2.62085c0,0.66449 0,1.66449 0,2.5c0,0.88049 0,2.07782 0,2.66849c0,0.85352 0,1.88882 0,2.74817c0,1.0625 0,1.94516 0,2.75049c0,0.996 0,1.81201 0,2.62802c0,0.99866 0,1.87332 0,2.884c0,0.79999 0,1.79999 0,2.61066c0,0.64648 0,1.61066 0,2.41467c0,0.82199 0,1.85315 0,2.75381c0,1.02084 0,1.82083 0,2.62085c0,1 0,1.79999 0,2.79999c0,0.80002 0,1.80002 0,2.60001c0,1 0,1.78934 0,2.83334c0,0.828 0,1.70932 0,2.41733c0,0.98132 0,1.935 0,2.84949c0,0.78519 0,1.73584 0,2.50116c0,0.99417 0,1.74152 0,2.7627c0,0.94049 0,1.80264 0,2.61514c0,1.03552 0,1.82217 0,2.72086c0,0.89999 0,1.79999 0,2.69998l0,0.89999l0,0.90002" id="svg_7" stroke-width="2" stroke="#000" fill="none"/>
  <path t="31337,31448,31457,31457,31465,31465,31472,31473,31473,31482,31482,31482,31482,31488,31488,31488,31488,31496,31496,31496,31505,31505,31505,31505,31512,31512,31521,31521,31521,31528,31528,31528,31528,31537,31537,31544,31544,31544,31544,31553,31553,31553,31554,31554,31560,31560,31560,31570,31570,31570,31570,31570,31570,31576,31576,31576,31576,31584,31584,31584,31592,31592,31592,31593,31600,31600,31600,31600,31600,31608,31608,31608,31608,31616,31616,31616,31616,31624,31624,31625,31632,31632,31632,31641,31641,31641,31641,31648,31649,31649,31657,31657,31665,31665,31665,31673,31673,31673,31681,31681,31681,31681,31689,31689,31689,31698,31698,31698,31705,31705,31705,31713,31713,31721,31728,31729,31736,31737,31737,31744,31744,31753,31760,31768,31769,31777,31784,31793,31808,31824,31856,31880,31897" d="m330.51135,260.09091c0,0.88666 0,1.836 0,2.60132c0,1.00317 0,1.85583 0,2.82034c0,0.82501 0,1.42502 0,2.745c0,0.71735 0,1.45868 0,2.20801c0,1.45868 0,2.14001 0,2.78934c0,0.93149 0,2.13599 0,2.73599c0,0.89999 0,2.10001 0,2.69867c0,0.88049 0,1.716 0,2.71735c0,0.90933 0,1.85065 0,2.64114c0,0.85352 0,2.04285 0,2.64151c0,0.88049 0,1.716 0,2.71866c0,0.944 0,2.01602 0,2.65335c0,0.70132 0,1.45065 0,3.02933c0,0.79733 0,1.57867 0,2.328c0,0.70132 0,1.90668 0,2.71365c0,0.578 0,2.04401 0,2.49701c0,0.98401 0,1.50299 0,2.565c0,0.53101 0,2.05301 0,2.97299c0,0.84 0,1.60001 0,2.59c0,0.828 0,1.83868 0,2.66669c0,0.98099 0,1.70831 0,2.47565c0,1.19101 0,1.991 0,2.79102c0,0.79999 0,1.60001 0,2.79999c0,0.80002 0,1.60001 0,2.39999c0,1.20001 0,1.99734 0,2.77869c0,0.74933 0,2.08798 0,2.9115c0,0.72449 0,1.67648 0,2.46698c0,0.85352 -0.00583,2.04288 0.00134,2.64285c0.01077,0.90015 0.04904,1.80597 0.22,2.69965c0.16956,0.88632 0.50302,1.66928 0.69333,2.73236c0.13702,0.76535 0.0676,1.73938 0.10617,2.50964c0.04318,0.86237 0.19199,1.76031 0.40451,2.65836c0.21347,0.90204 0.4353,1.79709 0.51749,2.69998c0.0545,0.59863 0.05649,1.5 0.05716,2.70001c0.00034,0.60001 0,1.5 0,2.69983c0,0.59567 0,1.46417 0,2.53351c0,0.93066 0,1.76532 0,2.76215c0,0.74734 0,1.77917 0,2.72617c0,0.72 0,1.845 0,2.6265c0,0.79053 0,1.71851 0,2.63052c0,0.82132 0,1.72583 0,2.74249c0,0.65799 0,1.69351 0,2.48016c0,0.89868 0,1.79868 0,2.69867l0,0.89999l0,0.89999l-0.00131,0.89868" id="svg_8" stroke-width="2" stroke="#000" fill="none"/>
  <path t="32737,32760,32768,32768,32776,32776,32784,32784,32792,32792,32800,32800,32800,32808,32808,32808,32816,32816,32816,32824,32824,32824,32833,32833,32833,32840,32840,32848,32848,32848,32856,32856,32865,32865,32865,32872,32872,32880,32880,32880,32888,32888,32888,32896,32904,32904,32913,32913,32920,32920,32921,32930,32930,32937,32945,32945,32953,32953,32968,32969,32976,32976,32985,32985,32992,33003,33008,33008,33024,33024,33034,33034,33040,33040,33048,33048,33056,33068,33068,33072,33072,33080,33080,33088,33088,33096,33096,33104,33113,33113,33120,33130,33130,33137,33137,33144,33153,33153,33160,33171,33176,33176,33186,33192,33192,33201,33208,33208,33218,33224,33232,33232,33240,33248,33256,33266,33273,33284,33288,33304,33304,33320,33336,33352,33352,33368,33384,33384,33392,33392,33400,33416,33432,33448,33464,33472,33496,33520,33520" d="m324.51135,263.09091c0,1.02084 0,1.97867 0,2.884c0,0.77316 0,1.71732 0,2.71149c0,0.74734 0,1.66083 0,2.45917c0,0.99869 0,1.96619 0,2.6445c0,0.9675 0,1.79102 0,2.74899c0,0.97318 0,1.77719 0,2.59918c0,1.03134 0,1.95267 0,2.63666c0,1 0,1.81601 0,2.63202c0,1 0,1.90933 0,2.85065c0,0.78149 0,1.57202 0,2.69067c0,0.79333 0,1.91199 0,2.66351c0,0.79648 0,1.79517 0,2.7045c0,0.94131 0,1.72733 0,2.54932c0,1.05869 0,1.76367 0,2.73868c0,0.86133 0,1.80798 0,2.66132c0,0.94269 0,1.79468 0,2.59467c0,0.75153 0,1.548 0,2.76901c0,0.79999 0,1.83633 0,2.78299c0,0.67868 0,1.65735 0,2.56268c0,0.77316 0,1.71732 0,2.716c0,0.79999 0,1.79865 0,2.564c0,0.94934 0,1.85684 0,2.70801c0,0.73065 0,1.728 0,2.52798c0,1 0,1.80002 0,2.79984c0,0.77933 0,1.77866 0,2.59885c0,0.9585 0,1.85849 0,2.60583c0,0.99548 0,1.7955 0,2.79532c0,0.77933 0,1.77884 0,2.68417c0,0.94131 0,1.63199 0,2.616c0,0.98401 0,1.67465 0,2.74734c0,0.91931 0,1.75266 0,2.73114c0,0.71701 0,1.6575 0,2.50552c0,0.86331 0,1.88 0,2.716c0,0.90015 0,1.68533 0,2.62531c0,1.00803 0,1.76401 0,2.69553c0,0.96317 0,1.65381 0,2.72198c0,0.85718 0,1.75717 0,2.55716c0,0.90002 0,1.80002 0,2.70001c0,0.89999 0,1.79999 0,2.70001c0,0.89999 0,1.79999 0,2.59998c0,1.03336 0,1.84668 0,2.68402c0,0.86331 0,1.89066 0,2.83731c0,0.67868 0,1.65717 0,2.47736c0,0.90134 0,1.80133 0,2.70132c0,0.89999 0,1.79999 0,2.70001l0,0.89999l0,0.89999l0,0.79999" id="svg_9" stroke-width="2" stroke="#000" fill="none"/>
  <path t="33960,34040,34048,34056,34064,34064,34072,34080,34096,34120,34128,34136,34144,34161,34185,34200,34232,34520,34520,34544,34552,34608,34632,34648,34656,34680,34704,34744,34809,34816,34840,34856,34865,34912,34960,34984,35016,35032,35048,35072,35096,35105,35112,35112,35128,35136,35152,35168,35185,35248,35328" d="m330.51135,374.09091c-0.91464,0.28534 -0.68097,1.29776 -1.28531,1.91599c-0.60809,0.62207 -1.55984,0.85184 -1.70401,1.68402c-0.15366,0.88684 -0.00867,1.79999 -0.01068,2.69998c-0.00226,0.99551 -0.6705,1.50687 -0.97916,2.22086c-0.34894,0.80719 -0.02084,1.77914 -0.02084,2.67917c0,0.89999 0,1.79999 0,2.59998c0,0.90002 0,1.84283 0,2.72086c0,0.87915 -0.19806,1.80154 0.00134,2.67783c0.18304,0.80429 1.27979,0.664 1.94601,1.15399c0.6842,0.50323 1.45267,0.64801 2.35266,0.64734c0.89865,-0.00067 1.60583,-0.38687 2.12534,-0.97467c0.51511,-0.58282 0.53564,-1.53821 1,-2.03601c0.51364,-0.55063 0.57465,-1.37866 0.57465,-2.3465c0,-0.84283 0,-1.74283 0,-2.64282c0,-0.79999 0,-1.70001 0,-2.60001c0,-0.89999 0,-1.79999 0,-2.6955l0,-0.92599l-0.00015,-0.87833" id="svg_10" stroke-width="2" stroke="#000" fill="none"/>
  <path t="35656,35720,35728,35744,35752,35776" d="m330.51135,381.09091c0.57468,0.61066 0.96402,1.39999 1,2.29999l0,0.90002l0,0.89999" id="svg_11" stroke-width="2" stroke="#000" fill="none"/>
 </g>
 <g display="none">
  <title>muse_image</title>
  <image xlink:href="http://static.flickr.com/33/61725814_98891ecf8c.jpg" id="muse" height="480" width="360" y="0" x="140"/>
 </g>
 <g display="none">
  <title>bbox</title>
  <rect stroke="#f00" fill="none" stroke-width="3" height="477.12" width="119.04" y="0" x="290.72" id="bbox"/>
 </g>
</svg>
