<svg width="640" height="480" xmlns="http://www.w3.org/2000/svg" xmlns:svg="http://www.w3.org/2000/svg" xmlns:xlink="http://www.w3.org/1999/xlink">
 <!-- Sketchy ANNOTATION
  ImageNet ID: n02676566_4605
  URL: http://static.flickr.com/33/61725814_98891ecf8c.jpg
  Image Width: 375
  Image Height: 500
  BBox X: 157
  BBox Y: 0
  BBox Width: 124
  BBox Height: 497
  Exposure: 2000ms
  Synset Label: guitar
  Synset ID: n03467517
  Worker Tag: Guitar
  Sanity Check: 
   Saved
  Comment: 
   {}
  Worker ID: AIH9VLD92GHFH
  Assignment ID: 37QW5D2ZRGMNVJJ3W2ZYSJONNEHS87
  HIT ID: 38F60IALAGH45ATL0WM7KPJ62IHT0W
  Work Time: 56s
  Worker Score: 0.7333
 END ANNOTATION -->
 <g display="inline">
  <title>Layer 1</title>
  <path t="0,347,350,350,364,382,383,383,396,403,403,415,415,430,446,447,463,463,480,480,480,496,497,497,513,530,534,546,546,546,547,563,563,580,580,580,596,596,597,613,613,630,646,646,647,663,663,680,680,681,696,697,713,713,713,733,734,734,747,748,748,763,763,763,782,782,783,797,798,813,813,813,813,830,830,846,847,847,863,863,880,880,898,898,899,913,913,913,930,946,947,963,964,964,980,980,980,996,996,1013,1014,1014,1030,1030,1046,1046,1047,1063,1080,1080,1096,1096,1097,1113,1113,1130,1130,1146,1163,1196,1197,1230,1230,1246,1279,1280,1296,1313,1330,1330,1362,1363,1363,1380,1380,1380,1396,1413,1413,1430,1430,1446,1447,1463,1463,1480,1480,1496,1497,1497,1513,1513,1530,1530,1530,1547,1563,1563,1563,1564,1580,1580,1597,1597,1613,1613,1630,1630,1630,1646,1647,1663,1663,1701,1702,1702,1704,1704,1704,1715,1715,1735,1735,1746,1746,1746,1763,1764,1764,1780,1781,1797,1797,1797,1797,1818,1818,1818,1834,1834,1848,1848,1862,1862,1862,1880,1880,1881,1881,1896,1896,1897,1912,1913,1930,1930,1931,1946,1946,1947,1947,1962,1963,1980,1980,1980,1981,1996,1996,1997,2012,2013,2030,2031,2031,2031,2046,2046,2047,2062,2080,2080,2081,2096,2096,2097,2112,2112,2112,2130,2130,2146,2147,2163,2163,2180,2180,2196,2196,2213,2214,2229,2229,2246,2246,2263,2264,2265,2278,2279,2296,2313,2314,2330,2331,2345,2345,2345,2363,2396,2397,2412,2413,2413,2429,2446,2447,2462,2463,2479,2480,2496,2513,2514,2528,2546,2562,2563,2563,2596,2596,2612,2613,2662,2762,2795,2811,2812,2830,2831,2831,2847,2847,2848,2863,2863,2880,2880,2881,2896,2896,2897,2912,2912,2912,2929,2930,2930,2945,2945,2946,2961,2962,2979,2980,2995,2996,3013,3014,3014,3028,3046,3046,3061,3062,3062,3078,3079,3079,3095,3095,3095,3112,3112,3112,3130,3130,3131,3145,3146,3146,3146,3165,3165,3182,3182,3182,3198,3199,3199,3246,3246,3249,3249,3251,3252,3266,3267,3267,3267,3282,3283,3296,3296,3297,3311,3312,3329,3329,3349,3350,3364,3496,3496,3512,3513,3529,3529,3546,3546,3565,3566,3566,3587,3587,3587,3604,3604,3621,3622,3637,3638,3638,3638,3653,3668,3668,3684,3684,3685,3701,3702,3702,3717,3717,3718,3733,3733,3752,3752,3774,3774,3774,3791,3792,3792,3807,3808,3808,3825,3825,3839,3840,3855,3855,3871,3871,3871,3887,3887,3903,3903,3903,3919,3919,3919,3935,3936,3936,3954,3954,3970,3970,3971,3987,3987,3987,4004,4004,4004,4020,4020,4036,4037,4037,4053,4054,4069,4070,4070,4085,4086,4103,4103,4103,4119,4135,4136,4136,4152,4152,4168,4168,4169,4184,4185,4185,4201,4201,4202,4217,4217,4218,4234,4234,4251,4251,4267,4267,4268,4284,4285,4300,4301,4301,4318,4318,4318,4334,4350,4351,4351,4368,4368,4384,4384,4385,4401,4418,4418,4434,4435,4435,4452,4452,4469,4469,4514,4515,4518,4518,4518,4521,4521,4538,4538,4562,4563,4580,4580,4598,4598,4623,4623,4642,4660,4678,4695,4695,4712,4712,4728,4729,4729,4745,4765,4766,4788,4789,4808,4825,4843,4844,4861,4861,4862,4864,4865,4865,4882,4882,4899,4900,4917,4917,4934,4951,4951,4952,4970,4970,4987,4987,4988,5004,5022,5023,5039,5039,5040,5057,5058,5075,5075,5091,5091,5092,5109,5109,5126,5127,5128,5145,5145,5145,5162,5162,5180,5180,5180,5197,5198,5214,5215,5232,5233,5233,5251,5251,5251,5269,5286,5287,5287,5305,5305,5323,5323,5341,5342,5359,5359,5360,5379,5379,5379,5382,5382,5383,5385,5386,5404,5405,5405,5425,5426,5426,5444,5444,5462,5463,5463,5463,5482,5482,5501,5501,5520,5520,5521,5539,5540,5558,5558,5559,5577,5578,5596,5596,5597,5600,5600,5603,5603,5604,5652,5653,5672,5672,5672,5676,5694,5694,5697,5698,5717,5717,5718,5721,5721,5721,5742,5742,5743,5761,5789,5790,5813,5814,5817,5844,5867,5868,5890,5929,5930,5949,5950,5972,5972,5995,5999,5999,6020,6021,6021,6045,6045,6048,6049,6068,6069,6095,6096,6097,6116,6117,6118,6141,6142,6142,6164,6164,6186,6187,6187,6209,6210,6210,6229,6230,6230,6233,6234,6237,6237,6258,6259,6259,6279,6279,6300,6300,6300,6320,6340,6341,6361,6362,6382,6382,6385,6386,6386,6409,6429,6429,6449,6450,6470,6471,6491,6491,6512,6512,6533,6536,6537,6540,6541,6561,6565,6614,6615,6635,6636,6636,6639,6640,6661,6662,6682,6682,6683,6683,6683,6684,6705,6705,6726,6726,6727,6753,6753,6754,6775,6776,6800,6801,6829,6832,6833,6836,6836,6839,6863,6866,6866,6867,6890,6891,6892,6913,6913,6914,6935,6935,6936,6956,6957,6979,6979,7000,7000,7004,7004,7005,7009,7030,7030,7034,7034,7055,7056,7056,7078,7100,7100,7101,7122,7122,7123,7145,7145,7149,7169,7170,7192,7213,7213,7216,7217,7218,7245,7246,7279,7280,7281,7303,7328,7328,7332,7332,7362,7384,7385,7409,7434,7434,7459,7483,7484,7484,7487,7488,7492,7493,7515,7516,7519,7571,7572,7573,7594,7595,7598,7599,7620,7641,7642,7642,7643,7664,7664,7686,7687,7687,7715,7716,7716,7738,7739,7743,7743,7747,7747,7748,7756,7757,7780,7780,7781,7781,7785,7785,7786,7812,7812,7816,7816,7817,7845,7846,7846,7850,7850,7851,7876,7877,7900,7901,7901,7923,7923,7946,7947,7947,7969,7970,7971,7975,7975,7979,7980,8001,8002,8002,8006,8006,8007,8030,8030,8034,8061,8063,8064,8064" d="m307,194c3.59732,1.82933 4.45764,1.9769 5.22934,1.99733c1.1196,0.02963 2.104,0.00267 2.78049,0.00267c0.77551,0 1.82465,-0.03616 2.75418,0.01067c0.83691,0.04216 1.63034,0.28499 2.39999,0.564c1.07306,0.38901 2.07043,0.53918 2.47882,1.18701c0.50595,0.80263 0.4306,1.70959 1.02133,2.43832c0.54443,0.67163 1.15198,0.94057 2.0025,1.8c0.55356,0.55937 0.88739,1.37514 1.28519,2.24283c0.41177,0.89822 1.17584,1.20229 1.8815,2.0905c0.49188,0.61917 0.64493,1.18785 0.96533,1.98401c0.40155,0.99777 0.79877,1.89857 1.36798,2.68266c0.45197,0.62257 1.07828,1.13922 1.5,2c0.37177,0.7588 0.36133,1.61647 0.686,2.5955c0.25287,0.7625 0.55698,1.66466 0.814,2.73782c0.16238,0.6781 0.47998,1.39874 0.71185,2.524c0.16165,0.78456 0.07892,1.68791 0.14282,2.39334c0.08954,0.98857 0.59674,1.73781 1.12799,2.39999c0.67548,0.84198 0.80667,1.60893 0.84167,2.40117c0.04532,1.02586 0.00839,1.72284 0.009,2.63217c0.00067,1.00133 -0.01306,1.83997 0.08533,2.71733c0.10126,0.90308 0.35492,1.78426 0.56201,2.64149c0.24921,1.03149 0.33344,1.72064 0.35132,2.55583c0.02164,1.0101 0.00134,1.67334 0.00134,2.73466c0,0.9675 0,1.64584 0,2.61334c0,1 0,1.85416 0,2.82266c0,0.7515 0,1.548 0,2.54533c0,0.87466 0,1.88533 0,2.68533c0,1 0,1.81067 0,2.68533c0,0.99733 0,1.79382 0,2.54532c0,1.108 0.05264,1.9389 -0.02084,2.79019c-0.08514,0.9863 -0.43558,1.77997 -0.6265,2.43631c-0.27689,0.9519 -0.32852,1.75717 -0.35132,2.7735c-0.02161,0.96384 -0.13626,1.75616 -0.57068,2.53735c-0.41797,0.75165 -0.94275,1.46793 -1.54532,2.26401c-0.47061,0.62177 -1.00647,1.50232 -1.27469,2.21866c-0.2756,0.73608 -0.51608,1.77951 -0.61066,2.74933c-0.06558,0.67264 -0.43729,1.54581 -0.85068,2.25067c-0.43832,0.74734 -1.01779,1.58447 -1.14032,2.4975c-0.1203,0.89651 -0.009,1.76782 -0.009,2.73099c0,0.82535 0,1.84216 0,2.52084c0,0.97849 0,1.79868 0,2.75717c0,0.89551 0,1.75882 0,2.72198c0,0.82535 0,1.84235 0,2.54169c0,0.97916 0,1.78983 0,2.66449c0,0.99734 0,1.79382 0,2.54532c0,1.108 0,2.09067 0,2.76935c0,0.97882 0,1.80984 0,2.76801c0,0.73199 -0.21826,1.94138 0.04166,2.69034c0.29889,0.86124 1.27933,1.11621 1.71533,2.08432c0.2991,0.66412 0.20181,1.45282 0.24435,2.48935c0.0318,0.77469 0.28265,1.73599 0.49866,2.46799c0.216,0.73199 0.39688,1.90677 1,2.83334c0.30511,0.46875 1.013,1.15533 1.44199,1.66132c0.7157,0.84421 1.02155,1.75424 1.0625,2.66251c0.03375,0.74844 0.29388,1.73776 0.57019,2.54285c0.27295,0.79523 0.34961,1.60849 0.50934,2.39999c0.20483,1.01498 0.62714,1.785 0.83197,2.79999c0.15973,0.7915 0.30585,1.80002 0.50934,2.41068c0.29138,0.87442 0.46585,1.87585 0.59552,2.66849c0.12369,0.75598 0.73849,1.65897 1.27383,2.26901c0.60187,0.68585 0.68851,1.50427 0.87198,2.41849c0.15891,0.79193 0.45532,1.59756 0.66669,2.66669c0.18256,0.92346 0.16486,1.57626 0.45065,2.56799c0.24475,0.84927 0.58234,1.76144 0.65884,2.55582c0.08194,0.85083 0.05649,1.44418 0.05716,2.64151c0.00049,0.88049 0,1.716 0,2.716c0,0.87466 -0.09207,1.89551 0.04166,2.68533c0.17389,1.02707 0.69757,1.58197 1.10767,2.23599c0.56567,0.9021 0.76923,1.71823 0.82935,2.57468c0.04138,0.58951 0.02133,1.78799 0.02133,2.66849c0,0.83551 0,1.83551 0,2.71017c0,1.01102 0,1.63199 0,2.58133c0,0.87201 0,1.88 0,2.57867c0,0.68268 0,1.88132 0,2.86533c0,0.952 0,1.74249 0,2.59601c0,0.59067 0,1.78799 0,2.66849c0,0.83551 0,1.83685 0,2.74619c0,0.94131 0,1.73181 0,2.58533c0,0.59067 0,1.78665 0,2.64767c0,0.771 0.00656,1.89102 0,2.875c-0.00452,0.67651 0.05334,1.49149 -0.33334,2.5c-0.28757,0.74997 -0.88596,1.32996 -1.5,2.16666c-0.56274,0.76678 -0.77014,1.41248 -1.47116,2.24283c-0.51862,0.61432 -1.39188,1.00082 -2.04282,1.51434c-0.8298,0.6546 -1.19473,1.44955 -1.75269,2.22131c-0.46249,0.63971 -1.10132,1.22284 -1.65717,1.77869c-0.72684,0.72684 -1.24283,1.24283 -2.07617,2.07617c-0.53067,0.53067 -1.16666,1.16666 -1.80264,1.80264c-0.68533,0.68533 -1.18936,1.18936 -1.71133,1.71133c-0.76733,0.76733 -1.27048,1.43848 -2.06335,2.04202c-0.6976,0.53104 -1.62546,0.48785 -2.56815,0.832c-0.72195,0.26358 -1.5665,0.64053 -2.26117,0.76398c-0.91089,0.16187 -1.42529,1.05212 -2.09335,1.68134c-0.56357,0.53079 -1.68707,0.44632 -2.45599,0.76935c-0.74875,0.31454 -1.48651,1.12357 -2.31082,1.4425c-0.74081,0.28662 -1.77786,-0.01163 -2.41583,0.29214c-0.98141,0.46735 -1.16135,1.49261 -2.00485,1.78769c-0.91,0.31833 -1.82648,0.04166 -2.72198,0.04166c-0.9585,0 -1.92383,0 -2.59317,0c-0.76532,0 -1.76401,0 -2.564,0c-0.99869,0 -1.94284,-0.00064 -2.84283,0c-0.95584,0.00067 -1.85962,0.47046 -1.31418,1.10016c0.47906,0.55307 1.56564,1.05603 2.15701,1.55252c0.60907,0.51135 1.38333,1.20621 2,1.59015c0.7803,0.48584 1.58163,0.89844 2.39999,1.23633c0.98056,0.40488 1.81012,0.49908 2.45715,0.51636c0.96402,0.02573 1.77884,0.00449 2.64734,0.00449c1.19534,0 1.79102,0 2.65952,0c1.06934,0 2.01065,0 2.68866,0c0.96851,0 1.76199,0 2.77798,0c0.96402,0 1.73734,0 2.77469,0c0.74399,0 1.85199,0 2.64532,0c0.892,0 1.60001,0 2.58133,0c0.95816,0 1.93466,0 2.604,0c1.164,0 1.97467,0 2.62115,0c0.96417,0 1.76819,0 2.59018,0c1.26868,0 1.95267,0 2.63666,0c1.27316,0 1.83685,0 2.71735,0c1.19998,0 1.80933,0 2.75583,0c1.00949,0 1.72418,0 2.80118,0c0.67465,0 1.7775,0 2.68167,0c0.90283,0 1.62131,0 2.4118,0c1.26419,0 1.94818,0 2.63217,0c1.26419,0 2.05469,0 2.98267,0c0.8125,0 1.82135,0 2.616,0c1.05069,0 1.68402,0 2.6965,0c0.65836,0 1.75668,0 2.66086,0c0.90283,0 1.62131,0 2.4118,0c1.26285,0 1.92734,0 2.94818,0c0.78934,0 1.83334,0 2.58932,0c0.93152,0 1.90222,0.07156 2.58533,-0.03601c0.96008,-0.15121 1.54541,-0.76266 1.74133,-1.73199c0.14597,-0.7222 0.24017,-1.90274 0.50934,-2.58133c0.39276,-0.9902 0.5368,-1.65958 0.564,-2.436c0.03671,-1.04742 -0.08459,-2.00821 0.18134,-2.81332c0.28015,-0.84821 0.97214,-1.28619 1.496,-2.23468c0.44412,-0.80411 0.33334,-1.66666 0.33334,-2.52466c0,-0.966 0,-1.59 0,-2.77051c0,-0.97183 -0.01141,-1.68591 0.00134,-2.64215c0.01028,-0.77118 0.05048,-1.63776 0.22,-2.52917c0.1705,-0.89651 0.47571,-1.73315 0.65717,-2.77866c0.11813,-0.68066 0.09015,-1.52078 0.12598,-2.52151c0.02869,-0.80121 0.30637,-1.79245 0.57019,-2.63599c0.28833,-0.92191 0.31921,-1.72241 0.48666,-2.50269c0.20288,-0.9455 0.85635,-1.55588 1.45599,-2.22931c0.66342,-0.74506 0.97672,-1.52054 1.19601,-2.26401c0.28027,-0.95023 0.35175,-1.74109 0.63931,-2.77335c0.20837,-0.74792 0.54477,-1.65262 0.6265,-2.49466c0.10077,-1.03799 -0.06378,-1.77176 0.13516,-2.49466c0.30008,-1.09045 1.20578,-1.50345 1.64267,-2.32718c0.35962,-0.67807 0.23416,-1.4502 0.24435,-2.64615c0.0058,-0.68271 -0.047,-1.39203 0.16531,-2.69867c0.1347,-0.82898 0.49271,-1.49057 0.71185,-2.53336c0.16583,-0.78906 0.12149,-1.79999 0.12149,-2.61066c0,-0.64648 0,-1.87466 0,-2.71017c0,-0.58365 0,-1.77881 0,-2.65784c0,-0.80698 -0.00055,-1.85333 0,-2.62665c0.00067,-0.96402 -0.02515,-1.72058 0.08533,-2.51199c0.14059,-1.00717 0.54956,-1.85519 0.74802,-2.68268c0.18903,-0.78824 0.16599,-1.60001 0.16666,-2.60449c0.00058,-0.85266 0,-1.81668 0,-2.61017c0,-0.77551 0,-1.97549 0,-2.952c0,-0.66934 0,-1.43466 0,-2.43784c0,-0.85266 0,-1.81683 0,-2.62085c0,-0.82199 0,-1.85333 0,-2.77466c0,-0.68399 0,-1.68533 0,-2.52084c0,-0.88049 0,-2.07648 0,-2.65784c0,-0.80698 0,-2.01599 0,-2.78931c0,-1.04184 0,-1.81735 0,-2.86536c0,-0.7095 0.02109,-1.56241 -0.00134,-2.56665c-0.01788,-0.80057 -0.22049,-1.80002 -0.42398,-2.41068c-0.29138,-0.87442 -0.5112,-1.87054 -0.55383,-2.66849c-0.0401,-0.75067 0.07397,-1.88821 -0.24252,-2.84235c-0.24213,-0.72995 -0.64514,-1.29501 -1.26099,-2.07849c-0.48129,-0.61227 -1.23819,-1.58337 -1.45599,-2.38934c-0.1929,-0.7139 -0.49033,-1.58105 -1.1615,-2.311c-0.53033,-0.57675 -1.22855,-1.4371 -1.548,-1.905c-0.50247,-0.73596 -1.05411,-1.6485 -1.33099,-2.47382c-0.27872,-0.83084 -0.51111,-1.53958 -1.12067,-2.49966c-0.44241,-0.69684 -0.76205,-1.5665 -0.8855,-2.26117c-0.16187,-0.91089 -0.7739,-1.49576 -1.53201,-1.92667c-0.79028,-0.44919 -1.18594,-1.2384 -1.58249,-2.03317c-0.38696,-0.77557 -0.62082,-1.85068 -1.01001,-2.49567c-0.44006,-0.72928 -1.44116,-1.13 -1.78033,-1.95267c-0.30716,-0.745 -0.80508,-1.44553 -1.19385,-2.15317c-0.46619,-0.84857 -0.73584,-1.71045 -0.97733,-2.37332c-0.36633,-1.00555 -1.25034,-1.39447 -1.69583,-2.36786c-0.29993,-0.65533 -0.16257,-1.4549 -0.66815,-2.37082c-0.39603,-0.71744 -0.57242,-1.49567 -0.57468,-2.48535c-0.00174,-0.76532 0,-1.84415 0,-2.70132c0,-0.89999 0,-1.71432 0,-2.67065c0,-0.771 0,-1.63202 0,-2.52899c0,-0.87903 0,-1.686 0,-2.73236c0,-0.77332 0,-1.73599 0,-2.71732c0,-0.91733 0,-1.70901 0,-2.672c0,-0.91202 -0.00049,-1.82935 0,-2.57333c0.00067,-1.03735 0.03052,-1.81735 0.284,-2.77335c0.19559,-0.73772 0.53079,-1.44641 0.67999,-2.57066c0.10904,-0.82158 0.03601,-1.68216 0.03601,-2.66133c0,-0.8 0,-1.60001 0,-2.60001c0,-0.79999 0,-1.80133 0,-2.63599c0,-0.93068 0,-1.71217 0,-2.50267c0,-1.11867 0,-1.912 0,-2.80434c0,-0.99867 0,-1.56599 0,-2.75667c0,-0.879 0,-1.686 0,-2.73233c0,-0.77333 0,-1.73734 0,-2.48883c0,-0.79651 0,-1.79384 0,-2.6685c0,-1.01067 0,-1.81067 0,-2.81067c0,-0.81067 0,-1.68533 0,-2.68266c0,-0.79651 0,-1.548 0,-2.66667c0,-0.98399 0,-1.65601 0,-2.39999c0,-1.10783 0,-1.99884 0,-2.90784c0,-0.74733 0.03949,-1.74687 -0.03601,-2.57883c-0.08493,-0.93596 -0.28705,-1.72394 -0.57465,-2.50267c-0.34863,-0.94405 -0.80374,-1.60783 -1.27469,-2.22934c-0.60345,-0.79639 -1.10431,-1.5394 -1.63065,-2.26399c-0.58725,-0.80843 -1.12167,-1.39268 -1.58417,-2.31067c-0.34787,-0.69043 -0.54178,-1.53957 -1.22134,-2.31433c-0.60818,-0.69337 -1.29849,-0.90541 -2.2785,-1.45201c-0.61246,-0.34158 -1.42227,-1.00522 -1.99548,-1.69633c-0.39963,-0.48186 -0.90482,-1.23766 -1.51917,-2.02533c-0.56775,-0.72791 -1.02441,-1.50111 -1.55734,-2.144c-0.59567,-0.7186 -1.33267,-1.06958 -2.07733,-1.41467c-1.10687,-0.51295 -1.73471,-0.92635 -2.41733,-1.57733c-0.67419,-0.64294 -1.18399,-1.23062 -2.03336,-1.5905c-0.76443,-0.3239 -1.80475,-0.39523 -2.59998,-0.66817c-0.80508,-0.27631 -1.80334,-0.53784 -2.436,-0.564c-1.1842,-0.04895 -1.98456,0.03838 -2.75418,-0.06783c-1.05624,-0.14575 -1.63217,-0.61888 -2.55249,-0.82133c-0.94012,-0.20682 -1.68933,-0.12083 -2.64301,-0.12151c-1.017,-0.0007 -1.7861,0.03918 -2.81967,-0.009c-0.74585,-0.03477 -1.68964,-0.28894 -2.34399,-0.84166c-0.64853,-0.54781 -1.41495,-1.02533 -2.19232,-1.10767c-0.85712,-0.09077 -2.05566,-0.04167 -2.63702,-0.04167c-0.80698,0 -2.00699,0 -2.92148,0c-0.78519,0 -1.72519,0 -2.41583,0c-1.07333,0 -1.89468,0 -2.80533,0c-0.85333,0 -1.79898,-0.10489 -2.77884,0.00034c-0.79886,0.08578 -1.58212,0.67667 -2.03851,1.185c-0.67197,0.74841 -0.98581,1.59073 -1.36133,2.33549c-0.47284,0.93776 -0.44821,1.78323 -1.16415,2.45767c-0.53296,0.50206 -1.41742,0.57579 -2.36386,1.22284c-0.67871,0.464 -0.85776,1.4635 -1.02466,2.146c-0.22705,0.92845 -0.85281,1.60829 -1.42999,2.422c-0.34338,0.48412 -0.90475,1.24364 -1.27432,2.30933c-0.23483,0.67715 -0.24167,1.60535 -0.24301,2.60535c-0.00107,0.81599 0.0191,1.6322 -0.00134,2.63066c-0.01791,0.87517 -0.22629,1.88364 -0.42398,2.50667c-0.30026,0.94633 -0.47708,1.81941 -0.53867,2.81866c-0.04144,0.67255 0.00488,1.86157 -0.04669,2.67334c-0.04169,0.65625 -0.34763,1.69034 -0.564,2.43599c-0.26563,0.91536 -0.41489,1.75052 -0.42532,2.79333c-0.00708,0.70798 0.1189,1.4588 -0.009,2.65201c-0.0842,0.78554 -0.55899,1.57333 -0.991,2.30533c-0.43201,0.73199 -0.77841,1.73264 -1.16666,2.5c-0.35016,0.69211 -1.0769,1.46205 -1.39734,2.17467c-0.41287,0.91817 -0.49063,1.6637 -1.00534,2.592c-0.40903,0.73772 -0.73077,1.22284 -1.54401,1.98001c-0.67972,0.63287 -0.84622,1.49016 -1.108,2.45316c-0.16364,0.60196 -0.46683,1.6936 -0.84,2.38951c-0.37546,0.7002 -1.38376,1.07802 -1.76932,1.89465c-0.3801,0.8051 -0.66312,1.68591 -1.00269,2.51601c-0.29318,0.71669 -0.16666,1.65266 -0.16666,2.51601c0,0.96317 0,1.89465 0,2.8055c0,0.69933 0,1.6785 0,2.4785c0,0.8 0.00537,1.79552 0,2.71466c-0.00534,0.91338 -0.0799,1.79668 -0.22134,2.91333c-0.06033,0.47632 -0.20407,1.524 -0.27866,2.07201c-0.14752,1.08398 -0.23563,1.59366 -0.37851,2.87134c-0.1167,1.04364 -0.07785,1.96405 -0.14282,2.88998c-0.05569,0.79401 -0.3956,1.83316 -0.82935,2.50269c-0.41971,0.64789 -0.98956,1.41895 -1.10767,2.21515c-0.14676,0.98938 -0.04156,1.81952 -0.04166,2.69284c-0.00009,0.87051 0.26596,1.89194 -0.16666,2.828c-0.30444,0.65875 -0.83267,1.30133 -0.83334,2.172c-0.00067,0.871 0,1.60001 0,2.43701c0,1.19083 0,2.08032 0,2.655c0,1.31467 0,2.01065 0,2.68866c0,1.23001 0,2.02649 0,2.77798c0,0.96402 0,1.73734 0,2.77469c0,0.74399 0,1.85199 0,2.64532c0,0.892 0,1.84933 0,2.58133c0,0.95816 0,1.93466 0,2.76801c0,0.97882 0,1.80984 0,2.76801c0,0.73199 0,1.46399 0,2.58133c0,0.98401 0,1.66049 0,2.436c0,1.29315 0,1.97867 0,2.81332c0,0.99683 -0.15503,1.75766 0.01068,2.76535c0.14291,0.86911 0.8111,1.49963 0.95331,2.46133c0.14755,0.99777 0.02103,1.69562 0.03635,2.71732c0.01062,0.70825 -0.05594,1.54434 0.56766,2.48935c0.46756,0.70856 1.18829,1.2804 1.36002,2.21866c0.1344,0.73447 0.07199,1.77866 0.07199,2.74933c0,0.75717 -0.11853,1.67322 0.08533,2.51599c0.21481,0.88803 0.87076,1.68152 0.91333,2.36935c0.05804,0.9382 0.00134,1.948 0.00134,2.81015c0,0.84616 0,1.84717 0,2.55518c0,0.74399 0,1.93948 0,2.63199c0,0.95334 0,1.71866 0,2.71283c0,0.91919 0,1.78986 0,2.73785c0,0.91733 0,1.66132 0,2.69733c0,0.85199 0,1.79468 0,2.48532c0,1.02567 0,1.98401 0,2.84201c0,0.642 0,1.59 0,2.58865c0,0.85419 0,1.82401 0,2.595c0,0.86102 0,2.05566 0,2.63702c0,0.80698 0,2.01599 0,2.78931c0,0.80136 0,1.81735 0,2.86536c0,0.7095 0,1.56216 0,2.56934c0,0.63898 0,1.93066 0,2.56531c0,0.68268 0,1.72668 0,2.69867c0,0.819 0,1.72433 0,2.73334c0,0.80002 0,1.80017 0,2.62085c0,0.66449 0,1.66449 0,2.5c0,0.88049 0,2.07648 0,2.65784c0,0.80698 -0.04898,2.02347 0.08533,2.78931c0.14261,0.8132 0.44458,1.54535 0.63068,2.34933c0.28143,1.21585 0.22321,1.92697 0.72684,2.88269c0.34103,0.64716 0.95193,1.16812 1.53564,2c0.54205,0.77255 0.78348,1.41953 1.32602,2.39548c0.42453,0.76367 0.98538,1.43039 1.71634,1.88367c0.94254,0.5845 1.60263,0.78616 2.37915,1.27802c0.82687,0.52374 1.39627,1.06091 1.94284,1.59015c0.78189,0.75708 1.2543,1.46848 2.07849,2.04202c0.83258,0.57941 1.5975,0.5535 2.436,0.59998l0.63068,0.00934" id="svg_1" stroke-width="2" stroke="#000" fill="none"/>
  <path t="8333,8461,8461,8461,8461,8461,8462,8462,8462,8462,8478,8478,8478,8478,8478,8478,8497,8497,8498,8498,8514,8514,8514,8514,8529,8529,8529,8544,8544,8544,8544,8561,8561,8578,8578,8578,8594,8595,8628,8629,8644,8645,8645,8661,8662,8662,8678,8679,8679,8679,8695,8695,8695,8695,8711,8712,8728,8729,8729,8745,8745,8761,8762,8762,8762,8778,8778,8779,8779,8795,8795,8795,8810,8810,8866" d="m317,271c-3.66666,5.83334 -3.96957,6.60233 -4.22665,7.41867c-0.26331,0.83609 -0.48898,1.69519 -0.69,2.56049c-0.19891,0.85617 -0.36975,1.69861 -0.51001,2.5155c-0.25793,1.50238 -0.34689,2.17465 -0.45901,3.36234c-0.04968,0.52637 -0.10138,1.47885 -0.11166,2.33499c-0.0145,1.20792 -0.00266,2.00803 -0.00266,2.80801c0,0.79999 -0.0083,2.00006 0.00266,2.79599c0.01062,0.77216 -0.12299,1.55432 0.33069,2.70401c0.27261,0.69083 0.92892,1.09662 1.66666,1.83334c0.63745,0.6366 0.96371,1.19797 1.60001,1.89865c0.75867,0.83548 1.36328,1.31509 2.39999,1.60135c0.78134,0.21573 1.60001,0.16599 2.60001,0.16666c0.79999,0.00055 1.80402,0.03949 2.63599,-0.03601c0.93594,-0.08493 1.76123,-0.22403 2.46667,-0.64667c0.88281,-0.5289 1.15936,-1.32605 1.30133,-2.13864c0.20477,-1.17209 0.28146,-1.77966 0.496,-2.69952c0.14835,-0.63608 0.39224,-1.99905 0.44284,-2.72281c0.0499,-0.71387 0.0549,-1.38934 0.05716,-2.703c0.00146,-0.85419 0,-1.82269 0,-2.57419c0,-0.79648 0.08542,-1.80621 -0.07199,-2.7045c-0.16861,-0.96225 -0.63235,-1.73773 -0.96967,-2.2955c-0.35687,-0.59009 -1.15265,-1.78271 -1.55835,-2.37015c-0.39447,-0.5712 -0.94604,-1.39481 -1.60001,-1.96585c-0.74457,-0.65018 -1.39999,-0.85516 -2.39548,-1.09048l-0.91919,-0.13669l-0.84933,-0.34131" id="svg_2" stroke-width="2" stroke="#000" fill="none"/>
  <path t="9115,9294,9295,9313,9313,9313,9329,9329,9345,9346,9361,9362,9362,9362,9378,9378,9379,9402,9402,9402,9427,9427,9427,9427,9451,9451,9475,9475,9498,9499,9520" d="m298,389c2.74399,6.69067 2.96872,7.41507 3,8.33334c0.03122,0.91681 -0.09937,1.66635 0.00266,2.69733c0.08551,0.86417 0.70151,1.63596 1.21869,2.17999c0.76392,0.80359 1.37866,1.38934 1.77866,1.78934c0.60001,0.60001 1.38013,1.42218 2.02084,1.97916c0.64407,0.55991 1.38635,1.03116 2.21515,1.38486c0.85501,0.36487 1.76614,0.62967 2.655,0.93597c0.56876,0.19598 1.33826,0.50015 2.45834,1.08936c0.61859,0.32541 1.65149,0.5625 2.36401,0.672l0.92233,0.38132l0.36832,0.70667l0.43201,0.77869" id="svg_3" stroke-width="2" stroke="#000" fill="none"/>
  <path t="10305,10444,10444,10461,10461,10461,10461,10477,10477,10478,10478,10478,10529,10529,10529,10529,10529,10530,10530,10531,10531,10531,10531,10531,10532,10532,10532,10532,10532,10582,10582,10582,10582,10582,10582,10582,10582,10624,10624,10624,10625,10625,10625,10625,10625,10625,10627,10627,10627,10628,10628,10628,10628,10628,10628,10668,10668,10668,10668,10668,10668,10668,10668,10668,10711,10711,10711,10711,10711,10711,10711,10711,10711,10713,10713,10713,10713,10713,10713,10713,10713,10713,10714,10715,10715,10715,10715,10715,10715,10715,10715,10757,10757,10757,10757,10757,10758,10758,10758,10758,10760,10760,10760,10761,10761,10761,10761,10761,10761,10763,10763,10763,10763,10763,10763,10763,10763,10763,10805,10806,10806,10806,10806,10806,10806,10806,10806,10808,10808,10808,10808,10808,10808,10808,10809,10809,10852,10853,10853,10853,10853,10853,10853,10853,10853,10899,10899,10899,10899,10899,10899,10899,10899,10899,10901,10901,10901,10901,10901,10901,10901,10902,10902,10903,10903,10903,10903,10903,10903,10904,10904,10904,10951,10951,10951,10951,10951,10951,10951,10951,10996,10996,10996,10996,10996,10996,10996,10996,10997,10998,10998,10998,10998,10999,10999,10999,10999,10999,11000,11000,11001,11001,11001,11001,11001,11001,11045,11045,11045,11045,11045,11045,11045,11088,11088,11088,11088,11088,11088,11088,11089,11089,11090,11091,11091,11091,11091,11091,11135,11135" d="m331,197c-0.00449,-3.55183 -0.00241,-4.26598 -0.16666,-5.33333c-0.0986,-0.64076 -0.35101,-1.70911 -0.53784,-2.47568c-0.29056,-1.19221 -0.4957,-1.99396 -0.60001,-2.39999c-0.21405,-0.83327 -0.44302,-1.70815 -0.86215,-3.12433c-0.15103,-0.51038 -0.48297,-1.57156 -0.64801,-2.11734c-0.16599,-0.54889 -0.48758,-1.64098 -0.616,-2.18134c-0.36063,-1.51746 -0.41446,-1.99706 -0.508,-2.90666c-0.08994,-0.87468 -0.12323,-1.74632 -0.28268,-3.08284c-0.05545,-0.46474 -0.20688,-1.41405 -0.35333,-2.38916c-0.07413,-0.49362 -0.26498,-1.9888 -0.30399,-2.4915c-0.08191,-1.05539 -0.0972,-1.63646 -0.12134,-2.26866c-0.02664,-0.69713 -0.05096,-1.4724 -0.08401,-2.3385c-0.07855,-2.05751 -0.13629,-3.26822 -0.19998,-4.584c-0.06757,-1.3959 -0.14145,-2.84666 -0.216,-4.3275c-0.0748,-1.48584 -0.14969,-2.95157 -0.216,-4.3725c-0.12164,-2.60648 -0.1651,-3.74875 -0.19867,-4.78401c-0.03052,-0.94109 -0.05145,-1.8013 -0.06448,-2.59349c-0.01215,-0.73714 -0.01758,-1.43234 -0.0195,-2.09851c-0.00372,-1.29733 -0.00134,-1.95433 -0.00134,-2.63333c0,-0.713 0,-1.472 0,-2.289c0,-0.88699 0,-1.85599 0,-2.91899c0,-2.45601 0,-3.8665 0,-5.38c0,-1.5895 0,-3.228 0,-4.8885c0,-1.6555 0,-3.279 0,-4.84351c0,-2.84399 0,-4.0765 0,-5.184c0,-0.9975 0,-1.9 0,-2.7225c0,-0.7575 0,-1.465 0,-2.1375c0,-1.3 0,-1.9545 0,-2.616c0,-0.6655 0,-1.332 0,-1.9965c0,-0.6595 0,-1.311 0,-1.9515c0,-1.236 0,-1.82667 0,-2.40134c0,-0.56267 0,-1.11733 0,-1.668c0,-0.55067 0,-1.10533 0,-1.668c0,-1.16534 0,-1.77467 0,-2.4c0,-0.63733 0,-1.28267 0,-1.932c0,-0.64933 0,-1.29467 0,-1.932c0,-1.23466 0,-1.82516 0,-2.39867c0,-0.5595 0,-1.108 0,-1.6485c0,-0.5355 0,-1.069 0,-1.6035c0,-1.084 0,-1.63867 0,-2.20133c0,-0.56867 0,-1.14133 0,-1.716c0,-0.57467 0,-1.14733 0,-1.716c0,-1.11733 0,-1.6625 0,-2.19866c0,-0.52817 0,-1.04933 0,-1.5645c0,-0.51017 0,-1.01633 0,-1.5195c0,-1.00134 0,-1.50317 0,-2.016c0,-0.53484 0,-1.10267 0,-1.7145c0,-0.66684 0,-1.39967 0,-2.2095c0,-1.89467 0,-2.99583 0,-4.184c0,-1.25217 0,-2.54533 0,-3.8565c0,-1.30616 0,-2.58433 0,-3.8115c0,-2.20933 0,-3.1515 0,-3.98666c0,-0.74117 0,-1.40133 0,-1.9935c0,-0.53717 0,-1.03233 0,-1.4985c0,-0.89734 0,-1.35233 0,-1.81733c0,-0.475 0,-0.96 0,-1.455c0,-0.505 0,-1.02 0,-1.545c0,-1.08 -0.00345,-1.63618 0.00449,-2.8065c0.00427,-0.62818 0.0141,-1.29439 0.03152,-2.0055c0.01871,-0.76323 0.04126,-1.58571 0.13065,-3.43467c0.05017,-1.03756 0.11633,-2.13873 0.186,-3.288c0.07162,-1.1814 0.14786,-2.37863 0.22202,-3.576c0.07318,-1.1813 0.14972,-2.33022 0.25867,-4.46933c0.04895,-0.96082 0.08398,-1.84792 0.1095,-2.667c0.02359,-0.75693 0.03809,-1.45798 0.04648,-2.109c0.00784,-0.60698 0.01001,-1.176 0.01068,-2.224c0.00031,-0.4905 0,-0.964 0,-1.4235c0,-0.4485 0,-0.889 0,-1.3245c0,-0.4335 0,-1.752 0,-2.68c0,-0.494 0,-1.572 0,-2.168c0,-0.642 0,-1.336 0,-2.904c0,-0.88217 0,-1.81733 0,-2.7885c0,-0.99017 0,-1.98233 0,-2.9595c0,-0.94517 0,-1.84133 0,-3.41867c0,-0.65167 0,-1.21333 0,-1.695c0,-0.76333 0,-1.55833 0,-2.58067l0,-0.90533" id="svg_4" stroke-width="2" stroke="#000" fill="none"/>
  <path t="13630,13760,13760,13760,13760,13778,13778,13778,13778,13793,13793,13793,13793,13812,13812,13812,13812,13812,13828,13828,13828,13828,13844,13844,13844,13844,13844,13861,13861,13861,13861,13878,13878,13878,13878,13878,13894,13894,13894,13894,13894,13911,13911,13911,13911,13911,13928,13928,13928,13928,13928,13928,13944,13944,13944,13944,13944,13961,13961,13961,13961,13961,13978,13978,13978,13978,13994,13994,13994,13994,14010,14011,14011,14011,14028,14028,14028,14028,14028,14044,14044,14044,14044,14061,14061,14061,14061,14061,14061,14061,14077,14078,14078,14078,14094,14094,14095,14095,14095,14111,14111,14111,14111,14111,14111,14128,14128,14128,14128,14144,14144,14144,14145,14145,14161,14161,14161,14162,14162,14178,14178,14178,14178,14179,14194,14195,14195,14195,14195,14195,14211,14211,14211,14211,14211,14228,14228,14228,14228,14228,14228,14244,14244,14244,14244,14245,14261,14261,14261,14261,14261,14278,14278,14278,14278,14278,14278,14294,14294,14294,14294,14295,14295,14311,14311,14311,14311,14311,14311,14327,14328,14328,14328,14328,14344,14344,14344,14345,14345,14345,14361,14361,14361,14361,14361,14361,14378,14378,14378,14378,14378,14378,14394,14395,14395,14395,14395,14409,14409,14409,14410,14410,14427,14427,14427,14427,14427,14427,14443,14443,14443,14443,14443,14444,14459,14460,14460,14460,14460,14460,14476,14477,14477,14477,14477,14494,14494,14494,14494,14494,14494,14494,14511,14511,14511,14511,14511,14512,14528,14528,14529,14529,14529,14529,14544,14544,14544,14544,14545,14545,14563,14563,14563,14563,14563,14564,14581,14581,14582,14582,14582,14582,14582,14583,14601,14601,14601,14602,14602,14602,14602,14652,14652,14652,14652,14652,14653,14655,14655,14655,14655,14656,14656,14656,14658,14658,14658,14658,14659,14659,14659,14659,14661,14661,14661,14661,14662,14662,14662,14679,14679,14679,14679,14679,14680,14680,14680,14717,14717,14717,14718,14718,14718,14718,14718,14718,14720,14720,14721,14721,14721,14721,14721,14748,14749,14749,14749,14749,14749,14751,14751,14752,14752,14752,14752,14752,14753,14772,14773,14773,14773,14773,14774,14774,14793,14793,14793,14794,14794,14794,14794,14796,14796,14796,14797,14797,14818,14818,14819,14819,14819,14838,14838,14838" d="m315,6c0,5.93567 0,6.733 0,7.804c0,0.67733 0,1.7175 0,2.832c0,0.77467 0,1.56533 0,2.764c0,0.8 0,1.6 0,2.4c0,1.2 0,2 0,2.8c0,0.8 0,1.6 0,2.8c0,0.8 0,1.6 0,2.4c0,1.2 0,2 0,2.8c0,0.8 0,1.6 0,2.8c0,0.8 0,1.6 0,2.4c0,1.2 0,2.00134 0,2.81067c0,0.82533 0,1.2465 0,2.556c0,0.91733 0,1.85867 0,2.33333c0,0.94733 0,2.33333 0,3.21733c0,0.4345 0,1.3035 0,2.1925c0,1.4235 0,1.93283 0,2.9955c0,0.54533 0,1.644 0,2.18933c0,1.572 0,2.06234 0,2.991c0,0.87267 0,1.70533 0,2.91433c0,0.8 0,1.6 0,2.4c0,0.8 0,1.99983 0,2.7955c0,0.78366 0,1.54733 0,2.63783c0,1.014 0,1.66666 0,2.65067c0,1.0375 0,1.77316 0,2.53683c0,0.78366 0,1.97916 0,2.77917c0,0.8 0,1.6 0,2.39999c0,1.20033 0,2.009 0,2.84167c0,0.87267 0,2.29167 0,2.801c0,1.06267 0,1.608 0,2.15733c0,1.09467 -0.00696,1.63202 0.00034,3.157c0.00443,0.9287 0.00305,1.80557 0.11398,2.634c0.16309,1.2178 0.31601,1.6133 0.591,2.4135c0.28207,0.82078 0.64246,1.63874 0.96133,2.96217c0.10858,0.45065 0.23898,1.38468 0.29169,2.33334c0.05258,0.94643 0.04031,1.416 0.04166,2.7785c0.00085,0.86433 0,1.70066 0,2.517c0,1.2045 0,2.00583 0,2.81516c0,0.82533 0,1.67467 0,2.556c0,0.91734 0,1.85867 0,2.33334c0,0.94733 0,2.33334 0,3.21733c0,0.868 0,1.3035 0,2.1925c0,1.4235 0,1.93283 0,2.9955c0,0.54533 0,1.644 0,2.18933c0,1.572 0,2.0625 0,2.9955c0,0.88901 0,1.758 0,3.07651c0,0.45483 0,1.39049 0,2.35416c0,0.48984 0,1.4805 0,2.979c0,0.49884 0,1.4895 0,1.97934c0,0.96367 0,2.35416 0,3.23683c0,0.85866 0,1.284 0,2.13666c0,1.31401 0,2.23401 0,3.194c0,0.49501 0,1.515 0,2.04001c0,1.63466 0,2.19733 0,2.76599c0,1.14734 0,1.722 0,2.86334c0,1.11732 0,2.19867 0,2.72684c0,1.03633 0,1.54649 0,2.55583c0,1.00133 0,2 0,2.99066c0,0.48984 0,1.45351 0,2.84399c0,0.44568 0,1.323 0,2.20834c0,0.92532 0,1.41299 0,3.02232c0,0.588 0,1.194 0,2.436c0,0.62399 -0.00024,1.242 0,3c0.00009,0.53566 -0.00308,1.53317 0.02084,2.45833c0.01154,0.44579 0.03842,1.3259 0.2005,2.66301c0.11316,0.93372 0.20731,1.40347 0.35333,2.35333c0.14462,0.94083 0.27005,1.85767 0.34131,2.74266c0.06982,0.86717 0.09982,1.74467 0.16803,2.65201c0.07254,0.9648 0.19849,2.00018 0.26865,2.5405c0.14429,1.11139 0.22696,1.67488 0.29468,2.242c0.20062,1.67981 0.2338,2.2265 0.3045,3.291c0.03461,0.52109 0.08142,1.5499 0.2175,2.55583c0.13602,1.00551 0.39334,2.0015 0.53598,2.49683c0.28415,0.98677 0.47034,1.46107 0.72668,2.41917c0.36249,1.35484 0.46243,2.24089 0.496,2.68132c0.0686,0.90015 0.07065,1.85867 0.07199,2.90401c0.00146,1.15334 0,1.7625 0,2.38667c0,0.63416 0,1.91249 0,2.54666c0,1.23334 0,2.396 0,2.95233c0,1.07266 0,1.593 0,2.61166c0,1.00267 -0.00403,2.00406 0.01068,3.01334c0.00745,0.51021 0.03864,1.54697 0.07465,2.07466c0.11172,1.63783 0.19653,2.19893 0.26733,2.76733c0.14301,1.14789 0.2326,1.72073 0.36334,2.86334c0.12772,1.11618 0.17337,1.66223 0.22684,2.73582c0.02655,0.53326 0.04886,1.6095 0.05267,2.158c0.01196,1.72346 0.00449,2.33301 0.00449,2.9595c0,1.29199 0,1.95149 0,2.616c0,0.6665 -0.00177,1.332 0.00015,3.29317c0.00061,0.63617 0.00101,1.26437 0.01053,1.8855c0.01877,1.22546 0.03781,1.83197 0.07465,2.43466c0.11017,1.80312 0.1962,2.40163 0.26733,3.00134c0.1424,1.20059 0.22729,1.79939 0.29468,2.39999c0.20178,1.79829 0.23697,2.39983 0.26733,3.00133c0.061,1.20883 0.06726,1.81949 0.07465,2.43466c0.01498,1.2493 0.01068,2.53067 0.01068,3.18533c0,0.66269 0,1.33136 0,2.67868c0,0.67465 0,1.34732 0,2.01599c0,1.31735 0,2.60135 0,3.23584c0,0.63351 0,1.26901 0,2.55801c0,0.65948 0,2.0235 0,2.733c0,0.7265 0,1.46698 0,2.21848c0,0.75952 0,1.52402 0,2.2905c0,2.28152 0,3.02667 0,3.76285c0,0.72818 0,1.44934 0,2.16449c0,0.71017 0,1.41635 0,2.11951c0,2.10101 0,2.79868 0,3.49234c0,0.68765 0,1.36734 0,2.03699c0,1.30133 0,2.53867 0,3.12933c0,1.13733 0,1.69202 0,2.79333c0,0.55469 0,2.28268 0,2.89218c0,0.6265 0,1.267 0,2.578c0,0.66449 0,1.33099 0,1.99649c0,1.31601 -0.0004,2.59735 0.009,3.22549c0.00931,0.62125 0.05591,1.84705 0.10532,2.45267c0.04929,0.60379 0.19937,1.80853 0.45367,3.00317c0.1275,0.599 0.28439,1.19025 0.58133,2.36533c0.14621,0.57861 0.33145,1.14188 0.60767,2.81433c0.08798,0.53265 0.18362,1.57446 0.22168,2.57501c0.01843,0.4848 0.02133,1.88 0.02133,2.76001c0,0.84 0,1.63998 0,2.39999l0,1.06482l0,0.96451l0,0.8385" id="svg_5" stroke-width="2" stroke="#000" fill="none"/>
  <path t="15215,15327,15327,15327,15327,15327,15344,15344,15344,15344,15344,15344,15344,15344,15361,15361,15361,15361,15361,15361,15361,15361,15361,15377,15378,15378,15378,15378,15378,15378,15378,15378,15394,15394,15394,15394,15394,15394,15394,15394,15394,15411,15411,15411,15411,15411,15411,15411,15411,15412,15427,15427,15428,15428,15428,15428,15428,15428,15428,15444,15444,15444,15445,15445,15445,15445,15445,15445,15461,15461,15461,15461,15461,15461,15461,15461,15461,15477,15478,15478,15478,15478,15478,15478,15478,15478,15494,15494,15494,15494,15494,15495,15495,15495,15495,15511,15511,15511,15511,15511,15511,15511,15511,15511,15528,15528,15528,15528,15528,15528,15544,15544,15544,15545,15545,15545,15545,15561,15561,15561,15561,15561,15561,15561,15578,15578,15578,15578,15578,15578,15578,15594,15594,15594,15595,15595,15595,15595,15611,15611,15611,15611,15611,15611,15611,15611,15628,15628,15628,15628,15628,15628,15628,15628,15644,15644,15644,15644,15645,15645,15645,15661,15661,15661,15662,15662,15662,15678,15678,15678,15678,15678,15678,15694,15694,15694,15695,15695,15695,15711,15711,15711,15711,15711,15711,15728,15728,15728,15728,15728,15728,15744,15744,15744,15744,15744,15744,15763,15763,15764,15764,15764,15782,15782,15782,15782,15782,15783,15801,15801,15802,15802,15802,15802,15820,15820,15820,15820,15820,15841,15842,15842,15842,15842,15857,15858,15858,15858,15859,15883,15883,15883,15883,15883,15900,15901,15901,15901,15901,15920,15920,15920,15920,15920,15920,15936,15937,15937,15937,15937,15953,15953,15953,15954,15954,15970,15970,15971,15971,15971,15971,15987,15987,15988,15988,15988,15988,15988,16005,16006,16006,16006,16006,16006,16025,16025,16025,16026,16026,16026,16026,16072,16072,16073,16073,16073,16073,16073,16076,16077,16077,16077,16077,16077,16079,16079,16079,16080,16080,16080,16080,16098,16099,16099,16099,16099,16099,16099,16100,16100" d="m318,10c-3.51401,6.15767 -3.78848,7.10088 -3.85599,7.57067c-0.13614,0.94765 -0.14133,1.96799 -0.14401,3.096c-0.00146,0.61933 0,1.27467 0,2.67733c0,0.73933 0,1.49867 0,2.274c0,0.78733 0,2.382 0,3.182c0,0.8 0,1.6 0,2.4c0,0.8 0,1.6 0,2.4c0,0.8 0,2.4 0,3.19984c0,0.79883 0,1.59566 0,2.3895c0,0.78983 0,1.57467 0,2.3535c0,0.77184 0,2.2905 0,3.036c0,0.7385 0,1.473 0,2.2065c0,0.7355 0,1.476 0,2.2245c0,0.7595 0,2.3235 0,3.13333c0,0.82883 0,1.67567 0,2.5395c0,0.87983 0,1.77467 0,2.6835c0,0.92183 0,2.8005 0,3.75517c0,0.96267 0,1.93133 0,2.904c0,0.97467 0,1.94934 0,2.922c0,0.96867 0,2.886 0,3.831c0,0.935 0,1.86 0,2.775c0,0.905 0,1.8 0,2.685c0,0.875 0,2.595 0,3.43983c0,0.83383 0,1.65566 0,2.4645c0,0.79483 0,1.57466 0,2.33849c0,0.74683 0,2.1855 0,2.87617c0,0.67467 0,1.33733 0,1.992c0,0.65067 0,1.30133 0,1.956c0,0.66267 0,2.028 0,2.7375c0,0.7265 0,1.467 0,2.2185c0,0.75951 0,1.524 0,2.2905c0,0.7655 0,2.2815 0,3.02633c0,0.73383 0,1.45567 0,2.16451c0,0.69483 0,1.37466 0,2.0385c0,0.64684 0,1.8855 0,3.0495c0,0.5595 0,1.108 0,2.184c0,0.5335 0,2.152 0,2.70683c0,1.13567 0,1.7145 0,2.29934c0,1.18366 0,1.78049 0,2.97916c0,1.20133 0,1.8045 0,2.41067c0,1.22533 0,1.8465 0,2.47466c0,1.28133 0,2.59867 0,3.26733c0,0.67267 0,1.34734 0,2.022c0,1.34134 0,2.65866 0,3.304c0,0.63733 0,1.896 0,2.52133c0,0.62534 0,1.25267 0,3.16667c0,0.65483 0,1.31866 0,1.99049c0,1.36366 0,2.0535 0,2.74733c0,0.69684 0,2.0955 0,2.79533c0,0.69884 0,2.08951 0,2.77934c0,0.68483 0,1.36366 0,2.03549c0,1.31866 0,2.60001 0,3.22816c0,0.62117 0,1.84651 0,2.45267c0,0.60316 0,2.40434 0,3.00317c0,0.59683 0,1.7805 0,2.36533c0,0.57884 0,2.26933 0,2.8145c0,1.06435 0,1.58551 0,2.61084c0,1.00934 0,2.01067 0,3.01199c0,0.50317 0,1.5195 0,2.03467c0,1.04933 -0.00241,2.13068 0.00134,3.248c0.00192,0.56866 0.01648,1.71609 0.03467,2.29066c0.01813,0.57278 0.12445,2.25932 0.18533,2.80383c0.1192,1.06577 0.20505,1.58536 0.35333,2.61084c0.07318,0.50609 0.27097,2.00974 0.34,3.00934c0.03427,0.49644 0.06946,1.48042 0.08084,2.44417c0.00558,0.47182 0.00449,1.836 0.00449,2.709c0,0.86899 -0.00006,1.758 0,2.2175c0.00018,1.4735 -0.00784,2.00023 0.02133,3.092c0.01495,0.55966 0.08014,1.69193 0.14932,2.256c0.13727,1.1194 0.39069,2.19778 0.53467,2.72101c0.28171,1.02365 0.60074,1.99686 0.72668,2.47499c0.35748,1.35719 0.46957,2.2328 0.52634,3.08667c0.02826,0.42488 0.04031,1.284 0.04166,2.62134c0.00092,0.93134 0,1.40399 0,2.35333c0,0.94133 0,2.304 0,2.74133c0,0.85866 0,1.70934 0,2.56799c0,1.33734 0,2.26868 0,2.74133c0,0.94934 0,1.89067 0,2.808c0,0.884 0,1.752 0,2.62801c0,0.908 0,1.87199 0,2.90666c0,0.53734 0,1.632 0,2.18134c0,1.08267 -0.00433,2.11736 0.00134,3.08c0.00531,0.8987 0.01324,1.7509 0.08398,2.56799c0.10443,1.20616 0.26746,2.01166 0.34,2.42401c0.14963,0.85062 0.32126,1.74628 0.45319,3.22166c0.04709,0.52679 0.08807,1.62894 0.10065,2.19867c0.01279,0.57962 0.02002,1.761 0.02084,2.95833c0.00043,0.59984 0.00247,1.79553 0.01068,2.38933c0.00815,0.58987 0.03723,1.75404 0.07465,2.32533c0.1091,1.66615 0.19495,2.20317 0.34,3.27068c0.07281,0.53575 0.164,1.07423 0.29068,2.18401c0.13269,1.16235 0.20206,2.39862 0.23584,3.03598c0.03421,0.64532 0.06195,1.29517 0.1095,1.944c0.09406,1.28378 0.25882,2.51993 0.38132,3.10785c0.23724,1.13858 0.41055,1.68079 0.70667,2.75751c0.14661,0.53314 0.33868,1.05786 0.60767,2.70682c0.09152,0.56107 0.17612,1.71426 0.20135,2.29935c0.02545,0.5896 0.04031,1.78049 0.04166,2.97916c0.00067,0.60049 0,1.81351 0,2.43201c0,0.63049 0,1.276 0,2.62399c0,1.444 0,2.20715 0,2.98932c0,0.79019 0,1.57736 0,2.35052l0,0.74817l0,0.71216l0,0.66516" id="svg_6" stroke-width="2" stroke="#000" fill="none"/>
  <path t="16413,16510,16510,16510,16510,16510,16510,16528,16528,16528,16528,16528,16528,16528,16528,16543,16543,16544,16544,16544,16544,16544,16544,16561,16561,16561,16561,16561,16561,16561,16561,16561,16578,16578,16578,16578,16578,16578,16578,16578,16578,16594,16594,16595,16595,16595,16595,16595,16595,16595,16611,16611,16611,16611,16611,16611,16611,16611,16611,16628,16628,16628,16628,16628,16628,16628,16628,16628,16643,16644,16644,16644,16644,16644,16644,16644,16644,16661,16661,16661,16661,16662,16662,16662,16662,16662,16678,16678,16678,16678,16678,16678,16678,16678,16678,16694,16695,16695,16695,16695,16695,16695,16695,16695,16711,16711,16711,16711,16711,16711,16711,16712,16712,16728,16728,16728,16728,16728,16728,16728,16728,16728,16751,16751,16751,16751,16751,16751,16751,16752,16752,16778,16778,16778,16778,16778,16778,16778,16779,16779,16780,16780,16780,16780,16781,16781,16781,16781,16781,16806,16807,16807,16807,16807,16807,16808,16808,16808,16833,16833,16833,16833,16834,16834,16834,16834,16834,16861,16861,16861,16861,16861,16861,16861,16862,16862,16891,16891,16892,16892,16892,16892,16892,16892,16892,16895,16895,16895,16895,16896,16896,16896,16896,16896,16899,16899,16899,16899,16899,16899,16899,16899,16900,16901,16901,16901,16902,16902,16902,16902,16902,16903,16930,16930,16930,16930,16931,16931,16931,16931,16931,16933,16933,16933,16933,16933,16933,16933,16934,16934,16963,16963,16963,16963,16963,16964,16964,16964,16964,16965,16966,16966,16966,16966,16966,16966,16995,16995,16996,16996,16996,16996,16998,16998,16998,16998,16998,17028,17028,17028,17029,17029,17029,17031,17031,17031,17031,17031,17060,17060,17060,17061,17061,17062,17062,17063,17063,17093,17094,17094,17096,17096" d="m307,48c-0.87851,9.89283 -0.91769,10.57588 -0.94284,11.22317c-0.02402,0.61806 -0.04883,1.79548 -0.05267,2.36867c-0.01166,1.74146 -0.00449,2.35117 -0.00449,2.97883c0,0.64367 0,1.971 0,2.65067c0,0.68766 0,1.38133 0,2.77866c0,0.7005 0,1.404 0,2.832c0,0.7305 0,1.476 0,2.2395c0,0.7845 0,2.4285 0,3.2935c0,0.895 0,1.82 0,2.775c0,0.985 0,2 0,3.045c0,1.075 0,3.315 0,4.47884c0,1.18684 0,2.38966 0,3.6015c0,1.21383 0,2.42267 0,3.6195c0,1.17783 0,3.4485 0,4.52934c0,1.04583 0,2.06166 0,3.0525c0,0.97083 0,1.92667 0,2.8725c0,0.94083 0,2.8275 0,3.78217c0,0.96267 0,1.93134 0,2.904c0,0.97467 0,1.94934 0,2.922c0,0.96867 0,2.886 0,3.83133c0,0.93734 0,1.86867 0,2.79601c0,0.92533 0,1.85066 0,2.778c0,0.93133 0,2.814 0,3.76884c0,0.96382 0,1.93565 0,2.91449c0,0.98483 0,1.97467 0,2.96851c0,0.99683 0,2.9955 0,3.99533c0,0.99884 0,1.99567 0,2.9895c0,0.98984 0,1.97467 0,2.95351c0,0.97183 0,2.89049 0,3.83549c0,0.935 0,1.86 0,2.77499c0,0.905 0,1.8 0,2.685c0,0.875 0,2.595 0,3.44017c0,0.83617 0,1.66434 0,2.4855c0,0.81517 0,1.62534 0,2.4315c0,0.80316 0,2.4045 0,3.20467c0,0.80116 0,1.60432 0,2.41049c0,0.81017 0,1.62534 0,2.4465c0,0.82817 -0.00052,2.50951 0.00015,3.36417c0.00067,0.86267 0.00235,1.73135 0.01053,2.604c0.00818,0.87468 0.02176,1.74942 0.04648,2.62199c0.0246,0.86877 0.10519,2.58629 0.16418,3.43117c0.05841,0.83647 0.13004,1.66444 0.20398,2.4855c0.07343,0.81529 0.15121,1.62517 0.22202,2.4315c0.07053,0.80299 0.18948,2.40431 0.23151,3.20433c0.04196,0.79866 0.0719,1.5957 0.10648,2.3895c0.03442,0.78989 0.07028,1.57506 0.12451,2.3535c0.0538,0.77225 0.21503,2.29179 0.33282,3.03584c0.11694,0.73869 0.26056,1.46909 0.40802,2.196c0.14722,0.72575 0.30289,1.44981 0.444,2.17799c0.14157,0.73053 0.38083,2.213 0.46249,2.96883c0.08243,0.76292 0.13715,1.53543 0.18149,2.3145c0.04468,0.78461 0.07556,1.57469 0.1095,2.36852c0.03406,0.79684 0.11447,2.39578 0.17319,3.19516c0.05862,0.79797 0.12994,1.59146 0.20398,2.379c0.0733,0.77979 0.1507,1.54921 0.22202,2.30701c0.06998,0.74355 0.18848,2.18085 0.23166,2.87149c0.04208,0.67336 0.07407,1.33322 0.117,1.98151c0.04242,0.64073 0.09253,1.27702 0.17099,1.9095c0.07886,0.63565 0.3223,1.92128 0.49716,2.573c0.17831,0.66452 0.39355,1.32863 0.6225,1.9935c0.2294,0.66617 0.47379,1.32385 0.71252,1.97549c0.23459,0.64035 0.67398,1.87445 0.85767,2.46718c0.17749,0.57274 0.33148,1.13562 0.46048,1.692c0.12729,0.54906 0.23224,1.10023 0.3165,1.65599c0.08517,0.56166 0.20447,1.72765 0.24469,2.33734c0.04123,0.625 0.06735,1.26257 0.08548,1.90799c0.01822,0.64926 0.02682,1.29866 0.03152,1.944c0.00464,0.63733 0.00449,1.87201 0.00449,2.46268c0,0.57466 0,1.13733 0,1.692c0,0.55066 0,1.10132 0,1.65599c0,0.56267 -0.00052,1.728 0.00015,2.33734c0.00067,0.62532 0.00238,1.26268 0.01053,1.90799c0.00821,0.64937 0.02164,1.29881 0.04648,1.944c0.02454,0.6375 0.10464,1.87245 0.16418,2.46251c0.05792,0.57397 0.12979,1.13321 0.20398,1.68149c0.07318,0.54071 0.1514,1.07574 0.22202,1.6095c0.07071,0.53424 0.19073,1.61813 0.23117,2.17319c0.04095,0.56232 0.06735,1.13123 0.08548,1.70398c0.01819,0.57458 0.02686,1.14935 0.03152,1.72202c0.00464,0.56866 0.00449,1.686 0.00449,2.23132c0,0.53732 0,1.59601 0,2.12134c0,1.05267 0,1.58401 0,3.22116c0,0.56149 0,1.69351 0,2.258c0,0.55951 0,1.65152 0,3.17816c0,0.47467 0,1.39203 0,2.29333c0,0.91736 0,1.88269 0,2.91736c0,0.53732 0,1.63199 0,2.18134c0,1.08264 0,2.11731 0,3.07999c0,0.89868 0,1.74933 0,2.16165c0,1.20901 0,2.009 0,2.80902c0,0.79999 -0.0105,1.60007 0.00034,2.79965c0.01065,1.17917 0.00903,1.94006 0.17032,2.62967c0.28787,1.23087 0.68002,1.69867 1.12402,2.36166l0.53467,1.00769l0.14932,0.76532" id="svg_7" stroke-width="2" stroke="#000" fill="none"/>
  <path t="17410,17543,17543,17543,17543,17543,17569,17569,17569,17569,17569,17569,17597,17597,17597,17597,17597,17597,17598,17599,17599,17599,17599,17599,17599,17599,17627,17627,17627,17627,17627,17627,17627,17628,17628,17628,17628,17628,17628,17657,17657,17657,17657,17657,17657,17685,17685,17685,17685,17685,17685,17713,17713,17713,17713,17713,17713,17742,17742,17742,17742,17742,17742,17744,17744,17744,17744,17744,17744,17745,17745,17745,17745,17745,17746,17747,17747,17747,17747,17747,17747,17773,17773,17773,17773,17773,17773,17798,17798,17798,17798,17798,17798,17799,17800,17800,17800,17800,17800,17826,17826,17826,17826,17826,17826,17850,17850,17850,17850,17879,17879,17879,17879,17879,17907,17907,17908,17908,17910,17910,17910,17910,17910,17910,17912,17912,17912,17912,17914,17915,17915,17915,17915,17940,17940,17940,17940,17941,17999,17999,18000,18000,18000,18025,18026,18026,18026,18026,18026,18051,18051,18052,18052,18052,18052,18052,18052,18052,18053,18054,18054,18054,18054,18054,18054,18054,18054,18055,18056,18056,18056,18056,18056,18056,18087,18088,18088,18088,18089,18089,18090,18090,18090,18116,18116,18116,18116,18118,18118,18118,18118,18144,18144,18144,18144,18146,18146,18146,18146,18172,18172,18172,18198,18198,18198,18199,18199,18200,18226,18226,18252,18277,18277,18277,18303,18303,18304,18305,18305,18331" d="m305,196c1.75699,-3.74316 1.90259,-4.61769 1.95834,-5.5625c0.02917,-0.49438 0.04031,-1.5255 0.04166,-2.60417c0.00137,-1.11732 0,-1.68599 0,-2.83333c0,-0.57466 0,-1.14734 0,-2.83333c0,-0.5455 0,-1.6185 0,-2.15201c0,-1.076 0,-1.6245 0,-3.34799c0,-0.60951 0,-1.23601 0,-1.87651c0,-1.31099 0,-1.97549 0,-2.642c0,-0.6655 0,-1.98149 0,-3.26283c0,-0.62816 0,-1.24933 0,-2.47467c0,-0.60616 0,-1.20932 0,-3.0105c0,-0.59883 0,-1.19566 0,-2.37933c0,-0.58482 0,-1.16367 0,-2.85416c0,-0.54517 0,-1.60951 0,-2.13068c0,-1.02533 0,-2.03467 0,-3.036c0,-1.00133 0,-1.5045 0,-2.52083c0,-0.51517 0,-1.5645 0,-2.64584c0,-1.11732 0,-1.68599 0,-2.83333c0,-0.57466 0,-1.14734 0,-2.83333c0,-0.54517 0,-1.60951 0,-2.13068c0,-1.02533 0,-2.03467 0,-3.036c0,-1 0,-1.5 0,-2.5c0,-1 0,-1.5 0,-3.00017c0,-0.50116 0,-1.5105 0,-2.02066c0,-1.03633 0,-1.56451 0,-3.20051c0,-0.56266 0,-1.70399 0,-2.27866c0,-1.14733 0,-1.716 0,-2.83334c0,-1.08133 0,-1.6095 0,-2.64583c0,-1.01633 0,-1.5195 0,-3.021c0,-0.50117 0,-1.5105 0,-2.02067c0,-1.03633 0,-1.5645 0,-3.2005c0,-0.56266 0,-1.70399 0,-2.27866c0,-1.14733 0,-1.716 0,-2.83334c0,-1.07999 0,-1.605 0,-2.625c0,-0.98 0,-1.45499 0,-2.82017c0,-0.86433 0,-1.70066 0,-2.517c0,-1.2045 0,-2.0045 0,-2.8045c0,-0.8 0.00314,-1.60001 -0.00015,-2.80017c-0.00223,-0.80434 -0.00397,-1.62156 -0.05701,-2.457c-0.08328,-1.31142 -0.15756,-1.76511 -0.2955,-2.6955c-0.14059,-0.94836 -0.2363,-1.41997 -0.36334,-2.36333c-0.18314,-1.35989 -0.2366,-2.22646 -0.26315,-3.06316c-0.02588,-0.81609 -0.02084,-2.02084 -0.02084,-2.82084c0,-0.8 0.00006,-1.6 0,-2.39999c-0.00009,-1.20017 -0.00134,-2.00456 -0.01068,-2.41067c-0.01895,-0.8255 -0.04889,-1.67754 -0.21066,-3.01067c-0.11331,-0.9337 -0.20731,-1.40348 -0.35333,-2.35334c-0.14462,-0.94083 -0.27585,-1.85727 -0.34,-2.75333c-0.06741,-0.94155 -0.06995,-1.45944 -0.08084,-2.63917c-0.00632,-0.68481 -0.00449,-2.2995 -0.00449,-3.24633c0,-1.02784 0,-2.11767 0,-3.2505c0,-1.15683 0,-2.31867 0,-3.4665c0,-1.11483 0,-3.1695 0,-4.07583c0,-0.82433 0,-1.57467 0,-2.259c0,-0.62634 0,-1.20267 0,-1.737c0,-0.50034 0,-1.431 0,-1.87617c0,-0.43617 0,-0.86433 0,-1.2855c0,-0.82533 0.00635,-1.63469 -0.00034,-2.836c-0.00446,-0.80003 -0.00543,-1.60408 -0.11398,-2.4c-0.16486,-1.20863 -0.44662,-2.00252 -0.73636,-2.8c-0.2916,-0.8026 -0.64423,-1.58471 -0.90631,-2.79984c-0.16992,-0.78789 -0.21454,-1.57888 -0.23401,-2.343c-0.0278,-1.09018 -0.009,-2.1045 -0.009,-2.75717c0,-0.65267 0,-2.0215 0,-2.75717c0,-0.76367 0,-1.54733 0,-2.74283c0,-0.79733 0,-1.57867 0,-2.328c0,-1.33867 0,-2.16217 0,-2.88667c0,-0.952 0,-1.7425 0,-2.596c0,-1.18933 0,-1.78667 0,-2.64767c0,-1.20833 0,-2 0,-2.85067c0,-1.02433 0,-1.69633 0,-2.44033c0,-1.108 0,-1.90133 0,-3.01867l0,-0.732l0,-0.732l0,-1.11733" id="svg_8" stroke-width="2" stroke="#000" fill="none"/>
 </g>
 <g display="none">
  <title>muse_image</title>
  <image xlink:href="http://static.flickr.com/33/61725814_98891ecf8c.jpg" id="muse" height="480" width="360" y="0" x="140"/>
 </g>
 <g display="none">
  <title>bbox</title>
  <rect stroke="#f00" fill="none" stroke-width="3" height="477.12" width="119.04" y="0" x="290.72" id="bbox"/>
 </g>
</svg>
