<svg width="640" height="480" xmlns="http://www.w3.org/2000/svg" xmlns:svg="http://www.w3.org/2000/svg" xmlns:xlink="http://www.w3.org/1999/xlink">
 <!-- Sketchy ANNOTATION
  ImageNet ID: n02676566_8467
  URL: http://farm4.static.flickr.com/3346/3314193918_4f35dfe87c.jpg
  Image Width: 334
  Image Height: 500
  BBox X: 58
  BBox Y: 1
  BBox Width: 215
  BBox Height: 467
  Exposure: 2000ms
  Synset Label: guitar
  Synset ID: n03467517
  Worker Tag: guitar in room
  Sanity Check: 
   Saved
  Comment: 
   {}
  Worker ID: A1Y3PSVSU557SW
  Assignment ID: 3KAKFY4PGU2C08A1F9AOX0APYXVI3R
  HIT ID: 375VMB7D4JJ8VGE4IWBYLP1GLQADIS
  Work Time: 38s
  Worker Score: 0.5500
 END ANNOTATION -->
 <g display="inline">
  <title>Layer 1</title>
  <path t="0,47,55,63,71,71,79,79,79,87,87,87,95,95,95,104,104,104,104,104,111,111,120,120,120,120,127,127,127,137,137,137,137,143,143,143,143,153,153,161,161,161,173,173,175,175,187,187,187,191,191,191,203,204,204,207,207,215,215,223,223,223,231,231,239,239,247,255,255,255,263,263,263,271,271,279,279,279,287,295,295,295,305,305,305,311,311,321,321,327,327,327,337,337,337,343,354,354,354,359,359,359,371,375,375,375,388,388,388,391,391,391,404,404,407,407,415,415,423,423,431,431,439,439,439,447,447,447,455,455,463,463,463,471,471,471,479,479,479,487,488,495,495,495,504,511,511,511,521,521,521,527,527,537,537,543,543,555,555,559,559,559,571,571,575,575,575,587,587,591,591,604,604,604,607,623,623,639,639,647,663,671,688,695,695,695,704,711,721,721,727,738,743,743,754,759,771,775,795,796,799,799,799,807,807,815,815,823,823,831,839,839,847,847,855,855,855,863,863,872,872,879,879,888,888,888,895,904,904,904,911,911,921,921,921,921,927,927,938,938,938,938,943,943,943,954,954,959,959,959,971,971,971,971,975,975,1009,1009,1009,1010,1031,1031,1031,1032,1032,1032,1032,1039,1039,1039,1040,1047,1047,1047,1055,1055,1055,1063,1063,1063,1071,1071,1071,1079,1079,1079,1087,1088,1088,1095,1095,1104,1104,1104,1111,1121,1121,1121,1127,1127,1127,1137,1137,1138,1143,1190,1191,1191,1191,1191,1194,1194,1194,1194,1195,1195,1195,1195,1195,1210,1210,1210,1210,1210,1216,1216,1216,1217,1226,1226,1226,1231,1231,1239,1239,1247,1247,1247,1255,1263,1263,1272,1272,1279,1288,1288,1295,1295,1312,1312,1326,1326,1326,1328,1340,1343,1343,1359,1375,1375,1377,1389,1389,1392,1408,1409,1416,1416,1416,1425,1425,1431,1432,1440,1447,1447,1447,1455,1456,1456,1456,1463,1464,1464,1473,1473,1473,1473,1479,1479,1479,1492,1493,1493,1495,1495,1495,1507,1508,1508,1508,1511,1511,1511,1526,1526,1526,1528,1529,1529,1539,1539,1543,1543,1543,1559,1559,1560,1562,1562,1562,1575,1575,1575,1590,1591,1591,1593,1594,1594,1609,1609,1615,1616,1616,1616,1624,1624,1624,1631,1631,1639,1639,1647,1647,1648,1656,1656,1656,1663,1664,1664,1675,1675,1679,1679,1679,1680,1690,1690,1690,1690,1695,1696,1696,1697,1706,1706,1706,1711,1712,1712,1724,1724,1724,1725,1727,1727,1727,1743,1743,1744,1746,1746,1747,1756,1757,1757,1759,1760,1760,1773,1774,1774,1776,1803,1803,1803,1804,1804,1813,1813,1814,1814,1814,1814,1815,1823,1823,1823,1823,1824,1825,1826,1826,1826,1849,1849,1849,1850,1859,1859,1859,1860,1860,1860,1860,1863,1863,1863,1864,1864,1872,1872,1872,1879,1879,1879,1880,1888,1889,1889,1895,1895,1896,1896,1906,1907,1907,1911,1911,1912,1912,1923,1923,1927,1927,1928,1928,1928,1939,1939,1939,1943,1944,1944,1956,1956,1956,1959,1960,1960,1975,1976,1976,1989,1989,1989,1990,1990,1990,1992,1992,1992,1993,1993,2006,2006,2006,2007,2008,2015,2016,2016,2016,2025,2025,2026,2031,2031,2032,2040,2040,2040,2047,2055,2055,2063,2063,2071,2072,2079,2079,2088,2095,2095,2108,2111,2111,2123,2123,2127,2139,2139,2143,2143,2156,2159,2159,2175,2175,2177,2178,2189,2190,2192,2192,2205,2207,2207,2215,2216,2223,2223,2231,2231,2240,2240,2255,2263,2263,2272,2272,2272,2279,2289,2289,2295,2295,2308,2311,2311,2323,2323,2323,2327,2340,2340,2343,2343,2343,2355,2356,2359,2359,2372,2372,2372,2375,2375,2375,2389,2391,2391,2391,2405,2407,2415,2415,2415,2423,2423,2431,2439,2439,2440,2447,2447,2447,2455,2463,2463,2472,2472,2472,2479,2479,2479,2488,2489,2495,2495,2505,2505,2511,2511,2521,2522,2527,2527,2538,2538,2539,2543,2543,2555,2555,2559,2571,2572,2572,2601,2601,2602,2633,2633,2634,2634,2634,2634,2639,2640,2640,2640,2641,2647,2648,2677,2677,2679,2680,2680,2709,2709,2711,2742,2776,2776,2776,2820,2821,2821,2821,2834,2834,2835,2835,2839,2839,2840,2847,2882,2882,2912,2912,2912,2913,2962,2962,2963,2963,2964,2964,2973,2973,2973,2974,2974,2974,2976,2977,2977,2989,2991,2991,3006,3007,3015,3023,3031,3031,3048,3048,3063,3072,3095,3127,3138,3143,3159,3176,3177,3190,3190,3191,3192,3192,3192,3205,3206,3206,3206,3208,3208,3208,3209,3215,3215,3216,3224,3225,3225,3231,3231,3232,3241,3241,3242,3247,3247,3248,3248,3256,3257,3257,3263,3263,3273,3279,3279,3289,3289,3295,3295,3308,3308,3311,3322,3322,3327,3327,3338,3343,3355,3359,3372,3388,3388,3391,3405,3405,3407,3415,3423,3431,3431,3440,3447,3455,3478,3479,3495,3505,3506,3511,3522,3527,3538,3539,3543,3543,3555,3556,3559,3559,3559,3572,3572,3573,3573,3575,3575,3576,3576,3589,3589,3590,3590,3592,3592,3592,3593,3605,3606,3606,3606,3607,3608,3608,3609,3609,3615,3616,3616,3616,3617,3625,3625,3626,3626,3626,3626,3631,3631,3632,3632,3632,3633,3641,3641,3642,3642,3642,3643,3647,3647,3648,3648,3648,3657,3657,3658,3658,3658,3658,3663,3663,3664,3664,3664,3672,3673,3673,3673,3674,3679,3679,3680,3680,3688,3689,3689,3690,3695,3695,3695,3696,3705,3705,3711,3711,3711,3722,3723,3727,3743,3743,3755,3756,3759,3759,3772,3775,3775,3789,3789,3791,3791,3805,3807,3807,3808,3826,3827,3831,3832,3855,3871,3871,3888,3895" d="m276,144.78333c-1.70001,0 -2.61929,0.00137 -3.39999,-0.42532c-0.82489,-0.45085 -1.57068,-0.57401 -2.61435,-0.57468c-0.80698,-0.00052 -1.38834,0 -2.58566,0c-0.89999,0 -1.50003,-0.00685 -2.70016,0.00017c-0.91052,0.00533 -1.54074,-0.00703 -2.86649,0.1665c-0.71942,0.09418 -1.44785,0.25938 -2.172,0.408c-0.69186,0.142 -1.89417,0.32329 -2.87601,0.45067c-0.95444,0.12383 -1.74554,0.32181 -2.59601,0.58533c-0.59286,0.1837 -1.78934,0.58934 -2.38933,0.78934c-0.90001,0.3 -1.80305,0.59109 -2.7,0.9045c-0.60211,0.21039 -1.51266,0.55562 -2.39984,1.01683c-0.60477,0.31441 -1.46155,0.8576 -2.01483,1.19467c-0.99535,0.60638 -1.66379,0.96455 -2.68533,1.48399c-0.78879,0.40109 -1.5318,0.77579 -2.24733,1.3c-0.65303,0.47842 -1.42668,0.9778 -2.15717,1.45717c-0.81535,0.53506 -1.38324,1.08263 -1.9955,1.59016c-0.78456,0.65038 -1.6342,1.11501 -2.11467,1.62201c-0.68787,0.72585 -0.96388,1.55174 -1.284,2.34799c-0.40056,0.99632 -0.64793,1.67377 -1.20134,2.51601c-0.45761,0.69644 -1.11497,1.47981 -1.5,2.1875c-0.31229,0.57397 -0.7692,1.59198 -1.2,2.32199c-0.46739,0.79201 -1.13283,1.42531 -1.7,2.06784c-0.63872,0.72359 -1.06252,1.41121 -1.31467,2.276c-0.28474,0.97652 -0.27318,1.81316 -0.28401,2.62933c-0.01326,0.99857 0.04652,1.8924 -0.22282,2.88383c-0.16446,0.60536 -0.64944,1.27167 -1.16783,2.1855c-0.51651,0.91052 -0.5728,1.62358 -0.60001,2.39999c-0.03671,1.04741 0.04257,1.98688 -0.09599,2.81334c-0.13652,0.81422 -0.57521,1.57918 -0.79317,2.60133c-0.16814,0.78857 -0.12151,1.79999 -0.12151,2.61066c0,0.87468 0,1.87201 0,2.6685c0,0.7515 0,1.87016 0,2.85417c0,0.681 0,1.48799 0,2.66666c0,0.59601 0,1.4375 0,2.5c0,1 -0.02654,1.80054 0.05716,2.55634c0.11397,1.02917 0.37529,1.71976 0.64734,2.39633c0.39026,0.97057 0.7079,1.75484 0.93834,2.53751c0.30385,1.03195 0.35986,1.92795 0.80383,2.83517c0.26799,0.54761 1.08556,1.23256 1.692,1.79999c0.67998,0.63623 0.77255,1.63385 1.304,2.35333c0.45343,0.61385 1.3401,1.33492 1.55733,2.063c0.19055,0.6387 0.54599,1.65469 1.02083,2.4375c0.31577,0.52055 1.07768,1.56723 1.60451,2.1355c0.67441,0.72746 1.19223,1.23149 1.77916,1.73267c0.77242,0.65958 1.61974,1.14684 2.28084,1.53667c1.00258,0.5912 1.53908,0.92715 2.30484,1.46333c0.87846,0.6151 1.46321,1.16776 2.1765,1.65266c0.6373,0.43324 1.36102,0.78362 2.20799,1.40001c0.80339,0.58467 1.48297,0.97743 2.22667,1.48534c0.82425,0.56291 1.38126,1.13562 1.99867,1.63066c0.77895,0.62454 1.57883,1.10735 2.39999,1.31734c0.77513,0.19823 1.843,0.0741 2.62534,0.20267c0.88446,0.14536 1.60655,0.59862 2.54134,0.79733c0.77251,0.16423 1.62086,0.00691 2.69051,0.38834c0.81808,0.29172 1.45624,1.10805 1.97882,1.60367c0.56,0.53111 1.358,1.16234 2.14316,1.65382c0.84802,0.53082 1.51108,1.07434 2.35419,1.52083c0.6467,0.34248 1.46951,0.46191 2.30249,1.09984c0.80362,0.61543 1.44901,0.71239 2.3425,1.12167c0.74356,0.34061 0.84177,1.38702 1.37885,2.07399c0.5816,0.74388 1.48468,0.93819 1.80948,1.87117c0.23267,0.6683 0.6778,1.3246 0.82266,2.42267c0.10745,0.81435 0.01068,1.73199 0.01068,2.58533c0,0.94 0,1.92534 0,2.82533c0,0.8 0,1.70001 0,2.60001c0,0.89999 0,1.81067 0,2.7215c0,0.69934 0,1.6785 0,2.47852c0,0.79999 0.00107,1.79999 0,2.59998c-0.00134,0.99734 0.0293,2.07336 -0.70984,2.49017c-0.72308,0.40775 -1.68335,0.51489 -2.39017,1.21002c-0.52252,0.51389 -1.11273,1.3783 -1.5,2.11047c-0.41373,0.78223 -0.69141,1.67468 -1.28534,2.21869c-0.66461,0.60873 -1.57736,0.5676 -2.51334,1.13998c-0.62738,0.38367 -1.46207,1.23843 -1.96533,1.80533c-0.67435,0.75961 -0.93301,1.52075 -1.43597,2.056c-0.71271,0.75848 -1.52643,1.00629 -2.22086,1.59018c-0.58466,0.49158 -1.35748,1.13681 -2.21515,1.56851c-0.90865,0.45734 -1.71945,0.69809 -2.24318,0.93149c-0.76289,0.34 -1.70891,1.14182 -2.17149,1.68982c-0.67316,0.79745 -1.356,1.3877 -1.84933,1.78934c-0.73399,0.59756 -1.53418,1.396 -1.97917,1.97919c-0.40672,0.53305 -1.15765,1.31067 -1.9825,1.71631c-0.93466,0.45966 -1.51894,0.55591 -2.313,0.9765c-1.10307,0.58426 -1.57465,1.06567 -2.16283,1.828c-0.36795,0.47687 -0.78532,1.59253 -1.22501,2.24817c-0.56693,0.84537 -1.17102,1.12537 -1.70549,1.64252c-0.63966,0.61893 -1.3179,1.42902 -2.01334,2.42932c-0.37279,0.53622 -0.72781,1.10352 -1.077,1.67999c-0.68481,1.13062 -0.9908,1.67786 -1.54167,2.66669c-0.44843,0.80493 -0.93666,1.74268 -1.24367,2.21082c-0.69287,1.05652 -1.27692,1.62772 -1.60367,2.07968c-0.67516,0.9339 -1.02231,1.7659 -1.34816,2.59015c-0.30989,0.78391 -0.68106,1.73663 -1.06168,2.34818c-0.51921,0.83423 -1.08275,1.39212 -1.59016,2.00449c-0.65024,0.78476 -1.15434,1.6105 -1.45132,2.28534c-0.43333,0.98468 -0.71416,1.80569 -0.916,2.63068c-0.24211,0.98956 -0.20689,1.67914 -0.45201,2.68399c-0.19685,0.80698 -0.66925,1.49075 -0.8125,2.52084c-0.14082,1.01263 -0.00357,1.75317 -0.07799,2.58817c-0.0797,0.89417 -0.30112,1.7851 -0.5175,2.655c-0.26556,1.06766 -0.38869,1.77322 -0.42084,2.57434c-0.04198,1.04626 -0.18462,1.99167 -0.35716,2.71649c-0.15985,0.67148 -0.30476,1.5675 -0.36334,2.11584c-0.14177,1.32693 -0.16727,2.12082 -0.19867,2.98267c-0.03322,0.91147 -0.05177,1.8533 -0.0645,2.80499c-0.01259,0.94162 -0.01753,1.85333 -0.0195,2.715c-0.00342,1.49335 -0.00133,2.09082 -0.00133,2.59332c0,0.78 -0.0032,1.61252 0.00017,2.71884c0.00223,0.72968 -0.00024,1.53653 0.05699,2.36099c0.08025,1.15591 0.28531,2.08078 0.5175,2.78552c0.32578,0.98877 0.38736,1.75314 0.436,2.71466c0.04262,0.84222 0.26733,1.83765 0.48933,2.63251c0.21034,0.75311 0.4592,1.71017 0.5,2.6875c0.03477,0.83286 0.24837,1.79697 0.57466,2.42267c0.46474,0.89117 0.80585,1.69803 1.22667,2.29599c0.52884,0.75146 0.89957,1.51871 1.39867,2.51465c0.30055,0.59973 0.80763,1.59628 1.0955,2.19553c0.35684,0.74283 0.5784,1.81305 0.98849,2.60449c0.44646,0.86163 0.67598,1.56201 1.23683,2.29999c0.59016,0.77652 1.17917,1.20001 1.87917,1.89999c0.70001,0.70001 1.2,1.20001 1.90001,1.90002c0.7,0.69998 1.22346,1.2182 1.86667,1.86667c0.65068,0.65601 1.20966,1.12842 1.728,2.08066c0.33125,0.60852 0.76363,1.45688 1.45717,2.04282c0.71474,0.60385 1.6788,1.02155 2.05882,1.5925c0.51797,0.7782 0.91391,1.53687 1.41467,2.35333c0.35161,0.57327 0.71443,1.15372 1.29201,2.36267c0.2796,0.58527 0.6248,1.49344 1.21599,2.23468c0.61127,0.76642 1.18987,1.14282 1.98401,1.76532c0.76346,0.59845 1.45151,1.19626 1.87199,1.60135c0.82024,0.79019 1.42496,1.38272 1.97467,2c0.6937,0.77896 1.03603,1.43875 1.64583,2.19998c0.67836,0.84683 1.19588,1.20538 1.97551,1.80002c0.52922,0.40366 1.53587,1.19275 1.97867,1.60001c0.64114,0.58966 1.42679,1.40933 2.03598,1.98932c0.59122,0.56287 1.40396,1.18326 1.98935,1.58533c0.73056,0.5018 1.4357,1.29492 1.836,1.80002c0.66058,0.83347 1.40747,1.3078 1.97598,1.70932c0.81662,0.57675 1.40302,1.13239 1.99869,1.71735c0.80588,0.79138 1.37781,1.40378 2,1.91333c0.77509,0.63477 1.42413,0.97968 2.08533,1.36932c1.00372,0.59149 1.53574,0.94812 2.362,1.46335c1.02579,0.63962 1.71799,0.99634 2.29102,1.34814c0.93881,0.57642 1.51108,1.09067 2.42599,1.62567c0.59189,0.3461 1.2663,0.68469 1.992,0.96899c1.06232,0.41614 2.0787,0.59171 2.961,0.72452c0.95068,0.1431 1.60144,0.43222 2.383,1.08517c0.56509,0.47211 1.44098,0.79269 2.17166,0.87482c0.83536,0.0939 2.03085,0.23392 2.91733,0.45068c0.57675,0.14105 1.63873,0.45374 2.57468,0.53867c0.83197,0.0755 1.64084,0.00143 2.508,0.07199c1.06583,0.08673 1.69693,0.24994 2.74884,0.46399c0.73071,0.14868 1.81058,0.3515 2.49515,0.41467c0.98196,0.09061 1.63669,0.0791 3.00519,0.08551c0.72699,0.00342 1.45993,-0.00699 2.16898,0.05698c1.27243,0.11478 2.0412,0.39316 2.75803,0.59018c0.96463,0.26511 1.78741,0.33026 2.65631,0.34818c0.89532,0.01846 1.7955,0.00449 2.6955,0.00449c0.60001,0 1.80057,-0.01611 2.70001,0.02084c0.60059,0.02466 1.80286,0.18774 2.68933,0.40451c0.57675,0.14105 1.63901,0.4512 2.58533,0.53867c0.67587,0.06247 1.91068,0.03598 2.46133,0.03598c0.8685,0 2.06384,0 2.95334,0c0.57468,0 1.64401,0 2.564,0c0.76001,0 1.78833,0 2.74667,0c0.8895,0 1.64584,0 2.07599,0c0.96933,0 2.09067,0 3.35867,0c0.67151,0 1.35602,0 2.04449,0c0.6835,0 1.99951,0 3.1875,0c1.008,0 1.452,0 2.616,0c0.69601,0 1.73859,0.0058 2.46552,-0.00449c0.73111,-0.01035 1.79181,-0.02802 2.70999,-0.21716c0.85599,-0.17633 1.46878,-0.43716 2.23651,-0.66501c1.54758,-0.45929 2.19299,-0.59866 2.87399,-0.76599c0.70834,-0.17404 1.43149,-0.34668 2.15399,-0.522c0.70883,-0.172 2.61261,-0.65201 3.12701,-0.80383c0.85803,-0.25327 1.52515,-0.5011 2.32632,-0.82016c1.00912,-0.40189 1.84415,-0.70346 2.4285,-0.90134c1.19406,-0.40433 1.7955,-0.60004 2.6955,-0.90002c0.60001,-0.20001 1.80032,-0.60309 2.41068,-0.79999c0.94495,-0.30484 1.95544,-0.60202 2.672,-0.79999c0.73141,-0.20206 1.81549,-0.47507 2.784,-0.80002c0.83093,-0.27878 1.54056,-0.61826 2.5,-1c0.78024,-0.31046 1.32343,-0.51666 2.14935,-0.71466c1.22369,-0.29333 1.96149,-0.28943 3.01733,-0.61865c0.64642,-0.20157 1.32034,-0.52161 2.01599,-0.85202c0.6857,-0.32571 1.8765,-0.93942 2.62982,-1.29382c0.69916,-0.32892 1.70483,-0.72083 2.52084,-1.02084c0.81601,-0.29999 1.82861,-0.67383 2.47916,-1.02081c0.63422,-0.33829 1.40311,-0.98663 2.04169,-1.45834c0.64618,-0.47733 1.66803,-0.85638 2.5625,-1.04166c0.69229,-0.1434 1.92014,-0.4697 2.38065,-0.64334c1.00198,-0.37784 1.51401,-0.61813 2.56,-1.09583c0.51898,-0.237 1.97421,-0.91086 2.4115,-1.09702c0.78983,-0.33624 1.49921,-0.60938 2.46051,-0.94034c0.90109,-0.31024 1.7944,-0.57281 2.58966,-0.90265c0.88596,-0.36746 1.50412,-0.83423 2.34769,-1.46667c0.66855,-0.50125 1.19827,-0.83966 1.98398,-1.43466c0.772,-0.58463 1.45352,-1.19156 2.07819,-1.79868c0.81351,-0.79068 1.18723,-1.21429 1.8045,-1.76401c0.77893,-0.6937 1.60339,-1.17731 2.31467,-1.63464c0.74359,-0.47812 1.48566,-1.20102 2.08533,-1.80136c0.60034,-0.60098 1.13071,-1.13733 1.69998,-2.05264c0.42334,-0.68069 1.00333,-1.39441 1.41467,-2.146c0.4288,-0.78345 0.60464,-1.67133 0.93268,-2.54868c0.33176,-0.88727 0.35266,-1.81934 0.35266,-2.65268c0,-0.83331 0.16098,-1.61206 0.80133,-2.16931c0.69635,-0.60599 1.00623,-1.4296 1.39734,-2.22934c0.37259,-0.76184 0.75861,-1.71292 0.80133,-2.60135c0.03635,-0.75629 -0.05283,-1.66342 0.05716,-2.40448c0.14972,-1.00867 0.57953,-1.73953 0.85883,-2.71152c0.21713,-0.75558 0.47653,-1.73413 0.88535,-2.39999c0.54312,-0.88458 1.31219,-1.39914 1.76266,-2.12c0.48694,-0.77924 0.4176,-1.5748 0.43616,-2.56384c0.01462,-0.77948 0.29428,-1.74289 0.64719,-2.55283c0.37671,-0.8645 0.35193,-1.67801 0.35266,-2.60901c0.00076,-0.95984 -0.06122,-1.67493 0.16666,-2.63834c0.19119,-0.80835 0.6691,-1.49023 0.8125,-2.5c0.13855,-0.97574 0.02084,-1.71066 0.02084,-2.69983c0,-0.77933 0,-1.77866 0,-2.80017c0,-0.672 0,-1.76801 0,-2.5c0,-0.73199 0,-1.83865 0,-2.82166c0,-0.72 0,-1.845 0,-2.6265c0,-0.7905 0.09317,-1.72629 -0.02084,-2.53101c-0.14587,-1.02972 -0.63327,-1.71051 -0.85767,-2.72101c-0.13364,-0.60181 -0.10928,-1.48526 -0.12283,-2.48248c-0.01083,-0.79666 0.07318,-1.61066 -0.43466,-2.65601c-0.43777,-0.90112 -1.00677,-1.46393 -1.27866,-2.17734c-0.35773,-0.93869 -0.77249,-1.72626 -1.11868,-2.65067c-0.23993,-0.64066 -0.19562,-1.4512 -0.51932,-2.42883c-0.2525,-0.76263 -0.58966,-1.79697 -0.814,-2.73782c-0.16272,-0.6825 -0.45432,-1.44168 -0.66669,-2.5c-0.14038,-0.69952 -0.05856,-1.68823 -0.1875,-2.66669c-0.11047,-0.83841 -0.49582,-1.52286 -0.97916,-2.5c-0.29742,-0.60129 -0.71857,-1.39096 -1.19867,-2.40134c-0.29187,-0.6142 -0.56912,-1.27536 -0.74866,-2.54681c-0.11105,-0.78653 -0.10013,-1.78348 -0.57352,-2.51016c-0.47189,-0.72437 -1.14334,-1.13589 -1.67783,-2.02701c-0.41776,-0.69647 -0.61432,-1.72943 -0.82217,-2.49384c-0.23865,-0.87766 -1.01019,-1.2446 -1.64581,-2.1875c-0.40387,-0.59909 -0.33472,-1.46078 -0.69052,-2.42883c-0.2843,-0.77353 -0.82117,-1.53879 -1.44281,-2.20316c-0.5907,-0.63132 -1.37277,-1.36203 -1.85269,-1.85852c-0.52878,-0.547 -1.21033,-1.32382 -1.59467,-1.95633c-0.41061,-0.67572 -0.9173,-1.88736 -1.24066,-2.64117c-0.17706,-0.41278 -0.5571,-1.29587 -1.03082,-2.20166c-0.24429,-0.4671 -1.1134,-1.82941 -1.44785,-2.25299c-0.65369,-0.82791 -0.98993,-1.20938 -1.67084,-1.85751c-0.83578,-0.79553 -1.71573,-1.18448 -2.46265,-1.655c-0.59796,-0.37671 -1.23257,-1.3129 -1.71451,-2.02884c-0.33206,-0.49332 -0.89938,-1.6232 -1.20001,-2.32797c-0.36029,-0.84467 -0.73914,-1.73053 -1.31866,-2.42136c-0.44495,-0.53036 -1.1604,-0.77954 -2.08798,-1.543c-0.5484,-0.45135 -1.09146,-0.9866 -1.62601,-1.56598c-0.80569,-0.87326 -1.28333,-1.47726 -1.91101,-2.37018c-0.39093,-0.55612 -1.00711,-1.60675 -1.40567,-2.26349c-0.42105,-0.69379 -1.17422,-1.164 -1.94949,-1.61902c-0.5921,-0.3475 -1.45181,-0.95874 -2.05798,-1.3045c-0.69196,-0.39468 -1.46582,-0.81903 -2.62851,-1.66714c-0.40869,-0.29813 -1.20416,-0.97641 -1.60001,-1.33868c-0.80859,-0.74002 -1.20224,-1.13474 -2.39999,-2.328c-0.40027,-0.39874 -0.79599,-0.79599 -1.56799,-1.56799c-0.724,-0.724 -1.05893,-1.06207 -1.93201,-1.93201c-0.62738,-0.62512 -1.28687,-1.23621 -2.13599,-1.52533c-0.83844,-0.28549 -1.64713,-0.68591 -2.30267,-1.364c-0.57605,-0.59583 -1.50818,-0.5574 -2.08218,-1.1315c-0.61725,-0.61734 -1.22458,-0.99512 -2.0925,-1.67917c-0.5694,-0.44878 -1.07916,-1.19597 -1.60266,-1.884c-0.46686,-0.6136 -0.284,-1.616 -0.284,-2.51599c0,-0.90001 -0.01904,-1.81087 0.00015,-2.72133c0.01801,-0.8539 0.26804,-1.80869 0.64651,-2.34001c0.64417,-0.90431 1.19122,-1.60938 1.564,-2.15999c0.39267,-0.58 0.98026,-1.48502 1.60001,-2.37868c0.4191,-0.60434 0.854,-1.21729 1.61066,-2.09966c0.51749,-0.60349 1.0618,-1.17677 1.62601,-1.686c1.00226,-0.9046 1.50674,-1.18768 2.34818,-1.7625c0.81573,-0.55725 1.41138,-1.08064 2.00449,-1.65634c0.80957,-0.7858 1.20001,-1.1955 1.80002,-1.7955c0.79999,-0.8 1.39999,-1.39999 2,-2c0.79999,-0.8 1.19998,-1.2 1.79999,-1.8c0.60001,-0.59999 1.39868,-1.39868 1.97916,-1.97916c0.53552,-0.53551 1.25961,-1.26775 1.81952,-1.8195c0.71701,-0.7066 1.5242,-1.29868 2.20132,-1.70134c0.8353,-0.49673 1.4715,-1.04109 2.32132,-1.59999c0.6582,-0.43288 1.49063,-0.93027 2.15784,-1.37917c0.69992,-0.47092 1.54773,-0.8354 2.02084,-1.54167c0.53094,-0.79262 0.94189,-1.48087 1.44733,-2.27466c0.44608,-0.70056 0.66934,-1.31375 1.07352,-2.18367c0.31729,-0.68288 0.78345,-1.13197 1.03632,-1.81551c0.32507,-0.87875 1.29446,-1.38783 1.58566,-2.05716c0.37506,-0.86211 0.27505,-1.85194 0.35733,-2.74817c0.08368,-0.91145 0.76102,-1.43767 0.979,-2.40001c0.19888,-0.87799 0.02084,-1.79549 0.02084,-2.66666c0,-0.72 0,-1.65868 0,-2.66667c0,-0.86217 0,-1.76666 0,-2.66667c0,-0.91066 0.05804,-1.82561 -0.02084,-2.5c-0.11606,-0.99211 -0.72861,-1.71341 -1.46317,-2.20132c-0.67975,-0.45151 -1.5217,-1.10098 -1.89066,-1.64534c-0.55115,-0.81317 -0.93262,-1.58427 -1.47202,-2.38933c-0.38974,-0.58167 -0.81915,-1.18279 -1.57483,-2.06383c-0.52155,-0.60806 -1.08685,-1.19255 -1.68298,-1.74301c-0.87759,-0.81035 -1.48337,-1.28757 -2.09552,-1.71049c-0.88315,-0.61014 -1.79395,-1.09325 -2.40131,-1.36267c-0.91089,-0.40407 -1.56192,-0.62213 -2.56534,-1.05066c-0.72186,-0.30829 -1.46271,-0.66136 -2.20801,-1.04401c-0.74545,-0.38272 -1.80618,-0.98575 -2.47266,-1.38933c-0.65482,-0.3965 -1.2977,-0.81314 -2.31934,-1.40001c-0.71475,-0.41058 -1.48022,-0.81027 -2.28,-1.23599c-0.4151,-0.22096 -1.72122,-0.92848 -2.63867,-1.448c-0.47247,-0.26755 -0.9483,-0.54558 -1.92535,-1.09067c-0.49261,-0.27483 -1.98694,-1.06358 -2.48917,-1.30383c-0.99106,-0.47409 -1.48843,-0.68791 -2.46414,-1.11084c-0.47833,-0.20734 -1.8699,-0.80942 -2.31467,-1.0105c-0.86978,-0.39323 -1.71704,-0.7896 -2.57401,-1.14299c-0.42923,-0.17702 -1.76624,-0.64508 -2.7045,-0.90451c-0.47757,-0.13205 -1.45468,-0.37363 -1.94733,-0.50533c-1.49911,-0.40076 -1.99918,-0.55775 -2.99103,-0.90451c-0.49576,-0.17332 -1.47235,-0.54422 -2.41916,-0.94415c-0.92252,-0.38968 -1.8009,-0.79672 -2.22815,-0.99867c-0.83817,-0.39618 -1.65292,-0.79951 -2.85718,-1.40001c-0.79883,-0.39835 -1.19342,-0.59975 -1.97916,-0.97916c-0.76169,-0.3678 -1.84921,-0.86656 -2.53683,-1.1355c-0.97726,-0.38223 -1.63345,-0.5918 -2.65067,-0.88535c-0.71515,-0.20638 -1.45285,-0.41664 -2.58069,-0.64282c-1.08105,-0.21681 -1.76608,-0.27228 -2.711,-0.35718c-0.58005,-0.05211 -1.86868,-0.25298 -2.52081,-0.52083c-1.04315,-0.42847 -1.63651,-0.74356 -2.36368,-1.17917c-0.92789,-0.55586 -1.36472,-1.21227 -2.17801,-1.77916c-0.73386,-0.51154 -1.48126,-0.45033 -2.59515,-0.52217c-0.771,-0.04973 -1.51923,-0.39595 -2.39999,-0.71466c-0.83368,-0.30168 -1.74167,-0.72545 -2.36935,-1c-0.90265,-0.39481 -1.73251,-0.31297 -2.71014,-0.63667c-0.76263,-0.25252 -1.66867,-0.53336 -2.57117,-0.814c-0.68521,-0.21307 -1.42465,-0.59787 -2.43335,-0.78067c-0.79398,-0.14388 -1.80487,-0.31837 -2.52798,-0.62733c-0.93045,-0.39755 -1.87201,-0.42534 -2.672,-0.42534l-0.90002,0l-0.89999,-0.036" id="svg_1" stroke-width="2" stroke="#000" fill="none"/>
  <path t="4504,4599,4607,4620,4623,4631,4631,4631,4639,4639,4639,4639,4639,4647,4647,4647,4647,4655,4655,4655,4655,4655,4663,4663,4663,4663,4671,4671,4671,4671,4671,4679,4679,4679,4679,4679,4687,4687,4687,4687,4687,4695,4695,4695,4695,4695,4703,4703,4703,4703,4703,4703,4711,4711,4711,4711,4711,4720,4720,4720,4720,4727,4727,4727,4727,4727,4737,4737,4737,4737,4743,4743,4743,4758,4758,4758,4758,4759,4759,4770,4770,4770,4775,4775,4775,4792,4792,4792,4804,4804,4804,4807,4807,4807,4833,4833,4833,4833,4839,4839,4839,4839,4847,4847,4855,4863,4863,4871,4871,4879,4879,4887,4887,4895,4904,4904,4911,4920,4920,4920,4927,4927,4937,4937,4937,4943,4943,4943,4953,4953,4959,4959,4959,4970,4970,4970,4975,4975,4975,4987,4987,4991,4991,5003,5004,5004,5007,5007,5015,5015,5023,5031,5031,5183,5191,5203,5203,5203,5203,5207,5207,5207,5207,5219,5219,5220,5220,5220,5220,5223,5223,5223,5223,5223,5223,5223,5231,5231,5231,5231,5231,5231,5231,5232,5232" d="m282,149.78333c0,-1.7 0,-2.59999 0,-3.5c0,-0.92133 0,-1.83333 0,-2.78265c0,-0.57468 0,-1.884 0,-2.60268c0,-0.75066 0,-1.52533 0,-2.31599c0,-1.19867 0,-1.99867 0,-2.79868c0,-0.79999 0,-2 0,-2.79999c0,-0.8 0,-1.60001 0,-2.40001c0,-1.2 0,-2 0,-2.8c0,-0.8 0,-2 0,-2.80133c0,-0.80933 0,-1.63467 0,-2.484c0,-1.336 0,-1.79867 0,-2.74c0,-0.94934 0,-1.422 0,-2.80801c0,-0.88133 0,-1.73067 0,-2.556c0,-0.80933 0.00562,-2.01105 -0.00449,-2.81966c-0.01041,-0.83276 -0.04572,-1.70581 -0.08084,-2.16167c-0.11356,-1.4739 -0.1958,-1.99771 -0.34,-3.08c-0.07321,-0.54953 -0.22763,-1.64331 -0.29068,-2.18134c-0.17847,-1.52321 -0.23083,-2.45349 -0.24799,-2.896c-0.03299,-0.85041 -0.03534,-1.66933 -0.03601,-2.87217c-0.00046,-0.80433 0,-1.62067 0,-2.457c0,-1.30949 0,-2.22549 0,-2.69099c0,-0.931 0,-1.842 0,-3.1185c0,-0.76134 0,-1.45067 0,-2.36717c0,-1.045 0,-1.7515 0,-2.7355c0,-0.87334 0,-1.88133 0,-2.58c0,-0.68266 0,-1.88133 0,-2.62983c0,-1.1875 0,-1.9735 0,-2.7955c0,-1.05867 0,-1.77267 0,-2.678c0,-0.96883 0,-1.78333 0,-2.65183c0,-0.8955 0,-1.791 0,-2.6595c0,-1.06934 0,-1.78333 0,-2.68867c0,-0.96917 0,-1.80466 0,-2.43c0,-0.68933 0,-1.85966 0,-2.71367c0,-0.862 0,-1.684 0,-3.01767c0,-0.80267 0,-1.6905 0,-2.55267c0,-0.83333 0,-1.812 0,-2.586c0,-0.9045 0,-1.65183 0,-2.84283c0,-0.74733 0,-1.65183 0,-2.57117c0,-0.8125 0,-1.79333 0,-2.688c0,-0.687 0,-1.464 0,-2.69267c0,-0.678 0,-1.874 0,-2.678c0,-0.54933 0,-1.85316 0,-2.53867c0,-0.83467 0,-1.8405 0,-2.69316c0,-0.96434 0,-1.77884 0,-2.64734c0,-0.8955 0,-1.791 0,-2.6595c0,-1.06933 0,-1.77883 0,-2.6315c0,-1.0045 0,-1.8045 0,-2.8045c0,-0.8 0,-1.8 0,-2.6c0,-0.8 0,-1.8 0,-2.6c0,-0.99867 0,-1.764 0,-2.84733c0,-0.91933 -0.90158,-2.60679 0,-2.63383c0.60065,-0.01801 0.22195,1.64537 0.35266,2.24817c0.22305,1.02877 0.39383,1.74744 0.52585,2.812c0.08374,0.67521 0.11499,1.71829 0.12015,2.47567c0.00891,1.3098 -0.00592,1.80156 0.02267,2.85333c0.01508,0.55467 0.02069,1.12691 0.14932,2.296c0.13202,1.19977 0.2605,1.79889 0.53467,3.005c0.1395,0.61369 0.30045,1.23133 0.444,1.863c0.29453,1.29603 0.52618,2.66026 0.608,3.37117c0.08377,0.72784 0.13986,1.47549 0.19202,2.2395c0.05322,0.77966 0.10132,1.57467 0.15601,2.3835l0.06265,0.82183" id="svg_2" stroke-width="2" stroke="#000" fill="none"/>
  <path t="5575,5615,5623,5623,5623,5631,5631,5631,5631,5631,5639,5639,5639,5639,5639,5647,5647,5647,5647,5647,5647,5647,5655,5655,5655,5655,5655,5655,5655,5655,5663,5663,5663,5663,5663,5663,5663,5663,5663,5671,5671,5671,5671,5671,5671,5671,5671,5671,5679,5679,5679,5679,5679,5679,5679,5679,5679,5687,5687,5687,5687,5687,5687,5687,5687,5695,5695,5695,5695,5695,5695,5695,5695,5703,5703,5703,5703,5703,5703,5703,5703,5704,5711,5711,5711,5711,5711,5711,5711,5711,5711,5720,5720,5720,5720,5720,5720,5720,5720,5727,5727,5727,5727,5727,5727,5736,5737,5737,5737,5737,5743,5743,5743,5743,5743,5753,5753,5754,5754,5759,5759,5770,5770,5770,5775,5775,5787,5787,5791,5791,5803,5804,5807,5967,5975" d="m321,139.78333c1.564,-0.68266 1.90793,-1.54034 1.96399,-2.28265c0.06656,-0.88155 0.03601,-1.884 0.03601,-2.604c0,-0.75999 0,-1.56 0,-2.39999c0,-1.33501 0,-2.27501 0,-2.76001c0,-1 0,-1.515 0,-3.12c0,-0.555 0,-1.695 0,-2.28c0,-0.595 0,-1.815 0,-2.44c0,-1.28 0,-1.935 0,-3.275c0,-0.685 0,-1.38 0,-2.085c0,-0.715 0,-1.44 0,-2.92c0,-0.75484 0,-1.51867 0,-2.2905c0,-0.77883 0,-1.56367 0,-2.3535c0,-0.79383 0.00015,-1.59067 0,-3.18933c-0.00009,-0.8 0.00018,-1.60001 -0.00449,-2.4c-0.00467,-0.8 -0.01337,-1.60006 -0.03152,-2.4c-0.01816,-0.80007 -0.03534,-1.60077 -0.13065,-3.2c-0.0477,-0.80045 -0.11536,-1.60017 -0.186,-2.4c-0.07068,-0.80017 -0.14835,-1.59991 -0.22202,-2.4c-0.07367,-0.7999 -0.1546,-1.59908 -0.25867,-3.2c-0.05194,-0.79926 -0.08453,-1.59727 -0.11398,-2.391c-0.02924,-0.7876 -0.07571,-2.33708 -0.10535,-3.09467c-0.02908,-0.74376 -0.10876,-2.18143 -0.16882,-2.87167c-0.05875,-0.67513 -0.12756,-1.33838 -0.29935,-2.64267c-0.08575,-0.65121 -0.18387,-1.30531 -0.28049,-1.968c-0.19907,-1.36527 -0.29987,-2.075 -0.39868,-2.804c-0.1012,-0.74667 -0.2009,-1.51054 -0.29999,-2.2905c-0.10095,-0.79471 -0.20102,-1.60355 -0.29999,-2.4255c-0.20209,-1.67842 -0.29929,-2.53311 -0.40134,-3.39333c-0.10229,-0.86244 -0.20624,-1.72307 -0.31952,-2.577c-0.11206,-0.84475 -0.2272,-1.67616 -0.3645,-2.487c-0.26379,-1.55774 -0.43036,-2.29148 -0.59866,-2.99867c-0.16324,-0.68582 -0.33813,-1.34888 -0.69064,-2.624c-0.17111,-0.61893 -0.3576,-1.22383 -0.65869,-2.432c-0.29742,-1.19344 -0.41235,-1.79041 -0.53067,-2.37867c-0.23093,-1.14822 -0.32285,-1.70869 -0.63599,-3.288c-0.09732,-0.49087 -0.29544,-1.42006 -0.5,-2.29166c-0.19568,-0.8337 -0.49905,-2.0419 -0.70001,-2.84034c-0.19907,-0.7909 -0.39453,-1.56681 -0.59998,-2.316c-0.29227,-1.06582 -0.48807,-1.72767 -0.80002,-2.63867c-0.19263,-0.56256 -0.69199,-1.79327 -1,-2.436c-0.48724,-1.01678 -0.85333,-1.58754 -1.11465,-2.41066c-0.31067,-0.97858 -0.27933,-1.81542 -0.56934,-2.8c-0.18018,-0.61172 -0.60071,-1.5932 -0.67999,-2.38933c-0.10352,-1.03948 -0.03601,-1.8 -0.03601,-2.71067l-0.02084,-0.95833l-0.5,0.08333" id="svg_3" stroke-width="2" stroke="#000" fill="none"/>
  <path t="6320,6343,6343,6343,6353,6353,6359,6359,6359,6370,6370,6370,6375,6375,6375,6375,6386,6387,6387,6391,6391,6391,6391,6403,6403,6403,6403,6403,6403,6407,6407,6407,6407,6407,6420,6420,6420,6420,6420,6420,6423,6423,6423,6423,6423,6423,6423,6431,6431,6431,6431,6431,6431,6439,6439,6439,6439,6439,6440,6440,6447,6447,6447,6447,6447,6455,6455,6456,6456,6463,6463,6463,6463,6463,6471,6471,6471,6479,6479,6487,6503,6511,6520,6520,6527,6527,6537,6537,6543,6554,6554,6559,6575,6587,6587,6591,6623,6631,6631,6639,6639,6647,6647,6655,6663,6663,6671,6671,6671,6679,6679,6679,6688,6688,6695,6695,6695,6695,6703,6704,6704,6711,6711,6711,6720,6720,6720,6721,6727,6727,6727,6738,6738,6754,6754,6759,6759,6771,6807" d="m311,135.78333c3.59732,-0.00133 4.46945,0.0601 5.22934,-0.08533c1.1496,-0.22002 1.72415,-0.71284 2.785,-0.8575c0.8009,-0.10921 1.38834,-0.0565 2.58698,-0.05717c0.91953,-0.00052 1.55585,0 2.56534,0c1.08151,0 1.8125,0 2.5235,0c1.26718,0 2.05917,0 2.81519,0c1.13782,0 1.81351,0 2.55716,0c0.80368,0 2.10416,0 3.02283,0c0.47183,0 1.43552,0 2.41916,0c0.49686,0 1.99551,-0.00157 2.49551,0.00134c1.00003,0.00584 2.0004,0.02702 2.5,0.05583c1.5015,0.08656 2.0011,0.15718 3.00449,0.2955c1.01736,0.14024 1.52979,0.23553 2.58084,0.36333c1.07971,0.13127 1.63574,0.17018 2.77185,0.23134c0.57864,0.03114 1.75357,0.07608 2.34732,0.10533c0.59692,0.0294 2.39603,0.16313 2.99417,0.23534c0.5976,0.07214 1.78226,0.2662 2.36533,0.39467c0.58069,0.12794 2.27267,0.64218 2.81451,0.86c0.53961,0.21693 1.58575,0.70743 2.10065,0.95732c1.01691,0.49355 1.50674,0.76263 2.52084,1.16667c0.98587,0.39281 1.97742,0.66602 2.45834,0.79167c0.92502,0.2417 2.21027,0.5343 2.97232,0.74167c0.7099,0.19318 1.38098,0.41031 2.73599,0.79999c0.71445,0.20546 1.44919,0.39574 2.172,0.60001c0.69318,0.19591 1.89819,0.5824 2.61969,0.89999c0.64609,0.28439 1.6189,0.8378 2.38449,1.14284c0.87735,0.34956 2.08987,0.09201 2.60449,0.71884c0.52942,0.64487 0.43033,1.74821 1.15268,2.39566c0.60434,0.54167 1.28183,1.11543 1.69998,1.75999c0.47955,0.7392 1.28934,1.40979 1.76401,2.08267c0.51837,0.73482 0.84488,1.5273 1.26935,2.39999c0.32086,0.65968 0.90674,1.37317 1.16666,2.28667c0.24084,0.84641 0,1.71333 0,2.692c0,0.774 0,1.67401 0,2.53734c0,0.98399 0,1.8055 0,2.69467c0,0.9895 0,1.81017 0,2.47467c0,0.99866 0,1.81465 0,2.63066c0,1.23582 -0.00113,1.94533 0,3.01733c0.00067,0.63466 0.00003,1.66806 0.05716,2.36133c0.08032,0.97484 0.32684,1.78642 0.59018,2.75351c0.26288,0.96545 0.32062,1.7991 0.37799,2.3985c0.12653,1.32149 0.25403,2.03691 0.39999,2.76799c0.14474,0.72493 0.43509,2.04884 0.51752,2.871c0.06931,0.6911 0.05716,1.71434 0.05716,2.51433c0,1 0,1.78934 0,2.83334l0,0.756l0,0.91066l0,0.90001" id="svg_4" stroke-width="2" stroke="#000" fill="none"/>
  <path t="7256,7287,7295,7295,7311,7319,7320,7327,7327,7327,7327,7336,7336,7336,7336,7343,7343,7343,7353,7353,7353,7359,7359,7359,7370,7370,7370,7370,7375,7375,7375,7375,7386,7386,7386,7386,7387,7391,7391,7391,7391,7391,7404,7404,7404,7404,7404,7404,7407,7407,7407,7407,7407,7420,7420,7420,7420,7420,7423,7423,7423,7431,7431,7431,7431,7431,7431,7439,7439,7439,7439,7439,7439,7439,7447,7447,7447,7447,7447,7455,7455,7455,7455,7455,7463,7463,7463,7463,7463,7463,7471,7471,7471,7471,7471,7479,7479,7479,7479,7479,7487,7487,7487,7487,7487,7495,7495,7495,7495,7503,7503,7503,7504,7504,7511,7511,7511,7511,7511,7520,7520,7520,7520,7520,7521,7527,7527,7527,7527,7537,7537,7537,7537,7537,7543,7543,7543,7543,7543,7554,7554,7554,7554,7554,7559,7559,7559,7559,7570,7570,7571,7571,7575,7575,7575,7575,7588,7588,7589,7591,7591,7591,7604,7607,7620,7623,7623,7623,7631,7631,7639,7639,7639,7647,7655,7655,7655,7663,7663,7663,7671,7671,7679,7679,7679,7687,7687,7695,7695,7695,7704,7704,7721,7721,7722,7727,7727,7775,7775,7786,7791,7791,7803,7804,7807,7808,7808,7822,7822,7822,7824,7825,7825,7832,7832,7851,7851,7852,7852,7852,7855,7855,7856,7856,7856,7856,7856,7863,7863,7863,7863,7863,7871,7871,7871,7872,7879,7879,7879,7879,7887,7887,7888,7888,7888,7895,7895,7895,7895,7895,7904,7904,7904,7904,7911,7911,7911,7911,7911,7920,7920,7920,7921,7921,7921,7927,7927,7927,7927,7927,7928,7928,7937,7938,7938,7938,7938,7938,7938,7943,7943,7943,7943,7943,7944,7944,7954,7954,7954,7954,7954,7954,7954,7959,7959,7959,7959,7959,7960,7970,7970,7971,7971,7971,7971,7975,7975,7975,7975,7975,7976,7987,7987,7987,7987,7988,7988,7991,7991,7991,7991,7991,8004,8004,8004,8004,8005,8007,8007,8007,8007,8007,8021,8021,8021,8021,8021,8023,8023,8023,8023,8031,8031,8031,8039,8039,8039,8047,8047,8047,8055,8055,8063,8079,8079,8087,8087,8095,8111,8111,8111,8120,8121,8127,8137,8143,8154,8154,8159,8170,8171,8187,8187,8191,8204,8224,8231,8247" d="m299,199.78333c-1.83334,0 -2.70532,0 -3.43201,0c-1.01465,0 -1.92059,-0.14865 -2.77866,0.108c-0.84436,0.25255 -1.39682,0.95641 -1.81018,1.43367c-0.66934,0.77283 -1.38864,1.55074 -1.93182,2.00117c-0.80499,0.66756 -1.39273,1.02063 -2.36066,1.85849c-0.45438,0.39331 -1.08621,1.0179 -1.66516,2.02c-0.29688,0.51385 -0.59622,1.35913 -1.02151,2.412c-0.29007,0.71809 -0.61938,1.384 -1,2.33333c-0.31622,0.78868 -0.6066,1.67799 -0.79999,2.32001c-0.31079,1.03169 -0.49811,1.77234 -0.72086,2.53416c-0.22971,0.78563 -0.63895,1.9819 -0.96182,2.77916c-0.32513,0.80283 -0.6814,1.59119 -0.948,2.40001c-0.26111,0.79214 -0.42346,1.60005 -0.49734,2.42133c-0.07635,0.84874 -0.07065,1.74934 -0.07199,3.22134c-0.00049,0.52533 0,1.60799 0,2.15732c0,0.54935 0,1.632 0,3.15718c0,0.4735 0,1.3815 0,2.25749c0,0.868 0,1.752 0,2.66667c0,0.92267 -0.00018,1.82133 0,2.664c0.00024,1.09067 -0.03821,1.9935 0.17151,2.81267c0.24744,0.96645 0.68051,1.70068 0.89548,2.118c0.4689,0.91032 0.74301,1.38495 1.25168,2.41333c0.52936,1.07019 0.77036,1.62756 1.22418,2.75883c0.22644,0.56441 0.43576,1.1312 0.85266,2.242c0.20288,0.5406 0.8002,2.06868 1.00449,2.53915c0.39178,0.90228 0.79813,1.75024 1,2.16168c0.59448,1.2117 0.99185,2.01349 1.42133,2.79834c0.21497,0.39282 0.63596,1.19876 1.51202,2.24399c0.59869,0.71432 0.96716,1.02005 1.6875,1.64584c0.7218,0.62708 1.11499,0.89816 2.1575,1.82117c0.67221,0.59515 1.29846,1.22586 1.85999,1.914c0.28455,0.34872 1.05145,1.52237 1.509,2.39099c0.23303,0.44235 0.66925,1.34857 0.90533,1.78934c0.68872,1.28586 1.20917,2.0528 1.78333,2.72266c0.5527,0.64484 1.15192,1.21066 2.06384,1.96149c0.58722,0.48349 1.20221,0.91681 1.74301,1.431c0.82727,0.78659 1.28308,1.45303 1.73181,2.15152c0.46097,0.7175 0.88882,1.47025 1.392,2.172c0.50006,0.69742 1.07156,1.34921 1.68002,1.992c0.63135,0.66696 1.31879,1.34253 2.03732,2.05731c0.36804,0.36612 1.11075,1.10208 1.86334,1.80753c0.36612,0.3432 1.42877,1.27011 2.09549,1.80447c0.63406,0.50818 1.28314,0.97858 2.15717,1.83868c0.62253,0.61261 0.89999,0.97198 1.5,1.66666c0.60001,0.69467 1.48166,1.68695 2.10132,2.22934c0.59247,0.51859 1.22525,0.96432 1.884,1.36801c1.02194,0.62625 1.76712,1.00305 2.51468,1.40265c0.37454,0.20023 1.1268,0.58127 2.17834,1.20016c0.66705,0.39261 1.59567,1.01117 2.13498,1.48517c0.79758,0.70099 1.22858,1.27185 1.91202,2.08936c0.45505,0.54434 1.17706,1.32687 1.73181,1.76364c0.82657,0.65079 1.43179,0.99973 2.3425,1.44034c0.86786,0.41989 1.7536,0.68188 2.55753,1.3425c0.53268,0.43771 0.94321,1.31155 1.95749,1.60684c0.90759,0.26422 1.59796,0.55438 2.35199,1.07199c0.64285,0.44128 1.43454,0.80029 2.23334,1.20001c0.7999,0.40027 1.59302,0.81451 2.38934,1.18933c0.71927,0.33853 1.73145,0.59286 2.75351,0.61084c0.71844,0.01263 1.52353,-0.01672 2.53564,0.22131c0.69922,0.16446 1.52057,0.57904 2.52151,1.07852c0.60025,0.29953 1.60001,0.79999 2.19998,1.09998c0.80002,0.40002 1.6199,0.7666 2.40002,1.23602c0.82257,0.49496 1.40488,1.00659 1.96399,1.53867c0.82904,0.78897 1.4653,1.48422 2.37885,1.70383c0.70349,0.16913 1.50906,0.1073 2.53549,0.12167c0.88016,0.01233 1.81296,0.707 2.56,0.59c0.64578,-0.10117 0.76196,-1.43558 1.16299,-2.10617c0.45493,-0.76071 0.97784,-1.44104 1.146,-2.49832c0.12735,-0.80069 0.08038,-1.3992 0.33801,-2.58435c0.1936,-0.89066 0.39456,-1.45389 0.81467,-2.47983c0.28354,-0.69247 0.73627,-1.50317 1.1955,-2.53049c0.29193,-0.65305 0.55667,-1.72223 0.61917,-2.36569c0.07068,-0.72754 0.0787,-1.55463 0.08398,-2.48398c0.00589,-1.04132 0.00134,-2.19333 0.00134,-2.79935c0,-0.61801 0,-1.866 0,-2.48401c0,-0.60599 0,-2.29349 0,-2.802c0,-0.948 0,-1.82397 0,-2.65198c0,-1.20383 0,-1.99951 0,-2.78317c0,-0.76367 0,-1.85416 0,-2.87268c0,-0.66898 0,-1.358 0,-2.48148c0,-0.836 0,-1.72803 0,-2.65201c0,-0.46649 0.00421,-1.84802 -0.00134,-2.728c-0.00531,-0.84003 -0.01102,-1.64191 -0.08398,-2.39999c-0.10291,-1.06924 -0.34723,-2.07294 -0.52533,-2.74802c-0.18704,-0.70898 -0.49054,-1.88141 -0.69385,-2.75299c-0.10672,-0.45755 -0.3187,-1.41034 -0.58084,-2.38834c-0.26828,-1.00092 -0.59393,-2.00055 -0.78082,-2.49734c-0.37875,-1.00681 -0.58847,-1.51419 -1.10583,-2.5c-0.5329,-1.01544 -0.85861,-1.50824 -1.53784,-2.5c-0.34537,-0.50427 -0.711,-1 -1.44199,-2c-0.36551,-0.5 -1.08575,-1.4971 -1.42685,-2.00015c-0.67712,-0.99863 -0.99741,-1.50958 -1.32132,-2.02066c-0.65561,-1.03448 -0.98068,-1.56662 -1.66666,-2.64584c-0.35315,-0.55559 -1.08798,-1.68321 -1.46933,-2.248c-0.38232,-0.56622 -0.76682,-1.12971 -1.16852,-1.67551c-1.17276,-1.59348 -1.59192,-2.06973 -1.99417,-2.53915c-0.39349,-0.45921 -1.18033,-1.32915 -1.56534,-1.74934c-0.75034,-0.81894 -1.47522,-1.61636 -2.15198,-2.42133c-0.33426,-0.39757 -0.98282,-1.20099 -1.30936,-1.60001c-0.65628,-0.80196 -1.33588,-1.60492 -2.05865,-2.39999c-0.36591,-0.40251 -1.11707,-1.19901 -1.49066,-1.60001c-0.74347,-0.79802 -1.46457,-1.59503 -2.14133,-2.39999c-0.33426,-0.39757 -0.98282,-1.20099 -1.30936,-1.60001c-0.65628,-0.80196 -1.33463,-1.60605 -2.05865,-2.39867c-0.3653,-0.39992 -1.11462,-1.18184 -1.49066,-1.56534c-0.73865,-0.7533 -1.80475,-1.81375 -2.14001,-2.15199c-0.65112,-0.65689 -1.28275,-1.30196 -1.884,-1.968c-0.60959,-0.67528 -1.20328,-1.39841 -1.80133,-2.14133c-0.30096,-0.37389 -0.88757,-1.13242 -1.79999,-2.20801c-0.29584,-0.34875 -0.90115,-1.00899 -1.47916,-1.66667c-0.56931,-0.64778 -1.36621,-1.65869 -1.83685,-2.38266c-0.47083,-0.72423 -0.66135,-1.11143 -1.13666,-1.8075c-0.68219,-0.99898 -1.20059,-1.57483 -2.04733,-2.24734c-0.52917,-0.42027 -1.56906,-1.05888 -2.27466,-1.4265c-0.66931,-0.34871 -1.64993,-0.72784 -2.45068,-1.04666c-0.55164,-0.21962 -1.62631,-0.73024 -2.31299,-1.2375c-0.63272,-0.46741 -1.47028,-1.0415 -2.26035,-1.43449c-0.75632,-0.37621 -1.5242,-1.01468 -2.20132,-1.41734c-0.8353,-0.49673 -1.42419,-1.09312 -2.3045,-1.44733c-0.82532,-0.33208 -1.70337,-0.5914 -2.29681,-0.76866c-0.97705,-0.29185 -1.91336,-0.28334 -2.87784,-0.28401c-0.92084,-0.00064 -1.82083,0 -2.72217,0c-0.68402,0 -1.66626,-0.16151 -2.63202,0.16667c-0.69739,0.23698 -1.36215,1.03789 -1.96664,1.63333c-0.69485,0.68445 -1.39868,1.116 -2.14734,1.55267l-0.55267,0.64732l-0.52533,0.57468" id="svg_5" stroke-width="2" stroke="#000" fill="none"/>
  <path t="8567,8622,8623,8635,8636,8636,8636,8639,8639,8639,8639,8639,8639,8639,8647,8647,8647,8647,8647,8647,8647,8647,8647,8655,8655,8655,8655,8655,8655,8655,8655,8655,8663,8664,8664,8664,8664,8664,8664,8664,8664,8671,8671,8671,8671,8671,8671,8671,8671,8671,8679,8679,8679,8679,8679,8679,8679,8679,8679,8688,8688,8688,8688,8688,8688,8688,8688,8688,8695,8695,8695,8695,8695,8695,8695,8695,8695,8704,8704,8704,8704,8704,8704,8704,8704,8704,8711,8711,8711,8711,8711,8711,8711,8711,8711,8721,8721,8721,8721,8722,8722,8722,8722,8722,8727,8727,8727,8727,8727,8727,8727,8727,8727,8738,8738,8738,8738,8739,8739,8739,8739,8739,8743,8743,8743,8743,8743,8743,8743,8743,8743,8754,8754,8754,8754,8755,8755,8755,8755,8755,8759,8759,8759,8759,8759,8759,8759,8759,8759,8771,8771,8771,8771,8771,8771,8771,8772,8772,8775,8775,8775,8775,8775,8775,8775,8775,8775,8787,8788,8788,8788,8788,8788,8788,8788,8788,8791,8791,8791,8791,8791,8791,8791,8791,8791,8805,8805,8805,8805,8805,8805,8805,8805,8805,8807,8807,8807,8807,8807,8807,8807,8808,8808,8821,8821,8821,8821,8821,8821,8821,8821,8822,8823,8823,8823,8823,8823,8823,8823,8823,8824,8831,8831,8831,8831,8831,8832,8832,8832,8832,8847,8848,8848,8848,8848,8848,8848,8848,8848,8856,8856,8856,8856,8856,8856,8856,8856,8857,8863,8863,8863,8863,8863,8863,8864,8864,8864,8879,8879,8879,8879,8879,8880,8880,8880,8880,8911,8911,8911,8911,8911,8912,8912,8912,8912,8983,8983,8983,8983,8983,8983,8984,8984,8984,9005,9005,9005,9005,9005,9005,9005,9005,9006,9007,9007,9007,9007,9007,9007,9008,9008,9008,9021,9021,9021,9021,9021,9021,9021,9022,9022,9023,9023,9023,9023,9024,9024,9024,9024,9024,9031,9031,9031,9031,9032,9032,9032,9032,9032,9040,9040,9040,9041,9041,9041,9041,9041,9041,9047,9047,9047,9048,9048,9048,9048,9048,9048" d="m296,148.78333c0.00449,2.60451 0.02576,3.46304 0.22134,4.42218c0.17593,0.86269 0.37912,1.52831 0.49466,2.3205c0.20966,1.43742 0.2034,1.99983 0.23132,2.5905c0.06006,1.27068 0.07642,1.94556 0.10535,2.642c0.02972,0.71558 0.10947,2.19183 0.16901,2.9465c0.06039,0.76538 0.13562,1.54048 0.22498,2.325c0.09061,0.79552 0.19586,1.6006 0.315,2.41499c0.12079,0.82564 0.40213,2.50552 0.55966,3.36017c0.15976,0.86671 0.3317,1.74428 0.50403,2.6355c0.17502,0.90511 0.35269,1.82472 0.52197,2.76151c0.17212,0.95256 0.49075,2.91383 0.6315,3.9245c0.14334,1.02934 0.27325,2.07997 0.40652,3.15001c0.13574,1.08997 0.27197,2.20053 0.4245,3.32999c0.1554,1.15057 0.51733,3.51109 0.73282,4.71968c0.21909,1.22879 0.46188,2.47148 0.70801,3.72899c0.24854,1.26982 0.50305,2.54851 0.74399,3.83701c0.24176,1.29285 0.68036,3.8898 0.86252,5.19099c0.18185,1.29886 0.33691,2.59956 0.48148,3.90001c0.14444,1.29956 0.27551,2.60004 0.40952,3.89999c0.134,1.30005 0.41354,3.90059 0.57349,5.2c0.16006,1.30061 0.33511,2.60071 0.52502,3.90001c0.19009,1.3007 0.39514,2.6008 0.61499,3.89999c0.22015,1.30084 0.702,3.90057 0.9595,5.20067c0.25851,1.30527 0.52948,2.61685 0.79349,3.942c0.267,1.34016 0.53168,2.69995 0.77551,4.086c0.24829,1.41132 0.68637,4.33679 0.86716,5.85733c0.18478,1.55417 0.34042,3.14238 0.492,4.758c0.15378,1.63905 0.29794,3.299 0.45599,4.97401c0.15924,1.68767 0.51859,5.08318 0.73782,6.78181c0.21942,1.7001 0.46756,3.39697 0.7395,5.08951c0.27173,1.69116 0.56775,3.37595 0.88351,5.0535c0.31494,1.67316 0.99667,4.99133 1.35483,6.63568c0.35657,1.63699 0.72488,3.26382 1.08301,4.8855c0.35657,1.61469 0.70703,3.22363 1.02899,4.83148c0.32068,1.60153 0.87921,4.80276 1.10284,6.40436c0.22299,1.59717 0.4064,3.19513 0.57748,4.78949c0.17053,1.58936 0.32385,3.17496 0.48752,4.75351c0.16299,1.57211 0.52304,4.6918 0.74216,6.23566c0.21823,1.53754 0.465,3.06543 0.729,4.58551c0.26334,1.51627 0.54614,3.02594 0.83701,4.53149c0.2905,1.50378 0.89175,4.50433 1.19064,6.00415c0.29843,1.49753 0.59448,2.99072 0.87903,4.479c0.28278,1.4791 0.55496,2.94836 0.80698,4.40701c0.24927,1.44272 0.68869,4.27997 0.87134,5.67117c0.1799,1.37018 0.33383,2.72379 0.47101,4.06049c0.13544,1.31964 0.25311,2.62512 0.36301,3.9165c0.10873,1.27795 0.30853,3.79953 0.409,5.04434c0.09958,1.23386 0.1994,2.45572 0.29999,3.66449c0.09943,1.19489 0.19928,2.37473 0.30002,3.53851c0.09927,1.14688 0.2995,3.38553 0.39981,4.47531c0.09839,1.06888 0.19659,2.11557 0.28952,3.1395c0.09073,0.99976 0.17706,1.97449 0.25348,2.92352c0.07419,0.92163 0.19391,2.6803 0.23584,3.51614c0.04062,0.80954 0.06943,1.59732 0.09601,2.367c0.02609,0.75565 0.04861,1.50143 0.078,2.241c0.0293,0.73776 0.11044,2.2233 0.16867,2.978c0.05905,0.76529 0.1308,1.54007 0.20398,2.32501c0.07413,0.79507 0.15176,1.59979 0.22202,2.41501c0.07108,0.82477 0.19012,2.50479 0.23132,3.35931c0.04147,0.86017 0.06958,1.72266 0.09601,2.58301c0.02625,0.85431 0.04831,1.69876 0.078,2.52899c0.02905,0.81244 0.1088,2.3674 0.16867,3.10236c0.05765,0.70776 0.12906,1.38889 0.20398,2.04599c0.07248,0.63559 0.15039,1.25055 0.22202,1.84799c0.06967,0.58121 0.19012,1.70367 0.23117,2.24884c0.04019,0.53357 0.06711,1.05554 0.08548,1.56451c0.01785,0.49472 0.02679,0.97461 0.03152,1.43848c0.00455,0.44684 0.00394,1.28552 0.00464,1.67599c0.00067,0.3735 0.00223,0.73303 0.01053,1.08151c0.00812,0.34058 0.02188,0.67624 0.04648,1.00949c0.02472,0.33478 0.1062,1.01904 0.16418,1.37302c0.0593,0.36206 0.13016,0.72723 0.20398,1.09351c0.07352,0.36475 0.15021,0.72382 0.22202,1.0755c0.06949,0.34033 0.18918,0.97601 0.23117,1.26666c0.03912,0.27075 0.06674,0.52411 0.08548,0.7605c0.01743,0.22 0.02673,0.42529 0.03152,0.61649c0.00446,0.17813 0.00394,0.49951 0.00464,0.64484c0.00067,0.13733 0.00229,0.2688 0.01053,0.396c0.00815,0.12549 0.02237,0.25119 0.04648,0.37802c0.02509,0.13193 0.10736,0.41476 0.16418,0.56866c0.06039,0.16351 0.13083,0.33154 0.20398,0.504c0.07419,0.17487 0.15036,0.34891 0.22202,0.522c0.06964,0.16827 0.18906,0.48508 0.23117,0.63116c0.03903,0.13538 0.06686,0.26389 0.08548,0.3855c0.01758,0.11484 0.02679,0.22528 0.03152,0.33148c0.00458,0.10312 0.00449,0.3045 0.00449,0.40451c0,0.10001 0,0.20001 0,0.29999c0,0.10001 0,0.20001 0,0.30002c0,0.10001 0,0.29999 0,0.39999c0,0.10001 0,0.20001 0,0.29999c0,0.10001 0,0.20001 0,0.30002c0,0.10001 -0.00052,0.29999 0.00015,0.39984c0.00067,0.09882 0.00214,0.19583 0.01053,0.28949c0.00806,0.09006 0.02097,0.17596 0.04648,0.25351c0.02411,0.07327 0.10571,0.19556 0.16418,0.23547c0.05927,0.04047 0.13046,0.065 0.20398,0.07501c0.07416,0.01007 0.15063,0.00525 0.22202,-0.01498c0.07031,-0.01996 0.1915,-0.10095 0.23117,-0.16034c0.04245,-0.06357 0.06839,-0.14789 0.08548,-0.246c0.01996,-0.11459 0.02707,-0.25061 0.03152,-0.40802c0.00513,-0.18127 0.00403,-0.62399 0.00464,-0.88849c0.00067,-0.2915 0.00262,-0.60703 0.01053,-0.94348c0.00833,-0.35458 0.02216,-0.72421 0.04648,-1.10553c0.02493,-0.39069 0.10583,-1.18701 0.16418,-1.58698c0.05896,-0.40405 0.13135,-0.81302 0.20398,-1.23151c0.07471,-0.43051 0.15277,-0.87549 0.22202,-1.33951c0.07224,-0.48398 0.19141,-1.52811 0.23117,-2.09351c0.04184,-0.59464 0.06766,-1.21991 0.08548,-1.875c0.01865,-0.68491 0.02692,-1.39999 0.03152,-2.14499c0.00479,-0.77499 0.00449,-2.41501 0.00449,-3.27951c0,-0.89148 0,-1.80698 0,-2.7435c0,-0.9545 0,-1.92398 0,-2.90549c0,-0.99051 0,-2.98651 0,-3.98718c0,-1.00467 0,-2.01733 0,-3.04199c0,-1.04065 0,-2.10132 0,-3.186l0,-1.11267" id="svg_6" stroke-width="2" stroke="#000" fill="none"/>
  <path t="9295,9358,9359,9359,9367,9367,9367,9367,9375,9375,9375,9375,9386,9386,9386,9386,9386,9386,9391,9391,9391,9391,9391,9391,9391,9391,9391,9404,9404,9404,9404,9404,9404,9404,9404,9407,9407,9407,9407,9407,9407,9407,9407,9407,9421,9421,9421,9421,9421,9421,9421,9421,9421,9423,9423,9423,9423,9423,9423,9423,9423,9423,9431,9431,9431,9431,9431,9431,9431,9431,9431,9439,9439,9439,9439,9440,9440,9440,9440,9440,9448,9448,9448,9448,9448,9448,9448,9448,9448,9456,9456,9456,9456,9456,9456,9456,9456,9456,9463,9463,9463,9463,9463,9464,9464,9464,9464,9472,9472,9472,9472,9472,9472,9472,9472,9472,9479,9479,9479,9479,9479,9479,9479,9479,9479,9488,9488,9488,9488,9488,9488,9488,9488,9488,9495,9495,9495,9495,9495,9495,9495,9495,9495,9506,9506,9506,9506,9506,9506,9506,9506,9506,9511,9511,9511,9511,9511,9511,9511,9511,9512,9521,9521,9521,9521,9522,9522,9522,9522,9522,9527,9527,9527,9527,9527,9527,9527,9527,9528,9538,9538,9538,9538,9538,9538,9538,9539,9539,9543,9543,9543,9543,9543,9543,9543,9543,9544,9554,9555,9555,9555,9555,9555,9555,9555,9555,9647,9647,9647,9647,9647,9648,9648,9648,9648,9656,9656,9656,9656,9656,9656,9656,9656,9656,9663,9663,9663,9663,9663,9663,9664,9664,9664,9672,9672,9672,9672,9672,9672,9672,9672,9672,9679,9679,9679,9679,9679,9679,9680,9680,9680,9688,9688,9688,9688,9688,9688,9689,9689,9689,9695,9695,9695,9695,9695,9695,9696,9696,9696,9705,9705,9705,9705,9705,9705,9705,9705,9705" d="m287,164.78333c0,0.16667 -0.00006,1.0625 0,1.772c0.00009,0.871 -0.00027,1.90047 0.03601,2.64934c0.03787,0.78197 0.172,1.98108 0.32117,2.77867c0.15012,0.80264 0.34543,1.60045 0.64282,2.79999c0.20007,0.80699 0.30643,1.22203 0.52084,2.10417c0.23846,0.98116 0.36655,1.52203 0.64581,2.72917c0.15579,0.6734 0.31821,1.38913 0.48602,2.13899c0.17355,0.77547 0.34848,1.56909 0.52197,2.373c0.17383,0.80542 0.34933,1.60371 0.65869,3.15466c0.28879,1.44788 0.41226,2.14603 0.53067,2.83467c0.11792,0.6857 0.22812,1.37692 0.33148,2.08051c0.10605,0.72176 0.30606,2.25131 0.40466,3.07066c0.10278,0.85397 0.20355,1.73842 0.31052,2.64751c0.10934,0.92924 0.2222,1.87372 0.3465,2.8275c0.12506,0.95958 0.40515,2.87321 0.56415,3.81833c0.15839,0.94156 0.3313,1.88168 0.50403,2.8275c0.17456,0.95584 0.35327,1.92598 0.52197,2.9175c0.17273,1.01515 0.49225,3.14171 0.63135,4.26234c0.14377,1.15805 0.27142,2.35539 0.396,3.58949c0.12814,1.26956 0.25024,2.57471 0.37799,3.9135c0.13092,1.37189 0.41098,4.21082 0.56885,5.67484c0.16074,1.49068 0.33353,3.00291 0.5145,4.533c0.18268,1.54459 0.37332,3.09883 0.56851,4.659c0.19547,1.5625 0.5946,4.67711 0.79565,6.22267c0.20029,1.53978 0.40277,3.07755 0.6105,4.61699c0.20862,1.54588 0.42316,3.10164 0.64648,4.67101c0.22598,1.58798 0.70703,4.83336 0.96436,6.49718c0.26132,1.68954 0.53351,3.39865 0.81448,5.1225c0.28271,1.7345 0.57278,3.47363 0.8685,5.21249c0.29495,1.7345 0.89493,5.1676 1.19516,6.85782c0.29709,1.67242 0.59424,3.32816 0.87903,4.97101c0.28253,1.62985 0.55569,3.24966 0.80698,4.86301c0.25003,1.60535 0.68878,4.80807 0.87167,6.40866c0.18246,1.5968 0.33896,3.19119 0.492,4.77899c0.15225,1.57953 0.29666,3.14981 0.45599,4.707c0.15802,1.54416 0.51834,4.58243 0.73752,6.07135c0.21695,1.47375 0.46204,2.92953 0.71848,4.371c0.25461,1.43121 0.52393,2.85065 0.7905,4.263c0.26541,1.40631 0.7854,4.20831 1.02686,5.60898c0.24121,1.39935 0.46964,2.79987 0.69598,4.20001c0.22632,1.39984 0.44873,2.80029 0.67801,4.20001c0.22937,1.40033 0.71002,4.20071 0.96866,5.59982c0.2587,1.39957 0.53,2.79593 0.80402,4.18951c0.27332,1.39011 0.5506,2.77441 0.82199,4.15347c0.26993,1.37161 0.7901,4.08978 1.03101,5.43567c0.23904,1.33545 0.46442,2.66364 0.67499,3.9855c0.20941,1.31448 0.40472,2.62466 0.58502,3.93152c0.17972,1.30252 0.49823,3.90411 0.64047,5.20383c0.14172,1.29498 0.27118,2.58286 0.40652,3.858c0.1337,1.25952 0.26874,2.49957 0.4245,3.71399c0.1524,1.18826 0.51251,3.4642 0.73267,4.54251c0.2135,1.04572 0.45499,2.0538 0.69748,3.03149c0.23593,0.95129 0.4783,1.87479 0.69751,2.77951c0.21402,0.88333 0.57404,2.60672 0.69833,3.45331c0.12219,0.83224 0.20605,1.65527 0.2775,2.46451c0.07013,0.79446 0.12344,1.57495 0.1875,2.3385c0.06268,0.7471 0.22284,2.18713 0.34183,2.87534c0.11594,0.67053 0.25797,1.31677 0.40802,1.93951c0.14481,0.60092 0.29907,1.17453 0.444,1.72348c0.13773,0.52173 0.37775,1.47934 0.46249,1.91583c0.07889,0.40634 0.13562,0.78833 0.18149,1.146c0.04297,0.33505 0.07455,0.65085 0.1095,0.948c0.03311,0.28152 0.11362,0.80515 0.17319,1.04919c0.05792,0.23734 0.12949,0.46494 0.20398,0.68549c0.07288,0.21579 0.1507,0.42487 0.22202,0.6315c0.06998,0.2027 0.19025,0.60358 0.23117,0.80432c0.04037,0.19803 0.06714,0.39542 0.08548,0.58951c0.01791,0.18961 0.02679,0.37463 0.03152,0.5535c0.00455,0.17181 0.00449,0.49051 0.00449,0.63516c0,0.13269 0,0.25134 0,0.354c0,0.08469 0,0.14935 0,0.19202c0,0.01865 0,-0.02402 0,-0.08902c0,-0.095 0,-0.22 0,-0.375c0,-0.185 0,-0.39999 0,-0.64499c0,-0.27499 0,-0.91501 0,-1.27933c0,-0.39035 0,-0.80267 0,-1.233c0,-0.44434 0,-0.89868 0,-1.35901c0,-0.46234 0,-1.37698 0,-1.82266c0,-0.43967 0,-0.87732 0,-1.31699c0,-0.44568 0,-0.90134 0,-1.371c0,-0.48767 0,-1.53302 0,-2.09784c0,-0.59384 0,-1.21567 0,-1.8645c0,-0.67484 0,-1.37466 0,-2.09851c0,-0.74683 0,-2.30548 0,-3.11548c0,-0.83002 0,-1.68002 0,-2.55002c0,-0.88998 0,-1.79999 0,-2.73001c0,-0.94998 0,-2.90997 0,-3.91965c0,-1.02768 0,-2.07135 0,-3.129c0,-1.06967 0,-2.14935 0,-3.237c0,-1.09369 0,-3.29102 0,-4.39151c0,-1.10349 0,-2.21301 0,-3.33151c0,-1.13049 0,-2.27597 0,-3.43948l0,-1.18451" id="svg_7" stroke-width="2" stroke="#000" fill="none"/>
  <path t="10383,10446,10446,10446,10455,10455,10455,10455,10463,10463,10463,10463,10463,10463,10471,10471,10471,10471,10471,10471,10471,10471,10479,10479,10479,10479,10479,10479,10479,10479,10479,10487,10487,10487,10487,10487,10487,10487,10487,10487,10495,10495,10495,10495,10495,10495,10495,10495,10495,10512,10512,10512,10512,10512,10512,10512,10512,10512,10520,10520,10520,10521,10521,10521,10521,10521,10521,10527,10527,10527,10527,10527,10527,10527,10527,10527,10537,10537,10537,10537,10537,10537,10538,10538,10538,10543,10544,10544,10544,10544,10544,10544,10544,10544,10555,10555,10555,10555,10555,10555,10555,10555,10555,10559,10559,10559,10559,10559,10559,10559,10559,10559,10571,10571,10571,10571,10572,10572,10572,10572,10572,10575,10575,10575,10575,10575,10575,10575,10575,10575,10588,10588,10588,10588,10588,10588,10588,10588,10588,10591,10591,10591,10591,10591,10591,10591,10591,10591,10605,10605,10605,10605,10605,10605,10605,10605,10605,10607,10607,10607,10607,10607,10607,10607,10607,10607,10621,10621,10621,10621,10621,10621,10621,10622,10622,10623,10623,10623,10623,10623,10623,10623,10623,10624,10638,10638,10638,10638,10638,10638,10638,10638,10638,10640,10640,10640,10640,10640,10640,10640,10640,10640,10647,10647,10647,10647,10647,10647,10647,10648,10648,10656,10656,10656,10656,10656,10656,10656,10656,10656,10663,10663,10663,10663,10663,10663,10664,10664,10664,10672,10672,10672,10672,10672,10672,10672,10672,10673,10679,10679,10679,10679,10679,10679,10679,10680,10680,10688,10688,10688,10688,10688,10688,10689,10689,10689,10695,10695,10695,10695,10695,10695,10695,10696,10696,10704,10705,10705,10705,10705,10705,10705,10705,10705,10711,10711,10711,10711,10711,10711,10712,10712,10712,10721,10722,10722,10722,10722,10722,10722,10722,10722,10727,10727,10727,10727,10727,10727,10727,10728,10728,10739,10739,10739,10739,10739,10739,10739,10739,10739,10743,10743,10743,10743,10743,10743,10744,10744,10744,10754,10755,10755,10755,10755,10755,10755,10755,10755,10759,10759,10759,10759,10759,10759,10759,10759,10760,10935,10935,10935,10935,10935,10935,10936,10936,10936,10953,10954,10954,10954,10954,10954,10954,10954,10955,10959,10959,10959,10959,10960,10960,10960,10960,10960,10972,10972,10972,10972,10972,10972,10972,10973,10973,10975,10975,10975,10975,10976,10976,10976,10976,10976,10988,10988,10988,10988,10989,10989,10989,10989,10989,10991,10991,10991,10991,10991,10992,10992,10992,10992" d="m304,47.78333c0,2.96167 0,3.54167 0,4.48667c0,1.035 0,1.775 0,2.555c0,0.82 -0.00235,2.12501 0.00134,3.04633c0.00192,0.47817 0.01532,1.47464 0.03467,1.99467c0.04056,1.08969 0.12589,2.25111 0.18549,2.86083c0.12564,1.28536 0.21359,1.96061 0.29935,2.66066c0.08887,0.72528 0.18497,1.47617 0.28049,2.2545c0.20142,1.641 0.30008,2.50584 0.39868,3.39867c0.10144,0.91851 0.20099,1.86123 0.29999,2.826c0.10104,0.98456 0.20096,1.98724 0.29999,3.006c0.20193,2.07715 0.30069,3.13261 0.40002,4.2c0.10065,1.08128 0.20087,2.1786 0.29999,3.29401c0.10089,1.13525 0.20163,2.29253 0.29999,3.474c0.20334,2.44239 0.30011,3.70718 0.40134,4.99866c0.10312,1.31551 0.20752,2.65215 0.31952,4.0065c0.11328,1.36965 0.23053,2.75155 0.3645,4.1415c0.26962,2.79715 0.43182,4.1994 0.60397,5.61867c0.17639,1.45443 0.37482,2.9592 0.59402,4.53149c0.23123,1.65842 0.48904,3.41821 0.77399,5.2965c0.63467,4.18389 1.0047,6.51287 1.39734,8.98134c0.40994,2.57721 0.83899,5.23127 1.28699,7.93049c0.45068,2.71545 0.90546,5.41531 1.37701,8.06551c0.89713,5.04182 1.35397,7.37247 1.79468,9.58c0.41959,2.10175 0.83875,4.10959 1.245,6.04199c0.39377,1.87294 0.78622,3.70006 1.155,5.50201c0.73239,3.57881 1.06973,5.38948 1.40134,7.21333c0.33276,1.83017 0.65091,3.66371 0.96448,5.493c0.31177,1.81873 0.61377,3.62244 0.91953,5.403c0.59634,3.47285 0.89917,5.15372 1.20132,6.80266c0.29788,1.62572 0.60001,3.23468 0.89999,4.836c0.29999,1.60133 0.60349,3.21004 0.89999,4.83601c0.60715,3.32936 0.90198,5.049 1.20001,6.79999c0.302,1.77434 0.60001,3.56534 0.89999,5.364c0.29999,1.79868 0.59665,3.58992 0.89999,5.36401c0.59341,3.47046 0.89731,5.15065 1.20001,6.79599c0.29736,1.61633 0.5986,3.20692 0.89999,4.7775c0.29861,1.55611 0.60022,3.10162 0.89999,4.6425c0.60046,3.08658 0.90231,4.64101 1.19733,6.20534c0.29633,1.57133 0.58664,3.14975 0.86102,4.7355c0.27493,1.58893 0.53973,3.18182 0.771,4.7805c0.46219,3.19516 0.63373,4.79771 0.80267,6.396c0.1684,1.59306 0.31683,3.18135 0.46799,4.761c0.15018,1.5697 0.29398,3.12857 0.46799,4.67099c0.34299,3.03995 0.56839,4.52863 0.79868,6c0.22809,1.45731 0.47495,2.89841 0.71249,4.32901c0.23581,1.42004 0.474,2.83044 0.66751,4.23898c0.38449,2.79858 0.49976,4.20139 0.59866,5.59869c0.09836,1.38977 0.16211,2.77179 0.21301,4.14148c0.05035,1.35437 0.08221,2.6911 0.12299,4.0065c0.07925,2.55618 0.13559,3.79208 0.20401,5.00269c0.06732,1.1911 0.14801,2.36685 0.2355,3.5325c0.08716,1.16104 0.18314,2.32169 0.28049,3.48749c0.19763,2.36676 0.2998,3.57556 0.39734,4.79868c0.09814,1.2309 0.19281,2.46384 0.28049,3.69299c0.08694,1.21884 0.16873,2.42169 0.2355,3.603c0.12842,2.27148 0.16647,3.35242 0.20132,4.396c0.03372,1.0094 0.05835,1.98801 0.08401,2.93851c0.02499,0.92551 0.04715,1.82922 0.08401,2.7135c0.07187,1.72449 0.13409,2.56958 0.19998,3.40668c0.06546,0.83157 0.14133,1.65866 0.216,2.48398c0.07468,0.82535 0.15265,1.65225 0.216,2.48401c0.12808,1.68188 0.1658,2.53738 0.19998,3.40134c0.03448,0.8717 0.05875,1.75067 0.08401,2.6355c0.02539,0.88983 0.04776,1.78384 0.08401,2.68051c0.07275,1.79907 0.13409,2.69839 0.19998,3.59467c0.06546,0.89072 0.14069,1.77203 0.216,2.64148c0.07404,0.85458 0.15091,1.6907 0.216,2.5065c0.12415,1.55548 0.16431,2.29175 0.20132,3.00269c0.03595,0.69077 0.06537,1.36682 0.10352,2.0325c0.03787,0.66098 0.07892,1.32263 0.1485,1.98749c0.14328,1.36899 0.26877,2.07697 0.39865,2.80267c0.13269,0.74133 0.28314,1.49191 0.43201,2.2515c0.14981,0.7644 0.30386,1.52942 0.43201,2.29651c0.25278,1.51306 0.3327,2.26062 0.39734,2.99866c0.064,0.73068 0.10367,1.4585 0.129,2.18399c0.02533,0.72519 0.03519,1.45264 0.039,2.18402c0.00775,1.48264 0.00266,2.237 0.00266,2.99731c0,0.76233 0,1.52267 0,2.27701c0,0.74432 0,1.47467 0,2.18701c0,1.35464 -0.00089,1.99066 0.00134,2.60266c0.00214,0.59399 0.00684,1.17606 0.0195,1.75198c0.01266,0.57608 0.03107,1.15829 0.06448,1.75201c0.07028,1.24866 0.13321,1.91245 0.20001,2.60132c0.06879,0.70947 0.1485,1.43359 0.2355,2.16751c0.08765,0.73944 0.18124,1.47867 0.28049,2.21249c0.19394,1.43399 0.29861,2.12396 0.39734,2.79868c0.09695,0.66263 0.19312,1.31699 0.28049,1.96799c0.08728,0.65033 0.17072,1.3046 0.2355,1.96802c0.13321,1.36398 0.16721,2.07434 0.20132,2.79865c0.03458,0.73404 0.05859,1.47336 0.08401,2.21252c0.02524,0.73416 0.04672,1.45859 0.08401,2.16748c0.07126,1.35397 0.1322,1.98959 0.20132,2.59866c0.06674,0.58829 0.14743,1.15784 0.2355,1.71301c0.08664,0.54617 0.18289,1.08548 0.28049,1.62299c0.19711,1.08563 0.29904,1.63977 0.39868,2.20135c0.10034,0.56543 0.19955,1.13208 0.29999,1.6965c0.09958,0.55957 0.19791,1.11139 0.29999,1.65149c0.19595,1.03677 0.29916,1.52649 0.39868,1.99866c0.09619,0.45645 0.19208,0.89838 0.28049,1.32901c0.08621,0.42004 0.1694,0.8317 0.2355,1.23898c0.12997,0.80093 0.16776,1.20218 0.20001,1.60135c0.03204,0.39651 0.05176,0.79059 0.06448,1.18051c0.01257,0.38477 0.01758,0.76364 0.0195,1.1355c0.00372,0.71866 0.00046,1.06366 0.00269,1.39865c0.00214,0.32501 0.00659,0.64011 0.0195,0.94501c0.01251,0.2951 0.02902,0.58084 0.06448,0.85501c0.0675,0.52197 0.13184,0.76614 0.19867,1c0.06464,0.22617 0.13965,0.44058 0.216,0.64499c0.07306,0.19562 0.14932,0.37924 0.216,0.55499c0.12094,0.31866 0.16547,0.46442 0.19867,0.60135c0.03091,0.1275 0.05157,0.24905 0.06448,0.3645c0.0123,0.10995 0.01758,0.21628 0.0195,0.31949c0.00372,0.20129 0.00049,0.30121 0.00269,0.39999c0.00217,0.09686 0.00644,0.19104 0.0195,0.28052c0.01242,0.08527 0.02838,0.16733 0.06448,0.23547c0.06738,0.12714 0.13342,0.16879 0.19867,0.19867c0.06644,0.03043 0.14117,0.04501 0.216,0.04501c0.07483,0 0.15097,-0.01166 0.216,-0.04501c0.12637,-0.06482 0.16711,-0.13242 0.19867,-0.19867c0.03317,-0.06964 0.05206,-0.15021 0.06448,-0.23547c0.01306,-0.08948 0.01761,-0.18365 0.0195,-0.28052c0.00391,-0.19864 0.00134,-0.29883 0.00134,-0.39999c0,-0.10318 0,-0.20932 0,-0.31949c0,-0.11517 0,-0.23636 0,-0.3645c0,-0.28134 0,-0.43619 0,-0.60001c0,-0.17184 0,-0.35068 0,-0.53549c0,-0.18985 0,-0.38367 0,-0.58051c0,-0.39868 0,-0.59885 0,-0.80002c0,-0.20316 0,-0.40933 0,-0.61948c0,-0.21518 0,-0.43634 0,-0.66452c0,-0.48132 0,-0.73648 0,-1.00266c0,-0.27817 0,-0.56934 0,-0.87451l0,-0.32016l0,-0.33615l0,-0.35318" id="svg_8" stroke-width="2" stroke="#000" fill="none"/>
 </g>
 <g display="none">
  <title>muse_image</title>
  <image xlink:href="http://farm4.static.flickr.com/3346/3314193918_4f35dfe87c.jpg" id="muse" height="480" width="320" y="0" x="160"/>
 </g>
 <g display="none">
  <title>bbox</title>
  <rect stroke="#f00" fill="none" stroke-width="3" height="448.32" width="205.98802" y="0.96" x="215.56886" id="bbox"/>
 </g>
</svg>
