<svg width="640" height="480" xmlns="http://www.w3.org/2000/svg" xmlns:svg="http://www.w3.org/2000/svg" xmlns:xlink="http://www.w3.org/1999/xlink">
 <!-- Sketchy ANNOTATION
  ImageNet ID: n02676566_8467
  URL: http://farm4.static.flickr.com/3346/3314193918_4f35dfe87c.jpg
  Image Width: 334
  Image Height: 500
  BBox X: 58
  BBox Y: 1
  BBox Width: 215
  BBox Height: 467
  Exposure: 2000ms
  Synset Label: guitar
  Synset ID: n03467517
  Worker Tag: acoustic guitar
  Sanity Check: 
   Saved
  Comment: 
   {}
  Worker ID: A1P7U2ULSAE7YL
  Assignment ID: 30BUDKLTXDV3YIVJX98QRIAHJT1E5B
  HIT ID: 375VMB7D4JJ8VGE4IWBYLP1GLQADIS
  Work Time: 148s
  Worker Score: 0.7857
 END ANNOTATION -->
 <g display="inline">
  <title>Layer 1</title>
  <path t="0,295,311,327,351,367,383,415,431,431,447,487,511,559,655,1135,1151,1161,1168,1183,1199,1209,1216,1225,1226,1244,1255,1255,1271,1287,1423,1447,1455,1471,1479,1487,1487,1503,1519,1527,1527,1543,1559,1583,1695,1695,1735,1775,1799,1807,1831,2495,2535,2647,2679,2679,2719,2735,2759,2767,2807,2823,2839,2871,2895,2903,2911,2983,3000,3031,3055,3071,3071,3079,3095,3119,3151,3167,3175,3279,3327,3695,3695,3775" d="m315.51135,31.09091c-1.83331,0 -2.61066,0 -3.5,0c-0.89999,0 -1.79999,0 -2.69998,0c-0.89999,0 -1.80002,0 -2.60001,0c-0.89999,0 -1.79999,0 -2.76401,0c-0.87198,0 -1.73599,0 -2.72699,0c0,0 0.89099,0 1.85501,0c0.87198,0 1.73599,0 2.63599,0c0.89999,0 1.79999,0 2.60001,0c0.95715,0 1.85266,0 2.716,0c0.84799,0 1.89963,0.20164 2.48532,-0.284c0.62125,-0.51514 1.29868,-0.716 2.19867,-0.716c0.89999,0 1.79999,0 2.60001,0c0.89999,0 1.836,0 2.68399,0c0.86334,0 1.75433,0 2.73752,0c0.87848,0 1.77847,0 2.57849,0c0.89999,0 1.79999,0 2.69998,0c0.90002,0 1.82193,-0.19591 2.69867,0.00133c0.80286,0.18062 0.43787,0.80823 -0.29849,1.22017c-0.73755,0.41261 -0.88528,1.37856 -0.90018,2.2785c-0.0162,0.97925 -0.77478,1.43661 -0.99548,2.2045c-0.24738,0.86066 -0.00226,1.79551 -0.00452,2.6955c-0.00226,0.89551 -0.68124,1.411 -0.98932,2.17467c-0.32227,0.79885 -0.01059,1.72533 -0.01068,2.62534c-0.00009,0.9 -0.2421,1.75378 -0.64731,2.5c-0.4133,0.76112 -0.35269,1.7 -0.35269,2.6c0,0.9 0.32516,2.00356 -0.284,2.61467c-0.53586,0.53759 -0.716,1.18533 -0.716,2.08533l0,0.8l0,0.9" id="svg_1" stroke-width="2" stroke="#000" fill="none"/>
  <path t="5352,5455,5471,5487,5495,5503,5520,5537,5911,5919,5927,5943,5953,5959,5975,5983,5999,6015,6023,6023,6039,6071,6087,6103,6103,6111,6119,6136,6152,6159,6167,6191,6191,6215,6231,6247,6271,6279,6295,6319,6335,6351,6399,6399,6447,6455,6479,6487,6527,6535" d="m303.51135,31.09091c-1.69998,0 -2.59998,0 -3.5,0c-0.89999,0 -1.79999,0 -2.69998,0c-0.89999,0 -2.12732,-0.5715 -2.74283,0.0045c-0.58331,0.54586 -0.05719,1.6955 -0.05719,2.5955c0,0.9 0,1.8 0,2.7c0,0.9 -0.18134,1.85347 0.16669,2.7c0.27588,0.67107 0.8208,1.47901 0.83331,2.35717c0.01343,0.94275 0.32614,1.67949 0.716,2.44283c0.38455,0.75289 0.284,1.7 0.284,2.6c0,0.9 0,1.8 0,2.7c0,0.9 -0.01801,1.70018 0,2.6c0.01801,0.90054 0.43451,1.69444 0.91602,2.49866c0.44522,0.74363 1.06598,1.23677 1.08398,2.10133c0.01874,0.89981 0,1.8 0,2.7c0,0.8 0.13754,1.59974 0.64734,2.05717c0.61252,0.54959 0.35266,1.64283 0.40985,2.58567l0.65881,0.44117" id="svg_2" stroke-width="2" stroke="#000" fill="none"/>
  <path t="8063,8288,8288,8328,8352,8392,8408,8424,8472,8488,8512,8552,8600,8616,8656,8696" d="m324.51135,51.09091c0,1 0,1.8 0,2.7c0,0.9 0,1.8 0,2.7c0,0.9 0,1.8 0,2.7c0,0.9 0,1.816 0,2.6045l0,0.8955l0,0.9l0,0.9" id="svg_3" stroke-width="2" stroke="#000" fill="none"/>
  <path t="12504,12824,12864,12872,12896,12960,13008,13096,13336,13352,13352,13368,13384,13400,13424,13424,13448,13472,13480,13488,13504,13512,13528,13545,13568,13576,13584,13600,13600,13608,13624,13639,13648,13656,13664,13672,13672,13681,13681,13688,13698,13704,13714,13714,13728,13728,13736,13736,13745,13752,13761,13761,13768,13776,13791,13791,13800,13808,13816,13816,13832,13832,13840,13840,13848,13856,13864,13864,13872,13872,13880,13880,13880,13888,13896,13904,13904,13912,13912,13912,13920,13920,13928,13928,13928,13936,13936,13936,13944,13945,13945,13952,13952,13952,13961,13961,13961,13968,13968,13976,13976,13976,13984,13984,13984,13992,13992,14000,14000,14008,14016,14016,14024,14024,14032,14032,14040,14040,14048,14048,14056,14056,14064,14072,14072,14080,14080,14080,14088,14088,14096,14104,14112,14112,14120,14128,14136,14136,14144,14152,14152,14161,14168,14178,14184,14184,14184,14192,14200,14200,14208,14216,14216,14224,14240,14249,14256,14256,14265,14272,14272,14280,14288,14288,14296,14304,14312,14328,14328,14336,14336,14344,14344,14352,14360,14361,14368,14377,14384,14384,14392,14392,14400,14408,14408,14416,14416,14423,14424,14439,14448,14448,14464,14464,14464,14472,14472,14488,14503,14504,14514,14520,14530,14530,14536,14547,14547,14552,14561,14561,14568,14577,14577,14584,14584,14592,14608,14608,14616,14616,14616,14624,14624,14639,14640,14648,14648,14656,14656,14664,14672,14672,14687,14703,14720,14736,14736,14752,14752" d="m299.51135,63.09091c0,1.8 0,2.7 0,3.6c0,0.9 0,1.8 0,2.6955c0,0.87116 0,1.8045 0,2.7045c0,0.8 0,1.7 0,2.6c0,0.81067 0,1.72134 0,2.57467c0,0.93999 0,1.92516 0,2.77267c0,0.75716 0,1.75266 0,2.65266c0,0.9 0,1.8 0,2.7c0,0.9 0,1.8 0,2.7c0,0.8 0,1.7 0,2.564c0,0.872 0,1.83601 0,2.736c0,0.9 0,1.7 0,2.58533c0,0.94 -0.00708,1.63069 0,2.704c0.00534,0.81072 0.47025,1.64307 0.83334,2.41067c0.33707,0.71259 0.56198,1.64174 0.814,2.4045c0.323,0.97751 0.34732,1.75946 0.35266,2.71017c0.00552,0.98532 0,1.88534 0,2.68533c0,0.9 0,1.764 0,2.76934c0,0.78249 0,1.6735 0,2.632c0,0.96533 0,1.624 0,2.632c0,0.792 0,1.81933 0,2.514c0,1.01666 0,1.95266 0,2.85533c0,0.768 0,1.80717 0,2.58266c0,1.048 0,1.753 0,2.553c0,1.02567 0,1.96617 0,2.82834c0,0.85416 0,1.83333 0,2.63333c0,0.8 -0.04099,1.80852 0.05719,2.65717c0.1124,0.97156 0.38599,1.76355 0.59015,2.59016c0.25342,1.02609 0.33118,1.72681 0.34818,2.40533c0.03085,1.23228 0.00449,2.06816 0.00449,2.65182c0,1.19551 0,2.0955 0,2.69551c0,1.2 0,2.091 0,2.65833c0,1.20834 0,2.04167 0,2.875c0,0.93867 0,1.77567 0,2.66667c0,0.89101 0,1.728 0,2.66667c0,0.948 0,1.81732 0,2.68066c0,0.89999 0,1.81934 0,2.65266c0,0.97867 0,1.75267 0,2.65717c0,0.74733 0,1.74283 0,2.54283c0,0.99983 0,1.964 0,2.916c0,0.76801 0,1.70934 0,2.71733c0,0.6875 0,1.7095 0,2.42801c0,0.7905 0,1.817 0,2.69699c0,1.02 0,1.9205 0,2.75151c0,0.8075 0,1.76933 0,2.70082c0,0.91068 0,1.76401 0,2.70401c0,0.88533 0,1.6425 0,2.53349c0,1.01851 0,1.80917 0,2.68517c0,0.91734 0,1.66133 0,2.696c0,0.97067 0,1.77068 0,2.60667c0,1.01666 0,1.71133 0,2.71733c0,0.93201 0,1.84666 0,2.74683c0,0.78517 0,1.72517 0,2.73317c0,0.756 0,1.6875 0,2.48801c0,0.85333 0,1.79199 0,2.76266c0,0.80267 0,1.752 0,2.51733c0,0.99867 0,1.79866 0,2.79733c0,0.76534 0,1.716 0,2.70149c0,0.78517 0,1.71451 0,2.65718c0,0.81332 0,1.65166 0,2.64133c0,0.76534 0,1.71733 0,2.76801c0,0.65866 0,1.66666 0,2.45866c0,1.02283 0,1.80533 0,2.73633c0,0.95984 0,1.65916 0,2.63834c0,0.8 0,1.60001 0,2.5955c0,0.91916 0,1.9045 0,2.72583c0,0.85333 0,1.79333 0,2.77867c0,0.89999 -0.00186,1.7 0,2.536c0.00226,1.01666 -0.04459,1.75418 0.42535,2.728c0.3757,0.77853 0.57397,1.52133 0.57465,2.46133c0.0007,1.008 0,1.8 0,2.65866c0,0.86334 0,1.76334 0,2.68268c0,0.85417 0,1.83333 0,2.63332c0,0.80002 0,1.79102 0,2.62933c0,1.01367 0,1.79202 0,2.77051c0,0.77933 0,1.77866 0,2.59885c0,0.83731 0,1.854 0,2.54865c0,1.01669 0,1.95267 0,2.854c0,0.96533 0,1.62399 0,2.63202l0,0.86215" id="svg_4" stroke-width="2" stroke="#000" fill="none"/>
  <path t="16072,16191,16208,16215,16225,16240,16248,16271,16280,16287,16288,16296,16312,16312,16320,16320,16335,16343,16367,16367,16375,16383,16392,16392,16400,16408,16415,16425,16432,16441,16441,16448,16455,16471,16487,16488,16496,16496,16503,16504,16512,16527,16535,16543,16544,16551,16552,16559,16568,16568,16583,16591,16600,16600,16608,16608,16616,16624,16624,16624,16641,16641,16647,16648,16656,16671,16671,16679,16680,16687,16687,16695,16696,16704,16704,16711,16712,16719,16719,16727,16736,16736,16744,16744,16744,16752,16759,16768,16768,16775,16776,16776,16784,16784,16791,16792,16800,16800,16807,16808,16816,16816,16816,16824,16824,16824,16831,16832,16841,16848,16848,16856,16856,16863,16863,16863,16871,16872,16879,16880,16888,16888,16896,16896,16903,16903,16903,16911,16911,16919,16919,16927,16928,16936,16936,16943,16944,16952,16959,16960,16960,16967,16978,16978,16983,16991,17000,17000,17007,17015,17016,17024,17024,17031,17041,17041,17048,17048,17057,17057,17057,17063,17064,17064,17072,17079,17080,17080,17087,17088,17096,17096,17103,17103,17112,17119,17119,17135,17143,17144,17152,17167,17167,17175,17176,17184,17184,17191,17192,17200,17200,17207,17208,17215,17224,17224,17231,17241,17241,17247,17257,17264,17264,17279,17280,17287,17295,17312,17312,17320,17335,17343,17344,17351,17352,17352,17359,17360,17368,17377,17377,17384,17384,17394,17400,17415,17415,17424,17440,17441,17447,17448,17457,17464,17472,17472,17479,17487,17496,17496,17512,17512,17528,17528,17543,17551,17567,17577,17871,17887,17896,17919,17920,17951,17983,18000,18023,18047,18047,18071,18088,18088,18119,18167,18183,18215,18223,18243,18247,18256,18256,18273,18519,18543,18559,18575,18607,18623,18624" d="m325.51135,54.09091c0,1.8 0,2.7 0,3.6c0,0.9 0,1.8 0,2.6955c0,0.87117 0,1.8045 0,2.7045c0,0.8 0,1.636 0,2.48533c0,0.91917 0,1.91334 0,2.67867c0,0.94933 0,1.88866 0,2.836c0,0.8 0,1.7 0,2.52084c0,0.96317 0,1.65383 0,2.722c0,0.95716 0,1.85716 0,2.75716c0,0.83334 0,1.70983 0,2.51733c0,0.96183 0,1.88267 0,2.684c0,0.96533 0,1.79867 0,2.77734c0,0.77399 0,1.674 0,2.53733c0,0.94234 0,1.84116 0,2.68533c0,0.96533 0,1.79867 0,2.77717c0,0.82017 0,1.6575 0,2.5055c0,0.86333 0,1.88 0,2.71733c0,0.96533 -0.03873,1.79944 0.00018,2.77717c0.02859,0.71869 0.60471,1.52679 0.83316,2.35484c0.24927,0.9034 0.1644,1.71849 0.16666,2.745c0.00192,0.88 0,1.755 0,2.61716c0,0.82534 0,1.78983 0,2.51517c0,0.98933 0,1.78934 0,2.78934c0,0.78933 0,1.83334 0,2.62534c0,1.03183 0,1.77916 0,2.77333c0,0.76534 0,1.71733 0,2.48534c0,0.94133 0,1.94933 0,2.77733c0,0.88133 0,1.83867 0,2.57066c0,0.95367 0,1.968 0,2.86833c0,0.714 0,1.66901 0,2.4205c0,0.79651 0,2.022 0,2.6685c0,1.0105 0,1.78984 0,2.92667c0,0.76801 0,1.73067 0,2.34567c0,1.22366 0,1.77432 0,2.64282c0,1.19518 0,2.07417 0,2.88118c0,0.87132 -0.10065,1.82208 0.03601,2.65033c0.14404,0.873 0.62515,1.55214 0.8425,2.564c0.16934,0.78833 0.12149,1.8 0.12149,2.60001c0,0.8 0,1.8 0,2.59999c0,0.99867 0,1.76401 0,2.85184c0,0.7175 0,1.758 0,2.53351c0,1.04799 0,1.75749 0,2.61015c0,1.0045 0,1.8045 0,2.80434c0,0.77934 0,1.77884 0,2.55284c0,0.9045 0,1.84866 0,2.84283c0,0.74733 0,1.65633 0,2.73782c0,0.66751 0,1.60417 0,2.58c0,0.79651 0,1.604 0,2.56584c0,0.93149 0,1.84216 0,2.6955c0,0.94 0,1.82533 0,2.5825c0,1.06816 0,1.75883 0,2.74283c0,0.98399 0,1.67467 0,2.75183c0,0.7175 0,1.7625 0,2.5695c0,0.58133 0,1.776 0,2.63699c0,0.77101 0,1.89101 0,2.875c0,0.672 0,1.416 0,2.52383c0,0.89101 0,1.8 0,2.54733c0,0.99417 0,1.75951 0,2.83833c0,0.85733 0,1.6425 0,2.5825c0,1.008 0,1.76399 0,2.6955c0,0.96451 0,1.68983 0,2.67917c0,0.8 0,1.8 0,2.58934c0,1.04399 0,1.836 0,2.696c0,0.91916 0,1.91333 0,2.67867c0,0.95067 0,1.836 0,2.636c0,0.95717 0,1.85266 0,2.716c0,0.96317 0,1.7885 0,2.80533c0,0.67867 0,1.65717 0,2.47733c0,0.90134 0,1.83734 0,2.68533c0,0.86334 0,1.88 0,2.71735c0,0.96533 0,1.81949 0,2.79866c0,0.8 0,1.60001 0,2.5955c0,0.74733 0,1.77916 0,2.72583c0,0.67867 0,1.65717 0,2.47733c0,0.90134 0,1.83734 0,2.68533c0,0.86334 0,1.89067 0,2.83751c0,0.69934 0,1.6785 0,2.45715c0,1.052 0,1.86801 0,2.70535c0,0.86331 0,1.88 0,2.716c0,0.90015 0,1.68533 0,2.63599c0,0.76532 0,1.755 0,2.59332c0,1.00668 0,1.87067 0,2.77069c0,0.89999 0.45325,2.07388 -0.2215,2.6785c-0.66049,0.59183 -1.7785,0.12149 -2.57849,0.12149c-0.91467,0 -1.81067,0 -2.70001,0c-0.91064,0 -1.82132,0 -2.5,0c-1.11465,0 -2,0 -2.79999,0c-0.89999,0 -1.79999,0 -2.67917,0c-0.87799,0 -1.82083,0 -2.72083,0c-0.89999,0 -1.80002,0 -2.60001,0c-0.89999,0 -1.79999,0 -2.70001,0c-0.89999,0 -1.79547,0 -2.66666,0l-0.83334,-0.16666l-0.69998,-0.48068" id="svg_5" stroke-width="2" stroke="#000" fill="none"/>
  <path t="19879,20015,20023,20032,20040,20040,20040,20048,20048,20048,20058,20058,20058,20063,20064,20075,20075,20079,20079,20095,20095,20175,20207,20207,20239,20319,20407" d="m299.51135,58.09091c1.80002,0 2.70001,0 3.54169,0c1.00131,0 1.73032,0 2.56732,0c0.89099,0 1.7865,0 2.655,0c1.06934,0 1.77884,0 2.6315,0c1.00452,0 1.8045,0 2.80435,0c0.77933,0 1.77881,0 2.68414,0c0.94135,0 1.63202,0 2.616,0c0.98401,0 1.67468,0 2.74286,0l0.95581,0l0.854,0" id="svg_6" stroke-width="2" stroke="#000" fill="none"/>
  <path t="22359,22471,22487,22503,22519,22519,22527,22543,22559" d="m331.51135,35.09091c1.83334,0 2.61069,0 3.52084,0c0.96317,0 1.65384,0 2.7175,-0.0045l0.73633,-0.42083l0.54617,-0.55383" id="svg_7" stroke-width="2" stroke="#000" fill="none"/>
  <path t="23320,23399,23399,23415,23415,23439,23471" d="m326.51135,44.09091c1.83603,0 2.60135,0 3.59552,0l0.91916,0l0.96451,0l0.91016,0" id="svg_8" stroke-width="2" stroke="#000" fill="none"/>
  <path t="24272,24351,24351,24367,24383,24399,24407,24423,24439,24455,24495,24519,24543" d="m323.51135,55.09091c1,0 1.80002,0 2.70001,0c0.89999,0 1.79999,0 2.70001,0c0.89999,0 1.79999,0 2.69998,0l0.89999,0l0.91602,0l0.78851,0" id="svg_9" stroke-width="2" stroke="#000" fill="none"/>
  <path t="25479,25559,25575,25591,25591,25607,25617,25623,25639" d="m285.51135,35.09091c1.80002,0 2.63602,0 3.48401,0c0.86334,0 1.88,0 2.81601,0l0.89865,0l0.854,0" id="svg_10" stroke-width="2" stroke="#000" fill="none"/>
  <path t="26232,26328,26344,26352,26360,26376,26384,26384" d="m291.51135,47.09091c2.436,0 3.40002,0 4.30002,0c0.89999,0 1.79999,0 2.69998,0l0.80002,0" id="svg_11" stroke-width="2" stroke="#000" fill="none"/>
  <path t="27104,27176,27184,27192,27216,27224,27232,27240,27280" d="m289.51135,59.09091c1.80002,0 2.70001,0 3.56403,0c0.87198,0 1.836,0 2.73599,0l0.89999,0l0.89999,0" id="svg_12" stroke-width="2" stroke="#000" fill="none"/>
  <path t="28248,28432,28440,28449,28456,28464,28472,28488,28488,28496,28504,28504,28520,28560,28592,28600,28672,28680,28712,28712,28728,28744,28776,28848,28912,28936,29120" d="m298.51135,75.09091c1.80002,0 2.70001,0 3.60001,0c0.89999,0 1.80002,0 2.70001,0c0.80017,0 1.58533,0 2.52533,0c1.008,0 1.87018,0 2.77466,0c0.89999,0 1.80002,0 2.6955,0c0.87119,0 1.8045,0 2.7045,0c0.80002,0 1.70001,0 2.60001,0c0.89999,0 1.80002,0 2.70001,0l0.89999,0l0.89984,0" id="svg_13" stroke-width="2" stroke="#000" fill="none"/>
  <path t="30240,30288,30297,30304,30320,30330,30336,30352,30352,30360,30360,30368,30376,30384,30384,30408,30432,30488,30504,30504,30528,30544,30552,30576,30600,30640,30672" d="m299.51135,93.09091c1.80002,0 2.70001,0 3.56403,0c0.87198,0 1.836,0 2.63733,0c0.96533,0 1.79865,0 2.77716,0c0.82016,0 1.7215,0 2.54233,0c0.96182,0 1.76935,0 2.7645,0c0.91467,0 1.81467,0 2.71466,0c0.80002,0 1.70001,0 2.60001,0c0.89999,0 1.80002,0 2.70001,0l0.89865,0l0.854,0" id="svg_14" stroke-width="2" stroke="#000" fill="none"/>
  <path t="31560,31672,31680,31688,31688,31696,31704,31720,31720,31736,31736,31792,31792,31816,31832,31872,31888,31912,31944,31984,31984,32016,32040,32056,32104,32128,32152" d="m302.51135,111.09091c1.02136,0.964 1.86136,1 2.83334,1c0.75601,0 1.66666,0 2.57733,0c0.91083,0 1.80002,0 2.78918,0c0.77933,0 1.63348,0 2.51349,0c0.89734,0 1.78665,0 2.68668,0c0.89999,0 1.79999,0 2.69998,0c0.89999,0 1.70001,0 2.60001,0c0.89999,0 1.86401,0 2.73599,0l0.86401,0l0.89999,0" id="svg_15" stroke-width="2" stroke="#000" fill="none"/>
  <path t="33024,33143,33152,33160,33168,33176,33184,33184,33192,33200,33208,33216,33240,33248,33280,33304,33432,33463,33504,33504,33648,33744,33839" d="m303.51135,131.09091c1.80002,0 2.70001,0 3.60001,0c0.89999,0 1.7045,0 2.72134,0c0.67865,0 1.65717,0 2.67865,0c0.83334,0 1.61069,0 2.60001,0c0.89999,0 1.80002,0 2.70001,0c0.89999,0 1.79999,0 2.69998,0c0.80002,0 1.70001,0 2.56403,0l0.87198,0" id="svg_16" stroke-width="2" stroke="#000" fill="none"/>
  <path t="34656,34775,34784,34784,34792,34792,34800,34800,34800,34808,34808,34808,34816,34816,34816,34816,34824,34824,34831,34832,34840,34840,34864,34864,34872,34919" d="m303.51135,150.09091c1.75717,0 2.6572,0 3.40451,0c0.99683,0 1.83151,0 2.76218,0c0.78598,0 1.608,0 2.66666,0c0.952,0 1.67651,0 2.80933,0c0.66269,0 1.35733,0 2.38934,0c1.19601,0 1.90549,0 2.94666,0c0.77402,0 1.66953,0 2.45203,0c1.01215,0 1.75464,0 2.81216,0l0.95715,0" id="svg_17" stroke-width="2" stroke="#000" fill="none"/>
  <path t="35640,35711,35720,35728,35728,35736,35744,35753,35760,35769,35776,35784,35800,35815,35839,35903,35927,36000,36112,36112,36184,36328" d="m304.51135,170.09091c1.80002,0 2.63602,0 3.48401,0c0.86334,0 1.88,0 2.81601,0c0.89999,0 1.79984,0 2.64734,0c0.75717,0 1.75266,0 2.65265,0c0.89999,0 1.80002,0 2.70001,0c0.89999,0 1.79999,0 2.69998,0l0.80002,0l0.84283,0l0.87799,0" id="svg_18" stroke-width="2" stroke="#000" fill="none"/>
  <path t="38456,38607,38607,38615,38623,38633,38649,38655,38671,38688,38695,38711,38727,38743,38751,38767,38783,38791,38799,38823,38823,38832,38863,38903,38911,38943,38983,39015" d="m303.51135,183.09091c1,0 1.80002,0 2.70001,0c0.89999,0 1.79999,0 2.70001,0c0.89999,0 1.79999,0 2.69998,0c0.89999,0 1.81601,0 2.60452,0c0.89548,0 1.79547,0 2.6955,0c0.89999,0 1.79999,0 2.69998,0c0.89999,0 1.70001,0 2.60001,0c0.94284,0 1.82083,0 2.70001,0l0.89999,0l0.89999,0l0.89999,0" id="svg_19" stroke-width="2" stroke="#000" fill="none"/>
  <path t="39816,39959,39975,39984,39991,39999,40008,40023,40039,40055,40071,40087,40119,40143,40183,40199,40223,40303,40359,40359,40431,40440,40575" d="m303.51135,195.09091c1.80002,0 2.70001,0 3.60001,0c0.89999,0 1.80002,0 2.70001,0c0.89999,0 1.79999,0 2.69998,0c0.83334,0 1.61069,0 2.60001,0c0.89999,0 1.80002,0 2.70001,0c0.89999,0 1.79999,0 2.69998,0c0.80002,0 1.70001,0 2.56403,0l0.87198,0" id="svg_20" stroke-width="2" stroke="#000" fill="none"/>
  <path t="41248,41391,41400,41407,41423,41432,41439,41450,41450,41455,41479,41479,41488,41511,41511,41535,41559,41567,41584,41615,41631,41679,41719,41935" d="m302.51135,205.09091c1.61069,0 2.5,0 3.40002,0c0.89999,0 1.79999,0 2.69998,0c0.89999,0 1.80258,-0.34409 2.61469,0.08533c0.85812,0.45374 1.4346,0.90933 2.3335,0.91467c0.95178,0.00565 1.75183,0 2.65182,0c0.89999,0 1.79999,0 2.70001,0c0.89999,0 1.79999,0 2.69998,0l0.89999,0l0.83334,0" id="svg_21" stroke-width="2" stroke="#000" fill="none"/>
  <path t="42567,42703,42711,42719,42735,42744,42744,42751,42761,42767,42767,42775,42775,42783,42791,42791,42799,42815,42831,42839,42847,42855" d="m304.51135,217.09091c1.80002,0 2.70001,0 3.60001,0c0.81067,0 1.72134,0 2.57468,0c0.94,0 1.92596,0.03391 2.82532,0c0.75879,-0.02861 1.64093,-0.38206 2.34735,-0.64734c0.88681,-0.33301 1.83331,-0.222 2.63184,-0.37349c0.95255,-0.18069 1.45682,-0.94318 2.32083,-0.97917l0.89999,0l0.89984,-0.00017l0.81482,-0.28383" id="svg_22" stroke-width="2" stroke="#000" fill="none"/>
  <path t="43760,43904,43914,43920,43920,43920,43932,43932,43936,43936,43944,43960,43968,43977,43993,44009,44009,44016,44032,44049,44064,44072,44120" d="m303.51135,226.09091c1.60001,0.57466 2.42084,0.98199 3.33334,1c0.91714,0.0181 1.66135,0 2.69733,0c0.85202,0 1.79468,0 2.48535,0c1.03732,0 1.91998,0 2.784,0c0.89999,0 1.79999,0 2.69998,0c0.80002,0 1.70001,0 2.60001,0c0.89999,0 1.80002,0 2.6955,0l0.98984,0" id="svg_23" stroke-width="2" stroke="#000" fill="none"/>
  <path t="44792,44936,44952,44952,44963,44963,44968,44968,44979,44984,44993,44993,45000,45010,45017,45032,45032,45040,45064,45120" d="m305.51135,239.09091c1.75717,0 2.6572,0 3.40451,0c0.99551,0 1.7955,0 2.79517,0c0.92834,0 1.84851,0 2.68701,0c0.93866,0 1.62933,0 2.70267,0c0.91064,0 1.71515,0 2.73199,0c0.67865,0 1.65717,0 2.67865,0l0.83334,0" id="svg_24" stroke-width="2" stroke="#000" fill="none"/>
  <path t="45888,45984,45995,46000,46009,46016,46016,46025,46032,46042,46042,46048,46080,46080,46104,46128,46136" d="m304.51135,251.09091c1.80002,0 2.70001,0 3.60001,0c0.81067,0 1.72134,0 2.57468,0c0.94,0 1.92532,0 2.82532,0c0.80002,0 1.63602,0 2.48401,0c0.86334,0 1.88,0 2.81601,0l0.89999,0" id="svg_25" stroke-width="2" stroke="#000" fill="none"/>
  <path t="46888,46992,47000,47000,47010,47010,47016,47024,47032,47041,47041,47057,47064,47088,47136,47136,47168,47184,47208,47208,47248,47256,47272" d="m302.51135,260.09091c1.75717,0 2.6572,0 3.40451,0c0.99417,0 1.93832,0 2.83835,0c0.95715,0 1.85715,0 2.75714,0c0.80002,0 1.70001,0 2.60001,0c0.81067,0 1.72134,0 2.57468,0c0.94,0 1.92532,0 2.82532,0c0.80002,0 1.70001,0 2.60001,0l0.87918,0" id="svg_26" stroke-width="2" stroke="#000" fill="none"/>
  <path t="48168,48264,48280,48280,48288,48288,48312,48328,48328,48344,48352,48360,48368,48368,48384,48400,48400,48416,48424,48440,48464,48496,48496,48536" d="m305.51135,268.09091c1.22168,0.87851 2.16669,1 2.82535,1c1.008,0 1.87018,0 2.81067,0c0.84799,0 1.71133,0 2.60684,0c0.95715,0 1.85715,0 2.75714,0c0.80002,0 1.63602,0 2.65268,0c0.69467,0 1.71133,0 2.64734,0c0.89865,0 1.784,0 2.69998,0l0.80002,0l0.89999,0" id="svg_27" stroke-width="2" stroke="#000" fill="none"/>
  <path t="50560,50791,50823,50832,50848,50872,50880,50895,50927,50951,50991,51008,51024,51031,51047,51072,51088,51104,51112,51128,51128,51159,51168,51176,51176,51185,51192,51200,51209,51240,51272,51288,51288,51296,51328,51344,51344,51360,51360,51378,51385,51400,51411,51432,51448,51448,51464,51473,51480,51496,51496,51512,51512,51522,51528,51538,51544,51560,51568,51591,51601,51616,51625,51632,51656,51687,51696,51705,51735,51752,51768,51791,51800,51800,51816,51839,51848,51856,51887,51903,51927,51935,51957,51970,51985,52016,52024,52024,52048,52064,52111,52111,52128,52138,52138,52157,52160,52171,52176,52200,52223,52239,52255,52271,52280,52288,52304,52304,52312,52327,52343,52353,52360,52385,52392,52400,52400,52417,52432,52440,52463,52479,52495,52495,52504,52535,52544,52567,52583,52584,52592,52601,52617,52632,52640,52656,52656,52679,52695,52711,52727,52737,52737,52753,52770,52786,52786,52800,52823,52833,52840,52840,52848,52855,52863,52872,52888,52895,52904,52920,52928,52951,52967,52999,53008,53032,53047,53056,53072,53072,53079,53095,53104,53112,53127,53137,53137,53144,53144,53151,53152,53160,53169,53176,53199,53208,53223,53255,53271,53272,53280,53306,53327,53336,53344,53359,53370,53384,53392,53408,53423,53439,53440,53450,53464,53479,53488,53504,53512,53522,53527,53539,53553,53560,53569,53576,53576,53586,53591,53607,53616,53624,53624,53633,53640,53649,53664,53672,53672,53679,53687,53704,53712,53727,53736,53752,53775,53791,53792,53802,53807,53808,53823,53839,53855,53864,53872,53872,53879,53888,53888,53896,53904,53920,53936,53952,53953,53960,53969,53969,53986,54002,54008,54031,54047,54048,54063,54072,54080,54088,54096,54104,54120,54120,54128,54136,54144,54159,54175,54185,54192,54200,54200,54200,54208,54219,54219,54219,54224,54224,54232,54240,54249,54266,54272,54280,54288,54296,54327,54336,54343,54359,54369,54386,54391,54392,54407,54418,54423,54432,54432,54439,54463,54480,54480,54488,54496,54504,54512,54520,54528,54536,54544,54552,54552,54560,54569,54586,54586,54601,54619,54619,54635,54640,54648,54656,54656,54671,54681,54688,54704,54712,54712,54720,54728,54728,54736,54744,54744,54744,54752,54752,54760,54760,54768,54776,54776,54776,54785,54785,54792,54792,54802,54802,54808,54808,54831,54840,54855,54864,54881,54881,54888,54904,54904,54912,54920,54936,54943,54944,54959,54968,54968,54976,54983,55001,55008,55015,55031,55048,55056,55056,55064,55072,55081,55081,55088,55098,55099,55112,55143,55144,55151,55160,55175,55191,55192,55215,55223,55224,55232,55263,55271,55287,55303,55312,55312,55320,55335,55344,55359,55369,55391,55407,55408,55419,55424,55440,55440,55456,55479,55480,55487,55512,55519,55520,55535,55544,55551,55559,55568,55568,55576,55585,55602,55618,55624,55647,55655,55664,55672,55680,55703,55714,55714,55728,55735,55744,55767,55783,55791,55807,55818,55824,55835,55852,55852,55856,55865,55865,55880,55888,55888,55897,55904,55913,55920,55935,55936,55944,55944,55951,55960,55960,55967,55968,55975,55984,56000,56008,56018,56024,56024,56034,56051,56055,56056,56068,56080,56080,56088,56103,56113,56120,56128,56135,56144,56144,56159,56167,56183,56192,56207,56223,56223,56239,56240,56250,56250,56256,56256,56267,56267,56271,56279,56288,56288,56296,56304,56319,56335,56336,56352,56352,56368,56375,56383,56391,56400,56407,56416,56416,56423,56434,56439,56463,56472,56487,56488,56503,56512,56519,56529,56536,56536,56544,56559,56575,56575,56591,56599,56607,56617,56617,56624,56624,56633,56633,56640,56650,56656,56666,56666,56672,56672,56683,56683,56687,56688,56696,56696,56704,56704,56712,56713,56719,56729,56729,56737,56744,56751,56752,56760,56775,56783,56784,56791,56799,56808,56808,56816,56823,56833,56855,56866,56866,56883,56895,56903,56912,56920,56929,56945,56952,56960,56960,56975,56991,56991,57007,57016,57024,57033,57048,57056,57056,57066,57071,57072,57080,57095,57112,57112,57129,57145,57146,57160,57160,57167,57168,57176,57183,57184,57192,57199,57200,57208,57216,57232,57232,57240,57249,57250,57266,57272,57283,57299,57304,57312,57319,57320,57328,57328,57336,57345,57352,57360,57375,57376,57384,57399,57408,57408,57415,57424,57432,57440,57440,57449,57455,57456,57465,57472,57487,57488,57499,57503,57511,57528,57529,57536,57536,57545,57552,57561,57568,57584,57584,57615,57615,57631,57647,57648,57663,57671,57687,57698,57715,57720,57720,57728,57735,57745,57752,57761,57762,57768,57776,57791,57792,57799,57815,57824,57824,57839,57856,57872,57872,57885,57903,57918,57920,57935,57944,57975,57987,57987,58002,58018,58040,58063,58064,58095,58127,58137,58167,58215,58226,58240,58271,58271,58283,58311,58327,58338,58353,58383,58439,58471,58471,58543,58559" d="m301.51135,244.09091c-1.69998,0 -2.59998,0 -3.5,0c-0.89999,0 -1.79999,0 -2.69998,0c-0.99866,0 -1.85266,0 -2.60135,0c-0.89865,0 -1.79865,0 -2.69867,0c-0.89999,0 -1.79999,0 -2.69998,0c-0.89999,0 -2.08441,-0.32845 -2.67868,0.2215c-0.60922,0.56378 -0.8006,1.63374 -1.64215,1.7785c-0.87695,0.15085 -1.82468,-0.16515 -2.61783,0.036c-0.86243,0.2187 -1.27588,1.04808 -1.914,1.61134c-0.5954,0.52554 -1.17184,1.21129 -2.04733,1.35283c-0.90356,0.14607 -1.43689,0.75835 -2.37918,0.979c-0.85522,0.20027 -1.66443,0.41388 -2.40616,0.73683c-0.89136,0.38809 -1.66113,0.0634 -2.70401,0.31999c-0.87326,0.21486 -1.6416,0.64708 -2.32666,1.248c-0.60077,0.52699 -1.4407,0.86929 -2.06317,1.23683c-0.83508,0.49309 -1.24533,1.3378 -2.12082,1.47934c-0.90356,0.14607 -1.50421,0.66754 -2.38269,0.91582c-0.78812,0.22275 -1.44901,0.84344 -2.22183,1.07953c-0.85727,0.2619 -1.60583,0.62253 -2.49548,0.91916c-0.85748,0.28592 -1.56358,0.39648 -2.15266,1.03265c-0.53299,0.57559 -1.08012,1.21924 -1.70001,1.70001c-0.70963,0.55035 -0.93062,1.05731 -0.94733,1.95267c-0.01801,0.96451 -0.73151,1.25098 -1.38933,1.836c-0.69284,0.61615 -0.38765,1.73584 -0.77734,2.564c-0.35686,0.75836 -1.54683,0.86429 -1.82266,1.61066c-0.3083,0.83426 -0.01067,1.8685 -0.01067,2.74652c0,0.84283 0.2225,1.8587 -0.284,2.55881c-0.50179,0.69357 -0.716,1.384 -0.716,2.28403c0,0.89999 0,1.79999 0,2.59998c0,0.90002 0,1.76401 0,2.76935c0,0.7825 0.14845,1.72754 -0.22133,2.53067c-0.35847,0.77856 -0.41342,1.69775 -0.81467,2.46399c-0.39713,0.75836 -0.96333,1.23734 -0.964,2.13602c-0.00067,0.89999 0,1.77914 0,2.73599c0,0.86398 0,1.76401 0,2.664c0,0.89999 0,1.69998 0,2.60001c0,0.89999 0,1.79999 0,2.69998c0,0.89551 0,1.8215 0,2.70001c0,0.89999 -0.19597,1.73441 0.05716,2.60001c0.25664,0.87762 0.91425,1.5986 0.94284,2.5c0.02855,0.89954 0,1.79999 0,2.59998c0,0.91467 0.61888,1.54233 0.91467,2.40002c0.29474,0.85464 0.05997,1.80038 0.08533,2.59998c0.02859,0.9014 0.68619,1.62238 0.94283,2.5c0.25313,0.8656 -0.13644,1.85864 0.22385,2.70001c0.27402,0.63989 0.83333,1.35718 0.83333,2.29999c0,0.90002 0,1.80002 0,2.70001c0,0.79999 0,1.70001 0,2.52084c0,0.96317 0,1.82648 0,2.7175c0,0.98315 0,1.86166 0,2.76166c0,0.79999 0,1.70001 0,2.60001c0,0.89999 0,1.79999 0,2.69998c0,0.90002 0,1.79984 0,2.67468c0,0.82666 0,1.72534 0,2.62534c0,0.89999 0,1.79999 0,2.69998c0,0.90002 0,1.80002 0,2.70001c0,0.79999 0.37361,1.81763 -0.036,2.57468c-0.39107,0.72281 -1.63756,0.86002 -1.90685,1.72983c-0.25554,0.82538 -0.02127,1.69617 -0.05733,2.67416c-0.02859,0.77554 -0.38284,1.6619 -0.64717,2.36865c-0.37059,0.99091 -1.03436,1.4635 -1.342,2.22736c-0.3535,0.87772 -0.01001,1.82532 -0.01067,2.72531c-0.00067,0.90002 -0.24213,1.65378 -0.64734,2.40002c-0.41328,0.76111 -0.35266,1.69998 -0.35266,2.59998c0,0.90002 0.31732,1.86917 -0.036,2.72534c-0.30345,0.73532 -0.95358,1.47449 -0.964,2.37466c-0.01041,0.89993 0.05437,1.80167 -0.00017,2.70001c-0.04272,0.70386 -0.74678,1.43716 -0.96384,2.29999c-0.21974,0.8735 0.32886,1.9776 -0.20267,2.60001c-0.52039,0.60938 -1.50386,0.80685 -1.8125,1.52084c-0.34894,0.80719 -0.02083,1.77914 -0.02083,2.67917c0,0.89999 0,1.79999 0,2.59998c0,0.90002 0.03038,1.85989 -0.42534,2.63602c-0.4594,0.78238 -0.57466,1.564 -0.57466,2.36398c0,0.90002 0,1.80002 0,2.70001c0,0.91068 0.18552,1.85092 -0.036,2.63867c-0.25989,0.92422 -0.60484,1.51703 -0.98483,2.36133c-0.31329,0.69611 -0.97691,1.2045 -0.97917,2.10001c-0.00226,0.89999 0,1.81067 0,2.72131c0,0.85333 0,1.79333 0,2.67868c0,0.79999 0,1.71466 0,2.61066c0,0.88934 0,1.80002 0,2.71066c0,0.85333 0,1.79333 0,2.67868c0,0.79999 0,1.70001 0,2.60001c0,0.89999 0,1.81067 0,2.72131c0,0.85333 -0.17839,1.84674 0.16667,2.67868c0.32533,0.78436 0.82291,1.49982 0.83333,2.39999c0.01041,0.89993 -0.1888,1.86926 0.22133,2.69983c0.34938,0.70758 0.67502,1.61185 1.38934,1.8895c0.88962,0.34579 1.19971,0.74313 1.42532,1.61069c0.22511,0.86563 0.96304,1.40097 1.56401,2c0.69887,0.69662 1.61731,0.79813 2.27849,1.40015c0.55096,0.50165 0.90338,1.117 1.72151,1.57452c0.79314,0.44354 1.7457,0.84085 2.21466,1.28665c0.65222,0.62 1.03065,1.62149 1.68533,2.13867c0.69249,0.54706 1.53612,0.62878 2.35699,1.10001c0.76141,0.43707 1.53938,1.13297 1.97633,1.89999c0.44426,0.77988 0.95439,1.30646 1.168,2.19867c0.17952,0.74982 0.87331,1.34201 1.5195,1.80133c0.69711,0.49548 1.70816,0.67188 2.35785,1.22134c0.65915,0.55746 1.29065,0.77859 2.14215,0.77866c0.95767,0.00009 1.75784,0.11966 2.57916,0.57468c0.78238,0.43347 1.52728,0.8342 2.39999,1.25867c0.65967,0.32086 1.42184,0.85599 2.3045,1.1095c0.97888,0.28113 1.70261,-0.06033 2.67383,0.05731c0.92041,0.11148 1.36969,0.78369 2.12152,1.22119c0.82565,0.48047 1.5293,0.77927 2.30017,1.20398c0.82138,0.45255 1.73404,0.42813 2.39999,0.66c0.88565,0.30835 1.63391,0.81284 2.40134,1.19867c0.72278,0.3634 1.62424,0.67401 2.63199,0.716c0.75623,0.03152 1.47702,0.61813 2.36667,0.91467c0.85764,0.28589 1.79999,0.08533 2.60001,0.08533c0.89999,0 1.79999,0 2.69998,0c0.91068,0 1.82135,0 2.67468,0c0.94,0 1.8255,-0.01651 2.62534,0c0.87256,0.01801 1.74255,0.22235 2.46133,0.42532c0.79019,0.22311 1.81354,0.4942 2.71783,0.55383c1.0188,0.0672 1.7995,0.02084 2.77832,0.02084c0.90683,0 1.53983,0 2.56119,0c0.99466,0 1.83466,0 2.79733,0c0.76797,0 1.72,0 2.48532,0c0.98965,0 1.828,0 2.83466,0c0.86401,0 1.76401,0 2.664,0c0.89999,0 1.70001,0 2.53601,0c1.01666,0 1.71133,0 2.728,0c0.93149,0 1.85751,0 2.73618,0c0.78516,0 1.72516,0 2.73315,0c0.75601,0 1.66666,0 2.56668,0c0.89999,0 1.79999,0 2.69983,0c0.8855,0 1.76151,0 2.73349,0c0.75601,0 1.66666,0 2.57733,0c0.91068,0 1.76401,0 2.70401,0c0.88531,0 1.68533,0 2.60001,0c0.85464,0 1.63715,0 2.64932,0c0.936,0 1.836,0 2.73618,0c0.78516,0 1.72516,0 2.73315,0c0.75601,0 1.64584,0 2.60266,0c0.86401,0 1.76401,0 2.664,0c0.89999,0 1.70001,0 2.60001,0c0.89999,0 1.79999,0 2.70001,0c0.89548,0 1.87732,0.15796 2.69998,-0.22134c0.66824,-0.30811 1.52338,-0.76028 2.30002,-1.20398c0.72418,-0.41373 1.48532,-0.57401 2.42532,-0.57468c1.008,-0.00073 1.78525,0.20242 2.73868,0c0.84909,-0.18027 1.53064,-0.91544 2.23599,-0.99866c0.89569,-0.10568 1.62253,-0.68689 2.5,-0.94418c0.86545,-0.25378 1.75082,-0.358 2.39999,-0.7045c0.84937,-0.45334 1.70071,-0.46378 2.32535,-0.92734c0.73322,-0.54416 0.97202,-1.23819 1.73633,-1.42084c0.86227,-0.20605 1.78644,-0.27939 2.405,-0.83783c0.64902,-0.58597 1.23773,-1.01392 2.03333,-1.45065c0.64813,-0.35577 1.6243,-0.30121 2.44284,-0.77316c0.68689,-0.39606 1.58957,-0.50858 2.19049,-1.1095c0.60092,-0.60092 0.4505,-1.51324 1.08267,-2.11734c0.57596,-0.55035 1.44662,-0.88412 1.91733,-1.716c0.36124,-0.63846 0.68222,-1.50516 1.36667,-2.20001c0.49622,-0.50375 1.18283,-1.21759 1.89999,-1.89981c0.58633,-0.55774 1.59561,-0.7713 1.88934,-1.51083c0.32117,-0.80862 0.87054,-0.98914 1.67734,-1.556c0.57831,-0.40634 0.73215,-1.46802 1.04932,-2.34933c0.30368,-0.84381 0.46985,-1.8222 0.80484,-2.48401c0.43414,-0.85767 0.97388,-1.48431 1.67783,-2.19867c0.63,-0.63931 1.24445,-1.2262 1.71735,-2c0.45398,-0.74286 0.84424,-1.41687 1.13666,-2.09601c0.35172,-0.8168 0.90173,-1.46835 0.95184,-2.35349c0.04446,-0.7854 0.85187,-1.40234 0.99548,-2.35184c0.11963,-0.79099 0,-1.64282 0,-2.52084c0,-0.97916 0,-1.87915 0,-2.77914c0,-0.90002 -0.14648,-1.83405 0.08536,-2.5c0.30832,-0.88565 0.89664,-1.59946 0.91464,-2.5c0.01794,-0.8985 0,-1.86667 0,-2.70001c0,-0.75717 0,-1.65717 0,-2.60135c0,-0.99866 0,-1.79865 0,-2.79865c0,-0.80002 0,-1.79968 0,-2.55835c0,-0.93182 0,-1.80331 0,-2.69434c0,-0.86331 0,-1.71133 0,-2.64731c0,-0.90134 0,-1.86667 0,-2.70001c0,-0.83334 0,-1.6955 0,-2.60001c0,-0.89999 0,-1.79999 0,-2.69998c0,-0.90002 0,-1.80002 0,-2.70001c0,-0.79999 -0.05621,-1.70053 -0.5,-2.5c-0.44186,-0.79602 -0.5,-1.7215 -0.5,-2.60001c0,-0.89999 0,-1.69998 0,-2.60001c0,-0.89999 0.05298,-1.83475 -0.35266,-2.59998c-0.44843,-0.84595 -0.77972,-1.47226 -1.22198,-2.30002c-0.45602,-0.85355 -0.7146,-1.68143 -1.22668,-2.20132c-0.68311,-0.69351 -1.07916,-1.50488 -1.19998,-2.39868c-0.10944,-0.80954 -0.72382,-1.48035 -1.29868,-2.10449c-0.51923,-0.56372 -1.14279,-1.49811 -1.41467,-2.21149c-0.35776,-0.93869 -0.62323,-1.7933 -1.23715,-2.43585c-0.60327,-0.63138 -1.07312,-1.06488 -1.8815,-1.8815c-0.52271,-0.52802 -1.04739,-1.37762 -1.25067,-2.052c-0.29153,-0.9671 -0.67627,-1.70673 -0.86334,-2.71014c-0.13834,-0.74194 -0.35361,-1.71176 -0.93933,-2.20319c-0.69846,-0.586 -1.77521,-0.87946 -2.07166,-1.72217c-0.31952,-0.90823 0.04242,-1.90344 -0.65234,-2.49384c-0.68182,-0.57938 -1.48648,-0.90698 -1.95334,-1.58533c-0.56699,-0.82379 -0.93649,-1.6188 -1.26932,-2.39999c-0.32019,-0.75153 -0.12991,-1.76239 -0.6875,-2.5c-0.58759,-0.77731 -1.3147,-1.26825 -1.46851,-2.10001c-0.16376,-0.88553 -0.55386,-1.6033 -0.88916,-2.5c-0.31808,-0.85065 -0.09427,-1.70041 -0.12152,-2.60001c-0.02859,-0.94412 -0.83646,-1.4404 -0.97916,-2.29999c-0.15378,-0.92621 -0.39145,-1.42987 -0.89932,-2.2215c-0.47891,-0.74646 -0.12152,-1.7785 -0.12152,-2.57849c0,-0.836 0,-1.85269 0,-2.54733c0,-1.01669 0.19592,-1.97458 -0.00131,-2.85135c-0.18063,-0.80289 -0.99869,-1.08667 -0.99869,-1.90149c0,-0.78519 0,-1.72519 0,-2.73318c0,-0.86215 0,-1.76666 0,-2.57733c0,-0.91064 0,-1.76401 0,-2.70398c0,-0.9855 0,-1.77069 0,-2.72134c0,-0.76535 0,-1.75949 0,-2.50684c0,-1.03183 0,-1.97849 0,-2.65717c0,-0.97852 0,-2 0,-2.79999c0,-0.90002 0.0235,-1.72116 -0.00131,-2.68402c-0.01782,-0.69131 -0.49542,-1.68469 -0.832,-2.51599c-0.30658,-0.75717 -0.16669,-1.70001 -0.16669,-2.60001c0,-0.89999 0.13232,-1.81546 -0.08533,-2.56934c-0.26273,-0.90994 -0.82144,-1.65302 -0.90399,-2.45599c-0.10507,-1.022 -0.01068,-1.72198 -0.01068,-2.73868c0,-0.93597 0,-1.836 0,-2.73599c0,-0.89999 0.40274,-1.8364 -0.08533,-2.61465c-0.46432,-0.74039 -0.91467,-1.28534 -0.91467,-2.08533c0,-0.90002 0,-1.80002 0,-2.72086c0,-0.96317 0.12982,-1.66232 -0.00449,-2.72198c-0.11118,-0.8772 -0.75977,-1.40332 -1.38483,-2.15717c-0.54517,-0.65747 -0.85278,-1.5538 -1.258,-2.30002c-0.4133,-0.76111 -0.23624,-1.70813 -0.35718,-2.59998c-0.11142,-0.8215 -0.71823,-1.43536 -0.94284,-2.35269c-0.20789,-0.84897 -0.47672,-1.70181 -1.13666,-2.43134c-0.56223,-0.62149 -0.82416,-1.46341 -1.27316,-2.22049c-0.37302,-0.62891 -1.01636,-1.5369 -1.44284,-2.21149c-0.47144,-0.74568 -1.29291,-1.40862 -1.76401,-2.08401c-0.51169,-0.73358 -0.27817,-1.70992 -0.436,-2.56667c-0.14505,-0.78732 -1.25726,-0.66963 -2.09998,-1.05466c-0.66931,-0.3058 -1.61319,-0.63628 -2.28934,-1.21468c-0.62668,-0.5361 -0.99292,-1.34758 -1.61069,-1.89732c-0.62253,-0.554 -1.29276,-1.19614 -1.87866,-1.88817c-0.60931,-0.71968 -0.76678,-1.47932 -1.12134,-2.2785c-0.35529,-0.80083 -0.92459,-1.5929 -1.59998,-2.064c-0.73361,-0.51172 -1.75665,-0.29945 -2.60001,-0.72c-0.66165,-0.32993 -1.50018,-0.69696 -2.39999,-0.716c-0.96448,-0.02042 -1.40088,-0.79079 -2.20135,-0.99867c-0.81644,-0.21202 -1.16364,-0.93771 -1.90848,-1.35399c-0.61664,-0.34464 -1.65359,-0.62933 -2.49017,-0.64734c-0.89978,-0.01936 -1.80002,0 -2.60001,0c-0.89999,0 -1.79999,0 -2.70001,0c-0.97916,0 -1.85715,0 -2.69998,0c-0.89999,0 -1.80002,0 -2.60001,0c-0.89999,0 -1.79999,0 -2.70001,0c-0.89999,0 -1.79999,0 -2.79547,0c-0.87119,0 -1.70453,0 -2.50452,0l-0.89999,0l-0.89999,0" id="svg_28" stroke-width="2" stroke="#000" fill="none"/>
  <path t="67873,68010,68016,68016,68034,68040,68040,68050,68072,68112,68112,68120,68128,68144,68152,68168,68168,68176,68192,68208,68224,68256,68264,68280,68296,68312,68312,68320,68328,68336,68352,68368,68368,68376,68384,68392,68400,68408,68424,68424,68456,68456,68472,68496,68496,68504,68521,68521,68536,68544,68553,68553,68560,68568,68576,68584,68616,68616,68624,68633,68650,68656,68665,68666,68680,68696,68712,68720,68728,68728,68744,68760,68768,68784,68792,68808,68824,68832,68849,68856,68866,68872,68880,68904,68904,68912,68920,68928,68937,68944,68960,68984,68992,68992,69000,69008,69016,69024,69024,69032,69040,69049,69049,69072,69073,69088,69096,69104,69120,69128,69144,69152,69160,69176,69192,69192,69208,69232,69240,69248,69265,69281,69282,69288,69288,69296,69304,69336,69336,69344,69352,69352,69360,69360,69368,69376,69384,69392,69408,69408,69416,69416,69432,69432,69440,69456,69465,69465,69472,69481,69488,69496,69512,69520,69528,69544,69560,69560,69576,69592,69600,69608,69624,69640,69649,69649,69680,69704,69720,69720,69728,69738,69744,69744,69753,69770,69786,69787,69803,69824,69848,69864,69864,69873,69882,69903,69912,69922,69929,69938,69960,69960,69969,69986,70003,70009,70018,70032,70048,70056,70072,70081,70088,70104,70104,70112,70128,70128,70136,70144,70176,70200,70224,70240,70248,70280,70304,70312,70320,70352,70361,70408,70419,70448,70456,70469,70481,70497,70513,70552,70624,70632,70648,70664,70704,70736,70752" d="m321.51135,299.09091c-1.75714,0 -2.65265,0 -3.51599,0c-0.85867,0 -1.80533,0 -2.65866,0c-0.93866,0 -1.87799,0 -2.82535,0c-0.79999,0 -1.62198,-0.17804 -2.5,0.02084c-0.96234,0.21799 -1.59384,0.91827 -2.5,0.97916c-0.79819,0.05362 -1.42892,0.3707 -2.2215,0.87851c-0.74658,0.47836 -1.75357,0.09525 -2.57983,0.12149c-0.90002,0.02859 -1.65909,0.57532 -2.39865,0.91599c-0.86322,0.39761 -1.56857,0.92023 -2.39999,1.07333c-0.88568,0.16312 -1.63611,0.47665 -2.5,0.88934c-0.85269,0.40735 -1.54797,0.68674 -2.1955,1.42133c-0.58374,0.66223 -0.98633,1.3725 -1.58319,1.92136c-0.64001,0.58853 -1.37543,1.01416 -1.82132,1.54031c-0.69208,0.81665 -0.88519,1.68118 -1.68933,2.16635c-0.7554,0.45578 -1.46249,0.84372 -1.60617,1.82916c-0.12918,0.88614 -0.00247,1.75882 -0.00452,2.60684c-0.00226,0.93597 -0.38605,1.77435 -0.71597,2.43597c-0.42056,0.84338 0.07971,1.88831 -0.30484,2.67917c-0.35501,0.73013 -0.97919,1.09018 -0.97919,1.87268c0,1.01218 0,1.94815 0,2.84818c0,0.89999 0,1.79999 0,2.59998c0,0.90002 0.16522,1.81921 -0.02081,2.70001c-0.17899,0.84738 -0.91702,1.59238 -0.97784,2.29999c-0.07709,0.89673 -0.00134,1.80002 -0.00134,2.70001c0,0.89999 0,1.79999 0,2.70001c0,0.89999 0,1.79999 0,2.74731c0,0.75717 -0.00534,1.65271 0,2.55267c0.00534,0.90005 0.43964,1.75845 0.716,2.38535c0.38913,0.88269 0.58768,1.77805 1.20001,2.39865c0.60272,0.61087 0.91235,1.34216 1.44116,2.01151c0.58545,0.74103 1.67471,0.83102 2.24283,1.31516c0.74536,0.63519 1.59866,0.92136 2.23334,1.556c0.63467,0.63464 0.75317,1.42786 1.16666,2.33334c0.36316,0.79529 0.81549,1.5054 1.05267,2.25717c0.28333,0.89795 0.62573,1.89865 1.44733,2.20117c0.836,0.30783 1.43665,0.81647 2.20453,1.03717c0.86066,0.24738 1.79547,0.00449 2.6955,0.00449c0.89999,0 1.84845,-0.15353 2.59998,0.16666c0.78122,0.33282 1.49982,0.82291 2.40002,0.83334c0.89993,0.01041 1.79999,0 2.69998,0c0.89999,0 1.65717,0 2.72534,0c0.69067,0 1.65384,0 2.65384,0c0.85416,0 1.70615,0 2.6355,0c0.88531,0 1.64249,0 2.71066,0c0.69067,0 1.65384,0 2.57468,0c0.89999,0 1.79999,0 2.70016,0c0.78516,0 1.74463,0.05231 2.50116,-0.08533c1.01285,-0.18427 1.71112,-0.67941 2.64151,-0.85751c0.94183,-0.1803 1.8812,-0.25024 2.45715,-0.76166c0.73227,-0.65024 1.47809,-0.92264 2.29999,-1.31635c0.74353,-0.35617 1.38837,-0.95499 2,-1.47916c0.6463,-0.55389 1.22278,-1.21783 2,-1.66666c0.62161,-0.35898 0.8476,-1.34769 1.01068,-2.23334c0.15311,-0.83145 0.64914,-1.65457 0.98932,-2.43335c0.29776,-0.68164 1.21881,-1.17743 1.64285,-1.86667c0.50534,-0.82138 0.35715,-1.82083 0.35715,-2.62131c0,-0.85336 0,-1.79333 0,-2.77869c0,-0.89999 0,-1.69998 0,-2.61465c0,-0.827 0,-1.76935 0,-2.63266c0,-0.89551 0,-1.85269 0,-2.75269c0,-0.89999 0,-1.69998 0,-2.60001c0,-0.89999 0,-1.79999 0,-2.69998c0,-0.89999 0,-1.80002 0,-2.70001c0,-0.89999 0,-1.69998 0,-2.60001c0,-0.89999 -0.08945,-1.71735 -0.57465,-2.32532c-0.49838,-0.62451 -0.51715,-1.509 -1,-2.01068c-0.54779,-0.56912 -0.25803,-1.58365 -0.44617,-2.46399c-0.18137,-0.84866 -1.07385,-1.42337 -1.54318,-2.10001c-0.5152,-0.7428 -0.27084,-1.74548 -0.47198,-2.53867c-0.21872,-0.8624 -0.66354,-1.43921 -0.97467,-2.25067c-0.28485,-0.74298 -1.43829,-1.00659 -1.86801,-1.71048c-0.47485,-0.7778 -1.09274,-1.25604 -1.12134,-2.20016c-0.02725,-0.8996 0.25864,-1.92664 -0.22131,-2.57867c-0.51398,-0.69827 -1.13895,-1.16904 -1.80402,-1.69601c-0.62622,-0.49619 -1.72031,-0.37442 -1.97015,-1.12982c-0.29529,-0.89279 -0.70901,-1.29324 -1.64734,-1.2955c-0.87799,-0.00211 -1.79343,0.24774 -2.65265,-0.00449c-0.77209,-0.22662 -1.05719,-1.29102 -1.67917,-1.9595l-0.82669,-0.03601l-0.84149,-0.05716" id="svg_31" stroke-width="2" stroke="#000" fill="none"/>
  <path t="72040,72231,72241,72248,72249,72256,72256,72264,72264,72272,72280,72280,72288,72296,72312,72320,72352,72352,72360,72376,72384,72392,72392,72400,72400,72408,72416,72424,72424,72424,72432,72432,72440,72440,72448,72448,72464,72464,72472,72488,72496,72512,72512,72528,72536,72544,72552,72552,72561,72568,72577,72592,72816,72816,72832,72840,72848,72848,72856,72864,72880,72880,72888,72888,72896,72904,73048,73056,73057,73064,73072,73080,73088,73088,73096,73096,73104,73104,73104,73104,73112,73112,73112,73112,73120,73120,73120,73120,73128,73128,73128,73136,73136,73136,73144,73144,73152,73152,73152,73160,73160,73177,73184,73184,73200,73217,73224,73232,73248,73248,73256,73264,73264,73272,73272,73280,73296,73304,73312,73312,73328,73336,73352,73392,73432,73456,73480,73504,73536,73688,73712,73712,73720,73736,73752,73760,73784,73784,73800,73816,74008,74016,74024,74033,74040,74040,74048,74056,74056,74072,74072,74095,74264,74272,74296,74312,74320,74328,74336,74336" d="m298.51135,430.09091c2.58936,0 3.52084,0 4.3215,0c0.88919,0 1.87836,0 2.65768,0c0.99933,0 1.81949,0 2.65683,0c1.01666,0 1.71133,0 2.728,0c0.936,0 1.83466,0 2.72,0c0.91599,0 1.716,0 2.616,0c0.89999,0 1.82083,0 2.62149,0c0.88919,0 1.87836,0 2.65768,0c0.99915,0 1.89984,0 2.68515,0c0.87735,0 1.65436,0 2.65033,0c0.87469,0 1.88519,0 2.66452,0c0.99948,0 1.77457,-0.03976 2.67349,0.00449c0.86606,0.04263 1.62543,0.61279 2.54733,0.91019c0.86038,0.27756 1.79999,0.08533 2.60001,0.08533c0.89999,0 1.79999,0 2.72083,0c0.80051,0 1.65384,0 2.5925,0c0.97067,0 1.77335,0 2.71201,0c1.008,0 1.93744,-0.06247 2.17017,0.7045c0.27048,0.89136 0.00449,1.77951 0.00449,2.64282c0,1.01669 0,1.854 0,2.81934c0,0.83334 0,1.66669 0,2.52884c0,0.90451 0.37265,1.89624 -0.02133,2.69385c-0.39124,0.79202 -1.496,0.60999 -2.45782,0.61066c-0.81631,0.00058 -1.68784,0 -2.58334,0c-0.69748,0 -1.79498,0 -2.62415,0c-1.07767,0 -1.68033,0 -2.70935,0c-0.72266,0 -1.78265,0 -2.77866,0c-0.65067,0 -1.30933,0 -2.70932,0c-0.74133,0 -1.49069,0 -2.23203,0c-1.06232,0 -2.03732,0 -2.92233,0c-1.04016,0 -1.72565,0 -2.56033,0c-1.00583,0 -1.85849,0 -2.82248,0c-0.79352,0 -1.569,0 -2.6095,0c-0.85202,0 -1.79468,0 -2.80267,0c-0.75601,0 -1.73068,0 -2.60266,0c-0.86401,0 -1.76401,0 -2.66418,0c-0.78516,0 -1.72516,0 -2.73315,0c-0.79199,0 -1.65067,0 -2.51401,0c-1.00601,0 -1.93799,0 -2.75266,0c-0.90002,0 -1.70001,0 -2.60001,0c-0.89999,0 -1.80002,0 -2.70001,0c-0.89999,0 -1.79999,0 -2.69983,0c-0.92551,0 -1.90201,0.49203 -2.61484,-0.08533c-0.74457,-0.60306 -0.04456,-1.74692 -0.28534,-2.62933c-0.22043,-0.80786 -0.95728,-1.48233 -1,-2.38535c-0.04254,-0.89899 0,-1.69998 0,-2.60001c0,-0.89999 -0.1185,-2.01276 0.61069,-2.28934c0.83157,-0.31543 1.79999,-0.01065 2.71066,-0.01065c0.85333,0 1.79333,0 2.67865,0c0.75717,0 1.65268,0 2.51602,0c0.96317,0 1.82755,-0.06696 2.50934,-0.57468c0.64081,-0.4772 1.53867,-0.46133 2.05865,-1.14133l0.67767,-0.27951l0.89999,-0.00449l0.79999,0" id="svg_32" stroke-width="2" stroke="#000" fill="none"/>
  <path t="76143,76247,76263,76263,76274,76280,76288,76296,76304,76312,76312,76320,76328,76328,76335,76344,76344,76351,76351,76360,76360,76367,76376,76384,76384,76395,76395,76399,76399,76407,76415,76415,76423,76423,76431,76431,76439,76439,76447,76447,76456,76463,76464,76473,76473,76480,76480,76480,76487,76495,76503,76512,76519,76519,76527,76527,76535,76535,76543,76543,76544,76551,76551,76559,76559,76559,76567,76567,76575,76591,76591,76592,76599,76599,76607,76615,76615,76623,76631,76631,76639,76639,76639,76656,76656,76663,76672,76672,76680,76680,76687,76687,76695,76695,76703,76711,76711,76720,76728,76736,76736,76744,76752,76752,76752,76760,76767,76776,76784,76784,76792,76799,76799,76808,76808,76815,76816,76824,76824,76831,76840,76840,76840,76848,76856,76856,76863,76864,76873,76873,76890,76896,76896,76904,76912,76912,76920,76920,76928,76936,76944,76951,76960,76960,76967,76976,76976,76983,76992,76999,77000,77008,77016,77025,77025,77031,77032,77040,77056,77073,77073,77090,77096,77111,77128,77135,77144,77160,77176,77192,77208,77223,77223" d="m302.51135,274.09091c0,1.75717 0,2.65268 0,3.51599c0,0.96317 0,1.884 0,2.77951c0,0.81433 0,1.72534 0,2.68298c0,0.82019 0,1.6575 0,2.50552c0,0.86331 0,1.89066 0,2.83731c0,0.67868 0,1.65735 0,2.56268c0,0.94131 0,1.63199 0,2.70532c0,0.82135 0,1.73218 0,2.62134c0,0.98917 0,1.76849 0,2.76782c0,0.82019 0,1.6575 0,2.50684c0,0.91919 0,1.91467 0,2.71469c0,0.99982 0,1.77914 0,2.77881c0,0.68253 0,1.78784 0,2.50034c0,1.02084 0,1.96384 0,2.74219c0,0.97867 0,1.77866 0,2.77866c0,0.78934 0,1.51468 0,2.58932c0,0.91068 0,1.81067 0,2.71066c0,0.80017 0,1.58536 0,2.53601c0,0.76532 0,1.76849 0,2.62115c0,0.96417 0,1.76819 0,2.59018c0,1.03116 0,1.93182 0,2.95267c0,0.79999 0,1.60001 0,2.59549c0,0.74734 0,1.78986 0,2.73785c0,0.672 0,1.41599 0,2.52365c0,0.94034 0,1.77899 0,2.62701c0,0.86331 0,1.89066 0,2.83749c0,0.69934 0,1.6785 0,2.47849c0,0.80002 0,1.7955 0,2.71469c0,0.85999 0,1.80664 0,2.65997c0,0.94135 0,1.70935 0,2.66135c0,0.76532 0,1.75949 0,2.67868c0,0.85999 0,1.80649 0,2.62399c0,0.96667 0,1.88217 0,2.83981c0,0.82019 0,1.69351 0,2.56418c0,0.70801 0,1.68933 0,2.64301c0,1.01434 0,1.91434 0,2.81433c0,0.79999 0,1.63599 0,2.48532c0,0.91919 0,1.91467 0,2.71469c0,1 0,1.79999 0,2.79999c0,0.77866 0,1.66666 0,2.66415c0,0.6225 0,1.56918 0,2.526c0,0.9765 0,1.80984 0,2.78851c0,0.77399 0,1.66949 0,2.452c0,1.01599 0,1.89066 0,2.74399c0,0.94 0,1.82535 0,2.71069c0,0.93997 0,1.63065 0,2.70398c0,0.91068 0,1.81067 0,2.71066c0,0.80017 0,1.58536 0,2.52533c0,1.00803 0,1.87018 0,2.77469c0,0.81067 0,1.72131 0,2.57465c0,0.93869 0,1.867 0,2.67868c0,0.90668 0,1.81332 0,2.72534c0,0.92133 0,1.72583 0,2.74265c0,0.67868 0,1.65717 0,2.67868c0,0.83334 0,1.61066 0,2.60001c0,0.89999 0,1.79999 0,2.69998c0,0.90002 0,1.80002 0,2.70001l0,0.79999" id="svg_33" stroke-width="2" stroke="#000" fill="none"/>
  <path t="78409,78512,78512,78529,78529,78537,78545,78545,78553,78561,78561,78569,78569,78577,78577,78577,78585,78593,78593,78600,78600,78609,78609,78609,78616,78616,78616,78624,78624,78624,78632,78632,78632,78640,78648,78648,78648,78656,78656,78656,78656,78664,78664,78672,78672,78672,78672,78680,78680,78680,78680,78688,78688,78688,78696,78696,78696,78696,78704,78704,78704,78712,78712,78721,78721,78728,78728,78728,78738,78738,78744,78744,78752,78752,78752,78761,78761,78768,78768,78776,78776,78777,78784,78784,78784,78792,78792,78800,78800,78800,78808,78808,78808,78808,78817,78817,78817,78825,78825,78825,78825,78832,78832,78832,78832,78841,78841,78841,78849,78849,78849,78857,78857,78857,78857,78864,78864,78864,78873,78873,78873,78881,78881,78881,78889,78889,78889,78896,78896,78905,78913,78921,78921,78929,78929,78938,78938,78945,78945,78952,78961,78961,78969,78969,78977,78977,78985,78993,79000,79000,79009,79009,79016,79033,79033,79041,79049,79049,79057,79064,79073,79089,79097,79113,79176,79185,79185,79201,79225,79233,79249,79272,79288,79288,79416" d="m325.51135,274.09091c0,1.836 0,2.60132 0,3.59549c0,0.91919 0,1.90451 0,2.72583c0,0.85333 0,1.79333 0,2.77884c0,0.78519 0,1.74652 0,2.36151c0,1.22101 0,2.01749 0,2.76898c0,0.95502 0,1.97202 0,2.74002c0,1.03915 0,1.81467 0,2.86267c0,0.71399 0,1.61932 0,2.58798c0,0.80402 0,1.62601 0,2.65735c0,0.69598 0,1.60532 0,2.604c0,0.79648 0,1.54797 0,2.66666c0,0.98401 0,1.66501 0,2.47198c0,1.17868 0,2.07419 0,2.65784c0,0.83551 0,2.07266 0,2.78217c0,1.07202 0,1.70801 0,2.75952c0,0.73099 0,1.8125 0,2.49384c0,0.96448 0,1.88397 0,2.78531c0,0.90002 0,1.80002 0,2.70001c0,0.89999 0,1.79999 0,2.39999c0,1.19867 0,2.07916 0,2.64285c0,1.27048 0,2.11047 0,3.07449c0,0.6925 0,1.65198 0,2.4035c0,0.79648 0,2.022 0,2.66849c0,1.01068 0,1.81067 0,2.81067c0,0.79999 0,1.60001 0,2.60001c0,0.79999 0,1.80133 0,2.63599c0,0.93066 0,1.72116 0,2.57468c0,1.18933 0,2.08032 0,2.64767c0,1.20831 0,2.04166 0,2.875c0,0.93866 0,1.77567 0,2.66666c0,0.89999 0,1.79999 0,2.39999c0,1.20001 0,2.10001 0,2.70001c0,1.20016 0,2.11066 0,2.73599c0,0.64932 0,2.048 0,2.78934c0,0.74933 0,1.49066 0,2.55301c0,0.97498 -0.00763,1.86002 0.00018,2.90048c0.00531,0.70657 0.02844,1.43552 0.22116,2.564c0.11444,0.67014 0.36752,1.73993 0.49466,2.47452c0.18301,1.05765 0.24557,1.72021 0.27335,2.63599c0.03275,1.07956 0.01065,2.02133 0.01065,2.69934c0,0.96866 0,1.77267 0,2.59467c0,1.03134 -0.00046,1.95267 0,2.63666c0.00067,0.99734 -0.25079,2.12589 0.22134,2.95166c0.43698,0.76428 0.77866,1.46469 0.77866,2.17868c0,0.95367 0,1.68567 0,2.85233c0,0.8125 0,1.65466 0,2.508c0,0.94135 0,1.992 0,2.65067c0,1.00803 0,1.80002 0,2.82736c0,0.69464 -0.10556,1.75876 0.28403,2.54733c0.42984,0.87006 0.71371,1.55716 0.71597,2.45267c0.00217,0.86331 0,1.80566 0,2.79016c0,0.74249 0,1.67181 0,2.55716c0,0.79999 0,1.70001 0,2.60001c0,0.89999 0,1.79999 0,2.69998c0,0.99551 0,1.86667 0,2.70001c0,0.79999 0,1.70001 0,2.60001c0,0.89999 0,1.79999 0,2.7045l0,1.01682l0,0.67868l0,0.97833" id="svg_34" stroke-width="2" stroke="#000" fill="none"/>
  <path t="80401,80456,80456,80465,80472,80473,80481,80491,80491,80496,80496,80496,80505,80505,80513,80520,80520,80528,80528,80528,80528,80536,80536,80536,80536,80544,80544,80552,80552,80552,80552,80560,80560,80560,80569,80569,80576,80576,80576,80576,80585,80585,80585,80592,80592,80592,80592,80600,80600,80600,80608,80608,80608,80616,80616,80616,80624,80624,80624,80632,80632,80632,80632,80641,80641,80641,80641,80648,80648,80648,80657,80657,80665,80665,80665,80674,80674,80674,80680,80680,80688,80688,80697,80697,80697,80709,80709,80709,80714,80714,80714,80729,80729,80734,80734,80734,80738,80738,80745,80745,80745,80756,80756,80756,80763,80763,80771,80772,80772,80772,80778,80778,80778,80786,80786,80793,80793,80793,80801,80801,80810,80810,80817,80817,80817,80826,80826,80827,80833,80833,80833,80842,80842,80843,80849,80849,80858,80865,80865,80874,80874,80874,80881,80892,80897,80897,80905,80905,80913,80913,80921,80921,80929,80938,80938,80945,80945,80953,80977,81001,81017,81041,81050,81073,81073,81224,81234" d="m308.51135,279.09091c1,1 1,1.79999 1,2.63599c0,1.01669 0,1.71133 0,2.73868c0,0.94684 0,1.64618 0,2.62534c0,0.79999 0,1.60001 0,2.59549c0,0.91919 0,1.90451 0,2.72635c0,0.74066 0,2.01151 0,2.64749c0,0.69202 0,1.7825 0,2.86401c0,0.67999 0,1.625 0,2.47998c0,1.00269 0,1.68668 0,2.85333c0,0.7905 0,1.64401 0,2.23468c0,1.19733 0,2.07782 0,2.91333c0,1.00134 0,1.68533 0,2.85199c0,0.7905 0,1.64401 0,2.23468c0,1.19998 0,1.80933 0,2.75583c0,1.00949 0,2.091 0,2.82199c0,0.711 0,1.978 0,2.75952c0,0.70947 0,1.68283 0,2.49731c0,0.8685 0,2.06384 0,2.65952c0,0.8685 0,1.93784 0,2.65631c0,0.95801 0,2.091 0,2.75803c0,0.711 0,1.44199 0,2.86865c0,0.66434 0,1.61084 0,2.22015c0,1.20001 0,2.08051 0,2.91602c0,1 0,1.66449 0,2.68533c0,0.81067 0,1.68533 0,2.68399c0,0.81601 0,1.63202 0,2.63068c0,0.87466 0,1.88535 0,2.68533c0,1 0,1.81067 0,2.45715c0,1.22818 0,1.77884 0,2.64734c0,1.19516 0,2.07419 0,2.88116c0,0.87167 0,1.81967 0,2.78366c0,0.75153 0,1.548 0,2.54669c0,0.90933 0,1.85065 0,2.63666c0,0.82199 0,1.88068 0,2.81134c0,0.6315 0,1.63733 0,2.47198c0,0.93066 0,1.72568 0,2.61069c0,0.63998 0,2.03464 0,2.75732c0,0.69867 0,1.896 0,2.70932c0,1.02002 0,1.69202 0,2.68134c0,0.86252 0,1.75351 0,2.66699c0,0.80002 0,1.75967 0,2.56369c0,0.82199 0,1.85333 0,2.77466c0,0.68399 0,1.68533 0,2.52084c0,0.88049 0,2.07782 0,2.66849c0,0.85352 0,1.88882 0,2.74817c0,1.01184 0,1.78134 0,2.52866c0,1.21652 0,2.013 0,2.7645c0,1.09735 0,1.97067 0,2.936c0,0.65866 0,1.66669 0,2.45868c0,1.03183 0,1.77917 0,2.77332c0,0.76535 0,1.71735 0,2.76801c0,0.65866 0,1.66669 0,2.52884c0,0.90451 0,1.78366 0,2.66168c0,0.94281 0,1.84283 0,2.74283c0,0.89999 0,1.69998 0,2.60001l0,0.89999" id="svg_35" stroke-width="2" stroke="#000" fill="none"/>
  <path t="82448,82584,82593,82601,82608,82608,82617,82617,82624,82625,82625,82634,82634,82641,82650,82650,82650,82657,82657,82657,82657,82664,82664,82664,82673,82673,82680,82680,82688,82688,82688,82696,82696,82704,82704,82712,82712,82712,82720,82720,82720,82728,82728,82728,82736,82736,82736,82744,82744,82752,82752,82752,82752,82760,82760,82760,82768,82768,82768,82776,82776,82784,82784,82784,82784,82792,82792,82792,82792,82800,82800,82800,82808,82808,82808,82808,82816,82816,82816,82824,82824,82824,82833,82833,82833,82840,82840,82840,82849,82849,82849,82856,82856,82864,82864,82864,82873,82873,82873,82880,82881,82881,82881,82888,82889,82889,82896,82896,82896,82905,82905,82905,82912,82912,82920,82928,82929,82929,82936,82936,82937,82944,82945,82952,82952,82960,82968,82969,82976,82977,82977,82984,82992,82992,82992,83000,83000,83008,83008,83016,83017,83017,83024,83024,83034,83034,83034,83040,83050,83057,83064,83064,83080,83081,83096,83105,83123,83128,83144,83184,83208,83232,83280,83280,83408,83432,83656" d="m315.51135,278.09091c0,1.79999 0,2.70001 0,3.52084c0,0.96448 0,1.68982 0,2.67917c0,0.79999 0,1.79999 0,2.59998c0,0.80002 0,1.7955 0,2.71469c0,0.87067 0,1.81866 0,2.75732c0,0.54932 0,1.728 0,2.62799c0,0.60001 0,1.5 0,2.69733c0,0.86102 0,1.63202 0,2.59735c0,0.77332 0,1.81516 0,2.59067c0,1.048 0,1.75751 0,2.61017c0,1.00449 0,1.8045 0,2.80466c0,0.82068 0,1.96649 0,2.7525c0,0.82199 0,1.88068 0,2.59467c0,0.67801 0,1.87418 0,2.68866c0,0.57468 0,1.76401 0,2.655c0,0.83701 0,1.77567 0,2.62985c0,0.97916 0,1.84616 0,2.52081c0,0.71466 0,2.13669 0,2.79666c0,0.91501 0,1.99503 0,2.70453c0,0.85266 0,1.85983 0,2.49881c0,1.29169 0,1.92767 0,2.61969c0,0.724 0,2.172 0,2.85199c0,0.94501 0,1.52499 0,2.80399c0,0.70352 0,1.452 0,2.65201c0,0.69202 0,1.41602 0,2.14801c0,1.396 0,2.03598 0,2.92099c0,1.04034 0,1.96167 0,2.64566c0,1.00134 0,1.83685 0,2.71735c0,0.89865 0,1.79868 0,2.69867c0,0.89999 0,1.79099 0,2.62799c0,1.12933 0,1.92267 0,2.81485c0,0.71848 0,1.50897 0,2.77448c0,0.70352 0,1.452 0,2.65201c0,0.69202 0,1.41602 0,2.14801c0,1.396 0,2.03598 0,2.92099c0,1.04034 0,1.96167 0,2.64566c0,1 0,1.81601 0,2.63202c0,1.22232 0,2.02231 0,2.93134c0,0.91931 0,1.79431 0,2.43933c0,0.99731 0,1.81332 0,2.62933c0,1.22684 0,1.87332 0,2.88367c0,0.92831 0,1.85098 0,2.68298c0,0.80533 0,1.80002 0,2.5965c0,0.7515 0,1.87018 0,2.85419c0,0.672 0,1.41599 0,2.52383c0,0.89099 0,1.80447 0,2.60449c0,0.95966 0,1.76367 0,2.58566c0,1.03116 0,1.93182 0,2.95267c0,0.78934 0,1.51468 0,2.58932c0,0.81067 0,1.71518 0,2.73199c0,0.67868 0,1.65717 0,2.47736c0,0.90134 0,1.90134 0,2.80133c0,0.89999 0,1.78934 0,2.68533c0,0.91467 0,1.81467 0,2.71466c0,0.79999 0,1.70001 0,2.60001l0,0.89999" id="svg_36" stroke-width="2" stroke="#000" fill="none"/>
  <path t="85040,85216,85296,85313,85328,85352,85360,85360,85376,85384,85384,85392,85400,85400,85408,85416,85424,85424,85432,85432,85440,85440,85448,85456,85456,85464,85464,85472,85480,85488,85488,85496,85504,85504,85513,85513,85520,85520,85520,85530,85530,85536,85536,85544,85544,85552,85552,85560,85560,85568,85584,85592,85592,85600,85600,85608,85608,85616,85616,85616,85624,85632,85640,85640,85648,85648,85656,85656,85665,85665,85672,85672,85680,85688,85688,85696,85704,85704,85704,85713,85713,85720,85720,85730,85736,85744,85744,85752,85760,85760,85768,85768,85776,85776,85787,85792,85792,85803,85803,85803,85803,85808,85808,85808,85819,85819,85824,85824,85836,85837,85840,85840,85853,85853,85856,85869,85869,85872,85880,85880,85891,85913,85920,85920,85920,85920,85936,85944,85952,85961,85961,85976,85992,85992,86008,86008,86017,86017,86024,86040,86048,86056,86056,86064,86072,86088,86088,86096,86113,86113,86130,86136,86152,86168,86184,86192,86208,86216,86224,86232,86232,86240,86264,86272,86288,86312,86344,86352,86368,86369,86384,86392,86408" d="m320.51135,276.09091c0,1.79999 0,2.70001 0,3.60001c0,0.87915 0,1.76166 0,2.72131c0,0.67868 0,1.65717 0,2.67868c0,0.79999 0,1.63599 0,2.48401c0,0.86331 0,1.88 0,2.81598c0,0.80017 0,1.58536 0,2.53601c0,0.76532 0,1.75949 0,2.67868c0,0.85999 0,1.80682 0,2.69598c0,0.98901 0,1.74768 0,2.728c0,0.823 0,1.71402 0,2.57733c0,0.85867 0,1.80551 0,2.69467c0,0.98935 0,1.78934 0,2.78934c0,0.79999 0,1.60001 0,2.60001c0,0.79999 0,1.79865 0,2.564c0,0.952 0,1.72 0,2.672c0,0.76532 0,1.75949 0,2.67868c0,0.94366 0,1.84698 0,2.80664c0,0.67868 0,1.65735 0,2.56268c0,0.77765 0,1.57767 0,2.79868c0,0.79648 0,1.54797 0,2.50299c0,1.01434 0,1.81433 0,2.62866c0,0.95367 0,1.68567 0,2.85233c0,0.8125 0,1.65466 0,2.508c0,0.94135 0,1.70935 0,2.65067c0,1.00803 0,1.87018 0,2.71634c0,1.00119 0,1.71967 0,2.51016c0,1.02652 0,1.90652 0,2.92667c0,0.82019 0,1.72153 0,2.54236c0,0.96317 0,1.65381 0,2.72198c0,0.85733 0,1.64252 0,2.59317c0,0.76532 0,1.75949 0,2.67868c0,0.85999 0,1.80698 0,2.52698c0,1.125 0,1.9155 0,2.76901c0,0.59067 0,1.78799 0,2.66849c0,0.83551 0,1.83551 0,2.71017c0,1.0105 0,1.78983 0,2.78934c0,0.77399 0,1.6785 0,2.42584c0,0.99414 0,1.93832 0,2.84283c0,0.91931 0,1.73181 0,2.702c0,0.7605 0,1.56799 0,2.63998c0,0.84268 0,1.91068 0,2.46268c0,0.948 0,1.59 0,2.89066c0,0.89069 0,1.70401 0,2.54135c0,0.86331 0,1.89066 0,2.83749c0,0.69934 0,1.6785 0,2.46783c0,1.04401 0.00531,1.90619 0,2.77466c-0.00534,0.87207 -0.50049,1.65482 -0.83331,2.436c-0.32019,0.75153 -0.16669,1.70001 -0.16669,2.63599c0,0.84802 0,1.71133 0,2.61136c0,0.91931 0,1.73181 0,2.76733c0,0.78665 0,1.68533 0,2.58533c0,0.89999 0,1.79999 0,2.69998c0,0.90002 0,1.80002 0,2.70001c0,0.79999 0,1.71466 0,2.61066c0,0.88934 0,1.78934 0,2.68933c0,0.90002 0,1.80002 0,2.70001c0,0.79999 0,1.70001 0,2.60001l0,0.96399" id="svg_37" stroke-width="2" stroke="#000" fill="none"/>
  <path t="88000,88095,88104,88112,88120,88136,88152,88152,88160,88168,88168,88184,88200,88208,88216,88223,88232,88232,88239,88248,88248,88255,88264,88280,88280,88288,88296,88304,88304,88312,88312,88320,88328,88328,88336,88343,88352,88352,88360,88360,88368,88376,88384,88384,88393,88393,88400,88409,88409,88416,88424,88424,88432,88432,88440,88448,88448,88455,88464,88464,88472,88472,88480,88480,88480,88488,88488,88488,88496,88504,88512,88512,88520,88520,88528,88528,88536,88536,88544,88544,88544,88552,88552,88560,88560,88568,88576,88576,88584,88584,88593,88593,88600,88609,88609,88616,88616,88616,88623,88623,88623,88624,88632,88640,88648,88648,88655,88655,88656,88664,88672,88680,88688,88688,88696,88696,88704,88704,88712,88720,88720,88720,88727,88728,88736,88736,88744,88752,88752,88760,88760,88768,88768,88776,88776,88784,88784,88793,88800,88800,88809,88809,88816,88816,88824,88824,88832,88840,88848,88856,88856,88864,88880,88880,88888,88904,88904,88912,88920,88920,88928,88935,88935,88944,88952,88960,88960,88968,88968,88976,88976,88984,88984,88992,88993,89000,89000,89000,89009,89009,89016,89025,89032,89032,89040,89048,89048,89055,89064,89072,89080,89088,89096,89112,89112,89120,89120,89129,89129,89136,89144,89152,89152,89161,89168,89184,89193,89209,89233,89240,89249,89256,89265,89265,89281,89298,89320,89336,89348,89361,89385,89393,89393,89417,89436,89449,89473,89497,89508,89520,89568,89568" d="m303.51135,59.09091c0,1.8 0,2.7 0,3.6c0,0.9 0,1.7045 0,2.72134c0,0.67867 0,1.65717 0,2.67867c0,0.8 0,1.64283 0,2.52084c0,0.97916 0,1.87917 0,2.77916c0,0.80017 0,1.58533 0,2.52534c0,1.008 0,1.87016 0,2.77467c0,0.87917 0,1.84283 0,2.58533c0,0.92933 0,1.91467 0,2.81467c0,0.75716 0,1.65266 0,2.516c0,0.85867 0,1.80534 0,2.65867c0,0.93999 0,1.92533 0,2.82533c0,0.75716 0,1.65266 0,2.516c0,0.96317 0,1.7885 0,2.8055c0,0.69933 0,1.6785 0,2.45716c0,1.05334 0,1.93117 0,2.73867c0,0.85733 0,1.804 0,2.65733c0,0.94133 0,1.70934 0,2.65067c0,1.008 0,1.87016 0,2.6955c0,0.96449 0,1.68983 0,2.67916c0,0.8 0,1.8 0,2.61067c0,0.87466 0,1.87199 0,2.6685c0,0.7515 -0.1445,1.86533 0.08536,2.69017c0.25928,0.9304 0.70999,1.41855 0.85748,2.43066c0.1156,0.79336 0.05716,1.8 0.05716,2.6c0,1 0,1.8 0,2.8c0,0.8 0,1.60001 0,2.60001c0,0.79999 0,1.79866 0,2.74283c0,0.89999 0,1.85983 0,2.62784c0,1.03465 -0.0181,1.77884 0,2.696c0.01801,0.91252 0.55334,1.68784 0.83334,2.5c0.28241,0.8192 0.16666,1.83333 0.16666,2.65466c0,0.69299 0,1.82117 0,2.47949c0,1.01251 0,1.64584 0,2.82317c0,0.93733 0,1.75867 0,2.56401c0,0.99466 0,1.79117 0,2.54266c0,1.09734 0,2.06934 0,2.97067c0,0.96533 0,1.62399 0,2.63199c0,0.79201 0,1.81934 0,2.51401c0,1.03799 0,1.98599 0,2.66249c0,0.77551 0,2.06851 0,2.7435c0,1.08 0,1.836 0,2.7675c0,0.80067 0,1.68983 0,2.67917c0,0.8 0,1.8 0,2.58934c0,1.04399 0,1.836 0,2.69466c0,0.86334 0,1.76334 0,2.68268c0,0.83333 0,1.812 0,2.586c0,0.9045 0,1.65182 0,2.646c0,0.94417 0,1.83966 0,2.77066c0,0.8515 0,1.80917 0,2.62933c0,0.83734 0,1.854 0,2.54868c0,1.02733 0,1.974 0,2.82733c0,0.94 0,1.82533 0,2.62534c0,0.836 0,1.85266 0,2.54733c0,1.01666 0,1.95717 0,2.81934c0,0.85416 0,1.83333 0,2.62267c0,1.04399 0,1.836 0,2.696c0,0.72533 0,1.71466 0,2.51466c0,1 0,1.8 0,2.60001c0,0.9955 0,1.91466 0,2.87917c0,0.93149 0,1.84216 0,2.6955c0,0.94 0,1.82533 0,2.62534c0,0.89999 0,1.8 0,2.7c0,0.89999 0,1.8 0,2.70134c0,0.96533 0,1.62399 0,2.63199c0,0.79201 0,1.81934 0,2.51401c0,1.01666 0,1.95717 0,2.81934c0,0.83333 0,1.81166 0,2.71199c0,0.82584 0,1.72134 0,2.62134c0,0.89999 0,1.8 0,2.7c0,0.90001 0,1.8 0,2.60001c0,0.89999 0,1.76399 0,2.72083c0,0.87917 0,1.77917 0,2.67917c0,0.90001 0,1.8 0,2.59999c0,0.90002 0,1.80002 0,2.70001c0,0.89999 0,1.79999 0,2.70001l0,0.89999l0,0.89999l0,0.79999" id="svg_38" stroke-width="2" stroke="#000" fill="none"/>
  <path t="90648,90727,90736,90737,90745,90745,90752,90752,90752,90762,90762,90762,90768,90768,90768,90779,90779,90779,90779,90784,90784,90784,90795,90796,90796,90800,90800,90800,90812,90812,90812,90816,90816,90816,90824,90824,90824,90832,90832,90832,90832,90840,90840,90840,90848,90848,90848,90848,90857,90857,90864,90864,90864,90874,90874,90874,90874,90880,90880,90888,90888,90888,90896,90896,90896,90897,90905,90905,90905,90905,90914,90914,90914,90924,90924,90924,90924,90928,90928,90928,90936,90936,90936,90936,90943,90944,90944,90953,90953,90953,90959,90960,90960,90973,90973,90982,90982,90984,90984,90984,90995,90995,90995,91008,91008,91011,91011,91018,91018,91018,91018,91028,91028,91028,91036,91037,91037,91043,91043,91048,91048,91048,91048,91057,91057,91057,91064,91064,91073,91073,91073,91079,91080,91080,91087,91088,91088,91096,91096,91096,91096,91096,91103,91104,91104,91112,91112,91112,91119,91127,91128,91136,91136,91136,91143,91144,91144,91151,91151,91160,91167,91168,91175,91176,91183,91183,91183,91191,91199,91200,91207,91208,91215,91216,91223,91224,91224,91231,91232,91232,91239,91240,91247,91256,91256,91263,91263,91264,91272,91273,91280,91280,91287,91296,91303,91319,91327,91328,91336,91352,91360,91360,91369,91380,91380,91384,91395,91412,91412,91416,91429,91432,91448,91448,91457,91457,91473,91480,91490,91504,91520,91529,91545,91561,91561,91568,91592,91608,91664,91680,91696,91704,91712,91713,91729,91736,91745,91760,91768,91808,91824,91824,91839,91840,91849,91849,91872,91881" d="m312.51135,57.09091c0,2.62533 0,3.48533 0,4.21067c0,0.98933 0,1.78933 0,2.78933c0,0.81067 0,1.68533 0,2.68533c0,0.8355 0,1.716 0,2.61466c0,0.9 0,1.8 0,2.7c0,0.9 0,1.8 0,2.4c0,1.19866 0,2.07916 0,2.91467c0,1.00266 0,1.70617 0,2.45467c0,1.19867 0,1.88133 0,2.58c0,1.31733 0,2.14083 0,2.86533c0,1.20667 0,1.738 0,2.56c0,1.05867 0,2.01067 0,2.73517c0,1.133 0,1.8 0,2.511c0,1.0965 0,2.15766 0,2.822c0,0.9465 0,2.15717 0,2.75583c0,0.8805 0,1.716 0,2.71734c0,0.90933 0,1.85066 0,2.64117c0,0.8535 0,2.04283 0,2.64149c0,0.8805 0,1.716 0,2.71734c0,0.90933 0,1.85066 0,2.64117c0,0.8535 0,2.04283 0,2.64417c0,0.9195 0,1.55583 0,2.91983c0,0.72701 0,1.458 0,2.169c0,1.26717 0,2.05917 0,2.81517c0,1.1375 0,1.8045 0,2.5155c0,1.0965 0,2.15766 0,2.822c0,0.9465 0,2.15717 0,2.75717c0,0.89999 0,1.79999 0,2.7c0,0.89999 0,1.8 0,2.7c0,0.89549 0,1.76399 0,2.83333c0,0.7095 0,1.56216 0,2.56667c0,0.8 0,1.8 0,2.60001c0,1 0,1.81067 0,2.45717c0,1.22549 0,2.022 0,2.7735c0,0.964 0,1.73734 0,2.78366c0,0.80701 0,1.98567 0,2.58568c0,0.89999 0,1.79999 0,2.69983c0,0.8895 0,1.743 0,2.77867c0,0.68549 0,1.52016 0,2.53049c0,0.90533 0,2.03368 0,2.69633c0,0.69467 0,1.72667 0,2.65167c0,1.00133 0,1.64034 0,2.64749c0,0.85268 0,1.817 0,2.6315c0,0.8685 0,2.06384 0,2.6595c0,0.8685 0,1.93784 0,2.66084c0,1.01067 0,1.94366 0,2.69566c0,0.82401 0,1.672 0,2.496c0,1.08766 0,1.95467 0,2.69566c0,1.23767 0,2.01466 0,2.70168c0,1.10666 0,1.92166 0,2.65067c0,1.03732 0,1.97865 0,2.65666c0,1.23134 0,2.04733 0,2.86333c0,0.99734 0,1.83734 0,2.79868c0,0.88533 0,1.6425 0,2.547c0,0.8 0,1.75951 0,2.55299c0,0.77551 0,1.97551 0,2.95201c0,0.65866 0,1.66666 0,2.45866c0,1.03633 0,1.83633 0,2.79599c0,0.804 0,1.62601 0,2.65718c0,0.68549 0,1.52016 0,2.517c0,0.91916 0,1.9045 0,2.72617c0,0.92499 0,1.845 0,2.6265c0,0.7905 0,1.909 0,2.6665c0,1.03799 0,1.73267 0,2.74933c0,0.9315 0,1.80533 0,2.65683c0,0.95767 0,1.77783 0,2.67917c0,0.82083 0,1.784 0,2.64734c0,0.89999 0,1.81934 0,2.63184c0,1 0,1.7825 0,2.67349c0,0.86334 0,1.82651 0,2.74733c0,0.90451 0,1.76668 0,2.60001c0,0.9785 0,1.79866 0,2.7c0,0.90001 0,1.8 0,2.7c0,0.90001 0,1.8 0,2.70001c0,0.89999 0,1.69998 0,2.60001c0,0.89999 0,1.77914 0,2.65717c0,0.94281 0,1.84283 0,2.74283c0,0.89999 0,1.69998 0,2.60001c0,0.89999 0,1.79999 0,2.69998c0,0.89551 0,1.82169 0,2.76666c0,0.65866 0,1.66669 0,2.45868c0,1.02734 0,1.72198 0,2.73868l0,0.93597" id="svg_39" stroke-width="2" stroke="#000" fill="none"/>
  <path t="93032,93111,93119,93119,93127,93127,93127,93127,93127,93135,93135,93144,93144,93144,93151,93152,93152,93152,93160,93160,93160,93160,93167,93167,93176,93176,93176,93176,93183,93184,93184,93191,93191,93199,93200,93200,93207,93207,93207,93215,93215,93223,93223,93231,93231,93240,93240,93247,93247,93247,93248,93255,93255,93255,93263,93263,93263,93271,93271,93279,93279,93279,93287,93287,93287,93295,93295,93295,93304,93304,93304,93311,93311,93311,93320,93320,93320,93327,93327,93337,93337,93343,93343,93351,93351,93359,93360,93360,93367,93367,93375,93375,93383,93383,93383,93391,93391,93399,93399,93399,93407,93408,93415,93416,93416,93416,93423,93423,93424,93431,93432,93432,93439,93440,93447,93447,93447,93455,93455,93455,93464,93464,93471,93471,93472,93479,93480,93480,93480,93487,93487,93488,93495,93495,93495,93504,93504,93504,93511,93511,93520,93520,93527,93527,93537,93537,93544,93544,93551,93559,93560,93567,93568,93568,93568,93576,93576,93583,93591,93592,93599,93599,93608,93608,93615,93615,93623,93631,93639,93647,93648,93655,93663,93679,93687,93703,93704,93711,93711,93719,93727,93743,93768,93775,93776,93783,93783,93792,93799,93799,93815,93823,93831,93839,93839,93856,93873,93873,93880,93888,93909,93926,93926,93937,93944,93953,93953,93961,93976,93977,93984,93984,93999,94000,94016,94026,94043,94047,94048,94059,94059,94063,94075,94079,94092,94096,94120,94128,94144,94144,94153,94160,94176,94199,94215,94226,94243,94260,94263,94280,94295,94335" d="m321.51135,60.09091c0,1.75716 0,2.67067 0,3.31866c0,1.18134 0,1.932 0,2.74667c0,0.82267 0,1.59734 0,2.79601c0,0.935 0,1.91066 0,2.70116c0,0.60367 0,1.95883 0,2.69016c0,0.74734 0,1.49467 0,2.58067c0,1.005 0,1.625 0,2.48c0,1.004 0,1.948 0,3.02c0,0.63467 0,1.66666 0,2.36133c0,0.972 0,2.03333 0,2.69633c0,1.01033 0,1.845 0,2.77567c0,0.786 0,1.608 0,2.66667c0,0.93066 0,1.76533 0,2.76666c0,0.8 0,1.8 0,2.6c0,0.99983 0,1.77917 0,2.779c0,0.71834 0,1.78534 0,2.388c0,1.029 0,1.75167 0,2.81133c0,0.97501 0,1.575 0,2.65501c0,0.93066 0,1.76533 0,2.77116c0,0.6315 0,1.81683 0,2.62083c0,0.822 0,1.85333 0,2.54933c0,0.90933 0,1.91067 0,2.74617c0,0.58366 0,1.779 0,2.6685c0,0.8535 0,1.88934 0,2.58533c0,0.90933 0,1.90933 0,2.72533c0,0.81599 0,1.81334 0,2.65334c0,0.96266 0.04095,1.73201 -0.01065,2.68266c-0.04169,0.76784 -0.38385,1.75516 -0.63666,2.62117c-0.27783,0.95177 -0.33063,1.76775 -0.34818,2.59016c-0.022,1.03078 -0.00452,1.70599 -0.00452,2.786c0,0.828 0,1.7095 0,2.42801c0,0.7905 0,2.05466 0,2.73866c0,1.16667 0,1.94817 0,2.73866c0,0.92801 0,1.78217 0,2.76134c0,0.8625 0,1.52083 0,2.19917c0,1.258 0,2.03949 0,2.98349c0,1.00134 0,1.81734 0,2.63333c0,0.99867 0,1.87334 0,2.88417c0,0.82066 0,1.48517 0,2.48384c0,0.81599 0,1.63199 0,2.63066c0,0.87466 0,1.88567 0,2.72701c0,0.72899 0,1.92766 0,2.61966c0,0.724 0,1.45599 0,2.85201c0,0.64 0,1.52499 0,2.56532c0,0.92134 0,1.60535 0,2.60535c0,0.81599 0,1.63199 0,2.63066c0,0.87466 0,1.88516 0,2.66451c0,0.9995 0,1.90483 0,2.67799c0,0.94417 0,1.93834 0,2.68567c0,1.03183 0,1.97884 0,2.69884c0,1.125 0,1.911 0,2.73299c0,0.54134 0,1.76367 0,2.56367c0,1.03633 0,1.983 0,2.66167c0,0.97884 0,1.80983 0,2.76801c0,0.73199 0,1.89867 0,2.69032c0,0.84167 -0.08212,1.74544 0.00018,2.64168c0.08368,0.91144 0.80002,1.5526 0.979,2.39999c0.18604,0.8808 0.02081,1.8 0.02081,2.70134c0,0.96533 0,1.79866 0,2.63199c0,0.86217 0,1.76668 0,2.64584c0,0.95683 0,1.82533 0,2.6875c0,0.83333 0,1.81183 0,2.63199c0,0.95851 0,1.854 0,2.54868c0,1.01666 0,1.95267 0,2.85266c0,0.90016 0,1.68533 0,2.62534c0,1.008 0,1.76399 0,2.67467c0,0.89999 0,1.8045 0,2.66667c0,0.8125 0.06314,1.83643 -0.01065,2.69466c-0.08432,0.98082 -0.67392,1.54286 -0.93216,2.44318c-0.23825,0.83057 -0.05719,1.6955 -0.05719,2.67416c0,0.774 0,1.674 0,2.53734c0,0.96317 0,1.88399 0,2.7885c0,0.86217 0,1.6955 0,2.674c0,0.82016 0,1.72151 0,2.62151c0,0.89999 0,1.79999 0,2.6955c0,0.92599 0,1.8045 0,2.7045c0,0.79999 0,1.70001 0,2.60001c0,0.89999 0,1.79999 0,2.69998c0,0.90002 0,1.79984 0,2.70001c0,0.80133 0,1.70001 0,2.60001l0,0.89999" id="svg_40" stroke-width="2" stroke="#000" fill="none"/>
  <path t="95760,95824,95832,95856,95864,95864,95872,95880,95888,95897,95897,95904,95920,95936,95936,95944,95960,95960,95968,95969,95976,95985,95992,95992,96002,96009,96025,96032,96032,96040,96058,96064,96064,96074,96080,96088,96096,96096,96104,96112,96124,96128,96136,96136,96144,96144,96152,96161,96170,96170,96170,96177,96185,96185,96192,96192,96208,96208,96217,96224,96232,96240,96240,96248,96256,96257,96264,96272,96272,96272,96288,96296,96304,96304,96312,96320,96320,96328,96336,96336,96344,96352,96352,96360,96368,96376,96384,96401,96418,96418,96424,96425,96432,96464,96480,96480,96488,96496,96496,96504,96504,96512,96528,96536,96544,96552,96560,96568,96576,96576,96584,96584,96592,96601,96608,96618,96625,96634,96634,96635,96641,96648,96656,96656,96664,96664,96672,96680,96689,96696,96704,96704,96712,96720,96720,96728,96736,96736,96744,96744,96752,96760,96760,96768,96776,96777,96784,96792,96816,96816,96825,96834,96834,96840,96840,96848,96848,96856,96856,96872,96872,96880,96880,96880,96888,96888,96896,96896,96904,96912,96912,96920,96928,96928,96936,96944,96944,96952,96960,96960,96968,96968,96968,96976,96984,96992,96992,97000,97008,97008,97025,97025,97040,97040,97072,97072,97088,97097,97105,97105,97128,97137,97157,97161,97174,97189,97193,97209,97209,97217,97225,97241,97251,97251,97257,97280,97296,97321,97337,97353,97363,97376,97376,97392,97407,97409,97425,97434,97457,97465,97577,97577" d="m307.51135,58.09091c0,1.8 0,2.64283 0,3.54166c0,0.94233 0,1.633 0,2.70117c0,0.95716 0,1.85716 0,2.75716c0,0.8 0,1.7 0,2.52084c0,0.96317 0,1.65383 0,2.72649c0,0.91933 0,1.75267 0,2.73117c0,0.82017 0,1.7215 0,2.54234c0,0.96317 0,1.65383 0,2.722c0,0.95716 0,1.85716 0,2.75716c0,0.8 0,1.7 0,2.52084c0,0.96317 0,1.65383 0,2.722c0,0.95716 0,1.85716 0,2.75716c0,0.8 0,1.7 0,2.6c0,0.9 0,1.7045 0,2.72134c0,0.67867 0,1.65733 0,2.56267c0,0.93066 0,1.78266 0,2.78017c0,0.6225 0,1.56916 0,2.52599c0,0.9765 0,1.80984 0,2.78851c0,0.77399 0,1.674 0,2.53733c0,0.96317 0,1.884 0,2.784c0,0.80017 0,1.58533 0,2.52534c0,1.008 0,1.87016 0,2.71633c0,1.00083 0,1.69833 0,2.605c0,1.02 0,1.95333 0,2.85333c0,0.8 0,1.636 0,2.484c0,0.86333 0,1.89066 0,2.83733c0,0.67867 0,1.65717 0,2.67867c0,0.8 0,1.7 0,2.60001c0,0.89999 0,1.79999 0,2.60133c0,0.96533 0,1.79866 0,2.77716c0,0.82016 0,1.66434 0,2.56317c0,0.94232 0,1.633 0,2.70566c0,0.91934 0,1.75267 0,2.73117c0,0.82016 0,1.7215 0,2.62151c0,0.89999 0,1.79999 0,2.7c0,0.89999 0,1.8 0,2.7c0,0.75717 0,1.65266 0,2.51601c0,0.96317 0,1.88399 0,2.7795c0,0.81433 0,1.74617 0,2.7045c0,0.78934 0,1.51466 0,2.58932c0,0.82133 0,1.73218 0,2.62134c0,0.989 0,1.74767 0,2.728c0,0.76584 0,1.76134 0,2.58217c0,0.96317 0,1.65384 0,2.722c0,0.85733 0,1.6425 0,2.5825c0,1.008 0,1.8 0,2.65866c0,0.86334 0,1.89067 0,2.83734c0,0.67867 0,1.65717 0,2.67867c0,0.8 0,1.7 0,2.564c0,0.87883 0,1.62134 0,2.68333c0,0.91934 0,1.75267 0,2.73134c0,0.774 0,1.6785 0,2.42583c0,0.99284 0,1.88116 0,2.92883c0,0.70834 0,1.66667 0,2.46667c0,0.8 0,1.8 0,2.59999c0,0.99867 0,1.94284 0,2.84283c0,0.85733 0,1.6425 0,2.5825c0,1.008 0,1.87016 0,2.6955c0,0.96317 0,1.65384 0,2.7265c0,0.91934 0,1.7735 0,2.75267c0,0.78934 0,1.51466 0,2.58932c0,0.82133 0,1.73201 0,2.58534c0,0.94 0,1.82533 0,2.71066c0,0.95067 0,1.716 0,2.70567c0,0.83833 0,1.85182 0,2.59433c0,0.92934 0,1.91467 0,2.81467c0,0.8 0,1.7 0,2.60001c0,0.89999 0,1.79999 0,2.6955c0,0.87117 -0.53168,1.45154 -0.91464,2.27383c-0.33212,0.71312 -0.08536,1.67349 -0.08536,2.63066c0,0.90001 0,1.8 0,2.60001c0,0.89999 0,1.8 0,2.67917c0,0.87799 0,1.82083 0,2.72083c0,0.90001 0,1.8 0,2.60001c0,0.90001 0,1.8 0,2.7c0,0.89999 0,1.7955 0,2.7215l0,0.87851l0,0.89999l0,0.79999" id="svg_41" stroke-width="2" stroke="#000" fill="none"/>
  <path t="99456,99536,99536,99546,99560,99584,99584,99600,99600,99632,99672,99681,99688,99720,99736,99754,99760,99760,99770,99776,99776,99787,99792,99803,99808,99808,99820,99820,99837,99837,99840,99872,99904" d="m296.51135,35.09091c1,1 1.93643,0.59726 2.71469,1.08533c0.74042,0.46433 1.29831,0.82093 2.04248,0.97184c0.92142,0.18684 1.92276,0.6165 2.2215,1.50683c0.2775,0.82695 -0.04099,1.78532 0.52133,2.41516c0.45105,0.50523 0.5,1.32084 0.5,2.22084c0,0.90017 0,1.68533 0,2.62533c0,1.008 0,1.764 0,2.67467c0,0.9 0,1.8045 0,2.66666c0,0.83334 0,1.812 0,2.586c0,0.9 0,1.76333 0,2.7265l0,0.92083l0,0.9" id="svg_42" stroke-width="2" stroke="#000" fill="none"/>
  <path t="100976,101152,101160,101176,101464,101480,101488,101504,101512,101512,101520,101520,101520,101528,101528,101536,101536,101545,101552,101552,101561,101561,101561,101576,101600,101624,101632,101656,101656,101688" d="m327.51135,34.09091c-1.69998,0 -2.60001,-0.00597 -3.564,0c-0.86139,0.00533 -1.43066,0.61061 -1.436,1.5c-0.00546,0.91065 0,1.8215 0,2.52083c0,0.97917 0,1.77917 0,2.57917c0,1 0,1.8 0,2.79867c0,0.94416 0,1.84867 0,2.768c0,0.85417 0,1.83334 0,2.62267c0,0.72533 0,1.764 0,2.7315c0,0.87917 -0.00449,1.77917 -0.22131,2.57917l-0.49466,0.7l-0.27951,0.9" id="svg_43" stroke-width="2" stroke="#000" fill="none"/>
  <path t="104512,104631,104640,104640,104656,104656,104664,104664,104672,104672,104680,104688,104696,104696,104704,104711,104720,104720,104731,104736,104744,104744,104752,104775,104792,104815,104831,104848,104857,104864,104864,104872,104872,104880,104896,104904,104912,104912,104928,104944,104952,104960,104968,104976,104984,104991,105000,105007,105008,105016,105016,105040,105048,105057,105072,105072,105080,105088,105096,105104,105104,105111,105112,105120,105135,105144,105168,105184,105184,105192,105200,105214,105225,105225,105233,105241,105249,105249,105258,105265,105265,105272,105282,105288,105298,105304,105304,105314,105330,105331,105336,105336,105347,105347,105364,105364,105368,105381,105384,105400,105414,105414,105416,105431,105431,105441,105441,105449,105458,105458,105465,105474,105488,105498,105515,105520,105531,105531,105536,105548,105552,105552,105564,105568,105584,105598,105598,105600,105614,105616,105640,105650,105657,105665,105674,105681,105688,105698,105698,105704,105712,105720,105730,105745,105745,105752,105768,105781,105785,105798,105800,105816,105816,105831,105831,105833,105841,105849,105857,105864,105864,105880,105888,105898,105904,105912,105920,105930,105930,105936,105945,105952,105964,105968,105980,105980,105984,105996,105997,106000,106001,106016,106031,106034,106048,106049,106057,106064,106065,106074,106080,106090,106096,106104,106104,106115,106120,106129,106136,106146,106161,106168,106168,106180,106183,106199,106199,106212,106229,106232,106246,106248,106264,106273,106280,106280,106289,106298,106298,106315,106332,106332,106347,106348,106352,106368,106368,106379,106396,106409,106409,106424,106444,106444,106448,106462,106488,106488,106497,106513,106535,106551,106563,106579,106584,106599,106612,106631,106655,106656,106671,106711,106711,106727,106735,106736,106745,106767,106778,106784,106793,106800,106815,106831,106845,106848,106848,106864,106880,106888,106905,106906,106913,106935,106944,106944,106952,106967,106968,106983,106999,107016,107047,107071,107087,107088,107111,107120,107167,107191,107191,107223,107351,107352,107399,107423,107433,107472" d="m329.51135,223.09091c1.75717,0 2.66086,0.14029 3.43069,0c0.98355,-0.17923 1.52695,-0.79601 2.57465,-0.94284c0.73825,-0.10347 1.85168,-0.05716 2.57333,-0.05716c0.92133,0 1.832,0 2.74268,0c0.85333,0 1.88904,0.19194 2.59601,-0.284c0.6582,-0.4431 1.26794,-0.71066 2.3255,-0.716c0.85715,-0.00432 1.75714,0 2.55716,0c0.89999,0 1.79999,0 2.69998,0c0.90002,0 1.80002,0 2.70001,0c0.89999,0 1.8165,-0.10501 2.68533,0.08533c0.79373,0.17389 1.60666,0.73663 2.47867,0.87868c0.9245,0.1506 1.89328,-0.1277 2.73599,0.25732c0.66931,0.3058 1.54593,0.41531 2.39999,0.7995c0.69617,0.31316 1.20303,1.03453 2,1.47917c0.79852,0.44551 1.70862,0.37593 2.59985,0.50017c0.80206,0.1118 1.18958,1.06999 1.92099,1.479c0.77359,0.43259 1.52576,0.73569 2.14584,1.35416c0.61911,0.61749 1.25717,0.98059 2.03333,1.45201c0.67636,0.41081 1.21552,1.38792 2.10001,1.65749c0.86279,0.26295 1.69116,0.39722 2.19998,1.05717c0.58987,0.76509 1.29034,1.09937 2,1.5c0.87787,0.49559 1.27066,1.03326 1.509,1.85716c0.23904,0.82629 1.37155,1.05482 1.82034,1.84283c0.45328,0.79588 0.51486,1.59048 1.27066,2.0215c0.6691,0.38158 1.3996,1.11316 1.77869,1.87851c0.41943,0.84677 0.77493,1.46042 1.41681,2.2c0.57861,0.66669 0.70383,1.5 0.7045,2.39999c0.00067,0.90001 -0.11142,1.86957 0.35718,2.60001c0.51318,0.79991 1.39774,1.23312 1.62201,2.17917c0.19708,0.83136 0.00793,1.74225 0.021,2.72066c0.01041,0.77954 0.20605,1.61435 0.57449,2.42551c0.38193,0.84085 0.42307,1.72198 0.42532,2.61749c0.00241,0.95718 -0.21503,1.95383 0.22134,2.63602c0.46664,0.72952 0.77332,1.30646 0.77866,2.23581c0.00565,0.98547 0,1.77069 0,2.71066c0,0.69067 -0.01382,1.81601 0.28403,2.65869c0.24973,0.70648 0.67325,1.62634 0.71597,2.54132c0.03619,0.77515 0,1.67468 0,2.57468c0,0.92084 0,1.884 0,2.57465c0,1.06818 0,1.92535 0,2.82535c0,0.79999 -0.41119,1.8226 0.05719,2.64282c0.46432,0.81314 0.94281,1.35718 0.94281,2.15717c0,0.90002 0,1.80002 0,2.70001c0,0.89999 0,1.79999 0,2.70001c0,0.89981 0,1.77466 0,2.60132c0,0.83466 0,1.85135 0,2.54599c0,1.01669 0,1.95267 0,2.85269c0,0.89999 0,1.79999 0,2.59998c0,0.90002 0,1.80002 0,2.70001c0,0.89999 -0.0455,1.82861 0.42535,2.48532c0.44455,0.62003 0.54205,1.42426 0.57599,2.41202c0.03055,0.88956 0.68744,1.51486 0.9415,2.30798c0.29379,0.91711 0.05716,1.83633 0.05716,2.77869c0,0.69064 0,1.75882 0,2.616c0,0.89999 0.4498,1.44528 0.91467,2.18533c0.48871,0.77802 0.32031,1.67236 0.73267,2.41467c0.45798,0.8244 0.99664,1.35464 1.43668,2.10132c0.41284,0.70053 0.8035,1.52066 1.08267,2.36533c0.2756,0.83386 0.7804,1.664 0.8335,2.49734c0.05319,0.83456 0.22482,1.78598 0.71582,2.41733c0.57953,0.74518 1.03482,1.36612 1.72,1.89334c0.65366,0.50296 1.47656,0.73508 2.04318,1.54617c0.51227,0.73328 0.42557,1.69052 0.94617,2.41782c0.47614,0.66516 0.93823,1.35425 1.45349,2.16116c0.46442,0.72729 1.56357,0.6019 2.04916,1.33618c0.47824,0.72314 -0.07141,1.84964 0.42468,2.51132c0.50116,0.66843 1.06482,1.25293 1.48065,2.05267c0.38675,0.7438 0.72867,1.46835 1.11401,2.29999c0.40399,0.87189 0.88589,1.47168 1.04816,2.40002c0.15512,0.88745 0.62039,1.61093 0.91916,2.49866c0.27374,0.81342 -0.20111,1.91571 0.25201,2.63467c0.44431,0.70499 0.82797,1.35196 0.83331,2.28131c0.00507,0.88535 0.1272,1.66284 0.5,2.40619c0.47034,0.93784 0.39014,1.702 0.78403,2.59381c0.32684,0.74005 0.69833,1.53568 1,2.36935c0.3187,0.88077 0.68738,1.75739 0.71597,2.616c0.02997,0.89951 -0.00241,1.69998 0,2.65717c0.00226,0.89551 -0.02802,1.81436 0.42535,2.59616c0.46591,0.80344 0.57465,1.64667 0.57465,2.44666c0,0.90002 0,1.80002 0,2.70001c0,0.89999 0,1.79999 0,2.70001c0,0.89999 0,1.79999 0,2.67865c0,0.76801 0,1.77402 0,2.46866c0,1.02734 0,1.974 0,2.82733c0,0.94 0,1.82535 0,2.62534c0,0.91467 0.00531,1.8107 0,2.70001c-0.00534,0.8894 -0.71698,1.37704 -0.98932,2.11066c-0.30972,0.83426 -0.55386,1.59265 -0.88916,2.48935c-0.31808,0.85065 0.07443,1.73441 -0.17868,2.60001c-0.25665,0.87762 -0.77924,1.64703 -1.16415,2.39999c-0.39014,0.76318 -1.09003,1.28473 -1.612,2.06665c-0.47183,0.70685 -0.16486,1.63333 -0.16669,2.46933c-0.00226,1.01669 0.04474,1.75424 -0.42532,2.72803c-0.37567,0.77823 -0.83331,1.19846 -1.40799,1.80264c-0.65341,0.68698 -0.16669,1.83334 -0.16669,2.63333c0,0.90002 0.04636,1.73334 -0.42532,2.60001c-0.39868,0.73254 -0.57401,1.48535 -0.57468,2.42532c-0.00073,1.00803 -0.05716,1.81302 -0.83331,2.17468l-0.16669,0.7045l-0.03598,0.8595l-0.67999,0.51999" id="svg_44" stroke-width="2" stroke="#000" fill="none"/>
  <path t="108632,108759,108775,108783,108793,108793,108799,108799,108799,108808,108823,108831,108839,108847,108847,108855,108871,108887,108903,108943,108951,108969,108991,109007,109016,109023,109023,109031,109048,109064,109064,109072,109072,109080,109093,109093,109096,109112,109136,109136,109145,109160,109177,109207,109215,109233,109248,109248,109256,109274,109288,109312,109318,109346,109346,109378,109392,109392,109401,109419,109456,109464,109489,109514,109553,109570,109584,109592,109618,109632,109720,109736,109744,109776,109856,109888" d="m302.51135,228.09091c-1.69998,0 -2.48688,0.24809 -3.25464,0.716c-0.72021,0.43893 -1.54132,0.27866 -2.57867,0.284c-0.92001,0.00473 -1.67999,0 -2.72,0c-0.88266,0 -1.7532,-0.10696 -2.64667,0.00133c-0.91977,0.11148 -1.62418,0.43916 -2.36401,1.024c-0.67822,0.53613 -1.23734,0.974 -2.13599,0.97467c-0.89999,0.00067 -1.8425,-0.28525 -2.77917,0c-0.60529,0.18433 -1.05582,0.85034 -1.92084,1.01067c-0.83167,0.15414 -1.32516,0.87766 -2.10001,1.46851c-0.73889,0.56343 -1.61566,0.95311 -2,1.54166c-0.52164,0.79877 -1.03113,1.71457 -1.91064,1.94318c-0.88193,0.22923 -2.02124,-0.26567 -2.51733,0.46133c-0.48651,0.71294 -0.1698,1.82109 -0.87335,2.28932c-0.79929,0.53195 -1.68295,0.78008 -2.28265,1.36934c-0.62592,0.61504 -1.25067,1.41557 -2.01599,1.79466c-0.8468,0.41943 -1.59921,0.53351 -2.37918,1.12134c-0.65427,0.4931 -0.92432,1.43982 -1.71948,1.916c-0.69067,0.41359 -0.96802,1.25067 -1.50586,1.7885c-0.6955,0.6955 -1.21933,1.3895 -1.89548,1.8595c-0.80582,0.56012 -1.34143,1.1947 -2.10452,1.4315c-0.82178,0.25502 -1.50986,0.55351 -2.12881,1.17117c-0.61862,0.61734 -1.61894,0.50262 -2.08134,1.11867c-0.55074,0.73373 -0.69414,1.45003 -1.04933,2.14c-0.42485,0.82527 -0.55682,1.55382 -1.42532,1.58531l-0.61067,0.51019l-0.35266,0.77914l-0.52583,0.80002" id="svg_45" stroke-width="2" stroke="#000" fill="none"/>
 </g>
 <g display="none">
  <title>muse_image</title>
  <image xlink:href="http://farm4.static.flickr.com/3346/3314193918_4f35dfe87c.jpg" id="muse" height="480" width="320" y="0" x="160"/>
 </g>
 <g display="none">
  <title>bbox</title>
  <rect stroke="#f00" fill="none" stroke-width="3" height="448.32" width="205.98802" y="0.96" x="215.56886" id="bbox"/>
 </g>
</svg>
