<svg width="640" height="480" xmlns="http://www.w3.org/2000/svg" xmlns:svg="http://www.w3.org/2000/svg" xmlns:xlink="http://www.w3.org/1999/xlink">
 <!-- Sketchy ANNOTATION
  ImageNet ID: n02676566_7844
  URL: http://farm4.static.flickr.com/3388/3298944812_993b6c1c2c.jpg
  Image Width: 330
  Image Height: 500
  BBox X: 26
  BBox Y: 12
  BBox Width: 261
  BBox Height: 471
  Exposure: 2000ms
  Synset Label: guitar
  Synset ID: n03467517
  Worker Tag: a guitar
  Sanity Check: 
   Saved
  Comment: 
   {}
  Worker ID: AI16JQPI42EKR
  Assignment ID: 3YOH7BII097NIC28ZM16TBHLHI4KVM
  HIT ID: 3TX9T2ZCB91TZC35ZV4AD8TROJHZWJ
  Work Time: 216s
  Worker Score: 0.7857
 END ANNOTATION -->
 <g display="inline">
  <title>Layer 1</title>
  <path t="0,198,198,229,247,247,262,274,274,290,290,306,306,323,323,323,323,340,340,356,356,356,373,373,390,390,390,406,423,423,440,440,456,473,473,490,506,506,506,523,523,540,540,540,556,556,556,573,573,573,590,590,590,606,606,606,623,623,640,656,673,673,691,691,691,706,706,723,740,756,773,773,773,790,790,806,823,823,823,840,840,841,856,856,873,873,890,890,906,923,923,940,940,940,956,973,973,990,1006,1006,1023,1023,1040,1056,1056,1073,1073,1090,1090,1106,1106,1123,1140,1156,1156,1173,1173,1190,1190,1206,1206,1223,1223,1240,1240,1240,1260,1260,1273,1273,1290,1290,1306,1306,1323,1323,1340,1340,1340,1356,1356,1356,1373,1373,1390,1390,1406,1406,1406,1423,1423,1440,1440,1440,1456,1456,1473,1473,1490,1490,1490,1506,1506,1523,1523,1540,1540,1556,1556,1573,1573,1590,1590,1590,1606,1606,1623,1623,1640,1640,1640,1656,1656,1656,1673,1673,1690,1690,1690,1690,1706,1706,1706,1706,1723,1740,1740,1740,1740,1756,1756,1756,1756,1773,1773,1790,1790,1790,1808,1808,1808,1808,1824,1824,1840,1840,1840,1856,1856,1856,1873,1873,1873,1890,1890,1890,1906,1906,1906,1923,1923,1940,1940,1940,1956,1956,1956,1974,1974,1990,1990,1990,2006,2006,2006,2023,2023,2040,2040,2040,2056,2056,2056,2073,2090,2090,2106,2106,2106,2123,2123,2140,2140,2140,2156,2156,2156,2173,2173,2190,2190,2190,2190,2190,2206,2206,2206,2223,2223,2223,2240,2240,2240,2240,2258,2258,2258,2258,2273,2273,2290,2290,2290,2306,2306,2306,2323,2340,2341,2341,2341,2356,2356,2356,2373,2373,2373,2390,2390,2390,2406,2406,2406,2406,2423,2423,2440,2440,2440,2456,2456,2456,2473,2490,2490,2506,2506,2506,2523,2540,2541,2556,2556,2556,2573,2573,2590,2590,2590,2590,2606,2606,2606,2623,2623,2640,2640,2640,2640,2656,2656,2673,2673,2690,2690,2690,2706,2706,2706,2723,2723,2723,2740,2740,2756,2756,2756,2773,2773,2773,2790,2790,2806,2806,2806,2807,2824,2824,2824,2840,2840,2841,2856,2856,2857,2873,2890,2890,2890,2906,2906,2906,2923,2923,2940,2940,2940,2956,2956,2959,2973,2973,2990,2990,2991,2991,3008,3008,3008,3009,3009,3023,3024,3024,3024,3040,3041,3041,3041,3056,3056,3057,3057,3073,3073,3074,3090,3090,3091,3091,3091,3106,3106,3107,3107,3107,3123,3123,3124,3140,3140,3141,3141,3156,3156,3157,3157,3157,3173,3173,3174,3174,3190,3190,3191,3206,3207,3207,3207,3207,3223,3223,3224,3224,3224,3240,3240,3256,3256,3257,3257,3257,3273,3273,3274,3274,3290,3290,3291,3306,3307,3307,3307,3323,3323,3324,3324,3340,3340,3341,3341,3356,3356,3357,3357,3373,3374,3374,3374,3390,3391,3391,3406,3407,3423,3423,3424,3440,3440,3456,3457,3457,3457,3474,3474,3474,3474,3490,3491,3491,3506,3507,3507,3507,3523,3523,3524,3540,3540,3556,3556,3557,3573,3573,3574,3590,3590,3591,3606,3606,3623,3623,3640,3640,3641,3656,3656,3673,3673,3674,3690,3690,3691,3706,3707,3707,3707,3723,3723,3724,3740,3740,3741,3756,3756,3757,3757,3773,3773,3774,3774,3790,3790,3806,3806,3807,3824,3824,3840,3841,3856,3857,3857,3873,3874,3890,3890,3891,3906,3907,3923,3924,3924,3940,3940,3956,3956,3957,3973,3973,3974,4003,4003,4003,4021,4021,4021,4022,4039,4040,4041,4058,4058,4058,4076,4077,4104,4104,4104,4105,4105,4120,4120,4120,4120,4121,4129,4130,4130,4161,4161,4161,4162,4184,4184,4190,4191,4191,4191,4207,4207,4207,4223,4224,4224,4240,4241,4241,4256,4257,4257,4257,4257,4273,4274,4274,4274,4274,4290,4291,4291,4306,4307,4307,4307,4323,4324,4324,4324,4324,4340,4341,4356,4357,4357,4357,4374,4374,4374,4390,4391,4391,4406,4407,4423,4424,4444,4444,4456,4457,4474,4474,4491,4491,4506,4523,4524,4540,4556,4557,4557,4573,4574,4590,4591,4606,4607,4623,4624,4640,4641,4656,4657,4657,4673,4674,4674,4690,4691,4706,4707,4707,4723,4724,4740,4741,4756,4757,4773,4774,4774,4790,4791,4806,4824,4824,4824,4840,4841,4841,4856,4857,4873,4874,4893,4893,4906,4907,4907,4923,4924,4940,4941,4941,4956,4957,4973,4974,4974,4990,4991,5006,5007,5007,5023,5024,5040,5041,5041,5041,5056,5057,5073,5074,5074,5074,5090,5091,5106,5107,5123,5124,5124,5140,5156,5157,5157,5173,5174,5190,5191,5206,5207,5223,5224,5224,5240,5241,5256,5257,5257,5273,5274,5290,5306,5307,5323,5340,5341,5356,5373,5374,5390,5406,5407,5424,5440,5441,5456,5474,5491,5506,5523,5562,5562,5592,5632,5691,5706,5761,5772,5801,5831,5831,5861,5881,5911,5931,5941,5961,5973,5989,5990,6006,6023,6039,6056,6073,6090,6090,6106,6123,6124,6124,6139,6156,6157,6173,6174,6190,6206,6223,6239,6256,6257,6274,6290,6290,6306,6330,6330,6350,6350,6370,6390,6400,6430,6440,6461,6461,6480,6510,6520,6560" d="m329,208c-1,-1 -1.79999,-1 -2.63599,-1c-1.01669,0 -1.71133,0 -2.73868,0c-0.94684,0 -1.64618,0 -2.62534,0c-0.78934,0 -1.83334,0 -2.69733,0c-1.06683,0 -1.66516,0 -2.66266,0c-0.67334,0 -1.86935,0 -2.59836,0c-1.04166,0 -1.84164,0 -2.64166,0c-1.00449,0 -1.85715,0 -2.82117,0c-0.79349,0 -1.569,0 -2.60815,0c-0.97067,0 -1.72784,0 -2.62335,0c-0.86331,0 -1.84732,0 -2.66864,0c-0.85333,0 -1.79468,0 -2.84534,0c-0.66934,0 -1.43466,0 -2.43784,0c-0.85266,0 -1.81683,0 -2.62085,0c-0.82199,0 -1.85468,0.03279 -2.77466,-0.02083c-0.68585,-0.03998 -1.68402,-0.26836 -2.52084,-0.47917c-0.87912,-0.22147 -1.77823,-0.38596 -2.66849,-0.47467c-0.85284,-0.08499 -1.89401,-0.231 -2.57468,-0.45067c-0.84109,-0.27145 -1.83014,-0.54216 -2.57883,-0.57016c-1.02048,-0.03816 -1.96167,-0.0045 -2.82382,-0.0045c-0.85419,0 -1.83334,0 -2.63333,0c-0.80002,0 -1.7955,0 -2.54285,0c-1.02118,0 -1.95715,0 -2.85849,0c-0.96533,0 -1.63467,-0.00174 -2.39999,0c-0.99417,0.00226 -1.95966,-0.0117 -2.77335,0.436c-0.85187,0.4687 -1.45264,1.00673 -2.08701,1.20683c-1.19324,0.37637 -2.02704,0.29514 -2.76898,0.44116c-0.97885,0.19266 -1.62091,0.76984 -2.42651,1.2115c-0.72263,0.39618 -1.76637,0.5072 -2.47084,0.72983c-0.8756,0.2767 -1.42781,1.19991 -2.09332,1.57468c-0.76277,0.42955 -1.59132,0.76036 -2.29333,1.2c-0.88132,0.55194 -1.48438,1.20096 -2.08534,1.8c-0.69887,0.69662 -1.47078,1.09686 -2.09999,1.50983c-0.7094,0.46559 -1.10065,1.40706 -1.5955,2.133c-0.58409,0.85683 -0.76558,1.54745 -1.27249,2.24117c-0.53262,0.7289 -1.29874,1.46968 -1.423,2.26868c-0.13832,0.8894 -0.03276,1.7907 -0.43434,2.61133c-0.4263,0.87112 -0.57466,1.80267 -0.57466,2.46133c0,1.008 0,1.8 0,2.83183c0,0.74733 0,1.74283 0,2.54283c0,1 0,1.8 0,2.8c0,0.8 0,1.60001 0,2.60001c0,0.79999 0,1.79866 0,2.564c0,0.95334 0,1.80533 0,2.84134c0,0.74399 0,1.66133 0,2.49466c0,1.043 0,1.772 0,2.60899c0,1.19067 0,1.78201 0,2.619c0,1.12917 0,1.88667 0,2.93367c0,0.8 0,1.75951 0,2.55299c0,0.77551 0,1.81735 0,2.59067c0,0.96402 0,1.71552 0,2.51199c0,1.22552 0,1.87201 0,2.88269c0,0.79999 0,1.79999 0,2.59998c0,0.80002 0.12979,1.81738 -0.08533,2.71469c-0.21883,0.91278 -0.76773,1.43152 -1.21017,2.49066c-0.30489,0.72983 -0.51563,1.6662 -0.7045,2.47382c-0.19833,0.84808 -0.51402,1.54504 -1,2.52084c-0.39449,0.79211 -0.77577,1.5318 -1.3,2.24734c-0.47842,0.65302 -1.00893,1.40512 -1.39999,2.15717c-0.5145,0.98941 -0.79402,1.6326 -1.27068,2.1955c-0.72931,0.86124 -1.52957,1.37881 -2.02399,1.74283c-0.86308,0.63541 -1.5105,1.17276 -2.33867,1.99051c-0.43875,0.43323 -0.92802,0.92798 -1.71851,1.71848c-0.78151,0.78152 -1.24721,1.27527 -1.90649,1.88568c-0.54352,0.5032 -1.4743,0.94684 -2.375,1.5625c-0.46486,0.31775 -1.20332,1.04724 -1.77567,1.55634c-0.88335,0.78571 -1.47792,1.27011 -2.06967,1.68634c-0.79352,0.55817 -1.68785,0.99094 -2.472,1.30798c-0.90356,0.36533 -1.61975,0.80811 -2.13467,1.17068c-1.0675,0.75168 -1.52783,1.17905 -2.19383,1.75781c-0.6181,0.53714 -1.38301,1.2113 -2.22083,1.57419c-0.96516,0.41803 -1.62991,0.35684 -2.48534,0.616c-1.02959,0.31192 -1.54286,0.68723 -2.362,1.1825c-0.78879,0.47693 -1.71381,1.0177 -2.34816,1.34366c-0.80112,0.41165 -1.63237,0.81281 -2.28984,1.18985c-1.00847,0.57831 -1.51637,0.95114 -2.30484,1.40482c-0.85362,0.49115 -1.79271,0.76416 -2.49649,1.28052c-0.5869,0.4306 -1.18713,1.04816 -1.93451,1.62915c-0.78043,0.60669 -1.33229,0.94412 -2.2455,1.63351c-0.6834,0.5159 -1.49387,1.17697 -2.17999,1.57733c-0.6097,0.35574 -1.58063,0.90094 -2.097,1.242c-0.76863,0.50769 -1.58586,1.16132 -2.09633,1.97266c-0.42836,0.68085 -0.99675,1.4003 -1.56267,1.97598c-0.78918,0.8028 -1.33804,1.40475 -1.912,1.828c-0.80153,0.59103 -1.59137,1.00961 -2.00616,1.61234c-0.65515,0.952 -1.1217,1.56329 -1.65384,2.12234c-0.78906,0.82898 -1.35196,1.30219 -1.92551,2.15765c-0.33968,0.50662 -0.77753,1.3696 -1.22099,2.09952c-0.4852,0.79858 -1.0202,1.5433 -1.43634,2.43634c-0.3768,0.80862 -0.73531,1.64713 -1.09583,2.19714c-0.42493,0.64825 -0.92409,1.33023 -1.38,2.064c-0.64883,1.04428 -0.95268,1.71503 -1.34532,2.59869c-0.42172,0.94913 -0.87172,1.61591 -1.22134,2.336c-0.47171,0.97153 -0.60681,1.65588 -0.836,2.37866c-0.24521,0.77332 -0.67679,1.97104 -1.01216,2.75449c-0.32298,0.75449 -0.69856,1.41983 -1.10901,2.54916c-0.25824,0.71054 -0.4585,1.58844 -0.76366,2.306c-0.27527,0.64728 -0.6918,1.63623 -0.95834,2.4375c-0.24858,0.74725 -0.45628,1.87866 -0.6875,2.85419c-0.16309,0.68808 -0.44289,1.48834 -0.63466,2.06934c-0.39503,1.19675 -0.6945,2.0719 -0.84151,2.64017c-0.26605,1.02844 -0.34563,1.95694 -0.35583,2.64114c-0.01495,1.00256 -0.00133,1.85767 -0.00133,2.80267c0,1.03433 0,1.75699 0,2.47168c0,0.987 0,2.17917 0,2.8425c0,0.96982 0,1.74081 0,2.60184c0,1.19464 0,1.776 0,2.82666c0,0.96082 0,1.93732 0,2.60666c0,1.164 0,1.95334 0,2.67868c0,0.98532 -0.0919,1.98602 0.07201,2.69598c0.23766,1.02942 0.82315,1.55884 1.22266,2.18933c0.60825,0.95993 0.68622,1.86011 1.03867,2.76666c0.31581,0.81232 0.68858,1.33267 1.18401,2.14935c0.46217,0.76187 0.965,1.66153 1.28133,2.28265c0.51096,1.00323 0.82288,1.64572 1.36801,2.56799c0.30789,0.5209 0.84845,1.29205 1.26399,2.064c0.50426,0.93677 0.58565,1.68005 1.01601,2.60535c0.27411,0.58932 1.02797,1.5737 1.57416,2.164c0.37642,0.40683 1.18852,1.1908 1.76851,1.79999c0.56288,0.59122 1.21744,1.38303 1.68983,2.20001c0.34027,0.58847 0.79691,1.61661 1.15683,2.20001c0.63654,1.03174 1.20389,1.58762 1.71133,2.19998c0.65019,0.78464 1.02873,1.39355 1.45132,2.20001c0.41599,0.79382 0.81482,1.65222 1.53467,2.39999c0.62479,0.64902 1.19069,0.97183 1.89867,1.60001c0.64815,0.5751 1.23123,1.41104 1.65067,2c0.58101,0.81586 1.13324,1.40482 1.71867,2c0.79073,0.80389 1.3382,1.40765 1.91333,1.82932c0.81052,0.59421 1.82036,0.99796 2.32133,1.44269c0.58482,0.51917 1.35385,1.33801 1.95334,1.90665c0.5446,0.51657 1.47742,1.07965 2.17999,1.38934c0.81955,0.36124 1.56108,0.86017 2.0825,1.241c1.04643,0.76428 1.49583,1.17657 2.1015,1.755c0.83864,0.80093 1.33154,1.37604 2.17999,1.836c0.66104,0.35837 1.53375,0.65222 2.15468,0.97067c1.05106,0.53906 1.76775,1.03687 2.53282,1.52933c0.38911,0.25046 1.15445,0.78473 2.37885,1.35699c0.77626,0.36279 1.55814,0.60297 2.286,0.83401c0.98032,0.31119 1.80984,0.61874 2.601,0.909c0.56415,0.20697 1.9632,0.60211 2.36684,0.6955c0.82408,0.19067 1.62941,0.35837 2.96117,0.58334c0.88412,0.14935 1.52608,0.27615 2.37132,0.564c0.74709,0.25439 1.59521,0.58408 2.53201,0.909c0.48625,0.16864 1.97995,0.63232 2.478,0.76151c0.96912,0.25137 1.89461,0.44748 2.3325,0.52499c1.50282,0.26605 2.1086,0.27509 3.11516,0.41434c0.98329,0.13605 1.81627,0.38605 2.439,0.59399c0.69234,0.2312 1.85927,0.67645 2.72267,1.0015c0.44495,0.16751 1.33577,0.51672 2.22667,0.7825c1.21483,0.3624 1.95163,0.47729 2.62633,0.52768c0.93721,0.07001 2.14301,0.04166 2.75233,0.04166c0.9465,0 1.95607,-0.00751 2.67601,0.00266c0.76015,0.01074 1.5649,0.03406 2.39999,0.168c1.34444,0.21561 2.25395,0.53018 2.70667,0.68002c0.87624,0.29001 1.64523,0.65341 2.87067,0.97867c0.62723,0.16647 1.80269,0.16736 2.476,0.172c0.79337,0.00546 1.66766,0.01874 2.58002,0.08398c0.91461,0.0654 1.79358,0.18958 2.62265,0.34c0.77625,0.14084 2.12149,0.42776 2.68933,0.48935c1.01544,0.11011 2.10135,0.08533 2.73734,0.08533c0.69202,0 1.7825,0 2.86401,0c0.68134,0 1.64581,0 2.26215,0c1.20468,0 2.11517,0 2.74051,0c0.64932,0 2.04935,0 2.79999,0c0.77469,0 1.56534,0 2.76367,0c0.79135,0 1.55869,0 2.28601,0c1.27133,0 2.04233,0 2.91165,0c1.00717,0 1.85983,0 2.82385,0c0.79349,0 1.56961,0.03439 2.61215,-0.00134c0.83057,-0.02847 1.7326,-0.21396 2.67468,-0.43466c0.72513,-0.16989 1.4964,-0.36368 2.69165,-0.664c0.79163,-0.19891 1.56158,-0.38968 2.28601,-0.60001c0.98514,-0.28601 1.80527,-0.59811 2.52899,-0.89999c0.95303,-0.39755 1.74625,-0.68472 2.56,-1.03598c0.54721,-0.23621 1.53708,-0.85065 2.2045,-1.34317c0.61682,-0.45517 1.62405,-0.89551 2.42084,-1.069c1.0058,-0.21899 1.63153,-0.47366 2.28534,-0.8385c1.01617,-0.56705 1.53574,-0.94547 2.362,-1.46066c1.02579,-0.63962 1.71878,-0.99506 2.29102,-1.34818c0.93112,-0.57462 1.54599,-1.18951 2.14566,-1.78851c0.51627,-0.51572 1.34933,-1.34933 1.89066,-1.89066c0.50934,-0.50934 1.29504,-1.26694 1.79999,-1.836c0.68234,-0.76898 1.05103,-1.40344 1.578,-2.18933c0.54678,-0.8154 1.09082,-1.40417 1.65186,-2.05716c0.60364,-0.70258 1.20242,-1.49237 1.57465,-2.06369c0.3754,-0.5762 1.01071,-1.77408 1.26367,-2.37466c0.36295,-0.86176 0.75046,-1.9407 1.05716,-2.65182c0.29361,-0.68082 0.71146,-1.61508 1,-2.41434c0.20831,-0.57706 0.50919,-1.52237 0.79984,-2.55933c0.20206,-0.72089 0.39703,-1.43329 0.61484,-2.42435c0.21921,-0.99756 0.30527,-1.86395 0.57068,-2.82401c0.20984,-0.75906 0.50079,-1.55417 0.91333,-2.54398c0.2706,-0.64923 0.73132,-1.65912 0.79065,-2.34802c0.09506,-1.10397 -0.01447,-1.86456 0.09601,-2.65598c0.14059,-1.00717 0.49405,-1.63925 0.74802,-2.68268c0.19168,-0.7876 0.13724,-1.60056 0.17114,-2.60449c0.02884,-0.85379 0.20609,-1.81952 0.42084,-2.61017c0.21146,-0.77847 0.52792,-1.8143 0.57019,-2.59067c0.05249,-0.96393 0.00449,-1.73633 0.00449,-2.59735c0,-0.89716 0,-1.78665 0,-2.64017c0,-1.03598 0,-1.74249 0,-2.7265c0,-0.87347 0,-1.892 0,-2.616c0,-0.73199 0,-1.793 0,-2.76797c0,-0.88501 0,-1.92517 0,-2.61069c0,-0.83466 0,-1.84949 0,-2.54401c0,-1.19199 -0.00586,-1.94678 0.01068,-2.78931c0.01764,-0.89886 0.00989,-1.3624 0.15598,-2.73602c0.0939,-0.88281 0.25894,-1.71994 0.40802,-2.51999c0.1416,-0.75995 0.31201,-1.8244 0.39999,-2.81067c0.05576,-0.62491 0.1709,-1.84058 0.31067,-2.43332c0.20486,-0.86884 0.52466,-1.62769 1.01016,-2.60635c0.35367,-0.71289 0.59842,-1.78046 0.64734,-2.50699c0.05307,-0.78839 0.04907,-1.5787 0.05716,-2.62268c0.00739,-0.95468 0.07333,-1.71976 0.284,-2.72c0.13373,-0.63498 0.38947,-1.64114 0.54935,-2.61331c0.13635,-0.82916 0.16672,-1.6232 0.33331,-2.83334c0.10422,-0.75702 0.27435,-1.59857 0.375,-2.04166c0.20837,-0.91739 0.61728,-2.29446 0.77966,-2.73651c0.31641,-0.8613 0.67081,-1.66306 1.026,-2.40298c0.47552,-0.9906 0.93655,-1.79089 1.20602,-2.53351c0.3385,-0.9328 0.37018,-1.75714 0.54398,-2.668c0.13251,-0.69452 0.55215,-1.86652 0.96069,-2.71368c0.21057,-0.43665 0.67493,-1.27621 1.09,-2.065c0.49863,-0.94754 0.79605,-1.83066 1.18533,-2.83865c0.21671,-0.56119 0.52399,-1.1886 0.85199,-1.85999c0.64023,-1.31049 0.92932,-1.86935 1.29382,-2.59836c0.52084,-1.04166 0.78607,-1.6568 1.22086,-2.38449c0.5567,-0.93176 1.121,-1.52789 1.59998,-2.30984c0.4187,-0.68353 0.96399,-1.63467 1.45718,-2.04282c0.83432,-0.69046 1.65143,-0.99982 2.22131,-1.62582c0.56775,-0.62366 1.08856,-1.46637 1.58551,-2.26801c0.47882,-0.77237 0.69693,-1.63257 1.23734,-2.21066c0.58398,-0.62473 1.37466,-1.18542 2.02402,-1.61069c0.70108,-0.45914 1.38638,-1.26935 1.92731,-1.93665c0.53491,-0.65988 1.22464,-1.16837 2.22601,-1.53152c0.75934,-0.27539 1.49042,-0.70737 2.19598,-1.27048c0.78787,-0.62878 1.50015,-0.82715 2.31067,-1.42136c0.57516,-0.42166 1.10376,-1.04449 1.91467,-1.82666c0.59122,-0.57025 1.1626,-1.12271 2.20001,-1.49731c0.77811,-0.28098 1.62552,-0.51419 2.18933,-0.96667c0.76273,-0.61212 1.42075,-1.42734 2.09467,-1.93735c0.73178,-0.55377 1.50021,-0.84888 2.23199,-1.40265c0.67392,-0.51001 1.35907,-1.29355 1.90485,-1.79868c0.57001,-0.52756 1.42065,-1.05276 2.10715,-1.58932c0.82608,-0.64563 1.18576,-1.5932 1.58633,-2.06784c0.48413,-0.57364 1.27841,-1.35025 1.88116,-1.93384c0.56183,-0.54398 1.48083,-1.01166 2.20319,-1.577c0.7291,-0.57062 1.00186,-1.43439 1.40134,-2.23199c0.40054,-0.79974 0.76114,-1.62146 1.21066,-2.38934c0.43793,-0.74811 1.10959,-1.28488 1.76398,-1.87201c0.70038,-0.62842 1.06964,-1.34332 1.41467,-2.08798c0.51285,-1.10684 0.94965,-1.7034 1.51068,-2.57217c0.32309,-0.50031 0.70023,-1.27969 1.19998,-2.2785c0.30017,-0.59995 0.80002,-1.60001 1.10001,-2.19998c0.39999,-0.80002 0.91193,-1.79898 1.20001,-2.436c0.41742,-0.92297 0.69839,-1.71725 1,-2.53867c0.19891,-0.54175 0.70502,-1.77048 1,-2.45068c0.40695,-0.93832 0.69839,-1.72791 1,-2.54932c0.19891,-0.54175 0.64014,-1.5238 0.96399,-2.41467c0.36163,-0.99478 0.41882,-1.81059 0.436,-2.81067c0.01358,-0.78929 0.01947,-1.54417 0.436,-2.38533c0.4895,-0.98853 0.8822,-1.6122 1.12799,-2.364c0.29709,-0.90874 0.40329,-1.86592 0.43735,-2.73466c0.03391,-0.86449 0.37875,-1.75421 0.70316,-2.32584c0.53268,-0.93866 0.81003,-1.70139 1.01016,-2.50751c0.24515,-0.98747 0.25427,-1.88388 0.452,-2.68266c0.20203,-0.81615 0.59351,-1.59077 0.78067,-2.5955c0.13821,-0.74196 0.63327,-1.69315 0.93118,-2.50467c0.27371,-0.74564 0.12149,-1.72516 0.12149,-2.73315c0,-0.75601 0,-1.6875 0,-2.65067c0,-0.69067 0,-1.63068 0,-2.61618c0,-0.78516 0,-1.72516 0,-2.73315c0,-0.75601 0,-1.66667 0,-2.56667c0,-0.90001 0,-1.8 0,-2.70001c0,-0.89999 0.01874,-1.7002 0,-2.59999c-0.01801,-0.86456 -0.703,-1.35533 -1.5,-1.8c-0.79849,-0.44551 -1.70001,-0.5 -2.60001,-0.5c-0.89999,0 -1.69998,0 -2.60001,0c-0.89999,0 -1.79999,0 -2.69998,0c-0.89999,0 -1.80002,0 -2.70001,0c-0.89999,0 -1.69998,0 -2.60001,0c-0.89999,0 -1.79999,-0.00224 -2.69998,0c-0.89999,0.00226 -1.63895,0.32169 -2.39999,0.716c-0.82153,0.42566 -1.74365,0.50198 -2.45068,0.70934c-0.74503,0.21849 -1.9335,0.54607 -2.74933,0.57466c-0.8848,0.03102 -1.82535,0 -2.51599,0c-1.07333,0 -1.884,-0.00066 -2.784,0c-0.90002,0.00067 -1.7341,0.33119 -2.5,0.716c-0.78592,0.39488 -1.68402,0.28183 -2.54733,0.284c-0.89551,0.00226 -1.80109,0.38216 -2.53802,0.716c-0.72885,0.3302 -1.63065,0.28333 -2.59381,0.284c-0.92084,0.00064 -1.82083,0 -2.72086,0c-0.89999,0 -1.79999,0 -2.59998,0c-0.90002,0 -1.80002,0 -2.70001,0l-0.89999,0" id="svg_1" stroke-width="2" stroke="#000" fill="none"/>
  <path t="7323,7524,7524,7560,7578,7588,7598,7618,7618,7638,7638,7658,7668,7678,7697,7697,7707,7707,7723,7739,7756,7756,7773,7773,7789,7789,7806,7806,7806,7824,7824,7839,7839,7856,7856,7856,7873,7873,7889,7889,7889,7907,7907,7936,7936,7936,7944,7944,7944,7961,7961,7974,7974,7990,7990,7990,8008,8008,8028,8028,8039,8039,8056,8057,8073,8089,8106,8106,8106,8123,8139,8139,8156,8156,8156,8173,8173,8189,8189,8206,8226,8226,8246,8256,8256,8273,8306,8316,8317,8346,8346,8366,8376,8396,8416,8416,8426,8426,8439,8456,8474,8474,8489,8506,8507,8507,8523,8523,8523,8539,8539,8556,8557,8557,8573,8573,8573,8589,8589,8606,8606,8623,8623,8639,8639,8666,8666,8666,8675,8675,8689,8689,8706,8723,8723,8739,8756,8785,8785,8785,8805,8805,8825,8835,8845,8845,8865,8885,8885,8895,8906,8923,8939,8956,8956,8973,8973,8989,8989,9006,9025,9025,9045,9045,9056,9056,9073,9089,9106,9106,9125,9145,9145,9185,9205,9205,9234,9277,9315,9335,9355,9385,9427,9427" d="m286,311c-1,-1.16666 -1.5372,-1.74695 -2.39999,-1.96399c-0.8735,-0.21973 -1.80002,-0.03601 -2.70001,-0.03601c-0.89999,0 -1.78534,0 -2.72534,0c-0.69064,0 -1.76398,0 -2.57465,0c-0.90451,0 -1.92133,0 -2.60001,0c-0.97849,0 -1.79868,0 -2.70001,0c-0.93597,0 -1.79303,-0.07419 -2.7045,0.05716c-1.00958,0.14551 -1.60822,0.4093 -2.57431,1.04285c-0.56332,0.36942 -1.34091,0.93375 -2.27185,1.28934c-0.73425,0.28046 -1.61972,0.43164 -2.4975,0.66333c-0.92691,0.24466 -1.6568,0.65094 -2.45184,1.04733c-0.80045,0.39908 -1.41977,0.66275 -2.39549,1.2045c-0.76389,0.42413 -1.403,1.00262 -1.9045,1.71634c-0.40015,0.56946 -0.98866,1.37515 -1.5,1.97916c-0.84106,0.9935 -1.25845,1.59125 -1.58934,2.20001c-0.53618,0.98648 -0.86357,1.57697 -1.12532,2.39999c-0.30983,0.97424 -0.29468,1.94873 -0.72134,2.78534c-0.31296,0.61365 -0.78905,1.37466 -1.04317,2.1355c-0.26312,0.78778 -0.48349,2.02087 -0.51016,2.66849c-0.04161,1.00989 -0.01067,1.81067 -0.01067,2.81067c0,0.78934 0,1.83334 0,2.6955c0,0.90451 -0.00537,1.72586 0,2.63785c0.00534,0.90671 -0.18405,1.7366 0.436,2.57999c0.50319,0.68445 1.16862,1.33035 1.73067,2.08667c0.45676,0.61465 1.05699,1.10748 1.66533,2.11465c0.39401,0.65234 1.04478,1.26105 1.68533,1.68533c0.85789,0.56827 1.42052,1.29337 1.48134,2.08536c0.07198,0.93726 -0.34492,2.05405 0.05849,2.75299c0.39763,0.6889 1.16264,1.25314 2.043,1.36182c0.78384,0.09674 1.53049,0.4101 2.41583,0.71585c0.94376,0.32593 1.784,0.284 2.68533,0.284c0.96533,0 1.79868,0 2.77716,0c0.71701,0 1.62152,0 2.54236,0c0.96317,0 1.65381,0 2.7265,0c0.91931,0 1.60461,0.03464 2.43933,-0.08533c1.00528,-0.1445 1.78687,-0.4353 2.54398,-0.63068c1.12183,-0.28946 1.82635,-0.35062 2.82269,-0.56934c0.63586,-0.13959 1.65375,-0.39429 2.61331,-0.71466c0.82187,-0.27438 1.45212,-0.63895 2.45068,-0.91599c0.83679,-0.23218 1.66046,-0.34085 2.38266,-0.60486c1.18454,-0.43304 1.77261,-0.96945 2.60034,-1.358c0.67929,-0.31888 1.67343,-0.68118 2.15033,-0.98248c0.75336,-0.47598 1.62952,-1.09076 2.328,-1.728c0.64362,-0.58719 1.22137,-1.2106 1.92133,-1.91068c0.59988,-0.59998 1.11288,-1.21335 1.52533,-2.10001c0.38327,-0.82397 1.01721,-1.54364 1.36401,-2.23599c0.37244,-0.74353 0.57819,-1.75815 0.60617,-2.50684c0.03815,-1.02048 0.00449,-1.85718 0.00449,-2.75732c0,-0.78519 0,-1.72519 0,-2.73318c0,-0.75598 0,-1.66666 0,-2.56665c0,-0.89999 0,-1.80133 0,-2.76666c0,-0.83334 0,-1.66669 0,-2.586c0,-0.90002 0.15433,-1.60809 -0.01068,-2.61136c-0.14294,-0.86911 -0.76459,-1.50714 -0.96399,-2.47198c-0.15646,-0.75708 -0.26825,-1.82507 -0.72983,-2.44968c-0.56238,-0.76102 -1.26212,-1.25635 -1.29684,-2.19833c-0.02548,-0.69104 -0.39813,-1.5687 -0.832,-2.51599c-0.30545,-0.66693 -0.70844,-1.48032 -1.36533,-2.20001c-0.53348,-0.5845 -0.84415,-1.45892 -1.50583,-1.85266c-0.7843,-0.46671 -1.59549,-0.89017 -2.49551,-0.94733l-0.89999,0l-0.89999,0l-0.75717,-0.05716" id="svg_2" stroke-width="2" stroke="#000" fill="none"/>
  <path t="10421,10523,10523,10563,10592,10592,10592,10607,10607,10607,10607,10624,10624,10624,10624,10640,10640,10640,10657,10657,10657,10674,10674,10674,10690,10690,10690,10707,10707,10707,10707,10724,10724,10724,10740,10740,10740,10740,10757,10757,10757,10774,10774,10774,10790,10790,10790,10790,10790,10807,10807,10807,10824,10824,10824,10824,10824,10840,10840,10840,10857,10857,10874,10874,10874,10874,10874,10890,10890,10890,10890,10890,10907,10907,10907,10907,10924,10924,10924,10924,10940,10940,10940,10940,10956,10956,10956,10956,10973,10973,10973,10973,10989,10989,10989,10989,10990,11006,11006,11006,11023,11023,11023,11039,11039,11039,11056,11056,11073,11073,11074,11074,11089,11089,11106,11106,11123,11123,11123,11139,11139,11156,11156,11156,11173,11174,11174,11174,11174,11189,11190,11190,11190,11206,11206,11206,11223,11223,11223,11223,11223,11239,11239,11239,11239,11256,11256,11256,11256,11273,11273,11273,11273,11289,11289,11289,11289,11306,11306,11306,11306,11323,11323,11323,11339,11339,11339,11339,11339,11340,11356,11356,11373,11373,11373,11373,11374,11374,11374,11389,11390,11390,11390,11390,11390,11406,11406,11406,11407,11423,11423,11423,11423,11424,11424,11424,11439,11440,11440,11440,11440,11440,11473,11474,11474,11474,11474,11506,11506,11506,11506,11507,11507,11507,11507,11507,11539,11539,11539,11540,11540,11540,11540,11540,11540,11573,11573,11573,11573,11574,11574,11574,11574,11574,11606,11606,11606,11607,11607,11607,11607,11607,11607,11639,11639,11639,11640,11640,11640,11640,11640,11640,11673,11673,11673,11674,11674,11674,11674,11674,11674,11706,11706,11706,11707,11707,11707,11707,11707,11707,11739,11739,11740,11740,11740,11740,11740,11740,11773,11773,11773,11806,11806,11806,11839,11839,11840,11840,11987,12003" d="m272,308c0.05716,-1.70001 0.52206,-2.47714 1.29999,-2.95184c0.80179,-0.48926 1.2319,-1.13605 1.75601,-1.73615c0.67053,-0.76776 1.302,-1.26468 1.944,-1.81201c0.642,-0.54733 1.52512,-1.31134 1.94534,-1.81601c0.54709,-0.65704 0.92593,-1.37411 1.53867,-2.36798c0.33585,-0.54477 0.87656,-1.35535 1.49466,-2.3945c0.40472,-0.68039 0.74423,-1.33887 1.34265,-2.12167c0.4808,-0.62897 1.08075,-1.2233 1.65735,-2.22116c0.29788,-0.51553 0.58981,-1.38437 1.18799,-2.41202c0.29059,-0.49924 0.87082,-1.13992 1.34933,-1.85065c0.65158,-0.96774 0.86465,-1.54584 1.1795,-2.4205c0.4274,-1.18741 0.58286,-1.80145 0.94049,-2.65952c0.23257,-0.55795 0.84802,-1.552 1.36401,-2.23599c0.51599,-0.68399 1.00015,-1.41168 1.37466,-2.24667c0.26611,-0.59332 0.78046,-1.92523 1.11066,-2.63467c0.33893,-0.72824 0.69315,-1.44205 1.116,-2.064c0.55768,-0.82028 1.23706,-1.35208 1.79868,-1.96982c0.64688,-0.71155 1.01416,-1.41458 1.38934,-2.19684c0.39093,-0.81506 0.71237,-1.64297 1.18915,-2.72333c0.37537,-0.85056 0.67426,-1.52319 1.22418,-2.28333c0.43671,-0.60367 1.13373,-1.37897 1.56799,-1.93735c0.50491,-0.64923 1.0513,-1.37552 1.63202,-2.14801c0.59799,-0.79547 1.19547,-1.59271 1.48831,-1.987c0.56897,-0.76611 1.11786,-1.47896 1.77567,-2.47566c0.53827,-0.8156 0.82669,-1.31882 1.13068,-2.10133c0.45911,-1.18181 0.60449,-1.90038 0.87466,-2.61732c0.27878,-0.73982 0.85339,-1.80553 1.33334,-2.4575c0.47781,-0.64909 1.03241,-1.2222 1.66132,-2.15717c0.39169,-0.58231 0.80527,-1.5033 1.08151,-2.10001c0.55878,-1.207 0.90607,-1.80623 1.27267,-2.42082c0.38065,-0.63815 0.98557,-1.64232 1.37784,-2.36183c0.39719,-0.7285 0.76672,-1.45529 1.116,-2.14801c0.60376,-1.19745 0.95386,-1.94765 1.36932,-2.56667c0.55908,-0.83299 1.15665,-1.39383 1.63199,-2.088c0.65723,-0.95976 0.82947,-1.53752 1.1795,-2.30484c0.48065,-1.05368 0.95752,-1.64766 1.62582,-2.55266c0.34015,-0.46063 0.86115,-1.23758 1.19467,-1.77451c0.61316,-0.98714 1.04141,-1.85661 1.58401,-2.6615c0.4729,-0.70154 1.0062,-1.56123 1.29999,-2.27184c0.30649,-0.74133 0.70526,-1.60342 1.10001,-2.24933c0.50677,-0.82922 0.79111,-1.51996 1.13599,-2.32133c0.51099,-1.18733 0.84399,-1.7831 1.20001,-2.38933c0.36917,-0.6286 0.77859,-1.26712 1.36383,-2.3105c0.40491,-0.72189 0.78214,-1.45659 1.14301,-2.16901c0.64063,-1.26466 0.9256,-1.79327 1.24649,-2.5605c0.44681,-1.06825 0.6113,-1.72021 0.82135,-2.42133c0.22455,-0.74956 0.44763,-1.54086 0.91064,-2.72783c0.31323,-0.80298 0.68158,-1.57803 1.026,-2.343c0.49014,-1.08865 0.7666,-1.77266 1.02734,-2.42117c0.375,-0.93271 0.78293,-1.84093 1.27802,-2.74049c0.34109,-0.6198 0.73166,-1.23567 1.18066,-2.26218c0.3085,-0.70525 0.52197,-1.455 0.79199,-2.172c0.50543,-1.34207 0.86298,-1.88828 1.35382,-2.6405c0.45679,-0.70007 0.85739,-1.70813 0.98083,-2.27817c0.20795,-0.96033 0.52109,-2.08424 0.892,-2.90799c0.19614,-0.43559 0.64703,-1.29352 1.09,-2.11501c0.20557,-0.38124 0.80191,-1.58653 1.134,-2.457c0.41888,-1.09796 0.58429,-1.47188 0.991,-2.34399c0.22809,-0.48907 0.72974,-1.53566 0.98935,-2.084c0.26306,-0.55565 1.02359,-2.2122 1.25833,-2.74667c0.45212,-1.02945 0.65921,-1.52785 1.08084,-2.46916c0.20065,-0.44797 0.80023,-1.67865 1.2045,-2.418c0.39584,-0.72395 0.82764,-1.4503 1.39999,-2.70084c0.21045,-0.45978 0.6051,-1.46675 0.81067,-1.99733c0.21082,-0.5441 0.64026,-1.66156 0.87466,-2.22134c0.46893,-1.11992 0.99414,-2.19426 1.25833,-2.71516c0.25854,-0.50975 0.78299,-1.47221 1.20166,-2.39417c0.3765,-0.8291 0.60547,-1.61232 0.81067,-2.38533c0.22662,-0.8537 0.52411,-1.87798 1.04401,-3.12c0.31192,-0.74516 0.70361,-1.54617 1.12949,-2.40601c0.44989,-0.90831 0.93228,-1.84438 1.42651,-2.802c0.49878,-0.96638 1.00644,-1.92273 1.944,-3.79199c0.44058,-0.8784 0.84793,-1.72545 1.233,-2.54251c0.37216,-0.78966 0.72592,-1.5614 1.07098,-2.31749c0.34027,-0.74557 0.67175,-1.48924 1.36267,-2.97334c0.35217,-0.75648 0.71851,-1.52205 1.095,-2.29949c0.38348,-0.7919 0.77917,-1.59675 1.185,-2.4165c0.41415,-0.83659 0.83978,-1.68943 1.72,-3.45067c0.45441,-0.90922 0.9166,-1.83304 1.3815,-2.76749c0.4671,-0.93888 0.93225,-1.87772 1.3905,-2.8125c0.45276,-0.92356 0.89883,-1.83009 1.728,-3.58667c0.39343,-0.83347 0.76279,-1.63935 1.1145,-2.415c0.33755,-0.74438 0.65662,-1.45988 0.96152,-2.145c0.29144,-0.65488 0.56552,-1.28172 1.09067,-2.44c0.24338,-0.5368 0.48193,-1.04771 0.7095,-1.542c0.22177,-0.48172 0.43909,-0.95679 0.64648,-1.434c0.20898,-0.4808 0.4223,-0.97113 0.81067,-2.024c0.20712,-0.56149 0.40176,-1.15186 0.60449,-1.758c0.20663,-0.61784 0.41272,-1.24326 0.6315,-1.866c0.21756,-0.61927 0.42175,-1.23592 0.93066,-2.376c0.24155,-0.54114 0.50967,-1.04491 0.78152,-1.5195c0.26044,-0.45467 0.52737,-0.8787 0.7905,-1.2765c0.48535,-0.73375 1.14575,-1.64528 1.58932,-2.44267c0.38742,-0.69646 0.77933,-1.68017 1.07199,-2.49733c0.20517,-0.57285 0.60184,-1.76339 0.79868,-2.36134c0.28314,-0.86013 0.51599,-1.632 0.776,-2.73067l0.31067,-0.86933" id="svg_3" stroke-width="2" stroke="#000" fill="none"/>
  <path t="12758,12900,12916,12916,12916,12940,12940,12957,12957,12957,12957,12974,12974,12990,12990,12990,12990,12990,13007,13007,13007,13007,13007,13007,13025,13025,13025,13025,13040,13040,13040,13040,13040,13040,13057,13057,13057,13057,13057,13057,13074,13074,13074,13090,13090,13090,13090,13090,13090,13107,13107,13107,13107,13107,13107,13124,13124,13124,13124,13140,13140,13140,13140,13140,13140,13157,13157,13157,13157,13157,13174,13174,13174,13174,13190,13190,13190,13190,13190,13207,13207,13207,13207,13207,13224,13224,13224,13240,13240,13240,13240,13240,13257,13257,13257,13257,13274,13274,13274,13290,13290,13290,13307,13307,13307,13307,13324,13324,13340,13340,13340,13340,13357,13357,13357,13374,13374,13390,13390,13390,13407,13407,13407,13407,13424,13424,13424,13440,13440,13440,13440,13457,13457,13457,13457,13474,13474,13474,13474,13490,13490,13490,13490,13507,13507,13507,13507,13523,13523,13523,13539,13539,13540,13540,13540,13556,13556,13557,13557,13557,13573,13573,13573,13573,13589,13589,13589,13589,13589,13589,13606,13606,13606,13606,13606,13607,13623,13623,13623,13623,13623,13639,13639,13639,13639,13639,13640,13656,13656,13656,13656,13656,13673,13673,13673,13673,13674,13689,13689,13689,13689,13689,13689,13706,13706,13706,13706,13706,13706,13706,13723,13723,13723,13723,13723,13739,13739,13739,13739,13739,13739,13756,13756,13756,13756,13756,13756,13773,13773,13773,13773,13789,13789,13789,13789,13789,13806,13806,13806,13806,13806,13823,13824,13824,13839,13839,13839,13856,13856,13856,13873,13873,13889,13889,13906,13906,13923,13923,13939,13956,13956,13973,13989,13989,14006,14023,14039,14056,14056,14056,14073,14073,14089,14089,14106,14106,14106,14123,14123,14139,14634,14695,14696,14744,14764,14784,14804,14804,14834,14834,14844,14844,14856,14872,14889,14889,14906,14906,14922,14922,14922,14939,14939,14939,14956,14956,14956,14956,14972,14972,14972,14972,14989,14989,15006,15006,15022,15022,15039,15039,15056,15072,15072,15089,15089,15106,15106,15122,15139,15139,15156,15156,15193,15193,15253,15293,15323,15323,15333,15356,15389,15423,15423,15423,15456,15456,15457,15490,15490,15490,15490,15523,15523,15523,15556,15557,15589,15589,15590,15622,15623,15623,15656,15657,15657,15689,15690,15690,15722,15723,15723,15756,15756,15757,15789,15790,15790,15823,15823,15856,15857,15857,15889,15890,15890,15923,15923,15923,15956,15957,15957,15957,15957,15976,15977,15997,15997,16017,16018,16038,16039,16060,16061,16084,16084,16092,16092,16112,16113,16133,16133,16145,16145,16165,16188,16188,16197,16197,16218,16218,16229,16229,16250,16272,16272,16272,16283,16304,16304,16316,16316,16331,16347,16361,16373,16393,16422,16422,16441,16461,16481,16511,16541,16616,16632,16670,16700,16710,16721,16740,16756,16772,16789,16806,16822,16822,16839,16839,16856,16872,16890,16890,16906,16922,16922,16939,16939,16956,16972,16972,16972,16989,16989,17006,17006,17022,17022,17039,17040,17040,17059,17059,17072,17089,17089,17106,17106,17122,17122,17122,17123,17139,17139,17156,17156,17172,17172,17189,17189,17190,17206,17206,17222,17239,17256,17256,17272,17289,17289,17319,17319,17329,17349,17359,17359,17372,17399,17419,17439,17439,17449,17469,17489,17508,17509,17548,17588,17589,17608,17609,17628,17648,17668,17698,17698,17748,17778,17788,17828,17828,17858,17908,17919,17957,17973,17990,18008,18048,18048,18087,18098,18138,18279" d="m297,319c1.5,-1.52084 2.11496,-2.31314 2.5,-3.02084c0.31226,-0.57397 0.79355,-1.58951 1.13599,-2.21515c0.51437,-0.93976 1.00378,-1.71661 1.36401,-2.22235c0.49844,-0.6998 1.4455,-1.4212 1.884,-1.96432c0.7356,-0.9111 0.96307,-1.75714 1.15765,-2.18149c0.4209,-0.91794 0.62451,-1.41275 1.37952,-2.89536c0.25464,-0.50003 0.79169,-1.46951 1.05798,-1.93799c0.50757,-0.89294 0.7576,-1.30301 1.37836,-2.39868c0.50748,-0.89569 0.82169,-1.48026 1.19583,-2.10117c0.69702,-1.15674 0.99991,-1.60138 1.63333,-2.58533c0.33411,-0.51901 0.68066,-1.0434 1.34665,-2.112c0.64044,-1.02759 0.93292,-1.51672 1.44785,-2.44199c0.46487,-0.8353 0.66473,-1.22836 1.03082,-1.95001c0.61075,-1.20395 1.00369,-1.99695 1.29785,-2.53583c0.5145,-0.94247 0.95929,-1.69443 1.46216,-2.5455c0.26883,-0.45499 0.83682,-1.40561 1.13068,-1.896c0.59695,-0.99622 1.19504,-1.99179 1.48831,-2.48251c0.56808,-0.95056 0.84131,-1.40298 1.33835,-2.25748c0.63348,-1.08902 0.97198,-1.69904 1.42133,-2.56802c0.32211,-0.62289 0.89218,-1.77365 1.11868,-2.22665c0.49197,-0.98401 0.7515,-1.50299 1.01599,-2.03201c0.53198,-1.064 1.04797,-2.09598 1.52798,-3.056c0.22501,-0.44998 0.64502,-1.28998 1.02502,-2.04999c0.495,-0.98999 0.90878,-1.82495 1.1825,-2.34418c0.44095,-0.83649 1.01965,-1.8447 1.48898,-2.64166c0.25024,-0.4249 0.77396,-1.29843 1.04199,-1.73666c0.77698,-1.27026 1.26117,-2.02905 1.70151,-2.71817c0.39969,-0.62552 0.7702,-1.1886 1.36401,-2.2c0.41061,-0.69937 0.8403,-1.45978 1.42551,-2.32567c0.45792,-0.67754 0.98004,-1.39725 1.24249,-1.77832c0.53616,-0.77847 1.29922,-1.97458 1.75299,-2.76517c0.21799,-0.37979 0.57715,-1.12762 1.29501,-2.31351c0.39365,-0.65027 0.93149,-1.29164 1.48816,-2.04283c0.52615,-0.71002 0.86517,-1.26102 1.6785,-2.2905c0.38745,-0.49042 1.00113,-1.12752 1.51468,-1.76534c0.629,-0.78117 1.09979,-1.64374 1.65198,-2.56801c0.31128,-0.52101 0.83777,-1.33055 1.18066,-1.88066c0.63947,-1.02588 0.98627,-1.72423 1.45135,-2.466c0.47549,-0.75838 1.0997,-1.44641 1.68665,-2.25732c0.35873,-0.49561 0.91992,-1.33784 1.51468,-2.22934c0.39917,-0.59833 0.79788,-1.18385 1.34283,-2.04283c0.49838,-0.78557 0.93106,-1.48962 1.35266,-2.40984c0.43741,-0.95467 0.60321,-1.5112 0.94049,-2.394c0.24515,-0.64163 0.67499,-1.67946 1.02118,-2.4015c0.353,-0.73622 0.70901,-1.46643 1.34283,-2.4185c0.56665,-0.85117 1.02417,-1.31505 1.60001,-2.10133c0.62674,-0.85576 1.00732,-1.53555 1.37915,-2.25282c0.37576,-0.72487 0.85754,-1.81111 1.13684,-2.49251c0.26181,-0.63872 0.57986,-1.55811 1.20532,-2.56549c0.30463,-0.49065 0.92535,-1.14146 1.51202,-2.2545c0.32535,-0.61726 0.54358,-1.34183 0.828,-2.088c0.29916,-0.78476 0.87354,-1.98312 1.108,-2.37733c0.47601,-0.80038 1.01367,-1.56699 1.54797,-2.31601c0.51379,-0.72026 1.00388,-1.39694 1.44669,-2.06c0.43173,-0.64644 1.23877,-1.99045 1.43616,-2.34717c0.41013,-0.74115 0.82272,-1.53963 1.25699,-2.397c0.22925,-0.45261 0.96378,-1.92386 1.22684,-2.44783c0.26828,-0.53436 0.81473,-1.61316 1.09067,-2.14667c0.27142,-0.52481 1.05182,-1.99062 1.54135,-2.83333c0.22812,-0.39272 0.68317,-1.13303 1.13666,-1.85417c0.71268,-1.13332 0.9715,-1.54027 1.5,-2.409c0.27414,-0.45062 0.82471,-1.37392 1.09467,-1.842c0.79407,-1.37689 1.26813,-2.26108 1.49551,-2.68651c0.43784,-0.81918 0.83838,-1.608 1.45715,-2.69499c0.39233,-0.68921 0.80936,-1.35284 1.23599,-2.028c0.44797,-0.70889 0.93375,-1.47009 1.44934,-2.31067c0.27347,-0.44583 0.83786,-1.38914 1.12534,-1.88533c0.59552,-1.02786 1.19098,-2.10846 1.48917,-2.66367c0.30048,-0.55945 0.8894,-1.68306 1.17932,-2.23734c0.28476,-0.54439 0.82635,-1.59204 1.35419,-2.54167c0.47314,-0.85126 0.93668,-1.60983 1.35599,-2.34c0.41534,-0.72325 0.81934,-1.48923 1.21201,-2.33067c0.41861,-0.89706 0.61505,-1.37303 1.05582,-2.33833c0.22589,-0.49472 0.96164,-1.99193 1.22552,-2.48833c0.26312,-0.49493 0.7977,-1.46033 1.056,-1.93066c0.49429,-0.90005 1.12924,-2.12437 1.45148,-2.86217c0.29904,-0.68471 0.54404,-1.36386 0.9765,-2.37651c0.30875,-0.72298 0.66608,-1.47092 1.04401,-2.24399c0.38733,-0.79231 0.98917,-1.98901 1.18802,-2.38667c0.39069,-0.78131 0.7655,-1.53058 1.116,-2.23199c0.60025,-1.2012 0.98059,-1.94275 1.284,-2.65334c0.4241,-0.99326 0.70343,-1.83745 0.90134,-2.42184c0.40427,-1.19372 0.57556,-1.79565 0.89999,-2.62349c0.37231,-0.94999 0.93317,-1.72822 1.39999,-2.43867c0.42017,-0.63945 0.811,-1.67242 1.02533,-2.45867c0.23563,-0.86435 0.58249,-1.51591 1.27017,-2.26933c0.61795,-0.677 0.65228,-1.49966 1.05716,-2.34817c0.38623,-0.80943 0.45071,-1.59171 0.7045,-2.45716c0.25729,-0.87745 0.79736,-1.51942 1.1095,-2.46667c0.2258,-0.68525 0.62753,-1.43828 1.03336,-2.232c0.39313,-0.76889 1.03278,-1.69603 1.39999,-2.26266c0.55109,-0.85033 0.7753,-1.59978 1.10001,-2.33334c0.46515,-1.0508 1.04547,-1.65496 1.59549,-2.30534c0.63919,-0.75585 0.7045,-1.7 0.7045,-2.5c0,-0.89999 0.07568,-1.8664 -0.436,-2.6c-0.4711,-0.67539 -1.17639,-1.23407 -1.88531,-1.7c-0.65833,-0.43267 -1.6156,-1.06033 -2.26801,-1.464c-0.76874,-0.47564 -1.77203,-0.29034 -2.612,-0.72133c-0.61942,-0.31782 -1.45108,-1.03345 -2.04535,-1.31467c-0.90677,-0.42909 -1.7077,-0.69537 -2.52798,-1c-1.06094,-0.39401 -1.77048,-0.70502 -2.45068,-1c-0.93832,-0.40694 -1.73755,-0.70129 -2.31631,-0.92084c-0.94702,-0.35925 -1.98077,-0.79716 -2.702,-1.12733c-0.71616,-0.32785 -1.36725,-0.69807 -2.49185,-1.109c-0.81848,-0.29906 -1.54626,-0.64353 -2.23517,-1.04417c-0.77008,-0.44785 -1.51498,-0.72905 -2.69598,-1.03201c-0.78366,-0.20103 -1.56573,-0.6369 -2.33334,-1c-0.71259,-0.33707 -1.67538,-0.48174 -2.34732,-0.87116c-0.93045,-0.53925 -1.45163,-1.09522 -2.15268,-1.7955c-0.6004,-0.59975 -1.23831,-1.22857 -1.98401,-1.7c-0.67462,-0.42649 -1.65085,-0.97743 -2.21149,-1.5c-0.72098,-0.67204 -1.24362,-1.39388 -1.3045,-2.3c-0.05362,-0.7982 0,-1.7 0,-2.6c0,-0.94167 -0.02191,-1.73385 0.01068,-2.66133c0.0278,-0.79138 0.16888,-1.83238 0.43597,-2.51334c0.27298,-0.69598 0.86313,-1.6543 1.38934,-2.45067c0.36658,-0.55476 0.73657,-1.11436 1.56268,-2.088c0.5614,-0.66166 1.11566,-1.20033 1.84866,-1.934c0.5051,-0.50556 1.25763,-1.22056 1.75266,-1.79433c0.53958,-0.6254 1.12,-1.64044 1.37466,-2.18367c0.38403,-0.81919 0.92041,-1.87383 1.46133,-2.53867c0.35773,-0.43967 1.17099,-1.22914 1.75949,-1.836c0.57544,-0.59338 1.25012,-1.39172 1.65186,-2c0.52145,-0.78957 1.06882,-1.60438 1.578,-2.2c0.51678,-0.60449 1.14072,-1.40842 1.67465,-2.17917c0.37524,-0.54168 1.16388,-1.25838 1.90451,-1.7735c0.80273,-0.55832 1.41318,-1.05703 1.93832,-1.65183c0.67398,-0.7634 1.11963,-1.62956 1.6265,-2.11017c0.72836,-0.69063 1.59842,-0.99548 2.19684,-1.29517c1.00964,-0.50562 1.72275,-0.94702 2.43784,-1.44083c0.70633,-0.48777 1.34918,-0.97155 2.13165,-1.60633c0.7301,-0.5923 1.431,-1.143 2.26434,-1.643c0.83334,-0.5 1.36072,-0.90347 2.10016,-1.6c0.53348,-0.50251 1.36179,-1.14384 2.07449,-1.464c0.91675,-0.41182 1.72559,-0.4789 2.66135,-0.872c0.57965,-0.2435 1.54922,-0.79231 2.328,-1.128c0.802,-0.3457 1.74646,-0.45502 2.48416,-0.79317c0.81793,-0.37492 1.26877,-1.28419 2.06616,-1.59017c0.83914,-0.322 1.68167,-0.34384 2.44968,-0.62733c0.94876,-0.35022 1.7446,-0.44952 2.66135,-0.86133c0.71271,-0.32016 1.51627,-1.0103 2.34131,-1.564c0.63535,-0.42639 1.32495,-0.83287 2.33334,-0.97917c0.81308,-0.11796 1.7233,0.08324 2.61465,-0.30483c0.74176,-0.32295 1.58536,-0.71375 2.48535,-0.716c0.89999,-0.00225 1.76843,-0.03891 2.42084,-0.5c0.66885,-0.47271 1.49649,-0.49933 2.45831,-0.5c0.92084,-0.00064 1.82083,0 2.72086,0c0.89999,0 1.80084,-0.0372 2.59998,0c0.91766,0.04271 1.19934,0.80133 1.20001,1.7c0.00067,0.9 0,1.8 0,2.7c0,0.9 0,1.8 0,2.7c0,0.9 0,1.78533 0,2.72533c0,0.69067 0,1.764 0,2.58533c0,0.91067 0,1.764 0,2.704c0,0.88533 0,1.77067 0,2.71067c0,0.69067 0.02133,1.70469 -0.22134,2.7175c-0.17404,0.72634 -0.46741,1.50054 -0.65732,2.5355c-0.12305,0.6706 -0.29861,1.74979 -0.62134,2.42167c-0.39166,0.81538 -0.46045,1.72576 -0.72134,2.7c-0.16394,0.61216 -0.57666,1.38481 -0.7215,2.3955c-0.13065,0.91154 0.01205,1.80056 -0.2785,2.72583c-0.21982,0.69994 -0.66434,1.65627 -0.80399,2.376c-0.2066,1.06487 -0.31836,1.66869 -0.58533,2.66267c-0.18152,0.67585 -0.58801,1.868 -0.8685,2.5775c-0.35416,0.89584 -0.51468,1.69793 -0.80484,2.54916c-0.26254,0.77018 -0.56754,1.67757 -0.66333,2.4615c-0.09634,0.78848 -0.10306,2.0396 -0.66333,2.5945c-0.63269,0.62664 -1.37891,0.99883 -1.38934,1.94134c-0.00763,0.69062 0.13239,1.80566 -0.22134,2.61617c-0.3132,0.71765 -0.73944,1.55152 -0.77731,2.41583c-0.04218,0.96249 -0.50186,1.7028 -0.83469,2.484c-0.32019,0.75154 -0.22211,1.70095 -0.66666,2.5c-0.44562,0.80096 -0.83688,1.53126 -1.216,2.3c-0.41681,0.84521 -0.16583,1.77827 -0.72,2.6c-0.46042,0.68272 -1.15793,1.18532 -1.53867,2c-0.41577,0.88969 -0.83063,1.48275 -1.32532,2.24817c-0.50406,0.77989 -1.10202,1.40588 -1.75269,1.99916c-0.59061,0.5385 -1.13202,1.15265 -1.74731,1.78467c-0.6904,0.70914 -1.51794,1.15715 -2.30002,1.4465c-0.85175,0.31512 -1.69998,0.1215 -2.60001,0.1215c-0.89999,0 -1.79999,0 -2.69998,0c-0.89999,0 -1.80002,0 -2.70001,0c-0.89999,0 -1.69998,0 -2.60001,0l-0.89999,0l-0.96399,-0.036l-0.436,-0.592" id="svg_4" stroke-width="2" stroke="#000" fill="none"/>
  <path t="19431,19681,19726,19726,19746,19756,19773,19790,19790,19807,19823,19823,19839,19856,19856,19875,19875,19895,19895,19915,19915,19935,19935,19955,19955,19965,19965,19985,19995,19995,20006,20023,20040,20056,20056,20072,20072,20089,20106,20106,20124,20125,20144,20144,20156,20184,20205,20257,20277,20513,20513,20573,20573,20607,20607,20640,20673,20673,20707,20707,20707,20740,20783,20833,20863,20873,20883,20903,20903,20903,20913,20913,20913,20924,20940,20940,20957,20974,20974,20974,20993,20993,21007,21024,21024,21040,21057,21057,21073,21090,21107,21107,21124,21124,21140,21157,21173,21191,21191,21207,21224,21224,21241,21257,21257,21273,21291,21312,21323,21342,21342,21382,21392,21455,21532,21532,21654,21688,21702,21702,21721,21731,21731,21751,21781,21801" d="m228,361c1.75717,0 2.6732,-0.11856 3.51601,0.08533c0.888,0.21481 1.7636,0.70349 2.40132,1.19867c0.62672,0.48663 1.45131,0.67288 2.08267,1.23685c0.66017,0.58972 1.34886,1.13083 2.24283,1.42648c0.85458,0.28265 1.49664,0.78418 2.24117,1.25269c0.67552,0.42508 1.6478,0.98077 2.2115,1.5c0.62881,0.57919 1.16733,1.13721 2.1405,1.69998c0.55646,0.32178 1.57692,0.77386 2.328,1.20001c0.83125,0.47162 1.38509,1.04367 2.136,1.6955c0.66664,0.57867 1.53188,0.51715 2.39999,0.76166c0.76129,0.21442 1.54472,0.74976 2.40018,1.16418c0.70468,0.3414 1.55106,0.74631 2.24715,0.77417c1.02652,0.04111 1.974,0.00388 2.82733,0.00449c0.94135,0.00067 1.71848,0.06107 2.6507,0.42532c0.69794,0.27271 1.65363,0.56424 2.57465,0.57468c0.89993,0.01019 1.80002,0 2.70001,0c0.89999,0 1.81625,0.1543 1.89999,1c0.07462,0.75348 0.12308,1.67432 -0.08533,2.51599c-0.22058,0.89078 -1.01486,1.58414 -1.55066,2.12c-0.68521,0.6853 -1.25116,1.13098 -1.79468,1.88c-0.64038,0.88251 -0.94516,1.61526 -1.62201,2.13135c-0.65762,0.50143 -1.66107,0.32059 -2.36865,-0.08334c-0.93124,-0.53162 -1.58783,-0.86575 -2.36401,-1.164c-1.04709,-0.40237 -1.8114,-0.59995 -2.49582,-1.10001c-0.69034,-0.50439 -1.28526,-1.2511 -2.07068,-1.2955c-0.8941,-0.05057 -1.82527,-0.14694 -2.66899,-0.52533c-0.58827,-0.26382 -1.63326,-0.68555 -2.26483,-1.17917c-0.75394,-0.58926 -1.29674,-1.15527 -2.06618,-1.35266c-0.91205,-0.23398 -1.57529,-1.03665 -2.24817,-1.51132c-0.7348,-0.51837 -1.52274,-0.85437 -2.39999,-1.26935c-0.7126,-0.33707 -1.64056,-0.54968 -2.34734,-0.814c-0.99088,-0.37057 -1.50327,-0.93533 -2.19434,-1.35266c-0.84174,-0.5083 -1.62508,-0.58087 -2.353,-1.2955c-0.57112,-0.5607 -1.33661,-0.60095 -2.22,-0.98849c-0.95415,-0.41858 -1.72092,-0.59491 -2.3645,-1.23685c-0.64084,-0.63922 -0.99643,-1.37384 -1.82083,-1.83182c-0.74229,-0.41235 -1.48965,-0.7493 -2.2,-1.14734c-0.88763,-0.49741 -1.84869,-0.67618 -2.33333,-1.5c-0.38402,-0.65277 -1.10577,-1.21524 -1.16667,-2.10001c-0.0618,-0.89786 -0.10121,-1.71054 0.036,-2.53598c0.14473,-0.8707 0.6685,-1.65417 1.35333,-2.30267l0.58984,-0.58218l0.03149,-0.8685" id="svg_5" stroke-width="2" stroke="#000" fill="none"/>
  <path t="22479,22587,22623,22623,22623,22631,22631,22641,22641,22657,22657,22674,22674,22674,22674,22690,22690,22690,22690,22706,22706,22706,22706,22706,22723,22723,22723,22741,22741,22741,22741,22756,22756,22756,22756,22773,22773,22773,22790,22790,22790,22790,22806,22806,22806,22806,22823,22823,22823,22840,22840,22840,22856,22856,22856,22856,22873,22873,22890,22890,22890,22906,22906,22906,22906,22923,22923,22923,22940,22940,22940,22940,22955,22956,22956,22973,22973,22973,22990,22990,22990,23006,23006,23006,23006,23006,23023,23023,23023,23040,23040,23040,23056,23056,23056,23056,23073,23073,23090,23090,23109,23109,23109,23159" d="m230,365c1.75717,-0.11432 2.49654,-0.55826 3.02083,-1.04166c0.59351,-0.54724 1.39897,-1.33612 1.9375,-1.9375c0.74028,-0.82666 0.95494,-1.57761 1.61101,-2.22351c0.55186,-0.5433 1.42265,-1.33295 1.6825,-1.81168c0.43169,-0.79532 0.65907,-1.42953 1.51883,-2.58698c0.47052,-0.63345 0.7726,-0.91812 1.33833,-1.55585c0.89352,-1.00726 1.4917,-1.7215 2.06967,-2.44684c0.28131,-0.35303 0.79167,-1.04129 1.67867,-2.13199c0.48373,-0.59482 0.95929,-1.11295 1.68533,-2.02817c0.47006,-0.59256 0.96516,-1.25104 1.452,-1.935c0.68309,-0.95972 1.03175,-1.53281 1.48451,-2.25919c0.39975,-0.64133 1.00453,-1.4444 1.54166,-2.0625c0.57875,-0.66602 1.19016,-1.39267 1.77917,-2.21515c0.40767,-0.56924 0.79791,-1.16675 1.39999,-2.06384c0.59793,-0.8909 0.9877,-1.47333 1.40001,-2.01483c0.77591,-1.01907 1.40131,-1.6684 1.74283,-2.138c0.68161,-0.93719 1.02728,-1.78534 1.2825,-2.358c0.53189,-1.19357 0.85312,-1.78909 1.35382,-2.64767c0.30841,-0.52884 0.81854,-1.58667 1.12619,-2.34698c0.30432,-0.75204 0.76028,-1.47079 1.30365,-2.30368c0.5842,-0.89548 0.98691,-1.49017 1.38034,-2.06967c0.54965,-0.8096 1.16937,-1.69617 1.73151,-2.32132c0.43341,-0.48199 1.25458,-1.26364 1.72983,-1.772c0.50665,-0.54193 1.05438,-1.08508 1.77866,-2.32666c0.33353,-0.57172 0.63638,-1.45453 1.07083,-2.47983c0.29361,-0.69293 0.62512,-1.34033 1.22134,-2.12186c0.48914,-0.64114 1.11047,-1.29471 1.6785,-2.133c0.42081,-0.62103 0.79651,-1.31934 1.20001,-2.01599c0.39658,-0.68466 1.19098,-1.88614 1.58932,-2.37866c0.54312,-0.67151 1.19144,-1.47086 1.59601,-2.08267c0.42657,-0.64511 1.1525,-1.61459 1.61548,-2.13751c0.70547,-0.79678 1.2847,-1.19702 1.83218,-2.24197c0.34143,-0.65164 0.58365,-1.66354 0.92865,-2.21436c0.51624,-0.82416 1.23834,-1.57465 1.75433,-2.11017l0.72235,-0.72815" id="svg_6" stroke-width="2" stroke="#000" fill="none"/>
  <path t="23887,23938,23947,23948,23967,23967,23980,23980,23997,23997,23997,24010,24010,24010,24023,24023,24023,24023,24040,24040,24040,24056,24056,24056,24056,24056,24073,24073,24073,24073,24090,24090,24090,24090,24106,24106,24106,24106,24106,24123,24123,24123,24140,24140,24140,24140,24156,24156,24156,24156,24156,24173,24173,24173,24173,24173,24173,24173,24190,24190,24190,24206,24206,24206,24206,24206,24206,24223,24223,24223,24240,24240,24240,24240,24256,24256,24256,24256,24256,24273,24273,24273,24273,24273,24291,24291,24291,24307,24307,24307,24323,24323,24341,24341,24341,24357,24357,24357,24357,24373,24374,24390,24390,24407,24407,24407,24426,24589" d="m237,372c0.61067,-1.60001 1.33852,-2.27347 1.8,-2.88535c0.55296,-0.73318 0.89326,-1.52789 1.68399,-2.23065c0.48077,-0.42731 1.39832,-1.01459 1.88,-1.72c0.37111,-0.54349 0.82466,-1.57431 1.17767,-2.20566c0.41281,-0.73828 0.99525,-1.60489 1.46367,-2.25919c0.48871,-0.68262 0.97801,-1.34561 1.66133,-2.19916c0.51949,-0.6489 1.14694,-1.35129 1.66666,-2c0.68758,-0.85825 0.93112,-1.19501 1.45201,-1.896c0.53522,-0.72028 1.29614,-1.78043 1.75749,-2.44684c0.43918,-0.63437 0.85266,-1.25266 1.45717,-2.15717c0.60451,-0.90451 1.01717,-1.52338 1.45717,-2.15717c0.70366,-1.01358 1.22549,-1.72549 1.491,-2.091c0.53099,-0.73099 1.05754,-1.4314 1.71849,-2.41849c0.37286,-0.55685 0.76398,-1.32538 1.5,-2.33334c0.46115,-0.63153 0.8804,-1.02155 1.43466,-1.77066c0.62958,-0.85089 1.00958,-1.55161 1.44034,-2.31268c0.47476,-0.83884 0.7186,-1.29617 1.29169,-2.25c0.62338,-1.03751 0.96698,-1.56183 1.31732,-2.08533c0.68887,-1.0293 1.03247,-1.51331 1.38135,-1.95734c0.89612,-1.14056 1.72092,-1.87131 2.18265,-2.31467c0.98343,-0.94431 1.22223,-1.28372 1.73352,-2.02451c0.5481,-0.79413 0.79868,-1.2146 1.28247,-2.03415c0.63754,-1.07999 1.09995,-1.96509 1.42001,-2.45468c0.64578,-0.98779 1.11633,-1.48346 1.87018,-2.31683c0.52933,-0.58514 1.32193,-1.47171 1.79517,-2.08047c0.46808,-0.60214 0.90817,-1.2355 1.36798,-1.884c0.73535,-1.03717 0.99939,-1.39682 1.53067,-2.12933c0.52472,-0.72348 1.03299,-1.40475 1.64252,-2.34235c0.49545,-0.76208 0.85818,-1.45825 1.46414,-2.24301c0.47891,-0.62021 1.08139,-1.15982 1.79333,-2.19998c0.39651,-0.57935 0.88028,-1.60257 1.18985,-2.2045c0.32617,-0.63425 0.85757,-1.565 1.34818,-2.34818c0.34412,-0.54935 0.87646,-1.35556 1.46198,-2.36066c0.37292,-0.64017 0.91223,-1.50125 1.38535,-2.20752c0.53094,-0.7926 0.79999,-1.47998 1.10001,-2.1925l0.49982,-0.92233l0.73352,-0.53098" id="svg_7" stroke-width="2" stroke="#000" fill="none"/>
  <path t="25258,25352,25352,25368,25368,25416,25416,25416,25416,25434,25434,25434,25434,25434,25434,25434,25434,25434,25448,25448,25448,25448,25448,25460,25460,25460,25460,25460,25460,25473,25473,25473,25473,25490,25490,25490,25490,25506,25506,25506,25506,25506,25506,25506,25523,25523,25523,25523,25523,25524,25540,25540,25540,25540,25556,25556,25556,25556,25556,25573,25573,25573,25590,25590,25590,25606,25606,25606,25606,25606,25623,25623,25623,25623,25623,25640,25640,25640,25657,25657,25657,25657,25657,25673,25673,25673,25674,25674,25674,25690,25691,25691,25706,25706,25707,25707,25724,25724,25724,25724,25724,25740,25741,25741,25757,25757,25757,25757,25775,25775,25775,25791,25935,25951" d="m244,371c2.37466,-0.86133 2.84114,-1.5636 3.48399,-2.116c0.65088,-0.5593 1.50111,-1.20221 1.95467,-1.784c0.40762,-0.52286 0.9463,-1.22305 1.72801,-2.10001c0.47603,-0.53403 1.02,-1.10526 1.60199,-1.716c0.6073,-0.6373 1.23198,-1.28339 1.854,-1.93201c0.60931,-0.63538 1.20209,-1.23633 2.21068,-2.35199c0.42191,-0.46667 1.09677,-1.25549 1.5625,-1.9375c0.40594,-0.59448 0.93399,-1.56454 1.3735,-2.31451c0.23859,-0.4071 0.74454,-1.25241 1.28247,-2.09c0.26215,-0.40817 1.01569,-1.50235 1.49103,-2.091c0.63211,-0.78284 1.07474,-1.23349 1.86115,-2.25632c0.43872,-0.57059 0.89877,-1.23328 1.452,-1.96799c0.63797,-0.84726 1.00348,-1.31046 1.80652,-2.30069c0.42169,-0.52002 0.85684,-1.04324 1.29749,-1.56598c0.43771,-0.51926 1.70517,-1.97736 2.09668,-2.4115c0.71729,-0.79544 1.06168,-1.14633 1.64999,-1.83252c0.5307,-0.61899 1.17191,-1.521 1.64267,-2.44266c0.31577,-0.61819 0.58771,-1.29245 1.19333,-2.31052c0.44055,-0.7406 0.95703,-1.45819 1.452,-2.16898c0.23718,-0.34061 1.03174,-1.54184 1.4845,-2.26819c0.39975,-0.64133 1.00391,-1.44748 1.5625,-2.08331c0.41733,-0.47504 1.13461,-1.28403 1.64233,-1.93033c0.55191,-0.70251 1.09985,-1.47937 1.36334,-1.8942c0.81479,-1.28265 1.04102,-1.74951 1.491,-2.66849c0.42963,-0.87735 0.73175,-1.7229 1.29501,-2.63199c0.37103,-0.59888 1.08899,-1.23041 1.48816,-1.94101c0.37256,-0.66327 0.70319,-1.51578 0.88916,-1.98166c0.39896,-0.99942 0.79379,-2.07574 1.18668,-3.18933c0.19589,-0.55521 0.388,-1.10181 0.73065,-2.15201c0.30734,-0.94205 0.60446,-2.06949 0.832,-2.82135c0.18262,-0.60336 0.69943,-1.51575 1.10699,-2.11948c0.46906,-0.69482 1.00705,-1.4306 1.76636,-2.62851c0.25089,-0.39581 0.70767,-1.185 1.125,-1.9375c0.38248,-0.68964 1.01511,-1.80203 1.41632,-2.38651c0.50284,-0.73251 0.9566,-1.43478 1.45068,-2.36267c0.35651,-0.66953 0.68839,-1.34778 1.15314,-2.27017c0.38367,-0.76144 0.82019,-1.55515 1.31702,-2.28598l0.58301,-0.85684l0.12149,-0.31699" id="svg_8" stroke-width="2" stroke="#000" fill="none"/>
  <path t="26699,26756,26772,26795,26795,26808,26808,26824,26824,26824,26840,26840,26840,26857,26857,26873,26873,26874,26890,26890,26890,26890,26906,26906,26906,26906,26906,26923,26923,26923,26923,26923,26940,26940,26940,26940,26956,26956,26956,26973,26973,26973,26973,26990,26990,26990,26990,26990,27006,27006,27006,27006,27023,27023,27023,27023,27040,27040,27040,27040,27056,27056,27056,27073,27073,27073,27090,27090,27090,27090,27090,27106,27106,27140,27140,27140,27140,27156,27156,27156,27156,27156,27173,27173,27173,27173,27190,27190,27190,27206,27206,27206,27223,27223,27223,27223,27241,27241,27241,27256,27256,27273,27273,27291,27291,27291,27306,27306,27323,27340,27340,27484" d="m256,376c1.22134,-0.87866 1.83868,-1.4093 2.28534,-2.20132c0.34198,-0.60638 1.00098,-1.46713 1.35065,-2.00934c0.65231,-1.01154 1.19482,-1.59424 1.57468,-1.98935c0.77887,-0.81018 1.41544,-1.36426 1.91733,-1.96399c0.75989,-0.90802 0.9332,-1.61853 1.44269,-2.32401c0.43494,-0.60223 1.05551,-1.26831 1.62949,-2.15466c0.42194,-0.65158 0.79672,-1.37296 1.25699,-2.052c0.6752,-0.99612 1.21875,-1.54755 1.77884,-2.05466c0.56534,-0.51184 1.19781,-0.98651 2.06384,-1.89368c0.61975,-0.64917 1.185,-1.39447 1.46417,-1.77832c0.56223,-0.77307 1.32056,-1.97458 1.77432,-2.76517c0.21799,-0.37979 0.57904,-1.12646 1.29501,-2.31351c0.39453,-0.65414 0.94073,-1.34488 1.48831,-2.26434c0.35406,-0.59451 0.70288,-1.28766 1.14001,-1.992c0.67877,-1.09369 1.21854,-1.76035 1.48651,-2.08649c0.52615,-0.64032 1.11404,-1.20392 1.909,-2.45715c0.36755,-0.57947 0.60754,-1.20663 1.02548,-2.10001c0.42429,-0.90695 0.94769,-1.80359 1.328,-2.39999c0.38495,-0.60367 0.99252,-1.49762 1.57867,-2.38934c0.37683,-0.57327 0.74005,-1.11667 1.32666,-2.12668c0.39395,-0.67831 0.75836,-1.37381 1.36932,-2.37067c0.34528,-0.56335 0.93234,-1.46732 1.51468,-2.47998c0.40796,-0.70944 0.7868,-1.43872 1.164,-2.13602c0.34833,-0.64395 0.96481,-1.63455 1.31516,-2.17648c0.54315,-0.84018 0.83081,-1.54211 1.15683,-2.41418c0.25363,-0.67841 0.67957,-1.8515 1.02118,-2.70749c0.17578,-0.4404 0.52698,-1.32547 0.94415,-2.14584c0.56326,-1.10764 0.9924,-1.68762 1.37784,-2.21167c0.53308,-0.72479 1.15341,-1.7179 1.5,-2.54166c0.22824,-0.54248 0.60275,-1.58713 0.93152,-2.27466c0.32849,-0.68692 0.91391,-1.64484 1.41467,-2.46133c0.35159,-0.57327 0.72614,-1.14822 1.28931,-2.36133c0.26636,-0.57376 0.49951,-1.43167 1.08536,-2.43335c0.4415,-0.75491 1.0285,-1.44165 1.39999,-2.216c0.4339,-0.90448 0.68259,-1.70834 1,-2.492c0.37936,-0.93658 0.78934,-1.58932 1.27866,-2.36133l0.28799,-0.89999l0.40802,-0.60001l0.42532,-0.89999" id="svg_9" stroke-width="2" stroke="#000" fill="none"/>
  <path t="29606,29719,29734,29774,29774,29790,29791,29791,29806,29807,29807,29824,29824,29841,29841,29841,29856,29873,29873,29890,29890,29906,29906,29923,29923,29940,29940,29956,29956,29956,29976,29976,29996,29996,30007,30007,30023,30023,30040,30040,30056,30056,30073,30073,30090,30090,30106,30106,30106,30123,30123,30140,30140,30156,30156,30156,30173,30173,30173,30173,30190,30190,30190,30206,30206,30206,30223,30223,30223,30223,30240,30240,30256,30256,30273,30273,30273,30273,30290,30306,30306,30306,30306,30323,30323,30323,30323,30340,30340,30340,30356,30356,30356,30356,30373,30373,30373,30373,30390,30390,30390,30390,30406,30406,30406,30423,30423,30423,30423,30440,30440,30440,30456,30456,30456,30473,30473,30489,30490,30490,30506,30506,30506,30522,30523,30523,30523,30523,30539,30540,30556,30556,30556,30573,30573,30573,30573,30589,30590,30606,30606,30606,30622,30623,30623,30623,30639,30640,30640,30655,30656,30656,30656,30672,30673,30673,30673,30689,30690,30690,30705,30706,30706,30723,30723,30723,30723,30739,30740,30740,30756,30756,30773,30773,30773,30773,30790,30790,30790,30790,30806,30806,30806,30806,30823,30823,30823,30823,30839,30839,30856,30856,30856,30873,30873,30873,30873,30898,30898,30898,30911,30911,30911,30912,30923,30923,30923,30923,30939,30939,30939,30956,30956,30956,30956,30973,30973,30973,30973,30973,30989,30989,30989,31006,31006,31006,31006,31006,31006,31023,31023,31023,31023,31039,31039,31039,31039,31056,31056,31056,31056,31056,31056,31073,31073,31073,31073,31073,31073,31088,31089,31089,31089,31105,31106,31106,31106,31106,31122,31122,31122,31123,31123,31123,31138,31138,31138,31155,31155,31155,31156,31172,31172,31172,31173,31173,31188,31188,31188,31205,31205,31205,31206,31222,31222,31222,31223,31223,31238,31238,31255,31255,31256,31256,31256,31272,31272,31272,31273,31288,31288,31288,31305,31305,31323,31323,31323,31338,31383,31486,31533,31533,31543,31555,31555,31555,31555" d="m290,296c0.05716,-1.70001 0.57953,-2.46045 0.95184,-3.30899c0.27985,-0.63782 0.75134,-1.70816 1.08981,-2.21185c0.54337,-0.80862 1.15631,-1.55899 1.737,-2.23248c0.50552,-0.5863 1.08038,-1.51312 1.38934,-2.216c0.35944,-0.81772 0.86362,-1.51291 1.26401,-2.26266c0.49841,-0.93326 0.69449,-1.79993 1.17865,-2.36801c0.63931,-0.75018 1.2428,-1.25351 1.68484,-2.05716c0.39719,-0.72208 0.50754,-1.77216 0.76584,-2.50684c0.35791,-1.01797 1.18265,-1.39801 1.772,-2.00266c0.59622,-0.61166 0.95926,-1.43774 1.36667,-2.23203c0.39413,-0.76834 0.91574,-1.56812 1.39999,-2.22665c0.62057,-0.84393 0.94904,-1.58334 1.5,-2.35315c0.45944,-0.64191 1.24057,-1.2934 1.69998,-1.90686c0.55124,-0.73608 0.89456,-1.52194 1.40002,-2.51334c0.29678,-0.58212 0.82687,-1.41589 1.29999,-2.12216c0.53094,-0.7926 0.78491,-1.49075 1.10001,-2.22849c0.47736,-1.11761 0.90674,-1.70273 1.60132,-2.45334c0.56134,-0.60663 1.12042,-1.33998 1.63467,-2.05867c0.37485,-0.52386 1.15771,-1.57727 1.56268,-2.05333c0.57169,-0.67207 1.15192,-1.25832 1.71732,-2.08667c0.41089,-0.60199 0.76077,-1.28836 1.36801,-2.284c0.33734,-0.55312 0.89334,-1.40352 1.34933,-2.31467c0.43887,-0.87691 0.61221,-1.47313 0.96533,-2.22934c0.45856,-0.98196 1.02481,-1.63858 1.50583,-2.43233c0.47638,-0.78612 0.86093,-1.50577 1.34366,-2.2865c0.48926,-0.79128 0.81747,-1.26694 1.30118,-2.40117c0.41437,-0.9716 0.7637,-1.67027 1.09232,-2.21317c0.36591,-0.60454 0.9631,-1.60155 1.35703,-2.31883c0.39545,-0.72006 0.72604,-1.44415 1.43466,-2.61867c0.39267,-0.65085 0.94009,-1.28535 1.48798,-2.04317c0.52432,-0.72525 0.87729,-1.30177 1.19467,-1.94484c0.50104,-1.0152 0.73602,-1.76183 0.96317,-2.51199c0.22546,-0.74463 0.60931,-2.18205 0.82535,-2.83833c0.20532,-0.62373 0.51938,-1.51443 1.18082,-2.47766c0.49176,-0.71613 0.94424,-1.11664 1.71451,-2.1055c0.40924,-0.52538 0.81042,-1.08116 1.31485,-1.97984c0.49493,-0.88174 0.85135,-1.78722 1.07465,-2.36267c0.4144,-1.06789 0.62424,-1.83311 1.16785,-2.57433c0.629,-0.8576 1.41672,-1.01366 2.00015,-1.98334c0.39172,-0.65105 0.3511,-1.3911 0.81335,-2.36499c0.41855,-0.88185 0.85049,-1.46794 1.42932,-2.48001c0.40594,-0.70981 0.78748,-1.43298 1.12799,-2.136c0.30942,-0.63881 0.6727,-1.87169 1.04001,-2.57866c0.44086,-0.84857 1.06839,-1.38997 1.43466,-1.89067c0.6232,-0.85194 1.00311,-1.52103 1.35568,-2.20717c0.49179,-0.95708 0.8241,-1.98499 1.147,-2.82166c0.29358,-0.76068 0.7619,-1.47423 1.116,-2.02051c0.76837,-1.18539 1.17999,-1.77557 1.56799,-2.368c0.55734,-0.851 1.06134,-1.63432 1.45349,-2.358c0.36276,-0.66943 0.74982,-1.62224 1.06616,-2.41434c0.3548,-0.88832 0.63083,-1.54266 1.23352,-2.55933c0.43637,-0.73613 0.93939,-1.43547 1.17084,-1.78168c0.79617,-1.19101 1.13684,-1.82986 1.36798,-2.66399c0.22192,-0.80093 0.44122,-1.6032 0.80533,-2.52135c0.41315,-1.04178 0.75781,-1.7597 1.11334,-2.47032c0.33954,-0.67862 0.80948,-1.55797 1.36401,-2.34435c0.41708,-0.59145 0.94998,-1.35852 1.39316,-2.21616c0.41852,-0.80991 0.72684,-1.44917 1.06818,-2.13184c0.522,-1.04399 1.008,-2.01601 1.29065,-2.58133c0.384,-0.76801 0.76907,-1.53548 1.20532,-2.41084c0.33218,-0.66658 0.68646,-1.37434 1.026,-2.10899c0.49747,-1.07628 0.90234,-2.07799 1.11102,-2.68567c0.26974,-0.78558 0.47034,-1.93159 0.711,-2.5305c0.44061,-1.09647 0.86761,-1.58594 1.1825,-2.19817c0.50784,-0.9874 0.89423,-2.07643 1.12732,-2.79216c0.21939,-0.67368 0.61188,-1.78233 0.92084,-2.36568c0.38879,-0.73404 0.8092,-1.72925 1,-2.38399c0.21014,-0.72113 0.39822,-1.49644 0.70001,-2.69151c0.19882,-0.78728 0.35495,-1.55254 0.69998,-2.54449c0.35562,-1.0224 0.74289,-1.56432 1.08536,-2.19333c0.64209,-1.17937 0.7709,-1.58275 1.1355,-2.40434c0.38272,-0.86243 0.97397,-2.1277 1.17883,-2.51516c0.56476,-1.06814 0.95911,-1.67058 1.22964,-2.25517c0.45587,-0.98509 0.55042,-1.75462 0.73868,-2.62801c0.24826,-1.15171 0.54041,-2.08009 0.69333,-2.58266c0.15805,-0.51945 0.49261,-1.58035 0.65601,-2.112c0.46719,-1.52016 0.72519,-2.44209 0.84668,-2.872c0.33069,-1.17023 0.62204,-2.1652 0.94049,-2.997c0.20731,-0.54153 0.59232,-1.4307 1.01682,-2.58233c0.16724,-0.45369 0.50687,-1.45709 0.67868,-1.99734c0.17758,-0.55841 0.52917,-1.71857 0.83334,-2.91666c0.15173,-0.5977 0.4108,-1.78172 0.53067,-2.35733c0.11642,-0.55907 0.29764,-1.62202 0.63599,-2.97601c0.18311,-0.73279 0.38745,-1.35422 0.75717,-2.16299c0.53152,-1.16265 0.90448,-1.82701 1.28448,-2.58701c0.20502,-0.41 0.64526,-1.28989 1.125,-2.25c0.51492,-1.03053 0.77841,-1.55781 1.03735,-2.08533c0.50137,-1.02135 0.76291,-1.48959 1.29599,-2.748c0.36072,-0.85153 0.57495,-1.69243 0.94284,-2.59784c0.24963,-0.61434 0.58917,-1.29317 0.909,-2.049c0.49902,-1.17924 0.76941,-1.98176 1.01218,-2.76517c0.23163,-0.74741 0.39212,-1.46576 0.83731,-2.65334c0.29199,-0.77888 0.68347,-1.53626 1.12018,-2.411c0.33527,-0.67154 0.69934,-1.39867 1.08301,-2.166c0.59549,-1.191 0.9939,-1.98647 1.18649,-2.3775c0.36938,-0.74999 0.86938,-1.74557 1.24234,-2.76283c0.27664,-0.75452 0.6622,-1.71968 1.01865,-2.38934c0.41879,-0.7868 0.6731,-1.19059 1.09,-2.065c0.59424,-1.24636 0.83969,-2.01731 0.95001,-2.71367c0.1442,-0.91001 0.05826,-1.96454 0.12933,-2.64667c0.08789,-0.84335 0.6853,-1.83854 1.164,-2.436c0.64374,-0.80345 1.11603,-1.36505 1.453,-2.14283c0.37772,-0.87181 0.27954,-1.86094 0.36182,-2.75716c0.08368,-0.91144 0.83838,-1.48227 0.979,-0.81667c0.22397,1.06013 0.02084,1.87384 0.02084,2.72733l0,0.59067" id="svg_10" stroke-width="2" stroke="#000" fill="none"/>
  <path t="32611,32781,32806,32806,32827,32841,32841,32857,32874,32874,32874,32890,32890,32890,32907,32907,32924,32940,32940,32957,32974,32974,32974,32990,32990,33011,33011,33024,33040,33057,33057,33074,33074,33090,33090,33090,33107,33124,33124,33140,33140,33140,33157,33157,33174,33174,33174,33190,33190,33190,33207,33224,33224,33224,33240,33240,33257,33257,33274,33274,33290,33290,33307,33307,33324,33324,33324,33340,33340,33373,33389,33389,33389,33406,33406,33423,33423,33423,33439,33439,33456,33456,33456,33473,33489,33489,33489,33506,33506,33506,33523,33523,33523,33539,33539,33539,33539,33556,33556,33573,33574,33574,33589,33589,33589,33606,33606,33606,33623,33623,33623,33639,33639,33639,33656,33656,33673,33673,33673,33673,33689,33689,33689,33689,33706,33706,33706,33723,33723,33739,33739,33739,33756,33756,33756,33773,33773,33789,33789,33789,33806,33806,33823,33823,33839,33839,33856,33856,33856,33873,33873,33889,33889,33906,33906,33923,33923,33923,33939,33939,33939,33956,33956,33956,33973,33973,33989,33989,33989,34006,34006,34006,34023,34023,34023,34039,34039,34039,34056,34056,34073,34073,34089,34089,34106,34106,34106,34106,34123,34123,34139,34139,34139,34156,34156,34156,34173,34173,34173,34189,34189,34206,34206,34206,34223,34223,34239,34239,34239,34256,34256,34256,34273,34273,34289,34289,34289,34289,34306,34306,34323,34323,34339,34339,34339,34356,34356,34356,34373,34373,34373,34373,34389,34389,34389,34406,34406,34406,34406,34432,34439,34439,34456,34456,34456,34473,34489,34489,34489,34506,34506,34506,34523,34539,34556,34556,34573,34573,34589,34589,34605,34606,34606,34622,34638,34639,34639,34655,34656,34672,34673,34688,34689,34689,34705,34706,34722,34723,34738,34739,34755,34756,34756,34772,34788,34788,34788,34807,34807,34807,34807,34823,34823,34838,34838,34855,34855,34855,34872,34888,34888,34905,34905,34922,34938,34956,34957,34972,34972,35128,35143" d="m298,289c1.60001,-0.61066 2.29999,-1.29999 2.79999,-1.79999c0.70001,-0.70001 1.39813,-1.40192 1.90002,-1.90002c0.70801,-0.70267 1.46603,-1.30099 2.13599,-1.71066c0.56799,-0.34735 1.57315,-1.06177 2.14316,-1.58932c0.54578,-0.50513 1.26367,-1.24283 1.81952,-1.79868c0.70132,-0.70132 1.39944,-1.40323 1.90134,-1.90134c0.70801,-0.70267 1.47598,-1.2854 2.12534,-1.71066c0.70108,-0.45914 1.29834,-1.06723 1.76398,-1.76398c0.62286,-0.93198 1.17087,-1.46661 1.80002,-2.22534c0.54517,-0.65747 0.77399,-1.60236 1.22131,-2.23599c0.48575,-0.68808 0.88815,-1.38547 1.38934,-2.36401c0.39905,-0.77914 0.79999,-1.42932 1.5,-2c0.70001,-0.57068 1.09912,-1.2218 1.60001,-2.19983c0.39929,-0.77969 0.66953,-1.33704 1.31067,-2.18552c0.4537,-0.60043 1.08179,-1.37827 1.58932,-2.1355c0.35324,-0.52704 0.9783,-1.55762 1.36401,-2.23248c0.43445,-0.76013 1.08029,-1.58965 1.63599,-2.41335c0.43607,-0.64639 0.70975,-1.233 1.19867,-2.23199c0.3728,-0.76173 0.62759,-1.59351 0.88535,-2.48534c0.22766,-0.78777 0.61325,-1.52414 1.116,-2.51466c0.29575,-0.58267 0.82687,-1.41589 1.29999,-2.12216c0.53094,-0.79262 0.78497,-1.49075 1.10001,-2.2285c0.47723,-1.11757 1.00797,-1.64992 1.34732,-2.55968c0.36609,-0.98149 0.41354,-1.69394 0.62735,-2.44032c0.31635,-1.10442 0.4136,-1.91229 0.99466,-2.73601c0.40375,-0.57236 0.99142,-1.0853 1.54532,-1.91466c0.51663,-0.77356 0.89987,-1.593 1.27469,-2.38934c0.33853,-0.71925 0.57718,-1.75452 0.944,-2.54399c0.32532,-0.70013 0.89468,-1.41672 1.33331,-2.5c0.27969,-0.69075 0.26471,-1.41083 0.77634,-2.36684c0.35208,-0.65788 0.98947,-1.23822 1.75668,-2.22101c0.40393,-0.51741 0.8064,-1.03012 1.22964,-1.80949c0.58871,-1.08409 0.70825,-1.75331 1.14001,-2.53867c0.42236,-0.76825 0.95941,-1.5412 1.40933,-2.30934c0.53503,-0.91344 0.8963,-1.61076 1.34265,-2.34265c0.49408,-0.81015 0.87097,-1.34258 1.51202,-2.412c0.42117,-0.70262 0.75812,-1.35492 1.26666,-2.36667c0.30127,-0.59937 0.69366,-1.40321 1.10132,-2.20134c0.42804,-0.83806 0.96042,-1.7684 1.284,-2.284c0.52753,-0.84056 0.91888,-1.41937 1.51468,-2.31467c0.39847,-0.5988 0.98553,-1.47511 1.34283,-2.04283c0.64728,-1.02844 1.02686,-1.71823 1.35266,-2.35266c0.51352,-0.99994 0.90662,-1.80345 1.3045,-2.60451c0.40213,-0.80962 0.71542,-1.45091 1.10001,-2.42117c0.31259,-0.7886 0.53729,-1.60078 1.00015,-2.43616c0.37225,-0.67188 1.07965,-1.46678 1.548,-2.14801c0.50485,-0.73433 1.05392,-1.64806 1.2905,-2.33333c0.33371,-0.96658 0.53241,-1.692 1.06134,-2.49466c0.45856,-0.69583 1.11499,-1.47981 1.5,-2.1875c0.31229,-0.57399 0.80002,-1.57916 1.10001,-2.17917c0.49988,-0.9998 0.93292,-1.75882 1.23334,-2.63333c0.27902,-0.81223 0.60876,-1.70982 1.01733,-2.42801c0.29825,-0.52423 0.84048,-1.56458 1.04398,-2.28149c0.23984,-0.84492 0.67334,-1.85716 1.10535,-2.45717c0.43201,-0.60001 0.83865,-1.6169 1.10535,-2.39999c0.27994,-0.82201 0.82187,-1.36438 1.32666,-2.28534c0.38678,-0.70564 0.46478,-1.55173 0.67334,-2.362c0.27045,-1.05075 0.75562,-1.71695 1.24649,-2.34816c0.62604,-0.80502 1.16238,-1.60651 1.36151,-2.28984c0.28436,-0.97581 0.04758,-1.8409 0.45331,-2.81467c0.31342,-0.7522 0.77374,-1.57225 0.85867,-2.332c0.13068,-1.16924 0.2532,-1.76802 0.47467,-2.64717c0.21082,-0.83682 0.39493,-1.83838 0.52533,-2.71016c0.12173,-0.81384 0.41208,-1.62076 0.67917,-2.26784c0.39761,-0.96329 0.68732,-1.77118 0.99551,-2.59016c0.38953,-1.03511 0.75037,-1.69539 1.01465,-2.55133c0.3046,-0.98645 0.25168,-1.64862 0.50684,-2.82251c0.17459,-0.80322 0.30975,-1.3557 0.87851,-2.43616c0.3526,-0.66985 0.91641,-1.46896 1.19998,-2.1525c0.31863,-0.76805 0.70279,-1.82236 0.99551,-2.533c0.35065,-0.8513 0.61749,-1.85892 0.7045,-2.478c0.16113,-1.14662 0.35614,-1.9309 0.57468,-2.75383c0.14362,-0.54073 0.33698,-1.77334 0.478,-2.62083c0.13492,-0.81087 0.46127,-1.60783 0.94733,-2.6045c0.29581,-0.60656 0.71738,-1.45015 1.10001,-2.4215c0.20956,-0.53199 0.50278,-1.38824 0.89999,-2.5785c0.20007,-0.59953 0.50092,-1.49448 0.64282,-2.1c0.27902,-1.1907 0.32196,-2.10091 0.38251,-2.7c0.12152,-1.20216 0.32193,-2.09243 0.47467,-2.65833c0.20865,-0.77302 0.40976,-1.89894 0.72134,-2.86317c0.23148,-0.71634 0.62289,-1.67663 0.75333,-2.46783c0.11932,-0.72376 0.52158,-1.56266 1.02533,-2.54401c0.33713,-0.65675 0.61539,-1.44012 0.83334,-2.5c0.14371,-0.69882 0.00845,-1.51888 0.17734,-2.53066c0.14481,-0.86754 0.80594,-1.64104 1.04199,-2.39317c0.28448,-0.90652 0.65918,-1.64373 1.04715,-2.44283c0.38669,-0.79647 0.74442,-1.79813 0.87485,-2.58933c0.11932,-0.72376 0.49353,-1.56337 1.02533,-2.37733c0.42648,-0.65277 0.7934,-1.43801 1.20001,-2.232c0.39365,-0.76862 0.99011,-1.52682 1.36398,-2.26266c0.42389,-0.83431 0.37653,-1.84797 0.52002,-2.57067c0.19403,-0.97727 0.7489,-1.63121 1.21597,-2.42516c0.42981,-0.73062 0.80002,-1.54283 1.20001,-2.34283c0.5,-1 0.84244,-1.57543 1.14282,-2.34283c0.39508,-1.00931 0.4751,-1.84679 0.81451,-2.50383c0.45212,-0.87524 1.08051,-1.57859 1.54349,-2.1015c0.70547,-0.7968 1.2847,-1.19704 1.83218,-2.242c0.34143,-0.65165 0.60934,-1.65377 0.87149,-2.2715c0.40536,-0.95521 0.62708,-1.77441 0.99551,-2.47133c0.50613,-0.95737 1.15527,-1.6494 1.35266,-2.41883c0.23398,-0.91206 0.83801,-1.37035 1.42648,-2.14817c0.56161,-0.7423 0.6875,-1.66667 1.02084,-2.5c0.33334,-0.83333 0.55267,-1.63833 1.30133,-2.084l0.76266,-0.45467" id="svg_11" stroke-width="2" stroke="#000" fill="none"/>
  <path t="35826,35857,35857,35885,35885,35895,35895,35906,35906,35923,35923,35939,35956,35956,35956,35956,35973,35973,35973,35973,35973,35989,35989,35989,35989,36006,36006,36006,36006,36026,36026,36026,36098,36098,36099" d="m309,293c1.564,-0.61066 1.86285,-1.50555 2.56934,-2.20132c0.53717,-0.52899 1.41458,-1.11563 1.79468,-1.61334c0.64529,-0.84497 1.43271,-1.20871 1.93149,-1.89517c0.53479,-0.73602 0.59018,-1.71658 1.03784,-2.45682c0.46445,-0.76797 0.96417,-1.14832 1.44,-1.69067c0.87708,-0.99973 1.5307,-1.79727 1.87732,-2.20801c0.69608,-0.82486 1.00873,-1.25333 2.01599,-2.26801c0.54425,-0.54825 1.10202,-0.91019 1.72433,-1.52014c0.86984,-0.8526 1.21625,-1.50229 1.58817,-2.16736c0.37567,-0.67175 0.85419,-1.64581 1.26367,-2.46481c0.3465,-0.69302 0.85699,-1.71436 1.23633,-2.51434l0.2355,-0.60001" id="svg_12" stroke-width="2" stroke="#000" fill="none"/>
  <path t="37122,37236,37236,37252,37284,37284,37284,37295,37295,37295,37295,37307,37307,37307,37324,37324,37324,37340,37340,37357,37357,37357,37390,37390,37390,37407,37407,37407,37407,37424,37424,37440,37440,37457,37457,37474,37474,37490,37490,37490,37490,37507,37507,37524,37524,37524,37524,37540,37540,37540,37557,37557,37574,37574,37574,37590,37590,37590,37607,37607,37607,37623,37623,37623,37639,37640,37640,37656,37656,37656,37656,37673,37673,37673,37689,37689,37689,37706,37706,37706,37723,37723,37723,37723,37739,37739,37756,37756,37756,37773,37773,37773,37789,37789,37789,37806,37824,37824,37839,37839,37839,37857,37857,37873,37873,37873,37889,37889,37889,37906,37906,37906,37923,37923,37939,37939,37956,37956,37973,37973,38000,38001,38001,38010,38023,38023,38039,38056,38090,38215,38270,38280,38280,38290" d="m386,150c1.16666,-1 1.57611,-1.59927 1.98532,-2.41066c0.45914,-0.91037 0.9111,-1.42204 1.36652,-2.10817c0.52325,-0.78833 0.89551,-1.7865 1.14816,-2.48117c0.25266,-0.69467 0.63974,-1.68301 1.14816,-2.49017c0.46631,-0.7403 1.05063,-1.66737 1.1825,-2.19249c0.19733,-0.78583 0.26489,-2.01709 0.60535,-2.65601c0.47113,-0.88416 0.97061,-1.4939 1.36398,-2.26266c0.40823,-0.79784 0.83591,-1.67072 1.08536,-2.16933c0.59842,-1.19612 0.93469,-1.87212 1.28931,-2.54268c0.33633,-0.636 1.03073,-1.57856 1.46368,-2.43033c0.35828,-0.70486 0.2905,-1.65558 0.71884,-2.50366c0.34998,-0.69292 0.97974,-1.40247 1.34283,-2.27151c0.33463,-0.80089 0.60254,-1.78013 0.77914,-2.46033c0.17047,-0.6566 0.33511,-2.00317 0.61816,-2.66084c0.42142,-0.97919 0.96552,-1.36953 1.42352,-1.88084c0.71304,-0.79602 1.3674,-1.53722 1.80716,-2.24316c0.50632,-0.81276 0.87201,-1.636 1.272,-2.436c0.39999,-0.8 0.81339,-1.60462 1.10001,-2.25717c0.4198,-0.95571 0.69177,-1.77121 1,-2.59016c0.38965,-1.03529 0.70847,-1.72363 1,-2.40533c0.41208,-0.96359 0.69397,-1.77489 1,-2.59467c0.29422,-0.78818 0.69223,-1.73707 1.05716,-2.40533c0.53726,-0.9839 0.91791,-1.48959 1.3815,-2.358c0.3103,-0.58125 0.70914,-1.78649 0.79999,-2.38933c0.1351,-0.89651 0.19485,-1.8077 0.41852,-2.6955c0.22104,-0.87732 0.63611,-1.9407 0.94281,-2.65183c0.29361,-0.6808 0.70578,-1.61716 1,-2.40533c0.30603,-0.81978 0.4762,-1.37321 0.90002,-2.362c0.37891,-0.884 0.79065,-1.69013 1.21066,-2.496c0.33902,-0.65046 0.91412,-1.60844 1.23749,-2.142c0.49612,-0.81863 1.05832,-1.86926 1.242,-2.58566c0.20255,-0.7899 0.58209,-1.64072 0.94318,-2.46167c0.33954,-0.77198 0.4321,-1.7747 0.6875,-2.5c0.26038,-0.7394 0.81079,-1.67506 1.17917,-2.30534c0.54855,-0.93858 0.80423,-1.73486 1,-2.30367c0.40884,-1.18782 0.58899,-1.79037 0.89999,-2.655c0.38641,-1.07431 0.72543,-1.7672 0.96399,-2.42533c0.36069,-0.99501 0.27786,-1.83858 0.6575,-2.78933c0.27988,-0.70092 1.02252,-1.4832 1.3425,-2.196c0.41211,-0.91798 0.46478,-1.64125 0.72,-2.59333c0.19763,-0.73717 0.42288,-1.46617 0.69067,-2.57066c0.23871,-0.98451 0.4053,-1.76863 1.12515,-2.4185c0.67294,-0.60754 0.81149,-1.34721 0.90018,-2.24283c0.08374,-0.8457 1,-1 1.79999,-1l0.90002,0.05717" id="svg_13" stroke-width="2" stroke="#000" fill="none"/>
  <path t="39170,39286,39301,39301,39320,39320,39340,39340,39340,39356,39356,39372,39372,39389,39390,39390,39406,39406,39406,39407,39423,39423,39440,39440,39456,39456,39472,39472,39490,39506,39506,39522,39522,39539,39539,39556,39556,39556,39572,39572,39589,39589,39606,39607,39607,39622,39622,39639,39656,39656,39656,39672,39672,39672,39689,39689,39834,39850" d="m408,87c0,-1.75716 -0.05319,-2.66348 0.05716,-3.4045c0.15045,-1.01017 0.54922,-1.79759 0.94284,-2.5955c0.39569,-0.80213 0.79312,-1.60348 1.20001,-2.39867c0.39337,-0.76876 0.94055,-1.55225 1.39999,-2.26266c0.55045,-0.8511 0.80606,-1.60851 1,-2.16c0.41293,-1.17419 0.69574,-2.07564 0.89999,-2.65783c0.29388,-0.83767 0.67325,-1.8473 1,-2.47917c0.46289,-0.89518 1.11081,-1.49322 1.41599,-2.52567c0.19821,-0.67059 0.32956,-1.6626 0.88535,-2.31467c0.55054,-0.64592 1.06186,-1.52561 1.19867,-2.20133c0.1991,-0.98347 0.65295,-1.59782 1.20001,-2.48533c0.43463,-0.70513 0.78625,-1.52177 1.19998,-2.304c0.38727,-0.73221 1.02472,-1.56685 1.39999,-2.09467c0.65536,-0.92181 0.92181,-1.54681 1.52133,-2.31583c0.47687,-0.61168 1.19434,-1.31517 1.92151,-2.043c0.5556,-0.55609 1.23029,-1.1344 1.75717,-2.0905c0.35608,-0.64615 0.53687,-1.48101 1.16666,-2.33334c0.4245,-0.5745 1.18066,-1.0815 1.94669,-1.81733l0.345,-0.516l0.42032,-0.9785l0.20535,-0.82017" id="svg_14" stroke-width="2" stroke="#000" fill="none"/>
  <path t="40605,40781,40797,40816,40905,40979,40979" d="m384,48c1.22134,0.87867 1.94733,1.35266 2.436,1.964l0.8685,0.0405l0.86215,0.16217l0.83334,0.35416" id="svg_15" stroke-width="2" stroke="#000" fill="none"/>
  <path t="41610,41765,41806,41824,41839,41863,41883,41883,41913,42082,42116" d="m394,36c1.70001,0 2.71979,-0.1571 3.5,0.02083c0.96201,0.21939 1.59839,0.87024 2.5,0.97917c0.79871,0.09649 1.60001,0.57467 2.39999,0.964l0.89999,0.036" id="svg_16" stroke-width="2" stroke="#000" fill="none"/>
  <path t="42560,42763,42763,42763,42797,42812,42832,42852,42902,42925,43037,43037,43053" d="m412,25c1,1.16667 1.68317,1.43414 2.47916,2c0.60034,0.42677 0.91678,1.44896 1.62067,1.87867c0.7778,0.47482 1.25735,1.06867 2.10019,1.40533l0.79999,0.54933l0.70001,0.16217l0.89999,0.0405" id="svg_17" stroke-width="2" stroke="#000" fill="none"/>
  <path t="43750,43838,43871,43888,43905,43938,43938,43938,43955,43955,43955,43971,43971,43971,44097,44097,44139" d="m449,49c1.70001,0 2.7175,-0.14678 3.5,0.02083c0.85263,0.18263 1.65161,1.00594 2.34668,1.37917c0.60284,0.32371 1.57947,0.68798 2.37866,1.01067c0.82715,0.33397 1.63324,0.72129 2.31299,1.242c0.64038,0.49054 1.44016,1.32566 1.94083,1.80566l0.81635,0.489" id="svg_18" stroke-width="2" stroke="#000" fill="none"/>
  <path t="44750,44900,44900,44915,44955,44956,44971,44972,44972,44972" d="m447,63c1.82535,1.4 2.55374,1.74915 3.24283,2.3c0.80545,0.64387 1.29883,1.22083 2.09052,1.86666l0.67648,0.486l0.51102,0.34734l0.79648,0.516" id="svg_19" stroke-width="2" stroke="#000" fill="none"/>
  <path t="45494,45585,45619,45639,45656,45656,45656,45672,45672,45849" d="m446,74c0,1.8 -0.07761,2.6684 0.44666,3.41067c0.60229,0.85275 1.20602,1.2375 1.90067,1.8795l0.76733,0.54183l0.68402,0.336l0.59067,0.69334" id="svg_20" stroke-width="2" stroke="#000" fill="none"/>
  <path t="46184,46302,46302,46318,46318,46360,46360,46396,46396,46396,46396" d="m434,88c0.16666,1.83334 0.89218,2.06862 1.65717,2.35267c0.75308,0.27963 1.75369,0.51756 2.57883,0.70866c0.94458,0.21877 1.71219,0.644 2.50269,1.088l0.49197,0.28267" id="svg_21" stroke-width="2" stroke="#000" fill="none"/>
 </g>
 <g display="none">
  <title>muse_image</title>
  <image xlink:href="http://farm4.static.flickr.com/3388/3298944812_993b6c1c2c.jpg" id="muse" height="480" width="316" y="0" x="162"/>
 </g>
 <g display="none">
  <title>bbox</title>
  <rect stroke="#f00" fill="none" stroke-width="3" height="452.16" width="249.92727" y="11.52" x="186.89697" id="bbox"/>
 </g>
</svg>
