<svg width="640" height="480" xmlns="http://www.w3.org/2000/svg" xmlns:svg="http://www.w3.org/2000/svg" xmlns:xlink="http://www.w3.org/1999/xlink">
 <!-- Sketchy ANNOTATION
  ImageNet ID: n02676566_6430
  URL: http://farm1.static.flickr.com/187/369892167_91927a88d8.jpg
  Image Width: 375
  Image Height: 500
  BBox X: 88
  BBox Y: 1
  BBox Width: 190
  BBox Height: 498
  Exposure: 2000ms
  Synset Label: guitar
  Synset ID: n03467517
  Worker Tag: acoustic guitar
  Sanity Check: 
   Saved
  Comment: 
   {}
  Worker ID: A1P7U2ULSAE7YL
  Assignment ID: 39GAF6DQWR0LCBGMRCVOOWLM75H1VY
  HIT ID: 3YGE63DIN8XWXRXFV1RI79Q56C00WU
  Work Time: 127s
  Worker Score: 0.7857
 END ANNOTATION -->
 <g display="inline">
  <title>Layer 1</title>
  <path t="0,212,213,221,252,284,300,301,317,333,356,364,380,404,428,445,469,477,492,509,509,516,525,533,541,548,564,572,581,589,597,597,605,612,637,637,644,652,660,678,685,685,692,700,700,709,725,741,741,749,756,772,780,780,796,812,812,828,828,828,844,852,852,860,868,885,893,901,916,917,932,932,948,956,972,988,997,1005,1005,1013,1022,1029,1038,1045,1060,1068,1076,1076,1084,1092,1108,1116,1124,1140,1149,1149,1157,1172,1180,1189,1204,1212,1221,1238,1244,1245,1253,1260,1270,1277,1285,1293,1310,1317,1317,1332,1340,1340,1349,1364,1373,1381,1396,1412,1413,1428,1429,1438,1445,1455,1470,1470,1477,1493,1516,1517,1525,1533,1556,1565,1596,1620,1621,1644,1645,1645,1660,1676,1694,1709,1717,1725,1748,1757,1764,1788,1788,1812,1820,1844,1876,1892,1901,1916,1932,1941,1941,1958,1965,1974,1989,2020,2029,2044,2069,2069,2077,2093,2101,2116,2132,2141,2157,2180,2204,2220,2236,2252,2261,2261,2270,2285,2300,2308,2332,2340,2357" d="m291.51135,311.09091c0,1 0.39294,1.93036 -0.08533,2.71466c-0.49005,0.80362 -0.91467,1.38535 -0.91467,2.28534c0,0.79999 -0.04553,1.70657 -0.5,2.5c-0.40439,0.70599 -0.38287,1.60727 -0.5,2.52533c-0.11154,0.87448 -0.95728,1.25702 -1,2.17468c-0.04187,0.89902 0.28644,1.91434 -0.16666,2.63333c-0.44431,0.70502 -0.74829,1.38242 -1.25867,2.10532c-0.46344,0.65643 -0.30078,1.50568 -0.57916,2.35684c-0.26248,0.80252 -0.82635,1.23193 -1.28082,1.90317c-0.53586,0.79147 -1.63095,0.95563 -1.71469,1.80133c-0.07883,0.79608 0,1.70001 0,2.64282c0,0.92651 0.12405,1.71832 -0.00449,2.60001c-0.14368,0.98544 -0.9111,1.57791 -0.99551,2.40384c-0.08514,0.83301 0.05084,1.74387 -0.35266,2.59616c-0.38376,0.81058 -0.76639,1.53668 -1.22198,2.35718c-0.4342,0.78195 -0.69321,1.61548 -1.22668,2.19998c-0.65689,0.7197 -1.07278,1.50235 -1.19882,2.42151c-0.10815,0.78873 -0.69626,1.45911 -0.99985,2.29935c-0.3418,0.94595 -0.61066,1.68982 -1,2.47916c-0.38931,0.78934 -0.83286,1.49036 -0.97916,2.5c-0.1178,0.81296 0.00677,1.67706 -0.52084,2.47916c-0.43903,0.66745 -0.49777,1.52084 -0.5,2.42084c-0.00226,0.89999 -0.38214,1.74844 -0.71597,2.48535c-0.33017,0.72885 -0.28336,1.63065 -0.28403,2.59381c-0.00064,0.92084 0,1.81635 0,2.69019c0,0.8515 0,1.80914 0,2.62933c0,0.90134 0,1.80133 0,2.70132c0,0.89999 0,1.79999 0,2.70001c0,0.89999 0,1.79999 0,2.59998c0,0.90002 0,1.80002 0,2.70001c0,0.89999 0,1.79999 0,2.70132c0,0.96533 0,1.77783 0,2.68884c0,0.81433 0,1.70984 0,2.60983c0,0.89999 0,1.79999 0,2.70001c0,0.89999 -0.17642,1.83923 0.08536,2.59998c0.26825,0.77957 1.33334,1.23419 1.79315,2.07867c0.35806,0.65759 0.73962,1.43167 1.03616,2.32135c0.28586,0.85764 -0.1004,1.8425 0.17068,2.59998c0.32248,0.90112 1.24551,1.30795 1.62933,2c0.45728,0.82449 -0.1384,1.91592 0.32132,2.76401c0.3566,0.65784 1.41153,0.86066 2.064,1.53616c0.50916,0.52713 1.14352,1.36194 1.46402,2.07449c0.41122,0.91428 0.83344,1.495 1.35199,2.11069c0.56049,0.66547 0.83072,1.57584 1.48401,2.104c0.74481,0.60214 1.81393,0.72849 2.24283,1.31516c0.55521,0.75946 1.15897,0.93225 1.92117,1.33151c0.7583,0.39722 1.20441,1.23572 1.60266,1.96399c0.38229,0.6991 1.15448,1.32117 1.64798,1.81467c0.61603,0.616 1.5668,1.15012 2.16,1.61066c0.67148,0.5213 1.44272,0.66415 2.05069,1.14935c0.62451,0.49838 1.59451,0.42291 2.37466,0.85065c0.82291,0.4512 1.65082,0.87552 2.29999,1.22202c0.84937,0.45334 1.8129,0.31366 2.31067,0.77798c0.55063,0.51364 1.38934,0.57468 2.28934,0.57468c0.89999,0 1.79999,0 2.69998,0c0.80002,0 1.70001,0 2.60001,0c0.89999,0 1.78934,0 2.75717,0c0.84283,0 1.74283,0 2.64282,0c0.80002,0 1.70016,-0.01682 2.60001,0c0.96454,0.01801 1.39429,0.81808 2.20135,0.99866c0.87698,0.19623 1.76266,0.00134 2.71948,0.00134c0.87918,0 1.77917,0 2.67917,0c0.89999,0 1.79999,0 2.60001,0c0.89999,0 1.79999,0 2.69998,0c0.88934,0 1.78534,0 2.70001,0l0.89999,-0.00015" id="svg_1" stroke-width="2" stroke="#000" fill="none"/>
  <path t="3565,3724,3724,3740,3756,3756,3764,3764,3780,3788,3804,3820,3844,3860,3860,3884,3900,3916,3932,3940,3940,3948,3972,3980,3996,4005,4012,4021,4028,4036,4068,4076,4092,4108,4108,4118,4118,4132,4148,4148,4164,4172,4180,4188,4196,4212,4222,4222,4228,4244,4252,4252,4268,4284,4292,4308,4317,4324,4334,4334,4340,4348,4356,4364,4372,4372,4380,4389,4404,4412,4412,4420,4428,4436,4452,4452,4460,4476,4476,4484,4500,4500,4508,4517,4534,4540,4548,4548,4564,4572,4580,4604,4612,4628,4636,4653,4653,4669,4692,4708,4732,4764,4788,4812,4828,4828,4836,4853,4868,4876,4892,4908,4917,4948,4948,4972,4980,4988,4996,5012,5028,5036,5052,5071,5071,5092,5108,5117,5124,5148,5164,5172,5181,5196,5196,5204,5212,5220,5228,5237,5244,5260,5276,5300,5316,5316,5332,5348,5380,5388,5412,5460,5460,5484,5524,5540,5540,5556,5580,5612,5644,5660,5669,5669,5700,5732,5756,5764,5788,5804,5820,5860,5860,5884,5893,5925,5965,6005,6045,6069,6093,6101,6109,6149,6158,6168,6183,6189,6221,6229,6245,6261,6261,6277,6285,6326,6357,6381,6429,6501,6677,6709,6717,6765,6797,6821,6877" d="m375.51135,309.09091c1.16669,1 1.655,1.56509 1.97467,2.41068c0.33365,0.88251 0.63687,1.55319 0.90384,2.56781c0.21094,0.80167 -0.24167,1.81842 0.1575,2.58551c0.39514,0.75937 1.36151,1.10562 1.88,1.72134c0.56039,0.6655 0.54401,1.64914 1.0795,2.35748c0.42215,0.55841 1.0015,1.06168 1.00449,1.99316c0.00272,0.84668 0.12521,1.6058 0.64734,2.41217c0.40384,0.62366 0.34308,1.55191 0.35266,2.45184c0.01044,0.97931 0.7587,1.44141 0.99551,2.2045c0.25504,0.82178 0.72772,1.29044 1.0405,1.90616c0.39862,0.7847 0.81317,1.61053 1.13068,2.556c0.22339,0.66525 0.98267,1.3125 1.548,1.91602c0.51852,0.55353 0.67282,1.55624 0.93265,2.26465c0.3667,0.99973 0.27963,2.00284 0.77802,2.62735c0.4852,0.60797 0.44116,1.43594 0.57916,2.32532c0.14438,0.93039 0.99261,1.14102 1.63834,1.80984c0.56763,0.58795 0.35715,1.72351 0.35715,2.60349c0,0.89734 0,1.78668 0,2.67603c0,0.896 -0.1087,1.87125 0.35269,2.5625c0.46347,0.69437 0.77026,1.29233 1.29465,2.09631c0.40588,0.62231 0.35202,1.55185 0.35266,2.47269c0.00067,0.96182 0.08527,1.75006 0.57468,2.49384c0.4505,0.6846 0.38736,1.54541 0.70935,2.46933c0.24658,0.70758 0.42917,1.75833 1,2.43198c0.51422,0.60684 0.71597,1.40533 0.71597,2.08401c0,1.11465 0,2 0,2.79999c0,0.91467 0,1.76935 0,2.55185c0,1.01218 0,1.94815 0,2.84818c0,0.89999 0,1.79999 0,2.59998c0,0.90002 0,1.80002 0,2.67917c0,0.87802 0,1.82083 0,2.72086c0,0.89999 0,1.79999 0,2.59998c0,0.90002 0,1.80002 0,2.70001c0,0.88934 0,1.78534 0,2.70001c0,0.89999 0,1.79999 0,2.59998c0,0.90002 0,1.80002 0,2.70001c0,0.89999 0,1.79999 0,2.69867c0,0.854 0.02536,1.80173 0,2.60132c-0.02859,0.9014 -0.50314,1.69815 -0.91599,2.39868c-0.44003,0.74667 -1.07358,1.32199 -1.08401,2.20132c-0.01068,0.89993 0.18881,1.86923 -0.22131,2.69983c-0.34937,0.70758 -0.67502,1.61185 -1.38934,1.8895c-0.88965,0.34579 -1.21085,0.68069 -1.41016,1.53152c-0.22073,0.94223 -0.58725,1.78455 -1.2645,2.39514c-0.64609,0.58252 -1.18613,1.03076 -1.76733,1.72684c-0.49353,0.59103 -1.47095,0.8176 -2.24283,1.3045c-0.70242,0.44312 -1.16833,1.1817 -1.75717,1.70001c-0.65057,0.57266 -1.47833,0.84302 -2.146,1.55267c-0.54227,0.57635 -0.40503,1.63028 -0.83734,2.37466c-0.39673,0.68311 -1.41235,0.66736 -2.048,1.14133c-0.76883,0.57327 -1.82675,-0.08035 -2.55884,0.34116c-0.81149,0.46725 -1.35718,0.94284 -2.15717,0.94284c-0.89999,0 -1.79999,0 -2.67917,0c-0.95682,0 -1.87747,-0.13657 -2.72083,0.284c-0.66165,0.32993 -1.5,0.71375 -2.39999,0.716c-0.90002,0.00226 -1.80002,0 -2.70001,0c-0.89865,0 -1.784,0 -2.70001,0c-0.79999,0 -1.69998,0 -2.59998,0c-0.90002,0 -1.80002,0 -2.70001,0c-0.89999,0 -1.80438,-0.08868 -2.70001,0c-0.84567,0.08374 -1.18585,0.68848 -1.87866,1.22134c-0.63751,0.49033 -0.92786,1.44986 -1.64215,1.75781c-0.88025,0.37952 -1.83633,0.02084 -2.67917,0.02084c-0.89999,0 -1.84253,-0.18573 -2.60001,0.08533c-0.90109,0.32245 -1.21948,1.36142 -2.07867,1.79318c-0.74585,0.37482 -1.72134,0.11609 -2.62134,0.12149c-0.88937,0.00534 -1.37393,0.72559 -2.11066,0.98932c-0.83737,0.29977 -1.78934,0.01068 -2.68933,0.01068l-0.89999,0l-0.89984,0" id="svg_2" stroke-width="2" stroke="#000" fill="none"/>
  <path t="8813,9061,9061,9069,9085,9093,9109,9125,9141,9141,9165,9181,9197,9221,9237,9245,9261,9277,9285,9301,9309,9325,9333,9349,9357,9373,9381,9397,9413,9413,9421,9421,9429,9446,9462,9477,9493,9509,9509,9525,9525,9541,9549,9557,9557,9573,9589,9589,9597,9605,9621,9629,9646,9662,9679,9685,9693,9701,9717,9733,9749,9757,9765,9781,9789,9805,9813,9813,9829,9845,9869,9901,9917,9941,9949,9965,9965,9981,9989,10005,10021,10029,10061,10085,10085,10093,10117,10125,10125,10133,10157,10165,10173,10181,10189,10205,10221,10237,10261,10277,10285,10317,10333,10341,10365,10374,10374,10381,10405,10421,10421,10429,10445,10453,10462" d="m290.51135,311.09091c0,-1 0,-1.79999 0,-2.70001c0,-0.89999 0.05292,-1.83472 -0.35266,-2.59998c-0.4483,-0.84589 -0.64734,-1.70001 -0.64734,-2.5c0,-0.90002 -0.03265,-1.73065 -0.5,-2.22086c-0.52881,-0.55469 -0.5,-1.57916 -0.5,-2.47916c0,-0.89999 0.16702,-1.81589 -0.00131,-2.69867c-0.14441,-0.75739 -0.98068,-1.23679 -0.99869,-2.10132c-0.01874,-0.89984 0.31308,-1.8638 -0.02081,-2.70001c-0.30569,-0.76563 -0.96118,-1.39944 -0.97919,-2.3045c-0.01715,-0.86197 0.05054,-1.69681 -0.00015,-2.67401c-0.04269,-0.82346 -0.74677,-1.55865 -0.96384,-2.42148c-0.21976,-0.8735 -0.03601,-1.80002 -0.03601,-2.70001c0,-0.89999 0,-1.65717 0,-2.55267c0,-0.86331 0.14529,-1.83972 -0.01065,-2.74731c-0.14337,-0.83444 -0.8111,-1.46365 -0.95334,-2.42535c-0.14758,-0.99777 0.31134,-1.84344 -0.05682,-2.65381c-0.35132,-0.77328 -0.97693,-1.22534 -0.97919,-2.12085c-0.00226,-0.89999 0,-1.79999 0,-2.69998c0,-0.90002 0,-1.79984 0,-2.72534c0,-0.776 0,-1.80801 0,-2.58533c0,-0.88934 0,-1.78934 0,-2.68933c0,-0.90002 0,-1.80002 0,-2.70001c0,-0.8 0,-1.7 0,-2.60001c0,-0.96399 0,-1.836 0,-2.7c0,-0.89999 0,-1.8 0,-2.7c0,-0.8 0,-1.7 0,-2.60001c0,-0.89999 -0.00073,-1.79999 0,-2.78932c0.00067,-0.89601 0.19312,-1.73471 0.70453,-2.31067c0.65021,-0.73225 1.25275,-1.4966 1.29547,-2.3c0.04248,-0.79887 0.0545,-1.70149 0.5,-2.5c0.44467,-0.79701 0.9761,-1.24191 1.7955,-1.5045c0.75772,-0.24283 0.52005,-1.64191 1.22534,-1.97467c0.78568,-0.3707 1.78653,0.17726 2.67783,-0.02216c0.80707,-0.18057 1.35022,-0.71747 2.15402,-1.00317c0.7681,-0.27301 1.29462,-0.96198 2.12997,-0.99683c0.80875,-0.03374 1.50638,-0.81158 2.27902,-0.99417c0.86279,-0.20389 1.66901,-0.08983 2.32098,-0.7205l0.80402,-0.28267l0.92798,-0.00133l0.9425,0" id="svg_3" stroke-width="2" stroke="#000" fill="none"/>
  <path t="11429,11661,11677,11685,11693,11709,11717,11726,11757,11765,11765,11797,11821,11869,11885,11894,11894,11901,11925,11941,11941,11958,11973,11989,11998,12005,12021,12045,12120,12120,12127,12127,12127,12127,12133,12133,12149,12158,12158,12174,12205,12213,12213,12221,12229,12253,12269,12293,12301,12309,12333,12349,12349,12357,12381,12389,12397,12405,12429,12429,12453,12461,12469,12485,12501,12512,12525,12542,12559,12565,12573,12581,12589,12605,12613,12629,12646,12646,12662,12662,12685,12694,12701,12712,12717,12725,12749,12765,12773,12781,12781,12797,12821,12837,12853,12853,12861,12885,12909,12909,12917,12933,12957,12973,13021,13037,13053,13085,13085,13125,13141,13173,13213,13221,13253,13269,13317,13317,13357,13405,13437,13445,13477,13509,13565,13597,13597,13621" d="m341.51135,224.09091c1.70001,0 2.70001,0 3.60001,0c0.89999,0 1.80002,0 2.70001,0c0.89999,0 1.79999,0 2.69998,0c0.80002,0 1.70001,0 2.56403,0c0.87198,0 1.7699,-0.10414 2.75714,0.2215c0.68652,0.22644 1.20322,1.07736 1.90036,1.65717c0.63818,0.53075 1.43109,0.92152 2.27847,1.10051c0.88083,0.18605 1.95044,-0.15361 2.47467,0.45683c0.61172,0.71233 1.13651,1.17073 1.85867,1.73067c0.64136,0.49727 1.02087,1.02075 1.7095,1.71866c0.49368,0.50034 0.94809,1.14307 1.509,1.70399c0.9769,0.97693 1.95831,0.85951 2.70517,1.63217c0.5668,0.58638 0.36505,1.55717 0.81766,2.37851c0.43628,0.79172 0.6297,1.72861 0.92532,2.37917c0.41907,0.92218 0.13541,1.83516 0.53601,2.59549c0.39603,0.75165 0.93613,1.2271 0.96399,2.12534c0.0293,0.94412 0.74521,1.5076 1.16669,2.3c0.34073,0.64059 0.82291,1.49982 0.83331,2.39999c0.01041,0.89995 0,1.79868 0,2.65268c0,0.94733 0,1.74733 0,2.64732c0,0.90001 0,1.8 0,2.7c0,0.89999 0,1.80002 0,2.70001c0,0.89999 0,1.73334 0,2.60449c0,0.89551 0,1.7955 0,2.6955c0,0.89999 0,1.80002 0,2.70001c0,0.89999 0,1.65717 0,2.54816c0,0.7825 0.00241,1.78784 0,2.75183c-0.00226,0.89551 -0.6705,1.40686 -0.97916,2.12085c-0.34894,0.80719 -0.02084,1.77914 -0.02084,2.67917c0,0.89999 0.0372,1.80084 0,2.59998c-0.04272,0.91766 -0.93909,1.41525 -1,2.30002c-0.0618,0.89786 0.36435,1.81073 -0.05716,2.54282c-0.46722,0.81149 -0.94284,1.35718 -0.94284,2.15717c0,0.90002 0,1.80002 0,2.70001c0,0.88934 0,1.85718 0,2.70001c0,0.89999 0,1.79999 0,2.59998c0,0.90002 0,1.80002 0,2.70001c0,0.89999 0,1.79999 0,2.69867c0,0.88531 0,1.80133 0,2.60132c0,0.90002 -0.0054,1.80005 0,2.70001c0.00534,0.8894 0.47937,1.61188 1.05267,2.14734c0.68521,0.64001 1.11401,1.35266 1.522,1.95267l0.42532,0.87915" id="svg_4" stroke-width="2" stroke="#000" fill="none"/>
  <path t="22476,22588,22597,22604,22613,22620,22630,22630,22636,22644,22644,22652,22660,22660,22676,22685,22685,22692,22700,22700,22716,22716,22724,22733,22733,22756,22756,22766,22783,22783,22797,22797,22804,22813,22820,22844,22852,22852,22876,22876,22892,22900,22924,22948,22964,23044,23076,23116,23140,23164,23173,23196,23196,23212,23228,23244,23268,23300,23332,23356,23381,23381,23397,23413,23445,23453,23501,23517,23525,23541,23605,23629,23861,23973,23997,23997,24005,24016,24021,24029,24037,24046,24053,24063,24063,24069,24085,24085,24101,24102,24109,24118,24125,24125,24141,24149,24157,24173,24189,24205,24213,24221,24221,24245,24269,24285,24285,24293,24301,24318,24333,24334,24349,24357,24389,24453,24469,24549,24597,24613,24613,24661,24741" d="m313.51135,218.09091c0,1.8 0,2.7 0,3.60001c0,0.79999 0,1.7045 0,2.72133c0,0.67867 0,1.65717 0,2.67867c0,0.8 0,1.636 0,2.48267c0,0.948 0,1.879 0,2.83867c0,0.67867 0,1.65717 0,2.67867c0,0.75717 0,1.65266 0,2.51601c0,0.85866 0,1.80516 0,2.62267c0,1.028 0,1.748 0,2.68666c0,1.008 0,1.8 0,2.65866c0,0.86334 0,1.88 0,2.81601c0,0.89999 0,1.8 0,2.7c0,0.75717 0,1.65266 0,2.51601c0,0.96317 -0.00067,1.88399 0,2.78398c0.00067,0.89868 0.5668,1.37772 0.96402,2.13602c0.39926,0.76221 0.47144,1.54599 1.336,1.564c0.89981,0.01874 1.79999,0 2.69998,0c0.80002,0 1.70001,0 2.60001,0c0.89999,0 1.87918,0 2.75717,0c0.84283,0 1.74283,0 2.64282,0c0.80002,0 1.70007,0.01041 2.60001,0c0.90018,-0.01044 1.6033,-0.54321 2.5,-0.87851c0.85062,-0.31808 1.77869,-0.12149 2.60452,-0.12149c0.89548,0 1.70175,-0.09637 2.34814,-0.64734c0.6044,-0.51517 0.94733,-1.35266 0.94733,-2.15265c0,-0.90001 0,-1.80002 0,-2.70001c0,-0.89999 0,-1.8 0,-2.7c0,-0.90001 0,-1.8 0,-2.60001c0,-0.836 0,-1.85716 0,-2.60449c0,-0.99417 0,-1.75951 0,-2.71017c0,-0.98534 0,-1.88533 0,-2.68533c0,-0.89999 0,-1.8 0,-2.7c0,-0.89999 0,-1.8 0,-2.7c0,-0.90001 0,-1.8 0,-2.60001c0,-0.91466 0,-1.74167 0,-2.68399c0,-0.86334 0,-1.75883 0,-2.716c0,-0.90001 0,-1.8 0,-2.60001c0,-0.89999 0,-1.8 0,-2.67917c0,-0.87799 0,-1.82083 0,-2.72083c0,-0.90001 0,-1.8 0,-2.60001l0,-0.89999l-0.03598,-0.90001" id="svg_6" stroke-width="2" stroke="#000" fill="none"/>
  <path t="26493,26717,26742,26757,26781,26789,26797,26821,26821,26845,26861,26861,26885,26901,26917,26917,26926,26933,26933,26949,26957,26965,26973,26981,26989,26997,26997,27005,27013,27013,27021,27021,27029,27029,27037,27053,27053,27062,27063,27063,27069,27079,27079,27085,27093,27101,27109,27109,27117,27125,27126,27133,27133,27143,27143,27159,27165,27173,27173,27181,27189,27189,27197,27197,27205,27213,27213,27229,27229,27245,27245,27245,27253,27253,27262,27262,27269,27279,27279,27285,27285,27296,27296,27301,27310,27310,27317,27317,27325,27333,27342,27349,27349,27358,27358,27365,27365,27373,27373,27381,27381,27381,27389,27389,27397,27397,27398,27405,27405,27414,27414,27421,27437,27437,27445,27453,27453,27461,27469,27469,27479,27479,27485,27485,27495,27501,27501,27509,27509,27517,27517,27525,27525,27533,27533,27542,27549,27558,27558,27573,27573,27581,27581,27581,27597,27613,27629,27637,27645,27646,27661,27669,27685,27695,27701,27717,27733,27733,27741,27765,27774,27789,27797,27805,27829,27829,27853,27869,27901,27917,27949,27973,27997,27997,28029,28037,28053,28085,28093,28117,28157,28189,28189,28205,28245,28285,28893,28909,28917,28957,28981,29013,29029,29029,29053,29077,29077,29093,29101,29125,29253,29333,29333,29365,29389,29421,29541,29565,29613,30013,30037,30054,30061,30117,30117,30413,30429,30437,30453,30470,30477,30493,30501,30501,30509,30509,30517,30533,30541,30557,30565,30589,30597,30605,30605,30613,30621,30629,30638,30655,30669,30669,30677,30685,30693,30709,30709,30717,30717,30725,30733,30741,30741,30749,30757,30781,30789,30805,30805,30822,30822,30829,30829,30838,30855,30861,30893,30901,30909,30917,30917,30933,30942,30965,30981,30992,30997,31013,31021,31029,31038,31045,31061,31061,31070,31070,31077,31093,31101,31125,31133,31142,31149,31149,31159,31165,31173,31192,31192,31197,31205,31229,31229,31237,31245,31261,31270,31270,31277,31285,31301,31309,31317,31325,31333,31349,31357,31365,31381,31389,31389,31397,31409,31423,31429,31440,31454,31462,31470,31470,31485,31494,31502,31517,31535,31555,31562,31565,31565,31582,31594,31599,31616,31619,31619,31630,31645,31645,31673,31687,31688,31703,31717,31717,31743,31749,31759,31773,31789,31789,31797,31805,31813,31829,31837,31837,31845,31869,31877,31887,31893,31909,31917,31925,31925,31949,31973,31989,32020,32037,32053,32069,32093,32093,32124,32125,32157,32165,32197,32221,32245,32261,32261,32301,32317,32357,32397,32413,32445,32469" d="m313.51135,221.09091c0,-1.7 0,-2.60001 0,-3.5c0,-0.89999 0,-1.8 0,-2.7c0,-0.90018 0,-1.68533 0,-2.62534c0,-1.008 0,-1.813 0,-2.6955c0,-0.88985 0,-1.80051 0,-2.65384c0,-0.94 0,-1.82533 0,-2.62534c0,-0.89999 0,-1.8 0,-2.7c0,-0.89999 0,-1.8 0,-2.7c0,-0.90018 0,-1.68533 0,-2.62534c0,-1.008 0,-1.8 0,-2.66c0,-0.91916 0,-1.912 0,-2.64267c0,-0.95866 0,-1.939 0,-2.668c0,-1.03732 0,-1.74232 0,-2.71733c0,-0.86133 0,-1.808 0,-2.66133c0,-0.94 0,-1.92517 0,-2.77716c0,-0.75801 0,-1.56551 0,-2.54817c0,-0.98534 0,-1.71066 0,-2.69983c0,-0.77934 0,-1.77867 0,-2.59883c0,-1.03467 0,-1.84801 0,-2.68533c0,-0.86334 -0.01431,-1.89078 0.00018,-2.83734c0.01041,-0.67889 0.2775,-1.62656 0.64716,-2.37416c0.39429,-0.79739 0.35266,-1.78717 0.35266,-2.59467c0,-1.04317 0,-1.75151 0,-2.70984c0,-0.8 0,-1.60001 0,-2.60001c0,-0.79999 0,-1.79866 0,-2.74283c0,-0.89999 0,-1.75734 0,-2.5425c0,-0.95067 0,-1.716 0,-2.71017c0,-0.91916 0,-1.9045 0,-2.726c0,-0.88916 0,-1.87833 0,-2.65767c0,-0.99916 0,-1.85416 0,-2.6675c0,-0.83867 0,-1.75783 0,-2.752c0,-0.76534 0.0007,-1.71867 0,-2.57066c-0.00067,-0.8 0.03302,-1.82695 -0.16666,-2.864c-0.13867,-0.72025 -0.49326,-1.3342 -0.71182,-2.36667c-0.16699,-0.78883 -0.12152,-1.8 -0.12152,-2.60001c0,-0.8 0,-1.8 0,-2.6c0,-0.99866 0,-1.764 0,-2.83833c0,-0.92833 0,-1.64833 0,-2.587c0,-1.008 0,-1.764 0,-2.6955c0,-0.9645 0,-1.68983 0,-2.679c0,-0.77933 0,-1.77866 0,-2.59883c0,-0.9585 0,-1.8585 0,-2.60583c0,-0.9955 0,-1.7955 0,-2.79533c0,-0.77933 0,-1.77883 0,-2.68417c0,-0.94133 0,-1.632 0,-2.59516c0,-0.9315 0,-1.84234 0,-2.73151c0,-0.98933 0,-1.78933 0,-2.78933c0,-0.78934 0,-1.51467 0,-2.47916c0,-0.92084 0.10696,-1.82738 -0.00131,-2.72084c-0.11148,-0.91976 -0.84451,-1.56686 -0.98801,-2.39999c-0.15277,-0.88701 -0.01068,-1.8 -0.01068,-2.7c0,-0.9 0,-1.8 0,-2.7c0,-0.8 0,-1.71467 0,-2.61066c0,-0.88934 0.00064,-1.78934 0,-2.68934c-0.00067,-0.9 -0.30081,-1.75083 -0.64731,-2.4c-0.45334,-0.84937 -0.35269,-1.8 -0.35269,-2.7c0,-0.8955 0,-1.8215 0,-2.7c0,-0.9 0,-1.7 0,-2.60001c0,-0.89999 0,-1.8 0,-2.7c0,-0.9 0,-1.79867 0,-2.684c0,-0.916 0,-1.716 0,-2.616c0,-0.9 -0.30475,-1.85775 0.01068,-2.68933c0.27658,-0.72916 1.37866,-0.61066 2.3465,-0.61066c0.84283,0 1.74283,0 2.64282,0c0.80002,0 1.75717,0 2.65268,0c0.69467,0 1.71133,0 2.64734,0c0.89865,0 1.784,0 2.69998,0c0.80002,0 1.70001,0 2.60001,0c0.89999,0 1.80002,0 2.70001,0c0.89999,0 1.79999,-0.00066 2.69998,0c0.91467,0.00067 1.0531,0.85638 2,1c0.79099,0.11998 1.85358,0.04486 1.99869,0.80133c0.16931,0.88258 0.00131,1.79867 0.00131,2.69867c0,0.88933 0,1.78667 0,2.66666c0,0.83334 0,1.81184 0,2.632c0,0.90133 0,1.80133 0,2.70133c0,0.9 0,1.7955 0,2.7215c0,0.8785 0,1.7785 0,2.5785c0,0.9 0,1.8 0,2.7c0,0.9 0,1.8045 0,2.66666c0,0.8125 0,1.848 0,2.63467c0,0.95583 0,1.85583 0,2.60316c0,0.99417 0,1.75951 0,2.83834c0,0.85716 0,1.75716 0,2.55716c0,0.9 0,1.84283 0,2.72084c0,0.88983 0,1.80067 0,2.5c0,1.17899 0,1.95833 0,2.8125c0,0.86216 0,1.76666 0,2.66666c0,0.88934 0,1.85716 0,2.7c0,0.9 0,1.8 0,2.6c0,0.9 0,1.8 0,2.7c0,0.9 -0.00009,1.8 0,2.7c0.00009,0.89983 0.54843,1.46935 0.94284,2.15717c0.46988,0.8194 0.05716,1.84283 0.05716,2.743c0,0.78516 0,1.72517 0,2.41583c0,1.07333 0,1.984 0,2.87334c0,0.896 0,1.81066 0,2.71066c0,0.9 0,1.7 0,2.6c0,0.9 0,1.71067 0,2.62134c0,0.85333 0,1.79199 0,2.73134c0,0.94733 0,1.74733 0,2.64732c0,0.90001 0,1.71066 0,2.62134c0,0.85333 0,1.79333 0,2.77867c0,0.89999 0,1.73332 0,2.60449c0,0.89551 0,1.7955 0,2.6955c0,0.90001 0,1.8 0,2.70001c0,0.89999 0,1.7 0,2.59999c0,0.90001 0,1.8 0,2.7c0,0.90001 0,1.8 0,2.70001c0,0.89999 0,1.7 0,2.59999c0,0.90001 0,1.8 0,2.68933c0,0.89601 0,1.81067 0,2.71068c0,0.89999 0,1.7 0,2.59999c0,0.90001 0,1.8 0,2.71066c0,0.91051 0,1.72801 0,2.63751c0,0.95183 0,1.75183 0,2.58783c0,1.01666 0,1.71133 0,2.73866c0,0.94667 0,1.62534 0,2.60367c0,0.96899 0,1.823 0,2.65767c0,1.01666 0,1.71133 0,2.728c0,0.936 0,1.836 0,2.73601c0,0.89999 0,1.7 0,2.54283c0,0.96783 0,1.85716 0,2.75716c0,0.90001 0,1.8 0,2.70001c0,0.89999 0,1.7 0,2.59999c0,0.90001 0,1.77917 0,2.65717c0,0.94284 0,1.84283 0,2.74284c0,0.89999 0,1.65717 0,2.55266c0,0.86334 0,1.82651 0,2.74733c0,0.89551 0,1.76668 0,2.70001c0,0.89999 0,1.7 0,2.59999c0,0.90001 0,1.8 0,2.7l0,0.90001l0,0.89999l0,0.90001" id="svg_7" stroke-width="2" stroke="#000" fill="none"/>
  <path t="37309,37460,37460,37470,37476,37485,37501,37501,37501,37516,37516,37524,37534,37540,37551,37567,37580,37588,37588,37600,37600,37604,37613,37630,37636,37636,37644,37644,37653,37676,37685,37685,37701,37708,37708,37717,37717,37724,37740,37740,37750,37756,37788,37828,38140,38156,38172,38180,38188,38196,38213,38236,38236,38260,38260,38276,38300,38308,38332,38332,38356,38372,38404,38436,38452,38484,38500,38508,38509,38524,38540,38564,38572,38612,38644,38676,38716,38716,38732,38756,38772,38788,38796,38812,38828,38853,38868,38868,38884,38900,38917,38924,38933,38956,39012,39020,39044,39404,39404,39420,39436,39436,39452,39468,39748,39764,39780,39788,39796,39813,39820,39820,39836,39844,39852,39861,39861,39877,39894,39908,39924,39948,39948,39972,39996,40020,40020,40036,40036,40052,40052,40068,40077,40093,40110,40116,40132,40148,40156,40164,40180,40180,40204,40220,40244,40252,40300,40340,40340,40356,40452,40540,40588,40724,40764,40764,40861,40894,40910,40966" d="m311.51135,54.09091c-1.16666,-1 -1.74692,-1.53717 -1.96399,-2.4c-0.21976,-0.8735 0.0643,-1.82437 -0.20267,-2.76667c-0.19669,-0.69416 -0.64465,-1.42978 -1.12881,-2.42883c-0.2742,-0.56579 -0.6618,-1.5164 -0.70453,-2.5045c-0.03888,-0.89916 -0.44611,-1.44759 -0.91464,-2.18533c-0.43915,-0.69147 0.00839,-1.72765 -0.14252,-2.47183c-0.18683,-0.92139 -0.82584,-1.58004 -1.50684,-2.2575c-0.53433,-0.53154 -1.00952,-1.33628 -1.31448,-2.30667c-0.20569,-0.65453 -0.08344,-1.65805 -0.12152,-2.47733c-0.04272,-0.91897 -0.78482,-1.46431 -1.16666,-2.20133c-0.39063,-0.75395 -0.78799,-1.53537 -1.11734,-2.48533c-0.25598,-0.73829 -0.53604,-1.72607 -0.716,-2.473c-0.21518,-0.89311 -0.92834,-1.47875 -0.98932,-2.227c-0.08551,-1.04963 -0.62122,-1.54915 -0.97467,-2.24c-0.42474,-0.83018 -0.30093,-2.12203 0.32117,-2.5175c0.79715,-0.50674 1.84283,-0.05717 2.74283,-0.05717c0.89999,0 1.77884,0 2.61435,0c0.69467,0 1.68433,0 2.62848,0c0.90002,0 1.85718,0 2.75717,0c0.89999,0 1.70001,0 2.60001,0c0.86401,0 1.82083,0 2.70001,0c0.89999,0 1.79999,0 2.69998,0c0.89999,0 1.70001,0 2.60001,0c0.89999,0 1.79999,0 2.68933,0c0.896,0 1.81067,0 2.71066,0c0.89999,0 1.70001,0 2.60001,0c0.89999,0 1.79999,0 2.70001,0c0.89999,0 1.79865,0 2.66132,0c0.80002,0 1.772,0 2.63419,0c0.90448,0 1.80447,0 2.7045,0c0.89999,0 1.79999,0 2.69998,0c0.89999,0 1.44757,-0.44615 2.18533,-0.91467c0.69162,-0.43922 1.60001,-0.08533 2.54001,-0.08533c1.008,0 1.76401,0 2.67465,0c0.90002,0 2.20218,-0.30956 2.45334,0.436c0.29263,0.86862 -0.39087,1.87037 -0.95782,2.50683c-0.57104,0.64106 -0.82196,1.09542 -1.08084,1.85717c-0.30176,0.88791 -0.79852,1.64132 -1.19867,2.4c-0.45273,0.85837 -0.70334,1.50008 -0.716,2.4c-0.01266,0.90015 -0.52179,1.74624 -0.87866,2.5c-0.40439,0.85406 -0.94107,1.48688 -1.12134,2.336c-0.18036,0.84957 0,1.73067 0,2.564c0,0.97866 0,1.75267 0,2.65266c0,0.86333 0.00232,1.8265 0,2.74733c-0.00226,0.89551 -0.68292,1.41776 -0.98932,2.21067c-0.32059,0.82962 -0.01004,1.78933 -0.01068,2.68933c-0.00067,0.9 -0.2421,1.65379 -0.64731,2.4c-0.4133,0.76112 -0.35269,1.7 -0.35269,2.6c0,0.89867 0,1.86666 0,2.7c0,0.8 -0.37061,1.42901 -0.87848,2.2215c-0.47845,0.74657 -0.40347,1.73577 -1.2215,1.7785c-0.8988,0.04694 -1.70001,0 -2.60001,0l-0.89999,0l-0.96402,-0.036l-0.48865,-0.61134" id="svg_9" stroke-width="2" stroke="#000" fill="none"/>
  <path t="45333,45509,45518,45525,45541,45541,45549,45573,45581,45581,45589,45589,45597,45605,45613,45621,45629,45645,45655,45669,45677,45678,45694,45733,45781,45805,45837,45861,45870,45901,45941,45989,46013,46085,46117,46141,46157,46173,46189,46189,46197,46205,46429,46637,46645,46653,46670,46678,46694,46694,46709,46717,46717,46725,46733,46741,46773,46805,46813,46813,46837,46989,47005,47021,47037,47045,47053,47053,47061,47070,47070,47077,47077,47093,47093,47103,47109,47117,47125,47125,47133,47149,47157,47173,47181,47189,47205,47222,47229,47253,47277,47285,47303,47309,47309,47325,47333,47357,47365,47389,47405,47453,47565,47613,47693,47741,47741,47861,47877,48157,48173,48197,48197,48205,48205,48213,48229,48261,48301,48325,48341,48357,48357,48405,48629,48645,48653,48669,48837,48845" d="m316.51135,381.09091c1.80002,0 2.70001,0 3.52084,0c0.96317,0 1.65384,0 2.7175,0c0.92834,0 1.76166,0 2.647,0c0.94,0 1.63074,0.01257 2.70401,0c0.89001,-0.01044 1.34729,-0.77481 2.11517,-0.99551c0.86066,-0.24738 1.79547,-0.00223 2.6955,-0.00449c0.89999,-0.00226 1.73834,-0.38608 2.39999,-0.716c0.84335,-0.42056 1.79999,-0.284 2.69998,-0.284c0.90002,0 1.80002,0 2.70001,0c0.89999,0 1.79999,0 2.63333,0c0.87119,0 1.76666,0 2.66666,0c0.90002,0 1.80002,0 2.70001,0c0.89999,0 1.79999,0 2.60001,0c0.89999,0 1.76404,-0.00586 2.72083,0c0.86856,0.00534 1.46875,0.52066 1.47916,1.38934c0.01074,0.89594 0,1.81067 0,2.71082c0,0.78519 0,1.72516 0,2.73318c0,0.75598 0,1.66666 0,2.56665c0,0.89551 0,1.8215 0,2.70001c0,0.89999 0.02725,1.70041 0,2.60001c-0.02859,0.94412 -0.7045,1.29773 -1.64282,1.29999c-0.87799,0.00211 -1.76782,0 -2.6785,0c-0.85333,0 -1.79333,0 -2.67868,0c-0.81433,0 -1.76797,0 -2.5,0c-1.16666,0 -1.95831,0 -2.79999,0c-0.89999,0 -1.79999,0 -2.70001,0c-0.79999,0 -1.69998,0 -2.59998,0c-0.90002,0 -1.81055,-0.1329 -2.70001,0.00449c-0.93008,0.14368 -1.57117,0.93457 -2.31067,0.99551c-0.88635,0.07306 -1.78934,0 -2.68933,0c-0.89999,0 -1.79999,0 -2.70001,0c-0.79999,0 -1.70013,-0.01682 -2.59998,0c-0.96454,0.01801 -1.35187,0.85458 -2.01068,1c-0.86844,0.19168 -1.78934,0 -2.68933,0c-0.89999,0 -1.79999,0 -2.70001,0c-0.79999,0 -1.72827,0.19077 -2.59998,-0.03601c-0.85638,-0.22278 -1.3573,-1.16248 -1.40002,-2.13065c-0.02902,-0.65805 0,-1.66669 0,-2.52884c0,-0.90451 0,-1.78366 0,-2.74051c0,-0.86398 0,-1.76401 0,-2.664c0,-0.89999 -0.12427,-1.67743 -0.57465,-2.5c-0.42728,-0.7804 -0.42084,-1.6955 0,-2.37466l0.55383,-0.52533l0.45682,-0.5l0.86401,-0.00449" id="svg_10" stroke-width="2" stroke="#000" fill="none"/>
  <path t="50453,50621,50629,50629,50637,50645,50653,50653,50653,50661,50661,50669,50669,50677,50693,50701,50709,50720,50734,50734,50741,50741,50750,50757,50770,50782,50782,50789,50789,50799,50799,50805,50821,50821,50830,50837,50837,50845,50853,50861,50869,50877,50885,50893,50903,50909,50917,50917,50925,50936,50941,50949,50957,50973,50973,50982,50982,50982,50999,50999,51005,51013,51013,51021,51021,51029,51037,51045,51045,51053,51061,51077,51077,51085,51085,51093,51093,51101,51109,51117,51117,51133,51133,51141,51141,51149,51157,51157,51165,51181,51181,51189,51189,51198,51214,51214,51221,51229,51229,51237,51237,51245,51245,51261,51261,51269,51277,51277,51285,51285,51293,51293,51309,51309,51309,51317,51325,51325,51333,51341,51349,51349,51357,51365,51373,51373,51381,51389,51398,51398,51405,51415,51421,51429,51429,51437,51437,51445,51453,51461,51469,51477,51477,51485,51485,51493,51493,51503,51509,51509,51522,51525,51525,51534,51541,51541,51553,51557,51557,51573,51589,51605,51605,51615,51615,51621,51629,51646,51654,51661,51670,51677,51693,51702,51709,51717,51717,51725,51741,51741,51750,51757,51757,51765,51781,51789,51805,51816,51816,51821,51821,51837,51853,51869,51869,51901,51901,51917,51917,51933,51942,51957,51973,51985,51997,52014,52030,52037,52053,52069,52085,52109,52133,52149,52149,52157,52173,52188,52229,52364,52476,52493,52549,52573" d="m315.51135,57.09091c0,1.82533 0,2.83333 0,3.6955c0,0.9045 0,1.72583 0,2.63783c0,0.91733 0,1.66133 0,2.69733c0,0.85201 0,1.79467 0,2.48534c0,1.03733 0,2.00484 0,2.884c0,0.89999 0,1.8 0,2.70016c0,0.78516 0,1.72517 0,2.41583c0,1.07333 0,1.984 0,2.87334c0,0.944 0,1.65233 0,2.61066c0,0.78933 0,1.83334 0,2.6955c0,0.82534 0,1.78851 0,2.65184c0,0.89999 0,1.81933 0,2.63183c0,0.9595 0,1.82217 0,2.72083c0,0.9 0,1.8 0,2.7c0,0.89999 0,1.8 0,2.7c0,0.9 0,1.7 0,2.6c0,0.9 0,1.8 0,2.7c0,0.9045 -0.05264,1.76958 0.02084,2.62083c0.08514,0.9863 0.43246,1.76954 0.6265,2.37917c0.31314,0.98391 0.3504,1.88566 0.35266,2.85333c0.00186,0.80917 0,1.50667 0,2.60367c0,0.94033 0,1.743 0,2.66383c0,0.96317 0,1.65383 0,2.722c0,0.85716 0,1.75716 0,2.64249c0,0.95067 0,1.716 0,2.71017c0,0.74734 0,1.7685 0,2.60583c0,0.96534 0,1.79867 0,2.77734c0,0.774 0,1.674 0,2.53734c0,0.85866 0,1.80533 0,2.65866c0,0.94 0,1.82533 0,2.71066c0,0.94 0,1.63068 0,2.668c0,0.8895 0,1.632 0,2.694c0,0.91934 0,1.75267 0,2.73134c0,0.774 0,1.6785 0,2.42583c0,0.99417 0,1.93834 0,2.84283c0,0.91934 0,1.75267 0,2.73134c0,0.774 0,1.683 0,2.483c0,0.9595 0,1.75299 0,2.5285c0,1.1955 0,2.00983 0,2.80983c0,0.89999 0,1.836 0,2.68399c0,0.86334 0,1.88 0,2.71735c0,0.96533 0,1.79866 0,2.77699c0,0.855 0,1.73151 0,2.539c0,0.96184 0,1.78267 0,2.68401c0,0.96533 0,1.81949 0,2.79866c0,0.77867 0,1.66667 0,2.52083c0,0.87917 0,1.78368 0,2.80067c0,0.69933 0,1.6785 0,2.46783c0,1.04399 0,1.90616 0,2.73149c0,0.96317 0,1.65384 0,2.722c0,0.85733 0,1.6425 0,2.5825c0,1.008 0,1.87016 0,2.6955c0,0.96317 0,1.65384 0,2.7175c0,0.92834 0,1.76167 0,2.647c0,0.94 0,1.63068 0,2.70399c0,0.81067 0,1.71068 0,2.61067c0,0.90001 0,1.8 0,2.74733c0,0.75717 0,1.65268 0,2.5735c0,0.96317 0,1.65384 0,2.722c0,0.85733 0,1.6425 0,2.5825c0,1.008 0,1.87016 0,2.73866c0,0.87201 0,1.73601 0,2.63734c0,0.96533 0,1.79866 0,2.77716c0,0.82016 0,1.62151 0,2.54233c0,0.96184 0,1.76933 0,2.8125c0,0.6875 0,1.64517 0,2.46533c0,0.90134 0,1.80135 0,2.70134c0,0.89999 0,1.8 0,2.7c0,0.99867 0,1.85268 0,2.60133c0,0.89867 -0.00534,1.79869 0,2.69867c0.00534,0.90004 0.50052,1.71881 0.83334,2.5c0.32019,0.75154 0.16666,1.7 0.16666,2.60001c0,0.96399 0,1.836 0,2.7c0,0.89999 0,1.8 0,2.7l0.22134,0.87866" id="svg_11" stroke-width="2" stroke="#000" fill="none"/>
  <path t="53845,53932,53941,53949,53957,53965,53981,53981,53989,53989,53989,54000,54000,54005,54013,54013,54021,54021,54029,54029,54036,54037,54045,54045,54053,54061,54061,54069,54078,54078,54085,54085,54094,54101,54101,54109,54109,54117,54117,54124,54141,54141,54149,54149,54149,54157,54157,54165,54165,54173,54181,54181,54188,54189,54197,54197,54205,54213,54213,54221,54221,54229,54229,54237,54245,54245,54245,54253,54253,54253,54261,54261,54261,54269,54278,54278,54278,54285,54285,54285,54285,54295,54295,54295,54300,54301,54309,54309,54309,54316,54317,54325,54325,54325,54333,54333,54340,54341,54349,54349,54349,54357,54357,54365,54365,54365,54373,54373,54381,54389,54389,54389,54397,54397,54397,54405,54405,54413,54413,54421,54429,54429,54429,54445,54445,54445,54453,54453,54461,54461,54469,54477,54485,54485,54494,54501,54509,54517,54517,54525,54533,54533,54541,54541,54549,54557,54565,54565,54573,54573,54581,54581,54605,54605,54605,54613,54621,54621,54629,54629,54636,54645,54645,54653,54661,54668,54678,54684,54685,54701,54701,54710,54717,54717,54725,54733,54733,54741,54741,54749,54757,54765,54773,54781,54781,54788,54789,54797,54804,54820,54836,54837,54852,54853,54868,54878,54878,54885,54909,54917,54917,54924,54933,54941,54941,54949,54965,54972,54981,55013,55028,55044,55060,55060,55069,55084,55093,55101,55117,55125,55133,55156,55157,55180,55189,55228,55316" d="m318.51135,55.09091c0,1.8 0,2.7 0,3.6c0,0.9 0,1.78933 0,2.73333c0,0.70833 0,1.66667 0,2.46667c0,0.8 0,1.7955 0,2.71466c0,0.86 0,1.80667 0,2.66c0,0.94267 0,1.79466 0,2.59333c0,0.98133 0,1.89867 0,2.71117c0,1.00484 0,1.6955 0,2.76817c0,0.91933 0,1.73183 0,2.702c0,0.765 0,1.65334 0,2.64616c0,0.74734 0,1.77917 0,2.72584c0,0.67867 0,1.65733 0,2.56267c0,0.94133 0,1.632 0,2.66933c0,0.88984 0,1.704 0,2.61333c0,0.7815 0,1.8235 0,2.6905c0,0.89101 -0.1167,1.8156 0.08536,2.65884c0.21521,0.8981 0.81168,1.642 0.89383,2.484c0.09506,0.97427 0.02081,1.75266 0.02081,2.65266c0,0.86333 0,1.84734 0,2.66884c0,0.88916 0,1.87833 0,2.65766c0,0.99934 0,1.8195 0,2.69283c0,0.871 0,1.6 0,2.437c0,1.19083 0,2.08033 0,2.655c0,1.06934 -0.00787,1.98937 0,2.74934c0.01044,1.00766 0.22632,2.02829 0.42535,2.75866c0.22769,0.83547 0.4393,1.72475 0.51749,2.62801c0.07773,0.89783 0.05649,1.5 0.05716,2.69866c0.00049,0.88051 0,1.716 0,2.716c0,0.66451 0,1.68533 0,2.48534c0,0.8 0,1.80449 0,2.65717c0,0.96416 0,1.76816 0,2.59016c0,1.03101 0,1.911 0,2.9315c0,0.83099 0,1.7905 0,2.54199c0,0.79651 -0.06052,1.79849 0.03601,2.6685c0.11331,1.02126 0.50082,1.79866 0.67999,2.41068c0.28687,0.97989 0.28333,1.91466 0.284,2.78532c0.0007,0.948 0,1.87601 0,2.6665c0,1.02667 0,1.71216 0,2.54683c0,1.00134 0,1.80133 0,2.8c0,0.94417 0,1.84866 0,2.76801c0,0.875 0,1.51999 0,2.51733c0,0.81599 0,1.63199 0,2.85883c0,0.6465 0,1.65683 0,2.58517c0,0.92017 0,1.75867 0,2.69733c0,0.69067 0,1.76399 0,2.67467c0,0.8045 0,1.82133 0,2.5c0,0.9785 0,2 0,2.75717c0,0.89549 0,1.75883 0,2.722c0,0.82533 0,1.84233 0,2.54166c0,0.97917 0,1.76851 0,2.8125c0,0.80501 0,1.83084 0,2.45334c0,0.94667 0,1.9035 0,2.88c0,0.83333 0,1.81183 0,2.63199c0,0.83734 0,1.854 0,2.54868c0,1.01666 0,1.95267 0,2.85266c0,0.90001 0,1.8 0,2.55717c0,0.89549 0,1.75883 0,2.74283c0,0.82133 0,1.67467 0,2.61467c0,0.98549 0,1.77066 0,2.71066c0,0.69067 0,1.76399 0,2.67467c0,0.89999 0,1.8045 0,2.66667c0,0.83333 0,1.81183 0,2.63199c0,0.90134 0,1.80135 0,2.612c0,0.91068 0,1.76401 0,2.70534c0,0.76801 0,1.70934 0,2.71733c0,0.86217 0,1.73067 0,2.61334c0,0.87466 0,1.728 0,2.668c0,0.98534 0,1.88533 0,2.68533c0,0.89999 0,1.8 0,2.7c0,0.88933 0,1.78534 0,2.7c0,0.90001 0,1.8 0,2.60001c0,0.89999 0,1.8 0,2.7c0,0.89999 0,1.8 0,2.69867c0,0.854 0,1.80133 0,2.60133c0,0.89999 0,1.8 0,2.7l0,0.89999" id="svg_12" stroke-width="2" stroke="#000" fill="none"/>
  <path t="56517,56596,56605,56613,56620,56621,56621,56629,56629,56629,56629,56636,56637,56637,56645,56645,56652,56652,56652,56652,56661,56661,56661,56669,56669,56677,56677,56677,56677,56685,56685,56685,56692,56693,56693,56701,56701,56701,56701,56709,56709,56709,56717,56717,56717,56717,56725,56725,56725,56725,56733,56733,56733,56733,56741,56741,56741,56741,56749,56749,56758,56758,56765,56765,56765,56765,56773,56773,56773,56781,56781,56788,56789,56789,56789,56797,56797,56797,56804,56805,56805,56813,56813,56813,56821,56821,56821,56829,56829,56829,56837,56837,56837,56837,56845,56845,56845,56852,56852,56853,56853,56860,56861,56861,56869,56869,56876,56877,56877,56877,56885,56885,56885,56893,56893,56893,56901,56901,56908,56909,56909,56917,56917,56917,56924,56925,56933,56933,56949,56949,56949,56958,56965,56965,56972,56972,56981,56981,56988,56989,56997,57004,57005,57005,57013,57013,57013,57021,57021,57029,57037,57037,57037,57044,57045,57045,57053,57053,57061,57061,57069,57076,57077,57085,57085,57092,57093,57101,57108,57109,57117,57117,57124,57125,57133,57133,57141,57149,57149,57158,57158,57165,57165,57174,57181,57188,57197,57197,57204,57220,57220,57228,57229,57236,57245,57260,57268,57276,57276,57284,57292,57300,57316,57324,57324,57332,57341,57357,57374,57381,57397,57413,57414,57420,57452,57468,57484,57500,57516,57540,57580,57580" d="m326.51135,57.09091c0,1.8 0,2.7 0,3.54166c0,1.00134 0,1.73034 0,2.56733c0,0.891 0,1.791 0,2.691c0,0.60001 0,1.79867 0,2.67917c0,0.8355 0,1.83684 0,2.74617c0,0.94133 0,1.73183 0,2.58533c0,0.59066 0,1.78799 0,2.6685c0,0.8355 0,1.83684 0,2.74617c0,0.94133 0,1.73183 0,2.58533c0,0.59066 0,1.78933 0,2.68933c0,0.6 0,1.8 0,2.7c0,0.6 0,1.8 0,2.7c0,0.6 0,1.5 0,2.70133c0,0.60933 0,1.55583 0,2.56533c0,0.71734 0,1.83334 0,2.58067c0,1.08601 0,1.76867 0,2.75267c0,0.65266 0,2.02133 0,2.75266c0,0.74734 0,1.49467 0,2.58067c0,1.005 0,1.625 0,2.48c0,1.2295 0,1.876 0,2.88683c0,0.82067 0,1.9665 0,2.757c0,0.56367 0,1.44416 0,2.64149c0,0.8805 0,1.44417 0,2.71734c0,0.684 0,1.85066 0,2.64117c0,0.56367 0,1.44416 0,2.64283c0,0.6 0,1.5 0,2.69984c0,0.8895 0,1.46416 0,2.53349c0,0.94133 0,1.61934 0,2.85201c0,0.55066 0,1.41916 0,2.61467c0,0.59999 0,1.5 0,2.7c0,0.60001 0,1.5 0,2.39999c0,0.90001 0,1.8 0,2.70001c0,0.89999 0,1.79999 0,2.7c0,0.59999 0,1.79866 0,2.67917c0,0.83549 0,1.83682 0,2.74615c0,0.94135 0,1.73184 0,2.58534c0,0.59067 0,1.78934 0,2.68933c0,0.60001 0,1.79967 0,2.67867c0,0.80701 0.05981,1.8602 -0.05716,2.62666c-0.1496,0.98027 -0.47162,1.72963 -0.65881,2.59734c-0.19229,0.89127 -0.2619,1.78627 -0.27951,2.64017c-0.02136,1.03529 -0.00452,1.71049 -0.00452,2.7905c0,0.80501 0,1.83084 0,2.45334c0,0.94667 0,1.899 0,2.91467c0,0.68399 0,1.63466 0,2.39999c0,0.99867 0,1.79866 0,2.79733c0,0.94417 0,1.84866 0,2.76801c0,0.875 0,1.51999 0,2.51733c0,0.81599 0,1.63199 0,2.85432c0,0.8 0,1.709 0,2.62834c0,0.875 0,1.51999 0,2.51733c0,0.81599 0,1.63199 0,2.85883c0,0.6465 0,1.65683 0,2.58517c0,0.92265 0,1.74399 0,2.47466c0,0.99734 0,1.79733 0,2.79601c0,0.94417 0,1.84866 0,2.76801c0,0.83333 0,1.812 0,2.586c0,0.9045 0,1.65182 0,2.646c0,0.94417 0,1.84416 0,2.804c0,0.76801 0,1.56534 0,2.54666c0,0.91734 0,1.82933 0,2.75067c0,0.89999 0,1.8 0,2.70134c0,0.68399 0,1.62399 0,2.63199c0,0.79201 0,1.65067 0,2.51401c0,1.01666 0,1.95267 0,2.85266c0,0.90001 0,1.8 0,2.60001c0,0.89999 -0.17087,1.64299 -0.64731,2.30983c-0.47409,0.66353 -0.35269,1.7235 -0.35269,2.58566c0,0.90451 0,1.8045 0,2.7045c0,0.90001 0,1.8 0,2.70001c0,0.89999 0,1.7 0,2.59999c0,0.90001 0,1.8 0,2.7c0,0.90001 0,1.8 0,2.70001l0,0.89999l0,0.8" id="svg_13" stroke-width="2" stroke="#000" fill="none"/>
  <path t="58773,58805,58813,58813,58824,58838,58838,58846,58846,58846,58853,58853,58853,58862,58862,58869,58869,58878,58878,58878,58885,58885,58895,58895,58901,58902,58909,58909,58909,58917,58917,58925,58925,58933,58933,58941,58941,58941,58949,58950,58950,58957,58957,58958,58965,58965,58965,58973,58973,58973,58981,58990,58990,58990,58998,58998,58998,59006,59006,59013,59014,59023,59023,59030,59030,59030,59037,59037,59045,59046,59053,59053,59069,59070,59078,59078,59085,59085,59093,59093,59094,59101,59102,59102,59109,59117,59118,59125,59125,59133,59134,59134,59141,59141,59149,59150,59157,59165,59165,59165,59173,59173,59174,59181,59182,59182,59189,59190,59190,59197,59198,59206,59206,59213,59214,59214,59223,59223,59229,59229,59237,59238,59246,59246,59253,59253,59261,59261,59262,59269,59278,59278,59285,59294,59294,59301,59301,59302,59310,59325,59333,59349,59349,59357,59365,59366,59373,59373,59381,59397,59406,59413,59422,59423,59429,59430,59440,59445,59453,59462,59469,59478,59485,59485,59494,59501,59501,59510,59510,59517,59525,59525,59533,59541,59549,59557,59565,59566,59573,59589,59590,59597,59597,59605,59605,59613,59622,59629,59629,59629,59639,59645,59661,59669,59669,59678,59685,59693,59694,59701,59709,59717,59733,59741,59741,59749,59757,59757,59781,59797,59797,59813,59822,59829,59829,59839,59846,59853,59869,59877,59893,59901,59925,59933,59943,59959,59989,60005,60005,60029" d="m332.51135,56.09091c0,1.75716 0,2.65266 0,3.516c0,0.94233 0,1.927 0,2.70533c0,0.97883 0,1.7995 0,2.464c0,0.99866 0,1.81467 0,2.63067c0,1.22683 0,1.87333 0,2.88416c0,0.82067 0,1.9665 0,2.748c0,0.7905 0,1.7185 0,2.531c0,1.00616 0,1.7315 0,2.72083c0,0.8 0,1.8 0,2.6c0,0.8 0,1.8 0,2.60001c0,1 0,1.8 0,2.80016c0,0.82067 0,1.9665 0,2.7525c0,0.822 0,1.88067 0,2.59467c0,0.678 0,1.874 0,2.678c0,0.822 0,1.85333 0,2.54933c0,0.90933 0,1.908 0,2.7045c0,0.7515 0,1.87017 0,2.85417c0,0.6765 0,1.452 0,2.5c0,0.93066 0,1.76533 0,2.76666c0,0.8 0,1.8 0,2.6c0,1 0,1.8 0,2.8c0,0.8 0,1.6 0,2.6c0,0.8 0,1.8 0,2.6c0,0.99983 0,1.77917 0,2.77867c0,0.77399 0,1.6785 0,2.42583c0,0.99683 0,1.8315 0,2.76217c0,0.786 0,1.608 0,2.66666c0,0.92 0,1.68001 0,2.66667c0,0.98534 0,1.71066 0,2.70016c0,0.82066 0,1.96651 0,2.748c0,0.7905 0,1.71851 0,2.53101c0,1.00482 0,1.6955 0,2.76816c0,0.91934 0,1.79434 0,2.43933c0,0.99867 0,1.83417 0,2.71468c0,0.8985 0,1.78799 0,2.64149c0,1.03583 0,1.95717 0,2.64117c0,0.99866 0,1.79517 0,2.98267c0,0.68266 0,1.66666 0,2.584c0,0.74399 0,1.78 0,2.63199c0,0.95334 0,1.71867 0,2.71735c0,0.79999 0,1.79999 0,2.59999c0,1 0,1.8 0,2.8c0,0.78934 0,1.51466 0,2.5c0,0.98399 0,1.67467 0,2.74733c0,0.91934 0,1.7735 0,2.75267c0,0.78934 0,1.51466 0,2.55333c0,0.88268 0,1.75117 0,2.76801c0,0.67867 0,1.65717 0,2.67867c0,0.75717 0,1.65266 0,2.51601c0,0.96317 0,1.88399 0,2.784c0,0.89999 0,1.7 0,2.58533c0,0.94 0,1.63068 0,2.70399c0,0.91068 0,1.81067 0,2.71068c0,0.89999 0,1.8 0,2.7c0,0.8 0,1.636 0,2.48534c0,0.91916 0.00052,1.91333 0,2.67867c-0.00067,0.95067 -0.2421,1.78978 -0.64731,2.536c-0.4133,0.76112 -0.35269,1.7 -0.35269,2.60001c0,0.89999 0,1.80016 0,2.58533c0,0.94 0,1.948 0,2.74001c0,0.86 0,1.77916 0,2.772c0,0.73067 0,1.70799 0,2.47466c0,1.12801 0,1.91734 0,2.64267c0,0.96451 0,1.88533 0,2.78984c0,0.86217 0,1.6955 0,2.67383c0,0.939 0,1.73151 0,2.539c0,0.96184 0,1.88266 0,2.78267c0,0.89999 0,1.80016 0,2.58533c0,0.94 0,1.948 0,2.75301c0,0.90334 0,1.84566 0,2.53633c0,1.06816 0,1.92534 0,2.82533c0,0.8 0,1.7 0,2.60001c0,0.89999 -0.06693,1.74355 -0.57465,2.42532c-0.4772,0.64081 -0.42535,1.57468 -0.42535,2.47467c0,0.89999 0,1.8 0,2.70001c0,0.89999 0,1.79999 0,2.59998l0,0.90002" id="svg_14" stroke-width="2" stroke="#000" fill="none"/>
  <path t="62053,62173,62173,62182,62182,62189,62197,62197,62205,62205,62205,62213,62221,62221,62221,62229,62229,62237,62237,62237,62245,62245,62245,62253,62253,62253,62253,62261,62261,62261,62261,62269,62269,62269,62277,62277,62277,62286,62286,62286,62293,62293,62293,62302,62302,62302,62302,62309,62309,62309,62318,62319,62319,62325,62325,62333,62333,62342,62342,62342,62349,62349,62349,62349,62357,62357,62357,62357,62365,62365,62373,62373,62373,62373,62381,62381,62390,62390,62390,62397,62397,62397,62405,62405,62405,62413,62413,62421,62421,62421,62429,62429,62429,62437,62437,62437,62445,62445,62445,62453,62453,62453,62461,62469,62469,62477,62477,62485,62485,62493,62493,62502,62509,62519,62526,62526,62533,62541,62541,62549,62557,62557,62565,62573,62581,62590,62597,62613,62621,62621,62629,62645,62661,62693,62693,62701,62725,62733,62749" d="m313.51135,260.09091c0,1.71432 0,2.409 0,3.39865c0,0.76535 0,1.84869 0,2.76801c0,0.85419 0,1.83334 0,2.62268c0,0.72534 0,1.73151 0,2.75351c0,0.71848 0,1.50897 0,2.53564c0,0.90067 0,1.92151 0,2.73218c0,0.64648 0,1.61099 0,2.436c0,0.91498 0,1.91998 0,2.63733c0,1.116 0,1.86334 0,2.94934c0,0.68134 0,1.64581 0,2.26215c0,1.20435 0,2.09384 0,2.94736c0,1.03583 0,1.73181 0,2.64114c0,1.00134 0,1.83685 0,2.4205c0,1.1955 0,2.09552 0,2.6955c0,1.20001 0,2.10001 0,2.70001c0,0.89999 0,2.10001 0,2.70001c0,0.89999 0,2.09964 0,2.69098c0,0.83701 0,1.96619 0,2.85718c0,0.91348 0,1.7135 0,2.67349c0,0.82501 0,1.73999 0,2.745c0,0.71735 0,1.45868 0,2.20801c0,1.45868 0,2.13867 0,3.08368c0,0.57999 0,1.85767 0,2.54166c0,1.16666 0,1.95267 0,2.5c0,0.81601 0,2.04733 0,2.72534c0,1.19598 0,2 0,2.82199c0,1.03134 0,1.72733 0,2.63666c0,1 0,1.81601 0,2.63202c0,1 0,1.68399 0,2.85065c0,0.78601 0,1.608 0,2.66669c0,0.71399 0,1.61932 0,2.58817c0,0.81448 0,1.68298 0,2.57849c0,0.89551 0,1.76401 0,2.83334c0,0.70499 0,1.67999 0,2.54132c0,0.94684 0,1.836 0,2.82516c0,0.77933 0,1.63351 0,2.55283c0,0.90002 0,1.76334 0,2.61136c0,0.93597 0,1.836 0,2.73615c0,0.78519 0,1.72516 0,2.73318c0,0.75598 0,1.6875 0,2.65067c0,0.69064 0,1.75882 0,2.61581c0,0.92551 0,1.70151 0,2.60019c0,0.93597 0,1.784 0,2.64731c0,1.01669 0,1.85269 0,2.75269c0,0.89999 0,1.69998 0,2.61465l0,0.896l0,0.88934l0,0.89999" id="svg_15" stroke-width="2" stroke="#000" fill="none"/>
  <path t="63670,63717,63726,63734,63741,63741,63751,63751,63757,63757,63757,63765,63765,63773,63773,63773,63781,63781,63789,63789,63797,63797,63797,63805,63805,63813,63813,63821,63821,63829,63829,63837,63837,63845,63845,63853,63853,63853,63861,63861,63869,63869,63869,63877,63877,63877,63877,63885,63885,63885,63893,63893,63903,63903,63903,63909,63909,63909,63918,63918,63918,63918,63925,63925,63925,63934,63934,63934,63941,63941,63941,63951,63951,63951,63957,63957,63957,63965,63965,63965,63974,63974,63974,63981,63981,63989,63989,63997,63997,63997,64005,64005,64005,64013,64013,64021,64021,64029,64029,64029,64037,64037,64045,64045,64053,64053,64061,64061,64069,64069,64069,64077,64077,64085,64085,64085,64093,64093,64101,64101,64109,64109,64109,64117,64117,64117,64125,64125,64133,64134,64141,64150,64150,64157,64157,64167,64167,64173,64174,64181,64181,64197,64213,64213,64221,64222,64237,64237,64245,64245,64253,64277,64285,64285" d="m318.51135,255.09091c0,1.79999 0,2.70001 0,3.52084c0,0.96448 0,1.68982 0,2.67917c0,0.79999 0,1.79999 0,2.59998c0,0.80002 0,1.8045 0,2.65717c0,0.96402 0,1.75751 0,2.53302c0,1.19998 0,1.89249 0,2.85651c0,0.84 0,1.83731 0,2.65332c0,0.81601 0,1.81332 0,2.65332c0,0.96268 0,1.73068 0,2.68268c0,0.76532 0,1.76401 0,2.564c0,1 0,1.80002 0,2.80017c0,0.82068 0,1.96649 0,2.74799c0,0.79053 0,1.71851 0,2.55185c0,1.043 0,1.772 0,2.60901c0,0.89099 0,1.79099 0,2.69098c0,0.60001 0,1.79868 0,2.67917c0,0.83551 0,1.83551 0,2.71017c0,1.01083 0,1.83151 0,2.496c0,1.00134 0,1.85632 0,2.80133c0,1.03452 0,1.76151 0,2.49249c0,1.05151 0,1.978 0,2.75952c0,0.944 0,1.94666 0,2.78217c0,0.58365 0,1.77899 0,2.66849c0,0.85352 0,1.88934 0,2.58533c0,0.90933 0,1.91068 0,2.74619c0,0.58365 0,1.77899 0,2.66849c0,0.85352 0,1.88916 0,2.57468c0,0.83466 0,1.836 0,2.63599c0,1.00134 0,1.836 0,2.76666c0,0.78601 0,1.608 0,2.66669c0,0.93066 0,1.76532 0,2.76666c0,0.79999 0,1.80133 0,2.63599c0,0.93066 0,1.71216 0,2.50269c0,1.1185 0,1.87598 0,2.74664c0,0.91919 0,1.91467 0,2.71469c0,1 0,1.79999 0,2.79999c0,0.79999 0,1.60001 0,2.60449c0,0.6315 0,1.81683 0,2.62085c0,0.82199 0,1.853 0,2.52798c0,1.08002 0,1.90802 0,2.78967c0,0.729 0,1.56601 0,2.75665c0,0.87903 0,1.686 0,2.55753c0,0.89099 0,1.7955 0,2.65881c0,0.85867 0,1.80551 0,2.69467c0,0.98917 0,1.76849 0,2.76801c0,0.77399 0,1.6785 0,2.42584c0,0.99414 0,1.93832 0,2.84283c0,0.91931 0,1.75266 0,2.73132c0,0.77399 0,1.6785 0,2.42584c0,0.99414 0,1.93832 0,2.83383l0,0.92831l0,0.83334l0,0.79999" id="svg_16" stroke-width="2" stroke="#000" fill="none"/>
  <path t="65525,65597,65597,65605,65605,65613,65613,65621,65621,65621,65629,65629,65637,65645,65645,65645,65653,65653,65653,65653,65661,65661,65669,65677,65677,65677,65685,65685,65685,65693,65693,65693,65701,65701,65709,65709,65709,65709,65717,65717,65717,65725,65725,65725,65733,65733,65733,65741,65741,65749,65749,65749,65757,65757,65757,65765,65765,65773,65773,65781,65782,65782,65789,65789,65789,65789,65805,65805,65807,65807,65816,65816,65822,65822,65822,65829,65829,65837,65837,65845,65845,65853,65853,65861,65861,65861,65869,65869,65869,65877,65877,65885,65885,65893,65893,65893,65901,65901,65901,65909,65909,65909,65917,65925,65925,65925,65933,65933,65933,65933,65941,65941,65949,65957,65957,65957,65965,65965,65981,65982,65989,65989,65998,65998,66005,66021,66029,66037,66053,66053,66061,66069,66085,66093,66101,66125" d="m325.51135,260.09091c0,1.71432 0,2.409 0,3.39999c0,0.80002 0,1.80002 0,2.60001c0,1 0,1.79999 0,2.60001c0,0.99548 0,1.91467 0,2.78534c0,0.948 0,1.629 0,2.43597c0,1.17868 0,2.07419 0,2.94269c0,0.55066 0,1.77432 0,2.57431c0,0.91351 0,1.99503 0,2.67151c0,0.77551 0,1.82352 0,2.76483c0,0.67801 0,1.64667 0,2.45068c0,0.82199 0,2.09067 0,2.77466c0,1.16666 0,1.95715 0,2.52084c0,0.88049 0,2.07916 0,2.67917c0,0.89999 0,2.09982 0,2.6955c0,0.8685 0,1.93784 0,2.8685c0,0.83466 0,1.84048 0,2.47198c0,1.18533 0,1.98935 0,2.81134c0,1.03116 0,1.71667 0,2.55133c0,1.00134 0,1.80133 0,2.80267c0,0.83466 0,1.76532 0,2.55582c0,0.85352 -0.00595,2.04288 0.00134,2.64151c0.01074,0.88065 0.01627,1.7319 0.28268,2.71466c0.23257,0.85788 0.67206,1.79926 0.71466,2.57068c0.05307,0.96121 0.00131,1.80267 0.00131,2.79999c0,0.81601 0,1.63202 0,2.63068c0,0.87466 0,1.68533 0,2.66449c0,0.85419 0,1.7735 0,2.6825c0,0.80002 0,1.75986 0,2.57434c0,0.8685 0,1.76401 0,2.655c0,0.83701 0,1.77567 0,2.72366c0,0.87201 0,1.63202 0,2.80667c0,0.80402 0,1.35333 0,2.65735c0,0.69598 0,1.60532 0,2.604c0,0.79648 0,1.54797 0,2.66666c0,0.98401 0,1.66501 0,2.47198c0,1.17868 0,1.77734 0,2.65784c0,0.83551 0,1.83417 0,2.67416c0,1.09402 0,2.01334 0,2.68268c0,0.76532 0,1.76401 0,2.564c0,1 0,1.80002 0,2.80002c0,0.79999 -0.12939,1.81161 0.02084,2.75833c0.14282,0.8999 0.95056,1.39737 0.97916,2.24167c0.03046,0.89948 0,1.79999 0,2.59998c0,0.90002 0,1.80002 0,2.70001l0,0.89999l0,0.89999l0,0.89868" id="svg_17" stroke-width="2" stroke="#000" fill="none"/>
  <path t="67061,67116,67116,67125,67125,67133,67133,67133,67141,67141,67141,67141,67149,67149,67149,67157,67157,67157,67165,67165,67165,67165,67165,67173,67173,67173,67181,67181,67181,67189,67189,67189,67189,67197,67197,67197,67197,67205,67205,67205,67205,67205,67213,67213,67213,67221,67221,67221,67221,67230,67230,67230,67237,67237,67237,67237,67246,67247,67247,67247,67253,67253,67253,67261,67261,67261,67269,67269,67269,67269,67277,67277,67277,67285,67285,67285,67285,67293,67293,67293,67301,67301,67301,67309,67309,67309,67317,67317,67317,67317,67325,67325,67325,67325,67333,67333,67341,67341,67341,67349,67349,67349,67357,67357,67365,67373,67381,67381,67389,67389,67397,67405,67405,67413,67421,67429,67430,67437,67446,67453,67453,67461,67469,67477,67477,67485,67485,67493,67525,67525,67533,67533,67541,67565,67581,67605,67605,67621,67629,67653" d="m330.51135,256.09091c0,2.94815 0,3.73868 0,4.66666c0,0.83334 0,1.87634 0,2.60535c0,0.83701 0,1.728 0,2.62799c0,0.89999 0,1.5 0,2.70001c0,0.89999 0,1.5 0,2.70016c0,0.91049 0,1.53583 0,2.86649c0,0.71735 0,1.45868 0,2.20801c0,0.74133 0,2.13867 0,2.77866c0,0.88501 0,1.92551 0,2.86752c0,0.74847 0,1.62216 0,2.65115c0,0.74933 0,1.53067 0,2.728c0,0.80002 0,1.60001 0,2.39999c0,1.20001 0,1.99869 0,2.78934c0,0.77469 0,1.52533 0,2.58936c0,0.99597 0,1.64664 0,2.98798c0,0.716 0,1.448 0,2.172c0,1.328 0,2.15601 0,2.91202c0,1.08267 0,1.71866 0,2.41068c0,1.09048 0,2.172 0,2.85333c0,0.96448 0,1.58081 0,2.78516c0,0.8895 0,1.74301 0,2.77899c0,0.70651 0,1.431 0,2.56384c0,0.66266 0,1.70667 0,2.38934c0,1.19998 0,1.96799 0,2.73599c0,1.20132 0,1.89334 0,2.61734c0,0.73199 0,2.12799 0,2.76797c0,0.88501 0,1.92535 0,2.84668c0,0.68399 0,1.68668 0,2.54166c0,0.62 0,1.97968 0,2.711c0,0.74734 0,1.49469 0,2.58069c0,1.00497 0,1.91998 0,2.47998c0,1.23401 0,1.91202 0,3.108c0,0.80402 0,1.62601 0,2.65717c0,0.68552 0,1.52017 0,2.517c0,0.91919 0,1.76852 0,2.70901c0,1.01682 -0.05051,1.69681 0.00018,2.67398c0.04272,0.82349 0.69333,1.61905 0.91449,2.50552c0.16815,0.67401 0.08533,1.75882 0.08533,2.616c0,0.89999 0,1.69998 0,2.60001c0,0.93597 0,1.784 0,2.64731c0,1.01669 0,1.854 0,2.81934c0,0.83334 -0.19012,1.70093 0.05719,2.52884c0.25763,0.86246 0.94281,1.63785 0.94281,2.32535c0,0.95764 0,1.77783 0,2.67917c0,0.89999 0,1.82083 0,2.784c0,0.69064 0,1.75882 0,2.61581l0,0.92551" id="svg_18" stroke-width="2" stroke="#000" fill="none"/>
  <path t="68805,68836,68845,68861,68869,68869,68878,68885,68894,68901,68901,68901,68911,68911,68917,68917,68925,68925,68934,68934,68941,68941,68950,68950,68957,68957,68957,68965,68965,68965,68973,68973,68984,68984,68984,68989,68989,68989,69000,69000,69001,69005,69005,69005,69005,69013,69013,69013,69013,69021,69021,69021,69034,69034,69037,69037,69045,69045,69045,69053,69053,69053,69062,69062,69069,69069,69069,69078,69078,69078,69085,69086,69095,69095,69095,69101,69101,69109,69109,69117,69117,69125,69125,69125,69133,69133,69141,69149,69149,69157,69157,69157,69165,69165,69173,69173,69181,69189,69189,69197,69197,69197,69205,69205,69213,69213,69221,69229,69237,69237,69245,69253,69253,69253,69261,69261,69269,69269,69278,69278,69285,69301,69317,69317,69325,69325,69333,69341,69349,69365,69389,69421,69493,69525,69525,69685,69725,69765" d="m338.51135,254.09091c0,1.8 0,2.70001 0,3.52084c0,0.96317 0,1.65381 0,2.7175c0,0.87149 0,1.80331 0,2.76166c0,0.79999 0,1.60001 0,2.60001c0,0.79999 0,1.79999 0,2.60001c0,0.99982 0,1.77914 0,2.77866c0,0.77399 0,1.6785 0,2.42584c0,0.99683 0,1.83148 0,2.76215c0,0.78601 0,1.608 0,2.66669c0,0.93066 0,1.76532 0,2.77115c0,0.6315 0,1.81702 0,2.6315c0,0.57468 0,1.76401 0,2.65952c0,0.8685 0,1.93784 0,2.65631c0,0.7095 0,1.78152 0,2.75803c0,0.711 0,1.44199 0,2.5235c0,1.00949 0,1.64581 0,2.56531c0,0.901 0,1.78003 0,2.58701c0,1.2045 0,1.897 0,2.86102c0,0.84 0,1.83865 0,2.67416c0,0.58365 0,1.77881 0,2.65784c0,0.80698 0,1.85333 0,2.62665c0,0.96533 0,1.73633 0,2.59735c0,0.89716 0,1.78665 0,2.64017c0,1.03564 0,1.93631 0,2.95715c0,0.79999 0,1.60001 0,2.60001c0,0.79999 0,1.79999 0,2.60001c0,1 0,1.79999 0,2.79999c0,0.79999 0,1.60001 0,2.59549c0,0.74734 0,1.77917 0,2.72601c0,0.69934 0,1.6785 0,2.47849c0,0.80002 0,1.80002 0,2.60001c0,0.99866 0,1.94284 0,2.84735c0,0.91931 0,1.7735 0,2.75266c0,0.79999 0,1.60001 0,2.60001c0,0.79999 0,1.79865 0,2.564c0,0.95065 -0.03668,1.93674 0,2.836c0.02863,0.70175 0.60486,1.50528 0.83334,2.33334c0.24924,0.90338 0.1644,1.71848 0.16666,2.745c0.00192,0.88 0,1.755 0,2.547c0,1.02734 0,1.72198 0,2.73868c0,0.94049 0,1.80264 0,2.63599c0,0.97849 0,1.79868 0,2.70001c0,0.89999 0,1.79999 0,2.69998c0,0.89551 0,1.76666 0,2.70001c0,0.89999 0,1.69998 0,2.60001l0,0.89999l0,0.89999" id="svg_19" stroke-width="2" stroke="#000" fill="none"/>
  <path t="70693,70788,70789,70805,70821,70829,70848,70864,70864,70869,70885,70901,70924,70941,70965,70965,70973,70989,71005,71029,71045,71061,71084,71093,71116,71148,71165,71165,71181,71189,71197,71213,71228,71236,71253,71261,71277,71301,71309,71317,71332,71342,71349,71358,71380,71396,71405,71420,71444,71461,71469,71469,71479,71493,71501,71516,71533,71549,71559,71565,71565,71573,71582,71589,71597,71605,71621,71630,71637,71637,71647,71653,71669,71669,71669,71681,71681,71685,71685,71701,71717,71727,71757,71766,71781,71797,71815,71853,71892,71909,71933,71948,71957,71965,71981,71989,71989,72005,72029,72061,72093,72109,72117,72132,72141,72149,72157,72174,72174,72197,72213,72221,72229,72237,72252,72268,72277,72301,72309,72309,72332,72341,72357,72374,72397,72413,72420,72428,72437,72445,72476,72477,72500,72517,72517,72540,72557,72581,72597,72613,72636,72660,72701,72717,72756,72796,72812" d="m343.51135,285.09091c-1,-1 -1.83441,-0.80405 -2.69998,-1.05716c-0.87766,-0.25665 -1.60623,-0.82339 -2.5,-0.94418c-0.80957,-0.10941 -1.45261,-0.79883 -2.30002,-0.97781c-0.8808,-0.18604 -1.79547,-0.02084 -2.7215,-0.02084c-0.87848,0 -1.7785,0 -2.57849,0c-0.89999,0 -1.79999,0 -2.70001,0c-0.89999,0 -1.79999,0 -2.69998,0c-0.89984,0 -1.82535,0 -2.60135,0c-0.95581,0 -1.85132,0 -2.71466,0c-0.84799,0 -1.80444,-0.02924 -2.48401,0.5c-0.63553,0.49496 -1.43924,0.90384 -1.91599,1.69867c-0.4144,0.69089 -1.56366,0.47379 -2.02682,1.15399c-0.48999,0.71957 -0.66739,1.38522 -1.02118,2.08334c-0.3909,0.77133 0.04877,1.92371 -0.46133,2.53867c-0.4971,0.59927 -1.37454,1.01721 -1.57016,1.72983c-0.23727,0.86444 -0.62262,1.60583 -0.91916,2.49551c-0.28589,0.85764 -0.08536,1.79999 -0.08536,2.59998c0,0.90002 0,1.80002 0,2.70001c0,0.88934 0,1.85718 0,2.70001c0,0.89999 0,1.79999 0,2.59998c0,0.90002 -0.00534,1.80005 0,2.70001c0.00534,0.90005 0.37567,1.64426 0.83334,2.5c0.42328,0.79147 1.2623,0.7547 1.96667,1.17065c0.77484,0.45758 0.9873,1.53314 1.53333,2.16269c0.48926,0.56409 1.20795,1.16095 1.90952,1.914c0.57608,0.61838 0.97305,1.46161 1.45715,2.04282c0.60611,0.72766 1.62167,0.51495 2.49866,0.71118c0.80707,0.18057 1.22742,1.07623 1.82669,1.57333c0.61496,0.5101 1.31348,0.7175 1.97464,1.25867c0.56024,0.45856 1.60001,0.16666 2.5,0.16666c0.90002,0 1.80002,0 2.70001,0c0.89999,0 1.79999,0 2.60001,0c0.89999,0 1.79999,0 2.69998,0c0.90002,0 1.8548,0.0788 2.47467,-0.42532c0.61508,-0.50021 1.28424,-0.99591 2.12518,-1.45334c0.74753,-0.40662 1.09326,-1.24539 1.60468,-1.82135c0.65021,-0.73224 1.1456,-1.4043 1.29547,-2.29999c0.14026,-0.8382 0.95728,-1.28235 1,-2.20001c0.04184,-0.89883 0.24762,-1.35446 0.83334,-1.96664c0.58752,-0.61404 0.16666,-1.63333 0.16666,-2.66669c0,-0.77731 0,-1.66666 0,-2.56665c0,-0.89999 0,-1.80002 0,-2.70001c0,-0.89999 0.508,-1.34793 0.99869,-1.98532c0.55798,-0.72476 0.00131,-1.71466 0.00131,-2.55066c0,-1.01669 0,-1.71133 0,-2.72803c0,-0.93597 0,-1.836 0,-2.73599c0,-0.89999 0,-1.77866 0,-2.60449c0,-0.89551 0,-1.7955 0,-2.6955l0,-0.89999l0,-0.90002" id="svg_20" stroke-width="2" stroke="#000" fill="none"/>
  <path t="74045,74260,74260,74276,74292,74301,74324,74364,74396,74412" d="m313.51135,226.09091c-1,0 -1.79999,0 -2.69998,0c-0.89999,0 -1.80002,0 -2.70001,0l-0.89999,0l-0.89999,0l-0.89999,0" id="svg_21" stroke-width="2" stroke="#000" fill="none"/>
  <path t="75989,76237,76245,76261,76293,76349,76373,76381,76405,76429,76429,76437,76453,76477,76501,76541,76557,76565,76589,76589,76605,76621,76637,76669,76693,76709,76741,76773,76789,76797,76813,76829,76829,76845,76853,76869,76886,76893,76902,76919,76941,76941,76949,76965,76974,76981,76989,77029,77029,77061,77070,77085,77102,77109,77125,77141,77157,77173,77189,77189,77205,77205,77221,77229,77253,77269,77277,77293,77302,77325,77325,77341,77349,77365,77373,77381,77397,77397,77408,77429,77445,77445,77461,77461,77477,77490,77493,77502,77510,77519,77526,77535,77542,77549,77557,77573,77581,77591,77605,77605,77613,77629,77645,77661,77677,77677,77686,77702,77702,77724,77724,77735,77741,77765,77781,77797,77813,77813,77821,77845,77869,77877,77891,77893,77909,77926,77935,77965,77989,77998,78029,78029,78061,78077,78093,78117,78133,78173,78197,78206,78206,78223,78239,78255,78270,78270,78277,78289,78289,78317,78317,78325,78325,78334,78351,78357,78366,78373,78381,78389,78397,78429,78437,78437,78445,78456,78472,78477,78477,78501,78509,78510,78533,78542,78557,78558,78573,78581,78589,78597,78613,78623,78629,78629,78645,78653,78661,78661,78677,78693,78703,78710,78725,78734,78734,78751,78757,78773,78789,78789,78797,78806,78813,78829,78839,78856,78856,78872,78877,78877,78885,78893,78925,78933,78934,78941,78959,78967,78975,78982,78989,79005,79023,79029,79053,79061,79069,79077,79101,79125,79141,79158,79173,79173,79181,79189,79206,79221,79229,79239,79261,79277,79277,79301,79309,79341,79365,79405,79437,79453,79469,79469,79493,79509,79518,79533,79558,79597,79621,79629,79645,79653,79661,79677,79693,79709,79725,79741,79749,79758,79773,79783,79805,79813,79829,79837,79861,79885,79917,79933,79965,79981,80005,80037,80037,80053,80077,80117,80133,80149,80165,80181,80190,80205,80214,80229,80261,80301,80341,80365,80405,80405,80469,80509" d="m339.51135,214.09091c1.80002,0 2.70001,0 3.56403,0c0.87198,0 1.836,0 2.73599,0c0.89999,0 1.79999,0 2.69998,0c0.80002,0 1.70001,0 2.60001,0c0.89999,0 1.78934,0 2.68533,0c0.91467,0 1.81467,0 2.71466,0c0.80002,0 1.70001,0 2.60001,0c0.89999,0 1.80002,0 2.70001,0c0.89865,0 1.89847,-0.29694 2.57867,0.22133c0.63937,0.48714 1.32132,0.77867 2.22131,0.77867c0.89999,0 1.70044,-0.02724 2.60001,0c0.94415,0.02859 1.37057,0.76364 2.29999,1c0.82364,0.20946 0.54996,1.21307 1.16669,1.83333c0.59921,0.60262 1.63351,0.14868 2.53333,0.16667c0.90054,0.01801 1.69553,0.43272 2.49866,0.916c0.7446,0.44804 0.97833,1.42088 1.60269,1.79866c0.80554,0.4874 1.88242,-0.06897 2.67783,0.30617c0.70535,0.33267 0.49213,1.48264 0.94617,1.98984c0.56598,0.63222 1.03815,1.36604 1.45349,2.08934c0.50208,0.87434 1.12158,1.13712 1.78784,1.89999c0.52438,0.60045 0.8754,1.44569 1.62881,1.94733c0.68927,0.45894 0.70459,1.45064 1.2045,2.05267c0.51462,0.61975 0.94421,1.3923 1.59985,2.10001c0.54996,0.59363 0.88974,1.39981 0.90015,2.29999c0.01041,0.89995 0,1.8 0,2.70001c0,0.89999 -0.40271,1.83641 0.08536,2.61465c0.46432,0.7404 0.91464,1.28534 0.91464,2.17067c0,0.94 0,1.63068 0,2.59384c0,0.92082 0,1.82083 0,2.72083c0,0.90001 0,1.8 0,2.716c0,0.7885 0,1.68401 0,2.584c0,0.89999 0,1.8 0,2.70001c0,0.89999 0,1.79999 0,2.59998c0,0.90002 0,1.80002 0,2.70001c0,0.91068 0,1.82132 0,2.67465c0,0.94 0,1.82535 0,2.71069c0,0.93997 0,1.63065 0,2.59381c0,1 0,1.87802 0,2.72086c0,0.89999 0,1.79999 0,2.59998c0,0.90002 0.16522,1.81921 -0.02081,2.70001c-0.17899,0.84738 -0.66013,1.73282 -1.26318,2.41599c-0.52307,0.59256 -0.63712,1.42419 -1.14133,2.05869c-0.48392,0.60898 -0.47922,1.46985 -0.85867,2.22534c-0.43558,0.86719 -0.71533,1.59998 -0.716,2.5c-0.00067,0.89999 0,1.79999 0,2.69998c0,0.89551 0,1.8215 0,2.70001c0,0.89999 0,1.69998 0,2.60001c0,0.89999 0,1.82083 0,2.62131c0,0.85333 -0.20053,1.85629 0.16669,2.67868c0.36752,0.82306 1.02914,1.45688 1.444,2.18533c0.46115,0.80975 1.1871,1.46176 1.3685,2.31467c0.18726,0.88055 0.02072,1.79999 0.02081,2.70001c0.00009,0.89981 0.50778,1.40866 0.94284,2.15717c0.42383,0.72922 0.05716,1.80948 0.05716,2.64282c0,0.79999 -0.41119,1.8226 0.05719,2.64282c0.46432,0.81314 1.06937,1.38907 1.5535,1.95718c0.63516,0.74533 1.13156,1.43448 1.47333,2.19998c0.33197,0.74353 0.71738,1.65842 1.13733,2.42151c0.36746,0.66772 0.76575,1.47861 0.77866,2.37851c0.0126,0.8793 0.73154,1.25098 1.38934,1.836c0.69284,0.61615 0.44647,1.70447 0.69601,2.36398c0.32813,0.86719 1.4884,1.07455 1.862,1.90533c0.30325,0.67438 0.90884,1.34332 1.05264,2.242c0.13495,0.84326 0.31451,1.43982 0.83334,2.21933c0.47089,0.70746 -0.02927,1.66776 0.22385,2.53336c0.25665,0.87759 0.77924,1.64703 1.16415,2.39999c0.39014,0.76318 0.77332,1.49994 0.77866,2.39999c0.00531,0.89996 0,1.79999 0,2.70001c0,0.90015 0,1.68533 0,2.62531c0,1.00803 0,1.76401 0,2.67468c0,0.97916 0.45795,1.68051 0.83334,2.5c0.34021,0.74268 0.16666,1.70001 0.16666,2.60001c0,0.89999 0,1.79999 0,2.69998c0,0.90002 0,1.80002 0,2.70001c0,0.83334 0.46576,1.54166 0.94736,2.2955c0.44711,0.69989 1.04224,1.22516 1.05264,2.10449c0.01065,0.89993 0,1.80002 0,2.70001c0,0.89999 0,1.69998 0,2.60001c0,0.94281 0,1.82083 0,2.69998c0,0.89999 0,1.80002 0,2.70001c0,0.89999 0,1.69998 0,2.60001c0,0.89999 0,1.79999 0,2.68933c0,0.96783 0,1.81067 0,2.71066c0,0.89999 0,1.69998 0,2.60001c0,0.89999 0,1.79999 0,2.69998c0,0.89551 0,1.8215 0,2.70001c0,0.89999 -0.44974,1.44531 -0.91464,2.18533c-0.48804,0.77686 -0.65213,1.39236 -1.04935,2.15067c-0.39926,0.76221 -0.56381,1.448 -1.03601,2.08484c-0.5788,0.78061 -1.35687,1.04404 -1.91464,1.76315c-0.50134,0.64636 -0.54486,1.5217 -1.07468,2.28c-0.39246,0.56168 -0.61212,1.15018 -1.04666,2c-0.35632,0.69684 -0.56131,1.37381 -1.04935,2.15067c-0.4649,0.74002 -0.53073,1.48981 -1.13617,2.164c-0.5546,0.61758 -1.48193,0.82236 -2.07397,1.41684c-0.67249,0.67526 -0.98975,1.38293 -1.62051,1.98849c-0.57288,0.54999 -1.07138,1.23669 -1.08401,2.116c-0.01285,0.89542 -0.66348,1.40994 -0.97916,2.12085c-0.38928,0.87668 -0.50018,1.59103 -1.07349,2.1265c-0.68521,0.64001 -1.23267,1.26865 -2.04733,1.57401l-0.60001,0.42599l-0.89999,0.34198l-0.90002,0.01068" id="svg_22" stroke-width="2" stroke="#000" fill="none"/>
  <path t="83269,83389,83397,83413,83421,83429,83437,83445,83453,83469,83469,83509" d="m340.51135,25.09091c1.70001,0 2.64285,0 3.52084,0c0.97916,0 1.87918,0 2.77917,0c0.89999,0 1.79999,0 2.69998,0l0.80002,0l0.89999,0" id="svg_23" stroke-width="2" stroke="#000" fill="none"/>
  <path t="84429,84461,84469,84485,84494,84501,84518,84518,84534,84557,84573,84629" d="m338.51135,39.09091c1.80002,0 2.71976,-0.15709 3.5,0.02083c0.96204,0.21939 1.59387,0.91828 2.5,0.97917c0.79822,0.05364 1.70001,0 2.60001,0l0.89999,0l0.90002,0" id="svg_24" stroke-width="2" stroke="#000" fill="none"/>
  <path t="85429,85508,85517,85526,85542,85549,85557,85565,85573,85581,85581,85597" d="m339.51135,50.09091c1.80002,0 2.70001,0 3.56403,0c0.87198,0 1.836,0 2.73599,0c0.89999,0 1.79999,0 2.69998,0l0.80002,0l0.89999,0" id="svg_25" stroke-width="2" stroke="#000" fill="none"/>
  <path t="86741,86877,86885,86893,86901,86917,86933,86933,86941,86949,86957,86974,86981,87077" d="m293.51135,28.09091c1.80002,0 2.70001,0 3.60001,0c0.89999,0 1.7045,0 2.72134,0c0.67865,0 1.65717,0 2.67865,0c0.83334,0 1.61069,0 2.60001,0l0.89999,0" id="svg_26" stroke-width="2" stroke="#000" fill="none"/>
  <path t="87765,87836,87845,87853,87885,87901,87901,87909,87917,87957,87957,87997" d="m299.51135,37.09091c1.80002,0 2.70001,0 3.56403,0c0.88266,0 1.75732,0 2.61066,0c0.94,0 1.92532,0 2.82532,0l0.80002,0l0.89999,0" id="svg_27" stroke-width="2" stroke="#000" fill="none"/>
  <path t="88637,88748,88757,88757,88773,88773,88781,88781,88789,88797,88805,88822,88829,88861,88877" d="m303.51135,50.09091c1.04169,0 2,0 2.78934,0c1.04401,0 1.836,0 2.69467,0c0.86334,0 1.88,0 2.716,0c0.89984,0 1.82535,0 2.60135,0l0.89865,0l0.89999,0" id="svg_28" stroke-width="2" stroke="#000" fill="none"/>
  <path t="89813,89924,89924,89933,89941,89957,89965,89973,89973,89981,89989,90005,90005,90013,90013,90021,90037,90053,90061,90070,90070,90093,90116,90148,90173" d="m334.51135,27.09091c-1,1 -0.79916,1.83587 -1.05716,2.7c-0.25638,0.85876 -0.94284,1.5215 -0.94284,2.4c0,0.9 -0.12204,1.67867 -0.57465,2.5c-0.43628,0.79173 -0.64978,1.72006 -0.92535,2.4c-0.33713,0.8318 -0.55344,1.69506 -1,2.5c-0.4436,0.79957 -0.41788,1.70377 -0.50015,2.6c-0.08368,0.91144 -0.57449,1.5 -0.96384,2.3l-0.03601,0.9l0,0.9l0,0.9" id="svg_29" stroke-width="2" stroke="#000" fill="none"/>
  <path t="91069,91164,91175,91181,91190,91190,91196,91196,91204,91213,91213,91220,91229,91237,91245,91252,91269,91277,91277,91292,91501,91517,91534,91556,91590,91612,91636,91637,91644,91693" d="m313.51135,30.09091c0.03601,1.61067 0.51749,2.35034 0.91602,3.2c0.40366,0.86057 0.80972,1.53461 1.03134,2.45266c0.16489,0.68299 0.39087,1.60667 1.05264,2.34734c0.54868,0.61407 0.98132,1.39947 1,2.3c0.01862,0.89848 0.49054,1.51048 0.97467,2.136c0.57721,0.74581 0.76221,1.60089 1.10934,2.364c0.38858,0.85426 0.70407,1.84863 1.43683,2.17916c0.80164,0.36161 1.77466,0.02084 2.70068,0.02084c0.87848,0 1.77847,0 2.57849,0l0.89999,0l0.89999,0" id="svg_30" stroke-width="2" stroke="#000" fill="none"/>
 </g>
 <g display="none">
  <title>muse_image</title>
  <image xlink:href="http://farm1.static.flickr.com/187/369892167_91927a88d8.jpg" id="muse" height="480" width="360" y="0" x="140"/>
 </g>
 <g display="none">
  <title>bbox</title>
  <rect stroke="#f00" fill="none" stroke-width="3" height="478.08" width="182.4" y="0.96" x="224.48" id="bbox"/>
 </g>
</svg>
