<svg width="640" height="480" xmlns="http://www.w3.org/2000/svg" xmlns:svg="http://www.w3.org/2000/svg" xmlns:xlink="http://www.w3.org/1999/xlink">
 <!-- Sketchy ANNOTATION
  ImageNet ID: n02676566_8309
  URL: http://farm4.static.flickr.com/3143/3048170166_cb84579a22.jpg
  Image Width: 375
  Image Height: 500
  BBox X: 121
  BBox Y: 17
  BBox Width: 202
  BBox Height: 481
  Exposure: 2000ms
  Synset Label: guitar
  Synset ID: n03467517
  Worker Tag: acoustic guitar
  Sanity Check: 
   Saved
  Comment: 
   {}
  Worker ID: A1VGZ2K3HF66TE
  Assignment ID: 37WLF8U1WPQ23MN7YETYHJ1MZHRK6S
  HIT ID: 34R0BODSP1Z1BYXP773O2YFWGG55E3
  Work Time: 82s
  Worker Score: 0.7857
 END ANNOTATION -->
 <g display="inline">
  <title>Layer 1</title>
  <path t="0,186,187,187,187,187,188,188,245,245,245,246,246,263,263,263,263,263,264,264,286,286,286,286,286,287,287,287,287,304,305,305,305,305,305,305,306,306,346,347,347,347,347,348,354,354,354,355,355,355,369,370,370,370,370,528,528,528,529,529,529,529,529,530,538,539,539,539,539,540,540,540,564,568,568,568,568,568,569,569,569,596,597,597,597,597,598,599,599,599,605,605,605,605,606,606,606,606,607,620,620,620,621,622,622,622,623,623,635,637,638,639,640,640,641,641,641,654,655,655,656,656,656,657,658,659,668,669,669,669,670,671,671,672,672,703,704,704,705,705,705,706,706,706,719,733,734,737,738,738,738,739,739,756,758,758,759,761,762,766,766,766,773,774,774,775,775,775,776,776,776,823,829,834,835,848,851,858,859,860,966,968,968,969,969,970,971,971,972,987,988,989,989,990,991,991,992,993,1005,1007,1008,1008,1009,1010,1010,1011,1012,1022,1023,1023,1024,1025,1025,1027,1028,1028,1039,1040,1041,1043,1043,1044,1044,1045,1045,1054,1055,1056,1057,1058,1059,1059,1060,1060,1069,1070,1070,1071,1071,1072,1073,1074,1074,1143,1144,1145,1146,1146,1147,1147,1148,1148,1174,1175,1176,1176,1177,1178,1178,1179,1180,1191,1193,1193,1194,1195,1196,1198,1200,1201,1209,1211,1214,1216,1217,1218,1219,1220,1221,1230,1234,1234,1235,1236,1236,1237,1237,1238,1247,1250,1250,1251,1252,1254,1255,1255,1256,1289,1290,1292,1292,1293,1293,1294,1295,1295,1305,1307,1309,1311,1313,1315,1319,1322,1323,1330,1332,1334,1335,1336,1337,1338,1338,1339,1352,1354,1355,1355,1356,1357,1357,1358,1359,1393,1395,1397,1399,1400,1402,1403,1404,1405,1426,1427,1429,1430,1431,1437,1438,1439,1440,1454,1457,1458,1459,1460,1461,1462,1462,1463,1475,1477,1478,1479,1480,1481,1482,1484,1485,1506,1508,1509,1511,1512,1514,1515,1522,1524,1545,1546,1547,1551,1552,1554,1556,1557,1558,1564,1565,1566,1567,1568,1569,1570,1570,1571,1586,1588,1589,1590,1591,1595,1596,1597,1599,1613,1614,1616,1618,1621,1623,1624,1626,1627,1633,1635,1636,1637,1638,1640,1641,1642,1643,1677,1678,1679,1681,1687,1689,1691,1693,1706,1708,1735,1737,1738,1740,1742,1744,1745,1745,1763,1766,1772,1773,1774,1775,1783,1784,1786,1788,1789,1790,1791,1802,1805,1807,1810,1812,1813,1815,1816,1819,1825,1827,1828,1829,1832,1835,1837,1839,1841,1860,1862,1864,1865,1867,1868,1869,1870,1871" d="m331,271c-11.66666,-1.66666 -12.52655,-1.77304 -14.03818,-1.88568c-0.66266,-0.04938 -1.27408,-0.082 -2.36865,-0.10532c-0.4971,-0.01059 -1.87283,-0.03241 -2.745,0.009c-0.87048,0.04132 -1.32562,0.06268 -2.2175,0.32333c-1.50787,0.44064 -2.0058,0.79221 -2.53152,1.10983c-0.5484,0.33133 -1.62744,1.15573 -2.13666,1.65265c-0.52505,0.51236 -1.48294,1.71677 -1.89749,2.40369c-0.42642,0.70663 -0.79785,1.47083 -1.125,2.27249c-0.33337,0.81689 -0.61578,1.66885 -0.85501,2.54251c-0.24097,0.87994 -0.5979,2.67563 -0.72049,3.57648c-0.12131,0.89136 -0.20132,1.77344 -0.2565,2.63702c-0.05359,0.8385 -0.08023,1.64789 -0.09451,2.42099c-0.01349,0.73093 -0.01349,2.043 -0.01349,2.6145c0,0.52051 0,0.99899 0,1.866c0,0.80701 0,2.0625 0,3.0145c0,0.50601 0,1.548 0,2.07199c0,1.02402 -0.01709,1.97629 0.00534,2.828c0.02118,0.8046 0.10226,1.64053 0.336,2.556c0.28186,1.10403 0.53867,1.72235 0.79733,2.39734c0.27496,0.71753 0.58066,1.45874 0.90298,2.21552c0.32565,0.76459 0.65924,1.52158 0.99301,2.2605c0.6268,1.38766 1.21484,2.64755 1.43301,3.34882c0.24683,0.79337 0.43484,1.7623 0.56699,2.94452c0.16135,1.44348 0.27509,3.21408 0.29868,7.92532c0.01514,3.0242 -0.06357,6.43359 -0.16202,10.13251c-0.10364,3.8945 -0.24466,7.88873 -0.414,11.88748c-0.16556,3.90961 -0.31259,7.63657 -0.75732,14.14667c-0.17932,2.62482 -0.38147,4.82825 -0.58649,6.66c-0.16953,1.51474 -0.34656,2.75735 -0.50552,3.78c-0.13275,0.85391 -0.29462,1.58228 -0.40799,2.89334c-0.05728,0.66248 -0.05405,1.3522 -0.03299,2.05801c0.02145,0.71832 0.07141,1.44223 0.129,2.16599c0.05713,0.71826 0.13193,1.42325 0.23734,2.776c0.04953,0.6355 0.08456,1.24652 0.1095,1.83749c0.02429,0.57571 0.0383,1.14163 0.04648,1.70251c0.00818,0.56079 0.01001,1.12665 0.01068,2.29333c0.00034,0.6095 0,1.23599 0,1.8765c0,0.65149 0,1.311 0,1.97549c0,0.6665 -0.00034,1.332 0,2.64801c0.00018,0.64499 -0.00043,1.28003 0.009,1.905c0.00928,0.61505 0.02631,1.22037 0.06299,1.815c0.0361,0.58542 0.06815,1.16486 0.26135,2.28c0.09491,0.54779 0.22943,1.08264 0.3855,1.60498c0.15472,0.51782 0.33585,1.02316 0.53848,1.51501c0.20114,0.48822 0.41232,0.96976 0.90933,1.88c0.24588,0.45032 0.51529,0.88483 0.7905,1.314c0.27545,0.42953 0.56281,0.85327 0.85352,1.27798c0.29294,0.42795 0.59637,0.85483 1.18933,1.74133c0.30228,0.4519 0.5965,0.90952 0.88199,1.36353c0.2771,0.44067 0.53659,0.8645 0.77402,1.2645c0.2171,0.36578 0.41504,0.68817 0.67734,1.20532c0.08612,0.16983 0.13138,0.29691 0.17398,0.37949c0.03076,0.05963 0.07413,0.10309 0.138,0.13651c0.09152,0.04788 0.23575,0.09485 0.68802,0.31735c0.34109,0.16782 0.74548,0.38904 1.21048,0.63898c0.51233,0.27536 1.05923,0.57141 1.63351,0.87302c0.58606,0.3078 1.16843,0.6243 2.32266,1.15466c0.53204,0.24448 1.04575,0.45142 1.54199,0.633c0.47989,0.17557 0.95694,0.32892 1.43402,0.47101c0.48093,0.14325 0.97614,0.27673 2.02399,0.56265c0.56509,0.15417 1.15918,0.31912 1.785,0.48151c0.65417,0.16974 1.33853,0.33777 2.05499,0.49051c0.74353,0.15851 1.51559,0.32483 3.16,0.52798c0.86639,0.10703 1.78613,0.17108 2.77499,0.20102c1.078,0.03265 2.26709,0.01959 3.58499,-0.03302c1.46896,-0.05865 3.10895,-0.15256 6.97336,-0.50131c2.25793,-0.20377 4.69272,-0.46552 7.25549,-0.75302c2.64127,-0.2963 5.30786,-0.61517 7.94849,-0.95099c2.56638,-0.32639 5.00943,-0.6282 9.29602,-1.29599c1.767,-0.27527 3.27933,-0.5498 4.56598,-0.81c1.09448,-0.22134 2.01828,-0.4361 2.802,-0.63c0.67352,-0.16666 1.25583,-0.34531 2.29868,-0.56c0.49765,-0.10245 0.99927,-0.16962 1.5,-0.21902c0.49936,-0.04926 0.99985,-0.07666 1.5,-0.09299c0.49988,-0.01633 1,-0.01965 2,-0.02133c0.49966,-0.00082 0.99741,0.0004 1.491,-0.009c0.48773,-0.00931 0.9678,-0.02615 1.43701,-0.06299c0.45822,-0.03598 0.9086,-0.065 1.73865,-0.26135c0.39444,-0.09332 0.76443,-0.2287 1.11902,-0.36749c0.34409,-0.13467 0.67145,-0.28128 0.99298,-0.41251c0.31119,-0.12701 0.61005,-0.27258 1.22134,-0.38666c0.29721,-0.05548 0.60138,-0.0538 0.90451,-0.04651c0.3063,0.00735 0.61621,0.03165 0.93149,0.03452c0.32117,0.00293 0.66006,0.02216 1.33066,-0.15466c0.36313,-0.09576 0.73352,-0.27209 1.10852,-0.50702c0.41476,-0.25983 0.84036,-0.60583 1.27948,-1.02899c0.49164,-0.47375 1.01849,-1.0322 2.112,-2.46399c0.63672,-0.83368 1.27502,-1.77353 1.944,-2.7735c0.69659,-1.04123 1.39175,-2.12082 2.08801,-3.21451c0.69305,-1.08865 1.3623,-2.16327 2.63467,-4.17868c0.57895,-0.91705 1.12375,-1.76862 1.629,-2.5665c0.47336,-0.74753 0.91684,-1.45178 1.323,-2.12549c0.38632,-0.64078 0.76187,-1.2533 1.38132,-2.47467c0.30127,-0.59402 0.56766,-1.1937 0.80551,-1.79099c0.23267,-0.58423 0.43423,-1.16422 0.59851,-1.73703c0.15912,-0.55481 0.31183,-1.09586 0.42932,-2.13864c0.05505,-0.48856 0.05478,-0.96304 0.03299,-1.41901c-0.02115,-0.44287 -0.07114,-0.87314 -0.129,-1.293c-0.05688,-0.41281 -0.13455,-0.81705 -0.23734,-1.62134c-0.05109,-0.39981 -0.08505,-0.80374 -0.1095,-1.2135c-0.02496,-0.41827 -0.03842,-0.84897 -0.04648,-1.29449c-0.00839,-0.46347 -0.01001,-0.948 -0.01068,-1.992c-0.00037,-0.56418 0,-1.15332 0,-1.76251c0,-0.62415 0,-1.25833 0,-1.89749c0,-0.63916 0.00085,-1.27332 0,-2.50665c-0.00043,-0.591 0.00089,-1.16827 -0.02249,-1.737c-0.02332,-0.56738 -0.06842,-1.13989 -0.1575,-1.71902c-0.09216,-0.59924 -0.20255,-1.23032 -0.65335,-2.54398c-0.24982,-0.72794 -0.5838,-1.47711 -0.948,-2.25751c-0.37952,-0.8132 -0.79855,-1.64011 -1.23599,-2.48251c-0.44449,-0.85599 -0.90778,-1.7113 -1.81601,-3.42667c-0.44669,-0.84369 -0.88055,-1.67636 -1.30048,-2.496c-0.41071,-0.8017 -0.80579,-1.58627 -1.1835,-2.35199c-0.36588,-0.74167 -0.71805,-1.45789 -1.34933,-2.81866c-0.29446,-0.63474 -0.56772,-1.25079 -0.83701,-1.85101c-0.26669,-0.59445 -0.53494,-1.19208 -0.819,-1.797c-0.29385,-0.62582 -0.60202,-1.28195 -1.34399,-2.68533c-0.41147,-0.77829 -0.87143,-1.59439 -1.35751,-2.45248c-0.50717,-0.89529 -1.03885,-1.81802 -1.58249,-2.76752c-0.55472,-0.96884 -1.1235,-1.94766 -2.22668,-3.94666c-0.55026,-0.99707 -1.08347,-1.99753 -1.6095,-2.99551c-0.52325,-0.99271 -1.03665,-1.98346 -1.54648,-2.96848c-0.50653,-0.97867 -1.00446,-1.95325 -2.01068,-3.86935c-0.49692,-0.94626 -0.99734,-1.8786 -1.48199,-2.80499c-0.478,-0.91364 -0.94254,-1.81619 -1.37399,-2.715c-0.4231,-0.88135 -0.84857,-1.74271 -1.47736,-3.48001c-0.3028,-0.83658 -0.53632,-1.67157 -0.73349,-2.487c-0.19043,-0.78754 -0.33728,-1.55328 -0.4545,-2.289c-0.11139,-0.6991 -0.19827,-1.3616 -0.31201,-2.55731c-0.05002,-0.52594 -0.0835,-1.01071 -0.1185,-1.461c-0.03299,-0.42438 -0.06494,-0.83112 -0.1095,-1.22702c-0.04443,-0.39481 -0.09073,-0.79816 -0.272,-1.64532c-0.09985,-0.46664 -0.23355,-0.9563 -0.37198,-1.4715c-0.14423,-0.5368 -0.29794,-1.09015 -0.444,-1.66049c-0.14868,-0.58066 -0.30899,-1.16714 -0.51733,-2.36801c-0.10364,-0.59735 -0.1691,-1.19553 -0.22351,-1.7865c-0.0535,-0.58109 -0.08945,-1.15097 -0.12451,-1.70551c-0.03394,-0.53647 -0.0498,-1.05377 -0.15198,-2.008c-0.04672,-0.43646 -0.11288,-0.84546 -0.19501,-1.22849c-0.07825,-0.36502 -0.17358,-0.71112 -0.285,-1.03952c-0.1088,-0.32065 -0.22736,-0.634 -0.51999,-1.23199c-0.14804,-0.30252 -0.31281,-0.59573 -0.47702,-0.88199c-0.15854,-0.27637 -0.31445,-0.53479 -0.45898,-0.77402c-0.13016,-0.21545 -0.34161,-0.6879 -0.52002,-1.47733c-0.16113,-0.71304 -0.59842,-1.79764 -0.85864,-2.46399c-0.28342,-0.7258 -0.59653,-1.4884 -0.936,-2.26801c-0.34247,-0.78644 -0.67252,-1.56827 -1.41602,-2.96802c-0.3313,-0.62372 -0.66736,-1.17883 -1.00949,-1.6665c-0.61182,-0.87204 -1.24484,-1.57632 -2.15717,-2.50015c-0.29929,-0.30304 -0.93127,-0.93604 -1.72916,-1.5625c-0.45682,-0.35867 -0.99051,-0.72391 -1.6095,-1.09351c-1.47379,-0.88 -2.39194,-1.31689 -3.38934,-1.79065c-1.06006,-0.50354 -2.17807,-0.9978 -3.3345,-1.47c-1.16232,-0.47458 -2.3208,-0.9234 -3.46951,-1.29001c-2.11942,-0.67639 -3.09219,-0.86554 -3.98398,-0.99734c-0.81937,-0.12109 -1.58514,-0.17014 -2.29651,-0.17099c-0.66632,-0.00082 -1.29468,0.04529 -1.89151,0.099c-1.13004,0.10168 -1.67392,0.15817 -2.20798,0.19067c-0.52164,0.03174 -1.03067,0.04932 -1.52551,0.06448l-0.47983,0.01016l-0.46384,0.0062l-0.44684,0.00314" id="svg_1" stroke-width="2" stroke="#000" fill="none"/>
  <path t="2304,2485,2485,2485,2485,2485,2485,2485,2486,2486,2503,2503,2503,2504,2504,2504,2504,2504,2504,2518,2518,2519,2519,2519,2519,2519,2519,2520,2536,2536,2536,2536,2537,2537,2537,2537,2537,2569,2569,2570,2570,2570,2570,2570,2570,2570,2601,2601,2601,2602,2602,2602,2602,2603,2603,2607,2608,2608,2609,2609,2610,2610,2611,2611,2618,2619,2619,2619,2619,2620,2620,2620,2620,2657,2658,2658,2658,2658,2659,2659,2659,2660,2672,2673,2674,2674,2674,2675,2675,2676,2676,2688,2688,2689,2689,2689,2690,2690,2690,2691,2721,2722,2723,2723,2723,2723,2724,2724,2724,2737,2738,2738,2739,2739,2739,2740,2741,2742,2754,2754,2755,2755,2755,2756,2756,2756,2757,2786,2786,2786,2787,2787,2788,2788,2788,2789,2801,2802,2803,2803,2804,2804,2919,2936,2937,2938,2969,2985,3002,3003,3004,3004,3005,3005,3022,3023,3054,3068,3069,3070,3085,3137,3156,3157,3157,3158,3158,3169,3170,3171,3172,3172,3173,3173,3185,3186,3187,3187,3188,3188,3188,3219,3220,3220,3221,3221,3235,3236,3237,3238,3239,3240,3240,3241,3253,3254,3254,3255,3255,3255,3256,3256,3268,3269,3269,3270,3303,3304,3304,3319,3320,3336,3337,3337,3338,3369,3387,3472,3485,3486,3487,3487,3488,3488,3489,3502,3503,3504,3504,3505,3536,3537,3538,3538,3539,3553,3554,3555,3555,3556,3556,3557,3568,3569,3570,3571,3572,3589,3590,3590,3620,3639,3640,3641,3642,3648,3658,3670,3704,3705,3705,3706,3718,3737,3752,3753,3753,3754,3786,3802,3821,3822,3822,3823,3824,3825,3840,3842,3843,3844,3845,3874,3875,3875,3876,3877,3887,3889,3889,3890,3891,3892,3892,3922,3923,3924,3925,3925,3926,3935,3936,3937,3938,3939,3939,3953,3954,3955,3955,3956,3957,3957,3958,3958,3987,3988,3989,3990,3991,3998,3999,4000,4001,4002,4021,4023,4024,4024,4025,4035,4037,4038,4039,4039,4040,4041,4042,4064,4066,4068,4069,4076,4077,4078,4079,4080,4103,4104,4105,4106,4106,4118,4120,4121,4122,4123,4135,4136,4137,4138,4153,4155,4155,4156,4186,4187,4188,4189,4203,4205,4206,4207,4208,4210,4220,4221,4222,4223,4224,4235,4236,4237,4270,4272,4273,4274,4275,4288,4289,4290,4292,4304,4319,4320,4321,4323,4324,4365,4367,4369,4370,4372,4377,4378,4379,4380,4387,4402,4403,4404,4443,4466,4468,4470,4471,4477,4485,4486,4487,4488,4538,4587,4588,4590,4590" d="m349,289c-3.66666,-11.33334 -3.95972,-12.31396 -4.23199,-13.26401c-0.26498,-0.92465 -0.51733,-1.83466 -0.76801,-2.73599c-0.25067,-0.90134 -0.50153,-1.81177 -0.76801,-2.73599c-0.55734,-1.93298 -0.87274,-2.95047 -1.20132,-4.004c-0.33838,-1.08484 -0.69193,-2.19336 -1.05151,-3.32251c-0.36441,-1.1442 -0.73407,-2.29736 -1.0965,-3.45749c-0.72214,-2.31146 -1.06378,-3.45773 -1.39734,-4.59468c-0.33075,-1.1274 -0.65097,-2.24886 -0.96448,-3.3645c-0.31183,-1.10971 -0.61719,-2.21609 -0.91953,-3.31949c-0.60303,-2.20087 -0.90207,-3.3011 -1.19998,-4.40134c-0.29776,-1.09976 -0.59299,-2.19939 -0.88049,-3.3c-0.28717,-1.0994 -0.56958,-2.19856 -0.83551,-3.3c-0.53046,-2.19719 -0.76846,-3.30038 -1.00134,-4.41066c-0.23584,-1.1244 -0.46222,-2.274 -0.68399,-3.45601c-0.22903,-1.22064 -0.45602,-2.49008 -0.68399,-3.81599c-0.4899,-2.84943 -0.73853,-4.38814 -1,-5.992c-0.2699,-1.65547 -0.54211,-3.34921 -0.81601,-5.067c-0.27545,-1.72754 -0.548,-3.45122 -0.81601,-5.157c-0.51865,-3.30113 -0.76474,-4.87125 -0.99466,-6.384c-0.22128,-1.45593 -0.42804,-2.85776 -0.60599,-4.209c-0.17114,-1.29948 -0.32498,-2.55106 -0.42599,-3.75899c-0.19067,-2.28012 -0.20245,-3.36311 -0.20535,-4.40668c-0.00281,-1.00951 0.02368,-1.98801 0.048,-2.93849c0.02368,-0.92552 0.05731,-1.82904 0.048,-2.7135c-0.01816,-1.72458 -0.10229,-2.57095 -0.20132,-3.41068c-0.0993,-0.84206 -0.23209,-1.68686 -0.36752,-2.5425c-0.13788,-0.87103 -0.28973,-1.76007 -0.41248,-2.67751c-0.25732,-1.92361 -0.33218,-2.94444 -0.39603,-3.99333c-0.065,-1.06784 -0.10358,-2.14655 -0.129,-3.22499c-0.02518,-1.06824 -0.03513,-2.11665 -0.039,-3.13501c-0.00726,-1.90665 -0.00266,-2.77699 -0.00266,-3.58932c0,-0.75633 0,-1.45866 0,-2.10901c0,-0.60033 0,-1.15266 0,-1.659c0,-0.88266 0,-1.26283 0,-1.604c0,-0.30316 0,-0.56932 0,-0.7995c0,-0.19516 0,-0.35632 0,-0.4845c0,-0.16133 0.00967,-0.20667 0,-0.20667c-0.01233,0 0,0.04266 0,0.08701c0,0.05432 0,0.11465 0,0.177c0,0.11465 0,0.15982 0,0.196c0,0.02817 0,0.04933 0,0.0645c0,0.01016 0,0.01633 0,0.0195c0,0.00133 0,0.00133 0,0.00133c0,0 0,0 0,0c0,0 0,0 0,0c0,0 0,0 0,0c0,0 0,0 0,0c0,-0.42667 0,-1.41867 0,-2.116c0,-1.06351 0,-2.05518 0,-2.28867c0,-1.145 0,-1.586 0,-2.59401c0,-0.543 0,-1.64699 0,-2.18399c0,-1.40933 0,-2.40533 0,-3.31734c0,-0.728 0,-1.65199 0,-2.34801c0,-1.15199 -0.06021,-1.25754 -0.5,-1.98532c-0.35681,-0.59047 -0.80991,-1.32906 -1.40399,-2.112c-0.31378,-0.41351 -1.41376,-1.57472 -1.83936,-1.89c-0.85074,-0.63019 -1.33545,-0.87975 -2.34998,-1.29668c-0.5231,-0.21497 -1.06985,-0.41898 -2.84918,-0.84633c-0.62094,-0.14914 -1.25708,-0.26711 -1.89749,-0.375c-1.27106,-0.21414 -1.89661,-0.29263 -2.50668,-0.36c-1.68729,-0.18631 -2.20215,-0.21323 -3.18799,-0.25067c-0.97696,-0.03711 -1.4805,-0.03307 -3.13199,-0.036c-0.61902,-0.0011 -1.27206,0.0002 -1.953,-0.0135c-0.70309,-0.01416 -1.42453,-0.01929 -2.884,-0.15799c-0.73257,-0.06963 -2.16656,-0.31419 -2.853,-0.49268c-0.6738,-0.17519 -1.32388,-0.3877 -1.95001,-0.6225c-1.20782,-0.45294 -1.76822,-0.71672 -2.32001,-0.94667c-1.52515,-0.63556 -2.44995,-0.95691 -2.87997,-1.10533c-0.79999,-0.27612 -2.17822,-0.79769 -2.72,-1.144c-0.71625,-0.45782 -1.38504,-1.33865 -2.10736,-1.50833c-0.96738,-0.22723 -1.77298,-0.009 -2.62433,-0.009c-0.81131,0 -1.57382,-0.7123 -1.11365,0c0.35556,0.55038 -0.81738,1.54782 -1.06268,1.99467c-0.5658,1.03069 -0.85321,1.60545 -1.12799,2.208c-0.27841,0.61052 -0.63788,1.20587 -1.03,3.05417c-0.11975,0.56445 -0.15234,1.66107 -0.12399,2.18066c0.05447,0.99821 0.25195,2.39563 0.29584,2.84117c0.08551,0.8683 0.12515,1.73445 0.34497,2.57399c0.35123,1.34129 0.63867,1.78215 1.19553,2.70001c0.2912,0.48 0.61963,0.94897 1.284,1.89465c0.32983,0.4695 1.25848,1.82782 1.52567,2.26601c0.50854,0.83405 0.94504,1.64238 1.36798,2.39999c0.59613,1.06789 0.99225,1.70963 1.34018,2.2825c0.56754,0.93446 0.72046,1.7747 0.9985,2.39084c0.35431,0.78506 0.76108,1.60078 1.12799,2.34c0.32794,0.66071 0.11273,0.11046 0.60001,0.75867c0.61292,0.81532 1.06,1.41333 1.48401,1.97867c0.74399,0.992 1.1936,1.56245 1.73715,2.24251c0.52124,0.65213 1.09756,1.36987 1.647,2.073c0.63864,0.81726 0.5704,0.94675 1.13449,1.65382c0.47205,0.59172 1.0654,1.32639 1.39584,1.72917c0.69562,0.8479 1.04623,1.28334 2.11584,2.49451c0.33154,0.37541 0.978,1.06824 1.57498,1.72166c0.56287,0.61607 1.33517,1.51448 1.79849,2.13483c0.47916,0.64156 0.95898,1.35733 1.21753,1.74251c0.87668,1.30609 1.20081,1.79724 1.53598,2.31099c0.69922,1.07173 1.04736,1.62694 1.38934,2.18933c0.3407,0.56032 1.26816,2.21893 1.53198,2.757c0.25601,0.52211 0.70111,1.54088 0.88,2.04001c0.3414,0.95259 0.65607,2.3253 0.728,2.76933c0.14636,0.90372 0.28134,1.88393 0.38501,2.41583c0.11179,0.57361 0.43893,1.86397 0.66583,2.58932c0.24323,0.77759 0.52567,1.5851 0.82651,2.4135c0.30481,0.83932 0.62137,1.67116 0.93451,2.4855c0.30161,0.7843 0.85852,2.20461 1.08865,2.823c0.39294,1.05585 0.71555,1.93568 0.83701,2.733c0.17386,1.1412 0.0632,1.98534 0.02698,2.4225c-0.07416,0.89502 -0.24487,1.79715 -0.09915,3.06134c0.0899,0.77983 0.40231,1.51706 0.73199,2.29199c0.17847,0.41948 0.77472,1.87238 0.96768,2.448c0.2048,0.61099 0.58368,1.91876 0.75867,2.59334c0.17435,0.67213 0.33722,1.33455 0.47098,1.98c0.35388,1.70763 0.46603,2.6423 0.49869,3.06134c0.08954,1.14874 0.06726,2.29202 0.07465,3.12666c0.00388,0.43736 -0.00095,1.33615 0.11166,2.22667c0.16193,1.28053 0.42523,2.05113 0.76834,2.744c0.34299,0.69261 0.80563,1.34378 1.53818,2.38283c0.51855,0.73552 0.80658,1.09468 1.24582,1.88916c0.42731,0.77286 0.77985,1.98682 0.82266,2.78484c0.04199,0.78262 -0.10507,1.57306 0.17734,2.63783c0.18784,0.70816 0.86688,1.62589 1.22269,2.26218c0.49176,0.87944 0.60043,1.81799 0.61066,2.467c0.01117,0.709 0.1405,1.94528 0.436,2.89084c0.16055,0.51378 0.56754,1.56619 0.76266,2.10666c0.19421,0.5379 0.6727,2.10226 0.76532,3.06667c0.04309,0.44864 -0.09076,1.30142 0.07202,2.40001c0.1412,0.95308 0.80136,1.69611 1.16266,2.224c0.70883,1.03564 0.79819,1.72192 0.76801,2.43201c-0.03305,0.7774 -0.21857,1.6019 -0.34518,2.93784c-0.08606,0.90787 -0.10712,1.77521 -0.117,2.54099c-0.01303,1.01062 -0.01022,2.00522 -0.00183,2.63184c0.01108,0.82678 0.05325,1.77499 0.11166,2.26666c0.17188,1.44638 0.43967,2.29199 0.73636,3.05334c0.28528,0.73199 0.65161,1.43613 0.90631,2.62866c0.17859,0.83621 0.2142,1.67419 0.23401,2.42398c0.02658,1.00555 0.45728,1.83752 0.85968,2.56067c0.30289,0.54434 1.00342,1.49792 1.48267,2.27335c0.47049,0.76129 0.67722,1.48895 0.90414,2.18399c0.35812,1.09683 -0.1037,1.81226 -0.18033,2.63202c-0.06375,0.68198 -0.05649,1.67999 -0.05716,2.30548c-0.00076,0.71185 0,1.29718 0,2.35767l0,0.70035" id="svg_2" stroke-width="2" stroke="#000" fill="none"/>
  <path t="5197,5352,5352,5352,5352,5352,5352,5352,5369,5369,5369,5369,5369,5370,5404,5404,5404,5404,5438,5438,5438,5438,5438,5438,5445,5445,5445,5446,5446,5446,5453,5453,5454,5454,5454,5490,5490,5490,5491,5521,5521,5522,5522,5529,5536,5537,5537,5538,5538,5570,5570,5571,5595,5595,5609,5609,5610,5610,5610,5610,5610,5624,5624,5624,5625,5625,5652,5652,5653,5653,5653,5653,5669,5670,5670,5670,5670,5670,5671,5671,5671,5686,5687,5687,5687,5688,5688,5688,5717,5718,5718,5718,5718,5719,5763,5764,5766,5766,5771,5772,5773,5773,5774,5774,5774,5813,5817,5817,5819,5819,5819,5820,5820,5829,5830,5831,5842,5845,5845,5846,5855,5855,5856,5856,5856,5862,5862,5863,5863,5863,5863,5864,5900,5901,5901,5902,5902,5902,5903,5903" d="m343,324c-3.95651,6.60001 -4.23535,7.19598 -4.47217,7.79999c-0.23376,0.59622 -0.61139,1.79697 -0.74734,2.40002c-0.13464,0.59723 -0.32721,2.39941 -0.32581,2.996c0.0014,0.59061 0.08188,1.742 0.14133,2.29599c0.11298,1.05307 0.28903,2.44348 0.31866,2.85599c0.0827,1.15085 0.08218,1.91 0.08533,3.15201c0.00116,0.46399 0.00537,1.45877 0.04266,1.97601c0.07571,1.05014 0.02826,1.62302 0.62399,3.02399c0.37894,0.89108 0.72684,1.26266 1.41669,1.9375c0.70071,0.68549 1.11813,0.96359 2.3165,1.86215c0.79312,0.59473 1.18188,0.88989 1.96417,1.42834c0.74356,0.51178 1.80261,1.15494 2.48331,1.45316c0.64227,0.2814 1.29596,0.51285 2.67352,0.69736c0.71481,0.09573 1.4165,0.1098 2.33914,0.12015c1.04929,0.01175 1.97336,0.00134 2.91684,0.00134c0.78568,0 1.63135,0 2.05917,0c1.58932,0 2.26056,0.02991 3.0835,0c1.02789,-0.03735 1.50598,-0.59531 2.18735,-1.54999c0.3158,-0.44244 0.66876,-0.93137 1.414,-2.03336c0.39261,-0.58054 0.7825,-1.17081 1.1445,-1.76999c0.68622,-1.13586 1.20682,-2.18451 1.40149,-2.67517c0.35651,-0.89856 0.60049,-1.75146 0.76651,-2.9715c0.1095,-0.80469 0.13452,-1.66388 0.14581,-2.125c0.02493,-1.01782 0.02075,-1.58701 0.02084,-2.875c0.00003,-0.72818 0.00024,-1.50543 -0.01801,-2.3205c-0.01886,-0.84232 -0.05313,-1.70129 -0.12601,-2.56351c-0.07254,-0.85828 -0.12561,-1.71375 -0.52264,-3.28265c-0.18597,-0.73489 -0.44748,-1.41751 -0.75751,-2.043c-0.59009,-1.19052 -0.97189,-1.70856 -1.33667,-2.21066c-1.04263,-1.43521 -1.41776,-1.85767 -1.7525,-2.29169c-0.64044,-0.83032 -1.2374,-1.60736 -1.52499,-1.96915c-0.78793,-0.99118 -1.50809,-1.82321 -2.00333,-2.31885c-0.51523,-0.51566 -1.44943,-1.34421 -2.21835,-1.96667c-0.4202,-0.34018 -0.86157,-0.70157 -1.88,-1.34665c-0.53571,-0.33929 -1.09894,-0.68314 -2.35999,-1.18668c-0.65427,-0.26126 -1.34378,-0.48624 -2.78665,-0.76001c-0.7301,-0.13852 -1.47241,-0.21487 -2.21252,-0.255c-0.73352,-0.03976 -2.16901,0.00031 -2.85733,0.07953c-0.67062,0.07718 -1.94226,0.3331 -2.53934,0.49799c-0.57767,0.15952 -1.65735,0.51392 -2.60416,0.9375c-0.85406,0.38211 -1.62561,0.80292 -2.23199,1.38c-0.6286,0.59824 -1.13516,1.43768 -1.58133,2.44666c-0.24377,0.55127 -0.45151,1.14969 -0.64502,1.7775c-0.40414,1.31113 -0.57001,1.99915 -0.875,3.39584c-0.15253,0.69843 -0.28485,1.39914 -0.405,2.10001c-0.11984,0.69916 -0.22,1.39999 -0.39999,2.79999l-0.07501,0.70001" id="svg_3" stroke-width="2" stroke="#000" fill="none"/>
  <path t="6270,6417,6418,6418,6418,6418,6418,6418,6418,6418,6463,6464,6467,6467,6467,6467,6467,6467,6467,6472,6472,6473,6473,6473,6473,6473,6473,6473,6485,6486,6486,6486,6486,6486,6486,6487,6487,6519,6519,6520,6520,6520,6520,6520,6520,6520,6560,6560,6560,6560,6561,6561,6561,6561,6561,6586,6586,6587,6587,6587,6587,6587,6587,6587,6614,6615" d="m322,388c9,-3.83334 9.89865,-4.1817 10.79868,-4.51468c0.89563,-0.33136 1.79013,-0.65076 2.68048,-0.96448c0.88437,-0.31161 1.76395,-0.61551 2.6355,-0.91953c1.71924,-0.5997 2.56473,-0.90259 3.41068,-1.20132c0.85306,-0.30127 1.72232,-0.6051 2.62051,-0.89999c0.92978,-0.30527 1.90353,-0.61206 2.93549,-0.89999c2.24484,-0.62634 3.48764,-0.90634 4.78934,-1.19733c1.34464,-0.3006 2.72046,-0.58572 4.10849,-0.86102c1.38132,-0.27399 2.74158,-0.53146 4.06351,-0.771c2.45596,-0.44504 3.56369,-0.62878 4.58932,-0.80133c0.95337,-0.16037 1.84424,-0.30667 2.68051,-0.44849c0.79172,-0.13425 1.5481,-0.26321 2.27551,-0.4035c1.41422,-0.27274 2.11267,-0.4346 2.80933,-0.60266c0.6947,-0.1676 1.38232,-0.34705 2.061,-0.53552c0.67065,-0.18625 1.32883,-0.37885 1.97098,-0.58047c1.2403,-0.3894 1.82755,-0.59808 2.39868,-0.79468c0.55319,-0.1904 1.0878,-0.37674 1.6095,-0.5415c0.50372,-0.15909 0.99261,-0.30762 1.47449,-0.40649c0.91541,-0.18784 1.36575,-0.20291 1.79733,-0.20132c0.41571,0.00153 0.8129,0.03583 1.18652,0.08698c0.35043,0.04797 0.67099,0.11469 0.96149,0.177l0.47601,0.11469l0.18066,0.04517" id="svg_4" stroke-width="2" stroke="#000" fill="none"/>
  <path t="7148,7302,7304,7304,7304,7304,7304,7304,7304,7304,7324,7324,7324,7325,7325,7325,7325,7326,7326,7380,7387,7387,7387,7388,7388,7388,7388,7388,7408,7408,7408,7409,7409,7409,7409,7409,7409,7437,7438,7438,7438,7438,7438,7439,7439,7439,7453,7455,7455,7456,7456,7456,7456,7456,7456,7468,7469,7469,7469,7469,7470,7470,7470,7470" d="m338,376c-0.5,-9.33334 -0.65533,-10.3447 -0.85468,-11.37067c-0.20316,-1.0455 -0.43903,-2.10214 -0.68698,-3.17099c-0.25067,-1.08054 -0.51761,-2.16666 -0.77701,-3.26102c-0.52054,-2.19595 -0.76404,-3.29678 -0.996,-4.39999c-0.23242,-1.10544 -0.45264,-2.21802 -0.66449,-3.33899c-0.2135,-1.12973 -0.41962,-2.27209 -0.61951,-3.42902c-0.40802,-2.36154 -0.60211,-3.57431 -0.80533,-4.81598c-0.20978,-1.28165 -0.42642,-2.61362 -0.65851,-4.005c-0.24384,-1.46194 -0.50436,-3.00418 -0.79349,-4.63501c-0.63385,-3.57516 -1.00681,-5.53336 -1.40134,-7.61066c-0.41672,-2.19403 -0.86188,-4.50125 -1.32602,-6.92102c-0.4852,-2.52954 -0.99158,-5.16653 -1.50598,-7.91098c-1.0863,-5.79565 -1.634,-8.84174 -2.19202,-11.95602c-0.56467,-3.1514 -1.1228,-6.31061 -1.677,-9.4455c-0.54446,-3.0798 -1.0708,-6.07437 -1.58698,-8.9505c-0.9476,-5.27994 -1.38837,-7.62619 -1.79333,-9.77731c-0.37079,-1.96954 -0.71548,-3.76981 -1.0155,-5.418c-0.27423,-1.50656 -0.52341,-2.88577 -0.7005,-4.15802c-0.31375,-2.25406 -0.37393,-3.27374 -0.40533,-4.224c-0.02933,-0.88733 -0.00668,-1.71733 0.02249,-2.493l0.04416,-0.72566l0.05417,-0.67967l0.05917,-0.63766" id="svg_5" stroke-width="2" stroke="#000" fill="none"/>
  <path t="7880,8001,8002,8002,8002,8002,8002,8002,8002,8002,8018,8018,8018,8019,8019,8019,8019,8019,8019,8055,8055,8056,8056,8056,8056,8056,8057,8057,8086,8087,8087,8087,8087,8087,8087,8087,8088,8092,8093,8093,8093,8093,8093,8095,8095,8095,8101,8102,8102,8102,8103,8103,8103,8103,8104,8136,8136,8137,8137,8137,8137,8137,8137,8138,8143,8143,8143,8144,8144,8144,8144,8145,8145" d="m358,370c-0.5,-8.16666 -0.65344,-9.02533 -0.85999,-9.89465c-0.2131,-0.89691 -0.47211,-1.81839 -0.76501,-2.772c-0.30673,-0.99857 -0.65417,-2.04004 -1.035,-3.13202c-0.82736,-2.37244 -1.30334,-3.65204 -1.79468,-4.99731c-0.51132,-1.40005 -1.04309,-2.84518 -1.58698,-4.32901c-0.55478,-1.51352 -1.11768,-3.04825 -1.677,-4.599c-1.1207,-3.10718 -1.66333,-4.65302 -2.19333,-6.18933c-0.52563,-1.52368 -1.03601,-3.03827 -1.52551,-4.54501c-0.48514,-1.49329 -0.95435,-2.97678 -1.3905,-4.45499c-0.85977,-2.91388 -1.23566,-4.36292 -1.60001,-5.79733c-0.35992,-1.41696 -0.69434,-2.82019 -1.00949,-4.20599c-0.31009,-1.36359 -0.60083,-2.70639 -0.87451,-4.026c-0.53003,-2.55554 -0.76865,-3.79361 -1.004,-5.01068c-0.23328,-1.2063 -0.46042,-2.41299 -0.68399,-3.63c-0.22714,-1.23633 -0.45456,-2.50299 -0.68399,-3.81c-0.48669,-2.77261 -0.74017,-4.25543 -0.996,-5.79465c-0.2626,-1.58011 -0.52069,-3.18823 -0.75751,-4.81201c-0.23651,-1.62161 -0.45871,-3.2291 -0.6225,-4.81201c-0.31226,-3.01755 -0.36874,-4.43622 -0.39999,-5.784c-0.02969,-1.28107 -0.01538,-2.4989 0.02249,-3.65399c0.03592,-1.09564 0.09708,-2.13275 0.1575,-3.11401c0.11102,-1.8028 0.16351,-2.62811 0.19199,-3.40799c0.02692,-0.73752 0.03067,-1.43732 0.02551,-2.103l-0.02017,-0.63568l-0.03616,-0.60965l-0.05316,-0.58768" id="svg_6" stroke-width="2" stroke="#000" fill="none"/>
  <path t="8509,8617,8617,8617,8618,8618,8618,8618,8618,8618,8652,8652,8653,8653,8653,8653,8653,8653,8653,8670,8671,8671,8671,8672,8672,8672,8672,8673,8685,8685,8686,8686,8686,8686,8687,8687,8687,8701,8702,8702,8703,8703,8703,8703,8703,8703,8736,8737,8737,8737,8737,8737,8738,8738,8738,8752,8753,8753,8753,8753,8754,8754,8754,8754,8768,8769,8769,8769,8769,8770,8770,8770,8770" d="m371,358c-5.66666,-13 -6.16315,-14.29727 -6.62933,-15.59601c-0.46243,-1.28833 -0.90091,-2.57123 -1.32901,-3.84149c-0.42252,-1.25375 -0.82916,-2.49216 -1.23898,-3.70651c-0.7959,-2.35828 -1.19995,-3.49393 -1.60535,-4.61066c-0.40329,-1.11093 -0.81836,-2.22278 -1.23898,-3.34949c-0.43002,-1.15198 -0.87643,-2.33832 -1.32901,-3.57452c-0.97076,-2.6517 -1.47427,-4.09177 -1.99866,-5.59732c-0.54266,-1.55807 -1.0921,-3.15863 -1.65152,-4.7865c-0.56458,-1.64279 -1.12769,-3.28879 -1.6965,-4.92151c-1.10959,-3.18491 -1.65936,-4.70883 -2.19464,-6.18799c-0.52045,-1.4382 -1.03253,-2.83667 -1.52551,-4.203c-0.48166,-1.33499 -0.95227,-2.64236 -1.3905,-3.93301c-0.85553,-2.51965 -1.2337,-3.76862 -1.60266,-5.00266c-0.36398,-1.21732 -0.70764,-2.42142 -1.04849,-3.60599c-0.33514,-1.16476 -0.65982,-2.31012 -1.00351,-3.42599c-0.6662,-2.1629 -1.03156,-3.19647 -1.40533,-4.20801c-0.37067,-1.00314 -0.76471,-1.99655 -1.1745,-2.991c-0.4155,-1.00827 -0.85483,-2.03131 -1.30951,-3.08102c-0.95816,-2.21204 -1.47202,-3.38309 -1.99332,-4.59598c-0.53271,-1.23944 -1.06741,-2.49591 -1.59302,-3.7605c-0.52237,-1.25677 -1.03128,-2.4967 -1.50299,-3.71552c-0.88959,-2.29861 -1.2601,-3.37384 -1.59732,-4.39333c-0.31976,-0.96669 -0.59735,-1.896 -0.858,-2.787l-0.24066,-0.86099l-0.22467,-0.83701l-0.21268,-0.819" id="svg_7" stroke-width="2" stroke="#000" fill="none"/>
  <path t="9117,9251,9251,9251,9251,9251,9251,9251,9251,9251,9268,9268,9268,9268,9268,9268,9268,9268,9269,9324,9324,9324,9324,9324,9325,9325,9325,9325,9330,9331,9331,9332,9332,9332,9333,9333,9333,9352,9352,9352,9352,9353,9353,9353,9353,9353,9359,9360,9360,9360,9360,9360,9361,9361,9361,9405,9406,9406,9406,9406,9407,9407,9407,9407" d="m348,375c-7.33334,-19 -7.92245,-20.6683 -8.45734,-22.28934c-0.51785,-1.56943 -0.99622,-3.10287 -1.43851,-4.60651c-0.43353,-1.47382 -0.83926,-2.93164 -1.2135,-4.3815c-0.74448,-2.88409 -1.07397,-4.34253 -1.40399,-5.80399c-0.32999,-1.46124 -0.64383,-2.92188 -0.94501,-4.37701c-0.2988,-1.44354 -0.58401,-2.87387 -0.85498,-4.28699c-0.52789,-2.75317 -0.76837,-4.09091 -1.00134,-5.40933c-0.23135,-1.3093 -0.45367,-2.62198 -0.66449,-3.94949c-0.21457,-1.35114 -0.42355,-2.73868 -0.61951,-4.1745c-0.41663,-3.05264 -0.60669,-4.69183 -0.79733,-6.39734c-0.19653,-1.75818 -0.38007,-3.55795 -0.5415,-5.38651c-0.16263,-1.84213 -0.30878,-3.68661 -0.40649,-5.52151c-0.19073,-3.58096 -0.20285,-5.3078 -0.20132,-6.98398c0.0015,-1.62823 0.03683,-3.20953 0.08698,-4.74451c0.04868,-1.49036 0.11584,-2.93628 0.177,-4.33951c0.11688,-2.68124 0.16348,-3.96191 0.19601,-5.20667c0.03171,-1.21255 0.05173,-2.39731 0.06448,-3.55798c0.01254,-1.14066 0.01758,-2.26535 0.0195,-3.37802c0.00378,-2.20532 0.00378,-3.30649 -0.00266,-4.41464c-0.00653,-1.12222 -0.02802,-2.26535 -0.0585,-3.43652l-0.0455,-1.20615l-0.06351,-1.24817l-0.0845,-1.29718" id="svg_8" stroke-width="2" stroke="#000" fill="none"/>
  <path t="9725,9868,9869,9869,9869,9869,9869,9869,9869,9869,9884,9886,9886,9886,9886,9886,9887,9887,9887,9913,9914,9914,9914,9917,9917,9917,9918,9918,9937,9938,9938,9938,9938,9938,9938,9938,9938,9952,9953,9953,9953,9953,9953,9953,9954,9954,9984,9984,9985,9985,9985,9985,9985,9985,9985,9991,9991,9991,9991,9992,9992,9992,9992,9992,10020,10021,10021,10022,10022,10022,10022,10023,10023,10036,10036,10036,10036,10037,10037,10037,10037,10037,10063,10064,10067,10068,10068,10068,10068,10069,10069,10079,10080,10080,10080,10081,10095,10096,10096,10096,10103,10104,10104,10104,10105,10105,10105,10105,10105,10118,10120,10120,10120,10121,10121,10121,10122,10122,10135,10136,10136,10137,10137,10138,10138,10138,10139,10151,10152,10152,10152,10152,10153,10153,10153,10154,10187,10188,10188,10188,10189,10192,10192,10193,10193" d="m362,356c-2.83334,-9 -3.08063,-9.9006 -3.32001,-10.80801c-0.24231,-0.91858 -0.48349,-1.85684 -0.74249,-2.81699c-0.26758,-0.99188 -0.55087,-2.02127 -0.8775,-3.08701c-0.70346,-2.29523 -1.13901,-3.51917 -1.60132,-4.79733c-0.4801,-1.32733 -0.99747,-2.68738 -1.54202,-4.07401c-0.55402,-1.41077 -1.1286,-2.83182 -1.72198,-4.254c-1.18262,-2.83438 -1.79163,-4.22058 -2.39334,-5.58932c-0.59402,-1.35126 -1.18896,-2.68076 -1.78049,-3.98999c-0.58316,-1.29077 -1.16315,-2.56024 -1.7355,-3.81c-1.11768,-2.44046 -1.66519,-3.62982 -2.19867,-4.80402c-0.52649,-1.15881 -1.0433,-2.30655 -1.54501,-3.44849c-0.49826,-1.13406 -0.9877,-2.26581 -1.45499,-3.4035c-0.93552,-2.27768 -1.37143,-3.43814 -1.80402,-4.61469c-0.44052,-1.19812 -0.8732,-2.43289 -1.3035,-3.711c-0.44592,-1.32452 -0.89487,-2.7088 -1.34848,-4.16098c-0.97672,-3.12674 -1.47595,-4.82242 -1.99869,-6.59067c-0.54001,-1.82672 -1.08463,-3.69943 -1.63199,-5.60251c-0.55136,-1.91693 -1.09714,-3.83429 -1.63199,-5.73749c-1.03946,-3.69867 -1.52719,-5.46985 -1.99469,-7.18402c-0.45239,-1.65881 -0.88391,-3.26697 -1.28998,-4.82849c-0.39383,-1.51453 -0.76846,-2.98695 -1.11002,-4.42349c-0.65625,-2.76019 -0.93604,-4.10007 -1.20532,-5.42134c-0.26804,-1.31508 -0.52042,-2.64076 -0.76801,-3.98849c-0.25381,-1.38159 -0.50565,-2.81227 -0.76801,-4.30351c-0.56601,-3.21721 -0.87396,-4.96326 -1.19867,-6.784c-0.33365,-1.87093 -0.67358,-3.76662 -1.01248,-5.66249c-0.33441,-1.87079 -0.66034,-3.69131 -0.9675,-5.4375c-0.55692,-3.16605 -0.79108,-4.54482 -0.99869,-5.79468c-0.18954,-1.14117 -0.35883,-2.19577 -0.513,-3.18449c-0.14709,-0.94327 -0.28561,-1.86296 -0.423,-2.7795c-0.28598,-1.90791 -0.43985,-2.93619 -0.60266,-4.01334c-0.16855,-1.11519 -0.34171,-2.25728 -0.51599,-3.4155c-0.17502,-1.16312 -0.34885,-2.32011 -0.51599,-3.46051c-0.32025,-2.18491 -0.46216,-3.21245 -0.60266,-4.20132c-0.13684,-0.96312 -0.27325,-1.91264 -0.423,-2.85901c-0.15155,-0.95766 -0.31589,-1.93779 -0.513,-2.94899c-0.42499,-2.18008 -0.70493,-3.35921 -0.99734,-4.59334c-0.30145,-1.27225 -0.62219,-2.56178 -0.948,-3.8535c-0.32224,-1.2776 -0.64328,-2.522 -0.948,-3.71851c-0.55435,-2.17673 -0.78952,-3.12889 -0.99734,-3.99333c-0.18936,-0.78758 -0.3577,-1.5119 -0.513,-2.18399c-0.14603,-0.63193 -0.28296,-1.23656 -0.423,-1.82401c-0.28061,-1.17712 -0.43918,-1.78534 -0.60132,-2.40933c-0.16483,-0.63434 -0.33374,-1.27289 -0.49649,-1.91251c-0.16125,-0.63371 -0.31857,-1.25664 -0.45151,-1.86749c-0.25031,-1.15031 -0.33282,-1.68796 -0.39868,-2.19734c-0.06253,-0.48373 -0.09866,-0.948 -0.129,-1.39349l-0.02032,-0.4305l-0.01233,-0.4185l-0.00635,-0.4095" id="svg_9" stroke-width="2" stroke="#000" fill="none"/>
 </g>
 <g display="none">
  <title>muse_image</title>
  <image xlink:href="http://farm4.static.flickr.com/3143/3048170166_cb84579a22.jpg" id="muse" height="480" width="360" y="0" x="140"/>
 </g>
 <g display="none">
  <title>bbox</title>
  <rect stroke="#f00" fill="none" stroke-width="3" height="461.76" width="193.92" y="16.32" x="256.16" id="bbox"/>
 </g>
</svg>
