<svg width="640" height="480" xmlns="http://www.w3.org/2000/svg" xmlns:svg="http://www.w3.org/2000/svg" xmlns:xlink="http://www.w3.org/1999/xlink">
 <!-- Sketchy ANNOTATION
  ImageNet ID: n02676566_6948
  URL: http://farm2.static.flickr.com/1431/534325554_ef0cc5f394.jpg
  Image Width: 385
  Image Height: 500
  BBox X: 50
  BBox Y: 33
  BBox Width: 203
  BBox Height: 449
  Exposure: 2000ms
  Synset Label: guitar
  Synset ID: n03467517
  Worker Tag: guitar
  Sanity Check: 
   Saved
  Comment: 
   {}
  Worker ID: AQ9ISCTDF9B48
  Assignment ID: 3V5Q80FXIXR8PNWZQ6PWAK389WM32F
  HIT ID: 3B286OTISEH6SKVYG45W7P8AD22AJZ
  Work Time: 140s
  Worker Score: 0.7857
 END ANNOTATION -->
 <g display="inline">
  <title>Layer 1</title>
  <path t="0,183,192,207,223,223,231,241,242,261,274,291,292,307,308,324,341,357,374,375,392,408,408,424,441,463,495,495,519,519,551,552,583,599,608,631,647,679,703,711,727,727,783,799,855,871,880,891,911,911,924,959,959,991,1023,1023,1031,1041,1057,1088,1088,1095,1107,1124,1141,1157,1175,1191,1192,1207,1224,1241,1242,1257,1280,1291,1307,1325,1359,1407,1487,1599,1623,1631,1663,2159,2159,2799,2847,2927,2983,3119,3271,3327,3359,3375,3391,3415,3431,3431,3455,3479,3503,3543,3935,3975,3975,3991,4039,4143,4447,4455,4463,4487,4487,4519,4519,4535,4535,4551,4567,4599,4615,4631,4647,4695,4695,4711,4735,4775,4807,4831,5031,5055,5063,5063,5095,5167,5215,5271,5303,5431,5479,5519,5519,5543,5591,5631,5839,5911,5951,5967,5991,6111,6199,6231,6359" d="m265,79c0,-2.58933 0,-3.5 0,-4.41067c0,-0.91067 0,-1.764 0,-2.704c0,-0.88533 -0.01141,-1.68541 0,-2.58533c0.01044,-0.82104 0.24905,-1.80229 0.61066,-2.47467c0.44571,-0.82873 1.03323,-1.52036 1.38934,-2.32533c0.35373,-0.79953 0.89108,-1.59839 1,-2.5c0.0965,-0.79873 0.54181,-1.4803 1.19867,-2.2c0.53348,-0.58451 0.78891,-1.50008 0.80133,-2.4c0.01273,-0.92098 0.17157,-1.74593 0.61066,-2.57467c0.44061,-0.8316 1.05042,-1.41696 1.30533,-2.308c0.22525,-0.7874 0.54364,-1.63831 1.13669,-2.16467c0.64819,-0.57532 1.41327,-1.02356 1.922,-1.742c0.46457,-0.65604 1.46988,-0.5152 2.22534,-0.89467c0.86719,-0.43558 1.59998,-0.71533 2.5,-0.716c0.89999,-0.00067 1.79999,0 2.69998,0c0.89999,0 1.80167,-0.05437 2.70001,0.00017c0.70386,0.04273 1.50266,0.60782 2.19998,1.29983c0.50192,0.49808 1.20001,1.2 1.90002,1.9c0.5,0.5 1.23392,1.17233 1.71597,1.99866c0.40686,0.69741 1.01627,1.23885 1.07953,2.15317c0.06119,0.88443 0.67499,1.45502 0.98364,2.169c0.34897,0.80722 -0.08618,1.78571 0.02219,2.67917c0.11157,0.91979 0.763,1.44609 1.388,2.2c0.54504,0.65744 0.61066,1.6 0.61066,2.4c0,0.9 -0.0054,1.80001 0,2.7c0.00534,0.88938 0.77481,1.4366 0.99551,2.2045c0.24738,0.86066 0.00449,1.7955 0.00449,2.6955c0,0.9 0,1.8 0,2.7c0,0.9 -0.41721,1.84383 0.05716,2.54283c0.4632,0.68254 1.64285,0.35717 2.54285,0.35717c0.89999,0 1.96231,0.50825 2.69098,-0.0045c0.44943,-0.31625 -0.26239,-1.29414 -0.29099,-2.1955c-0.02853,-0.89955 0,-1.8 0,-2.60001c0,-0.89999 -0.00534,-1.80001 0,-2.7c0.00534,-0.90005 0.24539,-1.96858 1,-2.33334c0.73547,-0.35551 1.42896,-0.53738 2.2215,-1.04517c0.74673,-0.47844 1.92749,-0.45872 2.61185,0.04517c0.65308,0.48085 1.04086,1.27719 1.19199,2.05467c0.1904,0.97961 0.55551,1.73055 0.80801,2.612c0.24161,0.84336 0.16666,1.76666 0.16666,2.66666c0,0.9 0,1.8 0,2.7c0,0.9 0,1.8 0,2.60001c0,0.89999 0,1.8 0,2.7c0,0.9 0,1.8 0,2.7c0,0.9 0.02707,1.80046 0,2.60001c-0.02859,0.84428 -0.80133,1.19933 -1.70001,1.2c-0.89999,0.00067 -1.81314,0.14297 -2.69998,-0.01067c-0.83218,-0.14417 -1.51498,-0.97673 -1.59866,-1.78934c-0.09219,-0.89526 -0.00134,-1.8 -0.00134,-2.7c0,-0.9 0.25357,-2.06703 -0.436,-2.464c-0.74573,-0.42928 -1.53867,-0.46133 -2.08484,-1.01517l-0.97916,-0.02084l-0.89999,0l-0.89999,0" id="svg_1" stroke-width="2" stroke="#000" fill="none"/>
  <path t="7583,8030,8070,8102,8174,8174,8214,8214,8598,8614,8638,8638,8662,8678,8710,8710,8822,8830,9006,9030,9111,9127,9159,9503,9551,9567,9599,9639,9639,9663,9711,9735,9775,9807,9919,9919,9991,10087,10103" d="m264,80c-1.60001,0.57467 -2.44318,0.88496 -3.29999,1.35267c-0.74533,0.40686 -1.46954,0.66534 -2.35269,1c-0.7056,0.26738 -1.957,0.40833 -2.31131,1.09399c-0.40189,0.77771 -0.03601,1.728 -0.03601,2.66801c0,0.98533 0,1.88533 0,2.68533c0,0.89999 -0.0054,1.80001 0,2.7c0.00534,0.88938 0.52066,1.48958 1.39999,1.5c0.89993,0.01067 1.81274,0.15066 2.69983,-0.00017c0.8511,-0.14471 0.85239,-1.1011 0.90018,-1.99983c0.04272,-0.80341 0.74695,-1.53718 0.96399,-2.4c0.21973,-0.8735 0.03601,-1.8 0.03601,-2.7c0,-0.9 0.08533,-1.7 0.61066,-2.464l0.78934,-0.39999l0.89999,-0.036" id="svg_2" stroke-width="2" stroke="#000" fill="none"/>
  <path t="10664,10943,10967,10983,11015,11088,11143,11175,11255,11311,11311,11343,11367,11455,11495,11511,11511,11535,11551,11559,11575,11599,11639,11639,11655,11655,11671,11695,11743,11799,11799,11983,11999,11999,12015,12151,12175,12239,12255,12271,12287,12319,12343,12359,12383,12407,12431,12439,12439,12519,12567,12607,12623,12679" d="m266,83c0,1.8 -0.35489,2.79264 0.03601,3.564c0.35379,0.6981 0.75424,1.27589 1.02115,2.13599c0.26874,0.86596 1.28989,1.13641 2.04285,1.52134c0.76318,0.39016 1.51779,0.77025 2.29999,1.20399c0.82016,0.45478 1.70001,0.57467 2.60001,0.57467c0.79999,0 1.70001,0 2.60001,0c0.89999,0 1.80411,-0.0817 2.7045,0.0045c0.87329,0.0836 1.66705,0.57803 2.52884,0.82883c0.84232,0.24515 1.76666,0.16666 2.66666,0.16666c0.8045,0 1.82132,0 2.5,0c0.97849,0 2,0 2.79999,0c0.90002,0 1.87198,0.32811 2.67917,-0.02084c0.71399,-0.30865 1.35999,-0.85997 2,-1.5c0.64005,-0.64004 1.19135,-1.28603 1.5,-2c0.34897,-0.80721 0.02084,-1.77917 0.02084,-2.67916c0,-0.9 0,-1.8 0,-2.60001c0,-0.89999 0,-1.8 0,-2.7l0,-0.9l0,-0.9" id="svg_3" stroke-width="2" stroke="#000" fill="none"/>
  <path t="14503,14647,14647,14663,14695,14735,14783,14951,15063,15063,15263,15279,15319,15335,15375,15383,15391,15408,15424" d="m257,82c-1,-1 -1,-1.8 -1,-2.7c0,-0.9 -0.00224,-1.8 0,-2.7c0.00226,-0.90001 0.08475,-1.86662 0.80133,-2.31467c0.79834,-0.49916 1.79871,-0.29073 2.69867,-0.28533c0.8894,0.00533 1.47916,0.52084 1.5,1.4l0,0.9l0.00134,0.89867l0.35132,0.74866" id="svg_4" stroke-width="2" stroke="#000" fill="none"/>
  <path t="16935,17079,17095,17111,17135,17143,17143,17167,17183,17191,17215,17223,17240,17263,17263,17279,17295,17307,17323,17340,17341,17357,17373,17374,17391,17391,17408,17408,17408,17424,17424,17424,17441,17441,17458,17458,17473,17474,17490,17491,17491,17507,17508,17523,17540,17541,17557,17558,17573,17574,17591,17591,17591,17608,17608,17608,17623,17624,17624,17640,17641,17657,17658,17674,17674,17690,17691,17707,17708,17723,17724,17740,17741,17757,17773,17774,17791,17791,17808,17808,17824,17824,17841,17841,17857,17858,17858,17873,17874,17890,17891,17891,17907,17908,17908,17923,17924,17940,17941,17957,17958,17958,17973,17974,17991,17991,17991,18007,18007,18007,18007,18024,18024,18024,18040,18041,18056,18057,18073,18074,18091,18106,18107,18123,18124,18124,18140,18141,18156,18157,18157,18174,18174,18174,18191,18191,18191,18207,18207,18207,18207,18224,18224,18224,18240,18241,18241,18241,18257,18257,18257,18274,18274,18274,18291,18291,18307,18307,18307,18324,18341,18341,18357,18357,18374,18374,18391,18391,18407,18407,18424,18424,18441,18441,18457,18473,18474,18491,18491,18507,18524,18524,18541,18541,18557,18574,18574,18591,18607,18607,18607,18624,18624,18641,18657,18674,18695,18814" d="m269,90c0.03601,-0.37867 0.61813,0.31033 0.91467,1.2c0.28589,0.85764 0.08533,1.8 0.08533,2.60001c0,0.89999 -0.16519,1.81919 0.02084,2.7c0.17899,0.84739 0.89548,1.48875 0.97916,2.41734c0.07111,0.7893 0,1.6 0,2.56183c0,0.92084 0,1.82084 0,2.72083c0,0.90017 0,1.68533 0,2.62534c0,1.008 0,1.8 0,2.66133c0,0.76 0,1.93467 0,2.73867c0,0.822 0,1.85316 0,2.53867c0,0.83466 0,1.836 0,2.636c0,1 0,1.8 0,2.8c0,0.8 0,1.8 0,2.60001c0,0.8 0,1.79549 0,2.71466c0,0.86 0,1.80684 0,2.696c0,0.98917 0,1.76851 0,2.76817c0,0.6825 0,1.79182 0,2.56284c0,0.56732 0,1.75816 0,2.64766c0,0.8535 0,1.88918 0,2.57468c0,0.83466 0,1.836 0,2.63599c0,1 0,1.8 0,2.8c0,0.8 0,1.8 0,2.58934c0,1.04399 0,1.836 0,2.696c0,0.91916 0,1.91333 0,2.67867c0,0.95067 0,1.836 0,2.59317c0,0.89999 0,1.84416 0,2.84283c0,0.79999 0,1.79999 0,2.59999c0,1 0,1.8 0,2.8c0,0.8 0,1.60001 0,2.60451c0,0.63148 0,1.81683 0,2.62082c0,0.82201 0,1.85318 0,2.53868c0,0.83466 0,1.836 0,2.63599c0,1.00134 0,1.836 0,2.76668c0,0.78149 0,1.57199 0,2.69066c0,0.79333 0,1.91467 0,2.70517c0,0.60367 0,1.60417 0,2.68567c0,0.731 0,1.442 0,2.70883c0,0.771 0,1.64034 0,2.64301c0,0.79999 0,1.79866 0,2.564c0,0.952 0,1.72 0,2.66133c0,1.008 0,1.836 0,2.7175c0,0.71851 0,1.509 0,2.77184c0,0.66451 0,1.68533 0,2.496c0,0.87466 0,1.87466 0,2.71016c0,0.58368 0,1.77934 0,2.68983c0,0.62534 0,1.95601 0,2.672c0,0.73201 0,1.45601 0,2.78401c0,0.82799 0,1.584 0,2.66666c0,0.63467 0,1.66667 0,2.36134c0,0.972 0,1.7955 0,2.75349c0,0.97318 0,1.77716 0,2.59917c0,1.03117 0,1.93184 0,2.95267c0,0.78934 0,1.51466 0,2.5c0,0.98534 0,1.71066 0,2.7c0,0.8 0,1.8 0,2.58934c0,1.04399 0,1.836 0,2.696c0,0.91916 0,1.91333 0,2.67867c0,0.952 0,1.72 0,2.66133c0,1.008 0,1.8 0,2.65866c0,0.86334 0,1.89067 0,2.83734c0,0.67867 0,1.65717 0,2.47733c0,0.95851 0,1.854 0,2.71735c0,0.86932 0,1.81732 0,2.73466c0,0.74399 0,1.77866 0,2.54666c0,0.90268 0,1.80267 0,2.70267l0,0.89999l-0.00449,0.89999" id="svg_5" stroke-width="2" stroke="#000" fill="none"/>
  <path t="19911,19958,19982,19998,20014,20030,20030,20054,20062,20062,20073,20091,20106,20123,20123,20140,20140,20141,20156,20156,20173,20174,20191,20191,20207,20207,20207,20224,20224,20241,20241,20257,20274,20274,20291,20291,20291,20306,20307,20323,20324,20324,20340,20341,20356,20357,20373,20374,20390,20391,20406,20407,20424,20424,20424,20440,20440,20457,20473,20490,20491,20506,20507,20523,20524,20524,20540,20556,20557,20573,20574,20591,20591,20607,20607,20624,20646,20646,20656,20657,20673,20690,20706,20723,20724,20740,20741,20756,20774,20774,20791,20806,20824,20840,20841,20856,20857,20873,20874,20890,20906,20923,20940,20941,20956,20957,20974,20991,20991,21007,21007,21024,21024,21024,21040,21041,21041,21056,21057,21057,21074,21074,21074,21091,21091,21106,21107,21107,21123,21124,21141,21141,21141,21157,21157,21174,21174,21190,21191,21207,21207,21223,21224,21241,21257,21274,21274,21290,21291,21307,21307,21323,21324,21341,21341,21357,21357,21357,21374,21374,21391,21407,21407,21407,21407,21424,21424,21441,21441,21457,21474,21474,21495,21506,21524,21524,21550,21582,21614,21694,21718,21742,22038,22102,22102,22142,22382,22382,22422,22462,22478,22502,22534,22550,22582,22598,22598,22622,22702,22758,22830,22974,23006,23038,23062,23062,23070,23142,23174,23198,23230,23270,23310,23326,23326,23366,23558,23582,23606,23622,23646,23662,23678,23694,23694,23710,23710,23718,23734,23758,23782,23790,23830,23862,23862,23902,23966,24014,24046,24190,24238,24278,24326,24998,25038,25038,25062,25078,25094,25126,25150,25174,25174,25190,25230,25262,25270,25294,25318,25350,25374,25374,25390,25414,25422,25446,25462,25479,25510,25534,25534,25558,25574,25598,25630,25646,25718" d="m294,97c-0.05716,1.7 -0.68619,2.42236 -0.94284,3.3c-0.25311,0.86555 -0.05716,1.80016 -0.05716,2.58533c0,0.94 0,1.94801 0,2.704c0,0.91067 0,1.81067 0,2.71516c0,0.86217 0,1.71634 0,2.6955c0,0.8 0,1.6 0,2.6c0,0.8 0,1.8 0,2.6c0,1 0,1.8 0,2.8c0,0.8 0,1.6 0,2.6c0,0.8 0,1.79867 0,2.564c0,1.08333 0,2.00266 0,2.672c0,1.164 0,1.964 0,2.76401c0,1.0045 0,1.63599 0,2.82117c0,0.79349 0,1.569 0,2.6095c0,0.7175 0,1.6265 0,2.57066c0,0.99867 0,1.79866 0,2.79866c0,0.8 0,1.8 0,2.60001c0,1 0,1.8 0,2.60001c0,0.9955 0,1.74283 0,2.76399c0,0.83734 0,1.80267 0,2.636c0,0.83333 0,1.66133 0,2.54266c0,0.95734 0,1.68933 0,2.79601c0,0.828 0,1.68216 0,2.66133c0,0.78934 0,1.83333 0,2.62534c0,0.85866 0,1.722 0,2.62199c0,0.91934 0,1.75267 0,2.73117c0,0.82016 0.18146,1.74742 -0.03601,2.62151c-0.21713,0.87268 -0.88541,1.71634 -0.94315,2.39999c-0.08237,0.97525 -0.02084,1.79866 -0.02084,2.75717c0,0.89549 0,1.75883 0,2.60683c0,0.936 0,1.83734 0,2.80267c0,0.83333 0,1.66666 0,2.586c0,0.89999 0,1.76334 0,2.61133c0,0.936 0,1.83734 0,2.80267c0,0.83333 0,1.66666 0,2.52882c0,0.94051 0,1.78984 0,2.709c0,0.99684 0,1.61633 0,2.76218c0,0.786 0,1.608 0,2.66666c0,0.714 0,1.61934 0,2.58817c0,0.8145 0,1.68301 0,2.57851c0,0.89101 0,1.728 0,2.85733c0,0.79333 0,1.6855 0,2.40401c0,0.7905 0,2.05333 0,2.71783c0,1.02083 0.0018,1.82083 0,2.62083c-0.00226,1 0.01196,1.81824 -0.284,2.79866c-0.23657,0.78375 -0.67206,1.71393 -0.71466,2.48534c-0.05249,0.95055 -0.00134,1.71733 -0.00134,2.7115c0,0.74733 0,1.76849 0,2.709c0,0.86217 0,1.71632 0,2.6955c0,0.78934 0,1.83333 0,2.62534c0,0.86 0,1.58533 0,2.57466c0,0.8 0,1.8 0,2.60001c0,0.8 0,1.7955 0,2.71466c0,0.88133 0,1.98534 0,2.84784c0,0.65833 0,1.33667 0,2.59433c0,0.7605 0,1.8765 0,2.63251c0,0.93149 0,1.73199 0,2.58533c0,0.94 0,1.92534 0,2.82533c0,0.8 0,1.7 0,2.60001c0,0.89999 0,1.79999 0,2.69998c0,0.90002 -0.19818,1.8606 0.16666,2.70001c0.29755,0.68457 1.29913,1.19739 1.66669,2c0.34012,0.74271 0.16666,1.70001 0.16666,2.60001c0,0.89999 0,1.79999 0,2.69998c0,0.90002 0,1.80002 0,2.70001c0,0.79999 0,1.70001 0,2.60001c0,0.89999 0,1.79999 0,2.69998c0,0.90002 0,1.80002 0,2.70001c0,0.79999 0,1.70001 0,2.60001c0,0.89999 0,1.79999 0,2.69998c0,0.90002 0,1.80002 0,2.70001c0,0.79999 0,1.70001 0,2.60001c0,0.89999 0.18448,2.04651 -0.52084,2.37915c-0.79538,0.37512 -1.77914,0.02084 -2.68048,0.02084c-0.96533,0 -1.79868,0 -2.63202,0c-0.86215,0 -1.76666,0 -2.66666,0c-0.89999,0 -1.79999,0 -2.70001,0c-0.89999,0 -1.79999,0 -2.59998,0c-0.90002,0 -1.80002,0 -2.70001,0c-0.89999,0 -1.84128,0.06171 -2.47467,-0.42532c-0.69312,-0.53299 -1.37158,-1.09647 -2.12534,-1.45334c-0.85406,-0.40436 -1.69778,-0.77692 -1.87915,-1.62134c-0.18906,-0.88016 -0.02084,-1.79999 -0.02084,-2.70001c0,-0.89999 0,-1.79999 0,-2.59998c0,-0.90002 0,-1.80002 0,-2.70001c0,-0.89999 0,-1.79999 0,-2.70001c0,-0.89999 0,-1.79999 0,-2.59998c0,-0.90002 0,-1.80002 0,-2.70001c0,-0.89999 0,-1.79999 0,-2.70001c0,-0.89999 0,-1.79999 0,-2.59998c0,-0.90002 0,-1.80002 0,-2.70001l0,-0.89999l0,-0.89999l0,-0.90002" id="svg_6" stroke-width="2" stroke="#000" fill="none"/>
  <path t="43774,44078,44118,44150,44190,44190,44222,44222,44254,44254,44270,44302,44342,44398,44398,44430,44430,44446,44478,44486,44518,44550,44558,44590,44606,44614,44630,44646,44646,44670,44678,44694,44710,44722,44740,44756,44772,44773,44790,44806,44823,44840,44840,44840,44855,44872,44873,44889,44905,44934,44934,44950,44958,44972,44990,45006,45023,45023,45039,45040,45062,45072,45091,45105,45122,45139,45140,45156,45156,45172,45190,45206,45238,45238,45254,45270,45279,45294,45294,45310,45327,45350,45350,45366,45366,45382,45406,45414,45430,45446,45462,45473,45489,45490,45506,45522,45539,45556,45573,45573,45590,45590,45606,45623,45639,45640,45655,45673,45673,45689,45706,45726,45726,45740,45756,45773,45790,45790,45806,45823,45839,45840,45856,45856,45873,45873,45890,45890,45906,45923,45942,45942,45958,45973,45973,45990,46006,46023,46023,46040,46040,46063,46063,46079,46079,46091,46110,46134,46134,46150,46190,46214,46238,46262,46262,46270,46294,46306,46326,46326,46350,46358,46374,46390,46406,46406,46423,46440,46456,46473,46490,46506,46506,46523,46540,46540,46556,46573,46590,46606,46606,46623,46640,46640,46640,46656,46656,46673,46690,46690,46706,46706,46706,46723,46723,46740,46740,46756,46773,46773,46790,46790,46806,46806,46823,46840,46856,46856,46894,46894,46910,46910,46926,46942,46958,46958,46973,46990,47006,47023,47023,47040,47056,47056,47073,47073,47091,47106,47106,47123,47140,47156,47173,47173,47190,47214,47238,47238,47262,47278,47278,47302,47326,47334,47350,47366,47374,47374,47390,47406,47430,47430,47440,47456,47456,47473,47490,47506,47523,47540,47556,47556,47573,47573,47590,47590,47606,47606,47623,47623,47640,47640,47656,47673,47673,47694,47694,47694,47710,47710,47723,47740,47756,47756,47773,47773,47790,47790,47806,47806,47806,47823,47840,47840,47862,47862,47873,47890,47890,47906,47923,47923,47923,47940,47940,47956,47956,47973,47973,47990,47990,47990,48006,48006,48006,48023,48040,48040,48040,48056,48056,48073,48073,48073,48092,48092,48106,48106,48106,48123,48123,48140,48140,48156,48156,48156,48173,48173,48190,48190,48206,48206,48206,48223,48223,48240,48240,48256,48273,48273,48290,48290,48306,48323,48340,48340,48358,48358,48382,48406,48422,48422,48790,48846,48902,48958,48982,48982,49006,49070,49094,49142,49142,49214,49214,49270,49294,49342,49398,49470,49470,49590,49638,49750,49766,49806,49838,49838,49854,49894,49934,49966,49982,50014,50046,50054,50054,50077,50102,50118,50126,50150,50166,50182,50190,50190,50214,50223,50240,50256,50273,50290,50306,50323,50323,50340,50356,50373,50390,50414,50445,50469,50470,50485,50486,50494,50510,50541,50542,50549,50557,50573,50590,50606,50623,50623,50640,50656,50673,50673,50690,50710,50725,50740,50740,50757,50758,50773,50774,50790,50806,50837,50838,50862,50862,50862,50869,50890,50890,50910,50910,50925,50941,50965,50997,50998,51029,51125" d="m272,256c-1.70001,0 -2.60001,0.00064 -3.52084,0c-0.96448,-0.00067 -1.70755,0.0416 -2.67899,-0.22133c-0.79892,-0.21622 -1.62424,-0.67322 -2.49567,-0.77417c-0.89941,-0.10419 -1.61404,-0.62543 -2.50583,-0.91917c-0.92044,-0.30318 -1.62402,-0.08533 -2.63202,-0.08533c-0.86215,0 -1.76669,0.0054 -2.66666,0c-0.88937,-0.00534 -1.37392,-0.72559 -2.11067,-0.98933c-0.83736,-0.29976 -1.78932,-0.01067 -2.68933,-0.01067c-0.89999,0 -1.8,0 -2.7,0c-0.8,0 -1.7,0 -2.60001,0c-0.89999,0 -1.79999,0 -2.7,0c-0.89999,0 -1.8,0 -2.7,0c-0.8,0 -1.7,0 -2.60001,0c-0.94167,0 -1.94266,0 -2.65067,0c-0.74399,0 -1.935,0 -2.74933,0c-0.8,0 -1.7,0 -2.636,0c-0.84799,0 -1.71133,0 -2.728,0c-0.836,0 -1.86775,-0.24371 -2.552,0.284c-0.63281,0.48804 -1.42223,0.90182 -2.084,1.23683c-0.85764,0.43416 -1.39653,1.1528 -2.3,1.42201c-0.86307,0.25717 -1.51151,0.54633 -2.136,1.03183c-0.74597,0.57993 -1.56375,1.02557 -2.064,1.52533c-0.69966,0.69901 -1.48592,0.91922 -2.21466,1.58401c-0.59605,0.54376 -0.80089,1.42114 -1.48534,2.116c-0.59544,0.60449 -1.29433,1.28836 -1.99867,1.71597c-0.7428,0.45099 -1.16075,1.23636 -1.51733,1.884c-0.47551,0.86368 -1.18831,1.29468 -1.67332,2.07202c-0.42339,0.67856 -0.38557,1.76828 -0.66335,2.41367c-0.38228,0.88818 -0.94666,1.51566 -0.94733,2.41434c-0.00067,0.89999 0.14209,1.81299 -0.01067,2.69998c-0.14348,0.83316 -0.88719,1.58813 -0.98483,2.30002c-0.12242,0.89255 -0.62263,1.61032 -0.91917,2.5c-0.28587,0.85764 -0.08533,1.79999 -0.08533,2.55716c0,0.89551 0,1.75882 0,2.72198c0,0.93152 0,1.84216 0,2.6955c0,0.94 0,1.82535 0,2.62534c0,0.90002 0,1.836 0,2.68402c0,0.86331 -0.00009,1.75882 0,2.716c0.00009,0.89999 0.2206,1.76666 0.57466,2.39999c0.48151,0.86127 0.35152,1.83447 0.64684,2.72131c0.23434,0.70377 0.83701,1.47363 1.25768,2.17868c0.46797,0.78433 0.38416,1.73538 0.80617,2.61465c0.30994,0.64575 1.22015,1.21997 1.63066,2.08536c0.3593,0.75745 0.78738,1.5011 1.384,2.09998c0.69868,0.70132 1.35735,1.16882 2.08932,1.67468c0.674,0.46579 0.92857,1.37573 1.49734,1.82532c0.87851,0.69443 1.54121,0.88065 2.228,1.68402c0.54456,0.63699 0.86397,1.6297 1.58533,2.15433c0.71004,0.51639 1.62408,0.69357 2.3,1.36166c0.58565,0.57889 0.86201,1.513 1.52083,2c0.68597,0.50708 1.41829,1.09387 1.47917,2c0.05363,0.79819 0.3707,1.42896 0.87849,2.2215c0.47844,0.74673 -0.02454,1.80621 0.17867,2.47852c0.26456,0.87527 0.91425,1.5986 0.94284,2.5c0.02853,0.89954 0,1.79999 0,2.59998c0,0.90002 0,1.80002 0,2.70001c0,0.89999 0.17194,1.87552 -0.28534,2.70001c-0.3838,0.69205 -1.13226,1.1828 -1.8145,1.89999c-0.55774,0.58633 -1.00198,1.37985 -1.5475,1.95267c-0.55118,0.57877 -1.19032,1.38956 -1.87,1.66199c-0.95538,0.38293 -1.81824,0.71161 -2.308,1.14667c-0.71216,0.6326 -1.3502,1.46954 -1.97333,1.85202c-0.7728,0.47437 -1.6696,0.87671 -2.22217,1.28665c-0.95134,0.70581 -1.78227,0.92291 -2.37917,1.04816c-1.00458,0.21082 -1.81276,0.4903 -2.71468,1.15186c-0.61798,0.45328 -1.10741,1.2587 -2.052,1.63333c-0.78998,0.31329 -1.69031,0.29352 -2.45866,0.77731c-0.71986,0.45325 -1.46614,0.76672 -2.13184,1.48917c-0.65802,0.71411 -1.35933,0.8049 -2.12816,0.9855c-0.98643,0.23172 -1.52875,0.60043 -2.51201,1.11469c-0.73813,0.38605 -1.24184,1.17969 -1.95982,1.74731c-0.71198,0.56287 -1.62871,0.47269 -2.3575,1.13669c-0.59639,0.5434 -0.80089,1.42114 -1.48534,2.116c-0.59544,0.60449 -1.18805,1.21216 -1.90018,1.89999c-0.52713,0.50916 -1.42625,1.0358 -2.0385,1.5c-0.81836,0.62048 -1.17238,1.44455 -1.57733,2.19998c-0.40524,0.75598 -0.81142,1.54575 -1.2,2.40002c-0.34712,0.76309 -0.73134,1.5 -1.084,2.29999c-0.35266,0.79999 -0.93336,1.59372 -0.99867,2.38535c-0.0773,0.93689 -0.0264,2.0531 -0.52216,2.573c-0.6322,0.66299 -1.46117,0.97711 -1.47917,1.84164c-0.01874,0.89984 0,1.80002 0,2.70001c0,0.79999 0,1.70001 0,2.63599c0,0.84802 0.15457,1.72479 -0.01067,2.72803c-0.14294,0.86786 -0.84116,1.4046 -0.98483,2.336c-0.13721,0.8895 -0.0045,1.79999 -0.0045,2.69998c0,0.90451 0,1.76666 0,2.62085c0,0.97916 0,1.76849 0,2.8125c0,0.79199 0,1.65198 0,2.57117c0,0.99417 0,1.75949 0,2.71149c0,0.76801 0,1.70935 0,2.71735c0,0.828 0,1.7095 0,2.42798c0,0.7905 -0.00008,1.81702 0,2.69702c0.00009,1.01999 0.28098,1.72122 1,2.375c0.48535,0.44131 0.81133,1.50565 1.02533,2.29199c0.23593,0.86691 0.57974,1.5881 1.07468,2.57449c0.29665,0.59119 0.71881,1.30209 1.28932,2.16418c0.54628,0.8255 0.74413,1.54767 1.31601,2.28867c0.41869,0.54248 1.02409,1.50735 1.46133,2.34732c0.33502,0.64362 0.72256,1.46567 1.27617,2.3215c0.36021,0.55685 0.95644,1.04834 1.67183,2.07718c0.39131,0.56274 0.85057,1.46313 1.38533,2.08047c0.65915,0.76093 1.23938,1.31491 1.60001,2.06369c0.33784,0.70148 0.57616,1.51859 1,2.53549c0.28416,0.68179 0.68294,1.44714 1.29999,2.29633c0.58409,0.8038 1.00612,1.45816 1.40001,2.22665c0.4077,0.79544 0.79715,1.62589 1.36667,2.39868c0.45599,0.61877 1.01352,1.1586 1.81183,1.97867c0.50418,0.51794 1.11499,1.34689 1.54233,2.04218c0.35892,0.58395 0.94681,1.39291 1.65384,2.14316c0.64406,0.68341 1.20001,1.21063 1.992,2.00266c0.48601,0.48602 1.008,1.008 1.81183,1.81183c0.61084,0.61084 1.22284,1.22284 1.77867,1.77869c0.72682,0.72684 1.24123,1.24445 1.75883,1.75882c0.85602,0.85068 1.33421,1.34027 2.30933,1.87335c0.66989,0.36621 1.69386,0.54892 2.496,0.83215c0.69943,0.24695 1.6156,0.93884 2.26801,1.3425c0.76872,0.47565 1.75383,0.31934 2.51083,0.65735c0.71498,0.31924 1.55151,0.73944 2.41583,0.77731c0.96249,0.04218 1.71512,0.47784 2.584,0.88c0.66202,0.30643 1.43718,0.86829 2.29999,1.08533c0.87352,0.21976 1.8573,-0.12769 2.70001,0.25735c0.6693,0.30579 1.5,0.76804 2.39999,0.77866c0.91066,0.01074 1.81853,0.22827 2.5,0.5c0.97459,0.38861 1.69507,0.55344 2.5,1c0.79958,0.4436 1.7,0.5 2.60001,0.5c0.89999,0 1.70018,-0.01801 2.59999,0c0.90054,0.01801 1.61032,0.61813 2.5,0.91467c0.85765,0.28589 1.8,0.08533 2.60001,0.08533c0.89999,0 1.8,0 2.7,0c0.89999,0 1.8,0 2.7,0c0.90001,0 1.8,0 2.60001,0c0.89999,0 1.8,0 2.7,0c0.89999,0 1.79999,0 2.70001,0c0.89999,0 1.79999,0 2.59998,0c0.90002,0 1.80002,0 2.70001,0c0.89999,0 1.79999,0 2.70001,0c0.89999,0 1.79999,0 2.59998,0c0.90002,0 1.80002,0 2.70001,0c0.89999,0 1.79999,0 2.70132,0c0.96533,0 1.62402,0 2.63202,0c0.86215,0 1.8342,0.0773 2.56665,-0.436c0.79004,-0.55365 1.2525,-1.35657 2.10001,-1.54315c0.86908,-0.19135 1.32837,-0.647 1.85718,-1.31635c0.58545,-0.74103 1.61694,-0.91211 2.24283,-1.27917c0.77151,-0.45248 1.83136,-0.68985 2.23334,-1.42532c0.40207,-0.73563 0.7558,-1.60834 1.56665,-1.97467c0.78168,-0.35315 1.74774,-0.60718 2.31467,-1.10934c0.76462,-0.67725 0.89331,-1.51865 1.58533,-2.21597c0.49808,-0.50192 1.20398,-1.17252 2,-1.65186c0.80423,-0.48431 1.13519,-1.14517 1.86667,-1.8815c0.59613,-0.60007 1.42905,-0.86655 2.07169,-1.46664c0.74902,-0.69946 0.86414,-1.58902 1.62299,-2.08936c0.61133,-0.40308 1.75244,-0.59201 2.164,-1.22131c0.487,-0.74466 1.07468,-1.48917 1.67468,-2.03217l0.79999,-0.35718l0.79999,-0.35718" id="svg_9" stroke-width="2" stroke="#000" fill="none"/>
  <path t="55837,55877,55885,55906,55923,55923,55923,55923,55939,55939,55939,55939,55939,55956,55956,55956,55956,55956,55956,55973,55973,55973,55973,55989,55989,55989,55989,55989,56006,56006,56006,56006,56006,56006,56023,56023,56023,56023,56023,56023,56023,56023,56023,56039,56039,56039,56039,56039,56039,56056,56056,56056,56056,56073,56073,56073,56073,56091,56091,56106,56106,56106,56106,56123,56123,56139,56139,56139,56156,56156,56156,56173,56173,56173,56189,56189,56189,56189,56206,56206,56206,56206,56223,56223,56223,56239,56239,56256,56256,56256,56273,56273,56289,56289,56306" d="m312,430c0.98932,2.58932 1.11899,3.51013 0.991,4.30899c-0.17001,1.06094 -0.70288,1.71429 -1.0535,2.25351c-0.39587,0.6088 -1.10138,1.60617 -1.62283,2.32285c-0.54773,0.75278 -0.83444,1.13629 -1.41916,1.91916c-0.89386,1.19672 -1.19601,1.59485 -1.79102,2.39099c-0.29416,0.39359 -0.87228,1.16574 -1.41916,1.91916c-0.76938,1.05997 -1.22784,1.73163 -1.68533,2.3645c-0.448,0.61975 -1.1557,1.53052 -1.68668,2.12085c-0.54886,0.6102 -1.15543,1.20486 -1.47498,1.5c-0.99106,0.91534 -1.72046,1.51251 -2.51703,2.11066c-0.42105,0.31616 -0.86429,0.64346 -1.86398,1.27466c-1.11139,0.70172 -1.74072,1.0397 -2.39468,1.39734c-0.67566,0.36951 -1.37314,0.73499 -2.0835,1.0965c-0.71231,0.36252 -1.42377,0.7149 -2.12848,1.05151c-1.34714,0.64346 -2.591,1.19962 -3.17017,1.4505c-0.55023,0.23834 -1.57523,0.6647 -2.05267,0.85266c-1.29111,0.50824 -2.05576,0.78479 -2.75583,1.03018c-0.96112,0.33691 -1.87,0.64221 -2.76752,0.93149c-0.58237,0.18771 -1.41458,0.4433 -2.42181,0.62183c-0.94028,0.16666 -2.02118,0.40256 -2.64935,0.65067c-0.67923,0.26825 -1.32312,0.63907 -2.53333,1.09866c-0.78915,0.29968 -1.66806,0.3002 -2.54166,0.35419c-0.647,0.03998 -1.64777,0.25046 -2.47919,0.5c-0.8851,0.26563 -1.77518,0.59158 -2.67917,0.8685c-0.59747,0.18301 -1.79828,0.4577 -2.40131,0.52664c-0.91739,0.10489 -1.88797,0.14087 -2.91986,0.30551c-0.73032,0.11652 -1.46277,0.28174 -2.16898,0.483c-1.27628,0.36374 -2.02591,0.71857 -2.70085,0.93832c-0.99394,0.32364 -1.82846,0.30109 -2.80899,0.57867c-0.82187,0.23267 -1.38812,0.60468 -2.40001,1.07401c-0.79117,0.36697 -1.59982,0.58301 -2.564,0.69382l-0.95067,0.01202" id="svg_11" stroke-width="20" stroke="#fff" fill="none"/>
  <path t="58549,58709,58709,58717,58733,58749,58757,58781,58781,58813,58829,58845,58853,58861,58877,58877,58893,58906,58923,58957,58957,58965,58981,58997,59006,59023,59039,59056,59073,59073,59091,59109,59125,59141,59157,59157,59173,59197,59197,59221,59229,59261,59285,59293,59293,59317,59333,59341,59356,59373,59389,59389,59406,59406,59423,59423,59445,59461,59477,59477,59489,59506,59506,59523,59523,59539,59556,59556,59573,59589,59589,59606,59623,59623,59653,59653,59669,59701,59701,59717,59717,59725,59741,59757,59757,59772,59772,59789,59806,59806,59822,59839,59839,59861,59861,59885,59885,59901,59901,59917,59925,59939,59957,59973,59989,59989,60006,60022,60045,60056,60077,60077,60101,60125,60157,60189,60189,60213,60229,60261,60261,60272,60289,60306,60322,60339,60339,60356,60372,60389,60406,60406,60429,60429,60439,60456,60472,60489,60506,60506,60522,60539,60539,60556,60587,60606,60622,60622,60639,60661,60661,60672,60689,60706,60706,60724,60725,60740,60756,60772,60789,60789,60806,60806,60822,60839,60839,60856,60872,60872,60889,60906,60906,60922,60939,60939,60956,60956,60972,60972,60989,60989,61006,61006,61022,61022,61039,61039,61056,61072,61072,61090,61090,61106,61122,61122,61139,61156,61172,61189,61189,61189,61206,61206,61222,61239,61239,61256,61272,61289,61289,61306,61322,61322,61339,61339,61356,61356,61372,61372,61389,61389,61406,61406,61422,61422,61422,61445,61445,61456,61456,61472,61489,61489,61506,61506,61506,61522,61522,61522,61539,61556,61556,61572,61572,61589,61606,61606,61629,61630,61653,61654,61661,61685,61701,61710,61722,61722,61739,61757,61782,61782,61805,61806,61822,61822,61839,61856,61872,61872,61909,61910,61926,61926,61939,61965,61966,61997,61998,62013,62037,62056,62072,62092,62092,62106,62122,62122,62139,62156,62172,62189,62189,62206,62206,62222,62222,62239,62256,62272,62272,62294,62310,62310,62333,62350,62350,62357,62389,62406,62422,62439,62456,62477,62477,62493,62493,62509,62522,62541,62556,62572,62589,62589,62606,62623,62639,62639,62656,62672,62689,62689,62706,62706,62722,62739,62739,62756,62756,62772,62772,62789,62789,62806,62806,62822,62822,62822,62839,62839,62856,62856,62872,62872,62889,62906,62906,62922,62922,62939,62939,62956,62956,62972,62972,62989,63006,63006,63022,63022,63045,63045,63046,63070,63070,63093,63106,63106,63133,63157,63182,63198,63198,63206,63222,63239,63256,63272,63293,63309,63309,63333,63357,63381,63397,63414,63454,63461,63461,63477,63489,63506,63597,63597,63621,63639,63656,63685,63709,63733,63733,63741,63757,63772,63789,63789,63806,63822,63839,63839,63839,63856,63872,63889,63906,63906,63922,63939,63965,63966,64013,64013,64029,64029,64053,64069,64101,64157,64229,64229,64253,64253,64293,64333,64357,64372,64389,64406,64407,64422,64445,64461,64486,64502,64502,64518,64533,64550,64550,64574,64614,64614,64631,64653,64685,64694,64718,64718,64750,64774,64790,64806,64862,64902" d="m243,466c1,1 1.8,1 2.7,1c0.90001,0 1.83478,-0.05295 2.60001,0.35266c0.84595,0.44839 1.4771,0.77081 2.3,1.22202c0.78012,0.42773 1.7,0.42526 2.59999,0.42532c0.90001,0.00009 1.75377,0.24213 2.5,0.64734c0.76112,0.4133 1.70815,0.23615 2.59999,0.35715c0.82135,0.11142 1.46863,0.84735 2.40002,0.99103c0.8895,0.13721 1.79999,0.00449 2.69998,0.00449c0.89999,0 1.80002,0 2.70001,0c0.89999,0 1.73175,-0.18671 2.60001,0.05716c0.76144,0.21387 1.49698,0.90012 2.39999,0.94284c0.89899,0.04251 1.69998,0 2.65717,0c0.89551,0 1.75882,0 2.72198,0c0.82083,0 1.72086,0 2.62085,0c0.89999,0 1.69998,0 2.60001,0c0.89999,0 1.79999,0 2.69998,0c0.90451,0 1.92133,0 2.60001,0c0.97867,0 1.75266,0 2.82535,0c0.69064,0 1.65381,0 2.58533,0c0.91064,0 1.76398,0 2.70398,0c0.88535,0 1.64252,0 2.71069,0c0.69064,0 1.67465,0 2.65866,0c0.69064,0 1.75882,0 2.61615,0c0.78519,0 1.72546,0.02289 2.73318,0c0.7926,-0.01801 1.64337,-0.30197 2.34131,-0.57468c0.93222,-0.36426 1.992,-0.42532 2.6507,-0.42532c1.008,0 1.87021,0.01022 2.77466,0c0.92102,-0.01044 1.7403,-0.1817 2.39999,-0.52084c1.01117,-0.51984 1.56973,-1.08438 2.39999,-1.45383c0.78479,-0.34918 1.47574,-0.7793 2.42535,-1c0.99948,-0.2323 1.64557,-0.58981 2.49597,-1.12515c0.65796,-0.41422 1.51758,-0.71191 2.30402,-0.92551c0.86545,-0.23505 1.69196,-0.73688 2.61749,-0.91751c0.84299,-0.16452 1.49588,-0.50235 2.11435,-1.00449c0.70459,-0.57205 1.63199,-0.94333 2.34283,-1.04819c0.93469,-0.13791 1.46954,-0.71988 2.29999,-1.00449c0.83087,-0.28473 1.1004,-1.24249 1.80133,-1.71466c0.71075,-0.47879 1.54904,-0.80267 2.39868,-1.20132c0.86044,-0.40372 1.44614,-0.8483 2.19998,-1.47336c0.65747,-0.54514 1.5701,-0.82523 2.20001,-1.18533c0.8642,-0.49405 1.79071,-0.71356 2.23334,-1.42532c0.50726,-0.8157 1.12698,-1.23029 1.86667,-1.64734c0.745,-0.42004 1.39285,-0.948 2.00449,-1.46249c0.64691,-0.54419 1.121,-1.44116 1.94366,-1.78033c0.745,-0.30716 1.45575,-0.78699 2.15317,-1.19385c0.82635,-0.48206 1.41541,-1.34216 2.19867,-1.74933c0.65088,-0.33835 1.53101,-0.65701 2.19867,-1.36667c0.54224,-0.57635 1.00113,-1.27203 1.63467,-1.96664c0.54648,-0.59915 1.29269,-1.0242 1.86667,-1.53784c0.73532,-0.65802 1.39288,-1.22012 1.86398,-1.89551c0.51169,-0.73358 0.32489,-1.74432 0.72,-2.60132c0.33875,-0.73468 0.60519,-1.6431 0.80002,-2.31467c0.29233,-1.0076 0.87326,-1.681 0.91599,-2.58401c0.04251,-0.89899 -0.03955,-1.65823 0.00449,-2.55267c0.04263,-0.86603 0.56702,-1.66501 0.87402,-2.66864c0.20068,-0.6561 0.0799,-1.65802 0.12149,-2.67868c0.02859,-0.70175 0.62921,-1.47168 0.87851,-2.32132c0.24228,-0.82568 0.12149,-1.79333 0.12149,-2.77884c0,-0.78519 -0.00171,-1.73584 0,-2.50116c0.00226,-0.99869 -0.00363,-1.81442 0.284,-2.79868c0.17886,-0.61209 0.60071,-1.5932 0.67999,-2.38934c0.10352,-1.03949 0.03601,-1.836 0.03601,-2.69467c0,-0.86331 0,-1.89066 0,-2.83731c0,-0.67868 0,-1.65717 0,-2.47736c0,-0.9585 0,-1.854 0,-2.71732c0,-0.96317 0.07568,-1.78729 -0.00134,-2.68533c-0.08368,-0.9758 -0.47769,-1.61636 -0.71466,-2.39999c-0.29517,-0.97607 -0.12674,-1.75531 -0.29468,-2.7627c-0.14484,-0.8688 -0.71255,-1.51935 -0.96399,-2.45065c-0.254,-0.9407 -0.9241,-1.508 -1.00449,-2.20618c-0.12515,-1.08685 -0.14734,-2.01108 -0.6315,-2.57916c-0.63931,-0.75018 -1.21063,-1.27188 -1.68933,-2.05267c-0.41898,-0.68338 -1.02884,-1.57303 -1.5,-2.23132c-0.53372,-0.74567 -0.84756,-1.50021 -1.40134,-2.23199c-0.51001,-0.67392 -1.29355,-1.35907 -1.79868,-1.90485c-0.52756,-0.57001 -1.11285,-1.37897 -1.58932,-2.14316c-0.50858,-0.81567 -0.96533,-1.57916 -1.43152,-2.336c-0.46738,-0.75876 -1.2254,-1.1012 -1.97916,-1.66666c-0.61713,-0.46298 -1.21286,-1.00504 -1.83334,-1.83334c-0.56668,-0.7565 -0.88971,-1.5119 -1.16666,-2.5c-0.22958,-0.81909 -0.46533,-1.53503 -1.09982,-2.47849c-0.42813,-0.63663 -0.7453,-1.48492 -1.18683,-2.22284c-0.37543,-0.62741 -1.22559,-1.25577 -1.85202,-1.97333c-0.55518,-0.63596 -0.52151,-1.60507 -0.89734,-2.38934c-0.35416,-0.73907 -0.57516,-1.49051 -1.24933,-2.26666c-0.59241,-0.68204 -1.51123,-0.82867 -1.70398,-1.76935c-0.18076,-0.8822 -0.39041,-1.68793 -0.81201,-2.28534c-0.52765,-0.74768 -0.83655,-1.50687 -1.49866,-2.35748c-0.45923,-0.58997 -1.24905,-1.22018 -1.64734,-2.05716c-0.4136,-0.86923 -0.78629,-1.43851 -1.35266,-2.35269c-0.42215,-0.68143 -0.88177,-1.47821 -1.40002,-2.04282c-0.66653,-0.7261 -1.1795,-1.51584 -1.384,-2.18985c-0.29034,-0.95697 -0.75119,-1.60577 -0.89514,-2.59381c-0.13278,-0.91144 -0.02084,-1.82083 -0.02084,-2.72086c0,-0.90015 0,-1.68533 0,-2.62534c0,-1.008 0,-1.76398 0,-2.67465c0,-0.89999 0,-1.8045 0,-2.66666c0,-0.83334 0,-1.81201 0,-2.586c0,-0.90002 -0.00558,-1.76337 0,-2.7265c0.00534,-0.9209 0.38913,-1.66614 0.716,-2.40619c0.39392,-0.89182 0.44342,-1.95178 0.784,-2.59381c0.43808,-0.82581 0.81522,-1.56317 1.216,-2.32083c0.44934,-0.8494 0.71848,-1.59445 1.19998,-2.39868c0.44522,-0.74362 0.92352,-1.31088 1.44119,-2.10132c0.52069,-0.79507 1.16925,-1.17459 1.84149,-1.90002c0.53787,-0.58044 0.42786,-1.60214 0.83734,-2.36398c0.39203,-0.72937 1.52783,-0.91187 1.91132,-1.73599c0.35678,-0.76669 0.72699,-1.5174 1.078,-2.30002c0.36798,-0.8205 1.07581,-1.49887 1.67468,-2.10001c0.59662,-0.59885 1.04749,-1.45309 1.46664,-2.29999c0.34406,-0.69516 0.86752,-1.36526 1.43335,-2.13867c0.5408,-0.7392 1.47125,-0.95047 2,-1.508c0.70886,-0.74744 0.9736,-1.54501 1.49982,-2.332c0.44244,-0.66171 0.68268,-1.54694 1.01001,-2.36865c0.33142,-0.83197 1.15179,-1.19968 1.86865,-1.97418c0.43671,-0.47183 0.811,-1.28452 1.3215,-2.27399c0.29474,-0.57126 0.99286,-1.46426 1.34283,-2.15717c0.42834,-0.84811 0.34503,-1.62054 0.7825,-2.62201c0.35663,-0.81641 0.44659,-1.66159 0.74133,-2.45868c0.31488,-0.85159 0.97534,-1.46606 1.3125,-2.16666c0.45837,-0.95245 0.51859,-1.75266 0.52084,-2.65268c0.00217,-0.86331 0,-1.84732 0,-2.83264c0,-0.72534 0,-1.71469 0,-2.51468c0,-1 0.0018,-1.79999 0,-2.60001c-0.00226,-0.99548 0.12433,-1.83002 -0.436,-2.76401c-0.43729,-0.72894 -0.99149,-1.31812 -1.564,-2.11514c-0.42972,-0.59824 -1.39999,-0.95685 -2,-1.52084c-0.60001,-0.564 -1.55508,-0.70096 -2.38934,-1.01068c-0.73358,-0.27234 -1.02884,-1.18918 -1.78,-1.70532c-0.60583,-0.41629 -1.664,-0.284 -2.52615,-0.284c-0.90451,0 -1.8045,0 -2.7045,0c-0.89999,0 -1.80002,0 -2.70001,0c-0.89999,0 -1.69998,0 -2.60001,0c-0.89999,0 -1.82083,0 -2.784,0c-0.69064,0 -1.75882,0 -2.616,0c-0.89999,0 -1.56967,0.39746 -2.18533,0.91599c-0.6655,0.56049 -1.35239,0.85858 -2.11465,1.47336c-0.74466,0.60059 -1.3613,0.97229 -1.8215,1.71048c-0.44711,0.71716 -1.47568,0.77802 -2.1785,1.34683c-0.72852,0.58963 -0.96704,1.39886 -1.39999,2.06934c-0.55881,0.86539 -1.58102,1.1821 -2.14734,1.84119c-0.5918,0.68875 -0.79968,1.50363 -1.45267,2.03217c-0.74506,0.60306 -1.62689,0.92523 -2.10001,1.6315c-0.53094,0.7926 -0.97961,1.47867 -1.60001,2.07898c-0.58154,0.56271 -1.34903,1.02945 -1.98401,1.61618c-0.69165,0.6391 -1.21579,1.15775 -2.08264,1.45065c-0.67041,0.22653 -1.65524,0.73978 -2.42267,0.82266c-0.90546,0.09781 -1.81067,0.01068 -2.71066,0.01068c-0.90002,0 -1.80002,0 -2.70001,0c-0.79999,0 -1.70007,0.01041 -2.60001,0c-0.90018,-0.01044 -1.70374,-0.35312 -2.39999,-1c-0.60327,-0.56049 -1.35947,-1.01282 -2.02084,-1.5c-0.66141,-0.48718 -1.56821,-0.44589 -2.34317,-0.936c-0.83765,-0.52979 -1.45401,-1.0094 -2.19998,-1.58932c-0.62448,-0.4855 -1.04828,-1.33139 -1.72134,-1.89066c-0.66916,-0.55603 -1.53885,-0.52454 -2.27866,-1.10934c-0.67822,-0.53613 -1.23734,-0.97333 -2.15067,-1.06l-0.50684,-0.79318l-0.87833,-0.12164" id="svg_12" stroke-width="2" stroke="#000" fill="none"/>
  <path t="67646,67798,67798,67829,67838,67861,67885,67902,67917,67918,67934,67949,67997,68013,68037,68061,68062,68087,68173,68189,68301,68310,68333,68357,68357,68381,68397,68413,68437,68454,68454,68485,68509,68549,68558,68573,68589,68613,68622,68639,68655,68672,68689,68705,68722,68739,68739,68755,68772,68789,68789,68805,68822,68822,68839,68855,68855,68872,68889,68905,68905,68922,68922,68939,68955,68955,68972,68989,68989,69005,69005,69022,69039,69039,69039,69055,69072,69072,69091,69091,69105,69105,69122,69122,69122,69139,69139,69155,69155,69197,69197,69213,69229,69245,69245,69277,69317,69326,69341,69357,69381,69397,69413,69429,69439,69455,69472,69493,69505,69505,69522,69541,69557,69581,69581,69590,69613,69623,69639,69639,69661,69661,69685,69685,69709,69717,69717,69733,69757,69765,69781,69805,69829,69837,69853,69853,69869,69877,69901,69933,69949,69973,69989,70013,70045,70045,70061,70085,70117,70117,70133,70149,70149,70173,70181,70197,70229,70277,70309,70309,70333,70373,70397,70429,70429,70445,70485,70501,70517,70541,70565,70613,70613,70677,70717,70757,70845" d="m280,321c-1,-1.16666 -1.56042,-1.65363 -2.29999,-2.2955c-0.66669,-0.57864 -1.25443,-1.12213 -1.92151,-1.58301c-0.72968,-0.50412 -1.73227,-0.36362 -2.47852,-0.76883c-0.76111,-0.41327 -1.69998,-0.35266 -2.59998,-0.35266c-0.90002,0 -1.80002,0 -2.70001,0c-0.79999,0 -1.70001,0 -2.60001,0c-0.89999,0 -1.91696,-0.11148 -2.39999,0.52084c-0.52029,0.68112 -0.92844,1.56662 -1.60001,2.04315c-0.72568,0.51489 -1.34018,0.98679 -1.75266,1.73599c-0.46173,0.83865 -0.47379,1.73825 -0.73267,2.5c-0.30176,0.88794 -0.896,1.59949 -0.91467,2.5c-0.01865,0.8985 -0.6102,1.4379 -0.96399,2.13602c-0.3909,0.77133 0.10132,1.84512 -0.38867,2.51132c-0.50323,0.68423 -0.64734,1.45267 -0.64734,2.35266c0,0.90002 0,1.80002 0,2.70001c0,0.79999 0,1.70001 0,2.52084c0,0.96317 0,1.82648 0,2.72198c0,0.9585 0,1.64252 0,2.58252c0,1.008 0.04483,1.87704 0.5,2.67465c0.40384,0.70761 0.43835,1.6705 0.52084,2.5c0.08371,0.84186 0.63297,1.5553 0.95383,2.41068c0.33136,0.88336 0.54715,1.58115 0.90399,2.56766c0.30692,0.84842 0.98196,1.14386 1.52133,1.883c0.45291,0.62067 0.96408,1.56259 1.76666,2.13867c0.62604,0.44937 1.39355,0.74194 2.19736,1.39999c0.67654,0.55386 1.23553,1.26965 2.12131,1.51599c0.70673,0.19653 1.72876,0.27029 2.51468,0.60486c1.02026,0.43433 1.61441,0.74564 2.34283,1.17917c0.9306,0.55383 1.52682,1.07446 2.49316,1.27466c0.75702,0.15683 1.75122,0.3999 2.50684,0.67267c0.89099,0.32162 1.75717,0.35266 2.65717,0.35266c0.79999,0 1.70001,0 2.60001,0c0.89999,0 1.79999,0 2.69998,0c0.90002,0 1.80441,0.08868 2.70001,0c0.8457,-0.08374 1.33127,-0.85745 1.97467,-1.42532c0.59442,-0.52463 1.3494,-0.90659 2.02533,-1.57468c0.58566,-0.57889 0.98132,-1.39948 1,-2.29999c0.01868,-0.89984 0.2897,-1.75693 0.64734,-2.40002c0.4744,-0.85312 0.9418,-1.61789 1.23117,-2.39999c0.31512,-0.85175 0.12149,-1.65717 0.12149,-2.55716c0,-0.94415 -0.08713,-1.9505 0.05716,-2.68567c0.18243,-0.92953 0.85782,-1.64456 0.9415,-2.45715c0.09222,-0.89529 0.00134,-1.80002 0.00134,-2.70001c0,-0.89999 0,-1.79999 0,-2.70001c0,-0.89999 0,-1.79999 0,-2.59998c0,-0.90002 0,-1.80002 0,-2.70001c0,-0.89999 0.00009,-1.79999 0,-2.70001c-0.00009,-0.89981 -0.34421,-1.59045 -1.10001,-2.02148c-0.6691,-0.38156 -1.40549,-1.11313 -1.81598,-1.97852c-0.35928,-0.75745 -0.74701,-1.35236 -1.37952,-2.09998c-0.63943,-0.7558 -0.82135,-1.48077 -1.27917,-2.30002c-0.43167,-0.77246 -1.05331,-1.38791 -1.45065,-2.01065c-0.47861,-0.75009 -1.07581,-1.48822 -1.67468,-2.08936c-0.59662,-0.59885 -0.90704,-1.58994 -1.52148,-2.17865c-0.68088,-0.65237 -1.43262,-0.93118 -2.37851,-1.11066c-0.88428,-0.16779 -1.79999,-0.01068 -2.69998,-0.01068c-0.90002,0 -1.80002,0 -2.70001,0c-0.79999,0 -1.70001,0 -2.60001,0l-0.89999,0l-0.89999,0" id="svg_13" stroke-width="2" stroke="#000" fill="none"/>
  <path t="72965,73053,73053,73061,73061,73061,73061,73072,73072,73072,73072,73072,73089,73089,73089,73089,73089,73089,73089,73105,73105,73105,73105,73105,73105,73105,73105,73105,73122,73122,73122,73122,73122,73122,73122,73122,73122,73139,73139,73139,73139,73155,73155,73172,73172,73189,73189,73213,73213,73237,73253,73269,73277,73293,73309,73333,73357,73381,73629,73629,73637,73653,73661,73672,73693,73693,73705,73853,73885,73981,74005,74237,74253,74269,74285,74294,74294,74305,74322,74339,74339,74355,74355,74372,74372,74372,74389,74389,74405,74405,74405,74405,74405,74422,74422,74422,74439,74439,74456,74456,74472,74472,74472,74489,74489,74489,74505,74505,74522,74522,74522,74522,74539,74539,74539,74555,74555,74555,74572,74572,74572,74572,74590,74590,74605,74605,74622,74622,74639,74655,74655,74765,74893,74893,74909,74989,74989,75565,75797,75797,75805,75822,75822,75839,75839,75861,75861,75872,76309,76325,76365,76397,76405,76437,76437,76501,76509,76526,76581,76581,76621,76629,76685,76685,76716,76732" d="m249,405c2.01433,0 2.82133,0 4,0c0.60266,0 1.54167,0 2.21434,0c1.119,0 1.95631,0 2.85765,0c0.94934,0 1.43701,0 2.92801,0c0.50082,0 1.52249,0 2.05334,0c1.12665,0 1.73248,0 2.37332,0c1.40668,0 2.18033,0 2.996,0c0.84967,0 1.72534,0 2.61899,0c0.90369,0 1.80936,0 2.70901,0c1.74933,0 2.58432,0 3.38934,0c0.77499,0 1.51999,0 2.23499,0c0.685,0 1.34,0 1.965,0c1.69501,0 2.67502,0 3.535,0c0.73999,0 1.86066,0 2.58334,0c1.02698,0 1.75232,0 2.74149,0c0.77933,0 1.77866,0 2.59885,0c0.90134,0 1.80136,0.0054 2.70132,0c0.8894,-0.00534 1.37393,-0.72559 2.11066,-0.98932c0.83737,-0.29977 1.78934,-0.01074 2.69385,-0.01068c1.01666,0.00009 1.98218,-0.40186 2.58118,0.35718c0.58835,0.74554 0.11432,1.84283 0.11432,2.74283c0,0.89999 0,1.69998 0,2.60001c0,0.89999 0,1.79999 0,2.69998c0,0.89999 0.33105,2.05276 -0.28534,2.51468c-0.73514,0.5509 -1.81467,0.08533 -2.71466,0.08533c-0.79999,0 -1.70001,0 -2.63599,0c-0.84933,0 -1.57468,0 -2.56403,0c-0.79999,0 -1.80106,0.03186 -2.59998,-0.01068c-0.80237,-0.04272 -1.80368,-0.37546 -2.50803,-0.564c-1.17825,-0.3154 -1.94336,-0.35233 -2.76797,-0.38931c-0.84753,-0.03802 -1.672,-0.03534 -2.75952,-0.03601c-0.85648,-0.00052 -1.55099,0 -2.56448,0c-0.80002,0 -1.80002,0 -2.60001,0c-1,0 -1.81067,0 -2.68533,0c-0.99866,0 -1.81467,0.00055 -2.63068,0c-1,-0.00067 -1.9169,0.01022 -2.85065,-0.16666c-0.79892,-0.15134 -1.64481,-0.44159 -2.23468,-0.63467c-1.19894,-0.39246 -1.78021,-0.61588 -2.64151,-0.84149c-1.02777,-0.26923 -1.97781,-0.34543 -2.7265,-0.35583c-0.87323,-0.01212 -1.8819,0.00052 -2.57999,-0.03735c-0.68344,-0.03705 -1.88116,-0.2442 -2.82935,-0.53867c-0.82236,-0.2554 -1.61136,-0.37277 -2.65465,-0.42532c-0.86296,-0.04349 -1.51759,-0.57355 -2.48801,-0.87851c-0.65453,-0.20569 -1.65717,-0.12149 -2.67867,-0.12149c-0.8,0 -1.39456,-0.30353 -2.16667,-0.83334c-0.60912,-0.41797 -1.66116,-0.09561 -2.66666,-0.16666c-0.81107,-0.05731 -1.14867,-0.86084 -1.16667,-1.83334c-0.01466,-0.79187 0,-1.65198 0,-2.57117c0,-0.99417 -0.15929,-1.77316 0.00133,-2.70883c0.14397,-0.83868 0.77107,-1.69583 1.5195,-1.845c0.82277,-0.16397 1.57758,0.84943 2.47917,0.95834c0.79874,0.0965 1.4216,0.70322 2.39999,0.96399c0.87053,0.23203 1.72404,0.2291 2.3,0.74051c0.73227,0.65024 1.5,1.21149 2.3,1.46216l0.7,0.48068l0.8,0.33182l0.89999,0.03152" id="svg_14" stroke-width="2" stroke="#000" fill="none"/>
  <path t="78501,78532,78540,78556,78556,78572,78588,78605,78605,78622,78622,78622,78638,78638,78638,78655,78655,78655,78655,78672,78672,78688,78688,78688,78705,78705,78705,78705,78722,78722,78722,78738,78738,78738,78738,78755,78755,78755,78772,78772,78772,78772,78788,78788,78788,78788,78805,78805,78805,78822,78822,78822,78822,78838,78838,78838,78838,78855,78855,78855,78872,78872,78872,78888,78888,78905,78922,78922,78922,78938,78938,78938,78955,78955,78955,78972,78972,78988,78988,78988,79005,79005,79023,79023,79023,79038,79038,79038,79055,79055,79055,79072,79072,79072,79072,79089,79089,79089,79106,79106,79122,79122,79122,79138,79138,79155,79155,79172,79188,79188,79205" d="m267,316c0,1.79999 -0.01184,2.65146 0.284,3.48401c0.25092,0.70605 0.68741,1.75739 0.716,2.616c0.02997,0.89951 0.03796,1.71909 0.284,2.67065c0.20044,0.77518 0.41449,1.32956 0.59467,2.52933c0.13443,0.89508 0.09427,1.50732 0.28799,2.70001c0.14664,0.9028 0.35718,1.47336 0.54935,2.31467c0.22702,0.99396 0.27866,1.87463 0.284,2.88568c0.00446,0.84131 0,1.57031 0,2.76898c0,0.69202 0,1.41602 0,2.14801c0,1.39734 0,2.04666 0,2.97815c0,0.90451 0,1.8045 0,2.7045c0,0.60001 0,1.80133 0,2.72086c0,0.63632 0,1.64581 0,2.73181c0,0.74734 0,1.49469 0,2.58069c0,1.00949 0,1.64581 0,2.56534c0,0.90149 0,1.81198 0,2.43732c0,1.33066 0,2.048 0,2.78934c0,0.74933 0,2.20801 0,2.88934c0,0.64932 0,1.58081 0,2.78516c0,0.59567 0,1.46417 0,2.53351c0,0.93066 0,1.76532 0,2.76215c0,0.74734 0.08148,1.67123 -0.16666,2.57117c-0.19339,0.70139 -0.60925,1.50995 -0.74802,2.51868c-0.1142,0.83017 -0.07935,1.71603 -0.08548,2.61432c-0.00598,0.87906 0.05942,1.7182 -0.28384,2.73236c-0.27393,0.80933 -0.65366,1.73572 -0.69516,2.48883c-0.04382,0.7955 0.02313,1.79803 -0.05685,2.7045c-0.08353,0.94666 -0.3266,1.7247 -0.53867,2.54932c-0.27145,1.05548 -0.38837,1.77161 -0.41464,2.45068c-0.04626,1.19531 -0.01068,2.01065 -0.01068,2.58533c0,1.18933 0,2.08932 0,2.68933c0,0.89999 0,2.09866 0,2.97916c0,0.56369 0,1.83551 0,2.5c0,1.02084 0,1.82083 0,2.62085c0,1 0,1.79999 0,2.79868c0,0.94415 0,1.84415 0,2.80264l0,0.68402l0,0.94" id="svg_15" stroke-width="2" stroke="#000" fill="none"/>
  <path t="79981,80069,80077,80077,80090,80105,80105,80105,80122,80122,80122,80138,80138,80138,80155,80155,80155,80172,80172,80172,80188,80188,80188,80188,80205,80205,80205,80222,80222,80222,80222,80238,80238,80238,80255,80255,80272,80272,80272,80288,80288,80305,80305,80305,80322,80322,80338,80338,80338,80355,80355,80372,80372,80372,80388,80388,80405,80405,80422,80438,80438,80438,80455,80455,80455,80472,80472,80472,80472,80488,80488,80505,80505,80522,80522,80522,80538,80538,80555,80555,80572,80572,80588,80588,80588,80605,80605,80605,80622,80622,80622,80638,80638,80638,80655,80672,80672,80688,80705,80705,80725,80757,80765,80781,80805,80805,80813,80837,80853,80861" d="m278,316c-0.99866,0.88666 -1,1.82535 -1,2.51599c0,1.00485 0,2.02701 0,2.75601c0,0.83701 0,2.02783 0,2.6235c0,0.8685 0,1.93784 0,2.87915c0,0.67801 0,1.64685 0,2.46133c0,0.8685 0,2.064 0,2.664c0,0.89999 0,2.10001 0,2.70001c0,0.89999 0,1.79999 0,2.69998c0,0.90002 0,1.80002 0,2.70001c0,0.89999 0,1.79999 0,2.39999c0,1.19867 0,2.07916 0,2.91467c0,1 0,1.66449 0,2.68533c0,0.79999 0,1.60001 0,2.60449c0,0.85266 0,1.81683 0,2.62085c0,0.82199 0,1.85315 0,2.75381c0,1.02084 0,1.82083 0,2.62085c0,1.00449 0,1.85715 0,2.82132c0,0.80402 0,1.62601 0,2.65701c0,0.88 0,1.755 0,2.61716c0,0.84616 0,1.8475 0,2.57651c0,0.83701 0,2.02798 0,2.62799c0,0.89999 0,2.10001 0,2.69867c0,0.88049 0,1.716 0,2.716c0,0.87466 0,1.88535 0,2.68533c0,1 0,1.79999 0,2.60001c0,1 0,1.79999 0,2.79999c0,0.80002 -0.04736,1.80267 0.02084,2.60001c0.08612,1.0069 0.43558,1.80081 0.6265,2.45715c0.27692,0.95206 0.33047,1.76776 0.34818,2.59018c0.02219,1.03113 -0.01892,1.9682 0.17514,2.63666c0.29965,1.03223 0.84167,1.78827 1.12402,2.30618c0.55939,1.02606 0.70532,2.00983 0.70532,2.80981c0,0.836 0,1.85269 0,2.54733c0,1.01669 0,1.95267 0,2.85269c0,0.89999 0,1.79999 0,2.59998c0,0.90002 0,1.80002 0,2.70001l0,0.89999" id="svg_16" stroke-width="2" stroke="#000" fill="none"/>
  <path t="81901,82013,82021,82029,82038,82038,82055,82055,82072,82072,82072,82089,82089,82089,82105,82105,82122,82122,82122,82138,82138,82155,82155,82155,82172,82172,82188,82205,82205,82222,82222,82222,82222,82238,82238,82238,82255,82255,82272,82272,82272,82288,82288,82305,82305,82305,82322,82322,82338,82338,82356,82356,82356,82372,82372,82372,82388,82388,82405,82405,82422,82422,82422,82422,82438,82438,82455,82455,82472,82472,82488,82488,82505,82505,82522,82538,82538,82555,82555,82572,82572,82588,82605,82622,82622,82638,82638,82655,82672,82688,82705,82725,82725,82738,82757,82781,82813,82813,82837,82853,82885,82917,82917,82989,82989" d="m283,321c0,1.79999 0,2.70001 0,3.52084c0,0.96448 -0.01273,1.68991 0.00015,2.67917c0.01041,0.8002 0.15762,1.80289 0.42517,2.61066c0.2149,0.6489 0.45859,1.60989 0.54935,2.40399c0.11606,1.01526 0.43378,1.95612 0.67267,2.59067c0.35248,0.93625 0.34113,1.71533 0.35132,2.51199c0.01572,1.22992 -0.0065,1.90805 0.0015,3.10385c0.00531,0.79355 -0.06445,1.6011 0.22119,2.43582c0.30322,0.88608 0.74689,1.66415 0.78,2.62967c0.02606,0.76035 0.1561,1.68222 0.35132,2.47049c0.21204,0.85605 0.41821,1.43637 0.56201,2.64151c0.10461,0.87662 0.06552,1.71622 0.08667,2.716c0.01852,0.87515 0.19485,1.89499 0.43466,2.48532c0.33099,0.81482 0.81802,1.57925 1.12799,2.436c0.32962,0.91107 0.39828,1.71127 0.42532,2.50269c0.03818,1.11789 0.01068,2.00949 0.01068,2.92297c0,0.80002 0,1.75967 0,2.56369c0,0.82199 0,1.85315 0,2.75381c0,0.61951 -0.0585,1.6275 0.05716,2.42084c0.14835,1.01758 0.57889,1.86304 0.94284,2.93335c0.21368,0.62842 0.40506,1.3028 0.64282,2.30417c0.20407,0.85938 0.34674,1.82065 0.35718,2.68381c0.01031,0.85327 -0.0043,1.79468 0,2.56268c0.00534,0.95203 0.02966,1.73398 0.35266,2.71149c0.25204,0.76279 0.61874,1.65051 0.64734,2.57117c0.02588,0.83295 -0.00192,1.81201 0,2.586c0.00226,0.90002 0.02374,1.79071 0.42532,2.61136c0.4263,0.87112 0.51303,1.80649 0.59552,2.63599c0.08371,0.84186 0.72601,1.52728 0.94315,2.39999c0.21747,0.87405 0.03601,1.80002 0.03601,2.70001c0,0.89999 -0.39297,1.83035 0.08533,2.61465c0.49008,0.80365 0.91467,1.38535 0.91467,2.28534c0,0.79999 -0.18372,1.7265 0.03601,2.60001c0.21704,0.86279 0.84265,1.50015 1.048,2.28534l0.34131,0.94l0.29068,0.69064" id="svg_17" stroke-width="2" stroke="#000" fill="none"/>
  <path t="83853,83973,83981,83981,83989,83989,84005,84005,84022,84022,84022,84038,84038,84038,84055,84055,84055,84072,84072,84072,84089,84090,84105,84105,84105,84122,84122,84122,84138,84138,84155,84155,84172,84172,84188,84188,84188,84205,84205,84222,84222,84239,84239,84239,84255,84255,84273,84273,84288,84288,84288,84305,84305,84305,84322,84338,84338,84355,84355,84372,84388,84388,84406,84406,84422,84422,84439,84439,84456,84473,84473,84488,84488,84505,84505,84522,84522,84538,84538,84538,84555,84555,84555,84572,84572,84588,84588,84605,84605,84605,84622,84622,84622,84638,84655,84671,84688,84688,84705,84721,84738,84755,84804,84828" d="m266,318c0,1.75717 0,2.65717 0,3.40451c0,0.99417 0,1.93832 0,2.85184c0,0.79831 0,1.797 0,2.43033c0,1.01248 0,1.97998 0,2.8035c0,0.72449 0,1.93115 0,2.73517c0,0.82199 0,1.85315 0,2.53867c0,0.83466 0.00006,1.84048 0,2.69315c-0.00009,0.96417 0.03091,1.77161 -0.05716,2.59018c-0.11169,1.03815 -0.47675,1.92102 -0.65884,2.55133c-0.28525,0.98734 -0.27655,1.81717 -0.56799,2.80133c-0.2417,0.81616 -0.63635,1.79587 -0.69516,2.60001c-0.07294,0.99756 -0.01904,1.79999 -0.02084,2.60001c-0.00226,1 -0.00446,1.81265 -0.22134,2.60001c-0.22498,0.81671 -0.65964,1.79364 -0.74265,2.59998c-0.082,0.79657 0.05005,1.80746 -0.09317,2.54285c-0.18271,0.9382 -0.72272,1.61438 -0.89017,2.67151c-0.12686,0.80075 -0.08911,1.39728 -0.33667,2.58298c-0.18143,0.86896 -0.43936,1.63028 -0.66333,2.59283c-0.22681,0.97479 -0.57086,1.60242 -0.88602,2.64319c-0.22372,0.73877 -0.16666,1.6875 -0.16666,2.48798c0,0.85333 0.06039,1.80438 -0.08533,2.64801c-0.14008,0.811 -0.53214,1.76901 -0.74802,2.69733c-0.18234,0.78409 -0.16666,1.74402 -0.16666,2.65466c0,0.67868 0,1.79468 0,2.56268c0,0.952 0,1.71732 0,2.72049c0,0.85266 0.01727,1.81726 -0.01068,2.62085c-0.02863,0.82281 -0.19498,1.858 -0.41464,2.53867c-0.27145,0.84109 -0.4837,1.84198 -0.62735,2.63599c-0.18295,1.01129 -0.53104,1.59976 -0.78067,2.76666c-0.16602,0.77603 -0.16132,1.60797 -0.16666,2.66669c-0.00357,0.70499 0,1.505 0,2.53067c0,0.836 0,1.73599 0,2.63599c0,0.79999 0,1.70001 0,2.60001c0,0.89999 0,1.79999 0,2.69998l0,0.90002" id="svg_18" stroke-width="2" stroke="#000" fill="none"/>
  <path t="90452,90564,90572,90572,90588,90605,90605,90621,90621,90621,90621,90638,90638,90638,90655,90655,90655,90655,90671,90688,90688,90688,90705,90705,90705,90721,90721,90738,90738,90738,90755,90755,90755,90771,90771,90788,90788,90805,90805,90805,90821,90821,90821,90838,90838,90855,90855,90871,90871,90871,90888,90888,90905,90905,90905,90921,90921,90921,90938,90938,90938,90955,90955,90971,90971,90971,90988,90988,90988,91005,91005,91005,91021,91021,91021,91021,91038,91038,91038,91055,91055,91055,91071,91071,91071,91089,91089,91105,91105,91121,91121,91138,91138,91155,91171,91171,91188,91188,91205,91205,91221,91221,91238,91238,91255,91255,91271,91288,91305,91305,91321,91321,91338,91355,91355,91371,91371,91388,91388,91405,91405,91421,91421,91438,91438,91455,91455,91455,91471,91471,91471,91488,91488,91488,91488,91505,91505,91505,91505,91521,91521,91521,91521,91538,91538,91538,91538,91555,91555,91555,91555,91571,91571,91571,91588,91588,91588,91588,91605,91605,91605,91621,91621,91621,91621,91621,91638,91638,91638,91655,91655,91655,91655,91656,91671,91671,91671,91671,91688,91688,91688,91688,91705,91705,91705,91721,91721,91721,91721,91738,91738,91738,91755,91755,91771,91771,91771,91788,91788,91805,91805,91821,91821,91838,91838,91855,91855,91871,91871,91888,91905,91921,91921,91938,91938,91955,91955,91971,91988,92005,92005,92005,92021,92021,92038,92038,92055,92071,92071,92090,92090,92090,92105,92105,92121,92121,92138,92138,92155,92155,92171,92188,92205,92221,92221,92238,92238,92255,92271,92271,92300,92308,92332,92348,92348,92365,92396" d="m277,96c0.97916,1.02084 1,1.9785 1,2.79867c0,0.9585 0,1.8675 0,2.484c0,1.05067 0,2.02267 0,2.71733c0,0.69466 0,1.95734 0,2.74934c0,0.756 0,1.89317 0,2.5515c0,1.0125 0,1.64584 0,2.83217c0,1.03366 0,1.71366 0,2.55367c0,0.99733 0,1.81333 0,2.62933c0,1 0,1.90933 0,2.85066c0,0.786 0,1.608 0,2.66667c0,0.93066 0,1.76533 0,2.76666c0,0.8 0,1.8 0,2.6c0,1.00017 0,1.61067 0,2.48534c0,0.99867 0,1.81467 0,2.63066c0,0.99867 0,1.87334 0,2.884c0,0.8 0,1.8 0,2.60001c0,0.8 0,1.8045 0,2.65717c0,0.96432 0,1.77882 0,2.64734c0,0.89549 0,1.79099 0,2.6595c0,1.06932 0,1.77882 0,2.63148c0,1.00584 0,1.8405 0,2.77118c0,0.786 0,1.608 0,2.66666c0,0.94135 0,1.61934 0,2.58833c0,0.82501 0,1.74001 0,2.74501c0,0.71599 0,1.8125 0,2.5235c0,0.9765 0,1.8 0,2.758c0,0.97318 0,1.77716 0,2.59917c0,1.03133 0,1.95267 0,2.63667c0,0.99866 0,1.79517 0,2.98267c0,0.672 0,1.65466 0,2.508c0,0.94133 0,1.70934 0,2.65067c0,1.008 0,1.8 0,2.66c0,0.91916 0,1.91333 0,2.67867c0,0.952 0,1.72 0,2.672c0,0.76534 0,1.75951 0,2.50684c0,1.02116 0,1.96167 0,2.82384c0,0.83333 0,1.81183 0,2.63199c0,0.95851 -0.00052,1.85851 0,2.60583c0.00067,0.9955 -0.04333,1.81352 0.22134,2.79533c0.21545,0.79913 0.68546,1.62251 0.76797,2.42551c0.10547,1.02647 0.01068,1.77916 0.01068,2.776c0,0.83466 0,1.76534 0,2.55133c0,0.82201 -0.01749,1.88098 0.00449,2.59917c0.02933,0.95898 0.21353,2.09166 0.34818,2.758c0.1438,0.71172 0.3287,1.43669 0.48068,2.5235c0.14127,1.01007 0.15494,1.66653 0.16531,2.65067c0.01096,1.03728 0.00134,1.76868 0.00134,2.51601c0,0.74733 0,2.17867 0,2.84734c0,0.978 0,1.63666 0,2.67383c0,0.72701 0,1.8175 0,2.50951c0,1.20132 0,1.96933 0,2.73734c0,1.20132 0,1.89333 0,2.61732c0,0.73201 -0.00681,2.13084 0.01068,2.78934c0.01727,0.65092 0.14658,1.99361 0.27332,2.70934c0.13159,0.74312 0.30829,1.48752 0.43201,2.23199c0.23181,1.39491 0.2616,2.05832 0.27951,3.03667c0.01859,1.01384 0.00449,1.73267 0.00449,2.48334c0,0.77466 0.00317,1.56534 -0.00015,2.76399c-0.00223,0.80002 -0.00244,1.60104 -0.05701,2.40001c-0.08209,1.20218 -0.21988,1.99861 -0.36816,2.77867c-0.14267,0.75064 -0.42212,2.08615 -0.522,2.91599c-0.09085,0.75458 -0.21188,1.84012 -0.33667,2.47333c-0.20386,1.03448 -0.38809,1.72226 -0.54935,2.69867c-0.13474,0.81583 -0.15768,1.74048 -0.45065,2.73334c-0.24091,0.81638 -0.59698,1.59366 -0.67999,2.39999c-0.082,0.79657 -0.03601,1.80002 -0.03601,2.60001c0,1 0,1.80002 0,2.79984c0,0.96417 0,1.91617 0,2.68417c0,0.952 0,1.71732 0,2.71149c0,0.74734 0,1.76852 0,2.7045c0,0.90134 0,1.58536 0,2.53601c0,0.76532 0,1.75949 0,2.67868c0,0.96448 0.0531,1.80511 -0.16666,2.81866c-0.14777,0.68143 -0.47635,1.39948 -0.71185,2.52383c-0.15692,0.74927 -0.11789,1.7955 -0.12149,2.49014c-0.00534,1.02737 -0.23929,1.96729 -0.5,2.67352c-0.35822,0.97034 -0.43121,1.78629 -0.58401,2.57916c-0.15607,0.80969 -0.57489,1.57819 -0.79449,2.59982c-0.16513,0.76825 -0.12149,1.77884 -0.12149,2.55283c0,0.90002 0,1.76334 0,2.7265c0,0.92084 0.07849,1.84518 -0.16666,2.6875c-0.25082,0.86179 -0.74506,1.65558 -0.82886,2.52884c-0.07886,0.82159 -0.00449,1.78851 -0.00449,2.47916c0,1.06818 0,2.02536 0,2.92535c0,0.89999 0,1.69998 -0.03601,2.5l-0.38931,0.79999" id="svg_20" stroke-width="2" stroke="#000" fill="none"/>
  <path t="93812,93860,93868,93883,93892,93904,93921,93938,93938,93938,93954,93954,93954,93971,93971,93988,93988,94004,94004,94004,94021,94021,94038,94038,94054,94054,94071,94071,94090,94104,94121,94121,94138,94138,94154,94154,94171,94171,94188,94188,94204,94204,94204,94221,94221,94238,94238,94254,94254,94254,94271,94271,94271,94288,94288,94288,94304,94304,94321,94321,94321,94338,94338,94354,94354,94354,94371,94371,94371,94388,94388,94388,94404,94404,94404,94404,94421,94421,94421,94421,94438,94438,94438,94454,94454,94454,94471,94471,94471,94488,94488,94488,94504,94504,94521,94521,94521,94538,94554,94554,94554,94571,94571,94588,94588,94588,94604,94604,94621,94638,94638,94654,94654,94671,94671,94688,94704,94721,94721,94738,94754,94771,94771,94788,94804,94804,94821,94838,94838,94854,94854,94871,94888,94888,94904,94904,94921,94921,94938,94938,94954,94971,94988,94988,95004,95004,95004,95021,95021,95044,95044,95060,95060,95076,95076,95091,95104,95121,95138,95154,95171,95171,95188,95188,95204,95204,95221,95221,95238,95254,95254,95271,95271,95271,95288,95304,95304,95304,95321,95321,95321,95338,95338,95338,95354,95355,95355,95371,95371,95371,95372,95388,95389,95404,95404,95404,95422,95422,95422,95438,95438,95454,95454,95471,95472,95472,95488,95488,95488,95504,95504,95504,95521,95521,95521,95538,95538,95538,95554,95554,95571,95571,95588,95588,95604,95604,95604,95621,95621,95638,95638,95654,95654,95671,95688,95704,95704,95724,95738,95754,95754,95772,95788,95804,95821,95838,95854,95871,95888,95888,95908,95908,95924,95940,95964,95995,96027,96036,96036,96059,96091" d="m287,91c0,1.8 0,2.7 0,3.6c0,0.9 0,1.8 0,2.60133c0,0.96533 0,1.84033 0,2.48534c0,0.99733 0,1.81333 0,2.62933c0,1.22233 0.04407,2.02361 -0.00449,2.94033c-0.04242,0.80129 -0.2785,1.7959 -0.42084,2.41967c-0.22049,0.96635 -0.37036,1.83131 -0.57468,2.78233c-0.18713,0.87106 -0.60922,1.50616 -0.87851,2.52033c-0.2009,0.75658 -0.12149,1.674 -0.12149,2.53733c0,0.96317 0,1.89467 0,2.8055c0,0.69933 0,1.87833 0,2.65766c0,0.85417 -0.02762,1.7837 -0.35266,2.678c-0.2037,0.56049 -0.56769,1.53867 -0.6265,2.34283c-0.07294,0.99755 -0.02084,1.8 -0.02084,2.60001c0,1 0.02011,1.80022 -0.00134,2.80133c-0.01788,0.83519 -0.15298,1.76836 -0.35132,2.55133c-0.20908,0.82539 -0.52383,1.87567 -0.61133,2.82201c-0.06247,0.67584 -0.03601,1.64667 -0.03601,2.45065c0,0.82201 0,1.85318 0,2.75385c0,1.02083 0,1.82083 0,2.62083c0,1.0045 0,1.85716 0,2.82133c0,0.80399 0,1.62599 0,2.65732c0,0.69601 0,1.60535 0,2.608c0,0.85501 0,1.47501 0,2.83467c0,0.73134 0,1.47867 0,2.226c0,1.086 0,2.0955 0,2.73184c0,0.91949 0,2.12083 0,2.72083c0,0.90001 0,2.09984 0,2.6955c0,0.86852 0,1.93784 0,2.87918c0,0.67799 0,1.64667 0,2.45065c0,0.82201 0,1.85318 0,2.75385c0,1.02083 0,1.81017 0,2.53549c0,1.00616 0,2.02817 0,2.74667c0,0.7905 0,1.81717 0,2.71783c0,1.02083 0,1.82083 0,2.62083c0,0.9955 0,1.74283 0,2.77466c0,0.94667 0,1.8 0,2.74133c0,0.76801 0,1.70934 0,2.40001c0,1.07333 0,2.00482 0,2.80533c0,0.85333 0,1.79333 0,2.77867c0,0.89999 0,1.7 0,2.536c0,1.01666 0.15433,1.72476 -0.01068,2.728c-0.14294,0.86914 -0.80414,1.50069 -0.95331,2.46133c-0.10611,0.68335 -0.01614,1.80026 -0.03735,2.66c-0.01791,0.72594 -0.21277,1.71712 -0.49866,2.49384c-0.36917,1.00298 -0.49774,1.77348 -0.5,2.67349c-0.00217,0.86334 0,1.82651 0,2.65184c0,1.017 0,1.71632 0,2.6955c0,0.8 0,1.60001 0,2.60001c0,0.79999 0,1.79999 0,2.59999c0,0.99983 0,1.77917 0,2.7785c0,0.82016 0,1.7215 0,2.62151c0,0.89999 0,1.79999 0,2.7045c0,1.01683 0,1.6955 0,2.67416c0,0.90533 0,1.85733 0,2.62267c0,0.99417 -0.00009,1.7415 0,2.77333c0.00009,0.94684 -0.06122,1.66194 0.16666,2.62534c0.19119,0.80833 0.58615,1.50499 0.83334,2.52083c0.19611,0.80589 0.44611,1.73497 0.64734,2.53101c0.25797,1.02042 0.33276,1.72237 0.35132,2.63217c0.02042,1.00113 0.00049,1.83858 0.0585,2.4205c0.11972,1.20079 0.36972,2.09822 0.5535,2.6955c0.371,1.2058 0.60287,1.79405 0.8685,2.67915c0.24954,0.83142 0.46161,1.8349 0.5,2.52084c0.06522,1.16501 0.02084,1.95267 0.02084,2.77466c0,1.05869 0,1.76819 0,2.62085c0,1.00449 0,1.8045 0,2.8045c0,0.79999 0,1.79999 0,2.61066c0,0.64648 0,1.87466 0,2.42532c0,0.8685 0,2.06384 0,2.95334c0,0.57468 0,1.64401 0,2.58533c0,0.67801 0,1.90933 0,2.72534c0,0.54733 0,1.81332 0,2.65332c0,0.96268 0,1.73068 0,2.69336c0,0.61499 0,1.83731 0,2.65332c0,0.54733 0,1.81332 0,2.65332c0,0.96268 0,1.73068 0,2.67203c0,0.69064 0,1.76398 0,2.6955c0,0.80048 0,1.65381 0,2.59381c0,0.98535 0,1.88535 0,2.68533c0,0.90002 0,1.80002 0,2.70001c0,0.89999 0,1.79999 0,2.70001c0,0.89999 0,1.79999 0,2.55716c0,0.89551 0,1.75882 0,2.72198c0,0.92084 0,1.82083 0,2.72086c0,0.89999 0,1.79999 0,2.59998l0,0.90002l0,0.89999" id="svg_21" stroke-width="2" stroke="#000" fill="none"/>
  <path t="99948,100052,100068,100077,100092,100104,100121,100121,100138,100138,100154,100154,100171,100188,100204,100221,100221,100238,100254,100308,100332,100468" d="m274,107c1.79999,0 2.71976,0.1571 3.5,-0.02084c0.96201,-0.21938 1.59387,-0.91828 2.5,-0.97916c0.75546,-0.05077 1.65717,0 2.60132,0c0.99417,0 1.74152,0 2.7627,0c0.836,0 1.73599,0 2.63599,0c0.79999,0 1.70001,0 2.60001,0l0.89999,0l0.89999,0l0.89099,0" id="svg_23" stroke-width="2" stroke="#000" fill="none"/>
  <path t="101148,101284,101292,101292,101304,101304,101321,101321,101337,101337,101337,101337,101354,101354,101354,101371,101387,101387,101404,101421,101437,101437,101437,101437,101454,101454,101580" d="m272,126c1.75717,0.9955 2.65717,0.9995 3.40451,1c0.99417,0.00067 1.78864,-0.05706 2.71414,0.284c0.78058,0.28765 1.64368,0.62025 2.57867,0.68c0.69769,0.04458 1.42133,0.03533 2.81467,0.036c0.63068,0.00031 1.46918,0 2.51733,0c0.97067,0 1.77066,0 2.67068,0c0.86249,0 1.79999,0 2.65799,0c0.642,0 1.59,0 2.58734,0l0.936,0l0.93332,0.01067" id="svg_24" stroke-width="2" stroke="#000" fill="none"/>
  <path t="102036,102108,102108,102124,102140,102154,102171,102171,102187,102187,102187,102204,102204,102204,102221,102221,102221,102237,102237,102237,102237,102254,102254,102271,102271,102287,102287,102304,102304,102404,102404,102516" d="m269,143c1,1 1.79999,1 2.70001,1c0.89999,0 1.82083,0 2.62149,0c0.88916,0 1.87885,0 2.72015,0c0.729,0 1.60101,0 2.60901,0c0.69867,0 2.01599,0 2.58133,0c1.01868,0 2.10135,0 2.73468,0c0.67334,0 1.67084,0 2.76898,0c0.86835,0 1.74966,0 2.47501,0c0.98935,0 1.78934,0 2.78934,0c0.78934,0 1.83334,0 2.6955,0l0.89017,0.05716" id="svg_25" stroke-width="2" stroke="#000" fill="none"/>
  <path t="102972,103044,103052,103052,103071,103071,103090,103090,103104,103104,103104,103121,103121,103121,103137,103137,103154,103154,103171,103188,103188,103260,103260,103300,103324,103420" d="m270,164c1.02084,0.97917 1.97867,1 2.75266,1c0.90451,0 1.84866,0 2.85184,0c0.6315,0 1.81702,0 2.6315,0c0.57468,0 1.76401,0 2.655,0c0.83701,0 1.77567,0 2.58817,0c1.00485,0 1.6955,0 2.76819,0c0.91931,0 1.75266,0 2.586,0c0.86215,0 1.76666,0 2.66666,0l0.89999,0" id="svg_26" stroke-width="2" stroke="#000" fill="none"/>
  <path t="104332,104396,104404,104421,104437,104437,104454,104471,104471,104487,104487,104524,104524,104540,104564,104580,104580,104596,104596,104700,104700" d="m271,186c1.79999,0 2.70001,0 3.52084,0c0.96317,0 1.65381,0 2.72198,0c0.85733,0 1.64252,0 2.59317,0c0.76532,0 1.75949,0 2.67868,0c0.96448,0 1.78983,0 2.80682,0c0.69934,0 1.6785,0 2.46783,-0.01067l1.04401,-0.15601l0.64581,-0.33333" id="svg_27" stroke-width="2" stroke="#000" fill="none"/>
  <path t="105404,105476,105487,105504,105521,105537,105554,105554,105571,105571,105587,105587,105604,105604,105621,105621,105621,105637,105637,105654,105671,105732,105748,105772,105907,105939,105940,105963,105988" d="m266,208c2.58932,0 3.5,0 4.39999,0c0.89999,0 1.80002,0 2.70016,0c0.78519,0 1.73584,0 2.50116,0c0.99869,0 1.79868,0 2.80002,0c0.83466,0 1.76532,0 2.54684,0c0.7905,0 1.90881,0 2.74283,0c0.909,0 1.80899,0 2.70898,0c0.89999,0 1.80002,0 2.70001,0c0.89999,0 1.69998,0.08533 2.39999,0.5l0.89999,0.464" id="svg_28" stroke-width="2" stroke="#000" fill="none"/>
  <path t="106892,106939,106955,106955,106971,106971,106980,106987,107004,107021,107037,107037,107054,107054,107054,107071,107088,107104,107123,107147,107355" d="m272,230c1.02084,0.97917 1.97867,1 2.75266,1c0.90002,0 1.76334,0 2.7265,0c0.92084,0 1.82083,0 2.72217,0c0.96533,0 1.63467,0 2.79868,0c0.78934,0 1.51468,0 2.47916,0c0.92084,0 1.82083,0 2.72086,0l0.89999,0l0.89999,0" id="svg_29" stroke-width="2" stroke="#000" fill="none"/>
  <path t="107996,108051,108051,108060,108060,108071,108071,108090,108090,108090,108104,108104,108104,108104,108121,108121,108121,108137,108137,108154,108154,108180,108212,108332,108460" d="m274,257c1.836,0 2.60132,0 3.60001,0c0.79999,0 1.79999,0 2.60001,0c1.00049,0 1.86249,0 2.65598,0c1.00803,0 1.802,0 2.64401,0c0.84201,0 2,0 2.9285,0c0.7395,0 1.77133,0 2.55066,0c0.99933,0 1.81952,0 2.72086,0l0.89999,0l0.89999,0l0.87866,0" id="svg_30" stroke-width="2" stroke="#000" fill="none"/>
  <path t="108988,109060,109060,109069,109076,109076,109088,109088,109104,109104,109121,109121,109138,109155,109155,109171,109172,109188,109188,109204,109204,109204,109227,109227,109237,109267,109275,109291,109316,109316,109339,109363,109427" d="m267,273c1.82535,0.42532 2.51599,0.716 3.5,1c0.98401,0.284 1.64099,0.68869 2.616,0.91467c0.75262,0.17444 1.72,0.08533 2.48532,0.08533c0.99417,0 1.74152,0 2.77335,0c0.94666,0 1.79999,0 2.74133,0c0.76801,0 1.7341,-0.02246 2.34567,0.05716c1.23279,0.16049 1.75906,0.38599 2.58566,0.59018c1.02576,0.25339 1.91656,0.24442 2.931,0.35281c0.86615,0.09256 1.30368,0.95712 2.12167,0.99985c0.89877,0.04694 1.69998,0 2.60001,0l0.89999,0l0.89999,0" id="svg_31" stroke-width="2" stroke="#000" fill="none"/>
 </g>
 <g display="none">
  <title>muse_image</title>
  <image xlink:href="http://farm2.static.flickr.com/1431/534325554_ef0cc5f394.jpg" id="muse" height="480" width="369" y="0" x="135.5"/>
 </g>
 <g display="none">
  <title>bbox</title>
  <rect stroke="#f00" fill="none" stroke-width="3" height="431.04" width="194.56364" y="31.68" x="183.42208" id="bbox"/>
 </g>
</svg>
