<svg width="640" height="480" xmlns="http://www.w3.org/2000/svg" xmlns:svg="http://www.w3.org/2000/svg" xmlns:xlink="http://www.w3.org/1999/xlink">
 <!-- Sketchy ANNOTATION
  ImageNet ID: n02676566_5735
  URL: http://farm2.static.flickr.com/1415/787756258_f8a03b81da.jpg
  Image Width: 500
  Image Height: 375
  BBox X: 9
  BBox Y: 15
  BBox Width: 479
  BBox Height: 350
  Exposure: 2000ms
  Synset Label: guitar
  Synset ID: n03467517
  Worker Tag: acoustic guitar
  Sanity Check: 
   Saved
  Comment: 
   {}
  Worker ID: A1VGZ2K3HF66TE
  Assignment ID: 3ZQIG0FLQEGEDCWPO0K9HMBG3ECWV6
  HIT ID: 3LAZVA75NIRVOSRRJ24M936Y08K2O3
  Work Time: 110s
  Worker Score: 0.7857
 END ANNOTATION -->
 <g display="inline">
  <title>Layer 1</title>
  <path t="0,232,250,251,251,251,251,251,251,262,263,263,263,263,305,306,306,306,315,316,316,316,316,316,331,331,331,331,331,332,332,332,345,346,346,346,346,362,362,362,415,421,421,421,422,422,422,422,422,422,429,430,430,430,430,431,445,446,446,446,446,447,483,485,485,485,497,497,497,497,498,498,511,512,512,512,512,513,548,548,548,549,549,565,566,566,566,567,567,580,581,581,581,582,582,582,582,583,597,597,597,598,599,601,611,612,612,612,647,656,661,686,708,709,709,709,710,710,710,710,733,734,735,737,737,738,738,748,748,749,749,750,761,762,778,778,779,814,823,848,850,850,852,861,861,867,868,868,869,896,911,912,912,913,913,932,949,949,950,950,995,996,998,1005,1005,1012,1012,1013,1013,1014,1028,1029,1029,1030,1087,1088,1088,1095,1096,1101,1103,1103,1104,1104,1105,1114,1115,1115,1116,1116,1210,1211,1217,1218,1219,1219,1219,1220,1220,1221,1244,1246,1246,1247,1247,1254,1255,1255,1256,1262,1263,1263,1264,1264,1295,1323,1328,1329,1329,1330,1330,1331,1333,1343,1345,1345,1346,1347,1348,1363,1363,1364,1365,1365,1397,1398,1399,1399,1400,1405,1406,1406,1407,1408,1408,1409,1410,1428,1430,1431,1431,1448,1461,1462,1463,1464,1465,1478,1479,1480,1481,1515,1516,1516,1522,1523,1525,1566,1567,1568,1569,1570,1618,1619,1619,1620,1620,1621,1630,1632,1632,1648,1649,1650,1652,1653,1677,1678,1679,1680,1680,1688,1689,1690,1712,1714,1715,1716,1738,1739,1744,1746,1746,1747,1747,1748,1762,1796,1798,1798,1799,1812,1814,1848,1850,1850,1851,1857,1881,1883,1883,1896,1898,1913,1915,1916,1916,1917,1918,1948,1949,1950,1950,1978,1980,1981,1982,1983,1998,2015,2051,2076,2078,2079,2080,2081,2088,2090,2132,2133,2136,2137,2156,2160,2161,2191,2192,2194,2195,2202,2203,2204,2205,2206,2227,2229,2230,2230,2240,2241,2242,2261,2262,2263,2263,2290,2301,2303,2303,2305,2305,2306,2307,2325,2326,2328,2329,2330,2348,2350,2350,2362,2364,2380,2382,2383,2384,2385,2386,2387,2411,2413,2414,2415,2448,2450,2452,2455,2469,2529,2547,2549,2550,2551,2567,2578,2580,2581,2582,2583,2615,2617,2618,2619,2620,2621,2632,2634,2635,2637,2638,2639,2641,2642,2666,2667,2668,2670,2672,2690,2692,2695,2696,2702,2711,2779,2781,2782,2794,2796,2815,2816,2817,2819,2820,2845,2848,2849,2850,2851,2862,2863,2865,2866,2867,2879,2881,2883,2884,2885,2886,2887,2911,2913,2914,2915,2916,2918,2919,2920,2928,2929,2930,2931,2932,2933,2934,2935,2946,2948,2949,2950,2952,2953,2955,2957,2958,2984,2987,2988,2990,2991,2993,2996,2998,2999,3007,3010,3011,3013,3015,3016,3018,3019,3020,3043,3048,3050,3052,3054,3055,3056,3058,3059,3070,3072,3074,3076,3078,3080,3082,3084,3087,3108,3111,3112,3114,3115,3117,3119,3122,3123,3133,3136,3137,3139,3140,3141,3144,3146,3148,3165,3168,3170,3171,3172,3173,3175,3177,3178,3192,3195,3197,3200,3201,3202,3203,3204,3206,3217,3219,3221,3222,3224,3226,3228,3229,3231,3253,3255,3257,3259,3261,3262,3264,3266,3268,3282,3284,3285,3286,3287,3289,3290,3291,3292,3299,3302,3303,3305,3306,3308,3310,3312,3315,3331,3333,3335,3337,3339,3340,3342,3344,3347,3360,3362,3364,3366,3369,3370,3371,3373,3374" d="m297,213c-4.29733,-8.58667 -5.17462,-9.3243 -5.79333,-9.87733c-0.39856,-0.35625 -0.82675,-0.7679 -1.29001,-1.20599c-0.97687,-0.9238 -1.45721,-1.40022 -2.41666,-2.25c-0.83307,-0.73785 -1.21942,-1.04999 -1.9375,-1.58334c-0.64108,-0.47617 -1.54352,-1.11386 -2.4715,-1.66983c-0.62064,-0.37183 -1.28485,-0.74786 -2.42435,-0.9135c-0.83362,-0.12117 -1.77219,0.00774 -2.27081,0.08333c-1.0802,0.16376 -1.65582,0.30019 -2.89584,0.58334c-0.6644,0.15172 -1.35153,0.31001 -2.75467,0.66933c-0.7048,0.18048 -1.3988,0.36966 -2.073,0.5685c-0.65109,0.19202 -1.85471,0.55817 -2.84433,0.99684c-0.85208,0.37772 -1.5661,0.80034 -2.13602,1.284c-0.81186,0.689 -1.46124,1.48265 -1.77332,1.98134c-0.57391,0.91708 -1.08359,2.0011 -1.3685,2.44733c-0.34009,0.53267 -0.73154,1.13118 -1.15952,1.782c-0.45233,0.68788 -0.92099,1.39488 -1.39349,2.106c-0.46481,0.69955 -1.33078,1.99782 -1.71133,2.56934c-0.66211,0.99435 -0.95566,1.43193 -1.47916,2.23666c-0.48965,0.75273 -1.22865,1.93425 -1.49068,2.36c-0.54269,0.88182 -0.81517,1.3325 -1.36333,2.22667c-0.26825,0.43758 -1.02252,1.66837 -1.5045,2.39549c-0.46049,0.69472 -0.93912,1.37357 -1.78149,2.37651c-0.30283,0.36055 -0.97581,1.09114 -1.328,1.46933c-0.7226,0.77597 -1.10445,1.15604 -2.172,2.364c-0.34979,0.3958 -1.01093,1.19434 -1.64584,1.97917c-0.31087,0.38426 -0.90312,1.1496 -1.82117,2.19916c-0.29709,0.33965 -0.90062,0.99788 -1.57166,1.575c-0.67888,0.58385 -1.86763,1.33278 -2.30267,1.56534c-0.92137,0.49254 -1.43019,0.72159 -1.95467,0.97867c-1.13083,0.55429 -2.37309,1.19827 -3.03433,1.56667c-0.68823,0.38344 -1.3869,0.79135 -2.091,1.21201c-0.70525,0.42134 -1.39827,0.84647 -2.073,1.26599c-0.65059,0.40453 -1.83931,1.15753 -2.36501,1.4935c-0.92653,0.59216 -1.72276,1.10397 -2.09,1.3325c-0.6937,0.43172 -1.73553,1.03732 -2.4655,1.42751c-0.72809,0.38918 -1.44154,0.74823 -2.7085,1.38283c-0.74974,0.37553 -1.4778,0.72038 -2.274,1.155c-0.94559,0.51616 -1.31909,0.75352 -2.265,1.29083c-0.54533,0.30977 -1.12886,0.63919 -1.743,0.9825c-0.63518,0.35506 -1.27962,0.72395 -3.23967,1.77167c-0.63316,0.33846 -1.25899,0.66197 -1.875,0.97501c-0.60402,0.30693 -1.1958,0.60876 -2.36,1.16c-1.11604,0.52843 -1.66113,0.77173 -2.7025,1.21599c-0.48277,0.20595 -1.29903,0.80211 -2.58417,0.97067c-0.69963,0.09177 -1.50784,0.14641 -2.16267,0.38667c-0.72417,0.2657 -2.05759,0.67885 -2.7,1.084c-0.89948,0.56726 -1.272,1.164 -1.828,1.72c-0.57199,0.57199 -1.46367,1.49106 -2.01466,1.92932c-0.78177,0.62186 -1.44604,1.10742 -2.14267,1.65335c-0.64743,0.50739 -1.46512,1.09241 -1.98532,1.72665c-0.65376,0.79709 -0.8941,1.1514 -1.44,1.84799c-0.50739,0.64746 -1.12982,1.77975 -1.38,2.66135c-0.19765,0.69647 -0.52927,1.47568 -0.78,2.328c-0.356,1.21011 -0.47679,1.93246 -0.52499,2.5585c-0.08484,1.10168 -0.04167,1.93365 -0.04167,2.93265c0,0.80099 0,1.73401 0,2.22751c0,0.996 0,2.37949 0,3.17249c0,0.70901 0,1.358 0,2.57101c0,0.8685 -0.20728,1.65863 0.04266,2.66718c0.16698,0.6738 0.83961,1.58502 1.09866,2.02264c0.59418,1.00378 0.93471,1.53647 1.30135,2.06934c0.36806,0.53491 1.5381,1.96317 1.9565,2.31216c0.74619,0.62241 1.50662,0.95947 2.37416,1.33585c0.86221,0.37405 1.34648,0.82227 2.56183,1.62149c0.58708,0.38608 1.25664,0.79407 1.97551,1.2345c0.75075,0.45996 1.51793,0.92258 2.28149,1.37851c0.73914,0.44135 2.07381,1.22672 2.636,1.55151c0.4899,0.28305 1.2964,0.73459 1.9225,1.09c1.01913,0.57849 1.5415,0.8956 2.39101,1.45898c0.6241,0.41388 1.62706,1.12216 2.33566,1.63834c0.35387,0.25778 1.13969,0.62823 1.812,1.38c0.57721,0.64545 0.96689,1.44958 1.75734,2.29999c0.49602,0.53363 1.05753,1.10248 1.6575,1.70251c0.61996,0.62006 1.25056,1.23962 1.88249,1.83749c1.17186,1.10867 1.70337,1.57419 2.18668,1.99066c0.4386,0.37793 1.23555,1.01074 1.90416,1.59668c0.94138,0.82495 1.23965,1.14038 1.81351,1.82251c0.58556,0.69604 1.13208,1.41931 1.77567,2.5235c0.39261,0.67361 0.70374,1.37909 1.092,2.09998c0.21225,0.39407 1.06897,1.73749 1.44817,2.25186c0.40843,0.55405 0.85779,1.12357 1.33051,1.70547c0.48024,0.59116 0.96503,1.17801 1.92799,2.28802c0.86179,0.99341 1.24387,1.41727 1.8925,2.12198c0.49309,0.53571 1.27946,1.26114 1.87067,1.70651c0.60922,0.45895 1.33644,1.05234 2.127,1.70099c0.39774,0.32635 1.48235,1.2464 2.0775,1.7775c0.52727,0.47052 1.23332,1.13058 1.98834,1.71417c0.7888,0.60968 1.3412,0.98376 2.41199,1.63351c0.68843,0.41772 1.34056,0.98276 2.33334,1.16666c0.60962,0.11295 1.39999,0 2.22,0c0.73999,0 2.11333,0 2.77466,0c0.90933,0 1.422,0 2.49333,0c0.53067,0 1.94257,0.06885 2.98666,-0.03201c0.85788,-0.08289 1.70453,-0.44647 2.328,-0.82397c0.70706,-0.42813 1.42493,-0.96478 2.14801,-1.548c0.72513,-0.58487 1.40149,-1.18878 2.03598,-1.78534c0.60529,-0.56909 1.16034,-1.125 1.92535,-1.88934c0.69629,-0.69568 1.14606,-1.14728 2.08798,-2.08798c0.51434,-0.51367 0.9957,-1.0741 1.76636,-1.70917c0.77994,-0.64273 1.4277,-0.7673 2.39465,-1.57333c0.38675,-0.32239 1.20419,-1.1163 1.63068,-1.53c0.41882,-0.40628 1.22998,-1.09464 1.94299,-2.00751c0.44708,-0.57239 0.86398,-1.20795 1.41867,-1.87201c0.53894,-0.6452 1.51462,-1.45822 2.01599,-1.84534c0.89401,-0.69025 1.35468,-1.43732 1.64316,-1.77515c0.55304,-0.64767 1.55313,-1.41653 1.95819,-1.82751c0.65875,-0.6684 1.04279,-1.2673 1.69864,-2.20834c0.55099,-0.79056 0.86279,-1.4856 1.21869,-2.19299c0.44113,-0.87677 0.68307,-1.35654 1.20166,-2.3475c0.26038,-0.49753 1.01596,-1.88269 1.47299,-2.655c0.38257,-0.64648 0.7438,-1.36682 1.13733,-2.45615c0.22968,-0.63577 0.63333,-1.40067 0.83334,-1.8125c0.38675,-0.7963 -0.15237,-1.66916 0.53601,-1.09283c0.45514,0.38104 1.29214,-1.03394 1.66531,-1.34668c0.83044,-0.69601 1.26718,-1.04889 2.06833,-1.76083c0.90872,-0.80753 0.78006,-0.98254 0.73035,-1.15384c-0.19067,-0.65726 1.32202,-0.86981 1.90399,-1.18399c1.17694,-0.63535 1.79959,-0.84897 2.396,-1.108c1.20749,-0.52448 1.80463,-0.85431 2.41068,-1.21066c0.95178,-0.55963 1.95325,-1.16898 2.67334,-1.564c0.73856,-0.40512 1.11868,-0.59503 1.86334,-1c1.08997,-0.59274 1.76868,-0.99432 2.711,-1.57916c0.58167,-0.36099 1.61688,-1.00595 2.09348,-1.26819c0.70432,-0.38757 1.78152,-0.91931 2.41086,-1.23398c0.95398,-0.47702 1.53952,-0.70959 2.19733,-1.31201c0.67245,-0.61584 1.43475,-1.39081 1.92133,-1.81601c0.52097,-0.45529 1.06915,-0.92316 1.63049,-1.39349c0.55731,-0.46698 2.10095,-1.71271 2.5455,-2.05716c0.7861,-0.6091 1.17072,-0.83957 2.052,-1.62c0.79932,-0.70786 1.28864,-1.21823 1.772,-2.02267c0.5351,-0.89053 0.44501,-1.70093 0.75201,-2.46399c0.34082,-0.84714 0.63562,-1.31982 1.22916,-2.39584c0.3147,-0.5705 0.64236,-1.14224 0.97351,-1.70551c0.9115,-1.55051 1.18069,-1.9895 1.66,-2.73465c0.51428,-0.79953 0.86258,-1.34897 1.0665,-1.87051c0.38696,-0.98969 0.93323,-1.49008 1.23483,-2.40417c0.07352,-0.22284 0.00266,-1.05032 0.00266,-1.82965c0,-0.85135 0.70483,-1.97421 -0.10416,-2.85135c-0.68976,-0.74786 -1.67648,-0.57016 -2.0545,-0.83633c-0.83124,-0.58533 -1.24472,-0.92435 -2.508,-1.87199c-0.38989,-0.29247 -1.13132,-0.84744 -1.91669,-1.3125c-0.83582,-0.49493 -1.31824,-0.72134 -2.41666,-1.1875c-0.62375,-0.26471 -1.30078,-0.52483 -2.75201,-1.04799c-0.74637,-0.26906 -1.49551,-0.5253 -2.23199,-0.77551c-0.71158,-0.24176 -2.01624,-0.6758 -2.58716,-0.86699c-0.99072,-0.33179 -1.82916,-0.61008 -2.55899,-0.89101c-1.04318,-0.40155 -1.74918,-0.72887 -2.44183,-1.05583c-0.62451,-0.2948 -0.30341,-1.15567 -0.5,-0.23199c-0.16949,0.79631 -1.62933,0.03624 -2.22668,0.036c-1.21533,-0.0005 -1.70007,-0.34285 -1.70084,-1.32851c-0.00061,-0.8011 0.04831,-1.73544 0.10751,-2.22749c0.12027,-0.99973 0.53528,-2.39014 0.74799,-2.78799c0.41208,-0.77074 0.96295,-1.43616 1.548,-2.052c0.87698,-0.92313 1.50708,-1.51134 2.11685,-2.1665c0.3186,-0.34232 0.97754,-1.08313 1.64581,-1.9375c0.7359,-0.9408 1.09659,-1.46022 1.49069,-1.976c0.40216,-0.52631 0.78748,-1.08214 1.71466,-2.07201c0.9249,-0.98744 1.46387,-1.39703 1.99731,-1.8c0.53369,-0.40315 1.65259,-1.15041 2.216,-1.528c0.56757,-0.38039 1.15594,-0.74541 2.24802,-1.62399c0.55795,-0.44888 1.08878,-0.94701 1.61398,-1.46249c1.06531,-1.04562 1.57574,-1.59973 2.10535,-2.13667c0.52908,-0.53641 1.60815,-1.57417 2.16931,-2.05867c0.56161,-0.48489 1.14719,-0.95221 1.746,-1.42349c0.61383,-0.48311 1.25302,-0.97437 1.90802,-1.4955c0.68381,-0.54407 2.12875,-1.75116 2.88815,-2.43018c0.79419,-0.71011 1.60043,-1.46309 2.42252,-2.241c0.83633,-0.7914 1.673,-1.59764 2.51248,-2.403c0.83386,-0.79997 2.46484,-2.35188 3.25751,-3.08417c0.76743,-0.70895 1.51791,-1.38669 2.25,-2.03549c0.70798,-0.62744 1.3985,-1.22707 2.07001,-1.80151c0.64856,-0.55484 1.88925,-1.59537 2.4805,-2.08499c0.57278,-0.47433 1.13263,-0.93344 1.68149,-1.3815c0.54013,-0.44095 1.07605,-0.87595 1.6095,-1.30949c0.53455,-0.43445 1.61899,-1.31792 2.17651,-1.776c0.58652,-0.48189 1.21841,-1.00447 1.914,-1.5825c0.77847,-0.64691 1.65628,-1.37965 2.65201,-2.21251c1.13232,-0.9471 3.87631,-3.2471 5.51465,-4.62233c1.79105,-1.5034 3.69629,-3.10452 5.67599,-4.77449c2.01965,-1.70367 4.03931,-3.41238 6.01801,-5.09851c1.90656,-1.62463 5.33881,-4.58005 6.79416,-5.86516c1.30551,-1.1528 2.48044,-2.2148 3.55051,-3.21901c1.01599,-0.95348 1.98996,-1.90472 2.95651,-2.877c1.00296,-1.00891 3.20013,-3.29039 4.45566,-4.60167c1.35388,-1.414 2.77954,-2.9081 4.25851,-4.452c1.50534,-1.57144 3.01486,-3.14371 4.5105,-4.68599c1.44977,-1.495 4.1366,-4.22296 5.33798,-5.40501c1.09109,-1.07352 2.09567,-2.03552 3.0195,-2.901c0.84348,-0.79022 1.62714,-1.50497 2.35352,-2.16299c0.67767,-0.61391 1.93253,-1.7468 2.52182,-2.29517c0.58136,-0.541 1.15625,-1.0887 1.73401,-1.6485c0.59296,-0.57451 1.20346,-1.17653 1.84201,-1.8105c0.67618,-0.67131 2.16623,-2.16127 2.99365,-2.98933c0.8739,-0.87459 1.7803,-1.78268 2.703,-2.7135c0.92868,-0.93684 1.84738,-1.86867 2.73898,-2.78549c0.85767,-0.88193 2.401,-2.50285 3.05768,-3.22184c0.58826,-0.64407 1.10086,-1.22564 1.54199,-1.746c0.38379,-0.45272 0.70438,-0.8483 0.966,-1.188c0.21518,-0.27942 0.50186,-0.68161 0.57883,-0.81c0.04831,-0.08057 0.0672,-0.13448 0.05252,-0.138c-0.03146,-0.00756 -0.07413,0.04712 -0.1275,0.096c-0.06009,0.05502 -0.17252,0.168 -0.21768,0.21317c-0.03616,0.03616 -0.06433,0.06433 -0.08548,0.08549c-0.01517,0.01517 -0.02536,0.02532 -0.03152,0.0315c-0.00314,0.00316 -0.00449,0.0045 -0.00449,0.0045c0,0 0,0 0,0c0,0 0,0 0,0l0,0" id="svg_1" stroke-width="2" stroke="#000" fill="none"/>
  <path t="3955,4244,4244,4244,4244,4244,4245,4245,4261,4262,4262,4262,4262,4262,4262,4262,4285,4286,4286,4286,4286,4297,4298,4298,4298,4298,4298,4299,4330,4331,4331,4331,4331,4331,4332,4357,4358,4358,4358,4358,4360,4360,4360,4361,4367,4367,4367,4367,4368,4368,4378,4379,4379,4380,4380,4411,4411,4412,4412,4412,4446,4447,4447,4447,4447,4448,4448,4454,4455,4455,4455,4455,4461,4461,4461,4462,4462,4495,4496,4496,4496,4497,4497,4512,4513,4513,4513,4514,4514,4514,4514,4527,4528,4528,4528,4545,4579,4579,4580,4580,4580,4596,4602,4614,4614,4615,4615,4615,4628,4663,4664,4664,4665,4679,4679,4680,4713,4715,4715,4715,4716,4721,4746,4747,4747,4748,4761,4762,4762,4763,4778,4779,4797,4798,4799,4799,4799,4800,4828,4845,4847,4848,4848,4849,4849,4863,4878,4878,4879,4879,4880,4912,4929,4946,4947,4947,4948,4962,5029,5044,5045,5046,5046,5079,5144,5163,5165,5165,5166,5179,5180,5195,5196,5197,5198,5198,5212,5213,5215,5216,5216,5247,5248,5249,5261,5262,5279,5280,5281,5281,5282,5282,5283,5311,5311,5312,5349,5414,5415,5416,5428,5429,5444,5445,5446,5479,5498,5499,5499,5500,5511,5511,5512,5544,5546,5546,5547,5547,5548,5562,5579,5580,5580,5581,5594,5611,5645,5646,5647,5648,5648,5662,5664,5664,5665,5665,5693,5695,5696,5696,5697,5697,5703,5703,5705,5705,5706,5706,5729,5730,5730,5731,5731,5744,5745,5747,5747,5748,5748,5762,5763,5764,5780,5812,5813,5814,5847" d="m301,208c8.79315,-4.1785 9.38019,-4.51213 9.93216,-4.84283c0.53198,-0.31873 1.55621,-0.95041 2.07401,-1.25267c0.52618,-0.30716 2.27676,-1.20921 2.9285,-1.50316c0.66925,-0.30186 1.3555,-0.59192 2.04449,-0.88051c0.68298,-0.28607 1.35593,-0.55681 1.99951,-0.83549c1.72232,-0.74577 2.20532,-0.98886 3.07333,-1.46001c0.80902,-0.43913 1.19107,-0.68848 2.448,-1.392c0.46219,-0.2587 1.46674,-0.791 1.99734,-1.06932c0.54404,-0.28535 1.66006,-0.8665 2.22131,-1.16534c1.11682,-0.59467 1.66104,-0.8979 2.74219,-1.50316c0.54608,-0.30569 1.09998,-0.61942 1.67249,-0.9315c1.20316,-0.65584 2.53165,-1.33408 3.25168,-1.685c0.74661,-0.36388 1.5155,-0.72516 2.29498,-1.08301c0.77722,-0.35681 1.54575,-0.70074 2.29501,-1.02899c0.71747,-0.31432 2.02429,-0.86868 2.59631,-1.10284c0.51874,-0.21236 1.43765,-0.56868 2.23669,-0.90416c0.75818,-0.31833 1.93707,-0.89806 2.35864,-1.12933c0.87885,-0.48212 1.32269,-0.73535 2.17084,-1.2825c1.17709,-0.75935 1.82547,-1.25101 2.38651,-1.75484c0.56766,-0.50975 1.13376,-1.12822 1.776,-1.86c0.75888,-0.86469 1.15918,-1.3475 1.57599,-1.84532c0.4252,-0.50783 1.26852,-1.53249 1.672,-2.03734c0.75674,-0.94691 1.39777,-1.79536 1.68951,-2.17917c0.53995,-0.7103 1.02945,-1.39005 1.89584,-2.2715c0.61292,-0.62357 1.32678,-1.20146 1.6875,-1.5c0.72855,-0.60297 1.81729,-1.49461 2.49915,-2.104c0.34329,-0.30679 1.04208,-0.95894 1.41333,-1.304c0.80579,-0.74896 1.73224,-1.59323 2.25186,-2.05583c0.54834,-0.48814 1.12061,-0.99008 1.70547,-1.5015c0.58813,-0.51427 1.17291,-1.02164 1.74152,-1.5195c1.53693,-1.3457 1.96378,-1.72437 2.66849,-2.373c0.53571,-0.49309 1.33459,-1.16362 2.14868,-1.649c0.73386,-0.43753 1.13339,-0.72258 1.97333,-1.30249c0.79453,-0.54855 1.64395,-1.19313 2.11865,-1.828c0.71127,-0.95126 0.95618,-1.28745 1.61069,-1.97867c0.68918,-0.72783 1.03085,-1.06462 2.01984,-2.05583c0.66077,-0.66225 1.29599,-1.29601 1.849,-1.849c0.573,-0.573 1.3125,-1.3125 1.88849,-1.8885c0.51199,-0.51199 1.19717,-1.19719 1.84949,-1.8495c0.35718,-0.35716 1.0777,-1.07933 1.73584,-1.73582c0.8837,-0.88147 1.51938,-1.28229 2.27469,-1.84933c0.65387,-0.49091 1.00992,-0.75739 2.064,-1.65601c0.68658,-0.58531 1.30313,-1.16333 1.84799,-1.692c0.82553,-0.80099 1.36032,-1.34966 2.15201,-2.14133c0.58533,-0.58533 0.92545,-0.92552 1.64581,-1.64584c0.35818,-0.35817 0.91956,-1.12607 2.0625,-2.02083c0.7373,-0.57721 1.52985,-1.00282 1.97519,-1.31599c0.47604,-0.33475 1.44736,-1.02811 1.90466,-1.36801c1.08539,-0.80678 1.73776,-1.65755 2.16782,-2.036c0.58878,-0.51812 1.24438,-1.08649 1.90802,-1.56c0.7536,-0.53771 0.93036,-0.56306 1.92133,-1.35467c0.34006,-0.27164 1.05771,-0.84805 1.76083,-1.3975c0.81726,-0.63864 0.82657,-0.47087 1.48715,-0.96783c0.7403,-0.55693 1.33789,-0.96998 1.86551,-1.442c0.93436,-0.83591 0.6965,-1.22949 1.35318,-1.722c0.81598,-0.61199 1.41516,-1.05759 1.97867,-1.484c0.9238,-0.69905 1.39166,-1.27167 1.98932,-2.27733c0.21094,-0.35495 0.67749,-1.15267 1.14584,-2.04c0.23929,-0.45333 0.87119,-1.80801 1.19098,-2.673c0.30148,-0.81549 0.39935,-1.22433 0.6925,-1.975c0.55316,-1.41653 0.91617,-2.0284 1.4075,-2.81067c0.52768,-0.84013 0.93005,-1.46235 1.3765,-2.24266c0.47125,-0.82368 0.74921,-1.3106 1.35419,-2.375c0.31418,-0.55279 0.62695,-1.10329 0.9285,-1.641c0.78931,-1.40747 0.71466,-2.64504 1.67999,-3.02334c0.36295,-0.14223 1.22534,0.206 1.91232,0.206c0.77701,0 1.77435,0 2.68369,0c0.94131,0 1.72427,-0.13946 2.65048,0c0.85968,0.12944 1.62592,0.85764 2.28683,1.276c0.71747,0.45415 1.43262,0.8495 2.23102,1.3605c0.81998,0.5248 1.19727,0.87119 2.15533,1.69117c0.43643,0.37352 1.40662,1.20343 1.90933,1.63067c0.49194,0.41808 0.83615,0.98129 2.24933,1.87067c0.5993,0.37717 1.16656,0.69012 1.81317,1.19183c0.66876,0.51891 1.67734,1.09989 1.56183,1.16983c-0.84259,0.51013 0.63278,1.59159 0.91733,2.4135c0.15485,0.4473 0.49106,1.39088 0.75635,2.8955c0.08722,0.49461 0.17798,1.48289 0.07831,2.42834c-0.04858,0.46079 -0.43713,1.78289 -0.97867,2.5c-0.55923,0.74057 -0.95886,1.04068 -1.78833,1.60583c-0.43274,0.29485 -1.90756,1.05083 -2.43567,1.2795c-0.53458,0.23145 -1.63007,0.65053 -2.18134,0.84c-1.07898,0.37085 -2.11496,0.68824 -3.08133,0.96c-0.45844,0.12891 -1.34366,0.37002 -2.2175,0.525c-1.31235,0.23276 -2.23557,0.28142 -2.7045,0.3045c-0.94687,0.04661 -1.89465,0.05402 -2.36331,0.05583c-1.36151,0.00526 -2.19986,0.00134 -2.93817,0.00134c-1.21802,0 -1.73517,0 -2.66669,0l-0.66766,0l-1.173,0" id="svg_2" stroke-width="2" stroke="#000" fill="none"/>
  <path t="7780,7995,8030,8031,8055,8055,8055,8056,8056,8056,8071,8071,8072,8072,8079,8080,8080,8080,8113,8113,8113,8113,8133,8133,8134,8134,8134,8134,8134,8134,8145,8145,8145,8145,8146,8203,8203,8203,8215,8216,8216,8216,8236,8237,8237,8237,8246,8252,8252,8252,8252,8253,8253,8253,8279,8279,8279,8280,8280,8295,8295,8295,8296,8296,8296,8311,8312,8312,8312,8312,8331,8332,8332,8368,8387,8388,8388,8388,8388,8389,8389,8397,8398,8398,8398,8398,8398,8428,8429,8429,8469,8470,8470,8470,8470,8475,8476,8476,8477,8497,8497,8498,8498,8511,8512,8513,8513,8549,8550,8550,8551,8582,8583,8583,8583,8584,8590,8592,8593,8593,8593,8595,8595" d="m279,241c-8.86267,4.28934 -9.07321,4.11366 -9.34265,4.59866c-0.5318,0.95721 -1.06726,1.8815 -1.34802,2.41068c-0.29239,0.5511 -0.61594,1.10239 -1.08798,2.25867c-0.42853,1.04968 -0.66129,1.98875 -0.65201,2.78799c0.01193,1.03041 0.25015,1.94609 0.39151,2.83949c0.09259,0.58516 0.26071,1.52693 1.18317,2.42183c0.55829,0.54163 0.97778,0.70886 1.78833,1.1925c1.39554,0.83273 1.91135,1.13123 2.43567,1.45816c0.53836,0.33569 1.63165,1.03253 2.18134,1.38135c0.54498,0.34586 1.0705,0.703 2.60748,1.60718c0.46756,0.27505 1.34485,0.77609 2.18585,1.11417c0.75668,0.30417 1.83743,0.50861 2.50015,0.46231c0.95294,-0.06656 2.15482,-0.38614 2.75983,-0.44766c0.93637,-0.09525 1.61166,-0.08307 2.73068,-0.08533c0.828,-0.00165 1.664,0.00027 2.436,0c1.18149,-0.00043 1.54736,-0.84915 2.10931,-1.42401c0.35495,-0.3631 1.22443,-1.13968 1.69867,-1.55731c0.48611,-0.42807 0.9884,-0.84229 2.35815,-2.07602c0.41187,-0.37097 1.16257,-1.08615 1.50201,-1.44266c0.66092,-0.69415 1.57065,-1.82751 1.86185,-2.24283c0.59967,-0.85532 0.88705,-1.30339 1.35666,-2.24251c0.2298,-0.45955 0.73697,-1.84146 0.80399,-2.728c0.06332,-0.83763 -0.06674,-1.63998 -0.17999,-2.39999c-0.15863,-1.06448 -0.11081,-2.02574 -0.27551,-2.75351c-0.19562,-0.86441 -1.01093,-1.2926 -1.71381,-1.92517c-0.42865,-0.38579 -0.8811,-0.82193 -1.88269,-1.73866c-0.51849,-0.47456 -1.02847,-0.95776 -2.07465,-1.80266c-0.4826,-0.38976 -1.39618,-1.05757 -2.27084,-1.52084c-0.3974,-0.21049 -1.16122,-0.61433 -2.57983,-0.69383c-0.66739,-0.0374 -1.69846,0.1709 -2.81601,0.048c-0.84354,-0.09276 -1.27469,-0.25334 -2.16666,-0.52083c-0.89746,-0.26915 -2.16144,-0.67258 -2.92932,-0.8085c-0.69479,-0.123 -1.34918,-0.16 -2.57068,-0.17067c-0.90448,-0.0079 -1.52084,-0.00031 -2.48532,0c-1.03586,0.00034 -1.7699,-0.03712 -2.49384,0.08333c-1.06802,0.1777 -2.01315,0.76982 -2.51102,1.34084c-0.52844,0.60608 -0.93488,1.35254 -1.67648,2.40916c-0.24643,0.3511 -0.8053,0.99825 -1.25,1.70834c-0.44016,0.70282 -0.80325,1.95929 -0.75934,2.91566c0.0239,0.5208 0.23849,1.62599 0.35733,2.21066l0.12683,0.60266l0.12784,0.61867" id="svg_3" stroke-width="2" stroke="#000" fill="none"/>
  <path t="9058,9261,9261,9261,9261,9261,9261,9261,9261,9262,9280,9281,9282,9282,9282,9282,9282,9282,9282,9296,9296,9296,9297,9297,9297,9297,9297,9297,9314,9314,9314,9315,9315,9315,9315,9348,9348,9348,9348,9348,9348,9349,9361,9361,9361,9361,9362,9362,9362,9398,9398,9399,9399,9399,9411" d="m217,267c10,7.33334 10.77354,7.91199 11.492,8.46399c0.68045,0.5228 1.327,1.03094 1.9455,1.53601c0.6095,0.49771 1.21182,1.00519 1.8105,1.53601c1.26227,1.11917 1.91844,1.74673 2.60266,2.40134c0.70554,0.67502 1.41718,1.37216 2.12851,2.0835c0.71133,0.71133 1.41003,1.42145 2.0835,2.12848c1.27902,1.34274 1.85387,1.98376 2.396,2.59335c0.51509,0.57919 0.99818,1.13794 1.45801,1.67398c0.44148,0.51465 0.86319,1.0145 1.278,1.49402c0.80122,0.92624 1.2028,1.36996 1.60533,1.80267c0.39752,0.42731 0.7924,0.84769 1.59999,1.63998c0.39632,0.38882 1.59692,1.48361 2.00034,1.8255c0.80261,0.68021 1.2196,1.00827 2.07167,1.6825c0.4416,0.34943 0.90375,0.70166 2.3705,1.88135c0.526,0.42307 1.05933,0.86148 1.5975,1.30798c0.54016,0.44815 1.07874,0.8924 2.10666,1.78134c0.9584,0.82883 1.38818,1.22433 2.16385,1.93567l0.64365,0.60733l0.50366,0.48734l0.42218,0.41766" id="svg_4" stroke-width="2" stroke="#000" fill="none"/>
  <path t="9980,10130,10130,10130,10130,10131,10131,10131,10131,10163,10163,10163,10163,10163,10163,10164,10164,10179,10180,10180,10180,10180,10181,10181,10182,10182,10215,10215,10215,10216,10216,10216,10216,10216,10216,10246,10246,10247,10247,10247,10247,10247,10248,10248,10253,10254,10254,10254,10255,10255,10255,10255,10255,10285,10287,10287,10287,10287,10288,10288,10288,10289,10298,10298,10298,10299,10299,10299,10299,10300,10300,10313,10314,10314,10314,10314,10315,10315,10315,10315,10330,10330,10331,10331,10331,10331,10332,10332,10332,10365,10365,10365,10366,10366,10366,10367,10367,10368,10374,10375,10376,10376,10377,10377,10377,10378,10378" d="m228,274c10,-8 10.76811,-8.5752 11.48801,-9.08932c0.66634,-0.47589 1.2946,-0.90738 1.88699,-1.30652c1.09546,-0.7381 1.6245,-1.07065 2.625,-1.77081c1.01707,-0.71176 1.53093,-1.10477 2.07466,-1.50134c0.57057,-0.41614 1.175,-0.854 1.8255,-1.30801c0.6947,-0.48489 2.26402,-1.52792 3.14967,-2.08832c0.93954,-0.59451 1.9319,-1.20335 2.9595,-1.83301c1.05273,-0.64505 2.12274,-1.29639 3.19348,-1.959c1.06659,-0.66005 3.13376,-1.97208 4.11118,-2.62199c0.94785,-0.63025 1.85895,-1.25769 2.742,-1.875c0.86224,-0.60275 1.70096,-1.2005 2.526,-1.785c0.81232,-0.57549 2.41629,-1.69751 3.21783,-2.24033c0.79715,-0.53984 1.59583,-1.06844 2.3895,-1.59601c0.78998,-0.5251 1.57672,-1.04765 2.35352,-1.578c0.77386,-0.52835 2.29449,-1.60866 3.03632,-2.16949c0.7449,-0.56317 1.48502,-1.1489 2.22751,-1.7565c0.75928,-0.62132 1.52896,-1.27335 2.3175,-1.9545c0.81821,-0.70676 2.54337,-2.23251 3.46149,-3.05251c0.95392,-0.85197 1.93439,-1.73355 2.93701,-2.63699c1.01938,-0.91855 2.04794,-1.84807 3.08099,-2.78101c1.03094,-0.93106 3.06268,-2.76334 4.05267,-3.65283c0.96735,-0.86916 1.91162,-1.71535 2.82898,-2.53949c0.88995,-0.79951 1.75034,-1.57359 2.57703,-2.3235c0.79459,-0.72079 2.27197,-2.07947 2.952,-2.71584c0.64792,-0.60634 1.26416,-1.19063 1.86298,-1.746c0.57925,-0.53725 1.14758,-1.05577 1.71902,-1.548c0.56467,-0.4864 1.73206,-1.41086 2.34717,-1.84967c0.62619,-0.44672 1.2822,-0.8806 1.96048,-1.31699c0.698,-0.44907 1.4256,-0.90096 2.17651,-1.371c0.77841,-0.48727 2.42148,-1.52995 3.28333,-2.097c0.88892,-0.58485 1.79074,-1.19241 2.70151,-1.81201c0.91489,-0.62241 1.82291,-1.24762 2.71948,-1.866c0.87808,-0.60564 2.54764,-1.75931 3.32901,-2.29317c0.74265,-0.5074 1.45123,-0.98703 2.1315,-1.4355c0.64883,-0.42773 1.276,-0.82533 1.87952,-1.20149l0.58447,-0.35316" id="svg_5" stroke-width="2" stroke="#000" fill="none"/>
  <path t="10815,10978,10978,10978,10978,10978,10978,10978,10978,10979,10995,10995,10995,10995,10995,10995,10995,10996,10996,11023,11023,11023,11023,11024,11029,11029,11029,11029,11040,11053,11054,11054,11055,11055,11055,11055,11055,11067,11067,11067,11067,11068,11068,11068,11068,11068,11089,11090,11090,11090,11090,11095,11095,11096,11096,11102,11102,11102,11103,11103,11103,11103,11104,11104,11116,11116,11116,11117,11117,11117,11117,11118,11118,11147,11148,11148,11148,11148,11149,11149,11149,11149,11161,11162,11162,11162,11163,11163,11163,11163,11164,11178,11178,11178,11179,11179,11179,11179,11180,11180,11195,11195,11196,11196,11196,11196,11197,11197,11197,11236,11237,11239,11239,11239,11240,11240,11240,11241" d="m242,281c6.66667,-7.5 7.25471,-8.13864 7.83467,-8.74667c0.56615,-0.59357 1.13231,-1.17041 1.707,-1.73248c0.57732,-0.56464 1.17244,-1.12781 1.797,-1.6875c1.31644,-1.17972 2.04431,-1.77924 2.8,-2.40134c0.77826,-0.64069 1.58206,-1.2851 2.40298,-1.93201c0.82709,-0.65176 1.65991,-1.29742 2.49301,-1.93201c1.6279,-1.24002 2.42133,-1.82635 3.19467,-2.39734c0.75534,-0.55768 1.49799,-1.09958 2.229,-1.629c0.7197,-0.52121 1.43231,-1.03314 2.13898,-1.539c1.40201,-1.00362 2.10333,-1.50168 2.80136,-2.00398c0.69763,-0.50203 1.39273,-1.00653 2.08047,-1.5195c0.68695,-0.51237 1.36914,-1.02943 2.03552,-1.5645c1.32974,-1.0677 1.96768,-1.63329 2.60666,-2.20401c0.64703,-0.57791 1.29636,-1.17825 1.96201,-1.79399c0.6864,-0.63493 1.39453,-1.29648 2.142,-1.974c1.60065,-1.45084 2.47919,-2.2099 3.39865,-2.996c0.95013,-0.81235 1.93286,-1.63551 2.93851,-2.4675c1.017,-0.84138 2.04382,-1.6806 3.07349,-2.51251c2.02707,-1.63779 3.02066,-2.42368 3.99069,-3.196c0.94995,-0.75635 1.88147,-1.49678 2.78998,-2.22899c0.89151,-0.71851 1.76505,-1.42665 2.61002,-2.13901c1.6499,-1.39098 2.43399,-2.09863 3.20267,-2.80266c0.75998,-0.69604 1.50107,-1.39749 2.229,-2.10001c0.72275,-0.69751 1.4339,-1.39874 2.13898,-2.10001c1.40515,-1.39751 2.10205,-2.10181 2.80936,-2.80266c0.71436,-0.70782 1.44324,-1.42224 2.19748,-2.13901c0.77237,-0.73401 1.57437,-1.48087 2.42252,-2.22899c1.79141,-1.58014 2.77704,-2.37567 3.79333,-3.19734c1.04031,-0.84108 2.10666,-1.68266 3.17999,-2.532c1.07333,-0.84933 2.14178,-1.68832 3.17999,-2.532c1.99661,-1.62251 2.91562,-2.42061 3.79199,-3.192c0.84082,-0.74011 1.6366,-1.46219 2.40302,-2.151c0.73492,-0.66049 1.43661,-1.29759 2.133,-1.881c1.30923,-1.09685 1.96497,-1.56567 2.604,-2.004c0.61688,-0.42314 1.22937,-0.80878 1.8255,-1.17751c0.57858,-0.35788 1.14828,-0.69437 1.69049,-1.0425c1.04776,-0.67271 1.5343,-1.03568 2.00534,-1.408c0.4707,-0.37207 0.92667,-0.76933 1.38751,-1.1745l0.46582,-0.42017l0.47583,-0.43617l0.49084,-0.45316" id="svg_6" stroke-width="2" stroke="#000" fill="none"/>
  <path t="11569,11727,11727,11727,11727,11727,11727,11728,11728,11728,11745,11745,11745,11745,11745,11746,11746,11746,11746,11761,11761,11761,11761,11762,11762,11762,11762,11762,11801,11801,11801,11801,11802,11802,11802,11802,11802,11812,11812,11813,11813,11813,11813,11814,11814,11815,11828,11829,11829,11829,11829,11829,11830,11830,11830,11845,11845,11846,11846,11846,11846,11847,11847,11847,11878,11879,11879,11879,11879,11880,11880,11880,11880,11895,11895,11896,11897,11897,11897,11897,11897,11898" d="m242,293c10.16667,-12.33334 11.2123,-13.4234 12.284,-14.45999c1.05981,-1.02509 2.13757,-2.01083 3.216,-2.97751c1.07098,-0.95999 2.15015,-1.89847 3.216,-2.8425c2.12299,-1.88031 3.16614,-2.83725 4.19733,-3.80402c1.02884,-0.96457 2.04245,-1.93881 3.04501,-2.91599c0.99744,-0.97217 1.98123,-1.94608 2.95499,-2.91599c1.92249,-1.91489 2.86447,-2.8627 3.80002,-3.79602c0.9245,-0.9223 1.83871,-1.83197 2.745,-2.72549c0.89371,-0.88113 1.77667,-1.74712 2.655,-2.5905c1.71356,-1.64542 2.56436,-2.4328 3.41333,-3.21201c0.85437,-0.78416 1.73193,-1.57489 2.63998,-2.38499c0.94525,-0.84329 1.94287,-1.72383 3,-2.655c2.33237,-2.05446 3.62592,-3.18962 4.98666,-4.392c1.41266,-1.24825 2.85556,-2.52817 4.30502,-3.828c1.44388,-1.29485 2.86023,-2.5712 4.215,-3.828c2.50613,-2.32492 3.59677,-3.39401 4.59067,-4.392c0.92206,-0.92586 1.76608,-1.80891 2.54849,-2.655c0.7467,-0.80746 1.45428,-1.60162 2.14349,-2.38499c1.38126,-1.56992 2.08502,-2.38426 2.81467,-3.20667c0.74167,-0.83595 1.49741,-1.67697 2.271,-2.51251c0.77573,-0.83783 1.55786,-1.66776 2.36102,-2.4675c1.57886,-1.5721 2.39276,-2.29501 3.19998,-3.00267c0.80154,-0.70268 1.61786,-1.38632 2.439,-2.07149c0.82953,-0.69217 1.67776,-1.38834 2.52902,-2.1165c1.77338,-1.51692 2.67566,-2.34422 3.59732,-3.2c0.9411,-0.87381 1.88266,-1.77467 2.832,-2.6835l0.94934,-0.91383l0.94531,-0.91183l0.93735,-0.90283" id="svg_7" stroke-width="2" stroke="#000" fill="none"/>
  <path t="12343,12494,12495,12495,12495,12495,12495,12495,12495,12495,12539,12539,12539,12540,12540,12540,12540,12540,12540,12566,12567,12567,12567,12567,12567,12567,12567,12572,12592,12593,12593,12593,12593,12594,12594,12594,12594,12606,12607,12610,12611,12611,12611,12611,12611,12611,12620,12621,12621,12621,12622,12623,12623,12623,12623,12656,12657,12657,12657,12657,12660,12661,12661,12661,12666,12666,12667,12667,12667,12667,12668,12668,12668,12695,12695,12696,12696,12696,12696,12697,12697,12697,12711,12714,12714,12714,12715,12715,12715,12715,12716,12749,12749,12751,12751,12751,12751,12752,12752,12752,12770,12770,12771,12771,12778,12778,12779,12779,12780,12785,12786,12786,12786,12787,12787,12787,12787,12788" d="m254,297c11,-13.66666 11.86887,-14.72928 12.68668,-15.71466c0.76401,-0.92053 1.48434,-1.77798 2.16748,-2.577c0.64368,-0.75287 1.25803,-1.46124 1.85251,-2.12701c1.11984,-1.25412 1.67212,-1.84015 2.21466,-2.42133c0.54346,-0.58215 1.09802,-1.17148 1.66202,-1.785c0.5881,-0.63974 1.20398,-1.31812 1.84198,-2.05499c1.42145,-1.64182 2.18436,-2.5881 2.99335,-3.59201c0.84344,-1.04666 1.69885,-2.12946 2.56049,-3.228c0.85971,-1.09613 1.70047,-2.17859 2.5155,-3.228c1.50555,-1.93848 2.17514,-2.80167 2.79733,-3.59201c0.57697,-0.73289 1.12106,-1.41573 1.64551,-2.05499c0.50369,-0.61397 1.00195,-1.20775 1.5105,-1.785c1.04175,-1.18245 1.61441,-1.78452 2.20532,-2.40933c0.60736,-0.64223 1.23331,-1.29204 1.86752,-1.95149c0.63913,-0.66455 1.2811,-1.32838 1.91248,-1.99651c1.2388,-1.31087 1.82678,-1.96028 2.40402,-2.60533c0.57742,-0.64528 1.15518,-1.30489 1.746,-1.98151c0.61185,-0.7007 1.24896,-1.43582 1.92599,-2.2065c1.48694,-1.69261 2.31723,-2.61845 3.19467,-3.592c0.91049,-1.01019 1.84674,-2.03981 2.79599,-3.07651c0.94675,-1.03397 1.88193,-2.04961 2.79599,-3.03149c1.70013,-1.82628 2.47559,-2.64088 3.20135,-3.40401c0.69061,-0.72618 1.36249,-1.42821 2.0235,-2.127c0.66833,-0.70654 1.35602,-1.43793 2.06848,-2.217c1.5856,-1.73381 2.46112,-2.73358 3.40533,-3.80133c0.99683,-1.12724 2.03284,-2.30284 3.1095,-3.5025c1.09528,-1.2204 2.20166,-2.44568 3.3345,-3.6375c2.20612,-2.321 3.31036,-3.37877 4.38669,-4.38667c1.03964,-0.97356 2.06732,-1.89044 3.0705,-2.7675c0.97162,-0.8495 1.92596,-1.65898 2.84549,-2.4525c1.76312,-1.52151 2.59729,-2.26772 3.39999,-3.00533c0.78156,-0.71817 1.53165,-1.42825 2.25452,-2.1255c0.70242,-0.67751 1.37753,-1.34242 2.02948,-1.99049c1.24368,-1.23631 1.83063,-1.82973 2.40402,-2.39867c0.55533,-0.55103 1.09601,-1.08279 1.629,-1.59001c0.51776,-0.49271 1.02615,-0.96742 1.539,-1.40999c0.9903,-0.85455 1.49957,-1.23505 2.004,-1.60535c0.49997,-0.36702 1.00934,-0.71733 1.5195,-1.06799l0.51517,-0.35066l0.52115,-0.35468l0.52817,-0.36266" id="svg_8" stroke-width="2" stroke="#000" fill="none"/>
  <path t="13242,13360,13361,13361,13361,13361,13361,13361,13361,13362,13377,13378,13378,13378,13378,13378,13378,13378,13378,13395,13395,13395,13395,13395,13396,13396,13396,13396,13430,13431,13431,13431,13431,13431,13431,13431,13432,13445,13446,13446,13446,13447,13447,13447,13447,13447,13461,13462,13462,13462,13462,13462,13462,13463,13463,13478,13478,13478,13479,13479,13479,13479,13480,13480,13512,13512,13513,13513,13513,13513,13513,13514,13514,13529,13530,13531,13531,13531,13531,13532,13532,13532,13571,13572,13576,13581,13582,13582,13582,13583,13583,13588,13588,13589,13589,13590,13590,13590,13594,13594,13607,13608,13608,13609,13610,13610,13611,13611,13611,13616,13617,13618,13618,13618,13619,13619,13620,13620,13645,13646,13646,13646,13647,13647,13647,13648,13648,13654,13654,13655,13655,13656,13656,13657,13657,13657,13679,13680,13681,13681,13682,13682,13683,13684,13685,13698,13699,13699,13699,13700,13700,13701,13701,13701,13711,13712,13713,13713,13714,13714,13715,13715,13716,13746,13747,13747,13748,13748,13748,13749,13749,13749,13761,13762,13763,13763,13764,13764,13765,13766,13766,13780,13781,13782,13782,13782,13783,13784,13785,13785,13796,13796,13797,13797,13798,13798,13799,13799,13800,13811,13812,13812,13812,13813,13814,13814,13815,13815" d="m248,268c8.66666,-4.83334 9.45822,-5.27802 10.23468,-5.71866c0.76953,-0.43671 1.5369,-0.87579 2.30698,-1.323c0.78192,-0.4541 1.57971,-0.92252 2.397,-1.41302c1.73163,-1.03928 2.64801,-1.608 3.60001,-2.19998c0.98203,-0.61066 1.98483,-1.24139 3.00299,-1.88701c1.02985,-0.65303 2.06308,-1.313 3.09302,-1.97699c2.03412,-1.31137 3.02255,-1.95905 3.99332,-2.59467c0.95358,-0.62439 1.88931,-1.24005 2.80951,-1.845c0.90515,-0.59505 1.7955,-1.18127 2.6745,-1.755c1.71973,-1.12248 2.56848,-1.66553 3.41333,-2.21201c0.85416,-0.55251 1.72659,-1.1201 2.62051,-1.72049c0.93423,-0.62746 1.91306,-1.29849 2.93549,-2.03551c2.26566,-1.63322 3.49295,-2.5842 4.78668,-3.592c1.34412,-1.04703 2.70688,-2.13481 4.06949,-3.2475c1.35605,-1.10735 2.67847,-2.20477 3.93451,-3.29251c2.31097,-2.0013 3.2988,-2.929 4.19199,-3.79066c0.82266,-0.79364 1.5658,-1.5504 2.2485,-2.271c0.64645,-0.68233 1.25177,-1.35117 1.84351,-2.00101c1.17621,-1.29169 1.784,-1.94836 2.41599,-2.60799c0.64362,-0.67177 1.30701,-1.34505 1.99051,-2.01601c0.69113,-0.67844 1.39719,-1.35439 2.12549,-2.01601c1.46579,-1.33162 2.23114,-1.96603 2.99869,-2.60266c0.77246,-0.64072 1.56042,-1.27678 2.35498,-1.923c0.80548,-0.65511 1.6254,-1.31892 2.44501,-2.013c1.69122,-1.43217 2.53873,-2.20525 3.39734,-3c0.8728,-0.80788 1.7438,-1.64009 2.616,-2.487c0.87717,-0.85175 1.7486,-1.71341 2.616,-2.577c1.71979,-1.7122 2.56268,-2.55916 3.396,-3.39467c0.82233,-0.82449 1.63199,-1.6387 2.42551,-2.44499c0.78116,-0.79372 1.54715,-1.57666 2.2905,-2.35501c1.44547,-1.51352 2.12979,-2.26364 2.80002,-2.99599c0.65405,-0.71466 1.28708,-1.41405 1.90948,-2.0865c0.60303,-0.6515 1.18719,-1.28009 1.77451,-1.86151c1.10443,-1.09334 1.66202,-1.56473 2.21201,-2.01067c0.5448,-0.44173 1.11304,-0.86485 1.70099,-1.29449c0.61465,-0.44914 1.27396,-0.91516 1.97101,-1.4295c1.57819,-1.16452 2.45541,-1.85469 3.392,-2.59599c0.98285,-0.77791 1.98932,-1.58934 3.01199,-2.412c1.02267,-0.82266 2.02756,-1.63609 3.01199,-2.412c1.81445,-1.43013 2.63528,-2.04102 3.39069,-2.59467c0.6951,-0.50946 1.34662,-0.97153 1.95148,-1.41c0.57242,-0.41495 1.12262,-0.81293 1.63651,-1.23c1.02628,-0.8329 1.51425,-1.31253 2.00934,-1.80667c0.50507,-0.50412 1.00125,-1.03217 1.5,-1.56749c0.50125,-0.53801 0.99557,-1.08252 1.5,-1.6125c0.99136,-1.04163 1.49689,-1.52785 2.00266,-2c0.50293,-0.46951 1.01773,-0.92773 1.539,-1.3875c0.52939,-0.46692 1.07513,-0.93889 1.629,-1.43251c1.16791,-1.04085 1.77383,-1.60907 2.39868,-2.2c0.64221,-0.60736 1.29205,-1.23328 1.95151,-1.86749c0.66455,-0.63911 1.32837,-1.28111 1.99649,-1.91251c1.31088,-1.2388 1.95944,-1.82574 2.59732,-2.39734c0.6265,-0.56137 1.24921,-1.10817 1.8645,-1.6485c0.61002,-0.53568 1.21875,-1.06628 1.81952,-1.6035c1.20618,-1.07858 1.80185,-1.63777 2.40134,-2.19865c0.60049,-0.5618 1.19748,-1.1254 1.79999,-1.677c0.59753,-0.54706 1.19119,-1.08517 1.79999,-1.58701c1.18326,-0.97537 1.79553,-1.39783 2.40268,-1.80267c0.60162,-0.40115 1.21735,-0.77818 1.83899,-1.15199c0.629,-0.37823 1.27585,-0.75275 1.92902,-1.15199c1.36942,-0.83705 2.07544,-1.30681 2.79465,-1.80267c0.73492,-0.5067 1.46823,-1.03706 2.19302,-1.58701c0.72324,-0.54877 1.4303,-1.10474 2.103,-1.677c1.28821,-1.0959 1.85809,-1.65384 2.396,-2.19333c0.51492,-0.51646 0.99127,-1.02773 1.43851,-1.5255c0.42862,-0.47704 0.82861,-0.94397 1.2135,-1.3905c0.72333,-0.83923 1.06683,-1.22982 1.39999,-1.596c0.31396,-0.34508 0.612,-0.66133 0.88651,-0.951l0.24948,-0.25967l0.2215,-0.22767l0.19052,-0.19366" id="svg_9" stroke-width="2" stroke="#000" fill="none"/>
  <path t="14095,14196,14197,14197,14197,14197,14197,14197,14198,14198,14220,14220,14220,14220,14221,14221,14221,14221,14221,14229,14229,14229,14229,14229,14229,14229,14230,14230,14263,14263,14263,14263,14263,14264,14264,14264,14264,14280,14280,14282,14282,14282,14282,14282,14283,14283,14295,14295,14295,14296,14296,14296,14296,14296,14296,14314,14315,14315,14315,14315,14315,14315,14316,14316,14361,14361,14361,14361,14362,14362,14362,14362,14363,14368,14369,14369,14369,14370,14370,14370,14370,14371" d="m331,198c6.83334,-6.16667 7.70273,-6.82729 8.62268,-7.48399c0.94528,-0.6748 1.92377,-1.34366 2.91898,-2.01601c1.00211,-0.677 2.01093,-1.34497 3.009,-2.01601c1.95245,-1.3127 2.88708,-1.95992 3.79602,-2.59999c0.8927,-0.62865 1.76752,-1.25748 2.63248,-1.884c0.86169,-0.62416 1.72104,-1.25356 2.58752,-1.884c1.76535,-1.28447 2.67508,-1.9391 3.60397,-2.59999c0.94238,-0.67047 1.89972,-1.34367 2.871,-2.01601c0.97806,-0.67702 1.96426,-1.35196 2.961,-2.01601c1.99121,-1.32658 2.99731,-1.96443 4.00269,-2.60533c1.01196,-0.6451 2.03894,-1.29349 3.078,-1.96199c1.06232,-0.68346 2.15118,-1.38933 3.258,-2.142c2.33783,-1.58977 3.5481,-2.47647 4.79599,-3.39867c1.28192,-0.94734 2.57736,-1.93118 3.88351,-2.93851c1.31653,-1.01532 2.62796,-2.04279 3.9285,-3.0735c2.55515,-2.02502 3.78595,-3.02034 4.992,-3.98933c1.17828,-0.94669 2.32806,-1.87222 3.4545,-2.77049c1.09894,-0.87636 2.17203,-1.72923 3.22949,-2.5455c2.03311,-1.56938 3.02823,-2.29787 4,-3c0.94403,-0.6821 1.86884,-1.33199 2.77051,-1.9545c0.87305,-0.60275 1.72272,-1.17776 2.5455,-1.72951c1.55685,-1.04401 2.29449,-1.53157 3.004,-2.00533c0.68781,-0.45926 1.35773,-0.90741 2.013,-1.34851c0.64606,-0.43491 1.28625,-0.8676 1.923,-1.3035c1.28723,-0.8812 1.94043,-1.33716 2.59866,-1.8c0.6601,-0.46416 1.31332,-0.93199 1.95749,-1.3965l0.62918,-0.45949l0.60916,-0.45151l0.58417,-0.44051" id="svg_10" stroke-width="2" stroke="#000" fill="none"/>
 </g>
 <g display="none">
  <title>muse_image</title>
  <image xlink:href="http://farm2.static.flickr.com/1415/787756258_f8a03b81da.jpg" id="muse" height="480" width="640" y="0" x="0"/>
 </g>
 <g display="none">
  <title>bbox</title>
  <rect stroke="#f00" fill="none" stroke-width="3" height="448" width="613.12" y="19.2" x="11.52" id="bbox"/>
 </g>
</svg>
