<svg width="640" height="480" xmlns="http://www.w3.org/2000/svg" xmlns:svg="http://www.w3.org/2000/svg" xmlns:xlink="http://www.w3.org/1999/xlink">
 <!-- Sketchy ANNOTATION
  ImageNet ID: n02676566_7770
  URL: http://farm4.static.flickr.com/3351/3270937566_4df4ea6bac.jpg
  Image Width: 500
  Image Height: 332
  BBox X: 4
  BBox Y: 130
  BBox Width: 420
  BBox Height: 164
  Exposure: 2000ms
  Synset Label: guitar
  Synset ID: n03467517
  Worker Tag: Guitar
  Sanity Check: 
   Saved
  Comment: 
   {}
  Worker ID: AIH9VLD92GHFH
  Assignment ID: 3KOPY89HM828VJU7XRVO91PPA6S3JJ
  HIT ID: 3D06DR5225JWTS1JJ1IONH0RHWXAM3
  Work Time: 53s
  Worker Score: 0.6940
 END ANNOTATION -->
 <g display="inline">
  <title>Layer 1</title>
  <path t="0,381,384,384,399,431,432,448,454,455,464,481,481,498,498,514,514,514,531,531,548,548,564,564,581,582,585,586,600,601,614,615,615,632,632,649,649,649,649,664,681,681,681,698,698,713,713,730,730,747,747,763,763,781,781,798,798,813,813,813,833,833,848,848,864,864,864,880,881,881,898,898,898,914,914,914,931,931,948,948,948,964,964,964,981,981,998,998,1014,1014,1030,1031,1092,1095,1095,1098,1098,1115,1116,1116,1116,1116,1116,1131,1131,1131,1132,1154,1154,1155,1164,1165,1165,1166,1184,1185,1198,1198,1199,1215,1215,1231,1232,1232,1248,1248,1249,1264,1268,1280,1298,1298,1314,1331,1331,1331,1348,1348,1364,1380,1381,1381,1398,1398,1398,1414,1415,1431,1431,1431,1448,1448,1449,1465,1465,1480,1481,1481,1498,1498,1514,1514,1515,1531,1531,1547,1548,1564,1564,1565,1581,1582,1598,1598,1630,1631,1649,1649,1665,1680,1681,1698,1698,1699,1714,1730,1731,1731,1747,1748,1764,1764,1781,1781,1781,1798,1798,1814,1814,1815,1830,1831,1831,1847,1848,1864,1864,1865,1865,1880,1881,1900,1900,1900,1914,1914,1931,1947,1964,1964,1980,1981,1981,1997,1998,2014,2030,2031,2031,2047,2048,2048,2064,2064,2080,2081,2097,2098,2098,2114,2114,2131,2131,2147,2148,2164,2164,2165,2180,2197,2198,2214,2214,2230,2231,2248,2264,2264,2297,2314,2315,2332,2348,2348,2364,2364,2381,2398,2398,2414,2414,2430,2447,2448,2448,2464,2464,2480,2481,2497,2498,2499,2514,2514,2530,2531,2548,2548,2549,2563,2564,2580,2581,2596,2597,2613,2615,2630,2631,2649,2665,2666,2680,2697,2698,2714,2714,2715,2730,2731,2731,2747,2748,2764,2764,2765,2765,2780,2781,2782,2797,2798,2799,2813,2814,2815,2830,2831,2831,2848,2848,2849,2863,2864,2865,2880,2881,2897,2898,2913,2914,2915,2931,2947,2948,2964,2964,2980,2981,2997,2998,2998,3013,3014,3015,3030,3031,3032,3047,3048,3063,3064,3080,3081,3081,3098,3098,3099,3113,3114,3115,3115,3130,3131,3131,3147,3148,3148,3149,3163,3164,3165,3180,3181,3181,3197,3198,3198,3199,3199,3214,3215,3215,3230,3231,3232,3247,3248,3249,3249,3264,3265,3265,3266,3282,3282,3298,3298,3299,3314,3315,3315,3331,3331,3332,3347,3348,3349,3363,3364,3365,3365,3380,3381,3382,3382,3397,3398,3399,3413,3414,3415,3430,3431,3432,3447,3448,3449,3463,3464,3465,3480,3481,3497,3498,3513,3514,3515,3563,3563,3566,3566,3569,3569,3569,3583,3583,3583,3584,3598,3598,3598,3599,3613,3614,3614,3630,3630,3631,3649,3649,3650,3650,3671,3671,3684,3685,3685,3699,3699,3700,3713,3713,3714,3714,3730,3731,3747,3748,3763,3764,3765,3765,3780,3781,3797,3798,3799,3813,3814,3815,3830,3831,3847,3848,3863,3864,3880,3881,3882,3897,3898,3913,3914,3915,3930,3931,3948,3949,3963,3964,3965,3980,3981,3997,3998,3999,4013,4014,4030,4031,4047,4048,4049,4063,4064,4065,4080,4081,4081,4082,4097,4098,4099,4113,4115,4115,4130,4147,4148,4149,4149,4163,4163,4163,4180,4181,4197,4198,4199,4213,4214,4230,4232,4247,4248,4248,4263,4264,4280,4282,4282,4297,4298,4299,4313,4314,4315,4330,4331,4332,4347,4348,4349,4363,4363,4364,4380,4381,4382,4397,4398,4413,4414,4430,4431,4447,4448,4463,4465,4480,4481,4497,4498,4513,4530,4531,4547,4548,4549,4564,4564,4565,4579,4580,4597,4598,4615,4616,4616,4636,4637,4637,4653,4654,4654,4655,4670,4671,4671,4672,4686,4687,4702,4703,4704,4717,4718,4730,4731,4747,4748,4763,4764,4780,4781,4797,4814,4815,4815,4866,4867,4871,4871,4872,4875,4875,4876,4889,4890,4890,4905,4906,4906,4907,4921,4921,4922,4936,4937,4937,4950,4951,4968,4969,4983,4983,4984,4997,4997,5013,5014,5015,5029,5029,5047,5048,5062,5080,5081,5097,5098,5113,5114,5115,5115,5129,5130,5130,5147,5148,5149,5162,5163,5163,5180,5182,5182,5182,5196,5196,5213,5214,5215,5229,5229,5247,5248,5249,5263,5263,5264,5279,5280,5297,5298,5299,5313,5313,5314,5329,5329,5330,5347,5348,5349,5363,5363,5364,5379,5380,5381,5396,5397,5397,5413,5413,5414,5429,5430,5430,5446,5446,5447,5462,5463,5463,5480,5481,5481,5482,5496,5496,5497,5497,5513,5513,5529,5547,5548,5549,5563,5564,5580,5581,5599,5600,5600,5601,5621,5622,5623,5643,5644,5644,5661,5661,5662,5663,5679,5679,5680,5681,5696,5696,5697,5712,5713,5714,5728,5728,5729,5743,5744,5744,5758,5759,5759,5773,5774,5788,5788,5804,5804,5805,5821,5821,5837,5838,5853,5854,5869,5870,5871,5887,5888,5913,5917,5918,5918,5935,5936,5952,5952,5953,5969,5970,5985,5986,5986,5987,6002,6002,6003,6056,6060,6061,6061,6065,6065,6068,6069,6083,6084,6084,6113,6114,6129,6130,6130,6147,6147,6169,6170,6186,6187,6204,6204,6205,6222,6223,6238,6238,6239,6254,6269,6284,6285,6300,6301,6315,6330,6331,6331,6346,6363,6364,6365,6380,6381,6398,6415,6415,6432,6433,6433,6451,6482,6483,6483,6487,6487,6504,6520,6521,6537,6538,6554,6555,6571,6587,6588,6603,6629,6629,6630,6649,6667,6668,6697,6712,6713,6732,6749,6749,6767,6796,6830,6831,6832,6863,6864,6896,6929,6946,6963,6963,6980,6998,6999,7016,7016,7017,7035,7035,7052,7053,7054,7054,7070,7071,7071,7072,7088,7088,7089,7105,7106,7106,7107,7122,7123,7124,7124,7125,7175,7176,7177,7181,7181,7182,7197,7198,7198,7199,7199,7215,7216,7216,7217,7233,7233,7234,7234,7250,7251,7251,7252,7252,7269,7269,7270,7271,7271,7292,7293,7293,7294,7294,7310,7311,7311,7312,7327,7328,7329,7329,7330,7346,7347,7347,7348,7363,7364,7365,7365,7381,7382,7382,7383,7399,7400,7400,7401,7402,7402,7419,7419,7420,7420,7437,7437,7438,7439,7439,7455,7456,7457,7457,7458,7459,7475,7475,7476,7492,7493,7494,7494,7498,7499,7499,7500,7500,7504,7505,7505,7506,7522,7523,7523,7524,7525,7541,7542,7543,7544,7544,7559,7560,7561,7562,7562,7578,7578,7579,7579,7580,7581,7598,7598,7599,7599,7600,7616,7617,7617,7618,7619,7640,7641,7642,7643,7663,7663,7664,7668,7669,7669,7670,7690,7691,7692,7692,7693,7699,7700,7701,7701,7718,7719,7720,7721,7721,7726,7727,7728,7729,7744,7745,7746,7747,7748,7765,7766,7766,7767,7784,7785,7786,7787,7805,7806,7806,7807,7862,7863,7864,7865,7865,7882,7882,7883,7884,7884,7885,7886,7902,7903,7904,7904,7905,7906,7906,7907,7908,7926,7926,7927,7928,7928,7929,7930,7930,7931,7947,7948,7949,7950,7953,7954,7955,7959,7960,7960,7982,7983,7983,8000,8001,8002,8002,8019,8020,8021,8021,8022,8038,8039,8040,8041,8041,8042,8059,8059,8060,8061,8062,8080,8081,8081,8082,8083,8087,8087,8088,8093,8093,8094,8111,8112,8128,8129,8130,8146,8147,8164,8165" d="m213,314c4.83516,-7.685 5.76501,-8.55591 6.42534,-8.18668c0.88326,0.4939 0.8463,1.67831 1.18533,2.39734c0.47064,0.99814 0.672,1.68436 1.27466,2.21866c0.79686,0.70648 1.90825,0.86313 2.073,1.59152c0.21153,0.93527 0.0619,1.79855 0.32701,2.74716c0.20697,0.74057 0.49545,1.47482 1.01016,2.42667c0.33415,0.61798 0.64484,1.57153 0.68367,2.30533c0.06166,1.16522 -0.00769,2.02798 0.35416,2.83334c0.31729,0.70621 0.85715,1.44882 1.18401,1.98398c0.60559,0.99155 1.03278,1.63266 1.31599,2.68268c0.21156,0.78433 0.1741,1.62439 0.52834,2.60449c0.2355,0.65158 0.80295,1.56345 1.2865,2.34369c0.32961,0.53186 0.87334,1.24518 1.2905,2.39047c0.29393,0.80698 0.53909,1.47943 0.77734,2.26266c0.29832,0.98074 0.23352,1.82861 0.57066,2.79736c0.278,0.79877 1.0303,1.58524 1.528,1.96533c0.84497,0.64529 1.17537,1.41537 1.5425,2.28867c0.30098,0.71594 0.78889,1.52045 1.40001,2.04282c0.67395,0.57608 1.48392,0.89783 2.24283,1.47116c0.81377,0.61481 1.31255,1.16217 1.83333,1.948c0.44342,0.66907 1.24405,1.16022 1.92667,1.52133c0.92862,0.49127 1.55272,1.22375 2.04533,1.71133c0.69,0.68295 1.459,1.03677 2.30367,1.34818c0.88348,0.32571 1.79117,0.58008 2.619,0.90451c0.95,0.37231 1.58435,0.87238 2.24001,1.11465c1.00224,0.37036 1.85623,0.22626 2.86533,0.61868c0.74861,0.29114 1.33055,0.88519 2.16667,1.5c0.58319,0.42883 1.38354,0.87308 2.39999,1.08264c0.79083,0.16306 1.80399,0.29376 2.38934,0.50934c1.05185,0.38736 1.84821,0.58273 2.41333,1.14267c0.67474,0.66852 1.33142,1.22665 2.048,1.37067c0.97238,0.1954 1.95026,0.44742 2.54401,0.672c1.18472,0.44809 1.63251,0.49432 2.62582,0.69385c0.54166,0.1088 1.6666,0.31812 2.22067,0.45267c1.53488,0.37271 2.34415,0.70523 2.9895,1.0575c0.56183,0.30667 1.52087,0.91656 2.32648,1.07101c0.8432,0.16165 2.04285,0.11432 2.64151,0.11432c0.88049,0 1.716,0 2.71735,0c0.90933,0 1.85065,0 2.63217,0c0.7905,0 1.90915,0 2.70248,0c0.89233,0 1.89099,0 2.45834,0c1.19064,0 2.06967,0 2.87665,0c1.04367,0 1.81168,0 2.77151,0c0.89551,0 1.59015,0 2.62817,0c0.948,0 1.86533,0 2.60931,0c1.03467,0 1.80267,0 2.67734,0c0.871,0 1.86966,0 2.43701,0c1.19064,0 2.06967,0 2.87665,0c1.04636,0 1.82004,0.02365 2.78369,-0.00266c0.75223,-0.02054 1.59689,-0.06256 2.54532,-0.56668c0.70938,-0.37708 1.25375,-0.99091 2.08533,-1.54532c0.77399,-0.51602 1.58746,-0.91226 2.39999,-1.27469c0.78873,-0.35184 1.61688,-0.45416 2.40002,-0.672c1.03116,-0.2868 1.59195,-0.80997 2.19998,-1.2905c0.98596,-0.77921 1.59549,-1.10147 2.43335,-1.64816c0.70181,-0.45792 1.50082,-0.82855 2.40665,-0.98532c0.69815,-0.12082 1.53052,-0.75626 1.86084,-1.36652c0.51495,-0.95135 1.11877,-1.24084 2.099,-1.74817c0.77795,-0.40265 1.61212,-0.93024 2.27933,-1.37915c0.69992,-0.47092 1.46048,-0.90814 2.0625,-1.52084c0.7254,-0.73825 1.46484,-0.86118 2.17169,-1.01468c1.04477,-0.22687 1.78021,-0.86621 2.5733,-0.94931c0.70935,-0.07431 1.90802,-0.03537 2.68134,-0.03601c0.80136,-0.00067 1.82828,0.03302 2.86536,-0.16666c0.72025,-0.13867 1.33997,-0.46747 2.36667,-0.71219c0.79034,-0.18839 1.81165,-0.43619 2.40448,-0.82648c0.64478,-0.4245 1.54745,-1.02295 2.34369,-1.18036c0.78082,-0.15436 1.90933,-0.11432 2.73849,-0.11432c1.07748,0 1.67581,0 2.67331,0c0.67334,0 1.86935,0 2.59836,0c1.04166,0 1.84164,0 2.64166,0c0.99548,0 1.74283,0 2.76401,0c0.94049,0 1.80264,0 2.65683,0c0.97916,0 1.77914,0 2.57916,0c0.99548,0 1.74283,0 2.78534,0c0.948,0 1.62448,0 2.39999,0c1.29315,0 1.97867,0 2.81332,0c1.00134,0 1.80231,-0.04187 2.80133,0.00266c0.80222,0.03577 1.80826,0.42813 2.39999,0.84802c0.60873,0.43195 1.59802,0.98889 2.40002,1.164c0.99747,0.21777 1.55948,0.49731 2.63333,0.81866c0.67328,0.20148 1.70996,0.1452 2.41733,0.17734c0.98315,0.04465 1.89328,0.42096 2.74933,0.82266c0.61163,0.28699 1.47424,0.74643 2.17465,1.31598c0.64984,0.52841 1.52975,0.74695 2.34619,0.87152c0.98703,0.1506 1.64209,0.58807 2.59381,0.89514c0.8757,0.28253 1.4538,0.73502 2.40619,1.08401c0.77982,0.28574 1.62576,0.66306 2.45764,0.87851c0.80246,0.20782 1.81262,0.18552 2.50552,0.68948c0.73004,0.53101 1.36169,1.07187 2.21149,1.48016c0.73727,0.35425 1.63464,0.80606 2.30984,0.89917c0.9856,0.13593 1.84134,0.29749 2.60931,0.62735c0.85971,0.36926 1.64615,0.37598 2.58536,0.86798c0.64273,0.3367 1.35287,1.10336 2.19998,1.38669c0.77182,0.25815 1.80002,0.17065 2.60001,0.17065c1,0 1.80908,-0.05624 2.60001,0.08533c1.01892,0.1824 1.7814,0.64487 2.79868,0.82935c0.75662,0.13721 1.71866,0.08533 2.57065,0.08533c0.79868,0 1.78,0 2.69733,0c0.91202,0 1.74402,0 2.65466,0c0.85333,0 1.79333,0 2.67868,0c0.81433,0 1.77066,0 2.54166,0c0.86102,0 1.758,0 2.63702,0c0.80698,0 1.85464,0 2.68381,0c0.90186,0 1.83484,0 2.53351,0c0.72266,0 2.11734,0 2.75732,0c0.88501,0 1.92535,0 2.84668,0c0.68399,0 1.68607,0.01944 2.52084,-0.02084c0.88184,-0.04254 1.78204,-0.18759 2.66849,-0.40448c0.85666,-0.20959 1.89209,-0.43689 2.58533,-0.56c0.91348,-0.1622 1.91733,-0.56766 2.44,-0.87601c0.79034,-0.46625 1.59894,-1.1795 2.2645,-1.59702c0.79745,-0.50024 1.82217,-0.4924 2.49933,-1.20566c0.49802,-0.52457 0.50729,-1.46445 1.3215,-2.16901c0.67261,-0.58206 1.43948,-0.8985 2.18402,-1.367c0.67551,-0.42508 1.63046,-1.00491 2.17734,-1.43597c0.87677,-0.69113 1.34686,-1.01263 2.08798,-1.53867c0.92093,-0.65366 1.56992,-1.23569 2.21866,-1.62402c0.76849,-0.45999 1.57547,-0.64554 2.26401,-1.08667c1.03067,-0.66031 1.2587,-1.35406 1.97067,-2.22931c0.42123,-0.51782 1.35001,-0.96448 2.048,-1.30667c0.75549,-0.37039 1.62946,-1.10602 2.09866,-1.82935c0.31708,-0.4888 0.9545,-1.45587 1.65601,-1.944c0.71628,-0.49841 1.33566,-0.67792 2.02533,-1.57599c0.54324,-0.70743 0.68259,-1.3558 1.29065,-2.52917c0.31363,-0.60519 0.85776,-1.46146 1.19467,-2.01483c0.60669,-0.99649 0.98215,-1.67679 1.28268,-2.36932c0.43015,-0.99121 0.71515,-1.86038 0.9585,-2.47766c0.39804,-1.00958 0.7251,-1.72314 1.06818,-2.46368c0.34753,-0.75015 0.7088,-1.48294 1.15314,-2.55301c0.40207,-0.96826 0.58945,-1.58337 1.02151,-2.655c0.29025,-0.71991 0.62137,-1.40039 1.16666,-2.33331c0.46902,-0.80243 0.84595,-1.35931 1.1235,-1.995c0.42944,-0.98355 0.60785,-2.08105 0.689,-2.79669c0.07642,-0.67386 0.26398,-1.76929 0.59552,-2.68167c0.32541,-0.89545 0.4035,-1.63156 0.42084,-2.46899c0.02466,-1.19058 0.00449,-1.7865 0.00449,-2.655c0,-1.06934 -0.0451,-1.78757 0.05716,-2.68866c0.11081,-0.97638 0.38797,-1.7785 0.59018,-2.65182c0.20633,-0.89105 0.3074,-1.79944 0.33182,-2.41635c0.03812,-0.96393 0.02084,-2.00034 0.02084,-2.72733c0,-1.09048 0,-1.7825 0,-2.98248c0,-0.7485 0,-1.45203 0,-2.45468c0,-0.83551 0,-1.716 0,-2.91467c0,-0.60001 0,-1.5 0,-2.69983c0,-0.59567 0,-1.46417 0,-2.53351c0,-0.93066 0,-1.56216 0,-2.56665c0,-0.80002 0,-1.80002 0,-2.60001c0,-1 0,-1.79999 0,-2.60001c0,-1 0,-1.79999 0,-2.80133c0,-0.83466 0,-2.02017 0,-2.55582c0,-0.85352 0,-2.04285 0,-2.94736c0,-0.61633 0.00302,-1.58081 -0.00015,-2.61667c-0.00223,-0.72699 0.02377,-1.46164 -0.08517,-2.50949c-0.09683,-0.93143 -0.34207,-1.71133 -0.61917,-2.41751c-0.38379,-0.97806 -0.68488,-1.7966 -1.05267,-2.65631c-0.3873,-0.90533 -0.70865,-1.504 -1.24283,-2.35384c-0.33603,-0.53461 -1.15729,-1.54318 -1.58932,-2.19234c-0.56961,-0.85583 -0.79407,-1.6232 -1.16785,-2.40117c-0.38208,-0.79526 -0.87958,-1.50905 -1.45349,-2.1375c-0.763,-0.83551 -1.38251,-1.41342 -1.78934,-1.78984c-0.5903,-0.54619 -1.59973,-1.25677 -2.164,-1.61017c-0.96072,-0.6017 -1.50113,-1.07884 -2.16934,-1.74399c-0.6713,-0.6682 -1.18164,-1.13553 -1.81332,-1.89867c-0.63763,-0.77034 -0.91403,-1.59332 -1.29633,-2.31067c-0.38934,-0.73058 -0.90607,-1.51105 -1.75684,-2.3145c-0.55338,-0.52261 -1.22321,-0.81516 -1.91483,-1.62683c-0.54355,-0.63789 -0.92017,-1.5587 -1.52133,-2.10535c-0.77374,-0.70357 -1.60455,-0.97395 -2.19736,-1.57733c-0.59399,-0.6046 -0.87061,-1.437 -1.12299,-2.43333c-0.20313,-0.80194 -0.68231,-1.62799 -1.33032,-2.18933c-0.4563,-0.39526 -1.45544,-0.96303 -2.03067,-1.57466c-0.70627,-0.75098 -0.90421,-1.55635 -1.53467,-2.12c-0.61755,-0.55209 -1.44067,-0.92348 -2.06134,-1.90134c-0.34113,-0.53745 -0.78796,-1.62549 -1.10751,-2.11467c-0.4837,-0.74051 -1.18353,-1.73265 -1.73181,-2.19099c-0.68445,-0.57219 -1.45184,-0.9214 -2.44751,-1.40884c-0.60684,-0.29709 -1.47812,-0.65332 -2.48517,-0.81749c-0.83093,-0.13547 -1.44742,-0.10406 -2.6145,-0.52551c-0.61398,-0.22171 -1.46341,-0.74379 -2.01483,-1.07449c-0.99994,-0.59969 -1.67667,-0.98111 -2.36932,-1.28133c-0.98709,-0.42781 -1.78778,-0.70554 -2.54666,-0.916c-1.1091,-0.30759 -2.108,-0.60924 -2.78369,-0.99518c-0.53159,-0.30363 -1.37244,-0.83986 -2.28531,-1.26849c-0.86505,-0.40619 -1.40817,-0.65565 -2.55768,-0.90016c-0.78351,-0.16666 -1.68655,-0.08995 -2.64267,-0.14233c-0.73373,-0.04019 -1.6633,-0.40791 -2.46799,-0.69518c-0.77695,-0.27736 -1.85043,-0.17465 -2.69867,-0.61732c-0.75024,-0.39154 -1.01889,-1.27815 -1.64233,-1.905c-0.5744,-0.57753 -1.70551,-0.70731 -2.51233,-0.787c-0.58148,-0.05745 -1.77899,-0.25203 -2.65784,-0.47467c-0.56479,-0.14308 -1.60428,-0.35086 -2.52084,-0.52083c-0.6882,-0.12761 -1.68326,-0.55121 -2.52084,-0.97917c-0.58221,-0.29749 -1.77429,-0.78029 -2.37466,-0.89017c-0.86304,-0.15796 -1.94373,-0.25523 -2.65182,-0.46249c-0.91376,-0.26746 -1.87143,-0.55237 -2.66733,-0.61134c-0.77402,-0.05736 -1.81735,-0.036 -2.59067,-0.036c-0.96268,0 -1.69467,0 -2.86133,0c-0.8125,0 -1.65466,0 -2.508,0c-0.94269,0 -1.7948,0.01344 -2.59335,-0.00133c-0.98178,-0.01816 -1.91327,-0.13254 -2.69034,-0.49867c-0.86392,-0.40707 -1.70831,-0.5 -2.5625,-0.5c-0.97916,0 -1.78983,0 -2.43631,0c-1.22552,0 -2.022,0 -2.7735,0c-0.96402,0 -1.73734,0 -2.77917,0c-0.77551,0 -1.82352,0 -2.53751,0c-0.90533,0 -1.87433,0 -2.69934,0c-0.91498,0 -1.91998,0 -2.63733,0c-0.74133,0 -1.49066,0 -2.94934,0c-0.67999,0 -1.625,0 -2.20499,0c-1.27634,0 -1.94083,0 -2.96167,0c-0.79999,0 -1.60001,0 -2.60001,0c-0.79999,0 -1.79999,0 -2.60001,0c-1,0 -1.80002,-0.00676 -2.79999,0c-0.7894,0.00534 -1.82889,0.17502 -2.58932,0.57466c-0.71558,0.37607 -1.74429,0.40973 -2.41602,0.42984c-0.99026,0.02965 -1.83676,0.2532 -2.64532,0.57016c-0.87762,0.34402 -1.62091,0.4035 -2.45834,0.42084c-1.19058,0.02464 -1.7865,0.0045 -2.655,0.0045c-1.06934,0 -2.02255,-0.04269 -2.68866,0.11433c-0.99582,0.23476 -1.78729,0.7502 -2.39401,1.035c-0.63333,0.2973 -2.03265,0.6958 -2.75732,0.78932c-0.69702,0.08995 -1.90933,0.18727 -2.53351,0.414c-0.85089,0.30908 -1.86688,0.60909 -2.61182,0.63667c-0.91675,0.03395 -1.7507,0.00302 -2.79333,0.01083c-0.70807,0.00531 -1.51123,-0.12808 -2.48801,0.2865c-0.79208,0.3362 -1.43369,1.21964 -1.99017,1.6925c-0.56039,0.47618 -1.58221,0.89627 -2.37915,1.069c-1.00287,0.21736 -1.75284,0.55939 -2.71466,0.86783c-0.87619,0.28098 -1.50635,0.71559 -1.98569,1.40533c-0.46198,0.66476 -1.20966,1.55357 -1.914,1.92149c-0.51218,0.26755 -1.39154,0.5464 -2.58432,0.95851c-0.59232,0.20465 -1.46976,0.50983 -2.23468,0.96533c-0.73672,0.43872 -1.27954,1.11923 -2.367,1.59033c-0.591,0.25603 -1.57034,0.2372 -2.44232,0.24316c-1.00803,0.0069 -1.70966,0.00446 -2.38934,0.08516c-1.20651,0.14326 -1.92816,0.49179 -3.13464,0.748c-0.77255,0.16406 -1.59207,0.09505 -2.5,0.33334c-0.70612,0.18533 -1.66199,0.70148 -2.34769,0.77617c-0.80356,0.08752 -1.98578,0.0466 -2.87665,0.06166c-0.5675,0.0096 -1.77972,0.15167 -2.45834,0.42084c-0.99017,0.39276 -1.65958,0.53679 -2.436,0.564c-1.04742,0.0367 -1.98932,0.01067 -2.66733,0.01067c-0.96884,0 -1.78333,0 -2.65182,0c-1.19534,0 -1.79102,0 -2.65952,0c-1.06934,0 -2.01065,0 -2.68866,0c-0.96884,0 -1.78333,0 -2.65182,0c-1.19534,0 -1.79102,0 -2.65952,0c-1.06934,0 -2.01379,0.02295 -2.68866,-0.05716c-0.9758,-0.11584 -1.7785,-0.38799 -2.65182,-0.59018c-0.89105,-0.2063 -1.79285,-0.28183 -2.65952,-0.37799c-1.07205,-0.11894 -1.78729,-0.32144 -2.46133,-0.58534c-1.20355,-0.47122 -1.74426,-0.67035 -2.58533,-1.06133c-0.60022,-0.27901 -1.51025,-0.84503 -2.36801,-1.57867c-0.56378,-0.48222 -1.0343,-0.99811 -1.85065,-1.77733c-0.64896,-0.61945 -1.53516,-0.94023 -2.30402,-1.30533c-0.69583,-0.33041 -1.43625,-0.82423 -2.33331,-1.5c-0.67728,-0.51019 -1.31256,-1.18918 -1.875,-1.6875c-0.76471,-0.67757 -1.4704,-1.12737 -1.95834,-1.5c-0.74246,-0.56703 -1.53201,-1.37917 -2,-1.97917c-0.46799,-0.60001 -1.26053,-1.41304 -1.772,-1.8c-0.82129,-0.62135 -1.73111,-1.19539 -2.32666,-1.60133c-0.59381,-0.40475 -1.21515,-0.78035 -2.23468,-1.76534c-0.50748,-0.49028 -0.91306,-1.06267 -1.56216,-1.8235c-0.58884,-0.69017 -1.43452,-1.31383 -1.94733,-1.81516c-0.69629,-0.68069 -0.97534,-1.4879 -1.467,-2.18933c-0.64969,-0.9269 -1.21675,-1.16704 -1.9395,-1.65601c-0.9471,-0.64075 -1.39479,-1.38518 -1.90134,-2.06267c-0.6237,-0.83418 -1.35205,-1.13155 -2.09866,-1.29066c-1.10405,-0.23531 -1.76259,-0.49649 -2.35085,-1.31734c-0.4651,-0.649 -1.04231,-1.54256 -1.55249,-1.92149c-0.66562,-0.4944 -1.64481,-1.01393 -2.146,-1.6425c-0.57297,-0.7186 -0.8726,-1.55402 -1.68668,-2.228c-0.49068,-0.40622 -1.51205,-0.73564 -2.31467,-0.86134c-0.79771,-0.12492 -1.78682,-0.40102 -2.54283,-0.67267c-0.89952,-0.32321 -1.99049,-0.35266 -2.66251,-0.35266c-0.74399,0 -1.85199,0 -2.64532,0c-0.89217,0 -1.87016,0 -2.66667,0c-0.99866,0 -1.68266,0 -2.84933,0c-0.7905,0 -1.644,0 -2.23466,0c-1.196,0 -2.05699,0 -2.828,0c-1.12,0 -2.10417,-0.01196 -2.776,0.0045c-0.74443,0.01825 -1.91019,0.12398 -2.57332,0.60617c-0.81212,0.59053 -1.18495,1.14014 -1.90533,1.87466c-0.52071,0.53093 -1.09616,1.07251 -1.75883,2.11917c-0.38531,0.60858 -0.77052,1.55724 -1.05267,2.34366c-0.28192,0.78581 -0.60085,1.70969 -0.68367,2.53101c-0.10083,1.00003 0.05705,1.79114 -0.58882,2.63817c-0.48276,0.63312 -1.24344,1.41435 -1.36,2.13333c-0.11949,0.73703 -0.01196,1.78822 -0.12917,2.55466c-0.14951,0.97768 -0.46652,1.6881 -0.65884,2.42667c-0.28317,1.08745 -0.284,2.07251 -0.284,2.93468c0,0.83333 0,1.81183 0,2.63199c0,0.87334 0,1.744 0,2.70134c0,0.73199 -0.10999,1.71625 0.16667,2.66667c0.20003,0.68718 0.66837,1.40761 1.48149,2.07616c0.60678,0.49889 1.24382,1.18365 1.57333,2.07867c0.26282,0.71385 0.78613,1.67477 1.07401,2.274c0.35686,0.74283 0.58945,1.83134 1.03783,2.57117c0.43753,0.72194 1.04247,1.15762 1.78,1.948c0.62074,0.66522 0.85463,1.5219 0.888,2.36932c0.03404,0.86447 0.29794,1.82524 0.88535,2.31467c0.70145,0.58444 1.72031,0.72049 2.46666,1.18668c0.68781,0.42963 0.4718,1.48793 1.09334,2.37866c0.54974,0.78784 1.35954,1.06947 2.06934,1.35066c0.92116,0.36491 1.33499,1.01753 1.56799,1.80267c0.25926,0.87361 1.25215,1.29767 1.89517,1.48267c0.94196,0.271 1.09709,1.2124 1.54166,1.97917c0.48643,0.83899 1.16798,1.29347 1.8125,2.02083c0.44362,0.50063 1.24165,0.83438 1.9095,1.64816c0.49834,0.60722 1.40776,1.11183 1.73634,1.87267c0.35289,0.81712 0.02083,1.80051 0.02083,2.65384c0,0.94 0.06682,1.83279 -0.05716,2.63966c-0.14893,0.96922 -0.42052,1.7037 -0.74417,2.41766c-0.44936,0.99124 -1.00743,1.57889 -1.74167,2.31067c-0.4678,0.46623 -0.96454,0.9995 -1.85966,1.68933c-0.86613,0.6675 -1.49246,0.95891 -2.36134,1.38268c-0.55043,0.26846 -1.56252,0.85747 -2.23599,1.40616c-0.46004,0.3748 -1.41498,1.18837 -1.96167,1.57918c-0.57317,0.40973 -1.51627,1.01532 -2.55966,1.59982c-0.72543,0.4064 -1.09996,0.59769 -1.85333,0.96417c-0.73747,0.35873 -2.13733,0.95068 -2.76801,1.20001c-0.83849,0.33151 -1.68843,0.79034 -2.41983,1.11514c-0.64174,0.28497 -1.64346,0.41525 -2.50983,0.46368c-0.96852,0.05414 -1.47298,0.05066 -2.47833,0.05582c-1.38499,0.00711 -2.18234,0.00134 -2.90767,0.00134c-0.68533,0 -2.06317,0 -2.79884,0c-0.76366,0 -1.54733,0 -2.74283,0c-0.80133,0 -1.61067,0 -2.436,0c-0.84933,0 -1.73067,0 -2.64799,0c-0.94133,0 -1.89067,0 -2.36333,0c-1.386,0 -2.26733,0 -3.11667,0c-0.82533,0 -1.63467,0 -2.836,0c-0.8,0 -1.60001,0 -2.40001,0c-1.2,0 -2,0 -2.8,0c-0.79999,0 -1.59999,0 -2.79982,0c-0.79567,0 -1.57935,0 -2.343,0c-1.0905,0 -1.77318,0 -2.75717,0c-0.65266,0 -2.02167,0 -2.76167,0c-0.78,0 -1.59999,0 -2.905,0c-0.45467,0 -1.386,0 -2.33333,0c-0.47467,0 -1.416,0 -2.7785,0c-0.86433,0 -1.70067,0 -2.517,0c-1.2045,0 -2.00717,0 -2.82584,0c-0.42033,0 -1.293,0 -2.71199,0c-0.509,0 -1.563,0 -2.09601,0c-1.048,0 -2.032,0 -3.285,0c-0.666,0 -1.515,0 -2.61899,0c-0.63734,0 -1.33867,0 -2.47568,0c-1.19099,0 -1.991,0 -2.791,0c-0.79999,0 -1.59999,0 -2.79999,0c-0.8,0 -1.60001,0 -2.40001,0c-1.2,0 -2,0 -2.8,0c-0.79999,0 -1.59999,0 -2.80016,0c-0.80433,0 -1.62067,0 -2.03583,0c-0.84933,0 -2.18567,0 -3.12567,0c-0.485,0 -1.485,0 -2,0c-1.605,0 -2.1595,0 -3.2865,0c-0.5665,0 -1.6905,0 -2.242,0c-1.5765,0 -2.06683,0 -2.9955,0c-0.87267,0 -1.70534,0 -2.91434,0c-0.8,0 -1.6,0 -2.4,0c-0.8,0 -1.99966,0 -2.791,0c-0.76733,0 -1.49467,0 -2.76633,0c-0.792,0 -1.548,0 -2.68566,0c-0.67133,0 -1.39867,0 -2.166,0c-1.191,0 -1.991,0 -2.791,0c-0.8,0 -1.6,0 -2.8,0c-0.8,0 -1.6,0 -2.4,0c-1.2,0 -2,0 -2.8,0c-0.8,0 -1.6,0 -2.8,0c-0.8,0 -1.6,0 -2.4,0c-1.2,0 -2,0 -2.8,0c-0.8,0 -1.6,0 -2.8,0c-0.8,0 -1.6,0 -2.4,0c-1.2,0 -1.99866,0 -2.78933,0c-0.77467,0 -2.244,0 -2.92667,0c-0.65867,0 -1.63667,0.00095 -2.65067,0c-0.72,-0.00067 -1.48042,0.00012 -2.28,-0.03601c-0.84059,-0.03796 -2.17709,-0.1825 -3.16,-0.32117c-0.5469,-0.07715 -1.143,-0.16614 -1.8,-0.25348c-0.72631,-0.09656 -1.53197,-0.20404 -3.42667,-0.38934c-1.10027,-0.1076 -2.28778,-0.20154 -3.537,-0.2955c-1.28678,-0.0968 -2.58787,-0.18558 -3.879,-0.26849c-1.25688,-0.08072 -2.45572,-0.15582 -4.584,-0.26935c-0.88689,-0.0473 -1.65593,-0.0831 -2.319,-0.1095c-0.56894,-0.02264 -1.05597,-0.03781 -1.473,-0.04648c-0.35898,-0.00748 -0.672,-0.01001 -1.208,-0.01068c-0.24533,-0.00031 -0.714,0 -1.61934,0c-0.96883,0 -1.78333,0 -2.358,0c-1.18933,0 -2.08483,0 -2.95333,0c-1.06933,0 -1.78783,0 -2.49733,0c-1.072,0 -2.053,0 -2.78033,0c-0.76733,0 -1.95833,0 -2.761,0c-0.81867,0 -1.66933,0 -2.11167,0c-1.419,0 -2.45375,0.0022 -2.991,-0.009c-1.09492,-0.0228 -1.64778,-0.0278 -2.72667,-0.16165c-1.03941,-0.12894 -1.99969,-0.38974 -2.45367,-0.53467c-0.87746,-0.28009 -1.68869,-0.64853 -2.91433,-0.96133c-0.78849,-0.20123 -1.57779,-0.27667 -2.328,-0.31201c-0.70081,-0.03302 -1.9049,-0.00027 -2.672,-0.04218c-0.76955,-0.04205 -1.96754,-0.25906 -2.64,-0.40448c-0.99883,-0.21597 -1.85287,-0.46869 -2.83917,-0.55383c-0.85126,-0.07349 -1.7715,-0.02084 -2.5155,-0.02084c-1.036,0 -1.888,0 -2.83067,0l-0.69067,0" id="svg_1" stroke-width="2" stroke="#000" fill="none"/>
  <path t="8941,9229,9229,9229,9246,9246,9269,9269,9269,9286,9286,9302,9302,9302,9317,9317,9333,9333,9349,9349,9364,9364,9364,9378,9379,9379,9395,9395,9413,9413,9413,9429,9429,9430,9446,9447,9462,9463,9463,9480,9480,9480,9496,9496,9496,9496,9512,9513,9513,9528,9528,9528,9546,9546,9546,9562,9562,9562,9579,9579,9596,9596,9612,9613,9613,9629,9630,9630,9648,9648,9667,9667,9686,9686,9686,9703,9703,9703,9719,9719,9719,9719,9734,9735,9749,9764,9764,9764,9778,9778,9796,9796" d="m230,248c-8.785,2.42117 -9.61046,2.86626 -9.89333,3.73866c-0.3466,1.06898 -0.12198,1.93773 -0.54935,2.804c-0.36153,0.73282 -0.81918,1.15201 -1.31433,2.31467c-0.26389,0.61963 -0.243,1.68533 -0.243,2.39334c0,0.98132 0.0491,1.95151 -0.08533,2.71732c-0.14253,0.81189 -0.53624,1.76938 -0.748,2.69867c-0.18797,0.82486 -0.16667,1.66669 -0.16667,2.60535c0,0.83701 0.0145,1.72818 -0.0045,2.61899c-0.01787,0.8374 -0.16217,1.77567 -0.4955,2.60901c-0.33333,0.83334 -0.47801,1.76089 -0.4955,2.55182c-0.02269,1.02643 -0.00075,1.71219 -0.0045,2.54684c-0.0045,1.00137 -0.02448,1.84711 -0.56799,2.80267c-0.37341,0.65649 -0.9805,1.2453 -1.26134,2.28534c-0.22542,0.83475 -0.16617,1.47495 -0.17067,2.47998c-0.00484,1.08151 0,1.8125 0,2.5235c0,1.267 0,2.04852 0,2.75803c0,0.97333 0,1.78781 0,2.65631c0,1.19534 0,1.79102 0,2.65952c0,1.06934 0,2 0,2.83466c0,1.00134 -0.04187,1.80231 0.00267,2.80133c0.03577,0.80222 0.29059,1.62796 0.85866,2.39999c0.4593,0.62421 1.15857,1.37598 1.492,2c0.41344,0.77374 0.55457,1.80621 0.69934,2.60001c0.18427,1.01035 0.42517,1.64285 1.114,2.60001c0.45065,0.62619 1.01332,1.20193 1.83333,1.83334c0.57962,0.44629 1.43478,0.93912 2,1.5c0.63734,0.63245 1.15828,1.4202 1.51466,1.89865c0.71677,0.96228 1.28365,1.56567 2.00616,2.28885c0.64554,0.64612 1.13184,1.13184 1.82651,1.82648c0.63116,0.63116 1.242,1.242 1.94817,1.95718l0.41916,0.58084" id="svg_2" stroke-width="2" stroke="#000" fill="none"/>
  <path t="10034,10279,10279,10296,10296,10312,10328,10328,10345,10345,10345,10362,10363,10363,10379,10379,10380,10395,10395,10395,10411,10411,10411,10428,10428,10428,10428,10446,10446,10446,10446,10461,10462,10462,10462,10478,10478,10478,10496,10496,10496,10496,10497,10512,10512,10513,10529,10529,10529,10529,10529,10545,10545,10545,10545,10545,10562,10562,10562,10562,10579,10579,10579,10579,10579,10598,10598,10599,10599,10599,10616,10616,10616,10616,10616,10630,10631,10631,10631,10648,10648,10648,10663,10663,10664,10664,10682,10682,10682,10682,10682,10698,10699,10699,10699,10714,10714,10714,10714,10714,10728,10728,10729,10729,10729,10729,10746,10746,10747,10747,10747,10762,10762,10762,10763,10763,10779,10779,10779,10780,10780,10797,10797,10797,10797,10797,10814,10814,10814,10814,10831,10831,10831,10831,10831,10831,10847,10848,10848,10848,10848,10848,10865,10865,10865,10865,10865,10865,10881,10881,10881,10881,10881,10896,10896,10896,10896,10912,10913,10913,10913,10914,10929,10929,10929,10930,10946,10947,10947,10947,10947,10947,10964,10964,10964,10965,10981,10981,10981,10981,10981,10998,10998,10998,10998,10998,11016,11016,11016,11016,11016,11032,11032,11033,11033,11033,11048,11048,11048,11048,11063,11063,11063,11064,11064,11079,11079,11079,11079,11079,11079,11095,11095,11095,11095,11095,11112,11113,11113,11113,11114,11129,11129,11129,11129,11130,11146,11146,11147,11147,11164,11164,11164,11164,11164,11181,11181,11182,11182,11198,11198,11199,11199,11199,11231,11231,11233,11233" d="m210,306c-5.77467,-3.65866 -6.58191,-3.97867 -7.48399,-4c-0.8631,-0.02042 -1.75883,0 -2.71867,0c-0.76801,0 -1.81215,0.00705 -2.339,-0.02084c-0.8622,-0.04562 -2.05841,-0.25735 -2.64766,-0.40448c-0.85564,-0.21362 -1.88605,-0.49026 -2.81067,-0.55383c-0.68268,-0.04694 -1.68533,-0.02084 -2.52083,-0.02084c-0.88051,0 -2.08051,0 -2.68983,0c-0.9465,0 -1.95609,0.00781 -2.672,-0.00266c-0.73216,-0.01071 -1.8345,-0.01453 -2.78401,-0.33069c-0.86122,-0.28677 -1.56073,-0.86353 -2.10133,-1.09866c-1.16071,-0.50482 -1.89288,-0.51099 -2.61732,-0.58267c-0.73158,-0.07239 -2.1317,-0.26462 -2.78934,-0.41064c-0.65172,-0.14471 -1.99031,-0.42471 -2.70934,-0.48935c-0.73999,-0.06653 -1.49062,-0.07861 -2.23199,-0.08398c-1.39998,-0.01016 -2.0605,0.01733 -3.03667,-0.0585c-1.01685,-0.07898 -1.73625,-0.2135 -2.48334,-0.3895c-0.77875,-0.18344 -1.57433,-0.41595 -2.76399,-0.87451c-0.80643,-0.31082 -1.59499,-0.67123 -2.40001,-0.96899c-0.39763,-0.14706 -1.59669,-0.48865 -2.39999,-0.60001c-0.79732,-0.11053 -1.60312,-0.12985 -2.8,-0.27649c-0.80386,-0.09848 -1.60963,-0.2645 -2.436,-0.40802c-0.84831,-0.14734 -2.18491,-0.30978 -2.64799,-0.34c-0.94061,-0.0614 -1.89064,-0.07861 -2.832,-0.08398c-0.91731,-0.00522 -1.7988,0.00568 -2.64799,-0.01202c-0.82555,-0.01721 -1.6386,-0.04367 -2.83568,-0.21066c-0.79445,-0.11084 -1.55722,-0.28595 -2.286,-0.42599c-1.26929,-0.2439 -2.0632,-0.33081 -2.81967,-0.34818c-1.13737,-0.02612 -1.81003,0.00452 -2.53633,-0.04614c-0.76891,-0.05362 -1.965,-0.27005 -2.75833,-0.52634c-0.80739,-0.26083 -1.58994,-0.6116 -2.39999,-0.86401c-1.18694,-0.36984 -1.99844,-0.4736 -2.8,-0.52634c-0.79894,-0.05255 -2,-0.04166 -2.80267,-0.04166c-0.81866,0 -1.66933,0 -2.11166,0c-1.41901,0 -1.92834,0 -2.991,0c-0.54533,0 -1.644,0 -2.18933,0c-1.572,0 -2.53467,0 -2.991,0c-0.87267,0 -1.70534,0 -2.91434,0c-0.80133,0 -1.61066,0 -2.436,0c-0.84933,0 -2.18533,0 -2.648,0c-0.94133,0 -1.89067,0 -2.832,0c-0.91734,0 -1.79867,0 -2.648,0c-0.82533,0 -1.63467,0 -2.83617,0c-0.80433,0 -1.62067,0 -2.457,0c-1.30949,0 -1.7645,0 -2.7045,0c-0.98,0 -1.485,0 -2.525,0c-1.07999,0 -2.19733,0 -2.766,0c-0.57266,0 -1.722,0 -2.29466,0c-1.686,0 -2.231,0 -3.291,0c-0.515,0 -1.515,0 -2.475,0c-0.92001,0 -1.80134,0 -2.65067,0c-0.82533,0 -1.63467,0 -2.836,0c-0.8,0 -1.6,0 -2.4,0c-1.2,0 -2,0 -2.8,0c-0.8,0 -1.6,0 -2.80017,0c-0.80433,0 -1.62067,0 -2.457,0c-1.3095,0 -1.76417,0 -2.6955,0c-0.94733,0 -1.422,0 -2.36333,0c-1.3625,0 -2.22683,0 -3.06317,0c-0.81633,0 -2.02083,0 -2.82217,0c-0.80933,0 -1.63467,0 -2.05583,0c-1.3095,0 -2.22683,0 -3.16817,0c-0.47467,0 -1.422,0 -2.808,0c-0.88134,0 -1.73067,0 -2.14584,0c-0.81633,0 -2.02083,0 -2.82083,0c-0.8,0 -1.6,0 -2.4,0c-1.2,0 -2,0 -2.8,0c-0.8,0 -2,0 -2.80267,0c-0.81867,0 -1.66933,0 -2.568,0c-1.472,0 -1.99733,0 -3.08,0c-0.54933,0 -1.09867,0 -2.18133,0c-1.52517,0 -1.99867,0 -2.90667,0c-0.876,0 -1.744,0 -2.628,0c-0.91733,0 -1.85867,0 -2.808,0c-0.47267,0 -1.85867,0 -2.74,0c-0.84933,0 -1.67467,0 -2.484,0c-1.20133,0 -2.00133,0 -2.80133,0c-0.8,0 -2,0 -2.8,0c-0.8,0 -1.6,0 -2.4,0c-1.2,0 -2,0 -2.8,0c-0.8,0 -2,0 -2.79733,0c-0.78133,0 -1.53067,0 -2.232,0c-1.2,0 -2.14933,0 -2.97067,0l-0.97917,0" id="svg_3" stroke-width="2" stroke="#000" fill="none"/>
  <path t="12141,12295,12296,12296,12296,12312,12312,12312,12329,12330,12349,12349,12349,12375,12375,12402,12403,12403,12404,12404,12404,12429,12429,12429,12430,12430,12454,12454,12478,12478,12478,12480,12480,12503,12503,12503,12527,12527,12527,12551,12551,12574,12574,12599,12599,12599,12622,12622,12622,12624,12624,12625,12625,12625,12626,12651,12651,12651,12652,12652,12652,12678,12678,12678,12680,12680,12680,12706,12707,12707,12733,12733,12734,12734,12760,12760,12760,12784,12784,12784,12784,12809,12809,12834,12834,12834,12858,12858,12858,12858,12861,12861,12884,12884,12884,12908,12909,12909,12909,12934,12934,12936,12936,12960,12960,12983,12983,13008,13008,13008,13033,13058,13058,13060,13061,13062,13063,13064,13064,13087,13088,13112,13112,13113,13113,13137,13162,13162,13163,13164,13187,13213,13213,13214,13238,13263,13263,13264,13265,13265,13289,13290,13290,13315,13315,13317,13317,13342,13342,13367,13367,13392,13392,13418,13418,13420,13420" d="m323,260c-5.93549,-2.6355 -6.72333,-2.87479 -7.76801,-2.96799c-0.62613,-0.05588 -1.83066,-0.03201 -2.71115,-0.03201c-0.83551,0 -1.83685,0 -2.52084,0c-1.16666,0 -1.94818,0 -2.73868,0c-0.92798,0 -1.92267,-0.00943 -2.80399,0.22168c-0.7186,0.18842 -1.53458,0.42972 -2.31451,1.09982c-0.70987,0.60992 -0.99991,1.29974 -1.62683,2.07849c-0.49625,0.61642 -1.06772,1.17444 -1.63065,1.99869c-0.5079,0.74368 -1.07541,1.52682 -1.44934,2.26266c-0.42398,0.83432 -0.36246,1.86435 -0.60535,2.57065c-0.29068,0.84525 -1.14493,1.32632 -1.58783,2.31085c-0.30402,0.67581 -0.22318,1.52274 -0.46417,2.53564c-0.21823,0.91718 -0.57388,1.50546 -0.7215,2.52151c-0.11526,0.7934 -0.05716,1.80133 -0.05716,2.63599c0,0.93066 0,1.72116 0,2.57468c0,1.18933 0,1.78665 0,2.64767c0,1.20831 -0.00412,1.90164 0,3.04166c0.00201,0.552 -0.01825,1.51907 0.17151,2.142c0.34958,1.14761 1.13348,1.64554 1.82767,2.15884c0.68655,0.50766 1.16251,1.22574 1.65149,1.94849c0.64075,0.94708 1.34555,1.45358 1.84933,1.70901c1.14725,0.58163 1.89594,0.91156 2.29733,1.51233c0.49622,0.74274 0.61633,1.61087 1.17334,2.17599c0.87158,0.88428 1.80011,0.76431 2.69598,1.01999c0.86307,0.24631 1.66199,0.70151 2.34769,0.77618c0.80356,0.08752 1.98566,0.05716 2.88116,0.05716c0.8685,0 1.41916,0 2.65182,0c0.67801,0 1.87418,0 2.68866,0c0.57468,0 1.76401,0 2.65952,0c0.8685,0 1.41916,0 2.64734,0c0.85266,0 1.86115,0 2.51965,0c0.79349,0 1.80133,0 2.591,0c0.82565,0 1.63141,0.01663 2.96066,-0.00015c0.82352,-0.01041 1.72403,-0.18567 2.38583,-0.52069c0.85764,-0.43417 1.52197,-0.96854 2.10016,-1.80048c0.45569,-0.6557 1.04791,-1.53558 1.71451,-2.04269c0.60004,-0.45645 1.13406,-1.15732 1.18668,-2.12c0.04721,-0.86383 0.33789,-1.77365 0.79999,-2.31467c0.65317,-0.76474 1.07761,-1.52933 1.16266,-2.452c0.06833,-0.74152 0.03601,-1.78134 0.03601,-2.55466c0,-0.96268 0,-1.69467 0,-2.86133c0,-0.79169 0,-1.63785 0,-2.65466c0,-0.67868 0,-1.65717 0,-2.47736c0,-0.9585 0,-1.854 0,-2.71732c0,-0.96317 0.12967,-1.85434 -0.33334,-2.65067c-0.42355,-0.72845 -1.01129,-1.26349 -2.06665,-1.664c-0.76752,-0.29126 -1.80002,-0.39117 -2.41068,-0.59467c-0.87442,-0.29138 -1.87305,-0.47089 -2.64767,-0.57468c-1.04556,-0.14008 -1.6749,-0.72272 -2.39499,-0.91733c-0.88626,-0.2395 -1.87354,-0.34714 -2.47467,-0.93335c-0.75677,-0.73801 -1.30798,-1.12799 -2.32468,-1.15381l-0.69464,-0.05267l-0.89551,-0.30902l-0.55585,-0.6058" id="svg_4" stroke-width="2" stroke="#000" fill="none"/>
  <path t="13972,14161,14162,14162,14179,14179,14179,14179,14195,14195,14195,14195,14195,14215,14215,14215,14215,14215,14231,14231,14231,14231,14246,14246,14246,14246,14246,14262,14262,14262,14262,14278,14278,14278,14278,14278,14296,14296,14296,14296,14296,14311,14311,14311,14311,14311,14328,14329,14329,14329,14329,14329,14345,14345,14346,14346,14346,14346,14361,14361,14361,14361,14361,14361,14378,14378,14378,14378,14378,14395,14396,14396,14396,14396,14411,14412,14412,14412,14412,14427,14428,14428,14428,14428,14428,14444,14445,14445,14445,14445,14461,14461,14461,14461,14461,14477,14477,14478,14478,14495,14496,14496,14496,14496,14511,14511,14527,14528,14528,14528,14545,14545,14545,14545,14562,14562,14562,14562,14563,14580,14580,14581,14581,14581,14598,14598,14599,14599,14599,14599,14599,14616,14616,14616,14616,14616,14632,14632,14632,14632,14648,14648,14648,14648,14649,14664,14664,14665,14665,14681,14681,14681,14681,14700,14700,14700,14700,14700,14700,14718,14718,14718,14718,14718,14719,14736,14736,14736,14737,14737,14753,14754,14754,14754,14754,14770,14770,14770,14771,14771,14786,14786,14786,14786,14802,14802,14802,14802,14802,14818,14818,14819,14819,14819,14835,14835,14835,14835,14835,14836,14836,14851,14852,14852,14852,14852,14852,14852,14868,14868,14869,14869,14869,14869,14869,14919,14919,14919,14919,14919,14921,14922,14922,14922,14922,14922,14922,14924,14924,14924,14924,14924,14924,14941,14941,14941,14941,14941,14942,14942,14942,14959,14959,14959,14959,14959,14960,14960,14977,14977,14977,14977,14977,14994,14994,14994,14994,14995,14995,15011,15011,15011,15011,15011,15034,15035,15035,15035,15035,15035,15051,15052,15052,15052,15052,15070,15070,15070,15070,15071,15071,15071,15087,15087,15088,15088,15088,15088,15105,15105,15105,15105,15105,15106,15122,15122,15122,15122,15123,15123,15140,15140,15140,15140,15141,15157,15157,15158,15158,15158,15175,15175,15175,15176,15176,15176,15193,15193,15194,15194,15194,15194,15194,15194,15196,15196,15197,15197,15197,15197,15199,15199,15199,15199,15199,15200,15200,15218,15219,15219,15219,15219,15237,15238,15238,15238,15238,15238,15269,15269,15269,15269,15270,15270,15270,15272,15272,15272,15272,15272,15273,15273,15304,15304,15304,15304,15304,15305,15305,15305,15307,15307,15307,15308,15308,15308,15337,15337,15337,15338,15338,15340,15340,15341,15341,15341,15341,15342,15342,15372,15373,15373,15373,15373,15374,15374,15374,15375,15377,15378,15378,15378,15378,15379,15379,15379,15410,15411,15411,15411,15411,15411,15413,15414,15414,15415,15415,15415,15445,15445,15445,15445,15446,15446,15476,15476,15477,15477,15477,15477,15478,15478,15478,15508,15508,15508,15508,15509,15509" d="m3,277c0.48583,0 1.10417,-0.00006 2.20667,0c1.19333,0.00009 1.9936,-0.00549 2.79333,0.02084c0.80039,0.02634 2.0018,0.13412 2.8,0.26315c0.80198,0.12964 1.19799,0.22736 2,0.36334c1.19724,0.203 1.99935,0.2793 2.8,0.31665c0.79953,0.03729 1.60002,0.02902 2.8,0.03635c0.80003,0.00488 1.60408,0.00543 2.4,0.11398c1.20864,0.16486 2.00252,0.44662 2.8,0.73636c0.8026,0.2916 1.58526,0.64163 2.8,0.90649c0.79236,0.17276 1.60044,0.21704 2.4,0.29099c1.20071,0.11105 2.0007,0.23196 2.8,0.37717c0.80072,0.14548 1.59634,0.32047 2.80017,0.45334c0.80238,0.08856 1.62094,0.1171 2.457,0.17401c0.42832,0.02917 1.76516,0.164 2.7045,0.29999c0.48535,0.07025 1.48413,0.22839 2,0.29468c1.60257,0.20587 2.1593,0.23468 3.2865,0.3045c0.5664,0.03506 1.69198,0.09485 2.242,0.15799c1.58188,0.18155 2.07281,0.31345 3.0045,0.59549c0.91125,0.27585 1.34788,0.47186 2.27333,0.72668c0.9578,0.26373 1.99919,0.40649 2.53733,0.45816c1.09325,0.10495 1.64466,0.11462 2.72667,0.1925c1.03539,0.07452 1.99863,0.19333 2.896,0.34265c0.85196,0.14178 1.66536,0.32349 2.87217,0.45319c0.80228,0.08621 1.62061,0.10345 2.03583,0.11081c0.84925,0.01508 2.18567,0.01068 3.12567,0.01068c0.485,0 1.485,0 2,0c1.605,0 2.1595,0 3.2865,0c0.5665,0 1.6905,0 2.242,0c1.5765,0 2.06683,0 2.99551,0c0.87267,0 1.70533,0 2.91433,0c0.8,0 1.6,0 2.4,0c0.8,0 2,0 2.8,0c0.8,0 1.60001,-0.00101 2.8,0c0.79733,0.00067 1.57925,-0.00296 2.328,0.03601c0.70211,0.03653 1.90189,0.2507 2.65116,0.46399c1.18628,0.33768 1.98245,0.44788 2.5625,0.5c0.94492,0.0849 1.98077,0.21622 2.7155,0.35266c0.76468,0.142 1.54281,0.32654 2.74284,0.48068c0.79888,0.1026 1.61046,0.13876 2.436,0.15598c0.84921,0.0177 2.1857,0.00766 2.65067,0.01334c0.96011,0.01172 1.96132,0.05554 2.475,0.11166c1.61029,0.17593 2.16112,0.32129 2.721,0.45367c1.13545,0.26846 1.69497,0.43781 2.8075,0.72668c0.53978,0.14017 2.0654,0.47241 2.53917,0.53467c0.89635,0.1178 1.74918,0.15775 2.568,0.168c1.20258,0.01505 2.00266,0.00266 2.80267,0.00266c0.8,0 2.00002,-0.004 2.8,0.00134c0.80003,0.00534 1.60152,0.01416 2.39999,0.08398c1.20293,0.10519 1.99585,0.26547 2.77917,0.41467c0.76401,0.14551 1.85159,0.36084 2.87717,0.44284c0.68411,0.05469 1.41066,0.0549 2.64366,0.05716c0.95467,0.00174 1.467,0 2.54167,0c0.55432,0 1.11465,0 2.79166,0c0.545,0 1.60501,0 2.625,0c0.49501,0 1.455,0 2.82034,0c0.43733,0 1.29599,0 2.14667,0c0.85866,0 2.196,0 3.12733,0c0.47266,0 1.422,0 2.36333,0c0.91733,0 1.79866,0 2.64799,0c0.82533,0 1.63467,0 2.836,0c0.8,0 1.60001,0 2.40001,0c1.2,0 2,0 2.8,0c0.79999,0 1.59999,0 2.80049,0c0.813,0 1.662,0 2.571,0c0.4845,0 2.093,0 2.68451,0c0.61549,0 1.90649,0 2.57599,0c0.6815,0 1.37201,0 2.76801,0c0.69966,0 1.39734,0 2.77867,0c0.67966,0 1.34933,0 2.00699,0c1.88101,0 2.47134,0 3.04367,0c1.09866,0 1.629,0 2.66167,0c0.50633,0 2.00917,0 3.0135,0c0.50616,0 1.53149,0 2.05266,0c1.60951,0 2.16417,0 3.2955,0c0.57268,0 1.14734,0 2.29468,0c0.56866,0 2.23166,0 2.77133,0c1.07733,0 1.623,0 2.74834,0c0.58766,0 1.83299,0 2.49716,0c0.68916,0 2.1225,0 2.85666,0c0.73917,0 1.47833,0 2.21251,0c1.43333,0 2.12334,0 2.79333,0c1.28,0 1.89,0 2.48,0c1.12,0 2.16,0 3.12534,0c0.91733,0 1.81866,0 2.27333,0c1.42799,0 2.46266,0 3,0c1.09467,0 1.644,0 2.18933,0c1.57201,0 2.536,0 2.9955,0c0.88901,0 1.758,0 3.07651,0c0.91866,0 1.39049,0 2.35416,0c0.98367,0 1.4805,0 2.97934,0c0.50116,0 1.5105,0 2.53583,0c0.52116,0 2.13068,0 2.6855,0c0.56384,0 1.71451,0 2.29933,0c1.18367,0 1.7805,0 2.97917,0c1.19733,0 1.791,0 2.37866,0c1.14934,0 1.707,0 3.28799,0c0.49066,0 1.42801,0 2.33334,0c0.90533,0 1.36801,0 2.84268,0c0.52533,0 1.60797,0 2.15732,0c1.09467,0 1.63199,0 3.15717,0c0.93301,0 1.3815,0 2.25751,0c0.86798,0 2.20685,-0.00372 3.14249,0.00449c0.47888,0.00421 1.45389,0.02405 1.94733,0.05267c1.49701,0.08685 2.49969,0.2254 3.009,0.2955c1.04941,0.14441 1.5936,0.22958 2.15802,0.29468c1.82584,0.21054 2.4921,0.23547 3.17917,0.26733c0.70264,0.03256 1.41458,0.05273 2.12848,0.06448c1.40558,0.0231 2.0835,0.01868 3.35419,0.02084c1.12933,0.00192 1.65207,-0.00565 2.64581,0.04166c0.48657,0.02316 1.47574,0.10373 2.52084,0.29169c1.15738,0.20813 1.75876,0.37344 2.37601,0.52798c0.62479,0.15643 1.86609,0.49017 2.47198,0.65601c1.15219,0.31537 2.19507,0.60516 3.15466,0.836c0.45465,0.10938 1.33588,0.32364 2.664,0.48001c0.91858,0.10815 1.39923,0.11792 2.39584,0.14581c0.52008,0.01456 1.6095,0.02002 2.77084,0.02084c0.6095,0.00043 1.87653,0.00256 2.52798,0.01068c0.65955,0.00821 1.32471,0.00888 2.65601,0.07465c1.31693,0.06506 1.96167,0.13272 2.59866,0.19867c0.63168,0.0654 1.88388,0.2171 2.50934,0.29068c0.6272,0.07376 2.54102,0.26334 3.19583,0.30383c0.66122,0.04089 1.32687,0.06854 1.9935,0.08548c1.32382,0.03366 1.97549,0.03275 2.616,0.03467c1.23599,0.00369 2.39743,-0.00137 2.9505,0.01035c1.05661,0.0224 1.56726,0.01709 2.53082,0.16165c1.37857,0.20682 2.2486,0.53543 2.69467,0.68002c0.92615,0.30023 1.40433,0.50797 3.06,0.81598c0.6152,0.11444 1.27283,0.17032 1.95752,0.22351c0.70868,0.05505 2.18253,0.12411 2.93665,0.15799c0.75922,0.03412 2.27286,0.1142 3.01785,0.17319c0.73767,0.05841 1.46878,0.13022 2.19598,0.20398c0.72546,0.07358 1.45047,0.15152 2.17801,0.22202c0.73111,0.07083 2.21335,0.19867 3.72867,0.26733c0.76205,0.03455 1.52264,0.05176 2.27701,0.06448c0.74429,0.01257 1.47467,0.01758 2.18698,0.0195c1.35468,0.00366 2.59866,0.00134 3.18317,0.00134c0.56351,0 1.6395,0 2.15802,0c1.51349,0 2.51218,-0.00122 3.009,0.00449c0.9837,0.01129 1.94797,0.0433 2.41916,0.08084c1.36761,0.10892 2.26382,0.26944 2.73465,0.34c1.02734,0.15396 1.6026,0.23087 2.23203,0.29068c1.4502,0.13779 2.28897,0.16718 3.18933,0.19867c0.94601,0.03308 1.9213,0.05179 2.90848,0.06448c0.98215,0.01263 1.94235,0.01755 2.86353,0.0195c1.65732,0.00351 2.36383,0.00134 2.98932,0.00134l0.5535,0l0.49051,0l0.828,0" id="svg_5" stroke-width="2" stroke="#000" fill="none"/>
  <path t="16039,16245,16245,16262,16262,16262,16262,16262,16282,16282,16282,16282,16282,16300,16300,16300,16300,16300,16319,16319,16319,16319,16319,16319,16338,16338,16338,16338,16338,16356,16356,16356,16356,16356,16356,16373,16373,16373,16373,16373,16373,16424,16424,16425,16425,16425,16425,16428,16428,16428,16428,16428,16428,16428,16445,16445,16445,16445,16445,16445,16445,16445,16445,16461,16461,16461,16462,16462,16462,16462,16462,16462,16478,16478,16479,16479,16479,16479,16479,16479,16479,16496,16496,16496,16496,16496,16496,16496,16496,16496,16513,16513,16513,16513,16513,16513,16513,16513,16513,16535,16535,16535,16536,16536,16536,16536,16536,16536,16552,16553,16553,16553,16553,16553,16553,16553,16553,16571,16571,16571,16571,16571,16571,16571,16571,16571,16588,16588,16588,16588,16588,16588,16588,16588,16589,16605,16605,16605,16605,16605,16605,16605,16605,16605,16623,16623,16623,16623,16623,16623,16623,16623,16641,16641,16641,16641,16641,16641,16642,16642,16642,16659,16660,16660,16660,16660,16660,16660,16660,16660,16678,16678,16678,16678,16678,16678,16678,16678,16678,16696,16696,16696,16696,16696,16696,16696,16696,16696,16713,16713,16713,16713,16713,16714,16714,16714,16714,16734,16734,16734,16735,16735,16735,16735,16735,16735,16754,16754,16754,16755,16755,16755,16755,16755,16755,16773,16773,16773,16773,16773,16774,16774,16794,16794,16794,16794,16795,16795,16795,16795,16811,16811,16811,16812,16812,16812,16812,16814,16814,16814,16814,16814,16814,16815,16815,16816,16816,16816,16817,16817,16817,16817,16817,16838,16839,16839,16839,16839,16839,16839,16859,16860,16860,16860,16860,16860,16861,16879,16879,16880,16880,16880,16880,16880,16899,16899,16900,16900,16900,16900,16900,16900,16918,16919,16919,16919,16919,16919,16919,16937,16937,16937,16938,16938,16938,16938,16956,16956,16956,16957,16957,16957,16957,16976,16977,16977,16977,16977,16977,16995,16995,16995,16995,16996,16996,16998,16998,16998,16998,16998,16999,16999,16999,17017,17018,17018,17018,17018,17018,17020,17021,17021,17021,17021,17021,17022,17040,17041,17041,17041,17041,17062,17062,17062,17062,17063,17063,17065,17065,17065,17065,17066,17066,17066,17101,17101,17101,17101,17102,17102,17104,17104,17104,17104,17104,17105,17105,17141,17142,17142,17142,17143,17143,17145,17145,17146,17146,17146,17146,17179,17180,17180,17180,17181,17181,17181,17214,17214,17214,17215,17215,17215,17215,17216,17216,17218,17218,17218,17218,17219,17219,17219,17219,17220,17253,17254,17254,17254,17254,17254,17255,17255,17255,17257,17257,17258,17258,17258,17259,17259,17259,17260,17293,17293,17293,17294,17294,17294,17296,17297,17297,17297,17298,17298,17332,17333,17333,17333,17333,17334,17334,17334,17369,17369,17369,17370,17370,17370,17371,17371,17371,17373,17373,17374,17374,17374,17374,17375,17375,17411,17411,17412,17446,17447" d="m2,273c-2.112,-0.96399 -1.16401,-0.99774 0,-1c0.8,-0.00156 1.6,0 2.4,0c0.8,0 2.00017,0 2.8045,0c0.81633,0 1.65267,0 2.08083,0c1.33633,0 2.27633,0 3.25633,0c0.505,0 1.545,-0.00064 2.625,0c1.116,0.00067 1.68155,0.00119 2.248,0.01068c1.12413,0.0188 1.67812,0.01364 3.252,0.15598c0.49154,0.04446 1.42377,0.18436 2.3125,0.33334c0.86927,0.14572 2.18687,0.34024 2.64233,0.37851c0.93458,0.07852 1.89928,0.10342 2.38917,0.11081c0.9906,0.01495 1.98935,0.00671 2.99067,0.01202c1.00936,0.00534 1.51987,0.01004 2.55583,0.05582c0.5284,0.02335 2.16446,0.16159 2.72683,0.22684c0.56898,0.06604 1.71578,0.21774 2.29066,0.29068c1.1409,0.14478 2.25806,0.26703 3.35467,0.34265c0.56272,0.03882 1.15211,0.06607 1.779,0.10352c1.41627,0.08463 2.23007,0.13654 4.125,0.3125c1.10217,0.10236 2.29215,0.23328 3.5505,0.37198c1.30566,0.14392 2.63688,0.29578 3.9735,0.444c1.32038,0.14642 2.60253,0.29803 4.976,0.51733c1.05123,0.09714 2.01435,0.16794 2.8995,0.21902c0.81757,0.04718 1.57957,0.07635 2.2965,0.09299c0.68275,0.01584 1.34267,0.01987 2.63733,0.02133c0.655,0.00076 1.32001,-0.00015 1.995,0.00449c0.68501,0.0047 1.38007,0.01352 2.085,0.03152c0.71508,0.01828 1.44077,0.03641 2.92,0.13065c0.75512,0.0481 1.51749,0.11554 2.286,0.186c0.77283,0.07086 1.54725,0.14825 2.322,0.22202c0.77258,0.07358 1.54041,0.15393 3.05867,0.25867c0.74459,0.05136 1.47987,0.08469 2.20499,0.1095c0.7149,0.02448 1.41998,0.03827 2.11501,0.04648c0.68497,0.00812 1.36,0.01001 2.68,0.01068c0.64533,0.00034 1.28266,0 1.91399,0c0.62733,0 1.25267,0 1.87801,0c0.62733,0 1.25867,0 2.54133,0c0.655,0 1.32,0 1.995,0c0.685,0 1.38,0 2.085,0c0.715,0 1.44,-0.00015 2.92,0c0.755,0.00009 1.52001,-0.00015 2.29501,0.00449c0.785,0.0047 1.58006,0.01349 2.38499,0.03152c0.81507,0.01825 1.64068,0.03625 3.32,0.13065c0.8549,0.04803 1.71616,0.11539 2.5815,0.186c0.86666,0.07071 1.73094,0.14801 2.5905,0.22202c0.85145,0.0733 1.69119,0.1532 3.328,0.25867c0.78999,0.0509 1.56255,0.08463 2.319,0.1095c0.74223,0.02438 1.47265,0.03827 2.193,0.04648c0.71231,0.00812 1.41867,0.01001 2.82133,0.01068c0.70033,0.00034 1.40266,0 2.10899,0c0.71234,0 2.16301,0 2.90533,0c0.75633,0 2.319,0 3.12868,0c0.82767,0 1.67133,0 2.52899,0c0.86967,0 1.74934,0 2.63701,0c0.89366,0 2.69099,0 3.59067,0c0.89766,0 1.79132,0 2.679,0c0.87965,0 1.74933,0 2.60699,0c0.84366,0 2.481,-0.00101 3.27116,0.00034c0.77116,0.00131 1.52441,0.00446 2.2605,0.021c0.72028,0.0162 1.42584,0.04315 2.1165,0.09299c0.67873,0.04898 2.00095,0.21082 2.64534,0.32834c0.64236,0.11716 1.28185,0.26187 1.92749,0.40802c0.65602,0.1485 1.32541,0.30481 2.0175,0.444c0.71458,0.14371 2.24144,0.38223 3.06117,0.46231c0.84969,0.08301 1.72505,0.13483 2.616,0.17102c0.89844,0.0365 1.7973,0.05359 2.688,0.06299c0.87463,0.00922 2.54399,0.009 3.32533,0.009c0.74933,0 1.47467,0 2.18399,0c0.70134,0 1.40268,0 2.112,0c0.72534,0 2.25601,0 3.07451,0c0.8495,0 1.72099,0 2.6055,0c0.8885,0 1.772,0 2.64149,0c0.84651,0 2.43451,0 3.16068,0c0.68317,0 1.33032,0 2.54466,0c0.58116,0 1.15433,0 2.89583,0c0.60951,0 1.23601,0 1.87651,0c1.31099,0 1.97549,0 2.642,0c0.6655,0 2.627,0 3.2655,0c0.63449,0 1.26799,0 2.54399,0c0.6485,0 1.308,0 2.672,0c0.7095,0 1.436,0 2.1765,0c0.75151,0 2.27551,0 3.04201,0c0.7655,0 2.28149,0 3.0265,0c0.735,0 1.45999,0 2.17499,0c0.705,0 1.40001,0 2.76001,0c1.31999,0 1.96516,0 2.60133,0c1.24933,0 1.8645,0 2.47467,0c1.20932,0 2.41066,0 3.01067,0c1.2,0 1.79999,0 2.39999,0c1.2,0 1.8,0 3,0c0.60017,0 1.8045,0 2.41066,0c0.61017,0 1.84651,0 2.47467,0c1.28134,0 1.93617,0 3.27184,0c0.67883,0 1.36366,0 2.0535,0c0.69383,0 1.39067,-0.00171 3.489,0.00015c0.69768,0.00061 1.39136,0.00229 2.07901,0.01053c0.67969,0.00815 1.35014,0.00726 2.65067,0.07465c1.23834,0.06415 1.82903,0.12732 2.96532,0.26733c0.55524,0.06842 1.6557,0.22446 2.21069,0.29468c0.56235,0.07114 2.33707,0.23541 2.96265,0.26733c0.63712,0.0325 1.93198,0.06644 2.58133,0.07465c0.64532,0.00815 1.28268,0.00818 3.10767,0.01083c0.57236,0.00082 1.12891,-0.00635 2.20135,0.02069c1.03296,0.02603 1.5415,0.03928 3.04214,0.2005c0.50449,0.0542 1.53125,0.20605 2.06201,0.27866c1.10843,0.15164 1.69208,0.23227 2.9375,0.33334c0.66336,0.05383 2.05792,0.11255 2.776,0.13065c0.72394,0.01825 1.448,0.02682 2.16599,0.03152c0.70602,0.00461 2.05801,0.00449 3.30334,0.00449c0.58768,0 1.71301,0 2.25867,0c0.53967,0 2.16266,0 2.71735,0c1.13132,0 1.70398,0 2.85333,0c0.57266,0 1.14133,0 2.80383,0c0.53616,0 1.58548,0 2.10065,0c1.01636,0 2.52084,0 3.021,0c1.00433,0 1.51053,0 2.53586,0c0.52115,0 2.13065,0 2.68549,0c1.13568,0 1.71451,0 2.88916,0c0.59384,0 1.19067,-0.0033 2.98935,0.00034c0.60001,0.00122 1.20044,-0.00531 2.39999,0.04132c0.60031,0.02335 1.20728,0.0195 3,0.29169c0.60278,0.09152 1.19992,0.22934 1.7955,0.37198c1.18625,0.28412 1.76642,0.45255 2.34732,0.58936c1.68488,0.39682 2.23337,0.48325 3.30002,0.591c0.5202,0.05255 1.54639,0.09763 2.05267,0.10532c1.50433,0.02283 2.50452,0.00784 3.00449,0.01349c1.00006,0.01132 1.50122,0.01102 2.5,0.08084c1.50464,0.10516 2.01678,0.20303 3.13867,0.34c0.63187,0.07715 1.32883,0.15491 2.10449,0.22202c0.86566,0.07489 2.92328,0.19193 4.13416,0.23117c1.31448,0.0426 2.70731,0.06744 4.15201,0.08548c1.47064,0.01834 2.94135,0.02679 4.38602,0.03152c1.39267,0.00455 3.918,0.00449 5.00516,0.00449c0.97015,0 1.83633,0 2.61151,0c0.69714,0 1.32932,0 1.90948,0c0.54117,0 1.5585,-0.00052 2.05865,0.00015c0.50119,0.00067 1.00436,0.00238 1.51053,0.01053c0.51019,0.00821 1.02548,0.022 1.54648,0.04648c0.52835,0.02481 1.60986,0.10599 2.16418,0.16418c0.56305,0.05911 1.13144,0.13046 1.70398,0.20398c0.5748,0.07382 1.14914,0.15109 1.72202,0.22202c0.56845,0.07037 1.68567,0.19019 2.23117,0.23117c0.53586,0.04025 1.58533,0.09186 2.61081,0.11081c0.50613,0.00934 2.01068,0.01068 2.51102,0.01068c1.00867,0 1.521,0 2.57166,0c0.54233,0 2.26135,-0.00049 2.87186,0.00015c0.63348,0.00067 1.29309,-0.00162 2.702,0.02069c0.75555,0.01196 1.54916,0.03159 2.38348,0.06448c1.80444,0.07114 2.77698,0.13382 3.78668,0.19867c1.03397,0.06641 2.07867,0.14078 3.12149,0.216c1.02786,0.07413 2.02753,0.14938 2.98651,0.216c1.7424,0.12106 2.50336,0.16489 3.18933,0.19867c0.61572,0.0303 1.1666,0.05118 1.6575,0.06448c0.43579,0.01181 0.82166,0.01859 1.72916,0.02084c0.63751,0.00159 1.46667,0 2.48734,-0.009l0.77866,-0.10532" id="svg_6" stroke-width="2" stroke="#000" fill="none"/>
  <path t="17892,18094,18094,18094,18110,18110,18110,18110,18110,18131,18131,18131,18131,18131,18146,18146,18146,18146,18146,18146,18163,18163,18163,18163,18163,18163,18179,18179,18179,18179,18179,18195,18196,18196,18196,18196,18196,18211,18211,18211,18211,18211,18211,18230,18230,18230,18230,18230,18231,18249,18249,18249,18250,18250,18250,18266,18266,18266,18266,18266,18283,18283,18283,18283,18283,18283,18300,18300,18300,18300,18301,18317,18317,18317,18333,18334,18334,18334,18334,18350,18350,18350,18350,18350,18350,18366,18367,18367,18367,18367,18384,18384,18384,18384,18384,18400,18400,18400,18400,18400,18417,18417,18417,18418,18418,18434,18434,18434,18434,18451,18451,18451,18451,18451,18468,18468,18468,18468,18468,18468,18485,18486,18486,18486,18486,18486,18503,18503,18503,18503,18503,18503,18520,18520,18520,18520,18537,18537,18537,18537,18537,18537,18554,18554,18554,18555,18555,18555,18574,18575,18575,18575,18576,18576,18592,18593,18593,18593,18593,18593,18593,18610,18610,18610,18610,18610,18611,18611,18611,18628,18628,18628,18628,18628,18628,18628,18645,18645,18645,18645,18645,18646,18663,18663,18663,18664,18664,18664,18681,18681,18681,18681,18681,18682,18682,18699,18699,18699,18699,18699,18700,18700,18716,18717,18717,18717,18717,18717,18717,18737,18737,18737,18737,18737,18737,18757,18757,18757,18758,18758,18758,18758,18777,18777,18777,18777,18777,18779,18779,18779,18779,18779,18779,18781,18781,18781,18781,18781,18802,18802,18803,18803,18803,18803,18803,18822,18822,18822,18822,18822,18823,18841,18841,18841,18841,18841,18841,18862,18863,18863,18863,18863,18887,18887,18887,18887,18888,18888,18912,18912,18912,18912,18912,18936,18936,18936,18937,18937,18939,18939,18939,18939,18939,18940,18941,18941,18942,18942,18942,18942,18967,18967,18967,18968,18968,18968,18970,18970,18970,18971,18971,18992,18993,18993,18993,19013,19013,19013,19014,19014,19014,19035,19035,19035,19036,19036,19036,19056,19056,19056,19057,19057,19057,19079,19079,19079,19080,19080,19080,19101,19101,19102,19102,19102,19102,19104,19104,19104,19105,19105,19105,19107,19107,19107,19107,19107,19108,19148,19148,19148,19148,19149,19149,19149,19188,19189,19189,19189,19189,19190,19190,19190,19190,19193,19194,19194,19194,19194,19194,19195,19195,19195,19233,19233,19233,19233,19234,19234,19234,19234,19234,19273,19273,19273,19273,19273,19274,19274,19274,19274,19278,19278,19278,19278,19279,19279,19279,19279,19279,19281,19282,19282,19282,19282,19283,19283,19283,19283,19356,19356,19356,19357,19357,19357,19357,19357,19358,19360,19360,19361,19361,19361,19361,19363,19363,19364,19364,19364,19364,19365,19365,19402,19403,19403,19403,19403,19404,19404,19404,19404,19406,19407,19407,19407,19407,19408,19408,19409,19409,19448,19448,19448,19448,19449,19449,19449,19449,19488,19489,19489,19489,19489,19490,19490,19490,19490,19493,19493,19494,19494,19494,19538,19538,19539" d="m3,265c0.48583,0 1.10417,0 2.20667,0c1.1935,0 1.99783,0 2.81417,0c0.41517,0 1.2645,0 2.60083,0c0.94,0 1.425,0 2.425,0c0.515,0 2.12,-0.00098 2.6745,0.00015c1.12701,0.00232 1.69374,0.00165 2.8175,0.03586c0.55165,0.01678 2.12884,0.1236 2.6185,0.18533c0.93479,0.11786 1.82119,0.28354 2.691,0.42599c0.43411,0.07111 1.77305,0.23529 2.709,0.3045c0.47869,0.0354 1.45679,0.0827 2.44417,0.2175c1.00274,0.1369 2.0011,0.39468 2.50317,0.53598c1.01863,0.28665 1.52483,0.47003 2.58084,0.72668c1.0752,0.26132 2.1981,0.40427 2.76733,0.45816c0.57216,0.05417 1.72221,0.12115 2.29467,0.15799c1.68666,0.10858 2.23223,0.16479 3.2955,0.3045c0.52172,0.06854 1.54581,0.22696 2.05267,0.29468c1.50261,0.20071 2.00354,0.24493 3,0.2955c0.98307,0.0499 1.46847,0.05069 2.41917,0.05582c1.36415,0.00739 2.23717,0.00134 3.10617,0.00134c0.4405,0 1.3485,0 2.82183,0c0.52533,0 1.608,0 2.15733,0c1.09467,0 1.632,0 3.15683,0c0.47116,0 1.3605,0 2.18583,0c0.76933,0 2.17333,0 2.832,0c0.978,0 1.992,0 2.71333,0c0.76933,0 1.59467,0 2.484,0c0.96133,0 1.99599,0 2.53333,0c1.09467,0 1.644,0 2.72667,0c1.03466,0 1.99879,-0.00711 2.90666,0.01068c0.8762,0.01718 1.74558,0.05899 2.628,0.15598c0.91927,0.10104 1.8586,0.25909 2.33334,0.33334c0.9472,0.14816 2.33208,0.34836 3.21467,0.41467c0.84837,0.06375 1.26439,0.07114 2.08083,0.08084c1.20442,0.01431 2.0045,0.00449 2.8045,0.00449c0.8,0 1.6,0 2.80017,0c0.80433,0 1.62067,0 2.457,0c1.30949,0 2.22692,-0.00226 2.6955,0.009c0.94762,0.02274 1.90508,0.04739 3.28067,0.32434c0.44968,0.09055 1.31749,0.37497 2.1875,0.66666c0.88799,0.29773 1.33661,0.49158 2.822,0.75699c0.52316,0.09348 1.61816,0.1781 2.178,0.20135c1.13049,0.04697 1.6965,0.04031 2.8125,0.04166c1.07999,0.00128 1.605,0 2.625,0c0.98,0 1.45499,0 2.82033,0c0.86867,0 1.72134,0 2.57401,0c1.314,0 1.769,0 2.709,0c0.98,0 1.485,0 2.525,0c1.08,0 2.19733,0 2.76599,0c0.57268,0 1.722,0 2.29468,0c1.68599,0 2.23132,0 3.29999,0c0.52734,0 1.578,0 2.10535,0c1.614,0 2.16899,0 2.73399,0c1.16,0 1.755,0 2.36,0c1.24001,0 2.52,0 3.17484,0c0.66383,0 2.0145,0 2.69933,0c0.68983,0 1.38367,0 2.08051,0c1.39867,0 2.79601,0 3.48967,0c0.68767,0 1.36732,0 2.037,0c0.65765,0 2.53867,0 3.129,0c1.12866,0 1.67099,0 2.72166,0c0.51233,0 2.02133,0 2.52167,0c1.00867,0 1.521,0 2.57167,0c0.54233,0 2.26132,0 2.87067,0c0.62532,0 1.90799,0 2.55733,0c0.64934,0 1.29466,0 3.16667,0c0.59067,0 1.16533,0 2.28267,0c0.55066,0 1.65599,0 2.21866,0c1.16533,0 2.39999,0 3.03734,0c0.64532,0 1.29466,0 2.58932,0c0.63734,0 1.87201,0 3.03601,0c0.55949,0 1.6485,0 2.18399,0c1.06801,0 2.15201,-0.00098 2.70667,0.00015c1.13133,0.00232 1.70422,0.00198 2.85333,0.03586c0.57281,0.01688 1.14395,0.02051 2.80383,0.18533c0.53719,0.05334 1.58551,0.20398 2.10068,0.27866c1.01633,0.14734 2.52029,0.33975 3.02066,0.37851c0.99477,0.07706 1.48933,0.09335 2.46417,0.11081c0.95056,0.01703 2.315,0.01068 2.75467,0.01068c0.87732,0 1.77866,0 2.73599,0c1.04533,0 1.6095,0 2.80783,0c0.62418,0 1.25833,0 2.53667,0c0.63417,0 1.86751,0 3.03017,0c0.55634,0 1.629,0 2.14934,0c1.01866,0 2.02133,0 3.02,0c0.49683,0 1.4805,0 2.44417,0c0.47183,0 1.83604,-0.00589 2.709,0.00449c0.86908,0.01035 1.75848,0.04559 2.2175,0.08084c1.47525,0.11328 1.99904,0.1958 3.08133,0.34c0.54953,0.07321 1.64331,0.22766 2.18134,0.29068c1.52338,0.17847 2.45799,0.23093 2.90666,0.24799c0.87575,0.03329 1.744,0.03534 3.08284,0.03601c0.93565,0.00046 1.41449,0 2.38916,0c0.99066,0 1.98933,0 2.99066,0c0.50317,0 1.5195,0 2.03467,0c1.04933,0 2.13068,0 3.248,0c0.56866,0 1.716,0 2.29068,0c0.57266,0 2.25867,0 2.80365,0c1.06,0 1.57501,0 2.57501,0c0.95999,0 1.88,0 2.76132,0c0.84933,0 1.67468,0 2.48401,0c1.20151,0 2.00583,0 2.82217,0c0.83633,0 2.14581,0 3.06448,0c0.47183,0 1.43552,0 2.41916,0c0.49686,0 1.99567,0 2.49686,0c1.00934,0 1.5195,0 2.55582,0c0.52817,0 2.16434,0 2.72818,0c1.15067,0 1.7355,0 2.32532,0c1.19067,0 2.38934,0 2.98901,0c1.19131,0 1.77899,0 2.92834,0c0.55765,0 2.13864,0 2.6293,0c0.93735,0 1.84268,0 2.29333,0c0.91736,0 2.39218,0 2.91867,0c1.09201,0 1.65152,0 2.7825,0c0.56552,0 1.68152,0 2.76285,0c0.52817,0 1.56448,0 2.58084,0c0.50314,0 2.00632,0 2.51917,0c1.10266,0 1.71448,0 2.38132,0c0.73285,0 1.54266,0 3.43735,0c1.1015,0 2.29199,0 3.55048,0c1.30551,0 2.63702,0 3.97351,0c1.3205,0 2.604,0 4.97601,0c1.05115,0 2.00934,0 2.8815,0c0.79315,0 1.51431,0 2.1705,0c0.59814,0 1.14532,0 2.11465,0c0.43765,0 0.86133,0 1.28699,0c0.44366,0 0.92136,0 1.44901,0c0.59369,0 1.26935,0 2.93066,0c1.01117,0 2.12933,0 3.33151,0c1.26315,0 2.56433,0 3.88049,0c1.30817,0 2.58533,-0.00037 4.95468,0c1.05167,0.00018 2.01337,-0.00085 2.89499,0.009c0.81171,0.00909 1.56369,0.02539 2.26501,0.06299c0.66205,0.03549 1.29745,0.07019 2.50665,0.26135c0.60208,0.09518 1.19839,0.23016 1.79099,0.37198c0.58878,0.1409 1.16727,0.29507 1.73703,0.444c0.55756,0.14575 1.0968,0.30368 2.13864,0.51733c0.48874,0.10022 0.96457,0.16925 1.42801,0.21902c0.45404,0.04877 0.90518,0.07672 1.35599,0.09299c0.45456,0.01642 0.91736,0.01999 1.88269,0.02133c1.03598,0.00143 1.57648,0 2.6875,0c0.56448,0 1.13098,0 2.8125,0c0.547,0 1.659,0 2.24799,0c0.62701,0 1.30402,0 2.043,0c0.81302,0 2.70901,0 3.81018,0c1.18817,0 2.44034,0 3.73349,0c1.31116,0 2.61734,0 3.89551,0c1.22717,0 3.43649,0 4.37848,0c0.83401,0 1.57202,0 2.22601,0c0.582,0 1.104,0 1.578,0c0.43799,0 1.254,0 1.655,0c0.40701,0 0.82599,0 1.263,0c0.461,0 0.952,0 2.048,0c1.28799,0 2.01584,0 2.79065,0c0.80884,0 1.63867,0 2.4765,0c0.83286,0 1.64767,0 2.43152,0c1.42267,0 2.59198,0 3.08917,0c0.85431,0 1.89081,0 2.80032,0l0.91049,0l0.62534,0" id="svg_7" stroke-width="2" stroke="#000" fill="none"/>
  <path t="19956,20060,20061,20061,20061,20077,20077,20077,20077,20077,20095,20095,20095,20095,20095,20110,20110,20110,20110,20110,20111,20128,20128,20128,20128,20128,20128,20128,20143,20144,20144,20144,20144,20144,20144,20160,20160,20160,20160,20160,20160,20160,20160,20177,20177,20177,20177,20177,20177,20177,20178,20194,20194,20194,20194,20201,20201,20201,20217,20217,20217,20218,20218,20218,20218,20234,20234,20234,20234,20234,20234,20250,20250,20250,20250,20250,20250,20250,20250,20265,20265,20265,20265,20265,20265,20265,20265,20283,20283,20283,20283,20283,20283,20283,20301,20301,20301,20302,20302,20302,20302,20317,20317,20317,20317,20317,20317,20317,20332,20332,20332,20332,20332,20333,20333,20333,20348,20348,20349,20349,20349,20349,20349,20349,20364,20364,20364,20364,20364,20364,20380,20380,20380,20380,20380,20381,20381,20396,20397,20397,20397,20397,20397,20397,20397,20425,20426,20426,20426,20426,20426,20426,20426,20453,20453,20453,20453,20453,20453,20453,20453,20453,20480,20480,20481,20481,20481,20481,20481,20481,20508,20508,20508,20508,20508,20508,20510,20510,20511,20511,20511,20511,20512,20512,20513,20513,20513,20513,20513,20514,20514,20515,20515,20515,20515,20515,20515,20541,20542,20542,20543,20543,20543,20543,20570,20570,20570,20570,20570,20570,20570,20601,20601,20601,20601,20602,20629,20629,20629,20629,20629,20630,20631,20631,20631,20631,20632,20632,20632,20632,20633,20633,20634,20634,20634,20634,20634,20635,20636,20636,20636,20636,20636,20636,20669,20670,20670,20670,20670,20672,20672,20672,20672,20672,20706,20706,20706,20706,20708,20708,20708,20711,20711,20745" d="m175,260c4.8,0 5.60001,0 6,0c1.2,0 2,0 2.80133,0c0.80934,0 1.63467,0 2.48401,0c1.33617,0 2.27182,0 2.75066,0c0.97467,0 1.96533,0 2.964,0c1.00133,0 1.5045,0 2.52083,0c0.51517,0 1.5645,0 2.64584,0c1.12,0 1.69499,0 2.875,0c0.605,0 1.22,0 1.845,0c1.93483,0 2.59866,0 3.27049,0c0.67883,0 1.36366,0 2.74733,0c0.69684,0 2.0955,0 2.7955,0c0.7,0 1.40001,0 2.10001,0c1.39999,0 2.09999,0 2.8,0c1.39999,0 2.09982,0 2.79866,0c0.69684,0 2.08051,0 2.76534,0c0.67883,0 1.35066,0 2.66933,0c1.28134,0 1.9095,0 2.53067,0c1.22534,0 1.8315,0 2.43466,0c1.20134,0 2.40134,0 3.00134,0c0.59999,0 1.8,0 2.39999,0c0.60001,0 2.40018,-0.00082 3.00134,0.00134c0.60316,0.00217 1.81956,0.0166 2.43466,0.03467c0.62126,0.01822 2.53098,0.12711 3.1855,0.18533c0.66417,0.05908 1.33572,0.13077 2.0145,0.20398c1.37479,0.14825 2.06802,0.22708 2.76534,0.29068c1.39778,0.1275 2.0983,0.16644 2.79733,0.19867c0.69667,0.0321 2.08047,0.06644 2.76534,0.07465c0.67882,0.00815 1.35066,0.01001 2.66933,0.01068c1.28133,0.00064 1.9095,0 2.53069,0c0.61514,0 1.83148,0 2.43466,0c1.20132,0 2.40134,0 3.00131,0c0.60001,0 1.80002,0 2.40002,0c0.59998,0 2.40033,0 3.00266,0c0.60632,0 1.83899,0 2.46933,0c0.64233,0 1.29868,0 3.37085,0c0.7265,0 1.46698,0 2.21848,0c0.75952,0 1.52402,0 2.2905,0c0.7655,0 2.28152,0 3.02634,0c0.73386,0 1.45569,0 2.16452,0c1.37466,0 2.03848,0 2.68533,0c1.23865,0 2.40399,0 2.96664,0c1.10535,0 1.65601,0 2.77335,0c1.16534,0 1.77484,0 2.40134,0c1.29199,0 1.95151,0 2.616,0c0.6665,0 2.64801,0 3.29349,0c0.63852,0 1.27301,0 2.54202,0c0.6405,0 1.289,0 1.94849,0c1.36401,0 2.07367,0 3.54501,0c0.75766,0 1.52731,0 2.30698,0c0.78769,0 1.58136,0 3.17868,0c0.79984,0 1.59866,0 2.39551,0c0.79382,0 1.58365,0 2.3685,0c0.77884,0 1.55066,0 3.06934,0c0.74481,0 1.47867,0 2.2005,0c0.70883,0 1.40366,0 2.74731,0c0.64685,0 1.8855,0 3.04819,0c0.55634,0 1.629,0 2.14932,0c1.01868,0 2.02133,0 3.02399,0c0.50635,0 1.539,0 2.06934,0c1.09866,0 2.26135,0 3.49869,0c0.64365,0 1.30133,0 1.97098,0c0.67969,0 1.36734,0 3.45834,0c0.69983,0 1.39868,0 2.09549,0c0.69385,0 1.38367,0 2.74734,0c0.67184,0 1.99051,0 2.63565,0c1.26434,0 1.88553,0 2.50067,0c0.61017,0 1.81952,0 3.02084,0c0.59982,0 1.7955,0 2.38934,0c0.58981,0 1.75348,0 2.32532,0c1.66385,0 2.20001,0 3.24933,0c0.51517,0 1.53152,-0.00024 3.03601,0c0.50034,0.00009 1.50906,0.0014 2.02133,0.01068c1.05078,0.01901 1.59454,0.02426 3.31201,0.15598c0.61029,0.04681 1.23749,0.11597 1.88098,0.186c1.32764,0.1445 2.00677,0.22427 2.69467,0.29468c0.69342,0.07095 2.09073,0.19043 2.79068,0.23117c0.69742,0.04059 2.07892,0.08789 2.75867,0.10065c0.66962,0.01254 1.32733,0.01859 3.20831,0.02084c0.59033,0.0007 1.16269,0 2.26135,0c0.53033,0 1.56299,0 2.06934,0c1.5025,0 2.49817,0 2.99197,0c0.97467,0 1.92535,0 2.84402,0c0.88132,0 1.73065,0 2.556,0c0.80933,0 2.0105,0 2.80615,0c0.78366,0 1.54733,0 2.98267,0c0.65567,0 1.53918,0 2.48849,0l0.91202,0l0.832,0" id="svg_8" stroke-width="2" stroke="#000" fill="none"/>
 </g>
 <g display="none">
  <title>muse_image</title>
  <image xlink:href="http://farm4.static.flickr.com/3351/3270937566_4df4ea6bac.jpg" id="muse" height="424" width="640" y="28" x="0"/>
 </g>
 <g display="none">
  <title>bbox</title>
  <rect stroke="#f00" fill="none" stroke-width="3" height="209.44578" width="537.6" y="194.0241" x="5.12" id="bbox"/>
 </g>
</svg>
