<svg width="640" height="480" xmlns="http://www.w3.org/2000/svg" xmlns:svg="http://www.w3.org/2000/svg" xmlns:xlink="http://www.w3.org/1999/xlink">
 <!-- Sketchy ANNOTATION
  ImageNet ID: n02676566_2866
  URL: http://www.roscalen.com/ashtar/Rotherham050507/FernandaGuitar.jpg
  Image Width: 612
  Image Height: 550
  BBox X: 9
  BBox Y: 184
  BBox Width: 587
  BBox Height: 365
  Exposure: 2000ms
  Synset Label: guitar
  Synset ID: n03467517
  Worker Tag: Guitar
  Sanity Check: 
   Saved
  Comment: 
   {}
  Worker ID: AIH9VLD92GHFH
  Assignment ID: 3J4Q2Z4UTY3M840821QZBZC8MUDQW2
  HIT ID: 382GHPVPHSRG5HDS4I3IEF5LPVL346
  Work Time: 61s
  Worker Score: 0.7857
 END ANNOTATION -->
 <g display="inline">
  <title>Layer 1</title>
  <path t="0,198,201,201,214,214,231,231,231,251,251,251,265,265,281,282,298,298,298,313,314,331,332,332,332,348,348,348,364,364,364,365,381,381,385,398,398,398,414,414,414,430,431,448,448,464,464,464,480,481,498,498,514,515,530,531,548,548,548,564,564,580,581,598,598,598,614,614,630,631,631,648,648,648,664,664,680,698,698,698,714,714,730,731,748,749,749,764,764,764,781,781,798,798,814,815,815,815,830,831,831,848,848,848,864,865,881,881,881,897,898,913,913,913,930,930,947,947,947,964,965,980,998,998,998,1014,1014,1014,1030,1048,1048,1048,1064,1064,1080,1081,1081,1098,1098,1114,1114,1130,1131,1131,1148,1148,1164,1164,1180,1181,1197,1198,1198,1214,1215,1231,1231,1248,1248,1248,1264,1264,1265,1280,1281,1281,1297,1298,1298,1314,1315,1330,1331,1331,1348,1348,1348,1364,1364,1365,1380,1381,1381,1428,1429,1429,1431,1431,1432,1433,1433,1434,1434,1447,1464,1464,1465,1480,1481,1481,1497,1498,1498,1514,1514,1515,1531,1531,1531,1547,1548,1548,1564,1564,1565,1580,1581,1597,1598,1599,1599,1614,1630,1631,1631,1647,1648,1648,1664,1664,1680,1681,1682,1697,1698,1698,1714,1714,1715,1715,1730,1731,1731,1748,1749,1749,1749,1764,1764,1765,1765,1780,1781,1798,1798,1799,1799,1814,1814,1815,1830,1831,1831,1847,1848,1848,1864,1864,1865,1865,1880,1881,1881,1882,1899,1899,1913,1913,1913,1914,1930,1931,1932,1949,1949,1950,1950,1966,1966,1967,1980,1981,1981,1982,1997,1998,1999,2014,2015,2015,2030,2031,2047,2048,2049,2064,2065,2080,2081,2081,2098,2099,2099,2114,2114,2115,2130,2131,2132,2148,2149,2149,2164,2164,2165,2181,2182,2182,2197,2198,2199,2214,2215,2215,2230,2231,2232,2232,2247,2248,2264,2264,2265,2280,2281,2282,2297,2298,2313,2314,2315,2330,2331,2332,2347,2348,2364,2365,2365,2380,2381,2382,2397,2398,2414,2415,2430,2431,2432,2432,2447,2448,2449,2464,2464,2465,2480,2481,2482,2482,2497,2498,2499,2499,2513,2514,2515,2515,2530,2531,2532,2532,2547,2548,2564,2564,2565,2565,2580,2581,2582,2582,2597,2598,2599,2599,2614,2615,2615,2616,2630,2631,2632,2647,2648,2649,2649,2650,2663,2665,2665,2680,2681,2682,2682,2697,2698,2699,2699,2713,2714,2715,2730,2731,2732,2747,2748,2764,2765,2780,2781,2782,2797,2798,2813,2814,2815,2830,2831,2847,2848,2863,2864,2865,2880,2936,2936,2939" d="m212,303c-6.371,-4.83533 -6.99219,-5.39664 -7.536,-6.13199c-0.60492,-0.81799 -1.10756,-1.50925 -2.00667,-1.96817c-0.6886,-0.35147 -1.51517,-0.57056 -2.31467,-1.22101c-0.54056,-0.43979 -1.06128,-1.24304 -2.14801,-1.569c-0.72253,-0.21671 -1.66133,-0.27649 -2.49466,-0.60983c-0.83333,-0.33334 -1.75653,-0.43115 -2.49466,-0.55267c-1.04927,-0.17273 -1.64246,-0.6123 -2.54834,-1.26849c-0.46457,-0.33652 -1.25891,-0.85989 -1.85966,-1.1095c-1.16693,-0.48483 -1.80809,-0.5072 -2.7545,-0.61749c-1.0096,-0.11765 -1.73058,-0.21463 -2.82201,-0.47269c-0.71463,-0.16898 -1.70206,-0.44254 -2.5065,-0.78366c-0.70723,-0.2999 -1.51433,-0.86215 -2.11433,-1.34366c-0.79999,-0.642 -1.58525,-1.18423 -2.42082,-1.31018c-0.65822,-0.09921 -1.66374,-0.00412 -2.45834,-0.0625c-1.19321,-0.08765 -1.83057,-0.51755 -2.85416,-0.8125c-0.65497,-0.18872 -1.45099,-0.04932 -2.52383,-0.388c-0.79709,-0.25162 -1.6241,-0.73157 -2.49017,-0.77417c-0.90341,-0.04446 -1.62199,-0.00449 -2.66249,-0.00449c-0.77551,0 -1.8235,0 -2.75418,0c-0.63148,0 -1.63466,0 -2.57883,0c-0.9135,0 -1.71184,0 -2.70917,0c-0.62399,0 -1.59,0 -2.68384,0c-0.90416,0 -1.80716,0 -2.53616,0c-0.83699,0 -2.0278,-0.00882 -2.619,0.00449c-0.83737,0.01883 -1.96387,0.22122 -2.68765,0.57019c-0.84023,0.40509 -1.76483,0.56009 -2.42218,0.78699c-0.72539,0.2504 -1.69739,0.93332 -1.95749,1.63834c-0.35074,0.95071 -0.69872,1.63513 -1.58417,2.10034c-0.67972,0.35712 -1.55516,0.58884 -2.09317,1.44232c-0.4035,0.64011 -0.3101,1.73923 -0.7215,2.64749c-0.33945,0.74942 -0.9884,1.45654 -1.20683,2.0925c-0.35234,1.02585 -0.37665,2.01941 -0.45683,2.6965c-0.07813,0.65973 -0.37369,1.79694 -1,2.5c-0.46286,0.51956 -1.12041,1.27786 -1.45834,2.04169c-0.34721,0.78479 -0.74141,1.785 -1,2.45831c-0.38739,1.0087 -0.41316,1.84808 -0.69016,2.62085c-0.30161,0.8414 -1.0822,1.54251 -1.49734,2.39999c-0.3682,0.76053 -0.35072,1.62027 -0.6905,2.60001c-0.21342,0.61539 -0.71545,1.61517 -1.0535,2.18933c-0.43981,0.74698 -1.28899,1.38809 -1.8795,1.90616c-0.73113,0.64142 -1.13712,1.63953 -1.58183,2.1405c-0.51916,0.58484 -1.31785,1.37402 -1.91733,1.94266c-0.54459,0.51657 -1.55499,0.97519 -2.21067,1.55469c-0.64628,0.5712 -0.81359,1.26883 -1.65717,1.90948c-0.69582,0.52844 -1.55621,0.83282 -2.34283,1.27802c-0.61098,0.34579 -1.41377,0.94678 -2.164,1.65381c-0.68342,0.64407 -1.16013,1.32608 -2.16933,1.65869c-0.64735,0.21335 -1.46842,-0.00143 -2.52367,0.38834c-0.78562,0.29019 -1.26547,1.32071 -1.779,1.91699c-0.6025,0.69962 -1.39828,0.7804 -2.364,1.02798c-0.81445,0.2088 -1.59001,0.59781 -2.6,0.78067c-0.794,0.14377 -1.82181,0.29315 -2.4,0.59433c-1.04586,0.5448 -1.57578,1.13773 -2.2,1.59702c-0.77206,0.56808 -1.60869,0.82224 -2.48534,0.85867c-0.99915,0.04153 -1.83726,0.00183 -2.41917,0.05981c-1.20045,0.11963 -2.07397,0.3689 -2.6235,0.51752c-1.12893,0.30533 -1.92273,0.41061 -2.81483,0.42548c-0.97809,0.0163 -1.78687,0.03082 -2.77317,0.28384c-0.69479,0.17825 -1.35796,0.49182 -2.36933,0.63068c-0.8302,0.11398 -1.71618,0.06705 -2.91333,0.08798c-0.59087,0.01031 -1.48965,-0.00711 -2.48,0.44019c-0.74014,0.33429 -1.33758,0.9693 -2.34283,1.53549c-0.51881,0.29221 -1.37736,0.63104 -2.5785,0.85501c-0.59281,0.11053 -1.47047,0.09061 -2.22933,0.25067c-1.13878,0.2402 -1.93121,0.9263 -2.61733,1.32666c-0.6097,0.35574 -1.57822,0.90479 -2.1015,1.242c-0.79627,0.51312 -1.69826,1.20853 -2.2465,1.58566c-0.74773,0.51437 -1.57554,0.68198 -2.347,0.76166c-0.86051,0.08887 -2.0647,0.26053 -2.64767,0.44666c-0.86667,0.2767 -1.9029,0.85651 -2.57467,1.37869c-0.43454,0.3378 -1.42837,1.16479 -2.02533,1.53867c-0.71665,0.44882 -1.45016,0.96414 -2.07767,1.39316c-0.87464,0.59799 -1.49352,0.88312 -2.421,1.41748c-0.57915,0.33368 -1.38909,1.18692 -2.212,1.82535c-0.50396,0.39099 -1.39167,0.51511 -2,1.33334c-0.59773,0.80396 -0.43548,1.6925 -0.784,2.69867c-0.22372,0.64587 -0.60854,1.50931 -0.69067,2.23999c-0.09389,0.83536 -0.20847,2.03848 -0.472,2.91733c-0.17477,0.58286 -0.7065,1.65329 -1.2015,2.358c-0.32233,0.45889 -0.89951,1.09772 -1.18117,2.13934c-0.2257,0.83469 -0.16635,1.79999 -0.17083,2.83466c-0.00317,0.73132 0.00388,1.48026 -0.057,2.22601c-0.1172,1.43564 -0.27362,2.09872 -0.5535,3.00598c-0.17438,0.56528 -0.63545,1.54501 -0.95333,2.47202c-0.31759,0.92615 -0.39533,1.73108 -0.42533,2.58533c-0.02074,0.59036 0.03454,1.79141 -0.05233,2.66849c-0.08333,0.84128 -0.52633,1.83685 -0.95833,2.52084c-0.432,0.68399 -0.81213,1.41187 -0.928,2.23599c-0.12123,0.8623 -0.072,2.06418 -0.072,2.66852c0,0.93149 0,1.58081 0,2.97815c0,0.73199 0,1.45599 0,2.14801c0,1.19998 0.00271,2.18399 0,3.13599c-0.00225,0.7905 -0.0122,1.64648 -0.08533,2.23468c-0.15007,1.20703 -0.42912,2.11633 -0.562,2.75583c-0.20882,1.005 -0.28696,1.72452 -0.33183,2.82199c-0.02905,0.7106 -0.02083,1.6875 -0.02083,2.5155c0,1.01068 0,1.83868 0,2.81519c0,0.711 0,1.44199 0,2.8685c0,0.66 0,1.57498 0,2.655c0,0.7095 0,1.56216 0,2.56665c0,0.80002 0,1.80017 0,2.62085c0,0.66449 -0.03754,1.66373 0.02083,2.45831c0.08766,1.19321 0.47456,1.85547 0.69517,2.57419c0.29932,0.97516 0.21654,1.64124 0.39383,2.64581c0.17258,0.97787 0.59817,1.78479 1.0395,2.47952c0.52049,0.81934 0.77327,1.6348 0.93333,2.50665c0.18424,1.00357 0.34472,1.55338 0.62183,2.41916c0.38377,1.19904 0.54331,1.81125 0.9315,2.6235c0.46496,0.97287 1.06155,1.41913 1.71133,2.07733c0.68202,0.69086 0.98582,1.47763 1.4625,2.18933c0.47404,0.70776 1.21675,1.16702 1.9395,1.65601c0.94709,0.64075 1.45383,1.34543 1.709,1.84933c0.36443,0.71967 0.91143,1.89615 1.51233,2.29733c0.7439,0.49664 1.58946,0.65521 2.26133,1.17334c0.89291,0.6886 1.15136,1.57678 1.65067,2.17599c0.66246,0.79501 1.54306,0.8223 2.51867,1.13998c0.63701,0.20743 1.28963,0.59067 2.28133,1.19601c0.80112,0.48901 1.25779,0.9166 2.34933,1.34799c0.7471,0.29526 1.74065,0.44827 2.50967,0.69019c0.56884,0.17892 1.75711,0.5817 2.34933,0.77466c0.83576,0.27234 1.96057,0.63242 2.72367,0.69382c0.86929,0.06992 1.66314,-0.00449 2.80683,0.45334c0.55387,0.22171 1.37267,0.74411 1.97984,0.98935c1.1701,0.47263 1.79024,0.49039 2.64149,0.61615c1.03912,0.15353 1.97403,0.48355 2.7265,0.75317c0.86909,0.31143 1.54332,0.49411 2.2515,0.71951c1.10107,0.35046 2.16022,0.79547 2.8265,1.12732c0.65505,0.32623 1.27959,0.72037 2.31933,1.01849c1.06582,0.3056 1.83394,0.3063 2.58067,0.3815c1.08695,0.10947 1.76852,0.2251 2.71101,0.45184c0.8574,0.20627 1.85571,0.44077 2.54166,0.47916c1.16502,0.06522 1.96167,0.02084 2.54166,0.02084c0.945,0 1.97967,0 2.71101,0c1.12199,0 1.86333,0 2.92599,0c0.66867,0 1.64667,0 2.30534,0c1.39867,0 2.13067,0 2.85467,0c0.692,0 1.896,0 2.703,0c0.897,0 2.04367,0 2.49434,0c0.96533,0 1.96266,0 2.45333,0c1.344,0 2.3865,0 3.204,0c0.97333,0 1.76833,0 2.34833,0c0.945,0 1.97967,0 2.71101,0c1.12199,0 1.86333,0 2.92567,0c0.66,0 1.575,0 2.655,0c0.93066,0 1.56216,0 2.56666,0c0.8,0 1.80017,0 2.62083,0c1.14584,0 1.92734,0 2.71783,0c0.92801,0 1.91965,-0.00241 2.804,-0.22134c0.71521,-0.17706 1.43506,-0.50345 2.48933,-0.69333c0.76523,-0.13782 1.7431,-0.0181 2.468,-0.12698c1.18924,-0.17865 1.75592,-0.87549 2.29733,-1.39035c0.64835,-0.61655 1.68666,-0.56799 2.55,-0.56799l0.89549,0" id="svg_1" stroke-width="2" stroke="#000" fill="none"/>
  <path t="3715,3946,3947,3964,3964,3980,3997,3997,3997,4014,4030,4030,4048,4048,4080,4080,4097,4097,4097,4113,4130,4147,4148,4148,4163,4164,4180,4181,4181,4213,4214,4214,4230,4230,4230,4247,4247,4263,4264,4280,4280,4296,4296,4313,4347,4347,4348,4348,4363,4364,4380,4380,4397,4413,4447,4447,4480,4513,4547,4547,4563,4580,4597,4613,4630,4630,4631,4647,4647,4647,4663,4663,4680,4697,4697,4697,4713,4714,4730,4730,4730,4747,4747,4747,4763,4764,4780,4780,4780,4797,4797,4813,4814,4830,4830,4847,4863,4864,4880,4880,4897,4897,4914,4946,4946,4946,4963,4963,4980,4980,4996,4997,4997,5013,5014,5030,5030,5047,5047,5063,5080,5080,5097,5097,5113,5130,5131,5147,5148,5163,5164,5164,5180,5197,5213,5214,5230,5230,5247,5247,5264,5264,5280,5297,5313,5314,5330,5330,5347,5364,5364,5397,5397,5413,5414,5430,5430,5447,5447,5463,5464,5464,5480,5480,5497,5497,5513,5514,5530,5547,5547,5563,5564,5580,5580,5613,5614,5614,5629,5629,5663,5664,5720,5720,5720,5723,5723,5725,5742,5759,5776,5777,5791,5791,5806,5806,5827,5842,5842,5857,5872,5887,5888,5903,5903,5918,5919,5934,5934,5953,5954,5975,5975,5992,5992,6008,6009,6009,6009,6025,6025,6041,6041,6041,6042,6057,6057,6057,6057,6074,6074,6090,6090,6090,6107,6107,6107,6123,6123,6123,6139,6139,6139,6139,6156,6156,6171,6171,6172,6187,6187,6188,6203,6203,6203,6204,6220,6220,6220,6236,6237,6237,6237,6252,6252,6253,6269,6269,6269,6269,6285,6285,6285,6285,6301,6302,6302,6318,6318,6335,6335,6352,6352,6368,6384,6384,6413,6430,6479,6480,6496,6497,6529,6596" d="m228,320c5.07584,1.88568 5.88,1.99866 6.82533,2c0.69067,0.00098 1.6955,0 2.71733,0c0.70801,0 1.452,0 2.64301,0c0.81433,0 1.69966,0 2.65033,0c0.76534,0 1.76851,-0.00003 2.39999,0c1.18501,0.00009 1.98308,-0.09744 2.69701,0.05716c1.0137,0.21954 1.62944,0.9252 2.60966,0.94299c0.70796,0.01285 1.51122,-0.12808 2.48801,0.2865c0.7921,0.33618 1.4444,1.20822 1.99016,1.71335c0.57001,0.52756 1.38383,1.11227 2.00002,1.52084c0.66815,0.44302 1.66364,1.2438 2.19382,1.71915c0.52579,0.47137 1.41086,1.33841 2.12399,1.66269c0.94043,0.42764 1.70584,0.548 2.49469,1.09732c0.66763,0.46494 0.92004,1.35388 1.19199,2.13867c0.30075,0.86795 1.33307,1.15424 1.97549,1.58017c0.74438,0.49353 1.28754,0.89651 1.74451,1.96249c0.31744,0.74051 0.54202,1.72473 0.97067,2.39999c0.41455,0.65305 0.284,1.67584 0.284,2.57135c0,0.86331 0,1.82648 0,2.65182c0,1.01682 0.11749,1.70261 -0.00015,2.67383c-0.11148,0.92038 -0.67163,1.57135 -1.36603,1.96451c-0.84308,0.47736 -1.64816,0.05716 -2.45514,0.05716c-1.17868,0 -2.06967,0 -2.90668,0c-0.93866,0 -1.74496,-0.14722 -2.69333,0.02133c-0.94904,0.16867 -1.57861,0.69315 -2.328,1.12799c-0.91092,0.52856 -1.59802,0.81467 -2.584,0.85068c-0.68054,0.02487 -1.48801,-0.00296 -2.66667,0c-0.89102,0.00226 -1.48477,-0.12399 -2.66667,0.16666c-0.70891,0.17435 -1.66206,0.7001 -2.33867,0.77618c-0.74077,0.08328 -1.85199,0.05667 -2.64532,0.05716c-1.116,0.00067 -1.90292,-0.2428 -2.84933,0.16666c-0.70619,0.30551 -1.57266,0.52612 -2.25734,1.27618c-0.53821,0.58963 -0.62428,1.62067 -1.26349,2.0155c-0.8898,0.54962 -1.82823,0.55447 -2.5,1.08331c-0.70618,0.55594 -1.32526,1.27597 -1.82651,1.86285c-0.65932,0.77197 -1.01552,1.65631 -1.65266,2.26215c-0.55234,0.52521 -1.34705,0.97781 -1.81467,1.62c-0.50424,0.69247 -1.00354,1.74792 -1.23351,2.46152c-0.29318,0.90976 -0.62823,1.61798 -1.1505,2.36649c-0.4903,0.70267 -0.79713,1.56409 -1.36932,2.36935c-0.3898,0.54858 -1.24184,1.30835 -1.423,2.21149c-0.16243,0.80975 -0.31068,1.78134 -0.58366,2.47916c-0.36525,0.93369 -0.4541,1.6413 -0.70934,2.59335c-0.19762,0.73718 -0.53468,1.44571 -0.68001,2.56c-0.12637,0.96896 0.08263,1.85315 -0.07767,2.672c-0.16962,0.86646 -1.15205,1.29929 -1.71533,2.10016c-0.40123,0.57047 -0.12447,1.57306 -0.32832,2.41583c-0.21481,0.88803 -0.86414,1.68289 -0.91467,2.65067c-0.03436,0.65787 -0.18655,1.65628 -0.57466,2.42267c-0.41066,0.81091 -0.42413,1.73199 -0.42534,2.58533c-0.00134,0.94 -0.17558,1.61871 -0.85066,2.24667c-0.58563,0.54477 -1.07272,1.58026 -1.12801,2.328c-0.06766,0.91507 0.00484,1.7608 -0.24266,2.79333c-0.17175,0.71652 -0.50348,1.43506 -0.69334,2.48935c-0.1378,0.76523 -0.08533,1.73599 -0.08533,2.46799c0,1.16666 0.08646,1.96323 -0.0045,2.8045c-0.11177,1.03366 -0.52493,1.68433 -0.82883,2.52884c-0.30656,0.85193 -0.92834,1.41599 -1.51851,1.98099c-0.69394,0.66437 -1.04054,1.42255 -1.2865,2.18033c-0.33113,1.02017 -0.38947,1.91052 -0.72333,2.66251c-0.34396,0.77475 -0.96922,1.53497 -1.453,2.14282c-0.62878,0.79001 -0.86996,1.64648 -1.23351,2.48569c-0.32899,0.75949 -0.9778,1.32465 -1.37717,2.125c-0.45422,0.91028 -0.38792,1.70807 -1.0175,2.56781c-0.45178,0.61694 -1.36436,1.0589 -2.03633,1.50067c-0.78822,0.51819 -1.47188,1.08728 -1.51633,1.87268c-0.05009,0.88513 -0.47649,1.54636 -1.32567,1.86984c-0.68375,0.26047 -1.39433,0.92825 -1.658,1.77832c-0.29863,0.9628 -0.62611,1.5946 -1.32533,2.3045c-0.57642,0.58521 -1.1795,1.17947 -1.87016,1.87015c-0.65868,0.65869 -1.17757,1.20132 -1.92566,1.92551c-0.56296,0.54498 -1.23524,1.06345 -1.90501,1.55701c-0.74651,0.55011 -1.27936,0.89462 -2.02666,1.74283c-0.66855,0.75882 -1.28311,1.62097 -1.73866,1.99869c-0.74294,0.616 -1.31604,0.98782 -2.52917,1.5798c-0.58566,0.2858 -1.46623,0.6055 -2.01483,0.82019c-1.00388,0.39288 -1.90254,0.79697 -2.68533,1.36798c-0.62383,0.45505 -1.16524,1.05264 -2,1.66669c-0.7805,0.57413 -1.45061,0.87817 -2.42149,1.26682c-0.80925,0.32394 -1.4081,0.4953 -2.57851,1.0665c-0.60788,0.29666 -1.19267,0.63766 -1.98567,1.18066c-0.88795,0.60803 -1.47838,1.19434 -2.34766,1.65268c-0.65302,0.3443 -1.44128,0.60986 -2.5,0.83334c-0.70818,0.14948 -1.64369,0.21262 -2.58817,0.60931c-0.8399,0.35278 -1.37259,0.74429 -1.97984,0.98935c-1.17261,0.47321 -2.1198,0.54434 -2.75583,0.61615c-1.01003,0.11404 -2.0914,0.30252 -2.82201,0.45184c-0.7114,0.14542 -1.68381,0.3663 -2.51549,0.44284c-1.0078,0.09274 -1.83867,0.05716 -2.81517,0.05716c-0.711,0 -1.442,0 -2.86867,0c-0.66434,0 -1.30067,0 -2.22017,0c-1.2,0 -2.08051,0 -2.64417,0c-1.27184,0 -1.93634,0 -2.95717,0c-0.78934,0 -1.83333,0 -2.6955,0c-0.82533,0 -1.7885,0 -2.47917,0c-1.06816,0 -1.92534,0 -2.82533,0c-0.88533,0 -1.82533,0 -2.51601,0l-1.07333,0l-0.82132,0" id="svg_2" stroke-width="2" stroke="#000" fill="none"/>
  <path t="7718,8147,8162,8163,8178,8196,8196,8196,8213,8213,8213,8229,8246,8246,8247,8263,8263,8296,8296,8313,8346,8379,8379,8397,8397,8429,8448,8448,8479,8612,8612,8662,8696,8713,8713,8730,8730,8746,8747,8763,8763,8779,8780,8796,8797,8797,8813,8830,8847,8847,8863,8863,8879,8880,8933,8934,8934,8936,8936,8937,8937,8952,8952,8952,8970,8988,8988,8988,9003,9003,9016,9029,9029,9046,9047,9047,9063,9063,9079,9080,9096,9097,9097,9113,9113,9113,9129,9130,9146,9147,9147,9147,9163,9163,9163,9179,9180,9180,9196,9197,9197,9212,9213,9229,9230,9230,9246,9247,9247,9263,9263,9263,9263,9279,9280,9296,9297,9297,9313,9313,9313,9329,9330,9330,9346,9347,9347,9363,9363,9363,9380,9380,9396,9397,9397,9397,9417,9417,9417,9439,9439,9439,9462,9462,9463,9484,9484,9484,9506,9506,9526,9526,9527,9527,9546,9547,9548,9548,9549,9550,9550,9568,9568,9569,9588,9589,9589,9609,9609,9609,9629,9629,9629,9629,9631,9631,9631,9631,9650,9651,9651,9651,9671,9671,9672,9672,9691,9691,9691,9712,9712,9712,9712,9714,9714,9714,9734,9734,9734,9754,9754,9754,9778,9779,9779,9779,9781,9782,9806,9806,9807,9807,9827,9828,9828,9828,9849,9849,9849,9849,9869,9869,9870,9870,9889,9889,9890,9910,9910,9910,9911,9931,9931,9931,9931,9933,9933,9933,9935,9935,9956,9957,9981,9981,9981,9981,9983,9983,9983,10006,10006,10007,10007,10007,10028,10028,10029,10029,10030,10031,10031,10031,10052,10053,10053,10053,10073,10073,10095,10095,10096,10097,10097,10098" d="m265,343c0,1.75717 -0.11496,2.67236 0.08533,3.51599c0.21561,0.90823 0.75757,1.81573 0.86652,2.48935c0.12006,0.74237 0.4411,1.90121 0.90948,2.32266c0.59961,0.53952 1.64487,1.02802 1.97202,2.00534c0.21613,0.64566 0.1644,1.66132 0.16666,2.52383c0.00232,0.89099 -0.00934,1.79556 0,2.65881c0.01044,0.96335 0.49283,1.72415 0.83334,2.65067c0.23166,0.63031 0.16666,1.66669 0.16666,2.52884c0,0.82535 0,1.78851 0,2.65182c0,0.89551 0.00394,1.854 0,2.53802c-0.00534,0.92938 -0.19681,1.99203 -1.10034,2.11465c-0.70749,0.09601 -1.66766,0 -2.39966,0c-1.16666,0 -1.97916,0 -2.8215,0c-0.88916,0 -1.87851,0 -2.6785,0c-1,0 -1.78943,-0.01215 -2.51468,0c-1.0751,0.01801 -1.84387,0.54187 -2.65199,0.83334c-0.79942,0.28833 -1.88992,0.29379 -2.42267,0.81332c-0.74231,0.72391 -0.99376,1.62845 -1.74399,2.01999c-0.84825,0.44269 -1.70517,0.23767 -2.69734,0.61868c-0.62407,0.23965 -1.48645,0.86734 -2.144,1.35065c-0.85114,0.62561 -1.16766,1.20349 -1.62399,1.88c-0.58481,0.867 -1.37733,1.46942 -2.02667,1.89468c-0.70108,0.45914 -1.48077,1.20715 -1.813,1.93665c-0.39264,0.86212 -0.55534,1.77628 -1.00833,2.28867c-0.63698,0.72052 -1.40204,1.33691 -1.784,1.96533c-0.57098,0.93942 -0.56013,1.81329 -0.79083,2.59869c-0.24072,0.81952 -0.765,1.80704 -1.08301,2.39999c-0.43443,0.81003 -1.02214,1.59555 -1.51016,2.19998c-0.48093,0.59564 -1.03905,1.59659 -1.2,2.436c-0.17757,0.92612 -0.34636,1.71902 -0.56,2.57468c-0.14713,0.58926 -0.34219,1.7879 -0.42534,2.66849c-0.05322,0.56363 -0.24936,1.85196 -0.54167,2.52084c-0.30678,0.70197 -0.93649,1.68646 -1.28366,2.21466c-0.51346,0.78119 -1.22598,1.59415 -1.633,2.28534c-0.46368,0.78745 -0.4296,1.78412 -0.70868,2.49466c-0.36403,0.92682 -1.18227,1.28067 -1.77499,1.86783c-0.80812,0.80054 -0.91153,1.49185 -1.01633,2.13751c-0.15317,0.9436 -0.39626,2.13885 -0.74617,2.80084c-0.39293,0.74335 -0.63921,1.49634 -1.10983,2.19382c-0.63148,0.93588 -1.46405,1.31229 -2.18033,1.81067c-0.70152,0.48813 -1.1869,1.20499 -1.62001,1.944c-0.54132,0.92368 -1.08296,1.39771 -1.73267,2.056c-0.68178,0.6908 -1.00386,1.45117 -1.34816,2.18933c-0.48785,1.04593 -0.95459,1.64529 -1.47118,2.33868c-0.49983,0.6709 -1.02409,1.47882 -1.34933,2.06934c-0.48695,0.88412 -0.84917,1.78619 -1.17949,2.64017c-0.3056,0.79007 -0.68106,1.74112 -1.06168,2.35266c-0.51921,0.83423 -1.08272,1.39212 -1.59016,2.00449c-0.65019,0.78464 -1.13707,1.59726 -1.45132,2.20001c-0.51903,0.99551 -0.81482,1.65222 -1.53467,2.39999c-0.62479,0.64902 -1.19745,0.96429 -1.89867,1.60001c-0.83611,0.758 -1.17874,1.41125 -1.76801,2.23334c-0.48335,0.67432 -1.3382,1.24161 -2.02083,1.70831c-0.59587,0.40741 -1.3824,1.22369 -1.77917,1.70901c-0.60495,0.73996 -1.38184,1.63007 -2,2.08798c-0.58371,0.4324 -1.3913,0.99399 -2.02133,1.48669c-0.68343,0.53445 -1.49712,1.04547 -2.48849,1.41748c-0.70149,0.26321 -1.44398,0.44571 -2.5235,0.75717c-0.68262,0.19693 -1.65308,0.50278 -2.26218,0.75717c-0.91617,0.38263 -1.80666,0.89969 -2.42532,1.24283c-0.63397,0.35162 -1.63956,0.84991 -2.36183,1.11465c-0.72607,0.26614 -1.81573,0.5556 -2.78401,0.88535c-0.83113,0.28302 -1.55894,0.61679 -2.5,1.16666c-0.52499,0.30676 -1.34741,0.84494 -1.93784,1.18066c-0.88571,0.50363 -1.78999,0.88718 -2.62349,1.242c-0.94272,0.40131 -1.58414,0.88367 -2.24001,1.12534c-1.01082,0.37247 -1.89476,0.31873 -2.52,0.45468c-1.04413,0.22705 -1.75887,0.52832 -2.47032,0.83066c-0.99158,0.42139 -1.98448,0.85254 -2.71767,1.01468c-1.08165,0.23917 -1.68977,0.34375 -2.36568,0.48532c-1.07512,0.22519 -2.13564,0.39471 -2.80566,0.44284c-0.97658,0.07013 -1.63666,0.05649 -2.67416,0.05716c-0.73567,0.00049 -1.88916,0 -2.67984,0c-1.19833,0 -1.98965,0 -2.75699,0c-0.72734,0 -1.70834,0 -2.53633,0c-1.01068,0 -1.83867,0 -2.81517,0c-0.711,0 -1.442,0 -2.86867,0c-0.66434,0 -1.30067,0 -2.22017,0c-1.2,0 -2.08051,0 -2.64417,0c-1.27051,0 -1.9155,0 -2.93617,0c-0.888,0 -1.78532,0 -2.71832,0c-0.69867,0 -1.42134,0 -2.48134,0c-0.996,0 -1.64667,0 -2.988,0c-0.71867,0 -1.46934,0 -2.244,0c-0.79066,0 -1.98917,0 -2.78484,0c-0.78366,0 -1.54733,0 -2.98316,0c-0.66867,0 -1.32133,0 -2.30534,0c-1.037,0 -1.75967,0 -2.81866,0c-0.64267,0 -1.84315,0.05698 -2.664,-0.08533c-0.81409,-0.14114 -1.53333,-0.45633 -2.26534,-0.80133l-0.96266,-0.77951l-0.456,-0.61649l-0.31734,-0.48935" id="svg_3" stroke-width="2" stroke="#000" fill="none"/>
  <path t="11001,11162,11179,11179,11196,11197,11197,11212,11212,11212,11212,11237,11237,11237,11265,11265,11265,11266,11266,11266,11266,11266,11294,11294,11294,11294,11320,11320,11320,11320,11320,11347,11347,11347,11347,11347,11348,11371,11371,11371,11372,11372,11373,11373,11373,11373,11373,11373,11373,11375,11375,11375,11375,11375,11375,11401,11401,11401,11401,11401,11401,11402,11403,11403,11403,11403,11403,11403,11403,11425,11426,11426,11426,11426,11426,11426,11426,11426,11450,11450,11450,11450,11450,11450,11450,11451,11474,11474,11474,11474,11474,11475,11475,11475,11475,11499,11499,11499,11499,11499,11499,11499,11499,11499,11522,11522,11522,11522,11522,11523,11523,11523,11523,11524,11525,11525,11525,11525,11525,11525,11525,11525,11588,11588,11588,11588,11589,11589,11589,11589,11589,11613,11613,11613,11613,11613,11613,11613,11613,11614,11615,11615,11615,11615,11615,11616,11616,11616,11616,11617,11617,11617,11617,11618,11618,11618,11618,11618,11619,11619,11619,11620,11620,11620,11620,11620,11620,11662,11662,11662,11662,11662,11663,11663,11663,11663,11665,11665,11665,11665,11665,11665,11665,11665,11666,11667,11667,11668,11668,11668,11668,11668,11668,11668,11708,11708,11709,11709,11709,11709,11709,11710,11710,11712,11713,11713,11713,11713,11713,11713,11713,11714,11741,11741,11741,11741,11741,11741,11742,11742,11742,11745,11745,11745,11745,11745,11745,11746,11746,11746,11774,11774,11774,11775,11775,11775,11775,11775,11775,11778,11779,11779,11779,11779,11779,11779,11780,11780,11807,11807,11807,11808,11808,11808,11808,11808,11808,11836,11836,11837,11837,11837,11837,11837,11837,11838,12046,12046,12047,12047,12047,12048,12048,12048,12048,12079,12079,12079,12080,12080,12080,12080,12081,12081,12083,12083,12083,12122,12122,12124,12124,12158,12159,12159,12162,12162,12189,12189,12191,12191,12220,12221,12222,12253,12255,12255,12256,12287,12287,12287,12289,12290,12290,12319,12320,12321,12321,12322,12351,12352,12352,12354,12354,12384,12384,12385,12386,12387,12387,12416,12417,12417,12419,12419,12419,12457,12458,12458,12458,12461,12462,12475,12475,12476,12507,12508,12508,12522,12522,12523,12554,12554,12554,12582,12582,12583,12585,12585,12585,12606,12606,12607,12607,12607,12640,12640,12640,12640,12641,12641,12641,12645,12645,12646,12678,12678,12679,12681,12728" d="m195,287c4.12849,-2.83301 4.98453,-3.19101 5.672,-3.61066c0.85274,-0.52054 1.6154,-0.76212 2.37984,-1.20367c0.81235,-0.46924 1.49677,-1.18597 1.92734,-1.68567c0.42204,-0.48981 1.20227,-1.38126 1.82083,-1.83865c0.77788,-0.5752 1.59848,-1.1517 2.24167,-1.68219c0.46964,-0.38736 1.59811,-1.18442 2.26816,-1.58365c0.70781,-0.42175 1.08833,-0.61124 1.80751,-1.08084c1.0813,-0.70605 1.72984,-1.26233 2.36183,-1.81467c0.62065,-0.54245 1.51537,-1.34021 2.12216,-1.81732c0.60397,-0.47491 1.24405,-0.93222 1.884,-1.45203c1.05194,-0.8544 1.40228,-1.19751 2.15067,-1.892c0.38602,-0.35822 1.16493,-1.09439 1.56534,-1.45599c1.18819,-1.07306 1.59671,-1.40103 2.39867,-2.05731c0.79805,-0.65308 1.21217,-0.96381 2.39999,-1.992c0.40419,-0.34988 1.2005,-1.08548 1.60001,-1.45868c0.4005,-0.37415 1.19635,-1.12601 1.59999,-1.49066c1.18951,-1.07458 1.59625,-1.40628 2.41068,-2.05865c0.82027,-0.65707 1.24677,-0.97766 1.67467,-1.30934c1.33704,-1.03639 1.80093,-1.40013 2.75066,-2.15201c0.48532,-0.38422 0.9749,-0.77437 1.46851,-1.1685c1.49619,-1.19464 1.99554,-1.59602 2.49817,-1.99683c0.50604,-0.40353 1.53819,-1.22054 2.06934,-1.63467c0.5415,-0.42221 1.09532,-0.85374 2.26132,-1.73067c0.60762,-0.45697 1.23422,-0.91794 1.87201,-1.386c0.64488,-0.47327 1.29488,-0.94702 1.944,-1.422c0.64554,-0.47235 1.28607,-0.93677 2.51733,-1.85866c0.59232,-0.44348 1.17184,-0.87712 2.28267,-1.76266c0.55394,-0.4416 1.10403,-0.89815 1.65601,-1.371c0.56546,-0.48442 1.7298,-1.53107 2.33783,-2.09717c0.63068,-0.58717 1.27441,-1.19966 1.93948,-1.82251c0.67859,-0.63551 1.37054,-1.27792 2.0835,-1.91249c0.71771,-0.63882 2.19446,-1.87534 2.95535,-2.45784c0.75787,-0.58018 1.53186,-1.13414 2.31448,-1.67099c0.78113,-0.53583 1.57288,-1.05348 2.3685,-1.563c0.79504,-0.50914 2.39572,-1.50865 3.1955,-2.00917c0.80023,-0.50081 1.60092,-1.0029 2.40002,-1.5105c0.8009,-0.50873 1.60159,-1.02287 2.39999,-1.54649c0.80161,-0.52571 2.4021,-1.60649 3.19998,-2.16434c0.80215,-0.56082 1.60144,-1.1337 2.40002,-1.71451c0.80142,-0.58286 1.60071,-1.17369 2.39999,-1.76849c0.80072,-0.59586 2.40027,-1.79512 3.20282,-2.39784c0.82016,-0.61595 1.67468,-1.25935 2.57852,-1.94699c0.97388,-0.74092 2.03195,-1.55296 3.19049,-2.451c1.2803,-0.99243 4.26233,-3.33197 5.99081,-4.69817c1.86624,-1.47507 3.83197,-3.0352 5.86801,-4.64549c2.06863,-1.63606 4.13623,-3.26845 6.17401,-4.86151c1.96497,-1.53616 5.5571,-4.30104 7.12967,-5.47217c1.4093,-1.04953 2.68665,-1.97313 3.84299,-2.793c1.04523,-0.74109 2.00592,-1.40451 2.88901,-2.019c0.8262,-0.57489 2.37079,-1.67195 3.11215,-2.23183c0.73999,-0.55884 1.46701,-1.13239 2.18552,-1.71451c0.7178,-0.58156 1.4267,-1.17305 2.1315,-1.76849c0.70453,-0.59521 2.10449,-1.7955 2.8045,-2.39551c0.69998,-0.59999 1.39999,-1.2 2.09998,-1.79999c0.70001,-0.60001 1.40002,-1.20001 2.10001,-1.8c0.70001,-0.60001 2.09976,-1.80029 2.80002,-2.39984c0.69974,-0.59912 1.39902,-1.19684 2.09998,-1.78949c0.69904,-0.59102 1.39828,-1.17677 2.10001,-1.75351c0.6983,-0.57393 2.09821,-1.69283 2.79968,-2.23566c0.69586,-0.5385 1.39133,-1.06433 2.07898,-1.58551c0.67969,-0.51515 1.35126,-1.02284 2.00702,-1.53149c0.64554,-0.50073 1.88458,-1.50029 2.47131,-2.00433c0.5759,-0.49474 1.13043,-0.99374 1.67102,-1.4895c0.53207,-0.48796 1.05029,-0.97505 1.56299,-1.45351c0.50598,-0.47221 1.50653,-1.3933 2.00916,-1.83566c0.49875,-0.43895 1.00204,-0.86708 1.51053,-1.28549c0.5079,-0.41794 1.02328,-0.82796 1.54648,-1.23151c0.52612,-0.40582 1.60812,-1.20642 2.16467,-1.60483c0.56476,-0.4043 1.14395,-0.80925 1.7355,-1.22101c0.60474,-0.42093 1.22583,-0.84995 1.86151,-1.293c0.65366,-0.4556 2.01541,-1.41772 2.72348,-1.92799c0.72394,-0.5217 1.45374,-1.05437 2.18701,-1.58701c0.72873,-0.52936 1.44647,-1.05014 2.151,-1.55099c0.67953,-0.48308 1.9502,-1.3573 2.53366,-1.73384c0.54211,-0.34985 1.05603,-0.66385 1.54199,-0.9525c0.45944,-0.2729 0.90176,-0.52591 1.32602,-0.77249c0.41309,-0.2401 1.21979,-0.72469 1.61798,-0.98216c0.40186,-0.25984 0.80048,-0.53065 1.20001,-0.804c0.40045,-0.27399 0.79904,-0.55072 1.19998,-0.82201c0.39911,-0.27003 1.19827,-0.78888 1.59967,-1.03117c0.39597,-0.23901 0.79105,-0.46489 1.17902,-0.6855c0.37936,-0.21571 0.75046,-0.42336 1.10699,-0.63148c0.34479,-0.20128 0.9838,-0.60048 1.27133,-0.80434c0.27509,-0.19502 0.53009,-0.39391 0.771,-0.58951c0.23172,-0.18814 0.4502,-0.37526 0.66299,-0.5535c0.20584,-0.17241 0.60718,-0.49304 0.80869,-0.63567c0.19592,-0.13867 0.39111,-0.26465 0.57898,-0.3855c0.1795,-0.11548 0.35095,-0.22296 0.50702,-0.3315c0.1452,-0.10098 0.38593,-0.30023 0.4715,-0.40434c0.07819,-0.09515 0.13553,-0.1944 0.18149,-0.28949c0.04288,-0.08873 0.07419,-0.17546 0.1095,-0.25351c0.03284,-0.0726 0.11539,-0.19452 0.17319,-0.23599c0.05975,-0.04288 0.1315,-0.07257 0.20398,-0.10651c0.07489,-0.03506 0.15253,-0.07155 0.22202,-0.1245c0.07227,-0.05507 0.19702,-0.21956 0.23132,-0.33301c0.21909,-0.72443 0.23782,-1.62863 0.883,-2.25266c0.63443,-0.61361 1.49438,-0.90438 2.07169,-1.63784c0.48434,-0.61534 0.62466,-1.46954 1.36533,-2.41467c0.44492,-0.56773 0.65897,-1.33536 0.91116,-2.25117c0.24426,-0.88702 0.87286,-1.53297 1.86865,-1.8795c0.69684,-0.24249 1.50095,-0.6601 2.32602,-1.07317c0.84305,-0.42207 1.52063,-0.92237 2.10001,-1.39999c0.7814,-0.64419 1.37595,-1.08608 2.28082,-1.3615c0.97363,-0.29635 1.80359,-0.2235 2.54532,-0.37067c0.98404,-0.19525 1.55466,-0.70526 2.54001,-1.39867c0.49176,-0.34605 1.31131,-0.87935 2.22934,-1.184c0.87082,-0.28897 1.72803,-0.31094 2.66666,-0.33334c0.83337,-0.01989 1.87589,-0.22237 2.59467,-0.42533c0.79019,-0.22313 1.81436,-0.48251 2.51334,-0.53867c0.90707,-0.07288 1.91068,-0.036 2.74619,-0.036c0.58365,0 1.77933,0 2.68982,0c0.62534,0 1.95599,0 2.67068,0c0.72266,0 1.42133,0 2.61865,0c0.97916,0 1.83386,0.02193 2.76132,-0.01067c0.79138,-0.02781 1.82062,-0.1998 2.51334,-0.41467c0.6814,-0.21136 1.64441,-0.48104 2.46133,-0.53867c0.86691,-0.06115 2.06384,-0.036 2.65952,-0.036c0.8685,0 1.93784,0 2.87915,0c0.67801,0 1.647,0 2.47202,0c0.91498,0 1.92004,0.00723 2.64398,-0.00267c0.78818,-0.01079 1.66641,-0.04752 2.65201,-0.168c1.12732,-0.13779 1.74326,-0.26649 2.38934,-0.39733c1.33969,-0.27129 2.00571,-0.43103 2.65866,-0.58133c0.62738,-0.14441 2.23914,-0.5351 3.01468,-0.68c0.78732,-0.14711 1.728,-0.17067 2.63464,-0.18134l0.69751,-0.0465l0.96518,-0.36816l0.63898,-0.55383" id="svg_4" stroke-width="2" stroke="#000" fill="none"/>
  <path t="13066,13361,13362,13379,13379,13396,13396,13396,13412,13412,13429,13429,13429,13446,13446,13446,13462,13462,13462,13479,13479,13495,13496,13496,13496,13512,13512,13512,13512,13529,13529,13529,13529,13546,13546,13546,13546,13562,13562,13562,13579,13579,13579,13579,13596,13596,13596,13596,13596,13612,13612,13612,13612,13613,13629,13629,13629,13629,13646,13646,13646,13646,13646,13662,13662,13663,13663,13663,13679,13679,13679,13679,13679,13696,13696,13696,13696,13712,13712,13713,13729,13729,13795,13812,13812,13829,13846,13862,13862,13863,13879,13879,13879,13896,13896,13896,13912,13912,13912,13929,13929,13946,13946,13962,13962,13962,13978,13995,13996,14011,14012,14028,14029,14046,14081,14081,14082,14083,14121" d="m432,148c1.82535,1.492 2.53879,1.22742 3.38535,0.58934c0.60098,-0.45297 1.37207,-1.08798 2.11465,-1.56851c0.72205,-0.46724 1.70816,-0.87984 2.30533,-1.12616c0.98846,-0.40773 1.71426,-0.91133 2.18933,-1.30367c0.90228,-0.74515 1.25183,-1.48599 1.97333,-2.02034c0.72025,-0.5334 1.55835,-0.51398 2.34933,-0.65334c1.24115,-0.21867 1.90295,-0.54045 2.84933,-0.91733c0.79092,-0.31497 1.38068,-0.50644 2.32001,-0.88533c1.0412,-0.41998 1.7623,-0.7713 2.51334,-1.09384c0.74377,-0.31943 1.82693,-0.717 2.51599,-0.8515c0.97672,-0.19066 1.63983,-0.19325 2.65067,-0.336c0.71863,-0.10149 1.81641,-0.3396 2.5235,-0.53783c0.98236,-0.27539 1.79233,-0.62814 2.56052,-0.8595c1.06827,-0.32173 1.71957,-0.35725 2.42133,-0.41068c1.13638,-0.0865 2.33032,-0.17744 3.12799,-0.312c0.40134,-0.0677 1.20663,-0.23225 2,-0.47501c1.21109,-0.37056 2.00146,-0.71597 2.78934,-1.06366c0.77747,-0.34309 1.51602,-0.71268 2.58951,-1.153c0.66751,-0.2738 1.33072,-0.53198 2.3905,-0.735c1.16391,-0.22296 1.5997,-0.20753 2.492,-0.26134c0.92368,-0.05569 1.85809,-0.08859 2.772,-0.192c0.88382,-0.09999 1.73596,-0.2592 2.556,-0.48c0.81512,-0.21947 2.01172,-0.67192 2.81067,-1.0015c0.40051,-0.16522 1.18839,-0.52446 2,-0.7825c1.185,-0.37675 1.99451,-0.46852 2.77914,-0.54851c0.76282,-0.07777 2.20239,-0.2263 2.85468,-0.37349c0.88864,-0.20052 1.85345,-0.40234 2.62451,-0.64734c0.86911,-0.27615 1.51028,-1.15582 1.495,-1.81467c-0.0242,-1.04307 -0.79883,-1.65578 -1.45334,-2.18533c-0.69376,-0.56129 -1.56976,-0.73449 -2.16666,-1.33334c-0.59943,-0.60137 -0.86179,-1.44079 -1.33334,-2.33333c-0.37216,-0.70441 -0.89679,-1.29291 -1.48401,-2.10133c-0.52634,-0.72459 -1.01642,-1.47591 -1.63065,-2.26267c-0.4631,-0.59321 -1.03802,-1.48646 -1.52133,-2.144c-0.62561,-0.85114 -1.19968,-1.17334 -1.88,-1.624c-0.86157,-0.57072 -1.72388,-1.0319 -2.36935,-1.37067c-0.83109,-0.43618 -1.28006,-1.02547 -2.09314,-1.809c-0.60406,-0.58212 -1.4494,-0.9399 -2.34283,-1.243c-0.69476,-0.2357 -1.65717,-0.65717 -2.47736,-0.77733l-0.83731,-0.07333" id="svg_5" stroke-width="2" stroke="#000" fill="none"/>
  <path t="14318,14495,14495,14512,14512,14512,14512,14529,14529,14529,14529,14529,14546,14546,14546,14546,14562,14562,14562,14562,14562,14579,14579,14579,14579,14579,14596,14596,14596,14596,14596,14596,14612,14612,14612,14612,14628,14629,14629,14629,14629,14646,14646,14646,14646,14646,14662,14662,14662,14662,14662,14662,14679,14679,14679,14679,14679,14679,14696,14696,14696,14696,14696,14712,14712,14712,14712,14712,14712,14729,14729,14729,14729,14729,14729,14746,14746,14746,14746,14746,14746,14762,14762,14762,14763,14763,14763,14779,14779,14779,14779,14779,14779,14796,14796,14796,14796,14796,14796,14796,14812,14812,14812,14812,14812,14813,14813,14829,14829,14829,14829,14829,14829,14829,14846,14846,14846,14846,14846,14846,14846,14862,14862,14862,14863,14863,14863,14863,14879,14879,14879,14879,14879,14879,14880,14896,14896,14896,14896,14896,14896,14896,14896,14912,14912,14913,14913,14913,14913,14913,14913,14929,14929,14929,14929,14929,14929,14929,14930,14946,14946,14946,14946,14946,14946,14946,14947,14962,14962,14962,14962,14962,14963,14963,14963,14978,14979,14979,14979,14979,14979,14979,14980,14980,14994,14995,14995,14995,14995,14996,14996,14996,14996,15016,15016,15016,15017,15017,15017,15017,15017,15017,15036,15037,15037,15037,15037,15037,15037,15038,15038,15053,15053,15053,15054,15054,15054,15054,15054,15054,15071,15071,15072,15072,15072,15072,15072,15072,15073,15091,15091,15091,15091,15091,15092,15092,15092,15092,15107,15107,15107,15107,15107,15108,15108,15122,15123,15123,15123,15123,15123,15123,15138,15138,15138,15139,15139,15139,15154,15154,15154,15154,15154,15154,15170,15170,15170,15170,15170,15171,15187,15187,15187,15188,15188,15203,15203,15203,15204,15204,15204,15218,15218,15219,15219,15219,15219,15234,15234,15234,15234,15234,15249,15250,15250,15250,15250,15265,15266,15266,15266,15266,15281,15281,15281,15282,15282,15297,15297,15297,15312,15312,15313,15313,15329,15330,15330,15345,15345,15379,15379,15398,15398" d="m444,141c-6.69199,2.74533 -7.43982,2.94681 -8.5,3.16667c-0.55594,0.1153 -1.55554,0.35997 -2.25635,0.65216c-1.10165,0.45932 -1.77267,0.93076 -2.39697,1.4425c-0.61609,0.505 -1.1582,1.05782 -1.92551,1.81732c-0.70486,0.69769 -1.17496,1.15517 -1.69052,1.60535c-0.86111,0.75189 -1.54147,1.27193 -2.2515,1.83682c-0.73199,0.5824 -1.11111,0.86353 -2.15784,1.77934c-0.67828,0.59348 -1.32269,1.21924 -1.64667,1.53583c-0.6615,0.64645 -1.69513,1.68602 -2.05865,2.04666c-0.73962,0.73375 -1.11078,1.10205 -1.86334,1.80751c-0.36612,0.34322 -1.43115,1.26698 -2.091,1.80449c-0.62015,0.50516 -1.24872,0.96651 -1.995,1.83867c-0.51959,0.60724 -0.94293,1.33403 -1.42798,2.052c-0.49881,0.73833 -1.37317,1.80168 -1.70935,2.12933c-0.68445,0.6671 -1.44775,1.27837 -1.83832,1.58084c-1.18237,0.91574 -1.59387,1.20087 -2.39102,1.80899c-0.80292,0.61252 -1.20773,0.92209 -2,1.58084c-0.80798,0.67183 -1.59998,1.39732 -2,1.76283c-0.79999,0.73099 -1.18582,1.10722 -2,1.7825c-0.78665,0.65244 -1.59384,1.20979 -2.39999,1.70799c-0.39703,0.24536 -1.21017,0.69276 -2.39999,1.42801c-0.40353,0.24936 -1.20706,0.78539 -2,1.375c-0.40366,0.30014 -1.20908,0.93446 -2,1.625c-0.80942,0.70668 -1.2005,1.08546 -2,1.83333c-0.40024,0.3744 -1.19128,1.12587 -2,1.83333c-0.79156,0.69244 -1.19952,1.0146 -2,1.66667c-0.39975,0.32564 -1.20813,0.97459 -2,1.66667c-0.80838,0.7065 -1.19702,1.08479 -2,1.8125c-0.3985,0.36115 -1.1828,1.07376 -2,1.6875c-0.7854,0.58984 -1.61349,1.09973 -2.02084,1.375c-0.84232,0.56923 -1.3027,0.85391 -2.60049,2.04399c-0.47723,0.43764 -0.93475,0.93082 -1.40399,1.437c-0.47818,0.51579 -0.94809,1.04912 -1.89066,2.11201c-0.91614,1.03308 -1.35938,1.52542 -1.80136,1.99333c-0.43109,0.45638 -1.29819,1.31534 -1.74399,1.71466c-0.4433,0.39706 -1.86737,1.49762 -2.3815,1.83583c-0.52188,0.34329 -1.61685,0.98846 -2.17801,1.30067c-0.56284,0.31314 -1.13544,0.60811 -2.8125,1.52083c-0.54663,0.2975 -1.08618,0.59305 -2.13065,1.21066c-0.51761,0.30608 -1.03378,0.61237 -2.03467,1.27467c-1.01004,0.66837 -1.50455,1.03163 -2,1.39999c-0.99747,0.74159 -1.48373,1.1315 -1.96533,1.52533c-0.95721,0.78278 -1.87094,1.58759 -2.315,1.98933c-0.88049,0.79655 -1.31332,1.20418 -1.76266,1.60001c-0.91788,0.80856 -1.39859,1.21921 -2.45834,2c-0.55679,0.41022 -1.15112,0.80338 -1.76251,1.2c-0.62192,0.40346 -1.25974,0.79774 -2.53665,1.60001c-0.63486,0.39888 -1.87064,1.1954 -2.45782,1.60016c-0.57547,0.39668 -1.13339,0.79811 -1.67102,1.21051c-1.06009,0.81317 -1.56711,1.24167 -2.06934,1.67467c-1.01105,0.87169 -1.504,1.33472 -2.004,1.79866c-1.01175,0.93875 -1.51764,1.41803 -2.03467,1.89067c-0.51929,0.4747 -1.03687,0.95621 -2.13065,1.85866c-0.54871,0.45273 -1.68808,1.3129 -2.26935,1.73067c-0.5824,0.41858 -1.17349,0.82706 -1.76849,1.23151c-0.59567,0.40489 -1.79581,1.20404 -2.39566,1.60483c-0.60147,0.40189 -1.81204,1.21881 -2.42068,1.64134c-0.6167,0.42812 -1.24002,0.86763 -1.8645,1.32899c-1.289,0.95232 -1.93799,1.46986 -2.59998,1.99867c-0.67371,0.53816 -1.35089,1.09172 -2.03552,1.65149c-0.69006,0.56422 -1.38132,1.13391 -2.08047,1.6965c-1.39404,1.12178 -2.09656,1.66418 -2.80002,2.19734c-0.70087,0.53119 -1.40729,1.05215 -2.11951,1.5645c-0.7131,0.513 -1.43375,1.02007 -2.16449,1.5195c-1.47617,1.00891 -2.23477,1.50278 -2.99734,2c-0.76443,0.49844 -1.53156,0.99132 -2.29648,1.4805c-0.75909,0.48547 -1.51144,0.963 -2.2515,1.4355c-1.43683,0.91736 -2.12772,1.36234 -2.80002,1.80266c-0.66068,0.43269 -1.30994,0.86513 -1.94849,1.30351c-0.63745,0.43765 -1.27298,0.88354 -1.9035,1.34848c-1.29224,0.95294 -1.94064,1.4707 -2.60001,1.99869c-0.66766,0.53464 -1.33301,1.08142 -1.99649,1.63199c-0.66052,0.54813 -1.31073,1.095 -1.95151,1.63199c-1.23544,1.03531 -1.82562,1.52588 -2.39868,1.99734c-0.55566,0.45715 -1.09821,0.89926 -1.629,1.32901c-0.51987,0.4209 -1.03241,0.83295 -1.539,1.23898c-1.00217,0.80325 -1.50238,1.20267 -2.00131,1.60135c-0.49673,0.39697 -0.99042,0.79095 -1.4805,1.18048c-0.48459,0.38516 -0.96301,0.7645 -1.43552,1.1355c-0.91739,0.72031 -1.36188,1.06702 -2.23715,1.73267c-0.43237,0.32883 -1.30856,0.97931 -1.758,1.30536c-0.45856,0.33264 -1.93234,1.36942 -2.45819,1.73132c-0.53677,0.36945 -1.08301,0.74081 -2.18134,1.49066c-0.5455,0.37241 -1.08588,0.73666 -2.11731,1.45868c-0.96707,0.67697 -1.42276,1.01056 -2.3125,1.64581c-0.43515,0.3107 -1.29779,0.92801 -2.1875,1.52084c-0.91159,0.60742 -1.38428,0.89832 -1.85867,1.18933c-0.94592,0.58029 -1.41624,0.86368 -2.808,1.64401c-0.44336,0.2486 -1.31183,0.70972 -2.14584,1.16666c-0.81863,0.44849 -1.23427,0.66046 -2.42082,1.42151c-0.81039,0.51978 -1.20306,0.81024 -2,1.38916c-0.40157,0.29169 -1.60123,1.18771 -2.40001,1.79065c-0.4006,0.30237 -1.20229,0.91663 -1.59999,1.23468c-0.80469,0.64352 -1.60371,1.32654 -2.40001,2.04666c-0.40187,0.36343 -1.19661,1.10031 -1.59999,1.45599c-0.7934,0.69958 -1.99577,1.62451 -2.39867,1.892c-0.78297,0.51984 -1.56891,0.97833 -1.94417,1.21753c-1.10121,0.70193 -1.78072,1.22827 -2.43184,1.78781c-0.6584,0.5658 -1.30147,1.17444 -1.992,1.76401c-0.71069,0.60678 -1.45917,1.1933 -2.24399,1.728c-0.38895,0.26498 -1.57852,0.96344 -2.38667,1.30133c-0.77173,0.32266 -1.53325,0.54123 -2.23199,0.76801c-1.20596,0.39139 -1.96638,0.71768 -2.41884,1.017c-1.01379,0.67068 -1.49606,1.20218 -2.07266,1.66483c-0.86182,0.69147 -1.76521,1.20636 -2.65784,1.42352c-0.54277,0.13205 -1.7717,0.19022 -2.39999,0.74399c-0.63963,0.56375 -1.05734,1.492 -1.74251,2.1105l-0.8175,0.25751" id="svg_6" stroke-width="2" stroke="#000" fill="none"/>
  <path t="15806,15961,15961,15961,15978,15978,15978,15978,15999,15999,15999,15999,16014,16014,16034,16034,16034,16034,16050,16050,16050,16065,16066,16066,16081,16081,16081,16096,16096,16096,16111,16111,16111,16128,16128,16129,16145,16146,16146,16161,16162,16178,16179,16179,16196,16196,16196,16212,16212,16212,16229,16229,16229,16245,16246,16246,16300,16300,16300,16302,16302,16303,16304,16304,16304,16320,16321,16321,16335,16336,16336,16336,16351,16351,16351,16366,16366,16366,16366,16381,16381,16381,16396,16396,16396,16420,16420,16420,16420,16435,16435,16435,16448,16448,16449,16449,16449,16462,16462,16462,16478,16479,16479,16495,16495,16512,16512,16512,16512,16513,16528,16529,16529,16545,16546,16546,16561,16561,16561,16561,16578,16579,16579,16596,16596,16610,16611,16611,16628,16629,16629,16629,16644,16661,16662,16662,16677,16678,16678,16695,16696,16696,16712,16712,16729,16729,16729,16745,16745,16746,16746,16762,16762,16762,16777,16777,16795,16795,16796,16810,16811,16811,16827,16827,16844,16844,16860,16860,16878,16879,16879,16895,16896,16927,16928" d="m135,373c-5.05701,-4.39249 -5.76834,-4.80756 -6.77867,-4.94666c-1.21107,-0.16672 -1.82266,-0.05334 -2.74216,-0.05334c-0.63633,0 -2.00017,0 -2.72283,0c-0.71467,0 -1.70167,0 -2.70433,0c-0.728,0 -1.81634,0 -2.419,0c-1.02901,0 -1.75167,0 -2.81134,0c-0.975,0 -1.575,0 -2.655,0c-0.94133,0 -1.61938,-0.00977 -2.852,0.00134c-0.55072,0.00497 -1.4284,-0.00113 -2.61433,0.22034c-0.59735,0.11154 -1.50418,0.30698 -2.367,0.94498c-0.76276,0.564 -1.08472,1.24973 -1.87584,1.81216c-0.65798,0.46777 -1.55679,0.70551 -2.09316,1.56403c-0.40613,0.65005 -0.31311,1.53088 -0.64967,2.77182c-0.18453,0.68042 -0.70116,1.69238 -1.01917,2.28534c-0.43443,0.81003 -1.03073,1.58905 -1.51017,2.21066c-0.49013,0.63547 -0.99107,1.60211 -1.11333,2.42532c-0.08475,0.57065 -0.072,1.76401 -0.072,2.65952c0,0.8685 0,1.93784 0,2.65182c0,0.67801 0,1.87418 0,2.68866c0,0.57468 -0.02895,1.76477 0.009,2.655c0.03576,0.83862 0.27035,1.82108 0.85233,2.45834c0.45162,0.49454 1.12545,1.18909 1.52399,1.91199c0.4332,0.78577 0.91255,1.6076 1.6245,2.28152c0.48798,0.46191 1.31795,1.04282 2.06883,1.65698c0.70602,0.57745 1.34399,1.18985 2.088,1.63351c0.76288,0.4549 1.63695,0.74878 2.23467,0.88c1.18611,0.26038 2.08063,0.26236 2.64149,0.33932c1.2833,0.17609 1.96841,0.48389 2.7265,0.66333c0.86459,0.20468 1.89176,0.25604 2.616,0.27332c0.73185,0.01746 1.79333,0.01068 2.78934,0.01068c0.65067,0 1.992,0 2.70934,0c0.74133,0 1.49066,0.00037 2.23199,0c1.39734,-0.00067 2.04096,0.03534 2.92233,-0.05716c1.04732,-0.10992 1.94611,-0.4523 2.56033,-0.74417c1.01944,-0.48444 1.67378,-0.83377 2.73466,-1.36533c0.63493,-0.31815 1.32256,-0.65976 2.01601,-1.04401c0.68797,-0.38123 1.63968,-0.95068 2.368,-1.58932c0.64682,-0.5672 1.25545,-1.40417 1.668,-2c0.4184,-0.60428 1.15569,-1.4021 1.86534,-2.01068c0.49751,-0.42667 1.06483,-0.81317 1.78,-1.87201c0.51161,-0.75748 0.61673,-1.38638 1.452,-2.34933c0.44708,-0.51541 1.24055,-1.28531 1.4075,-1.98233c0.1902,-0.79407 0.26106,-1.98889 0.39383,-2.58298c0.19362,-0.86633 0.53444,-1.61417 0.68001,-2.75201c0.12495,-0.97672 0.036,-1.66049 0.036,-2.436c0,-1.048 0.00006,-1.98932 0,-2.66733c-0.00009,-0.96851 0.05148,-2.03622 -0.08533,-2.77798c-0.1819,-0.98621 -0.69276,-1.5625 -1.23601,-2.31235c-0.51996,-0.71771 -0.89243,-1.25729 -1.51199,-2.457c-0.3035,-0.58768 -0.63681,-1.48947 -0.9765,-1.98566c-0.64316,-0.93948 -1.44153,-1.34094 -2.18483,-1.70535c-1.03697,-0.50836 -1.61836,-0.94669 -2.32701,-1.63031c-0.52377,-0.50528 -1.09814,-1.09479 -2.0995,-1.65701c-0.76526,-0.42969 -1.56033,-0.69379 -2.43599,-0.90033c-0.88359,-0.2084 -1.79121,-0.49731 -2.3535,-0.69601c-0.97595,-0.34488 -1.81003,-0.41489 -2.956,-0.42532c-0.78147,-0.00711 -1.57201,0 -2.5,0l-0.94801,0l-0.86933,0l-0.86333,0" id="svg_7" stroke-width="2" stroke="#000" fill="none"/>
  <path t="17133,17227,17227,17227,17228,17246,17246,17246,17246,17246,17246,17261,17262,17262,17262,17262,17262,17278,17278,17278,17279,17279,17279,17279,17279,17296,17296,17296,17296,17296,17296,17296,17296,17311,17312,17312,17312,17312,17312,17312,17312,17328,17328,17328,17329,17329,17329,17329,17329,17329,17345,17346,17346,17346,17346,17346,17346,17346,17346,17360,17361,17361,17361,17361,17361,17361,17361,17361,17378,17378,17378,17378,17378,17378,17379,17379,17379,17407,17407,17407,17407,17407,17407,17407,17407,17407,17435,17435,17435,17436,17436,17436,17436,17436,17436,17438,17438,17438,17438,17438,17438,17438,17438,17438,17467,17467,17467,17467,17467,17467,17467,17467,17467,17469,17469,17469,17469,17469,17469,17469,17469,17470,17494,17494,17494,17495,17495,17495,17495,17495,17495,17497,17497,17497,17497,17497,17497,17497,17498,17498,17523,17523,17523,17523,17523,17523,17524,17524,17524,17549,17549,17549,17549,17549,17549,17550,17550,17550,17551,17552,17552,17552,17552,17552,17552,17552,17552,17582,17582,17582,17582,17583,17583,17583,17583,17583,17585,17585,17585,17585,17585,17585,17585,17586,17586,17616,17616,17616,17616,17616,17617,17617,17617,17617,17619,17619,17619,17619,17619,17619,17619,17620,17620,17650,17651,17651,17651,17651,17651,17651,17651,17652,17654,17654,17654,17654,17654,17654,17655,17655,17655,17687,17687,17687,17688,17688,17688,17688,17688,17688,17690,17690,17690,17691,17691,17691,17691,17691,17691,17724,17725,17726,17726,17726,17726,17727,17727,17727,17729,17729,17729,17729,17730,17730,17730,17730,17730,17762,17762,17762,17763,17763,17763,17763,17763,17764,17803,17803,17804,17804,17804,17804,17804,17805,17805,17807,17807,17807,17807,17808,17808,17808,17809,17809,17849,17849,17850,17850,17850,17850,17850,17851,17851,17894,17894,17894,17895,17895,17895,17895,17895,17895,17897,17898,17898,17898,17898,17898,17899,17899,17899,17901,17901,17901,17901,17902,17902,17902,17902,17902,17947,17947,17947,17948,17948,17948,17948,17949,17949,17988,17989,17989,17989,17989,17989,17990,17990,17990,17993,17993,17994,17994,17994,17995,17995,17995,17996,18038,18038,18038,18039,18039,18039,18039,18040,18040" d="m86,392c2.42167,-4.17834 2.94133,-4.85803 3.54166,-5.45834c0.60033,-0.60031 1.6155,-1.38943 2.345,-1.85898c0.75053,-0.48306 1.15758,-0.69922 1.975,-1.1925c0.42636,-0.25729 1.76282,-1.12921 2.22501,-1.46085c0.96596,-0.69308 1.45511,-1.07083 1.96,-1.45065c0.51511,-0.38751 2.11864,-1.58057 2.67467,-1.97867c0.5613,-0.40189 1.131,-0.80048 1.70399,-1.20001c0.57434,-0.40045 1.15336,-0.79428 2.29067,-1.60001c1.12132,-0.79437 1.66492,-1.19711 2.19866,-1.60266c0.53059,-0.40317 1.56829,-1.23453 2.07467,-1.66931c0.51002,-0.4379 1.0232,-0.88446 2.01067,-1.86136c0.50757,-0.50214 1.00088,-1.03635 2.02133,-2.11731c0.51942,-0.5502 1.0452,-1.10419 1.593,-1.64401c0.5509,-0.54291 1.71143,-1.58157 2.32867,-2.0625c0.6202,-0.48325 1.26762,-0.93851 1.929,-1.3815c0.66597,-0.44604 1.3487,-0.87701 2.03699,-1.30951c0.69304,-0.43549 2.09321,-1.31509 2.79084,-1.77332c0.70106,-0.46045 1.39771,-0.93271 2.08949,-1.41452c0.69189,-0.48187 1.37663,-0.97198 2.0535,-1.46848c0.67378,-0.4942 1.99226,-1.49323 2.63583,-1.99567c0.6391,-0.49893 1.27002,-1.00266 1.896,-1.51053c0.62671,-0.50848 1.25157,-1.02426 1.87801,-1.54648c0.63225,-0.52707 1.91414,-1.60934 2.569,-2.16434c0.66513,-0.56369 1.3394,-1.13638 2.02499,-1.71451c0.69441,-0.58554 1.39871,-1.17621 2.11501,-1.76849c0.72369,-0.59842 2.20341,-1.79749 2.9595,-2.39532c0.7599,-0.60086 1.52638,-1.19647 2.29349,-1.78952c0.76392,-0.59061 1.52437,-1.17416 2.27551,-1.75348c0.74086,-0.57138 2.17789,-1.68875 2.86716,-2.23602c0.67604,-0.53677 1.33864,-1.07141 1.992,-1.60648c0.65196,-0.53394 1.30237,-1.07477 1.95599,-1.62451c0.66374,-0.55826 2.02882,-1.72256 2.7375,-2.33316c0.72736,-0.62671 1.46822,-1.26993 2.21851,-1.92902c0.76073,-0.66824 1.52571,-1.34744 2.2905,-2.03699c0.76723,-0.69177 2.28288,-2.08954 3.02684,-2.79068c0.73871,-0.6962 1.46713,-1.39294 2.196,-2.07898c0.72382,-0.6813 1.44624,-1.35425 2.17799,-2.00702c0.72699,-0.64856 2.20844,-1.88818 2.96883,-2.47165c0.75835,-0.58191 1.53372,-1.14008 2.3145,-1.69202c0.78288,-0.55344 1.57605,-1.09937 2.36852,-1.65601c0.79822,-0.56067 2.39975,-1.72244 3.19533,-2.33749c0.80316,-0.62091 1.59843,-1.26364 2.3895,-1.91849c0.79263,-0.65616 1.57591,-1.32257 2.3535,-1.99051c0.77307,-0.66406 2.29024,-1.98181 3.03584,-2.62683c0.73706,-0.63763 1.4686,-1.26874 2.196,-1.896c0.72527,-0.6254 1.45079,-1.25052 2.17799,-1.87799c0.73148,-0.6312 2.21449,-1.91342 2.96866,-2.56885c0.76318,-0.66324 1.53239,-1.33447 2.304,-2.0145c0.77573,-0.68365 1.55098,-1.37286 2.32201,-2.06851c0.77029,-0.69501 2.28738,-2.09402 3.03134,-2.79517c0.73871,-0.6962 1.46713,-1.39294 2.196,-2.07898c0.72382,-0.6813 1.44624,-1.35425 2.17799,-2.00702c0.72699,-0.64856 2.20862,-1.88794 2.96866,-2.47165c0.75737,-0.58167 1.53004,-1.13913 2.304,-1.69202c0.77338,-0.55246 1.55191,-1.09775 2.32201,-1.65601c0.77126,-0.55908 2.29153,-1.72128 3.03134,-2.33731c0.74295,-0.61865 1.47009,-1.26105 2.196,-1.90802c0.72676,-0.64771 1.44778,-1.30191 2.17799,-1.944c0.72849,-0.64059 2.20795,-1.87979 2.96883,-2.46231c0.75789,-0.5802 1.53189,-1.13416 2.3145,-1.67102c0.7811,-0.53583 1.57288,-1.05347 2.36852,-1.56299c0.79504,-0.50916 2.39594,-1.5083 3.1955,-2.00934c0.80045,-0.50162 1.60181,-1.00586 2.39999,-1.521c0.80183,-0.51749 1.60326,-1.0459 2.40001,-1.59299c0.80328,-0.55157 2.40407,-1.71371 3.2,-2.32852c0.80415,-0.62115 1.60194,-1.26459 2.39999,-1.91849c0.80197,-0.6571 1.59976,-1.32431 2.40001,-1.99051c0.79974,-0.6658 2.39804,-1.98395 3.2,-2.62683c0.79807,-0.63977 1.5995,-1.26929 2.39999,-1.896c0.79951,-0.62595 1.60098,-1.24944 2.40001,-1.87801c0.80096,-0.6301 2.40179,-1.91182 3.20032,-2.56883c0.80414,-0.66164 1.60852,-1.33586 2.42102,-2.0145c0.82016,-0.68503 1.64859,-1.37718 2.49298,-2.0685c0.85428,-0.6994 2.61597,-2.09949 3.52869,-2.79567c0.92456,-0.70522 1.87015,-1.4059 2.82898,-2.1105c0.96851,-0.71173 1.94995,-1.42447 2.93701,-2.1465c0.99426,-0.72731 2.99353,-2.20616 3.99066,-2.96432c1.00021,-0.7605 1.99435,-1.53188 2.979,-2.3145c0.9827,-0.78105 1.95297,-1.57033 2.90701,-2.36852c0.9473,-0.79253 2.78461,-2.39148 3.67166,-3.1955c0.87827,-0.79605 1.73825,-1.599 2.59198,-2.39999c0.85159,-0.79901 1.69949,-1.60201 2.556,-2.40001c0.86081,-0.802 2.62393,-2.40466 3.53784,-3.2c0.92471,-0.80475 1.87244,-1.60388 2.83951,-2.39999c0.97659,-0.80396 1.97217,-1.60316 2.98349,-2.40001c1.01935,-0.80318 3.09921,-2.4017 4.15833,-3.2025c1.08353,-0.81924 2.21402,-1.66455 3.4035,-2.5575c1.26822,-0.95203 2.63226,-1.97789 4.1055,-3.0975c1.60559,-1.2202 5.26871,-4.03969 7.35019,-5.66249c2.228,-1.73701 4.55722,-3.56761 6.95099,-5.46001c2.4256,-1.91757 4.83954,-3.83725 7.203,-5.73c2.2818,-1.82735 6.43256,-5.18565 8.23199,-6.66734c1.62424,-1.33742 3.08194,-2.55602 4.38901,-3.672c1.18658,-1.01314 2.25967,-1.95055 3.237,-2.82599c0.91043,-0.81551 2.57196,-2.35696 3.36417,-3.10518c0.79315,-0.74913 1.59985,-1.51898 2.44949,-2.31149c0.90054,-0.84 1.87677,-1.73447 2.95349,-2.6895c1.18021,-1.04681 3.96652,-3.42331 5.59952,-4.77417c1.75873,-1.45486 3.62277,-2.96884 5.547,-4.52699c1.94775,-1.57721 3.8891,-3.13998 5.78101,-4.67101c1.81201,-1.46637 5.04715,-4.10805 6.40149,-5.24533c1.19318,-1.00197 2.23331,-1.89801 3.14551,-2.69701c0.81058,-0.70998 1.53098,-1.35577 2.1915,-1.94099c0.61557,-0.54539 1.80096,-1.56737 2.41415,-2.063c0.62411,-0.50446 1.26917,-1.00285 1.92902,-1.5c0.66748,-0.5029 1.3483,-1.00142 2.03699,-1.5c0.69263,-0.50143 2.09149,-1.49931 2.79166,-2.00084c0.70517,-0.50513 1.41928,-1.01904 2.14203,-1.55249c0.74265,-0.54816 1.50443,-1.12267 2.28598,-1.7325c0.81595,-0.63667 2.54095,-2.04401 3.45599,-2.82018c0.9491,-0.80505 1.90826,-1.63905 2.87402,-2.478c0.95822,-0.8324 1.89334,-1.64844 2.802,-2.424c0.8595,-0.73361 2.39929,-2.00084 3.06699,-2.4985c0.5813,-0.43327 1.1012,-0.78666 1.56299,-1.0695c0.397,-0.24316 0.75024,-0.43156 1.05902,-0.5835c0.26749,-0.13161 0.71924,-0.33634 0.9075,-0.44067c0.17566,-0.09734 0.33536,-0.20107 0.48148,-0.3105c0.14291,-0.10703 0.276,-0.22533 0.40952,-0.3465l0.13449,-0.12817" id="svg_8" stroke-width="2" stroke="#000" fill="none"/>
  <path t="18400,18510,18510,18510,18510,18511,18511,18528,18528,18528,18528,18528,18528,18528,18529,18529,18545,18545,18545,18545,18545,18545,18545,18545,18545,18562,18562,18563,18563,18563,18563,18563,18563,18563,18582,18582,18582,18583,18583,18583,18583,18583,18584,18601,18601,18601,18601,18601,18601,18602,18602,18602,18633,18633,18633,18633,18633,18633,18633,18633,18634,18635,18635,18635,18635,18635,18635,18635,18635,18635,18668,18668,18668,18668,18668,18668,18668,18668,18669,18670,18670,18670,18670,18670,18670,18670,18671,18671,18704,18705,18705,18705,18705,18705,18705,18705,18705,18706,18706,18707,18707,18707,18707,18707,18707,18707,18741,18741,18741,18741,18741,18741,18741,18742,18742,18744,18745,18745,18745,18745,18745,18745,18745,18745,18778,18779,18779,18779,18779,18779,18779,18779,18779,18813,18813,18813,18813,18813,18813,18814,18814,18814,18815,18815,18815,18815,18816,18816,18816,18816,18816,18863,18864,18864,18864,18864,18864,18864,18864,18864,18912,18912,18912,18912,18912,18912,18913,18913,18913,18914,18914,18914,18915,18915,18915,18915,18915,18915,18917,18917,18917,18917,18917,18917,18917,18918,18918,18966,18966,18966,18967,18967,18967,18967,18967,18967,19013,19013,19013,19013,19014,19014,19014,19014,19014,19016,19016,19016,19016,19016,19016,19016,19017,19017,19018,19018,19018,19019,19019,19019,19019,19019,19019,19079,19079,19079,19079,19079,19080,19080,19080,19080" d="m103,392c4.4005,-1.76501 5.21819,-2.37955 5.632,-2.73999c0.43551,-0.37933 1.34139,-1.24307 1.824,-1.72c1.04814,-1.03583 1.60854,-1.60529 2.204,-2.19867c0.62451,-0.62231 1.27891,-1.27176 1.965,-1.9455c0.71386,-0.70099 1.45743,-1.42636 2.235,-2.1705c1.63461,-1.56433 2.50338,-2.37024 3.39867,-3.19867c0.92034,-0.85162 1.86998,-1.72076 2.8455,-2.61002c0.99913,-0.91077 2.0238,-1.83984 3.0705,-2.78998c2.15894,-1.95972 3.26797,-2.96954 4.39467,-3.99469c1.1403,-1.03754 2.29086,-2.08389 3.45149,-3.13199c1.16338,-1.0506 2.32767,-2.09842 3.49651,-3.13199c2.30942,-2.04211 3.45912,-3.02777 4.59866,-3.99869c1.12915,-0.96207 2.25745,-1.90945 3.384,-2.84848c1.12411,-0.93698 2.25249,-1.86923 3.384,-2.8035c2.2823,-1.88443 3.43735,-2.83887 4.60133,-3.80136c1.17168,-0.96884 2.34966,-1.94254 3.53549,-2.91599c1.18883,-0.97589 2.38074,-1.95096 3.58051,-2.91599c2.39284,-1.92462 3.59651,-2.86551 4.8,-3.79868c1.20087,-0.93115 2.40723,-1.85211 3.61949,-2.7645c1.21307,-0.91299 2.43356,-1.82013 3.66451,-2.71951c2.47578,-1.80896 3.73483,-2.70319 5,-3.60132c1.27051,-0.90192 2.54984,-1.80118 3.83549,-2.70001c1.28902,-0.90118 2.58327,-1.8006 3.88051,-2.70001c2.59784,-1.80118 3.89929,-2.69901 5.19733,-3.60132c1.29762,-0.90201 2.59268,-1.80649 3.88051,-2.71951c1.28685,-0.91232 2.56883,-1.82928 3.83549,-2.7645c2.52907,-1.86731 3.76682,-2.83218 5,-3.79868c1.23114,-0.96487 2.45032,-1.94009 3.66451,-2.91599c1.21114,-0.97345 2.41437,-1.94977 3.61949,-2.91599c2.39746,-1.92221 3.59869,-2.86597 4.80267,-3.79736c1.20038,-0.92862 2.40604,-1.84442 3.61949,-2.745c1.21188,-0.89941 2.43073,-1.78793 3.66451,-2.655c2.4702,-1.73596 3.73372,-2.56879 4.99867,-3.40265c1.26639,-0.83481 2.54132,-1.65866 3.81599,-2.48401c1.27467,-0.82535 2.55115,-1.64688 3.81599,-2.48401c2.52499,-1.67111 3.76572,-2.53293 4.99867,-3.40134c1.23138,-0.86728 2.4514,-1.74783 3.66451,-2.6355c1.21222,-0.88702 2.41737,-1.78226 3.61949,-2.68048c2.40344,-1.79587 3.6021,-2.69821 4.80267,-3.60135c1.20377,-0.90555 2.41083,-1.81671 3.61951,-2.73898c1.21664,-0.92834 2.43997,-1.86801 3.66449,-2.82901c2.4888,-1.95319 3.74103,-2.9743 5.03333,-4.02267c1.35175,-1.09659 2.78174,-2.26279 4.323,-3.5025c1.66656,-1.34052 3.48569,-2.79309 5.49301,-4.35748c4.61752,-3.59865 7.29535,-5.61317 10.164,-7.772c3.01019,-2.26537 6.1225,-4.58603 9.28049,-6.933c3.15002,-2.34103 6.2468,-4.63228 9.2355,-6.843c5.45163,-4.03252 7.82748,-5.78877 9.96667,-7.37866c1.93338,-1.43694 3.68469,-2.744 5.27701,-3.94501c1.46619,-1.10588 2.82849,-2.14171 4.10699,-3.13499c2.44202,-1.89723 3.63919,-2.86272 4.86267,-3.84534c1.26755,-1.01801 2.59497,-2.09193 4.00949,-3.228c1.5174,-1.21869 3.15918,-2.53351 4.9545,-3.948c4.0993,-3.22974 6.45346,-5.04164 8.97202,-6.97601c2.63934,-2.02713 5.36557,-4.10451 8.13599,-6.20099c2.76559,-2.09285 5.48926,-4.14369 8.13599,-6.11101c4.85538,-3.60899 7.00912,-5.16937 8.96936,-6.58c1.78241,-1.28265 3.41635,-2.44003 4.9155,-3.49649c1.38226,-0.97411 2.67337,-1.87335 3.88049,-2.73151c2.27112,-1.61456 3.35797,-2.41878 4.42532,-3.22c1.05264,-0.79018 2.08136,-1.57961 3.09,-2.36099c0.99133,-0.76797 1.95963,-1.52783 2.91,-2.27101c1.83926,-1.43828 2.73376,-2.13019 3.62802,-2.82266c0.91672,-0.70985 1.87784,-1.45497 2.89948,-2.2605c1.11053,-0.87561 2.32703,-1.84535 3.66452,-2.9355c3.15756,-2.57362 4.98819,-4.11229 6.97467,-5.77867c2.10028,-1.76183 4.26752,-3.59232 6.465,-5.4525c2.18918,-1.85315 4.32666,-3.66832 6.375,-5.4075c3.66669,-3.1133 5.21475,-4.42625 6.57199,-5.57599c1.18512,-1.00392 2.21811,-1.87778 3.11551,-2.64151c0.78381,-0.66705 1.47305,-1.25455 2.08047,-1.7865c1.07016,-0.93719 1.55676,-1.38699 2.03067,-1.82399c0.46344,-0.42735 0.91611,-0.85071 1.36801,-1.26451c0.4494,-0.41151 0.90054,-0.8219 1.36801,-1.2195c0.95566,-0.81284 1.47345,-1.20468 2.00665,-1.60666c0.55109,-0.41547 1.12933,-0.83734 1.72949,-1.278l0.62518,-0.46068l0.65115,-0.48466l0.67816,-0.51266" id="svg_9" stroke-width="2" stroke="#000" fill="none"/>
  <path t="19514,19610,19610,19610,19610,19610,19610,19611,19611,19628,19628,19628,19628,19629,19629,19629,19629,19629,19647,19647,19647,19647,19648,19648,19648,19648,19648,19667,19667,19667,19667,19667,19667,19667,19667,19667,19687,19687,19687,19687,19687,19687,19687,19687,19687,19709,19709,19709,19709,19709,19709,19709,19709,19710,19743,19743,19743,19743,19743,19744,19744,19744,19744,19777,19777,19777,19777,19777,19777,19777,19777,19777,19779,19779,19779,19779,19779,19779,19779,19779,19779,19781,19781,19781,19781,19781,19781,19781,19781,19781,19782,19782,19782,19782,19782,19783,19783,19783,19783,19815,19815,19815,19815,19816,19816,19816,19816,19816,19817,19817,19817,19818,19818,19818,19818,19818,19818,19854,19855,19855,19855,19855,19855,19855,19855,19855,19857,19857,19857,19857,19857,19857,19857,19857,19857,19895,19895,19895,19895,19895,19895,19896,19896,19896,19934,19934,19934,19934,19934,19934,19934,19934,19934,19936,19936,19936,19936,19936,19936,19936,19937,19937,19989,19989,19989,19990,19990,19990,19990,19990,19990,20043,20044,20044,20044,20044,20044,20044,20045,20045,20046,20047,20047,20047,20047,20047,20047,20047,20047,20100,20101,20101,20101,20101,20101,20101,20101,20102,20159,20160,20160,20160,20160,20160,20160,20160,20161,20163,20163,20163,20163,20163,20163,20164,20164,20164,20222,20222,20223,20223,20223,20223,20223,20223,20224" d="m102,399c5.50034,-3.7435 6.00694,-4.16992 6.509,-4.62784c0.51678,-0.47134 1.03608,-0.9729 1.563,-1.5015c0.5459,-0.54764 1.10489,-1.12354 2.26134,-2.37067c0.61365,-0.66177 1.24228,-1.35901 1.89899,-2.08051c0.68194,-0.74921 1.39014,-1.526 2.133,-2.32349c0.76971,-0.82629 1.56506,-1.68411 3.30133,-3.42935c0.91207,-0.91678 1.8709,-1.83984 2.85751,-2.78098c1.00668,-0.96027 2.03799,-1.9277 3.0825,-2.90701c1.05383,-0.98804 2.1193,-1.97504 4.22666,-3.97867c1.04848,-0.99689 2.08424,-1.99976 3.1185,-3c1.03375,-0.99976 2.06709,-2.00198 3.10951,-3c1.04659,-1.00201 2.09546,-2.01364 4.27199,-4c1.10336,-1.00696 2.23433,-2.00345 3.38101,-3c1.15465,-1.00348 2.32567,-2.00198 3.50699,-3c1.186,-1.00198 2.38063,-2.00085 4.77867,-4c1.19965,-1.00009 2.39853,-1.99911 3.60001,-2.991c1.19853,-0.98944 2.39705,-1.97101 3.59999,-2.93701c1.19708,-0.9613 2.3864,-1.91925 4.8,-3.73865c1.19316,-0.89941 2.39656,-1.76694 3.5955,-2.6235c1.19176,-0.85144 2.38419,-1.68826 3.5685,-2.52451c1.17935,-0.83276 2.36183,-1.65271 4.66933,-3.35199c1.15096,-0.8476 2.28656,-1.71637 3.414,-2.59952c1.13126,-0.88617 2.25616,-1.79205 3.37801,-2.71649c1.13087,-0.93188 2.26706,-1.87961 4.54134,-3.85068c1.15947,-1.00488 2.32268,-2.03717 3.4995,-3.08548c1.19252,-1.06232 2.39626,-2.14377 3.6165,-3.23849c1.23608,-1.10895 2.48439,-2.23624 5.05066,-4.50934c1.30701,-1.15768 2.63536,-2.3194 3.9765,-3.49051c1.35085,-1.17957 2.71156,-2.36304 4.0755,-3.5535c1.36707,-1.19321 2.73785,-2.38406 5.448,-4.78934c1.34842,-1.19675 2.68422,-2.39975 4.01851,-3.60001c1.33371,-1.19974 2.66721,-2.40198 4.00949,-3.60001c1.34673,-1.202 2.6963,-2.41354 5.472,-4.79999c1.40314,-1.20636 2.82939,-2.39914 4.263,-3.58649c1.43039,-1.18466 2.86076,-2.35254 4.28101,-3.50552c1.40178,-1.13797 2.785,-2.25073 5.45599,-4.40799c1.282,-1.0354 2.53163,-2.04846 3.7605,-3.04199c1.21513,-0.98245 2.42574,-1.95959 3.64351,-2.93402c1.22922,-0.98358 2.47818,-1.9834 5.09599,-4.02399c1.37064,-1.06842 2.78957,-2.1557 4.239,-3.27151c1.47589,-1.13617 2.97186,-2.28775 4.47299,-3.46048c1.50821,-1.17828 3.02209,-2.35153 5.95468,-4.76801c1.44333,-1.1893 2.84351,-2.39063 4.215,-3.582c1.34845,-1.17137 2.66068,-2.33392 3.94501,-3.474c1.25565,-1.11459 2.47064,-2.21336 4.84,-4.27733c1.13571,-0.98932 2.27722,-1.95831 3.4545,-2.93251c1.23187,-1.01938 2.5632,-2.09229 4.02151,-3.2475c1.6077,-1.27354 3.40497,-2.67897 7.69064,-5.98666c2.52829,-1.95134 5.28574,-4.06525 8.21252,-6.306c3.03983,-2.3273 6.14072,-4.69524 9.2475,-7.062c3.0549,-2.32722 6.00214,-4.57397 11.37332,-8.632c2.31772,-1.75108 4.39517,-3.31091 6.26099,-4.69949c1.67572,-1.24712 3.19489,-2.36642 4.58701,-3.37651c1.2854,-0.93265 2.49619,-1.80334 4.81866,-3.424c1.15527,-0.80617 2.34332,-1.61906 3.5715,-2.4675c1.29053,-0.89153 2.66016,-1.84149 4.12051,-2.8725c1.57751,-1.11372 3.28946,-2.32527 7.14133,-5.16c2.18948,-1.61131 4.50873,-3.35458 6.92999,-5.181c2.48547,-1.87485 4.98755,-3.77615 7.47,-5.66701c2.42422,-1.84651 4.7457,-3.62262 8.93335,-6.81866c1.79489,-1.36987 3.40335,-2.59377 4.854,-3.702c1.32797,-1.01451 2.56454,-1.96222 3.73798,-2.87399c1.1492,-0.89294 2.30496,-1.79485 4.74133,-3.75734c1.35135,-1.0885 2.78293,-2.26236 4.2915,-3.49651c1.57013,-1.2845 3.18625,-2.60944 4.84052,-3.95549c1.67337,-1.36162 3.34772,-2.73245 6.70132,-5.38133c1.62906,-1.28671 3.23276,-2.52251 4.797,-3.72c1.51846,-1.16245 2.9949,-2.27968 4.41901,-3.36c1.37057,-1.0397 2.69254,-2.02731 5.11734,-3.92c1.11972,-0.87399 2.16434,-1.71497 3.1395,-2.5155c0.91403,-0.75037 1.75861,-1.461 2.5365,-2.12851c0.71826,-0.61636 1.37299,-1.18657 2.49066,-2.18933c0.47272,-0.4241 0.88956,-0.80644 1.26151,-1.14749c0.33334,-0.30563 0.63434,-0.58167 0.91049,-0.8325l0.25818,-0.23083l0.24716,-0.21584" id="svg_10" stroke-width="2" stroke="#000" fill="none"/>
  <path t="20771,20827,20827,20827,20827,20827,20845,20845,20845,20846,20846,20846,20846,20861,20862,20862,20862,20862,20862,20862,20862,20862,20883,20883,20883,20883,20883,20883,20883,20883,20883,20904,20905,20905,20905,20905,20905,20905,20905,20905,20927,20927,20927,20927,20927,20927,20927,20928,20928,20929,20929,20929,20929,20929,20929,20930,20930,20930,20951,20952,20952,20952,20952,20952,20952,20952,20952,20973,20973,20973,20973,20974,20974,20974,20974,20974,20994,20994,20994,20994,20994,20995,20995,20995,20995,20996,20996,20996,20996,20996,20996,20996,20997,20997,21030,21030,21030,21031,21031,21031,21031,21031,21031,21032,21033,21033,21033,21033,21033,21033,21033,21033,21066,21066,21067,21067,21067,21067,21067,21067,21067,21068,21069,21069,21069,21069,21069,21069,21069,21069,21106,21106,21106,21106,21106,21107,21107,21107,21107,21108,21109,21109,21109,21109,21109,21109,21109,21109,21150,21150,21150,21150,21150,21150,21151,21151,21151,21191,21191,21191,21191,21191,21191,21191,21192,21192,21194,21194,21194,21194,21194,21194,21195,21195,21195,21197,21198,21198,21198,21198,21198,21198,21198,21199,21254,21254,21254,21254,21254,21254,21254,21255,21255,21313,21313,21313,21314,21314,21314,21314,21314,21314,21316,21316,21316,21316,21317,21317,21317,21317,21317,21374,21375,21375,21375,21376,21376,21376,21376,21376,21435,21435,21435,21435,21435,21436,21436,21436,21436,21494,21494,21495,21495,21495,21495,21495,21495,21496,21551,21551,21551,21551,21552,21552,21552,21552,21552,21611,21611,21611,21611,21612,21612,21612,21612,21612,21669,21669,21670,21670,21670,21670,21670,21671,21671,21730,21730,21731,21731,21731,21731,21731,21731,21732" d="m104,410c3.30016,-2.64301 3.9082,-3.31122 4.52084,-4.04166c0.31709,-0.37805 0.95354,-1.1705 1.64583,-1.95834c0.71286,-0.81125 1.0951,-1.21832 1.9375,-2.02084c0.44357,-0.42258 0.92181,-0.84503 1.4385,-1.2645c1.1089,-0.90024 1.74118,-1.33905 2.396,-1.80267c0.67912,-0.4808 1.38585,-0.96671 2.103,-1.47449c0.7309,-0.51752 1.47141,-1.04413 2.193,-1.6095c1.45132,-1.13712 2.12946,-1.76379 2.79733,-2.39868c0.66955,-0.63647 1.31983,-1.29892 1.968,-1.97098c0.65319,-0.67728 1.30144,-1.37109 1.968,-2.061c1.35744,-1.405 2.07071,-2.10165 2.80266,-2.79602c0.73936,-0.70139 1.49791,-1.3945 2.27101,-2.08047c0.77623,-0.68872 1.56319,-1.36859 2.36099,-2.03552c1.58917,-1.32849 2.39587,-1.96582 3.19734,-2.60132c0.79854,-0.63318 1.59999,-1.25867 2.39999,-1.884c0.8,-0.62534 1.60242,-1.2496 2.39999,-1.884c1.60489,-1.27655 2.40222,-1.93466 3.19867,-2.60132c0.79922,-0.66901 1.59297,-1.34802 2.38051,-2.03552c0.78716,-0.68716 1.56714,-1.37985 2.33549,-2.08047c1.52559,-1.39111 2.26469,-2.09882 3.00667,-2.80002c0.74403,-0.70313 1.49268,-1.41293 2.26199,-2.11951c0.78265,-0.71881 1.58881,-1.44711 2.442,-2.16449c1.789,-1.50421 2.77757,-2.24167 3.79733,-3c1.04549,-0.77747 2.12482,-1.55139 3.21901,-2.33551c1.10315,-0.79056 2.21431,-1.57681 3.30899,-2.38049c2.15924,-1.58527 3.1888,-2.39313 4.192,-3.19598c0.98541,-0.7886 1.94035,-1.57935 2.87401,-2.36102c0.91698,-0.7677 1.81061,-1.52975 2.694,-2.271c1.71866,-1.44208 2.56622,-2.13019 3.40533,-2.80267c0.82959,-0.66486 1.65866,-1.31732 2.48399,-1.96799c0.82533,-0.65067 1.65555,-1.30173 2.48399,-1.96799c1.6886,-1.35803 2.53951,-2.07339 3.40533,-2.80402c0.88286,-0.74503 1.77817,-1.51123 2.694,-2.2905c0.93483,-0.79544 1.88887,-1.60825 2.87401,-2.42551c2.03485,-1.68811 3.10426,-2.5368 4.19733,-3.396c1.10957,-0.87219 2.24084,-1.74374 3.38701,-2.616c1.1525,-0.87708 2.31316,-1.74936 3.47699,-2.616c2.31168,-1.72137 3.46048,-2.56174 4.59467,-3.40134c1.12581,-0.8334 2.24304,-1.664 3.345,-2.50351c1.09804,-0.83652 2.18846,-1.67853 3.255,-2.54849c2.13713,-1.74319 3.17035,-2.66827 4.20399,-3.60132c1.03941,-0.93826 2.06932,-1.89993 3.1035,-2.871c1.04184,-0.97827 2.08505,-1.97159 3.1485,-2.961c2.15602,-2.00595 3.27071,-3.00031 4.39867,-3.99734c1.1347,-1.00299 2.28267,-2 3.43201,-3c1.14934,-1 2.29907,-1.995 3.43201,-3c2.24345,-1.99014 3.32826,-2.99637 4.39732,-3.99866c1.05959,-0.99341 2.09982,-1.98947 3.129,-2.9805c1.02148,-0.98364 2.03073,-1.9657 3.039,-2.93552c1.99886,-1.92264 3.00258,-2.86984 4.028,-3.82001c1.05682,-0.97928 2.17389,-1.99319 3.37051,-3.05698c1.28445,-1.14185 2.68604,-2.36636 4.22549,-3.68701c3.53543,-3.03287 5.58286,-4.74194 7.77066,-6.57999c2.29449,-1.92767 4.65924,-3.90842 7.0455,-5.9205c2.37506,-2.00262 4.69919,-3.96338 6.91049,-5.87552c4.00146,-3.46011 5.68661,-4.99312 7.17734,-6.37732c1.33252,-1.23734 2.50592,-2.36868 3.55801,-3.39301c0.95575,-0.93053 1.82248,-1.79869 2.65799,-2.58299c1.57428,-1.47778 2.3949,-2.15779 3.23065,-2.82268c0.84,-0.66824 1.70694,-1.31317 2.59052,-1.9485c0.89108,-0.64073 1.80264,-1.27051 2.72549,-1.90349c1.87656,-1.28709 2.83801,-1.93764 3.81467,-2.62001c1.01547,-0.70949 2.07617,-1.46629 3.189,-2.289c1.19153,-0.88091 2.46381,-1.84607 3.819,-2.91899c3.07385,-2.43364 4.76923,-3.86342 6.58133,-5.38c1.89536,-1.58627 3.83612,-3.22946 5.80801,-4.8885c1.96945,-1.65697 3.90607,-3.2903 5.80801,-4.84349c3.5083,-2.86497 5.10834,-4.08563 6.59332,-5.19867c1.38641,-1.03917 2.71802,-1.99992 3.99451,-2.937c1.25546,-0.92163 2.51721,-1.84662 3.7695,-2.847c2.69919,-2.1562 4.11383,-3.44409 5.61731,-4.81334c1.58228,-1.44102 3.20593,-2.97006 4.884,-4.548c1.71927,-1.6167 3.45975,-3.26903 5.24402,-4.90799c3.57028,-3.27953 5.38071,-4.84555 7.172,-6.37334c1.75253,-1.49474 3.47705,-2.92461 5.14648,-4.302c1.60132,-1.3212 3.13446,-2.56654 4.56152,-3.76199c2.55487,-2.1402 3.63834,-3.10991 4.61465,-4.01468c0.90726,-0.84077 1.74521,-1.65875 2.55301,-2.4525c0.8002,-0.78627 1.60434,-1.593 2.46298,-2.4075c1.89526,-1.79782 3.01129,-2.76918 4.22,-3.81467c1.29202,-1.11754 2.67487,-2.28398 4.12952,-3.50699c1.51733,-1.27573 3.09558,-2.59158 4.71448,-3.957c3.35339,-2.82831 5.05878,-4.29573 6.77734,-5.78267c1.72681,-1.49405 3.44595,-2.9953 5.15399,-4.4895c1.6893,-1.47781 3.34772,-2.93486 4.974,-4.35451c3.10623,-2.71155 4.57761,-3.98129 5.99469,-5.19199c1.36032,-1.1622 2.67435,-2.27155 3.948,-3.32851c1.22781,-1.01892 2.42017,-1.99547 3.58798,-2.92349c2.2355,-1.77645 3.3324,-2.60141 4.39734,-3.40267c1.02914,-0.77433 2.02402,-1.51067 2.97299,-2.2155l0.89902,-0.66984l0.84299,-0.63383l0.78101,-0.59683" id="svg_11" stroke-width="2" stroke="#000" fill="none"/>
 </g>
 <g display="none">
  <title>muse_image</title>
  <image xlink:href="http://www.roscalen.com/ashtar/Rotherham050507/FernandaGuitar.jpg" id="muse" height="480" width="534" y="0" x="53"/>
 </g>
 <g display="none">
  <title>bbox</title>
  <rect stroke="#f00" fill="none" stroke-width="3" height="318.54545" width="512.18627" y="160.58182" x="60.85294" id="bbox"/>
 </g>
</svg>
