<svg width="640" height="480" xmlns="http://www.w3.org/2000/svg" xmlns:svg="http://www.w3.org/2000/svg" xmlns:xlink="http://www.w3.org/1999/xlink">
 <!-- Sketchy ANNOTATION
  ImageNet ID: n02676566_330
  URL: http://i131.photobucket.com/albums/p312/JERMDADDY/Taylors2/TaylorGS7LeftyAcousticGuitar001.jpg
  Image Width: 402
  Image Height: 600
  BBox X: 79
  BBox Y: 13
  BBox Width: 231
  BBox Height: 573
  Exposure: 2000ms
  Synset Label: guitar
  Synset ID: n03467517
  Worker Tag: guitar
  Sanity Check: 
   Saved
  Comment: 
   {}
  Worker ID: AQ9ISCTDF9B48
  Assignment ID: 3PM8NZGV8YG1X45YC6MLDIQFWXRQX6
  HIT ID: 3ZICQFRS31IXT78AAIOHCCN95LLZZ9
  Work Time: 138s
  Worker Score: 0.7857
 END ANNOTATION -->
 <g display="inline">
  <title>Layer 1</title>
  <path t="0,127,134,143,159,176,193,193,209,209,209,226,226,243,259,277,277,293,293,293,309,309,326,326,342,342,359,375,376,393,393,409,430,430,442,442,459,476,492,509,526,542,559,559,582,597,610,626,626,654,654,670,679,694,726,726,726,742,759,759,776,792,792,809,827,842,842,859,859,876,876,892,909,909,926,942,942,942,959,959,959,976,976,976,992,992,1009,1009,1026,1026,1042,1042,1059,1059,1076,1076,1076,1092,1092,1109,1109,1126,1142,1159,1159,1176,1192,1192,1209,1226,1226,1226,1246,1246,1259,1259,1276,1292,1292,1309,1309,1326,1342,1342,1359,1359,1377,1392,1409,1409,1426,1426,1442,1442,1459,1459,1476,1492,1509,1509,1526,1526,1526,1542,1542,1559,1559,1559,1576,1576,1592,1592,1609,1609,1609,1626,1626,1642,1659,1659,1676,1676,1692,1709,1709,1726,1726,1742,1759,1759,1776,1776,1776,1792,1792,1792,1809,1809,1826,1826,1842,1842,1859,1859,1876,1876,1876,1892,1892,1909,1909,1909,1926,1926,1926,1942,1942,1959,1959,1976,1976,1976,1992,2009,2009,2009,2026,2026,2042,2042,2059,2059,2076,2076,2092,2092,2109,2109,2109,2126,2126,2142,2142,2159,2159,2159,2176,2176,2176,2192,2192,2209,2209,2226,2226,2226,2242,2242,2242,2259,2259,2276,2276,2276,2292,2292,2309,2309,2309,2309,2326,2326,2326,2342,2359,2359,2359,2376,2376,2392,2392,2409,2409,2426,2426,2442,2442,2442,2459,2459,2459,2476,2476,2476,2492,2492,2492,2509,2509,2509,2526,2526,2526,2542,2542,2542,2542,2559,2559,2559,2559,2559,2559,2576,2576,2576,2576,2576,2592,2592,2592,2609,2609,2609,2609,2626,2626,2626,2642,2642,2642,2663,2663,2663,2676,2676,2676,2676,2692,2692,2692,2692,2692,2709,2709,2709,2726,2726,2726,2742,2742,2759,2759,2759,2759,2776,2776,2776,2776,2776,2792,2792,2792,2809,2809,2809,2809,2826,2826,2842,2842,2842,2859,2859,2859,2859,2876,2876,2876,2892,2892,2892,2909,2909,2909,2926,2926,2926,2942,2942,2942,2942,2959,2959,2959,2959,2959,2959,2976,2976,2976,2976,2992,2992,2992,3009,3009,3009,3034,3034,3034,3042,3042,3059,3059,3059,3059,3059,3076,3076,3076,3076,3076,3092,3092,3092,3092,3092,3109,3109,3109,3109,3109,3126,3126,3126,3126,3142,3142,3142,3142,3142,3159,3159,3159,3159,3176,3176,3176,3176,3177,3192,3192,3192,3209,3209,3226,3226,3242,3242,3259,3259,3259,3276,3276,3276,3292,3292,3292,3310,3310,3310,3310,3310,3326,3326,3327,3342,3342,3342,3342,3366,3366,3366,3383,3398,3409,3426,3442,3442,3459,3476,3476,3492,3509,3526,3542,3542,3542,3559,3559,3559,3576,3576,3592,3592,3592,3609,3609,3626,3626,3642,3662,3663,3676,3676,3676,3692,3693,3709,3726,3726,3742,3742,3742,3759,3776,3792,3809,3826,3842,3842,3859,3859,3876,3876,3892,3909,3909,3926,3926,3942,3942,3959,3976,3976,3993,4009,4009,4026,4026,4042,4042,4059,4059,4076,4076,4076,4092,4092,4109,4109,4126,4126,4126,4142,4142,4142,4159,4159,4176,4192,4192,4209,4209,4226,4226,4242,4242,4259,4259,4276,4292,4292,4309,4326,4342,4342,4359,4376,4392,4409,4409,4426,4442,4459,4476,4476,4492,4492,4510,4510,4526,4526,4542,4559,4582,4582,4606,4622,4622,4654,4654,4670,4670,4687,4703,4710,4726,4742,4742,4759,4776,4776,4792,4809,4809,4826,4846,4846,4859,4880,4880,4902,4926,4926,4972,4973,4980,4993,5010,5026,5026,5044,5060,5076,5092,5109,5126,5142,5159,5159,5198,5198,5222,5238,5262,5262,5276,5292,5310,5326,5342,5343,5359,5376,5392,5392,5409,5409,5426,5442,5459,5476,5494,5494,5509,5526,5542,5559,5576,5592,5614,5630,5630,5642,5662,5676,5692,5709,5709,5726,5726,5742,5743,5759,5776,5792,5809,5809,5826,5826,5843,5859,5876,5893,5893,5909,5909,5926,5926,5943,5943,5959,5976,5976,5993,6009,6026,6043,6059,6060,6076,6093,6109,6110,6126,6158,6158,6176,6176,6192,6192,6209,6226,6242,6259,6260,6286,6310,6310,6326,6326,6343,6359,6376,6392,6393,6409,6410,6426,6443,6460,6478,6478,6502,6503,6511,6534,6550,6565,6566,6581,6597,6609,6646,6646,6662,6677,6694,6709,6728,6757,6797,6809,6826,6826,6845,6861,6925,6926,6949,6989,6990" d="m282,260c-1.70001,0 -2.60001,0 -3.5,0c-0.89999,0 -1.8045,0 -2.8215,0c-0.69934,0 -1.6785,0 -2.47849,0c-0.80002,0 -1.7955,0 -2.71469,0c-0.96448,0 -1.78995,-0.01495 -2.80682,0.00015c-0.69955,0.01041 -1.68326,0.15222 -2.47849,0.42517c-0.80508,0.27631 -1.80841,0.45352 -2.54285,0.62735c-0.92874,0.21979 -1.51306,0.79538 -2.30984,1.24283c-0.83676,0.46991 -1.74478,0.60416 -2.66864,0.92599c-0.70047,0.24402 -1.48395,0.81888 -2.15785,1.25766c-0.79517,0.51773 -1.71022,0.63818 -2.52083,1.04169c-0.86055,0.42834 -1.48764,0.94385 -2.2955,1.42648c-0.65894,0.39368 -1.25533,0.99277 -2.0045,1.40533c-0.83855,0.46179 -1.46527,0.92078 -1.86667,1.64734c-0.42688,0.77271 -1.0753,1.38483 -1.93317,1.87866c-0.73747,0.42453 -1.20744,1.17316 -1.5475,1.87851c-0.41016,0.85071 -0.1826,1.70099 -0.70982,2.48117c-0.54906,0.81247 -1.48471,0.99533 -1.80951,1.92831c-0.23267,0.6683 -0.6691,1.32489 -0.8125,2.33334c-0.13855,0.97443 0.08755,1.85446 -0.02533,2.74283c-0.11145,0.87714 -0.84146,1.52399 -0.98483,2.35718c-0.15616,0.90756 0.05933,1.8913 -0.04666,2.57465c-0.1492,0.96198 -0.77881,1.68872 -0.92801,2.6507c-0.10599,0.68335 -0.036,1.67465 -0.036,2.65866c0,0.86331 0,1.76334 0,2.68265c0,0.875 -0.01099,1.52008 0.00133,2.51868c0.0103,0.83566 0.04916,1.72198 0.22,2.61432c0.16968,0.88629 0.45587,1.67877 0.69467,2.73102c0.19218,0.84686 0.43138,1.6311 0.7885,2.37384c0.48108,1.00058 0.82021,1.55762 1.17433,2.57416c0.26572,0.76276 0.69658,1.50153 1.3065,2.23199c0.65456,0.78391 1.04503,1.39252 1.51016,2.13217c0.49147,0.78152 1.01941,1.39999 1.60451,2.30533c0.41057,0.63528 1.13405,1.24545 1.72083,1.87268c0.59583,0.6369 1.29117,0.93979 1.86934,1.77914c0.49121,0.7131 0.85211,1.36493 1.50983,2.11069c0.6384,0.72385 1.00639,1.42203 1.40001,2.19064c0.40662,0.79401 0.74185,1.60138 1.3,2.37717c0.54602,0.75891 1.35443,1.22702 1.77866,2.12167c0.34773,0.73334 0.52014,1.53452 0.83734,2.41583c0.30371,0.84381 0.51227,1.80252 0.784,2.48401c0.38861,0.97458 0.55438,1.69455 1,2.5c0.44455,0.80356 0.5,1.66666 0.5,2.5c0,0.97867 0,1.75266 0,2.65717c0,0.94415 0,1.93832 0,2.68567c0,0.89999 0.00769,1.85852 0,2.82382c-0.00534,0.6694 -0.15103,1.83841 -0.35266,2.43335c-0.27365,0.80743 -0.54016,1.8035 -0.67267,2.60001c-0.16724,1.00528 -0.48117,1.82162 -0.86133,2.39999c-0.54735,0.83276 -1.19333,1.30701 -1.78001,2.23334c-0.47093,0.74359 -0.78764,1.47903 -1.33333,2.1875c-0.44154,0.57324 -0.84477,1.58569 -1.04817,2.32199c-0.25339,0.91721 -0.98442,1.62772 -1.45183,2.17801c-0.64755,0.76236 -0.86507,1.58423 -1.59984,2.23633c-0.67836,0.60202 -1.03445,1.15524 -1.6055,1.89551c-0.5564,0.72128 -1.01443,1.51245 -1.46133,2.34732c-0.38972,0.72806 -1.00482,1.3299 -1.48599,2.00534c-0.52731,0.74023 -1.1774,1.66388 -1.59016,2.18481c-0.55148,0.69598 -1.06671,1.46198 -1.45717,2.21436c-0.5126,0.98773 -0.76057,1.59897 -1.3,2.42883c-0.44745,0.68835 -0.80589,1.50632 -1.06134,2.37732c-0.29836,1.01733 -0.78558,1.5918 -1.2905,2.13217c-0.74217,0.79431 -1.29562,1.28729 -1.74817,2.20001c-0.34586,0.69754 -0.58556,1.51471 -0.99983,2.53564c-0.2798,0.68951 -0.66383,1.51004 -0.84749,2.52151c-0.14415,0.79391 -0.31631,1.80896 -0.5735,2.39999c-0.44244,1.01678 -0.83357,1.57083 -1.19383,2.51468c-0.32513,0.85184 -0.60782,1.8248 -0.99068,2.49066c-0.43187,0.7511 -0.9968,1.64804 -1.23332,2.33331c-0.3336,0.96655 -0.62158,1.63971 -0.89467,2.49469c-0.24796,0.77631 -0.48102,1.64053 -0.74133,2.37732c-0.34479,0.97589 -0.35207,1.80435 -0.59201,2.78934c-0.19899,0.81689 -0.62862,1.58527 -0.77617,2.60001c-0.11536,0.79337 -0.05716,1.79999 -0.05716,2.60001c0,1.00015 0,1.82083 0,2.48532c0,0.99866 0,1.81467 0,2.63068c0,0.99866 0,1.87332 0,2.884c0,0.79999 -0.02917,1.8009 0.01067,2.61066c0.04314,0.87677 0.27162,1.87378 0.48933,2.68933c0.14619,0.54764 0.40402,1.81628 0.5,2.47916c0.14822,1.02368 0.42274,1.82703 0.80133,2.62085c0.38527,0.80786 0.81564,1.62888 1.19867,2.56665c0.31873,0.78036 0.47273,1.35657 0.88533,2.14935c0.5367,1.03122 1.13672,1.61005 1.54533,2.19733c0.57112,0.82083 0.75403,1.82629 1.11101,2.50751c0.31343,0.59811 1.10124,1.58377 1.633,2.14316c0.64699,0.68063 1.2939,1.32596 1.92551,1.936c0.52713,0.50916 1.37828,1.11273 2.11049,1.5c0.78223,0.41373 1.60831,0.77972 2.18933,1.15717c1.0367,0.67346 1.58266,1.2637 2.20001,1.75882c0.78032,0.62579 1.4108,0.98492 2.08533,1.28268c0.98508,0.43488 1.83371,0.68222 2.63066,1.08667c0.78331,0.39752 1.42236,0.98584 2.13667,1.40482c0.92776,0.54416 1.78946,0.6282 2.65184,0.81519c0.90308,0.1958 1.80743,0.60779 2.45799,0.9155c0.70734,0.33456 1.93472,0.82172 2.40149,0.95782c0.98853,0.28827 1.51282,0.39273 2.56,0.64667c0.5184,0.1257 1.98578,0.51639 2.82001,0.85733c0.75757,0.30963 1.40833,0.69241 2.052,0.948c1.17917,0.46823 1.8053,0.49792 2.70401,0.61749c1.20184,0.15988 1.80432,0.29413 2.69998,0.5625c0.60309,0.18069 1.79514,0.5994 2.67917,0.8685c0.56152,0.17093 1.599,0.40353 2.52084,0.52084c0.68362,0.08701 1.68518,0.29004 2.54166,0.5c0.61893,0.15173 1.9791,0.38757 2.71552,0.44733c0.76297,0.06192 1.55072,0.07404 2.74283,0.21933c0.80151,0.09769 1.59177,0.25891 2.36401,0.444c0.75314,0.18051 1.81354,0.49179 2.78931,0.77869c0.59952,0.17627 1.67484,0.48807 2.60001,0.57465c0.75748,0.07089 1.65335,0.03601 2.38669,0.03601c1.19998,0 1.99332,0 2.86664,0c0.45419,0 1.82669,0 2.7067,0c0.84,0 1.63998,0 2.39999,0c1.06516,0 2.05066,0 2.67599,0c1.21066,0 2.10617,0 2.68982,0c0.83551,0 2.07083,-0.0318 2.74619,0.03601c1.20438,0.12094 1.72751,0.33389 2.58533,0.53867c1.18387,0.28259 1.78799,0.36246 2.68933,0.40448c0.89923,0.04193 1.79984,0.02084 2.68933,0.02084c0.85352,0 1.88934,0 2.81067,0c0.68399,0 1.68533,0 2.52084,0c0.88049,0 1.77914,0 2.67917,0c0.89999,0 1.79999,0 2.7135,0c0.64899,0 1.74249,0 2.58649,0c0.95334,0 1.98666,0 2.52084,0c0.53915,0 1.61249,0 3.13583,0c0.47,0 1.34998,0 2.14999,0c1.35999,0 2.1835,0 2.90799,0c0.952,0 1.73801,0 2.56,0c1.05869,0 1.98935,0 2.82401,0c1.01035,0 1.67334,0 2.73468,0c0.63864,0 1.72916,0 2.53284,0c0.42181,0 1.75516,0 2.68649,0c0.94733,0 1.422,0 2.36331,0c1.36267,0 2.23135,0 3.08401,0c0.42532,0 1.284,0 2.62115,0c0.927,0 1.39352,0 2.3175,0c0.892,0 2.11868,0 2.85602,0c1.056,0 1.77332,0 2.948,0c0.86267,0 1.30798,0 2.20667,0c0.88266,0 2.10809,0.0087 2.84534,-0.00449c1.0563,-0.01886 1.77594,-0.05984 2.948,-0.21686c0.86487,-0.11588 1.30756,-0.20663 2.20667,-0.35333c0.88223,-0.14395 2.1062,-0.31796 2.82733,-0.36816c0.92889,-0.0647 1.88998,-0.05661 2.70248,-0.05716c1.00616,-0.00067 1.74817,0.0376 2.72086,-0.22134c0.8186,-0.21793 1.80035,-0.60999 2.61066,-0.76398c0.64679,-0.12292 1.62204,-0.43637 2.41467,-0.87601c0.55771,-0.30933 1.60123,-0.98401 2.32648,-1.38602c0.70313,-0.38974 1.78006,-0.92227 2.41617,-1.23532c0.68112,-0.33517 1.37003,-0.68402 2.06403,-0.948c1.18265,-0.44983 1.97623,-0.53531 2.73599,-0.73734c0.88605,-0.23563 1.88568,-0.68692 2.58133,-1.01733c0.6857,-0.32571 1.62094,-0.76776 2.35733,-1.17868c0.73444,-0.40982 1.3056,-1.28549 2.14401,-1.61066c0.87589,-0.33969 1.43326,-0.77423 2.24933,-1.24683c0.66656,-0.38602 1.29077,-1.18784 1.89999,-1.7785c0.59122,-0.57321 1.51443,-0.86096 2,-1.52084c0.51041,-0.69366 1.02676,-1.63077 1.39999,-2.32584c0.32373,-0.60284 0.69696,-1.57565 1,-2.36798c0.29703,-0.77667 0.77728,-1.60217 1.164,-2.436c0.39798,-0.85809 0.35831,-1.60736 0.48868,-2.34399c0.21478,-1.21371 0.71573,-1.87418 0.89465,-2.65802c0.19452,-0.85214 0.62631,-1.66437 0.93118,-2.66882c0.2052,-0.67609 0.08963,-1.67957 0.13217,-2.47849c0.04272,-0.80237 0.36447,-1.78702 0.63666,-2.54285c0.32242,-0.89526 0.30002,-1.82672 0.3735,-2.67801c0.08514,-0.9863 0.44656,-1.75302 0.69516,-2.49384c0.31805,-0.94778 0.284,-1.88531 0.284,-2.78531c0,-0.90002 0,-1.80002 0,-2.70001c0,-0.75717 0,-1.65717 0,-2.40451c0,-0.99417 0,-1.93832 0,-2.84283c0,-0.91931 0.03589,-1.75333 -0.00015,-2.73132c-0.02859,-0.77554 -0.38397,-1.6615 -0.64719,-2.36865c-0.37259,-1.00098 -0.72122,-1.80008 -1.06866,-2.45267c-0.41888,-0.78683 -0.51859,-1.71057 -0.98849,-2.54733c-0.44745,-0.79678 -1.02304,-1.3811 -1.24283,-2.30984c-0.17383,-0.73444 -0.31149,-1.75412 -0.66333,-2.54285c-0.36243,-0.81253 -0.75671,-1.60828 -1.18933,-2.31467c-0.5491,-0.89661 -0.95575,-1.44611 -1.15186,-2.49066c-0.13876,-0.73907 -0.32977,-1.70465 -0.90948,-2.34399c-0.60568,-0.668 -1.27191,-1.4097 -1.61783,-2.15067c-0.33789,-0.72369 -0.87726,-1.6481 -1.2355,-2.29733c-0.42242,-0.76553 -1.0304,-1.46097 -1.63718,-1.95984c-0.81314,-0.66855 -1.26819,-1.39362 -1.52682,-2.2215c-0.23657,-0.7572 -0.43643,-1.69672 -0.82584,-2.36865c-0.53925,-0.93045 -1.09515,-1.45169 -1.7955,-2.15268c-0.69968,-0.70035 -1.27164,-1.13605 -1.88934,-1.89999c-0.60223,-0.74478 -0.64694,-1.73691 -1.31516,-2.24283c-0.69522,-0.52637 -1.73169,-0.62286 -2.17416,-1.45718c-0.44275,-0.83481 -0.68674,-1.54797 -1.42133,-2.1955c-0.66223,-0.58374 -1.41479,-0.92902 -1.86667,-1.7045c-0.38687,-0.66388 -1.32373,-1.18921 -2.008,-1.60001c-0.81177,-0.4873 -1.43198,-1.0271 -2.14651,-1.5c-0.64212,-0.42499 -1.30502,-1.28043 -1.96417,-1.81598c-0.67526,-0.54865 -1.4158,-0.78738 -2.11465,-1.48401c-0.60098,-0.59903 -1.22562,-1.17548 -1.89999,-1.90451c-0.52042,-0.56262 -0.91159,-1.40808 -1.40002,-1.98566c-0.6716,-0.79419 -1.29364,-1.33737 -1.72531,-2.10983c-0.45782,-0.81924 -0.69815,-1.63541 -1.27917,-2.30002c-0.55637,-0.63641 -1.38483,-1.22711 -1.8595,-1.89999c-0.51837,-0.7348 -0.69946,-1.61954 -1.23734,-2.19998c-0.67224,-0.72543 -1.29868,-1.30002 -1.89868,-1.90002c-0.69998,-0.69998 -1.39111,-1.22583 -1.86398,-1.89999c-0.52185,-0.74399 -0.66431,-1.71851 -0.936,-2.39999c-0.38852,-0.97455 -0.30304,-1.83325 -0.55716,-2.70001c-0.25726,-0.87744 -0.77927,-1.64703 -1.16418,-2.39999c-0.39017,-0.76318 -0.7764,-1.60001 -0.77866,-2.5c-0.00223,-0.89999 0,-1.79999 0,-2.69998c0,-0.90002 0,-1.80002 0,-2.70001c0,-0.75717 -0.11853,-1.67322 0.08533,-2.51599c0.21481,-0.88803 0.71466,-1.7301 1.08133,-2.48401c0.3714,-0.76364 0.92282,-1.39178 1.48068,-2.05267c0.49512,-0.58655 0.89444,-1.42764 1.55133,-2.14734c0.53348,-0.5845 0.71741,-1.46628 1.23734,-2.19998c0.55786,-0.7872 1.27734,-1.33612 1.51132,-2.24817c0.19739,-0.76944 0.84512,-1.34808 1.05133,-2.15317c0.22345,-0.87244 0.53186,-1.68948 1.10117,-2.29868c0.55252,-0.59125 0.89175,-1.51779 1.3255,-2.29999c0.4548,-0.82016 0.31842,-1.82492 0.79602,-2.47867c0.51071,-0.69907 0.61499,-1.37863 1,-2.22134c0.30579,-0.66931 0.77023,-1.51779 1.20398,-2.29999c0.4548,-0.82016 0.54077,-1.70065 0.57468,-2.60001c0.02859,-0.75879 0.32001,-1.67255 0.7045,-2.34732c0.45184,-0.793 1.14664,-1.41971 1.29102,-2.35269c0.13763,-0.88943 0.02795,-1.82114 0.00314,-2.784c-0.01782,-0.69128 -0.35522,-1.58987 -0.71466,-2.31467c-0.42749,-0.86197 -0.8576,-1.6644 -1.23132,-2.50131c-0.34488,-0.77234 -0.7981,-1.431 -1.25134,-2.18402c-0.40292,-0.6694 -0.66309,-1.6459 -0.88535,-2.39999c-0.28412,-0.96402 -0.65884,-1.67645 -1.31598,-2.48001c-0.55353,-0.67685 -1.19247,-1.22198 -1.57468,-2.03598c-0.41388,-0.88144 -1.22403,-1.13202 -1.85867,-1.76666c-0.63464,-0.63464 -0.9671,-1.31659 -1.64581,-1.83334c-0.67346,-0.51276 -0.71628,-1.53555 -1.1315,-2.13867c-0.58002,-0.84247 -1.57874,-0.97867 -2.38934,-1.38217c-0.86057,-0.42834 -1.46945,-0.98935 -2.10001,-1.57898c-0.59106,-0.5527 -1.51779,-0.89175 -2.29999,-1.3255c-0.82016,-0.4548 -1.63983,-0.39655 -2.39999,-0.66c-0.93289,-0.32333 -1.49945,-1.05664 -2.20001,-1.39383c-0.95227,-0.45834 -1.79886,-0.50214 -2.70001,-0.52084c-0.90051,-0.01868 -1.63409,-0.55429 -2.50131,-0.91599c-0.65009,-0.27115 -1.60638,-0.55539 -2.31467,-0.80002c-0.94376,-0.32596 -1.88812,-0.20227 -2.78851,-0.28848c-0.87329,-0.08359 -1.66705,-0.57803 -2.52884,-0.82886c-0.84232,-0.24515 -1.61252,-0.33359 -2.27649,-0.814c-0.66409,-0.4805 -1.71408,-0.53726 -2.47949,-0.92734c-0.80127,-0.40833 -1.71539,-0.33444 -2.61069,-0.42667c-0.81259,-0.08368 -1.45261,-0.79883 -2.29999,-0.97781c-0.8808,-0.18604 -1.82169,0.17404 -2.69867,-0.02219c-0.80704,-0.18057 -1.35211,-0.93884 -2.10132,-1.35132c-0.83865,-0.46173 -1.72772,-0.50128 -2.40002,-0.7045c-0.87527,-0.26456 -1.65259,-0.77374 -2.5,-1.22684c-0.65198,-0.3486 -1.43597,-0.70532 -2.44815,-0.7205l-0.7825,-0.08083" id="svg_1" stroke-width="2" stroke="#000" fill="none"/>
  <path t="11094,11230,11254,11254,11286,11302,11326,11358,11374,11382,11446,11526,11534,11566,11566,11574,11598,11598,11622,11638,11638,11662,11670,11694,11710,11734,11734,11742,11758,11766,11782,11798,11830,11830,11838,11853,11870,11886,11893,11910,11925,11942,11959,11959,11959,11975,11975,11992,11992,12009,12025,12042,12042,12059,12075,12075,12092,12109,12109,12109,12125,12125,12142,12142,12159,12159,12182,12197,12198,12209,12225,12225,12246,12259,12259,12275,12292,12309,12325,12342,12342,12342,12359,12359,12375,12375,12397,12414,12425,12446,12446,12470,12479,12501,12517,12518,12525,12542,12559,12559,12575,12592,12609,12625,12625,12642,12664,12664,12678,12693,12709,12725,12725,12749,12765,12781,12797,12809,12825,12846,12846,12863,12875,12893,12917,12926,12942,12942,12959,12975,12992,13009,13009,13025,13062,13062,13085,13093,13117,13133,13134,13149,13165,13182,13198,13214,13225,13246,13261,13293,13293,13309,13325,13342,13359,13382,13398,13398,13409,13430,13442,13459,13475,13475,13492,13517,13541,13558,13573,13574,13605,13661,13670,13789,13798" d="m312,307c-1.82535,0 -2.83334,0 -3.6955,0c-0.90451,0 -1.8045,0 -2.7045,0c-0.89999,0 -1.80862,-0.12402 -2.69983,0.00015c-0.80188,0.11172 -1.26541,0.87109 -2.10019,1.00119c-0.91547,0.14267 -1.50113,0.70203 -2.19998,1.39865c-0.60098,0.59903 -1.24585,1.15726 -1.89551,1.89999c-0.58121,0.66446 -0.68582,1.50018 -0.7045,2.40002c-0.01868,0.90051 -0.5274,1.64572 -0.91599,2.5c-0.34711,0.76309 -0.88419,1.45261 -1.06317,2.29999c-0.18604,0.8808 -0.02084,1.79999 -0.02084,2.70001c0,0.89999 0,1.79999 0,2.59998c0,0.90002 0,1.80002 0,2.70001c0,0.89999 -0.00009,1.79999 0,2.70001c0.00009,0.89981 0.41437,1.58887 1,2.29999c0.40527,0.4921 0.50436,1.30887 1.10001,2.35699c0.43378,0.76331 1.10269,1.34033 1.69998,1.94299c0.59204,0.59735 0.96375,1.46707 1.42151,2.30002c0.37097,0.67505 1.18784,1.29077 1.7785,1.89999c0.57321,0.59122 0.88498,1.46844 1.44284,2.32132c0.35861,0.54825 1.0556,1.21417 1.8045,1.92151c0.49319,0.46582 1.4166,1.03821 2.09998,1.45718c0.78079,0.4787 1.3493,0.99887 2.05267,1.69998c0.70114,0.69888 1.15726,1.24585 1.89999,1.89551c0.66446,0.58121 1.47726,0.83069 2.22086,1.2045c0.93628,0.47067 1.79691,0.51282 2.45831,1c0.66138,0.48718 1.33038,1.12091 2.22217,1.41467c0.92044,0.30319 1.63467,0.08533 2.39999,0.08533c0.99869,0 1.79868,0 2.79736,0c0.94415,0 1.84415,0 2.80133,0c0.89999,0 1.80038,0.02536 2.59998,0c0.9014,-0.02859 1.66312,-0.57358 2.5,-0.94733c0.77219,-0.34485 1.47168,-0.69281 2.08936,-1.45267c0.60391,-0.74292 1.08505,-1.36966 1.75998,-1.62534c0.89401,-0.33865 1.52618,-0.89413 2.25067,-1.41068c0.78561,-0.56012 1.24585,-1.12125 1.89551,-1.86398c0.58121,-0.66446 0.82358,-1.47952 1.27917,-2.30002c0.4342,-0.78195 0.86768,-1.51181 1.25867,-2.39999c0.28952,-0.65765 0.16666,-1.60001 0.16666,-2.5c0,-0.89999 0,-1.79999 0,-2.70001c0,-0.89999 0,-1.79999 0,-2.59998c0,-0.90002 0,-1.80002 0,-2.70001c0,-0.89999 0.17194,-1.87552 -0.28534,-2.70001c-0.38382,-0.69202 -1.3656,-1.2189 -1.62933,-2c-0.28922,-0.85654 -0.33081,-1.75195 -0.73267,-2.5c-0.41898,-0.77997 -0.15509,-1.82184 -0.40982,-2.59015c-0.25775,-0.77744 -0.86237,-1.38531 -1.37885,-2.10983c-0.56,-0.78555 -1.20599,-1.30038 -1.564,-2.10001c-0.35635,-0.79587 -1.23376,-1.17984 -1.91599,-1.784c-0.59454,-0.52649 -1.02762,-1.28976 -1.69467,-1.74133c-0.73682,-0.49878 -1.42795,-1.151 -1.98935,-1.53867c-0.80753,-0.55759 -1.34119,-1.19543 -2.10449,-1.43152c-0.85638,-0.26489 -1.68781,-0.4487 -2.39551,-1.10431c-0.59363,-0.54996 -1.39981,-0.88974 -2.29999,-0.90018c-0.89993,-0.01041 -1.8573,0.16367 -2.70001,-0.22134c-0.66931,-0.30579 -1.51779,-0.77023 -2.29999,-1.20398c-0.82016,-0.4548 -1.70001,-0.57468 -2.60001,-0.57468c-0.79999,0 -1.70001,0 -2.60001,0l-0.89999,0l-0.89999,0l-0.89999,0" id="svg_2" stroke-width="2" stroke="#000" fill="none"/>
  <path t="15205,15309,15325,15342,15342,15359,15359,15359,15375,15375,15375,15392,15392,15409,15409,15425,15425,15425,15442,15442,15442,15460,15460,15475,15475,15475,15492,15492,15492,15509,15509,15525,15525,15525,15542,15542,15542,15559,15559,15559,15575,15575,15592,15592,15609,15609,15625,15642,15642,15662,15662,15675,15675,15692,15692,15709,15709,15709,15725,15725,15725,15742,15742,15759,15759,15759,15775,15775,15798,15798,15809,15830,16173,16182,16192,16192,16214,16225,16225,16242,16259,16275,16275,16275,16292,16309,16341,16341,16365,16397,16429,16661,16741,16757,16797,16837,16909,16909,16926,16926,16935,16950,16974,16990,17006,17030,17078,17078,17102,17142,17174,17182,17270,17310,17310,17374,17390,17390,17414,17454,17486,17502,17534,17534,17574,17574,17582,17598,17598,17630,17654,17670,17686,17686,17702,17742,17758,17774,17790,17814,17830,17830,17854,17870,17886,17894,17910,17926,17942,17966,17966,17998,18014,18014,18038,18054,18054,18094,18110,18118,18134,18150,18166,18182,18192,18208,18225,18254,18254,18294,18294,18318,18334,18334,18358,18374,18383,18414,18414,18430,18446,18462,18462,18478,18492,18542,18654,18934,19022,19038,19078,19078,19142,19358,19430,19454,19478,19502,19558,19598,19607,19638,19702,19702,19726,19750,19766" d="m301,405c1,-1 1.55264,-1.43979 2.28799,-1.91467c0.57892,-0.37384 1.72635,-0.08533 2.53333,-0.08533c0.58136,0 1.77734,0 2.65784,0c0.83551,0 1.83551,0 2.71017,0c1.01068,0 1.81067,0 2.81067,0c0.81067,0 1.45715,0 2.42117,0c0.79349,0 1.80948,0 2.7735,0c0.77332,0 1.81967,0 2.62665,0c0.58136,0 1.77734,0 2.65784,0c0.83551,0 1.83685,0 2.74619,0c0.94131,0 1.72733,0 2.54932,0c1.05869,0 1.77267,0 2.67801,0c0.96851,0 1.76199,0 2.53751,0c1.0405,0 1.89249,0 2.84583,0c0.76532,0 1.75949,0 2.67868,0c0.85999,0 1.80682,0 2.69598,0c0.98917,0 1.76849,0 2.76801,0c0.77399,0 1.68298,0.00006 2.483,0c0.95966,-0.00009 1.76709,0.03091 2.58566,-0.05716c1.03815,-0.11169 1.70157,-0.41589 2.55133,-0.65884c0.99136,-0.28342 1.85849,-0.28174 2.82266,-0.284c0.80402,-0.00186 1.62607,0.01205 2.65701,-0.00015c0.88019,-0.01041 1.74557,-0.18445 2.51099,-0.57452c0.80127,-0.40833 1.71066,-0.42532 2.61069,-0.42532c0.89999,0 1.8425,-0.18573 2.59998,0.08533c0.90112,0.32245 1.40457,1.11017 2,1.71466c0.68445,0.69485 1.00189,1.45978 1.53336,2.36667c0.30945,0.52805 1.17633,1.07126 1.55234,2.07617c0.30307,0.80994 0.3349,1.72385 0.689,2.35718c0.48151,0.86124 0.436,1.78934 0.92532,2.39999c0.48932,0.61066 0.54913,1.56613 -0.11066,2.02533c-0.72632,0.50549 -1.58786,0.93198 -2.556,0.97467c-0.83252,0.03671 -1.66669,0 -2.52884,0c-0.90451,0 -1.8045,0 -2.7045,0c-0.89999,0 -1.80002,0 -2.70001,0c-0.89999,0 -1.73441,-0.19595 -2.60001,0.05716c-0.87762,0.25665 -1.59863,0.91418 -2.5,0.94284c-0.89954,0.02863 -1.83188,0.12653 -2.39999,0.61066c-0.74533,0.63519 -1.39044,1.27859 -2.19998,1.388c-0.8938,0.12079 -1.62256,0.68689 -2.5,0.94418c-0.86548,0.25378 -1.69931,0.22482 -2.336,0.66782c-0.84708,0.58936 -1.50104,1.07864 -2.47867,1.30402c-0.86673,0.1998 -1.66519,0.2052 -2.48535,0.66c-0.7822,0.43375 -1.51181,0.86768 -2.39999,1.25867c-0.65765,0.28952 -1.60001,0.16666 -2.5,0.16666c-0.89999,0 -1.79999,0 -2.70001,0c-0.89999,0 -1.79999,0 -2.59998,0c-0.90002,0 -1.80002,0 -2.70001,0c-0.89999,0 -1.79999,0 -2.70001,0c-0.89999,0 -1.80035,0.02386 -2.59998,0c-0.95847,-0.02859 -1.84174,-0.37994 -2.54733,-0.64734c-0.88315,-0.33466 -1.77673,-0.54572 -2.35269,-1.05716c-0.73227,-0.65021 -1.51151,-1.12875 -2.39981,-1.29565c-0.79572,-0.14951 -1.27002,-0.92563 -1.87485,-1.42517c-0.6554,-0.54132 -1.58609,-0.5293 -2.05066,-1.18533c-0.50876,-0.71844 -1.18704,-1.26547 -1.86002,-1.47336c-0.95905,-0.29623 -1.67511,-0.65884 -2.47867,-1.31598c-0.67685,-0.55353 -1.17035,-1.3389 -2.03598,-1.564c-0.86755,-0.22562 -1.47183,-0.67804 -2.30984,-0.97885c-0.76184,-0.27347 -1.81018,0.00916 -2.59015,-0.40982c-0.74805,-0.40186 -1.50018,-0.62866 -2.40002,-0.64734c-0.90051,-0.01868 -1.61035,-0.61804 -2.5,-0.91467c-0.85745,-0.28589 -1.75726,-0.36734 -1.79999,-1.18533c-0.04694,-0.89877 -0.01801,-1.70016 0,-2.60001c0.01801,-0.90054 0.32858,-1.89801 1.20001,-2.21466c0.84952,-0.30869 1.4693,-0.63373 2.15717,-1.02817c0.8194,-0.46985 1.84283,-0.05716 2.74283,-0.05716c0.89999,0 1.69998,0 2.60001,0l0.89999,0l0.89999,0" id="svg_3" stroke-width="2" stroke="#000" fill="none"/>
  <path t="21405,21470,21470,21470,21478,21478,21478,21478,21493,21493,21493,21493,21509,21509,21509,21509,21525,21525,21525,21525,21525,21525,21543,21543,21543,21543,21543,21558,21558,21558,21558,21558,21558,21558,21576,21576,21576,21576,21592,21592,21592,21609,21609,21609,21625,21625,21625,21625,21642,21642,21662,21694,21717,21717,21725,21749,21749,21758" d="m311,351c0,3.60132 0,4.52084 0,5.15717c0,1.36417 0,2.09549 0,2.84283c0,0.74734 0,1.83334 0,2.84732c0,0.65268 0,1.63669 0,2.6745c0,0.74435 0,1.54068 0,2.397c0,1.41452 0,1.92368 0,2.98203c0,0.53915 0,1.61249 0,2.13666c0,1.46249 0,2.31183 0,3.09717c0,0.77731 0,1.60266 0,2.53198c0,1.07068 0,1.6485 0,2.24533c0,1.22269 0,1.8345 0,2.43735c0,1.68582 0,2.67017 0,3.12134c0,0.82532 0,2.19598 0,3.0195c0,0.72449 -0.01236,1.67664 0.00449,2.46698c0.01819,0.85391 0.14813,2.04578 0.27951,2.64151c0.19525,0.88531 0.48605,1.70676 0.63068,2.71466c0.11978,0.83475 0.08533,1.80133 0.08533,2.78668c0,0.89999 0,1.69998 0.03601,2.53598l0.24799,0.84802l0.36334,0.86331l0.2955,0.89551" id="svg_4" stroke-width="2" stroke="#000" fill="none"/>
  <path t="22461,22526,22526,22534,22534,22542,22542,22558,22558,22558,22558,22575,22575,22575,22575,22575,22592,22592,22592,22592,22592,22608,22608,22608,22608,22608,22608,22625,22625,22625,22625,22625,22625,22642,22642,22642,22642,22658,22658,22658,22658,22675,22675,22692,22692,22708,22708,22708,22725,22725,22725,22742,22742,22758,22775,22893,22893" d="m320,351c0,1.836 0,2.60132 0,3.60001c0,0.79999 0,1.80133 0,2.63599c0,0.93066 0,1.73016 0,2.64667c0,0.68933 0,1.86035 0,2.73166c0,0.92734 0,1.40701 0,2.38834c0,1.49734 0,1.99734 0,2.99734c0,0.5 0,1.5 0,3c0,0.5 0,1.5 0,2c0,1 0,2 0,3c0,0.99866 0,1.49551 0,2.47916c0,0.96368 0,1.43552 0,2.79916c0,0.86002 0,1.68002 0,2.46002c0,1.095 0,2.10001 0,2.72c0,0.85498 0,2.0845 0,2.73099c0,1.01068 0,1.81067 0,2.81067c0,0.81067 0,1.68533 0,2.68399c0,0.81601 0,1.63202 0,2.62933c0,0.84 0,1.80133 0,2.78668l0,0.89999l0,0.79999" id="svg_5" stroke-width="2" stroke="#000" fill="none"/>
  <path t="23511,23533,23533,23533,23533,23542,23542,23542,23542,23542,23558,23558,23558,23558,23558,23558,23575,23575,23575,23575,23575,23575,23575,23575,23575,23592,23592,23592,23592,23592,23592,23592,23592,23608,23608,23608,23608,23608,23608,23608,23625,23625,23625,23625,23625,23625,23642,23642,23642,23642,23642,23658,23658,23675,23675,23821" d="m328,355c0.2215,4.39999 0.34766,5.20203 0.52084,6c0.1741,0.80212 0.48383,1.99887 0.67783,2.80133c0.19537,0.8082 0.38809,1.63095 0.51599,2.48401c0.19971,1.33215 0.20706,1.80634 0.26001,2.80399c0.02841,0.53552 0.07492,1.70117 0.10934,2.33868c0.07587,1.40573 0.13486,2.17905 0.20132,2.99332c0.06912,0.84671 0.14844,1.71622 0.2355,2.59952c0.08759,0.8887 0.18021,1.77338 0.28049,2.6445c0.19208,1.66876 0.29733,2.44882 0.39734,3.19333c0.09573,0.7128 0.19183,1.39719 0.28049,2.05798c0.08594,0.64053 0.19028,1.26276 0.35419,3.08334c0.05392,0.59909 0.09067,1.19833 0.13065,2.38934c0.01981,0.58969 0.0293,1.17462 0.03467,2.32532c0.00522,1.11868 0.00134,2.20001 0.00134,2.72818c0,1.03632 0,1.54648 0,2.55582c0,1.50067 0,1.996 0,2.95868c0,0.89865 0,1.70132 0,2.90265c0,0.73334 0,1.62402 0,2.48734l0,1.01669" id="svg_6" stroke-width="2" stroke="#000" fill="none"/>
  <path t="24373,24429,24429,24429,24438,24438,24438,24438,24438,24438,24445,24445,24446,24446,24458,24458,24458,24458,24458,24475,24475,24475,24475,24492,24492,24492,24492,24492,24492,24492,24508,24508,24508,24508,24508,24526,24526,24526,24526,24526,24542,24542,24542,24542,24542,24558,24558,24558,24575,24575,24575,24592,24592,24608,24608,24625,24625,24642,24658,24658,24675,24675,24693,24693,24708,24725,24743" d="m337,346c0.00449,2.02783 0.02548,2.93011 0.08533,3.65866c0.06918,0.84244 0.19641,1.79364 0.34,2.81735c0.07352,0.52414 0.22665,1.56537 0.29068,2.07199c0.1752,1.38626 0.23834,2.189 0.26315,2.93115c0.03635,1.0871 0.01935,2.26352 0.02219,2.68884c0.00589,0.88269 0.01044,1.78302 0.08398,2.664c0.1026,1.22897 0.26297,1.97507 0.45633,2.70966c0.20584,0.78189 0.62622,2.12463 0.77951,2.64383c0.16281,0.55145 0.49643,1.72571 0.65799,2.33536c0.16248,0.61307 0.47177,1.82452 0.6875,2.97916c0.09973,0.53381 0.23782,1.52719 0.29169,2.4375c0.0502,0.84814 0.03772,2.06253 0.043,2.86383c0.00534,0.80936 0.02023,1.63565 0.08398,2.48401c0.06631,0.88257 0.19281,1.79691 0.34,2.71866c0.14365,0.8996 0.25082,1.32486 0.45334,2.83167c0.08008,0.59592 0.1347,1.6156 0.34268,2.58551c0.17178,0.80109 0.48279,1.55582 0.65717,2.436c0.17462,0.8815 0.12149,1.79999 0.12149,2.54733c0,0.99417 0,1.93832 0,2.84283c0,0.91931 -0.03589,1.75333 0.00015,2.73132c0.02859,0.77554 0.35251,1.67401 0.64719,2.36865l0.31665,1.01669l0.03601,0.836l0.00015,0.89999" id="svg_7" stroke-width="2" stroke="#000" fill="none"/>
  <path t="26349,26405,26405,26405,26413,26413,26413,26413,26425,26425,26425,26425,26441,26441,26441,26441,26442,26458,26458,26458,26458,26458,26458,26458,26475,26475,26475,26475,26475,26475,26491,26491,26491,26491,26491,26508,26508,26508,26557" d="m308,305c0,3.60132 0,4.52084 0,5.15717c0,1.36417 0,2.09549 0,2.84283c0,0.74734 0,1.83334 0,2.84732c0,0.65268 0,1.63669 0,2.67468c0,0.74866 0,1.56134 0,2.45401c0,0.48132 0,2.08832 0,2.67865c0,0.61234 0,1.88699 0,2.54135c0,0.66031 0,1.32266 0,2.63733c0,1.27866 0,1.90048 0,2.50934c0,1.17465 0,1.73849 0,3.32397c0,0.49002 0,1.41 0,2.25c0,0.76001 0,2.04019 0,2.80069l0,0.79465l0,1.07733" id="svg_8" stroke-width="2" stroke="#000" fill="none"/>
  <path t="27213,27237,27237,27237,27245,27245,27245,27245,27258,27258,27258,27258,27275,27275,27275,27275,27291,27291,27291,27291,27291,27291,27308,27308,27308,27308,27308,27308,27308,27325,27325,27325,27325,27325,27325,27325,27341,27341,27341,27341,27341,27341,27341,27358,27358,27358,27358,27358,27358,27375,27375,27375,27391,27408,27431" d="m315,306c0,2.01883 0,2.85733 0,3.48801c0,1.03351 0,2.14798 0,2.92267c0,0.79065 0,1.98917 0,2.78482c0,0.78366 0,1.54733 0,2.63785c0,0.68533 0,1.70831 0,2.43365c0,1.233 0,2.189 0,2.7045c0,1.091 0,1.66049 0,2.242c0,1.7865 0,2.38651 0,2.98651c0,1.19998 0,1.79999 0,2.39999c0,1.19998 -0.00101,2.39999 0.00015,3.00015c0.00232,1.20435 0.00665,1.81061 0.02069,2.42068c0.02844,1.23654 0.05154,1.86539 0.14581,3.14581c0.04822,0.65503 0.10913,1.31714 0.26935,2.64801c0.08008,0.66507 0.17038,1.32465 0.26849,1.97549c0.28317,1.87839 0.39413,2.46655 0.49417,3.03519c0.18842,1.07104 0.2876,1.56927 0.44415,2.49414c0.19958,1.17902 0.30002,2.10452 0.35269,3.00986l0.00449,0.91348l0,0.95718l0,0.89999" id="svg_9" stroke-width="2" stroke="#000" fill="none"/>
  <path t="28101,28141,28141,28141,28141,28149,28149,28149,28149,28149,28158,28158,28158,28158,28175,28175,28175,28175,28175,28191,28191,28191,28191,28191,28191,28208,28208,28208,28208,28225,28225,28225,28225,28241,28241,28241,28261,28261,28261,28261,28277,28301,28309,28333,28413,28413,28429,28477" d="m321,310c0,2.05734 0,3.08334 0,3.87067c0,0.41867 -0.00571,1.75073 0.00449,2.68201c0.01038,0.94742 0.00928,1.42343 0.08084,2.36331c0.10394,1.36517 0.25784,2.22528 0.43552,3.04236c0.17029,0.78302 0.47809,1.87531 0.67917,2.56033c0.19891,0.67764 0.41254,1.37546 0.59998,2.13599c0.32144,1.30438 0.40689,1.79718 0.58936,2.832c0.09406,0.53345 0.26056,1.61157 0.32532,2.14667c0.18414,1.52121 0.23068,2.44797 0.28534,3.30417c0.05084,0.79645 0.14975,1.89899 0.284,2.57718c0.19193,0.96954 0.40915,1.57291 0.59467,2.78531c0.09134,0.59698 0.10074,1.50632 0.28799,2.70001c0.09433,0.60138 0.35315,1.45306 0.54935,2.22934c0.276,1.09195 0.284,2.07065 0.284,2.97067c0,0.89999 0,1.79999 0,2.59998l0,0.90002l0,0.89999" id="svg_10" stroke-width="2" stroke="#000" fill="none"/>
  <path t="29093,29157,29157,29165,29165,29175,29175,29191,29191,29191,29208,29208,29208,29225,29225,29225,29241,29241,29241,29258,29258,29275,29275,29275,29291,29291,29291,29308,29308,29333,29341,29365,29382,29382,29405,29421,29445,29453,29469,29493,29533,29573" d="m330,312c0,1.836 -0.03058,2.60193 0.00449,3.60001c0.02814,0.80124 0.30099,1.79251 0.57019,2.60001c0.3306,0.99167 0.40109,1.82434 0.50934,2.48532c0.16467,1.00534 0.41766,1.8215 0.71732,2.63068c0.37366,1.00909 0.72421,1.66974 0.91333,2.36798c0.2666,0.98434 0.27231,1.81586 0.284,2.63202c0.01764,1.2312 -0.00693,1.91656 0.168,2.85065c0.14868,0.79391 0.46133,1.59637 0.66669,2.66669c0.17706,0.92294 0.1644,1.56216 0.16666,2.56534c0.00211,0.94415 0,1.84415 0,2.80133c0,0.89999 -0.16815,1.83643 0.08533,2.59998c0.25635,0.77219 0.896,1.59949 0.91467,2.5c0.01865,0.8985 0.284,1.616 0.96399,2.13602l0.03601,0.86398l0,0.90134" id="svg_11" stroke-width="2" stroke="#000" fill="none"/>
  <path t="30861,31141,31141,31157,31181,31213,31229,31277,31325,31413" d="m306,306c1,-1 1,-1.79999 1,-2.70001c0,-0.89999 0,-1.79999 0,-2.69998l0,-0.89999l0,-0.90002l0,-0.89999" id="svg_12" stroke-width="2" stroke="#000" fill="none"/>
  <path t="32101,32237,32245,32258,32276,32291,32291,32291,32310,32310,32310,32325,32325,32341,32341,32341,32358,32358,32375,32391,32391,32408,32408,32425,32425,32425,32441,32441,32441,32458,32458,32458,32475,32475,32491,32491,32508,32508,32525,32525,32541,32541,32541,32541,32558,32558,32558,32558,32575,32575,32591,32591,32608,32608,32608,32625,32625,32641,32641,32658,32658,32658,32675,32675,32675,32692,32692,32692,32708,32708,32725,32725,32725,32741,32741,32741,32741,32741,32758,32758,32758,32758,32775,32775,32775,32791,32791,32791,32791,32791,32808,32808,32808,32808,32825,32825,32825,32825,32825,32841,32841,32841,32841,32841,32858,32858,32858,32858,32858,32875,32875,32875,32875,32891,32891,32891,32891,32891,32908,32908,32908,32908,32908,32925,32925,32925,32925,32925,32925,32941,32941,32941,32941,32941,32941,32941,32958,32958,32958,32958,32958,32975,32975,32975,32975,32975,32991,32991,32991,32991,33008,33008,33008,33025,33025,33025,33025,33041,33041,33041,33041,33041,33058,33058,33058,33058,33075,33075,33075,33075,33075,33092,33092,33092,33092,33125,33125,33125,33125,33125,33125,33158,33158,33158,33158,33158,33158,33158,33158,33191,33191,33191,33191,33191,33191,33191,33191,33191,33209,33209,33209,33209,33209,33209,33209,33209,33209,33228,33228,33228,33228,33229,33229,33248,33249,33249,33249,33249,33268,33268,33268,33268,33289,33289,33289,33309,33309,33309,33309,33327,33327,33327,33327,33328,33346,33346,33346,33346,33366,33367,33367,33367,33388,33388,33388,33388,33406,33407,33407,33407,33425,33425,33425,33443,33443,33443,33463,33464,33464,33485,33485,33485,33502,33503,33503,33503,33520,33520,33541,33559,33559,33578,33578,33599,33599,33618,33637" d="m304,305c0,-1.70001 0,-2.60001 0,-3.5c0,-0.92133 0,-1.83334 0,-2.76132c0,-0.7905 0,-1.81717 0,-2.50269c0,-0.83466 0,-1.84048 0,-2.69315c0,-0.96402 0,-1.75751 0,-2.53302c0,-1.19998 0,-1.89249 0,-2.83517c0,-1.008 0,-1.79999 0,-2.66132c0,-0.76001 0,-1.93484 0,-2.74933c0,-0.57468 0,-1.76401 0,-2.65952c0,-0.8685 -0.01965,-1.93823 0.00449,-2.64734c0.02905,-0.85379 0.28665,-1.85461 0.49551,-2.45715c0.34521,-0.99597 0.48199,-1.78888 0.5,-2.83334c0.01364,-0.79187 0,-1.65466 0,-2.44931c0,-1.05069 0,-2.02719 0,-2.73819c0,-0.73099 0,-1.8125 0,-2.8175c0,-0.62 0,-1.47498 0,-2.47632c0,-0.87466 0,-1.88535 0,-2.68533c0,-1 0,-1.79999 0,-2.60001c0,-1 -0.02097,-1.80023 0.00134,-2.79999c0.01788,-0.80055 0.22537,-1.79837 0.49866,-2.62083c0.22034,-0.66309 0.43762,-1.66306 0.47916,-2.5c0.04364,-0.87964 0.02084,-1.77884 0.02084,-2.65784c0,-0.80701 -0.00055,-1.85333 0,-2.62666c0.00067,-0.968 0.00754,-1.7789 0.05716,-2.418c0.08636,-1.11205 0.22421,-1.9451 0.36816,-2.82733c0.1467,-0.89912 0.31757,-1.77808 0.45319,-3.00635c0.08029,-0.72707 0.10971,-1.40118 0.12015,-2.34033c0.01004,-0.90277 0.00134,-1.81332 0.00134,-2.75983c0,-1.00951 0,-1.72816 0,-2.47884c0,-0.77466 0,-1.56534 0,-2.76399c0,-0.8 0,-1.60001 0,-2.40001c0,-1.2 0,-2.00133 0,-2.81067c0,-0.82533 0,-1.67467 0,-3.01083c0,-0.93565 0,-1.41449 0,-2.38916c0,-0.49384 0,-1.98933 0,-2.98666c0,-0.49367 0,-1.461 0,-2.38834c0,-1.28101 0,-2.045 0,-2.75301c0,-0.67599 0,-2.028 0,-2.74666c0,-0.75067 -0.00006,-1.52533 0,-2.31601c0.00009,-1.19899 -0.00464,-2.00789 0.02084,-2.84033c0.02673,-0.87302 0.03964,-1.3315 0.20065,-2.80133c0.11758,-1.07347 0.21216,-1.62935 0.29935,-2.19867c0.17886,-1.16808 0.27994,-1.76109 0.47916,-2.95833c0.19946,-1.19876 0.29944,-1.79559 0.39999,-2.38933c0.19894,-1.17485 0.29852,-1.75377 0.39999,-2.32533c0.2955,-1.66444 0.40146,-2.19817 0.58936,-3.23868c0.09116,-0.50475 0.28391,-1.48119 0.444,-2.87999c0.10049,-0.87802 0.12073,-1.30458 0.14581,-2.125c0.03531,-1.15462 0.01212,-2.22029 0.02533,-2.88451c0.01886,-0.94684 0.04065,-1.56316 0.27951,-2.7585c0.18509,-0.92621 0.40494,-1.54904 0.54935,-2.56534c0.15417,-1.08508 0.15253,-1.85405 0.16217,-2.63783c0.01471,-1.19542 0.00449,-1.9955 0.00449,-2.7955c0,-0.79999 0,-1.59999 0,-2.79999c0,-0.8 0,-1.60001 0,-2.40001c0,-1.2 0,-2 0,-2.8c0,-0.79999 0,-1.59999 0,-2.79999c0,-0.8 0,-1.60001 0,-2.40001c0,-1.2 0,-2.00667 0,-2.85333c0,-0.45084 0,-1.4325 0,-1.97333c0,-1.20667 -0.00006,-2.59866 0.00449,-3.35468c0.00473,-0.78801 0.01355,-1.60205 0.03152,-2.43599c0.01828,-0.84807 0.03448,-1.70477 0.13065,-3.416c0.04752,-0.84561 0.1149,-1.68167 0.19052,-2.50951c0.07507,-0.82152 0.16144,-1.63658 0.25348,-2.4465c0.09164,-0.80643 0.19003,-1.60941 0.38934,-3.21066c0.09949,-0.79937 0.19943,-1.59457 0.2955,-2.382c0.09457,-0.77524 0.1853,-1.53447 0.26849,-2.27399c0.08044,-0.71516 0.16022,-1.40182 0.26935,-2.67734c0.04965,-0.58047 0.11423,-1.64248 0.14133,-2.13333c0.05115,-0.92664 0.08731,-1.81577 0.24667,-3.1545c0.05505,-0.46246 0.20541,-1.39326 0.35333,-2.3175c0.14273,-0.89178 0.31628,-2.11734 0.36816,-2.847c0.04779,-0.67195 0.05649,-1.61166 0.05716,-2.51434c0.00067,-0.89999 0,-1.8 0,-2.7c0,-0.909 0,-1.54166 0,-2.57066c0,-1.17217 0,-2.03917 0,-2.49067c0,-0.924 0,-1.856 0,-3.217c0,-0.435 0,-1.275 0,-2.075c0,-1.48 0,-2.16267 0,-2.82133c0,-0.978 0,-1.992 0,-2.70934c0,-1.116 0,-1.86333 0,-2.94933c0,-0.68133 0,-1.64583 0,-2.26216c0,-1.20434 0,-2.09383 0,-2.94733c0,-1.03584 0,-1.73183 0,-2.64117c0,-1.00134 0,-1.83684 0,-2.4205c0,-1.1955 0,-2.0955 0,-2.6955c0,-1.2 0,-2.0955 0,-2.964c0,-0.55067 0,-1.77433 0,-2.57433c0,-1.03633 0,-1.98317 0,-2.6825c0,-0.97916 0,-1.7685 0,-2.8125l0,-0.756l0,-0.91067l0,-0.9" id="svg_13" stroke-width="2" stroke="#000" fill="none"/>
  <path t="37621,37701,37701,37709,37709,37727,37742,37742,37742,37759,37759,37759,37774,37774,37774,37791,37791,37791,37809,37809,37825,37825,37842,37842,37858,37859,37875,37875,37892,37892,37909,37909,37924,37924,37924,37942,37942,37959,37959,37959,37975,37975,37991,37991,38009,38025,38025,38042,38042,38058,38058,38074,38074,38074,38091,38091,38109,38109,38124,38124,38124,38142,38142,38142,38142,38159,38159,38159,38159,38175,38175,38175,38175,38175,38192,38192,38192,38208,38208,38208,38241,38241,38258,38258,38258,38258,38274,38274,38274,38291,38291,38308,38309,38309,38324,38324,38341,38341,38341,38358,38358,38358,38374,38374,38374,38391,38391,38391,38408,38408,38408,38424,38424,38424,38441,38441,38441,38458,38458,38458,38474,38474,38474,38491,38491,38491,38491,38508,38524,38524,38524,38541,38541,38541,38558,38558,38558,38558,38574,38574,38591,38591,38591,38608,38608,38608,38624,38624,38624,38641,38641,38658,38658,38658,38674,38674,38691,38691,38708,38708,38724,38724,38724,38741,38741,38741,38758,38758,38758,38774,38774,38791,38791,38808,38808,38824,38824,38841,38841,38858,38858,38874,38874,38891,38891,38908,38908,38908,38924,38924,38941,38958,38958,38958,38974,38974,38991,38991,39008,39008,39024,39024,39041,39041,39058,39058,39074,39074,39091,39091,39108,39108,39124,39124,39141,39141,39158,39158,39174,39174,39191,39191,39208,39208,39224,39241,39241,39258,39274,39291,39291,39308,39324,39341,39341,39358,39358,39374,39374,39391,39408,39408,39424,39441,39458,39474,39474,39491,39491,39508,39508,39524,39524,39541,39558,39558,39574,39574,39591,39608,39608,39624,39641,39658,39674,39674,39693,39693,39709,39724,39741,39758,39774,39774,39791,39791,39808,39824,39841,39858,39877,39877,39901,39909,39909,39933,39956,39980,39996" d="m330,58c-1,1 -1,1.75717 -1,2.65267c0,0.86333 0,1.86816 0,2.68066c0,0.928 0,1.7185 0,2.74533c0,0.696 0,1.60533 0,2.60667c0,0.8355 0,1.716 0,2.61433c0,0.879 0,1.686 0,2.731c0,0.852 -0.00171,1.80533 0,2.57066c0.00226,0.99867 -0.01196,1.81693 0.284,2.79733c0.23657,0.78374 0.65381,1.5741 0.71466,2.48534c0.06342,0.94988 0.00134,1.71733 0.00134,2.7205c0,0.6315 -0.01834,1.81712 0.01068,2.61017c0.02841,0.77637 0.30807,1.80215 0.564,2.436c0.35284,0.87394 0.4137,1.87 0.42398,2.66667c0.01285,0.99591 0.00134,1.836 0.00134,2.79866c0,0.76801 0,1.70934 0,2.71734c0,0.792 -0.00006,1.652 0,2.37733c0.00009,0.98933 -0.0625,1.80508 0.16666,2.78933c0.19067,0.81888 0.62863,1.58527 0.77618,2.6c0.11539,0.79339 0.05716,1.80134 0.05716,2.636c0,0.93066 0,1.72117 0,2.57467c0,1.18933 0,1.79066 0,2.71017c0,0.63633 0,2.00066 0,2.73633c0,0.76367 0,1.54733 0,2.74284c0,0.79867 0,1.58933 0,2.364c0,0.75067 0,2.15067 0,2.8c0,0.9315 0,1.836 0,2.727c0,0.837 0,1.77567 0,2.62983c0,0.97917 0,1.84167 0,2.5c0,1.01251 0,1.93617 0,2.9375c0,0.63901 0,1.64618 0,2.49884c0,0.96417 0,1.76816 0,2.59016c0,1.03117 0,1.93184 0,2.95267c0,0.81067 0,1.45717 0,2.68533c0,0.83549 0,1.41917 0,2.6145c0,0.8895 0.00607,1.46419 0,2.53349c-0.00534,0.94139 -0.01227,1.62846 -0.284,2.85068c-0.12143,0.54613 -0.42249,1.35184 -0.59451,2.39482c-0.15417,0.93474 -0.12082,1.69051 -0.12149,2.88918c-0.0004,0.68266 0,1.38133 0,2.69867c0,0.564 0,1.54799 0,2.5c0,0.7905 0,1.644 0,2.83333c0,0.59734 0,1.45833 0,2.22934c0,1.12 0,2.10399 0,2.78049c0,0.77551 0.01721,2.06947 -0.01068,2.77551c-0.02866,0.72542 -0.20624,1.85822 -0.34198,2.51999c-0.1427,0.69565 -0.39755,1.72131 -0.52585,2.65167c-0.13748,0.99693 -0.12149,2.043 -0.12149,2.64751c0,0.85266 0,1.81699 0,2.63148c0,0.86852 0,2.06367 0,2.65501c0,0.83699 0,1.96632 0,2.75966c0,0.89217 0,1.87016 0,2.66667c0,0.99733 0,1.87199 0,2.88249c0,0.77934 0,1.6335 0,2.4615c0,0.88167 0,1.88034 0,2.44766c0,1.19084 0,2.08034 0,2.93384c0,1.03568 0,1.72118 0,2.55583c0,1.00134 0,1.80133 0,2.80133c0,0.8 0,1.79984 0,2.57918c0,0.9995 0,1.7735 0,2.67799c0,0.94417 0,1.94284 0,2.74283c0,1 0,1.8 0,2.8c0,0.8 0,1.8 0,2.60001c0,0.8 0,1.7955 0,2.54283c0,0.909 0,1.99049 0,2.66251c0,0.74399 0,1.85182 0,2.74283c0,0.909 0,1.65633 0,2.65182c0,0.8 0,1.8 0,2.60001c0,1 0,1.78934 0,2.83333c0,0.79201 0,1.65201 0,2.57117c0,0.99417 0,1.75951 0,2.7115c0,0.76801 0,1.72 0,2.48534c0,0.99867 0,1.79866 0,2.79866c0,0.8 0,1.79984 0,2.57918c0,0.9995 0,1.7735 0,2.67349c0,0.86334 0,1.84734 0,2.83134c0,0.69064 0,1.75882 0,2.616c0,0.89999 0,1.69998 0,2.60001c0,0.93597 0,1.78531 0,2.7045c0,0.99417 0,1.75949 0,2.71149c0,0.76801 0,1.70935 0,2.71735c0,0.75598 0,1.66666 0,2.56665c0,0.90451 0,1.76666 0,2.62085c0,0.97916 0,1.76849 0,2.8125c0,0.79199 0,1.65067 0,2.51398c0,0.90002 0,1.81934 0,2.65268c0,0.97849 0,1.79868 0,2.75717c0,0.89551 0,1.59015 0,2.60684c0,0.93597 0,1.83731 0,2.80264c0,0.83334 0,1.66669 0,2.52884c0,0.90451 0,1.8045 0,2.7045c0,0.90451 0,1.76666 0,2.60001c0,0.97849 0,1.79868 0,2.70001c0,0.89999 0,1.79999 0,2.71066c0,0.91064 0,1.76398 0,2.70398c0,0.88535 0,1.68533 0,2.58536l0,0.89999l0,0.89999l0,0.89999" id="svg_14" stroke-width="2" stroke="#000" fill="none"/>
  <path t="42549,42701,42725,42734,42749,42757,42774,42791,42807,42837,42837,42877,42909,42917,42941,42941,42989,42989,42998,43021,43030,43053,43069,43085,43101,43124,43124,43141,43157,43188,43220,43260,43260" d="m277,259c1.79999,0 2.70001,0 3.60001,0c0.89999,0 1.79999,0 2.69998,0c0.90002,0 1.80002,0 2.70001,0c0.79999,0 1.61987,0.00241 2.39999,-0.42532c0.82291,-0.4512 1.65106,-0.88354 2.35718,-1.22202c0.85037,-0.40762 1.67682,0.05743 2.70117,-0.3735c0.73056,-0.30734 1.24615,-0.9769 2.14166,-0.97916c0.89999,-0.00226 1.84454,0.09546 2.60001,-0.284c0.86719,-0.43558 1.49905,-0.77039 2.29999,-1.216c0.79904,-0.44455 1.70001,-0.5 2.60001,-0.50017l0.89999,-0.1665l0.60001,-0.40799" id="svg_15" stroke-width="2" stroke="#000" fill="none"/>
  <path t="48204,48236,48252,48252,48268,48284,48292,48307,48307,48324,48324,48324,48324,48324,48341,48341,48341,48341,48341,48341,48341,48341,48357,48357,48357,48357,48357,48357,48357,48357,48357,48374,48374,48374,48374,48374,48374,48374,48374,48374,48391,48391,48391,48391,48391,48391,48391,48391,48391,48407,48407,48407,48407,48407,48407,48407,48407,48407,48424,48424,48424,48424,48424,48424,48441,48441,48441,48457,48457,48457,48474,48474,48474,48474,48491,48491,48491,48572,48572,48580,48591,48607,48607,48607,48624,48624,48624,48624,48624,48624,48641,48641,48641,48641,48641,48641,48641,48641,48641,48657,48658,48658,48658,48658,48658,48658,48658,48658,48674,48674,48674,48674,48674,48674,48674,48674,48674,48724,48724,48724,48724,48724,48724,48724,48724,48724,48756,48756,48756,48764,48812,48828,48828,48841,48841,48857,48857,48857,48857,48874,48874,48874,48874,48874,48874,48874,48874,48891,48891,48891,48891,48891,48891,48891,48891,48891,48907,48907,48907,48907,48907,48907,48907,48907,48924,48924,48924,48924,48924,48980,48980,48996,49007,49041,49041,49041,49041,49074,49074,49074,49074,49074,49074,49074,49074,49074,49107,49107,49107,49107,49107,49107,49107,49107,49107,49141,49141,49141,49141,49141,49141,49141,49141,49141,49268,49268,49268,49268,49268,49268,49268,49268,49268" d="m282,86c2.16666,-0.83334 2.96667,-1.22059 3.60001,-1.57467c0.86127,-0.48151 1.79999,-0.42467 2.69998,-0.42533c0.90402,-0.00067 1.5741,-0.04364 2.46533,-0.2215c0.99915,-0.19939 1.40005,-0.30595 2.33401,-0.483c0.53064,-0.10059 2.40808,-0.39748 3.12866,-0.49683c0.76205,-0.10508 1.56274,-0.20885 2.397,-0.3195c0.86438,-0.11465 1.75528,-0.23205 2.66699,-0.36449c1.87598,-0.27253 2.83005,-0.43298 3.79333,-0.60001c0.97238,-0.16861 1.95105,-0.34872 2.93552,-0.5355c0.9902,-0.18787 1.98383,-0.3827 2.9805,-0.5805c1.99905,-0.39673 2.99847,-0.59946 3.99866,-0.79733c0.99982,-0.19779 1.99954,-0.39307 3,-0.5805c0.99954,-0.18725 1.99896,-0.36975 3,-0.5355c1.99802,-0.33083 2.99829,-0.4677 3.99066,-0.59867c0.97733,-0.12898 1.93433,-0.2431 2.86349,-0.345c0.89349,-0.09798 1.74533,-0.1838 2.54852,-0.255c1.43008,-0.12677 2.04666,-0.16757 2.59998,-0.20133c0.49707,-0.03033 0.94528,-0.05135 1.3515,-0.0645c0.37112,-0.01202 0.71436,-0.01756 1.0365,-0.0195c0.60934,-0.00366 0.90933,-0.00134 1.20935,-0.00134c0.29999,0 0.60001,0 1.5,0c1.19983,0 1.7955,0 2.664,0c1.06934,0 2.02133,0 2.74582,0c1.133,0 1.80002,0 2.51102,0c1.0965,0 2.15732,0 2.81299,0c0.88351,0 2.02359,-0.0266 2.85718,0c0.89603,0.02859 0.58209,0.76771 -0.18167,1.19867c-0.58749,0.3315 -1.44662,0.55936 -2.59616,0.67983c-0.96124,0.10074 -1.51044,0.08836 -2.10068,0.10066c-0.6351,0.01324 -2.04449,0.02016 -3.64584,0.02084c-0.87415,0.00037 -1.79333,0 -2.7525,0c-0.99414,0 -2.01831,0 -3.06747,0c-1.06918,0 -2.15335,0.00017 -4.34668,0c-1.09933,-0.00008 -2.19467,0.0002 -3.28201,-0.0045c-1.07532,-0.00465 -2.1347,-0.01308 -3.17398,-0.0315c-1.01541,-0.01799 -2.00354,-0.03148 -3.87735,-0.13066c-0.88065,-0.04662 -1.72198,-0.11303 -2.52448,-0.195c-0.76688,-0.07834 -1.49756,-0.17226 -2.19153,-0.285c-0.66241,-0.10762 -1.29584,-0.2142 -2.45065,-0.52c-0.5383,-0.14255 -1.04193,-0.3106 -1.51501,-0.4815c-0.44684,-0.16142 -0.86084,-0.32896 -1.245,-0.4905c-0.35577,-0.14961 -0.67453,-0.30541 -1.23999,-0.528c-0.44,-0.1732 -1.31326,0.08989 -2.14282,-0.3905c-0.68616,-0.39735 -0.98032,-1.34901 -0.46918,-1.74416c0.8942,-0.6913 1.56183,-0.92835 2.53433,-1.29867c0.85739,-0.32648 1.56467,-0.51598 2.40567,-0.7c1.00134,-0.21911 1.5784,-0.30824 2.86234,-0.5c0.69965,-0.10449 1.43445,-0.20161 2.19901,-0.3c0.7901,-0.10167 1.60245,-0.20181 3.27731,-0.4c0.85422,-0.10108 1.71487,-0.19973 2.577,-0.3045c0.86053,-0.10458 1.71524,-0.2124 2.55902,-0.3315c0.83087,-0.11729 1.64682,-0.22733 3.19733,-0.53066c0.73727,-0.14424 1.44266,-0.3121 2.11951,-0.486c0.65247,-0.16763 1.27725,-0.34425 1.8765,-0.522c1.13107,-0.33551 2.16907,-0.66413 3.12933,-0.93867c0.44611,-0.12754 1.26566,-0.36584 2.31601,-0.6c0.99841,-0.22257 2.18085,-0.09202 2.58667,-0.89733c0.35526,-0.70496 -0.66855,-1.44298 -1.492,-1.81067c-0.66061,-0.29499 -1.1199,-0.41795 -3.03601,-0.912c-0.85452,-0.22033 -1.81757,-0.43827 -2.86801,-0.6675c-1.12018,-0.24444 -2.29733,-0.48526 -3.51599,-0.7125c-1.24005,-0.23122 -2.48587,-0.46838 -4.94934,-0.78667c-1.17877,-0.1523 -2.32596,-0.25373 -3.4425,-0.3285c-1.09024,-0.07301 -2.1615,-0.11491 -3.2175,-0.1395c-1.04568,-0.02435 -2.08664,-0.03 -4.17331,-0.032c-1.05402,-0.00101 -2.112,0 -3.168,0c-1.048,0 -2.082,0 -3.09601,0c-0.98801,0 -1.944,0 -3.73599,0c-0.82468,0 -1.59735,0 -2.31601,0c-0.66266,0 -1.26733,0 -1.81201,0l-0.48267,0l-0.41867,0" id="svg_16" stroke-width="20" stroke="#fff" fill="none"/>
  <path t="51644,51716,51724,51724,51724,51740,51740,51757,51757,51757,51774,51774,51774,51790,51790,51820,51828,51844,52013" d="m315,91c0.81885,-0.9955 1.76935,-1 2.52084,-1c0.79648,0 2.02649,0 2.7045,0c1.19617,0 1.73181,0 2.58533,0c1.18933,0 2.08032,0 2.64767,0c1.20831,0 2,0 2.94165,0l0.89999,0l0.90002,0l0.89999,0" id="svg_17" stroke-width="2" stroke="#000" fill="none"/>
  <path t="53125,53500,53532,53540,53596,53596,53628,53692,53716,53780,53812,53812,53884,53916,53964,53996,54020,54068,54316,54364,54396,54484,54524,54524,54548,54596,54612,54628,54628,54740,54876,54884,55004,55068,55092,55108,55108,55164,55300,55316,55452,55644,55644,55668,55676,55700,55708,55724,55740,55758,55758,55774,55774,55796,55820,55828,55828,55852,55868,55877,55892,56124,56140,56157,56324,56324,56356,56380,56380,56404,56428,56444,56444,56476,56532,56636,56644,56674,56690,56724,56724,56772,56772,56812,56940,56940,56988,56996,57020,57020,57300,57404,57412,57440,57457,57457,57490,57524,57557,57557,57590,57590,57624,57740,57756,57774,57807,57840,57857,57892,57940,57964,57964,57980,58036,58148,58196,58228,58252,58284,58300,58324,58364,58364,58396,58424,58492,58524,58620,58636,58700,58748,58804,58820,58820,59036,59068,59092,59107,59107,59125,59148,59180,59212,59260,59260,59284,59292,59316,59332,59364,59380,59436,59460,59492,59516,59524,59524,59556,59572,59590,59608,59624,59641,59641,59668,59668,59684,59708,59756,59756,59764,59764,59780,59780,59796,59836,59836,59860,59876,60164,60164,60180,60204,60204,60244,60260,60292,60307,60323,60348,60380,60390,60412,60436,60604,60700,60787,60788,60811,60812,60900,60924,60940,60960,60973,60990,61051,61267,61268,61427,61433,61563,61579,61630,61630,61699,61715,61787,61851,61923,61971,62123,62147,62179,62251,62251,62275,62355,62355,62387,62403,62403,62555,62587,62603,62651,62683,62683,62715,62747,62803,62811,62899,62931,62995,63059,63131,63163,63163,63203,63243,63283,63307,63483,63483,63603,63619,63628,63628,63640,63659,63673,63691,63731,63747,63795,63843,63843,63875,63891,63915,63955,63995,64019,64067,64123,64171,64195,64211,64211,64267,64291,64323,64379,64499,64499,64523,64571,64587,64683,64739,64739,64747,64835,64875,64899,64987,64987,65107,65131,65267,65291,65307,65323,65340,65379,65427,65459,65499,65555,65595,65595,65611,65661,65715,65803,65803,65827,65891,65923,66059" d="m313,89c-1.83334,-0.16666 -2.39786,-0.6833 -2.94733,-1.35717c-0.57352,-0.7034 -0.70135,-1.47097 -1.10535,-2.34283c-0.38535,-0.83163 -0.91873,-1.59848 -0.94733,-2.4c-0.0321,-0.89943 0,-1.7 0,-2.6c0,-0.9 0,-1.8 0,-2.7c0,-0.9 0.26495,-2.14736 -0.35718,-2.54283c-0.79712,-0.50671 -1.84283,-0.05717 -2.74283,-0.05717c-0.89999,0 -1.8364,0.40274 -2.61465,-0.08533c-0.74042,-0.46433 -1.0466,-1.2763 -1.50684,-2.0145c-0.44711,-0.71716 -1.6123,-0.88139 -1.77402,-1.60467c-0.20505,-0.91717 0.90768,-0.93115 1.63834,-1.35267c0.8111,-0.46793 1.39542,-0.76929 2.15717,-1.02817c0.88794,-0.30177 1.59949,-0.89599 2.5,-0.91467c0.89984,-0.01866 1.75958,-0.28496 2.40002,-0.64733c0.82077,-0.46441 1.30835,-1.0572 1.29999,-1.95267c-0.00821,-0.87937 -0.81485,-1.39272 -0.99551,-2.16167c-0.2048,-0.87178 -0.00449,-1.64283 -0.00449,-2.637c0,-0.76534 0,-1.84417 0,-2.70133c0,-0.9 0,-1.7 0,-2.6c0,-0.9 0,-1.8 0,-2.7c0,-0.9 0.3255,-2.08304 -0.36166,-2.54283c-0.79901,-0.53461 -1.63834,-0.05717 -2.75299,-0.05717c-0.88535,0 -1.71857,0.19184 -2.58536,-0.05717c-0.76498,-0.21976 -1.31815,-1.14985 -2,-1.58567c-0.82397,-0.52665 -1.68222,-0.81266 -2.49866,-1.27317c-0.70172,-0.3958 -1.13098,-1.53582 -0.51468,-1.99866c0.70697,-0.53093 1.76028,0.05368 2.69183,-0.30667c0.77783,-0.3009 1.54218,-0.76825 2.50552,-0.77867c0.69061,-0.00747 1.75882,0 2.616,0c0.89999,0 1.87952,0.46556 2.61465,-0.08533c0.61639,-0.46192 0.28534,-1.61467 0.28534,-2.55067c0,-0.848 0,-1.71133 0,-2.728c0,-0.83733 0,-1.80267 0,-2.636c0,-0.9785 0,-1.6955 0,-2.6c0,-0.9 0.1185,-2.11275 -0.61066,-2.38934c-0.8316,-0.31544 -1.78934,-0.01067 -2.68933,-0.01067c-0.90002,0 -1.80002,0 -2.70001,0c-0.79999,0 -1.70001,0 -2.60001,0c-0.89999,0 -2.04651,0.1845 -2.37915,-0.52083c-0.37512,-0.79539 -0.02084,-1.77917 -0.02084,-2.67917c0,-0.9 -0.19379,-1.84543 0.08533,-2.6c0.32169,-0.86959 1.31415,-1.18133 2.21466,-1.2c0.8985,-0.01863 1.4379,-0.61022 2.13602,-0.964c0.77133,-0.39089 1.76779,0.04612 2.664,-0.03617c0.91144,-0.08368 1.6012,-0.64445 2.39999,-0.99983c0.79672,-0.35446 1.43912,-1.09388 1.5,-2c0.05362,-0.7982 -0.01041,-1.70006 0,-2.6c0.01044,-0.90018 0.33191,-1.72408 1,-2.4c0.57889,-0.58566 1.43912,-0.73962 2.2955,-1.0045c0.76331,-0.23609 1.22519,-0.98287 2.10449,-0.9955c0.89542,-0.01286 1.42139,-0.67369 2.21066,-0.98933c0.82626,-0.33045 1.59879,-0.53785 2.48935,-0.88917c0.66068,-0.26063 1.60001,-0.1215 2.5,-0.1215c0.89999,0 1.80411,-0.0817 2.7045,0.0045c0.87329,0.08361 1.66705,0.57802 2.52884,0.82883c0.84232,0.24515 1.8342,0.08935 2.56665,0.60267c0.79022,0.55379 1.1994,1.21953 2.08401,1.76267c0.66583,0.40881 1.66901,0.60383 2.31467,0.88533c0.879,0.38324 1.49756,1.21979 2.00131,1.716c0.69485,0.68444 1.71149,0.99302 2.116,1.76933c0.36707,0.70445 0.30518,1.86318 1.08401,2.264c0.72635,0.37381 1.70001,0.16667 2.60001,0.16667c0.89999,0 1.79999,0 2.69998,0c0.90002,0 1.80441,-0.08868 2.70001,0c0.8457,0.08374 1.30075,0.82075 2.09982,1.00017c0.84109,0.18886 0.78876,1.23818 0.13852,1.64267c-0.79831,0.4966 -1.75433,0.3565 -2.7175,0.35717c-0.92084,0.00064 -1.87564,-0.07878 -2.49551,0.42533c-0.61508,0.50022 -1.34326,1.16382 -2.12534,1.45317c-0.85175,0.31512 -1.73587,-0.07933 -2.60001,0.17867c-0.85873,0.25638 -1.29999,1.16433 -1.29999,2.04283c0,0.9 0,1.7 0,2.6c0,0.9 0,1.8 0,2.7c0,0.9 0,1.8 0,2.7c0,0.9 0.20853,1.64339 1,2.06667c0.74878,0.40046 1.53592,0.78463 2.32132,1.05466c0.87341,0.3003 1.65176,0.71781 2.67868,0.77867c0.79858,0.04733 1.79266,-0.35489 2.564,0.036c0.69812,0.35378 1.35226,1.1183 1.436,1.964c0.07883,0.79611 0,1.7 0,2.6c0,0.9 0.18491,2.04736 -0.52084,2.37917c-0.88632,0.4167 -1.87915,0.02083 -2.77914,0.02083c-0.90002,0 -1.83405,-0.1465 -2.5,0.08533c-0.88568,0.30833 -1.59949,0.89599 -2.5,0.91467c-0.89984,0.01866 -1.828,0.18865 -2.40002,0.7045c-0.7272,0.6558 -1.23911,1.38938 -1.29999,2.2955c-0.05362,0.7982 0,1.7 0,2.6c0,0.9 0,1.8 0,2.7c0,0.9 0,1.8 0,2.7c0,0.8 0.01682,1.70016 0,2.6c-0.01801,0.9645 -0.81808,1.39429 -0.99866,2.20134c-0.19623,0.87698 -0.16956,1.8185 0.0195,2.69867c0.18137,0.84442 1.07303,1.43912 1.97916,1.5c0.79819,0.05363 1.70001,0 2.60001,0c0.89999,0 1.86618,-0.13532 2.60001,0.28533c0.68655,0.39355 1.47455,1.12978 1.74283,2.01467c0.26163,0.86302 0.26782,1.86612 -0.1095,2.7c-0.2959,0.65397 -1.23279,0.98199 -2.13333,1c-0.89984,0.01799 -1.85428,-0.18327 -2.70001,0.16666c-0.78464,0.32466 -1.56308,0.51355 -2.38934,0.844c-0.78928,0.31565 -1.42874,0.98362 -1.60931,1.79066c-0.19623,0.87698 -0.00134,1.79867 -0.00134,2.69867c0,0.9 0,1.8 0,2.7c0,0.9 0,1.8 0,2.60001c0,0.89999 0.10233,1.80804 -0.02084,2.72083c-0.11035,0.81769 -0.58981,1.61783 -1.17783,2.30983l-0.71732,0.45333l-0.52002,0.68l-0.86398,0.036" id="svg_18" stroke-width="2" stroke="#000" fill="none"/>
  <path t="69972,70148,70156,70172,70172,70188,70220,70236,70308,70380,70548,70556,70580,70612,70628,70652,70724,70804,70804" d="m314,25c1,-1 1.91626,-0.8457 2,0c0.07883,0.79611 0,1.7 0,2.6c0,0.9 0.00067,1.8 0,2.7c-0.00067,0.89867 -0.37048,1.85785 -1.19867,1.69867c-0.81003,-0.15569 -0.80133,-1.29867 -0.80133,-2.19867l0,-0.9l0,-0.9l0,-0.8" id="svg_19" stroke-width="2" stroke="#000" fill="none"/>
  <path t="71508,71820,72124,72140,72148,72156,72173,72316,72444,72572,72572,72588" d="m318,50c0,1.8 0.00296,2.81564 -0.80133,2.99866c-0.87628,0.19941 -1.80328,-0.00679 -2.25134,-0.70316c-0.49384,-0.7675 -0.89017,-1.6 -0.94733,-2.46217l0.02084,-0.8125l0.33633,-0.9065" id="svg_20" stroke-width="2" stroke="#000" fill="none"/>
  <path t="73324,73492,73500,73524,73652,73668,73708,73756,73780,73788,73804,73804,73868,73884,73916,73916,73964,74003,74011,74044,74076" d="m318,72c0,1.8 0,2.7 0,3.6c0,0.9 0.21875,1.82826 -0.00449,2.6955c-0.18378,0.71391 -1.30206,0.81153 -2.19553,0.70316c-0.9198,-0.11156 -1.5481,-0.65868 -2.09549,-1.29867c-0.64343,-0.75226 -0.7045,-1.7 -0.7045,-2.5c0,-0.89999 0,-1.8 0,-2.7l0.01068,-0.88934l0.51016,-0.61066" id="svg_21" stroke-width="2" stroke="#000" fill="none"/>
  <path t="75028,75547,75587,75595,75611,75627,75715,75779,75971,76003,76051,76123,76123,76147,76251" d="m328,27c1.79999,0 2.64212,0.05758 3.08401,0.80133c0.41534,0.69906 0.88739,1.49731 0.91599,2.39867c0.02853,0.89955 0.57132,2.24 -0.22134,2.67833c-0.66791,0.36934 -1.06265,-1.07833 -1.49466,-1.67833l-0.27951,-0.9l-0.0405,-0.864" id="svg_22" stroke-width="2" stroke="#000" fill="none"/>
  <path t="76867,76931,76987,77019,77019,77043,77059,77107,77187,77291,77331,77379,77379" d="m328,48c1.2215,0.8785 2.16614,0.78935 3,1.16667c0.65396,0.29591 0.98956,1.33315 1,2.23333c0.01041,0.89994 0,1.8 -0.00015,2.69983l-0.22134,0.7785l-0.87851,-0.09983l-0.60001,-0.483" id="svg_23" stroke-width="2" stroke="#000" fill="none"/>
  <path t="78339,78859,78859,78883,78899,79187,79187,79203" d="m327,74c0.83334,1 0.41559,1.59547 0,2.5c-0.36578,0.7961 -1,1.5 -1.564,2.028l-0.43466,-0.33067" id="svg_24" stroke-width="2" stroke="#000" fill="none"/>
  <path t="85259,85354,85362,85362,85372,85372,85389,85389,85389,85406,85406,85406,85406,85422,85422,85422,85422,85439,85439,85439,85439,85456,85456,85456,85456,85472,85472,85472,85489,85489,85489,85506,85506,85506,85522,85522,85522,85522,85539,85539,85539,85539,85556,85556,85556,85556,85556,85572,85572,85572,85572,85589,85589,85589,85589,85606,85606,85606,85606,85622,85622,85622,85622,85639,85639,85639,85639,85656,85656,85656,85672,85672,85672,85689,85689,85689,85689,85706,85706,85706,85706,85706,85722,85722,85722,85722,85739,85739,85739,85739,85739,85756,85756,85756,85756,85772,85772,85772,85789,85789,85789,85806,85806,85806,85806,85822,85822,85822,85822,85839,85839,85839,85839,85856,85856,85856,85872,85872,85872,85872,85889,85889,85889,85889,85889,85906,85906,85906,85922,85922,85922,85922,85939,85939,85939,85939,85956,85956,85956,85956,85956,85972,85972,85972,85972,85989,85989,85989,85989,85989,86006,86006,86007,86007,86022,86022,86022,86022,86039,86039,86039,86056,86056,86056,86072,86072,86072,86072,86089,86089,86089,86106,86106,86106,86106,86122,86122,86123,86123,86123,86139,86140,86140,86140,86140,86156,86156,86156,86156,86156,86157,86172,86172,86172,86172,86189,86189,86189,86189,86206,86206,86206,86222,86222,86222,86222,86239,86239,86239,86239,86256,86256,86272,86272,86272,86272,86289,86289,86289,86306,86306,86306,86322,86322,86322,86339,86339,86339,86356,86356,86356,86372,86372,86372,86389,86406,86406,86422,86440" d="m321,95c0,0.232 0,1.19984 0,1.97916c0,0.99967 0,1.83067 0,2.79284c0,0.7905 0,1.39417 0,2.74933c0,0.73134 0,1.47867 0,2.226c0,1.08601 0,2.10001 0,2.75267c0,0.984 0,2.02133 0,2.75267c0,0.74733 0,1.49466 0,2.92583c0,0.66434 0,1.61083 0,2.22017c0,1.20133 0,2.10133 0,2.70133c0,1.19984 0,2.08933 0,2.94283c0,1.036 0,1.7425 0,2.467c0,1.133 0,1.8 0,2.8755c0,0.732 0,1.7935 0,2.46651c0,1.00949 0,1.7175 0,2.89099c0,0.867 0,1.778 0,2.24251c0,0.93199 0,2.293 0,3.153c0,0.81999 0,1.59999 0,2.69499c0,0.68268 0,1.66667 0,2.31934c0,1.01401 0,2.10001 0,2.84734c0,0.74733 0.0061,1.83337 -0.00134,2.51601c-0.01071,0.98413 -0.01532,1.64212 -0.22,3.00516c-0.10971,0.73058 -0.28711,1.45631 -0.42599,2.16901c-0.24634,1.26416 -0.30536,2.05125 -0.40533,2.758c-0.13837,0.97809 -0.39246,1.783 -0.59467,2.65634c-0.2063,0.89104 -0.29855,1.80461 -0.37799,2.76749c-0.05765,0.69876 -0.19141,1.87138 -0.32733,2.73334c-0.07028,0.44571 -0.23392,1.34219 -0.36334,2.22667c-0.17899,1.22302 -0.23856,1.96216 -0.26315,2.668c-0.03723,1.06752 -0.02084,2.24283 -0.02084,3.10983c0,0.45151 0,1.3755 0,2.3075c0,0.916 0,1.79468 0,2.62534c0,0.77467 0,2.12401 0,2.94751c0,0.72449 0,1.6765 0,2.467c0,0.8535 0,2.04283 0,2.94733c0,0.61633 0,1.58084 0,2.61684c0,0.73134 0,1.47867 0,2.226c0,1.43117 0,2.0955 0,3.04201c0,0.60933 0,1.812 0,2.42133c0,0.9465 0,1.95601 0,3.04651c0,0.76366 0,1.54733 0,2.74283c0,0.79866 0,1.58934 0,2.364c0,0.75067 0,1.8145 0,2.8c0,0.62534 0,1.836 0,2.74049c0,0.61633 0.00296,1.58084 -0.00015,2.617c-0.00223,0.73569 -0.00305,1.50035 -0.05701,2.283c-0.08255,1.19766 -0.21667,1.99776 -0.37885,2.7955c-0.16312,0.80241 -0.36472,1.60014 -0.664,2.79999c-0.19958,0.80011 -0.39999,1.60001 -0.60001,2.40001c-0.29999,1.2 -0.50455,1.99725 -0.68933,2.78934c-0.18042,0.77333 -0.35565,1.5211 -0.48917,2.58932c-0.08331,0.66656 -0.11499,1.64662 -0.12015,2.30533c-0.00809,1.03714 0.00107,2.13126 -0.03735,2.85468c-0.0368,0.69278 -0.22159,1.90129 -0.48483,2.6405c-0.25406,0.71346 -0.70313,1.6996 -0.95831,2.5625c-0.18185,0.61491 -0.41339,1.97838 -0.46368,2.7065c-0.05042,0.73016 -0.0383,1.44214 -0.0575,2.70917c-0.01199,0.79218 -0.05899,1.56535 -0.4425,2.68567c-0.23401,0.68353 -0.58685,1.3949 -0.909,2.166c-0.49521,1.18536 -0.6449,1.58524 -0.88651,2.39099c-0.23828,0.79475 -0.43518,1.59482 -0.595,2.8c-0.10608,0.79991 -0.13889,1.62149 -0.19199,2.472c-0.05612,0.89882 -0.13135,1.86253 -0.26001,2.89467c-0.06668,0.53485 -0.23126,1.61322 -0.32532,2.14667c-0.18246,1.03482 -0.48624,2.42307 -0.68484,3.21967c-0.181,0.72601 -0.38284,1.40469 -0.53784,2.43365c-0.10736,0.71271 -0.15164,1.81378 -0.21933,2.5235c-0.09332,0.9787 -0.31937,1.79907 -0.522,2.56052c-0.28625,1.07571 -0.37836,2.05872 -0.40448,2.77017c-0.02682,0.73068 -0.00983,1.81262 -0.02533,2.8175c-0.00955,0.62015 -0.0079,1.49234 -0.28085,2.47766c-0.25781,0.93073 -0.73163,1.84451 -1.01016,2.64114c-0.19568,0.55963 -0.46854,1.43698 -0.61917,2.64151c-0.07355,0.58813 -0.08307,1.44418 -0.08533,2.48001c-0.00198,0.92133 0,1.60532 0,2.60666c0,0.83551 0,1.716 0,2.91467c0,0.60001 0,1.5 0,2.69983c0,0.59567 0,1.46417 0,2.53351c0,0.91998 0,1.67999 0,2.66666c0,0.98401 0,1.67465 0,2.74283l0,0.85718" id="svg_26" stroke-width="2" stroke="#000" fill="none"/>
  <path t="87203,87227,87227,87227,87235,87236,87236,87236,87243,87243,87243,87256,87256,87256,87256,87272,87272,87272,87272,87289,87289,87289,87289,87289,87289,87306,87306,87306,87306,87306,87306,87322,87322,87322,87322,87322,87322,87339,87339,87339,87339,87339,87339,87356,87356,87356,87356,87372,87372,87372,87372,87372,87372,87372,87372,87389,87389,87389,87389,87389,87406,87406,87406,87406,87406,87406,87422,87422,87422,87422,87439,87439,87439,87439,87456,87456,87472,87472,87489,87489,87489,87489,87507,87507,87507,87507,87522,87522,87522,87539,87539,87539,87557,87557,87572,87572,87589,87589,87607,87622,87622,87639,87657,87658,87672,87689,87689,87707,87722,87722,87739,87739,87739,87757,87757,87757,87772,87772,87789,87789,87807,87807,87822,87822,87839,87839,87839,87857,87857,87857,87872,87872,87889,87889,87889,87907,87907,87907,87922,87922,87939,87957,87957,87973,87973,87989,87989,88007,88022,88099,88099,88123,88123,88132" d="m323,174c0,2.96167 0,3.54167 0,4.48666c0,1.0345 0,1.76151 0,2.49251c0,1.0515 0,1.97816 0,3.02083c0,0.76801 0,1.64284 0,2.66133c0,0.724 0,1.45601 0,2.51767c0,1.017 0,1.71834 0,2.47566c0,1.30983 0,1.80133 0,2.85333c0,0.5545 0,1.70551 0,2.29601c0,1.196 0,2.39467 0,2.9915c0,0.59383 0,1.76849 0,2.34734c0,1.69049 0,2.23566 0,3.3c0,0.52116 0,1.54649 0,2.05266c0,1.5045 0,2.00417 0,2.9955c0,0.96733 -0.00006,1.437 0,2.33833c0.00009,1.2285 -0.00882,1.97928 0.03601,3.12933c0.0163,0.41838 0.12726,1.875 0.18549,2.44817c0.1282,1.26178 0.21237,1.93077 0.29935,2.614c0.08768,0.68878 0.17798,1.37384 0.28049,2.04451c0.28302,1.85146 0.39328,2.39708 0.59866,3.412c0.09744,0.48151 0.30881,1.41719 0.60001,2.85599c0.10294,0.50854 0.29846,1.567 0.38934,2.10667c0.18057,1.07236 0.27798,1.59451 0.444,3.06c0.09546,0.84251 0.14038,1.59171 0.15598,2.26801c0.02841,1.23172 0.01068,2.12749 0.01068,2.71117c0,0.83549 0,2.06366 0,2.91632c0,1.00584 0,1.62534 0,2.77118c0,0.795 0,1.67999 0,2.31999c0,1.03467 0,1.76601 0,2.888c0,0.74133 0,1.80367 0,2.77867c0,0.59999 0,1.67999 0,2.61067c0,0.83466 0,1.836 0,2.63599c0,0.99869 0,1.76401 0,2.716c0,0.76801 0,1.70935 0,2.71735c0,0.75598 0,1.6875 0,2.65067c0,0.69064 0,1.75882 0,2.61615c0,0.78519 0,1.72519 0,2.73318c0,0.828 0,1.7095 0,2.42798c0,0.7905 0,1.81735 0,2.73868c0,0.68399 0,1.94818 0,2.73868c0,0.92798 0,1.74048 0,2.74533c0,0.69064 0,1.76782 0,2.48532c0,1.04501 0,1.85199 0,2.43335c0,1.19598 0,2.07648 0,2.91199c0,1.00134 0,1.68533 0,2.85199c0,0.78601 0,1.608 0,2.66669c0,0.7095 0,1.56216 0,2.56534c0,0.76532 0,1.84415 0,2.70166c0,0.71399 0,1.66766 0,2.64899c0,0.91733 0,1.70901 0,2.65067c0,0.90451 0,1.76666 -0.02084,2.60001l-0.20065,0.97833l-0.483,0.66l-0.81635,0.32001" id="svg_27" stroke-width="2" stroke="#000" fill="none"/>
  <path t="88683,88723,88724,88724,88733,88733,88733,88733,88739,88740,88740,88757,88757,88757,88772,88772,88772,88772,88772,88789,88789,88789,88789,88789,88789,88807,88807,88807,88822,88822,88822,88839,88839,88839,88857,88857,88857,88872,88872,88872,88872,88889,88889,88889,88889,88907,88907,88907,88907,88922,88922,88922,88939,88957,88957,88972,88972,88989,88989,89007,89007,89022,89039,89056" d="m318,247c0,2.05467 0,3.04167 0,3.75633c0,1.077 0.00961,2.08702 -0.02084,2.72284c-0.0441,0.9207 -0.18759,1.82372 -0.40448,2.71016c-0.20959,0.85666 -0.46494,1.88821 -0.54935,2.60666c-0.09042,0.76962 -0.18527,1.70508 -0.31067,2.46133c-0.14304,0.86264 -0.32568,1.81061 -0.41916,2.31335c-0.29669,1.59576 -0.39838,2.14963 -0.591,3.26849c-0.09537,0.55392 -0.27209,1.62695 -0.34732,2.13666c-0.20013,1.35614 -0.29581,2.08136 -0.33633,2.94083c-0.05106,1.08234 -0.02084,1.89401 -0.02084,2.5405c0,1.22684 0,2.04285 0,2.85886c0,1.00266 0,1.72565 0,2.53867c0,1.00949 0,1.80783 0,2.66617c0,0.87833 0,2.14581 0,2.90848c0,0.69867 0,1.66168 0,2.57068c0,0.89999 0,1.79999 0,2.39999c0,1.19733 0,2.05835 0,2.82935c0,0.96082 0,1.93732 0,2.77066c0,0.97867 0,1.75266 0,2.65717c0,0.74734 0,1.74152 0,2.68567l0,0.89999l0,0.95718l0,0.89999" id="svg_28" stroke-width="2" stroke="#000" fill="none"/>
  <path t="90291,90371,90379,90389,90389,90406,90406,90422,90422,90422,90439,90439,90439,90456,90456,90456,90472,90472,90472,90489,90489,90489,90506,90506,90506,90522,90522,90522,90522,90539,90539,90539,90556,90556,90556,90556,90572,90572,90572,90572,90572,90589,90589,90606,90606,90606,90622,90622,90639,90639,90639,90656,90656,90656,90672,90672,90689,90689,90689,90706,90706,90722,90722,90722,90739,90739,90739,90756,90756,90772,90772,90795,90819,90819,90835,90851,90867,90883,90883,90899,90899,90916,90923,90939,90956,90972,90972,90989,90989,91035,91035,91051,91059,91075,91203" d="m327,90c0,1.8 0.01184,2.65149 -0.284,3.484c-0.25092,0.70609 -0.68628,1.76622 -0.71466,2.48533c-0.04123,1.04419 -0.00134,1.85201 -0.00134,2.43333c0,1.196 0,2.0765 0,2.912c0,1.00267 0,1.70617 0,2.45467c0,1.19867 0,1.88133 0,2.58c0,1.31733 0,2.14083 0,2.86533c0,1.20683 0,2.02133 0,2.596c0,1.18933 0,2.08933 0,2.68933c0,0.9 0,2.1 0,2.7c0,0.9 0,2.10033 0,2.709c0,0.96301 0,1.66167 0,2.8335c0,0.85833 0,1.73666 0,2.17083c0,0.83334 0,2.23067 0,3.02417c0,1.0625 0,1.8625 0,2.66251c0,1.0045 0,1.85716 0,2.82133c0,0.80399 0,1.62599 0,2.65717c0,0.90067 0,1.52016 0,2.526c0,0.85266 0,1.81683 0,2.62082c0,0.82201 0,1.85318 0,2.75385c0,1.02083 0,1.8315 0,2.70616c0,0.99867 0,1.81467 0,2.63066c0,0.99734 0,1.83734 0,2.8c0,0.76801 0,1.70934 0,2.71733c0,0.75601 0,1.66667 0,2.56667c0,0.90451 0,1.76668 0,2.60001c0,0.9785 0,1.79866 0,2.7c0,0.90001 0,1.8 0,2.71066c0,0.91068 -0.05057,1.76544 0.00134,2.70534c0.0426,0.77141 0.47003,1.69171 0.71466,2.40001c0.32593,0.94377 0.284,1.88399 0.284,2.784l0,0.89999" id="svg_29" stroke-width="2" stroke="#000" fill="none"/>
  <path t="91939,91971,91979,91979,91989,91989,92005,92005,92022,92022,92022,92039,92039,92039,92055,92055,92055,92072,92072,92072,92089,92089,92089,92089,92106,92106,92106,92106,92122,92122,92122,92122,92139,92139,92139,92156,92156,92156,92156,92172,92172,92172,92172,92189,92189,92189,92205,92205,92206,92222,92222,92222,92239,92239,92239,92239,92255,92255,92255,92272,92272,92272,92289,92289,92305,92305,92306,92322,92322,92339,92339,92355,92356,92356,92372,92372,92389,92389,92389,92405,92406,92406,92422,92422,92422,92439,92439,92439,92455,92455,92472,92472,92472,92472,92489,92489,92489,92489,92505,92505,92506,92506,92522,92522,92522,92522,92539,92539,92539,92539,92555,92555,92555,92555,92557,92572,92572,92572,92589,92589,92605,92605,92622,92622,92639,92639,92639,92655,92655,92672,92672,92689,92689,92705,92705,92722,92722,92722,92739,92739,92755,92755,92755,92772,92772,92790,92790,92790,92805,92822,92822,92839,92839,92855,92872,92872,92889,92889,92905,92905,92922,92922,92939,92939,92956,92956,92956,92956,92972,92972,92995,92995" d="m313,100c0,1.82533 0,2.83334 0,3.62534c0,1.03183 0,1.77917 0,2.77467c0,0.8 0,1.80016 0,2.62083c0,0.6645 0,1.6645 0,2.5c0,0.8805 0,2.07916 0,2.67916c0,0.9 0,2.10001 0,2.7c0,0.9 0,2.1 0,2.70133c0,0.9195 0,1.55583 0,2.92c0,0.73134 0,1.47867 0,2.226c0,1.08601 0,2.0955 0,2.73183c0,0.9195 0,2.12217 0,2.7315c0,0.9465 0,1.95601 0,2.67334c0,0.74133 0,1.86333 0,2.94933c0,0.68001 0,1.625 0,2.205c0,1.27901 0,1.9825 0,2.731c0,1.19867 0,1.88133 0,2.58c0,1.31734 0,2.14532 0,2.90134c0,1.08266 0,1.71733 0,2.74933c0,0.69467 0,1.95717 0,2.73866c0,0.7095 0,1.68268 0,2.48666c0,0.82201 0,1.85318 0,2.75385c0,1.02083 0,1.82083 0,2.62083c0,0.9955 0,1.74283 0,2.79599c0,0.65868 0,1.65601 0,2.604c0,0.642 0,1.73584 0,2.64c0,0.903 0,1.632 0,2.46899c0,1.19084 0,2.08034 0,2.65501c0,1.06932 0,2.01067 0,2.68866c0,1.23134 0,2.04733 0,2.59467c0,1.26866 0,1.95267 0,3.11934c0,0.795 0,1.375 0,2.31999c0,1.03484 0,1.77051 0,2.53416c0,0.78368 0,1.97917 0,2.77783c0,0.79068 0,1.94417 0,3.03467c0,0.68268 0,1.66667 0,2.31934c0,1.01401 0,1.73267 0,2.86816c0,0.78368 0,1.97917 0,2.77783c0,0.79068 0,1.56534 0,2.31601c0,1.06349 0,2.028 0,2.8665c0,0.87599 0,1.767 0,2.67599c0,0.74733 0,1.74417 0,2.57883c0,0.93068 0,1.71217 0,2.75418c0,0.86699 0,1.758 0,2.66699c0,0.74733 0,1.74283 0,2.54283c0,1 0,1.8 0,2.8c0,0.8 0,1.60001 0,2.60451c0,0.85266 0,1.81683 0,2.62082c0,0.82201 0.05331,1.856 -0.02084,2.75385c-0.0849,1.02769 -0.44125,1.79649 -0.69516,2.53549c-0.29083,0.84647 -0.284,1.80667 -0.284,2.66c0,0.94133 0,1.70934 0,2.65067c0,1.008 0,1.8 0,2.66c0,0.91916 0,1.91333 0,2.67867c0,0.952 0,1.72 0,2.69333c0,0.6615 0,1.78534 0,2.448c0,1.04401 0,1.72667 0,2.92401l0,0.72899l0,1.04167l0,0.78934" id="svg_30" stroke-width="2" stroke="#000" fill="none"/>
  <path t="94099,94251,94259,94272,94289,94305,94322,94322,94339,94339,94355,94355,94372,94372,94389,94389,94405,94405,94422,94422,94439,94455,94455,94472,94489,94489,94505,94505,94522,94539,94555,94578,94602,94618,94634,94634,94650,94667,94674" d="m318,218c0,1.8 0,2.7 0,3.60001c0,0.79999 0,1.7045 0,2.72133c0,0.67867 0,1.65733 0,2.56267c0,0.952 0,1.71733 0,2.716c0,0.79999 0,1.79999 0,2.59999c0,0.99983 0,1.77917 0,2.7785c0,0.82016 -0.01184,1.67299 0.284,2.50549c0.25092,0.7061 0.68741,1.76201 0.716,2.68268c0.02045,0.65834 0,1.66666 0,2.52882c0,0.90451 0,1.8045 0,2.7045c0,0.90001 0,1.8 0,2.70001c0,0.89999 0,1.7 0,2.59999l0,0.90001l0,0.89999" id="svg_31" stroke-width="2" stroke="#000" fill="none"/>
  <path t="96411,96522,96531,96531,96546,96594,96618,96642,96642,96682,96706,96730,96755,96770,96819,96842,96866,96866,96874" d="m316,109c1.02084,-0.97916 2.01746,-0.82137 2.79868,-1.08533c0.88953,-0.30055 1.64264,-0.79852 2.40134,-1.19866c0.85837,-0.45272 1.59998,-0.71533 2.5,-0.716c0.89999,-0.00066 1.79999,0 2.69998,0c0.89999,0 1.80002,0 2.70001,0l0.89999,0l0.79999,0l0.90002,0" id="svg_32" stroke-width="2" stroke="#000" fill="none"/>
  <path t="97794,97834,97843,97855,97872,97890,97890,97907,97907,97922,97939,97939,97955,97955,97955,97972,97972,98018,98034,98066,98066" d="m314,119c0.05716,1.7 0.43402,2.67419 1.29999,2.94283c0.86267,0.26762 1.86801,0.22041 2.52536,0.4825c1.0101,0.40275 1.76398,0.5643 2.67465,0.57467c0.81351,0.00926 1.56534,0.14799 2.552,0.568c0.63031,0.26832 1.2486,0.63818 2.448,1.09866c0.77859,0.29893 1.70001,0.33334 2.60001,0.3335l0.89999,0.1665l0.70001,0.48067" id="svg_33" stroke-width="2" stroke="#000" fill="none"/>
  <path t="98771,98810,98818,98818,98826,98826,98843,98866,98866,98874,98874,98889,98906,98922,98922,98939,98939,98955,98955,98972,98989,99005,99022,99022,99039,99055" d="m311,135c0.16666,1.83333 1,1.99809 1.75717,2c0.89551,0.00226 1.77664,0.0434 2.61749,0.42534c0.81116,0.36844 1.62518,0.56424 2.60382,0.57466c0.82013,0.00873 1.45044,0.37071 2.24301,0.87849c0.74689,0.47852 1.66385,0.12151 2.6145,0.12151c0.76532,0 1.82318,-0.25557 2.59332,0.08533c0.7644,0.33836 1.37201,0.914 2.20667,0.91467c1.01669,0.00081 1.71133,0 2.72803,0l0.93597,0.0045" id="svg_34" stroke-width="2" stroke="#000" fill="none"/>
  <path t="99794,99826,99834,99834,99855,99872,99889,99889,99889,99905,99905,99922,99939,99939,99939,99955,99955,99972,99972,100002,100002,100010,100034,100098,100098,100242,100242" d="m310,155c1.02084,1.95833 1.97888,1.97403 2.79868,2c0.90268,0.02859 1.57852,0.54347 2.53467,0.83333c0.65228,0.19774 1.69315,0.10103 2.52365,0.388c0.88516,0.30586 1.68445,0.76825 2.47635,0.77867c0.92789,0.01221 1.71848,0 2.745,0c0.88,0 1.76474,-0.0929 2.547,0.036c0.88187,0.14529 1.69193,0.72629 2.61749,0.90685c0.8432,0.16449 1.75717,0.05716 2.64252,0.05716l0.94,0.01067l0.69064,0.07466" id="svg_35" stroke-width="2" stroke="#000" fill="none"/>
  <path t="100698,100738,100747,100755,100772,100772,100788,100788,100805,100805,100822,100822,100838,100838,100855,100855,100855,100872,100888,100888,100905,100905,100922,100922" d="m310,173c1.70001,0.05716 2.42252,0.68564 3.29999,0.94284c0.86804,0.25444 1.67581,0.12332 2.70535,0.40982c0.74799,0.20815 1.65237,0.5448 2.47382,0.62651c1.00143,0.09962 1.7316,0.00813 2.72086,0.021c0.8002,0.01041 1.80875,0.1412 2.58932,0.42517c0.73434,0.26714 1.72488,0.5274 2.53217,0.79599c0.71432,0.23766 1.6785,0.612 2.46783,0.74268l1.04401,0.036l0.75598,0.036" id="svg_36" stroke-width="2" stroke="#000" fill="none"/>
  <path t="101539,101578,101594,101594,101618,101618,101634,101634,101642,101642,101655,101672,101689,101689,101689,101705,101705,101722,101722,101746,101746,101762,101779,101779,101795,101805,101834,101834,101874" d="m307,191c1.82535,0 2.84305,-0.09273 3.62534,0.036c0.88315,0.14532 1.56314,0.6235 2.57449,0.8425c0.76801,0.16631 1.77866,0.12151 2.59885,0.12151c0.90134,0 1.87332,0 2.74417,0c0.71848,0 1.50897,0 2.77182,0c0.66449,0 1.68533,0 2.47467,0c1.04401,0 1.79999,0 2.73151,0c0.96317,0 1.65381,0 2.72198,0c0.85718,0 1.75717,0 2.55716,0l0.90002,0" id="svg_37" stroke-width="2" stroke="#000" fill="none"/>
  <path t="102514,102546,102546,102554,102554,102572,102572,102588,102605,102605,102622,102622,102638,102638,102638,102655,102655,102655,102655,102672,102672,102688,102688,102722,102738,102738,102762,102762" d="m312,204c2.60001,0.0045 3.41824,-0.01195 4.39868,0.284c0.78372,0.23657 1.7139,0.67207 2.48532,0.71468c0.93991,0.05191 1.94934,0.00133 2.74133,0.00133c1.03632,0 1.83633,0 2.79633,0c0.82501,0 1.42502,0 2.745,0c0.71469,0 1.43735,0 2.46634,0c0.867,0 1.82535,0 2.68832,0c0.85333,0 1.79333,0 2.77884,0l0.78519,0l0.94,0l0.69064,0" id="svg_38" stroke-width="2" stroke="#000" fill="none"/>
  <path t="103330,103378,103387,103405,103422,103422,103438,103438,103455,103455,103455,103472,103472,103472,103488,103488,103505,103505,103505,103522,103522,103522,103538,103555,103572,103572,103588,103588,103588,103605,103605" d="m305,223c1.79999,0 2.70001,0 3.52084,0c0.96448,0 1.68982,0 2.67917,0c0.79999,0 1.79999,0 2.61066,0c0.87466,0 1.87418,-0.0211 2.68933,0.02083c0.81747,0.04204 1.81482,0.26273 2.47916,0.47917c1.02106,0.33266 1.83102,0.48076 2.70618,0.49867c0.99713,0.02042 1.79382,0.00133 2.54532,0.00133c1.09735,0 1.97067,0 2.936,0c0.85419,0 1.83334,0 2.63333,0l0.80002,0l0.99548,0l0.74734,0" id="svg_39" stroke-width="2" stroke="#000" fill="none"/>
  <path t="104242,104306,104315,104316,104330,104339,104339,104355,104372,104372,104372,104388,104388,104388,104405,104405,104443,104443,104458,104459,104474,104488,104505,104635" d="m306,240c1.82535,0 2.83334,0 3.6955,0c0.82535,0 1.78851,-0.00215 2.65182,0c0.90002,0.00226 1.81549,0.17702 2.49936,0.42534c0.83548,0.30338 1.83585,0.5118 2.65332,0.55383c0.81516,0.04193 1.81467,0.02083 2.68933,0.02083c1.0105,0 1.78983,0 2.78915,0c0.71701,0 1.62152,0 2.52151,0l0.89999,0l0.89999,0" id="svg_40" stroke-width="2" stroke="#000" fill="none"/>
  <path t="105211,105267,105275,105288,105306,105323,105323,105338,105338,105356,105356,105356,105372,105372,105372,105388,105388,105388,105405,105405,105405,105422,105438,105531,105547" d="m305,255c1.79999,0 2.70001,0 3.60001,0c0.81067,0 1.72131,0 2.57465,0c0.94269,0 1.79468,0 2.59601,0c0.771,0 1.63202,0 2.82935,0c0.60001,0 1.5,0 2.69983,0c0.8895,0 1.46417,0 2.53351,0c0.91998,0 1.67999,0 2.75598,0l0.91068,0l0.89999,0l0.89999,0" id="svg_41" stroke-width="2" stroke="#000" fill="none"/>
  <path t="106675,106827,106843,106859,106869,106869,106875,106888,106906,106906,106922,106922,106922,106938,106938,106938,106938,106955,106955,106955,106955,106972,106972,106972,106972,106988,106989,106989" d="m302,270c1.79999,0 2.70001,0 3.52084,0c0.96317,0 1.65381,0 2.72198,0c0.95718,0 1.76459,0.06644 2.5715,-0.05716c0.97314,-0.14905 1.74744,-0.46616 2.35184,-0.64734c0.99927,-0.29956 2.08423,-0.60049 2.83383,-0.77466c0.74521,-0.17313 1.83142,-0.37234 2.51599,-0.43552c0.98193,-0.09061 1.63669,-0.08307 2.65067,-0.08533c1.08151,-0.00238 1.8125,0 2.5235,0l1.26669,0l0.7605,0l0.79465,0" id="svg_42" stroke-width="2" stroke="#000" fill="none"/>
  <path t="107748,107770,107779,107779,107788,107806,107806,107822,107822,107822,107838,107838,107838,107856,107856,107872,107872,107872,107888,107888,107888,107905,107905,107905,107905,107922,107922,107922,107938,107938,107956,107956,107972,108051,108051" d="m301,277c1.75717,0 2.65268,0 3.51599,0c0.96317,0 1.79752,0 2.54001,0c0.99734,0 1.96484,0 2.64316,0c0.9675,0 2.02884,0 2.69183,0c1.01035,0 1.845,0 2.77567,0c0.78601,0 1.608,0 2.66669,0c0.952,0 1.67648,0 2.80948,0c0.66702,0 1.37802,0 2.47452,0c1.06082,0 1.71649,0 2.60001,0c1.13983,0 1.89731,0 2.76666,0c0.86331,0 1.89066,0 2.83731,0l0.67868,0" id="svg_43" stroke-width="2" stroke="#000" fill="none"/>
  <path t="108563,108667,108675,108675,108688,108706,108706,108722,108722,108722,108738,108738,108738,108755,108755,108755,108794,108794,108834" d="m308,286c1.82535,0 2.83334,0 3.6955,0c0.82535,0 1.79117,0 2.55118,0c0.91998,0 1.70599,0 2.52798,0c1.05869,0 2,0 2.67801,0c1.23132,0 2.04733,0 2.59467,0l1.26599,0l0.84,0l0.96133,0.00134" id="svg_44" stroke-width="2" stroke="#000" fill="none"/>
  <path t="109474,109563,109571,109588,109588,109605,109605,109621,109621,109638,109638,109638,109656,109671,109688,109688,109706,109721,109738,109738,109755,109850" d="m306,298c1.79999,0 2.63599,0 3.48532,0c0.91919,0 1.91467,0 2.71469,0c1,0 1.79999,0 2.79999,0c0.78934,0 1.51468,0 2.58932,0c0.82135,0 1.73199,0 2.58533,0c0.94,0 1.92535,0 2.82535,0l0.79999,0l0.90002,0l0.89999,0" id="svg_45" stroke-width="2" stroke="#000" fill="none"/>
 </g>
 <g display="none">
  <title>muse_image</title>
  <image xlink:href="http://i131.photobucket.com/albums/p312/JERMDADDY/Taylors2/TaylorGS7LeftyAcousticGuitar001.jpg" id="muse" height="480" width="321" y="0" x="159.5"/>
 </g>
 <g display="none">
  <title>bbox</title>
  <rect stroke="#f00" fill="none" stroke-width="3" height="458.4" width="184.45522" y="10.4" x="222.58209" id="bbox"/>
 </g>
</svg>
