<svg width="640" height="480" xmlns="http://www.w3.org/2000/svg" xmlns:svg="http://www.w3.org/2000/svg" xmlns:xlink="http://www.w3.org/1999/xlink">
 <!-- Sketchy ANNOTATION
  ImageNet ID: n02676566_9577
  URL: http://farm1.static.flickr.com/30/38834484_e2b8107f17.jpg
  Image Width: 500
  Image Height: 375
  BBox X: 177
  BBox Y: 0
  BBox Width: 127
  BBox Height: 326
  Exposure: 2000ms
  Synset Label: guitar
  Synset ID: n03467517
  Worker Tag: acoustic guitar
  Sanity Check: 
   Saved
  Comment: 
   {}
  Worker ID: A1VGZ2K3HF66TE
  Assignment ID: 3QHK8ZVMIMIJT4MKF5M77Z0T29UBLC
  HIT ID: 3SNR5F7R92TDNMS4ERMIR7J1L2BIEQ
  Work Time: 122s
  Worker Score: 0.7857
 END ANNOTATION -->
 <g display="inline">
  <title>Layer 1</title>
  <path t="0,100,101,104,104,104,104,104,104,105,141,141,142,142,142,142,142,142,143,157,157,157,158,158,158,158,159,159,184,184,185,185,185,185,186,186,186,234,234,234,235,235,235,235,235,236,250,251,251,252,252,252,252,252,253,269,269,270,271,271,271,272,272,272,304,304,305,305,305,305,305,306,306" d="m598,52c0.33331,-13.33333 0.44165,-15.43156 0.56799,-17.71867c0.13617,-2.46523 0.28632,-5.09714 0.43201,-7.8855c0.1532,-2.93297 0.3075,-5.99981 0.43201,-9.1905c0.2616,-6.70434 0.33331,-10.19601 0.39734,-13.752c0.06476,-3.59569 0.10352,-7.20663 0.12897,-10.8075c0.02521,-3.5658 0.03516,-7.07166 0.039,-10.4925c0.00732,-6.48666 0.00269,-9.51183 0.00269,-12.408c0,-2.79817 0,-5.52933 0,-8.2245c0,-2.69017 0,-5.40633 0,-8.1795c0,-5.84133 0,-8.96 0,-12.19067c0,-3.30466 0,-6.64533 0,-9.984c0,-3.29867 0,-6.51933 0,-9.624c0,-5.70933 0,-8.24733 0,-10.57333c0,-2.132 0,-4.088 0,-5.88599c0,-1.658 0,-3.194 0,-4.626c0,-2.624 0,-3.85067 0,-5.03734c0,-1.15666 0,-2.29333 0,-3.42c0,-1.12666 0,-2.26334 0,-3.42c0,-2.41334 0,-3.68533 0,-4.98933c0,-1.318 0,-2.632 0,-3.924c0,-1.252 0,-2.446 0,-3.564c0,-1.936 0,-2.72267 0,-3.38934c0,-0.55666 0,-1.01334 0,-1.38l0,-0.28667l0,-0.21666l0,-0.15666" id="svg_1" stroke-width="2" stroke="#000" fill="none"/>
  <path t="8764,8918,8918,8918,8919,8922,8922,8922,8923,8923,8940,8940,8940,8940,8940,8941,8941,8968,8968,8968,8969,8969,8969,8986,8986,8987,8987,8987,8987,9001,9002,9002,9002,9002,9017,9018,9018,9031,9190,9190,9191,9192,9200,9200,9200,9201,9201,9201,9201,9202,9202,9233,9233,9234,9234,9234,9234,9234,9235,9235,9284,9285,9285,9285,9286,9286,9286,9286,9286,9295,9296,9296,9296,9297,9299,9299,9300,9300,9315,9316,9316,9316,9317,9317,9317,9317,9318,9333,9335,9335,9335,9336,9336,9339,9339,9339,9347,9348,9348,9348,9351,9351,9351,9352,9352,9381,9382,9382,9383,9383,9383,9383,9386,9387,9402,9403,9404,9404,9404,9405,9405,9405,9406,9417,9417,9418,9418,9418,9419,9419,9420,9420,9437,9438,9439,9440,9440,9441,9441,9443,9447,9465,9467,9467,9470,9470,9471,9471,9472,9472,9482,9483,9484,9484,9484,9485,9485,9486,9486,9516,9517,9517,9518,9518,9518,9519,9519,9519,9538,9539,9539,9539,9540,9540,9540,9541,9554,9572,9573,9573,9573,9574,9574,9575,9581,9582,9582,9583,9603,9604,9635,9636,9637,9637,9638,9649,9650,9650,9651,9651,9680,9692,9693,9693,9716,9731,9732,9733,9734,9751,9765,9766,9766,9767,9800,9825,9826,9827,9827,9844,9845,9846,9846,9857,9881,9883,9897,9906,9907,9949,9950,9950,9951,9951,9952,9970,9971,9971,9972,9972,9991,9992,9993,9996,10005,10006,10006,10007,10008,10009,10057,10062,10063,10064,10064,10065,10065,10073,10074,10075,10075,10078,10079,10093,10112,10113,10113,10114,10114,10115,10115,10116,10125,10141,10147,10148,10148,10149,10155,10156,10157,10164,10165,10165,10166,10166,10181,10182,10182,10183,10184,10185,10186,10186,10187,10219,10220,10221,10221,10222,10223,10223,10231,10232,10233,10233,10235,10236,10236,10237,10264,10265,10266,10266,10267,10268,10268,10269,10270,10283,10284,10285,10286,10286,10287,10288,10297,10299,10300,10301,10302,10303,10303,10304,10304,10333,10334,10335,10336,10336,10337,10338,10338,10339,10345,10347,10348,10349,10350,10354,10357,10367,10368,10369,10370,10371,10372,10372,10401,10403,10404,10405,10405,10407,10407,10408,10409,10428,10430,10431,10431,10432,10433,10434,10435,10436,10465,10466,10467,10468,10469,10470,10483,10486,10490,10499,10501,10502,10504,10505,10512,10514,10515,10516,10535,10536,10537,10538,10539,10539,10540,10541,10542,10568,10571,10573,10574,10575,10578,10581,10583,10584,10598,10599,10600,10601,10602,10603,10605,10606,10607,10614,10616,10617,10618,10619,10621,10623,10625,10629,10663,10665,10666,10667,10668,10669,10669,10670,10671,10679,10681,10682,10683,10684,10685,10686,10687,10688,10699,10700,10702,10703,10705,10708,10709,10714,10715,10725,10726,10728,10729,10735,10737,10738,10739,10742,10751,10753,10754,10756,10757,10759,10763,10765,10766,10790,10791,10793,10794,10795,10813,10815,10816,10817,10819,10821,10822" d="m343,250c0.5,-10.5 0.65045,-11.43803 0.85468,-12.34c0.19882,-0.87816 0.43369,-1.72275 0.68698,-2.535c0.24567,-0.78777 0.5094,-1.54193 0.77701,-2.265c0.50473,-1.36372 0.76108,-1.99513 0.99466,-2.60533c0.44266,-1.15633 0.65704,-1.70886 1.02502,-2.79834c0.18094,-0.53569 0.50607,-1.62025 0.77765,-2.739c0.13696,-0.56416 0.38217,-1.69691 0.50934,-2.256c0.12552,-0.55191 0.53256,-2.13086 0.69598,-2.6185c0.31461,-0.93878 0.68015,-1.82143 0.85333,-2.25751c0.34427,-0.86684 0.81479,-2.20345 1.06818,-3.1335c0.12668,-0.46503 0.34186,-1.39159 0.55585,-2.2825c0.29474,-1.22705 0.32019,-2.01167 0.76532,-2.76799c0.30795,-0.52324 0.4472,-1.00215 0.40399,-1.67467c-0.05624,-0.87483 -0.18768,-1.91495 -0.46799,-3.06c-0.15063,-0.6154 -0.36151,-1.26288 -0.72,-1.899c-0.39862,-0.70732 -0.99454,-1.4314 -1.79999,-2.133c-0.94089,-0.81956 -2.13965,-1.69885 -5.48001,-3.30135c-2.07047,-0.99329 -4.47202,-1.88573 -7.06949,-2.8125c-2.73166,-0.97464 -5.57031,-1.89467 -8.4465,-2.7675c-2.84033,-0.86195 -5.59183,-1.68994 -10.65067,-2.92c-2.16693,-0.52689 -4.10791,-0.91832 -5.83801,-1.2045c-1.53467,-0.25386 -2.91046,-0.41805 -4.146,-0.51149c-1.11688,-0.08447 -2.14398,-0.11037 -4.01599,-0.11734c-0.89102,-0.00333 -1.76804,-0.00034 -2.63702,0.009c-0.867,0.00932 -1.73819,0.02705 -2.61899,0.063c-0.89725,0.03662 -1.81802,0.07632 -3.74399,0.26132c-1.02036,0.09801 -2.07425,0.23215 -3.1575,0.3855c-1.11014,0.15715 -2.23935,0.33777 -3.38251,0.53851c-1.15524,0.20287 -2.31696,0.41342 -4.62668,0.90933c-1.14636,0.24612 -2.27701,0.51323 -3.39148,0.786c-1.0975,0.26862 -2.17169,0.54478 -3.22052,0.82201c-1.02216,0.27017 -2.0127,0.53879 -3.888,1.05865c-0.88016,0.24399 -1.71942,0.47874 -2.5155,0.7095c-0.75455,0.21872 -1.4653,0.43123 -2.12848,0.6465c-0.62039,0.20139 -1.20255,0.38098 -2.18933,0.81067c-0.43158,0.18793 -0.81323,0.39273 -1.15201,0.60451c-0.31711,0.19823 -0.60239,0.41101 -0.86401,0.63148c-0.25638,0.21605 -0.49765,0.44768 -0.98398,0.93068c-0.25519,0.25346 -0.51468,0.51466 -0.77701,0.77699c-0.26035,0.26033 -0.51468,0.51468 -0.759,0.759c-0.23035,0.23033 -0.4429,0.44244 -0.79733,0.79733c-0.13641,0.13658 -0.25232,0.2518 -0.35101,0.36c-0.09595,0.10519 -0.19205,0.22224 -0.297,0.36c-0.12601,0.16539 -0.27515,0.373 -0.68533,0.94667c-0.2738,0.38293 -0.58896,0.82465 -0.93448,1.31549c-0.37057,0.52643 -0.75531,1.07878 -1.14151,1.6485c-0.38681,0.57062 -0.77328,1.12669 -1.42401,2.20267c-0.28821,0.47658 -0.53329,0.92485 -0.73349,1.3515c-0.18729,0.39915 -0.3394,0.79111 -0.4545,1.1805c-0.11388,0.38525 -0.20837,0.78261 -0.312,1.63467c-0.05626,0.46262 -0.08502,0.95047 -0.10951,1.45351c-0.0249,0.51166 -0.03825,1.02563 -0.04649,1.5345c-0.00804,0.4968 -0.00999,0.97466 -0.01067,1.84532c-0.00029,0.38101 0,0.72801 0,1.04701c0,0.297 0,0.57799 0,0.849c0,0.267 0,0.536 0,1.10399c0,0.30951 0,0.636 0,0.9765c0,0.3515 0,0.711 0,1.0755c0,0.3665 0,0.73201 0,1.448c0,0.3455 0,0.68401 0,1.01851c0,0.3335 0,0.66899 0,1.358c0,1.12349 0,1.95284 0,2.79816c0,0.79733 -0.09271,2.02835 0.256,2.78134c0.32642,0.70483 0.81209,1.39922 1.3065,2.29399c0.26764,0.48436 0.81607,1.48648 1.4375,2.41667c0.57172,0.85579 0.87628,1.21965 1.41666,1.875c0.63535,0.77054 0.98221,1.68607 1.36868,2.51016c0.2608,0.55612 1.11304,1.2662 1.548,2.28151c0.33466,0.78116 0.42053,1.65265 0.6875,2.33333c0.26962,0.68747 0.85641,1.64584 0.97916,2.5c0.11609,0.80769 0,1.5 0,2.496c0,1.12 0,2.01466 0,2.70934c0,0.82266 0,1.71733 0,2.62799c0,0.87466 0.05396,1.6788 0,2.67635c-0.05725,1.05829 -0.57617,1.70731 -1,2.51117c-0.30051,0.56998 -0.8425,1.64301 -1.16251,2.36133c-0.3475,0.78009 -0.69089,1.61038 -0.90448,2.10001c-0.47183,1.08157 -0.72397,1.65082 -0.98935,2.22064c-0.76257,1.63733 -1.01315,2.116 -1.48199,2.96851c-0.41226,0.74963 -0.83496,1.39267 -1.29501,2.32867c-0.43896,0.8931 -0.65509,1.53433 -0.80499,2.21432c-0.24454,1.10925 -0.27966,1.95895 -0.34698,2.879c-0.03586,0.48999 -0.11195,1.53149 -0.18401,2.08002c-0.23315,1.77496 -0.39531,2.39474 -0.54501,3.0275c-0.15157,0.64063 -0.50209,1.914 -0.69466,2.53665c-0.18887,0.61069 -0.58868,1.7634 -0.98834,2.81586c-0.19255,0.50708 -0.57037,1.52713 -0.73067,2.06665c-0.16751,0.56384 -0.54994,2.54544 -0.629,3.32916c-0.08437,0.83636 -0.13481,1.71472 -0.17099,2.61752c-0.03656,0.91226 -0.05354,1.81995 -0.063,2.70749c-0.00909,0.85248 -0.009,2.39249 -0.009,3.05365c0,0.58817 0,1.11035 0,1.98468c0,0.69434 -0.0873,1.77625 0.0625,2.70834c0.12267,0.76331 0.5778,1.63867 1.02699,2.30249c0.52785,0.78006 0.87613,1.17908 1.25267,1.60001c1.28975,1.44186 1.83932,1.92325 2.39517,2.44199c0.57373,0.53543 1.17111,1.06812 1.78351,1.59302c0.61032,0.5231 1.2197,1.02957 1.82849,1.50299c1.13971,0.88629 1.67108,1.27753 2.69717,1.91c0.48105,0.29651 1.46182,0.79434 1.96866,1.01065c0.51855,0.22131 2.26956,0.8223 2.92618,1.01801c0.686,0.20447 1.40198,0.40247 2.142,0.60001c0.75867,0.20255 1.53436,0.40118 2.32199,0.60001c1.59406,0.4024 2.39386,0.60086 3.19067,0.79733c0.79019,0.19485 1.57126,0.38449 2.34149,0.561c0.75378,0.17276 1.48926,0.33624 2.20651,0.47098c1.35294,0.25418 2.6076,0.40649 3.21149,0.46533c0.60013,0.05847 1.8287,0.15356 2.474,0.21069c0.67874,0.06009 2.17111,0.22351 2.9985,0.33731c0.87668,0.12057 1.78815,0.26166 2.724,0.40802c0.94815,0.14828 1.89566,0.30081 2.832,0.444c0.91168,0.13943 2.6153,0.37827 3.38733,0.46231c0.71872,0.07822 1.39432,0.13397 2.034,0.17102c0.61105,0.0354 1.20261,0.05362 1.78201,0.06299c0.57529,0.00931 2.35532,0.009 2.98065,0.009c0.63733,0 1.28268,0 2.58133,0c0.64536,0 1.28268,0 3.10867,0c0.57935,0 1.15466,0 2.32535,0c0.61133,0 1.25067,0 1.92599,0c1.49066,0 2.31866,0 3.19467,0c0.91199,0 1.84799,0 2.79599,0c0.948,0 1.884,0 2.79599,0c1.70401,0 2.47607,0.00461 3.20001,-0.00665c0.68808,-0.01068 1.35309,-0.0343 2.004,-0.0975c0.65332,-0.06342 1.32083,-0.15991 2.004,-0.32251c1.50815,-0.35898 2.32806,-0.67145 3.20532,-0.99866c0.92838,-0.34628 1.88739,-0.7392 2.87402,-1.15802c1.01077,-0.42908 2.03015,-0.8801 3.05399,-1.33798c2.03101,-0.90829 3.02032,-1.35461 3.98666,-1.79602c0.94498,-0.43164 1.86536,-0.85986 2.75101,-1.3035c0.86368,-0.43262 1.69989,-0.86798 2.48099,-1.34848c1.50253,-0.92429 2.16849,-1.46024 2.79868,-1.99869c0.61414,-0.52475 1.17877,-1.0737 1.69949,-1.63199c0.50446,-0.54083 0.96674,-1.08652 1.38452,-1.63199c0.7811,-1.01984 1.10321,-1.52267 1.41064,-2.00803c0.30286,-0.47812 0.58963,-0.97095 0.87152,-1.48499c0.29568,-0.53922 0.59641,-1.12228 0.9165,-1.755c0.73404,-1.45096 1.15225,-2.28952 1.59467,-3.20132c0.47021,-0.96906 0.9498,-1.99063 1.40549,-3.06451c0.46597,-1.09814 0.9169,-2.22119 1.27051,-3.37949c0.69821,-2.28702 0.86765,-3.44928 0.996,-4.58401c0.12589,-1.11288 0.16983,-2.21185 0.17099,-3.2865c0.00113,-1.04959 -0.04532,-2.0712 -0.099,-3.06149c-0.10172,-1.87643 -0.15512,-2.75616 -0.19467,-3.59732c-0.03778,-0.80316 -0.07095,-1.56976 -0.12299,-2.2995c-0.04959,-0.69565 -0.10358,-1.35977 -0.21301,-1.9845c-0.20483,-1.16916 -0.39523,-1.7034 -0.604,-2.21069c-0.20718,-0.50345 -0.46255,-0.99002 -0.74548,-1.4715c-0.29153,-0.49612 -0.62231,-0.99524 -0.97052,-1.51648c-0.75571,-1.13132 -1.16925,-1.74722 -1.59332,-2.39868c-0.43863,-0.67383 -0.88266,-1.36533 -1.332,-2.064c-0.44934,-0.69867 -0.89246,-1.39078 -1.332,-2.064c-0.83051,-1.27206 -1.22287,-1.85147 -1.59732,-2.39468c-0.35434,-0.51407 -0.6972,-0.99838 -1.02902,-1.45798c-0.31891,-0.44171 -0.63187,-0.86594 -0.939,-1.27802c-0.6011,-0.80649 -0.9017,-1.20602 -1.20398,-1.604c-0.30206,-0.39767 -0.6066,-0.79285 -0.91953,-1.18048c-0.31244,-0.38705 -0.62729,-0.77184 -0.96448,-1.13551c-1.00958,-1.08893 -1.39224,-1.40742 -2.14001,-2.04933c-0.37149,-0.31889 -1.13586,-0.91512 -2.20801,-1.836c-0.69717,-0.59882 -1.03198,-0.9315 -1.75,-1.64583l-0.38599,-0.40617l-0.41202,-0.44817l-0.444,-0.49716" id="svg_2" stroke-width="2" stroke="#000" fill="none"/>
  <path t="11372,11564,11564,11564,11564,11564,11564,11564,11564,11565,11600,11600,11600,11602,11602,11602,11602,11602,11602,11620,11620,11621,11621,11621,11621,11621,11621,11621,11631,11632,11632,11632,11632,11632,11632,11633,11633,11670,11671,11671,11671,11672,11672,11672,11672,11672,11682,11683,11683,11683,11683,11683,11684,11684,11684,11701,11704,11704,11705,11705,11705,11705,11706,11706,11716,11716,11716,11716,11717,11717,11717,11717,11717,11748,11749,11749,11750,11750,11750,11751,11751,11751,11766,11767,11767,11768,11768,11768,11769,11769,11769,11784,11784,11785,11785,11785,11785,11785,11786,11786,11797,11797,11798,11798,11798,11798,11799,11799,11799,11832,11833,11833,11834,11834,11834,11834,11837,11837,11851,11855,11855,11855,11856,11856,11857,11857,11858,11869,11869,11931,11947,11947,11948,11964,11965,11997,12000,12000,12001,12001,12002,12002,12015,12016,12016,12016,12017,12017,12017,12018,12018,12031,12032,12033,12033,12033,12034,12034,12036,12037,12050,12050,12051,12051,12052,12052,12052,12080,12081,12082,12082,12099,12100,12100,12114,12115,12165,12199,12216,12217,12217,12218,12218,12218,12248,12249,12250,12250,12251,12251,12252,12252,12267,12268,12268,12269,12269,12269,12270,12270,12271,12280,12280,12281,12281,12282,12282,12285,12285,12286,12312,12313,12314,12314,12315,12315,12316,12332,12333,12334,12334,12335,12336,12349,12350,12350,12351,12351,12352,12352,12364,12365,12365,12365,12395,12396,12396,12430,12498,12499,12499,12500,12517,12518,12519,12519,12520,12520,12550,12552,12553,12581,12622,12631,12632,12633,12634,12634,12635,12665,12666,12667,12667,12697,12698,12699,12699,12700,12700,12701,12709,12712,12713,12714,12715,12716,12729,12730,12731,12731,12732,12748,12749,12750,12751,12752,12753,12753,12767,12768,12769,12770,12772,12773,12773,12774,12774,12781,12782,12783,12784,12785,12786,12787,12788,12789,12814,12817,12818,12819,12819,12820,12820,12821,12822,12846,12848,12848,12849,12850,12850,12851,12852,12852,12857,12859,12859,12861,12862,12864,12865,12866,12867,12879,12880,12881,12882,12882,12883,12884,12884,12885,12899,12900,12901,12905,12906,12908,12910,12912,12913,12919,12921,12922,12922,12923,12924,12924,12925,12926,12945,12947,12947,12948,12949,12949,12950,12950,12951,12957,12958,12959,12960,12961,12962,12963,12964,12965,12986,12987,12987,12988,12989,12989,12990,12991,12991,12998,13000,13001,13003,13014,13030,13033,13035,13035,13082" d="m288,180c0,-10.16667 0,-11.22133 0,-12.284c0,-1.06866 0,-2.14134 0,-3.216c0,-1.07466 0,-2.14734 0,-3.216c0,-2.11732 0,-3.1635 0,-4.20667c0,-1.04716 0,-2.10533 0,-3.1815c0,-1.10117 0,-2.23433 0,-3.40649c0,-2.48933 0,-3.81784 0,-5.19733c0,-1.42151 0,-2.87601 0,-4.35451c0,-1.4935 0,-2.993 0,-4.4895c0,-2.948 0,-4.38367 0,-5.79333c0,-1.38766 0,-2.75733 0,-4.113c0,-1.34566 0,-2.68533 0,-4.02299c0,-2.68533 0,-4.03951 0,-5.39867c0,-1.35917 0,-2.71333 0,-4.0575c0,-1.32917 0,-2.63834 0,-3.9225c0,-2.47334 0,-3.655 0,-4.80666c0,-1.13167 0,-2.25333 0,-3.375c0,-1.13167 0,-2.28333 0,-3.465c0,-2.49333 0,-3.82133 0,-5.19733c0,-1.41199 0,-2.848 0,-4.296c0,-1.448 0,-2.884 0,-4.296c0,-2.704 0,-3.97433 0,-5.18667c0,-1.15633 0,-2.25867 0,-3.309c0,-1.00034 0,-1.95267 0,-2.859c0,-1.68267 0,-2.46301 0,-3.20534c0,-0.70633 0,-1.37866 0,-2.019c0,-0.61034 0,-1.19267 0,-1.749c0,-1.04266 0,-1.533 0,-2.00533c0,-0.45633 0,-0.89867 0,-1.329c0,-0.42033 0,-0.83267 0,-1.239c0,-0.80267 0,-1.20183 0,-1.596c0,-0.38417 0,-0.75333 0,-1.1025c0,-0.32417 0,-0.61834 0,-0.8775c0,-0.39333 0,-0.51933 0,-0.60133c0,-0.044 0,-0.056 0,-0.042c0,0.034 0,0.082 0,0.138c0,0.112 0,0.15717 0,0.19333c0,0.02817 0,0.04934 0,0.0645c0,0.01017 0,0.01633 0,0.0195c0,0.00134 0,0.00134 0,0.00134c0,0 0,0 0,0c0,0 0,0 0,0c0,0 0,0 0,-0.28583c0,-1.13284 0,-1.83017 0,-2.5515c0,-1.16267 -0.31107,-1.80997 -1.10834,-2.6135c-0.33597,-0.33861 -1.12292,-1.22442 -1.60001,-1.73667c-0.52274,-0.56128 -1.09235,-1.16595 -1.72498,-1.7925c-1.38351,-1.3702 -2.16885,-2.06686 -2.98401,-2.784c-0.83279,-0.73265 -1.68637,-1.45662 -2.54102,-2.1735c-0.84137,-0.70576 -1.66528,-1.38413 -2.45099,-2.0385c-1.42633,-1.18789 -2.04312,-1.7133 -2.59332,-2.19867c-0.49988,-0.44096 -0.94891,-0.85228 -1.3515,-1.242c-0.37454,-0.36257 -0.71915,-0.71356 -1.0365,-1.062c-0.61884,-0.67948 -0.9108,-1.04145 -1.20935,-1.40533c-0.30148,-0.36745 -0.89902,-1.11679 -1.19998,-1.49067c-0.59805,-0.74291 -1.49963,-1.80355 -2.08652,-2.46367c-0.55112,-0.61989 -1.13055,-1.14329 -1.61349,-1.995c-0.50018,-0.88211 -0.48441,-1.57821 -0.78265,-2.56267c-0.25732,-0.84936 0.10254,-0.68795 0.87997,-0.604c0.94751,0.10232 1.89844,0.00567 2.444,0.02133c0.5838,0.01677 1.83417,0.08096 2.48267,0.14933c1.31216,0.13835 1.95892,0.25541 2.59467,0.40533c1.28619,0.30331 1.92731,0.5376 2.57867,0.78933c0.67432,0.26061 1.37125,0.55146 2.80267,1.30133c0.77179,0.40431 1.55457,0.86637 2.358,1.3485c0.82065,0.49245 1.6424,1.00503 2.466,1.5195c0.81839,0.51121 1.61688,1.02637 3.17599,1.96533c0.73203,0.44085 1.44031,0.84687 2.12399,1.224c0.65512,0.36138 1.29083,0.69627 1.90802,1.008c0.59558,0.30082 1.1752,0.58617 2.30133,1.10133c0.54352,0.24863 1.07938,0.48468 1.6095,0.705c1.03256,0.42914 1.54062,0.63185 2.55582,0.975c0.99588,0.33662 2.00204,0.60815 2.51035,0.725c1.02899,0.23655 1.55988,0.33798 2.66165,0.475c1.15994,0.14425 1.77115,0.17635 3.02567,0.2295c0.63281,0.02681 1.26196,0.04117 2.48401,0.05267c0.58096,0.00547 2.13367,0.0045 2.57834,0.0045c1.15799,0 1.82333,0 3.04068,0c0.58264,0 1.59854,-0.08964 1.73666,0c0.61234,0.39737 0.68832,1.42982 0.96399,2.125c0.31677,0.79892 0.67999,2.20614 0.75699,2.71667c0.15579,1.03294 0.18509,1.54435 0.22168,2.49166c0.03036,0.7863 0.02133,2.01617 0.02133,2.85467c0,0.67067 0,1.812 -0.03201,1.876c-0.46808,0.93596 -0.82095,1.64354 -1.03497,2.061c-0.47092,0.9186 -0.70898,1.40633 -1.25168,2.34167c-0.73331,1.26388 -1.22867,1.92266 -1.68134,2.53333c-0.45267,0.61067 -1.17313,1.66281 -1.42133,2.08583c-0.54568,0.93006 -0.80838,1.44526 -1.07867,1.97667c-0.55634,1.0938 -0.82651,1.65268 -1.33334,2.77084c-0.48746,1.07545 -0.71738,1.59713 -1.08331,2.625c-0.17496,0.49145 -0.48059,1.44731 -0.58334,2.375c-0.09744,0.87978 -0.01233,1.75314 0.09601,2.628c0.11261,0.90929 0.25168,1.87099 0.31866,2.916c0.03583,0.55906 0.05627,1.14787 0.07465,2.424c0.00998,0.69346 0.01001,1.428 0.01068,3.03201c0.00037,0.874 0,1.792 0,2.748c0,0.988 0,2.002 0,3.036c0,1.048 0,2.104 0,4.216c0,1.04466 0,2.07733 0,3.096c0,1.00266 0,1.98733 0,2.952c0,0.94267 0,1.86134 0,3.61867c0,0.83667 0,1.65334 0,2.46c0,0.80667 0,1.62334 0,2.46c0,0.86667 0,1.77334 0,3.74667c0,1.08234 0,2.21867 0,3.39301c0,1.19633 0,2.39867 0,3.591c0,1.16634 0,2.29066 0,4.34933c0,0.907 0,1.736 0,2.499c0,0.709 0,1.376 0,2.013c0,0.619 0,1.232 0,2.488c0,0.66451 0,1.356 0,2.0715c0,0.7365 0,1.491 0,2.2605c0,0.78149 0,1.57201 0,3.168c0,0.80051 0,1.604 0,2.4135c0,0.8185 0,1.649 0,2.49451c0,0.86349 0,1.748 0,3.592c0,0.9635 0,1.948 0,2.9445c0,0.9995 0,1.993 0,2.9715c0,0.9545 0,1.87601 0,3.584c0,0.77116 0,1.48933 0,2.1615c0,0.63316 0,1.23433 0,1.8105c0,0.55817 0,1.10533 0,2.19467c0,0.55449 0,1.116 0,1.68149c0,0.56651 0,1.13101 0,1.69051c0,0.5515 0,1.092 0,2.12801c0,0.49016 0,0.96133 0,1.41449c0,0.43617 0,0.85634 0,1.26151c0,0.39117 0,0.76933 0,1.49066c0,0.67734 0,1.58334 0,2.30934c0,1.00533 0,1.96384 0,2.61617l0,1.07849l0,0.65733l0,0.54134" id="svg_3" stroke-width="2" stroke="#000" fill="none"/>
  <path t="13719,13913,13913,13913,13913,13913,13930,13930,13930,13930,13931,13931,13964,13965,13965,13965,13965,13985,13985,13985,13985,13985,13997,13997,13997,14014,14015,14015,14015,14015,14016,14047,14047,14048,14048,14085,14085,14085,14085,14085,14090,14090,14090,14110,14135,14135,14136,14136,14136,14147,14147,14147,14148,14148,14148,14148,14148,14150,14185,14186,14186,14186,14187,14187,14194,14195,14195,14216,14248,14249,14249,14249" d="m291,264c3.95767,10.10632 4.16547,10.67941 4.77066,11.46533c0.49863,0.64752 1.14493,1.09729 2.315,1.513c0.4454,0.15826 1.43542,0.38324 1.95599,0.48001c1.05902,0.19684 1.58948,0.29178 3.11551,0.41983c0.9314,0.07816 1.82272,0.07156 2.25751,0.03915c0.87015,-0.06488 2.21133,-0.34351 3.129,-0.62717c0.46298,-0.14313 1.36328,-0.46484 2.20166,-0.8075c1.0961,-0.44797 1.74423,-0.66168 2.45868,-1.216c1.05933,-0.82193 1.23535,-1.23959 1.74417,-1.98633c0.55103,-0.80869 0.80975,-1.24033 1.28247,-2.11499c0.65314,-1.2085 0.97787,-1.95065 1.20685,-2.66534c0.22336,-0.69724 0.41312,-1.83185 0.47717,-2.668c0.06754,-0.88144 0.07697,-1.78131 0.08084,-2.22665c0.01108,-1.27197 0.0159,-2.37314 0.00449,-2.98035c-0.02133,-1.13495 -0.8829,-1.63681 -1.45117,-2.09732c-0.34381,-0.27859 -1.15549,-0.89984 -1.65265,-1.17868c-1.68042,-0.94247 -2.39847,-1.09991 -3.11618,-1.29166c-0.73923,-0.19749 -1.505,-0.34843 -2.28,-0.47401c-0.77182,-0.12508 -1.53586,-0.22038 -2.28,-0.29399c-1.38531,-0.13704 -2.59314,-0.20808 -3.13416,-0.23218c-0.98138,-0.04372 -1.86334,-0.05402 -2.27917,-0.05583c-1.20584,-0.00526 -2.35333,-0.00133 -3.02667,-0.00133c-1.07367,0 -1.94666,0 -2.94415,0l-0.40253,0l-1.20749,0" id="svg_4" stroke-width="2" stroke="#000" fill="none"/>
  <path t="14616,14780,14780,14780,14781,14781,14781,14781,14781,14781,14804,14804,14804,14804,14804,14804,14804,14804,14805,14853,14853,14853,14853,14853,14853,14854,14854,14854,14872,14873,14873,14873,14873,14873,14874,14874,14874,14884,14884,14884,14887,14887,14888,14888,14888,14888,14901,14901,14901,14902,14908" d="m266,291c10.33334,0 11.21552,-0.00174 12.07068,0.00266c0.84116,0.0043 1.68146,0.0141 2.53348,0.039c0.87732,0.02563 1.79291,0.06409 2.75851,0.129c2.1387,0.14374 3.3295,0.26877 4.59201,0.39734c1.31516,0.13394 2.66269,0.28241 4.02448,0.43201c1.35687,0.14905 2.68915,0.29956 3.97952,0.43201c2.37375,0.24365 3.42609,0.33047 4.38931,0.39734c0.88449,0.0614 1.70251,0.10303 2.46451,0.129c0.71671,0.02441 1.39963,0.03516 2.05951,0.039c1.29462,0.00757 1.94901,0.00266 2.60931,0.00266c0.66235,0 1.32266,0 1.97702,0c0.64432,0 1.27466,0 1.88699,0c1.15466,0 1.69016,0 2.19867,0c0.4845,0 0.948,0 1.39349,0c0.43051,0 0.849,0 1.25851,0c0.80399,0 1.20331,0 1.98599,0l1.07401,0l1.07733,0" id="svg_5" stroke-width="2" stroke="#000" fill="none"/>
  <path t="15413,15616,15616,15616,15616,15617,15617,15617,15617,15617,15639,15640,15640,15640,15640,15640,15640,15640,15640,15669,15670,15670,15670,15670,15670,15670,15670,15670,15684,15685,15685,15685,15685,15685,15685,15685,15686,15699,15702,15703,15703,15703,15703,15703,15703,15703,15717,15718,15718,15720,15720,15720,15720,15721,15721,15730,15731,15731,15731,15732,15732,15732,15732,15732,15766,15766,15766,15766,15767,15767,15767,15767,15767,15798,15799,15799,15799,15799,15800,15800,15800,15800,15808,15808,15809,15809,15809,15809,15809,15813,15813,15819,15819,15820,15820,15820,15825,15825,15825,15825,15875,15876,15876,15876,15877,15877,15877,15878,15878,15884,15885,15885,15885,15886,15886,15886,15886,15887,15897,15898,15898,15898,15898,15899,15899,15899,15899,15933,15933,15934,15934,15934,15934,15935,15935,15935,15947,15948,15948,15948,15949,15950,15950,15950,15951,15968,15969,15971,15972,15972,15972,15973,15974,15974,15999,16000,16001,16001,16002,16002,16003,16003,16004" d="m294,291c0,-8.83334 0,-9.90634 0,-11.01733c0,-1.13699 0,-2.28799 0,-3.44101c0,-1.14297 0,-2.26398 0,-3.35098c0,-2.02402 0,-2.94083 0,-3.79868c0,-0.80984 0,-1.58267 0,-2.3295c0,-0.73184 0,-1.45966 0,-2.19449c0,-1.53467 -0.00156,-2.35419 0.00266,-3.21066c0.00439,-0.8905 0.01407,-1.81213 0.039,-2.76151c0.0256,-0.97464 0.0611,-1.97171 0.129,-2.98651c0.13904,-2.07773 0.26523,-3.13307 0.40134,-4.20534c0.1394,-1.09814 0.30688,-2.22592 0.49051,-3.39149c0.19089,-1.21179 0.40353,-2.47437 0.62549,-3.79649c0.47836,-2.84938 0.7374,-4.38696 0.992,-5.996c0.26389,-1.6676 0.52261,-3.38541 0.75751,-5.145c0.23859,-1.78709 0.46173,-3.59445 0.6225,-5.41499c0.31995,-3.62286 0.36905,-5.41635 0.39999,-7.18668c0.03058,-1.7498 0.01443,-3.48015 -0.02249,-5.19c-0.0365,-1.69019 -0.09906,-3.35997 -0.1575,-5.00999c-0.11478,-3.23996 -0.16235,-4.83009 -0.19467,-6.40134c-0.03195,-1.55309 -0.05176,-3.08931 -0.06448,-4.6095c-0.0126,-1.50516 -0.01758,-2.99634 -0.0195,-4.4745c-0.00378,-2.92133 -0.00134,-4.36867 -0.00134,-5.81999c0,-1.46935 0,-2.97067 0,-4.51801c0,-1.60733 0,-3.28867 0,-5.058c0,-3.85867 -0.00076,-5.96899 0.00134,-8.18134c0.0022,-2.28633 0.00681,-4.61868 0.0195,-6.96899c0.01263,-2.34035 0.02856,-4.64278 0.06448,-6.879c0.06689,-4.16293 0.12857,-6.04048 0.20132,-7.78267c0.06778,-1.62282 0.15213,-3.14055 0.255,-4.5675c0.09753,-1.35306 0.21045,-2.646 0.345,-3.8925c0.26144,-2.42207 0.43185,-3.62054 0.59735,-4.82133c0.16586,-1.20357 0.34171,-2.40929 0.51599,-3.61949c0.17502,-1.21512 0.35303,-2.43558 0.51599,-3.66451c0.32886,-2.47984 0.46576,-3.73669 0.60135,-5.00667c0.13745,-1.28735 0.26706,-2.59743 0.4035,-3.933c0.13953,-1.36577 0.28177,-2.76615 0.44849,-4.203c0.34891,-3.00713 0.56793,-4.58034 0.80267,-6.19866c0.24078,-1.66006 0.5054,-3.35419 0.7905,-5.0775c0.28952,-1.75005 0.59634,-3.51967 0.92551,-5.30251c0.66391,-3.59608 1.03049,-5.3918 1.392,-7.17733c0.35684,-1.76247 0.71466,-3.48772 1.0575,-5.166c0.33047,-1.61773 0.64819,-3.16212 0.92249,-4.626c0.49103,-2.62075 0.66409,-3.76464 0.79868,-4.8c0.1218,-0.93686 0.2056,-1.7914 0.258,-2.574c0.04831,-0.72153 0.07028,-1.39593 0.078,-2.034c0.01474,-1.21593 0.00534,-1.81467 0.00534,-2.40533c0,-0.57467 0,-1.12534 0,-1.644c0,-0.47866 0,-0.90933 0,-1.284c0,-0.54933 0,-0.711 0,-0.80267c0,-0.03167 0,-0.01334 0,0.045c0,0.08833 0,0.19666 0,0.315c0,0.22666 0,0.317 0,0.38933c0,0.05634 0,0.09867 0,0.12901l0,0.02033l0,0.01233l0,0.00633" id="svg_6" stroke-width="2" stroke="#000" fill="none"/>
  <path t="16439,16597,16598,16599,16599,16599,16599,16599,16599,16599,16616,16616,16617,16617,16617,16617,16617,16618,16618,16646,16646,16646,16646,16646,16647,16647,16647,16647,16696,16697,16697,16697,16697,16698,16698,16698,16698,16706,16706,16706,16706,16707,16707,16707,16724,16725,16734,16734,16734,16735,16735,16736,16736,16736,16736,16771,16772,16772,16772,16772,16773,16773,16773,16773,16782,16782,16782,16783,16783,16783,16783,16783,16783,16790,16790,16791,16791,16792,16792,16792,16792,16792,16813,16813,16814,16814,16814,16814,16814,16815,16815,16831,16832,16832,16833,16833,16833,16834,16834,16834,16850,16851,16853,16854,16854,16854,16854,16855,16855,16866,16866,16867,16867,16867,16868,16868,16868,16869,16883,16883,16884,16884,16884,16884,16885,16885,16885,16916,16917,16917,16917,16918,16918,16918,16918,16919,16930,16931,16932,16932,16932,16933,16934,16934,16934" d="m293,281c0.5,-8.33334 0.65784,-9.24423 0.85068,-10.17065c0.19672,-0.94495 0.41806,-1.9006 0.62848,-2.871c0.21228,-0.97894 0.42676,-1.96381 0.5835,-2.961c0.31296,-1.99115 0.36404,-2.99716 0.40134,-4c0.03741,-1.00598 0.03467,-2.01868 0.03601,-3.039c0.00134,-1.03033 -0.00851,-2.07332 0.03601,-3.12901c0.09131,-2.16467 0.23865,-3.27365 0.39999,-4.39867c0.16382,-1.14211 0.36575,-2.29192 0.564,-3.45149c0.1991,-1.16443 0.40857,-2.32829 0.564,-3.49651c0.3075,-2.31123 0.36517,-3.4615 0.396,-4.604c0.03085,-1.14369 0.01379,-2.29619 -0.02249,-3.46199c-0.03693,-1.18625 -0.10089,-2.39789 -0.1575,-3.642c-0.11868,-2.60776 -0.16309,-3.98373 -0.19467,-5.41467c-0.03293,-1.49074 -0.05203,-3.04663 -0.06448,-4.6725c-0.013,-1.70082 -0.01761,-3.48167 -0.0195,-5.3475c-0.00406,-4.00667 -0.00134,-6.15283 -0.00134,-8.37599c0,-2.27718 0,-4.58534 0,-6.9015c0,-2.30116 0,-4.56433 0,-6.76649c0,-4.12933 0,-6.01767 0,-7.79601c0,-1.68834 0,-3.30667 0,-4.875c0,-1.53833 0,-3.06667 0,-4.605c0,-3.18668 0,-4.87001 0,-6.61334c0,-1.79333 0,-3.62666 0,-5.48999c0,-1.88333 0,-3.77667 0,-5.67c0,-3.74667 0,-5.58168 0,-7.38667c0,-1.77499 0,-3.52 0,-5.235c0,-1.685 0,-3.34 0,-4.965c0,-3.16 0,-4.69518 0,-6.20134c0,-1.47816 0,-2.92934 0,-4.35449c0,-1.40018 0,-2.77634 0,-4.1295c0,-2.64133 0,-3.9325 0,-5.21067c0,-1.27216 0,-2.54533 0,-3.8265c0,-1.29617 0,-2.61433 0,-3.9615c0,-2.80933 0,-4.28233 0,-5.79333c0,-1.53699 0,-3.088 0,-4.641c0,-1.543 0,-3.064 0,-4.55099c0,-2.82401 0,-4.13934 0,-5.38667c0,-1.18133 0,-2.29866 0,-3.354c0,-0.99533 0,-1.93266 0,-2.814c0,-1.60266 0,-2.3285 0,-3.00933c0,-0.64083 0,-1.24667 0,-1.8225c0,-0.55083 0,-1.08167 0,-1.5975c0,-1.00667 0,-1.50717 0,-2.01067c0,-0.5095 0,-1.028 0,-1.5585c0,-0.5455 0,-1.109 0,-1.6935c0,-1.244 0,-1.9075 0,-2.592c0,-0.6965 0,-1.396 0,-2.0895l0,-0.6785l0,-0.6545l0,-0.6215" id="svg_7" stroke-width="2" stroke="#000" fill="none"/>
  <path t="19459,19576,19579,19579,19579,19579,19579,19579,19598,19598,19598,19598,19598,19599,19599,19624,19624,19624,19625,19625,19625,19636,19636,19636,19636,19636,19637,19637,19637,19647,19648,19648,19648,19648,19648,19648,19649,19649,19664,19665,19665,19665,19665,19665,19666,19666,19666,19699,19699,19700,19700,19700,19700,19700,19700,19701,19714,19714,19714,19714,19715,19715,19715,19715,19718,19732,19733,19733,19733,19733,19733,19734,19737,19737,19749,19750,19750,19750,19750,19751,19751,19751,19751,19797,19797,19797,19798,19798,19798,19799,19799,19800,19808,19808,19809,19809,19809,19809,19812,19812,19813,19818,19818,19818,19819,19819,19819,19819,19820,19821,19848,19848,19849,19849,19849,19850,19850,19850,19850,19868,19868,19869,19869,19869,19870,19870,19870,19871,19894,19897,19898,19898,19898,19899,19899,19899,19899,19923,19924,19925,19925,19926,19926,19932,19933,19933,19942,19942,19943,19945,19946,19946,19947,19947,19948,19954,19955,19955,19955,19956,19956,19957,19957,19957,19965,19966,19967,19967,19968,19968,19970,19971,19972,20009,20024,20024,20025,20025,20026,20033,20033,20034,20039,20040,20040,20041,20042,20042,20043,20045,20046" d="m302,283c0.66415,-8.35699 0.84442,-9.03223 1.0625,-9.68567c0.21539,-0.64532 0.45932,-1.27228 0.93668,-2.50534c0.23465,-0.60614 0.6799,-1.80518 0.85767,-2.40866c0.34885,-1.18436 0.46976,-1.77713 0.58066,-2.35867c0.21432,-1.12402 0.30603,-1.66788 0.44101,-3.19965c0.08398,-0.95316 0.09238,-1.43387 0.11081,-2.43668c0.00992,-0.53928 0.01001,-1.11465 0.01068,-3.134c0.00027,-0.78067 0,-1.60533 0,-2.466c0,-0.88866 0,-1.79733 0,-2.718c0,-0.92465 0,-2.754 0,-3.64417c0,-0.87115 0,-1.72433 0,-2.5605c0,-0.82016 0,-1.62532 0,-2.41649c0,-0.77817 0.00101,-2.2995 -0.00034,-3.04517c-0.00131,-0.73967 -0.00476,-1.47742 -0.021,-2.21701c-0.01639,-0.74576 -0.04431,-1.50171 -0.09299,-2.271c-0.04987,-0.7881 -0.2121,-2.4339 -0.32886,-3.29866c-0.12161,-0.90068 -0.27179,-1.838 -0.43948,-2.817c-0.17578,-1.02637 -0.37363,-2.10153 -0.5835,-3.231c-0.22073,-1.18787 -0.7019,-3.75275 -0.95517,-5.13634c-0.26413,-1.44305 -0.53293,-2.93637 -0.80402,-4.47c-0.27628,-1.56303 -0.55127,-3.14633 -0.82199,-4.73999c-0.27063,-1.593 -0.7887,-4.73958 -1.03101,-6.27518c-0.23761,-1.50575 -0.46304,-2.98389 -0.67499,-4.4355c-0.20801,-1.42473 -0.40347,-2.82487 -0.58502,-4.20149c-0.17841,-1.35272 -0.49899,-3.99406 -0.63998,-5.28484c-0.13895,-1.27191 -0.26447,-2.52827 -0.375,-3.771c-0.10941,-1.22995 -0.2048,-2.45035 -0.285,-3.66301c-0.07977,-1.20602 -0.19968,-3.60883 -0.24017,-4.81082c-0.04086,-1.21269 -0.06757,-2.44763 -0.08548,-3.7155c-0.01852,-1.3118 -0.02695,-2.67867 -0.03152,-4.11151c-0.00482,-1.50983 -0.00449,-4.80449 -0.00449,-6.60583c0,-1.88933 0,-3.84467 0,-5.84399c0,-2.02133 0,-4.04266 0,-6.04199c0,-1.95534 0,-5.64601 0,-7.3425c0,-1.5955 0,-3.09901 0,-4.5195c0,-1.34651 0,-2.62801 0,-3.8535c0,-1.17851 0,-3.43051 0,-4.52267c0,-1.08516 0,-2.17633 0,-3.2865c0,-1.14217 0,-2.32933 0,-3.5745c0,-1.31616 0,-4.2135 0,-5.81433c0,-1.68584 0,-3.43167 0,-5.2125c0,-1.79083 0,-3.56667 0,-5.3025c0,-1.67084 -0.00168,-4.7175 0.00049,-6.0505c0.00198,-1.21101 0.00595,-2.31815 0.03152,-3.339c0.0239,-0.95319 0.06488,-1.85687 0.1395,-2.727c0.07358,-0.85801 0.3204,-2.60248 0.49231,-3.51967c0.17847,-0.95228 0.38953,-1.92536 0.6015,-2.916c0.21368,-0.9987 0.43045,-1.99582 0.61951,-2.988c0.18546,-0.97324 0.46512,-2.84264 0.52933,-3.72566c0.06186,-0.85065 0.07169,-1.68351 0.05252,-2.505c-0.01917,-0.82196 -0.07184,-1.65343 -0.1275,-2.505c-0.05762,-0.88177 -0.1778,-2.77478 -0.21768,-3.80267c-0.04166,-1.07347 -0.06735,-2.17928 -0.08548,-3.303c-0.01819,-1.12762 -0.02679,-2.24532 -0.03152,-3.339c-0.00455,-1.05566 -0.00449,-2.99699 -0.00449,-3.85833c0,-0.78934 0,-1.51467 0,-2.184c0,-0.62133 0,-1.20266 0,-1.752c0,-0.52533 0,-1.536 0,-2.036c0,-0.5 0,-1 0,-1.5c0,-0.5 0,-1 0,-1.5c0,-0.5 0,-1.5 0,-1.99967c0,-0.49767 0,-0.99133 0,-1.479c0,-0.47966 0,-0.94933 0,-1.407l0,-0.44367" id="svg_8" stroke-width="2" stroke="#000" fill="none"/>
 </g>
 <g display="none">
  <title>muse_image</title>
  <image xlink:href="http://farm1.static.flickr.com/30/38834484_e2b8107f17.jpg" id="muse" height="480" width="640" y="0" x="0"/>
 </g>
 <g display="none">
  <title>bbox</title>
  <rect stroke="#f00" fill="none" stroke-width="3" height="417.28" width="162.56" y="0" x="226.56" id="bbox"/>
 </g>
</svg>
