<svg width="640" height="480" xmlns="http://www.w3.org/2000/svg" xmlns:svg="http://www.w3.org/2000/svg" xmlns:xlink="http://www.w3.org/1999/xlink">
 <!-- Sketchy ANNOTATION
  ImageNet ID: n02676566_307
  URL: http://static.flickr.com/2293/1819337122_fe872b7490.jpg
  Image Width: 303
  Image Height: 500
  BBox X: 62
  BBox Y: 51
  BBox Width: 180
  BBox Height: 430
  Exposure: 2000ms
  Synset Label: guitar
  Synset ID: n03467517
  Worker Tag: {}
  Sanity Check: 
   Saved
  Comment: 
   {}
  Worker ID: A1E9YXB24AC78F
  Assignment ID: 3WMOAN2SRBXOQINBWZTML3YPBMQVN1
  HIT ID: 3L21G7IH47W0TLDX6LD66BUVMC5Y1T
  Work Time: 80s
  Worker Score: 0.6429
 END ANNOTATION -->
 <g display="inline">
  <title>Layer 1</title>
  <path t="0,91,106,122,129,140,154,161,170,170,193,201,233,490,498,508,508,522,537,553,553,569,585,585,601,617,617,633,633,633,641,641,667,673,713,729,745,753,761,769,794,841,857,858,882,882,898,913,915,954,954,1026,1057,1081,1081,1089,1121,1145,1185,1185,1210,1234,1249,1306,1306,1338,1378,1426,1426,1458,1458,1498,1554,1554,1594,1650,1650,1730,1730" d="m289,68c-1.70001,0 -2.60001,0 -3.5,0c-0.89999,0 -1.79999,0 -2.70001,0c-0.89999,0 -1.79999,0 -2.59998,0c-0.90002,0 -1.80002,0 -2.70001,0c-0.89999,0 -1.85663,-0.13657 -2.70001,0.284c-0.66162,0.32993 -1.51169,0.59917 -2.43597,0.75201c-0.8717,0.14414 -1.52692,0.57291 -2.47867,0.88c-0.8757,0.28255 -1.54324,0.83456 -2.18533,1.3795c-0.75513,0.64085 -1.57568,0.73642 -2.46384,0.92599c-0.90628,0.19344 -1.60809,0.21282 -2.56952,0.7785c-0.74826,0.44025 -1.29749,1.06255 -1.75067,1.80133c-0.42166,0.68737 -1.56461,0.98676 -1.89514,1.71951c-0.3616,0.80163 0.05222,1.82934 -0.44617,2.45383c-0.4852,0.60796 -0.57468,1.436 -0.57468,2.34666c0,0.85333 0,1.79466 0,2.56267c0,0.94133 0,1.94933 0,2.74133c0,0.85867 -0.00082,1.722 0,2.73866c0.00067,0.836 0.28702,1.69441 0.64734,2.336c0.50253,0.89481 1.1774,1.43955 1.31665,2.16134c0.18423,0.95506 0.08954,1.83618 0.53601,2.63866c0.44373,0.79752 0.99612,1.35548 1.70001,1.78533c0.67535,0.41244 1.34958,1.17741 1.74731,2.01467c0.41284,0.86908 0.81589,1.42693 0.99551,2.35266c0.16479,0.8493 0.05716,1.84734 0.05716,2.83134c0,0.69067 0,1.76333 0,2.68266l0,0.65867l0,1.008l0.08533,0.88" id="svg_1" stroke-width="2" stroke="#000" fill="none"/>
  <path t="2355,2656,2658,2658,2658,2658,2658,2673,2673,2673,2689,2697,2713,2729,2745,2770,2770,2777,2793,2794,2818,2833,2833,2849,2865,2866,2889,2889,2921,2921,3034,3210,3217,3250,3298,3321,3337,3337,3377,3417,3458,3490,3513,3514,3538,3570,3570,3593,3594,3594,3609,3641,3642,3681,3682,3705,3705,3737,3761,3762,3777,3793,3825,3826,3923,3923" d="m288,66c1.60001,0.57467 2.43155,0.98199 3.5,1c0.55325,0.00932 1.52084,-0.00005 2.19916,0c1.25769,0.00008 2.03937,-0.11164 2.81284,0.08533c1.01974,0.2597 1.76074,0.72319 2.43533,1.26733c0.6611,0.53326 1.57004,0.5173 2.1525,1.09016c0.6243,0.61401 0.85745,1.66876 0.90018,2.55717c0.03842,0.79908 0,1.636 0,2.65266c0,0.69467 0,1.722 0,2.66867c0,0.67867 0,1.79466 0,2.56267c0,0.94133 0,1.632 0,2.70533c0,0.91067 -0.00009,1.80863 -0.5,2.41067c-0.51459,0.61974 -0.94421,1.39231 -1.59982,2.1c-0.54996,0.59363 -0.98965,1.29179 -1.54752,1.95267c-0.49512,0.58656 -0.86823,1.45248 -1.55267,2.14733c-0.49622,0.50376 -1.32297,1.14671 -1.63333,1.96667c-0.30811,0.81392 -0.30801,1.84209 -0.59198,2.62267c-0.26715,0.73433 -0.54709,1.71087 -0.57483,2.53201c-0.02884,0.8536 -0.34818,1.76204 -0.64719,2.43134c-0.38696,0.86616 -0.40762,1.77545 -0.77798,2.62199c-0.42068,0.96156 -0.44684,1.63351 -0.57483,2.60367c-0.12128,0.9193 -0.87836,1.4645 -0.98917,2.207l-0.01068,0.93066l0,0.76801" id="svg_2" stroke-width="2" stroke="#000" fill="none"/>
  <path t="4644,4923,4923,4939,4970,4978,4986,5010,5026,5042,5058,5058,5066,5074,5091,5122,5130,5154,5170,5177,5177,5186,5194,5209,5225,5234,5242,5266,5274,5274,5282,5306,5322,5322,5354,5354,5362,5362,5386,5386,5402,5402,5418,5434,5434,5434,5450,5458,5482,5482,5491,5498,5514,5522,5530,5538,5546,5554,5554,5570,5570,5578,5578,5602,5602,5609,5610,5626,5626,5658,5658,5674,5698,5698,5714,5714,5738,5755,5755,5770,5771,5786,5802,5802,5818,5819,5834,5834,5858,5866,5866,5882,5898,5898,5898,5906,5906,5922,5922,5930,5930,5938,5946,5946,5954,5954,5962,5970,5970,5978,5986,5986,6010,6018,6018,6035,6035,6043,6044,6044,6060,6060,6076,6076,6114,6146,6170,6202,6210,6226,6226,6266,6274,6290,6298,6314,6314,6322,6322,6338,6338,6346,6347,6362,6362,6385,6385,6401,6409,6418" d="m266,99c-1,1 -1,1.8 -1,2.7c0,0.9 0,1.8 0,2.7c0,0.9 0,1.8 0,2.7c0,0.9 0,1.7 0,2.6c0,0.9 0,1.8 0,2.7c0,0.9 0,1.8 0,2.7c0,0.9 0,1.7 0,2.6c0,0.9 0,1.8 0,2.7c0,0.9 0,1.8 0,2.7c0,0.9 0,1.7 0,2.6c0,0.82084 0,1.78534 0,2.51067c0,0.98917 -0.05115,1.95479 0.00134,2.90533c0.0426,0.77141 0.39395,1.52573 0.646,2.2885c0.323,0.97751 0.1691,1.77658 0.36166,2.84283c0.17325,0.95937 0.73911,1.37119 1.28568,2.10001c0.64374,0.85838 0.70532,1.75267 0.70532,2.65266c0,0.8 0,1.7 0,2.60001c0,0.89999 0,1.79999 0,2.7c0,0.89999 0,1.8 0,2.7c0,0.75717 0,1.65717 0,2.4045c0,0.9955 0,1.7955 0,2.7955c0,0.8 0,1.8 0,2.77917c0,0.85416 0,1.64616 0,2.67349c0,0.69467 0,1.722 0,2.66867c0,0.85333 0,1.79466 0,2.56267c0,0.94133 0,1.94933 0,2.74133c0,0.85866 0,1.722 0,2.62199c0,0.91934 0,1.75267 0,2.73134c0,0.774 0,1.674 0,2.53734c0,0.98399 0,1.96799 0,2.65866c0,1.07266 0,1.992 0,2.66133c0,0.76534 0,1.76401 0,2.564c0,1 0,1.8 0,2.79984c0,0.96417 0,1.91484 0,2.80017c0,0.75717 0,1.65266 0,2.51601c0,0.98399 0,1.96799 0,2.65866c0,1.06816 0,1.92551 0,2.71066c0,0.94 0,1.948 0,2.74001c0,0.86133 0,1.62134 0,2.79584c0,0.79349 0,1.569 0,2.6095c0,0.7175 0,1.62199 0,2.48534c0,0.96317 0,1.88399 0,2.784c0,0.89999 0,1.8 0,2.7c0,0.8 0.18375,1.72649 -0.03601,2.60001c-0.21704,0.86281 -0.9213,1.59851 -0.96399,2.56667c-0.02902,0.65802 0,1.66666 0,2.45866c0,1.03183 0,1.77916 0,2.77333c0,0.76534 0.08911,1.73271 -0.08533,2.48534c-0.22598,0.97501 -0.63068,1.632 -0.89383,2.59517l-0.02084,0.92082l0,0.90001" id="svg_3" stroke-width="2" stroke="#000" fill="none"/>
  <path t="7179,7299,7306,7314,7314,7314,7322,7322,7338,7338,7338,7346,7346,7354,7354,7370,7386,7386,7402,7403,7410,7410,7426,7435,7435,7442,7442,7458,7466,7475,7482,7498,7498,7506,7522,7530,7547,7570,7571,7586,7587,7602,7618,7634,7634,7650,7650,7659,7666,7675,7690,7690,7706,7706,7722,7754,7754,7770,7770,7794,7818,7818,7818,7850,7874,7874,7898,7905,7906,7922,7923,7930,7930,7946,7954,7961,7978,7978,7993,8003,8009,8026,8034,8042,8059,8076,8076,8098,8098,8106,8106,8106,8114,8122,8138,8154,8162,8162,8186,8186,8202,8210,8226,8242,8274,8290,8298,8306,8306,8314,8322,8330,8346,8354,8362,8386,8393,8394,8411,8411,8418,8441,8441,8457,8465,8474,8474,8498,8514,8538,8596,8601,8601,8625,8666,8674,8682,8698,8706,8713,8738,8738,8745,8754,8778,8794,8810,8834,8858,8859" d="m289,106c-0.5,2.47916 -0.97141,3.3078 -1,4.33334c-0.01874,0.67174 0,1.416 0,2.52399c0,0.79333 0,1.6855 0,2.66351c0,0.7965 0,1.7925 0,2.6325c0,0.96266 0,1.73067 0,2.672c0,1.008 0,1.8 0,2.66c0,0.72533 0,1.7145 0,2.67867c0,0.95067 0,1.836 0,2.59317c0,0.89549 0,1.75883 0,2.722c0,0.92082 0.10696,1.82736 -0.00134,2.72083c-0.11148,0.91977 -0.8085,1.45409 -0.98798,2.40001c-0.16776,0.88428 -0.01001,1.79999 -0.01068,2.7c-0.00067,0.90134 -0.06134,1.59436 -0.42532,2.52533c-0.27286,0.69791 -0.46399,1.66124 -0.58536,2.58533c-0.1217,0.92677 -0.60086,1.55321 -0.86783,2.56784c-0.21091,0.80164 -0.12149,1.7215 -0.12149,2.62151c0,0.81065 0,1.72133 0,2.57466c0,0.94133 0.06683,1.71248 -0.01068,2.65067c-0.08398,1.01653 -0.63644,1.62492 -0.90399,2.65866c-0.17404,0.67253 0.02673,1.65625 -0.25198,2.68268c-0.18542,0.68291 -0.6691,1.32491 -0.8125,2.33333c-0.13855,0.97441 -0.02084,1.67467 -0.02084,2.74733c0,0.91934 0.10306,1.78415 -0.16666,2.586c-0.28403,0.84444 -0.78622,1.64793 -0.82886,2.51401c-0.04404,0.89442 -0.00449,1.85266 -0.00449,2.75267c0,0.89999 0,1.7 0,2.59999c0,0.90001 0,1.8 0,2.7c0,0.90001 0,1.8 0,2.70001c0,0.89999 -0.07202,1.6853 -0.56799,2.38533c-0.53738,0.75847 -1.18869,1.49036 -1.36002,2.304c-0.15012,0.713 -0.07199,1.8 -0.07199,2.71066c0,0.89999 0,1.8045 0,2.66667c0,0.83333 0,1.81183 0,2.63199c0,0.90134 0,1.80135 0,2.70134c0,0.89999 0,1.8 0,2.7c0,0.90001 0,1.8 0,2.60001c0,0.89999 0,1.8 0,2.7c0,0.89999 0,1.8 0,2.7c0,0.90001 0,1.8 0,2.55717c0,0.89549 0,1.75883 0,2.74283c0,0.82133 0,1.67467 0,2.61467c0,0.98534 -0.16815,1.92177 0.08533,2.68533c0.25635,0.77217 0.88608,1.49864 0.91467,2.39999c0.02853,0.89955 0,1.8 0,2.60001c0,0.89999 0,1.8 0,2.7c0,0.89999 0,1.8 0,2.7c0,0.90001 0,1.8 0,2.60001c0,0.89999 0,1.8 0,2.7c0,0.89999 0,1.8 0,2.70134l0,0.96533l0,0.83333" id="svg_4" stroke-width="2" stroke="#000" fill="none"/>
  <path t="9860,10130,10130,10250,10300,10370,10378,10378,10386,10386,10395,10395,10402,10402,10411,10411,10418,10418,10418,10427,10434,10434,10444,10444,10444,10460,10466,10474,10498,10506,10530,10530,10554,10554,10562,10570,10594,10594,10642,10659,10713,10713,10715,10729,10730,10730,10730,10730,10730,10738,10738,10753,10753,10769,10769,10778,10785,10785,10793,10809,10817,10817,10825,10825,10833,10842,10849,10849,10865,10865,10873,10873,10873,10897,10897,10905,10905,10913,10921,10921,10929,10929,10945,10945,10945,10970,10978,10978,10993,11001,11001,11009,11009,11009,11017,11025,11033,11042,11042,11060,11060,11074,11074,11098,11098,11106,11113,11130,11130,11138,11138,11138,11145,11145,11153,11161,11170,11185,11193,11193,11201,11225,11257,11266,11275,11276,11282,11289,11290,11297,11297,11313,11314,11323,11323,11323,11338,11338,11338,11345,11345,11354,11354,11354,11361,11378,11378,11378,11386,11386,11386,11393,11401,11409,11409,11418,11434,11434,11443,11458,11458,11465,11474,11498,11530,11530,11554,11578,11585,11593,11610,11610,11618,11634,11634,11658,11674,11674,11682,11690,11697,11698,11706,11713,11714,11722,11722,11730,11730,11745,11746,11754,11761,11762,11786,11786,11801,11802,11810,11818,11818,11833,11834,11843,11858,11858,11858,11874,11881,11890,11897,11922,11922,11929,11938,11954,11954,11961,11961,11970,11970,11985,11986,11993,11994,12002,12010,12018,12027,12043,12044,12049,12058,12065,12074,12081,12090,12090,12106,12106,12106,12113,12113,12122,12137,12138,12138,12145,12145,12154,12154,12161,12170,12177,12178,12194,12194,12202,12210,12218,12227,12234,12244,12244,12244,12250,12250,12257,12265,12266,12274,12281,12281,12306,12321,12329,12329,12385,12393,12393,12426,12441,12449,12458,12473,12481,12505,12505,12521,12521,12537,12553,12553,12561,12577,12605,12605,12606,12606,12609,12617,12633,12633,12649,12649,12657,12658,12665,12666,12673,12673,12681,12681,12681,12690,12697,12697,12698,12706,12706,12706,12713,12713,12722,12722,12729,12729,12729,12738,12738,12738,12738,12745,12745,12745,12754,12754,12754,12761,12761,12769,12769,12770,12770,12777,12777,12777,12777,12786,12786,12793,12793,12793,12801,12801,12802,12809,12809,12817,12817,12818,12826,12826,12826,12827,12833,12841,12841,12841,12849,12849,12849,12849,12857,12857,12865,12865,12865,12873,12873,12873,12873,12873,12881,12881,12881,12889,12889,12889,12897,12897,12897,12905,12905,12913,12913,12921,12921,12929,12929,12929,12937,12937,12937,12945,12945,12945,12953,12953,12961,12962,12962,12969,12969,12969,12977,12977,12985,12985,12993,12993,13001,13001,13001,13009,13009,13017,13017,13026,13026,13033,13041,13041,13041,13049,13057,13057,13065,13065,13073,13073,13081,13089,13097,13097,13113,13113,13113,13113,13121,13129,13129,13137,13145,13153,13161,13161,13169,13177,13185,13193,13201,13217,13217,13226,13226,13233,13233,13241,13257,13265,13273,13289,13289,13297,13297,13305,13313,13321,13337,13337,13345,13345,13361,13361,13369,13369,13385,13385,13393,13393,13393,13401,13401,13409,13409,13417,13417,13426,13426,13779,13779,13782,13782,13782,13783,13783,13783,13809,13809,13809,13809,13810,13810,13810,13810,13810,13817,13818,13818,13818,13818,13818,13818,13818,13818,13826,13826,13826,13826,13826,13827,13827,13827,13827,13833,13833,13833,13833,13834,13834,13834,13834,13834,13841,13841,13841,13841,13841,13841,13842,13842,13842,13849,13849,13849,13849,13849,13849,13850,13850,13850,13857,13857,13857,13857,13857,13858,13858,13858,13858,13865,13865,13865,13865,13889,13889,14202,14203,14213,14234,14250,14250,14282,14289,14322,14329,14330,14338,14338,14346,14418,14474,14475,14483,14490,14491,14498,14513,14642,14657,14658,14714,14723,14723,14730,14739,14740,14747,14754,14754,14762,14762,14770,14778,14779,14786,14787,14787,14795,14802,14811,14818,14818,14828,14828,14834,14834,14842,14843,14849,14850,14858,14858,14865,14866,14866,14866,14874,14874,14881,14882,14890,14890,14905,14905,14921,14922,14953,14961,14969,14985,14985,14993,14994,15001,15002,15010,15010,15010,15017,15033,15033,15033,15042,15042,15049,15049,15065,15065,15074,15081,15090,15097,15106,15113,15129,15129,15137,15153,15153,15169,15169,15177,15177,15193,15194,15210,15210,15211,15217,15233,15257,15258,15322,15378,15394,15449,15473,15481,15505,15505,15513,15530,15593,15593,15625,15625,15666,15739,15747,15747,15770,15786,15795,15841" d="m263,227c-1,1.16667 -1.53796,1.74387 -2.39999,1.964c-0.95966,0.24507 -1.53381,0.71846 -2.31433,0.97884c-0.66086,0.22046 -1.68567,0.05716 -2.48567,0.05716c-0.99983,0 -1.964,0 -2.916,0c-0.76801,0 -1.73067,0 -2.34567,0c-1.22099,0 -2.0175,-0.00177 -2.769,0c-0.95502,0.00226 -1.8199,0.31877 -2.58366,0.64734c-0.91014,0.39156 -1.69676,0.28445 -2.41766,0.43666c-1.12317,0.23715 -1.8723,0.76611 -2.76801,0.916c-0.83818,0.14026 -1.2998,0.87376 -2.16667,1.16667c-0.67039,0.22653 -1.65619,0.73099 -2.42267,0.82266c-0.90475,0.10822 -1.64178,0.48717 -2.51067,0.88933c-0.66202,0.30641 -1.46042,0.77496 -2.2,1.41684c-0.66669,0.57861 -1.53081,0.55438 -2.28333,0.78783c-1.17517,0.36455 -1.75388,1.05104 -2.12733,1.32733c-0.79192,0.58588 -1.17459,0.90662 -1.95334,1.45334c-1.17644,0.82593 -1.96733,1.10461 -2.65733,1.57867c-0.72382,0.49728 -1.50903,1.23018 -2.15784,1.5365c-0.81718,0.38582 -1.44925,1.10831 -2.12083,1.58482c-0.72565,0.51489 -1.33185,1.03937 -1.96933,1.63734c-0.54985,0.51579 -1.40164,1.12561 -1.90984,1.77783c-0.61169,0.78506 -1.37401,1.18378 -1.52083,2.02083c-0.13229,0.75424 -0.71605,1.65189 -1.18533,2.21066c-0.65678,0.78204 -1.04224,1.3943 -1.51016,2.13217c-0.5813,0.91664 -1.11861,1.52031 -1.26851,2.48251c-0.10645,0.68326 -0.036,1.67465 -0.036,2.65997c0,0.72534 0.04736,1.71735 -0.02083,2.51468c-0.08612,1.0069 -0.44858,1.77319 -0.69518,2.51468c-0.32184,0.96774 -0.284,1.96933 -0.284,2.65997c0,1.07269 0,1.992 0,2.66135c0,1.164 -0.00783,1.95337 0,2.67868c0.01042,0.96466 0.54318,1.6886 0.87849,2.58533c0.31808,0.85065 0.12819,1.6756 0.47867,2.55716c0.30446,0.76581 0.72142,1.55405 1.14284,2.32199c0.47615,0.86771 1.173,1.41754 1.44284,2.32083c0.25818,0.86426 0.44446,1.63965 1.05716,2.24167c0.73827,0.7254 0.92482,1.45984 0.97867,2.20767c0.07957,1.10501 0.07658,1.94272 0.52133,2.75067c0.44095,0.80103 0.18098,1.79776 0.78534,2.41599c0.60809,0.62207 1.5502,0.85355 1.70399,1.68402c0.16399,0.8855 0.53244,1.74625 0.88933,2.5c0.40437,0.85406 0.72934,1.50266 1.42134,2.19998c0.69731,0.7027 1.31979,1.16501 1.57849,2.02151c0.25908,0.85776 0.12151,1.87851 0.12151,2.6785c0,1 -0.02513,1.81424 0.05716,2.45715c0.15842,1.23755 0.38594,1.76358 0.59018,2.59018c0.25349,1.02594 0.26811,1.94928 0.51933,2.95267c0.20256,0.80905 0.65837,1.49924 1.12883,2.24734c0.56699,0.90161 0.68527,1.59882 0.70317,2.43933c0.02121,0.99579 0.00133,1.79248 0.00133,2.54398c0,1.09735 0,2.06934 0,2.97067c0,0.68402 0,1.62402 0,2.63202c0,0.86215 0,1.6875 0,2.65067c0,0.86331 0,1.75882 0,2.716c0,0.89999 0,1.79999 0,2.59998c0,0.90002 0.01195,1.8252 -0.42534,2.60001c-0.4099,0.72629 -0.7012,1.6319 -1.18533,2.20001c-0.63516,0.74533 -1.11403,1.44254 -1.47333,2.19998c-0.41051,0.86539 -1.12056,1.39551 -1.716,2c-0.68445,0.69485 -0.98448,1.57602 -1.42149,2.29984c-0.4368,0.72348 -1.47083,0.8743 -2.07851,1.61002c-0.4817,0.58319 -1.01602,1.3392 -1.41466,2.17416c-0.34659,0.72595 -0.34665,1.7265 -0.99518,2.35883c-0.56244,0.5484 -1.46803,1.15845 -2.29016,1.59052c-0.71353,0.375 -1.49927,0.71927 -2.17467,1.35199c-0.67432,0.63171 -1.28513,1.30496 -2.02533,1.73199c-0.78105,0.45059 -1.14156,1.24146 -1.90001,1.83984c-0.60606,0.47815 -1.42856,0.77658 -2.06667,1.40948c-0.65604,0.65067 -1.13002,1.1763 -1.7235,2.07169c-0.46767,0.7056 -1.11401,1.25714 -1.7205,1.823c-0.68962,0.6434 -1.15257,1.25867 -1.33217,2.18149c-0.18318,0.94122 0.09224,1.90558 -0.22783,2.64252c-0.37402,0.86121 -1.13228,1.24606 -1.58633,2.31448c-0.31482,0.74078 -0.243,1.63351 -0.243,2.42551c0,1.02734 0,1.72198 0,2.73868c0,0.93597 0,1.836 0,2.73599c0,0.89999 0,1.69998 0,2.60001c0,0.89999 0,1.79999 0,2.69998c0,0.90451 -0.05266,1.76956 0.02083,2.62085c0.08514,0.9863 0.43259,1.7695 0.62651,2.37915c0.31339,0.9852 0.20235,1.95688 0.36166,2.84735c0.17169,0.95959 0.86514,1.57785 1.34283,2.15717c0.6441,0.78113 1.09848,1.34549 1.48149,2.42883c0.25999,0.73538 0.68845,1.51291 1.04533,2.26666c0.40437,0.85406 0.7838,1.50232 1.32001,2.384c0.40599,0.66754 0.67128,1.63611 0.80133,2.51599c0.12425,0.84073 0.78427,1.23981 1.00034,2.10001c0.23378,0.93069 0.96948,1.21786 1.43167,1.87067c0.65149,0.92017 0.25858,1.88297 0.78949,2.66501c0.5293,0.77966 1.38116,0.97229 2.07851,1.66431c0.70268,0.69733 1.30585,1.27988 1.67467,2.10001c0.35149,0.78159 1.14645,1.21359 1.73999,1.68402c0.73866,0.58545 1.24361,1.14993 1.98534,1.56332c0.76369,0.42563 1.5033,0.89587 2.40001,1.23117c0.85063,0.31808 1.49057,0.50598 2.18666,1.03748c0.72725,0.5553 1.51328,0.57874 2.54666,0.91736c0.74123,0.24289 1.52592,0.70654 2.33334,1c0.77953,0.28333 1.57198,0.6994 2.28,1.14133c0.77098,0.4812 1.58263,0.49847 2.38666,1.02533c0.67264,0.44077 1.47522,0.86444 2.36667,1.00134c0.91597,0.14066 1.53098,0.74408 2.284,1.19733c0.66943,0.40292 1.64549,0.66449 2.40001,0.88535c0.97411,0.28516 1.71745,0.71707 2.51599,1.116c0.80013,0.39975 1.593,0.81451 2.38934,1.18933c0.71925,0.33853 1.73882,0.57822 2.54399,0.77731c0.93806,0.23193 1.46211,0.41782 2.5,0.83334c0.94043,0.3765 1.55939,0.70563 2.56534,1.19867c0.57892,0.28372 1.58298,0.66705 2.41116,0.854c0.96434,0.21768 1.73253,0.46606 2.29916,0.65182c1.19246,0.3909 1.78532,0.61081 2.69101,0.8595c0.59654,0.16379 1.7988,0.37061 2.7,0.41516c0.59949,0.02963 1.79965,0.02084 2.67868,0.02084c0.80698,0 1.87143,-0.08578 2.68381,0.11432c0.93192,0.22955 1.5015,0.59802 2.17917,0.88568c0.71161,0.30206 2.1315,0.78723 2.79669,0.88568c0.90979,0.13464 1.47537,0.08658 2.70898,0.1188c0.6785,0.01773 1.87512,0.2131 2.40982,0.34818c0.85504,0.216 2.04132,0.49271 2.64017,0.56332c0.85916,0.10132 2.07343,0.24017 2.75201,0.50934c0.9902,0.39276 1.66412,0.53708 2.47198,0.564c1.17807,0.03925 1.776,0.01068 2.63702,0.01068c0.771,0 1.89099,0 2.875,0c0.681,0 1.48798,0 2.66666,0c0.89551,0 1.47916,0 2.31467,0c1.23267,0 1.91068,0 3.10699,0c0.54001,0 1.42502,0 2.745,0c0.71735,0 1.45868,0 2.20801,0c0.74133,0 2.13867,0 2.77866,0c0.88501,0 1.92535,0 2.62134,0c0.90933,0 1.90933,0 2.72534,0c0.81601,0 1.81332,0 2.65332,0c0.96402,0 1.81601,0 2.85651,0c0.77551,0 1.82352,0 2.53751,0c0.90533,0 1.87399,0 2.67801,0c0.82199,0 1.85471,0.03619 2.75381,-0.02084c0.62161,-0.03943 1.62576,-0.3353 2.478,-0.68365c0.96466,-0.39432 1.49722,-0.59085 2.3175,-0.89551c1.06091,-0.39401 1.74854,-0.74835 2.62085,-1.04282c0.98596,-0.33282 1.80447,-0.35184 2.80432,-0.35718c0.77933,-0.00415 1.79681,0.09869 2.46152,-0.07199c0.92606,-0.23779 1.57932,-0.79593 2.33331,-1.22269c0.85165,-0.48203 1.75348,-0.70081 2.66251,-0.70532c0.74734,-0.00369 1.78159,0.21667 2.62851,-0.05716c0.82703,-0.2674 1.36423,-1.07553 2.00098,-1.33218c0.92844,-0.37424 1.90054,-0.53271 2.81351,-0.61081c0.78693,-0.06729 1.73856,-0.43015 2.30435,-0.70435c0.99908,-0.48416 1.7587,-0.86157 2.57382,-1.17416c0.89963,-0.34497 1.46863,-0.98462 2.08417,-1.14218c1.11169,-0.28458 1.88791,-0.68048 2.41666,-0.97916c0.75473,-0.42633 1.79269,-0.71167 2.62067,-1.2215c0.71964,-0.44312 0.74713,-1.50098 1.33618,-2.16785c0.61432,-0.69547 1.77792,-0.72849 2.20682,-1.31516c0.55521,-0.75946 1.0459,-1.3942 1.44119,-2.09683c0.45959,-0.81696 0.81415,-1.63257 1.19998,-2.39999c0.3634,-0.72281 0.69681,-1.63409 0.71466,-2.39999c0.02316,-0.9939 0.00134,-1.74152 0.00134,-2.7627c0,-0.93597 0,-1.836 0,-2.73599c0,-0.89999 0,-1.65717 0,-2.55267c0,-0.86331 -0.00229,-1.82648 0,-2.74731c0.00226,-0.90451 0.16324,-1.76801 0.42532,-2.42535c0.40277,-1.0101 0.56934,-1.79993 0.57468,-2.65997c0.00571,-0.91916 0,-1.91467 0,-2.71469c0,-1 0,-1.79999 0,-2.79999c0,-0.79999 0,-1.60001 0,-2.60001c0,-0.79999 0,-1.79868 0,-2.564c0,-0.952 0,-1.72 0,-2.672c0,-0.76532 0.01422,-1.75961 0,-2.50684c-0.01602,-0.84161 -0.24878,-1.57864 -0.5,-2.21967c-0.35385,-0.90289 -0.86581,-2.10834 -1.548,-3.67349c-1.93448,-4.43835 -3.26181,-7.37442 -4.76932,-10.73199c-1.64862,-3.67184 -3.39926,-7.55029 -5.20352,-11.53201c-1.80508,-3.98361 -3.56754,-7.86353 -5.2485,-11.53201c-2.8891,-6.30511 -4.02957,-8.75293 -4.96799,-10.72931c-0.74261,-1.564 -1.32327,-2.76193 -1.78351,-3.63452c-0.32584,-0.61777 -0.54691,-1.03696 -0.7485,-1.24948c-0.2048,-0.21588 -0.32962,-0.23572 -0.42932,-0.27066c-0.09604,-0.03366 -0.19086,-0.05801 -0.28049,-0.08401c-0.08502,-0.02469 -0.16708,-0.04578 -0.2355,-0.08401c-0.12622,-0.07059 -0.16748,-0.13538 -0.20132,-0.19998c-0.03503,-0.06686 -0.05869,-0.14133 -0.08401,-0.216c-0.02533,-0.07468 -0.04645,-0.15054 -0.08401,-0.216c-0.07141,-0.12448 -0.13538,-0.16614 -0.19998,-0.19998c-0.06686,-0.03503 -0.14133,-0.05869 -0.216,-0.08401c-0.07468,-0.02533 -0.15054,-0.04645 -0.216,-0.08401c-0.12448,-0.07141 -0.16614,-0.13538 -0.19998,-0.19998c-0.03503,-0.06686 -0.05869,-0.14133 -0.08401,-0.216c-0.02533,-0.07468 -0.04645,-0.15054 -0.08401,-0.216c-0.07141,-0.12448 -0.13538,-0.16614 -0.19998,-0.19998c-0.06686,-0.03503 -0.14133,-0.05869 -0.216,-0.08401c-0.07468,-0.02533 -0.15054,-0.04645 -0.216,-0.08401c-0.12448,-0.07141 -0.16589,-0.13574 -0.20132,-0.20132c-0.03787,-0.07013 -0.51498,-0.83032 -1.10352,-1.21466c-0.7988,-0.52164 -1.54898,-1.10501 -2.37915,-1.47467c-0.78357,-0.34891 -1.58633,-0.93744 -2.30002,-1.02084c-0.89392,-0.10446 -1.82083,0.0213 -2.60449,-0.35715c-0.88889,-0.42926 -1.69534,-0.6369 -2.67398,-0.64734c-0.71698,-0.00763 -1.40863,-0.31451 -2.18817,-0.83334c-0.70746,-0.47089 -1.61731,-0.28119 -2.35419,-0.66666c-0.78452,-0.4104 -1.67184,-0.44034 -2.45831,-1c-0.647,-0.46042 -1.01859,-1.26166 -1.02084,-2.15268c-0.00217,-0.86331 0,-1.72198 0,-2.66864c0,-0.85333 0,-1.79333 0,-2.67868c0,-0.79999 0,-1.75717 0,-2.65717c0,-0.74734 0,-1.74152 0,-2.50684c0,-1.08334 0,-2.00266 0,-2.672c0,-1.164 0,-1.95334 0,-2.67868c0,-0.96448 0,-1.88531 0,-2.78983c0,-0.86215 0,-1.6955 0,-2.67432c0,-0.83102 0,-1.78918 0,-2.52118c0,-1.16666 0,-1.83865 0,-2.82132c0,-0.85333 0.03842,-1.80136 -0.05716,-2.54568c-0.11618,-0.90463 -0.37201,-1.81882 -0.51752,-2.49298c-0.14517,-0.67252 -0.22003,-1.89597 -0.48666,-2.78268c-0.26453,-0.87979 -1.2981,-1.27368 -1.76801,-2.05865c-0.36179,-0.60434 -0.17065,-1.63467 -0.17065,-2.39999c0,-0.99417 0,-1.91336 0,-2.87784c0,-0.92084 0.11667,-1.86401 -0.22134,-2.621c-0.31924,-0.715 -0.74512,-1.55573 -0.77417,-2.30435c-0.03857,-0.99475 0.04547,-1.84961 -0.44714,-2.79532c-0.33121,-0.63583 -1.12094,-1.25058 -1.496,-2.18552c-0.36304,-0.90494 -0.39154,-1.62973 -0.672,-2.36398c-0.35559,-0.93094 -0.9837,-1.6843 -1.26801,-2.57199c-0.21027,-0.65659 -0.28085,-1.70305 -0.82584,-2.37418c-0.61935,-0.76271 -1.14563,-1.4088 -1.2955,-2.3045c-0.14023,-0.83818 -0.86484,-1.29144 -1.00134,-2.2c-0.12137,-0.80785 -0.70203,-1.50113 -1.29865,-2.10001c-0.6987,-0.70132 -1.36649,-1.3004 -1.616,-2.18399c-0.19003,-0.67296 -0.28616,-1.71526 -0.97067,-2.31467c-0.69247,-0.60638 -1.39832,-0.78314 -2.09183,-1.74384c-0.46646,-0.64618 -0.58865,-1.49588 -1.31702,-2.2905c-0.56519,-0.61659 -0.8974,-1.47882 -1.50583,-1.88167c-0.82144,-0.54388 -1.37503,-0.98158 -2.19867,-1.28534c-0.89835,-0.3313 -1.47559,-0.8947 -2.29999,-1.35266c-0.74231,-0.41235 -1.47952,-0.76639 -2.30002,-1.222c-0.78195,-0.43422 -1.58267,-0.73637 -2.28534,-1.22667c-0.7485,-0.52226 -1.43045,-0.96117 -2.35748,-1.14151c-0.94131,-0.18312 -1.80801,-0.358 -2.45718,-0.7045c-0.84937,-0.45335 -1.79999,-0.35266 -2.69998,-0.35266l-0.89999,-0.0045" id="svg_5" stroke-width="2" stroke="#000" fill="none"/>
  <path t="17609,17707,17714,17723,17730,17737,17745,17745,17761,17761,17769,17769,17785,17801,17801,17809,17825,17825,17825,17833,17833,17841,17874,17891,17898,17914,17914,17929,17945,17945,17961,17961,17969,17969,17985,17994,17994,18017,18041,18041,18057,18057,18081,18081,18113,18147,18147,18169,18169,18201,18227,18227,18242,18242,18258,18282,18283,18314,18314,18322,18330,18346,18354,18354,18369,18369,18386,18386,18401,18426,18426,18441,18473,18481,18497,18506,18513,18521,18538,18561,18612,18612,18614,18633,18633,18649,18649,18665,18689,18689,18697,18722,18737,18753,18753,18777,18835,18857,18947,18986,19026,19026,19034,19058,19066,19074,19090,19090,19106,19106,19114,19114,19130,19130,19147,19147,19170,19186,19194,19194,19210,19218,19218,19226,19227,19234,19242,19258,19258,19266,19266,19282,19282,19298,19298,19322,19346,19347,19370,19370,19378,19386,19397,19402,19402,19410,19426,19427,19427,19442,19443,19458,19458,19489,19505,19521,19537,19545,19554,19577,19707,19715,19715" d="m233,351c-1.7,0 -2.60001,0 -3.5,0c-0.89999,0 -1.8045,0 -2.82133,0c-0.67867,0 -1.65733,0 -2.56267,0c-0.94133,0 -1.632,0 -2.616,0c-0.98399,0 -1.67894,-0.09128 -2.74733,0.00449c-0.92981,0.08334 -1.59262,0.42337 -2.354,0.79684c-0.99495,0.48804 -1.71983,0.86465 -2.28883,1.49417c-0.58426,0.64639 -1.36105,1.13739 -2.10983,1.53784c-0.79144,0.42328 -0.99933,1.05331 -1,1.992c-0.00072,1.008 0.00041,1.8461 -0.56799,2.65866c-0.38574,0.55142 -1.24246,1.30496 -1.41068,2.10532c-0.19164,0.91183 -0.02133,1.73199 -0.02133,2.58533c0,0.94135 0,1.992 0,2.6507c0,1.008 0,1.79999 0,2.82733c0,0.69464 0,1.72198 0,2.66864c0,0.85333 0,1.79468 0,2.56268c0,0.94135 0,1.94934 0,2.74133c0,0.85867 0,1.72198 0,2.62201c0,0.91931 0,1.75266 0,2.73114c0,0.82019 -0.33372,1.8038 0.036,2.58551c0.35042,0.74088 0.86026,1.33643 1.13333,2.03867c0.40892,1.05157 1.09219,1.48859 1.58784,2.37582c0.43036,0.77036 0.78461,1.50183 1.4415,2.22153c0.53348,0.5845 0.67805,1.63776 1.32216,2.27914c0.6425,0.63977 1.77982,0.3403 2.39517,0.80484c0.68321,0.51578 1.384,0.71594 2.284,0.716c0.90001,0.00009 1.83189,0.12653 2.40001,0.61066c0.74536,0.63519 1.40468,1.20709 2.15717,1.44202c0.90149,0.28143 1.59741,0.57294 2.60683,0.922c0.84244,0.29132 1.46414,0.67401 2.336,1.078c0.83163,0.38535 1.64706,0.78375 2.40001,1.16867c0.76318,0.39017 1.59998,0.7764 2.5,0.77866c0.89999,0.00223 1.80815,0.11652 2.7,-0.00449c0.82135,-0.11142 1.64563,-0.46713 2.34283,-1.04819c0.59149,-0.49292 0.87921,-1.42447 1.65717,-1.89917c0.80127,-0.48892 1.16322,-1.0928 1.7,-1.8815c0.46887,-0.6889 1.09735,-1.48956 1.5,-2.16666c0.49672,-0.8353 1.02174,-1.45871 1.69867,-2.20001c0.5336,-0.58435 0.79851,-1.5 0.80133,-2.32083c0.00331,-0.96317 -0.05086,-1.86969 0.35266,-2.72198c0.38377,-0.81061 0.64508,-1.51434 0.64734,-2.40985c0.00217,-0.86331 0,-1.82648 0,-2.65182c0,-1.017 0,-1.71634 0,-2.6955c0,-0.78934 0,-1.83334 0,-2.62534c0,-1.02734 0,-1.72198 0,-2.74933c0,-0.94666 0.05051,-1.62665 -0.00017,-2.60382c-0.04271,-0.82349 -0.47562,-1.67999 -0.9745,-2.41086c-0.50789,-0.74405 -0.88408,-1.34061 -1.10933,-2.12799c-0.2549,-0.89105 -0.93524,-1.63818 -1.31599,-2.31866c-0.42166,-0.7536 -0.87851,-1.77136 -1.20001,-2.328c-0.5619,-0.97284 -1.19612,-1.48688 -1.38933,-2.436c-0.17548,-0.86203 -0.50359,-1.58563 -1.09467,-2.116c-0.60007,-0.53842 -1.51601,-0.85867 -2.31599,-1.24799l-0.90001,-0.0405l-0.89999,-0.28085l-0.60001,-0.51599" id="svg_6" stroke-width="2" stroke="#000" fill="none"/>
  <path t="21267,21395,21395,21418,21434,21434,21450,21482,21514,21530,21530,21562,21603,21603,21603,21611,21611,21619,21635,21642,21650,21650,21658,21674,21674,21682,21682,21690,21706,21706,21722,21730,21738,21746,21754,21770,21786,21795,21795,21802,21826,21842,21842,21850,21874,21890,21890,21898,21898,21906,21922,21938,21938,21946,21946,21963,21963,21978,21978,21986,21986,22002,22034,22034,22042,22066,22074,22090,22122,22122,22130,22146,22178,22195,22219,22243,22259,22259,22267,22267,22282,22282,22306,22314,22338,22370,22370,22386,22386,22394,22394,22402,22426,22442,22458,22474,22498,22498,22506,22506,22522,22530,22538,22546,22554,22554,22570,22570,22586,22586,22594,22602,22626,22626,22670,22672,22672,22682,22690,22698,22698,22706,22714,22730,22738,22747,22754,22754,22770,22778,22786,22802,22810,22810,22842,22842,22987,23012,23019,23027,23035,23035,23043,23050,23074,23074,23235,23236" d="m269,272c-1,-1 -1.85043,-0.98685 -2.5,-0.47916c-0.76846,0.60062 -1.24536,1.34048 -1.89999,1.8685c-0.74496,0.60086 -1.70129,0.56287 -2.60001,0.61066c-0.80338,0.04272 -1.52597,0.53638 -2.16666,1.16666c-0.66406,0.65329 -1.19992,1.1619 -1.94669,1.948c-0.53925,0.56766 -1.05017,1.30438 -1.60266,1.96936c-0.48355,0.582 -0.60023,1.59067 -0.98849,2.26331c-0.53639,0.92926 -1.11325,1.65738 -1.34818,2.40985c-0.28145,0.90152 -0.60088,1.5881 -0.89465,2.48566c-0.27994,0.85526 -0.9045,1.52579 -1.04817,2.45718c-0.13721,0.8895 -0.0045,1.79999 -0.0045,2.69998c0,0.89999 0,1.80002 0,2.70001c0,0.89999 0,1.69998 0,2.60001c0,0.82083 0,1.784 0,2.47464c0,1.06818 -0.14171,2.06891 0.16667,2.82535c0.28525,0.69971 0.49208,1.56689 0.91733,2.43066c0.36919,0.74991 0.88612,1.36407 1.27766,2.22202c0.33279,0.72922 1.15205,1.42624 1.61751,1.84732c0.83894,0.75897 0.82646,1.56024 1.24251,2.47849c0.3071,0.67783 1.29657,1.16827 1.91699,1.62152c0.73956,0.54028 0.96872,1.62857 1.56583,2.04282c0.78894,0.5473 1.83023,0.30429 2.59549,0.70984c0.84592,0.4483 1.70001,0.64734 2.5,0.64734c0.90002,0 1.80002,0 2.70001,0c0.89999,0 1.80472,0.09088 2.70001,-0.00134c0.81259,-0.08368 1.41241,-0.64474 2.284,-1.19867c0.67358,-0.4281 1.51892,-0.87155 2.10532,-1.39999c0.73862,-0.66565 0.94269,-1.59869 1.57733,-2.23334c0.63464,-0.63464 1.49081,-0.77509 2.03201,-1.65067c0.4108,-0.66461 0.59698,-1.67206 0.88535,-2.31467c0.38034,-0.8476 1.62949,-1.06561 1.9053,-1.81198c0.30832,-0.83426 -0.05176,-1.8201 0.23203,-2.71066c0.22275,-0.69904 0.67322,-1.50275 0.77417,-2.37418c0.10419,-0.89941 0.62259,-1.61484 0.91916,-2.50452c0.28586,-0.85764 0.08533,-1.79999 0.08533,-2.55716c0,-0.89999 0,-1.64734 0,-2.64151c0,-0.94415 0,-1.84415 0,-2.80133c0,-0.90015 0,-1.68533 0,-2.62534c0,-1.008 0.1673,-1.78339 -0.02084,-2.67465c-0.17886,-0.84741 -0.74954,-1.64139 -1.06317,-2.29999c-0.39896,-0.8378 -1.42288,-1.06659 -1.91599,-1.72086c-0.5878,-0.77994 -0.72336,-1.64465 -1.16666,-2.47916c-0.33673,-0.63391 -1.44852,-0.94547 -1.78067,-1.70532c-0.39496,-0.90347 -0.78214,-1.51083 -1.21933,-2.29468c-0.36359,-0.65189 -1.12958,-1.30377 -1.63333,-1.79999c-0.69485,-0.68445 -1.49863,-1.17142 -2.40002,-1.20001c-0.89954,-0.02853 -1.79999,0 -2.59998,0c-0.90002,0 -1.836,0 -2.68533,0l-0.91919,0l-0.99417,0l-0.76532,0" id="svg_7" stroke-width="2" stroke="#000" fill="none"/>
  <path t="25299,25754,25762,25802,25834,25882,25882,25890,25890,25922,25978,25986,26074,26074,26162,26186,26210,26226,26274,26274,26330,26362,26393,26434,26458,26521,26530" d="m254,75c-1.7,0 -2.47401,0.2032 -3.16667,0.83334c-0.59973,0.5456 -0.74049,1.28259 -0.91866,2.05199c-0.22551,0.97384 -0.74989,1.60579 -0.89384,2.59383c-0.13278,0.91145 0.11084,1.8709 -0.24216,2.62083c-0.36504,0.77554 -0.78288,1.7411 0.02266,1.89867c0.88365,0.17285 1.68948,-0.52917 2.29868,-1.0985c0.59123,-0.55253 1.49158,-0.90647 1.95267,-1.60467c0.49879,-0.75529 1.24283,-1.24284 1.922,-1.72083l0.52533,-0.57467l0.52533,-0.61066" id="svg_8" stroke-width="2" stroke="#000" fill="none"/>
  <path t="27001,27217,27225,27329,27329,27515,27515" d="m254,77c1.5,-1.47916 2.3045,-1.94733 3.16666,-2.16666l0.83334,-0.33334l0.83334,-0.33334l0.86215,-0.16216" id="svg_9" stroke-width="2" stroke="#000" fill="none"/>
  <path t="28187,28826,28834,28834,28858,28866,29098,29114,29139,29155,29162,29187,29210,29210,29226,29386,29434,29442,29450,29506,29514,29530,29618,29626,29626,29642" d="m304,73c1.82535,0 2.95078,0.36537 3.63834,-0.05717c0.73901,-0.45415 0.90472,-1.6861 1.76166,-1.90683c0.86774,-0.22351 1.582,0.39943 1.60001,1.264c0.01874,0.8998 0,1.8 0,2.7c0,0.8 0.01068,1.70006 0,2.6c-0.01044,0.87935 -0.6106,1.39467 -1.5,1.4c-0.89996,0.00539 -1.79999,0 -2.70001,0c-0.89999,0 -1.79999,0 -2.59998,0l-0.90002,0" id="svg_10" stroke-width="2" stroke="#000" fill="none"/>
  <path t="30539,30833,30849,30849,30865,30897,30905,30970,30970,31002,31154,31154,31201,31265,31338,31354,31354,31369,31434,31442,31506,31570,31570,31586,31586,31619,31658,31690" d="m257,87c-1.82533,0 -2.86621,-0.18552 -3.6955,0.05717c-0.88136,0.25793 -1.50914,0.8179 -2.40451,0.943c-0.90646,0.12666 -1.50266,0.60782 -2.2,1.29984c-0.70268,0.6973 -1.36137,1.16304 -2.08932,1.67467c-0.63359,0.4453 0.03664,0.99181 0.87199,1.02666c0.80872,0.03374 1.36147,0.72956 1.95334,1.388c0.61983,0.68954 1.664,0.61066 2.564,0.61066c0.75717,0 1.65266,0 2.51601,0l0.96317,-0.02084l0.82082,-0.33183l0.79984,-0.526" id="svg_11" stroke-width="2" stroke="#000" fill="none"/>
  <path t="32578,32809,32825,32825,32850,32899,32906,33034,33114,33121,33162,33186,33211,33211,33217,33250,33266,33306,33378,33402,33410,33410,33418,33435,33435,33474,33474,33498,33506,33506,33538" d="m259,96c-1.2215,0.87867 -2.05957,1.28496 -2.70001,1.64733c-0.82077,0.46441 -1.35771,0.99146 -2.10132,1.43667c-0.80423,0.4815 -1.85175,0.70207 -2.17784,1.43684c-0.35666,0.80363 0.43211,1.58637 0.8125,2.47916c0.32021,0.75154 0.20137,1.71228 0.59201,2.4c0.46318,0.81541 0.17952,1.98341 0.86,2.51466c0.724,0.56522 1.75006,-0.03815 2.41467,-0.61916c0.63641,-0.55638 1.41284,-1.21104 1.86398,-1.9315c0.48727,-0.77818 0.46133,-1.53867 0.72134,-2.47733l0.71466,-0.72l0.71466,-0.25066l0.36935,-0.71733" id="svg_12" stroke-width="2" stroke="#000" fill="none"/>
  <path t="34678,34842,34851,34930,34938,35074,35114,35138,35146,35153,35162,35178,35194,35194,35201,35201,35218,35234,35241,35282,35514,35554,35578,35602,35602,35626,35626,35762,35762,35898,35898,35946" d="m299,80c1.79999,0 2.70001,0 3.60001,0c0.89999,0 1.82825,-0.21873 2.6955,0.0045c0.7139,0.18376 0.50961,1.31718 0.70584,2.19417c0.18057,0.80704 0.92358,1.26357 1.22,2.12267c0.23929,0.69353 0.71646,1.65065 0.77731,2.47733c0.06616,0.8989 0.00134,1.80133 0.00134,2.70133c0,0.9 0.2547,2.06898 -0.436,2.464c-0.75455,0.43154 -1.73065,0.03607 -2.564,0.036c-0.97867,-0.00008 -1.7619,-0.03026 -2.65717,-0.35267c-0.75583,-0.27219 -1.74152,-0.562 -2.50684,-0.63667l-0.95065,-0.01067" id="svg_13" stroke-width="2" stroke="#000" fill="none"/>
  <path t="36323,36545,36545,36561,36569,36593,36609,36665,36697,36697,36713,36729,36729,36761,36793,36793,36817,37146,37177,37193,37193,37201,37217,37225,37265,37265,37265,37289,37306,37306" d="m294,93c1,1 1.79999,1 2.70001,1c0.89999,0 1.81314,-0.14297 2.69998,0.01067c0.83218,0.14417 1.51492,0.97674 1.59866,1.78934c0.08569,0.8316 0.00134,1.85266 0.00134,2.54733c0,1.02733 0,1.974 0,2.65266c0,0.9785 0.43427,2.23241 -0.16666,2.83334c-0.60092,0.60094 -1.63351,0.18465 -2.53336,0.16666c-0.90054,-0.01801 -1.68466,-0.47262 -2.46664,-1c-0.63892,-0.4309 -1.34933,-0.8 -2.19736,-1.4l-0.63599,-0.6l-0.60001,-0.6" id="svg_14" stroke-width="2" stroke="#000" fill="none"/>
  <path t="40300,40435,40435,40442,40458,40459,40474,40490,40506,40515,40515,40530,40530,40538,40546,40567,40569,40586,40610,40626,40626,40634,40650,40667,40698,40755,40771,40771,40786,40786,40810,40818,40844,40850,40866,40890,40898,40906,40906,40922,40930,40938,40954,40954,40962,40962,40978,40978,40994,40994,41010,41026,41026,41042,41050,41050,41066,41066,41074,41074,41082,41090,41098,41106,41122,41122,41130,41138,41154,41178,41178,41194,41202,41226,41226,41234,41242,41258,41266,41274,41314,41330,41346,41346,41386,41409,41434,41434,41449,41465,41513,41513,41530,41530,41554,41570,41578,41593,41609,41618,41625,41625,41641,41649,41657,41673,41689,41705,41714,41721,41721,41745,41753,41769,41794,41810,41826,41841,41850,41850,41865,41881,41898,41905,41930,41938,41947,41962,41962,41970,41978,41994,42003,42003,42019,42026,42026,42034,42034,42042,42050,42050,42057,42066,42082,42098,42098,42114,42171,42195,42205,42234,42242,42258,42274,42274,42282,42289,42305,42314,42321,42330,42337,42346,42346,42353,42362,42370,42378,42386,42394,42410,42410,42410,42435,42435,42437,42442,42442,42442,42450,42450,42458,42458,42466,42474,42482,42482,42490,42498,42498,42514,42514,42530,42530,42554,42570,42570,42586,42586,42594,42594,42602,42610,42610,42617,42618,42634,42634,42642,42642,42658,42666,42674,42698,42698,42714,42714,42721,42729,42737,42745,42762,42786,42786,42810,42810,42834,42834,42852,42875,42875,42890,42891,42914,42914,42938,42962,42962,42986,43002,43002,43018,43018,43041,43041,43073,43097,43097,43106,43122,43122,43129,43129,43145,43145,43153,43169,43169,43177,43177,43185,43185,43193,43202,43202,43209,43209,43225,43257,43257,43298,43299,43324,43348,43349,43355,43363,43387,43394,43404,43427,43427,43451,43467,43490,43498,43506,43522,43522,43530,43538,43554,43562,43570,43578,43594,43594,43603,43603,43610,43610,43617,43626,43642,43650,43658,43666,43682,43698,43698,43714,43722,43722,43754,43762,43770,43770,43778,43794,43803,43810,43834,43842,43850,43874,43874,43882,43882,43898,43906,43922,43938,43954,43978,43978,44027,44051,44107,44251,44259,44267,44298,44330,44330" d="m272,77c1,1 1,1.8 1,2.636c0,1.01666 0,1.71133 0,2.728c0,0.936 0,1.83733 0,2.80267c0,0.65867 0,1.66667 0,2.52884c0,0.9045 0,1.8045 0,2.7045c0,0.9 0,1.8 0,2.7c0,0.9 0,1.7 0,2.6c0,0.9 0,1.8 0,2.7c0,0.9045 0,1.76666 0,2.6c0,0.9785 0,1.79867 0,2.7c0,0.9 0,1.8 0,2.7c0,0.9 0,1.8 0,2.7c0,0.9 0,1.7 0,2.6c0,0.9 0,1.82084 0,2.62151c0,0.88917 0,1.87833 0,2.65766c0,0.9995 0,1.77351 0,2.6735c0,0.86333 0,1.84734 0,2.66867c0,0.85333 0,1.79466 0,2.84533c0,0.65867 0,1.66667 0,2.45867c0,1.02733 0,1.722 0,2.73866c0,0.936 0,1.836 0,2.73601c0,0.89999 0,1.7 0,2.59999c0,0.90001 0,1.82083 0,2.62134c0,0.85333 0,1.79333 0,2.77867c0,0.89999 0,1.7 0,2.59999c0,0.90001 0,1.8 0,2.7c0,0.90001 0,1.8 0,2.70001c0,0.89999 0,1.7 0,2.59999c0,0.82083 0,1.784 0,2.64734c0,0.89549 0,1.85266 0,2.75284c0,0.78516 0,1.72516 0,2.41583c0,1.07333 0,1.98399 0,2.88399c0,0.90001 0,1.8 0,2.70001c0,0.89999 0,1.7 0,2.59999c0,0.90001 0,1.8 0,2.7c0,0.90001 0,1.8 0,2.70001c0,0.89999 0,1.7 0,2.59999c0,0.90001 0,1.8 0,2.7c0,0.90001 0,1.8 0,2.70001c0,0.89999 0,1.7 0,2.59999c0,0.90001 0,1.8 0,2.7c0,0.90001 0,1.8 0,2.70001c0,0.89999 0,1.7 0,2.59999c0,0.90001 0,1.82083 0,2.62134c0,0.85333 0,1.79466 0,2.84534c0,0.65866 0,1.66666 0,2.52882c0,0.82533 0,1.7885 0,2.65184c0,0.89549 0,1.85266 0,2.75267c0,0.89999 0,1.7 0,2.59999c0,0.90001 0,1.8 0,2.7c0,0.90001 0,1.8 0,2.70001c0,0.89999 0,1.7 0,2.59999c0,0.90001 0,1.8 0,2.7c0,0.90001 0,1.8 0,2.70001c0,0.89999 0,1.7 0,2.59999c0,0.90001 0,1.8 0,2.7c0,0.90001 0,1.80135 0,2.76668c0,0.66933 0,1.43466 0,2.42883c0,0.91916 0,1.92532 0,2.73782c0,0.91734 0,1.66133 0,2.69734c0,0.85199 0,1.79466 0,2.48534c0,1.07333 0,2.00482 0,2.80533c0,0.85333 0,1.79466 0,2.84534c0,0.65866 0.00174,1.66666 0,2.45866c-0.00226,1.02733 0.01578,1.74933 -0.35266,2.62199c-0.40353,0.95573 -0.6369,1.75247 -0.64734,2.586c-0.01151,0.91927 0,1.81934 0,2.51401c0,1.02733 0.09201,1.98289 -0.03601,2.82732c-0.14597,0.9628 -0.71591,1.54816 -1.16266,2.31067c-0.41055,0.70074 -0.60367,1.73059 -0.80133,2.47302c-0.25632,0.9628 -0.85495,1.48975 -1.00449,2.34164c-0.16315,0.92947 -0.79825,1.56488 -0.93835,2.35269c-0.15146,0.85175 0.00134,1.86319 -0.40982,2.64731c-0.44455,0.84781 -1.15863,1.30829 -1.59018,2.06168c-0.47784,0.8342 -0.05716,1.63834 -0.05716,2.617c0,0.77399 0.00916,1.67407 0,2.53732c-0.01044,0.98416 -0.30197,1.96072 -0.57468,2.65866c-0.36426,0.93222 -0.42465,1.70935 -0.42532,2.6507c-0.00049,0.69064 0,1.79999 0,2.65866c0,0.86331 0,1.76334 0,2.68265c0,0.83334 0,1.81201 0,2.586c0,0.90002 0,1.76334 0,2.74734c0,0.82132 0,1.67465 0,2.616c0,1.05066 0,1.70935 0,2.71735c0,0.79199 0,1.81934 0,2.51398c0,1.02734 0,1.97418 0,2.67352c0,0.97916 0,1.76849 0,2.8125c0,0.86215 0.04498,1.73712 -0.44266,2.48798c-0.4783,0.73651 -1.35104,1.4686 -1.51569,2.15784c-0.21661,0.90695 -0.04166,1.84216 -0.04166,2.6955c0,0.94135 0,1.70935 0,2.6507c0,1.008 0,1.76398 0,2.67465c0,0.89999 0,1.79999 0,2.70001c0,0.89999 0,1.79999 0,2.59998c0,0.90002 0.16519,1.81921 -0.02084,2.70001c-0.17899,0.84738 -0.91827,1.59387 -0.97916,2.5c-0.05362,0.79819 0,1.70001 0,2.60001c0,0.89999 0,1.79999 0,2.69998c0,0.90134 0,1.86667 0,2.52536c0,1.008 0,1.92731 0,2.82733c0,0.69464 0,1.71133 0,2.64731c0,0.90002 0.08868,1.80441 0,2.70001c-0.08374,0.8457 -0.95728,1.28238 -1,2.20132c-0.03177,0.68329 0.03571,1.62466 0,2.63202c-0.02859,0.80652 -0.83652,1.30774 -0.97916,2.1875c-0.15332,0.94553 -0.02084,1.77783 -0.02084,2.67917c0,0.89999 0,1.79999 0,2.69998c0,0.89999 0,1.80002 0,2.70001c0,0.89999 0,1.65717 0,2.55267c0,0.86331 0,1.82648 0,2.74731c0,0.89999 0,1.80002 0,2.70001c0,0.89999 0,1.69998 0,2.60001c0,0.89999 0,1.79999 0,2.69998c0,0.89999 0,1.80002 0,2.70001l0,0.89999l0,0.79999" id="svg_15" stroke-width="2" stroke="#000" fill="none"/>
  <path t="45515,45562,45618,45643,45650,45667,45674,45682,45682,45691,45691,45699,45707,45714,45723,45730,45746,45756,45762,45762,45778,45778,45789,45794,45810,45826,45835,45858,45859,45882,45898,45922,45930,45930,45945,45954,45962,45962,45971,45971,45987,46002,46002,46018,46026,46034,46034,46049,46066,46073,46105,46113,46121,46145,46153,46153,46177,46178,46193,46202,46218,46218,46234,46241,46249,46266,46282,46298,46314,46330,46337,46369,46369,46377,46377,46386,46402,46418,46469,46469,46469,46473,46481,46498,46514,46529,46553,46553,46570,46570,46586,46635,46636,46649,46649,46665,46665,46673,46697,46705,46721,46721,46745,46745,46769,46769,46793,46793,46817,46833,46833,46865,46865,46897,46929,46929,46945,46945,46969,46993,46993,47017,47017,47033,47033,47041,47049,47057,47065,47082,47082,47089,47089,47097,47121,47129,47129,47146,47161,47171,47171,47178,47178,47186,47202,47218,47225,47225,47241,47241,47257,47265,47281,47297,47314,47321,47337,47346,47346,47353,47353,47370,47370,47377,47385,47401,47417,47417,47425,47433,47441,47449,47449,47457,47465,47465,47473,47482,47482,47489,47489,47505,47514,47514,47521,47521,47530,47537,47554,47562,47562,47578,47578,47586,47586,47593,47593,47602,47602,47618,47625,47625,47634,47634,47641,47650,47650,47657,47657,47666,47666,47674,47674,47682,47682,47689,47698,47698,47705,47714,47714,47729,47729,47737,47737,47745,47753,47753,47753,47761,47761,47770,47770,47777,47785,47793,47809,47809,47817,47817,47842,47842,47858,47865,47881,47889,47889,47897,47905,47914,47921,47930,47987,48003,48017,48033,48041,48050,48066,48066,48073,48082,48089,48098,48098,48105,48114,48114,48121,48121,48129,48138,48138,48154,48154,48171,48178,48178,48188,48188,48194,48194,48194,48202,48210,48210,48218,48218,48226,48226,48234,48234,48242,48242,48250,48250,48258,48258,48266,48274,48282,48290,48306,48306,48314,48314,48314,48322,48322,48330,48330,48338,48346,48354,48355,48371,48378,48394,48442,48458,48474,48490,48519,48519,48521,48529,48538,48546,48635,48732,48741,48757,48757,48772,48778,48795,48803,48810,48819,48819,48834,48835,48835,48850,48875,48875" d="m281,72c0,1.8 0,2.7 0,3.6c0,0.9 0,1.8 0,2.60133c0,0.96533 0,1.79867 0,2.77717c0,0.82017 0,1.7215 0,2.6215c0,0.9 0,1.8 0,2.7c0,0.89999 0,1.8 0,2.7c0,0.75716 0,1.65266 0,2.516c0,0.96317 0,1.884 0,2.784c0,0.89999 0,1.8 0,2.7c0,0.8 0,1.7 0,2.6c0,0.81067 0,1.72134 0,2.57467c0,0.94 0,1.92533 0,2.82533c0,0.75716 0,1.65266 0,2.516c0,0.85867 0,1.80534 0,2.65867c0,0.94 0,1.92533 0,2.82533c0,0.8 0,1.7 0,2.6c0,0.9 0,1.8 0,2.7c0,0.89999 0,1.8 0,2.7c0,0.75716 0,1.65266 0,2.516c0,0.96317 0.13657,1.84064 -0.284,2.684c-0.32993,0.66165 -0.71375,1.49999 -0.716,2.40001c-0.00223,0.89999 -0.06696,1.74355 -0.57468,2.42532c-0.4772,0.64081 -0.42004,1.57469 -0.42532,2.47467c-0.00534,0.91071 -0.22827,1.81853 -0.5,2.5c-0.38861,0.97459 -0.55344,1.69507 -1,2.5c-0.4436,0.79958 -0.40363,1.72327 -0.66666,2.66667c-0.19006,0.68164 -0.6777,1.32462 -0.82266,2.42267c-0.10611,0.80376 -0.01068,1.71066 -0.01068,2.61066c0,0.90001 0,1.8 0,2.68533c0,0.94 0,1.63068 0,2.70401c0,0.81065 0,1.71516 0,2.73199c0,0.67867 0,1.65717 0,2.47733c0,0.90134 0,1.80135 0,2.72217c0,0.96451 0,1.68983 0,2.679c0,0.77934 0.108,1.79564 -0.08533,2.68417c-0.17303,0.79521 -0.73663,1.60826 -0.87866,2.49066c-0.15054,0.93532 -0.03601,1.8 -0.03601,2.74133c0,0.76801 0,1.70934 0,2.71733c0,0.79201 0,1.65067 0,2.51401c0,0.89999 0,1.81934 0,2.65266c0,0.97867 0,1.75267 0,2.65266c0,0.86334 0,1.82651 0,2.74733c0,0.90001 0,1.80135 0,2.76668c0,0.65866 0,1.66666 0,2.52882c0,0.90451 0,1.82533 0,2.7885c0,0.69067 0,1.63068 0,2.61601c0,0.89999 0,1.65717 0,2.55266c0,0.86334 0,1.82651 0,2.74733c0,0.90451 0,1.76668 0,2.60001c0,0.9785 0,1.79866 0,2.7c0,0.90001 0,1.8 0,2.7c0,0.90001 0,1.8 0,2.70001c0,0.89999 0,1.65717 0,2.55716c0,0.74733 0,1.7415 0,2.68567c0,0.89999 0,1.85716 0,2.75717c0,0.89999 0,1.7 0,2.59999c0,0.90001 0,1.82083 0,2.784c0,0.69067 0,1.63068 0,2.61618c0,0.78516 0,1.72516 0,2.73315c0,0.79201 0,1.65067 0,2.51401c0,0.89999 0,1.81934 0,2.65266c0,0.9785 0,1.79866 0,2.7c0,0.90001 0,1.82083 0,2.78534c0,0.72533 0,1.71466 0,2.51466c0,1 0,1.78934 0,2.83333c0,0.79201 0,1.65067 0,2.51401c0,0.89999 0,1.81934 0,2.65266c0,0.9785 0,1.79866 0,2.636c0,1.02116 0,1.76849 0,2.76399c0,0.80002 0,1.79984 0,2.57916c0,0.99951 0,1.7735 0,2.67352c0,0.86331 0,1.84732 0,2.83133c0,0.69064 0,1.63065 0,2.61615c0,0.78519 0,1.73584 0,2.50116c0,0.99417 0,1.74152 0,2.78403c0,0.948 0,1.62 0,2.60931c0,1.03601 0,1.75351 0,2.65802c0,0.86331 0,1.82648 0,2.74731c0,0.90451 0,1.76666 0,2.62085c0,0.97916 0.02484,1.7688 0,2.8125c-0.01801,0.75662 -0.6181,1.47699 -0.91467,2.36667c-0.28586,0.85764 -0.08533,1.79999 -0.08533,2.59998c0,0.90002 -0.20023,1.6008 -0.716,2.28403c-0.46454,0.61533 -0.284,1.616 -0.284,2.51599c0,0.89999 0,1.79999 0,2.69998c0,0.90002 0,1.80002 0,2.70001c0,0.79999 0,1.70001 0,2.60001c0,0.92084 0.00143,1.884 0,2.57465c-0.00226,1.07269 -0.16324,1.99335 -0.42532,2.6507c-0.40277,1.0101 -0.56934,1.76392 -0.57468,2.58533c-0.00592,0.91061 0,1.76398 0,2.70532c0,0.76801 0,1.70935 0,2.71735c0,0.79199 0.08389,1.84293 -0.11432,2.57117c-0.22598,0.83023 -0.9379,1.53644 -1.31769,2.11017c-0.61658,0.93152 -0.56799,1.80682 -0.56799,2.69598c0,0.98917 0,1.76849 0,2.76801c0,0.77399 0,1.6785 0,2.42584c0,0.99548 0.01318,1.79559 -0.00015,2.79532c-0.01041,0.77954 -0.28534,1.74423 -0.64719,2.49567c-0.41956,0.87125 -0.35266,1.8045 -0.35266,2.7045c0,0.90451 0,1.76666 0,2.62085c0,0.97916 0,1.77914 0,2.57916c0,1 0,1.79999 0,2.79868c0,0.76532 0,1.71597 0,2.70132c0,0.89999 0,1.69998 0,2.60001c0,0.89999 0,1.79999 0,2.69998c0,0.89999 0,1.80002 0,2.70001c0,0.89999 0,1.69998 0,2.60001c0,0.89999 0,1.79999 0,2.69998c0,0.89999 0,1.80002 0,2.70001c0,0.89999 0,1.69998 0,2.60001c0,0.89999 0,1.79999 0,2.69998c0,0.90451 0,1.76666 0,2.62085c0,0.97916 0,1.76849 0,2.49384l0,0.98532l0,0.98401l0,0.86331" id="svg_16" stroke-width="2" stroke="#000" fill="none"/>
  <path t="50618,50721,50737,50737,50745,50745,50761,50769,50769,50777,50777,50793,50809,50825,50825,50833,50841,50841,50857,50857,50866,50866,50873,50889,50889,50897,50898,50905,50905,50913,50921,50929,50930,50938,50946,50946,50953,50953,50953,50961,50969,50985,50985,50985,50993,50993,51001,51001,51001,51009,51009,51017,51025,51025,51034,51034,51049,51049,51057,51057,51065,51073,51089,51089,51098,51098,51105,51113,51129,51145,51145,51161,51169,51169,51185,51185,51225,51250,51266,51281,51281,51306,51306,51329,51361,51361,51386,51386,51402,51418,51418,51425,51425,51457,51481,51482,51489,51489,51505,51505,51514,51522,51529,51529,51539,51539,51545,51545,51554,51561,51569,51577,51585,51601,51609,51609,51625,51625,51625,51633,51633,51641,51649,51657,51665,51665,51681,51689,51689,51697,51705,51713,51713,51721,51729,51745,51745,51753,51769,51769,51777,51777,51785,51809,51834,51850,51850,51857,51873,51873,51881,51881,51889,51905,51913,51929,51945,51945,51953,51953,51961,51985,51993,52009,52025,52033,52041,52057,52057,52065,52081,52123,52130,52147,52161,52161,52169,52177,52185,52201,52209,52217,52217,52225,52233,52249,52249,52273,52273,52289,52289,52305,52305,52329,52345,52345,52361,52385,52385,52401,52401,52417,52417,52433,52441,52441,52465,52473,52497,52497,52521,52546,52546,52562,52578,52578,52594,52594,52602,52602,52617,52633,52633,52657,52689,52689,52705,52705,52721,52721,52737,52769,52769,52772,52772,52777,52793,52793,52801,52801,52809,52817,52817,52825,52825,52833,52833,52849,52849,52857,52857,52865,52865,52873,52873,52881,52881,52889,52889,52897,52905,52905,52921,52937,52945,52961,52969,52977,52977,52985,52985,53001,53009,53041,53049,53057,53073,53081,53089,53089,53113,53121,53129,53145,53153,53153,53169,53177,53177,53185,53193,53201,53217,53225,53241,53249,53249,53265,53273,53273,53281,53289,53305,53305,53329,53329,53345,53369,53369,53377,53377,53385,53409,53409,53441,53457,53457,53473,53513,53521,53529,53545,53545,53553,53569,53577,53602,53635,53642,53649,53682,53682,53706,53747,53762,53772,53778,53794,53794,53802,53802,53817" d="m290,77c0,1.75716 0,2.65717 0,3.4045c0,0.99416 0,1.93833 0,2.84283c0,0.91933 0,1.75267 0,2.73117c0,0.82017 0,1.6215 0,2.54234c0,0.96317 0,1.65383 0,2.72649c0,0.91933 0,1.75267 0,2.73134c0,0.774 0,1.674 0,2.53733c0,0.85867 0,1.8055 0,2.69467c0,0.98917 0,1.76849 0,2.76783c0,0.82017 0,1.6215 0,2.54234c0,0.96317 0,1.65383 0,2.72649c0,0.91933 0.06122,1.78929 -0.16666,2.75267c-0.19119,0.80833 -0.65335,1.491 -0.79733,2.364c-0.15393,0.93326 -0.19598,1.97123 -0.38867,2.64133c-0.21457,0.74619 -0.57626,1.84657 -0.63666,2.64533c-0.06726,0.88953 0.07498,1.61213 -0.09601,2.58134c-0.17206,0.97536 -0.76654,1.53584 -0.91019,2.52516c-0.1293,0.89067 0.01639,1.64758 -0.00583,2.64284c-0.01788,0.80054 -0.20886,1.80391 -0.49866,2.57916c-0.32104,0.85886 -0.48752,1.71641 -0.5,2.62084c-0.0127,0.92097 -0.23468,1.71593 -0.57468,2.57466c-0.31635,0.799 -0.42465,1.62399 -0.42532,2.52533c-0.00067,0.90001 0.04193,1.84023 -0.284,2.784c-0.24463,0.7083 -0.67328,1.62759 -0.716,2.51601c-0.03635,0.7563 0.00934,1.65271 0,2.51601c-0.01044,0.96333 -0.54321,1.68729 -0.87851,2.584c-0.31808,0.85063 -0.12149,1.65717 -0.12149,2.55266c0,0.86334 0,1.84734 0,2.66867c0,0.85333 0,1.79466 0,2.56267c0,0.94133 0,1.94933 0,2.74133c0,1.02733 0,1.722 0,2.74933c0,0.94667 0,1.62534 0,2.604c0,0.90533 0.01157,1.84676 0,2.53734c-0.01801,1.07379 -0.55167,1.83907 -0.83334,2.65067c-0.27737,0.79922 -0.16666,1.812 -0.16666,2.586c0,0.89999 0.34436,1.83673 -0.02084,2.70566c-0.3071,0.73068 -0.96655,1.24625 -0.97916,2.14168c-0.01266,0.90015 -0.49423,1.63963 -0.83334,2.56667c-0.23428,0.64046 -0.16666,1.83333 -0.16666,2.63333c0,0.8 0,1.7955 0,2.54283c0,1.02116 0,1.85716 0,2.75717c0,0.89999 -0.12762,1.67726 -0.5,2.42082c-0.46957,0.93762 -0.49466,1.65379 -0.5,2.722c-0.00427,0.85716 0,1.75717 0,2.55717c0,0.89999 0,1.836 0,2.68399c0,0.86334 0,1.76334 0,2.68268c0,0.83333 0,1.81183 0,2.63199c0,0.90134 0,1.80135 0,2.72217c0,0.96317 0,1.65384 0,2.7265c0,0.91934 0,1.75267 0,2.586c0,0.86217 0,1.76668 0,2.66667c0,0.89999 0,1.8045 0,2.66667c0,0.83333 0,1.81183 0,2.63199c0,0.90134 0,1.80135 0,2.70134c0,0.89999 0,1.8 0,2.7c0,0.90001 0,1.8 0,2.60001c0,0.89999 0.00534,1.80002 0,2.7c-0.00534,0.90004 -0.45297,1.60719 -0.83334,2.5c-0.32019,0.75154 -0.15625,1.70006 -0.16666,2.60001c-0.01044,0.90018 -0.54321,1.60329 -0.87851,2.5c-0.31808,0.85063 -0.12149,1.7 -0.12149,2.59999c0,0.82083 0,1.78534 0,2.51067c0,0.98917 0,1.76851 0,2.76801c0,0.90533 0,1.84666 0,2.53734c0,0.98399 0,1.96799 0,2.83133c0,0.89999 0,1.81934 0,2.65266c0,0.97867 0,1.75267 0,2.65266c0,0.86334 0,1.84734 0,2.66866c0,0.85333 0,1.79333 0,2.77869c0,0.89999 0,1.69998 0,2.53598c0,1.01669 0,1.71133 0,2.73868c0,0.94666 0,1.62534 0,2.604c0,0.90533 0,1.84668 0,2.53732c0,0.98401 0,1.96802 0,2.83133c0,0.90002 0,1.81934 0,2.65268c0,0.97867 0,1.75266 0,2.65268c0,0.86331 0,1.84732 0,2.66864c0,0.85333 0,1.79468 0,2.56268c0,0.94135 0,1.94934 0,2.74133c0,1.02734 0,1.72198 0,2.74933c0,0.94666 0,1.62534 0,2.604c0,0.90533 0.05188,1.86603 -0.08533,2.62265c-0.18448,1.01727 -0.57526,1.57654 -0.79318,2.59869c-0.16812,0.78857 -0.12149,1.79999 -0.12149,2.58932c0,1.04401 0,1.836 0,2.69598c0,0.91919 0,1.91336 0,2.67868c0,0.95065 0,1.836 0,2.63599c0,0.90002 0,1.80002 0,2.70001c0,0.89999 0,1.8045 0,2.82132c0,0.67868 0,1.65717 0,2.47736c0,0.90134 0,1.80133 0,2.70132c0,0.89999 0,1.79999 0,2.70001c0,0.89999 0,1.79999 0,2.59998c0,0.90002 0,1.80002 0,2.70001c0,0.91068 0,1.82132 0,2.67465c0,0.94 0,1.82535 0,2.62534c0,0.90002 0,1.80002 0,2.70001c0,0.89999 0,1.79999 0,2.70001c0,0.90015 0,1.68533 0,2.62534c0,1.008 0,1.76398 0,2.67465c0,0.91068 0,1.82132 0,2.67465c0,0.94135 0,1.70935 0,2.6507c0,1.008 0,1.79999 0,2.65866c0,0.86331 -0.11435,1.93182 0.284,2.716c0.33484,0.65915 0.71375,1.55716 0.716,2.45267c0.00174,0.69464 0,1.71133 0,2.64731c0,0.90002 0,1.80002 0,2.70001c0,0.79999 0,1.70001 0,2.60001c0,0.89999 0,1.79999 0,2.69998c0,0.90002 0,1.80002 0,2.70001c0,0.79999 0.05716,1.70001 0.5,2.5c0.44284,0.79999 0.5,1.70001 0.5,2.60001c0,0.89999 0,1.65717 0,2.55267l0,0.86331l0,0.96317" id="svg_17" stroke-width="2" stroke="#000" fill="none"/>
 </g>
 <g display="none">
  <title>muse_image</title>
  <image xlink:href="http://static.flickr.com/2293/1819337122_fe872b7490.jpg" id="muse" height="480" width="290" y="0" x="175"/>
 </g>
 <g display="none">
  <title>bbox</title>
  <rect stroke="#f00" fill="none" stroke-width="3" height="412.8" width="172.27723" y="48.96" x="234.33993" id="bbox"/>
 </g>
</svg>
