<svg width="640" height="480" xmlns="http://www.w3.org/2000/svg" xmlns:svg="http://www.w3.org/2000/svg" xmlns:xlink="http://www.w3.org/1999/xlink">
 <!-- Sketchy ANNOTATION
  ImageNet ID: n02676566_7385
  URL: http://farm4.static.flickr.com/3036/2565784190_6a9344239b.jpg
  Image Width: 278
  Image Height: 500
  BBox X: 41
  BBox Y: 6
  BBox Width: 195
  BBox Height: 487
  Exposure: 2000ms
  Synset Label: guitar
  Synset ID: n03467517
  Worker Tag: guitar
  Sanity Check: 
   Saved
  Comment: 
   {}
  Worker ID: AQ9ISCTDF9B48
  Assignment ID: 3X66WABAJWIY4H46PLALCOX9JFL3GS
  HIT ID: 39RRBHZ0AU1GKN309LZER6ADHAFZV9
  Work Time: 118s
  Worker Score: 0.7857
 END ANNOTATION -->
 <g display="inline">
  <title>Layer 1</title>
  <path t="0,135,142,151,168,184,200,217,234,250,267,268,284,301,318,318,334,351,351,367,368,383,384,400,401,417,418,433,434,451,451,470,502,510,534,598,630,630,662,670,686,701,718,734,734,750,767,768,790,806,806,822,1319,1335,1343,1367,1367,1383,1391,1407,1418,1439,1450,1468,1484,1501,1527,1535,1551,1568,1584,1601,1601,1618,1633,1634,1651,1668,1683,1701,1701,1718,1733,1751,1768,1784,1784,1801,1801,1818,1833,1834,1850,1868,1868,1868,1884,1884,1901,1918,1918,1934,1934,1951,1951,1951,1968,1984,1984,2001,2001,2018,2018,2034,2034,2050,2068,2095,2111,2135,2159,2431,2431,2463,2487,2501,2518,2534,2551,2551,2568,2568,2584,2584,2601,2618,2618,2634,2655,2655,2687,2743,2743,2759,3039,3047,3057,3068,3084,3084,3101,3118,3134,3151,3168,3168,3168,3184,3184,3201,3201,3247,3247,3503,3511,3527,3535,3551,3568,3569,3584,3584,3601,3601,3618,3618,3634,3634,3634,3651,3651,3669,3669,3684,3684,3684,3701,3701,3718,3734,3734,3751,3751,3768,3768,3784,3801,3801,3818,3834,3834,3851,3868,3884,3900,3901,3901,3918,3918,3934,3934,3951,3951,3968,3968,3984,3984,4001,4018,4034,4034,4051,4068,4084,4103,4103,4127,4151,4159,4159,4183,4215,4311,4319,4335,4359,4463,4479,4919" d="m276.5,54c0,-1.7 0,-2.6 0,-3.5c0,-1 0,-1.9 0,-2.8c0,-0.9 -0.32843,-1.98441 0.2215,-2.57867c0.56378,-0.60923 1.20166,-0.96254 1.80383,-1.68533c0.48196,-0.57851 1.63885,-0.35668 2.32199,-0.49317c0.92471,-0.18476 1.74603,-0.87794 2.46701,-0.93833c0.95035,-0.07961 1.68567,-0.0045 2.85233,-0.0045c0.8125,0 1.65485,0 2.54401,0c0.98917,0 1.76849,0 2.76801,0c0.77399,0 1.67401,0 2.53732,0c0.96317,0 1.884,0 2.784,0c0.90002,0 1.85349,-0.18135 2.70001,0.16667c0.67108,0.27589 1.7135,0.69761 1.98932,1.444c0.30829,0.83425 -0.08478,1.83387 0.29468,2.58933c0.43558,0.86721 0.71301,1.49999 0.716,2.436c0.00272,0.848 -0.04431,1.75146 0.35266,2.60683c0.42331,0.91217 0.45071,1.59171 0.7045,2.45717c0.25729,0.87744 0.80734,1.60854 0.94418,2.5c0.14059,0.91577 0.79718,1.45631 0.98798,2.4c0.17435,0.86229 0.82495,1.38808 1.0062,2.1045c0.21964,0.86816 0.14035,1.75579 0.65182,2.34817c0.56644,0.65601 1.05576,1.36896 1.31665,2.34734c0.23096,0.86615 0.7066,1.40681 1.01517,2.12083c0.35306,0.81705 0.02023,1.8005 0.02084,2.65383c0.00067,0.94 0.22058,1.792 0.57468,2.42533c0.48151,0.86125 0.46423,1.76843 0.92532,2.42084c0.47272,0.66886 0.49933,1.4965 0.5,2.45833c0.00064,0.92084 0,1.82084 0,2.72217c0,0.96533 0,1.624 0,2.632c0,0.86217 0,1.80267 0,2.65067c0,0.86333 -0.08536,1.78379 0.16666,2.68266c0.24753,0.88287 0.63138,1.41946 0.77618,2.42883c0.13077,0.91153 0.05716,1.9045 0.05716,2.72601c0,0.88917 0,1.87849 0,2.6785c0,1 0,1.78933 0,2.51466c0,0.98534 0,1.97067 0,2.69601c0,0.98917 0,1.76849 0,2.768c0,0.90533 0,1.84666 0,2.53733c0,1.07333 0,1.984 0,2.884c0,0.9 0,1.8 0,2.7c0,0.9 0.41721,1.84383 -0.05716,2.54283c-0.4632,0.68254 -1.64285,0.35717 -2.54285,0.35717c-0.92084,0 -1.88531,0 -2.61066,0c-0.98917,0 -1.76849,0 -2.76782,0c-0.82019,0 -1.6575,0 -2.67419,0c-0.69464,0 -1.72198,0 -2.66864,0c-0.85333,0 -1.79333,0 -2.67868,0c-0.79999,0 -1.70001,0 -2.60001,0c-0.89999,0 -1.84454,-0.09547 -2.60001,0.284c-0.86719,0.43559 -1.60019,0.69659 -2.5,0.716c-0.86453,0.01865 -1.34592,0.85158 -2.11884,0.9955c-0.93445,0.174 -1.702,0.0045 -2.49847,0.0045c-0.99734,0 -1.87201,0 -2.88251,0c-0.77933,0 -1.77866,0 -2.59885,0c-0.90134,0 -2.01694,0.00297 -2.19998,-0.80133c-0.1994,-0.87627 -0.00134,-1.71951 -0.00134,-2.68267c0,-0.86333 0,-1.76783 0,-2.48533c0,-1.036 0,-1.78001 0,-2.888c0,-0.79333 0,-1.68533 0,-2.39333c0,-0.98134 0,-1.944 0,-2.71734c0,-1.04183 0,-1.81733 0,-2.86533c0,-0.7095 0,-1.56216 0,-2.56533c0,-0.94417 0,-1.84866 0,-2.768c0,-0.83334 0,-1.812 0,-2.58601c0,-0.89999 0,-1.76333 0,-2.74733c0,-0.82133 0.00006,-1.67467 0,-2.61467c-0.00009,-0.98533 -0.1243,-1.66276 -0.57468,-2.48533c-0.42728,-0.78039 -0.42532,-1.709 -0.42532,-2.73334c0,-0.672 0,-1.416 0,-2.52383c0,-0.891 0.05273,-1.80624 -0.05716,-2.54733c-0.14975,-1.00997 -0.58856,-1.7766 -0.8215,-2.79533c-0.17581,-0.76887 -0.30594,-1.62408 -0.69601,-2.3895c-0.40833,-0.80125 -0.28876,-1.7673 -0.70932,-2.61066c-0.32993,-0.66165 -0.71375,-1.49999 -0.716,-2.4c-0.00229,-0.92084 0,-1.72134 0,-2.57467c0,-0.94 0,-1.92533 0,-2.82533c0,-0.8 0,-1.7 0,-2.6c0,-0.9 -0.24289,-1.83484 0.00449,-2.6955c0.2207,-0.76789 0.99551,-1.2045 1.64285,-1.75716l0.35132,-0.74867" id="svg_1" stroke-width="2" stroke="#000" fill="none"/>
  <path t="5391,5455,5487,5519,5559,5559,5838,5839,5855,5870,5887,5887,5991,6135,6158,6159,6215,6311,6446,6470,6495,6510,6518,6566,6630,6630,6654,6702,6726,6774,6822,6838,6886,6918,6942,7142,7158,7174,7446,7462,7486,7502,7615,7615,7646,7662,7662,7798,7846,7870,7902,7902,7942,7958,7990,8086,8246,8278,8294,8294,8310,8318,8335,8351,8351,8367,8384,8487,8615,8615,8646,8662,8718,8742,8750,8774,8791,8822,8990,8990,9030,9039,9051,9067,9083,9084,9100,9126,9126,9126,9246,9270,9271,9294,9334,9358,9398,9430,9438,9470,9494,9550,9574,9638,9710,9742,9742,9766,9798,9798,9902,9998,9998,10038,10062,10078,10102,10142,10254,10254" d="m272.5,53c-1.70001,0.05717 -2.42313,0.68491 -3.3045,0.94283c-0.82925,0.24268 -1.8096,-0.10935 -2.67398,0.49983c-0.6124,0.43159 -1.36026,1.04495 -1.85486,1.724c-0.50034,0.68694 -0.15729,1.68872 0.444,2.43333c0.52777,0.65359 1.37674,1.31496 2.18933,1.39867c0.89529,0.09222 1.83011,-0.18464 2.58936,0.43734c0.63779,0.52249 0.28461,1.42743 -0.36401,1.98933c-0.58792,0.50931 -1.49152,0.43934 -2.22534,0.86c-0.68655,0.39355 -1.32419,1.15493 -2.09549,1.662c-0.69193,0.45489 -0.70459,1.35267 -0.7045,2.25266c0.00009,0.89983 0.30646,1.58773 1.19867,1.80134c0.74982,0.17951 1.23679,0.98066 2.10132,0.99866c0.89984,0.01874 2.08337,-0.39512 2.61469,0.28533c0.56445,0.72292 -0.25888,1.50515 -1.01468,1.93616c-0.6691,0.38157 -1.3176,1.16133 -1.99982,1.8785c-0.55774,0.58632 -0.892,1.3998 -0.90018,2.3c-0.00818,0.89998 0.177,1.9369 0.80133,2.31467c0.80554,0.48742 1.81827,0.28339 2.59866,0.71066c0.82257,0.45038 2.02783,0.12379 2.47833,0.79617c0.49207,0.73438 -0.5947,1.39465 -1.47833,1.80383c-0.81161,0.37583 -1.57217,0.68565 -2.39999,1.14133c-0.73425,0.40418 -1.10181,1.21493 -1.64734,1.886c-0.51517,0.63371 -0.73529,1.58804 -1,2.29467c-0.3288,0.87775 0.08279,1.63466 0.94733,1.65266c0.89984,0.01874 1.93298,-0.24531 2.616,0.284c0.6297,0.48799 1.19583,1.15835 2.08401,1.54934c0.65765,0.28951 1.84125,0.15829 1.99866,0.96799c0.17181,0.88385 -0.49963,1.71851 -1.09866,2.2985c-0.58139,0.5629 -1.47208,0.83557 -2.22131,1.343c-0.7381,0.49989 -1.2384,1.03345 -1.91702,1.8c-0.63831,0.72102 -0.77899,1.55733 -0.76166,2.45716c0.01733,0.90056 0.41647,1.71883 1.19867,2.216c0.73145,0.46492 1.17731,1.11246 1.82666,1.65867c0.63556,0.53461 1.48587,0.90597 2.27017,1.37267c0.66168,0.39374 1.18213,1.14976 1.53784,2.05267c0.25946,0.65856 -0.34891,1.50515 -1.03336,2.2c-0.49622,0.50376 -1.21759,1.18283 -1.89981,1.9c-0.55774,0.58632 -1.05499,1.50977 -0.543,2.1955c0.56494,0.75661 1.52148,0.92583 2.00449,1.65183l0.80499,0.21933l0.83334,0.33334" id="svg_2" stroke-width="2" stroke="#000" fill="none"/>
  <path t="11255,11326,11366,11398,11406,11422,11438,11438,11454,11470,11487,11501,11519,11582,11615,11615,11654,11686,11686,11758,11766,11782,11894,11942,11990,11998,12102,12102,12158,12158,12174,12206,12206,12246,12262,12262,12294,12342,12342,12366,12406,12415,12494,12542,12582,12606,12814,12854,12878,12894,12910,12910,12942,12966,12966,13022,13030,13055,13062,13086,13150,13174,13222,13238,13294,13318,13374,13542,13566,13574,13574,13590,13606,13622,13622,13646,13686,13686,13758,13758,13798,13854,13878,13894,13918,13998,14007,14007,14158,14166,14184,14200,14217,14238,14238,14262,14262,14286,14302,14302,14326,14382,14382,14438,14470,14494,14510,14550,14550,14614,14614,14726,14750,14798,14798,14815,14822,14834,14850,14867,14867" d="m302.5,47c1.79999,0 2.71979,-0.1571 3.5,0.02083c0.96201,0.21939 1.65054,0.73189 2.5,1.14584c0.65225,0.31785 1.60855,0.6534 2.2955,1.1905c0.7439,0.5816 0.93658,1.46051 1.80432,1.643c0.79221,0.16661 0.90018,1.1 0.90018,1.88517c0,0.94 0.15536,1.97173 -0.03601,2.704c-0.22614,0.86536 -1.25531,1.19692 -1.91132,1.76333c-0.59238,0.51148 -1.35266,0.64725 -2.25269,0.64734c-0.89999,0.00008 -2.46948,-0.11839 -2.42932,0.716c0.0372,0.77316 1.28729,1.03447 1.92932,1.5795c0.75473,0.64071 1.55484,0.71341 2.30002,1.31517c0.65433,0.52838 1.20004,1.18928 1.89999,1.88933c0.59988,0.59995 0.9798,1.43825 1.55267,2.14283c0.50256,0.61812 0.97385,1.15889 0.94733,2.05717c-0.02789,0.94415 -0.80151,1.28137 -1.70001,1.3c-0.90051,0.01868 -2.06052,0.28605 -2.21332,1.19867c-0.12292,0.73412 1.04089,0.99109 1.71332,1.60266c0.62704,0.57029 1.40836,1.21597 1.84283,1.89867c0.46594,0.73213 0.42413,1.64356 0.93185,2.32533c0.4772,0.64082 0.62555,1.37547 1.14133,2.05867c0.46454,0.61535 0.4043,1.75403 -0.23685,2.39516c-0.64111,0.64111 -1.69189,0.37018 -2.57898,0.521c-0.8511,0.14471 -1.08347,1.15411 -0.73352,1.99983c0.32468,0.78463 0.76807,1.53208 1.186,2.3c0.45767,0.84095 0.65698,1.55426 1.258,2.3c0.6185,0.76743 1.23218,1.25931 1.68484,2.05267c0.38489,0.67458 0.68655,1.71075 0.7045,2.54733c0.01929,0.89963 -0.28235,1.75729 -1.20001,1.8c-0.89902,0.04185 -1.84863,-0.20234 -2.59998,0.08533c-0.83841,0.32101 -0.74286,1.31707 -0.28403,2.11333c0.43274,0.75095 0.94778,1.34792 1.65335,2.00133c0.53888,0.49905 1.43277,0.87247 2.01999,1.4c0.74207,0.66663 1.35803,1.46182 1.91068,1.87917c0.73969,0.55859 1.83688,0.69784 2.21466,1.32217c0.48743,0.80554 0.28165,1.9871 -0.51599,2.19733c-0.81567,0.215 -1.36707,0.82973 -2.08533,1.08533c-0.94101,0.33488 -1.60507,0.74715 -2.5925,0.89516c-0.81216,0.12173 -1.66885,0.38824 -2.32083,0.73684c-0.84741,0.45309 -1.67917,0.80483 -2.14734,1.5795l-0.48868,0.68983l-0.664,0.4575l-0.5,0.7425" id="svg_3" stroke-width="2" stroke="#000" fill="none"/>
  <path t="17958,18214,18245,18245,18253,18277,18286,18300,18317,18334,18350,18367,18384,18384,18400,18421,18438,18438,18454,18478,18501,18501,18517,18525,18541,18541,18550,18567,18567,18584,18599,18616,18617,18634,18649,18666,18667,18684,18699,18700,18716,18717,18734,18750,18750,18767,18767,18784,18784,18784,18800,18800,18817,18817,18833,18834,18834,18850,18850,18850,18867,18867,18883,18899,18900,18900,18917,18917,18933,18934,18934,18950,18950,18950,18950,18950,18967,18967,18967,18967,18984,18984,18984,18984,18984,19000,19000,19000,19000,19017,19017,19033,19034,19034,19050,19050,19050,19067,19067,19067,19084,19084,19084,19100,19100,19100,19116,19117,19133,19134,19134,19150,19150,19167,19167,19167,19184,19184,19184,19199,19200,19200,19216,19217,19233,19234,19234,19234,19250,19250,19250,19267,19267,19267,19284,19284,19300,19300,19300,19317,19317,19334,19334,19350,19350,19350,19367,19367,19384,19384,19384,19384,19400,19400,19417,19417,19434,19434,19450,19467,19484,19484,19500,19500,19526,19574,19574,19606,19615,19662" d="m277.5,120c0.99866,0.88667 0.98843,1.82543 1,2.516c0.01801,1.07378 0.45639,1.86574 0.91599,2.68267c0.39532,0.70266 1.06601,1.23676 1.08401,2.10133c0.01874,0.8998 0,1.8 0,2.7c0,0.8 0.33102,1.45148 0.83334,2.16667c0.48843,0.69543 0.14935,1.6335 0.16666,2.53333c0.01801,0.93652 0.3071,1.77472 0.57468,2.47467c0.40344,1.05534 0.42532,1.92534 0.42532,2.82533c0,0.8 0,1.636 0,2.65266c0,0.69467 -0.10556,1.75877 0.284,2.54733c0.42984,0.87007 0.71533,1.60001 0.716,2.5c0.00061,0.82083 0,1.784 0,2.64734c0,0.89549 -0.07486,1.86775 0.08533,2.53799c0.23239,0.97221 0.74976,1.60634 0.89383,2.61467c0.1394,0.97568 -0.01675,1.72733 0.24219,2.7c0.21793,0.81863 0.64658,1.79471 0.7215,2.40001c0.09845,0.79565 0.05716,1.79999 0.05716,2.59999c0,1 0,1.8 0,2.8c0,0.81067 0,1.68533 0,2.68401c0,0.81599 0,1.63199 0,2.62933c0,0.84 0,1.93399 0,2.85333c0,0.66933 0,1.43466 0,2.43784c0,0.85266 0,1.81715 0,2.64217c0,0.91499 0,1.92 0,2.63866c0,0.75067 0,1.52533 0,2.31601c0,1.19882 0,2.00316 0,2.81949c0,0.83633 0,2.14584 0,3.06184c0,0.93199 0,1.3965 0,2.3075c0,1.2765 0,2.03783 0,3.04733c0,0.59633 0,1.64101 0,2.54167c0,1.02083 0,1.8315 0,2.70616c0,1 0,1.83549 0,2.41917c0,1.19533 0,2.08482 0,2.6595c0,1.31465 0,2.01067 0,2.92c0,1 0,1.81599 0,2.63199c0,0.99867 0,1.87334 0,2.68401c0,0.8 0,1.60001 0,2.60451c0,0.85266 0,1.81699 0,2.63148c0,0.86852 0,2.06384 0,2.6595c0,0.86852 0,1.93784 0,2.86852c0,0.63148 0,1.63866 0,2.508c0,1.06133 0,1.696 0,2.728c0,0.69467 0,1.95717 0,2.73866c0,0.7095 0,1.68268 0,2.48666c0,0.82201 0,1.85318 0,2.75385c0,1.02083 0,1.82083 0,2.62083c0,1 0,1.79999 0,2.80133c0,0.83466 0,1.76534 0,2.54683c0,0.7905 0,1.90933 0,2.73849c0,1.0775 0,1.67584 0,2.67334c0,0.67334 0,1.86934 0,2.59833c0,1.04167 0,1.83101 0,2.87502c0,0.75598 0,1.66666 0,2.57733c0,0.91064 0,1.76398 0,2.70532c0,0.76801 0,1.70935 0,2.71735c0,0.75598 0,1.66666 0,2.56665l0,0.89999" id="svg_4" stroke-width="2" stroke="#000" fill="none"/>
  <path t="20918,21030,21038,21049,21050,21067,21067,21067,21083,21084,21084,21099,21100,21100,21116,21117,21117,21134,21134,21150,21150,21150,21167,21167,21167,21167,21183,21184,21184,21184,21199,21200,21200,21216,21217,21217,21233,21234,21234,21250,21250,21250,21267,21267,21267,21267,21282,21283,21299,21300,21300,21316,21317,21317,21332,21333,21350,21350,21350,21367,21367,21367,21383,21383,21383,21383,21399,21400,21400,21400,21416,21417,21417,21417,21432,21433,21433,21433,21450,21450,21450,21450,21450,21467,21467,21467,21467,21467,21483,21483,21483,21500,21500,21500,21500,21517,21517,21517,21532,21533,21550,21550,21550,21567,21567,21567,21567,21583,21583,21583,21583,21599,21600,21617,21617,21633,21633,21633,21650,21650,21667,21667,21683,21683,21700,21700,21700,21717,21717,21717,21734,21734,21734,21750,21750,21750,21767,21767,21783,21783,21783,21783,21800,21800,21800,21817,21817,21833,21833,21833,21850,21850,21850,21870,21894,21910,21926,22038,22046,22046,22062,22094,22094,22134,22158,22182,22182,22206,22215,22334,22438" d="m312.5,117c0,3.45834 0,4.3045 0,5.16666c0,0.85417 0,1.83334 0,2.644c0,0.87466 0,1.87466 0,2.71017c0,0.58367 0,1.77917 0,2.67916c0,0.60001 0,1.8 0,2.69101c0,0.83699 0,1.77567 0,2.60899c0,1.043 0,1.772 0,2.60899c0,0.89101 0,1.7955 0,2.72701c0,0.64934 0,1.68517 0,2.41217c0,1.0905 0,1.7825 0,2.98383c0,0.76801 0,1.53601 0,2.73601c0,0.68266 0,1.38133 0,2.69867c0,0.8235 0,1.54799 0,2.5c0,0.7905 0,1.644 0,2.83333c0,0.59866 0,1.47917 0,2.31467c0,1 0,1.87466 0,2.8855c0,0.82066 0,1.48517 0,2.7525c0,0.54733 0,1.36333 0,2.59467c0,0.67799 0,1.87401 0,2.67799c0,0.82201 0,1.8535 0,2.56001c0,0.72449 0,1.85767 0,2.52899c0,0.72734 0,1.49467 0,3.08549c0,0.79567 0,1.57935 0,2.343c0,1.0905 0.01627,1.77368 -0.02084,2.75717c-0.02463,0.65321 -0.134,1.66875 -0.33182,2.75717c-0.13907,0.76521 -0.32654,1.5428 -0.48068,2.74283c-0.1026,0.79889 -0.13724,1.61049 -0.15598,2.436c-0.00955,0.4211 -0.01068,1.73067 -0.01068,2.64532c0,0.92267 0,1.377 0,2.25166c0,1.50284 0,2.10451 0,2.90701c0,1.09332 0,2.06532 0,2.75999c0,0.69467 0,1.957 0,2.728c0,0.86934 0,1.87651 0,2.508c0,1.1855 0,2 0,2.57468c0,1.18933 0,2.09383 0,2.71016c0,0.96451 0,2.00017 0,2.72284c0,1.05901 0,1.70166 0,2.88933c0,0.74834 0,1.71367 0,2.55367c0,0.99734 0,1.81334 0,2.62933c0,0.99734 0,1.83734 0,2.8c0,0.76801 0,1.73067 0,2.57066c0,0.99867 0,1.83417 0,2.41785c0,1.1955 0,2.09549 0,2.6955c0,1.2 0,2.09549 0,2.964c0,1.06932 0,1.77882 0,2.63148c0,1.00717 0,1.64618 0,2.93784c0,0.63467 0,1.31734 0,2.36134c0,0.972 0,1.791 0,2.69633c0,1.01033 0,1.84499 0,2.77567c0,0.786 0,1.608 0,2.66666c0,0.705 0,1.68001 0,2.64584c0,0.92082 0,1.82082 0,2.72084c0,0.89999 0,1.79999 0,2.59998c0,0.836 -0.10764,1.69806 0.05716,2.54733c0.17963,0.92575 0.88196,1.74655 0.94284,2.65268c0.05362,0.79819 0,1.70001 0.03601,2.60001l0.38931,0.79999l0.45334,0.70001" id="svg_5" stroke-width="2" stroke="#000" fill="none"/>
  <path t="23574,24222,24270,24278,24294,24294,24302,24316,24317,24332,24350,24350,24367,24383,24399,24400,24416,24438,24438,24455,24478,24502,24502,24518,24518,24518,24534,24566,24590,24590,24599,24622,24622,24646,24654,24670,24670,24686,24686,24700,24717,24717,24733,24750,24767,24783,24799,24800,24800,24817,24817,24832,24833,24854,24867,24882,24883,24902,24902,24917,24917,24933,24950,24967,24983,24983,25000,25000,25017,25033,25033,25050,25067,25082,25099,25117,25117,25133,25150,25167,25167,25183,25200,25217,25233,25233,25249,25267,25267,25283,25299,25326,25326,25334,25334,25350,25374,25383,25422,25422,25446,25454,25470,25486,25486,25502,25517,25533,25550,25567,25567,25583,25600,25600,25617,25633,25650,25667,25667,25683,25700,25700,25717,25733,25733,25750,25767,25767,25767,25783,25783,25806,25807,25817,25817,25833,25850,25850,25867,25867,25883,25883,25883,25900,25900,25900,25917,25917,25933,25933,25950,25950,25967,25967,25983,25983,25983,26000,26000,26017,26017,26017,26033,26033,26050,26050,26067,26067,26083,26083,26100,26117,26117,26133,26133,26150,26150,26167,26167,26183,26183,26200,26200,26200,26217,26217,26233,26250,26250,26267,26267,26283,26300,26300,26317,26333,26333,26333,26350,26350,26367,26367,26367,26383,26383,26383,26400,26400,26400,26400,26417,26417,26417,26433,26433,26433,26433,26450,26450,26467,26467,26467,26483,26483,26483,26500,26500,26500,26517,26517,26533,26533,26550,26550,26550,26550,26567,26567,26567,26583,26583,26600,26600,26600,26617,26617,26633,26633,26633,26650,26650,26650,26667,26667,26667,26683,26683,26683,26683,26700,26700,26700,26700,26717,26717,26717,26733,26733,26733,26750,26750,26767,26767,26767,26767,26783,26783,26783,26800,26800,26817,26817,26817,26833,26833,26833,26850,26850,26867,26867,26867,26883,26883,26900,26900,26900,26917,26917,26917,26933,26933,26934,26950,26950,26950,26950,26967,26967,26967,26967,26967,26983,26983,26983,27000,27000,27017,27017,27033,27033,27050,27050,27050,27067,27067,27083,27083,27083,27084,27100,27100,27117,27117,27118,27133,27133,27133,27150,27150,27167,27167,27167,27183,27183,27200,27200,27217,27233,27233,27250,27250,27267,27267,27283,27283,27300,27300,27317,27333,27333,27350,27350,27367,27367,27384,27384,27400,27400,27400,27417,27417,27418,27433,27434,27434,27450,27450,27467,27467,27483,27484,27484,27500,27500,27500,27518,27518,27518,27533,27533,27534,27550,27550,27567,27567,27567,27583,27584,27600,27600,27618,27618,27633,27634,27654,27654,27654,27667,27667,27684,27684,27700,27717,27734,27734,27750,27750,27769,27769,27769,27783,27784,27800,27800,27817,27833,27833,27850,27850,27867,27883,27884,27900,27901,27918,27918,27934,27934,27934,27951,27951,27967,27968,27984,27984,28000,28001,28001,28017,28033,28034,28034,28051,28051,28067,28067,28084,28084,28100,28117,28118,28133,28133,28150,28151,28168,28168,28168,28183,28184,28200,28200,28217,28217,28217,28233,28234,28250,28267,28268,28284,28284,28300,28317,28318,28333,28350,28351,28367,28368,28383,28400,28400,28400,28417,28433,28433,28450,28450,28467,28483,28500,28500,28500,28518,28518,28534,28535,28550,28567,28567,28583,28600,28600,28617,28617,28633,28633,28650,28650,28667,28668,28683,28683,28700,28700,28717,28717,28733,28734,28750,28750,28767,28783,28784,28805,28806,28829,28830,28837,28869,28870,28893,28894,28909,28910,28926,28941,28950,28967,28997,29014,29037,29038,29069,29085,29094,29109,29133,29134,29157,29158,29165,29183,29200,29217,29233,29234,29250,29267,29267,29286,29301,29325,29326,29341,29350,29367,29383,29384,29400,29400,29429,29430,29454,29461,29470,29483,29501,29517,29533,29550,29550,29574,29574,29583,29600,29600,29616,29638,29638,29654,29666,29683,29683,29700,29716,29733,29750,29750,29766,29789,29789,29800,29800,29816,29833,29833,29850,29866,29866,29883,29883,29900,29916,29916,29916,29933,29950,29950,29966,29966,29966,29983,29984,30000,30000,30016,30036,30050,30050,30066,30086,30100,30117,30149,30157,30157,30189,30205,30216,30237,30254,30333,30341,30342,30365" d="m283.5,266c-1.71466,1.08401 -2.21524,1.93912 -3.10001,2c-0.89786,0.0618 -1.75018,0.01346 -2.39999,0.52084c-0.76804,0.59967 -1.26816,1.32291 -2.13599,1.46848c-0.99835,0.16748 -1.73627,0.16779 -2.41217,0.65802c-0.66428,0.48181 -1.62656,0.66891 -2.29916,1.05716c-0.92926,0.53638 -1.64081,1.19336 -2.35269,1.29102c-0.89255,0.12244 -1.65472,0.56619 -2.62149,0.88315c-0.67447,0.22113 -1.69891,0.23431 -2.46783,0.55734c-0.74875,0.31454 -1.51416,1.05966 -2.31067,1.44266c-0.85159,0.40952 -1.46042,0.77496 -2.19998,1.41684c-0.66669,0.57864 -1.4946,0.79776 -2.20001,1.2045c-0.79404,0.45782 -1.68846,0.80298 -2.25717,1.2045c-0.87651,0.6188 -1.58743,0.94647 -2.48566,1.24283c-0.85449,0.28192 -1.23901,0.99084 -1.80984,1.6955c-0.59178,0.7305 -1.32529,1.05734 -1.89915,1.71884c-0.58376,0.67288 -0.89536,1.49048 -1.45717,1.98566c-0.75896,0.66895 -1.67006,0.99866 -2.25768,1.65268c-0.55266,0.61511 -1.19196,1.22449 -1.3335,2.10001c-0.14607,0.90353 -0.649,1.51007 -1.09967,2.22131c-0.41614,0.65674 -0.81183,1.65298 -0.89883,2.47736c-0.09479,0.89825 -0.68623,1.62445 -0.94417,2.50583c-0.24268,0.82925 -0.05716,1.6955 -0.05716,2.67398c0,0.82019 0,1.6575 0,2.67419c0,0.69464 0,1.71133 0,2.64731c0,0.90002 0,1.80002 0,2.70001c0,0.79999 -0.00073,1.70001 0,2.63599c0.00067,0.84802 -0.15366,1.81305 0.35716,2.60236c0.47592,0.73535 1.5143,0.9216 1.64284,1.76166c0.12169,0.79526 0.60797,1.60266 1.2,2.20001c0.59731,0.60266 1.36119,1.25732 1.74733,2.09998c0.35234,0.76889 0.76846,1.43698 1,2.34818c0.19563,0.76987 0.89233,1.22879 1.53185,1.87268c0.64055,0.64493 0.78694,1.69626 1.32216,2.27914c0.56819,0.6188 0.89691,1.58084 1.55583,2.14734c0.68765,0.59122 1.46597,0.82706 1.63834,1.75269c0.17296,0.92886 0.85443,1.34879 1.00317,2.18665c0.16409,0.92432 -0.06383,1.71274 0.52216,2.5925c0.47063,0.70654 1.28668,1.17377 1.46851,2.12085c0.16969,0.88391 0.01067,1.81067 0.01067,2.72131c0,0.85333 0,1.79333 0,2.67868c0,0.79999 0,1.63599 0,2.65268c0,0.69464 0.08736,1.7493 -0.22166,2.66882c-0.245,0.729 -0.62927,1.30789 -1.26233,2.07718c-0.65506,0.79602 -1.34933,1.43466 -1.88,1.96533c-0.73601,0.73599 -1.33601,1.336 -1.936,1.93597c-0.70001,0.70001 -1.20001,1.20001 -1.90134,1.90134c-0.55583,0.55585 -1.28398,1.284 -1.81949,1.81952c-0.58049,0.58051 -1.36763,1.39001 -1.97917,1.95831c-0.58913,0.54745 -1.39629,1.13931 -1.97917,1.5c-0.85072,0.52643 -1.47238,1.13165 -2.50482,1.43683c-0.67059,0.19821 -1.66609,0.32809 -2.26868,0.84567c-0.7805,0.67038 -1.24715,1.263 -1.84866,1.75433c-0.77301,0.63144 -1.5976,1.07544 -2.39867,1.48401c-0.78828,0.40207 -1.55705,0.74432 -2.37466,1.41068c-0.53969,0.43985 -1.27802,1.242 -1.8,1.76398c-0.65868,0.65866 -1.3045,1.3045 -1.92534,1.92535c-0.59999,0.60001 -1.29999,1.29999 -1.89999,1.89999c-0.60001,0.60001 -1.4023,1.24075 -1.71466,1.88535c-0.43105,0.8895 -0.37227,1.76294 -0.85468,2.51334c-0.53127,0.82639 -1.31419,1.39044 -1.79466,1.98666c-0.71631,0.88889 -0.95422,1.61218 -1.2,2.36398c-0.29707,0.90872 -0.41226,1.8551 -0.86134,2.65067c-0.41003,0.72638 -0.63525,1.49417 -1,2.42535c-0.2733,0.69769 -0.56424,1.67447 -0.57466,2.49597c-0.01082,0.85327 0,1.79468 0,2.84534c0,0.66934 0,1.43466 0,2.43784c0,0.85266 0,1.81702 0,2.6315c0,0.8685 0,2.064 0,2.664c0,0.89999 -0.00583,2.10004 0.00133,2.70001c0.01074,0.90015 0.04642,1.80649 0.22017,2.69998c0.17662,0.90823 0.38356,1.50183 0.7785,2.70001c0.19719,0.59824 0.45926,1.47546 0.8,2.22934c0.44775,0.99066 0.94814,1.55252 1.39999,2.54001c0.33669,0.73578 0.58389,1.5546 1,2.54666c0.28889,0.68875 0.61414,1.36243 1,2.36798c0.31148,0.81171 0.47102,1.37506 0.90001,2.39435c0.37497,0.89096 0.91751,1.74271 1.29999,2.30701c0.62947,0.92871 0.89125,1.63028 1.23601,2.39999c0.24016,0.53619 0.8367,1.53827 1.364,2.19382c0.50533,0.62823 1.10486,1.42804 1.62534,2.22086c0.53011,0.80746 1.01717,1.40497 1.54933,1.96399c0.7892,0.82901 1.32533,1.336 1.992,2.00266c0.66934,0.66934 1.2357,1.23999 2.03333,2.03317c0.39896,0.39673 0.96506,1.0083 1.8,1.63351c0.78029,0.58426 1.46487,0.90643 2.42149,1.48816c0.54013,0.32846 1.3898,0.88821 1.97984,1.27982c0.89963,0.59708 1.489,1.00977 2.39867,1.56268c0.59386,0.36096 1.49316,0.83026 2.38933,1.20001c0.5706,0.23544 1.65353,0.6145 2.349,0.93597c0.8119,0.37531 1.6879,1.05026 2.32867,1.40002c0.8622,0.47064 1.49498,0.60172 2.493,0.89999c0.67299,0.20114 1.87683,0.5824 2.59833,0.89999c0.64607,0.28439 1.64064,0.81192 2.27766,1.10001c0.92297,0.41742 1.70819,0.72299 2.53867,0.96399c1.04913,0.30444 1.77487,0.33887 2.62085,0.48868c1.01529,0.17978 1.60596,0.46512 2.60449,0.94733c0.80118,0.3869 1.38373,0.71152 2.40134,0.91599c0.82529,0.16583 1.76834,0.23834 2.55133,0.43668c0.82538,0.20908 1.87842,0.49588 2.59467,0.59467c0.90289,0.12454 1.87466,0.27203 2.68866,0.478c0.86905,0.21991 1.76102,0.43649 2.673,0.51752c0.63123,0.05609 1.66168,0.05649 2.8335,0.05716c0.42416,0.00024 1.29752,0 2.17084,0c0.83334,0 2.23193,-0.02762 3.02417,0.02084c0.66043,0.04041 1.64984,0.3688 2.46249,0.6265c0.98669,0.3129 1.79999,0.34732 2.80002,0.35266c0.79999,0.00427 1.80106,-0.03186 2.59998,0.01068c0.80237,0.04272 1.60165,0.27747 2.47202,0.59998c1.06006,0.39279 1.69214,0.59717 2.36801,0.77869c0.99396,0.26697 2.0914,0.53024 2.83914,0.58981c0.85175,0.06784 1.78217,0.02084 2.57266,0.02084c1.02667,0 1.92734,0 2.54684,0c1.00583,0 1.85849,0 2.82266,0c0.80402,0 1.62601,0 2.65701,0c0.88,0 1.90015,0 2.72034,0c0.83731,0 1.85849,0 2.60583,0c0.99548,0 1.7955,0 2.79532,0c0.77933,0 1.77884,0 2.55283,0c0.90002,0 1.76334,0 2.74734,0c0.98401,0 1.67581,0.04562 2.61734,-0.00134c0.85504,-0.04266 1.64877,-0.28909 2.63199,-0.57333c0.91562,-0.26468 1.77527,-0.36557 2.57233,-0.86798c0.5625,-0.35455 1.09378,-0.96371 2.09967,-1.31451c0.77829,-0.27142 1.64243,-0.21201 2.65717,-0.46432c0.92105,-0.22903 1.50839,-0.60443 2.52151,-1.07401c0.79126,-0.36676 1.61066,-0.53278 2.39999,-0.72534c1.01785,-0.24829 1.56863,-0.72964 2.39999,-1.27383c0.77335,-0.5062 1.63364,-0.66104 2.28534,-0.87332c1.02338,-0.33331 1.81503,-0.85223 2.362,-1.18384c1.03171,-0.62549 1.72327,-0.98331 2.466,-1.44684c0.7572,-0.47256 1.43616,-1.04388 2.25601,-1.39999c0.73572,-0.31958 1.54495,-0.53143 2.54398,-0.71866c0.83768,-0.15698 1.76505,-0.68591 2.31201,-1.23199c0.65393,-0.65289 1.4295,-0.66846 2.35333,-1.07236c0.70901,-0.31 1.32816,-1.11511 2.04218,-1.77832c0.56906,-0.52856 1.37695,-1.11609 1.95831,-1.47916c0.9978,-0.62314 1.59103,-1.125 2.42084,-1.49551c0.7825,-0.3494 1.35449,-1.05899 1.70984,-1.7825c0.37958,-0.77283 0.96042,-1.2247 1.72351,-2.24283c0.43417,-0.57925 0.80099,-1.17719 1.04532,-2.19983c0.18329,-0.76712 0.37958,-1.758 0.76868,-2.49567c0.41382,-0.78455 1.0065,-1.40872 1.64734,-2.06168c0.63202,-0.64398 0.70081,-1.59012 0.70532,-2.49017c0.00461,-0.91931 -0.1416,-1.80063 0.2215,-2.73132c0.27432,-0.70313 0.94452,-1.31183 1.25766,-2.06299c0.4538,-1.08865 0.48236,-1.90564 0.51016,-2.69702c0.03259,-0.92746 -0.01266,-1.74078 0.01202,-2.74664c0.01782,-0.72595 0.22537,-1.71283 0.49866,-2.51468c0.34006,-0.99774 0.47333,-1.78894 0.49866,-2.51468c0.03513,-1.0058 0.22369,-2.02789 0.42667,-2.74664c0.22314,-0.79019 0.48453,-1.81378 0.53867,-2.492c0.08597,-1.07718 0.03601,-1.87201 0.03601,-2.73068c0,-0.86331 0,-1.89066 0,-2.83731c0,-0.67868 0,-1.65735 0,-2.43134c0,-0.909 0,-1.70901 0,-2.66852c0,-0.79349 0,-1.80948 0,-2.7735c0,-0.77332 0,-1.81516 0,-2.59067c0,-1.048 0.06378,-1.7645 -0.05716,-2.61017c-0.1456,-1.01816 -0.63742,-1.7338 -0.85751,-2.71915c-0.19391,-0.86804 -0.08041,-1.66577 -0.4425,-2.53802c-0.29776,-0.71729 -1.09521,-1.50027 -1.47617,-2.34732c-0.29474,-0.65533 -0.13806,-1.65771 -0.452,-2.48401c-0.27115,-0.71365 -0.89545,-1.64777 -1.41467,-2.21149c-0.57919,-0.62881 -1.33124,-1.45367 -1.68933,-2.12985c-0.35727,-0.67465 -0.51608,-1.75848 -1.17999,-2.37466c-0.53833,-0.49963 -1.54437,-0.77863 -2.069,-1.5c-0.51636,-0.71002 -0.66681,-1.67087 -1.52832,-2.29999c-0.62234,-0.45447 -1.36624,-0.77609 -2.08069,-1.29999c-0.65283,-0.4787 -1.41928,-0.97668 -2.09998,-1.40002c-0.91534,-0.56927 -1.59952,-1.36249 -2.15268,-1.77914c-0.7435,-0.56003 -1.68939,-0.63818 -2.5,-1.04169c-0.86057,-0.42834 -1.47079,-0.98795 -2.10016,-1.57916c-0.6485,-0.60919 -1.35849,-1.15726 -2.1105,-1.46399c-0.96112,-0.39203 -1.82214,-0.26581 -2.76782,-0.6575c-0.66916,-0.27716 -1.29248,-1.12033 -1.90686,-1.57849c-0.73526,-0.54828 -1.50391,-0.9061 -2.51334,-1.116c-0.7569,-0.15741 -1.67456,-0.44186 -2.39999,-0.80002c-0.80038,-0.39514 -1.70575,-0.52914 -2.37598,-0.89465c-0.97443,-0.5314 -1.55713,-1.10233 -2.47351,-1.33667c-0.76959,-0.19681 -1.39529,-0.82736 -2.06168,-1.35266c-0.59406,-0.46829 -1.51651,-1.02795 -2.17416,-1.5c-0.74188,-0.5325 -1.48718,-1.0527 -2.09515,-1.67917c-0.61325,-0.6319 -1.12595,-1.19833 -1.82217,-1.60486c-0.82617,-0.48239 -1.62485,-1.13272 -2.03201,-1.91599c-0.33835,-0.65088 -0.85284,-1.42236 -1.1095,-2.29999c-0.25311,-0.8656 -0.02325,-1.80066 -0.05716,-2.70001c-0.02859,-0.75879 -0.38748,-1.63892 -0.64734,-2.34732c-0.3667,-0.99973 -0.35266,-1.95267 -0.35266,-2.85269c0,-0.89999 0,-1.79999 0,-2.59998c0,-0.836 -0.00366,-1.85269 0,-2.54733c0.00534,-1.01672 0.44235,-1.7645 0.83334,-2.65268c0.28952,-0.65765 -0.00067,-1.61966 0.1875,-2.5c0.1814,-0.84863 1.02039,-1.4635 1.57916,-2.13599c0.54214,-0.6525 0.8519,-1.39517 1.49982,-2.3425c0.43311,-0.63324 0.8815,-1.42099 0.90018,-2.3215c0.01865,-0.8985 0.60767,-1.43918 0.96399,-2.13602c0.43457,-0.84982 0.69131,-1.50647 0.98334,-2.27832c0.24863,-0.65717 0.34415,-1.68155 0.62735,-2.44968c0.34924,-0.9473 0.25916,-1.87177 0.51065,-2.63599c0.3028,-0.92014 0.86316,-1.68121 0.90399,-2.37466c0.06281,-1.06638 0.01068,-1.92535 0.01068,-2.82535c0,-0.79999 0,-1.70001 0,-2.60001c0,-0.92084 0,-1.884 0,-2.57465c0,-1.07269 0,-1.992 0,-2.82535c0,-0.97849 0,-1.6955 0,-2.63599c0,-0.84802 0.25046,-1.74811 -0.02133,-2.72803c-0.22668,-0.81729 -1.04916,-1.06323 -1.957,-1.73599c-0.61221,-0.45367 -0.91187,-1.36502 -1.46432,-2.22131c-0.35156,-0.54492 -1.05197,-1.16028 -1.496,-2.04269c-0.40759,-0.80997 -0.82834,-1.38791 -1.54535,-2.12131c-0.51987,-0.53174 -1.06799,-1.09021 -1.63065,-1.91336c-0.50818,-0.74347 -0.86398,-1.71503 -1.58536,-2.23965c-0.71002,-0.51636 -1.60373,-0.71478 -2.29999,-1.36166c-0.60327,-0.56049 -1.44318,-0.88495 -2.29999,-1.35266c-0.74533,-0.40686 -1.31229,-1.00406 -1.98535,-1.56332c-0.66916,-0.55603 -1.36877,-0.89386 -2.31467,-1.07333c-0.88428,-0.16779 -1.89587,0.17239 -2.59866,-0.29602c-0.79532,-0.53012 -0.96799,-1.548 -1.80133,-1.71466l-0.79999,-0.08533l-0.80002,-0.48935" id="svg_6" stroke-width="2" stroke="#000" fill="none"/>
  <path t="33062,33181,33197,33221,33237,33309,33325,33414,33414,33429,33445,33445,33454,33466,33484,33500,33500,33516,33516,33533,33550,33550,33566,33566,33583,33583,33600,33616,33633,33633,33650,33650,33666,33683,33701,33716,33716,33733,33733,33750,33750,33750,33750,33766,33766,33766,33783,33783,33805,33816,33834,33850,33866,33866,33883,33883,33900,33900,33916,33933,33933,33950,33950,33966,33983,34000,34021,34061,34069,34069,34077,34093,34117,34117,34134,34150,34166,34166,34183,34200,34216,34216,34233,34233,34250,34266,34283,34283,34300,34316,34316,34333,34350,34366,34366,34383,34405,34405,34421,34421,34438,34454,34470,34483,34483,34500,34516,34516,34542,34542,34550,34589,34605,34616,34616,34633,34709,34741,34781,34781,34797,34814,34814" d="m297.5,303c-1.70001,0 -2.60001,0 -3.5,0c-0.89999,0 -1.80655,-0.10703 -2.70001,0.00134c-0.9198,0.11157 -1.50116,0.702 -2.19998,1.39865c-0.70099,0.69885 -1.35544,1.13446 -1.57916,2.10001c-0.20319,0.87701 0.03351,1.8017 -0.02219,2.70132c-0.04257,0.68784 -0.39398,1.64713 -0.79999,2.31467c-0.53622,0.88168 -1.13651,1.57736 -1.19733,2.36935c-0.07278,0.94788 -0.00134,1.71597 -0.00134,2.71014c0,0.74734 0,1.76852 0,2.70901c0,0.86215 0,1.6955 0,2.67398c0,0.82019 -0.01019,1.72159 0,2.62152c0.01044,0.92102 0.17148,1.74594 0.61066,2.57465c0.44086,0.83185 1.03925,1.47595 1.556,2.15869c0.5043,0.66626 1.03528,1.45853 1.43466,1.98398c0.58588,0.77078 1.18057,1.44315 1.74152,2.02103c0.76181,0.78482 1.42212,1.5061 2.25717,1.65097c0.88681,0.15384 1.79999,0.01068 2.7045,0.01068c0.86215,0 1.73611,-0.12222 2.67416,0.22134c0.69196,0.25342 1.50259,0.73181 2.36865,0.77417c1.02612,0.05017 1.974,0.00449 2.65268,0.00449c0.97849,0 1.79868,0 2.70001,0c0.89999,0 1.81622,0.15976 2.69998,-0.01068c0.94284,-0.18185 1.33691,-1.02621 1.68402,-1.78931c0.38858,-0.85428 0.89798,-1.61017 0.91599,-2.52133c0.01688,-0.85318 -0.20892,-1.88727 0.22134,-2.55753c0.46783,-0.72876 0.77332,-1.30646 0.77866,-2.36398c0.00433,-0.85718 0,-1.75717 0,-2.51434c0,-0.89551 0,-1.75882 0,-2.72198c0,-0.93152 0.00061,-1.84216 0,-2.6955c-0.00067,-0.94 -0.21457,-1.79544 -0.57468,-2.42535c-0.49405,-0.8642 -0.90182,-1.6311 -1.30399,-2.5c-0.30643,-0.66202 -0.74884,-1.48392 -1.32135,-2.10132c-0.61865,-0.66718 -1.01157,-1.51126 -1.5,-2.08884c-0.6716,-0.79419 -1.1759,-1.30405 -1.73599,-2.10983c-0.47,-0.67615 -1.12634,-1.24884 -1.97467,-1.57468c-0.88074,-0.33829 -1.55319,-0.63687 -2.56781,-0.90384c-0.80167,-0.21094 -1.45044,-0.49219 -2.24301,-1c-0.74673,-0.47845 -1.80621,0.02457 -2.47852,-0.17865c-0.87527,-0.26456 -1.5986,-0.91425 -2.5,-0.94284c-0.89969,-0.02853 -1.68533,0 -2.62534,0l-1.008,0l-0.79199,0" id="svg_7" stroke-width="2" stroke="#000" fill="none"/>
  <path t="35749,35789,35789,35798,35814,35814,35829,35845,35845,35854,35854,35866,35866,35883,35883,35900,35900,35900,35916,35916,35916,35934,35934,35950,35966,35966,35983,35983,36000,36000,36016,36016,36033,36033,36050,36050,36050,36066,36066,36083,36100,36116,36116,36116,36133,36133,36133,36150,36150,36166,36166,36183,36183,36201,36216,36233,36250,36250,36294,36342,36550,36582,36590,36606,36616,36633,36650,36650,36667,36667,36683,36683,36710,36710,36718,36750,36782,36790,36806,36846,36846,37022,37022,37046,37056,37066,37083,37083,37100,37100,37116,37116,37133,37150,37166,37184,37214,37215,37230,37254,37286,37310,37334,37382,37398,37638,37638,37662,37678,37687,37710,37734,37742,37790,37806,37806,37854,37886,37918,37950,37990,38014,38030,38030,38038,38038,38049,38066,38083,38099,38099,38117,38133,38149,38149,38166,38166,38190,38206,38206,38246,38270,38270,38294,38294,38310,38326,38326,38334,38358,38374,38374,38390,38399,38399,38416,38438,38462,38462,38486,38518,38582,38606,38726,38726,38782,38822,38846,38870,38926" d="m283.5,391c1,-1 1.78391,-1.11459 2.52084,-1.5c0.78464,-0.41034 1.65378,-0.49466 2.59515,-0.5c1.05063,-0.00595 1.70935,0 2.71735,0c0.79199,0 1.81934,0 2.51398,0c1.04868,0 1.70734,0 2.70602,0c0.9675,0 1.64581,0 2.90366,0c0.771,0 1.43399,0 2.44168,0c0.94415,0 1.84866,0 2.76797,0c0.83334,0 1.81201,0 2.586,0c0.90451,0 1.65186,0 2.64734,0c0.80002,0 1.80002,0 2.60001,0c1,0 1.79999,0 2.60001,0c0.99548,0 1.93405,0.17264 2.87915,-0.02084c0.87149,-0.17841 1.67969,-0.86331 2.36752,-0.94315c0.83511,-0.09692 1.83731,-0.03601 2.65332,-0.03601c0.81601,0 1.81931,0.06052 2.68933,-0.03601c1.02109,-0.11328 1.7648,-0.53711 2.64401,-0.79733c0.74017,-0.21909 1.70004,-0.12021 2.56665,-0.59198c0.73248,-0.39877 1.56668,-0.79526 2.20001,-1.14935c0.86124,-0.48151 1.78934,-0.436 2.39999,-0.92532c0.61066,-0.48932 1.76868,-0.55814 1.99551,0.2045c0.25531,0.85834 -0.01379,1.70636 0.00464,2.617c0.01801,0.88971 0.21005,1.88242 0.49985,2.65765c0.32108,0.85889 0.49466,1.64612 0.5,2.50485c0.00537,0.86328 0.00174,1.87619 0.5,2.51599c0.4808,0.6174 0.38858,1.56958 0.85718,2.29999c0.51318,0.79993 1.26544,1.27829 1.84149,1.90002c0.53784,0.58047 0.91861,1.63828 0.28049,2.27914c-0.63974,0.64249 -1.68985,0.46719 -2.44983,0.60617c-1.05121,0.19226 -1.76767,0.53214 -2.69598,0.74802c-0.78409,0.18234 -1.73334,0.16666 -2.63333,0.16666c-0.90002,0 -1.80002,0 -2.70001,0c-0.79999,0 -1.70001,0 -2.60001,0c-0.89999,0 -1.79999,0 -2.69998,0c-0.90002,0 -1.80002,0 -2.70001,0c-0.79999,0 -1.70151,0.0545 -2.5,0.5c-0.797,0.44467 -1.4834,0.91748 -2,1.5c-0.53448,0.60266 -0.90985,1.42575 -1.60001,2.09982c-0.57892,0.56543 -1.29178,0.98965 -1.95267,1.54752c-0.58655,0.49512 -1.36969,1.03891 -2.24731,1.2955c-0.86685,0.25345 -1.86667,0.05716 -2.70001,0.05716c-0.83334,0 -1.6955,0 -2.60001,0c-0.89999,0 -1.81067,0 -2.72131,0c-0.85333,0 -2.07001,0.38391 -2.59335,-0.28665c-0.54398,-0.69699 -0.0466,-1.71411 -0.08548,-2.69183c-0.02859,-0.71872 -0.51541,-1.52667 -1.19986,-2.22153c-0.49622,-0.50375 -1.17548,-1.22537 -1.90015,-1.89981c-0.51895,-0.48297 -1.38135,-0.84875 -2.24716,-0.89569c-1.01532,-0.05502 -1.80069,-0.37189 -2.45267,-0.72049c-0.84741,-0.45309 -1.67169,-0.91321 -2.52133,-1.16251c-0.82568,-0.24228 -1.79333,-0.12149 -2.67868,-0.12149c-0.79999,0 -1.42899,-0.37064 -2.2215,-0.87851c-0.74673,-0.47852 -1.55591,-0.24579 -2.37851,-0.69617c-0.78036,-0.42728 -1.70654,-0.31827 -2.60001,-0.42667c-0.91962,-0.11157 -1.61853,-0.65378 -1.78931,-1.59866c-0.15637,-0.8652 0.59998,-1.42532 1.37866,-1.836l0.52664,-0.76266" id="svg_8" stroke-width="2" stroke="#000" fill="none"/>
  <path t="41422,41509,41509,41517,41517,41517,41533,41533,41533,41533,41549,41549,41549,41566,41566,41566,41566,41566,41566,41583,41583,41583,41583,41583,41583,41599,41599,41599,41629,41725,42205,42214,42233,42233,42249,42249,42249,42266,42266,42283,42283,42299,42299,42316,42316,42316,42334,42334,42349,42349,42366,42366,42383,42383,42384,42399,42416,42433,42449,42449,42466,42466,42484,42499,42516,42516,42533,42549,42549,42566,42583,42583,42599,42599,42616,42633,42633,42649,42666,42683,42699,42699,42717,42733,42749,42766,42783,42799,42799,42822,42838,42854,42869,42901,42909,42909" d="m292.5,304c0,2.60449 -0.00616,3.45718 0.00015,4.42151c0.00534,0.81454 0.00995,1.6904 0.22119,2.87848c0.10751,0.60474 0.37369,1.49557 0.49466,2.10001c0.2392,1.19525 0.26999,2.14154 0.27951,2.81433c0.01584,1.11893 0.00449,1.95767 0.00449,2.86835c0,0.47983 -0.00003,1.48349 0,2.00534c0.00009,1.63281 -0.00439,2.19205 0.01068,3.30533c0.00735,0.54419 0.03061,1.58368 0.07465,2.06665c0.14615,1.603 0.36584,2.17706 0.63068,3.04935c0.29193,0.96155 0.284,1.89066 0.284,2.79065c0,0.90002 0,1.80035 0,2.51434c0,0.95502 0,1.70651 0,2.50299c0,1.22552 0,2.07819 0,3.08267c0,0.80002 0,1.80002 0,2.60001c0,1 0,1.79999 0,2.60001c0,1 0,1.79999 0,2.79999c0,0.80002 0,1.80002 0,2.60001c0,1 0,1.78934 0,2.51468c0,0.96448 -0.09546,1.92987 0.284,2.68533c0.43558,0.86719 0.71375,1.55716 0.716,2.45267c0.00217,0.86331 -0.00009,1.82648 0,2.758c0.00009,0.91049 -0.05081,1.77576 0.42532,2.53867c0.41818,0.67007 0.46606,1.40936 0.58536,2.42532c0.1131,0.9632 0.59262,1.59143 0.86783,2.60382c0.19058,0.70105 0.12149,1.6575 0.12149,2.50552c0,0.86331 -0.00006,1.88 0,2.716c0.00009,0.89999 0.24213,1.75375 0.64734,2.5c0.41327,0.76111 0.35266,1.69998 0.35266,2.59998c0,0.90002 0,1.80002 0,2.70001c0,0.79999 -0.18372,1.7265 0.03601,2.60001c0.21704,0.86279 0.87866,1.60001 0.96399,2.5l0,0.89999l0,0.79999" id="svg_9" stroke-width="2" stroke="#000" fill="none"/>
  <path t="43894,43965,43965,43974,43974,43983,43983,43999,43999,43999,43999,44016,44016,44016,44016,44033,44033,44033,44033,44049,44049,44049,44049,44066,44066,44066,44066,44066,44083,44083,44083,44083,44083,44099,44099,44099,44099,44099,44116,44116,44116,44116,44133,44133,44133,44133,44149,44149,44149,44166,44166,44183,44183,44199,44199,44199,44216,44216,44216,44233,44233,44233,44249,44249,44249,44266,44266,44266,44283,44283,44284,44299,44299,44299,44316,44316,44316,44333,44333,44333,44349,44349,44349,44366,44366,44366,44383,44383,44383,44399,44399,44416,44416,44416,44433,44449,44449,44466,44483,44509,44509,44533,44557,44565,44583" d="m297.5,302c0,2.79999 0,3.60001 0,4.60001c0,0.79999 0,1.60016 0,2.42084c0,1.14581 0,1.94083 0,2.52081c0,0.94501 0,1.97968 0,2.711c0,1.12201 0,1.86334 0,2.92603c0,0.66864 -0.00031,1.64667 0,2.30533c0.00067,1.40265 -0.00012,2.16309 0.03601,2.96265c0.03796,0.84058 0.11688,1.72189 0.24933,2.63736c0.13651,0.94348 0.22672,1.41772 0.41916,2.36331c0.28262,1.3887 0.39233,1.83191 0.59549,2.6955c0.19693,0.83707 0.39832,1.65311 0.70001,2.85718c0.2002,0.79895 0.39612,1.59372 0.63599,2.36401c0.23517,0.75522 0.68036,1.81705 1.01218,2.48331c0.32626,0.65506 0.84741,1.61844 1.10901,2.67386c0.1778,0.71735 0.20804,1.45947 0.29099,2.16898c0.14844,1.26984 0.32489,2.0593 0.75317,2.82184c0.51559,0.91797 0.97601,1.44528 1.146,2.49783c0.12427,0.76947 0.19806,1.82941 0.40533,2.53751c0.26746,0.91376 0.53574,1.87289 0.62201,2.67801c0.08795,0.82098 0.21982,1.86224 0.46133,2.54932c0.24182,0.68796 0.68738,1.63885 0.95334,2.46133c0.27838,0.86084 0.47461,1.7608 0.5535,2.65952c0.07605,0.86642 0.05716,1.93784 0.05716,2.65182c0,0.90533 -0.01727,1.87442 0.01068,2.67801c0.02863,0.82281 0.18381,1.86224 0.42532,2.54932c0.24182,0.68796 0.68738,1.63885 0.95334,2.46133c0.27838,0.86084 0.47461,1.7608 0.5535,2.65952c0.07605,0.86642 0.05716,1.93784 0.05716,2.65182c0,0.90533 0,1.87399 0,2.67801c0,0.82199 0,1.85315 0,2.75381c0,1.02084 0,1.81018 0,2.53552c0,0.98532 0,1.96933 0,2.65997c0,1.06818 0,1.92535 0,2.82535c0,0.79999 0,1.70001 0,2.60001l0,0.89999l0,0.89999" id="svg_10" stroke-width="2" stroke="#000" fill="none"/>
  <path t="45485,45565,45573,45574,45583,45583,45599,45599,45616,45616,45616,45634,45634,45634,45649,45649,45649,45666,45666,45666,45666,45683,45683,45699,45699,45699,45716,45716,45716,45716,45733,45733,45733,45733,45749,45749,45749,45766,45766,45766,45766,45783,45783,45783,45783,45799,45799,45799,45799,45816,45816,45816,45833,45833,45833,45849,45849,45849,45866,45866,45866,45883,45883,45899,45899,45916,45916,45933,45933,45933,45949,45949,45966,45966,45983,45983,45983,45999,45999,46016,46016,46033,46033,46033,46049,46049,46049,46066,46066,46066,46083,46083,46083,46099,46116,46116,46134,46134,46149,46149,46166,46166,46205,46245" d="m300.5,304c1.83334,0.16666 1.99811,1 2,1.75717c0.00226,0.89551 0.06479,1.76703 0.42532,2.63882c0.27515,0.66531 0.49557,1.65692 0.54935,2.29068c0.08585,1.01184 0.14734,1.99161 0.38251,2.8035c0.21356,0.73724 0.75488,1.92703 0.93832,2.46698c0.28784,0.8472 0.55045,2.04123 0.62048,2.64151c0.10251,0.87854 0.10672,1.73026 0.36801,2.716c0.23618,0.89093 0.57336,1.68155 0.69067,2.50665c0.09818,0.69046 0.23334,1.82452 0.38699,2.48853c0.16534,0.71454 0.48877,1.82306 0.9595,2.86865c0.30396,0.67517 0.68842,1.28622 0.96899,1.91699c0.52502,1.1803 0.65781,2.10318 0.68851,2.7045c0.06119,1.19864 0.01343,2.10498 0.04218,2.72086c0.04507,0.96558 0.1889,2.00278 0.33633,2.73181c0.15164,0.74988 0.33698,1.49756 0.64282,2.58069c0.28586,1.01227 0.5119,1.63803 0.71466,2.56534c0.19568,0.89493 0.26285,1.80096 0.28085,2.70132c0.01801,0.89981 -0.02802,1.79764 0.0405,2.664c0.08493,1.07394 0.29645,1.78909 0.57465,2.42532c0.44986,1.02878 0.91272,1.79514 1.104,2.41068c0.30469,0.98047 0.27789,1.81583 0.56934,2.79999c0.2417,0.81616 0.58884,1.80093 0.716,2.60001c0.15933,1.00119 0.38965,1.58734 0.64734,2.39999c0.3129,0.98669 0.34732,1.79999 0.35266,2.80002c0.00427,0.79999 -0.03186,1.80106 0.01068,2.59998c0.04272,0.80237 0.37076,1.79001 0.63666,2.60001c0.25977,0.79123 0.28128,1.61456 0.51932,2.60001c0.1998,0.82715 0.55792,1.44284 0.74802,2.68533c0.08362,0.54651 0.08307,1.41916 0.08533,2.6145c0.00168,0.8895 -0.0062,1.4642 0,2.53351c0.00534,0.92004 0.06854,1.68723 0.5,2.66666c0.36459,0.82767 0.4212,1.70746 0.72134,2.47867c0.3204,0.82333 0.74612,1.67715 0.77417,2.42584c0.0372,0.9935 0.00449,1.75949 0.00449,2.83832l0,0.85718" id="svg_11" stroke-width="2" stroke="#000" fill="none"/>
  <path t="47094,47165,47173,47173,47182,47182,47182,47199,47199,47199,47216,47216,47216,47216,47233,47233,47233,47233,47233,47249,47249,47249,47249,47249,47266,47266,47266,47266,47282,47282,47282,47299,47299,47299,47316,47316,47332,47332,47332,47332,47349,47349,47366,47366,47366,47366,47383,47383,47383,47383,47399,47399,47416,47416,47416,47432,47432,47449,47449,47466,47466,47482,47483,47483,47500,47500,47516,47516,47532,47532,47549,47566,47566,47582,47583,47599,47599,47616,47633,47649,47667,47683,47699,47699,47699,47717,47733,47757,47757,47781,47805,47821,47869" d="m284.5,313c0.61066,1.63599 1.15326,2.29504 1.47916,3.02084c0.42651,0.94989 0.50159,1.78934 0.5195,2.66449c0.02051,1.00113 0.00134,1.85632 0.00134,2.47632c0,1.005 -0.005,2.09579 0.02084,2.85919c0.02655,0.78406 0.13028,1.98163 0.2645,2.77914c0.1351,0.8028 0.32138,1.60095 0.51599,2.40002c0.2926,1.20145 0.40497,1.59821 0.58801,2.39999c0.18225,0.79828 0.35815,1.59598 0.48917,2.79965c0.08591,0.78931 0.11508,1.92831 0.12015,2.62967c0.00867,1.20129 0.00089,1.94983 0.00134,2.65335c0.00067,1.00131 -0.02737,1.82257 0.08533,2.63333c0.14041,1.0101 0.54071,1.90311 0.91467,2.85065c0.30826,0.7811 0.51813,1.32309 0.71466,2.14935c0.29102,1.22339 0.28317,1.94931 0.452,3.01733c0.10095,0.63879 0.34381,1.68546 0.48068,2.41849c0.20145,1.07874 0.28876,1.76028 0.33182,2.70651c0.03888,0.85431 0.02084,1.85632 0.02084,2.73099c0,0.81067 -0.05624,1.61975 0.08533,2.41068c0.1824,1.01892 0.64694,1.78107 0.82935,2.79999c0.14157,0.79092 0.08533,1.80002 0.08533,2.60001c0,1 -0.0018,1.79999 0,2.60001c0.00226,1 -0.01196,1.81824 0.284,2.79868c0.23657,0.78372 0.62927,1.57547 0.71466,2.39999c0.09894,0.95517 0.39618,1.8432 0.64868,2.60583c0.3237,0.97763 0.24185,1.8075 0.63666,2.71014c0.27457,0.62772 0.71066,1.48529 0.716,2.38535c0.00534,0.89996 -0.07568,1.80328 0.00134,2.70132c0.08368,0.9758 0.39398,1.64713 0.79999,2.31467c0.53622,0.88168 1.15594,1.68063 1.19867,2.48401c0.04248,0.79886 0,1.70001 0,2.60001l0,0.89999l0.01068,0.89999" id="svg_12" stroke-width="2" stroke="#000" fill="none"/>
  <path t="49941,49997,50005,50016,50031,50048,50049,50066,50066,50066,50081,50082,50082,50098,50099,50099,50116,50116,50116,50132,50132,50132,50149,50149,50149,50166,50166,50166,50182,50182,50182,50199,50199,50222,50222,50222" d="m280.5,133c1.79999,0 2.7171,-0.14491 3.5,0.02083c0.85138,0.18024 1.6582,0.87598 2.52084,0.95834c0.97495,0.09308 1.79285,0.00026 2.43631,0.07799c0.97098,0.11729 1.76358,0.38602 2.59018,0.59018c1.02609,0.25343 1.95245,0.34113 2.63666,0.35133c1.00122,0.01494 1.83685,0.00133 2.71735,0.00133c0.8985,0 1.78799,0 2.64151,0c1.03583,0 1.95715,0 2.64114,0c1.00134,0 1.83685,0 2.71735,0c0.8985,0 1.78799,0 2.64151,0c1.03564,0 1.93631,0 2.95715,0l0.78934,0l0.72534,0" id="svg_13" stroke-width="2" stroke="#000" fill="none"/>
  <path t="50909,50988,50988,50997,50997,51004,51021,51031,51048,51065,51081,51082,51098,51099,51116,51116,51131,51132,51132,51149,51149,51165,51166,51182,51182,51198,51216,51237,51253,51266,51282,51282,51299" d="m284.5,157c1,1 1.78607,0.9821 2.64816,1.35716c0.66934,0.2912 1.1987,1.35704 1.96249,1.63217c0.83676,0.30142 1.78934,0.01067 2.69385,0.01067c0.86215,0 1.6955,0 2.67416,0c0.77399,0 1.68298,0 2.483,0c0.95966,0 1.76367,0 2.58566,0c1.03116,0 1.93182,0 2.95267,0c0.78934,0 1.83334,0 2.58932,0c0.91068,0 1.81067,0 2.71066,0c0.90002,0 1.80002,0 2.70001,0l0.79999,0l0.836,0" id="svg_14" stroke-width="2" stroke="#000" fill="none"/>
  <path t="51948,52020,52028,52037,52048,52066,52081,52082,52082,52098,52099,52116,52116,52132,52132,52149,52149,52166,52166,52182,52199,52199,52216,52231,52249" d="m288.5,182c-0.19733,0.716 0.7001,0.98734 1.60001,1c0.90015,0.01266 1.63965,0.4942 2.56665,0.83333c0.64047,0.2343 1.43466,0.166 2.43335,0.16667c0.79999,0.00053 1.79999,0 2.60001,0c0.99982,0 1.96399,0 2.91599,0c0.76801,0 1.70935,0 2.39999,0c0.98401,0 1.96802,0 2.83133,0l0.89551,0l0.95718,0l0.89999,0" id="svg_15" stroke-width="2" stroke="#000" fill="none"/>
  <path t="52900,52964,52980,52996,52996,53004,53016,53016,53032,53049,53066,53066,53083,53099,53099,53116,53116,53132,53132,53149,53166,53196,53220,53276,53284,53284,53308" d="m285.5,202c0.61066,1.564 1.41016,1.98199 2.32132,2c0.85318,0.01686 1.79333,0 2.67868,0c0.79999,0 1.70001,0 2.63599,0c0.84802,0 1.71133,0 2.73868,0c0.94684,0 1.64618,0 2.62534,0c0.78934,0 1.83334,0 2.58932,0c0.91068,0 1.81067,0 2.71066,0c0.90002,0 1.80002,0 2.70001,0l0.79999,0l0.90002,0" id="svg_16" stroke-width="2" stroke="#000" fill="none"/>
  <path t="53885,53965,53981,53981,53989,53998,54016,54032,54048,54049,54066,54066,54066,54066,54082,54082,54082,54098,54116,54116,54132,54132,54132,54148,54229,54253,54309" d="m286.5,222c0.16666,1.83333 1,2 1.79999,2c0.90002,0 1.80002,0 2.70001,0c0.91068,0 1.82166,0 2.54166,0c1.125,0 1.9155,0 2.76901,0c0.59067,0 1.78665,0 2.64767,0c0.771,0 1.73181,0 2.70831,0c0.85419,0 1.83334,0 2.62268,0c0.72534,0 1.79999,0 2.71066,0l0.89999,0l0.89999,0" id="svg_17" stroke-width="2" stroke="#000" fill="none"/>
  <path t="54853,55045,55053,55053,55065,55065,55081,55098,55099,55099,55115,55115,55131,55132,55149,55149,55149,55165,55165,55182,55182,55182,55200,55200,55200,55221,55231" d="m290.5,251c0.88666,0.99867 1.836,1 2.60132,1c0.99417,0 1.74152,0 2.78403,0c0.948,0 1.62,0 2.60931,0c1.03601,0 1.75351,0 2.66699,0c0.80002,0 1.75967,0 2.56369,0c0.82199,0 1.85315,0 2.75381,0c1.02084,0 1.83151,0 2.478,0c1.22552,0 2.022,0 2.7735,0l1.09735,0l0.87201,0" id="svg_18" stroke-width="2" stroke="#000" fill="none"/>
  <path t="56037,56117,56117,56125,56125,56133,56133,56149,56149,56149,56165,56165,56165,56182,56182,56182,56182,56198,56199,56199,56199,56199,56199,56199,56215,56215,56215,56215,56215,56232,56232,56232,56232,56232,56249,56249,56249,56249,56249,56265,56265,56265,56282,56282,56282,56282,56298,56299,56315,56315,56315,56332,56332,56332,56332,56349,56349,56349,56349,56365,56365,56365,56365,56365,56382,56382,56382,56382,56399,56399,56399,56399,56415,56415,56415,56432,56432,56432,56432,56449,56449,56449,56449,56465,56465,56465,56465,56482,56482,56482,56482,56499,56499,56499,56499,56515,56515,56515,56515,56532,56532,56532,56532,56549,56549,56549,56549,56565,56565,56565,56582,56582,56582,56599,56599,56599,56599,56615,56615,56632,56632,56632,56649,56665,56665,56682,56682,56699,56699,56715,56715,56715,56732,56732,56732,56749,56749,56766,56766,56782,56782,56782,56782,56799,56799,56799,56815,56815,56832,56832,56832,56849,56849,56865,56865,56865,56882,56882,56899,56899,56915,56915,56915,56932,56932,56932,56949,56949,56949,56965,56965,56982,56982,56982,56999,56999,56999,57015,57015,57032,57032,57032,57049,57049,57065,57065,57065,57082,57082,57082,57099,57099,57099,57115,57115,57115,57132,57133,57133,57149,57149,57165,57165,57182,57182,57182,57199,57199,57199,57215,57215,57232,57249,57265,57265" d="m289.5,115c0,2.00533 0,2.74934 0,3.85717c0,0.7575 0,1.8045 0,2.6045c0,0.95966 -0.00006,1.76366 0,2.58566c0.00009,1.03133 -0.04041,1.73298 0.08533,2.63667c0.1416,1.01759 0.35498,1.60232 0.48935,2.30666c0.15915,0.83414 0.3085,2.41591 0.34,3.03067c0.03308,0.64627 0.05283,1.31592 0.06448,1.9995c0.02341,1.37289 0.01941,2.04451 0.02084,3.3125c0.00128,1.12534 -0.00717,1.63828 0.02084,2.58334c0.02567,0.86571 0.12643,2.08647 0.26581,2.88333c0.14056,0.80365 0.34198,1.60562 0.60001,2.39999c0.26184,0.80614 0.59656,1.59843 0.92801,2.38934c0.32455,0.77443 0.68353,1.50693 0.94232,2.58916c0.23264,0.97281 0.23233,1.6107 0.24301,2.8215c0.00787,0.89546 -0.00153,1.47917 0,2.31467c0.00226,1.23267 -0.02011,1.92073 0.2215,3.10683c0.11029,0.54147 0.38754,1.38971 0.7785,2.57851c0.19785,0.60161 0.5,1.51584 0.64282,2.15717c0.22333,1.00276 0.31021,2.09959 0.33633,2.86366c0.02679,0.78339 0.02084,1.97917 0.02084,2.77917c0,0.8 0,1.59999 0,2.39999c0,1.19983 0,1.9955 0,2.77917c0,0.76366 0,1.85416 0,2.53549c0,0.96451 0,1.884 0,2.78534c0,0.89999 0,1.8 0,2.7c0,0.9045 0,1.52083 0,2.48534c0,1.03616 0,1.77184 0,2.53549c0,0.78368 0,1.97917 0,2.77783c0,0.79068 0,1.94417 0,3.03467c0,0.68268 0,1.66667 0,2.31934c0,1.01401 0,2.10001 0,2.84734c0,0.74733 0,1.83333 0,2.51601c0,0.98399 0,1.63666 0,3.00533c0,0.73134 0,1.47867 0,2.226c0,1.086 0,2.0955 0,2.73184c0,0.91949 0,2.12083 0,2.72083c0,0.90001 0,2.10001 0,2.7c0,0.90001 -0.00595,2.10005 0.00134,2.69867c0.01074,0.88066 0.00537,1.735 0.284,2.716c0.25497,0.89769 0.72919,1.67833 1.104,2.47467c0.33853,0.71925 0.60022,1.71046 0.61066,2.53217c0.01129,0.88908 -0.00006,1.87833 0,2.65767c0.00009,0.99966 0.00717,1.68872 0.22134,2.56383c0.17996,0.73531 0.4827,1.55638 0.65717,2.75667c0.12704,0.87396 0.11923,1.68599 0.12149,2.5575c0.00229,0.89101 -0.02615,1.81145 0.05716,2.66167c0.08014,0.81792 0.2955,1.7865 0.44284,2.48117c0.14734,0.69467 0.40576,1.95447 0.46399,2.728c0.06531,0.86757 0.03601,1.87651 0.03601,2.72917c0,0.964 0,1.75749 0,2.533c0,1.04182 0,1.81516 0,2.77916c0,0.7515 0,1.548 0,2.7735c0,0.6465 0,1.65717 0,2.45717c0,1 0,1.81067 0,2.68533c0,1 0,1.83551 0,2.716c0,0.89832 0,1.77734 0,2.58432c0,1.04636 0,1.81967 0,2.785c0,0.771 0,1.63202 0,2.828c0,0.59067 0,1.44418 0,2.47983c0,0.90067 0,1.92151 0,2.7215c0,0.80002 0,1.8045 0,2.65717c0,0.96436 0,1.77884 0,2.64734c0,0.89551 0,1.79102 0,2.65952c0,1.06934 0,1.78333 0,2.68866c0,0.96866 0,1.77267 0,2.59467c0,1.03116 0,1.71667 0,2.55133c0,1.00134 0,1.80133 0,2.80133c0,0.80002 -0.02661,1.80145 0.02084,2.64166c0.04126,0.73068 0.25931,1.92584 0.40448,2.59836c0.14551,0.67416 0.4693,1.85248 0.55383,2.79749c0.07687,0.85931 0.02219,1.76251 0.24219,2.66251l0.42599,0.60001" id="svg_19" stroke-width="2" stroke="#000" fill="none"/>
  <path t="58077,58173,58173,58173,58181,58181,58181,58199,58199,58199,58199,58215,58215,58215,58215,58215,58215,58215,58232,58232,58232,58232,58232,58232,58232,58232,58249,58249,58249,58249,58249,58249,58249,58249,58265,58265,58265,58265,58265,58265,58282,58282,58282,58282,58299,58299,58299,58299,58299,58315,58315,58315,58315,58332,58332,58332,58332,58332,58349,58349,58349,58349,58365,58365,58365,58365,58382,58382,58382,58399,58399,58415,58415,58415,58432,58432,58449,58449,58449,58449,58465,58465,58465,58465,58465,58482,58482,58482,58482,58499,58499,58499,58499,58515,58515,58515,58532,58532,58532,58549,58549,58549,58549,58565,58565,58565,58565,58582,58582,58582,58599,58599,58599,58599,58615,58615,58615,58632,58632,58632,58632,58632,58649,58649,58649,58649,58649,58665,58665,58665,58665,58665,58682,58682,58682,58682,58699,58699,58699,58699,58715,58715,58715,58732,58732,58732,58732,58749,58749,58765,58765,58765,58765,58782,58782,58782,58799,58799,58799,58799,58815,58815,58815,58815,58832,58832,58832,58832,58849,58849,58849,58865,58865,58882,58882,58899,58899,58899,58915,58915,58915,58932,58932,58932,58949,58949,58949,58965,58965,58965,58965,58982,58982,58982,58982,58999,58999,58999,59015,59015,59032,59032,59032,59049,59049,59065,59065,59082,59082,59099,59116,59132,59157,59165,59165,59182,59205,59221,59317" d="m301.5,116c0,2.95717 0,3.52084 0,4.40134c0,1.19866 0,1.79866 0,2.69866c0,1.20067 0,1.818 0,2.844c0,0.79733 0,1.72266 0,2.79733c0,0.58733 0,1.20267 0,2.50133c0,0.67534 0,1.36267 0,2.75734c0,0.70016 0,1.40134 0,2.10451c0,1.41632 0,2.13148 0,2.85266c0,0.72816 0,2.2095 0,2.96384c0,0.76033 0,1.52266 0,2.28299c0,0.75433 0,1.49867 0,2.229c0,2.067 0,2.70216 0,3.30833c0,1.12933 0,1.6545 0,2.63083c0,1.29451 0,2.0585 0,2.76651c0,1.00949 0,2.028 0,2.74666c0,0.75067 0,1.52533 0,2.31601c0,1.19865 0,1.99866 0,2.79866c0,0.8 -0.004,2.00002 0.00134,2.8c0.00534,0.80003 0.01416,1.60152 0.08398,2.39999c0.10519,1.20309 0.26733,2 0.41467,2.8c0.14734,0.8 0.34875,1.99858 0.41467,2.79733c0.06439,0.78024 0.07999,1.53064 0.08533,2.86934c0.00327,0.819 0,1.51199 0,2.53333c0,0.8 0,1.8 0,2.60001c0,0.8 0,1.80899 0,2.71432c0,1.12868 0,1.8 0,2.52734c0,0.76733 0,1.95833 0,2.75833c0,0.8 0,1.59999 0,2.39999c0,1.19983 0,1.9955 0,2.77917c0,0.76366 0,2.19933 0,2.86366c0,0.9465 0,1.55583 0,2.75717c0,0.89999 0,1.5 0,2.7c0,0.89999 0,1.5 0,2.7c0,0.60133 0,1.52083 0,2.48534c0,1.03583 0,1.76283 0,2.49384c0,1.0515 0,1.97816 0,2.77016c0,0.75601 0,1.89334 0,2.556c0,1.04401 0,1.72667 0,2.92801c0,0.78749 0,1.62 0,2.63116c0,0.80699 0,1.698 0,2.1675c0,0.972 0,2.46783 0,2.96667c0,0.99066 0,1.96533 0,2.44417c0,1.39049 -0.00729,2.27063 0.01068,3.11049c0.01712,0.80022 0.03479,1.56584 0.21066,2.62534c0.16647,1.00294 0.37177,1.64297 0.49466,2.30533c0.19156,1.03239 0.25436,2.14165 0.30933,2.89067c0.05441,0.74165 0.18109,1.80704 0.39999,2.78934c0.13986,0.62753 0.42661,1.83377 0.48935,2.43466c0.09171,0.8781 0.06693,1.7162 0.08667,2.71867c0.01862,0.94446 0.15857,2.01727 0.28265,2.65067c0.13403,0.68413 0.39142,1.72171 0.54935,2.69867c0.1333,0.82449 0.16132,1.58395 0.16666,2.66667c0.00482,0.9765 0,1.6875 0,2.41849c0,1.08151 0,2.09549 0,2.74817c0,0.65268 0,2.02118 0,2.74817c0,0.73099 0,1.44199 0,2.70883c0,0.771 0,1.64032 0,2.64301c0,0.79999 0,1.80133 0,2.63599c0,0.93066 0,1.71667 0,2.53867c0,1.05869 0,2 0,2.67801c0,0.96866 0,1.77267 0,2.59467c0,1.26999 0,1.97351 0,2.72202c0,1.20132 0,1.90265 0,2.65198c0,0.78134 0,1.97833 0,2.76968c0,0.76733 0,1.49466 0,2.76599c0,0.771 0,1.64032 0,2.64749c0,0.85266 0,1.81668 0,2.61017c0,0.77551 0,1.81601 0,2.668c0,0.95334 0,1.71866 0,2.71283c0,0.91919 0,1.88367 0,2.7045c0,0.90002 0,1.80002 0,2.70001c0,0.79999 0.05716,1.70001 0.5,2.5l0.44284,0.79999l0.05716,0.90002" id="svg_20" stroke-width="2" stroke="#000" fill="none"/>
  <path t="60157,60181,60189,60189,60199,60215,60232,60232,60232,60249,60249,60249,60265,60265,60265,60282,60282,60282,60299,60299,60299,60299,60315,60315,60315,60315,60332,60332,60332,60332,60349,60349,60349,60349,60365,60365,60365,60365,60365,60382,60382,60382,60382,60399,60399,60399,60399,60415,60415,60415,60432,60432,60432,60432,60449,60449,60449,60465,60465,60465,60482,60482,60482,60499,60499,60499,60515,60515,60515,60532,60532,60549,60549,60549,60565,60565,60565,60582,60582,60582,60599,60599,60615,60615,60632,60632,60632,60649,60649,60665,60682,60699,60699,60715,60715,60715,60732,60749,60749,60765,60765,60765,60782,60782,60799,60799,60799,60815,60815,60815,60815,60832,60832,60832,60849,60849,60849,60865,60865,60882,60882,60882,60899,60899,60915,60915,60915,60932,60932,60949,60965,60965,60965,60982,60982,60982,60999,60999,61015,61032,61032,61049,61049,61049,61065,61065,61082,61099,61099,61099,61115,61115,61132,61132,61149,61165,61165,61165,61182,61182,61182,61199,61199,61215,61215,61215,61232,61232,61249,61265,61265,61284,61300,61315,61315" d="m284.5,160c0,1.75717 0,2.65266 0,3.51601c0,0.96317 0,1.793 0,2.81732c0,0.6765 0,1.45201 0,2.5c0,0.94135 0,1.61934 0,2.85201c0,0.55066 0,1.41917 0,2.61467c0,0.59999 0,1.5 0,2.7c0,0.60133 0,1.52083 0,2.48534c0,1.036 0,1.76733 0,2.51466c0,0.74733 0,2.17867 0,2.84734c0,0.65266 0,1.63666 0,2.67433c0,0.74001 0,1.52 0,2.34c0,1.30501 0,2.22101 0,2.68651c0,0.931 0,1.842 0,3.1185c0,0.76399 0,1.472 0,2.48149c0,1.01851 0,1.7345 0,2.46651c0,1.0755 0,2.052 0,2.87999c0,0.75601 0,1.83867 0,2.81067c0,0.69467 0,1.38934 0,2.65184c0,0.78149 0,1.491 0,2.72816c0,0.55066 0,1.41917 0,2.6145c0,0.8895 -0.00607,1.46419 0,2.53349c0.00534,0.94139 0.01828,1.62674 0.22134,2.58801c0.17145,0.81155 0.47095,1.61693 0.65732,2.65717c0.16028,0.89456 0.27768,1.92477 0.474,2.526c0.28003,0.85757 0.53577,1.81573 0.62201,2.62082c0.08795,0.821 0.23099,1.85805 0.45065,2.53868c0.27145,0.84111 0.48358,1.842 0.62735,2.63599c0.18289,1.00998 0.59955,1.77965 0.82584,2.8c0.13123,0.59169 0.12082,1.40001 0.12149,2.58934c0.0004,0.72533 -0.10025,1.6964 0.01068,2.62132c0.11133,0.92824 0.56412,1.58781 0.82266,2.58934c0.20044,0.77643 0.23477,1.52153 0.66666,2.5c0.36533,0.82768 0.45148,1.54994 0.66666,2.66667c0.15201,0.78882 0.45407,1.56036 0.66669,2.5c0.18671,0.82513 0.14597,1.66711 0.17734,2.60533c0.02802,0.83781 0.1301,1.73387 0.3465,2.62799c0.1463,0.60446 0.44669,1.49918 0.74265,2.39984c0.29202,0.88867 0.59491,1.73254 0.77869,2.77866c0.11954,0.68042 0.12082,1.52017 0.12149,2.526c0.00058,0.85266 0,1.81683 0,2.62085c0,0.82199 0,1.85315 0,2.75381c0,1.02084 0,1.82083 0,2.62085c0,0.99548 0,1.74283 0,2.78534c0,0.948 0,1.62448 0,2.39999c0,1.048 0,1.97867 0,2.81332c0,0.99683 0,1.74417 0,2.776c0,0.94684 0,1.64618 0,2.62534c0,0.79999 0,1.60001 0,2.59549c0,0.91919 -0.03976,1.79956 0.16666,2.73785c0.14981,0.68097 0.53775,1.64801 0.71185,2.52383c0.1752,0.88141 0.12149,1.7955 0.12149,2.65881c0,0.86935 -0.0163,1.81769 0.01068,2.75601c0.01581,0.54968 0.13452,1.73276 0.34198,2.61899c0.13361,0.57074 0.53308,1.7677 0.61133,2.45834c0.11087,0.97839 0.03552,1.90134 0.03601,2.64532c0.00067,1.03467 0.14819,1.76901 0.57468,2.64133c0.40131,0.8208 0.41464,1.53867 0.42532,2.60684l0,0.85718l0,0.89999l0,0.79999" id="svg_21" stroke-width="2" stroke="#000" fill="none"/>
  <path t="62189,62220,62220,62229,62229,62236,62249,62265,62265,62265,62282,62282,62282,62298,62299,62299,62315,62315,62315,62332,62332,62349,62349,62349,62365,62365,62365,62365,62382,62382,62382,62382,62382,62399,62399,62399,62415,62415,62415,62415,62432,62432,62449,62449,62449,62465,62465,62465,62465,62482,62482,62499,62499,62499,62515,62515,62515,62515,62532,62532,62549,62549,62549,62549,62565,62565,62565,62565,62582,62582,62599,62599,62599,62599,62615,62615,62615,62632,62632,62649,62649,62649,62665,62665,62665,62682,62682,62699,62699,62699,62715,62715,62732,62732,62749,62749,62749,62765,62765,62765,62782,62782,62799,62821,62821,62844,62868,62877,62877,62884,62900,62915,62932,62948,62948,62965,62965,62965,62982,62982,62998,62998,62998,63015,63015,63032,63032,63032,63048,63048,63065,63065,63082,63082,63082,63098,63098,63098,63115,63115,63132,63132,63133,63148,63148,63148,63165,63165,63165,63182,63183,63198,63198,63198,63215,63215,63232,63232,63248,63248,63265,63265,63265,63282,63282,63298,63298,63315,63332,63348,63348,63348,63365,63383,63383,63398,63398,63415,63415,63432,63432,63448,63448,63465,63465,63482,63483,63498,63498,63515,63532,63532,63548,63548,63565,63565,63565,63582,63582,63598,63598,63615,63615,63632,63632,63648,63665,63665,63682,63698,63698,63715,63715,63732,63748,63748,63765,63765,63782,63798,63798,63815,63832,63848,63865,63882,63898,63919,63919,63941,63941,63949,63967,63982,63998,64015,64032,64055,64055,64069,64082,64098,64115,64132,64148,64180" d="m310.5,108c-1,1 -1,1.75716 -1,2.65266c0,0.86333 0,1.8265 0,2.76867c0,0.912 0.0278,1.59049 -0.03601,2.364c-0.08685,1.05254 -0.41736,1.98078 -0.61133,2.66734c-0.27078,0.95851 -0.33078,1.78294 -0.34818,2.65183c-0.02393,1.19494 -0.00449,1.7865 -0.00449,2.6235c0,1.12933 0,1.92267 0,2.81517c0,0.7395 0,1.623 0,2.6235c0,1.0905 0,1.85416 0,2.63783c0,1.1955 0,1.99416 0,2.78484c0,0.77466 -0.00562,1.52534 0.00015,2.58916c0.00534,0.98555 -0.01608,1.61758 0.1665,2.8215c0.09149,0.60315 0.3573,1.47334 0.54935,2.31467c0.2272,0.99524 0.27866,1.91061 0.284,2.85201c0.00449,0.79048 0,1.644 0,2.83333c0,0.59866 0,1.47917 0,2.31467c0,1.00133 0,1.91066 0,2.85201c0,0.7905 0,1.644 0,2.83333c0,0.59866 0,1.47917 0,2.31467c0,1.00133 0,1.91066 0,2.85201c0,0.795 0,1.67999 0,2.31999c0,1.0345 0,2.12801 0,2.85201c0,0.692 0,1.892 0,2.6405c0,1.1875 0,1.978 0,2.8315c0,0.59067 0,1.78799 0,2.6685c0,0.83549 0,1.83682 0,2.52083c0,1.16667 0,1.95267 0,2.77467c0,1.05865 0,1.76816 0,2.62082c0,1.0045 0,1.8045 0,2.80467c0,0.82066 0,1.48517 0,2.4825c0,0.79651 0,1.98401 0,2.81734c0,0.83333 0,1.76134 0,2.55183c0,1.02667 0,1.92734 0,2.54683c0,0.99684 0,1.916 0,2.90134c0,0.98399 0,1.67467 0,2.61467c0,0.98534 0,1.88533 0,2.68533c0,0.89999 0,1.8 0,2.7c0,0.89999 0,1.81351 0,2.556c0,0.996 0,1.62 0,2.586c0,1.09384 0,1.83717 0,2.90083c0,0.71851 0,1.509 0,2.53568c0,0.90067 0,1.92149 0,2.7215c0,0.8 0,1.8 0,2.59999c0,1.00134 0,1.836 0,2.76668c0,0.786 0,1.608 0,2.66666c0,0.93068 0,1.56216 0,2.56667c0,0.8 0,1.80034 0,2.64168c0,0.72899 0,1.92633 0,2.60899c0,0.69867 0,2.01601 0,2.83501c0,0.69299 0,1.71432 0,2.51433c0,1 0,1.8 0,2.60001c0,1 0,1.79999 0,2.79999c0,0.8 0,1.8 0,2.60001c0,1 0,1.8 0,2.60001c0,1 0,1.79999 0,2.79866c0,0.94417 -0.08051,1.84767 0.00134,2.80266c0.08365,0.9758 0.47195,1.60574 0.71466,2.31467c0.32993,0.96368 0.284,1.96933 0.284,2.69467c0,0.98935 0,1.78934 0,2.78934c0,0.78934 0,1.83334 0,2.62534c0,0.85999 -0.02182,1.77945 0.00134,2.77335c0.01785,0.7659 0.34848,1.68402 0.646,2.35397c0.38446,0.86575 0.35199,1.76334 0.35266,2.74734c0.00055,0.8215 0,1.71066 0,2.70001c0,0.79999 0,1.79999 0,2.59998c0,0.80002 -0.00055,1.80002 0,2.60001c0.00067,0.99869 -0.08704,1.8049 0.284,2.716c0.27646,0.67892 0.68616,1.53534 0.71466,2.39999c0.03244,0.98349 0.00134,1.96802 0.00134,2.65866c0,0.94135 0,1.992 0,2.6507c0,1.008 0,1.87015 0,2.81064c0,0.84933 0,1.57468 0,2.56384c0,0.96417 0,1.91483 0,2.80017c0,0.79999 0,1.70001 0,2.60001c0,0.89999 0,1.79999 0,2.69998c0,0.90134 0,1.86667 0,2.52536c0,1.008 0,1.87015 0,2.77466c0,0.89999 0,1.79999 0,2.69998c0,0.90002 0,1.80002 0,2.70001c0,0.79999 0,1.70001 0,2.60001c0,0.89999 0,1.79999 0,2.69998l0,0.90002l0,0.89999" id="svg_22" stroke-width="2" stroke="#000" fill="none"/>
 </g>
 <g display="none">
  <title>muse_image</title>
  <image xlink:href="http://farm4.static.flickr.com/3036/2565784190_6a9344239b.jpg" id="muse" height="480" width="266" y="0" x="187"/>
 </g>
 <g display="none">
  <title>bbox</title>
  <rect stroke="#f00" fill="none" stroke-width="3" height="467.52" width="186.58273" y="5.76" x="226.23022" id="bbox"/>
 </g>
</svg>
