<svg width="640" height="480" xmlns="http://www.w3.org/2000/svg" xmlns:svg="http://www.w3.org/2000/svg" xmlns:xlink="http://www.w3.org/1999/xlink">
 <!-- Sketchy ANNOTATION
  ImageNet ID: n02676566_6980
  URL: http://farm1.static.flickr.com/51/165448746_6db1de129e.jpg
  Image Width: 500
  Image Height: 375
  BBox X: 51
  BBox Y: 72
  BBox Width: 449
  BBox Height: 258
  Exposure: 2000ms
  Synset Label: guitar
  Synset ID: n03467517
  Worker Tag: man playing guitar
  Sanity Check: 
   Saved
  Comment: 
   {}
  Worker ID: AXD2DZ7U6CK35
  Assignment ID: 3S4AW7T80BIZ851B0QCKZLUNTC2L4W
  HIT ID: 3VIVIU06FKCBZAKHVPA14FOAU42IMF
  Work Time: 57s
  Worker Score: 0.7464
 END ANNOTATION -->
 <g display="inline">
  <title>Layer 1</title>
  <path t="0,9,16,23,35,52,52,68,68,68,85,85,85,85,85,85,85,102,102,102,102,102,102,117,117,117,117,117,117,117,134,134,134,134,134,134,135,151,151,152,152,152,152,152,152,168,168,168,168,168,168,168,168,168,184,184,184,185,185,185,185,185,185,202,202,202,202,202,202,217,217,217,218,218,218,218,234,235,235,235,235,235,235,235,235,251,251,251,251,251,251,251,251,251,267,267,267,267,267,267,268,268,268,284,284,284,284,284,284,284,285,285,301,302,302,302,302,302,302,302,302,317,317,317,318,318,318,318,318,318,334,334,335,335,335,335,335,335,335,351,351,351,351,351,351,352,352,352,367,367,367,368,368,368,368,368,368,385,385,385,385,385,385,385,385,385,401,401,401,401,402,402,402,402,402,417,417,417,417,418,418,418,418,418,435,435,435,435,435,435,435,435,435,451,451,451,452,452,452,452,452,452,467,468,468,468,468,468,468,468,468,484,485,485,485,485,485,485,485,485,501,501,501,502,502,502,502,502,502,517,517,517,518,518,518,518,518,518,535,535,535,535,535,535,535,535,535,551,552,552,552,552,552,552,552,552,567,567,568,568,568,568,568,568,568,584,585,585,585,585,585,585,585,585,601,601,602,602,602,602,602,602,602,639,639,639,639,639,639,639,639,639,652,652,652,652,652,653,653,653,653" d="m224,197c-0.63916,-0.9955 0.364,-1 1.2,-1c0.90001,0 1.8,0 2.61433,0c0.96167,0 1.81067,0 2.52333,0c1.32901,0 1.84801,0 2.98201,0c0.603,0 1.222,0 1.851,0c1.26399,0 2.496,0 3.0865,0c1.133,0 1.68149,0 2.75749,0c0.53351,0 2.15201,0 2.70683,0c1.13567,0 1.71451,0 2.29933,0c1.18367,0 1.7805,0 2.97917,0c1.20134,0 1.8045,0 2.41066,0c1.22534,0 1.84651,0 2.47467,0c1.28134,0 2.60399,0 3.28532,0c0.69736,0 1.41269,0 2.14801,0c0.75732,0 1.53867,0 3.18134,0c0.86383,0 1.75067,0 2.6535,0c0.91183,0 1.82565,0 2.7345,0c0.89682,0 1.77466,0 3.44534,0c0.78067,0 1.52533,0 2.23798,0c0.68469,0 1.34534,0 1.98602,0c0.62466,0 1.23734,0 3.04266,0c0.60001,0 1.19998,0 2.39999,0c0.60001,0 1.20001,0 3,0c0.60034,0 1.20267,0 2.42133,0c0.62033,0 1.25067,0 2.54935,0c1.36267,0 2.07233,0 2.79999,0c0.74368,0 1.50134,0 2.271,0c0.77966,0 1.56735,0 2.36102,0c1.59732,0 2.39764,0 3.19998,0c0.80634,0 1.61868,0 2.439,0c0.83035,0 1.67267,0 2.52902,0c1.76266,0 2.67181,0.00082 3.59598,-0.00133c0.93417,-0.00217 1.87338,-0.00679 2.8125,-0.0195c0.9342,-0.01263 1.85858,-0.02934 2.76752,-0.0645c1.75391,-0.06786 2.58929,-0.13208 3.39865,-0.19867c0.78802,-0.06483 1.5574,-0.14084 2.31302,-0.216c0.74573,-0.07417 1.48486,-0.1525 2.22299,-0.216c1.48447,-0.12772 2.24081,-0.16681 3.01065,-0.19867c0.78751,-0.03259 1.59732,-0.05202 2.43301,-0.0645c0.86563,-0.01294 1.76532,-0.01761 2.703,-0.0195c2.00534,-0.00406 3.07883,-0.00133 4.19333,-0.00133c1.14651,0 2.31601,0 3.49951,0c1.18848,0 2.37299,0 3.54449,0c2.26801,0 3.34882,0.00089 4.39465,-0.00133c1.01584,-0.00215 2.00671,-0.00671 2.97751,-0.0195c0.95587,-0.01259 1.90189,-0.03014 2.8425,-0.0645c1.88715,-0.06892 2.84167,-0.1333 3.80533,-0.19867c0.97202,-0.06593 1.95068,-0.14153 2.93552,-0.216c0.98984,-0.07484 1.98331,-0.15239 2.9805,-0.216c1.99805,-0.12746 2.99902,-0.16576 4.00266,-0.2c1.0094,-0.03444 2.02802,-0.05885 3.0585,-0.084c1.0455,-0.02551 2.10913,-0.04837 3.19351,-0.084c2.24429,-0.07376 3.40793,-0.1348 4.59467,-0.2c1.20297,-0.0661 2.41464,-0.14119 3.62848,-0.216c1.20883,-0.07451 2.40546,-0.15123 3.5835,-0.216c2.27029,-0.12483 3.35138,-0.16608 4.39734,-0.19867c1.01575,-0.03165 2.00665,-0.05176 2.97751,-0.0645c0.95581,-0.01254 1.90167,-0.01758 2.8425,-0.0195c1.88666,-0.00385 2.84149,-0.00215 3.80533,0c0.97183,0.00217 1.95071,0.00688 2.93552,0.0195c0.98987,0.0127 1.98383,0.03014 2.9805,0.0645c1.99911,0.06892 2.99924,0.13234 4.00131,0.20001c1.00662,0.06798 2.01886,0.14861 3.039,0.23549c1.03052,0.08777 2.07266,0.18356 3.129,0.2805c2.16272,0.19846 3.27173,0.29993 4.39603,0.39734c1.13403,0.09827 2.27313,0.19296 3.41248,0.2805c1.134,0.08713 2.258,0.16899 3.36752,0.23549c2.15274,0.12901 3.18887,0.16753 4.19864,0.20001c0.98755,0.03177 1.95731,0.05177 2.91302,0.0645c0.94562,0.01259 1.88531,0.01758 2.823,0.0195c1.88531,0.00386 2.84,0.0005 3.80267,0.00266c0.96866,0.00217 1.94135,0.00684 2.91599,0.0195c0.9747,0.01266 1.94754,0.02988 2.91599,0.0645c1.91785,0.06856 2.86227,0.13249 3.79468,0.19867c0.91891,0.06522 1.82141,0.14049 2.70599,0.216c0.86475,0.07382 1.70706,0.15082 2.526,0.216c1.55682,0.12393 2.29254,0.16505 3,0.2c0.68121,0.03365 1.33871,0.05826 1.974,0.084c0.61539,0.02493 1.21301,0.04695 1.79401,0.084c1.12344,0.07162 1.66882,0.13344 2.20801,0.20134c0.53818,0.06778 1.07761,0.149 1.62299,0.23549c0.55594,0.08815 1.12509,0.18517 1.71301,0.2805c1.24481,0.20184 1.90915,0.29993 2.59732,0.39867c0.70584,0.10129 1.42401,0.2 2.14801,0.3c0.724,0.10001 1.44229,0.19783 2.14801,0.3c1.3526,0.19583 1.98764,0.29887 2.59598,0.39867c0.58466,0.0959 1.1478,0.19194 1.69351,0.2805c0.53027,0.08606 1.04825,0.16937 1.5585,0.23549c1.00259,0.1299 1.50357,0.16777 2.00266,0.20001c0.49661,0.03209 0.9906,0.05177 1.4805,0.0645c0.48477,0.01259 0.96368,0.01758 1.43552,0.0195c0.91867,0.00375 1.36334,0.00133 1.79599,0.00133c0.41867,0 0.82135,0 1.20599,0c0.36469,0 0.70734,0 1.026,0c0.55734,0 0.79266,-0.00107 1,0.00133c0.18137,0.00209 0.33902,0.00557 0.474,0.0195c0.11572,0.01195 0.21686,0.02634 0.29401,0.0645c0.13193,0.06528 0.17349,0.13312 0.20132,0.19867c0.02817,0.06633 0.03067,0.14134 0.02551,0.216l-0.02017,0.07466l-0.03616,0.07268l-0.05316,0.06866" id="svg_1" stroke-width="2" stroke="#000" fill="none"/>
  <path t="1601,1619,1619,1619,1627,1627,1627,1627,1627,1637,1637,1637,1652,1652,1652,1668,1668,1668,1668,1668,1668,1685,1685,1685,1685,1685,1685,1685,1701,1702,1702,1702,1702,1702,1702,1702,1718,1718,1718,1718,1718,1718,1718,1718,1735,1735,1735,1735,1735,1735,1735,1735,1752,1752,1752,1752,1752,1752,1752,1752,1752,1768,1768,1768,1768,1768,1768,1768,1768,1768,1785,1785,1785,1785,1785,1785,1785,1785,1802,1802,1802,1802,1802,1802,1802,1802,1802,1818,1818,1818,1818,1818,1818,1818,1818,1818,1835,1835,1835,1835,1835,1835,1835,1835,1835,1852,1852,1852,1852,1852,1852,1852,1852,1852,1868,1868,1868,1868,1868,1868,1868,1868,1868,1885,1885,1885,1885,1885,1885,1885,1885,1885,1902,1902,1902,1902,1902,1902,1902,1902,1918,1918,1918,1918,1918,1918,1918,1935,1935,1935,1935,1935,1935,1935,1935,1952,1952,1952,1952,1952,1952,1952,1952,1952,1968,1968,1968,1968,1968,1968,1969,1969,1985,1985,1985,1985,1985,1985,2002,2002,2002,2002,2002,2002,2018,2018,2018,2018,2018,2018,2035,2035,2035,2035,2035,2035,2035,2052,2052,2052,2052,2052,2052,2052,2052,2052,2068,2068,2068,2068,2068,2068,2068,2068,2068,2085,2085,2085,2085,2085,2085,2085,2085,2085,2102,2102,2102,2102,2102,2102,2102,2118,2118,2118,2118,2118,2118,2135,2135,2135,2135,2135,2152,2152,2152,2152,2152,2152,2170,2171,2171,2171,2171,2171,2171,2171,2185,2185,2185,2185,2185,2202,2202,2202,2202,2202,2202,2218,2218,2218,2218,2235,2235,2235,2235,2252,2252,2252,2252,2268,2268,2268,2268,2285,2285,2285,2285,2302,2302,2302,2302,2318,2318,2318,2318,2335,2335,2335,2335,2352,2352,2352,2352,2369,2369,2369,2385,2385,2402,2402,2733,2734,2752,2773,2773,2787,2803,2803,2818,2819,2836,2836,2853,2854,2854,2869,2869,2869,2870,2886,2886,2887,2887,2903,2903,2903,2903,2919,2920,2920,2936,2936,2937,2953,2953,2953,2953,2954,2954,2969,2969,2970,2970,2970,2986,2986,2986,2986,2987,2987,3002,3003,3003,3003,3003,3018,3019,3019,3019,3019,3036,3036,3037,3037,3037,3053,3053,3053,3053,3054,3067,3068,3068,3068,3068,3068,3085,3085,3085,3085,3085,3101,3102,3102,3102,3102,3118,3118,3118,3118,3135,3135,3135,3135,3152,3152,3152,3168,3168,3168,3168,3186,3186,3186,3186,3202,3202,3202,3202,3217,3218,3218,3218,3218,3234,3235,3235,3235,3252,3252,3252,3252,3268,3268,3268,3285,3285,3302,3302,3302,3302,3318,3318,3318,3318,3335,3335,3335,3335,3352,3352,3352,3368,3369,3370,3370,3370,3385,3385,3385,3401,3402,3402,3418,3418,3419,3435,3435,3452,3452,3468,3468,3485,3485,3501,3517,3518,3535,3535,3551,3552,3567,3568,3624,3639,3640" d="m216,251c5.43066,0.916 6.1395,0.96475 6.81467,1.02533c1.35393,0.12148 2.07063,0.24768 2.8,0.41068c0.72684,0.16243 1.42393,0.34212 2.616,0.76266c0.7538,0.26593 1.44292,0.56844 2.45866,0.71733c0.88844,0.13023 1.58856,0.11794 2.81067,0.25067c0.9577,0.10402 1.47212,0.18637 2.5625,0.35416c0.56984,0.08769 1.15118,0.1826 2.9375,0.47917c0.60023,0.09966 1.2012,0.20087 2.41066,0.39999c0.61009,0.10045 1.22516,0.20119 1.84651,0.3c1.90894,0.3036 2.56424,0.40062 3.22816,0.50002c0.67174,0.10059 1.35052,0.2009 2.72533,0.39999c0.69377,0.10046 1.39066,0.20007 2.78934,0.39999c0.7,0.10007 1.39999,0.19998 2.10001,0.29999c0.7,0.09998 2.10001,0.30005 2.79999,0.40002c0.70001,0.10001 2.10007,0.29962 2.80035,0.40015c0.70239,0.1008 1.409,0.20218 2.12097,0.31052c1.45135,0.22086 2.1937,0.34262 2.94934,0.47467c1.56409,0.27332 2.37216,0.43503 3.19733,0.59732c0.83749,0.1647 1.68222,0.33441 2.53201,0.49649c0.84888,0.16193 1.69312,0.32059 2.53201,0.45151c1.63184,0.25467 2.42441,0.33282 3.19733,0.39999c0.7558,0.06567 1.49854,0.11023 2.229,0.1485c0.72021,0.03772 1.43286,0.06512 2.13898,0.10352c1.40311,0.07629 2.10321,0.13498 2.80402,0.20267c0.70355,0.06796 1.4097,0.14774 2.11951,0.2355c1.43707,0.1777 2.16434,0.28174 3.64581,0.47916c0.75525,0.10065 1.52255,0.20099 2.30402,0.29999c0.79721,0.10098 1.61252,0.20126 2.448,0.30002c0.85718,0.10132 1.73822,0.20435 3.58133,0.39999c0.96359,0.10229 1.95062,0.20044 2.95349,0.29999c1.01181,0.10043 2.02573,0.1994 3.03452,0.30002c0.99689,0.09943 1.97534,0.19382 3.84534,0.39999c0.88083,0.09711 1.72424,0.19803 2.53348,0.29999c0.77875,0.09811 1.52924,0.19849 2.25452,0.30002c0.7037,0.09851 1.38837,0.19751 2.71201,0.39999c0.64584,0.09879 1.28528,0.20013 1.923,0.29999c0.63962,0.10013 1.28516,0.20105 1.94098,0.30002c0.66953,0.10104 1.35657,0.20547 2.80267,0.39999c0.76376,0.10272 1.55307,0.20099 2.36249,0.2955c0.82391,0.09619 1.65805,0.18665 2.4975,0.26849c0.8389,0.08182 1.67249,0.16312 3.30667,0.26935c0.78998,0.05136 1.56262,0.08438 2.319,0.11398c0.74228,0.02905 1.47272,0.05151 2.19302,0.078c0.71234,0.02618 1.41949,0.0451 2.82132,0.14133c0.70032,0.04807 1.39908,0.11505 2.09549,0.19052c0.69424,0.07523 1.38412,0.16031 2.06851,0.25348c1.35159,0.18402 2.66937,0.38922 3.31467,0.48917c0.63736,0.09872 1.89566,0.29196 2.52133,0.37933c0.625,0.08728 1.24997,0.19278 3.16666,0.35419c0.65442,0.05511 1.3212,0.08502 1.99951,0.1095c0.69104,0.02493 1.3963,0.03915 2.11649,0.04648c1.48929,0.01517 3.05069,0.01068 3.85983,0.01068c0.82419,0 1.65836,0 2.49753,0c0.83914,0 1.67331,0 2.4975,0c0.80914,0 2.36249,0 3.09781,0c0.70734,0 1.38867,0 2.04602,0c0.63531,0 1.84799,0 2.42932,0c1.12268,0 2.20404,-0.00125 2.73218,0.00449c1.03638,0.01126 2.05322,0.04401 2.55582,0.08084c1.5036,0.11017 2.00314,0.19553 3.01202,0.34c0.51041,0.07309 1.5455,0.23001 2.07465,0.29068c1.63351,0.18726 2.19965,0.2084 3.35068,0.24799c0.58469,0.02011 1.17462,0.02933 2.36533,0.03467c1.19867,0.00537 1.79938,-0.00238 3.01666,0.00583c0.62469,0.00421 1.26541,0.01373 1.92599,0.03152c0.68478,0.01843 2.92285,0.1279 3.74152,0.18533c0.85205,0.05978 1.72971,0.1308 2.6265,0.20398c0.90887,0.07416 1.82254,0.151 2.7345,0.22202c0.90271,0.07028 2.65332,0.18936 3.48901,0.23132c0.80835,0.04059 1.59296,0.06937 2.35648,0.09601c0.74548,0.026 1.4761,0.04846 2.19452,0.078c0.70959,0.02917 2.11386,0.10953 2.81351,0.16882c0.70038,0.05936 1.40033,0.13272 2.09998,0.21451c0.70038,0.08188 1.40021,0.17319 2.10001,0.26849c0.70023,0.09537 2.09998,0.29578 2.7995,0.39532c0.69647,0.09912 2.06833,0.29102 2.73801,0.37933c0.65433,0.0863 1.28891,0.18405 3.0625,0.35419c0.53513,0.05133 1.53271,0.1171 2.45834,0.14581c0.44556,0.01382 1.323,0.01715 2.66315,0.021c0.93567,0.00269 1.41489,-0.00104 2.38919,0.03586c0.99118,0.03754 1.99039,0.1218 2.99332,0.24799c0.51007,0.06418 1.55801,0.2197 2.104,0.29068c1.14703,0.14911 2.39166,0.26376 3.05582,0.30383c0.68655,0.04144 1.38956,0.06857 2.1015,0.08548c1.42249,0.03378 2.11951,0.03275 2.79733,0.03467c1.27069,0.00363 2.39737,-0.00012 2.91318,0.00583c0.96173,0.01111 1.86563,0.02783 3.19083,0.16217c0.45544,0.04617 1.38181,0.18408 2.3125,0.33334c0.45966,0.07373 1.3486,0.23962 2.578,0.37866c0.73154,0.08273 1.75894,0.13205 2.42551,0.20535c1.0416,0.11453 2.15231,0.34656 2.92801,0.49066c0.78967,0.1467 1.98856,0.31152 2.78482,0.37265c0.78311,0.06012 1.55173,0.06921 2.63785,0.21933c0.68484,0.09467 1.64264,0.34726 2.26215,0.48068c1.19916,0.25824 1.80835,0.31204 2.74051,0.34198c0.64905,0.02084 2.04816,0.00418 2.78934,0.02136c0.74954,0.0174 1.49738,0.02979 2.55334,0.21082c1.00415,0.17215 1.64615,0.39096 2.30533,0.57983c1.40024,0.40118 2.14917,0.60098 2.92667,0.76266c0.78802,0.16385 1.98801,0.32791 2.78033,0.37885c0.7666,0.04929 1.49466,0.0549 2.47565,0.05716c1.06134,0.00244 1.72433,0 2.73334,0c0.80002,0 1.79984,-0.00006 2.57916,0c0.99933,0.00009 1.87521,0.00891 2.62085,0.61066c0.76453,0.61697 1.20001,1.1893 1.89999,1.88934c0.60004,0.60013 1.22858,1.23831 1.70001,1.98401c0.42648,0.67459 0.98349,1.64777 1.43597,2.14133c0.66034,0.72025 1.21686,1.20621 1.76852,1.83633c0.82117,0.93799 1.20087,1.4917 1.59549,2.05917c0.60834,0.87476 1.20001,1.77914 1.60001,2.37915c0.39999,0.60001 0.80099,1.19934 1.59982,2.39984c0.39615,0.59534 0.79199,1.17133 1.31485,2.01483c0.61502,0.99219 0.98306,1.67694 1.284,2.36932c0.43091,0.99142 0.59042,1.57721 1.01566,2.47766c0.483,1.0228 0.95319,1.7262 1.1955,2.10001c0.5072,0.78247 1.0506,1.59476 1.3075,2.02499c0.78778,1.31915 1.00659,1.79297 1.44666,2.73868c0.21985,0.47253 0.62402,1.42529 1.23602,2.80801c0.19757,0.44638 0.59961,1.31418 1,2.16666c0.19983,0.42542 0.60858,1.28015 1.20001,2.62115c0.203,0.46024 0.59833,1.39423 0.79999,1.858c0.39679,0.91245 0.98785,2.19397 1.40002,2.95151c0.38861,0.71429 0.80518,1.38092 1.19995,2.052c0.60828,1.03415 1.00385,1.77487 1.21069,2.15332c0.42395,0.77548 0.85431,1.57809 1.61102,2.76401c0.25806,0.40445 0.81555,1.20712 1.42499,2c0.31024,0.40369 1.31702,1.60266 1.6745,1.99985c0.72101,0.80109 1.09491,1.1882 1.8175,1.96417c0.35217,0.37817 1.33746,1.46164 1.89197,2.15067c0.51691,0.64227 0.97437,1.2822 1.45203,1.884c0.72455,0.91281 1.2644,1.51169 1.85901,2.08047c0.60553,0.57922 0.9198,0.87091 1.97949,1.59933c0.71088,0.48865 1.4632,0.89197 2.16901,1.31702c0.98383,0.59247 1.79718,1.20355 2.289,1.58365c0.69958,0.54065 1.69891,1.15564 2.26746,1.38486c0.90265,0.36392 1.91949,0.63803 2.63605,0.836c0.73145,0.20206 1.46631,0.36722 2.784,0.79999c0.57013,0.18726 1.33685,0.51352 2.10132,0.88535c0.87915,0.42758 1.54279,0.77478 2.27368,1.11465c0.76373,0.35516 1.95337,0.84778 2.7583,1.11465c0.79535,0.2637 1.599,0.47864 2.40002,0.68402c1.1983,0.30725 1.99609,0.49887 2.77917,0.70132c0.76428,0.19763 1.85632,0.49277 2.53412,0.70001c0.94812,0.28989 1.53436,0.4765 2.56519,0.89999c0.69214,0.28436 1.5235,0.69342 2.32281,1.10132c0.83826,0.4278 1.76605,0.96423 2.28406,1.28268c0.83655,0.51425 1.40356,0.89319 2.31464,1.34933c0.88586,0.44351 1.5097,0.64471 2.40002,1.05066c0.9104,0.4151 1.79822,0.94437 2.39996,1.29065c0.59833,0.34433 1.79877,0.94751 2.41071,1.20001c0.62274,0.25696 1.95697,0.78983 2.67328,1.108c0.74231,0.32974 1.48004,0.68475 2.23206,0.948c1.04895,0.36716 1.7226,0.45743 2.63733,0.58401c1.08032,0.14951 1.79974,0.31778 2.43597,0.59598c1.02881,0.44986 1.79517,0.91272 2.41064,1.104c0.98047,0.30472 1.81799,0.271 2.79871,0.56934c0.7832,0.23825 1.73016,0.58154 2.48529,0.80002c0.96185,0.27829 1.65106,0.57394 2.59521,0.91599c0.84552,0.30634 1.37469,0.85428 2.17798,1.2955c0.72229,0.39673 1.74976,0.57336 2.50684,0.72983c0.96484,0.1994 1.63464,0.69067 2.55066,0.888l0.28534,-0.91333l-0.05719,-0.70001" id="svg_2" stroke-width="2" stroke="#000" fill="none"/>
  <path t="4541,4552,4568,4587,4602,4603,4603,4620,4620,4637,4637,4651,4651,4651,4651,4651,4670,4670,4685,4685,4685,4700,4700,4700,4717,4717,4717,4734,4734,4734,4750,4750,4750,4750,4767,4767,4767,4784,4784,4800,4801,4801,4817,4817,4817,4834,4834,4834,4850,4850,4850,4850,4867,4867,4867,4867,4884,4884,4885,4885,4885,4885,4885,4900,4900,4900,4900,4900,4900,4917,4917,4917,4917,4917,4918,4934,4934,4934,4934,4950,4951,4951,4951,4951,4968,4968,4968,4968,4984,4984,4984,4984,4985,5000,5000,5000,5000,5017,5017,5017,5018,5034,5034,5034,5035,5050,5050,5050,5050,5050,5067,5067,5067,5084,5084,5084,5100,5101,5101,5101,5117,5117,5117,5135,5135,5135,5151,5151,5151,5151,5167,5167,5184,5184,5185,5200,5243,5259,5279,5384" d="m492,197c1.70001,0.9955 2.63986,1.03624 3.41068,0.564c0.80426,-0.49272 1.42203,-0.97038 2.19064,-1.364c0.79401,-0.40662 1.57999,-0.77283 2.37784,-1.30017c0.77179,-0.51012 1.68256,-1.07716 2.35684,-1.38249c0.75995,-0.34412 1.55789,-0.66887 2.328,-0.948c0.94455,-0.34238 1.79059,-0.4931 2.65765,-0.79083c0.73749,-0.25322 1.35452,-0.60733 2.36368,-0.97717c0.82751,-0.30327 1.7106,-0.5489 2.61447,-0.67999c0.88544,-0.12842 1.75659,-0.10541 2.77905,-0.34283c0.71918,-0.16699 1.42279,-0.50734 2.56378,-0.87851c0.65826,-0.21414 1.36005,-0.39084 2.052,-0.59999c1.26752,-0.38313 2.0213,-0.72359 2.69635,-0.94284c0.99506,-0.32318 1.84497,-0.35182 2.7757,-0.35716c0.78595,-0.0045 1.60797,0 2.66663,0c0.94135,0 1.61932,0 2.85205,0c0.55066,0 1.41913,0 2.61481,0c0.91052,0 1.53583,0 2.18518,0c1.40399,0 2.18268,0 3.03333,0c0.45734,0 1.98132,0 2.54547,0c1.19836,0 1.82251,0 2.45667,0c0.63916,0 1.91254,0 3.14587,0c0.59033,0 1.71899,0 2.26129,0c1.05066,0 1.56305,0.00101 3.07202,0c0.99866,-0.00067 1.49561,0.00272 2.47919,-0.02083c0.48492,-0.01161 1.43945,-0.0295 2.79932,-0.2005c0.86743,-0.10907 1.69885,-0.28905 2.51697,-0.42601c1.20209,-0.20126 2.0025,-0.27905 2.79388,-0.31667c0.77417,-0.0368 1.52533,-0.03198 2.58948,-0.03616c0.67297,-0.00264 1.68384,-0.01962 2.3905,-0.08516c1.17615,-0.10909 2.03613,-0.26669 2.93066,-0.41467c0.4494,-0.07434 1.32867,-0.24318 2.55719,-0.37849c0.73138,-0.08057 1.75739,-0.11502 2.42548,-0.12018c1.0387,-0.00801 2.14313,0.00024 2.89203,-0.03732c0.74207,-0.03722 1.80573,-0.17735 2.47711,-0.31667c1.01208,-0.21001 1.71326,-0.39763 2.89087,-0.526c0.86029,-0.0938 1.75745,-0.11908 2.20667,-0.14667c0.88293,-0.05423 2.11084,-0.17882 2.83185,-0.32733c0.96649,-0.19908 2.04962,-0.49789 2.77063,-0.59467c0.70746,-0.09496 1.78528,-0.20097 2.75354,-0.40984c0.69763,-0.15048 1.39923,-0.31694 2.65179,-0.74268c0.5376,-0.18272 1.47858,-0.60197 2.46436,-0.77882c0.80725,-0.14482 1.68811,-0.13911 2.57849,-0.28801c0.9021,-0.15086 1.47205,-0.36313 2.31464,-0.54933c1.22388,-0.27046 1.91064,-0.27866 2.85205,-0.284c1.04797,-0.00594 1.82886,0.10423 2.86133,-0.00133c0.81781,-0.08362 1.25732,-0.91335 2.07196,-0.99867l0.90002,0" id="svg_3" stroke-width="2" stroke="#000" fill="none"/>
  <path t="7013,7020,7037,7037,7053,7053,7069,7069,7087,7087,7087,7102,7102,7103,7120,7120,7120,7120,7137,7137,7137,7137,7152,7152,7152,7153,7153,7153,7169,7169,7170,7187,7187,7187,7201,7201,7201,7218,7218,7235,7235,7235,7251,7251,7268,7268,7285,7285,7285,7301,7301,7301,7318,7318,7335,7351,7351,7369,7369,7369,7386,7386,7401,7401,7419,7419,7472,7479,7487" d="m227,194c-1.05267,1.75717 -1.34892,2.66101 -1.61067,3.21066c-0.47449,0.99637 -0.84831,1.79388 -1.38933,2.62267c-0.37263,0.57083 -1.01642,1.49295 -1.3,2.1765c-0.31863,0.76805 -0.6933,1.82635 -1,2.53751c-0.29361,0.68079 -0.71147,1.6151 -1,2.41434c-0.20833,0.57706 -0.50667,1.52309 -0.80017,2.56c-0.20909,0.73868 -0.41106,1.52283 -0.657,2.34c-0.39418,1.30972 -0.5558,1.76239 -0.89549,2.68201c-0.33902,0.91777 -0.51515,1.3618 -0.86334,2.20166c-0.45358,1.09407 -0.85858,1.95268 -1.17949,2.69833c-0.41824,0.97182 -0.71004,1.77676 -0.8685,2.33101c-0.30029,1.05029 -0.35591,1.99835 -0.52,2.82399c-0.2021,1.01688 -0.56558,1.58156 -0.79466,2.6015c-0.18179,0.80942 -0.17209,1.49242 -0.40533,2.4825c-0.18924,0.80328 -0.60173,1.97603 -0.68001,2.66667c-0.11089,0.97839 0.0157,1.66486 -0.09315,2.7025c-0.10847,1.03404 -0.41508,1.6973 -0.65884,2.54683c-0.28197,0.98267 -0.28174,1.74416 -0.284,2.64867c-0.00229,0.91934 0.00653,1.77351 0,2.75267c-0.00534,0.80005 -0.03976,1.61331 -0.35266,2.60001c-0.25771,0.81265 -0.5677,1.59583 -0.62651,2.39999c-0.07295,0.99756 -0.02083,1.97917 -0.02083,2.83333l0,0.79601l0,-0.93384" id="svg_4" stroke-width="2" stroke="#000" fill="none"/>
  <path t="8230,8236,8236,8236,8236,8236,8253,8253,8269,8285,8285,8303,8303,8319,8335,8351,8368,8368,8385,8385,8400,8417,8417,8434,8450,8450,8467,8485,8485,8500,8517,8517,8535,8535,8550,8550,8550,8567,8567,8567,8584,8585,8585,8585,8600,8600,8600,8600,8617,8617,8617,8617,8635,8635,8635,8635,8650,8650,8650,8650,8667,8667,8667,8667,8667,8667,8684,8684,8684,8684,8700,8700,8700,8700,8717,8717,8717,8717,8717,8717,8734,8734,8734,8734,8735,8750,8750,8750,8767,8767,8767,8767,8767,8784,8784,8784,8784,8784,8800,8800,8800,8800,8817,8817,8817,8834,8834,8834,8835,8850,8850,8867,8867,8884,8884,8884,8900,8900,8900,8917,8934,8934,8935,8950,8950,8950,8950,8968,8968,8984,8984,8984,9000,9000,9000,9017,9017,9017,9034,9034,9034,9050,9050,9067,9067,9084,9084,9084,9100,9100,9117,9135,9135" d="m227,197c1.31416,-5.49933 1.19228,-6.48607 1.06667,-6.95734c-0.24193,-0.90762 -0.49272,-1.75272 -1.18134,-2.89999c-0.42006,-0.69983 -1.2247,-0.99918 -2.08667,-1.42667c-0.72476,-0.35944 -1.62358,-0.68939 -2.31467,-0.71468c-0.96277,-0.03523 -1.6873,-0.54451 -2.584,-0.87982c-0.85063,-0.31808 -1.65717,-0.12151 -2.55266,-0.12151c-0.86334,0 -1.84734,0 -2.83133,0c-0.69067,0 -1.82483,-0.17332 -2.61601,0.2215c-0.68919,0.34393 -1.25113,1.24646 -2,1.65733c-0.66444,0.36455 -1.38385,0.94466 -1.73332,1.9545c-0.26651,0.77014 -0.4388,1.65808 -0.77734,2.37733c-0.37482,0.79633 -0.78932,1.58934 -1.18933,2.38934c-0.40134,0.80266 -0.72079,1.44168 -1.08533,2.17065c-0.43614,0.87219 -0.94743,1.89235 -1.32533,2.61467c-0.1922,0.36737 -0.78064,1.45319 -1.18933,2.12933c-0.58759,0.97212 -0.99966,1.58107 -1.60001,2.48534c-0.39844,0.60016 -0.8131,1.18581 -1.34283,2.10001c-0.51389,0.88684 -0.9045,1.79999 -1.15717,2.39999c-0.25267,0.60001 -0.81213,1.80576 -1.16167,2.409c-0.37001,0.63858 -0.80412,1.30276 -1.505,2.42433c-0.5204,0.83276 -0.78615,1.27191 -1.33333,2.16667c-0.27475,0.4493 -0.81313,1.33379 -1.33333,2.16667c-0.47739,0.76431 -0.93414,1.45285 -1.32001,2.112c-0.70621,1.20636 -0.97269,1.8199 -1.22133,2.44266c-0.39398,0.98679 -0.79121,2.1123 -0.94667,2.5215c-0.32964,0.86765 -0.68066,1.77725 -0.85333,2.24251c-0.34534,0.93051 -0.80991,2.29115 -1.06816,3.153c-0.1241,0.41412 -0.34274,1.21605 -0.55583,1.97499c-0.39438,1.40465 -0.60408,2.0605 -0.80135,2.71201c-0.40564,1.33965 -0.6104,2.05849 -0.78932,2.82133c-0.18698,0.79721 -0.34537,1.63753 -0.444,2.52c-0.10214,0.91391 -0.13702,1.84784 -0.15601,2.77199c-0.00926,0.45146 -0.01067,1.72801 -0.01067,2.49068c0,1.02899 0,1.66167 0,2.87067c0,0.89999 -0.00302,1.5 0,2.7c0.00226,0.89551 0.00171,1.76816 0.08533,2.31467c0.19011,1.24246 0.54877,1.85864 0.7935,2.88533c0.1884,0.79036 0.42216,1.82155 0.83101,2.40001c0.44188,0.62518 1.1442,1.38644 1.65416,2.18933c0.45338,0.71381 0.836,1.64041 1.80267,2.04401c0.64864,0.27081 1.60533,0.16599 2.476,0.16666c1.008,0.00076 1.70667,0 2.38933,0c1.19734,0 2.14668,0.0054 2.968,0c0.81071,-0.00534 1.69382,-0.04681 2.68533,-0.28534c0.84398,-0.20303 1.42004,-0.41653 2.6145,-0.81467c0.5961,-0.19867 1.47331,-0.47638 2.53349,-0.89999c0.71149,-0.28427 1.52945,-0.66391 2.28267,-1.20001c0.65955,-0.46942 1.35632,-1.02853 2.13068,-1.39999c0.9045,-0.43391 1.70833,-0.68259 2.49199,-1c0.93663,-0.37936 1.58934,-0.78932 2.46133,-1.31599l0.8,-0.25067l0.64284,-0.53783" id="svg_5" stroke-width="2" stroke="#000" fill="none"/>
  <path t="10209,10240,10244,10244,10268,10268,10285,10285,10285,10285,10285,10301,10301,10301,10301,10318,10318,10318,10336,10336,10336,10336,10351,10351,10351,10351,10352,10369,10369,10369,10369,10369,10385,10385,10385,10385,10385,10385,10401,10401,10401,10401,10401,10418,10418,10418,10418,10418,10437,10437,10437,10437,10437,10437,10453,10453,10453,10453,10453,10453,10469,10469,10469,10469,10485,10485,10485,10485,10503,10503,10503,10503,10503,10503,10521,10521,10521,10521,10521,10536,10536,10536,10536,10550,10551,10551,10569,10569,10569,10586,10586,10586,10586,10586,10600,10600,10601,10601,10618,10618,10618,10636,10636,10636,10636,10652,10653,10653,10670,10670,10670,10670,10670,10686,10686,10686,10686,10700,10700,10700,10700,10717,10718,10718,10736,10736,10736,10736,10752,10752,10752,10769,10769,10769,10769,10786,10786,10786,10800,10800,10801,10801,10801,10817,10817,10818,10818,10818,10818,10835,10835,10835,10835,10851,10851,10851,10868,10868,10868,10868,10885,10885,10885,10900,10900,10900,10917,10917,10935,10935,10951,10951,10968,10985,10985,10985,11000,11000,11017,11017,11036,11036,11050,11050,11067,11067,11085,11085,11101,11101,11117,11135,11135,11135,11151,11151,11167,11167,11184,11185,11185,11200,11200,11217,11235,11235,11251,11251,11267,11267,11284,11285,11285,11300,11301,11301,11301,11317,11318,11318,11335,11335,11335,11350,11351,11351,11367,11368,11368,11385,11385,11385,11400,11400,11401,11421,11421,11436,11436,11436,11451,11451,11451,11470,11470,11470,11487,11487,11487,11487,11487,11503,11503,11503,11517,11518,11518,11537,11538,11551,11551,11551,11568,11568,11568,11587,11587,11587,11587,11600,11601,11601,11617,11618,11618,11636,11637,11637,11637,11650,11651,11651,11651,11668,11668,11668,11684,11685,11685,11702,11702,11702,11703,11719,11719,11720,11736,11736,11737,11751,11751,11751,11751,11769,11770,11770,11790,11790,11790,11790,11805,11805,11806,11806,11818,11818,11818,11835,11835,11835,11835,11851,11851,11851,11851,11851,11872,11872,11872,11872,11872,11889,11890,11890,11890,11890,11890,11891,11905,11905,11905,11905,11905,11918,11918,11918,11918,11918,11918,11939,11939,11939,11940,11940,11951,11951,11951,11951,11951,11951,11951,11951,11971,11971,11971,11971,11971,11972,11972,11972,11988,11989,11989,11989,11989,11989,11989,11989,12005,12005,12005,12005,12005,12005,12005,12006,12006,12022,12022,12022,12022,12023,12023,12023,12023,12023,12039,12039,12039,12040,12040,12040,12040,12040,12051,12051,12051,12051,12051,12052,12052,12072,12072,12072,12072,12072,12072,12073,12086,12087,12087,12087,12087,12087,12087,12088,12104,12105,12105,12105,12105,12105,12105,12123,12123,12123,12123,12123,12124,12124,12139,12139,12140,12140,12140,12140,12155,12156,12156,12156,12156,12156,12157,12172,12172,12172,12173,12173,12173,12189,12189,12189,12190,12190,12190,12190,12190,12205,12205,12205,12205,12206,12206,12206,12219,12219,12219,12221,12221,12221,12221,12221,12239,12240,12240,12240,12240,12240,12241,12241,12251,12251,12251,12251,12251,12252,12252,12252,12252,12273,12273,12273,12273,12274,12274,12274,12274,12274,12286,12287,12287,12287,12287,12288,12288,12288,12288,12301,12301,12301,12301,12301,12302,12302,12302,12302,12323,12323,12323,12323,12324,12324,12324,12324,12325,12339,12339,12339,12339,12340,12340,12340,12340,12340,12351,12351,12351,12351,12352,12352,12352,12352,12352,12372,12373,12373,12373,12373,12374,12374,12374,12374,12384,12384,12384,12385,12385,12385,12385,12385,12386,12405,12405,12405,12405,12406,12406,12406,12406,12407,12418,12418,12418,12418,12419,12419,12419,12419,12419,12436,12436,12437,12437,12437,12437,12455,12456,12456,12456,12456,12457,12472,12473,12473,12473,12473,12474,12474,12484,12484,12484,12484,12485,12485,12485,12485,12486,12503,12503,12503,12504,12504,12504,12504,12520,12521,12521,12521,12521,12522,12522,12533,12534,12534,12534,12535,12535,12553,12553,12553,12554,12554,12554,12554,12555,12570,12570,12571,12571,12571,12571,12586,12586,12587,12587,12587,12601,12601,12601,12601,12621,12622,12622,12622,12623,12623,12637,12638,12638,12638,12639,12654,12655,12655,12655,12655,12671,12672,12672,12672,12687,12687,12687,12687,12688,12688,12701,12701,12701,12701,12702,12721,12721,12722,12722,12734,12734,12734,12735,12751,12751,12751,12752,12772,12772,12772,12786,12786,12787,12787,12787,12801,12801,12801,12801,12821,12822,12822,12822,12836,12836,12836,12837,12853,12853,12853,12854,12854,12854,12870,12870,12870,12871,12871,12886,12887,12887,12887,12903,12903,12903,12904,12920,12920,12920,12921,12921,12921,12935,12935,12935,12936,12936,12951,12951,12952,12952,12952,12968,12968,12969,12969,12969,12984,12984,12985,12985,12985,12985,12986,13001,13001,13001,13002,13002,13019,13019,13019,13020,13036,13036,13037,13037,13051,13051,13051,13052,13068,13068,13069,13069,13084,13084,13084,13085,13085,13085,13103,13103,13104,13104,13120,13120,13121,13121,13136,13136,13137,13137,13151,13151,13151,13152,13152,13169,13169,13170,13170,13186,13186,13187,13187,13203,13203,13203,13204,13204,13220,13221,13221,13221,13222,13236,13236,13264,13265,13272,13272,13272,13285,13285,13285,13302,13302,13333,13339,13340,13340,13351,13351,13352,13370,13370,13371,13386,13386,13387,13403,13403,13404,13420,13420,13434,13434,13435,13451,13451,13451,13468,13468,13484,13484,13485,13501,13501,13501,13520,13534,13534,13553,13553,13571,13571,13571,13586,13586,13603,13604,13621,13621,13637,13637,13653,13654,13670,13671,13686,13701,13701,13718,13736,13751,13751,13768,13768,13769,13784,13785,13803,13803,13820,13821,13821,13834,13835,13853,13854,13854,13868,13869,13869,13886,13887,13887,13887,13903,13904,13904,13920,13921,13921,13936,13937,13951,13951,13971,13971,13971,13984,13985,13985,13985,14003,14004,14004,14004,14018,14018,14019,14019,14036,14037,14037,14037,14053,14054,14054,14054,14055,14055,14068,14068,14069,14069,14070,14087,14087,14087,14088,14101,14101,14102,14102,14102,14118,14118,14119,14119,14136,14137,14137,14137,14153,14154,14154,14155,14168,14168,14169,14169,14170,14170,14186,14187,14187,14203,14204,14204,14218,14218,14219,14234,14235,14235,14253,14254,14254,14270,14271,14271,14271,14284,14285,14285,14285,14303,14304,14321,14321,14334,14335,14335,14353,14354,14354,14371,14372,14372,14384,14385,14403,14404,14420,14420,14436,14453,14453,14468,14484,14484,14501,14521,14521,14651" d="m279,193c0.87866,-1.2215 1.30728,-2.05185 1.64734,-2.75717c0.41632,-0.86353 0.35983,-1.54103 0.686,-2.57616c0.20401,-0.64746 0.52759,-1.33345 0.888,-2.052c0.37006,-0.73778 0.97723,-1.79391 1.37415,-2.4575c0.56674,-0.94756 0.95126,-1.54004 1.383,-2.45717c0.41702,-0.88585 0.61603,-1.49825 1.02151,-2.7c0.20261,-0.60046 0.505,-1.51927 0.70001,-2.15717c0.30789,-1.00713 0.60199,-2.10521 0.82083,-2.88451c0.11383,-0.40536 0.35007,-1.2498 0.80048,-2.57983c0.15765,-0.46556 0.50781,-1.41315 0.85333,-2.38916c0.17459,-0.49316 0.66446,-1.98769 0.80383,-2.48917c0.27582,-0.99255 0.39063,-1.48834 0.61084,-2.46417c0.21429,-0.94957 0.40802,-1.86992 0.61069,-2.752c0.19742,-0.85925 0.40256,-1.70874 0.59998,-2.56799c0.20267,-0.88208 0.40082,-1.79984 0.60001,-2.74133c0.1004,-0.47458 0.29471,-1.42316 0.60001,-2.808c0.0983,-0.44589 0.30212,-1.31802 0.5,-2.1875c0.20221,-0.88852 0.30911,-1.34668 0.60001,-2.82167c0.10324,-0.52354 0.29907,-1.59767 0.39999,-2.13667c0.19821,-1.05867 0.2771,-1.57263 0.60001,-2.9565c0.1868,-0.80052 0.40222,-1.52202 0.69998,-2.54567c0.30243,-1.03967 0.50061,-1.78143 0.72086,-2.56033c0.23221,-0.82117 0.64264,-2.12608 0.80048,-2.57967c0.32486,-0.93362 0.50626,-1.40317 0.85333,-2.35333c0.34354,-0.94052 0.66788,-1.85577 0.94,-2.73866c0.25809,-0.83736 0.47211,-1.64071 0.68402,-2.4c0.29755,-1.06617 0.51297,-1.72507 0.76532,-2.67599c0.16101,-0.60669 0.39557,-1.80818 0.39435,-2.68983c-0.00116,-0.83672 -0.23743,-1.84157 -0.47919,-2.5625c-0.27344,-0.8154 -0.58575,-1.82088 -0.77914,-2.62083c-0.20709,-0.85666 -0.29333,-1.29906 -0.5,-2.17084c-0.29062,-1.22593 -0.49048,-1.95526 -0.80002,-2.94533c-0.19403,-0.62056 -0.5918,-1.82474 -0.81067,-2.42133c-0.33215,-0.9054 -0.73898,-1.80937 -1.07465,-2.39867c-0.5101,-0.89548 -0.89273,-1.46503 -1.71469,-2.48c-0.38776,-0.47883 -1.02103,-1.1292 -1.79999,-2.088c-0.41406,-0.50964 -0.81104,-1.07756 -1.272,-1.644c-0.48792,-0.59956 -1.35788,-1.50363 -2.03333,-2.08033c-0.6821,-0.58239 -1.37659,-1.11326 -2.36133,-1.77567c-0.55698,-0.37466 -1.31647,-0.80566 -2.01602,-1.216c-1.00845,-0.59154 -1.54636,-0.95435 -2.12799,-1.292c-1.17578,-0.68257 -1.7771,-0.97247 -2.68933,-1.28367c-0.59286,-0.20226 -1.79843,-0.43674 -2.39999,-0.4845c-0.89838,-0.07131 -2.10001,-0.05717 -2.70001,-0.05717c-0.89999,0 -1.80002,-0.0051 -2.70016,0.00017c-0.91052,0.00533 -1.86066,0.02731 -2.86649,0.1665c-0.72327,0.10008 -1.48679,0.2679 -2.28,0.516c-0.84793,0.26521 -1.72769,0.6348 -2.63602,1.08533c-0.94028,0.46638 -1.39569,0.73348 -2.3075,1.22667c-0.44009,0.23805 -1.66064,0.87646 -2.39551,1.191c-0.66727,0.28561 -1.61353,0.60621 -2.51416,0.9145c-0.89136,0.30511 -1.5043,0.46169 -2.53349,1.0665c-0.74684,0.43888 -1.38589,1.05129 -1.85068,1.43467c-0.98727,0.81435 -1.54781,1.18988 -2.36333,1.79867c-0.79239,0.59152 -1.49741,1.18859 -1.911,1.57916c-0.88902,0.83956 -1.40567,1.38483 -2.04167,2.02084c-0.60001,0.6 -1.3,1.3 -1.8,1.8c-0.72083,0.72083 -1.36667,1.36666 -2.02533,2.02533c-0.522,0.522 -1.26047,1.32396 -1.8,1.764c-0.81651,0.66595 -1.57582,0.9704 -2.35333,1.51067c-0.67128,0.46645 -1.34619,0.99409 -2.02133,1.4c-0.9837,0.59143 -1.55228,1.14039 -2.20134,1.69867c-0.64957,0.55872 -1.64407,0.68712 -2.31467,0.88533c-1.03244,0.30517 -1.62767,0.95853 -2.31999,1.30534c-0.74355,0.37246 -1.76277,0.57802 -2.564,0.60616c-1.00073,0.03516 -1.836,0.0045 -2.76668,0.0045c-0.78149,0 -1.57265,0.03806 -2.69032,-0.00017c-0.83545,-0.02858 -1.70151,-0.4998 -2.24284,-1.32117c-0.42786,-0.64917 -0.80525,-1.50119 -0.8895,-2.304c-0.10817,-1.03078 -0.03146,-1.84327 -0.23199,-2.79617c-0.17291,-0.82166 -0.40894,-1.37843 -0.612,-2.5785c-0.15126,-0.89394 -0.15559,-1.49984 -0.16534,-2.4c-0.01299,-1.19859 -0.03444,-1.79285 0.05583,-2.64283c0.11075,-1.0429 0.48077,-1.94633 0.65884,-2.64117c0.25343,-0.9889 0.27226,-1.83669 0.28267,-2.71734c0.0106,-0.89844 0.00133,-1.78799 0.00133,-2.64149c0,-1.03584 0.00061,-1.73183 0,-2.64117c-0.00067,-1 0.02802,-1.82134 -0.08533,-2.632c-0.14107,-1.00894 -0.51738,-1.90327 -1.08134,-2.684c-0.45213,-0.62591 -1.04105,-1.1739 -1.66666,-2c-0.43785,-0.57819 -0.84604,-1.41972 -1.65468,-2.11733c-0.53157,-0.45858 -1.291,-0.84149 -2.15483,-1.42533c-0.67255,-0.45456 -1.37332,-0.96431 -2.10899,-1.452c-0.36324,-0.2408 -1.75554,-1.04781 -2.4015,-1.33334c-0.59474,-0.26288 -1.67885,-0.67477 -2.3895,-0.9675c-0.8513,-0.35066 -1.85966,-0.61196 -2.69316,-0.72983c-0.93208,-0.13181 -1.71405,-0.33727 -2.53868,-0.54934c-1.05545,-0.27142 -1.77805,-0.36501 -2.48666,-0.45066c-1.07346,-0.12975 -2.04399,-0.32734 -2.73866,-0.47467c-0.69467,-0.14733 -1.95482,-0.40379 -2.73866,-0.464c-0.70811,-0.0544 -1.68283,-0.036 -2.49733,-0.036c-0.86852,0 -2.06418,0 -2.6685,0c-0.9315,0 -1.58086,-0.00484 -2.61684,0.00017c-1.10403,0.00534 -1.85518,0.0133 -2.59467,0.08517c-1.06598,0.10361 -2.03668,0.34266 -2.63733,0.48933c-1.07884,0.26345 -2.03873,0.37646 -2.7565,0.53516c-0.83318,0.18421 -1.79924,0.59178 -2.49017,0.911c-0.69855,0.32274 -1.66667,0.8125 -2.48567,1.222c-0.69299,0.3465 -1.51912,0.74783 -2.325,1.16783c-0.65045,0.339 -1.61201,0.90849 -2.142,1.242c-0.82414,0.51862 -1.35735,0.8734 -2.36467,1.46467c-0.69942,0.41054 -1.46153,0.83773 -2.32533,1.4255c-0.67024,0.45605 -1.36389,0.96952 -2.052,1.509c-0.98152,0.76952 -1.54092,1.25598 -2.03333,1.71217c-0.67168,0.62228 -1.47876,1.4296 -2.07201,2.04667c-0.40465,0.4209 -1.20534,1.3519 -1.60133,1.87466c-0.62804,0.8291 -1.03683,1.43455 -1.76534,2.31467c-0.50571,0.61095 -1.06522,1.20396 -1.644,1.8c-0.58653,0.60403 -1.49036,1.49947 -1.79066,1.80267c-0.61108,0.61694 -1.24158,1.26297 -1.884,1.96799c-0.68881,0.75593 -1.40018,1.59741 -1.76733,2.03917c-0.37421,0.45023 -1.12297,1.37472 -1.49466,1.842c-0.36964,0.46472 -1.43301,1.82513 -1.76601,2.26283c-0.64391,0.84637 -0.95909,1.25465 -1.52499,2.08083c-0.81557,1.19067 -1.04636,1.60101 -1.509,2.4045c-0.45866,0.79659 -0.90005,1.60311 -1.13667,2c-0.7215,1.21017 -1.27466,2.01251 -1.55199,2.43201c-0.57779,0.87395 -0.9003,1.32131 -1.76401,2.868c-0.3116,0.55801 -0.60349,1.15298 -0.89999,1.767c-0.30357,0.62862 -0.60132,1.27406 -0.90001,1.929c-0.60265,1.32146 -1.19765,2.63844 -1.50017,3.28233c-0.29884,0.63609 -0.60069,1.26182 -0.91049,1.875c-0.30658,0.60683 -0.93851,1.78964 -1.27467,2.36c-0.66565,1.12939 -1.02861,1.67116 -1.77633,2.7475c-0.38109,0.54858 -0.78135,1.10071 -1.185,1.6725c-0.4164,0.58986 -0.85455,1.19713 -1.72,2.53334c-0.46233,0.71382 -0.91975,1.46841 -1.3815,2.24849c-0.47034,0.79459 -0.93362,1.60419 -1.3905,2.41951c-0.45411,0.81038 -0.89722,1.61186 -1.728,3.16533c-0.39264,0.73419 -0.76386,1.4427 -1.1145,2.12849c-0.33861,0.66226 -0.65974,1.30737 -0.9615,1.9395c-0.2945,0.61691 -0.5817,1.22273 -1.09067,2.43201c-0.25146,0.59746 -0.48485,1.19916 -0.714,1.8c-0.45702,1.19835 -0.67626,1.80066 -0.90533,2.39999c-0.22959,0.60068 -0.96513,2.40149 -1.23267,2.99867c-0.26813,0.59851 -0.54202,1.19493 -1.12534,2.36533c-0.28956,0.58099 -0.58276,1.15492 -1.18933,2.26933c-0.59232,1.08821 -0.90096,1.61797 -1.2,2.15201c-0.60192,1.07494 -0.90456,1.62207 -1.2,2.18399c-0.60944,1.15909 -0.90839,1.76935 -1.4955,3.03601c-0.29819,0.64333 -0.58546,1.29388 -0.8685,1.944c-0.28062,0.64455 -0.55437,1.28111 -1.06934,2.51733c-0.48483,1.16388 -0.71251,1.72681 -0.93066,2.28267c-0.4313,1.099 -0.63711,1.65399 -0.83466,2.21866c-0.61879,1.76862 -0.80247,2.39923 -0.99683,3.03734c-0.19633,0.64456 -0.57076,1.94337 -0.74734,2.58932c-0.17406,0.63673 -0.49496,1.87094 -0.77316,3.03601c-0.13348,0.55899 -0.25576,1.10867 -0.50934,2.18399c-0.12589,0.53384 -0.5387,2.15274 -0.696,2.70667c-0.16,0.56343 -0.504,1.70401 -0.67867,2.27867c-0.17467,0.57466 -0.52747,1.71281 -0.83334,2.83333c-0.29509,1.08104 -0.41434,1.61955 -0.6875,2.6875c-0.13839,0.54106 -0.25813,1.09868 -0.8125,2.8125c-0.19835,0.61317 -0.43297,1.23663 -0.672,1.87651c-0.24361,0.65213 -0.74738,1.97426 -0.98933,2.642c-0.2407,0.66429 -0.67826,1.97968 -0.86266,2.62666c-0.18082,0.63445 -0.49142,1.88564 -0.64267,2.50067c-0.15009,0.61031 -0.25911,1.2305 -0.83334,3.02083c-0.19416,0.60536 -0.42976,1.20445 -0.681,1.8045c-0.51199,1.22285 -0.80588,1.83202 -1.09467,2.45267c-0.29253,0.62869 -0.89246,1.90883 -1.19116,2.5645c-0.30265,0.66432 -0.6041,1.3401 -1.22067,2.72c-0.31504,0.70506 -0.63403,1.42105 -0.9645,2.14499c-0.67661,1.48218 -1.03562,2.2356 -1.39999,3.00267c-0.37128,0.7816 -0.75245,1.57784 -1.13551,2.394c-0.39165,0.83449 -0.78988,1.6899 -1.1805,2.57401c-0.81163,1.83699 -1.2021,2.80505 -1.59734,3.79333c-0.40048,1.00139 -0.79202,2.01414 -1.1805,3.0285c-0.38618,1.00832 -0.762,2.0063 -1.13551,2.98349c-0.71547,1.87189 -1.06246,2.75182 -1.39867,3.59601c-0.32384,0.81313 -0.64088,1.59698 -0.945,2.358c-0.29585,0.74033 -0.58495,1.46344 -0.855,2.17799c-0.52974,1.40169 -0.76892,2.10463 -1.00267,2.80934c-0.23494,0.7083 -0.46074,1.42735 -0.684,2.15849c-0.22746,0.74487 -0.45313,1.50885 -0.684,2.29349c-0.48364,1.64374 -0.73702,2.50812 -1,3.39603c-0.26836,0.90607 -0.54134,1.82397 -0.816,2.74799c-0.27467,0.92401 -0.54786,1.84186 -0.816,2.74799c-0.51836,1.75171 -0.76349,2.58701 -0.99733,3.39468c-0.22612,0.78101 -0.44212,1.53809 -0.645,2.27399c-0.19706,0.71478 -0.38479,1.41147 -0.555,2.09402c-0.32928,1.32037 -0.46842,1.96729 -0.60133,2.60532c-0.13139,0.63068 -0.25175,1.25824 -0.36449,1.884c-0.11259,0.62491 -0.21832,1.25232 -0.3195,1.884c-0.20536,1.28201 -0.30141,1.93784 -0.40266,2.604c-0.10308,0.67816 -0.20807,1.36954 -0.3195,2.07449c-0.11387,0.72037 -0.23267,1.45697 -0.36449,2.2095c-0.27374,1.56268 -0.43487,2.37067 -0.59734,3.19467c-0.16451,0.83435 -0.33395,1.67297 -0.4965,2.51248c-0.16144,0.8338 -0.31956,1.65692 -0.4515,2.4675c-0.25241,1.55075 -0.33241,2.28827 -0.4,2.99734c-0.0652,0.68399 -0.11007,1.34787 -0.1485,1.9935c-0.03752,0.63037 -0.065,1.24924 -0.1035,1.85849c-0.0761,1.20453 -0.1357,1.80432 -0.20133,2.40402c-0.0657,0.60031 -0.14133,1.19998 -0.216,1.79999c-0.07467,0.60001 -0.15228,1.19946 -0.216,1.79999c-0.12723,1.19901 -0.2021,2.39853 -0.22683,2.99551c-0.02459,0.59372 -0.04881,1.76846 -0.05267,2.34732c-0.01125,1.69049 -0.0045,2.23584 -0.0045,3.3045c0,0.52734 0,1.578 0,2.10535c0,1.61398 -0.0015,2.16931 0.00134,2.73666c0.00587,1.17868 0.01686,1.79407 0.03467,2.42932c0.01843,0.65744 0.12711,2.78162 0.18549,3.54517c0.06018,0.78711 0.1328,1.58994 0.2145,2.40152c0.08195,0.81412 0.17203,1.62296 0.2685,2.41949c0.09425,0.77814 0.29285,2.2489 0.3955,2.92932c0.09749,0.64624 0.19565,1.26245 0.4,2.42334c0.09792,0.55621 0.30183,1.64215 0.5,2.72916c0.1011,0.5545 0.30155,1.68655 0.41067,2.25867c0.21942,1.15048 0.33661,1.72433 0.47466,2.29068c0.40714,1.6702 0.59195,2.20401 0.95067,3.26932c0.18079,0.5369 0.37966,1.07428 0.76534,2.18402c0.4039,1.1622 0.60094,1.77258 0.79867,2.39865c0.40466,1.28122 0.59943,1.93219 0.8,2.58133c0.19944,0.64554 0.38255,1.28851 1,3.10751c0.19453,0.57306 0.3921,1.12735 0.8,2.18066c0.19621,0.50665 0.58975,1.47903 1.19984,2.84082c0.19556,0.43652 0.59178,1.27396 0.96416,2.07501c0.35284,0.759 0.81087,1.82721 1.09233,2.4985c0.28123,0.67075 0.56984,1.38199 1.24367,2.48151c0.52365,0.85446 0.86198,1.27576 1.19733,1.71732c0.68848,0.90652 1.04527,1.35574 2.136,2.616c0.34091,0.39389 0.99909,1.12476 1.64583,1.77084c0.60673,0.60611 1.5149,1.40332 2.12083,1.87851c0.59427,0.46603 1.20782,0.89926 1.8,1.36798c0.91248,0.72223 1.50491,1.27274 2.12083,1.83685c0.63675,0.58319 1.64271,1.48288 2.00066,1.77899c0.72939,0.60333 1.49613,1.18378 1.88917,1.46417c0.78436,0.5596 1.98605,1.32001 2.38934,1.54932c0.79369,0.45126 1.59074,0.86133 2.39999,1.20001c1.18708,0.4968 1.99355,0.73611 2.77917,0.96582c0.76183,0.22275 1.85551,0.51636 2.5355,0.72086c0.65064,0.19568 1.58105,0.49933 2.48534,0.79999c0.90022,0.29932 1.49997,0.50009 2.4,0.79999c0.90013,0.29993 1.80474,0.61218 2.436,0.76401c1.32001,0.31747 2.04862,0.36304 2.8,0.39999c0.77415,0.03809 1.56533,0.03534 2.76383,0.03601c0.79567,0.00046 1.57933,0 2.343,0c1.43583,0 2.1045,0 2.75716,0c0.984,0 2.02188,0.0108 2.76167,-0.009c0.7804,-0.0209 1.61055,-0.04974 2.905,-0.32434c0.92658,-0.19656 1.38858,-0.36874 2.33334,-0.6875c0.476,-0.16058 1.4113,-0.51062 2.77834,-0.95782c0.43355,-0.14182 1.27811,-0.38626 2.075,-0.64667c0.76309,-0.24936 1.84067,-0.66748 2.81067,-1.21066c0.63605,-0.35617 1.2347,-0.76529 2.13634,-1.36417c0.60867,-0.4043 1.23909,-0.82416 1.914,-1.25699c1.11531,-0.71527 1.9545,-1.22684 2.39099,-1.5c0.89639,-0.56094 1.35371,-0.83926 2.22667,-1.44418c0.84427,-0.58505 1.60141,-1.19406 2.30667,-1.78799c0.67865,-0.57153 0.98331,-0.88846 2.028,-1.64401c0.70058,-0.50668 1.4615,-0.93661 2.20799,-1.392c0.7442,-0.45398 1.80949,-1.18985 2.14267,-1.46265c0.67912,-0.55603 1.34802,-1.19055 2.052,-1.884c0.7684,-0.7569 1.17332,-1.17068 2.036,-2.03336c0.44533,-0.44531 0.89467,-0.89465 1.34401,-1.34399c0.88266,-0.88266 1.7173,-1.71735 2.47865,-2.47867c0.35316,-0.35315 1.00951,-1.00949 1.60583,-1.60583c0.7995,-0.7995 1.51608,-1.50677 1.94534,-1.96616c0.63005,-0.67429 1.23181,-1.41351 1.82083,-2.23599c0.40767,-0.56924 0.80031,-1.16513 1.39999,-2.064c0.40021,-0.59988 1.00002,-1.5 1.40001,-2.10001c0.60019,-0.9003 1.00658,-1.50763 1.42082,-2.14166c0.43855,-0.67123 1.14751,-1.79065 1.66318,-2.62634c0.26953,-0.4368 0.81567,-1.33221 1.09067,-1.78134c0.54068,-0.88306 1.30267,-2.1084 1.53999,-2.47998c0.44714,-0.70007 0.8728,-1.35056 1.68533,-2.57068c0.39908,-0.59927 0.79022,-1.19626 1.2,-1.76401c0.78157,-1.08289 1.19902,-1.55536 1.82083,-2.25684c0.43472,-0.49042 1.15193,-1.30759 1.66318,-1.94849c0.5479,-0.68683 1.09473,-1.41302 1.63199,-2.14801c0.52129,-0.71313 1.00313,-1.39429 1.66318,-2.36182c0.41916,-0.61441 1.01808,-1.52267 1.42216,-2.12085c0.40659,-0.60187 0.8031,-1.22513 1.76534,-2.39999c0.50253,-0.61359 1.0675,-1.20175 1.35416,-1.5c0.58003,-0.60352 1.48123,-1.49796 2.07651,-2.09866c0.58336,-0.58868 1.1483,-1.14978 1.632,-1.716c0.83113,-0.9729 1.18217,-1.67444 1.77066,-2.51868c0.48378,-0.694 1.15536,-1.345 1.836,-1.992c0.55937,-0.53174 1.33995,-1.19455 1.964,-1.52798c0.77374,-0.41342 1.79417,-0.6142 2.54283,-0.64218c1.03111,-0.03854 1.98001,-0.02756 2.71967,0.01636c0.71118,0.04221 1.90678,0.25317 2.5775,0.41516c0.67618,0.1633 1.90846,0.48059 2.66267,0.97467c0.62605,0.41013 1.21143,1.04968 1.87199,1.836c0.3582,0.42639 0.97867,1.42154 1.28366,2.25333c0.29431,0.80267 0.48787,1.81256 0.53101,2.68933c0.03984,0.80975 0.01067,1.62134 0.01067,2.496c0,0.99866 -0.00055,1.81467 0,2.63068c0.00067,0.99866 -0.03725,1.88953 0.22133,2.88416c0.21806,0.83881 0.55273,1.47534 0.69334,2.48251c0.11049,0.79141 0.08466,1.54797 0.08533,2.65598c0.0006,0.98267 0,1.836 0,2.77869c0,0.6925 -0.01927,1.65283 0.02083,2.4035c0.04263,0.79794 0.33359,2.01685 0.55383,2.63248c0.34407,0.9617 0.50046,1.73392 0.85068,2.68268c0.28349,0.76801 0.45352,1.7724 0.62733,2.50684c0.21979,0.92874 0.76921,1.52823 1.24733,2.30984c0.41827,0.68378 1.12048,1.51538 1.53333,2.34732c0.32608,0.6571 0.59999,1.67792 1.47118,1.94284c0.97453,0.29636 1.71632,0.05716 2.6955,0.05716c0.8,0 1.60001,0 2.60001,0c0.79999,0 1.80438,0.05457 2.59999,-0.03601c1.01053,-0.11505 1.8036,-0.47726 2.40001,-0.76532c1.00623,-0.48596 1.802,-0.89468 2.60016,-1.29883c0.82275,-0.4166 1.49275,-0.77261 2.22118,-1.22134c0.8127,-0.50064 1.37448,-0.86154 2.41199,-1.6785c0.4917,-0.38718 1.15041,-0.99533 1.76534,-1.60001c0.80736,-0.79388 1.20134,-1.19998 1.80133,-1.79999c0.79984,-0.79984 1.38982,-1.38885 1.94284,-1.94284c0.77116,-0.77249 1.38229,-1.38467 1.60449,-2.31433c0.17545,-0.73407 0.31956,-1.75375 0.59435,-2.38449c0.32213,-0.73941 0.77765,-1.60226 1.11549,-2.26819c0.36133,-0.71219 0.73328,-1.44986 1.34283,-2.5235c0.38974,-0.68649 0.99037,-1.63934 1.34283,-2.26215c0.50677,-0.89548 0.9045,-1.8045 1.15717,-2.40451c0.25267,-0.60001 0.81612,-1.80331 1.15717,-2.409c0.35805,-0.63586 0.77213,-1.29248 1.34283,-2.42435c0.41699,-0.82703 0.60748,-1.27155 0.97917,-2.1875c0.37584,-0.92615 0.55708,-1.38931 0.99933,-2.75766c0.27797,-0.86002 0.50415,-1.69974 0.717,-2.517c0.10489,-0.40271 0.41003,-1.60312 0.60001,-2.40451c0.18933,-0.79868 0.3801,-1.59521 0.53784,-2.79999c0.1044,-0.79742 0.13733,-1.60028 0.19199,-2.39999c0.05469,-0.80029 0.18149,-2.0025 0.33185,-2.7955c0.14914,-0.78656 0.33701,-1.55017 0.64282,-2.63785c0.28589,-1.01672 0.50378,-1.66098 0.64282,-2.31934c0.28708,-1.35916 0.30579,-2.10889 0.35718,-2.88898c0.05402,-0.81992 0.16092,-2.12573 0.2215,-2.5795c0.12396,-0.92865 0.29141,-1.85965 0.483,-2.76901c0.09299,-0.44131 0.39221,-1.66751 0.68484,-2.72717c0.17282,-0.62585 0.4592,-1.71375 0.55798,-2.42999c0.12454,-0.90289 0.26785,-1.87558 0.478,-2.67801c0.2157,-0.82367 0.48251,-1.85034 0.53867,-2.54932c0.07288,-0.90707 0.03601,-1.91202 0.03601,-2.767c0,-0.62 -0.00568,-1.97974 0.00449,-2.711c0.01041,-0.74744 0.00797,-1.50012 0.16217,-2.58069c0.14438,-1.01181 0.35547,-1.61972 0.54935,-2.47998c0.22443,-0.99588 0.27866,-1.87598 0.284,-2.88669c0.00424,-0.79999 0,-1.79999 0,-2.61066c0,-0.64648 0,-1.87466 0,-2.42532c0,-0.8685 0,-2.06366 0,-2.94269c0,-0.80698 -0.0022,-1.6785 0,-2.56949c0.00226,-0.909 -0.01117,-1.67444 0.284,-2.65051c0.23697,-0.78363 0.67328,-1.71289 0.716,-2.60132c0.03842,-0.79907 0.02051,-1.77011 0.35266,-2.65268c0.26578,-0.70621 0.59467,-1.59015 0.86884,-2.44714l0.57983,-0.61484l0.84149,-0.28085" id="svg_6" stroke-width="2" stroke="#000" fill="none"/>
  <path t="19699,19772,19780,19792,19802,19820,19835,19835,19852,19852,19852,19868,19868,19869,19869,19884,19884,19884,19884,19901,19901,19901,19918,19918,19934,19934,19934,19951,19951,19969,19969,19969,19984,19984,20001,20001,20018,20018,20034,20034,20051,20051,20068,20068,20068,20084,20084,20084,20101,20101,20101,20101,20118,20118,20134,20134,20151,20151,20168,20184,20184,20184,20201,20201,20201,20218,20234,20234,20251,20251,20268,20268,20284,20301,20301,20320,20320,20334,20351,20368,20368,20384,20384,20401,20401,20418,20418,20433,20433,20450,20467,20467,20483,20483,20500,20500,20517,20533,20533,20551,20567,20567,20583,20616,20647,20708,20708,20956,21000,21024,21040,21053,21067,21084,21101,21102,21102,21117,21118,21118,21134,21152,21152,21168,21168,21184,21185,21185,21201,21201,21201,21201,21217,21217,21217,21234,21235,21235,21251,21251,21267,21267,21267,21268,21284,21284,21284,21301,21302,21302,21302,21317,21318,21318,21318,21334,21334,21334,21351,21351,21352,21367,21368,21368,21368,21386,21386,21386,21401,21401,21401,21401,21401,21417,21417,21417,21437,21437,21437,21451,21451,21451,21451,21451,21467,21467,21484,21484,21484,21501,21501,21501,21517,21517,21517,21517,21534,21534,21534,21551,21551,21551,21551,21567,21567,21584,21584,21584,21601,21601,21601,21601,21617,21617,21617,21617,21634,21634,21651,21651,21669,21669,21684,21684,21701,21701,21701,21717,21717,21734,21734,21751,21751,21767,21796,21812,21820,21836,21851,21867,21867" d="m225,364c0.2,0 1.22491,-0.25626 1.87866,0.22134c0.69907,0.51071 1.32275,0.76688 2.28801,0.77866c0.85434,0.01044 1.83505,0.1611 2.44232,0.35266c0.90799,0.28641 1.72147,0.51035 2.70084,0.59018c0.70956,0.05786 1.442,0.05252 2.5235,0.05716c1.00951,0.00433 1.64989,-0.02231 2.56534,0.08533c1.20801,0.14203 1.78693,0.35492 2.64417,0.56201c1.03149,0.24921 1.93628,0.33542 2.95717,0.35266c0.79996,0.01352 1.6161,0.02939 2.39999,0.28534c0.82097,0.26807 1.79114,0.83362 2.40001,1.104c0.78929,0.35049 1.80603,0.51944 2.59999,0.66333c1.00868,0.1828 1.73082,0.6355 2.716,0.862c0.75294,0.1731 1.72864,0.03387 2.48532,0.17065c1.02164,0.18466 1.62012,0.54898 2.56534,0.74802c0.77719,0.16367 1.61969,0.12216 2.66669,0.33331c0.96704,0.19504 1.66602,0.53983 2.80914,0.71185c0.65411,0.09845 1.33652,0.10974 2.30417,0.12015c0.99863,0.01074 1.93469,0.00134 2.88934,0.00134c0.76532,0 1.75949,-0.00381 2.50684,0c1.04254,0.00534 1.99149,0.16312 2.66699,0.35266c0.77667,0.21796 1.81903,0.51495 2.5285,0.59018c0.97116,0.10297 1.97903,0.01697 2.78299,0.2785c0.69766,0.22696 1.65106,0.71161 2.43134,0.77417c0.89719,0.07193 1.77567,0.06021 2.62201,0.42981c0.96182,0.42004 1.62518,0.56424 2.60382,0.57468c0.82013,0.00873 1.72153,0 2.6575,0c0.84933,0 1.76852,0 2.7627,0c0.76532,0 1.71866,0 2.57065,0c0.79868,0 1.78,0 2.69733,0c0.91202,0 1.74402,0 2.65485,0c0.88916,0 1.88177,-0.0553 2.65765,0.02084c0.8624,0.08463 1.54886,0.72614 2.43152,0.94315c0.88501,0.21759 1.76398,0.03601 2.70398,0.03601c0.88535,0 1.8157,-0.39297 2.60001,0.08533c0.80365,0.49008 1.38535,0.91467 2.28534,0.91467c0.79999,0 1.85352,-0.04486 1.99866,-0.80133c0.16934,-0.8826 0.00134,-1.79868 0.00134,-2.69867c0,-0.89999 0,-1.80899 0,-2.83334c0,-0.67648 0,-1.452 0,-2.5c0,-0.91998 0,-1.67999 0,-2.66666c0,-0.98532 0,-1.71066 0,-2.70001c0,-0.79999 0,-1.79999 0,-2.62131c0,-0.69302 0,-1.82135 0,-2.48401c0,-1.04401 0,-1.72668 0,-2.92532c0,-0.7485 0,-1.45203 0,-2.72202c0,-0.54733 0,-1.36334 0,-2.59915c0,-0.7095 0,-1.78152 0,-2.41617c0,-1.03201 0,-1.72668 0,-2.98935c0,-0.79199 0,-1.548 0,-2.68549c0,-0.66702 -0.00003,-1.37802 0,-2.10901c0.00009,-1.42667 -0.01797,-2.09201 0.03601,-3.03751c0.03485,-0.61035 0.24564,-1.81125 0.46399,-2.71066c0.14575,-0.6004 0.3869,-1.7991 0.44733,-2.39999c0.09036,-0.89883 0.20529,-2.10294 0.33667,-2.69867c0.19525,-0.88531 0.46002,-1.71078 0.63333,-2.72c0.1236,-0.71982 0.22195,-1.54465 0.52551,-2.54535c0.24313,-0.80161 0.57272,-1.63809 0.909,-2.478c0.16293,-0.40701 0.76282,-1.80331 1.01218,-2.36066c0.33151,-0.741 0.73645,-1.71887 1.04666,-2.54401c0.22552,-0.59991 0.74765,-1.92374 1.07333,-2.63467c0.33286,-0.72659 0.67432,-1.43027 1.03198,-2.064c0.57288,-1.01498 1.11087,-1.63379 1.68533,-2.54132c0.3425,-0.54111 0.67105,-1.20792 1.284,-2.19867c0.34348,-0.55518 0.91776,-1.42014 1.51468,-2.31467c0.39902,-0.59796 0.75916,-1.21069 1.39999,-1.98566c0.754,-0.91177 1.42233,-1.33569 2,-1.81967c0.83395,-0.6987 1.21497,-1.19058 1.76401,-1.98001c0.3638,-0.5231 0.93402,-1.54004 1.336,-2.19382c0.63858,-1.03864 1.14716,-1.63022 1.71066,-2.22086c0.77579,-0.81314 1.21051,-1.18341 1.78934,-1.84164c0.6235,-0.70901 1.20856,-1.59567 1.59549,-2.25919c0.39258,-0.67319 0.69604,-1.36801 1.383,-2.43466c0.46686,-0.72491 1.15881,-1.33212 1.62152,-1.90048c0.65585,-0.8056 0.94675,-1.57434 1.50015,-2.34268c0.49084,-0.68146 1.22955,-1.33475 1.72519,-1.85733c0.5311,-0.56 1.16232,-1.358 1.65381,-2.14316c0.53082,-0.84802 1.0426,-1.47955 1.71951,-2.22086c0.5336,-0.58435 0.79214,-1.41821 1.22665,-2.19998c0.45535,-0.81931 0.92734,-1.54733 1.53867,-2.03601l0.0405,-0.86398l0.28085,-0.89868l0.51599,-0.51599" id="svg_7" stroke-width="2" stroke="#000" fill="none"/>
  <path t="22996,23012,23012,23020,23020,23036,23036,23051,23051,23051,23067,23067,23067,23067,23067,23083,23083,23083,23084,23084,23100,23100,23100,23100,23100,23100,23100,23116,23116,23116,23116,23116,23133,23133,23133,23133,23133,23150,23150,23150,23150,23166,23166,23166,23166,23166,23183,23183,23184,23184,23184,23184,23184,23201,23201,23201,23201,23201,23201,23201,23201,23216,23216,23216,23216,23216,23216,23233,23233,23233,23233,23233,23233,23250,23250,23250,23250,23266,23266,23266,23283,23283,23283,23300,23300,23316,23333,23350,23350,23366,23366,23366,23383,23384,23384,23400,23400,23400,23416,23416,23416,23416,23416,23433,23433,23433,23433,23434,23450,23450,23450,23451,23466,23466,23466,23466,23483,23483,23484,23484,23484,23500,23500,23500,23500,23501,23516,23516,23516,23516,23517,23533,23533,23533,23533,23550,23551,23551,23566,23566,23566,23583,23584,23584,23600,23600,23600,23601,23616,23616,23616,23633,23633,23634,23650,23650,23650,23666,23666,23666,23684,23684,23701,23701,23701,23716,23716,23717,23733" d="m286,94c4.228,0 5.14413,-0.05232 6.116,0.00134c0.77142,0.04259 1.72791,0.44114 2.34567,0.70316c0.95578,0.4054 1.77835,0.70958 2.38501,0.8595c1.30783,0.32321 2.0383,0.35677 2.78931,0.41067c0.77435,0.05558 1.57013,0.07266 2.76453,0.24716c0.81702,0.11936 1.66611,0.32645 2.57098,0.597c0.48685,0.14556 1.53125,0.50732 2.68051,0.94917c0.60745,0.23354 1.22385,0.48302 1.84799,0.732c1.24173,0.49536 1.84235,0.74728 3,1.16666c1.03912,0.37645 1.5253,0.52991 2.4375,0.79167c0.84616,0.24281 2.06372,0.53692 2.86118,0.743c0.79187,0.20464 1.57428,0.40917 2.31598,0.684c1.07831,0.39957 1.73691,0.76433 2.38535,1.13551c0.65707,0.37611 1.66217,0.98734 2.38666,1.37917c0.75543,0.40858 1.5582,0.80376 1.97501,1c1.2995,0.61181 2.22672,1.00358 2.70901,1.2045c1.01071,0.42105 1.54755,0.63255 2.10532,0.85267c0.5809,0.22926 2.48755,0.96521 3.17599,1.22549c0.70557,0.26675 1.42322,0.53421 2.14801,0.7965c0.72321,0.26171 1.44003,0.51678 2.14801,0.7515c1.34839,0.44704 1.98404,0.63913 3.18048,0.955c0.56195,0.14836 1.63882,0.3961 2.15802,0.50533c1.51163,0.31804 2.01346,0.40742 3.00449,0.609c0.48782,0.09923 1.43918,0.29041 2.33835,0.5c1.23077,0.2869 1.95837,0.4932 2.629,0.7c0.94199,0.29048 1.84296,0.59573 2.73099,0.9c0.57562,0.19724 1.6517,0.5826 2.57468,1c0.63702,0.28809 1.6633,0.74966 2.19434,1.1c0.93289,0.61546 1.54382,1.24434 1.92017,1.943c0.37283,0.69215 0.09232,1.75843 0.14233,2.57784c0.04068,0.66638 0.26315,1.66316 0.47916,2.47916c0.216,0.816 0.42239,1.81931 0.5,2.5625c0.09155,0.87675 0.21573,2.02385 0.35718,2.95267c0.07574,0.4973 0.24857,1.52043 0.34732,2.03133c0.28149,1.45628 0.4881,2.30084 0.6955,3.05617c0.19312,0.70328 0.41208,1.37529 0.80002,2.78267c0.20642,0.74892 0.40091,1.5251 0.59998,2.31601c0.20096,0.79843 0.39807,1.59782 0.60001,2.388c0.19809,0.77515 0.60266,2.24323 0.79868,2.92932c0.1933,0.67659 0.39264,1.37375 0.51599,2.136c0.21082,1.30278 0.23257,2.30768 0.24933,2.832c0.0343,1.07309 0.03375,1.6125 0.03601,3.18001c0.0007,0.49016 0,1.41449 0,2.27083c0,0.79634 0,1.89583 0,2.90533c0,0.63634 0,1.55583 0,2.45717c0,0.89999 0,1.8 0,2.7c0,0.89549 0,1.76401 0,2.83333c0,0.71851 0,1.42801 0,2.5c0,0.972 0.00003,1.66667 0,2.36134c-0.00009,1.2625 0.04425,2.04996 -0.08533,2.98799c-0.13986,1.01254 -0.36581,1.54713 -0.56201,2.42184c-0.26645,1.18796 -0.31439,1.79018 -0.34198,2.6595c-0.03394,1.06883 0.04254,2.00821 -0.09601,2.83466c-0.13651,0.81422 -0.56427,1.58156 -0.79333,2.6015c-0.18179,0.80942 -0.20535,1.48517 -0.40533,2.4825l-0.216,0.79651l-0.216,0.7515l-0.26315,1.20683" id="svg_8" stroke-width="2" stroke="#000" fill="none"/>
  <path t="24785,24797,24797,24797,24797,24797,24797,24806,24806,24817,24817,24834,24834,24834,24851,24851,24851,24867,24867,24867,24867,24885,24885,24885,24885,24901,24901,24917,24917,24917,24934,24934,24951,24951,24951,24967,24984,24984" d="m212,84c14,3.5 14.94142,3.73562 15.772,3.94267c0.72844,0.18159 1.91357,0.48215 2.80249,0.68667c0.9236,0.21249 1.88365,0.36024 2.74701,0.37067c0.8891,0.01073 1.87993,-0.02918 2.69933,0.02084c0.66638,0.04068 1.66432,0.26922 2.52084,0.47916c0.61894,0.15171 1.97891,0.38718 2.711,0.44733c0.74667,0.06136 1.50031,0.06051 2.58066,0.21933c1.01202,0.14877 1.63409,0.32784 2.48001,0.63467c1.01318,0.36749 1.66789,0.69449 2.68666,1.19867c0.60123,0.29754 1.39999,0.7 2.2,1.1c0.8,0.4 1.80376,0.89265 2.39551,1.2c0.75223,0.39071 1.64732,0.9955 2.4045,1.53333l0.70001,0.16216" id="svg_9" stroke-width="2" stroke="#000" fill="none"/>
  <path t="31323,31337,31337,31337,31337,31337,31349,31349,31349,31349,31349,31349,31353,31353,31367,31367,31367,31384,31384,31384,31384,31384,31404,31404,31404,31404,31404,31418,31418,31418,31418,31434,31434,31434,31434,31434,31450,31450,31450,31450,31450,31467,31467,31467,31485,31485,31485,31500,31500,31500,31500,31517,31517,31517,31538,31538,31538,31550,31550,31567,31567,31567,31586,31587,31587,31602,31602,31602,31602,31602,31616,31616,31616,31633,31633,31633,31649,31666,31667,31667,31683,31684,31703,31731,31739,31749,31767,31784,31800,31800,31800,31800,31817,31817,31834,31834,31834,31850,31850,31850,31867,31867,31867,31867,31884,31884,31884,31884,31885,31900,31900,31900,31900,31917,31917,31917,31917,31934,31934,31934,31950,31950,31950,31950,31968,31968,31968,31968,32000,32000,32000,32001,32001,32001,32017,32017,32017,32017,32033,32034,32049,32067,32083,32084,32131" d="m123,396c2.62534,-1.26132 3.08349,-1.18985 4.08334,-0.95834c0.5352,0.12393 1.63343,0.41605 2.74999,0.625c0.54269,0.10156 1.59503,0.2337 2.58334,0.29169c0.46431,0.02722 1.32611,0.02377 2.72733,0.043c0.79367,0.01089 1.85742,0.16071 2.4695,0.35132c0.69615,0.2168 1.88474,0.49915 2.64117,0.56201c0.8412,0.06992 1.7413,0.077 2.20166,0.08084c1.37695,0.01151 2.25847,-0.00253 3.10767,0.01517c0.82555,0.01721 1.63844,0.04468 2.836,0.21066c0.80304,0.1113 1.59799,0.29001 2.40001,0.42599c1.19724,0.203 2.00102,0.27313 2.81067,0.32733c0.82504,0.05524 1.24919,0.05038 2.556,0.19199c0.91696,0.09937 1.8383,0.26428 2.29166,0.35419c0.87666,0.17386 2.04596,0.46594 2.97467,0.77466c0.77473,0.25754 1.73097,0.55847 2.52417,0.65182c0.85118,0.10019 2.04546,0.20663 2.64284,0.33667c0.90437,0.19687 1.49042,0.42029 2.69983,0.59451c0.88446,0.12741 1.46422,0.10614 2.77867,0.12164c0.68553,0.00809 1.53139,0.04602 2.526,0.35251c0.63969,0.19711 1.81505,0.54288 2.34816,0.59018c0.8201,0.07275 1.88066,0.05716 2.84334,0.05716c0.771,0 1.70399,0 2.45599,0c0.82401,0 1.672,0 2.496,0c1.39734,0 2.21033,0 2.93333,0c1.00133,0 1.79784,0 2.54933,0c1.11867,0 2.10266,0 2.77467,0c0.98932,0 1.85165,0 2.79199,0c0.90266,0 1.87462,0.32813 2.68184,-0.02084c0.71397,-0.30865 1.26041,-0.97385 1.94217,-1.42581c0.96846,-0.64203 1.34666,-1.03735 2.07866,-1.55334c0.73199,-0.51599 1.54636,-1.09854 2.11467,-1.62534c0.72758,-0.67444 1.40617,-1.39548 1.78983,-1.77917c0.79555,-0.79562 1.41058,-1.39249 1.9955,-2.05264c0.61621,-0.69547 1.20287,-1.50122 1.62083,-2.06369c0.43463,-0.58493 1.13698,-1.48694 1.66451,-2.07916c0.54169,-0.60812 1.12323,-1.20206 1.716,-1.79999c0.89534,-0.90314 1.4994,-1.49493 2.07784,-2.10001c0.56886,-0.59506 1.3649,-1.49155 1.83417,-2.09866c0.45044,-0.58273 0.86203,-1.15164 1.51999,-2.23468c0.42853,-0.70535 0.7784,-1.39996 1.33334,-2.33331c0.3111,-0.52325 0.85262,-1.35519 1.23782,-1.93784c0.59312,-0.89709 0.99307,-1.49939 1.61633,-2.41635c0.43372,-0.63812 1.14485,-1.64651 1.40051,-2.00049c0.52928,-0.73279 1.07954,-1.47803 1.62599,-2.22601c0.26909,-0.36835 1.03221,-1.42996 1.491,-2.08649c0.61662,-0.88239 0.93422,-1.42667 1.7045,-2.35184c0.52882,-0.63516 1.23634,-1.31433 1.67317,-2.01434l0.30533,-0.89999l0.42601,-0.60001l0.35133,-0.92932" id="svg_11" stroke-width="2" stroke="#000" fill="none"/>
  <path t="34302,34312,34313,34313,34313,34313,34313,34313,34313,34313,34321,34321,34321,34321,34321,34321,34321,34321,34321,34337,34337,34337,34337,34337,34337,34337,34337,34337,34351,34351,34351,34351,34351,34351,34351,34351,34351,34367,34367,34367,34367,34367,34367,34367,34367,34367,34384,34384,34384,34384,34384,34384,34384,34385,34385,34400,34400,34400,34400,34400,34417,34417,34417,34417,34417,34417,34434,34434,34434,34434,34434,34434,34434,34434,34450,34450,34450,34450,34450,34450,34467,34467,34467,34467,34467,34468,34468,34484,34484,34485,34485,34485,34485,34485,34500,34500,34500,34500,34501,34517,34517,34517,34517,34517,34534,34535,34535,34605,34605,34613,34637,34651,34668,34668,34668,34684,34684,34700,34700,34717,34755,34763,34763,34767,34767,34767,34784,34784,34800,34800,34800,34800,34817,34817,34817,34817,34817,34834,34834,34834,34834,34834,34834,34850,34850,34850,34851,34851,34867,34867,34867,34867,34868,34868,34884,34884,34884,34884,34884,34885,34900,34900,34900,34900,34900,34900,34917,34917,34917,34917,34917,34934,34934,34934,34934,34934,34950,34950,34950,34950,34950,34950,34967,34967,34967,34967,34967,34967,34967,34968,34985,34985,34985,34985,34985,34985,34985,35000,35000,35000,35000,35001,35020,35020,35020,35034,35034,35034,35051,35051,35051,35051,35051,35051,35067,35067,35067,35067,35067,35084,35084,35084,35084,35189,35189,35189,35190,35197,35197,35220,35220,35236,35251,35252,35268,35268,35268,35268,35285,35285,35285,35285,35301,35301,35301,35317" d="m169,164c-1.16667,4 -1.55049,5.54042 -1.98933,7.32533c-0.48492,1.9724 -0.99861,4.07735 -1.53149,6.258c-0.53778,2.20068 -1.0656,4.36584 -1.57651,6.438c-0.89902,3.64624 -1.27077,5.12042 -1.59067,6.36c-0.26659,1.03296 -0.49272,1.88359 -0.687,2.577c-0.15833,0.56509 -0.29515,1.02557 -0.41701,1.407c-0.20325,0.63622 -0.30798,0.93468 -0.40799,1.23468c-0.09999,0.29999 -0.2,0.59999 -0.3,0.89999c-0.10001,0.3 -0.2,0.60001 -0.3,0.89999c-0.20001,0.60001 -0.30003,0.90092 -0.40266,1.20668c-0.10605,0.31593 -0.21806,0.64685 -0.339,0.9975c-0.1297,0.37604 -0.27156,0.78206 -0.429,1.22249c-0.36015,1.00757 -0.57217,1.58026 -0.79733,2.196c-0.23753,0.6496 -0.48424,1.32478 -0.73199,2.01901c-0.25092,0.70309 -0.50005,1.40753 -0.73199,2.10899c-0.44505,1.34595 -0.62918,1.98349 -0.79733,2.592c-0.16034,0.58026 -0.30119,1.13806 -0.429,1.67401c-0.12276,0.51477 -0.23256,1.01268 -0.339,1.49399c-0.30255,1.36807 -0.39551,1.80746 -0.61333,2.664c-0.21689,0.85287 -0.46468,1.71259 -0.75601,2.59201c-0.30684,0.92621 -0.66161,1.90033 -0.83333,2.41666c-0.17772,0.53433 -0.53766,1.66869 -0.83333,2.91667c-0.15669,0.66138 -0.28572,1.35123 -0.4095,2.058c-0.12561,0.71724 -0.34712,2.16591 -0.45267,2.884c-0.10376,0.7059 -0.30029,2.05869 -0.40468,2.6935c-0.1964,1.19434 -0.3044,1.75777 -0.42065,2.302c-0.22462,1.05157 -0.64145,2.56387 -0.80051,3.06284c-0.32245,1.01154 -0.50679,1.52007 -0.67867,2.04134c-0.35307,1.07079 -0.53999,1.62271 -0.83333,2.79166c-0.30798,1.22726 -0.41496,1.86731 -0.54134,2.50667c-0.1263,0.63899 -0.36949,1.8994 -0.50934,2.50667c-0.26649,1.15718 -0.59274,2.19992 -0.76866,2.68184c-0.33368,0.91409 -0.7204,1.748 -1.18066,2.9715c-0.29814,0.79254 -0.53499,1.5881 -0.75601,2.364c-0.2135,0.7495 -0.50885,1.81465 -0.70616,2.46983c-0.26628,0.88419 -1.01505,1.89999 -0.65784,2.70883c0.32265,0.73056 1.55669,0.39322 2.37468,0.46802c0.92139,0.08426 1.82542,0.42816 2.57332,0.63666c1.03096,0.28738 1.76639,0.36899 2.658,0.70532c0.70602,0.26633 1.7236,0.79123 2.54733,0.64468c0.85228,-0.15161 1.3727,-1.00946 1.63333,-1.99734c0.20679,-0.78378 0.14432,-1.60034 0.17117,-2.60901c0.01767,-0.66351 0.15187,-1.72632 0.28084,-2.36166c0.21814,-1.07466 0.41833,-1.83853 0.71466,-3.02933c0.19945,-0.80147 0.30226,-1.20395 0.5,-2.02083c0.20232,-0.83578 0.49973,-2.1459 0.70134,-3.06317c0.10303,-0.4687 0.30888,-1.41872 0.55583,-2.36333c0.12289,-0.47008 0.55566,-1.83464 0.89549,-2.70001c0.16847,-0.429 0.54163,-1.27046 0.86334,-2.13666c0.4928,-1.32681 0.61093,-1.79958 0.84799,-2.76266c0.12148,-0.4935 0.33458,-1.5144 0.43466,-2.04001c0.31093,-1.63286 0.40201,-2.1972 0.60133,-3.33867c0.10034,-0.5746 0.19792,-1.14969 0.40001,-2.29066c0.19795,-1.11769 0.39857,-2.1976 0.5,-2.72234c0.19725,-1.02052 0.29477,-1.5161 0.5,-2.47499c0.29256,-1.36696 0.39909,-1.80289 0.59999,-2.66133c0.19913,-0.85089 0.40524,-1.70818 0.70001,-3.04668c0.10181,-0.46227 0.29959,-1.40407 0.5,-2.35333c0.09979,-0.4727 0.39468,-1.85989 0.60266,-2.74533c0.1037,-0.44145 0.33035,-1.345 0.61166,-2.30417c0.15169,-0.51721 0.51241,-1.64479 0.955,-2.91316c0.23697,-0.67908 0.49062,-1.37518 0.7515,-2.0835c0.26311,-0.71436 0.52969,-1.42618 0.79651,-2.12851c0.51347,-1.35162 0.75797,-1.98724 1.22549,-3.17467c0.21967,-0.55792 0.43159,-1.09464 0.85266,-2.10533c0.20091,-0.48227 0.8067,-1.84785 1.19551,-2.709c0.36974,-0.81891 0.57471,-1.20111 0.83833,-1.97499c0.46964,-1.3786 0.49074,-2.04251 0.61884,-2.925c0.15157,-1.04425 0.39738,-1.76877 0.7135,-2.58583c0.40356,-1.04306 0.72324,-1.91333 0.89549,-2.39101c0.36276,-1.00598 0.53854,-1.52539 0.94417,-2.53416c0.38458,-0.95645 0.7919,-1.79883 1.188,-2.55333c0.36961,-0.70401 0.76074,-1.36359 1.18933,-2.41867c0.29323,-0.72185 0.50711,-1.48363 0.774,-2.226c0.3932,-1.0937 0.71745,-1.7715 1.2265,-2.69017c0.30357,-0.54785 1.04185,-1.59601 0.93283,-2.44516c-0.12796,-0.99667 -0.66205,-1.67134 -1.21201,-2.36017c-0.64337,-0.80583 -1.20123,-1.35838 -2.24333,-1.636c-0.73199,-0.19501 -1.35432,-0.15804 -2.03,-0.2905c-1.17827,-0.23097 -2.02853,-0.53293 -2.90584,-0.83067c-0.85934,-0.29166 -2.02083,-0.66667 -2.6635,-0.82933l-0.774,-0.129l-1.06099,-0.04167" id="svg_12" stroke-width="2" stroke="#000" fill="none"/>
 </g>
 <g display="none">
  <title>muse_image</title>
  <image xlink:href="http://farm1.static.flickr.com/51/165448746_6db1de129e.jpg" id="muse" height="480" width="640" y="0" x="0"/>
 </g>
 <g display="none">
  <title>bbox</title>
  <rect stroke="#f00" fill="none" stroke-width="3" height="330.24" width="574.72" y="92.16" x="65.28" id="bbox"/>
 </g>
</svg>
