<svg width="640" height="480" xmlns="http://www.w3.org/2000/svg" xmlns:svg="http://www.w3.org/2000/svg" xmlns:xlink="http://www.w3.org/1999/xlink">
 <!-- Sketchy ANNOTATION
  ImageNet ID: n02676566_7385
  URL: http://farm4.static.flickr.com/3036/2565784190_6a9344239b.jpg
  Image Width: 278
  Image Height: 500
  BBox X: 41
  BBox Y: 6
  BBox Width: 195
  BBox Height: 487
  Exposure: 2000ms
  Synset Label: guitar
  Synset ID: n03467517
  Worker Tag: upright guitar with dark backdrop
  Sanity Check: 
   Saved
  Comment: 
   {}
  Worker ID: A2HM35CWB7IIFM
  Assignment ID: 39ASUFLU6X7C01FT3FRLJ111DWYEXH
  HIT ID: 39RRBHZ0AU1GKN309LZER6ADHAFZV9
  Work Time: 141s
  Worker Score: 0.7857
 END ANNOTATION -->
 <g display="inline">
  <title>Layer 1</title>
  <path t="0,191,193,203,203,214,228,228,245,251,260,274,290,310,322,323,339,347,359,373,373,373,384,384,384,396,396,409,422,422,433,433,446,457,457,473,483,483,495,495,506,506,524,524,524,524,531,531,543,543,544,556,556,573,573,580,580,592,592,606,606,617,617,629,629,641,641,656,667,667,678,678,691,716,716,728,728,739,765,777,777,789,790,806,813,825,826,862,862,888,901,901,925,949,973,991,998,999,1009,1024,1025,1035,1046,1071,1084,1108,1145,1145,1169,1182,1194,1218,1231,1231,1243,1255,1256,1273,1281,1292,1306,1306,1317,1317,1328,1341,1356,1366,1378,1402,1427,1439,1439,1464,1475,1476,1489,1501,1512,1512,1537,1537,1562,1586,1599,1611,1623,1641,1660,1685,1709,1723,1740,1758,1782" d="m337.5,224.89999c-1.836,0 -2.60132,0 -3.59549,0c-0.91919,0 -1.90451,0 -2.72583,0c-0.85333,0 -1.79333,0 -2.77869,0c-0.89999,0 -1.45438,0.41769 -2.12149,0.87851c-0.72971,0.50406 -1.7785,0.12149 -2.57849,0.12149c-0.90002,0 -1.79578,0.04506 -2.62134,0.42534c-0.90747,0.41801 -1.58759,0.53679 -2.36401,0.564c-1.04742,0.0367 -1.98822,-0.0504 -2.81332,0.09601c-1.01617,0.18031 -1.71405,0.67879 -2.64868,0.8575c-0.90469,0.17299 -1.75266,0.05716 -2.586,0.05716c-0.86215,0 -1.81812,-0.01184 -2.65067,0.28401c-0.70605,0.2509 -1.677,0.50481 -2.51599,0.88266c-0.68896,0.31029 -1.48279,0.78569 -2.40451,0.82884c-0.99576,0.04662 -1.83902,-0.00507 -2.76215,0.17116c-0.79443,0.15166 -1.61255,0.43156 -2.14935,0.63467c-1.24249,0.47012 -1.90146,0.81772 -2.85065,1.19865c-0.77542,0.3112 -1.56198,0.60141 -2.5,0.83334c-0.80518,0.19908 -1.67929,0.33818 -2.508,0.77733c-0.83167,0.44072 -1.4288,1.0213 -2.14667,1.48933c-0.65991,0.43025 -1.68103,0.9722 -2.26801,1.5c-0.6366,0.57242 -1.18524,1.27095 -1.38535,2.23601c-0.15695,0.75699 -0.26837,1.82495 -0.72983,2.44966c-0.5712,0.77325 -1.40884,1.14816 -1.7955,1.73517c-0.62158,0.94368 -1.10382,1.54953 -1.47467,2.37917c-0.35043,0.78392 -0.9061,1.40909 -1.67349,1.89999c-0.63721,0.40762 -1.22842,1.31877 -1.89349,1.7c-0.85422,0.48964 -1.65884,0.57053 -2.43683,1.09984c-0.74362,0.50594 -1.63004,0.72026 -2.31702,1.25734c-0.74408,0.58174 -0.82626,1.50255 -1.56583,2.04283c-0.62042,0.45325 -1.52936,0.97299 -2.23849,1.7c-0.56503,0.57928 -0.88974,1.39981 -0.90018,2.29999c-0.01041,0.89996 0,1.80002 0,2.7002c0,0.78516 0,1.72516 0,2.73315c0,0.75601 0,1.66666 0,2.56665c0,0.90002 0,1.80002 0,2.70001c0,0.89999 0,1.70001 0,2.60001c0,0.89999 0,1.79999 0,2.71066c0,0.91068 0,1.76401 0,2.70401c0,0.88531 0,1.68533 0,2.58533c0,0.89999 -0.01672,1.82101 0.00015,2.62134c0.01801,0.85388 0.35641,1.75256 0.71585,2.47733c0.42749,0.86197 0.80975,1.67245 1.5795,2.14865c0.65158,0.40308 0.52234,1.51221 1.1405,2.02734c0.63321,0.52768 1.60223,0.75928 2.36398,1.10934c0.74976,0.34454 1.51135,1.03513 1.91467,1.716c0.48996,0.82715 0.74554,1.57779 1.38516,2.30017c0.56503,0.63812 0.77838,1.56656 0.95285,2.24716c0.26886,1.04889 0.79745,1.75696 0.94733,2.65265c0.14023,0.8382 0.83749,1.34293 1.35266,1.94733c0.55096,0.64642 0.40445,1.48749 0.65182,2.34818c0.2207,0.76788 0.97467,1.22534 1.01636,2.18369l0.58981,0.51016" id="svg_1" stroke-width="2" stroke="#000" fill="none"/>
  <path t="2497,2692,2703,2716,2716,2727,2728,2728,2739,2739,2757,2765,2765,2776,2776,2789,2807,2813,2825,2839,2850,2862,2886,2913,2937,2937,2950,2951,2967,2976,2989,2999,3009,3009,3022,3039,3046,3071,3071,3084,3096,3108,3108,3123,3133,3157,3157,3181,3182,3194,3206,3223,3223,3230,3243,3256,3273,3273,3273,3279,3280,3291,3292,3307,3307,3316,3317,3328,3340,3357,3357,3366,3366,3377,3389,3407,3415,3415,3427,3427,3427,3439,3440,3456,3464,3476,3476,3500,3500,3500,3512,3524,3524" d="m283.5,304.89999c0,1.80002 0,2.63602 0,3.48666c0,0.76001 0,1.93451 0,2.728c0,0.77551 0.16812,1.85284 -0.08533,2.58267c-0.32468,0.93484 -1.01202,1.52557 -1.41467,2.20267c-0.49673,0.8353 -0.97263,1.64331 -1.47467,2.38934c-0.44974,0.6683 -1.01871,1.23837 -1.45065,2.01065c-0.45758,0.81808 -0.89877,1.46573 -1.54935,2.02536c-0.64325,0.55334 -0.9931,1.24139 -1.31067,2.05865c-0.27652,0.71161 -1.00098,1.57312 -1.35748,2.21149c-0.47229,0.84567 -0.49524,1.67746 -1.00452,2.35718c-0.47363,0.63214 -0.2341,1.62054 -0.43799,2.46335c-0.21481,0.888 -0.52274,1.78943 -1.20001,2.39999c-0.64624,0.58258 -1.48633,0.72412 -2.104,1.48398c-0.60391,0.74292 -1.08505,1.36966 -1.75998,1.62534c-0.89401,0.33865 -1.41568,0.90659 -2.33469,1.26001c-0.71255,0.27402 -1.6297,0.6933 -2.15433,1.41467c-0.51636,0.71002 -0.71478,1.60376 -1.36166,2.29999c-0.56052,0.60327 -0.98132,1.39948 -1,2.30002c-0.01871,0.90115 -0.16861,1.86591 -0.42532,2.53598c-0.29291,0.7645 -0.48346,1.77002 -0.62735,2.564c-0.1828,1.0087 -0.61539,1.73505 -0.82584,2.57867c-0.22104,0.88611 -0.11401,1.84671 -0.12149,2.53735c-0.01044,0.96335 -0.4921,1.7244 -0.83334,2.65067c-0.29379,0.79742 -0.35126,1.65726 -0.74133,2.42267c-0.40833,0.80124 -0.42532,1.71066 -0.42532,2.61066c0,0.90033 0,1.77066 0,2.56934c0,0.7515 0,1.548 0,2.76898c0,0.80002 0,1.82568 0,2.66302c0,0.96533 0,1.81949 0,2.79865c0,0.78934 0,1.51468 0,2.5l0,0.98401l0,0.69067" id="svg_2" stroke-width="2" stroke="#000" fill="none"/>
  <path t="4411,4618,4631,4654,4668,4691,4715,4740,4762,4762,4766,4779,4779,4791,4791,4791,4807,4807,4807,4813,4813,4813,4825,4825,4840,4840,4840,4849,4850,4862,4862,4873,4889,4899,4900,4923,4939,4948,4960,4972,4992,4998,5012,5013,5024,5039,5039,5046,5046,5058,5058,5058,5072,5072,5083,5083,5083,5095,5095,5095,5106,5106,5122,5123,5123,5133,5144,5144,5156,5172,5181,5206,5206,5222,5231,5231,5242,5242,5242,5257,5257,5267,5267,5267,5279,5279,5304,5304" d="m257.5,379.89999c0,1.70001 0,2.70001 0,3.60001c0,0.89999 -0.00009,1.79999 0,2.70001c0.00009,0.79999 0.23743,1.65631 0.64734,2.39999c0.43124,0.78241 0.52655,1.64539 0.89432,2.32083c0.55548,1.0202 1.1192,1.57214 1.633,2.17917c0.66949,0.79099 1.05109,1.41403 1.578,2.19998c0.54651,0.81519 1.11581,1.36105 1.53751,2c0.6265,0.94925 0.66302,1.84149 1.04318,2.60001c0.42551,0.84897 1.05334,1.31 1.78,2.116c0.55258,0.61292 0.59702,1.64465 1.056,2.31467c0.48032,0.70114 1.6651,0.77075 1.83066,1.56934c0.16333,0.78781 0.67328,1.46259 1.38934,1.97467c0.71121,0.50861 1.34158,0.87695 2,1.46133c0.69318,0.61523 1.07114,1.38721 1.71066,2.00668c0.6218,0.60229 1.14001,1.3053 1.89999,1.724c0.67935,0.37427 1.51047,0.99521 2.17465,1.46933c0.68845,0.49146 1.11328,1.28851 1.79468,1.79465c0.71756,0.53299 1.84918,0.45319 2.69733,0.90268c0.76099,0.40329 1.04642,1.10233 1.65485,1.86649c0.48737,0.61212 1.05414,1.18161 2.07718,1.91617c0.56537,0.40594 1.45822,1.03207 1.96533,1.69867c0.45645,0.60001 1.22424,1.09122 1.836,1.75333c0.5986,0.64786 1.24136,1.15677 2.09549,1.43652c0.76791,0.2515 1.27081,0.94879 2.05634,0.991c1.02136,0.05487 1.97211,-0.03665 2.66901,0.02533c0.98605,0.08768 1.76291,0.45389 2.57916,0.69516c0.98849,0.29221 1.64572,0.25754 2.82117,0.50534c0.80167,0.16901 1.569,0.42599 2.436,0.65717l0.89099,0.117l0.90451,0.00449l0.86331,0" id="svg_3" stroke-width="2" stroke="#000" fill="none"/>
  <path t="6300,6507,6508,6519,6519,6533,6548,6568,6569,6593,6593,6608,6624,6630,6640,6641,6655,6655,6656,6666,6667,6667,6678,6678,6678,6690,6690,6705,6705,6715,6727,6727,6739,6756,6765,6765,6776,6776,6776,6789,6789,6805,6805,6813,6813,6813,6825,6825,6839,6839,6849,6861,6862,6886,6886,6911,6923,6939,6948,6960,6972,6972,6989,6989,6997,6997,6997,7009,7009,7009,7022,7022,7038,7039,7045,7046,7058,7079,7079,7079,7083,7094,7094,7107,7122,7132,7132,7144,7144,7156,7173,7193,7193,7205,7205,7223,7229" d="m309.5,429.89999c2.79999,0 3.60001,0 4.59549,0c0.74734,0 1.64734,0 2.60583,0c0.96533,0 1.79868,0 2.63202,0c0.86215,0 1.76666,0 2.66666,0c0.91068,0 1.8215,0 2.52084,0c0.97916,0 1.78983,0 2.66449,0c1,0 1.83551,0 2.716,0c0.8985,0 1.78799,0 2.64151,0c1.03549,0 1.9155,0 2.7905,0c0.86215,0 1.80264,0 2.65067,0c0.86331,0 1.75882,0 2.71732,0c0.96533,0 1.63467,0 2.79868,0c0.79999,0 1.60001,0 2.60001,0c0.79999,0 1.60016,0 2.42084,0c1.14581,0 1.92734,0 2.71783,0c0.92798,0 1.87598,0 2.74533,0c0.86331,0 1.81036,0.13345 2.71732,-0.284c0.60324,-0.27765 1.45001,-0.68613 2.31467,-0.71466c0.96265,-0.03177 1.884,-0.00134 2.784,-0.00134c0.90002,0 1.80066,0.03391 2.70001,0c0.75879,-0.02859 1.65842,-0.36472 2.46167,-0.7045c0.95587,-0.40436 1.48251,-0.61853 2.31299,-0.8595c1.04913,-0.30441 1.99432,-0.37766 2.62085,-0.48868c1.01401,-0.17969 1.78528,-0.53165 2.72049,-1.146c0.6488,-0.42621 1.5491,-0.68607 2.23132,-0.854c0.91986,-0.22644 1.65955,-1.10986 2.05267,-1.77264c0.40717,-0.68646 0.87387,-1.4425 1.60001,-2.17468c0.57986,-0.58469 1.44131,-0.88385 2.20001,-1.284c0.85837,-0.4527 1.55804,-0.77255 2.09998,-1.42133c0.56549,-0.67697 1.30661,-1.19736 2.11069,-1.30533c0.92642,-0.12439 1.58932,-0.51016 2.56781,-1.08917l0.61084,-0.46417l0.81067,-0.39999l0.89999,-0.0405" id="svg_4" stroke-width="2" stroke="#000" fill="none"/>
  <path t="8350,8569,8593,8612,8612,8612,8623,8623,8623,8630,8631,8631,8631,8641,8641,8641,8655,8655,8655,8656,8666,8666,8666,8678,8678,8689,8707,8707,8714,8714,8726,8739,8758,8764,8775,8776,8789,8805,8813,8813,8824,8824,8825,8839,8839,8849,8849,8849,8861,8861,8861,8874,8874,8888,8889,8899,8900,8911,8911,8923,8939,8948,8960,8960,8985,8998,8998,9012,9023,9033,9033,9045,9046,9057,9057,9072,9072,9083,9095,9095,9119,9119,9119,9133,9133,9156,9181,9181,9193,9193,9206,9206,9222,9230,9230,9242,9242,9256,9256,9256,9267,9267,9267,9278,9278,9291,9291,9306,9316,9328,9340,9365,9377,9401,9401,9414,9427,9439,9456,9457,9463,9463,9463,9475,9475,9490,9491,9491,9500,9500,9500,9511,9512,9524,9524,9540,9549,9550" d="m393.5,413.89999c1.70001,-1.05267 2.52597,-1.53638 3.16666,-2.16666c0.49451,-0.48648 1.04697,-1.04105 1.83334,-1.83334c0.59775,-0.60226 1.22269,-1.19647 1.83334,-2.16666c0.31403,-0.4989 0.634,-1.34952 1.05066,-2.14932c0.40631,-0.77991 0.96634,-1.45834 1.52051,-2.19385c0.61154,-0.81165 1.00854,-1.44962 1.37415,-2.14084c0.36523,-0.69049 0.9122,-2.00949 1.052,-2.57733c0.22305,-0.90594 0.41129,-1.92059 0.87384,-2.4675c0.63928,-0.75586 1.39713,-1.40289 1.89551,-1.90451c0.69775,-0.70227 1.12247,-1.28314 1.37466,-2.21466c0.25458,-0.9404 0.89017,-1.47678 1.02667,-2.38531c0.12137,-0.80786 0.64682,-1.49963 0.99866,-2.30002c0.35349,-0.80414 0.84366,-1.6647 1,-2.52081c0.17844,-0.97711 0.38977,-1.5665 0.64734,-2.37918c0.31311,-0.98798 0.34732,-1.83594 0.35266,-2.76666c0.00452,-0.78601 0,-1.608 0,-2.66666c0,-0.93069 -0.03067,-1.76596 0.00449,-2.76669c0.02814,-0.80124 0.22223,-1.59811 0.49551,-2.39999c0.34003,-0.99774 0.45715,-1.78958 0.5,-2.83331c0.03107,-0.75623 0.61813,-1.47702 0.91467,-2.36667c0.28589,-0.85767 0.08533,-1.80002 0.08533,-2.60001c0,-0.836 0,-1.85266 0,-2.54733c0,-1.01666 0,-1.95718 0,-2.81934c0,-0.83334 0,-1.81201 0,-2.586c0,-0.90451 0,-1.65182 0,-2.646c0,-0.94418 0,-1.84866 0,-2.76801c0,-0.85416 0,-1.83334 0,-2.63333c0,-0.80002 0,-1.7955 0,-2.54285c0,-1.03183 0,-1.97849 0,-2.65717c0,-0.97867 0,-1.884 0,-2.82532c0,-0.69067 0,-1.67468 0,-2.66c0,-0.72534 0,-1.71466 0,-2.51468c0,-1 0,-1.81067 0,-2.68533c0,-0.99866 0.00055,-1.81467 0,-2.63065c-0.00067,-0.99734 0.14667,-1.90442 -0.28534,-2.79868c-0.37271,-0.77148 -1.31216,-1.18234 -1.62933,-2.08533c-0.29959,-0.85297 0.23672,-1.93811 -0.25198,-2.63333c-0.50327,-0.71594 -0.93375,-1.40918 -1.63467,-1.88135c-0.71075,-0.47879 -1.58151,-0.73972 -2.39868,-1.20267c-0.78452,-0.44446 -1.20084,-1.22491 -1.96664,-1.74933c-0.59949,-0.41052 -1.49292,-0.40594 -2.42883,-1.04318c-0.61264,-0.41711 -1.21753,-1.14508 -1.92535,-1.79016c-0.43637,-0.39771 -1.26535,-0.96027 -1.95831,-1.52081c-0.68777,-0.55634 -1.23221,-1.39233 -1.56085,-2.14319c-0.36429,-0.83234 -1.10931,-1.42532 -1.79065,-2.03598l-0.39084,-0.90002l-0.483,-0.59998" id="svg_5" stroke-width="2" stroke="#000" fill="none"/>
  <path t="10840,11059,11071,11096,11097,11114,11114,11129,11130,11134,11145,11156,11181,11192,11192,11230,11266,11304,11317,11330,11352,11352,11366,11366,11376,11377,11394,11394,11395,11411,11411,11414,11414,11426,11450,11450,11463,11487,11524,11524,11561,11573,11598,11622,11623,11639,11646,11659,11673,11689,11696,11696,11708,11708,11723,11733,11744,11756,11781,11794,11794,11818,11832,11855,11856,11874,11880,11897,11897,11907,11924,11924,11929,11930,11940,11940,11955,11965,11965,11977,11978,11990,11991,12005,12005,12015,12015,12026,12027,12039,12039,12055,12055,12076,12076,12089,12089,12105,12125,12138,12155,12155,12162,12162,12174,12189,12189,12199,12199,12211,12211,12211,12222,12222,12238,12238,12247,12248,12260,12284,12298,12309,12322,12322,12339,12346,12358,12373,12374,12383,12395,12406,12444,12444" d="m395.5,305.89999c-1.22134,-0.87866 -1.83865,-1.40927 -2.28534,-2.20132c-0.34198,-0.60638 -0.99609,-1.46234 -1.41467,-2.146c-0.47784,-0.78046 -0.97742,-1.46677 -1.32532,-2.25269c-0.36203,-0.81787 -0.84973,-1.60461 -0.97482,-2.5c-0.12665,-0.90646 -0.76102,-1.43765 -0.979,-2.39999c-0.19888,-0.87799 -0.02084,-1.79999 -0.02084,-2.69998c0,-0.90002 -0.09094,-1.81244 0.05716,-2.55719c0.18475,-0.92908 0.65469,-1.63211 0.85883,-2.64417c0.1236,-0.61279 0.23502,-1.7692 0.43668,-2.54681c0.20612,-0.7948 0.45853,-1.72336 0.64734,-2.53101c0.19824,-0.8479 0.69501,-1.66034 0.91467,-2.6355c0.19547,-0.86771 0.17941,-1.68021 0.58533,-2.38535c0.45728,-0.79434 0.88608,-1.63834 1.216,-2.29999c0.42056,-0.84335 0.2067,-1.86755 0.72,-2.60001c0.55365,-0.79004 1.36176,-1.25134 1.54315,-2.10001c0.18817,-0.88034 0.02084,-1.79999 0.02084,-2.69998c0,-0.90002 0,-1.80002 0,-2.55719c0,-0.89548 0,-1.75882 0,-2.72198c0,-0.92084 0.00006,-1.82083 0,-2.72083c-0.00009,-0.90002 -0.21457,-1.77011 -0.57468,-2.40002c-0.49405,-0.86418 -0.95251,-1.60942 -1.30383,-2.49998c-0.26062,-0.66069 -0.08472,-1.66238 -0.64233,-2.40001c-0.58759,-0.77728 -1.32324,-1.2681 -1.46848,-2.13599c-0.1402,-0.83777 0.01077,-1.78989 -0.29602,-2.76268c-0.18842,-0.59743 -0.87326,-1.53932 -1.27866,-2.19066c-0.48523,-0.77962 -0.58923,-1.7674 -0.95685,-2.38983c-0.49329,-0.83521 -1.38422,-1.05363 -2.13184,-1.37801c-0.89066,-0.38643 -1.53668,-1.04359 -2.23132,-1.3575c-0.89929,-0.40639 -1.73932,-0.29887 -2.716,-0.6425c-0.82269,-0.28946 -1.61121,-0.72141 -2.37915,-1.14284c-0.86771,-0.47617 -1.47278,-1.09877 -2.34216,-1.37866c-0.82419,-0.26535 -1.7475,-0.48834 -2.47736,-0.83733c-0.76385,-0.36522 -1.72217,-0.25822 -2.50583,-0.63667c-0.88885,-0.42926 -1.69611,-0.60933 -2.52884,-0.64734c-0.86316,-0.03938 -1.64011,-0.62332 -2.48816,-0.87849c-0.67657,-0.20358 -1.87851,-0.12151 -2.6785,-0.12151c-1,0 -1.80798,0.04999 -2.60001,-0.08533c-0.81158,-0.13866 -1.58078,-0.49898 -2.51599,-1.11333c-0.6488,-0.42622 -1.53525,-0.76895 -2.23132,-0.79684c-1.0159,-0.04071 -1.95267,-0.0045 -2.85269,-0.0045c-0.89999,0 -1.80038,0.02536 -2.59998,0c-0.9014,-0.02859 -1.66306,-0.57367 -2.5,-0.94733c-0.77219,-0.34476 -1.51553,-0.73114 -2.30002,-1.078c-0.81802,-0.36168 -1.60001,-0.89066 -2.5,-1.196l-0.60001,-0.42599" id="svg_6" stroke-width="2" stroke="#000" fill="none"/>
  <path t="16458,16666,16666,16683,16683,16683,16683,16690,16690,16690,16700,16701,16715,16715,16726,16726,16737,16755,16755,16763,16774,16774,16789,16789,16804,16804,16805,16812,16812,16812,16812,16823,16824,16824,16824,16839,16839,16839,16849,16849,16849,16850,16860,16861,16873,16889,16889,16898,16899,16910,16911,16921,16921,16938,16938,16946,16946,16947,16947,16959,16959,16959,16971,16972,16972,16988,16988,16988,16996,16996,17007,17008,17008,17022,17022,17022,17033,17033,17045,17045,17057,17057,17057,17072,17073,17073,17082,17082,17094,17094,17094,17105,17105,17123,17123,17132,17143,17155,17173,17173,17181,17192,17205,17222,17222,17222,17229,17229,17241,17241,17241,17254,17255,17255,17255,17271,17272,17279,17279,17290,17290,17304,17315,17315,17327,17351,17376,17376,17400,17401" d="m310.5,81.9c0,2.01434 0,2.82133 0,4c0,0.6 0,1.5 0,2.4c0,0.89983 0,1.78933 0,2.64283c0,1.0355 0,1.9155 0,2.7905c0,0.792 0,1.81933 0,2.514c0,1.02733 0,1.974 0,2.82733c0,0.94 0,1.82533 0,2.5825c0,0.9045 0,1.70451 0,2.66451c0,0.825 -0.00095,1.74 0,2.745c0.00067,0.71734 -0.02243,1.46053 0.05716,2.58067c0.07736,1.08877 0.21994,1.76891 0.44284,2.73183c0.14291,0.61737 0.39511,1.81929 0.44284,2.42084c0.07129,0.89838 0.05121,2.10004 0.0585,2.69866c0.01074,0.88065 0.0162,1.73191 0.28265,2.71467c0.2326,0.8579 0.67328,1.79826 0.716,2.68667c0.03635,0.75629 0,1.65717 0,2.4045c0,0.99416 0,1.93833 0,2.84734c0,0.7175 0,1.7625 0,2.56949c0,1.17867 0,1.77867 0,2.67867c0,0.90001 0,1.8 0,2.70001c0,0.89999 0,1.79999 0,2.6955c0,0.8685 0,1.93784 0,2.64734c0,0.85266 0,1.85716 0,2.65717c0,1.00017 0,1.82083 0,2.48534c0,0.99866 -0.0015,1.81465 0,2.63066c0.00226,1.22684 -0.04111,1.89056 0.22134,2.884c0.21637,0.81903 0.6572,1.79399 0.74265,2.61066c0.06735,0.64375 0.03601,1.87334 0.03601,2.68933c0,0.54735 0,1.81467 0,2.47917c0,1.02083 0,1.82083 0,2.62083c0,1 0,1.8 0,2.79868c0,0.94415 0,1.84416 0,2.80133c0,0.89999 0,1.79999 0,2.59999c0,0.90001 -0.03622,1.83984 0.436,2.61067c0.49274,0.80426 1.02277,1.39941 1.27866,2.19066c0.31659,0.97888 0.28,1.63464 0.28534,2.82018c0.00366,0.81448 0,1.38916 0,2.57849c0,0.89551 0,1.47917 0,2.31467c0,1.22818 0,2.08084 0,3.08401c0,0.76532 -0.00436,1.71735 0,2.48532c0.00534,0.94139 0.16077,1.95241 0.5,2.59517c0.43533,0.82484 0.5,1.72217 0.5,2.6875l0.02084,0.83333l0.14581,0.83334l0.40802,0.756" id="svg_7" stroke-width="2" stroke="#000" fill="none"/>
  <path t="18434,18617,18617,18629,18630,18630,18630,18644,18644,18645,18645,18654,18655,18655,18665,18665,18677,18677,18677,18688,18689,18689,18705,18705,18705,18714,18714,18714,18714,18725,18726,18726,18726,18738,18738,18738,18738,18756,18756,18756,18756,18763,18763,18763,18774,18774,18775,18788,18788,18805,18805,18812,18812,18825,18825,18838,18838,18838,18849,18850,18850,18850,18850,18860,18860,18860,18861,18873,18873,18873,18873,18873,18896,18897,18897,18901,18902,18914,18915,18924,18940,18940,18947,18947,18958,18958,18973,18973,18973,18988,18988,18988,18996,18996,18996,18997,18997,19008,19008,19008,19021,19022,19022,19038,19039,19039,19045,19046,19057,19072,19072,19082,19082,19094,19094,19094,19105,19105,19105,19121,19121,19121,19122,19130,19131,19131,19143,19143,19143,19155,19155,19171" d="m317.5,197.89999c0.42532,1.85735 0.70401,2.50865 0.87866,3.64284c0.10205,0.66272 0.09274,1.38057 0.20535,2.4745c0.10959,1.06439 0.26984,1.72522 0.49066,2.672c0.14209,0.60916 0.36194,1.80801 0.40448,2.68983c0.04028,0.83475 0.02084,1.83684 0.02084,2.52083c0,1.16667 0,1.95267 0,2.77467c0,1.05867 -0.00006,1.77267 0,2.67799c0.00009,0.96884 -0.01889,1.78543 0.05716,2.65184c0.07889,0.89871 0.28931,1.79852 0.46368,2.39549c0.26434,0.90489 0.59854,1.79442 0.8685,2.72134c0.18839,0.64682 0.36319,1.34467 0.48917,2.52133c0.0921,0.86015 0.10724,1.75723 0.117,2.65199c0.01385,1.27194 0.00449,2.03334 0.00449,2.72267c0,0.9165 0,1.96133 0,2.65733c0,0.90933 0,1.90933 0,2.72533c0,0.81601 -0.00058,1.81334 0,2.65334c0.00067,0.96268 0.07584,1.73412 0.42532,2.68268c0.28302,0.76819 0.53784,1.76732 0.564,2.39999c0.04895,1.18471 0.00443,2.01163 0.04669,2.61067c0.09332,1.32315 0.24634,2.03897 0.38931,2.78932c0.14767,0.77499 0.32339,1.56136 0.45319,2.76401c0.08612,0.79796 0.10733,1.59988 0.117,2.40001c0.0145,1.19989 0.00449,1.99866 0.00449,2.78934c0,0.77466 0,1.52533 0,2.58881c0,0.96451 0,1.80301 0,2.85251c0,0.85199 -0.00732,1.79471 0,2.48535c0.01044,0.98413 0.30197,1.96069 0.57468,2.65866c0.36423,0.93219 0.42465,1.70932 0.42532,2.672c0.00058,0.84 0,1.83865 0,2.67416c0,0.58368 0,1.77933 0,2.68982c0,0.62534 0,1.95602 0,2.67334c0,0.74133 0,1.49066 0,2.23199c0,1.39734 0,2.03735 0,2.92233c0,1.04034 0,1.96167 0,2.64569c0,1 0,1.81598 0,2.63199c0,0.99734 0,1.83734 0,2.93134c0,0.91934 0,1.75266 0,2.586c0,0.828 -0.02899,1.71054 0.02084,2.6875c0.04071,0.79807 0.26913,1.79471 0.47916,2.5c0.22235,0.74664 0.42719,1.94769 0.46399,2.6405c0.03842,0.72342 0.03534,1.45599 0.03601,2.85333c0.00031,0.64932 0,1.58084 0,2.48532c0,0.89102 0,1.728 0,2.85699l0,0.72168l0,0.92133" id="svg_8" stroke-width="2" stroke="#000" fill="none"/>
  <path t="20028,20212,20213,20227,20227,20243,20249,20249,20249,20259,20259,20259,20271,20272,20272,20272,20288,20288,20288,20288,20288,20288,20288,20296,20296,20296,20296,20296,20296,20308,20308,20308,20308,20321,20321,20337,20337,20337,20346,20357,20371,20388,20388,20394,20394,20406,20406,20406,20421,20421,20431,20431,20443,20443,20443,20455,20455,20481,20481,20493,20580,20600" d="m325.5,315.89999c0,2.80002 0,3.60001 0,4.59552c0,0.74731 0,1.65182 0,2.57117c0,0.875 0,1.51999 0,2.51999c0,0.85501 -0.00293,1.79999 0.00015,2.83517c0.00223,0.74432 0.00577,1.54141 0.05701,2.397c0.08481,1.4162 0.16013,1.92468 0.2955,2.99548c0.07056,0.55795 0.15341,1.12659 0.29468,2.29468c0.07175,0.59329 0.19812,1.79022 0.26733,2.987c0.03415,0.59018 0.05548,1.17188 0.07465,2.29599c0.00916,0.53647 0.01068,2.008 0.01068,2.85068c0,0.73865 0,1.68665 0,2.73584c0,0.90067 0,1.92148 0,2.71082c0,0.72534 0,1.80002 0,2.71066c0,0.89999 -0.03839,1.81567 0.08533,2.47067c0.19916,1.05435 0.53616,1.8042 0.74802,2.86267c0.1409,0.70395 0.1644,1.56216 0.16666,2.56665c0.0018,0.80002 0,1.80002 0,2.60001c0,1 0,1.80002 0,2.60001c0,1 0,1.79999 0,2.79868c0,0.76532 0.00134,1.71466 0.284,2.51733l0.67999,0.51999" id="svg_9" stroke-width="2" stroke="#000" fill="none"/>
  <path t="22641,22812,22813,22827,22827,22838,22839,22849,22849,22860,22860,22860,22872,22872,22872,22872,22872,22872,22872,22888,22888,22889,22889,22889,22889,22889,22898,22898,22898,22898,22898,22898,22909,22909,22910,22922,22922,22922,22922,22937,22937,22946,22946,22946,22958,22958,22958,22971,22971,22971,22987,22987,22987,22987,22996,22996,22996,22996,23007,23007,23007,23020,23021,23021,23038,23045,23056,23056,23071,23071,23081,23081,23093,23093,23106,23106,23121,23122,23122,23122,23122,23131,23131,23131,23132,23132,23142,23142,23142,23142,23154,23154,23154,23154,23172,23172,23172,23179,23179,23180,23192,23204,23204,23221,23221,23221,23221,23229,23229,23229,23229,23230,23241,23241,23241,23241,23241,23254,23255,23255,23255,23255,23255,23265,23265,23265,23266,23277,23278,23289,23289,23314,23315,23326,23326,23339,23339,23361,23361,23361,23361,23367,23368,23368,23368,23368,23381,23381,23381,23381,23381,23381,23382,23390,23390,23390,23390,23390,23391,23405,23405,23405,23405,23413,23413,23413,23425,23425,23425,23438,23455" d="m338.5,81.9c0.00449,2.6 -0.01196,3.41826 0.284,4.39867c0.23657,0.78374 0.67206,1.71393 0.71466,2.48534c0.05307,0.9612 0.00134,1.80267 0.00134,2.80533c0,0.894 0,1.58667 0,2.81067c0,0.46467 0,1.476 0,2.01867c0,1.14933 0,1.752 0,2.37067c0,1.93183 0,2.59333 0,3.25883c0,0.6665 0,1.33099 0,2.642c0,0.6405 0,1.8765 0,3.0365c0,0.55 0,1.59 0,2.08c0,0.92 0,2.15033 0,2.879c0,0.993 0,2.21433 0,2.813c0,0.8805 0,1.716 0,2.71734c0,0.90933 0,1.85066 0,2.63667c0,0.822 0,1.88067 0,2.59467c0,0.90533 0,1.87434 0,2.69933c0,0.915 0,1.92 0,2.63733c0,0.74133 0,1.86334 0,2.94934c0,0.68134 0,1.64583 0,2.26216c0,1.20433 0,2.09384 0,2.6685c0,1.06934 0,1.98933 0,2.74933c0,1.076 0,1.89734 0,2.808c0,0.85333 0,1.79468 0,2.56267c0,0.95201 0,1.71733 0,2.716c0,0.8 -0.03452,1.80484 0.03601,2.672c0.0867,1.06583 0.25006,1.69958 0.38931,2.41068c0.15161,0.77422 0.32562,1.60153 0.45319,2.93866c0.08865,0.92934 0.09344,1.40382 0.11081,2.35333c0.01721,0.94122 0.01068,2.30367 0.01068,2.73868c0,0.84 -0.00146,1.64 0,3.12c0.00067,0.68134 -0.02914,1.3335 0.05716,2.26216c0.11249,1.21025 0.30112,1.79858 0.51752,2.6685c0.26556,1.06764 0.39276,1.7731 0.42084,2.57434c0.03632,1.03571 0.00449,1.98332 0.00449,2.70332c0,1.125 0,1.9245 0,2.52083c0,1.00951 0,2.18034 0,3.04735c0,0.45149 -0.00006,1.37549 0,2.3075c0.00009,1.3615 -0.00653,1.80013 0.01068,2.668c0.01736,0.87619 0.06073,1.78528 0.15598,2.748c0.10239,1.03491 0.18433,1.56773 0.33334,2.64583c0.07385,0.53429 0.24039,1.56487 0.37851,2.95618c0.07816,0.78741 0.1098,1.48117 0.12015,2.37532c0.0116,1.00261 0.00134,1.84267 0.00134,2.80534c0,0.76799 -0.00171,1.72 0,2.48532c0.00226,0.99867 0.00131,1.81299 0.284,2.8c0.24335,0.84967 0.58298,1.76143 0.65884,2.56033c0.08377,0.88226 0.05649,1.52501 0.05716,2.5605c0.00049,0.75301 0,1.582 0,2.511c0,0.50951 0,2.25233 0,2.90417c0,0.67783 0,1.37466 0,2.0835c0,0.71384 0,2.12849 0,3.47916c0,0.63518 0,1.24135 0,2.37068c0,0.52516 0,1.5015 0,2.79599c0,0.76266 0,1.79167 0,2.42433c0,1.20883 0,2.09834 0,2.673c0,1.06934 0,1.98933 0,2.74933l0,1.076l0,0.91066" id="svg_10" stroke-width="2" stroke="#000" fill="none"/>
  <path t="24569,24763,24778,24779,24779,24791,24791,24791,24791,24806,24806,24806,24806,24806,24806,24811,24811,24811,24811,24811,24811,24823,24823,24823,24823,24823,24839,24839,24839,24839,24848,24848,24848,24848,24860,24860,24860,24860,24860,24860,24860,24861,24871,24872,24872,24872,24872,24872,24872,24872,24889,24889,24889,24889,24889,24889,24897,24897,24897,24897,24909,24909,24921,24921,24922,24938,24938,24946,24958,24971,24971,24972,24988,24988,24989,24989,24995,24996,24996,24996,24996,25006,25007,25007,25007,25007,25007,25007,25021,25021,25021,25021,25038,25038,25038,25038,25044,25056,25071,25093,25105,25106,25121,25130,25131,25142,25143,25155,25155,25172,25172,25179,25179,25179,25191,25191,25191,25204,25205,25222,25222,25229,25229,25240,25240,25240,25264,25265,25314,25314,25350,25376,25376,25399,25399,25413,25424,25444,25462,25475,25488,25498,25510,25535,25548,25572,25572,25596,25696" d="m343.5,235.89999c1,1.04167 1.16464,2.00064 1.42532,2.82133c0.22031,0.69356 0.46878,1.82054 0.51752,2.49751c0.05347,0.74261 0.0549,1.54733 0.05716,2.84782c0.00159,0.92 0,1.395 0,2.375c0,0.505 0,1.545 0,2.625c0,1.116 0,1.6815 0,2.8125c0,0.55951 0,1.6515 0,2.6875c0,0.96133 0,1.85066 0,2.67601c0,0.76932 0,1.836 0,2.50467c0,0.978 0,1.63666 0,3.04333c0,0.78799 0,1.2135 0,2.14249c0,1.63351 0,2.2525 0,2.90549c0,0.681 0,1.384 0,2.10303c0,0.72897 0,2.19299 0,3.625c0,0.69031 0,1.36264 0,2.01898c0,1.27267 0,1.89301 0,2.50534c0,0.60632 0,2.40851 0,3.005c0,1.172 0,1.74149 0,2.29599c0,1.052 0,2.44333 0,3.23199c0,0.69269 -0.01923,1.58688 0.00134,2.59067c0.01791,0.87515 0.21585,1.88681 0.49866,2.68533c0.21289,0.6011 0.47009,1.59427 0.49866,2.51468c0.02991,0.96405 0.00134,1.90668 0.00134,2.81866c0,0.681 0,1.48801 0,2.66666c0,0.909 0,1.54169 0,2.21436c0,1.11899 0,1.95764 0,2.86832c0,0.97467 0,1.48349 0,3.08401c0,0.55447 0,1.68149 0,2.24799c0,0.56451 0,1.67551 0,2.216c0,1.52615 0,2.4505 0,3.30682c0,0.79636 0,1.89584 0,2.57449c0,0.92551 0,1.716 0,2.81601c0,0.87201 -0.21503,1.86868 0.22134,2.55084c0.46667,0.72949 0.77332,1.30646 0.77866,2.3685c0.00461,0.91934 0,1.75266 0,2.586c0,0.91934 0,1.82382 0,2.57117c0,0.99548 0,1.7955 0,2.79565c0,0.82068 0,1.48517 0,2.48386c0,0.81598 0,1.63199 0,2.85883c0,0.85266 0,1.85715 0,2.65717c0,1 0,1.79999 0,2.79999c0,0.80002 0,1.60001 0,2.60001c0,0.79999 0,1.79868 0,2.564c0,0.95068 0,1.836 0,2.59317c0,0.89551 0,1.75885 0,2.72202c0,0.92081 -0.00009,1.82083 0,2.72083c0.00009,0.89984 0.5484,1.46933 0.94284,2.15717c0.46988,0.8194 0.05716,1.84283 0.05716,2.74283c0,0.89999 0.08533,1.70001 0.5,2.39999l0.44284,0.8045" id="svg_11" stroke-width="2" stroke="#000" fill="none"/>
  <path t="29046,29278,29279,29279,29280,29283,29290,29290,29290,29304,29314,29351,29363,29389,29402,29436,29437,29464,29480,29495,29501,29510,29535,29535,29721,29806,29830,29841,29841,29856,29856,29872,29872,29872,29879,29880,29890,29890,29904,29904,29927,29927,29940,29954,29964,29988,30003,30004,30025,30037,30055,30055,30063,30063,30074,30087,30087,30112,30124,30148,30173,30211,30248,30689,30711,30751,30763,30824,30824,30873,30922,30945,30945,30949,30972,30972" d="m307.5,90.9c-0.2215,-2.428 -0.35397,-3.41648 -0.436,-3.952c-0.16806,-1.09702 -0.21533,-1.64413 -0.564,-3.048c-0.17261,-0.695 -0.73825,-1.47505 -0.96399,-2.4c-0.21255,-0.87085 -0.53632,-1.26333 -1.42535,-1.61066c-0.74118,-0.28956 -0.871,-1.43572 -1.71066,-1.868c-0.64856,-0.33391 -1.43716,-0.86827 -2.29999,-1.08533c-0.8735,-0.21974 -1.86008,0.07193 -2.55185,-0.38867c-0.69498,-0.46275 -1.46045,-0.31498 -2.40149,-0.658c-0.75861,-0.27651 -0.64667,-1.38934 -0.64667,-2.29833c0,-0.66167 0,-1.70084 0,-2.47633c0,-1.048 0,-1.97867 0,-2.61017c0,-1.0045 0,-1.8045 0,-2.80434c0,-0.96416 -0.08463,-1.93052 0.08533,-2.68416c0.17905,-0.79389 0.74854,-1.60733 0.89383,-2.59517c0.11951,-0.81236 0.02084,-1.72083 0.02084,-2.62083c0,-0.9 0,-1.7 0,-2.6c0,-0.936 0,-1.78533 0,-2.7045c0,-0.99417 0,-1.7595 0,-2.71017c0,-0.88533 0,-1.68533 0,-2.58533c0,-0.9 0,-1.8 0,-2.7c0,-0.9 0.14981,-1.81258 -0.00015,-2.69983c-0.14401,-0.85203 -0.89359,-1.37416 -1.28384,-2.10017c-0.45947,-0.85479 -0.71533,-1.6 -0.716,-2.5c-0.00061,-0.82083 0,-1.784 0,-2.64733l-0.00449,-0.8955l-0.21686,-0.85717l-0.49466,-0.7" id="svg_12" stroke-width="2" stroke="#000" fill="none"/>
  <path t="32102,32493,32528,32544,32559,32559,32565,32577,32578,32590,32605,32627,32638,32653,32676,32762,32786,32787,32798,33167,33192,33209,33217,33232,33232,33243,33243,33253,33253,33253,33264,33277,33288,33288,33303,33325,33350,33350,33363,33375,33401,33414,33427,33442,33455,33455,33461,33461,33473" d="m292.5,30.9c1.79999,0 2.70001,0.00057 3.52084,0c0.96317,-0.00067 1.70786,0.10865 2.72198,-0.35267c0.81635,-0.37136 1.58115,-0.48536 2.35718,-0.68333c0.86209,-0.21992 1.6167,-0.77159 2.49982,-0.96417c0.84427,-0.18411 1.35727,-0.76324 2.09885,-1.28517c0.78162,-0.55011 0.32886,-1.57504 0.85849,-2.3575c0.46237,-0.6831 1.64285,-0.35717 2.54285,-0.35717c0.92084,0 1.7215,0 2.61066,0c0.98935,0 1.78934,0 2.78934,0c0.78934,0 1.51468,0 2.58932,0c0.93152,0 1.73199,0 2.58533,0c0.94,0 1.92535,0 2.82535,0c0.79999,0 1.70001,0 2.60001,0c0.89999,0 1.79999,0 2.69998,0c0.90002,0 1.80017,0 2.58536,0l0.94,0l0.69064,0l1.07333,0" id="svg_13" stroke-width="2" stroke="#000" fill="none"/>
  <path t="34126,34333,34333,34347,34347,34347,34361,34362,34362,34376,34377,34377,34381,34381,34393,34393,34405,34429,34454,34454,34478,34478,34503,34527,34909,34933,34946,34957,34958,34971,34982,34993,34994,35006,35031,35042,35055,35055,35071,35080,35080,35080,35092,35092,35092,35092,35105,35105,35105,35121,35121,35121,35121,35130,35131,35131,35153,35191,35203,35203,35227,35314,35497,35509,35534" d="m334.5,24.9c0.96399,1.84667 0.98834,2.68675 1.00134,3.68533c0.01086,0.83566 -0.00372,1.42887 0.22015,2.6145c0.16977,0.89911 0.36212,1.47441 0.7785,2.5335c0.28186,0.7169 0.70337,1.56051 1.09982,2.3665c0.38257,0.77775 0.81186,1.77449 0.89883,2.59883c0.09479,0.89824 0.47861,1.5829 1.00134,2.368c0.42404,0.63688 0.89734,1.65624 0.98932,2.42266c0.10608,0.88405 0.82495,1.39875 1.0062,2.11517c0.21964,0.86816 0.00449,1.81633 0.00449,2.7795c0,0.69067 0,1.75883 0,2.616c0,0.9 0,1.7 0,2.6c0,0.9 0,1.82083 0,2.784c0,0.69067 0,1.76333 0,2.68267c0,0.69067 0,1.60533 0,2.47617c0,1.0185 0,1.7425 0,2.4745c0,1.06133 0,2.05733 0,2.708c0,1.34133 0,2.05733 0,2.78934c0,0.724 0,2.05199 0,2.86649c0,0.85267 0,1.76167 0,2.61884c0,0.9 -0.02725,1.70042 0,2.6c0.02859,0.94413 0.83334,1.46667 0.716,2.216l-0.65884,0.44117" id="svg_14" stroke-width="2" stroke="#000" fill="none"/>
  <path t="39512,39708,39732,39781,39829,39844,39903,39903,39939,39976,39976,39986,39986,40010,40010,40015,40015,40027,40027,40027,40038,40038,40056,40086,40123,40123,40148,40159,40160,40171,40189,40208,40247,40257,40257,40283,40295,40307,40321,40338,40355,40356,40430,40466,40481,40496,40511,40511,40524,40540,40540,40554,40554,40571,40601,40785,40821,40836,40836,40871,40907,40932,40945,40969,41006,41055,41080,41117,41129,41141,41165,41189,41214,41214,41239,41264,41299,41324,41324,41336,41353,41386,41410,41435,41448,41460,41471,41471,41497,41521,41536,41546,41558,41570,41588,41589,41595,41595,41607,41620,41637,41643,41693,41743,41841,41859,41890,41890,41904,41951,41989,42037,42198,42221,42258,42295" d="m300.5,67.9c1.79999,0 2.71976,-0.1571 3.5,0.02084c0.96201,0.21938 1.59387,0.91828 2.5,0.97916c0.79819,0.05363 1.85568,-0.05279 2,-1c0.11404,-0.74853 0,-1.65717 0,-2.4045c0,-0.9955 0,-1.7955 0,-2.79566c0,-0.82067 0,-1.9665 0,-2.748c0,-0.7905 0.01031,-1.71856 0,-2.6305c-0.01044,-0.92151 -0.24539,-1.88991 -1,-2.25467c-0.73547,-0.35551 -1.75717,-0.16667 -2.65268,-0.16667c-0.86331,0 -1.82648,0 -2.64731,0c-0.90002,0 -1.87186,-0.22303 -2.70001,0.16667c-0.75836,0.35686 -0.98956,1.33315 -1,2.23333c-0.01041,0.89994 0,1.8 0,2.7c0,0.9 -0.50406,1.91003 0.08533,2.61467c0.47675,0.56995 1.5097,-0.30995 1.88934,-1.11467c0.41724,-0.88443 0.93863,-1.30912 1.50449,-2.12083c0.51163,-0.73393 0.38419,-1.71457 0.80618,-2.59383c0.30994,-0.64576 1.31207,-1.18238 1.62933,-2.08533c0.29962,-0.85278 0.38113,-1.52903 1.18515,-2.0215c0.61972,-0.37958 0.89484,-1.37845 0.90018,-2.2785c0.00534,-0.89999 0,-1.8 0,-2.7c0,-0.9 0.32251,-1.9384 -0.16666,-2.63333c-0.50333,-0.71502 -1.18921,-1.13807 -2.13333,-1.16667c-0.8996,-0.02725 -1.8013,-0.0478 -2.70001,0c-0.80341,0.04273 -1.45523,0.5358 -1.94733,1.2955c-0.45627,0.7044 -1.02283,1.41291 -1.05133,2.22183c-0.03384,0.96124 -0.00201,1.88267 -0.00134,2.78267c0.00067,0.89867 0.28235,1.65729 1.20001,1.7c0.89902,0.04185 1.79999,0 2.59998,0c0.90002,0 1.80463,-0.00813 2.25269,-0.7045c0.49384,-0.7675 0.91873,-1.59414 0.94733,-2.4955c0.02853,-0.89971 0,-1.68533 0,-2.62533c0,-0.69067 0,-1.764 0,-2.67467c0,-0.9 0,-1.8 0,-2.7c0,-0.9 0.43427,-2.03241 -0.16666,-2.63333c-0.60092,-0.60094 -1.63333,-0.16667 -2.53336,-0.16667c-0.89999,0 -1.79999,-0.00226 -2.69998,0c-0.89551,0.00225 -1.55334,0.42533 -0.98935,0.98933l0.88934,0.0315" id="svg_15" stroke-width="2" stroke="#000" fill="none"/>
  <path t="43364,43511,43523,43547,43570,43607,43632,43656,43672,43693,43730,43768,43768,43793,43829,43880,43902,43915,43940,43976,44026,44062,44184,44233,44357,44443,44480,44496,44528,44552,44614,44614,44664,44681,44698,44699,44736,44773,44773,44787,44821,44837,44837,44858,44870,44896,44944,44945,44995,45009,45203,45265,45292,45313,45336,45354,45362,45374,45410,45423,45484,45534,45535,45559,45574,45593,45596,45607,45607,45619,45619,45620,45638,45638,45643,45656,45680,45681,45693,45743,45805,45825,45830,45840,45865,45865,45926,45937,45952,45975" d="m334.5,34.9c-1.70001,0 -2.60001,0 -3.5,0c-0.89999,0 -2.14651,-0.1845 -2.47916,0.52083c-0.37512,0.79539 -0.02084,1.77917 -0.02084,2.67917c0,0.9 0,1.8 0,2.6c0,0.9 -0.35428,1.88377 0.02084,2.67917c0.33264,0.70533 1.47916,0.52083 2.37915,0.52083c0.89999,0 1.80002,0 2.70001,0c0.89999,0 1.92108,-0.15043 1.89999,-1c-0.02246,-0.90572 -1.22491,-1.25627 -1.87866,-0.77867c-0.6991,0.51071 -1.39066,0.58979 -2.22134,1.00017c-0.69058,0.34116 -1.3996,1.11317 -1.77866,1.8785c-0.4194,0.84678 -0.92209,1.55363 -1.10049,2.42083c-0.19412,0.94363 -0.02084,1.65384 -0.02084,2.722c0,0.85717 -0.19379,1.8026 0.08533,2.55717c0.32169,0.86959 1.35599,1.08386 2.11469,1.484c0.85837,0.45272 1.5,0.71375 2.39999,0.716c0.89999,0.00225 2.45999,0.14659 2.35333,-0.57467c-0.11423,-0.77253 -1.55334,-0.42533 -2.45334,-0.42533c-0.89999,0 -1.84845,-0.07086 -2.47467,0.42533c-0.66507,0.52697 -1.33655,0.96252 -1.85867,1.74133c-0.47324,0.70589 -0.16666,1.63333 -0.16666,2.53333c0,0.9 -0.09796,1.80644 0.01068,2.71067c0.11154,0.92823 0.50452,1.61295 0.98932,2.58933c0.29654,0.59722 0.63657,1.38852 1.29999,2.24284c0.45856,0.59049 1.15738,1.31833 2,1.7045c0.76877,0.35231 1.46686,0.89852 2.30002,1.042c0.88699,0.15275 1.96613,0.05981 2.42532,-0.6c0.50549,-0.72631 0.91379,-1.48322 0.97467,-2.38934c0.05362,-0.7982 0,-1.7 0,-2.6l0,-0.9l0,-0.9" id="svg_16" stroke-width="2" stroke="#000" fill="none"/>
  <path t="49033,49203,49203,49215,49215,49215,49215,49229,49229,49229,49229,49242,49243,49243,49256,49265,49265,49265,49275,49275,49275,49287,49287,49287,49287,49287,49302,49303,49303,49303,49303,49303,49312,49312,49312,49312,49312,49312,49312,49327,49327,49327,49327,49327,49327,49336,49337,49337,49337,49352,49352,49362,49373,49373,49385,49386,49403,49403,49403,49410,49410,49411,49411,49422,49422,49422,49423,49423,49423,49423,49436,49436,49436,49436,49436,49437,49452,49452,49453,49453,49453,49459,49460,49460,49460,49471,49471,49472,49486,49486,49496,49497,49509,49509,49520,49520,49536,49536,49545,49546,49557,49557,49557,49569,49569,49569,49586,49586,49586,49586,49594,49594,49594,49606,49606,49606,49619,49619,49636,49637,49644,49655,49655,49670,49670,49670,49687,49687,49687,49692,49693,49693,49706,49706,49706,49706,49719,49719,49719,49719,49729,49729,49729,49730,49730,49741,49742,49742,49753,49753,49769,49769,49779,49779,49803,49828,49828" d="m312.5,34.9c0,2.01433 0,2.82133 0,4c0,0.60133 -0.00003,1.52083 0,2.15717c0.00009,1.364 -0.00598,2.09131 0.02084,2.822c0.02612,0.71144 0.16702,1.98745 0.40448,2.73817c0.25519,0.80676 0.52148,1.79889 0.79617,2.60433c0.25168,0.73801 0.60089,1.35686 0.97852,2.365c0.31784,0.84852 0.51965,1.46938 0.89981,2.83516c0.20639,0.74144 0.38596,1.53939 0.46417,1.96083c0.16461,0.88686 0.32083,2.36011 0.35068,2.88934c0.06259,1.11 0.06732,1.69046 0.07465,2.28533c0.01517,1.23061 0.01016,2.50933 0.01083,3.16367c0.00067,0.66033 -0.00296,1.32278 0.02069,2.63734c0.0116,0.64441 0.0011,1.2772 0.14581,3.04166c0.04401,0.53648 0.18292,1.529 0.25867,1.992c0.14349,0.87698 0.32242,1.70014 0.45319,2.9075c0.08502,0.78503 0.11511,1.89246 0.12015,2.5445c0.00919,1.18896 0.00134,1.93733 0.00134,2.88133c0,1.008 -0.00034,1.81132 0.284,2.66133c0.25815,0.77166 0.58234,1.67613 0.65884,2.4705c0.08194,0.85083 0.05179,2.04287 0.0585,2.64816c0.01083,0.97814 0.04001,1.72472 0.16531,3.06133c0.04871,0.51962 0.11298,1.07275 0.26935,2.256c0.08185,0.6194 0.16824,1.24899 0.36533,2.512c0.19241,1.23299 0.29794,1.82226 0.49417,2.9465c0.0936,0.53622 0.27435,1.56059 0.34732,2.05267c0.20718,1.39713 0.27643,2.28062 0.33185,3.13017c0.05383,0.82513 0.07901,1.63853 0.24667,2.83566c0.11127,0.7944 0.2832,1.55776 0.42599,2.286c0.19214,0.97981 0.24991,1.80724 0.40533,2.70533c0.17636,1.01903 0.52509,1.79369 1.04715,2.58767c0.43735,0.66511 0.84821,1.50401 0.8895,2.232c0.05603,0.98763 0.01068,1.95333 0.01068,2.90533c0,0.76801 0,1.73067 0,2.34567c0,1.22366 0,1.77433 0,2.64283c0,1.1955 0,2.0955 0,2.6955c0,1.19999 -0.00879,2.1005 0.02084,2.69999c0.04456,0.90121 0.18759,1.80289 0.40448,2.68935c0.20959,0.85664 0.4892,1.88586 0.55383,2.78983c0.04419,0.61824 0.02084,1.62083 0.02084,2.42084c0,0.99867 0,1.94283 0,2.84734c0,0.91933 0,1.7735 0,2.75266c0,0.81067 0,1.45717 0,2.68535c0,0.83549 0,1.41916 0,2.61465c0,0.90001 -0.00299,1.5 0,2.7c0.00226,0.90453 -0.00986,1.52339 0.08533,2.48534c0.10291,1.03999 0.26913,1.77148 0.41467,2.53551c0.1492,0.78331 0.34494,1.97804 0.41599,2.77783c0.07016,0.78973 0.0853,1.56761 0.16803,2.31599c0.15509,1.40303 0.34525,2.02696 0.56332,2.8665c0.27228,1.04823 0.3504,1.76698 0.35266,2.67601c0.00232,0.94415 0,1.93832 0,2.68565l0,1.03185l0,0.94666l0,0.67867" id="svg_17" stroke-width="2" stroke="#000" fill="none"/>
  <path t="50741,50896,50896,50910,50910,50910,50910,50910,50926,50926,50926,50927,50927,50927,50934,50934,50934,50934,50934,50935,50946,50946,50946,50946,50946,50946,50956,50956,50956,50956,50956,50956,50969,50969,50970,50970,50970,50970,50970,50970,50970,50986,50986,50986,50986,50987,50987,50987,50987,50987,50994,50994,50994,50994,50994,50994,50994,50994,50994,51004,51004,51004,51004,51004,51005,51005,51005,51020,51020,51020,51020,51020,51036,51036,51036,51042,51042,51042,51054,51054,51054,51054,51070,51070,51070,51070,51070,51070,51079,51079,51079,51080,51080,51080,51080,51090,51091,51091,51091,51091,51091,51091,51091,51103,51103,51103,51103,51103,51103,51120,51120,51120,51128,51128,51129,51140,51140,51140,51153,51153,51170,51170,51178,51178,51178,51189,51189,51189,51204,51204,51204,51204,51204,51220,51220,51220,51220,51221,51226,51227,51227,51227,51227,51239,51239,51239,51254,51255,51255,51270,51271,51271,51275,51276,51288,51288,51288,51288,51304,51304,51304,51312,51313,51313,51313,51323,51324,51324,51324,51338,51338,51339,51355,51355,51355,51355,51356,51361,51361,51361,51373,51374,51374,51388,51388,51403,51403,51410,51410,51410,51410,51422,51422,51422,51436,51436,51436,51453,51453,51453,51454,51459,51459,51460,51470,51470,51471,51486,51486,51486,51503,51503,51503,51508,51520,51538,51538,51546,51557,51570,51587" d="m326.5,174.89999c0.35266,2.61351 0.63748,3.2961 0.83334,4.5c0.12213,0.75064 0.14041,1.60805 0.19199,2.53201c0.02689,0.48152 0.13507,1.96872 0.19617,2.46815c0.12308,1.00595 0.20886,1.51149 0.38916,2.53584c0.18488,1.05037 0.39105,2.13036 0.48917,2.68517c0.19916,1.12639 0.29636,1.69246 0.46417,2.8175c0.08218,0.55101 0.27393,2.12759 0.31467,2.6185c0.07736,0.93231 0.11636,1.82231 0.17401,2.69099c0.02884,0.43466 0.1622,1.77496 0.3045,2.72701c0.07532,0.50403 0.25443,1.57935 0.34732,2.15799c0.09784,0.60936 0.29843,1.93311 0.39532,2.65317c0.10193,0.75726 0.19931,1.55092 0.28952,2.379c0.0936,0.85927 0.17911,1.74898 0.25348,2.66701c0.07642,0.9433 0.19479,2.90082 0.23584,3.91017c0.04166,1.02399 0.06967,2.0583 0.09601,3.09749c0.02634,1.03914 0.04843,2.07339 0.078,3.0975c0.02914,1.00923 0.10895,2.9628 0.16867,3.89734c0.05777,0.90414 0.12875,1.77589 0.20398,2.6145c0.0722,0.80505 0.14954,1.57465 0.22202,2.30849c0.06882,0.69682 0.1893,1.97527 0.23117,2.55617c0.03925,0.54446 0.06693,1.05724 0.08548,1.54201c0.01764,0.46057 0.02765,0.90131 0.03152,1.326c0.01114,1.21794 0.00449,2.01666 0.00449,2.80733c0,0.77467 0,1.52533 0,2.924c0,0.64 0,1.52501 0,2.56551c0,0.942 0,1.69051 0,2.5645c0,1.05 0,1.85001 0,2.28c0,1.41 0,2.44734 0,2.991c0,0.55766 0,1.707 0,2.29468c0,1.79099 0,2.39116 0,2.99234c0,1.20932 0,1.81949 0,2.43466c0,0.62115 0,2.53067 0,3.18533c0,0.66266 0,1.33133 0,2.004c0,1.34933 0,2.022 0,2.69067c0,1.31732 0,2.59332 0,3.20883c0,0.5965 0,1.72049 0,2.24197c0,1.36652 0,2.09317 0,2.97067c0,1.22919 0,2.01517 0,2.83719c0,1.05865 0,1.76816 0,2.62082c0,1.00317 0,1.76849 0,2.72183c0,0.85199 -0.01773,1.65405 0.02084,2.42435c0.04318,0.86234 0.26239,2.05984 0.40448,2.66898c0.22083,0.94678 0.4252,1.95428 0.48935,2.67603c0.06741,0.75858 0.07886,1.55997 0.08398,2.39999c0.00818,1.33463 0.00262,2.26605 0.01202,2.73865c0.01889,0.94949 0.05441,1.8927 0.15598,2.80801c0.0979,0.88239 0.25894,1.71994 0.40802,2.51999c0.1416,0.75995 0.34244,2.15991 0.39999,2.80002c0.07956,0.88483 0.23822,1.92786 0.45065,2.62134c0.2796,0.91281 0.51181,1.90787 0.55383,2.72531c0.04193,0.81516 0.02084,1.81601 0.02084,2.5c0,1.16669 0,1.95718 0,2.81067c0,0.59067 0,1.79068 0,2.71017c0,0.63632 0,1.64584 0,2.73184c0,0.74731 -0.00107,1.49466 0,2.58066c0.00067,0.68134 -0.01575,1.64914 0.08533,2.56534c0.09998,0.90619 0.3533,1.80896 0.48935,2.43732c0.28687,1.32489 0.34558,2.04767 0.39999,2.78934c0.05496,0.74902 0.05698,1.49918 0.30933,2.888c0.11719,0.64487 0.40494,1.5166 0.59467,2.56519c0.12323,0.68112 0.16019,1.53336 0.474,2.52148c0.25806,0.81253 0.58856,1.79913 0.6265,2.42084c0.06982,1.14389 0.02084,1.93634 0.02084,2.78983c0,0.59067 0,1.78934 0,2.68933c0,0.60001 0,1.80017 0,2.71066c0,0.62534 0,1.95602 0,2.672c0,0.73203 0,1.45602 0,2.78403c0,0.82349 0,1.54797 0,2.5c0,0.78598 0,1.608 0,2.66666c0,0.94135 0,1.61932 0,2.58783c0,0.79349 -0.19788,1.8313 0.00449,2.76001c0.18002,0.82626 0.74194,1.44046 1.04819,2.11349c0.39755,0.87369 0.94598,1.50665 0.94733,2.40533l0,0.89999" id="svg_18" stroke-width="2" stroke="#000" fill="none"/>
  <path t="53046,53240,53240,53240,53260,53260,53261,53261,53265,53266,53266,53282,53282,53282,53282,53292,53292,53292,53292,53292,53292,53292,53302,53302,53302,53302,53302,53302,53302,53302,53302,53312,53312,53313,53313,53313,53313,53313,53313,53313,53324,53324,53324,53324,53324,53324,53324,53324,53324,53336,53336,53336,53336,53337,53337,53337,53337,53337,53352,53352,53352,53361,53361,53362,53362,53373,53374,53374,53374,53374,53386,53386,53386,53386,53386,53386,53387,53387,53387,53402,53403,53403,53403,53403,53403,53403,53403,53403,53410,53410,53410,53411,53411,53411,53411,53411,53411,53422,53422,53423,53423,53423,53423,53423,53423,53423,53435,53436,53436,53436,53436,53436,53436,53436,53452,53453,53453,53453,53453,53453,53459,53460,53460,53460,53460,53460,53460,53471,53471,53471,53471,53471,53471,53471,53486,53487,53487,53487,53487,53503,53503,53503,53503,53503,53508,53509,53509,53509,53520,53520,53520,53520,53537,53537,53537" d="m324.5,42.9c0,2.96933 0,3.66133 0,4.38533c0,1.448 0,2.12933 0,3.09383c0,0.61633 0,1.82083 0,2.42083c0,0.9 -0.00546,2.10004 0.00134,2.704c0.0108,0.95864 0.03583,1.66945 0.16531,2.896c0.10168,0.96312 0.18811,1.48923 0.25867,2.05067c0.15393,1.22477 0.22919,1.89083 0.29068,2.59467c0.13281,1.52006 0.16623,2.34069 0.19998,3.19733c0.03506,0.89037 0.05902,1.81199 0.08401,2.7615c0.02567,0.97449 0.04813,1.97115 0.08401,2.9865c0.07336,2.07635 0.13351,3.13041 0.20132,4.18933c0.06787,1.05943 0.14755,2.11359 0.2355,3.1575c0.08673,1.02943 0.17993,2.0387 0.28049,3.0225c0.19156,1.87408 0.29636,2.75378 0.39868,3.59467c0.09778,0.80344 0.19751,1.56968 0.29999,2.2995c0.09766,0.6955 0.19601,1.35699 0.29999,1.9845c0.19263,1.16258 0.29745,1.69717 0.40002,2.20399c0.09753,0.48184 0.19769,0.93919 0.29999,1.374c0.09784,0.41586 0.19614,0.8137 0.29999,1.194c0.38443,1.40797 0.60614,2.0489 0.76401,2.67867c0.30161,1.20304 0.39075,2.11459 0.41516,2.73151c0.03812,0.96394 0.02084,2.0015 0.02084,2.75883c0,0.84534 0,1.311 0,2.34834c0,1.20534 0,1.8795 0,2.59867c0,0.75916 0,1.55333 0,2.37749c0,0.84917 0,1.71834 0,2.6025c0,1.79333 0,2.69334 0,3.59334c0,0.89999 0,1.8 0,2.7c0,0.9 0,1.8 0,2.7c0,1.8 0,2.69967 0,3.59734c0,0.89367 0,1.78133 0,2.661c0,0.86966 0,1.72733 0,2.571c0,1.63733 0,2.42751 0,3.19867c0,0.75316 0,1.48933 0,2.20949c0,0.70517 0,1.39635 0,2.07451c0,1.32133 -0.00085,1.96634 0.00134,2.60133c0.00217,0.625 0.00513,1.2401 0.0195,1.845c0.02808,1.18022 0.04465,1.75662 0.14581,2.875c0.09811,1.08456 0.18488,1.61415 0.33334,2.66666c0.07413,0.52542 0.23459,1.58217 0.33334,2.66667c0.10184,1.11841 0.1153,1.69495 0.14133,2.28c0.05338,1.19987 0.0715,1.81537 0.10934,2.44c0.11731,1.93567 0.19775,2.59506 0.27316,3.257c0.07526,0.66074 0.15491,1.31596 0.34732,2.58932c0.09262,0.61299 0.29007,1.76805 0.49417,2.811c0.18573,0.94897 0.29526,1.39078 0.44415,2.24251c0.21155,1.20999 0.27716,2.0132 0.33185,2.81349c0.05466,0.79974 0.07962,1.60378 0.24667,2.79984c0.11154,0.79868 0.2905,1.57715 0.42599,2.343c0.25336,1.43192 0.31146,2.09933 0.34198,3.04649c0.01962,0.6091 0.01068,1.812 0.01068,2.42134l0,0.9465" id="svg_19" stroke-width="2" stroke="#000" fill="none"/>
  <path t="54468,54639,54651,54664,54664,54664,54679,54679,54679,54679,54679,54690,54690,54690,54690,54705,54705,54705,54710,54711,54711,54723,54735,54735,54753,54753,54753,54760,54760,54761,54761,54771,54772,54772,54772,54787,54787,54787,54787,54787,54802,54803,54803,54803,54809,54809,54809,54809,54821,54821,54836,54836,54837,54846,54846,54846,54846,54858,54858,54858,54870,54870,54887,54887,54887,54895,54895,54895,54908,54908,54908,54919,54919,54920,54936,54937,54944,54944,54956,54956,54956,54969,54970,54987,54993,54993,55005,55005,55005,55020,55020,55020,55020,55037,55037,55037,55042,55042,55042,55042,55054,55054,55054,55070,55070,55070,55079,55079,55079,55091,55103,55120,55120,55129,55129,55139,55140,55153,55170,55177,55177,55178,55189,55190,55203,55203" d="m333.5,185.89999c0,1.8 -0.00604,2.67203 0.00015,3.54333c0.00534,0.75006 0.03409,1.68251 0.1665,2.79001c0.10007,0.83691 0.259,1.71727 0.33334,2.16666c0.14801,0.89456 0.34698,2.16534 0.41467,2.92934c0.0618,0.69768 0.08307,1.66167 0.08533,2.8705c0.0011,0.59567 0,1.46417 0,2.53351c0,0.92 0,1.67999 0,2.66666c0,0.82167 0,1.74667 0,2.66667c0,0.7905 0,1.644 0,2.83333c0,0.60133 0,1.52084 0,2.15718c0,1.36433 0,2.09999 0,2.86366c0,0.78366 0,1.97916 0,2.77916c0,0.8 0,1.60001 0,2.40001c0,1.19983 0,1.9955 0,2.77916c0,0.76367 0,1.85417 0,2.85918c0,0.62 0,1.47499 0,2.709c0,0.67799 0,1.87416 0,2.40982c0,0.8535 0,2.04283 0,2.94284c0,0.59999 0,1.5 0,2.69867c0,0.59067 0,1.44417 0,2.47983c0,0.90067 0,1.92149 0,2.73216c0,0.87468 0,1.87468 0,2.71017c0,0.58366 0,1.77899 0,2.6685c0,0.57466 -0.02515,1.89001 0.01068,2.57466c0.04379,0.83685 0.35989,1.82967 0.564,2.436c0.3334,0.99052 0.41489,1.79982 0.42532,2.79999c0.00833,0.79999 0,1.60001 0,2.59552c0,0.91916 0,1.90448 0,2.72598c0,0.88916 0,1.87885 0,2.72018c0,0.72897 0,1.60117 0,2.61966c0,0.724 -0.00558,1.45602 0.00015,2.51715c0.00534,0.98553 0.01944,1.92236 0.1665,2.8215c0.14835,0.90695 0.36557,1.49286 0.54935,2.39999c0.24127,1.19083 0.26184,1.78894 0.27951,2.64285c0.02142,1.03561 -0.00958,1.96133 0.08981,2.64117c0.14731,1.00751 0.4364,1.78925 0.63068,2.54666c0.27951,1.08972 0.284,2.07382 0.284,2.936c0,0.85416 0,1.83331 0,2.62265c0,1.04401 0,1.80002 0,2.71066c0,0.92136 0,1.83334 0,2.50534c0,0.98932 0,2.02533 0,2.74283l0,0.90451l0,0.86334" id="svg_20" stroke-width="2" stroke="#000" fill="none"/>
  <path t="56089,56246,56261,56261,56271,56271,56271,56288,56288,56288,56294,56294,56294,56306,56306,56306,56306,56319,56319,56319,56336,56336,56343,56343,56343,56354,56354,56369,56369,56379,56392,56392,56392,56403,56403,56420,56420,56429,56429,56429,56440,56441,56454,56454,56470,56470,56478,56478,56489,56489,56514,56526,56539,56563,56577,56588,56588,56603,56603,56613,56625,56625,56638,56638,56653,56653,56653,56662,56662,56674,56698,56698,56712,56722,56737,56753" d="m337.5,298.89999c0.5,2.5 0.92899,3.31665 0.98932,4.21066c0.06662,0.9873 0.01068,1.60001 0.01068,2.47467c0,1 -0.00006,1.83551 0,2.716c0.00009,0.89868 -0.02054,1.80084 0.05716,2.69867c0.07819,0.90326 0.30023,1.79883 0.51752,2.70001c0.14447,0.59921 0.3537,1.79767 0.38931,2.38931c0.0513,0.85257 0.03601,2.12668 0.03601,2.81067c0,1.16669 0,1.94818 0,2.73868c0,0.92801 0,1.74051 0,2.74533c0,0.69067 -0.08386,1.78339 0.16666,2.68268c0.19257,0.69122 0.59787,1.42465 0.78067,2.43332c0.14389,0.79398 0.35104,1.79492 0.62735,2.60001c0.27295,0.79523 0.4061,1.59946 0.42398,2.39999c0.02234,0.99976 0.00134,1.79999 0.00134,2.79999c0,0.80002 0,1.80002 0,2.60001c0,1 0,1.78934 0,2.83334c0,0.86215 0,1.76666 0,2.66666c0,0.89999 0,1.80002 0,2.70135c0,0.96533 0,1.62399 0,2.63199c0,0.86215 -0.03406,1.70419 0.284,2.65201c0.2486,0.74078 0.63635,1.71051 0.69516,2.51465c0.07294,0.99756 0.01904,1.80002 0.02084,2.60001c0.00226,0.99551 -0.04541,1.78326 0.35266,2.64282c0.42267,0.91266 0.646,1.64252 0.65802,2.57184l0.15598,0.85202l0.71185,0.55481l0.12149,0.87851" id="svg_21" stroke-width="2" stroke="#000" fill="none"/>
  <path t="63228,63643,63644,63674" d="m323.5,380.89999" id="svg_22" stroke-width="2" stroke="#000" fill="none"/>
  <path t="64050,64231,64231,64231,64232,64232,64244,64244,64244,64244,64256,64256,64256,64257,64270,64270,64285,64285,64294,64294,64305,64305,64318,64335,64335,64342,64342,64342,64354,64354,64354,64369,64369,64379,64379,64391,64391,64402,64419,64464,64540,64861,64861,64885,64895,64895,64918,64919,64934,64943,64943,64955,64955,64968,65227,65246,65251,65262,65274,65287,65287,65287,65302,65312,65312,65324,65347,65371,65372,65397,65421,65421,65434,65434,65434,65451,65451,65459,65459,65470,65470,65495,65496,65496,65520,65520,65534,65568,65586,65619,65667,65668,65685,65742" d="m320.5,378.89999c3.96399,-1.10001 4.95792,-1.30054 5.47601,-1.39999c1.04776,-0.20111 1.57059,-0.27835 3.02399,-0.60001c0.84686,-0.18741 1.5947,-0.39114 2.26801,-0.60001c1.23715,-0.38379 1.82605,-0.61353 2.71115,-0.87915c0.83142,-0.24954 1.83191,-0.46814 2.67416,-0.51016c0.96155,-0.04797 1.73068,-0.01068 2.68268,-0.01068c0.76532,0 1.75949,0 2.50684,0c1.03183,0 1.97867,0 2.67801,0c0.97916,0 1.79532,0.03784 2.66449,-0.08533c1.00815,-0.14285 1.80835,-0.44012 2.63068,-0.63068c0.99066,-0.22955 1.83902,-0.2269 2.79999,-0.28531c0.77115,-0.04688 1.51465,-0.40894 2.39999,-0.71469c0.94376,-0.32593 1.784,-0.28391 2.68402,-0.284c0.89999,-0.00009 1.70352,-0.89166 2.51465,-0.63065c0.74667,0.24026 0.19385,1.64319 0.3425,2.38782c0.1846,0.92474 0.70709,1.55991 0.88568,2.49017c0.17368,0.9046 0.05716,1.75266 0.05716,2.73117c0,0.82016 0.47046,1.88086 -0.05716,2.66434c-0.46075,0.6842 -1.64285,0.35715 -2.54285,0.35715c-0.82132,0 -1.73334,0 -2.65067,0c-0.74399,0 -1.77866,0 -2.74933,0c-0.79999,0 -1.70001,0 -2.52084,0c-0.96317,0 -1.82648,0 -2.7265,0c-0.91931,0 -1.7735,0 -2.75266,0c-0.79999,0 -1.60001,0 -2.60001,0c-0.79999,0 -1.79999,0 -2.60001,0c-1,0 -1.79999,0 -2.79999,0c-0.79999,0 -1.60001,0 -2.59549,0c-0.74734,0 -1.76852,0 -2.7045,0c-0.90002,0 -1.80002,0 -2.70001,0l-0.79999,0l-0.84283,0.05716l-0.52383,0.77618" id="svg_23" stroke-width="2" stroke="#000" fill="none"/>
  <path t="68025,68183,68197,68214,68214,68228,68228,68239,68256,68271,68272,68287,68305,68318,68335,68343,68354,68354,68371,68371,68379,68391,68416,68416,68429,68439,68439,68466,68489,68514,68538,68552,68569,68577,68577,68587,68603,68603,68612,68612,68624,68636,68636,68652,68652,68652,68661,68661,68673,68698,68698,68722,68722,68747,68771,68771,68808,68808,68845,68869,68869,68905,68918,68934,68943,68967,68993,68994,69008,69008,69017,69018,69041,69053,69090,69128,69152,69176,69192,69200,69200,69217,69225,69237,69251,69251,69275,69300,69300,69300,69323,69350,69350,69363,69379,69380,69397,69409,69433,69453,69453,69458,69470,69485,69503,69503,69508,69509,69520,69520,69535,69535,69544,69545,69569,69569,69584,69585,69594,69606,69619,69655,69668,69692,69697,69717,69742,69757,69777,69801,69802,69818,69827,69827,69839,69854,69877,69877,69888,69888,69888,69888,69903,69903,69918,69918,69924,69936,69953,69969,69986,69986,70001,70022,70035,70053,70060,70072,70086,70108,70147" d="m355.5,307.89999c-0.05716,-1.69998 -0.49997,-2.5585 -1.32132,-3.09982c-0.6492,-0.42786 -1.64291,-0.45874 -2.39203,-0.98416c-0.63806,-0.44751 -1.30731,-0.90558 -2.26514,-0.91602c-0.82013,-0.00891 -1.72153,0 -2.62152,0c-0.89999,0 -1.81046,0.13254 -2.69998,-0.00449c-0.93268,-0.14368 -1.56488,-0.79825 -2.35269,-0.93835c-0.85175,-0.15146 -1.82648,-0.05716 -2.758,-0.05716c-0.91064,0 -1.76398,0 -2.70398,0c-0.88535,0 -1.68533,0 -2.58536,0c-0.89999,0 -1.79999,0 -2.69998,0c-0.89999,0 -1.8573,-0.16367 -2.70001,0.22134c-0.66931,0.30579 -1.42337,0.7077 -2.384,0.78134c-0.86795,0.06653 -1.60956,0.58319 -2.10532,1.14667c-0.67822,0.77084 -1.27847,1.4343 -1.47202,2.07199c-0.30505,1.00507 -0.83414,1.54797 -1.23334,2.17865c-0.60587,0.95718 -0.5636,1.77365 -0.70981,2.84283c-0.11984,0.87625 -0.74094,1.48816 -1.19418,2.24118c-0.40292,0.66943 -0.59015,1.67703 -0.96799,2.51599c-0.3103,0.689 -0.78192,1.48151 -0.82886,2.34735c-0.05502,1.01529 -0.39056,1.79102 -0.72049,2.45267c-0.42056,0.84335 -0.284,1.79999 -0.284,2.69998c0,0.89999 0,1.8045 0,2.66669c0,0.85416 0,1.83331 0,2.62265c0,1.04401 0,1.80002 0,2.71066c0,0.89999 -0.00009,1.80002 0,2.70001c0.00009,0.89984 0.38583,1.59122 0.95184,2.15717c0.62961,0.62952 1.28909,1.1524 1.87881,1.84149c0.55148,0.64441 1.43866,0.61246 2.26935,1.02283c0.69058,0.34116 1.15884,1.13882 2.06665,1.7785c0.62994,0.44391 1.34915,0.80029 2.07617,1.2955c0.85693,0.58368 1.58771,0.84811 2.15717,1.55518c0.63531,0.78882 1.32724,0.96112 2.20001,1.18533c0.86172,0.22137 1.49387,0.90311 2.39999,0.96399c0.79819,0.05362 1.70001,0 2.60001,0c0.92084,0 1.8894,0.04849 2.61066,-0.03598c0.99957,-0.11707 1.80203,-0.42944 2.62268,-0.96402c0.69824,-0.45486 1.48956,-1.09735 2.16666,-1.5c0.8353,-0.49673 1.49814,-0.98096 2.10001,-1.60016c0.62018,-0.63803 1.03677,-1.42554 1.5,-2.03851c0.61734,-0.81693 1.38449,-1.27783 1.89999,-1.86133c0.56357,-0.63788 1.17007,-1.10947 1.58401,-1.80133c0.47586,-0.79535 1.35214,-1.24283 1.94131,-1.77332c0.58298,-0.5249 1.36948,-1.05005 1.80801,-1.75867c0.45584,-0.73654 0.16666,-1.78134 0.16666,-2.66669c0,-0.79999 0,-1.69998 0,-2.63599c0,-0.85202 0,-1.64667 0,-2.69733c0,-0.63333 0,-1.64584 0,-2.30417c0,-1.30783 0,-2.10617 0,-3.01517c0,-0.69467 0,-1.71133 0,-2.64734c0,-0.89999 0,-1.80002 0,-2.70001c0,-0.79999 0,-1.69998 0,-2.60001c0,-0.89999 -0.06696,-1.74353 -0.57468,-2.42532c-0.4772,-0.64081 -0.42532,-1.57468 -0.44617,-2.47467l-0.33633,-0.7955" id="svg_24" stroke-width="2" stroke="#000" fill="none"/>
  <path t="72798,72969,72971,72981,72981,72981,72981,72994,72994,72994,72995,73010,73011,73011,73011,73029,73029,73030,73030,73034,73035,73044,73044,73055,73055,73068,73068,73077,73078,73090,73090,73090,73101,73102,73102,73102,73119,73119,73127,73127,73139,73151,73175,73176,73188,73212,73226,73236,73236,73250,73267,73274,73286,73286,73301,73323,73347,73347,73360,73360,73371,73371,73384,73401,73409,73421,73421,73440,73458,73461,73469,73485,73485,73495,73506,73518,73543,73555,73606,73631,73644,73658,73674,73675,73681,73681,73696,73707,73707,73728,73728,73779" d="m268.5,254.89999c0.36618,-2.60449 0.64142,-3.26625 1.33334,-4.16666c0.41226,-0.53645 1.18414,-1.33662 1.71848,-1.88068c0.77667,-0.79079 1.25519,-1.27673 1.94818,-1.93182c0.44693,-0.42249 1.41583,-1.22856 1.95715,-1.62083c0.84482,-0.61218 1.44446,-0.99957 2.3425,-1.59984c0.59152,-0.39539 1.43512,-0.95467 1.92969,-1.31483c0.97452,-0.70972 1.6524,-1.28542 2.42334,-1.78983c0.69382,-0.45395 1.47665,-1.16943 1.82648,-1.69551c0.54413,-0.81831 1.2124,-1.58383 1.43552,-2.48666c0.1832,-0.74135 0.07297,-1.68016 0.08981,-2.47049c0.01819,-0.85388 0.14258,-2.04706 0.28085,-2.64151c0.20648,-0.88774 0.48843,-1.72743 0.91467,-2.71466c0.28198,-0.65308 0.84097,-1.49153 1.27914,-2.16583c0.5137,-0.7905 0.35718,-1.77814 0.74219,-2.62083c0.30579,-0.6693 0.76019,-1.52344 1.20398,-2.3c0.41379,-0.72408 0.61096,-1.73689 1.27917,-2.24283c0.69522,-0.52637 1.73169,-0.62285 2.17416,-1.45717c0.44275,-0.83482 0.66663,-1.65149 1.62134,-1.87917c0.78296,-0.18672 1.82007,-0.24527 2.5,-0.52084c0.83182,-0.33713 1.65292,-0.44751 2.48267,-0.78532c0.84265,-0.34306 1.35129,-1.22476 2.03818,-1.71468c0.69781,-0.4977 1.56662,-0.92842 2.04315,-1.59999c0.51489,-0.72566 1.06216,-1.22838 1.73151,-1.75717c0.74103,-0.58543 0.91907,-1.61292 1.27917,-2.24283c0.49405,-0.8642 0.71353,-1.79077 1.42532,-2.23334c0.8157,-0.50717 1.32605,-1.03008 1.97467,-1.592c0.58792,-0.50931 1.42532,-0.57468 2.32983,-0.57468c0.86215,0 1.6955,0 2.67398,0c0.82019,0 1.77933,-0.0294 2.67868,0.0045c0.74866,0.02823 1.74152,0.27951 2.50684,0.57018l0.95065,0.34" id="svg_25" stroke-width="2" stroke="#000" fill="none"/>
  <path t="74861,75017,75028,75042,75042,75053,75053,75053,75068,75068,75068,75078,75078,75089,75101,75118,75138,75163,75188,75188,75201,75201,75225,75236,75236,75251,75252,75268,75268,75273,75297,75297,75311,75311,75334,75351,75360,75384,75400,75421,75421,75440,75458,75461,75469,75469,75469,75484,75484,75495,75495,75506,75517,75533,75534,75544,75555,75567,75567,75584,75584,75593,75593,75616,75641,75666,75684,75691,75715,75765" d="m343.5,203.89999c1.70001,0 2.63599,0 3.48666,0c0.76001,0 1.93466,0 2.73868,0c0.82199,0 1.85315,0 2.53867,0c0.83466,0 1.83148,0 2.75067,0c0.96448,0 1.88531,0 2.78531,0c0.90002,0 1.80002,0 2.70001,0c0.75717,0 1.65268,0 2.51599,0c0.85867,0 1.81415,-0.09145 2.65866,0.03601c0.96255,0.14526 1.54794,0.72708 2.47803,0.90683c0.8494,0.16415 1.86505,0.01576 2.66864,0.2785c0.87787,0.28702 1.65298,0.69034 2.47736,0.77733c0.89825,0.09479 1.62369,0.68753 2.50131,0.94417c0.8656,0.25313 1.85349,-0.12419 2.70001,0.22383c0.67108,0.27589 1.55057,0.77631 2.02533,1.444c0.51602,0.72572 1.30472,1.24409 1.98001,1.33667c0.74112,0.10161 1.90863,0.1833 2.57333,0.66333c0.80902,0.58423 1.30453,1.11176 2.23599,1.364c0.94043,0.25468 1.3999,0.99541 1.76001,1.62534c0.49405,0.86418 0.91095,1.64282 1.25867,2.56667c0.2373,0.63049 0.25467,1.71652 0.6875,2.3125c0.58145,0.8006 0.92325,1.4848 1.56317,2.2355c0.56769,0.66597 0.91599,1.28532 1.13733,2.164l0.69464,0.40533l0.50934,0.69066l0.55383,0.54617" id="svg_26" stroke-width="2" stroke="#000" fill="none"/>
  <path t="76762,76968,76968,76984,76992,76992,77003,77003,77003,77019,77019,77030,77030,77045,77057,77058,77078,77102,77118,77127,77150,77167,77176,77199,77200,77212,77224,77224,77224,77236,77236,77236,77250,77250,77250,77268,77273,77285,77285,77310,77334,77334,77351,77351,77360,77384,77400,77401,77409,77409,77420,77434,77451,77470,77470,77494,77518,77555,77579,77579,77593,77617,77654,77668,77684,77702,77718,77739,77751,77767,77767,77777,77777,77788,77788,77801,77801,77819,77825,77849,77878,77878,77898,77912,77912,77923,77924,77935,77960,77960,77973,77984,78009,78033,78033,78070,78095,78120,78134,78153,78156,78181,78208,78224,78225,78238,78238,78243,78254,78254,78267,78284,78285,78303,78317,78340,78365,78365,78390,78401,78418,78427,78427,78450,78450" d="m395.5,225.89999c1.16666,1 1.74698,1.53795 1.96399,2.41068c0.21994,0.88461 0.00204,1.8157 0.25735,2.78934c0.16074,0.61299 0.54312,1.39001 0.72598,2.39999c0.14377,0.79399 0.34415,1.79587 0.62735,2.564c0.34927,0.94731 0.42532,1.836 0.42532,2.636c0,0.90001 0,1.8 0,2.7c0,0.90001 0,1.8 0,2.70001c0,0.89999 0,1.79999 0,2.59999c0,0.87201 0,1.74301 0,2.472c0,0.83701 0,2.02783 0,2.91734c0,0.57466 0,1.644 0,2.564c0,0.75999 0,1.83601 0,2.7675c0,0.80051 0,1.65384 0,2.59515c0,1.05069 0.03336,1.7099 0,2.71735c-0.02859,0.86359 -0.68558,1.5892 -0.94284,2.46667c-0.25412,0.86676 -0.1185,1.59436 -0.48248,2.52533c-0.27286,0.69791 -0.56195,1.65369 -0.57468,2.57465c-0.01242,0.89996 -0.3674,1.74802 -0.716,2.40002c-0.45306,0.84738 -0.85931,1.6604 -1.19998,2.39999c-0.39761,0.86322 -0.47949,1.65457 -1.13669,2.44284c-0.51013,0.61188 -0.94666,1.15848 -0.94733,2.05716c-0.00067,0.89999 0,1.79999 0,2.69998c0,0.90002 -0.01208,1.80142 0,2.76669c0.01044,0.8335 0.20569,1.64774 0.57468,2.45865c0.38269,0.84103 0.32825,1.78787 0.7825,2.61749c0.34171,0.62408 1.08597,1.27948 1.59015,2.05267c0.457,0.70087 1.19626,1.09753 1.93802,1.4205c0.89136,0.38809 1.95773,0.19113 2.73999,0.32001c0.88187,0.14529 1.53757,0.57291 2.48932,0.88c0.8757,0.28256 1.53796,0.88419 2.38535,1.06317c0.8808,0.18604 1.85663,-0.11575 2.70001,0.30481c0.66162,0.32993 1.50055,0.76773 2.29999,1.216c0.79605,0.44638 1.24945,0.97372 1.50449,1.7955c0.23682,0.76309 0.88956,1.23245 1.0062,2.11517c0.12244,0.92667 0.55063,1.56775 0.86798,2.56784c0.25574,0.80588 0.75055,1.49316 0.99985,2.34283c0.24228,0.82568 -0.06747,1.8562 0.34283,2.77866c0.29907,0.67233 0.60818,1.52002 0.7995,2.39999c0.18402,0.84631 0.89413,1.4874 0.97781,2.30002c0.09219,0.89526 0.03168,1.80273 0.42667,2.61066c0.44678,0.91385 0.55383,1.58932 0.57468,2.56784l0,0.82016" id="svg_27" stroke-width="2" stroke="#000" fill="none"/>
  <path t="79142,79323,79323,79340,79340,79340,79357,79362,79362,79371,79371,79384,79384,79384,79399,79400,79408,79408,79419,79419,79433,79434,79449,79449,79449,79457,79457,79457,79468,79468,79483,79493,79493,79517,79533,79533,79555,79566,79567,79583,79584,79591,79591,79591,79603,79603,79618,79618,79635,79635,79652,79652,79678,79678,79689,79702,79716,79738,79738,79751,79751,79768,79776,79788,79788,79800,79800,79816,79817,79817,79825,79837,79837,79851,79851,79867,79867,79874,79885,79901,79910,79910,79934,79951,79960,79984,79984,80000,80009,80020,80020,80033,80051,80051,80058,80070,80070,80084,80084,80100,80101,80107,80119,80134,80134,80144,80156,80156,80168,80168,80184,80228,80242,80254,80278,80291,80328,80339,80365,80379,80379" d="m418.5,320.89999c0,1.84668 -0.01151,2.68677 0.00134,3.68268c0.01028,0.79669 -0.00354,1.57874 0.42398,2.65601c0.34048,0.85797 0.47043,1.68915 0.74133,2.49466c0.24356,0.72418 0.73944,1.70654 0.79733,2.41733c0.06042,0.74219 -0.0372,1.95306 0.12134,2.63199c0.23016,0.98563 0.70999,1.70392 0.85751,2.71735c0.11548,0.79337 0.05716,1.79999 0.05716,2.60001c0,1.00015 0,1.61066 0,2.48532c0,0.99869 0,1.81467 0,2.63068c0,0.99734 0,1.83734 0,2.92682c0,0.85736 0,1.64252 0,2.58252c0,1.008 0,1.76401 0,2.6955c0,0.96451 0,1.68982 0,2.67917c0,0.79999 0.03186,1.80106 -0.01068,2.60001c-0.04272,0.80234 -0.37082,1.78995 -0.63666,2.59998c-0.25967,0.79123 -0.34222,1.59985 -0.35266,2.60001c-0.01019,0.97913 0,1.83334 0,2.62534c0,1.02734 0,1.72202 0,2.73868c0,0.936 0.04852,1.83731 -0.00015,2.73618c-0.04272,0.7886 -0.47122,1.70752 -0.71585,2.41583c-0.32593,0.94376 -0.284,1.784 -0.284,2.68665c0,0.76801 0,1.80716 0,2.58267c0,1.048 0,1.75299 0,2.728c0,0.86133 0.06412,1.81311 -0.03601,2.69733c-0.11325,1 -0.45471,1.55542 -0.79733,2.62268c-0.2384,0.74268 -0.78476,1.47699 -1.08133,2.36667c-0.28586,0.85764 0.08286,1.83643 -0.17065,2.60001c-0.25635,0.77216 -0.80164,1.6073 -0.91602,2.39999c-0.13229,0.9169 -0.81708,1.47382 -1.59866,1.82532c-0.82013,0.36884 -1.5,1.07468 -2,1.57468c-0.69998,0.70001 -1.32584,1.49112 -2,1.96399c-0.74399,0.52185 -1.73819,0.62183 -2.39999,0.95685c-0.85764,0.43417 -1.48431,0.97388 -2.20001,1.67917c-0.50366,0.49631 -1.13461,1.30548 -2,1.716c-0.75745,0.35931 -1.5011,0.78738 -2.09998,1.384c-0.70129,0.69867 -1.32263,1.27826 -1.89868,1.89999c-0.53784,0.58051 -0.91061,1.46924 -1.60266,1.884c-0.79498,0.47647 -1.08252,1.35733 -1.48267,2.116c-0.45273,0.85837 -0.88266,1.63333 -1.59467,2.02133l-0.47852,0.72598l-0.84283,0.33801l-0.59998,0.51599" id="svg_28" stroke-width="2" stroke="#000" fill="none"/>
 </g>
 <g display="none">
  <title>muse_image</title>
  <image xlink:href="http://farm4.static.flickr.com/3036/2565784190_6a9344239b.jpg" id="muse" height="480" width="266" y="0" x="187"/>
 </g>
 <g display="none">
  <title>bbox</title>
  <rect stroke="#f00" fill="none" stroke-width="3" height="467.52" width="186.58273" y="5.76" x="226.23022" id="bbox"/>
 </g>
</svg>
