<svg width="640" height="480" xmlns="http://www.w3.org/2000/svg" xmlns:svg="http://www.w3.org/2000/svg" xmlns:xlink="http://www.w3.org/1999/xlink">
 <!-- Sketchy ANNOTATION
  ImageNet ID: n02676566_3360
  URL: http://img.alibaba.com/photo/11039225/Acoustic_Guitar_41_Inch.jpg
  Image Width: 360
  Image Height: 540
  BBox X: 106
  BBox Y: 16
  BBox Width: 199
  BBox Height: 510
  Exposure: 2000ms
  Synset Label: guitar
  Synset ID: n03467517
  Worker Tag: acoustic guitar
  Sanity Check: 
   Saved
  Comment: 
   {}
  Worker ID: A1P7U2ULSAE7YL
  Assignment ID: 3LRLIPTPEQ93QOZAORAAXO38V3MKAT
  HIT ID: 302U8RURJZ1M3YPH6XOKWJ347W8VNP
  Work Time: 147s
  Worker Score: 0.7857
 END ANNOTATION -->
 <g display="inline">
  <title>Layer 1</title>
  <path t="0,269,277,300,308,356,404,460,477,524,540,572,620,636,700,924,940,980,1012,1012,1028,1052,1060,1092,1108,1132,1140,1156,1188,1196,1204,1252,1260,1268,1292,1316,1332,1364,1364,1372,1412,1428,1436,1468,1492,1500,1524,1556,1564,1572,1588,1628,1652,1668,1676,1684,1724,1748,1772,1804,1836,1844,1868,1916,2380,2380,2476,2540,2620,2676,2716,2756,2788,2796,2820,2829,2846,2862,2884,2908,2932,2940,2940,3020,3044,3068,3108,3140,3212,3236,3236,3284,3300,3324,3364,3404,3412,3460,3484,3516,3916,3948,3972,3988,4012,4028,4068,4092,4116,4124,4140,4164,4204,4212,4236,4276,4300,4300,4316,4356,4388,4404,4476,4524,4580,4596,4612,4644,4668,4692,4700,4710,4732,4764,4828,4860,4884,4932,4956,4996,5028,5556,5556" d="m308.51135,126.09091c-0.87866,-1.22134 -1.3822,-1.78931 -2.19864,-2.00134c-0.80048,-0.20788 -1.32199,-0.98824 -2.19067,-0.99866c-0.89594,-0.01074 -1.90854,0.15936 -2.55801,-0.35267c-0.61459,-0.48454 -1.35266,-0.64725 -2.25266,-0.64733c-0.89984,-0.00008 -1.37125,-0.57111 -2.02151,-1c-0.73322,-0.48358 -1.55219,-0.27007 -1.99982,-1.1c-0.34933,-0.64765 -0.44553,-1.57378 -0.7995,-2.37917c-0.31296,-0.7121 -0.97693,-1.22533 -0.97919,-2.12083c-0.00226,-0.9 -0.08945,-1.81737 -0.57465,-2.42534c-0.49838,-0.62449 -0.59601,-1.3784 -1.14133,-1.97333c-0.46664,-0.5091 -0.71851,-1.39577 -1.20001,-2.2c-0.44522,-0.74362 -0.9787,-1.27692 -1.43668,-2.10133c-0.41235,-0.74229 -0.25375,-1.63059 -0.73267,-2.41467c-0.49063,-0.80327 -0.82599,-1.38971 -0.91467,-2.28533c-0.08374,-0.8457 -0.83011,-1.07346 -1.08533,-1.80133c-0.30991,-0.88389 -0.6543,-1.63778 -0.91916,-2.49417c-0.23608,-0.76331 -0.98508,-1.22517 -0.99551,-2.2045c-0.00958,-0.89995 0.1673,-1.81596 -0.00131,-2.69867c-0.14444,-0.75611 -0.64713,-1.19672 -1.16534,-1.80133c-0.521,-0.60784 -0.70935,-1.20861 -0.8335,-2.09983c-0.11172,-0.80189 -0.87112,-1.26538 -1.00116,-2.10017c-0.14261,-0.91545 -1.30215,-1.65133 -0.93701,-2.44283c0.34384,-0.74533 1.33176,-0.66238 2.10501,-1.1905c0.70532,-0.48174 1.38037,-0.91369 2.23334,-1.13067c0.87292,-0.22205 1.81256,0.1138 2.69983,-0.03616c0.85202,-0.144 1.25601,-0.97124 2.20016,-0.99983c0.89957,-0.02724 1.85861,0.19362 2.69998,-0.16666c0.63992,-0.27402 1.35718,-0.83263 2.30002,-0.83334c0.89865,-0.00067 1.43881,-0.60841 2.13599,-0.964c0.77054,-0.39301 1.70236,-0.42207 2.36401,-0.752c0.84335,-0.42054 1.6008,-0.48422 2.284,-1c0.61536,-0.46456 1.51575,-0.42153 1.97318,-0.93133c0.54959,-0.61251 1.64282,-0.35267 2.54282,-0.35267c0.89999,0 2.03955,-0.1812 2.37918,0.52084c0.41772,0.8635 0.47018,1.61752 1.10483,2.19516c0.64667,0.58858 0.89133,1.30972 0.91599,2.08533c0.02859,0.90003 0.68552,1.62124 0.94284,2.49866c0.25345,0.86417 0.66507,1.43909 1.02118,2.136c0.43918,0.85943 0.42206,1.70237 0.75198,2.364c0.42053,0.84337 -0.13971,1.91592 0.32001,2.764c0.3566,0.65784 0.96399,1.04667 0.96399,1.936c0,0.9 -0.07303,1.85017 0.42535,2.47466c0.4852,0.60797 0.57397,1.42534 0.57465,2.32533c0.00067,0.89867 0.62762,1.44766 0.97919,2.22084c0.35959,0.79084 0.02072,1.7645 0.02081,2.67916c0.00009,0.89983 0.50781,1.40865 0.94284,2.15717c0.42447,0.73038 0.05716,1.74284 0.05716,2.64284l0,0.8" id="svg_1" stroke-width="2" stroke="#000" fill="none"/>
  <path t="6828,6932,6974,6996,7004,7036,7076,7084,7100,7124,7159,7159,7188,7197,7236,7244,7268,7284,7300,7660,7724,7756,7812,7812,7820,7884,7908,7908,7924,7940,7996,8020,8036,8060" d="m317.51135,95.09091c0,1.8 0,2.7 0,3.6c0,0.9 -0.24249,1.8232 0.00134,2.684c0.22089,0.77975 0.93881,1.26681 1.35135,2.016c0.46182,0.83869 0.77078,1.4771 1.22198,2.3c0.42776,0.78014 0.38593,1.72854 0.92532,2.4c0.48764,0.60701 1.35428,1.04395 1.49869,1.80133c0.17108,0.89718 -0.24069,1.65015 -0.71466,2.28267c-0.57507,0.76746 0.08032,1.82674 -0.34119,2.55883c-0.46722,0.81149 -1.15451,1.32891 -1.51749,1.95717c-0.48859,0.84566 -1,1.42533 -1.42084,2.1045l-0.00452,0.8955l-0.03598,0.964l-0.61133,0.4315" id="svg_2" stroke-width="2" stroke="#000" fill="none"/>
  <path t="24380,24601,24605,24620,24637,24653,24660,24684,24700,24708,24716,24732,24748,24756,24772,24780,24796,24812,24820,24860,24892,24900,24908,24916,24940,24940,24956,24964,24988,24988,25004,25020,25028,25060,25076,25076,25084,25092,25100,25124,25140,25140,25164,25172,25180,25196,25204,25212,25220,25236,25244,25252,25253,25276,25284,25284,25292,25300,25308,25316,25324,25332,25348,25348,25357,25372,25388,25388,25396,25412,25412,25428,25452,25468,25468,25484,25500,25500,25508,25508,25516,25524,25532,25532,25540,25556,25572,25572,25588,25596,25596,25604,25620,25628,25628,25636,25644,25644,25660,25676,25686,25686,25692,25700,25700,25708,25708,25724,25732,25740,25740,25748,25756,25764,25772,25780,25788,25788,25796,25804,25812,25812,25820,25828,25836,25844,25860,25876,25876,25892,25892,25900,25900,25908,25916,25924,25932,25940,25948,25956,25972,25972,25980,25980,25988,26004,26020,26028,26039,26039,26052,26076,26093,26100,26109,26116,26132,26140,26140,26148,26172,26188,26188,26196,26212,26228,26239,26239,26244,26260,26270,26277,26286,26308,26324,26324,26332,26348,26364,26404,26404,26420,26428,26444,26460,26484,26524,26540,26571,26596" d="m307.51135,126.09091c0,1.8 -0.15884,2.72015 0.02084,3.5c0.21936,0.95206 0.81693,1.58911 1.06451,2.30133c0.30756,0.88472 0.89597,1.59814 0.91464,2.49867c0.01862,0.89847 0.62289,1.44981 0.97919,2.22083c0.36456,0.78891 0.59818,1.42035 1.04617,2.08984c0.49213,0.73541 0.70395,1.73561 1.32733,2.33215c0.52911,0.50633 0.52332,1.26578 0.64749,2.15701c0.11172,0.80186 0.78503,1.24741 1.22134,2.00017c0.45581,0.78641 1.2738,1.23952 1.69449,2.09999c0.41745,0.85387 0.84824,1.44618 1.47333,2.2c0.5451,0.65735 1.0079,1.2838 1.55801,1.95717c0.57373,0.70229 1.07324,1.02766 1.76733,1.72684c0.54355,0.54753 0.5733,1.40448 1.164,2.1375c0.52084,0.64632 0.91647,1.43217 1.10049,2.2785c0.19135,0.87999 0.52765,1.71616 0.85416,2.5c0.3439,0.82561 0.71085,1.46182 1.46216,1.94733c0.70276,0.45412 1.20502,1.27148 1.53784,2.05267c0.32019,0.75154 0.10873,1.67076 0.52383,2.64816c0.28534,0.67186 1.15454,1.18462 1.64282,1.87267c0.49496,0.69749 0.62534,1.65741 1.01068,2.45384c0.3255,0.67276 1.30069,1.14444 1.70401,1.82533c0.48996,0.82715 0.91449,1.67168 1.16382,2.52133c0.24228,0.82568 0.12149,1.79333 0.12149,2.67867c0,0.8 0.28799,1.48848 0.87869,2.2215c0.52084,0.64632 0.81094,1.30956 1.41681,2.08301c0.62662,0.79996 0.65314,1.5215 0.7045,2.52882c0.04401,0.86295 0.60736,1.61574 0.94736,2.47118c0.32858,0.82672 0.26025,1.71709 1.05264,2.36217c0.69604,0.56665 1.32755,0.8839 1.64734,1.68517c0.34848,0.87317 0.6637,1.69273 1.06866,2.44817c0.40524,0.75597 0.72821,1.5923 1.38385,2.3c0.54996,0.59363 0.88974,1.42065 0.90015,2.38266c0.00873,0.80745 0.06027,1.70132 0.52084,2.53816c0.4548,0.82639 1.07233,1.4034 1.42651,2.28368c0.33209,0.82532 0.54736,1.49545 0.88599,2.52882c0.24289,0.74123 0.69409,1.51241 1.08267,2.36667c0.34714,0.76312 0.93564,1.21086 1.64801,1.82533c0.60928,0.52556 0.4241,1.59981 0.86133,2.37466c0.40979,0.72624 0.38892,1.64252 0.66,2.40001c0.32248,0.90111 1.26996,1.29761 1.74799,2.2c0.34338,0.64822 0.85281,1.42238 1.1095,2.3c0.25278,0.86427 -0.147,1.88467 0.34119,2.61732c0.44006,0.6604 0.63123,1.30589 1,2.19867c0.33643,0.81441 0.60516,1.72842 0.79999,2.40001c0.29233,1.00761 0.87326,1.68097 0.91599,2.584c0.04251,0.89899 0.48267,1.50749 0.91467,2.18533c0.49377,0.7748 0.39206,1.76675 0.73267,2.47183c0.40894,0.84654 0.51535,1.60553 1.06866,2.3255c0.53354,0.69423 1.14883,1.20877 1.28534,2.11732c0.1214,0.80785 0.80276,1.45341 0.98801,2.364c0.17389,0.85477 0.44354,1.68724 0.84399,2.436c0.42328,0.79144 1.12393,1.28091 1.16666,2.16667c0.04013,0.83237 -0.39297,1.76372 0.08536,2.54799c0.4902,0.80373 1.03818,1.32071 1.61917,1.98534c0.55219,0.63165 1.41275,1.21236 1.87015,1.94667c0.47742,0.76646 0.31659,1.78702 0.94617,2.3325c0.65143,0.56444 1.32928,1.12512 1.47916,2.02083c0.14026,0.8382 0.95728,1.28238 1,2.20132c0.03177,0.68329 -0.3974,1.81439 0.22134,2.55566c0.54074,0.64783 0.77866,1.24301 0.77866,2.043c0,0.90002 -0.34305,1.8786 0.02084,2.67917c0.35147,0.77322 0.97784,1.32217 0.97916,2.22086l0,0.89999l0,0.89999l0,0.88934" id="svg_5" stroke-width="2" stroke="#000" fill="none"/>
  <path t="27956,28107,28116,28116,28124,28133,28140,28156,28156,28164,28164,28172,28180,28188,28196,28212,28220,28228,28236,28244,28252,28260,28260,28276,28276,28284,28292,28308,28308,28316,28324,28332,28332,28340,28349,28364,28364,28372,28380,28388,28396,28404,28412,28420,28436,28444,28444,28460,28460,28470,28476,28487,28492,28500,28508,28516,28524,28532,28540,28549,28566,28572,28588,28588,28596,28596,28604,28620,28628,28628,28636,28644,28652,28660,28660,28668,28676,28676,28692,28708,28708,28716,28732,28740,28749,28766,28772,28780,28796,28796,28812,28812,28820,28828,28844,28852,28868,28876,28884,28884,28892,28900,28908,28924,28932,28940,28940,28956,28965,28972,28988,28996,29004,29012,29020,29020,29028,29044,29052,29052,29060,29068,29084,29092,29100,29116,29124,29132,29149,29149,29165,29165,29181,29181,29188,29196,29204,29212,29220,29228,29244,29244,29260,29268,29276,29284,29315,29316,29332,29332,29347,29363,29364,29372,29387,29396,29411,29427,29436,29444,29451,29460,29476,29484,29515,29531,29531,29547,29571,29580,29580,29603,29612,29635,29651,29675,29676,29691,29701,29723,29739,29739,29763,29772,29787,29798,29820,29851,29860,29907,30003,30012,30051,30131,30187,30203,30255,30292,30372,30540,30580,30580,30588,30596,30620,30635,30659,30675,30715,30739,30795,31067,31099,31100,31109,31147,31163,31179,31211,31244,31244,31292,31332,31348,31356,31452,31475,31500,31523,31548,31556,31557" d="m319.51135,119.09091c0.61069,1.6 1.3038,2.29623 1.80002,2.8c0.68445,0.69485 1.11667,1.51779 1.62534,2.18533c0.4624,0.60683 0.54205,1.42423 0.57599,2.412c0.03055,0.88956 0.72488,1.45901 0.98801,2.21334c0.29291,0.83977 -0.0347,1.9501 0.62134,2.41466c0.71844,0.50873 1.13727,1.28848 1.67334,1.89067c0.52719,0.59222 0.57736,1.43741 0.9375,2.18416c0.35425,0.73448 1.04123,1.35376 1.42133,2.24718c0.36862,0.86644 0.8284,1.46497 1.457,2.09534c0.59698,0.59869 0.9931,1.46597 1.40015,2.099c0.55646,0.86539 0.53143,1.76274 1,2.4375c0.47449,0.68327 0.49582,1.59018 0.5,2.37267c0.00534,1.00154 0.72562,1.52206 0.98935,2.25883c0.29974,0.83736 -0.10031,1.90559 0.53149,2.38933c0.67731,0.51857 1.32355,1.10527 1.47916,2c0.14017,0.80591 0.92639,1.30775 1.43201,1.8c0.70914,0.69038 1.18604,1.51036 1.48267,2.39999c0.28592,0.85748 0.38156,1.58012 1.03268,2.15266c0.63919,0.56206 1.24564,1.05098 1.76865,1.73134c0.46991,0.61128 0.65466,1.345 1.16251,2.1375c0.47852,0.74672 0.3494,1.74316 0.69617,2.41451c0.41895,0.81107 0.33798,1.78786 1.03601,2.37866c0.68295,0.57806 1.49289,0.90262 1.95334,1.58534c0.5542,0.82172 0.25287,1.89589 0.72131,2.59866c0.53012,0.7953 1.55045,0.94214 1.69385,1.82216c0.15408,0.94543 0.03149,1.70258 0.54166,2.5c0.53238,0.83218 0.83502,1.5948 1.57901,2.23634c0.6362,0.54858 1.03531,1.19048 1.47482,1.8535c0.53983,0.81433 0.30878,1.79749 0.42984,2.68933c0.11151,0.82153 0.74091,1.43098 1.19415,2.18399c0.40295,0.66943 0.62039,1.84511 1.15402,2.46333c0.51685,0.59877 0.99692,1.351 1.59467,2c0.5498,0.59695 0.79648,1.40996 1.078,2.19135c0.32718,0.90813 0.80624,1.49181 0.99548,2.36133c0.1842,0.84628 0.91827,1.59389 0.97916,2.5c0.05362,0.7982 -0.37143,1.80125 0.03601,2.564c0.39017,0.73041 1.63879,0.86984 1.90683,1.73601c0.2666,0.8615 0.05716,1.8 0.05716,2.7c0,0.8 0.31451,1.38716 0.83334,2.16667c0.47086,0.70746 0.16666,1.63333 0.16666,2.53333c0,0.94284 0.61871,1.30661 1.05267,2.0045c0.41669,0.67006 0.75452,1.5123 0.94751,2.39534c0.18488,0.84583 1.07581,1.18634 1.479,1.92099c0.4993,0.90981 0.53802,1.74446 0.8735,2.63184c0.26685,0.70581 0.40842,1.619 0.64865,2.54601c0.20694,0.79848 1.47775,0.47632 1.9415,1.15849c0.47498,0.6987 0.36819,1.68741 0.77316,2.44284c0.40524,0.75597 0.90146,1.51042 1.19867,2.39867c0.28223,0.84348 -0.00616,1.81387 0.14252,2.5585c0.18463,0.92474 0.56839,1.59743 0.91748,2.60683c0.29135,0.84245 0.84915,1.40938 1.02084,2.336c0.17215,0.92905 0.54807,1.52483 1.22583,2.17867c0.57849,0.55807 0.65466,1.32994 0.77884,2.22118c0.11172,0.80186 0.94757,1.25247 1.49982,1.90016c0.48972,0.57436 0.86719,1.34731 1.5,2c0.57321,0.59122 0.8486,1.41267 1.00452,2.3c0.16293,0.92732 1.01608,1.08482 1.71017,1.784c0.54355,0.54753 0.28458,1.616 0.28531,2.552c0.00067,0.84666 0.08893,1.63049 0.64734,2.41217c0.46384,0.64928 1.12634,1.22189 1.57401,2.05183c0.3493,0.64764 0.44553,1.57379 0.7995,2.37917c0.31296,0.71208 0.9769,1.22533 0.97916,2.12083c0.00226,0.89999 -0.00009,1.79999 0,2.6955c0.00009,0.92584 0.61176,1.44162 0.96402,2.1405c0.4342,0.86142 0.03598,1.86398 0.03598,2.76401c0,0.89999 -0.33704,1.94885 0.16669,2.63333c0.4805,0.65289 0.71548,1.38058 0.12881,1.80948c-0.75946,0.55521 -1.33945,1.21143 -2.09683,1.35583c-0.88275,0.16833 -1.79865,0.00134 -2.76266,0.00134c-0.87198,0 -1.73599,0 -2.63599,0c-0.89999,0 -1.80087,0.0372 -2.60001,0c-0.91766,-0.04272 -0.76575,-1.23242 -1.36667,-1.83334c-0.60092,-0.60092 -1.56277,-0.38281 -2,-1.16666c-0.36359,-0.65189 -1.30865,-1.19308 -1.66666,-2c-0.37756,-0.85107 -0.5372,-1.42993 -1.04517,-2.2215c-0.47888,-0.74628 -0.34283,-1.65717 -1.06433,-2.13116l-0.05719,-0.86902l0,-0.94498l-0.01065,-0.66934" id="svg_6" stroke-width="2" stroke="#000" fill="none"/>
  <path t="33893,34117,34157,34173,34181,34212,34220,34253,34277,34277,34285,34316,34341,34349,34380,34404,34420,34437,34445,34461,34477,34485,34509,34517,34527,34544,34544,34550,34565,34588,34613,34621,34636,34645,34652,34669,34669,34677,34700,34710,34716,34733,34748,34749,34765,34780,34797,34804,34812,34820,34828,34844,34868,34884,34900,34900,34900,34909,34916,34932,34940,34941,34948,34948,34964,34972,34980,34996,35012,35028,35036,35060,35068,35076,35084,35100,35100,35109,35116,35125,35142,35148,35156,35164,35172,35180,35188,35196,35196,35204,35213,35220,35228,35236,35252,35260,35268,35284,35300,35300,35309,35316,35325,35332,35348,35348,35356,35364,35372,35396,35404,35420,35420,35429,35436,35460,35460,35468,35492,35500,35508,35516,35525,35542,35548,35548,35558,35564,35572,35620,35628,35652,35660,35668,35684,35692,35700,35708,35732,35741,35758,35764,35788,35797,35820,35828,35852,35852,35868,35876,35884,35900,35908,35916,35932,35942,35948,35959,35965,35981,36004,36004,36013,36020,36028,36029,36052,36068,36084,36084,36092,36108,36116,36125,36125,36132,36142,36148,36173,36189,36197,36213,36220,36221,36229,36236,36260,36269,36284,36308,36324,36340,36340,36356,36364,36388,36404,36404,36413,36420,36436,36444,36452,36460,36468,36476,36492,36508,36508,36532,36540,36548,36548,36557,36574,36580,36589,36604,36612,36620,36629,36629,36644,36660,36660,36668,36676,36684,36692,36724,36732,36740,36748,36757,36764,36773,36790,36790,36804,36820,36836,36836,36852,36860,36876,36892,36900,36924,36932,36932,36940,36956,36964,36980,36990,36990,37005,37020,37029,37044,37052,37068,37076,37084,37084,37095,37100,37111,37116,37117,37132,37140,37140,37148,37172,37181,37190,37197,37197,37204,37213,37220,37228,37229,37236,37244,37252,37261,37268,37277,37284,37295,37300,37311,37311,37327,37340,37340,37356,37364,37373,37373,37380,37389,37389,37396,37406,37421,37421,37436,37452,37452,37468,37484,37484,37500,37516,37527,37544,37545,37548,37572,37588,37588,37604,37620,37620,37628,37629,37636,37645,37661,37677,37694,37700,37711,37716,37717,37732,37744,37748,37748,37764,37772,37780,37804,37804,37813,37828,37845,37845,37861,37892,37908,37924,37940,37948,37964,37972,38004,38013,38028,38036,38052,38076,38084,38092,38100,38116,38124,38144,38148,38160,38172,38189,38196,38212,38222,38237,38245,38260,38268,38277,38293,38300,38324,38333,38340,38364,38376,38377,38380,38396,38396,38409,38410,38412,38421,38422" d="m362.51135,247.09091c-1.69998,0 -2.77838,0.00641 -2.99866,0.80133c-0.245,0.88412 -0.93314,0.80568 -1.716,1.284c-0.80334,0.49081 -1.23584,1.1629 -1.98532,1.56201c-0.82019,0.43677 -1.69812,0.39377 -2.32535,0.92732c-0.5975,0.50827 -1.25751,1.10623 -1.89066,1.70934c-0.5741,0.54688 -1.4437,0.63124 -2.05865,1.14134c-0.59927,0.49709 -1.18417,1.09276 -1.74133,1.65865c-0.66071,0.67102 -1.56363,0.5928 -2.16269,1.13751c-0.69769,0.63437 -0.5314,1.62778 -1.14667,2.3425c-0.53238,0.61844 -1.17825,0.91306 -1.80798,1.60266c-0.54678,0.59879 -0.95395,1.21609 -1.168,2.03201c-0.21033,0.80179 -1.31049,0.9942 -1.71335,1.60266c-0.54388,0.82144 -1.03491,1.51364 -1.56934,2.11465c-0.57446,0.64606 -1.16895,1.19125 -1.54932,2.08401c-0.32019,0.75153 -0.48117,1.38715 -1,2.16666c-0.47089,0.70746 -0.436,1.52878 -1.08267,2.11734c-0.63464,0.57764 -1.07358,1.23666 -1.08401,2.10535c-0.01074,0.89594 0.09641,1.83392 -0.16666,2.77731c-0.19006,0.68164 -0.25455,1.48846 -0.85867,2.38669c-0.44513,0.66183 -1.03702,1.24072 -1.54266,1.93066c-0.53363,0.72812 -1.30081,1.46722 -1.423,2.21149c-0.14655,0.89261 -0.17175,1.74255 -0.65631,2.35718c-0.51202,0.64944 -0.35269,1.64734 -0.35269,2.54733c0,0.87915 0,1.75717 0,2.69998c0,0.90002 0,1.80002 0,2.70001c0,0.79999 -0.36316,1.79691 0.03601,2.564c0.39514,0.75937 1.28165,1.18259 1.88,1.72c0.63846,0.57343 1.07358,1.23666 1.08398,2.116c0.01065,0.89993 -0.16367,1.8573 0.22134,2.70001c0.30579,0.66931 0.94031,1.33981 1.42599,2.00983c0.47287,0.65234 -0.00705,1.9053 0.43802,2.60617c0.46811,0.73718 0.40482,1.5589 0.91916,2.22684c0.5238,0.68021 1.20718,1.0289 1.57016,1.65717c0.48856,0.84564 1.15649,1.25137 1.81467,1.836c0.69379,0.61624 0.85278,1.51779 1.258,2.26401c0.4133,0.76111 0.15063,1.81491 0.70984,2.59549c0.4881,0.68137 1.27872,1.0817 1.97617,1.53784c0.70157,0.45883 1.50699,0.61337 1.66666,1.556c0.1438,0.84891 0.9382,1.09329 1.64285,1.66333c0.7309,0.59128 1.12076,1.25848 1.70984,1.89465c0.53296,0.57556 1.32169,0.97379 2.04733,1.48868c0.67157,0.4765 1.01743,1.25348 1.59998,2.04315c0.47067,0.638 1.21503,1.06921 1.83334,1.6875c0.61832,0.61829 1.13736,1.18924 1.16666,2.13333c0.02786,0.89825 0.39172,1.60046 0.97467,2.12534c0.58917,0.53049 1.59445,0.91019 1.90384,1.67468c0.3407,0.84183 0.60461,1.5072 1.03616,2.18533c0.49249,0.7739 0.45432,1.31287 1,2c0.5094,0.64145 0.08533,1.71466 0.08533,2.51465c0,0.90002 0,1.80002 0,2.70001c0,0.89999 0,1.79999 0,2.70001c0,0.89981 0,1.82532 0,2.60132c0,0.89868 0,1.79868 0,2.71951c0,0.96317 0,1.65381 0,2.72198c0,0.85718 0,1.75717 0,2.55716c0,0.90002 0,1.836 0,2.68402c0,0.86331 0,1.88 0,2.716c0,0.89999 0,1.79999 0,2.59998c0,0.90002 0,1.80002 0,2.76401c0,0.87201 0,1.73599 0,2.63602c0,0.89999 0,1.79999 0,2.59998c0,0.90002 0,1.80002 0,2.70001c0,0.89999 0,1.7955 0,2.78534c0,0.81467 -0.02539,1.71506 0,2.51465c0.02859,0.9014 0.56201,1.66837 0.94736,2.5c0.40399,0.87189 0.90439,1.46863 1.04816,2.40002c0.13181,0.85388 0.71619,1.19632 0.99384,1.91064c0.34583,0.88962 0.8201,1.29654 1.39999,1.82535c0.68509,0.62476 0.61066,1.664 0.61066,2.564c0,0.79999 -0.28592,1.77112 0.07202,2.60001c0.37424,0.86661 1.17096,1.14865 1.90717,1.87915c0.59268,0.58807 1.61893,0.8494 1.93549,1.72086c0.30865,0.8497 -0.29147,1.97998 0.25201,2.63333c0.57397,0.68997 1.48322,0.73877 1.80798,1.57733c0.3407,0.8797 0.41373,1.69336 1.224,2.41998c0.63177,0.56656 1.35452,1.03592 1.78052,1.66934c0.4697,0.69839 1.17053,1.08508 1.85416,1.66666c0.66602,0.56659 0.87912,1.23502 1.17117,2.12885c0.24991,0.76486 1.211,0.97235 1.7955,1.50583c0.7197,0.65686 1.55948,1.01178 2.29999,1.42017c0.6745,0.37198 1.28653,1.1889 2.09866,1.69449c0.73248,0.45599 1.21732,0.90765 1.74417,1.43668c0.51764,0.51978 1.20905,1.00757 1.85718,1.36334c0.79559,0.43674 1.48383,0.9639 2.116,1.56799c0.57596,0.55035 1.23199,1.0834 1.884,1.43201c0.84738,0.45306 1.67264,0.83713 2.49548,1.22684c0.68469,0.32428 0.31281,1.43616 0.98984,1.97183c0.6424,0.50827 1.66843,0.32745 2.41467,0.73267c0.76111,0.41327 1.7959,0.16956 2.49866,0.638c0.79532,0.53012 0.94214,1.55048 1.82217,1.69382c0.94543,0.15399 1.77802,0.00244 2.69385,0.02084c0.89655,0.01801 1.63107,0.5274 2.48532,0.91599c0.76309,0.34714 1.5,0.73135 2.29999,1.08401c0.80002,0.35266 1.59387,0.93912 2.5,1c0.79822,0.05362 1.70151,0.0545 2.5,0.5c0.797,0.44467 1.30685,1.1705 2.02084,1.47916c0.80722,0.34897 1.77917,0.02078 2.67917,0.02084c0.89999,0.00009 1.76517,0.2233 2.39999,0.57468c0.87994,0.48706 1.72116,0.42532 2.53867,0.42532c1.08286,0 1.96133,0 2.86133,0c0.80002,0 1.63602,0 2.65268,0c0.69467,0 1.71133,0 2.65182,0c0.86218,0 1.67468,0 2.64484,0c0.91202,0 1.56799,0 2.67599,0c0.85867,0 1.72202,0 2.61752,0c0.95715,0 1.85715,0 2.75714,0c0.80002,0 1.71469,0 2.54169,0c0.94232,0 1.80566,0 2.70566,0c0.91934,0 1.75266,0 2.73117,0c0.82016,0 1.7215,0 2.62149,0c0.87918,0 1.75717,0 2.70001,0c0.89999,0 1.85345,0.18137 2.69998,-0.16666c0.67108,-0.27591 1.44321,-0.71829 2.30002,-1.186c0.7453,-0.40686 1.50043,-0.61942 2.39999,-0.64734c0.94412,-0.0293 1.36078,-0.80624 2.29999,-1c0.78796,-0.16257 1.46863,-0.56143 2.30002,-0.94733c0.87201,-0.40475 1.43198,-0.93216 2.19998,-1.53183c0.64981,-0.50739 1.60684,-0.4101 2.5,-0.52084c0.89926,-0.11151 1.31393,-0.75854 2.19867,-1.00134c0.79358,-0.2178 1.14154,-0.9198 1.776,-1.42398c0.60898,-0.48392 1.42331,-0.5748 2.02533,-1.07468c0.61975,-0.51462 1.39444,-0.93451 2.19867,-1.41602c0.74362,-0.44522 1.18341,-1.10529 1.82669,-1.65866c0.65054,-0.55963 0.89212,-1.37408 1.58533,-1.98932c0.65839,-0.58435 1.26636,-1.15298 2,-1.42535c0.83423,-0.30969 1.78247,-0.3006 2.26801,-1.11047c0.43753,-0.72977 0.8605,-1.50784 1.55731,-1.86417c0.84982,-0.43457 1.26355,-0.61389 1.57468,-1.42535c0.28485,-0.74298 1.24823,-1.03189 2.08917,-1.48932c0.74753,-0.40662 1.19653,-1.17459 1.54749,-1.82135c0.44318,-0.81671 0.74469,-1.63406 1.15402,-2.18665c0.65735,-0.88739 0.99866,-1.54401 1.76266,-2.164l0.38333,-0.66818l0.10532,-0.74731" id="svg_7" stroke-width="2" stroke="#000" fill="none"/>
  <path t="39493,39620,39636,39676,39676,39685,39716,39780,39812,39821,39860,39869,39892,39908,39917,39925,39932,39948,39972,39988,40007,40028,40044,40053,40069,40100,40100,40116,40140,40164,40180,40192,40224,40234,40244,40244,40260,40270,40284,40300,40316,40316,40324,40332,40341,40358,40375,40375,40391,40396,40410,40412,40425,40428,40436,40454,40461,40477,40492,40492,40501,40517,40517,40525,40532,40556,40580,40580,40588,40607,40612,40623,40639,40644,40656,40660,40669,40676,40692,40692,40724,40733,40741,40757,40774,40780,40788,40812,40828,40852,40861,40876,40886,40893,40924,40924,40940,40956,40965,40980,40996,41008,41028,41052,41068,41084,41108,41124,41133,41156,41156,41172,41220,41244,41268,41292,41308,41308,41340,41356,41372,41396,41420,41429,41440,41492,41532,41556,41588,41597,41612,41628,41644,41660,41692,41701,41708,41708,41724,41748,41764,41773,41796,41812,41812,41836,41845,41876,41885,41892,41901,41908,41924,41941,41957,41964,41964,41973,41996,42007,42028,42044,42068,42077,42108,42132,42141,42157,42164,42173,42173,42180,42196,42212,42212,42221,42228,42239,42255,42256,42260,42272,42292,42292,42308,42317,42324,42334,42348,42372,42381,42388,42405,42405,42428,42428,42444,42456,42456,42460,42484,42493,42508,42524,42534,42541,42550,42557,42572,42590,42590,42609,42609,42613,42628,42640,42656,42684,42700,42700,42716,42725,42733,42740,42757,42764,42780,42796,42812,42822,42822,42828,42844,42856,42860,42873,42876,42876,42889,42893,42906,42916,42925,42940,42950,42957,42957,42964,42988,42988,43006,43012,43012,43036,43052,43061,43076,43089,43093,43108,43108,43124,43133,43156,43188,43198,43212,43244,43260,43260,43276,43300,43324,43340,43349,43366,43404,43414,43428,43460,43460,43476,43508,43532,43541,43564,43573,43596,43628,43644,43655,43672,43689,43708,43722,43748,43748,43764,43788,43798,43823,43868,43878,43892,43909,43909,43923,43932,43949,43958,43983,43996,44007" d="m376.51135,240.09091c1.83334,-0.16667 2.27008,-0.77368 3.10001,-1.22133c0.64764,-0.34933 1.32504,-0.94461 1.95267,-1.42601c0.71271,-0.54666 1.48898,-0.81842 2.24283,-1.29999c0.69989,-0.44711 1.22519,-1.04225 2.2045,-1.05267c0.89996,-0.00957 1.85016,0.07304 2.47467,-0.42534c0.60797,-0.48518 1.43588,-0.44176 2.32535,-0.57916c0.93008,-0.14368 1.52008,-0.9117 2.31067,-0.9955c0.88437,-0.09375 1.83643,0.09401 2.68933,-0.35266c0.7522,-0.39395 1.5,-0.64667 2.39999,-0.64734c0.89999,-0.00066 1.79999,0 2.70001,0c0.89548,0 1.8215,0 2.69998,0c0.89999,0 1.70001,0 2.60001,0c0.89999,0 1.79999,0 2.71066,0c0.91068,0 1.76401,0 2.70267,0c0.86133,0 1.68802,0 2.52267,0c1.01666,0 1.71133,0 2.728,0c0.936,0 1.8446,-0.12401 2.73584,0.00017c0.80188,0.11172 1.3259,0.81049 2.09882,1.28383c0.77029,0.47173 1.19162,1.03033 1.96802,1.54933c0.70651,0.47227 1.68353,0.18015 2.33331,0.6875c0.76804,0.59969 1.27142,1.31171 2.20001,1.47467c0.88736,0.15572 1.68344,0.47896 2.46667,1.0045c0.62772,0.4212 1.5246,0.8212 1.85416,1.52083c0.35913,0.76242 1.15543,1.16328 1.85785,1.7005c0.63846,0.48831 1.42136,0.61658 2.06866,1.13133c0.61911,0.49232 1.48401,0.91185 1.88599,1.64734c0.40207,0.73566 0.91138,1.53775 1.13068,2.39999c0.22098,0.86876 0.56238,1.40973 1.23465,1.88535c0.78027,0.55202 1.2182,1.26956 1.67984,1.93599c0.49609,0.71614 0.12149,1.77867 0.12149,2.58c0,0.89867 0.24207,1.64703 0.716,2.28267c0.57324,0.76883 0.26599,1.71617 0.284,2.61601c0.01801,0.90054 0.59061,1.61737 0.87851,2.39981c0.32233,0.87604 0.12149,1.70151 0.12149,2.60019c0,0.89999 0,1.79999 0,2.69998c0,0.89999 0,1.80002 0,2.70001c0,0.89999 -0.48471,1.89429 0.08536,2.61465c0.57538,0.72705 0.71054,1.1236 0.97183,1.98535c0.26831,0.88486 1.16162,1.31076 1.58566,2c0.50534,0.82138 0.46191,1.69919 1.00449,2.35266c0.49033,0.59055 0.81308,1.47092 1.30002,2.24283c0.44312,0.70242 0.89145,1.29623 1.06332,2.1405c0.18536,0.91052 0.5715,1.72568 1.21066,2.44266c0.53488,0.60001 0.36246,1.49094 0.86401,2.12c0.54755,0.68674 1.28265,0.85052 2.21466,1.00583c0.81747,0.13623 1.17145,0.94226 1.75266,1.63834c0.49353,0.59103 1.36987,1.04272 2.24734,1.30002c0.86545,0.25378 1.75082,0.358 2.39999,0.7045c0.84937,0.45334 1.8392,0.03146 2.72534,0.36331c0.70682,0.26471 1.28885,0.59079 2.13867,1.02536c0.69681,0.35632 1.36844,0.56992 2.15067,1.04932c0.72314,0.44321 1.1185,1.36841 1.80264,1.62933c0.93207,0.3555 1.86661,0.3028 2.48267,0.78534c0.64178,0.50269 1.7587,0.4509 1.99551,1.2045c0.25797,0.82086 0.70911,1.28265 1.60449,1.2955c0.87933,0.01263 1.31943,0.67554 1.836,1.39999c0.56006,0.78549 1.21738,1.39615 2.12802,1.58932c0.85358,0.18109 1.59323,0.61053 2.03598,1.16c0.63757,0.79126 1.2562,1.25027 1.68402,2.05069c0.45746,0.85583 0.82086,1.47662 1.51733,1.88397c0.82581,0.483 1.50244,1.21225 1.99866,1.716c0.68445,0.69485 0.90668,1.77188 1.63599,2.164c0.75784,0.40747 1.38541,0.70969 2.17468,1.02533c0.82623,0.33044 1.89258,0.24417 2.26782,1.11084c0.31561,0.72894 0.02411,1.74561 0.20685,2.41583c0.27805,1.01981 1.13345,1.49478 1.5575,2.18402c0.50534,0.82138 0.21484,1.81302 0.36783,2.69998c0.14349,0.83188 0.57758,1.66635 1.07468,2.31601c0.4892,0.63934 1.65598,0.82758 1.87866,1.68399c0.22781,0.8761 -0.03763,1.77176 0.05682,2.60001c0.11319,0.99237 0.77933,1.64835 0.95834,2.5c0.18518,0.88098 -0.10266,1.89587 0.44617,2.46399c0.48636,0.50348 0.94208,1.18402 1.29065,1.836c0.45306,0.84741 0.74442,1.7236 1.23135,2.49551c0.44312,0.70242 1.04224,1.22516 1.05264,2.10449c0.01065,0.89993 0,1.80002 0,2.70001c0,0.89999 0.1243,1.67743 0.57468,2.5c0.42728,0.7804 0.42532,1.69998 0.42532,2.60001c0,0.89999 0,1.79999 0,2.59998c0,0.90002 0,1.80002 0,2.67917c0,0.95685 0,1.82083 0,2.72086c0,0.89999 -0.0372,1.80084 0,2.59998c0.04272,0.91766 0.9379,1.41367 0.99869,2.08667c0.08444,0.93484 0.00131,1.94669 0.00131,2.75168c0,0.88251 0,1.86166 0,2.76166c0,0.89999 0,1.80002 0,2.70001c0,0.89999 0,1.69998 0,2.60001c0,0.89999 0,1.77914 0,2.65717c0,0.94281 0,1.84283 0,2.74283c0,0.89999 0,1.69998 0,2.60001c0,0.89999 0.00226,1.79999 0,2.69998c-0.00226,0.89551 -0.67514,1.34131 -1,1.95718c-0.39322,0.74548 0.18329,1.79709 -0.16666,2.64282c-0.32465,0.78464 -0.68091,1.51434 -0.84399,2.39999c-0.15311,0.83145 -0.56006,1.76221 -1.15601,2.43335c-0.5383,0.6062 -0.58194,1.38535 -1.11734,2.08264c-0.48288,0.62888 -0.64294,1.43417 -1.14133,2.05869c-0.4852,0.60797 -0.47922,1.46985 -0.85867,2.22534c-0.43558,0.86719 -0.51938,1.63452 -0.77316,2.5c-0.25729,0.87744 -0.73615,1.72278 -1.2955,2.24283c-0.53635,0.49869 -0.64734,1.25717 -0.64734,2.15717c0,0.89999 0,1.69998 0,2.60001c0,0.89999 0,1.79999 0,2.69998l0,0.89999l0,0.89868l0,0.88531" id="svg_8" stroke-width="2" stroke="#000" fill="none"/>
  <path t="46765,47172,47172,47188,47236,47260,47300,47556,47564,47596,47612,47612,47621,47628,47652,47661,47678,47684,47708,47732,47804,47812,47820,47844,47876,47884,47900,47908,47924,47948,47964,47980,48020,48029,48045,48045,48076,48084,48116,48132,48148,48157,48172,48188,48196,48204,48228,48244,48268,48276,48294,48308,48340,48340,48348,48356,48372,48380,48396,48420,48428,48444,48500,48516,48540,48548,48588,48620,48636,48668,48700,48724,48748,48748,48772,48820,48868,48892,48908,48916,48948,48972,48980,49004,49020,49060,49068,49092,49140,49164,49172,49212,49236,49276,49308,49316,49316,49326,49380,49396,49404,49428,49444,49460,49484,49508,49532,49548,49572,49572,49604,49652,49668,49708,49717,49748,49772,49780,49780,49796,49812,49844,49892,49908,49916,49940,49956,50004,50028,50068,50084,50100,50140,50173,50173,50188,50220,50252,50284,50284,50324,50404,50468,50517,50589,50629,50638,50638,50685,50757,50773,50805,50821,50837,50845,50861,50862" d="m415.51135,315.09091c-1,-1 -1.79999,-1 -2.71466,-1c-0.896,0 -1.78534,0 -2.68533,0c-0.89999,0 -1.97955,-0.2468 -2.54733,0.35718c-0.62112,0.66071 -1.00787,1.10431 -1.6955,1.6955c-0.65894,0.5665 -1.01889,1.42648 -1.74649,1.922c-0.6658,0.45343 -1.42499,1.0134 -1.60617,1.72983c-0.23007,0.9097 0.35416,1.89444 -0.02533,2.77466c-0.30795,0.71429 -0.97693,1.22534 -0.97919,2.12085c-0.00226,0.89999 0.24289,1.83481 -0.00449,2.6955c-0.2207,0.76788 -0.98508,1.22516 -0.99551,2.10449c-0.01062,0.89545 0,1.88535 0,2.70001c0,0.89999 0,1.69998 0,2.60001c0,0.89999 0,1.79999 0,2.69998c0,0.89999 -0.14874,1.88968 0.35269,2.54733c0.51608,0.67685 1.40134,0.99603 1.646,1.76868c0.28171,0.88965 0.56317,1.49039 1.22266,2.16266c0.60626,0.61804 0.53174,1.50107 1.13583,2.06866c0.6618,0.6218 1.52075,0.78592 2.12201,1.55267c0.50845,0.64841 0.87454,1.44614 1.52081,2c0.61166,0.5242 1.31094,1.11591 2.19867,1.41467c0.81342,0.27377 1.68234,0.17764 2.41202,0.66c0.73419,0.48535 1.73947,0.35226 2.36398,0.85065c0.60797,0.4852 1.42535,0.57468 2.32535,0.57468c0.89999,0 1.79999,0 2.69998,0c0.80002,0 1.71469,0 2.61069,0c0.88931,0 1.78934,0.00067 2.68933,0c0.89865,-0.00067 1.63644,-0.36212 2.19998,-1c0.51553,-0.5835 1.20453,-0.99774 2.14285,-1c0.87799,-0.00211 2.01498,0.17911 2.3465,-0.57468c0.3468,-0.78851 -0.18427,-1.74701 0.01199,-2.62399c0.1806,-0.80704 0.84967,-1.33621 1.00934,-2.20132c0.15344,-0.83139 0.8768,-1.5907 0.98801,-2.39999c0.11502,-0.83701 0.91757,-1.35431 1.00131,-2.20001c0.07895,-0.79742 0,-1.70001 0,-2.60001c0,-0.89999 0,-1.79999 0,-2.69998c0,-0.90002 0,-1.80002 0,-2.70001c0,-0.79999 0,-1.71466 0,-2.61066c0,-0.88934 0,-1.78934 0,-2.68933c0,-0.90002 0,-1.80002 0,-2.70001c0,-0.79999 0,-1.70001 0,-2.60001c0,-0.96399 0.23303,-1.86945 -0.00449,-2.6955c-0.22079,-0.76788 -0.80508,-1.35089 -1.43149,-2.09384c-0.53152,-0.63043 -1.28317,-0.80106 -1.78534,-1.48932c-0.51105,-0.70044 -1.25427,-1.01602 -2.07867,-1.474c-0.74231,-0.41235 -1.47708,-0.77081 -2.29999,-1.22202c-0.78015,-0.42773 -1.75006,-0.29367 -2.5,-0.64667c-0.77554,-0.36505 -1.49997,-0.77332 -2.46402,-0.77866c-0.87198,-0.00482 -1.73599,0 -2.63599,0c-0.89999,0 -1.80002,0 -2.60001,0c-0.89999,0 -1.79999,0 -2.70001,0c-0.89999,0 -1.79547,0 -2.78531,0l-0.81467,0l-0.90002,0l-0.75714,0.05716" id="svg_9" stroke-width="2" stroke="#000" fill="none"/>
  <path t="51877,52173,52173,52182,52190,52190,52197,52207,52213,52213,52221,52221,52237,52237,52245,52252,52261,52277,52285,52293,52309,52309,52317,52325,52341,52357,52381,52389,52389,52429,52437,52461,52468,52477,52485,52509,52525,52565,52581,52581,52628,53013,53037,53069,53077,53101,53109,53141,53172,53173,53205,53237,53317,53365,53389,53428,53445,53468,53469,53477,53485,53501,53509,53532,53532,53556,53573,53589,53613,53621,53638,53653,53685,53709,53733,53740,53765,53788,53789,53797,53829,53869,53869,53885,53901,53909,53916,53940,53989,54005,54077,54308,54324,54476,54477,54605,54621,54637,54645,54660,54685,54693,54716,54901" d="m473.51135,389.09091c-0.56799,1.28534 -1.42084,1.60605 -1.93866,2.39999c-0.47632,0.73029 -0.78711,1.48758 -1.56134,2.07916c-0.73834,0.56415 -1.57886,0.97928 -2,1.52084c-0.66748,0.85831 -1.35947,1.1207 -1.89999,1.86133c-0.45294,0.62064 -0.97662,1.52673 -1.79865,2.05466c-0.72928,0.46835 -1.23679,1.06537 -2.10135,1.08401c-0.89978,0.01941 -1.91394,0.11783 -2.34283,0.7045c-0.55521,0.75946 -1.03464,1.4006 -1.44116,2.09683c-0.48239,0.82617 -1.02179,1.53885 -1.91602,2.03201c-0.66318,0.36572 -1.21524,1.10577 -2.09998,1.16666c-0.89789,0.0618 -1.48398,0.16476 -1.98535,0.716c-0.51794,0.56946 -1.6156,0.33945 -2.41467,0.784c-0.80093,0.44562 -1.63834,0.88608 -2.29999,1.216c-0.84335,0.42056 -1.97165,0.22552 -2.19867,1c-0.25165,0.85852 0.09503,1.69025 0.646,2.33667c0.51517,0.6044 1.08173,1.24313 1.57419,2.04715c0.37958,0.61972 1.17447,1.09271 1.86249,1.61618c0.61362,0.46686 1.61606,0.2952 2.55884,0.284c0.87817,-0.01044 1.68124,-0.33191 2.35715,-1c0.58566,-0.57889 0.86203,-1.513 1.52084,-2c0.68597,-0.50708 1.20255,-1.1655 1.64584,-2c0.33673,-0.63391 1.33316,-0.98734 2.23334,-1c0.89539,-0.0126 1.34189,-0.4761 1.60449,-1.2955c0.24283,-0.75769 1.41113,-0.50287 1.99683,-0.98849c0.62125,-0.51514 1.32083,-0.51898 2.19733,-0.71735c0.8085,-0.18298 1.06042,-1.22229 1.60269,-1.79865c0.66766,-0.70966 1.4657,-0.96378 2.29865,-1.42151c0.67505,-0.37097 1.34216,-1.14438 1.77869,-1.87833c0.46552,-0.78271 1.40497,-0.59567 2.03598,-1.18417c0.56967,-0.53131 1.45361,-0.11423 2.07468,-0.75201c0.534,-0.54834 0.07248,-1.76959 1.01065,-1.96399c0.78781,-0.16324 1.69434,-0.43292 1.96402,-1.39999c0.24194,-0.86761 0.21655,-1.90067 -0.24802,-2.51602c-0.51578,-0.6832 -0.716,-1.38397 -0.71732,-2.28265l-0.35135,-0.74866" id="svg_10" stroke-width="2" stroke="#000" fill="none"/>
  <path t="56100,56252,56253,56269,56277,56285,56293,56309,56319,56325,56325,56341,56356,56356,56365,56373,56389,56396,56405,56413,56421,56437,56444,56444,56453,56469,56469,56485,56493,56501,56525,56525,56533,56541,56541,56549,56557,56565,56573,56581,56589,56596,56605,56612,56621,56628,56637,56637,56645,56653,56661,56669,56677,56685,56685,56693,56709,56718,56718,56725,56725,56725,56735,56741,56757,56757,56764,56772,56780,56790,56790,56796,56804,56812,56820,56820,56828,56836,56844,56852,56860,56876,56884,56884,56892,56901,56908,56917,56924,56933,56940,56940,56948,56957,56957,56964,56980,56989,56996,57004,57004,57012,57020,57028,57028,57036,57044,57052,57052,57060,57060,57076,57076,57085,57093,57093,57101,57101,57117,57117,57124,57134,57134,57141,57141,57148,57157,57165,57165,57173,57180,57180,57197,57197,57205,57212,57221,57221,57228,57245,57253,57261,57269,57277,57285,57293,57301,57317,57317,57324,57334,57350,57357,57373,57381,57397,57413,57421,57437,57445,57453,57469,57485,57485,57493,57508,57517,57534,57551,57551,57565,57565,57581,57581,57589,57596,57605,57613,57637,57661,57669,57709,57725,57725,57756,57772,57780" d="m376.51135,269.09091c1.16669,1 1.5451,1.69901 2.01068,2.42532c0.40732,0.63544 0.82092,1.20514 1.01016,2.07468c0.1842,0.84628 0.87024,1.59839 0.97916,2.5c0.0965,0.79871 0.56845,1.48849 1.09985,2.32132c0.41821,0.65543 0.81934,1.65222 0.90015,2.51202c0.07281,0.77472 0.43451,1.5611 0.91602,2.36533c0.44522,0.74362 0.9787,1.27692 1.43668,2.10132c0.41235,0.74231 0.65991,1.54999 1.16815,2.20001c0.60019,0.76761 1.30228,1.2731 1.47467,2.20001c0.17276,0.92889 0.8107,1.36075 1.00449,2.29999c0.16257,0.78793 0.54178,1.48032 1.19867,2.20001c0.53348,0.5845 0.78867,1.50009 0.80133,2.39999c0.01266,0.90015 0.29004,1.793 1.09985,2.27866c0.72964,0.43756 0.90015,1.22116 0.90015,2.06866c0,0.854 -0.03128,1.80835 0.436,2.45267c0.56641,0.78098 1.36057,1.2551 1.55334,2.20001c0.18002,0.88239 0.43195,1.65887 0.88934,2.49982c0.40668,0.74768 1.16922,1.20157 1.60049,1.90018c0.49265,0.79807 0.50177,1.66504 0.80615,2.48532c0.27655,0.7453 0.82483,1.70956 1.104,2.30402c0.33792,0.71957 0.43896,1.82001 0.6315,2.71066c0.18387,0.85062 0.70236,1.38336 0.95383,2.31467c0.25397,0.94055 0.83963,1.51645 1.24667,2.28534c0.40103,0.75751 0.75418,1.50027 0.77866,2.39999c0.02664,0.97968 0.79959,1.2009 1.43201,1.58398c0.78119,0.47321 0.61353,1.62259 1.06799,2.41602c0.40439,0.70599 0.32986,1.68069 0.78403,2.41733c0.47604,0.77209 0.77637,1.37183 1.29065,2.09735c0.48532,0.68469 0.90598,1.49652 1.37268,2.28082c0.39374,0.66168 1.41528,0.87262 1.88599,1.7045c0.36124,0.63846 0.70844,1.48032 1.36533,2.20001c0.53348,0.5845 0.63113,1.46347 0.82217,2.32083c0.18365,0.82431 1.30862,1.11203 1.8125,1.8125c0.4895,0.68048 0.62753,1.57108 1.1875,2.1875c0.58646,0.64557 1.52863,1.0144 1.90717,1.87915c0.36237,0.82779 0.5043,1.71567 1.09283,2.10001c0.7988,0.52164 1.56174,1.03555 2.2005,1.7215c0.51941,0.55777 0.73712,1.41541 0.78317,2.43118c0.03156,0.69592 0.36636,1.58533 0.79684,2.23132c0.61862,0.92831 0.99167,1.63681 1.49414,2.35883c0.53052,0.76233 0.83926,1.59885 1.55518,2.15717c0.55643,0.43396 1.23972,1.18857 1.85385,1.70984c0.64447,0.54703 0.98288,1.25058 1.59097,2.133c0.52701,0.76474 0.66272,1.5155 0.70901,2.40985c0.04483,0.86594 0.50827,1.66583 0.9115,2.54733c0.39529,0.86414 0.90112,1.24069 1.64801,1.78931c0.55405,0.40695 0.19312,1.44553 0.44049,2.30618c0.2207,0.76788 0.94174,1.25342 1.42084,2.10449c0.40903,0.72662 0.93628,1.36127 1.6745,1.8215c0.71716,0.44711 0.89148,1.39645 1.3255,2.1785c0.45453,0.81897 0.73901,1.56973 1.22198,2.3045c0.46753,0.71127 1.01447,1.33942 1.40533,2c0.46475,0.78546 0.91864,1.59415 0.94733,2.49551c0.02863,0.89935 0.38788,1.57736 1,2.13333c0.60773,0.552 0.62573,1.67596 1.05719,2.314c0.48334,0.71472 1.5563,0.84302 1.85883,1.83667c0.20367,0.66891 0.45712,1.58829 0.79999,2.39999c0.31186,0.73828 -0.14169,1.73965 0.32001,2.66934c0.35107,0.70697 0.53455,1.40048 1.02118,2.08948c0.51672,0.7316 0.53372,1.18372 1,2c0.46445,0.81308 0.94281,1.35718 1.02817,2.15717l0.41464,0.70001l0.47467,0.88934l0.52533,0.61066" id="svg_11" stroke-width="2" stroke="#000" fill="none"/>
  <path t="59485,59596,59613,59624,59630,59645,59645,59653,59660,59660,59676,59676,59685,59693,59701,59709,59717,59717,59738,59754,59757,59757,59765,59781,59798,59821,59821,59829,59829,59845,59853,59853,59860,59869,59869,59876,59892,59901,59901,59909,59917,59924,59924,59933,59941,59941,59949,59957,59965,59965,59973,59973,59981,59981,59989,59997,59997,60004,60004,60013,60020,60020,60028,60036,60037,60037,60044,60052,60053,60060,60068,60068,60076,60076,60076,60084,60092,60100,60100,60108,60120,60120,60124,60134,60134,60140,60140,60151,60151,60156,60164,60164,60173,60173,60181,60188,60198,60198,60214,60214,60214,60221,60221,60228,60236,60236,60245,60245,60255,60255,60269,60269,60288,60288,60293,60293,60302,60309,60318,60318,60325,60337,60341,60354,60354,60357,60365,60373,60381,60389,60398,60398,60405,60429,60429,60429,60437,60445,60455,60455,60470,60477,60487,60501,60520,60525,60541,60573,60588,60597,60597,60613,60620,60637,60637,60645,60653,60661,60669,60692,60701,60717,60733,60733,60741,60772,60796,60796,60805,60820,60845,60861,60877,60932,60941" d="m385.51135,271.09091c0,1.79999 -0.00601,2.70004 0,3.60001c0.00534,0.80005 0.44055,1.65805 0.716,2.28534c0.39197,0.89264 0.37201,1.99783 0.80484,2.59381c0.58145,0.80063 1.31171,1.29224 1.47467,2.22086c0.1557,0.88736 0.37039,1.80936 1.2045,2.21597c0.75357,0.36734 1.45734,0.64127 2.09549,1.384c0.64511,0.75082 0.7045,1.70001 0.7045,2.5c0,0.90002 -0.07568,1.86642 0.436,2.60001c0.4711,0.67538 1.19232,1.21619 1.664,1.92117c0.5329,0.79645 1.14587,1.41635 1.89999,1.84549c0.64874,0.36917 1.44128,1.0452 1.87869,1.93335c0.3223,0.65442 0.86832,1.43793 1.08533,2.31067c0.21988,0.88428 -0.04626,1.79727 0.46133,2.52798c0.47522,0.68411 0.87646,1.53812 1.14932,2.23599c0.36398,0.93097 0.39993,1.82574 0.42532,2.62534c0.02859,0.9014 0.59677,1.68185 0.87885,2.52133c0.22083,0.65726 0.50278,1.74219 1.142,2.13702c0.8898,0.54959 1.83325,0.40326 2.45834,1.08331c0.5929,0.64505 0.42471,1.72882 0.9635,2.43683c0.56564,0.74332 1.30826,1.25992 1.724,2.02151c0.40686,0.74533 0.76871,1.57208 1.27615,2.32132c0.49991,0.7381 1.11758,1.15433 1.7955,1.92151c0.63766,0.72162 0.57925,1.59344 0.83368,2.39316c0.29819,0.93726 1.04803,1.31311 1.59467,2.36401c0.29156,0.56055 0.56998,1.32126 1.04932,2.168c0.44281,0.78226 0.46054,1.6601 0.85867,2.42133c0.42117,0.80527 1.02661,1.56622 1.57468,2.01068c0.78909,0.63992 0.79956,1.61023 0.936,2.37067c0.14496,0.80783 0.3909,1.82495 0.91464,2.52933c0.52502,0.70612 0.82852,1.40204 1.16669,2.33334c0.2514,0.69232 1.16418,1.2746 1.548,1.96664c0.45728,0.82449 0.26413,1.85492 0.57065,2.68533c0.27527,0.74579 0.71469,1.51468 1.11469,2.31467c0.40002,0.80002 0.7157,1.65027 1.19998,2.328c0.60358,0.84467 1.39111,1.2121 1.89999,1.87201c0.59,0.76514 1.42429,0.99323 2.14819,1.36166c0.83978,0.4274 1.23291,1.29749 1.39999,2.04285c0.22375,0.99826 0.59546,1.77707 0.83051,2.79517c0.17282,0.74863 0.67636,1.40991 1.06415,2.16199c0.44049,0.85434 -0.13754,1.72824 0.40985,2.5285c0.46719,0.68301 1.14783,1.32864 1.48065,2.10983c0.32019,0.75153 0.15625,1.70007 0.16666,2.60001c0.01044,0.90018 0.46597,1.63608 0.87869,2.5c0.40732,0.85266 0.71286,1.49243 1.10049,2.37915c0.37039,0.84726 0.93817,1.32864 1.45282,2.03818c0.57614,0.79431 0.37912,1.75198 0.78952,2.58267c0.34116,0.69058 1.34653,1.20444 1.65698,2c0.33014,0.84604 0.43915,1.64658 1.03751,2.18399c0.63846,0.57343 0.91907,1.23209 1.09467,2.15201c0.15213,0.79706 0.73157,1.59848 1.07333,2.36398c0.33197,0.74353 0.73297,1.681 1.20132,2.39868c0.3988,0.61111 1.56824,0.84491 1.71335,1.60266c0.16904,0.88263 0.29977,1.51633 0.87982,2.19882c0.47058,0.55371 0.65656,1.48645 1.22134,2.09985c0.63107,0.68539 0.81619,1.56635 1.33615,2.29999c0.55783,0.78711 1.05365,1.39056 1.564,2.07916c0.51495,0.69482 0.99551,1.22534 1,2.16367l0,0.93185l0,0.86133l0.01068,0.95334" id="svg_12" stroke-width="2" stroke="#000" fill="none"/>
  <path t="62300,62412,62421,62421,62429,62429,62437,62446,62453,62461,62461,62469,62469,62469,62478,62484,62484,62495,62501,62509,62509,62517,62525,62534,62541,62541,62549,62549,62556,62573,62573,62581,62581,62588,62597,62597,62605,62613,62621,62621,62629,62637,62637,62645,62645,62653,62653,62661,62661,62661,62669,62669,62677,62677,62685,62685,62694,62701,62701,62708,62708,62716,62724,62724,62732,62740,62740,62748,62748,62756,62756,62765,62772,62772,62780,62788,62796,62796,62804,62804,62812,62812,62820,62820,62828,62828,62836,62844,62852,62860,62860,62868,62868,62877,62884,62894,62894,62900,62900,62908,62917,62917,62924,62933,62949,62950,62950,62957,62957,62965,62972,62981,62981,62989,63005,63005,63021,63021,63029,63037,63045,63045,63052,63052,63061,63069,63077,63085,63094,63101,63111,63117,63117,63125,63133,63133,63149,63157,63157,63165,63172,63181,63188,63197,63205,63212,63220,63221,63236,63244,63260,63260,63284,63285,63293,63300,63324,63348,63357,63357,63372,63372,63396,63420,63429,63429,63452,63460,63500,63540,63556,63588,63596,63604,63620,63652,63700,63700,63716" d="m389.51135,265.09091c0.05719,1.75717 0.32004,2.67252 0.70453,3.34732c0.45184,0.793 0.94308,1.47943 1.34814,2.35269c0.38568,0.83148 0.91873,1.60306 0.94733,2.46664c0.02826,0.85373 -0.03513,1.83459 0.01068,2.62268c0.04233,0.72794 0.49948,1.69998 1.08932,2.31067c0.58951,0.61032 1.3996,1.23465 1.77869,2c0.41943,0.84677 0.82874,1.30942 1.60049,1.89999c0.65063,0.49786 1.06271,1.35855 1.35416,2.16666c0.28833,0.79944 0.43286,1.78702 0.814,2.52884c0.40143,0.78131 0.7001,1.62219 1.23935,2.18985c0.74237,0.78146 1.4819,1.08328 1.94266,1.94666c0.42145,0.78973 0.19397,1.71295 0.59601,2.53201c0.42712,0.87018 0.69943,1.67029 1.27917,2.336c0.55307,0.63507 1.09351,1.43442 1.4053,2.05716c0.4826,0.96387 1.07281,1.42014 1.72351,2.07617c0.66394,0.66937 1.34186,1.32504 1.81485,1.81934c0.65396,0.68341 1.16782,1.46829 1.43448,2.23132c0.33502,0.95859 0.72543,1.71399 1.116,2.51465c0.37183,0.76224 0.66565,1.72232 0.80133,2.60135c0.12479,0.80841 0.93155,1.30252 1.43201,1.79999c0.72272,0.71838 0.86896,1.67715 1.14267,2.37466c0.36551,0.93137 0.78726,1.79068 1.42532,2.34619c0.70004,0.6095 0.80389,1.34479 1.16669,2.3125c0.30154,0.80438 0.67715,1.63074 1.11865,2.36667c0.4071,0.67862 1.20779,1.29193 1.6665,2.09998c0.39359,0.6933 1.26071,1.00217 1.80518,1.80017c0.4628,0.67831 0.11182,1.77692 0.41367,2.41583c0.46786,0.99036 1.38019,1.30832 1.71948,2.13217c0.30685,0.74512 1.02774,1.29266 1.58902,1.87268c0.63211,0.6532 0.82382,1.6676 1.22534,2.23633c0.6188,0.8765 1.05862,1.5585 1.23831,2.48566c0.18246,0.94138 -0.14185,1.93884 0.22784,2.55716c0.46902,0.78442 1.37509,1.03183 1.76801,2.01468c0.32739,0.81894 0.9397,1.29391 1.45065,2.03601c0.58441,0.84879 0.94891,1.64609 1.31601,2.21182c0.45007,0.6936 0.92798,1.61758 1.30933,2.51617c0.31122,0.73328 0.73807,1.57187 1.15201,2.42133c0.31784,0.65225 0.67737,1.54434 1.11865,2.28665c0.40439,0.68027 1.06143,1.34268 1.35751,2.06067c0.40387,0.97931 0.90375,1.51645 1.55716,2.22202c0.49905,0.53888 0.99432,1.34656 1.44284,2.12616c0.43484,0.75583 0.40439,1.66321 0.93182,2.32983c0.51532,0.65131 1.0881,1.40103 1.34,2.17468c0.27988,0.85962 0.21188,1.83188 0.69601,2.39999c0.63516,0.74533 1.17917,1.53244 1.47333,2.19998c0.3399,0.7713 0.98022,1.54428 1.41599,2.17917c0.55594,0.80997 1.32715,1.37277 1.85269,1.96817c0.56323,0.63812 1.26215,1.05145 1.69998,1.75717c0.42361,0.68277 0.97128,1.44849 1.42651,2.27466c0.42209,0.76599 0.98892,1.42624 1.62067,2.121c0.57343,0.63065 0.86404,1.55124 0.89566,2.24716c0.04565,1.0051 0.72964,1.46967 1.00449,2.08868c0.35242,0.79379 0.11737,1.75339 0.52084,2.564c0.42834,0.86057 1.15283,1.39651 1.422,2.29999c0.25751,0.86438 0.29214,1.65771 0.7045,2.40002c0.45798,0.8244 1.12473,0.86972 1.92734,1.336c0.68301,0.39679 0.42264,1.58401 0.85068,2.36398c0.45096,0.82175 1.02264,1.35043 1.54932,2.03601c0.50217,0.65366 0.85867,1.564 1.02402,2.36398l0.00131,0.91467" id="svg_13" stroke-width="2" stroke="#000" fill="none"/>
  <path t="66284,66339,66372,66388,66396,66404,66436,66452,66476,66476,66484,66500,66508,66524,66548,66556,66572,66596,66612,66620,66635,66636,66660,66675,66700,66723,66732,66756,66779,66804,66804,66812,66844" d="m308.51135,120.09091c0.28403,0.91467 1,1.2215 1,2.1c0,0.9 0.44617,1.44758 0.91467,2.18533c0.43912,0.69147 0.08533,1.71467 0.08533,2.51466c0,0.9 0.29221,1.53884 0.83334,2.2c0.45853,0.56023 0.16666,1.60001 0.16666,2.5c0,0.89999 -0.00009,1.8 0,2.7c0.00009,0.90001 0.22061,1.76669 0.57468,2.40001c0.48151,0.86127 0.42465,1.79999 0.42532,2.7c0.00067,0.89867 0.61252,1.33282 1,1.92149c0.483,0.73381 0,1.7785 0,2.57851l0.08536,0.91466l0.74799,0.45201" id="svg_14" stroke-width="2" stroke="#000" fill="none"/>
  <path t="67764,67891,67900,67916,67916,67924,67932,67948,67964,67964,67973,67989,67989,67996,68013,68029,68061,68061,68069,68069,68093,68101,68101,68132,68149,68157,68165,68181,68189,68197,68213,68222,68245,68253,68261,68269,68277,68285,68308,68317,68333,68373,68373,68397,68405,68422,68429,68453,68453,68476,68485,68501,68525,68549,68564,68565,68573,68581,68589,68612,68621,68629,68645,68661,68677,68693,68749,68764,68765,68781,68828,68837,68861,68877,68892,68933" d="m310.51135,122.09091c0.87851,1.2215 1,2.1 1,3c0,0.8 -0.18613,1.7271 0.03601,2.6c0.22293,0.87606 0.98383,1.55517 1.35333,2.21467c0.46964,0.83815 0.40698,1.79947 0.66785,2.48c0.32504,0.84799 1.54367,1.03305 1.85748,1.90668c0.32761,0.91203 0.03662,1.62517 0.08533,2.63199c0.04272,0.8831 0.91626,1.32098 1,2.16667c0.07883,0.79611 -0.32358,1.9256 0.05719,2.64734c0.39221,0.74342 0.73499,1.45616 1.22684,2.18333c0.51062,0.75491 1.44159,1.04323 1.70532,1.78c0.29974,0.83736 0.07761,1.73288 0.58533,2.41466c0.4772,0.64081 0.07101,1.65846 0.44617,2.45384c0.33267,0.70534 1.38544,0.6172 2.03183,1.16817c0.6044,0.51517 0.94733,1.35266 0.94733,2.15266c0,0.89999 0,1.8 0,2.7c0,0.88933 0.34799,1.63391 0.716,2.30133c0.45444,0.82414 0.45395,1.60306 1,2.19734c0.49588,0.5397 1.15546,1.16127 1.284,2.00133c0.1217,0.79529 0.74472,1.53775 0.96402,2.39999c0.22098,0.86876 0.69949,1.40994 1.01517,2.12083c0.38931,0.87669 0.48465,1.6082 1.07349,2.12651c0.65057,0.57266 1.6041,0.87802 1.94867,1.638c0.39532,0.8719 0.48071,1.65173 1.05133,2.3575c0.59109,0.73108 0.94733,1.35716 0.94733,2.27316l0,0.7885l0,0.89551l0,0.89999" id="svg_15" stroke-width="2" stroke="#000" fill="none"/>
  <path t="70028,70113,70113,70117,70117,70117,70125,70141,70149,70149,70157,70158,70173,70189,70189,70197,70208,70221,70229,70229,70238,70253,70261,70261,70270,70277,70301,70310,70318,70325,70333,70334,70349,70365,70381,70381,70397,70413,70429,70429,70445,70445,70461,70461,70471,70486,70493,70503,70509,70509,70517,70533,70541,70564,70573,70581,70589,70589,70597,70613,70644,70644,70653,70669,70685,70702,70718,70718,70724,70725,70741,70748,70748,70757,70757,70765,70781,70812,70813,70821,70837,70853,70861,70884,70893,70908,70919,70919,70933,70965,70980,70989,71020,71037,71052,71052,71068,71077,71092,71092,71109,71118,71141,71148,71157,71173,71189,71196,71212,71228,71244,71260,71284,71285,71292,71293,71301,71318,71334,71349,71357,71380,71380,71388,71396,71420,71428,71436,71452,71453,71468,71476,71500,71516,71532,71541,71557,71564,71573,71588,71596,71612,71620,71644,71660,71668,71684,71701,71701,71708,71724,71748,71748,71764,71773,71790,71806,71806,71823,71844,71845,71856,71873,71876,71890,71901,71901,71909,71918,71941,71942,71965,71981,71997,72013,72023,72028,72040,72045,72056,72061,72073,72100,72100,72109,72132,72149,72157,72173,72196,72221,72221,72229,72239,72245,72268,72277,72324,72396" d="m313.51135,120.09091c0,1.71883 0,2.46616 0,3.42117c0,0.7935 -0.15909,1.58147 0.00134,2.60683c0.14432,0.92236 1.07465,1.25819 1.47784,1.99283c0.49927,0.90965 0.47879,1.73692 1.02081,2.45834c0.57526,0.76564 1.33624,1.29068 1.48935,2.12083c0.16333,0.8856 0.36377,1.70375 1.01065,2.39999c0.56052,0.60329 0.8494,1.41254 1.00452,2.3c0.16226,0.92833 0.84741,1.4686 0.991,2.39999c0.14365,0.93184 0.41638,1.61861 0.88318,2.39984c0.46741,0.78226 0.9686,1.30455 1.40533,2.10016c0.35577,0.64812 0.59912,1.51167 0.75198,2.436c0.14417,0.87167 0.66364,1.50247 0.87866,2.47867c0.21277,0.96588 0.24866,1.8877 0.69601,2.52133c0.48569,0.68791 0.84122,1.39516 1.48917,2.3425c0.43311,0.63322 0.88147,1.42097 0.90015,2.3215c0.01862,0.89847 0.44196,1.4856 1.19867,1.98534c0.60895,0.40215 0.38657,1.53896 0.85852,2.3575c0.39606,0.68687 0.60571,1.50609 1.1095,2.19049c0.48074,0.65309 1.02643,1.29071 1.53784,1.86667c0.65021,0.73225 1.23459,1.39389 1.29547,2.3c0.05362,0.7982 0,1.71466 0,2.61067c0,0.8685 0.42621,1.58513 0.83334,2.38933c0.35605,0.70331 0.55185,1.63976 0.814,2.34734c0.37457,1.01106 0.47003,1.84207 0.8735,2.65266c0.42834,0.86055 0.91812,1.5036 1.42651,2.2955c0.44397,0.69156 1.37375,0.85394 1.76865,1.50583c0.51019,0.84221 1.03586,1.51164 1.56802,2.11467c0.56644,0.64183 0.51892,1.40617 0.71732,2.28267c0.18298,0.80847 1.336,0.97806 1.71335,1.60266c0.49457,0.81866 -0.07388,1.89662 0.30615,2.67784c0.35513,0.73004 1.45139,0.80641 1.85785,1.62083c0.42197,0.84549 0.76865,1.59999 1.12131,2.39999c0.35269,0.8 0.77039,1.64139 1.08401,2.3c0.39896,0.8378 1.62079,1.06755 1.90533,1.81067c0.31821,0.83104 0.55081,1.55447 0.97467,2.364c0.40924,0.7816 0.80569,1.33087 1.38867,1.97266c0.52625,0.57932 0.53085,1.46083 0.65182,2.35268c0.11142,0.82149 0.7587,1.42694 0.93832,2.35266c0.16479,0.8493 -0.13904,1.8479 0.05716,2.73666c0.14545,0.65883 0.8548,1.05879 1.00452,1.91068c0.16315,0.92818 0.84732,1.46861 0.991,2.39999c0.13721,0.8895 0.00223,1.8 0.00449,2.7c0.00226,0.90002 0.38608,1.73837 0.716,2.40001c0.42053,0.84337 0.31668,1.73062 0.784,2.22083c0.52884,0.55472 0.1333,1.55888 0.52084,2.45834c0.3078,0.71434 0.96631,1.2254 0.97916,2.12083c0.01263,0.87932 0.79263,1.39391 0.99551,2.10449c0.25818,0.90424 0.83783,1.46217 1.00449,2.2955c0.16669,0.83333 0.99466,1.03595 1,2c0.00443,0.79999 -0.0773,1.66754 0.436,2.39999c0.55368,0.79004 1.19821,1.30391 1.564,2.10001c0.41559,0.90454 0.89108,1.5984 1,2.5c0.0965,0.79874 0.59836,1.54152 1.22134,2.2215c0.51486,0.56197 0.75961,1.47868 0.77866,2.37851c0.02042,0.96445 0.7215,1.36145 1.2955,2.10983c0.44424,0.57919 0.58725,1.66177 0.70584,2.49016c0.13129,0.91716 0.80273,1.45616 0.99417,2.44284c0.16333,0.84184 0.80438,1.35574 1.00317,2.15849c0.1922,0.77611 0.41956,1.61472 1.19998,2.11467c0.72845,0.46666 0.80133,1.38399 0.80133,2.28267c0,0.854 -0.0271,1.80179 0,2.60132c0.02863,0.8443 0.67334,1.48102 1.22134,2.07867c0.58508,0.63812 0.77866,1.32135 0.77866,2.22134c0,0.89999 0,1.69998 0,2.60001c0,0.89999 0.03601,1.86398 0.64734,2.35266l0.35135,0.74866l0.08667,0.91333l0.83066,0.28534" id="svg_16" stroke-width="2" stroke="#000" fill="none"/>
  <path t="73508,73588,73597,73605,73613,73613,73622,73622,73629,73629,73637,73645,73653,73653,73669,73669,73677,73685,73693,73693,73701,73701,73709,73717,73733,73741,73741,73749,73765,73782,73782,73789,73821,73829,73845,73853,73861,73869,73885,73901,73909,73933,73949,73957,73965,73989,74013,74029,74029,74037,74045,74061,74069,74077,74085,74108,74125,74133,74141,74150,74157,74157,74173,74181,74188,74198,74205,74214,74221,74237,74244,74252,74253,74260,74268,74276,74292,74300,74308,74308,74325,74332,74348,74365,74373,74381,74388,74398,74404,74415,74421,74429,74445,74453,74461,74476,74492,74508,74509,74516,74516,74524,74532,74556,74572,74581,74581,74597,74628,74644,74653,74668,74676,74685,74692,74716,74724,74740,74756,74764,74772,74781,74797,74804,74821,74830,74836,74836,74844,74853,74868,74869,74876,74876,74884,74892,74900,74908,74916,74924,74940,74948,74949,74956,74973,74980,74988,74997,75013,75020,75036,75044,75044,75068,75077,75092,75092,75108,75116,75132,75148,75149,75156,75170,75172,75196,75212,75222,75232,75241,75253,75261,75271,75277,75287,75293,75309,75322,75326,75338,75357,75373,75373,75385,75390,75413,75423,75439,75453,75461,75477,75493,75525,75565,75581,75613,75684,75709,75757,75868" d="m315.51135,118.09091c0.05719,1.7 0.52213,2.47705 1.30002,2.95184c0.80118,0.48899 1.26517,1.0623 1.53333,2.04816c0.21048,0.77377 0.32745,1.83641 0.66666,2.47916c0.4353,0.82485 0.32941,1.78135 0.72153,2.62099c0.34506,0.73885 1.02261,1.36163 1.3425,2.07451c0.41074,0.91534 0.40207,1.92598 0.43597,2.82533c0.02863,0.75879 0.38156,1.64111 0.64734,2.34734c0.33215,0.88255 0.27054,1.85643 0.35284,2.75267c0.08368,0.91144 0.60538,1.48643 0.979,2.37917c0.33276,0.79506 0.8981,1.51299 1.0195,2.32083c0.13651,0.90855 0.81412,1.37103 1.00131,2.2c0.19958,0.88387 0.95718,1.28236 1,2.2c0.04193,0.89886 0.54669,1.47035 0.94284,2.15717c0.46985,0.81458 0.72324,1.45164 1.03635,2.16367c0.34985,0.79555 0.5946,1.42276 1.04617,2.08984c0.49878,0.7368 1.18301,1.40663 1.61749,2.08932c0.46594,0.73213 0.44662,1.71738 0.93182,2.32533c0.49838,0.6245 0.64487,1.3613 1.14133,2.05867c0.5246,0.73691 -0.04883,1.74544 0.45068,2.58267c0.4624,0.77505 0.62268,1.49945 1,2.33333c0.2959,0.65396 1.53781,0.86768 1.82266,1.61067c0.3111,0.81148 0.77008,1.33052 1.00616,2.09383c0.26489,0.8564 0.42206,1.71259 1.20316,2.2115c0.73236,0.46779 1.16077,1.23634 1.51733,1.884c0.47549,0.86368 1.23846,1.11247 1.84802,1.81067c0.58197,0.66658 0.30432,1.7394 0.65732,2.48933c0.36502,0.77553 0.42804,1.67432 0.77866,2.46399c0.27484,0.619 0.99466,1.04663 1,1.936c0.0054,0.89998 -0.05185,1.83386 0.42535,2.47467c0.50772,0.68178 0.28558,1.5773 0.58533,2.41466c0.26373,0.73674 0.59167,1.3244 1.02533,2.17467c0.33484,0.65648 1.49408,0.79225 1.88,1.63734c0.41431,0.90723 0.57257,1.60066 0.91733,2.63199c0.23624,0.70673 1.008,1.04529 1.64584,1.6875c0.63895,0.64331 0.36731,1.72763 0.6875,2.47917c0.33282,0.78119 0.53802,1.54535 0.83331,2.47917c0.19077,0.6033 0.98737,1.0415 1,1.92082c0.01285,0.89543 0.67056,1.40686 0.97919,2.12083c0.34894,0.80722 0.03149,1.8685 0.52081,2.47917c0.48935,0.61067 0.20239,1.55508 0.51068,2.38933c0.27582,0.7464 1.24826,1.03186 2.08917,1.48933c0.74734,0.40657 0.90015,1.22134 0.90015,2.12134c0,0.8 0.19684,1.65146 1,2.02083c0.78754,0.36218 0.88712,1.21143 1.28403,2.09384c0.33185,0.73778 0.70331,1.5854 0.71597,2.48534c0.01266,0.90015 0.19464,1.88934 0.97467,2.364c0.65744,0.40005 1.01492,1.05666 1.02533,2.0145c0.00891,0.82011 0.0545,1.72299 0.5,2.5215c0.44467,0.79701 1.03845,1.37625 1.5,2.02083c0.49664,0.69357 1.28995,1.08624 1.87869,1.70067c0.65228,0.68076 0.89233,1.44296 1.474,2.13567c0.58533,0.69705 0.86792,1.60953 1.22198,2.24284c0.48151,0.86127 0.3299,1.84453 0.70935,2.59999c0.43558,0.86719 0.69693,1.50018 0.71597,2.40001c0.02042,0.96445 0.7897,1.4055 1,2.27866c0.19382,0.80481 0.68552,1.54391 0.94284,2.42134c0.25345,0.86417 0.3717,1.45634 1.25583,1.70132c0.79492,0.22026 0.65155,1.21126 0.80151,2.09851c0.14401,0.85202 0.97122,1.25603 0.99982,2.20016c0.02719,0.89825 0.28656,1.37219 0.91602,1.98534c0.62323,0.60706 0.70184,1.42763 1.10934,2.31467c0.37338,0.81274 0.80792,1.61148 0.97482,2.49982c0.14951,0.79572 0.90567,1.28705 1.42517,1.87485c0.51511,0.58282 0.57397,1.52533 0.57465,2.41467c0.00067,0.89465 0.67056,1.41751 0.97919,2.1315c0.34894,0.80722 0.02081,1.77914 0.02081,2.67917l0,0.89981" id="svg_17" stroke-width="2" stroke="#000" fill="none"/>
  <path t="78492,78684,78764,78780,78796,78844,78852,79124,79140,79148,79396,79404,79428,79452,79468,79532,79532,79556,79565,79572" d="m311.51135,80.09091c1.83334,0 2.61075,0.01172 3.60001,0c0.87936,-0.01042 1.01392,-0.71124 1.42084,-1.47916c0.36368,-0.68634 0.99475,0.28064 0.97916,1.12199c-0.01727,0.93237 -0.7045,1.35492 -1.59998,1.35717c-0.90002,0.00226 -1.85898,-0.1787 -2.62152,0.22133c-0.67493,0.35406 -1.47849,0.77417 -2.42133,0.83584l-0.44116,0.65883" id="svg_18" stroke-width="2" stroke="#000" fill="none"/>
  <path t="80060,80204,80228,80476,80500,80652,80662,80684" d="m313.51135,90.09091c1.80002,0 2.81436,-0.39507 3.56403,0.036c0.69965,0.4023 0.39999,1.53867 -0.26852,1.9595l-0.89548,0.0045" id="svg_19" stroke-width="2" stroke="#000" fill="none"/>
  <path t="81316,81444,81452,81476,81507,81524,81699,81715,81731,81739,81763,81948,81980,82115,82140,82164,82180" d="m319.51135,101.09091c1.80002,0 2.64288,0.00584 3.57468,0c0.85074,-0.00533 1.4306,-1.20755 2.14133,-0.91334c0.80997,0.33529 0.284,1.61784 0.284,2.51334c0,0.9 0.11847,2.11265 -0.61066,2.38934c-0.81207,0.30816 -1.74649,0.01067 -2.68933,0.01067l-0.89999,0" id="svg_20" stroke-width="2" stroke="#000" fill="none"/>
  <path t="83124,83316,83332,83332,83380,83580,83596,83603,83612,83612,83627,83651,83651,83820,83820,83851,83851,83860,83876,83892,83916,83924,83971" d="m282.51135,93.09091c-1.75714,0 -2.65265,0 -3.51599,0c-0.96317,0 -2.1391,-0.1885 -2.46317,0.52084c-0.36536,0.79966 0.44995,1.54164 1.12851,2.07916c0.71155,0.56364 0.85065,1.56667 0.85065,2.4c0,0.83334 0.05252,1.855 1,2c0.7908,0.12103 1.38718,-0.3145 2.16669,-0.83334c0.70743,-0.47086 1.71201,-0.16683 2.35416,-0.66666l0.77917,-0.44283" id="svg_21" stroke-width="2" stroke="#000" fill="none"/>
  <path t="84428,84564,84621,84717,84877,84885,84902,84909,84932,85077,85093,85117,85157,85196,85197" d="m286.51135,104.09091c-1.69998,0.9955 -2.64285,0.99461 -3.52081,1c-0.86856,0.00533 -1.46875,0.52067 -1.47919,1.5c-0.00958,0.89995 -0.168,1.81609 0.00134,2.69867c0.14514,0.75646 1.19733,0.80133 2.08267,0.80133l0.91599,-0.16666l0.60001,-0.408" id="svg_22" stroke-width="2" stroke="#000" fill="none"/>
  <path t="86230,86469,86510,86526,86535,86589,86621,86653,86662,86678,86805,86829,86829,86853,86869,86949" d="m290.51135,114.09091c-1.69998,0.05717 -2.45245,0.53761 -2.94733,1.2955c-0.45404,0.6954 -1.04733,1.31512 -1.05267,2.2045c-0.0054,0.89999 -0.04773,1.80126 0,2.69867c0.04272,0.8034 1,0.80133 1.80002,0.80133l0.89999,0l0.89999,0l0.89999,0" id="svg_23" stroke-width="2" stroke="#000" fill="none"/>
  <path t="87686,87733,87741,87741,87741,87750,87750,87750,87757,87757,87767,87767,87774,87774,87783,87783,87790,87790,87790,87797,87805,87813,87813,87821,87829,87829,87837" d="m292.51135,92.09091c0.01068,3.33867 0.23801,4.31543 0.5,5.04166c0.2308,0.63985 0.41602,1.64233 0.5,2.45834c0.08401,0.816 0.35495,2.03752 0.57468,2.65334c0.34354,0.96275 0.41122,1.81614 0.42667,2.61466c0.01898,0.98176 0.16534,1.89867 0.49866,2.732c0.33334,0.83334 0.46652,1.73989 0.49551,2.4375c0.04431,1.06635 0.67755,1.67552 0.9205,2.5465c0.23486,0.84194 0.43668,1.75883 0.91733,2.516l0.25067,0.8l0.41599,0.7" id="svg_24" stroke-width="2" stroke="#000" fill="none"/>
  <path t="88750,88813,88821,88822,88829,88829,88838,88838,88845,88845,88854,88854,88854,88861,88861,88869,88869,88877,88877,88885,88885,88893,88901,88901,88909,88909,88917,88917,88925,88925,88933,88957" d="m305.51135,86.09091c0.11435,1.7 0.82135,2.18356 1.43201,2.88533c0.5892,0.67712 0.55893,1.53449 0.85202,2.51467c0.24384,0.81548 0.58881,1.80091 0.71597,2.6c0.15933,1.0012 0.38916,1.5875 0.64734,2.4c0.3136,0.98684 0.28799,1.82196 0.57419,2.79967c0.22913,0.78273 0.95694,1.44647 1.57849,1.96833c0.6969,0.58511 0.92419,1.34663 1.19998,2.332c0.22928,0.81916 0.66113,1.64711 0.87851,2.47867c0.19797,0.75734 0.11932,1.6785 0.12149,2.62267c0.00226,0.98967 0.05719,1.68433 0.64734,2.38966l0.78867,0.445" id="svg_25" stroke-width="2" stroke="#000" fill="none"/>
  <path t="91582,91854,91878,91894,91910,91921,91942,91974,91990,92006,92022,92030,92054,92086,92110,92133,92182,92206,92215,92238,92261,92271,92279,92310,92326,92342,92350,92366,92406,92406,92454,92462,92494,92494,92505,92550,92566,92598,92608,92622,92638,92662,92686,92686,92726,92742,92758,92774,92786,92805,92837,92861,92885,92917,92934,92966,92966,93006,93037,93054,93094,93118,93127,93134,93165,93229,93253,93277,93317,93317,93333,93421,93453,93493,93517,93549,93573,93597,93605,93621,93645,93653,93653,93677,93709,93717,93789,93837,93837,94029" d="m354.51135,231.09091c-1,0.64734 -1.40848,1.20071 -2.08398,1.716c-0.61304,0.46762 -1.64249,0.10025 -2.51599,0.31999c-0.86285,0.21706 -1.68225,0.76093 -2.34735,1.31667c-0.65317,0.54578 -0.98929,1.42212 -1.75717,1.64284c-0.86066,0.24738 -1.8476,-0.02824 -2.29099,0.65184c-0.43396,0.66565 -0.68597,1.58502 -1.28851,2.26866c-0.52673,0.59764 -1.17715,1.16164 -1.59448,1.96266c-0.39853,0.76492 -0.8024,1.40421 -1.40552,2.03734c-0.54688,0.5741 -0.53424,1.54308 -1.15198,2.05867c-0.63318,0.52849 -1.45322,0.74986 -2.04318,1.52533c-0.56122,0.7377 -0.62387,1.73865 -1.32217,2.21466c-0.7493,0.51079 -0.76038,1.34238 -1.284,2.00134c-0.54614,0.6873 -1.70898,0.34317 -1.91333,1.08533c-0.27759,1.00806 -0.77499,1.46873 -1.22266,2.29868c-0.3493,0.64764 -0.93369,1.33357 -1.42599,1.95267c-0.51474,0.64728 0.07047,1.77686 -0.40985,2.59015c-0.38962,0.65973 -1.45694,0.85815 -1.88565,1.65268c-0.37228,0.68994 -0.90649,1.07248 -1.06168,2.00449c-0.13614,0.81763 -0.84134,1.46686 -0.98483,2.30002c-0.15277,0.88699 -0.01068,1.79999 -0.01068,2.69998c0,0.90002 0.22601,1.91843 -0.284,2.616c-0.50143,0.68585 -0.716,1.36935 -0.716,2.28403c0,0.89999 0,1.79999 0,2.59998c0,0.90002 0,1.80002 0,2.70001c0,0.89999 0,1.79999 0,2.69867c0,0.88531 -0.32178,1.93924 0.16669,2.63467c0.50232,0.71515 0.83331,1.26666 0.83331,2.16666c0,0.79999 -0.18375,1.7265 0.03601,2.60001c0.21707,0.86282 0.88,1.60001 1.18552,2.49982l0.483,0.543l0.8595,0.3465" id="svg_26" stroke-width="2" stroke="#000" fill="none"/>
  <path t="95310,95557,95565,95582,95613,95621,95645,95654,95661,95669,95701,95725,95741,95789,95821,95845,95861,95877,95893,95901,95925,95941,95949,95949,95965,95981,96013,96045,96053,96069,96093,96125,96125,96133,96157,96189,96229,96293,96325,96357,96397,96397,96461,96533,96541,96573,96597,96605,96623,96693,96693,96717,96757,96797,96805,96829,96861,96869,96885,96909,96933,96941,96949,96997,97045,97053,97077,97109,97149,97165,97173,97181,97189,97221,97253,97277,97277,97309,97318,97333,97373,97389,97397,97421,97429,97445,97453,97477,97509,97525,97525,97541,97581,97605,97621,97637,97653,97685,97695,97733,97797" d="m370.51135,219.09091c1.83334,0 2.39029,-0.31433 3.16669,-0.83333c0.70651,-0.47227 1.37823,-0.61702 2.11865,-1.08134c0.77826,-0.48807 1.93961,0.17096 2.59335,-0.30666c0.69907,-0.51071 1.32132,-0.77867 2.22131,-0.77867c0.89999,0 1.77869,0 2.60452,0c0.89548,0 1.79547,0 2.6955,0c0.89999,0 1.79999,0 2.69998,0c0.89999,0 1.70001,0 2.60001,0c0.94284,0 1.82083,0 2.70001,0c0.89999,0 1.79999,0 2.69998,0c0.89999,0 1.70001,0 2.60001,0c0.89999,0 1.79999,0 2.68933,0c0.896,0 1.81067,0 2.71066,0c0.89999,0 1.70001,0 2.60001,0c0.89999,0 1.79999,0 2.70001,0c0.89999,0 1.80222,-0.07957 2.68399,0c0.92725,0.08368 1.45364,0.76117 2.41599,0.97917c0.87802,0.1989 1.85016,-0.05222 2.47467,0.44617c0.60797,0.48518 1.46249,0.32387 2.32083,0.57916c0.76266,0.22684 0.52209,1.63759 1.22534,1.97467c0.78369,0.37566 1.36594,0.63977 1.97916,1.02083c0.70932,0.44077 1.66223,0.57069 2.33334,1.16667c0.60629,0.53842 1.07455,1.2184 1.59201,1.808c0.55969,0.63776 1.38083,0.65384 2.13867,1.06133c0.72931,0.39214 0.97104,1.45061 1.53583,2.06401c0.63107,0.68539 0.84091,1.54892 1.3255,2.28932c0.49326,0.75365 0.92661,1.43779 1.522,1.96333c0.63812,0.56326 0.70892,1.3376 1.07349,2.12651c0.35629,0.77101 0.61484,1.433 1.03635,2.16367c0.46793,0.8111 0.90561,1.35803 0.94281,2.15717c0.04272,0.91763 0.93674,1.41539 1,2.29984c0.06015,0.84085 0.95456,0.81357 1.56403,1.51083c0.58237,0.66624 0.44049,1.68483 0.86133,2.364l0.55383,0.54616" id="svg_27" stroke-width="2" stroke="#000" fill="none"/>
  <path t="99053,99181,99206,99214,99230,99230,99238,99262,99285,99301,99318,99341,99381,99381,99413,99422,99445,99454,99462,99462,99470,99494,99525,99557,99589,99597,99597,99605,99621,99629,99629,99645,99685,99701,99725,99781,99781,99797,99805,99813,99829,99845,99861,99861,99877,99901,99913,99913,99949,99960,99973,99981,99982,99990,99998,100012,100021,100030,100061,100085,100085,100093,100103,100141,100153,100165,100174,100181,100197,100210,100229,100229,100253,100253,100269,100279,100301,100310,100319,100333,100357,100365,100381,100392,100410,100413,100413,100429,100453,100469,100477,100485,100494,100517,100533,100549,100561,100573,100573,100590,100597,100614,100624,100629,100669,100693,100709,100725,100741,100757,100765,100765,100781,100797,100806,100822,100845,100854,100877,100901,100901,100909,100941,100965,100989,101005,101021,101069,101237" d="m447.51135,274.09091c1.08401,1.71466 1.66965,2.39752 2.28534,2.91599c0.66547,0.56042 1.70023,0.51086 2.35751,1.13669c0.62173,0.59198 1.16562,0.57144 2,1.00449c0.74857,0.38849 1.41095,0.82617 2.19049,1.1095c0.8074,0.29346 1.56613,0.81534 2.46667,0.83334c0.89981,0.01801 1.79999,0 2.69998,0c0.80002,0 1.74167,-0.18512 2.61069,0.03601c0.85294,0.21704 1.5863,0.92126 2.48932,0.96399c0.89899,0.04251 1.70001,0 2.60001,0c0.936,0 1.82834,-0.21631 2.59018,0.05716c0.83798,0.30081 1.54922,0.53299 2.35715,1c0.68433,0.39557 1.39371,0.7612 2.15268,1.02817c0.76111,0.2677 1.17465,1.30402 1.69998,1.91467c0.52536,0.61066 0.90985,1.42575 1.60001,2.09982c0.57892,0.56543 1.46783,0.77621 2.20001,1.25735c0.79422,0.52191 1.28635,1.16904 2.05267,1.64731c0.64221,0.40079 0.91183,1.42691 1.64731,1.82886c0.73566,0.40204 1.47916,0.82837 1.97467,1.556c0.4534,0.6658 0.87671,1.34183 1.46133,2c0.61624,0.69376 1.62357,0.89563 2.26401,1.258c0.8208,0.46442 1.60193,0.74683 2.13333,1.51932c0.4841,0.70374 0.83456,1.31219 1.556,1.80801c0.6752,0.46402 1.07663,1.26141 1.48935,2.12534c0.40732,0.85266 0.78525,1.4519 1.41681,2.2045c0.46045,0.54871 0.38553,1.64197 0.92584,2.45267c0.4834,0.72525 0.59506,1.54581 1.06268,2.15881c0.51529,0.67551 0.66119,1.4812 1.14133,2.05869c0.49728,0.59811 0.51404,1.56421 0.92734,2.32532c0.40521,0.74622 0.64664,1.5 0.64731,2.40002c0.00064,0.89999 -0.00226,1.79999 0,2.69998c0.00226,0.89551 0.72678,1.41629 1,2.03601c0.34854,0.79056 0,1.76401 0,2.664c0,0.89999 -0.01874,1.70016 0,2.60001c0.01801,0.86453 0.8562,1.34991 1,2.24731c0.1402,0.87485 0,1.66333 0,2.55267c0,0.89999 0,1.79999 0,2.70001c0,0.89999 0,1.79999 0,2.59998c0,0.90002 0,1.80002 0,2.70001c0,0.97916 0,1.85718 0,2.70001c0,0.89999 0,1.79999 0,2.59998c0,0.90002 0,1.80002 0,2.70001c0,0.89999 0,1.79999 0,2.69867l0,0.96799l0,0.83334" id="svg_28" stroke-width="2" stroke="#000" fill="none"/>
  <path t="103976,104038,104046,104054,104062,104070,104070,104078,104086,104094,104094,104109,104110,104120,104126,104126,104134,104142,104158,104166,104166,104182" d="m481.51135,398.09091c0,1 0,1.91599 0,2.7045c0,0.93149 0,1.77951 0,2.64282c0,1.01669 0,1.85269 0,2.75302c0,0.71399 0,1.66632 0,2.61298c0,0.92252 0,1.85602 0,2.63852c0,1.01218 0,1.84818 0,2.74817l0,0.89999l0,0.79999l0,0.90002" id="svg_29" stroke-width="2" stroke="#000" fill="none"/>
  <path t="104966,105046,105046,105054,105071,105071,105078,105078,105090,105094,105102,105103,105110,105110,105122,105122,105126,105126,105142,105142,105150,105158,105171,105171,105174,105182,105182,105190,105198,105223,105231,105254" d="m449.51135,416.09091c1.33334,0.83334 2.2673,0.85104 2.92801,1.42532c0.53076,0.46133 1.3176,0.44702 2.18668,0.86002c0.64697,0.30743 1.1824,1.31201 2.08533,1.62933c0.85309,0.2998 1.71194,0.2197 2.45267,0.79065c0.54276,0.41837 1.32144,1.06421 2.10001,1.34283c0.89056,0.31873 1.7373,0.5853 2.46884,1.17334c0.63913,0.51373 1.23584,1.33963 2.07849,1.72583c0.76874,0.35229 1.46841,0.89746 2.336,1.04199c0.83524,0.13916 1.63049,0.09961 2.41217,0.65802c0.64923,0.46381 1.17334,1.23117 2.05167,1.35266l0.87933,0.02084" id="svg_30" stroke-width="2" stroke="#000" fill="none"/>
 </g>
 <g display="none">
  <title>muse_image</title>
  <image xlink:href="http://img.alibaba.com/photo/11039225/Acoustic_Guitar_41_Inch.jpg" id="muse" height="480" width="320" y="0" x="160"/>
 </g>
 <g display="none">
  <title>bbox</title>
  <rect stroke="#f00" fill="none" stroke-width="3" height="453.33333" width="176.88889" y="14.22222" x="254.22222" id="bbox"/>
 </g>
</svg>
