<svg width="640" height="480" xmlns="http://www.w3.org/2000/svg" xmlns:svg="http://www.w3.org/2000/svg" xmlns:xlink="http://www.w3.org/1999/xlink">
 <!-- Sketchy ANNOTATION
  ImageNet ID: n02676566_4469
  URL: http://www.galaxyguitar.com/images/acoustic777.jpg
  Image Width: 480
  Image Height: 640
  BBox X: 150
  BBox Y: 8
  BBox Width: 246
  BBox Height: 572
  Exposure: 2000ms
  Synset Label: guitar
  Synset ID: n03467517
  Worker Tag: dark wooden guitar
  Sanity Check: 
   Saved
  Comment: 
   {}
  Worker ID: A2HCKWFKLJAMRG
  Assignment ID: 3PS7W85Z8Z2OOOFSQUA22KFK94KT9V
  HIT ID: 335HHSX8CD58ZL3KCETDLD01LDVDHZ
  Work Time: 38s
  Worker Score: 0.5500
 END ANNOTATION -->
 <g display="inline">
  <title>Layer 1</title>
  <path t="0,47,51,51,58,65,65,73,73,79,85,85,92,93,96,101,101,107,107,112,112,120,123,123,128,129,132,132,136,143,143,146,151,151,152,152,157,157,157,161,164,164,168,168,173,173,177,180,180,185,185,188,192,192,196,196,197,202,206,206,209,214,214,216,216,221,221,225,225,229,232,232,236,236,237,241,244,244,250,256,256,257,258,258,263,263,266,270,270,274,274,279,285,285,289,289,290,292,297,297,301,307,307,308,310,310,315,315,320,324,324,330,330,335,341,341,345,345,349,353,353,357,357,362,362,366,366,371,371,378,385,385,393,393,400,400,407,412,412,418,427,427,433,433,461,461,482,482" d="m235,108c0,1.75716 0,2.65266 0,3.516c0,0.85867 0,1.80534 0,2.65867c0,0.94133 0,1.70934 0,2.65067c0,1.008 -0.02705,1.80047 0.00133,2.65867c0.02859,0.86466 0.48721,1.70423 0.832,2.68266c0.22318,0.63333 0.16667,1.66667 0.16667,2.45867c0,1.02733 0,1.722 0,2.74933c0,0.94667 0,1.62534 0,2.74133c0,0.76801 0,1.70934 0,2.40001c0,1.10933 0,1.96799 0,2.83133c0,0.89999 0,1.81934 0,2.65266c0,0.97867 -0.08655,1.75774 0.009,2.64816c0.08525,0.79446 1.24805,0.96408 1.82033,1.6385c0.57997,0.68349 0.17067,1.71333 0.17067,2.692c0,0.774 0,1.674 0,2.53734c0,0.85866 0,1.80533 0,2.65866c0,0.94133 0,1.70934 0,2.65067c0,1.008 -0.0372,1.80087 0.00133,2.65733c0.04277,0.95074 0.81355,1.50591 0.99417,2.27901c0.2027,0.86765 0.0045,1.75433 0.0045,2.73833c0,0.82133 -0.09982,1.68027 0.00267,2.616c0.0856,0.78149 0.7366,1.50925 1.29199,2.23134c0.57085,0.74219 0.70399,1.53667 0.70534,2.478c0.00143,1.008 0,1.8 0,2.65866c0,0.86334 0.03137,1.85464 0.5,2.53683c0.46376,0.67511 0.49933,1.49651 0.5,2.47917c0.00055,0.82133 -0.24069,1.70676 0.00267,2.61333c0.22891,0.85275 1.41856,0.73221 1.883,1.59651c0.38585,0.71808 0.11433,1.66483 0.11433,2.6115c0,0.85333 0,1.79466 0,2.56267c0,0.94133 0,1.94933 0,2.74133c0,0.85866 -0.30733,1.77353 0.01067,2.728c0.2616,0.78522 0.95953,1.35507 0.98801,2.164c0.03458,0.98206 0.00011,1.804 0.00133,2.65733c0.00134,0.93866 0.50447,1.54486 1.14934,1.88667c0.86693,0.45952 0.84932,1.45599 0.85066,2.31332c0.00148,0.94667 0,1.8 0,2.74133c0,0.76801 -0.02289,1.70959 0,2.71733c0.01801,0.79262 0.30196,1.64339 0.57466,2.34134c0.36424,0.93222 0.42534,1.992 0.42534,2.65067c0,1.008 -0.00041,1.84613 0.56799,2.65866c0.38576,0.55144 1.24152,1.30707 1.41068,2.14134c0.17068,0.8418 0.02133,1.722 0.02133,2.74933c0,0.94667 0,1.62534 0,2.604c0,0.90533 0,1.84666 0,2.53734c0,0.98399 0,1.96799 0,2.65866c0,1.07266 -0.00008,1.992 0,2.82533c0.00009,0.97833 0.08533,1.71333 0.83333,2.33333l0.14584,0.6875l0.02083,1.09517l0,0.76801" id="svg_1" stroke-width="2" stroke="#000" fill="none"/>
  <path t="1118,1184,1189,1189,1192,1192,1199,1200,1200,1204,1204,1207,1207,1210,1213,1213,1214,1216,1219,1219,1221,1224,1224,1225,1225,1228,1231,1231,1233,1233,1235,1235,1239,1240,1241,1243,1243,1245,1247,1247,1249,1249,1251,1251,1253,1253,1256,1256,1257,1260,1260,1262,1262,1263,1265,1267,1270,1270,1273,1273,1274,1274,1275,1277,1277,1280,1280,1282,1282,1285,1285,1286,1289,1289,1292,1292,1294,1296,1296,1299,1299,1301,1301,1304,1307,1307,1310,1311,1311,1312,1316,1319,1319,1323,1323,1325,1325,1328,1330,1330,1333,1336,1336,1339,1339,1341,1341,1344,1347,1347,1350,1350,1353,1356,1356,1360,1360,1363,1363,1366,1366,1373,1374,1374,1378,1378,1382,1382,1383,1386,1392,1398,1398,1408,1408,1417,1425,1425,1434,1434,1441,1441,1449,1449,1453,1453,1457,1464,1464,1469,1469,1473,1473,1478,1482,1482,1483,1483,1493,1506,1506,1655" d="m255,103c0,1.82533 0,2.83334 0,3.62534c0,1.02733 0,1.722 0,2.74933c0,0.94667 0,1.62534 0,2.74133c0,0.76801 0,1.70934 0,2.4c0,0.984 -0.00218,1.968 0,2.83134c0.00226,0.89101 0.61784,1.52029 0.91467,2.222c0.30646,0.72451 0.08533,1.80533 0.08533,2.752c0,0.85333 0,1.79466 0,2.56267c0,0.94133 -0.00063,1.94933 0,2.74133c0.00067,0.85866 -0.0318,1.75626 0.35266,2.62199c0.29752,0.66997 0.62933,1.57751 0.64734,2.586c0.01413,0.79189 0,1.65067 0,2.51401c0,0.89999 -0.13995,1.8383 0.04166,2.65266c0.23019,1.03227 1.12335,1.36839 1.625,2.16667c0.46976,0.74756 0.33334,1.66666 0.33334,2.586c0,0.89999 0,1.59467 0,2.62199c0,0.94667 0,1.8 0,2.74133c0,0.76801 -0.29919,1.8277 0.22134,2.64117c0.47021,0.73483 0.77866,1.4095 0.77866,2.24283c0,0.97867 0,1.75267 0,2.65266c0,0.86334 0,1.722 0,2.66867c0,0.85333 -0.14383,1.84215 0.17065,2.56267c0.37457,0.85814 1.28412,1.37386 1.65869,2.23199c0.31448,0.72052 0.17065,1.70934 0.17065,2.71733c0,0.79201 0,1.65067 0,2.51401c0,0.89999 0,1.81934 0,2.65266c0,0.97867 0,1.75267 0,2.65266c0,0.86334 0,1.84734 0,2.83133c0,0.69067 -0.01346,1.6321 0,2.68268c0.01044,0.8127 0.55084,1.44508 0.94284,2.19499c0.37387,0.71521 0.05716,1.63834 0.05716,2.617c0,0.774 0,1.674 0,2.53734c0,0.98399 0,1.96799 0,2.65866c0,1.07266 0,1.992 0,2.82533c0,0.83333 0,1.75267 0,2.65266c0,0.86334 0,1.722 0,2.66867c0,0.85333 0,1.79466 0,2.56267c0,0.94133 -0.16852,1.98331 0.07199,2.74133c0.2999,0.94519 1.05978,1.28455 1.59467,2.20799c0.42667,0.7366 0.33334,1.65067 0.33334,2.51401c0,0.89999 0,1.81934 0,2.65266c0,0.97867 0,1.75267 0,2.65266c0,0.86334 0.1138,1.73196 0.57468,2.40868c0.50082,0.73534 0.42532,1.77199 0.42532,2.564c0,0.85866 0,1.722 0,2.62199c0,0.91934 0,1.75267 0,2.73134c0,0.774 -0.17801,1.73116 0.17065,2.53734c0.35962,0.8315 1.32993,1.13118 1.71503,2.13666c0.25128,0.65613 0.09451,1.72221 0.11447,2.66867c0.01801,0.8539 0.29486,1.62114 0.64719,2.43134c0.37775,0.86868 0.35025,1.59467 0.35266,2.62199c0.00223,0.9465 -0.12674,1.96385 0.56799,2.45601c0.73441,0.52026 1.41068,0.81599 1.43201,1.82199l0,0.69467l0,1.09016" id="svg_2" stroke-width="2" stroke="#000" fill="none"/>
  <path t="2622,2680,2686,2686,2690,2694,2694,2699,2699,2704,2707,2707,2710,2710,2712,2716,2723,2723,2727,2734,2734,2739,2745,2745,2752,2752,2759,2759,2767,2769,2769,2775,2775,2782,2790,2790,2792,2797,2810,2810,2825,2831,2831,2842,2842,2843,2864,2864,2974,2979" d="m225,69c0,1.75716 0,2.65266 0,3.516c0,0.85867 0,1.80534 0,2.65867c0,0.94133 0,1.70934 0,2.65067c0,1.008 -0.0372,1.80087 0.00133,2.65733c0.04277,0.95075 0.81355,1.50591 0.99417,2.279c0.20271,0.86765 0.0045,1.75433 0.0045,2.73833c0,0.82133 0,1.67467 0,2.616c0,1.05067 -0.02289,1.70959 0,2.71734c0.01801,0.79261 0.31931,1.63664 0.64734,2.514c0.33174,0.88728 0.18237,1.84636 0.39433,2.63183c0.22804,0.84503 1.43791,0.72404 1.91666,1.5625c0.46771,0.81914 -0.19539,1.66079 0.04617,2.69667c0.1803,0.77317 0.94881,1.32797 0.991,2.1135c0.05486,1.02136 0.0045,1.9695 0.0045,2.64816c0,0.97867 -0.17464,1.77069 0.02133,2.81467c0.16739,0.89175 0.97867,1.1645 1.86433,1.5335l0.11433,-0.15083" id="svg_3" stroke-width="2" stroke="#000" fill="none"/>
  <path t="3281,3387,3395,3395,3399,3399,3406,3411,3411,3416,3416,3420,3420,3425,3433,3433,3439,3439,3448,3483,3483,3500,3500,3513,3520,3520,3532,3532" d="m226,64c1.82533,0 2.83333,0 3.62534,0c1.02733,0 1.722,0.00009 2.74933,0c0.94667,-0.00008 1.66647,0.12366 2.604,-0.22133c0.82913,-0.30511 1.67256,-0.74629 2.36867,-0.77417c1.02652,-0.04111 1.974,-0.0045 2.82733,-0.0045c0.94133,0 1.70934,0 2.65067,0c1.008,0 1.8,0 2.65866,0c0.86334,0 1.76334,0 2.68268,0l0.83333,0l0.97867,0l0.774,0" id="svg_4" stroke-width="2" stroke="#000" fill="none"/>
  <path t="3811,3876,3880,3880,3886,3886,3890,3890,3893,3895,3895,3901,3906,3906,3914,3914,3919,3926,3926,3933,3933,3935,3935,3939,3945,3950,3950,3956,3956,3958,3958,3959,3965,3973,3973,3976,3980,3980,3985,3988,3988,3989,3989,3994,3999,3999,4004,4011,4011,4019,4019,4038,4038,4051,4057,4057" d="m253,63c0.87849,1.22166 1,2.16666 1,2.82533c0,1.008 0,1.8 0,2.82733c0,0.69467 -0.09016,1.85959 0.70534,2.29917c0.66389,0.36686 1.25864,0.9075 1.29466,1.8815c0.02927,0.79146 -0.07883,1.83073 0.05716,2.514c0.18491,0.92904 0.82928,1.81099 0.90683,2.478c0.11649,1.00189 -0.06348,1.80573 0.04501,2.82284c0.08475,0.79451 1.09393,0.88523 1.74799,1.57349c0.67215,0.70731 0.24301,1.60367 0.24301,2.61167c0,0.792 -0.23593,1.87926 0.08533,2.59733c0.34097,0.76217 0.91241,1.33099 0.91467,2.222c0.00217,0.86333 0,1.84734 0,2.83134c0,0.69067 -0.02353,1.76363 0,2.68266c0.02084,0.8133 0.46503,1.53585 1.14932,1.848c0.81018,0.36958 0.85068,1.30667 0.85068,2.16c0,0.94133 0,1.992 0,2.65067c0,1.008 0.01385,1.816 -0.284,2.65867c-0.31216,0.88313 -0.65884,1.76333 -0.716,2.68266l-0.04166,0.8125" id="svg_5" stroke-width="2" stroke="#000" fill="none"/>
  <path t="4429,4523,4525,4529,4529,4534,4536,4543,4543,4546,4546,4558,4558,4559,4578,4579,4579" d="m243,108c1,-1 1.35658,-1.94273 2.32133,-2c0.67747,-0.04021 1.76756,0.26427 2.5575,-0.22134c0.73776,-0.45353 1.31255,-0.67467 2.23717,-0.78133c0.78099,-0.09009 1.58833,-0.65553 2.17416,-1.34916c0.60254,-0.71343 0.99384,-1.56551 1.58867,-2.09084l0.231,-0.85201" id="svg_6" stroke-width="2" stroke="#000" fill="none"/>
  <path t="6197,6394,6402,6402,6407,6411,6411,6418,6418,6422,6423,6428,6433,6433,6441,6448,6448,6453,6453,6462,6462,6474,6497,6497,6514,6518,6518,6535,6535,6536,6557,6564,6564,6579,6583,6592,6603,6603,6607,6607,6621,6624,6624,6631,6634,6638,6638,6644,6652,6652,6652,6656,6659,6659,6661,6667,6673,6673,6674,6677,6677,6684,6684,6691,6695,6695,6702,6702,6709,6710,6710,6714,6722,6722,6736,6736,6743,6743,6756,6763,6763,6772,6778,6778,6787,6787,6796,6796,6803,6813,6813,6819,6819,6823,6826,6830,6838,6838,6844,6844,6846,6846,6853,6859,6864,6864,6866,6866,6880,6880,6887,6887,6895,6895,6896,6899,6906,6906,6911,6913,6917,6917,6924,6924,6951,6954,6954,6961,6994,6994,7027,7027,7044,7061,7061,7067,7067,7075,7111,7135,7135,7165,7185,7185,7191,7191,7201,7220,7220,7230,7239,7269,7269,7367,7391,7391,7391,7410,7432,7432,7442,7443,7458,7458,7472,7478,7478,7484,7484,7487,7487,7491,7496,7496,7506,7506,7506,7506,7514,7523,7523,7524,7524,7530,7543,7543,7544,7550,7566,7566,7580,7582,7598,7598,7606,7606,7617,7617,7628,7631,7631,7645,7666,7666,7683,7683,7687,7696,7707,7707,7720,7728,7728,7743,7743,7754,7754,7776,7776,7797,7797,7813,7826,7826,7833,7847,7847,7875,7875,7899,7899,7912,7921,7934,7935,7935,7943,7952,7952,7953,7953,7965,7974,7974,7974,7979,7981,7988,7988,7994,7994,7998,8000,8006,8006,8008,8010,8010,8016,8016,8020,8023,8026,8026,8032,8036,8036,8037,8041,8041,8047,8047,8050,8051,8051,8056,8063,8064,8064,8067,8073,8073,8078,8081,8081,8083,8083,8087,8090,8095,8095,8098,8102,8102,8106,8108,8108,8112,8112,8114,8114,8117,8120,8120,8123,8123,8125,8125,8128,8131,8131,8133,8136,8136,8139,8139,8140,8140,8142,8145,8147,8147,8150,8150,8152,8152,8156,8160,8160,8162,8162,8168,8171,8171,8176,8176,8184,8188,8188,8192,8192,8201,8201,8206,8212,8212,8219,8224,8224,8230,8230,8234,8234,8239,8241,8241,8247,8250,8256,8256,8261,8263,8263,8268,8268,8273,8273,8277,8277,8280,8280,8284,8286,8286,8289,8290,8292,8292,8295,8299,8299,8301,8301,8304,8304,8308,8309,8309,8313,8313,8316,8316,8320,8320,8324,8324,8328,8336,8336,8341,8347,8358,8358,8374,8382,8382,8395,8395,8405,8410,8410,8413,8413,8423,8424,8435,8438,8438,8454,8461,8461,8484,8498,8498,8499,8509,8511,8511,8515,8519,8523,8531,8531,8537,8537,8542,8542,8545,8550,8551,8562,8562,8568,8569,8579,8579,8584,8587,8587,8597,8597,8625,8662,8662,8700,8700,8707,8713,8726,8733,8733,8735,8735,8740,8748,8748,8749,8756,8763,8763,8764,8771,8771,8779,8779,8790,8796,8796,8806,8806,8817,8817,8825,8825,8833,8833,8840,8840,8846,8853,8853,8862,8862,8869,8869,8870,8874,8879,8879,8887,8887,8892,8892,8896,8896,8898,8903,8907,8907,8912,8915,8915,8920,8920,8926,8926,8928,8929,8932,8932,8936,8936,8940,8940,8944,8948,8948,8952,8958,8958,8960,8960,8965,8965,8970,8974,8974,8981,8981,8985,8985,8989,8991,8991,8996,9003,9003,9009,9009,9012,9015,9025,9025,9034,9040,9040,9042,9048,9048,9051,9051,9058,9065,9065,9071,9083,9083,9092,9092,9106,9106,9115,9121,9121,9128,9128,9136,9141,9141,9142,9148,9152,9152,9155,9157,9157,9173,9179,9179,9186,9197,9204,9204,9210,9210,9212,9219,9219,9232,9247,9262,9280,9280,9293,9293,9295,9295,9303,9305,9316,9316,9320,9325,9332,9337,9337,9348,9348,9356,9403,9427,9427,9437,9443,9443,9447,9447,9451,9451,9453,9456,9458,9461,9461,9466,9466,9469,9473,9473,9478,9478,9479,9479,9483,9486,9486,9492,9497,9497,9501,9501,9508,9510,9510,9515,9515,9523,9607,9607,9613,9614,9619,9623,9623,9625,9631,9637,9637,9639,9639,9642,9646,9647,9647,9651,9651,9653,9654,9660,9662,9662,9665,9671,9671,9674,9683,9687,9687,9700,9712,9717,9737,9737,9746,9746,9775,9798,9815,9903,9903,9947,9957,9957,9965,9974,9974,9984,9984" d="m249,218c-2.62534,0 -3.48399,0 -4.34734,0c-0.89999,0 -1.81934,0 -2.65266,0c-0.97867,0 -1.75267,0 -2.65266,0c-0.86334,0 -1.84734,0 -2.66867,0c-0.85333,0 -1.79466,0 -2.84534,0c-0.65866,0 -1.66666,0 -2.45866,0c-1.02733,0 -1.722,0 -2.74933,0c-0.94667,0 -1.82195,-0.19913 -2.73866,0.00267c-0.77377,0.17033 -0.75755,1.34328 -1.45467,1.828c-0.73894,0.51381 -1.42151,0.98027 -2.19368,1.16483c-0.8623,0.20609 -1.76895,0.11711 -2.2175,1.0045c-0.39917,0.78969 -0.95044,1.36255 -1.02116,2.32117c-0.06038,0.81842 -0.63042,1.36014 -1.29433,1.72701c-0.7955,0.43958 -0.70076,1.43584 -0.70534,2.29916c-0.00534,1.00604 -0.64203,1.52452 -0.94284,2.3625c-0.27347,0.76183 -0.00865,1.8407 -0.49983,2.6115c-0.34846,0.54684 -1.19232,1.10599 -1.48532,2.05333c-0.28049,0.90686 0.00349,1.82866 -0.49734,2.564c-0.46091,0.6767 -0.32883,1.62019 -0.689,2.3515c-0.3721,0.75554 -1.70435,0.81613 -1.87666,1.47151c-0.22659,0.8618 -0.06474,1.76665 -0.43434,2.61299c-0.42003,0.96182 -0.56424,1.62517 -0.57466,2.604c-0.00963,0.90529 0.27965,2.01903 -0.33333,2.688c-0.49741,0.54285 -1.60936,0.68893 -1.66667,1.5c-0.05873,0.83125 0,1.812 0,2.586c0,0.89999 0,1.76334 0,2.74733c0,0.98401 0,1.67465 0,2.74734c0,0.91931 0,1.75266 0,2.586c0,0.91931 0,1.81934 0,2.51398c0,1.02734 0,1.974 0,2.82733c0,0.94135 -0.09676,1.71552 0.01067,2.64001c0.11147,0.95932 0.94662,1.4689 0.98933,2.35199c0.04025,0.83237 -0.00389,1.81201 0,2.586c0.0045,0.89554 0.1024,1.78531 0.85066,2.186c0.91568,0.49033 1.14934,1.228 1.14934,2.06134c0,0.83334 0.3306,1.50198 0.83333,2.33334c0.36366,0.60141 0.16667,1.64532 0.16667,2.55066c0,0.94135 -0.48633,1.79211 0.07201,2.66934c0.47812,0.75122 1.72157,0.73911 1.88632,1.4675c0.21144,0.93478 0.46643,1.60205 0.92017,2.422c0.36349,0.65686 0.12151,1.67316 0.12151,2.44116c0,0.94135 -0.36845,2.10013 0.11433,2.75433c0.48334,0.65497 1.74355,0.78159 1.86433,1.547c0.14511,0.91953 0.02133,1.69867 0.02133,2.64001c0,1.008 -0.02892,1.80051 0.00133,2.65732c0.02856,0.80893 0.81355,1.50589 0.99417,2.27899c0.20271,0.86768 0.00435,1.75433 0.0045,2.61301c0.00017,0.9465 -0.12485,1.98953 0.70534,2.5155c0.63501,0.40231 1.29016,0.87146 1.29466,1.76251c0.00351,0.69464 0.09254,1.74692 0.57466,2.40866c0.43913,0.60272 0.22466,1.48538 0.46701,2.43866c0.2252,0.8858 1.01364,1.45834 1.39034,2.01599c0.62465,0.92471 0.56653,1.96802 0.56799,2.65866c0.00226,1.06369 0.5737,1.63251 0.91467,2.39468c0.32124,0.71808 0.08533,1.80533 0.08533,2.75198c0,0.67868 0,1.65735 0,2.43134c0,0.90002 0.11772,1.77292 -0.02083,2.74734c-0.1434,1.00845 -0.6169,1.65411 -0.89517,2.616c-0.21848,0.75519 -0.48784,1.51688 -0.8,2.39999c-0.29787,0.84268 -0.07101,1.85312 -0.356,2.62268c-0.29567,0.7984 -1.60405,0.78317 -1.90666,1.508c-0.38766,0.92856 0.286,1.75217 -0.032,2.70667c-0.2616,0.78522 -0.93152,1.35657 -0.98801,2.164c-0.07249,1.03607 -0.91902,1.10275 -1.668,1.81601c-0.54688,0.52081 -0.59508,1.62482 -0.90799,2.29199c-0.39217,0.83615 -0.05688,1.8002 -0.44667,2.728c-0.30423,0.72415 -1.53564,0.59793 -1.90666,1.508c-0.36795,0.90256 -0.04309,1.76453 -0.07333,2.62134c-0.02856,0.80893 -0.77454,1.45023 -0.99417,2.27899c-0.22826,0.8613 -0.00432,1.58566 -0.0045,2.61301c-0.00017,0.94666 0.07561,1.8862 -0.44267,2.604c-0.44675,0.61871 -1.39906,1.32309 -1.51566,2.02133c-0.16135,0.96619 -0.04167,1.75266 -0.04167,2.65268c0,0.86331 0,1.84732 0,2.83133c0,0.69064 0,1.76334 0,2.68265c0,0.65869 0,1.66669 0,2.45868c0,1.02734 -0.30733,1.7735 0.01067,2.728c0.2616,0.78522 0.6138,1.56018 1.32266,2.31332c0.50462,0.53616 1.49318,0.62158 1.83334,1.5c0.25555,0.65991 0.37267,1.84 0.94316,2.47168c0.55479,0.61429 1.74693,0.67154 2.26483,1.21234c0.53458,0.5582 1.41872,0.72339 2.29201,1.31598c0.68958,0.46793 1.24611,0.96719 1.98599,1.53867c0.54234,0.41891 1.55078,0.98453 2.22617,1.51602c0.68056,0.53555 1.33954,0.53552 2.2345,0.78131c0.85143,0.23383 0.73219,1.41858 1.59651,1.88303c0.71808,0.38586 1.67479,0.22812 2.3515,0.689c0.73534,0.50082 1.45599,0.42334 2.43866,0.42532c0.98267,0.00201 1.95969,-0.01855 2.39017,0.70532c0.51129,0.85977 0.99651,1.29333 1.93517,1.29468c0.69067,0.00098 1.67528,-0.03323 2.65733,0.00134c0.80891,0.02847 1.44191,0.7645 2.164,0.98798c0.95691,0.29614 1.90596,0.10541 2.29199,0.86136c0.43181,0.84561 0.94801,1.14798 1.88667,1.14932c1.008,0.00143 1.80087,-0.0372 2.65733,0.00134c0.95074,0.04279 1.50591,0.81357 2.27901,0.99417c0.86765,0.2027 1.75433,0.00449 2.73833,0.00449c0.82133,0 1.67467,0 2.616,0c1.05066,0 1.70935,0 2.71735,0c0.79199,0 1.81934,0 2.51398,0c1.02734,0 1.974,0 2.65268,0c1.116,0 1.884,0 2.82535,0c0.69064,0 1.79999,0 2.65866,0c0.86331,0 1.76334,0 2.68265,0c0.83334,0 1.81201,-0.00388 2.586,0c0.89554,0.00452 1.77646,0.11337 2.2265,1c0.40033,0.78873 1.1875,1 2.02084,1c0.97867,0 1.75266,0 2.65268,0c0.86331,0 1.84732,0 2.66864,0c0.85333,0 1.79468,0 2.56268,0c0.94135,0 1.94934,0 2.74133,0c0.85867,0 1.72198,0 2.74933,0c0.94666,0 1.62534,0 2.604,0c0.90533,0 1.84668,0 2.53732,0c0.98401,0 1.96802,0 2.65866,0c1.07269,0 1.992,0 2.82535,0c0.97867,0 1.75266,0 2.65268,0c0.86331,0 1.84753,0.01791 2.66849,-0.00015c0.81808,-0.01801 1.52994,-0.71606 2.22049,-0.979c0.88089,-0.33542 1.80566,-0.02084 2.70569,-0.02084c0.91931,0 1.75266,0 2.73132,0c0.77399,0 1.73117,0.17798 2.53732,-0.17065c0.83151,-0.35962 1.1312,-1.32993 2.13669,-1.71503c0.6561,-0.25128 1.72198,-0.11432 2.66864,-0.11432c0.67868,0 1.88727,0.20892 2.55753,-0.22134c0.72876,-0.46783 1.30643,-0.77332 2.23715,-0.77866c1.05063,-0.00604 1.70935,0 2.71735,0c0.79199,0 1.81934,0 2.51398,0c1.02734,0 1.9993,0.14639 2.82733,-0.07199c0.85608,-0.2258 1.19373,-1.09302 1.992,-1.59467c0.74756,-0.46979 1.81201,-0.33334 2.586,-0.33334c0.90002,0 1.76334,0 2.74734,0c0.82132,0 1.69321,0.18433 2.61334,-0.00134c0.89117,-0.17981 1.45346,-0.94357 2.23849,-0.99417c0.99976,-0.06442 1.35828,-0.66248 1.758,-1.29916c0.52621,-0.83817 1.414,-0.77298 2.39017,-1.20532c0.82687,-0.36621 1.83597,-0.3674 2.33066,-1.06799c0.43753,-0.61963 0.64081,-1.6669 1.33868,-2.14801c0.73376,-0.50583 1.97763,0.04382 2.54401,-0.45465c0.66397,-0.58438 0.78452,-1.45834 1.58133,-1.8775c0.73196,-0.38501 0.48901,-1.48016 0.76248,-2.242c0.30081,-0.83801 0.84021,-1.36255 0.95184,-2.358c0.08905,-0.79404 0.97128,-1.02722 1.74817,-1.57318c0.71417,-0.50189 1.02783,-1.25107 1.30417,-1.96399c0.38297,-0.98801 1.2435,-1.3302 1.69583,-2.13583c0.41962,-0.74738 0.62204,-1.67084 1.26367,-2.17883c0.64304,-0.50909 1.77274,-0.79242 1.9375,-1.52084c0.21143,-0.93478 0.43643,-1.60388 0.875,-2.3125c0.45581,-0.73651 -0.10272,-1.98575 0.5,-2.5c0.64453,-0.5499 1.57291,-0.72397 1.65765,-1.51849c0.10849,-1.01709 0.009,-1.96948 0.009,-2.64816c0,-1.116 0.0788,-1.88824 -0.01068,-2.81467c-0.08325,-0.86215 -0.92844,-1.40118 -0.98932,-2.35199c-0.05325,-0.83163 0.4093,-1.86319 -0.17065,-2.54669c-0.5723,-0.67444 -1.68665,-0.70667 -1.80801,-1.47198c-0.14542,-0.91684 -0.59503,-1.62183 -0.936,-2.384c-0.32126,-0.71808 0.08688,-1.87302 -0.65332,-2.34799c-0.63269,-0.40598 -1.31052,-0.96014 -1.51468,-1.60001c-0.32452,-1.01709 -0.69858,-1.83087 -0.97867,-2.65732c-0.28564,-0.84277 -1.10367,-1.19373 -1.60532,-1.992c-0.46979,-0.74756 -0.33139,-1.81201 -0.33334,-2.586c-0.00226,-0.89551 -0.32144,-1.49796 -0.83334,-2.414c-0.36038,-0.64487 -0.12097,-1.65973 -0.16666,-2.66669c-0.03604,-0.79443 -0.44702,-1.48441 -1,-2.16666c-0.672,-0.82904 -1.15497,-1.42609 -1.64734,-2.10983c-0.47653,-0.66177 -0.34918,-1.72351 -0.35266,-2.5155c-0.00452,-1.02737 0.00171,-1.80356 -0.56799,-2.49066c-0.61667,-0.74374 -1.32706,-1.35703 -1.41068,-2.05865c-0.12589,-1.05652 -0.59503,-1.63251 -0.936,-2.39468c-0.32126,-0.71808 -0.08533,-1.80533 -0.08533,-2.75198c0,-0.67868 0,-1.79468 0,-2.56268c0,-0.94135 0.48633,-1.79211 -0.07199,-2.66934c-0.47812,-0.75122 -1.72165,-0.73907 -1.88635,-1.4675c-0.21143,-0.93512 -0.04166,-1.86316 -0.04166,-2.8045c0,-0.69064 0,-1.67465 0,-2.65866c0,-0.69064 0.01151,-1.7634 0,-2.68265c-0.01044,-0.83353 -0.20624,-1.64752 -0.57468,-2.45868c-0.38193,-0.84085 -0.42307,-1.72198 -0.42532,-2.62201c-0.00229,-0.91931 0,-1.75266 0,-2.73132c0,-0.77399 0.01907,-1.67422 0,-2.53732c-0.02084,-0.94305 -0.82999,-1.19189 -1.43201,-1.65335c-0.79449,-0.60898 -0.56799,-1.80933 -0.56799,-2.58331c0,-0.90002 0.33099,-1.83124 -0.02084,-2.70569c-0.3056,-0.75958 -0.96002,-1.40231 -0.97781,-2.05899c-0.02661,-0.9823 0.00302,-1.96667 -0.00134,-2.82999c-0.00452,-0.89105 -0.64453,-1.3851 -1.29468,-1.76251c-0.72836,-0.42282 -0.70398,-1.4075 -0.70532,-2.39017c-0.00134,-0.98401 0.09128,-1.67892 -0.00449,-2.74734c-0.08334,-0.92978 -0.51837,-1.54382 -0.82886,-2.586c-0.23047,-0.77362 -0.16229,-1.65067 -0.16666,-2.51398c-0.00452,-0.89105 -0.65967,-1.36017 -1.29468,-1.76251c-0.83017,-0.52597 -0.70398,-1.4075 -0.70532,-2.39017c-0.00134,-0.98401 0.22375,-1.87704 -0.00449,-2.73834c-0.21964,-0.82877 -0.94043,-1.32846 -0.99103,-2.11349c-0.06442,-0.99976 -0.81906,-1.37686 -1.43649,-1.8175c-0.69299,-0.4946 -0.25131,-1.75378 -0.62515,-2.46899c-0.392,-0.74991 -0.9324,-1.38232 -0.94284,-2.34033c-0.00842,-0.77396 0.01907,-1.67421 0,-2.53734c-0.02084,-0.94301 -0.82999,-1.19186 -1.43201,-1.65332c-0.79449,-0.60899 -0.27209,-1.92592 -0.73465,-2.664c-0.44254,-0.70613 -0.67062,-1.29158 -1.276,-2.14534c-0.44144,-0.62254 -1.23352,-1.1844 -1.5365,-2.0005c-0.31479,-0.84789 -0.8606,-1.52811 -1.58884,-1.93816c-0.78424,-0.44157 -1.10904,-1.06177 -1.65335,-1.83984c-0.50006,-0.71484 -0.60837,-1.43652 -0.82031,-2.222c-0.22803,-0.84503 -1.13385,-0.99327 -1.9375,-1.52083c-0.69189,-0.45419 -1.50485,-0.5 -2.36816,-0.5c-0.90002,0 -1.81934,0 -2.65268,0c-0.97867,0 -1.75266,0 -2.65268,0c-0.86331,0 -1.7822,0.16998 -2.45715,0.64734c-0.6658,0.47089 -1.72351,0.35205 -2.5155,0.35266c-0.85867,0.00067 -1.7493,-0.01579 -2.62201,0.35266c-0.95569,0.4035 -1.57751,0.62933 -2.586,0.64734c-0.79187,0.01413 -1.9231,-0.25813 -2.59732,0.17067c-0.71622,0.45551 -0.76041,1.69972 -1.45599,1.82666c-0.92352,0.16853 -1.94147,0.17999 -2.61334,0.50267c-0.81519,0.39151 -1.67462,0.49466 -2.616,0.5c-1.05063,0.00595 -1.9375,-0.31277 -2.64117,0.44267c-0.51263,0.55035 -0.68726,1.5213 -1.56415,1.55733c-0.8526,0.03503 -1.79468,0 -2.56268,0c-0.94135,0 -2.03912,0.3167 -2.75433,-0.05716c-0.74991,-0.392 -1.45975,-0.8101 -2.19501,-1.27617c-0.63242,-0.40088 -1.31982,-1.36806 -1.98132,-1.60533c-0.92621,-0.33221 -1.47028,-0.99602 -2.35199,-1.06134c-0.81134,-0.0601 -1.4848,-0.48645 -1.8815,-1.29466c-0.36139,-0.73628 -1.01697,-1.49304 -1.81317,-1.66934c-0.94968,-0.21028 -1.76706,-0.15511 -2.12399,-0.88666c-0.44519,-0.91246 -1.21494,-0.98334 -2.12802,-1.15067c-0.83826,-0.15363 -1.41748,-0.66599 -2.18134,-1.10851c-0.7287,-0.42216 -0.9494,-1.46758 -1.53867,-2.05684c-0.58926,-0.58925 -1.51013,-0.70592 -1.99731,-1.40132c-0.43521,-0.62123 -0.65353,-1.64896 -1.33868,-2.14801c-0.71521,-0.52095 -1.50916,-0.76053 -1.84534,-1.43333c-0.43158,-0.86366 -1.46933,-0.85066 -2.15997,-0.85066c-1.07269,0 -1.992,0 -2.82535,0l-0.83334,0l-0.91931,0" id="svg_7" stroke-width="2" stroke="#000" fill="none"/>
  <path t="10829,10898,10902,10909,10920,10924,10924,10934,10934,10942,10947,10947,10957,10965,10974,10974,10983,10985,10985,10993,11000,11000,11006,11006,11015,11024,11024,11032,11040,11040,11047,11047,11053,11053,11059,11064,11064,11073,11073,11078,11078,11088,11092,11092,11115,11137,11142,11153,11153,11159,11161,11161,11167,11167,11170,11175,11175,11179,11183,11183,11185,11186,11190,11190,11193,11193,11197,11200,11200,11201,11206,11206,11209,11209,11212,11213,11216,11220,11220,11224,11224,11225,11229,11229,11233,11237,11237,11242,11242,11245,11245,11256,11266,11266,11274,11274,11301,11308,11308,11318,11324,11324,11332,11343,11349,11349,11360,11367,11367,11376,11376,11383,11383,11387,11393,11400,11401,11406,11408,11408,11412,11412,11415,11417,11417,11423,11427,11427,11428,11434,11442,11444,11452,11452,11454,11460,11465,11468,11468,11473,11473,11480,11484,11484,11489,11489,11493,11493,11495,11497,11497,11500,11504,11504,11506,11506,11510,11514,11514,11517,11517,11522,11527,11527,11531,11531,11536,11536,11540,11545,11545,11550,11550,11557,11561,11561" d="m253,243c-1.81467,0.01067 -2.68802,0.28406 -3.35266,0.94733c-0.55873,0.55759 -0.43436,1.42178 -0.71935,2.19135c-0.29567,0.7984 -1.60239,0.78387 -1.90666,1.508c-0.38809,0.9236 -0.24049,1.67705 -0.73734,2.436c-0.40218,0.61435 -0.284,1.56999 -0.284,2.43333c0,0.98399 0.24583,2.04285 -0.11433,2.77415c-0.3721,0.75552 -1.70601,0.81567 -1.87666,1.4715c-0.22441,0.86234 -0.009,1.75433 -0.009,2.73834c0,0.98401 0,1.67465 0,2.74734c0,0.91931 0,1.578 0,2.586c0,0.79199 0,1.81934 0,2.51398c0,1.02734 -0.09145,1.98282 0.036,2.82733c0.14526,0.96255 0.7271,1.54794 0.90685,2.47803c0.16415,0.8494 0.02332,1.92822 0.7625,2.29916c0.67795,0.34021 0.97234,1.035 1.57866,1.87881c0.49463,0.68835 1.28281,1.11426 2.06784,1.16486c0.99976,0.06442 1.35567,0.66415 1.758,1.29916c0.52599,0.83017 1.4075,0.70398 2.5155,0.70532c0.85866,0.00104 1.722,0 2.62201,0c0.91931,0 1.75717,0.09387 2.73099,-0.00015c0.86703,-0.08371 1.34485,-0.90591 2.207,-0.98917c0.92642,-0.08948 1.69867,-0.01068 2.64001,-0.01068c1.008,0 1.82675,-0.108 2.15997,-0.85068c0.36313,-0.80936 1.03494,-1.12848 2.13068,-1.14932c0.76785,-0.01459 1.80991,0.28223 2.55066,-0.16666c0.77197,-0.4678 1.5,-0.83334 2.33334,-0.83334c0.83334,0 1.65067,-0.19669 2.02084,-1c0.3627,-0.78711 1.16431,-0.98932 2.09515,-1c1.0506,-0.01202 1.70963,0.02289 2.71735,0c0.7926,-0.01801 1.63663,-0.31931 2.51398,-0.64734c0.8873,-0.33176 1.81934,-0.35251 2.65268,-0.35266c0.97833,-0.00018 1.65079,-0.19662 2.02084,-1c0.36264,-0.78723 1.45813,-0.70355 1.9375,-1.54166c0.46768,-0.81769 0.07791,-1.76239 0.54166,-2.4375c0.46863,-0.68219 0.5,-1.50485 0.5,-2.36816c0,-1.02734 0,-1.974 0,-2.65268c0,-0.97867 0,-1.884 0,-2.82535c0,-0.69064 -0.16418,-1.61368 -0.64734,-2.28448c-0.47336,-0.65723 -0.84326,-1.41446 -1.26733,-2.17683c-0.42978,-0.77264 0.14117,-1.93501 -0.65332,-2.54401c-0.60202,-0.46146 -1.37936,-0.71156 -1.43335,-1.65199c-0.04639,-0.80809 -0.7645,-1.44191 -0.98798,-2.164c-0.29614,-0.95691 -0.10532,-1.90611 -0.86136,-2.29199c-0.84576,-0.43167 -1.61908,-0.83929 -2.06665,-1.62933c-0.37054,-0.65407 -0.92581,-1.03082 -1.74933,-1.59868c-0.68604,-0.47305 -1.02078,-1.22237 -1.39468,-1.98267c-0.37457,-0.76167 -1.29755,-0.73978 -2.31332,-0.86133c-0.96295,-0.11523 -1.58984,-0.59854 -2.604,-0.86783c-0.75656,-0.20088 -1.67422,-0.10243 -2.53732,-0.12151c-0.94305,-0.02084 -1.21271,-0.81461 -1.65335,-1.43201c-0.4946,-0.69298 -1.664,-0.56799 -2.58331,-0.56799c-0.90002,0 -1.59467,0 -2.62201,0c-0.94666,0 -1.79999,0 -2.74133,0c-0.76801,0 -1.70963,0.02289 -2.71735,0c-0.7926,-0.01801 -1.64337,-0.30196 -2.34131,-0.57466c-0.93224,-0.36424 -1.70935,-0.42467 -2.65068,-0.42534c-1.008,-0.00072 -1.8,0 -2.82733,0c-0.69467,0 -1.722,0 -2.66867,0l-0.67867,0" id="svg_8" stroke-width="2" stroke="#000" fill="none"/>
  <path t="12418,12456,12461,12461,12465,12465,12468,12473,12473,12474,12475,12478,12478,12479,12481,12481,12486,12486,12486,12486,12489,12489,12491,12491,12492,12494,12494,12496,12496,12498,12498,12499,12499,12501,12501,12506,12506,12507,12507,12507,12507,12508,12508,12509,12509,12510,12510,12511,12512,12512,12523,12523,12525,12525,12525,12525,12525,12525,12525,12525,12526,12526,12526,12527,12529,12529,12531,12531,12533,12533,12536,12536,12540,12544,12544,12544,12546,12548,12552,12552,12554,12557,12557,12562,12568,12568,12577,12577,12681,12687,12692,12694,12695,12698,12701,12701,12706,12706,12709,12710,12713,12716,12716" d="m259,262c0,1.82535 0,2.83334 0,3.62534c0,1.02734 0,1.72198 0,2.74933c0,0.94666 -0.1546,1.63632 0.00134,2.73868c0.11157,0.78864 0.92865,1.32361 0.98798,2.07199c0.08392,1.05875 -0.07706,1.99008 0.03201,2.64001c0.17465,1.04062 0.93185,1.45193 1.41068,2.05865c0.65918,0.83524 0.56799,1.94934 0.56799,2.74133c0,0.85867 -0.07623,1.72559 0.00449,2.62201c0.08371,0.92975 0.57437,1.72528 0.82886,2.586c0.22888,0.77408 -0.00186,1.6907 0.28098,2.51398c0.29001,0.84415 1.24713,1.14633 1.71503,2.13669c0.30185,0.63889 0.15054,1.77924 0.22781,2.44016c0.12466,1.06653 0.2955,1.7865 0.44284,2.57584c0.14734,0.78934 0.38232,1.82779 0.46399,2.76666c0.09143,1.05115 -0.08899,2.0694 0.604,2.564c0.61743,0.44064 1.42133,0.8158 1.43201,1.65335c0.01099,0.86325 -0.02271,1.80487 0.14401,2.39331c0.42166,1.4884 0.74005,1.99402 0.99197,2.59601c0.27332,0.65308 0.56622,1.33963 0.86401,2.04752c0.29956,0.71213 0.6239,1.40179 1.33334,3.3125c0.19034,0.51263 0.37485,1.38531 0.69598,2.25598c0.33936,0.9201 1.13568,1.27905 1.63733,2.07733c0.46979,0.74756 0.23984,1.82468 0.3905,2.586c0.1839,0.92926 0.56015,1.60538 0.89468,2.49469c0.35043,0.93158 0.92975,1.55319 1.34283,2.09998c0.64603,0.8551 1.27902,1.45984 1.62,2.22202c0.32126,0.71808 -0.02438,1.95093 0.65332,2.34799c0.64862,0.38004 1.25909,0.97714 1.59866,1.91602c0.25351,0.70093 0.76224,1.48294 0.82266,2.34131c0.06583,0.93509 0.01068,1.20401 0.01068,0.3045c0,-0.96317 0,-1.65381 0,-2.7265c0,-0.91931 0,-1.75266 0,-2.586c0,-0.91931 0,-1.81934 0,-2.51398l0,-1.02734l0,-0.94666l0,-0.85333" id="svg_9" stroke-width="2" stroke="#000" fill="none"/>
  <path t="12929,12973,12977,12981,12981,12988,12990,12990,12993,12993,12993,12996,12996,12996,12999,12999,13001,13003,13003,13007,13007,13008,13009,13009,13010,13010,13012,13012,13013,13015,13015,13016,13016,13023,13024,13024,13024,13024,13024,13024,13025,13026,13026,13028,13028,13029,13031,13031,13033,13033,13034,13034,13036,13036,13038,13040,13040,13042,13044,13048,13048,13049,13050,13050,13057,13057,13063,13068,13068,13157,13161,13166,13166,13171,13171,13174,13176,13177,13181,13181,13185,13191,13191,13195,13195,13200,13200,13203,13207,13207" d="m279,270c-2.08267,0.80133 -2.62921,1.47168 -2.87851,2.32132c-0.24228,0.82568 -0.10449,1.79483 -0.12149,2.84534c-0.01068,0.65894 -0.30988,1.69012 -0.85068,2.20801c-0.5582,0.53458 -1.11102,1.44812 -1.14667,2.14133c-0.05054,0.98273 -0.00266,1.96802 -0.00266,2.83133c0,0.90002 0,1.81934 0,2.65268c0,0.97882 0,1.80984 0,2.76935c0,0.7515 0,1.54797 0,2.54398c0,0.84 0,1.80267 0,2.57068c0,0.94135 0,1.94934 0,2.74133c0,1.02734 0,1.72198 0,2.78134c0,0.73334 0,1.57864 0,2.30399c0,0.78934 0,1.95334 0,2.9035c0,0.97916 -0.10699,1.88376 0.05716,2.73315c0.17975,0.93008 0.76459,1.51501 0.90683,2.47803c0.1474,0.9978 -0.01785,1.80185 0.03867,2.65866c0.05728,0.86862 0.61389,1.58139 1.14667,2.14133c0.75504,0.79352 0.84,1.54913 0.85068,2.49066c0.0119,1.0506 -0.29919,1.8277 0.22134,2.64117c0.47021,0.7348 0.7785,1.40948 0.77866,2.24283c0.00018,0.97833 0.3703,1.73264 1,2.02084c0.90411,0.41382 0.99548,1.33096 1,2.2265c0.00461,0.91931 -0.54581,2.29251 0.35266,2.63382c0.64847,0.24634 0.64734,-1.20248 0.64734,-2.05582c0,-0.94135 0,-1.70935 0,-2.6507c0,-1.008 0,-1.79999 0,-2.65866c0,-0.86331 0,-1.89066 0,-2.83731c0,-0.67868 0,-1.65735 0,-2.56268c0,-0.94135 0,-1.63199 0,-2.616l0,-0.98401l0,-0.69064" id="svg_10" stroke-width="2" stroke="#000" fill="none"/>
  <path t="13421,13493,13497,13497,13499,13499,13501,13504,13504,13506,13508,13508,13508,13511,13513,13513,13515,13515,13518,13518,13520,13523,13523,13525,13525,13527,13527,13529,13531,13531,13534,13534,13541,13541,13541,13541,13541,13542,13542,13544,13544,13545,13546,13548,13548,13549,13557,13557,13557,13558,13558,13558,13558,13558,13558,13559,13561,13561,13563,13563,13568,13574,13574,13576,13576,13576,13581,13581,13582,13582,13586,13588,13588,13592,13600" d="m279,274c0,1.82535 0,2.83334 0,3.62534c0,1.02734 0,1.72198 0,2.74933c0,0.94666 -0.1546,1.63632 0.00134,2.73868c0.11157,0.78864 0.92865,1.32361 0.98798,2.07199c0.08392,1.05875 0.01068,1.98132 0.01068,2.64001c0,1.008 0,1.79999 0,2.82733c0,0.69464 0,1.72198 0,2.66864c0,0.85333 -0.00439,1.79468 0,2.56268c0.00534,0.93073 0.4906,1.64026 0.91467,2.40265c0.42978,0.77264 0.08533,1.71335 0.08533,2.54669c0,0.91931 -0.06989,1.84271 0.11432,2.62833c0.23151,0.98737 0.73883,1.75159 1.035,2.27701c0.5217,0.92554 0.82983,1.73984 0.85068,2.74533c0.01431,0.69049 -0.09311,1.81088 0.35266,2.46783c0.46881,0.69092 0.64508,1.39999 0.64734,2.42282c0.00208,0.94717 0,1.68784 0,2.39734c0,1.19598 0,1.87866 0,2.57733c0,1.31732 -0.23581,2.20032 0.11432,2.92734c0.36963,0.76749 1.71268,0.83621 1.88303,1.60999c0.20181,0.91675 0.00266,1.62933 0.00266,2.61334c0,0.98666 0,1.74667 0,2.66666c0,0.78152 0,1.57202 0,2.69052c0,0.89099 0,1.7955 0,2.65881c0,0.85867 0.00015,1.80518 0.03601,2.62268l0.46399,0.84048l0.47916,0.5625" id="svg_11" stroke-width="2" stroke="#000" fill="none"/>
  <path t="14040,14095,14099,14099,14101,14101,14104,14104,14108,14108,14110,14110,14113,14115,14115,14116,14117,14120,14120,14123,14123,14140,14141,14142,14142,14142,14142,14142,14142,14142,14142,14143,14143,14143,14143,14146,14148,14148,14151,14153,14153,14155,14155,14159,14159,14161,14162,14162,14165,14165,14167,14170,14170,14173,14175,14175,14179,14179,14183,14183,14184,14186,14190,14194,14194,14200,14200,14217,14248,14249,14342,14342,14349,14351,14351,14482,14501,14512,14512,14515,14524,14536,14536,14544,14555,14555,14557,14557,14568,14574,14574,14590,14607,14720,14720,14743,14743,14749,14755,14755,14760,14766,14766,14771,14771,14775,14775,14779,14784,14784,14788,14788,14792,14796,14796,14799,14799,14805,14807,14807,14809,14816,14821,14821,14825,14825,14834,14840,14840,14845,14845,14849,14857,14857,14864,14867,14867,14889,14890,14901,14904,14904,14913,14916,14920,14920,14922,14926,14926,14930,14930,14935,14941,14941,14946,14946,14953,15021,15021,15024,15024,15035,15049,15049,15051,15059,15059,15062,15062,15067,15067,15075,15080,15080,15084,15086,15097,15097,15193" d="m250,343c1.82533,-0.01068 2.82288,-0.18845 3.5,-0.5c0.97003,-0.44635 1.68077,-0.39487 2.616,-0.50266c0.78101,-0.09003 1.50925,-0.7366 2.23132,-1.29202c0.74219,-0.57086 1.53668,-0.70398 2.47803,-0.70532c1.008,-0.00143 1.64374,-0.24094 2.34399,-0.716c0.73755,-0.50034 1.80933,-0.284 2.58331,-0.284c0.90002,0 1.76895,0.07516 2.69669,-0.03201c0.71246,-0.08231 1.88452,-0.46631 2.42148,-0.63199c0.60309,-0.1861 1.94229,-0.6127 2.65002,-0.836c0.71228,-0.2247 1.41351,-0.44684 2.0925,-0.64801c1.21744,-0.36072 2.18201,-0.62976 2.92398,-0.74399c0.96225,-0.14813 1.96268,-0.108 2.94669,-0.108c0.69064,0 1.76334,0 2.68265,0c0.83334,0 1.66669,0 2.586,0c0.90002,0 1.59467,0.00018 2.62201,0c0.9465,-0.00018 1.96384,0.12674 2.45599,-0.56799c0.52026,-0.73441 0.81583,-1.42133 1.82202,-1.43201c0.69461,-0.00735 1.72198,0 2.66864,0c0.85333,0 1.79468,0 2.56268,0c0.94135,0 1.72739,0.39999 2.66934,-0.03601c0.75021,-0.34726 1.3075,-0.94598 2.28,-0.96399c0.91916,-0.01703 1.81934,0 2.51398,0c1.02734,0 1.974,0 2.82733,0c0.94135,0 1.72534,0.15173 2.64001,-0.02133c0.89151,-0.16867 0.75607,-1.72821 1.61066,-1.896c0.70584,-0.13858 0.57614,1.40134 0.57468,2.09198c-0.00226,1.06369 -0.54773,1.64435 -0.91599,2.39468c-0.34998,0.7131 -0.55573,1.625 -0.91736,2.59732c-0.23203,0.62384 -0.63168,1.53589 -1.31598,1.84802c-0.81018,0.36957 -0.66516,1.33624 -0.88669,2.12399c-0.25989,0.92419 -0.89029,1.40579 -0.96664,2.34399c-0.0661,0.8125 -0.70151,1.45761 -1.51468,1.51468c-0.98026,0.06879 -1.96667,0.00266 -2.65732,0.00266c-1.07269,0 -1.992,0 -2.82535,0c-0.97867,0 -1.75266,0 -2.65268,0c-0.86331,0 -1.72198,0 -2.66864,0c-0.85333,0 -1.79468,0 -2.56268,0c-0.94135,0 -1.94934,0 -2.74133,0c-0.85867,0 -1.72198,-0.00009 -2.74933,0c-0.9465,0.00009 -1.7103,-0.18741 -2.5155,0.35266c-0.68655,0.46048 -1.43115,0.64734 -2.28448,0.64734c-0.94135,0 -1.70935,0 -2.6507,0c-1.008,0 -1.79999,0 -2.82733,0c-0.69464,0 -1.72198,0 -2.66864,0c-0.67868,0 -1.99777,-0.26938 -2.51202,0.33334c-0.5499,0.64453 -0.72397,1.57291 -1.51849,1.65765c-1.01709,0.10849 -1.9809,-0.09473 -2.62732,0.02985c-0.95206,0.18347 -1.46695,0.96115 -2.34216,0.97916c-0.85315,0.01755 -2.02252,-0.25974 -2.55753,0.44266c-0.44223,0.58063 -0.82532,1.49747 -1.63849,1.55469c-0.85522,0.06018 -1.80399,0.00266 -2.65732,0.00266c-0.94135,0 -1.70935,0 -2.6507,0c-1.008,0 -1.80052,0.0289 -2.65732,-0.00134c-0.80891,-0.02856 -1.50667,-0.64514 -1.51733,-1.65134c-0.00737,-0.69461 0,-1.72198 0,-2.66864c0,-0.67868 0,-1.65735 0,-2.56268c0,-0.94135 0,-1.63199 0,-2.616c0,-0.98401 -0.22375,-1.87704 0.0045,-2.73834c0.21964,-0.82877 0.91017,-1.33099 0.991,-2.11349l0.0045,-1.08566" id="svg_12" stroke-width="2" stroke="#000" fill="none"/>
 </g>
 <g display="none">
  <title>muse_image</title>
  <image xlink:href="http://www.galaxyguitar.com/images/acoustic777.jpg" id="muse" height="480" width="360" y="0" x="140"/>
 </g>
 <g display="none">
  <title>bbox</title>
  <rect stroke="#f00" fill="none" stroke-width="3" height="429" width="184.5" y="6" x="252.5" id="bbox"/>
 </g>
</svg>
