<svg width="640" height="480" xmlns="http://www.w3.org/2000/svg" xmlns:svg="http://www.w3.org/2000/svg" xmlns:xlink="http://www.w3.org/1999/xlink">
 <!-- Sketchy ANNOTATION
  ImageNet ID: n02676566_7844
  URL: http://farm4.static.flickr.com/3388/3298944812_993b6c1c2c.jpg
  Image Width: 330
  Image Height: 500
  BBox X: 26
  BBox Y: 12
  BBox Width: 261
  BBox Height: 471
  Exposure: 2000ms
  Synset Label: guitar
  Synset ID: n03467517
  Worker Tag: ivory guitar
  Sanity Check: 
   Saved
  Comment: 
   {}
  Worker ID: AYSG3J2U3UF1Y
  Assignment ID: 33LKR6A5KEK6ZJCXMHV9NEX1BS3T1T
  HIT ID: 3TX9T2ZCB91TZC35ZV4AD8TROJHZWJ
  Work Time: 137s
  Worker Score: 0.7857
 END ANNOTATION -->
 <g display="inline">
  <title>Layer 1</title>
  <path t="0,408,424,440,450,463,473,493,504,520,545,556,586,616,616,626,656,722,1060,1084,1120,1140,1166,1166,1190,1200,1206,1220,1232,1243,1256,1286,1302,1311,1326,1361,1368,1377,1393,1402,1432,1457,1484,1554,1624,1624,1664,1796,1822,1846,1851,1866,1892,1932,1932,1972,2021,2160,2254,2306,2336,2336,2350,2376,2393,2447,2473,2473,2499,2594,2655,2669,2669,2699,2741,2755,3173,3183,3199,3219,3271,3312,3312,3313,3315,3340,3411,3477,3501,3506,3517,3530,3546,3557,3583,3597,3613,3643,3652,3673,3709,3733,3742,3749,3762,3789,3805,3855,3885,3905,3924,3961,3985,4017,4027,4046,4087,4107,4127,4153,4202,4216,4232,4268,4288,4308,4461,4607,4607,4611,4630,4677,4717,4773,4839,4919,4945,4999,5050,5065,5120,5120" d="m404,51c-1.564,0.61067 -1.77652,1.5138 -2.35718,2.2955c-0.49979,0.67282 -1.32373,0.98737 -1.92682,1.6205c-0.54688,0.57412 -0.53384,1.54353 -1.15201,2.05867c-0.63321,0.52768 -1.7627,0.55734 -2.39734,1.192c-0.63464,0.63465 -0.56577,1.54258 -1.16666,2.3125c-0.48956,0.62729 -1.70422,0.40563 -1.98932,1.1315c-0.32532,0.82829 -0.47662,1.62542 -0.88934,2.48933c-0.40732,0.85266 -0.86517,1.43797 -1.08533,2.3c-0.24506,0.95964 -0.75266,1.47718 -1.02533,2.21066c-0.30283,0.81461 -0.67249,1.43323 -1.06335,2.09383c-0.46475,0.78545 -0.72421,1.62202 -0.94867,2.49417c-0.20612,0.8009 -0.67111,1.29813 -1.00934,2.19067c-0.27728,0.73174 -1.18231,1.01429 -1.70532,1.69466c-0.46988,0.61127 0.12723,1.73858 -0.34116,2.55883c-0.46432,0.81317 -0.94284,1.35717 -0.94284,2.15717c0,0.89999 0,1.8 0,2.7c0,0.9 0,1.8 0,2.7c0,0.9 -0.0372,1.80087 0,2.60001c0.04272,0.91764 0.60718,1.68316 1.28534,2.11466c0.77505,0.49316 1.81467,0.08533 2.71466,0.08533c0.79999,0 1.7265,-0.18374 2.60001,0.036c0.86282,0.21706 1.59659,0.92127 2.39999,0.964c0.79886,0.04249 1.8226,-0.4112 2.64282,0.05717c0.81317,0.46433 1.35718,0.94283 2.15717,0.94283c0.90002,0 1.87146,-0.32695 2.67917,0.02084c0.78891,0.33969 1.46017,0.49718 2.16367,-0.0735c0.61868,-0.50189 1.13086,-1.21739 1.57852,-2.04733c0.34933,-0.64764 0.90652,-1.35614 1.42599,-1.95267c0.56918,-0.65362 1.05829,-1.36829 1.31665,-2.34734c0.22983,-0.87091 -0.08801,-1.8086 0.03616,-2.69983c0.11172,-0.8019 0.97125,-1.25589 0.99985,-2.10017c0.03046,-0.89948 -0.32251,-1.93841 0.16666,-2.63334c0.50333,-0.71502 1.50385,-0.97353 1.8125,-1.6875c0.34897,-0.80721 -0.17404,-1.80085 0.02219,-2.67783c0.18057,-0.80704 0.9787,-1.23681 0.99866,-2.10133c0.02298,-0.99525 0.66602,-1.50881 0.97916,-2.22083c0.34985,-0.79554 0.74686,-1.35293 1.01016,-2.08983c0.33289,-0.93171 0.10016,-1.8067 0.58536,-2.41467c0.49838,-0.6245 0.41992,-1.57468 0.42532,-2.47467c0.00534,-0.88938 0.77481,-1.43661 0.99551,-2.2045c0.24738,-0.86067 0.00449,-1.7955 0.00449,-2.6955c0,-0.9 0,-1.8 0,-2.7c0,-0.9 0.38562,-1.82339 -0.05716,-2.54284c-0.45343,-0.73676 -1.50037,-0.76234 -2.33218,-1.33183c-0.66467,-0.45507 -1.01431,-1.21832 -1.69467,-1.74133c-0.61127,-0.46989 -1.616,-0.284 -2.55881,-0.34117l-0.44119,-0.65883l-0.91599,-0.284l-0.79999,0" id="svg_1" stroke-width="2" stroke="#000" fill="none"/>
  <path t="5947,6155,6185,6205,6265,6331,6347,6387,6406,6420,6426,6447,6466,6466,7315,7338,7510,7686,7732,7814,7838,7878,7944,8156,8236,8266,8414,8429,8429,8438,8458,8520,8580,8614,8630,8660,9044,9064,9064,9124,9184,9226" d="m402,50c-1.70001,0 -2.60001,0 -3.5,0c-0.89999,0 -1.83865,0.27026 -2.7955,-0.0045c-0.76794,-0.22052 -1.25534,-0.9356 -2.00449,-1.34816c-0.83856,-0.46179 -1.45026,-0.92928 -1.86667,-1.64734c-0.42047,-0.72506 -1.43329,-1.00006 -2.33334,-1c-0.8894,0.00006 -1.5914,0.72417 -0.88934,0.98933c0.83203,0.31425 1.78934,0.01067 2.68933,0.01067c0.90002,0 2.08295,0.39477 2.61469,-0.28533c0.56583,-0.72369 0.08533,-1.81467 0.08533,-2.71467c0,-0.8 -0.00323,-1.79018 -0.80133,-1.99866c-0.87134,-0.22762 -1.62125,-0.68684 -2.49866,-0.94417c-0.8642,-0.25345 -1.29272,-0.99471 -2.12534,-0.99983c-0.83279,-0.00512 -0.57333,1.46 -0.57468,2.42183l0,0.92083l0,0.9" id="svg_2" stroke-width="2" stroke="#000" fill="none"/>
  <path t="10048,10456,10461,10502,10517,10556,10579,10608,10662,10738,10768,10810,10840,11066,11066,11132,11182,11262,11284,11334,11616,11626,11666,11666,11696,11738,11808,12266,12358,12388,12412,12488,12630,12666,12670,12692,12720,12720,12736,12772,12776,12972,13004,13068,13075,13094,13124,13220,13270,13336" d="m391,59c-1.60001,-0.57467 -2.43616,-1.04419 -3.02533,-1.57467c-0.58298,-0.52489 -0.89215,-1.37411 -1.58533,-1.98933c-0.65842,-0.58437 -1.26324,-1.16159 -2,-1.42533c-0.83737,-0.29977 -1.83389,0.0848 -2.58936,-0.29467c-0.86719,-0.43558 -1.59998,-0.71533 -2.5,-0.716c-0.89999,-0.00067 -1.7374,0.06535 -2.32532,0.57467c-0.64862,0.56191 -0.75943,1.36444 0.12534,1.42533c0.89786,0.06179 1.69998,0 2.60001,0c0.89999,0 1.85773,0.30478 2.68933,-0.01067c0.72916,-0.27658 0.61133,-1.38934 0.61066,-2.28933c-0.00067,-0.89867 -0.35587,-1.67141 -1.29999,-1.7c-0.8996,-0.02725 -1.80002,0 -2.70001,0c-0.79999,0 -1.70007,-0.01066 -2.60001,0c-0.87933,0.01042 -1.39999,0.6106 -1.39999,1.5c0,0.8894 0.37582,1.63124 1.05267,2.14734c0.65762,0.50144 1.64734,0.35266 2.54733,0.35266l0.89999,0" id="svg_3" stroke-width="2" stroke="#000" fill="none"/>
  <path t="14109,14360,14374,14390,14430,14456,14466,14466,14480,14486,14521,14566,14576,14602,14602,14708,14980,15010,15070,15292,15434,15454,15464,15490,15570,15938,15978,16004,16040,16140" d="m386,76c-1.2215,-0.8785 -2.23215,-0.75577 -2.91599,-1.284c-0.6275,-0.48471 -1.43405,-0.58434 -2.18402,-0.93734c-0.77551,-0.36504 -1.41495,-0.93715 -1.98401,-1.49467c-0.6727,-0.65903 -1.28119,-1.1553 -2.116,-1.28533c-0.91547,-0.14259 -1.62418,-0.43917 -2.36398,-1.02399c-0.67822,-0.53615 -1.23773,-1.00121 -2.13602,-0.97467c-0.94412,0.02789 -1.31445,0.70461 -1.29999,1.6c0.01559,0.96455 0.70258,1.45611 1.5,1.9c0.79361,0.44176 1.44284,0.14283 1.5,-0.8l0,-0.89999l0,-0.9" id="svg_4" stroke-width="2" stroke="#000" fill="none"/>
  <path t="17297,17740,17740,17900,17926,17940,17940,17949,17956,17956,17966,17975,17976,17992,17997,18152,18198,18354,18702,18732,18824,18884,18884,18904,19162,19176,19202,19206,19242" d="m415,62c1,-1 1.79999,-1 2.70001,-1c0.82083,0 1.784,0 2.64731,0c0.89551,0 1.86887,-0.07949 2.53802,0.08533c0.96445,0.23756 1.60992,1.05441 2.16281,1.5575c0.61612,0.56062 1.74875,-0.00599 2.51584,0.39317c0.7594,0.39515 1.49771,1.17932 1.43585,2.06383c-0.05649,0.80755 -1.09985,0.90017 -1.99985,0.90017c-0.79999,0 -1.81339,0.39338 -2.564,-0.036c-0.69064,-0.39509 -0.436,-1.564 -0.436,-2.464l0,-0.9" id="svg_5" stroke-width="2" stroke="#000" fill="none"/>
  <path t="20589,20797,20817,20837,20837,20846,20857,20863,20863,20873,20876,20917,20917,21517,21937,21940,22435,22566,22571" d="m413,72c1.71466,1.084 2.27344,1.76527 3,2.16666c0.77271,0.42688 1.18143,1.34285 2.10001,1.71184c0.84271,0.33852 1.81506,0.06551 2.37915,0.64233c0.63449,0.64881 1.08737,1.42825 1.87268,1.47466c0.99988,0.0591 1.60651,0.5045 1.00082,1.05717l-0.43668,0.66334l-0.79449,0.0625l-0.12164,-0.8785" id="svg_6" stroke-width="2" stroke="#000" fill="none"/>
  <path t="24211,24402,24402,24413,24413,24413,24413,24422,24422,24422,24428,24428,24428,24439,24439,24442,24442,24442,24452,24453,24468,24721,25124,25274,25290,25310,25314,25325,25330,25370,25370,25609" d="m406,85c2.01434,0 2.82132,0 4,0c0.60001,0 1.5,-0.00008 2.39999,0c0.89984,0.00008 1.79285,-0.03318 2.64285,0.05717c1.04272,0.11083 1.73026,0.35874 2.55582,0.74416c0.81207,0.37913 1.62866,0.81944 2.56799,1.19867c0.77478,0.31279 1.55969,0.61087 2.5,0.83334c0.78339,0.18534 1.76996,-0.0824 2.62885,0.17117c0.74896,0.22112 0.0939,0.99017 -0.7955,0.9955c-0.89996,0.00539 -1.79999,0 -2.70001,0c-0.89999,0 -1.79999,0 -2.59998,0l-0.90002,0" id="svg_7" stroke-width="2" stroke="#000" fill="none"/>
  <path t="26802,27020,27020,27025,27034,27034,27044,27044,27050,27060,27064,27064,27074,27074,27088,27088,27090,27090,27106,27106,27116,27116,27126,27126,27130,27140,27140,27146,27156,27166,27180,27180,27188,27206,27213,27213,27222,27227,27238,27246,27252,27266,27266,27278,27292,27302,27306,27307,27319,27328,27332,27342,27348,27348,27368,27368,27372,27372,27382,27398,27398,27408,27419,27428,27428,27438,27449,27464,27464,27468,27478,27488,27488,27494,27508,27508,27528,27528,27534,27534,27544,27550,27561,27572,27575,27591,27601,27601,27611,27614,27630,27632,27640,27650,27656,27666,27666,27670,27680,27690,27690,27697,27706,27706,27710,27710,27721,27721,27730,27730,27737,27746,27747,27750,27750,27760,27772,27772,27772,27776,27776,27787,27787,27792,27792,27802,27816,27816,27826,27842,27854,27856,27867,27872,27882,27898,27908,27908,27908,27912,27922,27932,27941,27948,27948,27952,27952,27962,27962,27974,27978,27978,28004,28028,28036,28036,28068,28150" d="m385,88c-0.01068,2.78933 0.01169,3.56095 -0.436,4.37466c-0.46869,0.85187 -1.06219,1.40945 -1.39734,2.45867c-0.23489,0.73531 -0.06866,1.67311 -0.17734,2.57733c-0.11154,0.92807 -0.46857,1.61468 -0.98932,2.42267c-0.44476,0.69009 -0.9277,1.48304 -0.98932,2.34133c-0.06738,0.93901 -0.13361,1.74513 -0.72052,2.478c-0.44138,0.55115 -1.38129,1.24111 -1.84351,1.97267c-0.49722,0.78696 -0.49933,1.66483 -0.94666,2.37466c-0.44733,0.70983 -0.52225,1.54494 -0.92532,2.364c-0.42749,0.86871 -1.12241,1.45499 -1.49066,2.20534c-0.34998,0.7131 -0.39328,1.72919 -1.18384,2.30949c-0.69562,0.51061 -0.70465,1.2263 -1.25284,2.01134c-0.46921,0.67194 -0.53638,1.62611 -1.16818,2.10983c-0.67731,0.51856 -1.26721,1.13323 -1.56317,1.8c-0.38077,0.85777 -0.58264,1.6668 -0.92499,2.4955c-0.31888,0.77189 -1.58066,0.54374 -1.98199,1.409c-0.37729,0.81339 -0.4429,1.68771 -1.10883,2.17433c-0.7764,0.56737 -0.78503,1.35776 -1.18552,2.23717c-0.31592,0.69371 -0.96323,1.34383 -1.27866,2.05867c-0.45813,1.03828 -0.72098,1.8849 -1.08334,2.52533c-0.46442,0.82079 -1.07416,1.26144 -1.64816,2.00984c-0.44421,0.57919 -0.5784,1.6987 -0.98849,2.49016c-0.44647,0.86166 -0.59628,1.63423 -1.23685,2.27917c-0.6395,0.64386 -1.43024,1.08725 -1.47467,1.87267c-0.05032,0.88962 -0.30649,1.83733 -0.70898,2.40533c-0.62177,0.87744 -0.96896,1.60809 -1.49417,2.3575c-0.49173,0.70163 -0.63083,1.50534 -0.82217,2.38533c-0.18402,0.84631 -0.65152,1.72858 -1.2005,2.37866c-0.56097,0.66431 -1.16473,1.25969 -1.49466,1.92134c-0.42056,0.84335 -0.28128,1.82002 -0.70932,2.59999c-0.45096,0.82175 -1.14154,1.27766 -1.53867,2.03601c-0.40125,0.76625 -0.30212,1.7811 -0.83734,2.364c-0.56818,0.6188 -0.98767,1.45363 -1.42001,2.3c-0.33472,0.6553 -0.73782,1.42149 -0.78,2.38399c-0.03787,0.86432 -0.3006,1.82204 -0.88531,2.31467c-0.69916,0.58904 -1.57684,0.86412 -2.00351,1.854c-0.28198,0.65422 -0.59079,1.53827 -0.94318,2.51401c-0.22882,0.63361 -0.34518,1.66037 -0.74133,2.42267c-0.42343,0.8148 -0.73322,1.59859 -1.28665,2.23599c-0.46964,0.54086 -1.3746,1.20689 -1.77701,1.92734c-0.46609,0.83447 -0.32184,1.67816 -0.647,2.64467c-0.25504,0.75807 -1.22211,1.33649 -1.59317,2.0455c-0.34811,0.66513 -0.02963,1.85965 -0.54681,2.53183c-0.4743,0.61649 -0.60776,1.39549 -1.14935,2.05066c-0.47067,0.56937 -0.97391,1.31119 -1.34131,2.17601c-0.38998,0.91794 -0.47934,1.64709 -0.88535,2.31467c-0.53622,0.88167 -1.03195,1.69548 -1.19882,2.58383c-0.14951,0.79587 -0.87399,1.34402 -1.02518,2.12149c-0.19046,0.97946 -0.37512,1.83553 -0.97467,2.44534c-0.61203,0.6225 -0.86063,1.39749 -1.22134,2.31183c-0.25897,0.65643 -0.70569,1.55782 -1.13132,2.3215c-0.41339,0.74173 -0.73135,1.5 -1.22202,2.3l-0.39999,0.78932" id="svg_8" stroke-width="2" stroke="#000" fill="none"/>
  <path t="29281,29466,29466,29471,29471,29480,29480,29480,29488,29496,29497,29506,29506,29512,29512,29512,29522,29522,29522,29526,29526,29526,29537,29537,29546,29546,29546,29554,29554,29554,29562,29566,29566,29576,29576,29592,29604,29604,29616,29628,29632,29632,29642,29648,29658,29668,29672,29672,29682,29688,29699,29699,29708,29708,29712,29722,29722,29728,29738,29754,29754,29764,29778,29794,29794,29818,29828,29828,29844,29850,29860,29860,29870,29870,29885,29885,29894,29900,29900,29910,29914,29925,29930,29942,29950,29954,29954,29971,29971,29971,29980,29981,29996,29996,30008,30008,30010,30010,30020,30030,30031,30037,30037,30051,30051,30060,30060,30070,30076,30087,30087,30087,30093,30103,30112,30112,30116,30126,30132,30132,30142,30154,30154,30158,30166,30175,30182,30182,30192,30203,30203,30208,30208,30212,30222,30232,30232,30248,30254,30262,30262,30276,30276,30279,30292,30303,30314,30334,30334,30344,30368,30394,30394,30414,30414,30434,30450,30450,30454,30454,30464,30474,30480,30490,30494,30504,30514,30520,30530,30546,30556,30560,30570,30586,30596,30600,30600,30626,30636,30650,30666,30676,30682,30696,30708,30732,30756,30756,30778,30798,30812,30817,30828,30842,30853,30868,30878,30882,30894,30898,30898,30918,30934,30948,30964,30964,30978,30998,31007,31014,31030,31041,31058,31058,31060,31069,31084,31094,31094,31100,31120,31150,31160,31180" d="m402,92c-1.39999,0.872 -1.80051,1.60241 -2.29999,2.6c-0.30032,0.59984 -0.79025,1.6049 -1.10001,2.18933c-0.38788,0.73188 -0.99084,1.5835 -1.70001,2.31067c-0.49368,0.50623 -1.26199,1.16642 -1.69998,1.87067c-0.47205,0.75902 -0.685,1.56757 -1.08536,2.34667c-0.40091,0.7802 -0.94806,1.4401 -1.46198,2.07816c-0.64148,0.79643 -1.13101,1.61893 -1.53668,2.2045c-0.56903,0.82135 -1.21936,1.32513 -1.78265,2.4c-0.29794,0.56852 -0.32898,1.45872 -0.90268,2.39867c-0.38315,0.62773 -1.01749,1.05279 -1.784,1.96533c-0.5817,0.6925 -0.66602,1.54768 -1.00385,2.28417c-0.37512,0.81783 -1.25974,1.2328 -1.84149,1.92117c-0.58078,0.68722 -0.69452,1.67828 -0.80148,2.53066c-0.11398,0.90815 -0.83267,1.33337 -1.56384,1.92533c-0.56235,0.45528 -0.32458,1.54424 -0.79318,2.27467c-0.51318,0.79991 -1.23776,1.28485 -1.61749,2.1c-0.4122,0.88486 -0.84137,1.60522 -1.078,2.35717c-0.28391,0.90224 -0.63657,1.60042 -1.24283,2.48566c-0.52478,0.76628 -0.75717,1.45717 -1.2045,2.25717c-0.44733,0.8 -0.86023,1.65189 -1.216,2.3c-0.43674,0.79559 -1.15546,1.35994 -1.284,2.2c-0.12167,0.79529 -0.54181,1.4803 -1.19867,2.2c-0.53348,0.58452 -0.87769,1.48752 -1.30133,2.32083c-0.40128,0.78934 -0.44409,1.6555 -0.50134,2.59517c-0.04697,0.77115 -0.39706,1.73058 -0.79999,2.40001c-0.45325,0.75302 -0.98672,1.61723 -1.28268,2.284c-0.38077,0.85777 -0.9014,1.58025 -1.41599,2.2c-0.49991,0.60204 -0.38184,1.57826 -0.936,2.39999c-0.46042,0.68272 -1.22189,1.24359 -1.44266,2.14267c-0.17038,0.69388 -0.07477,1.73663 -0.47852,2.64751c-0.26636,0.60088 -0.95242,1.46193 -1.34283,2.21432c-0.40997,0.79015 -0.84149,1.55141 -1.13333,2.42883c-0.28076,0.84416 -0.64392,1.54823 -1.16666,2.33334c-0.42404,0.63689 -0.81116,1.67236 -1.02533,2.45866c-0.23578,0.86563 -0.54517,1.57518 -1.07449,2.35316c-0.50592,0.74362 -0.81293,1.56621 -1.25735,2.326c-0.54297,0.9283 -1.09277,1.49541 -1.35748,2.2115c-0.34634,0.93686 -0.15005,1.95016 -0.57068,2.68399c-0.39355,0.68657 -1.38861,1.2153 -1.6575,2.10001c-0.26266,0.8642 -0.04086,1.63033 -0.49316,2.51466c-0.46527,0.90968 -1.20413,1.23508 -1.64801,1.98666c-0.41348,0.70015 -0.74692,1.55128 -1.19998,2.39867c-0.3486,0.65201 -0.67667,1.45859 -1.00134,2.284c-0.35129,0.89311 -1.0274,1.55798 -1.42932,2.31467c-0.39737,0.74812 -0.22116,1.79521 -0.85333,2.40134c-0.63672,0.61047 -1.29474,1.23724 -1.716,2c-0.46918,0.8495 -0.67017,1.55855 -0.72049,2.44817c-0.04443,0.78542 -0.53854,1.57564 -1.21686,2.2305c-0.57828,0.55829 -0.61496,1.37863 -1,2.22134c-0.30579,0.6693 -0.76025,1.52341 -1.20398,2.29999c-0.41382,0.72424 -0.59918,1.50983 -1.01068,2.42534c-0.32031,0.71266 -1.01184,1.34843 -1.39734,2.34134c-0.24384,0.62798 -0.16248,1.80568 -0.77731,2.38666c-0.64352,0.60808 -1.07697,1.02921 -1.40002,1.836c-0.31598,0.78914 -0.97647,1.31525 -0.98932,2.21068c-0.01263,0.87932 -0.60959,1.40205 -1.05267,2.10449c-0.48691,0.7719 -0.83582,1.63647 -1.37265,2.27017c-0.50278,0.59351 -0.42352,1.50577 -0.93185,2.32533c-0.50095,0.80763 -1.31668,1.11531 -1.58566,2c-0.26196,0.86163 -0.67999,1.44983 -1.03632,2.22083c-0.36459,0.78889 -0.59818,1.42036 -1.04617,2.08984c-0.49213,0.73543 -0.76367,1.64296 -1.19601,2.48933c-0.33472,0.6553 -0.76025,1.52339 -1.20398,2.29999c-0.4137,0.72404 -0.12149,1.87383 -0.79617,2.4785c-0.66031,0.59181 -1.71762,0.33673 -1.7785,1.22151c-0.0618,0.89787 -0.35672,1.51227 -0.91599,2.18533c-0.55603,0.66916 -0.70184,1.42763 -1.10934,2.31467c-0.37338,0.81276 -0.77463,1.64609 -1.14133,2.39999c-0.3714,0.76361 -0.76804,1.5321 -1.186,2.3c-0.45767,0.84081 -1.15457,1.30899 -1.59018,2.05716c-0.42511,0.73013 -0.3833,1.6795 -0.77316,2.44284c-0.38452,0.7529 -0.17258,1.76956 -0.64117,2.5c-0.51318,0.79991 -1.24951,1.2795 -1.61749,2.09999c-0.35101,0.78262 -0.85867,1.60001 -1.19199,2.43335l-0.71185,0.38815" id="svg_9" stroke-width="2" stroke="#000" fill="none"/>
  <path t="33259,33480,33480,33490,33497,33516,33516,33536,33546,33546,33556,33572,33576,33596,33612,33636,33641,33642,33668,33682,33708,33719,33719,33732,33738,33748,33748,33762,33787,33804,33804,33828,33854,33874,33874,33883,33900,33924,33924,33940,33940,33960,33960,33964,33980,33990,34030,34039,34046,34046,34079,34096,34135,34143,34152,34166,34182,34206,34222,34242,34282,34282,34302,34312,34312,34328,34342,34418,34418" d="m325,205c-1,1 -0.93835,1.92093 -1.52084,2.47917c-0.72577,0.69554 -1.33676,1.10263 -1.53183,1.87267c-0.2319,0.9155 -0.76733,1.81789 -0.922,2.46283c-0.22717,0.94739 -0.93115,1.5722 -1.45065,2.16c-0.51511,0.58282 -0.48065,1.47243 -0.92734,2.32533c-0.39395,0.75223 -0.76642,1.47954 -1.22202,2.3c-0.4342,0.78194 -0.8342,1.52728 -1.25867,2.39999c-0.32083,0.65967 -0.72864,1.46837 -1.11398,2.3c-0.40399,0.87186 -0.53473,1.63707 -1.10535,2.34283c-0.59109,0.73108 -0.77377,1.39542 -1.03265,2.15717c-0.30176,0.88792 -0.75854,1.66405 -1.20001,2.39999c-0.4071,0.67862 -1.27576,1.25739 -1.66199,2.10001c-0.35245,0.76891 -0.78418,1.43947 -1.25269,2.18399c-0.42508,0.67552 -0.98175,1.64691 -1.5,2.2115c-0.66653,0.72612 -0.98145,1.53687 -1.58398,2.2205c-0.52673,0.59764 -1.11023,1.21857 -1.54935,2.084c-0.34268,0.67538 -0.91849,1.31297 -1.45065,1.916c-0.56644,0.64183 -0.64511,1.43245 -1.14133,2.05867c-0.52698,0.66505 -1.21866,1.07997 -1.65869,1.82666c-0.41284,0.70053 -0.75986,1.66272 -1.20132,2.39867c-0.4071,0.67862 -1.22974,1.28529 -1.81448,1.90001c-0.55774,0.58632 -0.92551,1.5 -1.33618,2.29999l-0.66382,0.70001l-0.46417,0.5" id="svg_10" stroke-width="2" stroke="#000" fill="none"/>
  <path t="35786,36078,36079,36088,36098,36104" d="m313,258c1,1 1,1.79999 1,2.70001l0,0.89999l0,0.89999" id="svg_11" stroke-width="2" stroke="#000" fill="none"/>
  <path t="36548,36799,36799,36803,36803,36814,36814,36823,36823,36823,36830,36830,36839,36839,36843,36864,36880,36885,36905,36926,36935,36950,36960,36960,36965,36990,36999,37031,37046,37056,37072,37082,37096,37096,37106,37121,37139,37139,37148,37151,37178,37178,37191,37192,37201,37208,37218,37218,37228,37228,37234,37244,37244,37247,37247,37274,37491,37511,37531,37540,37554,37556,37557,37567,37567,37570,37570,37583,37583,37593,37593,37596,37597,37597,37607,37613,37613,37622,37633,37653,37653,37676,37677,37692,37703,37719,37729,37743,37752,37752,37758,37769,37779,37779,37782,37799,37808,37808,37814,37824,37835,37838,37855,37865,37889,37905,37914,37915,37919,37931,37931,37935,37945,37945,37954,37954,37971,38051,38087,38091,38120,38363,38429,38687,38807,38823,38849,38883,38942,39049,39065,39074,39170,39211,39251,39266,39287,39343,39493,39493,39502,39509,39519" d="m314,264c-1.33334,-0.83334 -2.13104,-0.82877 -2.97849,-1.44266c-0.60675,-0.43951 -1.10303,-1.36588 -1.83585,-1.6055c-0.93436,-0.30551 -1.72391,-0.42191 -2.41766,-0.8385c-0.85437,-0.51303 -1.27063,-1.4104 -2.08917,-1.87051c-0.74713,-0.41998 -1.53488,-0.76614 -2.19968,-1.24283c-0.78973,-0.56628 -1.01608,-1.3958 -1.7645,-1.91467c-0.67303,-0.46661 -1.42999,-0.56264 -2.07632,-1.03265c-0.80707,-0.58691 -1.7457,-0.43257 -2.39551,-1.15251c-0.60748,-0.67305 -0.98166,-1.50848 -1.67883,-1.86417c-0.76645,-0.39104 -1.5076,-0.60977 -2.17465,-1.06133c-0.73682,-0.49879 -1.42795,-1.15102 -1.98935,-1.53867c-0.80753,-0.55759 -1.41074,-1.13408 -2.26132,-1.41068c-0.63245,-0.20567 -1.51648,-0.60379 -2.09052,-1.32083c-0.54709,-0.68338 -1.43353,-0.67126 -2.2955,-1.05716c-0.66907,-0.29951 -1.74698,-0.26279 -2.50983,-0.86884c-0.68872,-0.54716 -0.85452,-1.44113 -1.72549,-1.6945c-0.78638,-0.22876 -1.48703,-0.78244 -2.22717,-1.384c-0.58698,-0.47708 -1.34305,-0.99281 -2.08884,-1.41466c-0.85965,-0.48625 -1.77222,-1.67516 -2.11465,-1.00134c-0.34634,0.68153 1.36227,0.54283 1.888,1.15201c0.62122,0.71983 0.90436,1.45705 1.50934,2.04666c0.68216,0.66483 1.513,1.2372 2.14133,1.56799c0.88766,0.46735 1.37576,0.96904 2.20801,1.78267c0.54205,0.52994 1.33795,1.15927 1.98132,1.56667c0.62054,0.39293 1.16229,1.27704 1.89066,1.90001c0.54129,0.46297 1.04239,1.13495 1.30368,2c0.26312,0.8712 1.06149,1.12723 1.96933,1.8c0.61221,0.45369 0.79819,1.41379 1.37885,2.1955c0.49979,0.67282 1.30399,1.00685 1.92816,1.62183c0.58905,0.58038 1.08777,1.20346 1.81448,1.83984c0.68216,0.59735 0.93646,1.37973 1.60468,1.88565c0.69522,0.52637 1.60931,0.69962 2.2955,1.35718c0.61264,0.5871 1.23294,1.39639 2,1.83334c0.77988,0.44424 1.23773,0.95935 2.09982,1.16681c0.84012,0.20218 1.26819,0.84906 2.20016,1.00433c0.81766,0.13623 1.33694,0.77109 2.10001,1.38486c0.74664,0.60052 1.48853,0.54324 2.42535,0.62134c1.01648,0.08472 1.63895,0.52631 2.37466,1.18799c0.58838,0.52917 1.5,0.79907 2.39999,0.80133c0.89999,0.00223 1.79999,0 2.69998,0c0.90002,0 1.80441,0.08868 2.70001,0c0.8457,-0.08374 1.32318,-1.15442 0.77866,-1.87866c-0.48331,-0.64282 -1.19516,-1.10583 -1.77866,-1.62134c-0.63788,-0.56357 -1.07059,-1.26364 -2,-1.5c-0.82364,-0.20944 -1.23792,-0.79184 -2.09982,-1.00015c-0.83914,-0.20282 -0.72672,-1.25714 -1.06683,-1.99985c-0.36755,-0.80261 -1.12885,-1.29999 -1.71201,-2.09982l-0.34283,-0.77869" id="svg_12" stroke-width="2" stroke="#000" fill="none"/>
  <path t="40199,40497,40503,40513,40527,40543,40543,41147,41159,41172,41183,41183,41188,41199,41202,41203,41213,41222,41223,41253,41279,41295,41328,41349,41358,41375,41414,41431,41445,41445,41454,41470,41484,41494,41494,41510,41520,41536,41536,41560,41568,41591,41607,41632,41642,41666,41696,41706,42349,42423,42464" d="m285,246c-0.99866,0.88667 -0.68576,1.95352 -1.22134,2.75717c-0.44632,0.66968 -1.08691,1.28976 -1.42599,1.94283c-0.42236,0.81348 0.07651,1.66963 0.86884,2.1785c0.74625,0.47926 1.63297,0.13205 2.37851,0.73218c0.76285,0.61404 1.42917,1.14519 2.10001,1.442c0.84763,0.37505 1.40796,1.27817 2.09998,1.66199c0.82449,0.45728 1.87198,-0.04276 2.67917,0.30618c0.71399,0.30865 1.34909,0.5665 2.16367,1.03632c0.68686,0.39618 1.53717,0.56601 2.19052,1.1095c0.69,0.57397 0.71237,1.58313 1.66666,1.8125c0.87561,0.21045 1.61182,0.4632 2.5,0.85419c0.65765,0.28952 1.66754,0.08936 2.39999,0.60266c0.79004,0.55365 1.2525,1.35657 2.10001,1.54315c0.86908,0.19135 1.44141,0.77954 2.2045,1.01636c0.82178,0.25504 1.3942,0.69321 2.09683,1.0885c0.81696,0.45959 1.59866,0.87997 2.49866,0.91599l0.90002,0l0.89999,0" id="svg_13" stroke-width="2" stroke="#000" fill="none"/>
  <path t="44828,44980,44990,45020,45030,45046,45060,45060,45076,45089,45116,45136,45152,45160,45167,45167,45183,45248,45663" d="m281,232c0,1.8 0.01068,2.70006 0,3.60001c-0.01044,0.87935 -0.70569,1.36868 -1.19867,1.96933c-0.57083,0.69551 -0.77264,1.67221 -0.80133,2.63066c-0.02692,0.89944 -0.3136,1.56097 -0.94733,2.15266c-0.57959,0.54114 -1,1.35268 -1.13669,2.07935l-0.63199,0.65067l-0.28265,0.71866l0.08398,0.91333" id="svg_14" stroke-width="20" stroke="#fff" fill="none"/>
  <path t="49882,50306,50322,50376,50442,50442,50468" d="m287,246c0,1.8 -0.05716,2.64284 -0.83334,3.16667l-0.16666,0.83333l-0.08533,0.8l-0.48935,0.8" id="svg_15" stroke-width="2" stroke="#000" fill="none"/>
  <path t="52782,53202,53217,53232,53252,53266,53272,53293,53312,53322,53332,53348,53348,53378,53414,53418,53444,53458,53474,53494,53514,53540,53579,53580,53636,53670,53697,53726,53737,53783,53792,53807,53816,53872,53912,53928,53943,53951,53977,53984,53998,54024,54038,54038,54058,54074,54100,54104,54129,54139,54144,54170,54179,54210,54226,54276,54290,54303,54322,54355,54412,54421,54482,54482,54518,54532,54549,54549,54565,54583,54614,54628,54644,54653,54653,54679,54685,54720,54723,54759,54776,54776,54786,54816,54840,54867,54872,54882,54907,54912,54937,54953,54987,54992,55019,55042,55048,55073,55082,55098,55125,55139,55154,55165,55189,55194,55204,55229,55234,55271,55310,55325,55350,55380,55391,55447,55493,55504,55533,55583,55592,55593,55610,55639,55648,55652,55672,55673,55714,55754,55775,55794,55815,55840,55854,55880,55895,55895,55915,55936,55961,55971,55996,56003,56042,56067,56067,56067,56092,56107,56119,56134,56136,56162,56198,56199,56203,56243,56252,56279,56279,56308,56379,56405,56414,56432,56471,56485,56501,56537,56551,56551,56560,56577,56591,56617,56626,56643,56648,56663,56672,56686,56704,56713,56742,56762,56763,56782,56808,56833,56833,56849,56859,56875,56899,56925,56954,56955,56981,56988,57010,57044,57050,57090,57227,57247,57307,57469,57505,57529,57585,57624,57654,57666,57696,57711,57746,57786,57816,57817,57827,57834,57856,57898,57912,57933,57933,57949,57972,57981,58054,58084,58085,58108,58124,58136,58194,58220,58220,58246,58256,58260,58296,58316,58326,58337,58366,58376,58392,58422,58432,58456,58462,58472,58488,58503,58528,58552,58553,58562,58562,58579,58594,58594,58608,58619,58624,58648,58658,58675,58704,58714,58720,58760,58770,58800,58826,58836,58860,58880,58900,58918,58921,58943,58947,58964,58973,58982,58986,58998,59027,59043,59062,59068,59079,59082,59122,59143,59143,59174,59189,59280,59297,59311,59350,59391,59406,59430,59456,59480,59481,59496,59512,59523,59552,59566,59592,59616,59628,59629,59658,59682,59712,59722,59728,59754,59778,59794,59795,59808,59834,59844,59861,59874,59875,59891,59901,59911,59914,59925,59930,59952,59955,59970,59991,59997,60011,60020,60037,60051,60071,60076,60092,60112,60112,60127,60142,60143,60153,60157,60157,60172,60183,60193,60208,60213,60223,60233,60233,60251,60264,60264,60288,60292,60318,60344,60354,60354,60374,60408,60434,60454,60490,60530,60537,60560,60560,60570,60576,60596,60610,60616,60650,60667,60682,60692,60697,60718,60723,60734,60737,60747,60772,60778,60802,60802,60812,60818,60828,60838,60842,60852,60858,60868,60868,60885,60894,60894,60901,60908,60924,60934,60938,60964,60974,60974,60988,60998,61020,61044,61064,61064,61080,61094,61110,61120,61126,61140,61166,61166,61176,61180,61180,61191,61207,61216,61230,61247,61247,61257,61282,61297,61312,61312,61326,61326,61336,61336,61352,61363,61373,61373,61378,61385,61393,61402,61402,61418,61418,61432,61433,61443,61443,61464,61474,61474,61488,61501,61504,61517,61528,61554,61554,61564,61584,61604,61610,61620,61620,61634,61645,61650,61650,61667,61675,61675,61690,61706,61707,61718,61727,61732,61732,61741,61756,61757,61767,61771,61780,61797,61807,61813,61827,61827,61846,61846,61852,61863,61877,61886,61886,61893,61906,61928,61928,61942,61943,61949,61949,61969,61978,61978,61986,61986,61989,62002,62008,62013,62022,62028,62028,62048,62054,62054,62067,62088,62104,62104,62108,62118,62128,62135,62135,62151,62174,62174,62190,62190,62210,62210,62224,62240,62240,62251,62251,62254,62266,62280,62280,62296,62306,62320,62336,62346,62351,62352,62360,62370,62376,62386,62392,62402,62402,62413,62426,62442,62452,62456,62456,62468,62472,62484,62492,62492,62496,62496,62506,62522,62522,62522,62532,62538,62538,62562,62578,62588,62602,62628,62634,62656,62668,62668,62674,62684,62694,62700,62724,62724,62734,62740,62750,62755,62766,62774,62774,62783,62783,62790,62794,62804,62816,62817,62820,62820,62833,62833,62834,62844,62856,62860,62876,62876,62886,62886,62896,62910,62920,62937,62940,62950,62976,62992,62996,62997,63007,63032,63036,63056,63076,63088,63112,63128,63138,63158,63178,63178,63182,63193,63204,63208,63218,63224,63234,63239,63248,63258,63274,63274,63288,63288,63304,63304,63320,63320,63330,63330,63341,63344,63354,63354,63360,63360,63370,63380,63384,63384,63394,63410,63420,63436,63450,63460,63461,63466,63476,63477,63480,63490,63506,63516,63520,63540,63546,63556,63557,63572,63582,63586,63602,63602,63613,63614,63623,63623,63626,63636,63642,63652,63668,63668,63682,63682,63692,63702,63718,63732,63743,63748,63748,63763,63772,63798,63814,63829,63838,63838,63854,63871,63873,63887,63904,63905,63910,63921,63921,63937,63954,63974,63987,64000,64004,64026,64030,64030,64041,64041,64046,64057,64066,64066,64070,64080,64080,64096,64116,64116,64123,64126,64136,64147,64152,64153,64163,64186,64186,64193,64193,64206,64206,64216,64216,64226,64232,64242,64243,64258,64258,64282,64282,64288,64308,64322,64348,64354,64354,64364,64368,64380,64418,64418,64434,64444,64454,64474,64487,64504,64510,64581,64581,64601,64625,64650,64661,64676,64702,64722,64732,64732,64752,64772,64792,64792,64806,64813,64813,64823,64832,64838,64848,64852,64872,64888,64902,64918,64918,64954,64974,64998,65014,65014,65038,65054,65070,65087,65096,65121,65138,65170,65170,65196,65207,65220,65226,65240,65250,65257,65276,65277,65282,65282,65292,65296,65306,65322,65322,65336,65336,65336,65346,65363,65363,65376,65377,65377,65386,65402,65402,65413,65413,65418,65429,65430,65439,65439,65442,65443,65458,65468,65468,65479,65492,65508,65508,65518,65518,65524,65534,65534,65538,65538,65548,65558,65559,65574,65598,65620,65620,65640,65644,65655,65660,65671,65682,65684,65684,65703,65710,65721,65736,65736,65740,65750,65760,65766,65776,65777,65780,65790,65806,65806,65820,65820,65830,65840,65846,65857,65857,65872,65886,65896,65922,65942,65981,65982,66002,66042,66058,66072,66088,66104,66115,66124,66125,66138,66146,66164,66168,66179,66186,66204,66220,66234,66246,66246,66260,66300,66326,66366,66366,66380,66446,66457,66492,66532,66558,66628,66784,66785,66824,66854,66870,66896,66930,66976,67000,67012,67027,67052,67064,67064,67082,67096,67137,67158,67162,67188,67203,67203,67218,67229,67246,67254,67259,67268,67284,67324,67334,67354,67404,67444,67445,67486,67556,67584,67596,67616,67636,67672,67687,67702,67713,67718,67738,67768,67808,67834,67849,67874,67875,67898,67918,67940,67960,67971,67988,68003,68012,68050,68090,68130,68156,68202,68212,68236,68242,68242,68252,68278,68282,68295,68318,68322,68334,68343,68349,68358,68372,68372" d="m350,156c-1.70001,0 -2.6196,0.00194 -3.39999,-0.42534c-0.82257,-0.45038 -1.83215,-0.33043 -2.51599,-0.85866c-0.6275,-0.48471 -1.40616,-0.51895 -2.28268,-0.71733c-0.80847,-0.18298 -0.89911,-1.2451 -1.60266,-1.71333c-0.79932,-0.53197 -1.69681,-0.7885 -2.39734,-1.20134c-0.74667,-0.44003 -1.42746,-0.9124 -2.09683,-1.44116c-0.74097,-0.58533 -0.92899,-1.50146 -1.8045,-1.64301c-0.90353,-0.14607 -1.43716,-0.74678 -2.29999,-0.96384c-0.8735,-0.21974 -1.80002,-0.036 -2.70001,-0.036c-0.89999,0 -1.50751,-0.48264 -2.18533,-0.91467c-0.77365,-0.49312 -1.45255,-0.69554 -2.15067,-1.04933c-0.77133,-0.39088 -1.77658,0.11378 -2.66382,-0.03616c-0.85202,-0.144 -1.33563,-0.98183 -2.20016,-0.99983c-0.89984,-0.01874 -1.85349,0.18134 -2.70001,-0.16667c-0.67108,-0.27589 -1.49982,-0.82291 -2.39999,-0.83333c-0.89993,-0.01041 -1.80862,0.12399 -2.69983,-0.00017c-0.80188,-0.11172 -1.28705,-0.90567 -1.87485,-1.42517c-0.58282,-0.51511 -1.52533,-0.57466 -2.42532,-0.57466c-0.89999,0 -1.80862,0.12399 -2.69983,-0.00017c-0.80188,-0.11172 -1.25589,-0.97124 -2.10019,-0.99983c-0.89948,-0.03047 -1.80038,-0.02536 -2.59998,0c-0.9014,0.02859 -1.68661,0.53505 -2.30002,1.09984c-0.68539,0.63106 -1.51779,0.89175 -2.29999,1.3255c-0.82016,0.45479 -1.87952,0.25154 -2.47867,0.79616c-0.69769,0.63422 -0.78076,1.57472 -1.72134,1.76784c-0.86172,0.17693 -1.53043,0.46732 -2.116,1.09467c-0.64264,0.68849 -1.422,0.95145 -1.92682,1.6205c-0.56665,0.75098 -0.74506,1.60672 -1.52383,2.12883c-0.7059,0.47324 -1.51175,0.45192 -2.11734,1.08267c-0.54999,0.57286 -1.15689,1.14424 -1.74133,1.65866c-0.62344,0.54872 -1.42712,0.96294 -1.922,1.72084c-0.45407,0.6954 -0.88107,1.3306 -1.40985,2c-0.5853,0.74095 -1.45792,1.06726 -1.99548,1.65182c-0.53543,0.58224 -0.93558,1.44345 -1.64734,1.886c-0.8157,0.50717 -1.33679,1.01793 -1.97467,1.59201c-0.57874,0.52086 -1.07544,1.22615 -1.72983,1.62733c-0.77167,0.47307 -1.07239,1.27385 -1.29684,2.146c-0.20612,0.80089 -1.07623,1.2274 -1.57333,1.82666c-0.5101,0.61494 -0.08456,1.65221 -0.44617,2.45384c-0.33054,0.73274 -1.51773,0.89938 -1.85782,1.842c-0.22708,0.62939 -0.73242,1.37517 -1.08533,2.11484c-0.41559,0.87106 -0.21219,1.91269 -1.03601,2.39732c-0.65277,0.38402 -1.12372,0.94493 -1.57468,1.76668c-0.42804,0.77997 -0.40802,1.71133 -0.92532,2.39999c-0.46997,0.62567 -0.38858,1.56956 -0.85718,2.3c-0.51318,0.79991 -1.38394,1.23378 -1.60681,2.09999c-0.22443,0.87231 0.12332,1.89789 -0.38867,2.54733c-0.48453,0.61462 -0.57166,1.35597 -0.64868,2.25401c-0.08368,0.9758 -0.39398,1.64709 -0.79999,2.31467c-0.53622,0.88167 -1.15594,1.68097 -1.19867,2.584c-0.04253,0.89899 -0.44911,1.44621 -0.91467,2.18666c-0.47061,0.74847 0.13257,1.80751 -0.36932,2.54401c-0.47493,0.69693 -0.58434,1.51939 -0.93733,2.26933c-0.36504,0.77553 -0.77333,1.49995 -0.77867,2.39999c-0.00533,0.89998 0.01729,1.81134 -0.5,2.5c-0.46999,0.62569 -0.4471,1.53474 -0.85266,2.3c-0.4483,0.84589 -0.5013,1.72771 -0.7045,2.39999c-0.26456,0.87529 -0.85284,1.62337 -1.36818,2.27467c-0.52745,0.66663 -0.28557,1.5773 -0.58533,2.41466c-0.26375,0.73676 -0.59079,1.32486 -1.02533,2.17467c-0.35632,0.69684 -0.59964,1.34818 -1.02116,2.07884c-0.46793,0.81111 -1.15739,1.32726 -1.5175,1.95717c-0.49403,0.8642 -0.90184,1.63112 -1.304,2.5c-0.30641,0.66202 -0.60388,1.55389 -1.09601,2.28932c-0.448,0.66948 -1.33655,0.99855 -1.85866,1.77734c-0.47324,0.70589 -0.0845,1.78117 -0.77734,2.39732c-0.65782,0.58501 -1.37671,0.95668 -1.38933,1.836c-0.01286,0.89543 -0.38759,1.61497 -1.02533,2.17467c-0.5896,0.51746 -0.76492,1.26523 -1.03183,2.12534c-0.26872,0.86597 -1.29408,1.17662 -1.91751,1.72534c-0.58446,0.51442 -0.61105,1.29707 -1.06133,2.13866c-0.33728,0.6304 -1.43964,0.55461 -2.01668,1.08334c-0.6913,0.63342 -0.98615,1.48622 -1.65182,1.9955c-0.67752,0.51833 -1.3394,1.01897 -2,1.40984c-0.78545,0.46475 -1.67151,0.73181 -2.39534,1.16882c-0.72348,0.4368 -0.90242,1.55676 -1.70149,1.77718c-0.8844,0.24394 -1.40723,0.74471 -2.19867,1.168c-0.74878,0.40047 -1.60854,0.6534 -2.2955,1.19049c-0.7439,0.5816 -0.97456,1.4165 -1.8045,1.86417c-0.64764,0.34933 -1.52904,0.57986 -2.28932,1.21468c-0.63304,0.52856 -0.91713,1.35172 -1.80934,1.56532c-0.74983,0.17952 -1.23679,0.98003 -2.10133,0.99867c-0.89845,0.01938 -1.43918,0.60767 -2.136,0.96399c-0.84981,0.43454 -1.6178,0.4826 -2.13866,1.06134c-0.57408,0.63788 -1.26227,0.77466 -2.12534,1.03183c-0.90349,0.26923 -1.62291,1.04019 -2.3,1.44284c-0.83528,0.49673 -1.43878,1.05841 -2.3,1.44733c-0.77069,0.34802 -1.64563,0.52429 -2.34283,1.10535c-0.59149,0.49292 -0.7912,1.62143 -1.65717,1.89017c-0.86011,0.26691 -1.6461,0.41086 -2.2,1.05716c-0.52419,0.61163 -0.82857,1.59802 -1.7,1.91467c-0.84955,0.30869 -1.56358,0.39648 -2.15266,1.03265c-0.53299,0.57559 -1.18558,0.88641 -2.04733,1.06335c-0.94058,0.19312 -0.9222,1.26978 -1.60268,1.90399c-0.6243,0.58185 -1.43703,0.51291 -2.21883,0.96384c-0.76811,0.44302 -1.60564,0.47342 -2.13116,1.06882c-0.56326,0.63815 -1.27463,1.04678 -2.04733,1.478c-0.81891,0.457 -1.94733,0.1853 -2.4785,0.79617c-0.58185,0.66913 -0.39157,1.55219 -1.22151,1.99985c-0.64763,0.34933 -1.34175,0.91589 -1.98399,1.49466c-0.64957,0.58536 -1.26793,1.11111 -1.86333,1.63666c-0.63814,0.56326 -0.88425,1.2778 -1.0735,2.14734c-0.18419,0.84628 -0.7319,1.65054 -1.14584,2.5c-0.31784,0.65225 -0.53427,1.55508 -0.84399,2.38934c-0.27234,0.73361 -0.98346,1.23792 -1.41467,2.01065c-0.45699,0.81891 -0.52687,1.70129 -0.57466,2.60001c-0.04272,0.80338 -0.6862,1.42236 -0.94284,2.29999c-0.25313,0.8656 0.16797,1.91782 -0.34116,2.616c-0.50938,0.69855 -1.16895,1.19122 -1.54933,2.08401c-0.32019,0.75153 -0.16473,1.6196 -0.59201,2.39999c-0.45038,0.82257 -0.52687,1.70129 -0.57466,2.60001c-0.04272,0.80338 -0.74695,1.53717 -0.964,2.39999c-0.21974,0.8735 0.12335,1.89789 -0.38866,2.54733c-0.48456,0.61462 -0.658,1.44202 -1.14734,2.05267c-0.48933,0.61066 -0.5,1.5 -0.5,2.39999c0,0.89999 0.15935,1.89789 -0.35266,2.54733c-0.48456,0.61462 -0.64725,1.35266 -0.64734,2.25269c-0.00009,0.89999 -0.2455,1.75195 -0.64734,2.5c-0.41898,0.77997 -0.35121,1.784 -0.35266,2.47464c-0.00226,1.06818 -0.30084,1.87619 -0.64734,2.52536c-0.45335,0.84937 -0.35266,1.79999 -0.35266,2.69998c0,0.89999 0,1.80002 0,2.70001c0,0.89999 0,1.69998 0,2.53598c0,1.01669 0,1.71133 0,2.72803c0,0.93597 0,1.836 0,2.73599c0,0.89999 0,1.69998 0,2.60001c0,0.89999 0,1.79999 0,2.69998c0,0.89999 -0.08212,1.8038 0.00017,2.70001c0.08368,0.91144 0.42389,1.59042 0.99983,2.37915c0.46753,0.64029 0.58733,1.34909 1.05716,2.16367c0.39616,0.68686 1.26047,1.10376 1.85884,1.64117c0.63846,0.57343 0.6871,1.33167 1.10483,2.19516c0.33961,0.70203 1.41661,0.58621 2.0045,1.09552c0.64862,0.56192 0.98358,1.28159 1.58534,2.02533c0.5284,0.65308 1.42023,1.15198 2.08932,1.45267c0.82913,0.37259 1.07805,1.40512 1.73601,1.922c0.64815,0.50919 1.71333,0.61087 2.39732,1.19199c0.66692,0.56659 1.29269,1.0242 1.86667,1.53784c0.73532,0.65802 1.22385,1.3895 1.90001,1.8595c0.8058,0.56012 1.34651,1.17886 2.10449,1.43152c0.81862,0.27286 0.92902,1.0289 1.517,1.76166c0.55051,0.68607 1.46893,0.66687 2.25768,1.24283c0.64027,0.46753 1.28587,0.9624 2.02083,1.52084c0.66389,0.50443 1.44565,0.94998 2.14284,1.53183c0.59114,0.49335 0.81065,1.47534 1.30449,2.24283c0.44806,0.69635 1.42818,0.53256 2.25267,0.98984c0.69205,0.38382 1.18283,1.13226 1.90001,1.81448c0.58632,0.55774 1.34276,1.05777 2.00983,1.54752c0.65286,0.47931 1.56711,0.62198 2.05684,1.35266c0.46663,0.69623 1.3654,0.93472 2.13333,1.35266c0.84096,0.45767 1.70236,0.81064 2.336,1.258c0.68793,0.48569 1.56291,0.95233 2.3425,1.48917c0.63187,0.43512 1.51668,0.69614 2.22017,1.18552c0.78462,0.54581 0.97749,1.41016 1.80133,1.71466c0.8981,0.33194 1.46677,0.90741 2.20134,1.284c0.71991,0.36905 1.67598,0.56445 2.31467,0.88535c0.97946,0.4921 1.3083,1.38153 2.13216,1.72083c0.74512,0.30685 1.50615,1.02609 2.35184,1.10983c0.79611,0.07883 1.83586,-0.1181 2.47917,0.52084c0.6422,0.63785 0.96895,1.33392 1.82083,1.48364c0.92818,0.16315 1.52402,0.65323 2.39999,1.04819c0.72293,0.32596 1.50464,0.82239 2.40001,0.94748c0.90646,0.12665 1.55368,0.79498 2.39999,0.979c0.87999,0.19135 1.71159,0.293 2.3,0.82217c0.7357,0.66165 1.54974,0.96436 2.33867,1.224c0.85867,0.28259 1.5701,0.93607 2.37866,0.97333c0.96107,0.04428 1.71906,0.46329 2.48267,0.83469c0.75391,0.3667 1.46982,0.8147 2.48399,1.08133c0.67186,0.17664 1.77081,-0.05734 2.61584,0.08548c0.85202,0.14401 1.25587,0.97125 2.10016,0.99985c0.89949,0.03046 1.8,0 2.68533,0c0.94,0 1.72606,-0.39999 2.668,0.03601c0.75021,0.34726 1.34758,0.79562 2.28,1.13065c0.80849,0.2905 1.56613,0.81534 2.46667,0.83334c0.90115,0.01804 1.58533,0 2.536,0c0.76532,0 1.7807,-0.12692 2.67868,0.08533c0.89996,0.21271 1.64331,0.81168 2.48532,0.89383c0.97409,0.09503 1.79868,0.02084 2.70001,0.02084c0.89999,0 1.81299,-0.14206 2.69998,0.01068c0.83316,0.14346 1.5874,0.90424 2.39999,0.98798c0.8316,0.08569 1.9126,-0.23459 2.63068,0.08667c0.76218,0.34097 1.33099,0.91241 2.22202,0.91467c0.86331,0.00217 1.86316,-0.05841 2.64731,0.35266c0.84793,0.44449 1.7002,0.63013 2.5,0.64734c0.83658,0.01801 1.67389,0.31439 2.41068,0.57468c0.97568,0.34467 1.76834,0.41489 2.76782,0.42532c0.82016,0.00854 1.77869,0 2.67868,0c0.74734,0 1.74152,0 2.50684,0c1.07883,0 1.936,0 2.836,0c0.79999,0 1.7265,-0.18372 2.60001,0.03601c0.86279,0.21704 1.60464,0.83905 2.5,0.96414c0.90646,0.12665 1.43765,0.76102 2.39999,0.979c0.87799,0.19888 1.79999,0.02084 2.70001,0.02084c0.89999,0 1.83643,-0.16815 2.59998,0.08533c0.77219,0.25635 1.5994,0.89667 2.40002,0.91467c0.89978,0.02023 1.79999,-0.0051 2.68533,0c0.92938,0.00534 1.55219,0.4314 2.33633,0.87851c0.82767,0.47192 1.60367,0.12149 2.61166,0.12149c0.86215,0 1.71747,-0.02042 2.70932,0.22134c0.71585,0.1745 1.43347,0.51227 2.48666,0.69333c0.96033,0.1651 1.77066,0.08533 2.67068,0.08533c0.89999,0 1.79999,0 2.69998,0c0.89999,0 1.80002,0 2.70001,0c0.89999,0 1.69998,0 2.60001,0c0.89999,0 1.83472,0.05289 2.59998,-0.35266c0.84592,-0.4483 1.5,-0.64667 2.40002,-0.64734c0.89999,-0.00067 1.74585,-0.16693 2.40982,-0.64734c0.66409,-0.4805 1.77335,-0.44067 2.36932,-0.8735c0.8006,-0.58145 1.29221,-1.31171 2.22086,-1.47467c0.88736,-0.15573 1.7088,-0.4313 2.39999,-1.10449c0.50656,-0.49335 1.17313,-1.23892 1.78534,-1.69998c0.72858,-0.54868 1.62585,-0.94379 2.09381,-1.70001c0.46344,-0.74896 1.26459,-1.15488 1.89969,-1.7215c0.67267,-0.60013 1.17429,-1.22949 1.9545,-1.7785c0.65457,-0.4606 1.04327,-1.35126 1.59198,-1.97467c0.51443,-0.58447 1.36545,-1.02621 1.57333,-1.82666c0.21204,-0.81644 0.72534,-1.44293 1.28534,-2.116c0.50748,-0.60995 0.7757,-1.37231 1.29068,-2.09735c0.42041,-0.59192 0.37213,-1.73801 1.12982,-1.98083c0.8194,-0.2626 1.11057,-0.73572 1.33151,-1.60449c0.2193,-0.86224 0.83905,-1.60464 0.96414,-2.5c0.12665,-0.90646 0.7551,-1.43903 0.979,-2.39999c0.20193,-0.8667 0.73782,-1.37708 1.01016,-2.11066c0.30972,-0.83426 0.43198,-1.64819 0.88934,-2.48917c0.40652,-0.7475 1.02188,-1.26135 1.12268,-2.1015c0.11667,-0.97241 0.4953,-1.59802 0.832,-2.63202c0.21277,-0.65341 0.48099,-1.64053 0.74133,-2.37732c0.34476,-0.97571 0.29865,-1.80331 0.59198,-2.62268c0.28955,-0.80878 0.68289,-1.57916 0.83783,-2.46664c0.16229,-0.92963 0.81033,-1.5647 0.9595,-2.52536c0.10611,-0.68332 0.0054,-1.67639 0.38867,-2.47916c0.42529,-0.89078 0.41766,-1.79004 0.93134,-2.52615c0.48264,-0.69165 0.716,-1.46933 0.716,-2.36935c0,-0.89999 -0.15268,-1.82974 0.05716,-2.5c0.27625,-0.88242 1.27368,-1.40796 1.6575,-2.09998c0.45728,-0.82449 0.28534,-1.80002 0.28534,-2.70001c0,-0.89999 0,-1.79999 0,-2.70001c0,-0.89999 -0.14606,-1.8277 0.05716,-2.5c0.26456,-0.87527 0.91425,-1.59863 0.94284,-2.50131c0.03055,-0.96484 0,-1.79868 0,-2.63202c0,-0.91931 0,-1.81934 0,-2.68265c0,-0.84802 0,-1.784 0,-2.68402c0,-0.89999 0,-1.79999 0,-2.55716c0,-0.89551 0,-1.75882 0,-2.72198c0,-0.92084 0,-1.82083 0,-2.72086c0,-0.89999 -0.17355,-1.83823 0.08533,-2.59998c0.30176,-0.88794 0.89667,-1.59946 0.91467,-2.5c0.01801,-0.89984 0,-1.80002 0,-2.70001c0,-0.79999 0,-1.70001 0,-2.60001c0,-0.89999 0,-1.81067 0,-2.72131c0,-0.85333 0,-1.79333 0,-2.67868c0,-0.79999 0,-1.70001 0,-2.60001c0,-0.89999 0,-1.79999 0,-2.69998c0,-0.90002 0,-1.80002 0,-2.70001c0,-0.75717 0,-1.65268 0,-2.51599c0,-0.96317 0,-1.89468 0,-2.80533c0,-0.85333 0,-1.79333 0,-2.67868c0,-0.79999 0,-1.63599 0,-2.65268c0,-0.69464 0,-1.71133 0,-2.64731c0,-0.90002 0,-1.80002 0,-2.70001c0,-0.79999 -0.33063,-1.50293 -0.83334,-2.33334c-0.36395,-0.6012 -0.16666,-1.64532 -0.16666,-2.41931c0,-0.90451 0,-1.84866 0,-2.84283c0,-0.74734 0,-1.76852 0,-2.60452c0,-0.90015 0,-1.68533 0,-2.63599c0,-0.76532 0.01016,-1.75955 0,-2.67868c-0.01044,-0.94385 -0.47937,-1.5972 -1.05267,-2.13266c-0.68521,-0.64001 -0.94733,-1.35266 -0.94733,-2.15265c0,-0.90002 -0.24203,-1.64835 -0.716,-2.28403c-0.57324,-0.76883 -0.26526,-1.71616 -0.284,-2.616c-0.01801,-0.86453 -0.85425,-1.34396 -0.99866,-2.10132c-0.16833,-0.88278 -0.24338,-1.647 -0.71735,-2.28268c-0.57324,-0.76883 -0.284,-1.71597 -0.284,-2.616c0,-0.89999 0,-1.79999 0,-2.69998c0,-0.89999 0,-1.8 0,-2.70001c0,-0.89999 -0.01141,-1.70007 0,-2.59999c0.01044,-0.82103 0.30139,-1.77693 0.57468,-2.47467c0.36475,-0.93117 0.66745,-1.7791 1.07266,-2.52533c0.4133,-0.76112 0.35388,-1.69702 0.85266,-2.3c0.54251,-0.65587 1.26364,-1.07057 1.5,-2c0.20944,-0.82362 0.77206,-1.35501 1.2215,-2.09984c0.37546,-0.62224 1.39655,-0.89128 2.1785,-1.3255c0.8205,-0.45561 1.55377,-0.81679 2.30002,-1.222c0.76111,-0.41328 1.65872,-0.39987 2.32532,-0.92732c0.65131,-0.51534 1.40103,-1.08813 2.17468,-1.34001c0.85962,-0.27988 1.75827,-0.31927 2.5,-0.73267c0.76367,-0.42563 1.55884,-0.77397 2.39981,-1.23132c0.7475,-0.40652 1.28217,-0.91158 2.09885,-1.12267c0.80466,-0.20798 1.37726,-0.88559 2.21033,-1.05135c0.99585,-0.19814 1.81833,-0.45645 2.42166,-1.146c0.55878,-0.63863 1.05563,-1.37759 1.74002,-1.71866c0.76984,-0.38365 1.67786,-0.46648 2.38766,-1.1035c0.50931,-0.45709 0.93604,-1.55615 1.61234,-2.18051c0.57495,-0.53079 1.43655,-0.95651 2.02481,-1.44682c0.75681,-0.6308 1.73209,-0.96828 2.23785,-1.68517c0.4108,-0.58229 0.59818,-1.65787 1.16666,-2.14584c0.74298,-0.63776 1.16333,-1.52316 1.61066,-2.15683c0.48557,-0.68788 0.93906,-1.33807 1.26801,-2.3425c0.26312,-0.80348 0.66315,-1.5018 1.32001,-2.2215c0.53348,-0.58452 0.8031,-1.52991 1.23734,-2.21066c0.50723,-0.7952 0.9137,-1.44637 1.564,-2.42267c0.4458,-0.6693 0.80692,-1.41139 1.22134,-2.26685c0.3414,-0.70468 0.65375,-1.56737 0.83133,-2.24716c0.27463,-1.05125 1.03665,-1.57979 1.51132,-2.25267c0.51837,-0.7348 0.93652,-1.61879 1.26935,-2.39999c0.32019,-0.75154 0.22113,-1.70148 0.66666,-2.5c0.44467,-0.797 1.16617,-1.30875 1.47916,-2.02083c0.35397,-0.80537 0.2887,-1.69466 0.82217,-2.27917c0.65686,-0.7197 1.06317,-1.50854 1.20001,-2.39999c0.14059,-0.91579 0.8085,-1.45409 0.98798,-2.40001c0.16776,-0.88428 -0.0423,-1.84654 0.53152,-2.42082c0.6163,-0.61682 1.19299,-1.12228 1.422,-2.222c0.17514,-0.84105 -0.03433,-1.76971 0.11432,-2.51434c0.1846,-0.92474 0.72406,-1.5578 0.90683,-2.60683c0.14362,-0.82436 -0.14728,-1.79028 0.20267,-2.636c0.32468,-0.78462 0.82291,-1.49982 0.83334,-2.39999c0.01041,-0.89995 0,-1.8 0,-2.70001c0,-0.89999 0,-1.7 0,-2.59999c0,-0.90001 0,-1.8 0,-2.7c0,-0.90001 0,-1.8 0,-2.70001c0,-0.89999 0,-1.7 0,-2.59999c0,-0.90001 0.30988,-1.85973 -0.01068,-2.68933c-0.3064,-0.79291 -0.97672,-1.31525 -0.98932,-2.21068c-0.01266,-0.90015 -0.52719,-1.60944 -0.87851,-2.5c-0.26062,-0.66069 -0.49213,-1.32896 -1,-2.12149c-0.47852,-0.74672 -0.33319,-1.75023 -0.69617,-2.37851c-0.48856,-0.84566 -0.82898,-1.59297 -1.50934,-2.116c-0.61127,-0.46989 -1.73941,0.12869 -2.55881,-0.34116c-0.68787,-0.39442 -1.35718,-0.94284 -2.15717,-0.94284c-0.90002,0 -1.80002,0 -2.70001,0c-0.89999,0 -1.79999,-0.00009 -2.70001,0c-0.89981,0.00009 -1.40897,0.50723 -2.15717,0.94284c-0.73013,0.42509 -1.70239,0.34212 -2.34283,0.7045c-0.82077,0.46442 -1.34396,1.20691 -2.10132,1.35133c-0.88278,0.16833 -1.58582,0.31581 -2.36533,0.83466c-0.70746,0.47089 -1.61444,0.28435 -2.43335,0.74133c-0.77274,0.43121 -1.27716,1.14201 -2.01065,1.41467c-0.81461,0.30281 -1.38364,0.82877 -2.19067,1.00934c-0.87698,0.19623 -1.82379,-0.01056 -2.59866,0.42667c-0.72626,0.40979 -1.60001,0.57466 -2.39999,0.57466c-0.90002,0 -1.80005,-0.0054 -2.70001,0c-0.8894,0.00534 -1.43661,0.77478 -2.2045,0.9955c-0.86069,0.24738 -1.7955,0.00224 -2.6955,0.0045c-0.89551,0.00226 -1.40686,0.67053 -2.12085,0.97917c-0.80719,0.34894 -1.77914,0.02083 -2.67917,0.02083c-0.89999,0 -1.79999,0 -2.59998,0c-0.90002,0 -1.80002,0 -2.70001,0c-0.89999,0 -1.79999,-0.00009 -2.70001,0c-0.89981,0.00009 -1.4693,0.54842 -2.15717,0.94284c-0.8194,0.46985 -1.85144,-0.06683 -2.74265,0.05733c-0.80188,0.11172 -1.24814,0.95343 -1.8855,1.42517c-0.71481,0.52907 -1.31726,0.82777 -2.09735,1.29066c-0.82584,0.49004 -1.58853,0.56699 -2.13867,1.16266c-0.58826,0.63695 -1.20471,1.19891 -1.80399,1.696c-0.61496,0.5101 -1.61749,0.4825 -2.05869,1.14134l-0.91599,0.284l-0.70001,0.05716" id="svg_16" stroke-width="2" stroke="#000" fill="none"/>
  <path t="70302,70537,70537,70545,70545,70545,70555,70555,70562,70562,70562,70567,70576,70576,70583,70592,70609,70619,70619,70633,70649,70662,70673,70673,70699,70719,70729,70738,70745,70745,70754,70758,70768,70784,70784,70794,70798,70808,70824,70834,70840,70860,70874,70890,70914,70946,70970,70996,70999,71026,71036,71092,71102,71106,71122,71141,71145,71156,71172,71181,71218,71221,71228,71241,71268,71268,71294,71304,71304,71324,71333,71383,71387,71413,71425,71470,71506,71536,71550,71576,71606,71642,71672,71722,71736,71748,71762,71788,71802,71848,71858,71883,71888,71908,71913,71924,71924,71927,71938,71948,71954,71954,71963,71979,71979,71990,71994,71994,72004,72011,72020,72029,72034,72044,72049,72061,72070,72073,72083,72090,72090,72109,72125,72129,72139,72156,72165,72170,72190,72195,72206,72222,72222,72232,72236,72251,72252,72261,72272,72287,72292,72292,72303,72318,72329,72334,72343,72353,72354,72370,72384,72384,72400,72400,72410,72414,72424,72435,72446,72446,72450,72450,72467,72467,72476,72476,72480,72490,72496,72505,72516,72516,72519,72531,72535,72545,72545,72555,72571,72575,72585,72595,72595,72601,72614,72616,72616,72635,72635,72641,72641,72651,72651,72655,72655,72667,72668,72679,72679,72681,72681,72682,72691,72691,72697,72707,72707,72717,72717,72721,72731,72731,72737,72747,72757,72762,72779,72779,72787,72803,72813,72817,72837,72843,72853,72853,72857,72877,72877,72883,72893,72893,72900,72919,72933,72933,72939,72939,72959,72959,72963,72974,72974,72981,72989,72999,73003,73015,73019,73019,73031,73039,73046,73046,73059,73059,73069,73080,73086,73095,73099,73119,73141,73141,73151,73151,73162,73175,73191,73201,73201,73205,73215,73231,73241,73241,73257,73261,73281,73287,73287,73301,73311,73328,73363,73363,73369,73378,73393,73407,73407,73423,73447,73463,73473,73473,73489,73499,73514,73523,73539,73543,73563,73569,73582,73585,73595,73605,73619,73625,73645,73651,73669,73685,73699,73699,73705,73725,73734,73755,73781,73785,73852,73862,73893,73902,73943,73947,73973,73983,73983,73997,74008,74023,74024,74063,74069,74069,74092,74119,74129,74129,74240,74240,74296,74307,74312,74330,74332,74332,74363,74363,74376,74376,74376,74377,74386,74387,74387,74392,74411,74411,74417,74428" d="m347,153c-1.84668,-0.44667 -2.46973,-0.74806 -3.42117,-1.32117c-0.80045,-0.48215 -1.28564,-0.87793 -2.24548,-1.3455c-0.78952,-0.3846 -1.65732,-0.77278 -2.33334,-1.33333c-0.51804,-0.42955 -1.50601,-0.92474 -2.3045,-1.35266c-0.60388,-0.32362 -1.64224,-0.32797 -2.45267,-0.86867c-0.72592,-0.48431 -1.36688,-0.97174 -1.94284,-1.48317c-0.73227,-0.65021 -1.67975,-0.978 -2.21597,-1.58084c-0.57822,-0.65007 -0.76251,-1.5302 -1.10934,-2.31467c-0.36169,-0.81802 -0.67291,-1.78081 -1.33185,-2.34732c-0.68765,-0.59119 -1.46597,-0.82706 -1.63834,-1.75267c-0.17297,-0.92889 -0.82236,-1.35844 -1.00449,-2.3c-0.13336,-0.68954 -0.54208,-1.44569 -1.2955,-1.94733c-0.68924,-0.45892 -0.46161,-1.4875 -0.70898,-2.34818c-0.2207,-0.7679 -0.68314,-1.28703 -1.0062,-2.09383c-0.31598,-0.78914 -1.18948,-1.08579 -1.82266,-1.77734c-0.54758,-0.59805 -0.95596,-1.21555 -1.168,-2.03201c-0.20789,-0.80045 -0.87582,-1.51801 -1.60931,-1.79066c-0.81461,-0.30282 -1.54825,-0.5287 -2.10535,-1.09467c-0.66064,-0.67114 -1.02286,-1.52431 -1.72,-1.88c-0.76645,-0.39104 -1.44116,-0.75268 -2.17465,-1.02534c-0.81461,-0.30282 -1.00632,-0.73044 -1.431,-1.48983c-0.39822,-0.71209 -1.54739,-0.46671 -2.32236,-0.95683c-0.83768,-0.52979 -1.45401,-1.00941 -2.19998,-1.58933c-0.62448,-0.4855 -0.98364,-1.42072 -1.72134,-1.88934c-0.69128,-0.43912 -1.39233,-0.65212 -2.15067,-1.04933c-0.76221,-0.39925 -1.37393,-0.69948 -2.08484,-1.01517c-0.87668,-0.3893 -1.41577,-0.79563 -2.18365,-1.01633c-0.86069,-0.24738 -1.7955,-0.0045 -2.6955,-0.0045c-0.89999,0 -1.81259,-0.14979 -2.69983,0.00017c-0.85202,0.144 -1.25592,0.97115 -2.10019,0.99983c-0.89929,0.03055 -1.47763,0.56688 -2.23599,0.964c-0.76624,0.40124 -1.8765,0.22842 -2.27866,0.83733c-0.49976,0.75671 -1.05008,1.12877 -1.9335,1.20317c-1.02768,0.08656 -1.36365,0.84664 -1.87268,1.4955c-0.60202,0.76737 -1.27911,1.30004 -1.87915,1.9c-0.69998,0.69987 -1.41803,1.0454 -2.164,1.62533c-0.62448,0.4855 -1.21793,1.09177 -2.03601,1.54934c-0.77231,0.43197 -1.4538,0.87193 -1.97467,1.45066c-0.5741,0.63787 -1.28159,0.98358 -2.02533,1.58533c-0.65308,0.5284 -1.01355,1.5105 -1.48401,2.104c-0.58542,0.73854 -1.22964,1.04488 -2.11465,1.28667c-0.79776,0.21795 -1.1889,1.01362 -1.82666,1.57333c-0.5896,0.51746 -0.76987,1.2637 -1.03183,2.12534c-0.26898,0.88469 -1.16968,1.30624 -1.6575,2.10001c-0.47546,0.77367 -1.14172,1.2518 -1.28534,2.2c-0.11981,0.79099 -0.07043,1.62117 -0.80133,2.084c-0.69098,0.43756 -1.00244,1.42761 -1.224,2.05467c-0.32156,0.91014 -0.80627,1.49179 -0.99551,2.36133c-0.18417,0.84628 -0.73187,1.65054 -1.14581,2.5c-0.31787,0.65227 -0.75159,1.42786 -1.05469,2.32133c-0.23569,0.69475 -0.71646,1.65065 -0.77731,2.47733c-0.06616,0.89891 0.00156,1.82147 -0.42668,2.60133c-0.45204,0.82324 -0.90799,1.60001 -1.57466,2.10001c-0.66667,0.5 -0.91727,1.2617 -1.009,2.15266c-0.08997,0.87373 -0.75114,1.52658 -1.28566,2.04283c-0.75017,0.72452 -0.70467,1.7045 -0.70534,2.60451c-0.00067,0.89999 -0.30084,1.75082 -0.64734,2.39999c-0.45335,0.84938 -0.20992,1.81311 -0.36333,2.7c-0.14418,0.83347 -0.88091,1.32271 -1.46851,2.10001c-0.5576,0.73761 -0.43871,1.70377 -0.521,2.60001c-0.08368,0.91144 -0.60112,1.48723 -0.9745,2.29999c-0.4075,0.88704 -0.84364,1.60452 -1.078,2.35718c-0.28203,0.90578 -0.65877,1.6322 -0.86333,2.64282c-0.16019,0.7914 -0.25,1.82349 -0.60483,2.57918c-0.41624,0.88652 -1.03264,1.32738 -1.35767,2.34233c-0.21548,0.67287 -0.01804,1.68813 -0.14284,2.46783c-0.17221,1.07591 -0.87407,1.54425 -1.496,2.09467c-0.6333,0.56047 -1.19048,1.24641 -1.42551,2.35883c-0.17763,0.8407 -0.08241,1.66716 -0.49316,2.5825c-0.31989,0.71286 -1.0265,1.32317 -1.39732,2.17467c-0.32616,0.74898 0.01709,1.7265 -0.20267,2.60001c-0.21706,0.86282 -0.75301,1.65363 -1.18533,2.5c-0.33473,0.6553 -0.44553,1.57379 -0.7995,2.37917c-0.31297,0.71208 -0.79645,1.2515 -1.01517,2.12083c-0.21942,0.87213 -0.7823,1.73521 -0.964,2.37917c-0.26643,0.9442 -0.95107,1.58725 -0.9955,2.37267c-0.05032,0.88962 -0.3719,1.79616 -0.7205,2.44817c-0.45306,0.84738 -0.84325,1.55551 -1.16266,2.52133c-0.21648,0.65456 -0.32886,1.66624 -0.82584,2.43134c-0.4808,0.74019 -0.89851,1.40829 -1.2115,2.362c-0.28693,0.87425 -0.88419,1.53793 -1.06317,2.38533c-0.18605,0.8808 0.15247,1.9491 -0.45683,2.47467c-0.71237,0.61447 -1.47406,1.01288 -1.55949,1.7825c-0.0983,0.8856 -0.3461,1.73672 -0.83783,2.4095c-0.44987,0.61551 -0.562,1.68176 -0.968,2.34933c-0.53619,0.88165 -1.04878,1.58829 -1.19867,2.48399c-0.14026,0.83818 -0.85863,1.22447 -1.00017,2.10001c-0.14607,0.90353 -0.66756,1.5042 -0.91583,2.38266c-0.22275,0.7881 -0.73836,1.56122 -1.13667,2.22183c-0.47661,0.79047 -1.2549,1.41689 -1.66199,2.0955c-0.44148,0.73595 -0.80269,1.55038 -1.20134,2.39999c-0.40367,0.86029 -0.9182,1.23167 -1.64799,1.82533c-0.64908,0.528 -0.95155,1.47981 -1.53601,2.07468c-0.59467,0.60527 -1.34238,1.26575 -1.77866,1.99983c-0.46588,0.78387 -1.24933,1.08882 -1.82133,1.60466c-0.7272,0.65581 -0.90807,1.60094 -1.58534,2.2115c-0.64622,0.58258 -1.47647,0.73225 -2.10399,1.48399c-0.54723,0.65556 -0.94177,1.41429 -1.71068,1.82135c-0.75752,0.40103 -1.54861,0.82773 -1.95267,1.48315c-0.47499,0.77048 -1.27385,1.07239 -2.146,1.29684c-0.80089,0.20612 -1.29813,0.67111 -2.19066,1.00934c-0.73175,0.27728 -1.32486,0.59079 -2.17467,1.02533c-0.69682,0.35632 -0.99042,1.38162 -1.6575,1.8425c-0.72954,0.50403 -1.44876,0.66827 -2.13567,1.06433c-0.81854,0.47195 -1.88148,0.16019 -2.3575,0.85849c-0.51079,0.7493 -1.19751,0.83429 -1.92818,1.25583c-0.81111,0.46793 -1.49506,0.62106 -2.19049,1.1095c-0.71519,0.50232 -1.61894,0.50266 -2.08134,1.11868c-0.55075,0.73373 -0.47214,1.62057 -1.06,2.13998c-0.60498,0.53455 -1.56082,0.77017 -2.164,1.18533c-0.8373,0.57629 -0.68785,1.64664 -1.028,2.38934c-0.36757,0.80261 -1.14424,1.28925 -1.83333,2c-0.5732,0.59122 -0.79596,1.49518 -1.28534,2.19867c-0.54581,0.78464 -1.57034,0.85284 -1.71466,1.80133c-0.12033,0.79089 -0.05716,1.70001 -0.5,2.5c-0.44284,0.79999 -0.34648,1.74847 -0.66667,2.5c-0.33284,0.78119 -0.79633,1.44891 -1.00266,2.14133c-0.36005,1.20819 -0.68285,1.97012 -0.83067,2.37952c-0.29773,0.82455 -0.69214,1.97333 -0.89017,2.89865c-0.18147,0.84796 -0.63066,1.58051 -1.3085,2.14984l-0.44417,0.7825l-0.3,0.89099l-0.05733,0.85718" id="svg_17" stroke-width="2" stroke="#000" fill="none"/>
  <path t="76661,77639,77655,77685,77695,77719,77725,77734,77751,77751,77775,77801,77861,77951,77967,78003,78043,78073,78073,78103,78129,78143,78154,78154,78169,78209,78225,78235,78245,78248,78248,78261,78275,78275,78289,78289,78345,78371,78371,78395,78395,78405,78405,78421,78437,78437,78450,78466,78476,78476,78490,78501,78512,78517,78526,78530,78546,78546,78566,78582,78582,78586,78586,78607,78612,78623,78637,78637,78646,78662,78668,78679,78679,78693,78710,78719,78719,78729,78732,78743,78748,78769,78788,78788,78818,78828,78829,78848,78854,78864,78880,78888,78905,78910,78920,78930,78946,78950,78962,78971,78974,78991,79011,79016,79026,79030,79041,79056,79067,79081,79107,79112,79112,79132,79153,79173,79173,79176,79203,79203,79212,79216,79226,79243,79243,79259,79268,79282,79293,79309,79338,79355,79379,79379,79388,79405,79434,79444,79455,79484,79495,79524,79541,79564,79564,79596,79606,79621,79630,79646,79663,79696,79716,79742,79757,79782,79792,79796,79806,79832,79858,79858,79879,79902,79928,79928,79939,79955,79969,79979,79985,79985,79999,80025,80035,80046,80075,80075,80091,80105,80155,80171,80181,80227,80267,80283,80302,80333,80347,80386,80428,80453,80453,80453,80468,80494,80502,80524,80558,80564,80584,80604,80624,80641,80684,80695,80712,80721,80746,80801,80807,80846,80867,80887,80898,80936,80946,80966,80988,81028,81037,81043,81068,81114,81128,81164,81164,81188,81194,81234,81270,81301,81301,81317,81356,81390,81398,81398,81407,81420,81452,81462,81462,81486,81502,81503,81526,81526,81542,81572,81622,81664,81677,81689,81728,81758,81758,81834,81858,81886,81887,81898,81917,81978,82018,82039,82083" d="m319,145c-1.70001,0 -2.60001,0 -3.5,0c-0.89999,0 -1.79999,0 -2.70001,0c-0.89999,0 -1.79999,0 -2.59998,0c-0.90002,0 -1.80002,0 -2.70001,0c-0.89999,0 -1.79999,0 -2.70001,0c-0.89999,0 -1.80255,0.0639 -2.59998,0c-1.04337,-0.0836 -1.41525,-0.9391 -2.30002,-1c-0.89786,-0.0618 -1.69998,0 -2.60001,0c-0.89999,0 -1.79999,-0.00224 -2.69998,0c-0.89999,0.00226 -1.74741,0.36856 -2.39999,0.716c-0.78683,0.4189 -1.70453,0.52893 -2.37466,0.89467c-0.97324,0.53117 -1.53671,0.99663 -2.42535,1.41466c-0.82672,0.3889 -1.28568,0.86099 -2.05267,1.62733c-0.52222,0.52177 -1.4151,1.25258 -1.90067,1.93668c-0.52878,0.74503 -0.80606,1.56299 -1.16266,2.21066c-0.47549,0.86366 -1.06879,1.46298 -1.45065,2.2c-0.39063,0.75397 -0.66592,1.51723 -0.84402,2.39999c-0.1904,0.94377 -0.57486,1.74934 -1.15598,2.43333c-0.56659,0.66692 -1.1275,1.22112 -1.48068,1.86667c-0.4845,0.88557 -0.60172,1.80229 -0.96332,2.47467c-0.44571,0.82872 -1.18185,1.47356 -1.3685,2.32533c-0.19046,0.86926 -0.74854,1.49583 -0.96368,2.20984c-0.23352,0.77499 -0.04251,1.90584 -0.48248,2.69016c-0.40802,0.72737 -0.80862,1.55827 -1.22202,2.3c-0.42563,0.76369 -0.82916,1.53113 -1.23132,2.40001c-0.30643,0.66202 -0.86603,1.43774 -1.08533,2.29999c-0.22095,0.86876 -0.61926,1.45026 -1.03601,2.14168c-0.50806,0.84291 -0.60892,1.62126 -0.91599,2.573c-0.28253,0.87569 -0.50806,1.57576 -1.08401,2.3645c-0.46753,0.64027 -0.81506,1.25208 -1.03601,2.12083c-0.2193,0.86224 -0.92126,1.59697 -0.96399,2.5c-0.04251,0.89899 -0.28522,1.5784 -0.91599,2.18399c-0.57288,0.55 -1.07138,1.23668 -1.08401,2.116c-0.01285,0.89543 -0.66345,1.40994 -0.97916,2.12083c-0.38931,0.87669 -0.522,1.56863 -1.07352,2.12651c-0.59341,0.60028 -0.84506,1.37875 -0.94748,2.33099c-0.09314,0.86606 -0.9458,1.30586 -0.99985,2.18834c-0.04968,0.81125 -0.47668,1.48756 -0.94733,2.19499c-0.55273,0.83084 -0.47562,1.70097 -1.1525,2.39568c-0.65085,0.668 -0.77484,1.27151 -0.90034,2.22099c-0.12148,0.9191 -0.84709,1.42607 -1.28383,2.22166c-0.35577,0.64812 -0.35075,1.59775 -0.752,2.364c-0.39713,0.75836 -0.57106,1.36777 -1.04933,2.15067c-0.49071,0.80325 -0.73334,1.43881 -1.08134,2.28534c-0.27589,0.67108 -0.90778,1.41026 -1.40799,2.02533c-0.50412,0.61987 -0.62555,1.37546 -1.14134,2.05867c-0.46455,0.61534 -0.35561,1.67905 -1.284,1.916c-0.82344,0.21016 -0.82645,1.03825 -1.08533,1.8c-0.30176,0.88791 -0.90007,1.58026 -1.41467,2.2c-0.49991,0.60205 -0.60477,1.3992 -1.14734,2.05267c-0.49033,0.59055 -0.81306,1.47093 -1.29999,2.24283c-0.44312,0.70244 -0.72365,1.38812 -1.0735,2.18367c-0.31313,0.71202 -0.94151,1.28592 -1.5,2.02083c-0.50458,0.66397 -1.24019,1.14474 -1.8685,1.89999c-0.54622,0.65659 -0.64949,1.73357 -1.31517,2.24284c-0.67752,0.51833 -1.28841,0.98512 -1.72084,1.75716c-0.4584,0.81841 -1.0515,1.36336 -1.724,1.62534c-0.90059,0.35083 -1.27188,1.23358 -1.72932,2.07451c-0.40662,0.74751 -1.07904,1.13515 -1.82133,1.5475c-0.8244,0.45796 -1.48489,0.84209 -2.13333,1.51933c-0.60442,0.63127 -1.38702,0.60474 -2.08267,1.11732c-0.69087,0.50906 -0.96291,1.42804 -1.69467,1.70534c-0.89253,0.33821 -1.58936,0.48592 -2.22266,1.17734c-0.54778,0.59805 -1.33652,0.99207 -1.992,1.25867c-0.69414,0.2823 -1.75919,0.57814 -2.22734,1.27916c-0.50267,0.75272 -1.16403,1.10309 -2.04716,1.29565c-0.84427,0.18411 -1.33562,0.9812 -2.20016,0.99985c-0.89845,0.01938 -1.43918,0.60767 -2.136,0.96399c-0.84981,0.43454 -1.6178,0.4826 -2.13866,1.06134c-0.57408,0.63788 -1.3571,0.58173 -2.14,1.06c-0.80325,0.49072 -1.51198,0.65607 -2.164,1.13602c-0.69824,0.51398 -0.99852,1.4953 -1.73201,1.76797c-0.81461,0.30283 -1.32593,0.78549 -2.09383,1.0062c-0.86067,0.24738 -1.77113,0.12311 -2.34818,0.65182c-0.6913,0.63342 -1.21739,1.12634 -2.04733,1.57401c-0.64763,0.34933 -1.34175,0.91589 -1.98399,1.49466c-0.64957,0.58536 -1.2471,1.09827 -2.01601,1.50534c-0.75752,0.40103 -1.41498,0.9371 -1.98399,1.49466c-0.6727,0.65915 -0.95145,1.422 -1.6205,1.92682c-0.75098,0.56665 -1.5377,0.79605 -2.12883,1.52383c-0.56587,0.69669 -0.77467,1.436 -1.46667,2.13333c-0.69731,0.7027 -1.17456,1.22644 -1.89999,1.89868c-0.58046,0.5379 -1.57826,0.80359 -1.79868,1.60266c-0.24394,0.8844 -0.68123,1.48245 -1.28532,2.11465c-0.55037,0.57599 -1.11023,1.2186 -1.54933,2.08401c-0.34268,0.67538 -1.10577,1.21524 -1.16667,2.10001c-0.0618,0.89786 0,1.69998 0,2.60001c0,0.89999 0,1.79999 0,2.69998l0.0045,0.89551l0.42084,0.67917" id="svg_18" stroke-width="20" stroke="#fff" fill="none"/>
  <path t="85824,85924,85942,85966,85986,85986,85996,86006,86009,86020,86036,86036,86046,86046,86052,86062,86066,86077,86086,86091,86091,86101,86101,86105,86105,86115,86116,86125,86125,86125,86135,86141,86156,86156,86156,86167,86168,86171,86171,86171,86182,86187,86187,86197,86198,86207,86227,86262,86262,86267,86277,86278,86287,86308,86308,86317,86327,86333,86343,86357,86374,86388,86410,86413,86430,86450,86454,86470,86480,86504,86509,86520,86520,86530,86570,86586,86616,86616,86656,86666,86692,86706,86762,86803,86812,86820,86842,86869,86909,86909,86925,86995,87035,87055,87055" d="m167,296c1.8,0 2.43784,-0.24539 3.16667,-0.83334c0.69856,-0.56351 1.51466,-0.60336 2.3125,-1.16666c0.66826,-0.4718 1.5105,-0.6723 2.1875,-1.16666c0.78485,-0.57312 0.94131,-1.436 1.63333,-2.13333c0.49808,-0.50192 1.1472,-1.2197 1.64732,-1.99551c0.45,-0.69806 1.09319,-1.26147 1.66335,-1.76584c0.70888,-0.62708 1.02957,-1.33389 1.69383,-2.186c0.4171,-0.53506 1.17949,-1.23666 1.6955,-1.75266c0.83334,-0.83334 1.33691,-1.41412 2.16667,-2c0.62207,-0.43924 1.32178,-0.76086 1.84799,-1.60001c0.48802,-0.77823 1.15199,-1.56665 1.638,-2.05267c0.52199,-0.522 1.326,-1.32599 1.84734,-1.84732c0.66667,-0.66666 1.29225,-1.35373 1.84734,-1.79016c0.84935,-0.66779 1.64384,-1.0499 2.15266,-1.70984c0.58989,-0.76508 1.44594,-0.91751 2.064,-1.61066c0.59547,-0.66782 0.8372,-1.5636 1.62134,-1.95334c0.88921,-0.44196 1.54829,-0.79947 1.84,-1.58533c0.30963,-0.83417 1.19829,-1.10974 1.77467,-1.65201c0.70967,-0.66766 0.90668,-1.77054 1.636,-2.16266c0.75786,-0.40747 1.23643,-0.53281 1.57466,-1.42535c0.2773,-0.73175 1.14941,-1.04089 1.70534,-1.69467c0.52226,-0.61417 0.95728,-1.37857 1.67332,-1.89066c0.71121,-0.50861 1.24655,-1.08481 1.69467,-1.82666c0.42604,-0.70531 1.03963,-1.50252 1.716,-1.91333c0.77614,-0.47142 1.55673,-0.8976 2.116,-1.57068c0.556,-0.66916 0.88255,-1.37096 1.07333,-2.31467c0.17432,-0.86229 0.8033,-1.39391 1.00616,-2.10449c0.25815,-0.90424 0.83783,-1.46217 1.0045,-2.2955c0.16667,-0.83333 0.88283,-1.28932 1.00017,-2.10001c0.13112,-0.90582 0.795,-1.55367 0.979,-2.39999c0.19133,-0.87999 0.37349,-1.8 0.85416,-2.5l0.16534,-0.8" id="svg_19" stroke-width="2" stroke="#000" fill="none"/>
  <path t="90369,90500,90501,90505,90515,90515,90525,90530,90530,90531,90542,90542,90544,90544,90558,90559,90567,90567,90567,90567,90571,90571,90571,90581,90581,90581,90587,90597,90597,90597,90607,90610,90610,90621,90621,90627,90637,90637,90646,90646,90663,90667,90667,90677,90687,90692,90708,90727,90742,90743,90747,90758,90767,90774,90783,90783,90799,90799,90808,90808,90813,90813,90824,90824,90829,90838,90849,90863,90863,90868,90879,90889,90892,90908,90928,90929,90935,90935,90944,90958,90958,90958,90970,90989,90990,90990,90999,90999,90999,91009,91016,91025,91025,91031,91052,91052,91066,91071,91071,91082,91091,91105,91105,91111,91131,91147,91147,91151,91161,91171,91171,91178,91178,91187,91191,91191,91201,91201,91211,91217,91228,91231,91267,91275,91297,91308,91324,91333,91337,91349,91366,91374,91374,91381,91389,91389,91393,91403,91413,91419,91429,91429,91443,91459,91469,91469,91475,91485,91496,91499,91510,91515,91516,91526,91526,91535,91535,91542,91542,91542,91549,91550,91558,91558,91558,91565,91566,91575,91575,91575,91579,91579,91591,91591,91601,91601,91601,91605,91605,91616,91616,91621,91621,91631,91631,91635,91635,91635,91645,91645,91645,91655,91655,91661,91661,91671,91675,91675,91685,91686,91701,91711,91718,91727,91737,91751,91751,91768,91768,91778,91778,91781,91792,91797,91809,91809,91825,91834,91834,91847,91863,91863,91877,91877,91904,91914,91939,91959,91959,91969,91993,92009,92024,92035,92060,92099,92129,92142,92146" d="m399,70c-0.83334,2.16666 -0.99933,2.88667 -1,3.82533c-0.00073,1.008 0.07617,1.76872 -0.02084,2.71633c-0.08197,0.8008 -0.38437,1.72085 -0.68365,2.453c-0.35901,0.87824 -0.98459,1.57955 -1.21017,2.49067c-0.17526,0.70779 -0.04391,1.71693 -0.10617,2.5355c-0.08759,1.15174 -0.31845,1.9397 -0.52081,2.47916c-0.31116,0.8295 -0.95633,1.80515 -1.4375,2.5c-0.46658,0.6738 -0.83542,1.41091 -0.94885,2.21467c-0.1423,1.00837 0.03146,1.99969 -0.23865,2.952c-0.19418,0.68461 -0.67368,1.32389 -1.22269,2.208c-0.47897,0.77135 -0.466,1.66976 -0.832,2.60384c-0.25745,0.65703 -0.72995,1.55743 -1,2.34283c-0.30029,0.87341 -0.54303,1.6946 -0.86267,2.47733c-0.36691,0.89848 -0.86298,1.6826 -0.9053,2.376c-0.06482,1.0618 -0.6337,1.57509 -0.98984,2.34617c-0.36887,0.79866 -0.46317,1.59097 -0.85419,2.47916c-0.28952,0.65763 -0.1647,1.61961 -0.59198,2.4c-0.45038,0.82257 -0.38812,1.75562 -0.74133,2.6c-0.29935,0.71557 -1.08279,1.46191 -1.39734,2.21067c-0.32303,0.76893 -0.24692,1.62254 -0.60266,2.62267c-0.24686,0.69398 -1.16418,1.27461 -1.548,1.96667c-0.45728,0.82449 -0.52737,1.64834 -1.00134,2.284c-0.57327,0.76882 -0.12271,1.73988 -0.32001,2.516c-0.21921,0.86227 -0.75092,1.69073 -1.31665,2.34733c-0.52066,0.60428 -0.82904,1.39299 -1.16818,2.05267c-0.51984,1.01117 -1.06073,1.58057 -1.46448,2.41066c-0.36404,0.74843 -0.92484,1.36871 -1.44669,2.10535c-0.57632,0.81354 -0.72345,1.65521 -1.004,2.33066c-0.35138,0.84593 -0.74728,1.84134 -1.064,2.61166c-0.28506,0.69334 -1.11713,1.40146 -1.5,2.08334c-0.48145,0.85739 -0.58087,1.62508 -1.2955,2.353c-0.5607,0.57112 -0.60095,1.33661 -0.98849,2.22c-0.41858,0.95415 -0.30121,1.70963 -0.77316,2.52817c-0.39606,0.6869 -1.15045,1.33127 -1.51752,1.95717c-0.45248,0.77151 -0.92584,1.61879 -1.25867,2.39999c-0.32019,0.75154 -0.1738,1.73033 -0.6875,2.52083c-0.4382,0.67432 -1.02313,1.45451 -1.3125,2.3125c-0.24927,0.73911 -0.67343,1.52203 -1.08398,2.36801c-0.31827,0.65579 -0.82166,1.42412 -1.37735,2.146c-0.5705,0.74109 -0.38297,1.80646 -0.92667,2.53133c-0.4823,0.64302 -0.61313,1.42415 -1.13132,2.06866c-0.49155,0.61137 -1.42215,0.98927 -1.64285,1.75717c-0.24738,0.86067 -0.12143,1.68478 -0.65182,2.34818c-0.50998,0.63788 -0.6153,1.65649 -1.05716,2.23749c-0.57541,0.75659 -1.03912,1.48544 -1.37952,2.14185c-0.41757,0.80524 -0.92572,1.42358 -1.52664,2.168c-0.52768,0.65369 -1.15179,1.42628 -1.44202,2.09999c-0.36261,0.8418 -0.73181,1.67601 -1.16882,2.39984c-0.4368,0.72348 -1.5686,0.89925 -1.77716,1.70149c-0.22659,0.8716 -0.6087,1.64775 -0.94867,2.50317c-0.32855,0.82674 -0.55301,1.49362 -0.88602,2.52882c-0.24954,0.7758 -0.43878,1.65808 -0.77731,2.37733c-0.37482,0.79634 -0.78854,1.58974 -1.18933,2.38934c-0.40054,0.79906 -0.76456,1.62985 -1.52118,2.37883c-0.45438,0.4498 -1.22299,0.94679 -1.57349,2.0265c-0.23471,0.72302 -0.35272,1.74026 -0.96667,2.32266c-0.58521,0.55511 -1.51685,0.90031 -1.85202,1.64267c-0.43875,0.97171 -0.22876,1.8531 -0.62,2.86266c-0.28806,0.74326 -0.93494,1.24443 -1.42383,2.14534c-0.39441,0.72678 -0.56268,1.69394 -0.94733,2.36867c-0.45291,0.79451 -1.0181,1.39064 -1.60001,2.30983c-0.34509,0.54512 -1.01166,1.54721 -1.52084,2.14284c-0.51675,0.60448 -1.17542,1.38625 -1.53867,2c-0.46371,0.78351 -0.80991,1.61287 -1.23599,2.364c-0.4715,0.83121 -1.10086,1.50873 -1.39999,2.35683c-0.27628,0.78325 -0.62561,1.63687 -0.91599,2.59384c-0.2045,0.67398 -0.55951,1.54402 -1.05869,2.27466c-0.46219,0.67647 -1.52869,0.97618 -1.90399,1.71068c-0.42996,0.84146 -0.76743,1.51244 -1.32135,2.38399c-0.4281,0.67361 -0.96033,1.45294 -1.36398,2.10535c-0.47565,0.76872 -0.41339,1.72343 -0.86133,2.396c-0.49298,0.74019 -0.82602,1.30812 -1.40802,2.18134c-0.49777,0.74684 -0.82166,1.39844 -1.14133,2.24399c-0.33365,0.88252 -0.63687,1.55321 -0.90384,2.56784c-0.21091,0.80164 0.06693,1.74919 -0.1575,2.62151c-0.22287,0.86621 -1.17233,1.4173 -1.60681,2.09999c-0.46594,0.73213 -0.35651,1.7 -0.35718,2.60001c-0.00067,0.89867 -0.60767,1.43918 -0.96399,2.136c-0.43454,0.84981 -0.55685,1.54317 -1.436,1.564l-0.89999,-0.0045" id="svg_20" stroke-width="2" stroke="#000" fill="none"/>
  <path t="92510,92631,92647,92657,92657,92671,92674,92674,92680,92685,92686,92695,92706,92706,92710,92710,92720,92726,92735,92735,92745,92751,92761,92765,92775,92785,92792,92806,92806,92821,92831,92831,92845,92867,92887,92887,92907,92911,92921,92938,92951,92967,92993,93003,93027,93033,93043,93047,93057,93067,93067,93074,93083,93087,93087,93099,93099,93113,93125,93130,93130,93149,93149,93163,93163,93169,93169,93189,93189,93193,93205,93205,93209,93210,93219,93228,93229,93236,93244,93259,93259,93274,93285,93288,93299,93308,93324,93324,93324,93330,93330,93340,93351,93351,93354,93364,93370,93370,93381,93381,93390,93390,93394,93404,93410,93410,93410,93421,93430,93431,93431,93436,93446,93450,93450,93450,93460,93471,93477,93487,93487,93511,93518,93518,93518,93527,93530,93540,93552,93556,93556,93567,93567,93582,93606,93607,93622,93622,93632,93646,93652,93662,93678,93678,93692,93692,93712,93713,93719,93719,93732,93742,93742,93743,93758,93768,93773,93773,93784,93794,93808,93808,93824,93824,93835,93835,93839,93854,93855,93864,93864,93874,93878,93878,93890,93894,93904,93904,93914,93920,93930,93944,93954,93954,93960,93970,93974,93984,93984,93994,94000,94010,94010,94016,94026,94026,94036,94036,94040,94051,94056,94057,94066,94076,94076,94090,94096,94107,94116,94120,94136,94146,94146,94157,94173,94176,94197,94213,94216,94226,94236,94258,94258,94322,94346,94404,94404,94414,94430,94448" d="m307,247c1.70001,-0.05716 2.53101,-0.49033 3.19867,-1.2c0.54227,-0.57639 0.78363,-1.45033 1.08533,-2.284c0.255,-0.70464 0.51105,-1.82352 0.9375,-2.61601c0.36499,-0.67827 1.29883,-1.22475 1.65717,-2.00017c0.34045,-0.73671 0.44705,-1.79504 0.92267,-2.33049c0.63794,-0.71817 1.14404,-1.21764 1.20316,-2.2175c0.04642,-0.78529 0.66525,-1.46016 1.07953,-2.15317c0.47556,-0.79552 1.56018,-0.98877 1.89514,-1.7195c0.36661,-0.79971 0.48279,-1.71556 0.85419,-2.47917c0.3667,-0.75391 0.70847,-1.4803 1.36533,-2.2c0.53348,-0.58452 1.13141,-1.25075 1.63467,-1.96667c0.48871,-0.69525 0.28433,-1.61443 0.74133,-2.43333c0.43121,-0.77271 1.13736,-1.27892 1.41464,-2.01067c0.33823,-0.89253 0.80322,-1.38977 1.00934,-2.19066c0.22446,-0.87215 0.46176,-1.72227 0.94867,-2.49417c0.44308,-0.70244 0.9928,-1.25529 1.40533,-2.0045c0.46182,-0.8387 0.76642,-1.47954 1.22202,-2.3c0.4342,-0.78194 0.74417,-1.74921 1.31198,-2.2c0.71347,-0.56642 1.76971,-0.87704 2.07169,-1.7c0.31421,-0.85634 0.22748,-1.83821 0.5625,-2.5c0.43417,-0.85764 1.02997,-1.46521 1.57898,-2.32133c0.41971,-0.65446 0.48386,-1.62589 0.98419,-2.392c0.5318,-0.8143 0.68451,-1.41878 1.27316,-2.18134c0.56403,-0.73068 1.19479,-1.09894 1.52148,-2.08383c0.26617,-0.80249 0.63693,-1.52664 1.32135,-2.2215c0.59543,-0.60451 1.36264,-1.25436 1.71597,-2c0.40695,-0.85886 0.55261,-1.6028 1.10934,-2.364c0.48853,-0.66797 0.75391,-1.54843 1.25867,-2.26668c0.48856,-0.69518 0.85846,-1.34644 1.23685,-2.19016c0.26382,-0.58827 0.68555,-1.63326 1.17917,-2.26483c0.58926,-0.75394 1.14627,-1.29912 1.35266,-2.06618c0.28024,-1.04153 0.68317,-1.80713 1.11398,-2.64816c0.3403,-0.66434 1.17438,-1.27156 1.63333,-1.88533c0.547,-0.73152 0.97809,-1.42882 1.164,-2.47867c0.14618,-0.82533 0.17062,-1.81671 0.47202,-2.46133c0.33093,-0.70779 1.01028,-1.51631 1.564,-2.34134c0.42639,-0.63531 0.6337,-1.37616 1.02533,-2.42267c0.27634,-0.73839 1.00592,-1.55983 1.36401,-2.23599c0.3573,-0.67468 0.45483,-1.66847 0.62134,-2.57466c0.15277,-0.83148 0.60297,-1.7211 1.07333,-2.31467c0.58545,-0.73877 1.07471,-1.45518 1.34131,-2.11067c0.28232,-0.69414 0.42603,-1.77953 0.58536,-2.57466c0.18866,-0.94148 1.25824,-1.1422 1.82266,-1.93333c0.40817,-0.57211 -0.0098,-1.68343 0.25198,-2.46533c0.26773,-0.7997 1.05664,-1.50078 1.39383,-2.20134c0.45834,-0.95229 0.15521,-1.90982 0.578,-2.64284c0.46783,-0.81116 0.56604,-1.53714 1.1095,-2.19049c0.57397,-0.69003 1.50455,-0.77603 1.74933,-1.65201c0.25009,-0.89497 0.36627,-1.91397 0.58401,-2.49384c0.37567,-1.00046 0.51282,-1.86989 1.04166,-2.54166c0.55594,-0.70618 1.314,-1.26993 1.7485,-1.82651c0.66177,-0.84772 0.5563,-1.90112 0.8765,-2.65266c0.33282,-0.7812 0.70938,-1.56783 1.19052,-2.3c0.52191,-0.79424 1.27689,-1.31239 1.74283,-2.02133c0.43268,-0.65832 0.96704,-1.46634 1.46399,-2.268c0.47882,-0.77238 0.82513,-1.55597 1.15201,-2.296c0.39392,-0.89182 0.21805,-1.71395 0.80484,-2.59383c0.47101,-0.70627 1.08966,-1.23526 1.50449,-2.12083c0.38147,-0.81434 1.18301,-1.4173 1.61749,-2.1c0.46594,-0.73213 0.36581,-1.69099 0.85718,-2.3c0.52316,-0.64842 0.69739,-1.5342 1.11066,-2.13866c0.57385,-0.83933 1.24353,-1.30955 1.39383,-2.16134c0.16385,-0.92845 0.87448,-1.4324 1.47467,-2.2c0.50824,-0.65 0.8374,-1.54163 1.23685,-2.3c0.41541,-0.78868 0.53305,-1.70229 0.89465,-2.37466c0.44571,-0.82873 1.177,-1.47465 1.3685,-2.32533c0.19785,-0.879 0.6214,-1.65636 1.17017,-2.1c0.79263,-0.64079 1.17682,-1.43665 1.56668,-2.2c0.38452,-0.75288 0.44681,-1.63805 0.93134,-2.25266c0.51199,-0.64944 0.62039,-1.44773 1.186,-2.114c0.58084,-0.68422 0.96164,-1.48706 1.14581,-2.33334c0.18924,-0.86954 0.59821,-1.44119 1.04617,-2.11066c0.49213,-0.73544 0.78159,-1.60618 0.97482,-2.48917c0.18481,-0.84457 1.23849,-1.00319 1.71451,-1.7015c0.51077,-0.74931 1.14172,-1.25047 1.28534,-2.19867c0.11981,-0.79099 0.05716,-1.64283 0.83334,-2.16666l0.16666,-0.83334" id="svg_21" stroke-width="2" stroke="#000" fill="none"/>
  <path t="96411,96583,96593,96600,96600,96609,96613,96624,96633,96649,96649,96652,96674,96695,96695,96715,96715,96726,96728,96744,96758,96758,96795,96800,96800,96825,96851,96851,96854,96854,96875,96880,96895,96906,96906,96916,96921,96930,96946,96946,96960,96960,96986,96996,97016,97036,97042,97042,97056,97066,97076,97082,97096,97106,97116,97138,97148,97162,97178,97198,97202,97202,97218,97238,97254,97254,97258,97278,97278,97294,97308,97318,97324,97339,97348,97360,97364,97374,97380,97390,97390,97400,97415,97440,97444,97444,97455,97481,97486,97486,97501,97502,97511,97511,97521,97527,97541,97551,97577,97593,97603,97617,97623,97644,97647,97665,97674,97688,97688,97698,97703,97723,97740,97765,97765,97779,97783,97783,97803,97809,97819,97845,97865,97876,97905,97916,97925,97941,97965,97982,97995,97995,98012,98036,98052,98052,98068,98078,98091,98108,98131,98142,98148,98167,98167,98183,98187,98198,98208,98213,98224,98228,98241,98241,98253,98253,98264,98264,98280,98280,98290,98293,98309,98319,98329,98334,98344,98349,98369,98374,98384,98391,98391,98399,98410,98415,98426,98430,98449,98465,98465,98480,98480,98490,98495,98521,98535,98552,98562,98575,98591,98601,98627,98627,98641,98671,98682,98692,98692,98698,98712,98722,98747,98754,98774,98788,98788,98793,98807,98817,98853,98863,98875,98901,98910,98934,98941,98949,98963,98975,98991,98991,98996,99008,99035,99045,99095,99111,99111,99114,99151,99155,99176,99182,99191,99196,99217,99221,99232,99237,99248,99319" d="m396,76c-0.87851,1.2215 -1,2.1 -1,3c0,0.8 -0.05447,1.70148 -0.5,2.5c-0.44467,0.797 -1.11783,1.36762 -1.41467,2.06934c-0.30649,0.72451 0.02023,1.8421 -0.36932,2.63066c-0.42984,0.87007 -0.73401,1.56953 -1.06866,2.45267c-0.2674,0.70563 -0.57245,1.73982 -1.07266,2.32201c-0.52612,0.61233 -0.8765,1.5021 -1.14935,2.2c-0.36398,0.93097 -0.24887,1.86457 -0.51065,2.62534c-0.26825,0.77956 -1.24307,1.32053 -1.62933,2.08533c-0.3609,0.71458 -0.11139,1.65031 -0.30618,2.59383c-0.17902,0.86708 -0.87024,1.61922 -0.97916,2.52084c-0.0965,0.79874 -0.67566,1.45923 -1.38934,1.97467c-0.66324,0.47902 -0.54056,1.51665 -0.64667,2.2c-0.14917,0.96066 -0.79721,1.59572 -0.9595,2.52533c-0.15494,0.88749 -0.53189,1.64575 -0.92047,2.5c-0.34714,0.76311 -0.87598,1.45439 -1.06317,2.3c-0.21182,0.95689 -0.50024,1.61188 -1.07352,2.14733c-0.68524,0.64001 -0.62497,1.50647 -1.16867,2.23134c-0.4823,0.64301 -0.61932,1.41922 -1.13132,2.06866c-0.48453,0.61461 -0.44525,1.44579 -0.93268,2.25134c-0.37778,0.62433 -1.44232,0.87917 -1.68933,1.66267c-0.29791,0.94492 -0.63602,1.7112 -1,2.53867c-0.34555,0.78556 -0.91431,1.32467 -1.50449,2.1c-0.55908,0.73447 -1.18701,1.30875 -1.5,2.02083c-0.35397,0.80537 -0.30136,1.88258 -1.02084,2.3125c-0.77048,0.46039 -0.61606,1.37112 -1.2215,2.04533c-0.5546,0.6176 -1.57129,0.778 -1.75766,1.62134c-0.19434,0.87933 -0.52136,1.7188 -0.85419,2.5c-0.32019,0.75154 -0.39316,1.54253 -1.0455,2.2215c-0.62457,0.65004 -1.25287,1.13954 -1.78781,1.7785c-0.54425,0.6501 -0.58463,1.71797 -1.03784,2.29016c-0.64371,0.8127 -1.27966,1.34276 -1.72083,2.10983c-0.41571,0.72282 -0.91147,1.45126 -1.54935,2.02534c-0.57874,0.52086 -1.26413,1.02388 -1.74133,1.65866c-0.57626,0.76656 -0.70163,1.47041 -1.16251,2.1375c-0.50412,0.72968 -0.16031,1.91206 -0.82599,2.42134c-0.67749,0.51831 -1.28915,0.98471 -1.72083,1.75716c-0.45782,0.81924 -0.69818,1.63539 -1.27917,2.3c-0.55637,0.63644 -1.38297,1.22842 -1.8595,1.90001c-0.51489,0.72565 -1.01334,1.34119 -1.46133,2.01067c-0.49213,0.73543 -0.76093,1.68065 -1.32733,2.33665c-0.51147,0.59238 -0.45245,1.37436 -0.64868,2.25134c-0.18057,0.80704 -0.88156,1.38736 -1.35583,2.10133c-0.52585,0.79164 -1.24948,1.2795 -1.61749,2.09999c-0.35101,0.78261 -0.78778,1.6263 -1.078,2.3c-0.36261,0.8418 -0.83002,1.64595 -1.37265,2.27467c-0.51801,0.60017 -1.04007,1.40094 -1.45334,2.12517c-0.45193,0.79199 -1.33969,1.01477 -1.76416,1.60466c-0.56876,0.79042 -0.97531,1.60582 -1.27185,2.4955c-0.28589,0.85765 0.2518,1.94891 -0.25198,2.63333c-0.48071,0.65309 -1.14114,1.21826 -1.48068,1.92384c-0.41135,0.85486 -0.32077,1.67099 -0.638,2.64149c-0.25836,0.79045 -0.87589,1.5377 -1.27866,2.19067c-0.5202,0.84337 -1.04559,1.41272 -1.48868,2.11516c-0.48691,0.7719 -0.83582,1.63647 -1.37265,2.27017c-0.50278,0.59351 -0.47922,1.46986 -0.85867,2.22533c-0.43558,0.86722 -1.0932,1.4359 -1.54935,2.13333c-0.45883,0.70157 -0.83878,1.44495 -1.14581,2.1875c-0.33603,0.81268 0.05212,1.82928 -0.44617,2.45384c-0.50348,0.63106 -0.82373,1.52762 -1.18533,2.2c-0.44571,0.82872 -1.18185,1.47356 -1.3685,2.32533c-0.19046,0.86926 -0.59818,1.44119 -1.04617,2.11067c-0.49213,0.73543 -0.75815,1.68304 -1.32733,2.33665c-0.51947,0.59654 -1.14786,1.27147 -1.48068,2.05267c-0.32019,0.75154 -0.53729,1.42897 -1.04517,2.2215c-0.47852,0.74672 -0.17609,1.88861 -0.73215,2.3425c-0.75284,0.6145 -1.22095,1.06647 -1.41019,1.936c-0.18417,0.84628 -0.58109,1.79538 -1.20065,2.37866c-0.60437,0.56898 -1.56812,0.77872 -1.75766,1.62134c-0.21509,0.95616 -0.77954,1.44142 -1.01636,2.2045c-0.25504,0.82179 -0.82364,1.34702 -1.00314,2.09683c-0.21359,0.89223 -0.77103,1.50421 -1.354,2.146c-0.52625,0.57932 -0.54037,1.35921 -0.64868,2.25267c-0.11148,0.91977 -0.43915,1.62418 -1.02399,2.364c-0.53613,0.67822 -1.45734,1.0435 -1.88934,1.72134c-0.49377,0.7748 -0.32745,1.66843 -0.73267,2.41466c-0.4133,0.76112 -0.03046,1.75763 -0.36334,2.68933c-0.26331,0.73691 -1.18231,1.0143 -1.70532,1.69467c-0.46988,0.61128 -0.34116,1.616 -0.784,2.416c-0.44284,0.8 -0.50134,1.69867 -0.85266,2.44733l-0.64734,0.55267" id="svg_22" stroke-width="2" stroke="#000" fill="none"/>
 </g>
 <g display="none">
  <title>muse_image</title>
  <image xlink:href="http://farm4.static.flickr.com/3388/3298944812_993b6c1c2c.jpg" id="muse" height="480" width="316" y="0" x="162"/>
 </g>
 <g display="none">
  <title>bbox</title>
  <rect stroke="#f00" fill="none" stroke-width="3" height="452.16" width="249.92727" y="11.52" x="186.89697" id="bbox"/>
 </g>
</svg>
