<svg width="640" height="480" xmlns="http://www.w3.org/2000/svg" xmlns:svg="http://www.w3.org/2000/svg" xmlns:xlink="http://www.w3.org/1999/xlink">
 <!-- Sketchy ANNOTATION
  ImageNet ID: n02676566_8859
  URL: http://farm4.static.flickr.com/3601/3429718366_b51706004b.jpg
  Image Width: 500
  Image Height: 333
  BBox X: 114
  BBox Y: 67
  BBox Width: 62
  BBox Height: 173
  Exposure: 2000ms
  Synset Label: guitar
  Synset ID: n03467517
  Worker Tag: Guitar
  Sanity Check: 
   Saved
  Comment: 
   {}
  Worker ID: AIH9VLD92GHFH
  Assignment ID: 3Z7VU45IPYH2LVLWS9KR92YIWN01ZQ
  HIT ID: 37ZQELHEQ0Y3DBV8S5NT9NKRG3WNM0
  Work Time: 61s
  Worker Score: 0.7857
 END ANNOTATION -->
 <g display="inline">
  <title>Layer 1</title>
  <path t="0,432,445,446,464,464,479,485,486,497,497,513,529,529,545,562,562,578,579,595,595,617,628,629,645,645,662,678,679,695,695,713,713,728,729,762,778,779,779,828,828,845,845,862,862,878,895,895,913,913,928,929,945,945,945,962,962,978,979,979,995,995,1012,1012,1012,1030,1030,1046,1046,1062,1062,1078,1096,1096,1097,1112,1112,1128,1128,1129,1145,1162,1178,1178,1179,1195,1195,1195,1196,1212,1212,1212,1228,1228,1229,1245,1245,1262,1262,1263,1263,1278,1278,1279,1295,1295,1312,1312,1313,1328,1329,1329,1345,1345,1362,1363,1363,1363,1378,1379,1395,1395,1412,1413,1413,1428,1428,1445,1445,1445,1462,1462,1478,1479,1479,1495,1495,1512,1513,1528,1529,1529,1545,1545,1562,1562,1578,1579,1595,1612,1612,1628,1645,1645,1663,1663,1712,1745,1778,1779,1795,1795,1812,1845,1845,1862,1862,1878,1895,1895,1913,1914,1928,1929,1962,2029,2029,2032,2032,2045,2062,2062,2078,2095,2112,2112,2128,2128,2128,2145,2145,2162,2312,2328,2328,2345,2345,2362,2378,2379,2379,2395,2395,2396,2412,2412,2413,2428,2428,2429,2429,2445,2445,2462,2462,2463,2478,2478,2495,2495,2496,2512,2512,2529,2529,2530,2545,2545,2562,2562,2578,2579,2595,2595,2596,2612,2613,2628,2628,2645,2645,2646,2662,2663,2664,2678,2695,2695,2712,2712,2728,2744,2745,2746,2762,2763,2778,2779,2779,2795,2795,2796,2812,2812,2828,2829,2829,2845,2846,2846,2862,2862,2863,2878,2878,2879,2894,2895,2896,2913,2913,2928,2929,2929,2929,2944,2945,2962,2963,2963,2978,2979,2979,2996,2997,2997,3012,3012,3013,3013,3028,3029,3029,3044,3045,3046,3062,3063,3063,3064,3078,3078,3080,3080,3094,3095,3096,3112,3112,3113,3128,3128,3129,3144,3162,3162,3163,3178,3178,3179,3194,3195,3212,3213,3213,3228,3229,3245,3261,3262,3263,3278,3279,3295,3296,3316,3316,3328,3344,3345,3362,3362,3378,3379,3379,3394,3394,3395,3412,3412,3413,3413,3428,3428,3429,3430,3444,3445,3461,3462,3463,3463,3478,3478,3479,3494,3495,3496,3511,3512,3513,3528,3528,3529,3544,3545,3562,3562,3578,3579,3579,3595,3596,3596,3612,3612,3613,3628,3629,3629,3645,3646,3646,3647,3661,3662,3678,3679,3694,3695,3696,3696,3711,3712,3713,3728,3729,3744,3745,3746,3762,3763,3778,3779,3795,3811,3812,3828,3829,3845,3846,3862,3862,3878,3879,3893,3894,3894,3913,3914,3928,3929,3930,3945,3946,3962,3978,3979,4011,4012,4028,4029,4062,4063,4078,4079,4128,4145,4161,4194,4195,4211,4212,4213,4228,4229,4229,4244,4245,4246,4261,4262,4278,4279,4294,4295,4311,4312,4328,4345,4361,4363,4378,4379,4394,4395,4396,4411,4412,4413" d="m181,215c-0.05716,-1.75717 -0.39494,-2.64185 -0.64734,-3.4045c-0.32396,-0.9789 -0.32323,-1.80713 -0.51933,-2.5955c-0.20296,-0.81592 -0.62642,-1.58553 -0.77617,-2.5955c-0.10988,-0.74109 -0.05716,-1.77916 -0.05716,-2.72583c0,-0.85333 0.06628,-1.79582 0,-2.67867c-0.05733,-0.76361 -0.58623,-1.46906 -1.14934,-2.17467c-0.62862,-0.78769 -0.9234,-1.50786 -1.35066,-2.34616c-0.40213,-0.78899 -0.39008,-1.70203 -0.784,-2.59384c-0.32687,-0.74002 -0.65752,-1.52344 -0.71867,-2.36932c-0.06277,-0.86827 -0.54964,-1.65364 -1.18266,-2.10535c-0.90488,-0.64569 -1.53555,-1.14348 -1.76199,-2.06332c-0.16795,-0.68225 -0.44908,-1.77322 -1.21935,-2.34734c-0.62234,-0.46387 -1.40663,-0.83305 -1.948,-1.48399c-0.53589,-0.64433 -1.0401,-1.67795 -1.52133,-2.10535c-0.78075,-0.69341 -1.5535,-0.93748 -2.47867,-1.32799c-0.9012,-0.38039 -1.13869,-1.1143 -2.052,-1.74934c-0.58507,-0.40681 -1.67706,-0.4805 -2.35416,-0.85416c-0.82587,-0.45575 -1.47563,-0.80067 -2.2285,-1.04317c-1.09639,-0.35313 -1.92554,-0.44507 -2.79333,-0.87868c-0.73097,-0.36525 -1.15453,-0.81329 -2.31467,-1.3145c-0.76567,-0.33078 -1.68631,-0.46082 -2.39334,-0.66817c-0.74503,-0.21849 -1.77826,-0.52788 -2.55466,-0.57016c-0.96126,-0.05235 -1.944,-0.0045 -2.86134,-0.0045c-0.79166,0 -1.75465,0 -2.66666,0c-0.67201,0 -1.66133,0 -2.69867,0c-0.77333,0 -1.73601,0 -2.468,0c-0.73199,0 -1.95833,0 -2.80901,0c-1.02432,0 -1.70695,-0.02429 -2.51233,0.036c-1.18257,0.08852 -1.79263,0.20277 -2.65784,0.50568c-0.85315,0.29868 -1.59822,0.7813 -2.29549,1.27299c-0.67677,0.47725 -1.63953,0.97621 -2.44,1.12399c-0.77017,0.1422 -1.85836,0.2914 -2.436,0.744c-0.74235,0.58165 -1.3502,1.33345 -1.891,1.79651c-0.554,0.47437 -1.74719,1.19247 -2.34933,1.35382c-0.82518,0.22112 -1.97978,0.36118 -2.609,0.68784c-0.85315,0.44293 -1.53899,0.72606 -2.24934,1.15117c-0.97038,0.58072 -1.43259,1.33092 -1.82933,2.04134c-0.51681,0.9254 -1.12911,1.3129 -1.964,1.95084c-0.48511,0.37067 -1.20859,1.09389 -1.68934,1.56917c-0.80187,0.79276 -1.36443,1.37163 -2.252,1.968c-0.67735,0.45512 -1.40234,0.92653 -1.88,1.63466c-0.4922,0.72968 -0.80257,1.58388 -1.272,2.364c-0.49497,0.82257 -1.00657,1.40495 -1.53867,1.964c-0.78912,0.8291 -1.36929,1.31877 -1.82533,2.16933c-0.34689,0.64699 -0.6415,1.6617 -0.87883,2.52367c-0.22972,0.83435 -0.88284,1.39233 -1.473,1.95734c-0.69395,0.66438 -1.04112,1.42235 -1.28651,2.18033c-0.33064,1.02133 -0.35941,1.81065 -0.36166,2.77335c-0.0023,0.98132 0,1.89867 0,2.69032c0,0.95233 0,1.86301 0,2.71634c0,0.94 0,1.82533 0,2.5825c0,0.89549 -0.00552,1.75885 0,2.722c0.00533,0.93153 0.11682,1.90428 0.54166,2.5c0.63946,0.89665 1.64201,0.68974 2.3485,1.37799c0.58273,0.56769 0.85954,1.37125 1.3085,2.12683c0.49595,0.83467 0.59684,1.86058 1.13467,2.51601c0.53665,0.65399 1.3913,1.14717 1.64583,2c0.24429,0.81848 0.67466,1.55531 0.99551,2.41066c0.33136,0.88339 0.63687,1.55322 0.90383,2.56784c0.21092,0.80164 0.1215,1.6575 0.1215,2.67416c0,0.69467 0,1.71133 0,2.65184c0,0.86217 0,1.71632 0,2.6955c0,0.8 0,1.60001 0,2.5955c0,0.74733 0,1.76849 0,2.709c0,0.86217 0,1.6955 0,2.674c0,0.82016 0.00619,1.69353 -0.00017,2.5645c-0.00532,0.72906 -0.00456,1.57442 -0.22133,2.75667c-0.10942,0.59676 -0.30252,1.46997 -0.87867,2.55785c-0.36762,0.69412 -0.805,1.1842 -1.38383,2.19449c-0.35358,0.61713 -0.6758,1.28036 -1.032,1.896c-0.69811,1.2066 -1.22123,1.83157 -1.58383,2.59467c-0.32829,0.69089 -0.59917,1.69333 -0.85201,2.65201c-0.20486,0.77676 -0.61617,1.57333 -1.04816,2.30533c-0.432,0.73199 -0.88933,1.69489 -1.08266,2.46799c-0.20046,0.80157 -0.44462,1.54596 -0.63334,2.34933c-0.23255,0.98999 -0.27866,1.87198 -0.284,2.88251c-0.00411,0.77933 0,1.77899 0,2.61002c0,0.9595 0,1.711 0,2.50748c0,0.99734 0,1.87201 0,2.88269c0,0.79999 0,1.79999 0,2.61066c0,0.87466 0,1.87201 0,2.66849c0,0.7515 0,1.8595 0,2.84216c0,0.67868 -0.1846,1.69818 0.08533,2.47736c0.27965,0.80719 1.23598,1.52264 1.74,2.02667c0.52199,0.522 1.3437,1.24896 1.764,1.836c0.59301,0.82825 0.76884,1.61612 1.16783,2.33331c0.50101,0.9006 1.25398,1.48083 1.84417,1.80267c0.98337,0.53622 1.64029,0.78159 2.5985,1.52417c0.61846,0.47928 1.17489,1.05853 1.779,1.87851c0.42986,0.58347 0.77615,1.25394 1.564,1.99982c0.67491,0.63895 1.22533,0.99185 2.2905,1.63351c0.70314,0.42355 1.37427,0.78857 2.33333,1c0.77126,0.17001 1.61721,0.01733 2.69067,0.38834c0.85062,0.29401 1.47253,0.94983 2.148,1.431c0.74023,0.52731 1.19416,0.90881 2.18933,1.58566c0.75044,0.51041 1.5744,0.6998 2.347,0.74081c0.86001,0.04565 2.05729,0.0108 2.64767,0.03152c0.85424,0.03 1.88858,0.21381 2.8315,0.48932c0.74777,0.21851 1.62022,0.40335 2.6405,0.46399c0.72316,0.04297 1.45609,0.02408 2.517,0.03635c0.97517,0.01126 1.88716,0.03229 2.655,0.33301c0.75337,0.29504 1.38188,0.92514 2.5,1.33331c0.61667,0.22513 1.68703,0.30496 2.4185,0.32434c1.08116,0.02863 1.76283,0.009 2.72734,0.009c0.61633,0 1.82066,0 2.71016,0c0.8535,0 1.88933,0 2.58534,0c0.90933,0 1.90799,0 2.7045,0c0.7515,0 1.87016,0 2.85416,0c0.681,0 1.48801,0 2.66667,0c0.59734,0 1.45833,0 2.66667,0c0.68266,0 1.66666,0 2.584,0c0.74399,0 1.7793,0.03152 2.54666,0c0.87688,-0.03601 1.74846,-0.43729 2.45334,-0.85068c0.74734,-0.43832 1.60593,-0.9082 2.4975,-1.19748c0.73537,-0.23859 1.66373,-0.56873 2.36516,-1.15317c0.58742,-0.48944 0.45959,-1.60922 1.05334,-2.46533c0.4028,-0.58078 1.49519,-0.68057 2.23782,-1.03784c0.8007,-0.38519 1.63281,-0.78928 2.19551,-1.26617c0.86307,-0.73148 1.21231,-1.29263 1.79999,-2.13834c0.61298,-0.88211 0.98354,-1.50128 1.41068,-2.06967c0.62119,-0.82663 1.32822,-1.53247 2.1375,-2.00699c0.51494,-0.30194 1.33942,-0.51645 2.24651,-1.12332c0.6588,-0.44073 1.3593,-1.22311 1.80617,-1.70535c0.7317,-0.78961 1.22974,-1.34741 1.63516,-2.28531c0.36702,-0.84906 0.37117,-1.79321 1.028,-2.55768c0.51173,-0.59561 1.4379,-0.82516 1.97166,-1.68552c0.40408,-0.65131 0.33191,-1.52512 0.58583,-2.53564c0.23129,-0.9205 0.59879,-1.51105 1.07401,-2.52151c0.27975,-0.59485 0.53276,-1.61066 0.72533,-2.39999c0.24831,-1.01785 0.72972,-1.5686 1.27383,-2.39999c0.50612,-0.77332 0.66943,-1.62338 0.78801,-2.28534c0.1799,-1.00433 0.43275,-1.83725 0.71866,-2.716c0.29298,-0.90048 0.60683,-1.79352 0.76266,-2.39865c0.3067,-1.19101 0.39018,-2.09491 0.41518,-2.67917c0.03572,-0.83496 0.02083,-2.06369 0.02083,-2.71017c0,-1.01083 0,-1.83151 0,-2.97733c0,-0.7905 0,-1.35419 0,-2.23468c0,-1.19733 0,-2.07782 0,-2.64151c0,-1.27182 0,-1.93631 0,-2.95715c0,-0.79999 0,-1.60001 0,-2.60001c0,-0.79999 0,-1.79868 0,-2.74283c0,-0.89999 0,-1.85983 0,-2.62784c0,-0.79733 0,-1.77866 0,-2.696c0,-0.8125 0.00006,-1.81866 0,-2.54399c-0.00009,-0.98933 0.06842,-1.80649 -0.16667,-2.78934c-0.19637,-0.82097 -0.64775,-1.59363 -1.032,-2.39999c-0.37833,-0.79395 -0.65346,-1.80521 -0.82216,-2.60001c-0.12833,-0.60464 -0.64384,-1.63467 -1.16451,-2.12801c-0.73488,-0.69632 -1.65157,-1.20447 -1.81467,-1.89282c-0.22664,-0.95651 -0.62592,-1.59795 -1.48399,-2.18051c-0.67517,-0.45837 -1.36403,-0.95357 -1.88,-1.61333c-0.65498,-0.83749 -1.4202,-1.24428 -1.63467,-1.98666c-0.25795,-0.89287 -1.19261,-0.98488 -1.75867,-1.64166c-0.54301,-0.63007 -0.6535,-1.78134 -1.11465,-2.35701c-0.50342,-0.62843 -1.33215,-1.39577 -1.72351,-1.8c-0.57492,-0.59384 -1.27061,-1.37918 -1.76849,-2.2c-0.3555,-0.58609 -0.86928,-1.58308 -1.2,-2.364c-0.39551,-0.93391 -0.59111,-1.65088 -1.28667,-2.24666c-0.57001,-0.48824 -1.01865,-1.43285 -1.23201,-2.10535c-0.31743,-1.00055 -0.87794,-1.78751 -0.91733,-2.65067c-0.03799,-0.83272 -0.27197,-1.78824 -0.57466,-2.49466c-0.36722,-0.85703 -0.38934,-1.60001 -0.42084,-2.3905l-0.0045,-1.02699l0,-0.942l0,-0.7485" id="svg_1" stroke-width="2" stroke="#000" fill="none"/>
  <path t="22397,22608,22608,22625,22625,22642,22642,22659,22659,22691,22691,22708,22741,22741,22758,22758,22774,22791,22791,22808,22808,22824,22824,22825,22841,22841,22842,22858,22858,22858,22874,22875,22891,22891,22908,22908,22908,22924,22925,22958,22974,22991,22991,23024,23024,23041,23058,23074,23075,23091,23091,23091,23108,23124,23124,23124,23141,23141,23158,23158,23174,23191,23191,23191,23208,23208,23224,23241,23258,23258,23274,23291,23291,23308,23308,23308,23324,23324,23341,23341,23358,23358,23442,23444,23444,23457,23458,23458,23458,23458,23458,23474,23475,23475,23497,23498,23508,23527,23542,23542,23559,23560,23575,23591,23592,23608,23624,23624,23640,23641,23641,23658,23658,23658,23674,23675,23675,23691,23691,23691,23708,23708,23708,23724,23724,23725,23757,23758,23758" d="m145,234c-4.1375,0 -4.96666,0 -6.00534,0c-0.74399,0 -1.85182,0 -2.60933,0c-0.87067,0 -1.78983,0 -2.784,0c-0.76534,0 -1.716,0 -2.70151,0c-0.78516,0 -1.72609,-0.03581 -2.41583,0c-1.04153,0.05408 -1.43062,0.85127 -1.47333,1.75999c-0.04257,0.90575 0.02933,1.75359 -0.23233,2.78267c-0.18307,0.71999 -0.45205,1.51588 -1.0995,2.31467c-0.4388,0.54135 -1.22009,1.06444 -1.5095,1.912c-0.24753,0.72493 -0.18267,1.56537 -0.522,2.7735c-0.18484,0.6581 -0.56769,1.653 -0.6265,2.45717c-0.07295,0.99756 0.03587,1.80917 -0.10617,2.60001c-0.18221,1.01454 -0.68008,1.71233 -0.8575,2.64282c-0.17985,0.94322 -0.05717,1.92384 -0.05717,2.5825c0,1.00801 -0.35281,1.96123 0.036,2.73866c0.38604,0.77188 1.17811,1.23831 1.77833,1.73068c0.84579,0.69382 1.69627,0.6264 2.41767,0.78799c1.13049,0.25323 1.93037,0.77289 2.604,0.892c0.76129,0.13461 1.75139,0.41483 2.564,0.67267c0.98543,0.31265 1.76396,0.34732 2.716,0.35266c1.05066,0.00589 1.72,0 2.48534,0c0.99417,0 1.91333,0 2.87784,0c0.93149,0 1.84216,0 2.52083,0c1.11467,0 2.00746,0.06683 2.81433,-0.05716c0.96922,-0.14893 1.70341,-0.42114 2.41766,-0.74417c0.9861,-0.44598 1.51176,-0.96036 2.252,-1.68134c0.51297,-0.49963 1.45627,-1.01852 2.06934,-1.53201c0.65285,-0.54681 0.92296,-1.4379 1.2655,-2.02832c0.54524,-0.93982 0.95021,-1.85992 1.18201,-2.373c0.24165,-0.53488 0.71733,-1.63 0.93666,-2.168c0.57521,-1.41089 0.90181,-2.08649 1.0305,-2.98801c0.12897,-0.9034 0.032,-1.77533 0.032,-2.67082c0,-0.95851 0,-1.92384 0,-2.75717c0,-0.83333 0,-1.6955 0,-2.636c0,-0.84799 0.12637,-1.72093 -0.0045,-2.60683c-0.14571,-0.9863 -0.79671,-1.47081 -1.76616,-1.6745c-0.76131,-0.15996 -1.65237,-0.19241 -2.52917,-0.52534c-0.91487,-0.34738 -1.42776,-0.7899 -2.53349,-1.224c-0.69518,-0.27292 -1.61931,-0.32883 -2.58817,-0.33333c-0.81448,-0.00378 -1.68301,0 -2.57851,0c-0.89549,0 -1.76401,0 -2.83333,0c-0.714,0 -1.61934,0 -2.58784,0l-0.79349,0l-0.77551,0" id="svg_2" stroke-width="2" stroke="#000" fill="none"/>
  <path t="24380,24590,24591,24608,24609,24609,24609,24624,24624,24624,24640,24641,24658,24658,24658,24658,24674,24674,24674,24674,24690,24691,24708,24708,24724,24724,24724,24741,24741,24757,24758,24774,24774,24792,24793,24808,24824,24824,24840,24841,24857,24858,24874,24874,24874,24890,24891,24907,24926,24926,24940,24941,24941,24958,24958,24975,24975,24976,24990,24991,25007,25008,25039,25040,25058,25058,25058,25074,25074,25090,25091,25108,25108,25108,25124,25124,25124,25142,25142,25158,25158,25174,25174,25191,25191,25207,25208,25224,25241,25242,25257,25258,25258,25274,25290,25307,25308,25323,25324,25340,25357,25358,25391,25408,25424,25424,25441,25441,25474,25490,25524,25524,25540,25541,25557,25574,25574,25590,25607,25608,25623,25640,25657,25658,25658,25674,25690,25707,25740,25741,25757,25758,25758,25780,25780,25795,25808,25808,25808,25824,25824,25840,25857,25858,25858,25873,25874,25890,25891,25891,25907,25908,25908,25927,25927,25941,25941,25958,25959,25959,25973,25973,25990,25991,25991,26007,26008,26009,26024,26024,26040,26041,26041,26057,26058,26074,26075,26090,26091,26091,26107,26108,26108,26123,26124,26124,26140,26141,26157,26158,26158,26174,26175,26190,26191,26191,26207,26208,26223,26224,26225,26240,26241,26257,26258,26258,26259,26273,26274,26290,26291,26291,26307,26308,26308,26309,26323,26324,26324,26340,26341,26357,26358,26358,26374,26374,26390,26391,26391,26407,26408,26425,26426,26440,26441,26457,26458,26474,26490,26491,26507,26508,26523,26524,26540,26541,26541,26557,26573,26574,26590,26591,26607,26608,26623,26624,26640,26657,26658,26673,26723,26724,26757" d="m122,178c4.23067,-1.82933 5.21449,-1.98933 6.16667,-2c0.79045,-0.00885 1.644,0 2.23466,0c1.19733,0 2.07784,0 2.91333,0c1.00133,0 1.91066,0 2.85201,0c0.795,0 1.67999,0 2.31999,0c1.03433,0 2.11734,0 2.81601,0c0.64265,0 1.83482,0 2.66399,0c1.04317,0 1.81868,0 2.86667,0c0.7095,0 1.56216,0 2.56534,0c0.76534,0 1.85316,0 2.57066,0c1.03601,0 1.78,0 2.88766,0c0.72168,0 1.66383,0 2.627,0c0.69067,0 1.76784,0 2.48534,0c1.0405,0 1.81601,0 2.864,0c0.7095,0 1.56216,0 2.56534,0c0.76534,0 1.89502,-0.14142 2.70166,0.2215c0.63068,0.28375 1.44589,0.8707 2.15034,1.18916c0.74785,0.33809 1.62437,0.89471 2.2285,1.58934c0.70895,0.81516 1.17799,1.23601 1.86816,1.6955c0.90146,0.60016 1.45337,1.18849 1.95717,1.95717c0.45451,0.69347 1.20226,1.43713 1.6955,1.86816c0.87639,0.76585 1.27753,1.4691 1.55333,2.2285c0.32742,0.9015 0.33597,1.76512 0.80833,2.55968c0.43164,0.72604 1.13831,1.45061 1.453,1.963c0.50378,0.82027 0.89597,1.71811 1.0755,2.619c0.16539,0.82988 0.1553,1.84193 0.63066,2.56732c0.55127,0.84122 1.23721,1.26833 1.42201,2.19884c0.14594,0.73483 0.05716,1.74283 0.05716,2.54283c0,0.99983 0,1.77917 0,2.91467c0,0.88533 0,1.69966 0,2.65334c0,0.73199 0,1.46399 0,2.56c0,0.9765 0,1.83867 0,2.672c0,0.9785 0,1.79866 0,2.636c0,1.01666 0,1.71133 0,2.728c0,0.94051 -0.17029,1.8297 0.04167,2.61517c0.22804,0.84503 1.52222,0.82872 1.91666,1.54166c0.43152,0.77995 0.22749,1.8174 0.5625,2.47917c0.43416,0.85764 0.91039,1.67487 1.46451,2.38933c0.48189,0.62134 1.59486,0.69286 1.95332,1.472c0.41728,0.907 0.51112,1.64745 1.00867,2.43417c0.45518,0.71974 1.39838,1.12003 1.86734,1.56583c0.65222,0.62001 1.13463,1.48293 1.68533,2.13867c0.53581,0.638 0.71385,1.52713 1.14667,2.17467c0.58327,0.8726 1.42262,1.27083 1.784,1.79466c0.64124,0.9295 0.2784,1.87791 0.85468,2.77734c0.49881,0.77852 1.1759,1.09738 1.42932,1.85599c0.32278,0.96623 0.15762,1.92456 0.30667,2.78267c0.17079,0.98329 0.69318,1.61461 1.12801,2.364c0.52856,0.91092 0.81464,1.59804 0.85066,2.584c0.03389,0.92738 0,1.71851 0,2.74518c0,0.6855 0,1.52016 0,2.5215c0,0.79999 0,1.80133 0,2.63599c0,0.93066 0,1.71219 0,2.50269c0,1.11865 0,1.91199 0,2.80432c0,0.99866 0,1.56601 0,2.75665c0,0.87903 0,1.686 0,2.73236c0,0.77332 0,1.73734 0,2.48883c0,0.79648 0.15993,1.82217 -0.07201,2.63248c-0.29832,1.04227 -1.2113,1.42355 -1.59467,2.18002c-0.44177,0.87173 -0.29959,1.49524 -0.5,2.66666c-0.15364,0.89807 -0.38608,1.75418 -0.83333,2.66666c-0.34589,0.70569 -0.75562,1.29282 -0.95183,2.33868c-0.13867,0.73911 -0.28406,1.75439 -0.92017,2.32266c-0.64763,0.57855 -1.6254,0.74695 -2.25601,1.34399c-0.77998,0.73846 -0.82678,1.5769 -0.86299,2.32266c-0.05025,1.03488 -0.22701,1.92828 -0.86234,2.48935c-0.63239,0.55847 -1.44246,0.95749 -2.17467,1.63464c-0.56856,0.52582 -0.85362,1.64502 -0.92383,2.23935c-0.11404,0.96548 -0.02876,1.6954 -0.75801,2.77951c-0.38612,0.57404 -1.14172,1.18481 -1.54199,1.86783c-0.42938,0.7327 -1.05199,1.7012 -1.75351,2.18933c-0.71628,0.49838 -1.33423,0.67889 -2.02399,1.57333c-0.51813,0.67188 -0.69591,1.50555 -1.27518,2.42667c-0.40466,0.64346 -1.01924,1.34628 -1.52083,2.056c-0.52454,0.74222 -1.187,1.5817 -1.65384,2.24933c-0.56314,0.80536 -0.77013,1.52921 -1.15683,2.21335c-0.46693,0.82608 -1.40796,1.11459 -2.19733,1.45331c-0.82297,0.35312 -1.19383,1.20737 -1.6875,1.8125c-0.70555,0.86487 -1.48503,0.90619 -2.4575,1.021c-0.86505,0.10214 -1.23486,0.87643 -2.08417,1.29535c-0.67029,0.33063 -1.7894,0.63348 -2.58817,0.69382c-0.88953,0.06717 -1.60001,0.01068 -2.58133,0.01068c-0.95367,0 -1.86833,0 -2.73868,0c-0.79733,0 -1.77866,0 -2.696,0c-0.8125,0 -1.81732,0 -2.508,0c-1.06816,0 -1.92551,0 -2.71066,0c-0.94,0 -1.948,0 -2.81017,0l-0.82533,0" id="svg_3" stroke-width="2" stroke="#000" fill="none"/>
  <path t="27349,27490,27490,27490,27507,27507,27507,27507,27524,27524,27524,27524,27540,27541,27541,27541,27541,27557,27557,27557,27557,27557,27573,27574,27574,27574,27574,27590,27590,27590,27590,27607,27607,27607,27608,27608,27608,27622,27623,27623,27623,27623,27640,27640,27640,27640,27641,27657,27657,27657,27658,27658,27674,27674,27674,27674,27674,27674,27675,27690,27690,27690,27691,27691,27707,27707,27708,27708,27723,27724,27724,27724,27724,27724,27740,27741,27741,27741,27757,27757,27758,27758,27758,27773,27774,27774,27774,27775,27790,27791,27791,27791,27807,27807,27808,27808,27823,27824,27824,27824,27840,27841,27841,27857,27858,27858,27930,27930,27930,27931,27933,27933,27933,27933,27949,27949,27949,27949,27949,27950,27950,27950,27950,27967,27967,27967,27968,27968,27968,27968,27985,27986,27986,27986,28001,28001,28001,28001,28016,28017,28017,28031,28032,28032,28032,28052,28052,28052,28052,28066,28066,28066,28066,28080,28080,28080,28080,28080,28094,28094,28094,28094,28109,28109,28109,28109,28109,28124,28124,28124,28124,28140,28141,28141,28141,28142,28156,28157,28157,28157,28172,28173,28173,28173,28189,28189,28189,28190,28190,28207,28208,28208,28209,28223,28223,28223,28240,28241,28241,28241,28256,28257,28272,28273,28290,28291,28291,28307,28308" d="m122,180c0,-4.51601 0,-5.17467 0,-6.15266c0,-1.01401 0,-1.73134 0,-2.47267c0,-1.12199 0,-2.20799 0,-2.892c0,-1.00349 0,-1.6925 0,-2.81599c0,-0.836 0,-1.72801 0,-2.1875c0,-0.931 0.00835,-2.31256 -0.00267,-3.19383c-0.01062,-0.84947 -0.00191,-1.26866 -0.11166,-2.08084c-0.16395,-1.21321 -0.44661,-2.00703 -0.73634,-2.8045c-0.29158,-0.8026 -0.64215,-1.58514 -0.90649,-2.80016c-0.17332,-0.79662 -0.21868,-1.62094 -0.291,-2.457c-0.1133,-1.30997 -0.16104,-1.76605 -0.30901,-2.69551c-0.15114,-0.9494 -0.24606,-1.42354 -0.44416,-2.36333c-0.28773,-1.36499 -0.40421,-1.79851 -0.58801,-2.65866c-0.18147,-0.84926 -0.35151,-1.70638 -0.48949,-3.04668c-0.04755,-0.46182 -0.09589,-1.40491 -0.1825,-2.35333c-0.04321,-0.47318 -0.244,-1.86661 -0.508,-2.74266c-0.26424,-0.87685 -0.46498,-1.2986 -0.78249,-2.1925c-0.50298,-1.41605 -0.64007,-1.9296 -0.89101,-2.9955c-0.12801,-0.54376 -0.2393,-1.09409 -0.45267,-2.18933c-0.10462,-0.53706 -0.40443,-2.06231 -0.6,-2.991c-0.18376,-0.87265 -0.28751,-1.28973 -0.41917,-2.11167c-0.19199,-1.19871 -0.22832,-2.00796 -0.30617,-2.8235c-0.07992,-0.83725 -0.29667,-2.15002 -0.54716,-3.06316c-0.1292,-0.47097 -0.4351,-1.41503 -0.58133,-1.89067c-0.28882,-0.93946 -0.62804,-2.30096 -0.74084,-3.16816c-0.10849,-0.83403 -0.12939,-1.65583 -0.2765,-2.85717c-0.09827,-0.80257 -0.186,-1.2 -0.33334,-2c-0.14733,-0.8 -0.34525,-1.99886 -0.416,-2.8c-0.07056,-0.79903 -0.09293,-1.60137 -0.168,-2.39999c-0.11302,-1.20241 -0.25629,-2.00072 -0.45766,-2.77917c-0.19903,-0.7694 -0.60375,-1.86463 -1.111,-2.86817c-0.33352,-0.65984 -0.7326,-1.28801 -1.18067,-2.31933c-0.30635,-0.70513 -0.54243,-1.44218 -0.72,-2.172c-0.32085,-1.31873 -0.40867,-2.15052 -0.436,-2.876c-0.03584,-0.95138 0.01575,-1.7442 -0.04667,-2.596c-0.08746,-1.19328 -0.24253,-1.78935 -0.464,-2.6685c-0.21081,-0.83683 -0.42,-1.84853 -0.52084,-2.70834c-0.09141,-0.77938 -0.14162,-1.26545 -0.3125,-2.47916c-0.10526,-0.74761 -0.23425,-1.57628 -0.3765,-2.469c-0.14967,-0.9393 -0.30936,-1.90627 -0.4755,-2.883c-0.16487,-0.96927 -0.32491,-1.9133 -0.648,-3.64799c-0.14188,-0.76176 -0.27901,-1.44953 -0.405,-2.0715c-0.11411,-0.56335 -0.23219,-1.07197 -0.4,-1.96867c-0.2103,-1.12374 -0.309,-2.1405 -0.36166,-2.79317c-0.05267,-0.65267 -0.21401,-2.02253 -0.35267,-2.74817c-0.13995,-0.73245 -0.32452,-1.43691 -0.52616,-2.70917c-0.1251,-0.78928 -0.17989,-1.56422 -0.56384,-2.6855c-0.23222,-0.6782 -0.5764,-1.3706 -0.85201,-2.109c-0.39993,-1.07148 -0.57429,-1.75978 -0.66367,-2.74817c-0.05885,-0.65083 -0.03613,-2.02156 -0.04617,-2.75717c-0.01041,-0.76377 -0.02026,-1.55075 -0.16216,-2.74283c-0.09557,-0.80289 -0.26254,-1.59929 -0.408,-2.4c-0.1452,-0.7993 -0.31196,-1.99936 -0.37267,-2.8c-0.06062,-0.79943 -0.07482,-1.60329 -0.21933,-2.8c-0.09693,-0.80273 -0.26254,-1.59929 -0.408,-2.4c-0.1452,-0.7993 -0.31779,-1.999 -0.36816,-2.8c-0.05027,-0.79924 -0.05291,-1.6 -0.05717,-2.8c-0.00283,-0.79867 0.00396,-1.5914 -0.072,-2.364c-0.07408,-0.75349 -0.3541,-1.82141 -0.63333,-2.48333c-0.27834,-0.6598 -0.79203,-1.6184 -1.05183,-2.67417c-0.17864,-0.72593 -0.2177,-1.49973 -0.291,-2.283c-0.11194,-1.19613 -0.23196,-1.99619 -0.37717,-2.7955c-0.14546,-0.80071 -0.31964,-1.59643 -0.45334,-2.79967c-0.08772,-0.78945 -0.09959,-1.56057 -0.174,-2.286c-0.13087,-1.27599 -0.35757,-2.07032 -0.709,-2.7625c-0.50819,-1.00092 -0.90442,-1.49407 -1.377,-2.3265c-0.30366,-0.53488 -0.7478,-1.76889 -0.876,-2.41467c-0.20087,-1.01184 -0.56625,-1.78724 -0.81867,-2.81067c-0.19411,-0.78701 -0.16533,-1.6 -0.17117,-2.591l-0.08083,-0.83833" id="svg_4" stroke-width="2" stroke="#000" fill="none"/>
  <path t="28747,28939,28940,28940,28956,28956,28956,28973,28973,28973,28973,28990,28990,28990,29008,29009,29009,29009,29009,29023,29024,29024,29024,29040,29040,29041,29057,29057,29057,29073,29073,29073,29073,29090,29090,29090,29090,29107,29107,29123,29123,29123,29123,29140,29140,29140,29140,29157,29157,29157,29158,29158,29173,29174,29174,29174,29190,29190,29190,29191,29207,29207,29207,29207,29208,29223,29224,29224,29224,29224,29240,29241,29241,29257,29257,29257,29257,29258,29273,29274,29274,29274,29290,29290,29291,29291,29291,29307,29307,29307,29308,29308,29323,29324,29324,29324,29340,29340,29340,29341,29341,29357,29357,29357,29358,29373,29374,29374,29374,29374,29390,29390,29390,29391,29407,29407,29407,29407,29422,29423,29423,29423,29423,29439,29439,29439,29439,29457,29457,29458,29458,29458,29473,29473,29474,29474,29475,29490,29490,29490,29491,29491,29491,29507,29507,29507,29507,29508,29523,29523,29524,29524,29524,29540,29540,29541,29541,29541,29556,29557,29557,29557,29573,29573,29574,29590,29590,29590,29591,29607,29607,29608,29608,29623,29623,29640,29640,29641,29657,29657,29658,29658,29673,29674,29690,29690,29690,29707,29708,29708,29723,29724,29724,29740,29740,29741,29757,29757,29758,29790,29790,29791" d="m140,172c-2.744,-3.59866 -2.96506,-4.47769 -2.996,-5.31467c-0.03703,-1.002 -0.00359,-1.70616 -0.004,-2.45467c-0.00067,-1.2 0.00102,-1.8925 -0.036,-2.616c-0.03749,-0.73271 -0.24411,-2.13153 -0.38934,-2.78934c-0.21622,-0.97929 -0.42493,-1.9903 -0.48933,-2.71066c-0.06699,-0.7493 -0.07889,-1.52528 -0.084,-2.31601c-0.00774,-1.19846 -0.00133,-1.99416 -0.00133,-2.77783c0,-0.76366 0,-2.19916 0,-2.85916c0,-0.91499 0,-1.995 0,-2.7135c0,-0.7095 0,-1.78149 0,-2.758c0,-0.711 0.00243,-1.442 0,-2.5235c-0.00226,-1.005 0.03767,-1.63144 -0.08533,-2.48001c-0.18175,-1.25392 -0.54842,-1.93544 -0.748,-3.01999c-0.11604,-0.6306 -0.14415,-1.3277 -0.16217,-2.4185c-0.01787,-1.08136 -0.0045,-1.7655 -0.0045,-2.769c0,-0.68901 0.00375,-1.81252 -0.00133,-2.64717c-0.00537,-0.8827 0.00075,-1.33305 -0.05583,-2.22667c-0.08067,-1.27415 -0.21971,-2.03749 -0.44284,-3.0845c-0.14278,-0.66998 -0.35347,-1.68551 -0.41467,-2.40617c-0.09625,-1.13326 -0.08109,-1.91917 -0.08533,-3.11467c-0.00284,-0.8 0.00243,-1.60186 -0.07201,-2.4c-0.07484,-0.80257 -0.36293,-2.00234 -0.49599,-2.39867c-0.26724,-0.79601 -0.61272,-1.55425 -0.86401,-2.316c-0.45644,-1.38359 -0.50777,-2.05987 -0.58266,-2.71066c-0.15431,-1.34106 -0.26772,-2.0603 -0.41068,-2.81067c-0.14764,-0.77499 -0.32024,-1.56169 -0.45332,-2.764c-0.08835,-0.79807 -0.10976,-1.60085 -0.17401,-2.4c-0.0966,-1.20152 -0.21501,-2.00403 -0.394,-2.8c-0.18091,-0.80453 -0.41571,-1.60907 -0.8745,-2.8c-0.31068,-0.80647 -0.50749,-1.19447 -0.8175,-2c-0.30588,-0.79478 -0.64012,-1.9967 -0.7515,-2.8c-0.11054,-0.79731 -0.12971,-1.60313 -0.2765,-2.8c-0.09843,-0.80255 -0.26254,-1.59928 -0.408,-2.4c-0.1452,-0.7993 -0.31779,-1.999 -0.36816,-2.8c-0.05027,-0.79925 -0.05392,-1.6 -0.05717,-2.8c-0.00217,-0.79867 0.00208,-1.58985 -0.036,-2.364c-0.03696,-0.75138 -0.14796,-1.82394 -0.41066,-2.81067c-0.17513,-0.6578 -0.42633,-1.31517 -0.87467,-2.34683c-0.32158,-0.73997 -0.69089,-1.49403 -1.026,-2.283c-0.50452,-1.18781 -0.78465,-1.99014 -1.006,-2.7955c-0.21854,-0.79514 -0.39083,-1.59616 -0.52534,-2.8c-0.08916,-0.79797 -0.10975,-1.60085 -0.174,-2.4c-0.0966,-1.20153 -0.21501,-2.00403 -0.394,-2.8c-0.18092,-0.80453 -0.28454,-1.21072 -0.72,-2.4c-0.29677,-0.8105 -0.66612,-1.61831 -1.008,-2.472c-0.17653,-0.44081 -0.6673,-1.85895 -0.80383,-2.37067c-0.28228,-1.05804 -0.391,-1.60689 -0.61083,-2.70667c-0.1089,-0.5448 -0.40697,-2.1181 -0.51083,-2.60767c-0.19733,-0.93018 -0.39992,-1.8075 -0.657,-2.634c-0.37913,-1.21886 -0.5574,-1.61184 -0.8955,-2.409c-0.34054,-0.80291 -0.72369,-1.58865 -1.18067,-2.8c-0.29917,-0.79303 -0.52709,-1.5982 -0.625,-2c-0.19413,-0.79669 -0.3874,-1.99881 -0.45766,-2.79733c-0.10204,-1.15956 -0.08463,-1.89579 -0.25066,-2.86933c-0.14193,-0.83223 -0.47633,-1.53281 -0.71217,-2.755c-0.10324,-0.53504 -0.14709,-1.43199 -0.2905,-2.065c-0.32051,-1.41467 -0.6777,-2.1189 -0.98,-2.816c-0.27932,-0.64413 -0.68608,-1.64281 -0.89883,-2.49817c-0.24123,-0.96984 -0.47317,-1.75686 -0.59917,-2.36533c-0.27869,-1.34586 -0.30659,-2.07702 -0.33183,-2.79217c-0.03481,-0.98658 -0.02025,-1.98833 -0.02084,-2.8425c-0.00067,-0.96983 0.01184,-1.74391 -0.08533,-2.60183c-0.10213,-0.9017 -0.32788,-1.79942 -0.56133,-2.36133c-0.45621,-1.09806 -1.04131,-1.75624 -1.492,-2.46133c-0.58128,-0.9094 -0.78511,-1.72391 -0.84,-2.54933c-0.07027,-1.05655 -0.02583,-1.77267 -0.05733,-2.45067l-0.18533,-1.19583l-0.20399,-0.7935l-0.222,-0.7755" id="svg_5" stroke-width="2" stroke="#000" fill="none"/>
  <path t="30266,30456,30457,30457,30457,30473,30473,30473,30473,30473,30474,30489,30490,30490,30490,30490,30490,30490,30507,30507,30507,30507,30507,30507,30508,30523,30523,30523,30523,30523,30523,30540,30540,30540,30540,30540,30540,30541,30556,30557,30557,30557,30557,30557,30557,30573,30573,30573,30573,30574,30574,30589,30590,30590,30590,30594,30594,30606,30607,30607,30607,30607,30607,30607,30623,30623,30623,30623,30624,30624,30639,30640,30640,30640,30640,30656,30657,30657,30657,30673,30673,30673,30673,30674,30690,30690,30690,30690,30691,30761,30762,30762,30762,30762,30762,30762,30764,30764,30764,30764,30765,30765,30765,30782,30782,30782,30782,30782,30783,30783,30783,30783,30800,30800,30800,30800,30800,30800,30800,30800,30816,30816,30817,30817,30817,30832,30832,30832,30832,30833,30848,30848,30848,30848,30848,30848,30873,30873,30873,30874,30875,30875,30876,30876,30876,30876,30892,30893,30893,30893,30893,30910,30910,30911,30911,30911,30928,30929,30929,30929,30947,30947,30947,30947,30947,30947,30965,30965,30965,30965,30965,30987,30987,30987,30988,30988,31003,31003,31003,31003,31003,31003,31003,31022,31022,31022,31023,31023,31039,31039,31039,31040,31040,31057,31057,31057,31057,31058,31058,31074,31075,31075,31075,31075,31091,31091,31092,31092,31092,31092,31109,31109,31109,31109,31109,31109,31125,31126,31126,31126,31126,31126,31143,31143,31143,31143,31144,31159,31160,31160,31160,31160,31176,31176,31176,31177,31177,31177,31177,31194,31194,31194,31194,31195,31211,31211,31211,31211,31212,31212,31229,31229,31229,31229,31229,31246,31246,31247,31247,31247,31264,31264,31264,31264,31280,31280,31281,31281,31281,31297,31297,31297,31298,31298,31314,31314,31314,31315,31331,31331,31331,31331,31348,31348,31348,31365,31365,31365,31382,31382" d="m128,263c1.75667,-5.27866 1.91667,-6.14639 1.91667,-7c0,-0.85359 -0.24168,-2.16875 -0.35934,-2.62167c-0.24541,-0.94464 -0.56293,-1.91838 -0.70667,-2.42499c-0.29417,-1.03682 -0.52988,-2.1181 -0.60783,-2.67484c-0.15857,-1.13237 -0.18469,-1.71429 -0.222,-2.29933c-0.07547,-1.18327 -0.07912,-1.78255 -0.24216,-3.57918c-0.05452,-0.60078 -0.13035,-1.20012 -0.20399,-1.79999c-0.14736,-1.20026 -0.22916,-1.79922 -0.29067,-2.40001c-0.1841,-1.79794 -0.20249,-2.39987 -0.23133,-3c-0.05766,-1.19977 -0.07268,-1.80026 -0.10533,-2.39999c-0.09805,-1.80095 -0.16161,-2.40085 -0.234,-3c-0.1452,-1.20187 -0.24776,-1.80132 -0.36,-2.40001c-0.22549,-1.2028 -0.51554,-2.40115 -0.6745,-2.99983c-0.3181,-1.19806 -0.49519,-1.78902 -0.658,-2.37933c-0.16117,-0.58437 -0.48438,-1.72905 -0.6875,-2.85416c-0.19428,-1.07611 -0.23464,-1.60854 -0.29167,-2.64584c-0.02803,-0.5098 -0.03867,-1.5195 -0.04183,-3.02116c-0.00106,-0.50233 -0.00677,-1.52109 -0.02067,-2.04134c-0.02866,-1.07289 -0.05003,-1.6301 -0.14583,-2.79166c-0.10194,-1.23602 -0.18524,-1.8721 -0.25867,-2.51733c-0.0739,-0.64943 -0.22601,-1.94359 -0.29067,-2.58134c-0.1251,-1.2339 -0.20322,-2.39578 -0.22683,-2.94916c-0.04504,-1.056 -0.05069,-1.56148 -0.05583,-2.53084c-0.00725,-1.36649 -0.00134,-2.23083 -0.00134,-2.65199c0,-0.82533 0,-1.63467 0,-2.83617c0,-0.80434 0,-1.62067 0,-2.457c0,-1.30951 0,-2.22684 0,-2.69551c0,-0.94733 0,-1.89465 0,-3.28065c0,-0.44551 0,-1.31851 0,-2.1875c0,-0.88901 0,-2.3125 0,-2.82201c0,-1.067 0,-1.6185 0,-2.17799c0,-1.13101 0.0017,-1.6965 -0.00017,-3.35884c-0.00061,-0.54433 -0.00837,-1.65904 -0.02067,-2.24533c-0.01293,-0.61638 -0.0323,-1.27083 -0.0645,-1.97099c-0.07227,-1.57112 -0.13448,-2.45345 -0.19866,-3.39201c-0.06708,-0.98077 -0.14133,-1.98933 -0.216,-3.01199c-0.07467,-1.02266 -0.15007,-2.03114 -0.216,-3.01199c-0.12241,-1.821 -0.16531,-2.63721 -0.19866,-3.38934c-0.03077,-0.69389 -0.05146,-1.33595 -0.0645,-1.93199c-0.01216,-0.55595 -0.01859,-1.078 -0.02084,-2.5c-0.0007,-0.44518 0,-1.30951 0,-2.14584c0,-0.81633 0,-2.02083 0,-2.8235c0,-0.81866 0,-1.66933 0,-2.56799c0,-0.96266 0,-1.996 0,-2.53017c0,-1.07834 0,-1.6125 0,-2.64583c0,-1.38934 0,-2.19534 0,-2.95334c0,-0.758 0,-2 0,-2.46417c0,-0.99832 0,-2.05666 0,-2.59583c0,-0.53917 0,-2.10667 0,-3.06934c0,-0.89867 0,-1.329 0,-2.16167c0,-1.209 0.0133,-2.00954 -0.02133,-2.809c-0.03469,-0.80086 -0.09397,-1.6139 -0.42133,-2.80017c-0.22508,-0.81564 -0.58339,-1.61194 -0.85201,-2.457c-0.41238,-1.29734 -0.49066,-1.76068 -0.591,-2.6955c-0.10139,-0.94469 -0.10135,-1.42188 -0.11166,-2.36333c-0.01492,-1.36259 -0.00014,-2.23149 -0.02351,-3.084c-0.01166,-0.42544 -0.03651,-1.28714 -0.20066,-2.62167c-0.11595,-0.94264 -0.21085,-1.42564 -0.38917,-2.425c-0.09195,-0.51534 -0.39106,-2.11969 -0.48917,-2.6745c-0.19917,-1.12639 -0.29276,-1.69299 -0.37933,-2.258c-0.17007,-1.11004 -0.2646,-1.64866 -0.39934,-3.178c-0.08208,-0.9316 -0.09345,-1.38131 -0.11083,-2.2575c-0.01721,-0.86788 -0.0033,-2.20694 -0.01967,-3.1425c-0.00838,-0.47892 -0.03224,-1.45705 -0.16167,-2.44417c-0.13154,-1.00324 -0.39203,-1.99883 -0.53466,-2.49416c-0.28413,-0.98676 -0.47025,-1.46108 -0.72667,-2.41917c-0.36256,-1.35471 -0.46356,-2.2366 -0.50667,-2.67067c-0.08688,-0.87498 -0.12587,-1.78581 -0.28267,-3.2575c-0.05618,-0.52723 -0.13152,-1.06698 -0.27866,-2.178c-0.07476,-0.56448 -0.23189,-1.69494 -0.33334,-2.8125c-0.09804,-1.08005 -0.1146,-1.60947 -0.16666,-2.64583c-0.02563,-0.51015 -0.06677,-1.52107 -0.16666,-2.52084c-0.1001,-1.00187 -0.25916,-1.99992 -0.33334,-2.5c-0.14832,-0.99986 -0.24223,-1.49738 -0.37883,-2.99983c-0.09039,-0.99424 -0.09524,-1.49044 -0.1825,-2.46417c-0.04296,-0.47936 -0.244,-1.87729 -0.508,-2.75333c-0.26424,-0.87685 -0.46498,-1.29859 -0.78249,-2.1925c-0.50298,-1.41605 -0.64361,-1.92879 -0.88651,-2.9955c-0.12374,-0.54342 -0.23331,-1.09256 -0.4,-2.18933c-0.08152,-0.53638 -0.2346,-2.06302 -0.318,-2.9955c-0.07955,-0.88953 -0.0903,-1.33524 -0.29833,-2.1925c-0.33017,-1.36057 -0.58811,-1.80755 -1.032,-2.75333c-0.22876,-0.48741 -0.72402,-1.46323 -0.94666,-1.96534c-0.6579,-1.48372 -0.823,-1.98949 -1.08401,-2.988c-0.25299,-0.96785 -0.35165,-1.44891 -0.516,-2.844c-0.10355,-0.879 -0.13857,-1.73046 -0.156,-2.556c-0.01708,-0.80921 -0.00484,-2.01072 -0.01517,-2.81067c-0.01034,-0.8001 -0.02531,-1.60281 -0.16216,-2.8c-0.04586,-0.40115 -0.17623,-1.20446 -0.375,-2c-0.20112,-0.80495 -0.61814,-2.00274 -0.941,-2.8c-0.32512,-0.80282 -0.69001,-1.58839 -0.948,-2.4c-0.37667,-1.185 -0.4745,-1.99393 -0.52767,-2.77917c-0.05164,-0.76262 -0.03545,-1.85421 -0.043,-2.5355c-0.0107,-0.96464 -0.00185,-1.58943 -0.22,-2.78517c-0.1638,-0.89777 -0.39988,-1.45397 -0.612,-2.5335c-0.1815,-0.92367 -0.25066,-1.76533 -0.51933,-2.76217l-0.222,-0.5685" id="svg_6" stroke-width="2" stroke="#000" fill="none"/>
  <path t="31762,31906,31906,31906,31906,31906,31906,31921,31921,31921,31921,31922,31922,31922,31939,31940,31940,31940,31940,31940,31940,31940,31940,31957,31957,31957,31957,31958,31958,31958,31958,31958,31972,31972,31972,31972,31972,31972,31972,31972,31972,31992,31992,31992,31992,31992,31992,31993,31993,31993,32013,32014,32014,32014,32014,32014,32014,32014,32014,32032,32032,32032,32032,32032,32032,32032,32032,32032,32050,32050,32050,32050,32051,32051,32051,32051,32051,32068,32068,32069,32069,32069,32069,32069,32069,32069,32086,32086,32086,32086,32086,32086,32086,32086,32086,32103,32104,32104,32104,32104,32104,32104,32122,32122,32122,32122,32122,32122,32122,32140,32140,32140,32140,32140,32140,32140,32140,32158,32158,32158,32158,32158,32158,32176,32176,32176,32176,32176,32176,32176,32194,32194,32194,32194,32194,32194,32194,32212,32212,32212,32212,32212,32213,32213,32230,32230,32230,32231,32231,32231,32248,32248,32248,32249,32249,32249,32249,32267,32267,32267,32267,32267,32267,32267,32288,32288,32289,32289,32289,32289,32289,32308,32308,32308,32308,32309,32309,32310,32311,32311,32311,32311,32311,32313,32313,32313,32313,32313,32314,32334,32334,32334,32335,32335,32335,32356,32356,32356,32356,32357,32357,32358,32359,32359,32359,32359,32359,32380,32380,32380,32381,32381,32381,32402,32402,32402,32402,32402,32422,32422,32422,32422,32422,32422,32424,32424,32424,32424,32425,32443,32444,32444,32444,32444,32444,32444,32463,32463,32464,32464,32464,32482,32483,32483,32483,32483,32502,32502,32502,32503,32503,32503,32522,32522,32522,32523,32523,32524,32524,32525,32525,32525,32543,32544,32544,32544,32544,32563,32563,32564,32564,32583,32583,32583,32584,32603,32603,32603,32604,32604,32622,32623,32623,32641,32642,32642,32661,32661,32661,32681,32699" d="m131,262c-0.22133,-10.771 -0.27962,-11.48846 -0.35266,-12.157c-0.06856,-0.62746 -0.22557,-1.77853 -0.29468,-2.31601c-0.19615,-1.52573 -0.23215,-2.0278 -0.30899,-3.0495c-0.03992,-0.53081 -0.13451,-1.65826 -0.21068,-2.26332c-0.08078,-0.64174 -0.32607,-2.049 -0.49699,-2.821c-0.18069,-0.81615 -0.39285,-1.6613 -0.612,-2.5305c-0.22282,-0.88379 -0.45221,-1.77098 -0.666,-2.65651c-0.21015,-0.8705 -0.56892,-2.53767 -0.6935,-3.32083c-0.11895,-0.74774 -0.20169,-1.47395 -0.2565,-2.18399c-0.05408,-0.70073 -0.08061,-1.40257 -0.09451,-2.112c-0.01421,-0.72527 -0.01302,-2.25601 -0.01366,-3.07468c-0.00067,-0.85066 -0.00237,-1.72534 -0.0105,-2.616c-0.00819,-0.89868 -0.02158,-1.79742 -0.0465,-2.688c-0.02448,-0.87477 -0.10416,-2.54439 -0.16417,-3.32516c-0.05754,-0.74858 -0.1297,-1.4705 -0.20399,-2.17349c-0.07307,-0.69135 -0.15175,-1.37709 -0.222,-2.06551c-0.07111,-0.69691 -0.19012,-2.14627 -0.2315,-2.91083c-0.04276,-0.79013 -0.0723,-1.60271 -0.10651,-2.433c-0.03478,-0.84438 -0.07059,-1.69899 -0.1245,-2.55901c-0.05408,-0.86269 -0.215,-2.57814 -0.33283,-3.42216c-0.11691,-0.83739 -0.2602,-1.66478 -0.408,-2.4855c-0.14688,-0.81561 -0.3023,-1.62469 -0.444,-2.4315c-0.14095,-0.80254 -0.38091,-2.40353 -0.46233,-3.2045c-0.08124,-0.79915 -0.13465,-1.5997 -0.171,-2.39999c-0.03632,-0.79976 -0.05367,-1.59996 -0.063,-2.40001c-0.00933,-0.79996 -0.0085,-2.39999 -0.00917,-3.19983c-0.00066,-0.79883 -0.0023,-1.59567 -0.0105,-2.3895c-0.00815,-0.78987 -0.02171,-1.57478 -0.0465,-2.3535c-0.02457,-0.77196 -0.10515,-2.29083 -0.16417,-3.03568c-0.05836,-0.73651 -0.13003,-1.46446 -0.20399,-2.1855c-0.07338,-0.7153 -0.15117,-1.42514 -0.222,-2.13148c-0.0705,-0.70299 -0.23512,-2.80414 -0.26733,-3.50317c-0.0321,-0.69667 -0.0518,-1.39063 -0.0645,-2.08051c-0.01261,-0.68478 -0.02016,-2.03549 -0.02084,-3.35416c-0.00033,-0.64534 0,-1.28267 0,-2.54134c0,-0.62534 0,-1.25067 0,-1.87801c0,-1.914 0,-2.5685 0,-3.23c0,-0.6655 0,-1.99651 0,-2.65601c0,-0.65149 0,-1.29199 0,-3.11867c0,-0.57466 0,-1.13733 0,-2.24266c0,-0.55066 0.00016,-1.668 0,-2.83333c-0.00008,-0.60951 -0.00256,-1.87653 -0.01067,-2.528c-0.00821,-0.65953 -0.01752,-1.3243 -0.0465,-1.99051c-0.08624,-1.98264 -0.16077,-2.62701 -0.22683,-3.26283c-0.06531,-0.62852 -0.21676,-1.86441 -0.29067,-2.47467c-0.07341,-0.60606 -0.26311,-2.41034 -0.30383,-3.0105c-0.0406,-0.59854 -0.08795,-1.78943 -0.10066,-2.37933c-0.0126,-0.58479 -0.02016,-1.7355 -0.02084,-2.85416c-0.00065,-1.084 0,-1.6185 0,-2.6875c0,-0.5405 0,-1.6485 0,-2.8125c0,-0.60933 0,-1.87199 0,-2.51733c0,-0.64933 0,-1.29866 0,-2.58133c0,-1.23466 0.00797,-1.82542 -0.009,-2.96267c-0.00828,-0.55474 -0.05645,-1.65654 -0.10533,-2.21066c-0.04969,-0.56329 -0.32382,-2.33826 -0.45367,-2.96267c-0.13273,-0.63831 -0.28561,-1.282 -0.58133,-2.58133c-0.1468,-0.64501 -0.31287,-1.27731 -0.51733,-2.51733c-0.19099,-1.15835 -0.23434,-1.71807 -0.29167,-2.79167c-0.02777,-0.51999 -0.04033,-1.53899 -0.04166,-2.54166c-0.00134,-1.00134 0,-1.5045 0,-2.52084c0,-1.03633 0.00161,-1.5645 -0.00017,-3.2005c-0.00061,-0.56266 0.00264,-1.13145 -0.02067,-2.27866c-0.01167,-0.57475 -0.04926,-1.71722 -0.14583,-2.83334c-0.04723,-0.54586 -0.18442,-1.60972 -0.25867,-2.13066c-0.14621,-1.02579 -0.30779,-2.03281 -0.408,-3.036c-0.09973,-0.99844 -0.114,-1.5 -0.16666,-2.5c-0.05267,-1 -0.0592,-1.50248 -0.22134,-3.00017c-0.05436,-0.50214 -0.20504,-1.51035 -0.27866,-2.02067c-0.14946,-1.03603 -0.24441,-1.56193 -0.3785,-3.20033c-0.0459,-0.56079 -0.08893,-1.69341 -0.10066,-2.258c-0.02309,-1.11088 -0.01658,-1.65151 -0.02117,-3.17817c-0.00143,-0.47467 0.00197,-1.39358 -0.07166,-2.29333c-0.07525,-0.91955 -0.24729,-1.88595 -0.496,-2.91733c-0.13001,-0.53915 -0.43336,-1.63163 -0.58133,-2.18133c-0.14669,-0.54497 -0.53686,-2.11422 -0.68134,-3.08267c-0.06883,-0.46137 -0.14545,-1.36824 -0.2175,-2.27333c-0.1137,-1.42839 -0.16454,-1.93849 -0.30901,-3c-0.07431,-0.54597 -0.15707,-1.09579 -0.34733,-2.18933c-0.09359,-0.53791 -0.39556,-2.06245 -0.591,-2.9955c-0.09394,-0.44847 -0.29018,-1.32101 -0.41917,-2.1925c-0.19749,-1.33432 -0.23526,-2.27464 -0.27067,-2.75333c-0.07211,-0.97496 -0.06212,-1.47916 -0.348,-2.964c-0.19401,-1.00766 -0.36624,-1.4988 -0.6875,-2.47917c-0.15943,-0.48652 -0.51412,-1.42967 -0.9575,-2.79933c-0.14062,-0.43439 -0.39262,-1.28143 -0.575,-2.11083c-0.17719,-0.80574 -0.33405,-2.01031 -0.394,-2.81967c-0.06163,-0.83205 -0.09969,-1.70576 -0.13667,-2.16167c-0.11947,-1.47326 -0.18755,-1.99705 -0.36266,-3.05867c-0.08747,-0.5303 -0.23547,-1.5774 -0.72,-2.904c-0.27227,-0.74546 -0.69093,-1.32054 -1.1235,-2.163c-0.41921,-0.81644 -0.61167,-1.81667 -0.689,-2.54533c-0.0813,-0.76613 -0.17123,-1.96092 -0.30617,-2.757c-0.13451,-0.79358 -0.31591,-1.56779 -0.516,-2.316c-0.28544,-1.06734 -0.45377,-1.7431 -0.83467,-2.63867c-0.47098,-1.10733 -0.86309,-1.54937 -1.34316,-2.22583c-0.7123,-1.00369 -0.911,-1.61633 -1.1035,-2.5355l-0.34267,-0.84933l-0.49067,-0.83467" id="svg_7" stroke-width="2" stroke="#000" fill="none"/>
  <path t="33047,33189,33189,33189,33189,33189,33189,33206,33206,33206,33206,33206,33206,33222,33222,33222,33223,33223,33223,33223,33239,33240,33240,33240,33240,33240,33240,33255,33256,33256,33256,33256,33256,33256,33256,33273,33273,33273,33273,33273,33273,33273,33344,33344,33344,33344,33344,33344,33344,33344,33346,33347,33347,33347,33347,33347,33347,33347,33347,33362,33363,33363,33363,33363,33363,33363,33363,33363,33382,33382,33382,33382,33382,33382,33382,33382,33382,33399,33399,33399,33399,33399,33400,33400,33400,33400,33416,33416,33416,33416,33417,33417,33417,33417,33417,33435,33435,33435,33435,33435,33436,33436,33436,33436,33462,33462,33462,33462,33462,33462,33462,33462,33462,33464,33464,33464,33464,33464,33464,33464,33464,33464,33483,33483,33483,33483,33483,33483,33483,33501,33501,33502,33502,33502,33502,33502,33521,33521,33521,33521,33522,33522,33523,33523,33523,33523,33523,33524,33542,33542,33542,33542,33542,33542,33542,33561,33561,33561,33561,33561,33562,33580,33580,33580,33580,33581,33581,33599,33599,33599,33600,33600,33600,33600,33619,33619,33619,33619,33619,33619,33638,33638,33638,33638,33638,33639,33639,33640,33640,33640,33640,33641,33641,33641,33659,33660,33660,33660,33660,33660,33679,33679,33679,33679,33680,33680,33699,33700,33700,33700,33700,33700,33720,33721,33721,33721,33721,33721,33742,33742,33742,33742,33742,33742,33762,33763,33763,33763,33763,33763,33784,33784,33784,33784,33784,33784,33806,33806,33806,33806,33806,33807,33827,33827,33827,33828,33828,33828,33829,33830,33830,33830,33830,33830,33832,33832,33832,33832,33832,33833,33854,33855,33855,33855,33855,33876,33876,33876,33876,33877,33897,33897,33918,33918,33918,33940,33941,33941,33943,33943" d="m136,267c-0.87849,-9.67133 -0.91881,-10.2905 -0.94284,-10.866c-0.04387,-1.05038 -0.05403,-2.02133 -0.05583,-2.49667c-0.0056,-1.48032 -0.00133,-2.008 -0.00133,-3.10933c0,-0.56967 0,-1.737 0,-2.33067c0,-1.19733 0,-2.39867 0,-3.00183c0,-0.60616 0,-1.8315 0,-2.45267c0,-0.62816 0,-1.9095 0,-3.22816c0,-0.67183 0,-1.35066 0,-2.03549c0,-0.68983 0.00024,-1.38367 0,-3.47917c-0.00009,-0.69983 0.00018,-1.39868 -0.0045,-2.0955c-0.00467,-0.69385 -0.01141,-1.38379 -0.03149,-2.0685c-0.03963,-1.35098 -0.12631,-2.66971 -0.18533,-3.31467c-0.05836,-0.63774 -0.20401,-1.896 -0.27867,-2.52133c-0.07466,-0.62534 -0.17416,-1.25026 -0.33333,-3.16667c-0.05434,-0.65413 -0.08495,-1.31853 -0.10951,-1.99049c-0.02481,-0.67871 -0.04799,-2.05348 -0.05266,-2.74733c-0.00468,-0.69682 -0.00352,-2.0955 -0.00484,-2.79784c-0.00134,-0.71634 -0.00534,-1.46072 -0.021,-2.24701c-0.01677,-0.84241 -0.0462,-1.75485 -0.093,-2.75099c-0.05142,-1.09457 -0.21544,-3.63327 -0.32834,-5.09816c-0.12149,-1.57648 -0.2617,-3.23442 -0.40799,-4.94551c-0.14836,-1.73526 -0.3,-3.46523 -0.444,-5.1615c-0.13863,-1.63306 -0.37672,-4.59418 -0.46234,-5.87199c-0.07654,-1.14223 -0.133,-2.16483 -0.17099,-3.0825c-0.03424,-0.82735 -0.05345,-1.57996 -0.063,-2.27251c-0.00893,-0.64746 -0.0085,-1.86749 -0.00917,-2.4675c-0.00066,-0.59999 -0.00233,-1.20003 -0.0105,-1.79999c-0.00816,-0.60004 -0.02184,-1.20015 -0.04649,-1.8c-0.02467,-0.60016 -0.10504,-1.80043 -0.16434,-2.40001c-0.05937,-0.60045 -0.13274,-1.20039 -0.21451,-1.79999c-0.08189,-0.60042 -0.1732,-1.20024 -0.26849,-1.8c-0.09537,-0.60023 -0.29599,-1.79993 -0.39534,-2.40001c-0.09932,-0.59991 -0.19762,-1.19969 -0.28949,-1.79999c-0.0918,-0.59972 -0.17813,-1.19957 -0.25351,-1.8c-0.07527,-0.59958 -0.19496,-1.79968 -0.23566,-2.40001c-0.04065,-0.5997 -0.06734,-1.19991 -0.08551,-1.79999c-0.01816,-0.59993 -0.02682,-1.2 -0.03149,-1.8c-0.00467,-0.59999 -0.00349,-1.8 -0.00484,-2.40001c-0.00133,-0.59999 -0.00467,-1.20009 -0.021,-1.79999c-0.01634,-0.60013 -0.04372,-1.20055 -0.093,-1.8c-0.04938,-0.60062 -0.2113,-1.80145 -0.32834,-2.40001c-0.11761,-0.60155 -0.40799,-1.79999 -0.55733,-2.39999c-0.14934,-0.60001 -0.45825,-1.79517 -0.66667,-3c-0.10339,-0.59772 -0.22487,-1.7951 -0.26132,-2.38933c-0.03616,-0.58951 -0.06549,-1.75349 -0.06934,-2.32533c-0.00753,-1.11865 -0.00267,-2.20001 -0.00267,-2.72818c0,-1.03633 0,-2.05266 0,-2.55583c0,-1.50166 0,-2.004 0,-3.02266c0,-0.52034 0,-1.593 0,-2.14934c0,-1.772 0,-2.39733 0,-3.03466c0,-0.64534 0,-1.944 0,-2.58934c0,-0.63733 0,-2.46233 0,-3.03466c0,-0.55634 0,-1.62901 0,-2.14934c0,-1.01866 0,-2.52167 0,-3.024c0,-1.01866 0,-1.53899 0,-2.61166c0,-0.55634 0,-2.32833 0,-2.95367c0,-0.63733 0,-1.28267 0,-1.932c0,-1.29467 0,-1.932 0,-3.16666c0,-1.16534 0,-1.728 0,-2.83334c0,-0.55067 0.00024,-1.10533 0,-2.83334c-0.00008,-0.60933 0.00404,-1.23472 -0.01067,-2.51733c-0.00745,-0.64937 -0.01707,-1.29899 -0.0465,-1.944c-0.08549,-1.87325 -0.159,-2.46308 -0.22683,-3.036c-0.13133,-1.10923 -0.22091,-1.64783 -0.36333,-2.7175c-0.07112,-0.53418 -0.23553,-2.17291 -0.26867,-2.73583c-0.06717,-1.14087 -0.0819,-1.7161 -0.10933,-2.29067c-0.0545,-1.14154 -0.12485,-2.26063 -0.26134,-3.34c-0.06693,-0.52925 -0.24724,-1.56615 -0.36,-2.07467c-0.2246,-1.01287 -0.51322,-2.01283 -0.836,-3.01067c-0.1621,-0.50111 -0.50269,-1.49807 -0.656,-2c-0.30432,-0.99632 -0.6283,-2.49883 -0.692,-3.00134c-0.12768,-1.00703 -0.14915,-1.51945 -0.2175,-2.55583c-0.03483,-0.52814 -0.17056,-2.16447 -0.23583,-2.72683c-0.06603,-0.56898 -0.21773,-1.71578 -0.29067,-2.29067c-0.14476,-1.1409 -0.26788,-2.258 -0.34133,-3.34c-0.03584,-0.52788 -0.08184,-1.56461 -0.10933,-2.07467c-0.05441,-1.00957 -0.12237,-2.01312 -0.26134,-3.012c-0.14082,-1.01218 -0.24299,-1.52212 -0.475,-2.55583c-0.11887,-0.52958 -0.40076,-1.61071 -0.721,-2.72683c-0.16334,-0.56929 -0.34129,-1.13876 -0.656,-2.29066c-0.15612,-0.57143 -0.53897,-2.25696 -0.6185,-2.80384c-0.15436,-1.06144 -0.18555,-1.58521 -0.2575,-2.61083c-0.0355,-0.50603 -0.14671,-2.01127 -0.20667,-2.51083c-0.1207,-1.00566 -0.28126,-2.02029 -0.35333,-2.53583c-0.14661,-1.04861 -0.2654,-2.13016 -0.30383,-2.68517c-0.078,-1.12614 -0.09188,-1.69337 -0.11083,-2.8175c-0.0093,-0.55146 -0.00961,-2.128 -0.01083,-2.61833c-0.00233,-0.92867 -0.00123,-1.80241 -0.057,-2.634c-0.08123,-1.21123 -0.21989,-2.00762 -0.36816,-2.78767c-0.14268,-0.75063 -0.33762,-1.44384 -0.48933,-2.652c-0.09361,-0.74542 -0.05877,-1.93676 -0.09434,-2.7175c-0.03609,-0.79218 -0.32433,-1.7185 -0.84167,-2.3905l-0.58133,-0.544l-0.496,-0.94267l-0.06933,-0.69067" id="svg_8" stroke-width="2" stroke="#000" fill="none"/>
  <path t="34414,34505,34506,34506,34523,34523,34523,34523,34523,34539,34539,34539,34539,34539,34539,34539,34556,34556,34556,34556,34556,34556,34575,34575,34575,34575,34575,34575,34595,34595,34595,34595,34595,34595,34595,34614,34614,34614,34615,34615,34615,34615,34635,34635,34635,34635,34635,34635,34635,34635,34655,34655,34655,34655,34655,34655,34655,34655,34657,34657,34657,34657,34657,34657,34657,34657,34674,34674,34674,34674,34674,34674,34674,34692,34692,34692,34692,34692,34692,34692,34709,34710,34710,34710,34710,34710,34710,34710,34727,34727,34727,34727,34728,34728,34728,34745,34745,34745,34745,34745,34745,34745,34745,34763,34763,34764,34764,34764,34764,34781,34782,34782,34782,34782,34782,34782,34801,34802,34802,34802,34802,34802,34822,34822,34822,34822,34822,34823,34824,34824,34824,34824,34825,34844,34844,34844,34844,34844,34844,34863,34863,34863,34864,34864,34883,34883,34884,34884,34884,34904,34904,34904,34904,34904,34904,34924,34924,34924,34924,34924,34944,34944,34944,34944,34944,34964,34964,34964,34964,34964,34984,34984,34984,34984,34984,34984,35005,35005,35006,35006,35006,35006,35028,35029,35029,35029,35029,35031,35031,35031,35031,35032,35032,35033,35033,35033,35055,35056,35056,35056,35056,35057,35057,35058,35058,35058,35080,35080,35080,35080,35080,35080,35102,35102,35102,35102,35103,35123,35123,35124,35124,35124,35125,35126,35126,35126,35126,35146,35146,35147,35167,35168,35168,35168,35189,35189,35189,35190,35190,35191,35191,35192,35192,35212,35212,35212,35213,35213,35234,35234,35234,35234,35256,35256,35256,35256,35258,35258,35258,35258,35280,35280,35280,35281,35281,35304,35304,35304,35304,35305,35327,35328,35328,35328,35350,35351,35351,35351,35374,35374,35375,35375,35397,35397,35398,35399,35400,35400,35401,35401,35402,35402,35425,35425,35425,35427,35427,35427,35450,35450,35450,35474,35474,35474,35474,35476,35476,35476,35499,35499,35500,35523,35523,35523,35523,35525,35525,35549,35550,35550,35575" d="m132,278c0,-5.43066 0,-6.13867 0,-6.81467c0,-1.35199 0,-2.07468 0,-2.85333c0,-0.85068 0,-1.30801 0,-2.832c0,-0.56418 0,-1.76251 0,-2.38666c0,-0.63419 0,-1.27335 0,-2.54666c0,-1.23334 0,-1.82367 0,-2.95236c0,-0.54233 0,-1.59299 0,-2.10532c0,-1.509 0,-2.51167 0,-3.01801c0,-1.03267 0,-1.563 0,-2.66167c0,-1.16266 0,-1.772 0,-3.03467c0,-0.64532 0,-1.29466 0,-1.944c0,-1.28267 0,-2.51733 0,-3.10817c0,-1.14166 0,-1.7025 0,-2.26332c0,-1.14168 0,-1.7325 0,-2.97917c0,-1.35466 0,-2.067 0,-2.79733c0,-0.74434 0,-1.49867 0,-2.259c0,-0.76233 0,-2.27699 0,-3.02217c0,-0.73616 0,-1.46432 0,-2.1855c0,-1.42532 0,-2.13148 0,-2.83466c0,-1.40134 0,-2.10117 0,-2.8c0,-0.69684 0,-2.08051 0,-2.76534c0,-0.67883 0,-1.35066 0,-2.66933c0,-1.28267 0,-1.914 0,-2.54134c0,-0.62534 0,-1.87801 0,-2.50934c0,-1.28267 0,-1.93733 0,-3.26866c0,-0.67267 0,-1.34734 0,-2.022c0,-0.67267 0,-2.65866 0,-3.304c0,-0.63733 0,-1.26866 0,-2.52133c0,-0.62534 0,-1.25267 0,-1.884c0,-1.9375 0,-2.60133 0,-3.27316c0,-0.67883 0,-1.36366 0,-2.74733c0,-0.69684 0,-2.0955 0,-2.79517c0,-0.69768 0,-1.39134 0,-2.07901c0,-1.34933 0,-2.00699 0,-2.65067c0,-1.23734 0,-2.40266 0,-2.96533c0,-1.10533 0,-1.65599 0,-2.77333c0,-1.16533 0,-1.77467 0,-3.03734c0,-0.64532 0,-1.29466 0,-1.944c0,-1.28267 0,-2.51733 0,-3.10767c0,-1.12866 0,-1.67099 0,-2.72166c0,-0.51233 0,-2.02133 0,-2.52116c0,-0.99567 0,-1.97934 0,-2.46417c0,-0.95067 0,-2.31483 0,-3.18784c0,-0.43349 0,-1.30949 0,-2.2175c0,-1.47333 0,-1.99866 0,-3.08133c0,-0.54933 0,-1.644 0,-2.18134c0,-1.52516 0,-1.99866 0,-2.90666c0,-0.87601 0,-1.744 0,-3.08284c0,-0.46382 0,-1.41449 0,-2.38916c0,-0.49384 0.00099,-1.98933 -0.00017,-2.48933c-0.00233,-1 -0.01591,-2.00017 -0.03583,-2.5c-0.03984,-1.00043 -0.11832,-2.00153 -0.248,-2.99867c-0.12906,-0.99234 -0.22504,-1.47916 -0.36334,-2.44417c-0.19902,-1.38869 -0.2384,-1.83513 -0.29999,-2.7c-0.05952,-0.83588 -0.0748,-1.65594 -0.21935,-2.85716c-0.09691,-0.80538 -0.26624,-1.62004 -0.40799,-2.472c-0.14932,-0.89738 -0.27229,-1.86036 -0.34001,-2.89733c-0.03526,-0.54008 -0.06651,-1.65147 -0.07466,-2.216c-0.00818,-0.56647 -0.01067,-2.248 -0.01067,-2.793c0,-1.06 0,-1.575 0,-2.575c0,-0.96 0,-2.32517 0,-2.76134c0,-0.84933 0,-1.67467 0,-2.484c0,-1.20133 0,-2.00133 0,-2.80133c0,-0.8 0,-2 0,-2.80133c0,-0.80933 0,-1.63467 0,-2.484c0,-1.336 0,-1.79867 0,-2.74c0,-0.94934 0,-1.89067 0,-2.80801c0,-0.884 0,-1.752 0,-2.628c0,-0.908 0,-1.872 0,-2.90666c0,-0.53734 0,-1.632 0,-2.18134c0,-1.08267 0,-2.11733 0,-3.08c0,-0.89867 0,-1.74934 0,-2.568c0,-1.20284 0,-1.604 0,-2.41333c0,-0.82533 0,-1.67467 0,-3.01034c0,-0.92266 0,-1.383 0,-2.28166c0,-0.84267 0,-2.244 0,-3.0765c0,-0.78751 0.0239,-1.66461 -0.02133,-2.69283c-0.033,-0.75032 -0.09346,-1.54475 -0.42134,-2.728c-0.22484,-0.81144 -0.41507,-1.19739 -0.70667,-2c-0.28973,-0.79747 -0.62946,-1.9967 -0.74083,-2.8c-0.11054,-0.79731 -0.12971,-1.60313 -0.2765,-2.8c-0.09842,-0.80254 -0.26254,-1.59929 -0.408,-2.4c-0.1452,-0.7993 -0.31155,-1.99922 -0.37267,-2.7955c-0.0601,-0.78313 -0.0633,-1.55255 -0.21933,-2.63783c-0.14671,-1.02043 -0.35117,-1.6629 -0.48067,-2.31934c-0.26869,-1.36202 -0.29574,-2.10534 -0.3735,-2.86816c-0.07999,-0.78464 -0.29086,-1.98584 -0.54716,-2.77917c-0.26084,-0.80738 -0.60316,-1.59262 -0.864,-2.4c-0.2563,-0.79333 -0.42116,-1.59742 -0.496,-2.4c-0.07443,-0.79814 -0.07066,-1.6 -0.072,-2.79984c-0.00089,-0.79567 0.00006,-1.96416 0,-2.71483c-0.00008,-1.064 0.0163,-1.73356 -0.036,-2.71067c-0.03531,-0.65957 -0.17496,-1.69782 -0.38933,-2.78933c-0.14246,-0.72539 -0.33768,-1.40916 -0.48933,-2.616c-0.09367,-0.74541 -0.08466,-1.452 -0.08533,-2.456c-0.00057,-0.855 0,-1.8 0,-2.83467c0,-0.73133 0,-1.47867 0,-2.226c0,-1.431 0,-2.091 0,-3.006c0,-1.08 0,-1.794 0,-2.69933c0,-0.969 0,-1.794 0,-2.394c0,-1.32 0.00981,-2.03623 -0.01067,-2.768c-0.03011,-1.07608 -0.12518,-2.05957 -0.342,-2.8755c-0.19461,-0.73233 -0.51364,-1.67263 -0.59016,-2.467c-0.08196,-0.85083 -0.05717,-2.04283 -0.05717,-2.6415c0,-0.8805 0.0382,-1.71683 -0.00267,-2.716c-0.03586,-0.87668 -0.43999,-1.88517 -0.848,-2.47467l-0.58133,-0.72533l-0.496,-0.84933" id="svg_9" stroke-width="2" stroke="#000" fill="none"/>
 </g>
 <g display="none">
  <title>muse_image</title>
  <image xlink:href="http://farm4.static.flickr.com/3601/3429718366_b51706004b.jpg" id="muse" height="426" width="640" y="27" x="0"/>
 </g>
 <g display="none">
  <title>bbox</title>
  <rect stroke="#f00" fill="none" stroke-width="3" height="221.31532" width="79.36" y="112.71171" x="145.92" id="bbox"/>
 </g>
</svg>
