<svg width="640" height="480" xmlns="http://www.w3.org/2000/svg" xmlns:svg="http://www.w3.org/2000/svg" xmlns:xlink="http://www.w3.org/1999/xlink">
 <!-- Sketchy ANNOTATION
  ImageNet ID: n02676566_5735
  URL: http://farm2.static.flickr.com/1415/787756258_f8a03b81da.jpg
  Image Width: 500
  Image Height: 375
  BBox X: 9
  BBox Y: 15
  BBox Width: 479
  BBox Height: 350
  Exposure: 2000ms
  Synset Label: guitar
  Synset ID: n03467517
  Worker Tag: guitar on red cloth
  Sanity Check: 
   Saved
  Comment: 
   {}
  Worker ID: A2HM35CWB7IIFM
  Assignment ID: 3RXPCZQMQPB2UEQR2HW2OVICL7W1GB
  HIT ID: 3LAZVA75NIRVOSRRJ24M936Y08K2O3
  Work Time: 119s
  Worker Score: 0.7857
 END ANNOTATION -->
 <g display="inline">
  <title>Layer 1</title>
  <path t="0,220,230,267,267,293,303,303,315,315,327,328,345,346,352,352,364,364,378,378,389,389,389,400,412,429,429,438,438,449,450,462,478,478,488,488,498,498,511,511,511,527,527,527,536,536,548,548,560,560,577,585,597,597,622,634,646,646,661,662,671,671,671,683,683,683,694,695,695,711,712,720,720,720,732,744,745,761,761,769,781,793,812,812,819,819,830,830,830,844,844,844,844,860,860,860,860,860,868,868,868,879,879,894,895,895,895,904,916,916,916,929,929,944,945,954,966,966,977,994,994,1003,1003,1014,1015,1027,1027,1044,1045,1045,1052,1052,1052,1063,1063,1077,1077,1088,1088,1088,1100,1100,1101,1112,1113,1113,1127,1127,1127,1137,1137,1138,1138" d="m377.5,139.89999c-0.05716,-1.7 -0.51556,-2.50514 -1.20001,-3.2c-0.49622,-0.50375 -1.19998,-1.2 -1.89999,-1.89999c-0.5,-0.5 -1.20386,-1.20514 -1.78534,-1.78534c-0.5993,-0.59799 -1.26749,-1.35217 -2.11465,-1.78133c-0.73898,-0.37434 -1.68817,-0.65665 -2,-1.35417c-0.35843,-0.80176 -1.04053,-1.42885 -1.83334,-1.97916c-0.68457,-0.47518 -1.32919,-1.00687 -1.992,-1.4c-0.68646,-0.40716 -1.51727,-1.02481 -2.37466,-1.51733c-0.78186,-0.44914 -1.11462,-1.27734 -1.90015,-1.83967c-0.56711,-0.40598 -1.57416,-0.11993 -2.41583,-0.32833c-0.89078,-0.22056 -1.49573,-1.14421 -2.24118,-1.5575c-0.82971,-0.45998 -1.64761,-0.3349 -2.64417,-0.35851c-0.83514,-0.01978 -1.76834,-0.15301 -2.55133,-0.35133c-0.82538,-0.20906 -1.87872,-0.4936 -2.59018,-0.59467c-0.85062,-0.12083 -1.85495,-0.33898 -2.62115,-0.62733c-0.8139,-0.3063 -1.64597,-0.41066 -2.60266,-0.42667c-0.71265,-0.01192 -1.56876,-0.38713 -2.39999,-0.832c-0.7493,-0.40101 -1.63333,-0.16666 -2.53336,-0.16666c-0.93597,0 -1.78531,0 -2.7045,0c-0.99548,0 -1.7955,0 -2.79565,0c-0.6105,0 -1.48517,0 -2.48517,0c-0.83551,0 -1.716,0 -2.6145,0c-0.8895,0 -1.74301,0 -2.77866,0c-0.90067,0 -1.92151,0 -2.71085,0c-0.72534,0 -1.73801,-0.06541 -2.69467,0.28533c-0.71677,0.26279 -1.44681,0.88504 -2.10532,1.27867c-0.85907,0.51351 -1.81479,0.35429 -2.71518,0.4405c-0.87329,0.0836 -1.49365,0.49583 -2.52884,0.82883c-0.67343,0.21662 -1.7168,0.36635 -2.43866,0.61333c-0.84616,0.28951 -1.7345,0.70803 -2.32932,1.03867c-0.93005,0.51699 -1.54849,0.93179 -2.56534,1.51466c-0.71097,0.40755 -1.44641,0.79243 -2.172,1.164c-0.69052,0.35361 -1.62433,0.80261 -2.37869,1.2c-0.80136,0.42215 -1.54639,0.93215 -2.0925,1.45033c-0.74942,0.7111 -1.4371,1.4298 -1.9035,1.93501c-0.43997,0.47659 -1.03885,1.48904 -1.62,2.41733c-0.32666,0.52179 -1.06378,1.18652 -1.42383,2.03317c-0.31714,0.7457 -0.40265,1.82431 -0.94733,2.49567c-0.53467,0.65901 -1.0802,1.48268 -1.2955,2.28366c-0.23343,0.86847 -1.02689,1.3354 -1.5,2.04167c-0.53094,0.79262 -0.98096,1.47731 -1.60016,2.07916c-0.63803,0.62016 -1.3967,1.08261 -2.1105,1.536c-0.80289,0.50996 -1.35846,1.05258 -1.98935,1.50267c-0.95728,0.68292 -1.82269,0.79491 -2.39999,1.02934c-1.05011,0.42642 -1.56927,1.01195 -2.37866,1.81065c-0.52478,0.51785 -1.18799,1.188 -1.85733,1.85735c-0.56851,0.5685 -1.17099,1.15714 -1.75949,1.76399c-0.57541,0.59338 -1.30222,1.36214 -1.75784,2.21066c-0.33423,0.62247 -0.53665,1.60959 -0.62134,2.42534c-0.09006,0.86734 -0.19199,1.76399 -0.38251,2.6595l-0.25348,0.8685l-0.19067,0.55066" id="svg_1" stroke-width="2" stroke="#000" fill="none"/>
  <path t="1901,2072,2073,2085,2099,2111,2111,2121,2133,2133,2144,2144,2160,2161,2169,2169,2169,2181,2194,2210,2218,2218,2244,2268,2268,2292,2292,2305,2327,2331,2331,2341,2342,2353,2354,2366,2377,2394,2394,2414,2427,2451,2464,2464,2478,2494,2513,2513,2513,2538,2550,2561,2577,2611,2628,2636,2648,2660,2661,2677,2677,2686,2686,2686,2697,2697,2711,2727,2727,2747,2747,2760,2778,2778,2784,2784,2795,2795,2811,2813,2820,2821,2821,2833,2833,2833,2846,2846,2846,2862,2862,2869,2870,2881,2895,2895,2911,2911,2919,2930,2944,2945,2963,2963,2963,2969,2969,2969,2980,2980,2994,3011,3011,3011,3017,3017,3041,3066,3066,3090,3090,3102,3115,3115" d="m270.5,163.89999c-0.42532,1.82535 -0.65921,2.53461 -1,3.47917c-0.30319,0.84036 -0.93784,1.6142 -0.99866,2.40617c-0.07196,0.93724 0.09137,1.9577 -0.03735,2.73999c-0.14532,0.88316 -0.62518,1.56282 -0.8425,2.57468c-0.16931,0.78831 -0.08636,1.80124 -0.13217,2.58932c-0.0423,0.72795 -0.67456,1.61427 -0.93216,2.51067c-0.24908,0.86682 -0.29459,1.65634 -0.7045,2.40001c-0.43124,0.78239 -0.65463,1.7767 -0.92734,2.47466c-0.36426,0.93224 -0.32791,1.71556 -0.436,2.64c-0.11218,0.95923 -0.8728,1.40588 -1.07333,2.15733c-0.27527,1.03159 -0.53345,1.76634 -0.74933,2.69467c-0.18234,0.78407 -0.05014,1.7415 -0.17114,2.63333c-0.11142,0.82135 -0.64523,1.52766 -1.04819,2.40001c-0.33075,0.71605 -1.20096,1.08902 -2.04733,1.52133c-0.6553,0.33473 -1.5383,0.73586 -2.31067,1.21466c-0.80164,0.49695 -1.38924,1.01395 -2.10533,1.27867c-0.93686,0.34634 -1.90137,0.37482 -2.50932,0.86c-0.6245,0.49838 -1.57468,0.42532 -2.47467,0.42532c-0.89999,0 -1.8,0 -2.70267,0c-0.76801,0 -1.80716,0 -2.58267,0c-1.04799,0 -1.75749,0 -2.61015,0c-1.00317,0 -1.76851,0 -2.71918,0c-0.9855,0 -1.77066,0 -2.71066,0c-0.69067,0 -1.8,0 -2.66,0c-0.72533,0 -1.71449,0 -2.67867,0c-0.952,0 -1.72,0 -2.68266,0c-0.61501,0 -1.83867,0 -2.67416,0c-0.58368,0 -1.77901,0 -2.6685,0c-0.57468,0 -1.644,0 -2.57468,0c-0.83466,0 -1.836,0 -2.63599,0c-0.99867,0 -1.76401,0 -2.71468,0c-0.9855,0 -1.77066,0 -2.71066,0c-0.69067,0 -1.76401,0 -2.6955,0c-0.80067,0 -1.68983,0 -2.67934,0c-0.82066,0 -1.48517,0 -2.48384,0c-0.81599,0 -1.63199,0 -2.85432,0c-0.8,0 -1.72905,-0.08385 -2.62834,0.16667c-0.69125,0.19257 -1.41945,0.63135 -2.42883,0.77617c-0.91151,0.13078 -1.77937,0.03737 -2.72583,0.05733c-0.8539,0.01801 -1.79333,0.28517 -2.37416,0.70435l-0.7045,0.6955l-0.70001,0.70016l-0.5,0.53583" id="svg_2" stroke-width="2" stroke="#000" fill="none"/>
  <path t="3953,4135,4135,4148,4148,4148,4148,4166,4166,4166,4166,4166,4173,4173,4173,4173,4173,4186,4186,4186,4187,4199,4199,4199,4199,4210,4210,4220,4220,4232,4232,4244,4244,4260,4260,4270,4270,4281,4281,4293,4294,4294,4312,4312,4312,4312,4312,4319,4319,4319,4319,4329,4330,4330,4343,4344,4344,4344,4360,4360,4360,4360,4367,4367,4367,4367,4379,4379,4379,4379,4393,4394,4404,4404,4404,4416,4416,4428,4428,4443,4443,4453,4453,4466,4478,4494,4503,4503,4514,4514,4527,4527,4543,4544,4544,4544,4552,4552,4552,4552,4563,4563,4563,4563,4578,4578,4578,4578,4600,4600,4600,4604,4604,4619,4619,4627,4628,4638,4649,4661,4662,4662,4678,4678,4687,4687,4688,4688,4688,4699,4699,4699,4699,4699,4710,4710,4711,4711,4727,4727,4728,4728,4728,4737,4737,4747,4748,4748,4748,4760,4761,4761,4777,4777,4778,4786,4786,4786,4796,4797,4797,4797,4797,4811,4811,4811,4811,4812,4821,4822,4822,4822,4822,4822,4834,4835,4835,4835,4846,4846,4860,4860" d="m188.5,208.89999c-2.60451,0.36168 -3.46419,0.74962 -4.16667,1.16667c-0.80325,0.47687 -1.37134,0.86015 -1.995,1.23784c-0.99924,0.60513 -1.72476,0.99246 -2.46367,1.40616c-0.75182,0.42091 -1.51541,0.84016 -2.55333,1.61067c-0.68576,0.50908 -1.31952,1.08081 -1.64667,1.35333c-0.65506,0.54568 -1.68889,1.31488 -2.42284,1.76817c-0.72432,0.44734 -1.46161,0.82208 -2.4185,1.45715c-0.57365,0.38072 -1.27982,0.96968 -1.84532,1.51468c-0.74742,0.72032 -1.37201,1.36932 -1.972,1.96933c-0.69066,0.69067 -1.34933,1.34933 -1.88,1.88c-0.73601,0.73599 -1.33601,1.33598 -1.94051,1.94049c-0.58083,0.58084 -1.1795,1.17949 -1.87016,1.87016c-0.65866,0.65868 -1.29369,1.34776 -1.992,1.82533c-0.66327,0.45358 -1.35172,0.75806 -2.47633,1.3215c-0.67107,0.33621 -1.39867,0.69934 -2.166,1.08301c-0.39366,0.19682 -1.59067,0.79533 -2.38199,1.19099c-0.76733,0.38367 -1.49521,0.74626 -2.47568,1.23784c-0.82396,0.4131 -1.55762,0.77539 -2.5,1.33333c-0.52284,0.30956 -1.34229,0.84171 -1.88066,1.23784c-1.04916,0.77196 -1.52441,1.17747 -2.142,1.86749c-0.43027,0.48073 -1.02411,1.36295 -1.40617,2.03784c-0.39801,0.70306 -0.76843,1.43268 -1.23782,2.5235c-0.42896,0.99686 -0.63577,1.62883 -0.96533,2.48c-0.3895,1.006 -0.70023,1.66638 -1.20134,2.68666c-0.29485,0.60033 -0.7058,1.38489 -0.916,2.39868c-0.15695,0.75699 -0.36513,1.72012 -0.7885,2.35399c-0.49065,0.7346 -0.85576,1.44853 -1.49417,2.36201c-0.41885,0.59933 -0.79292,1.50311 -1.22667,2.28531c-0.45479,0.82016 -0.48708,1.71475 -0.65999,2.48535c-0.17883,0.797 -0.63138,1.50302 -0.83067,2.51733c-0.16893,0.85974 -0.24461,1.93182 -0.368,2.56665c-0.13475,0.69333 -0.3315,1.4093 -0.54933,2.86401c-0.10184,0.68008 -0.12553,1.34274 -0.21935,2.31934c-0.09758,1.01572 -0.22876,1.73181 -0.37267,2.47266c-0.21811,1.12277 -0.42575,2.20612 -0.48933,2.88934c-0.08958,0.96249 -0.08307,1.58084 -0.08533,2.785c-0.00165,0.879 0,1.686 0,2.5575c0,0.89099 0,1.79999 0,2.54733c0,0.99417 0,1.93832 0,2.83832c0,0.95853 0,1.92386 0,2.59317c0,0.76535 0,1.7775 0,2.47202c0,1.19199 0,1.94666 0,2.78934c0,0.89865 0,1.35898 0,2.73599c0,0.88132 0,1.73065 0,2.556c0,0.80933 0,2.01065 0,2.81067c0,0.79999 -0.00099,1.60001 0,2.79999c0.00067,0.79733 -0.00298,1.57925 0.036,2.328c0.03654,0.70212 0.22008,1.91254 0.48483,2.65118c0.43207,1.20544 0.70412,1.69778 0.95834,2.54166c0.26291,0.87271 0.40678,1.77823 0.4955,2.66849c0.08499,0.85284 0.21811,1.89883 0.46133,2.58536c0.32726,0.92371 0.67722,1.6423 0.96399,2.47198c0.31458,0.9101 0.60492,1.91867 0.8,2.64001c0.20517,0.75861 0.40533,1.55875 0.60001,2.39999c0.30846,1.33292 0.40187,1.79825 0.59999,2.74933c0.10095,0.48465 0.30057,1.46838 0.60001,2.96399c0.10004,0.49963 0.29749,1.49063 0.38933,1.97867c0.17853,0.94864 0.34531,1.84818 0.4895,3.07819c0.08476,0.72305 0.12859,1.69876 0.2905,2.25516c0.30113,1.03485 0.98001,1.84134 1.49734,2.52133l0.3815,0.86215" id="svg_3" stroke-width="2" stroke="#000" fill="none"/>
  <path t="5892,6149,6149,6162,6182,6182,6184,6185,6197,6197,6197,6212,6212,6212,6212,6226,6227,6227,6235,6235,6235,6235,6246,6246,6246,6246,6261,6261,6261,6271,6271,6283,6283,6283,6308,6308,6308,6320,6320,6332,6356,6356,6370,6370,6381,6381,6381,6393,6393,6393,6410,6411,6411,6411,6411,6418,6418,6418,6419,6419,6430,6431,6431,6431,6431,6444,6444,6444,6444,6444,6460,6460,6460,6468,6468,6468,6479,6479,6479,6495,6495,6504,6504,6505,6517,6517,6528,6528,6545,6546,6546,6546,6554,6554,6554,6555,6555,6555,6566,6566,6566,6566,6566,6577,6577,6577,6577,6594,6594,6594,6602,6602,6614,6627,6627,6644" d="m140.5,343.89999c1.16667,1 1.6003,1.58771 1.97467,2.39999c0.41106,0.89191 0.8588,1.46552 1.32533,2.25717c0.43036,0.73029 0.76791,1.56128 1.24167,2.36368c0.40213,0.68109 0.99187,1.40881 1.46815,1.93182c0.76091,0.83554 1.30544,1.36542 2.06883,2.12585c0.46741,0.46561 1.12561,1.13593 2.08801,1.92148c0.50661,0.41351 1.06516,0.79123 1.88066,1.39999c0.7924,0.59152 1.49927,1.20084 1.95267,1.60001c0.68292,0.60126 1.68004,1.40228 2.21466,1.78934c0.77176,0.55872 1.47565,1.01593 2.12401,1.58533c0.86093,0.7561 1.3029,1.29507 1.87199,1.80002c0.76898,0.68231 1.5834,1.20032 2.18933,1.52081c0.98799,0.52258 1.8857,0.75836 2.43068,1.50452c0.51178,0.70068 0.79802,1.42584 1.65332,2.00134c0.67708,0.45557 1.381,0.94092 1.89067,1.63464c0.54433,0.74088 1.08768,1.58966 1.68784,2.164c0.43842,0.41956 1.57664,1.20667 2.25183,1.60452c0.35567,0.20959 1.11366,0.62009 1.88834,1.08081c1.20796,0.71841 1.5992,0.99594 2.39734,1.54001c0.80186,0.5466 1.18594,0.8439 2.39999,1.608c0.78978,0.49707 1.59059,0.93921 1.97917,1.16666c0.76614,0.44846 1.86414,1.15378 2.53549,1.68268c0.65938,0.51947 1.25739,1.07822 1.884,1.548c0.87807,0.65829 1.48735,0.97665 2.36534,1.34799c1.05855,0.44772 1.79726,0.69211 2.42532,1.05734c0.83759,0.48706 1.57709,1.2067 2.1535,1.65414c0.74666,0.57959 1.64073,0.85059 2.42517,1.27783c0.74643,0.40656 1.43213,0.93552 2.26266,1.2627c0.82664,0.32565 1.8132,0.61182 2.431,0.87381c0.9561,0.40546 1.80132,0.70477 2.457,0.8595c0.73372,0.17313 2.04517,0.31943 2.53467,0.35202c1.0327,0.06873 1.56776,0.0787 2.64583,0.13666c0.53432,0.02872 2.06076,0.15015 2.9865,0.3045c0.87579,0.14606 1.2944,0.24756 2.11166,0.44415c1.20464,0.28976 1.99644,0.50168 2.78185,0.67786c0.76205,0.17096 2.19771,0.41415 2.85466,0.46365c0.88222,0.06647 1.85968,-0.12939 2.74483,0.09317c0.88599,0.22278 1.52135,1.06384 2.02135,1.52798l0.89999,0.41519" id="svg_4" stroke-width="2" stroke="#000" fill="none"/>
  <path t="7575,7783,7799,7811,7811,7819,7819,7819,7830,7830,7830,7845,7845,7861,7868,7892,7893,7916,7917,7917,7929,7945,7945,7955,7956,7966,7967,7967,7978,7978,7978,7995,7995,7995,8004,8004,8014,8014,8027,8027,8043,8044,8052,8052,8063,8063,8078,8079,8079,8094,8094,8101,8101,8101,8101,8113,8114,8114,8114,8127,8127,8127,8145,8145,8145,8151,8151,8162,8162,8178,8178,8195,8199,8200,8212,8212,8227,8228,8228,8237,8237,8238,8248,8248,8248,8248,8262,8262,8262,8277,8278,8278,8278,8286,8286,8297,8297,8297,8311,8328,8329,8335,8347,8347,8360,8377,8384,8384,8384,8395,8396,8411,8411,8411,8421,8421,8421,8421,8432,8433,8433,8445,8445,8471,8471,8482,8482,8495,8518,8518,8524,8537,8550,8561,8561,8568,8568,8580,8581,8594,8594,8614,8614,8616,8617,8629,8630,8643,8643,8654,8654,8666,8666,8666,8678,8678,8693,8693,8704,8704,8715,8715,8715,8728,8743,8744,8753,8753,8764,8764,8777,8778,8778,8793,8794,8802,8802,8802,8813,8813,8813,8828,8829,8844,8845,8850,8851,8851,8862,8878,8878,8888,8900,8900" d="m225.5,396.89999c1.8,0 2.636,0 3.48666,0c0.76001,0 1.93509,-0.01727 2.73866,0.01068c0.82281,0.02863 1.85803,0.19501 2.53868,0.41467c0.84109,0.27145 1.83017,0.54218 2.57883,0.57016c1.02046,0.03815 1.85858,-0.00729 2.82384,0.00449c0.85434,0.01044 1.84059,0.14487 2.42883,0.35266c0.93193,0.32922 1.77924,0.60956 2.72583,0.64752c0.85339,0.03421 1.76166,0.35858 2.48849,0.64716c0.92728,0.36813 1.73328,0.33902 2.29916,0.40533c1.19455,0.13998 2.0791,0.37753 2.65501,0.522c1.06709,0.26767 1.99947,0.40613 2.83466,0.42401c1.00113,0.02142 1.80133,0.00131 2.80133,0.00131c0.80002,0 1.79984,0 2.57916,0c0.99951,0 1.77414,0.02957 2.67801,-0.00449c0.74866,-0.0282 1.75412,-0.25433 2.54285,-0.60617c0.81253,-0.36243 1.57672,-0.84308 2.39999,-1.104c0.98288,-0.31152 1.64505,-0.26215 2.82166,-0.50684c0.54514,-0.11337 1.42422,-0.39191 2.065,-0.57983c1.03339,-0.3031 2.13895,-0.59769 2.888,-0.79868c0.74161,-0.19901 1.80341,-0.50073 2.46368,-0.6955c0.91461,-0.26978 1.99304,-0.55075 2.7045,-0.65182c0.85062,-0.12085 1.85501,-0.33887 2.62115,-0.62732c0.81378,-0.30637 1.60129,-0.4425 2.48868,-0.77802c0.70581,-0.26685 1.72186,-0.61499 2.66864,-0.64749c0.67859,-0.02328 1.63361,-0.27173 2.34003,-0.57449c0.85706,-0.36731 1.86429,-0.38815 2.65598,-0.50934c1.00833,-0.15433 1.69949,-0.44781 2.45203,-0.71735c0.86902,-0.31125 1.88916,-0.60022 2.616,-0.76266c0.72934,-0.16299 1.79239,-0.32269 2.77866,-0.41068c0.62491,-0.05576 1.84323,-0.16083 2.72699,-0.38248c0.57275,-0.14365 1.36371,-0.39789 2.30368,-0.94284c0.79669,-0.46185 1.56595,-0.91879 2.30533,-1.17917c0.72528,-0.2554 1.94037,-0.35522 2.60001,-0.9635c0.63638,-0.58685 1.159,-1.27255 1.89999,-1.724c0.71579,-0.43607 0.91275,-1.37805 1.35718,-2.13785c0.54297,-0.92828 1.04855,-1.5285 1.34283,-2.09998c0.51001,-0.99042 0.90417,-1.79343 1.29999,-2.59552c0.40427,-0.81921 0.71899,-1.5076 1,-2.33331c0.32675,-0.96021 0.47861,-1.66257 0.75717,-2.30417c0.49167,-1.13248 1.10339,-1.62558 1.75882,-2.24384c0.77094,-0.72723 0.98856,-1.35434 1.68533,-2.23334c0.49942,-0.63004 1.34213,-0.99838 2.08884,-1.58533c0.66714,-0.52438 1.33148,-1.04645 2.00452,-1.35269c0.87369,-0.39755 1.47141,-0.90836 2.20532,-1.46814c0.77625,-0.59207 1.23618,-1.2128 1.70001,-1.96451c0.43497,-0.70493 0.91595,-1.70685 1.18933,-2.30402c0.47223,-1.03152 0.56152,-1.72617 0.89465,-2.69598c0.25388,-0.73904 0.5798,-1.71698 0.716,-2.49384c0.1503,-0.85718 0.6748,-1.61292 0.91599,-2.50616c0.19122,-0.70819 0.31073,-1.7128 0.58401,-2.51468c0.34003,-0.99774 0.47897,-1.79947 0.49866,-2.60001c0.02457,-0.99973 -0.00729,-1.81726 0.28534,-2.79865c0.177,-0.59357 0.65091,-1.57416 0.71152,-2.41116c0.06921,-0.95569 0.00095,-1.69019 0.00449,-2.42218c0.00534,-1.10669 0.22833,-2.08649 0.5,-2.76801c0.38855,-0.97473 0.49774,-1.75266 0.5,-2.66165c0.00198,-0.80002 0,-1.75967 0,-2.56366c0,-0.82202 0,-1.85318 0,-2.75385c0,-1.02084 0,-1.83151 0,-2.478c0,-1.22684 -0.00043,-1.76816 0,-2.59018c0.00067,-1.26599 -0.12143,-1.94958 0.22134,-2.93149c0.2533,-0.72559 0.69461,-1.56064 0.75781,-2.52118c0.04807,-0.73068 -0.09924,-1.87628 0.24219,-2.60001c0.36569,-0.77521 0.76797,-1.53598 0.77866,-2.55264l0,-0.69467" id="svg_5" stroke-width="2" stroke="#000" fill="none"/>
  <path t="9578,9724,9724,9737,9737,9747,9747,9761,9761,9785,9785,9809,9809,9809,9822,9833,9846,9862,9862,9871,9871,9871,9882,9882,9895,9895,9895,9895,9911,9912,9912,9912,9920,9920,9920,9931,9931,9956,9956,9956,9981,9981,9994,10011,10018,10018,10030,10030,10045,10062,10067,10067,10067,10079,10079,10093,10093,10094,10104,10104,10104,10116,10116,10116,10116,10127,10143,10152,10165,10165,10177,10177,10193,10202,10202,10213,10213,10213,10227,10227,10227,10243,10243,10251,10251,10262,10262,10263,10277,10277,10294,10300,10325,10325,10339,10362,10385,10389,10403,10417,10417,10427,10427,10428,10435,10435,10447,10447,10448,10461,10461,10461,10461,10461,10461,10477,10478,10478,10478,10485,10485,10485,10485,10496,10497,10497,10511,10511,10511,10527,10528,10534,10534,10545,10545,10561,10562,10571,10571,10582,10582,10594,10595,10595,10595,10610,10610,10610,10610,10610,10620,10620,10620,10620,10620,10632,10632,10632,10632,10643,10644,10644,10661,10662,10669,10669,10681,10681,10681,10693,10694,10710,10710,10718,10718,10719,10729,10743,10743,10743,10761,10761,10767,10778,10779,10794" d="m339.5,311.89999c0.01068,-1.836 0.00281,-2.62766 0.35718,-3.59549c0.28336,-0.77386 0.96527,-1.63483 1.34283,-2.15717c0.63443,-0.87766 1.00739,-1.63632 1.21597,-2.64734c0.12241,-0.59335 0.19699,-1.62042 0.52002,-2.38934c0.31454,-0.74872 0.92703,-1.62048 1.76266,-2.12665c0.69009,-0.418 0.99234,-1.21063 1.56299,-1.84119c0.68823,-0.76044 1.23843,-1.26715 1.83966,-1.75882c0.77328,-0.63239 1.62317,-1.07483 2.39868,-1.65067c0.6301,-0.46786 1.26703,-1.08572 1.77066,-1.51999c0.86337,-0.74442 1.52908,-1.26291 2.2085,-1.79251c0.65729,-0.51236 1.522,-1.18607 2.15384,-1.70651c0.61179,-0.50394 1.34521,-1.0275 2.07767,-1.41434c0.98013,-0.51764 1.56577,-0.85468 2.38934,-1.11465c0.97391,-0.30746 1.74283,-0.28064 2.76401,-0.28534c0.93597,-0.0043 1.79486,-0.35919 2.39316,-0.64734c0.84961,-0.40918 1.77829,-0.17957 2.72198,-0.37347c0.87137,-0.17905 1.67969,-0.86218 2.35684,-0.94318c0.76068,-0.09097 1.76849,-0.03601 2.62115,-0.03601c0.96436,0 1.77884,0 2.64734,0c1.1955,0 1.7955,0 2.6955,0c1.20001,0 1.79733,0 2.65836,0c0.771,0 1.86966,0 2.84164,0c0.90134,0 1.86667,0 2.52536,0c1.008,0 1.87015,0.00073 2.81064,0c0.84933,-0.00067 1.59033,0.03384 2.56418,-0.22131c0.83841,-0.21967 1.47522,-0.55368 2.48383,-0.69336c0.81082,-0.1123 1.63245,-0.05704 2.85886,-0.08981c0.64703,-0.0173 1.6553,-0.22223 2.45715,-0.49551c0.99774,-0.34006 1.80859,-0.4238 2.60001,-0.58398c1.01062,-0.20456 1.71295,-0.6781 2.64282,-0.85886c0.84329,-0.16394 1.71094,-0.29929 2.45718,-0.7045c0.76111,-0.41327 1.79587,-0.16956 2.49866,-0.638c0.79532,-0.53012 1.01956,-1.4404 1.80133,-1.88132c0.69403,-0.39142 1.33304,-1.14331 1.81467,-1.65866c0.6319,-0.67615 1.10007,-1.57416 1.35333,-2.14401c0.48215,-1.08484 0.88388,-1.60822 1.241,-2.254c0.60858,-1.10046 0.99359,-1.94293 1.18649,-2.38199c0.3916,-0.89124 0.75003,-1.7883 0.91919,-2.22668c0.47162,-1.22214 0.7023,-1.96875 1.14667,-2.94666c0.28592,-0.62918 0.86874,-1.53116 1.34399,-2.11682c0.48212,-0.59409 1.25519,-1.3967 1.85184,-2.18301c0.50638,-0.66733 0.85254,-1.34583 1.46414,-2.12134c0.63995,-0.81143 1.21835,-1.29205 1.92151,-2.0475c0.57584,-0.61865 1.11664,-1.38332 1.39999,-2.15717c0.35437,-0.96783 0.35184,-1.75945 0.35718,-2.7115c0.0043,-0.76797 0,-1.72 0,-2.48532c0,-1.00768 0,-1.67067 0,-2.73201c0,-0.981 0,-1.70833 0,-2.47566c0,-1.19101 0,-1.99234 0,-2.80167c0,-0.82533 0,-1.67467 0,-3.0105c0,-0.4615 0,-1.39351 0,-2.3175c0,-0.892 0,-1.728 0,-2.847c0,-0.67267 0,-1.61166 0,-2.51399c0,-0.87901 0,-1.686 0,-2.73235c0,-0.77333 0.06726,-1.74309 -0.04166,-2.468c-0.17865,-1.18922 -0.81546,-1.83392 -1.47568,-2.29733c-0.72546,-0.50922 -1.35831,-1.01569 -2.13983,-1.50716c-0.73965,-0.46513 -1.5444,-1.01457 -2.13217,-1.51016c-0.72751,-0.61343 -1.69348,-1.03067 -2.21066,-1.68535c-0.54706,-0.69249 -0.62878,-1.53612 -1.10001,-2.35699c-0.43707,-0.76141 -1.1955,-1.44299 -1.73334,-2.14301l-0.16531,-0.79999l-0.00134,-0.90001" id="svg_6" stroke-width="2" stroke="#000" fill="none"/>
  <path t="13853,14047,14060,14060,14083,14083,14108,14109,14122,14122,14136,14151,14165,14165,14170,14170,14181,14181,14181,14181,14193,14193,14193,14193,14209,14209,14209,14209,14209,14209,14219,14219,14219,14219,14219,14230,14230,14230,14230,14243,14243,14243,14243,14261,14261,14261,14267,14267,14267,14279,14279,14293,14293,14309,14309,14317,14317,14317,14328,14328,14329,14342,14342,14343,14343,14353,14353,14353,14353,14366,14366,14366,14366,14366,14366,14366,14378,14378,14379,14379,14392,14392,14392,14392,14403,14403,14403,14404,14414,14415,14415,14427,14427,14427,14427,14442,14442,14442,14452,14453,14463,14463,14476,14476,14493,14493,14493,14501,14513,14513,14513,14527,14527,14543,14543,14543,14543,14544,14549,14550,14550,14550,14550,14562,14562,14562,14562,14563,14563,14577,14577,14578,14578,14578,14578,14587,14587,14587,14587,14587,14599,14599,14599,14600,14610,14611,14611,14627,14627,14637,14637,14637,14648,14648,14660,14660,14660,14677,14677,14678,14686,14686,14686,14686,14697,14697,14697,14697,14709,14710,14710,14710,14728,14728,14728,14728,14734,14735,14735,14746,14746,14746" d="m246.5,270.89999c1.75717,-0.05716 2.67259,-0.31985 3.34734,-0.7045c0.79449,-0.45291 1.38615,-1.0253 2.30533,-1.59549c0.68118,-0.42255 1.48222,-0.87741 2.04283,-1.39999c0.72096,-0.67203 1.07722,-1.55997 1.47118,-2.30002c0.36107,-0.67825 1.3651,-1.1391 2.00798,-1.672c0.7186,-0.59567 1.05313,-1.35477 1.52267,-2.11334c0.33728,-0.54492 1.05356,-1.31116 1.66968,-1.76648c0.66077,-0.48834 1.43018,-0.90717 2.46634,-1.78149c0.71237,-0.6011 1.01398,-0.97202 1.66666,-1.66669c0.65268,-0.69466 0.93973,-1.08418 2.02133,-1.95715c0.70419,-0.56836 1.47891,-1.02164 1.85333,-1.25751c0.74179,-0.46729 1.81592,-1.1918 2.46368,-1.73799c0.63226,-0.53313 1.20099,-1.09367 1.995,-1.88068c0.7149,-0.70859 1.15082,-1.16377 1.85065,-1.76534c0.72134,-0.62007 1.53146,-1.18958 2.05469,-1.56532c0.92938,-0.6674 1.60822,-1.20203 2.14398,-1.72c0.78223,-0.75624 1.29199,-1.29065 1.95068,-1.94934c0.64581,-0.64583 1.26682,-1.26683 1.92383,-1.92383c0.56433,-0.56433 1.2637,-1.26364 1.84415,-1.84416c0.59872,-0.59882 1.21375,-1.19566 1.79868,-1.85583c0.61621,-0.69548 1.1983,-1.50026 1.62085,-2.04285c0.43005,-0.55225 1.38959,-1.5923 1.94531,-2.05182c0.58469,-0.48347 1.25732,-0.95175 2.36719,-1.78151c0.41089,-0.30719 1.26944,-0.97409 1.70667,-1.328c0.44113,-0.35707 1.30551,-1.08171 1.70667,-1.45599c1.1116,-1.03714 1.69073,-1.71379 2.19083,-2.341c0.45728,-0.57352 1.25381,-1.62811 1.66699,-2.089c0.61847,-0.6899 1.08051,-1.13699 1.81683,-1.87399c0.5311,-0.53157 1.35333,-1.35333 1.89468,-1.89467c0.76248,-0.76248 1.22684,-1.22684 1.87332,-1.87334c0.81067,-0.81067 1.41068,-1.41066 2.01068,-2.01067c0.39999,-0.39999 1.19867,-1.19868 1.77914,-1.77916c0.53552,-0.53551 1.39551,-1.39551 1.90485,-1.90483c0.76868,-0.76868 1.29065,-1.29066 1.94934,-1.94934c0.66666,-0.66666 1.32504,-1.34183 1.81934,-1.81483c0.68341,-0.65395 1.57739,-1.02003 2.34732,-1.68517c0.5062,-0.43729 0.82629,-1.2523 1.66617,-1.9185c0.57983,-0.45993 1.66925,-1.07848 2.30316,-1.51616c0.69431,-0.47937 1.04202,-0.74634 1.7825,-1.22667c1.06824,-0.69293 1.76474,-1.04022 2.4335,-1.36533c0.67523,-0.32825 1.40323,-0.66254 2.5575,-1.40434c0.43405,-0.27895 1.32053,-0.93034 1.77802,-1.27733c0.93512,-0.70926 1.39517,-1.0787 2.3125,-1.79167c0.87872,-0.68297 1.3078,-1.00591 2.125,-1.64583c0.78268,-0.6129 1.16968,-0.90244 2.22015,-1.82083c0.67395,-0.5892 1.302,-1.19862 1.61084,-1.5c0.61203,-0.59726 1.51346,-1.49673 2.10165,-2.0955c0.5704,-0.58067 1.14227,-1.10907 1.966,-2.18283c0.50098,-0.65306 0.75128,-1.32214 1.452,-2.16901c0.4556,-0.5506 1.23196,-1.07642 1.94168,-1.578c0.74219,-0.52454 1.62579,-1.13115 2.22849,-1.67467c0.71118,-0.64134 1.15915,-1.1734 1.73151,-1.67465c0.95923,-0.84006 1.61496,-1.18874 2.24649,-1.63518c0.98895,-0.69913 1.49103,-1.20178 2.06369,-1.66933c0.57486,-0.46933 1.45898,-1.08086 2.38367,-1.35834c0.60571,-0.18176 1.59503,-0.28049 2.61682,-0.6055c0.74335,-0.23645 1.48645,-0.58322 2.22601,-0.966c1.09802,-0.56833 1.76797,-0.98642 2.40598,-1.38033c0.6019,-0.37161 1.68021,-1.0437 2.38953,-1.45801c0.64664,-0.3777 1.45715,-0.91933 2.24649,-1.56732l0.5535,-0.47551" id="svg_7" stroke-width="2" stroke="#000" fill="none"/>
  <path t="15596,15779,15779,15793,15793,15793,15793,15805,15805,15805,15805,15805,15805,15821,15821,15821,15821,15835,15836,15836,15836,15836,15839,15839,15839,15840,15840,15840,15852,15852,15852,15852,15852,15864,15864,15864,15876,15876,15876,15893,15893,15893,15893,15893,15901,15902,15902,15902,15902,15912,15913,15913,15913,15913,15913,15926,15926,15926,15926,15926,15926,15937,15938,15938,15938,15938,15950,15950,15950,15950,15961,15962,15962,15962,15976,15976,15976,15976,15986,15987,15987,15987,15999,15999,15999,15999,16011,16011,16011,16026,16026,16026,16037,16037,16047,16047,16048,16060,16060,16060,16060,16076,16076,16077,16077,16085,16085,16085,16086,16097,16097,16097,16097,16110,16110,16110,16110,16127,16127,16127,16127,16135,16135,16136,16136,16146,16146,16159,16160,16160,16177,16177,16177,16184,16184,16195,16195,16195,16210,16210,16211,16211,16220,16220,16220,16232,16245,16245,16245,16259,16260,16270,16270,16270,16281,16281,16293,16294,16294,16311,16311,16311,16311,16319,16319,16331,16331,16331,16343,16343,16360,16360,16361,16368,16368,16380,16380,16392,16411,16412,16417,16417,16428,16444,16444,16460,16460,16466,16477,16477,16494,16494,16503,16527,16528,16528,16528,16544,16544,16544,16552,16552,16553,16553,16563,16564,16564,16576,16577,16594,16594,16594,16601,16613,16614,16626,16643,16643,16650" d="m370.5,167.89999c0.89334,-1.39999 1.51517,-1.72362 2.64301,-2.10033c0.66678,-0.22272 1.4086,-0.41483 2.16599,-0.714c1.20831,-0.47729 1.99484,-0.94812 2.38651,-1.2c0.79446,-0.51091 1.55212,-1.08868 1.91916,-1.38834c1.07806,-0.88016 1.73907,-1.48676 2.34369,-2.11816c0.59549,-0.62186 1.38058,-1.64203 1.62048,-2.0005c0.48441,-0.72383 0.91638,-1.49608 1.431,-2.226c0.78534,-1.11391 1.11847,-1.44615 1.80002,-2.09999c0.69647,-0.66815 1.08929,-0.963 1.8075,-1.63667c1.08206,-1.01498 1.40952,-1.38612 2.02533,-2.13066c0.58914,-0.71228 0.86588,-1.05699 1.71451,-2.34233c0.34424,-0.52141 0.71933,-1.24864 1.30948,-2.04301c0.46591,-0.62717 1.07614,-1.23985 2,-2.16666c0.51785,-0.5195 1.06937,-1.07056 1.68002,-1.608c0.62924,-0.55379 1.66953,-1.31235 2.03998,-1.53867c0.74939,-0.45784 1.55023,-0.86371 2.39999,-1.2c0.87067,-0.34457 1.79935,-0.60643 2.76001,-0.87201c0.49466,-0.13675 1.51749,-0.41661 2.04001,-0.584c1.08536,-0.34769 2.19684,-0.79503 2.75699,-1.0405c0.56253,-0.24652 1.6622,-0.7692 2.18933,-1.04199c1.47623,-0.76398 1.90939,-1.01489 2.69101,-1.49101c0.69913,-0.42589 1.32895,-0.82275 2.35468,-1.65733c0.4801,-0.39066 1.14883,-1.03365 1.60532,-1.48517c0.74069,-0.73264 1.5437,-1.53905 2.05469,-2.12532c0.5051,-0.57948 1.13846,-1.47869 1.45148,-2.08934c0.45392,-0.88552 0.65839,-1.51774 1.29517,-2.70133c0.3331,-0.61913 0.73114,-1.23122 1.116,-1.884c0.60754,-1.03046 1.00223,-1.75665 1.35703,-2.49383c0.33945,-0.7053 0.72592,-1.6828 0.93631,-2.5065c0.23004,-0.90061 0.52225,-1.73372 1.12619,-2.51434c0.47653,-0.61596 1.08957,-1.40361 1.47916,-2c0.65729,-1.00618 1.14716,-1.60938 1.71066,-2.2c0.77579,-0.81314 1.18027,-1.21092 1.81018,-1.8c0.6539,-0.61152 1.38287,-1.22578 2.22583,-1.78933c0.58807,-0.39315 1.22449,-0.76157 2.27466,-1.18934c0.72156,-0.29391 1.48364,-0.50711 2.22601,-0.774c1.09369,-0.39319 1.78101,-0.70875 2.73181,-1.26817c0.62573,-0.36816 1.51816,-0.98325 2.12085,-1.37783c0.89603,-0.58661 1.48389,-0.97498 2.39999,-1.43467c0.88544,-0.44429 1.5097,-0.64465 2.39999,-1.05067c0.91013,-0.41508 1.50165,-0.75198 2.328,-1.29066c0.50809,-0.33121 1.47403,-1.05984 2.02017,-1.578c0.75397,-0.71535 1.27267,-1.26817 1.85315,-1.84866c0.79733,-0.79735 1.37784,-1.37782 1.91336,-1.91333c0.73267,-0.73266 1.3847,-1.35445 1.96933,-1.97334c0.53027,-0.56135 1.07999,-1.26016 1.49448,-2.15467c0.29996,-0.64732 0.60492,-1.70851 0.82019,-2.38933c0.29327,-0.92742 0.66562,-1.92561 1.00131,-2.48c0.54428,-0.89886 1.18542,-1.66399 1.61069,-2.31333c0.45914,-0.70108 1.24686,-1.42146 1.79999,-1.8c0.78986,-0.54056 1.58539,-1.19296 2.13217,-1.722c0.64386,-0.62298 1.24335,-1.30145 2.14517,-1.85266c0.55301,-0.338 1.27667,-0.62266 2.47998,-1c0.67877,-0.21286 1.38522,-0.38726 2.06403,-0.60001c1.20459,-0.37753 1.92886,-0.69474 2.96799,-1.2c0.6015,-0.29247 1.38428,-0.70879 2.39999,-0.916c0.79117,-0.1614 1.80966,-0.28019 2.39999,-0.52c0.81482,-0.331 1.80756,-0.84222 2.36401,-1.164c0.97318,-0.56274 1.53262,-1.09888 2.23599,-1.8c0.60095,-0.59904 1.20001,-1.2 1.89999,-1.9c0.5,-0.50001 1.23956,-1.19266 1.80002,-2.02116c0.43146,-0.63781 1.02151,-1.39325 1.69998,-1.7615c0.72583,-0.39395 1.44009,-1.08507 1.90002,-1.6745c0.6608,-0.84687 0.95627,-1.58267 1.71066,-2.20283c0.71768,-0.58997 1.24924,-1.10492 1.79999,-1.836c0.39264,-0.52119 1.17215,-1.53533 1.60001,-1.95733c0.62076,-0.61224 1.60455,-1.23827 2.14648,-1.494c0.84421,-0.39837 1.4646,-0.59759 2.64017,-1.23667c0.59229,-0.32199 1.41119,-0.83294 2.25986,-1.49467c0.64001,-0.49903 1.30121,-1.1965 1.7955,-1.6695c0.68341,-0.65395 1.51624,-1.06459 2.34732,-1.5185c0.65509,-0.35778 1.29999,-1.13333 2,-1.83333l0.59998,-0.564l0.80005,-0.41067" id="svg_8" stroke-width="2" stroke="#000" fill="none"/>
  <path t="19711,19894,19895,19895,19895,19906,19907,19907,19907,19919,19920,19920,19934,19934,19949,19949,19949,19960,19960,19961,19968,19968,19968,19968,19979,19979,19979,19979,19980,19993,19994,19994,19994,20004,20004,20004,20004,20005,20017,20017,20017,20017,20017,20017,20017,20028,20028,20028,20028,20028,20029,20029,20043,20044,20044,20044,20053,20054,20054,20065,20066,20066,20066,20077,20095,20095,20103,20103,20115,20115,20127,20127,20144,20144,20144,20145,20152,20152,20152,20152,20152,20152,20163,20163,20163,20163,20163,20177,20177,20178,20178,20178,20178,20194,20194,20194,20194,20195,20195,20200,20201,20201,20201,20201,20212,20212,20212,20212,20212,20227,20228,20228,20236,20237,20237,20249,20249,20261,20261,20261,20277,20278,20287,20287,20287,20298,20299,20311,20311,20311,20328,20328,20328,20337,20337,20337,20347,20347,20347,20348,20348,20360,20360,20360,20360,20361,20373,20373,20373,20373,20373,20373,20374,20385,20385,20385,20386,20386,20386,20386,20396,20396,20396,20397,20397,20397,20409,20410,20410,20426,20426,20427,20427,20427,20433,20434,20434,20445,20445,20445,20470,20470,20470,20494" d="m250.5,281.89999c3.88533,-0.56934 4.63655,-0.86002 5.02083,-1.02081c0.78481,-0.32837 1.97539,-0.82343 2.77516,-1.09384c0.76852,-0.25986 1.52637,-0.39435 2.70401,-0.88535c0.82776,-0.34509 1.37338,-0.81247 2.15717,-1.3045c0.74002,-0.46457 1.56403,-0.9935 2.13217,-1.53149c0.57611,-0.54556 1.21646,-1.34811 1.71066,-2.20566c0.26761,-0.46436 0.81931,-1.60226 1.15717,-2.26816c0.36133,-0.71219 0.73172,-1.45078 1.34283,-2.5235c0.39142,-0.68707 0.79883,-1.33893 1.23599,-1.95602c0.43765,-0.61777 1.17795,-1.51752 1.72116,-2.11066c0.55603,-0.60712 1.14471,-1.20261 2.04285,-2.10001c0.60226,-0.60178 1.22684,-1.20578 1.5625,-1.5c0.69849,-0.61224 1.93387,-1.50571 2.40182,-1.79999c0.48663,-0.306 1.53186,-0.9021 2.07733,-1.20001c0.55319,-0.30212 1.67981,-0.89481 2.79169,-1.5c0.5462,-0.2973 1.08145,-0.59381 2.10931,-1.18933c0.49622,-0.28749 1.43979,-0.85141 1.88535,-1.12532c1.23257,-0.75774 1.94916,-1.23369 2.63034,-1.62285c0.62515,-0.35715 1.83676,-0.84395 2.44165,-0.95265c0.89426,-0.16069 2.10458,-0.25542 2.69733,-0.39517c0.86884,-0.20485 1.65976,-0.46568 2.58835,-1.01016c0.84186,-0.49362 1.59424,-0.69707 2.46701,-1.06168c0.71661,-0.29938 1.5249,-0.7851 2.04282,-1.39999c0.70245,-0.834 0.92508,-1.49858 1.47116,-2.4095c0.48154,-0.80322 0.86996,-1.37845 1.29501,-1.995c0.69678,-1.01071 1.22305,-1.72316 1.491,-2.0955c0.5488,-0.7626 1.10031,-1.54356 1.36334,-1.94417c0.77988,-1.18776 1.23099,-2.00443 1.72565,-2.79868c0.25098,-0.40297 0.7822,-1.22588 1.45834,-2c0.72284,-0.82759 1.15619,-1.20773 2.04166,-1.97916c0.44894,-0.39113 0.90909,-0.77077 2.29169,-1.85417c0.44321,-0.34729 1.30411,-1.0062 1.72,-1.31999c0.79828,-0.60229 1.18002,-0.89189 2.28,-1.68001c0.6796,-0.48694 1.34189,-0.94051 1.992,-1.392c0.65924,-0.45782 1.69608,-1.19548 2.42282,-1.72284c0.73123,-0.53064 1.08331,-0.80077 1.7825,-1.28249c1.18674,-0.81761 1.94427,-1.22336 2.56665,-1.65201c0.82599,-0.56888 1.3858,-1.13765 2.00269,-1.63333c0.77951,-0.62636 1.62506,-1.07404 2.39999,-1.65067c0.61667,-0.45885 1.16666,-1.00531 1.97867,-1.812c0.52304,-0.51962 1.18799,-1.18799 1.84668,-1.84668c0.52197,-0.52199 1.29065,-1.29066 1.79999,-1.79999c0.69617,-0.69617 1.21063,-1.21071 1.77917,-1.77917c0.79547,-0.79536 1.37558,-1.40721 1.99548,-1.93832c0.77631,-0.6651 1.43472,-1.0218 2.05716,-1.52417c0.7399,-0.59718 1.2283,-1.18742 1.78952,-1.81967c0.59869,-0.67448 1.20224,-1.39076 2.27499,-2.27066c0.35318,-0.2897 1.12265,-0.79578 1.92499,-1.29333c0.41382,-0.25662 1.72385,-1.07709 2.17484,-1.39233c0.94388,-0.65976 1.41656,-1.02634 1.89935,-1.39867c0.98788,-0.76189 1.48102,-1.16035 2.47916,-1.95834c0.49991,-0.39967 1.49261,-1.19801 1.97867,-1.59999c0.48129,-0.39806 0.96417,-0.7836 1.85068,-1.60001c0.85187,-0.7845 1.60333,-1.5932 1.95181,-1.991c0.66534,-0.75954 0.9584,-1.13953 1.53085,-1.83833c0.7627,-0.93105 1.45047,-1.72411 1.94931,-2.14934c1.02774,-0.87611 1.70889,-1.21689 2.37869,-1.63199c0.67694,-0.41954 1.38049,-0.80269 2.09583,-1.6105c0.6506,-0.73474 0.78668,-1.41818 1.5975,-2.2455c0.59625,-0.60838 1.41599,-0.948 2.33331,-1.5l0.51901,-0.48151l0.50534,-0.642l0.70898,-0.63783" id="svg_9" stroke-width="2" stroke="#000" fill="none"/>
  <path t="21115,21258,21258,21270,21271,21271,21271,21286,21286,21301,21301,21312,21312,21312,21312,21318,21318,21318,21331,21331,21343,21343,21343,21343,21343,21360,21360,21360,21360,21360,21360,21367,21367,21367,21367,21368,21368,21379,21379,21380,21380,21380,21392,21392,21392,21392,21392,21410,21411,21411,21411,21411,21417,21417,21417,21417,21417,21417,21429,21429,21429,21429,21445,21446,21446,21453,21453,21464,21465,21465,21477,21492,21492,21506,21506,21506,21514,21514,21527,21527,21527,21542,21543,21543,21552,21552,21552,21552,21564,21564,21564,21577,21577,21577,21577,21593,21593,21593,21593,21593,21601,21601,21601,21612,21612,21613,21613,21627,21627,21627,21644,21644,21644,21650,21650,21650,21650,21662,21662,21663,21677,21677,21687,21688,21688,21698,21698,21698,21698,21710,21711,21727,21727,21727,21736,21737,21737,21737,21748,21748,21749,21749,21760,21760,21760,21777,21777,21786,21786,21798,21798,21798,21811,21811,21827,21827,21834,21834,21846,21846,21860,21860,21877,21877,21877,21877,21883,21883,21884,21884,21884,21884,21895,21895,21895,21896,21910,21910,21911,21911,21911,21926,21927,21927,21927,21932,21932,21933,21933,21933,21933,21944,21944,21944,21945,21945,21945,21960,21961,21961,21961,21969,21970,21970,21981,21981,21982,21993,21994,22011,22019,22019,22044" d="m377.5,179.89999c1.66165,-2.24733 2.46643,-2.74464 3.16666,-3.16666c0.7915,-0.47702 1.32739,-0.84286 2.14935,-1.34933c0.9903,-0.61021 1.6727,-0.91525 2.51733,-1.48401c0.71542,-0.48175 1.49374,-1.17551 2.17648,-1.65266c0.50647,-0.35396 1.29871,-0.87811 2.06866,-1.32582c0.89084,-0.51797 1.52463,-0.81143 2.526,-1.326c0.63437,-0.32597 1.56317,-0.86055 2.08484,-1.18217c0.89572,-0.55223 1.58432,-0.97903 1.96799,-1.2c1.29919,-0.74825 1.79224,-1.00618 2.84003,-1.528c0.54172,-0.26978 1.08902,-0.54666 2.22131,-1.01599c1.10571,-0.45831 1.65714,-0.63419 2.71518,-0.964c0.50772,-0.15826 1.49612,-0.42184 2.39417,-0.77333c0.85184,-0.3334 1.62561,-0.77231 2.29999,-1.31467c0.67648,-0.54405 1.27982,-1.19617 1.87201,-1.884c0.60959,-0.70807 1.19162,-1.45691 1.47916,-1.83334c0.56824,-0.74388 1.35858,-1.83025 1.83685,-2.51732c0.46292,-0.66505 0.91336,-1.3414 1.36798,-2.052c0.487,-0.76125 1.00067,-1.59827 1.54135,-2.48134c0.27499,-0.44913 0.82071,-1.34477 1.09067,-1.78133c0.75876,-1.22705 1.22296,-1.94878 1.64233,-2.60551c0.38058,-0.59596 1.03009,-1.63548 1.40567,-2.32649c0.34058,-0.62663 0.836,-1.636 1.23599,-2.436c0.39999,-0.8 0.76501,-1.60974 1.19998,-2.31467c0.46384,-0.75172 1.17056,-1.51794 1.72086,-1.98534c0.76266,-0.64775 1.51553,-0.99719 2.08047,-1.38533c0.82269,-0.56522 1.57147,-1.32384 2.39868,-1.948c0.58191,-0.43907 1.22943,-0.7515 2.20016,-1.48799c0.63068,-0.47852 0.99265,-0.91904 1.96649,-1.51201c0.76041,-0.463 1.6423,-0.76088 2.23468,-0.96533c1.19531,-0.41255 1.80939,-0.58539 2.69867,-0.9585c0.91177,-0.38255 1.49829,-0.73224 2.42084,-1.24284c0.63428,-0.35106 1.64209,-0.8429 2.36182,-1.11733c0.72836,-0.27773 1.48459,-0.48643 2.14801,-0.852c1.26218,-0.6955 1.70938,-1.28186 2.14801,-1.816c0.845,-1.02901 1.22174,-1.52783 1.80048,-2.19383c0.53714,-0.61811 1.14645,-1.41631 1.52084,-2.04167c0.39423,-0.65849 0.98779,-1.66216 1.32535,-2.21516c0.52792,-0.86489 1.01901,-1.759 1.422,-2.6595c0.2598,-0.58052 0.59116,-1.44708 1.07397,-2.18283c0.46219,-0.70432 1.20645,-1.42352 1.79468,-2.039c0.64993,-0.68006 1.20575,-1.42532 1.72,-2.144c0.37485,-0.52387 1.15106,-1.58309 1.564,-2.052c0.58218,-0.66113 1.16843,-1.24451 2,-1.80134c0.77295,-0.51757 1.59528,-0.89505 2.41068,-1.28533c0.64285,-0.3077 1.61087,-0.70045 2.436,-1.01067c0.59991,-0.22555 1.24631,-0.46013 2.63599,-1.072c0.36722,-0.16168 1.44748,-0.67703 2.14801,-0.948c0.91605,-0.35433 1.70551,-0.46521 2.56665,-0.652c1.0148,-0.22012 1.78769,-0.62849 2.80267,-0.83334c0.7915,-0.15974 1.64087,-0.15599 2.37866,-0.53066c0.70035,-0.35566 1.04651,-1.43113 1.38934,-2.06934c0.52225,-0.97224 1.26242,-1.16268 1.94666,-1.968c0.54263,-0.63865 1.00159,-1.48244 1.48535,-2.14133c0.62125,-0.84615 0.92682,-1.40479 1.39999,-2.54133c0.21497,-0.51638 0.52792,-1.40172 0.81433,-2.05217c0.49545,-1.12518 0.95148,-1.95113 1.1955,-2.3865c0.50375,-0.89878 0.76956,-1.34762 1.3075,-2.22667c0.75287,-1.23029 0.99875,-1.59779 1.44669,-2.30666c0.42664,-0.67517 1.23672,-2.02759 1.43616,-2.38234c0.40582,-0.72183 0.77307,-1.47062 1.25699,-2.112c0.88248,-1.16965 1.49829,-1.52393 2.10535,-1.84616c0.6456,-0.3427 1.77451,-0.84721 2.60815,-1.29017c0.44565,-0.23679 1.37006,-0.75322 1.85068,-1.016c0.97943,-0.53551 1.9747,-1.05634 2.97601,-1.52934c0.49173,-0.23228 1.46158,-0.6632 1.93066,-0.87466c0.90247,-0.40684 2.13464,-1.00003 2.85315,-1.40617c0.66183,-0.3741 1.24545,-0.75935 2.29733,-1.38317c0.68094,-0.40383 1.34399,-0.73763 2.12134,-1.34267c0.612,-0.47637 1.31519,-1.19431 2.04303,-1.9215c0.55609,-0.55556 1.15717,-1.15717 1.85712,-1.85717l0.60004,-0.6l0.59998,-0.5955" id="svg_10" stroke-width="2" stroke="#000" fill="none"/>
  <path t="23309,23480,23480,23496,23496,23508,23508,23508,23508,23517,23517,23517,23517,23529,23529,23529,23544,23544,23544,23559,23559,23566,23566,23566,23578,23593,23594,23603,23604,23615,23615,23627,23627,23627,23643,23644,23644,23653,23653,23654,23664,23664,23664,23664,23664,23665,23676,23676,23677,23677,23694,23694,23694,23694,23694,23702,23702,23702,23713,23713,23713,23726,23727,23727,23744,23744,23744,23751,23751,23762,23762,23762,23778,23778,23794,23794,23794,23799,23812,23812,23827,23827,23837,23848,23849,23860,23860,23860,23877,23877,23886,23886,23886,23886,23897,23897,23898,23910,23910,23910,23927,23927,23927,23927,23935,23935,23935,23935,23947,23947,23947,23963,23963,23978,23978,23979,23985,23985,23985,23996,23997,24013,24028,24034,24035,24058,24070,24070,24082,24094,24094,24110,24111,24119,24119,24119,24131,24131,24143,24143,24143,24143,24160,24160,24168,24168,24180,24180,24180,24194,24194,24194,24210,24210,24217,24217,24229,24229,24243,24244,24261,24261,24261,24266,24266,24266,24279,24279,24301,24302,24302,24306,24306,24307,24317,24317,24317,24317,24329,24329,24329,24345,24345,24353,24354,24363,24377,24377,24393,24412" d="m263.5,290.89999c0.01068,-1.836 -0.03259,-2.64227 0.36618,-3.60001c0.3533,-0.84857 1.16165,-1.61899 1.65265,-1.99548c0.52805,-0.40491 1.45288,-0.95728 2.50235,-1.383c0.71683,-0.29077 1.45947,-0.49576 2.16898,-0.71701c1.26962,-0.3959 1.83072,-0.54456 2.70084,-1.06168c0.84778,-0.50385 1.36981,-1.11163 2.009,-1.53299c0.94907,-0.62564 1.81271,-0.66849 2.60001,-0.8765c0.80637,-0.21304 1.5607,-0.57422 2.36401,-1.23334c0.78534,-0.64435 1.2518,-1.22952 2.11865,-1.79999c0.64185,-0.42239 1.27347,-1.05524 1.77066,-1.68533c0.5256,-0.66614 1.29822,-1.09973 1.98001,-1.716c0.83722,-0.75674 1.22974,-1.40982 1.64932,-1.99869c0.5834,-0.81873 1.17636,-1.44504 1.63617,-1.91431c0.80841,-0.82501 1.44794,-1.4563 2.14252,-2.13635c0.35818,-0.35068 1.08575,-1.04919 1.45599,-1.38132c1.04797,-0.94006 1.72433,-1.45969 2.36182,-1.94717c0.61523,-0.47046 1.52844,-1.17883 2.11951,-1.70483c0.59851,-0.53265 1.16748,-1.0885 1.716,-1.63199c1.00394,-0.99472 1.44928,-1.44809 2.08084,-2.0795c0.8046,-0.80441 1.38748,-1.42795 2.06165,-1.94736c0.68326,-0.52643 1.5072,-0.87239 2.28152,-1.28249c0.9494,-0.50282 1.43066,-1.04459 2.00949,-1.722c0.55392,-0.64827 1.26849,-1.13979 2.25183,-1.65268c0.59302,-0.3093 1.41162,-0.69031 2.116,-1.48399c0.56961,-0.64185 1.0209,-1.38857 1.70935,-1.88c0.66418,-0.47412 1.54745,-1.02681 2.17465,-1.636c0.60867,-0.5912 1.2926,-1.30748 1.79999,-1.79999c0.71066,-0.68982 1.53519,-1.02173 2.41068,-1.26134c0.80527,-0.2204 1.59158,-0.78583 2.13217,-1.2905c0.79532,-0.74248 1.32889,-1.29198 2.15717,-1.64818c0.84024,-0.36136 1.53168,-0.49176 2.19916,-0.75716c1.28104,-0.50934 1.79453,-0.88504 2.47952,-1.4175c0.83124,-0.64612 1.46011,-1.02534 2.22131,-1.63518c0.84689,-0.67848 1.2149,-1.19363 1.80002,-2.01149c0.41058,-0.57391 1.00183,-1.47717 1.39548,-2.07417c0.57141,-0.86659 0.92792,-1.41397 1.52051,-2.41916c0.38977,-0.66113 0.7377,-1.30801 1.53668,-2.28534c0.50336,-0.61571 1.20938,-1.38152 1.59015,-2.0045c0.37564,-0.61461 0.75864,-1.5616 1.05716,-2.34367c0.30151,-0.78993 0.70444,-1.71582 1.17917,-2.51016c0.44098,-0.73787 0.94473,-1.35558 1.72086,-1.827c0.67636,-0.41083 1.28528,-1.22977 1.89999,-1.8145c0.58633,-0.55774 1.43817,-0.84689 2.384,-1.18417c0.70578,-0.25168 1.63632,-0.61757 2.32584,-0.76866c0.96411,-0.21127 1.70432,-0.47369 2.50748,-0.66333c0.99152,-0.23412 1.93372,-0.26851 2.84933,-0.61734c0.81442,-0.31027 1.33163,-0.69034 2.14935,-1.18399c0.99524,-0.6008 1.67694,-0.90767 2.51733,-1.48268c0.69818,-0.47772 1.33942,-1.16069 1.81934,-1.65717c0.52878,-0.54701 1.33746,-1.5352 1.71133,-2.13216c0.44882,-0.71666 1.05936,-1.56781 1.43597,-2.09467c0.65253,-0.91284 0.88065,-1.54388 1.68402,-2.23067c0.63699,-0.54456 1.54269,-0.93555 2.14133,-1.55734c0.59274,-0.61568 1.02328,-1.3362 1.54932,-2.07733c0.65366,-0.92093 1.01782,-1.4991 1.70935,-2.048c0.72229,-0.57333 1.51706,-0.90962 2.51733,-1.40266c0.6174,-0.30432 1.28073,-0.60822 2.284,-1.00133c0.83286,-0.32635 1.43607,-0.52129 2.61465,-1.11983c0.60925,-0.30942 1.1752,-0.71126 2.10001,-1.10951c0.87909,-0.37857 1.80139,-0.42873 2.58566,-0.67467c1.09048,-0.34196 1.35785,-1.08046 2.33551,-1.65182c0.59955,-0.35039 1.569,-0.60001 1.96417,-1.4415l0.51599,-0.51601l0.89868,-0.338l0.69998,-0.38333" id="svg_11" stroke-width="2" stroke="#000" fill="none"/>
  <path t="25091,25250,25267,25267,25267,25283,25283,25289,25289,25298,25298,25298,25298,25310,25310,25310,25310,25326,25326,25326,25326,25335,25335,25335,25335,25347,25347,25347,25347,25360,25360,25360,25360,25376,25376,25376,25376,25376,25384,25384,25384,25384,25384,25384,25396,25396,25396,25396,25410,25410,25410,25410,25410,25410,25427,25427,25427,25427,25433,25433,25433,25445,25445,25445,25445,25460,25460,25460,25470,25470,25470,25470,25482,25482,25482,25482,25494,25494,25494,25511,25512,25512,25512,25512,25520,25520,25520,25520,25531,25531,25531,25543,25544,25544,25544,25560,25561,25561,25569,25569,25569,25579,25580,25580,25593,25593,25593,25610,25610,25610,25617,25618,25629,25630,25630,25643,25643,25643,25660,25660,25660,25666,25666,25666,25666,25678,25678,25678,25678,25679,25693,25694,25694,25694,25694,25709,25710,25710,25710,25716,25716,25716,25727,25727,25727,25743,25743,25753,25753,25754,25764,25777,25777,25794,25794,25802,25802,25814,25814,25814,25826,25827,25827,25843,25844,25844,25851,25851,25851,25851,25863,25863,25863,25863,25876,25876,25877,25893,25894,25894,25894,25900,25900,25912,25912,25926,25948,25960,25976,25986,25998,26022,26036,26047,26059,26077,26085,26109,26126,26182" d="m391.5,186.89999c0.52084,-2.5 1.11499,-3.31314 1.5,-4.02083c0.31229,-0.57397 0.76859,-1.59233 1.20001,-2.32199c0.46936,-0.79384 0.94305,-1.32037 1.84314,-1.97833c0.71774,-0.52466 1.29688,-0.85826 1.94485,-1.10951c1.01044,-0.3918 2.13852,-0.51021 2.88666,-0.62c0.74261,-0.10896 1.81631,-0.36359 2.46817,-0.66367c0.64999,-0.29924 1.55667,-0.88712 2.45715,-1.48567c0.60056,-0.39919 1.20004,-0.79996 2.10001,-1.39999c0.89987,-0.59996 1.49994,-0.99362 2.07916,-1.40001c0.84204,-0.59079 1.6308,-1.16794 2.28485,-1.83199c0.44794,-0.45479 0.87204,-1.00262 1.43616,-2.0325c0.43362,-0.79164 0.81989,-1.69836 1.03583,-2.16751c0.44772,-0.97275 0.92273,-1.97215 1.44669,-2.96533c0.26157,-0.49577 0.53287,-0.98082 1.056,-1.93066c0.25192,-0.45743 0.93744,-1.73421 1.29333,-2.50267c0.32605,-0.70403 0.57458,-1.40715 1.30133,-2.73599c0.19772,-0.36154 0.67429,-1.09198 1.1875,-1.85417c0.52872,-0.78519 0.81628,-1.16814 1.55765,-2.37866c0.47723,-0.77925 0.87872,-1.55171 1.31702,-2.229c0.57623,-0.89044 1.20877,-1.50395 1.8045,-2.01151c0.80582,-0.68654 1.19998,-1.12799 1.79999,-1.86c0.60001,-0.73199 1.16336,-1.41023 1.82132,-1.82799c0.66046,-0.41934 1.81982,-0.77771 2.48853,-0.972c0.70926,-0.20607 1.81006,-0.49104 2.86865,-0.8c0.66602,-0.19438 1.30157,-0.39722 2.22018,-0.7c0.9024,-0.29744 1.81586,-0.60019 2.43732,-0.836c1.33939,-0.50822 2.05215,-0.8381 2.77866,-1.20001c0.72968,-0.36348 1.4404,-0.72919 2.34235,-1.36417c0.54422,-0.38313 1.23837,-1.02084 1.64032,-1.48517c0.83859,-0.96869 1.19388,-1.54648 1.80267,-2.362c0.59152,-0.79239 1.20435,-1.49263 1.57916,-1.95267c0.54871,-0.67346 1.14084,-1.6821 1.39551,-2.22533c0.38403,-0.8192 0.92743,-1.86773 1.45068,-2.53867c0.50385,-0.64605 1.18082,-1.41953 1.53867,-2.04667c0.36008,-0.63103 0.73886,-1.6096 1.03598,-2.41467c0.30295,-0.82092 0.67783,-1.8633 1,-2.528c0.3746,-0.77283 0.89044,-1.50713 1.48535,-2.13067c0.5864,-0.61459 1.32532,-1.32667 1.71597,-1.71733c0.79868,-0.79868 1.39819,-1.39916 1.99869,-1.99866c0.80066,-0.79933 1.40115,-1.40417 1.85715,-1.74284c0.92755,-0.68887 1.79742,-1.0388 2.42551,-1.2825c0.6864,-0.26633 1.8602,-0.69589 2.72717,-1.02733c0.45154,-0.17262 1.37253,-0.5302 2.3075,-0.86333c0.91318,-0.32537 1.79431,-0.60455 2.63602,-0.848c0.7984,-0.23092 1.56256,-0.42577 2.62515,-0.736c0.66599,-0.19444 1.61139,-0.49829 2.22018,-0.7c1.20111,-0.39796 1.81161,-0.56292 2.64417,-0.95716c1.06577,-0.50468 1.72366,-1.05376 2.2955,-1.59017c0.65585,-0.6152 1.28336,-1.28165 1.98297,-1.97383c0.50143,-0.49612 1.13727,-1.22231 2.05334,-1.6175c0.75674,-0.32645 1.75104,-0.42514 2.38266,-1.1615c0.48407,-0.56432 0.77536,-1.42171 1.46402,-2.0745c0.74017,-0.70162 1.40997,-1.02335 2.12149,-1.578c0.67294,-0.52459 1.14169,-1.29814 1.6265,-1.84866c0.7471,-0.84837 1.29364,-1.1965 2.08249,-1.79867c0.78317,-0.59785 1.49478,-1.20082 1.94818,-1.6c0.68289,-0.60124 1.68134,-1.40558 2.23599,-1.8c0.57062,-0.40577 1.16785,-0.79627 2.36267,-1.6c0.59192,-0.39816 1.186,-0.77309 2.23468,-1.6c0.48996,-0.38634 1.12872,-0.97533 1.67999,-1.51466c0.73904,-0.72306 1.36768,-1.28861 2.13483,-1.78534c0.77948,-0.5047 1.15909,-1.30754 1.70901,-1.9955c0.5896,-0.73756 1.40979,-1.01252 1.99548,-1.65183c0.5343,-0.58325 0.92786,-1.45609 1.64734,-1.886c0.77045,-0.46037 0.74139,-1.3933 1.22131,-2.04533c0.51398,-0.69828 1.20404,-1.096 1.80402,-1.696l0.6792,-0.42083" id="svg_12" stroke-width="2" stroke="#000" fill="none"/>
  <path t="27460,27620,27634,27634,27634,27644,27644,27644,27661,27661,27670,27670,27680,27680,27692,27693,27708,27709,27718,27718,27730,27730,27743,27743,27759,27759,27768,27779,27779,27793,27794,27809,27816,27816,27828,27828,27843,27843,27843,27853,27853,27865,27865,27876,27877,27894,27894,27902,27903,27903,27914,27914,27914,27926,27926,27926,27945,27945,27945,27952,27952,27952,27963,27963,27963,27976,27976,27976,27977,27995,27995,27995,27995,28001,28001,28001,28001,28013,28013,28013,28013,28026,28027,28027,28027,28043,28043,28043,28050,28050,28062,28062,28077,28077,28087,28098,28111,28111,28126,28127,28136,28136,28137,28147,28147,28147,28160,28160,28161,28161,28177,28185,28185,28197,28198,28210,28210,28210,28226,28226,28235,28235,28246,28246,28246,28260,28261,28261,28278,28278,28284,28284,28295,28295,28311,28311,28320,28320,28332,28333,28344,28361,28361,28370,28370,28380,28405,28405,28410,28411,28425,28438,28438,28450,28450,28461,28461,28467,28468,28468,28480,28480,28494,28494,28494,28494,28510,28511,28511,28517,28517,28528,28528,28544,28545,28565,28565" d="m263.5,300.89999c1.672,-0.03598 2.5484,-0.20392 3.52084,-0.52081c0.53421,-0.17407 1.57861,-0.53711 2.45831,-1c0.63611,-0.33472 1.43164,-0.94986 2,-1.47919c0.87326,-0.81329 1.39417,-1.3548 2.02084,-2c0.60919,-0.6272 1.15326,-1.29504 1.47916,-2.02081c0.42654,-0.94992 0.33841,-1.81006 0.6875,-2.8125c0.24826,-0.71295 0.93069,-1.48959 1.33334,-2.16669c0.49673,-0.83527 0.99472,-1.48431 1.60001,-2.10001c0.59485,-0.60507 1.22473,-1.42032 2.00015,-1.77866c0.73672,-0.34045 1.74728,-0.51834 2.41583,-0.92267c0.75424,-0.45615 1.41431,-1.28781 2.00485,-1.67783c0.88406,-0.58386 1.72577,-0.5155 2.64581,-0.52084c0.78152,-0.00455 1.57462,0.07571 2.69034,-0.00034c0.83981,-0.05725 1.35654,-0.78769 1.90018,-1.29431c0.78949,-0.73575 1.67682,-0.65338 2.64151,-0.992c0.79803,-0.28012 1.49371,-0.8378 1.96533,-1.56c0.38202,-0.58496 0.72397,-1.57947 1.04666,-2.37866c0.33398,-0.82718 0.897,-1.86322 1.242,-2.3175c0.50253,-0.66174 1.19382,-1.44843 1.72198,-2.25717c0.38776,-0.59375 0.94998,-1.39743 1.45068,-2.01068c0.52548,-0.64362 1.16525,-1.60489 1.54932,-2.41464c0.25876,-0.54559 0.75464,-1.63559 1.28699,-2.3175c0.35605,-0.45609 1.00607,-1.08005 2.02368,-1.85718c0.54089,-0.41309 1.12399,-0.802 1.716,-1.20001c1.19595,-0.80405 1.79868,-1.19998 2.39865,-1.59998c0.60001,-0.40002 1.79205,-1.21262 2.41068,-1.57867c0.61646,-0.36478 1.25519,-0.72012 2.31052,-0.97867c1.07831,-0.26416 1.82867,-0.23996 2.50949,-0.41068c1.22488,-0.30716 1.92352,-0.83415 2.48132,-1.34932c0.75888,-0.70087 1.22037,-1.20956 2.14069,-1.78267c0.68045,-0.42372 1.48218,-0.87744 2.04282,-1.40001c0.72098,-0.67203 1.08899,-1.55597 1.526,-2.40016c0.30444,-0.5881 0.99124,-1.37828 1.37851,-2.1105c0.41373,-0.78223 0.81342,-1.59393 1.10001,-2.24649c0.41983,-0.95587 0.70404,-1.77745 1,-2.64734c0.30417,-0.89409 0.59088,-1.78978 0.79999,-2.35384c0.28757,-0.77571 0.77789,-1.74687 1.5,-2.54167c0.4855,-0.53436 1.06531,-1.34419 1.52084,-2c0.60144,-0.86589 1.13501,-1.23801 1.82648,-1.6955c0.90421,-0.59822 1.51669,-1.13684 2.30984,-1.60449c0.73019,-0.43053 1.5372,-0.81213 2.36368,-1.20001c0.66,-0.30974 1.66479,-0.69221 2.45831,-1c0.75439,-0.29262 1.66373,-0.88602 2.4035,-1.21466c0.73904,-0.32832 1.73462,-0.31424 2.51733,-0.57066c0.82071,-0.26886 1.79218,-0.83063 2.38934,-1.104c1.03156,-0.47223 1.87537,-0.59293 2.41068,-1.17867c0.59506,-0.65111 1.31131,-1.25275 1.89981,-1.87483c0.60178,-0.63612 0.65771,-1.75435 1.06952,-2.35583c0.51337,-0.74985 1.4201,-1.25612 1.936,-1.90134c0.53189,-0.66521 1.33578,-0.88562 2.133,-1.59999c0.6842,-0.61311 0.81329,-1.49739 1.33099,-2.18401c0.55716,-0.73895 1.26401,-1.34933 1.80533,-1.89067c0.79199,-0.79199 1.27798,-1.27803 1.79999,-1.79999c0.80411,-0.80405 1.32523,-1.35173 2.15869,-1.992c0.66055,-0.50745 1.17877,-0.84706 1.98398,-1.34933c0.98694,-0.61565 1.65994,-0.96689 2.28134,-1.28267c0.99832,-0.50732 1.79922,-0.90556 2.60117,-1.30116c0.77731,-0.38345 1.63351,-0.73351 2.3895,-0.9615l0.71066,-0.644l0.40002,-0.58934" id="svg_13" stroke-width="2" stroke="#000" fill="none"/>
  <path t="29253,29427,29427,29438,29438,29438,29452,29452,29452,29468,29469,29469,29469,29484,29485,29485,29490,29490,29490,29501,29501,29501,29501,29513,29513,29513,29513,29528,29528,29528,29528,29544,29544,29544,29548,29548,29548,29548,29548,29548,29561,29561,29561,29561,29562,29578,29578,29578,29578,29578,29586,29586,29586,29586,29597,29597,29598,29612,29612,29629,29629,29634,29634,29646,29660,29660,29677,29677,29683,29683,29683,29695,29695,29710,29710,29710,29727,29727,29728,29728,29733,29733,29733,29744,29744,29744,29744,29762,29762,29770,29770,29770,29770,29781,29781,29781,29794,29794,29794,29794,29812,29812,29812,29812,29819,29819,29830,29830,29830,29843,29844,29844,29844,29860,29860,29868,29868,29880,29880,29880,29895,29895,29895,29911,29911,29911,29917,29917,29917,29928,29929,29929,29929,29929,29944,29944,29944,29944,29961,29961,29961,29961,29961,29966,29967,29967,29967,29967,29977,29978,29978,29994,29994,30010,30010,30010,30015,30015,30039,30040,30053,30053,30064,30064,30077,30094,30094,30102,30114,30114,30139,30151,30151,30162,30162,30187,30188,30198" d="m378.5,203.89999c2.60449,-0.00899 3.4848,-0.04227 4.42133,-0.44283c0.8334,-0.35643 1.3457,-0.75514 2.41202,-1.3905c0.70901,-0.42247 1.4006,-0.77731 2.33331,-1.33333c0.52094,-0.31055 1.332,-0.8295 1.82352,-1.23784c0.90509,-0.75189 1.3299,-1.40845 1.89249,-2.1955c0.58371,-0.81657 1.15442,-1.42894 1.52185,-1.91434c0.83325,-1.10074 1.1955,-1.791 1.59549,-2.48567c0.39999,-0.69466 0.98358,-1.67867 1.39999,-2.23065c0.57773,-0.76582 1.021,-1.20064 1.80002,-2.19067c0.41125,-0.52266 0.78668,-1.08864 1.39999,-1.89467c0.58774,-0.77242 1.20804,-1.47235 1.672,-1.90933c1.03271,-0.97266 1.69733,-1.46172 2.04233,-1.73183c0.72452,-0.56726 1.49432,-1.14778 1.88834,-1.44417c1.19629,-0.89986 1.99579,-1.49631 2.39734,-1.78801c0.79691,-0.57892 1.1839,-0.87848 2.39999,-1.644c0.78857,-0.4964 1.58707,-0.92438 1.97916,-1.125c0.75937,-0.38853 1.85339,-0.87689 2.85919,-1.289c0.61951,-0.25385 1.50131,-0.59351 2.24014,-1.07399c0.71329,-0.46388 1.28815,-1.06462 2.12134,-1.65717c0.75485,-0.53685 1.66248,-0.98619 2.27933,-1.52151c0.75888,-0.65858 1.22086,-1.2 1.92084,-1.89999c0.60001,-0.60001 1.24979,-1.2052 1.51733,-2.08533c0.21509,-0.70753 0.50293,-1.73106 0.944,-2.31467c0.46729,-0.61827 1.27325,-1.58835 1.61783,-2.20001c0.55344,-0.98235 0.81439,-1.61037 1.15683,-2.23599c0.51437,-0.93977 1.02841,-1.71193 1.34317,-2.28484c0.47647,-0.86723 0.77429,-1.77992 0.98083,-2.6685c0.19861,-0.85442 0.48062,-1.69577 1.10251,-2.349c0.64117,-0.67351 1.20322,-0.93466 2.13217,-1.7135c0.63391,-0.53145 1.34045,-1.2989 1.81967,-1.74899c0.51895,-0.4874 1.34399,-1.23787 2.28564,-1.63499c0.86783,-0.36598 1.52252,-0.32391 2.70001,-0.69751c0.61456,-0.19499 1.49789,-0.69136 2.10001,-1.01849c0.89688,-0.48727 1.79321,-0.8967 2.37915,-1.12733c0.83237,-0.32764 1.8403,-0.71046 2.5,-1.02084c1.02856,-0.48393 1.63486,-0.787 2.478,-1.25716c0.97559,-0.54401 1.48508,-0.90892 2.3175,-1.3815c0.53491,-0.30367 1.5708,-0.59454 2.37866,-0.912c1.01773,-0.39993 1.41156,-1.19038 2.01334,-1.78267c0.61353,-0.60387 1.46539,-1.01195 2.23203,-1.65199c0.60626,-0.50613 1.13794,-1.0999 1.71866,-1.91467c0.41968,-0.58881 0.80972,-1.24463 1.65332,-2.00133c0.73627,-0.6604 1.35239,-1.03857 2.22934,-1.76534c0.60999,-0.50552 1.198,-1.06087 1.79999,-1.608c0.59802,-0.54353 1.49411,-1.31195 2.10452,-1.77267c0.61035,-0.46069 1.25595,-0.90069 2.26215,-1.61932c0.71973,-0.51403 1.45862,-1.05876 1.83334,-1.33334c0.74722,-0.54751 1.83444,-1.33179 2.51334,-1.816c0.64102,-0.45721 1.25891,-0.88717 1.79999,-1.368c0.79404,-0.70562 1.42813,-1.52977 1.84,-2.01867c0.80264,-0.95275 1.51898,-1.2678 2.33069,-1.86667c0.55173,-0.40706 1.03232,-0.94766 1.89066,-1.80533c0.50955,-0.50914 1.27802,-1.27802 1.79999,-1.8c0.65866,-0.65868 1.3045,-1.3045 1.92535,-1.92533c0.60001,-0.6 1.36798,-1.25114 1.77884,-2c0.36456,-0.66445 1.1109,-1.14659 1.78781,-1.9c0.55267,-0.61513 1.0986,-1.27344 1.5,-2c0.42688,-0.77268 1.13785,-1.3 1.71869,-1.8l0.76733,-0.5l0.69464,-0.39999l0.89551,-0.5955" id="svg_14" stroke-width="2" stroke="#000" fill="none"/>
  <path t="31245,31428,31429,31429,31440,31440,31440,31440,31440,31440,31440,31470,31470,31470,31470,31470,31470,31470,31480,31480,31480,31480,31494,31495,31495,31503,31514,31514,31527,31527,31543,31552,31552,31563,31575,31576,31592,31600,31600,31611,31626,31636,31636,31648,31648,31660,31661,31675,31675,31686,31686,31686,31699,31699,31709,31725,31735,31735,31771,31795,31846,31865,31882" d="m497.5,102.9c1.67517,-1.318 2.36319,-1.7317 2.94266,-2.14133c1.16055,-0.82039 1.59961,-1.19556 2.077,-1.58733c1.02988,-0.84518 1.55441,-1.31021 2.08401,-1.78933c0.53445,-0.48354 1.56772,-1.47741 2.05301,-1.98167c0.47467,-0.49322 1.35339,-1.4761 1.75998,-1.95867c0.39334,-0.46687 1.11774,-1.36514 1.75,-2.20833c0.56699,-0.75615 1.07007,-1.43243 1.44,-2.076c0.61099,-1.06294 0.73019,-1.80806 0.9415,-2.59566c0.24768,-0.92319 1.04022,-1.59247 1.43103,-2.1825c0.58337,-0.88069 0.40289,-1.71799 1.04163,-2.47916c0.56915,-0.67824 1.00287,-1.22919 1.77917,-1.89467c0.73621,-0.63109 1.03912,-1.26726 1.79999,-1.8625c0.77881,-0.60925 1.58997,-0.66747 2.37921,-1.24284c0.68176,-0.49701 1.07623,-1.22594 1.74213,-1.6c0.95807,-0.53817 1.78772,-0.8522 2.612,-1.4c0.69403,-0.46125 1.36847,-0.94928 1.98132,-1.41067c0.91003,-0.6851 1.01105,-1.46687 1.35339,-2.10533c0.51447,-0.95938 1.32312,-1.24285 1.84662,-2.084c0.47778,-0.76764 1.18292,-1.42432 1.62817,-2.1c0.47168,-0.7157 1.00452,-1.35267 1.40985,-2.0045l0.44733,-0.7955l0.44733,-0.7955" id="svg_15" stroke-width="2" stroke="#000" fill="none"/>
  <path t="33235,33396,33407,33434,33434,33456,33505,33578,33596,33615,33615,33638,33652,33652,33663,33688,33725,33741,33773,33786,33800,33814,33815,33828,33836,33847,33847,33847,33860,33860,33877,33877,33885,33886,33896,33896,33910,33926,33933,33933,33945,33958,33958,33976,33983,33983,33994,34008,34024,34025,34025,34032,34068,34069,34092,34108,34119,34119,34129,34141,34158,34158,34179,34179,34204,34229,34253,34254,34289,34302,34302,34313,34338,34351,34362,34362,34425,34440,34450,34450,34461,34461,34486,34510,34534,34559,34576,34608,34633,34645,34646,34658,34676,34676,34682,34682,34682,34694,34695,34708,34725,34725,34732,34733,34756,34770,34770,34781,34792,34792,34809,34809,34818,34841,34841,34860,34878,34892,34909,35089,35115,35115,35131,35148,35148,35152,35152,35161,35162,35175,35175,35175,35191,35191,35198,35198,35211,35211,35225,35226,35236,35236,35260,35276,35276,35292,35296,35309,35333,35346,35358,35376,35376,35382,35383,35395,35410,35425,35426,35432,35432,35444,35458,35458,35481,35493,35493,35509,35529,35542,35560,35567,35567,35568,35578,35592,35592,35592,35608,35608,35616,35628,35629,35642,35659,35659,35666,35677,35702,35707,35720,35739,35763,35764,35826" d="m509.5,49.9c-1.70001,0 -2.63599,0 -3.48401,0c-0.86331,0 -1.88,0 -2.716,0c-0.89999,0 -2.12878,0.29467 -2.63333,-0.33333c-0.44016,-0.54787 -0.16666,-1.78133 -0.16666,-2.66667c0,-0.8 0,-1.7 0,-2.6c0,-0.9 -0.00067,-1.8 0,-2.7c0.00067,-0.89867 0.34723,-1.4852 1.10001,-1.9215c0.78641,-0.4558 1.19617,-1.37885 2.10132,-1.69316c0.91547,-0.3179 1.63467,-0.08361 2.39999,-0.08533c0.99869,-0.00225 1.81693,0.01194 2.79736,-0.284c0.78372,-0.23657 1.73013,-0.58152 2.48532,-0.8c0.96182,-0.27826 1.6514,-0.57301 2.59518,-0.916c0.84131,-0.30575 1.45044,-1.08581 2.12079,-1.564c0.73615,-0.52509 1.4632,-0.90622 2,-1.58533c0.56299,-0.71224 1.45691,-1.14036 2.10004,-1.498c0.85309,-0.4744 1.68469,-0.82526 2.46667,-1.35267c0.63885,-0.43087 1.39349,-0.74194 2.19733,-1.4c0.67651,-0.55387 1.17029,-1.33898 2.03601,-1.564c0.87189,-0.22663 1.89526,-0.24014 2.31464,-0.83733c0.5343,-0.76082 1.35156,-0.8973 2.04266,-1.64133c0.52075,-0.5606 0.81866,-1.36534 1.59448,-1.6055c0.89954,-0.27846 1.80713,-0.68768 2.64819,-1.1185c0.66431,-0.34029 1.19739,-1.2991 2,-1.66667c0.74274,-0.34014 1.70691,-0.21163 2.5,-0.66667c0.7063,-0.40523 1.53662,-0.82612 2.29999,-1.216c0.75287,-0.38453 1.72113,-0.26052 2.68402,-0.28533c0.69128,-0.01782 1.58002,-0.37595 2.31464,-0.71467c0.85699,-0.39513 1.80133,-0.284 2.70135,-0.284c0.90002,0 1.79999,-0.00008 2.70001,0c0.89996,0.00008 1.76514,0.22329 2.39996,0.57467c0.87994,0.48708 1.72644,0.36115 2.61072,0.46133c1.00018,0.11331 1.7926,0.47783 2.38928,0.76533c1.00128,0.48248 1.72998,0.88275 2.64734,1.146c0.90851,0.26072 1.72845,0.29984 2.41937,1.05267c0.539,0.58735 0.84888,1.50514 1.53333,2.2c0.49622,0.50376 1.32098,1.14745 1.6333,1.96667c0.30273,0.7941 0.32922,1.85365 0.77734,2.42267c0.6106,0.77537 1.12622,1.44756 1.47333,2.21067c0.38861,0.85426 0.65564,1.63912 0.92053,2.4955c0.23608,0.7633 0.98505,1.24599 0.99548,2.1885c0.00763,0.69062 0.01147,1.7634 0,2.68267c-0.01044,0.83353 -0.20612,1.64758 -0.57465,2.45866c-0.3833,0.84352 -0.41095,1.62832 -0.59204,2.54134c-0.15649,0.78901 -0.38196,1.60051 -0.83331,2.5c-0.42303,0.8431 -0.84924,1.66024 -1.02533,2.508c-0.16827,0.8103 -0.70532,1.56098 -1.17468,2.30933c-0.42407,0.67613 -0.86884,1.52176 -1.5,2.2115c-0.57281,0.62597 -1.43323,1.09254 -2.09998,1.3885c-0.85779,0.38074 -1.5481,0.93765 -2.22534,1.49067c-0.64331,0.52531 -1.28503,1.04338 -2.17468,1.34c-0.85779,0.286 -1.69434,0.14668 -2.62531,0.51067c-0.69788,0.27286 -1.68805,0.5039 -2.47467,0.92733c-0.84314,0.45383 -1.55975,0.76908 -2.10004,1.50867c-0.45325,0.6204 -1.00055,1.50214 -1.59998,2.13867c-0.56458,0.5995 -0.96216,1.41074 -1.00018,2.32117c-0.03418,0.81757 -0.57397,1.60306 -1.02515,2.2895c-0.48602,0.73949 -0.66229,1.61498 -1.30798,2.38934c-0.42426,0.50876 -1.1955,0.78394 -2.04138,1.4c-0.80316,0.58495 -1.45776,1.0069 -2.22662,1.4c-0.79376,0.40582 -1.54956,0.80167 -2.51337,1.116c-0.87476,0.28529 -1.43762,0.74705 -2.1853,1.3795c-0.75574,0.63929 -1.5,0.70383 -2.40002,0.7045c-0.89996,0.00066 -1.79999,0 -2.70001,0c-0.89996,0 -1.79999,0 -2.70013,0l-0.78516,0l-0.92932,-0.01067" id="svg_16" stroke-width="2" stroke="#000" fill="none"/>
  <path t="37302,37486,37497,37535,37535,37560,37573,37589,37604,37606,37618,37631,37642,37643,37668,37680,37692,37729,37729,37754,37805,37817,37817,37831,37844,37844,37865,37903,37951,37988,38001,38049,38085,38110,38127,38127,38147,38171,38196,38197,38210,38227,38227,38233,38245,38245,38258,38258,38258,38258,38275,38275,38275,38294,38294,38395,38417,38429,38429,38443,38443,38458,38458,38458,38458,38466,38466,38466,38478,38478,38478,38492,38492,38492,38508,38508,38515,38540,38540,38564,38565,38575,38575,38593,38613,38625,38642,38663,38687,38700,38712,38724,38724,38742,38748,38760,38776,38798,38834,38872,38899,38946,38959,38960,39007,39032,39046,39060,39092,39092,39117,39141,39142" d="m513.5,41.9c-0.87848,-1.2215 -1,-2.1 -1,-3c0,-0.8 0,-1.7 0,-2.6c0,-0.9 0,-1.8 0,-2.7c0,-0.9 0,-1.8 0,-2.7c0,-0.8 -0.41266,-1.82343 0.05719,-2.64283c0.39441,-0.68782 1.2655,-1.25536 1.96362,-1.33633c0.95135,-0.11035 1.66406,-0.48046 2.422,-0.89933c0.6571,-0.36315 1.72528,0.05688 2.55719,-0.28817c0.78436,-0.32533 1.49982,-0.82292 2.40002,-0.83333c0.8999,-0.01041 1.81274,-0.15067 2.69983,0.00017c0.85107,0.14471 0.90015,1.19983 0.90015,2.09983c0,0.9 0,1.7 0,2.6c0,0.82083 0.11017,1.79854 -0.05719,2.64733c-0.18188,0.92239 -0.9751,1.39978 -1.7428,1.73667c-0.76208,0.33444 -1.5213,0.7969 -2.44666,0.94133c-0.91968,0.14355 -1.70837,0.3357 -2.56403,0.54933c-0.58923,0.14711 -1.78668,0.36194 -2.66852,0.4045c-0.83472,0.04029 -1.83417,0.02142 -2.67413,0.02083c-0.96002,-0.00067 -1.7977,-0.21515 -1.84668,-1.16667c-0.04285,-0.83249 0.08826,-1.7182 0.5625,-2.35416c0.66949,-0.89782 1.19873,-1.25559 1.95831,-1.97917c0.52545,-0.50056 1.29846,-1.18624 2.02203,-1.69017c0.63464,-0.442 1.46576,-0.96604 2.05713,-1.4625c0.60913,-0.51138 1.58759,-1.34595 2.20001,-1.71133c0.58868,-0.35122 1.64209,-0.76336 2.328,-1.236c0.76166,-0.52484 1.18652,-1.42688 1.89282,-1.9c0.7926,-0.53096 1.47876,-0.97961 2.07904,-1.6c0.56268,-0.58154 0.74738,-1.62222 1.33612,-2.28933c0.61328,-0.69494 1.24066,-1.17952 2,-1.57467c0.76709,-0.39919 1.76404,-0.036 2.664,-0.036c0.90002,0 1.70001,0 2.60004,0c0.89996,0 1.79999,0 2.70001,0c0.89996,0 1.79999,0 2.69995,0c0.90002,0 1.81628,0.15429 1.90002,1c0.07886,0.7961 0.1181,1.83586 -0.52081,2.47917c-0.63782,0.64222 -1.36517,1.12372 -2.18903,1.46817c-0.75562,0.31591 -1.66486,0.478 -2.45685,0.886l-0.83331,0.14583" id="svg_17" stroke-width="2" stroke="#000" fill="none"/>
  <path t="40669,40851,40852,40882,40882,40911,40937,40973,40973,40996,41008,41032,41058,41107,41107,41183,41198,41218,41254,41317,41329,41343,41360,41360,41377,41377,41453,41537,41549,41549,41561,41562,41575,41594,41594,41610,41611,41626,41648,41672,41672,41687,41703,41703,41717,41725,41725,41733,41733,41745,41758,41783,41857,41881,41881,41900,41941,41958,41958,41967,41968,41979,41991,42015,42028,42041,42064,42115,42165,42180,42200,42200,42213,42227,42243,42243,42261,42286,42323,42336,42336,42362,42362,42397,42397,42408,42428,42434,42457,42458,42483,42519,42520,42543,42559,42574,42575,42581,42581,42594,42594,42608,42608,42608,42618,42618,42630,42631,42655,42667,42692,42692,42730,42951,42986,42999" d="m536.5,69.9c1.836,0 2.60132,0 3.59552,0c0.91913,0 1.89703,0.14618 2.8045,-0.01067c0.8335,-0.14406 1.49084,-0.7126 2.07916,-1.48933c0.55829,-0.73707 0.52081,-1.7 0.52081,-2.6c0,-0.9 0.41718,-1.84384 -0.05719,-2.54284c-0.4632,-0.68251 -1.76624,-0.76986 -2.58563,-0.3c-0.68781,0.39443 -1.2124,0.95301 -1.95715,1.5535c-0.65472,0.52792 -1.27216,1.15743 -2.22534,1.36401c-0.68341,0.14811 -2.16901,0.41387 -2.10852,1.32083c0.05316,0.79691 1.34283,0.70225 2.33252,0.7045c0.76532,0.00174 1.716,0 2.60132,0c0.75714,0 1.65265,0 2.51599,0c0.9632,0 1.89465,0 2.80536,0c0.85333,0 1.79333,0 2.67865,0c0.79999,0 1.67206,0.00952 2.54248,-0.00017c0.93689,-0.01042 1.91199,-0.22352 2.50116,-0.64716c0.71002,-0.51054 1.5387,-0.96481 2.35638,-1.32734c0.78339,-0.34731 1.36243,-1.05162 1.65265,-1.72533c0.36261,-0.84179 0.9187,-1.60308 0.94733,-2.46667c0.02759,-0.83287 0,-1.81183 0,-2.632c0,-0.90133 0,-1.80133 0,-2.70133c0,-0.9 0.00012,-1.8 0,-2.7c-0.00012,-0.89983 -0.28198,-1.75727 -1.09998,-1.8c-0.8988,-0.04695 -1.737,-0.20448 -2.60004,0.05717c-0.88489,0.26826 -1.60382,1.06646 -2.01465,1.74283c-0.47144,0.77614 -1.14001,1.24796 -1.284,2.08667c-0.16058,0.93565 -0.00134,1.71467 -0.00134,2.71333c0,0.8 -0.00055,1.79867 0,2.564c0.00067,0.94933 0.35571,1.8074 1.20001,1.836c0.89966,0.03048 1.6853,0 2.62531,0c1.008,0 1.76404,0.00539 2.67468,0c0.90009,-0.00533 1.83942,-0.18993 2.21466,-0.88667c0.46808,-0.86914 0.38,-1.75666 0.85468,-2.51334c0.53656,-0.85533 1.2868,-1.58502 1.67352,-2.2c0.36884,-0.58655 0.83569,-1.61121 1.25714,-2.37917c0.47614,-0.86768 1.15057,-1.42115 1.41467,-2.22083c0.28351,-0.85843 0.08533,-1.8 0.08533,-2.6c0,-0.9 -0.05719,-1.84283 -0.83331,-2.03333l-0.45068,0.74933" id="svg_18" stroke-width="2" stroke="#000" fill="none"/>
  <path t="43948,44081,44082,44095,44095,44111,44118,44118,44129,44141,44141,44158,44158,44166,44166,44166,44178,44178,44191,44191,44191,44207,44207,44208,44214,44214,44214,44226,44226,44242,44242,44242,44258,44258,44258,44264,44264,44264,44275,44275,44275,44275,44293,44293,44293,44293,44308,44308,44313,44313,44313,44325,44325,44350,44350,44350,44374,44374" d="m515.5,60.9c0,-1.836 -0.04132,-2.60238 0.00452,-3.5955c0.04254,-0.92173 0.41278,-1.7858 1.09546,-2.5045c0.487,-0.51268 1.19293,-1.20717 1.90002,-1.9c0.51569,-0.50528 1.29504,-1.15328 2.02081,-1.47917c0.94989,-0.42651 1.78644,-0.45141 2.57916,-0.60483c0.80994,-0.15676 1.60046,-0.52579 2.60022,-1.016c0.61072,-0.29947 1.48077,-0.71105 2.22113,-1c0.79944,-0.312 1.63593,-0.57533 2.65698,-1c0.68207,-0.28369 1.50073,-0.61777 2.29639,-1.32133c0.56116,-0.49621 1.10815,-1.34977 1.64612,-2.0995c0.3819,-0.53227 0.97107,-1.31939 1.57471,-2.022c0.56104,-0.65299 1.25647,-1.44479 1.65179,-2.06166c0.39709,-0.61965 0.91241,-1.56652 1.40985,-2.35266c0.35864,-0.56685 0.74286,-1.15029 1.54285,-2.3425c0.39777,-0.59281 0.75391,-1.19682 1.39996,-1.92966c0.74817,-0.84871 1.44733,-1.1729 2.23334,-1.93733c0.4577,-0.44511 0.83649,-1.26941 1.65204,-1.948c0.66632,-0.55444 1.51465,-0.88533 2.31464,-1.27467l0.60004,-0.2535l0.99866,-0.27183l0.94415,-0.08083" id="svg_19" stroke-width="2" stroke="#000" fill="none"/>
  <path t="49096,49254,49274,49274,49295,49295,49311,49311,49311,49325,49325,49342,49362,49375,49392,49392,49399,49410,49410,49410,49427,49427,49442,49442,49448,49448,49448,49460,49460,49475,49476,49476,49484,49496,49496,49522,49522,49535,49558,49576,49576,49583,49583,49583,49594,49594,49595,49609,49609,49609,49626,49626,49626,49632,49632,49632,49644,49644,49659,49659,49669,49669,49670,49680,49680,49692,49693,49693,49721,49721,49721,49735,49735,49735,49735,49735,49744,49744,49758,49767,49767,49779,49791,49791,49809,49817,49827,49842,49842,49858,49878,49892,49892,49909,49909,49914,49926,49926,49926,49943,49943,49943,49951,49951,49963,49963,49976,49976,49993,49993,50000,50025,50025,50042,50043,50050,50074,50074,50093,50093,50099,50111,50112,50127,50127,50127,50145,50145,50148,50149,50160,50160,50160,50177,50177,50177,50185,50185,50185,50196,50196,50196,50210,50210,50226,50234,50246,50246,50259,50275,50276,50283,50295,50295,50310,50310,50326,50326,50332,50356,50394,50410,50410,50425,50425,50431,50431,50442,50442,50458,50459,50459,50467,50468,50468,50468,50479,50479,50492,50492,50492,50510,50510,50510,50517,50517,50517,50528,50528,50545,50545,50545,50569,50569,50580,50581,50581,50581,50593,50593,50593,50608,50614,50614,50626,50627" d="m312.5,214.89999c-0.64667,-1.564 -1.48129,-1.9529 -2.34732,-1.9955c-0.90793,-0.04468 -1.70734,-0.0045 -2.70468,-0.0045c-0.62399,0 -1.59,0 -2.6835,0c-0.83249,0 -1.7645,-0.00224 -2.66449,0c-0.89999,0.00226 -1.72409,0.19304 -2.30002,0.70451c-0.7435,0.66029 -1.46252,1.30235 -2.12534,1.6955c-0.68643,0.40715 -1.55685,1.00272 -2.05865,1.48534c-0.78513,0.75508 -1.29849,1.32463 -2.116,1.948c-0.57672,0.43976 -1.42542,0.84117 -2.11465,1.65199c-0.41956,0.49356 -0.8558,1.53056 -1.28534,2.29333c-0.37476,0.66551 -1.19699,1.11946 -1.80002,1.79066c-0.49088,0.54637 -1.09781,1.48076 -1.51465,2.22934c-0.41812,0.75089 -0.82913,1.55919 -1.11868,2.368c-0.29333,0.81935 -0.32443,1.83621 -0.59198,2.644c-0.2149,0.6489 -0.48041,1.60825 -0.53867,2.41467c-0.05927,0.82047 -0.03601,1.85333 -0.03601,2.77466c0,0.68401 0.01944,1.6861 -0.02084,2.52084c-0.04254,0.88182 -0.25735,2.07925 -0.40448,2.6685c-0.21362,0.85564 -0.55563,1.88565 -0.53302,2.769c0.02264,0.88359 0.56528,1.52899 0.83719,2.58434c0.17862,0.69331 0.01147,1.5811 0.69183,2.48666c0.51151,0.68082 1.42932,0.97066 2.22931,1.37067c0.60001,0.3 1.60068,0.8083 2.26251,1.12083c0.78958,0.37286 1.7995,0.80481 2.591,1.12733c0.82376,0.33566 1.22913,0.50516 2.00916,0.7825c1.18826,0.42249 2.18271,0.57936 2.83734,1.09016c0.76822,0.59943 1.38748,1.03583 2.20001,1.58899c0.69879,0.47571 1.04416,1.40228 1.79999,1.86935c0.74924,0.46298 1.22336,1.18631 1.66666,2.02081c0.33673,0.63391 1.34775,0.84717 2.23334,1.01068c0.83301,0.15381 1.45969,0.83298 2.25269,1.28482c0.6748,0.38449 1.59802,0.6759 2.68066,0.7045c0.67624,0.01785 1.452,0 2.5,0c0.93066,0 1.56216,0 2.56665,0c0.80002,0 1.80002,0 2.60001,0c1,0 2.01413,0.11578 2.83334,-0.16666c0.81213,-0.28 1.67126,-0.68893 2.26666,-1.27618c0.6373,-0.6286 0.89706,-1.64459 1.5,-2.11047c0.79504,-0.61435 1.68848,-0.82559 2.28534,-1.24802c0.74387,-0.52649 1.45358,-1.08759 2.11465,-1.67783c0.63895,-0.57047 1.45718,-0.53827 2.39999,-1.08884c0.63846,-0.37283 1.15326,-0.98419 2.20001,-1.32216c0.776,-0.25055 1.82996,-0.3362 2.60001,-0.7565c0.83752,-0.45712 1.38541,-1.03 2.03598,-1.528c0.90536,-0.69302 1.72275,-1.04404 2.22235,-1.32535c1.07764,-0.6068 1.39935,-1.35672 1.70831,-2.10132c0.3428,-0.82614 0.87378,-1.383 1.35068,-1.99867c0.75272,-0.97176 1.17062,-1.52324 1.39734,-2.51466c0.22046,-0.96414 0.08533,-1.88535 0.08533,-2.68533c0,-0.836 0,-1.85268 0,-2.54733c0,-1.02734 0,-1.974 0,-2.65268c0,-1.116 0,-1.88399 0,-2.82533c0,-0.69066 0.00534,-1.76401 0,-2.67467c-0.00534,-0.91071 -0.15323,-1.85672 -0.52084,-2.47916c-0.49329,-0.83521 -1.3916,-1.03799 -2.13184,-1.38251c-0.72672,-0.33823 -1.46735,-1.12085 -1.97266,-1.849c-0.54568,-0.78633 -1.05133,-1.37476 -1.54932,-2.02533c-0.69302,-0.90538 -0.93216,-1.45117 -1.32535,-2.24316c-0.37527,-0.75589 -0.966,-1.57634 -1.71066,-2.1355c-0.77023,-0.57835 -1.4119,-1.01602 -1.95334,-1.59601c-0.70624,-0.7565 -1.13803,-1.65146 -1.64584,-2.075c-0.84744,-0.70677 -1.71518,-0.66519 -2.50748,-0.797c-1.00394,-0.16701 -1.87302,-0.52589 -2.68268,-0.91734c-0.80099,-0.38725 -1.3797,-0.73357 -2.40268,-0.91466c-0.85916,-0.1521 -1.93069,-0.08002 -2.56531,-0.08667c-1.03214,-0.01083 -1.74036,0.02751 -2.98886,-0.22c-0.77234,-0.15311 -1.36917,-0.45201 -2.41782,-0.75333c-0.94022,-0.27016 -1.62534,-0.52534 -2.45868,-0.85867l-0.86215,-0.16217" id="svg_20" stroke-width="2" stroke="#000" fill="none"/>
  <path t="51660,51869,51869,51880,51897,51897,51916,51916,51920,51920,51920,51928,51928,51928,51928,51928,51942,51942,51942,51942,51958,51958,51958,51958,51966,51966,51966,51978,51978,51991,51991,52008,52008,52015,52015,52039,52075,52101,52101,52125,52125,52141,52151,52151,52174,52198,52235,52385,52495,52568,52585,52585,52603,52616,52666,52741,52764,52789,52789,52814,52825,52826,52826,52844,52844,52851,52851,52861,52862,52862,52875,52876,52892,52892,52899,52899,52911,52911,52923,52923,52941,52960,52960,52960,52974,52974,52990,52998,53009,53024,53046,53046,53070,53070,53070,53084,53084,53095,53119,53120,53133,53144,53168,53192,53367" d="m245.5,271.89999c1,1.16669 1.58769,1.60031 2.39999,1.97467c0.89189,0.41107 1.47711,0.83951 2.25717,1.32983c0.73973,0.46497 1.55637,1.00201 2.1535,1.54218c0.66173,0.59857 1.356,1.32001 1.87466,1.83865c0.55066,0.55066 1.12537,1.12531 1.716,1.716c0.89856,0.89865 1.49942,1.49362 2.07782,2.09866c0.56888,0.59509 1.3649,1.49155 1.83417,2.09866c0.45044,0.58276 0.85904,1.15347 1.52002,2.23468c0.42642,0.69754 0.70023,1.4071 1.48798,2.14517c0.61545,0.57663 1.57117,0.95566 2.15784,1.54233c0.58667,0.5867 0.75284,1.4415 1.52084,2.14584c0.60944,0.5589 1.40677,1.00946 1.94733,1.69049c0.49231,0.62024 0.77875,1.39987 1.70535,1.93832c0.67151,0.39023 1.64233,0.52359 2.44733,0.92584c0.65823,0.32892 1.58051,0.43063 2.37915,0.7995c0.77109,0.35614 1.47134,1.02142 1.52084,1.97916c0.04385,0.84872 -0.97174,1.2117 -1.60001,1.57468c-0.84564,0.48856 -1.25098,1.15686 -1.836,1.81467c-0.61615,0.69284 -1.66528,0.65845 -2.564,0.61066c-0.80338,-0.04272 -1.5209,-0.5416 -2.16666,-1.16666c-0.6694,-0.64795 -1.18964,-1.21753 -2.03317,-1.59067c-0.74646,-0.3302 -1.76962,-0.69412 -2.30017,-1.24268c-0.65543,-0.67767 -1.36475,-0.86639 -2.10132,-1.168c-1.04779,-0.42905 -1.55997,-1.02011 -2.37735,-1.81049c-0.51962,-0.50244 -1.34424,-1.11887 -2.02133,-1.52151c-0.8353,-0.49673 -1.48428,-0.99472 -2.10001,-1.60001c-0.60509,-0.59485 -1.35594,-1.26944 -1.89999,-2.06665c-0.43648,-0.63959 -0.75462,-1.42612 -0.94733,-2.42435c-0.13318,-0.68985 -0.85254,-1.39676 -1.04817,-2.11349c-0.23604,-0.86478 -0.43134,-1.70432 -1.10468,-2.39566c-0.52872,-0.54285 -1.22116,-1.22116 -1.72516,-1.72516c-0.69067,-0.69067 -1.4175,-1.41751 -1.97333,-1.97333c-0.70135,-0.70135 -1.2195,-1.40836 -1.90134,-1.84418c-0.82399,-0.52667 -1.7,-0.7825 -2.40001,-1.23566l-0.89999,-0.12152l-0.87833,-0.22131" id="svg_21" stroke-width="2" stroke="#000" fill="none"/>
  <path t="56233,56416,56436,56436,56443,56443,56443,56455,56464,56475,56475,56491,56511,56524,56541,56548,56573,56573,56594,56598,56621,56621,56647,56647,56647,56658,56658,56674,56674,56674,56684,56684,56684,56695,56695,56695,56709,56709,56724,56733,56745,56769,56769,56781,56781,56793,56807,56807,56824,56824,56829,56841,56842,56842,56858,56858,56858,56867,56867,56867,56879,56879,56879,56890,56890,56908,56908,56908,56917,56928,56941,56941,56958,56958,56966,56966,56977,56978,56991,56991,57008,57008,57014,57015,57015,57026,57027,57027,57027,57040,57040,57058,57058,57058,57063,57063,57063,57075,57090,57090,57108,57108,57112,57112,57124,57124,57141,57142,57142,57149,57150,57150,57161,57162,57162,57173,57173,57174,57190,57191,57198" d="m405.5,125.9c-1.63599,-0.61066 -2.31223,-1.11669 -3.02084,-1.5c-0.96701,-0.52308 -1.66501,-0.66754 -2.40848,-1.3c-0.67569,-0.57479 -1.45679,-0.76414 -2.23734,-1.36666c-0.5665,-0.43729 -0.54306,-1.39241 -1.21201,-2.05467c-0.61615,-0.61 -1.01508,-1.25266 -1.40533,-1.97866c-0.45947,-0.85479 -0.80777,-1.59546 -1.216,-2.3c-0.46063,-0.79497 -0.92224,-1.63294 -1.54166,-2c-0.92993,-0.55106 -1.78372,-0.85884 -2.30118,-1.25716c-0.84094,-0.64733 -1.22809,-1.52341 -1.99051,-1.9095c-0.86926,-0.44019 -1.48785,-0.31971 -2.66666,-0.33334c-0.89545,-0.01035 -1.776,0.0397 -2.83334,-0.16666c-0.71674,-0.13989 -1.52524,-0.50741 -2.28131,-1.03201c-0.70398,-0.48844 -1.48535,-0.79066 -2.38535,-0.80133c-0.89999,-0.01067 -1.78708,-0.38096 -2.38535,-0.80133c-0.74677,-0.52471 -1.46854,-0.82204 -2.47867,-1.17334c-0.84308,-0.2932 -1.50836,-0.79413 -2.46133,-1c-0.68347,-0.14765 -1.52667,-0.52157 -2.508,-1.02533c-0.65674,-0.33713 -1.43991,-0.61639 -2.5,-0.83334c-0.70767,-0.14482 -1.61942,-0.15194 -2.58798,-0.167c-0.8042,-0.0125 -1.6702,0.00146 -2.65717,-0.44233c-0.72757,-0.32716 -1.26544,-0.95637 -2.12152,-1.3145c-0.7659,-0.32041 -1.80875,-0.38419 -2.58932,-0.66817c-0.73434,-0.26714 -1.76022,-0.44379 -2.51065,-0.93184c-0.79672,-0.51816 -1.30042,-1.30931 -2.18402,-1.55883c-0.84116,-0.23753 -1.7211,-0.52354 -2.39999,-0.8c-0.91113,-0.37103 -1.71732,-0.28333 -2.716,-0.284c-0.79999,-0.00053 -1.80133,0 -2.63599,0c-0.93066,0 -1.72116,0 -2.57468,0c-1.18933,0 -1.78799,0 -2.66849,0c-0.83551,0 -1.83685,0 -2.74619,0c-0.94131,0 -1.72733,0 -2.54932,0c-1.05869,0 -1.9787,-0.00803 -2.73868,0c-0.98682,0.01042 -1.83261,0.17146 -2.66132,0.61066c-0.83151,0.44069 -1.37759,1.02973 -2.02667,1.58801c-0.6496,0.55872 -1.64807,0.757 -2.26035,0.854c-1.22894,0.1947 -1.77072,0.36268 -2.58566,0.65183c-1.04099,0.36935 -1.7218,0.70827 -2.63666,1.0955c-0.73306,0.31029 -1.5444,0.59175 -2.36334,0.89999c-1.03513,0.38962 -1.71667,0.7 -2.55133,1.10001l-0.80002,0.39867l-0.76532,0.36533l-0.95065,0.352" id="svg_22" stroke-width="2" stroke="#000" fill="none"/>
  <path t="60528,60699,60700,60712,60725,60725,60725,60739,60750,60750,60750,60761,60761,60773,60789,60798,60810,60823,60823,60839,60847,60858,60858,60874,60874,60889,60889,60896,60908,60924,60934,60934,60945,60957,60972,60972,60983,60983,60994,60994,61006,61007,61023,61043,61043,61043,61056,61057,61073,61073,61081,61105,61105,61129,61141,61158,61167,61167,61178,61178,61191,61215,61240,61241,61256,61265,61289,61314,61326,61339,61351,61362,61400,61400,61415,61431,61449,61513" d="m308.5,105.9c-1.82535,0.436 -2.59799,0.701 -3.36401,1.41067c-0.72473,0.67141 -1.00983,1.43048 -1.43597,2.10533c-0.55606,0.88059 -1.05557,1.64635 -1.17468,2.32c-0.13461,0.7613 -0.23077,1.85511 -0.82666,2.59334c-0.55655,0.68947 -0.8284,1.41029 -1.36533,2.23733c-0.45377,0.69897 -0.8696,1.47023 -1.53784,1.97617c-0.69522,0.52637 -1.58994,0.72044 -2.2955,1.35717c-0.63107,0.5695 -1.49127,0.87723 -2.17465,1.02533c-0.95316,0.20657 -1.5563,0.85394 -2.32535,1.45383c-0.65005,0.50706 -1.67184,0.29781 -2.5,0.6875c-0.75839,0.35686 -0.87604,1.40116 -1.35718,2.13334c-0.52191,0.79424 -1.3093,1.30041 -1.55881,2.184c-0.19003,0.67294 -0.46478,1.5851 -0.80002,2.39999c-0.3714,0.90283 -0.3696,1.63135 -0.784,2.63684c-0.33463,0.81197 -0.46637,1.48352 -0.49551,2.47383c-0.03046,1.03557 0.00238,1.7773 -0.36166,2.658c-0.29666,0.71774 -1.06332,1.51538 -1.47617,2.34732c-0.32608,0.6571 -0.85223,1.42255 -1.1095,2.3c-0.25412,0.86674 -0.16333,1.89528 -0.49316,2.51466c-0.48029,0.90186 -1.41757,1.22766 -1.56265,1.98668c-0.17944,0.93883 0.00516,1.85136 -0.00134,2.54599c-0.01044,1.11116 -0.77481,1.58928 -0.99551,2.35718c-0.24738,0.86066 0.04089,1.85628 -0.61514,2.32083c-0.71844,0.50874 -1.15396,1.23901 -1.556,1.97466c-0.40198,0.73549 -1.39734,1.02534 -1.88602,1.64734l-0.74866,0.43668l-0.69867,0.41599" id="svg_23" stroke-width="2" stroke="#000" fill="none"/>
  <path t="62459,62617,62618,62630,62630,62630,62648,62648,62664,62665,62670,62670,62689,62714,62714,62726,62764,62775,62791,62791,62801,62801,62812,62812,62824,62824,62842,62861,62861,62873,62891,62898,62898,62909,62923,62941,62947,62947,62960,62973,62990,62990,62997,62997,63008,63008,63022,63033,63034,63045,63057,63073,63082,63095,63119,63119,63143,63156,63156,63181,63181,63187,63200,63200,63209,63209,63209,63224,63224,63230,63231,63242,63256,63279,63279,63303,63304,63315,63316,63328,63328,63328,63339,63339,63339,63340,63357,63357,63357,63357,63357,63364,63364,63364,63365,63365,63365,63376,63376,63377,63377,63389,63389,63390,63390,63390,63406,63406,63414,63414" d="m267.5,166.89999c-1.836,0.44667 -2.43515,0.72121 -3.39999,1.48401c-0.62079,0.4908 -1.18924,1.04659 -1.99734,1.632c-0.72128,0.52252 -1.28476,1.23802 -1.60266,1.86316c-0.46445,0.91336 -1.46222,0.99716 -1.89017,1.72617c-0.50641,0.86264 -0.91116,1.29333 -1.80984,1.29466c-0.89999,0.00133 -1.82082,0 -2.78532,0c-0.72533,0 -1.71466,0 -2.51466,0c-1,0 -1.78934,0 -2.83333,0c-0.75601,0 -1.6875,0 -2.65067,0c-0.69067,0 -1.76242,0.07822 -2.61601,-0.00015c-0.91144,-0.08368 -1.39293,-0.79305 -1.89999,-1.479c-0.487,-0.65883 -1.3923,-0.96503 -2.10001,-1.62067c-0.59363,-0.54996 -1.39981,-0.88976 -2.31065,-0.90018c-0.91078,-0.01042 -1.80009,0.01305 -2.78917,-0.00015c-0.77954,-0.01041 -1.62311,-0.18639 -2.38951,-0.57451c-0.81087,-0.41064 -1.75615,-0.26018 -2.54933,-0.46133c-0.8624,-0.2187 -1.47195,-0.95866 -2.36133,-0.964c-0.89998,-0.0054 -1.8,0 -2.70134,0c-0.68399,0 -1.62399,0 -2.63199,0c-0.79201,0 -1.81934,0 -2.51401,0c-1.02733,0 -1.97417,0 -2.67349,0c-0.97917,0 -1.77917,0 -2.57918,0c-1,0 -1.79999,0 -2.79866,0c-0.94417,0 -1.84416,0 -2.80133,0c-0.90018,0 -1.68533,0 -2.636,0c-0.76534,0 -1.77074,-0.05896 -2.564,0.05717c-1.01775,0.149 -1.6452,0.47714 -2.37067,0.8295c-0.87669,0.42581 -1.54016,0.77345 -2.27101,1.11333c-0.76375,0.35516 -1.95663,0.83813 -2.75966,1.11867c-0.80768,0.28217 -1.64063,0.56461 -2.05583,0.74834c-1.33006,0.58858 -1.77545,0.87964 -2.68651,1.4955c-0.46645,0.31531 -1.36322,0.9922 -1.78932,1.33667c-1.17888,0.953 -1.81023,1.5341 -2.38034,2.02884c-0.52353,0.45432 -1.61459,1.28067 -2.25333,1.672c-0.66782,0.40915 -1.37004,0.7652 -1.98001,1.2c-1.04044,0.74164 -1.49083,1.37917 -2.05333,2.23334l-0.47917,0.64583" id="svg_24" stroke-width="2" stroke="#000" fill="none"/>
  <path t="64487,64643,64662,64662,64662,64678,64678,64678,64678,64682,64682,64682,64682,64697,64697,64697,64707,64707,64716,64716,64728,64728,64740,64740,64756,64765,64765,64777,64777,64777,64791,64791,64805,64826,64826,64826,64840,64840,64857,64858,64863,64863,64876,64876,64876,64889,64890,64890,64906,64906,64912,64912,64912,64925,64925,64925,64940,64940,64940,64961,64961,64962,64962,64972,64973,64973,64973,64976,64976,64976,64995,64995,64995,65015,65016,65016,65035,65035,65054,65054,65073,65073,65091,65092,65110,65110,65110,65125,65126,65126,65153,65154,65154,65174,65174,65174,65175,65175,65175,65175,65196,65196,65196,65196,65196,65196,65209,65209,65209,65222,65233,65243,65244,65257,65257,65273,65273,65281,65281,65282,65282,65282,65294,65294,65294,65294,65295,65306,65306,65306,65306,65323,65323,65323,65330,65330,65342,65342,65357,65357,65373,65379,65390,65391" d="m179.5,184.89999c-1.672,0.03601 -2.54565,0.21268 -3.272,0.436c-0.84019,0.25833 -2.02737,0.66643 -2.63249,0.864c-0.9303,0.30374 -1.57964,0.50418 -2.61667,0.80017c-0.72618,0.20726 -1.47885,0.36533 -2.50951,0.78517c-0.94801,0.38618 -1.70587,0.91812 -2.30316,1.46199c-0.66718,0.60751 -1.26997,1.27272 -1.98734,1.75267c-0.64,0.42821 -1.50726,1.10216 -1.76151,1.78534c-0.35025,0.94116 -0.71861,1.63069 -1.21283,2.3575c-0.58311,0.85753 -0.71234,1.58363 -0.99117,2.52516c-0.22011,0.74324 -0.51181,1.53827 -1.196,2.26134c-0.58809,0.62151 -1.33282,1.32027 -1.85066,2.13733c-0.3291,0.51927 -1.01738,1.18179 -1.64517,1.81183c-0.60974,0.61194 -1.2934,1.36211 -1.90683,1.8215c-0.7361,0.55125 -1.51672,0.90491 -2.31483,1.3c-0.81819,0.40503 -1.48495,0.70055 -2.4825,1.10133c-0.79633,0.31995 -1.62077,0.59746 -2.34801,1.28267c-0.65829,0.62025 -1.11148,1.38113 -1.80533,1.89067c-0.55025,0.40408 -1.58945,1.08528 -2.14317,1.66699c-0.38304,0.4024 -1.01636,1.37186 -1.39549,2.19434c-0.26245,0.56938 -0.77988,1.7706 -1.11067,2.364c-0.33839,0.60701 -0.91899,1.50011 -1.51466,2.39999c-0.39723,0.60008 -0.83009,1.17293 -1.28566,2.10001c-0.43103,0.87714 -0.60501,1.79543 -0.729,2.664c-0.15263,1.06924 -0.31778,1.78909 -0.59601,2.42534c-0.44987,1.02876 -0.84265,1.58752 -1.10399,2.41066c-0.31068,0.97858 -0.25258,1.82385 -0.57068,2.79868c-0.25798,0.79057 -0.89317,1.53021 -1.27866,2.22665c-0.45001,0.81302 -0.38579,1.60336 -0.6575,2.57484c-0.23531,0.84126 -0.6037,1.476 -0.97717,2.48383c-0.29984,0.8091 -0.57254,1.62239 -0.716,2.63733c-0.10703,0.7572 -0.08307,1.36 -0.08533,2.51201c-0.00194,0.992 0,1.548 0,2.75c0,0.634 0,1.282 0,1.938c0,1.9565 0,2.588 0,3.20349c0,1.17101 0,1.7205 0,2.7325c0,1.2565 0,1.90952 0,2.664c0,1.12149 0,1.97867 0,2.87866c0,0.75717 0.00211,1.65717 0,2.60135c-0.00226,1.01215 -0.00919,1.7099 -0.16667,2.89865c-0.1003,0.75711 -0.26016,1.59711 -0.33333,2.04169c-0.15042,0.91415 -0.34494,2.29065 -0.41467,3.17297c-0.03381,0.4278 -0.07114,1.26443 -0.08083,2.08084c-0.0143,1.20441 -0.0045,2.00183 -0.0045,2.78317c0,1.10699 0,2.08801 0,2.90701c0,0.90533 0,1.91431 0,2.71432c0,0.99982 0,1.77917 0,2.7785c0,0.82016 0,1.7215 0,2.54233l0,0.96451l0,0.72531" id="svg_25" stroke-width="2" stroke="#000" fill="none"/>
  <path t="67816,67974,67985,67999,68017,68022,68033,68045,68059,68075,68075,68083,68083,68083,68094,68108,68108,68143,68181,68192,68217,68266,68278,68302,68328" d="m417.5,208.89999c-2.58932,-0.036 -3.38171,-0.45638 -4.19867,-0.91599c-0.70264,-0.39531 -1.23679,-1.06601 -2.10132,-1.08401c-0.89984,-0.01874 -1.84482,0.15945 -2.70001,-0.16666c-0.73456,-0.28011 -1.54156,-0.72043 -2.25067,-0.808c-0.97995,-0.12102 -1.87134,-0.50754 -2.74933,-0.85867c-0.66718,-0.26682 -1.60001,-0.16667 -2.5,-0.16667c-0.89999,0 -1.79999,0 -2.70001,0l-0.89981,-0.00015l-0.81616,-0.28384l-0.44119,-0.65883" id="svg_26" stroke-width="2" stroke="#000" fill="none"/>
  <path t="69609,69803,69804,69817,69817,69817,69830,69831,69843,69858,69863,69888,69900,69901,69913,69924,69941,69941,69950,69950,69950,69961,69961,69961,69961,69972,69972,69973,69973,69989,69989,69989,69989,69999,69999,70010,70010,70023,70023,70040,70040,70047,70059,70059,70074,70074,70089,70108,70108,70108,70123,70123,70158,70283,70307,70332,70345,70358,70358,70358,70373,70373,70378,70378,70403,70403,70428,70428,70428,70452,70477,70477,70488,70488,70507,70507,70513,70513,70514,70525,70538,70539,70556,70556,70556,70563,70563,70574,70574,70589,70589,70612,70623,70639,70649,70649,70661,70661,70672,70673,70689,70689,70689,70689,70699,70699,70699,70710,70710,70710,70710,70723,70723,70739,70740,70740,70746,70747,70747,70759,70759,70773,70773,70789,70790,70790,70790,70796,70797,70797,70808,70808,70808,70808,70823,70823,70823,70823,70840,70840,70845,70845,70870,70870" d="m407.5,186.89999c1.06699,-0.94283 2.05634,-0.99774 3.07849,-1c0.68552,-0.00151 1.52017,0 2.517,0c0.91919,0 1.88367,0 2.7045,0c0.90002,0 1.80002,0 2.70001,0c0.79999,0 1.72598,-0.18164 2.60001,0.03601c0.89581,0.22308 1.43909,0.81079 2.45465,1.16266c0.63342,0.21947 1.33362,0.41043 2.77869,0.63467c0.67838,0.10527 1.34137,0.08855 2.26215,0.2765c1.22449,0.24995 1.81424,0.58723 2.40451,0.93182c0.91589,0.53468 1.79889,1.15959 2.39551,1.55383c0.58273,0.38506 1.41125,0.93253 2.41782,1.51917c0.64011,0.37306 1.54831,0.85077 2.16583,1.38533c0.65286,0.56516 1.26434,1.22047 2.00351,1.70001c0.64456,0.41817 1.276,1.21266 1.96017,1.89999c0.49588,0.49818 1.36243,0.94037 2.03632,1.37917c0.79517,0.51776 1.69797,0.66327 2.54169,1.04167c0.58826,0.26382 1.63525,0.68298 2.26483,1.17917c0.74573,0.58774 1.15323,1.35759 1.767,1.94733c0.60867,0.58482 0.93689,1.39417 0.94733,2.35266c0.0087,0.79996 0,1.60001 0,2.60001c0,0.8 0,1.8 0,2.60001c0,1 0,1.79999 0,2.79999c0,0.78934 0,1.51468 0,2.5c0,0.98401 0,1.84734 0,2.75185c0,0.7175 0,1.758 0,2.53349c0,1.048 0.0939,1.98567 -0.08533,2.728c-0.21735,0.90015 -0.81146,1.6449 -0.89383,2.50751c-0.09308,0.97495 -0.01904,1.77916 -0.02084,2.57916c-0.00226,1 0.01196,1.81827 -0.284,2.79868c-0.23657,0.78374 -0.47281,1.62038 -0.80002,2.39999c-0.36365,0.86639 -0.79984,1.64267 -1.19998,2.40134c-0.45273,0.85837 -0.68436,1.55785 -0.72049,2.45717c-0.03009,0.74858 -0.27063,1.74821 -0.60617,2.57883c-0.37787,0.93538 -0.6929,1.71991 -0.88934,2.28484c-0.30554,0.87859 -0.59998,1.77916 -0.89999,2.67917c-0.29999,0.89999 -0.59692,1.80103 -0.89999,2.6955c-0.198,0.58435 -0.47833,1.4281 -0.90002,2.41916c-0.28546,0.67088 -0.78647,1.69238 -1.10449,2.28534c-0.43445,0.81004 -1.00262,1.61229 -1.52084,2.18933c-0.50833,0.56604 -1.25229,1.37042 -1.92731,1.90616c-0.69766,0.55371 -1.4848,0.92642 -2.414,1.3045c-0.78317,0.31866 -1.64343,0.60172 -2.23468,0.80002c-1.19882,0.4021 -1.80048,0.62509 -2.75583,0.84283c-1.00162,0.2283 -1.72614,0.28394 -2.46817,0.32117c-0.74881,0.03757 -2.20801,0.03598 -2.888,0.03598c-0.94501,0 -1.52499,0 -2.80133,0c-0.66449,0 -1.68533,0 -2.47467,0l-1.04401,0l-0.75598,0" id="svg_27" stroke-width="2" stroke="#000" fill="none"/>
 </g>
 <g display="none">
  <title>muse_image</title>
  <image xlink:href="http://farm2.static.flickr.com/1415/787756258_f8a03b81da.jpg" id="muse" height="480" width="640" y="0" x="0"/>
 </g>
 <g display="none">
  <title>bbox</title>
  <rect stroke="#f00" fill="none" stroke-width="3" height="448" width="613.12" y="19.2" x="11.52" id="bbox"/>
 </g>
</svg>
