<svg width="640" height="480" xmlns="http://www.w3.org/2000/svg" xmlns:svg="http://www.w3.org/2000/svg" xmlns:xlink="http://www.w3.org/1999/xlink">
 <!-- Sketchy ANNOTATION
  ImageNet ID: n02676566_6864
  URL: http://farm1.static.flickr.com/229/500187022_a778da7d42.jpg
  Image Width: 500
  Image Height: 375
  BBox X: 77
  BBox Y: 207
  BBox Width: 270
  BBox Height: 101
  Exposure: 2000ms
  Synset Label: guitar
  Synset ID: n03467517
  Worker Tag: man playing guitar
  Sanity Check: 
   Saved
  Comment: 
   {}
  Worker ID: A1VGZ2K3HF66TE
  Assignment ID: 3QFUFYSY9YFD8DRFEF9M48P3VLUF48
  HIT ID: 31JUPBOORN4Y4MQJMRXVRDF7R388LW
  Work Time: 123s
  Worker Score: 0.7857
 END ANNOTATION -->
 <g display="inline">
  <title>Layer 1</title>
  <path t="0,181,181,181,182,182,182,182,182,182,199,200,200,200,201,201,202,202,202,230,230,231,231,231,231,231,231,232,249,250,250,250,251,251,251,251,251,263,263,264,264,264,264,264,265,265,281,281,281,282,282,282,282,282,283,295,295,296,296,296,296,297,297,297,311,312,312,313,313,313,313,314,314,366,367,367,367,368,368,368,368,369,379,380,380,380,381,381,381,381,382,389,390,392,393,393,393,394,394,394,399,400,400,401,401,401,402,402,402,430,431,432,432,432,433,433,433,433,448,448,449,449,449,450,450,450,451,461,462,462,463,465,465,465,467,471,481,482,482,483,483,483,484,484,484,513,514,514,514,515,515,515,516,516,528,528,529,531,532,532,533,533,533,547,548,548,548,549,549,551,553,554,562,563,563,564,564,565,565,565,566,595,596,597,597,597,598,598,599,599,644,644,645,645,658,659,659,663,664,672,673,673,678,678,679,679,679,680,714,715,715,715,716,720,721,723,723,733,734,734,735,735,736,737,737,738,750,751,751,752,752,752,753,764,765,766,767,768,769,770,771,799,800,801,805,806,823,827,827,828,835,836,836,837,838,846,847,848,848,849,849,850,861,862,863,863,878,879,880,882,882,883,918,920,920,921,922,922,947,948,949,950,951,952,953,954,954" d="m143,325c0,-14.16666 -0.00169,-15.39465 0.00267,-16.59067c0.00432,-1.18201 0.01416,-2.3681 0.039,-3.57599c0.02568,-1.24811 0.06416,-2.55438 0.129,-3.936c0.14381,-3.06494 0.26802,-4.77481 0.39867,-6.58801c0.13617,-1.8898 0.28931,-3.82822 0.45149,-5.78848c0.16182,-1.95572 0.32825,-3.87924 0.49651,-5.7435c0.31088,-3.44446 0.45935,-4.97754 0.59866,-6.39069c0.12949,-1.31351 0.25648,-2.54691 0.384,-3.72c0.12323,-1.13358 0.25015,-2.24695 0.384,-3.35999c0.27747,-2.30731 0.43665,-3.53476 0.59999,-4.81067c0.16797,-1.3121 0.34134,-2.64801 0.51601,-3.996c0.17467,-1.34799 0.34853,-2.68384 0.51601,-3.996c0.31958,-2.50371 0.45886,-3.67627 0.60666,-4.79733c0.14268,-1.08226 0.29231,-2.13564 0.48151,-3.16499c0.18823,-1.02412 0.40627,-2.05115 0.7065,-3.07501c0.63084,-2.15135 1.10385,-3.25719 1.59599,-4.39732c0.50426,-1.16818 1.05862,-2.33199 1.63501,-3.48601c0.57039,-1.142 1.15111,-2.24698 1.72499,-3.306c1.05647,-1.94955 1.54312,-2.80786 1.996,-3.59332c0.41783,-0.72469 0.81644,-1.39113 1.21651,-1.99651c0.37784,-0.57175 0.75804,-1.10779 1.17149,-1.59151c0.81801,-0.95702 1.30557,-1.38335 1.804,-1.80666c0.5043,-0.4283 1.03633,-0.83046 1.58701,-1.20601c0.54817,-0.37384 1.10657,-0.72203 1.677,-1.026c1.09981,-0.58607 1.65701,-0.80365 2.20532,-1.00266c0.54657,-0.19836 1.11259,-0.36539 1.701,-0.513c0.61427,-0.1541 1.26968,-0.29037 1.97099,-0.423c1.56859,-0.29663 2.45322,-0.44148 3.39334,-0.60133c0.98354,-0.16722 1.99823,-0.33482 3.03149,-0.49651c1.0374,-0.16234 2.06665,-0.31854 3.07651,-0.45149c1.90085,-0.25024 2.77347,-0.3327 3.59334,-0.39867c0.77487,-0.06235 1.51448,-0.10336 2.226,-0.129c0.69118,-0.0249 1.37065,-0.03517 2.04599,-0.039c1.37065,-0.00777 2.07985,-0.00511 2.804,0.00133c0.73421,0.00653 1.47369,0.02037 2.21251,0.0585c0.73459,0.03792 1.46117,0.08783 2.1675,0.1935c1.36002,0.20345 1.99406,0.39378 2.60001,0.60133c0.59599,0.20415 1.17099,0.45226 1.7325,0.726c0.56534,0.2756 1.12376,0.58363 1.6875,0.90601c1.17108,0.66966 1.77664,1.03125 2.40132,1.39734c0.638,0.37389 1.28488,0.75638 1.93201,1.155c0.65158,0.40137 1.30135,0.81013 1.93201,1.245c1.2482,0.86069 1.83023,1.3279 2.39465,1.79733c0.55556,0.46207 1.08478,0.93625 1.59001,1.416c0.49471,0.46974 0.96556,0.94205 1.40999,1.416c0.8508,0.90733 1.23404,1.35942 1.60133,1.8c0.35696,0.42821 0.69423,0.85503 1.00951,1.284c0.31001,0.42181 0.60486,0.84727 0.8745,1.284c0.53857,0.87227 0.77205,1.33507 1.00267,1.804c0.23381,0.47543 0.45407,0.96735 0.66451,1.4745c0.21501,0.51819 0.42166,1.0544 0.61949,1.6095c0.41251,1.15741 0.60304,1.77013 0.80133,2.396c0.20175,0.6368 0.40001,1.28267 0.60001,1.93201c0.2,0.64934 0.39706,1.29559 0.60001,1.93201c0.3943,1.2365 0.59601,1.82614 0.80133,2.39465c0.19916,0.55147 0.4035,1.08244 0.61949,1.59001c0.20953,0.49242 0.42493,0.96596 0.66451,1.40999c0.45973,0.85204 0.73015,1.23456 0.99867,1.60268c0.26299,0.36053 0.53883,0.70076 0.81599,1.02899c0.27225,0.3224 0.54897,0.63126 0.81599,0.93901c0.52052,0.59991 0.7645,0.90034 0.996,1.19865c0.22409,0.28877 0.43211,0.57097 0.6255,0.84151c0.18121,0.25351 0.34447,0.49045 0.49049,0.70651c0.23999,0.3551 0.32732,0.49469 0.412,0.608c0.07892,0.10559 0.17056,0.20697 0.285,0.31049c0.1384,0.12518 0.32236,0.26828 0.55499,0.4455c0.6506,0.49561 1.09187,0.82056 1.60001,1.20267c0.56856,0.42752 1.18719,0.89398 1.845,1.39349c0.68889,0.5231 1.39821,1.06366 2.11501,1.6185c1.42976,1.10669 2.11588,1.65619 2.78799,2.18533c0.65225,0.51349 1.28468,1.00897 1.9095,1.46701c0.60075,0.4404 1.18364,0.85577 1.77451,1.19699c1.09912,0.63477 1.66112,0.83847 2.20532,1.00134c0.52954,0.15848 1.06638,0.25928 1.6035,0.32251c0.53917,0.06348 1.08885,0.08853 1.6485,0.0975c1.77362,0.02841 2.40268,0.00665 3.0495,0.00665c0.66383,0 1.34367,0 2.03851,0c1.43066,0 2.90933,0 3.66333,0c0.758,0 1.51399,0 2.26201,0c0.73398,0 1.448,0 2.13599,0c1.84799,0 2.37399,0 3.29999,0c0.798,0 1.86002,0 2.90286,0c0.73566,0 1.49933,0 2.28299,0c1.1955,0 1.99948,0 2.82748,0c0.87601,0 1.33951,0 2.86801,0c0.56384,0 1.75351,0 2.36533,0c0.61383,0 1.81952,-0.00009 2.39734,0c1.55167,0.00024 2.42041,-0.01904 3.19568,0.0625c0.74188,0.07803 1.87918,0.42743 2.28448,0.60165c0.87659,0.3768 1.77734,0.858 2.24249,1.09586c0.93069,0.47592 1.84323,0.91837 2.73602,1.276c0.89139,0.35709 1.36896,0.5101 2.35999,0.94083c0.548,0.23816 1.7561,0.84924 2.42517,1.23016c0.71661,0.40796 1.45551,0.86032 2.2095,1.341c0.76642,0.48859 1.52133,0.99731 2.26349,1.50299l0.71518,0.49966" id="svg_1" stroke-width="2" stroke="#000" fill="none"/>
  <path t="1524,1746,1746,1746,1747,1747,1763,1763,1794,1795,1795,1795,1795,1795,1795,1814,1814,1814,1814,1815,1815,1830,1831,1831,1831,1831,1831,1831,1873,1873,1873,1873,1874,1880,1881,1882,1882,1882,1898,1898,1899,1899,1916,1916,1917,1917,1917,1917,1929,1930,1930,1930,1930,1931,1931,1945,1945,1945,1946,1946,1946,1946,2005,2006,2006,2006,2006,2018,2019,2019,2019,2020,2020,2020,2028,2029,2029,2029,2030,2037,2037,2037,2038,2062,2096,2096,2097,2097,2097,2098,2105,2106,2106,2106,2107,2129,2129,2130,2145,2146,2146,2146,2162,2163,2164,2165,2165,2197,2198,2198,2198,2199,2205,2207,2219,2220,2221,2233,2234,2234,2244,2245,2280,2281,2281,2282,2282,2283,2290,2291,2291,2292,2292,2312,2313,2313,2314,2314,2328,2328,2329,2329,2329,2330,2331,2332,2344,2345,2345,2345,2346,2346,2347,2347,2379,2380,2381,2382,2382,2383,2412,2413,2414,2416,2416,2418,2418,2419,2419,2426,2427,2427,2428,2428,2433,2435,2437,2437,2438,2438,2463,2464,2465,2465,2466,2467,2467,2494,2495,2496,2496,2497,2498,2502,2503,2503,2511,2512,2513,2513,2513,2514,2573,2588,2589,2589,2590,2590,2591,2591,2592,2610,2611,2611,2612,2612,2613,2613,2613,2614,2629,2630,2631,2631,2632,2632,2633,2634,2635" d="m141,321c3.95667,7.91333 4.22667,8.45334 4.70667,9.41333c0.21001,0.42001 0.65532,1.47586 1.20151,2.38501c0.33107,0.55109 1.1972,1.53165 1.51717,1.90833c0.73947,0.87051 1.15422,1.33844 1.592,1.81332c0.4442,0.48187 0.8546,1.00269 2.26183,2.19385c0.42657,0.36108 1.31752,0.95059 1.78334,1.18201c0.94305,0.46848 1.46472,0.66394 3.22267,1.08249c0.64534,0.15366 1.32014,0.26517 2.00549,0.375c0.6877,0.1102 1.37045,0.21341 2.688,0.36002c1.18672,0.13205 2.19679,0.21185 3.06267,0.25064c0.77696,0.03479 1.52266,0.03534 2.70132,0.03601c0.86267,0.00049 1.308,0 2.20668,0c0.88266,0 2.10815,0 2.84982,0c0.72166,0 1.85417,0 2.70084,0c0.95599,0 1.4715,0 2.5625,0c0.5695,0 1.7415,0.00034 2.9375,0c0.60001,-0.00018 1.80009,-0.005 2.39999,-0.02133c0.60013,-0.01633 1.80128,-0.08066 2.40001,-0.14932c1.20309,-0.13797 2.39914,-0.3927 2.991,-0.54367c0.58957,-0.15039 1.73868,-0.50211 2.29466,-0.69467c0.54535,-0.18887 2.07292,-0.78806 2.54634,-0.991c0.9198,-0.39429 1.81702,-0.8038 2.27333,-1c1.42296,-0.61185 1.9369,-0.8013 3,-1.2045c0.54512,-0.20676 1.09959,-0.40417 2.18933,-0.85266c0.53984,-0.22217 2.06728,-0.9552 2.53334,-1.22684c0.89952,-0.52423 1.31459,-0.80869 2.10583,-1.36334c1.1067,-0.77582 1.77237,-1.26791 2.3875,-1.68466c0.52138,-0.35324 1.53917,-0.72845 2.55016,-1.05383c0.41444,-0.13339 1.38528,-0.54565 1.93268,-0.77667c0.57399,-0.24222 1.75241,-0.75323 2.89583,-1.27084c0.53607,-0.24268 1.51457,-0.70731 2.39583,-1.08331c0.39803,-0.16983 1.77209,-0.67239 2.59435,-0.61633c0.73418,0.05005 1.67255,0.40057 2.476,0.47583c0.91367,0.08557 1.60583,0.05649 2.77682,0.05716c0.87134,0.00049 1.32901,0 2.27834,0c0.98134,0 1.97873,-0.00815 2.976,0.00266c0.98146,0.01065 1.46527,-0.00317 2.38834,0.11166c1.28966,0.16043 2.05719,0.42676 2.74234,0.75769c0.66501,0.3212 1.27034,0.72913 2.46799,1.52533c0.57249,0.38058 1.3502,0.86273 2.15601,1.43866c0.59106,0.42245 1.24652,0.99911 1.95599,1.58533c0.42064,0.34756 1.3524,1.1022 1.84801,1.48801c0.49741,0.38721 1.93742,1.43448 2.37967,1.70483c0.7861,0.48056 1.51985,0.8298 2.20799,1.125c1.01894,0.4371 1.73982,0.76111 2.535,1.0755c0.86858,0.34341 1.3405,0.54248 2.98801,0.85199c0.61496,0.11554 1.27274,0.17041 1.9575,0.21902c0.70865,0.05032 2.18246,0.09601 2.93665,0.10532c0.75916,0.00937 2.27252,0.009 3.01718,0.009c0.73267,0 1.45132,0 2.15399,0c0.68466,0 1.992,0 2.61069,0c1.15732,0 2.20749,0.00742 2.70383,-0.02701c0.9769,-0.06775 1.97726,-0.29141 2.49081,-0.48499c1.15121,-0.43393 1.75311,-0.80722 2.39734,-1.19333c0.67719,-0.40585 1.35794,-0.85446 2.04449,-1.31552c0.68542,-0.4603 1.34811,-0.92755 1.99951,-1.3605c1.70148,-1.13089 2.19669,-1.39609 3.052,-1.88132c0.75259,-0.42694 1.47418,-0.83975 2.13599,-1.40399c0.74869,-0.63831 1.09753,-1.04736 1.83334,-1.89584c0.38071,-0.439 1.11923,-1.35498 1.83334,-2.27084c0.34692,-0.44495 1.02158,-1.33115 1.34131,-1.79465c0.66672,-0.96649 0.98895,-1.5043 1.30936,-2.08267c0.707,-1.27615 1.04285,-2.01465 1.39734,-2.79333c0.36841,-0.80927 0.72693,-1.64624 1.077,-2.496c0.3486,-0.84625 0.6803,-1.68185 0.987,-2.496c0.56509,-1.50012 0.79669,-2.17328 0.996,-2.79599c0.18454,-0.57651 0.3627,-1.11725 0.55466,-2.15201c0.09235,-0.49777 0.18106,-2.05627 0.16116,-2.62216c-0.04401,-1.25134 -0.11856,-1.94852 -0.17801,-2.70468c-0.06454,-0.82117 -0.13818,-1.71387 -0.1965,-2.68649c-0.13239,-2.2084 -0.16412,-3.45526 -0.19998,-4.77734c-0.03726,-1.37393 -0.06522,-2.77606 -0.10352,-4.18198c-0.03775,-1.38611 -0.07233,-2.72888 -0.1485,-4.00201c-0.13458,-2.24994 -0.2532,-3.18427 -0.40399,-3.98932c-0.1319,-0.70432 -0.32001,-1.30936 -0.51001,-1.84201l-0.20999,-0.47266l-0.23001,-0.42868l-0.25,-0.40067" id="svg_2" stroke-width="2" stroke="#000" fill="none"/>
  <path t="3071,3227,3228,3228,3228,3228,3228,3244,3244,3244,3244,3244,3244,3245,3245,3293,3294,3294,3294,3294,3294,3294,3300,3301,3301,3301,3301,3301,3311,3312,3312,3312,3328,3362,3362,3362,3363,3378,3388,3389,3389,3390,3391,3399,3399,3399,3399,3400,3400,3400,3401,3411,3411,3412,3412,3412,3413,3413,3413,3449,3450,3450,3450,3450,3450,3450,3451,3461,3462,3462,3462,3463,3463,3463,3463,3464,3502,3503,3503,3504,3504,3504,3504,3505,3505,3511,3512,3512,3513,3513,3513,3513,3528,3528,3529,3529,3562,3563,3569,3569,3569,3570,3570,3570,3571,3577,3578,3578,3579,3579,3613,3614,3615,3615,3631,3632,3632,3633,3633,3633,3633" d="m176,269c0,8.79333 0,9.38 0,10.47333c0,0.52667 0,1.59 0,2.14667c0,1.21335 0,1.88684 0,3.34784c0,0.7695 0,1.55301 0,2.34149c0,0.78452 0,1.556 0,3.02402c0,0.68082 0,1.32666 0,2.53333c0,0.57083 0,1.12668 0,2.21332c0,1.08667 -0.0036,2.20154 0.0135,2.76367c0.03394,1.11523 0.0378,1.66864 0.24249,2.70166c0.19153,0.96658 0.55087,1.82077 1.00934,2.50403c0.56752,0.84576 1.37057,1.36075 2.24666,1.60397c0.71465,0.19843 1.54883,0.5177 2.015,0.64584c1.46387,0.40234 1.96838,0.52692 2.96851,0.55499c0.98416,0.02762 1.51048,-0.02432 2.41917,-0.45416c0.97571,-0.46155 1.81245,-1.38458 2.22366,-1.89566c0.42973,-0.53412 0.82841,-1.12399 1.215,-1.74301c0.39365,-0.63034 0.76773,-1.2811 1.48,-2.59467c0.3488,-0.64328 1.00864,-1.9122 1.32001,-2.54132c0.30861,-0.62357 0.6049,-1.24847 0.88499,-1.87799c0.27994,-0.62918 0.81795,-1.90594 1.27367,-3.23935c0.23367,-0.68372 0.44106,-1.39465 0.6255,-2.133c0.19061,-0.76303 0.36133,-1.56244 0.49049,-2.40302c0.2766,-1.7999 0.33768,-2.77774 0.40134,-3.78931c0.06523,-1.0365 0.10356,-2.08789 0.129,-3.14102c0.02519,-1.04291 0.03511,-2.064 0.039,-3.05099c0.00719,-1.82401 0.00555,-2.6402 -0.00133,-3.39334c-0.00636,-0.69717 -0.01915,-1.34583 -0.0585,-1.95148c-0.03716,-0.57178 -0.08902,-1.11798 -0.1935,-1.63651c-0.20509,-1.01794 -0.39856,-1.51303 -0.59866,-2.008c-0.20251,-0.50095 -0.68228,-1.483 -0.94135,-1.96533c-0.51334,-0.95575 -1.04095,-1.86737 -1.51599,-2.74402c-0.43399,-0.80087 -0.59283,-1.65997 -1.35468,-2.45865c-0.46184,-0.48416 -1.50406,-0.65814 -2.32666,-1.05334c-0.49583,-0.23822 -1.01933,-0.52231 -2.17334,-1.05334c-0.58969,-0.27136 -1.15579,-0.6218 -2.86867,-1.01932c-0.50061,-0.11618 -1.44846,-0.17047 -2.29666,-0.09c-0.78207,0.07419 -1.86159,0.18726 -2.832,0.42133c-0.63904,0.15414 -1.32161,0.48227 -2.1355,1.51251c-0.33482,0.42383 -0.8685,1.54349 -1.138,2.17798l-0.2545,0.68951l-0.2365,0.74149l-0.2155,0.7905" id="svg_3" stroke-width="2" stroke="#000" fill="none"/>
  <path t="4097,4227,4227,4227,4227,4227,4227,4228,4228,4228,4264,4264,4264,4264,4264,4264,4264,4265,4265,4279,4280,4280,4280,4280,4280,4280,4280,4281,4309,4310,4310,4310,4310,4310,4310,4311,4311,4315,4315,4315,4315,4315,4316,4316,4316,4316,4346,4347,4347,4347,4348,4348,4348,4348,4348,4365,4367,4367,4367,4367,4367,4368,4368,4368,4378,4378,4378,4379,4379,4379,4379,4380,4380,4398,4398,4398,4399,4399,4399,4400,4400,4400,4431,4432,4432,4432,4433,4433,4433,4433,4434,4445,4446,4448,4449,4449,4449,4449,4450,4453,4464,4465,4465,4466,4466,4467,4467,4468,4469,4496,4497,4497,4497,4498,4498,4498,4498,4499,4512,4512,4513,4513,4513,4514,4514,4514,4515,4528,4530,4531,4532,4532,4533,4533,4534,4534,4558,4559,4560,4560,4561,4561,4562,4562,4563" d="m178,275c8.16667,0 9.02116,0 9.88266,0c0.86551,0 1.73201,0 2.59651,0c0.8595,0 1.711,0 2.5515,0c1.636,0 2.42799,0 3.21199,0c0.78801,0 1.59201,0 2.42401,0c0.87199,0 1.79599,0 2.784,0c2.216,0 3.46449,0 4.804,0c1.42149,0 2.916,0 4.4745,0c1.61349,0 3.27299,0 4.9695,0c3.468,0 5.22234,0 6.98267,0c1.76233,0 3.52266,0 5.27699,0c1.74434,0 3.47467,0 5.18701,0c3.35466,0 4.99016,-0.00174 6.59866,0.00266c1.5845,0.0043 3.14807,0.01352 4.6935,0.039c1.53059,0.02524 3.04953,0.06 4.5585,0.129c3.00526,0.13745 4.50668,0.26471 6.02,0.40134c1.53871,0.13892 3.11244,0.3067 4.73399,0.49051c1.68246,0.1907 3.43597,0.40393 5.27399,0.62549c3.97595,0.47928 6.13239,0.73569 8.38934,0.99469c2.33636,0.2681 4.73297,0.53549 7.17001,0.79648c2.4563,0.26306 4.91257,0.51895 7.34998,0.7515c4.7319,0.45145 6.99432,0.6311 9.18402,0.80002c2.125,0.16394 4.19458,0.30911 6.216,0.44849c1.98126,0.1366 3.93097,0.26453 5.85599,0.4035c3.81131,0.27515 5.71036,0.43451 7.60535,0.60266c1.88773,0.16751 3.763,0.3472 5.62198,0.53552c1.83972,0.18637 3.65512,0.37958 5.44202,0.58047c3.47559,0.39075 5.15741,0.59918 6.81732,0.79736c1.65375,0.19745 3.31815,0.39548 5.01151,0.58047c1.7373,0.18979 3.53659,0.37582 5.4165,0.53552c4.06052,0.34494 6.27234,0.46967 8.58267,0.59998c2.37967,0.13422 4.7999,0.25137 7.22998,0.3645c2.40991,0.11218 4.77017,0.21329 7.05002,0.31952c4.20026,0.19571 6.06818,0.29807 7.784,0.39999c1.58218,0.09399 3.048,0.19052 4.41599,0.28049c1.28802,0.08472 2.5137,0.16913 3.69601,0.2355c2.30341,0.12933 3.45789,0.16782 4.616,0.20001c1.15591,0.03214 2.30396,0.05173 3.43799,0.06448c1.11398,0.01254 2.202,0.01758 3.258,0.0195c1.992,0.00363 2.91852,0.00134 3.80402,0.00134c0.85349,0 1.68399,0 2.50049,0c0.81152,0 1.62701,0 2.45551,0c1.73199,0 2.65018,0 3.59735,0c0.96515,0 1.93732,0 2.90549,0c0.95316,0 1.88034,0 2.77051,0c1.62534,0 2.34048,0 2.98666,0c0.57816,0 1.08932,0 1.53448,0l0.38019,0l0.31616,0l0.25317,0" id="svg_4" stroke-width="2" stroke="#000" fill="none"/>
  <path t="4876,5027,5027,5027,5027,5027,5027,5027,5027,5027,5044,5044,5044,5044,5045,5045,5045,5045,5045,5079,5079,5079,5079,5080,5080,5080,5080,5080,5100,5101,5101,5101,5101,5102,5102,5102,5102,5111,5111,5111,5111,5111,5111,5112,5112,5112,5128,5128,5129,5129,5129,5129,5130,5130,5130,5162,5163,5163,5163,5164,5164,5164,5164,5164,5178,5178,5179,5179,5179,5179,5180,5180,5180,5196,5196,5197,5197,5197,5197,5198,5198,5198,5213,5214,5214,5214,5214,5215,5215,5215,5216,5249,5250,5250,5251,5251,5252,5252,5252,5253,5265,5266,5266,5267,5267,5267,5267,5268,5268,5277,5278,5278,5278,5279,5279,5279,5279,5280,5298,5298,5299,5299,5299,5300,5300,5301,5301,5330,5331,5331,5332,5332,5332,5332,5333,5333,5344,5345,5345,5346,5346,5347,5348,5349,5349" d="m181,287c10.83333,0 11.87883,0 12.91733,0c1.0345,0 2.06801,0 3.1035,0c1.04051,0 2.089,0 3.1485,0c2.164,0 3.27367,0 4.40134,0c1.14368,0 2.30133,0 3.47101,0c1.17966,0 2.36732,0 3.56099,0c2.39734,0 3.59851,0 4.80667,0c1.22217,0 2.46533,0 3.7365,0c1.30617,0 2.65434,0 4.0515,0c2.96935,0 4.55319,-0.00235 6.20001,0.004c1.70285,0.00656 3.4548,0.02094 5.24849,0.0585c1.82901,0.0383 3.68657,0.09088 5.56351,0.19351c3.79285,0.2074 5.69084,0.39948 7.58533,0.59467c1.88821,0.19452 3.76251,0.41599 5.62201,0.62848c1.83919,0.21017 3.65285,0.42484 5.442,0.5835c3.47156,0.30789 5.15515,0.36636 6.80133,0.39734c1.61563,0.03043 3.20682,0.01437 4.7775,-0.02249c1.55603,-0.03653 3.10159,-0.09961 4.64249,-0.1575c3.08658,-0.11594 4.64258,-0.16269 6.21469,-0.19467c1.5939,-0.03241 3.21597,-0.05194 4.87198,-0.06448c1.69598,-0.01285 3.43802,-0.01761 5.23203,-0.0195c3.76797,-0.00397 5.75098,-0.00375 7.79199,0.00266c2.08701,0.00653 4.20813,0.02063 6.35098,0.0585c2.15317,0.03806 4.3049,0.08899 6.44101,0.19351c4.1861,0.2048 6.21017,0.3974 8.18533,0.59467c1.9292,0.19266 3.80933,0.41452 5.6445,0.62848c1.79016,0.20871 3.53452,0.42419 5.2395,0.5835c3.2782,0.3063 4.86115,0.3663 6.40268,0.39734c1.50293,0.03027 2.96951,0.01471 4.39948,-0.02249c1.39539,-0.03632 2.75635,-0.09854 4.0845,-0.1575c2.56131,-0.11374 3.79752,-0.16403 5.01199,-0.19199c1.20023,-0.02765 2.39474,-0.03809 3.591,-0.02551c1.20642,0.0127 2.43124,0.04431 3.681,0.1095c2.61212,0.13623 3.98364,0.26566 5.39069,0.396c1.42798,0.13226 2.86014,0.28137 4.2825,0.43201c1.39764,0.14801 2.75455,0.2991 4.0575,0.43201c2.37921,0.24271 3.43094,0.33026 4.39066,0.39734c0.875,0.06116 1.67453,0.10275 2.40601,0.129c0.6712,0.02408 1.29065,0.0351 1.866,0.039c1.05063,0.00711 1.54083,0.00266 2.01199,0.00266c0.45319,0 0.88934,0 1.30951,0c0.40518,0 0.79633,0 1.1745,0c0.72134,0 1.06601,0 1.39868,0c0.31866,0 0.62131,0 0.90598,0c0.26468,0 0.50735,0 0.72601,0c0.35733,0 0.49283,0 0.60132,0c0.0845,0 0.14801,0 0.19351,0l0.03049,0l0.01852,0l0.00949,0" id="svg_5" stroke-width="2" stroke="#000" fill="none"/>
  <path t="5629,5760,5761,5761,5761,5761,5761,5761,5761,5761,5778,5778,5778,5778,5778,5778,5778,5778,5778,5845,5846,5846,5846,5846,5846,5846,5846,5846,5862,5863,5863,5863,5863,5863,5863,5863,5863,5868,5868,5869,5869,5869,5869,5869,5869,5869,5914,5914,5914,5915,5915,5915,5915,5915,5916,5921,5921,5921,5922,5922,5922,5922,5922,5922,5928,5929,5929,5929,5929,5930,5930,5930,5933,5944,5945,5945,5945,5946,5946,5946,5946,5947,5995,5997,5997,5998,5998,5998,5998,5999,5999,6004,6004,6005,6005,6006,6006,6007,6008,6008,6013,6014,6014,6015,6015,6015,6015,6016,6017,6039,6040,6040,6040,6043,6044,6044,6044,6044,6079,6081,6081,6082,6082,6082,6083,6083,6083" d="m181,294c19.5,0 20.87833,0 22.12666,0c1.13834,0 2.18668,0 3.16501,0c0.92833,0 1.82666,0 2.715,0c1.82666,0 2.80116,0 3.82266,0c1.06551,0 2.172,0 3.3165,0c1.1795,0 2.39101,0 3.6315,0c2.556,0 3.86768,0 5.20934,0c1.38167,0 2.81334,0 4.30501,0c1.56166,0 3.20332,0 4.935,0c3.77333,0 5.83133,-0.00156 7.99733,0.00266c2.26199,0.00439 4.60805,0.01404 7.026,0.039c2.47806,0.02557 5.00429,0.06064 7.56601,0.129c5.18469,0.13837 7.7825,0.26544 10.36932,0.39734c2.56549,0.13083 5.09741,0.28101 7.58551,0.43201c2.43326,0.14767 4.79996,0.3009 7.09048,0.43201c4.30469,0.24637 6.30276,0.33179 8.20667,0.39734c1.82547,0.06287 3.58926,0.10349 5.30701,0.129c1.68759,0.02505 3.36133,0.03519 5.03699,0.039c3.42136,0.00781 5.19467,0.00104 7.00803,0.00531c1.84332,0.00436 3.70673,0.01367 5.57999,0.039c1.87338,0.02533 3.73712,0.05905 5.57999,0.129c3.58777,0.1362 5.31271,0.26511 6.99069,0.39603c1.63501,0.12756 3.22791,0.27426 4.78348,0.41248c1.52042,0.1351 3.00793,0.27353 4.46851,0.36752c2.84225,0.18292 4.23364,0.2001 5.60135,0.19864c1.34372,-0.00143 2.66153,-0.03702 3.95099,-0.08698c1.25989,-0.04883 2.48727,-0.11578 3.681,-0.177c2.27725,-0.11679 3.35904,-0.1636 4.41199,-0.19601c1.03473,-0.03186 2.06265,-0.05188 3.09451,-0.06448c1.04681,-0.01279 2.11966,-0.01761 3.22949,-0.0195c2.37466,-0.00403 3.6575,-0.00134 4.99734,-0.00134c1.38382,0 2.79868,0 4.23151,0c1.43784,0 2.86765,0 4.27649,0c2.70267,0 3.97299,0 5.18533,0c1.15634,0 2.25867,0 3.30899,0c1.00034,0 1.95267,0 2.85901,0c1.68268,0 2.46301,0 3.20532,0c0.70636,0 1.37869,0 2.01901,0c0.61032,0 1.19266,0 1.74899,0c1.04266,0 1.53302,0 2.00534,0c0.45633,0 0.89868,0 1.32901,0l0.42032,0l0.41232,0l0.40634,0" id="svg_6" stroke-width="2" stroke="#000" fill="none"/>
  <path t="6414,6544,6544,6544,6545,6545,6545,6545,6545,6561,6561,6561,6561,6562,6562,6562,6562,6562,6589,6589,6590,6590,6590,6590,6590,6590,6590,6598,6598,6598,6599,6599,6599,6632,6632,6632,6644,6645,6645,6645,6662,6662,6663,6663,6663,6678,6679,6679,6679,6679,6679,6680,6718,6718,6718,6718,6718,6719,6728,6729,6729,6730,6730,6731,6731,6745,6746,6746,6746,6761,6762,6762,6762,6795,6796,6796,6798,6822,6823,6831,6831,6831,6832,6879,6879,6895,6895,6896,6896,6896,6897,6914,6914,6915,6915,6915,6916,6916,6916,6916,6935,6935,6936,6936,6936,6936,6937,6937,6964,6964,6965,6965,6965,6965,6966,6966,6993,6994,6994,6995,6995,6995,6996,6996,6996,7013,7013,7014,7014,7014,7015,7015,7015,7016,7028,7029,7029,7030,7030,7030,7031,7031,7046,7046,7047,7047,7047,7047,7048,7048" d="m388,293c7.47934,-4.17834 8.11853,-4.51895 8.76532,-4.83835c0.64926,-0.32062 1.31433,-0.62872 2.00403,-0.91498c0.70831,-0.29401 1.44611,-0.59158 3.064,-1.08002c0.86853,-0.26221 1.78662,-0.48715 2.7345,-0.7095c0.96811,-0.22711 1.95267,-0.43784 2.9415,-0.64648c0.98419,-0.20767 1.95828,-0.39883 3.82401,-0.81067c0.88126,-0.19455 1.72128,-0.39609 2.52448,-0.58649c0.76614,-0.18161 1.49518,-0.35629 2.19153,-0.50552c0.66013,-0.14148 1.28473,-0.29095 2.45065,-0.40799c0.53366,-0.05356 1.0419,-0.05948 1.5195,-0.03299c0.87817,0.04868 1.6514,0.19659 2.64716,0.36633c0.80902,0.13791 1.7558,0.37897 2.09033,1.27399c0.24023,0.64276 0.21478,1.47562 0.23401,2.358c0.02982,1.36771 0.01364,2.25241 -0.009,2.68649c-0.04538,0.8703 -0.13495,1.78354 -0.64865,3.18152c-0.19119,0.52036 -0.45764,1.04169 -1.04535,2.11731c-0.30219,0.55304 -0.62869,1.09528 -0.93451,1.64401c-0.87079,1.56247 -1.12869,2.04733 -1.47748,3.00449c-0.33112,0.9086 -0.44003,1.38214 -0.58667,2.35419c-0.1572,1.04205 -0.20767,2.19717 -0.23218,2.80017c-0.02487,0.61166 -0.04794,1.8345 -0.05267,2.43134c-0.00458,0.57782 -0.01141,2.12939 0,2.991c0.0101,0.76178 0.00009,1.47061 0.21735,2.84549c0.11636,0.7363 0.29926,1.4942 0.59702,2.22601c0.45291,1.1131 0.92932,1.77786 1.42114,2.38464c0.4566,0.56335 1.29294,1.33862 1.836,1.98001c0.62759,0.74124 0.9816,1.29114 1.612,2.15067c0.37714,0.51419 0.39188,0.78122 -0.284,0.73868c-0.95276,-0.05997 -1.90866,-0.00134 -2.46664,-0.00134c-0.604,0 -1.92603,0 -2.63202,0c-1.47198,0 -2.22668,0.00247 -2.98932,-0.004c-0.76871,-0.0065 -1.54169,-0.02054 -2.31601,-0.0585c-0.77505,-0.03802 -1.54968,-0.08984 -2.31601,-0.19351c-1.52295,-0.20602 -2.26587,-0.39496 -2.996,-0.60132c-0.7258,-0.20511 -1.43723,-0.4447 -2.12549,-0.72601c-1.35739,-0.55481 -2.00497,-0.88016 -3.22916,-1.58331c-0.59784,-0.34338 -1.17172,-0.71585 -1.72351,-1.11752c-0.55649,-0.40506 -1.63516,-1.33182 -2.15799,-1.86331c-0.54587,-0.55493 -1.62793,-1.84543 -2.173,-2.58084c-0.57147,-0.77103 -1.13226,-1.5932 -1.69351,-2.44501c-0.56982,-0.86481 -1.1257,-1.74561 -1.67551,-2.625c-0.54221,-0.86725 -1.57416,-2.53647 -2.06665,-3.315c-0.46896,-0.74139 -0.9205,-1.44257 -1.3605,-2.10001c-0.41656,-0.62244 -0.81976,-1.20404 -1.21649,-1.73999c-0.37299,-0.50388 -1.09314,-1.38586 -1.44516,-1.76151c-0.33374,-0.35614 -0.67499,-0.68152 -1.01703,-0.99448c-0.34329,-0.31409 -1.07562,-0.95352 -1.45865,-1.31201c-0.8558,-0.80096 -1.79834,-1.79639 -2.30334,-2.33749c-0.51904,-0.55618 -1.04199,-1.12033 -1.56598,-1.6785l-0.51801,-0.54218l-0.50601,-0.51517" id="svg_7" stroke-width="2" stroke="#000" fill="none"/>
 </g>
 <g display="none">
  <title>muse_image</title>
  <image xlink:href="http://farm1.static.flickr.com/229/500187022_a778da7d42.jpg" id="muse" height="480" width="640" y="0" x="0"/>
 </g>
 <g display="none">
  <title>bbox</title>
  <rect stroke="#f00" fill="none" stroke-width="3" height="129.28" width="345.6" y="264.96" x="98.56" id="bbox"/>
 </g>
</svg>
