<svg width="640" height="480" xmlns="http://www.w3.org/2000/svg" xmlns:svg="http://www.w3.org/2000/svg" xmlns:xlink="http://www.w3.org/1999/xlink">
 <!-- Sketchy ANNOTATION
  ImageNet ID: n02676566_8820
  URL: http://farm1.static.flickr.com/63/202134556_9767776422.jpg
  Image Width: 333
  Image Height: 500
  BBox X: 95
  BBox Y: 18
  BBox Width: 108
  BBox Height: 381
  Exposure: 2000ms
  Synset Label: guitar
  Synset ID: n03467517
  Worker Tag: Guitar
  Sanity Check: 
   Saved
  Comment: 
   {}
  Worker ID: AIH9VLD92GHFH
  Assignment ID: 32Z9ZLUT1LK1Q2S3SPCVLR7LT7YHO6
  HIT ID: 3NRZ1LDP7W63F364N9QFLELVVMFPZF
  Work Time: 35s
  Worker Score: 0.5500
 END ANNOTATION -->
 <g display="inline">
  <title>Layer 1</title>
  <path t="0,169,172,184,184,203,203,203,217,224,225,236,236,236,252,252,267,268,284,284,284,285,301,301,317,318,318,333,333,350,354,354,366,366,383,383,383,401,402,417,418,434,434,435,451,451,467,467,484,484,484,501,501,501,501,517,518,550,550,556,556,556,567,567,568,584,584,584,602,602,603,617,617,618,634,634,635,650,650,667,668,684,701,701,701,719,720,734,734,734,751,751,751,767,767,784,785,785,801,801,817,817,818,818,834,834,851,867,867,868,884,884,901,901,917,918,918,934,951,951,951,967,984,984,1001,1001,1017,1018,1051,1051,1067,1067,1101,1101,1118,1134,1134,1167,1183,1184,1201,1217,1217,1234,1267,1268,1284,1317,1317,1334,1384,1384,1401,1417,1417,1434,1451,1451,1468,1517,1518,1534,1567,1567,1584,1602,1603,1617,1634,1634,1651,1667,1667,1683,1701,1701,1717,1734,1751,1751,1751,1767,1784,1801,1801,1817,1817,1833,1834,1851,1851,1867,1867,1884,1884,1884,1901,1917,1933,1934,1934,1951,1952,1967,1967,1983,1984,1984,2001,2001,2017,2033,2034,2051,2051,2067,2067,2083,2101,2101,2101,2117,2118,2133,2134,2134,2151,2151,2152,2167,2168,2183,2184,2185,2201,2201,2202,2217,2217,2218,2233,2234,2234,2251,2252,2252,2267,2268,2268,2268,2284,2284,2285,2301,2301,2302,2317,2317,2318,2318,2333,2334,2334,2335,2335,2350,2351,2351,2367,2367,2368,2383,2384,2384,2401,2401,2402,2402,2417,2417,2418,2434,2435,2435,2435,2450,2451,2452,2452,2467,2467,2468,2468,2483,2484,2484,2500,2501,2502,2517,2517,2518,2518,2519,2533,2534,2535,2535,2551,2551,2552,2567,2568,2568,2568,2586,2586,2586,2586,2628,2629,2629,2632,2633,2633,2633,2643,2644,2644,2644,2660,2660,2661,2661,2671,2672,2672,2683,2683,2684,2700,2701,2702,2702,2717,2718,2718,2718,2732,2733,2733,2750,2751,2752,2752,2767,2767,2768,2783,2784,2784,2785,2800,2801,2802,2802,2817,2817,2818,2818,2834,2835,2835,2835,2850,2851,2852,2867,2867,2868,2883,2884,2900,2901,2902,2902,2917,2917,2933,2934,2935,2950,2951,2952,2967,2967,2968,2983,2984,2985,3000,3001,3002,3017,3017,3018,3018,3034,3035,3035,3035,3050,3051,3052,3066,3068,3069,3069,3083,3084,3085,3100,3101,3102,3116,3117,3118,3118,3133,3134,3135,3135,3150,3151,3152,3152,3166,3167,3183,3184,3185,3185,3200,3201,3202,3217,3217,3233,3234,3235,3250,3251,3252,3252,3266,3267,3283,3284,3285,3300,3302,3316,3317,3318,3333,3334,3335,3350,3351,3366,3367,3368,3368,3383,3384,3400,3401,3402,3416,3417,3418,3433,3434,3435,3450,3451,3466,3467,3468,3483,3484,3500,3501,3516,3517,3518,3533,3535,3550,3551,3552,3566,3567,3584,3584,3601,3602,3616,3616,3634,3635,3650,3651,3666,3683,3684,3700,3701,3702,3716,3717,3733,3734,3750,3767,3768,3783,3784,3800,3801,3816,3833,3834,3850,3883,3884,3900,3901,3902,3943,3956,3983,3984,3985,4000,4001,4016,4017,4018,4033,4066,4067,4083,4084,4116,4117,4133,4134,4166,4183,4184,4217,4233,4234,4251,4283,4284,4316,4333,4334,4366,4383,4384,4400,4416,4417,4433,4434,4450,4466,4467,4483,4484,4500,4516,4517,4518,4534,4535,4550,4551,4566,4567,4584,4601,4616,4617,4650,4666,4668,4683,4684,4716,4717,4750,4783" d="m256,268c-5.271,-6.37115 -5.87929,-7.17831 -6,-8.16666c-0.10358,-0.84814 -0.15781,-1.83621 -0.42534,-2.64401c-0.2149,-0.64886 -0.42572,-1.61513 -0.57066,-2.40399c-0.14351,-0.78107 -0.64272,-1.67651 -1.28,-2.12401c-0.84111,-0.59062 -1.4034,-1.17609 -1.82483,-2.00867c-0.40736,-0.80479 -1.16713,-1.26349 -1.89917,-1.98599c-0.63907,-0.63074 -0.97346,-1.17088 -1.51466,-1.89867c-0.59642,-0.80203 -1.11102,-1.41229 -2.028,-1.86784c-0.68503,-0.34032 -1.45001,-0.55064 -2.48933,-0.81749c-0.7719,-0.19818 -1.73601,-0.65067 -2.468,-1.08267c-0.73199,-0.43201 -1.52838,-0.84395 -2.30533,-1.04817c-0.95982,-0.2523 -1.7086,-0.47911 -2.51201,-0.66783c-0.98997,-0.23256 -1.87195,-0.27866 -2.88266,-0.284c-0.79999,-0.00423 -1.8,0 -2.60001,0c-0.8,0 -1.8,0 -2.59999,0c-1.00134,0 -1.836,0 -2.76668,0c-0.7905,0 -1.644,0 -2.83333,0c-0.59866,0 -1.47917,0 -2.31467,0c-1,0 -1.87476,-0.01297 -2.88533,0.00017c-0.8002,0.01039 -1.83186,0.09048 -2.60001,0.45717c-0.63214,0.30176 -1.40797,1.07855 -1.8,1.548c-0.61263,0.73361 -1.37959,1.68549 -1.9955,2.18483c-0.55112,0.44682 -1.37752,1.13591 -1.78983,1.63516c-0.57596,0.6974 -1.39214,1.2753 -2.11467,1.6955c-0.7421,0.43158 -1.54163,1.23888 -1.83867,1.71918c-0.42543,0.6879 -1.14592,1.50359 -2.00867,1.80367c-0.89612,0.31169 -1.452,0.75699 -2.17349,1.47716c-0.64644,0.64525 -1.30443,1.30458 -1.82651,1.82651c-0.63142,0.63126 -1.2896,1.28658 -2.19533,1.75301c-0.69112,0.3559 -1.55028,0.61148 -2.31433,1.44232c-0.38417,0.41776 -0.65877,1.23825 -1.14301,2.12399c-0.46295,0.8468 -1.16666,1.5 -1.65266,1.98602c-0.69466,0.69467 -1.32616,1.32614 -1.86816,1.86816c-0.81248,0.8125 -1.2549,1.23843 -1.95834,1.97916c-0.46439,0.48898 -1.13818,1.36621 -1.5645,2.19101c-0.37636,0.72815 -0.94173,1.48499 -1.36699,2.13434c-0.45914,0.70108 -1.24348,1.41522 -1.93668,1.87015c-0.76898,0.50467 -1.40604,1.09048 -1.85133,2.07251c-0.32373,0.71393 -0.45435,1.48138 -0.75316,2.42215c-0.31737,0.99918 -0.78673,1.43567 -1.34283,2.15717c-0.5714,0.74136 -0.93359,1.61716 -1.28,2.28867c-0.41965,0.81351 -0.4118,1.78629 -0.70934,2.7627c-0.23863,0.78311 -0.64699,1.57385 -0.7115,2.35397c-0.07419,0.89706 -0.07782,1.84619 -0.70984,2.49017c-0.64082,0.65295 -1.27382,1.27734 -1.29466,2.24118c-0.01492,0.69049 0,1.75882 0,2.61615c0,0.78519 0,1.72519 0,2.73318c0,0.75598 0,1.6875 0,2.65067c0,0.69064 0,1.75882 0,2.61615c0,0.78519 0,1.72519 0,2.73318c0,0.75598 0,1.6875 0,2.65067c0,0.69064 -0.20059,1.96536 0.44267,2.39465c0.7233,0.4827 1.53648,0.66229 1.55733,1.60535c0.01907,0.8631 0,1.75882 0,2.71732c0,0.68402 0,1.62402 0,2.63202c0,0.86215 0,1.6875 0,2.65067c0,0.86331 0,1.75882 0,2.71732c0,0.68402 0.07104,1.62653 0,2.63202c-0.05731,0.81104 -1.08318,0.74692 -1.83067,1.45331c-0.68463,0.64697 -0.63582,1.5228 -0.88533,2.22934c-0.37196,1.05328 -0.76503,1.72858 -1.11732,2.65067c-0.30486,0.79791 -0.46512,1.70309 -1.01733,2.19736c-0.77089,0.69 -1.1754,1.40094 -1.502,2.29315c-0.27615,0.75439 -0.52016,1.54376 -0.64734,2.34283c-0.15935,1.00119 -0.47383,1.77173 -0.716,2.51468c-0.34364,1.05426 -0.22639,1.93759 -0.61732,2.81866c-0.31152,0.70209 -0.88445,1.38062 -1.33334,2.33331c-0.37105,0.78748 -0.5726,1.64795 -0.83333,2.35419c-0.35822,0.97034 -0.42381,1.78775 -0.584,2.57916c-0.20456,1.01062 -0.67818,1.71295 -0.85884,2.64282c-0.16391,0.84363 -0.05716,1.72784 -0.05716,2.52518c0,0.98132 0,1.89865 0,2.81067c0,0.84265 0,1.75467 0,2.672c0,0.74399 0.11011,1.80624 -0.11433,2.55466c-0.3064,1.02167 -0.77538,1.44711 -1.18033,2.30368c-0.41267,0.87289 -0.62788,1.77872 -0.68401,2.61899c-0.06258,0.93683 -0.02133,1.772 -0.02133,2.81485c0,0.71848 0,1.50897 0,2.53583c0,0.92133 0,1.60532 0,2.60666c0,0.83551 -0.01758,1.71619 0.00267,2.91333c0.00999,0.59088 -0.00713,1.48969 0.44017,2.48001c0.33429,0.74011 0.96606,1.33939 1.53566,2.34283c0.29486,0.51947 0.61562,1.38748 0.82016,1.97983c0.41232,1.19403 0.69379,2.09058 0.95851,2.64151c0.51088,1.0632 1.07787,1.7326 1.45349,2.1825c0.78734,0.94299 1.18903,1.46121 1.81017,2.2955c0.43518,0.5845 1.13934,1.48483 1.66183,2.07782c0.52553,0.59644 1.07095,1.15234 1.548,1.716c0.82787,0.97815 1.22762,1.69833 1.73734,2.284c0.74277,0.85342 1.28146,1.19229 2.02666,1.74417c0.86128,0.63785 1.50958,1.17361 1.97334,1.6265c0.81013,0.79111 1.29312,1.29358 1.85333,1.78c0.57054,0.49539 1.77696,1.28336 2.368,1.60001c0.85298,0.45697 1.67426,0.95343 2.358,1.66049c0.47458,0.49075 0.86752,1.07831 1.61934,1.82352c0.75439,0.74777 1.34883,1.15338 1.93784,1.56216c0.8876,0.616 1.78935,1.20245 2.37466,1.58365c0.5621,0.36606 1.58986,1.01724 2.2955,1.38486c0.66931,0.34869 1.65501,0.71625 2.46132,1.05731c0.87798,0.37137 1.77373,0.8989 2.36534,1.34668c0.61981,0.46915 1.21219,1.01315 1.884,1.46399c1.00455,0.67413 1.75743,0.96863 2.49384,1.22635c0.7061,0.2471 1.99037,0.6123 2.75949,0.95233c0.72217,0.31927 1.42181,0.76636 2.22301,1.23749c0.57565,0.3385 1.50665,0.84766 2.55949,1.10901c0.7173,0.17807 1.45949,0.2081 2.16901,0.29099c1.27031,0.14838 2.0504,0.40955 2.81517,0.59918c1.12663,0.27936 1.80399,0.30731 2.51549,0.33182c1.09604,0.03772 2.15794,0.01239 2.82651,0.02533c0.97832,0.01892 1.64017,0.05637 2.674,0.21686c0.73424,0.11398 1.85088,0.36691 2.59467,0.49466c1.05919,0.18192 1.72157,0.24554 2.63733,0.27332c1.07956,0.03275 1.79851,0.01068 2.7565,0.01068c1.13301,0 1.8,0 2.511,0c0.731,0 2.15767,0 2.82201,0c0.9465,0 1.55583,0 2.7585,0c0.60933,0 1.55583,0 2.56534,0c1.0815,0 1.8125,0 2.5235,0c1.26717,0 2.05916,0.00006 2.81517,0c1.1375,-0.00009 1.80476,0.00497 2.51549,-0.02084c0.73141,-0.02658 2.15974,-0.1911 2.82651,-0.33182c0.65466,-0.13815 1.63213,-0.39554 2.674,-0.526c0.72887,-0.09128 1.48012,-0.10373 2.226,-0.17401c1.43459,-0.13519 2.10687,-0.2623 3.006,-0.59399c0.57161,-0.21088 1.56268,-0.83734 2.24667,-1.35333c0.68399,-0.51599 1.41208,-0.99777 2.21466,-1.36401c0.76727,-0.35013 1.68619,-0.68033 2.436,-1.30798c0.72882,-0.61011 1.10864,-1.10373 1.84933,-1.80716c0.48898,-0.46439 1.34808,-1.17538 2.15067,-1.56085c0.88232,-0.42377 1.61673,-0.80927 2.09866,-1.18134c0.95242,-0.73532 1.40695,-1.40067 1.99884,-2.12149c0.5434,-0.66174 1.30264,-1.14169 1.85315,-1.6265c0.84695,-0.74588 1.18967,-1.28012 1.74152,-2.02533c0.63791,-0.86145 1.18536,-1.52008 1.6265,-2.05869c0.81104,-0.99026 1.27704,-1.63965 1.50983,-1.98831c0.47144,-0.70612 1.06055,-1.77905 1.36285,-2.79669c0.18219,-0.61331 0.30505,-1.54593 1.01132,-2.47766c0.38116,-0.50284 1.20917,-1.08234 1.81332,-1.85065c0.58453,-0.74335 0.81046,-1.3472 1.13068,-2.23468c0.32181,-0.89188 0.58856,-1.79834 0.83865,-2.36267c0.48367,-1.0914 1.052,-1.75623 1.50269,-2.46133c0.58127,-0.90939 0.76404,-1.73456 0.84048,-2.31631c0.12387,-0.94257 0.23059,-1.98196 0.37802,-2.711c0.15164,-0.74988 0.33395,-1.49844 0.74265,-2.92569c0.18951,-0.6618 0.40912,-1.27234 0.61484,-2.13498c0.2373,-0.99506 0.27301,-1.93652 0.61868,-2.85333c0.30823,-0.81747 0.71518,-1.332 1.09866,-2.23468c0.37354,-0.8793 0.47174,-1.78287 0.61615,-2.58432c0.19022,-1.0556 0.69131,-1.7988 0.86652,-2.78635c0.13855,-0.78091 0.08307,-1.39417 0.08533,-2.74899c0.00119,-0.72266 0,-1.43735 0,-2.112c0,-1.31366 0,-2.00702 0,-3.13635c0,-0.7515 0,-1.54797 0,-2.54666c0,-0.90933 0,-1.85065 0,-2.63666c0,-0.82199 0,-1.88068 0,-2.59018c0,-0.85266 0,-1.85983 0,-2.72916c0,-1.06134 0,-1.69467 0,-2.70715c0,-0.65836 0.00009,-1.75668 0,-2.66086c-0.00009,-0.90283 0.03705,-1.62558 -0.05716,-2.4118c-0.15268,-1.27441 -0.44424,-1.95154 -0.8295,-2.54684c-0.543,-0.83911 -1.13831,-1.38077 -1.62933,-2.00134c-0.76709,-0.96945 -1.06711,-1.60321 -1.58417,-2.59982c-0.30682,-0.59143 -0.72229,-1.38745 -1.55252,-2.043c-0.65073,-0.51382 -1.55023,-0.88675 -2.04282,-1.5715c-0.6304,-0.87631 -0.78513,-1.70697 -1.06168,-2.18033c-0.6384,-1.09274 -1.31671,-1.40366 -2.07617,-2.172c-0.59464,-0.60159 -0.89551,-1.40329 -1.47116,-2.07617c-0.52264,-0.6109 -1.39209,-1.00055 -2.04282,-1.51434c-0.82877,-0.65439 -1.28851,-1.38977 -1.56866,-2.36017c-0.1958,-0.67816 -0.32718,-1.66467 -0.60486,-2.36182c-0.41727,-1.04767 -1.07431,-1.54541 -1.46448,-2.37152c-0.37885,-0.80212 -1.16415,-0.99963 -1.84802,-1.64932c-0.68365,-0.64948 -0.8396,-1.49023 -1.04532,-2.35718c-0.20959,-0.8833 -0.49969,-1.78516 -0.76868,-2.49014c-0.33716,-0.88373 -0.83224,-1.70792 -1.35266,-2.17352c-0.82117,-0.73468 -0.83871,-1.52509 -1.22134,-2.45764c-0.31659,-0.77158 -0.76822,-1.54218 -0.77866,-2.50552c-0.00748,-0.69061 0.17041,-1.82339 -0.22168,-2.61615c-0.30322,-0.61301 -1.11703,-1.20459 -1.75748,-1.89984c-0.46454,-0.5043 -0.93716,-1.48257 -1.02533,-2.30899c-0.11002,-1.03125 -0.35651,-1.69391 -0.57019,-2.44034c-0.31619,-1.10452 -0.41998,-1.90128 -0.42532,-2.79333c-0.00424,-0.70801 0,-1.68933 0,-2.64749c0,-0.9765 0,-1.80984 0,-2.78851c0,-0.77399 0,-1.6785 0,-2.42584c0,-0.99417 0,-1.75949 0,-2.83832c0,-0.85733 0,-1.64252 0,-2.58252c0,-1.008 0,-1.76398 0,-2.6955c0,-0.96317 0,-1.65381 0,-2.72198c0,-0.85733 0,-1.64252 0,-2.58252c0,-1.008 0.00064,-1.76398 0,-2.6955c-0.00067,-0.96317 0.23508,-1.77869 -0.36166,-2.7175c-0.37979,-0.5975 -1.64154,-0.36618 -2.39551,-0.98334c-0.57291,-0.46896 -0.5643,-1.67734 -1.04416,-2.20898c-0.61734,-0.68399 -1.74716,-0.77243 -2.44934,-1.00534c-0.75073,-0.24899 -1.75063,-0.81448 -2.364,-1.12799c-0.83556,-0.42709 -1.82352,-0.41998 -2.5,-1.004c-0.5681,-0.49045 -1.17146,-1.33447 -1.87067,-1.85733c-0.71513,-0.53476 -1.56381,-0.58847 -2.37866,-1c-0.77182,-0.3898 -1.56499,-0.68713 -2.28416,-1.28452c-0.5255,-0.43651 -1.18251,-1.40483 -1.43451,-2.08882l-0.528,-0.76534l-0.77866,-0.42134" id="svg_1" stroke-width="2" stroke="#000" fill="none"/>
  <path t="5153,5433,5452,5452,5452,5472,5473,5473,5486,5486,5486,5500,5501,5501,5516,5517,5517,5533,5534,5534,5534,5550,5551,5551,5551,5566,5567,5585,5585,5585,5601,5602,5633,5634,5634,5634,5650,5650,5650,5666,5666,5700,5700,5700,5739,5739,5739,5742,5742,5753,5753,5766,5766,5766,5783,5783,5783,5800,5800,5816,5816,5834,5834,5850,5850,5866,5867,5883,5883,5883,5900,5916,5916,5933,5933,5933,5950,5951,5951,5966,5966,5983,5983,6000,6000,6016,6016,6033,6033,6033,6050,6050,6066,6067,6083,6083,6100,6116,6116,6117,6133,6133,6150,6150,6150,6166,6166,6184,6184,6200,6224,6237,6237,6262,6262,6275,6287,6301,6301,6301,6315,6315,6337,6337,6351,6365,6382,6382,6399,6399,6399,6416,6416,6449,6449,6465,6465,6481,6482,6498,6515,6515,6533,6550,6551,6566,6566,6587,6587,6602,6602,6602,6627,6627,6649,6663,6663,6663,6676,6677,6692,6692,6707,6707,6722,6722,6736,6737,6749,6750,6766,6782,6783,6800,6800,6816,6832,6833,6833,6850,6850,6866,6866,6867,6882,6883,6883,6900,6900,6901,6916,6916,6917,6932,6933,6950,6950,6966,6966,6967,6982,6983,6983,7000,7000,7016,7016,7017,7032,7033,7033,7050,7050,7066,7066,7067,7067,7083,7083,7084,7100,7100,7100,7116,7116,7117,7117,7132,7133,7133,7150,7151,7151,7151,7166,7167,7167,7182,7183,7183,7200,7200,7200,7216,7216,7217,7217,7232,7233,7233,7250,7250,7251,7251,7265,7265,7265,7266,7305,7305,7305,7305,7306,7309,7309,7309,7309,7310,7324,7324,7337,7338,7338,7338,7338,7352,7352,7352,7353,7366,7366,7366,7366,7382,7383,7384,7400,7400,7401,7401,7422,7422,7422,7443,7443,7443,7465,7465,7465,7485,7486,7506,7506,7507,7525,7525,7544,7544,7544,7563,7563,7582,7582" d="m221,237c-2.16133,-0.98933 -1.16667,-1 -0.45267,-1c0.90533,0 1.87416,0 2.68866,0c0.86852,0 1.76401,0 2.6595,0c0.86852,0 1.93784,0 2.65184,0c0.90533,0 1.87454,-0.01636 2.68866,0.01067c0.86928,0.02885 1.76709,0.14163 2.6685,0.342c0.61861,0.13751 1.57635,0.39503 2.6165,0.526c0.72025,0.09068 1.78688,0.10486 2.42433,0.20534c1.20715,0.19029 1.83507,0.65331 2.82401,0.83067c0.74242,0.13316 1.5488,0.048 2.54666,0.088c0.91124,0.03651 1.86226,0.30725 2.64117,0.70717c0.57269,0.29404 1.42839,0.83961 2.3425,1.26849c0.86516,0.40591 1.41379,0.63051 2.55766,0.90033c0.78523,0.18523 1.69453,0.31596 2.40401,0.56801c0.80185,0.28485 1.8485,0.83542 2.48134,1.37866c0.56906,0.48849 0.94537,1.4035 1.51065,1.97333c0.67206,0.67747 1.57608,0.73347 2.41333,1.36801c0.75604,0.57298 1.07364,1.26572 1.87601,1.81166c0.66238,0.4507 1.44327,0.69495 2.48801,0.93767c0.84586,0.19652 1.83096,0.47716 2.31665,0.84567c0.83951,0.63699 1.1817,1.45467 1.75284,2.21683c0.48727,0.65024 1.41031,1.18338 2.07449,1.6575c0.68845,0.49144 1.1705,1.20157 1.62402,1.88c0.57773,0.86424 1.28149,1.60652 1.87332,2.11998c0.64047,0.55569 1.33621,1.01263 2.07733,1.53867c0.92093,0.65366 1.41516,1.10175 2.13333,1.62402c0.74509,0.54187 1.55896,0.87054 2.23068,1.68533c0.5209,0.63187 0.54703,1.63596 1.14133,2.31467c0.6254,0.71423 1.60022,0.68417 2.24533,1.36798c0.53604,0.56818 0.51208,1.45642 0.85718,2.43335c0.29047,0.82233 0.77127,1.58655 1.12198,2.37915c0.43546,0.98413 0.35962,1.74152 0.59283,2.69284c0.22534,0.91913 0.77972,1.58505 1.11334,2.07733c0.6301,0.92972 1.31644,1.54059 1.64801,2.58401c0.20621,0.6489 0.12601,1.41669 0.16681,2.52383c0.03287,0.89221 0.38141,1.78394 0.64719,2.49014c0.33215,0.88257 0.35266,1.85269 0.35266,2.75284c0,0.78519 0,1.72519 0,2.41583c0,1.07333 0,1.90533 0,2.81735c0,0.91733 0,1.66132 0,2.69733c0,0.85199 0.09131,1.81348 -0.08533,2.48532c-0.26666,1.01416 -0.87555,1.78751 -0.91467,2.65067c-0.0387,0.85358 -0.15005,1.8389 -0.42532,2.63333c-0.20947,0.60449 -0.52286,1.59616 -0.564,2.36401c-0.0582,1.08633 -0.01068,1.80533 -0.01068,2.84134c0,0.74399 0,1.85165 0,2.68567c0,0.82983 0,1.793 0,2.48364c0,1.06818 -0.09528,1.94183 0.08533,2.71069c0.23172,0.98642 0.60193,1.52795 1.116,2.51465c0.42068,0.80746 0.94821,1.61441 1.45135,2.1955c0.50522,0.58347 1.38678,1.33084 1.80566,1.88367c0.5817,0.7677 0.7016,1.85608 0.89432,2.52618c0.21457,0.74615 0.22812,2.01437 0.75717,2.62848c0.5415,0.62854 1.56976,0.37869 2.2435,1.23819c0.5025,0.64105 0.61349,1.72678 0.64218,2.52798c0.03574,0.99808 -0.10245,1.81332 0.28848,2.71466c0.32193,0.74222 0.71735,1.55832 1.15866,2.20667c0.49417,0.72598 1.3667,1.4679 1.53601,2.26801c0.1723,0.81424 -0.00195,1.7446 0.03201,2.66135c0.02759,0.74493 0.30811,1.76617 0.564,2.39999c0.35291,0.87408 0.41159,1.89084 0.42084,2.45834c0.01941,1.19067 0.00449,2.08032 0.00449,2.93384c0,1.03583 0,1.73181 0,2.64114c0,1 0,1.81601 0,2.63202c0,0.99866 0,1.87332 0,2.884c0,0.79999 0,1.79999 0,2.40448c0,0.85266 0,1.81668 0,2.61017c0,1.01599 0,1.98001 0,2.75333c0,1.04636 0,1.85333 0,2.43469c0,1.19598 0,2.07648 0,2.91199c0,1.00134 0,1.68533 0,2.85199c0,0.7905 0,1.64401 0,2.23468c0,1.19733 0.00055,2.07782 0,2.91333c-0.00067,1.00266 0.00833,1.70926 -0.08533,2.45468c-0.15164,1.20682 -0.3446,1.89105 -0.48935,2.616c-0.14597,0.73108 -0.3334,2.13037 -0.41064,2.77866c-0.11121,0.93317 -0.3074,1.85419 -0.72452,2.73151c-0.28397,0.59729 -0.83163,1.40509 -1.26849,2.18317c-0.50861,0.90585 -0.78503,1.5965 -0.93765,2.60666c-0.12543,0.83029 -0.06635,1.43124 -0.30585,2.6145c-0.18253,0.90186 -0.3634,1.52991 -1.11151,2.53351c-0.3876,0.51996 -1.17746,1.1333 -1.66132,1.56216c-0.88281,0.7825 -1.36624,1.41315 -1.75351,2.11884c-0.60892,1.10953 -0.90128,1.79507 -1.27267,2.48566c-0.37589,0.69891 -0.95886,1.68167 -1.38049,2.23065c-0.59183,0.7706 -1.0546,1.21875 -1.76532,1.936c-0.78912,0.79636 -1.35641,1.37289 -1.64401,1.68002c-0.59531,0.63568 -1.49335,1.67078 -2.08032,2.39697c-0.28986,0.35861 -0.83252,1.06256 -1.33835,1.70169c-0.79694,1.00693 -1.44373,1.71097 -2.27066,2.388c-0.5459,0.44693 -1.19556,0.93036 -1.896,1.452c-0.35944,0.2677 -1.43643,1.04932 -2.11734,1.52933c-0.63913,0.45056 -1.53882,1.06308 -2.32001,1.68533c-0.72723,0.57925 -1.13452,1.02295 -1.85065,1.51468c-0.96326,0.66144 -1.55417,0.87387 -2.47766,1.18082c-0.99652,0.33121 -1.7193,0.5098 -2.453,0.69385c-0.72238,0.18121 -2.04883,0.47107 -2.871,0.5535c-0.6911,0.06931 -1.71469,0.05716 -2.556,0.05716c-0.729,0 -1.92502,0 -2.59836,0c-0.9975,0 -1.85999,0 -2.83914,0c-0.85419,0 -1.77151,0 -2.5155,0c-1.03734,0 -1.81067,0 -2.77467,0c-0.7515,0 -1.548,0 -2.7735,0l-0.6465,0l-1.01033,-0.00034l-0.92834,-0.07166" id="svg_2" stroke-width="2" stroke="#000" fill="none"/>
  <path t="7993,8133,8133,8133,8150,8150,8166,8166,8183,8183,8184,8184,8200,8200,8200,8216,8216,8217,8233,8233,8233,8233,8233,8250,8250,8250,8266,8266,8266,8283,8283,8283,8300,8300,8300,8300,8316,8316,8316,8333,8333,8333,8350,8350,8350,8350,8366,8366,8367,8383,8383,8383,8400,8400,8400,8416,8416,8417,8417,8433,8433,8434,8434,8450,8450,8450,8450,8466,8466,8466,8467,8483,8483,8483,8484,8500,8500,8500,8516,8516,8516,8517,8533,8533,8533,8533,8550,8550,8550,8566,8566,8567,8583,8583,8583,8583,8599,8599,8600,8600,8616,8617,8617,8633,8633,8633,8634,8649,8649,8649,8650,8666,8666,8667,8667,8683,8684,8684,8684,8684,8700,8700,8700,8701,8701,8716,8716,8717,8717,8733,8733,8733,8734,8734,8750,8750,8766,8766" d="m225,309c-7.24983,-3.51401 -8.16032,-3.92474 -8.96133,-3.99466c-1.04005,-0.09079 -1.83446,-0.15137 -2.89583,0.21649c-0.67009,0.23224 -1.30835,1.11237 -1.8,1.78351c-0.36281,0.49527 -0.89619,1.27762 -1.74283,2.02667c-0.5699,0.50421 -1.25349,0.88617 -1.99867,1.73999c-0.42278,0.48441 -0.98529,1.37503 -1.43466,2.39465c-0.31026,0.70395 -0.53357,1.44711 -0.75601,2.172c-0.2121,0.69116 -0.62268,1.88715 -0.88983,2.6405c-0.24796,0.69922 -0.43895,1.70596 -0.52083,2.54169c-0.08624,0.88028 -0.2168,1.78036 -0.42534,2.68982c-0.21729,0.9476 -0.42442,1.95432 -0.48933,2.672c-0.06609,0.73068 -0.07999,1.45596 -0.08533,2.784c-0.00331,0.82352 0,1.548 0,2.75485c0,0.81448 -0.00598,1.38916 0,2.57849c0.0045,0.89554 -0.05272,1.4993 0.17067,2.31467c0.28473,1.03922 0.86345,1.69452 1.51733,2.284c0.70432,0.63492 1.5309,1.20029 2.08667,1.56534c1.04686,0.68762 1.75151,1.12457 2.45065,1.38934c0.91844,0.34784 1.73563,0.40625 2.62134,0.43597c0.63971,0.02145 1.67484,0.01068 2.78934,0.01068c0.77466,0 1.56534,0 2.76382,0c0.79567,0 1.57935,0 2.343,0c1.0905,0 1.77318,0 2.75717,0c0.65266,0 2.02116,0 2.74817,0c0.731,0 1.44203,0.00833 2.70917,-0.00015c0.79204,-0.00531 1.55453,-0.01691 2.68533,-0.22168c0.66734,-0.12085 1.38115,-0.2836 2.052,-0.59702c1.31833,-0.61594 1.80225,-1.17599 2.26366,-1.68115c0.6553,-0.71744 1.44167,-1.53201 2.04167,-2c0.60001,-0.46799 1.41304,-1.26053 1.8,-1.772c0.62135,-0.82129 1.20746,-1.72311 1.59734,-2.32932c0.38884,-0.60458 0.8396,-1.19562 1.26933,-2.56534c0.2198,-0.70056 0.28082,-1.4469 0.312,-2.172c0.05705,-1.32693 0.02133,-2.15152 0.02133,-2.87601c0,-0.952 0,-1.74701 0,-2.63202c0,-0.63998 0.01303,-2.03787 -0.02133,-2.77866c-0.03479,-0.75024 -0.07565,-1.51233 -0.42183,-2.55334c-0.22821,-0.68628 -0.59721,-1.33572 -1.24484,-2.30533c-0.46309,-0.6933 -0.98451,-1.4097 -1.55867,-2.13065c-0.58578,-0.73553 -0.86475,-1.13004 -1.92,-2.052c-0.68655,-0.59985 -1.45564,-1.06631 -1.83333,-1.29169c-0.74155,-0.4425 -1.83469,-1.03934 -2.51601,-1.44034c-0.65997,-0.38843 -1.61836,-0.98395 -2.65067,-1.43466c-0.70456,-0.30762 -1.44392,-0.53534 -2.172,-0.72c-0.68846,-0.17462 -1.89067,-0.36133 -2.84,-0.43597l-0.82133,-0.01068l-0.97917,0" id="svg_3" stroke-width="2" stroke="#000" fill="none"/>
  <path t="9202,9382,9383,9383,9383,9409,9409,9409,9409,9436,9436,9437,9437,9437,9438,9438,9438,9438,9438,9465,9466,9466,9466,9466,9491,9491,9491,9491,9491,9491,9519,9519,9519,9520,9520,9520,9542,9542,9542,9542,9542,9544,9544,9544,9544,9544,9545,9545,9545,9545,9545,9569,9569,9569,9569,9569,9570,9570,9570,9571,9571,9595,9595,9595,9595,9595,9621,9621,9621,9621,9621,9621,9623,9623,9623,9623,9623,9650,9650,9650,9650,9650,9651,9651,9651,9652,9652,9675,9676,9676,9676,9676,9699,9700,9700,9700,9701,9701,9701,9724,9724,9725,9725,9725,9725,9749,9749,9749,9749,9749,9750,9750,9750,9750,9773,9774,9774,9774,9774,9797,9797,9797,9797,9820,9821,9821,9821,9821,9821,9844,9844,9844,9844,9867,9867,9867,9867,9867,9889,9890,9890,9890,9892,9892,9892,9892,9892,9894,9894,9894,9894,9917,9917,9917,9917,9917,9919,9919,9919,9943,9943,9943,9966,9966,9966,9966,9968,9969,9969,9969,9991,9991,10015,10015,10015,10015,10017,10017,10017,10017,10040,10040,10041,10063,10063,10063,10086,10086,10086,10086,10110,10110,10110,10111,10134,10134,10134,10157,10158,10159,10159,10160,10161,10161,10184,10184,10184,10186,10186,10210,10210,10210,10233,10233,10234,10234,10235,10235,10259,10259,10259,10283,10283,10283,10285,10307,10308,10331,10331,10353,10354,10376,10377,10377,10401,10401,10424,10424,10426,10427,10451,10451,10453,10453,10453,10453,10477,10477,10500,10501,10501,10502,10503,10526,10526,10527,10527,10550,10550,10550,10551,10552,10553,10553,10576,10577,10577,10601,10601,10629,10629" d="m210,236c1.82933,-3.88533 1.94417,-4.63512 1.97867,-5.41066c0.03516,-0.79012 0.02133,-1.98933 0.02133,-2.78934c0,-0.8 0,-1.60001 0,-2.8c0,-0.80133 0,-1.61067 0,-2.436c0,-0.84933 0,-1.73067 0,-2.64799c0,-0.94133 0,-1.89067 0,-2.36333c0,-1.386 0,-2.26868 0,-3.12733c0,-0.85068 0,-1.278 0,-2.59201c0,-0.92 0,-1.87999 0,-2.375c0,-1.01999 0,-1.545 0,-3.17949c0,-0.56151 0,-1.69351 0,-2.25801c0,-0.55949 0,-1.65149 0,-2.6875c0,-0.96399 0,-1.87199 0,-2.748c0,-0.868 0,-1.752 0,-2.66933c0,-0.94133 0,-1.89067 0,-2.36333c0,-1.386 0,-2.26733 0,-3.11667c0,-0.82533 0,-1.63467 0,-2.83617c0,-0.80434 0,-1.62067 0,-2.03584c0,-0.84933 0,-2.18533 0,-3.11667c0,-0.47266 0.00012,-1.422 0,-2.36333c-0.00017,-1.36284 0.01308,-1.80182 -0.02133,-2.66933c-0.03477,-0.87679 -0.12248,-1.78893 -0.312,-2.748c-0.20567,-1.04082 -0.37065,-1.57237 -0.66667,-2.66667c-0.14865,-0.54951 -0.46088,-1.62587 -0.66667,-2.66667c-0.18938,-0.95776 -0.26804,-1.8609 -0.29166,-2.29166c-0.04564,-0.83206 -0.03772,-2.04169 -0.043,-2.843c-0.00534,-0.80937 -0.01624,-1.63594 -0.084,-2.48401c-0.10696,-1.33864 -0.26653,-2.26746 -0.34001,-2.73999c-0.14769,-0.9496 -0.30612,-1.88882 -0.40799,-2.808c-0.0975,-0.87982 -0.13678,-1.73096 -0.192,-2.556c-0.0542,-0.80965 -0.18602,-2.01207 -0.32733,-2.80167c-0.13765,-0.76913 -0.34251,-1.48691 -0.52583,-2.76668c-0.11592,-0.80922 -0.11925,-1.66199 -0.12151,-2.709c-0.00188,-0.87199 0,-1.353 0,-2.375c0,-0.52899 0,-1.593 0,-2.625c0,-0.96266 0,-1.86133 0,-2.71199c0,-0.81866 0,-2.02133 0,-2.82133c0,-0.8 0,-1.60001 0,-2.8c0,-0.8 0,-1.60001 0,-2.39999c0,-0.8 0,-2.00018 0,-2.8045c0,-0.81634 0,-1.65267 0,-2.96217c0,-0.45467 0,-1.386 0,-2.33334c0,-0.47467 0,-1.416 0,-2.7785c0,-0.86433 0,-1.70066 0,-2.517c0,-1.2045 0,-2.0045 0,-2.8045c0,-0.8 0,-1.6 0,-2.8c0,-0.8 0,-1.6 0,-2.4c0,-1.2 0,-2 0,-2.8c0,-0.8 0,-1.6 0,-2.8c0,-0.8 0,-1.6 0,-2.4c0,-1.2 0,-1.99866 0,-2.78933c0,-0.77467 0.01128,-1.5254 -0.00034,-2.589c-0.01065,-0.97517 0.05592,-1.61411 -0.33299,-2.655c-0.28319,-0.75791 -0.92519,-1.38186 -1.33334,-2.5c-0.2251,-0.61666 -0.28827,-1.32677 -0.32433,-2.4185c-0.03571,-1.08096 -0.009,-1.76151 -0.009,-2.7065c0,-0.57999 0,-1.85767 0,-2.54166c0,-1.16666 0,-1.96167 0,-2.54166c0,-0.945 0,-1.97967 0,-2.71101c0,-0.74733 0,-1.86333 0,-2.92567c0,-0.66 0,-1.575 0,-2.655c0,-0.7185 0,-1.6765 0,-2.80949c0,-0.667 0,-1.37801 0,-2.109c0,-1.42667 0,-2.091 0,-3.0375c0,-0.60933 0,-1.808 0,-2.669c0,-0.771 0,-1.73634 0,-2.50967c0,-1.04184 0,-1.81733 0,-2.86533c0,-0.714 0.00632,-1.61936 -0.00017,-2.58783c-0.00533,-0.79356 0.05846,-1.60102 -0.28383,-2.61084c-0.27429,-0.80921 -0.65219,-1.73854 -0.69518,-2.5305c-0.03273,-0.603 -0.02083,-1.9585 -0.02083,-2.68117c0,-0.71466 0,-1.70166 0,-2.703c0,-0.85417 0,-1.824 0,-2.595c0,-0.861 0,-1.758 0,-2.637c0,-0.807 0,-1.85067 0,-2.82133c0,-0.75717 0,-1.65717 0,-2.60133c0,-1.00317 0,-1.63467 0,-2.81983c0,-0.7935 0,-1.569 0,-2.6095c0,-0.7175 0,-1.79467 0,-2.48533c0,-0.96317 -0.0545,-1.89633 0.0005,-2.8055c0.05409,-0.894 0.46814,-1.70951 1.062,-2.2785c0.66434,-0.63652 1.23825,-0.93816 1.96683,-1.8c0.47618,-0.56328 0.93959,-1.61697 1.38133,-2.38933c0.3242,-0.56685 1.10962,-1.28485 1.76401,-1.872c0.70038,-0.62841 1.07007,-1.35664 1.48666,-2.16c0.30286,-0.58403 0.86259,-1.49376 1.3485,-2.06967c0.49237,-0.58358 1.2868,-1.3643 2.06868,-1.96633c0.66856,-0.51479 1.36835,-0.89561 2.12132,-1.68533c0.63576,-0.66678 0.96417,-1.20667 1.6335,-2.124l0.53067,-0.66133l0.636,-0.672l0.52083,-0.52083" id="svg_4" stroke-width="2" stroke="#000" fill="none"/>
  <path t="11085,11266,11266,11266,11282,11283,11283,11283,11283,11299,11300,11300,11300,11300,11300,11316,11316,11316,11316,11316,11316,11332,11332,11333,11333,11333,11333,11349,11350,11350,11350,11350,11350,11356,11393,11393,11393,11393,11393,11395,11395,11395,11395,11425,11425,11425" d="m230,31c2.11467,-1.14133 2.49178,-2.07974 2.6955,-2.818c0.32469,-1.17662 0.49704,-1.98484 0.72585,-2.782c0.11525,-0.40149 0.33914,-1.22475 0.91199,-2.4c0.4005,-0.82166 0.93741,-1.62215 1.20834,-2.04167c0.5647,-0.87437 0.87563,-1.32007 1.45833,-2.29167c0.61423,-1.02416 0.89749,-1.56641 1.18933,-2.10667c0.57864,-1.0712 0.84088,-1.60439 1.644,-3.06c0.24171,-0.43811 0.71284,-1.24554 1.1875,-2c0.23769,-0.37779 0.74702,-1.15299 1.62201,-2.464c0.32594,-0.48837 0.66483,-0.99547 1.01849,-1.512c0.71962,-1.05101 1.08366,-1.571 1.45601,-2.072c1.0419,-1.40193 1.39767,-1.79483 2.02533,-2.55467c0.57744,-0.69904 1.14471,-1.34497 1.71449,-2.41833c0.37308,-0.70282 0.62201,-1.43733 0.89101,-2.112l0.57317,-1.10267l0.504,-0.567l0.522,-0.441" id="svg_5" stroke-width="2" stroke="#000" fill="none"/>
  <path t="11652,11815,11816,11816,11816,11832,11832,11832,11833,11833,11849,11850,11850,11850,11865,11866,11866,11866,11882,11882,11882,11882,11899,11899,11900,11900,11900,11915,11916,11916,11916,11932,11932,11932,11933,11949,11949,11950,11950,11965,11966,11966,11966,11982,11982,11982,11999,11999,12000,12000,12015,12016,12016,12016,12032,12032,12032,12049,12049,12050,12065,12066,12066,12082,12082,12099,12099,12100,12100,12100,12115,12116,12116,12116,12132,12132,12132,12133,12133,12149,12149,12150,12150,12165,12166,12166,12166,12166,12167,12167,12182,12182,12182,12183,12183,12199,12199,12199,12200,12200,12215,12215,12216,12216,12216,12216,12216,12232,12232,12232,12232,12233,12233,12249,12249,12250,12250,12250,12250,12265,12265,12265,12266,12266,12266,12266,12282,12282,12282,12282,12283,12283,12299,12299,12299,12299,12300,12315,12315,12316,12316,12316,12316,12332,12332,12332,12333,12333,12333,12333,12349,12349,12349,12350,12350,12350,12365,12365,12366,12366,12366,12366,12366,12382,12382,12382,12382,12383,12399,12399,12399,12400,12400,12415,12415,12415,12415,12415,12415,12432,12432,12433,12433,12433,12433,12449,12449,12449,12450,12450,12450,12465,12465,12466,12466,12466,12482,12482,12482,12483,12483,12483,12483,12499,12499,12500,12500,12500,12500,12515,12516,12516,12516,12516,12517,12532,12533,12533,12533,12534,12549,12549,12549,12550,12565,12566,12566,12566,12567,12581,12582,12582,12583,12599,12599,12600,12615,12616" d="m230,26c2.6355,5.05733 2.91621,6.14713 2.968,6.85067c0.0527,0.71594 0.032,1.892 0.032,2.75467c0,0.89467 0,1.78934 0,2.22667c0,1.22517 0,2.30667 0,2.98267c0,0.668 0,2.07067 0,2.82133c0,0.77467 0,1.56533 0,2.764c0,0.8 0,1.6 0,2.4c0,1.2 0,1.99867 0,2.78933c0,0.77467 0,1.52533 0,2.5895c0,1.0065 0,1.6825 0,2.3905c0,1.17334 0,2.036 0,2.93067c0,0.89467 0,2.16667 0,2.93067c0,0.708 0,1.384 0,2.736c0,0.716 0,1.44801 0,2.172c0,1.328 0,2.1515 0,2.876c0,0.952 0,1.747 0,2.632c0,0.64 0,2.03734 0,2.77867c0,0.74933 0,1.49066 0,2.553c0,0.975 0,1.85999 0,2.90033c0,0.696 0,1.60533 0,2.60533c0,0.816 0,1.632 0,2.63334c0,0.94399 0,2.016 0,2.65333c0,0.70133 0,1.45067 0,2.232c0,1.19733 0,1.99733 0,2.79733c0,0.8 0,2 0,2.8c0,0.8 0,1.6 0,2.39999c0,1.20033 0,2.009 0,2.84167c0,0.87267 0,2.29167 0,2.80117c0,1.067 0,1.6185 0,2.7425c0,0.5665 0,1.132 0,2.793c0,0.535 0,1.575 0,2.575c0,0.485 0,1.88 0,2.76534c0,0.87733 0,1.323 0,2.24834c0,1.533 0,2.09716 0,2.68633c0,1.23333 0,1.8675 0,2.50667c0,0.63916 0,2.50666 0,3.097c0,1.12866 0,1.671 0,2.72166c0,0.51233 0,2.02133 0,2.52167c0,1.00867 0,1.521 0,2.57167c0,0.54233 0,2.26132 0,2.87067c0,0.62532 0,1.90799 0,2.55733c0,0.64934 0,1.29466 0,3.16667c0,0.59016 0,1.16133 0,2.25066c0,0.52017 0,1.51651 0,2.916c0,0.88268 0,1.31401 0,2.16667c0,0.85266 0,2.16667 0,3.088c0,0.47816 0,1.4745 0,1.99467c0,1.08932 0,2.25066 0,3.48532c0,0.63734 0,1.28267 0,1.93201c0,0.64934 -0.00017,1.93201 0,3.16667c0.00009,0.5905 0.00113,1.72354 0.01067,2.27199c0.01871,1.07614 0.0217,1.61139 0.15601,3.22801c0.04614,0.55544 0.18513,1.6861 0.25867,2.25867c0.07381,0.57477 0.22847,1.72125 0.29066,2.29066c0.18137,1.66037 0.2077,2.19693 0.248,3.23734c0.01955,0.50484 0.03322,1.485 0.036,2.87999c0.00089,0.44534 -0.01091,1.315 0.04167,2.16667c0.05273,0.85413 0.27708,2.17052 0.52632,3.08667c0.12979,0.47711 0.43761,1.45338 0.58134,1.95999c0.29417,1.03682 0.54297,2.11658 0.67999,3.23734c0.06935,0.56723 0.11162,1.14084 0.14934,2.29066c0.01878,0.57251 0.02133,2.25867 0.02133,2.80367c0,1.06001 0,1.57501 0,2.57501c0,0.485 0,1.87999 0,2.76534c0,0.87732 0,1.77866 0,2.24832c0,1.533 0,2.09717 0,2.68634c0,1.23334 0,1.86749 0,2.50667c0,1.27333 0,2.50667 0,3.097c0,1.12866 0,1.67099 0,2.72166c0,0.51233 -0.00101,2.02133 0.00017,2.52116c0.00233,0.99567 0.01567,1.97952 0.03583,2.46417c0.03955,0.95113 0.17514,2.3161 0.31667,3.17883c0.13747,0.83801 0.23758,1.24393 0.36334,2.05583c0.18556,1.19798 0.23683,2.00093 0.26317,2.80133c0.02632,0.79974 0.02083,2 0.02083,2.8c0,0.8 0,1.59999 0,2.39999c0,1.19983 0,1.9955 0,2.77917c0,1.1355 0,2.19899 0,2.85466l0,0.8835l0,1.13966l0,0.834" id="svg_6" stroke-width="2" stroke="#000" fill="none"/>
  <path t="13003,13082,13082,13082,13082,13082,13082,13099,13099,13099,13100,13100,13100,13115,13116,13116,13116,13116,13116,13132,13132,13132,13132,13132,13133,13133,13133,13149,13149,13150,13150,13150,13150,13150,13150,13150,13165,13166,13166,13166,13166,13166,13166,13166,13166,13182,13182,13182,13182,13182,13183,13183,13183,13199,13199,13199,13200,13200,13200,13200,13200,13215,13216,13216,13216,13216,13216,13216,13216,13217,13232,13233,13233,13233,13233,13233,13233,13233,13234,13249,13249,13250,13250,13250,13250,13250,13250,13250,13265,13266,13266,13266,13266,13266,13266,13267,13267,13282,13282,13282,13283,13283,13283,13283,13283,13284,13299,13299,13300,13300,13300,13300,13300,13300,13301,13315,13316,13316,13316,13316,13316,13317,13317,13317,13356,13357,13357,13357,13357,13357,13357,13357,13358,13360,13360,13360,13360,13360,13360,13360,13361,13361,13369,13369,13369,13369,13369,13369,13369,13370,13370,13382,13382,13382,13383,13383,13383,13384,13384,13384,13399,13399,13400,13400,13400,13400,13401,13401,13401,13415,13416,13416,13416,13416,13417,13417,13417,13417,13432,13432,13433,13433,13433,13434,13434,13434,13434,13453,13454,13454,13454,13454,13454,13454,13454,13455,13465,13466,13466,13466,13466,13467,13467,13467,13482,13483,13483,13483,13484,13484,13484,13484,13484,13499,13499,13500,13500,13500,13501,13501,13501,13501,13515,13516,13516,13516,13517,13517,13517,13517,13517,13532,13532,13533,13533,13533,13533,13533,13533,13534,13551,13551,13551,13551,13552,13552,13552,13552,13552,13569,13570,13570,13570,13570,13570,13571,13571,13571,13589,13589,13589,13589,13590,13590,13590,13590,13590,13608,13608,13608,13608,13609,13609,13609,13609,13609,13627,13627,13627,13627,13628,13628,13628,13628,13648,13648,13649,13649,13649,13649,13649,13649,13650,13651,13652,13652,13652,13652,13652,13652,13653,13653,13672,13673,13673,13673,13673,13674,13674,13674,13693,13693,13693,13693,13694,13694,13694,13694,13694,13711,13711,13711,13712,13712,13712,13712,13712,13713,13731,13731,13731,13731,13731,13732,13732,13732,13749,13749,13749,13750,13750,13750,13750,13767,13768,13768,13768,13768,13768,13769,13785,13786,13786,13786,13787,13787,13804,13805,13805,13805,13805,13805,13825,13825,13826,13826,13845,13845" d="m213,31c-0.87849,4.84283 -0.94594,5.90972 -0.964,6.46133c-0.01831,0.5594 -0.03285,1.69049 -0.03467,2.256c-0.00533,1.66116 -0.00133,2.19733 -0.00133,3.24667c0,0.51517 -0.00003,1.5315 0,2.03466c0.00009,1.50183 0.00148,2.51488 0.01067,3.03334c0.01906,1.07613 0.03978,1.63986 0.07466,2.224c0.11406,1.91027 0.19798,2.60273 0.26733,3.3245c0.07196,0.7489 0.14937,1.52348 0.222,2.3235c0.07477,0.82365 0.1561,1.66974 0.25867,3.42933c0.05295,0.90842 0.08464,1.8306 0.114,2.7585c0.02931,0.92677 0.05133,1.8457 0.078,2.7495c0.02603,0.88187 0.04024,1.73573 0.14134,3.32533c0.04623,0.72692 0.11385,1.41104 0.18599,2.061c0.06934,0.62471 0.14819,1.23056 0.222,1.827c0.07353,0.59423 0.16914,1.19251 0.30417,3.1095c0.04849,0.68853 0.07225,1.39837 0.10651,2.1225c0.03473,0.73421 0.07033,1.47373 0.1245,2.2125c0.05386,0.7346 0.20123,2.1715 0.45816,3.5355c0.12642,0.67115 0.28372,1.33577 0.43201,2.007c0.15041,0.68076 0.30775,1.37563 0.43201,2.097c0.26241,1.52348 0.33372,2.34598 0.39732,3.19733c0.06529,0.87405 0.10365,1.76518 0.129,2.664c0.02533,0.89854 0.03514,1.78931 0.039,2.664c0.00739,1.66932 0.00267,2.45067 0.00267,3.2c0,0.72533 0,1.43467 0,2.136c0,0.70133 0,1.41067 0,2.136c0,1.53066 0,2.34983 0,3.20399c0,0.88417 0,1.79333 0,2.7225c0,0.94417 0,1.89833 0,2.8575c0,1.91334 -0.00085,2.85834 0.00133,3.79333c0.00217,0.925 0.00674,1.84003 0.0195,2.745c0.0126,0.89503 0.02974,1.78024 0.0645,2.655c0.06837,1.72057 0.13269,2.56541 0.19867,3.40133c0.06538,0.82844 0.14111,1.64936 0.216,2.4645c0.07443,0.81019 0.15222,1.61594 0.216,2.4195c0.12704,1.60059 0.16649,2.40117 0.19867,3.20134c0.03217,0.79984 0.05183,1.59995 0.0645,2.39999c0.01266,0.79997 0.01758,1.60001 0.0195,2.39999c0.00385,1.60001 0.00133,2.40018 0.00133,3.20134c0,0.80316 0,1.60933 0,2.41949c0,0.81517 0,1.63634 0,2.46451c0,1.68134 0,2.536 0,3.39867c0,0.86867 0,1.74133 0,2.616c0,0.87466 0,1.74733 0,2.616c0,1.71733 0,2.56233 0,3.39734c0,0.825 0,1.64 0,2.44499c0,0.795 0,1.58 0,2.35501c0,1.51999 0,2.26534 0,3.00266c0,0.73134 0,1.45868 0,2.18401c0,0.72533 0,1.45267 0,2.18401c0,1.48267 0,2.23749 0,3.00133c0,0.77184 0,1.55066 0,2.33549c0,0.78984 0,1.58368 0,2.38051c0,1.59866 0,2.39833 0,3.196c0,0.79367 0,1.58133 0,2.36099c0,0.76967 0,1.52734 0,2.27101c0,1.43733 -0.00087,2.12799 0.00133,2.80266c0.00215,0.66267 0.00684,1.31738 0.0195,1.968c0.01266,0.65073 0.03069,1.30559 0.0645,1.968c0.06972,1.36597 0.13376,2.0752 0.19867,2.80266c0.06638,0.74388 0.14182,1.5013 0.216,2.27101c0.07513,0.77962 0.1525,1.56689 0.216,2.36099c0.12769,1.59654 0.16478,2.39708 0.20132,3.196c0.03645,0.79674 0.06537,1.59079 0.1035,2.38051c0.0379,0.78497 0.07718,1.56467 0.1485,2.33549c0.14072,1.521 0.26717,2.26524 0.39867,3.00267c0.13118,0.73563 0.28316,1.46791 0.43201,2.20349c0.14983,0.74042 0.46159,2.24435 0.66667,3.8125c0.10561,0.8075 0.16985,1.63422 0.21899,2.472c0.04958,0.84494 0.07664,1.69458 0.093,2.54401c0.01628,0.84528 0.01999,1.68266 0.02133,3.31734c0.00064,0.7905 0,1.564 0,2.3235c0,0.74849 0,1.489 0,2.22449c0,0.73351 0,1.468 0,2.95201c0,0.75482 0,1.51866 0,2.2905c0,0.77882 0,1.56366 0,2.3535c0,0.79384 0,1.59067 0,3.18933c0,0.8 0,1.60001 0,2.39999c0,0.8 0,1.60001 0,2.40001c0,0.8 0,1.59999 0,3.2c0,0.80017 0,1.60133 0,2.4045c0,0.80617 0,1.61633 0,2.4315c0,0.82117 0,1.64934 0,3.33066c0,0.85468 0,1.71735 0,2.586c0,0.87268 0,1.74734 0,2.62201c0,0.87268 0,1.74133 0,3.45868c0,0.84515 0,1.68134 0,2.50949c0,0.82117 0,1.63632 0,2.4465c0,0.80615 0,1.60934 0,3.21066c0,0.79965 0,1.59732 0,2.39099c0,0.78769 0,1.56735 0,2.33701c0,0.75766 0,1.50134 0,2.93866c0,0.69067 0,1.36536 0,2.02802c0,0.65466 0,1.30533 0,1.95599c0,0.65466 0,2.68268 0,3.39233c0,0.72766 0,1.47134 0,2.229c0,0.76965 0,1.54932 0,2.33701c0,0.79367 0,2.39099 0,3.19083c0,0.79883 0,1.59567 0,2.3895c0,0.78983 0,1.57468 0,2.35352c0,0.77182 0,2.2905 0,3.03583c0,0.73734 0,1.46866 0,2.92133c0,0.72534 0,1.45267 0,2.18399c0,1.48267 -0.00082,2.23752 0.00133,3.00134c0.00217,0.77182 0.00688,1.55069 0.0195,2.33551c0.0127,0.78986 0.03015,1.58389 0.0645,2.38049c0.06895,1.59924 0.13213,2.39883 0.20001,3.19733c0.06778,0.79721 0.1479,1.59097 0.23549,2.38049c0.0871,0.78516 0.18164,1.56393 0.2805,2.33551c0.19467,1.5192 0.29926,2.26358 0.39734,2.99866c0.19212,1.43982 0.28288,2.14474 0.36533,2.84c0.08119,0.68475 0.16805,1.35858 0.26933,2.68002c0.09822,1.28146 0.11249,1.91391 0.13068,2.54132c0.01813,0.62524 0.03276,1.87799 0.03467,2.50934c0.00389,1.28265 -0.00627,1.93723 0.01033,3.26416c0.00835,0.66656 0.02269,1.33154 0.063,1.99051c0.0791,1.29333 0.24792,2.53064 0.37067,3.11832c0.23692,1.13437 0.40707,1.6713 0.55733,2.20135c0.29286,1.03317 0.67914,2.53955 0.757,3.04132c0.15331,0.98782 0.18648,1.4783 0.22166,2.42834c0.03336,0.90091 0.02133,2.129 0.02133,2.85767c0,0.99298 0,1.61166 0,2.80765l0,0.80252" id="svg_7" stroke-width="2" stroke="#000" fill="none"/>
  <path t="14188,14249,14265,14265,14265,14282,14282,14282,14282,14299,14299,14299,14299,14299,14299,14299,14316,14316,14316,14316,14316,14316,14316,14316,14316,14332,14332,14332,14332,14332,14332,14332,14332,14333,14349,14349,14349,14350,14350,14350,14350,14350,14350,14365,14365,14365,14366,14366,14366,14366,14366,14366,14382,14382,14382,14382,14382,14382,14382,14383,14383,14399,14399,14400,14400,14400,14400,14400,14400,14400,14415,14415,14415,14416,14416,14416,14416,14416,14416,14432,14432,14432,14432,14433,14433,14433,14433,14433,14449,14449,14449,14450,14450,14450,14450,14451,14451,14465,14466,14466,14466,14466,14466,14466,14467,14467,14482,14482,14482,14482,14482,14483,14483,14483,14483,14499,14499,14499,14500,14500,14500,14500,14501,14501,14515,14515,14515,14516,14516,14516,14516,14516,14517,14532,14532,14532,14532,14533,14533,14533,14533,14533,14549,14550,14550,14550,14550,14551,14551,14551,14551,14565,14565,14566,14566,14566,14566,14566,14567,14567,14582,14582,14582,14583,14583,14583,14584,14584,14584,14599,14599,14599,14600,14600,14600,14600,14601,14601,14642,14642,14642,14642,14643,14643,14643,14643,14643,14645,14645,14646,14646,14646,14646,14646,14647,14647,14661,14661,14661,14661,14661,14662,14662,14662,14662,14677,14678,14678,14678,14678,14678,14678,14678,14679,14694,14695,14695,14695,14695,14695,14695,14696,14696,14700,14700,14701,14701,14701,14701,14701,14702,14702,14722,14723,14723,14723,14723,14723,14723,14724,14724,14744,14744,14744,14744,14744,14745,14745,14745,14745,14769,14769,14769,14769,14769,14769,14770,14770,14770,14772,14772,14772,14772,14772,14772,14773,14773,14773,14792,14793,14793,14793,14793,14793,14793,14794,14794,14813,14814,14814,14814,14814,14814,14814,14815,14815,14834,14834,14834,14834,14835,14835,14835,14835,14835,14855,14856,14856,14856,14857,14857,14857,14857,14857,14878,14878,14879,14879,14879,14879,14880,14880,14880,14900,14900,14901,14901,14901,14901,14901,14902,14902,14903,14904,14904,14904,14904,14904,14905,14905,14905,14907,14907,14907,14908,14908,14908,14908,14909,14909,14929,14930,14930,14930,14930,14931,14931,14931,14931,14952,14952,14953,14953,14953,14953,14953,14954,14954,14975,14975,14975,14976,14976,14976,14976,14976,14977,14998,14998,14998,14999" d="m225,29c-0.9955,0.81883 -1,1.772 -1,2.5625c0,0.9255 0,1.95933 0,2.70367c0,0.79633 0,1.65267 0,3.06717c0,0.51033 0,1.599 0,2.18134c0,0.61033 0,1.25067 0,2.62933c0,1.52267 0,2.34183 0,3.196c0,0.88417 0,1.79333 0,2.7225c0,0.94417 0,1.89833 0,2.8575c0,1.91333 0,2.8585 0,3.79467c0,0.92817 0,1.84933 0,2.7645c0,0.91016 0,1.81633 0,2.7195c0,1.80133 0,2.7015 0,3.60267c0,0.90316 0,1.80933 0,2.7195c0,0.91516 0,1.83633 0,2.7645c0,1.88133 0,2.83617 0,3.8c0,0.97183 0,1.95067 0,2.9355c0,0.98983 0,1.98367 0,2.9805c0,1.99866 0,2.999 0,4.00134c0,1.00633 0,2.01866 0,3.03899c0,1.03033 0,2.07267 0,3.12901c0,2.16267 0,3.27216 0,4.39867c0,1.1405 0,2.292 0,3.4515c0,1.1645 0,2.331 0,3.4965c0,2.316 0,3.46083 0,4.59467c0,1.12183 0,2.23067 0,3.3255c0,1.07983 0,2.14367 0,3.1905c0,2.03867 0.00172,3.02884 -0.00267,4c-0.00432,0.95318 -0.01341,1.88947 -0.039,2.8095c-0.02518,0.90533 -0.05943,1.79728 -0.129,2.6745c-0.13669,1.72359 -0.26566,2.56764 -0.39732,3.404c-0.13104,0.83235 -0.28267,1.65867 -0.43201,2.484c-0.14934,0.82533 -0.30513,1.651 -0.43201,2.48399c-0.25581,1.6796 -0.33333,2.53719 -0.39732,3.40401c-0.06479,0.87759 -0.10382,1.76918 -0.129,2.6745c-0.02559,0.92003 -0.03519,1.85632 -0.039,2.80949c-0.00784,1.96132 -0.00267,2.9705 -0.00267,3.99467c0,1.03416 0,2.07333 0,3.1125c0,1.03416 0,2.05833 0,3.06749c0,1.95334 0,2.88884 0,3.79733c0,0.88451 0,1.748 0,2.59351c0,0.83051 0,1.649 0,2.4585c0,1.604 0,2.40401 0,3.20401c0,0.79999 0,1.59999 0,2.39999c0,0.8 0,1.60001 0,2.39999c0,1.60001 0,2.39967 0,3.19734c0,0.79367 0,1.58133 0,2.36099c0,0.76967 0,1.52734 0,2.27101c0,1.43733 0,2.12833 0,2.80533c0,0.66901 0,1.336 0,2.007c0,0.681 0,1.37799 0,2.097c0,1.528 0,2.34666 0,3.19733c0,0.87466 0,1.76534 0,2.664c0,0.89867 0,1.78934 0,2.664c0,1.66933 0,2.45016 0,3.196c0,0.71584 0,1.40666 0,2.0775c0,0.65584 0,1.30167 0,1.9425c0,1.28667 -0.00162,1.94168 0.00267,2.60666c0.00435,0.67502 0.01389,1.36015 0.039,2.05501c0.02548,0.7052 0.0611,1.42099 0.129,2.14499c0.13902,1.48242 0.26651,2.23544 0.39732,2.996c0.13182,0.76648 0.2822,1.53209 0.43201,2.29651c0.14886,0.75958 0.3026,1.50957 0.43201,2.2515c0.25003,1.43341 0.33241,2.12592 0.39732,2.80133c0.06361,0.66202 0.10365,1.31712 0.129,1.968c0.02533,0.6505 0.03519,1.30531 0.039,1.968c0.00786,1.36531 0.00186,2.075 0.004,2.80266c0.00218,0.74367 0.00693,1.50137 0.0195,2.27101c0.01273,0.77971 0.03021,1.56757 0.0645,2.36099c0.06903,1.59792 0.13213,2.39751 0.20001,3.196c0.06778,0.79718 0.1479,1.59097 0.23549,2.38051c0.0871,0.78514 0.18164,1.56392 0.2805,2.33549c0.19466,1.51918 0.2991,2.26393 0.39734,3.00133c0.09743,0.73126 0.19313,1.45837 0.2805,2.18401c0.0873,0.72504 0.17026,1.45206 0.23549,2.18401c0.13203,1.48154 0.16559,2.23759 0.20401,3.00266c0.03893,0.77495 0.07269,1.56029 0.123,2.35501c0.05096,0.8053 0.10921,1.62187 0.213,2.44499c0.2124,1.68449 0.40146,2.53642 0.59734,3.39734c0.19806,0.87051 0.424,1.74133 0.64799,2.616c0.224,0.87466 0.45534,1.74428 0.64799,2.616c0.3783,1.71176 0.49811,2.56119 0.59734,3.39868c0.09799,0.827 0.16217,1.64902 0.213,2.46448c0.05048,0.80991 0.08278,1.61646 0.123,2.41953c0.08023,1.60159 0.13702,2.40155 0.20267,3.20132c0.06569,0.80023 0.14134,1.60001 0.216,2.39999c0.07466,0.79999 0.15231,1.59961 0.216,2.39999c0.12726,1.59924 0.16483,2.3999 0.20132,3.20001c0.0365,0.7999 0.06551,1.60013 0.1035,2.39999c0.03801,0.80011 0.07785,1.60092 0.1485,2.39999c0.14166,1.60214 0.26671,2.40109 0.40001,3.20001c0.13368,0.80115 0.2896,1.60049 0.45149,2.39999c0.16209,0.80048 0.33461,1.59927 0.49651,2.39999c0.3232,1.59857 0.46571,2.39905 0.59599,3.19867c0.1297,0.79608 0.24463,1.59006 0.345,2.38049c0.09959,0.78427 0.18697,1.56305 0.255,2.33551c0.13367,1.51755 0.16904,2.26382 0.20134,3.00134c0.03201,0.73117 0.05183,1.45859 0.0645,2.18399c0.01266,0.72531 0.01759,1.45267 0.0195,2.18399c0.00388,1.48267 0.0005,2.23752 0.00266,3.00134c0.00217,0.77182 0.00688,1.55069 0.0195,2.33551c0.0127,0.78986 0.03015,1.58389 0.0645,2.38049c0.06895,1.59924 0.13286,2.39856 0.19867,3.19598c0.06554,0.79395 0.14085,1.58142 0.216,2.36102c0.07419,0.76971 0.15129,1.52695 0.216,2.271c0.12495,1.43668 0.16614,2.12747 0.19867,2.79999c0.03174,0.65619 0.05176,1.29861 0.0645,1.92902c0.01254,0.6203 0.01758,1.23267 0.0195,1.83899c0.00381,1.20267 0.00133,1.80267 0.00133,2.40268c0,0.59998 0,1.19998 0,1.79999c0,0.60001 0,1.20001 0,1.79999c0,1.20001 0,1.80017 0,2.40134c0,0.60318 0,1.20935 0,1.81952c0,0.61514 0,1.23633 0,1.8645c0,1.28131 0,1.93582 0,2.59732c0,0.6655 0,1.332 0,1.99649c0,0.65952 0,1.311 0,1.95151c0,1.23599 0,1.82617 0,2.39734c0,0.55316 0,1.08932 0,1.6095c0,0.50516 0,0.99634 0,1.47449c0,0.92136 0,1.36633 0,1.80136c0,0.42499 0,0.84 0,1.245c0,0.39499 0,0.78 0,1.155c0,0.72 0,1.065 0,1.72501l0,0.91498" id="svg_8" stroke-width="2" stroke="#000" fill="none"/>
  <path t="15453,15515,15515,15515,15515,15515,15515,15515,15515,15531,15532,15532,15532,15532,15532,15532,15532,15549,15549,15549,15549,15549,15549,15549,15549,15549,15565,15565,15565,15565,15565,15565,15566,15566,15566,15581,15582,15582,15582,15582,15582,15582,15582,15583,15599,15599,15599,15599,15599,15599,15599,15600,15600,15614,15614,15614,15614,15614,15614,15614,15614,15614,15631,15632,15632,15632,15632,15632,15632,15633,15633,15648,15648,15648,15648,15648,15648,15648,15648,15648,15668,15668,15668,15668,15668,15668,15669,15669,15669,15691,15691,15692,15692,15692,15692,15692,15692,15692,15706,15706,15707,15707,15707,15707,15707,15707,15707,15725,15725,15725,15725,15725,15725,15725,15725,15725,15742,15742,15742,15742,15742,15743,15743,15743,15743,15756,15756,15756,15757,15757,15757,15757,15757,15757,15771,15771,15771,15771,15771,15771,15771,15772,15772,15786,15786,15786,15786,15786,15786,15787,15787,15787,15828,15828,15828,15828,15828,15828,15828,15829,15829,15831,15831,15831,15831,15831,15831,15831,15832,15832,15845,15846,15846,15846,15846,15846,15846,15846,15847,15867,15867,15867,15868,15868,15868,15868,15868,15868,15889,15889,15889,15889,15889,15889,15890,15890,15890,15910,15911,15911,15911,15911,15911,15911,15912,15912,15937,15937,15937,15937,15938,15938,15938,15938,15938,15959,15959,15959,15960,15960,15960,15960,15960,15960,15962,15962,15962,15962,15963,15963,15963,15963,15963,15965,15965,15965,15965,15965,15965,15966,15966,15966,15967,15967,15968,15968,15968,15968,15968,15968,15969,15990,15991,15991,15991,15992,15992,15992,15992,15992,16014,16014,16014,16015,16015,16015,16015,16015,16015,16017,16017,16017,16018,16018,16018,16018,16018,16019,16042,16042,16043,16043,16043,16043,16043,16043,16044,16066,16066,16067,16067,16067,16067,16067,16067,16068,16069,16070,16070,16070,16070,16070,16070,16071,16071,16094,16095,16095,16095,16095,16095,16096,16096,16096,16119,16119,16120,16120,16120,16120,16120,16120,16121,16143,16144,16144,16144,16144,16144,16145,16145,16145,16168,16168,16169,16169,16169,16169,16169,16170,16170,16193,16193,16194,16194,16194,16194,16195,16195,16195" d="m226,42c-0.65717,9.457 -0.63663,10.22968 -0.59016,10.98567c0.04564,0.74271 0.10962,1.47279 0.17549,2.193c0.06516,0.71246 0.1447,1.41768 0.248,2.82133c0.0515,0.69973 0.11255,2.10442 0.13068,2.81067c0.01822,0.71009 0.02684,1.42532 0.03149,2.1465c0.0047,0.72816 0.0045,2.2095 0.0045,2.96467c0,0.76617 0,1.54433 0,2.33549c0,0.80517 0,1.62534 0,2.4615c0,0.85316 -0.00098,2.6145 0.00034,3.5245c0.00134,0.93 0.00487,1.88006 0.021,2.85c0.01646,0.99007 0.04422,2.00028 0.093,3.03001c0.04976,1.05033 0.21155,3.21076 0.32851,4.3195c0.11893,1.12733 0.26361,2.26745 0.41849,3.4185c0.15608,1.15997 0.32443,2.32394 0.49051,3.4905c0.16592,1.16544 0.48596,3.48094 0.6265,4.62683c0.13942,1.1368 0.26486,2.26817 0.375,3.396c0.10985,1.12487 0.20511,2.2503 0.285,3.37801c0.08012,1.13098 0.19962,3.41382 0.24016,4.56883c0.04085,1.16368 0.06738,2.33561 0.08551,3.5145c0.01822,1.18479 0.02682,2.37466 0.03149,3.5685c0.00468,1.19682 0.0045,3.5955 0.0045,4.795c0,1.1965 0,2.387 0,3.5685c0,1.1695 0,2.32401 0,3.4605c0,1.1155 -0.0005,3.2715 0.00017,4.30766c0.00066,1.01317 0.00232,2.01035 0.0105,2.9985c0.00816,0.98618 0.02209,1.9774 0.04649,2.9805c0.02487,1.02226 0.10638,3.15166 0.16417,4.27017c0.05945,1.15083 0.1306,2.32538 0.20401,3.51599c0.07391,1.19872 0.15086,2.39725 0.222,3.588c0.07018,1.17458 0.18987,3.44385 0.23116,4.52484c0.03993,1.0457 0.06718,2.0616 0.08551,3.05249c0.01794,0.97079 0.02681,1.92665 0.03149,2.87251c0.00465,0.94083 0.0045,2.8275 0.0045,3.78233c0,0.96382 0,1.93565 0,2.91449c0,0.98483 0,1.97467 0,2.96851c0,0.99683 0,2.9955 0,3.99516c0,0.99767 0,1.99133 0,2.979c0,0.97966 0,1.94933 0,2.907c0,0.94366 -0.00102,2.78101 0.00034,3.67166c0.00133,0.87468 0.00461,1.7374 0.021,2.59201c0.01631,0.85075 0.04396,1.70169 0.093,2.556c0.04955,0.86307 0.21227,2.62883 0.32834,3.53749c0.11847,0.9274 0.26131,1.86722 0.40799,2.81851c0.14798,0.9597 0.30252,1.92343 0.444,2.89049c0.14117,0.96495 0.38005,2.88077 0.46251,3.82651c0.08145,0.93434 0.13675,1.8598 0.18149,2.77499c0.04424,0.90483 0.07532,1.80003 0.10951,2.685c0.03381,0.87503 0.11418,2.59529 0.17316,3.44017c0.0584,0.83647 0.13008,1.66444 0.20401,2.4855c0.07341,0.81528 0.15118,1.62517 0.222,2.4315c0.07053,0.80299 0.19049,2.40425 0.23116,3.20467c0.0407,0.80095 0.06738,1.60425 0.08551,2.41049c0.01822,0.8101 0.02684,1.62532 0.03149,2.4465c0.0047,0.82817 0.0045,2.50951 0.0045,3.364c0,0.8615 0,1.72701 0,2.59351c0,0.8645 0,1.724 0,2.5755c0,0.8405 -0.0005,2.4765 0.00017,3.26717c0.00066,0.77466 0.0023,1.53734 0.0105,2.29199c0.00815,0.7507 0.02197,1.50145 0.04649,2.25601c0.02478,0.76279 0.10612,2.32822 0.16417,3.13733c0.05922,0.82559 0.13052,1.66273 0.20401,2.508c0.07385,0.84941 0.15099,1.69853 0.222,2.54401c0.07031,0.83719 0.19008,2.47177 0.23116,3.2625c0.04018,0.7733 0.06726,1.53293 0.08551,2.28149c0.01805,0.74045 0.02682,1.47598 0.03149,2.2095c0.00467,0.73448 0.00351,2.21849 0.00484,2.97334c0.00134,0.76382 0.00475,1.53571 0.021,2.31448c0.01639,0.78494 0.04381,1.57507 0.093,2.3685c0.04944,0.7973 0.21103,2.39664 0.32834,3.19516c0.11736,0.79889 0.25998,1.59183 0.40799,2.37903c0.14668,0.78018 0.30128,1.54883 0.444,2.30698c0.13991,0.74319 0.38005,2.17999 0.46234,2.87167c0.08017,0.6738 0.13455,1.33698 0.17099,1.992c0.03618,0.65036 0.05371,1.30127 0.063,1.95599c0.0094,0.66263 0.009,2.02802 0.009,2.73767c0,0.72766 0,1.47134 0,2.229c0,0.76965 0,1.54932 0,2.33701c0,0.79367 0,2.39099 0,3.19098c0,0.80002 0,1.60001 0,2.40002c0,0.79999 0,1.59998 0,2.39999c0,0.79999 0,2.39999 0,3.19983c0,0.79883 0,1.59567 0,2.3895c0,0.78983 0,1.57468 0,2.35352c0,0.77182 -0.0005,2.2905 0.00017,3.03583c0.00066,0.73734 0.00232,1.46869 0.0105,2.19598c0.00815,0.72537 0.02191,1.45081 0.04649,2.17801c0.02473,0.73145 0.10582,2.21426 0.16417,2.96851c0.05894,0.76181 0.13025,1.5271 0.20401,2.29349c0.07358,0.76459 0.1508,1.52386 0.222,2.27551c0.07013,0.74036 0.19002,2.17624 0.23116,2.867c0.0401,0.67328 0.06725,1.33289 0.08551,1.98148c0.01804,0.64044 0.02682,1.276 0.03149,1.90952c0.00467,0.63449 0.0045,1.91849 0.0045,2.57349c0,0.66501 0,1.34 0,2.02502c0,0.69498 0,1.39999 0,2.11499c0,0.72501 0,2.20499 0,2.95966c0,0.76266 0,1.53134 0,2.30402c0,0.77466 0,1.54932 0,2.32199c0,0.76868 -0.0005,2.28601 0.00017,3.03101c0.00066,0.73499 0.00226,1.46002 0.0105,2.17499c0.00812,0.70505 0.02162,1.40012 0.04649,2.08502c0.02452,0.67514 0.105,1.99539 0.16417,2.63983c0.05823,0.63425 0.12949,1.25586 0.20401,1.8645c0.07286,0.59503 0.15024,1.17453 0.222,1.73849c0.06956,0.54669 0.18874,1.58524 0.23149,2.07584c0.04114,0.47211 0.07152,0.92877 0.10651,1.371c0.03406,0.43045 0.07018,0.85138 0.1245,1.26297c0.05374,0.40714 0.21602,1.21112 0.33284,1.60886c0.11781,0.40112 0.26024,0.79657 0.40799,1.18948c0.14693,0.39075 0.30104,0.7738 0.444,1.1535c0.13966,0.37097 0.37943,1.08865 0.46234,1.43533c0.07947,0.33221 0.13387,0.655 0.17099,0.96451c0.03529,0.29428 0.05345,0.57455 0.063,0.8385c0.00893,0.24673 0.009,0.68549 0.009,0.87549c0,0.17001 0,0.32001 0,0.45001c0,0.10999 0,0.19998 0,0.26999l0,0.05002" id="svg_9" stroke-width="2" stroke="#000" fill="none"/>
  <path t="16521,16581,16582,16599,16599,16615,16615,16615,16615,16631,16632,16632,16632,16632,16632,16632,16632,16648,16649,16649,16649,16649,16649,16649,16649,16649,16665,16665,16665,16665,16665,16665,16665,16666,16666,16681,16682,16682,16682,16682,16682,16682,16682,16682,16699,16699,16699,16699,16699,16699,16699,16699,16700,16716,16717,16717,16717,16717,16717,16717,16717,16717,16732,16733,16733,16733,16733,16733,16733,16733,16733,16748,16749,16749,16749,16749,16749,16749,16749,16749,16764,16764,16764,16764,16764,16764,16764,16764,16764,16782,16782,16782,16783,16783,16783,16783,16783,16783,16800,16800,16800,16800,16800,16800,16800,16801,16801,16815,16815,16815,16815,16815,16815,16816,16816,16816,16831,16832,16832,16832,16832,16832,16832,16833,16833,16871,16872,16872,16872,16872,16872,16872,16872,16872,16875,16875,16876,16876,16876,16876,16876,16876,16876,16887,16887,16887,16887,16887,16888,16888,16888,16888,16902,16902,16902,16902,16902,16902,16902,16902,16902,16914,16914,16914,16914,16915,16915,16915,16915,16915,16931,16932,16932,16932,16932,16932,16933,16933,16933,16948,16949,16949,16949,16950,16950,16950,16950,16950,16965,16965,16965,16966,16966,16966,16966,16966,16966,16982,16982,16982,16983,16983,16983,16983,16983,16983,17005,17005,17005,17005,17005,17005,17006,17006,17006,17027,17027,17027,17028,17028,17028,17028,17028,17028,17051,17051,17051,17052,17052,17052,17052,17052,17052,17054,17054,17054,17055,17055,17055,17055,17055,17055,17075,17075,17076,17076,17076,17076,17076,17076,17076,17096,17096,17096,17096,17096,17096,17097,17097,17097,17116,17116,17116,17116,17116,17117,17117,17117,17117,17136,17137,17137,17137,17137,17137,17137,17137,17138,17157,17158,17158,17158,17158,17158,17159,17159,17159,17178,17178,17178,17179,17179,17179,17179,17199,17199,17199,17199,17200,17200,17201,17202,17202,17202,17202,17202,17204,17204,17204,17205,17205,17225,17225,17225,17225,17225,17244,17244,17244,17245,17245,17245,17245,17267,17267,17267,17267,17267,17269,17269,17270,17270,17270,17270,17291,17291,17292,17292,17292,17314,17315,17315,17315,17315,17315,17337,17337,17338,17338,17338,17338,17359,17360,17360,17381,17381,17381,17402,17402,17402" d="m217,35c0,0.32267 0,1.23466 0,2.19917c0,0.85417 0,1.86217 0,2.5515c0,0.82533 0,1.2915 0,2.916c0,0.6195 0,1.276 0,1.9665c0,0.7215 0,2.2455 0,3.042c0,0.8155 0,2.4915 0,3.34666c0,0.86617 0,1.74434 0,2.6355c0,0.90517 0,1.82533 0,2.7615c0,0.95317 0,2.9145 0,3.9245c0,1.03 0,2.08 0,3.15c0,1.09 0,2.2 0,3.33c0,1.15 0,3.51 0,4.7195c0,1.2265 0,2.467 0,3.7185c0,1.25951 0,2.524 0,3.7905c0,1.2655 0,3.7815 0,5.02666c0,1.23617 0,2.46433 0,3.6855c0,1.21516 0,2.42533 0,3.6315c0,1.20316 0,3.6045 0,4.8045c0,1.2 0,2.4 0,3.60001c0,1.2 0,2.39999 0,3.6c0,1.2 0,3.6 0,4.7995c0,1.1965 0,2.387 0,3.5685c0,1.1695 0,2.32401 0,3.4605c0,1.1155 0,3.2715 0,4.30733c0,1.01083 0,2.00166 0,2.9775c0,0.96583 0,1.92667 0,2.8875c0,0.96584 0,2.9325 0,3.94217c0,1.02766 0,2.07133 0,3.129c0,1.06967 0,2.14934 0,3.237c0,1.09367 0,3.291 0,4.39067c0,1.09766 0,2.19133 0,3.27899c0,1.07967 0,2.14934 0,3.207c0,1.04367 0,3.08101 0,4.07133c0,0.97234 0,1.92867 0,2.871c0,0.93033 0,1.85066 0,2.763c0,0.90633 0,2.709 0,3.60883c0,0.89883 0,1.79567 0,2.68951c0,0.88983 0,1.77466 0,2.65349c0,0.87184 0,2.5905 0,3.43584c0,0.83734 0,1.66867 0,2.496c0,0.82533 0,1.65067 0,2.478c0,0.83133 0.00049,2.51401 -0.00017,3.369c-0.00067,0.86501 -0.0024,1.74002 -0.0105,2.625c-0.00819,0.89502 -0.02199,1.80008 -0.04649,2.715c-0.02478,0.92509 -0.10568,2.80524 -0.16417,3.75917c-0.05882,0.95941 -0.12996,1.91844 -0.20401,2.8725c-0.0733,0.94427 -0.15034,1.87326 -0.222,2.7825c-0.06967,0.88409 -0.18861,2.55734 -0.23149,3.3385c-0.041,0.74686 -0.07159,1.46608 -0.10651,2.16299c-0.03412,0.68108 -0.07063,1.35242 -0.1245,2.01901c-0.05409,0.66945 -0.21707,2.03801 -0.33284,2.74632c-0.11874,0.72646 -0.26112,1.46298 -0.40799,2.20801c-0.14778,0.74963 -0.3018,1.49805 -0.444,2.24399c-0.14044,0.73676 -0.37994,2.17102 -0.46234,2.86234c-0.08003,0.67146 -0.13435,1.32832 -0.17099,1.97101c-0.03592,0.63004 -0.05363,1.25063 -0.063,1.86299c-0.00928,0.60631 -0.009,1.80901 -0.009,2.40918c0,0.60117 0,1.20433 0,1.81049c0,0.61017 0,1.22534 0,1.84651c0,0.62816 0,1.9095 0,2.564c0,0.6615 0,1.327 0,1.9935c0,0.66451 0,1.32401 0,1.97549c0,0.6405 0.00052,1.87651 -0.00017,2.46684c-0.00066,0.57233 -0.00223,1.12869 -0.0105,1.67099c-0.0081,0.53036 -0.02167,1.05084 -0.04649,1.563c-0.02455,0.50652 -0.10568,1.50943 -0.16417,2.00934c-0.05882,0.50279 -0.13092,1.00873 -0.20401,1.521c-0.07425,0.5204 -0.15215,1.05031 -0.222,1.593c-0.07156,0.55597 -0.19092,1.71864 -0.23116,2.32834c-0.04124,0.625 -0.06738,1.26257 -0.08551,1.90799c-0.01823,0.64926 -0.02681,1.29866 -0.03149,1.944c-0.00462,0.63733 -0.0045,1.87201 -0.0045,2.46268c0,0.57466 0,1.13733 0,1.692c0,0.55066 0,1.10132 0,1.65599c0,0.56267 0,1.728 0,2.33734c0,0.62532 0,1.26266 0,1.90799c0,0.64934 0,1.29868 0,1.944c0,0.63734 0,1.87199 0,2.46266c0,0.57468 0,1.13733 0,1.69202c0,0.55066 0,1.10132 0,1.65601c0,0.56265 0,1.728 0,2.33731c0,0.62534 0,1.26266 0,1.90802c0,0.64932 0,1.29865 0,1.944c0,0.63733 0,1.87198 0,2.46265c0,0.57468 0,1.13733 0,1.69202c0,0.55066 0,1.10132 0,1.65601c0,0.56265 0,1.728 0,2.33731c0,0.62534 0,1.26266 0,1.90802c0,0.64932 0,1.29865 0,1.944c0,0.63733 0,1.87198 0,2.46216c0,0.57117 0,1.12433 0,1.66049c0,0.52017 0,1.02533 0,1.51651c0,0.47815 0,1.39951 0,1.84482c0,0.43735 0,0.86868 0,1.29602c0,0.42532 0,0.85065 0,1.27798c0,0.43134 0,1.314 0,1.76901c0,0.465 0,1.42499 0,1.91998c0,1.02002 0.0016,1.54501 -0.00017,3.17969c-0.00061,0.56265 -0.008,1.70404 -0.02066,2.27866c-0.01266,0.57474 -0.04466,1.71762 -0.14584,2.83334c-0.09811,1.08191 -0.1828,1.60544 -0.33333,2.625c-0.07312,0.49524 -0.24643,1.45172 -0.37849,2.82031c-0.08366,0.86703 -0.10344,1.72128 -0.11084,2.14667c-0.01492,0.85858 -0.01067,2.19635 -0.01067,3.13635c0,0.48499 0,1.48499 0,2.52499c0,1.07999 0,1.63467 0,2.76599c0,0.57266 0,1.72202 0,2.29468c0,0.56866 0,2.23117 0,2.76733c0,1.04932 0,2.07465 0,2.58084c0,1.50449 0,2.00433 0,3c0,0.98364 0,1.46848 0,2.41916c0,1.36417 0,1.80267 0,2.67065c0,0.87601 0,1.784 0,2.74802c0,1.03598 0,1.57648 0,2.6875c0,0.56448 0,1.6965 0,2.8125c0,1.07864 0,1.60049 0,2.60416c0,0.94366 0,1.3905 0,2.61932c0,1.06052 0,1.68585 0,2.77652c0,0.94131 0,1.61932 0,2.84933l0,0.79648l0,0.7515" id="svg_10" stroke-width="2" stroke="#000" fill="none"/>
 </g>
 <g display="none">
  <title>muse_image</title>
  <image xlink:href="http://farm1.static.flickr.com/63/202134556_9767776422.jpg" id="muse" height="480" width="319" y="0" x="160.5"/>
 </g>
 <g display="none">
  <title>bbox</title>
  <rect stroke="#f00" fill="none" stroke-width="3" height="365.76" width="103.45946" y="17.28" x="251.50601" id="bbox"/>
 </g>
</svg>
