<svg width="640" height="480" xmlns="http://www.w3.org/2000/svg" xmlns:svg="http://www.w3.org/2000/svg" xmlns:xlink="http://www.w3.org/1999/xlink">
 <!-- Sketchy ANNOTATION
  ImageNet ID: n02676566_9612
  URL: http://farm4.static.flickr.com/3019/2684762531_84f1df7ae3.jpg
  Image Width: 500
  Image Height: 333
  BBox X: 275
  BBox Y: 169
  BBox Width: 78
  BBox Height: 32
  Exposure: 2000ms
  Synset Label: guitar
  Synset ID: n03467517
  Worker Tag: guitar being held
  Sanity Check: 
   Saved
  Comment: 
   {}
  Worker ID: A2DHLFPCDUTK2O
  Assignment ID: 3S06PH7KSR4ZIUG00RVUIAFF8C5D1W
  HIT ID: 3UUIU9GZC5530HFMX2SJ1KFXJQST5H
  Work Time: 174s
  Worker Score: 0.7857
 END ANNOTATION -->
 <g display="inline">
  <title>Layer 1</title>
  <path t="5605,5794,5832,5832,5871,5888,5905,5918,5934,5982,5990,6014,6029,6031,6038,6070,6079,6136,6175,6190,6190,6206,6214,6238,6270,6302,6311,6320,6342,6358,6366,6390,6398,6408,6430,6462,6494,6494,6511,6526,6574,6590,6655,6664,6786,7513,7547,7553,7600,7646,7678,7695,7734,7734,7766,7798,7806,7830,7838,7863,7895,7902,7927,7951,7966,7967,7982,8056,8104,8136,8158,8191,8191,8214,8231,8241,8258,8279,8321,8358,8366,8390,8406,8422,8471,8502,8527,8603,8664,8664,8719,8728,8743,8767,8804,8829,8849,8877,8903,8911,8927,8950,8966,9006,9014,9054,9062,9082,9111,9143,9182,9199,9206,9246,9278,9318,9353,9394,9424,9480,9504,9504,9568,9632,9812,9951,10024,10118,10267,10463,10601,10657,10677,10950,10977,11094,11186,11348,11407,11463,12701,12757,12915,12961,12984,13132,13167,13283,13416,13480,13529,13620,13865,13889,14054,14206,14297,14376,14376,14516,14667,14751,14804,14823,14838,14846,14862,14862,14936,14967,14984,15024,15063,15094,15110,15134,15135,15159,15219,15239,15255,15271,15295,15303,15334,15359,15377,15399,15430,15446,15446,15478,15503,15518,15542,15555,15575,15637,15637,15655,15687,15742,15767,15871,15899,15905,15942,16529,16761,16830,16854,16902,16935,16951,16982,17038,17101,17132,17146,17183,17183,17187,17187,17215,17255,17286,17287,17303,17318,17327,17366,17390,17398,17408,17414,17414,17422,17423,17430,17731,17776,17839,17847,17894,17910,17927,18035,18060,18209,18239,18435,18697,19520,19583,19684,19684,19707,19713,19758,19832,19843,19857,19903,19934,19986,20164,20332,20355" d="m427,258c-0.87866,-1.2215 -1.18866,-2.12799 -1.7045,-2.7c-0.65579,-0.7272 -1.52527,-0.97095 -2.17416,-1.52133c-0.66122,-0.56084 -0.94287,-1.45203 -1.73199,-1.76801c-0.80679,-0.32304 -1.33298,-0.7623 -2.09384,-1.00616c-0.89548,-0.28702 -1.36609,-0.76814 -2.2955,-1.0045c-0.82364,-0.20946 -1.28201,-0.95728 -2.10001,-1c-0.89877,-0.04694 -1.69998,0 -2.60001,0c-0.89999,0 -1.79999,0 -2.69998,0c-0.89999,0 -1.88113,-0.13733 -2.54733,0.35266c-0.68423,0.50325 -1.44202,0.658 -2.05267,1.14734c-0.61066,0.48933 -1.47562,0.61861 -2.05267,1.14734c-0.69131,0.63344 -1.21741,1.12633 -2.04733,1.57399c-0.64764,0.34933 -1.34177,0.91591 -1.98401,1.49467c-0.64957,0.58536 -1.25278,1.13524 -1.89066,1.70932c-0.57874,0.52087 -0.87631,1.30618 -1.46133,1.96402c-0.61615,0.69284 -1.78891,0.3544 -2.44266,0.832c-0.69907,0.51071 -1.32135,0.77866 -2.22134,0.77866c-0.89999,0 -1.69998,0 -2.60001,0c-0.89999,0 -1.8797,0.3667 -2.77914,-0.02084c-0.71436,-0.3078 -1.22534,-0.9769 -2.12085,-0.97916c-0.89999,-0.00226 -1.84454,0.09546 -2.60001,-0.284c-0.86719,-0.43558 -1.59998,-0.71533 -2.5,-0.716c-0.89999,-0.00067 -1.79999,0.00223 -2.69998,0c-0.89999,-0.00226 -1.63666,-0.32614 -2.39999,-0.716c-0.7529,-0.38452 -1.63806,-0.44681 -2.25269,-0.93134c-0.64944,-0.51199 -1.64734,-0.35266 -2.54733,-0.35266c-0.89999,0 -1.79999,0.00067 -2.69998,0c-0.89868,-0.00067 -1.4379,-0.61021 -2.13602,-0.964c-0.77133,-0.39088 -1.76401,-0.036 -2.664,-0.036c-0.89999,0 -1.70041,-0.02725 -2.60001,0c-0.94412,0.02859 -1.58295,0.6712 -2.17865,1.22134c-0.63693,0.58826 -0.94275,1.45233 -1.73199,1.76797c-0.82626,0.33044 -1.64825,0.43188 -2.48917,0.88934c-0.74738,0.40659 -0.64392,1.34625 -1.12152,2c-0.51071,0.69907 -0.62988,1.41104 -1.13132,2.06866c-0.51608,0.67685 -1.42215,0.98929 -1.64285,1.75717c-0.24738,0.86069 0.28461,1.84747 -0.01517,2.68484c-0.26373,0.73672 -0.98398,1.22128 -0.98932,2.21066c-0.00485,0.89999 0,1.79999 0,2.69998c0,0.90002 0,1.80002 0,2.70001c0,0.79999 0,1.70001 0,2.60001c0,0.89999 0,1.79999 0,2.69998c0,0.90002 -0.08868,1.80441 0,2.70001c0.08374,0.8457 0.76968,1.30554 1.35266,1.94733c0.52625,0.57932 0.63843,1.45825 1.14734,2.05267c0.50638,0.59146 1.31915,1.05151 1.49866,1.80133c0.21359,0.89221 0.77103,1.50421 1.354,2.146c0.52625,0.57932 0.59546,1.38654 1.07266,2.02734c0.50772,0.68176 0.64005,1.46274 1.14935,2.05066c0.56192,0.64862 1.17191,1.2923 1.70932,1.89066c0.57343,0.63846 1.13052,1.16809 1.76868,1.73135c0.5954,0.52554 1.16257,1.29178 2.04733,1.35266c0.89786,0.0618 1.69998,0 2.60001,0c0.89999,0 1.79999,0 2.69998,0c0.89999,0 1.80002,0 2.70001,0c0.89999,0 1.69998,0 2.60001,0c0.89999,0 1.79999,0 2.69998,0c0.89999,0 1.80002,0 2.70001,0c0.89999,0 1.69998,0 2.60001,0c0.89999,0 1.6817,-0.12656 2.35266,-0.64734c0.58377,-0.45313 1.6499,0.04553 2.51132,-0.38867c0.69888,-0.35226 1.22498,-1.06952 1.936,-1.46399c0.88541,-0.49124 1.85004,-0.36832 2.60001,-0.72134c0.77551,-0.36505 1.60458,-0.37549 2.46399,-0.81467c0.69693,-0.35614 1.27438,-0.75919 2.13602,-1.02115c0.88467,-0.26895 1.50192,-0.96426 1.94281,-1.64285c0.51477,-0.79233 0.90619,-1.51437 1.52383,-2.13333c0.61734,-0.61865 0.64746,-1.47137 1.11734,-2.08264c0.52301,-0.68039 1.15732,-1.23981 1.76868,-1.73135c0.6445,-0.51819 1.64734,-0.35266 2.54733,-0.35266c0.89999,0 1.83481,-0.24289 2.6955,0.00449c0.76788,0.2207 1.22516,0.98508 2.10449,0.99551c0.89993,0.01068 1.8494,-0.14587 2.70016,0.22134c0.71893,0.3103 1.55139,0.74326 2.41583,0.77731c0.84744,0.03339 1.70279,0.50186 2.48401,0.83469c0.75153,0.32019 1.70001,0.16666 2.60001,0.16666c0.89999,0 1.79999,0 2.69998,0c0.90002,0 1.80002,0 2.70001,0c0.75717,0 1.65268,0 2.51599,0c0.96317,0 1.82993,0.03317 1.60535,-0.22134c-0.57285,-0.64914 -1.41104,-0.62988 -2.06866,-1.13132c-0.67685,-0.51608 -1.19104,-1.09671 -1.76868,-1.73135c-0.58856,-0.64667 -1.04355,-1.22964 -1.28534,-2.11465c-0.21793,-0.79776 -0.98129,-1.23676 -0.99866,-2.10132c-0.01807,-0.89984 0.11783,-1.91394 0.7045,-2.34283c0.75946,-0.55521 1.3942,-1.0459 2.09683,-1.44119c0.81696,-0.45959 1.84268,-0.70618 2.17783,-1.43683c0.36234,-0.78995 0.54169,-1.47916 1.41019,-1.91516l0.48932,-0.66382l0.40533,-0.81616l0.66333,-0.44119" id="svg_2" stroke-width="2" stroke="#000" fill="none"/>
  <path t="24573,24810,24860,24869,24897,25014,25045,25082,25145,25203,25224,25270,25270,25351,25408,25448,25503,25621,25621,25702,25818,25918,26002,26039,26102,26168,26235,26266,26283,26305,26336,26370,26424,26464,26464,26498,26600,26737,26755,26792" d="m401,267c-1.70001,0 -2.60001,0 -3.564,0c-0.87201,0 -1.83398,0.00009 -2.436,0.5c-0.61972,0.51459 -1.59811,0.82855 -1.91467,1.70001c-0.30865,0.8497 -0.08533,1.79999 -0.08533,2.59998c0,0.90002 0.14532,1.64594 0.716,2.28403c0.58292,0.65176 1.284,0.91599 2.08398,0.91599c0.90002,0 1.80002,0 2.70001,0c0.89999,0 1.79999,0 2.70001,0c0.89999,0 1.95441,0.32318 2.67865,-0.22134c0.64282,-0.48331 1.10333,-1.21411 1.12134,-2.07864c0.01874,-0.89984 0,-1.80002 0,-2.70001c0,-0.79999 0,-1.70001 0,-2.60001l-0.02084,-0.87915l-0.58981,-0.51016l-0.88934,-0.01068" id="svg_3" stroke-width="2" stroke="#000" fill="none"/>
  <path t="27545,27651,27666,27697,27705,27744,27751,27783,27791,27823,27823,27885,27913,27940,27940,27960,27999,27999,28015,28031,28032,28039,28039,28055,28058,28063,28079,28095,28126,28150,28166,28182,28182,28198,28198,28214,28214,28238,28246,28270,28287,28294,28304,28310,28310,28318,28326,28334,28334,28342,28350,28358,28366,28382,28382,28391,28391,28398,28398,28408,28414,28414,28424,28425,28425,28430,28430,28441,28446,28446,28457,28462,28473,28490,28494,28504,28518,28518,28526,28526,28542,28566,28716,28737,28738,28791,28791,28799,28799,28799,28800,28800,28800,28814,28815,28815,28823,28823,28823" d="m404,266c1.83334,-0.16666 2.21524,-0.93912 3.10001,-1c0.89786,-0.0618 1.71274,-0.17105 1.89999,-1c0.19965,-0.88373 1.10001,-1 2,-1c0.79999,0 1.38712,-0.31451 2.16666,-0.83334c0.70746,-0.47089 1.64874,-0.04349 2.59052,-0.22382c0.92618,-0.17734 1.55988,-0.70709 2.49017,-0.88568c0.90457,-0.17365 1.75397,-0.00662 2.73114,-0.05731c0.82349,-0.04269 1.44409,-0.68536 2.3215,-0.94269c0.8642,-0.25345 1.44763,-0.68484 2.22086,-1.03632c0.80057,-0.36389 1.78568,0.08609 2.67917,-0.02219c0.91992,-0.11148 1.52762,-0.75906 2.45715,-0.9415c0.73517,-0.14429 1.74152,-0.05557 2.50684,-0.05716c1.07434,-0.00226 1.57388,-0.6102 2.272,-0.96399c0.77133,-0.3909 1.76401,-0.03601 2.664,-0.03601c0.89999,0 1.67624,-0.12643 2.5,-0.57468c0.78992,-0.42984 1.74548,-0.26016 2.53867,-0.46132c0.8624,-0.2187 1.38202,-0.9514 2.26132,-0.964c0.90442,-0.01297 1.76666,-0.16667 2.60001,-0.5c0.83334,-0.33333 1.6402,-0.4803 2.48401,-0.784c0.88132,-0.3172 1.76199,-0.68741 2.68265,-0.716c0.85379,-0.02652 1.83441,0.03188 2.63333,-0.01067c0.80237,-0.04272 1.78784,-0.36221 2.54285,-0.63667c0.8916,-0.32411 1.70801,-0.6535 2.35718,-1c0.84937,-0.45335 1.79999,-0.35266 2.69998,-0.35266c0.89999,0 1.80002,0 2.70001,0c0.89999,0 1.6701,-0.02049 2.55267,-0.35266c0.70621,-0.26579 1.71075,-0.62933 2.54733,-0.64734c0.89978,-0.01936 1.80023,0.02019 2.59998,0c0.82581,-0.02084 1.51532,-0.15749 2.62817,-0.44284c0.99542,-0.25525 1.53525,-0.416 2.09268,-0.57799c1.1218,-0.32599 1.66882,-0.47171 3.07166,-0.95767c0.72623,-0.25157 1.55417,-0.61084 2.4075,-1.0215l0.79999,-0.38933l0.80002,-0.32533" id="svg_4" stroke-width="2" stroke="#000" fill="none"/>
  <path t="30096,30386,30402,30431,30502,30502,30532,30563,30563,30568,30568,30568,30568,30620,30768,30768,30802,30853,30853,30853,30853,30854,30854,30937,30937,30946,30946,30946,30946,30946,30946,30948,30970,30970,30970,30970,30971,30971,30971,31013,31017,31045,31045,31049,31049,31062,31070,31078,31104,31104,31135,31151,31158,31167,31175,31183,31191,31199,31199,31208,31208,31215,31286,31286,31304,31313,31336,31337,31343,31343,31343,31344,31344,31358,31358,31435,31447,31465,31480,31480,31504,31570,31784,31809,31826,31904,31904,31929,31938,31977" d="m406,269c1.70001,0 2.70001,0 3.52084,0c0.96317,0 1.65381,0.00021 2.72198,0c0.85767,-0.00018 1.64038,-0.08411 2.52118,-0.44266c0.92535,-0.37671 1.552,-0.72504 2.18399,-0.98935c1.16675,-0.48798 2.08392,-0.41391 2.85199,-0.65332c0.82864,-0.2583 1.69858,-0.75888 2.61652,-0.87552c0.39758,-0.05051 1.37637,-0.16693 1.96866,-0.26331c0.67325,-0.10956 2.28305,-0.43588 3.22766,-0.66135c1.0249,-0.24463 2.10156,-0.52512 3.2085,-0.82651c1.11743,-0.30426 2.21863,-0.61835 3.28052,-0.93451c1.00339,-0.29877 2.73376,-0.84702 3.41867,-1.08881c0.57208,-0.20197 1.03873,-0.38303 1.4115,-0.54602c0.29916,-0.1308 0.46536,-0.42191 1.36798,-0.6615c0.87164,-0.23138 1.81488,0.03113 2.58536,-0.14249c0.79269,-0.17862 1.60663,-0.7366 2.47867,-0.87866c0.92447,-0.1506 1.89328,0.12766 2.73599,-0.25735c0.66931,-0.30579 1.49994,-0.77332 2.39999,-0.77866c0.89996,-0.00534 1.82169,0.19489 2.69867,-0.00134c0.80704,-0.18057 1.24799,-0.96234 2.12265,-0.99881c0.85333,-0.03558 1.74518,-0.37167 2.47736,-0.71585c0.79712,-0.37469 1.68533,-0.284 2.54865,-0.284c1.01669,0 1.8548,0.0614 2.75336,-0.00034c0.83383,-0.05728 1.8855,-0.44046 2.6145,-0.70499c0.80643,-0.29263 1.21185,-0.46701 2.03415,-0.72668c1.38162,-0.43631 2.16663,-0.54715 3.08401,-0.56799c0.86194,-0.01958 1.70691,0.04195 2.65067,-0.284c0.70825,-0.24461 1.75967,-0.4276 2.43198,-1c0.60373,-0.51402 1.38873,-0.62511 2.28403,-0.71733c0.81259,-0.08371 1.5,-0.64601 2.29999,-0.97784l0.89999,-0.03149l0.89999,-0.342" id="svg_5" stroke-width="2" stroke="#000" fill="none"/>
  <path t="42990,43323,43613,43647,43800,43895,43912,43937,43985,44051,44087,44168,44168,44201,44298,44314,44328,44352,44452,44661,44981,45015,45087,45151,45217,45289,45319,45369,45369,45452,45511,45544,45929,45976,45999,46015,46038,46070,46135,46153,46175,46189,46207,46284,46284,46327,46386,46715,46715,46768,46819,46887,47219" d="m478,246c0,-1.7 -0.00958,-2.60005 0,-3.5c0.01044,-0.97934 0.6106,-1.49466 1.5,-1.5c0.89996,-0.0054 1.79999,0 2.70001,0c0.89999,0 1.79999,0 2.59998,0c0.90002,0 1.80005,0.0054 2.70001,0c0.8894,-0.00534 1.3739,-0.72559 2.11066,-0.98933c0.83737,-0.29976 2.10208,-0.12917 2.37866,0.60001c0.31543,0.83157 0.01068,1.78932 0.01068,2.68933c0,0.89999 0,1.8 0,2.7c0,0.8 0,1.7 0,2.60001c0,0.89999 0.25082,1.83714 -0.00449,2.6955c-0.22684,0.76265 -1.34567,0.63145 -1.97018,1.12984c-0.60797,0.48518 -1.44269,0.66414 -2.05066,1.14932c-0.62451,0.49838 -1.423,0.66737 -2.05869,1.14134c-0.76883,0.57324 -1.82672,-0.08037 -2.55881,0.34116c-0.81149,0.46724 -1.35718,0.94284 -2.15717,0.94284c-0.90002,0 -1.84283,-0.05716 -2.19553,-0.7045l-0.00449,-0.89551" id="svg_7" stroke-width="2" stroke="#000" fill="none"/>
  <path t="49029,49081,49093,49124,49124,49124,49124,49140,49140,49140,49140,49140,49140,49140,49140,49140,49143,49143,49143,49143,49143,49143,49143,49144,49144,49155,49155,49155,49155,49155,49156,49156,49156,49156,49159,49159,49159,49159,49159,49159,49159,49159,49159,49174,49174,49174,49174,49174,49174,49174,49174,49174,49176,49176,49176,49177,49177,49177,49177,49177,49177,49190,49190,49198,49199,49215,49222,49222,49231,49239,49256" d="m410,265c1.70001,0 2.63712,0.03906 3.504,-0.00534c0.81119,-0.04153 1.702,-0.21738 2.29199,-0.336c1.54056,-0.30978 2.50516,-0.54242 3.59601,-0.79868c1.19989,-0.28186 2.49072,-0.59308 3.858,-0.92249c1.4274,-0.3439 2.89813,-0.70062 4.39801,-1.0575c3.01755,-0.71796 4.50748,-1.05988 5.97198,-1.39334c1.43384,-0.32651 2.83334,-0.63995 4.1925,-0.94501c1.31418,-0.29495 2.57904,-0.57687 3.78751,-0.85498c2.23468,-0.51428 3.24966,-0.76233 4.19867,-1c0.88831,-0.22247 1.71774,-0.43842 2.49298,-0.64502c0.72607,-0.19348 1.40533,-0.37994 2.043,-0.55499c1.16537,-0.31992 1.70102,-0.46536 2.21066,-0.60266c0.48767,-0.13136 0.9577,-0.25735 1.41302,-0.384c0.44601,-0.12405 0.88647,-0.24884 1.323,-0.384c0.88776,-0.27489 1.34018,-0.43571 1.79999,-0.59866c0.46286,-0.16403 0.92245,-0.33263 1.37701,-0.49651c0.44412,-0.16011 0.87292,-0.31622 1.28699,-0.45149c0.75162,-0.24554 1.0892,-0.3308 1.39868,-0.40001c0.28363,-0.06343 0.54776,-0.10931 0.79349,-0.1485c0.23032,-0.03673 0.45099,-0.05862 0.65851,-0.1035c1.01617,-0.21973 1.78751,-0.63213 2.60382,-0.79582c0.95157,-0.19081 1.91483,-0.12151 2.80017,-0.12151c0.79999,0 1.70001,0 2.60001,0l0.89999,0" id="svg_8" stroke-width="2" stroke="#000" fill="none"/>
  <path t="102326,102615,102634,102694,102748,102815,102889,102889,102935,102948,102977,103006" d="m374,282c0,-1.70001 -0.31451,-2.38712 -0.83334,-3.16666c-0.47089,-0.70746 -0.39618,-1.53964 -1.16666,-2c-0.71948,-0.4299 -1,-1.3125 -1.64734,-1.88602l-0.34818,-0.65182l-0.00449,-0.89551" id="svg_11" stroke-width="2" stroke="#000" fill="none"/>
 </g>
 <g display="none">
  <title>muse_image</title>
  <image xlink:href="http://farm4.static.flickr.com/3019/2684762531_84f1df7ae3.jpg" id="muse" height="426" width="640" y="27" x="0"/>
 </g>
 <g display="none">
  <title>bbox</title>
  <rect stroke="#f00" fill="none" stroke-width="3" height="40.93694" width="99.84" y="243.1982" x="352" id="bbox"/>
 </g>
</svg>
