<svg width="640" height="480" xmlns="http://www.w3.org/2000/svg" xmlns:svg="http://www.w3.org/2000/svg" xmlns:xlink="http://www.w3.org/1999/xlink">
 <!-- Sketchy ANNOTATION
  ImageNet ID: n03272010_392
  URL: http://static.flickr.com/3194/2459667783_dfa683b06a.jpg
  Image Width: 457
  Image Height: 500
  BBox X: 190
  BBox Y: 35
  BBox Width: 144
  BBox Height: 451
  Exposure: 2000ms
  Synset Label: guitar
  Synset ID: n03467517
  Worker Tag: upright guitar
  Sanity Check: 
   Saved
  Comment: 
   {}
  Worker ID: A1VGZ2K3HF66TE
  Assignment ID: 3ZGVPD4G6TH3UFX5US41F8HDNO7ZTC
  HIT ID: 3EFNPKWBMSOZ6TVRLHGG2CF88J403M
  Work Time: 41s
  Worker Score: 0.5381
 END ANNOTATION -->
 <g display="inline">
  <title>Layer 1</title>
  <path t="0,141,142,142,142,142,142,142,143,143,158,159,159,159,160,160,160,160,160,192,192,192,192,193,193,202,203,207,247,248,248,248,248,248,248,249,249,274,275,275,275,275,276,276,276,276,283,283,283,284,284,284,284,285,285,311,312,312,312,312,313,313,320,337,338,342,342,358,358,425,426,426,426,427,427,427,427,434,435,435,435,435,451,451,451,451,468,468,469,469,469,471,472,472,473,500,501,503,507,507,508,508,508,509,517,518,519,519,542,547,548,549,549,569,570,570,571,571,572,572,572,574,595,596,596,596,597,599,600,600,601,607,608,609,609,609,610,610,610,610,616,617,617,617,618,618,619,619,620,632,633,633,633,634,634,635,635,635,657,657,658,658,658,659,659,659,660,684,685,686,686,694,694,695,695,696,725,726,726,727,727,727,728,728,728,734,735,735,735,736,736,743,744,745,773,774,774,775,775,776,776,777,777,784,785,785,786,786,787,788,788,789,805,807,807,808,808,809,810,810,811,839,841,842,842,843,843,844,844,845,850,850,851,851,852,852,853,853,854,879,884,886,888,889,890,891,891,892,912,914,915,918,919,924,925,925,926,931,932,933,933,934,934,935,935,936,941,943,944,944,945,946,946,947,947,974,975,975,976,977,977,979,980,981,988,990,991,991,992,993,993,994,995,1030,1031,1032,1033,1033,1034,1035,1036,1038,1056,1057,1058,1058,1059,1065,1066,1068,1069,1092,1094,1094,1095,1096,1096,1097,1098,1098,1104,1106,1106,1107,1108,1110,1111,1112,1113,1125,1126,1127,1129,1129,1131,1133,1135,1138,1148,1150,1151,1151,1152,1154,1155,1157,1158,1175,1176,1177,1177,1178,1179,1179,1180,1181,1206,1207,1208,1209,1209,1210,1211,1211,1212,1226,1228,1230,1233,1236,1238,1239,1240,1241,1262,1263,1264,1265,1266,1267,1268,1271,1274,1289,1290,1291,1292,1293,1294,1295,1296,1297,1320,1322,1323,1324,1325,1326,1326,1327,1328,1333,1335,1335,1336,1338,1339,1341,1343,1344,1359,1360,1361,1362,1364,1366,1366,1367,1368,1387,1389,1390,1391,1392,1392,1394,1395,1396,1412,1414,1415,1416,1417,1418,1419,1420,1422,1446,1447,1449,1449,1450,1451,1452,1453,1454,1472,1474,1475,1476,1477,1478,1479,1481,1482,1507,1509,1510,1511,1512,1513,1515,1516,1518,1525,1527,1528,1529,1530,1531,1532,1534,1535,1562,1564,1565,1566,1567,1568,1569,1577,1579,1590,1592,1593,1595,1596,1597,1598,1599,1600,1623,1625,1626,1627,1628,1630,1632,1634,1635,1641,1642,1643,1645,1646,1647,1648,1649,1651,1681,1683,1684,1685,1686,1688,1689,1691,1692,1704,1706,1708,1709,1710,1712,1713,1715,1717,1739,1741,1742,1744,1745,1746,1747,1748,1750,1765,1767,1768,1770,1772,1775,1777,1778,1780,1788,1790,1792,1793,1795,1796,1799,1801,1805,1820,1822,1824,1825,1827,1828,1829,1830,1831,1837,1839,1840,1842,1844,1846,1847,1849,1851,1877,1878,1880,1881,1883,1885,1887,1889,1891,1908,1910,1911,1912,1915,1917,1918,1920,1923,1946,1948,1950,1951,1953,1955,1957,1958,1960,1975,1977,1979,1981,1982,1984,1986,1988,1990,2010,2012,2014,2016,2018,2020,2022,2025,2027" d="m334,313c-5.16666,-7.16666 -5.71942,-7.92313 -6.28799,-8.68399c-0.57574,-0.77051 -1.16473,-1.54498 -1.77451,-2.31601c-0.61554,-0.77835 -1.24603,-1.55621 -1.90948,-2.31601c-1.34079,-1.53555 -2.06665,-2.26678 -2.79602,-3.00131c-0.73331,-0.73849 -1.48392,-1.46677 -2.23199,-2.20352c-0.75058,-0.73923 -1.50546,-1.47864 -2.23199,-2.2485c-1.45663,-1.54355 -2.13339,-2.36765 -2.80133,-3.20398c-0.67383,-0.84369 -1.3298,-1.71768 -1.98752,-2.61002c-0.66904,-0.90765 -1.33829,-1.84244 -2.0325,-2.78998c-1.43973,-1.96512 -2.20694,-2.97156 -2.99731,-3.99069c-0.79926,-1.03061 -1.61252,-2.0564 -2.4285,-3.07349c-0.8067,-1.00555 -1.60425,-1.98682 -2.38351,-2.93851c-1.46799,-1.79285 -2.15024,-2.616 -2.79065,-3.39066c-0.59961,-0.72531 -1.15952,-1.40042 -1.68002,-2.02499c-0.47952,-0.57541 -0.91888,-1.10092 -1.31998,-1.57501c-0.67816,-0.80157 -0.95966,-1.1264 -1.20401,-1.40533c-0.20877,-0.23831 -0.38727,-0.43799 -0.53851,-0.603c-0.12488,-0.13623 -0.22842,-0.24591 -0.31348,-0.33301c-0.12317,-0.12616 -0.16919,-0.1705 -0.20535,-0.20667c-0.02817,-0.02817 -0.04932,-0.04932 -0.06448,-0.06448c-0.01016,-0.01016 -0.125,-0.02084 -1.1275,-0.02084c-0.65668,0 -1.39334,-0.00293 -2.13,0c-1.34204,0.00534 -1.97922,0.4523 -2.42999,1.33334c-0.22336,0.43655 -0.74762,1.52945 -1.02402,2.17599c-0.29727,0.69531 -0.58762,1.44287 -0.84149,2.241c-0.26276,0.82599 -0.65726,2.58014 -0.7605,3.4935c-0.10526,0.93115 -0.13879,1.89294 -0.138,2.8815c0.00082,1.0206 0.04501,2.07611 0.09601,3.16949c0.05292,1.13464 0.1731,3.53833 0.21317,4.8125c0.04144,1.31784 0.06747,2.67398 0.08548,4.06201c0.01834,1.41397 0.02686,2.84799 0.03152,4.29599c0.0047,1.45599 0.00296,4.36801 0.00497,5.81317c0.00198,1.43616 0.00696,2.86441 0.03152,4.28549c0.02448,1.41528 0.06543,2.82587 0.1395,4.23151c0.07397,1.40375 0.31467,4.20621 0.49316,5.60434c0.17883,1.40067 0.4003,2.79761 0.65399,4.18948c0.25369,1.39188 0.54095,2.77655 0.85199,4.1535c0.3103,1.37375 0.99243,4.09146 1.35019,5.43552c0.35562,1.33594 0.72177,2.65909 1.07248,3.97498c0.3476,1.30411 0.68417,2.59744 0.98251,3.88501c0.29486,1.27255 0.77441,3.79266 0.93817,5.03934c0.16135,1.22827 0.26862,2.44189 0.34198,3.633c0.07169,1.1637 0.10712,2.29855 0.12601,3.39902c0.01822,1.06223 0.01801,3.05698 0.01801,3.98383c0,0.88782 0,1.74765 0,2.59048c0,0.83685 0,1.67868 0,2.5365c0,0.88486 0.00143,2.77951 -0.00049,3.80817c-0.00201,1.08069 -0.00739,2.20544 -0.03152,3.366c-0.02472,1.18881 -0.06567,2.39792 -0.1395,3.61801c-0.07416,1.22534 -0.31363,3.65613 -0.49298,4.84384c-0.17685,1.17114 -0.39581,2.31808 -0.64352,3.43948c-0.2435,1.10233 -0.51624,2.17679 -0.80548,3.22351c-0.28293,1.02393 -0.88248,2.98181 -1.18649,3.91599c-0.29608,0.90979 -0.59717,1.79398 -0.90002,2.65652c-0.29721,0.84647 -0.59851,1.67651 -0.89999,2.49448c-0.29855,0.81003 -0.89951,2.4137 -1.2005,3.21436c-0.30301,0.806 -0.61115,1.62234 -0.93149,2.45248c-0.32861,0.85156 -0.67313,1.72784 -1.03952,2.63251c-0.38153,0.94205 -1.2254,2.94885 -1.69247,4.02051c-0.4848,1.1124 -0.99191,2.24893 -1.51202,3.39899c-0.52188,1.15396 -1.04639,2.29672 -1.56598,3.41699c-0.50449,1.08771 -1.45734,3.11133 -1.89368,4.02802c-0.40903,0.85931 -0.79883,1.6713 -1.16699,2.45099c-0.35715,0.75635 -0.70474,1.50244 -1.04102,2.25302c-0.34113,0.76144 -1.02786,2.37704 -1.37698,3.25217c-0.3631,0.91013 -0.72116,1.84976 -1.06201,2.80948c-0.34116,0.96063 -0.65927,1.91797 -0.936,2.86349c-0.26694,0.91205 -0.66751,2.61758 -0.77365,3.39117c-0.09775,0.7124 -0.13565,1.37762 -0.117,1.992c0.01733,0.57144 0.08447,1.10416 0.189,1.59601c0.09897,0.4657 0.37936,1.3111 0.54199,1.69833c0.15768,0.37549 0.33359,0.73221 0.52502,1.07098c0.18872,0.33395 0.39523,0.65399 0.61499,0.96301c0.22028,0.30975 0.70239,0.91122 0.95999,1.20917c0.26239,0.30344 0.53839,0.60587 0.82501,0.91049c0.29333,0.31174 0.59921,0.6261 0.91498,0.9465c0.32419,0.32895 1.00333,1.01117 1.36102,1.36435c0.37027,0.36557 0.76025,0.74216 1.18799,1.11447c0.45007,0.39178 0.94434,0.78543 1.49402,1.16852c0.58606,0.40845 1.95584,1.20776 2.745,1.595c0.83472,0.40958 1.72437,0.79587 2.64899,1.16849c0.93939,0.37857 1.89343,0.73129 2.84702,1.06052c0.93454,0.32266 2.71857,0.88013 3.54831,1.10681c0.78915,0.21558 1.55844,0.39981 2.32202,0.54602c0.76526,0.14651 1.55353,0.2608 2.37598,0.34799c0.86829,0.09204 2.80777,0.21072 3.90201,0.24884c1.17776,0.04105 2.43399,0.06253 3.76199,0.06448c1.39401,0.00204 2.84824,-0.01767 4.35602,-0.06149c1.55624,-0.04526 4.7886,-0.20569 6.45065,-0.32434c1.67935,-0.1199 3.36029,-0.26633 5.02802,-0.43948c1.64365,-0.17065 3.24692,-0.36331 4.79401,-0.5835c1.48224,-0.21097 4.18521,-0.6857 5.37915,-0.95517c1.10333,-0.24902 2.11902,-0.52222 3.06149,-0.80402c0.8898,-0.26605 1.72971,-0.54822 2.53952,-0.82199c0.79153,-0.26761 2.3667,-0.79208 3.17816,-1.03134c0.82587,-0.24353 1.67068,-0.47104 2.52899,-0.69598c0.86902,-0.22775 1.74963,-0.44952 2.63699,-0.67801c0.89398,-0.23016 2.69238,-0.70923 3.5925,-0.96951c0.91193,-0.26367 1.84048,-0.54837 2.79453,-0.85648c0.99304,-0.32071 2.02933,-0.67215 3.1185,-1.0545c1.15491,-0.40543 3.68613,-1.33176 5.07883,-1.85251c1.47403,-0.55118 3.0162,-1.13519 4.62,-1.737c1.65286,-0.62021 3.34515,-1.25208 5.07001,-1.88101c1.74182,-0.63513 5.24792,-1.86914 6.99448,-2.45331c1.72946,-0.57846 3.44629,-1.13098 5.14352,-1.67102c1.6738,-0.53259 3.32452,-1.04889 4.9455,-1.56299c1.59103,-0.50461 4.66837,-1.50354 6.14581,-2.00851c1.43716,-0.49118 2.82407,-0.98322 4.15802,-1.46848c1.28067,-0.46588 2.49948,-0.92184 3.65399,-1.3605c1.08813,-0.41345 3.04193,-1.17166 3.9035,-1.50684c0.79044,-0.3075 1.51807,-0.59116 2.19449,-0.84601c0.63065,-0.23761 1.22638,-0.45535 1.79852,-0.64801c0.552,-0.18588 1.64441,-0.50809 2.19998,-0.64948c0.56046,-0.14264 1.12729,-0.27185 1.69351,-0.40652c0.56476,-0.13434 1.12579,-0.26941 1.67551,-0.4245c0.54236,-0.15302 1.58133,-0.51251 2.0665,-0.733c0.47498,-0.21585 0.92447,-0.45947 1.34998,-0.71848c0.41449,-0.25229 0.80334,-0.51944 1.17001,-0.7905c0.35327,-0.26114 0.99155,-0.77969 1.28,-1.02634c0.27148,-0.23215 0.52112,-0.45444 0.75,-0.66452c0.21103,-0.1937 0.40063,-0.37399 0.57001,-0.53848c0.15057,-0.14624 0.39209,-0.38348 0.48065,-0.47736c0.07654,-0.08112 0.1431,-0.16467 0.19202,-0.26547c0.05762,-0.11871 0.10403,-0.27798 0.15601,-0.48151c0.06613,-0.25897 0.22842,-0.99442 0.33731,-1.48734c0.12585,-0.5697 0.26453,-1.20328 0.40802,-1.88852c0.15128,-0.72241 0.30243,-1.46994 0.444,-2.2305c0.14111,-0.75812 0.38492,-2.21994 0.46048,-2.90298c0.07184,-0.64926 0.10901,-1.28079 0.05551,-1.8945c-0.05359,-0.61459 -0.1973,-1.23959 -0.44852,-1.85849c-0.27103,-0.66763 -1.17755,-2.07983 -1.79764,-2.8385c-0.67599,-0.82706 -1.45639,-1.65784 -2.29651,-2.49902c-0.86209,-0.86319 -1.76279,-1.70328 -2.6745,-2.517c-0.88983,-0.79416 -2.58917,-2.21643 -3.36484,-2.828c-0.71539,-0.56403 -1.39441,-1.07233 -2.034,-1.55099c-0.61108,-0.45734 -1.20679,-0.89871 -1.78201,-1.353c-0.57953,-0.4577 -1.75269,-1.47198 -2.35532,-2.05283c-0.63242,-0.60956 -1.26703,-1.26553 -1.90802,-1.95151c-0.65381,-0.69968 -1.30115,-1.42044 -1.944,-2.14951c-0.63983,-0.72562 -1.87231,-2.1582 -2.46298,-2.84933c-0.57733,-0.67554 -1.14487,-1.34262 -1.71301,-2.00247c-0.56985,-0.66183 -1.14963,-1.3288 -1.74899,-2.0025c-0.61655,-0.69302 -1.94507,-2.13934 -2.66583,-2.90201c-0.74982,-0.7934 -1.53098,-1.60574 -2.32651,-2.44351c-0.81018,-0.85321 -1.62735,-1.7197 -2.43451,-2.6055c-0.80756,-0.88623 -2.36209,-2.6795 -3.08865,-3.58633c-0.71472,-0.89206 -1.39203,-1.7901 -2.03549,-2.68948c-0.63278,-0.88443 -1.2319,-1.77042 -1.80151,-2.6535c-0.55966,-0.86768 -1.60199,-2.58621 -2.08417,-3.43649c-0.4751,-0.83783 -0.92542,-1.67923 -1.32898,-2.53802c-0.4039,-0.85947 -0.7692,-1.74509 -1.07703,-2.664c-0.31403,-0.93741 -0.79144,-2.94876 -0.95166,-4.02597c-0.16586,-1.11505 -0.26993,-2.27319 -0.34198,-3.46201c-0.07355,-1.21332 -0.10739,-2.44791 -0.12601,-3.69601c-0.01874,-1.25592 -0.01801,-3.76801 -0.01801,-5.01349c0,-1.23849 0,-2.47299 0,-3.70651c0,-1.2355 0,-2.47598 0,-3.72449c0,-1.25952 0,-3.82352 0,-5.13184c0,-1.31833 0,-2.63666 0,-3.94501c0,-1.28833 0,-2.54666 0,-3.76498c0,-1.16833 0.00165,-3.315 -0.00049,-4.27686c-0.00198,-0.89282 -0.00629,-1.72784 -0.03152,-2.5155c-0.02408,-0.75208 -0.06543,-1.47968 -0.1395,-2.1915c-0.07397,-0.71097 -0.31833,-2.16675 -0.49316,-2.92899c-0.1821,-0.79401 -0.40378,-1.60922 -0.65399,-2.44351c-0.25696,-0.85684 -0.54364,-1.72598 -0.85199,-2.6055c-0.3129,-0.89255 -0.99237,-2.68793 -1.35034,-3.58548c-0.35675,-0.89447 -0.72089,-1.77475 -1.08301,-2.63702c-0.35263,-0.83972 -0.69867,-1.64798 -1.02899,-2.42099c-0.31235,-0.73099 -0.86914,-2.04211 -1.10233,-2.61349c-0.20926,-0.51273 -0.39044,-0.97232 -0.54602,-1.3815c-0.13687,-0.35992 -0.25177,-0.6756 -0.34799,-0.94949c-0.08228,-0.23416 -0.20401,-0.59851 -0.24918,-0.73401c-0.03616,-0.10849 -0.06433,-0.19299 -0.08548,-0.2565c-0.01517,-0.0455 -0.02536,-0.07599 -0.03152,-0.09451c-0.00314,-0.00949 -0.00449,-0.01349 -0.00449,-0.01349c0,0 0,0 0,0c0,0 0,0 0,0c0,0 0,0 0,0c0,0 0,0 0,0c0,0 0,0 0,0c0,0 0,0 0,0c0,0 0,0 0,0c0,0 0,0 0,0c0,0 0,0 -0.00101,0.00067c-0.00699,0.00467 -0.026,0.01733 -0.06299,0.04199c-0.061,0.04068 -0.15201,0.10135 -0.27899,0.186c-0.16901,0.11267 -0.65753,0.43719 -0.98535,0.65732c-0.37894,0.25443 -0.79889,0.53952 -1.245,0.858c-0.4707,0.33603 -0.95151,0.69257 -1.42499,1.07401c-0.4733,0.38129 -1.34534,1.17245 -1.71652,1.58316c-0.36075,0.39914 -0.68668,0.82498 -0.99448,1.2735c-0.31961,0.46573 -0.63025,0.97601 -0.95853,1.52551c-0.3559,0.59573 -1.16336,1.9678 -1.63916,2.74966c-0.51334,0.84357 -1.06467,1.73273 -1.64099,2.65952c-0.59299,0.95358 -1.19794,1.92096 -1.80301,2.89349c-0.60025,0.96478 -1.7504,2.82965 -2.28482,3.71133c-0.51218,0.845 -1.00092,1.66211 -1.47751,2.45248c-0.46509,0.7713 -0.92374,1.5285 -1.38751,2.27252c-0.46289,0.74265 -1.42874,2.23004 -1.94098,2.98083c-0.51572,0.75592 -1.03915,1.49796 -1.55551,2.22c-0.49673,0.69461 -0.97174,1.34683 -1.4115,1.94998c-0.39627,0.54349 -1.02582,1.40909 -1.24182,1.7175c-0.16235,0.23181 -0.27759,0.40726 -0.37201,0.5325c-0.07492,0.09937 -0.15466,0.17999 -0.246,0.26251l-0.11932,0.0975" id="svg_1" stroke-width="2" stroke="#000" fill="none"/>
  <path t="2427,2573,2573,2573,2573,2573,2573,2573,2574,2574,2590,2590,2590,2590,2590,2590,2591,2591,2591,2646,2646,2646,2646,2646,2646,2647,2647,2647,2656,2664,2664,2664,2664,2665,2665,2665,2665,2677,2678,2678,2678,2678,2678,2679,2679,2679,2684,2685,2685,2685,2685,2686,2686,2686,2686,2708,2708,2708,2709,2709,2709,2709,2710,2710,2725,2726,2726,2727,2727,2728,2728,2729,2729,2740,2740,2740,2740,2741,2741,2741,2741,2741,2783,2784,2784,2784,2785,2785,2785,2785,2785,2796,2797,2797,2797,2798,2798,2798,2798,2798,2807,2808,2809,2809,2814,2814,2815,2815,2816,2825,2826,2826,2827,2827,2827,2828,2828,2828,2870,2870,2871,2872,2872,2873,2873,2874,2874,2879,2880,2880,2880,2881,2881,2882,2882,2882,2890,2891,2891,2903,2907,2908,2908,2909,2909,2925,2926,2926,2926,2927,2927,2927,2928,2928,2944,2945,2945,2945,2946,2946,2947,2947,2947,2956,2957,2958,2958,2958,2959,2959,2959,2959,2992,2992,2993,2999,3000,3000,3000,3001,3001,3024,3025,3026,3026,3026,3027,3027,3027,3028,3033,3033,3034,3034,3035,3035,3035,3036,3036,3043,3045,3046,3046,3046,3047,3047,3048,3048,3072,3073,3074,3074,3075,3075,3075,3076,3076,3081,3082,3082,3083,3084,3084,3085,3085,3085,3108,3109,3109,3110,3123,3223,3240,3241,3241,3242,3273,3274,3275,3275,3276,3282,3290,3292,3294,3295,3296,3297,3298,3299,3311,3312,3313,3324,3325,3326,3339,3340,3340,3341,3341,3342,3357,3358,3359,3359,3360,3360,3392,3393,3393,3394,3394,3395,3396,3397,3403,3404,3415,3418,3419,3423,3423,3428,3429,3430,3438,3439,3440,3459,3461,3462,3463,3468,3469,3492,3493,3494,3494,3495,3507,3539,3540,3541,3542,3542,3543,3548,3549,3550,3551,3551,3574,3575,3576,3583,3610,3611,3613,3614,3615,3623,3625,3626,3627,3628,3630,3644,3646,3647,3647,3655,3656,3657,3674,3676,3677,3678,3692,3694,3695,3696,3697,3707,3708,3709,3710,3711,3712,3731,3732,3733,3734,3735,3736,3759,3760,3761,3762,3763,3774,3777,3778,3780,3781,3782,3783,3784,3786,3794,3795,3796,3797,3798,3799,3799,3800,3801,3807,3808,3809,3810,3811,3812,3813,3814,3815,3841,3843,3844,3844,3845,3846,3847,3848,3858,3860,3861,3862,3863,3864,3876,3877,3878,3885,3886,3888,3889,3890,3892,3893,3894,3895,3911,3913,3915,3916,3917,3918,3919,3919,3943,3945,3946,3948,3948,3949,3955,3957,3958,3959,3960,3961,3962,3963,3989,3991,3992,3993,3994,3995,4000,4001,4003,4004,4024,4026,4033,4035,4036,4058,4059,4061,4062,4063,4064,4073,4075,4076,4077,4078,4079,4080,4100,4102,4104,4106,4141,4142,4143,4160,4161,4163,4177,4178,4179,4180,4291,4324,4326,4327,4328" d="m332,328c0,-9.83334 0,-10.7785 0,-11.71466c0,-0.92816 0,-1.84933 0,-2.7645c0,-0.91019 0,-1.81635 0,-2.71951c0,-1.80133 0,-2.70099 0,-3.59866c0,-0.89368 0,-1.78134 0,-2.66101c0,-0.86966 0,-1.72733 0,-2.57098c0,-1.63733 0,-2.42883 0,-3.20935c0,-0.7785 0,-1.564 0,-2.36548c0,-0.82651 0,-1.68701 0,-2.59052c0,-1.97198 0,-3.05548 0,-4.19998c0,-1.1965 0,-2.436 0,-3.7095c0,-1.29852 0,-2.61301 0,-3.93451c0,-2.62799 0,-3.91818 0,-5.18933c0,-1.25317 0,-2.48935 0,-3.7095c0,-1.20517 0,-2.39633 0,-3.57449c0,-2.32135 0,-3.46667 0,-4.604c0,-1.13135 0,-2.25867 0,-3.384c0,-1.12534 0,-2.25266 0,-3.384c0,-2.28267 0,-3.43817 0,-4.60666c0,-1.18451 0,-2.388 0,-3.61351c0,-1.25049 0,-2.52899 0,-3.8385c0,-2.724 0,-4.14282 0,-5.59467c0,-1.47783 0,-2.97466 0,-4.48349c0,-1.51384 0,-3.02567 0,-4.5285c0,-2.95067 0,-4.38533 0,-5.78799c0,-1.36867 0,-2.70134 0,-3.996c0,-1.25467 0,-2.46733 0,-3.636c0,-2.19734 0.00089,-3.22284 -0.00134,-4.20134c-0.00214,-0.93449 -0.0065,-1.82805 -0.0195,-2.6835c-0.01245,-0.82054 -0.02902,-1.6093 -0.06448,-2.3685c-0.06747,-1.44472 -0.13284,-2.13564 -0.19867,-2.81467c-0.06549,-0.67564 -0.14236,-1.35455 -0.216,-2.04599c-0.07574,-0.71123 -0.15472,-1.45004 -0.216,-2.226c-0.13342,-1.68948 -0.16467,-2.61861 -0.20267,-3.59468c-0.0394,-1.01193 -0.07233,-2.04822 -0.12299,-3.09599c-0.05066,-1.04826 -0.10425,-2.08604 -0.21301,-3.09599c-0.20557,-1.90871 -0.39343,-2.77856 -0.59866,-3.58934c-0.19406,-0.76665 -0.42444,-1.4805 -0.66751,-2.14799c-0.23077,-0.63379 -0.47873,-1.22517 -0.71249,-1.78801c-0.43405,-1.04503 -0.62888,-1.53453 -0.79733,-2.01334c-0.1644,-0.46729 -0.31158,-0.93492 -0.44849,-1.407c-0.13916,-0.47993 -0.27081,-0.97754 -0.4035,-1.49699c-0.2879,-1.12701 -0.43771,-1.7468 -0.60266,-2.396c-0.17068,-0.6718 -0.34772,-1.35681 -0.53552,-2.04451c-0.18689,-0.68431 -0.37454,-1.35585 -0.58047,-1.9995c-0.38184,-1.19353 -0.59116,-1.71744 -0.80002,-2.19733c-0.19601,-0.45036 -0.40417,-0.86812 -0.61951,-1.26151c-0.21014,-0.38394 -0.43463,-0.75537 -0.66449,-1.1265c-0.47784,-0.7715 -0.73642,-1.17868 -1,-1.60533c-0.27206,-0.44035 -0.54999,-0.89243 -0.83551,-1.3515c-0.28915,-0.46492 -0.58105,-0.93266 -0.88049,-1.3965c-0.59354,-0.91934 -0.89758,-1.36337 -1.20401,-1.80534c-0.31088,-0.44839 -0.63666,-0.90581 -0.978,-1.3815c-0.35995,-0.50166 -0.746,-1.03384 -1.15799,-1.60649c-0.92682,-1.28825 -1.44498,-2.01654 -1.99335,-2.79333c-0.57263,-0.81117 -1.15768,-1.64682 -1.74448,-2.496c-0.58517,-0.84685 -1.15756,-1.68095 -1.69952,-2.496c-0.99637,-1.49844 -1.41827,-2.17271 -1.79599,-2.79466c-0.34796,-0.57295 -0.65952,-1.11272 -0.94199,-1.62601c-0.26938,-0.4895 -0.52002,-0.96964 -0.76202,-1.446c-0.49207,-0.96858 -0.74146,-1.48077 -1.008,-2.00533c-0.27344,-0.53813 -0.55615,-1.08476 -0.85498,-1.632c-0.30115,-0.55147 -0.60999,-1.10085 -0.94501,-1.632c-0.66049,-1.04721 -1.02985,-1.52905 -1.39734,-2c-0.36392,-0.46638 -0.74133,-0.91733 -1.116,-1.368c-0.37466,-0.45067 -0.75519,-0.89919 -1.116,-1.368c-0.73352,-0.95311 -1.06815,-1.47084 -1.39734,-1.99867c-0.33087,-0.53055 -0.64276,-1.07178 -0.94501,-1.6125c-0.29773,-0.53264 -0.57892,-1.0589 -0.85498,-1.56749c-0.51804,-0.95442 -0.76288,-1.38921 -0.99734,-1.79201c-0.21701,-0.3728 -0.42084,-0.71097 -0.60599,-1.0155c-0.16425,-0.2701 -0.31015,-0.502 -0.42599,-0.7005c-0.16129,-0.27641 -0.20831,-0.35957 -0.20267,-0.41067c0.00339,-0.03087 0.04291,-0.0431 0.08698,-0.0555c0.05469,-0.01539 0.12546,-0.03656 0.177,-0.10049c0.15131,-0.18763 0.17914,-0.38322 0.22418,-0.8465c0.08154,-0.83883 -0.3111,-2.11231 0.23715,-2.53217c0.73624,-0.56383 1.60135,0 2.40335,0c0.88199,0 2.25006,-0.00613 2.6955,0.001c0.87326,0.01398 1.75558,0.07461 2.63098,0.342c0.46823,0.14303 1.94092,0.97478 2.45819,1.36633c0.54608,0.41336 1.08755,0.87988 1.63199,1.374c0.55438,0.50316 1.09735,1.02659 1.63199,1.554c1.53259,1.51186 1.99683,1.99119 2.44919,2.44833c0.43695,0.44156 1.26587,1.28891 1.65265,1.70534c1.11215,1.19737 1.44702,1.60701 2.11349,2.4045c0.3284,0.39296 0.97119,1.17453 1.30536,1.54733c0.99393,1.1088 1.73193,1.77812 2.10898,2.11351c0.77582,0.69008 1.19708,1.02782 2.02499,1.79832c0.89325,0.83131 1.33765,1.30685 1.79868,1.79868c0.47473,0.50644 1.43445,1.56848 1.92535,2.10666c0.49271,0.54016 0.97678,1.08693 1.98932,2.10667c0.49319,0.4967 0.99216,0.96729 1.49551,1.40999c0.97128,0.85426 1.46133,1.23946 1.94733,1.60001c1.37088,1.01703 1.82666,1.29535 2.69998,1.80901c0.82803,0.48703 1.24393,0.69803 2.05585,1.11166c1.1969,0.60977 1.98334,0.99367 2.71799,1.36099c0.65466,0.32733 1.62735,0.75485 2.35117,1.26134c0.87723,0.61382 1.49069,1.1869 1.84818,1.47101c0.7207,0.57278 1.48026,0.97003 2.384,1.851c0.57315,0.55869 1.00821,1.2515 1.68399,2.07832c0.37863,0.46324 0.77426,0.94485 1.17151,1.44c1.15106,1.43475 1.50192,1.85959 2.05951,2.6685c0.47964,0.69585 0.96173,1.32646 1.12067,2.57184c0.07706,0.60376 -0.14508,1.56944 -0.25433,2.27032c-0.18225,1.16922 -0.22873,2.04799 -0.24533,2.51201c-0.03488,0.97437 -0.03534,2.00533 -0.03601,3.084c-0.0007,1.11465 0,1.677 0,2.23734c0,1.09866 0,1.629 0,3.09599c0,0.84267 0,1.58133 0,2.52933c0,1.0495 0,1.75601 0,2.74001c0,0.87384 0,1.91333 0,2.688c0,0.83066 0,1.70934 0,2.62799c0,0.95067 0,1.4355 0,2.41917c0,1.4955 0,1.9955 0,2.9955c0,0.5 0,1.5 0,2.5c0,1 0,1.99867 0,2.4955c0,0.98367 0,1.94734 0,2.41917c0,1.36465 0,2.25066 0,3.16866c0,0.48601 0.00043,1.54201 0,2.75c-0.00024,0.67401 0.00015,1.39206 -0.01349,2.14801c-0.01422,0.78809 -0.04056,1.60249 -0.09451,2.43599c-0.05493,0.8486 -0.10535,1.71063 -0.392,3.416c-0.14267,0.84883 -0.34525,1.68137 -0.5535,2.505c-0.20642,0.81639 -0.43011,1.61884 -0.63449,2.41499c-0.20123,0.78389 -0.42667,1.55167 -0.64536,3.08c-0.1062,0.74216 -0.13916,1.4825 -0.14249,2.214c-0.0033,0.72739 0.03342,1.45299 0.08249,2.17799c0.04926,0.72769 0.13971,1.45697 0.27185,3.6965c0.0452,0.7657 0.06744,1.54427 0.08548,2.33551c0.01834,0.8051 0.02689,1.62531 0.03152,2.46149c0.00473,0.85318 0.00598,2.6145 0.004,3.52367c-0.00201,0.92418 -0.00702,1.85847 -0.03152,2.7975c-0.02451,0.93935 -0.06488,1.87416 -0.1395,2.7975c-0.07355,0.91013 -0.31439,2.66539 -0.49231,3.49783c-0.17319,0.81038 -0.3858,1.58977 -0.6015,2.34601c-0.21005,0.73642 -0.4296,1.44875 -0.61951,2.14799c-0.18457,0.67953 -0.46445,2.00221 -0.52966,2.64885c-0.06378,0.63245 -0.07645,1.25565 -0.07352,1.8645c0.00287,0.59488 0.03687,1.17453 0.03452,1.73849c-0.00659,1.58615 -0.06387,2.0882 -0.32251,3.01797c-0.26038,0.93604 -0.48389,1.39108 -0.91333,2.35419c-0.46851,1.05066 -0.73526,1.60941 -1.26334,2.80917c-0.27438,0.62341 -0.54816,1.25797 -0.82199,1.89749c-0.2735,0.63879 -0.54956,1.2699 -1.30334,3.09683c-0.23523,0.57013 -0.47058,1.11746 -0.83865,2.18066c-0.17383,0.50208 -0.51767,1.46463 -0.61935,2.841c-0.06369,0.862 0.07123,1.69962 0.078,2.517c0.00998,1.2052 -0.08026,1.61151 -0.3045,2.409c-0.23178,0.82428 -0.58777,1.6394 -0.90414,2.96216c-0.10794,0.45132 -0.23584,1.39841 -0.29169,2.39584c-0.02911,0.51974 -0.04031,1.6095 -0.04166,2.77084c-0.0007,0.60898 0,1.86298 0,2.496c0,0.629 0,1.24799 0,2.43198c0,1.07202 0,1.99734 0,2.79468c0,1.026 0,1.944 0,2.83951c0,0.8685 0,1.93784 0,2.65631c0,0.95801 0,1.78152 0,2.74451c0,0.66202 0,1.565 0,2.74634c0,0.84332 0,1.70132 0,2.39999l0,0.76266" id="svg_2" stroke-width="2" stroke="#000" fill="none"/>
  <path t="5722,5942,5942,5942,5942,5942,5943,5943,5943,5960,5961,5961,5961,5961,5962,5962,5962,5962,5974,5974,5974,5974,5974,5974,5975,5975,5975,6012,6012,6012,6012,6013,6013,6013,6013,6013,6026,6026,6027,6027,6027,6027,6043,6044,6044,6044,6044,6045,6058,6148,6149,6159,6159,6159,6159,6160,6160,6160,6160,6191,6191,6191,6191,6191,6192,6192,6192,6207,6207,6207,6208,6208,6209,6212,6212,6212,6227,6228,6228,6228,6240,6240,6263,6264,6265,6265,6265,6275,6275,6275,6290,6290,6308,6309,6309,6309,6310,6310,6340,6340,6341,6341,6341,6358,6358,6359,6359,6359,6360,6360,6360,6373,6373,6374,6374,6381,6381,6389,6390,6390,6390,6391,6391,6391,6391,6426,6426,6427,6427,6427,6428,6428,6428,6428,6440,6441,6442,6442,6442,6443,6443,6444,6444,6458,6459,6459,6460,6460,6460,6461,6461,6462,6473,6475,6475,6476,6476,6476,6477,6477,6477,6513,6514,6515,6515,6515,6516,6516,6517,6517,6529,6530,6530,6530,6531,6531,6531,6532,6532,6551,6552,6555,6556,6556,6557,6557,6558,6558,6569,6570,6571,6571,6572,6572,6573,6574,6574,6592,6592,6593,6594,6594,6594,6595,6607,6608,6609,6610,6610,6611,6623,6641,6682,6683,6684,6690,6730,6758,6759,6760,6760,6761,6761,6788,6791,6791,6792,6792,6792,6793,6793,6794,6800,6801,6801,6802,6802,6803,6803,6804,6820,6821,6822,6822,6823,6841,6842,6843,6844,6845,6859,6861,6862,6862,6863,6863,6864,6865,6873,6880,6882,6883,6885,6887,6910,6911,6912,6913,6914,6925,6926,6927,6941,6942,6943,6944,6958,6959,6967,6968,6991,6992,6993,6993,6994,7008,7009,7010,7039,7041,7046,7092,7093,7094,7095,7095,7096,7103,7105,7106,7107,7108,7109,7111,7113,7125,7126,7127,7128,7159,7160,7161,7162,7162,7163,7164,7170,7171,7172,7173,7174,7176,7191,7192,7192,7193,7197,7198,7199,7221,7223,7224,7225,7226,7227,7233,7234,7235,7236,7242,7244,7245,7246,7247,7247,7257,7258,7259,7260,7261,7268,7269,7296,7297,7298,7298,7299,7300,7300,7302,7302,7317,7319,7322,7323,7325,7325,7331,7332,7333,7334,7335,7336,7358,7359,7360,7361,7362,7363,7365,7372,7374,7375,7376,7377,7391,7393,7426,7438,7440,7441,7442,7443,7444,7456,7458,7459,7460,7461,7462" d="m331,328c-4.83334,-9 -5.71249,-10.3017 -6.16083,-10.884c-0.43857,-0.56967 -0.89893,-1.11835 -1.3725,-1.668c-0.48804,-0.56644 -1.01389,-1.14578 -2.13333,-2.448c-0.62271,-0.7244 -1.26978,-1.50229 -1.944,-2.31149c-0.6911,-0.82947 -1.38721,-1.66946 -2.08801,-2.50052c-0.6886,-0.81659 -1.34604,-1.61609 -2.63467,-3.02133c-0.57254,-0.62436 -1.12225,-1.17798 -1.647,-1.67548c-0.49167,-0.46616 -0.97482,-0.89078 -1.44897,-1.28851c-0.46393,-0.38919 -0.93744,-0.76221 -1.90402,-1.53601c-0.5101,-0.40839 -1.03503,-0.83423 -1.57199,-1.272c-0.54568,-0.44489 -1.09448,-0.89487 -1.64401,-1.34399c-0.54514,-0.44553 -1.0799,-0.88611 -2.11731,-1.71732c-0.48923,-0.39197 -1.4213,-1.12195 -1.87201,-1.46133c-0.87173,-0.65637 -1.30032,-0.97647 -2.62799,-1.87201c-0.45059,-0.30396 -0.90732,-0.59787 -1.79468,-1.15732c-0.79553,-0.50156 -1.97488,-0.87814 -1.7215,-1.18185c0.59561,-0.7139 1.02341,1.10751 1.56866,2.332c0.25381,0.56998 0.5372,1.20419 0.8475,1.88852c0.32797,0.72336 0.67108,1.47168 1.0275,2.2305c0.3569,0.75989 1.06891,2.22333 1.41785,2.90265c0.33386,0.64993 0.66632,1.27158 0.99597,1.8735c0.64615,1.17984 0.97995,1.76443 1.30936,2.36267c0.68668,1.2471 1.03925,1.91223 1.39865,2.60132c0.36765,0.70493 0.73401,1.423 1.0965,2.14801c0.36151,0.72299 0.71442,1.44034 1.05151,2.14801c0.64252,1.34888 0.92609,1.98734 1.4595,3.17148c0.24832,0.55127 0.71249,1.58258 0.95801,2.05267c0.68539,1.31232 0.95779,1.69608 1.5,2.41351c0.51672,0.68369 1.09485,1.26828 1.71848,2.21432c0.56415,0.85577 0.77362,1.43646 1.16669,2.5c0.26584,0.7193 0.67056,1.66501 1.01733,2.492c0.20514,0.4892 0.63443,1.56836 0.83731,2.13867c0.20279,0.57007 0.67084,2.1991 0.72583,2.68414c0.09924,0.87503 0.00812,1.7117 -0.189,2.55301c-0.34601,1.4769 -0.54724,2.0387 -0.70883,2.6535c-0.16983,0.64621 -0.34286,1.31561 -0.69064,2.68799c-0.17343,0.68433 -0.33994,1.35638 -0.65869,2.62402c-0.28406,1.12964 -0.4079,1.65594 -0.70831,2.64581c-0.14825,0.48849 -0.4939,1.47983 -0.95834,2.52084c-0.25397,0.56924 -0.54837,1.15924 -1.19733,2.40799c-0.34103,0.65622 -0.69974,1.32343 -1.05902,2.00552c-0.3634,0.68991 -1.08121,2.08441 -1.42233,2.78732c-0.34155,0.7038 -0.6731,1.41968 -0.99597,2.1525c-0.32993,0.74884 -0.65494,1.52496 -0.97803,2.33249c-0.33572,0.83911 -1.01746,2.64627 -1.36832,3.62067c-0.36398,1.01086 -0.72626,2.05112 -1.08301,3.1095c-0.35797,1.06195 -0.70306,2.11996 -1.02899,3.16351c-0.31662,1.01382 -0.8728,2.91895 -1.10266,3.79166c-0.21512,0.81677 -0.40063,1.58957 -0.56702,2.32352c-0.15881,0.70047 -0.30115,1.37735 -0.44098,2.03549c-0.13751,0.64719 -0.42014,1.93716 -0.57767,2.59116c-0.15979,0.66339 -0.33066,1.33154 -0.50403,2.00403c-0.17395,0.67484 -0.35071,1.34894 -0.52197,2.02197c-0.17007,0.6683 -0.48883,1.98538 -0.6315,2.63184c-0.1413,0.64023 -0.27304,1.28168 -0.40652,1.92752c-0.13553,0.65582 -0.27341,1.32721 -0.4245,2.01749c-0.1568,0.71643 -0.5192,2.24359 -0.73315,3.06134c-0.22318,0.85303 -0.46747,1.7308 -0.729,2.6265c-0.26572,0.91 -0.54529,1.82394 -0.83701,2.7345c-0.28967,0.90411 -0.88657,2.65512 -1.19098,3.48901c-0.29572,0.81009 -0.59689,1.59421 -0.90002,2.35648c-0.29694,0.74673 -0.59836,1.47668 -0.89999,2.19452c-0.2984,0.71017 -0.9003,2.11337 -1.19965,2.81299c-0.29797,0.69638 -0.59262,1.38644 -0.87903,2.06851c-0.28091,0.66898 -0.55176,1.32303 -0.80698,1.96048c-0.24603,0.61456 -0.68497,1.77011 -0.87152,2.30753c-0.17728,0.51068 -0.33701,1.00476 -0.48148,1.48798c-0.28394,0.94968 -0.54245,1.92844 -0.828,2.97601c-0.15353,0.5632 -0.47748,1.73087 -0.63733,2.31201c-0.15482,0.56287 -1.90759,2.24725 -0.73169,2.89484c0.45993,0.2533 0.53568,0.1785 0.53568,0.99448c0,0.59735 -0.22995,2.00888 0.216,2.29868c0.93381,0.60684 1.94501,0 2.44266,0c0.54968,0 1.797,0 2.49066,0c1.51733,0 2.33588,0.00238 3.18533,-0.004c0.87155,-0.00653 1.75632,-0.02039 2.6445,-0.0585c0.88388,-0.03793 1.75555,-0.08664 2.59952,-0.19351c1.59387,-0.20187 2.31876,-0.39078 2.992,-0.59998c0.63992,-0.19882 1.23727,-0.43268 1.78348,-0.70651c1.02771,-0.51523 1.4899,-0.81271 2.703,-1.73734c0.38043,-0.28998 1.07718,-0.89462 1.75751,-1.46417c0.66382,-0.55569 1.70535,-1.31766 2.07199,-1.556c0.75665,-0.49188 1.56934,-1.00046 1.97501,-1.30417c1.33707,-1.00101 1.76535,-1.4556 2.22101,-1.91449c0.47162,-0.47498 1.39975,-1.50015 1.85599,-2.03201c0.4548,-0.53018 0.89648,-1.06039 1.728,-2.09598c0.76816,-0.9567 1.11371,-1.41815 1.8125,-2.25c0.3309,-0.39392 0.97595,-1.14078 1.6875,-1.75c0.69189,-0.59241 1.44745,-1.07111 2.20801,-1.47601c0.73108,-0.38922 1.80121,-0.84207 2.46368,-1.10016c0.91165,-0.35516 2.00571,-0.73337 2.71347,-1.06616c0.72122,-0.33911 1.22647,-0.64825 2.091,-1.23386c0.67416,-0.45663 1.37738,-0.97891 2.10901,-1.50897c1.08054,-0.78287 1.76251,-1.26141 2.40149,-1.71219c0.60095,-0.42398 1.17685,-0.81403 2.16135,-1.63467c0.45737,-0.38123 1.03366,-1.00974 2.08133,-1.71332c0.66864,-0.44904 1.21945,-0.68704 1.828,-1.68799c0.24988,-0.41098 0.54886,-0.86523 1.15735,-1.94669c0.33469,-0.59479 0.68707,-1.21872 1.28531,-2.58667c0.30679,-0.70154 0.56845,-1.42645 0.81,-2.15399c0.23837,-0.71796 0.45694,-1.42493 0.80002,-2.77866c0.15781,-0.62274 0.42572,-1.72839 0.54868,-2.62735c0.09982,-0.72995 0.04398,-1.72455 -0.32535,-2.77332c-0.31311,-0.8891 -0.56262,-1.35953 -1.04166,-2.39584c-0.25204,-0.54523 -0.51718,-1.09717 -0.77701,-1.6575c-0.76755,-1.65524 -0.99591,-2.1972 -1.46667,-3.25467c-0.23413,-0.52594 -0.45865,-1.05914 -0.98401,-2.10934c-0.54614,-1.09177 -0.86731,-1.64078 -1.19998,-2.19864c-0.67953,-1.13956 -1.04898,-1.69818 -1.41602,-2.25601c-0.36398,-0.55316 -1.44659,-2.129 -1.793,-2.61801c-0.33362,-0.47098 -0.97247,-1.35184 -1.28,-1.75998c-0.57532,-0.76355 -1.3797,-1.74606 -1.85498,-2.31668c-0.65149,-0.78217 -1.08804,-1.29849 -1.52002,-2.26666c-0.3295,-0.73853 -0.53036,-1.62717 -0.625,-2.10416c-0.20227,-1.0195 -0.28656,-1.56784 -0.42017,-3.33902c-0.04736,-0.62808 -0.0675,-1.27557 -0.08548,-1.93948c-0.0184,-0.67975 -0.03278,-2.0835 -0.03467,-2.80533c-0.00388,-1.47867 -0.00134,-2.233 -0.00134,-2.99335c0,-0.76233 0,-1.52267 0,-2.27701c0,-0.74432 -0.00006,-1.47467 0,-2.18698c0.00018,-1.99017 -0.00278,-2.59875 0.009,-3.18317c0.02234,-1.10925 0.02032,-1.6445 0.16165,-2.66751c0.2092,-1.51434 0.39288,-2.0079 0.68002,-3.02533c0.14703,-0.52097 0.45596,-1.59018 0.58133,-2.14932c0.25952,-1.15738 0.40448,-2.39545 0.45367,-3.03018c0.0495,-0.63864 0.08243,-1.27811 0.10532,-2.53665c0.01108,-0.60913 0.009,-1.76251 0.009,-2.80383c0,-0.92935 0,-1.75467 0,-2.48401c0,-1.20001 0.17816,-1.96005 -0.28583,-2.66135c-0.61871,-0.93512 -1.13876,-1.10599 -1.88351,-1.92267c-0.4136,-0.45352 -0.83859,-0.93042 -1.29599,-1.39349c-1.34103,-1.3577 -1.81299,-1.71149 -2.24802,-2.0585l-0.84,-0.616l-0.79999,-0.552l-0.38501,-0.267" id="svg_3" stroke-width="2" stroke="#000" fill="none"/>
  <path t="7627,7727,7727,7727,7728,7735,7735,7736,7736,7736,7756,7756,7756,7756,7757,7757,7757,7757,7757,7762,7762,7762,7762,7807,7847,7847,7853,7856,7856,7856,7857,7857,7857,7857,7872,7878,7879,7879,7879,7879,7879,7880,7880,7905,7905,7906,7906,7906,7906,7906,7906,7907,7914,7914,7914,7914,7914,7915,7915,7915,7915,7923,7924,7924,7924,7924,7941,7975,7975,7975,7976,7976,7976,7991,7991,7992,7992,7992,7993,7994,7995,7995,8040,8040,8041,8041,8041,8041,8041,8042,8042,8046,8047,8047,8047,8047,8048,8048,8048,8048,8058,8058,8059,8059,8060,8060,8060,8075,8124,8124,8149,8150,8150,8150,8150,8151,8151,8151,8160,8161,8162,8162,8176,8209,8210,8224,8226,8226,8226,8241,8242,8242,8242,8243,8290,8406,8406,8407,8407,8407,8408,8423,8424,8424,8425,8425,8473,8474,8474,8475,8475,8482,8482,8483,8483,8492,8492,8506,8593,8613,8614,8614,8625,8626,8641,8642,8652,8656,8656,8657,8657,8683,8684,8685,8685,8685,8687,8687,8688,8688,8693,8694,8694,8695,8695,8695,8696,8706,8707,8708,8709,8724,8741,8774,8775,8775,8776,8776,8791,8792,8793,8793,8804,8805,8806,8807,8807,8812,8813,8814,8814,8815,8815,8816,8816,8831,8834,8836,8866,8869,8890,8891,8892,8892,8893,8893,8894,8894,8895,8900,8901,8901,8902,8903,8903,8904,8905,8906,8925,8926,8927,8927,8928,8929,8929,8930,8945,8946,8946,8947,8957,8990,8995,8997,8998,8999,9000,9000,9001,9001,9002,9025,9026,9027,9028,9028,9029,9029,9030,9030,9057,9058,9059,9059,9060,9060,9061,9061,9062,9067,9068,9069,9070,9071,9071,9088,9089,9107,9108,9109,9110,9111,9112,9113,9115,9115,9125,9126,9127,9128,9128,9129,9130,9130,9131,9140,9141,9141,9142,9143,9144,9145,9145,9146,9173,9174,9175,9175,9176,9176,9177,9178,9179,9190,9191,9192,9223,9225,9225,9226,9227,9232,9235,9235,9236,9237,9238,9239,9240,9241,9257,9258,9259,9260,9261,9263,9264,9265,9265,9292,9293,9294,9295,9296,9301,9319,9340,9342,9343,9344,9345,9346,9359,9360,9361,9361,9362,9378,9406,9423,9424,9425,9426,9427,9440,9442,9443,9444,9445,9446,9447,9448,9448,9474,9475,9476,9477,9477,9478,9479,9480,9486,9488,9489,9490,9491,9508,9530,9532,9535,9538,9539,9540,9541,9550,9551,9552,9553,9554,9556,9557,9558,9558,9565,9567,9568,9569,9570,9571,9606,9640,9673,9682,9685,9687,9710,9757,9759,9760,9761,9776,9839,9849,9852,9854,9860,9863,9874,9907,9909,9911,9913,10026,10027,10028,10029,10030,10031,10031,10037,10038,10039" d="m318,301c5,7.66666 5.49612,8.3602 6.00134,9.03067c0.49918,0.66248 1.00659,1.31018 1.5195,1.94849c0.51242,0.6377 1.03452,1.27054 1.56448,1.9035c1.07767,1.28708 1.63501,1.93845 2.19467,2.59601c0.55869,0.65643 1.1127,1.30453 1.6575,1.93799c0.52856,0.61456 1.03683,1.20331 1.52249,1.758c0.87067,0.99438 1.5899,1.79907 2.164,2.41336c0.58176,0.62247 0.53757,0.58331 0.08801,0.08798c-0.39926,-0.43991 -1.48419,-1.66888 -1.992,-2.24268c-0.56891,-0.64279 -1.18802,-1.34549 -1.845,-2.09998c-0.68973,-0.79211 -1.40057,-1.61337 -2.11499,-2.46002c-1.43454,-1.70007 -2.11945,-2.54941 -2.78802,-3.38531c-0.6557,-0.81979 -1.29037,-1.62985 -1.90948,-2.42551c-0.6062,-0.77905 -1.1951,-1.54462 -1.77451,-2.2905c-1.11899,-1.44049 -1.66357,-2.13147 -2.20532,-2.80002c-0.53134,-0.65573 -1.06284,-1.29382 -1.60352,-1.90948c-0.5354,-0.60965 -1.07895,-1.20621 -1.6485,-1.77451c-1.14417,-1.14157 -1.76758,-1.6709 -2.38931,-2.19467c-0.61072,-0.5145 -1.21539,-0.99582 -1.7955,-1.44748c-0.54138,-0.42151 -1.04166,-0.79663 -1.4805,-1.13251c-0.66733,-0.51074 -0.88028,-0.67633 -1,-0.80267c-0.06448,-0.06805 0.07568,-0.32114 0.72931,0.25018c0.6257,0.54691 0.83716,1.50204 1.25119,2.26831c0.25244,0.46719 0.54523,0.99118 0.88348,1.57352c0.79523,1.36911 1.2756,2.14853 1.79468,2.98932c0.55048,0.89163 1.13275,1.81857 1.73849,2.77051c0.61688,0.96942 1.24255,1.94238 1.8735,2.90549c1.22461,1.86932 1.81854,2.74722 2.392,3.58801c0.55096,0.80783 1.08722,1.58017 1.6095,2.319c0.50314,0.71176 0.99359,1.39468 1.47449,2.04901c0.91614,1.24649 1.36563,1.83322 1.80002,2.40399c0.4213,0.55356 0.83185,1.08844 1.22549,1.6095c0.38098,0.5043 0.74881,0.99265 1.09052,1.47449c0.6485,0.91446 0.93243,1.36349 1.19864,1.79733c0.25363,0.41333 0.48349,0.81009 0.69,1.18652c0.36624,0.66763 1.21341,1.78085 0.89584,2c-0.54657,0.37717 -1.80475,-1.00311 -2.3725,-1.31717c-0.62723,-0.34695 -1.29932,-0.71722 -2.0025,-1.09952c-0.71683,-0.38974 -1.43283,-0.77713 -2.13751,-1.1445c-1.29602,-0.67566 -1.86267,-0.96478 -2.83447,-1.397c-0.73096,-0.3251 -1.43802,-0.73254 -0.79886,-0.10431c0.48358,0.47534 0.31812,1.59296 0.36536,2.336c0.05402,0.84967 0.1698,1.76825 0.46799,2.664c0.29764,0.8941 0.75027,1.68668 1.18799,2.37598c0.36237,0.57068 0.33417,0.82388 -0.18799,1.62402c-0.37665,0.57718 -0.77621,1.34134 -0.97916,1.77081c-0.42896,0.90768 -0.71744,1.37723 -0.93466,2.89569c-0.1412,0.98703 -0.06665,1.4946 0.0925,2.46414c0.07913,0.48203 0.46637,1.8775 0.80798,2.75201c0.33878,0.86728 0.54025,1.29141 0.97501,2.13666c0.68207,1.32605 0.95731,1.76892 1.47751,2.67752c0.25323,0.44232 0.81458,1.22195 1.12082,1.95914c0.31387,0.75555 -0.48666,0.51068 -1.47867,0.51068c-0.69733,0 -1.82388,-0.95609 -2.75198,0.00116c-0.27789,0.28659 0.71658,1.5481 0.94531,1.99619c0.25592,0.5014 0.8252,1.65076 1.15466,2.27731c0.34665,0.65924 0.70059,1.35248 1.57068,2.72534c0.44934,0.70898 0.94598,1.40045 1.45801,2.08649c0.51202,0.68604 1.03937,1.35312 1.56598,2.00552c0.51544,0.63855 1.0275,1.24911 1.97601,2.40799c0.4371,0.53403 0.84467,1.04211 1.22849,1.52399c0.71027,0.89169 1.0303,1.31552 1.66751,2.08667c0.89075,1.078 1.19351,1.40607 1.772,2.02133c0.75214,0.79996 1.78058,1.578 1.54617,1.86801c-0.51691,0.63956 -1.52173,0.00217 -2.40167,-0.125c-0.51257,-0.0741 -1.67953,-0.33832 -2.97916,-0.875c-0.73022,-0.30154 -1.47336,-0.69836 -2.2395,-1.12949c-0.79016,-0.44464 -1.57639,-0.92767 -2.35651,-1.42651c-0.77289,-0.49423 -1.52005,-0.99011 -2.90399,-1.944c-0.6275,-0.43253 -1.20529,-0.84143 -1.74301,-1.21951c-0.4996,-0.35126 -0.95966,-0.68475 -1.81067,-1.25266c-0.38513,-0.25702 -1.43668,-0.93103 -2.401,-1.3345c-0.73145,-0.30603 -1.15582,0.02048 -0.7605,0.47299c1.03217,1.18149 1.53177,1.70477 2.07382,2.30969c0.59027,0.65872 1.21692,1.35901 1.87051,2.08649c0.66772,0.74323 1.33859,1.48926 2.00549,2.2215c1.26205,1.38568 1.84457,2.01016 2.392,2.59067c0.51434,0.54541 1.00552,1.05713 1.47751,1.54199c0.45471,0.4671 0.90103,0.91861 1.3425,1.362c0.88541,0.88925 1.34149,1.34201 1.80133,1.80402c0.46283,0.465 0.92484,0.9299 1.37701,1.39648c0.87891,0.90692 1.30795,1.33319 2.37683,2.57733c0.31238,0.36359 0.85065,1.02866 1.43698,1.86301c0.57217,0.81418 0.21329,0.85199 -0.77216,0.41385c-0.49353,-0.21942 -1.06845,-0.47498 -1.71451,-0.76651c-0.71002,-0.32037 -1.47397,-0.66891 -2.28149,-1.0455c-0.84552,-0.39432 -1.72153,-0.80081 -3.504,-1.68799c-0.90283,-0.44937 -1.80206,-0.91614 -2.70001,-1.39502c-0.90207,-0.48108 -1.80212,-0.9762 -2.69998,-1.48499c-0.90216,-0.51123 -1.80646,-1.02936 -3.60001,-2.12c-0.90143,-0.54816 -1.78625,-1.10657 -2.65051,-1.65451c-0.83304,-0.52814 -1.61987,-1.03372 -2.35349,-1.5015c-0.66675,-0.42514 -1.24493,-0.81699 -2.16266,-1.34399c-0.29337,-0.16849 -0.49332,-0.29221 -0.61353,-0.285c-0.04868,0.00293 0.20972,0.4068 0.92603,1.07666c0.60748,0.56808 1.35364,1.20892 1.84833,1.64716c0.57855,0.51251 1.23636,1.09198 1.9725,1.7265c0.80203,0.69135 1.66989,1.42682 2.60248,2.19452c0.98059,0.80722 3.0932,2.47913 4.21567,3.32748c1.14285,0.86377 2.30969,1.71768 3.48453,2.56201c1.16553,0.83765 2.31982,1.65015 3.44849,2.436c1.08875,0.75806 3.11505,2.14868 4.03015,2.77283c0.84225,0.57446 1.61105,1.09613 2.30402,1.56448c0.61438,0.41525 1.14914,0.77496 1.60199,1.07852c0.36853,0.24704 0.84604,0.56546 0.953,0.63681c0.02899,0.01935 -0.008,-0.00531 -0.099,-0.06598c-0.133,-0.08868 -0.29599,-0.19733 -0.47699,-0.31799c-0.18701,-0.12469 -0.51944,-0.37454 -0.66733,-0.44434c-0.74362,-0.35092 -1.79855,-0.23807 -2.60767,-0.26434c-0.48535,-0.01578 -1.02701,-0.03156 -2.27469,-0.14932c-1.48364,-0.14001 -2.31036,-0.26669 -3.18665,-0.40134c-0.91614,-0.14078 -1.85861,-0.30396 -2.81552,-0.49051c-0.96451,-0.18805 -1.92377,-0.38947 -2.8605,-0.62549c-1.79236,-0.45163 -2.61383,-0.72433 -3.38931,-0.99469c-0.73749,-0.25711 -1.42969,-0.52786 -2.0835,-0.79648c-0.62213,-0.25562 -1.20779,-0.51392 -1.76852,-0.7515c-1.04172,-0.44138 -1.5314,-0.63248 -2.00131,-0.79736c-0.85736,-0.30084 -1.58609,-0.6326 -2.70935,-0.80533c-0.48154,-0.07404 0.1691,0.49704 0.75735,0.97467c0.73767,0.59894 1.14606,0.93338 1.98416,1.67667c0.43176,0.38293 1.2749,1.16666 2.01715,1.97668c0.68613,0.74878 0.97903,1.11526 1.49417,1.77664c0.8385,1.07657 0.79468,1.42868 -0.3515,1.42868c-0.79065,0 -1.25549,0 -2.31915,0c-0.59683,0 -1.9155,0.00189 -2.63452,-0.00067c-0.75299,-0.00269 -1.53427,-0.00974 -2.33698,-0.04199c-0.81934,-0.03293 -1.64954,-0.0874 -2.48102,-0.186c-0.83276,-0.09875 -2.46796,-0.42068 -3.25284,-0.65649c-0.77411,-0.23257 -1.51804,-0.51505 -2.2395,-0.80551c-0.70218,-0.28271 -1.36795,-0.58875 -2.0235,-0.84149c-1.76361,-0.67999 -2.30878,-0.82458 -3.28198,-0.88651c-0.80936,-0.05151 -1.883,0.19751 -1.66251,0.58801c0.58911,1.04333 1.3186,0.92737 1.99182,1.621c0.3826,0.3942 1.19977,1.3006 1.65268,1.78934c0.47635,0.51404 1.51523,1.59137 2.0835,2.14133c0.58365,0.56488 1.19116,1.12579 1.81201,1.68298c0.62119,0.5575 1.24603,1.10095 1.866,1.629c0.6041,0.51456 1.75668,1.46863 2.29266,1.90186c0.50143,0.4053 1.39923,1.12076 2.15332,1.68915c0.57776,0.43549 0.92059,0.41852 0.38535,0.54666c-1.04047,0.24908 -1.70001,0.68002 -2.44666,0.97867c-0.70667,0.28268 -1.99612,0.76166 -1.79333,1.51733c0.21561,0.80341 0.66666,1.33334 0.96133,1.92267c0.591,1.18201 0.20975,1.75082 -0.36618,2.12051c-0.75479,0.4845 -1.31012,0.85452 -2.52182,1.40216c-0.78915,0.35666 -1.37997,0.13873 -0.74002,0.72134c0.51947,0.47293 0.31445,1.33316 0.3815,2.16064c0.12204,1.50574 0.16724,2.0704 0.23849,2.65533c0.14703,1.207 0.24463,1.81094 0.36002,2.40268c0.22025,1.12936 0.51999,2.11465 0.83466,2.91733l0.47702,0.86401" id="svg_4" stroke-width="2" stroke="#000" fill="none"/>
 </g>
 <g display="none">
  <title>muse_image</title>
  <image xlink:href="http://static.flickr.com/3194/2459667783_dfa683b06a.jpg" id="muse" height="480" width="438" y="0" x="101"/>
 </g>
 <g display="none">
  <title>bbox</title>
  <rect stroke="#f00" fill="none" stroke-width="3" height="432.96" width="138.01313" y="33.6" x="283.10066" id="bbox"/>
 </g>
</svg>
