<svg width="640" height="480" xmlns="http://www.w3.org/2000/svg" xmlns:svg="http://www.w3.org/2000/svg" xmlns:xlink="http://www.w3.org/1999/xlink">
 <!-- Sketchy ANNOTATION
  ImageNet ID: n03272010_10441
  URL: http://farm4.static.flickr.com/3026/3063610540_ca914a252e.jpg
  Image Width: 375
  Image Height: 500
  BBox X: 126
  BBox Y: 40
  BBox Width: 122
  BBox Height: 401
  Exposure: 2000ms
  Synset Label: guitar
  Synset ID: n03467517
  Worker Tag: a guitar
  Sanity Check: 
   Saved
  Comment: 
   {}
  Worker ID: AI16JQPI42EKR
  Assignment ID: 3AZHRG4CU4K1TDTLBJLIRWATC1T03P
  HIT ID: 34D9ZRXCYRUZRNEO3YEAZQZX9LFASF
  Work Time: 73s
  Worker Score: 0.7857
 END ANNOTATION -->
 <g display="inline">
  <title>Layer 1</title>
  <path t="0,358,361,361,390,410,411,431,440,450,471,490,504,538,538,544,560,570,570,587,587,600,616,616,633,650,650,670,683,683,700,720,740,770,770,790,820,830,830,840,859,870,889,909,919,919,933,950,969,970,970,989,989,1000,1016,1033,1050,1050,1066,1066,1083,1083,1100,1100,1119,1119,1133,1133,1150,1150,1166,1166,1166,1183,1183,1183,1200,1200,1216,1216,1233,1250,1250,1266,1283,1300,1316,1316,1339,1339,1369,1398,1428,1439,1479,1479,1499,1534,1534,1550,1551,1566,1583,1600,1601,1618,1633,1650,1679,1679,1708,1718,1718,1733,1751,1768,1783,1800,1800,1818,1838,1838,1858,1858,1868,1883,1900,1917,1918,1933,1950,1966,1983,1983,2000,2016,2016,2033,2033,2050,2066,2066,2083,2083,2100,2100,2117,2117,2133,2150,2166,2166,2183,2200,2200,2217,2217,2233,2250,2250,2267,2287,2287,2300,2316,2316,2333,2350,2350,2367,2367,2383,2383,2400,2400,2416,2416,2433,2433,2450,2466,2466,2483,2483,2500,2500,2516,2516,2517,2533,2550,2550,2566,2583,2583,2600,2600,2616,2616,2617,2633,2633,2650,2650,2650,2666,2666,2683,2683,2700,2700,2700,2716,2716,2716,2733,2733,2750,2750,2766,2766,2766,2786,2786,2786,2786,2800,2800,2800,2816,2816,2836,2836,2836,2850,2850,2850,2866,2866,2883,2883,2900,2900,2916,2916,2916,2933,2933,2933,2933,2950,2950,2966,2966,2966,2983,2983,3000,3016,3016,3033,3033,3033,3050,3066,3083,3083,3100,3100,3116,3116,3133,3133,3133,3150,3150,3166,3183,3183,3200,3200,3200,3216,3216,3233,3250,3250,3266,3266,3267,3283,3283,3300,3300,3316,3316,3333,3333,3350,3350,3366,3366,3383,3383,3383,3400,3400,3416,3416,3416,3433,3433,3450,3450,3466,3466,3483,3483,3500,3500,3516,3516,3516,3533,3533,3533,3550,3550,3566,3566,3583,3583,3600,3600,3600,3616,3633,3633,3650,3666,3666,3666,3666,3683,3683,3683,3683,3700,3700,3716,3716,3733,3733,3750,3766,3766,3783,3783,3783,3800,3800,3816,3816,3816,3833,3833,3833,3850,3866,3866,3866,3883,3883,3900,3900,3916,3934,3934,3934,3950,3950,3966,3966,3983,3983,3984,4000,4016,4016,4016,4034,4034,4034,4050,4050,4066,4066,4083,4083,4100,4100,4116,4116,4116,4133,4133,4134,4134,4150,4150,4166,4166,4167,4183,4183,4200,4216,4216,4233,4233,4234,4250,4250,4267,4267,4267,4283,4284,4300,4300,4301,4316,4317,4317,4333,4333,4350,4350,4351,4351,4366,4366,4383,4383,4383,4384,4384,4400,4400,4400,4416,4416,4417,4433,4433,4434,4434,4450,4451,4466,4466,4483,4483,4500,4500,4501,4516,4516,4533,4552,4552,4567,4567,4583,4584,4584,4600,4600,4601,4616,4616,4617,4633,4633,4650,4650,4651,4666,4666,4683,4702,4703,4703,4716,4716,4733,4733,4750,4766,4783,4783,4784,4800,4800,4816,4816,4833,4833,4834,4851,4851,4851,4866,4867,4883,4884,4900,4900,4916,4933,4933,4950,4950,4951,4966,4967,4983,4984,4984,5000,5000,5016,5017,5033,5033,5050,5050,5051,5066,5067,5083,5083,5084,5100,5100,5101,5101,5116,5117,5133,5133,5134,5134,5150,5150,5151,5166,5167,5184,5184,5200,5201,5201,5216,5217,5233,5233,5234,5251,5252,5252,5267,5284,5284,5300,5301,5316,5333,5333,5350,5350,5366,5367,5383,5383,5400,5400,5416,5417,5433,5433,5450,5466,5467,5483,5483,5500,5501,5516,5517,5533,5533,5550,5551,5551,5566,5567,5583,5583,5584,5600,5601,5616,5617,5633,5633,5650,5650,5651,5666,5667,5683,5684,5701,5701,5701,5721,5721,5721,5733,5750,5751,5751,5766,5783,5784,5800,5801,5801,5816,5817,5833,5850,5851,5867,5867,5867,5883,5900,5900,5916,5917,5933,5950,5951,5966,5967,5983,6000,6001,6001,6016,6017,6033,6034,6050,6051,6066,6067,6083,6100,6120,6140,6150,6151,6170,6183,6200,6201,6220,6240,6250,6269,6309,6310,6319,6330,6339,6353,6367,6368,6384,6401,6402,6417,6418,6434,6434,6434,6451,6467,6468,6484,6501,6517,6518,6534,6551,6551,6567,6568,6584,6601,6601,6629,6629,6639,6639,6651,6667,6684,6701,6717,6734,6735,6755,6768,6784,6809,6809,6838,6839,6858,6859,6888,6908,6918,6999,7000,7068,7088,7100,7128,7148,7158,7218,7218,7299,7418,7458,7477,7491,7506" d="m296,265c-0.88666,-1.08401 -1.67471,-1.31625 -2.34732,-1.7045c-0.92926,-0.53638 -1.68958,-1.03241 -2.45267,-1.37952c-0.85428,-0.38858 -1.58936,-0.89066 -2.20001,-1.41599c-0.61066,-0.52533 -1.34573,-1.0274 -2.20001,-1.41599c-0.76309,-0.34711 -1.45795,-0.83447 -2.09998,-1.37952c-0.75473,-0.64072 -1.70239,-0.86777 -2.336,-1.31516c-0.68781,-0.48567 -1.53622,-0.70532 -2.19467,-1.58934c-0.51831,-0.69588 -0.73474,-1.44798 -1.46933,-2.0955c-0.66223,-0.58372 -1.67682,-0.60583 -2.26401,-1.35117c-0.56134,-0.71252 -0.32727,-1.78702 -0.95685,-2.3325c-0.65143,-0.56444 -1.23187,-1.17137 -1.64581,-2.02083c-0.31787,-0.65227 -0.76813,-1.53206 -1.186,-2.3c-0.45758,-0.84091 -0.64667,-1.5 -0.64734,-2.39999c-0.00067,-0.90001 0,-1.8 0,-2.7c0,-0.90451 0.10373,-1.93274 -0.02084,-2.57918c-0.18347,-0.95203 -0.92337,-1.4854 -1.14581,-2.35416c-0.23715,-0.92619 -0.47778,-1.69148 -0.93317,-2.52367c-0.4119,-0.75272 -0.8815,-1.54248 -0.90018,-2.44301c-0.01868,-0.8998 -0.22708,-1.79616 -0.61066,-2.336c-0.59814,-0.84183 -0.93839,-1.57271 -1.48935,-2.3425c-0.45944,-0.64191 -1.23849,-1.29495 -1.69998,-1.90683c-0.55298,-0.73318 -0.90018,-1.52013 -1.68268,-2.23067c-0.61487,-0.55832 -1.2767,-1.20479 -1.51733,-1.90483c-0.33621,-0.97818 -0.69357,-1.59735 -1.22134,-2.17917c-0.75006,-0.82686 -1.37415,-1.39551 -1.94266,-1.964c-0.81448,-0.81448 -1.31516,-1.31516 -2.03601,-2.036c-0.5,-0.5 -1.21759,-1.18283 -1.89983,-1.90001c-0.55774,-0.58632 -0.83313,-1.46498 -1.51083,-1.92532c-0.73987,-0.50256 -1.70567,-0.89603 -2.38933,-0.95384c-0.97525,-0.08247 -1.77628,-0.14487 -2.60001,-0.59549c-0.78055,-0.42699 -1.70654,-0.53238 -2.59999,-0.42401c-0.9198,0.11156 -1.50113,0.70204 -2.2,1.39867c-0.60097,0.59904 -1.20001,1.20001 -1.8,1.8c-0.60001,0.60001 -1.30397,1.27252 -2.10001,1.75183c-0.80408,0.48415 -1.07306,1.16902 -1.79984,1.80534c-0.68214,0.59724 -1.44791,1.0618 -1.81616,1.81216c-0.34998,0.7131 -0.58073,1.59937 -0.91733,2.43066c-0.30658,0.7572 -0.15627,1.70006 -0.16667,2.60001c-0.01042,0.90018 -0.53526,1.60632 -0.87849,2.50017c-0.28474,0.74152 -0.12151,1.72516 -0.12151,2.73315c0,0.79201 0,1.65067 0,2.51401c0,0.89549 0,1.85266 0,2.75267c0,0.89999 0,1.7 0,2.59999c0,0.90001 0,1.82083 0,2.784c0,0.69067 -0.12215,1.65904 0.16667,2.68268c0.19055,0.67537 0.97911,1.33983 1.47617,1.93866c0.52731,0.63528 0.48265,1.75156 0.87799,2.39467c0.52626,0.85609 1.04106,1.47018 1.35783,2.47867c0.23773,0.75687 0.37938,1.73402 0.82584,2.31149c0.58163,0.7523 1.65814,0.87798 2.12883,1.70984c0.41286,0.72964 0.72565,1.49457 1.26668,2.32133c0.43135,0.65918 0.93958,1.48442 1.37917,2.15784c0.51653,0.79129 0.88939,1.66823 1.23683,2.32082c0.4189,0.78683 0.60068,1.67099 0.93134,2.54733c0.3334,0.88361 0.6467,1.70718 1,2.35269c0.42508,0.77664 0.3042,1.7894 0.38866,2.51065c0.11705,0.99957 0.43777,1.79666 0.964,2.62268c0.44112,0.69241 0.92891,1.48331 0.98933,2.37732c0.06671,0.98697 -0.12822,1.81436 0.23199,2.76782c0.24939,0.66013 0.76067,1.43167 0.77867,2.34283c0.01686,0.85318 -0.00426,1.79468 0,2.56268c0.00534,0.96271 0.05161,1.81 0.284,2.79868c0.18883,0.80334 0.51729,1.53168 0.65884,2.50299c0.1467,1.00662 0.05716,1.69968 0.05716,2.63968c0,1.008 0,1.79999 0,2.66132c0,0.76001 0,1.93451 0,2.728c0,0.77551 0,1.81735 0,2.59067c0,0.96402 0,1.71552 0,2.51199c0,1.22552 0,1.87201 0,2.88269c0,0.79999 0.02917,1.8009 -0.01067,2.61066c-0.04314,0.87677 -0.25726,1.87854 -0.51016,2.68933c-0.17191,0.55115 -0.58888,1.57416 -0.95834,2.45834c-0.36394,0.87097 -0.5183,1.70966 -0.74232,2.58481c-0.19095,0.74594 -0.49129,1.62061 -0.7785,2.6235c-0.20457,0.71432 -0.40262,1.44492 -0.564,2.172c-0.29361,1.32285 -0.28499,2.16803 -0.49734,2.80402c-0.3481,1.04254 -1.20274,1.45078 -1.77199,2.19067c-0.48219,0.62674 -0.74374,1.45688 -1.16667,2.5c-0.28722,0.7084 -0.64215,1.50525 -0.95183,2.414c-0.21701,0.63681 -0.80765,1.37015 -1.34283,2.15717c-0.51743,0.76093 -0.6192,1.60999 -0.87201,2.59549c-0.21478,0.83725 -0.55603,1.508 -0.83333,2.33334c-0.32124,0.95612 -0.42456,1.65366 -0.8,2.52798c-0.41508,0.96664 -0.98285,1.46219 -1.14732,2.55383c-0.09058,0.6012 -0.01102,1.56796 -0.33667,2.52884c-0.26534,0.7829 -0.65208,1.59811 -1.00134,2.54132c-0.27605,0.74548 -0.72917,1.50769 -1.10399,2.30402c-0.33855,0.71927 -0.56793,1.70941 -0.96333,2.51517c-0.43486,0.88614 -0.61105,1.69601 -0.64734,2.52884c-0.0401,0.92023 -0.34897,1.82764 -0.61067,2.37732c-0.47443,0.99649 -0.91371,1.7735 -1.10399,2.38934c-0.30148,0.9758 -0.28458,1.91467 -0.28534,2.89999c-0.00064,0.8215 0.03401,1.72638 -0.22133,2.70001c-0.16075,0.61298 -0.53503,1.39148 -0.726,2.39548c-0.17365,0.91293 -0.60373,1.72617 -0.886,2.57117c-0.27457,0.8219 -0.16667,1.83334 -0.16667,2.63333c0,0.80002 0,1.80002 0,2.60001c0,0.99869 0.04616,1.7652 -0.00133,2.71735c-0.04265,0.85507 -0.28584,1.64975 -0.49867,2.38266c-0.33836,1.16519 -0.48958,1.97897 -0.5,2.82166c-0.01143,0.92496 0,1.845 0,2.62653c0,0.7905 0,1.90915 0,2.70248c0,0.89218 0,1.61066 0,2.40115c0,1.26151 0,1.90652 0,2.92685c0,0.90533 0,1.85733 0,2.62265c0,0.99869 0,1.79868 0,2.79868c0,0.80002 -0.05754,1.80515 0.04167,2.62085c0.08173,0.67194 0.52348,1.66464 0.95833,2.47916c0.29276,0.54837 0.77306,1.57449 0.97917,2.45834c0.20323,0.87149 0.59065,1.50922 1.12067,2.36316c0.41956,0.67596 0.74438,1.67664 0.87483,2.46783c0.11932,0.72375 0.55083,1.68549 1.12517,2.31067c0.54747,0.59592 0.8568,1.47122 1.34332,2.44299c0.24445,0.48825 0.80048,1.28873 1.24484,1.85968c0.71147,0.91415 1.25818,1.48602 1.77032,2.05566c0.69043,0.76794 1.25043,1.59232 1.6425,2.28983c0.42709,0.7598 1.15868,1.354 1.65634,2.23032c0.38213,0.67288 0.77155,1.51398 1.44417,2.22418c0.43987,0.46445 1.12267,1.3381 1.62399,2.048c0.35121,0.49734 0.95036,1.46768 1.54933,2.07733c0.72794,0.74091 1.47621,1.05939 2.02983,1.42917c1.02342,0.68359 1.53964,1.26715 2.11017,1.67349c0.82549,0.58792 1.8248,0.89182 2.49068,1.27466c0.7511,0.43185 1.65974,0.96524 2.32266,1.23334c0.86993,0.35181 1.40836,0.93707 2.21365,1.56134c0.74005,0.57367 1.4548,0.82153 2.20767,1.064c1.09622,0.35303 1.88428,0.40472 2.73599,0.72134c0.74515,0.27701 1.71957,0.8049 2.30402,1.11465c0.7319,0.38788 1.52429,1.12238 2.37732,1.43335c0.83685,0.30508 1.52658,0.2204 2.51733,0.45065c0.8222,0.19107 1.62576,0.46625 2.62933,0.63199c0.83575,0.13803 1.75961,0.45563 2.57068,0.80002c0.74283,0.31543 1.53433,0.28363 2.51733,0.56799c0.84903,0.24557 1.76263,0.56998 2.55582,0.66333c0.8512,0.10019 2.04608,0.20389 2.64017,0.33667c0.86633,0.19363 1.61667,0.51245 2.60184,0.65884c0.84671,0.12582 1.85284,0.05716 2.47684,0.05716c0.966,0 2.05951,0 2.892,0c0.95285,0 1.91867,0 2.67868,0c0.91998,0 1.70151,0 2.492,0c1.11865,0 1.91199,0 2.80417,0c0.978,0 1.77448,0 2.77316,0c0.68399,0 1.85065,0 2.63666,0c0.82199,0 1.88068,0 2.59018,0c0.85266,0 1.862,0.03452 2.72916,-0.03601c1.06583,-0.0867 1.69553,-0.2439 2.36801,-0.38931c0.99881,-0.21597 2.10577,-0.40829 2.85999,-0.59552c1.01682,-0.25241 1.55579,-0.54599 2.19733,-0.84048c0.69992,-0.32129 1.40823,-0.68759 2.81601,-1.25201c0.6344,-0.25436 1.51816,-0.5567 2.56534,-0.76566c0.69211,-0.13809 1.42157,-0.20453 2.34265,-0.785c0.85483,-0.53873 1.32776,-1.09488 1.89468,-1.48401c0.95789,-0.6575 1.8392,-0.78424 2.79999,-0.85333c0.7706,-0.05542 1.7377,-0.41531 2.28851,-0.76031c0.82416,-0.51624 1.57922,-1.23364 2.11017,-1.75433c0.73453,-0.72037 1.24591,-1.32419 2.00616,-1.98401c0.61682,-0.53534 1.33557,-0.85062 2.3125,-1.5c0.56055,-0.37259 1.33432,-0.99838 2.00266,-1.41068c0.76648,-0.47281 1.57489,-1.06271 2.164,-1.61017c0.61154,-0.5683 1.19983,-1.17899 1.78934,-1.76849c0.72534,-0.72534 1.35608,-1.30206 1.96332,-2.02051c0.59869,-0.70834 1.04105,-1.45499 1.59467,-2.12766c0.59811,-0.72672 1.43274,-1.20792 1.62735,-1.93451c0.29602,-1.10526 0.36267,-1.73691 0.72983,-2.52798c0.46912,-1.01071 0.84296,-1.5545 1.17416,-2.57849c0.26019,-0.80447 0.7287,-1.47058 1.06866,-2.32602c0.32855,-0.82672 0.5708,-1.71765 0.854,-2.29681c0.48947,-1.00101 0.90674,-1.78229 1.07718,-2.59869c0.16479,-0.78928 0.09235,-1.8009 0.13217,-2.61066c0.04312,-0.87677 0.26733,-1.87366 0.48932,-2.66849c0.21033,-0.75311 0.41711,-1.72147 0.58401,-2.48883c0.22775,-1.04709 0.53937,-1.76898 0.74933,-2.69867c0.20383,-0.90253 0.16666,-1.74402 0.16666,-2.655c0,-0.92502 0,-1.845 0,-2.62653c0,-0.7905 0,-1.90915 0,-2.70248c0,-0.89218 0,-1.61066 0,-2.40115c0,-1.26151 0,-2.1015 0,-2.92685c0,-0.90533 0,-1.86801 0,-2.483c0,-1.22101 0,-2.01749 0,-2.76898c0,-0.96851 0,-1.82269 0,-2.82401c0,-0.64267 0,-1.34134 0,-2.77869c0,-0.67999 0,-1.625 0,-2.20499c0,-1.27768 0.00665,-1.9617 0,-3.12833c-0.00452,-0.79053 0.03491,-1.36887 -0.17065,-2.23468c-0.29114,-1.22617 -0.68613,-1.77402 -1.12402,-2.58432c-0.46906,-0.86801 -0.6915,-1.63834 -0.98932,-2.50101c-0.26553,-0.76917 -0.58411,-1.6759 -0.65884,-2.46152c-0.09882,-1.03864 -0.05716,-1.90915 -0.05716,-2.85715c0,-0.96533 0,-1.73633 0,-2.30368c0,-1.19064 0,-2.06967 0,-2.87665c0,-1.04367 0,-2.01434 0,-2.77151c0,-0.89551 0,-1.75882 0,-2.74283c0,-0.8215 0,-1.71066 0,-2.69983c0,-0.77933 0,-1.77884 0,-2.55283c0,-0.90451 -0.02869,-1.65231 0.00134,-2.64603c0.02856,-0.94537 0.36795,-1.84039 0.79999,-2.48532c0.50861,-0.75922 0.82132,-1.47012 1.17334,-2.48001c0.29395,-0.84332 0.79706,-1.35245 1.32083,-2.29315c0.40091,-0.72003 0.54218,-1.5498 0.72983,-2.50684c0.16122,-0.8223 0.71289,-1.56696 1.17468,-2.32132c0.43246,-0.70645 0.79999,-1.51468 1.19998,-2.31467c0.39999,-0.80002 0.84866,-1.57901 1.164,-2.40002c0.37589,-0.9787 0.38284,-1.82333 0.60535,-2.39999c0.40701,-1.05481 1.07248,-1.50253 1.58798,-2.37866c0.43036,-0.73141 0.81808,-1.50156 1.42801,-2.23199c0.65457,-0.78391 1.07629,-1.379 1.51016,-2.18933c0.42307,-0.79016 0.76276,-1.60501 1.3045,-2.43335c0.4653,-0.71146 1.01642,-1.49295 1.29999,-2.17648c0.31863,-0.76804 0.69556,-1.82541 0.99551,-2.5285c0.34225,-0.80222 0.58179,-1.72861 0.87115,-2.62833c0.2179,-0.67746 0.67368,-1.32388 1.22269,-2.20801c0.47897,-0.77133 0.54059,-1.66074 0.77731,-2.62534c0.20038,-0.81653 0.5415,-1.38559 0.74933,-2.39868c0.15536,-0.75732 0.55005,-1.78311 0.91736,-2.60132c0.28622,-0.63757 0.38623,-1.54318 0.66666,-2.5c0.21466,-0.73239 0.32062,-1.73367 0.72134,-2.60016c0.32867,-0.71069 0.74335,-1.55139 0.77731,-2.41583c0.03372,-0.85809 0.22964,-1.80252 0.50134,-2.48401c0.38852,-0.97455 0.49933,-1.79868 0.5,-2.672c0.00067,-0.87085 0,-1.58932 0,-2.37982c0,-1.26285 0,-1.92734 0,-2.94818c0,-0.78934 0,-1.83334 0,-2.62534c0,-1.02734 0,-1.72198 0,-2.73868c0,-0.93597 0,-1.836 0,-2.73599c0,-0.89999 0.19186,-1.73322 -0.05716,-2.60001c-0.21976,-0.76498 -1.14984,-1.31815 -1.58566,-2c-0.52667,-0.82397 -0.81296,-1.68205 -1.27316,-2.49866c-0.39612,-0.7029 -1.12067,-1.12746 -1.884,-1.51733c-0.7529,-0.38455 -1.73477,-0.23103 -2.5,-0.63666c-0.84595,-0.44841 -1.67123,-0.85994 -2.30002,-1.222c-0.77936,-0.44876 -1.7215,-0.42534 -2.61066,-0.42534c-0.98935,0 -1.78934,0 -2.78934,0c-0.78934,0 -1.51468,0 -2.5,0c-0.98401,0 -1.87704,-0.22375 -2.73834,0.0045c-0.82877,0.21964 -1.34406,0.8508 -2.11349,1.04817c-0.91205,0.23396 -1.61169,0.98853 -2.28415,1.54733c-0.65237,0.54211 -1.4234,0.81219 -2.19601,1.59866c-0.5668,0.57697 -1.44724,0.70967 -2.14648,1.24417c-0.60754,0.46439 -0.89462,1.51886 -1.62152,2.1105c-0.69394,0.56482 -1.46024,0.88751 -1.97467,1.47198c-0.54871,0.62341 -0.94089,1.4798 -1.52533,2.07468c-0.59467,0.60529 -1.27267,1.33328 -2.09866,1.81598c-0.69763,0.40768 -1.11591,1.1109 -1.82217,1.58401c-0.7926,0.53094 -1.43787,1.02176 -2.17917,1.69867c-0.58435,0.5336 -1.41803,0.79245 -2.19998,1.22665c-0.8205,0.4556 -1.65085,0.87552 -2.30002,1.22202c-0.84937,0.45334 -1.79999,0.35266 -2.69998,0.35266c-0.89999,0 -1.80002,0 -2.70001,0c-0.89999,0 -1.69998,0 -2.60001,0c-0.89999,0 -1.79999,0 -2.69998,0l-0.89999,0l-0.90002,0" id="svg_1" stroke-width="2" stroke="#000" fill="none"/>
  <path t="7991,8149,8159,8187,8197,8207,8227,8237,8257,8268,8268,8307,8336,8337,8347,8366,8386,8406,8406,8426,8437,8457,8476,8486,8506,8507,8517,8534,8550,8576,8576,8586,8600,8600,8617,8634,8650,8650,8650,8667,8684,8684,8700,8717,8717,8734,8750,8767,8767,8786,8786,8806,8826,8836,8856,8856,8867,8885,8885,8900,8917,8934,8934,8950,8967,8984,8984,9006,9007,9007,9035,9035,9065,9095,9095,9125,9135,9175,9175,9195,9215,9245,9245,9256,9275,9285,9300,9300,9317,9335,9335,9350,9367,9384,9404,9405,9405,9425,9434,9449,9466,9484,9484,9504,9504,9524,9544,9564,9594,9634,9634,9644,9644,9696,9715,9715,9744,9774,9916,10025,10038" d="m295,354c-1.70001,0 -2.62201,-0.17804 -3.5,0.02084c-0.96234,0.21799 -1.60828,0.80722 -2.5,0.97916c-0.88971,0.17154 -1.34421,0.79047 -2.10001,1.2215c-0.6691,0.38156 -1.28281,1.19611 -2,1.87833c-0.58633,0.55774 -1.45953,0.83685 -1.92532,1.51083c-0.50586,0.73199 -1.18301,1.40665 -1.61749,2.08936c-0.46594,0.73212 -0.35718,1.69998 -0.35718,2.59998c0,0.90002 0,1.80002 0,2.70001c0,0.79999 0,1.70001 0,2.60001c0,0.92084 -0.00146,1.884 0,2.57465c0.00226,1.06818 0.2897,1.88226 0.64734,2.52536c0.4744,0.85312 0.82529,1.68466 1.35266,2.46664c0.43088,0.63892 0.74194,1.39355 1.39999,2.19736c0.55386,0.67654 1.12689,1.25665 1.58533,2.03598c0.42395,0.7207 1.23532,1.1311 1.90485,1.89551c0.52832,0.60321 1.29828,1.00748 1.867,1.409c0.87653,0.6188 1.55847,1.05862 2.48566,1.23834c0.94138,0.18246 1.85718,0.05716 2.75717,0.05716c0.79999,0 1.63599,0 2.65268,0c0.69464,0 1.71133,0 2.65182,0c0.86215,0 1.78278,0.19089 2.58566,-0.35266c0.69113,-0.4679 1.43915,-0.85123 2.13068,-1.16818c0.99097,-0.45419 1.59482,-0.74356 2.32199,-1.17917c0.92789,-0.55585 1.45618,-1.09964 2.15717,-1.79999c0.60028,-0.59973 1.26111,-1.14471 1.88934,-1.89999c0.54611,-0.65656 0.61066,-1.60001 0.61066,-2.39999c0,-0.90002 0,-1.836 0,-2.68402c0,-0.86331 0,-1.88 0,-2.716c0,-0.89999 0.18573,-1.8425 -0.08533,-2.59998c-0.32245,-0.90112 -1.22604,-1.31915 -1.62933,-2c-0.48996,-0.82718 -0.8241,-1.67944 -1.23718,-2.50452c-0.42206,-0.84305 -0.92975,-1.49603 -1.34283,-2.04282c-0.64603,-0.8551 -1.19449,-1.4642 -1.67999,-2.08868c-0.57993,-0.74597 -1.02557,-1.56375 -1.52533,-2.064c-0.69901,-0.69968 -0.96088,-1.45407 -1.55267,-2.14282c-0.56631,-0.65909 -1.40149,-0.9581 -2.358,-1.33185c-0.87875,-0.34338 -1.57327,-0.56866 -2.42267,-0.85867c-0.86594,-0.29565 -1.32095,-1.08292 -2.16666,-1.16666c-0.79608,-0.07883 -1.70001,0 -2.60001,-0.03601l-0.79999,-0.38931l-0.80002,-0.48935l-0.89999,-0.08548" id="svg_2" stroke-width="2" stroke="#000" fill="none"/>
  <path t="10825,11062,11074,11074,11101,11117,11117,11133,11133,11133,11133,11149,11149,11149,11166,11183,11183,11183,11199,11199,11199,11216,11216,11233,11233,11233,11233,11249,11249,11249,11267,11283,11343,11363,11592,11612" d="m278,394c1.75717,0 2.65268,0 3.51599,0c0.85867,0 1.80566,0 2.52567,0c1.125,0 1.9155,0 2.76901,0c0.59067,0 1.78665,0 2.64767,0c0.771,0 1.89099,0 2.875,0c0.67648,0 1.452,0 2.5,0c0.93066,0 1.76532,0 2.77567,0c0.66299,0 1.72433,0 2.69632,0c0.69467,0 1.38934,0 2.65152,0c0.7605,0 1.55515,0 2.63248,0c0.91068,0 1.81067,0 2.71066,0l0.89868,-0.00134l0.716,-0.284" id="svg_3" stroke-width="2" stroke="#000" fill="none"/>
  <path t="12200,12309,12322,12354,12354,12367,12367,12384,12384,12400,12417,12434,12434,12450,12467,12467,12484,12500,12500,12517,12517,12534,12534,12550,12567,12584,12584,12600,12617,12617,12634,12650,12667,12667,12684,12684,12700,12717,12734,12750,12767,12784,12784,12800,12817,12834,12834,12850,12850,12868,12884,12884,12900,12918,12918,12934,12934,12950,12950,12967,12967,12984,13000,13000,13000,13017,13017,13034,13034,13034,13049,13049,13066,13066,13083,13083,13083,13099,13100,13116,13116,13117,13133,13133,13133,13149,13149,13150,13167,13167,13167,13183,13183,13183,13200,13217,13217,13217,13233,13233,13250,13250,13267,13267,13283,13283,13300,13300,13316,13317,13333,13350,13350,13367,13367,13383,13383,13407,13407,13417,13433,13450,13450,13466,13467,13483,13500,13500,13517,13517,13517,13534,13534,13550,13550,13566,13567,13567,13567,13586,13586,13586,13586,13599,13599,13617,13617,13634,13634,13634,13650,13650,13667,13667,13667,13683,13684,13684,13700,13700,13700,13716,13717,13717,13733,13734,13734,13750,13750,13767,13767,13767,13767,13783,13784,13784,13800,13800,13800,13817,13817,13817,13817,13833,13834,13834,13834,13834,13850,13850,13850,13850,13867,13867,13867,13867,13867,13883,13884,13884,13884,13884,13900,13900,13900,13900,13917,13917,13917,13917,13933,13934,13934,13934,13934,13949,13949,13949,13966,13966,13966,13966,13983,13983,13983,13983,13983,14000,14000,14000,14000,14016,14017,14017,14017,14033,14033,14033,14034,14034,14050,14050,14050,14066,14067,14067,14067,14083,14083,14084,14084,14100,14100,14100,14100,14117,14117,14117,14117,14133,14133,14134,14134,14150,14150,14150,14167,14167,14167,14183,14183,14184,14200,14200,14216,14216,14217,14250,14250,14250,14250,14284,14284,14284,14284,14284,14284,14284,14317,14317,14317,14317,14317,14350,14350,14350,14350,14350,14383,14384,14384,14384,14416,14417,14417,14417,14450,14450,14450,14450,14483,14484,14484,14516,14635,14645" d="m282,394c1.83334,-0.16666 2.44534,-0.69296 2.87866,-1.44299c0.39621,-0.68582 0.28735,-1.78049 0.64218,-2.53616c0.41626,-0.88654 1.1297,-1.42114 1.39383,-2.22086c0.28351,-0.85843 0.08533,-1.79999 0.08533,-2.59998c0,-0.95718 -0.00537,-1.85272 0,-2.716c0.00534,-0.85873 0.23929,-1.79861 0.5,-2.50485c0.35822,-0.97034 0.48199,-1.76804 0.5,-2.8125c0.01303,-0.75586 -0.14185,-1.6796 0.01068,-2.56665c0.14346,-0.83441 0.8111,-1.46365 0.95331,-2.42535c0.14755,-0.99777 -0.13129,-1.78339 0.05685,-2.67465c0.17886,-0.84741 0.91699,-1.59335 0.97781,-2.38535c0.07196,-0.93726 0.00134,-1.63065 0.00134,-2.70398c0,-0.91068 -0.00067,-1.81067 0,-2.71066c0.00067,-0.90002 0.30084,-1.75085 0.64734,-2.40002c0.45334,-0.84937 0.35266,-1.71066 0.35266,-2.62131c0,-0.85333 0,-1.79468 0,-2.56268c0,-0.94135 0,-1.94934 0,-2.81149c0,-0.82535 0,-1.78983 0,-2.51517c0,-0.98917 0,-1.76849 0,-2.76801c0,-0.90533 0,-1.84668 0,-2.53732c0,-1.00485 0,-2.02686 0,-2.74533c0,-0.7905 0,-1.81717 0,-2.71783c0,-1.02084 -0.0018,-1.82083 0,-2.62085c0.00226,-1 -0.00363,-1.81573 0.284,-2.79999c0.17886,-0.61209 0.56497,-1.59741 0.69067,-2.39999c0.12494,-0.79773 0.40567,-1.79544 0.60001,-2.436c0.35526,-1.17099 0.37231,-1.99246 0.478,-2.81134c0.13379,-1.03644 0.4007,-1.71878 0.59467,-2.40533c0.27078,-0.95853 0.33072,-1.78293 0.34818,-2.65182c0.02402,-1.1951 -0.02802,-1.79315 0.0405,-2.65952c0.08493,-1.07394 0.40686,-1.98294 0.61133,-2.57434c0.35843,-1.03677 0.5126,-1.99689 0.70532,-2.66699c0.21457,-0.74615 0.57721,-1.8461 0.63666,-2.60931c0.08099,-1.03943 0.01068,-1.78986 0.01068,-2.78403c0,-0.76532 -0.08777,-1.73239 0.08533,-2.48532c0.2265,-0.9852 0.70779,-1.70282 0.85751,-2.71149c0.10999,-0.74109 0.05716,-1.77917 0.05716,-2.72601c0,-0.69934 0,-1.6785 0,-2.46783c0,-1.04401 -0.01385,-1.85199 0.284,-2.69467c0.24973,-0.70648 0.67331,-1.62787 0.716,-2.616c0.03885,-0.89914 0.02051,-1.6701 0.35266,-2.55267c0.26578,-0.70621 0.62933,-1.72147 0.64734,-2.66882c0.01331,-0.69922 0,-1.6785 0,-2.47849c0,-0.80002 0,-1.80002 0,-2.60001c0,-1.00134 -0.00262,-1.836 0,-2.76666c0.00226,-0.79501 0.01511,-1.68198 0.08533,-2.32001c0.15427,-1.40179 0.33905,-2.13089 0.52533,-2.85199c0.17953,-0.69501 0.58801,-1.88934 0.8685,-2.59885c0.35419,-0.89584 0.5155,-1.72379 0.52084,-2.60516c0.0058,-0.95731 0,-1.68933 0,-2.65201c0,-0.77332 0,-1.82416 0,-2.66266c0,-0.63068 -0.01419,-1.66391 0.01068,-2.74667c0.01605,-0.69894 0.11523,-1.90933 0.34198,-2.53351c0.30908,-0.85086 0.56766,-1.63269 0.64734,-2.40416c0.08887,-0.8605 0.2753,-2.05785 0.42532,-2.63699c0.2099,-0.81024 0.51294,-2.02202 0.62735,-2.68384c0.15631,-0.90405 0.37875,-1.83354 0.522,-2.53349c0.14764,-0.72141 0.32913,-1.78044 0.38931,-2.75734c0.05444,-0.88388 0.0188,-1.92596 0.04669,-2.632c0.02866,-0.72542 0.20944,-1.85808 0.34198,-2.53349c0.146,-0.74393 0.32852,-1.54294 0.48068,-2.84784c0.10638,-0.9122 0.14032,-1.83739 0.16666,-2.29166c0.05072,-0.87479 0.12192,-2.05183 0.35718,-2.98367c0.21338,-0.84515 0.46893,-1.40302 0.74265,-2.4225c0.2153,-0.80197 0.39124,-1.69603 0.543,-2.649c0.07797,-0.48956 0.24124,-1.98579 0.27185,-2.48383c0.06027,-0.98073 0.07858,-1.93063 0.08398,-2.832c0.005,-0.83733 -0.00467,-1.96117 0.02219,-2.64984c0.02612,-0.66946 0.19009,-2.04436 0.33633,-2.778c0.15268,-0.76593 0.34619,-1.54761 0.64282,-2.74283c0.19794,-0.79752 0.39584,-1.57716 0.564,-2.328c0.15674,-0.7 0.35199,-1.90399 0.436,-2.672c0.08401,-0.76801 0.28607,-1.97159 0.42532,-2.68266c0.15161,-0.77423 0.31012,-1.60295 0.40802,-2.48401c0.10156,-0.91399 0.13696,-1.84784 0.15598,-2.77199c0.00928,-0.45146 0.01068,-1.72801 0.01068,-2.8515c0,-0.68901 -0.00394,-1.358 0.00015,-2.73151c0.0022,-0.74002 0.00452,-1.52087 0.05701,-2.34c0.08374,-1.30692 0.15475,-1.76057 0.2955,-2.67751c0.13812,-0.8998 0.31024,-1.73404 0.48068,-2.79416c0.12054,-0.74982 0.15646,-1.52022 0.168,-2.72267c0.00626,-0.65202 0.01553,-1.37747 0.08398,-2.14799c0.10648,-1.19884 0.26007,-1.99405 0.43552,-2.77518c0.17212,-0.76634 0.48108,-1.85359 0.77466,-2.86366c0.18484,-0.63599 0.45862,-1.54955 0.58301,-2.4575c0.12555,-0.91638 0.11508,-1.57161 0.12015,-2.27032c0.00851,-1.17165 0.00134,-2.02567 0.00134,-2.88766c0,-0.82201 -0.02744,-2.15717 0.01068,-2.82967c0.04333,-0.76508 0.26227,-1.76843 0.51016,-2.73283c0.17496,-0.68065 0.4696,-1.64935 0.77466,-2.46484c0.26038,-0.69608 0.62485,-1.71016 0.68365,-2.51433c0.07294,-0.99756 0.00473,-1.82365 0.078,-2.51433c0.12036,-1.13451 0.30231,-1.80772 0.44284,-2.569c0.15485,-0.83867 0.33957,-2.24948 0.37866,-2.75951c0.0817,-1.06609 0.09421,-1.61858 0.14667,-2.74249c0.02643,-0.56656 0.02866,-1.13477 0.19617,-2.793c0.05414,-0.53607 0.20541,-1.57664 0.38916,-2.57501c0.08942,-0.48584 0.38904,-1.88007 0.58801,-2.76132c0.09668,-0.42821 0.29724,-1.26132 0.44415,-2.08084c0.21518,-1.20035 0.27664,-2.00291 0.33185,-2.79384c0.05405,-0.77443 0.17709,-2.24672 0.30933,-2.92532c0.12708,-0.65227 0.39822,-1.57437 0.54935,-2.48534c0.14847,-0.89496 0.17163,-1.80235 0.25067,-2.4c0.15918,-1.20344 0.41599,-2.05833 0.63199,-2.82933l0.22684,-0.95634l0.05716,-1.01433l0.00015,-0.89983" id="svg_4" stroke-width="2" stroke="#000" fill="none"/>
  <path t="15294,15453,15473,15474,15501,15501,15501,15516,15516,15532,15532,15549,15549,15570,15570,15586,15586,15599,15600,15617,15632,15632,15649,15649,15667,15682,15699,15699,15717,15717,15717,15732,15732,15749,15767,15783,15863,16002,16003" d="m311,113c-0.88116,1.7 -0.27603,2.29005 0.409,2.75716c0.80264,0.54732 1.33566,1.13696 2.19101,1.6735c0.75668,0.47466 1.61621,0.44241 2.51599,0.85467c0.69299,0.3175 1.51483,1.07367 2.28851,1.3575c0.96796,0.35509 1.79285,0.27579 2.57416,0.57851c0.82382,0.31917 1.67288,0.74335 2.53732,0.77733c0.85809,0.03372 1.8222,0.18716 2.48401,0.52217c0.85767,0.43416 1.5239,1.22032 2.39999,1.44316c0.87729,0.22314 1.76666,0.036 2.62085,0.036c0.97916,0 1.77914,0 2.57916,0c0.99548,0 1.74283,0 2.76401,0c0.93597,0 1.836,0 2.73599,0l0.89999,0l0.79999,0" id="svg_5" stroke-width="2" stroke="#000" fill="none"/>
  <path t="16762,16960,16974,17003,17067,17067,17099,17099,17099,17099,17132,17132,17132,17132,17166,17166,17166,17166,17199,17199,17199,17232,17232,17232,17232,17266,17266,17266,17299,17299,17299,17332,17332,17332,17332,17366,17366,17366,17400,17400,17400,17401,17432,17432,17432,17432,17432,17466,17466,17466,17499,17499,17499,17499,17532,17532,17532,17532,17532,17566,17566,17566,17566,17599,17599,17599,17632,17632,17632,17669,17669,17669,17708,17869,17869,18129,18169,18198,18207,18217,18232,18249,18267,18282,18299,18317,18337,18337,18349,18377,18407,18407,18427,18457,18467,18497,18497,18538,18548,18577,18577,18597,18607,18647,18647,18677,18677,18767,18857,18857,18877,18887,18906,18906,18916,18933,18949,18967,18982,18999,19016,19017,19036,19049,19050,19066,19086,19086,19099,19116,19132,19133,19149,19167,19186,19186,19206,19206,19226,19226,19235,19236,19249,19267,19282,19299,19317,19317,19332,19333,19349,19366,19367,19382,19383,19399,19425,19425,19435,19455,19467,19467,19485,19515,19676,19686,19725,19725" d="m313,115c0,-1.8 -0.0051,-2.60001 0,-3.5c0.00534,-0.94271 0.07077,-1.64386 0.28534,-2.83867c0.14111,-0.78577 0.22693,-1.20486 0.41916,-2.06499c0.2829,-1.26588 0.48743,-2.02805 0.6955,-2.72433c0.28882,-0.96642 0.6091,-1.86906 0.89551,-2.772c0.1897,-0.59811 0.46051,-1.49379 0.62048,-2.7c0.07925,-0.59763 0.08728,-1.508 0.30551,-2.7c0.11078,-0.60509 0.38513,-1.50129 0.57983,-2.1c0.39066,-1.20131 0.58566,-1.79401 0.89868,-2.64283c0.38428,-1.042 0.70493,-1.74527 1.05716,-2.467c0.55502,-1.13727 0.89926,-1.79163 1.22198,-2.49017c0.31921,-0.69093 0.72958,-1.65638 0.91101,-2.49017c0.20642,-0.94875 0.32254,-1.93398 0.54584,-2.76717c0.16806,-0.62714 0.37759,-1.31161 0.664,-2.48517c0.20895,-0.85619 0.39801,-1.73712 0.5,-2.17083c0.19617,-0.83424 0.58389,-2.23814 0.89999,-3.04501c0.28552,-0.72883 0.71002,-1.72763 0.89999,-2.30966c0.21121,-0.64712 0.41776,-1.38538 0.70001,-2.696c0.21347,-0.9912 0.29886,-1.51221 0.5,-2.56001c0.09946,-0.5181 0.38681,-1.97924 0.60001,-2.81866c0.18839,-0.74171 0.3717,-1.40002 0.79999,-2.49067c0.28156,-0.71701 0.60297,-1.35455 1.10001,-2.36683c0.40237,-0.8195 0.72086,-1.47707 1.09866,-2.4825c0.29703,-0.79048 0.49106,-1.55442 0.74866,-2.503c0.25012,-0.92104 0.74973,-2.05669 1.61667,-1.76767c0.74637,0.24881 0.436,1.55333 0.436,2.45333c0,0.9 -0.05188,1.83385 0.42532,2.47467c0.50772,0.68177 0.43262,1.53833 0.58536,2.42533c0.14346,0.83313 0.87997,1.58915 0.98483,2.3c0.13791,0.93473 0.92075,1.4543 1.00449,2.3c0.07883,0.79611 0.05545,1.70095 0.5,2.5c0.44562,0.80096 0.69308,1.62404 1.2045,2.2c0.65024,0.73228 1.09546,1.54609 1.46216,2.3c0.3714,0.76362 0.70938,1.56783 1.19052,2.3c0.52191,0.79424 1.24283,1.29999 1.84283,1.89999c0.59998,0.6 1.3353,1.29499 1.79999,1.96667c0.54279,0.78456 1.27353,1.2056 1.83334,2c0.48953,0.69467 0.16666,1.63334 0.16666,2.53333c0,0.9 0,1.8 0,2.7c0,0.9 0,1.8 0,2.70016c0,0.78516 0,1.72517 0,2.73317c0,0.756 0,1.6875 0,2.65067c0,0.69067 0,1.75883 0,2.616c0,0.9 0,1.7 0,2.6c0,0.936 0,1.78534 0,2.51067c0,0.98933 0.01065,1.78938 0,2.78933c-0.01044,0.97933 -0.1846,1.82392 -0.57468,2.58933c-0.40833,0.80125 -0.42532,1.71067 -0.42532,2.61066c0,0.9 0,1.8 0,2.55717c0,0.8955 0.10706,1.76696 -0.02084,2.74284c-0.10986,0.83829 -0.64221,1.64661 -0.85767,2.4785c-0.20782,0.80244 -0.12149,1.77866 -0.12149,2.67416c0,0.86333 0.06631,1.86738 -0.35266,2.64734c-0.40182,0.74805 -0.77081,1.4771 -1.22202,2.3c-0.42773,0.78013 -0.42532,1.7 -0.42667,2.6l-0.22,0.9l-0.42599,0.6" id="svg_6" stroke-width="2" stroke="#000" fill="none"/>
  <path t="20715,20906,20916,20916,20937,20951,20951,20967,20967,20983,20983,21000,21000,21017,21033,21033,21049,21049,21066,21082,21082,21099,21116,21116,21132,21132,21153,21153,21167,21167,21183,21183,21200,21217,21217,21233,21233,21233,21250,21250,21250,21267,21267,21283,21283,21299,21300,21316,21317,21317,21332,21333,21349,21350,21350,21350,21366,21367,21382,21383,21383,21399,21400,21416,21417,21432,21433,21433,21433,21449,21450,21466,21467,21467,21482,21483,21499,21500,21500,21516,21517,21517,21532,21533,21533,21549,21566,21567,21582,21583,21583,21583,21599,21600,21600,21600,21616,21617,21632,21633,21633,21649,21650,21650,21650,21666,21667,21682,21683,21683,21683,21699,21700,21700,21716,21717,21732,21733,21733,21749,21750,21766,21767,21782,21783,21799,21800,21816,21832,21833,21849,21866,21867,21882,21883,21899,21900,21916,21933,21933,21950,21950,21967,21967,21983,21983,22000,22000,22017,22017,22017,22033,22033,22033,22050,22050,22067,22067,22067,22083,22083,22083,22083,22099,22100,22100,22116,22116,22132,22132,22133,22149,22150,22166,22167,22182,22183,22183,22200,22200,22200,22216,22216,22232,22232,22249,22250,22250,22267,22267,22267,22282,22282,22283,22300,22300,22316,22317,22332,22332,22333,22350,22350,22350,22366,22367,22382,22382,22383,22383,22399,22399,22399,22416,22416,22416,22432,22432,22432,22432,22432,22449,22449,22449,22449,22449,22466,22466,22466,22482,22482,22482,22482,22499,22499,22499,22516,22516,22532,22532,22532,22549,22549,22566,22566,22582,22582,22599,22599,22616,22632,22632,22632,22649,22649,22666,22666,22682,22682,22699,22699,22699,22716,22716,22716,22716,22732,22732,22749,22749,22766,22766,22766,22782,22782,22799,22816,22816,22816,22832,22832,22849,22869,22869,22889,22909,22919,22949,22968,22969,22979,22988,22999,23016,23038,23058,23058,23068,23082,23099,23116,23138,23158,23178,23198,23198,23449,23498,23639,23677,23688" d="m307,394c0,-1.75717 0,-2.65268 0,-3.51599c0,-0.85867 0,-1.80533 0,-2.65866c0,-0.94135 -0.04092,-1.71069 0.01068,-2.66135c0.04169,-0.76782 0.36447,-1.75101 0.63666,-2.50684c0.32242,-0.89526 0.35266,-1.82382 0.35266,-2.65717c0,-0.97849 0,-1.79868 0,-2.75717c0,-0.89551 -0.15433,-1.60358 0.01068,-2.60684c0.14294,-0.86911 0.76459,-1.50714 0.96399,-2.47198c0.15646,-0.75708 0.4068,-1.75397 0.67267,-2.564c0.25964,-0.79105 0.34732,-1.76398 0.35266,-2.716c0.0043,-0.76801 -0.01529,-1.70947 0,-2.71735c0.01044,-0.68774 0.22235,-1.70923 0.42532,-2.42798c0.22314,-0.79019 0.45294,-1.81723 0.57468,-2.71783c0.08374,-0.61954 0.38965,-1.60818 0.64734,-2.42084c0.3129,-0.98669 0.34732,-1.79999 0.35266,-2.80002c0.00427,-0.79999 0,-1.79999 0,-2.59998c0,-0.80002 -0.02032,-1.81067 0.03601,-2.47202c0.09079,-1.06549 0.31451,-2.0293 0.46399,-2.70715c0.14526,-0.65881 0.35477,-1.76089 0.52533,-2.66086c0.17203,-0.90771 0.42075,-1.61578 0.62201,-2.4118c0.25793,-1.02011 0.31686,-1.90695 0.35281,-2.92719c0.02533,-0.71878 0.22031,-1.78534 0.35251,-2.38348c0.22055,-0.99783 0.40915,-1.66412 0.56201,-2.86685c0.09229,-0.72601 0.08533,-1.77066 0.08533,-2.57065c0,-0.80002 0,-1.8045 0,-2.65717c0,-0.96417 0,-1.76819 0,-2.59018c0,-1.03134 0,-1.72733 0,-2.63666c0,-0.99869 0,-1.79517 0,-2.54666c0,-1.108 0,-2.091 0,-2.811c0,-1.125 -0.00708,-1.92044 0.02084,-2.5c0.04559,-0.94611 0.1908,-1.98117 0.33182,-2.702c0.20776,-1.06192 0.38373,-1.69791 0.59467,-2.89386c0.11667,-0.66144 0.3475,-1.63162 0.55267,-2.42499c0.15558,-0.60159 0.39224,-1.9574 0.44284,-2.68115c0.0499,-0.71387 0.05649,-1.70169 0.05716,-2.70435c0.00061,-0.91 -0.01147,-1.81656 0.01068,-2.74933c0.0166,-0.69894 0.03201,-1.42767 0.21066,-2.48083c0.16489,-0.97195 0.47858,-1.7908 0.65717,-2.67917c0.15787,-0.78534 0.12149,-1.68552 0.12149,-2.66351c0,-0.79648 0,-1.79382 0,-2.66849c0,-1.0105 0,-1.78983 0,-2.64401c0,-0.91931 0,-1.81934 0,-2.68265c0,-0.85867 0,-1.80533 0,-2.65866c0,-0.94 0,-1.82535 0,-2.58252c0,-0.89999 0,-1.84415 0,-2.83832c0,-0.74734 0,-1.77917 0,-2.72601c0,-0.69934 0,-1.6785 0,-2.46783c0,-1.04401 -0.02539,-1.83643 0.00134,-2.69598c0.02863,-0.92044 0.18494,-1.72876 0.5195,-2.51468c0.43433,-1.02026 0.83823,-1.58127 1.12198,-2.45715c0.30588,-0.94424 0.33514,-1.76776 0.35269,-2.59018c0.022,-1.03094 0.00073,-1.93182 0.00449,-2.95267c0.00226,-0.60901 0.02838,-1.51889 0.22134,-2.64267c0.11432,-0.6658 0.2883,-1.35535 0.42599,-2.052c0.24881,-1.259 0.26871,-2.04272 0.43668,-2.90266c0.19983,-1.02306 0.57733,-1.61977 0.79449,-2.82399c0.14349,-0.7957 0.11923,-1.62601 0.12149,-2.65701c0.00146,-0.67499 -0.00006,-1.75499 0,-2.58299c0.00009,-0.88167 -0.02341,-1.61327 0.05716,-2.44766c0.11551,-1.19638 0.29401,-1.78241 0.51752,-2.619c0.30182,-1.1297 0.40079,-1.88698 0.42667,-2.75867c0.02258,-0.76047 0.21429,-1.93611 0.35132,-2.466c0.21317,-0.82434 0.49692,-1.87837 0.62201,-2.82201c0.08969,-0.67654 0.24051,-1.64824 0.45065,-2.45065c0.2157,-0.82368 0.49289,-1.84938 0.55383,-2.733c0.06021,-0.87317 0.02802,-1.70956 0.24219,-2.58467c0.17996,-0.73531 0.47583,-1.55739 0.65717,-2.75667c0.08893,-0.58815 0.11615,-1.4283 0.12149,-2.55783c0.00391,-0.82915 -0.0069,-1.90692 0.00449,-2.50951c0.01947,-1.0293 0.04449,-1.75696 0.21686,-2.81133c0.10855,-0.66412 0.39603,-1.56566 0.612,-2.655c0.14233,-0.71796 0.16959,-1.46684 0.33331,-2.66667c0.10324,-0.75673 0.26233,-1.59674 0.40802,-2.496c0.07452,-0.46002 0.27344,-1.83609 0.34,-2.71733c0.06339,-0.83905 0.0788,-1.63995 0.08398,-2.39999c0.00729,-1.06514 -0.00891,-2.05188 0.03735,-2.67601c0.09003,-1.21436 0.31046,-2.11368 0.48483,-2.71066c0.26431,-0.90488 0.58508,-1.79768 0.8685,-2.67867c0.25906,-0.80524 0.54062,-1.67317 0.59998,-2.472c0.08289,-1.11565 0.01068,-1.87016 0.01068,-2.66667c0,-0.996 0,-1.836 0,-2.8c0,-0.85199 0,-1.65067 0,-2.63199c0,-0.91734 0,-1.82933 0,-2.672c0,-0.912 0,-1.82935 0,-2.57333c0,-1.03601 -0.04099,-1.88934 0.01068,-2.84134c0.04166,-0.76784 0.36325,-1.76143 0.564,-2.39999c0.28967,-0.92149 0.38757,-1.72034 0.41464,-2.57468c0.03769,-1.18878 0.01068,-1.78799 0.01068,-2.6685c0,-0.83549 0,-1.83549 0,-2.71016c0,-1.01083 0,-1.8315 0,-2.97734c0,-0.78149 0,-1.57199 0,-2.5c0,-0.91199 0,-1.75465 0,-2.66666c0,-0.91734 0,-1.66133 0,-2.696c0,-0.76801 0,-1.72784 0,-2.62334c0,-0.86334 0,-1.82651 0,-2.64734c0,-0.89999 0,-1.8 0,-2.7c0,-0.8 -0.01041,-1.70006 0,-2.60001c0.01044,-0.90018 0.54321,-1.60329 0.87851,-2.5c0.31808,-0.85063 0.12149,-1.7 0.12149,-2.59999c0,-0.90001 0,-1.8 0,-2.7c0,-0.90001 0,-1.8 0,-2.7c0,-0.9 0,-1.7 0,-2.6c0,-0.9 0,-1.8 0,-2.7l0,-0.9" id="svg_7" stroke-width="2" stroke="#000" fill="none"/>
  <path t="24288,24477,24477,24487,24487,24506,24556,24767,24796" d="m313,72c1,1 1.75824,0.96046 2.65268,1.0045c0.86603,0.04264 1.71133,0.42083 2.54733,0.91016l0.89999,0.08533l0.89999,0" id="svg_8" stroke-width="2" stroke="#000" fill="none"/>
  <path t="25196,25365,25386,25406,25436,25465,25466,25504,25544,25675" d="m310,82c1,1 1.54764,1.44607 2.28534,1.91467c0.69144,0.43921 1.71466,0.252 2.41467,0.73267l0.79999,0.35267l0.79999,0.35267l0.80002,0.52583" id="svg_9" stroke-width="2" stroke="#000" fill="none"/>
  <path t="26294,26483,26503,26516,26532,26550,26566,26566,26566,26583,26602,26622,26622,26763,26773,26773" d="m306,92c0.61066,1.6 1.23297,2.39639 2,2.83334c0.77988,0.44426 1.23596,1.00203 2.16666,1.33333c0.67041,0.23865 1.3436,0.64304 2.19736,1.22267c0.73114,0.49638 1.63599,0.61066 2.43597,0.696l0.836,0.48933l0.84802,0.33866l0.69064,0.04" id="svg_10" stroke-width="2" stroke="#000" fill="none"/>
  <path t="27941,28220,28230,28260,28279,28279,28340,28479,28529" d="m346,87c1.70001,0 2.38715,0.3145 3.16666,0.83334c0.70746,0.47088 1.63333,0.16666 2.53336,0.22383l0.79999,0.44283l0.7955,0.44733" id="svg_11" stroke-width="2" stroke="#000" fill="none"/>
  <path t="29059,29168,29178,29178,29202,29202,29232,29232,29249,29249,29249,29249,29266,29266,29266,29282" d="m344,100c0.64667,1.6 1.29944,2.14194 2,2.47916c0.95248,0.45847 1.77045,0.52515 2.66617,0.8825c0.63083,0.25167 1.66571,0.80797 2.30182,1.121c0.68112,0.33518 1.38135,0.656 2.69867,1.184l0.56,0.164l0.88,0.184l0.89334,0.48534" id="svg_12" stroke-width="2" stroke="#000" fill="none"/>
  <path t="29868,30016,30016,30036,30036,30056,30056,30085,30118,30259,30276,30276" d="m345,112c0.16666,0 1.00067,-0.03588 1.97867,0.00017c0.77554,0.02859 1.66025,0.38732 2.36865,0.64716c0.99973,0.36671 1.85269,0.35267 2.75269,0.35267l0.89999,0l0.79999,0" id="svg_13" stroke-width="2" stroke="#000" fill="none"/>
  <path t="31467,31596,31615,31633,31653,31653,31683,31703,31703,31723,31743,31743,31753,31753,31765,31793,31802,31822,31822,31832,31852,31873,31873,31965,32054,32064,32090,32122,32142,32152,32166,32183,32199,32216,32233,32252,32252,32266,32282,32302,32302,32315,32332,32351,32371,32372,32391,32391,32401,32421,32432,32448,32465,32465,32482,32482,32498,32498,32515,32515,32532,32532,32548,32548,32565,32582,32582,32601,32601,32621,32641,32661,32661,32671,32682,32701,32721,32721,32741,32771,32771,32791,32791,32821,32821,32841,32851,32871,32871,32882,32898,32915,32940,32941,32960,32980,33020,33045,33071,33110,33143,33160,33170,33191,33191,33210,33210,33220,33220,33232,33248,33266,33266,33282,33282,33298,33298,33315,33315,33332,33333,33348,33366,33382,33383,33440,33692,33693,33704" d="m293,284c-2.58932,-0.03601 -3.31033,-0.61804 -4.20001,-0.91467c-0.85764,-0.28595 -1.65543,-0.09464 -2.39999,-0.69598c-0.76428,-0.61728 -1.20001,-1.1893 -1.89999,-1.88934c-0.60004,-0.60013 -1.22049,-1.2435 -1.70001,-1.98267c-0.41815,-0.64456 -1.24518,-1.26132 -1.77466,-1.95334c-0.57306,-0.74896 -0.90262,-1.55615 -1.02399,-2.36398c-0.13651,-0.90857 -0.70764,-1.42953 -1.168,-2.20001c-0.4299,-0.71948 -1.33316,-0.98956 -2.23334,-1c-0.89993,-0.01041 -2.07965,-0.32535 -2.54285,0.35718c-0.47437,0.69901 0.05362,1.74966 -0.05716,2.64282c-0.11151,0.89923 -0.95728,1.28235 -1,2.20001c-0.04184,0.89902 0,1.79999 0,2.59998c0,0.90002 0,1.836 0,2.68402c0,0.86331 0,1.75882 0,2.716c0,0.89999 0,1.79999 0,2.55716c0,0.89551 0,1.75882 0,2.72198c0,0.92084 0.10699,1.82736 -0.00134,2.72086c-0.11157,0.91995 -0.75137,1.52667 -1.19733,2.28531c-0.41156,0.70013 -0.72189,1.71024 -0.78049,2.49384c-0.07455,0.99695 -0.02084,1.7735 -0.02084,2.67801c0,0.74734 0.11975,1.75656 -0.05716,2.68567c-0.17719,0.93054 -0.85489,1.6445 -0.93835,2.41434c-0.09653,0.89029 0.16879,1.77835 -0.02533,2.72198c-0.17841,0.86719 -0.86841,1.51129 -0.97781,2.32083c-0.12079,0.8938 -0.57492,1.66312 -0.94867,2.5c-0.34485,0.77219 -0.86063,1.31317 -1.44202,2.11069c-0.60895,0.83533 -0.56433,1.59021 -0.61081,2.56799c-0.03683,0.77521 -0.38733,1.66025 -0.64719,2.36865c-0.3667,0.99973 -0.19775,2.01413 -0.57416,2.75269c-0.34976,0.68628 -1.37601,1.19702 -1.69318,2.10001c-0.29959,0.85294 -0.08533,1.79999 -0.08533,2.59998c0,0.90002 0,1.80002 0,2.70001c0,0.89999 -0.19806,1.82239 0.00134,2.69867c0.18304,0.80429 1.20245,0.71921 2.09866,0.80148c0.91144,0.08368 1.50232,0.66229 2.384,1.19852c0.66754,0.40601 1.53503,0.55814 2.31467,0.88535c0.86639,0.36362 1.61148,0.89798 2.52283,0.91599c0.69922,0.01382 1.87833,0 2.65765,0c0.85419,0 1.7735,0 2.67801,0c0.74734,0 1.74152,0 2.50684,0c1.07883,0 1.936,0 2.836,0c0.79999,0 1.75717,-0.05716 2.64816,-0.35718l0.642,-0.34732l0.63785,-0.6955" id="svg_14" stroke-width="2" stroke="#000" fill="none"/>
  <path t="36138,36297,36307,36307,36334,36349,36349,36349,36366,36366,36366,36366,36383,36383,36383,36399,36399,36416,36416,36416,36416,36433,36433,36433,36433,36448,36448,36465,36465,36465,36482,36482,36482,36498,36498,36515,36532,36532,36548,36548,36574,36574,36584,36584,36598,36615,36644,36806,36854,36864,36883,36894,36903,36903,36916,36932,36932,36948,36948,36967,36968,36982,36982,36998,36998,37015,37032,37048,37048,37065,37065,37082,37103,37103,37123,37123,37123,37133,37148,37165,37165,37182,37182,37198,37198,37215,37215,37232,37232,37248,37248,37266,37266,37282,37282,37282,37298,37298,37298,37315,37332,37332,37332,37348,37348,37365,37382,37382,37383,37398,37398,37398,37398,37415,37415,37432,37432,37448,37449,37449,37465,37465,37482,37482,37482,37498,37498,37515,37515,37532,37532,37532,37548,37548,37565,37565,37582,37598,37615,37615,37672,37672,37804,37805,37884,37885,37984,37994,38017,38033,38052,38066,38083,38083,38099,38099,38115,38116,38132,38133,38148,38149,38166,38166,38182,38183,38198,38199,38199,38216,38216,38232,38233,38251,38251,38251,38266,38266,38283,38299,38299,38315,38332,38348,38349,38365,38366,38382,38383,38398,38399,38415,38432,38433,38449,38449,38466,38482,38483,38498,38499,38516,38516,38533,38548,38549,38571,38763,38784" d="m327,302c0.88666,0.91333 1.88397,0.66132 2.43066,0.19867c0.69812,-0.59082 1.22726,-1.31284 1.87735,-1.60934c0.79779,-0.36386 1.99936,-0.89777 2.58749,-1.24649c0.59152,-0.35074 1.43771,-0.92123 2.18265,-1.54266c0.68213,-0.56903 1.20453,-1.14197 1.8255,-2.04752c0.43607,-0.63593 1.23511,-1.23917 1.819,-1.59933c0.64813,-0.39981 1.3559,-0.78806 2.23419,-1.57449c0.55383,-0.49591 1.18338,-1.31934 1.55515,-1.80948c0.73056,-0.96317 1.24582,-1.51245 1.97333,-2.25601c0.53937,-0.55127 1.13577,-1.18436 1.71436,-1.93451c0.59988,-0.7778 1.00488,-1.2771 1.46698,-2.24548c0.42041,-0.88098 0.68582,-1.63766 1.33334,-2.33334c0.5957,-0.64001 1.09409,-1.32486 1.5,-2c0.59143,-0.9837 1.07529,-1.61469 1.70001,-2.19867c0.57809,-0.54041 1.48788,-0.89978 1.884,-1.60266c0.46021,-0.81659 0.67346,-2.25354 1.49066,-2.15201c0.77496,0.09628 0.42532,1.55334 0.42532,2.36401c0,0.91064 0,1.76398 0,2.70398c0,0.9855 0,1.77069 0,2.72134c0,0.76532 0.05884,1.77072 -0.05716,2.564c-0.14822,1.01364 -0.50989,1.79184 -1.04266,2.57849c-0.43024,0.63519 -0.88217,1.42096 -0.90018,2.32602c-0.01715,0.86197 0,1.6955 0,2.67398c0,0.82019 -0.32147,1.53006 -0.83334,2.35486c-0.3837,0.61829 -0.27963,1.68707 -0.60266,2.45599c-0.31454,0.74875 -1.13086,1.4837 -1.4425,2.31067c-0.32025,0.84982 -0.18552,1.6911 -0.68948,2.384c-0.53101,0.73004 -1.20038,1.49054 -1.48016,2.26865c-0.32199,0.89548 -0.64191,1.60413 -1.15051,2.36334c-0.43204,0.64493 -0.71484,1.54672 -0.854,2.28851c-0.18854,1.00507 -0.55295,1.82373 -1.11398,2.59549c-0.45404,0.62457 -1.05142,1.16614 -1.66669,2c-0.56119,0.76059 -0.92023,1.5036 -1.14133,2.38535c-0.23526,0.9382 -0.43051,1.87717 -0.72983,2.60931c-0.35898,0.87808 -0.96597,1.54001 -1.27017,2.42667c-0.30243,0.88156 -0.3454,1.60507 -0.672,2.36401c-0.46246,1.07465 -0.85132,1.51981 -1.33249,2.21466c-0.46658,0.6738 -0.86255,1.68069 -1,2.47916c-0.20395,1.18478 -0.55923,1.8306 -0.85419,2.85419c-0.18872,0.65494 -0.06396,1.44644 -0.388,2.52399c-0.20172,0.67081 -0.66971,1.68396 -0.75333,2.40399c-0.09161,0.78903 -0.22156,1.82538 -0.52533,2.69702c-0.30814,0.88419 -0.48828,1.703 -0.50015,2.5845c-0.00967,0.71848 0.01846,1.52393 -0.22119,2.53549c-0.2128,0.89819 -0.67322,1.74573 -0.77417,2.61716c-0.10419,0.89941 -0.61612,1.61728 -0.91916,2.50717c-0.24902,0.73135 -0.03467,1.56857 -0.12134,2.54666c-0.08179,0.92297 -0.44229,1.75043 -1.164,2.44934c-0.56845,0.55051 -1.46075,0.75076 -1.85266,0.09683c-0.46918,-0.78281 -0.91873,-1.59412 -0.94733,-2.49551c-0.02853,-0.89954 0.00189,-1.79999 0,-2.55716c-0.00226,-0.89999 -0.04379,-1.85565 -0.284,-2.64282c-0.24841,-0.81415 -0.63635,-1.79587 -0.69516,-2.60001c-0.07294,-0.99756 -0.02084,-1.78934 -0.02084,-2.83334c0,-0.79199 0,-1.65332 0,-2.41333c0,-1.1745 0,-1.96799 0,-2.7435c0,-1.0405 0.02777,-1.75854 -0.00449,-2.67148c-0.02832,-0.80124 -0.20609,-1.76236 -0.42084,-2.55301c-0.21146,-0.77847 -0.53067,-1.81296 -0.57333,-2.668c-0.04697,-0.94153 -0.00134,-1.95068 -0.00134,-2.70667c0,-0.91068 0,-1.82135 0,-2.73218c0,-0.69934 0,-1.6785 0,-2.65765c0,-0.85419 0,-1.64618 0,-2.67352c0,-0.69464 0,-1.72198 0,-2.66864c0,-0.85333 0,-1.79468 0,-2.56268c0,-0.94135 0,-1.94934 0,-2.74133c0,-0.85999 0,-1.58533 0,-2.57449c0,-0.96417 0,-1.91483 0,-2.80017c0,-0.79999 0,-1.70001 0,-2.60001l0.02084,-0.87915" id="svg_15" stroke-width="2" stroke="#000" fill="none"/>
  <path t="40290,40440,40450,40482,40482,40499,40516,40531,40548,40548,40565,40565,40581,40598,40598,40616,40636,40636,40656,40656,40666,40686,40706,40736,40746,40746,40766,40786,40796,40816,40836,40846,40865,40885,40885,40905,40915,40935,40955,40965,40975,40985,40998,40998,41016,41032,41048,41049,41066,41066,41066,41081,41082,41098,41116,41116,41135,41135,41148,41149,41166,41185,41185,41199,41216,41216,41235,41255,41275,41275,41285,41298,41299,41315,41335,41335,41355,41355,41366,41381,41382,41398,41416,41432,41432,41449,41449,41466,41466,41481,41482,41498,41515,41516,41531,41532,41549,41566,41581,41582,41598,41615,41616,41631,41632,41648,41649,41665,41666,41682,41698,41699,41715,41716,41731,41732,41748,41749,41765,41766,41781,41798,41799,41815,41816,41831,41832,41849,41849,41866,41882,41882,41899,41916,41916,41932,41932,41932,41949,41966,41966,41982,41982,41999,41999,42016,42016,42032,42032,42049,42049,42066,42082,42082,42099,42116,42116,42116,42132,42132,42149,42149,42166,42166,42184,42184,42184,42204,42204,42216,42232,42249,42249,42249,42266,42282,42282,42299,42316,42316,42332,42332,42349,42366,42366,42382,42399,42399,42416,42432,42449,42466,42466,42482,42482,42499,42499,42516,42516,42516,42532,42532,42549,42549,42566,42566,42583,42599,42616,42616,42632,42632,42648,42665,42665,42681,42681,42681,42702,42702,42715,42732,42732,42748,42748,42765,42781,42782,42798,42815,42831,42831,42848,42848,42865,42881,42882,42898,42898,42915,42915,42931,42932,42932,42948,42948,42965,42966,42966,42981,42982,42982,42998,43015,43015,43016,43032,43032,43032,43048,43048,43065,43081,43098,43098,43115,43131,43131,43151,43151,43171,43191,43201,43221,43221,43241,43251,43266,43281,43298,43298,43315,43315,43331,43351,43351,43351,43365,43365,43381,43381,43401,43401,43401,43421,43421,43441,43461,43461,43471,43481,43498,43515,43531,43531,43548,43548,43565,43581,43600,43600,43601,43615,43615,43631,43631,43650,43650,43650,43665,43681,43681,43698,43698,43715,43715,43731,43731,43748,43748,43765,43765,43781,43781,43781,43798,43815,43815,43831,43831,43831,43850,43870,43870,43881,43898,43915,43915,44081" d="m293,392c0.87851,-1.2215 0.95221,-2.10129 1,-3c0.04272,-0.80338 0.74701,-1.53717 0.96399,-2.39999c0.22076,-0.8779 0.03601,-1.76666 0.03601,-2.60001c0,-0.97849 -0.10062,-1.80911 0.03601,-2.63599c0.14401,-0.87173 0.72824,-1.68106 0.90683,-2.61136c0.17365,-0.90457 0.05716,-1.75266 0.05716,-2.586c0,-0.86215 -0.00534,-1.76669 0,-2.66666c0.00534,-0.90005 0.50052,-1.71878 0.83334,-2.5c0.32019,-0.75153 0.16666,-1.70001 0.16666,-2.60001c0,-0.89999 0,-1.79999 0,-2.69998c0,-0.90002 0,-1.80002 0,-2.70001c0,-0.79999 0,-1.70001 0,-2.60001c0,-0.89999 0,-1.79999 0,-2.69998c0,-0.90002 0,-1.80002 0,-2.70001c0,-0.79999 0.07913,-1.68854 0.5,-2.52084c0.39966,-0.79031 0.48956,-1.49985 0.5,-2.47916c0.00851,-0.79996 0,-1.60001 0,-2.78934c0,-0.72534 -0.03604,-1.72668 0.22134,-2.53217c0.22913,-0.7171 0.66336,-1.67169 0.74265,-2.46783c0.10352,-1.03949 0.09805,-1.90366 0.46133,-2.62134c0.45938,-0.90753 0.56424,-1.58917 0.57468,-2.56781c0.01086,-1.02145 -0.01141,-1.82156 0,-2.72153c0.01044,-0.82104 0.30182,-1.77676 0.57468,-2.47464c0.36401,-0.93097 0.42532,-1.82535 0.42532,-2.62534c0,-0.95718 0,-1.85718 0,-2.60452c0,-0.99417 -0.13107,-1.76804 0.00449,-2.83832c0.11108,-0.87717 0.80551,-1.41125 0.98483,-2.35718c0.17154,-0.90479 0.01062,-1.7215 0.01068,-2.61066c0.00009,-0.98917 -0.12729,-1.81006 0.22134,-2.76801c0.25201,-0.69247 0.73154,-1.50262 0.77417,-2.36865c0.04425,-0.89896 0.00449,-1.81934 0.00449,-2.65268c0,-0.97849 0,-1.79868 0,-2.70001c0,-0.93597 0,-1.784 0,-2.64731c0,-0.90002 0,-1.81934 0,-2.67352c0,-0.97916 0,-1.76849 0,-2.8125c0,-0.79199 0,-1.65067 0,-2.51398c0,-0.90002 -0.07361,-1.82443 0.02084,-2.65268c0.11319,-0.99255 0.68112,-1.58536 0.89383,-2.48532c0.21225,-0.89798 0.08533,-1.91336 0.08533,-2.67868c0,-0.952 0,-1.72 0,-2.66135c0,-1.008 -0.00684,-1.81351 0.284,-2.65997c0.25391,-0.73901 0.63657,-1.71024 0.69516,-2.49384c0.07455,-0.99677 0.01898,-1.81952 0.02084,-2.65683c0.00226,-1.01669 -0.00961,-1.73776 0.42532,-2.73868c0.35504,-0.81711 0.55762,-1.64612 0.57468,-2.62534c0.01373,-0.78928 0.05548,-1.5271 0.42532,-2.37466c0.41983,-0.9621 0.56424,-1.64603 0.57468,-2.62534c0.00839,-0.78931 -0.00061,-1.83334 0,-2.62534c0.00067,-0.85999 -0.01117,-1.79727 0.284,-2.77335c0.23697,-0.78363 0.65384,-1.57327 0.71466,-2.39999c0.07031,-0.9559 -0.00226,-1.854 0.00134,-2.54865c0.00534,-1.02737 0.23801,-1.96811 0.5,-2.69435c0.2308,-0.63983 0.40231,-1.64255 0.5,-2.4375c0.14624,-1.19019 0.57162,-1.80446 0.87851,-2.84233c0.20035,-0.67754 0.08963,-1.67955 0.13217,-2.4785c0.04272,-0.80234 0.36389,-1.78723 0.63666,-2.54283c0.32162,-0.89099 0.25629,-1.88043 0.51932,-2.82384c0.19006,-0.68164 0.6691,-1.32491 0.8125,-2.33333c0.13855,-0.97441 0.02084,-1.67467 0.02084,-2.74283c0,-0.8575 -0.01389,-1.72798 0.00134,-2.52383c0.01813,-0.94713 0.41623,-1.73711 0.832,-2.56667c0.31491,-0.6283 0.16666,-1.78134 0.16666,-2.66667c0,-0.8 -0.01019,-1.70006 0,-2.60001c0.01044,-0.92101 0.23929,-1.71461 0.5,-2.42082c0.35822,-0.97034 0.45929,-1.76868 0.5,-2.8125c0.03229,-0.82816 0.22235,-1.70921 0.42532,-2.42801c0.22311,-0.79018 0.49438,-1.81326 0.55383,-2.69699c0.06848,-1.01825 0.02084,-1.79434 0.02084,-2.69434c0,-0.86334 -0.06631,-1.86739 0.35266,-2.64734c0.40182,-0.74805 0.64508,-1.45715 0.64734,-2.35266c0.00217,-0.86334 -0.03784,-1.86491 0.284,-2.83267c0.24658,-0.74147 0.59698,-1.50833 0.67999,-2.31467c0.082,-0.79654 0.03601,-1.7955 0.03601,-2.71466c0,-0.98534 -0.09158,-1.81551 0.03601,-2.66c0.14523,-0.96126 0.81036,-1.59219 0.95331,-2.46133c0.16501,-1.00323 0.01068,-1.71133 0.01068,-2.728c0,-0.94051 0,-1.80267 0,-2.636c0,-0.9785 -0.00186,-1.79866 0,-2.636c0.00226,-1.01666 -0.01111,-1.73656 0.35266,-2.61583c0.30746,-0.74316 0.58157,-1.75943 0.67267,-2.53351c0.1236,-1.05023 0.35849,-1.74736 0.62201,-2.61015c0.30362,-0.99413 0.34732,-1.80446 0.35266,-2.80467c0.00327,-0.61049 0,-1.48517 0,-2.4825c0,-0.79651 0,-1.548 0,-2.66667c0,-0.98399 -0.02429,-1.66663 0.03601,-2.472c0.08853,-1.18257 0.31238,-2.0708 0.46399,-2.63699c0.32422,-1.21082 0.48956,-1.9998 0.5,-2.84167c0.01114,-0.89992 0,-1.80017 0,-2.58533c0,-0.94 0,-1.948 0,-2.74001c0,-0.85866 0,-1.722 0,-2.73866c0,-0.836 0,-1.73601 0,-2.636c0,-0.8 -0.18375,-1.72649 0.03601,-2.60001c0.21704,-0.86281 0.9213,-1.59851 0.96399,-2.56667c0.02902,-0.65802 0,-1.66666 0,-2.52882c0,-0.84618 -0.01569,-1.84775 0.01068,-2.56584c0.02905,-0.79134 0.18555,-1.82535 0.48932,-2.69699c0.30814,-0.88419 0.49826,-1.70946 0.72134,-2.58434c0.18207,-0.71396 0.52362,-1.43202 0.7215,-2.64751c0.11163,-0.68571 0.05716,-1.63516 0.05716,-2.64316c0,-0.86217 0,-1.76668 0,-2.66667c0,-0.89999 0,-1.70134 0,-2.66666c0,-0.83334 0,-1.81184 0,-2.632c0,-0.90133 0,-1.743 0,-2.74416c0,-0.7185 0,-1.509 0,-2.5355c0,-0.88 0,-1.90051 0,-2.583c0,-1.10667 0,-1.83867 0,-2.57067c0,-1.10667 0,-2.0895 0,-2.78883c0,-0.97916 -0.15131,-1.80594 0.16666,-2.8125c0.22452,-0.71074 0.76233,-1.48332 0.82266,-2.37733c0.06662,-0.98698 0.01068,-1.76849 0.01068,-2.76817c0,-0.83099 0,-1.78916 0,-2.52116c0,-0.732 -0.01447,-1.83878 0.00015,-2.8215c0.01041,-0.69956 0.1412,-1.68725 0.42517,-2.46783c0.26715,-0.73433 0.56424,-1.7105 0.57468,-2.69467c0.00732,-0.69063 0,-1.75883 0,-2.616l0,-0.9l0,-0.8l0.05716,-0.89999" id="svg_16" stroke-width="2" stroke="#000" fill="none"/>
  <path t="46031,46198,46198,46208,46232,46249,46249,46266,46266,46266,46266,46281,46281,46298,46298,46316,46316,46316,46316,46331,46331,46348,46348,46348,46365,46365,46381,46398,46398,46398,46415,46415,46431,46449,46449,46466,46466,46466,46482,46482,46499,46499,46516,46532,46532,46549,46566,46566,46582,46582,46582,46599,46616,46616,46616,46632,46632,46649,46649,46666,46682,46682,46699,46699,46716,46716,46732,46732,46749,46766,46766,46782,46782,46799,46799,46816,46816,46832,46832,46849,46866,46866,46882,46882,46899,46899,46916,46916,46932,46932,46949,46949,46949,46968,46982,46982,46999,46999,47016,47016,47032,47032,47049,47066,47066,47082,47082,47099,47099,47099,47116,47116,47132,47132,47149,47149,47166,47166,47182,47182,47199,47199,47216,47216,47216,47232,47232,47232,47249,47266,47266,47282,47282,47282,47299,47299,47299,47316,47316,47334,47334,47334,47349,47349,47366,47382,47399,47399,47416,47416,47432,47432,47449,47466,47466,47484,47484,47504,47504,47524,47524,47544,47544,47554,47566,47584,47599,47616,47633,47633,47649,47666,47666,47684,47684,47704,47704,47716,47716,47732,47749,47766,47766,47783,47799,47799,47816,47833,47833,47849,47866,47882,47882,47899,47916,47916,47932,47932,47949,47966,47982,47982,47999,48016,48016,48032,48032,48032,48048,48065,48065,48066,48081,48081,48082,48098,48098,48115,48132,48132,48148,48149,48166,48166,48181,48182,48198,48215,48215,48231,48248,48249,48266,48266,48281,48282,48298,48299,48315,48315,48332,48332,48332,48348,48365,48365,48381,48382,48398,48399,48415,48431,48448,48465,48481,48498,48499,48515,48531,48548,48564,48581,48598,48599,48614,48615,48631,48632,48649,48665,48681,48682,48699,48699,48699,48715,48731,48732,48732,48751,48751,48771,48771,48781,48801,48801,48821,48821,48841,48841,48851,48871,48891,48910,48911,48920,48931,48948,48964,48981,48982,48999,48999,49014,49015,49031,49031,49050,49050,49064,49064,49081,49081,49098,49114,49131,49131,49148,49148,49164,49181,49181,49198,49198,49214,49231,49250,49250,49270,49270,49281,49300,49330,49340,49360,49370,49400,49400,49419,49449,49469,49499,49499,49640" d="m299,389c-1,-1 -0.90356,-1.79352 -0.5,-2.5c0.45551,-0.79739 0.46414,-1.82361 0.52084,-2.54166c0.08932,-1.13089 0.32529,-1.91443 0.5,-2.45834c0.26389,-0.82153 0.69736,-1.80508 1.04315,-2.65332c0.33353,-0.81818 0.42871,-1.71371 0.43616,-2.61084c0.00766,-0.92255 0.00476,-1.59882 0.08517,-2.26917c0.14444,-1.20398 0.52112,-2.14737 0.91467,-2.96667c0.38522,-0.80197 0.72784,-1.38065 0.91467,-2.39868c0.13879,-0.75632 -0.00473,-1.87045 0.25198,-2.76797c0.19843,-0.6937 0.64468,-1.42975 1.12885,-2.42883c0.2742,-0.5658 0.62253,-1.51889 0.70465,-2.50485c0.05945,-0.71378 0.27209,-1.67322 0.52069,-2.4205c0.26654,-0.80124 0.68982,-1.78738 0.95831,-2.4375c0.41818,-1.01257 0.41956,-1.85083 0.55685,-2.67764c0.14471,-0.87161 0.72824,-1.68106 0.90683,-2.61136c0.17365,-0.90457 0.00266,-1.78772 0.22382,-2.75266c0.13937,-0.60809 0.65515,-1.4913 0.79733,-2.38535c0.14902,-0.93692 0.03601,-1.62 0.03601,-2.60931c0,-1.03601 0,-1.75351 0,-2.65802c0,-0.86331 0,-1.84732 0,-2.83264c0,-0.72534 0,-1.71469 0,-2.51468c0,-1 0,-1.78934 0,-2.83334c0,-0.75598 0,-1.6875 0,-2.65198c0,-0.72534 0,-1.71451 0,-2.49384c0,-0.99951 0,-1.7735 0,-2.67801c0,-0.74734 0,-1.93832 0,-2.68567c0,-0.90451 0,-1.82382 0,-2.67801c0,-0.97916 -0.15134,-1.80594 0.16666,-2.8125c0.22452,-0.71072 0.76233,-1.48331 0.82266,-2.37732c0.06662,-0.98715 0.01068,-1.78934 0.01068,-2.78934c0,-0.78934 0,-1.51468 0,-2.5c0,-0.98532 0,-1.71066 0,-2.69983c0,-0.77933 0,-1.77884 0,-2.55283c0,-0.90002 -0.00067,-1.76334 0,-2.74734c0.00067,-0.98532 -0.0376,-1.72733 0.22134,-2.70001c0.21793,-0.8186 0.65964,-1.79364 0.74265,-2.59998c0.082,-0.79657 0.03601,-1.80002 0.03601,-2.60001c0,-0.99869 0,-1.76401 0,-2.716c0,-0.76801 -0.00174,-1.72 0,-2.48532c0.00226,-0.99417 0.00549,-1.75989 0.35266,-2.65503c0.31717,-0.81775 0.56824,-1.79657 0.62201,-2.43033c0.08585,-1.01184 0.14819,-1.99124 0.37799,-2.79449c0.24814,-0.86734 0.61874,-1.76483 0.64734,-2.68549c0.02652,-0.85379 -0.02374,-1.83401 0.01068,-2.64401c0.02753,-0.64758 0.19989,-1.61334 0.41464,-2.40399c0.21146,-0.77847 0.45944,-1.82349 0.65869,-2.75333c0.17307,-0.80762 0.44318,-1.54599 0.63199,-2.34933c0.23239,-0.98868 0.27866,-1.83597 0.284,-2.92551c0.00421,-0.85718 -0.00189,-1.75717 0,-2.51434c0.00226,-0.89999 0.03833,-1.85736 0.284,-2.64151c0.24472,-0.78122 0.67993,-1.8476 0.716,-2.76799c0.02579,-0.65825 0.20642,-1.6474 0.57468,-2.45866c0.38223,-0.84209 0.41998,-1.58528 0.42532,-2.57449c0.00421,-0.77933 0,-1.77867 0,-2.59883c0,-0.90134 -0.00195,-1.82095 0.42532,-2.60133c0.45038,-0.82257 0.52689,-1.70128 0.57468,-2.60001c0.04272,-0.80341 0.65057,-1.46922 0.91467,-2.48534c0.18344,-0.7057 0.08533,-1.71466 0.08533,-2.51466c0,-1 0,-1.78934 0,-2.83333c0,-0.75601 -0.14185,-1.67963 0.01068,-2.56667c0.14346,-0.83443 0.8111,-1.46364 0.95331,-2.42534c0.14755,-0.99779 0.03601,-1.76401 0.03601,-2.6955c0,-0.96317 -0.00009,-1.65384 0,-2.722c0.00009,-0.85718 0.20926,-1.73032 0.57468,-2.35718c0.45526,-0.78096 0.65366,-1.71851 0.92532,-2.39999c0.38852,-0.97456 0.49933,-1.79866 0.5,-2.7c0.0007,-0.936 0,-1.784 0,-2.64734c0,-0.89999 -0.05264,-1.82225 0.02084,-2.67349c0.08514,-0.9863 0.45047,-1.75172 0.69516,-2.49384c0.32565,-0.9877 0.284,-1.81866 0.284,-2.74667c0,-0.7905 -0.02515,-1.81802 0.01068,-2.50267c0.04379,-0.83684 0.37128,-1.8206 0.63666,-2.57883c0.35657,-1.01872 0.3526,-1.9785 0.35266,-2.65717c0.00009,-0.97867 0.06888,-1.88988 0.35266,-2.65717c0.27866,-0.75345 0.59549,-1.73897 0.63666,-2.50684c0.05777,-1.07733 0.01068,-1.93617 0.01068,-2.72133c0,-0.94 0,-1.948 0,-2.74001c0,-0.86 0,-1.58533 0,-2.77333c0,-0.76534 0,-1.71733 0,-2.48534c0,-0.96266 0,-1.80266 0,-2.79866c0,-0.79651 0,-1.548 0,-2.65601c0,-0.828 0,-1.68216 0,-2.66133c0,-0.78934 0,-1.83333 0,-2.58934c0,-0.91066 0,-1.81065 0,-2.71066c0,-0.89999 0,-1.8 0,-2.7c0,-0.8 0,-1.7 0,-2.60001c0,-0.89999 0,-1.79999 0,-2.7045c0,-0.86217 0,-1.6955 0,-2.67416c0,-0.774 0,-1.674 0,-2.53734c0,-0.96317 -0.05783,-1.91327 0.22134,-2.8055c0.22479,-0.71846 0.62289,-1.67662 0.75333,-2.46783c0.11932,-0.72375 0.61984,-1.69887 0.85867,-2.54399c0.18518,-0.65521 0.1644,-1.66133 0.16666,-2.69734c0.00156,-0.7175 -0.00916,-1.62204 0,-2.48534c0.01044,-0.98416 0.24887,-1.79504 0.57468,-2.69466c0.28284,-0.78101 0.40732,-1.5782 0.42532,-2.62267c0.01486,-0.86205 -0.00195,-1.78629 0.42532,-2.56667c0.45038,-0.82257 0.57468,-1.60001 0.57468,-2.40001c0,-0.89999 0,-1.8 0,-2.7c0,-0.91066 0,-1.8215 0,-2.71067c0,-0.98917 0,-1.76849 0,-2.768c0,-0.774 0,-1.6785 0,-2.42583c0,-0.9955 0,-1.79549 0,-2.79533c0,-0.77933 0,-1.77866 0,-2.59883c0,-0.90133 0,-1.83733 0,-2.68667c0,-0.91917 0,-1.91333 0,-2.67867c0,-0.95067 0,-1.836 0,-2.72133c0,-0.94 0,-1.63067 0,-2.704c0,-0.82133 -0.09158,-1.74084 0.03601,-2.58533c0.14523,-0.96125 0.80984,-1.59092 0.95331,-2.42533c0.15253,-0.88705 0.01068,-1.8 0.01068,-2.7c0,-0.89999 -0.18329,-1.85427 0.16666,-2.7c0.32468,-0.78463 0.82068,-1.49985 0.83334,-2.4c0.01266,-0.89993 0.284,-1.8 0.716,-2.4l0.27951,-0.89999" id="svg_17" stroke-width="2" stroke="#000" fill="none"/>
 </g>
 <g display="none">
  <title>muse_image</title>
  <image xlink:href="http://farm4.static.flickr.com/3026/3063610540_ca914a252e.jpg" id="muse" height="480" width="360" y="0" x="140"/>
 </g>
 <g display="none">
  <title>bbox</title>
  <rect stroke="#f00" fill="none" stroke-width="3" height="384.96" width="117.12" y="38.4" x="260.96" id="bbox"/>
 </g>
</svg>
