<svg width="640" height="480" xmlns="http://www.w3.org/2000/svg" xmlns:svg="http://www.w3.org/2000/svg" xmlns:xlink="http://www.w3.org/1999/xlink">
 <!-- Sketchy ANNOTATION
  ImageNet ID: n03272010_6820
  URL: http://farm4.static.flickr.com/3195/2735544685_2bf3eec067.jpg
  Image Width: 375
  Image Height: 500
  BBox X: 130
  BBox Y: 5
  BBox Width: 164
  BBox Height: 473
  Exposure: 2000ms
  Synset Label: guitar
  Synset ID: n03467517
  Worker Tag: guitar placed in the room
  Sanity Check: 
   Saved
  Comment: 
   {}
  Worker ID: A1P7U2ULSAE7YL
  Assignment ID: 3X87C8JFV6BT1NJZIWGYEA9NGDLQSJ
  HIT ID: 3QD8LUVX4XYAHYO62CTGQN03WMFX53
  Work Time: 127s
  Worker Score: 0.7857
 END ANNOTATION -->
 <g display="inline">
  <title>Layer 1</title>
  <path t="0,249,264,280,288,304,320,344,360,360,376,384,400,416,432,432,448,448,456,464,480,488,496,504,512,513,520,529,536,536,552,560,568,576,576,584,592,601,608,608,616,624,632,640,648,656,656,664,672,680,688,688,696,704,704,712,720,720,729,729,736,736,745,746,752,761,768,768,776,784,784,800,800,800,808,808,816,824,832,832,840,849,849,856,864,872,872,880,880,888,896,912,912,920,920,928,929,936,936,952,952,962,968,976,976,984,984,992,992,1000,1008,1008,1016,1016,1024,1024,1032,1032,1040,1048,1048,1056,1056,1064,1064,1072,1072,1072,1080,1081,1088,1096,1096,1104,1104,1112,1112,1120,1120,1128,1128,1136,1136,1145,1145,1152,1152,1162,1162,1162,1168,1168,1176,1176,1184,1192,1192,1192,1200,1208,1208,1216,1224,1232,1240,1240,1256,1264,1264,1272,1280,1280,1288,1296,1304,1304,1315,1328,1328,1336,1344,1344,1352,1368,1378,1392,1393,1401,1401,1424,1432,1432,1440,1449,1465,1472,1472,1480,1504,1514,1536,1552,1568,1568,1584,1584,1608,1608,1624,1624,1648" d="m335.51135,83.09091c0,1.8 0,2.7 0,3.6c0,0.9 -0.00009,1.8 0,2.7c0.00009,0.8 0.24213,1.65379 0.64734,2.4c0.4133,0.76112 0.35266,1.7 0.35266,2.6c0,0.90134 0,1.86667 0,2.7c0,0.83334 0,1.6955 0,2.6c0,0.964 0,1.836 0,2.7c0,0.9 0,1.8 0,2.7c0,0.8 0,1.7 0,2.636c0,0.848 0,1.71133 0,2.728c0,0.836 0,1.736 0,2.636c0,0.8 0,1.7 0,2.6c0,0.92084 0,1.884 0,2.57467c0,1.06817 0,1.92516 0,2.85066c0,0.776 0,1.73183 0,2.62733c0,0.86333 0,1.71133 0,2.64733c0,0.9 0,1.80016 0,2.58533c0,0.94 0,1.948 0,2.70399c0,0.9315 0,1.89467 0,2.58534c0,1.07716 0,1.79466 0,2.83066c0,0.744 0,1.85167 0,2.57333c0,0.92134 0,1.832 0,2.74268c0,0.85333 0,1.79333 0,2.67867c0,0.81433 0,1.76933 0,2.52083c0,0.79651 0,1.79117 0,2.76033c0,0.88684 0,1.73967 0,2.69734c0,0.82016 0,1.77867 0,2.67416c0,0.86334 0,1.71133 0,2.65184c0,0.86217 0,1.6955 0,2.674c0,0.82016 0,1.7215 0,2.6575c0,0.84933 0,1.76849 0,2.76399c0,0.8 0,1.79984 0,2.57918c0,0.85416 0,1.73416 0,2.73067c0,0.8075 0,1.65416 0,2.59467c0,0.86217 0,1.71632 0,2.6955c0,0.78934 0,1.83333 0,2.58932c0,0.9315 0,1.89601 0,2.62134c0,0.98933 0,1.78934 0,2.78934c0,0.78934 0,1.83333 0,2.58932c0,0.9315 0,1.89467 0,2.58534c0,1.07716 0,1.79466 0,2.83516c0,0.77551 0,1.8235 0,2.533c0,0.85266 0,1.85583 0,2.62117c0,1.07883 0,1.93616 0,2.72133c0,0.95067 0,1.716 0,2.71468c0,0.79999 0,1.79999 0,2.59999c0,0.99983 0,1.77917 0,2.77867c0,0.774 0,1.6785 0,2.62267c0,1.00316 0,1.63466 0,2.81999c0,0.804 0,1.62601 0,2.65701c0,0.67499 0,1.75499 0,2.51099c0,0.95235 0,1.95334 0,2.66135c0,0.74399 0,1.77866 0,2.74933c0,0.8 0,1.7 0,2.60001c0,0.92082 0,1.88266 0,2.69016c0,0.93134 0,1.81 0,2.59517c0,0.94 0,1.948 0,2.70399c0,0.91068 0,1.82133 0,2.73201c0,0.85333 0,1.79333 0,2.67867c0,0.8 0,1.75717 0,2.65266c0,0.86334 0,1.71133 0,2.64734c0,0.90134 0,1.86667 0,2.7c0,0.83333 0,1.71333 0,2.64667c0,0.83733 0,1.70067 0,2.71733c0,0.836 0,1.73601 0,2.636c0,0.79999 0,1.70001 0,2.60001c0,0.96399 0,1.836 0,2.7045c0,0.86215 0,1.6955 0,2.67416c0,0.77399 0,1.6785 0,2.62265l0,0.99417l0,0.74734l0,1.0105" id="svg_1" stroke-width="2" stroke="#000" fill="none"/>
  <path t="3544,3760,3768,3776,3784,3792,3800,3808,3816,3832,3832,3842,3848,3848,3856,3864,3872,3872,3880,3888,3896,3896,3904,3912,3912,3920,3920,3928,3928,3936,3944,3952,3952,3960,3960,3968,3968,3976,3976,3976,3992,3992,4000,4000,4001,4008,4008,4016,4016,4025,4025,4032,4032,4041,4048,4048,4056,4056,4064,4064,4064,4072,4072,4080,4088,4088,4088,4096,4096,4104,4104,4104,4112,4112,4120,4120,4128,4128,4136,4136,4136,4144,4144,4152,4152,4160,4160,4168,4168,4168,4176,4176,4176,4184,4184,4192,4192,4200,4200,4208,4208,4208,4216,4224,4224,4232,4232,4232,4241,4241,4248,4258,4258,4264,4264,4272,4272,4280,4280,4288,4296,4296,4304,4304,4312,4312,4320,4320,4328,4336,4345,4352,4352,4360,4360,4368,4368,4376,4384,4384,4392,4400,4408,4408,4416,4416,4424,4432,4441,4441,4448,4448,4457,4464,4464,4472,4472,4480,4480,4488,4488,4496,4504,4504,4512,4512,4520,4528,4536,4536,4544,4544,4552,4561,4561,4568,4577,4584,4595,4595,4600,4616,4624,4632,4641,4648,4658,4680,4680,4688,4696,4712,4728,4744,4752,4776,4792,4808,4824,4848,4872,4880,4904,4960,4984,5096,5112,5136,5136,5160,5192,5264,5312,5376,5400,5448,5480,5528,5648,5704,5776,5824,5864,5944" d="m352.51135,84.09091c0,2.58933 0,3.5 0,4.4c0,0.89999 0,1.79867 0,2.684c0,0.80267 0,1.74133 0,2.74934c0,0.756 0,1.6875 0,2.488c0,0.85333 0,1.79333 0,2.77866c0,0.9 0,1.7 0,2.6c0,0.82084 0,1.784 0,2.64734c0,0.89999 0,1.81933 0,2.65266c0,0.97867 0,1.75266 0,2.65266c0,0.86333 0,1.8265 0,2.758c0,0.91084 0,1.61017 0,2.58933c0,0.78933 0,1.83334 0,2.66133c0,0.88116 0,1.81783 0,2.48534c0,1.18667 0,1.895 0,2.85333c0,0.8 0,1.6 0,2.6c0,0.8 0,1.8 0,2.6c0,0.99983 0,1.964 0,2.916c0,0.76801 0,1.70934 0,2.71733c0,0.79201 0,1.65334 0,2.41333c0,1.17451 0,1.968 0,2.74352c0,1.03915 0,1.80716 0,2.68182c0,0.87083 0,1.84883 0,2.64534c0,0.99866 0,1.68266 0,2.84933c0,0.78149 0,1.57199 0,2.5c0,0.948 0,1.81866 0,2.54399c0,0.98933 0,1.78934 0,2.78934c0,0.8 0,1.60001 0,2.60001c0,0.79999 0,1.79999 0,2.59999c0,1.00017 0,1.82083 0,2.96667c0,0.786 0,1.60799 0,2.66666c0,0.7095 0,1.56216 0,2.56534c0,0.76534 0,1.71866 0,2.57066c0,1.0405 0,1.81601 0,2.864c0,0.705 0,1.505 0,2.54134c0,0.94684 0,1.64616 0,2.62534c0,0.8 0,1.60001 0,2.5955c0,0.91916 0,1.9045 0,2.726c0,0.88916 0,1.87849 0,2.6785c0,1 0,1.78934 0,2.83333c0,0.756 0,1.6875 0,2.48817c0,0.88916 0,1.87849 0,2.6785c0,1 0,1.78934 0,2.83333c0,0.756 0,1.66667 0,2.56667c0,0.90451 0,1.76668 0,2.62083c0,0.97917 0,1.76851 0,2.8125c0,0.756 0,1.6875 0,2.48784c0,0.8175 0,1.84683 0,2.69966c0,0.95784 0,1.73184 0,2.63184c0,0.86334 0,1.82651 0,2.758c0,0.91084 0,1.61017 0,2.58934c0,0.95833 0,1.832 0,2.71432c0,0.69467 0,1.68567 0,2.48567c0,0.99983 0,1.964 0,2.916c0,0.76801 0,1.70934 0,2.71733c0,0.79201 0,1.65067 0,2.51401c0,0.89549 0,1.854 0,2.81934c0,0.65866 0,1.66666 0,2.52882c0,0.82533 0,1.7885 0,2.65184c0,0.89549 0,1.85266 0,2.75267c0,0.89999 0,1.7 0,2.59999c0,0.90001 0,1.8 0,2.7c0,0.90001 0,1.79868 0,2.68401c0,0.916 0,1.716 0,2.616c0,0.90001 0,1.8 0,2.7c0,0.89999 0,1.80002 0,2.70001c0,0.89999 0,1.77866 0,2.60449c0,0.89551 0,1.7955 0,2.6955c0,0.89999 0,1.80002 0,2.70001c0,0.89999 -0.1543,1.81625 -1,1.89999c-0.79608,0.07883 -1.69998,0 -2.59998,0c-0.90002,0 -1.80002,0 -2.70001,0c-0.89999,0 -1.79984,0 -2.70001,0c-0.80133,0 -1.69998,0 -2.59998,0c-0.90002,0 -1.80002,0 -2.70001,0l-0.89999,0" id="svg_2" stroke-width="2" stroke="#000" fill="none"/>
  <path t="7040,7200,7224,7312,7352,7376,7408,7448,7472,7488,7520,7552,7568,7616,7688,7888,7896,8000,8096" d="m334.51135,83.09091c1.80002,0 2.70001,0 3.60001,0c0.89999,0 1.80002,0 2.70001,0c0.89999,0 1.79984,0 2.64734,0c0.75717,0 1.75266,0 2.65265,0c0.89999,0 1.80002,0 2.70001,0l0.89999,0l0.89999,0l0.89999,0" id="svg_3" stroke-width="2" stroke="#000" fill="none"/>
  <path t="8712,8975,8999,9023,9032,9032,9040,9072,9080,9096,9096,9111,9128,9152,9160,9169,9185,9192,9200,9200,9216,9224,9240,9256,9272,9280,9295,9312,9321,9328,9344,9360,9360,9376,9385,9407,9456,9528,9799,9831,9839,9855,9864,9919,9920,9935,9959,9992,10023,10032,10048,10063,10072,10095,10111,10143,10159,10191,10215,10232,10272,10335,10336,10367,10487,10567,10623,10783,10823,10879,11135,11159,11167,11168,11191,11215,11231,11255,11271,11279,11288,11304,11311,11320,11328,11335,11359,11391,11407,11431,11439,11440,11455,11472,11495,11503,11520,11528,11559,11583,11583,11623,11648,11655,11695,11727,11743,11759,11791,11823,11855,11887,11911,12151,12159,12168" d="m335.51135,81.09091c-0.16666,-1.83334 -0.93909,-2.21523 -1,-3.1c-0.0618,-0.89788 0.39294,-1.83036 -0.08533,-2.61467c-0.49005,-0.80363 -0.91467,-1.38533 -0.91467,-2.28533c0,-0.8 0,-1.7 0,-2.564c0,-0.872 0,-1.836 0,-2.736c0,-0.9 0,-1.8 0,-2.7c0,-0.8 0,-1.7 0,-2.6c0,-0.87917 0.0007,-1.75716 0,-2.7c-0.00067,-0.89867 -0.56885,-1.37663 -0.96399,-2.136c-0.39917,-0.76711 0.04611,-1.76777 -0.03616,-2.664c-0.08368,-0.91144 -0.7551,-1.43901 -0.979,-2.4c-0.20193,-0.86668 -0.74762,-1.31628 -1.02084,-1.936c-0.34854,-0.79058 -0.327,-2.04609 0.35718,-2.50683c0.78348,-0.52761 1.84149,-0.05717 2.6955,-0.05717c0.94733,0 1.74734,0 2.64734,0c0.89999,0 1.79999,0 2.70001,0c0.89999,0 1.79999,0 2.69998,0c0.89999,0 1.73334,0 2.60452,0c0.89548,0 1.79547,0 2.6955,0c0.89999,0 1.79999,0 2.69998,0c0.89999,0 1.70001,0 2.60001,0c0.86401,0 1.82083,0 2.70001,0c0.89999,0 1.79999,0 2.69998,0c0.89999,0 1.81625,0.1543 1.89999,1c0.07883,0.79611 0,1.71466 0,2.61066c0,0.88934 0.24289,1.82417 -0.00449,2.68483c-0.2207,0.76789 -0.98508,1.22517 -0.99551,2.2045c-0.00958,0.89995 0.16702,1.8159 -0.00131,2.69867c-0.14441,0.75738 -0.98068,1.2261 -0.99869,2.08667c-0.01913,0.91447 0,1.81467 0,2.71467c0,0.8 0.18375,1.72649 -0.03598,2.6c-0.21704,0.86283 -0.79724,1.61149 -0.96417,2.49983c-0.14948,0.79555 -0.99985,1.06683 -0.99985,1.90017c0,0.8 0,1.7 0,2.6c0,0.9 0.32224,1.85763 -0.01065,2.78934c-0.26331,0.73692 -0.98401,1.22128 -0.98935,2.11066c-0.00534,0.88932 0.00009,1.78533 0,2.7c-0.00009,0.89983 -0.284,1.716 -0.94281,2.15717l-0.05719,0.84151" id="svg_4" stroke-width="2" stroke="#000" fill="none"/>
  <path t="26616,26703,26713,26720,26728,26736,26744,26744,26752,26760,26769,26776,26785,26792,26802,26808,26832,26832,26840,26849,26849,26856,26865,26865,26872,26880,26896,26904,26904,26912,26920,26920,26936,26944,26944,26952,26960,26968,26976,26985,26992,27002,27008,27023,27024,27032,27032,27040,27048,27056,27065,27065,27072,27080,27088,27096,27096,27104,27112,27120,27120,27128,27136,27144,27159,27168,27169,27176,27185,27192,27192,27208,27224,27239,27256,27265,27265,27281,27288,27296,27312,27312,27328,27336,27336,27352,27368,27385,27401,27401,27408,27418,27435,27440,27456,27465,27472,27488,27504,27527,27543,27544,27552,27560,27568,27576,27592,27592,27601,27624,27639,27648,27656,27656,27664,27672,27681,27688,27688,27697,27697,27712,27723,27728,27736,27736,27752,27768,27776,27792,27800,27808,27818,27840,27848,27848,27856,27872,27881,27888,27904,27904,27912,27928,27937,27952,27969,27985,27985,27992,27992,28001,28008,28024,28035,28035,28035,28040,28048,28056,28064,28064,28072,28072,28081,28081,28088,28105,28112,28120,28120,28129,28136,28144,28144,28152,28160,28168,28176,28176,28185,28192,28200,28208,28218,28218,28233,28253,28267,28267,28272,28273,28280,28297,28297,28304,28314,28328,28328,28344,28353,28371,28376,28387,28392,28402,28416,28434,28453,28453,28456,28457,28464,28480,28504,28514,28520,28520,28528,28544,28553,28560,28560,28575,28586,28592,28604,28608,28616,28624,28633,28640,28653,28667,28672,28672,28680,28696,28704,28713,28720,28736,28744,28753,28753,28760,28775,28791,28800,28808,28824,28824,28833,28833,28840,28853,28856,28872,28872,28882,28888,28896,28913,28920,28929,28929,28944,28944,28953,28969,28976,28976,28986,28992,29002,29008,29016,29024,29024,29036,29040,29040,29052,29056,29071,29071,29071,29073,29080,29089,29096,29104,29104,29113,29129,29136,29136,29144,29144,29144,29154,29154,29154,29160,29175,29184,29184,29192,29203,29216,29216,29224,29236,29236,29252,29256,29272,29286,29289,29304,29320,29320,29335,29345,29360,29360,29369,29386,29386,29392,29402,29408,29419,29424,29432,29432,29440,29452,29456,29468,29472,29485,29489,29496,29496,29504,29505,29512,29520,29520,29529,29536,29545,29552,29560,29560,29575,29576,29586,29586,29592,29601,29616,29636,29636,29649,29649,29656,29672,29672,29685,29689,29697,29697,29704,29735,29751,29752,29760,29769,29785,29792,29792,29802,29818,29824,29847,29863,29879,29880,29889,29889,29896,29904,29912,29920,29929,29952,29960,29967,29985,30006,30006,30008,30009,30018,30024,30031,30055,30072,30072,30082,30082,30089,30097,30118,30118,30128,30145,30145,30152,30162,30169,30176,30186,30192,30192,30207,30223,30231,30232,30240,30248,30256,30256,30264,30272,30281,30289,30301,30301,30305,30305,30311,30320,30321,30328,30344,30352,30352,30361,30369,30369,30376,30385,30392,30399,30418,30418,30435,30435,30453,30468,30469,30472,30473,30485,30488,30497,30504,30505,30514,30520,30520,30527,30528,30536,30544,30552,30561,30569,30578,30586,30592,30608,30618,30618,30624,30635,30640,30655,30664,30665,30684,30684,30697,30717,30718,30720,30721,30728,30744,30745,30745,30752,30753,30761,30768,30785,30792,30802,30802,30808,30808,30818,30818,30824,30834,30840,30847,30856,30864,30864,30872,30883,30888,30901,30905,30920,30935,30951,30952,30961,30961,30968,30984,30992,31002,31017,31034,31034,31040,31050,31051,31051,31064,31072,31072,31081,31081,31101,31104,31120,31131,31136,31143,31160,31161,31161,31168,31168,31177,31185,31185,31201,31208,31208,31218,31224,31239,31239,31263,31273,31287,31303,31312,31320,31328,31336,31336,31344,31361,31368,31369,31378,31395,31402,31402,31418,31424,31431,31440,31463,31495,31505,31505,31519,31543,31554,31560,31568,31583,31600,31601,31617,31633,31650,31666,31680,31688,31697,31716,31730,31730,31736,31737,31752,31752,31768,31768,31783,31800,31809,31824,31824,31839,31855,31856,31871,31887,31888,31896,31920,31920,31936,31951,31975,31976,31985,31993,32000,32009,32017,32033,32049,32049,32066,32071,32087,32104,32104,32120,32136,32136,32159,32175,32199,32210,32224,32232,32232,32240,32255,32266,32272,32296,32312,32313,32330,32331,32338,32344,32364,32369,32369,32377,32385,32393,32401,32410,32426,32434,32450,32457,32465,32473,32483,32483,32489,32504,32517,32517,32522,32544,32554,32555,32568,32569,32577,32577,32577,32593,32601,32617,32617,32634,32641,32641,32656,32672,32673,32683,32698,32716,32729,32729,32738,32746,32754,32769,32780,32793,32801,32816,32826,32834,32834,32841,32856,32864,32883,32889,32897,32920,32933,32953,32969,33000,33048,33096,33097,33144,33168,33192,33203" d="m333.51135,238.09091c-0.7045,0.64734 -1.59998,0.98933 -2.5,1c-0.89999,0.01067 -1.61179,0.44232 -2.5,0.83333c-0.65762,0.28949 -1.60001,0.16135 -2.5,0.16667c-0.90005,0.00534 -1.63788,0.59933 -2.44733,0.94283c-0.7879,0.33434 -1.75266,0.0571 -2.61667,0.05717c-0.87881,0.00009 -1.67465,-0.1058 -2.67883,0.35266c-0.81586,0.37248 -1.44473,0.7236 -2.27798,1.14734c-0.78922,0.40134 -1.69055,0.40469 -2.41785,0.92534c-0.66516,0.47615 -1.47012,1.00145 -2.06134,1.57466c-0.60919,0.59065 -1.21674,1.42616 -2,1.83333c-0.74384,0.38667 -1.48029,0.70847 -2.19998,1.36534c-0.5845,0.53349 -1.27747,1.02896 -1.96933,1.51733c-0.71722,0.50627 -1.69794,0.65714 -2.25601,1.25867c-0.57712,0.62204 -1.18497,1.05138 -1.98532,1.45067c-0.91028,0.45413 -1.64682,0.39836 -2.56784,0.79616c-0.79367,0.34279 -1.40631,1.02046 -1.90018,1.87834c-0.42453,0.73747 -1.2493,1.08882 -1.82132,1.60466c-0.7272,0.65579 -0.9549,1.53925 -1.52151,2.17435c-0.60013,0.67267 -1.14264,1.25235 -1.87833,1.87833c-0.6398,0.54437 -1.36963,1.02597 -2.0495,1.26816c-0.8382,0.29855 -1.13116,1.37808 -1.85068,1.80801c-0.77045,0.46036 -0.82645,1.2049 -1.08533,1.96664c-0.30176,0.88791 -0.75848,1.66409 -1.19998,2.40002c-0.4071,0.67862 -1.38925,1.21512 -1.6575,2.09998c-0.26166,0.86304 0.14099,1.8606 -0.22385,2.70001c-0.29755,0.68457 -1.22971,1.23297 -1.66666,2c-0.44427,0.77988 -1.07272,1.32318 -1.15601,2.18533c-0.08936,0.92508 0.02652,1.81552 -0.01068,2.61465c-0.04272,0.91766 -0.93909,1.41525 -1,2.30002c-0.0618,0.89786 0,1.69998 0,2.60001c0,0.89999 0,1.79999 0,2.69998c0,0.89999 0,1.80002 0,2.69983c0,0.87485 0,1.70151 0,2.53616c0,1.01669 0,1.71133 0,2.72803c0,0.93597 0,1.836 0,2.73599c0,0.89999 -0.01837,1.70016 0,2.61465c0.01801,0.89655 0.61292,1.59744 0.91467,2.48535c0.25888,0.76175 -0.1106,1.6344 0.14252,2.5c0.25665,0.87759 0.83405,1.62076 1.1095,2.46664c0.27789,0.85342 0.74545,1.65475 0.82883,2.47168c0.09872,0.96732 -0.05612,1.90054 0.35718,2.66165c0.40521,0.74622 0.64664,1.5 0.64731,2.40002c0.00064,0.89999 -0.00226,1.79999 0,2.69998c0.00226,0.89551 0.58051,1.54019 0.98935,2.17468c0.46832,0.72684 1.10355,1.34991 1.57468,2.02533c0.51169,0.73358 0.43597,1.69998 0.43597,2.60001c0,0.89999 0,1.79999 0,2.59998c0,0.90002 0,1.80002 0,2.76401c0,0.87201 0,1.74051 0,2.60266c0,0.83334 0.02597,1.81223 0,2.63202c-0.02859,0.90268 -0.53876,1.68076 -0.95181,2.50583c-0.42206,0.84305 -0.90945,1.50046 -1.34283,1.98566c-0.7142,0.79959 -0.47391,1.83817 -0.99066,2.54184c-0.51675,0.70364 -1.17191,1.2168 -1.71469,2.00134c-0.46469,0.67166 -1.30756,1.28802 -1.71466,1.96664c-0.4415,0.73593 -0.80264,1.55042 -1.20132,2.40002c-0.40366,0.86026 -0.90265,1.25128 -1.64801,1.82532c-0.69034,0.53165 -1.22562,1.1702 -1.86798,1.77466c-0.64706,0.60889 -1.11121,1.40332 -1.4465,2.30002c-0.31808,0.85065 -0.29987,1.5932 -1.12152,1.89999c-0.89462,0.33405 -0.7532,1.37955 -1.35715,1.94733c-0.66071,0.62112 -1.09692,1.00986 -1.72684,1.76733c-0.60275,0.72479 -1.2309,1.31094 -1.77734,1.68533c-0.94232,0.6456 -1.68851,1.04807 -2.05466,1.80002c-0.41611,0.85452 -0.84836,1.44611 -1.47333,2.19998c-0.54504,0.65744 -0.43713,1.63824 -0.69601,2.39999c-0.30176,0.88791 -0.90005,1.58026 -1.41467,2.20001c-0.49991,0.60202 -0.1333,1.57971 -0.52081,2.47916c-0.30777,0.71436 -1.04031,1.22095 -1.40451,1.93152c-0.46402,0.90533 -0.55362,1.61017 -0.57468,2.58932c-0.0206,0.95834 -0.51642,1.51999 -0.94281,2.35266c-0.39685,0.77502 -0.05719,1.74734 -0.05719,2.64734c0,0.79999 -0.33841,1.44635 -0.83331,2.16666c-0.5369,0.78146 -0.16669,1.83334 -0.16669,2.63333c0,0.90002 -0.16275,1.63806 -0.64731,2.25269c-0.51202,0.64944 -0.35269,1.64734 -0.35269,2.54733c0,0.89999 0,1.79999 0,2.69998c0,0.90002 0,1.80002 0,2.70001c0,0.79999 0,1.71466 0,2.61066c0,0.88934 0,1.78934 0,2.68933c0,0.90002 0,1.80002 0,2.70001c0,0.79999 0.37073,1.42896 0.87851,2.2215c0.47842,0.74677 -0.16495,1.89288 0.28818,2.61185c0.44431,0.70499 0.8125,1.20831 0.83331,2.16666c0.02084,0.95834 0.55121,1.61026 0.94284,2.35718c0.39233,0.74823 0.358,1.69366 0.7045,2.34283c0.45334,0.84937 0.30731,1.86075 0.96335,2.32532c0.71844,0.50873 1.29797,1.17526 1.3895,2.07483c0.07993,0.78574 0.40121,1.5336 0.71582,2.41583c0.33728,0.94583 0.78452,1.70282 1.11734,2.48401c0.32019,0.75153 0.04858,1.83588 0.6875,2.47916c0.63785,0.64221 1.33337,0.96906 1.48367,1.82083c0.16382,0.92847 0.79654,1.50031 1.39551,2.10001c0.69949,0.70035 1.24094,1.30087 1.59998,2.10001c0.3598,0.80084 1.1713,1.49261 1.81467,1.89999c0.62054,0.39294 1.0947,1.26447 1.61069,1.98935c0.52945,0.74377 1.18604,1.27505 2.05865,1.80933c0.66635,0.40799 1.77036,0.48492 2.39484,1.02283c0.68301,0.58832 1.16476,1.24326 1.9545,1.7785c0.56952,0.38602 1.13089,0.89224 1.93335,1.48401c0.70801,0.52213 1.49304,0.94363 2.12534,1.86932c0.40942,0.59943 1.16489,0.93637 1.80798,1.29401c0.85312,0.4744 1.61465,0.95847 2.50134,1.26733c0.65079,0.22668 1.62399,0.08533 2.63199,0.08533c0.86218,0 1.76666,-0.00226 2.64584,0c0.8735,0.00226 1.39471,0.72568 2.1315,0.98932c0.85699,0.30664 1.87332,0.01068 2.564,0.01068c1.06818,0 1.9859,-0.19818 2.82532,0.16666c0.68457,0.29755 1.19742,1.29913 2,1.66669c0.74274,0.34015 1.70001,0.22382 2.5,0.66666c0.80002,0.44284 1.70001,0.5 2.60001,0.5c0.89999,0 1.70001,0 2.60001,0c0.89999,0 1.79999,0 2.70001,0c0.89999,0 1.79999,0 2.69998,0c0.89999,0 1.6701,0.02051 2.55267,0.35266c0.70624,0.26581 1.7215,0.62933 2.66867,0.64734c0.67853,0.01291 1.81403,-0.33279 2.55734,0.22134c0.64441,0.48041 1.32263,0.73013 2.2215,0.77881c0.7886,0.04272 1.54156,0.39514 2.30432,0.64719c0.97751,0.323 1.93832,0.3504 2.83835,0.35266c0.95715,0.00238 1.85715,0 2.75714,0c0.75717,0 1.65268,0 2.51602,0c0.98398,0 1.80533,0 2.65866,0c0.94,0 1.92532,0 2.82532,0c0.80002,0 1.64285,0 2.54169,0c0.94232,0 1.80566,0 2.70117,0c0.95715,0 1.85715,0 2.75714,0c0.80002,0 1.70001,0 2.60001,0c0.87918,0 1.75717,0 2.7045,0c0.86218,0 1.6955,0 2.67401,0c0.82016,0 1.7215,0 2.62149,0c0.89999,0 1.80002,0 2.6955,0c0.87119,0 1.92841,0.25485 2.58319,-0.22134c0.70218,-0.51068 1.28799,-0.77866 2.12131,-0.77866c0.97852,0 1.79868,0 2.70001,0c0.89999,0 1.87076,0.09869 2.74667,-0.01068c0.89273,-0.11148 1.51718,-0.60086 2.53183,-0.86783c0.80164,-0.21091 1.71854,-0.18442 2.43216,-0.54681c0.90695,-0.46057 1.58917,-0.56424 2.70401,-0.57468c0.88528,-0.00827 1.67935,-0.09561 2.38531,-0.5c0.79346,-0.4545 1.71271,-0.34955 2.59985,-0.50015c0.85236,-0.14471 1.00061,-1.24231 1.70151,-1.71451c0.71072,-0.47879 1.54959,-0.85889 2.51999,-1.16385c0.65451,-0.20569 1.76761,0.14288 2.5575,-0.34283c0.7377,-0.45364 1.31497,-0.73355 2.10034,-1.27866c0.67484,-0.46838 1.39752,-0.9635 2.12082,-1.37885c0.87433,-0.50208 1.13715,-1.12158 1.89999,-1.78781c0.60046,-0.52441 1.48029,-0.87515 2.20001,-1.53201c0.5845,-0.53348 1.18475,-1.11273 1.96667,-1.63467c0.70682,-0.4718 1.68329,-0.18045 2.33331,-0.6875c0.76907,-0.59991 1.36359,-1.29727 2.31467,-1.44315c0.84293,-0.12927 1.77322,0.06848 2.48535,-0.39319c0.79745,-0.51697 1.29999,-1.24283 1.89999,-1.84283c0.60001,-0.59998 1.34518,-1.28888 1.89999,-2.12131c0.43692,-0.65552 0.80786,-1.59851 1.39999,-2.13702c0.61792,-0.56195 1.24466,-0.93423 1.509,-1.84164c0.25446,-0.87354 1.2977,-0.8317 1.87668,-1.65186c0.44464,-0.62988 0.06909,-1.65207 0.11884,-2.63916c0.04239,-0.84113 0.69888,-1.49216 0.97015,-2.25967c0.31308,-0.88574 0.98251,-1.4317 1.02533,-2.34933c0.04193,-0.89883 0.50723,-1.40897 0.94284,-2.15717c0.42508,-0.73013 0.358,-1.69366 0.7045,-2.34283c0.45334,-0.84937 0.3504,-1.79999 0.35266,-2.69998c0.00226,-0.90451 0.16669,-1.76666 0.5,-2.60001c0.33334,-0.83334 0.52179,-1.59106 0.92535,-2.41068c0.44937,-0.9126 0.42453,-1.63589 0.79599,-2.56784c0.30878,-0.77472 0.74728,-1.57059 1,-2.56415c0.18164,-0.71408 0.50107,-1.43546 0.69333,-2.48666c0.13901,-0.75998 0.08533,-1.67068 0.08533,-2.61349c0,-0.87802 -0.01825,-1.76804 0.00018,-2.67868c0.01801,-0.88971 0.20959,-1.88245 0.42517,-2.46783c0.38736,-1.05185 0.56931,-1.79993 0.57465,-2.71066c0.00525,-0.89996 0,-1.79999 0,-2.70001c0,-0.89999 0,-1.79999 0,-2.59998c0,-0.90002 0,-1.80002 0,-2.70001c0,-0.89999 0,-1.79999 0,-2.70001c0,-0.89999 0,-1.79999 0,-2.55716c0,-0.89551 0,-1.75882 0,-2.72198c0,-0.92084 0,-1.82083 0,-2.72086c0,-0.89999 0,-1.79999 0,-2.59998c0,-0.87201 0,-1.74268 0,-2.70001c0,-0.73199 0,-1.69016 0,-2.66666c0,-0.83334 0,-1.81186 0,-2.63202c0,-0.90134 0,-1.76532 0,-2.72217c0,-0.87915 0,-1.77914 0,-2.68048c0,-0.96533 0.05234,-1.64346 -0.08533,-2.40002c-0.1843,-1.01282 -0.44394,-1.78845 -0.89999,-2.76266c-0.36737,-0.78479 -1.40018,-1.04547 -1.84399,-1.83731c-0.47931,-0.85513 0.12308,-1.75006 -0.45468,-2.62933c-0.46509,-0.70776 -1.10205,-1.30771 -1.43198,-1.96933c-0.42056,-0.84338 -0.1188,-1.81921 -0.30484,-2.70001c-0.17899,-0.84738 -0.52173,-1.86575 -1.20068,-2.37851c-0.7077,-0.53448 -1.88757,-0.17694 -2.3425,-0.73215c-0.56085,-0.68448 -0.2746,-1.80875 -0.87866,-2.48935c-0.57462,-0.64743 -1.38876,-1.09961 -1.5575,-2c-0.16861,-0.8996 -0.6011,-1.48724 -0.97449,-2.29999c-0.4075,-0.88702 -0.37512,-1.8511 -1.02667,-2.51468c-0.50269,-0.51193 -1.5972,-0.57657 -1.87735,-1.40649c-0.26566,-0.78693 -0.83841,-1.53842 -1.11066,-2.28949c-0.29614,-0.81705 -0.66595,-1.43713 -1.06332,-2.09384c-0.47784,-0.78973 -1.26846,-1.40894 -1.66202,-2.09549c-0.42065,-0.73383 -0.42899,-1.64212 -0.93265,-2.19553c-0.47726,-0.52441 -0.05505,-1.55957 -0.36334,-2.39383c-0.27582,-0.7464 -1.31284,-0.94315 -1.98935,-1.61066c-0.62238,-0.61407 -1.14194,-1.29944 -1.47916,-2c-0.45847,-0.95248 -0.52411,-1.77075 -0.8735,-2.64816c-0.31918,-0.80151 -0.64734,-1.63718 -0.64734,-2.55185c0,-0.89999 0,-1.79999 0,-2.59998c0,-0.836 0,-1.85269 0,-2.54733c0,-1.02734 0,-1.97385 0,-2.79135c0,-0.944 0,-1.86133 0,-2.66132c0,-0.90002 0,-1.836 0,-2.68402c0,-0.86331 0,-1.75882 0,-2.716c0,-0.89999 0,-1.79999 0,-2.67865c0,-0.76801 0,-1.77402 0,-2.46866c0,-1.01669 0,-1.95267 0,-2.85269c0,-0.90015 0,-1.68533 0,-2.62534c0,-1.008 0,-1.76398 0,-2.67465c0,-0.89999 0,-1.79999 0,-2.70001c0,-0.89999 0,-1.79999 0,-2.59998c0,-0.90002 0,-1.80002 0,-2.70001c0,-0.88934 0,-1.78668 0,-2.66666c0,-0.83334 0,-1.81186 0,-2.63202c0,-0.90134 -0.01697,-1.81073 -0.42532,-2.612c-0.39005,-0.76538 -0.26245,-1.76575 -0.93182,-2.47949c-0.63556,-0.67767 -1.20474,-1.07349 -1.70001,-1.75717c-0.46368,-0.64011 -1.06653,-1.13092 -1.51749,-1.95267c-0.42804,-0.77997 -0.25204,-1.84909 -0.86133,-2.37466c-0.71237,-0.61447 -1.44128,-1.01749 -1.56268,-1.82533c-0.13651,-0.90855 -0.91425,-1.21965 -1.64951,-1.55716c-0.81775,-0.37537 -1.20169,-1.28235 -1.70898,-2c-0.52478,-0.74237 -1.13791,-1.17883 -1.96417,-1.74301c-0.65942,-0.45026 -1.53555,-1.0479 -2.04266,-1.71449c-0.45645,-0.60002 -1.16516,-1.10754 -1.936,-1.53799c-0.836,-0.46684 -1.53055,-0.79094 -2.10001,-1.498c-0.63531,-0.78883 -1.08719,-1.43532 -1.8215,-2.028c-0.64594,-0.52135 -1.43079,-0.93102 -2.3425,-1.11067c-0.85559,-0.16859 -1.8291,0.19139 -2.63464,-0.29601c-0.62436,-0.37778 -0.89328,-1.40077 -1.65201,-1.68933c-0.96054,-0.36533 -1.57391,-0.83791 -2.34799,-1.30933c-0.71692,-0.4366 -1.14365,-1.33488 -2.00134,-1.63068c-0.85464,-0.29474 -1.80042,-0.05995 -2.60001,-0.08533c-0.90137,-0.02859 -1.62238,-0.6862 -2.5,-0.94284c-0.86557,-0.25311 -2.00354,0.26797 -2.61465,-0.34116c-0.5376,-0.53586 -0.76196,-1.28487 -1.52133,-1.68001c-0.76712,-0.39917 -1.76401,-0.036 -2.664,-0.036c-0.90002,0 -1.70001,0 -2.60001,0l-0.89999,0l-0.87918,-0.02083l-0.57349,-0.62651" id="svg_6" stroke-width="2" stroke="#000" fill="none"/>
  <path t="37912,37976,37986,37993,37993,38000,38009,38009,38009,38017,38017,38017,38025,38032,38032,38041,38041,38049,38049,38049,38057,38057,38057,38065,38073,38080,38080,38080,38089,38089,38097,38097,38105,38105,38113,38121,38121,38129,38129,38129,38137,38137,38145,38153,38153,38161,38161,38161,38170,38177,38177,38186,38186,38192,38192,38192,38201,38209,38209,38217,38224,38224,38233,38233,38233,38241,38249,38249,38257,38265,38273,38273,38281,38281,38281,38289,38297,38297,38305,38305,38312,38321,38321,38328,38337,38337,38345,38345,38345,38353,38353,38370,38377,38377,38386,38386,38401,38401,38409,38409,38417,38425,38432,38441,38449,38449,38457,38465,38473,38481,38496,38496,38505,38513,38521,38537,38553,38553,38561,38569,38576,38593,38593,38609,38609,38626,38632,38641,38648,38664,38673,38680,38680,38697,38713,38721,38737,38753,38777,38793,38826,38826" d="m335.51135,270.09091c0,1.79999 0,2.63599 0,3.48401c0,0.86331 0,1.90134 0,2.84933c0,0.67648 0,1.452 0,2.5c0,0.91998 0,1.67999 0,2.66666c0,0.98532 0,1.71066 0,2.70001c0,0.79999 0,1.79999 0,2.61066c0,0.87466 0,1.87201 0,2.66849c0,0.7515 0,1.84885 0,2.72217c0,0.96533 0,1.84033 0,2.48535c0,0.996 0,1.79248 0,2.97998c0,0.8125 0,1.65451 0,2.47202c0,0.948 0,1.92831 0,2.65732c0,1.03735 0,1.74686 0,2.59952c0,1.00314 0,1.94733 0,2.85184c0,0.91931 0.06122,1.78928 -0.16666,2.75266c-0.19119,0.80832 -0.65527,1.49097 -0.79733,2.37466c-0.15039,0.93552 -0.03601,1.64618 -0.03601,2.82535c0,0.79999 0,1.79999 0,2.58932c0,0.72534 0,1.71066 0,2.69467c0,0.69064 0,1.76334 0,2.68265c0,0.66934 0,1.83334 0,2.62268c0,0.72534 0,1.71066 0,2.69333c0,0.8075 0,1.68533 0,2.53818c0,0.95798 0,1.789 0,2.74716c0,0.73199 0,1.46399 0,2.57065c0,0.98267 0,1.836 0,2.77734c0,0.76801 0.02396,1.70959 0,2.71735c-0.01801,0.75662 -0.55331,1.52118 -0.83331,2.33331c-0.28244,0.81921 -0.16669,1.83334 -0.16669,2.63333c0,0.80002 0,1.79102 0,2.62933c0,1.01733 0,1.892 0,2.74533c0,0.94135 0,1.70935 0,2.66135c0,0.76532 0,1.75949 0,2.50684c0,1.02118 0,1.95715 0,2.85718c0,0.89999 0,1.79999 0,2.59998c0,0.90002 0,1.80002 0,2.70001c0,0.91068 0,1.82132 0,2.67465c0,0.93869 0,1.82535 0,2.62668c0,0.95584 0,1.85135 0,2.54599c0,1.01669 0,1.95267 0,2.854c0,0.96533 0,1.79868 0,2.63202c0,0.86215 0,1.76666 0,2.66666c0,0.89999 0,1.79999 0,2.70001c0,0.89999 0,1.79999 0,2.59998c0,0.90002 0,1.80002 0,2.70001c0,0.89999 0,1.79999 0,2.70001l0,0.89999l0,0.89999l0,0.79999" id="svg_7" stroke-width="2" stroke="#000" fill="none"/>
  <path t="40144,40224,40224,40241,40241,40249,40249,40264,40265,40273,40273,40273,40280,40289,40296,40297,40305,40305,40313,40313,40313,40321,40321,40329,40329,40337,40345,40345,40345,40353,40353,40353,40361,40361,40361,40369,40369,40376,40377,40377,40385,40385,40393,40393,40393,40401,40401,40401,40408,40408,40417,40425,40425,40434,40434,40434,40440,40440,40448,40457,40465,40465,40473,40473,40473,40481,40481,40489,40489,40489,40496,40505,40505,40512,40513,40513,40520,40521,40528,40528,40536,40537,40545,40545,40553,40553,40560,40560,40568,40569,40577,40577,40585,40592,40601,40601,40609,40617,40617,40625,40625,40625,40634,40634,40641,40651,40651,40657,40657,40664,40665,40673,40673,40680,40680,40689,40689,40696,40705,40705,40712,40721,40737,40752,40753,40760,40777,40793,40808,40832,40832,40848,40848,40872,40873,40896,40921,40952,40961,40976,41064" d="m341.51135,269.09091c1,1 1,1.75717 1,2.65717c0,0.74734 0,1.74283 0,2.54285c0,1 0,1.79999 0,2.79999c0,0.79999 0,1.60001 0,2.591c0,1.07565 0,1.97968 0,2.63034c0,0.97867 0,1.77866 0,2.77866c0,0.79999 0,1.60001 0,2.60001c0,0.79999 0,1.79865 0,2.74283c0,0.90451 0,1.82382 0,2.69882c0,0.64502 0,1.64368 0,2.47919c0,0.88049 0,2.07782 0,2.66849c0,0.85352 0,1.88916 0,2.78983c0,1.02084 0,1.82083 0,2.62085c0,1.00449 0,1.85715 0,2.82132c0,0.80402 -0.00781,1.62604 0.00018,2.65717c0.00531,0.68558 0.02905,1.53696 0.35251,2.517c0.25177,0.76285 0.6293,1.77866 0.64731,2.72601c0.01328,0.69922 0,1.6785 0,2.47849c0,0.80002 0,1.7955 0,2.71469c0,0.96448 0,1.78983 0,2.80682c0,0.69934 0,1.6785 0,2.47849c0,0.80002 0,1.8045 0,2.65717c0,0.96384 0,1.74686 0,2.68817c0,0.93066 0,1.92166 0,2.65067c0,1.03735 0,1.74686 0,2.59952c0,1.00449 0,1.8045 0,2.80432c0,0.77933 0,1.77884 0,2.68417c0,0.952 0,1.71732 0,2.716c0,0.79999 0,1.79999 0,2.60001c0,0.99982 0,1.77914 0,2.77847c0,0.71701 0,1.62152 0,2.54236c0,0.96317 0,1.65381 0,2.7265c0,0.91931 0,1.7735 0,2.75266c0,0.79999 0,1.60001 0,2.59549c0,0.74734 0,1.77917 0,2.72601c0,0.69934 0,1.6785 0,2.46783c0,1.04401 0,1.836 0,2.69598c0,0.91919 0,1.91333 0,2.67868c0,0.952 0,1.72 0,2.66132c0,1.00803 0,1.87018 0,2.67468c0,0.89999 0,1.8045 0,2.82132c0,0.67868 0,1.65701 0,2.62601c0,0.75717 -0.00488,1.70169 0.28403,2.53799c0.25513,0.73859 0.63657,1.71024 0.69516,2.49384c0.07455,0.99677 0.02081,1.81952 0.02081,2.72086c0,0.94281 0.02084,1.79999 0.64734,2.35266l0.35135,0.74866l0,0.828" id="svg_8" stroke-width="2" stroke="#000" fill="none"/>
  <path t="42257,42376,42386,42386,42400,42408,42416,42416,42424,42424,42424,42432,42432,42440,42440,42448,42448,42448,42456,42456,42456,42465,42465,42465,42472,42472,42481,42481,42481,42488,42488,42488,42498,42498,42498,42504,42504,42512,42512,42512,42520,42520,42520,42528,42528,42536,42537,42537,42537,42544,42544,42544,42553,42553,42553,42560,42560,42560,42560,42568,42569,42576,42576,42576,42577,42584,42584,42584,42585,42592,42592,42600,42608,42608,42608,42616,42616,42617,42624,42624,42632,42640,42641,42648,42649,42656,42656,42657,42665,42665,42672,42672,42681,42681,42688,42688,42698,42698,42698,42705,42705,42705,42712,42712,42720,42728,42728,42736,42737,42744,42744,42744,42753,42760,42760,42769,42776,42785,42785,42792,42792,42808,42816,42816,42824,42832,42832,42856,42864,42872,42881,42898,42914,42914,42920,42920,42920,42936,42944,42953,42976,43000,43032,43056,43056,43400,43440,43496,43512,43521,43545,43545,43553,43560,43568,43576,43584,43600,43616,43632,43632,43648,43680,43728,43761,43776,43777,43800,43816,43848,44056,44064,44072,44073,44080,44080,44088,44096,44113,44113,44120,44120,44129,44136,44137,44146,44160,44192,44360,44392,44416,44448,44457,44457,44472,44480,44496,44512,44520,44536,44552,44560,44568,44585,44608,44680,44704,44704,44713,44720,44760,44784,45080,45096,45105,45105,45112,45112,45129,45129,45136,45136,45145,45162,45168,45184,45216,45216,45240" d="m352.51135,267.09091c0,1.82532 0,2.83334 0,3.71332c0,0.89734 0,1.80753 0,2.60818c0,0.88916 0,1.87866 0,2.69934c0,0.66449 0,1.66183 0,2.45831c0,1.1875 0,2.02084 0,2.85419c0,0.93866 0,1.77567 0,2.66666c0,0.89551 0,1.76401 0,2.83334c0,0.7095 0,1.56216 0,2.56665c0,0.80002 0,1.80017 0,2.62085c0,0.66449 0,1.66449 0,2.5c0,0.88049 0,2.07782 0,2.66849c0,0.85352 0,1.88916 0,2.78983c0,1.02084 0,1.83151 0,2.478c0,1.22684 0,2.04285 0,2.59018c0,1.26868 0,1.95267 0,3.11932c0,0.7905 0,1.64401 0,2.23468c0,1.19867 0,2.09866 0,2.69867c0,1.19998 0,2.10001 0,2.69998c0,1.20001 0,2.09552 0,2.67917c0,0.83551 0,2.07266 0,2.78217c0,1.07202 0,1.70801 0,2.75952c0,0.73099 0,1.8125 0,2.49249c0,0.94501 0,1.79999 0,2.79999c0,0.84 0,1.80267 0,2.85333c0,0.68002 0,1.52002 0,2.51733c0,0.81601 0,1.63202 0,2.62933c0,0.84 0,1.80267 0,2.85333c0,0.65866 0,1.66669 0,2.49469c0,0.8815 0,1.59998 0,2.39047c0,1.26285 0,1.92734 0,2.94818c0,0.78934 0,1.83334 0,2.62534c0,1.03632 0,1.83633 0,2.79599c0,0.80402 0,1.62601 0,2.65717c0,0.68552 0,1.52017 0,2.517c0,0.91919 0,1.90451 0,2.72601c0,0.88916 0,1.87851 0,2.6785c0,1 0,1.78934 0,2.51468c0,0.98532 0,1.96933 0,2.83264c0,0.89551 -0.13989,1.89551 0.16669,2.65268c0.33658,0.8313 0.80096,1.65125 0.82883,2.34732c0.04111,1.02652 0.00449,1.974 0.00449,2.65268c0,1.11465 0,2 0,2.79999c0,0.90002 0,1.80002 0,2.70001c0,0.89999 0,1.8045 0,2.66666c0,0.85419 0,1.83334 0,2.62268c0,0.72534 0,1.79999 0,2.71066c0,0.89999 0,1.79999 0,2.70001c0,0.89999 0.02707,1.80045 0,2.59998c-0.02859,0.8443 -0.80173,1.22653 -1.69998,1.20001c-0.94415,-0.02789 -1.35181,-0.85638 -2.30002,-1c-0.79095,-0.11981 -1.69998,0 -2.59998,0c-0.90002,0 -1.80002,0 -2.6955,0c-0.81436,0 -1.7261,0.0379 -2.68301,-0.00015c-0.71872,-0.02859 -1.44388,-0.68604 -2.3215,-0.94269c-0.86557,-0.25311 -1.79999,-0.05716 -2.70001,-0.05716c-0.79999,0 -1.82343,0.41272 -2.64282,-0.05716c-0.68784,-0.39444 -1.58957,-1.37708 -2.19049,-0.77618c-0.60095,0.60092 -0.16669,1.59052 -0.16669,2.48602c0,0.86331 0,1.82648 0,2.73666c0,0.944 0,1.79599 0,2.72665c0,0.76801 0,1.70932 0,2.71735c0,0.75598 0,1.66666 0,2.56665c0,0.89999 -0.32535,2.07962 0.35718,2.54285c0.69788,0.47366 1.80951,0.05716 2.64282,0.05716c0.80002,0 1.70001,0 2.60001,0c0.89999,0 1.80002,0 2.70001,0c0.89999,0 1.80682,0.11075 2.69998,0c0.89926,-0.11151 1.28235,-0.95728 2.20001,-1c0.89902,-0.04184 1.79999,0 2.60001,0c0.89999,0 1.79999,0 2.69998,0c0.90002,0 2.0701,0.25137 2.46402,-0.44666c0.43033,-0.76254 0.03598,-1.76401 0.03598,-2.75317c0,-0.77933 0,-1.63351 0,-2.55283c0,-0.90002 0,-1.76334 0,-2.70569c0,-0.89883 0,-1.74167 0,-2.64166l0,-0.89999l0,-0.79999l0,-0.90002" id="svg_9" stroke-width="2" stroke="#000" fill="none"/>
  <path t="47864,48151,48167,48184,48184,48192,48208,48224,48232,48241,48241,48257,48264,48272,48280,48287,48296,48303,48320,48320,48328,48344,48352,48368,48368,48368,48376,48384,48392,48408,48424,48424,48432,48440,48447,48447,48457,48463,48463,48472,48487,48496,48512,48512,48519,48519,48528,48528,48536,48544,48551,48560,48560,48568,48576,48576,48584,48592,48592,48600,48600,48608,48616,48616,48624,48624,48632,48632,48640,48648,48648,48657,48664,48664,48672,48680,48680,48696,48696,48703,48703,48711,48720,48720,48728,48744,48752,48760,48768,48768,48776,48783,48783,48792,48800,48807,48808,48824,48824,48831,48831,48832,48840,48840,48847,48857,48863,48864,48873,48873,48873,48880,48888,48895,48896,48896,48904,48912,48912,48919,48935,48936,48944,48944,48960,48960,48968,48976,48976,48991,48992,49000,49000,49007,49008,49016,49032,49032,49040,49040,49056,49064,49064,49073,49080,49080,49087,49088,49096,49104,49112,49112,49119,49135,49136,49143,49152,49159,49168,49168,49184,49184,49192,49200,49216,49232,49232,49240,49248,49257,49264,49274,49280,49288,49296,49312,49329,49336,49352,49368,49384,49395,49412,49416,49416,49432,49448,49480,49480,49512,49520,49528,49552,49552,49576,49585,49608,49640,49672,49681,49696,49736,49736,49768,49793,49817" d="m341.51135,85.09091c0,1.8 0,2.636 0,3.484c0,0.86333 0,1.88 0,2.81599c0,0.9 0,1.8 0,2.7c0,0.8 0,1.7 0,2.6c0,0.9 0,1.8 0,2.7c0,0.89867 0,1.75267 0,2.7c0,0.8 0,1.7 0,2.6c0,0.82133 0,1.73334 0,2.65067c0,0.744 0,1.77867 0,2.74934c0,0.83334 0,1.64667 0,2.484c0,0.86333 0,1.88 0,2.81599c0,0.80017 0,1.58533 0,2.52534c0,1.008 0,1.87016 0,2.73866c0,0.872 0,1.7405 0,2.75751c0,0.69933 0,1.6785 0,2.46783c0,1.04401 0,1.90617 0,2.81068c0,0.89999 0,1.7045 0,2.72133c0,0.67867 0,1.65717 0,2.67867c0,0.8 0,1.636 0,2.48534c0,0.91916 0,1.91333 0,2.67867c0,0.95067 0,1.836 0,2.72133c0,0.95067 0,1.716 0,2.71017c0,0.74733 0,1.77916 0,2.72583c0,0.67867 0,1.65717 0,2.67867c0,0.8 0,1.636 0,2.48534c0,0.91916 0,1.91333 0,2.67867c0,0.952 0,1.72 0,2.66133c0,1.008 0,1.87016 0,2.77467c0,0.89999 0,1.79999 0,2.7c0,0.80016 0,1.58533 0,2.52533c0,1.008 0,1.87016 0,2.77467c0,0.81065 0,1.7215 0,2.61066c0,0.98933 0,1.78934 0,2.78934c0,0.8 0,1.60001 0,2.5955c0,0.74733 0,1.76849 0,2.60583c0,0.96533 0,1.81949 0,2.79866c0,0.78934 0,1.51466 0,2.58932c0,0.832 0,1.744 0,2.66135c0,0.74399 0,1.77866 0,2.74933c0,0.8 0,1.636 0,2.48534c0,0.91916 0,1.91333 0,2.67867c0,0.952 0,1.72 0,2.66133c0,1.008 0,1.813 0,2.74533c0,0.83833 0,1.828 0,2.59334c0,0.952 0,1.72 0,2.66133c0,1.008 0,1.8 0,2.65733c0,0.948 0,1.879 0,2.83867c0,0.67867 0,1.65717 0,2.67867c0,0.75717 0,1.65266 0,2.51601c0,0.96317 0,1.7885 0,2.80516c0,0.8175 0,1.72701 0,2.67883c0,0.8 0.16095,1.72064 -0.02081,2.5c-0.2251,0.96524 -1.09253,1.41524 -1.54318,2.136c-0.48648,0.77806 -0.43375,1.71132 -0.436,2.60683c-0.00241,0.95584 0,1.84117 0,2.75717c0,0.8 0,1.7 0,2.60001c0,0.89999 0,1.79999 0,2.7c0,0.89999 0,1.8 0,2.7c0,0.87866 0,1.7045 0,2.60001c0,0.89999 0,1.79999 0,2.7c0,0.89999 0,1.8 0,2.7c0,0.8 0,1.7 0,2.564c0,1.00534 0,1.78784 0,2.67883c0,0.95717 0,1.85718 0,2.75717c0,0.79999 0,1.70001 0,2.60001c0,0.89999 0,1.78934 0,2.68533c0,0.91467 0,1.81467 0,2.71466c0,0.79999 0,1.70001 0,2.60001l0,0.89999" id="svg_10" stroke-width="2" stroke="#000" fill="none"/>
  <path t="51720,51808,51817,51825,51832,51832,51840,51840,51848,51848,51856,51856,51864,51864,51872,51872,51880,51880,51888,51897,51897,51904,51904,51904,51912,51912,51920,51920,51920,51928,51929,51937,51937,51944,51945,51954,51954,51954,51961,51961,51968,51976,51977,51984,51984,51993,51993,52000,52000,52008,52008,52016,52024,52024,52024,52032,52032,52041,52041,52048,52048,52057,52057,52064,52072,52072,52080,52088,52088,52096,52096,52104,52112,52112,52120,52120,52137,52144,52144,52154,52154,52154,52161,52161,52170,52177,52185,52186,52186,52192,52193,52200,52200,52209,52216,52216,52224,52224,52232,52240,52240,52248,52248,52249,52256,52256,52264,52264,52272,52272,52280,52280,52288,52288,52288,52296,52296,52305,52312,52321,52321,52328,52328,52329,52337,52337,52344,52353,52353,52360,52360,52370,52370,52370,52376,52376,52384,52384,52393,52393,52400,52400,52408,52416,52416,52424,52432,52440,52440,52448,52449,52456,52464,52472,52480,52488,52496,52496,52497,52512,52512,52528,52529,52537,52545,52554,52561,52561,52571,52577,52577,52585,52594,52601,52617,52626,52626,52643,52649,52649,52659,52665,52676,52681,52689,52709,52709,52713,52713,52729,52745,52745,52760,52770,52777,52777,52801,52809,52848,52873,52882,52892,52892,52908,52913,52929,52945,53001" d="m347.51135,85.09091c0,1.8 0,2.7 0,3.52084c0,0.96449 0,1.68983 0,2.67899c0,0.77934 0,1.77901 0,2.61c0,0.95817 0,1.69017 0,2.85683c0,0.8125 0,1.65467 0,2.508c0,0.94133 0,1.70934 0,2.65067c0,1.008 0,1.836 0,2.7175c0,0.7185 0,1.509 0,2.77184c0,0.6645 0,1.68533 0,2.48533c0,0.8 0,1.8 0,2.60001c0,1 0,1.8 0,2.8c0,0.8 0,1.8 0,2.6c0,0.8 0,1.7955 0,2.71467c0,0.86 0,1.80667 0,2.66c0,0.94267 0,1.79466 0,2.59333c0,0.98133 0,1.89867 0,2.71117c0,1.00482 0,1.6955 0,2.76816c0,0.91934 0,1.79434 0,2.43933c0,0.996 0,1.79251 0,2.98001c0,0.8125 0,1.65466 0,2.508c0,0.94133 0,1.70934 0,2.65067c0,1.008 0,1.87016 0,2.6955c0,0.96451 0,1.68983 0,2.679c0,0.77934 0,1.77867 0,2.80017c0,0.75717 0,1.65266 0,2.51601c0,0.85866 0,1.80566 0,2.52567c0,1.125 0,1.90649 0,2.69699c0,1.11833 0,1.95233 0,2.76134c0,0.92133 0,1.83333 0,2.75067c0,0.74399 0,1.78 0,2.63199c0,0.94267 0.11774,1.64293 -0.02081,2.61734c-0.1434,1.00844 -0.66782,1.64101 -0.89383,2.616c-0.17447,0.75262 -0.08536,1.70934 -0.08536,2.71733c0,0.6875 0,1.7095 0,2.42801c0,0.7905 0,1.817 0,2.69699c0,1.02034 0,1.79434 0,2.69884c0,0.74733 0,1.74417 0,2.57883c0,1.18518 0,1.97867 0,2.75418c0,1.03915 0.19193,1.84033 -0.05716,2.70982c-0.25684,0.89661 -0.86404,1.61668 -0.922,2.32083c-0.08035,0.97609 -0.02084,1.77917 -0.02084,2.57918c0,1.18933 0,1.91466 0,2.89999c0,0.98534 0,1.71066 0,2.7c0,0.8 0,1.8 0,2.60001c0,0.8 0,1.8 0,2.59999c0,1 0,1.8 0,2.79984c0,0.77934 0,1.77867 0,2.59883c0,0.83734 0,1.854 0,2.54868c0,1.01666 0,1.95717 0,2.81934c0,0.83333 0,1.81183 0,2.63199c0,0.90134 0,1.80135 0,2.70134c0,0.89999 0,1.80901 0,2.83333c0,0.672 0,1.416 0,2.52383c0,0.89101 0,1.7955 0,2.49017c0,1.01666 0,1.95267 0,2.85266c0,0.90016 0,1.68533 0,2.62534c0,1.008 0,1.76399 0,2.67467c0,0.89999 0,1.8 0,2.7c0,0.90016 0,1.68533 0,2.62534c0,1.008 0,1.76399 0,2.67467c0,0.89999 0,1.8 0,2.7c0,0.90001 0,1.8 0,2.55717c0,0.89549 0,1.75883 0,2.74283c0,0.98399 0,1.67467 0,2.74283c0,0.85718 0.17355,1.79541 -0.08533,2.55716c-0.30176,0.88791 -0.89667,1.58881 -0.91467,2.48535c-0.01837,0.91449 0,1.81467 0,2.71466c0,0.79999 0,1.70001 0,2.60001l0,0.89999l0,0.89999l0,0.89999" id="svg_11" stroke-width="2" stroke="#000" fill="none"/>
  <path t="53960,54097,54113,54121,54121,54129,54137,54137,54145,54145,54153,54161,54169,54177,54177,54185,54193,54202,54209,54209,54219,54233,54233,54249,54249,54257,54257,54265,54265,54273,54273,54273,54281,54292,54297,54306,54313,54313,54321,54329,54329,54329,54337,54337,54345,54353,54360,54369,54377,54377,54385,54385,54393,54402,54409,54418,54419,54425,54433,54441,54442,54449,54457,54464,54464,54473,54473,54481,54489,54497,54497,54505,54505,54521,54521,54529,54529,54537,54537,54545,54553,54553,54561,54569,54569,54577,54577,54585,54585,54585,54593,54602,54609,54609,54618,54626,54626,54635,54641,54641,54649,54657,54657,54673,54681,54689,54697,54713,54721,54729,54729,54737,54753,54761,54777,54793,54801,54809,54809,54825,54835,54849,54857,54865,54881,54905,54913,54929,54945,54960,54977,54993,55008,55025" d="m345.51135,271.09091c0,0.88666 0,1.82532 0,2.83334c0,0.75598 -0.03745,1.70441 0.22134,2.48798c0.28964,0.87698 0.73474,1.79126 0.77734,2.56268c0.05133,0.92926 0.00131,1.87317 0.00131,2.65765c0,0.94235 0,1.80566 0,2.70117c0,0.95718 0,1.85718 0,2.75717c0,0.79999 0,1.63599 0,2.64816c0,0.7825 0,1.79483 0,2.57318c0,0.97849 0,1.75781 0,2.75748c0,0.83102 0,1.78918 0,2.52118c0,0.73199 0,1.828 0,2.7955c0,0.87384 -0.04944,1.72662 0.00018,2.68298c0.04272,0.82349 0.59933,1.52829 0.83316,2.35486c0.25266,0.8931 0.07614,1.70413 0.45068,2.69598c0.26666,0.70621 0.71063,1.57062 0.71597,2.47067c0.00531,0.89996 0,1.8045 0,2.66666c0,0.83334 0,1.81183 0,2.63202c0,0.90134 0,1.80133 0,2.72217c0,0.96317 0,1.65381 0,2.72198c0,0.85718 0,1.75717 0,2.55716c0,0.90002 0,1.836 0,2.68533c0,0.72534 0,1.71451 0,2.67868c0,0.94934 0,1.82132 0,2.70801c0,0.73065 0,1.728 0,2.52798c0,1 0,1.80002 0,2.80002c0,0.79999 -0.00006,1.79999 0,2.57864c0.00009,0.97867 0.32999,1.77094 0.64734,2.57318c0.34689,0.87689 0.35266,1.81482 0.35266,2.64816c0,0.83334 0,1.66135 0,2.76801c0,0.73199 0,1.46399 0,2.56c0,0.87201 0,1.77216 0,2.55734c0,0.93997 0,1.948 0,2.70398c0,0.93152 -0.00146,1.89468 0,2.58533c0.00226,1.06818 0.30084,1.87619 0.64734,2.52536c0.45334,0.84937 0.35266,1.79999 0.35266,2.69998c0,0.89999 0,1.80002 0,2.70001c0,0.89999 0,1.69998 0,2.60001c0,0.89999 0,1.77914 0,2.73599c0,0.86398 0.1637,1.82129 -0.22131,2.664c-0.30579,0.66931 -0.77335,1.49994 -0.77869,2.39999c-0.00534,0.89996 0,1.79999 0,2.70001c0,0.89981 0,1.77466 0,2.60132c0,0.89868 0,1.79868 0,2.69867c0,0.89999 0,1.79999 0,2.70001l0,0.89999" id="svg_12" stroke-width="2" stroke="#000" fill="none"/>
  <path t="56065,56128,56138,56138,56144,56154,56154,56160,56169,56169,56177,56177,56185,56185,56193,56193,56201,56201,56208,56217,56217,56224,56224,56224,56233,56233,56241,56241,56250,56250,56256,56256,56266,56266,56266,56273,56273,56273,56280,56281,56289,56289,56297,56297,56305,56305,56305,56313,56313,56321,56321,56329,56329,56337,56345,56345,56345,56353,56360,56360,56369,56369,56376,56376,56385,56393,56393,56401,56401,56409,56409,56409,56417,56417,56425,56433,56441,56441,56441,56449,56449,56450,56456,56456,56466,56473,56473,56483,56483,56483,56489,56489,56497,56505,56513,56513,56521,56521,56529,56537,56537,56545,56553,56560,56560,56577,56585,56585,56593,56601,56617,56625,56633,56650,56650,56666,56666,56682,56697,56721,56744,56769,56785,56793,56801,56801,56825,56841,56849,56866,56882,56905,56913,56920,56920,56928,56944,56952" d="m339.51135,273.09091c0,1.82532 0,2.83334 0,3.6955c0,0.82535 0,1.78851 0,2.65182c0,0.89551 0.0737,1.86746 -0.08533,2.53802c-0.23297,0.98239 -0.70996,1.7012 -0.85748,2.71466c-0.11548,0.79337 -0.05719,1.79865 -0.05719,2.564c0,0.952 0,1.72 0,2.66132c0,1.00803 0,1.83603 0,2.71753c0,0.71848 0.0184,1.50912 -0.00131,2.77048c-0.0101,0.64523 -0.29428,1.62888 -0.646,2.43933c-0.37881,0.87289 -0.35043,1.65186 -0.35269,2.64734c-0.0018,0.80002 0,1.80017 0,2.62085c0,0.66449 0,1.66315 0,2.47916c0,0.81601 0,2.04285 0,2.68933c0,1.0105 0,1.78983 0,2.78949c0,0.83102 0,1.7905 0,2.54202c0,0.79648 0,2.022 0,2.66849c0,1.01068 0,1.81067 0,2.81067c0,0.77866 0,1.83334 0,2.66415c0,0.85669 0,1.56918 0,2.6745c0,0.98267 0,1.66135 0,2.64001c0,0.90533 0,1.84665 0,2.53732c0,0.98401 0,1.96933 0,2.69467c0,0.98935 0,1.78934 0,2.78934c0,0.79999 0,1.60001 0,2.59549c0,0.91919 0,1.88367 0,2.7135c0,1.02435 0,1.70084 0,2.47635c0,1.048 0,1.97867 0,2.81332c0,0.99683 0,1.74417 0,2.776c0,0.94684 0,1.64618 0,2.62534c0,0.79999 0,1.60001 0,2.59549c0,0.91919 0,1.88367 0,2.81519c0,0.91083 0,1.61017 0,2.58932c0,0.77866 0,1.832 0,2.70984c0,0.8075 0,1.76932 0,2.70084c0,0.91064 0,1.58932 0,2.56781c0,1.02151 0,1.8215 0,2.72153c0,0.86398 0,1.73599 0,2.69998c0,0.90451 0,1.76666 0,2.60001c0,0.97849 0,1.79868 0,2.70001c0,0.89999 0,1.79999 0,2.68933c0,0.896 0,1.81067 0,2.71066c0,0.89999 0,1.69998 0,2.60001c0,0.89999 0,1.79999 0,2.69998c0,0.89551 0,1.76666 0,2.70001c0,0.89999 0,1.69998 0,2.60001l0,0.89999l0,0.89999" id="svg_13" stroke-width="2" stroke="#000" fill="none"/>
  <path t="58680,58872,58960,59160,59168,59192,59200,59232,59392,59432,59480,59512,59512,59712" d="m332.51135,55.09091c-2.58932,0 -3.55774,-0.30475 -4.38931,0.01067c-0.72916,0.27658 -0.61069,1.38933 -0.61069,2.28933c0,0.9 -0.39172,2.07907 0.28534,2.61467c0.64243,0.50819 1.71466,0.08533 2.51468,0.08533l0.89999,0" id="svg_14" stroke-width="2" stroke="#000" fill="none"/>
  <path t="60272,60480,60648,60816,60832,60840,60851,60872,61048,61096,61120,61144,61160,61184,61184,61240" d="m332.51135,61.09091c-1.69998,0 -2.72562,-0.44122 -3.564,0.036c-0.6915,0.3936 -0.436,1.564 -0.436,2.464c0,0.9 -0.19806,1.8224 0.00134,2.69867c0.18304,0.8043 1.19867,0.80133 2.09866,0.80133l0.89999,0l0.80002,0l0.91467,0" id="svg_15" stroke-width="2" stroke="#000" fill="none"/>
  <path t="61784,62104,62120,62272,62295,62311,62311,62320,62352,62416,62416,62480,62520,62560,62584,62592,62608,62632" d="m331.51135,70.09091c-1.69998,0 -2.6756,-0.37428 -3.564,0c-0.57523,0.24234 -0.436,1.32133 -0.436,2.17467c0,0.93999 0,1.92533 0,2.82533c0,0.8 0.04489,1.85354 0.80136,1.99866c0.88257,0.16932 1.79865,0.00134 2.69864,0.00134l0.90002,0l0.89548,0" id="svg_16" stroke-width="2" stroke="#000" fill="none"/>
  <path t="63752,63847,63872,63880,63904,63927,64103,64135,64144,64152,64327,64351,64360,64399,64423,64527" d="m358.51135,53.09091c1.70001,0 2.80127,-0.37145 3.56403,0.036c0.73038,0.39015 1.17459,1.3295 1.43597,2.1855c0.25656,0.84019 0.04459,1.77963 0,2.65717c-0.04272,0.84058 -0.80133,1.12 -1.69998,1.12133l-0.89999,0l-0.90002,0l-0.89999,0" id="svg_17" stroke-width="2" stroke="#000" fill="none"/>
  <path t="65008,65143,65151,65200,65255,65279,65455,65455,65631,65663,65664,65743,65775,65792,65831" d="m357.51135,64.09091c1.70001,0 2.79266,-0.35492 3.56403,0.036c0.69809,0.35378 1.35223,1.1183 1.43597,1.964c0.07883,0.7961 -0.0528,1.85569 -1,2c-0.79086,0.12049 -1.69998,0 -2.59998,0l-0.90002,0l-0.89999,0" id="svg_18" stroke-width="2" stroke="#000" fill="none"/>
  <path t="66392,66511,66520,66551,66575,66608,66615,66735,66791,66839,66879,66903,66919,66951,66967,66991,67000,67023,67023,67039,67048,67079,67088" d="m356.51135,73.09091c1.70001,0 2.70001,0 3.60001,0c0.89999,0 1.80557,-0.00893 2.39999,0.5c0.59146,0.50637 0.78915,1.06049 0.12134,1.72133c-0.6163,0.60986 -0.92816,1.44919 -1.64215,1.75784c-0.80722,0.34896 -1.77917,0.02084 -2.67917,0.02084c-0.89999,0 -1.80002,0 -2.60001,0c-0.89999,0 -1.84283,0 -2.77466,-0.036l-0.478,-0.61133" id="svg_19" stroke-width="2" stroke="#000" fill="none"/>
  <path t="67649,67792,67792,67801,67816,67824,67840,67848,67872,67896,67912,67912,67936,67945,67968,67985,68001,68016,68040" d="m351.51135,55.09091c-1.16666,1 -1.74692,1.53717 -1.96399,2.4c-0.21976,0.8735 -0.00735,1.80046 -0.03601,2.69983c-0.02859,0.89703 -0.93909,1.1154 -1,2.00017c-0.0618,0.89788 0,1.7 0,2.6c0,0.9 0,1.8 0,2.7l0,0.89999l0,0.89867l0,0.88533" id="svg_20" stroke-width="2" stroke="#000" fill="none"/>
  <path t="68848,68928,68936,68945,68960,68976,68976,68984,68984,68992,69008,69008,69018,69032,69041,69041,69048,69048,69056,69056,69064,69073,69073,69080,69080,69080,69088,69088,69088,69096" d="m339.51135,51.09091c0,2.58933 -0.00226,3.5 0,4.4c0.00226,0.90451 0.16669,1.76667 0.5,2.6c0.33334,0.83334 0.49466,1.58929 0.5,2.564c0.00479,0.87882 0,1.62133 0,2.67883c0,0.85717 0,1.75717 0,2.5715c0,0.95367 0,1.68567 0,2.85233c0,0.77084 0,1.58801 0,2.40034c0,0.98933 0,2.01167 0,2.70766c0,0.90933 0,1.908 0,2.7045l0,0.7515l0,1.09733" id="svg_21" stroke-width="2" stroke="#000" fill="none"/>
  <path t="70897,71192,71208,71217,71241,71265,71273,71283,71289,71305,71329,71339,71361,71370,71385,71402,71409,71417,71424,71440,71464,71473,71489,71497,71507,71537,71547,71577,71593,71602,71602,71633,71643,71673,71705,71705,71721,71729,71737,71753,71760,71785,71793,71832,71857,71881,71905,71905,71921,71945,71969,71977,72001,72025,72033,72064,72064,72080,72097,72113,72137,72153,72177,72177,72193,72208,72225,72233,72241,72249,72256,72265,72273,72288,72305,72314,72337,72353,72353,72369,72377,72393,72424,72441,72449,72456,72472,72481,72504,72515,72537,72553,72560,72568,72584,72600,72617,72625,72648,72672,72688,72688,72713,72728,72744,72784,72784,72817,72873,72912,72929,72937,72945,72961,72969,72985,73009,73032,73073,73097,73121,73137,73144,73177,73185,73201,73209,73233,73241,73249,73265,73273,73289,73297,73321,73337,73347,73369,73377,73401,73409,73409,73425,73441,73441,73457,73473,73481,73505,73521,73561,73561,73569,73592,73609,73625,73640,73657,73721,73737,73760,73801,73801,73849,73865,73913,74080,74104,74121,74193,74233,74241,74257,74265,74281,74281,74305,74344,74432" d="m355.51135,300.09091c-1.83331,0 -2.61066,0 -3.5,0c-0.89999,0 -1.79999,0.00061 -2.69998,0c-0.99866,-0.00067 -1.47662,-0.56885 -2.23599,-0.96399c-0.76712,-0.39917 -1.76407,-0.04642 -2.66385,-0.03601c-0.90036,0.01044 -1.44778,0.74478 -2.30017,0.96399c-0.86813,0.22324 -1.41772,0.71893 -2.21066,1.02533c-0.82962,0.32056 -1.78934,0.01068 -2.68933,0.01068c-0.89999,0 -1.79984,0 -2.64734,0c-0.88599,0 -1.26834,0.54935 -1.88599,1.16666c-0.61896,0.61862 -1.21347,1.14023 -1.96667,1.54935c-0.79752,0.4332 -1.48056,0.77795 -2.07867,1.50549c-0.59882,0.72842 -0.7525,1.48584 -1.12134,2.2785c-0.41785,0.89801 -1.23376,1.17984 -1.91599,1.784c-0.59454,0.52649 -1.16516,1.125 -1.73132,1.71152c-0.44766,0.46375 -0.89587,1.20779 -1.23117,2.10449c-0.31808,0.85065 -0.12152,1.69998 -0.12152,2.60001c0,0.89999 0,1.79999 0,2.69998c0,0.89999 0,1.79868 0,2.65268c0,0.94733 0,1.74731 0,2.64734c0,0.89999 -0.00226,1.79999 0,2.69998c0.00226,0.89999 0.32614,1.63666 0.716,2.39999c0.38455,0.7529 0.41986,1.66031 0.93134,2.25269c0.56641,0.65601 1.02356,1.41327 1.742,1.922c0.65604,0.46457 0.61075,1.42331 1.11066,2.02533c0.51462,0.61975 0.91757,1.41708 1.69867,1.91599c0.73236,0.4678 1.06226,1.30594 1.60269,1.884c0.57373,0.61368 1.54495,0.92929 2.14148,1.55267c0.50635,0.52911 1.26578,0.52332 2.15701,0.64749c0.80188,0.11172 1.28525,0.90775 1.87482,1.42517c0.63776,0.55972 1.02576,1.36722 1.82669,1.57333c0.87213,0.22443 1.621,0.68753 2.49866,0.94418c0.86557,0.25311 1.79984,0.05716 2.67465,0.05716c0.82669,0 1.72534,0 2.54617,0c0.96317,0 1.82651,0 2.72202,0c0.95715,0 1.85715,0 2.75714,0c0.80002,0 1.71469,0 2.61069,0c0.88931,0 1.82416,0.24289 2.68481,-0.00449c0.76788,-0.2207 1.28705,-0.68314 2.09384,-1.0062c0.78915,-0.31598 1.41248,-0.62607 2.17468,-1.02533c0.7583,-0.39722 1.06149,-1.30508 1.72,-1.87866c0.58746,-0.51169 1.32773,-0.82245 1.67999,-1.52133c0.4342,-0.86142 -0.03705,-1.91415 0.46133,-2.53867c0.4852,-0.60797 0.57465,-1.42532 0.57465,-2.32532c0,-0.90002 -0.08868,-1.80441 0,-2.70001c0.08374,-0.8457 0.78772,-1.30646 1.00134,-2.19867c0.17953,-0.74985 0.98065,-1.23679 0.99866,-2.10132c0.01874,-0.89984 0,-1.80017 0,-2.58536c0,-0.94 0,-1.948 0,-2.70398c0,-0.91068 0,-1.81067 0,-2.71066c0,-0.90002 0,-1.80002 0,-2.70001c0,-0.79999 0.01065,-1.70007 0,-2.60001c-0.01041,-0.87933 -0.81802,-1.39429 -0.99866,-2.20132c-0.18381,-0.82117 -0.62012,-1.54102 -0.91599,-2.39868c-0.29483,-0.85461 -0.13995,-1.9101 -0.69601,-2.36398c-0.75284,-0.6145 -1.23685,-1.06009 -1.38934,-1.91516c-0.14993,-0.84064 -1.16214,-1.09164 -1.83331,-1.6875c-0.60635,-0.5383 -1.2735,-0.72256 -2.16669,-0.83334c-0.89923,-0.11151 -1.33105,-0.8143 -2.09998,-1.22134c-0.75754,-0.40103 -1.54285,-0.77417 -2.42084,-0.77866l-0.95834,0" id="svg_22" stroke-width="2" stroke="#000" fill="none"/>
  <path t="76352,76640,76640,76680,76728,76760,76776,76832,76848,76864,76896,76912,76928,76944,76976,76984,76994,76994,77008,77025,77032,77041,77048,77064,77080,77080,77088,77096,77096,77104,77104,77112,77128,77128,77136,77136,77160,77168,77176,77192,77200,77208,77225,77225,77232,77248,77256,77288,77288,77296,77304,77313,77320,77328,77352,77360,77369,77369,77380,77408,77417,77433,77442,77459,77465,77473,77488,77497,77504,77512,77521,77531,77531,77537,77552,77568,77584,77600,77617,77633,77641,77649,77659,77673,77681,77689,77697,77713,77713,77730,77752,77764,77780,77797,77797,77808,77817,77825,77833,77833,77841,77858,77872,77888,77896,77896,77905,77905,77914,77920,77930,77947,77963,77980,77997,78000,78016,78024,78049,78058,78075,78089,78097,78113,78114,78130,78137,78160,78176,78186,78200,78213,78232,78233,78249,78272,78280,78288,78312,78336,78368,78377,78378,78396,78400,78413,78440,78440,78456,78464,78474,78488,78504,78513,78544,78560,78560,78584,78593,78612,78628,78633,78633,78656,78672,78672,78688,78697,78713,78729,78729,78746,78753,78762,78769,78800,78800,78816,78829,78841,78841,78857,78865,78873,78890,78908,78912,78921,78936,78952,78963,78968,78977,78993,79016,79032,79056,79080,79104,79112,79112,79120,79144,79152,79168,79184,79200,79200,79212,79216,79240,79251,79251,79256,79288,79297,79312,79329,79330,79336,79345,79345,79361,79368,79384,79408,79424,79432,79455,79472,79472,79480,79496,79512,79528,79528,79552,79575,79592,79592,79616,79627,79644,79660,79673,79680,79711,79751,79751,79767,79783,79799,79815,79832,79842,79860,79864,79872,79880,79927,79936,79944,79968,79977,79984,79994,80001,80010,80017,80032,80042,80064,80096,80096,80105,80129,80144,80161,80200,80216,80256" d="m353.51135,221.09091c1,0 1.80002,0 2.70001,0c0.89999,0 1.79999,0 2.70001,0c0.89999,0 1.79999,0 2.69998,0c0.89999,0 1.81616,-0.01608 2.616,0c0.89523,0.01801 1.63437,0.51744 2.48401,0.916c0.86041,0.40361 1.45407,0.89388 2.39999,1.07333c0.88428,0.16777 1.8959,-0.17242 2.59866,0.29601c0.79532,0.53012 0.79129,1.59692 1.51117,1.71916c0.80008,0.13585 1.61243,0.5448 2.45685,0.82883c0.80185,0.26971 1.85007,-0.00978 2.63199,0.252c0.79968,0.26773 1.50076,1.05667 2.20132,1.39384c0.9523,0.45834 1.7225,0.33385 2.60001,0.55682c0.86234,0.21912 1.69373,0.74748 2.34735,1.31667c0.59653,0.51945 1.27145,1.14784 2.05264,1.48067c0.75156,0.32021 1.83801,-0.24316 2.64734,0.22383c0.68463,0.39503 1.39371,0.76122 2.15268,1.02817c0.76111,0.2677 1.1655,1.312 1.69998,1.91467c0.51663,0.58253 1.04877,1.21461 1.66669,1.83333c0.61838,0.6192 1.1402,1.21349 1.54932,1.96667c0.43323,0.79752 1.12317,1.0808 1.76318,1.72083c0.64005,0.64005 0.95627,1.46053 1.82083,1.47917c0.89844,0.01936 1.67139,0.35587 1.69998,1.3c0.02725,0.89958 -0.08868,1.80438 0,2.7c0.08374,0.8457 1.11807,1.04819 1.56403,1.61067c0.60974,0.76909 0.43607,1.78729 0.93597,2.38933c0.51462,0.61975 0.91824,1.41605 1.69867,1.916c0.72845,0.46666 0.63928,1.38403 1.15402,2.03133c0.49231,0.61909 1.0802,1.30391 1.48065,2.05267c0.42328,0.79144 0.98096,1.33112 1.388,2.10001c0.40103,0.75751 0.76999,1.51794 1.20401,2.29999c0.45453,0.81897 0.57465,1.68399 0.57465,2.60001c0,0.79999 0,1.70001 0,2.60001c0,0.92084 -0.14465,1.90707 0.03601,2.53867c0.26404,0.92303 0.95865,1.47192 0.96399,2.36133c0.00546,0.91064 -0.09158,1.83014 0.03601,2.67465c0.14523,0.96127 0.80984,1.59094 0.95334,2.42535c0.15253,0.88702 0.01065,1.79999 0.01065,2.69998c0,0.90002 0,1.80002 0,2.70001c0,0.91599 0,1.7045 0,2.60001c0,0.89999 0,1.79999 0,2.69998c0,0.90002 0,1.80002 0,2.70001c0,0.79999 0,1.70001 0,2.64282c0,0.87802 0,1.75717 0,2.65717c0,0.90002 0,1.80002 0,2.70001c0,0.79999 0,1.70001 0,2.60001c0,0.89999 0,1.78934 0,2.75717c0,0.84283 0,1.74283 0,2.64282c0,0.79999 -0.41269,1.82346 0.05719,2.64282c0.39441,0.68781 0.94281,1.35718 0.94281,2.15717c0,0.90002 0.18491,1.591 0.716,2.19867c0.444,0.508 0.23111,1.53607 0.63669,2.30133c0.4483,0.84589 0.62192,1.70041 0.64731,2.5c0.02859,0.9014 0.68555,1.62256 0.94284,2.5c0.25378,0.86548 0.24637,1.82712 0.77316,2.41467c0.60596,0.67584 1.37689,1.20993 1.84802,1.88535c0.51169,0.73358 0.32901,1.70651 0.43732,2.60001c0.11148,0.91977 0.80853,1.45407 0.98801,2.39999c0.16779,0.88428 -0.07388,1.80399 0.01065,2.6955c0.08371,0.883 0.76514,1.35413 1.38934,2.10449c0.5462,0.65662 0.85278,1.5538 1.258,2.30002c0.4133,0.76111 0.2417,1.81625 0.8735,2.29999c0.67731,0.51855 1.32928,1.10431 1.47916,2c0.14026,0.8382 0.83752,1.34293 1.35269,1.94733c0.55096,0.64642 0.65799,1.44202 1.14731,2.05267c0.48935,0.61066 0.5,1.5 0.5,2.39999c0,0.89999 0,1.80002 0,2.70001c0,0.89999 -0.48471,1.89429 0.08536,2.61465c0.57538,0.72705 0.91464,1.08667 0.91464,1.98535c0,0.93597 0,1.784 0,2.64731c0,0.89551 0,1.85269 0,2.75269c0,0.89999 0,1.69998 0,2.61465c0,0.896 0,1.78534 0,2.69601c0,0.91064 0,1.76398 0,2.70398c0,0.88535 0,1.68533 0,2.58536c0,0.89999 0,1.77914 0,2.73599c0,0.86398 0,1.76401 0,2.664c0,0.89999 0,1.69998 0,2.60001c0,0.89999 0,1.82083 0,2.78265c0,0.8075 0,1.68533 0,2.53818c0,0.95764 0,1.77783 0,2.67917c0,0.89999 0,1.79999 0,2.69998c0,0.89999 0,1.79868 0,2.68399c0,0.91602 0,1.716 0,2.61603c0,0.89999 0,1.79999 0,2.69998c0,0.89999 0.14981,1.81259 -0.00015,2.69983c-0.14401,0.85202 -0.91428,1.28345 -1.49985,1.87933c-0.4747,0.48306 -0.4212,1.37564 -0.92532,1.99551c-0.50021,0.61508 -1.11786,1.22864 -1.45316,2.12534c-0.31808,0.85065 -0.29257,1.71271 -1.12152,1.89999c-0.8837,0.19965 -0.74277,1.22559 -1.22131,1.87866c-0.51395,0.70139 -0.97156,1.43314 -1.58002,1.836c-0.82144,0.54385 -1.19867,1.20132 -1.19867,1.98984c0,0.89551 0,1.7955 -0.01065,2.68484l-0.564,0.63599" id="svg_23" stroke-width="2" stroke="#000" fill="none"/>
  <path t="81504,81655,81664,81679,81687,81696,81703,81720,81720,81736,81744,81760,81776,81776,81784,81815,81839,81855,81864,81880,81887,81904,81919,81928,81951,81959,81975,81992,82000,82016,82032,82040,82056,82064,82064,82072,82080,82096,82112,82120,82120,82128,82141,82145,82168,82168,82192,82216,82232,82264,82264,82280,82292,82312,82328,82329,82352,82368,82401,82417,82417,82433,82456,82488,82520,82560,82570,82632,82647,82660,82664,82704,82728,82737,82784,82848,82848" d="m336.51135,222.09091c-1.69998,0 -2.64282,0 -3.52081,0c-0.87918,0 -1.84866,0.03741 -2.5,0.5c-0.66974,0.47566 -1.52374,0.52303 -2.34317,0.92534c-0.86954,0.42691 -1.73727,0.52687 -2.63602,0.57466c-0.80338,0.04272 -1.56467,0.57425 -2.00131,1.284c-0.42465,0.69028 -0.87759,1.42804 -1.60934,1.70534c-0.89255,0.33823 -1.57492,0.4994 -2.22266,1.17734c-0.60406,0.63222 -0.9165,1.45619 -1.6875,1.8125c-0.78891,0.36458 -1.35309,0.74641 -2.08984,1.01016c-0.83737,0.29976 -1.82117,0.08255 -2.41467,0.58533c-0.6337,0.53683 -1.36697,0.86955 -2.07465,1.52518c-0.59363,0.54996 -1.3418,1.0374 -1.98401,1.61617c-0.64957,0.58537 -1.29825,1.06758 -1.91602,1.61732c-0.62253,0.554 -1.09241,1.45364 -2,1.66667c-0.82733,0.1942 -1.23575,0.95372 -1.64731,1.64284c-0.44235,0.74071 -0.88892,1.18465 -1.83185,1.35716c-0.84119,0.1539 -1.24655,0.88919 -2.02084,1.47917c-0.73416,0.5594 -1.49362,0.92938 -2,1.52083c-0.50894,0.59442 -0.5062,1.60757 -1.2045,2.05267c-0.66968,0.42685 -1.49744,0.96875 -1.93832,1.64732c-0.5148,0.79233 -0.98825,1.36238 -1.44116,2.10133c-0.47391,0.77319 -0.86121,1.59586 -1.34134,2.17334c-0.49728,0.59811 -0.45956,1.72926 -1.18533,2.01466c-0.80878,0.31805 -1.22092,0.64114 -1.41016,1.51067c-0.1842,0.84628 -0.85767,1.60001 -0.97919,2.5l0,0.79999" id="svg_24" stroke-width="2" stroke="#000" fill="none"/>
 </g>
 <g display="none">
  <title>muse_image</title>
  <image xlink:href="http://farm4.static.flickr.com/3195/2735544685_2bf3eec067.jpg" id="muse" height="480" width="360" y="0" x="140"/>
 </g>
 <g display="none">
  <title>bbox</title>
  <rect stroke="#f00" fill="none" stroke-width="3" height="454.08" width="157.44" y="4.8" x="264.8" id="bbox"/>
 </g>
</svg>
