<svg width="640" height="480" xmlns="http://www.w3.org/2000/svg" xmlns:svg="http://www.w3.org/2000/svg" xmlns:xlink="http://www.w3.org/1999/xlink">
 <!-- Sketchy ANNOTATION
  ImageNet ID: n03272010_7000
  URL: http://farm3.static.flickr.com/2331/1593675161_071f5a990f.jpg
  Image Width: 500
  Image Height: 375
  BBox X: 111
  BBox Y: 114
  BBox Width: 388
  BBox Height: 144
  Exposure: 2000ms
  Synset Label: guitar
  Synset ID: n03467517
  Worker Tag: a man playing guitar
  Sanity Check: 
   Saved
  Comment: 
   {}
  Worker ID: A1P7U2ULSAE7YL
  Assignment ID: 3AZHRG4CU4K1TDTLBJLIRWATBR903K
  HIT ID: 3ZFRE2BDQ9E8OC8V900WFR7YXLOXZB
  Work Time: 110s
  Worker Score: 0.7857
 END ANNOTATION -->
 <g display="inline">
  <title>Layer 1</title>
  <path t="0,215,231,239,239,248,255,279,287,296,303,303,311,327,336,343,351,359,375,391,399,407,415,416,424,431,439,448,455,464,472,481,487,495,495,511,519,519,527,535,543,552,559,568,575,584,601,602,607,607,623,623,623,632,632,650,650,655,656,665,665,671,681,681,687,688,696,703,704,713,713,720,720,720,727,727,727,735,743,743,752,752,759,760,760,768,768,768,775,776,784,792,792,801,801,801,807,807,818,818,823,823,839,839,848,848,848,855,864,864,871,872,872,882,882,887,888,888,896,896,903,903,912,912,912,919,927,927,928,935,936,936,944,952,953,959,960,960,972,976,976,988,988,988,992,992,1005,1006,1008,1008,1022,1022,1022,1024,1024,1031,1031,1031,1041,1041,1047,1048,1056,1056,1056,1064,1064,1064,1072,1072,1081,1081,1081,1088,1097,1097,1097,1104,1104,1104,1104,1111,1112,1112,1119,1127,1128,1128,1135,1135,1143,1144,1151,1151,1151,1160,1160,1170,1170,1170,1175,1176,1183,1183,1191,1192,1204,1204,1208,1208,1216,1216,1224,1224,1224,1237,1238,1240,1240,1247,1247,1256,1256,1263,1263,1264,1272,1273,1280,1281,1289,1289,1297,1297,1304,1304,1312,1312,1312,1321,1321,1328,1328,1337,1338,1344,1344,1344,1353,1359,1360,1360,1370,1370,1375,1376,1376,1387,1387,1387,1391,1403,1404,1404,1408,1408,1420,1420,1424,1424,1424,1437,1437,1437,1440,1440,1440,1453,1453,1453,1456,1456,1456,1463,1464,1464,1472,1472,1480,1480,1488,1489,1497,1497,1497,1497,1504,1504,1505,1514,1514,1521,1528,1528,1528,1528,1538,1538,1538,1544,1544,1551,1559,1559,1560,1570,1570,1570,1576,1576,1587,1587,1592,1592,1603,1604,1604,1608,1608,1608,1615,1615,1624,1624,1631,1631,1640,1640,1647,1656,1656,1656,1663,1663,1672,1680,1680,1688,1697,1697,1704,1704,1713,1720,1721,1728,1728,1737,1737,1743,1753,1760,1760,1769,1776,1783,1783,1792,1792,1802,1802,1808,1820,1824,1840,1856,1887,1935,1959,1991,1991,2007,2023,2034" d="m157.51137,269.09091c1.2215,-0.87851 2.16612,-0.78934 3,-1.16666c0.65396,-0.2959 0.86647,-1.55331 1.64734,-1.82886c0.82372,-0.29065 1.76317,0.12823 2.65266,-0.00897c0.93138,-0.14368 1.46861,-0.84735 2.39999,-0.99103c0.8895,-0.13721 1.8,-0.00223 2.7,-0.00449c0.89552,-0.00226 1.40686,-0.6705 2.12083,-0.97916c0.80722,-0.34897 1.78571,0.08612 2.67917,-0.02219c0.91977,-0.11148 1.45409,-0.80853 2.40001,-0.98801c0.88428,-0.16776 1.79999,-0.01065 2.7,-0.01065c0.89999,0 1.93216,0.24426 2.616,-0.284c0.62749,-0.48471 1.284,-0.716 2.18416,-0.716c0.78517,0 1.72546,0.02399 2.73317,0c0.75664,-0.01801 1.47699,-0.61813 2.36667,-0.91467c0.85765,-0.28589 1.8,-0.08533 2.716,-0.08533c0.7885,0 1.68401,0 2.60483,0c0.96451,0 1.68983,0 2.67917,0c0.8,0 1.80106,0.03186 2.60001,-0.01068c0.80234,-0.04272 1.78024,-0.36874 2.48566,-0.63666c1.03342,-0.39246 1.77534,-0.2341 2.69301,-0.57401c0.82848,-0.30688 1.67256,-0.74631 2.36867,-0.77417c1.02652,-0.04111 1.98094,0.07385 2.82733,-0.0405c0.81749,-0.11044 1.47701,-0.77274 2.46133,-0.95334c0.83548,-0.15329 1.59132,0.02695 2.564,-0.23199c0.81863,-0.21793 1.79657,-0.63333 2.61067,-0.75333c0.64423,-0.09494 1.61336,-0.2359 2.40399,-0.45065c0.77844,-0.21146 1.97255,-0.49673 2.8855,-0.57483c0.78691,-0.06729 1.5583,-0.3645 2.36151,-0.70435c0.95592,-0.40445 1.76488,-0.69218 2.31299,-0.89551c1.06107,-0.3936 1.7486,-0.74806 2.62083,-1.04283c0.98343,-0.33234 1.73247,-0.35182 2.76701,-0.35716c0.90448,-0.00467 1.63351,0.00601 2.67082,0c0.92004,-0.00534 1.71434,-0.00978 2.552,-0.436c0.61395,-0.31239 1.61218,-0.88222 2.364,-1.12799c0.90874,-0.29707 1.82283,-0.3317 2.69366,-0.6575c0.62691,-0.23454 1.55002,-0.79301 2.34634,-1.16783c0.71925,-0.33855 1.6064,-0.51535 2.53217,-0.83217c0.71971,-0.24629 1.68225,-0.77115 2.274,-1.07851c0.75223,-0.39072 1.61322,-1.07697 2.21432,-1.34283c0.91205,-0.40338 1.71085,-0.34419 2.50751,-0.35583c1.22537,-0.01791 1.88925,0.03979 2.88266,-0.22266c0.81903,-0.21637 1.79813,-0.62289 2.58932,-0.75334c0.72375,-0.11932 1.7052,-0.59383 2.54401,-1.02533c0.65808,-0.33853 1.45859,-0.58315 2.5,-1c0.70969,-0.28409 1.47409,-0.76164 2.414,-0.94284c0.90448,-0.17436 1.60608,0.03014 2.75266,-0.22383c0.60913,-0.13492 1.31052,-0.61697 2.37469,-0.79733c0.93417,-0.15833 1.64615,-0.036 2.62531,-0.036c0.80002,0 1.60001,0 2.60001,0c0.80002,0 1.79868,0.00467 2.74283,0c0.90906,-0.0045 1.63895,-0.14656 2.42651,-0.56801c0.76425,-0.40898 1.5152,-0.95905 2.54532,-1.26132c0.64954,-0.1906 1.6864,-0.13879 2.48535,-0.18134c0.80234,-0.04272 1.78745,-0.3786 2.60001,-0.63667c0.9881,-0.31383 1.84302,-0.33763 2.76666,-0.51933c0.79352,-0.15611 1.61646,-0.42174 2.66666,-0.83333c0.71558,-0.28046 1.33511,-0.64128 2.36667,-0.87866c0.78851,-0.18146 1.80875,-0.26271 2.58932,-0.54668c0.73434,-0.26714 1.59561,-0.55127 2.54401,-0.57466c0.93845,-0.02315 1.49539,0.01886 2.66666,-0.16667c0.90771,-0.14378 1.49301,-0.36488 2.40002,-0.54933c1.18826,-0.24164 1.80338,-0.08554 2.74399,-0.368c0.92041,-0.27638 1.5058,-1.04997 2.15332,-1.30533c0.74442,-0.29358 1.77725,-0.53033 2.66101,-0.58984c1.0184,-0.06859 1.85718,-0.05516 2.811,-0.30482c0.75644,-0.198 1.54132,-0.46881 2.54532,-0.632c0.87009,-0.14142 1.69009,-0.2364 2.48535,-0.50934c0.80505,-0.27631 1.79874,-0.54201 2.60001,-0.57016c0.99939,-0.03511 1.80008,0.00867 2.79984,-0.00467c0.77954,-0.01039 1.81976,-0.1633 2.3895,-0.6105c0.77887,-0.61139 1.28067,-1.16928 2.25732,-1.364c0.83072,-0.16562 1.8378,-0.30762 2.65332,-0.52533c0.54764,-0.14619 1.81268,-0.44008 2.47919,-0.47917c1.01929,-0.05978 1.81042,0.00288 2.85416,-0.02083c0.7926,-0.01801 1.65823,-0.27177 2.37735,-0.61067c0.99832,-0.47049 1.56619,-0.84265 2.38931,-1.10399c0.97858,-0.31068 1.82385,-0.25258 2.79868,-0.57068c0.79056,-0.25798 1.57123,-0.82619 2.22665,-1.31467c0.68707,-0.51207 1.52597,-1.03197 2.35352,-1.27866c0.81363,-0.24254 1.78888,-0.411 2.54199,-0.62134c0.79486,-0.222 1.79166,-0.44734 2.66852,-0.48933c1.0094,-0.04834 1.79004,0.00789 2.64398,-0.01067c0.82858,-0.01801 1.71011,-0.2187 2.41733,-0.42534c0.98242,-0.28703 1.93851,-0.53828 2.91602,-0.57466c0.66898,-0.0249 1.45313,-0.02457 2.43784,-0.35716c0.87228,-0.29462 1.81583,-0.74553 2.34814,-0.94284c0.8205,-0.30414 1.88257,-0.69553 2.58569,-0.9955c0.80219,-0.34224 1.72928,-0.57957 2.62833,-0.87117c0.87955,-0.28528 1.42526,-0.6541 2.43332,-1.12883c0.5947,-0.28006 1.60092,-0.57732 2.39999,-0.7045c1.00119,-0.15935 1.79895,-0.46292 2.45718,-0.64734c1.20935,-0.33884 1.77231,-0.29176 2.59015,-0.40533c1.27759,-0.17743 1.95108,-0.47206 2.63669,-0.74866c0.99902,-0.40305 1.83084,-0.7009 2.4205,-0.84151c1.18512,-0.28261 2.08609,-0.31935 2.65948,-0.38249c1.07214,-0.11806 1.99185,-0.42468 2.6315,-0.62201c0.99203,-0.30605 1.94733,-0.3504 2.85635,-0.35266c0.7175,-0.00177 1.76413,0.02429 2.56949,-0.036c1.18256,-0.08852 1.77924,-0.24564 2.67865,-0.464c0.6004,-0.14577 1.79758,-0.40401 2.67868,-0.464c0.80576,-0.05487 1.88126,0.10904 2.61865,-0.12132c0.83072,-0.25951 1.69931,-0.77875 2.56519,-0.85751c0.65662,-0.05972 1.3367,-0.04643 2.59448,-0.05733c0.77106,-0.00668 1.6572,-0.02878 2.63852,-0.35249c0.76288,-0.25166 1.66791,-0.53574 2.57117,-0.81401c0.69528,-0.2142 1.5116,-0.59708 2.51733,-0.74933c0.81104,-0.12279 1.64777,-0.10107 2.62933,-0.368c0.85773,-0.23325 1.67535,-0.55482 2.43933,-0.76868c0.91907,-0.25726 1.64633,-0.66306 2.44751,-1.04716c0.81522,-0.39084 1.47659,-0.66315 2.48383,-0.81616c0.81097,-0.1232 1.64948,-0.09782 2.85883,-0.43666c0.65823,-0.18442 1.65274,-0.56784 2.43634,-0.62651c0.99692,-0.07465 1.78668,-0.0405 2.67349,-0.37349c0.70642,-0.26526 1.61197,-0.53188 2.51401,-0.81401c0.87509,-0.27371 1.41943,-0.63135 2.42883,-0.77617c0.91153,-0.13078 1.92426,-0.0096 2.72565,-0.27849c0.84433,-0.28329 1.67865,-0.76825 2.55084,-0.77867c0.73062,-0.00873 1.72351,0.00386 2.47083,0c1.03189,-0.00534 1.97571,-0.22829 2.65717,-0.5c0.97473,-0.38866 1.77573,-0.49161 2.65268,-0.85716c0.71689,-0.29883 1.3186,-1.0542 2.18066,-1.47617c0.80136,-0.39224 1.68399,-0.16667 2.64584,-0.16667c0.82532,0 1.84232,0 2.54166,0c0.97916,0 1.81213,0.17035 2.8125,-0.16667c0.69803,-0.23517 1.21158,-1.23769 2,-1.66666c0.69833,-0.37996 1.66666,-0.16667 2.56668,-0.16667c0.89999,0 1.79999,0 2.69998,0c0.89999,0 1.70001,0 2.60001,0l0.94284,-0.05717l0.44116,-0.65883" id="svg_1" stroke-width="2" stroke="#000" fill="none"/>
  <path t="3783,3951,3951,3975,3991,3999,4015,4015,4023,4032,4048,4063,4071,4087,4103,4119,4119,4135,4143,4151,4175,4207,4239,4255,4279,4311,4319,4327,4367,4383,4407,4423,4679,4703,4719,4729,4735,4743,4751,4759,4759,4767,4767,4776,4783,4793,4799,4799,4807,4807,4815,4815,4823,4831,4831,4839,4847,4847,4855,4863,4863,4871,4871,4879,4887,4895,4895,4903,4911,4919,4927,4927,4935,4935,4943,4951,4951,4959,4959,4967,4977,4983,4992,4992,4992,4999,5007,5007,5015,5015,5031,5031,5039,5048,5048,5055,5055,5063,5063,5071,5071,5079,5079,5087,5095,5103,5103,5111,5119,5119,5127,5127,5135,5135,5143,5143,5151,5159,5159,5167,5167,5175,5175,5183,5183,5192,5192,5192,5199,5208,5209,5215,5215,5215,5223,5223,5231,5239,5239,5247,5247,5247,5255,5255,5263,5263,5263,5271,5271,5279,5279,5287,5295,5295,5303,5303,5303,5312,5312,5312,5319,5319,5329,5335,5335,5335,5346,5346,5351,5351,5351,5363,5363,5367,5367,5376,5376,5384,5384,5393,5393,5400,5400,5410,5410,5416,5416,5423,5424,5432,5439,5440,5440,5448,5448,5448,5448,5455,5455,5463,5464,5471,5480,5480,5487,5488,5495,5496,5503,5503,5503,5513,5520,5520,5529,5529,5530,5536,5536,5536,5544,5545,5552,5552,5563,5563,5567,5567,5576,5583,5583,5584,5593,5593,5600,5609,5609,5616,5616,5616,5624,5624,5632,5640,5640,5648,5648,5655,5655,5664,5664,5671,5671,5671,5680,5680,5688,5688,5696,5696,5703,5703,5711,5720,5720,5720,5729,5730,5730,5735,5746,5746,5752,5752,5763,5763,5763,5768,5768,5775,5776,5783,5783,5792,5792,5800,5800,5809,5809,5809,5816,5816,5825,5826,5831,5840,5840,5840,5849,5849,5856,5856,5863,5864,5872,5872,5879,5880,5888,5900,5900,5903,5903,5916,5917,5920,5933,5936,5949,5952,5952,5968,5968,5968,5975,5976,5984,5992,5992,6000,6009,6017,6032,6033,6040,6040,6040,6047,6048,6056,6056,6066,6067,6072,6072,6083,6084,6088,6095,6098,6116,6117,6120,6120,6133,6136,6136,6149,6150,6152,6152,6162,6163,6169,6183,6183,6185,6200,6200,6209,6216,6225,6225,6232,6242,6250,6256,6263,6272,6280,6288,6298,6304,6311,6312,6319,6320,6335,6336,6343,6352,6366,6368,6376,6382,6400,6400,6402,6402,6403,6408,6408,6416,6416,6424,6432,6432,6442,6448,6448,6456,6463,6472,6472,6479,6487,6511,6522,6530,6549,6565,6584,6584,6639,6679,6703,6951,6975,7031" d="m156.51137,270.09091c1.16667,1 1.74695,1.53717 1.964,2.39999c0.21974,0.8735 -0.12677,1.8569 0.25732,2.70001c0.35535,0.78 0.77026,1.51779 1.20401,2.29999c0.45479,0.82016 0.57466,1.70001 0.57466,2.60001c0,0.87866 0,1.64667 0,2.65268c0,0.69464 0.00174,1.70752 0.5,2.34732c0.4808,0.6174 0.5,1.5 0.5,2.39999c0,0.89999 0,1.80002 0,2.69983c0,0.92551 -0.39232,1.8317 0.08533,2.61484c0.49013,0.80359 0.91467,1.38516 0.91467,2.26001c0,0.82666 0.04486,1.87885 0.80133,2.02399c0.88257,0.16931 1.79868,0.00134 2.69867,0.00134c0.89999,0 1.8045,0 2.66667,0c0.85416,0 1.83333,0.00006 2.612,0c0.9785,-0.00009 1.56364,-0.6188 2.42133,-0.91467c0.85478,-0.29486 1.70164,-0.12924 2.636,-0.52133c0.57974,-0.24329 1.54668,-0.79822 2.328,-1.12799c0.93355,-0.39401 1.83618,-0.41879 2.636,-0.436c0.83658,-0.01801 1.67072,-0.31732 2.54733,-0.64734c0.88785,-0.33423 1.82069,-0.5159 2.478,-0.77798c1.0101,-0.40277 1.78859,-0.55362 2.57466,-1c0.72514,-0.41177 1.6004,-0.54932 2.40001,-0.57468c0.90135,-0.02859 1.64908,-0.60736 2.5045,-0.94733c0.82674,-0.32855 1.67535,-0.60828 2.52882,-0.88602c0.74171,-0.24136 1.51759,-0.7402 2.48801,-1.04517c0.65453,-0.20569 1.65758,-0.09552 2.47733,-0.12149c0.90269,-0.02859 1.68076,-0.53876 2.50584,-0.95184c0.84305,-0.42206 1.49484,-0.93134 2.04283,-1.34283c0.85797,-0.64426 1.854,-0.70532 2.53799,-0.70532c0.95067,0 1.71706,0.04135 2.71017,-0.00449c0.92172,-0.04254 1.72673,-0.54483 2.57117,-0.82886c0.80185,-0.26971 1.812,-0.16666 2.586,-0.16666c0.9045,0 1.65182,0 2.64732,0c0.8,0 1.79984,0 2.76401,0c0.94933,0 1.78648,-0.00742 2.54584,-0.35266c0.80608,-0.36649 1.66431,-0.62933 2.6115,-0.64734c0.85318,-0.01624 1.79468,0.0043 2.56267,0c0.95204,-0.00534 1.73801,-0.01804 2.707,-0.35266c0.71324,-0.24631 1.56949,-0.70612 2.4715,-1c0.69597,-0.22675 1.78897,-0.57645 2.55217,-0.63669c0.86803,-0.06851 1.79007,0.01022 2.78532,-0.01199c0.80055,-0.01788 1.62041,-0.11163 2.38934,-0.43466c0.74875,-0.31454 1.52135,-1.09454 2.37733,-1.39734c0.81691,-0.28897 1.83333,-0.16666 2.63333,-0.16666c0.8,0 1.7955,0 2.54283,0c1.03183,0 1.98077,0.03586 2.69884,-0.02084c1.13089,-0.08932 1.91826,-0.30222 2.69699,-0.58981c0.94406,-0.34863 1.57098,-0.83157 2.42801,-1.38934c0.64899,-0.42239 1.42471,-0.75934 2.23334,-0.91602c0.79269,-0.15359 1.84314,-0.2128 2.55832,-0.60483c0.86526,-0.4743 1.3649,-1.37808 2.10416,-1.45831c1.09793,-0.11917 1.89017,-0.02084 2.71219,-0.02084c1.05865,0 1.76816,0 2.62082,0c1.00317,0 1.77145,0.07355 2.72052,-0.00134c1.0603,-0.08365 1.72324,-0.42792 2.48532,-0.79999c0.80215,-0.39163 1.59653,-0.80298 2.39865,-1.19867c0.79791,-0.39362 1.58508,-0.79459 2.60001,-0.94284c0.79333,-0.11588 1.80658,0.02185 2.564,-0.09317c0.97299,-0.14777 1.55884,-0.71591 2.32135,-1.16266c0.70074,-0.41055 1.71875,-0.65527 2.49384,-0.80133c1.00601,-0.18961 1.60895,-0.66916 2.50616,-1.19867c0.69943,-0.41278 1.51672,-0.62289 2.49384,-0.80133c0.85611,-0.15634 1.56818,-0.67743 2.44217,-0.97467c0.88235,-0.30008 1.59488,-0.37659 2.39999,-0.63599c1.18149,-0.38068 1.77927,-0.5838 2.65784,-0.88934c0.56491,-0.19644 1.59497,-0.60968 2.47916,-0.97916c0.87097,-0.36395 1.63098,-0.51486 2.5625,-0.52084c0.96448,-0.0062 1.70758,0.04156 2.67902,-0.22134c0.79892,-0.21622 1.63263,-0.61572 2.46149,-0.80399c0.88028,-0.19995 1.81332,-0.4892 2.48532,-0.69067c1.00507,-0.30136 1.92776,-0.23471 2.64935,-0.35599c1.05493,-0.17728 1.73468,-0.65985 2.42932,-1.07733c0.92065,-0.55331 1.72324,-0.73843 2.51334,-0.86536c0.92847,-0.14914 1.6655,-0.60858 2.57034,-0.93265c0.63605,-0.22781 1.69467,-0.41098 2.44034,-0.62735c0.91534,-0.26559 1.8389,-0.4313 2.66132,-0.85065c0.76535,-0.39023 1.63428,-0.55252 2.276,-0.65869c1.00095,-0.16562 1.75461,-0.47498 2.81332,-0.74931c0.82266,-0.21318 1.73877,-0.12695 2.70001,-0.38817c0.6149,-0.1671 1.39523,-0.58957 2.39551,-1.07401c0.56583,-0.27403 1.65076,-0.66846 2.57117,-0.7045c0.65823,-0.02577 1.6474,-0.20644 2.45865,-0.57466c0.8421,-0.38223 1.58548,-0.40732 2.57468,-0.42551c0.80011,-0.01471 1.80475,-0.15224 2.60001,-0.42517c0.80505,-0.27631 1.79874,-0.54201 2.60001,-0.57016c0.99805,-0.03506 1.76541,0.04666 2.716,-0.00583c0.77139,-0.0426 1.69345,-0.46501 2.39999,-0.71468c0.96564,-0.34122 1.80811,-0.49966 2.52567,-0.80482c0.64725,-0.27527 1.64398,-0.67137 2.4375,-0.97917c0.75439,-0.29262 1.78177,-0.7334 2.35416,-1.5c0.49634,-0.66475 1.2327,-0.96233 1.96268,-0.98933c1.03668,-0.03836 1.97629,0.04323 2.80267,-0.09599c0.81442,-0.13721 1.60168,-0.5246 2.60117,-1.01451c0.58969,-0.28905 1.63898,-0.71205 2.42548,-0.92549c0.86673,-0.23521 1.56284,-0.63582 2.57468,-0.85316c0.78833,-0.16933 1.80106,-0.08963 2.60001,-0.13217c0.80234,-0.04272 1.81381,-0.30888 2.36398,-0.60001c0.98804,-0.52281 1.52756,-1.04118 2.37769,-1.41016c0.99646,-0.43248 1.70514,-0.83638 2.20767,-1.12851c0.91049,-0.52928 1.84137,-0.84042 2.55966,-1.20332c0.67374,-0.34039 1.70966,-0.53076 2.44034,-0.70868c1.13821,-0.27715 1.41415,-0.95898 2.25064,-1.60533c0.61047,-0.47173 1.63647,-0.30661 2.48401,-0.33466c0.86469,-0.02861 1.72839,-0.44292 2.48535,-0.71468c0.99493,-0.35719 1.84506,-0.04201 2.66632,-0.50533c0.82755,-0.46687 1.60123,-0.52863 2.28168,-1.06401c0.76184,-0.59944 1.09479,-1.28735 2.08264,-1.54799c0.78381,-0.20679 1.60071,-0.13324 2.59552,-0.17117c0.74863,-0.02855 1.56027,-0.52815 2.50467,-0.87399c0.74585,-0.27313 1.71457,-0.10899 2.65698,-0.12151c0.78473,-0.01042 1.71671,-0.31442 2.45352,-0.57466c0.97601,-0.34473 1.80994,-0.41338 2.47464,-0.42401c0.99722,-0.01596 1.82141,0.12512 2.98135,-0.168c0.68845,-0.17398 1.53085,-0.78944 2.21866,-0.832c0.94888,-0.05872 1.71704,0.04001 2.71017,-0.00583c0.92172,-0.04254 1.70654,-0.54662 2.60583,-0.9115c0.65265,-0.2648 1.63748,-0.51416 2.20316,-0.7885c0.99786,-0.48392 1.72351,-0.8595 2.64618,-1.32083c0.66367,-0.33183 1.354,-0.68797 2.34799,-1.17334c0.76205,-0.3721 1.72888,-0.67125 2.48532,-0.88533c0.78351,-0.22174 1.60831,-0.7379 2.49069,-0.88c0.93512,-0.1506 1.81171,0.0148 2.57465,-0.46133c0.67004,-0.41818 1.4162,-0.41856 2.41467,-0.58533c0.86752,-0.1449 1.62338,-0.9043 2.436,-0.98801c0.89526,-0.09221 1.80002,0.004 2.69998,-0.00133c0.90009,-0.00534 1.54175,-0.53 2.41602,-0.91467c0.72595,-0.31941 1.68402,-0.08006 2.58398,-0.08533c0.91074,-0.00534 1.81854,-0.22824 2.5,-0.5c0.97443,-0.3886 1.50131,-0.82971 2.33334,-1.33333c0.60123,-0.36392 1.65015,-0.06601 2.66666,-0.16667c0.8457,-0.08374 1.21667,-0.92725 2.16669,-1c0.83115,-0.06364 1.65134,-0.20032 2.35416,-0.5c1.0025,-0.42747 1.74008,-0.47795 2.53101,-0.4955c1.02625,-0.02277 1.9614,0.16037 2.92667,-0.226c0.67242,-0.26915 1.2189,-1.24426 2.02148,-1.61183c0.74274,-0.34016 1.63602,-0.16667 2.65268,-0.16667c0.69467,0 1.75876,0.10558 2.54733,-0.284c0.87006,-0.42984 1.49957,-0.76944 2.29999,-1.216c0.79507,-0.44359 1.7338,-0.35379 2.59985,-0.50017c0.85202,-0.14401 1.26813,-0.84915 2.20016,-1.00433c0.8176,-0.13614 1.46863,-0.84732 2.39999,-0.991c0.8895,-0.13721 1.77917,-0.0045 2.29999,-0.36166l0,-0.94284l0,-0.89999" id="svg_2" stroke-width="2" stroke="#000" fill="none"/>
  <path t="8039,8183,8183,8199,8215,8255,8391,8407,8423,8447,8463,8487,8511,8527,8552,8560,8567,8591,8607,8623,8647,8655,8695,8695" d="m483.51135,194.09091c1,0 1.80002,0 2.70001,0c0.89999,0 1.79999,0 2.70001,0c0.89999,0 2.08032,-0.32585 2.54282,0.35716c0.52725,0.77866 0.72772,1.44969 1.03635,2.16367c0.34894,0.80722 -0.17407,1.80086 0.02216,2.67784c0.1806,0.80704 0.98065,1.23683 0.99866,2.20132c0.01678,0.89986 0,1.79868 0,2.65268l0,0.94733l0,0.8" id="svg_3" stroke-width="2" stroke="#000" fill="none"/>
  <path t="9727,10303,10311,10335,10345,10382,10431,10443,10463,10463,10487,10519,10519,10530,10545,10554,10563,10576,10584,10599,10615,10624,10647,10695,10707,10743,10759,10775,10783,10783,10831,10845,10863,10871,10890,10895,10913,10927,10935,10943,10959,10969,10983,10991,10999,11015,11015,11039,11047,11055,11063,11079,11095,11105,11127,11127,11143,11159,11169,11207,11218,11223,11223,11239,11247,11271,11287,11287,11311,11327,11343,11359,11368,11383,11391,11407,11423,11423,11431,11447,11471,11494,11495,11511,11522,11527,11553,11575,11585,11599,11607,11615,11631,11639,11647,11647,11655,11663,11679,11687,11695,11710,11727,11735,11751,11768,11775,11784,11807,11823,11823,11847,11863,11871,11895,11927,11935,11967,11975,12007,12023,12086,12095,12111,12119,12136,12151,12159,12159,12174,12190,12222,12231,12262,12286,12303,12319,12359,12375,12383,12423,12455,12463,12479,12487,12511,12527,12535,12553,12567,12591,12591,12606,12631,12647,12679,12687,12695,12703,12711,12726,12735,12783,12791,12807,12816,12831,12839,12855,12878,12895,12895,12919,12950,12959,12968,12975,12998,13015,13023,13031,13039,13048,13063,13072,13079,13079,13095,13111,13111,13119,13127,13127,13159,13175,13175,13183,13200,13216,13231,13231,13239,13255,13279,13311,13319,13327,13343,13382,13383,13391,13463,13471,13502,13511,13526,13526,13582" d="m493.51135,195.09091c0,-1.7 0,-2.60001 0,-3.5c0,-0.97917 -0.00009,-1.85716 0,-2.7c0.00009,-0.90001 0.12561,-1.83269 0.61069,-2.40001c0.63843,-0.7467 1.47681,-1.3284 1.95334,-2c0.51489,-0.72565 1.01071,-1.10785 1.82532,-1.41066c0.73349,-0.27266 1.32486,-0.59077 2.17468,-1.02533c0.69681,-0.35632 1.27328,-0.76288 2.13599,-1.02118c0.85855,-0.25705 1.61688,-0.79164 2.24734,-1.29549c0.61139,-0.4886 1.49719,-0.55188 2.25266,-0.93134c0.86719,-0.43558 1.22821,-1.0858 2.02151,-1.5945c0.74655,-0.47871 1.91638,0.20029 2.61182,-0.28818c0.71518,-0.50232 1.26651,-0.83333 2.19199,-0.83333c0.776,0 1.67468,0 2.57471,0c0.89996,0 1.79999,0 2.69995,0c0.90002,0 1.80005,0 2.70001,0c0.79999,0 1.83337,0 2.61066,0c0.88934,0 1.78937,0 2.68933,0c0.90002,0 1.80005,0 2.70001,0c0.79999,0 1.70056,-0.05623 2.5,-0.5c0.79608,-0.44189 1.7215,-0.5 2.60004,-0.5c0.89996,0 1.69995,0 2.59998,0c0.90002,0 1.82086,0 2.784,0c0.69067,0 1.75885,0 2.61584,0c0.90015,0 1.44513,0.45033 2.18549,0.91467c0.77826,0.48808 1.99908,-0.24309 2.59332,0.30682c0.60925,0.56378 0.77856,1.586 1.72137,1.76784c0.88373,0.17044 1.72968,-0.08052 2.72113,0.23199c0.68152,0.21483 1.23785,0.89995 1.76416,1.49467c0.51013,0.57646 1.61469,0.284 2.51471,0.284c0.89996,0 1.84247,0.05956 2.42529,0.57466c0.58777,0.51952 1.33136,1.03766 1.89069,1.71068c0.55603,0.66901 0.94226,1.10941 1.72681,1.76733c0.61041,0.5119 1.17499,1.1794 1.35736,2.04716c0.1665,0.79231 0.97113,1.25587 0.99982,2.10016c0.03052,0.89932 0.3067,1.58672 1.19867,1.80133c0.7489,0.18019 0.80133,1.19867 0.80133,2.09868c0,0.89999 0,1.7 0,2.59999c0,0.90001 0,1.8 0,2.7c0,0.90001 0.46832,2.08353 -0.16663,2.60001c-0.64648,0.52589 -1.3786,0.44899 -2.11737,0.91467c-0.75012,0.47287 -1.39264,0.65417 -2.15198,1.04933c-0.76709,0.39919 -1.76404,0.036 -2.664,0.036c-0.90002,0 -1.70001,0 -2.60004,0c-0.89996,0 -1.82996,0.22888 -2.68933,0c-0.68518,-0.18248 -1.19421,-0.88618 -1.90613,-1.35266c-0.76434,-0.50082 -1.53784,-0.81401 -1.70453,-1.64734c-0.16663,-0.83333 -0.67664,-1.56885 -1.43597,-1.964c-0.76709,-0.39919 -1.77264,0.088 -2.66382,-0.03616c-0.80194,-0.11172 -1.25592,-0.97124 -2.09888,-0.99983c-0.91058,-0.0309 -1.82214,0 -2.77985,0c-0.71698,0 -1.62146,0 -2.52148,0c-0.89996,0 -1.79999,-0.00009 -2.70001,0c-0.89978,0.00009 -1.66339,0.32607 -2.22528,0.97467c-0.50928,0.58791 -0.36621,1.50069 -0.79602,2.24666c-0.46411,0.8055 -1.41858,1.11818 -1.7215,2.07867c-0.24127,0.76491 0.2655,1.85402 -0.2785,2.57866c-0.48328,0.64377 -0.97174,1.24539 -1.48315,1.82133c-0.65021,0.73228 -1.07556,1.59677 -1.64819,2.24733c-0.51831,0.58885 -1.19812,0.99286 -1.94733,1.40533c-0.83862,0.4617 -1.70001,0.64734 -2.61603,0.64734c-0.78845,0 -1.7038,-0.00241 -2.48395,0.42534c-0.82294,0.45122 -1.552,0.82016 -2.30005,1.222c-0.77991,0.41896 -1.784,0.35121 -2.47467,0.35266c-1.06812,0.00226 -1.849,0.33479 -2.53998,0.716c-0.76556,0.42238 -1.76935,0.284 -2.63266,0.284c-0.89551,0 -1.85266,0 -2.75266,0c-0.90002,0 -1.70001,0 -2.60001,0c-0.89999,0 -1.82608,0.27792 -2.65268,-0.0045c-0.77142,-0.26357 -1.03189,-1.21426 -1.73132,-1.7115c-0.78165,-0.55568 -1.82675,0.08035 -2.55884,-0.34117c-0.81149,-0.46724 -1.36197,-0.95872 -1.96783,-1.5535c-0.59409,-0.58321 -1.38934,-1.22266 -2.104,-1.47333l-0.50665,-0.79466" id="svg_4" stroke-width="2" stroke="#000" fill="none"/>
  <path t="31487,31568,31583,31583,31591,31615,31623,31639,31655,31663,31671,31695,31695,31711,31711,31727,31735,31743,31759,31767,31783,31799,31815,31815,31823,31831,31839,31847" d="m158.51137,274.09091c1.02083,-0.97916 1.9785,-1 2.79866,-1c0.916,0 1.81201,0 2.70134,0c0.89999,0 1.8,0.00006 2.7,0c0.90001,-0.00009 1.76433,-0.22852 2.436,-0.57468c0.8121,-0.41852 1.72514,-0.26831 2.728,-0.436c0.86626,-0.14484 1.45712,-0.89627 2.24667,-0.98932c0.88345,-0.10413 1.59262,-0.54321 2.48933,-0.87851c0.85063,-0.31808 1.7,-0.12149 2.59999,-0.12149l0.90001,-0.03601l0.78932,-0.39999l0.52667,-0.76266" id="svg_8" stroke-width="2" stroke="#000" fill="none"/>
  <path t="33176,33367,33391,33415,33447,33479,33495,33511,33519,33519,33535,33551,33560,33567,33583,33614,33631,33647,33647,33663,33686,33703,33711,33711,33727,33743,33751,33759,33776,33793,33799,33815,33823,33823,33831,33831,33847,33863,33863,33879,33879,33903,33911,33919,33927,33935,33943,33951,33960,33968,33968,33976,33984,34000,34008,34016,34024,34032,34039,34048,34064,34080,34088,34104,34120,34144,34167,34167,34176,34184,34193,34208,34208,34215,34216,34224,34239,34256,34256,34263,34272,34280,34296,34304,34312,34320,34320,34328,34344,34360,34368,34376,34384,34392,34410,34416,34424,34432,34440,34440,34448,34456,34488,34488,34504,34520,34520,34530,34544,34564,34577,34577,34584,34593,34610,34624,34624,34640,34648,34656,34664,34672,34680,34681,34688,34697,34714,34720,34731,34747,34752,34768,34768,34780,34784,34793,34800,34800,34810,34824,34832,34848,34856,34865,34872,34880,34888,34889,34898,34904,34904,34926,34934,34937,34951,34953,34967,34969,34970,34976,34993,35002,35009,35026,35032,35040,35057,35072,35088,35088,35101,35102,35104,35112,35134,35136,35137,35137,35153,35153,35164,35168,35169,35176,35176,35193,35193,35209,35226,35232,35251,35267,35268,35272,35285,35288,35305,35313,35334,35335,35337,35351,35353,35363,35363,35369,35369,35376,35384,35384,35392,35401,35410,35418,35426,35437,35443,35451,35456,35456,35464,35473,35484,35501,35504,35504,35517,35520,35537,35548,35553,35570,35584,35584,35592,35601,35616,35616,35634,35642,35656,35667,35672,35680,35680,35701,35717,35720,35720,35734,35736,35744,35744,35752,35767,35767,35770,35784,35786,35793,35801,35809,35809,35816,35826,35835,35849,35856,35869,35869,35896,35912,35937,35953,35953,35976,35993,35994,36009,36009,36017,36018,36032,36050,36051,36064,36073,36084,36088,36089,36101,36117,36120,36137,36149,36176,36200,36216,36232,36249,36249,36258,36272,36280,36289,36304,36317,36320,36331,36337,36337,36344,36353,36368,36370,36370,36383,36385,36396,36416,36416,36424,36424,36432,36456,36456,36464,36472,36488,36496,36520,36536,36567,36567,36579,36599,36608,36616,36624,36641,36649,36657,36674,36683,36683,36688,36719,36719,36744,36755,36755,36768,36792,36816,36840,36840,36863,36888,36904,36920,36944,36952,36968,36976,36984,36999,37001,37008,37024,37033,37215,37216,37232,37255,37271,37287,37288,37304,37304,37316,37316,37320,37336,37344,37347,37352,37352,37367,37370,37370,37384,37394,37408,37543,37560,37584,37600,37623,37631,37641,37664,37674,37691,37718,37719,37738,37743,37759,37783,37801,37812,37815,37847,37871,37880,37888,37905,37907,37911,37922,37937,37952,37968,37984,38000,38023,38035,38042" d="m178.51137,268.09091c1.8,0 2.7,0 3.564,0c0.87201,0 1.73601,0 2.636,0c0.90001,0 1.8,0 2.60001,0c0.89999,0 1.8,0 2.7,0c0.89999,0 1.88933,0 2.78534,0c0.81467,0 1.71721,0.0639 2.51466,0c1.04333,-0.08359 1.41522,-0.93912 2.3,-1c0.89787,-0.0618 1.67743,-0.1243 2.5,-0.57468c0.78038,-0.42728 1.7005,-0.39529 2.59866,-0.42532c0.85542,-0.02859 1.35023,-0.75574 2.30133,-0.97916c0.88705,-0.20837 1.81854,-0.24908 2.5,-0.52084c0.97444,-0.38858 1.42732,-0.86984 2.2215,-1.37851c0.74696,-0.47842 1.6778,-0.16992 2.42667,-0.47415c0.7993,-0.32474 1.75035,-0.69263 2.37267,-1.14734c0.65826,-0.48099 1.64584,-0.5 2.5,-0.5c0.87917,0 1.78571,0.10696 2.67917,-0.00134c0.91977,-0.11148 1.4541,-0.80841 2.40001,-0.98801c0.8638,-0.164 1.8181,-0.02994 2.39999,-0.51065c0.60332,-0.49838 1.67195,-0.17188 2.47917,-0.52084c0.71397,-0.30865 1.22531,-0.9769 2.12083,-0.97916c0.89999,-0.00226 1.79999,0 2.7,0c0.89867,0 1.784,0 2.7,0c0.8,0 1.72592,0.18146 2.60001,-0.03601c0.87268,-0.21713 1.558,-0.86099 2.39999,-0.94315c0.97409,-0.09503 1.79866,-0.02084 2.7,-0.02084c0.94284,0 1.91531,0.20676 2.59467,-0.05716c0.89217,-0.34659 1.43658,-0.7579 2.30534,-0.97885c0.86224,-0.2193 1.59697,-0.92128 2.5,-0.96399c0.89899,-0.04253 1.68109,-0.11768 2.5,-0.57466c0.77272,-0.43121 1.2789,-1.13737 2.01067,-1.41467c0.89253,-0.33821 1.38361,-0.82877 2.19067,-1.00934c0.87698,-0.19621 1.81784,0.16389 2.69864,-0.02216c0.84741,-0.17899 1.59238,-0.91702 2.30002,-0.97784c0.8967,-0.07707 1.84344,0.03101 2.76932,-0.00266c0.78397,-0.0285 1.5896,-0.5228 2.53067,-0.87717c0.66467,-0.25031 1.62595,0.05998 2.5,-0.1575c0.87271,-0.21713 1.71637,-0.88536 2.39999,-0.94318c0.97507,-0.08246 1.66962,-0.41833 2.28534,-0.93683c0.66547,-0.56039 1.48331,-0.93582 2.41467,-1.0795c0.8895,-0.13721 1.79999,-0.00224 2.70001,-0.0045c0.89999,-0.00226 1.63663,-0.32613 2.39999,-0.716c0.75287,-0.38454 1.73889,-0.30815 2.22083,-0.784c0.56204,-0.55496 1.28952,-1.11813 2.17917,-1.41467c0.85764,-0.28587 1.80045,-0.05824 2.60001,-0.08533c0.8443,-0.02861 1.34106,-0.83652 2.22083,-0.97917c0.94556,-0.15332 1.77805,-0.00166 2.69385,-0.02083c0.86057,-0.01801 1.32928,-0.85425 2.08667,-0.99867c0.88275,-0.16832 1.81827,0.00063 2.59866,-0.42667c0.82254,-0.45038 1.70016,-0.57466 2.48532,-0.57466c0.94,0 2.03998,0.37367 2.75299,0c0.61899,-0.3244 1.06619,-0.99774 1.96167,-1c0.89999,-0.00226 1.84454,0.09546 2.60001,-0.284c0.86719,-0.43558 1.49905,-0.7704 2.29999,-1.216c0.79907,-0.44456 1.70001,-0.5 2.59985,-0.5c0.90015,0 1.67877,-0.12453 2.50015,-0.57466c0.78024,-0.42758 1.7045,-0.42534 2.56668,-0.42534c0.83331,0 1.81183,0 2.63199,0c0.90134,0 1.84116,0.03624 2.612,-0.436c0.80429,-0.49274 1.39969,-1.02197 2.19067,-1.27866c0.97021,-0.31483 1.74149,-0.283 2.77335,-0.28534c0.94666,-0.00215 1.66592,0.12222 2.60397,-0.22133c0.69196,-0.25342 1.73892,-0.5127 2.45203,-0.86267c0.75037,-0.36826 1.36508,-1.00955 2.06931,-1.416c0.79385,-0.45818 1.63837,-0.88608 2.30002,-1.216c0.84335,-0.42055 1.79999,-0.284 2.67917,-0.284c0.95682,0 1.87747,0.13655 2.72083,-0.284c0.66165,-0.32993 1.51129,-0.74818 2.20001,-1.14134c0.81543,-0.46548 1.76666,-0.57466 2.59998,-0.57466c0.97852,0 1.69553,0.00073 2.63602,0c0.84799,-0.00067 1.78149,0.10278 2.60233,-0.35266c0.83685,-0.46434 1.5632,-0.62938 2.46167,-0.64734c0.90054,-0.01801 1.61035,-0.61813 2.5,-0.91467c0.85764,-0.28587 1.79999,-0.08533 2.60001,-0.08533c0.89999,0 1.81256,0.14818 2.67917,0c0.8425,-0.14406 1.50821,-0.91496 2.32083,-0.99867c0.89526,-0.09221 1.79999,-0.00133 2.69998,-0.00133c0.90002,0 1.80475,0.0909 2.70001,-0.00133c0.81259,-0.08371 1.38776,-0.70653 2.15717,-1.35133c0.69754,-0.58458 1.64282,-0.64734 2.44284,-0.64734c0.89999,0 1.80002,0.00533 2.69998,0c0.90009,-0.00534 1.61182,-0.44234 2.5,-0.83333c0.65765,-0.28951 1.64285,-0.16603 2.54169,-0.16667c0.94098,-0.00067 1.7384,-0.07161 2.47299,-0.57466c0.62366,-0.42709 1.64951,-0.34602 2.33267,-0.48251c0.92471,-0.18475 1.74603,-0.88068 2.53799,-0.9415c0.92661,-0.07117 1.87183,-0.00133 2.72534,-0.00133c0.88931,0 1.8002,0.01985 2.71048,-0.00017c0.81808,-0.01799 1.45712,-0.67197 2.19968,-0.979c0.81268,-0.33604 1.78571,0.08615 2.67917,-0.02216c0.91962,-0.11148 1.52112,-0.69817 2.32083,-1.0195c0.78583,-0.31575 1.57303,-0.91829 2.47916,-0.97917c0.79822,-0.05363 1.64905,0.0049 2.48535,-0.284c0.73859,-0.25514 1.71024,-0.63651 2.49384,-0.69518c0.99677,-0.07463 1.78571,-0.16919 2.65683,-0.59549c0.82062,-0.40158 1.53864,-0.41991 2.60684,-0.42534c0.85699,-0.00436 1.5199,-0.49843 2.32516,-0.916c0.6564,-0.34038 1.3591,-0.85898 2.13651,-1.0795c0.86151,-0.24437 1.67059,-0.12819 2.29099,-0.65184c0.54187,-0.45737 1.50449,-0.3504 2.40451,-0.35266c0.89999,-0.00226 1.83865,-0.10301 2.31467,-0.80133c0.51077,-0.74931 0.98834,-1.25401 1.78531,-1.69867c0.79852,-0.44553 1.70001,-0.5 2.59985,-0.5c0.92099,0 1.79837,0.14095 2.73349,-0.16667c0.6904,-0.22711 1.4653,-0.80473 2.36667,-0.83333c0.89954,-0.02853 1.80038,0.02538 2.60001,0c0.90137,-0.02859 1.64987,-0.60536 2.49548,-0.94284c0.83542,-0.3334 1.4458,-0.7733 2.35269,-1.00449c0.76974,-0.19623 1.40231,-0.90906 2.35181,-1.05267c0.79102,-0.11964 1.79691,0.36317 2.56403,-0.036c0.75937,-0.39514 1.21545,-1.08553 2.03598,-1.53867c0.77045,-0.42549 1.53394,-0.77332 2.20135,-1.14134c0.82413,-0.45442 1.79868,-0.27859 2.69864,-0.284c0.8894,-0.00534 1.37704,-0.717 2.11069,-0.98933c0.83423,-0.30969 1.59262,-0.55385 2.48932,-0.88916c0.85062,-0.31808 1.6846,-0.23177 2.46402,-0.69617c0.75519,-0.44997 1.58533,-0.42534 2.60266,-0.42534c0.83331,0 1.7637,0.39296 2.548,-0.08533c0.80365,-0.49007 1.38531,-0.91467 2.28531,-0.91467c0.80002,0 1.70007,0.00961 2.56403,0c0.93616,-0.01042 1.37262,-0.77478 2.1405,-0.9955c0.86066,-0.24738 1.79547,-0.0045 2.6955,-0.0045c0.89999,0 1.8811,0.13734 2.54733,-0.35266c0.6842,-0.50323 1.45667,-0.56282 2.34814,-0.64734c0.88303,-0.08371 1.36502,-0.799 2.3045,-0.98933c0.8826,-0.17882 1.60632,-0.54593 2.50018,-0.88916c0.74152,-0.28474 1.73584,-0.12151 2.50116,-0.12151c0.99417,0 1.74149,0 2.75198,0c0.93335,0 1.81335,0 2.64667,0c0.97852,0 1.79868,0.00186 2.63602,0c1.01218,-0.00226 1.71719,-0.18459 2.41217,-0.64734c0.69177,-0.4606 1.76617,0.0424 2.51584,-0.38866c0.69965,-0.4023 0.43448,-1.78206 1.23734,-1.96268c0.87674,-0.19724 1.82379,0.01057 2.59866,-0.42667c0.72623,-0.40979 1.75378,-0.25227 2.47867,-0.79599c0.64301,-0.48232 1.32132,-0.77867 2.22116,-0.77867c0.87482,0 1.74438,-0.04784 2.42102,-0.5c0.74512,-0.49794 1.77698,-0.34067 2.42645,-0.85266c0.61462,-0.48456 1.37433,-0.45244 2.25134,-0.64867c0.80707,-0.18057 1.22742,-1.07625 1.82666,-1.57333c0.61499,-0.51012 1.65662,-0.03647 2.5387,-0.42534c0.61975,-0.27322 1.06641,-0.83157 1.93597,-1.02083c0.84625,-0.18419 1.59985,-0.85783 2.37866,-1.2005l0.47852,-0.72151" id="svg_9" stroke-width="2" stroke="#000" fill="none"/>
  <path t="39832,40007,40016,40031,40048,40048,40055,40063,40071,40071,40079,40095,40095,40103,40104,40112,40127,40136,40136,40143,40144,40153,40159,40175,40192,40199,40207,40215,40224,40224,40231,40239,40247,40255,40264,40271,40279,40287,40295,40303,40320,40320,40327,40336,40336,40344,40353,40359,40369,40383,40399,40399,40408,40424,40440,40456,40463,40471,40471,40487,40495,40511,40527,40536,40536,40543,40553,40560,40569,40569,40576,40592,40600,40608,40616,40632,40641,40641,40648,40664,40674,40674,40680,40691,40691,40696,40708,40712,40720,40720,40720,40728,40736,40744,40744,40753,40753,40760,40776,40786,40786,40792,40801,40809,40816,40824,40832,40832,40841,40848,40856,40864,40864,40874,40874,40880,40880,40891,40896,40896,40908,40908,40912,40920,40928,40928,40936,40936,40944,40944,40953,40953,40960,40969,40969,40976,40986,40992,41000,41000,41009,41017,41033,41040,41056,41056,41080,41088,41088,41109,41112,41112,41124,41128,41141,41144,41152,41160,41160,41169,41185,41186,41193,41193,41207,41207,41209,41224,41232,41248,41264,41274,41279,41296,41296,41312,41312,41320,41328,41339,41340,41343,41356,41359,41376,41376,41385,41385,41392,41392,41402,41416,41424,41432,41433,41440,41448,41461,41464,41477,41480,41496,41496,41513,41513,41528,41544,41544,41562,41562,41568,41585,41586,41595,41595,41602,41611,41616,41632,41648,41648,41661,41664,41678,41678,41680,41696,41696,41710,41712,41720,41720,41728,41739,41744,41744,41761,41761,41763,41763,41768,41785,41785,41795,41802,41802,41812,41828,41828,41831,41831,41845,41848,41851,41852,41856,41856,41865,41865,41879,41879,41882,41895,41898,41904,41904,41913,41928,41928,41931,41936,41945,41961,41961,41963,41969,41976,41992,42012,42012,42032,42032,42049,42056,42072,42072,42094,42111,42115,42136,42152,42152,42160,42168,42168,42178,42185,42195,42202,42202,42211,42218,42219,42233,42240,42240,42250,42263,42266,42281,42297,42297,42311,42315,42328,42360,42360,42376,42385,42395,42411,42418,42418,42428,42428,42435,42440,42441,42448,42448,42462,42462,42465,42465,42481,42481,42488,42489,42497,42504,42513,42513,42527,42527,42530,42544,42544,42547,42568,42583,42583,42588,42603,42608,42619,42635,42640,42648,42662,42665,42665,42672,42680,42688,42696,42704,42712,42713,42720,42720,42728,42728,42744,42746,42752,42752,42760,42779,42800,42808,42839,42864,42864,42872,42880,42892,42909,42919,42920,42937,42944,42944,42959,42976,42979,42979,42993,42993,43000,43008,43016,43016,43024,43033,43034,43051,43051,43062,43064,43086,43092,43112,43112,43125,43145,43170,43176,43176,43184,43192,43202,43234,43234,43240,43250,43264,43265,43265,43273,43273,43283,43283,43288,43289,43300,43300,43303,43311,43311,43319,43330,43351" d="m162.51137,281.09091c1.81467,0 2.84111,0.09897 3.64667,-0.03601c0.86127,-0.14432 1.67062,-0.72629 2.59616,-0.90683c0.84319,-0.16449 1.75804,-0.01996 2.55717,-0.05716c0.91763,-0.04272 1.41484,-0.93625 2.172,-0.99866c1.02538,-0.0845 1.84174,0.23499 2.66367,-0.22269c0.83177,-0.46317 1.53236,-0.94189 2.18967,-1.20398c1.0101,-0.40277 1.76399,-0.56387 2.67467,-0.57468c0.88933,-0.01053 1.37704,-0.71698 2.11067,-0.98935c0.83424,-0.30972 1.73557,-0.53244 2.48933,-0.88931c0.85406,-0.40436 1.43767,-0.88251 2.39999,-1.10049c0.87799,-0.19888 1.82169,0.17404 2.69867,-0.02219c0.80704,-0.18057 1.16161,-1.04636 1.82666,-1.57333c0.62622,-0.49622 1.57468,-0.42532 2.4955,-0.42532c0.80051,0 1.6579,0.08597 2.59384,-0.00134c0.89674,-0.08365 1.53793,-0.79883 2.38533,-0.97781c0.8808,-0.18604 1.8,-0.02084 2.69867,-0.02084c0.968,0 1.83958,0.17355 2.60133,-0.08533c0.88792,-0.30176 1.59946,-0.89667 2.5,-0.91467c0.89981,-0.01801 1.8,0 2.7,0c0.8,0 1.71738,-0.02789 2.47917,-0.5c0.76077,-0.47147 1.6221,-0.45221 2.52083,-0.5c0.80341,-0.04272 1.58197,-0.61298 2.39999,-0.97467c0.78447,-0.34683 1.59071,-0.91278 2.40001,-1.02399c0.83701,-0.11499 1.35431,-0.9176 2.2,-1.00134c0.91154,-0.09024 1.76616,0.03531 2.5,-0.52084c0.77657,-0.58853 1.26651,-1.32443 2.10001,-1.46851c0.90742,-0.15686 1.88399,-0.00919 2.57466,-0.01065c1.06816,-0.00226 1.8849,-0.28497 2.52533,-0.64734c0.82079,-0.46442 1.3653,-1.1423 2.172,-1.31665c1.10312,-0.2384 1.93471,0.05316 2.64267,-0.12134c0.88828,-0.21893 1.68385,-0.87198 2.65201,-0.91467c0.83252,-0.03671 1.66666,0 2.52882,0c0.94734,0 1.84676,0.0318 2.78717,-0.00134c0.80891,-0.0285 1.44156,-0.57281 2.12801,-1.02399c0.73947,-0.48602 1.5863,-0.93195 2.48933,-0.97467c0.89899,-0.04251 1.65717,0 2.54816,0c1.01851,0 1.91415,0.04691 2.67317,-0.2215c0.88423,-0.31265 1.60739,-0.95728 2.30399,-1.3425c0.81168,-0.44885 1.72202,-0.43375 2.62201,-0.436c0.91934,-0.00229 1.75266,0 2.73117,0c0.82016,0 1.72998,0.09866 2.54233,-0.02084c0.98782,-0.14529 1.6333,-0.61691 2.59518,-0.89517c0.75516,-0.21848 1.70868,-0.5408 2.28848,-0.73132c0.97803,-0.3214 1.94574,-0.24149 2.83835,-0.35716c0.8768,-0.11363 1.672,-0.5062 2.39999,-1.04817c0.67929,-0.50572 1.37781,-0.9369 2.33566,-0.94733c0.8201,-0.00891 1.72156,0.01041 2.62149,0c0.90018,-0.01042 1.60947,-0.52718 2.5,-0.87849c0.66071,-0.26065 1.6701,-0.14201 2.55267,-0.47417c0.70624,-0.26579 1.59332,-0.61874 2.51401,-0.64734c0.8121,-0.02522 1.8125,0 2.63467,0c0.89865,0 1.86618,0.07733 2.59866,-0.436c0.79001,-0.55365 1.2525,-1.36179 2.12082,-1.54317c0.94437,-0.19727 1.70758,0.02075 2.67902,-0.24216c0.79892,-0.21622 1.62421,-0.67322 2.49567,-0.77417c0.89938,-0.10419 1.6275,-0.58026 2.40433,-0.883c0.87473,-0.34088 1.49704,-0.72461 2.30017,-1.09618c0.88593,-0.40988 1.60468,-0.84308 2.35715,-1.078c0.90152,-0.28145 1.55795,-0.72774 2.60684,-0.91133c0.82431,-0.14429 1.67264,-0.36212 2.436,-0.752c0.75287,-0.38454 1.70642,-0.18607 2.61066,-0.29466c0.92807,-0.11145 1.564,-0.56274 2.56799,-0.868c0.75903,-0.23077 1.66025,-0.50882 2.36868,-0.76868c0.99969,-0.3667 1.85266,-0.35266 2.75266,-0.35266c0.89999,0 1.70001,0 2.60001,0c0.89999,0 1.79999,0 2.70001,0c0.89999,0 1.82327,0.09637 2.76666,-0.16667c0.68164,-0.19006 1.69232,-0.58475 2.42267,-0.85866c0.85089,-0.31912 1.3259,-1.088 2.04666,-1.53867c0.77808,-0.4865 1.71512,-0.35754 2.61133,-0.44051c0.92957,-0.08604 1.73251,-0.5511 2.586,-0.82883c0.74173,-0.24136 1.4921,-0.74258 2.36533,-1.08134c0.84061,-0.3261 1.40741,-0.78558 2.28534,-1c0.84235,-0.20572 1.92743,0.02025 2.716,-0.36932c0.87006,-0.42984 1.51169,-0.59915 2.436,-0.752c0.87167,-0.14415 1.50244,-0.66373 2.47867,-0.87868c0.96588,-0.21268 1.88531,-0.08533 2.68533,-0.08533c0.89999,0 1.73752,0.03406 2.68533,-0.284c0.74081,-0.24858 1.71024,-0.63657 2.49384,-0.69518c0.99677,-0.07455 1.83945,0.39249 2.66367,-0.078c0.81323,-0.4642 1.24384,-0.94215 2.1825,-0.94283c1.008,-0.00072 1.77444,-0.01469 2.58533,-0.42534c0.76639,-0.38812 1.58917,-0.56424 2.56784,-0.57466c0.8201,-0.00873 1.78339,0.03612 2.52148,-0.52083c0.6658,-0.5024 1.22543,-1.229 1.98535,-1.67784c0.69928,-0.41302 1.71024,-0.72189 2.49384,-0.7805c0.99677,-0.07455 1.85397,0.17545 2.72083,-0.078c0.87762,-0.25661 1.64706,-0.77924 2.39999,-1.16415c0.76321,-0.39017 1.53595,-0.77333 2.384,-0.77867c0.86331,-0.00543 1.78168,0.20625 2.71466,-0.00133c0.81125,-0.1805 1.36765,-0.95197 2.15317,-0.99417c1.01074,-0.05432 1.99625,0.21159 2.591,-0.35716c0.53015,-0.50696 1.24564,-0.95033 1.81433,-1.35184c0.87653,-0.61882 1.55914,-1.05542 2.48569,-1.23834c0.84277,-0.1664 1.75714,-0.05716 2.55716,-0.05716c0.89999,0 1.79999,0 2.76401,0c0.88266,0 1.75732,0.0006 2.61066,0c0.94,-0.00067 1.77908,-0.24213 2.52533,-0.64734c0.76111,-0.41328 1.70413,-0.27097 2.60449,-0.35716c0.87332,-0.0836 1.67657,-0.49164 2.5275,-0.9115c0.73901,-0.36464 1.48938,-0.84836 2.41534,-1.02684c0.90448,-0.17433 1.83377,0.14099 2.58334,-0.34116c0.76569,-0.49251 1.46933,-0.716 2.37067,-0.716c0.96533,0 1.66284,0.31201 2.62933,-0.00133c0.80997,-0.26259 1.51639,-0.83508 2.26932,-1.22c0.76321,-0.39017 1.6001,-0.76601 2.5,-0.77867c0.90015,-0.01266 1.64282,-0.48561 2.56668,-0.83333c0.63046,-0.2373 1.67249,-0.32321 2.38666,-0.74133c0.70724,-0.41406 1.50916,-0.42534 2.44583,-0.42534c1.03149,0 1.74963,0.02972 2.65802,-0.0045c0.74863,-0.02821 1.73535,-0.30093 2.54282,-0.57016c0.99139,-0.33055 1.82468,-0.27541 2.7785,-0.64667c0.65762,-0.25597 1.5213,-0.76817 2.43216,-0.77867c0.91061,-0.0105 1.80219,0.08569 2.56784,-0.22133c0.77411,-0.31041 1.54214,-0.76825 2.50549,-0.77867c0.86328,-0.00934 1.76181,0.12085 2.73752,-0.00017c0.89899,-0.1115 1.59668,-0.44795 2.3425,-1.02516c0.62555,-0.48413 1.27182,-0.7784 2.13599,-1.03185c0.87741,-0.25732 1.59863,-0.91423 2.5,-0.94283c0.89954,-0.02853 1.80038,0.02538 2.60001,0c0.90137,-0.02859 1.67114,-0.52574 2.14734,-1.2955c0.40308,-0.65157 1.35715,-0.7045 2.21933,-0.7045c0.83331,0 1.81198,0 2.586,0c0.89999,0 1.78287,0.17331 2.7265,-0.02083c0.86722,-0.17841 1.61548,-0.89461 2.32083,-0.97784c0.89569,-0.1057 1.62234,-0.68753 2.5,-0.94417c0.86557,-0.25311 1.80127,-0.00937 2.69998,-0.05716c0.80341,-0.04272 1.5372,-0.74686 2.40002,-0.964c0.86911,-0.21872 1.8215,-0.036 2.70016,-0.036c0.78516,0 1.72516,0 2.73315,0c0.75601,0 1.66666,0.00008 2.57733,0c0.91068,-0.00009 1.8111,0.10706 2.56766,-0.22133c0.81271,-0.35277 1.54251,-0.77867 2.43234,-0.77867c0.91068,0 1.76401,0 2.70401,0c0.88531,0 1.65543,-0.02051 2.53799,-0.35266c0.70624,-0.26579 1.71082,-0.62933 2.64282,-0.64734c0.92584,-0.01788 1.8045,0 2.7045,0c0.80002,0 1.53793,-0.26239 2.16934,-0.716c0.72382,-0.51999 1.80917,-0.284 2.62933,-0.284c0.90134,0 1.64966,-0.24205 2.28531,-0.716c0.76886,-0.57326 1.74847,-0.09491 2.61603,-0.34117c0.77472,-0.21992 1.44366,-0.98535 2.13599,-1.33215c0.74353,-0.37245 1.76282,-0.57748 2.56403,-0.60617c0.99805,-0.03572 1.81708,0.11073 2.716,-0.28984c0.69623,-0.31026 1.51471,-1.05814 2.23132,-1.3575c0.87274,-0.36459 1.75269,-0.57849 2.45264,-1.07317l0.80005,-0.27333l0.89996,-0.01067l0.90002,0" id="svg_10" stroke-width="2" stroke="#000" fill="none"/>
  <path t="44847,44943,44951,44959,44967,44967,44975,44975,44983,44983,44991,44991,44999,44999,45007,45007,45015,45015,45023,45023,45023,45031,45039,45039,45049,45049,45055,45055,45063,45071,45081,45087,45097,45119,45119,45127,45127,45135,45152,45159,45159,45167,45176,45176,45184,45184,45200,45208,45216,45216,45224,45232,45248,45248,45256,45256,45264,45271,45287,45297,45304,45311,45320,45328,45336,45343,45343,45352,45359,45368,45368,45375,45399,45400,45415,45415,45424,45424,45424,45432,45440,45448,45448,45455,45472,45480,45488,45496,45497,45503,45514,45520,45528,45528,45536,45544,45552,45560,45560,45576,45585,45586,45592,45592,45600,45607,45608,45616,45616,45624,45632,45639,45648,45648,45656,45664,45680,45680,45688,45697,45697,45704,45720,45728,45737,45737,45752,45752,45759,45768,45769,45776,45776,45784,45791,45800,45808,45816,45816,45824,45824,45835,45835,45848,45848,45856,45869,45869,45871,45880,45897,45904,45920,45936,45944,45953,45960,45984,45992,45992,46007,46024,46040,46040,46052,46068,46069,46082,46082,46088,46096,46104,46120,46136,46144,46160,46175,46184,46192,46208,46219,46240,46240,46248,46256,46256,46269,46272,46280,46288,46303,46303,46305,46319,46319,46322,46322,46336,46338,46347,46352,46363,46368,46384,46392,46408,46424,46424,46440,46440,46456,46456,46464,46485,46488,46488,46496,46513,46530,46530,46544,46544,46553,46553,46560,46568,46576,46592,46602,46602,46607,46618,46624,46624,46624,46632,46640,46640,46651,46657,46673,46677,46677,46681,46688,46688,46696,46697,46704,46728,46728,46743,46760,46776,46791,46808,46824,46848,46856,46872,46889,46889,46898,46904,46930,46936,46937,46937,46946,46956,46962,46962,46968,46980,46984,46984,46996,47013,47016,47040,47040,47043,47058,47064,47112,47137,47168,47168,47199,47208,47239,47248,47264,47272,47273,47289,47296,47304,47321,47321,47329,47339,47346,47346,47352,47352,47362,47368,47368,47390,47393,47400,47408,47416,47440,47466,47484,47489,47489,47506,47512,47537,47555,47562,47576,47584,47593,47611,47616,47616,47628,47632,47656,47659,47674,47674,47679,47679,47682,47708,47712,47713,47723,47724,47729,47737,47745,47745,47752,47762,47768,47778,47784,47795,47805,47812,47816,47832,47832,47840,47840,47857,47857,47873,47873,47877,47881,47896,47913,47913,47923,47924,47941,47947,47963,47973,47994,48016,48025,48041,48057,48073,48080,48080,48096,48107,48107,48123,48126,48131,48136,48146,48146,48152,48162,48173,48173,48178,48179,48184,48195,48200,48212,48212,48222,48228,48239,48245,48256,48279,48288,48312,48328" d="m163.51137,291.09091c1.8,0 2.70845,0.09851 3.52083,-0.02084c0.98915,-0.14532 1.66766,-0.6387 2.679,-0.85767c0.76802,-0.16629 1.6335,-0.12149 2.55284,-0.12149c0.9045,0 1.65182,0 2.64732,0c0.8,0 1.79984,0.00006 2.57918,0c0.99966,-0.00009 1.83719,-0.03116 2.78883,-0.284c0.73761,-0.19598 1.46376,-0.43298 2.57066,-0.69067c0.82784,-0.19272 1.63969,-0.58557 2.49466,-0.85867c0.77631,-0.24796 1.64139,-0.47375 2.34134,-0.74133c1.05534,-0.40344 1.92972,-0.33664 2.82533,-0.42532c0.84569,-0.08374 1.28497,-0.90515 2.16667,-1c0.72089,-0.07755 1.72328,-0.3317 2.26399,-0.80133c0.8143,-0.70724 1.46721,-1.03891 2.40266,-1.36533c0.68622,-0.23944 1.52435,-0.65509 2.36801,-1.11868c0.61012,-0.33527 1.42566,-1.05249 2.08882,-1.35748c0.90623,-0.41678 1.86412,-0.17389 2.70984,-0.52383c0.78462,-0.32468 1.51775,-0.79535 2.3045,-1.186c0.88412,-0.439 1.52034,-0.62933 2.52882,-0.64734c0.86203,-0.01538 1.78606,0.16608 2.66667,-0.02084c0.84314,-0.17899 1.50053,-0.9433 2.30133,-0.97916c0.89958,-0.04028 1.72049,-0.46323 2.49417,-0.94733c0.71147,-0.44516 1.28645,-0.90973 2.05634,-1.10535c0.91118,-0.23154 1.79871,-0.70004 2.64816,-1.11398c0.65227,-0.31787 1.47899,-0.82291 2.33333,-0.83334c0.88794,-0.01083 1.86931,0.04736 2.66667,-0.02084c1.0069,-0.08612 1.77757,-0.43576 2.51466,-0.69516c0.83749,-0.29474 1.59253,-0.73697 2.48534,-1.11734c0.75154,-0.32019 1.72264,-0.15341 2.436,-0.59198c0.77289,-0.47516 1.664,-0.57468 2.564,-0.57468c0.8,0 1.72649,0.18375 2.60001,-0.03601c0.86281,-0.21704 1.61172,-0.84229 2.28532,-1.048c0.94685,-0.28918 1.76814,-0.83218 2.56134,-0.91599c0.86983,-0.09189 1.728,0 2.66933,0c1.05067,0 1.70988,0.03336 2.71733,0c0.86359,-0.02859 1.54823,-0.47726 2.33334,-1c0.63689,-0.42404 1.65619,-0.89767 2.42265,-0.98935c0.90477,-0.10822 1.61397,-0.55386 2.51067,-0.88916c0.85062,-0.31808 1.68719,-0.22928 2.39999,-0.62149c0.89548,-0.49271 1.82135,-0.5 2.5,-0.5c0.97852,0 2.0004,0.02536 2.80002,0c0.90137,-0.02859 1.55032,-0.51746 2.39999,-0.91602c0.86057,-0.40369 1.52692,-0.8472 2.45267,-1.02682c0.8493,-0.16479 1.72223,-0.03735 2.66867,-0.05731c0.85388,-0.01801 1.74747,-0.36685 2.47733,-0.71585c0.76382,-0.36523 1.70132,-0.28177 2.60135,-0.284c0.90448,-0.00226 1.76666,-0.16666 2.59998,-0.5c0.83334,-0.33334 1.62531,-0.49466 2.64819,-0.5c0.7825,-0.00406 1.79465,0.00055 2.53714,0c0.92935,-0.00067 1.76843,-0.24213 2.51468,-0.64734c0.76111,-0.41327 1.70001,-0.35266 2.60001,-0.35266c0.89999,0 1.79999,0 2.69998,0c0.94736,0 1.82657,0.40912 2.64285,-0.05716c0.81311,-0.46445 1.39542,-0.76929 2.15717,-1.02817c0.88791,-0.30176 1.61014,-0.89667 2.52133,-0.91467c0.67853,-0.0134 1.79333,0 2.67865,0c0.75717,0 1.65274,0.00955 2.51602,0c0.9425,-0.01044 1.42062,-0.77481 2.18851,-0.99551c0.86066,-0.24738 1.79547,-0.00449 2.6955,-0.00449c0.89999,0 1.79999,0 2.69983,0c0.92551,0 1.80396,0.34351 2.61484,-0.08533c0.85809,-0.4538 1.30597,-0.90424 2.26382,-0.91467c1.02142,-0.01111 1.8215,0 2.7215,0c0.89999,0 1.81299,0.14209 2.70001,-0.01068c0.83313,-0.14348 1.39825,-0.71034 2.35715,-1.04199c0.89389,-0.30917 1.60901,-0.62372 2.35751,-1.146c0.70264,-0.49028 1.58542,-0.78867 2.48532,-0.80133c0.90015,-0.01266 1.6149,-0.50983 2.39999,-0.83333c0.86084,-0.35472 1.70346,-0.22574 2.5,-0.66667c0.80344,-0.44476 1.66669,-0.5 2.5,-0.5c0.97867,0 1.75269,0 2.65268,0c0.86334,0 1.86322,0.05847 2.64734,-0.35266c0.84793,-0.44458 1.47592,-0.77293 2.29999,-1.222c0.78967,-0.43033 1.72641,-0.36122 2.61069,-0.46133c1,-0.11322 1.55841,-0.4455 2.62265,-0.79733c0.79218,-0.26189 1.2695,-0.84808 1.96802,-1.25067c0.78571,-0.45284 1.38367,-1.36417 2.19864,-1.74933c0.64966,-0.30704 1.63983,-0.13043 2.41068,-0.60268c0.80429,-0.49274 1.43353,-0.93304 2.10535,-1.364c0.87436,-0.56088 1.50128,-1.40834 2.18399,-1.84283c0.73212,-0.46594 1.70816,-0.24068 2.60001,-0.36166c0.82132,-0.11142 1.49155,-0.7354 2.336,-1.02083c0.84027,-0.28401 1.56729,-0.54189 2.47867,-1.17334c0.60104,-0.41643 1.43423,-0.71977 2.36798,-1.08667c0.68152,-0.26779 1.18256,-1.29045 1.95334,-1.67867c0.76849,-0.38705 1.37085,-0.70653 2.08484,-1.01517c0.80722,-0.34895 1.77917,-0.02083 2.67917,-0.02083c0.89999,0 1.8425,0.18576 2.60001,-0.08533c0.90109,-0.32246 1.22119,-1.35822 2.07901,-1.79317c0.70862,-0.3593 1.64182,-0.11804 2.35431,-0.12151c1.0947,-0.00534 1.87387,-0.45296 2.76666,-0.83333c0.75156,-0.32021 1.69705,-0.22961 2.41068,-0.59201c0.9068,-0.46051 1.72794,-0.56932 2.63751,-0.57466c0.95178,-0.00558 1.57657,-0.39479 2.28516,-0.83333c0.73651,-0.45583 1.91022,0.07088 2.58267,-0.45067c0.62656,-0.48595 1.284,-0.716 2.18399,-0.716c0.89999,0 1.89169,0.5995 2.73334,0c0.55789,-0.39738 0.71423,-1.44615 1.452,-1.91467c0.69147,-0.43912 1.71466,-0.08533 2.51468,-0.08533c0.89999,0 1.79999,0 2.72083,0c0.96317,0 1.65384,0.00011 2.72202,0c0.85715,-0.00009 1.75644,-0.16768 2.39316,-0.61067c0.84705,-0.58934 1.50104,-1.07861 2.47867,-1.304c0.8667,-0.1998 1.68533,-0.08533 2.58533,-0.08533c0.89999,0 1.85455,0.2962 2.68933,-0.01067c0.71933,-0.26442 1.04666,-0.98933 1.91068,-0.98933c0.90134,0 1.87714,0.11082 2.67917,-0.02083c0.87949,-0.14436 1.37668,-0.95058 2.32083,-0.97917c0.89957,-0.02724 1.92664,0.25862 2.57867,-0.22133c0.69827,-0.51398 0.93228,-1.45074 1.66299,-1.75784c0.86893,-0.36519 1.80566,-0.0202 2.70117,-0.02083c0.95581,-0.00067 1.49777,-0.61108 2.20383,-0.964c0.78317,-0.39146 1.7641,-0.02261 2.75299,-0.03616c0.75888,-0.01039 1.31952,-0.58365 2.02185,-0.99983c0.75592,-0.44794 1.67264,-0.06125 2.43115,-0.35266c0.87439,-0.33592 1.76855,-0.6925 2.36816,-1.14734c0.65256,-0.49498 1.49652,-0.49228 2.56851,-0.5c0.81073,-0.00583 1.56348,-0.56606 2.358,-0.94284c0.69189,-0.32813 1.49835,-0.59923 2,-1.35266c0.45892,-0.68925 1.35715,-0.7045 2.37415,-0.7045c0.69934,0 1.681,0.05315 2.46783,-0.01067c1.05215,-0.08533 1.68512,-0.5482 2.53183,-1.08917c0.64005,-0.40894 1.60172,-0.70183 2.38336,-0.95734c0.76169,-0.24899 1.43494,-0.99365 2.29547,-1.422c0.81061,-0.40349 1.58929,-0.51549 2.5,-0.52083c0.89999,-0.00526 1.80002,0 2.70001,0c0.89984,0 1.82535,0 2.60135,0c0.89865,0 1.58582,-0.3145 2.36533,-0.83333c0.70743,-0.47087 1.64377,-0.06624 2.46933,-0.20267c0.8717,-0.14406 1.68127,-0.72629 2.60684,-0.90685c0.84302,-0.16446 1.79483,0.03157 2.51883,-0.11433c0.9202,-0.18544 1.55286,-0.72656 2.60233,-0.90683c0.92758,-0.15933 1.80777,0.03763 2.63599,-0.05682c0.9924,-0.11317 1.52771,-0.74033 2.5,-0.95834c0.87845,-0.19698 1.85007,0.11084 2.60001,-0.24216c0.77554,-0.36505 1.60001,-0.77641 2.5,-0.77867c0.89999,-0.00224 1.80002,0.00067 2.70001,0c0.89865,-0.00067 1.616,-0.284 2.13599,-0.964l0.8595,-0.036" id="svg_11" stroke-width="2" stroke="#000" fill="none"/>
  <path t="51303,51374,51383,51391,51399,51399,51406,51414,51431,51442,51442,51477,51481,51488,51506,51506,51519,51528,51560,51599,51624,51640,51675" d="m552.51135,177.09091c-1.70001,0 -2.58295,-0.10492 -3.1098,-0.7045c-0.67078,-0.76331 -1.56116,-0.97673 -1.86884,-1.89551c-0.28607,-0.85435 -0.36383,-1.71382 -1.02136,-2.39999c-0.55182,-0.57585 -1,-1.35716 -1,-2.2c0,-0.90001 0,-1.8 0,-2.60001c0,-0.89999 0,-1.8 0,-2.7c0,-0.89999 0,-1.8 -0.00134,-2.69867l-0.35583,-0.74417" id="svg_12" stroke-width="2" stroke="#000" fill="none"/>
  <path t="52615,52655,52671,52687,52695,52695,52705,52735,52743,52783,52935,52943,52951,52951,52967,52975,52983,52992,53015,53055" d="m536.51135,171.09091c-1,-0.7045 -0.99994,-1.60001 -1,-2.41068c-0.00006,-0.91049 0.02759,-1.76639 -0.5,-2.5685c-0.43903,-0.66745 -0.5,-1.52083 -0.5,-2.42082c0,-0.88651 0,-0.55833 0,0.37849c0,0.82016 0,1.7215 0,2.62151c0,0.89999 0,1.79999 0,2.7l0,0.89999" id="svg_13" stroke-width="2" stroke="#000" fill="none"/>
  <path t="53672,53743,53752,53759,53767,53775,53783,53791,53815,53831,53831" d="m526.51135,167.09091c0,1.8 0,2.7 0,3.60001c0,0.89999 0,1.79999 0,2.7c0,0.89999 0,1.8 0,2.7l0,0.8" id="svg_14" stroke-width="2" stroke="#000" fill="none"/>
  <path t="54399,54463,54471,54479,54487,54495,54504,54512,54519,54527,54536,54543" d="m511.51135,167.09091c0,1.8 -0.08304,2.67401 0.5,3.47917c0.4931,0.68095 1.30988,1.1792 1.48932,2.12083c0.16852,0.88414 0.01068,1.79999 0.01068,2.7l0.00134,0.89867l0.28265,0.71733" id="svg_15" stroke-width="2" stroke="#000" fill="none"/>
  <path t="55168,55207,55215,55223,55223,55231,55240,55248,55255,55264,55264,55273,55280,55288" d="m495.51135,174.09091c1.22134,0.87866 1.84729,1.40439 2.28403,2.2c0.35577,0.64812 0.69241,1.50029 0.71597,2.40001c0.02304,0.87985 0.88617,0.96413 1.66669,1.56667c0.56647,0.4373 0.33331,1.53333 0.3905,2.47617l0.64734,0.40984" id="svg_16" stroke-width="2" stroke="#000" fill="none"/>
  <path t="56881,56912,56920,56928,56936,56944,56960,56972,56976,56976,56992,57001,57008,57018,57024,57034,57057,57081,57104,57128,57137,57144,57168,57177,57177,57192,57208,57218,57224,57234,57280,57288,57288,57305,57312,57321,57337,57343,57343,57353,57359,57383,57399,57415,57439,57439,57455,57479,57487,57511,57520,57537,57554,57559,57583,57601,57616,57624,57633,57656,57679,57687,57695,57703,57720,57727,57743,57767,57791,57799,57815,57823,57847,57879,57903" d="m500.51135,206.09091c0.88669,-0.99867 2.03879,-0.57593 2.75702,-1.22133c0.61154,-0.54951 0.79059,-1.52356 1.64301,-1.74268c0.87253,-0.22429 1.73834,-0.42207 2.39999,-0.752c0.84335,-0.42055 1.6008,-0.48421 2.284,-1c0.61536,-0.46457 1.73856,0.12718 2.55881,-0.34117c0.81317,-0.46432 1.3324,-0.91159 2.23584,-0.94283c0.82733,-0.02861 1.5437,-0.6862 2.42133,-0.94284c0.8656,-0.25313 1.83411,0.08932 2.5,-0.14249c0.88568,-0.30833 1.59949,-0.89601 2.5,-0.91467c0.8985,-0.01863 1.41241,-0.5433 1.98535,-1.00133c0.65912,-0.52693 1.5423,-0.64838 2.41467,-1.05135c0.71606,-0.33076 0.9201,-1.44016 1.66168,-1.89017c0.82172,-0.49866 1.84601,0.02477 2.57697,-0.4825c0.66016,-0.45815 1.49762,-0.32693 2.35687,-0.57916c0.77203,-0.22662 0.96356,-1.21912 1.5058,-1.7955c0.66766,-0.70967 1.49731,-1.17133 2.39868,-1.2c0.89941,-0.02861 1.47034,-0.54666 2.15717,-0.94284c0.81458,-0.46986 1.51746,-0.59784 2.1637,-1.05716c0.69708,-0.49545 1.70892,-0.67094 2.35779,-1.22133c0.66119,-0.56084 0.91187,-1.3232 1.47852,-2.07417c0.50482,-0.66905 1.32129,-0.98975 1.92682,-1.6205c0.54999,-0.57288 1.44147,-0.95796 1.70532,-1.69467c0.29285,-0.8177 0.01001,-1.82533 0.01068,-2.68933c0.00067,-0.89867 0.35266,-1.64732 0.96399,-2.136l0.03601,-0.96399l0,-0.90001" id="svg_17" stroke-width="2" stroke="#000" fill="none"/>
  <path t="58440,58503,58503,58520,58535,58559,58567,58567,58583,58615,58639,58671,58687" d="m523.51135,183.09091c1,0 1.83441,0.19595 2.70001,-0.05717c0.87762,-0.25664 1.67596,-0.72729 2.39984,-1.16432c0.72345,-0.4368 0.95282,-1.42134 1.77881,-1.7785l0.82587,-0.05717l0.77466,-0.46365l0.46368,-0.77917" id="svg_18" stroke-width="2" stroke="#000" fill="none"/>
  <path t="59360,59415,59424,59456,59504,59512,59536,59536,59584" d="m500.51135,194.09091c0.05719,-1.7 0.68704,-2.42172 0.94284,-3.2955c0.26068,-0.89038 0.05716,-1.8045 0.05716,-2.7045l0,-0.8l0,-0.89999" id="svg_19" stroke-width="2" stroke="#000" fill="none"/>
  <path t="62193,62281,62313,62329,62353,62377,62393,62401,62425,62425,62440,62457,62457,62473,62489,62489,62500,62504,62517,62534,62545,62545,62562,62562,62569,62569,62579,62586,62595,62601,62618,62618,62624,62633,62650,62668,62668,62684,62684,62688,62704,62717,62734,62737,62737,62750,62762,62768,62778,62785,62795,62795,62801,62817,62824,62840,62857,62868,62883,62904,62929,62929,62937,62953,62969,62986,62986,62993,63008,63041,63049,63056,63073,63084,63097,63097,63105,63105,63117,63135,63135,63137,63152,63169,63185,63185,63201,63209,63220,63220,63235,63240,63240,63250,63250,63272,63283,63296,63296,63304,63304,63311,63319,63333,63333,63335,63343,63351,63351,63360,63383,63383,63384,63384,63384,63403,63403,63403,63408,63408,63408,63415,63415,63415,63424,63424,63424,63444,63447,63451,63471,63471,63488,63488,63488,63493,63493,63510,63510,63514,63515,63533,63553,63553,63559,63569,63569,63585,63594,63594,63609,63614,63624,63649,63649,63650,63650,63655,63675,63675,63677,63677,63679,63679,63687,63707,63707,63711,63726,63727,63731,63731,63746,63746,63750,63759,63759,63769,63770,63775,63783,63783,63791,63809,63815,63815,63824,63831,63839,63855,63857,63883,63884,63889,63895,63895,63926,63926,63927,63940,63940,63951,63970,63983,63983,63999,63999,64015,64023,64032,64047,64063,64086,64086,64088,64107,64119,64127,64135,64145,64146,64159,64167,64184,64191,64191,64199,64207,64223,64231,64231,64241,64241,64247,64255,64275,64276,64277,64287,64287,64307,64309,64311,64319,64340,64344,64351,64351,64360,64360,64376,64376,64377,64377,64377,64384,64403,64403,64404,64409,64415,64415,64415,64424,64431,64431,64452,64453,64456,64471,64471,64473,64496,64496,64502,64503,64503,64511,64511,64511,64520,64535,64543,64551,64559,64559,64568,64576,64576,64585,64585,64593,64602,64602,64609,64615,64625,64626,64631,64631,64639,64639,64647,64647,64670,64670,64672,64684,64684,64684,64687,64687,64687,64687,64702,64703,64703,64718,64719,64719,64732,64732,64735,64735,64750,64751,64759,64759,64775,64775,64779,64783,64783,64783,64791,64800,64801,64807,64807,64815,64823,64823,64831,64831,64840,64840,64854,64855,64855,64860,64860,64863,64871,64871,64894,64894,64896,64896,64903,64903,64903,64914,64922,64928,64929,64935,64935,64943,64951,64951,64959,64959,64959,64983,64987,65003,65003,65004,65010,65011,65011,65011,65025,65025,65030,65030,65032,65040,65049,65064,65065,65069,65081,65083,65083,65087,65097,65097,65113,65113,65119,65128,65129,65135,65135,65143,65143,65153,65153,65167,65168,65173,65187,65187,65193,65207,65208,65212,65213,65213,65215,65215,65223,65223,65235,65235,65239,65257,65257,65258,65263,65263,65274,65275,65279,65287,65287,65308,65309,65310,65315,65319,65327,65336,65337,65351,65351,65359,65359,65367,65377,65383,65399,65407,65424,65431,65431,65439,65448,65448,65462,65463,65474,65479,65489,65495,65504,65512,65513,65522,65537,65537,65543,65543,65563,65578,65579,65592,65592,65613,65615,65615,65631,65632,65647,65647,65657,65658,65669,65686,65688,65688,65702,65703,65717,65718,65719,65727,65735,65750,65750,65752,65767,65768,65768,65775,65783,65783,65791,65791,65800,65808,65808,65824,65824,65841,65841,65850,65850,65867,65867,65872,65872,65884,65884,65888,65903,65911,65934,65935,65943,65951,65951,65959,65967,65967,65983,65999,66001,66008,66008,66015,66033,66040,66050,66058,66058,66063,66074,66084,66087,66095,66095,66103,66119,66119,66134,66135,66135,66144,66151,66151,66167,66169,66183,66184,66185,66193,66216,66224,66231,66242,66242,66247,66255,66255,66271,66279,66295,66295,66305,66305,66318,66319,66327,66335,66351,66367,66368,66368,66380,66400,66407,66408,66424,66424,66440,66440,66447,66457,66466,66473,66483,66499,66499,66504,66504,66514,66514,66519,66526,66535,66543,66558,66567,66568,66583,66584,66592,66593,66599,66608,66608,66633,66634,66641,66641,66657,66663,66674,66674,66679,66690,66698,66698,66703,66711,66733,66749,66750,66759,66759,66782,66783,66784,66785,66790,66799,66807,66815,66824,66824,66831,66840,66847,66847,66862,66863,66871,66884,66887,66903,66914,66920,66920,66926,66935,66951,66960,66960,66983,66998,66998,67007,67023,67040,67048,67056,67073,67074,67079,67079,67089,67101,67103,67110,67111,67120,67134,67142,67172,67175,67202,67215,67215,67215,67223,67247,67257,67258,67271,67287,67307,67323,67328,67351,67351,67383,67407,67415,67439,67447,67471,67487,67504,67559,67583,67594,67602,67616,67633,67640,67655,67687,67727,67752" d="m225.51137,253.09091c0,-1.83333 0,-2.61067 0,-3.5c0,-0.89999 0.00008,-1.8 0,-2.7c-0.00009,-0.90001 -0.12654,-1.83189 -0.61067,-2.40001c-0.63516,-0.74535 -1.14943,-1.54636 -1.47333,-2.2c-0.42128,-0.85017 -1.45982,-0.91545 -2.20616,-1.25267c-0.80762,-0.3649 -0.66318,-1.50993 -1.32051,-1.97266c-0.72758,-0.51216 -1.52663,-1.04233 -1.98933,-1.61067c-0.65584,-0.80557 -0.94904,-1.57271 -1.5,-2.3425c-0.45943,-0.64191 -1.13297,-1.41788 -1.89999,-1.85483c-0.77986,-0.44426 -1.27007,-0.94034 -2.10001,-1.388c-0.64764,-0.34933 -1.31902,-0.94218 -1.98399,-1.49467c-0.58202,-0.48357 -1.59137,-0.59906 -2.26334,-0.98849c-0.93045,-0.53925 -1.37582,-1.18335 -2.15266,-1.77467c-0.73447,-0.55907 -1.30972,-1.04721 -1.78534,-1.7195c-0.55202,-0.78026 -1.62566,-0.43636 -2.3575,-0.85851c-0.81111,-0.46786 -1.51118,-0.62015 -2.23582,-1.16415c-0.64374,-0.48328 -1.158,-1.1048 -1.92134,-1.49467c-0.75288,-0.38454 -1.71571,-0.12689 -2.59999,-0.29466c-0.94592,-0.17946 -1.58826,-0.90562 -2.47867,-0.98933c-0.8222,-0.07729 -1.75734,0 -2.60533,0c-0.86334,0 -1.75883,0 -2.716,0c-0.90001,0 -1.8,0 -2.60001,0c-0.89999,0 -1.92284,-0.34135 -2.7,0.02083c-0.75725,0.35291 -1.33241,0.79483 -2.2,1.03633c-0.77107,0.21465 -1.61635,0.8642 -2.3,0.92201c-0.97525,0.08247 -1.85434,0.02974 -2.60001,0.6315c-0.76453,0.61699 -1.17802,1.21204 -1.87917,1.8685c-0.66989,0.6272 -1.41542,0.90306 -2.35416,1.52083c-0.67177,0.44209 -1.37131,0.87506 -2.26668,1.00017c-0.90646,0.12665 -1.57794,0.70369 -2.42082,0.99983c-0.78363,0.27531 -1.68794,0.55859 -2.4575,1.09984c-0.60443,0.42511 -1.38736,0.77805 -2.32167,0.90466c-0.82152,0.11133 -1.43535,0.71822 -2.35266,0.94283c-0.84901,0.20789 -1.62546,0.66988 -2.54733,0.96735c-0.86038,0.27763 -1.57628,0.21175 -2.40001,0.65999c-0.78993,0.42986 -1.72133,0.42534 -2.57466,0.42534c-0.94,0 -1.82533,0 -2.69684,0c-0.8925,0 -1.80449,0 -2.4525,0c-1.17599,0 -2,0 -2.728,0c-1.00133,0 -1.63466,0 -2.64717,0c-0.9675,0 -1.791,0 -2.74899,0c-0.97301,0 -1.76649,0 -2.54201,0c-1.03783,0 -2.03065,0 -2.87115,0c-0.972,0 -1.80003,-0.00645 -2.68134,0.00017c-0.70807,0.00531 -1.71703,0.00032 -2.652,0.35249c-0.63453,0.23901 -1.57153,0.58768 -2.30534,0.62651c-1.16522,0.06166 -1.95834,0.02083 -2.91067,0.02083c-0.91067,0 -1.764,0 -2.704,0c-0.88533,0 -1.73553,-0.01346 -2.38533,-0.52083c-0.76802,-0.59969 -1.26834,-1.3302 -2.2,-1.47467c-0.85381,-0.1324 -1.2505,-0.69211 -2.01433,-0.94734c-0.84421,-0.28209 -1.89333,0.02995 -2.6285,-0.11433c-0.92953,-0.18243 -1.64471,-0.85294 -2.41433,-0.93832c-0.89455,-0.09926 -1.86738,-0.01341 -2.64017,-0.28984c-0.92487,-0.33083 -1.42518,-1.17575 -1.888,-1.91466c-0.42008,-0.67067 -1.11466,-1.20001 -1.81467,-1.90001c-0.6,-0.59999 -1.1685,-1.24516 -1.78534,-1.7c-0.89294,-0.65843 -1.64957,-0.85722 -2.59383,-1.2c-0.84534,-0.30685 -1.39303,-0.82217 -2.1735,-1.3c-0.68365,-0.41855 -1.49583,-1.16252 -2.34734,-1.53333c-0.74897,-0.32616 -1.7,-0.16611 -2.52084,-0.16667c-0.96183,-0.00067 -1.75107,-0.08376 -2.49384,-0.57466c-0.67413,-0.44554 -1.58534,-0.41994 -2.48533,-0.42534c-0.88938,-0.00534 -1.32832,-0.62617 -1.85717,-1.2955c-0.58542,-0.74092 -1.64283,-0.7045 -2.39999,-0.7045c-0.8955,0 -1.75883,0 -2.74284,0c-0.984,0 -1.67467,0 -2.74284,0c-0.85716,0 -1.75716,0 -2.51433,0c-0.8955,0 -1.75883,0 -2.722,0c-0.92084,0 -1.82084,0 -2.72084,0c-0.89999,0 -1.8,0 -2.6,0c-0.9,0 -1.84283,0 -2.72083,0c-0.87917,0 -1.8358,-0.13655 -2.67916,0.284c-0.66164,0.32993 -1.52686,0.53003 -2.4,0.752c-0.86228,0.21921 -1.61172,0.84227 -2.28533,1.048c-0.94686,0.28918 -1.81864,0.70349 -2.47183,1.27316c-0.68515,0.59753 -1.2211,1.26546 -1.84283,1.84151c-0.58049,0.53784 -1.56131,0.76224 -2.3,1.32216c-0.66459,0.50375 -1.2,1.17917 -1.9,1.87917c-0.6,0.60001 -1.29838,1.00552 -2.07917,1.60001c-0.65184,0.49631 -0.97692,1.3819 -1.43683,2.19867c-0.39499,0.70148 -1.38123,0.57639 -2.084,1.13466c-0.65617,0.52124 -0.81133,1.50566 -1.02533,2.29201c-0.23593,0.86691 -0.57973,1.58812 -1.07467,2.57449c-0.29665,0.5912 -0.7392,1.28925 -1.28933,2.17484c-0.47911,0.77127 -0.20268,1.90781 -0.96783,2.511c-0.66735,0.52609 -1.49772,0.61072 -1.6175,1.39034c-0.13345,0.86864 -0.75268,1.70049 -0.96817,2.43384c-0.2282,0.7766 -0.05486,1.76933 -0.05717,2.69016c-0.00225,0.90002 -0.36856,1.74739 -0.716,2.40001c-0.41889,0.78683 -0.66607,1.84091 -0.93134,2.54733c-0.333,0.88681 -0.30001,1.82225 -0.3735,2.67349c-0.08515,0.98631 -0.44002,1.75526 -0.69517,2.49385c-0.2889,0.8363 -0.284,1.78531 -0.284,2.68533c0,0.89999 0,1.79999 0,2.59998c0,0.95718 0,1.85718 0,2.60452c0,0.99414 0.0922,1.76379 -0.0045,2.84283c-0.08332,0.92978 -0.55116,1.51511 -0.874,2.50983c-0.24613,0.75836 -0.43589,1.71671 -0.69617,2.45349c-0.34467,0.97568 -0.41492,1.76831 -0.42533,2.62268c-0.01121,0.91925 0,1.82382 0,2.57117c0,0.99283 0,1.88116 0,2.71817c0,1.0173 0,1.61066 0,2.63815c0,1.07251 0,1.75116 0,2.67667c0,0.7905 0,1.90115 0,2.72916c0,0.8125 0,1.83334 0,2.70535c0,0.73065 0,1.728 0,2.52798c0,0.99866 0,1.76401 0,2.85184c0,0.7175 0,1.75351 0,2.4975c0,1.10767 0,1.82935 0,2.79233c0,1.00101 0,1.70901 0,2.453c0,1.03467 0,2.00534 0,2.76251c0,0.89551 0,1.75882 0,2.74283c0,0.98532 0,1.71066 0,2.69983c0,0.77933 0,1.77899 0,2.61002c0,0.95947 0,1.711 0,2.50748c0,0.996 0,1.836 0,2.93002c0,0.91931 0,1.75266 0,2.586c0,0.91931 0,1.82831 0,2.62833c0,0.9595 0,1.75299 0,2.5285c0,1.03781 -0.03979,1.99652 0.01067,2.88184c0.04179,0.73328 0.36448,1.715 0.63667,2.47083c0.32241,0.89526 0.35267,1.82382 0.35267,2.67801c0,0.97916 -0.01256,1.76862 0,2.49384c0.018,1.03912 0.73392,1.68842 0.916,2.62531c0.11375,0.5853 0.10189,1.62512 0.25067,2.69336c0.09518,0.68344 0.34206,1.62286 0.48067,2.20499c0.24677,1.03641 0.28959,1.92175 0.35283,2.94016c0.05111,0.82303 0.74463,1.55923 0.96383,2.42151c0.22197,0.87314 0.34433,1.65134 0.68333,2.35718c0.4064,0.84619 0.28894,1.93057 0.574,2.68567c0.29041,0.76929 0.64299,1.67813 0.77867,2.55716c0.12477,0.80841 0.87551,1.37762 1.51733,1.79999c0.86685,0.57047 1.48299,1.19968 2.08266,1.80002c0.60033,0.60098 1.18869,1.29294 1.7045,2.04816c0.44305,0.64868 1.26236,1.00595 1.98566,1.45718c0.72263,0.45081 0.64345,1.49503 1.23067,2.37381c0.47173,0.70596 1.17917,1.22086 1.87917,1.92084c0.60001,0.60001 1.12084,1.12085 1.92133,1.92133c0.50401,0.504 1.026,1.026 1.79333,1.79333c0.58084,0.58084 1.296,1.29602 1.77067,1.77069c0.76283,0.76282 1.25296,1.25369 2.00933,2.00931c0.67568,0.67502 1.12323,1.15442 1.708,1.62268c0.96062,0.76923 1.57479,1.11588 2.597,1.36133c0.91387,0.21945 1.58053,0.57855 2.24317,1.22134c0.50452,0.48941 1.49733,1.05515 2.1465,1.46399c0.76092,0.47922 1.23899,1.06219 1.76783,1.73151c0.58543,0.74094 1.68171,0.55341 2.4,0.81882c0.8037,0.29697 1.32819,1.17612 2.22134,1.64267c0.6685,0.34921 1.72408,-0.15518 2.58549,0.27902c0.69888,0.35226 1.19766,0.96173 2.08417,0.96399c1.0185,0.00256 1.77898,0.25641 2.53717,0.57468c0.91244,0.38303 1.81507,0.39996 2.61466,0.42532c0.90136,0.02859 1.62237,0.68619 2.5,0.94284c0.86556,0.25311 1.80438,-0.03152 2.7,0.05716c0.8457,0.08374 1.32325,0.90543 2.18533,0.98932c0.92504,0.09003 1.84578,0.13812 2.41467,0.62134c0.74883,0.63608 1.27551,1.14258 2.22533,1.36401c0.99933,0.23297 1.62768,0.65106 2.49583,0.90384c0.79208,0.23062 1.8455,0.12149 2.779,0.12149c0.78516,0 1.73583,0 2.50117,0c0.99866,0 1.79867,0 2.79733,0c0.76534,0 1.716,0 2.70133,0c0.9,0 1.7,0 2.6,0c0.82084,0 1.784,0 2.64734,0c0.8955,0 1.85266,0 2.75266,0c0.9,0 1.7,0 2.6,0c0.82084,0 1.784,0.00217 2.64734,0c0.9,-0.00226 1.83697,-0.12701 2.478,-0.436c1.0405,-0.50153 1.43903,-1.16376 2.376,-1.47867c0.9186,-0.30875 1.79867,-0.08533 2.632,-0.08533c0.91933,0 1.83009,0.05283 2.57117,-0.05716c1.00867,-0.14972 1.75472,-0.53107 2.71149,-0.86017c0.76434,-0.26291 1.52414,-0.80316 2.05867,-1.23199c0.78607,-0.63065 1.60513,-0.96402 2.38933,-1.42535c0.77573,-0.45636 1.70531,-0.23645 2.53601,-0.64682c0.69058,-0.34116 1.29079,-1.18784 1.89999,-1.7785c0.59122,-0.57321 1.62984,-0.93924 1.94733,-1.70532c0.2831,-0.68307 0.61304,-1.50098 1.274,-2.17334c0.60956,-0.62009 1.1161,-1.15231 1.49467,-1.92133c0.42284,-0.85892 0.12172,-1.82947 0.30482,-2.70001c0.17912,-0.85162 0.86588,-1.65814 0.94318,-2.31467c0.11888,-1.00964 -0.14449,-1.91565 0.07199,-2.78534c0.21722,-0.87268 0.7485,-1.57822 0.964,-2.37915c0.23332,-0.86719 1.24763,-1.11783 1.71466,-1.82217c0.49216,-0.74225 0.45644,-1.7518 0.98984,-2.48883c0.49564,-0.68488 1.04192,-1.33148 1.34816,-2.00452c0.39754,-0.87369 0.9091,-1.47086 1.46817,-2.20532c0.59018,-0.77536 0.92868,-1.44202 1.47467,-2.14282c0.4487,-0.57593 1.51387,-0.72308 1.9205,-1.55719c0.36737,-0.75357 0.74701,-1.35236 1.3795,-2.09998c0.63942,-0.7558 0.8192,-1.48196 1.27916,-2.30002c0.44072,-0.78384 0.86066,-1.51132 1.61067,-2c0.78549,-0.51178 1.49503,-0.81363 2.29384,-1.39999c0.6391,-0.46915 1.35518,-0.5769 2.16367,-1.05716c0.65871,-0.39127 0.84749,-1.47385 1.55716,-2.14151c0.57639,-0.54227 1.39996,-0.79535 2.32083,-0.80133c0.96315,-0.00626 1.69298,0.08157 2.59517,-0.284c0.81667,-0.33093 1.70869,-0.6969 2.40001,-0.71466c1.07297,-0.02759 1.91582,-0.07324 2.50932,-0.57602c0.6337,-0.53683 1.44635,-1.0545 2.29601,-1.30383c0.82568,-0.24228 1.81004,-0.03238 2.56267,-0.20682c0.97501,-0.22598 1.60802,-0.74396 2.59517,-0.89383c0.90039,-0.13669 1.3947,-0.74655 2.1315,-1.01019c0.85701,-0.30664 1.87332,-0.01065 2.564,-0.01065c1.06816,0 1.92534,0 2.82533,0c0.8,0 1.636,0 2.64816,0c0.7825,0 1.7849,-0.24258 2.37267,-0.5c0.94325,-0.41312 1.77802,-0.48199 2.67917,-0.5c0.93651,-0.01871 1.77676,-0.30182 2.47467,-0.57468c0.93097,-0.36398 1.92534,-0.42532 2.82533,-0.42532c0.8,0 1.7,0 2.60001,0c0.92082,0 1.7215,0.00006 2.61066,0c0.98917,-0.00009 1.8223,0.15912 2.76784,-0.2215c0.67186,-0.27045 1.26154,-1.18228 1.90683,-1.49316c0.86938,-0.41885 1.77582,-0.59131 2.39867,-1.20135c0.61922,-0.60651 1.28255,-1.03314 2.06784,-1.0795c1.01051,-0.05966 1.78273,-0.39871 2.64816,-0.83783c0.67538,-0.34268 1.05461,-1.27676 1.61067,-1.73065c0.75284,-0.6145 1.50121,-0.91541 2.03667,-1.48868c0.64001,-0.68521 1.14314,-1.29153 1.57416,-2.04733c0.38158,-0.6691 1.22089,-1.26575 1.65717,-1.99982c0.46588,-0.78391 1.24736,-1.09103 1.82133,-1.60468c0.73532,-0.65802 1.33859,-1.47183 1.90001,-1.8595c0.80754,-0.55762 1.39336,-1.06369 1.82533,-1.836c0.45757,-0.81808 0.94246,-1.35162 1.6745,-1.82169c0.64438,-0.41376 0.75116,-1.45187 0.98416,-2.29431c0.24368,-0.88107 0.87329,-1.681 0.916,-2.58401c0.04253,-0.89899 0.10608,-1.68811 0.5,-2.39999c0.49025,-0.88596 0.48045,-1.8002 0.5,-2.69867c0.01801,-0.82724 0.67065,-1.4559 0.87849,-2.34399c0.16252,-0.6944 0.12083,-1.68933 0.12151,-2.64301c0.00064,-0.91434 0,-1.81433 0,-2.61432c0,-0.90002 -0.00194,-1.81961 0.42534,-2.60001c0.45038,-0.82257 0.57466,-1.70001 0.57466,-2.60001c0,-0.79999 0,-1.70001 0,-2.60001c0,-0.89999 -0.01067,-1.78934 -0.5,-2.39999c-0.48933,-0.61066 -0.5,-1.5 -0.5,-2.47916c0,-0.87802 0.14978,-1.73343 -0.00017,-2.62067c-0.144,-0.85205 -0.98119,-1.33563 -0.99983,-2.20016c-0.01938,-0.89847 -0.35266,-1.64734 -0.964,-2.13602l-0.036,-0.86398l0,-0.90002" id="svg_20" stroke-width="2" stroke="#000" fill="none"/>
  <path t="68760,68911,68919,68928,68937,68944,68954,68954,68968,68976,68984,69000,69008,69016,69024,69032,69040,69056,69056,69064,69064,69072,69072,69080,69096,69104,69112,69121,69137,69154,69154,69168,69168,69184,69208,69216,69240,69256,69272,69296,69304,69328,69368,69376,69424,69456,69480,69480,69520,69544,69560,69584,69601,69656,69680,69688,69704,69720,69728,69728,69736,69753,69760,69770,69776,69792,69808,69808,69816,69816,69824,69848,69856,69864,69872,69880,69888,69888,69896,69904,69920,69920,69936,69953,69969,69969,69984,69984,70000,70000,70008,70016,70024,70040,70048,70048,70080,70104,70104,70128,70168,70176,70264,70296,70328,70336,70360,70384,70416,70416,70432,70432,70464,70504,70544,70584,70664" d="m87.51137,281.09091c0,0.88666 0.2997,1.94403 -0.22134,2.75717c-0.47023,0.73386 -0.77866,1.34283 -0.77866,2.24283c0,0.79999 0,1.70001 0,2.60001c0,0.89999 -0.32224,1.8576 0.01067,2.78934c0.2633,0.73691 0.984,1.22125 0.98933,2.11066c0.00546,0.91064 0,1.8215 0,2.52084c0,0.97916 -0.13052,1.9985 0.16666,2.8125c0.30068,0.82355 1.28008,1.18616 1.71184,2.04532c0.37482,0.74585 0.29239,1.56433 0.76883,2.23117c0.47408,0.66354 0.35267,1.72351 0.35267,2.5155c0,1.02734 0,1.72198 0,2.73868c0,0.93597 -0.36418,2.013 0.16666,2.63599c0.51923,0.60934 0.83334,1.20001 0.83334,2.10001c0,0.89999 0.41762,1.45444 0.8785,2.12149c0.50404,0.72952 0.40241,1.73578 1.28816,1.7785c0.83237,0.04013 1.63333,0 2.53333,0c0.9,0 1.80002,0.00485 2.7,0c0.98938,-0.00534 1.58958,-0.52066 1.6,-1.39999c0.01067,-0.89993 0,-1.80002 0,-2.70001c0,-0.89999 0,-1.69998 0,-2.60001c0,-0.89999 0,-1.79999 0,-2.69998c0,-0.89999 0,-1.80133 0,-2.76666c0,-0.65869 0,-1.66669 0,-2.52884c0,-0.8685 0,-1.82535 0,-2.7045c0,-0.89999 0,-1.80002 0,-2.70001c0,-0.89999 0,-1.69998 0,-2.60001c0,-0.82083 0,-1.78265 0,-2.59015c0,-0.99518 0.13991,-1.95267 -0.16666,-2.70984c-0.33659,-0.8313 -0.80079,-1.65582 -0.82883,-2.40451c-0.03722,-0.9935 -0.0045,-1.75949 -0.0045,-2.71014c0,-0.98535 0.00215,-1.88535 0,-2.71869c-0.00225,-0.87198 -0.33447,-1.41116 -0.83334,-2.33331c-0.40437,-0.74747 0.2989,-1.81287 -0.252,-2.548c-0.46191,-0.61639 -1.47374,-0.49506 -2.136,-1.164c-0.61,-0.61615 -1.24404,-1.34186 -2.07417,-1.11685c-0.77664,0.21051 -1.04692,1.30933 -1.7045,1.99551c-0.48925,0.51053 -1.10796,1.33084 -1.8,1.71466c-0.82449,0.45728 -1.8,0.28534 -2.7,0.28534l-0.9,0l-0.9,0" id="svg_21" stroke-width="2" stroke="#000" fill="none"/>
  <path t="71488,71591,71591,71600,71607,71607,71618,71624,71624,71632,71632,71640,71648,71648,71656,71664,71664,71664,71672,71672,71680,71688,71688,71695,71696,71704,71712,71720,71728,71736,71736,71744,71744,71760,71768,71776,71784,71784,71792,71808,71817,71824,71840,71848,71856,71864,71880,71896,71904,71920,71936,71952,71952,71960,71968,71968,71984,72008,72032,72048,72064,72072,72072,72095,72112,72128,72144,72152,72160,72168,72184,72192,72208,72224,72248,72280" d="m93.51137,280.09091c1,0 1.8,0.00241 2.75716,0c0.89551,-0.00226 1.63301,0.04459 2.60683,-0.42532c0.7787,-0.37576 1.45033,-0.57242 2.40266,-0.57468c0.94667,-0.00223 1.86917,0 2.80267,0c0.78249,0 1.70116,0.09479 2.59733,-0.16666c0.8877,-0.25894 1.42827,-0.64777 2.42883,-1.12885c0.74271,-0.35709 1.65051,-0.6759 2.57117,-0.7045c0.83293,-0.02588 1.81184,0 2.632,0c0.90133,0 1.80133,0 2.70133,0c0.8045,0 1.82561,0.05795 2.5,-0.02084c0.99208,-0.11591 1.70882,-0.59607 2.6,-1.00449c0.8131,-0.37265 1.49388,-0.91379 2.4,-0.97467c0.79819,-0.05362 1.72649,0.18372 2.6,-0.03601c0.86282,-0.21704 1.61671,-0.77158 2.49984,-0.96414c0.84427,-0.18411 1.25587,-0.97125 2.10016,-0.99985c0.89932,-0.03046 1.82533,0 2.60133,0c0.89867,0 1.83513,0.0267 2.68266,-0.00134c0.86467,-0.02859 1.6749,-0.5228 2.61601,-0.87717c0.66467,-0.25027 1.59999,-0.17865 2.39999,-0.62149c0.8,-0.44284 1.7,-0.5 2.60001,-0.5c0.89999,0 1.7,0 2.59999,0c0.90001,0 1.8,0 2.7,0c0.90001,0 1.8,0 2.69984,0c0.90016,0 1.70149,0 2.60016,0l0.90001,0l0.89999,0l0.89999,0" id="svg_22" stroke-width="2" stroke="#000" fill="none"/>
  <path t="72976,73039,73048,73055,73065,73065,73072,73072,73072,73080,73088,73088,73095,73104,73104,73112,73112,73112,73120,73120,73128,73128,73136,73144,73152,73160,73173,73173,73173,73176,73188,73192,73192,73206,73206,73206,73224,73224,73233,73233,73249,73249,73256,73256,73266,73272,73281,73288,73289,73296,73304,73304,73312,73323,73328,73336,73344,73354,73354,73372,73384,73400,73408,73408,73422,73423,73424,73424,73432,73441,73441,73449,73466,73472,73472,73480,73480,73491,73491,73496,73496,73504,73523,73523,73528,73544,73560,73560" d="m91.51137,295.09091c2.58933,0 3.50643,0.0979 4.41067,-0.01068c0.92822,-0.11145 1.58614,-0.57068 2.58933,-0.82266c0.77596,-0.19489 1.51466,-0.16599 2.5,-0.16666c0.984,-0.00067 1.67467,0 2.74733,0c0.91933,0 1.83093,0.12427 2.58601,-0.33334c0.64699,-0.39209 1.08155,-1.25226 2.172,-1.55234c0.72291,-0.19894 1.66133,-0.11432 2.57333,-0.11432c0.92133,0 1.82133,0.00067 2.72133,0c0.90134,-0.00067 1.86984,-0.15872 2.52534,-0.42532c0.69413,-0.28232 1.66124,-0.46396 2.58533,-0.58536c0.92695,-0.1218 1.61223,-0.50598 2.58933,-0.98932c0.59225,-0.29297 1.39983,-0.85599 2.443,-1c0.77101,-0.10645 1.75683,0.00006 2.53616,0c0.9995,-0.00009 1.78671,-0.01965 2.6735,-0.35266c0.70642,-0.26526 1.58888,-0.61865 2.54733,-0.64734c0.89961,-0.02692 1.76518,-0.2233 2.40001,-0.57468c0.87994,-0.48706 1.75093,-0.23981 2.53867,-0.46133c0.92422,-0.25989 1.472,-0.9534 2.36133,-0.96399c0.89999,-0.01074 1.60719,-0.45297 2.5,-0.83334c0.75154,-0.32019 1.7,-0.16666 2.60001,-0.16666c0.92082,0 1.73013,0.09146 2.57466,-0.03601c0.96254,-0.14526 1.54794,-0.72708 2.478,-0.90683c0.84943,-0.16415 1.86711,-0.00961 2.6685,-0.2785c0.84433,-0.28329 1.68237,-0.70514 2.54016,-0.78934c0.97972,-0.09616 1.6096,-0.55377 2.46001,-1.08914c0.65796,-0.41422 1.50101,-0.80698 2.304,-0.88953c1.022,-0.10504 1.722,-0.01065 2.728,-0.01065c0.98,0 1.79601,-0.03601 2.58533,-0.42532l0.60301,-0.55383l0.94232,-0.02084l0.69067,0" id="svg_23" stroke-width="2" stroke="#000" fill="none"/>
  <path t="74368,74471,74480,74480,74488,74488,74497,74497,74504,74504,74512,74520,74520,74520,74528,74528,74536,74536,74536,74543,74543,74552,74552,74560,74560,74568,74568,74575,74575,74575,74584,74591,74591,74600,74608,74608,74616,74624,74624,74632,74632,74639,74648,74648,74656,74664,74672,74672,74681,74688,74697,74704,74720,74728,74736,74744,74744,74752,74759,74768,74768,74776,74784,74792,74800,74808,74816,74832,74848,74871,74880,74888,74888,74912,74928,74937,74944,74952,74960,74968,74992,75007,75024,75040" d="m95.51137,305.09091c1.75716,0 2.65717,0 3.4045,0c0.9955,0 1.79549,0 2.79533,0c0.77934,0 1.77885,0.01691 2.59884,0c0.87389,-0.01801 1.75388,-0.19156 2.70133,-0.52084c0.74046,-0.25735 1.48377,-0.77505 2.30534,-1.12198c0.92219,-0.3894 1.72635,-0.26685 2.42667,-0.52652c1.0294,-0.38171 1.41485,-1.30472 2.25333,-1.66c0.85932,-0.36414 1.91467,-0.17059 2.71467,-0.17065c1,-0.00009 1.81541,0.061 2.8,-0.16666c0.60916,-0.14084 1.35379,-0.52148 2.24284,-1.12885c0.76688,-0.5239 1.55716,-0.702 2.39317,-0.7045c1.01667,-0.00305 1.73866,0.01578 2.61133,-0.35266c0.95572,-0.4035 1.75247,-0.6369 2.586,-0.64734c0.86211,-0.01077 1.82176,0.02173 2.64934,-0.284c0.83061,-0.30685 1.50877,-0.93307 2.27901,-1.36334c0.81703,-0.45639 1.59103,-0.53635 2.2865,-1c0.6915,-0.461 1.67831,-0.16891 2.55183,-0.38867c0.86281,-0.21704 1.60463,-0.83905 2.5,-0.96414c0.90646,-0.12665 1.43716,-0.74686 2.29999,-0.96384c0.8779,-0.22076 1.93274,0.06772 2.57918,-0.05685c0.95203,-0.18347 1.45638,-0.95874 2.42082,-0.97916c0.89532,-0.01895 1.40686,-0.6705 2.12083,-0.97916c0.80722,-0.34897 1.77467,-0.02075 2.70067,-0.02084c0.87851,-0.00009 1.73227,-0.24213 2.4785,-0.64734c0.76112,-0.4133 1.7,-0.35199 2.60001,-0.35266c0.89867,-0.00067 1.51091,-0.48993 2.136,-0.97467c0.74199,-0.57538 1.51132,-0.96817 2.26849,-1.02533l0.89551,-0.03601l0.79999,-0.38931" id="svg_24" stroke-width="2" stroke="#000" fill="none"/>
  <path t="75735,75807,75807,75815,75815,75839,75839,75847,75855,75855,75871,75871,75880,75888,75888,75896,75904,75912,75920,75929,75937,75937,75945,75952,75952,75960,75976,75984,75992,76007,76024,76032,76048,76056,76072,76080,76088,76112,76112,76120,76129,76146,76152,76152,76160,76168,76176,76184,76192,76192,76200,76208,76223,76232,76240,76248,76256,76256,76264,76272,76280,76288,76288,76303,76303,76312,76320,76329,76329,76336,76345,76360,76360,76376,76384,76384,76392,76407,76424,76432,76440,76448,76448,76464,76464,76480,76480,76496" d="m88.51137,290.09091c1.836,-0.96399 2.60133,-0.99933 3.591,-1c0.83833,-0.00058 1.83614,-0.25641 2.59434,-0.57468c0.91244,-0.38303 1.81467,-0.42532 2.57183,-0.42532c0.8955,0 1.76696,0.10706 2.74284,-0.02084c0.83829,-0.10986 1.64499,-0.64856 2.47833,-0.85767c0.91724,-0.23016 1.46291,-0.80795 2.32166,-1.06433c0.86413,-0.258 1.80017,-0.05716 2.58533,-0.05716c0.94,0 1.94801,0 2.81017,0c0.8045,0 1.76213,0.3222 2.69384,-0.01068c0.7369,-0.26331 1.22128,-0.98398 2.11066,-0.98932c0.89999,-0.0054 1.8,0 2.7,0c0.9,0 1.91437,0.28647 2.63334,-0.16666c0.70502,-0.44431 1.36626,-0.67218 2.28,-0.83469c0.83659,-0.1488 1.16398,-0.84067 1.98666,-1.22c0.66824,-0.30811 1.5,-0.76801 2.4,-0.77866c0.9,-0.01068 1.6118,-0.44232 2.5,-0.83334c0.65764,-0.28952 1.60001,-0.16666 2.5,-0.16666c0.89999,0 1.8,0.00006 2.7,0c0.90001,-0.00009 1.75377,-0.24213 2.5,-0.64734c0.76112,-0.4133 1.71048,-0.22012 2.60001,-0.35715c0.93268,-0.14368 1.43535,-0.71823 2.35266,-0.94284c0.84901,-0.20789 1.66577,-0.56555 2.54733,-0.96869c0.8643,-0.39526 1.51297,-0.70181 2.40001,-1.10931c0.81276,-0.37338 1.49335,-0.91251 2.28532,-0.97333c0.93724,-0.07196 1.948,-0.00134 2.70399,-0.00134c0.97467,0 1.8905,0.08408 2.71068,-0.35266c0.74951,-0.39911 1.32471,-1.04211 2.03333,-1.48068c0.73653,-0.45584 1.78267,-0.168 2.55067,-0.25198l0.94133,-0.34l0.69067,-0.29068l0.94232,-0.26315" id="svg_25" stroke-width="2" stroke="#000" fill="none"/>
  <path t="80192,80375,80375,80391,80415,80423,80448,80464,80495,80535,80546,80567,80583,80591,80591,80607,80624,80655,80703,80743,80767,80791,80808,80823,80847,80847,80879,80911,80927,80951" d="m123.51137,333.09091c1,-1.16666 1.53558,-2.13089 2.47916,-1.95834c0.75071,0.13727 1.37508,1.00229 1.5195,1.75967c0.16833,0.88278 0.00673,1.79871 0.00134,2.69867c-0.00533,0.8894 -0.58604,1.3829 -1.3,1.85718c-0.79164,0.52585 -1.38947,1.06024 -2.17916,1.64282c-0.63799,0.47067 -1.22536,1.00836 -2.12083,1c-0.87937,-0.00821 -1.39413,-0.62726 -1.82533,-1.39999c-0.45699,-0.81894 -0.57467,-1.70001 -0.57467,-2.60001c0,-0.79999 0,-1.70001 0,-2.60001l0,-0.89999l0.01067,-0.88934" id="svg_26" stroke-width="2" stroke="#000" fill="none"/>
 </g>
 <g display="none">
  <title>muse_image</title>
  <image xlink:href="http://farm3.static.flickr.com/2331/1593675161_071f5a990f.jpg" id="muse" height="480" width="640" y="0" x="0"/>
 </g>
 <g display="none">
  <title>bbox</title>
  <rect stroke="#f00" fill="none" stroke-width="3" height="184.32" width="496.64" y="145.92" x="142.08" id="bbox"/>
 </g>
</svg>
