<svg width="640" height="480" xmlns="http://www.w3.org/2000/svg" xmlns:svg="http://www.w3.org/2000/svg" xmlns:xlink="http://www.w3.org/1999/xlink">
 <!-- Sketchy ANNOTATION
  ImageNet ID: n03272010_7092
  URL: http://farm4.static.flickr.com/3404/3304560819_7d3a8d9dc4.jpg
  Image Width: 375
  Image Height: 500
  BBox X: 141
  BBox Y: 11
  BBox Width: 150
  BBox Height: 483
  Exposure: 2000ms
  Synset Label: guitar
  Synset ID: n03467517
  Worker Tag: electric guitar on stand
  Sanity Check: 
   Saved
  Comment: 
   {}
  Worker ID: A1P7U2ULSAE7YL
  Assignment ID: 3IAEQB9FMEKSJVW3XFKFB0593C0WD9
  HIT ID: 39KMGHJ4RZA3P1WU2UYX0EH157K00R
  Work Time: 170s
  Worker Score: 0.7857
 END ANNOTATION -->
 <g display="inline">
  <title>Layer 1</title>
  <path t="0,196,197,229,252,253,260,276,301,333,349,349,373,397,405,421,437,445,448,460,500,508,533,548,564,565,573,589,597,613,628,644,661,684,685,692,702,717,724,740,757,773,796,796,812,813,821,829,836,853,869,877,877,885,909,940,964,980,1005,1020,1029,1029,1036,1044,1052,1061,1092,1093,1100,1108,1108,1124,1133,1140,1156,1164,1180,1196,1205,1205,1213,1228,1236,1245,1252,1253,1261,1268,1276,1285,1293,1302,1309,1318,1318,1333,1333,1340,1349,1365,1381,1389,1389,1405,1405,1420,1421,1429,1437,1445,1460,1476,1476,1478,1478,1500,1508,1518,1525,1533,1548,1556,1557,1573,1573,1581,1589,1589,1597,1605,1612,1612,1620,1636,1652,1668,1677,1685,1685,1701,1709,1718,1725,1725,1740,1757,1757,1773,1773,1780,1789,1796,1804,1813,1813,1821,1839,1844,1853,1860,1876,1876,1885,1892,1893,1901,1909,1909,1932,1941,1941,1949,1957,1957,1965,1973,1973,1980,1980,1989,1997,2005,2005,2012,2020,2021,2028,2029,2036,2036,2045,2054,2061,2061,2069,2069,2076,2077,2085,2092,2093,2101,2109,2117,2124,2125,2134,2134,2141,2149,2149,2157,2165,2173,2173,2180,2189,2197,2197,2205,2212,2220,2221,2229,2229,2237,2245,2254,2255,2261,2269,2269,2287,2288,2292,2293,2303,2308,2317,2325,2325,2340,2341,2351,2357,2364,2373,2389,2405,2412,2413,2420,2429,2444,2460,2461,2469,2476,2492,2501,2507,2524,2534,2540,2550,2551,2565,2573,2581,2596,2620,2636,2652,2661,2661,2684,2708,2724" d="m355.51135,113.09091c0,1 0,1.8 0,2.75716c0,0.8955 0,1.59017 0,2.60683c0,0.936 0,1.83467 0,2.80267c0,0.83334 0,1.63333 0,2.53333c0,0.9 0,1.8 0,2.7c0,0.89999 0,1.8 0,2.69984c0,0.92099 0.3385,1.93231 -0.08533,2.61617c-0.49545,0.79945 -0.91467,1.384 -0.91467,2.284c0,0.8 0,1.7 0,2.60001c0,0.89999 0,1.79999 0,2.7c0,0.89867 0,1.75267 0,2.7c0,0.8 0,1.7 0,2.60001c0,0.89999 0,1.79999 0,2.7c0,0.89999 0,1.8 0,2.7c0,0.75717 0,1.65266 0,2.51601c0,0.96317 0,1.88399 0,2.784c0,0.89999 0,1.8 0,2.7c0,0.8 0,1.7 0,2.564c0,0.87201 0,1.836 0,2.73601c0,0.89999 0,1.8 0,2.7c0,0.8 0,1.7 0,2.60001c0,0.89999 0,1.78932 0,2.73332c0,0.6875 0,1.78134 0,2.66667c0,0.8 0,1.7 0,2.60001c0,0.89999 0,1.79999 0,2.6955c0,0.87117 0,1.8045 0,2.7045c0,0.8 0,1.7 0,2.60001c0,0.89999 0,1.81065 0,2.72133c0,0.67867 0,1.79199 0,2.62599c0,0.854 -0.01041,1.75273 0,2.65268c0.01044,0.90018 0.49283,1.64017 0.83334,2.56667c0.23166,0.63028 0.16666,1.66666 0.16666,2.52882c0,0.90451 0,1.78368 0,2.66167c0,0.94284 0,1.84418 0,2.52817c0,0.95067 0,1.716 0,2.71017c0,0.91916 0,1.88367 0,2.80449c0,0.89551 0,1.76668 0,2.70016c0,0.78517 0,1.71451 0,2.65685c0,0.85367 0,1.743 0,2.64299c0,0.90001 0,1.8 0,2.70001c0,0.89999 0,1.65717 0,2.55266c0,0.86334 0,1.84734 0,2.66867c0,0.85333 0,1.79333 0,2.77867c0,0.89999 0,1.7 0,2.59999c0,0.90001 -0.14209,1.813 0.01068,2.7c0.14349,0.83315 0.90143,1.58632 0.98483,2.3c0.10446,0.89394 0.00449,1.8 0.00449,2.71066c0,0.91068 0,1.76401 0,2.70401c0,0.88533 0,1.77066 0,2.71066c0,0.69067 0,1.65384 0,2.57466c0,0.90001 -0.16275,1.85687 0.22134,2.70001c0.35535,0.78001 0.77332,1.49995 0.77866,2.39999c0.00531,0.89998 0,1.8 0,2.7c0,0.90016 0,1.68533 0,2.62534c0,1.00801 0,1.76399 0,2.69551c0,0.96182 0,1.76932 0,2.70065c0,0.87866 0,1.66385 0,2.60382c0,1.00803 0.01471,1.77444 0.42535,2.58536c0.38812,0.76639 0.56424,1.58917 0.57465,2.56781c0.00873,0.82013 0,1.72153 0,2.6575c0,0.84802 0,1.71133 0,2.60684c0,0.95984 0,1.72784 0,2.76251c0,0.74399 0,1.85165 0,2.57333c0,0.92133 0,1.832 0,2.74283c0,0.69934 0,1.87833 0,2.65765c0,0.85419 0,1.71634 0,2.65683c0,0.84802 0,1.71133 0,2.71735c0,0.81601 0,1.66751 0,2.62534c0,0.77399 0,1.67401 0,2.53732c0,0.98401 0,1.96802 0,2.65866c0,1.06818 0,1.92535 0,2.82535c0,0.79999 0,1.70001 0,2.63599c0,0.84802 0,1.71133 0,2.60684c0,0.9585 0,1.92383 0,2.75717c0,0.83334 0,1.6955 0,2.60001c0,0.92084 0,1.884 0,2.57465c0,1.06818 0,1.92569 0,2.63968c0,0.95367 0,1.935 0,2.85233c0,0.79169 0,1.73334 0,2.63333c0,0.90134 0,1.86667 0,2.70001c0,0.83334 0,1.6955 0,2.60001c0,0.89999 0,1.79999 0,2.6955c0,0.92599 0,1.8045 0,2.7045c0,0.79999 0,1.70001 0,2.60001c0,0.92084 0,1.884 0,2.57465c0,1.06818 0.04773,1.92642 0,2.82535c-0.04272,0.80472 -0.7807,1.48425 -1,2.35718c-0.20535,0.81744 0,1.74283 0,2.64282c0,0.79999 0,1.70001 0,2.60001c0,0.89999 0,1.78934 0,2.75717c0,0.84283 0,1.74283 0,2.64282c0,0.79999 0,1.70001 0,2.60001l0,0.89999" id="svg_1" stroke-width="2" stroke="#000" fill="none"/>
  <path t="4901,5060,5069,5085,5085,5092,5100,5108,5108,5116,5124,5132,5132,5140,5148,5164,5164,5172,5188,5188,5188,5197,5204,5204,5213,5213,5230,5230,5236,5244,5244,5251,5252,5260,5268,5285,5292,5316,5324,5332,5332,5348,5348,5356,5364,5372,5380,5380,5388,5397,5404,5413,5413,5420,5430,5436,5444,5444,5460,5468,5476,5485,5492,5492,5501,5508,5517,5517,5532,5532,5548,5556,5572,5572,5588,5588,5598,5598,5604,5613,5620,5636,5644,5652,5660,5660,5668,5676,5692,5701,5708,5717,5732,5732,5740,5740,5748,5756,5764,5772,5780,5788,5796,5804,5813,5820,5830,5830,5830,5836,5845,5845,5853,5853,5860,5868,5876,5884,5884,5884,5892,5892,5901,5901,5908,5917,5917,5932,5940,5948,5948,5956,5964,5964,5972,5981,5988,5988,5998,5998,6005,6013,6013,6020,6021,6029,6036,6036,6046,6046,6061,6069,6069,6076,6076,6085,6092,6092,6101,6101,6108,6118,6118,6124,6133,6133,6133,6140,6140,6149,6156,6156,6172,6183,6188,6189,6196,6196,6204,6204,6212,6213,6220,6221,6236,6236,6245,6246,6252,6260,6276,6276,6280,6281,6292,6300,6308,6308,6317,6317,6324,6324,6332,6340,6341,6349,6366,6366,6372,6373,6373,6380,6388,6399,6404,6405,6412,6420,6429,6429,6436,6445,6452,6462,6463,6468,6469,6476,6485,6508,6517,6524,6533,6540,6549,6549,6556,6565,6572,6581,6604,6620,6636,6645,6646,6662,6677,6692,6700,6724,6764,6772,7196,7205" d="m333.51135,117.09091c0,2.58933 0,3.47916 0,4.44283c0,0.7425 0,1.67183 0,2.65717c0,0.9 -0.19125,1.73308 0.05719,2.6c0.25693,0.89658 0.87177,1.61629 0.93216,2.47467c0.06589,0.9364 0.01065,1.81067 0.01065,2.68666c0,0.65601 0,1.6595 0,2.68134c0,0.70801 0,1.452 0,2.64751c0,0.9765 0,1.63516 0,2.64316c0,0.88 0.00412,1.73602 0,2.51851c-0.00534,1.01221 -0.392,1.79222 -0.71597,2.53349c-0.38522,0.88136 -0.28403,1.87167 -0.28403,2.72534c0,0.88933 0,1.78932 0,2.68483c0,0.92599 0,1.8045 0,2.7045c0,0.75717 0,1.65266 0,2.51601c0,0.96317 0,1.88399 0,2.7885c0,0.86217 0,1.67467 0,2.67467c0,0.82216 0,1.65683 0,2.67349c0,0.69467 0,1.71133 0,2.64734c0,0.89999 0,1.80016 0,2.58533c0,0.92934 0,1.87184 0,2.72534c0,0.91016 0,1.71066 0,2.564c0,0.94 0,1.92534 0,2.82533c0,0.75717 0,1.65266 0,2.51601c0,0.96317 0,1.89465 0,2.8055c0,0.69933 0,1.6785 0,2.46783c0,1.04399 0,1.90616 0,2.81067c0,0.89999 0,1.78932 0,2.68533c0,0.91466 0,1.81467 0,2.71466c0,0.8 0,1.7 0,2.60001c0,0.89999 0,1.79999 0,2.7c0,0.89999 0,1.80016 0,2.58533c0,0.94 0,1.63068 0,2.70399c0,0.91068 0,1.81067 0,2.71068c0,0.89999 0,1.8 0,2.7c0,0.87866 0,1.7045 0,2.54167c0,1.00099 0,1.709 0,2.45299c0,1.19101 0,2.1055 0,2.89067c0,0.94 0,1.63068 0,2.70399c0,0.91068 0,1.832 0,2.744c0,0.672 0,1.66133 0,2.69734c0,0.7175 0,1.62199 0,2.48534c0,0.98399 0,1.80516 0,2.62267c0,1.08282 0,1.96133 0,2.86133c0,0.8 0,1.636 0,2.65266c0,0.69467 0,1.71133 0,2.65184c0,0.86217 0,1.6955 0,2.674c0,0.82016 0,1.6575 0,2.67867c0,0.74733 0,1.7415 0,2.50684c0,0.952 0,2.00267 0,2.66133c0,1.008 0,1.87016 0,2.6955c0,0.96451 0,1.68983 0,2.679c0,0.96417 0,1.91483 0,2.80017c0,0.75717 0,1.65268 0,2.51599c0,0.98401 0,1.80533 0,2.65866c0,0.94135 0,1.992 0,2.66135c0,0.76532 0,1.75949 0,2.67868c0,0.98532 0,1.80649 0,2.62399c0,1.02933 0,1.88217 0,2.84c0,0.77399 0,1.6785 0,2.42584c0,0.99548 0,1.7955 0,2.79532c0,0.96417 0,1.91617 0,2.68417c0,0.952 0,1.71732 0,2.71149c0,0.74734 0,1.76852 0,2.70901c0,0.86215 0,1.6955 0,2.67383c0,0.90018 0.00055,1.72617 0,2.54251c-0.00067,0.96448 0.0416,1.70755 -0.22131,2.67899c-0.21622,0.79892 -0.71375,1.7717 -0.77417,2.49567c-0.07825,0.93726 -0.00452,1.78851 -0.00452,2.65182c0,1.00601 0.04303,1.98859 -0.02081,2.69434c-0.08731,0.96542 -0.44656,1.73221 -0.69516,2.47302c-0.31805,0.94781 -0.28403,1.88531 -0.28403,2.78983c0,0.86215 0,1.6955 0,2.67383c0,0.90051 0,1.73151 0,2.539c0,0.96182 0,1.88266 0,2.78717c0,0.86215 0,1.6955 0,2.67398c0,0.82019 0,1.72153 0,2.66434c0,0.87802 0,1.75717 0,2.65717c0,0.90002 0,1.80002 0,2.70001c0,0.79999 0,1.70001 0,2.60001c0,0.89999 0,1.78934 0,2.75717c0,0.84283 0,1.74283 0,2.64282c0,0.79999 0,1.70001 0,2.60001c0,0.89999 0,1.79999 0,2.69998c0,0.89868 0,1.784 0,2.70001l0.16669,0.83334" id="svg_2" stroke-width="2" stroke="#000" fill="none"/>
  <path t="9413,9637,9637,9646,9646,9653,9653,9661,9661,9669,9669,9677,9677,9685,9685,9685,9693,9693,9693,9701,9701,9701,9701,9709,9709,9717,9717,9726,9726,9733,9733,9733,9743,9743,9749,9749,9757,9757,9757,9765,9765,9765,9773,9773,9781,9781,9789,9789,9789,9797,9798,9798,9805,9805,9813,9813,9821,9821,9830,9830,9837,9837,9845,9965,9989,9997,10005,10014,10014,10021,10021,10021,10029,10029,10037,10037,10037,10045,10045,10045,10053,10053,10053,10053,10062,10062,10062,10069,10069,10069,10069,10077,10077,10077,10077,10085,10085,10085,10085,10093,10093,10093,10093,10093,10101,10101,10101,10109,10109,10117,10117,10117,10126,10126,10126,10126,10133,10133,10133,10142,10142,10142,10149,10149,10149,10159,10159,10159,10165,10165,10165,10173,10173,10181,10181,10181,10189,10189,10189,10198,10198,10205,10221,10221,10317,10317,10325,10325,10325,10325,10326,10333,10333,10333,10333,10333,10334,10334,10342,10342,10342,10342,10342,10342,10342,10342,10342,10349,10349,10349,10349,10349,10350,10350,10350,10350,10359,10359,10359,10359,10359,10359,10359,10360,10360,10365,10365,10365,10365,10365,10365,10365,10366,10366,10373,10373,10373,10373,10373,10374,10374,10374,10374,10381,10382,10382,10382,10382,10382,10382,10382,10382,10389,10389,10389,10389,10390,10390,10390,10390,10390,10397,10398,10398,10398,10398,10398,10398,10398,10399,10401,10401,10401,10401,10401,10401,10401,10401,10401,10402,10402,10402,10402,10445,10445,10453,10462,10462,10462,10469,10469,10469,10469,10469,10477,10477,10477,10477,10478,10478,10486,10486,10486,10486,10486,10486,10486,10493,10493,10493,10493,10493,10494,10494,10494,10494,10502,10502,10502,10502,10502,10502,10502,10503,10503,10509,10509,10509,10509,10510,10510,10510,10510,10510,10517,10517,10517,10518,10518,10518,10518,10518,10518,10526,10526,10526,10526,10526,10526,10527,10527,10527,10533,10533,10533,10533,10533,10534,10534,10534,10534,10542,10542,10542,10542,10542,10542,10543,10543,10543,10549,10549,10550,10550,10550,10550,10550,10550,10558,10558,10558,10559,10559,10565,10565,10566,10566,10566,10575,10575,10575,10582,10645,10653,10653,10661,10661,10661,10662,10662,10662,10669,10669,10670,10670,10670,10670,10670,10670,10671,10677,10677,10677,10678,10678,10678,10678,10678,10678,10685,10685,10685,10685,10686,10686,10686,10686,10686,10693,10693,10693,10693,10694,10694,10694,10694,10694,10701,10701,10701,10701,10702,10702,10702,10702,10702,10712,10712,10712,10713,10713,10713,10714,10714,10714,10717,10717,10718,10718,10718,10718,10718,10719,10719,10757,10757,10757,10758,10758,10758,10758,10758,10759,10765,10766,10766,10766,10766,10766,10766,10766,10767,10775,10775,10775,10775,10776,10776,10776,10781,10781,10781,10782,10782,10782,10782,10782,10783,10795,10795,10796,10796,10796,10796,10797,10797,10797,10799,10799,10799,10799,10799,10800,10800,10800,10800,10808,10808,10808,10809,10809,10809,10809,10809,10810,10813,10814,10814,10814,10814,10814,10814,10815,10815,10824,10825,10825,10825,10825,10826,10826,10826,10826,10830,10830,10830,10830,10831,10831,10831,10831,10831,10842,10842,10842,10842,10843,10843,10843,10843,10844,10845,10845,10846,10846,10846,10847,10847,10847,10848,10893,10893,10893,10894,10894,10894,10894,10894,10895,10901,10901,10902,10902,10902,10902,10903,10903,10903,10910,10910,10911,10911,10911,10911,10912,10912,10912,10917,10918,10918,10918,10918,10919,10919,10919,10919,10925,10925,10926,10926,10926,10926,10927,10927,10927,10933,10933,10934,10934,10934,10934,10934,10935,10935,10942,10942,10942,10943,10943,10943,10943,10944,10944,10949,10949,10950,10950,10950,10950,10958,10958,10958,10959,10959,10959,10965,10966,10966,10997,10997,11005,11013,11013,11021,11021,11029,11030,11030,11030,11031,11037,11038,11038,11038,11038,11045,11045,11045,11046,11046,11047,11047,11053,11053,11054,11054,11054,11055,11061,11061,11062,11062,11062,11063,11069,11069,11070,11077,11077,11109,11117,11117,11125,11125,11126,11126,11133,11134,11134,11134,11135,11135,11135,11135,11136,11142,11142,11142,11142,11143,11143,11143,11144,11144,11149,11150,11150,11150,11151,11151,11151,11152,11152,11158,11158,11158,11159,11159,11159,11160,11160,11160,11165,11166,11166,11166,11167,11167,11167,11168,11168,11174,11175,11175,11175,11176,11176,11176,11177,11177,11181,11182,11182,11182,11183,11183,11183,11184,11184,11191,11191,11192,11192,11192,11193,11193,11193,11194,11221,11221,11222,11222,11222,11223,11223,11223,11223,11231,11231,11231,11232,11232,11233,11233,11233,11234,11237,11238,11238,11238,11239,11239,11239,11239,11240,11246,11246,11247,11247,11247,11248,11248,11249,11249,11253,11253,11254,11254,11254,11254,11255,11255,11256,11261,11261,11262,11262,11262,11263,11263,11264,11264,11275,11275,11275,11276,11276,11277,11277,11277,11278,11279,11280,11280,11281,11281,11281,11282,11282,11282,11291,11292,11292,11292,11293,11293,11293,11294,11294,11296,11296,11297,11297,11297,11298,11298,11298,11299,11349,11349,11349,11350,11350,11351,11351,11351,11352,11357,11358,11358,11359,11359,11359,11360,11360,11360,11365,11365,11366,11366,11367,11367,11367,11368,11368,11374,11374,11375,11375,11376,11376,11376,11377,11377,11381,11382,11382,11382,11383,11383,11383,11384,11384,11391,11391,11392,11392,11392,11393,11393,11433,11436,11469,11469,11470,11470,11477,11477,11478,11478,11486,11486,11487,11487,11493,11493,11494,11549,11549,11557,11558,11558,11558,11565,11566,11566,11567,11567,11568,11574,11575,11575,11575,11576,11576,11582,11583,11583,11584,11584,11585,11585,11585,11591,11591,11591,11592,11592,11593,11598,11598,11598,11599,11599,11607,11608,11608,11614,11621,11622,11629,11701,11709,11725,11749,11837,11861,11933,11941,11941,11949,11949,11957,11957,11958,11965,11965,11966,11973,11974,11974,11981,11982,11982,11983,11990,11991,11991,11997,11998,12007,12007,12014,12029,12053,12061,12070,12085,12101,12109,12117,12125,12133,12149,12157,12173,12197,12207,12207,12214,12223,12230,12230,12231,12237,12238,12238,12239,12245,12245,12246,12246,12247,12253,12254,12254,12254,12255,12255,12256,12256,12257,12261,12261,12262,12262,12263,12263,12264,12264,12265,12274,12274,12275,12275,12276,12276,12277,12277,12290,12291,12291,12292,12292,12293,12293,12294,12349,12349,12350,12350,12351,12351,12352,12352,12353,12356,12357,12357,12358,12358,12359,12359,12360,12360,12373,12374,12374,12375,12375,12375,12376,12376,12377,12390,12391,12391,12392,12392,12393,12393,12394,12394,12407,12407,12414,12437,12453,12462,12469,12485,12509,12605,12613,12623,12624,12624,12630,12630,12631,12631,12639,12640,12640,12640,12646,12646,12647,12647,12656,12657,12657,12658,12662,12662,12663" d="m323.51135,256.09091c1,0 1.75717,0 2.6572,0c0.94415,0 1.94281,0 2.74283,0c1,0 1.79999,0 2.79984,0c0.77933,0 1.63348,0 2.46149,0c0.88165,0 1.88034,0 2.44766,0c1.19101,0 2.091,0 2.69101,0c1.19998,0 2.09549,0 2.67917,0c0.83548,0 2.06366,0 2.91632,0c1.00452,0 1.8045,0 2.8045,0c0.79999,0 1.79999,0 2.60001,0c0.79999,0 1.79999,0 2.60001,0c1.00131,0 1.62082,0 2.76666,0c0.78598,0 1.608,0 2.66666,0c0.7095,0 1.56216,0 2.56668,0c0.79999,0 1.79999,0 2.59998,0c1,0 1.81067,0 2.68533,0c0.99869,0 1.81467,0 2.63068,0c0.99866,0 1.87335,0 2.88385,0c0.77933,0 1.63348,0 2.55283,0c0.90451,0 1.65182,0 2.646,0c0.76532,0 1.85623,-0.1431 2.70117,0.00015c0.84949,0.14401 0.42618,0.89359 -0.29984,1.28384c-0.8548,0.45947 -1.47849,0.71454 -2.34268,0.93735c-0.96548,0.24893 -1.68274,0.52408 -2.65198,0.72598c-0.76883,0.16016 -1.81775,0.41238 -2.34702,0.55267c-0.85803,0.22745 -2.05801,0.41931 -2.65833,0.47467c-0.89954,0.08298 -2.10376,0.23123 -2.70001,0.38251c-0.90628,0.22992 -1.49683,0.45386 -2.70132,0.84149c-0.60779,0.19559 -1.54953,0.48145 -2.56534,0.63467c-0.71384,0.10767 -1.45834,0.14407 -2.58066,0.16217c-1.08588,0.01749 -1.76788,-0.01279 -2.73184,0.02533c-0.61691,0.02441 -1.82385,0.18909 -2.42984,0.33633c-0.96762,0.23511 -1.65784,0.45959 -2.83365,0.74265c-0.86002,0.20703 -1.30606,0.2998 -2.20667,0.46417c-0.88092,0.16077 -2.10696,0.31879 -2.82733,0.38333c-0.92957,0.08331 -2.09415,0.24686 -2.72336,0.57352c-0.85312,0.44293 -1.50229,0.8139 -2.32132,1.04315c-1.16431,0.3259 -1.77866,0.35199 -2.67868,0.436c-0.89999,0.08398 -1.80286,0.20844 -2.68933,0.42532c-0.85663,0.20959 -1.88632,0.48251 -2.58533,0.53867c-0.90707,0.07288 -1.91122,0.02115 -2.74615,0.05685c-0.58426,0.02499 -1.78564,0.17477 -2.66852,0.41516c-0.5795,0.15781 -1.64282,0.56677 -2.35349,0.8595c-0.85129,0.35065 -1.85892,0.61749 -2.478,0.7045c-1.14664,0.16113 -1.92923,0.36261 -2.75385,0.57468c-1.05545,0.27142 -1.767,0.39258 -2.62082,0.42084c-1.00262,0.03317 -1.76849,0.00449 -2.71918,0.00449c-0.88535,0 -2.22534,-0.54001 -2.22534,0c0,0.68002 1.84,0 2.59735,0c0.86133,0 1.81067,0 2.31332,0c1.59601,0 2.15134,0 2.71866,0c1.17868,0 1.79401,0 2.42935,0c0.65732,0 2.78131,0 3.54584,0c0.79147,0 1.60699,0 2.44348,0c0.85449,0 1.724,0 2.6055,0c0.8905,0 2.68649,0 3.58667,0c0.90118,0 1.80435,0 2.71051,0c0.91016,0 1.82532,0 2.74649,0c0.92816,0 2.80951,0 3.7645,0c0.965,0 1.94,0 2.92502,0c0.995,0 2,0 3.01498,0c1.02499,0 3.10501,-0.00098 4.16,0.00034c1.065,0.00134 2.14008,0.00476 3.22501,0.021c1.09506,0.01639 2.20026,0.04391 3.315,0.09299c1.12531,0.04953 3.40576,0.2113 4.55899,0.32834c1.15881,0.11758 2.31436,0.2598 3.46201,0.40802c1.13437,0.14648 2.24774,0.30054 3.336,0.444c1.05576,0.13916 3.04739,0.3786 3.974,0.46249c0.88144,0.0798 1.72583,0.13632 2.53799,0.18149c0.78583,0.0437 1.55203,0.07532 2.30402,0.1095c0.74402,0.03381 2.23227,0.11484 2.98648,0.17319c0.76181,0.05896 1.5271,0.13022 2.29352,0.20398c0.76459,0.07358 1.52383,0.15082 2.27548,0.22202c0.74039,0.07013 2.1763,0.18939 2.86633,0.23132c0.66867,0.04062 1.31564,0.06915 1.93951,0.09601c0.59979,0.02582 1.1748,0.04788 1.72348,0.078c0.522,0.02866 1.48132,0.10782 1.91553,0.16867c0.40585,0.05688 0.78094,0.12698 1.125,0.20398c0.31589,0.07071 0.60068,0.14697 0.85498,0.22202c0.22565,0.06656 0.58499,0.186 0.72052,0.23117c0.10849,0.03616 0.19229,0.07239 0.80716,0.12164c0.85117,0.06818 1.55774,0.65872 0.69998,1.19986c-0.66437,0.41913 -1.31064,0.50906 -2.30933,0.79999c-0.71814,0.2092 -1.48492,0.40619 -2.28,0.672c-0.84552,0.28268 -2.17731,0.86612 -2.63998,1.09732c-0.965,0.48221 -1.45374,0.75397 -1.96002,1.01602c-1.03741,0.53699 -2.11719,1.05444 -2.67499,1.29349c-1.13446,0.48618 -1.72519,0.70609 -2.32001,0.94202c-0.60519,0.24005 -1.85248,0.73178 -3.125,1.3125c-0.659,0.30072 -1.32059,0.63345 -1.995,0.97198c-0.68561,0.34415 -1.37823,0.69824 -2.08499,1.04401c-0.71326,0.34894 -1.42819,0.71094 -2.92001,1.31732c-0.74951,0.30466 -1.51868,0.57086 -2.2995,0.819c-0.78857,0.25061 -1.59485,0.47836 -2.4165,0.69302c-0.83466,0.21808 -1.68768,0.4259 -3.45065,0.82132c-0.90851,0.20377 -1.8345,0.40082 -2.772,0.60001c-0.94516,0.20081 -1.89478,0.3996 -2.84399,0.60001c-0.94543,0.19958 -1.88397,0.3942 -3.71735,0.79999c-0.89096,0.1972 -1.76303,0.39844 -2.61899,0.60001c-0.84271,0.19846 -1.67288,0.39908 -2.49301,0.60001c-0.81253,0.19907 -1.61874,0.39966 -3.22134,0.79999c-0.80002,0.19986 -1.59998,0.39999 -2.39999,0.60001c-0.79999,0.19998 -1.60001,0.39999 -2.39999,0.60001c-0.79999,0.19998 -1.60004,0.3999 -3.20001,0.79999c-0.79965,0.19995 -1.5975,0.39929 -2.39099,0.60001c-0.78784,0.19928 -1.56772,0.39853 -2.33701,0.60001c-0.75803,0.19855 -1.50351,0.39218 -2.93866,0.79999c-0.69122,0.19641 -1.36255,0.39746 -2.0145,0.60449c-0.63739,0.20239 -1.25815,0.41141 -1.86151,0.6315c-0.59296,0.21631 -1.17694,0.43192 -2.29065,0.93066c-0.54892,0.24582 -1.08063,0.51346 -1.60501,0.77701c-0.51559,0.25916 -1.01678,0.52124 -1.51498,0.759c-0.95407,0.45532 -2.32205,0.94714 -2.76266,1.04266c-0.85315,0.18497 -1.70996,0.25226 -2.56802,0.336c-1.33783,0.13055 -1.8024,0.17517 -2.70932,0.37601c-0.88058,0.19501 -1.75833,0.38373 -2.62067,1.08517c-0.73538,0.59821 -0.81635,1.63016 -1.586,2.20148c-0.75095,0.55743 -1.0105,0.25601 -0.15784,0.25601c1.02451,0 1.90182,0 2.39551,0c1.08731,0 1.677,0 2.29465,0c2.00101,0 2.71167,0 3.44635,0c0.76266,0 1.55734,0 2.388,0c0.87067,0 1.78534,0 2.74799,0c2.08533,0 3.21402,0 4.39468,0c1.22467,0 2.48532,0 3.77399,0c1.30869,0 2.62933,0 3.95401,0c2.62933,0 3.91949,0 5.19067,0c1.25314,0 2.48932,0 3.70947,0c1.20517,0 2.39636,0 3.57452,0c2.32132,0 3.466,0 4.59866,0c1.11865,0 2.22131,0 3.306,0c1.06467,0 2.10733,0 3.12601,0c1.95731,0 2.89316,0 3.80399,0c0.89084,0 1.76666,0 2.63251,0c0.86084,0 1.72165,0 2.58749,0c1.76666,0 2.67566,0 3.59866,0c0.931,0 1.86401,0 2.793,0c0.91901,0 1.82199,0 2.703,0c1.672,0 2.45218,0 3.19333,0c0.70319,0 1.36935,0 1.99951,0c0.59515,0 1.15634,0 1.68448,0c0.96133,0 1.39621,-0.00195 1.80002,0.00266c0.37186,0.00424 0.71121,0.01178 1.0155,0.039c0.27045,0.0242 0.51221,0.04858 0.7005,0.129c0.29675,0.12671 0.37842,0.26733 0.39865,0.39734c0.02112,0.13568 -0.02652,0.29071 -0.12,0.43201c-0.10568,0.15976 -0.26859,0.31299 -0.48001,0.43201c-0.4971,0.27988 -0.83841,0.33353 -1.19998,0.40134c-0.39844,0.07471 -1.32059,0.18314 -1.84,0.25333c-1.16135,0.15692 -2.48175,0.40588 -3.19949,0.57748c-0.75842,0.18134 -1.54733,0.39728 -2.3685,0.6225c-0.84982,0.23309 -1.72278,0.47797 -2.62051,0.71252c-0.91428,0.23886 -2.78952,0.6777 -3.74683,0.85767c-0.96545,0.18149 -1.94748,0.33322 -2.94601,0.46048c-1.01419,0.12924 -2.05005,0.23264 -3.108,0.3165c-1.08075,0.08566 -3.32382,0.20441 -4.48816,0.24469c-1.18903,0.04114 -2.39828,0.06738 -3.6225,0.08548c-1.23413,0.01825 -2.47333,0.02686 -3.71249,0.03152c-1.23416,0.00467 -3.66751,0.00397 -4.85818,0.00464c-1.17465,0.00067 -2.33731,0.00229 -3.49197,0.0105c-1.15073,0.00818 -2.30142,0.02194 -3.45602,0.04651c-1.16275,0.02472 -3.52814,0.10602 -4.73782,0.16418c-1.229,0.05911 -2.47571,0.13077 -3.7395,0.20398c-1.27988,0.07413 -2.57455,0.15167 -3.88348,0.22202c-1.32172,0.07101 -4.00037,0.19058 -5.35468,0.23117c-1.35904,0.04074 -2.71832,0.06726 -4.07251,0.08548c-1.34415,0.01807 -2.67334,0.02682 -3.98248,0.03152c-1.28418,0.00461 -3.75751,0.00394 -4.9375,0.00464c-1.14001,0.00067 -2.24002,0.00211 -3.30002,0.0105c-1.02002,0.00806 -2.00009,0.02124 -2.94,0.04651c-0.90012,0.0242 -2.58047,0.10291 -3.36032,0.16452c-0.74286,0.05869 -1.44962,0.13275 -2.121,0.22498c-0.64133,0.0881 -1.25223,0.19244 -1.83301,0.315c-0.55792,0.11774 -1.60117,0.39828 -2.08899,0.55966c-0.4722,0.15622 -0.92184,0.32687 -1.35001,0.504c-0.4118,0.17038 -0.80109,0.34702 -1.17001,0.522c-0.35101,0.16647 -0.9902,0.48557 -1.28,0.63116c-0.2702,0.13574 -0.521,0.26242 -0.75,0.38553c-0.21094,0.1134 -0.40237,0.22159 -0.56998,0.33148c-0.15225,0.09985 -0.3974,0.29834 -0.47952,0.40451c-0.07349,0.095 -0.12292,0.19943 -0.1185,0.29999c0.00449,0.10199 0.06741,0.2088 0.16953,0.30002c0.12497,0.11163 0.53616,0.30658 0.81299,0.39999c0.31903,0.10767 0.68604,0.20404 1.09351,0.29999c0.44348,0.10443 0.92349,0.20261 1.43549,0.30002c0.53998,0.10272 1.69632,0.30106 2.30652,0.40015c0.62979,0.10226 1.28006,0.20395 1.94998,0.31052c0.69006,0.10977 1.4003,0.22357 2.13,0.3465c0.75031,0.1264 2.31033,0.40771 3.11951,0.564c0.82684,0.1597 1.66666,0.3287 2.51849,0.4935c0.85916,0.1662 1.72308,0.32925 2.59052,0.47549c0.86462,0.14575 2.58063,0.38492 3.42633,0.46683c0.83307,0.08069 1.6554,0.1344 2.46448,0.17102c0.79459,0.03598 1.57465,0.05359 2.3385,0.06299c0.74683,0.00919 2.18552,0.009 2.87567,0.009c0.67117,0 1.32434,0 1.96051,0c0.62015,0 1.22534,0 1.8165,0c0.57816,0 1.69949,0 2.24466,0c1.06433,0 1.58551,0 2.61084,0c0.50616,0 2.01065,0 3.008,0c0.49368,0 1.461,0 2.38834,0c0.44366,0 2.04233,0 2.73166,0c0.9165,0 1.96481,-0.06256 2.62534,0.01065c1.02954,0.11411 1.1683,1.06073 0.61066,1.58936c-0.74973,0.71069 -1.40399,0.90543 -2.51999,1.56665c-0.52567,0.31146 -1.08347,0.6817 -2.05215,1.23785c-0.35065,0.20132 -1.52148,0.80194 -2.39999,1.19998c-0.46234,0.2095 -1.4393,0.62964 -1.94736,0.85266c-1.60306,0.70367 -2.15463,0.96494 -2.71783,1.22418c-1.14029,0.5249 -1.71365,0.78265 -2.29065,1.02133c-0.57037,0.23593 -2.25455,0.81509 -2.80402,0.93283c-1.06186,0.22754 -1.59476,0.276 -2.64667,0.33249c-0.52689,0.02829 -2.14133,0.03101 -2.6955,0.03217c-1.11832,0.00232 -1.67276,0.00089 -2.74582,0.03586c-0.50937,0.0166 -1.87439,0.09055 -2.59067,0.24933c-0.85031,0.18848 -1.74948,0.75262 -2.42184,1.19382c-0.78354,0.51413 -1.04459,1.00497 -0.46216,1.4075c0.95975,0.6633 1.67633,0.96024 2.48132,1.32401c0.44232,0.19989 1.95828,0.79428 2.526,0.9895c0.60022,0.20639 1.24448,0.40952 1.93802,0.6105c0.74438,0.21573 1.55075,0.43021 2.42398,0.64648c0.94272,0.23346 3.07111,0.71368 4.2655,0.96417c1.27359,0.26712 2.62024,0.53528 4.03052,0.80402c1.46271,0.27875 2.97125,0.5535 4.51648,0.82199c1.57077,0.27292 4.75864,0.79172 6.36035,1.03082c1.60498,0.23959 3.22064,0.46375 4.85248,0.66452c1.64987,0.20297 3.32578,0.38455 5.0325,0.53848c1.73996,0.15692 5.34711,0.39423 7.22052,0.47617c1.91061,0.08359 3.84793,0.13937 5.79898,0.19202c1.95294,0.0527 3.89612,0.09677 5.81702,0.15601c1.88715,0.0582 5.51169,0.21756 7.22684,0.33731c1.65155,0.1153 3.24207,0.25821 4.7775,0.40802c1.48624,0.14502 2.92642,0.30087 4.32748,0.444c1.36563,0.1395 4.01196,0.38034 5.30234,0.46231c1.26834,0.08057 2.51547,0.13437 3.7395,0.17102c1.19968,0.03592 2.37463,0.05356 3.5235,0.06299c1.1218,0.00919 3.28049,0.009 4.31534,0.009c1.00381,0 1.97568,0 2.91449,0c0.90485,0 1.77469,0 2.60852,0c0.79681,0 2.27548,0 2.95547,0c0.64001,0 1.24002,0 1.80002,0c0.51999,0 1,0 1.44,0c0.39999,0 1.07999,-0.00061 1.36032,0.00015c0.24234,0.00067 0.44882,0.00116 0.621,0.0105c0.14047,0.0076 0.25339,0.01675 0.33301,0.04651c0.05899,0.02203 0.10709,0.11169 0.0885,0.16418c-0.02371,0.06699 -0.08841,0.13733 -0.18152,0.20398c-0.11526,0.08249 -0.27344,0.15659 -0.46948,0.22202c-0.23178,0.07733 -0.83777,0.1925 -1.21317,0.23117c-0.42197,0.04349 -0.8912,0.0679 -1.40402,0.08548c-0.55453,0.01901 -1.14932,0.02695 -1.78198,0.03152c-0.66867,0.00485 -2.10602,0.004 -2.87119,0.00464c-0.79614,0.00067 -1.62433,0.0025 -2.48547,0.0105c-0.8952,0.0083 -1.82541,0.02237 -2.7915,0.04651c-1.00327,0.02505 -3.12466,0.10654 -4.24402,0.16418c-1.15665,0.05957 -2.34698,0.13113 -3.56848,0.20398c-1.24951,0.07449 -2.5239,0.15186 -3.8205,0.22202c-1.3154,0.0712 -3.99136,0.19058 -5.34586,0.23117c-1.3602,0.04077 -2.72263,0.06729 -4.08298,0.08548c-1.35431,0.0181 -2.69867,0.02682 -4.02902,0.03152c-1.31232,0.00464 -3.867,0.00449 -5.10266,0.00449c-1.20966,0 -2.39734,0 -3.56699,0c-1.15567,0 -2.30133,0 -3.44101,0c-1.13766,0 -3.423,0 -4.57718,0c-1.15915,0 -2.31833,0 -3.47247,0c-1.1442,0 -2.27335,0 -3.38251,0c-1.08417,0 -3.1575,0 -4.13751,0c-0.94,0 -1.84,0 -2.69998,0c-0.82001,0 -1.60001,0 -2.34003,0c-0.69998,0 -1.97998,0 -2.56049,0c-0.54349,0 -1.05301,0 -1.53149,0c-0.4505,0 -0.87601,0 -1.27951,0c-0.38449,0 -1.10849,0 -1.45267,0c-0.32916,0 -0.63834,0 -0.92249,0c-0.25418,0 -0.47336,0 -0.6525,0c-0.13419,0 -0.24753,0 -0.21884,0c0.08066,0 0.20532,0 0.366,0c0.18866,0 0.39734,0 0.61801,0c0.22464,0 0.65399,0 0.84467,0c0.17465,0 0.33731,0 0.49197,0c0.15067,0 0.30136,0 0.45602,0c0.16266,0 0.52798,0 0.73734,0c0.22531,0 0.46265,0 0.70798,0c0.24933,0 0.49869,0 0.74402,0c0.23734,0 0.672,0 0.86249,0c0.17349,0 0.33301,0 0.48151,0c0.1405,0 0.276,0 0.40948,0c0.13452,0 0.41852,0 0.57318,0c0.16266,0 0.33133,0 0.504,0c0.17465,0 0.34933,0 1.15298,0c0.98569,0 0.13568,0 -0.72232,0c-0.69867,0 -1.46133,0 -2.65582,0c-0.79568,0 -1.57935,0 -2.34302,0c-1.09048,0 -2.09998,0 -2.73633,0c-0.91949,0 -2.11682,0 -2.68884,0c-0.97598,0 -1.63058,-0.24518 -1.01315,-0.76166c0.70227,-0.58746 1.46771,-1.08542 2.07449,-1.44901c0.6727,-0.40311 1.84833,-0.99237 2.27734,-1.19067c0.89859,-0.41534 1.37302,-0.61505 2.33832,-1.05582c0.49472,-0.22589 1.9946,-0.95834 2.49234,-1.23083c1.01648,-0.55649 1.52356,-0.86804 2.03467,-1.19467c1.05792,-0.67609 2.133,-1.44757 2.68518,-1.85983c0.56387,-0.42099 1.12735,-0.85788 1.69348,-1.29752c0.56488,-0.43869 1.6716,-1.3027 2.216,-1.70667c1.02869,-0.76328 1.51724,-1.1033 2.45502,-1.68182c0.43817,-0.27032 1.28955,-0.74615 2.11166,-1.16751c1.19739,-0.61371 1.60345,-0.79727 2.38132,-1.20398c0.75275,-0.39355 1.4899,-0.74414 2.64801,-1.59869c0.49799,-0.36746 1.15714,-0.87979 1.66348,-1.84415c0.42719,-0.8136 0.97159,-1.52142 1.09918,-2.35718c0.14551,-0.95328 -0.71338,-1.41208 -1.42532,-0.97467c-0.77304,0.47495 -1.91135,0.96408 -2.4425,0.35318c-0.58157,-0.66888 -0.12152,-0.87051 -0.12152,-0.1745c0,1.00049 0,1.85315 0,2.81732c0,0.80402 -0.01147,1.62607 0.00018,2.65735c0.01041,0.92151 0.04926,1.61316 0.28516,2.608c0.20462,0.86288 0.42691,1.47275 0.71466,2.47998c0.30832,1.07919 0.49155,1.81494 0.70001,2.5235c0.28833,0.98001 0.62018,1.78644 0.86401,2.48853c0.35059,1.00937 0.28049,1.84814 0.65732,2.7998c0.30704,0.77542 0.76825,1.52133 0.77866,2.42151c0.01041,0.89993 0.15002,1.81265 -0.00015,2.69983c-0.14401,0.85077 -0.84268,1.22189 -1.35251,1.8475c-0.49554,0.60809 -1.25793,1.04733 -2.14734,1.05267c-0.89996,0.0054 -1.79999,0 -2.69998,0c-0.89999,0 -1.80002,0 -2.60001,0c-0.89999,0 -1.88693,-0.04071 -2.30017,-0.66449c-0.5477,-0.82669 -0.61981,-1.46741 -1.22131,-2.63568c-0.31647,-0.61462 -0.70239,-1.21884 -1.08301,-1.85699c-0.60037,-1.00662 -1.00058,-1.7309 -1.41684,-2.51083c-0.45328,-0.84927 -0.68643,-1.31155 -1.51199,-2.832c-0.30722,-0.56583 -0.63651,-1.15646 -0.98102,-1.77151c-0.35681,-0.63696 -0.7269,-1.29123 -1.10699,-1.96048c-0.38721,-0.68176 -0.78113,-1.37213 -1.57867,-2.76801c-0.3999,-0.69989 -0.79935,-1.39905 -1.19998,-2.09549c-0.39935,-0.69421 -0.79871,-1.38443 -1.20001,-2.06851c-0.39868,-0.6796 -0.79376,-1.35446 -1.60001,-2.66934c-0.39676,-0.64706 -0.79825,-1.28156 -1.58932,-2.53067c-0.38965,-0.61526 -0.77652,-1.22415 -1.1535,-1.83148c-0.37369,-0.60202 -1.09491,-1.80197 -1.43549,-2.405c-0.33945,-0.60101 -0.98193,-1.82822 -1.28,-2.46201c-0.30206,-0.64224 -0.5925,-1.30411 -0.85501,-1.9935c-0.54614,-1.4343 -0.77051,-2.207 -1.004,-3c-0.23965,-0.814 -0.46759,-1.65213 -0.70349,-2.5065c-0.24011,-0.86963 -0.4798,-1.75375 -0.7485,-2.64151c-0.54535,-1.80173 -0.86902,-2.69806 -1.19867,-3.60001c-0.33301,-0.91107 -0.68512,-1.82706 -1.03201,-2.75848c-0.35178,-0.94458 -0.70898,-1.90421 -1.03198,-2.89349c-0.66431,-2.03458 -0.93457,-3.10443 -1.19467,-4.18668c-0.25992,-1.08151 -0.48651,-2.15738 -0.69,-3.21149c-0.19626,-1.01666 -0.36594,-1.98669 -0.51001,-2.89651c-0.25037,-1.58105 -0.33344,-2.23376 -0.40265,-2.79468c-0.05899,-0.47815 -0.10168,-0.88373 -0.129,-1.22549c-0.02286,-0.28632 -0.03503,-0.52692 -0.039,-0.7305c-0.0065,-0.33194 -0.00269,-0.74149 -0.00269,-1.69733c0,-0.854 -0.43271,-2.0322 0.16669,-2.63467c0.60001,-0.60309 0.43124,-1.10422 0.91867,-1.88132c0.46439,-0.74036 0.91464,-0.702 0.91464,0.25766c0,0.729 0,1.56601 0,2.75717c0,0.60434 0,1.53583 0,2.18515c0,1.40002 0,2.15067 0,2.92535c0,0.79065 0,1.98917 0,2.78482c0,0.78366 -0.00244,1.54733 0,2.63785c0.00226,1.00949 0.02084,1.64581 0.08536,2.56531l0.13599,0.90118l0.20401,0.8895l0.22198,0.85352" id="svg_3" stroke-width="20" stroke="#fff" fill="none"/>
  <path t="16487,16661,16661,16685,16708,16724,16749,16764,16774,16796,16805,16844,16852,16853,16870,16886,16893,16909,16925,16941,16941,16951,16965,16989,17013,17029,17045,17055,17061,17061,17076,17086,17101,17117,17141,17157,17173,17173,17197,17197,17213,17221,17238,17245,17253,17267,17293,17309,17333,17341,17357,17373,17389,17397,17421,17444,17444,17469,17485,17494,17516,17549,17597,17605,17637,17637,17653,17669,17757,17836,17845,17884,17916,17933,17949,17965,18013,18076,18093,18124,18165,18196,18205,18221,18228,18245,18260,18293,18324,18380,18452,18540,18572,18597,18660,18732,18764,18765,18780,18828,18884,19124,19156,19180,19180,19204,19444,19460,19476,19493,19500,19516,19540,19540,19564,19581,19604,19620,19644,19660,19692,19724,19724,19748,19764,19788,19796,19820,19844,19861,19876,19892,19916,19948,19948,19964,19980,20004,20020,20030,20030,20053,20076,20100,20116,20140,20149,20164,20180,20180,20197,20197,20213,20220,20268,20292,20300,20324,20325,20340,20352,20380,20396,20428,20444,20460,20500,20500,20540,20572,20588,20612,20636,20652,20668,20708,20732,20749,20781" d="m333.51135,120.09091c0,-1 0,-1.8 0,-2.7c0,-0.89999 0,-1.8 0,-2.7c0,-0.8955 0.01776,-1.82169 0,-2.69983c-0.01801,-0.89005 -0.78482,-1.16315 -1.16666,-1.90017c-0.39063,-0.75396 -0.82291,-1.49982 -0.83334,-2.4c-0.01041,-0.89994 0,-1.8 0,-2.7c0,-0.9 0,-1.7 0,-2.60001c0,-0.94283 0,-1.82083 0,-2.7c0,-0.9 0,-1.8 0,-2.7c0,-0.9 0,-1.7 0,-2.60001c0,-0.89999 0,-1.8 0,-2.77916c0,-0.87801 0,-1.72217 0,-2.6875c0,-0.83334 0,-1.81184 0,-2.52884c0,-0.9045 0,-1.8045 0,-2.7045c0,-0.9 0,-1.8 0,-2.69983c0,-0.93617 0,-1.7015 0,-2.60017c0,-0.89999 0,-1.8 0,-2.7c0,-0.9 0,-1.8 0,-2.7c0,-0.9 0,-1.7 0,-2.60001c0,-0.89999 0,-1.8 0,-2.7c0,-0.9 0,-1.8 0,-2.7c0,-0.9 0,-1.7 0,-2.6c0,-0.94283 0,-1.82084 0,-2.7c0,-0.9 0,-1.8 0,-2.7c0,-0.9 0.48318,-1.50718 0.91467,-2.18533c0.49316,-0.77505 -0.00336,-1.81905 0.08533,-2.71466c0.08374,-0.84571 0.68369,-1.43638 1.22134,-2.00017c0.55698,-0.58405 1.26013,-0.72549 2.07416,-1.00433c0.81482,-0.27912 1.31519,-0.98527 2.18369,-0.9955c0.94617,-0.01114 1.39474,-0.72559 2.1315,-0.98933c0.83734,-0.29974 1.78934,-0.01067 2.68481,-0.01067c0.92603,0 1.8045,0 2.7045,0c0.80002,0 1.70001,0 2.60001,0c0.89999,0 1.81061,-0.13332 2.70001,0.0045c0.93167,0.14437 1.54837,0.7516 2.17917,1.47467c0.56699,0.64994 0.44214,1.62433 0.52081,2.46817c0.08371,0.89765 0.93912,1.2679 1,2.15266c0.0618,0.89788 0,1.7 0,2.6c0,0.9 0,1.8 0,2.7c0,0.9 0,1.79867 0,2.684c0,0.916 0,1.716 0,2.616c0,0.9 0,1.8 0,2.7c0,0.89999 0,1.8 0,2.69983c0,0.90017 0,1.7015 0,2.65733c0,0.8955 0,1.59017 0,2.60683c0,0.936 0,1.836 0,2.736c0,0.9 0,1.7 0,2.61467c0,0.896 0,1.78533 0,2.68533c0,0.89999 0,1.8 0,2.7c0,0.9 0,1.65717 0,2.55267c0,0.86333 0,1.8265 0,2.73667c0,0.96783 0,1.81066 0,2.71066c0,0.9 0,1.7 0,2.6c0,0.94283 0,1.82084 0,2.7c0,0.89999 0,1.79867 0,2.684c0,0.916 0,1.716 0,2.616c0,0.9 0,1.8 0,2.7c0,0.89999 0,1.8 0,2.7c0,0.9 0,1.77866 0,2.6045l0,0.8955" id="svg_4" stroke-width="2" stroke="#000" fill="none"/>
  <path t="28541,28677,28725,28749,28773,28781,28805,28805,28821,28853,28861,28885,28893,28901,28909,28925,28941,28957,28981,28981,28997,29005,29029,29061,29069,29077,29101,29133,29149,29165,29181,29197,29205,29225,29237,29261,29275,29349,29389,29437,29469,29501,29501,29533,29542,29589,29629,29645,29669,29693,29725,29734,29789,29798,29821,29861,29909,29909,29925,29989,30005,30021,30045,30061,30077,30093,30093,30109,30117,30133,30181,30189,30205,30229,30245,30245,30277,30305,30469,30485,30509,30581,30645,30677,30677,30693,30709,30749,30749,30781,30805,30813,30829,30893,30909,30925,30973,31013,31053,31053,31069,31109,31149,31157,31189,31213,31237,31277,31277,31301,31309,31325,31339,31357,31365,31373,31389,31389,31405,31413,31437,31453,31461,31493,31525,31533,31541,31557,31581,31597,31605,31613,31629,31653,31677,31685,31685,31701,31709,31741,31765,31805,31853,31869,31933,31957" d="m334.51135,49.09091c0,-1.7 0.00531,-2.60002 0,-3.5c-0.00534,-0.90005 -0.50049,-1.71881 -0.83331,-2.5c-0.32019,-0.75154 -0.15274,-1.72308 -0.59201,-2.436c-0.47574,-0.77207 -0.9368,-1.50043 -1.57468,-2.064c-0.58347,-0.51551 -1.05533,-1.203 -1.5,-2c-0.4455,-0.7985 -0.34647,-1.74846 -0.66666,-2.5c-0.33282,-0.78119 -0.99927,-1.42503 -1.48065,-2.05267c-0.54663,-0.71272 -1.03845,-1.38878 -1.2955,-2.24734c-0.2583,-0.86273 -0.66486,-1.43918 -1.02118,-2.136c-0.43454,-0.84982 -0.7616,-1.43793 -1.02533,-2.17467c-0.29974,-0.83736 -0.02133,-1.77866 -0.51068,-2.38933c-0.48932,-0.61066 -0.5,-1.6 -0.5,-2.47917c0,-0.878 0,-1.82083 0,-2.72083c0,-0.9 0,-1.8 0,-2.6c0,-0.9 -0.15869,-1.78054 0.01068,-2.636c0.17969,-0.90743 0.96448,-1.51795 1.79068,-1.564c0.84213,-0.04693 1.48151,-0.68089 2.11465,-1.284c0.5741,-0.54688 1.384,-0.716 2.284,-0.716c0.89999,0 1.79999,0 2.60001,0c0.84283,0 1.72083,0 2.69998,0c0.90002,0 1.80002,0 2.70001,0c0.89999,0 1.79999,0 2.60001,0c0.89999,0 1.79999,0 2.67917,0c0.87799,0 1.82083,0 2.72083,0c0.89999,0 1.79999,0 2.60001,0c0.89999,0 1.76401,0 2.63599,0c0.96402,0 1.8595,0 2.73068,0c0.93332,0 1.83377,-0.02708 2.63333,0c0.8443,0.0286 1.35431,0.91626 2.19998,1c0.79611,0.07883 1.70007,-0.01066 2.60001,0c0.87936,0.01042 1.3959,0.81962 2.23334,1c0.85165,0.18344 1.85165,-0.19395 2.51935,0.35717c0.7019,0.57934 0.64731,1.64283 0.64731,2.44283c0,0.9 0,1.8 0,2.7c0,0.9 0,1.8 0,2.69867c0,0.854 0,1.80133 0,2.60133c0,0.9 0,1.8 0,2.7c0,0.88933 0.18927,1.95023 -0.43597,2.47467c-0.63095,0.52923 -1.47897,1.01273 -1.56268,1.82533c-0.09222,0.89526 -0.20154,1.60081 -0.71732,2.284c-0.46457,0.61535 -0.28403,1.616 -0.28403,2.516c0,0.9 -0.06693,1.74356 -0.57465,2.42533c-0.4772,0.64081 -0.09723,1.64661 -0.44617,2.45383c-0.30862,0.71399 -0.5665,1.3491 -1.03635,2.16367c-0.39615,0.68682 -1.23865,1.0862 -2.04266,1.57867c-0.61972,0.37958 -0.56702,1.45229 -0.92099,2.25766c-0.31296,0.7121 -1.19354,1.06984 -1.8125,1.6875c-0.61862,0.61734 -1.36533,0.83467 -2.11401,1.186l-0.478,0.622" id="svg_6" stroke-width="2" stroke="#000" fill="none"/>
  <path t="39805,39925,39934,39941,39949,39989,40077,40253,40258,40260,40301,40333,40373,40413,40429,40445,40469,40501,40517,40517,40533,40556,40573,40589,40605,40653,40709,40773,40773,40829,40941,40973,41029,41287,41420,41437,41460,41461,41469,41517,41525,41581,41653,41724,41740,41764,41764" d="m333.51135,246.09091c0,1.8 0,2.7 0,3.60001c0,0.87917 0,1.75716 0,2.59999c0,0.90001 -0.57147,2.12311 0,2.74283c0.47919,0.51964 1.60001,0.05717 2.5,0.05717c0.90002,0 1.80002,0 2.80002,0c0.89999,0 1.79999,0 2.69998,0c0.80002,0 1.64285,0 2.52084,0c0.97916,0 1.87918,0 2.77917,0c0.89999,0 1.79999,0 2.69998,0c0.80002,0 1.70001,0 2.60001,0c0.87918,0 1.76349,0.10875 2.6955,0c0.71906,-0.08391 0.7045,-1.10001 0.7045,-2c0,-0.8 0,-1.64284 0,-2.52083c0,-0.97917 0,-1.87917 0,-2.77917c0,-0.89999 0,-1.8 0,-2.7l0,-0.8" id="svg_8" stroke-width="2" stroke="#000" fill="none"/>
  <path t="42949,43140,43140,43172,43196,43205,43236,43261,43276,43300,43300,43308,43332,43347,43372,43396,43436,43452,43468,43484,43508,43516,43524,43532,43548,43580,43596,43612,43628,43646,43655,43676,43684,43693,43724,43733,43748,43764,43773,43790,43828,43836,43844,43853,43870,43870,43886,43893,43932,43948,43972,43996,44020,44028,44029,44077,44125,44141,44165,44197,44213,44213,44221,44245,44261,44277,44286,44325,44357,44376,44413,44421,44445,44461,44470,44470,44487,44541,44549,44573,44589,44605,44637,44669,44669,44701,44717,44741,44773,44789,44806,44813,44837,44853,44869,44877,44909,44917,45013,45045,45077,45109,45125,45149,45149,45173,45205,45245,45269,45269,45293,45317,45317,45326,45326,45357,45373,45381,45381,45394,45453,45477,45493,45517,45517,45541,45557,45581,45597,45597,45614,45621,45661,45685,45693,45717,45733,45741,45741,45765,45781,45798,45798,45821,45837,45854,45861,45862,45877,45901,45917,45925,45949,45965,45989,46029,46029,46045,46061,46085,46101,46117,46141,46141,46157,46173,46181,46197,46208,46222,46246,46269,46269,46277,46301,46309,46318,46325,46342,46351,46389,46389,46413,46430,46438,46439,46443,46477,46493,46509,46509,46518,46534,46541,46551,46557,46565,46573,46582,46597,46606,46606,46614,46629,46646,46661,46678,46685,46701,46725,46734,46741,46751,46767,46773,46789,46789,46797,46808,46830,46846,46854,46872,46872,46878,46894,46910,46926,46934,46951,46974,47005,47005,47022,47038,47047,47070,47093,47118,47118,47141,47165,47176,47189,47197,47206,47213,47229,47253,47277,47286,47309,47333,47357,47357,47381,47397,47397,47413,47421,47429,47437,47453,47462,47469,47487,47509,47517,47533,47565,47581,47589,47613,47629,47639,47653,47662,47678,47693,47693,47703,47733,47741,47757,47766,47774,47790,47807,47825,47844,47845,47846,47861,47877,47893,47925,47925,47941,47949,47973,47990,47990,47999,48005,48029,48045,48069,48093,48103,48109,48117,48141,48157,48166,48173,48189,48199,48207,48213,48221,48238,48246,48253,48262,48285,48293,48317,48336,48357,48366,48382,48407,48421,48421,48440,48469,48477,48501,48519,48534,48534,48550,48567,48573,48583,48584,48605,48629,48653,48653,48669,48693,48694,48702,48710,48711,48719,48741,48773,48781,48797,48821,48840,48856,48869,48869,48893,48894,48917,48917,48933,48941,48957,48973,48981,48989,48998,49005,49021,49029,49037,49053,49053,49061,49069,49101,49117,49133,49152,49152,49157,49157,49166,49173,49189,49198,49221,49231,49246,49262,49262,49285,49295,49301,49318,49325,49341,49357,49373,49373,49382,49399,49406,49421,49437,49461,49485,49524,49526,49557,49573,49582,49590,49605,49629,49637,49645,49655,49677,49693,49717,49725,49733,49749,49773,49797,49805,49822,49831,49838,49853,49877,49893,49901,49919,49939,49939,49941,49957,49973,49981,50000,50005,50021,50022,50037,50047,50056,50069,50077,50078,50094,50110,50117,50133,50151,50165,50173,50173,50181,50200,50205,50221,50237,50247,50261,50273,50286,50295,50317,50325,50341,50349,50365,50390,50390,50398,50415,50431,50437,50448,50465,50479,50494,50502,50517,50527,50535,50535,50549,50555,50571,50574,50597,50614,50630,50630,50647,50647,50663,50670,50678,50694,50695,50705,50711,50726,50757,50766,50797,50821,50833,50854,50878,50878,50894,50910,50926,50933,50959,50967,50982,50997,51006,51006,51021,51030,51039,51061,51070,51081,51095,51110,51121,51126,51142,51150,51150,51165,51190,51214,51222,51222,51242,51277,51286,51310,51318,51334,51350,51358,51381,51391,51406,51414,51437,51456,51480,51510,51533,51550,51565,51566,51590,51621,51622,51638,51654,51662,51679,51696,51702,51710,51718,51742,51750,51758,51765,51783,51799,51814,51833,51853,51862,51870,51887,51895,51909,51926,51942,51949,51975,51975,51982,51990,52005,52016,52031,52047,52062,52070,52087,52087,52101,52112,52112,52119,52142,52151,52158,52166,52174,52175,52189,52200,52200,52214,52231,52254,52256,52263,52270,52273,52273,52279,52295,52295,52311,52326,52326,52341,52357,52373,52382,52397,52397,52405,52421,52429,52437,52446,52453,52476,52500,52501,52510,52510,52517,52527,52542,52549,52558,52566,52574,52582,52590,52605,52615,52621,52631,52645,52655,52663,52670,52685,52701,52712,52718,52749,52796,52813,52837,52837,52853,52885,52901,52917,52926,52941,52952,52958,52965,52991,52997,53021,53045,53064,53086,53109,53133,53173,53197,53197,53213,53235,53245,53271,53277,53301,53349,53389,53412,53429,53458,53485,53485,53517,53541,53573,53597,53610,53625,53644,53645,53646,53677,53689,53741,53756,53759,53774,53813,53837,53837,53854,53885,53901,53933,53964,53973,53992,53998,54036,54084,54108,54132,54133,54173,54213,54244,54253,54277,54285,54293,54325,54330,54334,54365,54429,54460,54473" d="m333.51135,224.09091c-1,0 -1.79999,0 -2.69998,0c-0.89999,0 -1.92096,-0.0054 -2.32535,0.61067c-0.48306,0.73592 -1.2532,1.13277 -2.07449,1.61082c-0.62808,0.36559 -1.10861,1.16264 -1.61615,1.8625c-0.51538,0.71068 -0.62964,1.23882 -1.28851,1.85883c-0.62524,0.58835 -1.34265,0.88977 -1.94284,1.40984c-0.65359,0.56635 -1.44577,0.93729 -1.93134,1.74718c-0.43753,0.72977 -0.98474,1.22621 -1.54666,1.87483c-0.50931,0.58789 -0.62189,1.38403 -1.14932,2.05066c-0.51532,0.65131 -0.95108,1.44582 -1.72083,1.922c-0.65158,0.40308 -0.5795,1.45001 -1.12985,2.01668c-0.48593,0.50034 -1.00073,1.11357 -1.60001,1.61066c-0.61496,0.5101 -1.423,0.66737 -2.05865,1.14134c-0.76883,0.57327 -1.4704,0.70169 -2.13751,1.16249c-0.72968,0.50403 -1.7785,0.12151 -2.57849,0.12151c-0.89999,0 -1.84283,0 -2.72083,0c-0.87918,0 -1.77917,0 -2.67917,0c-0.89999,0 -1.80002,0 -2.60001,0c-0.89999,0 -1.81982,0.16823 -2.70001,-0.02083c-0.84439,-0.18137 -1.25272,-1.12971 -1.66666,-1.97917c-0.31784,-0.65225 -0.76971,-1.51826 -1.25867,-2.01067c-0.53183,-0.53558 -1.37454,-0.98792 -1.57333,-1.79066c-0.1922,-0.77611 -0.52792,-1.54486 -0.91599,-2.39734c-0.34802,-0.76454 -1.04263,-1.08369 -1.08536,-2.00133c-0.04187,-0.89903 0,-1.8 0,-2.60001c0,-0.84283 0,-1.72083 0,-2.7c0,-0.89999 0,-1.8 0,-2.7c0,-0.90001 0,-1.8 0,-2.60001c0,-0.89999 0.29108,-1.84958 0,-2.67917c-0.22537,-0.64233 -0.68759,-1.10336 -1.01065,-1.91016c-0.31598,-0.78914 -1.17493,-1.09941 -1.82266,-1.77734c-0.60406,-0.63222 -1.11444,-1.18562 -1.66669,-1.83333c-0.48969,-0.57434 -1.02081,-1 -1.89999,-1c-0.89999,0 -1.79999,0 -2.69998,0c-0.90002,0 -1.83038,-0.39296 -2.61469,0.08533c-0.80365,0.49007 -1.44681,0.7144 -2.28534,1.08134c-0.73532,0.32178 -1.38315,0.75836 -2.32132,1.05466c-0.69962,0.22095 -1.84412,0.33145 -2.392,0.86267c-0.68909,0.66814 -0.49426,1.66118 -1.28668,2.08267c-0.64056,0.34073 -1.70767,0.61716 -2,1.19049c-0.38284,0.75087 0.18329,1.7971 -0.16666,2.64284c-0.32465,0.78462 -0.76813,1.53204 -1.186,2.3c-0.45758,0.8409 -0.64734,1.7 -0.64734,2.5c0,0.89999 0,1.76399 0,2.72083c0,0.87917 0,1.77917 0,2.67917c0,0.90001 0,1.8 0,2.60001c0,0.89999 0,1.72083 0,2.68266c0,0.8075 0,1.80267 0,2.71733c0,0.90001 0,1.8 0,2.60001c0,0.89999 0,1.8 0,2.7c0,0.89999 0,1.8 0,2.69867c0,0.88533 0,1.80133 0,2.60133c0,0.89999 -0.00192,1.81961 0.42535,2.59999c0.45038,0.82257 0.52682,1.70129 0.57465,2.60001c0.04272,0.80341 0.46042,1.52359 0.94736,2.2955c0.44312,0.70242 1.04205,1.31516 1.05264,2.2045c0.01074,0.89999 0.40891,1.62732 0.83334,2.5c0.32083,0.6597 0.85217,1.42258 1.1095,2.29999c0.25345,0.8642 0.66486,1.43918 1.02118,2.13602c0.43454,0.84982 0.76321,1.38187 1.03598,2.00684c0.297,0.68051 -0.07822,1.80359 0.00018,2.65717c0.08371,0.91144 0.66302,1.59344 0.979,2.37915c0.32111,0.79849 0.9566,1.4733 1.02533,2.23068c0.07333,0.8082 0.54541,1.71802 0.99567,2.51151c0.39832,0.7019 1.04752,1.13892 1.57449,1.80399c0.49619,0.62622 0.56363,1.42694 1.14133,2.05865c0.57266,0.62622 1.21783,1.21622 1.716,1.716c0.68405,0.68625 0.52148,1.73343 0.99335,2.60001c0.39874,0.7323 1.12308,1.26935 1.51749,1.95718c0.46985,0.8194 -0.06683,1.85144 0.05734,2.74265c0.11172,0.80188 0.97122,1.25589 0.99982,2.10019c0.03046,0.89948 0,1.79999 0,2.59998c0,0.90002 -0.16498,1.86246 0.02084,2.72086c0.17917,0.8277 0.91827,1.57303 0.97916,2.47916c0.05362,0.79819 0,1.70001 0,2.60001c0,0.89999 0,1.79999 0,2.69998c0,0.89868 0,1.784 0,2.70001c0,0.79999 0,1.70001 0,2.60001c0,0.89999 0,1.79999 0,2.7045c0,0.86215 0,1.6955 0,2.67383c0,0.90033 -0.05545,1.72711 -0.5,2.52167c-0.44562,0.79645 -1.12302,1.24976 -1.47916,2.02084c-0.36887,0.79865 -0.39648,1.62341 -0.85416,2.47916c-0.42328,0.79147 -1.0253,1.22449 -1.16684,2.10001c-0.14606,0.90353 -0.68872,1.50415 -1.28384,2.18533c-0.59305,0.6788 -0.83945,1.49176 -1.29065,2.31467c-0.42776,0.78012 -0.34058,1.7597 -0.85068,2.37466c-0.4971,0.59927 -1.39429,1.02124 -1.57468,1.85867c-0.18344,0.85162 0.34183,1.84467 -0.02081,2.64581c-0.31052,0.686 -0.97919,1.04169 -0.97919,1.92084c0,0.89999 0,1.80002 0,2.70001c0,0.89999 -0.48264,1.50748 -0.91464,2.18533c-0.49377,0.77481 -0.38171,1.76791 -0.73267,2.41467c-0.44318,0.81671 -0.35269,1.73599 -0.35269,2.69998c0,0.89999 -0.18051,1.90067 0.28403,2.51599c0.51578,0.6832 0.71597,1.384 0.71597,2.28403c0,0.89999 -0.1814,1.84097 0.08536,2.59998c0.30081,0.85596 0.81451,1.56332 0.91599,2.40002c0.11154,0.91977 0.46729,1.60278 1.02402,2.36398c0.48853,0.66794 0.95663,1.29684 0.97464,2.26935c0.01596,0.862 -0.34305,1.84525 0.02084,2.64581c0.35147,0.77322 1.18796,1.08029 1.85785,1.74219c0.61676,0.60938 0.84698,1.26013 1.12582,2.07416c0.27911,0.81482 0.82709,1.33496 1.01633,2.2045c0.1842,0.84628 0.634,1.74377 1.2005,2.37866c0.53546,0.60013 1.19519,1.10583 1.77866,1.62134c0.63788,0.56357 1.02591,1.26401 1.70453,1.55716c0.83578,0.36105 1.64673,0.81946 2.27014,1.36816c0.58447,0.51443 0.87631,1.30618 1.46133,1.96402c0.61615,0.69284 1.797,0.36533 2.48001,0.89465c0.62967,0.48798 1.23633,1.07544 1.884,1.43201c0.86368,0.47549 1.10681,1.30032 1.72083,1.784c0.7735,0.60931 1.82703,0.33875 2.57901,0.72134c0.70331,0.35785 1.52982,0.61554 2.40015,0.7995c0.84738,0.17911 1.49045,0.86841 2.30002,0.97781c0.89377,0.12079 1.66058,0.52106 2.36667,1.168c0.6189,0.56708 1.48367,0.81564 2.31732,1.11734c0.70462,0.255 1.68304,0.49173 2.51599,0.88266c0.76871,0.36078 1.43356,0.98834 2.05267,1.48068c0.64731,0.51474 1.64734,0.35266 2.51135,0.35266c0.95682,0 1.84012,-0.0817 2.74048,0.00449c0.87332,0.08359 1.66812,0.57437 2.52884,0.82886c0.77408,0.22888 1.65067,0.16666 2.51401,0.16666c1.01666,0 2.00049,-0.21582 2.59549,0.35266c0.52951,0.50592 1.35504,0.48798 2.00452,1c0.61459,0.48453 1.45267,0.64734 2.35266,0.64734c0.89999,0 1.79999,0 2.69998,0c0.80002,0 1.70001,0 2.56403,0c0.87198,0 1.836,0 2.74048,0c0.86218,0 1.6955,0 2.67401,0c0.82016,0 1.7215,0 2.62149,0c0.89999,0 1.78934,0 2.68533,0c0.91467,0 1.81467,0 2.71466,0c0.80002,0 1.70001,0 2.60001,0c0.89999,0 1.80002,0 2.70001,0c0.89865,0 1.75266,0 2.69998,0c0.80002,0 1.70001,0 2.60001,0c0.89999,0 1.80002,0 2.70001,0c0.89999,0 1.79999,0 2.69998,0c0.83334,0 1.70459,0.01062 2.60001,0c0.87936,-0.01044 1.33664,-0.77481 2.10452,-0.99551c0.86066,-0.24738 1.85519,0.30539 2.68481,-0.01517c0.79294,-0.3064 1.31519,-0.98706 2.17468,-0.98932c0.87198,-0.00229 1.83395,-0.00012 2.43597,-0.5c0.61975,-0.51462 1.38174,-0.95642 2.19867,-1.41602c0.70267,-0.39529 1.23679,-1.06534 2.10135,-1.08398c0.89844,-0.01938 1.51199,-0.48856 2.13599,-0.97467c0.74216,-0.57816 1.08566,-1.246 1.78552,-1.90399c0.60474,-0.56854 1.56274,-0.60526 2.3425,-1.11069c0.52374,-0.33951 0.86621,-1.17075 1.51999,-1.72665c0.6142,-0.52228 1.42114,-0.79959 2.116,-1.48401c0.60452,-0.59543 1.28839,-1.29431 1.716,-1.99866c0.45096,-0.7428 1.43268,-0.97751 1.91733,-1.80133c0.38403,-0.65277 0.94614,-1.12155 1.76666,-1.57468c0.77045,-0.42548 1.37521,-0.80148 1.89999,-1.42532c0.47452,-0.56412 0.69742,-1.53421 1.11069,-2.13867c0.57382,-0.83929 1.13879,-1.33505 1.39383,-2.15683c0.23682,-0.76309 1.15131,-1.14581 1.64282,-1.75717c0.51819,-0.64453 0.66025,-1.41586 1.186,-2.11398c0.51651,-0.68582 1.09552,-1.04935 1.16666,-1.93317c0.07224,-0.89752 0.61487,-1.49173 0.97467,-2.30017c0.34924,-0.78476 0.74854,-1.48337 1,-2.41467c0.25397,-0.94055 0.9826,-1.46735 1.02533,-2.28534c0.04694,-0.89877 0.30664,-1.54272 1.02536,-1.936c0.69739,-0.38159 0.82224,-1.47833 0.98532,-2.36398c0.15311,-0.83145 0.90143,-1.58633 0.98483,-2.30002c0.10446,-0.89392 0.00449,-1.86398 0.00449,-2.73599c0,-0.86398 0,-1.76401 0,-2.664c0,-0.89999 0,-1.78534 0,-2.72534c0,-0.69064 0,-1.76398 0,-2.57465c0,-0.90451 0,-1.92133 0,-2.60001c0,-0.97833 0,-1.94733 0,-2.7045c0,-0.89551 0,-1.7955 0,-2.6955c0,-0.89999 0.08212,-1.8038 -0.00015,-2.70001c-0.08368,-0.91144 -0.49225,-1.69083 -0.99985,-2.37915c-0.51328,-0.69604 -1.16925,-1.07965 -1.71597,-1.60617c-0.55447,-0.534 -0.33948,-1.61563 -0.78403,-2.41467c-0.44562,-0.80093 -0.60303,-1.73865 -1.30133,-2.21466c-0.7493,-0.51077 -1.198,-1.08667 -1.19867,-2c-0.00067,-0.896 0.30478,-1.84308 -0.01065,-2.67468c-0.27658,-0.72916 -1.62921,-0.42932 -1.96851,-1.1315c-0.42639,-0.88242 -0.52133,-1.69797 -0.85416,-2.47916c-0.32019,-0.75153 -0.53732,-1.42899 -1.04517,-2.2215c-0.47852,-0.74673 -0.33929,-1.74677 -0.69617,-2.37851c-0.47598,-0.84262 -0.42267,-1.75821 -0.92535,-2.39999c-0.48251,-0.61606 -0.62653,-1.38171 -1.14731,-2.05267c-0.45313,-0.58377 0.04553,-1.6499 -0.38867,-2.51132c-0.35226,-0.69888 -0.96335,-1.23734 -0.96402,-2.13602c-0.00067,-0.89999 0,-1.79999 0,-2.68933c0,-0.896 0,-1.81067 0,-2.71066c0,-0.89999 0,-1.69998 0,-2.53598c0,-1.01669 0,-1.71133 0,-2.72803c0,-0.93597 -0.27716,-1.90076 0.05719,-2.68866c0.34348,-0.80942 0.62305,-1.51041 0.95349,-2.33667c0.31564,-0.78928 0.97647,-1.31525 0.98932,-2.21066c0.01263,-0.8793 0.77481,-1.33661 0.99551,-2.10449c0.24738,-0.86069 -0.09793,-1.85901 0.35718,-2.591c0.51138,-0.82248 0.25491,-1.63608 0.73267,-2.41916c0.49026,-0.80359 1.48352,-0.96198 1.87866,-1.72134c0.39914,-0.76709 0.03598,-1.76401 0.03598,-2.664c0,-0.89999 -0.02725,-1.70041 0,-2.60001c0.02859,-0.94412 0.68872,-1.39868 1.08401,-2.10132c0.45959,-0.81696 0.89798,-1.59811 0.91599,-2.49866c0.01797,-0.89984 0,-1.80017 0,-2.58536c0,-0.94 0,-1.948 0,-2.70398c0,-0.97467 0,-1.84668 0,-2.71066c0,-0.90002 0,-1.80002 0,-2.70001c0,-0.79999 0,-1.75717 0,-2.65266c0,-0.86334 0,-1.71133 0,-2.64734c0,-0.89999 -0.24261,-1.93091 0.28403,-2.616c0.48474,-0.6306 0.71597,-1.40517 0.71597,-2.22267c0,-0.944 0,-1.86133 0,-2.66133c0,-0.836 0,-1.84816 0,-2.63066c0,-0.9265 0.00006,-1.86934 0,-2.76933c-0.00009,-0.90001 -0.22058,-1.76669 -0.57465,-2.40001c-0.48151,-0.86127 -0.42535,-1.79999 -0.42535,-2.7c0,-0.89999 0.50983,-1.97488 -0.00449,-2.64284c-0.52377,-0.68024 -1.22339,-1.02182 -1.57016,-1.69316c-0.41895,-0.81107 -0.24783,-1.93745 -1.03601,-2.34267c-0.84937,-0.43669 -1.38272,-0.64903 -1.81467,-1.42133c-0.45758,-0.81808 -0.9368,-1.53644 -1.57468,-2.10001c-0.58347,-0.5155 -0.8786,-1.34132 -1.52081,-1.97917c-0.64331,-0.63895 -1.95883,-0.19327 -2.422,-0.87349c-0.48999,-0.71957 -0.43939,-1.43665 -1.25583,-1.64867c-0.80048,-0.20787 -1.35217,-0.93877 -2.10135,-1.35133c-0.83856,-0.46178 -1.30716,-1.13049 -1.98532,-1.56201c-0.77505,-0.49316 -1.81467,-0.08533 -2.71469,-0.08533c-0.79999,0 -1.71472,-0.01048 -2.61066,0c-0.88953,0.01042 -1.78244,0.28995 -2.26801,1.09984c-0.43753,0.72977 -1.02716,1.28703 -1.54666,1.87483c-0.51511,0.58282 -0.45264,1.72894 -1.14932,2.01466c-0.85666,0.35133 -1.42001,0.62129 -1.42535,1.51067c-0.0054,0.89998 0,1.8 0,2.7c0,0.90001 0,1.8 0,2.60001c0,0.89999 0,1.8 0,2.67917c0,0.95683 -0.125,1.91817 0.42535,2.48483c0.48593,0.50034 1.15201,0.97717 1.60001,1.64667c0.49213,0.73541 0.93192,1.58592 0.97464,2.38933c0.04248,0.79887 0.01678,1.70015 0,2.60001c-0.01801,0.96449 -0.83777,1.28215 -1.47916,1.92082c-0.64304,0.64032 -1.0195,1.18173 -1.81549,1.53185c-0.81406,0.35806 -1.40985,0.94507 -2.26935,0.94733c-0.95682,0.0025 -1.87225,0.24771 -2.73148,-0.0045c-0.77206,-0.22662 -0.87265,-1.35814 -1.70453,-1.82883c-0.72964,-0.41284 -1.52798,-0.62018 -2.29547,-1.114c-0.69638,-0.44807 -0.70453,-1.45267 -0.70453,-2.35268c0,-0.89999 0.25629,-1.92491 -0.22131,-2.57866c-0.51071,-0.69907 -0.77869,-1.32133 -0.77869,-2.22134c0,-0.89999 0.08548,-1.84161 -0.57465,-2.46399c-0.64893,-0.61182 -1.92133,-0.1236 -2.36816,-0.79317c-0.522,-0.78218 -0.47467,-1.62622 -1.05719,-2.14284c-0.60266,-0.53447 -1.53922,-0.81319 -2,-1.58533c-0.44986,-0.75386 -0.94733,-1.26733 -1.5,-1.91467l-0.52533,-0.57466" id="svg_9" stroke-width="2" stroke="#000" fill="none"/>
  <path t="59469,59909,59917,59925,59933,59941,59941,59949,59949,59957,59957,59965,59965,59973,59973,59980,59981,59981,59989,59989,59989,59997,59997,60005,60013,60021,60021,60029,60029,60037,60053,60061,60061,60069,60085,60102,60109,60109,60118,60133,60149,60149,60165,60173,60189,60213,60237,60245,60277,60317,60477,60492,60509,60512,60533,60565,60581,60812,60821,60828,60837,60845,60845,60858,60858,60861,60876,60885,60885,60893,60901,60901,60908,60909,60917,60934,60941,60957,60965,60973,60973,60980,60989,60989,60996,61005,61013,61013,61021,61029,61044,61045,61061,61077,61085,61101,61109,61117,61117,61134,61165,61165,61181,61189,61205,61237,61269,61269,61292,61316,61333,61516,61541,61654,61718,61766,61837,61878,62014" d="m323.51135,358.09091c0.80136,0 1.70001,0 2.60001,0c0.92084,0 1.88535,0 2.61069,0c0.98932,0 1.78931,0 2.78931,0c0.78934,0 1.83334,0 2.62534,0c0.86002,0 1.58536,0 2.57501,0c0.84134,0 1.57034,0 2.76633,0c0.67334,0 1.67084,0 2.76883,0c0.702,0 1.66452,0 2.569,0c0.86218,0 1.6955,0 2.67401,0c0.82016,0 1.7215,0 2.6575,0c0.84799,0 1.71133,0 2.60233,0c0.931,0 1.7825,0 2.74017,0c0.82016,0 1.7215,0 2.6575,0c0.84799,0 1.71133,0 2.60684,0c0.95715,0 1.85699,0 2.73181,0c0.82669,0 1.72534,0 2.62534,0c0.89999,0 1.83716,-0.25082 2.6955,0.00449c0.76266,0.22684 0.7045,1.29102 0.7045,2.21686c0,0.94531 0.86426,1.36765 0.95334,2.20398c0.07724,0.72498 -1.40042,0.48065 -2.25333,0.92734c-0.75223,0.39395 -1.45715,0.64508 -2.35266,0.64734c-0.86334,0.00217 -1.80566,0 -2.70901,0c-0.95966,0 -1.81299,0 -2.75299,0c-0.88535,0 -1.64249,0 -2.53799,0c-0.86334,0 -1.82651,0 -2.74734,0c-0.89548,0 -1.8215,0 -2.69998,0c-0.90002,0 -1.70001,0 -2.53601,0c-1.01666,0 -1.71133,0 -2.728,0c-0.94049,0 -1.80267,0 -2.61517,0c-1,0 -1.7825,0 -2.67349,0c-0.86334,0 -1.82651,0 -2.74734,0c-0.89999,0 -1.79999,0 -2.69998,0c-0.90002,0 -1.70001,0 -2.61469,0c-0.85464,0 -1.63715,0 -2.64932,0c-0.936,0 -1.836,0 -2.73599,0c-0.90002,0 -1.70001,0 -2.60001,0c-0.89999,0 -1.77917,0 -2.73599,0c-0.8595,0 -1.56403,-0.2215 -1.56403,-1.10001c0,-0.89999 0,-1.77866 0.08536,-2.616l0.74799,-0.45065" id="svg_10" stroke-width="2" stroke="#000" fill="none"/>
  <path t="62654,62749,62758,62773,62783,62783,62805,62814,62822,62822,62830,62838,62846,62846,62855,62861,62870,62870,62877,62886,62902,62902,62918,62934,62934,62950,62957,62957,62982,63022,63031,63038,63062,63102,63118,63150,63174,63190,63214,63222,63254" d="m333.51135,366.09091c0,1.81467 -0.04572,2.86874 0.52084,3.52084c0.62869,0.72363 1.26114,1.13321 1.90451,1.91516c0.51083,0.62085 0.81677,1.51779 1.22198,2.26401c0.4133,0.76111 0.21735,1.76617 0.638,2.5c0.39355,0.68655 1.38797,1.21591 1.6575,2.10449c0.25082,0.82684 0.05716,1.67465 0.05716,2.67465c0,0.7825 -0.00916,1.67358 0,2.53683c0.01044,0.98416 0.24084,1.79752 0.57468,2.65866c0.3613,0.93204 0.42532,1.82535 0.42532,2.62534c0,0.84283 0.20071,1.60852 0.716,2.284c0.46765,0.61304 0.34119,1.61603 0.784,2.41602c0.44284,0.79999 0.5,1.70001 0.5,2.60001c0,0.89999 0.16669,1.73334 0.91467,2.18399l0.08533,0.88266" id="svg_11" stroke-width="2" stroke="#000" fill="none"/>
  <path t="64293,64421,64430,64438,64447,64462,64470,64477,64486,64493,64502,64509,64509,64518,64526,64526,64541,64541,64558,64574,64574,64582,64598,64614,64631,64647,64678,64701,64710,64726,64750,64750,64758,64766,64774,64806,64861,64877,64909" d="m356.51135,367.09091c0,1.70001 0.35489,2.79263 -0.03598,3.564c-0.35376,0.69812 -0.9454,1.23752 -0.96402,2.13602c-0.01868,0.90051 -0.61801,1.61035 -0.91464,2.5c-0.28595,0.85764 -0.29794,1.77121 -0.66,2.39999c-0.44876,0.77936 -0.42535,1.72116 -0.42535,2.53867c0,1.02798 0,1.74799 0,2.68665c0,1.00803 0,1.87018 0,2.67468c0,0.89999 0,1.79999 0,2.70001c0,0.89981 0.31012,1.97528 -0.22131,2.67865c-0.48456,0.64133 -0.61499,1.37863 -1,2.22134c-0.30579,0.66931 -0.44556,1.57379 -0.7995,2.37915c-0.31296,0.7121 -0.97467,1.22534 -0.97919,2.12085l0,0.89999l0,0.88934" id="svg_12" stroke-width="2" stroke="#000" fill="none"/>
  <path t="67573,67693,67709,67718,67727,67742,67742,67758,67766,67773,67773,67781,67790,67799,67806,67806,67813,67814,67829,67830,67837,67845,67845,67854,67854,67861,67869,67877,67885,67893,67901,67910,67918,67918,67933,67943,67950,67958,67965,67974,67982,67989,67989,68005,68013,68014,68021,68029,68037,68045,68053,68053,68061,68077,68085,68093,68101,68110,68117,68126,68126,68134,68143,68150,68165,68173,68182,68189,68189,68197,68205,68205,68213,68221,68229,68237,68245,68245,68262,68269,68269,68277,68278,68285,68293,68301,68310,68318,68326,68343,68350,68358,68366,68373,68381,68390,68390,68397,68421,68429,68445,68461,68477,68478,68493,68494,68502,68525,68549,68573,68677,68733,68757" d="m335.51135,255.09091c-1.22131,0.87866 -1.97137,1.35571 -2,2.20001c-0.03049,0.89948 0,1.79999 0,2.59998c0,0.90002 0,1.836 0,2.68402c0,0.86331 0,1.88 0,2.716c0,0.89999 0,1.79999 0,2.55716c0,0.89999 0,1.84415 0,2.83832c0,0.74734 0,1.65186 0,2.57117c0,0.83334 0,1.81183 0,2.63202c0,0.90134 0,1.80133 0,2.70132c0,0.89999 0,1.7955 0,2.66934c0,0.8515 0,1.80914 0,2.62933c0,0.90134 0,1.80133 0,2.70132c0,0.89999 0,1.79999 0,2.70001c0,0.89999 0,1.79999 0,2.59998c0,0.95718 0,1.85269 0,2.54733c0,1.01669 0,1.95267 0,2.85269c0,0.89999 0,1.79999 0,2.59998c0,0.91467 0,1.81067 0,2.70001c0,0.89999 0,1.79999 0,2.70001c0,0.89999 0,1.79999 0,2.59998c0,0.90002 0,1.80002 0,2.76401c0,0.87201 0,1.73599 0,2.63602c0,0.90015 0,1.68533 0,2.62531c0,1.00803 0,1.76401 0,2.67468c0,0.89999 0,1.79999 0,2.70001c0,0.90015 0,1.68533 0,2.62531c0,1.00803 0,1.80002 0,2.65869c0,0.86331 0,1.88 0,2.716c0,0.89981 0,1.79999 0,2.60132c0,0.89868 0,1.79868 0,2.69867c0,0.89999 0,1.79999 0,2.70001c0,0.89999 0,1.79999 0,2.59998c0,0.91467 0,1.81067 0,2.70001c0,0.89999 0,1.8045 0,2.66666c0,0.83334 0,1.81183 0,2.63202c0,0.90134 0,1.80133 0,2.70132c0,0.89999 0,1.79999 0,2.70001l0,0.89999" id="svg_13" stroke-width="2" stroke="#000" fill="none"/>
  <path t="69941,70037,70046,70053,70061,70077,70085,70085,70093,70101,70101,70109,70109,70117,70125,70133,70141,70141,70149,70149,70149,70157,70165,70174,70174,70174,70181,70191,70191,70198,70207,70213,70230,70230,70237,70237,70245,70253,70253,70261,70269,70269,70277,70285,70285,70293,70293,70293,70301,70301,70311,70317,70325,70325,70333,70341,70341,70349,70349,70357,70357,70365,70374,70381,70381,70390,70390,70398,70407,70414,70421,70421,70429,70430,70446,70453,70453,70461,70462,70469,70477,70477,70485,70485,70493,70509,70517,70517,70525,70533,70541,70557,70557,70565,70574,70574,70581,70613,70613,70622,70629,70646,70653,70669,70669,70693,70717,70733,70781,70797,70806,70830,70853,70853,70869" d="m338.51135,255.09091c0,1.79999 0,2.70001 0,3.60001c0,0.89999 0,1.7045 0,2.72131c0,0.67868 0,1.65717 0,2.67868c0,0.75717 0,1.65268 0,2.51599c0,0.96317 0,1.884 0,2.68533c0,0.96533 0,1.81952 0,2.79868c0,0.78934 0,1.51468 0,2.58932c0,0.832 0,1.74402 0,2.66135c0,0.74399 0,1.77866 0,2.74933c0,0.79999 0,1.70001 0,2.60001c0,0.81067 0,1.72131 0,2.57465c0,0.94135 0,1.70935 0,2.65067c0,1.00803 0,1.87018 0,2.69553c0,0.96317 0,1.65381 0,2.7265c0,0.91931 0,1.7735 0,2.75266c0,0.79999 0,1.60001 0,2.59549c0,0.74734 0,1.76852 0,2.7045c0,0.80017 0,1.58536 0,2.52533c0,1.00803 0,1.80002 0,2.66c0,0.91919 0,1.91333 0,2.67868c0,0.94934 0,1.85684 0,2.70801c0,0.73065 -0.12881,1.74515 0.08536,2.64267c0.21234,0.88986 0.87192,1.68231 0.91464,2.58533c0.04251,0.89899 0,1.65717 0,2.54816c0,0.7825 0,1.79849 0,2.67316c0,0.85333 0,1.79202 0,2.69952c0,0.84048 0,1.8125 0,2.60449c0,0.85867 -0.00073,1.72198 0,2.728c0.00067,0.93201 0.32614,1.68332 0.716,2.44666c0.38455,0.7529 0.284,1.70001 0.284,2.61069c0,0.91064 0,1.76398 0,2.70398c0,0.88535 0,1.68533 0,2.60001c0,0.99518 0,1.63718 0,2.64935c0,0.93597 0,1.836 0,2.73599c0,0.89999 0,1.69998 0,2.60001c0,0.89999 0,1.86398 0,2.73599c0,0.86398 0,1.76401 0,2.664l0,0.89999l0,0.79999l0,0.90002" id="svg_14" stroke-width="2" stroke="#000" fill="none"/>
  <path t="71943,72061,72061,72070,72070,72077,72085,72085,72093,72101,72101,72109,72109,72117,72117,72125,72125,72133,72133,72141,72141,72141,72149,72149,72157,72157,72165,72165,72173,72173,72173,72181,72181,72189,72189,72197,72197,72205,72205,72213,72213,72213,72221,72229,72238,72238,72238,72245,72245,72255,72255,72262,72262,72269,72277,72285,72285,72294,72301,72301,72317,72325,72325,72333,72333,72341,72349,72365,72365,72373,72373,72381,72381,72389,72397,72397,72413,72421,72429,72438,72438,72446,72446,72462,72478,72478,72485,72502,72509,72517,72517,72519,72541,72550,72557,72565,72565,72581,72589,72613,72629,72638,72645,72655,72662,72671,72685,72701,72709,72709,72749,72765,72773,72789,72813,72821,72860,72893,72893" d="m343.51135,253.09091c0,1.836 0,2.60133 0,3.59549c0,0.91919 0,1.90451 0,2.72583c0,0.85333 0,1.79333 0,2.77884c0,0.78519 0,1.73584 0,2.50116c0,0.99869 0,1.79868 0,2.79868c0,0.80002 0,1.80002 0,2.60001c0,1 0,1.79999 0,2.60001c0,1 0,1.79999 0,2.79999c0,0.80002 0,1.80002 0,2.60001c0,1 0,1.79999 0,2.60001c0,1 0,1.79999 0,2.79999c0,0.80002 0,1.79984 0,2.57916c0,0.99966 0,1.83069 0,2.78885c0,0.73199 0,1.46399 0,2.56c0,0.9765 0,1.83865 0,2.71365c0,0.64502 0,1.64102 0,2.4375c0,1.1875 0,2 0,2.84201c0,0.8175 0,1.84683 0,2.69968c0,0.95764 0,1.77783 0,2.61514c0,1.01669 -0.00009,1.71133 0,2.73868c0.00009,0.94666 -0.13901,1.67227 0.22134,2.60382c0.3009,0.77783 0.77332,1.62146 0.77866,2.54236c0.00464,0.80066 0,1.68982 0,2.67899c0,0.77933 0,1.77866 0,2.59885c0,0.83731 0,1.84949 0,2.63199c0,0.92651 0,1.86932 0,2.76935c0,0.90015 0,1.68533 0,2.62531c0,0.69067 0,1.67468 0,2.65869c0,0.86331 0,1.75882 0,2.716c0,0.89999 -0.1814,1.84097 0.08536,2.59998c0.30081,0.85596 0.91464,1.48535 0.91464,2.40002c0,0.89999 0,1.79999 0,2.59998c0,0.90002 0,1.76401 0,2.72086c0,0.87915 -0.00009,1.77914 0,2.67917c0.00009,0.89981 0.50784,1.40863 0.94284,2.15717c0.42447,0.73038 0.05716,1.74283 0.05716,2.64282c0,0.79999 0,1.83334 0,2.61066c0,0.88934 0,1.78934 0,2.68933c0,0.90002 0,1.80002 0,2.70001l0,0.79999" id="svg_15" stroke-width="2" stroke="#000" fill="none"/>
  <path t="73725,73821,73821,73832,73832,73837,73846,73846,73854,73854,73861,73861,73861,73870,73870,73878,73886,73886,73893,73893,73893,73903,73903,73909,73909,73909,73909,73917,73917,73917,73925,73925,73925,73933,73933,73933,73941,73941,73941,73949,73949,73960,73960,73965,73965,73973,73973,73973,73981,73981,73989,73997,74005,74013,74013,74021,74021,74029,74029,74037,74037,74045,74053,74061,74069,74069,74077,74077,74086,74086,74093,74103,74109,74117,74117,74125,74133,74133,74141,74149,74157,74165,74165,74173,74173,74197,74197,74211,74211,74221,74236,74236,74238,74245,74245,74261,74269,74286,74302,74309,74319,74333,74349,74349,74357,74389,74397,74413,74421" d="m349.51135,255.09091c0,1.836 0,2.60132 0,3.59549c0,0.91919 0,1.90451 0,2.72601c0,0.88916 0,1.87851 0,2.6785c0,1 0,1.79999 0,2.60001c0,0.99548 0,1.74283 0,2.77466c0,0.94684 0,1.64618 0,2.62534c0,0.79999 0,1.60001 0,2.60901c0,0.90533 0,2.03366 0,2.69632c0,0.69467 0,1.72668 0,2.65182c0,0.78152 0,1.72552 0,2.72818c0,0.83551 0,1.716 0,2.6145c0,0.8895 0,1.74301 0,2.77866c0,0.68552 0,1.52017 0,2.52151c0,0.79999 0,1.79999 0,2.60001c0,1 0,1.79999 0,2.79999c0,0.79999 0,1.60001 0,2.59549c0,0.91919 0,1.88367 0,2.8045c0,0.90451 0,1.76666 0,2.60001c0,0.97867 0,1.75266 0,2.65717c0,0.74734 0,1.74149 0,2.68567c0,0.89999 0,1.85718 0,2.75717c0,0.89999 0,1.65717 0,2.55716c0,0.74734 0,1.74149 0,2.68567c0,0.89999 0,1.85718 0,2.75717c0,0.89999 0,1.69998 0,2.53598c0,1.01669 0,1.71133 0,2.72803c0,0.93597 0,1.83731 0,2.80264c0,0.65866 0,1.66669 0,2.54666c0,0.85736 0,1.69568 0,2.68533c0,0.76535 0,1.71735 0,2.76801c0,0.64801 -0.04608,1.66681 0.00452,2.53867c0.04236,0.72995 0.91174,1.44897 0.99548,2.29468c0.07895,0.79742 -0.37778,1.80438 0.05719,2.64282c0.38837,0.74863 0.9324,1.37781 0.94281,2.19052c0.01105,0.86209 0,1.76666 0.03601,2.73065l0.61133,0.48868l0.35135,0.74866l0.00131,0.91333" id="svg_16" stroke-width="2" stroke="#000" fill="none"/>
  <path t="76333,76476,76484,76492,76501,76508,76516,76532,76533,76549,76549,76556,76572,76589,76596,76605,76612,76612,76621,76628,76636,76644,76652,76668,76668,76676,76676,76684,76684,76692,76700,76716,76733,76740,76749,76749,76757,76765,76772,76782,76796,76797,76805,76805,76812,76821,76828,76836,76844,76852,76852,76868,76868,76876,76884,76884,76892,76908,76916,76916,76932,76932,76940,76940,76949,76956,76965,76965,76972,76982,76989,76989,76996,77005,77005,77021,77028,77028,77044,77044,77060,77068,77076,77084,77092,77092,77100,77108,77116,77116,77124,77132,77140,77148,77148,77156,77172,77172,77181,77188,77196,77196,77212,77228,77244,77252,77284,77300,77324,77326,77340,77356,77372,77381,77412,77420,77437,77460,77484,77484,77493,77509,77516,77524,77540,77556,77572,77588,77588,77605,77605,77612,77621,77636,77644,77652,77660,77668,77676,77684,77692,77692,77700,77716,77724,77732,77740,77748,77756,77764,77772,77781,77789,77798,77805,77805,77814,77821,77836,77844,77860,77860,77868,77868,77876,77876,77884,77892,77900,77924,77924,77932,77940,77940,77948,77964,77972,77988,77997,78004,78020,78028,78037,78045,78053,78061,78069,78069,78085,78085,78093,78109,78109,78132,78141,78149,78157,78157,78165,78173,78189,78198,78205,78205,78237,78252,78269,78269,78276,78301,78317,78333,78333,78342,78357,78359,78389,78405,78414,78438,78453,78453,78477,78493,78524,78549,78557" d="m338.51135,50.09091c0,1.61066 0,2.5 0,3.4c0,0.9 0,1.8 0,2.7c0,0.9 0,1.65717 0,2.55267c0,0.86333 0,1.90067 0,2.78334c0,0.864 0,1.764 0,2.664c0,0.9 0,1.7 0,2.6c0,0.9 0,1.8 0,2.68934c0,0.86533 0,1.67767 0,2.667c0,1.022 0,1.697 0,2.777c0,0.756 0,1.66666 0,2.56667c0,0.89999 0,1.8 0,2.7c0,0.9 0,1.7 0,2.6c0,0.9 0,1.8 0,2.71067c0,0.91084 0,1.8 0,2.78916c0,0.77934 0,1.7785 0,2.63351c0,0.77733 0,1.66666 0,2.57733c0,0.91067 0,1.764 0,2.70533c0,0.76801 0,1.70934 0,2.71734c0,0.756 0.07648,1.76929 -0.35266,2.52383c-0.45001,0.79122 -0.64667,1.52817 -0.64734,2.47884c-0.00055,0.76534 0,1.7595 0,2.50684c0,1.02116 0.09903,1.88116 -0.16666,2.82383c-0.18927,0.67156 -0.7724,1.58349 -0.83334,2.375c-0.07233,0.93956 0,1.80567 0,2.70117c0,0.9585 0,1.64249 0,2.5825c0,1.008 0,1.8 0,2.82283c0,0.7825 0,1.709 0,2.65183c0,0.9 0,1.8 0,2.7c0,0.8 0,1.7 0,2.52084c0,0.96316 0,1.8265 0,2.71749c0,0.931 0,1.7825 0,2.74017c0,0.82016 0.03622,1.65831 -0.00449,2.67416c-0.02789,0.69611 -0.53653,1.50005 -0.87399,2.44734c-0.30475,0.8555 -0.12152,1.7 -0.12152,2.59999c0,0.90001 0,1.8 0,2.7c0,0.90001 0,1.8 0,2.69984c0,0.86417 0,1.70149 0,2.60016c0,0.90001 0,1.77917 0,2.65717c0,0.94284 0,1.84283 0,2.74284c0,0.89999 0,1.7 0,2.59999c0,0.90001 0,1.8 0,2.7c0,0.89551 0,1.76933 0,2.62083c0,0.95784 0,1.73184 0,2.63184c0,0.86334 0,1.82651 0,2.74733c0,0.90001 0,1.8 0,2.69984c0,0.84749 0,1.70149 0,2.60016c0,0.82083 0,1.784 0,2.64734c0,0.89549 0,1.85266 0,2.75267c0,0.89999 0,1.73332 0,2.60449c0,0.89551 0,1.7955 0,2.6955c0,0.90001 0,1.8 0,2.70001c0,0.89999 0,1.7 0,2.59999c0,0.864 0,1.73601 0,2.71066c0,0.91068 0,1.58934 0,2.56801c0,0.90533 0,1.84666 0,2.53734c0,1.07332 0,1.98399 0,2.87332c0,0.944 0,1.6315 0,2.72534c0,0.88533 0,1.68533 0,2.58533c0,0.90001 -0.00226,1.8 0,2.7c0.00226,0.90002 0.41501,1.57452 0.83334,2.43333c0.34814,0.71472 0.16666,1.66667 0.16666,2.56667c0,0.90001 0,1.8 0,2.70016c0,0.78517 0,1.72517 0,2.41585c0,1.10933 0,1.96666 0,2.77415c0,0.99518 0,1.90984 0,2.80984c0,0.89999 -0.01801,1.70018 0,2.59999c0.01801,0.90054 0.61292,1.61209 0.91467,2.5c0.25888,0.76175 0.08533,1.60001 0.08533,2.63333c0,0.81334 0,1.65067 0,2.51401c0,1.01666 0,1.85266 0,2.75267c0,0.89999 0,1.7 0,2.59999c0,0.90001 0,1.864 0,2.73601c0,0.864 0,1.76399 0,2.664c0,0.89999 0,1.7 0,2.59999c0,0.90001 0,1.8 0,2.7l0,0.98933" id="svg_17" stroke-width="2" stroke="#000" fill="none"/>
  <path t="79621,79685,79694,79701,79717,79725,79733,79733,79733,79741,79741,79749,79749,79749,79757,79757,79765,79765,79773,79773,79781,79781,79781,79789,79789,79797,79797,79797,79797,79805,79805,79805,79813,79813,79821,79821,79821,79829,79829,79829,79837,79837,79846,79846,79846,79853,79853,79853,79863,79863,79869,79869,79869,79878,79878,79886,79886,79893,79893,79901,79902,79909,79909,79918,79918,79925,79925,79933,79933,79933,79941,79941,79949,79949,79957,79957,79965,79973,79973,79981,79981,79981,79989,79997,79997,80005,80005,80013,80013,80013,80021,80021,80029,80029,80037,80046,80046,80053,80053,80053,80063,80063,80069,80077,80077,80085,80086,80093,80101,80109,80109,80117,80117,80125,80125,80141,80141,80149,80157,80165,80173,80173,80181,80181,80189,80189,80197,80197,80205,80213,80221,80221,80229,80229,80237,80246,80253,80262,80269,80279,80285,80286,80293,80293,80301,80309,80309,80317,80318,80325,80333,80341,80349,80349,80349,80357,80365,80373,80381,80381,80389,80405,80413,80413,80415,80429,80437,80437,80445,80446,80453,80464,80478,80486,80493,80493,80501,80510,80510,80525,80525,80533,80533,80541,80549,80557,80566,80582,80590,80598,80606,80614,80614,80622,80637,80654,80663,80670,80679,80694,80694,80710,80718,80718,80726,80734,80750,80766,80782,80790,80790,80798,80814,80821,80830,80852,80863,80863,80870,80879,80886,80901,80903,80918,80935,80942,80950,80966,80966,80973,81005,81022,81038,81062" d="m343.51135,47.09091c0,1.8 0,2.7 0,3.564c0,0.872 0,1.745 0,2.76933c0,0.672 0,1.416 0,2.524c0,0.79333 0,1.912 0,2.6635c0,0.7965 0,1.7925 0,2.6325c0,0.964 0,1.816 0,2.616c0,1.016 0,2.064 0,2.7735c0,0.85267 0,1.8585 0,2.69317c0,0.93066 0,1.72117 0,2.57467c0,0.59066 -0.02283,1.78886 0.02084,2.6685c0.04156,0.83696 0.26273,1.83566 0.47916,2.5c0.33264,1.02106 0.48077,1.831 0.49869,2.70617c0.02045,0.99846 0.00131,1.81467 0.00131,2.63067c0,1 0,1.90933 0,2.85066c0,0.786 0,1.608 0,2.66667c0,0.7095 0,1.56216 0,2.56799c0,0.83467 0,1.76534 0,2.54684c0,0.7905 0,1.909 0,2.8c0,0.909 0,1.65633 0,2.65183c0,0.8 0,1.8 0,2.6c0,1 0,1.78933 0,2.83334c0,0.792 0,1.65333 0,2.41333c0,1.1745 0,1.968 0,2.7435c0,1.0405 0,1.8925 0,2.667c0,0.94417 0,1.93833 0,2.68567c0,1.03183 0,1.97883 0,2.69883c0,1.125 0,1.902 0,2.661c0,0.93317 0,1.868 0,2.70633c0,0.99233 0,1.61184 0,2.75767c0,0.7815 0,1.572 0,2.6905c0,0.75751 -0.19943,1.66533 0.05719,2.433c0.30115,0.90085 0.88995,1.56248 0.93216,2.50584c0.04636,1.03635 0.01065,1.74683 0.01065,2.59949c0,1.00317 0,1.76851 0,2.7205c0,1.05067 0,1.70934 0,2.71733c0,0.86217 0,1.76668 0,2.6875c0,0.80067 0,1.68983 0,2.679c0,0.77934 0,1.77884 0,2.55284c0,0.89999 0,1.76334 0,2.7265c0,0.92082 0,1.82533 0,2.6875c0,0.83333 0,1.812 0,2.586c0,0.9045 0,1.65182 0,2.646c0,0.94417 0,1.84416 0,2.80267c0,0.96533 0,1.62399 0,2.63199c0,0.86217 0,1.76668 0,2.66667c0,0.89999 0,1.8 0,2.69867c0,0.86266 0,1.67332 0,2.40399c0,0.99284 0,1.912 0,2.89734c0,0.8215 0,1.71066 0,2.69966c0,0.75867 0,1.77951 0,2.60167c0,0.87067 0,1.74133 0,2.69867c0,0.73199 0,1.68567 0,2.7c0,0.90001 0,1.8 0,2.60001c0,0.89999 0,1.72083 0,2.68399c0,0.86334 0,1.75433 0,2.7375c0,0.87866 0,1.66383 0,2.60384c0,0.69067 0.05896,1.81764 -0.42532,2.564c-0.47754,0.73595 -0.57468,1.472 -0.57468,2.444c0,0.86217 0,1.80267 0,2.65201c0,0.72533 0,1.71466 0,2.51466c0,1 0,1.95833 0,2.89017c0,0.81433 0,1.70984 0,2.60983c0,0.89999 0,1.8 0,2.7c0,0.90001 0,1.8 0,2.60001c0,0.89999 0,1.8 0,2.7c0,0.89999 0,1.8 0,2.7c0,0.90016 0,1.68533 0,2.62534c0,1.008 0,1.76399 0,2.67467c0,0.89999 0,1.7955 0,2.7215c0,0.87851 0,1.7785 0,2.57851c0,0.89999 0,1.8 0,2.7c0,0.89999 0,1.8045 0,2.66667c0,0.8125 0,1.8125 0,2.63466c0,0.89867 0,1.79868 0,2.69867c0,0.89999 0,1.8 0,2.7c0,0.90001 0,1.8 0,2.60001c0,0.91466 0,1.81067 0,2.7l0,0.89999l0,0.90001" id="svg_18" stroke-width="2" stroke="#000" fill="none"/>
  <path t="82462,82533,82541,82557,82565,82573,82581,82589,82589,82597,82597,82605,82613,82621,82629,82637,82669,82677,82685,82685,82693,82701,82709,82717,82726,82733,82749,82765,82765,82773,82781,82789,82805,82821,82821,82837,82837,82845,82853,82869,82885,82901,82918,82918,82933,82942,82942,82957,82967,82973,82997,83006,83013,83021,83021,83037,83037,83047,83065,83069,83077,83085,83101,83109,83109,83126,83126,83134,83143,83150,83165,83181,83181,83197,83205,83205,83215,83221,83229,83237,83248,83261,83261,83277,83293,83293,83301,83309,83317,83325,83333,83333,83342,83349,83349,83373,83381,83389,83389,83397,83397,83405,83413,83413,83421,83429,83445,83453,83453,83461,83469,83469,83477,83485,83485,83496,83501,83502,83509,83525,83533,83533,83542,83550,83559,83565,83581,83581,83589,83606,83613,83621,83637,83649,83653,83669,83669,83685,83685,83694,83710,83717,83725,83734,83734,83749,83749,83759,83759,83765,83775,83789,83789,83797,83797,83813,83813,83832,83832,83837,83837,83846,83853,83861,83869,83877,83885,83896,83901,83901,83909,83917,83925,83933,83941,83950,83958,83965,83966,83981,83989,83989,84006,84013,84038,84038,84046,84046,84054,84054,84062,84069,84085,84085,84101,84102,84110,84118,84134,84150,84166,84166,84182,84190,84206,84206,84214,84222,84245,84261,84262,84270,84278,84285,84309,84318,84331,84343,84350,84358,84390,84401,84406,84422,84445,84462,84469,84518,84518,84534" d="m348.51135,47.09091c0,0.80133 0,1.7 0,2.6c0,0.9 0,1.8 0,2.7045c0,0.86216 0,1.6955 0,2.674c0,0.82016 0,1.7215 0,2.6215c0,0.9 0,1.8 0,2.6955c0,0.926 0,1.8045 0,2.7045c0,0.8 0,1.7 0,2.6c0,0.9 0,1.8 0,2.7c0,0.89867 0,1.784 0,2.7c0,0.8 0,1.7 0,2.6c0,0.9 0,1.81067 0,2.7215c0,0.69933 0,1.6785 0,2.63683c0,0.93183 0,1.74616 0,2.64166c0,0.9 0,1.81067 0,2.72134c0,0.85333 0,1.79333 0,2.67867c0,0.8 0,1.7 0,2.6c0,0.87917 0,1.836 0,2.7c0,0.90134 0,1.86667 0,2.52534c0,1.008 0,1.87016 0,2.77467c0,0.9 0,1.8 0,2.6955c0,0.87383 0,1.72533 0,2.68317c0,0.77399 0,1.674 0,2.53733c0,0.96317 0,1.884 0,2.784c0,0.9 0,1.80017 0,2.58533c0,0.94 0,1.94801 0,2.704c0,0.91067 0,1.81067 0,2.71066c0,0.9 0,1.8 0,2.7c0,0.8 0,1.636 0,2.65266c0,0.69467 0,1.71133 0,2.64733c0,0.9 0,1.8 0,2.7c0,0.8 0,1.636 0,2.64816c0,0.7825 0,1.78784 0,2.65634c0,0.86217 0,1.6955 0,2.674c0,0.82016 0,1.6575 0,2.67416c0,0.69467 0,1.71133 0,2.64284c0,0.92599 0,1.80466 0,2.58983c0,0.94 0,1.948 0,2.70399c0,0.9315 0,1.89467 0,2.58534c0,1.06816 0,1.92534 0,2.82533c0,0.87866 0,1.64667 0,2.65266c0,0.69467 0,1.71133 0,2.64734c0,0.89999 0,1.8 0,2.7c0,0.8 0,1.71466 0,2.61067c0,0.88933 0,1.78932 0,2.68933c0,0.89999 0,1.8 0,2.7c0,0.75717 0,1.65266 0,2.51601c0,0.94232 0,1.92 0,2.784c0,0.89999 0,1.80016 0,2.58533c0,0.95067 -0.03271,1.71669 0.00452,2.71017c0.02805,0.74866 0.67032,1.61313 0.97467,2.42532c0.29877,0.79729 0.02081,1.58183 0.02081,2.57918c0,0.79999 0,1.79999 0,2.59999c0,0.99983 0,1.77917 0,2.7785c0,0.82016 0,1.7215 0,2.62151c0,0.89999 0,1.79999 0,2.7c0,0.89999 0,1.8 0,2.7c0,0.8 0,1.7 0,2.60001c0,0.89999 0,1.79999 0,2.7c0,0.89999 0,1.8 0,2.7c0,0.8 0,1.75717 0,2.65266c0,0.86334 0,1.82651 0,2.73666c0,0.944 0,1.6315 0,2.58934c0,0.90533 0,1.84666 0,2.53734c0,1.07332 0,1.89465 0,2.8055c0,0.88916 0,1.87816 0,2.63683c0,0.98033 0,1.74617 0,2.64168c0,0.92082 0,1.88399 0,2.57466c0,1.06816 0,1.92534 0,2.82533c0,0.8 0,1.7 0,2.64284c0,0.89883 0.00146,1.84116 0,2.53183c-0.00226,1.06366 -0.62769,1.57294 -0.97916,2.34616c-0.36389,0.8006 -0.02084,1.77917 -0.02084,2.67917c0,0.90001 0,1.8 0,2.67867c0,0.82584 0,1.72134 0,2.62134c0,0.89999 0,1.8 0,2.7c0,0.90001 0,1.8 0,2.60001l0,0.91466" id="svg_19" stroke-width="2" stroke="#000" fill="none"/>
  <path t="85861,85973,85989,85989,86005,86005,86013,86029,86029,86039,86045,86045,86053,86061,86069,86085,86093,86109,86109,86117,86117,86125,86157,86157,86173,86181,86181,86197,86213,86237,86237,86245,86247,86269,86293,86293,86301,86309,86317,86325,86333,86341,86349,86365,86365,86373,86381,86381,86389,86397,86405,86413,86429,86429,86438,86445,86477,86493,86493,86501,86509,86517,86517,86533,86541,86549,86557,86573,86581,86589,86597,86597,86605,86613,86629,86629,86645,86655,86655,86661,86669,86685,86693,86693,86709,86709,86717,86717,86725,86741,86749,86757,86765,86765,86773,86789,86797,86797,86805,86813,86829,86838,86838,86845,86854,86861,86861,86877,86893,86893,86909,86909,86926,86934,86934,86942,86950,86966,86990,86990,86998,86998,87006,87022,87038,87046,87061,87077,87077,87093,87093,87101,87117,87125,87133,87157,87173,87173,87189,87189,87197,87213,87229,87245,87254,87271,87285" d="m340.51135,111.09091c0,1.82533 0,2.83334 0,3.62534c0,1.02733 0,1.722 0,2.74933c0,0.94667 0,1.62534 0,2.74c0,0.88534 0,1.68533 0,2.58533c0,0.9 0,1.8 0,2.7c0,0.9045 0.00006,1.76666 0,2.6c-0.00009,0.9785 -0.10999,1.78345 -0.57465,2.564c-0.44968,0.75537 -0.42535,1.45683 -0.42535,2.55067c0,0.88533 0,1.68533 0,2.58533c0,0.936 0,1.784 0,2.64734c0,0.89549 0,1.85133 0,2.73799c0,0.91467 0,1.71468 0,2.61467c0,0.90001 0,1.8 0,2.7c0,0.90001 0,1.8 0,2.70001c0,0.89999 0,1.7 0,2.536c0,1.01666 0,1.71133 0,2.728c0,0.936 0,1.836 0,2.73601c0,0.89999 0,1.7 0,2.59999c0,0.864 0,1.74667 0,2.62134c0,0.85333 0,1.79333 0,2.77867c0,0.89999 0,1.7 0,2.59999c0,0.90001 0,1.8 0,2.68933c0,0.89601 0.08212,1.81444 -0.00015,2.71068c-0.08368,0.91144 -0.75967,1.43796 -0.979,2.39999c-0.17889,0.78464 -0.02084,1.82133 -0.02084,2.5c0,0.9785 0.16815,2.03644 -0.08533,2.8c-0.25635,0.77217 -0.88608,1.49864 -0.91467,2.40134c-0.03058,0.96484 0,1.79866 0,2.77733c0,0.774 0,1.674 0,2.53734c0,0.94232 0,1.84116 0,2.68399c0,0.90001 0,1.8 0,2.60001c0,0.89999 0,1.836 0,2.68399c0,0.86334 0,1.88 0,2.71468c0,0.968 0,1.80133 0,2.60133c0,0.89999 0,1.836 0,2.68399c0,0.86334 0,1.89067 0,2.83734c0,0.67867 0,1.65717 0,2.47733c0,0.95851 0,1.854 0,2.71735c0,0.96317 0,1.784 0,2.68533c0,0.96533 0,1.79866 0,2.77716c0,0.717 0,1.62151 0,2.58549c0,0.87201 0,1.73601 0,2.63734c0,0.96533 0,1.79866 0,2.77716c0,0.717 0,1.62151 0,2.5215c0,0.89999 0,1.7955 0,2.72166c0,0.94501 0,1.77834 0,2.75684c0,0.717 0,1.62151 0,2.5215c0,0.89999 0,1.8 0,2.7l0,0.89984l0,0.93616" id="svg_20" stroke-width="2" stroke="#000" fill="none"/>
  <path t="88733,88989,89021,89060,89085,89293,89332,89335,89372,89389,89397,89413,89452,89461,89492,89518,89556" d="m324.51135,22.09091c-0.97464,-1 -1.80133,-1 -2.69998,-1c-0.89999,0 -2.01263,-0.11845 -2.28934,0.61067c-0.30817,0.81206 -0.01132,1.82533 -0.01068,2.68933c0.00067,0.89867 0.36215,1.63645 1,2.2c0.5835,0.51552 1.08401,1.216 1.80136,1.49866l0.91333,0.00134" id="svg_21" stroke-width="2" stroke="#000" fill="none"/>
  <path t="90557,90684,90708,90717,90804,90916,90957,90981,91005,91085,91101,91101,91124,91173,91284,91341,91394" d="m328.51135,34.09091c-1.69998,0 -2.70255,-0.39823 -3.564,0.036c-0.69885,0.35228 -1.37503,0.95636 -1.436,1.6685c-0.07642,0.89223 -0.19394,1.98045 0.35718,2.64817c0.57935,0.7019 1.44284,0.64667 2.34283,0.64734c0.89999,0.00067 1.79999,0 2.70001,0l0.98932,0" id="svg_22" stroke-width="2" stroke="#000" fill="none"/>
  <path t="92421,92532,92540,92556,92572,92708,92740,92820,92852,92868,92924,92964,92981,93012,93029,93037" d="m367.51135,19.09091c0.80136,0.08533 1.5372,0.74685 2.40002,0.964c0.86911,0.21873 1.59998,0.2575 1.59998,1.136c0,0.9 -0.17102,1.71282 -1,1.9c-0.88385,0.19958 -1.28531,0.91467 -2.19998,1l-0.89984,-0.00017l-0.77884,-0.22117l-0.474,-0.726" id="svg_23" stroke-width="2" stroke="#000" fill="none"/>
  <path t="93565,93636,93646,93652,93670,93676,93692,93876,93884,93903,93932,93948,93964,94004,94012" d="m367.51135,26.09091c0.61069,1.564 1.7045,1.86768 1.98935,2.61067c0.31113,0.81148 0.8125,1.31917 1.00934,2.10533c0.22662,0.90507 -0.70319,1.28175 -1.59866,1.284c-0.90002,0.00226 -1.80002,0 -2.70001,0l-0.89999,0l-0.89984,-0.00017" id="svg_24" stroke-width="2" stroke="#000" fill="none"/>
  <path t="94661,94748,94756,94796,94804,94828,94860,94884,95052,95076,95124,95197,95228,95244,95260" d="m362.51135,35.09091c1.64734,0.05717 1.98062,0.80154 2,1.7c0.01865,0.86455 0.85428,1.34396 0.99869,2.10133c0.16833,0.88277 0.01074,2.01049 -0.70319,2.19417c-0.90875,0.2338 -1.81631,0.0045 -2.6955,0.0045l-0.89999,0l-0.89999,0" id="svg_25" stroke-width="2" stroke="#000" fill="none"/>
  <path t="96453,96557,96621,96669,96685,96797,96853,96885,96917,96917,96933,96965,97005,97077" d="m323.51135,13.09091c-1.02081,0 -1.80151,-0.01796 -2.69998,0c-0.90054,0.018 -1.89807,0.32854 -2.21466,1.2c-0.30869,0.84971 -0.12256,1.80087 -0.08536,2.6c0.04272,0.91765 0.80136,1.284 1.60001,1.77467l0.80002,0.38933" id="svg_26" stroke-width="2" stroke="#000" fill="none"/>
  <path t="97933,98117,98117,98141,98165,98197,98221,98253,98259,98277,98293,98301,98317,98341,98357,98373,98389,98398,98405,98421,98437,98445,98445,98453,98461,98477,98477,98485,98493,98501,98510,98525,98573,98573,98637" d="m329.51135,20.09091c1,0 1.80002,0 2.70001,0c0.94284,0 1.86215,-0.32292 2.72534,0.01067c0.71677,0.277 1.26727,1.21668 1.57465,2.02533c0.27194,0.71539 0,1.664 0,2.564c0,0.9 0,1.8 0,2.7c0,0.9 0,1.8 0,2.7c0,0.916 0,1.76167 0,2.65266c0,0.86333 -0.06628,1.86737 0.35269,2.64734c0.40182,0.74804 0.77078,1.4771 1.22198,2.3c0.42776,0.78014 0.42532,1.7 0.42532,2.59867c0,0.854 0,1.80133 0,2.60133l0,0.9" id="svg_27" stroke-width="2" stroke="#000" fill="none"/>
  <path t="99301,99381,99390,99407,99421,99437,99453,99453,99461,99461,99469,99477,99493,99509,99510,99517,99525,99541,99581,99597,99621,99645,99685,99709,99717,99757,99781,99781,99885,99909,99917,99917,99933" d="m350.51135,44.09091c0.16669,-1.83334 0.93912,-2.21495 1,-3.084c0.05609,-0.8007 0,-1.74133 0,-2.74934c0,-0.792 0,-1.65067 0,-2.514c0,-0.8955 0,-1.85266 0,-2.75267c0,-0.9 0,-1.7 0,-2.6c0,-0.9 0,-1.8 0,-2.7c0,-0.9 0,-1.8 0,-2.7c0,-0.9 0.4498,-1.44527 0.91467,-2.18533c0.48871,-0.77801 0.20721,-1.75074 0.73267,-2.3575c0.65717,-0.75885 1.45267,-1.23567 2.35266,-1.35717l0.70001,0.05717l0.79999,0.44283" id="svg_28" stroke-width="2" stroke="#000" fill="none"/>
  <path t="102501,102597,102605,102614,102637,102693,102765,102821" d="m353.51135,349.09091c0,1.83334 0,2.61066 0,3.60001c0,0.89999 0,1.79999 0,2.69998l0,0.90002" id="svg_29" stroke-width="2" stroke="#000" fill="none"/>
  <path t="104494,104581,104621,104637,104685,104701,104733,104765,104773,104773,104797,104805,104813,104845,104853,104877,104877,104901,104901,105005,105013,105021,105037,105045,105053,105069,105085,105101,105101,105110,105117,105134,105151,105159,105174,105181,105197,105205,105213,105221,105229,105245,105253,105269,105269,105277,105301,105325,105325,105341,105341,105351,105351,105357,105367,105374,105374,105389,105397,105405,105405,105413,105413,105421,105429,105429,105445,105445,105453,105453,105461,105467,105470,105501,105501,105518,105525,105541,105559,105560,105582,105597,105598,105613,105629,105637,105653,105669,105677,105693,105701,105709,105717,105725,105725,105733,105766,105805,105829,105837,105853,105861,105869,105869,105877,105893,105893,105909,105917,105934,105958,105958,105981,106005,106013,106029,106077" d="m374.51135,290.09091c0.87869,-1.22134 1.383,-1.78635 2.19867,-2.00134c0.79764,-0.21024 0.80133,-1.29865 0.80133,-2.19867c0,-0.89999 0,-1.79999 0,-2.59998c0,-0.90002 0.04831,-1.93945 -0.71597,-2.19867c-0.81613,-0.27679 -0.90701,-1.03439 -1.50568,-1.75851c-0.47177,-0.57065 -1.56992,-0.72324 -2.20901,-0.95883c-0.97751,-0.36035 -1.97272,-0.00348 -2.40265,0.716c-0.46039,0.77048 -0.9993,1.34714 -1.51935,1.94733c-0.56635,0.65363 -1.1745,1.26212 -1.52582,2.15268c-0.26062,0.66068 -0.12152,1.60001 -0.12152,2.5c0,0.89999 0,1.79999 0,2.69998c0,0.90002 0,1.79984 0,2.72534c0,0.776 0,1.67468 0,2.57468c0,0.89999 -0.13272,1.81049 0.00452,2.69998c0.14368,0.9314 0.4498,1.65604 1.0795,2.41467c0.60199,0.72525 1.04251,1.31726 1.52667,1.88535c0.63931,0.75018 1.23676,1.25671 1.68481,2.05267c0.47076,0.8363 0.57843,1.75586 0.98853,2.54733c0.44647,0.86163 0.80774,1.59543 1.21597,2.29999c0.46063,0.79495 0.93387,1.61328 1.52084,2c0.94357,0.62167 1.57971,1.07687 1.95383,1.89999c0.35541,0.78198 0.8006,1.47116 1,2.436c0.15646,0.75708 0.39993,1.75122 0.67267,2.50684c0.32159,0.89099 0.27765,1.85913 0.35266,2.71432c0.08365,0.9538 0.74698,1.48001 0.96402,2.34283c0.21973,0.8735 0.03598,1.80002 0.03598,2.70016c0,0.78519 0,1.72516 0,2.73318c0,0.75598 0,1.66666 0,2.56665c0,0.89551 -0.30734,1.40195 -1.19864,1.60135c-0.80707,0.18057 -1.23679,0.98065 -2.10135,0.99866c-0.89981,0.01874 -1.79999,0 -2.70001,0c-0.79999,0 -1.71472,0.0105 -2.61066,0c-0.88953,-0.01044 -1.56079,-0.53226 -2.41467,-0.98935c-0.77951,-0.4173 -0.76401,-1.17679 -1.14133,-2.01065c-0.2959,-0.65396 -1.5065,-0.92435 -1.77615,-1.70984c-0.26282,-0.76556 -0.05658,-1.76932 -0.05719,-2.59015c-0.00067,-0.90002 -0.32956,-1.73492 -0.71597,-2.5c-0.40033,-0.7926 -0.26318,-1.70001 0.32666,-2.22534l0.78934,-0.39999l0.79999,-0.48935" id="svg_30" stroke-width="2" stroke="#000" fill="none"/>
  <path t="112493,112780,112797,112837,112869,112869,112885,112909,112949,112957,112973,112983,113000,113014,113037,113069,113081,113101,113125,113165,113237,113237,113246,113261,113269,113293,113317,113317,113333,113341,113358,113365,113381,113397,113416,113429,113437,113453,113461,113461,113479,113485,113493,113501,113512,113527,113541,113541,113549,113558,113575,113581,113591,113598,113605,113617,113637,113653,113662,113679,113698,113710,113717,113728,113733,113780,113796,113805,113813,113821,113837,113845,113861,113884,113900,113909,113917,113941,113949,113981,113997,114022,114037,114062,114093,114102,114102,114134,114158,114182,114198,114208,114215,114215,114230,114246,114269,114278,114286,114294,114350,114390,114445,114470,114470,114509,114534,114565,114574,114645,114654,114654,114669,114701,114710,114726,114758,114782,114805,114838,114861,114870,114894,114910,114910,114942" d="m296.51135,291.09091c0,-1.70001 -0.31448,-2.38715 -0.83331,-3.16666c-0.47089,-0.70746 -0.16669,-1.63333 -0.16669,-2.53336c0,-0.89999 0.1441,-1.66843 0.64734,-2.35266c0.48999,-0.6662 0.34973,-1.76294 1.15402,-1.94598c0.87625,-0.1994 1.76266,-0.00134 2.71948,-0.00134c0.87918,0 1.77917,0 2.67783,0c0.88535,0 1.80219,-0.0372 2.60135,0c0.91766,0.04272 0.80704,0.93179 1.28534,1.71466c0.49081,0.80334 1.15677,1.23914 1.56198,1.98535c0.4133,0.76111 0.44342,1.71634 0.92734,2.32532c0.50421,0.63449 0.42532,1.58533 0.42532,2.47467c0,0.88934 0,1.78534 0,2.70001c0,0.89999 0,1.79999 0,2.59998c0,0.90002 0.32813,1.87195 -0.02081,2.67917c-0.30862,0.71399 -1.26614,1.00958 -1.85785,1.74234c-0.52148,0.64581 -0.77872,1.56812 -1.62134,1.75766c-0.95615,0.21509 -1.69296,0.4245 -2.21597,1.10483c-0.46991,0.6113 -0.28403,1.61603 -0.28403,2.51602c0,0.89999 -0.03302,1.77017 -0.57465,2.42532c-0.4707,0.56937 -0.8418,1.39349 -1.62399,1.89066c-0.73148,0.46494 -1.22638,1.16284 -1.82669,1.65869c-0.62482,0.51611 -0.97467,1.03598 -0.97467,1.92532c0,0.89999 -0.01065,1.88934 -0.5,2.5c-0.48932,0.61066 -0.5,1.5 -0.5,2.39999c0,0.89999 0,1.80002 0,2.69983c0,0.87485 0,1.70151 0,2.60019c0,0.89999 0,1.79999 0,2.69998c0,0.89999 0,1.80002 0,2.70001c0,0.89999 -0.47278,1.83163 0,2.61465c0.35669,0.59076 1.39554,0.71805 2.19867,1.20132c0.7446,0.44806 0.97833,1.4209 1.60269,1.79868c0.80554,0.4874 1.72928,0.31802 2.21948,0.78534c0.55472,0.52881 1.4548,0.61862 2.03183,1.14734c0.69131,0.63342 1.22827,1.30994 2.11401,1.35266c0.83234,0.04013 1.63333,0 2.53333,0c0.89999,0 1.77563,-0.11862 2.35266,-0.64734c0.69131,-0.63342 0.94733,-1.35266 0.94733,-2.15265c0,-0.91467 -0.35916,-1.89795 0.02084,-2.67917c0.35513,-0.73007 0.97916,-1.1315 0.97916,-2.02084c0,-0.89999 0.00009,-1.79999 0,-2.70001c-0.00009,-0.89981 -0.22131,-1.67883 -0.87848,-2.24265l-0.117,-0.85202l-0.00467,-0.92667" id="svg_32" stroke-width="2" stroke="#000" fill="none"/>
  <path t="116062,116206,116221,116230,116239,116246,116256,116262,116294,116389,116452,116510,116534,116534,116542,116558,116565,116574,116583,116598,116598,116606,116606,116614,116622,116630,116646,116655,116662,116671,116671,116678,116678,116686,116686,116694,116710,116718,116726,116742,116742,116750,116758,116774,116781,116965,117014,117014,117030,117046,117046,117062,117109,117142,117142,117269,117294,117310,117310,117318,117326,117334,117334,117342,117349,117358,117358,117365,117365,117374,117374,117382,117390,117398,117414,117430,117446,117446,117462,117462,117470,117480,117494,117510,117542,117574,117583,117583,117614,117725,117750,117766,117782,117806,117822,117822,117830,117854,117854,117870" d="m388.51135,335.09091c-1.69998,0 -2.69104,-0.37457 -3.564,0.03601c-0.74161,0.34882 -1.47537,0.38638 -2.26532,0.96533c-0.61227,0.44876 -1.31961,0.66153 -2.004,1.16531c-0.65289,0.48062 -1.16669,0.91867 -1.16669,1.83334c0,0.79999 0,1.70001 0,2.60001c0,0.89999 0,1.79999 0,2.7045c0,0.86215 0,1.6955 0,2.67398c0,0.82019 0,1.72153 0,2.62152c0,0.87915 0,1.836 0,2.69998c0,0.90134 0,1.86667 0,2.52533c0,1.00803 0,1.92734 0,2.82736c0,0.69464 0,1.71133 0,2.64731c0,0.90002 0,1.80002 0,2.70001c0,0.79999 -0.01068,1.70007 0,2.60001c0.01044,0.87933 0.44922,1.63879 1.08401,2.116c0.76654,0.57626 1.72644,0.38443 2.552,0.24799c0.87167,-0.14404 1.6813,-0.7262 2.60684,-0.90683c0.84314,-0.16455 1.71747,-0.28745 2.45715,-0.7045c0.74503,-0.42004 1.28436,-1.01312 1.58401,-1.83667c0.25623,-0.70416 0.67328,-1.62787 0.71597,-2.616c0.03885,-0.89914 -0.01141,-1.70004 0,-2.60001c0.01044,-0.82104 0.31442,-1.77386 0.57468,-2.51065c0.34467,-0.97568 0.41492,-1.76831 0.42532,-2.62268c0.0105,-0.86209 0,-1.76666 0,-2.66666c0,-0.89999 0,-1.79999 0,-2.70132c0,-0.96533 0,-1.79868 0,-2.63202c0,-0.86215 0,-1.76666 0,-2.73065c0,-0.87201 0,-1.73151 0,-2.6575c0,-0.87851 0,-1.7785 0,-2.57849c0,-0.90002 -0.04669,-1.85986 -0.7045,-2.25269c-0.78357,-0.46793 -1.59412,-0.91873 -2.49548,-0.94733c-0.89972,-0.02853 -1.68533,0 -2.62534,0l-1.008,0l-0.75601,0l-0.97467,0" id="svg_33" stroke-width="2" stroke="#000" fill="none"/>
  <path t="118293,118461,118501,118512,118557,118565,118589,118677,118741,118869,118989,119053,119109,119237" d="m385.51135,339.09091c-1.83331,0.16666 -2,1 -2,1.87851c0,0.82599 -0.0054,1.72153 0,2.62149c0.00534,0.8894 0.57364,1.78772 1.38934,1.48932c0.73239,-0.26791 0.61066,-1.38931 0.61066,-2.28931l0,-0.99551" id="svg_34" stroke-width="2" stroke="#000" fill="none"/>
  <path t="119725,119869,119925,119981,120005,120013,120069,120117,120149,120181,120197,120227,120230,120373,120397,120413" d="m382.51135,351.09091c0,1.70001 -0.43042,2.76715 0.03601,3.57468c0.39511,0.68405 1.564,0.42532 2.46399,0.42532c0.90002,0 2.06894,0.25467 2.46402,-0.436c0.42938,-0.75061 0.03598,-1.76266 0.03598,-2.64932l-0.03598,-0.90402l-0.76535,-0.01065l-0.89865,0" id="svg_35" stroke-width="2" stroke="#000" fill="none"/>
  <path t="124613,124821,124821,124860,124884,124893,125125,125156,125165,125173,125189,125213,125373,125405,125469,125509,125517,125517,125549,125565,125621,125805,125821,125925,125925,126061" d="m379.51135,216.09091c-1.16666,-1 -1.74692,-1.53719 -1.96399,-2.39999c-0.21976,-0.8735 0.29208,-2.08363 -0.39316,-2.54285c-0.7807,-0.52319 -1.62622,0.36031 -2.14285,0.94284c-0.53448,0.60268 -1.06741,1.32875 -1.41464,2.19867c-0.30371,0.76093 -1.04263,1.08333 -1.08536,1.90134c-0.04697,0.89877 -0.02725,1.70041 0,2.59999c0.02859,0.94414 0.55441,1.7177 1.22153,2.1785c0.72968,0.50403 1.77847,0.12151 2.57849,0.12151l0.91467,-0.08533" id="svg_36" stroke-width="2" stroke="#000" fill="none"/>
  <path t="127412,127556,127565,127596,127660,127676,127684,127693,127717,127820,127876,127924,127924,127948,127996,128004,128036,128052,128140,128164,128188,128204,128220,128244,128268,128308,128348,128396,128396,128462,128508,128564,128620,128636,128692,128732,128732,128788,128868,128876,128932,128972,129004,129053,129064,129069,129077,129077,129085,129092,129101,129109,129109" d="m346.51135,400.09091c-0.80133,0 -1.69998,0 -2.64282,0c-0.87799,0 -1.79199,-0.24289 -2.65265,0.00449c-0.76788,0.2207 -1.33069,0.82385 -2,1.35269c-0.74094,0.58542 -0.70453,1.64282 -0.70453,2.44281c0,0.90002 -0.34305,1.8786 0.02084,2.67917c0.35147,0.77322 0.56207,1.46609 1.03635,2.16367c0.46378,0.68216 1.64282,0.35718 2.54282,0.35718c0.87918,0 1.836,0 2.70001,0c0.89999,0 1.79999,0 2.69998,0c0.80002,0 1.72311,0.01398 2.436,-0.42532c0.77206,-0.47574 1.5354,-0.93039 1.564,-1.77469c0.03046,-0.89948 0,-1.79999 0,-2.59998c0,-0.90002 0.39822,-1.90259 -0.03598,-2.76401c-0.35226,-0.69888 -1.1297,-1.27408 -1.93866,-1.436c-0.8577,-0.17169 -1.30734,-0.95728 -2.12534,-1c-0.8988,-0.04694 -1.78534,0 -2.71469,0c-0.85199,0 -1.72699,0 -2.66931,0l-0.69067,0" id="svg_37" stroke-width="2" stroke="#000" fill="none"/>
 </g>
 <g display="none">
  <title>muse_image</title>
  <image xlink:href="http://farm4.static.flickr.com/3404/3304560819_7d3a8d9dc4.jpg" id="muse" height="480" width="360" y="0" x="140"/>
 </g>
 <g display="none">
  <title>bbox</title>
  <rect stroke="#f00" fill="none" stroke-width="3" height="463.68" width="144" y="10.56" x="275.36" id="bbox"/>
 </g>
</svg>
