<svg width="640" height="480" xmlns="http://www.w3.org/2000/svg" xmlns:svg="http://www.w3.org/2000/svg" xmlns:xlink="http://www.w3.org/1999/xlink">
 <!-- Sketchy ANNOTATION
  ImageNet ID: n03272010_6725
  URL: http://farm1.static.flickr.com/6/78010527_7398e46227.jpg
  Image Width: 500
  Image Height: 413
  BBox X: 189
  BBox Y: 122
  BBox Width: 307
  BBox Height: 240
  Exposure: 2000ms
  Synset Label: guitar
  Synset ID: n03467517
  Worker Tag: couple posing with guitar
  Sanity Check: 
   Saved
  Comment: 
   {}
  Worker ID: A2HM35CWB7IIFM
  Assignment ID: 30JNVC0OR9K4BE5J724ZAW2L881QH8
  HIT ID: 3JGHED38EDRE47SZV1UF7LL8PY5Y7Q
  Work Time: 111s
  Worker Score: 0.7857
 END ANNOTATION -->
 <g display="inline">
  <title>Layer 1</title>
  <path t="0,170,182,182,194,206,207,224,224,231,232,232,243,243,257,257,258,268,268,280,292,292,306,317,340,357,366,378,378,390,407,416,427,427,427,440,440,457,457,464,464,464,475,476,476,476,490,491,491,500,501,501,501,513,514,514,525,541,541,551,551,561,575,575,591,591,599,599,611,611,611,611,624,624,624,624,641,641,648,648,660,660,660,674,674,691,691,697,698,698,709,724,724,734,746,770,784,795,808,827,827,833,833,844,845,845,860,861,876,877,877,881,881,893,894,894,910,910,926" d="m393.5,208.89999c-0.16666,1.83334 -1,2 -1.79999,2c-0.836,0 -1.86343,-0.05272 -2.60452,0.05717c-1.00995,0.14975 -1.77957,0.57323 -2.59549,0.77617c-0.78836,0.19609 -1.61023,0.215 -2.60449,0.51933c-0.86264,0.26405 -1.81427,0.55235 -2.61017,0.61133c-0.77402,0.05736 -1.84897,-0.12064 -2.58267,0.12134c-0.92212,0.30411 -1.73724,0.65143 -2.49283,0.96733c-0.82388,0.34445 -1.19858,1.13293 -1.8765,1.78067c-0.6322,0.60406 -1.2753,0.95224 -2.03201,1.452c-0.60892,0.40215 -0.68213,1.54837 -1.32217,2.19383c-0.64331,0.64877 -1.52612,0.99928 -1.8685,1.8075c-0.29498,0.69635 -0.42453,1.78012 -0.72049,2.4615c-0.34607,0.79674 -1.10693,1.43773 -1.72351,2.25183c-0.44168,0.58315 -0.77124,1.25136 -1.5,2c-0.63074,0.64793 -1.19409,0.99135 -1.98398,1.60001c-0.76785,0.59167 -1.45306,1.20486 -1.90802,1.60001c-0.93268,0.81006 -1.44949,1.21175 -2.27466,1.77916c-0.54147,0.37234 -1.57846,0.99913 -2.25333,1.38484c-0.76013,0.43443 -1.61948,1.02679 -2.24667,1.63599c-0.60867,0.5912 -1.30368,1.29636 -1.79999,1.8c-0.70526,0.7157 -1.29736,1.5229 -1.70001,2.2c-0.49673,0.8353 -1.0882,1.45541 -1.37885,2.32167c-0.23346,0.69576 -0.43689,1.85338 -0.69049,2.36368c-0.42264,0.85045 -0.82544,1.39763 -1.409,2.61449c-0.28104,0.58604 -0.6022,1.45699 -0.73502,2.01483c-0.2894,1.21545 -0.26334,2.08113 -0.28799,3.08534c-0.01965,0.80051 -0.21378,1.80215 -0.42398,2.39999c-0.28235,0.80298 -0.48309,1.80611 -0.62735,2.59999c-0.18356,1.01016 -0.55157,1.80316 -0.94733,2.60001c-0.39362,0.79254 -0.74875,1.55267 -1.29999,2.24283c-0.64355,0.80573 -1.4389,1.29153 -1.664,2.15717c-0.22562,0.86755 -0.57669,1.47464 -1.03601,2.12085c-0.49548,0.69711 -0.72009,1.64639 -1.16666,2.47916c-0.36313,0.67715 -1.17755,1.06534 -1.83334,1.52084c-0.86594,0.60147 -1.38086,1.30566 -1.6955,1.88367c-0.53357,0.98022 -0.90451,1.7955 -1.3045,2.59549c-0.39999,0.80002 -0.70001,1.39999 -1.20001,2.39999c-0.39999,0.80002 -0.82141,1.58994 -1.18933,2.40002c-0.26935,0.59302 -0.52664,1.59866 -0.66333,2.54282l-0.29999,0.89999" id="svg_1" stroke-width="2" stroke="#000" fill="none"/>
  <path t="1534,1705,1718,1733,1754,1781,1795,1796,1803,1826,1847,1851,1852,1864,1865,1865,1879,1880,1895,1901,1901,1911,1911,1925,1942,1949,1949,1961,1961,1975,1992,1992,1992,1998,1998,1998,1998,1998,2010,2010,2010,2010,2025,2025,2025,2034,2034,2034,2046,2046,2070,2071,2084,2084,2097,2097,2108,2108,2124,2124,2133,2133,2133,2144,2144,2144,2145,2157,2157,2157,2174,2174,2174,2174,2181,2181,2193,2193,2208,2230,2230,2254,2255,2268,2279,2291,2291,2307,2307,2318,2318,2328,2330,2340,2341,2357,2366,2366,2377,2391,2407,2415,2439,2456,2464,2501,2524,2600,2614,2636,2663,2685,2709,2734,2783,2796,2812,2829,2868,2894,2919,2931,2968,2992,2992,3017,3017,3039,3065,3101,3139,3188,3212,3212,3236,3260,3274,3290,3298,3310,3335,3347,3371,3384,3395,3420,3445,3483,3493,3506,3543,3543,3555,3579,3592,3607,3628,3628,3640,3641,3657,3666,3678,3678,3690,3714,3715,3738,3751,3751,3763,3801,3825,3847,3852,3852,3866,3887,3911,3924,3924,3940,3941,3941,3948,3959,3960,3984,3984,3996,4058,4079,4079,4084,4084,4095,4107,4124,4124,4144,4169,4181,4182,4192,4192,4206,4206,4206" d="m330.5,284.89999c-1.08401,1.71466 -1.7807,2.11932 -2.60001,2.57468c-0.78177,0.43451 -1.5072,0.87827 -2.39999,1.25867c-0.75153,0.32019 -1.70639,0.21249 -2.5,0.66666c-0.70715,0.40466 -1.66666,0.5 -2.52084,0.5c-0.97916,0 -1.78833,-0.0567 -2.57916,0.08533c-1.01453,0.18219 -1.71271,0.6788 -2.64734,0.85751c-0.90469,0.173 -1.75266,0.05716 -2.586,0.05716c-0.86215,0 -1.77469,-0.10223 -2.6875,0.02084c-0.81781,0.11026 -1.63684,0.60483 -2.59381,0.89517c-0.67401,0.2045 -1.53064,0.75012 -2.4285,0.96265c-0.72565,0.17175 -1.62607,0.14987 -2.6235,0.28802c-0.72131,0.09991 -1.46832,0.26392 -2.24402,0.40799c-0.78967,0.14667 -1.98819,0.3175 -2.78482,0.36816c-0.78293,0.0498 -1.54733,0.05029 -2.98285,0.05734c-0.66,0.00323 -1.58713,-0.04126 -2.655,0.1665c-0.71683,0.13947 -1.51584,0.52118 -2.28265,1.03198c-0.64609,0.43036 -1.54666,0.71521 -2.28851,0.854c-1.00363,0.18777 -1.77737,0.52939 -2.57416,1.04718c-0.79279,0.51517 -1.67715,0.86761 -2.42584,0.89566c-0.99478,0.03726 -1.79559,-0.00769 -2.79584,0.00467c-0.84149,0.01041 -1.57343,0.06644 -2.44247,0.22116c-1.02267,0.18207 -1.73993,0.36749 -2.47452,0.49466c-1.05783,0.18311 -2.04767,0.24762 -2.672,0.30933c-1.21298,0.1199 -2.11047,0.31717 -2.68982,0.49551c-0.84232,0.25931 -1.82596,0.69727 -2.67416,1.04315c-0.81769,0.33344 -1.64536,0.43533 -2.60385,0.436c-0.89999,0.00061 -1.64734,0 -2.64151,0c-0.76532,0 -1.84415,0 -2.70132,0c-0.89999,0 -1.65717,0 -2.55716,0c-0.94417,0 -1.94284,0 -2.74283,0c-0.99867,0 -1.76401,0 -2.716,0c-0.76801,0 -1.70963,-0.02399 -2.71733,0c-0.75665,0.01801 -1.47704,0.61804 -2.36667,0.91467c-0.85748,0.28592 -1.58014,0.38156 -2.15266,1.03265c-0.56206,0.63919 -1.25801,1.04202 -2.14734,1.05267c-0.88933,0.01068 -1.58408,0.41452 -2.14734,1.05267c-0.52553,0.5954 -0.96167,1.45453 -1.70982,1.89017c-0.72896,0.42447 -1.37994,0.66888 -2.07884,1.02118c-0.86142,0.4342 -1.91879,-0.04279 -2.53867,0.46133c-0.61507,0.50021 -1.41844,0.86462 -1.90399,1.6745c-0.43752,0.72977 -0.9926,1.29178 -1.40533,2.1015c-0.3674,0.72076 -0.68614,1.44998 -0.71468,2.31467c-0.03175,0.96265 -0.00133,1.88397 -0.00133,2.784c0,0.89999 -0.18134,1.85345 0.16667,2.69998c0.27589,0.67108 0.701,1.7045 1.444,1.98935c0.81148,0.3111 1.38361,0.82877 2.19066,1.00934c0.87698,0.19623 1.82387,-0.01065 2.59866,0.42667c0.72615,0.40985 1.42714,0.92657 1.95267,1.52197c0.56326,0.63815 1.39897,0.99631 1.64284,1.75717c0.28703,0.89551 0.86089,1.34732 1.0045,2.2955c0.11981,0.79099 0.18871,1.48749 0.83333,2.16669c0.60196,0.63422 0.95232,1.27536 1.45334,2.03333c0.46791,0.70786 1.34334,1.14508 2.06067,1.44284c0.87224,0.36206 1.85408,0.34476 2.81934,0.35715c0.8127,0.01044 1.55431,0.34775 2.05482,1.09985c0.40262,0.60501 1.30009,0.85724 2.26117,0.90149c0.80856,0.03723 1.51036,0.60617 2.22183,1.05133c0.77368,0.4841 1.64256,0.78375 2.39551,1.16867c0.76318,0.39017 1.37027,1.0166 2.06934,1.49466c0.73566,0.50311 1.80948,0.284 2.492,0.284c1.10666,0 1.83865,0 2.57065,0c1.10666,0 2.0936,-0.05792 2.76801,0.02084c0.99207,0.11588 1.82233,0.41531 2.564,1.00449c0.60596,0.48135 0.68091,1.47922 1.04666,2.14935c0.53116,0.97327 0.99887,1.53561 1.41467,2.42532c0.38074,0.81467 0.99197,1.60837 1.67468,2.04285c0.73212,0.46594 1.71088,0.33813 2.62131,0.35733c0.85388,0.01801 1.79602,0.28381 2.48853,0.64716l0.95816,0.26733l0.73199,0.06451l0.73199,0.0195" id="svg_2" stroke-width="2" stroke="#000" fill="none"/>
  <polyline timestamps="5054,5275" startTime="1448921291811" id="svg_3" points="281.5,349.9000015258789 283.29999999999995,349.9000015258789 " stroke-linecap="round" stroke-width="2" stroke="#000" fill="none"/>
  <path t="5863,6023,6036,6037,6061,6061,6084,6085,6085,6098,6107,6108,6124,6124,6133,6144,6144,6159,6175,6175,6181,6193,6217,6241,6241,6257,6257,6273,6279,6279,6292,6293,6308,6308,6327,6327,6327,6341,6341,6358,6358,6365,6390,6390,6408,6408,6414,6414,6438,6452,6464,6464,6486" d="m284.5,349.89999c2.62534,0 3.48941,-0.04843 4.21066,0.03601c0.99976,0.11703 1.79266,0.47794 2.78934,0.96399c0.5975,0.29138 1.30957,0.78134 2.37466,0.96402c0.93372,0.16016 1.62534,0.03598 2.60382,0.03598c0.82019,0 1.79163,0.02051 2.67419,0.35266c0.70621,0.26578 1.64188,0.46732 2.44733,0.86868c0.76715,0.38229 1.6001,0.76599 2.5,0.77866c0.90015,0.01266 1.68851,0.37891 2.28534,0.80133c0.7439,0.52649 1.67624,0.91574 2.09381,1.71951c0.46591,0.89685 0.60132,1.673 1.12067,2.45782c0.43927,0.66382 0.75571,1.52173 0.96152,2.23199c0.29507,1.01828 0.78375,1.59369 1.45599,2.30402c0.70874,0.74887 1.19464,1.22711 1.78265,2.13348c0.41168,0.63458 1.20093,1.18262 1.80002,1.79468c0.62616,0.63971 0.97247,1.5593 1.5,2.14651c0.6666,0.74207 1.289,1.13416 1.87915,1.91064c0.56088,0.73798 0.74219,1.60001 1.23685,2.30002l0.27332,0.836" id="svg_4" stroke-width="2" stroke="#000" fill="none"/>
  <path t="7189,7347,7347,7361,7361,7379,7379,7379,7384,7384,7384,7385,7396,7396,7407,7407,7407,7423,7424,7431,7431,7443,7444,7457,7474,7481,7492,7507,7507,7523,7524,7530,7530,7542,7542,7557,7557,7557,7567,7567,7578,7591,7606,7616,7628,7652,7715,7744,7763,7788,7812,7837,7838,7838,7850,7850,7863,7888,7888,7960,7961,7978,7996,8046,8061,8133,8146,8193,8193,8230,8241,8257,8267,8290,8315,8315,8339,8339,8364,8376,8414,8438,8438,8450,8450,8462,8474,8474,8491,8491,8500,8500,8500,8511,8511,8524,8524,8541,8541,8548,8549,8549,8560,8561,8573,8573,8589,8598,8609,8624,8640,8641,8651,8662,8662,8673,8673,8674,8684,8684,8684,8694,8694,8695,8707,8707,8707,8727,8727,8732,8732,8744,8756,8774,8782,8793,8793,8806,8818,8818,8830,8830,8842,8843,8843,8856,8856,8856,8868,8868,8868,8869,8869,8878,8879,8879,8879,8891,8891,8916,8916,8916,8940,8957,8989" d="m320.5,376.89999c0.42532,1.836 0.76831,2.5907 0.94733,3.60452c0.11063,0.62659 0.25894,1.82117 0.48868,2.63147c0.16385,0.57785 0.5676,1.76282 0.76266,2.36267c0.28577,0.87881 0.57242,1.70636 0.716,2.716c0.1236,0.86911 0.04089,1.88858 0.10666,2.48535c0.08914,0.8089 0.69028,1.79065 1.12799,2.36398c0.61679,0.80792 0.82669,1.61694 1.20786,2.48416c0.2937,0.66824 1.34775,1.20215 1.63214,1.96252c0.30444,0.814 0.7543,1.38943 0.97467,2.26132c0.17923,0.70917 0.03601,1.728 0.03601,2.52798c0,1 -0.01285,1.80011 0.00015,2.80002c0.01041,0.8002 0.15222,1.80475 0.42517,2.60001c0.27631,0.80505 0.53821,1.79434 0.57019,2.54282c0.04312,1.0097 0.67783,1.4787 0.9938,2.26785c0.32306,0.80679 0.46005,1.52765 1.0947,2.10532c0.64667,0.58859 0.8273,1.3884 0.91599,2.284c0.08374,0.8457 0.84439,1.23282 1.16666,2.16669c0.23407,0.67831 0.5936,1.42538 0.78067,2.42883c0.13834,0.74191 0.54123,1.59271 0.88602,2.57117c0.22318,0.63333 0.14951,1.66684 0.16666,2.52881c0.01801,0.90506 0.45639,1.68622 0.91599,2.50317c0.39532,0.70267 0.89374,1.32773 1.36935,2c0.552,0.78027 1.51465,0.80066 2.41467,0.80133c0.89999,0.00064 1.79999,0 2.69998,0c0.90451,0 1.76666,0 2.60001,0c0.97849,0 1.79868,0 2.70001,0c0.89999,0 1.88538,0.13382 2.59998,-0.36166c0.59579,-0.41312 1.06494,-1.26062 1.41467,-2.15433c0.32693,-0.83548 0.47116,-1.8222 0.80618,-2.48401c0.43414,-0.8576 1.03268,-1.4902 1.47916,-2.33331c0.34247,-0.64673 0.36597,-1.55801 1.20132,-2.41336c0.56082,-0.57425 1.46091,-0.95288 1.97333,-1.43866c0.81961,-0.77701 1.28741,-1.34747 2.14685,-1.91467c0.67242,-0.44379 1.28625,-0.68738 2.27399,-1.19998c0.75238,-0.39047 1.53601,-0.88132 2.20319,-1.5c0.61737,-0.57248 1.69016,-0.82077 2.14417,-1.55716c0.44339,-0.71918 0.25241,-1.76495 0.76166,-2.34283c0.65253,-0.74045 1.19229,-1.45825 1.27466,-2.32083c0.09308,-0.97498 0.00021,-1.79288 0.078,-2.43634c0.11737,-0.97101 0.35818,-1.77521 0.64734,-2.59018c0.36935,-1.04095 0.70404,-1.7236 0.99551,-2.40533c0.41196,-0.96356 0.72006,-1.76379 0.94281,-2.59467c0.27386,-1.02155 0.31781,-1.91162 0.35718,-2.78598c0.03888,-0.86319 0.68619,-1.58905 0.94284,-2.46667c0.25311,-0.86557 0.00937,-1.8013 0.05716,-2.70001c0.04272,-0.80338 0.64804,-1.46982 0.91467,-2.48398c0.17664,-0.67188 0.02527,-1.64166 0.17065,-2.48535c0.1402,-0.8136 0.44995,-1.56424 0.63068,-2.43332c0.24738,-1.18958 0.26163,-1.80765 0.27951,-2.75452c0.01904,-1.00931 -0.00177,-1.72827 0.01517,-2.47882c0.01749,-0.77487 0.04388,-1.56924 0.21066,-2.76367c0.11093,-0.79443 0.36227,-1.92661 0.49466,-2.62967c0.17429,-0.92554 0.27356,-1.92883 0.284,-2.97067c0.0079,-0.78931 0,-1.51465 0.03601,-2.55331l0.66849,-0.44217l0.8595,-0.0405" id="svg_5" stroke-width="2" stroke="#000" fill="none"/>
  <path t="9950,10107,10119,10119,10132,10133,10133,10146,10147,10147,10162,10162,10177,10177,10177,10180,10180,10193,10217,10242,10242,10266,10266,10290,10290,10307,10316,10316,10317,10327,10327,10327,10327,10339,10339,10340,10357,10357,10364,10365,10365,10376,10389,10389,10406,10413,10414,10438,10450,10450,10462,10462,10474,10492,10492,10492,10501,10501,10511,10511,10511,10524,10524,10548,10548,10561,10573,10597,10621,10621,10634,10635,10645,10658,10658,10673,10673,10684,10684,10695,10695,10695,10695,10707,10707,10707,10723,10723,10723,10733,10733,10743,10743,10756,10756" d="m377.5,366.89999c1.10983,-1.69998 1.70071,-2.33585 2.46616,-2.69998c0.93515,-0.44485 1.76041,-0.69672 2.3085,-0.90002c1.06107,-0.39362 1.77277,-0.69037 2.62085,-1.09998c0.80896,-0.39072 1.5769,-0.86969 2.60449,-1.13333c0.78516,-0.20145 1.60129,-0.12064 2.591,-0.17117c0.84113,-0.04294 1.48376,-0.72531 2.27032,-0.97018c0.94601,-0.29453 1.58246,-0.58591 2.34,-1.224c0.6553,-0.552 1.47125,-0.65591 2.31467,-0.88531c0.90121,-0.24512 1.81265,-0.78418 2.49835,-0.85886c0.80356,-0.08752 1.98566,-0.05716 2.58566,-0.05716c0.89999,0 1.79999,0 2.69983,0c0.8895,0 1.74307,0.01181 2.77866,-0.00015c0.90085,-0.01041 1.93027,-0.1412 2.71085,-0.42517c0.73434,-0.26715 1.58481,-0.55667 2.53198,-0.57468c0.85318,-0.01624 1.84674,0.17841 2.67868,-0.16666c0.78436,-0.32535 1.53595,-0.78464 2.32132,-1.05466c0.87341,-0.30029 1.65063,-0.71646 2.47736,-0.77734c0.87097,-0.06415 1.97067,-0.00134 2.72217,-0.00134c0.79648,0 1.79382,0 2.66849,0c1.01083,0 1.83151,0 2.496,0c0.99734,0 1.79382,0 2.98132,0c0.79169,0 1.63333,0.00009 2.53336,0c0.89999,-0.00009 1.87103,-0.08932 2.39999,-0.64667c0.70837,-0.7464 0.80673,-1.7269 1.60001,-2.18265c0.79443,-0.45639 1.68668,-0.12979 2.63599,-0.18134c0.76782,-0.04169 1.77036,-0.34192 2.39999,-0.60001c0.93347,-0.3826 1.71411,-0.70844 2.57468,-0.95334c0.5863,-0.16687 1.79141,-0.32745 2.66849,-0.45682c0.83951,-0.12384 1.86218,-0.51093 2.47919,-1c0.58359,-0.46259 1.21429,-1.33905 1.92566,-1.6925c0.8775,-0.436 1.63199,-0.45599 2.49066,-1.15866l0.37799,-0.53702" id="svg_6" stroke-width="2" stroke="#000" fill="none"/>
  <path t="11480,11677,11678,11690,11710,11710,11713,11713,11713,11726,11727,11741,11741,11741,11741,11751,11752,11752,11762,11762,11775,11775,11775,11775,11791,11791,11791,11799,11800,11800,11800,11811,11812,11812,11812,11824,11825,11825,11841,11841,11849,11850,11850,11861,11861,11874,11874,11874,11891,11891,11898,11898,11898,11916,11916,11916,11925,11925,11925,12066,12066,12066,12066,12067,12080,12080,12081,12081,12081,12081,12081,12082,12082,12086,12086,12087,12087,12087,12087,12088,12088,12088,12100,12100,12110,12110,12124,12124,12131,12131,12144,12179,12180,12180,12204,12228,12229,12241,12258,12258,12267,12267,12278,12291,12308,12308,12315,12315,12327,12327,12327,12340,12363,12388,12412,12463,12486,12486,12586,12622,12647,12662,12677,12683,12683,12694,12694,12706,12724,12732,12756,12805,12854,12868,12879,12916,12940,12955,12966,12966,12966,12989,12989,13039,13040,13064,13088" d="m457.5,341.89999c1,-1.16666 1.56516,-1.65485 2.41068,-1.97467c0.88251,-0.3338 1.66992,-0.47195 2.42267,-1.19199c0.61609,-0.58932 0.84003,-1.26508 1.65332,-1.94934c0.70007,-0.58902 1.68219,-1.04712 2.19733,-1.36798c0.81952,-0.51044 1.35742,-0.87311 2.39435,-1.49469c0.6712,-0.40234 1.48682,-0.85754 2.039,-1.508c0.60489,-0.71252 1.20844,-1.68643 1.65067,-2.19733c0.47467,-0.54837 1.01703,-1.06076 1.89865,-2.14932c0.37982,-0.46899 0.76776,-1.17743 1.5,-2.16669c0.46313,-0.6257 0.86896,-1.00818 1.43466,-1.68533c0.8205,-0.98218 1.20236,-1.5481 1.59869,-2.12534c0.40378,-0.58807 1.19669,-1.78799 1.58932,-2.36798c0.37277,-0.55063 1.04852,-1.48447 1.57468,-2.16c0.64154,-0.8237 1.0426,-1.49393 1.43597,-2.26266c0.40689,-0.7952 0.80002,-1.59866 1.20001,-2.39868c0.39999,-0.79999 0.79999,-1.60001 1.20001,-2.39999c0.39999,-0.79999 0.80969,-1.59528 1.19998,-2.41068c0.30771,-0.64285 0.72339,-1.60281 0.98935,-2.42532c0.27835,-0.86084 0.47461,-1.7608 0.5535,-2.65948c0.07608,-0.86646 0.05716,-1.93784 0.05716,-2.71036c0,-0.66498 0,-1.59 0,-2.1875c0,-1.53998 0.0007,-2.50531 -0.00134,-3.58267c-0.00223,-1.16132 -0.00684,-2.37869 -0.0195,-3.62399c-0.01266,-1.24536 -0.02728,-2.46289 -0.06448,-3.62399c-0.06546,-2.04324 -0.1265,-2.87576 -0.19867,-3.57999c-0.06067,-0.59207 -0.13315,-1.08298 -0.216,-1.48352c-0.06799,-0.32861 -0.14685,-0.59247 -0.216,-0.8085c-0.19858,-0.62045 -0.33145,-1.40192 -0.64117,-2.16116c-0.31128,-0.76303 -0.87088,-1.72995 -1.12198,-2.34283c-0.40219,-0.98169 -0.18042,-1.91888 -0.74234,-2.75732c-0.53912,-0.80447 -1.15613,-1.11819 -1.57849,-1.76001c-0.57047,-0.86682 -1.29922,-1.58347 -1.80002,-2.08267c-0.69885,-0.69662 -1.49335,-1.33783 -2.28534,-1.39865c-0.93726,-0.07199 -1.63065,-0.00134 -2.70398,-0.00134c-0.82135,0 -1.73218,0 -2.62134,0c-0.98935,0 -1.78934,0 -2.78934,0c-0.78934,0 -1.51468,0 -2.58932,0c-0.81067,0 -1.71066,0 -2.61069,0c-0.89999,0 -1.79999,0 -2.59998,0c-0.90002,0 -1.80002,0 -2.70001,0c-0.89999,0 -1.8045,0 -2.82132,0c-0.67868,0 -1.65717,0 -2.47736,0c-0.90134,0 -1.80133,0 -2.70132,0c-0.89999,0 -1.79999,0.00009 -2.70001,0c-0.89981,-0.00009 -1.47659,-0.56885 -2.23599,-0.96399c-0.76709,-0.39917 -1.76532,-0.03601 -2.73065,-0.03601c-0.66934,0 -1.43466,0 -2.43335,0c-0.79999,0 -1.79868,0 -2.74283,0l-0.89999,0l-0.95718,0" id="svg_7" stroke-width="2" stroke="#000" fill="none"/>
  <path t="14464,14635,14647,14648,14661,14661,14678,14685,14685,14697,14697,14711,14722,14732,14732,14744,14756,14772,14772,14772,14781,14781,14782,14793,14805,14806,14806,14818,14830,14830,14842,14855,14855,14867,14867,14878,14878,14891,14905,14905,14905,14916,14928,14928,14928,14939,14956,14956,14966,14966,14977,14977,14989,14990,14990,15007,15007,15007,15016,15016,15016,15016,15025,15026,15026,15026,15026,15039,15039,15039,15039,15057,15057,15057,15062,15063,15063,15063,15075,15075,15075,15100,15101" d="m436.5,267.89999c0,-1.75717 -0.1792,-2.71033 0.17065,-3.51599c0.35938,-0.82764 1.23361,-1.09787 1.8085,-1.98401c0.4826,-0.7439 0.87869,-1.34769 1.67352,-1.7955c0.83612,-0.47107 1.75586,-0.5784 2.54733,-0.98849c0.86163,-0.44644 1.63586,-0.59464 2.27914,-1.23682c0.64771,-0.64661 0.8396,-1.65762 1.38217,-2.31519c0.47787,-0.57915 1.13013,-1.35565 1.61783,-2.14316c0.32834,-0.53015 0.88492,-1.44475 1.6875,-2.02084c0.62604,-0.44937 1.33572,-0.82008 2.19736,-1.38933c0.82474,-0.54486 1.52451,-0.54326 2.46133,-0.62134c1.01648,-0.08472 1.61847,-0.54991 2.37598,-1.18799c0.65533,-0.55199 1.47479,-0.64333 2.31467,-0.88535c0.88626,-0.25539 1.49088,-1.07854 1.884,-1.74133c0.40717,-0.68646 0.96964,-1.59093 1.76666,-2.17467c0.61893,-0.45329 1.30426,-0.86398 1.78268,-1.81465c0.4201,-0.83479 1.15686,-1.02621 1.884,-1.51868c0.76852,-0.52049 1.28116,-1.39819 1.92383,-1.772c0.74734,-0.43468 1.25681,-0.9537 1.9295,-1.41199c0.96228,-0.65555 1.83875,-0.97235 2.41782,-1.23534c1.2056,-0.54752 1.80176,-0.90158 2.41635,-1.26817c0.63815,-0.38063 1.64142,-0.98718 2.36316,-1.37784c0.73694,-0.39888 1.4855,-0.77644 2.23199,-1.116c1.0553,-0.48 1.7399,-0.7 2.63733,-1.14667c0.57214,-0.28477 1.57263,-1.09892 2.02133,-1.59999c0.46109,-0.51488 1.38205,-1.58287 1.90668,-2.05333c0.51315,-0.46017 1.3855,-0.98123 1.9545,-1.88535c0.46368,-0.7368 0.53082,-1.39999 1.07401,-2.39099l0.47549,-0.537" id="svg_8" stroke-width="2" stroke="#000" fill="none"/>
  <path t="15900,16045,16045,16057,16057,16058,16073,16073,16083,16083,16083,16093,16093,16107,16107,16107,16122,16122,16122,16131,16131,16131,16142,16142,16142,16142,16155,16155,16155,16155,16155,16172,16172,16172,16172,16179,16179,16179,16179,16179,16191,16192,16192,16192,16192,16205,16206,16206,16206,16222,16222,16222,16222,16228,16228,16229,16241,16265,16290,16290,16306,16307,16315,16315,16327,16327,16340,16340,16340,16358,16358,16364,16365,16365,16376,16376,16376,16376,16390,16390,16390,16390,16390,16390,16406,16406,16407,16407,16407,16412,16412,16413,16413,16413,16425,16425,16425,16425,16425,16440,16440,16440,16450,16450,16473,16474,16474,16490,16523,16560,16793" d="m491.5,222.89999c1.84668,0 2.68677,0.01125 3.68399,-0.00133c0.81619,-0.0103 1.64886,-0.0132 2.63068,-0.284c0.67963,-0.18745 1.67526,-0.73608 2.48532,-1.104c0.59305,-0.26936 1.61691,-0.4541 2.40002,-0.672c1.03104,-0.28687 1.6235,-0.77754 2.14282,-1.34767c0.68341,-0.75027 1.13565,-1.60533 1.54117,-2.19099c0.5705,-0.82391 1.1637,-1.41014 1.63199,-2.17067c0.5177,-0.84076 0.73059,-1.54118 1.00485,-2.25017c0.2836,-0.73312 0.78589,-1.83028 1.2485,-2.49384c0.46591,-0.66827 1.02094,-1.27037 1.54797,-1.884c0.7688,-0.89513 1.21887,-1.51385 1.94403,-2.40132c0.49744,-0.60878 1.05597,-1.2175 1.70929,-1.79868c0.68512,-0.60945 1.4455,-1.17265 1.83838,-1.44417c1.1759,-0.81271 1.9845,-1.27988 2.78033,-1.71049c0.38739,-0.20959 1.14325,-0.60818 2.24396,-1.08c1.00513,-0.43086 1.6637,-0.65511 2.31934,-0.86217c1.00964,-0.31885 2.09625,-0.60188 2.82654,-0.8045c0.71173,-0.19746 1.69336,-0.48427 2.50195,-0.79549c0.85931,-0.33073 1.76648,-0.59769 2.61884,-0.70467c0.90814,-0.11398 1.51245,-0.64594 2.38403,-1.19984c0.67358,-0.4281 1.55408,-0.83904 2.10535,-1.43599c0.5799,-0.62796 0.83887,-1.44482 1.57733,-2.19734c0.59241,-0.6037 1.38495,-0.91734 2.08063,-1.47116c0.67426,-0.53676 1.40564,-1.36201 1.99933,-1.90617c0.43378,-0.39758 1.44049,-1.19138 2,-1.61066c0.60052,-0.45 1.25446,-0.93256 2.27472,-1.8215c0.36792,-0.32054 1.10571,-1.01671 1.47864,-1.37801c0.75085,-0.72739 1.11298,-1.09958 2.17865,-2.1575c0.66681,-0.66194 1.31665,-1.28523 1.64667,-1.575c0.64966,-0.57045 1.69281,-1.33049 2.42737,-1.79849c0.74408,-0.47409 1.50458,-0.94441 1.86334,-1.21751c1.09424,-0.83299 1.73181,-1.5276 2.34229,-2.23067c0.2998,-0.34526 0.83905,-1.04549 1.62,-1.95683c0.66168,-0.77216 1.25891,-1.37813 1.90033,-2.02182c0.64551,-0.6478 1.33386,-1.35168 1.84668,-1.836c0.51337,-0.48486 1.41302,-1.0755 2.13867,-1.62134l0.04053,-0.8595l0.43146,-0.6685" id="svg_9" stroke-width="2" stroke="#000" fill="none"/>
  <path t="20070,20242,20254,20278,20278,20302,20328,20344,20344,20357,20364,20375,20375,20390,20390,20409,20409,20412,20412,20425,20425,20440,20441,20461,20486,20486,20499,20499,20523,20540,20540,20549,20549,20559,20572,20572,20596,20608,20608,20608,20622,20622,20633,20633,20633,20645,20645,20658,20658,20658,20672,20672,20682,20706,20722,20732,20743,20744,20755,20755,20772,20772,20772,20773,20780,20780,20780,20781,20781,20781,20781,20793,20793,20793,20793,20793,20793,20794,20805,20805,20805,20805,20805,20822,20822,20822,20822,20829,20829,20830,20842,20855,20872,20878,20890,20906,20915,20928,20952,20966,20977,20978,20994,20995,21007,21007,21014,21014,21026,21026,21039,21039,21056,21062,21075,21088,21089,21089,21100,21100,21100,21100,21111,21111,21111,21124,21124,21124,21139,21139,21149,21149,21173,21173,21189,21189,21198,21223,21241,21258,21273,21284,21296,21296,21308,21309,21322,21322,21339,21339,21345,21345,21356,21356,21356,21382,21382,21406,21406,21422,21422,21431,21443,21444,21455,21473,21473,21481,21491,21506,21521,21521,21529,21530,21530,21540,21541,21555,21555,21556,21566,21566,21581,21589,21614,21614,21626,21627,21640,21664,21688,21707,21713,21713,21725,21738,21739,21739,21758,21762,21762" d="m348.5,305.89999c-1.70001,0.05716 -2.53101,0.49033 -3.19867,1.20001c-0.54227,0.57639 -0.79965,1.5 -0.80133,2.32083c-0.00195,0.96182 -0.08411,1.90344 0.61066,2.49384c0.68182,0.57938 1.39032,0.98434 1.98935,1.58533c0.70111,0.70337 1.22128,1.27188 1.69998,2.05267c0.41898,0.68341 0.99179,1.60635 1.45718,2.10001c0.70663,0.74954 1.33508,1.16568 1.90948,2.08066c0.4425,0.70486 0.77219,1.564 1.43335,2.26685c0.50217,0.53381 1.04642,1.4183 1.5,2.03848c0.5412,0.73999 1.59528,0.9675 2.21466,1.29733c0.90186,0.48026 1.22665,1.41452 1.94699,1.55951c0.8735,0.17581 1.75433,0.00449 2.75919,0.00449c1.022,0 1.74048,0 2.53098,0c1.02667,0 1.92734,0 2.94818,0c0.79999,0 1.60001,0 2.60449,0c0.6315,0 1.81668,0 2.61017,0c0.77551,0 1.81467,0 2.58267,0c0.90268,0 1.8027,0.00531 2.70267,0c0.90005,-0.00534 1.68506,-0.30765 2.38535,-0.80133c0.75507,-0.53229 1.56754,-0.9635 2.315,-1.74216c0.43884,-0.45715 0.84763,-1.0563 1.314,-1.737c0.83029,-1.21185 1.12811,-1.68393 1.45499,-2.17285c0.69122,-1.03384 1.05084,-1.56793 1.41602,-2.10666c0.36578,-0.53961 1.44672,-2.10754 1.79315,-2.59698c0.33496,-0.47324 0.98441,-1.3718 1.30066,-1.80133c0.61423,-0.83423 0.92188,-1.23724 1.8205,-2.4415c0.5929,-0.79453 0.88992,-1.18192 1.42834,-1.96417c0.51181,-0.74359 1.13947,-1.80923 1.46216,-2.47433c0.29858,-0.61545 0.63574,-1.51135 1.29251,-2.47501c0.4584,-0.67261 0.79364,-1.30844 1.49649,-2.14499c0.53076,-0.63171 1.72015,-0.42841 2.01016,-1.15234c0.35492,-0.88605 0.65466,-1.444 1.0947,-2.19067c0.41284,-0.70053 0.88739,-1.49728 0.91599,-2.39865c0.02853,-0.89972 0,-1.68533 0,-2.63602c0,-0.76532 0,-1.76401 0,-2.564c0,-1 0,-1.79999 0,-2.79984c0,-0.77933 0,-1.77866 0,-2.59882c0,-0.90134 0.07761,-1.86975 -0.44666,-2.612c-0.60229,-0.85275 -1.18787,-1.27408 -1.80002,-1.76401c-0.88339,-0.707 -1.70486,-1.08203 -2.27417,-1.3045c-0.87241,-0.34091 -1.78046,-0.61655 -2.66849,-0.92084c-0.57562,-0.19724 -1.65167,-0.58261 -2.57468,-1c-0.63702,-0.28809 -1.64276,-0.78485 -2.21515,-1.10001c-0.86703,-0.47739 -1.47241,-1.11081 -2.50485,-1.41599c-0.67056,-0.19821 -1.57996,-0.4613 -2.31467,-0.80002c-0.85699,-0.39511 -1.80133,-0.284 -2.70132,-0.284c-0.89999,0 -1.79999,0 -2.70132,0c-0.96533,0 -1.62402,0 -2.63202,0c-0.79199,0 -1.82382,0 -2.57117,0c-0.99548,0 -1.7955,0 -2.7955,0c-0.79999,0 -1.79999,0 -2.59998,0c-0.80002,0 -1.80673,-0.05881 -2.60001,0.05716c-1.01364,0.14819 -1.79184,0.50992 -2.57849,1.04269c-0.63519,0.43021 -1.53116,0.759 -2.22153,1.46814c-0.49225,0.50562 -1.173,1.18311 -1.89981,1.6535c-0.7095,0.4592 -0.74713,1.50095 -1.33618,2.16785c-0.61432,0.6955 -1.68768,0.80426 -2.19998,1.25732c-0.72049,0.63718 -1.22409,1.15936 -1.88,1.95468c-0.63489,0.76984 -0.89734,1.45322 -1.65067,2.23199c-0.58707,0.60687 -1.38342,0.99054 -1.72351,1.81482c-0.30734,0.74493 -1.05862,1.26996 -1.58899,1.89352c-0.67294,0.79117 -0.41092,1.68118 -0.80484,2.573c-0.32687,0.74002 -0.53006,1.61218 -0.75201,2.48532c-0.21921,0.86227 -0.76398,1.64609 -1.13065,2.39999c-0.3714,0.76364 -0.82291,1.54153 -0.83334,2.54266c-0.00739,0.70798 0,1.452 0,2.48666l0,0.97067l0,0.75717" id="svg_10" stroke-width="2" stroke="#000" fill="none"/>
  <path t="23605,23849,23850,23861,23862,23862,23878,23878,23878,23894,23894,23897,23898,23909,23909,23923,23923,23923,23938,23939,23946,23946,23958,23959,23974,23974,23995,23996,23996,24007,24007,24023,24032,24056,24056,24074,24082,24082,24093,24094,24105,24105,24105,24124,24124,24124,24124,24131,24131,24131,24131,24131,24142,24143,24143,24143,24143,24156,24157,24157,24157,24172,24172,24172,24192,24193,24193,24206,24217,24229,24229,24240,24257,24266,24278,24278,24289,24305,24306,24315,24315,24315,24326,24326,24326,24326,24339,24339,24339,24339,24339,24355,24355,24355,24355,24355,24355,24363,24364,24364,24364,24364,24364,24375,24375,24375,24375,24389,24389,24389,24389,24389,24405,24406,24406,24412,24413,24424,24440,24440,24449,24449,24461,24461,24472,24489,24489,24498,24498,24510,24510,24522,24522" d="m335.5,314.89999c1.16666,-1 1.64746,-1.63522 2.32132,-2.3215c0.50461,-0.51392 1.05887,-1.05795 1.65735,-1.87833c0.55261,-0.75748 0.84274,-1.38718 1.67401,-2.043c0.65094,-0.51352 1.57242,-1.08685 2.23132,-1.55716c0.74942,-0.53491 1.52005,-0.90091 2.31601,-1.30002c0.79953,-0.40091 1.40656,-0.6871 2.39548,-1.19998c0.75247,-0.39026 1.53851,-0.88138 2.15717,-1.45718c0.75406,-0.70187 1.17511,-1.3204 2.08069,-1.90948c0.62479,-0.40643 1.50583,-0.75583 2.16666,-1.35416c0.53082,-0.48062 1.23868,-1.2262 1.79868,-1.77783c0.6962,-0.68576 1.56366,-1.00928 2.30133,-1.42285c0.79285,-0.44449 1.28802,-1.19067 2.00015,-1.87851c0.52713,-0.50916 1.3783,-1.1127 2.1105,-1.5c0.78223,-0.41373 1.63812,-0.77219 2.18933,-1.27148c0.88858,-0.8049 1.2001,-1.49695 1.64166,-2.14932c0.46344,-0.68469 1.28128,-1.65732 1.60101,-1.93652c0.64261,-0.56116 1.3772,-1.01642 2.052,-1.548c1.00299,-0.79013 1.55032,-1.45221 2.04401,-2.14532c0.49045,-0.6886 0.89423,-1.42334 1.6825,-2.30634c0.49713,-0.55685 1.06857,-0.98911 1.569,-1.43399c0.88626,-0.78784 1.32935,-1.42233 1.89249,-2.20901c0.58191,-0.8129 1.11429,-1.38211 1.63333,-1.91464c0.83246,-0.8541 1.12039,-1.80994 1.81735,-2.31866c0.55505,-0.40515 1.56079,-0.51563 2.16666,-1.16669c0.56506,-0.60721 1.12619,-1.12451 1.79468,-1.69998c0.72638,-0.62531 1.12512,-1.43814 1.92667,-1.90002c0.75845,-0.43707 1.60666,-0.7941 2.23581,-1.21432c0.73099,-0.48825 1.50507,-1.19461 2.06369,-1.72733c0.58905,-0.56171 1.47818,-1.45935 1.77948,-1.75833c0.60669,-0.60202 1.22626,-1.21738 1.914,-1.80002c1.0957,-0.92825 1.52573,-1.20395 2.39102,-1.80447c0.44397,-0.30814 1.3515,-0.92136 1.78931,-1.25269c1.29489,-0.97995 1.67941,-1.34747 2.38651,-2.09549c0.34479,-0.36475 0.97137,-1.11453 1.53085,-1.86334c0.53076,-0.71037 0.99939,-1.40195 1.46265,-2.04799c0.67139,-0.93629 1.3855,-1.84167 1.90802,-2.43468c0.52551,-0.59642 1.06769,-1.15509 1.54797,-1.71599c0.64246,-0.75032 1.20004,-1.68237 1.65201,-2.19867c0.6965,-0.79564 1.53433,-1.08372 2.056,-1.88667c0.47568,-0.73215 0.85089,-1.49324 1.36584,-2.24817c0.44266,-0.64894 1.35779,-1.20451 2.04282,-1.39999c0.91095,-0.25995 1.58328,-1.04048 2.17352,-1.431c0.88303,-0.58423 1.68982,-0.54617 2.67899,-0.74217l0.77933,-0.27867l0.85419,-0.33333l0.86215,-0.21933" id="svg_11" stroke-width="2" stroke="#000" fill="none"/>
  <path t="25580,25726,25745,25745,25761,25761,25764,25765,25765,25781,25781,25781,25782,25790,25790,25790,25790,25799,25799,25799,25799,25799,25810,25810,25810,25810,25822,25822,25822,25823,25839,25839,25839,25839,25839,25848,25848,25848,25848,25848,25860,25860,25860,25860,25872,25872,25872,25888,25888,25888,25898,25898,25898,25908,25908,25922,25923,25923,25940,25940,25940,25940,25940,25946,25947,25947,25947,25947,25958,25958,25958,25958,25958,25972,25972,25972,25972,25972,25983,25983,25983,25983,25984,25995,25995,25995,25995,25995,25996,26007,26007,26008,26008,26008,26008,26022,26022,26022,26022,26022,26032,26032,26032,26032,26032,26032,26043,26043,26044,26044,26044,26044,26044,26055,26056,26056,26056,26056,26056,26072,26073,26073,26073,26073,26073,26081,26081,26081,26081,26081,26082,26093,26093,26093,26094,26105,26106,26106,26106,26122,26122,26123,26123,26131,26131,26141,26142,26142,26156,26157,26157,26172,26172,26180,26191,26191,26207,26207,26216,26228,26228,26228,26240,26241,26256,26256,26257,26264,26265,26265,26265,26265,26276,26277,26277,26290,26290,26290,26306,26306,26326,26326,26326,26339,26339,26339,26356,26363,26363,26375,26375,26388,26388,26406,26407,26412,26412,26424,26425,26439,26439,26439,26439,26455,26455,26456,26456,26456,26461,26461,26461,26462,26473,26473,26473,26489,26489" d="m423.5,238.89999c1.52084,-1.5 2.32288,-2.09734 3,-2.5c0.8353,-0.49673 1.50217,-1.0186 2.16666,-1.66666c0.49661,-0.48434 1.03583,-1.07455 2,-1.66667c0.76382,-0.46907 1.37772,-0.6601 2.32001,-1.05066c1.03769,-0.4301 1.76599,-0.76868 2.51334,-1.11601c0.74734,-0.34732 1.83224,-0.836 2.51599,-1.11732c0.65762,-0.27057 1.32016,-0.5219 1.96802,-0.85201c1.056,-0.53807 1.77228,-1.0291 2.49515,-1.5515c0.71924,-0.51978 1.69611,-1.30264 2.2515,-1.79649c0.51617,-0.45898 1.23184,-1.18022 1.936,-2.01601c0.52823,-0.62698 1.06042,-1.32668 1.33334,-1.6875c0.55087,-0.72833 1.33664,-1.81018 1.81467,-2.49384c0.45248,-0.64714 0.87567,-1.27399 1.284,-1.884c0.60266,-0.90033 1.19949,-1.79591 1.56534,-2.40132c0.35944,-0.5948 0.94638,-1.79987 1.21066,-2.37868c0.37015,-0.81062 0.91568,-1.71411 1.46133,-2.15999c0.72708,-0.59415 1.564,-1.14534 2.164,-1.66135c0.60001,-0.51599 1.38583,-1.13936 2.20001,-1.58932c0.78705,-0.43497 1.62808,-0.82979 2.37149,-1.16783c0.92377,-0.42006 1.68143,-0.7312 2.52582,-1.06818c0.44342,-0.17696 1.35336,-0.53828 2.73602,-1.008c0.44324,-0.15057 1.30682,-0.40813 2.125,-0.66667c0.7818,-0.24706 1.88361,-0.64885 2.55765,-0.98532c0.66763,-0.33327 1.30707,-0.72922 1.96802,-1.116c1.03397,-0.60509 1.77914,-0.9973 2.53683,-1.44034c0.79004,-0.46194 1.21109,-0.68842 2.379,-1.60117c0.81805,-0.63933 1.19577,-1.01184 1.96417,-1.74251c0.38196,-0.3632 1.46933,-1.448 1.81467,-1.79333c0.66864,-0.66866 1.32132,-1.32133 1.974,-1.974c0.33133,-0.33133 1.36951,-1.368 1.73132,-1.73267c0.74307,-0.74893 1.12115,-1.13063 1.86334,-1.91916c0.37125,-0.39441 1.43637,-1.59125 1.76599,-1.99684c0.65073,-0.80072 0.97064,-1.20229 1.52499,-2.05583c0.83438,-1.28476 1.04272,-1.76312 1.51801,-2.6955c0.24069,-0.47215 0.72369,-1.4323 1.01065,-1.89467c0.88107,-1.41959 1.28452,-1.8427 1.68768,-2.26466c0.81741,-0.85553 1.27948,-1.23466 1.74133,-1.60533c0.90829,-0.72897 1.8298,-1.36128 2.72,-1.91333c0.4278,-0.2653 1.28284,-0.75061 2.13666,-1.21751c0.43076,-0.23557 1.76913,-0.97261 2.23267,-1.23582c0.95132,-0.54021 1.43222,-0.82196 2.41916,-1.36334c0.49524,-0.27165 1.49057,-0.79643 2.49286,-1.26599c0.49127,-0.23015 1.4585,-0.65114 2.38834,-1.02501c0.4425,-0.17792 1.67273,-0.63652 2.39996,-0.909c0.995,-0.3728 1.62396,-0.61223 2.51453,-1.07399c0.92389,-0.47903 1.52527,-0.87427 2.18518,-1.19467c1.02032,-0.49538 1.75757,-0.7291 2.47296,-0.96317c0.98596,-0.32262 2.02856,-0.66493 2.64569,-1.15683c0.77594,-0.6185 1.23199,-1.20001 1.80048,-1.76851c0.79535,-0.79535 1.38483,-1.38483 1.93835,-1.93832c0.77185,-0.77184 1.35266,-1.35268 1.95715,-1.95717c0.70001,-0.70001 1.29999,-1.29999 1.90002,-1.90001c0.59998,-0.59998 1.16943,-1.25594 1.96667,-1.8c0.63959,-0.43646 1.42444,-0.76385 2.43329,-0.94733c0.79395,-0.14439 1.80933,-0.32599 2.46252,-0.59433c0.80035,-0.3288 1.80084,-0.78128 2.59552,-1.11101c0.84125,-0.34906 1.26764,-0.51808 2.08997,-0.86333c1.08972,-0.45749 1.96619,-0.82053 2.63849,-1.23666c0.84399,-0.5224 1.39777,-1.09135 2.01355,-1.59467c0.97595,-0.79768 1.59723,-1.13712 2.59998,-1.65268c0.59839,-0.30765 1.42407,-0.72453 2.19983,-1.32115c0.60938,-0.46867 1.08276,-1.07104 2.04303,-1.569c0.81592,-0.42311 1.49194,-0.84892 2.24249,-1.30984c0.70587,-0.43346 1.73267,-0.86688 2.29333,-1.2c0.92133,-0.54744 1.2901,-1.34499 2.09332,-1.57466c0.71033,-0.20311 1.73529,-0.38702 2.39996,-0.636c1.05865,-0.39656 1.69598,-0.59906 2.76971,-0.88934c0.7655,-0.20695 1.95789,-0.50179 2.75696,-0.69865c0.39661,-0.09772 1.17487,-0.30984 2.31604,-0.51601c1.05927,-0.19136 1.7287,-0.22617 2.67462,-0.31067c0.60974,-0.05447 1.80939,-0.25867 2.68988,-0.47467l0.56366,-0.14732l1.26917,-0.26866l0.8053,-0.10934" id="svg_12" stroke-width="2" stroke="#000" fill="none"/>
  <path t="27862,28045,28045,28045,28045,28056,28056,28056,28056,28056,28072,28072,28072,28072,28072,28081,28081,28081,28093,28093,28093,28093,28093,28106,28106,28106,28123,28123,28131,28131,28131,28142,28142,28142,28155,28155,28155,28172,28172,28179,28179,28179,28179,28191,28191,28192,28192,28192,28206,28206,28206,28224,28224,28224,28224,28228,28228,28240,28241,28256,28256,28256,28265,28266,28266,28266,28277,28277,28277,28277,28289,28289,28289,28289,28306,28306,28306,28306,28314,28314,28326,28326,28326,28326,28339,28339,28339,28339,28339,28339,28355,28355,28355,28355,28363,28363,28363,28363,28375,28376,28376,28376,28388,28389,28389,28389,28405,28405,28405,28412,28412,28425,28425,28425,28440,28440,28440,28456,28456,28456,28457,28461,28461,28462,28462,28462,28473,28473,28473,28473,28492,28492,28492,28492,28499,28499,28499,28499,28499,28499,28510,28510,28510,28510,28510,28511,28523,28523,28523,28523,28523,28523,28540,28540,28540,28540,28547,28548,28548,28548,28559,28559,28559,28572,28572,28572,28590,28590,28591,28591,28597,28597,28597,28608,28608,28609,28609,28623,28623,28623,28639,28639,28639,28640,28640,28645,28645,28646,28646,28646,28646,28658,28658,28658,28659,28659,28672,28673,28673,28673,28673,28673,28682,28682,28682,28682,28683,28694,28695,28695,28695,28706,28707,28707,28707,28723,28723,28723,28732,28732,28742,28743,28743,28756,28756,28756,28772,28773,28773,28773,28780,28781,28781,28781,28793,28793,28793,28793,28793,28806,28807,28807,28807,28823,28823,28823,28824,28829,28829,28830,28841,28842,28842,28856,28856,28873,28873,28879,28880,28890,28890,28890,28906,28906,28907,28915,28915,28916,28916,28916,28927,28927,28927,28928,28928,28928,28940,28940,28940,28940,28941,28941,28941,28941,28941,28956,28956,28956,28957,28957,28957,28957,28964,28965,28965,28965,28965,28966,28977,28977,28977,28977,28978,28990,28990,29006,29006,29013,29014,29014,29014,29024,29040,29040,29057,29058,29062,29063,29074,29074,29075,29090,29090,29090,29106,29106" d="m341.5,318.89999c4.51599,-2.40134 5.17889,-2.80426 5.82535,-3.23599c0.66306,-0.44281 1.6973,-1.18369 2.05865,-1.44934c0.74405,-0.54697 1.4939,-1.12128 1.86334,-1.41916c1.09576,-0.88354 1.77148,-1.48828 2.40598,-2.08484c0.60529,-0.56909 1.16556,-1.11981 1.92502,-1.8895c0.46341,-0.46964 1.15515,-1.13565 1.755,-2.25449c0.32828,-0.6123 0.53513,-1.31961 0.79199,-2.01602c0.25259,-0.68491 0.82281,-1.90616 1.37466,-2.58817c0.48572,-0.60031 1.26886,-1.29556 1.75266,-1.87231c0.59622,-0.71075 1.0567,-1.46198 1.65186,-2.18484c0.57071,-0.69318 1.19901,-1.19052 1.99548,-1.75351c0.80359,-0.56799 1.36093,-1.12048 2,-1.54199c0.95044,-0.62686 1.64758,-0.62885 2.76666,-1.04315c0.53555,-0.19827 1.36792,-0.70111 1.995,-1.01852c0.99426,-0.5033 1.71841,-0.77484 2.46368,-1.01215c0.74557,-0.23743 1.49463,-0.42114 2.88934,-0.836c0.65125,-0.19373 1.58148,-0.49796 2.48532,-0.80002c0.89166,-0.29797 1.4758,-0.45853 2.22934,-0.79999c0.98657,-0.44705 1.64517,-1.01276 2.42783,-1.50452c0.73984,-0.46484 1.5806,-0.97833 2.13217,-1.55283c0.59735,-0.62216 1.07031,-1.46521 1.45801,-2.448c0.27124,-0.68762 0.44092,-1.41937 0.91931,-2.36133c0.43405,-0.85461 0.85727,-1.30997 1.43466,-2.01599c0.60208,-0.73621 1.20557,-1.55615 1.63467,-2.12802c0.44543,-0.59363 1.17801,-1.49545 1.71219,-2.08032c0.52402,-0.57376 1.27707,-1.34378 1.90915,-1.96616c0.6373,-0.62753 1.46585,-1.32413 2.16602,-1.80002c0.55222,-0.37534 1.18671,-0.77274 2.31,-1.34283c0.82535,-0.41888 1.272,-0.60001 2.16666,-1c0.89465,-0.39999 1.34631,-0.57162 2.55701,-1.19998c0.73779,-0.38293 1.4053,-0.79382 2.034,-1.20001c0.91486,-0.59106 1.8064,-1.20715 2.42984,-1.57916c0.62936,-0.37558 1.64081,-0.86722 2.36182,-1.13684c0.72717,-0.27191 1.49341,-0.42535 2.784,-1.05066c0.58194,-0.28195 1.30502,-0.83981 1.93066,-1.43466c0.81924,-0.77893 1.19427,-1.18579 1.91736,-1.91333c0.73044,-0.73492 1.22113,-1.27496 1.68665,-2.25467c0.35046,-0.73758 0.48834,-1.3226 1.12018,-2.30934c0.46674,-0.7289 0.91049,-1.12917 1.6785,-2.088c0.41028,-0.51224 1.00952,-1.37991 1.34283,-2.05217c0.54089,-1.09093 0.77521,-1.94762 0.909,-2.382c0.27042,-0.8779 0.46008,-1.78593 1.08151,-2.89917c0.37906,-0.67908 0.91245,-1.20966 1.452,-1.668c1.01981,-0.86635 1.53616,-1.23146 2.25632,-1.87366c0.52744,-0.47034 1.45621,-1.29419 1.82266,-1.601c0.7981,-0.6682 1.22702,-1.01576 2.13168,-1.70667c0.45734,-0.34927 1.83289,-1.32428 2.28265,-1.60767c0.86038,-0.54208 1.28857,-0.78534 2.14667,-1.22168c0.85153,-0.433 1.73926,-0.82613 2.65735,-1.22c0.46445,-0.19925 1.39505,-0.58406 2.3075,-0.94415c0.43982,-0.17357 1.66956,-0.6286 2.73782,-1.03185c0.65234,-0.24625 1.28961,-0.4704 2.47202,-1.11066c0.61111,-0.33092 1.2019,-0.7224 1.79999,-1.116c1.20258,-0.79144 1.78589,-1.19333 2.36401,-1.56267c1.06311,-0.67918 1.78586,-1.07884 2.46133,-1.46133c0.94489,-0.53506 1.45905,-0.85803 2.27466,-1.37468c0.54761,-0.34689 1.57697,-0.98169 2.27466,-1.37466c0.67636,-0.38095 1.64804,-0.94449 2.17801,-1.278c0.82413,-0.51862 1.35736,-0.87341 2.36465,-1.46466c0.69943,-0.41055 1.45895,-0.84158 2.32584,-1.42551c0.68124,-0.45888 1.41663,-0.98207 1.81418,-1.24249c0.82513,-0.54053 2.16089,-1.29933 2.62668,-1.52933c0.93527,-0.46181 1.41495,-0.66689 2.36331,-1.08084c0.46814,-0.20435 1.83643,-0.79395 2.6955,-1.2135c0.42383,-0.20699 1.26184,-0.63896 2.05585,-1.16167c0.81784,-0.53839 1.60477,-1.19321 1.99683,-1.53917c0.79343,-0.70009 1.17267,-1.07126 1.91916,-1.8075c1.06982,-1.05513 1.40002,-1.39734 2.04935,-2.04666c0.62534,-0.62534 1.23468,-1.23466 2.13583,-2.13583c0.29883,-0.29884 0.8895,-0.88951 1.46417,-1.46417c1.06934,-1.06934 1.5596,-1.54083 2.19434,-2.21516c0.38635,-0.41045 1.15765,-1.42084 1.54166,-2.02084c0.384,-0.59999 0.95468,-1.42851 1.52084,-1.97916c0.93146,-0.90593 1.58798,-1.2545 2.17917,-1.64616c1.01587,-0.67303 1.60718,-1.21468 2.03598,-1.58534c0.92322,-0.79802 1.43509,-1.20906 2.28485,-1.76849c0.57437,-0.37813 1.46619,-0.88428 2.38815,-1.26367c0.62454,-0.257 1.30081,-0.46977 2.42435,-0.75717c0.83151,-0.21271 1.7175,-0.39912 2.616,-0.59999c0.4454,-0.09958 1.72012,-0.38965 2.47998,-0.60001c1.03302,-0.28596 1.66214,-0.49866 2.87067,-0.89999c0.60028,-0.19933 1.50006,-0.49989 2.10004,-0.7c1.19873,-0.3998 1.79401,-0.58699 2.64282,-0.90001c1.04163,-0.38411 1.72455,-0.69301 2.55585,-1.09999c0.80334,-0.39328 1.59338,-0.75688 2.37994,-1.3c0.67267,-0.46446 1.55316,-1.03908 2.19604,-1.57201c0.71857,-0.59567 1.04938,-1.34563 1.45062,-2.07733c0.51221,-0.93394 1.04352,-1.44136 1.62134,-1.93733c0.93182,-0.79985 1.44269,-1.36568 2,-2.01067c0.29645,-0.34311 0.8891,-1.08383 1.92004,-2.136c0.34674,-0.3539 1.09814,-1.02122 1.50134,-1.34132c0.83875,-0.66592 1.29492,-0.99789 2.83197,-1.992c0.55969,-0.36198 1.1532,-0.71977 1.76703,-1.086c0.62885,-0.37517 1.2735,-0.74939 1.92896,-1.12201c0.65918,-0.37473 1.31915,-0.74786 2.63733,-1.45866c1.27527,-0.68767 1.90082,-1.00894 2.50934,-1.33066c0.59515,-0.31464 1.18176,-0.61261 2.28534,-1.23468c1.04553,-0.58936 1.53381,-0.89371 2.4577,-1.49683c0.44464,-0.29028 1.2879,-0.87607 2.11163,-1.41916c0.79785,-0.52605 1.59155,-1.01311 2.38135,-1.42801c0.74164,-0.38962 1.43286,-0.74078 2.37817,-1.0145c0.96582,-0.27963 1.90784,-0.35695 2.56396,-0.7845c0.85883,-0.55965 1.47516,-1.12102 2.22852,-1.597c0.47693,-0.30132 1.63287,-0.68629 2.45203,-1.14667c0.60687,-0.34106 1.48761,-0.96779 2.146,-1.47183c0.67224,-0.51466 1.07037,-1.31596 1.81934,-2.07617c0.60889,-0.61801 1.28265,-0.9306 2.03314,-1.70934c0.42242,-0.43837 0.96417,-1.20667 1.63348,-2.12399l0.52002,-0.66133" id="svg_13" stroke-width="2" stroke="#000" fill="none"/>
  <path t="30918,31102,31102,31103,31115,31116,31116,31116,31116,31116,31116,31116,31135,31135,31135,31136,31136,31136,31136,31140,31140,31140,31141,31141,31141,31141,31150,31150,31150,31151,31161,31161,31161,31161,31175,31175,31175,31190,31190,31190,31199,31199,31199,31210,31210,31210,31210,31222,31222,31222,31222,31223,31223,31240,31240,31240,31240,31240,31240,31241,31246,31246,31246,31246,31246,31258,31258,31258,31258,31258,31258,31273,31273,31273,31273,31273,31273,31273,31273,31289,31289,31289,31290,31290,31290,31290,31290,31290,31295,31296,31296,31296,31296,31296,31308,31308,31308,31308,31323,31324,31324,31340,31340,31340,31345,31356,31357,31373,31373,31382,31382,31382,31394,31395,31395,31406,31406,31406,31406,31422,31422,31422,31422,31422,31422,31431,31431,31431,31431,31432,31443,31444,31444,31444,31444,31455,31456,31456,31456,31472,31473,31473,31473,31480,31480,31480,31480,31492,31492,31492,31493,31508,31508,31508,31508,31508,31508,31523,31523,31523,31524,31529,31529,31529,31529,31529,31529,31529,31541,31541,31541,31541,31541,31541,31555,31556,31556,31556,31556,31556,31566,31566,31566,31567,31567,31578,31578,31578,31589,31590,31590,31608,31608,31609,31634,31634,31646,31646,31646,31678,31678,31678,31678,31678,31709,31709,31709,31710,31710,31710,31710,31711,31711,31714,31714,31714,31715,31715,31715,31715,31715,31716,31745,31746,31746,31746,31746,31747,31747,31748,31748,31751,31751,31751,31751,31752,31752,31752,31752,31752,31765,31766,31766,31766,31766,31766,31767,31767,31767,31800,31800,31801,31801,31802,31802,31802,31802,31834,31834,31835,31835,31835,31835,31835,31836,31836,31839,31839,31839,31839,31840,31840,31840,31840,31840,31851,31851,31851,31851,31852,31852,31852,31852,31852,31867,31867,31868,31868,31868,31868,31869,31869,31869,31872,31872,31873,31873,31884,31885,31898,31898,31898,31909,31909,31924,31925,31940,31940,31958,31958,31995,31995" d="m342.5,325.89999c1.67517,-1.67065 2.09918,-2.08871 2.63318,-2.57599c1.02405,-0.93445 1.45029,-1.29114 2.39099,-2.091c0.50787,-0.43185 1.03775,-0.87537 1.58249,-1.32901c0.55359,-0.46103 1.11157,-0.92484 2.22668,-1.83731c1.07962,-0.88345 1.60919,-1.30988 2.13065,-1.73068c0.51489,-0.41553 1.02493,-0.82581 2.03467,-1.63467c1.00095,-0.80182 1.50067,-1.20142 1.99869,-1.59866c0.98062,-0.78217 1.45996,-1.16229 1.93066,-1.53067c0.89935,-0.70386 1.73578,-1.34256 2.5,-1.90134c0.68677,-0.50217 1.33337,-0.92505 2.40533,-1.77066c0.49149,-0.38773 1.14011,-1.01489 1.85065,-1.51465c0.71259,-0.50119 1.55182,-0.83804 2.36334,-1.23801c0.79684,-0.39273 1.49631,-0.89902 2.142,-1.422c0.81168,-0.65744 1.62207,-1.19879 2.26782,-1.578c0.96579,-0.56717 1.50937,-0.90842 2.10535,-1.289c0.65674,-0.41937 1.76791,-1.12976 2.6095,-1.64233c0.44531,-0.27121 1.38849,-0.81967 1.88535,-1.09067c0.50681,-0.27643 2.10718,-1.06351 2.66367,-1.30383c0.55826,-0.24109 1.6828,-0.686 2.23734,-0.90067c0.54413,-0.21063 1.59659,-0.59738 2.54166,-1.02084c0.85449,-0.38287 1.61731,-0.79932 2.30399,-1.272c0.69281,-0.47693 1.72217,-1.36627 2.08136,-1.70132c0.76059,-0.70947 1.14734,-1.09909 1.91916,-1.95001c0.40308,-0.4444 1.20319,-1.40405 1.59534,-1.91998c0.81174,-1.06796 1.19571,-1.64594 1.57932,-2.23999c0.39127,-0.60593 0.7746,-1.23389 1.1355,-1.89001c0.74133,-1.34778 1.06967,-2.06641 1.39868,-2.79333c0.33105,-0.73145 0.64343,-1.47192 0.94501,-2.21249c0.2984,-0.73279 0.58109,-1.45792 0.85498,-2.16751c0.52209,-1.35254 0.99979,-2.59476 1.22501,-3.17282c0.21478,-0.55127 0.61627,-1.57602 0.80002,-2.05267c0.49847,-1.29315 0.77554,-2.05609 1.14081,-3.06534c0.21588,-0.59647 0.58987,-1.65594 0.93152,-2.32651c0.43588,-0.85556 1.06177,-1.64514 1.58932,-2.21515c0.50513,-0.54575 1.23514,-1.27145 2,-2.02084c0.51572,-0.50528 1.29504,-1.15326 2.02084,-1.47916c0.94989,-0.42651 1.8064,-0.41315 2.57916,-0.69016c0.84424,-0.30261 1.41507,-0.89297 2.17065,-1.34802c0.8454,-0.50912 1.54309,-0.74219 2.29184,-0.96182c0.79865,-0.23425 2.10422,-0.52054 3.02151,-0.72217c0.46869,-0.10303 1.4187,-0.3089 2.36331,-0.55585c0.47006,-0.12289 1.83649,-0.55092 2.6955,-0.89999c0.42389,-0.17226 1.24902,-0.54837 2.05585,-0.94415c1.20493,-0.59105 1.9975,-0.99734 2.39066,-1.19867c0.77603,-0.39738 1.53629,-0.78099 2.58902,-1.40018c0.66718,-0.39241 1.31619,-0.77655 2.13498,-1.48517c0.80289,-0.69484 1.24249,-1.26202 1.66583,-1.83549c0.6394,-0.86615 1.22086,-1.77916 1.62085,-2.37917c0.39999,-0.60001 0.80389,-1.1974 1.60001,-2.40033c0.40198,-0.60738 0.81497,-1.23264 1.19998,-1.914c0.62463,-1.10544 1.00024,-1.95284 1.2045,-2.38651c0.41415,-0.87936 0.8353,-1.74684 1.08084,-2.14583c0.68909,-1.11978 1.26334,-1.71075 1.87717,-2.2325c0.63882,-0.54298 1.77216,-1.35243 2.18033,-1.66367c0.86984,-0.6633 1.31882,-1.01811 1.77802,-1.37801c0.93164,-0.73019 1.39203,-1.10223 2.75781,-2.1575c0.43594,-0.33682 1.29227,-0.98029 1.72134,-1.28c0.8454,-0.59053 1.26682,-0.88583 2.62134,-1.62033c0.45712,-0.24788 1.40427,-0.6954 1.87866,-0.92134c0.94791,-0.45146 1.43491,-0.65002 2.77832,-1.42099c0.87286,-0.50093 1.26764,-0.79504 2.07501,-1.28166c0.7533,-0.45401 1.8176,-0.9593 2.48502,-1.13484c0.90631,-0.23836 2.02441,-0.44498 2.7045,-0.87233c0.6795,-0.42699 1.44556,-1.14088 2.05264,-1.533c0.73395,-0.47408 1.51624,-0.96558 2.21436,-1.51433c0.7272,-0.57161 1.44684,-1.07524 1.97549,-1.4175c1.03906,-0.67268 1.79944,-1.09024 2.3605,-1.45035c0.71478,-0.45877 1.14169,-0.76259 2.1875,-1.54166c0.64282,-0.47888 1.35287,-1.03087 2.133,-1.638c0.84393,-0.65678 1.74188,-1.36215 2.69098,-2.106c0.99289,-0.77817 2.02051,-1.58853 4.17603,-3.256c1.10654,-0.856 2.2251,-1.71138 3.345,-2.55901c1.10678,-0.83769 2.19458,-1.65216 3.25497,-2.433c1.01636,-0.74838 1.97598,-1.46066 3.73334,-2.67467c0.75729,-0.52315 1.45145,-0.97711 2.08951,-1.3755c0.5849,-0.3652 1.13791,-0.69011 1.6665,-0.98849c0.51111,-0.28851 1.02417,-0.56126 2.07733,-1.136c0.56445,-0.30803 1.15094,-0.63318 1.74899,-0.9765c0.60733,-0.34865 1.21234,-0.70618 1.80301,-1.0755c0.57861,-0.3618 1.14502,-0.70555 2.11465,-1.448c0.43518,-0.33321 0.81256,-0.67386 1.15201,-1.0005c0.31631,-0.3044 0.59766,-0.60397 0.86401,-0.8835c0.25168,-0.26411 0.4765,-0.53337 0.98401,-0.94933c0.2475,-0.20282 0.52747,-0.37868 0.83545,-0.54601c0.7171,-0.3896 1.16876,-0.5815 1.67401,-0.82133c0.5788,-0.27475 1.99176,-0.96365 2.83887,-1.39467c0.93964,-0.47807 1.95612,-1.00641 3.04498,-1.56599c1.14771,-0.58981 2.34454,-1.20164 3.58502,-1.81799c1.26611,-0.62909 3.8515,-1.86177 5.15332,-2.44351c1.28491,-0.57419 2.55383,-1.11388 3.79498,-1.6185c1.19568,-0.48613 2.34412,-0.931 3.435,-1.33049c1.01599,-0.37206 2.80237,-0.97038 3.5567,-1.1875c0.65942,-0.1898 1.24182,-0.33301 1.755,-0.438c0.45044,-0.09216 0.85303,-0.15398 1.21497,-0.20399c0.33142,-0.04581 0.94592,-0.12712 1.24481,-0.18701c0.29993,-0.0601 0.59723,-0.13486 0.88953,-0.22499c0.2915,-0.08989 0.57703,-0.19446 0.85352,-0.315c0.27423,-0.11955 0.8031,-0.38663 1.27179,-0.72234c0.68402,-0.48993 1.25635,-1.07101 2.08539,-1.63066c0.58185,-0.39278 1.61133,-0.86412 2.1955,-1.18983c0.76312,-0.42549 1.5318,-1.17097 1.99384,-1.87016c0.52502,-0.79457 1.07965,-1.41486 1.32666,-2.31067c0.19495,-0.70715 0.3053,-1.71451 0.58398,-2.49384l0.37866,-0.99933l0.17401,-0.71701" id="svg_14" stroke-width="2" stroke="#000" fill="none"/>
  <path t="33335,33492,33492,33513,33514,33514,33519,33519,33519,33520,33532,33532,33533,33533,33533,33533,33546,33546,33546,33546,33546,33546,33546,33557,33557,33557,33557,33557,33557,33557,33567,33567,33567,33567,33567,33567,33567,33578,33578,33578,33579,33579,33579,33579,33591,33591,33591,33592,33592,33592,33592,33592,33606,33606,33606,33606,33606,33606,33606,33616,33616,33616,33616,33616,33616,33628,33628,33628,33628,33628,33640,33640,33640,33640,33640,33640,33656,33657,33657,33657,33657,33657,33665,33665,33665,33665,33665,33665,33666,33675,33675,33675,33676,33676,33676,33676,33689,33689,33690,33690,33705,33706,33706,33706,33713,33713,33713,33725,33725,33726,33726,33726,33740,33740,33740,33740,33740,33756,33756,33757,33757,33763,33763,33763,33763,33774,33774,33774,33788,33789,33806,33806,33812,33824,33824,33841,33850,33860,33860,33873,33890,33890,33898,33909,33923,33939,33939,33946,33947,33958,33959,33959,33959,33974,33974,33974,33974,33990,33991,33991,33995,33995,33996,34007,34008,34008,34023,34024,34024,34040,34045,34045,34057,34074,34074,34074,34083,34093,34093,34108,34108,34108,34124,34124,34124,34125,34131,34131,34131,34143,34144,34144,34157,34157,34173,34174,34174,34180,34180,34192,34192,34192,34207,34208,34208,34224,34224,34229,34229,34241,34241,34241,34257,34257,34257,34266,34266,34266,34278,34278,34279,34291,34292,34292,34292,34292,34308,34308,34308,34308,34309,34315,34316,34316,34316,34316,34326,34326,34326,34327,34341,34341,34341,34341,34357,34357,34358,34364,34364,34365,34376,34377,34377,34391,34391,34407,34407,34408,34408,34413,34414,34414,34414,34414,34414,34425,34425,34425,34425,34426,34426,34426,34426,34426,34441,34441,34442,34442,34442,34442,34442,34443,34443,34449,34450,34450,34450,34450,34450,34451,34451,34451,34461,34461,34462,34462,34462,34462,34462,34463,34463,34473,34473,34474,34474,34474,34474,34475,34475,34475,34490,34490,34490,34491,34491,34491,34491,34492" d="m346.5,332.89999c2.00983,-0.00449 2.7981,0.04221 3.83334,-0.16666c0.72247,-0.14575 1.61221,-0.60016 2.36682,-1.3765c0.43512,-0.44766 0.82339,-1.0174 1.25699,-1.62302c0.71399,-0.99728 1.23145,-1.71951 1.77884,-2.49115c0.28656,-0.40396 0.87564,-1.2569 1.16534,-1.71466c0.92181,-1.45657 1.20126,-1.99664 1.50317,-2.53784c0.61896,-1.10953 0.92865,-1.67712 1.25266,-2.242c0.32532,-0.56714 0.99387,-1.69205 1.72818,-2.76151c0.36417,-0.53033 0.74478,-1.04453 1.1355,-1.54498c0.77219,-0.98907 1.16959,-1.46457 1.97916,-2.375c0.79214,-0.89084 1.20364,-1.31485 1.62134,-1.73068c0.83997,-0.83618 1.28519,-1.24054 1.74933,-1.63467c1.44846,-1.22998 1.99759,-1.60458 2.54367,-2.00131c0.55524,-0.40338 1.12558,-0.80255 1.707,-1.20001c1.17783,-0.80515 2.3786,-1.60013 2.97849,-1.99982c0.59879,-0.39896 1.19537,-0.79614 1.78952,-1.18951c0.58951,-0.39029 1.17203,-0.77872 2.32532,-1.52533c1.11615,-0.7226 1.66287,-1.0654 2.20001,-1.39999c1.04742,-0.65244 1.564,-0.9653 2.07465,-1.27469c1.00836,-0.6109 2.01151,-1.20932 2.51019,-1.51065c0.98862,-0.59735 1.47644,-0.88791 2.39249,-1.5c0.4404,-0.29425 1.63458,-1.17276 2.25333,-1.80267c0.5835,-0.59406 1.06509,-1.26492 1.29834,-1.61166c0.74362,-1.10538 1.24139,-1.95517 1.51349,-2.39551c0.56311,-0.91135 0.84702,-1.37964 1.44418,-2.3075c0.59222,-0.92017 1.19867,-1.79999 1.49866,-2.2345c0.59998,-0.86899 0.91238,-1.30142 1.5,-2.2175c0.61307,-0.95575 0.9075,-1.46933 1.5,-2.5405c0.30389,-0.54941 0.60031,-1.11084 0.89999,-1.67551c0.60062,-1.13168 1.19711,-2.2496 1.49985,-2.79285c0.59003,-1.05884 0.88736,-1.56573 1.17932,-2.05933c0.5596,-0.94608 0.82858,-1.39484 1.59933,-2.61951c0.46024,-0.73126 0.89902,-1.4024 1.31702,-2.034c0.80133,-1.21075 1.19122,-1.80957 1.60449,-2.36731c0.58163,-0.78497 1.1713,-1.43884 1.82132,-1.88034c0.66589,-0.4523 1.8208,-0.98495 2.49753,-1.31851c0.74252,-0.36597 1.5459,-0.7504 1.96915,-0.94415c1.32874,-0.60825 1.79242,-0.8028 2.72668,-1.18802c0.92178,-0.38007 1.37259,-0.5611 2.65198,-1.04398c0.76096,-0.2872 1.47177,-0.51581 2.42435,-0.91934c0.91971,-0.38962 1.51007,-0.72946 2.409,-1.24734c0.60071,-0.34607 1.49231,-0.85046 2.39099,-1.24283c0.8302,-0.36249 1.81543,-0.69781 2.43701,-1.15717c0.72452,-0.5354 1.30457,-1.10727 2.07199,-1.58533c0.84006,-0.5233 1.12851,-1.23833 1.89551,-1.90483c0.60608,-0.52666 1.36417,-0.81735 1.99918,-1.21968c0.83017,-0.52599 0.33298,-1.87715 0.81964,-2.52849c0.48456,-0.6485 1.40939,-0.85254 2.17102,-1.27634c0.80411,-0.44745 1.62088,-0.2271 2.37631,-0.79517c0.60254,-0.45311 1.49646,-1.14006 2.2955,-1.54201c0.55795,-0.28069 1.47162,-0.67661 2.34268,-1.29083c0.61639,-0.43466 1.17297,-0.96466 1.74301,-1.452c1.02441,-0.87581 1.5112,-1.17874 2.35266,-1.75349c0.81567,-0.55714 1.39215,-1.09169 2.00449,-1.59917c0.78467,-0.6503 1.42029,-0.99678 2.20001,-1.53667c0.82129,-0.56866 1.38376,-1.11127 1.91467,-1.632c0.85684,-0.84042 1.41364,-1.57162 2.08533,-2.048c0.74521,-0.52853 1.5755,-0.75824 2.22534,-1.28667c0.70041,-0.56953 1.57938,-1.00247 2.37732,-1.43466c0.65201,-0.35315 1.56454,-0.92358 2.06934,-1.11467c0.83157,-0.31477 2.02798,-0.7 2.62799,-0.89999c0.89999,-0.3 1.50089,-0.49738 2.69867,-0.90001c0.59109,-0.1987 1.45322,-0.47734 2.47983,-0.89999c0.69196,-0.28487 1.51712,-0.70621 2.32285,-1.10001c0.83154,-0.40642 1.76474,-0.80148 2.54684,-1.09999c0.78992,-0.3015 1.73718,-0.67014 2.39047,-1.10001c0.85422,-0.56207 1.50974,-0.99109 2.06586,-1.35716c0.81448,-0.53615 1.58002,-1.23732 2.11017,-1.75883c0.73569,-0.72374 1.3168,-1.34769 1.78531,-2.14117c0.43097,-0.72992 0.78873,-1.54898 1.22086,-2.36366c0.35516,-0.66954 0.79791,-1.40211 1.3045,-2.2045c0.34753,-0.55045 1.00092,-1.6122 1.422,-2.313c0.3718,-0.61876 1.04321,-1.4895 1.836,-1.96167c0.47568,-0.28329 1.78073,-0.82208 2.17133,-0.98532c0.84213,-0.35194 1.74228,-0.72313 2.20166,-0.91917c1.37985,-0.58887 2.25842,-0.99252 2.68201,-1.1955c0.82278,-0.39426 1.60831,-0.78511 2.69501,-1.40001c0.68802,-0.38931 1.33517,-0.80017 1.992,-1.16399c0.65274,-0.36156 1.69077,-0.82939 2.42731,-1.07884c0.7424,-0.25143 1.49979,-0.43506 2.92569,-0.85733c0.66248,-0.19618 1.30692,-0.36308 2.13498,-0.78517c1.04001,-0.53014 1.67465,-1.12622 2.28537,-1.71599c0.61029,-0.58937 1.18134,-1.21046 1.80133,-1.7415c0.77606,-0.66469 1.59668,-1.14267 2.19995,-1.45584c0.99463,-0.51631 1.63947,-0.7831 2.60034,-1.52316c0.64966,-0.50037 1.07379,-0.95865 1.57037,-1.45016c0.8764,-0.86751 1.55261,-1.55132 1.92267,-1.92134c0.79999,-0.79997 1.22998,-1.22998 1.67999,-1.67999c0.95996,-0.95999 1.47015,-1.47017 2.00134,-2.00134c0.55316,-0.55316 1.12933,-1.12932 1.72949,-1.72949c0.62512,-0.62515 1.27631,-1.27634 1.95447,-1.9545c1.44135,-1.44135 2.20587,-2.20584 2.99738,-2.99734c0.81549,-0.81549 1.65198,-1.65199 2.50647,-2.5065c0.86951,-0.86951 1.75098,-1.75099 2.64148,-2.64149c1.79602,-1.79601 2.69501,-2.69583 3.59204,-3.59067c0.89001,-0.88782 1.77063,-1.76399 2.64148,-2.62199c0.85321,-0.84065 1.68732,-1.65845 2.50647,-2.442c1.54919,-1.48187 2.28821,-2.15791 2.99603,-2.79601c0.67236,-0.60611 1.31763,-1.17212 1.935,-1.69949c0.58276,-0.4978 1.13708,-0.95995 1.66498,-1.38451c0.95477,-0.7679 1.39429,-1.09831 1.80267,-1.40533c0.38031,-0.28589 0.73865,-0.54811 1.07404,-0.7935c0.31525,-0.23062 0.61456,-0.44647 0.89398,-0.65849c0.52625,-0.39931 0.76929,-0.60188 1.00269,-0.80267c0.22662,-0.19495 0.44,-0.39066 0.64496,-0.58049l0.19501,-0.18483l0.185,-0.17883" id="svg_15" stroke-width="2" stroke="#000" fill="none"/>
  <path t="38122,38317,38391,38414,38436,38574,38599,38605,38625,38658,38658,38672,38687,38688,38695,38706,38732,38743,38743,38769,38793,38855,38897,38898,38941,38977,38989,39005,39014,39026,39050,39063,39087,39105,39106,39309,39330,39347,39369,39369,39382,39383,39482,39494,39511,39511,39529,39530,39534,39554,39554,39580,39591,39607,39628,39652,39677,39678,39695,39695,39710,39714,39725,39738,39738,39756,39774,39812,39849,39849,39873,39873,39947,40022,40045,40069,40094,40131,40155,40180,40203,40228,40253,40272,40277,40290,40327,40339,40427,40427,40451,40487,40501,40516,40528,40548,40561,40561,40573,40597,40622,40622,40641,40646,40646,40658,40658,40658,40671,40688,40688,40695,40695,40719,40756,40780,40830,40830,40855,40872,40903,40915,40927,40940,40955,40965,40965,40977,40977,40988,41006,41006,41014,41026,41051,41051,41087,41088,41137,41162,41179,41189,41199,41210" d="m537.5,152.89999c-1.70001,0 -2.72565,0.44125 -3.56403,-0.036c-0.69147,-0.3936 -0.43597,-1.564 -0.43597,-2.464c0,-0.89999 0.13165,-1.85005 -0.22131,-2.59999c-0.36505,-0.77554 -0.77332,-1.53595 -0.77869,-2.384c-0.00543,-0.86331 -0.00067,-1.88 0,-2.81599c0.00067,-0.90001 0.23499,-1.65771 0.64734,-2.40001c0.45795,-0.8244 0.74054,-1.61121 1.51935,-2.13333c0.70587,-0.47322 1.63348,-0.18541 2.53333,-0.16667c0.86456,0.01801 1.29773,0.7045 1.29999,1.60001c0.00226,0.89999 0,1.8 0,2.7c0,0.90001 0,1.8 0,2.7c0,0.8 0,1.58568 0,0.70001c0,-0.90134 0,-1.86667 0,-2.52534c0,-1.008 0.15253,-1.79222 0.83331,-2.34132c0.18866,-0.15219 0.16669,0.65199 0.16669,1.57117c0,0.99417 -0.08698,1.7636 0.00134,2.71016c0.08368,0.89674 0.65424,1.68314 1.49866,1.8645c0.88019,0.18906 1.79999,0.02083 2.70001,0.02083c0.89996,0 1.89539,0.24487 2.59998,-0.17065c0.78809,-0.46477 1.00903,-1.34045 1.58936,-2.19334c0.49713,-0.73059 0.90643,-1.36501 1.71051,-1.8575c0.61969,-0.37958 0.72961,-1.3985 0.92096,-2.2785c0.18402,-0.84631 0.91699,-1.59335 0.97784,-2.38533c0.07196,-0.93724 0.01392,-1.63074 0.00134,-2.70399c-0.01044,-0.89001 -0.6106,-1.40533 -1.5,-1.41068c-0.90002,-0.0054 -1.79999,-0.00009 -2.70001,0c-0.89984,0.00009 -1.59094,0.28687 -2.15265,0.94734c-0.53119,0.62457 -0.04871,1.06175 0.40533,1.75717c0.49487,0.75787 1.25354,1.17603 2.14734,1.29683c0.80951,0.10942 1.45258,0.79884 2.29999,0.97783c0.88086,0.18605 1.83862,0.29108 2.79547,0.01634c0.76801,-0.2205 1.26746,-0.93111 2.0257,-1.21701c0.84717,-0.31944 1.30505,-1.15892 1.96417,-1.69449c0.67523,-0.54866 1.51501,-0.88499 2.11469,-1.48401c0.70056,-0.69975 1.23956,-1.23242 1.92114,-1.92133c0.49609,-0.50142 1.21783,-1.13921 1.61749,-2.05334c0.39581,-0.90536 0.63489,-1.62413 0.89465,-2.62533c0.19873,-0.76603 0.59436,-1.43968 1.04517,-2.2215c0.44305,-0.76828 0.15869,-1.77937 0.12152,-2.57851c-0.04272,-0.91764 -0.80133,-1.19933 -1.70001,-1.2c-0.89996,-0.00067 -1.85815,-0.30586 -2.68933,0.01067c-0.75623,0.28799 -0.85968,1.49163 -1.22131,2.164c-0.44574,0.82874 -1.14337,1.35151 -1.36853,2.34617c-0.17682,0.78101 -0.02075,1.65382 -0.02081,2.59383c-0.00012,0.98534 -0.22852,1.84967 -0.57465,2.52133c-0.41852,0.81213 -0.42371,1.71132 -0.42535,2.60684c-0.00171,0.95583 0.35718,1.7 1.20001,1.75716l0.89996,0l0.90002,0" id="svg_16" stroke-width="2" stroke="#000" fill="none"/>
  <path t="42222,42380,42392,42426,42440,42488,42552,42614,42635,42647,42647,42670,42720,42769,42794,42794,42818,42819,42831,42843,42992,43009,43015,43015,43026,43026,43040,43040,43064,43100,43101,43125,43149,43186,43206,43207,43211,43223,43239,43248,43248,43260,43260,43274,43297,43333,43333,43618,43665,43689,43726,43750,43763,43787,43787,43805,43811,43823,43924,44021,44022,44048" d="m558.5,172.89999c0,1.8 0,2.70001 0,3.60001c0,0.8 -0.24341,1.73135 0.00452,2.6955c0.18359,0.71394 1.37225,0.88799 2.09534,0.483c0.73737,-0.41295 0.93237,-1.48979 1.3255,-2.1785c0.46545,-0.81541 0.57465,-1.76666 0.57465,-2.60001c0,-0.83333 0,-1.6955 0,-2.59999c0,-0.90001 -0.18848,-2.30531 0.61066,-2.31734c0.76508,-0.01151 0.99878,1.1339 1.4892,2.11717c0.38684,0.77563 0.62805,1.66743 0.95282,2.49567c0.29279,0.74666 1.0462,1.40561 1.64734,2.0045c0.59888,0.5966 1.39227,1.32869 2.29999,1.29999c0.84937,-0.02686 0.90289,-0.89287 1.01068,-1.81465c0.11218,-0.95921 0.94659,-1.4689 0.98932,-2.35201c0.04028,-0.83237 0,-1.81183 0,-2.52884c0,-0.9045 0,-1.82533 0,-2.7885c0,-0.69066 -0.30023,-2.02469 0.35718,-2.45883c0.78821,-0.52049 1.84283,-0.05717 2.7428,-0.05717c0.90002,0 1.81073,-0.15317 1.89868,-0.88666c0.11047,-0.92146 0.48895,-1.63885 0.91602,-2.39867c0.40137,-0.71405 0.08533,-1.71468 0.08533,-2.51466l0,-0.90001" id="svg_17" stroke-width="2" stroke="#000" fill="none"/>
  <path t="44857,45052,45065,45066,45082,45083,45100,45100,45105,45124,45175,45211,45310,45321,45370,45433,45460,45517" d="m577.5,157.89999c0,-2.62532 -0.00006,-3.48532 0,-4.21066c0.00012,-0.98917 -0.08844,-1.99207 0.22131,-2.76782c0.30927,-0.77457 0.4306,-1.70201 0.7995,-2.50067c0.35614,-0.7711 1.20477,-1.06366 1.85785,-1.74217c0.55774,-0.57947 1.09601,-1.20399 1.64215,-1.75783l0.87921,-0.02084l0.89996,0" id="svg_18" stroke-width="2" stroke="#000" fill="none"/>
  <path t="46685,46818,46831,46832,46847,46857,46857,46872,46890,46904,46904,46952,46989,47115,47138,47138,47199,47225,47225,47345,47346,47383,47398,47431,47445,47480,47517,47531,47544,47591,47628,47701,47715,47715,47731,47824,47836,47860,47864,47864,47879,47879,47889,47889,47889,47897,47897,47898,47908,47933,47970,47987,47994,48022,48022,48046,48056,48237,48302,48326,48327,48350,48388,48411,48414,48414,48414,48424,48424,48440,48455,48461,48474,48474,48489" d="m559.5,137.89999c0.03601,-2.62532 0.30176,-3.47678 0.57465,-4.17465c0.36401,-0.93098 0.23962,-1.86784 0.51068,-2.62534c0.32245,-0.90111 1.25482,-1.30582 1.74799,-2.20001c0.36572,-0.66318 0.91107,-1.3196 1.45068,-1.91599c0.58154,-0.64275 1.30042,-0.93158 2.06781,-1.13667c1.05176,-0.28108 1.80621,-0.84435 2.64819,-0.9265c0.97412,-0.09505 1.6955,-0.02084 2.59998,-0.02084c0.90002,0 1.81738,0.08949 2.42535,0.57467c0.62451,0.49839 1.57465,0.42533 2.47467,0.42533c0.90002,0 1.79999,0 2.70001,0c0.89996,0 1.80084,-0.03719 2.59998,0c0.91766,0.04272 1.48621,0.67743 2.11603,1.284c0.57471,0.5535 1.03711,1.28385 1.07947,2.12501c0.04993,0.99107 0.00452,1.827 0.00452,2.75766c0,0.786 0,1.608 0,2.66667c0,0.92 0,1.67999 0,2.64583c0,0.92084 0,1.82083 0,2.72084c0,0.89999 -0.02539,1.80038 0,2.59999c0.02863,0.90137 0.66284,1.62634 0.91467,2.40001c0.27979,0.85965 0.08533,1.79999 0.08533,2.59999c0,0.90001 0.00006,1.8 0,2.74167c-0.00012,1.00101 0.0462,1.71475 -0.05719,2.453c-0.14685,1.049 -0.37317,1.98416 -0.99548,2.64816c-0.56683,0.6048 -1.58331,0.39317 -2.43134,0.64117l-0.86334,0.36333l-0.89996,0.3" id="svg_19" stroke-width="2" stroke="#000" fill="none"/>
  <path t="52712,52907,52918,52919,52919,52931,52932,52946,52946,52956,52956,52977,52989,52989,53015,53038,53063,53075,53099,53100,53125,53139,53155,53161,53173,53190,53209,53209,53213,53226,53226,53243,53249,53262,53275,53297,53309,53309,53333,53358,53383,53395,53406,53431,53455,53480,53517,53556,53557,53583" d="m389.5,210.89999c0.64667,1.636 1.32971,2.31342 1.82535,2.83601c0.5311,0.55998 1.16232,1.358 1.65381,2.14316c0.53082,0.84801 1.01556,1.50514 1.62085,2.12083c0.59488,0.6051 1.30933,1.29079 1.89999,1.89999c0.57321,0.59122 0.98199,1.39948 1,2.3c0.01801,0.89983 0,1.8 0,2.7c0,0.8 0,1.70001 0,2.60001c0,0.89999 0,1.8 0,2.7c0,0.90001 0,1.80017 0,2.58534c0,0.94 0,1.948 0,2.70399c0,0.91066 0,1.81067 0,2.71066c0,0.90001 0,1.8 0,2.7c0,0.8 0,1.70001 0,2.60001c0,0.89999 0.05957,1.8425 0.57468,2.42534c0.5195,0.58778 1.2637,0.76987 2.12534,1.03183c0.88467,0.26895 1.39999,1.04266 2.09998,1.6575l0.836,0.31067" id="svg_20" stroke-width="2" stroke="#000" fill="none"/>
  <path t="58459,58644,58657,58671,58671,58685,58686,58694,58694,58705,58720,58720,58736,58736,58742,58742,58766,58791,58791,58803,58866,58879,58928,58942,59001,59025,59050,59077,59077,59092,59102,59111,59122,59123,59136,59136,59152,59159,59160,59183,59184,59196,59196,59196,59208,59220,59220,59236,59245,59257,59270,59286,59286,59294,59294,59306,59306,59320,59320,59335,59336,59343,59354,59370,59370,59385,59393,59404,59420,59429,59441,59465,59491,59508,59527,59527,59553,59565,59578,59593,59594,59605,59614,59626,59626,59638,59661,59674,59674,59675,59686,59702,59702,59711,59711" d="m354.5,429.89999c1.564,-0.61066 1.8501,-1.51901 2.56934,-2.19998c0.53336,-0.50497 1.35965,-0.97833 2.056,-1.36401c0.81183,-0.44962 1.79471,-0.3266 2.61749,-0.79315c0.86401,-0.48993 1.22818,-1.255 2.24118,-1.55884c0.66977,-0.2009 1.66754,-0.32376 2.31467,-0.88535c0.64087,-0.55612 1.22345,-1.39954 1.90134,-1.84149c0.73392,-0.47849 1.74826,-0.75354 2.17865,-1.457c0.47528,-0.77682 1.33914,-0.67505 2.03732,-1.18417c0.69855,-0.5094 1.48877,-0.86169 1.91736,-1.716c0.3663,-0.73016 0.20132,-1.71228 0.59198,-2.39999c0.4632,-0.81543 0.478,-1.71683 0.66,-2.48532c0.23123,-0.97629 0.65753,-1.67514 1.31467,-2.47867c0.55353,-0.67685 1.15997,-1.11523 1.69983,-1.95752c0.42929,-0.6698 0.74442,-1.67664 0.87485,-2.46783c0.11932,-0.72372 0.55548,-1.68127 1.12515,-2.31067c0.62518,-0.69073 0.8895,-1.5 0.90018,-2.39999c0.01068,-0.89999 0.41837,-1.62274 0.83334,-2.5c0.33707,-0.71259 0.56207,-1.64169 0.814,-2.40448c0.32324,-0.97879 0.33414,-1.79562 0.35281,-2.79535c0.01456,-0.77948 0.18445,-1.62405 0.57452,-2.3895c0.40833,-0.80127 0.28876,-1.7673 0.70932,-2.61066c0.32993,-0.66165 0.69696,-1.50018 0.716,-2.40002c0.02042,-0.96445 0.81808,-1.39429 0.99866,-2.20132c0.19623,-0.87695 -0.01062,-1.82385 0.42667,-2.59866c0.40991,-0.72632 0.80862,-1.55829 1.22202,-2.29999c0.42566,-0.7637 0.89584,-1.5033 1.23117,-2.40002c0.31808,-0.85065 -0.07034,-1.73322 0.17865,-2.59998c0.21976,-0.76501 1.14984,-1.31818 1.58566,-2c0.52667,-0.82401 0.82697,-1.68661 1.35718,-2.46667c0.4281,-0.62979 0.72192,-1.39584 1.63599,-1.84799c0.79788,-0.39468 1.53867,-0.59601 2.47867,-1.18402l0.58084,-0.44415" id="svg_21" stroke-width="2" stroke="#000" fill="none"/>
  <path t="60379,60474,60509,60526,60526,60546,60546,60561,60572,60587,60595,60607,60607,60621,60638,60645,60645,60655,60656,60669,60669,60669,60686,60686,60686,60692,60704,60720,60729,60741,60741,60766,60779,60779,60791,60803,60803,60822,60822,60828,60828,60828,60840,60840,60852,60853,60869,60869,60877,60877,60888,60902,60913,60913,60925,60937,60937,60952,60952,60963,60974,60986,60986,60986,61004,61004,61004,61012,61012,61012,61024,61024,61035,61036,61054,61062,61085,61099,61099,61113,61127,61128,61137,61137,61147,61147,61158,61159,61171,61187,61195,61208,61208,61220,61220,61237,61238,61246,61246,61256,61257,61257,61270,61287,61288,61295,61306" d="m399.5,363.89999c0.5,-2.47916 0.79303,-3.51147 1.56934,-3.91599c0.70444,-0.36707 1.63803,-0.51804 2.31467,-0.80002c0.89163,-0.37155 1.64154,-0.77158 2.40134,-1.19867c0.71405,-0.40137 1.71466,-0.08533 2.51465,-0.08533c0.90002,0 1.836,0 2.68533,0c0.91919,0 1.91602,0 2.53552,0c1.14581,0 1.93182,0 2.75381,0c1.05869,0 1.76367,0 2.73868,0c0.96582,0 1.78665,0 2.68668,0c0.89999,0 1.79999,0 2.59998,0c0.95718,0 1.85269,0 2.716,0c0.85867,0 1.80551,0 2.69467,0c0.98935,0 1.78934,0 2.78934,0c0.79999,0 1.60001,0 2.60001,0c0.79999,0 1.80658,0.07904 2.564,-0.03598c0.97296,-0.14777 1.56311,-0.70859 2.32001,-1.16269c0.66998,-0.40195 1.76358,-0.69452 2.616,-0.80148c0.90814,-0.11398 1.49503,-0.58521 2.39999,-0.99985c0.8002,-0.36667 1.35706,-0.8483 2.15268,-1.2955c0.83658,-0.47025 1.71661,-0.60144 2.65182,-0.70898c0.87152,-0.10022 1.5368,-0.44415 2.38217,-0.79684c0.99124,-0.41354 1.54172,-0.59039 2.36066,-0.89865c1.03513,-0.38962 1.72031,-0.6925 2.55133,-1.10001c1.00128,-0.491 1.59351,-0.75748 2.51599,-1.39868c0.6004,-0.41733 1.48102,-0.80496 1.93802,-1.50583c0.50418,-0.77319 1.15909,-1.31064 1.59015,-1.99548c0.53864,-0.85574 0.6062,-1.80231 0.96783,-2.47467c0.44583,-0.82892 1.02637,-1.42596 1.58936,-2.30933c0.42896,-0.67307 0.95514,-1.45618 1.36398,-2.10535c0.53308,-0.84637 1.2756,-1.04044 2.10266,-1.57733c0.69894,-0.45374 1.24713,-0.85156 1.98602,-1.19501c0.7269,-0.33786 1.40518,-1.17059 1.97266,-1.77701c0.63635,-0.68002 1.62415,-0.82092 2.37466,-1.19464c0.84482,-0.42068 1.28397,-1.06168 2.24283,-1.55685c0.81653,-0.42166 1.45718,-0.81433 2.15717,-1.49915l0.69983,-0.48935" id="svg_22" stroke-width="2" stroke="#000" fill="none"/>
  <path t="62193,62389,62400,62413,62433,62439,62439,62458,62461,62462,62473,62473,62490,62490,62490,62497,62497,62508,62509,62521,62521,62538,62538,62547,62547,62559,62583,62595,62607,62622,62623,62640,62640,62640,62644,62657,62657,62670,62670,62687,62693,62704,62722,62722,62730,62742,62754,62754,62771,62779,62791,62791,62805,62822,62828,62828,62839,62839,62857,62857,62872,62877,62889,62905,62925,62925,62950,62951,62964,62988,63007,63062,63063,63074,63112,63113,63137,63210,63232,63244,63271,63288,63295,63319,63319,63338,63344,63380,63404,63430,63454,63471,63479,63479,63490,63490,63505,63522,63522,63528,63539,63539,63564,63564,63576,63589,63613,63626,63626,63650,63663,63675,63675,63689,63689,63689,63708,63713,63727,63741,63756,63785,63858,63870,63870,63888,63895,63919,63920,63938,63946" d="m481.5,327.89999c1.70001,-0.05716 2.52615,-0.45639 3.2955,-0.94733c0.70532,-0.4501 1.14838,-1.30927 1.4205,-1.93799c0.38617,-0.89218 0.1907,-1.95779 0.32001,-2.74002c0.14603,-0.88342 0.57254,-1.58636 1.064,-2.57465c0.29871,-0.60065 0.71362,-1.39337 1.09866,-2.20001c0.37885,-0.79367 0.65527,-1.80408 0.80133,-2.57916c0.18961,-1.00604 0.66049,-1.61411 1.19867,-2.50482c0.40405,-0.66876 0.71301,-1.49033 0.79999,-2.31467c0.09479,-0.89825 0.68689,-1.6239 0.94418,-2.50134c0.25378,-0.86545 0.35339,-1.76035 0.63184,-2.37201c0.47543,-1.0444 0.41379,-1.82782 0.42398,-2.56c0.01541,-1.10657 0.00134,-2.08932 0.00134,-2.76801c0,-0.97849 0,-1.79865 0,-2.69998c0,-0.90002 0,-1.82083 0,-2.784c0,-0.69067 0,-1.75885 0,-2.61603c0,-0.89999 0,-1.69998 0,-2.59998c0,-0.936 0,-1.784 0,-2.64734c0,-1.01666 0,-1.85266 0,-2.75284c0,-0.78516 0,-1.73584 0,-2.50116c0,-0.99417 0,-1.91333 0,-2.76266c0,-0.936 0,-1.836 0,-2.73602c0,-0.89999 0.03955,-1.65823 -0.00449,-2.55264c-0.04263,-0.86606 -0.65781,-1.75497 -0.91019,-2.54733c-0.27438,-0.86142 -0.20999,-1.8335 -0.69598,-2.40002c-0.63754,-0.74326 -1.37674,-1.31494 -2.18933,-1.39865c-0.89529,-0.09222 -1.80002,-0.00134 -2.70001,-0.00134c-0.89999,0 -1.79999,0 -2.70001,0c-0.89999,0 -1.79999,0 -2.59998,0c-0.90002,0 -1.80002,0 -2.70001,0c-0.89999,0 -1.79999,0 -2.70001,0c-0.89999,0 -1.79999,0 -2.55716,0c-1.06818,0 -1.75882,0 -2.74283,0c-0.98401,0 -1.67465,0 -2.74734,0c-0.91931,0 -1.75342,0.03873 -2.73114,-0.00015c-0.71872,-0.02859 -1.44406,-0.68539 -2.3215,-0.94269c-0.86548,-0.25378 -1.7569,-0.34686 -2.40002,-0.7045c-0.85312,-0.47443 -1.65451,-0.90598 -2.46664,-1.18597c-0.81921,-0.28244 -1.83334,-0.16669 -2.62268,-0.16669c-0.72534,0 -1.82626,0.01459 -2.61066,-0.42532c-0.72733,-0.4079 -1.75381,-0.25229 -2.47867,-0.79599c-0.64304,-0.48233 -1.43729,-0.58151 -2.12134,-1.112c-0.65854,-0.51068 -1.33875,-1.1543 -1.83334,-1.83334c-0.50034,-0.68695 -0.16666,-1.63333 -0.16666,-2.53333l-0.05716,-0.94284" id="svg_23" stroke-width="2" stroke="#000" fill="none"/>
  <path t="65285,65456,65467,65467,65481,65482,65503,65504,65520,65520,65531,65531,65531,65540,65541,65555,65564,65564,65576,65612,65612,65637,65662,65686,65686,65711,65735,65760,65835,65849,65873,65896,65906,65906,65922,65938,65944,65944,65956,65956,65971,65988,65993" d="m414.5,240.89999c-1.82535,-0.01067 -2.883,-0.08827 -3.47916,-0.52083c-0.80167,-0.58165 -1.39304,-1.24724 -2.34619,-1.45383c-0.68338,-0.14812 -1.58499,-0.44965 -2.05865,-0.99733c-0.65207,-0.75395 -1.10544,-1.53557 -1.63199,-2.26001c-0.58575,-0.80589 -1.17456,-1.43814 -1.48401,-2.28883c-0.34326,-0.94366 -0.60892,-1.64209 -0.91599,-2.59383c-0.28253,-0.8757 -0.83948,-1.42432 -1.06317,-2.38535c-0.20416,-0.87711 -0.40692,-1.63835 -0.73685,-2.29999c-0.42056,-0.84337 0.1142,-1.90259 -0.32001,-2.76401c-0.35226,-0.69887 -0.9519,-1.23741 -0.96399,-2.136c-0.01105,-0.82101 -0.19739,-1.8342 -0.61066,-2.43866c-0.57385,-0.83932 -1.20526,-1.32899 -1.83218,-1.96133c-0.63025,-0.63568 -1.53564,-1 -2.14648,-1.5l-0.70618,-0.7l-0.53784,-0.70001l-0.33331,-0.83333" id="svg_24" stroke-width="2" stroke="#000" fill="none"/>
 </g>
 <g display="none">
  <title>muse_image</title>
  <image xlink:href="http://farm1.static.flickr.com/6/78010527_7398e46227.jpg" id="muse" height="480" width="581" y="0" x="29.5"/>
 </g>
 <g display="none">
  <title>bbox</title>
  <rect stroke="#f00" fill="none" stroke-width="3" height="278.93462" width="356.734" y="141.79177" x="249.118" id="bbox"/>
 </g>
</svg>
