<svg width="640" height="480" xmlns="http://www.w3.org/2000/svg" xmlns:svg="http://www.w3.org/2000/svg" xmlns:xlink="http://www.w3.org/1999/xlink">
 <!-- Sketchy ANNOTATION
  ImageNet ID: n03272010_392
  URL: http://static.flickr.com/3194/2459667783_dfa683b06a.jpg
  Image Width: 457
  Image Height: 500
  BBox X: 190
  BBox Y: 35
  BBox Width: 144
  BBox Height: 451
  Exposure: 2000ms
  Synset Label: guitar
  Synset ID: n03467517
  Worker Tag: black electric guitar
  Sanity Check: 
   Saved
  Comment: 
   {}
  Worker ID: AXD2DZ7U6CK35
  Assignment ID: 3EQHHY4HQSS1IWRA34YERLVTXQSG55
  HIT ID: 3EFNPKWBMSOZ6TVRLHGG2CF88J403M
  Work Time: 41s
  Worker Score: 0.5500
 END ANNOTATION -->
 <g display="inline">
  <title>Layer 1</title>
  <path t="0,13,13,14,14,14,14,14,14,14,20,20,20,20,20,34,34,50,50,50,64,64,81,81,98,99,99,99,114,115,115,115,131,131,131,148,148,148,164,164,164,164,181,182,182,198,198,198,198,215,215,215,232,232,232,249,249,249,265,265,265,281,281,282,298,298,314,315,331,331,331,348,348,348,348,364,365,365,381,381,381,399,399,399,415,415,415,415,415,482,487,487,501,501" d="m256,32c0.83334,3.16667 0.88361,3.97715 0.91467,4.892c0.03369,0.9925 0.05182,2.0373 0.06448,3.108c0.01266,1.07064 0.01755,2.11533 0.0195,3.108c0.00342,1.72533 0.00134,2.4125 0.00134,2.98267c0,0.46617 0,0.84133 0,1.90933c0,0.81433 0,1.76933 0,2.52083c0,0.7965 0,1.79383 0,2.6685c0,1.01083 0.00323,1.8315 0,2.97733c-0.00226,0.79501 0.0087,1.37748 -0.08533,2.32c-0.10358,1.03841 -0.26733,1.766 -0.41467,2.51333c-0.14734,0.74733 -0.3848,2.17772 -0.44733,2.83833c-0.08652,0.91424 -0.18492,2.00509 -0.40984,2.709c-0.22031,0.68951 -0.65263,1.61568 -0.94284,2.40984c-0.31053,0.84973 -0.50804,1.44152 -0.89867,2.64283c-0.19467,0.59871 -0.48148,1.4929 -0.63466,2.4c-0.15105,0.89453 -0.17142,1.80238 -0.25067,2.4c-0.15997,1.20621 -0.43047,2.10198 -0.6205,2.7c-0.38258,1.20396 -0.61415,1.78868 -0.8595,2.664c-0.29762,1.06181 -0.35779,1.78667 -0.48868,2.68867c-0.14122,0.97321 -0.3842,1.78046 -0.52199,2.358c-0.28244,1.18391 -0.38666,2.07951 -0.41467,2.91733c-0.03137,0.9382 -0.01067,1.75117 -0.01067,2.75867c0,0.76 -0.01233,1.68017 0.0045,2.4705c0.01819,0.85389 0.14259,2.04705 0.28084,2.64149c0.20647,0.88776 0.48241,1.7301 0.916,2.716c0.29683,0.67492 0.66267,1.30035 1.28265,2.08667c0.49919,0.63313 1.08647,1.25331 1.632,2.28533c0.28827,0.54535 0.62309,1.4807 1.05067,2.48c0.3076,0.7189 0.65009,1.44168 1.00798,2.136c0.3334,0.64682 1.06369,1.81233 1.70386,2.13284l0.11081,-0.6675l0.01068,-0.96799l0,-0.8" id="svg_1" stroke-width="2" stroke="#000" fill="none"/>
  <path t="1457,1463,1463,1463,1463,1463,1487,1487,1487,1499,1515,1533,1549,1565,1565,1583,1600,1615,1632,1633,1633,1649,1665,1683,1699,1700,1715,1716,1732,1749,1749,1749,1765,1765,1765,1782,1783,1799,1800,1815,1815,1815,1816,1832,1832,1832,1850,1850,1865,1865,1865,1883,1883,1899,1900,1915,1915,1915,1932,1933,1933,1950,1950,1966,1966,1983,1983,1983,1999,2000,2015,2015,2016,2032,2033,2033,2049,2050,2050,2065,2065,2082,2082,2100,2100,2115,2133,2133,2149,2149,2165,2183,2199,2216,2216,2216,2232,2233,2233,2249,2250,2265,2266,2283,2283,2283,2299,2300,2300,2315,2419,2432,2433,2449,2465,2465,2483,2483,2483,2499,2499,2500,2500,2515,2516,2532,2532,2533,2549,2550,2565,2566,2582,2583,2600,2679,2731,2783,2799" d="m257,31c1.10684,-1.98533 1.76553,-2.71283 2.13733,-3.10133c0.76733,-0.80183 1.15472,-1.18978 2.19601,-2.232c0.52444,-0.5249 1.14725,-1.38427 2.06665,-1.63067c0.87003,-0.23316 1.80002,-0.036 2.70001,-0.036c0.89999,0 1.70016,-0.01799 2.60001,0c0.90054,0.018 1.68661,0.46978 2.46664,1c0.62979,0.4281 1.15585,0.8911 1.8815,1.64283c0.59064,0.61186 0.94141,1.37783 0.95184,2.33583c0.00842,0.77395 -0.11673,1.6941 0.08533,2.53733c0.21521,0.8981 0.80731,1.64283 0.89383,2.52567c0.06293,0.64222 0.02084,1.64233 0.02084,2.45833c0,0.816 0,2.04283 0,2.68933c0,1.01083 0,1.8315 0,2.97733c0,0.7905 0,1.644 0,2.23466c0,1.19733 0.00055,2.07784 0,2.91333c-0.00067,1 0.06573,1.68066 -0.16666,2.68533c-0.18945,0.81915 -0.62643,1.58552 -0.77618,2.5955c-0.10989,0.74109 -0.05716,1.8005 -0.05716,2.45917c0,0.99866 0,1.96616 0,2.6445c0,1.25784 0,2.02884 0,2.69183c0,1.009 0,1.809 0,2.809c0,0.8 0,1.8 0,2.6c0,0.8 -0.07791,1.81979 0.11432,2.65717c0.22791,0.99277 0.74252,1.77084 1.07101,2.3175c0.63931,1.06394 1.06497,1.76421 1.40399,2.41467c0.42001,0.80587 0.81039,1.61081 1.21066,2.41067c0.39975,0.79881 0.7709,1.58259 1.29984,2.37867c0.44052,0.66301 0.74496,1.51966 0.95285,2.36867c0.22461,0.91731 0.85938,1.64001 0.94284,2.40983c0.09653,0.8903 0.00449,1.75883 0.00449,2.722c0,0.92084 -0.01025,1.82539 0,2.6875c0.01044,0.87518 0.05444,1.52666 0.284,2.51733c0.19055,0.82232 0.48782,1.62251 0.63068,2.63067c0.12314,0.86916 0.08533,1.88533 0.08533,2.68533c0,1 -0.03793,1.81618 0.08533,2.68533c0.14279,1.00685 0.43228,1.78899 0.63068,2.54533c0.24905,0.94945 0.50705,1.94117 0.11734,2.76933c-0.35687,0.75838 -1.37088,0.94668 -2.15485,1.2215c-0.7179,0.25166 -1.68329,0.76917 -2.48917,1.18917c-0.65045,0.339 -1.61203,0.90849 -2.142,1.242c-0.82413,0.51862 -1.35205,0.88258 -2.362,1.46201c-0.65738,0.37716 -1.67841,0.89982 -2.28534,1.18083c-0.79141,0.36643 -1.79758,0.65218 -2.60001,0.69383c-0.99854,0.05183 -1.78049,-0.04092 -2.77847,0.01083c-0.82349,0.04271 -1.52151,0.49983 -2.42151,0.96383l-0.89999,0.036l-0.89868,-0.00134l-0.716,-0.284" id="svg_2" stroke-width="2" stroke="#000" fill="none"/>
  <path t="3941,4051,4059,4059,4067,4083,4100,4100,4115,4115,4115,4115,4132,4132,4132,4132,4132,4149,4149,4149,4149,4149,4165,4165,4165,4165,4165,4165,4166,4182,4182,4182,4182,4182,4183,4199,4199,4199,4199,4199,4199,4200,4215,4215,4216,4216,4216,4216,4216,4233,4233,4233,4233,4233,4233,4233,4249,4250,4250,4250,4250,4250,4250,4250,4250,4264,4265,4265,4265,4265,4265,4265,4265,4283,4283,4283,4284,4284,4284,4299,4299,4299,4299,4299,4299,4299,4315,4315,4315,4315,4315,4315,4315,4315,4331,4331,4332,4332,4332,4332,4332,4349,4349,4349,4349,4349,4349,4349,4364,4365,4365,4365,4365,4365,4365,4382,4382,4382,4382,4382,4382,4382,4399,4399,4399,4399,4399,4399,4399,4415,4415,4415,4415,4415,4415,4415,4415,4415,4431,4431,4432,4432,4432,4432,4432,4432,4432,4448,4449,4449,4449,4449,4449,4449,4449,4449,4464,4464,4464,4464,4465,4465,4465,4465,4465,4481,4481,4482,4482,4482,4482,4482,4482,4482,4498,4499,4499,4499,4499,4499,4499,4499,4499,4514,4514,4514,4515,4515,4515,4515,4515,4515,4531,4532,4532,4532,4532,4548,4549,4564,4581,4581,4582,4582,4582" d="m263,108c-0.83334,-1.83334 -1.17355,-0.96175 -0.91467,-0.2c0.30176,0.88792 0.81372,1.63348 1.20001,2.404c0.35324,0.7046 0.83279,1.55493 1.11465,2.504c0.21384,0.72003 0.40048,1.49588 0.70001,2.692c0.20032,0.79991 0.29999,1.2 0.5,2c0.19998,0.8 0.49884,2.00083 0.7045,2.8135c0.21497,0.84935 0.45117,1.75839 0.58084,2.2425c0.43106,1.60949 0.59872,2.19731 0.76733,2.8065c0.17273,0.62415 0.52322,1.89717 0.69464,2.53667c0.16989,0.63383 0.49048,1.86644 0.76868,3.03151c0.13348,0.55899 0.25577,1.10866 0.50934,2.18399c0.12589,0.53384 0.53711,2.1532 0.69617,2.70683c0.32703,1.13818 0.51297,1.715 0.69934,2.29933c0.18829,0.59033 0.5802,1.78059 0.97916,2.97917c0.19968,0.59988 0.59674,1.79509 0.78934,2.38933c0.19104,0.58945 0.38522,1.17151 0.72534,2.32533c0.32889,1.11571 0.6037,2.20508 0.73715,2.74617c0.13455,0.54558 0.40741,1.67303 0.55801,2.26334c0.15729,0.61639 0.52026,1.94345 0.733,2.66133c0.22311,0.75284 0.46509,1.53026 0.71848,2.32651c0.2576,0.80943 0.52313,1.62296 0.7905,2.43449c0.26462,0.80313 0.78201,2.35335 1.02652,3.089c0.23544,0.70834 0.46692,1.39079 0.88,2.702c0.1983,0.62946 0.38828,1.24667 0.55499,1.85851c0.48975,1.79736 0.60428,2.40231 0.73401,2.9995c0.12894,0.59348 0.37115,1.77003 0.50531,2.34734c0.39398,1.69527 0.56348,2.23782 0.73267,2.77583c0.3399,1.08078 0.53857,1.62196 0.91919,2.74834c0.19839,0.58713 0.59872,1.83203 0.7955,2.49699c0.20331,0.68703 0.40076,1.39378 0.59998,2.112c0.20078,0.72379 0.59592,2.16718 0.80002,2.87199c0.39215,1.35429 0.59369,1.98984 0.80133,2.59734c0.39703,1.16162 0.61417,1.71513 0.83466,2.25867c0.43878,1.08168 0.92865,2.1636 1.18533,2.7175c0.52719,1.13759 0.80496,1.71407 1.07867,2.29933c0.27563,0.58939 0.56952,1.17412 1.33334,2.97917c0.25253,0.59677 0.48492,1.19731 0.7095,1.7955c0.44342,1.18103 0.64612,1.76862 0.85266,2.34734c0.60345,1.69087 0.80316,2.23633 1.00449,2.77316c0.39737,1.05966 0.60162,1.58337 1,2.63667c0.20084,0.53102 0.60263,1.61307 1.00269,2.73799c0.2077,0.58401 0.41769,1.18834 0.63898,1.81351c0.47067,1.32971 0.72318,2.04066 1.29169,3.5625c0.30634,0.82001 0.63446,1.67125 0.9765,2.54849c0.34995,0.89745 0.70981,1.80614 1.0755,2.7195c0.3653,0.91232 0.72897,1.8159 1.448,3.56534c0.34357,0.83592 0.68002,1.64265 1.005,2.424c0.315,0.75732 0.62112,1.49222 0.91498,2.20801c0.2861,0.69688 0.56763,1.37569 1.08002,2.70132c0.24921,0.64474 0.48615,1.28856 0.71848,1.93651c0.23572,0.65738 0.47028,1.33391 0.7095,2.03549c0.24982,0.73273 0.50848,1.50519 1.07202,3.19467c0.30957,0.92809 0.63507,1.9052 0.97198,2.9205c0.34576,1.04201 0.69559,2.10002 1.04401,3.1635c0.34625,1.05685 0.68814,2.0956 1.31732,4.08267c0.29291,0.92502 0.56427,1.80618 0.819,2.64749c0.24387,0.80537 0.47369,1.58136 0.69302,2.3325c0.21332,0.73055 0.41907,1.44655 0.82132,2.85333c0.20004,0.69962 0.39926,1.39719 0.59549,2.091c0.19443,0.6875 0.38495,1.36697 0.56851,2.03699c0.18008,0.65735 0.35727,1.29965 0.66934,2.53867c0.14847,0.58939 0.28265,1.16135 0.414,1.71451c0.12732,0.53616 0.25003,1.05701 0.37799,1.56149c0.12476,0.49185 0.24179,0.97467 0.54132,1.89069c0.1463,0.44745 0.30618,0.88135 0.64801,1.69867c0.315,0.75317 0.85199,1.96799 1.11334,2.73865c0,0 -0.371,-1.03549 -0.64233,-1.65115l-0.32733,-0.72366l-0.36734,-0.82367l-0.19366,-0.44684" id="svg_3" stroke-width="2" stroke="#000" fill="none"/>
  <path t="5237,5251,5251,5251,5251,5251,5251,5251,5259,5259,5259,5267,5267,5267,5283,5284,5284,5299,5299,5299,5299,5299,5299,5315,5315,5315,5315,5315,5315,5315,5332,5332,5332,5332,5332,5332,5349,5349,5349,5349,5349,5349,5349,5349,5365,5365,5365,5365,5365,5365,5365,5365,5365,5382,5382,5382,5382,5382,5382,5382,5382,5399,5399,5399,5399,5399,5399,5399,5416,5416,5416,5416,5416,5416,5416,5416,5432,5432,5432,5432,5432,5432,5433,5449,5449,5449,5449,5449,5449,5449,5465,5465,5465,5465,5465,5466,5482,5482,5483,5483,5483,5499,5499,5499,5499,5499,5499,5515,5515,5515,5515,5515,5515,5515,5532,5532,5532,5532,5532,5532,5549,5549,5549,5549,5549,5549,5565,5565,5565,5565,5565,5582,5582,5582,5584,5584,5599,5599,5599,5600,5600,5615,5615,5615,5615,5615,5615,5616,5632,5632,5632,5632,5632,5632,5649,5649,5649,5649,5649,5665,5665,5665,5665,5682,5682,5682,5682,5682,5699,5699,5699,5715,5715,5715,5715,5732,5732,5749,5749,5749,5765,5782,5806,5807,5826,5935,5950,5965,5982,5982,5999,5999,5999,6015,6015,6032,6032,6032,6032,6049,6049,6049,6065,6065,6084,6084,6114" d="m284,106c2.66666,12.5 2.85681,13.40604 3.02933,14.228c0.15616,0.74404 0.4256,2.02277 0.54935,2.568c0.21277,0.93736 0.49905,2.0477 0.82132,2.90667c0.28079,0.74849 0.7186,1.71215 0.98935,2.52266c0.27252,0.81589 0.4874,1.85416 0.59598,2.58134c0.12213,0.81786 0.34052,1.86206 0.58401,2.73466c0.13632,0.48853 0.4527,1.54164 0.616,2.10133c0.16776,0.57497 0.6517,2.35645 0.79333,2.95717c0.14099,0.59798 0.39548,1.7896 0.52133,2.37933c0.12482,0.58493 0.36771,1.73973 0.66666,2.85416c0.14688,0.54753 0.48639,1.6154 0.66934,2.14134c0.36646,1.05354 0.57458,1.57578 1.164,3.192c0.20224,0.55457 0.40292,1.12212 0.60449,1.70399c0.41968,1.21152 0.63196,1.84785 0.85266,2.50534c0.22864,0.68117 0.7095,2.12399 0.96417,2.888c0.26266,0.78799 0.53134,1.59399 0.80402,2.41199c0.27466,0.82401 0.54932,1.64801 0.82199,2.466c0.26868,0.806 0.78583,2.35806 1.03116,3.09334c0.23602,0.7074 0.46371,1.38887 0.68552,2.04599c0.21454,0.63556 0.41998,1.25255 0.83466,2.42934c0.39624,1.12448 0.8017,2.20837 1.00583,2.74567c0.2052,0.54005 0.6315,1.64101 0.85266,2.21068c0.22818,0.58766 0.71045,1.83264 0.96402,2.49699c0.26248,0.68764 0.79568,2.11121 1.05798,2.836c0.26172,0.72321 0.51678,1.44006 0.7515,2.14799c0.44702,1.3484 0.63177,1.98621 0.80002,2.59734c0.3179,1.15465 0.44733,1.71329 0.7175,2.79834c0.13391,0.5378 0.40976,1.62553 0.73715,2.74033c0.16739,0.56999 0.34421,1.14346 0.72534,2.29066c0.19061,0.57376 0.38269,1.14423 0.98917,2.80383c0.19629,0.53712 0.59192,1.58463 0.77933,2.10068c0.36844,1.0146 0.55893,1.51247 0.99951,3.02066c0.14508,0.49664 0.39456,1.48987 0.52133,1.97934c0.24982,0.96442 0.65976,2.35661 0.8215,2.79984c0.32202,0.88242 0.70099,1.76198 0.88916,2.21832c0.39413,0.9559 0.80109,1.99867 1.18802,3.15601c0.203,0.60713 0.39362,1.23245 0.58047,1.86749c0.18784,0.63831 0.5426,1.91071 0.85419,3.14584c0.14871,0.58949 0.41302,1.71922 0.54132,2.26132c0.24878,1.05113 0.35367,1.56989 0.79199,3.07201c0.14658,0.50227 0.4841,1.49617 0.65869,1.98933c0.34552,0.97601 0.54099,1.44701 1.008,2.84399c0.2933,0.87741 0.53305,1.73001 0.64581,2.14584c0.22101,0.81508 0.52084,2.02083 0.72086,2.82083c0.19998,0.8 0.39996,1.59999 0.59998,2.39999c0.30014,1.20052 0.50305,2.01387 0.72086,2.8625c0.11438,0.44569 0.36172,1.39424 0.64581,2.4375c0.3143,1.15417 0.48639,1.76241 0.65869,2.38667c0.17502,0.63405 0.52454,1.91182 0.69064,2.54666c0.32236,1.23204 0.46735,1.82237 0.72684,2.94783c0.1235,0.53563 0.34616,1.56158 0.45267,2.05267c0.30356,1.3997 0.50174,2.28148 0.7045,3.13016c0.19733,0.82597 0.39609,1.63565 0.70016,2.83583c0.20175,0.79633 0.39822,1.58665 0.65701,2.343c0.37711,1.10214 0.7186,1.77625 1.06818,2.42117c0.34134,0.62973 0.73209,1.2149 1.28931,2.436c0.26974,0.59113 0.58218,1.49954 0.88535,2.39999c0.30133,0.89505 0.59119,1.7673 0.79999,2.31467c0.38388,1.00632 0.80008,1.87463 1.20001,2.68533c0.3894,0.78931 0.6582,1.5332 1,2.47916c0.30359,0.84021 0.78806,1.65408 1.08401,2.32083c0.38077,0.85779 1.05893,1.85745 0.30533,2.18933c-0.73224,0.32245 -1.71579,0.07486 -2.60001,-0.02533c-1.00018,-0.11331 -1.59433,-0.38919 -2.38934,-0.76532c-1.01559,-0.48047 -1.65765,-0.82736 -2.73334,-1.03201c-0.62857,-0.11957 -1.66653,-0.15237 -2.36133,-0.16217c-0.97189,-0.01367 -2.03333,-0.00491 -2.69632,-0.00449c-1.00769,0.00067 -1.95184,0.05716 -2.85635,0.35266l-0.63666,0.36334l-0.93066,0.23734" id="svg_4" stroke-width="2" stroke="#000" fill="none"/>
  <path t="6846,6947,7016,7016,7043,7095,7135,7151,7151,7166,7183,7199,7216,7216,7233,7233,7249,7249,7266,7266,7283,7283,7299,7299,7299,7316,7316,7333,7333,7349,7349,7366,7366,7366,7383,7383,7383,7399,7399,7399,7416,7416,7416,7416,7433,7433,7449,7449,7449,7465,7466,7466,7466,7483,7483,7499,7499,7516,7516,7532,7533,7549,7566,7566,7583,7583,7599,7599,7599,7616,7616,7632,7632,7633,7648,7649,7665,7665,7682,7682,7683,7698,7698,7699,7715,7716,7732,7733,7748,7749,7765,7765,7766,7782,7783,7799,7799,7814,7814,7831,7831,7847,7847,7865,7865,7881,7881,7897,7897,7914,7931,7932,7947,7947,7947,7964,7981,7982,7997,8014,8014,8032,8032,8032,8047,8064,8064,8081,8081,8081,8097,8114,8131,8131,8131,8147,8164,8164,8181,8182,8197,8214,8231,8231,8247,8264,8282,8282,8297,8314,8314,8331,8347,8347,8365,8365,8386,8386,8406,8406,8414,8454,8514,8534,8550,8566,8566,8581,8597,8614,8632,8647,8647,8664,8681,8681,8712,8712,8718,8718,8732,8732,8748,8748,8748,8771,8771,8782,8782,8782,8798,8798,8798,8798,8815,8815,8815,8831,8831,8832,8832,8847,8847,8848,8848,8864,8865,8865,8865,8881,8882,8882,8897,8897,8898,8898,8898,8914,8915,8915,8915,8932,8932,8932,8932,8947,8947,8948,8948,8964,8964,8965,8965,8965,8981,8981,8982,8982,8982,8982,8997,8998,8998,8998,8998,9014,9015,9015,9015,9015,9031,9031,9032,9032,9032,9032,9032,9047,9048,9048,9048,9048,9064,9065,9065,9065,9065,9081,9082,9082,9082,9082,9097,9098,9098,9098,9114,9114,9115,9115,9115,9132,9132,9132,9132,9132,9147,9148,9148,9148,9164,9165,9165,9165,9182,9182,9182,9197,9198,9214,9215,9215,9231,9232,9232,9247,9248,9264,9265,9265,9265,9281,9282,9282,9299,9316,9316,9316,9333,9333,9333,9348,9348,9398,9406,9426,9434,9458,9474,9474,9486,9497,9498,9515,9532,9532,9547,9565,9565,9581,9582,9598,9615,9615,9631,9632,9647,9648,9664,9682,9682,9698,9698,9698,9698,9714,9715,9715,9731,9732,9732,9803,9895,9895,9906,9930,9949,9982,9999,9999,10042,10066,10083,10099,10116,10133,10133,10147,10148,10166,10166,10166,10182,10182,10198,10198,10215,10215,10215,10215,10231,10232,10232,10247,10248,10248,10248,10265,10265,10265,10282,10282,10282,10298,10298,10315,10315,10315,10332,10332,10348,10348,10349,10365,10365,10365,10382,10382,10382,10398,10398,10398,10398,10399,10415,10415,10432,10432,10432,10447,10448,10448,10448,10465,10465,10465,10465,10465,10481,10482,10482,10482,10499,10499,10499,10499,10516,10516,10516,10516,10531,10532,10532,10532,10532,10532,10547,10548,10548,10548,10566,10566,10566,10566,10567,10582,10582,10582,10582,10583,10600,10600,10600,10600,10616,10616,10616,10616,10617,10617,10617,10632,10632,10632,10632,10632,10649,10649,10650,10650,10650,10665,10665,10665,10665,10684,10684,10684,10684,10698,10698,10698,10699,10715,10715,10715,10734,10734,10807" d="m308,249c-0.5,1.02083 -0.91193,1.8222 -0.99551,2.6955c-0.08621,0.90041 0.21191,1.89755 -0.28983,2.5885c-0.52966,0.72937 -1.54919,0.51938 -2.41467,0.77316c-0.87744,0.25729 -1.60306,0.91425 -2.46664,0.94284c-0.83289,0.02759 -1.82501,0.09521 -2.586,-0.05716c-0.93024,-0.18626 -1.63303,-0.59244 -2.362,-1.14284c-0.72614,-0.54826 -1.31512,-1.20538 -1.77069,-1.77068c-0.62564,-0.77634 -1.104,-1.53694 -1.63065,-2.26132c-0.58694,-0.80733 -1.11191,-1.35681 -1.68402,-2.252c-0.42981,-0.67253 -0.87296,-1.5182 -1.43597,-2.14134c-0.65491,-0.72485 -1.21017,-1.19225 -1.71133,-1.77916c-0.65958,-0.77243 -1.14673,-1.61981 -1.53668,-2.28084c-0.59232,-1.00404 -0.94052,-1.548 -1.32666,-2.08934c-0.76688,-1.07504 -1.18973,-1.5385 -1.76849,-2.2045c-0.53714,-0.6181 -1.12573,-1.42801 -1.64618,-2.22083c-0.53009,-0.80748 -1.03699,-1.40002 -1.58533,-2.036c-0.79688,-0.92422 -1.1925,-1.44342 -1.76849,-2.24318c-0.36655,-0.50894 -0.97256,-1.40137 -1.61017,-2.09949c-0.58813,-0.64397 -1.12589,-1.1902 -2.06784,-1.71684c-0.71933,-0.40218 -1.53824,-0.63289 -2.50684,-0.69383c-0.94882,-0.05971 -1.836,-0.01067 -2.59317,-0.01067c-0.90448,0 -1.7045,0 -2.66415,0c-0.80402,0 -1.62607,-0.01173 -2.65717,0.00017c-0.90085,0.01041 -1.92706,0.1499 -2.7215,0.42517c-0.60449,0.20946 -1.60352,0.46756 -2.40002,0.59999c-1.00525,0.16714 -1.80551,0.48413 -2.79999,0.97467c-0.60342,0.29765 -1.42709,0.72058 -2.19983,1.32133c-0.6123,0.47603 -1.14413,1.02487 -1.91484,1.79333c-0.58168,0.57997 -1.22867,1.15518 -1.68533,1.77066c-0.67862,0.91463 -0.94296,1.58484 -1.52133,2.53584c-0.32346,0.53186 -0.83244,1.33267 -1.51199,2.2455c-0.39311,0.52806 -1.07678,1.32088 -1.16217,2.0905c-0.09924,0.89455 0.00665,1.66542 -0.2885,2.64149c-0.23695,0.78363 -0.67207,1.71393 -0.71468,2.48534c-0.05249,0.95055 -0.00133,1.71733 -0.00133,2.716c0,0.79999 0,1.79866 0,2.74283c0,0.9045 0,1.82384 0,2.67799c0,0.97917 0,1.76851 0,2.49385c0,0.98532 0,1.96933 0,2.83264c0,0.90002 -0.05266,1.82224 0.02083,2.67352c0.08514,0.9863 0.43706,1.75629 0.69518,2.49384c0.29665,0.84763 0.52327,1.79993 0.784,2.50616c0.35822,0.97034 0.46873,1.76828 0.49867,2.49384c0.04433,1.07437 0.47862,1.86688 1.00133,2.65198c0.42404,0.6369 0.65723,1.36826 1,2.3125c0.30685,0.84534 0.85815,1.37296 1.38933,2.34619c0.36574,0.67014 0.45483,1.66843 0.62134,2.57465c0.15277,0.83151 0.62949,1.43213 1.04201,2.30002c0.39792,0.83716 1.14732,1.5 1.64732,2c0.7,0.69998 1.39714,1.22165 1.864,1.89999c0.56699,0.82379 0.78351,1.71762 1.32266,2.28534c0.5824,0.61322 1.28799,1.28931 1.94669,1.948c0.64581,0.64581 1.18808,1.36859 1.86667,1.80948c0.79233,0.51477 1.33298,1.0726 1.72531,1.75717c0.46631,0.81366 0.57468,1.70001 0.57468,2.60001c0,0.79999 -0.05716,1.70001 -0.5,2.5c-0.44284,0.79999 -0.5,1.70001 -0.5,2.60016c0,0.78519 0,1.72519 0,2.73318c0,0.79199 0,1.65198 0,2.37732c0,1.18933 0,1.98935 0,2.98935c0,0.79999 0,1.79999 0,2.59998c0,0.80002 0.00006,1.60135 0,2.436c-0.00009,1.18552 0.00809,2.00113 -0.03601,2.57468c-0.09171,1.19296 -0.31497,2.08527 -0.46399,2.66849c-0.21362,0.83612 -0.4191,1.83917 -0.52533,2.81818c-0.06046,0.55716 -0.19324,1.56729 -0.32733,2.36517c-0.14435,0.85886 -0.31863,1.73337 -0.48068,3.00415c-0.09702,0.76096 -0.12021,1.46329 -0.21933,2.42435c-0.09399,0.91129 -0.30472,1.80783 -0.522,2.70898c-0.14447,0.59924 -0.34631,1.80222 -0.39999,2.42136c-0.08603,0.99231 -0.18402,2.11316 -0.30933,2.94666c-0.1329,0.88397 -0.22406,1.33072 -0.36334,2.22665c-0.19745,1.27026 -0.28091,2.03519 -0.31665,2.74402c-0.05087,1.0087 -0.03601,2.02798 -0.03601,2.74533c0,0.74133 0.00107,1.86334 0,2.94934c-0.00067,0.68265 -0.00391,1.66782 -0.05716,2.31934c-0.0831,1.01648 -0.29642,2.11334 -0.36816,2.50467c-0.15128,0.82498 -0.32111,1.71161 -0.45319,3.18533c-0.047,0.52448 -0.08896,1.60788 -0.10065,2.15732c-0.02328,1.09454 -0.01834,1.63199 -0.021,3.15701c-0.00082,0.47232 0.00241,1.37149 -0.03586,2.22165c-0.03687,0.81931 -0.18057,2.02264 -0.31665,2.83484c-0.14236,0.84985 -0.30438,1.75671 -0.36334,2.24249c-0.19476,1.60443 -0.20279,2.19586 -0.23132,2.802c-0.05844,1.24176 -0.07568,1.86609 -0.10535,2.48401c-0.02908,0.60611 -0.15741,2.29523 -0.29999,3.29099c-0.06735,0.47046 -0.23911,1.36841 -0.36334,2.24835c-0.18869,1.33658 -0.20419,1.80243 -0.25867,2.74399c-0.0549,0.9491 -0.0432,1.42529 -0.192,2.80801c-0.09514,0.884 -0.26118,1.73019 -0.40799,2.556c-0.1438,0.8089 -0.31195,2.01001 -0.37267,2.81067c-0.06062,0.79944 -0.07498,1.60324 -0.21935,2.79999c-0.09698,0.80405 -0.25983,1.61044 -0.33333,2.02084c-0.1497,0.83591 -0.34576,2.14478 -0.416,3.06183c-0.0713,0.93112 -0.06975,1.39743 -0.13667,2.3075c-0.09399,1.27811 -0.22192,2.04114 -0.37267,2.73782c-0.209,0.96591 -0.43932,1.86874 -0.5175,2.772c-0.07773,0.89783 -0.05649,1.5 -0.05716,2.69867c-0.00049,0.88049 0.01842,1.71619 -0.00133,2.71735c-0.01794,0.90982 -0.15302,1.85367 -0.35133,2.63666c-0.20906,0.82538 -0.51321,1.8764 -0.59018,2.59018c-0.09158,0.84937 -0.01765,1.86118 -0.09315,2.69315c-0.08495,0.93594 -0.32503,1.71902 -0.53867,2.57468c-0.14713,0.58926 -0.36133,1.78531 -0.40451,2.64767c-0.03857,0.77026 -0.0092,1.73187 -0.02083,2.70831c-0.01042,0.87518 -0.05444,1.52667 -0.284,2.51733c-0.19055,0.82233 -0.48611,1.62274 -0.63068,2.62933c-0.11989,0.83475 -0.22122,1.81076 -0.08516,2.7865c0.1118,0.80176 1.29764,0.58115 1.91583,1.18552c0.62215,0.60825 0.78737,1.4158 1.48399,2.11465c0.59904,0.60098 1.23257,1.10727 2,1.58533c0.84006,0.52332 1.06061,1.32669 1.89999,1.90485c0.71323,0.49127 1.431,0.85526 2.18402,1.3085c0.6694,0.40292 1.75739,0.77274 2.61615,0.80133c0.78476,0.02612 1.73584,0.00174 2.50116,0c0.99417,-0.00226 1.8287,0.12433 2.7627,-0.436c0.72894,-0.43729 1.17764,-1.10565 1.96933,-1.89734c0.43466,-0.43466 1.16663,-1.16669 1.66132,-1.66132c0.86264,-0.86255 1.33398,-1.36847 1.97333,-1.888c0.77609,-0.63065 1.51984,-1.11676 2.02667,-1.4075c1.01202,-0.58057 2.0062,-0.74704 2.80533,-0.70984c0.91766,0.04272 0.80704,0.93179 1.28534,1.71466c0.49081,0.80334 1.15866,1.23419 1.56201,1.92816c0.46985,0.80838 0.98138,1.51505 1.85266,1.33633c0.84842,-0.17401 1.59683,-0.88419 2.5,-0.97916c0.75516,-0.07941 1.6618,-0.34735 2.40451,-0.7045c0.80063,-0.38501 1.59494,-0.79657 2.1955,-1.09549c0.99911,-0.49731 1.78421,-0.90924 2.80133,-1.116c0.61264,-0.12454 1.76993,-0.23251 2.55582,-0.44119c0.56732,-0.15063 1.44431,-0.44379 2.64285,-0.84283c0.60007,-0.1998 1.5,-0.5 2.39999,-0.79999c0.89999,-0.29999 1.5,-0.49997 2.39999,-0.79999c0.89984,-0.29999 1.79169,-0.59341 2.36401,-0.80002c1.07388,-0.38766 2.00278,-0.79422 2.6315,-1.10001c1.00903,-0.49075 1.60449,-0.79999 2.60449,-1.29999c0.60001,-0.29999 1.39999,-0.70001 2.20001,-1.10001c0.79999,-0.39999 1.79672,-0.90665 2.40448,-1.19998c0.84821,-0.40936 1.81583,-0.80267 2.34818,-1c0.82047,-0.30414 1.88629,-0.68707 2.59915,-1.00452c0.71539,-0.31857 1.78006,-0.86511 2.41617,-1.17816c0.68112,-0.33517 1.37,-0.68414 2.06403,-0.948c1.17999,-0.44858 2.15909,-0.52783 2.96799,-0.73599c0.8273,-0.21289 1.45068,-0.55399 2.42184,-0.9335c0.83017,-0.3244 1.46201,-0.53259 2.15015,-0.78519c1.17273,-0.43048 2.03342,-0.76715 2.92801,-1.11465c0.44937,-0.17456 1.32861,-0.52509 2.55716,-0.97849c0.73102,-0.26978 1.41922,-0.50949 2.091,-0.71701c1.36774,-0.42252 2.10449,-0.60449 2.85184,-0.8045c0.74734,-0.20001 1.8356,-0.49249 2.51733,-0.70132c1.00696,-0.30847 1.69565,-0.54733 2.81601,-0.96533c0.83707,-0.31232 1.27551,-0.48203 2.16666,-0.85419c0.89825,-0.37515 1.34576,-0.55307 2.55716,-1.17917c0.74182,-0.38339 1.42072,-0.80215 2.091,-1.19998c1.01654,-0.6033 1.73825,-0.99698 2.47717,-1.41068c0.75183,-0.4209 1.50504,-0.85391 2.20801,-1.35599c0.69617,-0.49719 1.33221,-1.05695 1.95599,-1.608c0.61087,-0.53964 1.50107,-1.3175 2.12418,-1.77267c0.63895,-0.46674 1.34927,-0.92053 2.58649,-1.61932c0.461,-0.26038 1.46185,-0.78726 1.98666,-1.05869c0.53354,-0.27594 1.61224,-0.82248 2.14667,-1.09067c1.03284,-0.51828 1.99588,-0.99625 2.884,-1.448c0.42075,-0.21402 1.22485,-0.61652 2.31601,-1.23599c0.68805,-0.39063 1.34021,-0.80176 1.992,-1.20001c0.65756,-0.40179 1.69418,-1.00333 2.42731,-1.39999c0.74551,-0.40338 1.50217,-0.78665 2.58069,-1.39999c0.68619,-0.39026 1.32425,-0.80026 1.95599,-1.164c1.19885,-0.69028 1.80466,-0.96216 2.68982,-1.31516c0.56082,-0.22366 1.59537,-0.63028 2.28485,-0.91019c0.83002,-0.33694 1.83148,-0.55798 2.57883,-0.66333l0.99985,-0.37265" id="svg_5" stroke-width="2" stroke="#000" fill="none"/>
  <path t="11990,12003,12004,12012,12012,12020,12034,12048,12048,12065,12065,12082,12098,12098,12115,12115,12132,12132,12148,12148,12165,12182,12210,12304,12309,12320,12334,12334,12348,12348,12364,12365,12382,12382,12382,12398,12398,12398,12415,12415,12415,12432,12432,12447,12448,12464,12465,12465,12482,12482,12497,12498,12498,12515,12515,12515,12532,12532,12548,12548,12564,12565,12565,12581,12598,12598,12598,12615,12615,12632,12632,12632,12648,12648,12648,12664,12665,12682,12682,12698,12698,12715,12715,12715,12732,12732,12732,12748,12748,12765,12765,12765,12782,12782,12798,12815,12815,12815,12832,12832,12848,12848,12865,12865,12865,12882,12898,12915,12915,12938,12999,13027,13052,13075,13095,13111,13111,13119,13135,13149,13166,13166,13183,13199,13199,13199,13216,13216,13233,13233,13233,13233,13249,13249,13249,13249,13266,13266,13283,13283,13283,13299,13299,13299,13316,13316,13316,13333,13333,13333,13350,13350,13350,13366,13366,13383,13383,13383,13399,13399,13399,13417,13417,13433,13434,13434,13434,13449,13449,13449,13466,13466,13466,13467,13483,13483,13483,13499,13499,13516,13516,13516,13516,13533,13533,13533,13549,13549,13549,13566,13566,13583,13583,13583,13600,13600,13616,13633,13634,13649,13666,13683,13699,13699,13719,13719,13732,13748,13749,13768,13768,13768,13785,13785,13785,13799,13799,13818,13819,13833,13833,13851,13852,13898,13942,13974,13974,13995,14034,14051,14051,14070" d="m326,253c3.18115,-1.0625 3.60129,-1.74326 3.83334,-2.66667c0.1962,-0.7807 0.20654,-1.70107 0.66666,-2.35416c0.47391,-0.67267 0.49933,-1.58183 0.5,-2.57468c0.00052,-0.74733 0,-1.77916 0,-2.72583c0,-0.67867 0,-1.65733 0,-2.56267c0,-0.77316 0,-1.71733 0,-2.7115c0,-0.74733 0,-1.76849 0,-2.60449c0,-0.90001 -0.45325,-2.0739 0.2215,-2.6785c0.66049,-0.59184 1.7785,-0.1234 2.53568,-0.12151c0.89999,0.00226 1.66336,-0.0043 2.64282,0.284c0.81656,0.24036 1.80386,0.57497 2.62085,0.73683c0.66791,0.13232 1.66513,0.54337 2.2045,0.82983c0.82507,0.43822 1.84583,0.93681 2.53867,1.088c0.82751,0.18057 1.84488,0.3987 2.63599,0.76584c0.80945,0.37564 1.65643,0.7252 2.43335,1.46217c0.46106,0.43736 0.82254,1.20863 1.47116,2.08516c0.4274,0.57758 1.03854,1.27644 1.51016,2.00951c0.49911,0.7758 0.97281,1.80986 1.12399,2.50267c0.18057,0.82751 0.36966,1.8562 0.76584,2.57883c0.44165,0.8056 1.01746,1.44789 1.21149,2.42517c0.14349,0.72269 0.08139,1.49452 0.50934,2.57066c0.34109,0.85774 0.50375,1.50525 0.65869,2.26266c0.20813,1.01746 0.62616,1.84291 0.79449,2.81999c0.1373,0.79681 0.10748,1.6261 0.12164,2.65717c0.01236,0.90082 0.0394,1.53354 0.35251,2.52151c0.25757,0.81268 0.59494,1.79761 0.63666,2.60001c0.05191,0.99872 -0.04993,1.81531 0.17734,2.79999c0.19138,0.82913 0.54352,1.44421 0.71185,2.42133c0.1373,0.79681 0.11923,1.62601 0.12149,2.65717c0.00195,0.90067 0,1.92151 0,2.7215c0,0.80002 0,1.7955 0,2.54285c0,1.04251 0,1.99051 0,2.66251c0,0.98932 0,1.85184 0,2.74283c0,0.91348 0,1.7135 0,2.673c0,0.79349 0,1.569 0,2.7645c0,0.91434 0,1.81433 0,2.61432c0,0.90002 0,1.80002 0,2.70001c0,0.89999 -0.00009,1.79999 0,2.70001c0.00009,0.89999 0.1243,1.57739 0.57468,2.39999c0.42728,0.78036 0.25339,1.77551 0.71066,2.60001c0.38382,0.69202 1.16592,1.17267 1.71466,1.96664c0.44333,0.64145 0.79395,1.43771 1.20132,2.23468c0.42831,0.83792 0.96426,1.76599 1.28268,2.284c0.51425,0.83658 0.90439,1.39835 1.49448,2.6145c0.28448,0.58633 0.6058,1.46613 0.82019,2.01483c0.39215,1.00363 0.80133,1.87466 1.20132,2.68533c0.39999,0.81067 0.71201,1.45227 1.10016,2.42133c0.32047,0.80011 0.6105,1.65204 1.0665,2.41202c0.44247,0.73743 1.04791,1.32513 1.66669,2.16666c0.5687,0.77344 0.85165,1.40536 1.36798,2.39999c0.3132,0.60333 0.6673,1.21298 1.44684,2.20001c0.48035,0.60818 1.04782,1.39023 1.30118,2.19998c0.24765,0.79153 0.60626,1.6106 1.0715,2.20001c0.48251,0.6113 1.24954,1.59015 1.56848,2.23599c0.45041,0.91208 0.6954,1.72491 1.04666,2.53867c0.23621,0.54721 0.85339,1.53876 1.36401,2.24619c0.35104,0.48633 0.9957,1.61523 1.24283,2.28448c0.25418,0.68832 0.53,1.7355 0.85718,2.65167c0.27823,0.77911 0.60434,1.43185 1.10001,2.44434c0.30264,0.61823 0.80606,1.76303 1,2.284c0.30972,0.83194 0.59863,1.71646 0.89999,2.6145c0.29865,0.88995 0.48044,1.47168 0.89999,2.53351c0.28244,0.71481 0.7085,1.54657 0.91599,2.56665c0.16095,0.79126 0.27408,1.8125 0.60486,2.60001c0.2565,0.61066 0.8158,1.5777 1.12198,2.34283c0.353,0.88211 0.65802,1.70801 1.00452,2.35718c0.45334,0.84937 0.32687,1.82083 0.70532,2.60449c0.42926,0.88889 0.59598,1.52151 0.64734,2.52884c0.04401,0.86292 0.62503,1.63959 0.87851,2.48831c0.20804,0.69659 0.12149,1.845 0.12149,2.63101c0,0.82199 0,1.88068 0,2.59018c0,0.85266 -0.07837,1.86365 0.03601,2.62115c0.14709,0.97403 0.70059,1.62531 0.87866,2.604c0.13153,0.72296 0.08533,1.89865 0.08533,2.69034c0,0.84164 0.16275,1.79852 -0.22134,2.64166c-0.35535,0.78 -0.80399,1.5 -1.21466,2.29999l-0.664,0.69983l-0.60001,0.543l-0.79999,0.33633" id="svg_6" stroke-width="2" stroke="#000" fill="none"/>
  <path t="15798,15811,15812,15812,15812,15819,15819,15834,15848,15865,15865,15865,15881,15881,15881,15899,15915,15915,15931,15932,15948,16075,16087,16103,16116,16132,16149,16149,16167,16167,16167,16167,16182,16182,16198,16198,16199,16215,16215,16266,16274,16282,16298,16298,16315,16315,16331,16331,16349,16349,16365,16366,16366,16366,16381,16381,16382,16398,16399,16399,16399,16416,16416,16416,16416,16431,16431,16431,16432,16448,16449,16449,16465,16465,16486,16555,16567,16582,16599,16599,16616,16617,16617,16632,16632,16632,16632,16649,16649,16649,16666,16666,16666,16682,16682,16699,16771" d="m327,360c9.44916,-2.85684 9.99973,-3.0289 10.92667,-3.31732c0.72644,-0.22604 1.92432,-0.61221 2.65201,-0.672c0.9183,-0.07544 1.85147,0.02356 2.75467,-0.17734c0.68484,-0.15231 1.44147,-0.4552 2.5,-0.66669c0.91272,-0.18237 1.69232,-0.22107 2.54132,-0.59198c0.96176,-0.42017 1.62701,-0.51373 2.60382,-0.57483c0.823,-0.05148 1.5582,-0.74887 2.42151,-0.96384c0.86951,-0.21652 1.58136,0.39944 1.60001,1.26398c0.01941,0.89981 0.26367,1.77548 0.61066,2.40802c0.55978,1.02048 0.69922,1.65063 0.8685,2.31284c0.25748,1.00711 0.43958,1.93292 0.5,2.9375c0.06256,1.03998 -0.01212,1.84662 0.078,2.44165c0.15338,1.01257 0.84235,1.70551 0.85617,2.71335c0.01196,0.87241 -1.11334,0.88666 -2.01349,0.88666c-0.78519,0 -1.74454,-0.05188 -2.50116,0.08533c-1.01727,0.18448 -1.78494,0.61636 -2.59885,0.79333c-0.81067,0.17627 -1.9711,0.26984 -2.75699,0.47852c-0.56732,0.15063 -1.44278,0.44839 -2.34283,0.74265c-0.89865,0.29376 -1.79324,0.5784 -2.70001,0.73352c-0.89917,0.15384 -1.53,0.13693 -2.48532,0.336c-1.04898,0.21857 -1.7709,0.53207 -2.51468,0.8515c-0.75104,0.32254 -1.82999,0.82071 -2.51334,1.09381c-0.94055,0.37589 -1.53363,0.5593 -2.56516,0.98535c-0.69162,0.28568 -1.51682,0.70679 -2.32019,1.09866c-0.76221,0.3718 -1.67014,1.4826 -2.54416,1.14951c-0.15073,-0.05746 -0.05865,-0.995 -0.34116,-1.83484c-0.25943,-0.77124 -0.56998,-1.67731 -0.66333,-2.47049c-0.10019,-0.8512 -0.20663,-2.04547 -0.33667,-2.64285c-0.19687,-0.90436 -0.46942,-1.79404 -0.59451,-2.69983c-0.12225,-0.88519 -0.11923,-1.74301 -0.12149,-2.77866c-0.0015,-0.68552 0,-1.52017 0,-2.517l0,-0.91919l0,-0.96448l0,-0.92084" id="svg_7" stroke-width="2" stroke="#000" fill="none"/>
  <path t="18309,18315,18315,18333,18350,18350,18367,18367,18367,18383,18383,18398,18398,18415,18415,18431,18448,18465,18511" d="m254,35c-3.53383,-2.47133 -4.45575,-2.41327 -4.93866,-1.58933c-0.48222,0.82278 -0.64377,1.58588 -0.89467,2.58933c-0.19662,0.78639 -0.19876,1.60067 -0.16217,2.5955c0.02754,0.74868 0.36469,1.64361 0.79683,2.2885c0.61601,0.91927 0.99867,1.54667 1.79868,2.13067l0.79999,0.41067l0.8,0.48933l0.89984,0.0855" id="svg_8" stroke-width="2" stroke="#000" fill="none"/>
  <path t="18925,18931,18931,18950,18965,18981,18998,19015,19015,19031,19048,19048,19065,19081,19081,19098,19115,19147,19147" d="m254,54c-5.772,1.2 -6.71187,1.51572 -6.964,2.4c-0.24698,0.8662 -0.036,1.8 -0.036,2.7c0,0.9 -0.00241,1.7 0,2.65717c0.00226,0.89551 -0.05386,1.83088 0.436,2.60683c0.5291,0.8381 1.164,1.2 2.064,1.636l0.8,0.35267l0.8,0.52583l0.7,0.12016" id="svg_9" stroke-width="2" stroke="#000" fill="none"/>
  <path t="19550,19563,19563,19575,19607,19615,19631,19648,19665,19687,19687,19711,19787" d="m250,74c-4.57333,5.77333 -4.97333,6.54542 -5,7.4c-0.02808,0.89957 0,1.8 0,2.7c0,0.9 0.16667,1.73334 1,2.06667l0.7,0.48067l0.8,0.33183l0.88933,0.0315" id="svg_10" stroke-width="2" stroke="#000" fill="none"/>
  <path t="20113,20123,20123,20123,20123,20133,20133,20153,20165,20166,20184,20184,20184,20199,20216,20216,20231,20248,20287" d="m248,93c-2.39734,1.42133 -2.79639,2.12956 -3.12801,2.90933c-0.31851,0.74893 -0.71611,1.68772 -0.83032,2.50733c-0.13727,0.98497 0.1622,1.91264 0.47916,2.60417c0.45421,0.99099 0.66071,1.65348 1.17917,2.26483c0.6864,0.80939 1.62134,0.71433 2.47467,0.71433l0.94,0l0.98534,0l0.89999,0" id="svg_11" stroke-width="2" stroke="#000" fill="none"/>
 </g>
 <g display="none">
  <title>muse_image</title>
  <image xlink:href="http://static.flickr.com/3194/2459667783_dfa683b06a.jpg" id="muse" height="480" width="438" y="0" x="101"/>
 </g>
 <g display="none">
  <title>bbox</title>
  <rect stroke="#f00" fill="none" stroke-width="3" height="432.96" width="138.01313" y="33.6" x="283.10066" id="bbox"/>
 </g>
</svg>
