<svg width="640" height="480" xmlns="http://www.w3.org/2000/svg" xmlns:svg="http://www.w3.org/2000/svg" xmlns:xlink="http://www.w3.org/1999/xlink">
 <!-- Sketchy ANNOTATION
  ImageNet ID: n03272010_6718
  URL: http://farm1.static.flickr.com/120/296255446_ef18f8c7ee.jpg
  Image Width: 333
  Image Height: 500
  BBox X: 96
  BBox Y: 86
  BBox Width: 205
  BBox Height: 186
  Exposure: 2000ms
  Synset Label: guitar
  Synset ID: n03467517
  Worker Tag: street guitar player
  Sanity Check: 
   Saved
  Comment: 
   {}
  Worker ID: A2HM35CWB7IIFM
  Assignment ID: 3R6P78PK7KB33Y2040GCU117DPKTG7
  HIT ID: 3N3WJQXELSQNI7OU6AOUHM2453FL25
  Work Time: 145s
  Worker Score: 0.7857
 END ANNOTATION -->
 <g display="inline">
  <title>Layer 1</title>
  <path t="0,230,240,276,289,289,374,410,411,460,487,558,570,593,607,607,656,692,708,724,753,791,839,864,865,925,1012,1036,1036,1060,1073,1096,1120,1183,1183,1208,1224,1239,1256,1279,1305,1354,1378,1415,1438,1451,1475,1500,1500,1525,1537,1574,1610,1623,1674,1709,1722,1757,1782,1782,1797,1807,1820,1830,1856,1892,1893,1906,1921,1941,1955,1966,1983,2002,2016,2040,2040,2051,2066,2066,2083,2083,2089,2101,2115,2137,2162,2162,2174,2186,2198,2215,2235,2260,2273,2284,2296,2296,2315,2316,2322,2322,2333,2347,2347,2369,2370,2382,2407,2431,2482,2504,2543" d="m324.5,179.89999c-1.70001,0 -2.38715,-0.31448 -3.16666,-0.83333c-0.70746,-0.47089 -1.68402,-0.1795 -2.33334,-0.6875c-0.76743,-0.6004 -1.14792,-1.30713 -1.55267,-2.17917c-0.38589,-0.83139 -0.91873,-1.59863 -0.94733,-2.5c-0.02853,-0.89954 0,-1.8 0,-2.59999c0,-0.90001 0,-1.8 0,-2.70001c0,-0.89999 0,-1.79999 0,-2.7c0,-0.89999 -0.02707,-1.80046 0,-2.59999c0.02859,-0.84428 0.7063,-1.42955 1.16666,-2.20001c0.4299,-0.7195 1.39651,-0.93419 1.85867,-1.61066c0.49921,-0.73065 0.77463,-1.63544 1.14133,-2.38934c0.3714,-0.76361 0.4278,-1.59673 0.85419,-2.47916c0.33929,-0.70216 1.41656,-0.5862 2.00449,-1.0955c0.64862,-0.56192 0.974,-1.22667 0.97467,-2.12534c0.00067,-0.89999 0.18594,-1.93008 -0.436,-2.68933c-0.52261,-0.638 -1.56439,-0.58531 -2.36398,-0.61067c-0.9014,-0.02859 -1.62259,-0.6855 -2.5,-0.94283c-0.8642,-0.25345 -1.4379,-0.66737 -2.13602,-1.02116c-0.77133,-0.39088 -1.76401,-0.03601 -2.664,-0.03601c-0.89999,0 -1.69998,0 -2.60001,0c-0.89999,0 -1.83337,-0.04646 -2.69998,0.42534c-0.73248,0.39877 -1.57175,0.78636 -2.20001,1.14934c-0.84564,0.48856 -1.40909,1.02394 -2.10449,1.478c-0.75787,0.49486 -1.18402,1.2883 -1.72083,1.922c-0.50278,0.59351 -0.49783,1.46347 -0.92734,2.32983c-0.30429,0.61383 -0.46704,1.56316 -0.814,2.52884c-0.24905,0.69319 -1.16418,1.27461 -1.548,1.96666c-0.45728,0.82449 -0.27338,1.82518 -0.71066,2.60001c-0.40988,0.72629 -0.80496,1.5603 -1.22202,2.3c-0.42004,0.74501 -1.08359,1.15163 -1.742,1.73599c-0.69318,0.61522 -1.22086,1.3019 -1.57465,2c-0.3909,0.77135 0.01251,1.76532 -0.03616,2.66417c-0.04272,0.78862 -0.4711,1.71994 -0.71585,2.50116c-0.24567,0.78415 -0.20514,1.7453 -0.28848,2.64601c-0.086,0.92955 -0.5705,1.72644 -0.82886,2.586c-0.2222,0.73924 -0.16666,1.66666 -0.16666,2.56667c0,0.89999 -0.00134,1.79866 -0.35266,2.54733l-0.6265,0.5735" id="svg_1" stroke-width="2" stroke="#000" fill="none"/>
  <path t="3181,3449,3475,3497,3515,3523,3608,3633,3732,3756,3772,3804,3841,3870,3891,3891,3926,3926,3939,3989,4025,4062,4086,4111,4124,4124,4135,4135,4146,4164,4165,4172,4184,4197,4197,4220,4257,4270,4294,4307,4344,4368,4393,4406,4417,4417,4441,4442,4454,4467,4481,4490,4514,4530,4530,4565,4588,4615,4626,4642,4659,4664,4681,4695,4696,4704,4704,4714,4734,4759,4760,4772,4784,4796,4813,4833,4857,4857,4871,4882,4899,4899,4907,4919,4919,4932,4932,4949,4949,4968,4982,4999,4999,5017,5032,5049,5054,5065,5066,5083,5099,5099,5102,5103,5116,5132,5140,5164,5164,5183,5183,5189,5224,5261,5280,5287,5299,5299,5314,5323,5323,5335,5335,5347,5348,5364,5364,5373,5384,5408,5408,5422,5422,5433,5448,5448,5464,5471,5495,5495,5507,5531,5547,5557,5568" d="m291.5,183.89999c-0.99551,1.70001 -0.9946,2.60002 -1,3.5c-0.00534,0.88939 -0.75943,1.44121 -0.99551,2.20451c-0.26486,0.85638 -0.33307,1.89349 -1.2045,2.21016c-0.84952,0.3087 -1.4086,0.5932 -2.15717,1.02817c-0.73154,0.42508 -1.80948,0.05716 -2.64282,0.05716c-0.83334,0 -1.6955,0 -2.60001,0c-0.89999,0 -1.79999,0 -2.69998,0c-0.90002,0 -1.80002,0 -2.70001,0c-0.75717,0 -1.65268,0 -2.51599,0c-0.98401,0 -1.96802,0 -2.65866,0c-1.06818,0 -1.92535,0 -2.82535,0c-0.79999,0 -1.70007,0.01067 -2.60001,0c-0.87933,-0.01042 -1.39429,-0.81807 -2.20132,-0.99866c-0.87698,-0.19624 -1.82382,0.01056 -2.59866,-0.42667c-0.72626,-0.40981 -1.60001,-0.57468 -2.35718,-0.57468c-1.06818,0 -1.75883,0 -2.722,0c-0.92082,0 -1.82083,0 -2.72083,0c-0.90001,0 -1.8,0 -2.60001,0c-0.89999,0 -1.81961,-0.00194 -2.59999,0.42534c-0.82257,0.45038 -1.83217,0.33043 -2.51601,0.85867c-0.62749,0.48471 -1.42717,0.59933 -2.18417,0.93733c-0.71498,0.31924 -1.57336,0.62965 -2.41583,0.86267c-0.88103,0.24368 -1.73009,0.71597 -2.48399,1.08266c-0.76361,0.3714 -1.60854,0.65341 -2.2955,1.19051c-0.74388,0.5816 -1.10236,1.32611 -1.65182,2c-0.57353,0.7034 -0.90459,1.41142 -1.04817,2.34283c-0.14261,0.92508 -0.00235,1.784 -0.0045,2.64732c-0.00226,0.90002 -0.16667,1.81934 -0.5,2.65266c-0.33333,0.83334 -0.4803,1.64021 -0.784,2.48401c-0.25375,0.70506 -0.67329,1.6279 -0.716,2.616c-0.03886,0.89915 0,1.7 0,2.60001c0,0.89999 0,1.79999 0,2.71066c0,0.91066 0,1.76399 0,2.70399c0,0.88533 0,1.6425 0,2.53801c0,0.86333 0,1.82649 0,2.74733c0,0.9045 0,1.76666 0,2.59999c0,0.9785 0,1.79868 0,2.70001c0,0.89999 -0.28226,1.84955 0.01067,2.68933c0.26312,0.75433 0.85059,1.33989 1.07333,2.12799c0.24828,0.87848 0.81973,1.68813 1,2.45334c0.18857,0.80045 0.46761,1.80605 0.916,2.696c0.34531,0.68535 0.9333,1.42705 0.99867,2.21867c0.07649,0.92624 0.2653,1.79964 1.00133,2.28133c0.64293,0.42076 1.14676,1.35159 1.60001,1.972c0.54028,0.73956 1.45956,1.1463 2.09999,1.50867c0.82079,0.46442 1.26146,1.07417 2.00984,1.64816c0.57919,0.44423 1.64349,0.67917 2.26933,1.22534l0.03149,0.8685l0.48933,0.61066l0.48933,0.61067" id="svg_2" stroke-width="2" stroke="#000" fill="none"/>
  <path t="6636,7015,7028,7054,7088,7099,7136,7149,7173,7184,7184,7197,7214,7234,7234,7247,7247,7263,7283,7320,7358,7373,7374,7394,7431,7454,7470,7490,7493,7517,7530,7530,7552,7552,7577,7578,7602,7602,7613,7631,7687,7688,7712,7737,7738,7749,7763,7781,7786,7798,7798,7822,7834,7848,7871,7883,7897,7914,7932,7957,7957,7969,7993,8006,8018,8030,8047,8067,8091,8104,8140,8177,8177,8198,8201,8213,8239,8240,8263,8263,8288,8288,8300,8337,8374,8399,8420,8421,8439,8517,8523,8537,8546,8569,8570,8593,8608,8623,8643,8656,8679,8698,8716,8717,8731" d="m244.5,253.89999c0.87849,1.22151 0.75307,2.23425 1.284,2.91602c0.48795,0.62656 1.2879,1.02887 1.74133,1.69467c0.49551,0.7276 1.22075,1.18933 1.97467,1.556c0.76361,0.3714 1.51775,0.79532 2.3045,1.18597c0.88412,0.439 1.69611,0.60934 2.52882,0.64734c0.86316,0.03937 1.58904,0.68619 2.46666,0.94284c0.8656,0.25311 1.85349,-0.12418 2.70001,0.22385c0.67108,0.27588 1.55508,0.53427 2.38934,0.84399c0.73361,0.27234 1.24112,0.82092 2.11066,1.01016c0.84625,0.18417 1.59683,0.88419 2.5,0.97916c0.75516,0.07941 1.6618,0.34738 2.40451,0.7045c0.80045,0.38486 1.53708,0.88599 2.57397,1.17401c0.69998,0.19446 1.46985,0.36353 2.10553,0.83749c0.76883,0.57324 1.71597,0.284 2.55197,0.284c1.01669,0 1.71133,0 2.72803,0c0.93597,0 1.836,0 2.73599,0c0.89999,0 1.70016,0.01874 2.60001,0c0.86453,-0.01801 1.51437,-0.54901 2.13333,-1.16666c0.61865,-0.61734 1.46906,-0.65048 2.08264,-1.11734c0.68805,-0.5235 1.2995,-0.98386 1.884,-1.51733c0.7197,-0.65689 1.52652,-0.97552 2.39868,-1.19998c0.8009,-0.20612 1.29813,-0.67111 2.19067,-1.00934c0.73175,-0.27731 1.06732,-1.11978 1.69467,-1.70535c0.68848,-0.64264 1.14993,-1.24228 1.56332,-1.98398c0.42566,-0.7637 0.8186,-1.5361 1.23132,-2.40002c0.40732,-0.85265 0.76245,-1.51523 1.22134,-2.22131c0.42929,-0.66054 1.06033,-1.6156 1.46399,-2.26801c0.47565,-0.76872 0.436,-1.71066 0.436,-2.61067c0,-0.89999 -0.17355,-1.83826 0.08533,-2.59999c0.30176,-0.88792 0.89667,-1.59947 0.91467,-2.5c0.01801,-0.89983 0,-1.8 0,-2.70001c0,-0.79999 0,-1.7 0,-2.59999c0,-0.90001 0,-1.8 0,-2.7c0,-0.90001 0,-1.8 0,-2.70001l0,-0.79999l0,-0.90001" id="svg_3" stroke-width="2" stroke="#000" fill="none"/>
  <polyline timestamps="10140,10506" startTime="1449242524376" id="svg_4" points="303.5,230.9000015258789 305.21466666666663,229.8160015258789 " stroke-linecap="round" stroke-width="2" stroke="#000" fill="none"/>
  <path t="11194,11584,11605,11625,11647,11683,11696,11697,11718,11759,11767,11804,11854,11903,11940,11940,11975,12000,12012,12031,12060,12061,12097,12097,12134,12184,12210,12223,12270,12286,12307,12319,12393,12421,12441,12455,12466,12490,12502,12650,12650,12687,12710,12723,12735,12735,12759,12783,12798,12798,12820,12844,12844,13017" d="m307.5,228.89999c1.79999,0 2.70001,0 3.60001,0c0.89999,0 1.75662,-0.13655 2.60001,0.28401c0.66162,0.32993 1.50018,0.69695 2.39999,0.71599c0.96445,0.02042 1.25137,0.73117 1.836,1.38934c0.61624,0.69377 1.61484,0.91151 2.26401,1.258c0.84937,0.45334 1.83472,0.29977 2.59998,0.70534c0.84592,0.4483 1.70001,0.64732 2.45718,0.64732c0.89551,0 1.75882,0 2.72198,0c0.92084,0 1.871,0.07306 2.49551,-0.42532c0.60797,-0.48518 1.66489,-0.39349 2.00449,-1.0955c0.41772,-0.86349 0.65131,-1.31075 1.52084,-1.5c0.84625,-0.18419 1.74313,-0.63472 2.37866,-1.2005c0.60037,-0.53447 1.40097,-0.56953 2.22116,-1.00017c0.64343,-0.33783 0.88177,-1.4019 1.3255,-2.1785c0.4137,-0.72404 0.38895,-1.6425 0.66,-2.39999c0.32245,-0.90111 1.26999,-1.29762 1.74802,-2.20001c0.34338,-0.64822 0.6875,-1.5 1.36533,-2.2l0.51599,-0.59999l0.27466,-0.8" id="svg_5" stroke-width="2" stroke="#000" fill="none"/>
  <path t="14159,14476,14489,14507,14525,14537,14560,14573,14585,14647,14695,14712,14732,14746,14746,14793,14805,14817,14842,14879,14929,14966,15027,15075,15124,15124,15137,15161,15198,15215,15223,15247,15270,15320,15320,15356,15368,15481,15505,15554,15615,15615,15687,15723,15760,15760,15797,15822,15822,15834,15834,15846,15862,15862,15871,15896,15920,15920,15932,15946,15981,16018,16029,16054,16066,16081,16097,16115,16141,16165" d="m344.5,216.89999c0.16666,-1.83333 0.60901,-2.50717 1.35718,-2.94283c0.72894,-0.42445 1.61353,-0.41306 1.64282,-1.35716c0.02786,-0.89824 0.56885,-1.37662 0.96399,-2.136c0.39917,-0.76711 0.03601,-1.76401 0.03601,-2.664c0,-0.90001 0.02725,-1.70041 0,-2.60001c-0.02859,-0.94412 -0.7045,-1.29774 -1.60001,-1.3c-0.89999,-0.00226 -1.79999,0 -2.69998,0c-0.90002,0 -1.80002,0 -2.70001,0c-0.79999,0 -1.70001,0 -2.60001,0c-0.89999,0 -1.79999,0 -2.69998,0c-0.90002,0 -1.80002,0 -2.70001,0c-0.79999,0 -1.82257,0.41121 -2.64282,-0.05716c-0.81317,-0.46432 -1.2963,-1.15807 -1.35718,-2.04283c-0.0618,-0.89789 -0.39301,-1.83038 0.08533,-2.61467c0.49017,-0.80373 1.04028,-1.31802 1.52533,-1.88533c0.63843,-0.7467 1.38934,-1.40001 1.88934,-1.90001c0.70001,-0.7 1.29999,-1.29999 1.89999,-1.89999c0.70001,-0.7 1.25659,-1.3472 1.89999,-1.89549c0.75351,-0.64214 1.67175,-0.9162 2.30002,-1.27917c0.84564,-0.48857 1.40909,-1.02394 2.10449,-1.478c0.75787,-0.49486 0.99396,-1.49889 1.65268,-1.89017c0.80847,-0.48024 1.61749,-0.4825 2.16367,-1.05717l0.77914,-0.35266l0.79984,-0.526l0.77884,-0.34267" id="svg_6" stroke-width="2" stroke="#000" fill="none"/>
  <path t="17663,18029,18029,18051,18063,18064,18083,18083,18090,18090,18100,18113,18113,18130,18138,18138,18150,18162,18163,18179,18186,18186,18211,18211,18231,18231,18235,18247,18262,18272,18272,18284,18296,18296,18313,18313,18313,18322,18322,18333,18346,18363,18395,18413,18431,18431,18456,18468,18468,18481,18497,18505,18516,18542,18554,18566,18566,18578,18578,18597,18597,18603,18603,18603,18615,18615,18630,18630,18630,18647,18647,18653,18653,18664,18664,18679,18689" d="m348.5,183.89999c1.82535,-1.38933 2.49161,-1.83296 3.5,-1.97916c0.81326,-0.1179 1.71075,-0.0078 2.69983,-0.021c0.77954,-0.01039 1.82047,-0.16241 2.3895,-0.6105c0.77536,-0.6106 1.44891,-1.12328 2.21066,-1.47334c0.74976,-0.34456 1.40002,-1.116 2,-1.71599c0.60001,-0.60001 1.39362,-1.22691 1.84283,-1.90001c0.49118,-0.73598 0.94858,-1.47162 1.54251,-1.93599c0.82568,-0.64558 1.3345,-1.33899 1.64801,-2.19734c0.3139,-0.85948 1.00504,-0.96187 1.86667,-1.22383c0.88467,-0.26895 1.41843,-1.25537 2.09998,-1.6575c0.76813,-0.4532 1.686,-0.57222 2.44669,-0.896c0.91919,-0.39124 1.69568,-0.70267 2.492,-0.95334c0.92169,-0.29013 1.6879,-0.59166 2.37115,-1.08333c0.65741,-0.47307 1.4136,-0.84402 2.17551,-1.26733c0.80313,-0.44623 1.75006,-0.20882 2.41467,-0.78984c0.63641,-0.55637 1.38745,-1.22392 1.86398,-1.89549c0.51489,-0.72566 0.85056,-1.48407 1.48868,-2.04733c0.5954,-0.52554 1.21027,-1.1727 1.89917,-1.70534c0.66196,-0.51181 1.49002,-0.63298 2.16281,-1.21533c0.56744,-0.49118 1.20517,-1.30176 1.85602,-1.60001c0.81204,-0.37213 1.56726,-0.82736 2.26132,-1.43466c0.84863,-0.74252 1.16809,-1.44669 1.93466,-2.23067c0.44434,-0.45441 1.24948,-0.77159 2.07617,-1.47116c0.61371,-0.51933 0.95389,-1.43524 1.51434,-1.98567c0.76816,-0.75446 1.53299,-0.81517 2.18149,-1.5605l0.28284,-0.90649" id="svg_7" stroke-width="2" stroke="#000" fill="none"/>
  <path t="21316,21607,21607,21637,21637,21658,21658,21675,21676,21686,21686,21691,21691,21703,21703,21715,21739,21739,21740,21753,21776,21790,21838,21838,21851,21888,21903,21920,21920,21937,21962,21975,21975,21985,21996,21996,22014,22014,22022,22022,22022,22022,22033,22033,22034,22045,22046,22046,22062,22063,22071,22071,22083,22083,22145,22182,22182,22204,22243,22256,22279,22315,22329,22345,22345,22365,22380,22380,22397,22402,22402,22414,22430,22439,22450,22462,22479,22479,22488,22498,22512,22512,22529,22530,22537,22537,22560,22561,22580,22580,22580,22586,22597,22614,22917,22917,22954,22977,22990,23000,23013,23051,23063,23063,23078,23079,23079,23088,23088,23089,23099,23100,23100,23124,23124,23124" d="m322.5,183.89999c1.16666,-1 1.63345,-1.57837 2.29999,-2.30449c0.51825,-0.56461 0.94339,-1.39209 1.45718,-2.04283c0.65436,-0.82877 1.40298,-1.2444 2.2215,-1.53151c0.76221,-0.26735 1.5206,-0.6738 2.19598,-1.3065c0.67432,-0.63171 1.24329,-1.39551 2.12985,-1.76199c0.82214,-0.33986 1.54688,-0.44321 2.21149,-0.854c0.87558,-0.5412 1.1817,-1.58011 1.84119,-2.146c0.68878,-0.59102 1.60675,-0.49754 2.35748,-1.13667c0.66632,-0.56728 1.0466,-1.27762 1.50684,-2.01582c0.44711,-0.71716 1.44485,-0.81619 2.1785,-1.33617c0.78708,-0.55785 1.27698,-1.26532 2.12085,-1.56401c0.78296,-0.27713 1.6828,-0.56595 2.45798,-1.10016c0.56494,-0.38933 1.35675,-1.06345 2.02652,-1.55701c0.74649,-0.55011 1.29227,-0.88364 2.02533,-1.74416c0.49597,-0.5822 0.83817,-1.29248 1.45334,-2.28134c0.33389,-0.5367 0.82715,-1.33502 1.49466,-2.17433c0.49539,-0.62288 1.36563,-1.20721 2.00049,-1.64301c0.81003,-0.55603 1.02838,-1.355 1.6315,-2.09999c0.61816,-0.76358 1.11356,-1.28804 1.88934,-1.87917c0.73419,-0.55943 1.37463,-1.06152 2.02084,-1.52084c0.69708,-0.49548 1.6297,-0.75272 2.47916,-1.16666c0.65225,-0.31786 1.41016,-0.81534 2.32132,-0.83334c0.85318,-0.01686 1.86407,0.21751 2.67868,-0.16666c0.75809,-0.3575 0.98251,-1.4576 1.61066,-1.85867c0.74582,-0.47623 1.77078,-0.67236 2.33667,-1.33183c0.591,-0.68878 0.69766,-1.47269 1.10535,-2.34283c0.40091,-0.8557 0.94733,-1.46666 1.44733,-2.3c0.5,-0.83333 1.05054,-1.44041 1.41733,-2.20132c0.31653,-0.65665 0.80194,-1.44789 1.26801,-2.00934c0.80975,-0.97545 1.06335,-1.66205 1.61334,-2.21866c0.68286,-0.6911 1.7709,-0.45923 2.50131,-0.92784c0.79993,-0.5132 1.23447,-1.39827 2.20001,-1.62199c0.87701,-0.2032 1.81589,0.14616 2.69867,-0.02217c0.75735,-0.14442 1.2478,-0.9678 2.12283,-0.99883c0.69922,-0.02478 1.7045,-0.10109 2.47849,-0.4465c0.83377,-0.3721 1.60001,-1.03734 2.20001,-1.55334c0.60001,-0.516 1.39548,-1.12561 2.02084,-1.5c0.65848,-0.39422 1.66183,-0.984 2.45831,-1.5l0.51102,-0.34734" id="svg_8" stroke-width="2" stroke="#000" fill="none"/>
  <path t="24300,24571,24730,24753,24853" d="m401.5,122.9c1,-1 1.83334,-1.16666 2,-2l0.16666,-0.83334" id="svg_9" stroke-width="2" stroke="#000" fill="none"/>
  <path t="30784,31212,31252,31272,31272,31333,31371,31433,31494,31531,31715,31873,31934,32180,32241,32255,32269,32363,32386,32473,32558,32572,32596,32670,32671,32743,32767,32966,32985,32989,32989,33000,33011,33037,33037,33197,33271,33368,33577,33612,33814,33858" d="m405.5,119.9c1.22134,-0.87867 1.84726,-1.4044 2.284,-2.2c0.35577,-0.64812 0.35077,-1.59776 0.75201,-2.36401c0.39713,-0.75835 0.96332,-1.23733 0.96399,-2.13599c0.00067,-0.9 0.05319,-2.05267 -0.7045,-2.2955c-0.8194,-0.2626 -1.6546,-0.80455 -1.25949,-1.5685c0.39325,-0.76035 0.47134,-1.43816 1.04932,-2.15067c0.60361,-0.74412 1.46225,-0.73147 2.20001,-1.2c0.69147,-0.43913 1.7601,-0.27913 2.51465,0c0.8696,0.32169 0.45105,1.7323 1.2045,2.20116c0.38989,0.24264 0.75079,-1.14407 1.02084,-1.87583c0.31296,-0.84808 0.77463,-1.65675 1.14133,-2.41067c0.3714,-0.76362 0.6976,-1.7135 1.444,-1.98933c0.83426,-0.3083 1.8685,0.01017 2.37866,0.6l0.01068,0.88934l0.01068,0.88934" id="svg_10" stroke-width="2" stroke="#000" fill="none"/>
  <path t="34411,34654,34679,34703,34739,34752,34766,34789,34803,34821,34838,34912,34973,34986,35145" d="m421.5,104.9c0.83334,-2.16666 1.5072,-2.60902 1.94284,-3.35717c0.42447,-0.72895 0.40131,-1.6003 1.05716,-2.14283c0.60297,-0.49878 1.55972,-0.19009 2.38934,-0.51067c0.79291,-0.30639 1.31516,-0.98483 2.21066,-0.98933l0.89999,0l0.89999,0" id="svg_11" stroke-width="2" stroke="#000" fill="none"/>
  <path t="36359,36811,36835,36872,36971,36995,37020,37037,37045,37079,37103,37178,37205,37225,37226,37327,37509,37718,37753,37777,37794,37803,37829,37850,37863,37863,37877,38048,38068,38073,38108,38305,38305,38321,38338,38357,38379,38402,38415,38429,38452,38488,38500,38588,38605,39029,39076,39333,39370,39506,39604,39621,39691,39726,39800,39960,39985,40002,40020,40132,40180,40201,40205,40216,40231,40364,40463,40503,40769,40770,40854,40898,40932,40950,40950,40964,41000,41049,41111,41127,41135,41148,41186,41258,41320,41393,41417,41418,41436,41454,41495,41502,41516,41565,41589,41590,41603,41617,41638,41649,41661,41678,41686,41710,41760,41784,41796,41821,41833,41845,41861,41871,41882,41882,41894,41919,41920,41920,41943" d="m432.5,99.9c0,-1.8 0,-2.6 0,-3.5c0,-0.9 -0.1824,-2.14208 0.52084,-2.47916c0.78369,-0.37565 1.42035,-0.59818 2.08981,-1.04617c0.73544,-0.49213 1.58633,-0.93195 2.48935,-0.97467c0.89899,-0.04253 1.8364,-0.40274 2.61465,0.08533c0.74042,0.46433 1.24261,1.19702 1.28534,2.11466c0.04184,0.89902 -0.3371,1.9489 0.16666,2.63334c0.48062,0.65301 0.61029,1.3385 1,2.16666c0.35687,0.75838 1.54684,0.86428 1.82266,1.61066c0.30832,0.83425 -0.08331,1.83644 0.36334,2.68934c0.39395,0.75224 0.64667,1.5 0.64734,2.39999c0.00067,0.9 0.00226,1.8 0,2.7c-0.00226,0.89551 -0.66345,1.40994 -0.97916,2.12083c-0.38931,0.87668 -0.42447,1.67215 -1.10486,2.19517c-0.61127,0.46989 -1.34494,0.65471 -2.13748,1.1625c-0.74673,0.47844 -2.30652,-0.40652 -2.30652,0.1215c0,0.828 2.0101,-0.32703 2.47086,0.35717c0.52762,0.78348 0.1813,1.85145 0.05701,2.74266c-0.11182,0.80176 -1.10425,0.98885 -1.99985,0.90017c-0.8457,-0.08374 -1.28235,-0.95737 -2.20001,-1c-0.89883,-0.04176 -1.61777,0.23207 -1.80014,1.09983c-0.16653,0.79233 -0.81137,1.38934 -1.43585,1.87484c-0.74597,0.57993 -1.50696,1.09302 -2.064,1.50449c-0.81888,0.6049 -1.27887,1.07431 -1.85718,1.81634c-0.58047,0.7448 -1.47736,0.50788 -2.34283,0.76167c-0.87744,0.25729 -1.6265,0.71971 -2.49866,0.94417c-0.8009,0.20612 -1.29813,0.6711 -2.19067,1.00933c-0.73175,0.2773 -1.34183,0.84069 -2,1.42533c-0.69376,0.61624 -0.8446,1.52228 -1.258,2.26401c-0.42563,0.76367 -0.9418,1.61792 -1.23117,2.39999c-0.31512,0.85173 -0.47812,1.51234 -1.03748,2.18533c-0.55603,0.66901 -0.85355,1.5502 -1.68402,1.70399c-0.8855,0.16399 -1.60327,0.55388 -2.5,0.88918c-0.85065,0.31807 -1.57843,0.40672 -2.18399,1.03749c-0.54999,0.57288 -1.26685,1.02411 -2.01599,1.43668c-0.83853,0.46179 -1.45184,0.9603 -1.98401,1.56332c-0.56644,0.64183 -0.6944,1.39612 -1.14133,2.06934c-0.4939,0.74396 -0.56296,1.57788 -1.01068,2.38934c-0.46973,0.8513 -0.96399,1.45067 -1.36398,2.14133l-0.60001,0.84801" id="svg_12" stroke-width="2" stroke="#000" fill="none"/>
  <path t="44252,44578,44603,44615,44628,44652,44677,44677,44701,44712,44713,44728,44728,44745,44745,44750,44761,44762,44778,44795,44799,44811,44828,44836,44860,44877,44886,44886,44909,44929,44930,44936,44955,44959,44959,44983,44983,44983,45007,45007,45021,45021,45032,45033,45056,45056,45070,45071,45081,45081,45095,45117,45118,45118,45129,45129,45146,45146,45161,45161,45167,45167,45178,45178,45178,45196,45196,45204,45204,45204,45216,45216,45228,45228,45228,45246,45265,45265,45265,45278,45278,45278,45295,45302,45302,45302,45313,45314,45314,45328,45328,45345,45345,45345,45351,45351,45351,45363,45363,45363,45363,45378,45378,45378,45387,45387,45387,45399,45400,45412,45428,45428,45437,45437,45449,45461,45478,45486,45510,45510,45529,45535,45546,45546,45561,45578,45578,45584,45584,45596,45596,45611,45611,45611,45627,45628,45633,45633,45634,45645,45645,45662,45662,45669,45670,45681,45681,45694,45695,45712,45712,45719,45719,45743,45743,45763,45763,45768,45768,45780,45794,45794,45811,45816,45816,45827,45828,45828,45844,45853,45853,45865,45865,45877,45896,45896,45913,45913,45938,45938,45938,45962,45962,46062,46086,46086,46160,46185,46186,46205,46205,46206,46209,46210,46220,46220,46232,46233,46246,46246,46263,46263,46270,46271,46281,46282,46296,46313,46331,46346,46346,46362,46368,46379,46404,46416" d="m433.5,101.9c-1.83334,0.16666 -2.30801,0.767 -2.94733,1.35267c-0.58325,0.53432 -1.28906,1.10927 -2.05267,1.48067c-0.75391,0.36667 -1.49457,0.72565 -2.32132,1.26666c-0.65918,0.43137 -1.54123,0.86438 -2.15784,1.4c-0.75784,0.65832 -1.10706,1.36895 -1.58218,2.1c-0.51834,0.79752 -1.51566,0.93303 -1.897,1.9c-0.32684,0.82875 -0.66779,1.3284 -1.33716,1.85717c-0.74097,0.58531 -1.01251,1.40983 -1.65182,1.9955c-0.58325,0.53432 -1.27222,0.91078 -1.85266,1.44866c-0.72543,0.67224 -1.32141,1.50625 -2,1.91334c-0.73596,0.44149 -1.55475,0.84705 -2.52151,1.164c-0.67447,0.22112 -1.69235,0.24992 -2.47849,0.55733c-0.61221,0.2394 -1.63434,0.70782 -2.36401,1.2c-0.70813,0.47767 -1.05423,1.3101 -1.836,2.03066c-0.60745,0.55988 -1.28943,1.04987 -1.70001,1.68517c-0.58508,0.9053 -1.10849,1.52668 -1.59998,2.29634c-0.4071,0.63753 -1.22653,1.20544 -1.80002,2.01599c-0.39911,0.5641 -0.47751,1.40424 -1.10132,2.36517c-0.47055,0.72482 -1.28906,1.15988 -1.97333,1.57066c-0.81177,0.48732 -1.42032,1.04605 -2.31067,1.60001c-0.70331,0.43758 -1.51468,0.79999 -2.31467,1.2c-0.60001,0.3 -1.58215,0.84059 -2.40002,1.164c-0.78497,0.31041 -1.60916,0.35695 -2.39999,0.52c-1.01645,0.20958 -1.82495,0.64357 -2.59982,1.23715c-0.61032,0.46753 -1.1019,1.0356 -2.04752,1.5735c-0.88541,0.50363 -1.60483,0.95251 -2.09998,1.51434c-0.66901,0.75909 -0.98645,1.39934 -1.45135,2.10567c-0.57556,0.87444 -1.3905,1.45203 -2.02667,1.90666c-0.71796,0.51311 -1.30789,1.33771 -1.65381,2.07866c-0.33789,0.72372 -0.65552,1.59473 -1.33517,2.24817c-0.66821,0.64244 -1.44235,1.08424 -1.97101,1.4265c-1.03906,0.67268 -1.76453,1.06818 -2.44,1.45067c-0.94489,0.53506 -1.45908,0.85802 -2.27466,1.37466c-0.54761,0.34689 -1.56906,0.9964 -2.27466,1.36401c-0.66931,0.34871 -1.64767,0.73296 -2.44,1.036c-0.77664,0.29704 -1.77652,0.86159 -2.47635,1.24283c-0.79337,0.43219 -1.65491,0.5287 -2.48364,0.96783c-0.83145,0.44058 -1.48035,0.84497 -2.21469,1.364c-0.71402,0.50465 -1.3696,0.9926 -2.01065,1.46133c-0.77884,0.5695 -1.24475,1.32504 -2,1.95334c-0.65659,0.54623 -1.5701,0.82523 -2.20001,1.18533c-0.8642,0.49403 -1.65765,0.86678 -2.28534,1.14133c-0.90265,0.39481 -1.73798,0.29755 -2.71466,0.64117c-0.82269,0.28946 -1.60001,0.74283 -2.39999,1.14282c-0.60001,0.3 -1.60001,0.80002 -2.39999,1.20001c-0.80002,0.40001 -1.60028,0.79944 -2.20001,1.09999c-0.99594,0.4991 -1.78046,0.84625 -2.51599,1.40134c-0.67459,0.50911 -1.38672,1.2641 -1.86316,1.79866c-0.71881,0.8065 -0.93127,1.55965 -1.58884,2.20134c-0.5195,0.50696 -1.25546,1.28462 -1.44669,1.97333c-0.26215,0.94414 -0.74472,1.58025 -1.46933,2.30934c-0.5144,0.51758 -1.34933,1.34933 -1.88,1.88c-0.63599,0.63599 -1.20297,1.27103 -1.836,1.83466c-0.76266,0.67906 -1.5264,0.81049 -2.32083,1.32217c-0.83069,0.53503 -1.47174,1.04929 -2.47916,1.3125c-0.77411,0.20224 -1.53461,-0.00887 -2.47916,0.1875c-0.87259,0.1814 -1.37296,0.83733 -2.34619,1.3685c-0.67014,0.36574 -1.57211,0.51031 -2.49597,0.83217c-0.70047,0.24403 -1.54065,0.7438 -2.17868,1.29933c-0.70004,0.6095 -1.3251,1.30473 -1.84732,1.82649c-0.767,0.76634 -1.39545,1.20433 -2.15268,1.67351c-0.75507,0.46782 -1.15158,1.32805 -1.44733,2.222c-0.28275,0.8546 -0.69666,1.39581 -1.37399,2.07849c-0.67599,0.68134 -1.14655,1.24689 -1.92603,1.91701c-0.60236,0.51784 -1.6312,0.60771 -2.26865,0.931c-0.98355,0.49881 -1.30209,1.42282 -1.96933,1.944c-0.66858,0.52223 -1.72943,0.69966 -2.49384,0.9075c-0.87769,0.23863 -1.37027,1.105 -2.02084,1.64583c-0.69339,0.57643 -1.42255,1.01888 -2.29999,1.27617c-0.86548,0.25378 -1.73666,0.3833 -2.5,0.77316c-0.7529,0.38454 -1.67917,0.30484 -2.25269,0.93134l-0.74866,0.35133l-0.89868,0.00133" id="svg_13" stroke-width="2" stroke="#000" fill="none"/>
  <path t="49470,49725,49737,49750,49762,49762,49777,49794,49794,49794,49800,49813,49813,49813,49828,49828,49828,49837,49837,49849,49849,49863,49880,49885,49897,49911,49927,49945,49962,49977,49983,49995,49995,50020,50020,50032,50032,50044,50044,50062,50081,50081,50094,50094,50118,50133,50153,50154,50166,50179,50195,50203,50215,50215,50228,50243,50253,50253,50265,50278,50278,50295,50295,50303,50303,50314,50315,50328,50328,50345,50345,50350,50350,50350,50362,50378,50378,50399,50423,50424,50437,50474,50487,50487,50497,50497,50511,50528,50529,50536,50536,50547,50547,50547,50547,50561,50561,50561,50561,50577,50578,50578,50578,50584,50584,50584,50595,50596,50611,50611,50620,50620,50632,50644,50644,50662,50670,50670,50681,50681,50695,50695,50711,50712,50719,50719,50731,50731,50731,50745,50745,50761,50762,50768,50768" d="m279.5,221.89999c0.16666,-1.83333 0.68365,-2.3974 1.35718,-2.94733c0.7034,-0.57433 1.41235,-0.88673 2.0535,-1.45267c0.7236,-0.6387 1.43533,-0.96626 2.10532,-1.39999c0.87723,-0.5679 1.48499,-1.36606 1.89468,-2.03601c0.34732,-0.56798 1.06177,-1.57315 1.58932,-2.14316c0.50513,-0.54578 1.28775,-1.23158 1.79868,-1.90483c0.55249,-0.72803 0.81662,-1.51897 1.70132,-2.09517c0.73801,-0.48067 1.04257,-1.38658 1.7215,-1.89934c0.70758,-0.53439 1.38751,-0.62868 2.13568,-1.06433c0.72894,-0.42445 1.46829,-0.54297 2.16367,-1.05717c0.69247,-0.51204 1.35138,-0.82214 2.13184,-1.29999c0.68362,-0.41855 1.57208,-1.03018 2.23132,-1.5c0.74478,-0.53076 1.4299,-0.98128 2.49066,-1.164c0.93359,-0.16083 1.67227,0.10301 2.60382,-0.25734c0.77783,-0.30089 1.58936,-0.65471 2.3215,-1.13583c0.79425,-0.52194 1.38947,-1.06026 2.17917,-1.64284c0.63797,-0.47066 1.13916,-1.15601 1.69019,-1.80133c0.58896,-0.68974 1.13583,-1.108 1.87881,-1.84149c0.57324,-0.56593 1.31717,-1.03444 1.6665,-1.8745c0.34131,-0.82076 0.72073,-1.59393 1.47067,-2.08267c0.78552,-0.51192 1.38199,-1.02321 2.11917,-1.7c0.56458,-0.51831 1.32629,-1.05901 2.10001,-1.34283c0.96793,-0.35509 1.80472,-0.2529 2.71283,-0.6425c0.74393,-0.31915 1.64328,-0.93344 2.38266,-1.19383c0.72528,-0.25542 1.75534,-0.2977 2.60001,-0.74234c0.68158,-0.3588 1.24371,-1.30945 2.06665,-1.61183c0.7941,-0.29179 1.92859,0.12924 2.66669,-0.33333c0.70615,-0.44252 1.24371,-0.66299 2.14514,-1.05484c0.79285,-0.34465 1.4303,-1.16983 2.02151,-1.7785c0.60919,-0.62718 1.08572,-1.33037 1.52084,-2.02083c0.62537,-0.99236 1.12863,-1.59109 1.52081,-1.97917c0.62619,-0.61963 1.64325,-1.40189 2.19434,-1.81065c0.57425,-0.42593 1.17953,-0.85768 2.06384,-1.6105c0.60562,-0.51556 1.16241,-1.07724 2.01483,-1.80949c0.74921,-0.64359 1.45096,-1.07796 2.19867,-1.56668c0.7468,-0.48813 1.371,-1.08766 1.97067,-1.68666c0.69104,-0.69026 1.28925,-1.41811 1.99515,-1.97433c0.67068,-0.52846 1.57529,-0.83582 2.22086,-1.189c0.88556,-0.48448 1.80231,-0.60167 2.47464,-0.96333c0.82877,-0.44582 1.50104,-1.11014 2.12985,-1.68933c0.56372,-0.51923 1.34732,-1.01015 2.10001,-1.40001c0.98865,-0.51208 1.56964,-0.86304 2.59549,-1.13333c0.78555,-0.20699 1.62207,-0.17995 2.60001,-0.52383c0.82275,-0.28932 1.59982,-0.74283 2.37915,-1.14284l0.85419,-0.5l0.64581,-0.47916" id="svg_14" stroke-width="2" stroke="#000" fill="none"/>
  <path t="51420,51578,51579,51589,51589,51589,51589,51603,51603,51603,51603,51614,51615,51615,51629,51630,51630,51630,51638,51638,51638,51649,51649,51661,51661,51661,51677,51687,51687,51699,51699,51699,51711,51711,51711,51728,51728,51728,51728,51728,51737,51737,51737,51737,51737,51748,51748,51748,51748,51761,51761,51761,51761,51778,51778,51778,51785,51785,51797,51797,51811,51811,51811,51828,51834,51834,51845,51846,51861,51861,51878,51882,51882,51907,51907,51920,51920,51932,51932,51944,51944,51962,51962,51969,51969,51970,51980,51980,51994,52252,52252,52273,52312" d="m374.5,154.89999c1.42133,-1.836 1.76587,-2.45177 2.543,-3.2c0.44534,-0.42877 1.2757,-1.00385 1.85968,-1.39999c0.89319,-0.60591 1.5,-0.98976 2.36133,-1.60001c0.55536,-0.39345 1.55347,-1.19833 2.01065,-1.59999c0.68018,-0.59755 1.38577,-1.20824 2.17801,-1.8c0.54312,-0.4057 1.37894,-0.98068 2.12567,-1.59984c0.68985,-0.57202 1.26111,-1.14188 2.03766,-1.91617c0.51007,-0.50859 1.194,-1.21701 1.70935,-1.69865c0.67615,-0.6319 1.64127,-1.00847 2.27481,-1.62834c0.52301,-0.51172 1.04938,-1.57141 1.55252,-2.1525c0.50519,-0.58345 1.35245,-1.36029 1.86816,-1.96701c0.47357,-0.55713 1.02521,-1.42113 1.48898,-2.15717c0.25323,-0.4019 0.77411,-1.25186 1.3075,-2.11499c0.51468,-0.83284 0.99875,-1.59512 1.44669,-2.304c0.42664,-0.67516 0.84244,-1.33953 1.43616,-2.38234c0.40973,-0.71962 0.78366,-1.46275 1.25699,-2.112c0.65997,-0.90527 1.20453,-1.35299 2.06369,-1.82533c0.56931,-0.31299 1.78293,-0.85548 2.37015,-1.18983c0.84305,-0.48002 1.76236,-1.05399 2.44766,-1.2905c0.96674,-0.33365 1.65985,-0.63612 2.66135,-0.89467c0.77643,-0.20045 1.58673,-0.11165 2.36401,-0.60266c0.83813,-0.52946 1.24561,-1.2031 2.12,-1.764c0.67178,-0.43093 1.5181,-0.87247 2.10532,-1.4c0.74207,-0.66663 1.38123,-1.43262 1.93152,-1.9c0.76248,-0.64759 1.51019,-0.95157 2.3125,-1.5c0.67426,-0.46091 1.29974,-1.30111 1.92383,-1.64283c0.82962,-0.45428 1.78271,-0.38651 2.63882,-0.79317c0.68033,-0.32317 1.65231,-0.77516 2.28,-0.95334c0.96075,-0.27272 1.84692,-0.34565 2.76151,-0.61066c0.89499,-0.25934 1.5625,-0.83334 2.36249,-0.99866l0.90002,-0.0585l0.79999,-0.44283" id="svg_15" stroke-width="2" stroke="#000" fill="none"/>
  <path t="52743,52937,52954,52954,52968,52986,52997,53012,53012,53028,53047,53061,53061,53096,53110,53127,53132,53133,53144,53144,53144,53162,53169,53182,53182,53206,53231,53244,53262,53262,53269,53279,53279,53294,53316,53327,53353,53389,53389,53403,53414,53427,53444,53444,53452,53462,53478,53494,53500,53500,53512,53527,53545,53545,53550,53550,53550,53561,53579,53579,53586,53586,53598,53611,53627,53628,53636,53646,53646,53646,53661,53661,53678,53678,53684,53684,53684,53684,53696,53697,53711,53711,53711,53728,53728,53733,53758,53758,53781,53806,53806,53831,53844,53861,53869,53880,53904,53904,53916,53928,53929,53945,53961,53961,53961,53965,53965,53965,53981,53981,53982,53997,53998,53998,54003,54003,54015,54015,54028,54045,54045,54045,54055,54065,54077,54077,54094,54112,54112,54128,54137,54137,54149,54161,54178,54178,54187,54199" d="m439.5,104.9c-0.01068,1.82533 -0.17853,2.82705 -0.57468,3.58933c-0.41245,0.79366 -0.97614,1.35081 -1.72531,1.76334c-0.83871,0.46182 -1.55518,0.65582 -2.30002,1.258c-0.65329,0.52814 -0.98672,1.53279 -1.48401,2.104c-0.52979,0.60851 -1.48108,0.94035 -2.32666,1.26c-0.88266,0.33367 -1.58783,0.60011 -2.58932,0.85867c-0.77643,0.20045 -1.53476,0.20686 -2.47916,0.66666c-0.84048,0.40922 -1.56766,0.80687 -2.32083,1.216c-0.79752,0.43321 -1.54279,0.89684 -2.07867,1.50549c-0.62308,0.70767 -1.00583,1.16743 -1.68533,1.83984c-0.63577,0.62912 -0.21573,1.48642 -0.47202,2.528c-0.21487,0.87325 -0.64651,1.79037 -1.24933,2.32667c-0.64993,0.5782 -1.39267,0.90057 -1.73999,1.684c-0.36252,0.81767 -0.68802,1.82423 -1.41733,2.27867c-0.73804,0.45988 -1.48154,0.6955 -2.168,1.14667c-0.73947,0.48602 -1.64297,0.76369 -2.48935,1.196c-0.6553,0.33473 -1.50626,0.68661 -2.31067,0.78934c-0.92725,0.11841 -1.67343,0.4323 -2.42267,1.15599c-0.6084,0.58765 -0.90768,1.3933 -1.56665,2.19734c-0.55423,0.67625 -1.20001,1.23599 -1.80002,1.836c-0.59998,0.59999 -1.36115,1.25734 -1.74731,2.09999c-0.35233,0.76874 -0.70782,1.52782 -1.11401,2.336c-0.44391,0.88324 -0.95316,1.37018 -1.45599,1.88c-0.84677,0.85855 -1.35141,1.30693 -2.14432,1.7885c-0.78564,0.47716 -1.75745,1.02031 -2.29102,1.34367c-0.8186,0.49611 -1.3291,0.88712 -2.59018,1.24199c-0.63376,0.17834 -1.66965,0.29988 -2.45715,0.63068c-0.61066,0.2565 -1.5777,0.81581 -2.34283,1.12199c-0.88211,0.353 -1.78473,0.54694 -2.45715,1.15851c-0.62704,0.57028 -1.29889,1.29979 -1.90002,1.89867c-0.59885,0.59662 -1.54376,0.95483 -2.17865,1.52133c-0.6001,0.53546 -0.97684,1.27478 -1.40668,1.97867c-0.41245,0.67537 -1.21466,1.29999 -1.91467,2c-0.5,0.5 -1.23923,1.18112 -1.79999,1.96666c-0.45428,0.63638 -0.73413,1.29286 -1.76935,1.948c-0.70578,0.44666 -1.29541,0.54947 -2.30914,0.9855c-0.91318,0.39278 -1.54117,0.75804 -2.3215,1.38383c-0.61734,0.4951 -1.17444,1.06773 -1.99869,1.63066c-0.74368,0.5079 -1.52484,1.06665 -2.29681,1.52817c-0.77917,0.46581 -1.62848,0.79662 -2.3045,1.35716c-0.51804,0.42955 -1.54767,0.85651 -2.29999,1.35718c-0.7912,0.52655 -1.16312,1.1917 -2,1.59016c-0.86804,0.41328 -1.50031,0.85371 -2.10001,1.45267c-0.70035,0.69948 -1.31445,1.21051 -2.20001,1.62534c-0.81433,0.38145 -1.39999,0.97466 -2,1.53867l-0.89999,0.41516l-0.89999,0.02083" id="svg_16" stroke-width="2" stroke="#000" fill="none"/>
  <path t="54958,55080,55080,55094,55094,55111,55111,55111,55111,55118,55118,55118,55143,55144,55162,55162,55168,55179,55195,55211,55211,55217,55217,55217,55228,55228,55245,55264,55279,55279,55296,55296,55301,55313,55314,55327,55327,55344,55344,55351,55362,55362,55378,55394,55400,55400,55400,55412,55428,55428,55444,55444,55461,55461,55477,55477,55486,55497,55511,55511,55528,55534,55535,55546,55561,55561,55578,55578,55583,55583,55595,55612,55620,55620,55632,55644,55644,55662,55662,55681,55694,55711,55711,55718,55729,55744,55745,55761,55778,55797,55816,55828,55852,55877,55894,55894,55939,55964,56271,56284,56303,56308,56323,56323,56342,56342,56361,56368,56379,56395,56411,56411,56416,56428,56446,56446,56453,56454,56465,56465,56477,56477,56477,56495,56502,56502,56513,56513,56527,56527,56545,56552,56576,56576,56600,56625,56625,56645,56649,56712,56737,56738,56757,56762,56762,56777,56790,56790,56802,56802,56812,56812,56827,56827,56827,56833,56845,56845,56870,56895,56895,56919,56919,56931,56931,56956,56969,56981,56981,56994,57017,57042,57054,57065,57066,57078,57095,57103,57103,57139,57139,57152,57177,57196,57196,57201,57213,57229,57230,57246,57246,57250,57250,57262,57262,57278,57286,57298,57298,57323" d="m347.5,177.89999c-1.836,0.436 -2.60464,0.79477 -3.40134,1.20134c-0.83823,0.42776 -1.76505,0.96579 -2.28265,1.28134c-0.81558,0.49721 -1.32889,0.89258 -2.3945,1.27466c-0.87805,0.31483 -1.56897,0.32863 -2.517,0.948c-0.60388,0.39453 -1.41415,0.98225 -2.20319,1.37733c-0.84082,0.42101 -1.64264,0.80119 -2.40134,1.20134c-0.85837,0.45271 -1.48068,0.70605 -2.34265,0.9375c-0.96872,0.26012 -1.71667,0.52914 -2.48666,0.97716c-0.79974,0.46532 -1.67068,0.79852 -2.49152,0.80133c-0.96317,0.0033 -1.89261,-0.09454 -2.72198,0.35718c-0.62485,0.34032 -1.23407,1.22592 -2.07849,1.52167c-0.82358,0.28845 -1.69998,0.52953 -2.15784,1.142c-0.57785,0.77299 -1.12524,1.54927 -1.49551,2.37917c-0.34967,0.78374 -0.91623,1.32321 -1.50449,2.09999c-0.56195,0.74203 -0.65546,1.68071 -0.95685,2.32535c-0.33093,0.70778 -1.00241,1.52165 -1.564,2.34132c-0.43042,0.6282 -1.05383,1.424 -1.70001,1.93867c-0.6687,0.53261 -0.99011,1.31641 -1.78265,2.00932c-0.60959,0.53296 -1.14349,1.26582 -1.80267,1.80133c-0.67526,0.54857 -1.48312,0.92847 -2.35065,1.07333c-1.00293,0.16747 -1.78427,-0.09615 -2.60684,0.36784c-0.86511,0.48798 -1.35757,1.3093 -2.24118,1.55882c-0.67294,0.19003 -1.66339,0.32858 -2.31467,0.88535c-0.74136,0.63379 -1.56079,1.01178 -2.30133,1.42017c-0.6745,0.37196 -1.29999,1.1785 -2,1.87849c-0.5,0.5 -1.20377,1.19624 -1.69998,1.7c-0.68445,0.69485 -1.03094,1.55261 -1.48401,2.40001c-0.3486,0.65199 -0.67688,1.56134 -1.23685,2.29999c-0.50372,0.66444 -1.30319,0.93777 -2.04315,1.52534c-0.67706,0.53761 -1.21793,1.09177 -2.03601,1.54933c-0.77231,0.43196 -1.2829,1.01137 -1.75717,1.72533c-0.52585,0.79164 -1.17719,1.43889 -2.04282,1.664c-0.86755,0.22562 -1.7244,0.71568 -0.98935,1.02533c0.81964,0.34528 1.80023,0.02971 2.71066,0.01051c0.85388,-0.01799 1.70306,-0.15938 2.37418,-0.70435c0.76273,-0.61934 1.53683,-0.97697 2.22049,-1.5795c0.59766,-0.52675 1.30765,-0.97508 1.884,-1.51733c0.70966,-0.66768 1.00739,-1.59958 1.53336,-2.19867c0.56085,-0.63882 1.52823,-0.96553 2.14581,-1.5c0.76053,-0.65817 1.31595,-1.22218 2.28885,-1.41599c0.7226,-0.14394 1.55228,0.03642 2.56,-0.52c0.76801,-0.42407 1.27914,-1.20616 1.99332,-1.66383c0.6546,-0.41949 1.70673,-0.63631 2.47736,-0.98418c0.84674,-0.38223 1.04517,-1.38005 1.48666,-2.116c0.4071,-0.6786 1.24997,-1.29498 1.71466,-1.96666c0.54279,-0.78456 1.16049,-1.29877 1.83334,-2c0.56146,-0.58513 1.29269,-1.02419 1.86667,-1.53784c0.73532,-0.65802 1.22961,-1.3813 1.89999,-1.8595c0.73608,-0.52505 1.54462,-1.05106 2.03598,-1.58533c0.62018,-0.67435 1.62802,-0.75545 2.34268,-1.2935c0.62183,-0.46819 1.15823,-1.42973 1.84668,-1.92117c0.66418,-0.47412 1.33728,-1.07178 2.27466,-1.51466c0.65958,-0.31161 1.39456,-0.68031 2.22131,-1.22133c0.65918,-0.43137 1.54123,-0.8644 2.15784,-1.40001c0.75784,-0.65831 1.16022,-1.33197 1.57352,-2.2c0.39847,-0.8369 1.14926,-1.32141 1.59015,-2c0.5148,-0.79234 1.06018,-1.35533 1.85718,-1.8c0.79849,-0.44551 1.70132,-0.49608 2.38535,-0.5c0.92938,-0.00534 1.77344,-0.2818 2.28131,-1c0.50574,-0.71518 1.48474,-0.9639 2.18066,-0.9955c1.0051,-0.04564 1.61496,-0.60912 2.358,-0.95633c0.68723,-0.32112 0.98422,-1.22401 1.58002,-1.87883c0.60812,-0.66838 1.44415,-0.91145 1.91467,-1.65334c0.42746,-0.674 1.09232,-1.57602 1.44281,-2.26866c0.42706,-0.84396 0.3699,-1.75909 1.06168,-2.2955c0.73126,-0.56702 1.39551,-1.05183 1.99551,-1.65184l0.71066,-0.7" id="svg_17" stroke-width="2" stroke="#000" fill="none"/>
  <path t="59194,59506,59507,59568,59604,59703,59800,59820,59836,59847,59862,59897,59912,59928,59937,59957,59971,59971,59994,60019,60056,60105,60154,60166,60178,60215,60240,60288,60301,60313,60336,60350,60362,60362,60387,60462,60475,60503,60521,60545,60545,60570,60583,60595,60610,60632,60657,60681,60706,60719,60741,60767,60778,60794,60810,60828,60889,60902,60913,60976,61037,61073,61086,61110,61110,61135,61146,61161,61178,61196,61219,61220,61245,61245,61269,61269,61281,61306,61342,61404,61404,61417" d="m299.5,198.89999c-1,-1 -1.79999,-1 -2.70001,-1c-0.89999,0 -1.79999,-0.00226 -2.69998,0c-0.89551,0.00226 -1.5845,0.41652 -2.10001,1c-0.56357,0.63788 -1.33334,1.16667 -1.5,2c-0.16666,0.83334 -0.95728,1.282 -1,2.10001c-0.04694,0.89877 0,1.7 0,2.60001c0,0.89999 -0.00485,1.8 0,2.7c0.00534,0.98938 0.44086,1.66025 1.02533,2.17467c0.62341,0.54872 1.64877,0.85938 1.91751,1.72533c0.26691,0.86011 0.66556,1.43881 1.02115,2.136c0.39301,0.77051 0.39542,1.71634 0.75201,2.364c0.47552,0.86368 0.9639,1.48381 1.56799,2.116c0.55035,0.57597 0.86169,1.48875 1.716,1.91734c0.73016,0.3663 1.70001,0.16666 2.60001,0.16666c0.89999,0 1.83481,0.24289 2.6955,-0.00449c0.76788,-0.2207 1.22519,-0.98289 2.10449,-0.99551c0.89542,-0.01286 1.582,-0.43542 1.60001,-1.29999c0.01874,-0.89981 -0.2225,-1.91591 0.284,-2.616c0.50177,-0.69356 0.52112,-1.40569 0.71735,-2.28267c0.18057,-0.80705 0.98065,-1.23677 0.99866,-2.10133c0.01874,-0.89981 0,-1.8 0,-2.70001c0,-0.79999 0,-1.7 0,-2.59999c0,-0.90001 0.00006,-1.8 0,-2.7045c-0.00009,-1.01683 0.12366,-1.73665 -0.22134,-2.67416c-0.30511,-0.82913 -0.49561,-1.74756 -0.86267,-2.45201c-0.40451,-0.77631 -1.31598,-0.99466 -2.116,-1.48399l-0.90015,-0.08534l-0.78519,0l-0.94,0" id="svg_18" stroke-width="2" stroke="#000" fill="none"/>
  <path t="63111,63319,63330,63404,63427,63428,63452,63489,63502,63537,63549,63560,63579,63585,63597,63609,63658,63721,63750,64027,64052,64052,64069,64080,64080,64093,64101,64101,64101,64111,64127,64127,64127,64143,64149,64149,64149,64161,64161,64177,64177,64196,64247,64259,64276,64295,64344,64393,64713,64736,64755,64773,64798,64810,64827,64835,64858,64883,64895,64909,64969,64993,64994,65018,65029,65042,65059,65067,65079,65094,65109,65127,65128,65143,65164,65189,65202,65238,65251,65275,65293,65300,65447,65447,65459" d="m284.5,207.89999c0,1.8 -0.24539,2.43784 -0.83334,3.16667c-0.56351,0.69856 -0.59073,1.52376 -1.16666,2.3125c-0.46753,0.64029 -1.21506,1.0692 -1.83334,1.6875c-0.61829,0.6183 -0.97351,1.50386 -1.6875,1.8125c-0.80719,0.34894 -1.82932,-0.05222 -2.45383,0.44617c-0.60797,0.48518 -1.56421,0.51405 -2.32532,0.92734c-0.74625,0.40521 -1.61496,0.80002 -1.69867,1.534c-0.10635,0.93263 -0.15286,1.96942 0.03467,2.70267c0.22638,0.88507 0.97086,1.57321 1.36398,2.23601c0.40717,0.68646 1.04141,1.51961 1.60001,2.34132c0.43323,0.6373 0.70007,1.43112 1.41068,2.19734c0.67178,0.72437 1.43161,1.00809 2.10532,1.43599c0.74686,0.47437 1.28195,1.08583 1.884,2.01466c0.39951,0.61633 1.28235,0.83229 2.07916,1.20618c0.76892,0.36079 1.25208,0.7942 2.12085,1.01517c0.86224,0.2193 2.16556,0.47528 2.33832,1.31667c0.15622,0.76088 -1.33832,0.64732 -2.23831,0.64732c-0.90002,0 -1.80441,0.08868 -2.70001,0c-0.8457,-0.08374 -1.21524,-0.9391 -2.10001,-1c-0.89786,-0.0618 -1.56967,-0.39743 -2.18533,-0.91599c-0.66534,-0.56041 -1.54462,-0.8546 -1.70398,-1.68401c-0.1821,-0.9478 -0.82877,-1.39429 -1.00934,-2.20134c-0.19623,-0.87698 0.004,-1.79868 -0.00134,-2.69867c-0.00534,-0.90004 -0.26785,-1.71548 -0.80133,-2.29999c-0.65686,-0.71971 -0.97556,-1.52652 -1.20001,-2.39867c-0.20612,-0.8009 -1.04636,-1.16161 -1.57333,-1.82668c-0.49619,-0.62622 -0.42532,-1.57466 -0.42532,-2.4955l0.00134,-0.96049l0.05582,-0.75166l0.64734,-0.11067" id="svg_19" stroke-width="2" stroke="#000" fill="none"/>
  <path t="66931,67128,67129,67150,67187,67187,67200,67248,67261,67279,67311,67336,67359,67377,67377,67396,67420,67444,67444,67459,67469,67469,67505,67529,67568,67617,67640,67680,67692,67708,67708,67713,67742,67742,67751,67775,67793,67812,67850,67851,67874,67894,67910,67973,68001,68022,68022,68059,68059,68083,68094,68131,68156,68217,68254,68278,68294,68440,68453,68453,68475,68486" d="m238.5,191.89999c1,-1.16666 1.56042,-1.65361 2.3,-2.29549c0.66669,-0.57861 1.61099,-0.33952 2.34283,-0.76167c0.81113,-0.46788 1.0265,-1.49124 1.71432,-1.88567c0.81941,-0.46988 1.84283,-0.05717 2.74284,-0.05717c0.89999,0 1.73102,0.18399 2.59999,-0.05716c0.77122,-0.21404 1.61635,-0.86424 2.3,-0.922c0.97525,-0.08238 2,-0.02084 2.8,-0.02084c0.90001,0 1.8,0 2.7,0c0.89999,0 1.79999,0 2.70001,0c0.89999,0 1.79999,0 2.59998,0c0.836,0 1.85269,0 2.54733,0c1.01669,0 1.95267,0 2.85269,0c0.89999,0 1.79999,0 2.59998,0c0.90002,0 1.80002,0 2.70001,0c0.89999,0 1.8045,0 2.66666,0c0.83334,0 1.81183,0 2.63202,0c0.90134,0 1.80136,0.0054 2.70132,0c0.8894,-0.00534 1.58408,-0.41454 2.14734,-1.05266c0.52554,-0.5954 1.20859,-0.95667 1.95267,-1.558c0.65411,-0.52864 1.19998,-1.18933 1.89999,-1.8685l0.7955,-0.46817" id="svg_20" stroke-width="2" stroke="#000" fill="none"/>
  <path t="77533,77765,77775,77804,77824,77824,77837,77862,77876,77891,77934,77982,78019,78043,78092,78119,78134,78154,78154,78178,78215,78239,78240,78264,78327,78351,78414,78462,78462,78486,78511,78570,78584,78602,78603,78609,78644,78658,78681,78706,78718,78756,78817,78877,78877,78902,78963,79062,79086,79124,79149,79308,79442,79479,79639,79686,79734,79835,79835,79896,80191,80238,80251,80263,80287,80300,80311,80359,80375,80409,80426,80509,80570,80605,80656,80693,80730,80754,80767,80786,80787,80805,80820,80834,80844,80844,80862,80875,80899,80924,80961,80980,80998,81012,81027,81058,81082,81120" d="m298.5,158.89999c1.22134,-0.87866 1.87131,-1.3652 2.00134,-2.2c0.14261,-0.91545 0.79718,-1.45631 0.98798,-2.39999c0.17435,-0.86229 0.80331,-1.39391 1.0062,-2.10451c0.25815,-0.90422 0.92905,-1.23094 1.48364,-1.81633c0.68771,-0.72588 0.97287,-1.3087 1.92084,-1.48984c0.83041,-0.15868 1.58917,-0.87996 2.30002,-0.98483c0.93469,-0.13791 1.45428,-0.92076 2.29999,-1.0045c0.79608,-0.07883 1.45148,-0.33101 2.16666,-0.83333c0.69543,-0.48846 1.58359,-0.44861 2,-1.16667c0.42047,-0.72505 1.41663,-0.62349 2.3125,-1.02083c0.71106,-0.31535 1.16748,-0.97383 2.17352,-0.97917c0.69464,-0.00369 1.71133,0.00069 2.64731,0c0.89868,-0.00067 1.4379,-0.6102 2.13602,-0.96399c0.77133,-0.39088 1.76401,-0.03601 2.664,-0.03601c0.89999,0 1.69998,0 2.60001,0c0.89999,0 1.89285,-0.39586 2.77914,0.02084c0.70575,0.3318 0.61032,1.39653 1.09552,2.0045c0.49838,0.6245 0.42163,1.76309 -0.37601,1.97333c-0.81567,0.215 -1.42142,0.71915 -2.19867,1.168c-0.62158,0.35896 -0.93799,1.39101 -1.61066,1.85867c-0.72281,0.50252 -1.15643,1.27194 -1.67334,1.89066c-0.54883,0.65694 -0.66412,1.41786 -1.14133,2.05867c-0.50772,0.68178 -0.64658,1.45717 -1.14935,2.05067c-0.5368,0.6337 -0.88574,1.49826 -1.37265,2.27016c-0.44308,0.70244 -1.04224,1.22516 -1.05267,2.10451c-0.01068,0.89993 0,1.8 0,2.7c0,0.89999 0.1243,1.67743 0.57468,2.5c0.42728,0.7804 0.29367,1.75006 0.64667,2.5c0.36505,0.77551 0.76575,1.60008 0.77866,2.5c0.0126,0.87932 0.73093,1.25163 1.38934,1.836c0.69318,0.61522 0.94745,1.41525 1.58533,1.98933c0.57874,0.52086 1.078,1.222 1.82666,1.57333l0.89868,0.00133" id="svg_22" stroke-width="2" stroke="#000" fill="none"/>
  <path t="82963,83316,83340,83341,83400,83436,83472,83494,83521,83546,83546,83583,83608,83657,83718,83768,83806,83807,83818,83903,83932,83988,84000,84088,84124,84382,84404,84515,84516,84602,84650,84674,84735,84735,84761,84797,84820,84834,84845,84870" d="m338.5,191.89999c-1.83334,0.16667 -2,1 -2,1.8c0,0.90001 -0.34076,1.87753 0.02084,2.67917c0.33054,0.73276 1.37146,0.96504 2.07916,1.62067c0.59363,0.54996 1.39981,0.88974 2.29999,0.90016c0.89993,0.01041 1.80002,0 2.70001,0c0.89999,0 1.83038,0.39305 2.61465,-0.08533c0.80362,-0.49019 0.96194,-1.48352 1.72134,-1.87866c0.76709,-0.39915 1.76401,-0.03601 2.664,-0.03601c0.89999,0 1.81625,0.15431 1.89999,1c0.07883,0.79611 0.41272,1.82344 -0.05716,2.64284c-0.39444,0.68785 -0.99744,1.46727 -1.5535,1.92117c-0.75284,0.6145 -1.37866,1.04666 -1.41019,1.91516l-0.55383,0.54617l-0.42084,0.67917l-0.00449,0.89549" id="svg_23" stroke-width="2" stroke="#000" fill="none"/>
 </g>
 <g display="none">
  <title>muse_image</title>
  <image xlink:href="http://farm1.static.flickr.com/120/296255446_ef18f8c7ee.jpg" id="muse" height="480" width="319" y="0" x="160.5"/>
 </g>
 <g display="none">
  <title>bbox</title>
  <rect stroke="#f00" fill="none" stroke-width="3" height="178.56" width="196.38138" y="82.56" x="252.46396" id="bbox"/>
 </g>
</svg>
