<svg width="640" height="480" xmlns="http://www.w3.org/2000/svg" xmlns:svg="http://www.w3.org/2000/svg" xmlns:xlink="http://www.w3.org/1999/xlink">
 <!-- Sketchy ANNOTATION
  ImageNet ID: n03272010_6737
  URL: http://farm1.static.flickr.com/193/1515258895_c15addcc7f.jpg
  Image Width: 375
  Image Height: 500
  BBox X: 105
  BBox Y: 0
  BBox Width: 161
  BBox Height: 494
  Exposure: 2000ms
  Synset Label: guitar
  Synset ID: n03467517
  Worker Tag: Guitar
  Sanity Check: 
   Saved
  Comment: 
   {}
  Worker ID: AIH9VLD92GHFH
  Assignment ID: 3YMU66OBIN8DYPB546ZNGIYJ1JKGHQ
  HIT ID: 3MGHRFQY2LP0MWSFA296S6BLHKZY0Q
  Work Time: 34s
  Worker Score: 0.5500
 END ANNOTATION -->
 <g display="inline">
  <title>Layer 1</title>
  <path t="0,217,230,231,248,248,271,282,282,282,298,298,298,315,315,315,331,332,347,348,365,381,382,414,418,418,431,431,431,447,448,464,465,481,481,497,498,515,531,547,548,565,565,597,597,614,614,631,631,647,648,665,681,697,698,698,714,715,731,731,747,748,764,764,764,781,781,782,799,800,815,815,832,832,832,847,848,864,865,865,881,881,897,898,898,914,915,931,932,947,948,964,964,964,981,997,1029,1029,1063,1063,1079,1079,1096,1115,1130,1130,1131,1145,1146,1146,1146,1165,1165,1181,1181,1182,1182,1197,1198,1198,1198,1214,1215,1215,1230,1231,1231,1254,1255,1255,1255,1255,1268,1269,1269,1269,1281,1281,1282,1298,1298,1298,1298,1314,1315,1315,1315,1331,1332,1332,1332,1347,1348,1348,1348,1364,1365,1365,1365,1380,1381,1382,1382,1397,1398,1398,1414,1415,1415,1431,1431,1432,1432,1447,1448,1448,1448,1465,1465,1466,1466,1481,1481,1482,1482,1497,1498,1498,1514,1515,1531,1532,1547,1548,1548,1565,1565,1580,1581,1597,1598,1630,1630,1647,1648,1680,1680,1681,1698,1698,1715,1715,1715,1731,1731,1747,1748,1764,1765,1781,1782,1798,1798,1814,1815,1831,1832,1848,1848,1864,1865,1881,1898,1898,1898,1914,1915,1915,1930,1931,1948,1948,1964,1965,1965,1981,1981,1997,1998,2014,2015,2015,2031,2031,2047,2048,2048,2065,2065,2081,2082,2082,2097,2097,2098,2113,2114,2115,2131,2131,2148,2149,2164,2165,2165,2181,2182,2197,2198,2215,2215,2216,2230,2231,2232,2247,2248,2248,2264,2265,2265,2281,2281,2282,2297,2298,2298,2314,2315,2331,2331,2332,2347,2348,2364,2365,2365,2381,2381,2382,2397,2398,2398,2414,2415,2416,2431,2431,2447,2448,2448,2464,2465,2465,2465,2480,2481,2497,2498,2498,2524,2525,2525,2534,2534,2534,2549,2549,2564,2565,2565,2581,2582,2598,2598,2599,2599,2614,2615,2631,2632,2632,2647,2648,2665,2665,2666,2681,2682,2682,2697,2698,2698,2714,2715,2715,2716,2730,2731,2732,2747,2748,2748,2764,2765,2765,2766,2780,2781,2782,2797,2798,2798,2814,2815,2816,2816,2816,2830,2831,2832,2832,2832,2846,2847,2848,2848,2865,2865,2866,2866,2880,2881,2882,2882,2897,2898,2898,2899,2899,2914,2915,2915,2916,2930,2931,2931,2949,2949,2950,2976,2977,2977,2978,2994,2995,2995,2995,3012,3012,3013,3013,3030,3030,3031,3051,3051,3051,3067,3067,3067,3068,3086,3087,3087,3087,3107,3108,3108,3126,3126,3127,3127,3145,3145,3145,3149,3149,3151,3151,3152,3152,3168,3168,3168,3185,3185,3186,3186,3202,3202,3202,3219,3219,3220,3236,3236,3236,3237,3253,3253,3254,3287,3288,3288,3288,3291,3291,3292,3292,3292,3309,3309,3309,3309,3310,3327,3327,3327,3328,3344,3345,3345,3345,3362,3362,3362,3363,3380,3380,3381,3381,3400,3400,3400,3401,3418,3418,3435,3435,3436,3452,3452,3452,3453,3470,3470,3470,3491,3491,3492,3510,3511,3512,3512,3531,3531,3531,3532,3535,3535,3535,3536,3538,3539,3539,3559,3559,3560,3560,3581,3581,3581,3600,3601,3601,3601,3618,3619,3619,3637,3637,3638,3654,3655,3655,3655,3672,3673,3673,3690,3690,3691,3691,3708,3709,3709,3709,3727,3728,3728,3729,3729,3747,3747,3747,3748,3750,3751,3751,3751,3752,3754,3755,3755,3774,3774,3775,3793,3793,3794,3794,3812,3812,3813,3813,3831,3831,3832,3832,3851,3852,3852,3853,3853,3873,3874,3874,3875,3892,3893,3893,3894,3894,3912,3912,3913,3913,3916,3917,3917,3917,3920,3920,3938,3938,3939,3975,3975,3979,3979,3979,3998,3999,3999,4001,4002,4002,4021,4021,4022,4040,4041,4059,4059,4081,4081,4081,4084,4084,4105,4105,4127,4128,4131,4154,4154,4174,4174,4196,4196,4199,4199,4218,4219,4237,4238,4238,4257,4257,4257,4276,4276,4277,4277,4296,4297,4297,4298,4315,4316,4316,4316,4335,4335,4335,4353,4354,4354,4355,4374,4374,4374,4375,4394,4394,4395,4414,4415,4415,4416,4419,4419,4419,4422,4422,4423,4423,4444,4444,4445,4464,4464,4483,4484,4503,4503,4504,4523,4523,4542,4542,4564,4582,4583,4586,4605,4606,4629,4679,4680,4729,4749,4750,4772,4772,4773,4815,4816,4816,4820,4821,4821,4824,4825,4825,4848,4848,4849,4852,4852,4853,4872,4873,4873,4873,4895,4896,4896,4896,4897,4900,4901,4901,4902,4902,4923,4924,4924,4924,4925,4946,4947,4947,4948,4951,4951,4951,4952,4971,4972,4972,4973,4993,4993,4994,4994,5015,5016,5016,5017,5036,5037,5037,5038,5038,5059,5060,5060,5060,5083,5083,5084,5084,5085,5085,5088,5088,5089,5090,5090,5093,5094,5094,5095,5118,5118,5119,5119,5122,5123,5123,5124,5124,5150,5150,5151,5151,5154,5155,5155,5156,5156,5185,5185,5186,5186,5187,5187,5191,5191,5192,5192,5192,5215,5216,5216,5217,5217,5220,5221,5221,5222,5223,5223,5249,5249,5250,5250,5251,5254,5255,5255,5256,5256,5280,5281,5281,5282,5282,5286,5286,5287,5287,5288,5288,5312,5313,5314,5315,5315,5316,5316,5337,5337,5338,5338,5339,5359,5359,5360,5361,5361,5362,5401,5402,5402,5402,5403,5407,5407,5408,5408,5409,5412,5413,5413,5414,5414,5415,5415,5418,5419,5419,5420,5420,5421,5422,5425,5425,5426,5426,5427,5427,5431,5431,5432,5432,5433,5433,5434,5456,5457,5458,5458,5459,5459,5460,5483,5484,5484,5485,5485,5486,5487,5490,5490,5491,5491,5492,5493,5493,5519,5520,5520,5521,5521,5522,5523,5523,5527,5527,5528,5528,5529,5530,5551,5552,5553,5553,5554,5554,5558,5558,5559,5560,5560,5561,5561,5562,5586,5587,5587,5588,5588,5589,5590,5594,5594,5595,5595,5596,5597,5597,5621,5622,5622,5623,5623,5624,5625,5628,5629,5630,5630,5631,5632,5632,5654,5655,5655,5656,5657,5657,5661,5662,5662,5663,5664,5687,5688,5688,5689,5690,5690,5691,5695,5695,5696,5697,5697,5698,5722,5723,5723,5724,5724,5725,5726,5730,5731,5731,5732,5733,5733,5757,5758,5758,5759,5763,5764,5765,5765,5766,5767,5789,5790,5791,5791,5795,5796,5797,5797,5839,5840,5841,5842,5842,5846,5847,5848,5848,5869,5870" d="m261,295c0.02667,0 -1.00534,0 -1.74933,0c-1.10767,0 -1.94168,0 -2.79233,0c-1.00134,0 -1.73035,-0.00012 -2.56734,0c-1.19067,0.00018 -1.79573,-0.09158 -2.619,0.07199c-1.16582,0.23163 -1.53229,0.89117 -2.24001,1.36002c-0.94537,0.62628 -1.80539,0.47647 -2.69867,0.73465c-0.8252,0.23849 -1.63641,0.80475 -2.5,0.83334c-0.85368,0.02826 -1.83333,0 -2.644,0c-0.6465,0 -1.87199,0 -2.6685,0c-0.7515,0 -1.7155,0 -2.48883,0c-1.03734,0 -1.78133,0 -2.88916,0c-0.75751,0 -1.7955,0 -2.49017,0c-1.01666,0 -1.95723,0.01077 -2.81934,0c-0.83353,-0.01044 -1.89093,-0.1261 -2.42267,-0.64667c-0.73999,-0.72446 -0.98793,-1.52292 -1.28949,-2.33182c-0.30396,-0.81531 -1.07788,-1.32602 -1.55318,-1.90686c-0.67308,-0.82254 -0.56665,-1.63065 -0.56799,-2.70398c-0.00104,-0.832 0,-1.74402 0,-2.66135c0,-0.74399 0,-1.78134 0,-2.55466c0,-0.96268 0,-1.69467 0,-2.86133c0,-0.83334 0,-1.66669 0,-2.59467c0,-0.7905 -0.04976,-1.82056 0.02133,-2.50269c0.08789,-0.84335 0.69032,-1.8266 1.12801,-2.39999c0.61681,-0.80804 0.83351,-1.50543 1.07216,-2.37866c0.26442,-0.96756 0.55586,-1.70169 0.97717,-2.48935c0.42062,-0.78638 0.739,-1.73572 0.7805,-2.48883c0.04384,-0.7955 -0.09462,-1.81134 0.09283,-2.66849c0.23,-1.05167 0.82362,-1.57986 1.22266,-2.21066c0.60622,-0.95831 0.69467,-1.79984 0.70534,-2.79984c0.00832,-0.7793 0,-1.77899 0,-2.46152c0,-1.10666 0,-1.83865 0,-2.57065c0,-1.09601 0,-1.96935 0,-2.93468c0,-0.83333 0.21423,-1.88142 -0.11433,-2.52882c-0.38258,-0.75383 -1.37801,-1.13783 -2.36484,-1.28368c-0.82118,-0.12137 -1.85416,-0.02083 -2.53516,-0.02083c-0.80701,0 -1.98567,0 -2.58434,0c-0.88051,0 -1.7162,-0.01842 -2.71733,0.00133c-0.90982,0.01794 -1.86258,0.123 -2.64117,0.36484c-0.86932,0.27002 -1.47455,0.56062 -2.3425,1.17667c-0.61446,0.43613 -1.44623,1.22618 -1.92967,1.77451c-0.65254,0.74011 -1.13016,1.44139 -1.46165,2.13533c-0.45335,0.94902 -0.68729,1.80412 -1.12334,2.65182c-0.47345,0.92041 -0.95268,1.49762 -1.43634,2.10617c-0.49763,0.62616 -1.04364,1.23953 -1.60632,2.31052c-0.37108,0.7063 -0.60271,1.45752 -0.834,2.16898c-0.41164,1.2662 -0.69724,2.05994 -1.06618,2.75803c-0.3864,0.73117 -0.9071,1.50668 -1.24283,2.09348c-0.5347,0.93454 -0.99338,1.97446 -1.24283,2.711c-0.25143,0.7424 -0.44733,1.49619 -0.75717,2.58069c-0.19531,0.68362 -0.49883,1.66205 -0.64284,2.31934c-0.22081,1.00781 -0.25783,1.73169 -0.37799,2.82648c-0.07819,0.71228 -0.25764,1.71472 -0.68901,2.5155c-0.42355,0.78629 -0.88474,1.23804 -1.40349,2.47467c-0.28333,0.67545 -0.46227,1.4115 -0.60001,2.14801c-0.1974,1.05551 -0.2426,2.03787 -0.312,2.63599c-0.15443,1.33099 -0.43495,2.02222 -0.62201,2.7565c-0.28548,1.12061 -0.29581,1.8009 -0.37349,2.51102c-0.08008,0.73203 -0.40529,2.16458 -0.68451,2.82648c-0.27834,0.65982 -0.66566,1.28052 -0.96133,2.31934c-0.30353,1.06641 -0.30629,1.83395 -0.3815,2.58069c-0.10947,1.08694 -0.20293,1.77518 -0.47266,2.711c-0.24921,0.86462 -0.69766,1.84988 -0.95834,2.54166c-0.2551,0.67691 -0.46072,1.68103 -0.5,2.47916c-0.05838,1.18625 0.05383,1.90594 -0.35416,2.85419c-0.30357,0.70557 -0.88268,1.38147 -1.33334,2.33331c-0.30853,0.65167 -0.33333,1.65466 -0.33333,2.508c0,0.94269 0,1.79468 0,2.59335c0,0.98132 0,1.89865 0,2.73199c0,1.04285 0,1.76132 0,2.55182c0,1.02667 0,1.92734 0,2.94818c0,0.79999 0,1.60001 0,2.60001c0,0.79999 -0.12459,1.82111 0.07201,2.564c0.22894,0.86508 1.13347,1.13141 1.75867,2.03732c0.41405,0.59995 0.56491,1.64697 0.97066,2.31467c0.45908,0.75546 1.08266,1.28473 1.85133,1.78851c0.69347,0.4545 1.47462,1.17099 1.93668,1.87015c0.52501,0.79443 0.83855,1.67487 1.45233,2.3045c0.64429,0.66095 1.52771,0.44052 2.19167,0.77551c0.89018,0.44913 1.18939,1.30124 1.64932,1.97867c0.68988,1.01611 1.3645,1.30652 2.09601,2.08798c0.58484,0.62479 1.15024,1.56268 1.6785,1.91702c0.70395,0.47217 1.74988,0.62982 2.50684,0.78699c0.96786,0.20096 1.63655,0.74869 2.37866,1.29599c0.69946,0.51584 1.21605,0.84045 2.12401,1.51202c0.68993,0.51031 1.66338,1.02142 2.33867,1.11398c0.74113,0.10159 1.86111,0.25607 2.64532,0.66333c0.90298,0.46893 1.62672,0.74765 2.34399,1.14651c0.90085,0.50095 1.28947,1.13266 1.97334,1.75882c0.73695,0.67477 1.54124,0.94278 2.26399,1.28268c0.8083,0.38016 1.47469,0.94794 2.07251,1.854c0.34053,0.51611 0.98865,1.36798 1.71632,1.82648c0.56062,0.35324 1.65947,0.71146 2.26483,1.27802c0.66464,0.62204 0.73898,1.68665 1.15718,2.44284c0.354,0.64014 0.94002,1.17697 1.6745,2.19998c0.42169,0.58734 0.8152,1.23849 1.65067,2c0.4633,0.42227 1.29218,0.93472 2.08899,1.80002c0.51669,0.5611 0.8316,1.2012 1.34435,2.20132c0.31801,0.62027 0.66916,1.29306 1.28265,2.28134c0.33336,0.53702 0.84927,1.3179 1.49451,2.17465c0.49011,0.65076 1.04449,1.46637 1.317,2.14801c0.29361,0.73444 0.51364,1.87131 0.76584,2.64532c0.30063,0.92267 0.81277,1.60922 1.088,2.17065c0.5666,1.15579 0.68858,1.77478 0.82983,2.63702c0.19766,1.2067 0.4852,1.87509 0.82216,2.50964c0.5408,1.0184 0.71957,1.54169 0.91333,2.34933c0.29184,1.21649 0.25714,1.90833 0.28584,3.10419c0.01956,0.81485 -0.01735,1.43787 0.4995,2.57849c0.28616,0.63153 0.77742,1.17749 1.442,1.98566c0.5592,0.68002 1.0192,1.51318 1.05817,2.55719c0.02681,0.71805 -0.02365,1.52518 0.2215,2.53564c0.1701,0.70117 0.63745,1.54147 1.26233,2.3215c0.49478,0.61761 1.09602,1.15607 1.62933,2.00134c0.50346,0.79797 0.73819,1.76288 0.834,2.54684c0.09636,0.78848 0.21741,1.9408 0.59435,2.55182c0.54691,0.88657 1.11053,1.50568 1.45833,2c0.51534,0.73248 1.28546,1.66525 1.6955,2.30533c0.45361,0.7081 0.73044,1.43396 1.01917,2.42667c0.27719,0.95306 0.50827,1.76071 1.13867,2.53735c0.41318,0.509 0.94159,0.98679 1.81332,2.064c0.37964,0.46912 0.76596,1.17874 1.5,2.16666c0.46219,0.62207 1.04065,1.20334 1.83334,2c0.39966,0.40167 1.00595,1.01694 1.68533,1.60001c0.72049,0.61835 1.54144,1.18457 2.05334,1.60001c0.95135,0.77206 1.43921,1.41315 1.91199,2c0.65979,0.81897 1.34933,1.40891 1.87018,1.77914c0.78226,0.55606 1.5466,1.02036 2.25381,1.38486c0.8959,0.46173 1.91574,0.82932 2.47202,1.05731c0.92142,0.37766 1.92422,0.90506 2.63867,1.34534c0.37408,0.23053 1.11578,0.74799 1.91916,1.17084c1.16916,0.61539 1.98938,0.83417 2.78482,0.96518c0.7709,0.12698 1.53027,0.14517 2.58936,0.31866c0.67245,0.11017 1.64297,0.37183 2.30533,0.49466c1.03256,0.1915 2.15176,0.25607 2.92667,0.27332c0.7905,0.01758 1.98932,0.01068 2.78934,0.01068c0.79999,0 1.59998,0 2.79999,0c0.79999,0 1.60001,0 2.39999,0c0.80002,0 1.99966,0 2.79102,0c0.76733,0 1.49466,0 2.76614,0c0.78152,0 1.49103,0 2.46451,0c0.82501,0 1.73999,0 2.745,0c0.71735,0 1.45868,0 2.58069,0c1.086,0 1.76865,0 2.75266,0c0.65268,0 1.66666,0 2.74817,0c0.73099,0 1.44202,0.00845 2.70898,-0.00015c0.78159,-0.00531 1.49942,-0.01328 2.46436,-0.22134c0.82333,-0.17755 1.68387,-0.48032 2.57849,-0.7785c0.90543,-0.30179 1.52527,-0.50925 2.15717,-0.75717c1.37393,-0.53909 2.09055,-0.8873 2.80118,-1.24283c0.67862,-0.33951 1.57626,-0.78552 2.35498,-1.38535c0.51212,-0.39447 1.2258,-1.1611 1.6965,-1.62c0.7695,-0.75021 1.2807,-1.26077 2.06851,-1.85165c0.85266,-0.63953 1.47864,-0.88345 2.30701,-1.56433c0.61938,-0.50909 1.3783,-1.3541 1.88666,-1.82935c0.54193,-0.50665 1.10095,-1.02628 2.02765,-1.60666c0.85373,-0.5347 1.53714,-0.66455 2.367,-1.47601c0.61218,-0.59863 0.92194,-1.48434 1.13068,-2.06934c0.42426,-1.18893 0.56561,-1.80762 0.95984,-2.64017c0.50482,-1.0661 0.89554,-1.50815 1.45349,-2.1825c0.78311,-0.9465 1.21277,-1.44131 1.74768,-2.27466c0.34448,-0.53671 0.81787,-1.57397 0.991,-2.28534c0.17526,-0.72006 0.48495,-1.86111 0.7605,-2.52899c0.3017,-0.73123 0.66956,-1.48389 1.1235,-2.68567c0.29965,-0.7933 0.53812,-1.59796 0.75598,-2.39999c0.21677,-0.79803 0.41446,-1.59909 0.60934,-2.39999c0.19446,-0.7991 0.38544,-1.59647 0.51599,-2.40002c0.19421,-1.19534 0.22614,-1.99652 0.30618,-2.77914c0.07822,-0.76486 0.40524,-2.20627 0.68448,-2.86816c0.27835,-0.65982 0.69431,-1.27429 1.05167,-2.67401c0.18369,-0.71948 0.21457,-1.47821 0.23401,-2.22601c0.0282,-1.08566 0.009,-2.09998 0.009,-2.75266c0,-0.65268 0,-2.021 0,-2.74365c0,-0.71469 0,-1.70169 0,-2.703c0,-0.85419 0,-1.82535 0,-2.61584c0,-0.60367 0,-1.95868 0,-2.68567c0,-0.73099 0,-1.44199 0,-2.70898c0,-0.78152 -0.01102,-1.72559 0.00134,-2.72818c0.01031,-0.83566 0.0058,-1.42709 0.22,-2.61484c0.16559,-0.91824 0.37723,-1.5311 0.49466,-2.18515c0.24988,-1.39178 0.25607,-2.15045 0.27332,-2.92535c0.01758,-0.7905 0.01068,-1.98898 0.01068,-2.78033c0,-0.76733 -0.00836,-1.49469 0.00015,-2.76633c0.00531,-0.79205 0.02805,-1.55255 0.22119,-2.68549c0.11426,-0.67017 0.29257,-1.37537 0.42599,-2.10901c0.25858,-1.42184 0.2464,-2.09537 0.414,-3.0015c0.20258,-1.09515 0.64709,-1.79199 0.93866,-2.24667c0.43671,-0.681 0.87503,-1.67957 0.95834,-2.52084c0.08688,-0.87708 0.03271,-2.08072 0.05234,-2.68982c0.03052,-0.94714 0.14587,-1.95773 0.27332,-2.672c0.13095,-0.73392 0.39111,-1.80261 0.54935,-2.784c0.13293,-0.82455 0.16019,-1.58398 0.16666,-2.66669c0.00381,-0.63599 0.00214,-1.68866 0.05716,-2.41849c0.08176,-1.08395 0.19446,-1.7739 0.4845,-2.74817c0.19653,-0.66013 0.62424,-1.66699 0.94101,-2.38535c0.33118,-0.75101 0.69104,-1.51324 0.948,-2.31598c0.37872,-1.18317 0.47495,-1.99713 0.52768,-2.79868c0.05255,-0.79892 0.0376,-2.00003 0.043,-2.79868c0.00534,-0.79068 0.01154,-1.56723 0.08398,-2.31598c0.10327,-1.06738 0.32367,-2.0473 0.61917,-2.92368c0.271,-0.80371 0.72476,-1.73425 0.93832,-2.4715c0.23517,-0.81189 0.31021,-1.79956 0.33633,-2.51102c0.02682,-0.73068 0.02084,-1.8125 0.02084,-2.82648c0,-0.65268 0,-1.63669 0,-2.67419c0,-0.73566 0,-1.49933 0,-2.28299c0,-1.1955 -0.01331,-1.996 0.02133,-2.7955c0.0347,-0.80084 0.09305,-1.61417 0.42133,-2.79999c0.22464,-0.81152 0.57837,-1.59256 0.85202,-2.39999c0.40326,-1.18988 0.55099,-1.9968 0.64398,-2.78934c0.0907,-0.7731 0.10559,-1.53104 0.28268,-2.58936c0.16779,-1.00272 0.37656,-1.64212 0.49466,-2.30533c0.24768,-1.39081 0.25577,-2.1304 0.27332,-2.85464c0.01675,-0.69186 0.01068,-1.892 0.01068,-2.6405c0,-1.1875 0,-1.96902 0,-2.75952c0,-0.92798 0,-1.91199 0,-2.80417c0,-0.71848 0,-1.50897 0,-2.53583c0,-0.92133 0,-1.60532 0,-2.60666c0,-0.83551 0,-1.716 0,-2.91199c0,-0.58136 0.048,-1.63342 -0.00449,-2.59735c-0.04227,-0.77637 -0.30228,-1.83411 -0.64218,-2.55466c-0.44986,-0.95367 -0.99554,-1.45105 -1.70065,-1.94168c-0.75644,-0.52634 -1.35681,-1.06021 -1.854,-1.79166c-0.44241,-0.65082 -1.28442,-1.34155 -1.97333,-1.53201c-0.94247,-0.26056 -1.81268,-0.89737 -2.58252,-0.98083c-0.89478,-0.09702 -1.64734,-0.00449 -2.64282,-0.00449c-0.80002,0 -1.79984,0 -2.57916,0c-0.99966,0 -1.83151,-0.03619 -2.78885,0.004c-0.73367,0.03079 -1.5733,0.1286 -2.26401,0.85068c-0.57458,0.60068 -0.8793,1.51038 -1.51083,2.224c-0.6629,0.74908 -1.26028,1.1268 -1.77448,1.60532c-1.03461,0.9628 -1.45569,1.54544 -1.87201,2.12668c-0.41849,0.58423 -1.00418,1.49359 -1.61066,2.37866c-0.39578,0.57761 -0.76981,1.15027 -1.60135,2.12668c-0.59833,0.70258 -1.05673,1.13574 -1.76532,1.85065c-0.78253,0.78949 -1.33389,1.33612 -1.82352,1.93784c-0.70834,0.87051 -1.06662,1.48132 -1.46817,2.37466c-0.25,0.55621 -0.59344,1.62424 -0.96298,2.28485c-0.48779,0.87207 -1.10425,1.45786 -1.85068,2.03598c-0.53723,0.41611 -1.13983,0.78656 -2.32532,1.60135c-0.58597,0.40274 -1.21487,0.75681 -2.06934,1.76532c-0.40872,0.48242 -0.76578,1.35907 -1.30133,2.064c-0.51422,0.67685 -1.28345,1.09576 -2.02667,1.46036c-1.03577,0.50812 -1.61478,0.92322 -2.20667,1.793c-0.45911,0.67465 -0.91211,1.42624 -1.63467,1.86932c-0.72101,0.44214 -1.76276,0.61404 -2.564,0.64218c-0.99808,0.03506 -1.76401,0.00449 -2.71466,0.00449c-0.9855,0 -1.77069,0 -2.71069,0c-1.008,0 -1.76398,0 -2.6955,0c-0.96317,0 -1.65958,0.1026 -2.59381,-0.00134c-1.00336,-0.11163 -1.57559,-0.64847 -1.80002,-1.76932c-0.15192,-0.75864 -0.08307,-1.33835 -0.08533,-2.52917c-0.00168,-0.8895 0.01544,-1.74313 -0.00034,-2.77884c-0.01062,-0.69623 -0.11935,-1.62711 -0.56766,-2.60532c-0.25443,-0.55518 -0.8215,-1.32587 -1.189,-2.39468c-0.23303,-0.67773 -0.23849,-1.37396 -0.24301,-2.608c-0.00204,-0.56 0,-1.47498 0,-2.47998c0,-0.71869 0,-1.85419 0,-2.63785c0,-1.1955 0,-1.99683 0,-2.80615c0,-0.82535 0,-1.24652 0,-2.556c0,-0.91736 0,-1.85867 0,-2.33334c0,-0.94733 0,-2.33334 0,-3.21466c0,-0.42816 0,-1.2645 0,-2.08084c0,-1.2045 0,-2.00317 0,-2.79382c0,-1.1535 0,-2.24402 0,-2.92534c0,-0.96451 0,-1.58084 0,-2.78551c0,-0.60432 0,-1.53583 0,-2.18517c0,-1.39999 0,-2.15067 0,-2.92532c0,-0.79068 0,-1.98933 0,-2.78934c0,-0.8 0,-1.60001 0,-2.8c0,-0.8 0,-1.60001 0,-2.39999c0,-0.8 0,-2.00017 0,-2.8045c0,-0.81633 0,-1.65266 0,-2.96217c0,-0.45483 0,-1.39049 0,-2.35416c0,-0.48984 0,-1.4805 0,-2.47917c0,-0.99733 0,-1.97867 0,-2.45833c0,-0.92734 0,-2.20834 0,-2.97234c0,-1.04851 0,-1.7175 0,-2.73601c0,-0.71866 0,-1.85416 0,-2.63783c0,-1.1955 0,-1.9955 0,-2.7955c0,-0.79999 0,-1.59999 0,-2.79999c0,-0.8 0,-1.60001 0,-2.40001c0,-1.2 0,-2.00133 0,-2.81067c0,-0.82533 0.00095,-1.24649 0,-2.556c-0.00067,-0.91866 -0.00681,-1.86942 -0.02084,-2.35416c-0.02847,-0.98393 -0.03409,-1.48357 -0.2005,-2.979c-0.11108,-0.99812 -0.20615,-1.48917 -0.35333,-2.46417c-0.14346,-0.95035 -0.27414,-1.86804 -0.34,-2.75333c-0.06448,-0.867 -0.07867,-1.74397 -0.08398,-2.65201c-0.00562,-0.96397 -0.00024,-1.99867 -0.00583,-2.536c-0.01138,-1.09473 -0.0137,-1.64496 -0.08084,-2.72667c-0.0643,-1.03587 -0.19156,-1.99847 -0.34,-2.896c-0.07126,-0.43091 -0.2532,-1.25861 -0.40802,-2.472c-0.10193,-0.79897 -0.13876,-1.61046 -0.15598,-2.436c-0.0177,-0.8492 -0.01068,-2.1855 -0.01068,-3.12115c0,-0.47884 0,-1.45351 0,-1.94734c0,-1.4955 0.00226,-2.49692 -0.009,-3c-0.02274,-1.0166 -0.03387,-1.53464 -0.16165,-2.58083c-0.13257,-1.08545 -0.39404,-2.19948 -0.53467,-2.76733c-0.14203,-0.57352 -0.44733,-1.72116 -0.58936,-2.29468c-0.14063,-0.56786 -0.47314,-2.2298 -0.53467,-2.76733c-0.11984,-1.04712 -0.15396,-2.07457 -0.16165,-2.58083c-0.02283,-1.50435 -0.009,-2.00433 -0.009,-3c0,-0.98367 0.00006,-1.46851 0,-2.41917c-0.00009,-1.364 -0.00122,-2.23273 -0.01068,-2.65999c-0.01883,-0.85085 -0.04962,-1.71211 -0.21066,-3.04701c-0.11368,-0.94228 -0.20804,-1.42439 -0.35333,-2.42499c-0.07474,-0.51469 -0.2655,-2.11949 -0.30383,-2.67484c-0.07831,-1.13478 -0.08902,-1.71443 -0.10065,-2.29933c-0.02353,-1.18355 -0.02017,-1.7805 -0.02084,-2.97917c-0.00067,-1.2 0,-1.8 0,-2.39999c0,-1.20001 0,-1.8 0,-2.40001c0,-1.8 0,-2.39999 0,-3c0,-1.2 0,-1.8 0,-2.39999c0,-1.8 0.00159,-2.40001 -0.00134,-3c-0.00586,-1.20003 -0.01477,-1.80014 -0.03467,-2.4c-0.03983,-1.20036 -0.12521,-2.40052 -0.18533,-3c-0.12045,-1.20114 -0.20447,-1.79994 -0.27866,-2.4c-0.14835,-1.19987 -0.23395,-1.79839 -0.33334,-3c-0.09927,-1.19998 -0.1138,-1.80436 -0.13065,-2.41067c-0.03403,-1.22512 -0.03278,-1.84649 -0.03467,-2.47466c-0.00388,-1.28133 -0.00107,-2.60004 -0.01035,-3.27184c-0.00937,-0.67888 -0.02679,-1.36395 -0.06299,-2.0535c-0.03644,-0.69417 -0.25339,-2.79062 -0.37067,-3.489c-0.11737,-0.69904 -0.25992,-1.39191 -0.40802,-2.07899c-0.14661,-0.68026 -0.31592,-1.3457 -0.58133,-2.65067c-0.25101,-1.23411 -0.34103,-1.82591 -0.45816,-2.95633c-0.05612,-0.5416 -0.12115,-1.59323 -0.15799,-2.10533c-0.10861,-1.50975 -0.16699,-2.01016 -0.3045,-3.01801c-0.14099,-1.03355 -0.22891,-1.56212 -0.29468,-2.10533c-0.20782,-1.7165 -0.23575,-2.32825 -0.26865,-2.955c-0.06781,-1.29156 -0.08304,-1.95154 -0.10934,-2.616c-0.02637,-0.66653 -0.0278,-1.33441 -0.19635,-3.29333c-0.05493,-0.63828 -0.13248,-1.26972 -0.22498,-1.896c-0.18503,-1.25298 -0.30887,-1.87925 -0.44,-2.50934c-0.26752,-1.28532 -0.59561,-2.59911 -0.76602,-3.26416c-0.1709,-0.66695 -0.34726,-1.33102 -0.52197,-1.9905c-0.17261,-0.65152 -0.66162,-2.52729 -0.80368,-3.11867c-0.13788,-0.57399 -0.38245,-1.69063 -0.48001,-2.24267c-0.19492,-1.1028 -0.27649,-1.66599 -0.375,-2.83333c-0.10406,-1.23296 -0.11252,-1.87191 -0.13065,-2.51733c-0.01822,-0.64925 -0.03275,-1.944 -0.03467,-2.58133c-0.00372,-1.23466 0.00003,-2.39602 -0.00583,-2.94917c-0.01117,-1.0564 -0.00812,-1.56297 -0.08084,-2.53083c-0.10294,-1.36989 -0.19669,-1.80699 -0.34,-2.684c-0.14734,-0.90166 -0.30707,-1.85696 -0.40802,-2.904c-0.05432,-0.56339 -0.11777,-1.76254 -0.15198,-2.38667c-0.03476,-0.63421 -0.04575,-1.27626 -0.18402,-2.54667c-0.13461,-1.23689 -0.25565,-1.82808 -0.53598,-2.95683c-0.13678,-0.5507 -0.45471,-1.62169 -0.58936,-2.158c-0.40436,-1.61072 -0.47406,-2.17178 -0.53467,-2.73583c-0.12241,-1.13903 -0.13892,-1.71576 -0.16165,-2.86333c-0.01126,-0.56859 -0.009,-1.686 -0.009,-2.766c0,-0.525 0,-1.545 0,-2.525c0,-0.475 0,-1.84033 0,-2.709c0,-0.85267 0,-1.70533 0,-3.01933c0,-0.45467 0,-1.386 0,-2.33333c0,-0.47467 0,-1.416 0,-2.77833c0,-0.86 0,-1.68 0,-2.46c0,-1.095 0,-1.779 0,-2.7825c0,-0.689 0,-1.8125 0,-2.64717c0,-0.88267 0,-1.78133 0,-2.664c0,-0.83467 0,-1.94917 0,-2.6055l0,-0.8745l0,-1.00267l0,-0.87467" id="svg_1" stroke-width="2" stroke="#000" fill="none"/>
  <path t="6265,6379,6379,6379,6379,6396,6396,6396,6396,6396,6414,6414,6414,6414,6428,6428,6428,6429,6429,6429,6445,6445,6445,6445,6445,6445,6445,6463,6463,6463,6463,6464,6464,6464,6464,6479,6479,6479,6479,6480,6480,6480,6480,6480,6495,6495,6495,6495,6495,6495,6495,6513,6513,6513,6514,6514,6514,6514,6514,6528,6528,6529,6529,6529,6529,6529,6529,6544,6545,6545,6545,6545,6545,6545,6545,6563,6563,6563,6564,6564,6564,6564,6564,6565,6578,6578,6578,6578,6578,6578,6579,6594,6595,6595,6595,6595,6595,6595,6613,6613,6613,6614,6614,6614,6614,6630,6631,6631,6631,6631,6631,6631,6631,6631,6647,6647,6647,6647,6647,6647,6647,6647,6647,6664,6664,6664,6664,6664,6664,6665,6665,6680,6680,6680,6681,6681,6681,6681,6697,6697,6697,6697,6697,6697,6697,6714,6714,6714,6714,6714,6714,6715,6715,6730,6730,6730,6731,6731,6731,6731,6731,6747,6747,6747,6748,6748,6748,6748,6762,6762,6762,6763,6763,6763,6779,6779,6780,6780,6780,6781,6781,6795,6796,6796,6796,6796,6796,6796,6796,6814,6814,6814,6814,6814,6814,6814,6830,6830,6830,6830,6830,6831,6831,6847,6847,6847,6848,6848,6848,6864,6864,6865,6865,6865,6865,6865,6882,6882,6882,6882,6882,6883,6883,6899,6899,6899,6899,6899,6899,6900,6914,6914,6914,6914,6914,6914,6915,6929,6929,6929,6930,6930,6930,6930,6945,6945,6945,6945,6945,6945,6963,6963,6964,6964,6964,6965,6965,6965,6979,6979,6980,6980,6980,6980,6980,6997,6997,6998,6998,6998,6998,7014,7015,7015,7015,7015,7015,7016,7032,7033,7033,7033,7033,7033,7033,7034,7051,7051,7051,7051,7051,7052,7068,7068,7069,7069,7069,7069,7085,7085,7085,7085,7085,7086,7086,7100,7101,7101,7101,7101,7101,7102,7102,7118,7118,7118,7119,7119,7119,7119,7154,7154,7154,7154,7154,7155,7155,7157,7157,7157,7158,7158,7174,7175,7175,7175,7175,7192,7193,7193,7193,7194,7194,7194,7209,7210,7210,7210,7210,7226,7226,7227" d="m258,307c2.6355,-4.39999 2.85825,-5.1965 2.9375,-6c0.07867,-0.79761 0.0585,-2.00003 0.06384,-2.79999c0.00534,-0.80005 0.01407,-1.60153 0.08398,-2.40002c0.10538,-1.20328 0.25995,-2.00827 0.45633,-2.82083c0.20316,-0.84058 0.62244,-2.1467 0.77966,-2.60083c0.32605,-0.94186 0.68106,-1.91916 0.85333,-2.42499c0.17511,-0.51419 0.66739,-2.1178 0.80368,-2.67502c0.2778,-1.13577 0.38339,-1.72354 0.48001,-2.31998c0.19717,-1.21735 0.27063,-1.84363 0.375,-3.125c0.05331,-0.65439 0.08719,-1.31982 0.14133,-2.68002c0.02765,-0.69489 0.04889,-1.40005 0.078,-2.11499c0.02954,-0.72507 0.11035,-2.20526 0.16867,-2.95966c0.05899,-0.76297 0.1304,-1.53143 0.20398,-2.30402c0.07376,-0.77475 0.15115,-1.54916 0.22202,-2.32199c0.07047,-0.76852 0.23325,-3.03091 0.26999,-3.76599c0.03622,-0.72491 0.06522,-1.44016 0.10352,-2.14502c0.03775,-0.69513 0.03299,-1.38708 0.3125,-3.375c0.09113,-0.64813 0.23038,-1.2836 0.37198,-1.914c0.14111,-0.62828 0.44824,-1.87703 0.58936,-2.50533c0.1416,-0.63039 0.39554,-1.91129 0.53598,-3.23399c0.07153,-0.67383 0.11072,-1.35985 0.1485,-2.05501c0.0383,-0.70485 0.0657,-1.42017 0.10352,-2.14499c0.07724,-1.48038 0.13275,-2.23535 0.26999,-3.77051c0.06964,-0.7791 0.14853,-1.56355 0.22202,-2.3535c0.07385,-0.79373 0.15479,-1.58974 0.25867,-3.18933c0.05188,-0.79909 0.08472,-1.59589 0.1095,-2.38651c0.02451,-0.7814 0.03824,-1.55096 0.04648,-2.3055c0.00806,-0.73648 0.01001,-1.452 0.01068,-2.808c0.00031,-0.63583 0,-1.83749 0,-2.41333c0,-1.12666 0,-1.6875 0,-2.25334c0,-1.77617 0,-2.40266 0,-3.04317c0,-0.65149 0,-1.97549 0,-2.642c0,-0.6655 0,-1.98149 0,-3.26816c0,-0.64084 0,-1.28667 0,-1.9425c0,-0.67084 0,-2.0775 0,-3.60417c0,-0.81866 0,-1.66933 0,-2.54399c0,-0.89067 0,-1.78934 0,-2.688c0,-0.89067 0,-1.76534 0,-3.43466c0,-0.78084 0,-1.52667 0,-2.24251c0,-0.69083 0,-1.36166 0,-2.0175c0,-0.64583 0,-1.28667 0,-2.57333c0,-0.65483 0,-1.99049 0,-2.66933c0,-0.68483 0,-1.37466 0,-2.0685c0,-0.69684 0,-2.79533 0,-3.49417c0,-0.69684 0,-1.39067 0,-2.08051c0,-0.68483 0,-1.36366 0,-3.35416c0,-0.64534 0,-1.28267 0,-1.914c0,-1.25267 0,-1.87801 0,-2.50534c0,-1.914 0,-2.56883 0,-3.23267c0,-0.67183 0,-1.35066 0,-2.03549c0,-1.38367 0,-2.08051 0,-3.47917c0,-0.69983 0,-1.39867 0,-2.0955c0,-1.38367 0,-2.0685 0,-2.74733c0,-0.67183 0,-1.99049 0,-3.27049c0,-0.625 0,-1.24001 0,-2.44c0,-0.58501 0,-1.16 0,-2.8255c0,-0.5385 0,-1.60651 0,-2.142c0,-1.089 0,-1.6485 0,-2.8125c0,-1.23734 0,-1.88101 0,-2.53867c0,-0.66968 0,-1.34933 0,-2.73067c0,-1.39734 0,-2.09717 0,-2.79601c0,-0.69684 0,-1.39067 0,-2.76534c0,-0.67883 0,-1.35066 0,-2.66933c0,-0.64517 0,-1.9095 0,-2.53067c0,-0.61517 0,-1.8315 0,-2.43466c0,-1.20134 0,-2.40134 0,-3.00134c0,-0.6 0,-1.8 0,-2.39999c0,-0.60001 0,-2.4 0,-3c0,-0.60001 0,-1.8 0,-2.4c0,-0.6 0,-2.4 0,-3c0,-0.6 0,-1.8 0,-2.4c0,-0.6 0,-1.8 0,-3c0,-0.60017 0,-1.8045 0,-2.41067c0,-0.61017 0,-1.8465 0,-2.47466c0,-1.28133 0,-1.93584 0,-2.59734c0,-1.332 0,-1.9965 0,-2.656c0,-0.6515 0,-2.528 0,-3.11867c0,-0.57467 0,-1.692 0,-2.24267c0,-1.10533 0,-1.668 0,-2.83334c0,-1.23466 0,-1.87199 0,-2.51733c0,-0.64933 0,-1.944 0,-2.58133c0,-1.23466 0,-2.4 0,-2.96267c0,-1.10533 0,-1.656 0,-2.21066c0,-1.728 0.00153,-2.33751 -0.00134,-2.964c-0.00589,-1.29202 -0.01654,-1.95158 -0.03467,-2.616c-0.01819,-0.66658 -0.02097,-1.33418 -0.18533,-3.29317c-0.05344,-0.63701 -0.12982,-1.26451 -0.20398,-1.8855c-0.14639,-1.22569 -0.22906,-1.83074 -0.29068,-2.43467c-0.18356,-1.79931 -0.20367,-2.40112 -0.22684,-3.00134c-0.0463,-1.19965 -0.04883,-1.79997 -0.05267,-2.39999c-0.01154,-1.79997 -0.00449,-2.40017 -0.00449,-3.00134c0,-1.20934 0,-1.8195 0,-2.43467c0,-1.24933 0,-2.53067 0,-3.18517c0,-0.6615 0,-1.327 0,-2.658c0,-0.6595 0,-1.311 0,-1.9515c0,-1.8265 0,-2.4 0,-3.508c0,-0.5405 0,-1.6095 0,-2.144c0,-1.084 0,-2.20266 0,-2.7745c0,-1.16367 0,-1.7535 0,-2.34733c0,-1.7955 0,-2.39567 0,-2.99683c0,-1.20934 0,-1.8195 0,-2.43467c0,-1.24933 0,-2.53067 0,-3.1855c0,-0.66383 0,-1.33567 0,-2.69934c0,-0.68983 0,-1.38367 0,-2.0805c0,-1.39867 -0.00162,-2.09834 0.00134,-2.796c0.00586,-1.38135 0.01633,-2.06108 0.03467,-2.73067c0.01804,-0.65776 0.12573,-2.53914 0.18533,-3.129c0.05789,-0.57284 0.20349,-1.67107 0.27866,-2.20133c0.14639,-1.0328 0.2485,-1.53584 0.37851,-3.0415c0.08582,-0.99404 0.09335,-1.48933 0.11081,-2.46417c0.01703,-0.95056 0.01068,-1.86933 0.01068,-2.75467c0,-0.87733 0,-1.77867 0,-2.24833c0,-1.533 0,-2.097 0,-3.291c0,-0.618 0,-1.242 0,-1.866c0,-1.224 0,-2.376 0,-3.41733c0,-0.92933 0,-1.3545 0,-2.484l0,-0.93183l0,-1.022l0,-0.7035" id="svg_2" stroke-width="2" stroke="#000" fill="none"/>
  <path t="7573,7678,7679,7679,7695,7696,7712,7713,7713,7729,7729,7729,7745,7746,7746,7762,7763,7763,7763,7779,7779,7779,7779,7796,7796,7796,7796,7797,7813,7813,7817,7830,7830,7831,7831,7846,7847,7847,7864,7864,7864,7864,7878,7878,7878,7878,7878,7896,7897,7897,7897,7897,7913,7914,7914,7914,7928,7928,7928,7945,7946,7946,7963,7964,7964,7978,7978,7978,7996,7997,7997,7997,8012,8013,8013,8013,8014,8029,8030,8030,8030,8045,8046,8046,8046,8047,8062,8063,8063,8063,8063,8087,8088,8088,8088,8088,8114,8114,8114,8114,8114,8115,8116,8116,8116,8132,8132,8132,8132,8147,8147,8147,8148,8163,8163,8163,8163,8163,8179,8179,8179,8179,8195,8195,8195,8211,8211" d="m294,367c-5.05667,-3.51401 -6.10135,-3.89526 -6.70667,-3.95734c-1.14545,-0.11746 -1.944,-0.04266 -2.83633,-0.04266c-0.99866,0 -1.56604,-0.00696 -2.75684,0.00015c-0.88956,0.00531 -1.76114,-0.03195 -2.77866,0.22168c-0.70331,0.17532 -1.3793,0.53333 -2.12134,1.32132c-0.64835,0.68851 -0.99152,1.29971 -1.31485,1.94485c-0.50754,1.0127 -0.74463,1.76343 -0.94366,2.53284c-0.20135,0.77844 -0.39066,1.97772 -0.45633,2.77783c-0.06479,0.78952 -0.07895,1.56531 -0.08398,2.31598c-0.0094,1.40131 -0.00134,2.06 -0.00134,3.03802c0,1.01398 0,1.72998 0,2.46198c0,1.0755 -0.06049,2.05521 0.01349,2.87552c0.08719,0.96704 0.4379,1.71478 1.0625,2.45801c0.4725,0.56223 1.0535,1.10696 2.09067,1.71848c0.69397,0.40915 1.46722,0.67798 2.24402,0.948c0.78854,0.27411 1.99179,0.70074 2.78934,1.03802c0.40128,0.16971 1.19406,0.53619 2,0.86331c1.19128,0.48352 1.98709,0.73645 2.75833,0.94235c0.72391,0.19327 1.99646,0.44543 2.78033,0.50565c0.70813,0.05441 1.68283,0.03601 2.49731,0.03601c0.8685,0 2.06396,0.00848 2.65952,-0.00449c0.86887,-0.01892 1.9632,-0.08755 2.64734,-0.36169c0.89612,-0.35907 1.67279,-1.16425 2.05716,-1.65265c0.41742,-0.53043 1.01456,-1.46085 1.59967,-2.50269c0.20276,-0.36102 0.60217,-1.10443 0.92831,-1.88916c0.32471,-0.78134 0.64499,-1.98679 0.76666,-2.78934c0.12094,-0.79779 0.15271,-1.61246 0.43869,-2.79999c0.1955,-0.81177 0.52347,-1.60846 0.81598,-2.436c0.14847,-0.42007 0.55005,-1.72546 0.68002,-2.64801c0.13205,-0.93723 0.14224,-1.41562 0.16165,-2.36331c0.02838,-1.38574 0.02121,-1.83139 0,-2.6955c-0.02054,-0.83673 -0.04095,-1.66617 -0.32434,-2.85718c-0.19278,-0.81018 -0.52014,-1.59265 -0.85199,-2.36401c-0.32437,-0.75397 -0.78738,-1.81702 -1.0665,-2.47882c-0.40079,-0.95023 -0.66718,-1.58994 -1.29132,-2.45667c-0.44153,-0.61313 -0.9812,-1.18906 -1.62302,-1.629c-0.95038,-0.65146 -1.71182,-0.86069 -2.85468,-1.02985c-0.77979,-0.11542 -1.98096,-0.19666 -2.77914,-0.32565c-0.802,-0.12964 -1.198,-0.22736 -2,-0.36334c-1.19727,-0.203 -1.99643,-0.2865 -3.15836,-0.33182c-0.72696,-0.02835 -1.70831,-0.02084 -2.52731,-0.02084l-0.90533,0l-1.00769,0l-0.76532,0" id="svg_3" stroke-width="2" stroke="#000" fill="none"/>
  <path t="8361,8444,8444,8445,8445,8445,8445,8474,8474,8474,8474,8474,8474,8474,8502,8502,8502,8502,8502,8502,8502,8502,8502,8503,8503,8503,8503,8503,8504,8504,8504,8504,8517,8518,8518,8518,8518,8518,8518,8518,8518,8533,8533,8533,8533,8533,8533,8533,8533,8533,8547,8547,8547,8547,8547,8547,8547,8547,8548,8562,8562,8562,8562,8562,8562,8562,8562,8562,8578,8579,8579,8579,8579,8579,8580,8580,8580,8595,8596,8596,8596,8596,8596,8596,8596,8596,8613,8614,8614,8614,8614,8614,8615,8615,8615,8631,8631,8631,8631,8631,8632,8632,8632,8632,8649,8649,8649,8649,8650,8650,8650,8650,8650,8686,8687,8687,8687,8687,8687,8687,8687,8687,8689,8690,8690,8690,8690,8690,8690,8690,8690,8706,8706,8706,8706,8706,8707,8707,8707,8707,8721,8721,8721,8722,8722,8722,8722,8722,8722,8738,8738,8738,8738,8738,8738,8739,8739,8739,8754,8754,8754,8754,8754,8754,8755,8755,8755,8770,8770,8770,8770,8771,8771,8771,8771,8771,8789,8789,8789,8789,8789,8789,8789,8790,8790,8805,8805,8805,8806,8806,8806,8806,8806,8806,8821,8821,8822,8822,8822,8822,8822,8822,8822,8840,8840,8840,8840,8840,8840,8841,8841,8841,8859,8859,8859,8859,8859,8860,8860,8860,8860,8878,8878,8878,8878,8878,8878,8879,8879,8879,8894,8895,8895,8895,8895,8895,8895,8896,8896,8912,8912,8913,8913,8913,8913,8913,8913,8914,8929,8930,8930,8930,8930,8930,8931,8931,8931,8946,8947,8947,8947,8947,8947,8947,8948,8948,8964,8964,8964,8964,8964,8965,8965,8965,8965,8981,8981,8981,8981,8982,8982,8982,8982,8982,8998,8998,8998,8999,8999,8999,8999,8999,8999,9015,9015,9016,9016,9016,9016,9016,9016,9017,9033,9033,9033,9033,9033,9034,9034,9034,9034,9050,9050,9050,9050,9051,9051,9051,9051,9051,9068,9068,9068,9068,9069,9069,9069,9069,9069,9085,9086,9086,9086,9086,9086,9087,9087,9087,9104,9104,9104,9104,9104,9105,9105,9105,9105,9121,9121,9121,9121,9122,9122,9122,9122,9123,9139,9139,9139,9140,9140,9140,9140,9141,9141,9157,9158,9158,9158,9159,9159,9159,9159,9160,9176,9177,9177,9177,9177,9177,9178,9178,9178,9195,9195,9195,9196,9196,9196,9196,9196,9197,9199,9199,9199,9200,9200,9200,9200,9201,9201,9202,9203,9203,9203,9203,9204,9204,9204,9204,9225,9225,9226,9226,9226,9226,9227,9227,9227,9248,9248,9248,9249,9249,9249,9250,9250,9250,9252,9252,9253,9253,9253,9254,9254,9254,9254,9276,9277,9277,9277,9278,9278,9278,9279,9279,9302,9303,9303,9303,9304,9304,9304" d="m291,407c1.75699,-5.7215 1.84875,-6.28384 1.92801,-7.436c0.04019,-0.58426 0.05869,-1.17456 0.06934,-2.36533c0.01074,-1.19864 0.00266,-1.79901 0.00266,-3.00766c0,-0.61234 0,-1.23267 0,-2.50534c0,-0.65634 0,-2.01901 0,-2.729c0,-0.73001 0,-1.48001 0,-2.25c0,-0.79001 0,-1.60001 0,-2.42999c0,-0.85001 0,-2.61002 0,-3.5195c0,-0.92651 0,-1.867 0,-2.81851c0,-0.9595 0,-1.92398 0,-2.8905c0,-0.96548 0,-2.8815 0,-3.82666c0,-0.93616 0,-1.86432 0,-2.78549c0,-0.91516 0,-1.82535 0,-2.73151c0,-0.90317 0,-2.7045 0,-3.60483c0,-0.90234 0,-1.80869 0,-2.72101c0,-0.92032 0,-1.85065 0,-2.793c0,-0.95633 0,-2.91901 0,-3.92831c0,-1.02536 0,-2.06268 0,-3.108c0,-1.04935 0,-2.09869 0,-3.14401c0,-1.03732 0,-3.07199 0,-4.06235c0,-0.97232 0,-1.92865 0,-2.871c0,-0.93033 0,-1.85065 0,-2.76297c0,-0.90634 0.00101,-2.70901 -0.00034,-3.60886c-0.00131,-0.89883 -0.00464,-1.79572 -0.021,-2.68948c-0.0163,-0.88992 -0.04346,-1.77505 -0.09299,-2.6535c-0.04919,-0.87225 -0.21066,-2.59164 -0.32834,-3.436c-0.11703,-0.83969 -0.26093,-1.67331 -0.40802,-2.5065c-0.14758,-0.83582 -0.30341,-1.6752 -0.444,-2.52451c-0.14215,-0.8587 -0.38156,-2.62259 -0.46231,-3.53299c-0.08212,-0.92569 -0.1348,-1.86676 -0.17102,-2.81851c-0.0365,-0.95929 -0.05365,-1.92395 -0.06299,-2.8905c-0.00934,-0.96545 -0.00848,-2.8815 -0.00916,-3.82666c-0.00067,-0.93616 -0.00232,-1.86435 -0.01053,-2.78549c-0.00815,-0.91519 -0.02179,-1.82544 -0.04648,-2.73151c-0.02463,-0.90326 -0.1055,-2.70474 -0.16418,-3.60434c-0.05865,-0.89911 -0.13016,-1.79575 -0.20398,-2.68948c-0.07352,-0.88992 -0.15106,-1.77454 -0.22202,-2.6535c-0.07037,-0.8717 -0.19037,-2.5903 -0.23117,-3.43616c-0.0405,-0.83951 -0.06738,-1.67728 -0.08548,-2.51703c-0.01822,-0.84558 -0.02689,-1.70132 -0.03152,-2.57098c-0.00473,-0.88766 -0.00397,-2.733 -0.00464,-3.69717c-0.00067,-0.98917 -0.00241,-1.99832 -0.01053,-3.02249c-0.00821,-1.03421 -0.02176,-2.07343 -0.04648,-3.11249c-0.0246,-1.03427 -0.10501,-3.06775 -0.16418,-4.05817c-0.05826,-0.97495 -0.13016,-1.93744 -0.20398,-2.89203c-0.07352,-0.95074 -0.15161,-1.90112 -0.22202,-2.85599c-0.07095,-0.96252 -0.18982,-2.92786 -0.23151,-3.93732c-0.04236,-1.02521 -0.07205,-2.06271 -0.10648,-3.108c-0.03458,-1.04938 -0.07031,-2.09895 -0.12451,-3.14401c-0.05383,-1.03764 -0.2146,-3.07303 -0.33282,-4.06267c-0.11658,-0.97575 -0.26041,-1.93768 -0.40802,-2.892c-0.14709,-0.95102 -0.30313,-1.90067 -0.444,-2.856c-0.14185,-0.96201 -0.38147,-2.92719 -0.46231,-3.93733c-0.082,-1.0246 -0.13474,-2.06244 -0.17102,-3.108c-0.03641,-1.04913 -0.05362,-2.09863 -0.06299,-3.144c-0.00928,-1.03732 -0.00848,-3.07201 -0.00916,-4.06233c-0.00067,-0.97234 -0.00229,-1.92868 -0.01053,-2.871c-0.00815,-0.93034 -0.02173,-1.85075 -0.04648,-2.763c-0.0246,-0.90643 -0.10559,-2.70924 -0.16418,-3.60933c-0.05875,-0.9026 -0.13065,-1.80873 -0.20398,-2.72101c-0.07401,-0.92039 -0.15186,-1.85048 -0.22202,-2.793c-0.0712,-0.95615 -0.19028,-2.91881 -0.23132,-3.92833c-0.04169,-1.02516 -0.06973,-2.06264 -0.09601,-3.108c-0.0264,-1.0493 -0.04855,-2.09872 -0.078,-3.144c-0.02924,-1.0374 -0.10944,-3.07227 -0.16867,-4.06233c-0.0582,-0.97261 -0.12985,-1.92879 -0.20398,-2.871c-0.07321,-0.93045 -0.15112,-1.85052 -0.22202,-2.763c-0.0704,-0.90619 -0.19052,-2.70879 -0.23117,-3.60916c-0.04068,-0.90097 -0.06735,-1.80428 -0.08548,-2.71051c-0.01819,-0.9101 -0.02686,-1.82532 -0.03152,-2.74649c-0.0047,-0.92818 -0.00449,-2.80951 -0.00449,-3.76418c0,-0.96266 0,-1.93134 0,-2.90399c0,-0.97467 0,-1.94934 0,-2.922c0,-0.96867 0.00101,-2.886 -0.00034,-3.83101c-0.00131,-0.935 -0.00455,-1.86006 -0.021,-2.77499c-0.01627,-0.90508 -0.04337,-1.80038 -0.09299,-2.685c-0.0491,-0.87544 -0.21051,-2.59615 -0.32834,-3.44017c-0.11691,-0.83739 -0.26022,-1.66478 -0.40802,-2.4855c-0.14688,-0.81561 -0.30228,-1.62468 -0.444,-2.4315c-0.14096,-0.80254 -0.38089,-2.40353 -0.46231,-3.2045c-0.08124,-0.79915 -0.13467,-1.5997 -0.17102,-2.39999c-0.03632,-0.79976 -0.05365,-1.59996 -0.06299,-2.40001c-0.00934,-0.79996 -0.00848,-2.39999 -0.00916,-3.2c-0.00067,-0.8 -0.00235,-1.60001 -0.01053,-2.39999c-0.00818,-0.80002 -0.02182,-1.60011 -0.04648,-2.40001c-0.02466,-0.80011 -0.10553,-2.40027 -0.16418,-3.2c-0.05869,-0.80031 -0.13031,-1.60008 -0.20398,-2.39999c-0.07367,-0.80009 -0.15134,-1.59982 -0.22202,-2.40001c-0.07065,-0.79982 -0.19052,-2.39975 -0.23117,-3.20016c-0.04068,-0.80095 -0.06735,-1.60425 -0.08548,-2.41049c-0.01822,-0.81011 -0.02686,-1.62533 -0.03152,-2.4465c-0.0047,-0.82816 -0.00397,-2.5095 -0.00464,-3.364c-0.00067,-0.8615 -0.00235,-1.72702 -0.01053,-2.59351c-0.00818,-0.86452 -0.02164,-1.7241 -0.04648,-2.5755c-0.02454,-0.84061 -0.10489,-2.47682 -0.16418,-3.26717c-0.05814,-0.77502 -0.13013,-1.53745 -0.20398,-2.292c-0.07349,-0.75078 -0.1517,-1.50111 -0.22202,-2.256c-0.07101,-0.76245 -0.18991,-2.3278 -0.23151,-3.1375c-0.04245,-0.8263 -0.07214,-1.66703 -0.10648,-2.5185c-0.03467,-0.85954 -0.0705,-1.72433 -0.12451,-2.5905c-0.05399,-0.86586 -0.215,-2.58265 -0.33282,-3.42667c-0.11691,-0.83739 -0.26022,-1.66477 -0.40802,-2.4855c-0.14688,-0.81561 -0.30228,-1.62468 -0.444,-2.4315c-0.14096,-0.80254 -0.38031,-2.4036 -0.46249,-3.20417c-0.08179,-0.79686 -0.13678,-1.59111 -0.18149,-2.379c-0.04425,-0.77946 -0.07516,-1.54937 -0.1095,-2.307c-0.03369,-0.74371 -0.11395,-2.18137 -0.17319,-2.87217c-0.0582,-0.67857 -0.13077,-1.3504 -0.20398,-2.0235c-0.0741,-0.68123 -0.15265,-1.37701 -0.22202,-2.0955c-0.07211,-0.74685 -0.19131,-2.35625 -0.23117,-3.23017c-0.04175,-0.91543 -0.06744,-1.86527 -0.08548,-2.841c-0.01834,-0.99361 -0.02686,-1.99733 -0.03152,-3.00301c-0.00464,-0.99966 -0.00394,-2.949 -0.00464,-3.88433c-0.00067,-0.90733 -0.00223,-1.78868 -0.01053,-2.646c-0.00809,-0.83536 -0.02155,-1.65078 -0.04648,-2.448c-0.02444,-0.78146 -0.1051,-2.30433 -0.16418,-3.049c-0.05832,-0.73535 -0.12979,-1.46016 -0.20398,-2.175c-0.07318,-0.70515 -0.15082,-1.39984 -0.22202,-2.085c-0.07013,-0.67485 -0.19028,-1.99471 -0.23117,-2.6405c-0.04041,-0.63824 -0.06735,-1.27291 -0.08548,-1.9065c-0.01819,-0.63542 -0.02689,-1.27599 -0.03152,-1.9245c-0.00473,-0.65949 -0.00449,-2.0235 -0.00449,-2.733c0,-0.7265 0,-1.467 0,-2.2185c0,-0.7595 0,-1.524 0,-2.2905c0,-0.7655 0,-2.2815 0,-3.02666c0,-0.73617 0,-1.46433 0,-2.1855c0,-0.71517 0,-1.42533 0,-2.1315c0,-0.70317 0,-2.1045 0,-2.80417c0,-0.69767 0,-1.39133 0,-2.079c0,-0.67967 0,-1.34933 0,-2.007c0,-0.64367 0,-1.881 0,-2.47117c0,-0.57117 0,-1.12433 0,-1.6605c0,-0.52017 0,-1.02533 0,-1.5165c0,-0.47817 0,-1.3995 0,-1.84467c0,-0.43617 0,-0.86433 0,-1.2855c0,-0.41517 0,-0.82533 0,-1.2315c0,-0.40317 0,-1.2045 0,-1.6045c0,-0.4 0,-0.8 0,-1.2c0,-0.4 0,-0.8 0,-1.2c0,-0.4 0,-1.2 0,-1.5995c0,-0.3965 0,-0.787 0,-1.1685c0,-0.3695 0,-0.724 0,-1.0605c0,-0.3155 0,-0.8715 0,-1.10733c0,-0.21083 0,-0.40167 0,-0.5775c0,-0.16583 0,-0.32667 0,-0.4875c0,-0.16583 0,-0.5325 0,-0.74183c0,-0.22533 0,-0.46267 0,-0.708c0,-0.24933 0,-0.49867 0,-0.744c0,-0.23733 -0.00058,-0.672 0.00015,-0.86267c0.00067,-0.17467 0.00433,-0.33733 0.01053,-0.492l0.01016,-0.15067l0.03632,-0.30533" id="svg_4" stroke-width="2" stroke="#000" fill="none"/>
  <path t="9673,9795,9795,9795,9795,9795,9795,9822,9822,9822,9822,9823,9823,9823,9823,9850,9850,9850,9850,9850,9850,9850,9850,9851,9852,9852,9852,9852,9852,9852,9852,9852,9852,9879,9879,9879,9879,9879,9879,9879,9879,9880,9882,9882,9882,9882,9882,9882,9882,9882,9882,9909,9909,9909,9909,9909,9909,9909,9909,9910,9935,9935,9935,9936,9936,9936,9936,9936,9936,9960,9960,9960,9960,9960,9960,9960,9960,9960,9985,9985,9985,9985,9985,9985,9985,9985,9985,9986,9986,9987,9987,9987,9987,9987,9987,9987,9988,9988,9988,9988,9988,9988,9988,9989,9989,10013,10013,10014,10014,10014,10014,10014,10014,10014,10016,10016,10016,10016,10016,10016,10016,10016,10016,10042,10042,10042,10042,10042,10042,10042,10042,10043,10068,10068,10068,10068,10068,10068,10069,10069,10069,10094,10094,10095,10095,10095,10095,10095,10095,10095,10121,10121,10121,10121,10121,10121,10121,10121,10121,10123,10123,10123,10123,10123,10123,10123,10124,10124,10125,10125,10125,10126,10126,10126,10126,10126,10126,10152,10152,10153,10153,10153,10153,10153,10153,10153,10155,10155,10155,10155,10155,10155,10156,10156,10156,10184,10184,10184,10185,10185,10185,10185,10185,10185,10187,10187,10187,10187,10187,10187,10187,10188,10188,10216,10217,10217,10217,10217,10217,10217,10217,10218,10219,10219,10219,10220,10220,10220,10220,10220,10220,10250,10250,10250,10250,10251,10251,10251,10251,10251,10253,10253,10253,10253,10253,10254,10254,10254,10254,10285,10285,10285,10285,10286,10286,10286,10286,10286,10288,10288,10288,10288,10288,10289,10289,10289,10289,10322,10322,10322,10322,10323,10323,10323,10323,10323,10325,10325,10325,10325,10326,10326,10326,10326,10326,10357,10357,10358,10358,10358,10358,10358,10358,10359,10361,10361,10361,10361,10361,10362,10362,10362,10363,10394,10394,10394,10395,10395,10395,10395,10395,10396,10398,10398,10399,10399,10399,10399,10399,10399,10400,10430,10431,10431,10431,10432,10432,10432,10432,10432,10463,10463,10464,10464,10464,10464,10464,10465,10465,10467,10467,10467,10467,10467,10468,10468,10468,10468,10498,10498,10498,10499,10499,10499,10499,10499,10499,10501,10502,10502,10502,10502,10503,10503,10503,10503,10534,10534,10535,10535,10535,10535,10535,10536,10536,10538,10538,10538,10538,10538,10539,10539,10539,10539,10590,10590,10590,10591,10591,10591,10591,10591,10592,10594,10594,10595,10595,10595,10595,10596,10596,10596,10627,10627,10627,10627,10628,10628,10628,10628,10629,10659,10659,10659,10659,10660,10660,10660,10660,10661,10691,10692,10692,10692,10693,10693,10693,10693,10694,10696,10696,10697,10697,10697,10697,10698,10698,10698,10700,10700,10701,10701" d="m306,392c0,-3.08633 0,-4.03766 0,-4.56534c0,-1.14932 0,-1.767 0,-2.41068c0,-1.35733 0,-2.06714 0,-3.54282c0,-0.76382 0,-1.54367 0,-2.3385c0,-0.80884 0,-1.63068 0,-3.30933c0,-0.85535 0,-1.72269 0,-2.604c0,-0.89734 0,-1.81268 0,-2.74802c0,-0.95734 0,-1.93866 0,-3.98132c0,-1.064 0,-2.15201 0,-3.258c0,-1.11801 0,-2.242 0,-3.366c0,-1.11801 0,-2.224 0,-4.37601c0,-1.03601 0,-2.048 0,-3.04199c0,-0.98199 0,-1.95801 0,-2.93402c0,-0.98199 0,-1.97598 0,-4.02399c0,-1.064 0,-2.15201 0,-3.258c0,-1.11801 0,-2.242 0,-3.366c0,-1.11801 0.00015,-2.224 0,-4.37601c-0.00009,-1.03568 0.00024,-2.04532 -0.00449,-3.03299c-0.00464,-0.96967 -0.01331,-1.92542 -0.03152,-2.871c-0.0181,-0.93973 -0.03601,-1.87796 -0.13065,-3.76266c-0.04794,-0.95505 -0.11551,-1.91748 -0.186,-2.88602c-0.0708,-0.97278 -0.14825,-1.94727 -0.22202,-2.922c-0.07358,-0.9726 -0.15414,-1.94058 -0.25867,-3.85867c-0.05148,-0.94482 -0.08475,-1.88123 -0.1095,-2.80948c-0.02454,-0.92108 -0.0383,-1.8363 -0.04648,-2.74652c-0.00815,-0.90613 -0.00967,-1.80933 -0.01068,-3.61066c-0.00049,-0.89984 0.00037,-1.79871 -0.009,-2.6955c-0.00934,-0.89386 -0.02652,-1.78391 -0.06299,-2.66852c-0.03622,-0.87909 -0.06927,-1.75366 -0.26135,-3.46933c-0.09485,-0.84708 -0.23041,-1.68335 -0.37198,-2.51398c-0.14114,-0.82806 -0.29678,-1.65231 -0.444,-2.47803c-0.14746,-0.82697 -0.31052,-1.655 -0.51733,-3.34131c-0.10461,-0.85306 -0.16959,-1.71698 -0.22351,-2.586c-0.05411,-0.87234 -0.08997,-1.74731 -0.12451,-2.62201c-0.03445,-0.87265 -0.0545,-1.74203 -0.15198,-3.45868c-0.04803,-0.84589 -0.11533,-1.68417 -0.186,-2.51849c-0.07065,-0.83368 -0.14868,-1.66888 -0.22202,-2.50949c-0.07401,-0.84839 -0.15598,-1.70709 -0.25867,-3.47202c-0.05286,-0.9086 -0.08466,-1.83194 -0.11398,-2.763c-0.02939,-0.93292 -0.05142,-1.86203 -0.078,-2.78098c-0.02612,-0.90305 -0.04156,-1.78497 -0.14133,-3.45602c-0.04669,-0.78183 -0.11456,-1.53094 -0.186,-2.25598c-0.06995,-0.70963 -0.14874,-1.41052 -0.22202,-2.112c-0.07407,-0.7092 -0.15771,-1.4335 -0.25867,-2.96535c-0.05392,-0.81813 -0.08502,-1.66922 -0.1095,-2.54399c-0.0249,-0.89058 -0.03827,-1.78932 -0.04648,-2.688c-0.00815,-0.89066 -0.00964,-1.76534 -0.01068,-3.43466c-0.00049,-0.78134 0.00049,-1.5307 -0.009,-2.25601c-0.00928,-0.70937 -0.02692,-1.41093 -0.06299,-2.112c-0.03653,-0.70964 -0.07797,-1.43701 -0.26135,-2.96533c-0.09842,-0.82007 -0.23196,-1.66998 -0.3765,-2.54399c-0.1474,-0.89136 -0.3093,-1.78964 -0.47549,-2.688c-0.16483,-0.89098 -0.33493,-1.76479 -0.64801,-3.43466c-0.14636,-0.78058 -0.28284,-1.52618 -0.405,-2.24251c-0.11774,-0.69037 -0.22427,-1.36105 -0.315,-2.0175c-0.0892,-0.64526 -0.17535,-1.28532 -0.28,-2.57333c-0.05313,-0.65392 -0.08466,-1.3159 -0.11398,-1.98149c-0.02936,-0.66641 -0.05151,-1.33105 -0.078,-1.99051c-0.02618,-0.65154 -0.04257,-1.29317 -0.14133,-2.528c-0.0473,-0.59166 -0.11496,-1.16869 -0.19501,-1.737c-0.07996,-0.56773 -0.17667,-1.13861 -0.285,-1.71899c-0.11157,-0.59766 -0.23743,-1.21655 -0.51999,-2.54401c-0.15311,-0.7193 -0.31772,-1.47163 -0.48151,-2.25299c-0.16824,-0.80264 -0.33524,-1.6212 -0.49051,-2.451c-0.15573,-0.83223 -0.31616,-1.66069 -0.52798,-3.29601c-0.1022,-0.78891 -0.16904,-1.56229 -0.22351,-2.319c-0.05344,-0.74199 -0.08981,-1.47261 -0.12451,-2.19299c-0.0343,-0.7123 -0.05524,-1.41949 -0.15198,-2.82133c-0.04831,-0.7003 -0.1152,-1.39888 -0.186,-2.0955c-0.07053,-0.69405 -0.14801,-1.38359 -0.22202,-2.0685c-0.07333,-0.67876 -0.15378,-1.34961 -0.25867,-2.66933c-0.05127,-0.64505 -0.08481,-1.28386 -0.1095,-1.9185c-0.02463,-0.63338 -0.03833,-1.26897 -0.04648,-1.9095c-0.00824,-0.64848 -0.01001,-1.308 -0.01068,-2.672c-0.00034,-0.70967 0,-1.43733 0,-2.181c0,-0.75768 0,-1.52734 0,-2.30701c0,-0.78766 0,-1.58133 0,-3.17867c0,-0.79984 0,-1.59866 0,-2.39549c0,-0.79384 0,-1.58368 0,-2.36852c0,-0.77882 0,-1.55066 0,-3.06932c0,-0.74518 0,-1.48134 0,-2.2095c0,-0.72118 0,-1.43634 0,-2.1465c0,-0.70616 0.00015,-1.40933 0,-2.81067c-0.00009,-0.69983 0.00018,-1.39868 -0.00449,-2.0955c-0.00467,-0.69385 -0.01328,-1.38374 -0.03152,-2.0685c-0.0181,-0.67892 -0.03421,-1.35168 -0.13065,-2.66933c-0.04727,-0.64609 -0.1153,-1.28424 -0.186,-1.9185c-0.07065,-0.63373 -0.14877,-1.26883 -0.22202,-1.9095c-0.07413,-0.64833 -0.15649,-1.30678 -0.25867,-2.672c-0.05304,-0.70895 -0.08499,-1.43587 -0.1095,-2.1765c-0.02487,-0.7514 -0.0383,-1.51097 -0.04648,-2.27551c-0.00818,-0.76648 -0.01001,-1.532 -0.01068,-3.04799c-0.00034,-0.74533 0,-1.48267 0,-2.214c0,-0.72734 0,-1.45267 0,-2.17799c0,-0.72734 0,-1.45868 0,-2.94135c0,-0.7545 0,-1.51599 0,-2.28149c0,-0.76649 0,-1.53101 0,-2.2905c0,-0.7515 0.00034,-1.492 0,-2.92799c-0.00018,-0.69051 0.00043,-1.36404 -0.009,-2.02351c-0.00928,-0.64855 -0.02661,-1.28931 -0.06299,-1.9245c-0.03632,-0.63387 -0.07343,-1.27145 -0.26135,-2.55199c-0.09641,-0.65686 -0.23154,-1.31932 -0.37198,-1.9905c-0.14218,-0.6795 -0.29697,-1.36317 -0.444,-2.0535c-0.14767,-0.69334 -0.3092,-1.38647 -0.51733,-2.78933c-0.10355,-0.698 -0.16956,-1.39815 -0.21902,-2.0955c-0.04916,-0.69338 -0.0766,-1.38356 -0.09299,-2.0685c-0.01624,-0.67875 -0.01984,-1.35066 -0.02133,-2.66933c-0.00073,-0.64799 0,-1.30401 -0.00449,-1.986c-0.00476,-0.72601 -0.01443,-1.51404 -0.03152,-2.382c-0.01901,-0.96605 -0.04379,-2.04819 -0.13065,-4.632c-0.05142,-1.52978 -0.11679,-3.19736 -0.186,-4.971c-0.07208,-1.84769 -0.14792,-3.7373 -0.22202,-5.63699c-0.07324,-1.87765 -0.1485,-3.7011 -0.25867,-7.05867c-0.04846,-1.47707 -0.08325,-2.81732 -0.11398,-4.0335c-0.02792,-1.10515 -0.05051,-2.1124 -0.078,-3.0345c-0.02536,-0.85023 -0.04242,-1.64235 -0.14133,-3.09866c-0.04697,-0.69157 -0.11526,-1.36822 -0.186,-2.037c-0.07059,-0.66722 -0.14917,-1.3378 -0.22202,-2.019c-0.07452,-0.6968 -0.15778,-1.41483 -0.25867,-2.944c-0.05399,-0.81813 -0.08502,-1.66922 -0.1095,-2.544c-0.0249,-0.89057 -0.03827,-1.78931 -0.04648,-2.688c-0.00815,-0.89065 -0.01001,-1.76534 -0.01068,-3.43467c-0.00031,-0.781 0,-1.528 0,-2.247c0,-0.697 0,-1.378 0,-2.049c0,-0.667 0,-1.336 0,-2.704c0,-0.7095 0,-1.436 0,-2.1765c0,-0.7515 0,-1.511 0,-2.2755c0,-0.7665 0,-1.532 0,-3.048c0,-0.74483 0,-1.47867 0,-2.2005c0,-0.70884 0,-1.40367 0,-2.0835c0,-0.66383 0,-1.31067 0,-2.54933c0,-0.59067 0,-1.16533 0,-1.728c0,-0.55467 0,-1.10533 0,-1.656c0,-0.55467 0.00046,-1.11733 0,-2.28267c-0.00024,-0.61083 0.00006,-1.24674 -0.01349,-1.9125c-0.01425,-0.70093 -0.04193,-1.44211 -0.09451,-2.2275c-0.05597,-0.83637 -0.12134,-1.73016 -0.392,-3.69333c-0.14944,-1.08413 -0.34756,-2.21705 -0.5625,-3.384c-0.21829,-1.18509 -0.45447,-2.3668 -0.69751,-3.528c-0.23541,-1.12479 -0.46414,-2.19412 -0.90665,-4.088c-0.18631,-0.79741 -0.35913,-1.49257 -0.5145,-2.0955c-0.13425,-0.521 -0.25558,-0.96722 -0.36151,-1.3485c-0.09048,-0.32569 -0.17554,-0.60238 -0.29068,-1.056c-0.0481,-0.18953 -0.08249,-0.36168 -0.1185,-0.5145c-0.03217,-0.13649 -0.06271,-0.25898 -0.1095,-0.3615c-0.04288,-0.09394 -0.108,-0.16933 -0.272,-0.29067l-0.10931,-0.0455l-0.12534,-0.0385l-0.72668,-0.1925" id="svg_5" stroke-width="2" stroke="#000" fill="none"/>
  <path t="11038,11178,11178,11178,11178,11178,11178,11178,11195,11195,11195,11195,11195,11195,11195,11195,11195,11216,11216,11216,11216,11216,11216,11217,11217,11217,11234,11234,11234,11234,11234,11234,11234,11234,11234,11253,11253,11253,11253,11253,11253,11253,11253,11253,11275,11275,11276,11276,11276,11276,11276,11276,11276,11298,11298,11298,11298,11298,11298,11298,11298,11298,11317,11317,11317,11317,11317,11317,11317,11317,11317,11338,11338,11338,11338,11338,11338,11339,11339,11339,11356,11357,11357,11357,11357,11357,11357,11357,11357,11376,11376,11376,11376,11376,11376,11376,11376,11376,11395,11396,11396,11396,11396,11396,11396,11397,11397,11398,11398,11398,11398,11398,11398,11399,11399,11399,11400,11400,11400,11400,11400,11400,11400,11400,11400,11420,11420,11420,11420,11420,11420,11420,11420,11420,11439,11440,11440,11440,11440,11440,11440,11440,11440,11460,11460,11461,11461,11461,11461,11461,11461,11461,11463,11463,11463,11463,11463,11463,11463,11464,11464,11483,11483,11483,11483,11483,11483,11483,11484,11484,11504,11504,11504,11504,11504,11504,11504,11504,11504,11523,11524,11524,11524,11524,11524,11524,11524,11524,11544,11545,11545,11545,11545,11545,11545,11545,11546,11565,11565,11566,11566,11566,11566,11566,11566,11566,11586,11586,11586,11586,11586,11586,11586,11587,11587,11606,11606,11607,11607,11607,11607,11607,11607,11607,11628,11628,11629,11629,11629,11629,11629,11629,11629,11650,11650,11650,11651,11651,11651,11651,11651,11651,11653,11653,11653,11653,11653,11653,11654,11654,11654,11655,11655,11656,11656,11656,11656,11656,11656,11657,11677,11677,11678,11678,11678,11678,11678,11678,11679,11681,11682,11682,11682,11682,11682,11682,11683,11683,11705,11705,11706,11706,11706,11707,11707,11707,11729,11729,11730,11730,11730,11731,11731,11733,11733,11733,11733,11734,11734,11734,11778,11778,11778,11779,11779,11779,11803,11803,11803,11803,11803,11805,11805,11806,11806,11806,11806,11808,11808,11808,11809,11809,11809,11809,11831,11831,11831,11832,11832,11832,11832,11834,11834,11834,11834,11835,11835,11855,11856,11856,11856,11856,11856,11877,11878,11878,11878,11878,11878,11880,11881,11881,11881,11881,11881,11905,11905,11905,11906,11906,11906,11926,11926,11927,11927,11927,11927,11927,11948,11949,11949,11949,11949,11949,11969,11970,11970,11970,11970,11971,11992,11992,11993,11993,11993,11993,12014,12015,12015,12015,12015,12015,12017,12018,12018,12018,12018,12018,12020,12020,12021,12021,12021,12021,12042,12043,12043,12043,12043,12043,12065,12065,12066,12066,12066,12066,12087,12087,12087,12087,12088,12088,12088,12109,12109,12109,12110,12110,12110,12132,12132,12132,12132,12132,12133,12134,12135,12135,12135,12135,12136,12137,12138,12138,12138,12138,12138,12160,12161,12161,12161,12161,12162,12183,12183,12183,12183,12242,12242,12242,12242" d="m274,398c2.6355,-5.06467 2.76028,-5.6553 2.82849,-6.276c0.14331,-1.30402 0.1441,-1.99191 0.15802,-2.69467c0.01422,-0.71857 0.01349,-2.19598 0.01349,-2.95132c0,-0.76733 0,-1.54868 0,-2.34601c0,-0.81534 0,-1.65067 0,-2.508c0,-0.88132 0,-2.724 0,-3.68832c0,-0.99036 0,-2.00269 0,-3.03302c0,-1.04431 0,-2.09866 0,-3.159c0,-1.06232 0,-3.177 0,-4.22266c0,-1.03967 0,-2.07733 0,-3.117c0,-1.04565 0,-2.10132 0,-3.17099c0,-1.08768 0,-3.33301 0,-4.49716c0,-1.18918 0,-2.39835 0,-3.6225c0,-1.23419 0,-2.47336 0,-3.71252c0,-1.23416 0,-3.66748 0,-4.85782c0,-1.17233 0,-2.32867 0,-3.47101c0,-1.13034 0,-2.25067 0,-3.36301c0,-1.10632 0,-3.30899 0,-4.40881c0,-1.09885 0,-2.19568 0,-3.28952c0,-1.08981 0,-2.17465 0,-3.25348c0,-1.07184 0,-3.19052 0,-4.23569c0,-1.03616 0,-2.06433 0,-3.08548c0,-1.01517 0,-2.02533 0,-3.03152c0,-1.00314 0,-3.00449 0,-4.00433c0,-0.99881 0,-1.99567 0,-2.98947c0,-0.98984 0,-1.97467 0,-2.95352c0,-0.97183 0,-2.8905 0,-3.83548c0,-0.93503 0,-1.86002 0,-2.77502c0,-0.905 0,-1.79999 0,-2.685c0,-0.875 0,-2.595 0,-3.44034c0,-0.83731 0,-1.66864 0,-2.49597c0,-0.82535 0,-1.6507 0,-2.47803c0,-0.83133 0,-2.51398 0,-3.36865c0,-0.86267 0,-1.73132 0,-2.604c0,-0.87466 0,-1.74933 0,-2.62201c0,-0.86865 0,-2.586 0,-3.43115c0,-0.83618 0,-1.66434 0,-2.4855c0,-0.81516 0,-1.62534 0,-2.43149c0,-0.80319 0,-2.40451 0,-3.20435c0,-0.79883 0,-1.59567 0,-2.3895c0,-0.78983 0,-1.57468 0,-2.35352c0,-0.77182 0.00101,-2.2905 -0.00034,-3.03549c-0.00131,-0.73499 -0.00452,-1.46008 -0.021,-2.17499c-0.01624,-0.70511 -0.04327,-1.40048 -0.09299,-2.08502c-0.04904,-0.67555 -0.21063,-1.99646 -0.32834,-2.64049c-0.117,-0.64009 -0.26102,-1.27338 -0.40802,-1.90649c-0.14764,-0.63588 -0.30359,-1.27492 -0.444,-1.9245c-0.14233,-0.65843 -0.38168,-2.02232 -0.46231,-2.733c-0.08231,-0.72545 -0.13483,-1.46667 -0.17102,-2.21851c-0.03653,-0.75922 -0.05365,-1.52396 -0.06299,-2.2905c-0.00934,-0.76547 -0.00848,-2.28149 -0.00916,-3.02667c-0.00067,-0.73616 -0.00232,-1.46434 -0.01053,-2.1855c-0.00815,-0.71519 -0.02176,-1.42545 -0.04648,-2.13148c-0.02463,-0.70331 -0.1055,-2.10483 -0.16418,-2.80434c-0.05865,-0.69919 -0.1301,-1.3958 -0.20398,-2.08951c-0.07349,-0.68996 -0.15097,-1.3745 -0.22202,-2.0535c-0.07028,-0.67166 -0.18976,-1.99023 -0.23132,-2.63583c-0.04102,-0.6371 -0.06964,-1.26862 -0.09601,-1.896c-0.02631,-0.62529 -0.04877,-1.25076 -0.078,-1.87801c-0.02942,-0.63142 -0.11041,-1.91431 -0.16867,-2.56866c-0.05902,-0.66299 -0.13043,-1.33142 -0.20398,-2.004c-0.07379,-0.67476 -0.15112,-1.34915 -0.22202,-2.022c-0.07043,-0.66849 -0.18976,-1.98573 -0.23132,-2.63133c-0.04102,-0.6371 -0.06964,-1.26862 -0.09601,-1.896c-0.02631,-0.62529 -0.04877,-1.25076 -0.078,-1.87801c-0.02942,-0.63142 -0.1105,-1.91431 -0.16867,-2.569c-0.05911,-0.66531 -0.13086,-1.34004 -0.20398,-2.02499c-0.07422,-0.69505 -0.15179,-1.39977 -0.22202,-2.11501c-0.07114,-0.72475 -0.19064,-2.20474 -0.23117,-2.95934c-0.04083,-0.7601 -0.06726,-1.52258 -0.08548,-2.28299c-0.01807,-0.75427 -0.02682,-1.49866 -0.03152,-2.229c-0.00458,-0.71233 -0.00449,-2.067 -0.00449,-2.70284c0,-0.61084 0,-1.20166 0,-1.7775c0,-0.56584 0,-1.12666 0,-1.6875c0,-0.56584 0,-1.7325 0,-2.34216c0,-0.62767 0,-1.27135 0,-1.929c0,-0.66968 0,-1.34933 0,-2.037c0,-0.69366 0,-2.091 0,-2.79083c0,-0.69884 0,-1.39568 0,-2.08951c0,-0.68983 0,-1.37466 0,-2.0535c0,-0.67183 0,-1.99049 0,-2.63583c0,-0.63733 0,-1.26866 0,-1.896c0,-0.62534 0,-1.25067 0,-1.87801c0,-0.63133 0,-1.914 0,-2.56883c0,-0.66383 0,-1.33566 0,-2.0145c0,-0.68483 0,-1.37466 0,-2.0685c0,-0.69684 0,-2.0955 0,-2.79533c0,-0.69884 0,-1.39568 0,-2.08951c0,-0.68983 0,-1.37466 0,-2.0535c0,-0.67183 0,-1.99049 0,-2.63583c0,-0.63733 0,-1.26866 0,-1.896c0,-0.62534 0,-1.25067 0,-1.87801c0,-0.63133 0,-1.914 0,-2.56866c0,-0.66266 0,-1.33133 0,-2.004c0,-1.34933 0,-2.022 0,-2.69067c0,-1.31732 0,-2.59866 0,-3.22682c0,-0.62117 0,-1.23634 0,-2.45267c0,-0.60316 0,-1.8045 0,-3.0045c0,-0.60001 0,-1.2 0,-2.40001c0,-0.59999 0,-1.2 0,-2.99966c0,-0.59766 0,-1.19133 0,-2.35867c0,-0.56966 0,-1.671 0,-2.70833c0,-0.96534 0,-1.88267 0,-2.784c0,-0.45467 0,-1.88267 0,-2.39217c0,-1.067 0,-1.6185 0,-2.7425c0,-0.5665 0,-2.248 0,-2.7935c0,-1.07301 0,-1.60651 0,-2.6825c0,-0.5485 0,-1.108 0,-2.88133c0,-0.62534 0,-1.26266 0,-1.908c0,-1.29866 0,-1.944 0,-2.58133c0,-1.825 0,-2.39733 0,-2.95367c0,-1.07267 0,-2.10533 0,-2.61166c0,-1.50284 0,-2.00401 0,-3.01334c0,-0.51017 0,-1.5465 0,-2.07467c0,-1.636 0,-2.19866 0,-3.34c0,-0.57467 0,-1.722 0,-2.29067c0,-1.11733 0,-2.19866 0,-2.72683c0,-1.03633 0,-2.05267 0,-2.55583c0,-1.50167 0,-2.00401 0,-3.02267c0,-0.52033 0,-1.593 0,-2.14934c0,-1.772 0,-2.39733 0,-3.03466c0,-0.64534 0,-1.944 0,-2.58934c0,-0.63733 0,-1.87199 0,-3.03466c0,-0.55634 0,-1.62901 0,-2.14934c0,-1.01867 0,-2.5215 0,-3.02267c0,-1.00933 0,-1.5195 0,-2.55583c0,-0.52817 0,-2.16417 0,-2.72683c0,-1.14133 0,-1.716 0,-2.29066c0,-1.14133 -0.00253,-2.25867 0.00134,-3.34c0.00189,-0.52818 0.01462,-1.56467 0.03467,-2.07467c0.03967,-1.00975 0.18164,-2.51131 0.24799,-3.012c0.13388,-1.01035 0.2222,-1.51863 0.36334,-2.55583c0.07181,-0.52775 0.23447,-2.16397 0.26865,-2.72683c0.03452,-0.56848 0.08191,-1.71609 0.10934,-2.29066c0.0545,-1.14154 0.12988,-2.25997 0.25867,-3.34c0.06308,-0.52887 0.21759,-1.56427 0.29068,-2.07467c0.14447,-1.00889 0.27139,-2.00972 0.34,-3.01333c0.03458,-0.50594 0.06732,-1.53895 0.07465,-2.06933c0.0152,-1.0986 0.01068,-2.26133 0.01068,-3.496c0,-0.63733 0,-1.28267 0,-1.932c0,-1.29467 0,-1.932 0,-3.16667c0,-0.59033 0,-1.719 0,-2.26133c0,-1.05067 0,-2.06933 0,-3.072c0,-1.00133 0,-1.5045 0,-2.52083c0,-0.51517 0,-1.5645 0,-2.64583c0,-1.11733 0,-1.686 0,-2.83333c0,-0.57467 0,-1.14733 0,-2.83333c0,-0.54517 0,-1.6095 0,-2.13067c0,-1.02533 0,-2.03467 0,-3.036c0,-0.99867 0,-1.4955 0,-2.47917c0,-0.96367 0,-1.4355 0,-2.79917c0,-0.86 0,-1.68 0,-2.46c0,-1.095 0,-2.1045 0,-2.74083l0,-0.9195" id="svg_6" stroke-width="2" stroke="#000" fill="none"/>
 </g>
 <g display="none">
  <title>muse_image</title>
  <image xlink:href="http://farm1.static.flickr.com/193/1515258895_c15addcc7f.jpg" id="muse" height="480" width="360" y="0" x="140"/>
 </g>
 <g display="none">
  <title>bbox</title>
  <rect stroke="#f00" fill="none" stroke-width="3" height="474.24" width="154.56" y="0" x="240.8" id="bbox"/>
 </g>
</svg>
