<svg width="640" height="480" xmlns="http://www.w3.org/2000/svg" xmlns:svg="http://www.w3.org/2000/svg" xmlns:xlink="http://www.w3.org/1999/xlink">
 <!-- Sketchy ANNOTATION
  ImageNet ID: n03272010_7092
  URL: http://farm4.static.flickr.com/3404/3304560819_7d3a8d9dc4.jpg
  Image Width: 375
  Image Height: 500
  BBox X: 141
  BBox Y: 11
  BBox Width: 150
  BBox Height: 483
  Exposure: 2000ms
  Synset Label: guitar
  Synset ID: n03467517
  Worker Tag: upright guitar with dim lighting
  Sanity Check: 
   Saved
  Comment: 
   {}
  Worker ID: A2HM35CWB7IIFM
  Assignment ID: 31N2WW6R9RQSQH8BE143U3XXIET3FT
  HIT ID: 39KMGHJ4RZA3P1WU2UYX0EH157K00R
  Work Time: 102s
  Worker Score: 0.7857
 END ANNOTATION -->
 <g display="inline">
  <title>Layer 1</title>
  <path t="0,170,186,197,203,239,264,276,302,302,313,329,329,344,345,350,362,378,387,411,427,436,461,486,486,510,528,534,560,573,585,609,621,634,649,649,666,666,669,681,681,695,695,743,759,855,867" d="m323,39.9c0,1.8 0.00641,2.7784 0.80133,2.99866c0.88412,0.24499 1.48483,0.67877 2.11465,1.28534c0.57474,0.5535 1.03323,1.28253 1.07953,2.06783c0.06021,1.02118 0.22891,1.96824 0.50449,2.64817c0.33713,0.83181 0.31305,1.72248 0.53601,2.6c0.21909,0.8623 0.75021,1.69132 1.31665,2.34734c0.51147,0.59238 0.64734,1.35266 0.64734,2.25267c0,0.9 0,1.8 0,2.6c0,0.9 0,1.8 0,2.7c0,0.9 0,1.8 0,2.7c0,0.9 0.25558,1.9082 -0.22134,2.67883c-0.45581,0.73649 -0.64514,1.36645 -1.064,2.23584c-0.31088,0.6453 -1.23572,1.23277 -1.548,2.05199c-0.30273,0.79409 -0.32922,1.85366 -0.77731,2.42267c-0.61063,0.77538 -1.26801,1.5105 -1.61069,2.28934l-0.69464,0.40666" id="svg_1" stroke-width="2" stroke="#000" fill="none"/>
  <path t="2121,2294,2295,2295,2306,2306,2320,2320,2320,2329,2329,2345,2364,2413,2413,2439,2450,2487,2511,2527,2543,2548,2548,2560,2560,2576,2586,2610,2634,2635,2659,2659,2684,2695,2721,2745,2770,2782,2806,2830,2831,2843,2859,2879,2917,2954,2991,3189,3348,3483,3520,3557,3569,3593,3594,3616,3642,3655,3668,3668,3691,3716,3727,3745,3753,3764,3764,3778,3778,3819,3827,3849,3862,3887,3887,3898,3924,3936,3998,4010,4025,4034,4035,4047,4059,4060,4084,4095,4109,4122,4136,4149,4169,4182,4219,4230,4280,4328" d="m319,39.9c2.00983,-1.3 2.78818,-1.59263 3.31732,-1.8c1.23236,-0.48294 1.87091,-0.80221 2.68268,-1.2c0.79892,-0.39151 1.58533,-0.7924 2.59549,-0.94283c0.74103,-0.11035 1.7746,0.04213 2.60452,-0.0585c0.91977,-0.11153 1.56683,-0.84452 2.39999,-0.988c0.88699,-0.15275 1.79999,-0.01067 2.69998,-0.01067c0.90002,0 1.80002,0 2.70001,0c0.75717,0 1.65268,0 2.51599,0c0.96317,0 1.884,0 2.78851,0c0.86215,0 1.6955,0 2.67398,0c0.82019,0 1.72153,0 2.62152,0c0.89999,0 1.79999,0 2.69998,0c0.90002,0 1.80002,0 2.70001,0c0.79999,0 1.7265,-0.18375 2.60001,0.036c0.86282,0.21706 1.61148,0.79728 2.49982,0.96417c0.79572,0.14949 1.25592,0.97115 2.10019,0.99983c0.89929,0.03055 1.95923,0.29565 1.79865,1.19867c-0.14514,0.81612 -1.04547,1.1082 -1.79865,1.51733c-0.79752,0.43322 -1.55664,0.89634 -2.116,1.56933c-0.55603,0.66901 -0.91821,1.14634 -1.64801,1.74c-0.64908,0.528 -1.12225,1.39702 -1.37885,2.27467c-0.25345,0.86685 -0.05716,1.86667 -0.05716,2.52533c0,1.008 -0.05621,1.87069 -0.5,2.67467c-0.44189,0.80053 -0.5,1.7 -0.5,2.6c0,0.9 0,1.7 0,2.6c0,0.9 -0.00226,1.8 0,2.7c0.00226,0.89551 0.61783,1.46762 0.91467,2.16933c0.30649,0.72451 -0.06186,1.86434 0.37067,2.63067c0.38898,0.68916 1.16187,1.31969 1.66199,2.0955c0.44998,0.69804 1.14505,1.11179 1.70001,1.75716c0.50046,0.58199 0.89029,1.39981 1.64816,1.89467c0.6954,0.45406 1.27917,1.078 1.78851,1.76867l0.74933,0.45066" id="svg_2" stroke-width="2" stroke="#000" fill="none"/>
  <path t="4935,5178,5200,5204,5218,5231,5250,5263,5287,5287,5311,5326,5349,5373,5409,5425,5446,5459,5459,5484,5496,5497,5509,5526,5532" d="m364,72.9c0,1.8 0.00601,2.70002 0,3.6c-0.00534,0.80006 -0.43289,1.65121 -0.83334,2.4c-0.42328,0.79144 -1.31094,1.03075 -1.80948,1.7045c-0.51373,0.69427 -0.39026,1.66566 -0.93185,2.32083c-0.47067,0.56936 -1.04346,1.285 -1.34,2.17467c-0.28589,0.85764 -0.08533,1.8 -0.08533,2.60001c0,0.95716 0,1.85266 0,2.716l0,0.848l0,0.936l0,0.89999" id="svg_3" stroke-width="2" stroke="#000" fill="none"/>
  <path t="6359,6529,6541,6566,6580,6593,6603,6613,6613,6626,6627,6644,6644,6651,6651,6662,6687,6687,6712,6736,6737,6761,6777,6793,6798,6810,6826,6827,6835,6835,6847,6859,6884,6884,6897,6897,6908,6926,6945,6961,6971,6981,6981,6995,6995,7010,7010,7010,7019,7020,7020,7031,7031,7043,7043,7059,7059,7079,7080,7104,7118,7118,7129,7142" d="m359,94.9c0,1.8 0,2.7 0,3.6c0,0.9 0,1.8 0,2.7c0,0.80033 0,1.67066 0,2.46799c0,0.98134 0,1.89867 0,2.71117c0,1.00484 0,1.6955 0,2.76367c0,0.85733 0,1.64249 0,2.5825c0,1.008 0,1.87017 0,2.77467c0,0.9 0,1.8 0,2.7c0,0.89999 0,1.7 0,2.58533c0,0.94 -0.00699,1.63069 0,2.704c0.00534,0.82139 0.22833,1.72918 0.5,2.41067c0.38852,0.97457 0.49933,1.79867 0.5,2.7c0.00067,0.9 0,1.8 0,2.7c0,0.89999 0,1.80266 0,2.57066c0,1.03917 -0.0033,1.81467 0,2.86267c0.00226,0.71402 0.01828,1.62672 0.22134,2.588c0.17145,0.81157 0.4671,1.61763 0.65732,2.657c0.12274,0.67065 0.29865,1.74979 0.62134,2.42166c0.39154,0.8152 0.49466,1.67462 0.5,2.61601c0.00436,0.76797 0,1.70934 0,2.71733l0,0.756l0,0.91066l0,0.90001" id="svg_4" stroke-width="2" stroke="#000" fill="none"/>
  <path t="8200,8382,8382,8398,8398,8398,8398,8398,8411,8411,8411,8411,8420,8420,8420,8431,8431,8431,8443,8443,8459,8469,8480,8480,8492,8492,8509,8509,8518,8518,8518,8529,8530,8542,8542,8542,8560,8560,8560,8566,8578,8593,8593,8609,8609,8609,8616,8627,8642,8642,8653,8653,8653,8664,8664,8664,8676,8677,8677,8692,8692,8692,8701,8702,8713,8713,8726,8742,8742,8751,8752,8762,8788,8800,8811,8825,8826,8826,8836,8837,8837,8848,8848,8849,8861,8861,8861,8862,8875,8875,8875,8885,8885,8897,8897,8910,8910,8926" d="m362,152.89999c0,2.61351 0,3.5715 0,4.5c0,0.75334 0,1.58667 0,2.46001c0,0.87334 0,2.097 0,2.82567c0,0.67267 0,1.61166 0,2.81433c0,0.60001 -0.00433,1.50002 0.00015,2.69966c0.0022,0.59135 -0.12674,1.46742 0.22119,2.55734c0.24435,0.76546 0.76065,1.54247 0.77866,2.44749c0.01715,0.862 0,1.6955 0,2.67416c0,0.774 0,1.683 0,2.483c0,0.95967 0,1.76367 0,2.58568c0,1.26732 0,1.93182 0,2.95265c0,0.81067 0,1.68535 0,2.68268c0,0.79649 0,1.54799 0,2.64532c0,0.87334 0,1.83867 0,2.50801c0,1.16399 0,1.95332 0,2.67867c0,0.96449 -0.01828,1.89618 0.00015,2.80682c0.01801,0.88971 0.22168,1.87851 0.42517,2.48917c0.29138,0.87445 0.50983,1.87335 0.55383,2.71017c0.03064,0.58308 0.02084,1.77899 0.02084,2.6685c0,0.8535 0,1.88916 0,2.57466c0,0.83467 0,1.836 0,2.636c0,0.99867 0,1.76399 0,2.84734c0,0.91933 0,1.75266 0,2.586c0,0.86217 0,1.76666 0,2.66666c0,0.90001 0,1.8045 0,2.66667c0,0.875 0,1.52 0,2.51868c0,0.83549 -0.00867,1.71603 0.00134,2.91466c0.005,0.60005 0.00827,1.50748 0.22,2.7c0.10736,0.60475 0.37354,1.49561 0.49466,2.10001c0.23874,1.19133 0.27234,2.07899 0.28265,2.91466c0.01233,0.99992 0.00134,1.87468 0.00134,2.88518c0,0.77933 0,1.77866 0,2.49567l0,0.9045" id="svg_5" stroke-width="2" stroke="#000" fill="none"/>
  <path t="9609,9759,9759,9772,9772,9772,9784,9784,9784,9802,9803,9803,9817,9817,9821,9821,9840,9840,9851,9851,9852,9852,9860,9860,9861,9861,9869,9869,9869,9869,9869,9880,9881,9881,9881,9881,9893,9894,9894,9910,9910,9910,9918,9929,9929,9943,9943,9960,9967,9967,9978,9978,9993,9993,9993,9993,10009,10009,10010,10010,10017,10018,10018,10018,10028,10028,10028,10042,10042,10052,10053,10064,10076,10076,10092,10101,10102,10125,10200,10201,10250,10265,10281,10287,10299,10299,10310,10326,10335,10346,10346,10359,10375,10395,10408" d="m365,241.89999c0,1.84668 0,2.68668 0,3.68535c0,0.83549 0,1.71599 0,2.61449c0,0.88951 0,1.74301 0,2.77867c0,0.6855 0,1.52017 0,2.5215c0,0.8 0,1.8 0,2.60001c0,1.00015 0,1.82083 0,2.96667c0,0.79498 0,1.375 0,2.31998c0,1.035 0,1.77502 0,2.55502c0,0.81998 0,2.125 0,3.04233c0,0.46866 0,1.41599 0,2.36331c0,1.38602 0,1.83084 0,2.68652c0,0.80365 0,1.89417 0,2.82333c0,0.78149 -0.01157,1.72559 0.00134,2.72549c0.01028,0.79669 -0.03983,1.59433 0.42398,2.64532c0.36148,0.81912 0.52878,1.55896 0.58536,2.49734c0.04181,0.69345 0.66574,1.5816 0.93216,2.48367c0.18808,0.63681 0.05716,1.70532 0.05716,2.51233c0,1.17865 0,1.78 0,2.69949c0,0.63632 -0.00568,2.00055 0.00449,2.73184c0.01041,0.74741 0.00839,1.50003 0.16217,2.58066c0.14462,1.01624 0.35739,1.64053 0.54935,2.56534c0.1861,0.89661 0.2287,1.79391 0.33667,2.64417c0.13217,1.04077 0.45901,1.6817 0.78067,2.7905c0.21506,0.74136 0.16666,1.6875 0.16666,2.48801c0,0.85333 0,1.79333 0,2.77884c0,0.78516 0,1.72516 0,2.73315c0,0.75601 0.12656,1.5484 0.64734,2.21933c0.45313,0.58377 0.35266,1.58334 0.35266,2.43134c0,0.86334 0,1.88 0,2.716c0,0.89999 0,1.79999 0,2.60001c0,0.89999 0,1.79999 0,2.69998l0,0.89999" id="svg_6" stroke-width="2" stroke="#000" fill="none"/>
  <path t="11958,12154,12167,12186,12195,12203,12226,12251,12275,12362,12399,12400,12417,12435,12448,12448,12459,12460,12477,12477,12484,12485,12496,12496,12496,12509,12533,12545,12560,12576,12583,12606,12621,12682,12694,12694,12714,12719,12732,12732,12748,12749,12762,12763,12767,12767,12779,12780,12794,12811,12816,12816,12827,12828,12844,12853,12853,12853,12864,12864,12864,12864,12877,12877,12877,12878,12878,12878,12878,12894,12894,12894,12894,12894,12894,12894,12894,12902,12902,12902,12902,12902,12902,12914,12914,12927,12927,12927,12944,12944,12952,12963" d="m322,79.9c0.99866,0.88667 0.68582,1.95349 1.22134,2.75716c0.4462,0.66961 0.68997,1.34721 0.77866,2.24284c0.08374,0.8457 0.73904,1.44477 1.35718,1.94733c0.70459,0.57285 1.53363,0.77596 2.12198,1.55267c0.55832,0.73708 0.44385,1.71558 0.60617,2.38533c0.23868,0.98477 0.70886,1.71961 1.11469,2.51334c0.39313,0.76889 0.94046,1.5523 1.39999,2.26266c0.55029,0.85066 0.73831,1.60857 1.10001,2.27617c0.5123,0.94556 1.01746,1.46252 1.30447,2.358c0.24387,0.76086 0.68314,1.28704 1.0062,2.09383c0.31598,0.78913 1.30054,0.99852 1.82266,1.77733c0.47324,0.70589 0.16666,1.63334 0.16666,2.53333c0,0.936 0,1.78534 0,2.70451c0,0.99416 0,1.7595 0,2.71149c0,0.76801 -0.05231,1.72879 0.08533,2.48534c0.18427,1.01286 0.68008,1.71099 0.85751,2.6415c0.17984,0.94321 0.01199,1.92611 0.06784,2.5825c0.08646,1.01633 0.7363,1.70269 0.95331,2.58533c0.21771,0.88551 0.03601,1.65183 0.03601,2.36134c0,1.20267 0,1.932 0,2.75733c0,0.92934 0,1.97066 0,2.53517c0,1.207 0,1.84349 0,2.49799c0,0.66951 0,2.0415 0,3.4375c0,0.69968 0,1.39734 0,2.091c0,0.68767 0,1.36734 0,2.69467c0,0.64366 0,1.881 0,3.03967c0,0.54683 0,1.5705 0,2.04533c0,0.87067 0,2.27333 0,3.06682c0,1.0625 0,1.8625 0,2.66251c0,0.9955 0,1.74283 0,2.76401l0,0.94049" id="svg_7" stroke-width="2" stroke="#000" fill="none"/>
  <path t="13678,13811,13824,13824,13837,13860,13860,13882,13882,13886,13886,13886,13898,13898,13908,13908,13908,13925,13925,13925,13925,13933,13933,13933,13946,13946,13946,13958,13959,13975,13982,13994,14019,14019,14031,14043,14043,14058,14068,14068,14068,14080,14080,14080,14092,14108,14109,14109,14118,14133,14144,14144,14159,14159,14159,14167,14178,14193,14193,14213,14213,14213,14215,14216,14216,14216,14227,14227,14227,14227,14241,14241,14242,14252,14252,14252,14264,14264,14264,14277,14291,14313,14326,14326,14342,14342,14351,14351,14362,14363" d="m338,157.89999c0,1.82535 -0.17398,2.86295 0.05716,3.69551c0.21518,0.77505 0.86514,1.62076 0.922,2.30449c0.09259,1.11369 0.02084,1.80984 0.02084,2.76935c0,0.7515 0,1.54799 0,2.778c0,0.67799 -0.01236,1.61949 0.00449,2.40982c0.01819,0.85388 0.14948,2.04546 0.27951,2.64284c0.19687,0.90437 0.46942,1.79404 0.59451,2.69983c0.12225,0.88521 0.11923,1.74301 0.12149,2.77867c0.00195,0.90067 0,1.52017 0,2.517c0,0.91917 -0.14548,1.89694 0.01068,2.8045c0.14337,0.83316 0.90424,1.58739 0.98798,2.39999c0.08569,0.83159 0.00134,1.85268 0.00134,2.54733c0,1.03801 0,1.98601 0,2.66251c0,0.7755 0,1.8235 0,2.7435c0,0.75999 0,1.7675 0,2.78934c0,0.70799 0,1.452 0,2.64299c0,0.91434 -0.0004,1.81433 0,2.48634c0.00067,1.09599 -0.05658,1.83899 0.08533,2.56c0.22159,1.12592 0.85379,1.86188 0.91467,2.76799c0.0546,0.81252 0,1.772 0,2.5625c0,0.60367 0,1.95885 0,2.69017c0,0.74733 0,1.49467 0,2.58067c0,1.00949 0,1.64583 0,2.56534c0,1.20132 0,1.80133 0,2.70132c0,1.19983 0,1.7955 0,2.664c0,1.06934 0,1.98933 0,2.74933c0,0.96584 0,1.88667 0,2.79117c0,0.86217 0,1.6955 0,2.67416c0,0.774 0,1.67851 0,2.42584l0,0.9955l0,0.8" id="svg_8" stroke-width="2" stroke="#000" fill="none"/>
  <path t="15065,15249,15261,15261,15282,15282,15286,15287,15287,15300,15300,15300,15312,15312,15312,15326,15326,15326,15333,15333,15345,15345,15358,15358,15374,15375,15375,15382,15383,15394,15394,15394,15408,15408,15409,15425,15425,15444,15444,15469,15469,15480,15480,15504,15504,15517,15529,15542,15559,15566,15566,15578,15592,15592,15608,15608,15615,15615,15615,15627,15627,15628,15641,15642,15652,15652,15664,15664,15665,15677,15691,15714,15725,15750,15750,15763,15763,15775,15775,15792,15799,15824,15848,15848,15861,15861,15875,15892,15898,15910,15947,15971" d="m342,239.89999c0.57468,1.636 0.94803,2.48268 0.98932,3.21068c0.05603,0.98781 0.01068,1.78932 0.01068,2.78932c0,0.81067 0,1.68535 0,2.68535c0,0.83549 0,1.71599 0,2.61449c0,0.88951 0,1.74301 0,2.77867c0,0.6855 0,1.52017 0,2.5215c0,0.79999 0,1.79999 0,2.60001c0,1 0,1.79999 0,2.79999c0,0.80002 0,1.60001 0,2.60452c0,0.85266 0,1.81699 0,2.63147c0,0.86853 -0.00882,2.06381 0.00449,2.65503c0.01883,0.83737 0.24084,1.95544 0.57019,2.72366c0.3685,0.85953 0.37817,1.61313 0.64667,2.58514c0.22037,0.79779 0.68546,1.62253 0.76797,2.42551c0.10504,1.022 0.01068,1.72202 0.01068,2.73868c0,0.936 0,1.836 0,2.73599c0,0.89999 0,1.70001 0,2.53601c0,1.02115 0,1.76849 0,2.76532c0,0.83466 -0.01282,1.76553 0.00449,2.55133c0.01813,0.82242 0.13522,1.88831 0.34818,2.59018c0.26193,0.86328 0.595,1.85477 0.63666,2.65717c0.05185,0.99872 0.01068,1.79999 0.01068,2.79999c0,0.78934 0,1.51468 0,2.58936c0,0.91064 0,1.81064 0,2.71515c0,0.86218 0,1.6955 0,2.67416c0,0.77402 0,1.67401 0,2.53735c0,0.96317 0,1.88397 0,2.78848c0,0.86218 0,1.6955 0,2.67401c0,0.82016 0,1.7215 0,2.62149c0,0.89999 0,1.79999 0,2.70001l0,0.89999" id="svg_9" stroke-width="2" stroke="#000" fill="none"/>
  <path t="18627,18785,18786,18786,18801,18802,18802,18802,18817,18817,18826,18827,18827,18846,18846,18861,18882,18883,18895,18920,18944,18960,18969,18969,18981,18982,18993,19010,19018,19019,19029,19042,19067,19091,19091,19116,19116,19165,19177,19191,19226,19241,19263,19275,19300,19324,19341,19349,19349,19362,19362,19374,19375,19391,19448,19463,19463,19479,19485,19496,19557,19574,19594,19656,19681,19693,19718,19729,19767,19779,19804,19831,19847,19866,19877,19902,19914,19926,19941,19951,19975,20012,20036,20037,20049,20074,20091,20098,20110,20110,20124,20124,20136,20136,20136,20146,20147,20159,20159" d="m343,288.89999c-1.3045,-3.55182 -1.63412,-4.26224 -1.88535,-4.76932c-0.59427,-1.19952 -0.93469,-1.87344 -1.28931,-2.54401c-0.33633,-0.63602 -0.90524,-1.66156 -1.45068,-2.29068c-0.65472,-0.75519 -1.20001,-1.22131 -1.89066,-1.91199c-0.72684,-0.72684 -1.28262,-1.28271 -1.98401,-1.98401c-0.59995,-0.59988 -1.32404,-0.93774 -2.064,-1.52533c-0.67706,-0.53763 -0.98361,-1.42075 -1.72134,-1.88934c-0.69156,-0.43927 -1.63409,-0.091 -2.52933,-0.52133c-0.64548,-0.31027 -1.17242,-1.37643 -1.94699,-1.55948c-0.86716,-0.20493 -1.75433,-0.00452 -2.7175,-0.00452c-0.92084,0 -1.82535,0 -2.6875,0c-0.83334,0 -1.81183,0 -2.63202,0c-0.90134,0 -1.87329,-0.32809 -2.68048,0.02084c-0.71399,0.30865 -1.34,1.03067 -1.5195,1.78049c-0.21359,0.89221 -0.78445,1.31363 -1.60135,1.77335c-0.78366,0.44101 -1.51129,0.86069 -2,1.61066c-0.51196,0.78568 -1.02734,1.42151 -1.60001,2.29733c-0.42047,0.64307 -1.17969,1.15652 -1.74731,1.87451c-0.56287,0.71198 -0.88504,1.41467 -1.04819,2.34283c-0.14972,0.85187 -0.85873,1.34396 -1.00314,2.10132c-0.16833,0.88278 -0.00674,1.79871 -0.00134,2.69867c0.00534,0.8894 0.59863,1.50909 1.05267,2.2045c0.49487,0.7579 1.16403,1.10312 2.04715,1.29568c0.84427,0.18411 1.31668,0.98431 1.90018,1.49982c0.63788,0.56357 1.05533,1.203 1.5,2c0.44553,0.79852 0.34067,1.79788 0.85266,2.44733c0.48453,0.61462 0.55188,1.49722 0.93134,2.25269c0.43558,0.86719 0.77039,1.49905 1.216,2.29999c0.44455,0.79907 0.39203,1.7601 0.85266,2.45184c0.46381,0.69653 0.64206,1.47177 0.86884,2.24817c0.23947,0.81992 0.793,1.79306 1.07401,2.39999c0.36642,0.79141 0.61917,1.79999 0.69382,2.60001l0.01083,1l0.02069,0.79999" id="svg_10" stroke-width="2" stroke="#000" fill="none"/>
  <path t="25997,26191,26215,26232,26247,26247,26247,26253,26263,26277,26277,26291,26292,26301,26325,26340,26352,26364,26379,26390,26399,26399,26411,26424,26424,26441,26441,26448,26448,26448,26459,26459,26475,26475,26475,26490,26498,26498,26509,26524,26534,26535,26546,26571,26583,26596,26613,26631,26647,26647,26658,26658,26674,26674,26674,26681,26681,26693,26694,26694,26707,26707,26719,26742,26742,26759,26769,26779,26792,26807,26808,26817,26828,26842,26842,26842,26857,26857,26857,26858,26865,26866,26866,26878,26878,26878,26892,26892,26893,26914,26914" d="m319,310.89999c0,1.80002 0,2.70001 0,3.54169c0,1.00098 0,1.70898 0,2.45297c0,1.19101 0,2.10535 0,3.00534c0,0.75717 0,1.65268 0,2.51602c0,0.96317 0.24289,1.91879 -0.00449,2.77948c-0.2207,0.76788 -0.98291,1.22519 -0.99551,2.10449c-0.01291,0.89993 -0.38116,1.74084 -0.716,2.40002c-0.39835,0.78418 -0.2308,1.86346 -0.34116,2.60449c-0.15045,1.01016 -0.45529,1.59955 -0.94284,2.59549c-0.39325,0.80334 -0.70001,1.39999 -1.20001,2.39999c-0.29999,0.60001 -0.78909,1.60562 -1.19998,2.38934c-0.29233,0.55759 -1.02051,1.37872 -1.43335,2.21066c-0.37268,0.75098 -0.77548,1.3519 -1.556,1.98535c-0.60983,0.4949 -0.7641,1.38974 -1.258,2.06284c-0.51501,0.7019 -1.03818,1.37439 -1.2955,2.25183c-0.25345,0.86417 -0.63345,1.50626 -0.97183,2.27066c-0.34091,0.77014 -0.03076,1.83371 -0.12134,2.62933c-0.11505,1.01053 -0.38852,1.60535 -0.76532,2.39999c-0.47964,1.01154 -0.82962,1.61917 -1.03201,2.56668c-0.16486,0.77173 -0.1644,1.82349 -0.16666,2.69031c-0.00244,0.94034 0,1.77902 0,2.62701c0,0.86334 0,1.88 0,2.81601c0,0.89999 0,1.79999 0,2.69998c0,0.80002 0,1.70001 0,2.54169c0,1.00131 0,1.73032 0,2.56732c0,0.89099 0,1.79099 0,2.69101c0,0.59998 0,1.79999 0,2.69998c0,0.60001 0,1.79984 0,2.68933c0,0.85352 0,1.88919 0,2.57468l0,0.83466l0,1.00134l0,0.79999" id="svg_12" stroke-width="2" stroke="#000" fill="none"/>
  <path t="27593,27788,27801,27816,27826,27826,27843,27848,27848,27860,27860,27874,27874,27890,27890,27897,27909,27909,27933,27933,27934,27946,27946,27958,27975,27983,27984,27995,28007,28025,28032,28045,28057,28057,28074,28074,28081,28093,28093,28107,28131,28131,28142,28160,28167,28179,28179,28191,28191,28208,28208,28217,28217,28217,28228,28228,28241,28241,28241,28257,28257,28265,28277,28278,28278,28291,28291,28307,28307,28315,28315,28315,28327,28327,28327,28340,28340,28340,28357" d="m305,389.89999c0,1.70001 0,2.70001 0,3.52084c0,0.96317 -0.1297,1.66229 0.00449,2.72198c0.11111,0.87735 0.72574,1.49084 0.94284,2.41434c0.17273,0.73471 0.28561,1.76596 0.66333,2.50684c0.43158,0.84656 0.98666,1.42801 1.68933,2.13602c0.69736,0.70264 1.18533,1.25055 2.02151,1.79999c0.67331,0.44241 1.29385,0.67316 2.2695,1.20001c0.70532,0.38086 1.35989,1.20898 1.92984,1.72083c0.64886,0.58276 1.17657,1.27661 1.8685,1.91782c0.6084,0.56378 1.26746,1.08618 1.58533,1.91202c0.33749,0.8768 1.15192,1.19836 1.58932,1.79599c0.53647,0.73297 0.32663,1.77341 0.79318,2.59616c0.48993,0.86401 1.19223,1.22 1.59015,2.05719c0.41251,0.86786 0.47269,1.68585 1.13669,2.41464c0.5434,0.59641 1.47964,0.93567 2.11731,1.48401c0.64966,0.55865 1.64291,0.72882 2.39999,0.88535c1.01816,0.21051 1.62805,0.54288 2.56534,0.91599c0.77628,0.30902 1.5614,0.60373 2.5,0.83334c0.8255,0.20197 1.88184,0.36975 2.58401,0.60266c0.75073,0.24899 1.5802,0.70724 2.328,1.12799c0.81696,0.45966 1.75665,0.59576 2.672,0.86136c0.74564,0.21634 1.60092,0.50934 2.4975,0.57016c0.91141,0.06183 1.7135,0.00449 2.67334,0.00449c0.81448,0 1.68298,0 2.57849,0c0.89551,0 1.76401,0 2.83334,0l0.70499,0l0.97501,0l0.98666,0" id="svg_13" stroke-width="2" stroke="#000" fill="none"/>
  <path t="29409,29630,29643,29643,29666,29666,29669,29669,29682,29682,29698,29698,29703,29704,29728,29752,29752,29776,29776,29791,29791,29801,29813,29826,29826,29841,29841,29841,29850,29851,29861,29875,29892,29899,29899,29923,29942,29948,29948,29960,29974,29995,29995,29998,30010,30024,30024,30024,30035,30035,30046,30059,30059,30073,30073,30083,30083,30095,30095,30095,30107,30107,30108,30125,30125,30125,30132,30132,30144,30144,30157,30157,30174,30183,30194,30194,30208,30223,30243,30243,30259,30268,30269,30280,30292,30308,30317,30317,30328,30328,30328,30342,30342,30342,30358,30358,30358,30366,30366,30377,30378,30393,30393,30393,30409,30409,30415,30426,30426,30442,30443,30443,30460,30460,30460,30472,30472,30472,30481,30482,30482,30492,30493,30493,30502,30502,30513,30513,30526" d="m356,427.89999c1.75717,0 2.65717,0 3.40451,0c0.99548,0 1.7955,0 2.7955,0c0.79999,0 1.79999,0 2.58932,0c1.04401,0 1.836,0 2.69467,0c0.86331,0 1.89066,0 2.83731,0c0.67868,0 1.67413,0.108 2.56268,-0.08533c0.79523,-0.17303 1.60794,-0.73669 2.48001,-0.87866c0.92896,-0.15125 1.80554,0.01666 2.65683,-0.05682c0.9863,-0.08514 1.7695,-0.43259 2.37915,-0.62653c0.9852,-0.31339 1.94284,-0.3504 2.84283,-0.35266c0.95718,-0.00241 1.85846,0.04779 2.75717,0c0.80338,-0.04272 1.47391,-0.55316 2.39999,-0.97467c0.78067,-0.35535 1.43213,-0.6655 2.30002,-1.078c0.83713,-0.39792 1.30356,-1.17856 2.09998,-1.66199c0.73364,-0.44534 1.57974,-0.76538 2.36667,-1.28534c0.64606,-0.42685 1.4252,-0.75955 2.42883,-0.94733c0.74185,-0.13879 1.66733,-0.38699 2.40451,-1.05267c0.53586,-0.48386 1.32291,-1.09735 2,-1.5c0.8353,-0.49673 1.54367,-1.00281 2,-1.83331c0.35727,-0.65021 0.57028,-1.48798 1.16666,-2.5c0.43533,-0.73874 1.077,-1.2966 1.5,-2.16669c0.36945,-0.75992 0.37549,-1.6113 0.61734,-2.39999c0.24954,-0.81375 0.56998,-1.80408 0.716,-2.57916c0.18951,-1.00586 0.64462,-1.71753 1,-2.52084c0.35446,-0.80121 1.08746,-1.42844 1.564,-2.10001c0.51489,-0.72565 1.06439,-1.30969 1.63467,-1.96933c0.46838,-0.54178 0.56567,-1.60583 1.02267,-2.53067c0.32599,-0.65967 0.92819,-1.33795 1.42599,-1.95267c0.49707,-0.61383 0.31577,-1.61279 0.40982,-2.409c0.11423,-0.96689 0.38602,-1.75903 0.59018,-2.58566c0.25345,-1.02606 0.33337,-1.72684 0.35132,-2.63666c0.01971,-0.99982 0.00134,-1.81601 0.00134,-2.63199c0,-0.99869 0,-1.87335 0,-2.884c0,-0.80002 0,-1.80002 0,-2.60001c0,-0.80002 -0.0965,-1.80957 0.05716,-2.54285c0.22467,-1.07227 0.79114,-1.82083 0.91751,-2.49316c0.2179,-1.15942 0.41986,-1.75516 0.67267,-2.62115c0.27783,-0.95178 0.33063,-1.76773 0.34818,-2.59018c0.022,-1.0311 0.00449,-1.95267 0.00449,-2.63666c0,-1.00134 0,-1.83682 0,-2.71735c0,-0.8985 0,-1.78799 0,-2.64148c0,-1.03552 0,-1.9155 0,-2.7905l0,-0.86218l0,-0.90451" id="svg_14" stroke-width="2" stroke="#000" fill="none"/>
  <path t="31768,31951,31952,31967,31967,31968,31982,31982,31982,31982,31982,31982,31992,31993,31993,31993,31993,32000,32000,32001,32001,32011,32011,32011,32024,32073,32089,32110,32110,32124,32135,32158,32180,32185,32185,32197,32209,32228,32233,32233,32244,32244,32257,32257,32274,32274,32282,32282,32282,32294,32294,32294,32319,32319,32319,32333,32333,32355,32379,32404,32417,32417,32428,32441,32457,32457,32466,32467,32478,32478,32478,32490,32490,32490,32507,32507,32515,32527,32540,32575,32590,32590,32606,32625,32662,32713,32729,32750,32785,32822,32835,32847,32858,32883,32895,32895,32907,32907,32925,32926,32932,32957,32957,32974,32994,33009,33009,33031,33055,33068,33081,33111,33139,33141,33141,33142,33170,33170,33181,33181,33181,33211,33211,33212,33216,33217,33240,33252,33253,33265,33265,33276,33277,33291,33291" d="m418,354.89999c0,-1.84665 0.01025,-2.68671 -0.00134,-3.68933c-0.01035,-0.89413 -0.03821,-1.58838 -0.16531,-2.81067c-0.04834,-0.4649 -0.18884,-1.46353 -0.28,-1.98666c-0.18741,-1.07562 -0.27399,-1.62366 -0.72,-3.17999c-0.1416,-0.49405 -0.48001,-1.41507 -0.8125,-2.27084c-0.3096,-0.79688 -0.71606,-1.88956 -0.8515,-2.57715c-0.1886,-0.95749 -0.15805,-1.59091 -0.39084,-2.78485c-0.1712,-0.87805 -0.33743,-1.73721 -0.97717,-2.44583c-0.60095,-0.66568 -0.62784,-1.51193 -0.96799,-2.25467c-0.36755,-0.80258 -1.07526,-1.38492 -1.93317,-1.87866c-0.73746,-0.42444 -1.26181,-0.88263 -2,-1.34283c-0.71716,-0.44711 -0.95871,-1.41153 -1.70151,-1.86249c-0.70435,-0.42761 -1.43945,-1.08322 -1.89868,-1.67319c-0.66208,-0.85059 -0.96628,-1.61316 -1.5,-2.35883c-0.47116,-0.65829 -1.01315,-1.36221 -1.39999,-2.09467c-0.51776,-0.98032 -0.81836,-1.59183 -1.19998,-2.47467c-0.31534,-0.72955 -0.59183,-1.543 -0.90002,-2.362c-0.38953,-1.0351 -0.74908,-1.6958 -1.01465,-2.55133c-0.30215,-0.97342 -0.46887,-1.75296 -0.93268,-2.44949c-0.46063,-0.69174 -0.30283,-1.58926 -0.35715,-2.60001c-0.04221,-0.78552 -0.81042,-1.34039 -0.99103,-2.11349c-0.20374,-0.87204 -0.00449,-1.64282 -0.00449,-2.63968c0,-0.83466 0,-2.01999 0,-2.82397c0,-0.54935 0,-1.85318 0,-2.5387c0,-0.83466 0,-1.83148 0,-2.57883c0,-1.02115 0,-1.95715 0,-2.85715c0,-0.90002 0,-1.80002 0,-2.60001c0,-0.89999 0,-1.80002 0,-2.70001c0,-0.89999 0.25464,-2.06891 -0.436,-2.46399c-0.75061,-0.42938 -1.76401,-0.03601 -2.664,-0.03601c-0.89999,0 -1.50839,-0.48203 -2.18665,-0.91467c-0.74539,-0.47546 -1.71335,-0.08533 -2.69202,-0.08533c-0.77399,0 -1.69412,-0.11673 -2.53732,0.08533c-0.89813,0.21521 -1.642,0.81161 -2.48401,0.89386c-0.97394,0.09512 -1.7063,0.25037 -2.16666,1.02081c-0.42993,0.71951 -1.39642,0.68024 -2.22269,1.01068c-0.78928,0.31564 -1.3956,0.99176 -1.60931,1.79065c-0.2258,0.84406 -0.43863,1.74448 -0.85202,2.44934c-0.43832,0.74734 -0.94089,1.59631 -1.164,2.39999c-0.24503,0.8826 -0.41721,1.62268 -0.68982,2.45834c-0.29111,0.89243 -0.604,1.77795 -0.8595,2.61899c-0.28384,0.93442 -0.32288,1.73792 -0.44669,2.68268c-0.12143,0.92685 -0.44635,1.62943 -0.98932,2.42267c-0.46866,0.68466 -1.32117,1.26666 -1.97916,1.66666l-0.77802,0.60019l-0.29099,0.65698" id="svg_15" stroke-width="2" stroke="#000" fill="none"/>
  <path t="34569,34739,34739,34752,34753,34769,34769,34781,34781,34781,34793,34793,34801,34801,34811,34811,34811,34824,34825,34840,34840,34849,34860,34860,34860,34874,34874,34874,34890,34890,34890,34898,34898,34909,34909,34924,34925,34941,34958,34974,34984,35020,35020,35045,35063,35079,35107,35402,35403,35419,35419,35439,35451,35550,35647,35696,35781,35818,35819,35867,36177" d="m349,311.89999c0,1.836 0,2.60135 0,3.60001c0,0.79999 0,1.80133 0,2.63599c0,0.93069 0,1.71219 0,2.75418c0,0.867 0,1.758 0,2.67151c0,0.79999 -0.01834,1.75995 0.01068,2.55298c0.02841,0.7764 0.25684,1.82672 0.69382,2.53351c0.56818,0.91901 1.05737,1.5679 1.23834,2.49918c0.17572,0.90421 0.05716,1.79434 0.05716,2.43933c0,0.99866 0,1.83417 0,2.71466c0,0.8985 -0.00006,1.78799 0,2.64151c0.00009,1.03549 -0.13232,1.95798 0.22134,2.93582c0.25064,0.69296 0.51541,1.55591 0.83133,2.31149c0.34445,0.82388 0.53464,1.53812 1.00449,2.35269c0.39618,0.68683 0.94284,1.35715 0.94284,2.15717c0,0.89999 -0.00534,1.80002 0,2.69998c0.00534,0.90005 0.39307,1.64362 0.716,2.38535c0.38809,0.89136 0.28333,1.63068 0.284,2.70401c0.00058,0.91064 0,1.81064 0,2.71066c0,0.89999 0,1.79999 0,2.69998l0,0.80002l0,0.89999l0.03601,0.86398" id="svg_16" stroke-width="2" stroke="#000" fill="none"/>
  <path t="37355,37601,37632,37647,37647,37651,37652,37663,37663,37663,37663,37675,37676,37676,37693,37699,37723,37723,37749,37749,37772,37786,37798,37820,37820,37833,37846,37846,37863,37882,37906,37924,37932,37956,37956,38030,38191,38228,38247,38264,38388,38400,38414,38429,38429,38443,38448,38448,38459,38459,38475,38497,38497,38520,38520,38545,38545,38557,38557,38575,38575,38575,38575,38583,38583,38594,38594,38594,38608,38608,38625,38625,38632,38656,38674,38780,38781,38867,38915,38915,38940" d="m351,371.89999c1.70001,0 2.63599,0 3.48532,0c0.91919,0 1.91602,0 2.75067,0c0.93066,0 1.72116,0 2.57468,0c0.59067,0 1.78665,0 2.64767,0c0.771,0 1.86966,0 2.74298,0c0.96533,0 1.79868,0 2.77716,0c0.82019,0 1.72156,0.00598 2.62152,0c0.80005,-0.00534 1.65659,-0.44388 2.28534,-0.716c0.89218,-0.38614 1.948,-0.284 2.81015,-0.284c0.8045,0 1.7045,0 2.60449,0c0.90002,0 1.80002,0 2.70001,0c0.79999,0 1.46802,-0.57913 2.22134,-0.87833c0.70535,-0.28015 0.77866,1.07834 0.77866,1.97833c0,0.89999 -0.21524,1.83911 -1.10001,1.89999c-0.89786,0.0618 -1.68393,0.11456 -2.42084,0.5c-0.78467,0.41043 -1.702,0.39008 -2.59381,0.784c-0.74005,0.32687 -1.53915,0.68896 -2.37067,1.00134c-0.74417,0.27957 -1.70685,0.83066 -2.30402,1.104c-1.03156,0.4722 -1.85181,0.58847 -2.69733,0.896c-0.77692,0.28256 -1.67371,0.73199 -2.466,1.01016c-0.81589,0.28647 -1.35229,0.49014 -2.59467,0.64734c-0.67422,0.0853 -1.87399,0.05716 -2.67801,0.05716c-0.54932,0 -1.853,0 -2.52798,0c-1.08002,0 -1.836,0 -2.74667,0c-0.89999,0 -1.89313,0.20209 -2.69867,-0.28534c-0.62433,-0.37778 -0.854,-1.35748 -1.63467,-1.88132l-0.16531,-0.72l-0.01202,-0.93866" id="svg_17" stroke-width="2" stroke="#000" fill="none"/>
  <path t="40084,40205,40219,40219,40235,40235,40236,40252,40252,40256,40256,40278,40278,40292,40309,40315,40326,40326,40341,40342,40351,40351,40363,40363,40376,40376,40392,40392,40392,40401,40412,40438,40462,40462,40476,40492,40499,40510,40510,40524,40540,40559,40559,40584,40608,40609,40625,40645,40670,40683,40684,40694,40707,40723,40724,40732,40732,40743,40743,40757,40773,40773,40781,40781,40805,40818,40818,40842,40857,40857,40868,40868,40868,40879,40879,40879,40879,40891,40891,40907,40907,40917,40917,40940,40940,40958,40966,40977,40991,40991,41008,41014,41015,41026,41026,41027,41027,41041,41041,41041,41041,41041,41058,41058,41058,41064,41064,41064,41076,41161,41200,41238,41250,41273,41286,41286,41302,41320,41323,41349,41349" d="m378,334.89999c-0.64667,-1.60001 -1.31223,-2.1167 -2.02084,-2.5c-0.96704,-0.52307 -1.57907,-0.8002 -2.37915,-1.19998c-0.99857,-0.49896 -1.55057,-0.85986 -2.57867,-1.17868c-0.75772,-0.23495 -1.66025,-0.50882 -2.36865,-0.76868c-0.99973,-0.3667 -1.85269,-0.35266 -2.75269,-0.35266c-0.89999,0 -1.65717,0 -2.55716,0c-0.94415,0 -1.94284,0 -2.74283,0c-1,0 -1.80002,0 -2.80002,0c-0.79999,0 -1.79999,0 -2.58932,0c-0.72534,0 -1.68982,-0.00232 -2.61066,0c-0.89999,0.00226 -1.91931,0.18799 -2.31467,0.80133c-0.5202,0.80701 -0.97025,1.6218 -1.22818,2.50317c-0.24268,0.82928 0.13022,1.78049 -0.40982,2.58566c-0.46048,0.68658 -0.64734,1.43118 -0.64734,2.28452c0,0.94 0,1.82532 0,2.62534c0,0.89999 0,1.79999 0,2.72083c0,0.96317 0,1.65384 0,2.72198c0,0.85718 0,1.75717 0,2.51434c0,0.89999 0,1.64734 0,2.83835c0,0.74731 0,1.65182 0,2.57117c0,0.83331 -0.18155,1.85181 0.08533,2.63199c0.26721,0.7811 1.03311,1.51385 1.71466,1.91599c0.76813,0.45319 1.67422,0.60428 2.44669,0.86002c0.90723,0.30035 1.70966,0.38757 2.564,0.41467c1.18878,0.03769 2.08542,0.00085 2.66849,0.03149c0.83685,0.04398 1.83142,0.27576 2.71017,0.55383c1.00601,0.31833 1.78967,0.41492 2.78934,0.42532c0.77396,0.00806 1.67401,0 2.53732,0c0.96317,0 1.92853,0.09546 2.68402,-0.284c0.86719,-0.43558 1.49255,-0.81335 1.90982,-1.47766c0.57468,-0.91492 1.10883,-1.45169 1.89017,-2.23834c0.40131,-0.40402 1.04166,-1.04166 1.51434,-1.51431c0.819,-0.819 1.45099,-1.45502 2.13632,-2.12567c0.34799,-0.34055 1.0206,-1.02463 2.01599,-1.86002c0.54886,-0.46063 1.34485,-0.87366 2.16669,-1.66666c0.45486,-0.4389 0.84277,-1.48914 1.66666,-1.79166c0.8363,-0.30707 1.48956,-0.56235 1.5,-1.54169c0.00958,-0.89993 0.15491,-1.86145 -0.2215,-2.60001c-0.34976,-0.68625 -1.1785,-1.28931 -1.97852,-1.81467l-0.89999,-0.08533l-0.89999,0l-0.79999,-0.08533" id="svg_18" stroke-width="2" stroke="#000" fill="none"/>
  <path t="43461,43668,43689,43697,43697,43706,43706,43706,43706,43716,43716,43717,43717,43717,43727,43728,43728,43728,43740,43741,43741,43741,43756,43756,43766,43766,43766,43777,43777,43777,43789,43790,43790,43807,43807,43807,43807,43813,43813,43814,43814,43814,43825,43826,43826,43826,43826,43840,43840,43840,43840,43850,43851,43851,43851,43863,43863,43875,43876,43876,43889,43901,43901,43911,43911,43912,43924,43924,43939,43939,43949,43950,43950,43950,43961,43961,43961,43973,43973,43973,43989,43989,43989,43998,43998,44010,44022,44022,44039,44039,44060,44060,44073,44073,44089,44089,44096,44096,44096,44108,44108,44122,44123,44123,44133,44133,44133,44133,44134,44145,44145,44146,44157,44157,44173,44173,44183,44183,44183,44194" d="m339,57.9c0,1.8 0,2.636 0,3.488c0,0.79467 0,1.84533 0,2.82633c0,0.72733 0,1.49467 0,2.68567c0,0.8 0,1.6 0,2.4c0,0.8 0,1.99983 0,2.7955c0,0.78366 0,1.54733 0,2.63783c0,1.005 -0.00058,1.625 0,2.48c0.00067,1.00267 -0.0083,1.91922 0.16666,2.85333c0.14868,0.79391 0.45456,1.5977 0.66669,2.66667c0.14059,0.70853 0.1644,1.61932 0.16666,2.58817c0.00189,0.8145 -0.0022,1.683 0,2.5785c0.00226,0.909 0.02029,1.87329 0.08533,2.57066c0.10959,1.17509 0.26767,2.04362 0.34,2.50134c0.15002,0.94923 0.30786,1.9288 0.40802,2.928c0.09979,0.99576 0.11285,1.49106 0.16666,2.45834c0.05157,0.92739 0.1488,2.21129 0.284,2.971c0.12491,0.70178 0.34103,1.33974 0.54935,2.57066c0.15063,0.89007 0.11728,1.48561 0.25067,2.31467c0.19986,1.2422 0.51669,1.87955 1.01599,2.88517c0.29416,0.59243 0.7392,1.28923 1.28934,2.17483c0.47913,0.77126 0.54059,1.66071 0.77731,2.62534c0.20038,0.81655 0.56561,1.38108 0.74802,2.4c0.14157,0.7909 0.04391,1.80227 0.10617,2.62083c0.08759,1.15174 0.33609,1.93523 0.47916,2.5c0.22266,0.87885 0.42877,2.07817 0.46399,2.67916c0.05267,0.89901 0.03601,2.09984 0.03601,2.6955c0,0.8685 -0.02884,1.93861 0.01068,2.8685c0.02689,0.63264 0.28079,1.63187 0.564,2.39999c0.34927,0.94731 0.42532,1.93617 0.42532,2.72134c0,0.95067 0,1.71599 0,2.71466c0,0.8 0,1.8 0,2.60001c0,1 0,1.79999 0,2.79999c0,0.8 0,1.60001 0,2.60451c0,0.6315 0,1.81717 0,2.64217c0,0.60001 0,1.92 0,2.63733c0,0.74133 0,1.49068 0,2.23201c0,1.39732 0,2.03732 0,2.92233c0,1.03999 0,1.92 0,2.94049c0,0.68251 0.00134,1.78917 0.02084,2.52116l0.06448,0.73201l0.34,1.10666" id="svg_19" stroke-width="2" stroke="#000" fill="none"/>
  <path t="44785,44957,44957,44958,44958,44958,44968,44969,44969,44969,44969,44983,44983,44983,44983,44997,44998,44998,45011,45011,45011,45011,45011,45011,45017,45017,45017,45017,45017,45017,45018,45018,45029,45029,45029,45029,45029,45030,45030,45030,45030,45042,45042,45042,45042,45042,45042,45042,45042,45058,45058,45058,45058,45058,45067,45067,45067,45067,45079,45079,45079,45079,45091,45091,45091,45107,45108,45108,45108,45108,45116,45117,45117,45117,45117,45117,45127,45127,45128,45128,45128,45128,45140,45140,45140,45140,45156,45156,45156,45165,45165,45165,45177,45177,45177,45189,45190,45206,45206,45215,45215,45215,45226,45226,45239,45239,45256,45256,45256,45256,45263,45263,45263,45263,45274,45275,45275,45290,45290,45290,45299,45300,45300,45312,45312,45323,45323,45339,45349,45360,45361,45373,45373,45389,45389,45389,45390,45398,45398,45399,45399,45410,45410,45410,45411,45411,45423,45423,45423,45423,45440,45440,45441,45447,45447,45447,45447,45459,45459,45459,45473,45473,45489,45490,45490,45497" d="m349,165.89999c0.00015,6.15718 -0.00589,7.09044 0.02084,7.97917c0.02615,0.86937 0.03812,1.30644 0.2005,2.642c0.11301,0.92941 0.27957,1.85785 0.35333,2.3175c0.1431,0.89171 0.31888,2.11716 0.36816,2.847c0.06696,0.99182 0.05649,1.61166 0.05716,2.817c0.00052,0.939 0,1.61166 0,2.73067c0,0.84132 0,1.77066 0,2.27083c0,1.07634 0,1.6545 0,2.89583c0,0.66451 0,2.0715 0,2.80801c0,0.75449 0,1.52399 0,2.3055c0,0.7905 0,2.38649 0,3.18633c0,0.79884 0,1.59567 0,2.38951c0,0.78983 0,1.57466 0,2.3535c0,0.77182 -0.00052,2.2905 0.00015,3.03516c0.00067,0.73267 0.00082,1.45139 0.01053,2.15401c0.01862,1.34944 0.03577,1.99258 0.07465,2.61067c0.10666,1.69493 0.18878,2.20285 0.34,3.14932c0.1402,0.87752 0.32294,1.70009 0.45319,2.90784c0.0856,0.79367 0.10727,1.57922 0.117,2.343c0.01392,1.09042 0.00449,1.77184 0.00449,2.73633c0,0.91951 -0.013,1.82124 0.01068,2.73151c0.0163,0.62564 0.14862,1.95723 0.27332,2.67732c0.13345,0.77074 0.30676,1.59227 0.43201,2.48401c0.1347,0.95906 0.20392,1.99709 0.22684,2.53783c0.04709,1.11061 0.04883,1.67549 0.05267,2.242c0.01144,1.68147 0.00449,2.22633 0.00449,3.282c0,1.00366 0,1.48351 0,2.39417c0,1.229 0,1.95767 0,2.95067c0,0.61867 -0.01611,1.82188 0.02084,2.72133c0.02466,0.6006 0.18768,1.80287 0.40448,2.68935c0.14105,0.57675 0.45374,1.63872 0.53867,2.57466c0.0755,0.83197 0.03601,1.836 0.03601,2.63599c0,1.00134 0,1.62085 0,2.76669c0,0.78149 -0.02637,1.5723 0.00015,2.69049c0.01797,0.75815 0.31879,1.61703 0.57452,2.3895c0.30035,0.90726 0.38492,1.71426 0.41464,2.60001c0.02145,0.63968 -0.00256,1.67487 0.02136,2.77866c0.01624,0.74957 0.03287,1.49686 0.21066,2.55301c0.16537,0.9823 0.4061,1.56369 0.612,2.655c0.17621,0.9339 0.1644,1.61932 0.16666,2.58801c0.00186,0.80399 0,1.62598 0,2.65698c0,0.88 0,1.90018 0,2.72034c0,0.90134 0,1.83734 0,2.68668c0,0.91916 0,1.91599 0,2.53549c0,1.14584 0,1.94083 0,2.82584c0,0.63998 0,1.67484 0,2.41049c0,0.76367 0,1.54733 0,2.74283c0,0.80002 0,1.60001 0,2.39999c0,0.80002 0,2.39868 0,3.18936c0,0.77466 0,1.52533 0,2.58914c0,0.66434 0,1.61084 0,2.8215c0,0.60001 0,1.5 0,2.39999c0,0.89984 0,1.78934 0,2.64285c0,1.03568 0,1.93634 0,2.95715l0,0.78934l0,0.72534l0,0.96451" id="svg_20" stroke-width="2" stroke="#000" fill="none"/>
  <path t="46064,46172,46173,46185,46185,46185,46197,46198,46198,46208,46208,46208,46223,46223,46233,46233,46245,46245,46246,46258,46258,46274,46274,46283,46283,46283,46295,46295,46295,46307,46307,46324,46324,46333,46333,46333,46344,46344,46359,46376,46382,46382,46406,46406,46423" d="m355,318.89999c0.01068,1.84668 0.0441,2.69583 0.28534,3.68402c0.20142,0.82504 0.40652,1.36823 0.81448,2.39465c0.36801,0.9259 0.66309,1.59683 0.81616,2.60535c0.12311,0.811 0.10107,1.6478 0.36801,2.62933c0.23325,0.85773 0.6694,1.80057 0.71152,2.49649c0.05795,0.95776 0.00449,1.711 0.00449,2.50751c0,1.22549 0,1.87198 0,2.88266c0,0.79999 0,1.79999 0,2.61066c0,0.87466 0,1.87335 0,2.68933c0,0.81601 0,1.81467 0,2.68933c0,1.01068 0,1.81067 0,2.81067c0,0.80002 0,1.60001 0,2.59552c0,0.74731 0,1.76849 0,2.70898c0,0.86218 0.02084,1.6955 0.22134,2.67401l0.35333,0.61084l0.40448,0.91064" id="svg_21" stroke-width="2" stroke="#000" fill="none"/>
  <path t="47932,48100,48100,48114,48114,48125,48125,48141,48141,48150,48150,48150,48162,48162,48162,48162,48174,48175,48175,48175,48175,48190,48190,48190,48190,48190,48198,48199,48199,48199,48209,48210,48210,48222,48222,48240,48241,48241,48248,48248,48248,48259,48259,48272,48272,48272,48290,48290,48290,48297,48297,48297,48308,48308,48308,48322,48322,48339,48339,48345,48345,48357,48358,48358,48373,48373,48383,48395,48395,48408,48426,48426,48446,48456,48472,48472,48482,48482,48493,48493,48508,48509,48509,48522,48522,48530,48530,48542,48542,48555,48568,48579,48592,48606,48606,48617,48617,48628,48628,48628,48641,48641,48657,48657,48657,48666,48666,48667,48667,48677,48677,48677,48691,48691,48707,48707,48707,48714,48714,48726,48726,48740" d="m347,57.9c0,2.8 0,3.4 0,4.6c0,0.8 0,1.8 0,2.6c0,1 0,1.8 0,2.8c0,0.609 0,1.51434 0,2.643c0,0.67133 0,1.39867 0,2.166c0,1.191 0,1.99233 0,2.80167c0,0.82533 0,1.67467 0,3.01051c0,0.46149 0,1.39349 0,2.3175c0,0.892 0,2.11833 0,2.847c0,0.67267 0,1.61166 0,2.813c0,0.59067 0,1.44417 0,2.47984c0,0.90067 0,1.9215 0,2.73217c0,0.87466 0,1.87333 0,2.68933c0,0.816 0,1.81467 0,2.68933c0,0.81067 0,1.62134 0,2.496c0,1 0,1.8355 0,2.716c0,0.89867 0,1.79866 0,2.69866c0,0.9 0,1.791 0,2.628c0,0.93867 0,1.88667 0,2.75734c0,0.72533 -0.04736,1.71731 0.02084,2.51466c0.08612,1.0069 0.4548,1.78347 0.69516,2.6c0.28833,0.97946 0.28174,1.74283 0.284,2.77467c0.00204,0.94667 0,1.8 0,2.74001c0,0.88533 0,1.68533 0,2.58533c0,0.82084 -0.00214,1.784 0,2.64734c0.00226,0.9045 0.07114,1.62575 0.35266,2.6625c0.2114,0.77846 0.51321,1.81924 0.59018,2.533c0.09158,0.84937 0.05716,1.85716 0.05716,2.65717c0,0.99983 0,1.77916 0,2.77849c0,0.82018 0,1.72151 0,2.62151c0,0.89999 0,1.8 0,2.709c0,0.66167 0,1.70084 0,2.47633c0,1.048 0,1.97867 0,2.61017c0,1.00583 0,1.8405 0,3.026c0,0.53566 0,1.38916 0,2.57849c0,0.90001 0,1.5 0,2.40001c0,1.19867 0,1.78934 0,2.64284c0,1.03566 -0.00681,1.93634 0,2.95715c0.00534,0.80006 0.03903,1.61354 0.35266,2.60001c0.19382,0.6097 0.52585,1.59984 0.6265,2.37917l0.02084,0.99933" id="svg_22" stroke-width="2" stroke="#000" fill="none"/>
  <path t="49344,49489,49502,49515,49516,49533,49533,49544,49545,49545,49550,49550,49550,49550,49562,49562,49562,49562,49562,49562,49574,49574,49574,49574,49574,49574,49589,49589,49589,49589,49589,49599,49600,49611,49611,49611,49611,49623,49623,49623,49640,49640,49640,49648,49648,49648,49648,49660,49660,49660,49660,49660,49660,49673,49673,49673,49673,49673,49690,49690,49690,49690,49690,49697,49697,49697,49709,49709,49709,49733,49733,49746,49757,49773,49783,49795,49795,49795,49807,49807,49808,49824,49824,49824,49832,49832,49833,49833,49844,49844,49844,49845,49857,49857,49857,49874,49882,49882,49893,49893,49906,49906,49925,49931,49942,49956,49957,49957,49973,49973,49973,49973,49979,49979,49979,49979,49991,49991,49992,50006,50006,50006,50016,50016,50029,50029,50040,50040,50056,50056,50057,50065,50065,50077,50089,50089,50090,50106,50107,50107,50107,50114,50115,50115,50126,50126,50126,50126,50139,50139,50139,50176,50176" d="m350,168.89999c0,1.8 -0.0267,2.63646 0.00134,3.48401c0.02859,0.86465 0.44583,1.72734 0.71466,2.48534c0.35889,1.01198 0.27231,1.593 0.28265,2.51866c0.01157,1.0336 0.00134,1.77367 0.00134,2.55367c0,0.82001 0,2.125 0,3.045c0,0.47501 0,1.455 0,2.47501c0,0.52499 0,2.1595 0,2.72099c0,0.56551 0,1.6965 0,2.25601c0,1.092 0,2.12799 0,3.088c0,0.87999 0,1.67999 0,2.39999c0,1.20399 0,1.9525 0,3.14c0,0.7905 0,1.644 0,2.23466c0,1.19867 0,2.09866 0,2.69867c0,1.2 0,2.10001 0,2.7c0,1.2 -0.00394,2.11378 0.02084,2.7625c0.0271,0.70943 0.14029,1.9382 0.26315,2.89084c0.0657,0.50955 0.2178,1.56726 0.29068,2.10667c0.14493,1.07286 0.2731,2.10555 0.34,3.07066c0.0629,0.90717 0.077,1.78397 0.08084,2.2175c0.01166,1.31845 0.00449,2.23317 0.00449,3.15584c0,0.45433 0,1.32899 0,2.83167c0,0.59734 0,1.36833 0,2.58549c0,0.7935 0,1.569 0,2.60817c0,0.76801 -0.18372,1.69716 0.03601,2.57066c0.21704,0.86282 0.82758,1.61649 1.13065,2.56667c0.2211,0.69313 0.59821,1.51146 0.74933,2.51868c0.1246,0.83041 0.08777,1.42709 0.30551,2.61465c0.11093,0.60507 0.38434,1.50157 0.7785,2.7c0.1976,0.6008 0.50006,1.49998 0.70001,2.10001c0.3999,1.19997 0.6153,1.79433 0.86398,2.7c0.16379,0.59656 0.37198,1.79601 0.41516,2.65834c0.03857,0.77028 0.02084,1.88033 0.02084,2.70833c0,0.83333 0,1.812 0,2.58601c0,0.89999 0,1.76334 0,2.7265c0,0.92081 0,1.82983 0,2.85416c0,0.681 0,1.48801 0,2.66666c0,0.60135 0,1.52084 0,2.15717c0,1.36401 0,2.091 0,2.82202c0,0.711 0,1.978 0,2.75949c0,0.944 -0.02106,1.9462 0.02084,2.76132c0.04202,0.81747 0.21655,1.83295 0.5,2.45834c0.41183,0.90863 1.09711,1.49127 1.39514,2.52832c0.21207,0.73798 0.23502,1.6839 0.43668,2.46152c0.20612,0.7948 0.55328,1.70901 0.63666,2.63049c0.08679,0.95917 0.01068,1.75467 0.01068,2.69333c0,0.83701 0,1.728 0,2.62799c0,0.90002 0,1.5 0,2.70135c0,0.91949 0,1.55582 0,2.56534c0,1.08148 0,1.8125 0,2.5235c0,1.26682 0,2.03781 0,2.70084l0.00134,1.00632l0.05582,0.88834" id="svg_23" stroke-width="2" stroke="#000" fill="none"/>
  <path t="50743,50889,50890,50902,50902,50915,50932,50933,50949,50949,50962,50962,50974,50990,50991,50991,50991,51000,51000,51000,51000,51000,51000,51010,51010,51010,51010,51010,51023,51023,51023,51023,51040,51040,51048,51060,51060,51073,51073,51096,51109,51109,51122,51122,51139,51139,51146,51146,51159,51159,51159,51173,51173,51183,51195,51220,51220,51293,51293,51306,51323,51331,51343,51356" d="m361,303.89999c0.42532,1.836 0.79312,2.58685 0.94284,3.59552c0.10999,0.74106 0.05716,1.77914 0.05716,2.72583c0,0.67865 0,1.65732 0,2.56265c0,0.94135 0,1.63202 0,2.65768c0,0.95831 0,1.83432 0,2.54166c0,0.78732 0,2.08334 0,2.53818c0,0.93564 0,1.89932 0,2.38916c0,0.99066 0,2.48898 0,2.98666c0,0.98132 0,1.93066 0,2.38834c0,1.28101 0,2.39551 0,3.05182c0,0.87451 0,1.87585 0,2.71585c0,0.96133 -0.10501,1.86316 0.08533,2.73199c0.17389,0.79373 0.73657,1.60696 0.87866,2.48932c0.15063,0.93533 -0.05795,1.84158 0.25751,2.604c0.34882,0.84305 1.03586,1.47998 1.3425,2.23199c0.392,0.96127 0.42557,1.78918 0.436,2.78934c0.00833,0.79999 0,1.60001 0,2.59552c0,0.74731 0,1.76849 0,2.70898c0,0.86218 0,1.6955 0,2.67401c0,0.82016 0,1.7215 0.03601,2.62149l0.38931,0.79999l0.49066,0.79868l0.36801,0.71735" id="svg_24" stroke-width="2" stroke="#000" fill="none"/>
  <path t="52758,52966,52978,52978,52997,52997,52998,53003,53004,53004,53004,53019,53019,53019,53019,53019,53028,53029,53029,53029,53042,53042,53042,53050,53050,53050,53062,53062,53062,53074,53075,53075,53089,53089,53089,53089,53099,53099,53099,53099,53099,53111,53112,53112,53124,53124,53124,53124,53139,53139,53149,53149,53160,53160,53160,53172,53173,53189,53197,53221,53221,53239,53239,53258,53273,53273,53273,53289,53289,53289,53289,53296,53296,53296,53307,53307,53322,53323,53345,53345,53356,53357,53374,53374,53382,53393,53393,53407,53407,53422,53423,53423,53430,53430,53430,53442,53442,53442,53442,53457,53457,53472,53472,53472,53479,53479,53479,53491,53492,53505,53506,53517,53517,53518,53518,53528,53528,53529,53529,53540,53541,53541,53541,53556,53556,53556,53566,53566,53578" d="m351,59.9c0,1.75717 0,2.65717 0,3.4045c0,0.9995 0,1.9035 0,2.4515c0,1.39867 0,1.811 0,2.68566c0,0.91467 0,2.29167 0,3.17167c0,0.425 0,1.245 0,2.4c0,1.06516 0,1.7295 0,2.67599c0,0.60934 0,1.81067 0,2.71067c0,0.6 -0.01877,1.80026 0.01068,2.68933c0.02829,0.85429 0.19977,1.89262 0.41464,2.58533c0.21136,0.6814 0.5043,1.91089 0.53867,2.472c0.05594,0.91383 0.03601,1.92 0.03601,2.63866c0,1.13551 -0.00101,1.91917 0,3.11467c0.00067,0.79867 -0.00208,1.58985 0.03601,2.364c0.03696,0.75138 0.17365,1.81692 0.31665,2.47884c0.20529,0.95026 0.49927,2.15494 0.56201,2.75583c0.09171,0.87808 0.08466,1.716 0.08533,2.716c0.00058,0.87466 0,1.88533 0,2.68533c0,1 0,1.8 0,2.6c0,0.9955 -0.00244,1.74284 0,2.764c0.00226,0.94051 0.16324,1.80402 0.42532,2.46133c0.40277,1.01012 0.56934,1.76395 0.57468,2.71633c0.00562,1.00132 0,1.73034 0,2.56734c0,0.891 0,1.791 0,2.691c0,0.6 -0.02481,1.79832 0.02084,2.65833c0.04102,0.7726 0.4205,1.70057 0.69516,2.50967c0.34134,1.00549 0.27866,1.78129 0.284,2.69866c0.00552,0.94798 0,1.81866 0,2.54401c0,0.98917 0,1.95332 0,2.90399c0,0.88533 0,1.6425 0,2.547c0,0.8 0,1.75984 0,2.57434c0,0.8685 0,2.064 0,2.664c0,0.89999 0,2.09999 0,2.69867c0,0.88049 0,1.71599 0,2.71733c0,0.90933 0,1.85066 0,2.63666c0,0.82201 0,1.88068 0,2.81134c0,0.6315 0,1.636 0,2.436c0,1.00017 0,1.82083 0,2.96666c0,0.795 0,1.375 0,2.32001c0,1.03484 0,1.77049 0,2.53416c0,0.78366 0,1.97916 0,2.7765c0,1.161 0,1.88832 0,2.86932c0,0.819 0,1.72433 0,2.73201l0,0.76532l0,0.95067" id="svg_25" stroke-width="2" stroke="#000" fill="none"/>
  <path t="54284,54415,54427,54427,54451,54451,54455,54467,54478,54478,54491,54491,54499,54500,54500,54500,54511,54511,54511,54511,54523,54524,54524,54540,54540,54549,54550,54560,54560,54574,54574,54590,54597,54609,54623,54623,54639,54640,54647,54647,54659,54659,54673,54673,54690,54690,54690,54695,54695,54695,54707,54707,54724,54724,54739,54739,54745,54757,54774,54782,54794,54794,54806,54807,54823,54831,54831,54832,54844,54844,54844,54844,54856,54857,54873,54873,54873,54879,54879,54892,54892,54916,54917,54928,54929,54941,54941,54956,54957,54965,54977,54978,54978,54990,54990,54990,54991,55007,55007,55007,55016,55016,55016,55026,55026,55027,55040,55040,55056" d="m355,175.89999c0,1.82535 -0.09286,2.84308 0.03601,3.62534c0.14529,0.88188 0.72629,1.69196 0.90683,2.61751c0.16449,0.84317 0.05716,1.75716 0.05716,2.51433c0,0.909 0,1.76167 0,2.88567c0,0.66701 0,1.37801 0,2.10901c0,1.42667 0,2.09099 0,3.03749c0,0.60934 0,1.80934 0,2.68983c0,0.83549 0,1.83549 0,2.71017c0,1.0105 0,1.78983 0,2.644c0,0.91933 0,1.81934 0,2.68266c0,0.84801 -0.10693,1.79053 0.00134,2.68401c0.11148,0.91992 0.75906,1.52762 0.9415,2.45717c0.14429,0.73515 0.05716,1.7415 0.05716,2.50682c0,1.08784 0,1.80534 0,2.84584c0,0.7755 0,1.8235 0,2.53751c0,0.90532 0,1.87383 0,2.66733c0,0.7755 0,1.81599 0,2.668c0,0.95334 0,1.71866 0,2.71283c0,0.91917 0,1.76851 0,2.7045c0,0.90001 0,1.8 0,2.7c0,0.75717 -0.00894,1.65273 0,2.51601c0.01044,1.005 0.22403,2.02626 0.42532,2.756c0.15137,0.54878 0.42462,1.72604 0.522,2.6235c0.09406,0.86691 0.07428,1.43443 0.40533,2.65184c0.18719,0.68842 0.51221,1.61555 0.59018,2.40083c0.07825,0.78799 0.05716,1.909 0.05716,2.79999c0,0.90901 0,1.65634 0,2.65184c0,0.8 0,1.79984 0,2.57916c0,0.9995 0,1.7735 0,2.67351c0,0.86333 0,1.86816 0,2.89032c0,0.729 0,1.56601 0,2.457c0,0.89999 -0.00034,1.80002 0,2.39999c0.00067,1.20001 -0.0018,2.10181 0.05716,2.70001c0.11874,1.20517 0.37305,2.08807 0.51752,2.664c0.2677,1.06711 0.39999,2 0.50934,2.83466l0.19998,0.80002l0.29068,0.76532l0.34,0.952" id="svg_26" stroke-width="2" stroke="#000" fill="none"/>
  <path t="56466,56613,56648,56665,56685,56710,56710,56722,56722,56740,56747,56759,56759,56774,56775,56790,56790,56796,56796,56844,56857,56857,56872,56882,56893,56906,56906,56923,56942,56967,56991,56991,57005,57022,57029,57053,57066,57078,57102,57116,57127,57139,57156,57164,57165,57176,57189,57205,57225,57238,57238,57262,57286,57286,57300,57300,57300,57324,57339,57339,57348,57360,57373,57397,57397,57422,57447,57470,57495,57619,57619,57705,57754,57774,57802,57826,57865,57988,58296,58492,58552,58552,58577,58596,58607,58637,58662,58674,58712,58724,58738,58760,58773,58789,58790,58798,58809,58809,58823,58823,58839,58839,58839,58847,58858,58873,58873,58890,58895,58907,58907,58922,58933,58933,58944,58945,58945,58956,58956,58956,58972,58972,58972" d="m344,278.89999c-0.61066,-1.60001 -1.39639,-2.23294 -1.83334,-3c-0.44424,-0.77985 -1.23343,-1.09341 -1.76666,-1.64667c-0.58267,-0.60452 -0.90591,-1.58624 -1.59866,-2.18399c-0.64352,-0.55527 -0.92834,-1.35364 -1.23734,-1.99466c-0.50153,-1.0405 -1.00241,-1.52167 -1.564,-2.34134c-0.43042,-0.6282 -1.12561,-1.33563 -1.71466,-1.91602c-0.62415,-0.61496 -1.32358,-0.74377 -2.08533,-1.00266c-0.88791,-0.30176 -1.64133,-0.79852 -2.40002,-1.19867c-0.85837,-0.4527 -1.59369,-0.81076 -2.29999,-1.216c-0.79312,-0.45505 -1.7569,-0.33722 -2.60001,-0.72131c-0.78,-0.35535 -1.60458,-0.37549 -2.46399,-0.81467c-0.69693,-0.35614 -1.23734,-0.96335 -2.13602,-0.96402c-0.89999,-0.00067 -1.79999,0 -2.69998,0c-0.89999,0 -1.80002,0 -2.70001,0c-0.89999,0 -1.69998,0 -2.60001,0c-0.89999,0 -1.83475,-0.05295 -2.59998,0.35266c-0.84595,0.44839 -1.5864,0.62073 -2.20001,1.18903c-0.7218,0.66852 -1.06351,1.45264 -1.33334,2.45831c-0.20779,0.77451 -0.09845,1.59937 -0.6875,2.47919c-0.55048,0.8222 -1.32431,1.28738 -1.46848,2.12082c-0.15341,0.88687 0.1337,1.87625 -0.36786,2.70001c-0.34781,0.57123 -1.08597,1.22229 -1.59015,1.99548c-0.457,0.70087 -1.52127,0.94989 -1.88602,1.7045c-0.3555,0.7355 -0.16666,1.70001 -0.16666,2.60001c0,0.89999 -0.09546,1.84454 0.284,2.60001c0.43558,0.86719 1.16208,1.3476 1.63068,2.08533c0.43921,0.69144 0.31561,1.67499 0.73267,2.41467c0.42004,0.74503 0.8707,1.45889 1.43668,2.01599c0.67111,0.66061 1.30768,1.18445 1.89066,1.70935c0.58917,0.53049 1.28424,0.99585 2.12515,1.45331c0.74738,0.40659 0.71689,1.2756 1.06683,2.12134c0.32468,0.78464 0.82291,1.52066 0.83334,2.48535c0.00784,0.72528 -0.04736,1.71732 0.02084,2.51465c0.08612,1.0069 0.43918,1.77637 0.69516,2.51468c0.32938,0.94998 0.78452,1.70413 1.11734,2.48532c0.32019,0.75156 0.16666,1.70001 0.16666,2.63602c0,0.84799 -0.00009,1.71133 0,2.73865c0.00009,0.94684 -0.05743,1.66107 0.16666,2.62534c0.19263,0.82886 0.53726,1.44534 0.71201,2.42136c0.1427,0.79703 0.17401,1.62598 0.34268,2.65732l0.27866,0.92133l0.216,0.68402" id="svg_27" stroke-width="2" stroke="#000" fill="none"/>
  <path t="59832,59990,60002,60016,60016,60032,60033,60045,60056,60056,60056,60063,60063,60075,60075,60099,60123,60124,60137,60148,60160,60172,60198,60209,60236,60248,60248,60271,60297,60312,60332,60332,60336,60336,60336,60344,60357,60373,60384,60385,60406,60430,60455,60471,60471,60481,60491,60492,60505,60505,60528,60534,60534,60550,60550,60550,60554,60554,60566,60566,60590,60615,60615,60627,60627,60640,60663" d="m315,319.89999c-0.57468,1.60001 -0.9068,2.43185 -1.2215,3.32135c-0.24741,0.69925 -0.83929,1.47025 -1.3425,2.26801c-0.4339,0.68787 -0.42038,1.74426 -0.44049,2.41599c-0.02966,0.99026 -0.12613,1.90863 -0.60617,2.57333c-0.58423,0.80902 -1.21042,1.28473 -1.35333,2.24667c-0.14822,0.99768 0.29956,1.95282 -0.07202,2.73865c-0.35034,0.74091 -0.67728,1.40295 -1.18533,2.19318c-0.50748,0.78934 -0.77866,1.44284 -0.77866,2.34283c0,0.89999 -0.1243,1.67743 -0.57468,2.5c-0.42728,0.78036 -0.42532,1.7045 -0.42532,2.56668c0,0.85416 0,1.83331 0,2.62265c0,0.72534 0.16727,1.81943 -0.02084,2.71066c-0.17886,0.84744 -0.91699,1.59238 -0.97781,2.30002c-0.07706,0.8967 -0.00134,1.79999 -0.00134,2.72083c0,0.96317 0.1297,1.66229 -0.00449,2.72198c-0.11111,0.87735 -0.75873,1.4841 -0.93835,2.40985c-0.16479,0.8493 -0.03815,1.72217 -0.05731,2.66882c-0.01801,0.88971 -0.21497,1.88068 -0.42517,2.47852c-0.28235,0.80298 -0.54205,1.79874 -0.57019,2.59998c-0.03506,0.99808 -0.00449,1.76401 -0.00449,2.84735c0,0.91934 0,1.75266 0,2.586l0,0.86215l0,0.90451l0,0.89999" id="svg_28" stroke-width="2" stroke="#000" fill="none"/>
  <path t="63393,63551,63565,63566,63566,63580,63591,63591,63608,63612,63636,63675,63724,63724,63745,63750,63762,63784,63820,63840,63846,63858,63882,63899,63907,63908,63931,63956,63981,63992,63992,64054,64079,64090,64116,64139,64164,64189,64189,64205,64214,64225,64240,64241,64262,64266,64266,64286,64311,64311,64324,64339,64349,64360,64360,64372,64389,64398,64398,64410,64410,64421,64422,64422,64439,64439,64439,64446,64447,64459,64483,64483,64498,64498,64520,64537,64633,64719,64745,64745,64755,64755,64766,64778,64790,64790,64816,64816,64827,64827,64839,64854,64864,64876" d="m309,336.89999c0,1.672 0,2.76801 0,3.5c0,0.73199 0.12488,1.88275 -0.284,2.70001c-0.33081,0.66122 -0.77039,1.49905 -1.216,2.29999c-0.44455,0.79907 -0.33633,1.75729 -0.72134,2.60001c-0.30579,0.66931 -0.43289,1.57947 -0.7995,2.37918c-0.33496,0.73071 -1.41928,0.92413 -1.89514,1.71948c-0.41394,0.69186 -1.06601,1.23679 -1.08401,2.10135c-0.01874,0.89981 0.04779,1.80127 0,2.69998c-0.04272,0.80341 -0.61301,1.58197 -0.97467,2.39999c-0.34686,0.78448 -0.63895,1.7211 -1.10934,2.31467c-0.58533,0.73859 -0.65973,1.51025 -1.13733,2.164c-0.51071,0.69907 -0.77866,1.32135 -0.77866,2.22134c0,0.89999 0,1.70001 0,2.60001c0,0.89999 0,1.82083 0,2.784c0,0.69067 0,1.75882 0,2.61618c0,0.78516 0,1.72516 0,2.73315c0,0.75601 -0.05292,1.70142 0.35266,2.46667c0.4483,0.84589 0.47379,1.73825 0.73267,2.5c0.30176,0.88791 0.88284,1.6105 0.91483,2.52133c0.0238,0.67856 0.22534,1.65524 0.6105,2.34c0.49429,0.87878 0.81381,1.60083 1.03217,2.44766c0.22751,0.88226 0.27151,1.78574 0.38251,2.61899c0.15131,1.13586 0.70602,1.79059 0.91751,2.57651c0.26465,0.98349 -0.08185,1.74243 0.2785,2.67401c0.30087,0.7778 0.71335,1.55359 1.13132,2.3215c0.45764,0.84082 0.97049,1.52966 1.7475,1.92133c0.69922,0.35245 1.55139,0.74329 2.41583,0.77734c0.84744,0.03339 1.7164,0.47156 2.48401,0.83466c0.71259,0.33707 1.64194,0.56134 2.40451,0.814c0.97635,0.32349 1.72348,0.37799 2.57465,0.85266l0.59552,0.52533l0.50934,0.69067l0.71732,0.28268" id="svg_29" stroke-width="2" stroke="#000" fill="none"/>
  <path t="68024,68188,68195,68206,68242,68257,68281,68304,68304,68324,68329,68329,68341,68341,68357,68378,68402,68439,68440,68457,68475,68488,68505,68537,68561,68562,68574,68588,68622,68623,68638,68660,68672,68690,68709,68734,68734" d="m394,279.89999c-1.70001,0 -2.60001,0 -3.5,0c-0.89999,0 -1.79999,0 -2.70001,0c-0.90015,0 -1.68533,0 -2.62534,0c-1.008,0 -1.79999,0 -2.65866,0c-0.86331,0 -1.88,-0.00009 -2.716,0c-0.89999,0.00009 -1.83188,0.12656 -2.39999,0.61069c-0.74533,0.63516 -1.76575,0.93185 -2.2785,1.61081c-0.53439,0.70761 -0.4173,1.50754 -1.22131,2c-0.61972,0.37958 -0.81781,1.4437 -1.33618,2.1785c-0.47467,0.67288 -0.98138,1.28949 -1.564,2.07919c-0.47067,0.63797 -1.08401,1.23682 -1.80133,1.60483l-0.79868,0.52667l-0.60001,0.58798l-0.59998,0.51599" id="svg_30" stroke-width="2" stroke="#000" fill="none"/>
 </g>
 <g display="none">
  <title>muse_image</title>
  <image xlink:href="http://farm4.static.flickr.com/3404/3304560819_7d3a8d9dc4.jpg" id="muse" height="480" width="360" y="0" x="140"/>
 </g>
 <g display="none">
  <title>bbox</title>
  <rect stroke="#f00" fill="none" stroke-width="3" height="463.68" width="144" y="10.56" x="275.36" id="bbox"/>
 </g>
</svg>
