<svg width="640" height="480" xmlns="http://www.w3.org/2000/svg" xmlns:svg="http://www.w3.org/2000/svg" xmlns:xlink="http://www.w3.org/1999/xlink">
 <!-- Sketchy ANNOTATION
  ImageNet ID: n03272010_6152
  URL: http://farm1.static.flickr.com/163/424633997_79eec62fda.jpg
  Image Width: 381
  Image Height: 500
  BBox X: 0
  BBox Y: 52
  BBox Width: 380
  BBox Height: 297
  Exposure: 2000ms
  Synset Label: guitar
  Synset ID: n03467517
  Worker Tag: young man playing electric guitar
  Sanity Check: 
   Saved
  Comment: 
   {}
  Worker ID: A1P7U2ULSAE7YL
  Assignment ID: 3QXNC7EIPIVN8FI1SSMSI9DFBOG098
  HIT ID: 362E9TQF2HQB70OVKMC6RA4DYIQIG7
  Work Time: 152s
  Worker Score: 0.7857
 END ANNOTATION -->
 <g display="inline">
  <title>Layer 1</title>
  <path t="0,438,469,484,501,516,517,532,540,557,612,612,620,629,645,660,669,685,700,708,717,741,757,805,821,860,868,877,892,908,917,940,940,956,964,965,973,981,997,1014,1021,1021,1036,1052,1084,1092,1093,1116,1132,1148,1164,1180,1180,1188,1197,1204,1204,1214,1214,1221,1221,1221,1230,1236,1236,1244,1252,1252,1261,1276,1277,1292,1292,1301,1317,1325,1325,1340,1348,1373,1397,1412,1413,1420,1430,1437,1444,1452,1460,1476,1477,1485,1485,1501,1509,1517,1517,1525,1525,1532,1541,1549,1550,1557,1564,1580,1589,1597,1605,1613,1620,1629,1645,1645,1660,1676,1676,1685,1692,1701,1724,1733,1748,1748,1772,1780,1780,1788,1796,1804,1820,1830,1830,1836,1846,1853,1860,1860,1868,1876,1876,1884,1885,1900,1900,1909,1909,1917,1924,1932,1933,1941,1949,1949,1957,1957,1966,1973,1973,1983,1989,2005,2005,2012,2013,2021,2029,2037,2052,2053,2068,2108,2124,2148,2157,2172,2172,2182,2189,2199,2199,2204,2215,2221,2229,2252,2268,2268,2285,2292,2293,2301,2317,2317,2324,2333,2349,2357,2372,2388,2399,2405,2405,2420,2429,2429,2437,2452,2476,2477,2492,2508,2524,2548,2564,2621,2660,2660,2708,2740,2749,2772,2796,2804,2815,2852,2861,3084,3092,3101,3124,3148,3604,3620,3636,3660,3708,3733,3756,3756,3788,3828,3838,3853,3900,3932,3972,3983,4001,4036,4046,4100,4156,4167,4276,4316,4372,4500,4612,4668,4700,4709,4717,4726,4733,4749,4757,4757,4766,4766,4783,4788,4799,4805,4836,4868,4877,4878,4884,4901,4909,4918,4926,4933,4949,4966,4966,4983,4988,5004,5005,5020,5020,5036,5049,5053,5069,5083,5085,5108,5117,5126,5141,5150,5166,5172,5183,5196,5196,5216,5216,5220,5233,5237,5252,5265,5266,5269,5269,5279,5286,5286,5292,5302,5302,5309,5325,5342,5342,5357,5372,5388,5399,5416,5433,5433,5446,5446,5453,5469,5483,5485,5485,5499,5501,5508,5509,5526,5533,5548,5557,5567,5568,5582,5589,5599,5604,5616,5616,5620,5632,5637,5649,5649,5665,5682,5682,5685,5699,5702,5709,5717,5725,5733,5733,5748,5748,5757,5757,5768,5783,5798,5805,5815,5816,5828,5828,5837,5849,5852,5852,5866,5882,5883,5885,5898,5908,5917,5933,5942,5942,5949,5958,5958,5966,5988,5988,5999,5999,6028,6044,6044,6052,6053,6065,6065,6069,6082,6085,6096,6101,6112,6112,6125,6125,6133,6133,6142,6142,6149,6149,6165,6173,6183,6189,6204,6236,6246,6268,6282,6285,6298,6301,6301,6316,6324,6325,6334,6341,6358,6382,6389,6389,6397,6415,6420,6436,6436,6448,6453,6462,6469,6492,6502,6516,6532,6533,6541,6549,6558,6566,6582,6598,6599,6612,6634,6634,6637,6652,6668,6668,6681,6685,6717,6733,6752,6759,6770,6776,6781,6789,6812,6820,6868,6884,6925,6940,6957,6957,6968,7244,7244,7254,7266,7284,7316,7364,7380,7380,7390,7414,7484,7484,7508,7518,7540,7550,7572,7588,7708,7718,7924,7956,7972,7988,8012,8036,8036" d="m379.51135,141.09091c-1.08398,1.71466 -1.7807,2.11931 -2.59998,2.57466c-0.7818,0.43452 -1.61551,0.69319 -2.20001,1.22667c-0.71973,0.65688 -1.66415,0.97166 -2.164,1.62401c-0.55838,0.72873 -0.9252,1.30037 -1.51517,2.07466c-0.55942,0.73421 -0.95627,1.48135 -1.82083,1.5c-0.89844,0.01936 -1.43884,0.60832 -2.13599,0.964c-0.76645,0.39105 -1.44119,0.75267 -2.17468,1.02533c-0.81461,0.30281 -1.54822,0.5287 -2.10532,1.09467c-0.66064,0.67113 -1.03442,1.36398 -1.72,1.89067c-0.65363,0.50215 -1.68497,0.64606 -2.39734,1.192c-0.66141,0.50691 -1.35648,0.74301 -2.28134,0.83466c-0.89627,0.08881 -1.58563,0.40941 -2.3645,0.99867c-0.61282,0.46364 -0.80643,1.4722 -1.62082,1.87866c-0.84552,0.422 -1.43765,0.88251 -2.40002,1.10051c-0.87799,0.19888 -1.85004,-0.11084 -2.59998,0.24216c-0.77554,0.36505 -1.62222,0.62592 -2.28934,1.21468c-0.69492,0.6133 -1.01508,1.41125 -1.81067,1.84799c-0.64813,0.35577 -1.56128,0.67696 -2.30002,1.23683c-0.6647,0.50378 -1.23358,1.21533 -1.98532,1.67917c-0.70493,0.43497 -1.70956,0.91016 -2.30399,1.18933c-0.71957,0.33794 -1.78586,0.52402 -2.41068,1.17867c-0.60901,0.63808 -1.20953,1.37608 -2.12119,1.43217c-0.81671,0.05025 -1.53754,0.56862 -2.24814,0.91716c-0.72348,0.35486 -1.49051,0.6981 -2.12619,1.37733c-0.65222,0.6969 -1.65317,0.88153 -2.13782,1.70534c-0.38403,0.65277 -0.84857,1.38318 -1.45068,1.91467c-0.58405,0.51555 -1.13983,0.89925 -1.91599,1.37067c-0.67636,0.41081 -1.2189,1.36566 -2,1.62933c-0.85641,0.28909 -1.86026,-0.07484 -2.60135,0.17065c-0.91843,0.30424 -1.68991,0.79189 -2.37332,0.94c-0.95319,0.20657 -1.54822,0.8644 -2.32535,1.45384c-0.73849,0.56015 -1.59137,0.75452 -2.25714,1.22533c-0.71762,0.50748 -1.37579,1.00894 -2.48569,1.23833c-0.84128,0.17387 -1.78906,0.18373 -2.35715,0.66785c-0.74536,0.63518 -1.38828,1.30562 -2.27869,1.38933c-0.8222,0.07729 -1.79886,-0.34077 -2.60049,0.02083c-0.73279,0.33054 -0.89154,1.47881 -1.72083,1.89517c-0.84933,0.42644 -1.45374,0.88417 -2.32083,1.06317c-0.94351,0.19479 -1.89655,-0.08174 -2.7175,0.37349c-0.76996,0.42694 -1.19153,1.01796 -1.98318,1.52583c-0.74643,0.47887 -1.7785,0.12151 -2.57849,0.12151c-0.836,0 -1.9126,-0.23592 -2.63068,0.08533c-0.76218,0.34097 -1.36014,1.01688 -2.06934,1.41467c-0.88742,0.49777 -1.63834,0.88608 -2.29999,1.216c-0.84335,0.42055 -1.86752,0.20667 -2.60001,0.72c-0.79001,0.55365 -1.27698,1.26523 -2.12082,1.564c-0.78299,0.27722 -1.71381,0.57861 -2.3125,1.16667c-0.5975,0.58693 -1.11435,1.64462 -1.80267,1.812c-0.9881,0.24026 -1.76608,-0.29553 -2.71735,0.032c-0.79434,0.2735 -1.1839,1.2485 -1.832,1.55333c-1.01648,0.47809 -1.93149,0.33932 -2.69998,0.52133c-0.97629,0.23122 -1.63077,0.7159 -2.35751,1.21017c-0.85724,0.58302 -1.61163,0.71384 -2.35715,1.31517c-0.6539,0.52744 -1.38757,1.29939 -2.15717,1.38483c-0.88562,0.09831 -1.75079,0.02138 -2.29102,0.709c-0.56064,0.71359 -1.30444,1.12643 -2.15182,1.5795c-0.65201,0.3486 -1.57205,0.63113 -2.22534,1.14134c-0.73413,0.57335 -1.13521,1.23979 -1.87466,1.87016c-0.75331,0.6422 -1.53708,0.49937 -2.39999,0.76166c-0.88469,0.26891 -1.40794,1.2737 -2.10001,1.6575c-0.82448,0.45726 -1.87801,-0.05647 -2.67917,0.30617c-0.68599,0.31052 -0.86813,1.34634 -1.52083,1.97917c-0.59122,0.57321 -1.41014,0.98199 -2.32133,1c-0.85316,0.01686 -1.84676,-0.17839 -2.67867,0.16667c-0.78435,0.32533 -1.55766,0.77132 -2.02533,1.444c-0.5025,0.72281 -1.26601,1.17557 -1.92201,1.74199c-0.59238,0.51147 -1.4093,0.51079 -2.25266,0.93134c-0.66165,0.32993 -1.43765,0.66086 -2.44817,0.7205c-0.78529,0.04636 -1.39423,0.84341 -2.11351,0.991c-1.04205,0.21381 -1.79189,0.01328 -2.69666,0.5045c-0.80177,0.43532 -1.27956,1.11021 -1.97768,1.464c-0.77135,0.3909 -1.82129,-0.12772 -2.664,0.25732c-0.6693,0.3058 -1.5,0.76794 -2.39999,0.77867c-0.88933,0.0106 -1.37891,0.71204 -2.11067,0.98933c-0.89253,0.33821 -1.49289,0.57643 -2.03667,1.06783c-0.58644,0.52994 -1.13458,1.05992 -1.95267,1.5175c-0.77229,0.43196 -1.53639,0.87044 -2.04733,1.42084c-0.48244,0.51968 -0.35266,1.5045 -0.35266,2.4045c0,0.90001 0,1.8 0,2.70001c0,0.89999 0,1.7 0,2.59999c0,0.90001 -0.11061,2.00461 0.64734,2.2955c0.86658,0.3326 1.3398,0.70908 1.35266,1.60451c0.01262,0.87932 0.75163,1.34364 0.9955,2.10449c0.28702,0.89549 0.46622,1.61761 1.22583,2.174c0.64894,0.47531 0.45689,1.2594 0.94534,1.95483c0.50232,0.71518 0.50226,1.61943 1.11867,2.08134c0.73512,0.55087 1.81905,0.17401 2.71466,0.08533c0.8457,-0.08374 1.3008,-0.82057 2.09984,-1.00017c0.84393,-0.18968 0.9884,-1.20541 1.42099,-1.979c0.40901,-0.73141 1.31668,-0.89452 1.95834,-1.54166c0.6384,-0.64384 0.22714,-1.75853 0.60616,-2.56317c0.37354,-0.79301 1.20393,-1.22691 1.91467,-1.916c0.59122,-0.57321 1.42752,-0.74001 2.284,-1.00133c0.77516,-0.23651 1.36232,-0.80832 2.10533,-1.43468c0.63054,-0.53156 0.9113,-1.43533 1.77734,-1.73067c0.66037,-0.2252 1.56201,-0.74939 2.26933,-1.25867c0.73776,-0.5312 1.45816,-0.63525 2.38933,-1c0.69772,-0.2733 1.53271,-0.68367 2.22733,-1.222c0.58411,-0.45268 1.64992,0.04555 2.51134,-0.38866c0.69888,-0.35228 1.11441,-1.24925 1.72,-1.88c0.55,-0.57286 1.23665,-1.07358 2.116,-1.084c0.89995,-0.01067 1.80377,0.08212 2.70001,-0.00017c0.91144,-0.08368 1.49599,-0.69969 2.38399,-0.91451c0.8428,-0.20387 1.78214,0.12309 2.71468,-0.08665c0.80287,-0.18059 1.10747,-0.91792 1.968,-1.16534c0.68008,-0.19554 1.69022,-0.59048 2.42267,-0.85866c0.85785,-0.31409 1.59387,-0.74147 2.38983,-0.97467c0.9415,-0.27585 1.58725,-0.95105 2.37265,-0.9955c0.88513,-0.05009 1.52893,-0.59193 2.21619,-0.9205c0.79407,-0.37964 1.52948,-0.77237 2.23334,-1.168c0.81711,-0.45927 1.63998,-0.79987 2.39865,-1.2c0.85837,-0.45271 1.56952,-0.73401 2.45267,-1.06866c0.70563,-0.26738 1.5889,-0.61865 2.54733,-0.64734c0.8996,-0.02692 1.77008,-0.21455 2.39999,-0.57466c0.8642,-0.49403 1.70377,-0.77846 2.39999,-1.42534c0.60327,-0.5605 1.44064,-0.73482 2.2955,-1.0045c0.76736,-0.2421 1.09875,-1.13008 1.53784,-1.9955c0.34268,-0.67538 0.77567,-1.50719 1.52383,-1.94284c0.72894,-0.42447 1.42841,-0.49911 1.92816,-1.25583c0.40216,-0.60893 1.41467,-0.854 2.21466,-1.30133c0.80002,-0.44733 1.54163,-0.81654 2.30002,-1.216c0.78867,-0.41541 1.698,-0.53568 2.49017,-0.93134c0.80948,-0.4043 1.37128,-1.10396 2.00983,-1.64816c0.75336,-0.64206 1.38351,-1.10208 2.05716,-1.65182c0.70453,-0.57494 1.38129,-0.78632 2.2955,-1.35268c0.68143,-0.42215 1.57278,-0.80574 2.06067,-1.5c0.53552,-0.76208 1.26486,-0.89616 2.04382,-1.42133c0.72357,-0.48782 1.29468,-1.08595 2,-1.42601c0.85071,-0.41016 1.78641,-0.37488 2.60684,-0.778c0.87,-0.42749 1.66788,-0.7012 2.23599,-1.18533c0.74536,-0.63518 1.54138,-1.15968 2.20001,-1.47333c0.8378,-0.39897 1.0603,-1.4313 1.72083,-1.916c0.68954,-0.50598 1.63812,-0.73586 2.47916,-1.16667c0.66434,-0.3403 1.19742,-1.29909 2,-1.66666c0.74274,-0.34016 1.51031,-0.48537 2.33334,-1c0.59982,-0.37505 1.61478,-0.43892 2.30499,-0.81401c0.77869,-0.42317 1.70203,-0.53432 2.36166,-0.87349c1.01123,-0.51994 1.57016,-1.09941 2.20001,-1.67784c0.58286,-0.53528 1.52686,-0.61536 2.39999,-0.83733c0.8623,-0.21921 1.62643,-0.73149 2.49985,-0.96434c0.77835,-0.2075 0.79544,-1.28915 1.34317,-1.978c0.47757,-0.6006 1.55731,-0.85315 2.34631,-0.99634c1.04446,-0.18956 1.67499,-0.56233 2.41068,-1.224c0.58841,-0.52919 1.50458,-0.39813 2.36401,-0.83733c0.6969,-0.35614 1.36319,-0.50134 2.15067,-0.964c0.56766,-0.33353 0.73697,-1.33 1.452,-1.83333c0.69492,-0.48917 1.50293,-0.56418 2.11865,-1.08267c0.66547,-0.56039 1.48315,-0.92844 2.35068,-1.07333c0.99847,-0.16676 1.71719,-0.19525 2.41217,-0.658c0.69177,-0.4606 1.40332,-0.68367 2.1185,-1.18599c0.6954,-0.48845 1.76376,0.22639 2.548,-0.252c0.80362,-0.49019 1.10645,-1.45758 1.85333,-1.83067c0.66147,-0.33041 1.36368,-0.84341 2.13651,-1.0795c0.85727,-0.26189 1.60587,-0.62254 2.49548,-0.91917c0.85748,-0.28592 1.58362,-0.46759 2.13333,-1.08533c0.55399,-0.62251 1.13248,-1.37769 1.88818,-1.87849c0.73926,-0.4899 1.95847,0.25529 2.61182,-0.28818c0.69,-0.57396 0.73209,-1.48131 1.46667,-2.12883c0.6622,-0.58372 1.63666,-0.30113 2.41467,-0.78983c0.74008,-0.46486 1.28531,-0.91467 2.08533,-0.91467c0.89999,0 1.82901,-0.06554 2.284,-0.80133c0.4241,-0.68587 1.21463,-1.17007 2.116,-1.19867c0.89954,-0.02853 1.80127,0.04865 2.716,0c0.80338,-0.04272 1.31607,-0.81778 2.18384,-1.00017c0.79233,-0.16653 1.38873,-0.81183 1.87482,-1.43584c0.57813,-0.74217 1.01749,-1.44128 1.82535,-1.56267c0.90857,-0.13651 1.19998,-1.00133 1.19998,-1.80133c0,-0.89999 0,-1.8 0,-2.7c0,-0.88933 0.13773,-1.83633 -0.22131,-2.60001c-0.36469,-0.7757 -1.01746,-1.3461 -1.49466,-1.98399c-0.57449,-0.76791 -0.37964,-1.71001 -0.78403,-2.416c-0.45447,-0.79344 -0.34955,-1.71269 -0.50015,-2.59984c-0.14468,-0.85236 -0.98633,-1.29143 -1.83316,-1.73349c-0.6813,-0.35565 -1.20898,-1.06898 -2.08267,-1.16667c-0.79953,-0.08939 -1.30551,0.87849 -2.18399,1.00017l-0.90002,0.1665l-0.59998,0.40799" id="svg_1" stroke-width="2" stroke="#000" fill="none"/>
  <path t="9558,10565,10582,10582,10597,10605,10605,10613,10629,10645,10653,10670,10693,10765,10789,10813,10821,10821,10845,10861,10869,10893,10917,10933,10941,10973,10973,10997,10997,11013,11023,11040,11056,11085,11093,11109,11125,11133,11149,11197,11245,11261,11277,11293,11293,11303,11341,11437,11445,11469,11477,11493,11565,11565,11605,11637,11653,11669,11741,11765,11789,12101,12117,12133,12173,12181,12230,12261,12357,12413,12437,12605,12645,12693,12725,12741,12757,12765,12781,12781,12789,12797,12813,12813,12821,12821,12837,12837,12845,12853,12869,12885,12901,12909,12933,12941,13020,13061,13101,13117,13141,13149,13157,13189,13205,13213,13229,13245,13253,13261,13293,13317,13341,13357,13357,13389,13413,13429,13445,13469,13493,13501,13533,13565,13589,13613,13725,13733,13741,13757,13781,13797,13821,13837,13933,14045,14117,14173,14197,14197" d="m382.51135,140.09091c0.16669,-1.83333 1,-2 1.80002,-2c0.836,0 1.91757,0.2468 2.63068,-0.08533c0.8223,-0.38297 1.37067,-0.914 2.26932,-0.91467c0.89999,-0.00067 1.79999,0 2.68933,0c0.96783,0 1.81067,0 2.71066,0c0.89999,0 1.70001,0 2.60001,0c0.89999,0 1.79999,0 2.70001,0c0.89999,0 1.79865,0 2.68399,0c0.91599,0 1.67316,0 2.56866,0c0.86334,0 1.82651,0 2.74734,0c0.89999,0 1.79999,0 2.69998,0c0.89999,0 1.81601,0 2.60452,0c0.89548,0 1.79547,0 2.6955,0c0.89999,0 1.79999,0 2.69998,0c0.89999,0 1.70001,0 2.60001,0c0.94284,0 1.82083,0 2.70001,0c0.89999,0 1.79999,0 2.69998,0c0.89999,0 1.70001,0 2.60001,0c0.89999,0 1.79999,0 2.68933,0c0.96783,0 1.81067,0 2.71066,0c0.89999,0 1.5809,0.28287 2.18402,0.916c0.54688,0.5741 0.65488,1.42485 1.14133,2.05867c0.50137,0.65324 0.57465,1.46133 0.57465,2.32533c0,0.89999 0.11087,1.80685 0,2.7c-0.1116,0.89909 -1.22662,0.74138 -1.87866,1.22133c-0.69827,0.51398 -1.00644,1.38362 -1.83115,1.726c-0.60086,0.24945 -1.49353,0.74355 -2.34283,1.04817c-0.89175,0.31984 -1.72775,-0.00041 -2.60001,0.36166c-0.71732,0.29776 -1.38907,0.97459 -2.23132,1.3575c-0.87714,0.39876 -1.78271,0.28015 -2.63684,0.28534c-0.87924,0.00534 -1.95392,0.24242 -2.3125,1c-0.38263,0.80835 -0.39258,1.54413 -1.04535,2.22133c-0.55783,0.5787 -1.32993,0.65466 -2.22116,0.77884c-0.80188,0.11172 -1.26999,0.92563 -1.87482,1.42517c-0.65543,0.54134 -1.44272,0.66414 -2.05069,1.14932c-0.62451,0.49838 -1.67676,0.02802 -2.53867,0.46133c-0.65842,0.33102 -0.76453,1.56201 -1.63599,1.87868c-0.8497,0.30876 -1.75378,0.32747 -2.5,0.73267c-0.76114,0.4133 -1.70001,0.35266 -2.60001,0.35266c-0.89999,0 -1.79999,0 -2.70001,0c-0.87866,0 -1.7045,0 -2.59998,0c-0.90002,0 -1.80002,0 -2.70001,0c-0.89999,0 -1.79984,0 -2.67465,0c-0.82669,0 -1.57364,-0.21574 -2.19202,-0.83333c-0.61789,-0.6171 -1.15234,-1.01283 -1.78067,-1.51933c-0.61581,-0.49641 -1.34814,-1.0045 -1.88599,-1.64734l-0.16534,-0.8" id="svg_2" stroke-width="2" stroke="#000" fill="none"/>
  <path t="17381,17941,17973,17989,18053,18077,18125,18141,18173,18181,18245,18333,18357,18381,18389,18413,18421,18461,18533,18573,18581,18589,18597,18629,18645,18645,18677,18685,18701,18701,18733,18797,18813,18829,18845,18845,18869,18893,18893,18989,19029,19069,19085,19125,19141,19188,19197,19197,19205,19341,19365,19405,19421,19437,19453,19463,19493,19525,19558,19581,19605,19629,19638,19653,19664,19677,19695,19781,19909,19917,19941,19949,19965,19981,19989,20013,20021,20101,20125,20133,20133,20142,20149,20149,20157,20165,20173,20181,20181,20188,20196,20197,20204,20204,20220,20236,20246,20266,20266,20285,20301,20308,20325,20342,20357,20357,20372,20372,20388,20404,20416,20429,20484,20501,20508,20525,20525,20542,20558,20565,20573,20588,20588,20604,20628,20637,20644,20652,20669,20669,20682,20685,20685,20699,20712,20717,20733,20742,20759,20788,20804,20838,20848,20853,20868,20881,20882,20901,20912,20932,20932,20941,20965,20996,21020,21020,21028,21052,21068,21077,21085,21101,21101,21115,21116,21125,21133,21141,21158,21174,21180,21204,21228,21244,21244,21254,21268,21282,21285,21298,21301,21324,21324,21334,21341,21341,21349,21365,21382,21399,21428,21460,21471,21492,21517,21533,21549,21573,21876,21887,21887,21887,21898,21899,21901,21901,21914,21915,21915,21917,21917,21931,21931,21931,21933,21933,21942,21942,21949,21949,21957,21965,21982,21982,21998,21998,22005,22005,22020,22044,22052,22076,22087,22087,22116,22172,22204,22212,22228,22248,22252,22268,22284,22300,22317,22340,22356,22367,22373,22380,22397,22406,22414,22421,22452,22476,22476,22487,22493,22500,22515,22524,22540,22563,22588,22588,22604,22612,22636,22652,22676,22692,22716,22732,22732,22764,22789,22805,22813,22838,22845,22854,22868,22876,22893,22909,22916,22926,22932,22956,22972,22988,22996,23012,23023,23029,23036,23037,23052,23068,23077,23116,23132,23148,23148,23160,23160,23165,23177,23181,23197,23213,23222,23228,23237,23252,23276,23292,23292,23300,23300,23310,23317,23332,23356,23380,23388,23388,23396,23405,23422,23444,23461,23461,23468,23500,23508,23516,23540,23548,23564,23575,23590,23597,23620,23636,23660,23669,23669,23685,23701,23714,23714,23727,23745,23762,23762,23768,23796,23820,23832,23845,23862,23869,23869,23877,23885,23895,23901,23916,23932,23942,23959,23965,23981,24004,24020,24031,24038,24045,24069,24077,24116,24127,24133,24148,24188,24228,24228,24236,24260,24269,24300,24316,24356,24356,24396,24436,24452,24492,24492,24508,24540,24540,24572,24580,24591,24608,24613,24625,24645,24660,24670,24677,24684,24700,24709,24716,24716,24741,24758,24774,24791,24805,24837,24837,24876,24900,24909,24956,25004,25020,25052,25052,25092,25172,25284,25292,25316,25340,25380,25390,25412,25423,25428,25444,25476,25508,25516,25524,25532,25540,25564,25588,25604,25612,25623,25639,25639,25644,25660,25676,25686,25692,25693,25702,25708,25716,25732,25748,25748,25757,25774,25780,25781,25790,25797,25807,25836,25852,25861,25869,25885,25902,25909,25916,25932,25940,25964,25996,26005,26012,26028,26044,26069,26078,26109,26125,26133,26173,26181,26205,26213,26237,26261,26269,26277,26293,26303,26310,26319,26326,26341,26349,26357,26373,26390,26397,26413,26424,26445,26485,26533,26557,26573,26573,26581,26677,26733,26742,26765,26789,26805,26805,26821,26829,26885,26893,26894,26909,26919,26935,26942,26949,26950,26958,26973,26974,26981,26990,27006,27237,27245,27277,27301,27317,27341,27341,27389,27461,27517,27517,27549,27589,27645,27661,27685,27765,27765,28061,28077,28118,28118,28141,28150,28170,28189,28277,28288,28288,28309,28333,28357,28381,28421,28437,28469,28485,28509,28573,28605,28605,28613,28621,28642,28669,28685,28717,28741,28754,28757,28789,28801,28829,28853,28869,28917,28933,28949,28965,28981,28981,29005,29029,29069,29069,29101,29125,29141,29173,29181,29197,29213,29245,29285,29309,29325,29349,29361,29398,29414,29445,29461,29475,29478,29549,29693,29709,29757,29766,29813,29845,29861,29909,29933,29949,29949,29962,29989,30037,30053,30053,30101,30133,30145,30181,30197,30197,30208,30229,30245,30285,30301,30324,30325,30373,30517,30533,30541,30557,30573,30581,30589,30621,30637,30661,30674,30674,30701,30733,30757,30777,30806,30869,30885,30894,30917,30930,30981,31013,31022,31046,31077,31078,31101,31181,31229,31253,31285,31317,31326,31365,31366,31525,31685,31701" d="m242.51137,215.09091c-1.7,0 -2.70258,0.39821 -3.564,-0.036c-0.69888,-0.35228 -1.23734,-0.96333 -2.136,-0.964c-0.90001,-0.00067 -1.66483,-0.14905 -2.35268,-0.64734c-0.69371,-0.50255 -1.16275,-0.90224 -1.78065,-1.51933c-0.61839,-0.61758 -1.46965,-0.6497 -2.08267,-1.11732c-0.67551,-0.51529 -1.08134,-1.0742 -1.584,-1.716c-0.48251,-0.61607 -0.59636,-1.40627 -1.14734,-2.05267c-0.51515,-0.6044 -1.11794,-1.22076 -1.51933,-1.94733c-0.42688,-0.77267 -1.34283,-1.18146 -1.71182,-2.10001c-0.33852,-0.84271 -0.12151,-1.7 -0.12151,-2.61465c0,-0.89601 0,-1.78534 0,-2.69601c0,-0.91066 0,-1.58932 0,-2.70399c0,-0.88533 0,-1.68533 0,-2.58533c0,-0.90001 0.10214,-1.69394 0.64734,-2.2955c0.46838,-0.51682 0.79153,-1.2467 1.51933,-1.83783c0.69669,-0.56586 1.2545,-0.86523 1.83333,-1.64584c0.47221,-0.63683 0.81503,-1.25208 1.036,-2.12083c0.21931,-0.86224 0.9213,-1.59697 0.964,-2.5c0.04253,-0.89899 0,-1.77866 0,-2.60449c0,-0.89551 0.05299,-1.83029 -0.35266,-2.5955c-0.44838,-0.84579 -1.12997,-1.30751 -1.56201,-1.98534c-0.49312,-0.77364 -0.4704,-1.62254 -1.06,-2.14c-0.63774,-0.55969 -1.06929,-1.42891 -1.82666,-1.57333c-0.88277,-0.16833 -1.84151,-0.00133 -2.7195,-0.00133c-0.87917,0 -1.77917,0.00009 -2.67917,0c-0.89984,-0.00009 -1.4705,-0.54915 -2.16167,-0.94284c-0.83536,-0.47583 -1.63834,-0.05716 -2.61684,-0.05716c-1.0215,0 -1.8215,0 -2.7215,0c-0.90001,0 -1.71068,0 -2.62134,0c-0.85333,0 -1.79333,0 -2.77884,0c-0.78516,0 -1.72525,-0.01158 -2.41583,0c-1.07379,0.01801 -1.80193,0.58914 -2.584,0.87849c-0.85173,0.31512 -1.7,0.12151 -2.59999,0.12151c-0.90001,0 -1.8,0 -2.7,0c-0.90451,0 -1.92561,-0.05801 -2.60001,0.02083c-0.99194,0.11595 -1.40811,0.83075 -2.02533,1.54317c-0.5269,0.60815 -1.42061,0.58131 -2.05867,1.15201c-0.65176,0.58293 -0.53207,1.48845 -1.1375,2.16266c-0.5546,0.6176 -1.47971,0.76596 -2.2785,1.12134c-0.79671,0.35445 -1.108,1.3055 -1.78534,1.916c-0.64624,0.58247 -1.42522,0.7058 -2.27866,1.07333c-0.79926,0.34421 -0.97858,1.37642 -1.6575,1.88916c-0.70773,0.5345 -1.81119,0.24712 -2.37851,0.73218c-0.7467,0.63844 -1.34296,1.45702 -1.89999,1.8685c-0.81886,0.60489 -1.44487,1.09273 -2.11067,1.54616c-0.72762,0.49551 -1.15411,1.2739 -1.67332,1.89067c-0.55678,0.66139 -0.90285,1.41502 -1.716,1.91733c-0.7636,0.47168 -1.3974,0.85031 -1.94734,1.52383c-0.57433,0.7034 -0.93163,1.37523 -1.53183,2.14284c-0.50824,0.64999 -0.63864,1.71394 -1.22533,2.14284c-0.75946,0.55521 -1.2578,1.1223 -1.81633,1.85716c-0.50455,0.66383 -1.46477,0.92606 -2.12201,1.55267c-0.62134,0.59239 -1.08923,0.75992 -1.95717,0.98332c-0.8662,0.22295 -1.31567,1.07664 -2.036,1.528c-0.77699,0.48685 -1.78587,0.35034 -2.37866,1.04668c-0.5739,0.67415 -1.19682,1.2226 -2.08517,1.3895c-0.7957,0.14949 -1.25587,0.97122 -2.10016,0.99983c-0.89949,0.03047 -1.8,0 -2.60001,0c-0.89999,0 -1.8,0 -2.7,0c-0.89999,0 -1.8,0 -2.69867,0c-0.968,0 -1.688,0 -2.62666,0c-1.008,0 -1.76401,0 -2.67467,0c-0.89999,0 -1.8,0 -2.7,0c-0.90001,0 -1.8,0 -2.716,0c-0.7885,0 -1.68401,0 -2.584,0c-0.89999,0 -1.8033,-0.0757 -2.70134,0.00133c-0.9758,0.08369 -1.63766,0.42845 -2.39999,0.8c-0.80188,0.39082 -1.57451,0.85356 -2.59867,1.07716c-0.78775,0.17198 -1.8,0.12151 -2.6,0.12151c-0.8,0 -1.80853,-0.04102 -2.65717,0.05716c-0.9714,0.11238 -1.75483,0.37775 -2.533,0.59018c-1.03577,0.28276 -1.73341,0.43219 -2.4205,1.20332c-0.49927,0.56035 -1.23669,1.08952 -2.10533,1.14667c-0.96109,0.06323 -1.89467,0.00267 -2.8055,0.00267c-0.69933,0 -1.6785,0 -2.46783,0c-1.044,0 -1.5286,0.36356 -2.212,0.91467c-0.55137,0.44464 -1.38582,0.39981 -2.16533,0.91866c-0.70746,0.47089 -1.63375,0.13943 -2.53334,0.16667c-0.94413,0.02859 -0.87691,0.83435 -1.35716,1.64284c-0.39128,0.65871 -1.46899,0.81355 -2.23833,1.30449c-0.70533,0.45009 -1.21132,1.26883 -1.53783,2.05267c-0.34384,0.82544 -0.84448,1.10628 -1.25066,1.80133c-0.4827,0.82599 -1.11224,1.66701 -1.916,2.032c-0.7738,0.35138 -1.78087,0.17441 -1.99866,0.968c-0.24281,0.88472 -0.74472,1.40723 -1.168,2.19867c-0.40046,0.74878 -0.51357,1.56306 -0.844,2.38933c-0.31565,0.78928 -0.80437,1.34192 -1.02534,2.21068c-0.21931,0.86224 -0.90311,1.49388 -0.964,2.39999c-0.05363,0.7982 0,1.7 0,2.60001c0,0.89999 0,1.79999 0,2.7c0,0.89999 0,1.8 0,2.7c0,0.8 0,1.83333 0,2.61067c0,0.88933 -0.00067,1.78932 0,2.68933c0.00067,0.89867 0.62771,1.4476 0.97916,2.22083c0.36389,0.8006 0.02075,1.77917 0.02084,2.67917c0.00008,0.89984 0.23793,1.59184 1.09983,1.80017c0.83913,0.20282 0.71961,1.30049 1.18417,1.91583c0.51578,0.68321 0.51896,1.40617 0.71734,2.28267c0.18298,0.80847 1.33556,0.97833 1.71333,1.60266c0.48742,0.80554 0.52737,1.647 1.00133,2.28265c0.57327,0.76883 0.23969,1.7681 0.56934,2.48535c0.37071,0.80658 1.03812,1.46704 1.42934,2.22934c0.43106,0.8399 0.28533,1.80133 0.28533,2.70132c0,0.89999 -0.167,1.81589 0.00134,2.69867c0.14442,0.75735 0.876,1.33823 1.5195,1.80133c0.69392,0.49939 1.20484,1.19928 1.5,1.97916c0.31327,0.82773 1.45018,0.72119 1.9375,1.54169c0.44431,0.74808 0.45755,1.56171 1.09433,2.1265c0.70146,0.62216 1.15903,1.3244 1.522,1.95267c0.48856,0.84564 0.87469,1.53836 1.50933,2.116c0.64666,0.58859 0.87881,1.28485 0.916,2.08398c0.04272,0.91766 0.81779,1.43207 1.00017,2.29984c0.16653,0.79233 0.90027,1.29187 1.42516,1.87485c0.53048,0.58917 1.16382,1.34326 1.45317,2.12534c0.31512,0.85175 0.60416,1.50748 1.03616,2.18533c0.49378,0.77481 0.36939,1.77475 0.73267,2.41467c0.4316,0.76031 0.70577,1.60373 1.35267,2.29999c0.5605,0.60327 0.88496,1.44318 1.35267,2.29999c0.40686,0.74533 0.16236,1.69434 0.73267,2.41467c0.56185,0.70966 1.3608,0.83292 1.82933,1.57068c0.43913,0.69147 -0.25751,1.95779 0.41867,2.548c0.5177,0.45187 1.58321,0.49545 2.16666,1.16666c0.51337,0.59061 0.45463,1.56076 1.11066,2.02533c0.71844,0.50876 1.22259,1.18619 1.3895,2.07449c0.14948,0.79556 1.19777,0.89844 1.64716,1.60468c0.46273,0.7272 0.23759,1.99942 0.96333,2.28482c0.80878,0.31805 1.3791,0.62134 1.38934,1.48984c0.01115,0.94617 0.4073,1.61322 1.05267,2.16818c0.58199,0.50046 1.45248,0.86823 2.14733,1.55267c0.50376,0.49622 1.09711,1.39682 1.99867,1.71466c0.83882,0.29572 1.48462,0.48318 2.15849,1.03265c0.7034,0.57352 1.67876,0.4216 2.3575,1.13666c0.60553,0.63794 0.34506,1.73395 1.28534,1.91602c0.68951,0.13351 1.4803,0.54181 2.2,1.19867c0.58452,0.53348 1.58305,0.46548 2.364,0.83734c0.73994,0.35233 1.52739,0.52267 2.19301,1.18549c0.64578,0.64307 0.54353,1.60022 1.34283,1.77866c0.84335,0.18826 1.25603,0.97125 2.20016,0.99985c0.89958,0.02725 1.8,0 2.7,0c0.8,0 1.7,0 2.60001,0c0.89999,0 1.80399,-0.0845 2.6955,0c0.88301,0.08371 1.36287,0.80984 2.3045,0.98932c0.88414,0.16852 1.79999,0.01068 2.7,0.01068c0.89999,0 1.8,0 2.7,0c0.8,0 1.71466,0 2.61067,0c0.88933,0 1.77866,-0.01068 2.38933,-0.5c0.61067,-0.48935 1.5,-0.5 2.47917,-0.5c0.87799,0 1.80196,0.13733 2.46815,-0.35266c0.68422,-0.50323 1.47586,-0.40485 2.33667,-0.64868c0.77975,-0.22086 1.15729,-1.15448 1.76866,-1.646c0.64453,-0.51819 1.39882,-0.68369 2.11401,-1.186c0.69543,-0.48843 1.50294,-0.56418 2.11867,-1.08267c0.66548,-0.56039 1.65173,-0.56604 2.3575,-1.13666c0.73108,-0.59109 1.17722,-1.21024 1.70982,-1.89917c0.51062,-0.66049 0.46977,-1.62946 1.25801,-2.02682c0.79501,-0.40079 1.62541,-0.48727 2.48933,-0.89999c0.85265,-0.40732 1.4791,-0.72476 1.89999,-1.62134c0.37056,-0.78934 1.14137,-1.27036 1.8,-1.58401c0.83777,-0.39896 1.2417,-1.2482 1.77466,-1.94131c0.48703,-0.63339 0.41335,-1.59988 0.85068,-2.37466c0.40987,-0.72614 0.8811,-1.38776 1.77333,-1.60135c0.74982,-0.1795 1.32771,-0.80838 2,-1.284c0.78026,-0.552 1.08432,-1.38586 1.67999,-1.936c0.63695,-0.58826 1.1498,-1.15463 1.696,-1.80399c0.53461,-0.63556 0.90475,-1.4866 1.37267,-2.27017c0.39282,-0.65781 1.61986,-0.44678 2.01668,-1.12982c0.46628,-0.80261 0.51625,-1.26221 1.38866,-1.57916c0.76622,-0.27838 1.37827,-0.84717 2.03667,-1.43152c0.69321,-0.61523 0.93674,-1.42743 1.58534,-1.98932c0.58791,-0.50931 1.39525,-0.60803 2.05066,-1.14935c0.60484,-0.49954 1.14134,-1.25867 1.97467,-1.42532c0.83333,-0.16666 0.96178,-1.11539 1.61067,-1.57468c0.72226,-0.51123 1.64055,-0.85822 2.38933,-1.25867c0.79144,-0.42328 1.28236,-1.12393 2.2,-1.16666c0.89903,-0.04184 1.80046,0.02707 2.60001,0c0.84428,-0.02859 1.48286,-0.68091 2.116,-1.284c0.57413,-0.54688 1.284,-0.716 2.18401,-0.716c0.89999,0 1.70041,0.02725 2.59999,0c0.94414,-0.02859 1.45432,-0.91626 2.3,-1c0.79611,-0.07883 1.80438,0.37784 2.64284,-0.05716c0.74861,-0.38837 1.21799,-0.92484 2.19049,-0.94284c0.86201,-0.01596 1.80267,0 2.65067,0c0.86334,0 1.88,0 2.716,0c0.90001,0 1.8,0 2.716,0c0.7885,0 1.68401,0 2.60483,0c0.96317,0 1.65384,0 2.722,0c0.85718,0 1.75717,0 2.55717,0c0.89999,0 1.86247,0.16495 2.72083,-0.02084c0.82771,-0.17917 1.62971,-0.73187 2.47916,-1.14581c0.65225,-0.31787 1.53632,-0.76035 2.30002,-1.186c0.7417,-0.41339 1.50043,-0.61942 2.39999,-0.64734c0.94412,-0.0293 1.6351,-0.32825 2.26401,-1.01068c0.57419,-0.62305 1.07425,-0.81577 1.836,-1.07465c0.88791,-0.30176 1.59946,-0.89667 2.5,-0.91467c0.89981,-0.01801 1.80109,0.04773 2.69998,0c0.80475,-0.04272 1.62271,-0.53168 2.38934,-0.96399c0.63596,-0.35861 0.78766,-1.37289 1.41202,-1.75067c0.80554,-0.4874 1.80325,-0.29349 2.25131,-0.98984c0.49384,-0.76752 0.82397,-1.64673 1.37268,-2.27017c0.5144,-0.58444 1.3056,-0.87698 1.96399,-1.46133c0.69321,-0.61523 0.97281,-1.50043 1.61066,-2.064c0.5835,-0.51553 1.33002,-0.95163 1.83334,-1.66666c0.4892,-0.69495 0.56412,-1.50299 1.08267,-2.11868c0.56049,-0.66547 0.85886,-1.35217 1.47333,-2.11465c0.60101,-0.74579 0.85278,-1.5538 1.258,-2.30002c0.4133,-0.76111 0.31366,-1.81287 0.77802,-2.31067c0.51364,-0.55063 0.6416,-1.33289 1.14932,-2.01465c0.4772,-0.64081 0.42532,-1.57468 0.42532,-2.47467c0,-0.89999 0.00009,-1.8 0,-2.7c-0.00009,-0.89984 -0.3627,-1.51335 -0.94281,-2.15266c-0.49252,-0.54279 -0.99362,-1.00946 -1.55719,-1.64734c-0.5155,-0.58348 -1.2045,-0.99774 -2.09998,-1c-0.96402,-0.00243 -1.87167,-0.24063 -2.6955,0.0045c-0.76263,0.22693 -0.51999,1.642 -1.22534,1.97467c-0.79541,0.37514 -1.82922,-0.11084 -2.57916,0.24216c-0.77554,0.36505 -1.62808,0.58803 -2.5,0.81467c-0.86569,0.22502 -1.29895,1.08426 -2.04285,1.60684c-0.70752,0.49704 -1.46902,0.83655 -2.00449,1.40984c-0.64001,0.68523 -1.4628,1.00192 -1.91669,1.55798c-0.6145,0.75284 -1.0466,1.384 -1.936,1.38934c-0.89996,0.0054 -1.85004,-0.13165 -2.59998,0.22134c-0.77554,0.36505 -1.54285,0.7764 -2.42084,0.77866c-0.97919,0.0025 -1.99545,0.11099 -2.47919,-0.52084c-0.51855,-0.67731 -1.10428,-1.32928 -2,-1.47916c-0.83817,-0.14023 -1.39786,-0.68326 -1.94733,-1.35716c-0.57353,-0.7034 -0.88503,-1.41467 -1.04816,-2.34283c-0.14972,-0.85188 -0.46622,-1.62212 -1.22583,-2.1785c-0.64894,-0.47531 -0.77867,-1.12151 -0.77867,-2.00017c0,-0.82584 -0.13741,-1.57443 -0.716,-2.20534c-0.63651,-0.69405 -1.24129,-1.19836 -1.284,-2.116c-0.04184,-0.89903 0,-1.8 0,-2.60001c0,-0.91466 0,-1.81067 0,-2.7c0,-0.89999 0,-1.8 0,-2.7c0,-0.90001 0,-1.8 0,-2.60001l0,-0.89999l0,-0.90001l0,-0.87917" id="svg_3" stroke-width="2" stroke="#000" fill="none"/>
  <path t="37405,37517,37517,37527,37527,37527,37533,37533,37533,37544,37545,37545,37549,37549,37549,37562,37562,37578,37578,37669,37678,37685,37685,37701,37701,37717,37717,37727,37733,37744,37760,37777,37777,37781,37781,37797,37797,37806,37813,37823,37837,37846,37973,37982,37989,37989,37997,37997,37997,38006,38006,38013,38013,38013,38022,38023,38030,38030,38030,38039,38039,38039,38045,38045,38054,38054,38062,38062,38063,38069,38069,38078" d="m224.51137,245.09091c-1.71884,0.0045 -2.47302,0.02135 -3.42149,0.22133c-0.82161,0.17323 -1.37849,0.40858 -2.57851,0.612c-0.8895,0.15077 -1.76396,0.16133 -2.83333,0.16667c-0.71399,0.00356 -1.39201,0 -2.58801,0c-0.804,0 -1.62599,0 -2.657,0c-0.675,0 -1.75504,0.00864 -2.511,0c-0.91084,-0.01042 -1.73413,-0.3325 -2.41066,-1c-0.62241,-0.61411 -1.142,-1.29944 -1.47917,-2c-0.45833,-0.95229 -0.52016,-1.79866 -0.52083,-2.7c-0.00066,-0.90001 0,-1.8 0,-2.71068c0,-0.91083 0,-1.61015 0,-2.78915c0,-0.77934 0,-1.6335 0,-2.49567c0,-0.90451 0,-1.8045 0,-2.7045c0,-0.90001 0,-1.8 0,-2.69968c0,-0.33783 -0.09196,0.60039 0.07201,1.31033c0.23773,1.0293 0.77199,1.59473 1.44533,2.304c0.71208,0.75009 1.24182,1.2316 1.96666,1.97067c0.52071,0.53093 1.06334,1.0934 1.632,1.91466c0.53989,0.77971 1.04657,1.60332 1.53667,2.2045c0.5177,0.63504 1.20201,1.5513 1.59016,2.33917c0.25029,0.50803 0.85776,1.4679 1.32117,2.09633c0.55916,0.75827 0.48006,1.45171 0.87868,2.38118c0.35167,0.82001 0.85199,1.569 1.3145,2.43582l0.291,0.834l0.45183,0.80901" id="svg_4" stroke-width="20" stroke="#fff" fill="none"/>
  <path t="40812,41013,41037,41068,41077,41109,41124,41141,41284,41300,41300,41332,41380,41412,41420,41437,41468,41477,41492,41516,41532,41548,41612" d="m214.51137,226.09091c1.564,0.61067 1.7765,1.51379 2.35716,2.2955c0.49979,0.67284 1.55849,0.85886 1.64284,1.7045c0.09079,0.91016 0.87146,1.15994 1,2c0.12169,0.79529 0.74469,1.53775 0.964,2.39999c0.22096,0.86876 0.70653,1.40686 1.01517,2.12083c0.34895,0.80722 -0.03105,1.81303 0.44617,2.45384c0.50772,0.68178 0.59549,1.5045 1.222,2.02083l0.35266,0.57916" id="svg_5" stroke-width="2" stroke="#000" fill="none"/>
  <path t="48238,48405,48415,48421,48421,48432,48438,48447,48454,48461,48477,48485,48494,48511,48517,48533,48550,48550,48566,48566,48582,48589,48589,48597,48605,48614,48621,48629,48645,48653,48669,48669,48685,48694,48701,48717,48741,48741,48750,48766,48773,48782,48798,48805,48814,48829,48837,48861,48877,48877,48885,48901,48917,48933,48941,48957,48973,48973,48997,49013,49021,49037,49045,49054,49077,49077,49093,49109,49133,49133,49143,49158,49166,49173,49197,49206,49215,49221,49231,49237,49246,49254,49265,49269,49285,49302,49310,49342,49358,49373,49374,49382,49389,49405,49415,49421,49422,49437,49461,49485,49495,49517,49533,49543,49557,49574,49574,49589,49605,49621,49621,49645,49654,49693,49733,49749,49765,49765,49781,49789,49798,49805,49814,49831,49853,49893,49925,49933,49965,49981,49981,49998" d="m117.51137,268.09091c1.7,-0.05716 2.47791,-0.6088 3.32117,-0.87866c0.79103,-0.25314 1.53841,-0.83844 2.2895,-1.11069c0.81705,-0.29617 1.32594,-0.78546 2.09383,-1.00616c0.86066,-0.24738 1.75579,-0.14035 2.34817,-0.65182c0.65601,-0.56641 1.39642,-0.96002 2.25184,-1.29999c0.82674,-0.32855 1.72479,-0.52582 2.52882,-1.05267c0.67264,-0.44077 1.4702,-0.96033 2.33334,-1c0.8119,-0.03732 1.59467,-0.49545 2.26933,-0.97467c0.67197,-0.47733 1.72615,-0.59613 2.39732,-1.19199c0.60634,-0.5383 1.32016,-0.65198 2.16667,-1c0.6711,-0.27591 1.60854,-0.65341 2.2955,-1.19052c0.74388,-0.5816 0.97794,-1.4081 1.7045,-1.80949c0.77267,-0.42688 1.18146,-1.34283 2.10001,-1.71182c0.84271,-0.33852 1.45444,-0.53912 2.12149,-1c0.72954,-0.50404 1.44789,-0.66982 2.13567,-1.06435c0.81544,-0.46776 1.86905,0.12755 2.64284,-0.22383c0.80376,-0.36499 1.24193,-1.21823 2.09984,-1.71199c0.73746,-0.42444 1.39874,-0.92564 1.87483,-1.55734c0.49565,-0.65765 1.06357,-1.29791 1.82533,-1.64799c0.74973,-0.34456 1.24493,-1.32036 2.03333,-1.74933c0.69833,-0.37996 1.73625,-0.05522 2.46667,-0.52383c0.79991,-0.5132 1.28485,-1.23779 2.09999,-1.61751c0.88486,-0.4122 1.5874,-0.94029 2.40001,-1.024c0.89526,-0.09221 1.88831,0.36241 2.67917,-0.02216c0.73012,-0.35503 1.11975,-0.6205 2,-1c0.71428,-0.30795 1.22531,-0.97691 2.12083,-0.97917c0.89999,-0.00226 1.74355,-0.06694 2.42532,-0.57466c0.64081,-0.47722 1.37546,-0.62555 2.05867,-1.14134c0.61534,-0.46455 1.34494,-0.65469 2.1375,-1.16249c0.74675,-0.47844 1.81494,0.04666 2.57851,-0.20683c0.77217,-0.25635 1.49864,-0.886 2.39999,-0.91467c0.89955,-0.02863 1.75378,-0.24214 2.5,-0.64734c0.76112,-0.4133 1.68933,-0.3519 2.65717,-0.35266c0.84151,-0.00067 1.38191,-0.60786 2.07884,-0.964c0.85941,-0.43916 1.6758,-0.47833 2.564,-0.86932c0.65764,-0.28951 1.38716,-0.48117 2.16667,-1c0.70746,-0.47087 1.63333,-0.16667 2.53333,-0.16667c0.864,0 1.82083,0.0022 2.7,0c0.90002,-0.00226 1.63126,-0.3369 2.40001,-0.716c0.8452,-0.41681 1.87195,0.04413 2.67917,-0.30482c0.71397,-0.30864 1.2254,-0.96631 2.12083,-0.97917c0.87932,-0.01262 1.40086,-0.79079 2.20132,-0.99867c0.81645,-0.21204 1.36534,-0.83466 2.19867,-1.168l0.60001,-0.444l0.7,-0.68483" id="svg_7" stroke-width="2" stroke="#000" fill="none"/>
  <path t="51029,51133,51149,51158,51165,51181,51190,51197,51197,51205,51214,51229,51229,51237,51237,51246,51246,51253,51261,51277,51294,51309,51341,51349,51365,51374,51381,51391,51397,51413,51421,51437,51446,51469,51493,51509,51517,51525,51533,51549,51565,51574,51591,51607,51613,51622,51629,51653,51661,51677,51685,51701,51709,51710,51717,51725,51741,51749,51750,51757,51789,51798,51807,51830,51838,51838,51846,51862,51869,51879,51885,51886,51895,51909,51925,51925,51941,51941,51965,51981,51990,51997,52013,52021,52029,52037,52053,52062,52069,52093,52109,52118,52133,52141,52157,52173,52173,52181,52197,52206,52213,52252,52277,52277,52285,52301,52309,52325,52333,52357,52365,52397,52405,52422,52445,52461,52477,52493,52511,52527,52556,52588,52589,52613,52637,52645,52676,52709,52733" d="m128.51137,283.09091c1.7,-0.05716 2.46846,-0.56177 3.3,-0.94733c0.87064,-0.40366 1.53329,-0.88605 2.136,-1.48868c0.66396,-0.66385 1.21638,-1.3569 2.064,-1.54315c0.88997,-0.19556 1.84035,-0.20251 2.5,-0.54169c1.01122,-0.51993 1.57013,-1.0994 2.2,-1.67783c0.58287,-0.53528 1.66431,-0.32312 2.44284,-0.85849c0.70401,-0.48413 0.84773,-1.13193 1.52383,-1.77618c0.63303,-0.60321 1.23334,-0.88412 2.12883,-1.17114c0.76086,-0.24387 1.28703,-0.68314 2.09383,-1.0062c0.78914,-0.31598 1.31525,-0.97751 2.17467,-0.98932c0.93614,-0.01288 1.64426,-0.39218 2.15201,-1.08401c0.51965,-0.70807 1.0761,-1.01727 1.784,-1.41599c0.87833,-0.49472 1.3739,-1.22562 2.11067,-1.48935c0.83736,-0.29974 1.77866,-0.02133 2.38933,-0.51065c0.61067,-0.48935 1.58644,-0.11804 2.47917,-0.52084c0.68636,-0.30969 0.4153,-1.69568 1.1315,-1.96851c0.83159,-0.3168 1.59262,-0.55386 2.48933,-0.88916c0.85063,-0.31808 1.73444,0.07446 2.59999,-0.17865c0.87764,-0.25665 1.55363,-0.73187 2.40001,-1.16418c0.6553,-0.33472 1.54282,-0.7764 2.42082,-0.77866c0.87917,-0.00226 1.77467,0 2.70084,0c0.94501,0 1.87251,0.2179 2.60901,-0.284c0.69693,-0.47491 1.37309,-0.63388 2.26933,-0.71616c0.91144,-0.08368 1.56078,-0.69681 1.87917,-1.479c0.32465,-0.79758 1.00838,-1.43097 1.778,-1.51636c0.89008,-0.09875 1.7849,-0.03387 2.722,-0.50449c0.74272,-0.37299 1.25795,-1.11172 1.95683,-1.464c0.86142,-0.4342 1.91904,0.04309 2.53867,-0.46133c0.59198,-0.48193 1.39742,-0.64796 2.05066,-1.14932c0.63382,-0.48647 1.59987,-0.41335 2.37466,-0.85068c0.72615,-0.40987 1.27026,-1.12143 1.95717,-1.5175c0.81853,-0.47197 1.76688,-0.25023 2.34283,-0.76166c0.73227,-0.65021 1.51149,-1.12875 2.39984,-1.29567c0.79553,-0.14948 1.13385,-0.79912 1.90016,-1.1665c0.75578,-0.36234 0.98251,-1.45757 1.61067,-1.85866c0.74582,-0.47623 1.60603,-0.78226 2.48917,-0.97484c0.84427,-0.1841 1.52303,-0.74965 1.87933,-1.52066c0.36458,-0.78891 0.54147,-1.46875 1.42082,-1.47917c0.89545,-0.0106 1.32603,-0.53989 1.95717,-0.94284c0.79236,-0.50589 1.86433,-0.05716 2.74284,-0.05716c0.89999,0 1.7002,0.01874 2.59999,0c0.86456,-0.01801 1.384,-0.716 2.10133,-0.99867l0.89867,-0.00133l0.90001,0" id="svg_8" stroke-width="2" stroke="#000" fill="none"/>
  <path t="53768,53861,53870,53894,53910,53917,53941,53957,53967,53981,53994,53997,54009,54009,54013,54021,54029,54029,54037,54038,54045,54045,54054,54055,54061,54071,54086,54093,54101,54110,54117,54125,54142,54149,54173,54182,54189,54205,54205,54221,54238,54245,54261,54261,54277,54277,54285,54293,54310,54310,54317,54325,54342,54349,54365,54381,54393,54393,54397,54409,54426,54426,54429,54430,54445,54454,54461,54475,54487,54494,54502,54518,54518,54533,54534,54543,54549,54558,54565,54573,54573,54581,54589,54589,54610,54622,54622,54631,54638,54655,54672,54687,54687,54693,54701,54709,54717,54717,54732,54741,54741,54758,54805,54813,54829,54845,54860,54869,54886,54901,54909,54917,54933,54941,54948,54958,54965,54975,54980,54996,55008,55012,55025,55042,55053,55069,55077,55101,55117,55149" d="m123.51137,271.09091c0.57467,-0.61066 0.78808,-1.64862 1.52084,-1.97916c0.80163,-0.3616 1.81303,0.03104 2.45383,-0.44617c0.68179,-0.50775 1.52534,-0.57468 2.42533,-0.57468c0.90001,0 1.85728,0.17349 2.60001,-0.16666c0.8026,-0.36755 1.21727,-1.26382 2.10001,-1.71201c0.84258,-0.4278 1.50214,-0.79684 2.38533,-1.03735c0.70775,-0.19272 1.71713,-0.29807 2.49384,-0.58398c1.00282,-0.36917 1.7164,-0.48727 2.62083,-0.5c0.90015,-0.01266 1.65886,-0.4213 2.49983,-0.87866c0.74748,-0.40652 1.28238,-0.91064 2.09883,-1.12268c0.80045,-0.20789 1.32198,-0.98822 2.20132,-0.99866c0.89995,-0.01068 1.8606,0.1087 2.55183,-0.35266c0.69441,-0.4635 1.46951,-0.57773 2.03917,-1.29468c0.49438,-0.62219 1.15408,-1.11679 2.009,-1.51932c0.68364,-0.3219 1.48125,-0.78647 2.34734,-0.82886c1.01546,-0.04968 1.90996,0.15921 2.75267,-0.22583c0.6693,-0.30579 1.29596,-0.97116 1.98399,-1.49466c0.6136,-0.46686 1.34499,-0.65462 2.1375,-1.16249c0.74672,-0.47853 1.7486,-0.33606 2.37851,-0.69617c0.8642,-0.49403 1.64017,-0.91814 2.56667,-1.25867c0.63028,-0.23166 1.69698,0.00986 2.52882,-0.22385c0.76527,-0.215 1.50148,-0.90012 2.40434,-0.94283c0.92445,-0.04373 1.50734,-0.48317 2.1855,-0.91467c0.77504,-0.49315 1.82953,0.00296 2.59999,-0.17065c0.79269,-0.17862 1.72838,-0.40947 2.573,-0.91467c0.63213,-0.3781 0.45122,-1.6219 1.08334,-2c0.84462,-0.5052 1.59782,-0.69499 2.573,-0.91467c0.86769,-0.19547 1.68533,-0.08533 2.6425,-0.08533c0.89549,0 1.83223,0.34438 2.70116,-0.02083c0.7307,-0.3071 0.92955,-1.29039 1.70834,-1.8125c0.70589,-0.47324 1.59528,-0.0764 2.64799,-0.17734c0.86221,-0.08267 1.45517,-0.76118 2.18533,-1.15601c0.65657,-0.35504 1.18822,-1.32645 2.10001,-1.71182c0.65421,-0.2765 1.60014,-0.10471 2.5,-0.12151c0.96449,-0.01801 1.58559,-0.48874 2.23332,-1.16667c0.60406,-0.63222 0.91649,-1.45619 1.6875,-1.8125c0.78891,-0.36458 1.53679,-0.45973 2.12651,-1.0735c0.58481,-0.60866 1.4653,-0.72624 2.18333,-1.23132c0.6898,-0.48521 1.4706,-0.66827 2.368,-0.716c0.80341,-0.04272 1.10187,-0.82173 1.90117,-1.00017c0.84335,-0.18826 1.24429,-0.95731 1.90016,-1.49983c0.60298,-0.49878 1.47917,-0.52083 2.05266,-1.14734l0.74867,-0.35133l0.91333,-0.00133l0.89601,0" id="svg_9" stroke-width="2" stroke="#000" fill="none"/>
  <path t="56141,56221,56237,56261,56269,56301,56309,56333,56349,56357,56373,56381,56381,56389,56413,56429,56429,56453,56469,56501,56501,56525,56549,56613,56637,56653,56669,56678,56678,56693,56693,56709,56718,56735,56741,56781,56781,56797,56821,56845,56854,56861,56885,56885,56909,56918,56934,56989,57013,57021,57021,57029,57053,57062,57085,57086,57101,57117,57141,57157,57173,57181,57189,57190,57197,57205,57213,57237,57253,57277,57286,57301,57309,57325,57389,57429,57445,57453,57453,57469,57477,57493,57509,57510,57517,57549,57566,57581,57597,57605,57637,57669,57677,57693,57717,57732,57733,57789,57805,57813,57829,57837,57869,57925,57933,57965,57989,57989,57997,58012,58021,58028,58044,58061,58070,58100,58117,58133,58189,58197,58228,58300,58309,58325,58348" d="m127.51137,275.09091c1.8,0 2.77841,-0.00641 2.99867,-0.80133c0.24498,-0.88412 0.84122,-0.98892 1.70132,-1.25583c0.86597,-0.26874 1.00285,-1.5152 1.72534,-1.90683c0.81998,-0.44449 1.72699,-0.39542 2.37466,-0.75201c0.86366,-0.47549 1.35431,-1.20026 2.2,-1.284c0.79611,-0.07883 1.48848,-0.28796 2.2215,-0.87866c0.64632,-0.52084 1.58029,-0.57916 2.3425,-1.11069c0.56201,-0.39191 1.06329,-1.00476 1.836,-1.43597c0.81891,-0.457 1.70001,-0.57468 2.60001,-0.57468c0.75717,0 1.6732,0.11856 2.51601,-0.08533c0.888,-0.21481 1.78386,-0.67871 2.39999,-1.19867c0.64929,-0.54794 1.22864,-1.04514 1.88533,-1.43201c0.82684,-0.48709 1.62105,-0.97015 2.49867,-1.22684c0.86427,-0.25278 1.784,-0.05716 2.7,-0.05716c0.8,0 1.81435,0.39505 2.564,-0.03601c0.69963,-0.40228 0.82628,-1.27832 1.60268,-1.79733c0.70651,-0.47229 1.76974,0.23608 2.54799,-0.25198c0.74043,-0.46436 1.02711,-1.42151 1.72816,-1.79318c0.80975,-0.42929 1.8,-0.1214 2.75717,-0.12149c0.89984,-0.00009 1.409,-0.50723 2.15717,-0.94284c0.73013,-0.42509 1.70239,-0.34212 2.34283,-0.7045c0.82079,-0.46442 1.34894,-1.18294 2.10133,-1.35133c0.87883,-0.1967 1.62123,-0.68684 2.49867,-0.94417c0.86417,-0.25343 1.48834,-0.43962 1.70132,-1.25583c0.20778,-0.79628 1.28267,-0.80133 2.16534,-0.80133c0.93333,0 1.86977,0.16817 2.63333,-0.08533c0.77217,-0.25635 1.50856,-0.77905 2.39999,-0.916c0.91565,-0.14066 1.24899,-0.96478 1.85266,-1.64151c0.49335,-0.55305 1.28618,-0.64934 1.94734,-1.19049c0.56021,-0.45853 1.44835,-0.40872 2.084,-0.88268c0.76883,-0.57326 1.4704,-0.70169 2.1375,-1.16249c0.72971,-0.50406 1.7785,-0.12151 2.57851,-0.12151c0.89999,0 1.80002,0.0054 2.7,0c0.88937,-0.00534 1.36461,-0.76775 1.936,-1c0.88321,-0.35899 1.44354,-0.72636 2.21066,-0.98933c0.79214,-0.27156 1.74541,0.27554 2.70667,-0.02133c0.71375,-0.22043 1.05029,-1.18233 1.73067,-1.70534c0.61128,-0.46989 1.61606,-0.27281 2.55884,-0.284c0.87817,-0.01042 1.75027,-0.28996 2.23582,-1.09984c0.43752,-0.72977 0.93179,-1.3907 1.55734,-1.87483c0.7458,-0.57719 1.564,-0.85866 2.39732,-1.192l0.16667,-0.83333" id="svg_10" stroke-width="2" stroke="#000" fill="none"/>
  <path t="59437,59565,59573,59589,59598,59615,59637,59645,59653,59670,59670,59686,59693,59704,59720,59728,59741,59741,59753,59789,59797,59805,59814,59831,59837,59837,59854,59871,59886,59903,59920,59936,59941,59955,59959,59974,59990,59990,60007,60015,60031,60045,60054,60054,60061,60085,60085,60101,60125,60125,60135,60141,60157,60204,60213,60230,60254,60261,60276,60301,60301,60317,60333,60333,60349,60349,60358,60369,60373,60373,60388,60413,60413,60429,60429,60439,60461,60485,60493,60509,60525,60536,60536,60565,60589,60589,60605,60613,60621,60645,60654,60669,60677,60686,60686" d="m213.51137,231.09091c-1,0 -1.80174,-0.02721 -2.7,0c-0.94414,0.02859 -1.50641,0.56186 -2.17867,1.22133c-0.61803,0.60628 -1.32133,0.77867 -2.22151,0.77867c-0.78516,0 -1.75116,-0.26018 -2.657,0.00017c-0.76982,0.22125 -1.4398,0.95712 -2.34283,0.99983c-0.89899,0.04253 -1.83035,-0.39294 -2.61465,0.08533c-0.80363,0.49007 -1.38972,0.82599 -2.28534,0.91467c-0.8457,0.08374 -1.27007,0.77367 -2.10001,1.22133c-0.64764,0.34933 -1.29596,0.97118 -1.98399,1.49467c-0.6136,0.46686 -1.61606,0.27359 -2.51601,0.284c-0.90018,0.01042 -1.6033,0.54318 -2.5,0.87849c-0.85063,0.31808 -1.52472,0.5163 -2.23332,0.95483c-0.73653,0.45583 -1.96107,-0.13011 -2.58134,0.45067c-0.56862,0.53242 -1.18533,0.716 -2.08533,0.716c-0.8,0 -1.45868,0.32092 -2.16667,0.83333c-0.59845,0.43312 -1.7032,-0.00156 -2.66666,0.33334c-0.67854,0.23587 -0.95479,1.48186 -1.6875,1.8125c-0.79185,0.35733 -1.78654,-0.17726 -2.67784,0.02216c-0.80705,0.18057 -1.23679,0.98003 -2.10133,0.99867c-0.89978,0.01939 -1.82211,0.19525 -2.39999,0.7045c-0.74046,0.65251 -1.46883,1.11841 -2.3,1.2955c-0.9812,0.20906 -1.58476,0.58459 -2.5,1c-0.79611,0.36134 -1.53596,0.73891 -2.3,1.084c-0.76814,0.34694 -1.49506,1.06929 -2.22083,1.39517c-0.94989,0.42651 -1.87653,0.20421 -2.64584,0.6875c-0.76413,0.48004 -0.98119,1.2637 -1.61867,1.748c-0.73148,0.55571 -1.81541,0.04868 -2.71466,0.08533c-0.70175,0.02861 -1.48029,0.54179 -2.2,1.19867c-0.5845,0.53348 -1.41779,0.79292 -2.2,1.22667c-0.82014,0.45479 -1.70685,0.4639 -2.60001,0.57466c-0.89923,0.11151 -1.28534,0.91599 -2.10001,1.22134l-0.7,0.49466" id="svg_11" stroke-width="2" stroke="#000" fill="none"/>
  <path t="61926,62093,62102,62110,62126,62134,62141,62149,62150,62158,62174,62182,62237,62277,62302,62334,62422,62438,62453,62494,62589,62654,62677,62854,62974,62981,63013,63037,63037,63053,63141,63173,63182,63190,63214,63222,63262,63270,63278,63310,63333,63357,63373,63437,63494,63534,63566,63576,63576,63581,63861,63885,63918,63957" d="m116.51137,270.09091c1.22133,0.87851 2.17365,0.96402 2.64733,1.7045c0.46448,0.72607 0.25719,1.74005 0.63667,2.49551c0.43559,0.86719 0.51939,1.63452 0.77317,2.5c0.25729,0.87744 0.70898,1.75381 1.3,2.24731c0.69609,0.58124 1.52951,1.04376 1.64284,1.88602c0.10882,0.80872 0.9192,1.10721 1.47916,1.6875c0.62957,0.65247 0.19381,1.96124 0.878,2.422c0.78347,0.52762 1.85146,0.1813 2.74268,0.05701c0.80174,-0.11182 0.90016,-1.09985 0.90016,-1.99985c0,-0.79999 0,-1.71466 0,-2.61066c0,-0.88934 0.11098,-1.90561 -0.52083,-2.38934c-0.67732,-0.51859 -1.159,-1.23376 -1.76318,-1.91602c-0.5265,-0.59454 -1.16261,-1.13779 -1.74133,-1.65866c-0.63786,-0.5741 -1.42364,-0.97058 -1.88933,-1.70932c-0.47289,-0.75015 -0.30608,-1.46332 -1.00134,-2c-0.63062,-0.48679 -1.39581,-0.90887 -1.79867,-1.51733c-0.54388,-0.82144 -1.164,-1.42001 -1.57066,-2.11334l-0.91467,-0.08533l-0.89999,0" id="svg_12" stroke-width="2" stroke="#000" fill="none"/>
  <path t="67182,67237,67237,67246,67262,67262,67269,67269,67279,67285,67294,67317,67349,67358,67373,67389,67390,67406" d="m227.51137,223.09091c1.16667,1 1.65363,1.56042 2.2955,2.3c0.57861,0.66669 0.68407,1.4856 1.06166,2.34816c0.29271,0.66867 1.35693,1.19876 1.63217,1.96251c0.29448,0.81712 0.67932,1.22417 0.98984,1.91016c0.36264,0.80116 0.02533,1.77917 0.30617,2.67784l0.51599,0.51599l0.91333,0.36934" id="svg_13" stroke-width="2" stroke="#000" fill="none"/>
  <path t="68278,68350,68350,68361,68366,68375,68375,68382,68394,68406,68422,68430,68469,68574,68582,68598,68630,68630" d="m243.51137,215.09091c1.39999,0.86133 1.81958,1.50403 2.38933,2.364c0.54572,0.8237 0.84566,1.5937 1.25801,2.336c0.45796,0.8244 1.14522,1.30043 1.35133,2.10133c0.22444,0.87215 0.68683,1.62125 0.94415,2.49867c0.25345,0.86417 0.34117,1.616 1.03185,2.136l0.31067,0.76399l0.51599,0.60001" id="svg_14" stroke-width="2" stroke="#000" fill="none"/>
  <path t="69494,69542,69550,69558,69574,69574,69590,69598,69598,69606,69614,69622,69622,69629,69646,69646,69654,69661,69670,69733,69742,69773" d="m261.51135,206.09091c1.56403,0.61067 1.84882,1.41264 2.00452,2.3c0.16296,0.9286 0.79654,1.50029 1.49548,2.2c0.59961,0.60027 1.30765,1.15288 1.48935,2.10001c0.17349,0.90439 -0.1781,1.75185 0.04666,2.53867c0.27148,0.95039 1.21719,1.40143 1.52802,2.04666c0.43076,0.89415 0.72,1.73067 1.39999,2.25067l0.0405,0.8595l0.42084,0.6685l0.85999,0.31999" id="svg_15" stroke-width="2" stroke="#000" fill="none"/>
  <path t="70438,70510,70510,70519,70526,70540,70540,70557,70557,70570,70570,70581,70581,70613" d="m282.51135,199.09091c1.16669,1 1.60129,1.58725 1.97467,2.39999c0.4075,0.88704 0.9335,1.58777 1.02084,2.35718c0.10101,0.88988 0.09457,1.82523 0.70984,2.49016c0.52725,0.56981 1.18033,1.40533 1.28568,2.10001l0.00897,1.006" id="svg_16" stroke-width="2" stroke="#000" fill="none"/>
  <path t="71229,71261,71269,71269,71277,71285,71285,71293,71293,71301,71318,71318,71325,71325,71334,71349" d="m295.51135,192.09091c1.60001,0.61067 2.30002,1.3 2.80002,1.8c0.69998,0.7 1.5011,1.3331 1.84283,1.95717c0.45428,0.82961 0.30258,1.83072 0.79315,2.60683c0.52969,0.83801 1.164,1.272 1.76266,2.11867l0.36536,0.65601l0.42532,0.87599l0.01065,0.78667" id="svg_17" stroke-width="2" stroke="#000" fill="none"/>
  <path t="72029,72069,72077,72078,72087,72087,72093,72093,72101,72109,72125" d="m316.51135,181.09091c0.97467,1.82533 1.08829,2.88298 1.52084,3.47917c0.58163,0.80167 1.28119,1.38544 1.422,2.17349c0.15216,0.85165 0.078,1.82651 0.40985,2.64734l0.52582,0.8" id="svg_18" stroke-width="2" stroke="#000" fill="none"/>
  <path t="72709,72757,72766,72766,72773,72789,72789,72797,72805,72806" d="m331.51135,176.09091c1.38934,0.86133 1.75531,1.85757 2.02536,2.58932c0.31299,0.84807 0.88931,1.61201 0.97333,2.29601l0.01199,0.94l0.15601,1.008l0.40799,0.756" id="svg_19" stroke-width="2" stroke="#000" fill="none"/>
  <path t="73357,73389,73397,73408,73416,73423,73423,73430,73440,73446,73446,73455,73455,73471" d="m343.51135,161.09091c0.64734,0.7045 0.67978,1.66826 1.02084,2.47917c0.31152,0.74066 0.87512,1.40025 1.06317,2.03816c0.29633,1.00517 0.80722,1.80342 1.08267,2.64934c0.27789,0.85341 0.66666,1.66666 0.82883,2.47166l0.57916,0.39766" id="svg_20" stroke-width="2" stroke="#000" fill="none"/>
  <path t="74117,74181,74197,74197,74197,74205,74205,74214,74215,74221,74221,74231,74237,74253,74253" d="m361.51135,155.09091c1.56403,0.57466 2,1.5 2,2.29733c0,0.759 -0.17239,1.80692 0.04169,2.64017c0.22711,0.88394 1.30859,0.92299 1.789,1.63184c0.45563,0.67232 0.522,1.67349 1.048,2.53067l0.28799,0.89999l0.40799,0.60001" id="svg_21" stroke-width="2" stroke="#000" fill="none"/>
  <path t="74877,74941,74951,74957,74965,74973,74973,74981,74989,74997,75013,75021,75021" d="m377.51135,143.09091c1.83334,0.16667 1.67795,1.13809 2.16669,1.83333c0.50327,0.71591 1.02643,1.29071 1.53784,1.86667c0.65021,0.73225 1.17398,1.39984 1.29547,2.32083l0,0.8405l0,0.972l0.05719,0.80501" id="svg_22" stroke-width="2" stroke="#000" fill="none"/>
  <path t="77892,78173,78181,78213,78221,78253,78269,78269,78269,78285,78285,78308,78356,78373,78381,78381,78404,78429,78444,78469,78485,78493,78510,78527,78543,78558,78566,78589,78589,78614,78622,78630,78637,78661,78686,78710,78719,78734,78734,78751,78790,78798,78806,78822,78838,78862,78870,78894,78902,78918,78927,78943,78950,78958,78990,78990,78999,79022,79061,79085,79119,79143,79158,79175,79184,79190,79206,79231,79246,79246,79267,79286,79302,79318,79342,79355,79375,79399,79430,79430,79440,79446,79502,79566,79576,79589,79605,79646,79686,79698,79702,79758,79776,79798,79806,79846,79861,79893,79910,79918,79941,79965,79998,80014,80037,80053,80053,80086,80125,80141,80151,80151,80166,80182,80198,80206,80206,80214,80221,80231,80237,80247,80247,80253,80270,80270,80278,80297,80298,80301,80301,80310,80317,80330,80350,80373,80383,80383,80391,80398,80406,80422,80422,80430,80485,80501,80513,80513,80517,80530,80543,80549,80589,80598,80622,80637,80653,80669,80680,80709,80725,80749,80775,80775,80790,80798,80829,80870,80894,80894,80904,80914,80930,80934,80947,80950,80957,80958,80974,81062,81071,81085,81102,81102,81114,81141,81151,81151,81163,81180,81183,81216,81222,81222,81237,81238,81270,81270,81286,81301,81313,81327,81333,81346,81349,81365,81389,81399,81407,81430,81469,81485,81496,81496,81501,81517,81529,81550,81559,81565,81580,81598,81607,81623,81630,81646,81654,81663,81678,81695" d="m219.51137,230.09091c1.22133,-0.87866 1.73792,-1.61014 2.436,-1.964c0.7673,-0.38895 1.86946,0.04242 2.73067,-0.20267c0.69017,-0.19641 1.42737,-0.58311 2.42433,-0.78065c0.83321,-0.1651 1.62257,-0.60089 2.24232,-1.21935c0.61945,-0.61815 1.20334,-1.15945 1.96667,-1.54933c0.75288,-0.38454 1.63805,-0.44679 2.25266,-0.93134c0.64944,-0.51201 1.61691,-0.4631 2.03134,-1.15399c0.47676,-0.79482 1.31546,-1.18066 2.216,-1.19867c0.89981,-0.01799 1.86058,0.19817 2.7,-0.16667c0.68456,-0.29753 1.23297,-1.22971 2,-1.66666c0.77986,-0.44426 1.18526,-0.85594 1.87866,-1.388c0.63771,-0.48932 1.3251,-0.69655 2.22134,-0.77884c0.91144,-0.08368 1.29648,-0.71732 1.89999,-1.479c0.49417,-0.62369 1.38171,-0.64737 2.05266,-1.16817c0.58377,-0.45313 1.42131,-0.55592 2.11401,-1.18599c0.59972,-0.5455 1.10663,-0.97205 1.74933,-1.45067c0.68657,-0.51131 1.384,-0.71591 2.284,-0.716c0.89984,-0.00009 1.48486,-0.45963 2.24283,-0.87849c0.65707,-0.36311 1.8107,0.04573 2.72385,-0.12151c0.78824,-0.14436 1.29498,-0.78813 1.83466,-1.284c0.5943,-0.54605 1.32034,-0.52112 2.19733,-0.71733c0.80707,-0.18057 1.21121,-1.10329 1.86267,-1.57333c0.72153,-0.5206 1.87805,-0.07909 2.577,-0.48251c0.6889,-0.39761 1.16345,-0.91495 2.06168,-0.94283c0.94412,-0.0293 1.29373,-0.92473 2.00452,-1c0.8912,-0.09438 1.68781,-0.44421 2.39548,-1.09984c0.59363,-0.54996 1.26016,-1.02943 1.95267,-1.5475c0.66223,-0.49541 1.67383,-0.16891 2.54733,-0.38866c0.86285,-0.21706 1.72543,-0.37207 2.39999,-0.98483c0.65567,-0.59561 1.22495,-0.72289 1.87869,-1.2005c0.69907,-0.51071 1.32132,-0.77867 2.22131,-0.77867c0.89999,0 1.59543,-0.26933 2.18402,-0.916c0.57764,-0.63463 1.29071,-0.79185 2.10532,-1.09467c0.73349,-0.27266 1.28067,-0.81085 2.1315,-1.01016c0.94226,-0.22073 1.63065,-0.72997 2.47916,-1.14584c0.76248,-0.37372 1.49985,-0.82066 2.40002,-0.83333c0.8999,-0.01266 1.63123,-0.3369 2.39999,-0.716c0.84521,-0.41681 1.80579,-0.19733 2.61066,-0.29466c0.92783,-0.11221 1.82388,-0.50298 2.42001,-1.188c0.55679,-0.63982 1.36932,-0.80133 2.26932,-0.80133c0.89999,0 1.68396,-0.11459 2.42084,-0.5c0.78448,-0.41031 1.64774,-0.3091 2.5845,-0.55717c0.82214,-0.21773 1.48804,-0.70316 2.49017,-0.89015c0.74188,-0.13844 1.7486,-0.51202 2.50433,-0.93134c0.79684,-0.44211 1.26535,-0.99265 2.10016,-1.12267c0.91547,-0.14259 1.73825,-0.47928 2.44284,-1.05135c0.61847,-0.50214 1.24384,-0.94666 2.1825,-0.94733c0.69067,-0.00049 1.79034,0.01465 2.57468,-0.42534c0.72733,-0.408 1.73355,-0.61346 2.24283,-1.27916c0.51831,-0.67751 1.07135,-0.89694 1.92117,-1.3315c0.69681,-0.35632 1.43506,-0.53145 2.15198,-0.964c0.62656,-0.37802 0.98871,-0.98103 1.884,-1c0.96448,-0.02043 1.5849,-0.48941 2.23334,-1.16667c0.6044,-0.63127 1.26794,-0.78554 2.16666,-0.83333c0.80341,-0.04272 1.45224,-0.6808 1.97467,-1.38933c0.50357,-0.68295 1.30603,-1.09282 2.12534,-1.48933c0.65665,-0.31779 1.55389,-0.60388 2.28934,-1.09601c0.66946,-0.44798 1.08426,-1.2634 1.78,-1.74133c0.73462,-0.50464 1.84628,-0.11095 2.62933,-0.36932c0.77371,-0.25529 1.54355,-0.80876 2.18051,-1.41467c0.49643,-0.47223 1.23633,-0.76784 1.82083,-1.30133c0.7197,-0.65688 1.57602,-0.98315 2.29984,-1.42017c0.72348,-0.4368 0.89301,-1.59419 1.70151,-1.77718c0.8765,-0.19836 1.73886,0.04062 2.68265,-0.28532c0.70828,-0.24461 1.64484,-0.58153 2.39999,-0.8c0.96188,-0.27827 1.73141,-0.40796 2.57434,-0.916c0.69144,-0.41673 0.97076,-1.36971 1.76318,-1.87849c0.74625,-0.47916 1.92737,0.21558 2.61182,-0.28818c0.65298,-0.48059 1.27106,-0.74464 2.16666,-0.83333c0.8457,-0.08374 1.28235,-0.95729 2.20001,-1c0.89902,-0.04184 1.97055,0.32312 2.51468,-0.17067c0.64948,-0.58939 0.63669,-1.77203 1.48532,-1.82933c0.89795,-0.06062 2.01279,0.41399 2.63333,-0.16667c0.62689,-0.58659 0.95935,-1.07104 1.16684,-1.93317c0.20218,-0.84012 0.73901,-1.50784 1.43582,-1.86417c0.84982,-0.43456 1.564,-0.536 2.21133,-1.08867l0.43668,-0.66333" id="svg_23" stroke-width="2" stroke="#000" fill="none"/>
  <path t="82501,82541,82550,82565,82579,82582,82590,82598,82606,82622,82639,82693,82693,82702,82710,82726,82733,82742,82750,82758,82774,82774,82790,82837,82845,82845,82862,82878,82885,82902,82902,82926,82926,82942,82950,82958,82966,82982,82990,83014,83022,83038,83046,83055,83069,83086,83094,83102,83110,83118,83134,83144,83157,83176,83176,83182,83190,83214,83246,83262,83262,83294,83302,83302,83318,83334,83342,83360,83366,83378,83382,83406,83406,83422,83439,83470,83479,83479,83502,83526,83549,83550,83565,83573,83590,83629,83654,83662,83678,83685,83701,83710,83725,83734,83734,83742,83750,83750" d="m386.51135,148.09091c-1.69998,0.05716 -2.52359,0.4604 -3.29547,0.94733c-0.70242,0.44312 -1.38815,0.72365 -2.18369,1.0735c-0.71204,0.31313 -1.36023,0.56934 -2.16815,1.03633c-0.68433,0.39555 -1.35309,0.91748 -2.15268,0.94284c-0.90137,0.02859 -1.67114,0.52574 -2.14734,1.2955c-0.40308,0.65155 -1.51154,0.5229 -2.02731,1.1405c-0.52786,0.63208 -1.01605,1.45146 -1.82535,1.56267c-0.83701,0.11501 -1.35995,0.87279 -2.20001,1.00133c-0.79526,0.12169 -1.53824,0.74265 -2.39999,0.964c-0.87277,0.2242 -1.71567,0.46828 -2.10001,1.05682c-0.52164,0.79877 -1.03027,1.71449 -1.89999,1.94318c-0.87109,0.22905 -1.80859,-0.08801 -2.69983,0.03616c-0.80188,0.11172 -1.25586,0.97115 -2.10016,0.99983c-0.89932,0.03055 -1.62714,0.35193 -2.15268,0.94733c-0.56326,0.63814 -1.2988,1.10278 -1.69998,1.75717c-0.47308,0.77168 -1.27386,1.07239 -2.146,1.29683c-0.80093,0.20612 -1.25336,0.8282 -2.20135,1.00934c-0.83038,0.15866 -1.58633,0.90143 -2.29999,0.98483c-0.89392,0.10446 -1.81049,-0.13145 -2.68933,0.0045c-0.92889,0.14369 -1.73181,0.61359 -2.32535,1.084c-0.73868,0.58545 -1.23911,1.15814 -1.98532,1.56334c-0.76114,0.4133 -1.70001,0.35266 -2.68933,0.35266c-0.896,0 -1.71753,-0.11084 -2.61069,0c-0.89926,0.1116 -1.03073,1.14427 -1.7045,1.64284c-0.69427,0.51373 -1.77594,0.20599 -2.59549,0.71432c-0.80765,0.50095 -1.11533,1.31676 -2,1.58566c-0.86292,0.2623 -1.73663,0.3833 -2.5,0.77318c-0.75287,0.38454 -1.65302,0.41592 -2.1955,0.93134c-0.52753,0.50121 -1.38623,0.80907 -2.20316,1.26866c-0.70267,0.39531 -1.2099,1.07762 -1.80136,1.584c-0.59442,0.50893 -1.54019,0.45805 -2.48398,0.784c-0.70828,0.24461 -1.63068,0.632 -2.51602,0.88268l-0.59998,0.444" id="svg_24" stroke-width="2" stroke="#000" fill="none"/>
  <path t="84566,84661,84674,84686,84703,84718,84718,84726,84726,84733,84750,84750,84750,84758,84766,84766,84774,84774,84782,84790,84790,84797,84797,84806,84813,84830,84846,84886,84886,84917,84925,84925,84941,84950,84958,84974,84990,84990,84998,85006,85014,85022,85054,85070,85070,85078,85103,85103,85110,85126,85143,85158,85158,85166,85173,85189,85189,85198,85214,85239,85239,85270,85280,85288,85303,85303,85310,85341,85341,85353,85353,85366,85366,85376,85377,85397,85408,85408,85413,85437,85445,85462,85478,85494,85510,85510,85526,85536,85559,85559,85566,85574,85582,85597,85608,85614,85614,85629,85638,85658,85661,85674,85674,85677,85691,85710,85726,85726,85726,85735,85742,85749,85773,85791,85791,85808,85829,85885,85885,85909" d="m222.51137,234.09091c1.57466,-1.036 2.21422,-1.54918 2.83333,-2.16667c0.62009,-0.61847 1.3347,-0.99658 1.992,-1.25867c1.0101,-0.40276 1.80357,-0.52888 2.58533,-1.01067c0.80298,-0.49486 1.43355,-0.93304 2.10535,-1.364c0.87436,-0.56088 1.39925,-1.31332 2.12,-1.76399c0.77806,-0.4865 1.71512,-0.35754 2.61133,-0.44051c0.92957,-0.08604 1.54524,-0.51366 2.586,-0.82883c0.7388,-0.22372 1.70146,-0.11368 2.46667,-0.51933c0.84579,-0.44838 1.38486,-1.10696 2.14282,-1.52583c0.65707,-0.36313 1.87595,0.07109 2.65701,-0.343c0.64207,-0.34041 0.83258,-1.54738 1.60466,-1.774c0.85927,-0.25223 1.81665,0.01898 2.7795,-0.00583c0.69131,-0.01782 1.86899,-0.10513 2.34933,-0.99867c0.40239,-0.74852 0.60767,-1.24553 1.33334,-1.83333c0.69743,-0.56493 1.39374,-0.8203 2.13333,-1.46217c0.66669,-0.5786 1.47711,-0.82796 2.29999,-1.27916c0.78015,-0.42776 1.72818,-0.33401 2.56668,-0.59201c0.84714,-0.26065 1.26013,-1.03654 2,-1.66666c0.68329,-0.58192 1.42136,-0.76624 2.23334,-1.14134c0.88776,-0.41011 1.54645,-1.08832 2.09998,-1.5045c0.73907,-0.55569 1.70001,-0.52083 2.60001,-0.52083c0.89999,0 1.7218,-0.05286 2.46402,-0.57466c0.79413,-0.5583 1.4202,-1.0359 2.41464,-1.30383c0.75586,-0.20364 1.68478,-0.0687 2.42584,-0.17868c1.00867,-0.1497 1.72479,-0.63737 2.71017,-0.8575c0.86801,-0.19391 1.87936,0.39905 2.60001,-0.17065c0.71008,-0.56134 1.06635,-1.03481 1.88531,-1.48933c0.78207,-0.43405 1.51181,-0.86768 2.39999,-1.25867c0.65765,-0.28951 1.44836,-0.40872 2.08401,-0.88268c0.7688,-0.57326 1.83963,-0.21976 2.39517,-0.80482c0.68851,-0.72508 1.05569,-1.33015 1.92084,-1.48984c0.83136,-0.15344 1.58737,-0.9043 2.39999,-0.98801c0.89526,-0.09221 1.81918,0.16389 2.69998,-0.02216c0.84741,-0.17899 1.49045,-0.86841 2.30002,-0.97784c0.89377,-0.12082 1.59149,-0.66643 2.42166,-1.0015c0.88983,-0.35913 1.62677,-0.39516 2.29434,-0.80116c0.88165,-0.53619 1.6955,-1.03186 2.58383,-1.19884c0.79575,-0.14958 1.08884,-1.12782 1.60468,-1.69983c0.65579,-0.7272 1.39548,-1.17867 2.29547,-1.46667l0.56403,-0.444l0.41516,-0.8685" id="svg_25" stroke-width="2" stroke="#000" fill="none"/>
  <path t="86670,86749,86768,86781,86805,86805,86821,86840,86845,86869,86869,86885,86895,86907,86909,86909,86925,86934,86934,86942,86950,86958,86974,86981,86998,87022,87022,87030,87038,87038,87056,87061,87074,87078,87078,87091,87094,87108,87134,87142,87151,87168,87174,87191,87198,87208,87214,87230,87246,87257,87285,87296,87304,87310,87325,87341,87341,87349,87362,87376,87383,87412,87416,87427,87445,87478,87502,87519,87519,87526,87542,87551,87567,87578,87579,87587,87590,87623,87639,87662,87674,87689,87697,87713,87733,87733,87739,87750,87767,87776,87790,87806,87815,87815,87825,87825" d="m225.51137,239.09091c1.8,0 2.70857,0.09933 3.52083,-0.02083c0.9868,-0.14598 1.69255,-0.51593 2.36934,-1.27467c0.53133,-0.59567 1.6169,-0.54431 2.02583,-1.27251c0.36205,-0.64468 0.70961,-1.41913 1.48399,-1.85733c0.81677,-0.4622 1.7263,-0.61909 2.24284,-1.27916c0.53123,-0.67882 1.0864,-1.15675 1.8745,-1.3795c0.87846,-0.24828 1.67825,-0.87329 2.56667,-0.916c0.91495,-0.04399 1.34109,-0.41452 1.97316,-0.9955c0.70549,-0.64848 1.50327,-0.65813 2.24284,-1.3c0.66669,-0.57861 1.53455,-0.5079 2.39999,-0.76167c0.87744,-0.25729 1.64706,-0.77924 2.40001,-1.16415c0.7632,-0.39017 1.61807,-0.35005 2.46399,-0.81467c0.65587,-0.36024 0.84897,-1.42717 1.63467,-1.88c0.6985,-0.40259 1.27504,-0.83348 2.09682,-1.0885c0.76309,-0.2368 1.30698,-0.62703 2.18369,-1.01633c0.71091,-0.31567 1.22534,-0.97691 2.12082,-0.97917c0.87918,-0.00221 1.49536,-0.55785 2.34735,-0.94284c0.77997,-0.35246 1.49054,-0.30255 2.21933,-0.89049c0.69855,-0.56352 1.52374,-0.59071 2.3125,-1.16667c0.64029,-0.46753 1.22543,-0.9874 2.12082,-1c0.90015,-0.01268 1.65887,-0.42131 2.49985,-0.87866c0.7475,-0.40652 1.26535,-0.99265 2.10016,-1.12267c0.91547,-0.14259 1.51297,-0.61652 2.39999,-1.024c0.81277,-0.37338 1.59698,-0.93196 2.5,-0.97467c0.89899,-0.04253 1.73407,0.19463 2.60001,-0.05717c0.75528,-0.21962 0.89005,-1.33199 1.46667,-1.94283c0.55008,-0.5827 1.26877,-0.98199 2.13333,-1c0.89847,-0.01871 1.91711,0.16393 2.69998,-0.16667c0.78226,-0.33034 1.39749,-0.93005 2.06134,-1.40799c0.71814,-0.51703 1.58646,-0.74522 2.22269,-1.34134c0.58408,-0.54724 1.15881,-1.18384 1.73682,-1.56317l0.95767,-0.39966l0.82016,-0.2905" id="svg_26" stroke-width="2" stroke="#000" fill="none"/>
  <path t="90173,90300,90317,90405" d="m395.51135,131.09091" id="svg_27" stroke-width="2" stroke="#000" fill="none"/>
  <path t="91221,91308,91325,91348" d="m394.51135,132.09091" id="svg_28" stroke-width="2" stroke="#000" fill="none"/>
  <path t="92365,92508,92517,92532,92540,92557,92573,92596,92628" d="m393.51135,140.09091c0,-1.7 0,-2.60001 0,-3.5c0,-0.89999 0,-1.8 0,-2.7l0,-0.90001l0,-0.99983" id="svg_29" stroke-width="2" stroke="#000" fill="none"/>
  <path t="93277,93372,93388,93404,93420,93420,93428,93436" d="m406.51135,140.09091c0,-1.7 0,-2.60001 0,-3.52083c0,-0.96317 0,-1.65384 0.00452,-2.7175l0.42084,-0.73634" id="svg_30" stroke-width="2" stroke="#000" fill="none"/>
  <path t="93924,94012,94021,94036,94044,94052,94060,94068,94068" d="m417.51135,139.09091c0,-1.7 0,-2.60001 0,-3.5c0,-0.89999 0.00452,-1.8 0.28534,-2.69867l0.71466,-0.63466l0.71469,-0.25067" id="svg_31" stroke-width="2" stroke="#000" fill="none"/>
  <path t="94644,94732,94756,94756,94774,94796,94828" d="m429.51135,138.09091c0,-1.82533 0,-2.83333 0,-3.6955l0,-0.90451l0.02084,-0.89999l0.33185,-0.7955" id="svg_32" stroke-width="2" stroke="#000" fill="none"/>
  <path t="95485,95596,95605,95612,95636" d="m438.51135,140.09091c-0.99548,-1.7 -1.03598,-2.60001 -1.42532,-3.39999l-0.49066,-0.8" id="svg_33" stroke-width="2" stroke="#000" fill="none"/>
  <path t="96766,96838,96846,96862,96879,96909,96928,96949,96965,96981" d="m382.51135,140.09091c0,-1.7 0,-2.60001 0,-3.5c0,-0.89999 0,-1.8 0,-2.7955l0,-0.87117l0,-0.93317l0,-0.84749" id="svg_34" stroke-width="2" stroke="#000" fill="none"/>
  <polyline timestamps="97957,98093,98109" startTime="1448795469665" id="svg_35" points="436.51136684417725,138.09091091156006 436.51136684417725,136.39091091156004 436.51136684417725,135.49091091156004 " stroke-linecap="round" stroke-width="2" stroke="#000" fill="none"/>
  <path t="99333,99405,99421,99429,99437,99453,99453,99469,99486,99486,99502,99502,99509,99519,99525,99533,99541,99565,99573,99573,99589,99613,99621,99621,99637,99669,99677,99693,99693,99709" d="m388.51135,151.09091c1.70001,0 2.78519,0.33978 3.56403,-0.036c0.68448,-0.33025 1.11731,-1.31831 1.78781,-1.60684c0.97845,-0.42104 1.79178,-0.75021 2.53351,-1.07317c0.89136,-0.38809 1.66113,-0.0634 2.70401,-0.31999c0.87326,-0.21486 1.64349,-0.64493 2.32666,-1.248c0.59256,-0.5231 1.42032,-0.57831 2.18399,-0.93733c0.7757,-0.36469 1.5007,-0.80255 2.31067,-1.20401c0.91132,-0.45169 1.67877,-0.36775 2.47949,-0.92732c0.67831,-0.47403 1.40985,-1 2.10983,-1.48067l0.80002,-0.16534l0.91467,-0.00133" id="svg_36" stroke-width="2" stroke="#000" fill="none"/>
  <path t="100709,100781,100797,100813,100821,100821,100829,100837,100837,100845,100845,100853,100853,100861,100861,100869,100877,100877,100885,100893,100909,100925,100941,100989,100989,101021" d="m383.51135,145.09091c1.70001,0 2.70001,0 3.52084,0c0.96317,0 1.65384,0 2.7265,0c0.91934,0 1.80063,0.14163 2.73132,-0.2215c0.70313,-0.27434 1.32077,-0.92052 2.02133,-1.25768c0.95245,-0.45837 1.7558,-0.45021 2.64819,-0.52533c1.02768,-0.0865 1.26337,-0.94984 1.96249,-1.55949c0.66693,-0.58159 1.68933,-0.436 2.58798,-0.436c0.88535,0 1.80133,0 2.60135,0l0.91467,-0.08533" id="svg_37" stroke-width="2" stroke="#000" fill="none"/>
  <path t="101477,101533,101541,101541,101549,101557,101567,101573,101573,101581,101581,101589,101605,101613" d="m384.51135,141.09091c0.87885,-1.22133 1.47443,-1.76965 2.14935,-2.02533c0.89401,-0.33867 1.44141,-1.07144 1.96048,-1.67917c0.54907,-0.64284 1.28491,-0.9966 2.28751,-1.2115c0.87881,-0.18839 1.58185,-0.60483 1.95984,-1.3795l0.74283,-0.58299" id="svg_38" stroke-width="2" stroke="#000" fill="none"/>
  <path t="102661,102749,102749,102773,102773,102790,102799,102799,102806,102813,102823,102824,102829,102839,102840,102845,102861,102877,102877,102889,102893,102917,102927,102927,102939,102956,102958,102958,102974,102982,102990,102999,103015,103039,103045,103053,103069,103089,103105,103125,103149,103165,103181,103190,103205,103222,103229,103245,103269,103285,103301,103309,103333" d="m390.51135,158.09091c-1,-1 -0.95346,-1.78024 -0.13864,-2.39999c0.61151,-0.46513 1.3013,-1.0358 2.23865,-1.47867c0.65961,-0.31163 1.46042,-0.77496 2.20001,-1.41684c0.66669,-0.5786 1.5105,-0.60323 2.336,-0.74049c0.87027,-0.14471 1.60596,-0.77174 2.53198,-0.96268c0.83554,-0.17229 1.79712,-0.2469 2.42136,-0.57599c0.87244,-0.45993 1.33008,-1.10088 1.84665,-1.82533c0.56009,-0.78549 1.26401,-1.24284 2.064,-1.60001c0.80002,-0.35716 1.42844,-1.08748 2.10001,-1.564c0.72568,-0.51489 1.27393,-1.16159 2.01068,-1.42534c0.83734,-0.29974 1.91541,0.26726 2.742,-0.01517c0.77139,-0.26357 1.05093,-1.18849 1.73132,-1.7115c0.6113,-0.46991 1.61652,-0.34021 2.41599,-0.784c0.79602,-0.44188 1.72992,-0.37897 2.59985,-0.50017c0.80188,-0.11172 1.28238,-0.78914 2.09882,-1.00116c0.80048,-0.20787 1.32199,-0.98825 2.20135,-0.99867c0.89993,-0.01067 1.79865,-0.00133 2.54733,-0.35266l0.48865,-0.61134" id="svg_39" stroke-width="2" stroke="#000" fill="none"/>
 </g>
 <g display="none">
  <title>muse_image</title>
  <image xlink:href="http://farm1.static.flickr.com/163/424633997_79eec62fda.jpg" id="muse" height="480" width="365" y="0" x="137.5"/>
 </g>
 <g display="none">
  <title>bbox</title>
  <rect stroke="#f00" fill="none" stroke-width="3" height="285.12" width="364.04199" y="49.92" x="137.5" id="bbox"/>
 </g>
</svg>
