<svg width="640" height="480" xmlns="http://www.w3.org/2000/svg" xmlns:svg="http://www.w3.org/2000/svg" xmlns:xlink="http://www.w3.org/1999/xlink">
 <!-- Sketchy ANNOTATION
  ImageNet ID: n03272010_6725
  URL: http://farm1.static.flickr.com/6/78010527_7398e46227.jpg
  Image Width: 500
  Image Height: 413
  BBox X: 189
  BBox Y: 122
  BBox Width: 307
  BBox Height: 240
  Exposure: 2000ms
  Synset Label: guitar
  Synset ID: n03467517
  Worker Tag: couple with guitar
  Sanity Check: 
   Saved
  Comment: 
   {}
  Worker ID: A1P7U2ULSAE7YL
  Assignment ID: 3GA6AFUKOOOC4DZH9RS3XO9AXAQH3M
  HIT ID: 3JGHED38EDRE47SZV1UF7LL8PY5Y7Q
  Work Time: 145s
  Worker Score: 0.7857
 END ANNOTATION -->
 <g display="inline">
  <title>Layer 1</title>
  <path t="0,166,181,205,229,237,277,309,325,343,365,381,381,413,438,461,477,485,525,541,549,549,557,573,581,598,614,614,622,630,638,670,678,686,702,726,742,758,766,806,838,846,846,870,886,895,910,934,934,950,950,968,999,999,1023,1055,1055,1071,1071,1081,1103,1127,1135,1175,1191,1199,1199,1207,1231,1247,1247,1255,1263,1271,1279,1287,1319,1327,1336,1344,1344,1361,1383,1391,1407,1415,1431,1439,1463,1479,1487,1511,1527,1543,1551,1567,1567,1583,1599,1623,1631,1648,1664,1664,1680,1687,1697,1704,1727,1751,1759,1760,1767,1839,1855,1887,1887,1927,1943,1951,1951,1960,1967,1976,1999,2007,2023,2031,2055,2064,2079,2088,2088,2111,2119,2130,2135,2151,2151,2167,2167,2167,2176,2193,2199,2215,2215,2223,2231,2247,2255,2264,2271,2279,2295,2303,2313,2319,2329,2343,2351,2351,2359,2376,2392,2400,2407,2415,2431,2447,2448,2455,2471,2480,2496,2503,2503,2512,2529,2535,2535,2545,2551,2559,2559,2567,2567,2576,2576,2593,2593,2593,2609,2615,2623,2623,2639,2639,2647,2648,2648,2655,2655,2663,2671,2671,2687,2687,2695,2703,2713,2713,2719,2729,2729,2735,2746,2746,2752,2752,2762,2768,2775,2776,2784,2784,2792,2800,2800,2809,2816,2816,2823,2824,2831,2848,2848,2855,2856,2856,2865,2865,2871,2872,2882,2882,2887,2899,2915,2915,2919,2920,2932,2935,2948,2952,2952,2960,2968,2979,2984,2985,2992,3000,3015,3015,3015,3023,3024,3033,3039,3040,3055,3071,3071,3080,3080,3087,3095,3103,3115,3135,3145,3145,3152,3163,3168,3177,3215,3239,3248,3271,3287,3298,3315,3335,3351,3365,3368,3368,3383,3384,3392,3400,3400,3416,3416,3432,3432,3440,3440,3440,3449,3455,3471,3471,3482,3482,3487,3498,3503,3514,3515,3519,3532,3535,3535,3548,3551,3551,3564,3565,3575,3575,3592,3592,3600,3601,3615,3631,3632,3640,3640,3655,3665,3671,3687,3687,3698,3698,3703,3704,3715,3715,3719,3731,3732,3744,3751,3751,3761,3782,3782,3784,3785,3799,3808,3816,3825,3825,3841,3841,3848,3856,3856,3866,3871,3872,3881,3881,3887,3896,3896,3903,3915,3919,3927,3948,3949,3951,3965,3965,3968,3968,3983,3991,4000,4016,4024,4033,4033,4041,4048,4055,4071,4087,4087,4098,4099,4103,4114,4115,4128,4135,4136,4147,4167,4191,4201,4208,4216,4224,4241,4249,4255,4265,4281,4287,4311,4321,4327,4347,4360,4384,4394,4407,4408,4424,4432,4455,4471,4481,4487,4527,4527,4551,4561,4577,4594,4600,4623,4639,4655,4655,4671,4687,4703,4703,4719,4731,4735,4747,4751,4760,4761,4767,4777,4793,4807,4817,4826,4840,4848,4848,4863,4873,4873,4881,4887,4888,4897,4898,4903,4913,4919,4919,4930,4935,4936,4936,4946,4963,4977,4992,4992,5000,5013,5016,5032,5040,5040,5048,5056,5064,5064,5073,5081,5081,5097,5127,5127,5138,5143,5151,5164,5164,5167,5180,5184,5193,5193,5216,5224,5224,5239,5256,5264,5280,5288,5297,5303,5314,5319,5319,5330,5336,5336,5343,5351,5363,5364,5368,5379,5396,5400,5409,5416,5423,5439,5440,5448,5456,5473,5481,5489,5490,5497,5513,5519,5527,5535,5536,5543,5543,5562,5576,5584,5595,5600,5609,5616,5631,5639,5639,5648,5663,5673,5681,5681,5696,5713,5730,5730,5735,5736,5752,5765,5768,5768,5776,5776,5796,5796,5800,5813,5821,5824,5824,5841,5841,5849,5849,5849,5855,5856,5872,5888,5889,5904,5904,5919,5919,5930,5935,5947,5947,5951,5951,5963,5967,5983,5995,5996,6009,6025,6032,6042,6048,6063,6064,6079,6079,6089,6105,6112,6130,6145,6151,6152,6162,6175,6183,6192,6200,6215,6231,6245,6263,6279,6335,6347,6375,6399,6399,6423,6439,6449,6449,6463,6471,6480,6495,6535,6559,6575,6592,6600,6615,6625,6632,6655,6655,6671,6687,6697,6712,6728,6729,6736,6759,6769,6770,6775,6792,6799,6807,6815,6815,6831,6847,6847,6863,6879,6889,6913,6922,6936,6936,6951,6959,6976,6976,7007,7047,7057,7079,7087,7096,7111,7127,7135,7151,7175,7175,7191,7216,7228,7255,7271,7271,7295,7359,7431,7471,7511,7551,7559" d="m359.51135,292.09091c-1.69998,0 -2.6196,0.00195 -3.39999,-0.42532c-0.82257,-0.45038 -1.70715,-0.45871 -2.62082,-0.57468c-0.87891,-0.11157 -1.26151,-0.95728 -2.17917,-1c-0.89902,-0.04184 -1.80002,0 -2.60001,0c-0.89999,0 -1.79999,0 -2.70001,0c-0.89999,0 -1.79547,0 -2.7215,0c-0.87848,0 -1.7785,0 -2.57849,0c-0.89999,0 -1.81961,0.00195 -2.60001,-0.42532c-0.82257,-0.45038 -1.63824,-0.40112 -2.39999,-0.66c-0.88791,-0.30176 -1.8548,-0.70953 -2.18933,-1.48935c-0.33545,-0.78201 -0.70615,-1.07053 -1.48984,-1.44617c-0.70322,-0.33707 -0.23172,-1.53113 -0.53149,-2.3685c-0.26373,-0.73676 -0.78394,-1.24365 -0.98935,-2.17465c-0.18741,-0.84946 -1.0929,-1.36063 -1.564,-2.03601c-0.51169,-0.73358 -0.436,-1.69998 -0.436,-2.60001c0,-0.89999 0,-1.79999 0,-2.55716c0,-0.89551 0,-1.75882 0,-2.70117c0,-0.9845 0,-1.72699 0,-2.65765c0,-1.05066 0,-1.70935 0,-2.71735c0,-0.86215 0,-1.76666 0,-2.66666c0,-0.89999 0,-1.7955 0,-2.7215c0,-0.87851 -0.02539,-1.7789 0,-2.57849c0.02859,-0.9014 0.62918,-1.67169 0.87851,-2.52135c0.24228,-0.82568 -0.12796,-1.91507 0.34283,-2.55733c0.51184,-0.69824 0.61511,-1.43825 1.20401,-2.08534c0.46863,-0.51495 0.57465,-1.23599 0.57465,-2.136c0,-0.89999 0.1243,-1.67744 0.57468,-2.5c0.42728,-0.78038 0.42532,-1.7 0.42532,-2.59999c0,-0.90001 0,-1.8 0,-2.67867c0,-0.82584 0,-1.72134 0,-2.62134c0,-0.89999 0,-1.8 0,-2.7c0,-0.90001 0,-1.8 0,-2.60001c0,-0.89999 0.0058,-1.76401 0,-2.72083c-0.00534,-0.87921 -0.39423,-1.61375 -0.83331,-2.47917c-0.34268,-0.67538 -0.93027,-1.31114 -1.51935,-1.94733c-0.53296,-0.57559 -1.19809,-0.99286 -1.94733,-1.40533c-0.83862,-0.4617 -1.70087,-0.61015 -2.5,-0.64734c-0.91766,-0.04271 -1.4147,-0.93909 -2.25266,-1c-0.94485,-0.06868 -1.74734,0 -2.64734,0c-0.82083,0 -1.784,-0.00218 -2.64734,0c-0.89099,0.00226 -1.63715,0.4165 -2.15268,1c-0.56357,0.63786 -1.06036,1.20784 -1.72131,1.87866c-0.60587,0.61494 -1.22394,0.91766 -1.72601,1.4785c-0.60486,0.67566 -1.17383,1.25636 -1.76733,1.72684c-0.73853,0.58545 -1.02505,1.5226 -1.72131,1.88c-0.76968,0.39511 -1.65201,0.48788 -2.08484,1.05682c-0.62845,0.82603 -1.38846,1.25735 -1.90985,1.86317c-0.58167,0.67584 -0.89575,1.62125 -1.40265,2.28267c-0.54596,0.71239 -0.814,1.53333 -1.16669,2.33333c-0.35266,0.8 -0.45236,1.79346 -1.00449,2.44283c-0.48392,0.56917 -0.80002,1.16231 -1.34818,1.94734c-0.46921,0.67195 -0.63004,1.42117 -1.14734,2.10983c-0.46997,0.62567 -0.44708,1.53473 -0.85266,2.3c-0.4483,0.84589 -0.44586,1.53598 -0.7045,2.39999c-0.25702,0.85858 -0.86395,1.64018 -1.36816,2.27467c-0.48392,0.60896 -0.44135,1.43593 -0.57916,2.32533c-0.14435,0.93167 -0.85754,1.44601 -1.38483,2.09999c-0.60001,0.7442 -0.40643,1.7847 -0.89468,2.51733c-0.44003,0.66028 -0.52957,1.64172 -1.23682,2.04102c-0.76755,0.43335 -1.63641,0.64151 -2.07916,1.19098c-0.63757,0.79126 -1.27783,1.33356 -1.68533,2.052c-0.42273,0.7453 -0.95859,1.49481 -1.47183,2.146c-0.65485,0.83087 -1.32401,1.06232 -2.07617,1.81934c-0.59149,0.59531 -0.64441,1.45657 -1.16669,2.29169c-0.44186,0.70651 -1.41885,0.97961 -1.88531,1.42831c-0.78598,0.7561 -1.32385,1.3255 -2.11469,2.11334c-0.59436,0.59213 -1.08612,1.24432 -1.97849,1.75717c-0.6709,0.38559 -1.54001,0.74512 -2.12149,1.34299c-0.62036,0.63785 -1.09662,1.38364 -1.54285,2.19c-0.43915,0.79361 -1.0961,1.43585 -2.00983,1.65717c-0.68286,0.16541 -1.60669,0.3909 -2.34735,1.05267c-0.61404,0.54865 -1.45044,0.86722 -2.20132,1.28534c-0.74857,0.41684 -1.42657,1.06485 -2.146,1.35748c-0.97821,0.39789 -1.82211,0.44226 -2.52466,0.79318c-0.7308,0.36505 -1.70572,0.90067 -2.47083,1.20682c-0.88214,0.353 -1.7793,0.55243 -2.35718,1.06168c-0.74048,0.6525 -1.46884,1.11841 -2.3,1.2955c-0.9812,0.20905 -1.55531,0.65384 -2.41068,0.97467c-0.88353,0.33139 -1.58751,0.60129 -2.58932,0.85867c-0.78683,0.20215 -1.61317,0.20572 -2.60001,0.51932c-0.81248,0.25821 -1.60695,0.48508 -2.564,0.67267c-0.82211,0.16113 -1.54483,0.59155 -2.436,1c-0.81308,0.37265 -1.61134,0.85416 -2.28532,1.05865c-0.95699,0.29034 -1.72237,0.42099 -2.573,0.91602c-0.71996,0.41898 -1.4025,0.98199 -2.375,1c-0.75589,0.01401 -1.85246,-0.10767 -2.15601,0.61066c-0.37247,0.88144 -0.71907,1.35956 -1.528,1.388c-1.07135,0.03766 -1.9496,-0.08215 -2.80417,0.444c-0.55916,0.34427 -1.23827,1.08649 -2.07716,1.388c-0.9118,0.3277 -1.77002,0.66611 -2.60133,1.00269c-0.7572,0.30658 -1.65773,0.13809 -2.48399,0.452c-0.71368,0.27115 -1.57314,1.00095 -2.2115,1.35748c-0.84566,0.47229 -1.71077,0.45355 -2.35718,1.00452c-0.6044,0.51514 -1.22926,1.10291 -1.94733,1.51932c-0.72507,0.42047 -1.155,1.26691 -1.64734,1.88602c-0.51474,0.64728 -0.68367,1.3988 -1.18599,2.11398c-0.48846,0.69543 -0.16667,1.78067 -0.16667,2.53784c0,0.89551 0,1.7955 0,2.6955c0,0.89999 -0.10832,1.86032 0.35266,2.55185c0.46259,0.69391 0.62117,1.4805 0.64751,2.49081c0.01845,0.70734 0.60004,1.40549 1.29984,1.91901c0.5845,0.42892 1.00974,1.29037 1.39999,2.04285c0.51288,0.98892 0.80151,1.59473 1.3,2.59549c0.2964,0.59503 0.69043,1.52249 0.97467,2.36401c0.28525,0.84451 0.72337,1.70599 1.13516,2.336c0.46251,0.70758 1.56116,0.98117 1.86884,1.89999c0.28609,0.85434 0.37444,1.70374 1.02133,2.39999c0.5605,0.60327 0.86549,1.40988 1.0045,2.29999c0.1279,0.819 0.69887,1.40115 1.39549,2.10001c0.69888,0.70114 1.22562,1.17545 1.90001,1.90451c0.52043,0.56262 0.94365,1.39188 1.45717,2.04282c0.6546,0.8298 1.45793,1.18335 2.22116,1.75269c0.61078,0.4556 0.95425,1.47882 1.58966,2.10132c0.51851,0.50797 1.09001,1.15799 1.44667,1.93735c0.40086,0.87601 1.42987,0.76584 2.18533,1.14532c0.8672,0.43561 1.59496,0.77094 2.284,1.28534c0.54942,0.41019 1.34933,1.26401 1.88,1.79468c0.73601,0.73599 1.23601,1.23599 1.936,1.93597c0.70001,0.70001 1.27977,1.30609 2.09999,1.67468c0.78279,0.35178 1.4003,0.82639 2.10001,1.52533c0.6004,0.59976 1.23332,1.23663 1.98267,1.69867c0.78445,0.48367 1.69035,0.69873 2.51733,0.80133c0.89941,0.1116 1.33333,1 2,1.5c0.66667,0.5 0.92749,1.26041 1.0045,2.14816c0.08913,1.02747 0.81473,1.40637 1.51633,1.87268c0.82278,0.54684 1.45206,1.03253 2.45767,1.35782c0.702,0.22708 1.49939,0.73013 2.34265,1c0.79105,0.25314 1.46683,0.64587 1.96417,1.32001c0.56741,0.76913 1.45987,1.00891 1.88135,1.80133c0.34073,0.64059 0.75778,1.58743 1.40265,2.20132c0.54605,0.51981 1.40988,1.11932 1.90985,1.77783c0.52155,0.68695 1.19415,1.30185 1.74216,1.89951c0.58508,0.63812 0.56955,1.40097 1.00018,2.22116c0.33783,0.64343 1.5007,0.74741 2.16782,1.33618c0.69492,0.61328 1.08743,1.33829 1.52802,2.13333c0.39059,0.70483 0.66855,1.52423 1.23199,2.01999c0.77084,0.67825 1.49377,1.14557 2.14532,1.52051c0.72992,0.42004 0.82053,1.68411 1.50668,1.88751c0.87973,0.26077 0.83499,1.10693 1.36533,1.836c0.47699,0.65573 1.44101,0.90582 1.79733,1.60266c0.43454,0.84982 0.48257,1.6178 1.06134,2.13867c0.63785,0.57407 0.36478,1.42615 0.97464,2.25867c0.43686,0.59634 1.47427,0.69049 1.94736,1.46216c0.40118,0.65439 0.99753,1.2764 1.66333,1.72983c0.7276,0.49551 1.15393,1.23904 1.556,1.97467c0.40198,0.73547 1.45334,0.82953 2.33331,1.02084c0.84631,0.18402 1.72668,0.48434 2.33334,1.14581c0.58759,0.64069 1.16666,0.83334 1.96667,0.83334c0.89999,0 1.79999,0 2.69998,0c0.90002,0 1.80002,0 2.70001,0c0.89999,0 1.79999,0 2.60001,0c0.89999,0 1.72083,0 2.68399,0c0.86334,0 1.75885,0 2.716,0c0.89999,0 1.97998,0.3768 2.63333,-0.16666c0.69003,-0.57397 0.89105,-1.22122 1.64584,-1.83334c0.64313,-0.52155 0.48007,-1.57864 1.1315,-2.02533c0.72195,-0.49506 1.58276,-0.97949 1.96399,-1.62134c0.54785,-0.92239 0.31595,-1.77338 0.7825,-2.59616c0.48993,-0.86401 1.24973,-1.33658 1.61749,-2.15717c0.35129,-0.78384 0.79413,-1.47241 1,-2.42535c0.14767,-0.68347 0.59613,-1.61902 0.97269,-2.47464c0.34064,-0.77405 0.79495,-1.3649 1.45267,-2.11069c0.63837,-0.72385 1.04993,-1.38925 1.31467,-2.10532c0.34637,-0.93686 0.19135,-1.93109 0.638,-2.784c0.39395,-0.75223 0.56421,-1.64777 1.258,-2.26401c0.65817,-0.58463 1.23969,-0.97101 1.39999,-1.836c0.15414,-0.8317 0.87927,-1.32394 1.46851,-2.10001c0.56052,-0.73825 0.82755,-1.55209 1.16815,-2.25717c0.40894,-0.84656 0.51782,-1.9118 1.15402,-2.3255c0.76086,-0.49478 1.52777,-1.06198 1.91464,-1.71866c0.48712,-0.82687 0.79007,-1.69528 1.23584,-2.49866c0.38678,-0.69711 1.16901,-1.07306 1.80533,-1.79984c0.59726,-0.68216 1.05676,-1.32407 1.52817,-2.10019c0.41083,-0.67636 1.0975,-1.21759 1.81467,-1.89981c0.58633,-0.55774 1.46307,-0.58041 2.28934,-0.91086c0.78928,-0.31564 1.41248,-0.62607 2.17468,-1.02533c0.7583,-0.39722 1.29193,-0.97333 2.03598,-1.57465c0.65411,-0.52866 1.19995,-1.18939 1.89999,-1.88934c0.59995,-0.59988 1.21445,-1.1105 2.10001,-1.52533c0.81436,-0.38147 1.31729,-1.07825 2,-1.53867c0.82172,-0.55417 1.79797,-0.43613 2.39999,-0.936c0.61975,-0.51462 1.31036,-1.11813 2.20001,-1.41467c0.85764,-0.28589 1.83643,0.08286 2.60001,-0.17065c0.77216,-0.25635 1.59949,-0.896 2.5,-0.91467c0.89981,-0.01868 1.83798,-0.03543 2.34283,-0.7045c0.56665,-0.75098 0.98428,-1.28989 1.75717,-1.72083c0.82007,-0.45724 1.76666,-0.57468 2.59998,-0.57468c0.83334,0 1.72214,0.18472 2.60001,-0.03601c0.86285,-0.21698 1.69131,-0.75024 2.34735,-1.31665c0.59238,-0.51147 1.35266,-0.64734 2.25266,-0.64734c0.89999,0 1.83826,0.17355 2.60001,-0.08533c0.88791,-0.30176 1.64133,-0.79852 2.39999,-1.19867c0.85837,-0.45273 1.59457,-0.8093 2.29999,-1.216c0.79404,-0.45782 1.64844,-0.88217 2.38535,-1.216c0.72885,-0.3302 1.65079,-0.10782 2.59384,-0.30484c0.86832,-0.1814 1.48425,-1.02045 2.15683,-1.57916c0.65247,-0.54202 1.32294,-1.00018 2.3425,-1.2785c0.79965,-0.21829 1.68768,-0.22678 2.02148,-1.12149c0.30701,-0.82291 1.09198,-1.23285 1.75717,-1.7045c0.7182,-0.50925 1.48953,-0.85504 2.2215,-1.61682c0.44412,-0.46222 0.82693,-1.28845 1.67401,-1.91702c0.64374,-0.47766 1.65317,-0.56635 2.54868,-1.047c0.61337,-0.32922 1.46259,-0.9957 2.146,-1.41467c0.78079,-0.4787 1.42032,-0.93521 2.04199,-1.69998c0.60394,-0.74292 1.11404,-1.32162 1.76001,-1.66135c0.86877,-0.45688 0.78543,-1.60303 1.55518,-1.92966c0.86594,-0.36743 1.24988,-0.77203 1.29999,-1.65717c0.04446,-0.7854 0.55682,-1.55719 1.21683,-2.2305c0.60605,-0.61826 0.77866,-1.32135 0.77866,-2.22134c0,-0.89999 0,-1.65717 0,-2.55267c0,-0.86331 0,-1.82648 0,-2.74731c0,-0.89551 0,-1.8215 0,-2.70001c0,-0.89999 0,-1.69998 0,-2.60001c0,-0.89999 0,-1.79999 0,-2.69998c0,-0.89999 0,-1.80002 0,-2.69983c0,-0.90018 0,-1.70151 0,-2.61484c0,-0.896 0.07886,-1.90619 -0.64667,-2.31067c-0.76544,-0.42673 -1.49176,-0.67441 -2.46799,-0.88934c-0.96588,-0.21268 -1.88535,-0.08533 -2.68533,-0.08533c-0.89999,0 -1.79999,0 -2.70001,0c-0.88931,0 -1.78531,-0.00009 -2.69998,0c-0.89984,0.00009 -1.5697,0.30554 -2.15268,0.94733c-0.52625,0.57932 -0.59399,1.49957 -1.16815,2.07352c-0.61609,0.61584 -0.9455,1.4487 -1.64584,1.97916c-0.63818,0.48334 -0.586,1.38016 -1.19049,1.94733c-0.66187,0.621 -1.5799,0.53473 -2.28568,1.10535c-0.73108,0.59109 -1.32385,1.16794 -1.95715,1.522c-0.86127,0.48154 -1.80002,0.42532 -2.70001,0.42532c-0.89999,0 -1.80017,0 -2.58533,0c-0.94,0 -1.948,0 -2.70401,0c-0.91068,0 -1.81067,0 -2.71066,0c-0.89999,0 -1.80127,0.04779 -2.70001,0c-0.80338,-0.04272 -1.47391,-0.55313 -2.39999,-0.97467c-0.78064,-0.35532 -1.57846,-0.41202 -2.31467,-1.02399c-0.53156,-0.44186 -0.61389,-1.59937 -1.48532,-1.91602c-0.84955,-0.30869 -1.47662,-0.65417 -2.23599,-1.04932c-0.76712,-0.39917 -1.94357,0.21078 -2.51135,-0.39319c-0.62112,-0.66071 -0.88828,-1.27753 -1.75266,-1.6955c-0.81836,-0.39572 -1.18051,-1.25354 -1.30133,-2.14734c-0.10944,-0.80954 -0.82053,-1.24716 -1.56268,-1.82532c-0.62399,-0.48611 -1.26932,-1.14133 -1.65732,-1.85333l-0.72601,-0.474l-0.478,-0.62201l-0.60001,-0.60001" id="svg_1" stroke-width="2" stroke="#000" fill="none"/>
  <path t="14463,14551,14551,14560,14560,14560,14567,14567,14567,14575,14575,14575,14575,14584,14584,14584,14591,14591,14591,14599,14599,14599,14607,14615,14623,14623,14631,14631,14639,14647,14647,14647,14655,14655,14663,14671,14679,14695,14695,14712,14719,14735,14759,14768,14783,14783,14807,14815" d="m330.51135,275.09091c0.86136,2.38535 1.42719,2.75159 1.97867,3.54266c0.46393,0.6655 0.67917,1.52261 1.34283,2.31485c0.61899,0.73889 1.31885,1.1647 1.87851,1.90649c0.4313,0.57166 0.97507,1.57669 1.39999,2.18399c0.56766,0.81128 1.20096,1.35336 1.80002,1.79565c1.00162,0.7395 1.60449,1.27258 2.19998,1.85767c0.60428,0.59372 1.15909,1.19754 1.82935,1.828c0.71832,0.67566 1.62326,1.04132 2.40399,1.57068c0.67603,0.45837 1.2644,1.10229 1.86667,1.70001c0.70801,0.70267 1.44366,1.34253 2.13602,1.68933c0.74353,0.37244 1.56027,0.56097 2.50681,0.60617c0.89453,0.04272 1.46689,0.53088 1.9425,1.20316c0.552,0.78027 1.50247,0.90659 2.21466,1.30133c0.88565,0.49088 1.80002,0.5 2.70001,0.5c0.89999,0 1.79999,0 2.60001,0l0.89999,0l0.86401,0" id="svg_2" stroke-width="20" stroke="#fff" fill="none"/>
  <path t="25536,25727,25743,25767,25783,25784,25799,25808,25847,25879,25895,25912,25927,25935,25944,25944,25952,25968,25984,26015,26031,26031,26039,26063,26071,26071,26079,26095,26119,26127,26135,26143,26175,26183,26183,26191,26191,26199,26215,26223,26223,26232,26239,26255,26263,26272,26280,26280,26295,26304,26311,26320,26336,26336,26359,26359,26367,26399,26408,26423,26423,26432,26449,26455,26455,26463,26463,26472,26479,26495,26511,26512,26520,26520,26527,26535,26544,26544,26551,26560,26567,26576,26583,26584,26591,26599,26607,26607,26615,26624,26632,26640,26649,26649,26655,26665,26680,26688,26696,26711,26720,26720,26728,26736,26752,26752,26759,26769,26776,26791,26801,26801,26808,26808,26820,26824,26832,26840,26840,26855,26865,26865,26879,26895,26896,26904,26912,26920,26927,26936,26952,26953,26959,26969,26976,26976,26986,26986,26991,26992,27002,27007,27016,27023,27031,27031,27039,27055,27055,27064,27064,27072,27072,27079,27079,27095,27095,27105,27105,27111,27119,27127,27138,27143,27151,27159,27172,27176,27191,27202,27207,27218,27218,27218,27223,27238,27238,27247,27248,27255,27264,27271,27281,27295,27295,27303,27319,27327,27338,27343,27343,27359,27368,27368,27375,27388,27388,27405,27405,27408,27418,27424,27431,27439,27439,27447,27455,27464,27481,27487,27488,27511,27521,27527,27538,27543,27554,27559,27571,27571,27575,27585,27591,27591,27615,27615,27631,27639,27648,27655,27664,27664,27671,27688,27704,27727,27735,27754,27771,27788,27788,27792,27807,27807,27817,27824,27834,27847,27855,27863,27864,27871,27888,27904,27904,27911,27921,27937,27943,27959,27970,27987,27992,28015,28031,28047,28055,28063,28087,28097,28120,28127,28127,28138,28138,28143,28159,28170,28184,28191,28204,28208,28255,28303,28326,28343,28353,28371,28399" d="m312.51135,296.09091c0.87851,-1.2215 0.68091,-2.29785 1.28534,-2.91602c0.60825,-0.62207 1.53885,-0.52448 2.27869,-1.10931c0.67822,-0.53613 1.23752,-0.95602 2.13599,-0.97467c0.90051,-0.01868 1.69382,-0.43558 2.49866,-0.91602c0.74753,-0.44623 1.42551,-0.82501 2.09601,-1.13666c0.80048,-0.37207 0.82394,-1.42297 1.35266,-2c0.63345,-0.69131 1.32275,-1.1619 1.95267,-1.522c0.8642,-0.49405 1.6188,-0.92584 2.39999,-1.25867c0.75156,-0.32019 1.55908,-0.37637 2.22134,-1.04532c0.61002,-0.61618 1.14966,-1.15579 1.80402,-1.69601c0.57913,-0.47809 1.39102,-0.90231 2.14133,-1.42532c0.62469,-0.43546 1.34116,-1.1442 1.93866,-1.64282c0.6264,-0.52274 1.60684,-0.60406 2.06134,-1.35718c0.43875,-0.72702 0.94385,-1.47174 1.48065,-2.05267c0.63635,-0.68866 1.0365,-1.34454 1.70984,-1.89465c0.70227,-0.57373 1.08551,-1.04807 1.75266,-1.6955c0.57944,-0.56235 1.79019,-0.26617 2.53683,-0.39319c0.8613,-0.14651 1.71951,-0.64038 2.46802,-1.16266c0.70264,-0.4903 1.35739,-1.00113 2.052,-1.63467c0.59915,-0.54648 1.02643,-1.29071 1.53784,-1.86667c0.65021,-0.73224 1.03134,-1.45895 1.46216,-2.29999c0.3403,-0.66434 1.12958,-1.30377 1.63333,-1.79999c0.69482,-0.68442 1.5043,-1.09573 2.40134,-1.20135c0.97266,-0.11453 1.73776,-0.28125 2.46533,-0.99866c0.55414,-0.54642 1.38794,-0.61105 2.164,-1.28534c0.68204,-0.59256 0.63794,-1.51746 1.19467,-2.27866c0.48853,-0.66794 0.58578,-1.49054 1.25998,-2.26668c0.59256,-0.68213 1.37265,-0.91978 2.01468,-1.46483c0.7547,-0.64069 1.6741,-0.91211 2.29999,-1.27916c0.77155,-0.45248 1.65125,-0.8582 2.39999,-1.25867c0.79144,-0.42329 1.12656,-1.19856 1.61069,-1.76668c0.63516,-0.74535 0.866,-1.65936 1.556,-2.23332c0.65332,-0.54346 1.50299,-0.56413 2.11865,-1.08267c0.66547,-0.5605 1.46109,-0.94553 2.11469,-1.47333c0.74573,-0.60222 1.59116,-0.95071 2.09998,-1.61067c0.58972,-0.76491 1.15903,-1.11757 1.58536,-1.716c0.5459,-0.76625 1.22922,-1.31088 1.93549,-1.784c0.7926,-0.53096 1.46802,-0.96271 2.27466,-1.44733c0.66003,-0.39653 0.88068,-1.40137 1.7045,-1.886c0.6528,-0.38403 1.22879,-1.00104 2.10001,-1.16701c0.7077,-0.13483 1.11584,-1.02528 1.89999,-1.66634c0.59729,-0.4883 1.49179,-0.52213 2.08401,-1.04933c0.6022,-0.53607 1.42545,-0.92632 1.90134,-1.68399c0.52625,-0.83784 1.21249,-1.13263 2.12799,-1.51601c0.81613,-0.34177 1.24863,-1.04932 1.88666,-1.60483c0.70007,-0.60951 0.86731,-1.51253 1.16669,-2.3125c0.30109,-0.80458 0.69989,-1.67357 1.35416,-2.16667c0.77997,-0.58783 1.57303,-0.93912 2.47916,-1c0.79822,-0.05363 1.51031,-0.3187 2.33334,-0.83333c0.59982,-0.37505 1.724,-0.29303 2.25601,-0.81334c0.74091,-0.72461 0.95871,-1.56273 1.5105,-2.33167c0.49829,-0.69438 1.15384,-1.34807 1.78683,-1.823c0.73111,-0.54854 1.46994,-0.88495 2.35617,-1.49417c0.76532,-0.52611 1.42834,-0.98749 1.97849,-1.58316c0.58826,-0.63696 1.27545,-0.79378 2.168,-1.132c0.73175,-0.2773 1.33759,-0.64958 2.11066,-1.01016c0.71585,-0.33389 0.9726,-1.36388 1.5,-2.14584c0.43091,-0.63889 0.66855,-1.46136 1.40002,-2.18666c0.69583,-0.68996 1.51129,-0.78061 2.25266,-1.35201c0.72153,-0.55611 1.58694,-0.94157 2.22601,-1.51599c0.64484,-0.57961 0.98041,-1.33037 1.68933,-1.97734c0.50714,-0.46283 1.59024,-0.76782 2.07932,-1.50583c0.47018,-0.7095 1.03931,-1.28412 1.65268,-2.00084c0.4631,-0.54114 1.12946,-1.17178 1.90134,-1.57866c0.71567,-0.37724 1.66629,-0.53574 2.63199,-0.88268c0.69321,-0.24904 1.36667,-1.03333 1.86667,-1.53333c0.68933,-0.68933 1.46945,-1.09006 2.10135,-1.47067c0.77606,-0.46744 1.20154,-1.49071 1.89865,-1.8775c0.80338,-0.44576 1.62708,-0.72658 2.49866,-0.95316c0.80228,-0.20856 1.06223,-1.22058 1.60269,-1.79868c0.5737,-0.61365 1.4809,-0.9969 2.146,-1.55266c0.65314,-0.54576 0.90366,-1.37885 1.48865,-2.03667c0.61615,-0.69286 1.70184,-0.45349 2.36401,-0.696c0.89868,-0.32913 1.54016,-1.02046 2.03333,-1.91467c0.36575,-0.66318 1.16849,-0.94611 1.96667,-1c0.84863,-0.0573 0.72366,-1.14073 1.48532,-1.82933c0.61746,-0.55823 1.85571,-0.20381 2.35751,-0.87517c0.50562,-0.67645 0.25931,-1.83974 0.87799,-2.2955c0.6886,-0.50726 1.58347,-0.85011 2.47916,-1c0.8382,-0.14026 1.12469,-1.03346 1.61069,-1.60001c0.63754,-0.74324 1.37671,-1.31496 2.18933,-1.39867c0.89526,-0.09221 1.8378,0.03143 2.58932,-0.42667c0.82544,-0.50314 1.37195,-0.93631 1.83218,-1.6745c0.44711,-0.71715 1.44489,-0.81609 2.1785,-1.33617c0.78699,-0.55794 1.24197,-1.26437 1.59998,-2.064c0.35632,-0.79588 1.10431,-1.35011 2,-1.5c0.8382,-0.14026 1.34775,-0.83195 1.94736,-1.35266c0.6308,-0.54776 0.89233,-1.32689 1.62732,-1.63667c0.79376,-0.33456 1.87442,0.16263 2.39999,-0.44667c0.61447,-0.71237 1.2691,-1.21889 1.90417,-1.78549c0.67267,-0.60014 1.24881,-1.14296 1.78784,-1.7785c0.58322,-0.68767 0.81473,-1.55215 1.63333,-1.94733c0.86423,-0.41719 1.26154,-1.08591 1.75717,-1.70001c0.51685,-0.64038 1.43057,-0.54111 2.1095,-1.18599c0.63315,-0.60141 1.05466,-1.16684 1.77615,-1.52383l0.0585,-0.84151l0.35135,-0.74866l0.64731,-0.55267" id="svg_4" stroke-width="2" stroke="#000" fill="none"/>
  <path t="29863,30134,30150,30151,30174,30198,30198,30214,30238,30246,30294,30302,30318,30335,30359,30367,30375,30399,30423,30439,30455,30463,30471,30479,30487,30510,30511,30519,30527,30544,30551,30560,30567,30583,30607,30616,30631,30647,30663,30671,30703,30711,30711,30727,30743,30751,30760,30767,30777,30791,30807,30815,30823,30839,30855,30886,30903,30903,30927,30935,30935,30951,30960,30977,30983,30983,30999,31015,31023,31023,31047,31063,31071,31071,31079,31127,31143,31159,31167,31167,31199,31207,31215,31223,31239,31248,31255,31271,31287,31295,31295,31312,31312,31319,31319,31329,31335,31343,31359,31376,31393,31393,31407,31415,31439,31447,31463,31479,31479,31495,31495,31503,31511,31519,31519,31535,31551,31559,31567,31576,31583,31592,31607,31615,31623,31632,31639,31647,31671,31687,31699,31719,31729,31746,31759,31781,31784,31799,31816,31823,31832,31849,31849,31855,31887,31903,31915,31920,31936,31944,31952,31959,31968,31983,32015,32025,32025,32041,32053,32064,32085,32085,32111,32124,32129,32152,32160,32176,32185,32185,32200,32216,32233,32233,32249,32255,32266,32272,32283,32283,32288,32295,32296,32304,32316,32328,32335,32350,32350,32360,32376,32376,32393,32400,32416,32426,32447,32455,32471,32483,32499,32519,32533,32545,32552,32583,32594,32609,32626,32626,32639,32656,32656,32679,32691,32711,32712,32727,32735,32749,32766,32766,32778,32785,32785,32785,32792,32800,32809,32825,32840,32840,32851,32851,32856,32867,32867,32872,32895,32907,32912,32920,32928,32943,32944,32960,32977,32991,32991,33007,33024,33041,33055,33055,33079,33088,33096,33103,33119,33135,33149,33151,33167,33176,33199,33199,33216,33225,33242,33242,33249,33256,33264,33272,33295,33295,33303,33314,33332,33332,33336,33348,33361,33391,33402,33455,33455,33471,33495,33519,33531,33535,33951,34015,34047,34047,34063,34071,34087,34119,34167,34207,34279,34303,34375,34399,34439,34479,34519,34543,34559,34559,34567,34599,34611,34625,34686,34711,34722,34727" d="m509.51135,165.09091c-0.16666,1.83333 -1.03189,2.12656 -1.59998,2.61067c-0.74536,0.63518 -1.38742,1.30429 -2.20001,1.388c-0.89526,0.09222 -1.591,0.18622 -2.19867,0.71733c-0.508,0.444 -1.56732,0.1834 -2.39066,0.70934c-0.73715,0.47087 -1.37427,0.8858 -1.96335,1.52199c-0.53296,0.57559 -1.18558,0.8864 -2.04733,1.06334c-0.94055,0.19312 -1.07666,1.2487 -1.76666,1.82266c-0.65335,0.54347 -1.69977,0.38985 -1.83334,1.21935c-0.15289,0.94965 -0.54575,1.69693 -1.5,1.9265c-0.86517,0.20813 -1.44244,0.59633 -2.11066,1.04616c-0.7262,0.48885 -1.6102,0.71974 -2.30533,1.25867c-0.62762,0.48659 -0.96106,1.433 -1.69467,1.70534c-0.83426,0.30972 -1.90311,0.1922 -2.3685,1.01067c-0.42221,0.74252 -1.02124,0.97464 -1.82083,1c-0.90137,0.02859 -1.62259,0.6855 -2.5,0.94283c-0.86417,0.25345 -1.64612,0.41087 -2.20001,1.05717c-0.5242,0.61165 -0.96518,1.37573 -1.37866,2.09984c-0.45157,0.79082 -1.48389,0.64774 -2.03598,1.18416c-0.55881,0.54295 -1.13977,1.01016 -1.78534,1.36334c-0.88559,0.4845 -1.83551,0.54819 -2.43866,0.96333c-0.83728,0.57631 -0.61401,1.76947 -1.21851,2.33665c-0.66187,0.62102 -1.5799,0.53473 -2.28568,1.10535c-0.73108,0.59108 -1.49207,0.97318 -2,1.59467c-0.54459,0.66634 -0.96417,1.28111 -1.55716,1.92065c-0.59973,0.6468 -1.18719,1.39532 -2.08533,1.43201c-0.91257,0.03728 -1.5358,0.54291 -2.28268,0.916c-0.66147,0.33041 -1.07217,0.78139 -1.45282,1.56317c-0.3414,0.70116 -1.57291,0.53607 -2.03183,1.22533c-0.50165,0.75343 -1.39117,1.0024 -1.94751,1.51683c-0.59695,0.55202 -1.07822,1.2375 -1.49985,1.77867c-0.66812,0.85759 -1.4191,1.00415 -2.31467,1.436c-0.64511,0.31107 -1.10828,1.33307 -1.88983,1.55949c-0.86011,0.24919 -1.86508,-0.10695 -2.59549,0.36166c-0.79993,0.5132 -1.29773,1.15126 -2.05267,1.64734c-0.6813,0.44768 -1.2746,0.98961 -2.04733,1.42084c-0.81891,0.45699 -1.74884,0.42427 -2.48532,0.74533c-0.85733,0.37373 -1.23245,1.0623 -2.09302,1.5865c-0.80963,0.49316 -1.05481,1.38388 -1.72617,1.88567c-0.67645,0.5056 -1.14621,1.02934 -1.90616,1.3465c-0.80203,0.33472 -1.39139,0.62022 -2.09384,1.06334c-0.77191,0.48692 -1.62201,0.72421 -2.49414,0.94865c-0.80093,0.20612 -1.46484,0.80861 -1.78052,1.5195c-0.38931,0.87669 -0.71109,1.13542 -1.5,1.5c-0.771,0.35631 -1.4747,0.60626 -2.16815,1.03633c-0.73328,0.45476 -0.92499,1.34106 -1.742,1.91751c-0.6582,0.4644 -1.23837,1.01869 -2.01068,1.45067c-0.81805,0.45757 -1.36127,0.93631 -1.8215,1.6745c-0.44711,0.71715 -1.40182,0.71486 -2.2785,0.92099c-0.95105,0.22362 -1.61838,0.92938 -2.07465,1.58984c-0.54965,0.79567 -1.10898,1.0603 -1.90451,1.41016c-0.71204,0.31313 -1.1983,1.08427 -1.60483,1.7805c-0.48239,0.82617 -1.02396,1.52953 -1.716,1.91333c-0.82449,0.45726 -1.68735,0.47911 -2.284,1.00134c-0.76819,0.67238 -1.37317,0.92398 -1.92667,1.70934c-0.43378,0.61548 -1.37866,0.5739 -2.3465,0.57466c-0.84149,0.00067 -1.42841,0.44196 -1.92816,1.19867c-0.40216,0.60893 -1.21445,1.06805 -1.88135,1.63466c-0.68399,0.58113 -1.49057,0.72401 -2.12881,1.46667c-0.64517,0.75073 -1.1019,1.36972 -1.62051,1.98534c-0.56052,0.66533 -0.82916,1.41063 -1.73218,1.66199c-1.00369,0.27939 -1.28375,0.97987 -1.87265,1.53185c-0.72571,0.68021 -1.80228,0.26355 -2.67783,0.5235c-0.77646,0.23053 -0.68814,1.24426 -1.32217,1.99733c-0.57013,0.67715 -1.01215,1.19771 -1.39517,2.11333c-0.34079,0.81459 -1.06595,1.32213 -1.08401,2.18217c-0.01947,0.92563 -0.3822,1.4938 -1.19864,1.70584c-0.80048,0.20789 -1.33627,0.8494 -2.20135,1.00931c-0.83008,0.15344 -1.69165,0.54617 -2.31598,1.07468c-0.58752,0.49738 -0.65457,1.34372 -1.16251,2.13617c-0.47861,0.7467 -0.26617,1.60931 -0.97217,2.1785c-0.78851,0.63571 -1.20001,1.29861 -1.64935,2.10001c-0.44528,0.79413 -0.66666,1.66666 -1.2045,2.2045c-0.68481,0.68484 -1.05432,1.41458 -1.46616,2.09683c-0.47235,0.7825 -1.35815,0.9826 -2.20401,1.59866c-0.80316,0.58496 -1.52222,0.89548 -2.056,1.39999c-0.75934,0.71768 -1.39868,0.78546 -2.21216,1.25717c-0.73117,0.42401 -0.90979,1.44211 -1.54251,2.11749c-0.63171,0.67432 -1.24448,1.37271 -2.01465,1.74133c-0.85727,0.41028 -1.45422,0.88425 -2.36401,1.07333c-0.93732,0.19479 -1.82913,0.30063 -2.31467,1.1105c-0.43753,0.72977 -0.93561,1.23129 -1.34265,2.00018c-0.40103,0.75751 -0.69464,1.56638 -1.21466,2.29999c-0.55795,0.78714 -1.31116,1.25665 -1.8595,1.89999c-0.64209,0.75336 -0.97458,1.47369 -1.8045,1.92136c-0.64764,0.34933 -1.5,0.76791 -2.40002,0.77866c-0.88931,0.01059 -1.37891,0.71204 -2.11066,0.98932c-0.89255,0.33823 -1.2403,0.74219 -1.82532,1.40002c-0.61615,0.69284 -1.71826,0.42734 -2.56403,0.77731c-0.78461,0.32468 -1.53207,0.76807 -2.29999,1.186c-0.84094,0.45767 -1.48074,0.76419 -2.29999,1.22202c-0.77246,0.4317 -1.45551,0.95856 -2.04733,1.42084c-0.67554,0.52765 -1.0351,1.32349 -1.742,1.94315c-0.57864,0.5072 -1.31943,1.02255 -2.12802,1.06c-0.94025,0.04355 -1.4263,0.75299 -2.18716,0.99686c-0.89548,0.28702 -1.34729,0.86087 -2.2955,1.00449c-0.79095,0.11981 -1.77838,0.00641 -1.99866,0.80133c-0.245,0.88412 -0.93311,0.80573 -1.716,1.284c-0.80325,0.49072 -1.38531,0.91467 -2.28534,0.91467c-0.79999,0 -1.77838,-0.00641 -1.99866,-0.80133c-0.245,-0.88412 -0.60886,-1.6813 -1.28665,-2.11334c-0.77362,-0.49313 -1.50397,-0.46756 -1.716,-1.284c-0.20789,-0.80045 -0.98825,-1.30115 -0.99869,-2.15851c-0.01147,-0.94275 0,-1.84283 0,-2.74283c0,-0.89999 -0.01627,-1.70013 0,-2.54282c0.01801,-0.93237 0.81833,-0.9639 1.56403,-1.39319c0.68954,-0.39697 0.49316,-1.60681 1.15198,-2.13333l0.30484,-0.8515" id="svg_5" stroke-width="2" stroke="#000" fill="none"/>
  <path t="35991,36191,36207,36231,36240,36311,36327,36375,36439,36439,36448,36487,36519,36519,36552,36583,36615,36671,36711,36743,36759,36864,36879" d="m499.51135,149.09091c1.70001,0.05716 2.50516,0.51556 3.19867,1.19867c0.63947,0.62984 1.25491,0.94778 1.88535,1.51733c0.64883,0.58617 0.87878,1.28487 0.91599,2.084c0.04272,0.91763 0.77368,1.47006 1.22134,2.3c0.3493,0.64764 0.77332,1.49995 0.77866,2.39999c0.00531,0.89998 -0.00009,1.7955 0,2.66667c0.00009,0.93317 0.22134,1.71199 0.94284,2.19049l0.05716,0.84283" id="svg_6" stroke-width="2" stroke="#000" fill="none"/>
  <path t="37944,38135,38167,38181,38201,38223,38231,38246,38262,38272,38282,38288,38298,38327,38352,38359,38378,38385,38397,38400,38416,38424,38446,38455,38473,38473,38480,38490,38507,38519,38543,38552,38568,38575,38595,38595,38616,38639,38639,38656,38663,38674,38680,38696,38712,38721,38727,38751,38783,38815,38839,38863,38879,38895,38943,38959,38983,39007,39007,39055,39095,39119,39119,39143,39167,39199,39223,39255,39279,39287,39311,39311,39327,39335,39344,39359,39399,39399,39423,39447,39463,39495,39527,39551,39575,39599,39631,39631,39647,39671,39679,39695,39704,39720,39743,39767,39775,39791,39823,39847,39864,39887,39903,39903,39911,39927,39936,39952,39983,39991,40000,40007,40031,40063,40071,40111,40127,40143,40151,40159,40175,40199,40199,40239,40239,40271,40295,40327,40351,40399,40447,40447,40463,40495,40519,40535,40591,40623" d="m502.51135,149.09091c0.97919,-1.02083 1.26935,-1.6954 1.91602,-2.284c0.63464,-0.57765 0.77661,-1.29655 1.09467,-2.10533c0.2854,-0.72575 1.69327,-0.49559 1.97867,-1.22134c0.31805,-0.80878 0.58469,-1.41505 1.00934,-2.10533c0.43665,-0.70975 1.28357,-1.0809 1.94867,-1.63666c0.65314,-0.54576 0.70892,-1.3376 1.07349,-2.12651c0.35629,-0.77101 1.03183,-1.22533 1.47916,-2.02083c0.44733,-0.7955 0.99615,-1.3555 1.70001,-1.78534c0.67535,-0.41245 1.24023,-1.23889 1.74731,-2.01016c0.4549,-0.69194 1.37433,-0.5096 2.25134,-0.70583c0.80707,-0.18057 1.33636,-0.84901 2.20135,-1.00934c0.83167,-0.15414 1.40033,-0.79033 2.07916,-1.46851c0.68787,-0.68715 1.34039,-1.1933 2.12085,-1.54617c0.81073,-0.36656 1.02039,-1.46407 1.75714,-1.9175c0.71942,-0.44277 1.74725,0.03151 2.64282,-0.05717c0.84576,-0.08374 1.28235,-0.95728 2.20001,-1c0.89886,-0.04184 1.74731,0 2.60132,0c0.89868,0 1.79871,-0.00533 2.69867,0c0.90009,0.00533 1.84875,0.17615 2.33337,1c0.38397,0.65277 1.10577,1.21523 1.16663,2.1c0.06177,0.89788 0,1.7 0,2.6c0,0.864 0.0022,1.82083 0,2.7c-0.00226,0.89552 -0.52637,1.40971 -1.19867,1.88535c-0.78027,0.552 -0.90149,1.50529 -1.30133,2.21466c-0.495,0.87819 -1.03497,1.35036 -1.89996,1.51067c-0.83173,0.15414 -1.34418,0.85165 -2.07916,1.46851c-0.69458,0.58296 -1.42871,0.91068 -2.02087,1.5c-0.48065,0.47836 -0.91589,1.10336 -1.55267,1.66817c-0.70142,0.62216 -0.94733,1.35266 -0.94733,2.15266c0,0.89999 0.16522,1.8192 -0.02081,2.7c-0.17902,0.8474 -0.91827,1.59389 -0.97919,2.5c-0.05591,0.83145 0,1.7045 0,2.60001c0,0.89999 0,1.79999 0,2.7c0,0.89999 0,1.8 0,2.7c0,0.8 0.39337,1.81339 -0.03601,2.564c-0.39508,0.69061 -1.70966,0.38507 -1.95947,1.1405c-0.29529,0.89281 -0.73755,1.10355 -1.60449,1.3315c-0.85583,0.22502 -1.20667,1.18089 -1.40015,2.06384c-0.18475,0.84331 -1.19989,0.90016 -2.09985,0.90016c-0.90002,0 -1.45227,0.4209 -2.1217,0.87849c-0.7865,0.53764 -1.77832,0.12151 -2.61163,0.12151c-0.86218,0 -1.76666,0 -2.73065,0c-0.87201,0 -1.74255,0.10696 -2.63602,-0.00133c-0.91977,-0.11148 -1.45407,-0.80855 -2.39999,-0.98801c-0.88431,-0.16777 -1.78934,-0.02133 -2.40002,-0.51067l-0.61066,-0.48933l-0.88934,-0.01067" id="svg_7" stroke-width="2" stroke="#000" fill="none"/>
  <path t="45824,45935,45967,46016,46016,46048,46080,46088,46096,46112,46120,46128,46176,46216,46248,46264,46295,46295,46320,46359,46408" d="m362.51135,279.09091c0.87851,1.22134 1,2.08398 1,3c0,0.79999 0,1.70001 0,2.60001c0,0.89999 -0.00067,1.79999 0,2.69998c0.00067,0.89868 0.6116,1.43719 0.96402,2.13602c0.42957,0.85184 0.03598,1.84933 0.03598,2.664c0,0.89999 0,1.69998 0,2.60001l0,0.89999l0,0.89999" id="svg_8" stroke-width="2" stroke="#000" fill="none"/>
  <path t="47617,47687,47703,47719,47735,47743,47783,47871,47911,47959,47983,47983,48055" d="m328.51135,274.09091c1,1 1.67844,1.28522 2.28403,1.91599c0.55002,0.57288 1.23663,1.07358 2.10532,1.08401c0.89594,0.01074 1.81067,0 2.71066,0l0.89999,0l0.80002,0l0.89999,0" id="svg_9" stroke-width="2" stroke="#000" fill="none"/>
  <path t="51263,51375,51375,51383,51383,51393,51393,51393,51399,51399,51409,51409,51415,51415,51415,51424,51424,51432,51432,51439,51439,51439,51447,51447,51455,51455,51463,51463,51471,51479,51479,51495,51495,51511,51520,51647,51658,51663,51663,51671,51671,51671,51679,51679,51680,51687,51687,51695,51696,51696,51703,51703,51703,51711,51719,51719,51727,51736,51736,51743,51743,51752,51752,51759,51759,51767,51775,51775,51775,51782,51782,51791,51799,51808,51808,51816,51816,51824,51832,51840,51840,51856,51936,51951,51960,51968,51968,51976,51976,51976,51983,51983,51991,51991,51991,51999,52007,52007,52023,52023,52031,52031,52031,52039,52046,52047,52055,52055,52063,52063,52071,52078,52087,52103,52111,52111,52119,52136,52143,52255,52263,52271,52271,52279,52287,52287,52287,52295,52295,52303,52303,52303,52311,52311,52319,52319,52327,52327,52327,52327,52336,52336,52353,52353,52463,52478,52494,52495,52511,52527,52527,52535,52535,52535,52552,52558,52559,52568,52569,52575" d="m317.51135,291.09091c1.56934,0.28665 2.27356,0.55496 2.97852,1.3215c0.58221,0.63306 1.02148,1.6785 1.3215,2.2785c0.39999,0.79999 0.77856,1.61121 1.19998,2.37915c0.47617,0.86771 1.03174,1.49857 1.60019,2.34216c0.4462,0.66217 0.73843,1.24707 1.55249,1.92603c0.6597,0.5502 1.46988,1.23337 1.84732,1.7735c0.67853,0.97101 1.14291,1.58377 1.67468,2.14316c0.647,0.68063 1.29733,1.35312 1.992,1.836c0.78336,0.54453 1.30737,1.18506 2.00131,1.71466c0.72034,0.54974 1.70175,0.5838 2.19601,1.13602c0.68997,0.77084 1.33408,1.20093 2.13599,1.64932c0.7981,0.44626 2.09546,0.88858 2.43835,0.14282c0.36496,-0.79373 -0.69891,-1.40109 -1.42368,-2.12814c-0.53467,-0.53635 -1.10977,-1.12231 -1.91467,-1.91336c-0.59543,-0.58517 -1.18839,-1.13168 -1.99866,-1.71866c-0.57254,-0.41473 -1.46259,-1.19958 -1.84866,-1.888c-0.4082,-0.72784 -0.86206,-1.72223 -1.40533,-2.17584c-0.63644,-0.5314 -1.59378,-0.77841 -2.51401,-0.81882c-0.81198,-0.03564 -1.6459,-0.39691 -2.05484,-1.10016c-0.40991,-0.70493 -0.88684,-1.45468 -1.41449,-2.03851c-0.73376,-0.81189 -1.84,-0.82693 -2.25418,-1.57117c-0.40369,-0.72534 -0.56738,-1.64987 -1.10983,-2.45682c-0.42798,-0.63669 -0.82181,-1.40512 -1.82532,-1.772c-0.66263,-0.24225 -1.60464,-0.66177 -2.37601,-0.97736c-0.92307,-0.37762 -1.79935,-0.30911 -2.46533,-1.08398c-0.50287,-0.58508 -0.43198,-1.59015 -1.03784,-2.10983c-0.63922,-0.54831 -1.12866,-1.38254 -1.27466,-2.36932c-0.12018,-0.81226 -0.5177,-2.12717 0.14984,-2.43417c0.71622,-0.32938 1.45255,0.7735 2.22934,1.39734c0.617,0.49551 1.16913,1.07559 2,1.63065c0.7735,0.51672 1.60709,0.87161 2.38931,1.28534c0.73221,0.38727 1.52289,1.078 2.31085,1.47885c0.74619,0.37958 1.55173,0.83719 2.1105,1.30649c0.78201,0.65677 1.55014,1.23227 2.30399,1.52798c0.8244,0.32339 1.80106,0.24796 2.45599,0.37201c1.04999,0.19888 1.77145,0.51657 2.69601,0.74802c0.86996,0.21777 1.42624,0.85535 2.18399,1.14133c0.96146,0.36288 1.50992,0.98639 2.31601,1.02533c0.81183,0.03922 1.52771,0.61517 2.26932,0.96399c0.87296,0.41058 2.2522,0.34073 2.51733,-0.39999c0.26974,-0.7536 -0.7543,-1.36435 -1.47415,-2.08484c-0.64554,-0.64612 -1.13187,-1.13181 -1.82651,-1.82648c-0.63132,-0.63135 -1.27802,-1.27798 -1.974,-1.974c-0.504,-0.50403 -1.04346,-1.00894 -1.79333,-1.79468c-0.595,-0.62344 -1.04428,-1.39957 -1.55734,-2.09467c-0.61151,-0.82852 -1.32797,-1.39182 -1.828,-1.76849c-0.72443,-0.54575 -1.50836,-1.16415 -2.24814,-1.71634c-0.71411,-0.53302 -1.2486,-1.69531 -2.17984,-1.68317c-0.19406,0.00253 -0.46054,1.01721 -0.71933,1.72598c-0.36871,1.00983 -0.31152,1.97662 -0.3735,2.67352c-0.08768,0.98605 -0.36276,1.79736 -0.78052,2.49384c-0.53452,0.89111 -1.19867,1.48532 -1.79865,2.08533l-0.7045,0.6955l-0.58084,0.41916l-0.94,0.24933" id="svg_10" stroke-width="20" stroke="#fff" fill="none"/>
  <path t="52719,52752,52752,52759,52759,52768,52783,52792,52792,52799,52807" d="m317.51135,294.09091c1.33334,0.83334 2.07706,0.82965 2.97852,1.2215c0.79285,0.34464 1.35617,1.27811 2.12149,1.65717c0.84677,0.4194 1.5,0.69601 2.39999,1.10049l0.90002,0.02084" id="svg_11" stroke-width="20" stroke="#fff" fill="none"/>
  <path t="53584,53631,53642,53642,53647,53648,53648,53657,53657,53657,53657,53657,53664,53664,53664,53664,53664,53673,53673,53673,53673,53673,53680,53680,53680,53680,53680,53688,53688,53688,53688,53688,53696,53696,53696,53696,53705,53705,53705,53712,53712,53712,53712,53722,53722,53728,53728,53736" d="m311.51135,291.09091c1.71469,0.25601 1.96234,1.06601 1.98935,1.79599c0.03836,1.03671 -0.00046,2.00162 0.06784,2.771c0.08307,0.93573 0.2218,1.68884 0.37881,2.53033c0.16791,0.89996 0.26041,1.36078 0.564,2.73602c0.19482,0.88248 0.39813,1.73111 0.60001,2.556c0.19818,0.80978 0.49854,2.01108 0.60135,2.41064c0.20605,0.80087 0.41614,1.60602 0.68399,2.40002c0.40817,1.20996 0.76785,2.00629 1.1355,2.82083c0.18781,0.41608 0.59152,1.25961 1.17883,2.60031c0.20145,0.45987 0.59082,1.38913 0.92834,2.3175c0.16339,0.44946 0.56488,1.72284 0.70267,2.49066c0.18365,1.02335 0.17334,1.66882 0.39066,2.87067c0.10928,0.6044 0.39987,1.49091 0.612,2.70001c0.1044,0.59506 0.15448,1.479 0.16534,2.31467c0.01297,0.99857 0.03732,1.83865 0.28534,2.79999l0.43198,0.68402l0.33667,0.84415" id="svg_12" stroke-width="20" stroke="#fff" fill="none"/>
  <path t="56288,56479,56527,56551,56567,56591,56607,56623,56663,56695,56719,56743,56767,56775,56791,56815,56831,56855,56879,56888,56895,56911,56920,56935,56943,56967,56999,57007,57007,57039,57047,57064,57081,57096,57103,57111,57127,57135,57159,57183,57183,57199,57223,57247,57255,57279,57287,57287,57296,57311,57335,57359,57383,57399,57415,57431,57479,57489,57504,57511,57551,57616,57624,57664,57703,57720,57759,57824,57896,57960,57968,58000,58023,58040,58048,58120,58135,58176,58207,58320,58432,58432,58512,58544,58567,58599,58615,58631,58631,58639,58647,58663,58679,58687,58687,58703,58751,58767,58767,58775,58791,58799,58807,58823,58823,58871,58879,58887,58903,58919,58928,58945,58959,58975,58999,59015,59023,59047,59055,59079,59095,59095,59111,59135,59143,59159,59167,59191,59215,59223,59263,59263,59279,59295,59303,59303,59319,59345,59351,59367,59383,59399,59423,59423,59431,59431,59455,59535,59575,59592,59735,59823,59832,59851,59887,59887,59943" d="m338.51135,275.09091c-0.87848,1.2215 -0.60831,2.379 -1.28531,2.91467c-0.64227,0.50818 -1.50238,0.39178 -1.716,1.284c-0.17953,0.74982 -1.00174,1.19788 -1.57333,1.79065c-0.4707,0.48816 -1.1156,0.66693 -1.90451,1.03152c-0.771,0.35632 -0.94995,1.34879 -1.74234,1.85767c-0.74609,0.47916 -1.38751,0.62869 -2.13565,1.06433c-0.72894,0.42447 -1.39267,0.68002 -2.16367,1.03632c-0.78891,0.36456 -1.15512,0.60815 -1.48984,1.41019c-0.31714,0.75992 -1.35651,0.95798 -1.98935,1.61066c-0.57321,0.59122 -0.79013,1.64404 -1.52081,1.97916c-0.78995,0.3623 -1.42059,0.77954 -2.18369,1.01636c-0.82178,0.25504 -1.10355,0.73755 -1.33148,1.60449c-0.22501,0.8558 -1.21008,1.19995 -1.96402,1.56665c-0.76361,0.3714 -1.65073,0.759 -2.02081,1.35419c-0.44717,0.71918 -0.58109,1.77454 -1.20068,2.35782c-0.60437,0.56897 -1.20392,0.96066 -1.80383,1.68533c-0.48273,0.58313 -1.73407,0.38669 -1.97015,1.1405c-0.26791,0.85544 -0.40781,1.73563 -1.20316,2.21149c-0.69186,0.41394 -1.27744,0.8259 -2.09683,1.0885c-0.75772,0.24283 -0.66959,1.42587 -1.20453,1.97467c-0.47333,0.48557 -0.97934,1.13272 -1.55264,1.66818c-0.68521,0.64001 -1.45551,0.95947 -1.89017,1.70532c-0.43839,0.75229 -0.16797,1.75418 -0.05719,2.64734c0.11151,0.89923 0.85126,1.33679 1.42535,1.97467c0.52084,0.5787 1.38397,0.95303 1.57465,1.63599c0.23361,0.83676 0.45667,1.51978 1.08401,2.10535c0.68851,0.64264 0.94678,1.42825 1.62051,1.92682c0.69424,0.51373 1.77466,0.35718 2.65265,0.35718c0.84283,0 1.74283,0 2.64282,0c0.80002,0 1.72842,0.22971 2.64285,0c0.87286,-0.21927 1.55377,-0.95728 2.35715,-1c0.79889,-0.04248 1.49374,-0.28152 2.22153,-0.87866c0.72897,-0.59811 1.60904,-0.55383 2.3425,-1.14667c0.65073,-0.52594 1.01129,-1.43509 1.35199,-2.17468c0.39755,-0.86304 0.57813,-1.63412 1.12,-2.37466c0.45825,-0.62625 0.89059,-1.35495 1.53867,-1.98932c0.59583,-0.58322 1.72815,-0.27048 2.37268,-0.78867c0.61136,-0.49152 1.04199,-1.258 1.05264,-2.14734c0.01068,-0.88934 0.55084,-1.44009 1.30002,-1.85266c0.83856,-0.46179 1.45026,-0.92929 1.86667,-1.64734c0.42047,-0.72507 1.36801,-1.01721 1.85416,-1.5c0.59277,-0.58868 0.85779,-1.34131 1.5,-1.97916c0.64331,-0.63895 1.67783,-0.52084 2.56317,-0.52084c0.91599,0 1.69226,-0.12643 2.51599,-0.57468c0.78992,-0.42984 1.74603,-0.25809 2.53867,-0.46133c0.85254,-0.21863 0.59879,-1.52377 1.29733,-1.92798c0.74475,-0.43094 1.5369,-0.56461 2.08484,-1.05685c0.65021,-0.58411 1.03656,-1.2399 1.80032,-1.95767c0.60251,-0.56622 1.25684,-1.26129 1.90018,-1.90015c0.57034,-0.56638 0.41449,-1.49835 0.94534,-2.12134c0.51923,-0.60934 0.83466,-1.19867 1.11865,-1.91602l0.81451,-0.30548l0.61484,-0.57983l0.28082,-0.89868" id="svg_13" stroke-width="2" stroke="#000" fill="none"/>
  <path t="61871,61998,62022,62038,62078,62094,62230,62310,62462,62462" d="m329.51135,271.09091c1,0.7045 1.14532,1.44592 1.716,2.08398c0.58295,0.65179 1.284,0.91602 2.16251,1.13736l0.20685,0.77731l0.91464,0.00134l0.80002,0" id="svg_14" stroke-width="2" stroke="#000" fill="none"/>
  <path t="69942,70006,70023,70047,70054,70062,70070,70086,70094,70102,70110,70126,70134,70158,70158,70174,70174,70182,70190,70198,70206,70222,70222,70231,70248,70254,70254,70262,70270,70270,70278,70294,70294,70302,70310,70318,70334,70350,70366,70374,70398,70414,70422" d="m299.51135,311.09091c-0.57465,1.60001 -0.77649,2.51379 -1.35715,3.2955c-0.49982,0.67285 -1.32126,0.98972 -1.92685,1.62048c-0.55002,0.57288 -1.1626,1.13782 -1.74133,1.65869c-0.63785,0.57407 -0.92999,1.42303 -1.51633,1.94617c-0.7247,0.64661 -1.4838,0.939 -2.29166,1.47916c-0.66852,0.44699 -1.52277,0.87112 -2.14133,1.42532c-0.59146,0.52994 -0.62921,1.4317 -1.19202,2.24133c-0.43314,0.62311 -1.45593,0.8667 -2.23334,1.31866c-0.72284,0.42023 -1.20435,1.18573 -1.51599,2.12933c-0.28857,0.87372 -0.64941,1.53333 -1.384,2.18085c-0.66223,0.58374 -1.49063,0.80466 -2.20001,1.2045c-0.87817,0.49496 -1.44485,1.0719 -2.11066,1.52533c-0.7276,0.49551 -1.30533,1.17334 -1.67334,1.89066l-0.67999,0.52002l-0.0405,0.8595l-0.42084,0.67917" id="svg_16" stroke-width="2" stroke="#000" fill="none"/>
  <path t="71215,71287,71297,71311,71343,71343,71352,71359,71375,71391,71391,71407,71407,71415,71431,71439,71463,71471,71495,71527,71551,71551,71567,71575,71583,71599,71607,71631,71647,71647,71663,71671,71687,71697,71703,71703,71711,71719,71727" d="m301.51135,318.09091c-1.08398,1.71466 -1.85593,2.00931 -2.59998,2.61066c-0.65411,0.52866 -1.12424,1.27737 -1.90002,1.8685c-0.73416,0.55942 -1.40741,0.98758 -1.784,1.72217c-0.36905,0.71991 -0.60245,1.64386 -0.79999,2.31467c-0.29099,0.98816 -0.76981,1.71777 -0.91617,2.58383c-0.14401,0.85202 -0.74426,1.52289 -1.49985,1.87933c-0.84698,0.39957 -1.7236,0.27991 -2.29999,0.82217c-0.70969,0.66766 -0.90668,1.77054 -1.63599,2.16266c-0.75784,0.40747 -1.45871,0.5116 -1.91669,1.336c-0.41235,0.74231 -0.82376,1.39478 -1.64734,1.70001c-0.89386,0.33127 -0.76349,1.39771 -1.35715,1.94733c-0.66599,0.61658 -1.44284,0.76868 -2.34283,1.10535l-0.80002,0.44733l-0.79547,0.44284" id="svg_17" stroke-width="2" stroke="#000" fill="none"/>
  <path t="72368,72399,72407,72415,72423,72431,72447,72463,72463,72471,72471,72494,72503,72527,72527,72550,72559,72575,72591,72599,72599,72615,72623,72639,72647,72655,72663,72703,72711,72727,72735,72735,72743,72767,72775,72791" d="m306.51135,323.09091c-0.61066,1.564 -1.43616,2.04419 -2.02533,2.57468c-0.58295,0.52487 -1.02991,1.2449 -1.49548,1.94617c-0.54648,0.82312 -0.86304,1.61951 -1.64584,2.14581c-0.72244,0.48569 -1.49487,0.79776 -2.186,1.27618c-0.75018,0.51929 -1.42044,0.88956 -2.34732,1.05267c-0.85187,0.1499 -1.26233,0.76959 -1.82083,1.50449c-0.50443,0.66376 -0.97253,1.33414 -1.51517,2.07468c-0.45868,0.62595 -1.13068,1.25867 -1.96402,1.42532c-0.83331,0.16666 -0.54681,1.27383 -1.2215,1.87851c-0.66034,0.5918 -1.50754,0.4173 -2,1.22131c-0.37958,0.61972 -1.3425,0.8895 -2.13116,1.25735l-0.526,0.74265l-0.34283,0.77869" id="svg_18" stroke-width="2" stroke="#000" fill="none"/>
  <path t="73422,73534,73551,73551,73559,73582,73582,73598,73606,73614,73631,73647,73671,73694,73727,73759,73799,73823,73886,74047,74095,74278,74383,74407,74447,74503,74503,74519,74551,74559,74567,74577,74583,74583,74591,74599,74599,74606,74623,74647,74678,74678,74695,74855,74871,74887,74887,74919,75007,75103,75166,75206,75206" d="m275.51135,333.09091c0.61069,1.60001 1.30002,2.29999 1.80002,2.79999c0.69998,0.70001 1.40192,1.3981 1.89999,1.90002c0.69202,0.69733 0.91794,1.76337 1.58533,2.21466c0.75998,0.51392 1.62051,0.4722 2.14001,1.06c0.51511,0.58282 0.25241,1.48294 0.58533,2.41467c0.26331,0.73691 0.98398,1.22125 0.98932,2.11066c0.0054,0.89996 0.2587,2.06891 -0.42532,2.46399c-0.8075,0.4664 -1.77466,0.03601 -2.67465,0.03601c-0.90002,0 -1.70001,0 -2.60001,0c-0.89999,0 -1.78366,-0.11002 -2.35266,-0.64734c-0.58112,-0.54877 -1.31894,-1.02734 -1.66202,-1.87c-0.3378,-0.82974 -0.51364,-1.80118 -0.78534,-2.48267c-0.38849,-0.9744 -0.46744,-1.90662 -1.02081,-2.52084c-0.64291,-0.71359 -1.25122,-1.11487 -1.8685,-1.87915c-0.60135,-0.74457 -0.65851,-1.70129 -0.61069,-2.60001c0.04272,-0.80341 0.43384,-1.67474 1.30002,-1.94284c0.8602,-0.26624 1.86667,-0.05716 2.69998,-0.05716l0.80002,0" id="svg_19" stroke-width="2" stroke="#000" fill="none"/>
  <path t="77294,77566,77578,77607,77615,77630,77640,77662,77678,77710,77719,77742,77766,77798,77814,77823,77846,77855,77886,77902,77918,77918,77926,77958,77982,77991,77999,78009,78054,78063,78073,78079,78095,78103,78111,78119,78134,78135,78143,78174,78183,78198,78209,78209,78223,78230,78239,78239,78263,78263,78279,78286,78295,78303,78303,78311,78327,78335,78335,78342,78351,78359,78375,78383,78383,78391,78399,78422,78422,78431,78431,78439,78447,78456,78462,78462,78472,78486,78495,78518,78527,78535,78551,78559,78567,78582,78592,78608,78615,78625,78638,78647,78663,78672,78688,78695,78711,78711,78718,78727,78743,78751,78751,78758,78775,78791,78798,78808,78846,78870,78871,78879,78895,78902,78919,78927,78974,78974,78983,79006,79022,79023,79031,79031,79041,79046,79047,79055,79063,79071,79088,79095,79118,79127,79134,79150,79166,79182,79198,79207,79238,79238,79254,79262,79271,79288,79295,79311,79327,79327,79334,79343,79359,79366,79375,79391,79399,79399,79408,79414,79425,79441,79446,79457,79458,79462,79471,79478,79503,79511,79527,79527,79535,79535,79543,79551,79552,79559,79576,79584,79600,79600,79616,79616,79631,79632,79646,79650,79650,79663,79672,79680,79680,79689,79697,79705,79713,79713,79719,79736,79743,79743,79769,79784,79793,79799,79800,79809,79816,79824,79830,79830,79840,79840,79846,79846,79861,79863,79877,79879,79879,79887,79887,79895,79904,79912,79920,79928,79935,79935,79951,79962,79967,79977,79983,79983,79995,79995,79999,80011,80012,80015,80029,80031,80031,80045,80046,80048,80057,80070,80070,80087,80087,80095,80095,80103,80111,80127,80144,80150,80150,80162,80190,80201,80215,80215,80230,80249,80257,80265,80266,80272,80289,80289,80297,80312,80321,80334,80347,80363,80375,80396,80398,80408,80425,80425,80430,80454,80473,80486,80486,80503,80511,80520,80536,80545,80561,80577,80583,80598,80615,80623,80630,80640,80646,80662,80678,80694,80695,80702,80711,80719,80744,80790" d="m502.51135,153.09091c-1.69998,0 -2.38715,0.31448 -3.16666,0.83333c-0.70746,0.47089 -1.51175,0.45192 -2.11734,1.08267c-0.55002,0.57286 -1.23666,1.07138 -2.116,1.084c-0.89539,0.01286 -1.58194,0.43544 -1.60001,1.2955c-0.01947,0.92563 -0.36212,1.64093 -1,2.2045c-0.58347,0.5155 -1.30511,0.86897 -1.91464,1.50133c-0.6033,0.6259 -1.08621,0.96149 -1.88535,0.99867c-0.91766,0.04271 -1.64975,0.5453 -2.11465,1.28534c-0.48804,0.77686 -0.39899,1.47421 -1.284,1.71599c-0.79779,0.21794 -1.48416,0.81647 -1.79068,1.60934c-0.31317,0.81013 -0.43726,1.39854 -1.01068,1.88933c-0.612,0.52379 -1.3923,0.94421 -2.09998,1.59984c-0.59363,0.54996 -1.58456,0.69972 -2.25269,1.25732c-0.6987,0.58313 -0.91031,1.42764 -1.64734,1.80951c-0.75394,0.39063 -1.62399,0.394 -2.47916,0.875c-0.70563,0.3969 -0.35733,1.62325 -1.08884,1.95966c-0.66214,0.3045 -1.27652,0.72922 -1.86798,1.388c-0.61993,0.69049 -1.68805,0.80374 -2.26401,1.31517c-0.73227,0.65021 -1.39838,1.18658 -2.30002,1.2955c-0.79871,0.0965 -1.66299,0.46919 -2.38931,0.97467c-0.65982,0.4592 -0.51553,1.60059 -1.31601,1.97266c-0.6705,0.31166 -1.25403,0.81715 -1.81549,1.55267c-0.50607,0.66296 -1.22266,1.22044 -1.96185,1.7c-0.64456,0.41817 -1.26132,1.24521 -1.95331,1.77467c-0.74899,0.57307 -1.55618,0.90262 -2.36401,1.024c-0.90857,0.13652 -1.35464,0.9176 -2.22534,1.00133c-0.77243,0.07428 -1.6748,-0.0168 -2.57465,0c-0.96454,0.01801 -1.39429,0.8181 -2.20135,0.99867c-0.87698,0.19621 -1.59946,0.20154 -2.28265,0.71733c-0.61536,0.46457 -1.75186,0.16588 -2.39517,0.80482c-0.64221,0.63785 -0.89682,1.50763 -1.54617,2.05383c-0.63556,0.53461 -1.36697,0.86955 -2.07465,1.52518c-0.59363,0.54996 -1.49567,0.90379 -1.95267,1.60466c-0.50415,0.77319 -0.9581,1.5143 -1.64734,1.93834c-0.82138,0.50534 -1.85199,0.06808 -2.68933,0.36783c-0.73676,0.26375 -1.04953,1.23154 -1.77734,1.82266c-0.69669,0.56586 -1.42056,0.76796 -2.23334,1.14134c-0.88702,0.40749 -1.74933,0.61089 -2.43332,1.192c-0.6669,0.5666 -1.21347,1.14018 -1.96667,1.54933c-0.79752,0.43321 -1.19354,1.06812 -1.55716,1.93666c-0.29993,0.71642 -0.7204,1.6156 -1.44284,2.06067c-0.74957,0.46176 -1.92056,0.03348 -2.63068,0.37199c-0.78934,0.3763 -1.00336,1.58878 -1.86932,1.8575c-0.86011,0.26691 -1.45041,0.50516 -2.13599,1.03185c-0.65363,0.50215 -1.81699,0.50737 -2.39734,1.192c-0.53491,0.63101 -0.78049,1.42534 -1.14133,2.23332c-0.34946,0.78249 -1.05984,1.34222 -1.82535,1.68401c-0.74356,0.33199 -1.50815,0.84753 -2.20001,1.416c-0.62238,0.51138 -1.26743,1.11855 -2.08398,1.49867c-0.8443,0.39304 -1.6163,0.41206 -2.39517,1.00133c-0.61282,0.46364 -0.47885,1.58043 -1.1315,2.02533c-0.73117,0.49843 -1.65369,0.73927 -2.38934,1.14134c-0.73547,0.40195 -0.81998,1.44194 -1.35715,2.12883c-0.5817,0.74384 -1.82285,0.32771 -2.47617,0.87117c-0.69,0.57396 -0.64914,1.63159 -1.16669,2.3125c-0.48151,0.63348 -1.75775,0.38982 -2,0.95683c-0.37881,0.88669 -0.4353,1.67531 -1.18533,2.164c-0.78549,0.5118 -1.51135,0.80415 -2.20398,1.38533c-0.69781,0.58553 -0.76453,1.38544 -1.32666,2.09734c-0.58426,0.73994 -1.59506,0.63737 -2.11734,1.25066c-0.46204,0.54253 -0.57501,1.68799 -1.1875,2.14584c-0.77298,0.57785 -1.57889,1.09807 -1.95383,1.92082c-0.35587,0.78094 -0.75876,1.47772 -1.52536,2.07918c-0.64972,0.50975 -1.49115,0.86089 -2,1.52083c-0.58981,0.76494 -1.67999,0.62321 -2.33331,1.16667c-0.69,0.57396 -0.76965,1.41336 -1.66669,1.83333c-0.79346,0.37148 -1.43665,1.07143 -2.064,1.564c-0.6626,0.52023 -1.33069,0.91159 -1.78867,1.73601c-0.41235,0.74228 -0.58075,1.62506 -1.16815,2.17917c-0.73413,0.69249 -1.8226,0.70013 -2.3125,1.52083c-0.41318,0.69214 -0.69373,1.52509 -1.35202,2.13867c-0.61142,0.56992 -1.63715,0.74472 -2.29382,1.38217c-0.57861,0.56168 -0.96286,1.2648 -1.72083,1.76581c-0.70786,0.4679 -1.0159,1.4223 -1.5,2.00351c-0.60611,0.72766 -1.60001,0.70975 -2.5,0.70984c-0.89984,0.00009 -1.56131,0.36163 -2.02151,1.09982c-0.44711,0.71716 -1.49274,0.47858 -2.3425,0.93619c-0.72903,0.39261 -0.84735,1.38818 -1.53616,2.064c-0.6351,0.62311 -1.36182,1.14368 -2.07449,1.46399c-0.91553,0.4115 -1.78363,0.66995 -2.52533,1.08334c-0.7637,0.42566 -1.61386,0.69507 -2.30002,1.35266c-0.61261,0.5871 -1.30304,1.12411 -1.71466,1.79999c-0.51309,0.84247 -1.12042,1.34103 -1.69598,2.06134c-0.50546,0.63257 -1.06738,1.26212 -1.76401,1.728c-0.93085,0.62253 -1.25238,1.241 -1.85068,1.97467c-0.52878,0.64844 -1.43774,1.00964 -2.27466,1.38333c-0.77216,0.34476 -1.68552,0.47952 -2.34283,1.10535c-0.62177,0.59198 -1.20773,0.58063 -2.02383,1.11398c-0.63522,0.41516 -0.92249,1.44168 -1.73334,1.80801c-0.78165,0.35315 -1.62918,0.78119 -2.29999,1.078c-0.84769,0.37506 -1.49808,1.14926 -2,1.64734c-0.69736,0.69202 -1.78363,0.74979 -2.29868,1.38531c-0.5759,0.71063 -0.17358,1.72144 -1.02667,1.91467c-0.8598,0.19476 -1.28802,0.76059 -2.17331,1.00134c-0.80194,0.21808 -1.4169,0.75888 -2.09601,1.05133c-0.8168,0.35175 -1.19406,1.23428 -1.92685,1.82599c-0.64581,0.52148 -1.56812,0.77872 -1.75766,1.62134c-0.21509,0.95615 -0.79562,1.43661 -1.01633,2.2045c-0.24738,0.86066 0.31668,1.83469 -0.01517,2.72083c-0.26471,0.70685 -0.9827,1.20236 -1.41467,1.97467c-0.45758,0.81808 -0.96637,1.50046 -1.54932,2.02533c-0.58917,0.53049 -1.52869,0.94019 -1.90402,1.67468c-0.42999,0.84146 -0.61374,1.69083 -1.12134,2.37915c-0.51328,0.69604 -1.08398,1.23685 -1.94281,1.52533l-0.14252,0.79684" id="svg_20" stroke-width="2" stroke="#000" fill="none"/>
  <path t="85006,85030,85046,85070,85079,85110,85126,85126,85134,85142,85150,85150,85166,85174,85174,85182,85190,85198,85214,85230,85247,85254,85264,85278,85286,85302,85318,85326,85334,85358,85374,85374,85382,85398,85414,85422,85430,85447,85454,85464,85470,85478,85478,85494,85517,85534,85534,85542,85550,85566,85574,85582,85598,85606,85614,85614,85630,85638,85638,85638,85647,85654,85663,85670,85678,85678,85686,85694,85694,85702,85718,85718,85734,85734,85742,85742,85750,85766,85774,85774,85782,85798,85807,85814,85822,85838,85854,85863,85870,85886,85894,85902,85902,85909,85926,85942,85942,85950,85950,85966,85973,85982,85990" d="m367.51135,262.09091c-1.08398,1.71466 -1.80176,1.97214 -2.69998,2c-0.94412,0.0293 -1.5076,0.74518 -2.30002,1.16666c-0.64059,0.34073 -1.53632,0.76038 -2.29999,1.186c-0.74173,0.41339 -1.5545,0.65668 -2.29999,1.258c-0.6539,0.52744 -1.1731,1.21246 -2.10001,1.38486c-0.92892,0.17276 -1.50641,0.56635 -2.17868,1.22583c-0.61801,0.60626 -1.41919,0.61929 -2.06866,1.13132c-0.61459,0.48453 -1.48749,0.40445 -2.34814,0.65182c-0.76788,0.2207 -1.27646,0.94037 -1.72986,1.60617c-0.49551,0.72763 -1.22827,1.17838 -2.07465,1.61069c-0.6553,0.33472 -1.56503,0.79517 -1.87466,1.62933c-0.29169,0.78589 -0.634,1.65714 -1.38251,2.09216c-0.73038,0.42447 -1.87582,-0.18817 -2.55884,0.34116c-0.62967,0.48798 -1.22235,1.10208 -1.884,1.43201c-0.84335,0.42056 -1.86087,0.24738 -2.68268,0.56934c-0.68176,0.26709 -1.3602,1.05026 -1.94266,1.68933c-0.53406,0.58597 -0.97577,1.2955 -1.45334,2.12515c-0.45432,0.78928 -1.27557,0.71686 -2.12134,1.06683c-0.78461,0.32468 -1.56757,0.77539 -2.32132,1.276c-0.73157,0.48587 -1.17282,1.02975 -2.15784,1.5365c-0.79996,0.41153 -1.05283,1.21954 -1.6875,1.85419c-0.63467,0.63464 -1.51129,0.87051 -2.35416,1.16666c-0.78348,0.2753 -1.6593,0.565 -2.31119,1.19867c-0.65552,0.63721 -1.44724,0.70969 -2.14648,1.24417c-0.60754,0.46439 -1.02298,1.63889 -1.62149,2.1105c-0.69885,0.55072 -1.84412,0.26547 -2.59866,0.73199c-0.6207,0.38376 -0.89978,1.40253 -1.60269,1.79865c-0.81659,0.46021 -1.58798,0.89069 -2.19867,1.41602c-0.61066,0.52533 -1.39444,0.93451 -2.19864,1.41599c-0.74365,0.44522 -1.34586,0.87454 -2.09683,1.44119c-0.66907,0.50482 -0.49939,1.47989 -0.76169,2.34283c-0.26892,0.88467 -1.00357,1.44626 -1.69998,2c-0.6897,0.54837 -1.3815,0.89999 -2.13303,1.59998l-0.33115,0.79984l-0.612,0.73352l-0.814,0.22382" id="svg_22" stroke-width="2" stroke="#000" fill="none"/>
  <path t="86942,87022,87030,87038,87038,87046,87046,87054,87054,87063,87063,87071,87071,87079,87079,87087,87087,87095,87095,87102,87102,87112,87112,87118,87118,87126,87126,87134,87142,87142,87150,87158,87158,87166,87174,87182,87182,87190,87190,87198,87206,87206,87222,87230,87230,87238,87246,87254,87254,87262,87262,87270,87278,87286,87295,87295,87295,87302,87311,87318,87326,87334,87334,87342,87342,87350,87358,87366,87366,87374,87374,87386,87390,87406,87422,87422,87437,87437,87437,87445,87453,87453,87469,87478,87478,87486,87509,87533,87557,87557,87573,87573" d="m361.51135,270.09091c-1.69998,1.05267 -2.54364,1.47873 -3.19864,2.20132c-0.47787,0.52716 -0.5108,1.59369 -1.056,2.22934c-0.60507,0.70547 -1.55728,0.39841 -2.60236,0.79102c-0.784,0.29453 -1.19785,1.12912 -1.64301,1.75748c-0.6384,0.90112 -1.34006,1.2504 -1.80447,2.07886c-0.36377,0.64893 -1.00583,1.60056 -1.69553,1.92114c-0.82111,0.38165 -1.22556,1.04922 -2.16666,1.6875c-0.58975,0.39999 -1.71692,0.42078 -2.3125,0.85419c-0.79999,0.58218 -1.10703,1.34811 -1.58215,2.07916c-0.51834,0.79752 -1.14102,1.19482 -1.93869,1.87915c-0.64536,0.55365 -1.54504,0.54288 -2.36398,0.94617c-0.87024,0.42856 -1.61658,0.92407 -2.04666,1.42535c-0.72433,0.84424 -1.58701,0.74518 -2.3465,1.37082c-0.67896,0.55927 -0.8327,1.48386 -1.60001,2.13116c-0.69571,0.58691 -1.49734,0.65668 -2.24283,1.258c-0.6539,0.52744 -1.38779,1.29749 -2.15717,1.38486c-0.88544,0.10056 -1.78128,0.10663 -2.18152,0.85516c-0.48953,0.91559 -1.29071,0.9108 -2.06134,1.48267c-0.53192,0.39474 -0.66849,1.29623 -1.39999,2.01999c-0.6947,0.68735 -1.87949,0.32358 -2.47867,0.86816c-0.69778,0.63419 -0.85938,1.50211 -1.77399,1.72583c-0.6825,0.16696 -1.73965,0.45959 -2.22617,1.1525c-0.49585,0.70621 -1.38495,0.7305 -2.2345,1.18552c-0.6976,0.37363 -0.93726,1.36078 -1.59119,1.76733c-0.793,0.49301 -1.36081,1.29153 -1.81631,1.94733c-0.60147,0.86594 -1.13474,1.2384 -1.82651,1.6955c-0.89932,0.59427 -1.68185,1.06036 -2.35266,1.35718c-0.84769,0.37506 -1.42365,1.25116 -2.10001,1.66199c-0.77615,0.47141 -1.01718,1.12314 -1.272,1.92133c-0.29898,0.93652 -0.94882,1.36401 -1.76132,2.19736l-0.52002,0.53067" id="svg_23" stroke-width="2" stroke="#000" fill="none"/>
  <path t="88350,88422,88423,88439,88439,88451,88455,88467,88467,88471,88487,88487,88487,88495,88495,88503,88503,88512,88519,88528,88528,88535,88551,88559,88567,88575,88575,88583,88583,88591,88591,88599,88599,88607,88607,88616,88616,88623,88623,88632,88632,88639,88639,88639,88647,88655,88663,88671,88679,88687,88695,88711,88719,88735,88744,88761,88791,88791,88823,88831,88831,88847,88863,88903,88911,88967" d="m357.51135,278.09091c-1.16666,1 -1.60797,1.60266 -2.29999,2.29999c-0.49808,0.50192 -1.26105,1.15741 -1.64734,2c-0.35236,0.76859 -0.88174,1.35422 -1.68866,1.76135c-0.88315,0.44559 -1.39526,0.95309 -1.88,1.54132c-0.78421,0.9516 -1.02655,1.64005 -1.80518,2.37582c-0.60095,0.56787 -1.10559,1.22476 -1.84549,1.85486c-0.68332,0.58191 -1.52374,0.5907 -2.3125,1.16666c-0.64029,0.46753 -1.25467,1.00299 -1.93149,1.436c-0.79453,0.5083 -1.37936,1.04422 -2.42267,1.39734c-0.77191,0.26126 -1.67126,0.41144 -2.34134,0.77731c-0.97476,0.53226 -1.44278,1.00073 -2.30801,1.59067c-0.65018,0.4433 -1.15546,1.17303 -1.56799,1.93735c-0.41061,0.7608 -1.35947,0.81534 -2.34933,0.86398c-0.80203,0.03943 -1.81461,0.41946 -2.38931,0.84802c-0.56882,0.42419 -1.44843,1.09204 -2.40933,1.14932c-0.86115,0.05133 -1.93634,-0.45706 -2.63068,0.28534c-0.56845,0.60782 -0.53345,1.52975 -1.11801,2.06732c-0.58221,0.53543 -1.3111,1.06699 -2.05267,1.48068c-0.83887,0.46796 -1.12558,1.19934 -1.61066,1.76666c-0.63843,0.7467 -1.31647,1.48932 -1.98932,1.96399c-0.73483,0.51837 -1.59866,0.72134 -2.23334,1.436l-0.16669,0.83334l-0.71597,0.25198" id="svg_24" stroke-width="2" stroke="#000" fill="none"/>
  <path t="90582,90830,90839,90854,90862,90870,90879,90887,90903,90911,90919,90928,90935,90935,90945,90951,90962,90976,90992,90999,91009,91047,91087,91087,91111,91127,91136,91145,91182,91191,91192,91208,91231,91239,91247,91255,91255,91287,91311,91320,91328,91335,91345,91345,91362,91367,91383,91399,91415,91415,91431,91439,91463,91471,91487,91495,91495,91503,91511,91519,91519,91528,91535,91544,91551,91567,91567,91577,91583,91594,91598,91614,91614,91624,91631,91640,91647,91647,91654,91663,91670,91678,91679,91686,91686,91694,91695,91702,91711,91711,91718,91742,91742,91766,91790,91790,91807,91814,91815,91824,91840,91840,91870,91870,91910,91950,91950,91960,91967,91982,91993,91993,92010,92024,92024,92032,92040,92047,92063,92078,92086,92094,92095,92110,92118,92127,92134,92135,92143,92150,92166,92167,92177,92177,92193,92198,92199,92206,92207,92214,92223,92231,92240,92247,92247,92256,92263,92263,92270,92278,92278,92279,92286,92294,92302,92310,92310,92318,92334,92343,92360,92361,92377,92382,92391,92399,92409,92410,92414,92430,92431,92439,92447,92456,92456,92465,92466,92473,92482,92482,92487,92500,92500,92503,92527,92536,92552,92566,92568,92583,92594,92609,92616,92638,92651,92657,92683,92690,92690,92719,92728,92728,92759,92806" d="m502.51135,155.09091c0,1.8 0,2.7 0,3.60001c0,0.89999 0.18448,2.0464 -0.52081,2.37917c-0.78568,0.3707 -1.41803,0.42337 -1.90451,0.9955c-0.56638,0.66609 -1.55463,0.7112 -2.24133,1.192c-0.62161,0.43524 -1.07803,1.37108 -1.29733,2.23332c-0.22098,0.86876 -0.58051,1.39053 -1.33148,1.95717c-0.66907,0.50484 -1.1268,1.29234 -1.61917,1.92683c-0.56277,0.7252 -0.89557,1.25536 -1.58536,1.73683c-0.68506,0.47816 -1.41217,0.61482 -2.14282,1.03633c-0.8111,0.46793 -1.35803,0.90565 -2.15717,0.94284c-0.91766,0.04271 -1.4321,0.81769 -2.29984,1.00017c-0.79236,0.16663 -0.97778,1.25061 -1.61615,1.71449c-0.69662,0.5062 -1.54288,0.70665 -2.38385,1.164c-0.7475,0.40652 -1.30457,0.9686 -2.10016,1.40533c-0.64813,0.35577 -1.58307,0.38014 -2.36401,0.752c-0.73996,0.35234 -1.29684,0.946 -2.26932,0.964c-0.87985,0.01628 -1.68649,0.1624 -2.25067,0.716c-0.67218,0.65958 -1.21002,1.13251 -2.116,1.28532c-0.91357,0.1541 -1.45541,0.80171 -2.39999,0.98801c-0.79562,0.15692 -1.77853,0.12947 -2.53867,0.62134c-0.76239,0.49333 -1.30859,1.14032 -1.836,1.82533c-0.50238,0.65253 -1.05984,1.30621 -1.82535,1.64799c-0.74356,0.33199 -1.49866,0.88731 -2.39999,0.916c-0.89954,0.02863 -1.76035,0.23032 -2.5,0.64734c-0.74503,0.42004 -1.29819,1.10088 -2.16135,1.31667c-0.9436,0.2359 -1.78534,0.08788 -2.19131,0.74049c-0.47812,0.76859 -1.25082,1.25612 -2.11401,1.2955c-0.83273,0.03799 -1.82367,0.2027 -2.45865,0.61067c-0.87555,0.56256 -1.51172,1.07863 -2.48935,1.304c-0.86673,0.19981 -1.74011,0.09418 -2.44934,0.65999c-0.72092,0.57512 -1.22861,1.16603 -2.07199,1.45067c-0.84003,0.28349 -1.68106,0.73891 -2.61133,0.9175c-0.9046,0.17366 -1.86313,-0.18349 -2.58469,0.34251c-0.70541,0.51424 -1.16611,1.25336 -2.14633,1.59332c-0.72101,0.25006 -1.24219,1.00711 -2.12164,1.12151c-0.69928,0.09096 -1.43771,0.74463 -2.30002,0.96384c-0.87314,0.22197 -1.81949,0.29948 -2.39999,0.83733c-0.62173,0.57605 -1.21075,1.41747 -1.89999,1.84151c-0.82138,0.50534 -2.01276,0.23866 -2.28934,0.96783c-0.31543,0.83157 0.1059,1.79749 -0.01517,2.68933c-0.11151,0.82138 -0.79651,1.50034 -1.38483,2.08932c-0.69427,0.69507 -1.23825,1.24944 -2.09335,1.81067c-0.64233,0.42157 -1.24396,1.25195 -1.87448,1.74733c-0.71445,0.56133 -1.39987,0.77876 -1.93832,1.70534c-0.39023,0.67152 -0.48541,1.71404 -1.14719,2.44734c-0.45963,0.50929 -1.42734,0.97412 -1.55466,1.78532c-0.1441,0.9182 -0.30063,1.70761 -1.00269,2.1355c-0.72498,0.44186 -1.29999,1.27917 -1.79999,1.77917c-0.70001,0.7 -1.3981,1.40189 -1.89999,1.89999c-0.70801,0.70268 -1.47131,1.2926 -2.11469,1.7c-0.62054,0.39293 -1.02612,1.32127 -1.62131,1.98933c-0.61707,0.6926 -1.25681,1.11371 -1.61667,1.90533c-0.35608,0.78331 -1.49329,0.51755 -2.24283,1.0625c-0.67792,0.49289 -0.61642,1.59627 -1.31519,2.20683c-0.66635,0.58226 -1.78665,0.30957 -2.37466,0.87201c-0.58261,0.55727 -1.1857,1.16833 -2.12933,1.48c-0.87372,0.28857 -1.46234,0.68842 -1.88535,1.584c-0.3732,0.79015 -1.16507,1.34096 -1.82532,1.47467c-1.00571,0.20366 -1.70306,0.75681 -2.47916,0.96815c-0.98251,0.26758 -1.88953,-0.01552 -2.59018,0.40984c-0.75058,0.45567 -1.45715,0.64438 -2.45868,0.64734c-0.93066,0.00276 -1.45544,0.66605 -2.16748,0.97917c-0.79553,0.34985 -1.42059,0.77953 -2.18369,1.01633c-0.82178,0.25502 -1.1741,0.84583 -1.81631,1.48367c-0.64331,0.63893 -1.78329,0.33571 -2.39517,0.80482c-0.69287,0.5312 -1.20508,1.14517 -1.64801,1.86534c-0.52286,0.85013 -1.28665,1.28667 -1.86798,1.65199l-0.54666,0.79868l-0.02136,0.96399" id="svg_25" stroke-width="2" stroke="#000" fill="none"/>
  <path t="93303,93359,93359,93375,93375,93391,93391,93399,93407,93407,93415,93423,93423,93430,93439,93447,93456,93456,93462,93472,93472,93478,93488,93488,93495,93511,93511,93519,93519,93528,93535,93535,93543,93543,93550,93559,93575,93583,93599,93615,93639,93647,93655,93655,93687,93695,93719,93727,93727,93744,93751,93759,93783,93783,93796,93799,93799,93807,93808,93815,93815,93831,93831,93840,93840,93847,93855,93863,93863,93871,93879,93888,93896,93896,93903,93903,93903,93912,93919,93919,93929,93943,93951,93960,93960,93967,93967,93978,93978,93983,93983,93992,93999,94015,94027,94027,94031,94047,94057,94063,94071,94079,94088,94094,94105,94111,94126,94142,94143,94151,94167,94177,94182,94194,94198,94210,94210,94215,94227,94230,94230,94243,94243,94247,94257,94262,94286,94295,94310,94327,94327,94327,94334,94334,94344,94344,94350,94360,94360,94382,94462,94479,94494,94504" d="m458.51135,191.09091c-1.83331,0.16667 -2.09464,0.90431 -2.87198,1.38933c-0.67859,0.4234 -1.7861,0.33875 -2.55734,0.69467c-0.73956,0.34129 -1.25156,1.27135 -1.92249,1.55884c-0.98843,0.42352 -2.00488,0.51045 -2.62735,0.87799c-0.83508,0.49309 -1.41824,1.14885 -1.93683,1.76451c-0.56042,0.66534 -0.87643,1.45442 -1.72,1.73999c-0.83856,0.28387 -1.65576,0.61882 -2.46933,1.02734c-0.75751,0.38037 -1.45761,0.6889 -2.25867,1.34732c-0.78476,0.64502 -1.26553,1.21582 -1.836,2.08267c-0.42236,0.64183 -0.99084,1.42377 -1.96667,1.51733c-0.65573,0.06288 -1.72464,0.08017 -2.42267,0.61067c-0.6749,0.51292 -0.85181,1.58243 -1.41068,2.22266c-0.45041,0.51598 -1.28522,0.84508 -1.91599,1.45067c-0.57288,0.55 -1.03067,1.35822 -1.78934,1.66333c-0.686,0.27588 -1.57648,0.72514 -2.17334,1.274c-0.64005,0.58855 -1.26932,1.14607 -1.92133,1.49467c-0.84738,0.45306 -1.79507,0.74634 -2.14282,1.5795c-0.34647,0.83006 -0.76169,1.409 -1.45718,2.10449c-0.60001,0.60001 -1.20639,1.2457 -2.08398,1.51733c-0.67398,0.20862 -1.59439,0.68593 -2.14133,1.23201c-0.65393,0.65289 -1.59698,0.73488 -2.48935,1.13466c-0.73828,0.33075 -1.47644,0.80904 -1.99518,1.4205c-0.5448,0.6422 -1.37918,1.05693 -1.90482,1.89551c-0.47519,0.75812 -1.28656,1.05403 -1.81866,1.73332c-0.52887,0.67517 -0.82001,1.47098 -1.6875,1.64584c-0.70578,0.14227 -1.8233,0.43814 -2.47919,1.02083c-0.6156,0.54689 -1.51529,0.86031 -2,1.52083c-0.50598,0.68953 -0.77872,1.62402 -1.16931,2.3645c-0.43619,0.82692 -0.92029,1.4054 -1.94669,1.94534c-0.59543,0.31323 -1.63632,0.37953 -2.31467,0.97066c-0.72418,0.63107 -1.00818,1.44087 -1.73599,2.032c-0.69669,0.56586 -1.52374,0.59071 -2.3125,1.16667c-0.64029,0.46753 -1.22385,1.05534 -2.02084,1.5c-0.79849,0.4455 -1.80237,0.31712 -2.41599,0.784c-0.68802,0.52348 -1.41501,0.90285 -1.91733,1.716c-0.47168,0.76358 -1.13678,1.21457 -1.76666,1.57466c-0.86423,0.49405 -1.93005,0.5966 -2.34283,1.37267c-0.35959,0.67607 -0.51868,1.64973 -1.36166,2c-0.82153,0.34137 -1.81314,0.42348 -2.45267,1.15251c-0.55399,0.63152 -1.20752,1.12805 -1.87885,1.47482c-0.81107,0.41896 -1.62207,0.52136 -2.41217,1.07268c-0.63263,0.44144 -1.62595,0.78671 -1.89465,1.65266c-0.26691,0.86011 -0.46686,1.56374 -1.22385,2.03333c-0.72446,0.4494 -1.21219,1.05247 -2.03299,1.64516c-0.73694,0.53214 -1.43546,1.03873 -1.883,1.8215c-0.40991,0.71692 -1.02502,1.53134 -1.71735,1.91467c-0.83789,0.46393 -1.77466,0.32135 -2.19867,1.00134l-0.64865,0.34116l-0.43668,0.65884" id="svg_26" stroke-width="2" stroke="#000" fill="none"/>
  <path t="95606,95654,95678,95687,95695,95703,95711,95711,95719,95737,95743,95753,95753,95760,95760,95799,95815,95839,95855,95871" d="m505.51135,166.09091c-1.71466,1.084 -2.31497,1.74956 -2.91599,2.284c-0.64606,0.57448 -1.2113,1.12488 -2.08401,1.54933c-0.75391,0.36667 -1.42255,0.8522 -2.29999,1.1095c-0.86545,0.25378 -1.75211,0.36392 -2.45715,0.70451c-0.84656,0.40895 -1.47385,0.64352 -2.24286,1.18599c-0.60403,0.42609 -1.5,0.66667 -2.29999,1.1095l-0.79984,0.05734" id="svg_27" stroke-width="2" stroke="#000" fill="none"/>
  <path t="98206,98398,98406,98606,98678,98678,98734,98806,98822,98846,98862,98878,98910,98942,98982,99022,99054,99054" d="m539.51135,135.09091c0,1.8 0.31451,2.38713 0.83337,3.16667c0.47089,0.70746 0.65778,1.77638 0.16663,2.54799c-0.36194,0.56862 -1.5,0.28534 -2.39996,0.28534c-0.90002,0 -1.80005,0 -2.70001,0c-0.90002,0 -1.7785,-0.2215 -1.90002,-1.10001l0,-0.89999l0,-0.8" id="svg_28" stroke-width="2" stroke="#000" fill="none"/>
  <path t="99638,99718,99742,99758,99782,99806,99862,99934,99958,100006,100037,100046,100190,100206,100206,100230,100302" d="m529.51135,145.09091c1.70001,0.05716 2.55219,0.4814 2.94733,1.3c0.41718,0.86423 0.96887,1.5201 1.05267,2.31067c0.09375,0.88437 0.17999,1.88725 0,2.74199c-0.14581,0.69225 -1.20001,0.64734 -2.09998,0.64734c-0.90002,0 -1.70001,0 -2.60004,0l-0.89996,0" id="svg_29" stroke-width="2" stroke="#000" fill="none"/>
  <path t="100838,100926,100950,100958,100974,100974,100990,101030,101054,101086,101190,101222,101230,101246,101254,101262,101374,101390" d="m528.51135,155.09091c0.05719,1.7 0.56201,2.46837 0.94733,3.3c0.40399,0.87186 0.42657,1.73073 1.13666,2.41466c0.60809,0.58569 0.93274,0.98999 0.91602,1.88535c-0.01801,0.96449 -0.70447,1.39774 -1.59998,1.39999c-0.90002,0.00226 -1.79999,0 -2.70001,0l-0.89868,-0.00133l-0.74414,-0.35583" id="svg_30" stroke-width="2" stroke="#000" fill="none"/>
 </g>
 <g display="none">
  <title>muse_image</title>
  <image xlink:href="http://farm1.static.flickr.com/6/78010527_7398e46227.jpg" id="muse" height="480" width="581" y="0" x="29.5"/>
 </g>
 <g display="none">
  <title>bbox</title>
  <rect stroke="#f00" fill="none" stroke-width="3" height="278.93462" width="356.734" y="141.79177" x="249.118" id="bbox"/>
 </g>
</svg>
