<svg width="640" height="480" xmlns="http://www.w3.org/2000/svg" xmlns:svg="http://www.w3.org/2000/svg" xmlns:xlink="http://www.w3.org/1999/xlink">
 <!-- Sketchy ANNOTATION
  ImageNet ID: n03272010_6799
  URL: http://farm4.static.flickr.com/3066/3027997812_c32cfd7453.jpg
  Image Width: 311
  Image Height: 500
  BBox X: 61
  BBox Y: 10
  BBox Width: 182
  BBox Height: 463
  Exposure: 2000ms
  Synset Label: guitar
  Synset ID: n03467517
  Worker Tag: irregular shape guitar
  Sanity Check: 
   Saved
  Comment: 
   {}
  Worker ID: A1Y3PSVSU557SW
  Assignment ID: 3VAR3R6G1P18XRRAPLIP8EEMQWV8OL
  HIT ID: 3UUIU9GZC5530HFMX2SJ1KFXJQT5TU
  Work Time: 66s
  Worker Score: 0.7857
 END ANNOTATION -->
 <g display="inline">
  <title>Layer 1</title>
  <path t="0,155,155,156,187,187,187,215,215,215,215,215,215,215,215,220,220,220,220,220,220,243,243,243,289,289,289,289,292,292,292,292,292,292,292,307,307,307,307,315,315,326,335,349,349,355,366,371,394,394,403,403,410,411,419,426,442,443,450,451,458,458,467,474,474,483,483,490,490,499,500,506,516,522,539,549,554,587,587" d="m285,232.78333c-3.59732,0.28401 -4.45462,0.51373 -5.22934,0.716c-0.98792,0.25793 -1.6402,0.37054 -2.25067,0.53867c-1.39832,0.38509 -1.99786,0.59834 -2.65933,0.81233c-0.70657,0.22858 -1.44449,0.47321 -2.202,0.729c-0.76651,0.25883 -1.53,0.517 -2.992,1.03734c-0.68094,0.24236 -1.92151,0.70111 -2.47998,0.92c-1.00275,0.39302 -1.47574,0.51402 -2.80084,1.22533c-0.67252,0.36099 -1.26242,0.9088 -1.87784,1.51201c-0.62952,0.61705 -1.19638,1.14464 -1.53601,1.452c-1.27127,1.15053 -1.79019,1.5925 -2.33081,2.06351c-0.5567,0.48502 -1.1203,0.97304 -1.6785,1.4565c-0.54214,0.46954 -1.96318,1.70341 -2.33385,2.02983c-0.82463,0.72621 -1.50008,1.31023 -2.27699,1.8075c-0.6371,0.40778 -1.18755,1.11108 -1.35184,2.08934c-0.14262,0.84924 -0.77577,1.25156 -1.38933,2.01067c-0.60091,0.74347 -0.41933,1.74055 -0.77734,2.59999c-0.29828,0.71603 -0.98747,1.29398 -1.39732,2.17468c-0.36418,0.78256 -0.24374,1.65723 -0.49316,2.52533c-0.25754,0.89639 -0.87175,1.61664 -0.93217,2.51065c-0.06671,0.98697 0.10509,1.80347 -0.17734,2.62268c-0.28,0.81216 -0.81532,1.57681 -0.83333,2.48816c-0.01756,0.88898 0,1.87833 0,2.65768c0,0.85416 0,1.7735 0,2.67349c0,0.86334 0.06802,1.76312 0.57466,2.37265c0.53088,0.6387 0.85068,1.37466 1.34001,2.17468l0.08533,0.89999l0,0.89999l0.08533,0.80002" id="svg_1" stroke-width="2" stroke="#000" fill="none"/>
  <path t="1228,1330,1330,1339,1339,1339,1348,1348,1354,1354,1354,1365,1365,1365,1370,1370,1383,1383,1383,1388,1389,1389,1389,1399,1399,1406,1406,1410,1410,1411,1419,1419,1426,1427,1427,1434,1435,1442,1442,1451,1451,1458,1458,1458,1466,1467,1474,1474,1482,1482,1490,1490,1499,1506,1516,1516,1522,1533,1538,1538,1549,1554,1554,1554,1566,1566,1570,1571,1582,1583,1586,1586,1587,1599,1599,1599,1603,1603,1610,1611,1611,1619,1619,1627,1627,1627,1635,1635,1642,1643,1651,1651,1651,1658,1658,1658,1667,1667,1674,1674,1683,1683,1690,1690,1690,1699,1699,1699,1706,1706,1716,1716,1716,1722,1722,1723,1733,1733,1738,1738,1749,1749,1771,1783,1786,1799,1802,1811,1819,1827,1836,1853,1853,1858,1858,1874,1875,1883,1899,1899,1906,1906,1922,1933,1933,1938,1938,1949,1954,1966,1970,1983,1983,1986,1999,2003,2130,2138,2138,2150,2150,2157,2157,2165,2165,2170,2171,2171,2182,2183,2190,2190,2190,2190,2199,2199,2199,2199,2202,2202,2203,2210,2211,2219,2219,2219,2228,2228,2228,2228,2237,2237,2237,2242,2243,2251,2251,2258,2258,2269,2269,2283,2283,2290,2290,2291,2299,2300,2312,2312,2318,2318,2323,2323,2323,2333,2338,2339,2349,2349,2349,2354,2366,2366,2370,2371,2371,2383,2386,2400,2404,2404,2411,2421,2421,2427,2434,2435,2435,2442,2450,2451,2458,2466,2474,2474,2483,2490,2490,2499,2499,2506,2516,2516,2533,2533,2538,2563,2563,2571,2583,2599,2599,2602,2610,2618,2619,2626,2635,2635,2642,2650,2651,2658,2666,2674,2674,2683,2690,2700,2706,2707,2716,2733,2733,2749,2766,2783,2799,2800,2803,2811,2819,2837,2843,2854,2858,2867,2874,2883,2890,2890,2906,2907,2916,2916,2922,2923,2933,2938,2939,2950,2950,2966,2966,2970,2971,2983,3034,3194,3216,3227,3227,3235,3242,3250,3258,3274,3283,3290,3299,3299,3313,3315,3322,3323,3333,3338,3338,3349,3349,3354,3355,3366,3366,3370,3370,3383,3383,3387,3387,3399,3403,3411,3411,3418,3419,3427,3436,3442,3443,3450,3451,3451,3459,3466,3467,3474,3474,3483,3490,3490,3499,3499,3506,3516,3516,3533,3533,3533,3538,3550,3555,3570,3586,3600,3618,3627,3627,3634,3650,3658,3674,3675,3683,3683,3700,3706,3707,3722,3733,3738,3739,3754,3766,3783,3783,3786,3799,3830,3830,3837,3842,3852,3859,3867,3883,3890,3891,3900,3900,3906,3916,3923,3938,3949,3954,3966,3982,3987,4000,4002,4003,4018,4019,4026,4027,4027,4035,4042,4043,4090,4090,4091,4091,4092,4092,4092,4092,4093,4093,4093,4106,4107,4107,4115,4116,4133,4133,4138,4139,4154,4155,4166,4167,4170,4171,4183,4183,4186,4187,4200,4200,4200,4203,4203,4216,4217,4220,4220,4220,4228,4228,4229,4237,4243,4243,4253,4254,4259,4259,4267,4267,4274,4275,4283,4283,4290,4300,4306,4316,4316,4316,4323,4323,4334,4334,4338,4339,4349,4350,4354,4355,4366,4367,4370,4371,4383,4383,4387,4387,4400,4400,4403,4411,4411,4419,4419,4419,4427,4427,4436,4436,4442,4443,4450,4458,4459,4466,4474,4475,4483,4483,4490,4491,4491,4500,4500,4506,4516,4516,4517,4522,4523,4523,4533,4533,4538,4539,4539,4550,4550,4555,4555,4567,4567,4570,4571,4571,4583,4583,4587,4587,4600,4600,4604,4611,4620,4620,4627,4627,4635,4635,4642,4651,4651,4659,4659,4667,4674,4675,4683,4683,4690,4691,4691,4700,4706,4707,4717,4717,4717,4722,4723,4733,4738,4739,4750,4755,4766,4767,4771,4771,4786,4800,4800,4802,4803,4816,4818,4829,4837,4837,4843,4853,4853,4858,4859,4868,4868,4874,4875,4883,4884,4890,4891,4900,4906,4917,4922,4923,4938,4939,4950,4950,4967,4970,4971,4986,5000,5000,5002,5016,5018,5027,5027,5035,5043,5043,5132,5132,5141,5141,5141,5142,5142,5142,5142,5150,5151,5151,5154,5171,5183,5186,5200,5216,5217,5235,5250,5251,5258,5274,5284,5301,5306,5307,5316,5317,5324,5333,5338,5350,5350,5366,5370,5383,5387,5400,5403,5412,5420,5427,5427,5442,5443,5450,5451,5458,5466,5474,5475,5490,5500,5500,5516,5522,5533,5538,5550,5554,5567,5583,5610,5627,5634,5635,5643,5651,5666,5675,5690,5706,5716,5722,5738,5750,5754,5766,5783,5786,5800,5803,5819,5829,5850,5859,5882,5890,5900,5946,5978,6027,6090,6090,6092,6092,6101,6101,6116,6123,6133,6138,6150,6154,6167,6170,6171,6183,6188,6203,6217,6217,6218,6219,6235,6243,6251,6258,6267,6267,6274,6283,6290,6300,6306,6317,6317,6331,6331,6350,6366,6370,6383,6400,6403,6411,6412,6420,6442,6458,6468,6469,6483,6490,6500,6506,6507,6517,6517,6522,6533,6538,6539,6550,6550,6555,6567,6567,6571,6571,6583,6587,6604,6604,6617,6617,6708,6709,6794,6795" d="m290,232.78333c0,1.84668 0,2.68668 0,3.68401c0,0.81599 0,1.632 0,2.632c0,0.90933 0,1.85066 0,2.63666c0,0.82201 0,1.88068 0,2.81134c0,0.6315 0,1.63733 0,2.472c0,0.93066 0,1.72116 0,2.57466c0,1.18933 0,2.08484 0,2.6685c0,0.83549 -0.00006,2.06367 0,2.71017c0.00009,1.01067 -0.06842,1.8278 0.16666,2.81065c0.19638,0.82098 0.64059,1.59708 1.03336,2.40134c0.40616,0.83167 0.80145,1.76477 1.09998,2.54684c0.30151,0.78992 0.68924,1.72498 1.08936,2.37982c0.47662,0.78009 0.66718,1.56757 0.96783,2.33368c0.3186,0.81186 0.73978,1.76065 1.04282,2.55298c0.29703,0.77667 0.64325,1.68518 1.20001,2.36401c0.54895,0.66931 1.16385,1.17188 1.88266,1.90533c0.50119,0.51141 0.97467,1.48764 1.56549,2.15433c0.5148,0.5809 1.48285,0.85199 2.15051,1.56168c0.54227,0.57639 0.87918,1.52765 1.66266,1.77466c0.94495,0.29791 1.72333,0.48032 2.086,1.32983c0.3493,0.81821 0.53778,1.73816 0.93933,2.21152c0.6832,0.80539 1.50186,1.18771 2.51202,1.39999c0.75656,0.15897 1.7049,0.39297 2.41116,0.78848c0.9422,0.52765 1.45279,0.69208 2.24197,0.99551c1.02838,0.39539 1.91278,0.82178 2.54684,1.01465c0.9877,0.30042 1.86713,0.29449 2.82251,0.50684c0.8024,0.17834 1.59018,0.43948 2.43616,0.87836c0.81589,0.42328 1.68396,0.7912 2.40399,0.87482c0.78903,0.09161 1.82538,0.22156 2.69702,0.52533c0.88419,0.30814 1.703,0.48831 2.5845,0.50018c0.71848,0.00967 1.52612,-0.02362 2.77316,0.28381c0.69644,0.17169 1.35818,0.48999 2.36667,0.63068c0.79141,0.11038 1.98398,0.08533 2.79648,0.08533c0.84235,0 1.73151,0 2.72101,0c0.82068,0 1.48526,0.01126 2.48383,-0.00131c0.81619,-0.01028 1.64487,-0.02774 2.63202,-0.28268c0.92432,-0.23871 1.84808,-0.56879 2.63666,-0.66333c0.81982,-0.0983 1.88831,-0.19238 2.59018,-0.40533c0.86328,-0.26193 1.86404,-0.51636 2.62115,-0.67267c0.96613,-0.19946 1.56702,-0.69708 2.48868,-0.922c0.84915,-0.20721 1.73288,-0.44382 2.39999,-1.10535c0.62653,-0.62128 1.0368,-1.33911 1.59467,-2c0.49512,-0.58655 1.03891,-1.36969 1.2955,-2.24731c0.25345,-0.86685 -0.00449,-1.87051 0.078,-2.70001c0.08371,-0.84183 0.64609,-1.59415 0.89514,-2.48267c0.22104,-0.7886 0.77139,-1.43097 1.02686,-2.23166c0.27057,-0.84796 0.05716,-1.88116 0.05716,-2.62851c0,-0.90448 -0.07361,-1.82892 0.02084,-2.65717c0.11319,-0.99237 0.7793,-1.64838 0.95831,-2.5c0.18518,-0.88098 0.02084,-1.79999 0.02084,-2.69998c0,-0.90018 -0.09662,-1.6915 0.01068,-2.61469c0.11148,-0.95929 0.85416,-1.47678 0.99066,-2.38531c0.12137,-0.80786 0.72961,-1.5582 1.65582,-1.74286c0.73474,-0.14648 1.74283,-0.05716 2.54285,-0.05716c1,0 1.80002,-0.00668 2.79999,0c0.80005,0.00534 1.61517,0.03421 2.60901,0.35718c0.67505,0.21936 1.72205,0.65027 2.36032,0.84283c0.68964,0.20807 1.41937,0.38803 2.86401,0.79999c0.68161,0.19437 1.3262,0.38223 2.20499,0.70001c1.048,0.37897 1.72861,0.69388 2.35718,1c1.00931,0.49158 1.63931,0.76987 2.60449,1.46667c0.62888,0.45401 1.19943,1.06299 2.16666,1.66666c0.50009,0.31213 1.34961,0.63382 2.14935,1.05066c0.7793,0.40619 1.50281,0.88852 1.96515,1.52051c0.67068,0.91678 0.59195,1.81171 1.00418,2.71149c0.3175,0.69299 1.06589,1.5177 1.35748,2.28851c0.29352,0.77588 0.26996,1.79514 0.57867,2.57434c0.2894,0.73041 0.90463,1.55396 1.16785,2.2825c0.28204,0.78076 0.46683,1.82037 0.61066,2.69699c0.1442,0.87897 0.69733,1.62817 0.91467,2.52832c0.17926,0.74234 0.08533,1.68002 0.08533,2.457c0,0.98935 0,1.96967 0,2.77518c0,0.74734 0,1.96384 0,2.76035c0,0.7515 0,1.711 0,2.6875c0,0.85416 0,1.83331 0,2.62265c0,0.72534 0.00201,1.80002 0,2.61066c-0.00226,0.90002 -0.39169,1.7356 -0.716,2.40002c-0.43738,0.89609 -0.19287,1.86664 -0.34116,2.54733c-0.23306,1.06985 -0.94971,1.81522 -1.34283,2.478c-0.40717,0.68646 -1.00058,1.53812 -1.60001,2.17465c-0.56454,0.59949 -0.84875,1.41266 -1.00449,2.30002c-0.16296,0.92862 -0.82959,1.46954 -1.39551,2.11066c-0.6387,0.7236 -1.06836,1.38345 -1.43335,2.42267c-0.24692,0.70306 -0.94208,1.21359 -1.46664,1.8765c-0.46939,0.59317 -0.98575,1.54614 -1.5,2.08884c-0.66129,0.69788 -1.28204,1.48471 -2.00134,1.91733c-0.73398,0.44144 -1.62442,0.69385 -2.29849,1.384c-0.56543,0.57892 -0.77621,1.46783 -1.25735,2.20001c-0.52191,0.79422 -1.2226,1.30606 -2.04282,1.67465c-0.78281,0.35178 -1.39999,0.82666 -2.10001,1.52533c-0.70001,0.69867 -1.26825,1.33554 -2.10001,1.48935c-0.88553,0.16376 -1.68539,0.39401 -2.28534,0.81198c-0.90234,0.62863 -1.67529,1.1102 -2.13599,1.62402c-0.57678,0.64328 -1.56778,0.52048 -2.34268,1.01065c-0.83774,0.52991 -1.19324,1.20984 -1.93597,1.8595c-0.66446,0.58121 -1.40631,0.93405 -1.86667,1.7045c-0.42993,0.71951 -1.39648,0.9342 -1.85867,1.61069c-0.49918,0.73062 -0.93195,1.5863 -0.97467,2.48932c-0.04251,0.89899 -0.04785,1.74423 -0.5,2.42084c-0.49796,0.74515 -0.5,1.67917 -0.5,2.57935c0,0.78516 0,1.73581 0,2.50116c0,0.99866 0,1.79865 0,2.79733c0,0.76532 -0.13239,1.89096 0.22134,2.70151c0.3132,0.71765 0.69254,1.56247 0.83133,2.30432c0.18777,1.00363 0.48883,1.80527 1.04733,2.57382c0.44794,0.61642 1.60477,0.88922 1.88931,1.63235c0.31821,0.83102 0.34259,1.71341 1.01068,2.38931c0.57889,0.58566 1.38028,0.98538 2,1.5c0.60202,0.49991 1.60928,0.33273 2.2955,0.85718c0.75024,0.57339 1.05951,1.41492 1.80432,1.86432c0.62222,0.37546 0.95828,1.30405 1.60468,1.88834c0.62479,0.56476 0.98599,1.41531 1.27017,2.25418c0.28656,0.84589 0.82776,1.5206 1.32983,2.28867c0.45367,0.69403 1.17062,1.47491 1.6955,1.82651c0.96277,0.6449 1.6347,1.07806 2.19867,1.72217c0.56442,0.64462 0.78214,1.63406 0.79999,2.39999c0.02316,0.9939 -0.15393,1.755 0.01202,2.76266c0.14291,0.86786 0.90137,1.62332 0.98483,2.39316c0.09653,0.89029 0.00247,1.75885 0.00449,2.60684c0.00226,0.94049 0.18552,1.79556 0.5,2.65683c0.35477,0.97159 0.48083,1.76788 0.49866,2.49384c0.0242,0.98502 0.00134,1.97067 0.00134,2.69598c0,0.98901 0,1.74768 0,2.73868c0,0.92267 0,1.65332 0,2.64618c0,0.74731 0,1.77914 0,2.72598c0,0.69934 0,1.6785 0,2.47852c0,0.79999 0,1.97867 0,2.86667c0,0.85416 0,1.73331 0,2.63333c0,0.89999 0,1.79999 0,2.69998c0,0.80002 -0.05811,1.69949 -0.5,2.5c-0.44379,0.80399 -0.5,1.66669 -0.5,2.5c0,0.97852 0.00186,1.79868 0,2.63602c-0.00226,1.01666 0.04428,1.75146 -0.35266,2.60681c-0.42331,0.91217 -0.47916,1.79361 -0.73267,2.55719c-0.25635,0.77216 -0.79297,1.52505 -1.08133,2.36667c-0.28729,0.8385 -1.17209,1.32092 -1.66669,2c-0.50034,0.68692 -0.28433,1.61441 -0.74133,2.43332c-0.43121,0.77274 -1.05664,1.3858 -1.45065,2.01068c-0.47195,0.7485 -0.91986,1.58844 -0.97467,2.556c-0.04715,0.83224 0.00418,1.80569 -0.61066,2.38666c-0.64352,0.60806 -1.54514,0.88797 -2.03668,1.49933c-0.51819,0.6445 -0.40887,1.64786 -0.85266,2.44733c-0.44189,0.79602 -0.37128,1.67563 -0.50015,2.59985c-0.11182,0.80188 -1.15536,1.06409 -1.59985,1.54681c-0.69904,0.75919 -0.9986,1.59045 -1.56665,2.35333c-0.457,0.61371 -0.91937,1.26566 -1.948,1.83069c-0.82999,0.45593 -1.52081,0.81653 -2.20752,1.49133c-0.55606,0.54642 -1.02829,1.00128 -1.62048,1.53531c-0.71893,0.64835 -1.59225,1.39462 -2.06802,1.79617c-0.48953,0.41318 -1.48642,1.23642 -1.97864,1.63135c-0.47321,0.37967 -1.71579,1.34189 -2.3775,1.7865c-0.74496,0.50052 -1.56207,1.10718 -2.25851,1.49265c-0.81302,0.45001 -1.60251,0.38885 -2.57449,0.65735c-0.79776,0.22037 -1.62308,0.69046 -2.55283,0.77417c-0.90088,0.08112 -1.65186,0.00449 -2.64603,0.00449c-0.76532,0 -1.85315,0 -2.57065,0c-1.0405,0 -1.81601,-0.00336 -2.86401,0c-0.70499,0.00226 -1.52975,-0.00684 -2.552,0.42535c-0.60083,0.25403 -1.62357,0.53677 -2.39999,0.564c-1.04742,0.03671 -1.76199,0.01065 -2.66733,0.01065c-0.96851,0 -1.76199,0 -2.53751,0c-1.1955,0 -2.10999,0 -2.89517,0c-0.95065,0 -1.71597,0 -2.71466,0c-0.79999,0 -1.79999,0 -2.60001,0c-0.99982,0 -1.77914,0 -2.77847,0c-0.82019,0 -1.72153,0 -2.62152,0c-0.82132,0 -1.73334,0 -2.65067,0c-0.74399,0 -1.78,0 -2.63199,0c-0.95334,0 -1.71866,0 -2.71735,0c-0.79999,0 -1.79868,0 -2.564,0c-0.95334,0 -1.80533,0 -2.604,0c-0.98132,0 -1.89865,0 -2.71115,0c-1.00616,0 -1.73151,0 -2.72086,0c-0.79999,0 -1.79999,0 -2.57864,0c-1.05334,0 -1.94019,0 -2.6875,0c-0.95502,0 -1.7485,0 -2.52402,0c-1.19998,0 -1.89249,0 -2.84583,0c-0.76532,0 -1.78116,0.12885 -2.67868,-0.08533c-0.88986,-0.21234 -1.68283,-0.87076 -2.37067,-0.91333c-0.9382,-0.05804 -1.948,-0.00073 -2.73999,-0.00134c-0.86133,-0.00067 -1.63147,0.01965 -2.79584,-0.22131c-0.80228,-0.16605 -1.56296,-0.44998 -2.43582,-0.65735c-0.82892,-0.19693 -1.6481,-0.72684 -2.47635,-0.95465c-0.91379,-0.25134 -1.48795,-0.15839 -2.66666,-0.16669c-0.89099,-0.00629 -1.7533,0.08621 -2.66666,-0.16666c-0.87265,-0.24161 -1.65704,-0.85635 -2.33868,-1.12885c-0.73444,-0.29361 -1.85989,-0.54642 -2.60931,-0.72983c-0.88223,-0.21591 -1.57349,-0.6358 -2.58536,-0.85315c-0.78833,-0.16931 -1.79999,-0.12152 -2.59998,-0.12152c-0.80002,0 -1.80791,0.08823 -2.54285,-0.05716c-0.93483,-0.18494 -1.5081,-0.80075 -2.4825,-1.33215c-0.67027,-0.36554 -1.72426,-0.4798 -2.47467,-0.96783c-0.79672,-0.51816 -1.18263,-1.19754 -2.02133,-1.74268c-0.65189,-0.42371 -1.54567,-0.62872 -2.37416,-0.95285c-0.87424,-0.34201 -1.6342,-0.78366 -2.47917,-0.97266c-0.95178,-0.21286 -1.46796,-0.73813 -2.22533,-1.36398c-0.65849,-0.54416 -1.51337,-0.62836 -2.436,-1.05734c-0.58934,-0.27402 -1.39894,-0.83719 -2.12233,-1.55334c-0.49649,-0.49152 -0.85184,-1.47955 -1.48466,-2.10001c-0.66058,-0.64764 -1.55701,-0.89999 -2.35701,-1.29999c-0.59999,-0.29999 -1.6423,-0.72705 -2.328,-1.20001c-0.76059,-0.52463 -1.06065,-1.52798 -1.57649,-2.09998c-0.65581,-0.7272 -1.45447,-1.03586 -2.2955,-1.46667c-0.66434,-0.3403 -1.3,-1.13333 -1.8,-1.63333c-0.7,-0.70001 -1.43689,-1.37024 -1.89999,-1.95718c-0.54576,-0.69171 -1.00781,-1.52478 -1.68933,-2.18149c-0.59677,-0.57504 -0.47537,-1.5275 -0.89601,-2.26132c-0.39355,-0.68655 -1.32634,-1.26749 -1.59315,-2.12152c-0.21068,-0.67438 -0.06621,-1.88177 -0.14233,-2.65765c-0.08463,-0.86237 -0.65398,-1.61292 -0.89517,-2.50616c-0.19121,-0.70816 -0.29419,-1.71857 -0.584,-2.49384c-0.32106,-0.85886 -0.55344,-1.71591 -1,-2.52084c-0.44359,-0.79956 -0.5,-1.69998 -0.5,-2.60016c0,-0.78516 0,-1.73584 0,-2.50116c0,-0.99417 0,-1.74152 0,-2.77335c0,-0.94666 0,-1.62534 0,-2.60382c0,-1.02151 -0.01799,-1.82169 0,-2.7215c0.01801,-0.90057 0.53989,-1.65927 0.83333,-2.46667c0.28331,-0.77954 0.66675,-1.51242 1.04517,-2.27618c0.33328,-0.67267 0.07878,-1.84628 0.35017,-2.59564c0.35979,-0.99344 0.6501,-1.39313 1.18649,-2.3775c0.29318,-0.53802 0.5999,-1.08737 1.23134,-2.168c0.30011,-0.51361 1.08038,-1.79269 1.47749,-2.37302c0.49492,-0.72324 0.54288,-1.7168 0.89684,-2.52216c0.31297,-0.7121 0.94058,-1.28665 1.5,-2.02084c0.58997,-0.77429 1.19379,-1.21472 1.91518,-1.936c0.66396,-0.66388 1.26237,-0.96951 2.04317,-1.564c0.65184,-0.49628 1.04825,-1.34573 1.43683,-2.19998c0.34714,-0.76312 0.70879,-1.43176 1.56667,-2c0.64056,-0.42432 1.17615,-1.35629 1.8745,-1.74286c0.82664,-0.45761 1.88148,-0.16019 2.3575,-0.85849c0.51079,-0.7493 1.11395,-1.02435 1.88535,-1.23465c0.95911,-0.26147 1.40152,-1.15506 2.10449,-1.61136c0.78757,-0.51123 1.27333,-1.05273 2.00534,-1.65265c0.58504,-0.47946 1.47998,-1.09976 2.17416,-1.41467c0.88936,-0.40344 1.79266,-0.12219 2.57433,-0.80615c0.69125,-0.60486 1.12363,-1.33621 1.89351,-1.53186c0.91118,-0.23154 1.68881,-0.67603 2.44817,-1.03131c0.73143,-0.34219 0.97371,-1.24335 1.20132,-2.11469c0.20848,-0.7981 1.32036,-0.60641 2.19734,-0.80264c0.80705,-0.18057 1.23679,-0.98004 2.10133,-0.99869c0.8998,-0.01941 1.75957,-0.28494 2.40001,-0.64734c0.82077,-0.46442 1.52484,-0.89624 2.17865,-1.57397c0.55807,-0.57852 1.6004,-0.45367 2.06418,-1.13583c0.47427,-0.6976 0.54572,-1.45483 1.03183,-2.07886c0.57813,-0.74216 1.17505,-1.14908 1.85867,-1.73065c0.66599,-0.56659 1.15005,-1.25082 1.66666,-1.83334c0.53448,-0.60266 0.86636,-1.50858 1.69867,-1.91467c0.75494,-0.36835 0.47815,-1.23975 1.02267,-1.96399c0.48331,-0.64282 1.44916,-0.92819 1.75781,-1.64215c0.34897,-0.80722 0.06931,-1.78055 0.0195,-2.68185c-0.04263,-0.77139 -0.35696,-1.80103 -0.57333,-2.54666c-0.26563,-0.91534 -0.40643,-1.80112 -0.85065,-2.26132c-0.58929,-0.61053 -1.04056,-1.36469 -1.45334,-2.08917c-0.45111,-0.79178 -0.97052,-1.26816 -1.12582,-2.20016c-0.13623,-0.81747 -0.81491,-1.3717 -1.59552,-1.72534c-0.81049,-0.36716 -1.24915,-1.19586 -1.56665,-2.14133c-0.22342,-0.66525 -1.009,-1.28891 -1.548,-1.91602c-0.50369,-0.58603 -0.44226,-1.53519 -1.08667,-2.08664c-0.68912,-0.58969 -1.33841,-1.32596 -1.84149,-1.87885c-0.56061,-0.61612 -0.23907,-1.78769 -0.87802,-2.431c-0.63785,-0.64221 -1.37344,-0.89926 -1.7005,-1.84216c-0.24042,-0.69315 -0.69199,-1.65234 -0.77417,-2.37418c-0.10739,-0.94324 -0.84581,-1.18311 -1.48366,-1.82532c-0.63895,-0.64331 -0.52083,-1.67917 -0.52083,-2.57919c0,-0.89999 0.39296,-1.83035 -0.08533,-2.61465c-0.49007,-0.80365 -0.91467,-1.38535 -0.91467,-2.28534c0,-0.75717 0.00696,-1.64819 0,-2.66666c-0.00534,-0.78006 -0.23468,-1.64926 -0.57466,-2.508c-0.31633,-0.79901 -0.42467,-1.62399 -0.42534,-2.52533c-0.00069,-0.936 0,-1.78534 0,-2.7045c0,-0.99417 0,-1.75952 0,-2.71017c0,-0.88535 0,-1.64252 0,-2.71066c0,-0.69067 0,-1.65384 0,-2.58533c0,-0.91086 0,-1.80002 0,-2.78918c0,-0.77933 0,-1.77884 0,-2.55283l0,-0.89999l0,-0.86334" id="svg_2" stroke-width="2" stroke="#000" fill="none"/>
  <path t="7843,7946,7946,7955,7955,7955,7965,7965,7970,7970,7970,7981,7981,7981,7986,7986,7986,7986,7998,7998,7999,7999,8002,8002,8003,8015,8015,8018,8018,8027,8027,8027,8027,8035,8035,8035,8043,8043,8043,8043,8051,8051,8051,8100,8100,8100,8100,8100,8108,8108,8108,8108,8108,8108,8108,8108,8108,8115,8115,8115,8115,8115,8115,8115,8115,8115,8122,8122,8123,8123,8132,8132,8132,8138,8138,8139,8139,8148,8148,8149,8149,8154,8155,8155,8155,8165,8165,8165,8165,8165,8170,8171,8171,8171,8182,8182,8182,8186,8187,8187,8187,8198,8198,8198,8199,8203,8203,8203,8203,8215,8215,8215,8219,8219,8219,8219,8227,8227,8235,8235,8235,8243,8243,8243,8251,8251,8251,8261,8261,8261,8268,8268,8268,8268,8268,8275,8275,8275,8275,8275,8283,8283,8283,8283,8283,8283,8290,8291,8291,8291,8291,8291,8291,8299,8299,8299,8299,8299,8306,8307,8307,8307,8307,8307,8315,8315,8315,8315,8315,8325,8325,8325,8325,8325,8332,8332,8332,8332,8338,8339,8339,8339,8349,8349,8349,8349,8355,8355,8355,8355,8365,8365,8365,8371,8371,8371,8382,8382,8382,8382,8386,8387,8387,8399,8399,8399,8399,8403,8403,8403,8403,8412,8412,8412,8412,8419,8420,8420,8420,8427,8427,8427,8427,8427,8436,8436,8436,8436,8443,8443,8443,8443,8451,8451,8451,8451,8451,8459,8459,8459,8459,8467,8467,8467,8467,8467,8474,8475,8475,8483,8483,8483,8483,8490,8491,8499,8499,8499,8506,8507,8515,8524,8524,8524,8532,8532,8548,8548,8556,8565,8566,8570,8571,8582,8582,8582,8586,8587,8599,8599,8599,8602,8603,8603,8615,8616,8618,8619,8619,8631,8631,8638,8638,8638" d="m306,357.78333c-1,0 -1.82373,0.0209 -2.76801,0.28534c-0.74045,0.20737 -1.49063,0.46759 -2.42667,1.01468c-0.63025,0.36838 -1.57178,0.90735 -2.32617,1.19998c-0.52899,0.2052 -1.57117,0.57214 -2.47916,1.02084c-0.69485,0.34335 -1.41638,0.80927 -2.24667,1.3045c-0.59628,0.35565 -1.22409,0.72806 -2.27451,1.15317c-0.71704,0.29019 -1.81967,0.60367 -2.50949,0.82016c-0.92941,0.29169 -1.70377,0.58759 -2.56665,1.00134c-0.80759,0.38724 -1.59677,0.75397 -2.3815,1.30017c-0.71219,0.4957 -1.56348,1.22211 -2.03101,1.55698c-0.7746,0.55481 -1.3331,0.91327 -2.30484,1.74417c-0.46198,0.39502 -1.10333,1.03751 -1.88535,2.01984c-0.41208,0.51761 -0.75958,1.09213 -1.39999,1.80951c-0.75342,0.84402 -1.43323,1.21384 -1.91467,1.73734c-0.68814,0.74826 -0.89005,1.42596 -1.14667,2.28531c-0.16071,0.53818 -0.31744,1.17117 -0.672,2.74667c-0.2149,0.9549 -0.43588,2.00882 -0.66748,3.13651c-0.24185,1.17761 -0.48154,2.38373 -0.71252,3.59549c-0.22733,1.19257 -0.45163,2.34232 -0.78665,4.43469c-0.14334,0.89526 -0.25015,1.69128 -0.32849,2.39548c-0.06894,0.61993 -0.11377,1.16675 -0.1395,1.6485c-0.02274,0.42529 -0.03,0.80402 -0.03201,1.45602c-0.00089,0.2905 0,1.07199 0,1.78149c0,0.97348 0,1.79849 0,2.7135c0,1.005 -0.01599,1.72275 0.02084,2.83832c0.02469,0.74783 0.11725,1.83899 0.26581,2.51468c0.2142,0.97437 0.43927,1.59769 0.88,2.48532c0.45856,0.92352 0.8667,1.5264 1.29501,2.15717c0.69171,1.01868 1.22388,1.72479 1.75299,2.46817c0.26593,0.37363 0.81018,1.10117 1.452,2.20801c0.38663,0.66675 0.60059,1.3595 1.13867,2.14783c0.64557,0.9458 1.45599,1.35751 1.98001,1.63351c1.048,0.552 1.76694,1.03641 2.21466,1.40616c0.69174,0.57126 1.68134,1.38474 2.23599,1.77917c0.57062,0.40576 1.16113,0.80637 2.36401,1.59866c0.59793,0.39383 1.18887,0.7851 1.79999,1.116c1.17981,0.63882 1.79568,0.86136 2.70001,1.18082c0.89584,0.31647 1.79123,0.61426 2.664,0.8685c0.54813,0.15967 1.784,0.34775 2.6315,0.48868c0.811,0.13486 1.61374,0.48694 2.28983,0.66333c0.98651,0.25739 1.83536,0.27246 2.716,0.28268c1.19724,0.01392 1.78799,0.00146 2.64151,0.00131c1.03616,-0.00018 2.00677,0.00122 2.81183,-0.17065c1.02264,-0.21832 1.8129,-0.53757 2.24265,-0.69067c0.8999,-0.32062 1.81784,-0.66641 2.73602,-0.97198c0.87939,-0.29266 1.7417,-0.54007 2.59198,-0.79202c0.42752,-0.12668 1.74429,-0.53296 2.66135,-0.86133c0.47659,-0.17065 1.45648,-0.55133 1.95999,-0.76001c1.04318,-0.43237 2.12146,-0.91681 2.67435,-1.17465c1.12567,-0.52493 1.68451,-0.80093 2.23734,-1.07867c1.07764,-0.54141 1.59427,-0.8028 2.97766,-1.57849c0.41422,-0.23224 1.18182,-0.69659 1.94,-1.11084c0.76993,-0.42065 1.61948,-0.82162 2.57733,-1.21066c0.50684,-0.20584 1.5675,-0.60001 2.10666,-0.79999c0.53915,-0.20001 2.10934,-0.79361 2.59668,-1.00018c0.92523,-0.39221 1.7829,-0.78296 2.51999,-1.25699c1.02441,-0.65881 1.56482,-1.21686 2.06201,-1.76816c0.48679,-0.53979 0.89581,-1.14151 1.94666,-2.08936c0.52774,-0.47604 1.12234,-0.879 1.716,-1.284c1.19141,-0.81274 1.80432,-1.20261 2.36267,-1.67334c0.56796,-0.47885 1.33801,-1.3551 1.77432,-2.03781c0.4447,-0.69583 0.82138,-1.4325 1.29501,-2.5235c0.29333,-0.67569 0.65204,-1.63858 0.80499,-2.26218c0.29257,-1.19272 0.29083,-1.80182 0.38699,-2.66852c0.11893,-1.07202 0.36407,-1.77728 0.62201,-2.74582c0.21725,-0.8158 0.30548,-1.79504 0.33182,-2.49017c0.02631,-0.69437 0.02084,-1.95734 0.02084,-2.74933c0,-0.75601 0,-1.89349 0,-2.56049c0,-1.0755 0,-1.80753 0,-2.86884c0,-0.66867 0,-1.64667 0,-2.30533c0,-1.40134 0,-2.15201 0,-2.92667c0,-0.79068 0,-1.98935 0,-2.78934c0,-0.80002 0.00101,-1.60001 0,-2.80002c-0.00067,-0.79999 0.00128,-1.60046 -0.03601,-2.39999c-0.03735,-0.80063 -0.17081,-2.00247 -0.32117,-2.7955c-0.14914,-0.78656 -0.33527,-1.55066 -0.64282,-2.63782c-0.19376,-0.68488 -0.38959,-1.34906 -0.75717,-2.31934c-0.38742,-1.02264 -0.72009,-1.73523 -1.07883,-2.47269c-0.36649,-0.75336 -0.75156,-1.49854 -1.36401,-2.55331c-0.39127,-0.67383 -0.80505,-1.31827 -1.19998,-1.974c-0.60785,-1.00931 -0.99829,-1.73096 -1.39999,-2.46201c-0.39835,-0.72495 -0.76718,-1.43811 -1.39984,-2.3425c-0.56113,-0.80212 -1.02869,-1.21527 -1.63351,-2.2095c-0.46063,-0.75717 -0.64172,-1.33496 -0.96533,-2.14932c-0.39764,-1.0007 -0.65787,-1.70682 -1.36798,-2.68402c-0.45151,-0.62131 -0.98026,-1.23605 -1.83334,-1.66666c-0.7363,-0.37167 -1.64474,-0.6524 -2.33334,-1.33334c-0.4726,-0.46732 -1.25421,-0.79459 -2.25766,-0.94284c-0.83115,-0.1228 -1.85184,-0.05716 -2.59433,-0.05716c-1.0575,0 -1.91483,0 -2.70001,0c-0.96133,0 -1.80133,0 -2.79865,0c-0.81601,0 -1.63202,0 -2.63202,0c-0.90933,0 -1.85065,0 -2.63666,0c-0.82199,0 -1.88107,-0.01962 -2.59018,0.00452c-0.85379,0.02905 -1.86844,0.25433 -2.65717,0.60617c-0.81253,0.36243 -1.59998,0.78931 -2.19998,1.08932c-1,0.5 -1.80002,0.89999 -2.60001,1.29999l-0.78934,0.38934l-0.72534,0.32532" id="svg_3" stroke-width="2" stroke="#000" fill="none"/>
  <path t="9284,9325,9332,9339,9355,9365,9382,9382,9387,9387,9398,9398,9403,9412,9412,9420,9427,9427,9427,9436,9436,9436,9443,9443,9451,9451,9459,9459,9459,9467,9467,9467,9474,9475,9475,9483,9483,9483,9491,9491,9491,9499,9499,9499,9506,9506,9506,9506,9515,9515,9515,9515,9522,9522,9522,9532,9532,9532,9532,9538,9538,9538,9549,9549,9549,9549,9554,9554,9565,9565,9565,9565,9570,9570,9570,9582,9610,9631,9650,9650,9658,9666,9682,9690,9730,9739,9748,9770,9770,9782,9798,9802,9815,9834,9842,9851,9874,9890,10095,10115,10115,10115,10132,10138,10154,10165,10165,10182,10186,10210,10219,10232" d="m304,274.78333c0,-1.69998 0,-2.60001 0,-3.5c0,-0.89999 0,-1.8045 0,-2.82132c0,-0.67868 0,-1.65735 0,-2.56268c0,-0.94131 0,-1.63199 0,-2.616c0,-0.98398 0,-1.67465 0,-2.74731c0,-0.91934 -0.01035,-1.79822 0.08533,-2.43933c0.15009,-1.0058 0.44025,-1.80701 0.63068,-2.62935c0.22974,-0.99197 0.27866,-1.87329 0.284,-2.884c0.00424,-0.79999 -0.02374,-1.80066 0.01068,-2.61066c0.02753,-0.64758 0.2045,-1.61226 0.41464,-2.41467c0.2157,-0.82368 0.49026,-1.85004 0.55383,-2.77467c0.04694,-0.68266 0.02084,-1.68533 0.02084,-2.52083c0,-0.88049 0,-2.07916 0,-2.67917c0,-0.89999 0,-2.09999 0,-2.7c0,-0.89999 0,-2.10001 0,-2.70132c0,-0.91951 0,-1.55585 0,-2.91985c0,-0.72699 0,-1.45799 0,-2.16899c0,-1.26717 0,-2.05917 0,-2.81517c0,-1.13733 0,-1.8 0,-2.49467c0,-1.032 0,-2.23199 0,-3c0,-0.76799 0,-1.64265 0,-2.65067c0,-0.69865 -0.02045,-1.38153 0.00134,-2.57999c0.01788,-0.98445 0.1561,-1.93823 0.35132,-2.7265c0.21201,-0.85603 0.41727,-1.43645 0.56201,-2.64017c0.10309,-0.85724 0.08466,-1.632 0.08533,-2.58833c0.0007,-1.01434 0,-1.91434 0,-2.81435c0,-0.79999 0,-1.7 0,-2.59999c0,-0.90001 0,-1.78934 0,-2.68533c0,-0.91467 0,-1.81467 0,-2.71468c0,-0.79999 0,-1.7 0,-2.59999c0,-0.90001 0,-1.8 0,-2.7c0,-0.90001 0,-1.79984 0,-2.67467c0,-0.82668 0,-1.69734 0,-2.56801c0,-0.95734 0,-1.68933 0,-2.64299c0,-1.01434 0,-1.91434 0,-2.81435c0,-0.79999 0,-1.7 0,-2.564l0,-0.95683l0,-0.87917l0.00449,-0.89999" id="svg_4" stroke-width="2" stroke="#000" fill="none"/>
  <path t="14004,14101,14101,14101,14106,14106,14106,14106,14106,14106,14106,14106,14114,14115,14115,14115,14122,14122,14122,14122,14130,14131,14131,14131,14138,14138,14138,14147,14147,14147,14147,14154,14154,14154,14154,14155,14155,14164,14164,14164,14164,14170,14170,14170,14170,14181,14181,14181,14181,14181,14186,14187,14187,14197,14197,14197,14202,14202,14202,14202,14214,14214,14214,14214,14218,14219,14219,14231,14231,14231,14235,14235,14242,14243,14243,14243,14251,14251,14251,14258,14259,14266,14266,14266,14274,14274,14274,14282,14282,14283,14290,14290,14299,14299,14306,14306,14306,14314,14314,14315,14322,14322,14322,14330,14331,14343,14343,14350,14350,14350,14350,14354,14354,14354,14354,14364,14364,14370,14370,14370,14371,14381,14381,14381,14381,14386,14386,14387,14387,14397,14397,14397,14402,14402,14402,14414,14414,14414,14421,14421,14421,14433,14433,14433,14434,14435,14435,14435,14435,14442,14443,14443,14451,14451,14460,14460,14460,14466,14466,14467,14474,14474,14482,14482,14482,14493,14493,14500,14500,14500,14506,14506,14507,14514,14515,14522,14522,14522,14530,14531,14538,14538,14539,14547,14547,14547,14547,14554,14554,14554,14555,14564,14564,14570,14570,14570,14571,14581,14581,14581,14586,14586,14586,14597,14597,14598,14598,14602,14602,14603,14614,14614,14614,14618,14618,14618,14631,14631,14631,14631,14635,14635,14635,14636,14643,14643,14643,14652,14652,14659,14659,14659,14667,14667,14667,14675,14675,14675,14683,14683,14691,14691,14699,14699,14707,14707,14716,14716,14723,14723,14732,14739,14739,14749,14755,14765,14766,14771,14771,14771,14787,14787,14799,14799,14799,14802,14803,14816,14816,14819,14819,14833,14834,14835,14843,14852,14867,14868,14875,14885,14922,14923,14939,15019,15031,15032,15032" d="m372,32.78333c0,1 -0.04358,1.67138 -0.25601,2.48267c-0.22415,0.85611 -0.5957,1.99118 -0.80649,2.64317c-0.22244,0.68805 -0.45682,1.39552 -0.69751,2.1075c-0.23767,0.70301 -0.45544,1.38653 -1.09698,3.1165c-0.31979,0.86234 -0.6127,1.54163 -0.83401,2.133c-0.43109,1.15191 -0.61917,1.82336 -0.78815,2.538c-0.25806,1.09142 -0.4064,2.15699 -0.46817,2.822c-0.08783,0.94564 -0.08292,1.56609 -0.33801,2.75716c-0.19482,0.90968 -0.42465,1.49821 -0.81448,2.7005c-0.19849,0.6121 -0.41907,1.25419 -0.61484,2.3555c-0.14917,0.83915 -0.2059,1.79575 -0.26001,2.82c-0.02768,0.52388 -0.06866,1.56666 -0.10934,2.072c-0.11188,1.38997 -0.25873,2.18841 -0.43683,2.91034c-0.16995,0.68886 -0.58258,2.06225 -0.77914,2.79883c-0.20355,0.76273 -0.40005,1.54733 -0.70001,2.74284c-0.20004,0.79733 -0.39365,1.58039 -0.60001,2.328c-0.19403,0.703 -0.612,1.8978 -0.87915,2.65116c-0.24796,0.69921 -0.44247,1.70697 -0.52084,2.5625c-0.05676,0.61964 -0.14392,1.62923 -0.35718,2.71101c-0.14795,0.7506 -0.33627,1.49773 -0.64282,2.58067c-0.19305,0.68201 -0.48993,1.62857 -0.70001,2.20499c-0.38162,1.04714 -0.82553,1.94742 -1.01465,2.64567c-0.2666,0.98434 -0.27371,1.81583 -0.284,2.632c-0.0126,0.99992 0.00134,1.90933 -0.00134,2.85066c-0.00226,0.79051 -0.01208,1.64649 -0.08533,2.23467c-0.14996,1.2044 -0.43851,2.07202 -0.63068,2.91333c-0.22702,0.99395 -0.27356,1.66434 -0.284,2.68533c-0.00827,0.81062 0,1.68533 0,2.68533c0,0.8355 0,1.716 0,2.61433c0,0.879 0,1.686 0,2.731c0,0.852 0,1.81599 0,2.431c0,1.22366 0,1.77433 0,2.64283c0,1.19534 0,2.08483 0,2.6595c0,1.06934 0,2 0,2.83466c0,1.00134 0,1.80134 0,2.804c0,0.639 0,1.93067 0,2.56667c0,0.692 0,1.78251 0,2.86401c0,0.67999 0,1.625 0,2.205c0,1.27766 0,1.96165 0,3.12833c0,0.795 -0.00006,1.375 0,2.32001c0.00009,1.03467 -0.00891,1.7664 0.02084,2.51332c0.04449,1.11699 0.18881,2.18092 0.33182,2.84283c0.20529,0.95027 0.41812,1.54805 0.56201,2.75584c0.10446,0.87665 0.07144,1.71609 0.08667,2.71866c0.01068,0.70369 0.05298,1.4576 0.284,2.65067c0.1329,0.68636 0.29166,1.39175 0.71466,2.69867c0.18414,0.56891 0.57095,1.28891 0.83334,2.5c0.16992,0.7843 0.15488,1.37486 0.16531,2.32001c0.01141,1.03444 -0.01721,1.76241 0.03735,2.85199c0.0347,0.69289 0.23419,1.8949 0.46399,2.61967c0.20386,0.64297 0.46719,1.645 0.49551,2.49883c0.03198,0.96382 0.00449,1.77884 0.00449,2.64734c0,0.89549 0,1.7865 0,2.6235c0,1.12933 0,1.92267 0,2.81483c0,0.71849 0,1.50899 0,2.77316c0,0.68399 0,1.85066 0,2.63666c0,0.82201 0,1.88068 0,2.59018c0,0.85266 0,1.85849 0,2.69316c0,0.93066 0,1.71217 0,2.50267c0,1.11867 0,1.912 0,2.80434c0,0.72899 0,1.56599 0,2.75716c0,0.60434 0,1.53584 0,2.18517c0,1.39734 0,2.12933 0,2.85333c0,0.692 0,1.892 0,2.87601c0,0.952 0,1.74249 0,2.59599c0,0.59067 0,1.78934 0,2.68933c0,0.60001 0,1.8 0,2.70001c0,0.59999 0,1.79999 0,2.7c0,0.59999 0,1.5 0,2.7c0,0.60001 0.0043,1.50002 -0.00015,2.69983c-0.0022,0.59569 0.04059,1.47632 -0.1665,2.53351c-0.18964,0.96811 -0.52643,1.66748 -0.66669,2.5c-0.16324,0.96896 -0.1528,1.68738 -0.16217,2.4185c-0.01828,1.42656 0.01349,2.092 -0.0405,3.03749c-0.03485,0.61034 -0.23929,1.81018 -0.38931,2.38934c-0.2099,0.81023 -0.5441,2.01453 -0.57333,2.78932c-0.03024,0.80211 0.01633,1.57742 -0.08667,2.43468c-0.14481,1.20503 -0.36325,1.79192 -0.56201,2.69733c-0.26196,1.19331 -0.31476,1.79015 -0.34198,2.62801c-0.03665,1.12862 0.02374,1.88737 -0.01517,2.92917c-0.02795,0.74866 -0.2818,1.74063 -0.57019,2.50682c-0.30627,0.81375 -0.42465,1.72 -0.42532,2.49318c-0.00082,0.94415 0.08658,1.95039 -0.05716,2.68565c-0.18259,0.93388 -0.8291,1.81538 -0.90683,2.47183c-0.11954,1.00964 -0.64865,1.68176 -0.91467,2.50684c-0.21783,0.67554 -0.24692,1.69351 -0.55734,2.47852c-0.32339,0.81784 -0.76401,1.59998 -1.164,2.39999c-0.5,1 -0.80026,1.59988 -1.19998,2.39999c-0.39896,0.79855 -0.88248,1.52838 -1.11469,2.51599c-0.17682,0.75208 -0.03302,1.72879 -0.17065,2.48535c-0.18427,1.01285 -0.68005,1.711 -0.85751,2.64148c-0.17963,0.94193 -0.00937,1.85846 -0.05716,2.75717c-0.04272,0.80341 -0.7478,1.53619 -0.96399,2.38934c-0.23206,0.91574 -0.03601,1.6315 -0.03601,2.72534c0,0.88531 0,0.944 0,0.302l0,-0.82202" id="svg_5" stroke-width="2" stroke="#000" fill="none"/>
  <path t="15722,15810,15819,15819,15826,15827,15827,15836,15842,15842,15842,15852,15852,15852,15858,15858,15859,15859,15866,15866,15866,15879,15879,15879,15885,15885,15885,15890,15890,15890,15890,15898,15899,15899,15906,15906,15906,15906,15915,15916,15916,15916,15922,15922,15922,15930,15930,15930,15938,15938,15938,15938,15947,15947,15947,15954,15954,15964,15964,15964,15970,15970,15970,15970,15980,15980,15980,15980,15986,15986,15997,15997,15997,16002,16002,16002,16002,16013,16014,16014,16018,16018,16018,16030,16030,16034,16034,16034,16047,16047,16047,16047,16051,16051,16058,16058,16067,16067,16067,16067,16113,16113,16113,16113,16114,16115,16115,16115,16115,16115,16115,16115,16115,16122,16122,16122,16122,16123,16123,16130,16130,16138,16138,16139,16147,16147,16147,16147,16154,16154,16164,16164,16170,16170,16180,16180,16186,16186,16186,16197,16197,16203,16203,16203,16214,16218,16218,16230,16230,16234,16344,16350,16350" d="m315,49.78333c0,1.82533 0,2.83333 0,3.66133c0,0.88133 0,1.83867 0,2.57066c0,0.95817 0,1.93467 0,2.80967c0,0.645 0,1.645 0,2.5c0,0.945 0,1.9795 0,2.7065c0,0.731 0,1.7825 0,2.709c0,0.7815 0,1.72549 0,2.72816c0,0.8355 0.00519,1.71602 -0.00015,2.61467c-0.00534,0.90004 -0.01987,1.80529 -0.1665,2.7c-0.14862,0.90692 -0.36572,1.49284 -0.54935,2.4c-0.24158,1.19344 -0.26163,1.81031 -0.27951,2.75716c-0.01904,1.00933 0.00485,1.72705 -0.01517,2.46817c-0.0303,1.12254 -0.13773,2.2114 -0.27332,2.888c-0.19049,0.95047 -0.42081,1.51387 -0.59451,2.56533c-0.15106,0.91442 -0.12082,1.60533 -0.12149,2.608c-0.00058,0.855 0,1.8 0,2.83466c0,0.73134 0,1.47867 0,2.226c0,1.43084 0,2.0865 0,2.97c0,0.94933 0.00629,1.93336 -0.00015,2.82584c-0.00534,0.73956 -0.03046,1.62627 -0.1665,2.6235c-0.09824,0.7202 -0.26663,1.45713 -0.40802,2.208c-0.27414,1.45584 -0.35889,2.13757 -0.40448,3.08367c-0.02792,0.57955 -0.02084,1.85633 -0.02084,2.52083c0,1.02084 0,1.84217 0,2.53517c0,1.12849 0,1.79549 0,2.87099c0,0.732 0,1.79301 0,2.76801c0,0.6 0,1.68 0,2.61066c0,0.83466 0,1.8405 0,2.472c0,1.1855 0,2 0,2.57467c0,1.18932 0,2.08483 0,2.95333c0,0.55066 0,1.77884 0,2.6315c0,1.00583 0,1.62534 0,2.77116c0,0.7905 0,1.644 0,2.23466c0,1.20934 0,1.884 0,2.68668c0,0.99466 -0.00046,2.24533 0.00015,2.98267c0.00067,0.80133 0.00244,1.65068 0.01053,2.532c0.00824,0.89734 0.0213,1.79477 0.04648,2.67599c0.02429,0.84946 0.10172,2.38869 0.16418,3.04916c0.05569,0.58887 0.19138,1.57603 0.35333,2.35085c0.13116,0.62753 0.38754,1.86761 0.41464,2.54666c0.03754,0.94064 -0.01575,1.73354 0.04669,2.58533c0.08746,1.19328 0.24252,1.78937 0.46399,2.6685c0.21082,0.83682 0.4473,1.83191 0.48932,2.67416c0.04803,0.96286 0.01068,1.81601 0.01068,2.85201c0,0.744 0,1.66133 0,2.49466c0,1.04285 0,1.76134 0,2.55183c0,1.02667 -0.0069,1.92737 0,2.94817c0.00534,0.7894 0.06888,1.52176 0.5,2.5c0.36472,0.82756 0.49466,1.67462 0.5,2.61601c0.00436,0.76797 0,1.70934 0,2.71733l0,0.60184l0,-0.73917" id="svg_6" stroke-width="2" stroke="#000" fill="none"/>
  <path t="17010,17066,17066,17113,17122,17122,17130,17130,17138,17147,17164,17170,17194,17226,17226,17246,17250,17250,17250,17263,17263,17266,17266,17274,17274,17282,17282,17290,17290,17298,17298,17306,17319,17320,17322,17322,17330,17346,17347,17354,17370,17370,17386,17402,17413,17442,17450,17450,17459,17466,17474,17474,17482,17482,17490,17490,17490,17498,17498,17498,17506,17506,17506,17506,17514,17514,17515,17515,17515,17522,17522,17522,17522,17530,17531,17531,17531,17539,17539,17539,17539,17547,17547,17554,17554,17554,17563,17563,17563,17580,17580,17674,17674,17690,17698,17706,17715,17722,17730,17738,17738,17754,17763,17764,17770,17780,17780,17786,17797,17797,17802,17818,17818,17830,17835,17835,17848,17848,17852,17852,17852,17858,17858,17858,17866,17874,17874,17874,17882,17882,17882,17890,17890,17898,17898,17906,17906,17914,17914,17922,17930,17930,17930,17938,17954,17963,17970,17986,17997,18002,18013,18018,18018,18030,18034,18047,18050,18058,18066,18074,18158,18158,18165,18165,18165,18165,18165,18165,18166,18166,18166,18170,18170,18170,18171,18171,18218,18234,18274,18282,18290,18290,18307,18314,18315,18322,18331,18338,18354,18364,18370,18386,18397,18414,18418,18432,18447,18450,18458,18459,18467,18482,18491,18498,18506,18506,18515,18515,18522,18522,18531,18531,18538,18538,18547,18547,18554,18554,18564,18564,18570,18570,18571,18580,18581,18586,18586,18597,18597,18598,18603,18603,18603,18614,18614,18614,18618,18618,18630,18630,18646,18646,18652,18659,18666,18666,18675,18682,18690,18698,18698,18706,18714,18722,18730,18731,18731,18738,18747,18754,18755,18764,18770,18780,18786,18797,18814,18818,18827,18836,18836,18848,18859,18859,18866,18867,18875,18875,18882,18882,18890,18890,18898,18899,18906,18906,18915,18915,18922,18922,18930,18938,18947,18947,18954,18954,18964,18964,18970,18970,18980,18997" d="m308,56.78333c1.16666,-1 1.655,-1.5651 1.97467,-2.41067c0.33365,-0.88252 0.63687,-1.55321 0.90384,-2.56783c0.21091,-0.80164 0.12149,-1.7215 0.12149,-2.6215c0,-0.9 0.0845,-1.804 0,-2.6955c-0.08371,-0.88301 -0.74323,-1.37284 -1.39999,-2.11517c-0.63956,-0.72286 -0.9502,-1.4604 -1.48535,-2.10533c-0.54065,-0.65154 -1.42441,-0.99575 -1.94666,-1.968c-0.34283,-0.6382 -0.64786,-1.45623 -1.31732,-2.14133c-0.6459,-0.66098 -0.65125,-1.49231 -1.29352,-2.35317c-0.45728,-0.61291 -1.36295,-1.06109 -2.03632,-1.50067c-0.79129,-0.51654 -1.75769,-0.63316 -2.16367,-1.2825c-0.49915,-0.7984 -0.2316,-1.87778 -0.79318,-2.59167c-0.586,-0.7449 -1.4353,-1.01187 -1.56534,-1.84667c-0.14261,-0.91546 -0.8085,-1.45409 -0.98798,-2.4c-0.16779,-0.88429 -0.14456,-1.79959 -0.00934,-2.68533c0.14435,-0.94552 0.92816,-1.20739 1.64148,-1.76733c0.63074,-0.49513 1.20395,-1.40062 1.95984,-1.662c0.77844,-0.26918 1.63986,-0.2728 2.564,-0.452c0.79294,-0.15376 1.59607,-0.46297 2.66669,-0.66667c0.944,-0.17961 1.67648,-0.16084 2.80966,-0.16683c0.67133,-0.00355 1.39966,-0.00366 2.16599,-0.057c1.19315,-0.08305 1.9917,-0.22296 2.79102,-0.36817c0.80069,-0.14546 1.59607,-0.32308 2.79984,-0.45317c0.79364,-0.08576 1.57919,-0.10726 2.34299,-0.117c1.09042,-0.01391 2.10449,-0.0045 2.75717,-0.0045c0.98401,0 2.02118,0 2.74817,0c0.73099,0 1.7825,0 2.70883,0c1.00134,0 2.043,0 2.85367,0c0.64648,0 1.61066,0 2.41467,0c0.82199,0 2.08798,0 2.733,0c1.02014,0 1.84076,0.02729 2.74167,0c0.94412,-0.0286 0.96539,-0.8958 1.35715,-1.64283c0.39169,-0.7469 0.78134,-1.43039 1.16418,-2.3355c0.30603,-0.72348 1.28693,-0.88921 2.07864,-1.37883c0.56882,-0.35177 1.1629,-1.18219 1.90134,-1.8415c0.53076,-0.47387 1.56201,-0.4489 2.46533,-0.968c0.64484,-0.37055 1.39752,-0.69395 2.31183,-1.05467c0.65643,-0.25898 1.54214,-0.76825 2.34302,-0.77867c0.8891,-0.01157 1.87851,0 2.6785,0c1,0 1.81067,0 2.45715,0c1.22552,0 2.022,0 2.7735,0c0.9595,0 1.936,0 2.811,0c0.64502,0 1.64233,0 2.45834,0c0.81601,0 2.03833,-0.00197 2.83835,0c0.91348,0.00225 1.63617,0.06598 2.66699,0.35267c0.74802,0.20803 1.69254,0.36801 2.57333,0.67267c0.87686,0.30329 1.5705,1.00591 2.24667,1.364c0.67465,0.35729 1.76559,0.42232 2.47015,0.96783c0.74655,0.57802 0.7623,1.43316 1.50583,1.72817c0.86081,0.34155 1.06421,1.32453 1.20316,2.21467c0.12784,0.81896 0.84137,1.46686 0.98483,2.3c0.15274,0.88701 0.01068,1.8 0.01068,2.7c0,0.9 0.00647,1.80002 0,2.79983c-0.00534,0.82689 -0.45612,1.41124 -1.33334,2.40017c-0.43704,0.4927 -0.94049,1.05807 -1.49698,1.6785c-0.59283,0.66095 -1.20941,1.34409 -1.83902,2.0295c-0.62177,0.6769 -1.2146,1.3358 -2.33066,2.45867c-0.4646,0.46744 -0.87854,0.85841 -1.24799,1.176c-0.80161,0.68911 -1.39093,1.52243 -2.03601,2.072c-0.59299,0.50517 -0.716,1.18533 -0.716,2.08533c0,0.8 0,1.636 0,2.65267c0,0.69466 0,1.71133 0,2.64733c0,0.9 0,1.8 0,2.7c0,0.87867 0,1.7045 0,2.6c0,0.9 0,1.8 0,2.7c0,0.9 0,1.8 0,2.7c0,0.8 -0.33102,1.45148 -0.83334,2.16667c-0.48846,0.69543 -0.43112,1.6153 -1.16666,2c-0.68732,0.35948 -1.49039,1.02254 -2.17465,1.43333c-0.81177,0.48732 -1.42599,1.03699 -2.30936,1.6c-0.67303,0.42896 -1.48596,0.91146 -2.14133,1.4c-0.68707,0.51217 -1.40732,0.84972 -2.35333,1.5c-0.5415,0.37223 -1.33356,1.01669 -2.04218,1.4c-0.96701,0.52308 -1.57919,0.79997 -2.37915,1.2c-0.79987,0.39997 -1.59961,0.76662 -2.43335,1.3c-0.7059,0.45161 -1.49658,0.85788 -2.42798,0.97467c-0.78818,0.09883 -1.82626,0.21982 -2.51334,0.46133c-0.68799,0.24183 -1.64017,0.68259 -2.45068,0.95334c-0.81589,0.27253 -1.84937,0.52889 -2.733,0.58983c-0.87317,0.06021 -1.77264,-0.02762 -2.61099,0.30483c-0.80197,0.31802 -1.67206,0.6874 -2.53067,0.716c-0.89951,0.02996 -1.69998,0 -2.60001,0c-0.89999,0 -1.82083,0 -2.784,0c-0.69064,0 -1.75433,0 -2.62582,0c-0.76218,0 -1.89142,0.03513 -2.6795,-0.01067c-0.72794,-0.0423 -1.52914,-0.50212 -2.41068,-0.90533c-0.86432,-0.39534 -1.44614,-0.84829 -2.19998,-1.47334c-0.65729,-0.54498 -1.53287,-0.71605 -2.21066,-1.18533c-0.71973,-0.49833 -1.37674,-0.94601 -1.38934,-1.82533c-0.01291,-0.89992 -0.36856,-1.74738 -0.716,-2.4c-0.41888,-0.78684 -0.65991,-1.8484 -0.85867,-2.41067c-0.34491,-0.97565 -0.32275,-1.99525 -0.64682,-2.768c-0.35284,-0.84135 -1.02234,-1.48327 -1.3425,-2.196c-0.4118,-0.91675 -0.47891,-1.72556 -0.87201,-2.66133c-0.2435,-0.57965 -0.7984,-1.54661 -1.12799,-2.328c-0.39429,-0.93478 -0.43533,-1.72 -0.436,-2.66133c-0.00049,-0.69067 0,-1.764 0,-2.58533c0,-0.91083 0,-1.8 0,-2.78917c0,-0.77934 0,-1.77884 0,-2.55283c0,-0.9 0,-1.76333 0,-2.7265l0,-0.92083" id="svg_7" stroke-width="2" stroke="#000" fill="none"/>
  <path t="19354,19458,19458,19467,19467,19467,19467,19474,19474,19474,19474,19483,19483,19483,19483,19490,19490,19490,19498,19498,19498,19498,19506,19506,19506,19514,19514,19514,19522,19522,19522,19530,19530,19530,19538,19538,19538,19547,19547,19547,19554,19563,19563,19563,19570,19619,19634,19646,19646,19646,19650,19650,19650,19658,19658,19658,19666,19666,19666,19675,19675,19675,19683,19683,19690,19691,19698,19699,19722,19723,19730,19738,19747,19764,19795,19803,19803" d="m338,22.78333c-0.86133,1.432 -1.58133,2.01822 -1.97867,2.76433c-0.47641,0.89461 -0.62955,1.63803 -0.90533,2.35433c-0.41196,1.06994 -0.76495,1.72622 -1.116,2.3605c-0.51059,0.92252 -0.9928,1.81473 -1.24283,2.42084c-0.36777,0.89152 -0.55646,1.4998 -0.95718,2.7c-0.30045,0.89985 -0.5,1.5 -0.89999,2.7c-0.19998,0.6 -0.50018,1.49994 -0.69998,2.1c-0.39905,1.19854 -0.61722,1.78155 -0.84283,2.64283c-0.2692,1.02763 -0.34561,1.95696 -0.35583,2.64116c-0.01495,1.00122 -0.00134,1.83683 -0.00134,2.71733c0,0.89867 0,1.79867 0,2.69867c0,0.9 0,1.7955 0,2.664c0,1.06933 -0.01208,1.77441 0,2.74933c0.01068,0.86153 0.43787,1.81192 0.85068,2.312c0.57471,0.69619 0.88846,1.80811 1.67017,2.15384c0.82358,0.36425 1.81992,-0.12177 2.48898,-0.34084c0.78522,-0.25709 1.8414,-0.77986 2.53302,-1.291c0.44849,-0.33146 1.44864,-1.19329 2.05716,-1.59467c0.59198,-0.39045 1.41904,-0.89721 2.19998,-1.58867c0.41034,-0.36333 1.19275,-1.17141 1.7955,-1.755c0.56183,-0.54398 1.37906,-1.17739 2.15717,-1.45717c0.89548,-0.32198 1.66492,-0.56286 2.49017,-1.25633c0.61548,-0.51721 1.10846,-1.32298 1.39999,-2.04283c0.40024,-0.98822 0.20715,-1.86529 0.35733,-2.7525c0.14401,-0.85075 0.99536,-1.07167 0.99985,-1.96267l0,-0.6975" id="svg_8" stroke-width="2" stroke="#000" fill="none"/>
  <path t="20677,20735,20736,20739,20739,20739,20757,20757,20757,20757,20757,20774,20774,20774,20774,20774,20775,20775,20794,20794,20794,20795,20795,20795,20795,20795,20795,20796,20796,20796,20796,20796,20796,20796,20797,20797,20818,20818,20818,20818,20818,20818,20818,20818,20818,20819,20820,20820,20820,20820,20820,20820,20820,20820,20828,20828,20828,20828,20828,20828,20828,20828,20828,20841,20841,20841,20841,20841,20841,20841,20841,20841,20842,20842,20843,20843,20843,20843,20843,20843,20843,20854,20854,20854,20854,20854,20854,20854,20854,20854,20862,20862,20862,20862,20862,20862,20862,20862,20862,20866,20866,20866,20867,20867,20867,20867,20867,20867,20877,20877,20877,20877,20877,20877,20877,20877,20877,20883,20883,20883,20884,20884,20884,20884,20884,20884,20890,20890,20890,20891,20891,20891,20891,20891,20891,20898,20898,20898,20899,20899,20899,20899,20899,20899,20906,20906,20906,20906,20906,20907,20907,20907,20907,20914,20914,20915,20915,20915,20915,20915,20915,20915,20922,20922,20922,20922,20922,20923,20923,20923,20923,20930,20930,20931,20931,20931,20931,20931,20931,20931,20938,20938,20938,20938,20938,20939,20939,20939,20939,20947,20947,20947,20947,20947,20947,20947,20947,20947,20955,20955,20955,20955,20955,20955,20955,20955,20955,20964,20964,20965,20965,20965,20965,20965,20965,20965,20971,20971,20971,20971,20971,20971,20971,20971,20971,20981,20982,20982,20982,20982,20982,20982,20982,20982,20987,20987,20987,20987,20987,20987,20987,20987,20987,20998,20998,20998,20998,20998,20999,20999,20999,20999,21003,21003,21003,21003,21003,21003,21003,21015,21015,21015,21015,21015,21019,21019,21019,21019,21020,21031,21031,21031,21032,21036,21036,21036,21036,21048,21049,21049,21049,21049,21051,21051,21051,21059,21059,21059,21068,21069,21069,21069,21075,21075,21075,21075,21083,21083,21083,21127,21127,21127,21127,21127,21127,21136,21136,21136,21136,21136,21136,21137,21137,21137,21138,21139,21139,21139,21139,21139,21139,21139,21139,21147,21147,21147,21148,21148,21148,21148,21148,21148,21154,21155,21155,21155,21155,21165,21165,21165,21165,21166,21170,21171,21171,21171,21171,21182,21182,21182,21182,21187,21187,21187,21187,21187,21198,21198,21199,21199,21203,21203,21203,21203,21203,21215,21215,21215,21215,21216,21216,21220,21220,21220,21220,21231,21232,21232,21232,21236,21236,21237,21237,21248,21248,21248,21249,21253,21253,21253,21265,21265,21265,21266,21267,21267,21267,21268,21276,21276,21277,21277,21277,21284,21285,21285,21285,21291,21291,21291,21302,21302,21302,21302,21306,21307,21307,21307,21315,21315,21316,21316,21322,21323,21323,21332,21332,21332,21332,21339,21339,21339,21348,21348,21349,21364,21364,21365,21373,21373,21373,21374,21374,21384,21385,21385,21385,21386,21387,21398,21398,21399,21402,21403,21403,21415,21415,21419,21419,21419,21433,21433,21435,21435,21435,21448,21448,21452,21465,21465,21467,21475,21498,21506,21642,21642,21651,21651,21651,21651" d="m336,34.78333c-0.01068,1.84667 -0.05972,2.6921 -0.284,3.68667c-0.194,0.86026 -0.40558,1.46809 -0.54935,2.48c-0.15543,1.09395 -0.14868,1.89577 -0.15598,2.316c-0.01541,0.88925 -0.00925,2.36101 -0.01202,2.89333c-0.00595,1.13869 -0.01703,1.74907 -0.03467,2.38934c-0.01852,0.67241 -0.03891,1.37926 -0.13065,2.90133c-0.04944,0.82019 -0.11673,1.67895 -0.19501,2.5755c-0.08157,0.93414 -0.17691,1.90399 -0.285,2.9085c-0.11182,1.03918 -0.23148,2.11175 -0.51999,4.34933c-0.15009,1.16391 -0.31552,2.34674 -0.48151,3.54c-0.16602,1.1934 -0.33298,2.3764 -0.49051,3.54c-0.15341,1.13307 -0.30984,2.22466 -0.52798,4.25333c-0.0986,0.91683 -0.16882,1.781 -0.22351,2.60699c-0.05319,0.80338 -0.09055,1.60126 -0.12451,2.409c-0.03506,0.8336 -0.06128,1.70964 -0.15198,3.65067c-0.05106,1.09251 -0.11652,2.2588 -0.19052,3.483c-0.07657,1.26647 -0.16144,2.55882 -0.25348,3.861c-0.09164,1.29649 -0.18195,2.5714 -0.38934,4.98933c-0.09579,1.11668 -0.19791,2.17074 -0.2955,3.171c-0.09311,0.9544 -0.18564,1.87048 -0.26849,2.757c-0.08075,0.86416 -0.16513,1.71371 -0.26935,3.40533c-0.05264,0.85442 -0.08475,1.71859 -0.11398,2.5905c-0.02948,0.87877 -0.05173,1.7637 -0.078,2.6535c-0.0264,0.89386 -0.04538,1.79133 -0.14133,3.58933c-0.04803,0.90005 -0.11511,1.79751 -0.186,2.691c-0.07043,0.88784 -0.14783,1.76729 -0.22202,2.637c-0.07315,0.85763 -0.15317,1.70052 -0.25867,3.33866c-0.05087,0.79015 -0.08469,1.56389 -0.1095,2.3235c-0.02444,0.74841 -0.0383,1.48898 -0.04648,2.2245c-0.00818,0.73347 -0.00986,1.46799 -0.01068,2.952c-0.00043,0.755 0.00015,1.52 -0.00449,2.295c-0.0047,0.78502 -0.01349,1.58006 -0.03152,2.38501c-0.01825,0.81506 -0.03625,1.64069 -0.13065,3.31999c-0.04803,0.8549 -0.11539,1.71616 -0.186,2.5815c-0.07071,0.86667 -0.14801,1.73094 -0.22202,2.5905c-0.0733,0.85144 -0.1532,1.69119 -0.25867,3.328c-0.0509,0.79015 -0.08469,1.56387 -0.1095,2.3235c-0.02444,0.7484 -0.0383,1.48897 -0.04648,2.2245c-0.00818,0.73349 -0.01001,1.468 -0.01068,2.952c-0.00034,0.755 0,1.52 0,2.295c0,0.785 0,1.58 0,2.38501c0,0.81499 0,1.64 0,3.31999c0,0.85484 0,1.71867 0,2.5905c0,0.87883 0,1.76367 0,2.6535c0,0.89383 0,1.79066 0,3.58932c0,0.89984 0,1.79868 0,2.69551c0,0.89383 0,1.78366 0,2.6685c0,0.87883 0,1.75066 0,3.46933c0,0.845 0,1.67999 0,2.505c0,0.81499 0,1.62 0,2.41499c0,0.785 0,1.56 0,3.08c0,0.74533 0,1.48267 0,2.214c0,0.72733 0,1.45265 0,2.17799c0,0.72733 0,1.45866 0,2.94133c0,0.75484 0,1.51868 0,2.2905c0,0.77884 0,1.56367 0,2.3535c0,0.79384 0,1.59067 0,3.18933c0,0.79967 0,1.59734 0,2.39101c0,0.78767 0,1.56734 0,2.33701c0,0.75766 0,1.50133 0,2.93866c0,0.69101 0,1.368 0,2.037c0,0.66701 0,1.338 0,2.019c0,0.69701 0,1.416 0,2.944c0,0.81883 0,1.67067 0,2.54851c0,0.89684 0,1.80566 0,2.7195c0,0.91183 0,1.81467 0,3.56532c0,0.83534 0,1.64267 0,2.42401c0,0.75732 0,1.49266 0,2.20799c0,0.69734 0,1.37868 0,2.70134c0,0.64516 0,1.28133 0,1.9095c0,0.62117 0,1.23633 0,1.8465c0,0.60617 0,1.20934 0,2.41066c0,0.60017 0,1.20134 0,1.8045c0,0.60617 0,1.21634 0,1.8315c0,0.62117 0,1.24934 0,2.53067c0,0.65434 0,1.31467 0,1.97701c0,0.66032 0,1.31467 0,1.959c0,0.63033 0,1.24266 0,2.39732c0,0.53601 0,1.048 0,1.54201c0,0.48199 0,0.95799 0,1.43401c0,0.48199 0,0.976 0,2.02399c0,0.56401 0,1.15201 0,1.758c0,0.61801 0,1.242 0,1.866c0,0.61801 0,1.22403 0,2.37601c0,0.53552 0,1.04401 0,1.5285c0,0.4635 0,0.909 0,1.758c0,1.2135 0,2.01483 0,2.82419c0,0.82532 0,1.67465 0,2.556c0,0.91599 0,1.84799 0,2.77197c0,0.45151 0,1.72803 0,2.492c0,1.04852 0,1.7175 0,2.73602c0,1.09048 0,1.85416 0,2.63782c0,1.1955 0,1.99283 0,2.77417c0,0.74933 0,1.45065 0,2.65332c0,0.76801 0.00745,1.53604 -0.00134,2.73734c-0.00507,0.69205 0.02332,1.42242 -0.16531,2.86401c-0.08987,0.68683 -0.27914,1.33691 -0.48068,2.31934c-0.20715,1.00989 -0.28125,1.72919 -0.31665,2.46201c-0.05194,1.07471 -0.03601,2.052 -0.03601,2.87549c0,0.72449 0.00745,1.93399 -0.009,2.53452c-0.02216,0.80902 -0.06024,1.32617 -0.10532,1.93732c-0.0531,0.71957 -0.21677,2.53821 -0.32852,3.65833c-0.12399,1.24258 -0.26511,2.57889 -0.41849,3.98102c-0.15759,1.44055 -0.32181,2.8909 -0.49051,4.323c-0.16336,1.38657 -0.47833,3.90942 -0.6265,4.996c-0.13217,0.96939 -0.25876,1.83218 -0.375,2.60098c-0.10391,0.68719 -0.2016,1.30377 -0.285,1.86301c-0.07648,0.51279 -0.19858,1.44867 -0.24033,1.89417c-0.04083,0.43585 -0.06949,0.86429 -0.09601,1.28549c-0.02615,0.41513 -0.04855,0.8255 -0.078,1.23151c-0.02927,0.40332 -0.10764,1.20541 -0.16882,1.60449c-0.12296,0.80206 -0.29303,1.60147 -0.483,2.40002c-0.28601,1.20227 -0.5018,1.99823 -0.68484,2.79999c-0.18225,0.79828 -0.34308,1.59756 -0.444,2.39999c-0.10037,0.798 -0.13733,1.60028 -0.19199,2.39999c-0.05469,0.80029 -0.18268,2.00241 -0.33185,2.80002c-0.15012,0.80264 -0.34616,1.60028 -0.64282,2.79999c-0.19788,0.8002 -0.40088,1.59756 -0.564,2.39999c-0.16217,0.79776 -0.32263,1.99936 -0.38333,2.80002c-0.06061,0.79944 -0.0751,1.60327 -0.21933,2.79999c-0.09705,0.80539 -0.26334,1.62054 -0.40802,2.47202c-0.0751,0.44193 -0.26962,1.8605 -0.34131,2.89465c-0.03699,0.53381 -0.08151,1.61264 -0.10934,2.14667c-0.05386,1.0336 -0.11221,1.99127 -0.26001,2.832c-0.19696,1.12048 -0.4248,1.79672 -0.71466,2.82135c-0.20261,0.71622 -0.40677,1.4548 -0.564,2.20798c-0.3031,1.45203 -0.35413,2.13983 -0.41068,2.78934c-0.08109,0.93124 -0.23877,2.13779 -0.37799,2.73599c-0.21011,0.90286 -0.40781,1.49344 -0.56332,2.70135c-0.11789,0.91577 -0.10583,1.55978 -0.25067,2.56534c-0.1572,1.09131 -0.34497,1.83563 -0.53784,2.58066c-0.28207,1.08957 -0.49457,1.76895 -0.6955,2.42734c-0.29861,0.97842 -0.60754,1.98996 -0.79868,2.71066c-0.19855,0.74863 -0.38605,1.52167 -0.51599,2.31601c-0.19528,1.19363 -0.22891,1.98993 -0.28534,2.75699c-0.0788,1.07138 -0.19128,2.00781 -0.436,2.79099c-0.23929,0.76575 -0.67471,1.89041 -0.8595,2.56052c-0.19522,0.70792 -0.3913,1.43542 -0.58316,2.86884c-0.08917,0.66623 -0.09851,1.32355 -0.20535,2.30533c-0.11319,1.04007 -0.26727,1.76443 -0.41599,2.49518c-0.21405,1.05188 -0.38409,1.97751 -0.47467,2.77014c-0.11633,1.01791 -0.24362,1.89413 -0.37799,2.56052c-0.21707,1.07651 -0.39249,1.80344 -0.52585,2.8685c-0.0824,0.65799 -0.11615,1.57495 -0.12149,2.655c-0.00461,0.93066 0.01422,1.76547 -0.00134,2.57199c-0.01813,0.93912 -0.07141,1.53757 -0.22,2.68018c-0.12109,0.93103 -0.20602,1.42618 -0.35333,2.44916c-0.0737,0.51169 -0.27081,1.96423 -0.34,2.80667c-0.05984,0.72855 -0.08307,1.63083 -0.08533,2.85333c-0.0014,0.77335 0,1.57599 0,2.34702c0,0.86099 0,2.05698 0,2.9375c0,0.56366 0,1.83548 0,2.5c0,1.02081 0,1.82083 0,2.62082c0,1.00452 0,1.85718 0,2.82117c0,0.79349 0,1.569 0,2.76901c0,0.69247 0,1.63516 0,2.64316c0,0.86215 0.32813,1.83862 -0.02084,2.64584c-0.30865,0.71396 -0.24832,1.9584 -0.97916,1.95615c-0.70334,-0.00217 0,-1.85715 0,-2.40149l0,-0.9165l0,-0.68933" id="svg_9" stroke-width="2" stroke="#000" fill="none"/>
  <path t="22451,22499,22499,22507,22507,22507,22514,22514,22522,22522,22522,22522,22522,22531,22531,22531,22531,22538,22538,22538,22538,22547,22547,22547,22547,22554,22554,22554,22554,22554,22554,22563,22563,22563,22563,22563,22571,22571,22571,22571,22571,22571,22580,22580,22580,22580,22580,22580,22586,22586,22586,22586,22586,22586,22586,22597,22597,22597,22597,22597,22602,22602,22602,22603,22603,22603,22613,22613,22613,22613,22614,22614,22618,22618,22619,22619,22619,22619,22619,22630,22630,22630,22630,22630,22630,22634,22635,22635,22635,22635,22635,22635,22647,22647,22647,22647,22647,22647,22651,22651,22651,22651,22651,22651,22651,22664,22664,22664,22664,22664,22664,22668,22668,22668,22668,22668,22668,22668,22668,22674,22675,22675,22675,22675,22675,22675,22684,22684,22684,22684,22684,22684,22691,22691,22691,22691,22691,22691,22699,22699,22699,22699,22699,22699,22699,22706,22706,22707,22707,22707,22707,22714,22715,22715,22715,22715,22715,22722,22722,22722,22723,22723,22723,22730,22730,22731,22731,22731,22739,22739,22739,22739,22739,22739,22747,22747,22747,22747,22747,22747,22754,22754,22754,22755,22755,22763,22763,22764,22764,22764,22770,22770,22770,22771,22771,22780,22780,22780,22780,22781,22786,22786,22786,22787,22787,22797,22797,22797,22797,22797,22797,22797,22802,22802,22803,22803,22803,22814,22814,22814,22814,22814,22819,22819,22819,22819,22819,22819,22819,22827,22828,22828,22828,22828,22828,22836,22836,22836,22837,22837,22837,22845,22845,22846,22846,22846,22846,22846,22855,22855,22855,22855,22856,22856,22865,22865,22866,22866,22866,22866,22868,22868,22868,22868,22868,22868,22868,22878,22878,22878,22878,22879,22879,22879,22879,22889,22890,22890,22890,22890,22890,22890,22892,22892,22892,22892,22892,22892,22893,22903,22903,22903,22903,22903,22904,22904,22908,22908,22908,22908,22908,22909,22909,22917,22917,22917,22917,22917,22917,22918,22928,22928,22928,22928,22928,22929,22937,22937,22937,22937,22937,22937,22939,22939,22939,22939,22940,22940,22940,22951,22951,22951,22951,22952,22952,22956,22956,22956,22956,22956,22957,22965,22965,22966,22966,22966,22974,22974,22974,22974,22974,22983,22983,22983,22983,22987,22987,22988,22988,22998,22999,22999,22999,23003,23003,23003,23015,23016,23020,23020,23020,23032,23032,23032,23036,23037,23049,23049,23051,23065,23066,23067,23067,23075,23075,23075,23084,23131,23131,23131,23141,23141,23141,23141,23141,23141,23152,23153,23153,23157,23157,23166,23171,23171,23186,23187,23200,23204,23204,23215,23215,23219,23220,23232,23232,23236,23249,23249,23251,23251,23251,23266,23266,23267,23268,23290,23290,23292,23292,23292,23301,23301,23307,23307,23316,23316,23323,23323,23332,23332,23332,23339,23349,23349,23349,23355,23355,23366,23366,23375,23375,23375,23379,23380,23388,23389,23401,23401,23401,23403,23403,23415,23416,23416,23420,23420,23434,23434,23436,23436,23449,23449,23451,23451,23451,23465,23466,23467,23475,23475,23483,23491,23499,23500,23507,23515,23522,23523,23532,23538,23548,23570,23594,23674,23675,23675,23683,23683,23683,23683,23691,23691,23691,23691,23691" d="m345,28.78333c0,1.84667 0,2.68667 0,3.684c0,0.816 0.0177,1.63218 -0.00134,2.63334c-0.01797,0.94447 -0.15997,2.01701 -0.28265,2.65333c-0.13544,0.7025 -0.30792,1.44775 -0.43201,2.232c-0.18881,1.1933 -0.2366,1.99244 -0.26315,2.7765c-0.02585,0.7634 -0.01239,2.19961 -0.02533,2.86816c-0.01892,0.97832 -0.05737,1.64001 -0.21686,2.67434c-0.11453,0.74278 -0.29352,1.51747 -0.42599,2.34c-0.20959,1.30142 -0.27142,2.22349 -0.29999,2.6955c-0.05832,0.96334 -0.0983,1.94783 -0.13669,2.44417c-0.11606,1.50046 -0.19604,1.99923 -0.34131,2.99866c-0.14542,1.00058 -0.24677,1.49714 -0.40802,3c-0.05356,0.49918 -0.11499,1.49995 -0.16666,2.5c-0.02582,0.49998 -0.06702,1.50155 -0.16666,2.5c-0.10025,1.00452 -0.18695,1.50887 -0.33334,2.54166c-0.07516,0.53027 -0.23129,1.62756 -0.33334,2.79167c-0.05331,0.60835 -0.1149,1.86296 -0.14133,2.49599c-0.02625,0.62897 -0.06805,1.85163 -0.10934,2.432c-0.11069,1.5553 -0.19165,2.00281 -0.34131,2.82667c-0.14148,0.77881 -0.32675,1.5587 -0.45334,2.87634c-0.09613,1.00041 -0.09454,1.53307 -0.14667,2.63167c-0.02658,0.56037 -0.03107,1.12518 -0.19601,2.78283c-0.05368,0.53947 -0.20508,1.60635 -0.27866,2.14201c-0.14957,1.08869 -0.24426,1.64613 -0.37866,3.42183c-0.04727,0.62466 -0.06973,1.26262 -0.09601,1.908c-0.05283,1.29858 -0.07236,1.94431 -0.10934,2.58133c-0.07172,1.23535 -0.19653,2.3991 -0.26865,2.95817c-0.14059,1.08989 -0.23471,1.62289 -0.36334,2.6925c-0.13019,1.08253 -0.16995,1.63825 -0.23132,2.77c-0.03104,0.57247 -0.0759,1.72211 -0.10535,2.29466c-0.02927,0.56879 -0.16443,2.23201 -0.23132,2.77c-0.1329,1.06908 -0.22275,1.60261 -0.36334,2.6925c-0.07211,0.55907 -0.23459,2.33264 -0.26865,2.95817c-0.03467,0.63715 -0.05652,1.28275 -0.10934,2.58133c-0.02628,0.64539 -0.03799,1.28423 -0.14133,2.51733c-0.09781,1.16714 -0.18475,1.72817 -0.33334,2.83334c-0.07407,0.55075 -0.17587,1.10249 -0.33334,2.83334c-0.05536,0.60867 -0.08716,1.23579 -0.14133,2.528c-0.02765,0.65941 -0.04865,1.3241 -0.078,1.99049c-0.02933,0.66559 -0.16443,2.62712 -0.23267,3.26283c-0.06747,0.62866 -0.14331,1.25041 -0.32532,2.47467c-0.09021,0.60672 -0.19125,1.20924 -0.48917,3.0105c-0.09903,0.5988 -0.20154,1.19478 -0.37933,2.37933c-0.08774,0.58441 -0.18848,1.16106 -0.35419,2.85417c-0.05331,0.54462 -0.11493,1.61395 -0.14133,2.14133c-0.05255,1.05058 -0.05542,1.57976 -0.19199,3.192c-0.04706,0.55556 -0.18799,1.69086 -0.26935,2.26933c-0.08231,0.58521 -0.26749,1.76868 -0.36533,2.36534c-0.19662,1.19899 -0.39835,2.39583 -0.49417,2.98965c-0.09482,0.58752 -0.2742,1.73624 -0.34732,2.29468c-0.2067,1.57896 -0.23679,2.07159 -0.30902,3.009c-0.06973,0.90526 -0.1452,1.81248 -0.2175,2.27333c-0.23242,1.48167 -0.39325,2.00143 -0.68134,3.08266c-0.14658,0.55008 -0.45483,1.64136 -0.58133,2.18134c-0.35574,1.51849 -0.41382,1.99834 -0.50665,2.91734c-0.09091,0.89995 -0.08719,1.35802 -0.228,2.784c-0.10248,1.03772 -0.18716,1.57698 -0.26935,2.12799c-0.16782,1.12505 -0.26245,1.69157 -0.564,3.37201c-0.09787,0.54535 -0.29739,1.60466 -0.38934,2.12c-0.17831,0.99936 -0.28403,1.48117 -0.444,2.88c-0.10059,0.87935 -0.13855,1.73047 -0.15598,2.556c-0.01709,0.8092 -0.01068,2.01083 -0.01068,2.81517c0,0.81633 0,1.65266 0,2.08083c0,1.33617 0,2.27184 0,3.2355c0,0.48984 0.00067,1.4805 0,2.47916c-0.00067,0.99867 -0.00653,1.98944 -0.02084,2.47917c-0.02817,0.96394 -0.13977,2.35495 -0.2005,2.79967c-0.11945,0.87471 -0.29391,1.73961 -0.42599,2.631c-0.21039,1.4201 -0.24286,1.93236 -0.2955,3c-0.02719,0.55124 -0.04135,1.11095 -0.05267,2.242c-0.00565,0.56549 -0.00449,2.2265 -0.00449,2.76151c0,1.03999 0,1.545 0,2.52499c0,1.395 0,2.27901 0,2.7135c0,0.869 0.00021,1.758 0,3.1815c-0.00009,0.50966 -0.00143,1.58104 -0.01068,2.13866c-0.01904,1.14946 -0.03815,1.73747 -0.07465,2.33067c-0.11072,1.7989 -0.19589,2.39632 -0.26733,2.99283c-0.14185,1.18434 -0.22644,1.76797 -0.29468,2.34734c-0.19891,1.68904 -0.24188,2.23524 -0.2955,3.3045c-0.02643,0.52708 -0.04883,1.57799 -0.05267,2.10533c-0.01172,1.61397 -0.00449,2.16884 -0.00449,3.3045c0,0.57883 0,1.16367 0,2.34734c0,0.59683 0,1.79549 0,2.99416c0,0.59683 0,1.19067 0,2.36534c0,0.57883 0,2.26933 0,2.81467c0,1.06865 0,1.59599 0,2.64665c0,0.52734 0.00052,2.14136 -0.00015,2.69635c-0.00067,0.565 -0.00815,1.72504 -0.02069,2.32001c-0.01276,0.60504 -0.05176,1.84589 -0.14581,3.125c-0.04819,0.65518 -0.1138,1.31769 -0.25867,2.65866c-0.07291,0.67484 -0.15112,1.34915 -0.22202,2.022c-0.07043,0.66849 -0.19803,1.98529 -0.26733,3.26865c-0.03409,0.63104 -0.05582,1.25854 -0.07465,2.50934c-0.00946,0.62732 -0.01001,1.25867 -0.01068,2.54135c-0.0007,1.31598 0,1.98148 0,2.64798c0,0.66452 0,1.32401 0,2.616c0,1.23602 0.00403,1.82672 -0.00449,2.96402c-0.00415,0.55469 -0.02823,1.6561 -0.05267,2.21066c-0.02481,0.56281 -0.16196,2.33771 -0.22684,2.96399c-0.06638,0.64075 -0.1438,1.29172 -0.29068,2.616c-0.07391,0.66638 -0.15814,1.3306 -0.25867,2.64801c-0.09769,1.28021 -0.1124,1.90939 -0.13065,2.53067c-0.01807,0.61508 -0.03275,1.83148 -0.03467,2.43466c-0.00381,1.20132 -0.00134,2.39999 -0.00134,2.99683c0,0.59384 0,1.76849 0,2.34735c0,1.69049 0,2.23581 0,3.30447c0,0.52734 0,1.578 0,2.10535c0,1.61401 0,2.16867 0,2.73132c0,1.14136 0,1.716 0,2.86334c0,0.56866 0,2.23132 0,2.76868c0,1.05865 0,1.58398 0,2.63666c0,0.53134 -0.00082,2.16849 0.00134,2.73001c0.00217,0.56549 0.01447,1.69666 0.03467,2.25598c0.03946,1.09241 0.11398,2.13019 0.24799,3.09067c0.12573,0.901 0.30124,1.74759 0.43201,2.56799c0.12769,0.80109 0.20398,1.60242 0.25867,2.40268c0.05466,0.79971 0.07962,1.60379 0.24667,2.79984c0.11154,0.79868 0.29938,1.57559 0.49466,2.71484c0.18185,1.06085 0.24313,1.73203 0.27332,2.71066c0.02029,0.65842 0.00272,1.69608 0.01517,2.42734c0.0191,1.12225 0.03793,1.86969 0.21686,2.92548c0.16473,0.97198 0.42322,1.52283 0.65717,2.67917c0.15884,0.78513 0.12149,1.68567 0.12149,2.41467c0,0.83701 0,2.02768 0,2.90668c0,0.80701 0,1.6785 0,2.56949c0,0.90451 0,1.76785 0,2.6265c0,0.94684 0,1.836 0,2.82535c0,0.79999 0,1.79999 0,2.58932c0,0.72534 -0.01462,1.71078 0.00134,2.70267c0.01019,0.63321 0.0741,1.53711 0.22,2.81467c0.05869,0.51379 0.20398,1.62 0.27866,2.19333c0.07468,0.57333 0.23376,1.67807 0.37851,3.09235c0.07333,0.71646 0.11615,1.51831 0.12149,2.52365c0.00409,0.76801 0,1.70935 0,2.71735c0,0.80499 0,1.73599 0,2.51849c0,0.89551 0,1.81485 0,2.66901c0,0.97916 0,1.76849 0,2.8125c0,0.79199 0.10764,1.6647 -0.05716,2.51401c-0.17963,0.92572 -0.85434,1.64093 -0.93835,2.46698c-0.09662,0.95013 0.02066,1.71158 -0.08981,2.50302c-0.14059,1.00714 -0.55539,1.85379 -0.74802,2.68265c-0.22409,0.96429 -0.09897,1.83908 -0.20267,2.66135c-0.1127,0.89355 -0.36362,1.60349 -0.66849,2.33331c-0.44244,1.05914 -1.05325,1.72333 -1.23834,2.66251c-0.14487,0.73505 -0.00266,1.74722 -0.09317,2.54285c-0.11496,1.0105 -0.54382,1.77682 -0.79733,2.79999c-0.19241,0.77658 -0.16599,1.51468 -0.16666,2.52084c-0.00067,1.02182 0.00049,1.72983 0,2.47382c-0.00067,1.03601 -0.07663,1.89105 -0.35266,2.66702c-0.28571,0.80322 -0.55234,1.75708 -0.61133,2.55298c-0.05737,0.77402 0.03601,1.9888 -0.12134,2.668c-0.23068,0.99585 -0.6286,1.56625 -0.83066,2.80136c-0.08792,0.53735 -0.05252,1.38159 -0.36801,2.63065c-0.17111,0.67746 -0.59698,1.67899 -0.67999,2.48535c-0.082,0.79654 -0.03546,1.79999 -0.03601,2.59998c-0.00067,0.99869 0.08701,1.80487 -0.284,2.716c-0.27646,0.67892 -0.68323,1.54446 -0.71152,2.34567c-0.03384,0.95892 0.04477,1.75891 -0.06165,2.5285c-0.14566,1.05359 -0.78729,1.77573 -0.93216,2.64584c-0.16699,1.00296 0.0336,1.75146 -0.36334,2.60681c-0.42331,0.91217 -0.64734,1.75717 -0.64734,2.55719c0,0.89999 0,1.72083 0,2.68399c0,0.86334 0,1.75882 0,2.716c0,0.89999 -0.87851,2.6785 0,2.6785c0.54318,0 0,-1.46182 0,-2.04916c0,-1.35083 0,-2.08652 0,-2.85016c0,-0.78369 0,-1.97919 0,-2.78052l0,-0.80933l0,-0.82535l0,-0.84933" id="svg_10" stroke-width="2" stroke="#000" fill="none"/>
  <path t="24484,24506,24506,24506,24506,24515,24515,24515,24515,24515,24515,24523,24523,24523,24523,24523,24523,24530,24531,24531,24531,24531,24531,24531,24538,24538,24539,24539,24539,24539,24539,24547,24547,24547,24547,24547,24547,24547,24547,24554,24554,24554,24555,24555,24555,24555,24555,24563,24564,24564,24564,24564,24564,24564,24572,24572,24572,24572,24572,24572,24580,24580,24580,24580,24580,24580,24580,24580,24586,24586,24587,24587,24587,24587,24587,24587,24597,24597,24597,24597,24597,24597,24597,24597,24597,24603,24603,24603,24603,24603,24603,24603,24603,24614,24614,24614,24614,24614,24614,24614,24614,24619,24619,24619,24619,24619,24619,24619,24619,24630,24630,24630,24631,24631,24631,24634,24634,24635,24635,24635,24635,24635,24635,24635,24647,24647,24647,24647,24647,24647,24647,24651,24652,24652,24652,24652,24652,24664,24664,24664,24664,24664,24664,24668,24668,24668,24668,24668,24668,24668,24675,24675,24675,24675,24675,24684,24684,24684,24684,24684,24691,24691,24691,24691,24691,24691,24699,24699,24699,24699,24699,24707,24707,24707,24707,24715,24715,24715,24715,24715,24722,24723,24723,24723,24730,24731,24731,24731,24731,24738,24739,24739,24739,24747,24747,24747,24748,24748,24748,24755,24755,24755,24755,24755,24764,24764,24764,24765,24765,24771,24771,24771,24771,24771,24782,24782,24782,24782,24787,24787,24787,24787,24787,24787,24798,24798,24799,24799,24799,24803,24803,24803,24803,24803,24803,24815,24815,24815,24815,24816,24819,24819,24820,24820,24820,24820,24833,24833,24833,24834,24834,24835,24836,24836,24836,24836,24850,24850,24850,24850,24850,24852,24852,24852,24853,24853,24860,24860,24860,24861,24871,24871,24871,24871,24871,24876,24876,24877,24885,24885,24885,24885,24885,24891,24891,24891,24891,24899,24900,24900,24907,24907,24907,24916,24916,24916,24922,24923,24923,24923,24932,24932,24939,24948,24949,24949,24955,24955,24955,24955,24965,24970,24971,24982,24982,24987,24987,24998,24999,25003,25003,25015,25015,25019,25019,25032,25036,25036,25048,25049,25052,25053,25053,25065,25065,25065,25067,25067,25076,25076,25084,25084,25095,25095,25141,25141,25141,25141,25141,25151,25151,25151,25151,25151,25152,25152,25152,25152,25156,25156,25156,25156,25156,25157,25165,25166,25171,25171,25181,25182,25186,25187,25199,25199,25203,25203,25215,25215,25220,25220,25232,25232,25236,25236,25236,25248,25252,25252,25253,25265,25265,25266,25267,25267,25267,25276,25276,25276,25286,25286,25286,25292,25292,25293,25293,25301,25301,25301,25302,25307,25307,25307,25307,25316,25316,25316,25322,25323,25331,25332,25332,25339,25339,25339,25348,25349,25354,25355,25365,25365,25384,25388,25399,25403,25431,25434,25450,25482,25491,25514,25522,25546,25627,25648,25650,25675,25714,25739,25739,25786,25802,26002" d="m329,52.78333c-0.91467,4.52 -0.97244,5.20642 -0.98932,5.93333c-0.01871,0.8065 -0.00992,2.25217 -0.01202,2.804c-0.0022,0.57784 -0.01648,1.78358 -0.03467,2.39733c-0.01813,0.61193 -0.12204,2.36628 -0.18549,2.90134c-0.11951,1.00804 -0.29782,1.96429 -0.38916,2.43999c-0.18753,0.97662 -0.39224,2.0235 -0.59067,3.17734c-0.10471,0.6089 -0.20593,1.23393 -0.31952,1.8675c-0.22943,1.27959 -0.34509,1.91708 -0.64581,3.14583c-0.14517,0.5932 -0.48392,1.7318 -0.64801,2.29333c-0.32883,1.12527 -0.48923,1.6994 -0.616,2.29333c-0.26483,1.24086 -0.40607,2.60085 -0.4595,3.31367c-0.05472,0.72989 -0.09015,1.47461 -0.12451,2.229c-0.03464,0.76028 -0.05429,1.52349 -0.15198,3.03734c-0.0481,0.74546 -0.11469,1.4804 -0.19052,2.20499c-0.07489,0.71543 -0.25131,2.1153 -0.34732,2.8c-0.0947,0.67531 -0.29434,1.99519 -0.39551,2.64c-0.19772,1.26036 -0.29874,1.87521 -0.39999,2.48c-0.1976,1.1804 -0.29691,1.75555 -0.5,2.875c-0.19702,1.08588 -0.30225,1.62259 -0.5,2.70833c-0.10117,0.55546 -0.30609,1.71204 -0.5,2.95834c-0.10327,0.66367 -0.20102,1.3532 -0.29999,2.0625c-0.10101,0.72402 -0.19986,1.45836 -0.30002,2.1975c-0.19968,1.47337 -0.39938,2.90675 -0.49982,3.5975c-0.09827,0.67592 -0.19904,1.3412 -0.28952,2.0025c-0.1814,1.32576 -0.26099,2.00176 -0.32532,2.69334c-0.13443,1.44529 -0.16653,2.21055 -0.20267,2.99866c-0.03693,0.80589 -0.06552,1.62411 -0.10352,2.448c-0.03802,0.82412 -0.07626,1.64304 -0.1485,2.44801c-0.13947,1.55438 -0.26541,2.28909 -0.39865,2.99733c-0.12964,0.68916 -0.28409,1.35701 -0.58133,2.65866c-0.14603,0.63951 -0.3107,1.27254 -0.51733,2.56267c-0.10455,0.65288 -0.22522,1.99464 -0.26135,2.68001c-0.03662,0.69469 -0.05368,1.39995 -0.06299,2.11499c-0.00943,0.72498 -0.009,2.205 -0.009,2.95917c0,0.75917 0,2.27251 0,3.01666c0,0.72917 0,1.43834 0,2.12251c0,1.27333 0,2.40533 0,2.93382c0,1.02701 0,1.5435 0,2.6275c0,1.21201 0,1.88567 0,2.60133c0,0.74966 0,1.52533 0,2.319c0,0.80367 0.00003,1.60933 0,2.409c-0.00009,2.28467 0.00031,2.99202 -0.00449,3.67334c-0.00461,0.65735 -0.00516,1.29305 -0.05267,2.50533c-0.0228,0.58157 -0.16086,2.24974 -0.22684,2.78667c-0.06537,0.53175 -0.22156,1.58324 -0.36334,2.63667c-0.07147,0.53098 -0.19662,1.61327 -0.26865,2.73267c-0.03677,0.57152 -0.0831,1.73555 -0.10934,2.32533c-0.02643,0.59389 -0.13727,2.38971 -0.19601,2.989c-0.05862,0.59808 -0.20334,1.77908 -0.27866,2.35867c-0.07404,0.56975 -0.23077,1.66942 -0.33334,2.70833c-0.09503,0.96275 -0.13861,1.87181 -0.15598,2.748c-0.01721,0.86787 -0.00684,1.75201 -0.01202,2.67067c-0.00537,0.9507 -0.00171,1.43633 -0.05582,2.41916c-0.08243,1.49724 -0.15674,1.99635 -0.2955,2.99101c-0.06897,0.49435 -0.23581,1.46654 -0.36334,2.41916c-0.18225,1.36133 -0.21027,1.79941 -0.24799,2.64934c-0.03659,0.82491 -0.03534,1.63466 -0.03601,2.836c-0.00046,0.8 0,1.59999 0,2.39999c0,1.2 0.00665,2.00014 -0.01068,2.8c-0.01733,0.80022 -0.0448,1.60376 -0.21066,2.8c-0.11136,0.80302 -0.29001,1.59798 -0.42599,2.39999c-0.203,1.19724 -0.27264,1.99971 -0.32733,2.8c-0.05466,0.79974 -0.08063,1.60364 -0.24667,2.80017c-0.11203,0.80725 -0.2926,1.61833 -0.42599,2.457c-0.20776,1.30621 -0.24005,1.76373 -0.29999,2.7c-0.06165,0.96313 -0.06201,1.45459 -0.13669,2.44417c-0.11325,1.50053 -0.19113,1.99893 -0.35199,2.98799c-0.0798,0.49068 -0.26071,1.45518 -0.564,2.84401c-0.09732,0.44571 -0.30316,1.30785 -0.47916,2.14583c-0.17111,0.8148 -0.37009,2.01936 -0.43552,2.82083c-0.06522,0.79886 -0.07883,1.59998 -0.08398,2.40001c-0.00775,1.20013 0.00369,2.00475 -0.02219,2.82083c-0.02655,0.8367 -0.14117,2.14641 -0.2005,2.60049c-0.12183,0.93262 -0.28033,1.8784 -0.35333,2.35333c-0.14462,0.94083 -0.31772,2.30325 -0.36816,3.17717c-0.05011,0.86832 -0.05069,1.30946 -0.05582,2.21751c-0.00833,1.4733 0.00266,1.99872 -0.01202,3.08133c-0.00745,0.54935 -0.03665,1.64459 -0.07465,2.18134c-0.10809,1.52756 -0.19348,2.00082 -0.34,2.91733c-0.14423,0.90216 -0.31122,1.81638 -0.40802,2.784c-0.1033,1.03271 -0.11752,1.57175 -0.14581,2.66666c-0.01419,0.54926 -0.02017,1.63202 -0.02084,2.66669c-0.00061,0.96399 0,1.87198 0,2.74799c0,0.4335 0.00388,1.75201 -0.00134,2.66934c-0.00537,0.94135 -0.00031,1.4169 -0.05582,2.36331c-0.08139,1.38794 -0.15399,1.83279 -0.2955,2.69553c-0.13745,0.83801 -0.32599,1.64822 -0.48068,2.85715c-0.10205,0.79764 -0.13864,1.59979 -0.15598,2.39999c-0.01733,0.7999 -0.01068,2 -0.01068,2.80002c0,0.79999 0.00101,1.60001 0,2.79999c-0.00067,0.79868 0.00208,1.58987 -0.03601,2.36401c-0.03696,0.75137 -0.24408,2.15286 -0.38931,2.81067c-0.21622,0.97931 -0.42496,1.9903 -0.48935,2.71066c-0.06699,0.7493 -0.07886,1.5253 -0.08398,2.31601c-0.00775,1.19846 -0.00134,1.99414 -0.00134,2.77783c0,0.76364 0,2.19916 0,2.85916c0,0.91498 0.01849,1.99536 -0.00449,2.70898c-0.02921,0.9064 -0.21326,1.87509 -0.42084,2.68866c-0.14679,0.57535 -0.43472,1.76114 -0.51752,2.65952c-0.05368,0.58234 -0.05649,1.41916 -0.05716,2.64282c-0.00043,0.80002 0.00357,1.7135 0,2.79501c-0.00226,0.681 0.01312,1.49451 -0.16666,2.66666c-0.09229,0.60175 -0.35315,1.45306 -0.54935,2.22934c-0.276,1.09195 -0.28232,1.97333 -0.284,2.74133c-0.00226,1.03467 0.07639,1.80185 -0.16666,2.69601c-0.23035,0.84747 -0.76233,1.64996 -0.82266,2.54398c-0.06662,0.98697 -0.01068,1.76852 -0.01068,2.76801c0,0.77402 0.11856,1.69455 -0.08533,2.53735c-0.21481,0.888 -0.87064,1.68326 -0.91333,2.45465c-0.04416,0.79745 0.00195,1.81467 -0.00134,2.86267c-0.00226,0.71399 -0.01678,1.62704 -0.22134,2.58783c-0.17059,0.80133 -0.48279,1.55582 -0.65717,2.436c-0.17462,0.8815 -0.12097,1.79999 -0.12149,2.54733c-0.00067,0.99548 0.03934,1.81244 -0.22134,2.7955c-0.21713,0.81882 -0.65088,1.79465 -0.7215,2.45401c-0.10425,0.97354 -0.05399,1.43198 -0.05582,1.96997c-0.0047,1.37601 -0.00134,2.23184 -0.00134,3.18268c0,1.02084 0,2.08667 0,3.17252c0,1.08081 0,2.13165 0,3.1275c0,1.72665 0,2.41397 0,2.98532c0,0.46933 0,0.85068 0,1.60666c0,0.9585 0,1.70584 0,2.70132c0,0.80002 0,1.80002 0,2.60001c0,1 0,1.78934 0,2.83334c0,0.79199 0,1.65201 0,2.57117c0,0.99417 0,1.75949 0,2.71149c0,0.76801 0.03464,1.73596 -0.08533,2.57068c-0.1445,1.00528 -0.43268,1.78757 -0.63068,2.54401c-0.24966,0.95383 -0.284,1.936 -0.284,2.616c0,0.84 0,1.83865 0,2.67416c0,0.88049 0.01877,1.77942 -0.01068,2.66849c-0.02829,0.85431 -0.1821,1.89883 -0.42532,2.58536c-0.32727,0.92371 -0.76834,1.90909 -0.96399,2.4613c-0.30685,0.86615 -0.61188,1.76022 -0.89551,2.66852c-0.19171,0.61389 -0.45206,1.57617 -0.58316,2.61682c-0.0918,0.72882 -0.10382,1.4801 -0.17401,2.22601c-0.13504,1.43472 -0.30118,2.09521 -0.522,3.04199c-0.14209,0.60916 -0.35944,1.80811 -0.40448,2.68985c-0.02878,0.56317 -0.02084,1.83682 -0.02084,2.52081c0,1.16669 0.03018,1.95474 -0.03601,2.77469c-0.08585,1.06323 -0.32916,1.76401 -0.53867,2.41464c-0.32343,1.00446 -0.28552,1.83145 -0.64667,2.78934c-0.31168,0.82669 -0.74628,1.67258 -0.77417,2.36868c-0.04071,1.01587 0.16251,1.96857 -0.00583,2.85132c-0.14441,0.75739 -0.98065,1.23679 -0.99866,2.10135c-0.01874,0.89981 0,1.79984 0,2.69998c0,0.80133 0,1.70001 0,2.60001c0,0.89999 0,1.79999 0,2.70001c0,0.89999 0,1.79999 0,2.69998c0,0.80002 0,1.70001 0,2.64285l0.07199,0.89581" id="svg_11" stroke-width="2" stroke="#000" fill="none"/>
 </g>
 <g display="none">
  <title>muse_image</title>
  <image xlink:href="http://farm4.static.flickr.com/3066/3027997812_c32cfd7453.jpg" id="muse" height="480" width="298" y="0" x="171"/>
 </g>
 <g display="none">
  <title>bbox</title>
  <rect stroke="#f00" fill="none" stroke-width="3" height="444.48" width="174.39228" y="9.6" x="229.45016" id="bbox"/>
 </g>
</svg>
