<svg width="640" height="480" xmlns="http://www.w3.org/2000/svg" xmlns:svg="http://www.w3.org/2000/svg" xmlns:xlink="http://www.w3.org/1999/xlink">
 <!-- Sketchy ANNOTATION
  ImageNet ID: n03272010_6799
  URL: http://farm4.static.flickr.com/3066/3027997812_c32cfd7453.jpg
  Image Width: 311
  Image Height: 500
  BBox X: 61
  BBox Y: 10
  BBox Width: 182
  BBox Height: 463
  Exposure: 2000ms
  Synset Label: guitar
  Synset ID: n03467517
  Worker Tag: electric guitar
  Sanity Check: 
   Saved
  Comment: 
   {}
  Worker ID: A1VGZ2K3HF66TE
  Assignment ID: 3Q8GYXHFEP2O1KB51I2V1UAEY415CW
  HIT ID: 3UUIU9GZC5530HFMX2SJ1KFXJQT5TU
  Work Time: 73s
  Worker Score: 0.7857
 END ANNOTATION -->
 <g display="inline">
  <title>Layer 1</title>
  <path t="0,326,326,326,327,327,327,327,327,346,346,347,347,347,349,349,349,350,384,384,384,384,384,385,385,385,385,407,408,408,408,408,408,408,409,409,425,426,426,426,426,426,426,426,427,440,440,440,441,441,441,441,441,441,481,482,482,482,482,485,489,489,489,498,498,499,499,499,500,500,500,500,509,509,509,510,510,510,511,511,511,524,524,525,525,525,525,526,526,530,540,541,541,542,542,542,543,543,544,576,577,577,577,578,578,578,579,579,592,592,592,593,593,593,594,594,594,625,626,627,627,627,628,628,629,629,656,658,659,659,660,661,662,662,662,671,672,673,673,675,676,676,676,677,682,684,684,685,703,705,706,708,709,719,720,721,721,722,723,723,724,724,743,744,744,745,745,745,746,746,746,756,757,759,760,761,761,762,762,763,801,802,802,802,815,815,816,816,817,829,830,830,831,842,843,843,848,849,865,866,867,868,868,869,872,873,873,880,881,881,882,883,884,884,885,885,927,928,928,929,930,930,931,931,932,959,960,960,961,961,962,963,963,964,971,972,972,973,974,974,975,975,976,992,994,995,996,997,998,999,999,1000,1013,1014,1015,1015,1016,1017,1018,1018,1019,1058,1059,1061,1065,1066,1067,1068,1069,1071,1103,1105,1107,1108,1109,1110,1113,1116,1120,1129,1131,1133,1134,1138,1140,1142,1144,1145,1166,1168,1168,1170,1171,1172,1173,1174,1175,1183,1185,1186,1187,1189,1190,1191,1191,1192,1200,1202,1203,1204,1206,1207,1208,1209,1210,1218,1222,1223,1224,1226,1227,1228,1229,1231,1244,1247,1248,1250,1251,1251,1252,1255,1256,1263,1265,1266,1267,1268,1269,1271,1272,1273,1300,1302,1304,1306,1308,1309,1310,1311,1311,1319,1321,1322,1334,1338,1339,1341,1342,1343,1354,1356,1357,1358,1360,1361,1362,1364,1366,1378,1380,1381,1382,1383,1384,1385,1386,1390,1414,1416,1417,1418,1419,1421,1422,1426,1427,1446,1447,1448,1450,1451,1452,1453,1454,1455,1461,1462,1463,1465,1466,1467,1467,1469,1470,1494,1495,1497,1498,1499,1499,1500,1501,1502,1525,1527,1528,1529,1530,1532,1534,1536,1538,1544,1545,1546,1547,1548,1549,1551,1553,1555,1590,1592,1594,1600,1604,1606,1608,1609,1610,1617,1619,1621,1622,1624,1626,1627,1630,1632,1655,1658,1660,1662,1664,1666,1667,1669,1670,1725,1727,1728,1729,1745,1775,1777,1778,1780,1781,1783,1785,1808,1810,1811,1812,1814,1816,1847,1849,1850,1852,1857,1871,1874,1875,1876,1877,1878,1891,1892,1894,1895,1897,1898,1899,1900,1923,1925,1926,1927,1928,1929,1931,1933,1935,1954,1956,1958,1959,1960,1989,1991,1993,1995,2001,2003,2005,2006,2008,2010,2012,2026,2040,2042,2044,2058,2389,2407,2409,2413,2414,2423,2574,2596,2597,2598,2599,2601,2603,2605,2626,2628,2630,2631,2637,2639,2640,2642,2649,2650,2652,2653,2655,2656,2658,2659,2661,2688,2690,2691,2693,2695,2697,2700,2701,2705,2712,2714,2716,2717,2718,2720,2722,2724,2728,2745,2747,2749,2750,2752,2754,2757,2759,2760,2775,2777,2779,2780,2782,2783,2785,2786,2789,2814,2816,2818,2819,2820,2822,2823,2825,2827,2847,2849,2850,2852,2857,2858,2860,2861,2863,2888,2890,2892,2893,2896,2898,2899,2900,2901,2925,2927,2928,2930,2931,2932,2933,2936,2938,2945,2947,2948,2950,2952,2953,2955,2957,2960,2984,2986,2989,2990,2992,2994,2996,2998,3007,3014,3016,3017,3018,3019,3021,3022,3023,3024" d="m263,202c-9.89101,0.00684 -10.57947,-0.01228 -11.17366,0.18449c-0.57494,0.1904 -1.10345,0.62898 -1.44901,1.2915c-0.43108,0.82651 -0.73491,2.01442 -0.87733,5.35733c-0.09544,2.24014 0.04282,4.81865 0.21001,7.6485c0.17795,3.01178 0.43912,6.12404 0.75,9.25951c0.30608,3.08693 0.59767,6.05115 1.37332,11.25867c0.31749,2.13156 0.65604,3.94406 1.02301,5.4735c0.31467,1.31143 0.66066,2.43172 1.041,3.3945c0.34735,0.8793 0.75597,1.68205 1.60266,3.29868c0.46292,0.88388 0.95535,1.825 1.44901,2.82449c0.5119,1.03645 1.01978,2.10838 1.50299,3.2115c0.48621,1.10995 0.98123,2.21698 1.71466,4.46399c0.35278,1.08087 0.62051,2.15131 0.84302,3.19202c0.21429,1.00232 0.37543,1.97324 0.50101,2.90399c0.11926,0.88409 0.20901,1.72174 0.32266,3.23734c0.05035,0.6713 0.08426,1.29321 0.1095,1.875c0.02393,0.55154 0.0383,1.08331 0.04648,1.60501c0.00818,0.52164 0.01031,1.05331 0.01068,2.18665c0.00021,0.61902 0.00015,1.27203 -0.009,1.953c-0.00943,0.70303 -0.02679,1.42227 -0.06299,2.151c-0.03644,0.73331 -0.06674,1.46802 -0.26135,2.896c-0.09454,0.69363 -0.23099,1.37274 -0.38998,2.04602c-0.16095,0.68152 -0.35483,1.37222 -0.57001,2.082c-0.22461,0.74097 -0.47852,1.51514 -1.04001,3.20532c-0.30832,0.9281 -0.63419,1.9024 -0.9675,2.9115c-0.34006,1.02954 -0.68024,2.06705 -1.01248,3.10049c-0.32608,1.01422 -0.64648,1.99475 -1.18668,3.82135c-0.24106,0.81512 -0.4502,1.57248 -0.61951,2.28448c-0.15953,0.67093 -0.28787,1.31796 -0.3765,1.95151c-0.08762,0.62634 -0.15851,1.26208 -0.17067,2.59732c-0.00655,0.71887 0.03131,1.47076 0.0675,2.2485c0.03709,0.79694 0.0833,1.6055 0.1125,2.41949c0.02911,0.81171 0.07733,1.61664 -0.01334,3.16534c-0.04321,0.73819 -0.14603,1.4545 -0.2625,2.16c-0.11687,0.70792 -0.26097,1.42285 -0.39751,2.16c-0.14191,0.76614 -0.30812,1.56909 -0.50667,3.34665c-0.10957,0.98105 -0.17029,2.02365 -0.21899,3.11102c-0.0502,1.12067 -0.07666,2.26392 -0.093,3.41699c-0.01631,1.15094 -0.02054,2.28799 -0.02133,4.47198c-0.00038,1.026 -0.00082,2.00806 0.0135,2.952c0.01384,0.91211 0.03952,1.79855 0.0945,2.664c0.05417,0.85266 0.10887,1.70215 0.392,3.384c0.14445,0.85809 0.34634,1.71808 0.567,2.58151c0.22198,0.86865 0.47081,1.73215 0.729,2.59048c0.25648,0.85266 0.52528,1.69119 1.03734,3.328c0.24728,0.79044 0.48364,1.56808 0.73199,2.33252c0.24765,0.76227 0.50848,1.5253 0.80399,2.28748c0.30231,0.77969 0.61871,1.58551 1.46402,3.21335c0.45389,0.87405 0.98071,1.75333 1.539,2.6445c0.56696,0.905 1.16293,1.79742 1.77298,2.67151c0.59943,0.85889 1.18787,1.68948 2.35468,3.18399c0.52911,0.67773 1.04593,1.30109 1.569,1.87051c0.50937,0.5545 1.04568,1.07877 1.62299,1.57349c0.59857,0.51294 1.25256,1.03299 2.80801,2.056c0.8826,0.58051 1.86139,1.15988 2.91,1.75351c1.0979,0.62152 2.25125,1.23636 3.44998,1.8345c1.21796,0.60776 2.44821,1.21893 4.97336,2.24533c1.23535,0.50214 2.4682,0.93405 3.67798,1.32898c1.17444,0.38342 2.32001,0.72 3.42603,1.02301c1.05609,0.28934 2.06219,0.5462 3.896,0.98132c0.8157,0.19354 1.57117,0.36523 2.27548,0.5145c0.65976,0.1398 1.28607,0.26196 1.88852,0.36151c0.58459,0.09662 1.16235,0.18646 2.336,0.29068c0.60858,0.05405 1.2345,0.08496 1.87198,0.1095c0.64523,0.02484 1.29465,0.03827 1.944,0.04648c0.64532,0.00815 1.28268,0.01086 2.51733,0.01068c0.59235,-0.00009 1.17889,0.00031 1.77301,-0.02249c0.61664,-0.02365 1.26987,-0.07126 1.97101,-0.1575c0.76782,-0.09445 1.61707,-0.21658 3.58932,-0.65335c1.16122,-0.25717 2.42078,-0.5864 3.76349,-0.97049c1.41895,-0.40588 2.88809,-0.86703 4.38452,-1.39349c1.52618,-0.53693 3.07538,-1.07632 6.01865,-2.46933c1.44244,-0.68268 2.8093,-1.45148 4.12051,-2.24402c1.27945,-0.77335 2.49112,-1.57861 3.64349,-2.388c1.11108,-0.7804 2.15836,-1.55536 4.06934,-3.03467c0.87405,-0.67661 1.68991,-1.32214 2.44351,-1.95148c0.71417,-0.59644 1.37994,-1.18304 1.9845,-1.78052c0.58429,-0.57745 1.15729,-1.1488 2.07199,-2.43466c0.46103,-0.64807 0.85983,-1.35593 1.22849,-2.09851c0.38004,-0.76553 0.72177,-1.5842 1.03952,-2.44949c0.33188,-0.90372 0.65155,-1.8613 1.23199,-3.952c0.31219,-1.12454 0.60287,-2.30237 0.88651,-3.51599c0.28848,-1.23441 0.55853,-2.48248 0.80548,-3.73199c0.24399,-1.23456 0.48367,-2.44336 0.80801,-4.75201c0.15018,-1.06906 0.25299,-2.08728 0.32849,-3.05701c0.07211,-0.92636 0.11472,-1.81781 0.1395,-2.67899c0.02408,-0.83685 0.03,-1.65601 0.03201,-3.26401c0.00101,-0.79999 0,-1.60001 0,-2.39999c0,-0.80002 0,-1.60001 0,-2.39999c0,-0.80002 0.00034,-1.60001 0,-3.20001c-0.00018,-0.80182 0.00009,-1.61469 -0.009,-2.44949c-0.00946,-0.86786 -0.02802,-1.77982 -0.06299,-2.74652c-0.03738,-1.03299 -0.0816,-2.1438 -0.26135,-4.63733c-0.1012,-1.40405 -0.2341,-2.90799 -0.41248,-4.5c-0.18765,-1.67484 -0.42178,-3.41992 -0.72751,-5.22c-0.31537,-1.85693 -0.63971,-3.76944 -1.69333,-7.61331c-0.53879,-1.96567 -1.20471,-3.91098 -1.91101,-5.841c-0.70193,-1.91809 -1.45364,-3.7883 -2.21701,-5.60699c-0.74094,-1.76526 -1.48569,-3.44904 -2.87198,-6.552c-0.62396,-1.39664 -1.20499,-2.68716 -1.72501,-3.88651c-0.47961,-1.1062 -0.91092,-2.1301 -1.27499,-3.08551c-0.33511,-0.87936 -0.65945,-1.69061 -1,-3.19467c-0.15295,-0.67548 -0.22375,-1.32709 -0.25201,-1.94699c-0.02719,-0.5965 -0.00513,-1.17847 0.03601,-1.74899c0.04092,-0.56757 0.11661,-1.13489 0.216,-2.30402c0.05173,-0.60864 0.08493,-1.23318 0.1095,-1.86749c0.02475,-0.63904 0.03824,-1.27829 0.04648,-1.91251c0.00809,-0.62411 0.00949,-1.23334 0.01068,-2.38666c0.00055,-0.53635 -0.00064,-1.05078 0.01349,-1.55099c0.01395,-0.49449 0.0412,-0.99144 0.09451,-1.49701c0.05539,-0.52524 0.12344,-1.07988 0.392,-2.28532c0.15076,-0.67671 0.34961,-1.38988 0.5715,-2.13451c0.22992,-0.7715 0.48502,-1.55505 0.7605,-2.34149c0.27554,-0.78661 0.55051,-1.5649 1.168,-3.024c0.28983,-0.68483 0.59357,-1.32651 0.89551,-1.9335c0.28897,-0.58095 0.58127,-1.13029 0.8685,-1.65451c0.27655,-0.50475 0.55429,-0.98596 1.06934,-1.91199c0.24707,-0.44421 0.48276,-0.88129 0.71399,-1.30951c0.22742,-0.42111 0.45105,-0.83722 0.67801,-1.24649c0.22574,-0.40706 0.44858,-0.81549 0.94131,-1.61067c0.24994,-0.40335 0.51736,-0.80316 0.79501,-1.2045c0.28232,-0.40805 0.57822,-0.81763 0.88501,-1.23151c0.31317,-0.4225 0.63757,-0.8512 1.31998,-1.73067c0.35275,-0.45462 0.71103,-0.9101 1.06802,-1.35899c0.34705,-0.43642 0.6803,-0.85072 0.99597,-1.233c0.2865,-0.34694 0.52621,-0.66229 0.936,-1.07466c0.12097,-0.12172 0.21555,-0.20038 0.25201,-0.17551c0.03412,0.02325 0.00116,0.11415 -0.03601,0.2115c-0.04428,0.116 -0.10321,0.23639 -0.216,0.464c-0.04486,0.09048 -0.08133,0.16266 -0.1095,0.21899c-0.02115,0.04233 -0.03629,0.07268 -0.04648,0.093c-0.0062,0.01233 -0.00934,0.01866 -0.01068,0.02133c0,0 0,0 0,0c0,0 0,0 0,0c0,0 0,0 0,0c0,0 0,0 0,0c0,0 0,0 0,0c0,0 0,0 0,0c0,0 0,0 0,0c0,0 0,0 0,0c0,0 0,0 0,0c0,0 0,0 0,0c0,0 0,0 0,0c0,0 0,0 0,0c0,0 0,0 0,0c0,0 0,0 0,0c0,0 0,0 0,0c0,0 0,0 0,0c0,0 0,0 0,0c0,0 0,0 0,0c0,0 0,0 0,0c0,0 0,0 0,0c0,0 0,0 0,-0.66667c0,-0.74399 0.03098,-1.63284 0,-2.19733c-0.06259,-1.14114 -0.99551,-1.80959 -1.71201,-2.27068c-0.42834,-0.27567 -1.40775,-0.85472 -1.952,-1.12799c-0.5578,-0.28008 -1.11191,-0.64511 -2.93549,-1.03c-0.58917,-0.12434 -1.18759,-0.16026 -2.33801,-0.12401c-0.55527,0.0175 -1.6041,0.16112 -2.99866,0.29517c-0.80914,0.07777 -1.58459,0.10585 -2.379,0.117c-0.42215,0.00592 -1.87067,-0.00264 -2.42352,0.01117c-1.18454,0.02957 -1.80487,0.08316 -2.43198,0.17332c-0.63528,0.09134 -2.50662,0.63153 -3.08652,0.92767c-0.58502,0.29875 -1.14636,0.66496 -1.68149,1.08301c-1.1048,0.86305 -1.61383,1.38451 -2.14401,1.90132c-1.09302,1.06549 -1.63864,1.62849 -2.19733,2.18933c-0.55969,0.56184 -1.11469,1.12135 -1.6575,1.677c-0.53049,0.54305 -1.04431,1.06909 -1.52249,1.58701c-1.27002,1.37553 -1.61215,1.78809 -2.19601,2.54666c-0.51334,0.66693 -0.94104,1.30241 -1.54434,2.20866c-0.41028,0.61627 -0.84726,1.27893 -1.314,2.028c-0.82962,1.33145 -1.12863,1.85536 -1.44965,2.40068c-0.32867,0.55833 -0.97348,1.6665 -1.27734,2.18933c-0.2818,0.48485 -1.05887,1.78609 -1.41199,2.67067c-0.23822,0.59674 0.03357,1.72998 -1.01334,2.41066c-0.29831,0.19397 -1.16669,0 -2.08768,0c-0.70401,0 -1.87427,0.26807 -1.9285,0c-0.14691,-0.72636 0.68283,-1.33333 0.68283,-2.28c0,-0.56833 0,-1.18666 0,-1.845c0,-0.68834 0,-2.11501 0,-3.54167c0,-0.69083 0,-1.36667 0,-2.0325c0,-0.66083 0,-1.98749 0,-2.66333c0,-0.69083 -0.00095,-2.1375 0.00034,-2.90182c0.00134,-0.79034 0.00485,-1.60274 0.021,-2.433c0.01642,-0.84444 0.04373,-1.69904 0.09299,-2.55901c0.04941,-0.86276 0.21002,-2.57822 0.32852,-3.42216c0.11758,-0.83746 0.26257,-1.66516 0.41849,-2.4855c0.15512,-0.81602 0.32419,-1.62529 0.49051,-2.4315c0.16568,-0.80312 0.48608,-2.40369 0.62717,-3.20782c0.14432,-0.82253 0.28009,-1.68626 0.41699,-2.61c0.14865,-1.0029 0.30197,-2.10658 0.47101,-3.33c0.18835,-1.36325 0.63278,-4.59003 0.89682,-6.48367c0.28662,-2.05569 0.59189,-4.23502 0.90152,-6.50099c0.3161,-2.31337 0.62796,-4.63664 0.91949,-6.933c0.28299,-2.22903 0.75897,-6.338 0.9295,-8.15468c0.15665,-1.66879 0.27271,-3.2269 0.36298,-4.70699c0.08752,-1.43529 0.15234,-2.86133 0.21902,-4.311c0.06934,-1.50766 0.2334,-4.83322 0.34631,-6.71001c0.12146,-2.01923 0.26349,-4.16196 0.40802,-6.411c0.15018,-2.33694 0.30359,-4.74371 0.444,-7.203c0.14233,-2.49272 0.37982,-7.50873 0.46265,-10.00067c0.08249,-2.48141 0.13956,-4.96329 0.19202,-7.45499c0.05289,-2.51163 0.09793,-5.05342 0.15601,-7.63501c0.0592,-2.63174 0.22116,-8.08527 0.33731,-10.92066c0.11838,-2.88996 0.26007,-5.80746 0.40802,-8.72701c0.14676,-2.89579 0.30002,-5.74126 0.444,-8.51099c0.13867,-2.6676 0.37753,-7.59278 0.46265,-9.8105c0.0799,-2.08231 0.13934,-4.07495 0.19202,-6.0225c0.05267,-1.94745 0.09924,-3.94006 0.15601,-6.0225c0.06046,-2.21757 0.22336,-7.23769 0.33765,-10.11267c0.12271,-3.08637 0.2662,-6.32458 0.42902,-9.6555c0.16449,-3.36542 0.34192,-6.70577 0.53699,-9.9615c0.18655,-3.1136 0.57736,-8.6757 0.79083,-11.01883c0.18692,-2.05146 0.38245,-3.83438 0.58951,-5.373c0.17844,-1.32591 0.36432,-2.46063 0.5535,-3.429c0.16296,-0.83412 0.48843,-2.18753 0.63535,-2.75717c0.13196,-0.51165 0.25491,-0.96453 0.3645,-1.3605c0.09418,-0.34034 0.17465,-0.62533 0.23849,-0.8565l0.04681,-0.17817" id="svg_1" stroke-width="2" stroke="#000" fill="none"/>
  <path t="3427,3606,3607,3607,3607,3607,3607,3607,3607,3623,3623,3623,3623,3623,3624,3624,3624,3624,3641,3641,3641,3641,3642,3642,3642,3642,3642,3658,3659,3659,3659,3659,3659,3659,3660,3660,3691,3691,3692,3692,3692,3692,3692,3692,3692,3713,3714,3715,3715,3715,3715,3715,3715,3715,3723,3724,3724,3724,3725,3725,3725,3725,3725,3759,3760,3760,3760,3761,3761,3761,3761,3762,3774,3775,3775,3775,3775,3776,3776,3777,3777,3792,3792,3793,3793,3793,3794,3794,3795,3795,3806,3807,3807,3808,3808,3808,3808,3809,3809,3842,3843,3844,3845,3845,3845,3846,3846,3846,3859,3862,3862,3863,3863,3863,3864,3864,3864,3877,3879,3879,3879,3880,3880,3881,3881,3881,3904,3905,3905,3906,3906,3906,3907,3907,3908,3924,3925,3926,3926,3927,3927,3927,3928,3929,3944,3945,3945,3945,3946,3946,3946,3947,3947,3956,3957,3958,3958,3959,3959,3959,3960,3960,3988,3990,3990,3991,3991,3991,3992,3992,3992,4008,4010,4011,4011,4012,4012,4013,4013,4014,4023,4024,4025,4025,4026,4040,4057,4058,4059" d="m291,204c0,-11.66667 -0.01334,-12.52902 0.01349,-14.06517c0.01224,-0.7003 0.03998,-1.37302 0.09451,-2.0295c0.0545,-0.65598 0.12064,-1.32632 0.392,-2.73866c0.14932,-0.77721 0.35043,-1.59439 0.56699,-2.4525c0.22592,-0.89529 0.47437,-1.81842 0.729,-2.7675c0.26004,-0.96925 0.53494,-1.95021 1.03735,-3.94667c0.25113,-0.99797 0.48383,-1.99513 0.70499,-2.9865c0.21878,-0.98067 0.4231,-1.95038 0.61499,-2.9055c0.18805,-0.93591 0.36746,-1.85066 0.68002,-3.608c0.14853,-0.83504 0.28357,-1.64478 0.405,-2.433c0.11847,-0.76913 0.22461,-1.52477 0.315,-2.271c0.08954,-0.73914 0.17508,-1.4762 0.28,-2.96268c0.05331,-0.75533 0.08493,-1.52667 0.12299,-2.31749c0.03928,-0.81586 0.07986,-1.66203 0.14099,-2.54251c0.06396,-0.92123 0.12912,-1.89017 0.40268,-3.97333c0.14853,-1.13095 0.34946,-2.31087 0.5535,-3.5385c0.21057,-1.26704 0.4328,-2.56456 0.63449,-3.8895c0.20407,-1.34076 0.42825,-2.68985 0.64536,-5.40533c0.10733,-1.34248 0.13922,-2.67458 0.14249,-3.987c0.0032,-1.29037 -0.03256,-2.55489 -0.08249,-3.789c-0.04855,-1.20058 -0.12213,-2.36224 -0.22668,-4.55733c-0.04895,-1.02748 -0.08514,-2.02122 -0.10049,-2.997c-0.01532,-0.97359 -0.01086,-1.9615 0.01651,-2.979c0.02863,-1.0639 0.07248,-2.19048 0.25067,-4.69067c0.09988,-1.40154 0.23227,-2.88688 0.37198,-4.4325c0.14291,-1.58105 0.29477,-3.17166 0.444,-4.74751c0.14545,-1.53582 0.29379,-3.0057 0.51733,-5.65333c0.09561,-1.13245 0.16586,-2.14273 0.23251,-3.0465c0.06009,-0.81489 0.11453,-1.55839 0.1875,-2.2455c0.06909,-0.65059 0.13559,-1.28513 0.41333,-2.54134c0.14774,-0.66817 0.349,-1.35596 0.5625,-2.067c0.2197,-0.73168 0.4592,-1.47439 0.69751,-2.229c0.24002,-0.76006 0.49524,-1.51657 0.90665,-3.03734c0.20108,-0.74334 0.37042,-1.48775 0.51901,-2.2365c0.15018,-0.75666 0.27872,-1.53345 0.39301,-2.3355c0.11859,-0.8323 0.22781,-1.70437 0.42133,-3.59467c0.10513,-1.02717 0.20068,-2.10139 0.3045,-3.207c0.10553,-1.12373 0.21204,-2.25179 0.33148,-3.369c0.11697,-1.09413 0.21674,-2.15435 0.53067,-4.09067c0.14014,-0.86432 0.30991,-1.65642 0.48602,-2.3895c0.16568,-0.68955 0.34641,-1.33992 0.52197,-1.9665c0.17178,-0.61308 0.36188,-1.21766 0.65869,-2.47733c0.15579,-0.66121 0.28534,-1.3484 0.405,-2.049c0.12036,-0.70477 0.22382,-1.40882 0.315,-2.103c0.08868,-0.67519 0.16888,-1.32447 0.28,-2.51467c0.0491,-0.52598 0.08417,-1.0105 0.1095,-1.461c0.02383,-0.42419 0.03827,-0.83062 0.04648,-1.227c0.00815,-0.3943 0.01001,-0.79467 0.01068,-1.64533c0.00037,-0.464 0,-0.952 0,-1.458c0,-0.518 0,-1.042 0,-1.566c0,-0.518 0,-1.024 0,-1.976c0,-0.43567 0,-0.84533 0,-1.233c0,-0.36966 0,-0.72533 0,-1.071c0,-0.33966 0,-0.67733 0,-1.36267c0,-0.354 0,-0.712 0,-1.068c0,-0.348 0,-0.682 0,-0.996c0,-0.288 -0.00052,-0.544 0,-0.936c0.00018,-0.12717 -0.00143,-0.21785 0.009,-0.2835c0.00888,-0.05583 0.03259,-0.11237 0.06299,-0.1845c0.04224,-0.10021 0.11014,-0.2375 0.37051,-1.03584c0.12991,-0.39834 0.40298,-1.31997 0.67084,-2.29083c0.12674,-0.45945 0.42233,-1.74617 -0.02802,-2.344l-0.06448,-0.7155l-0.0195,-0.7605" id="svg_2" stroke-width="2" stroke="#000" fill="none"/>
  <path t="4449,4607,4607,4607,4608,4608,4608,4626,4626,4626,4626,4626,4626,4626,4660,4660,4660,4660,4660,4660,4674,4674,4674,4674,4674,4675,4675,4691,4691,4692,4692,4692" d="m257,208c9.01434,-2.85667 9.65964,-3.03391 10.28033,-3.17667c0.59543,-0.13696 1.74686,-0.35019 2.31601,-0.39999c1.7327,-0.15164 2.34647,-0.08716 2.97034,-0.054c0.63455,0.03374 1.91263,0.14996 2.54666,0.21599c0.6243,0.06502 2.38657,0.24907 2.92249,0.29384c1.00153,0.08366 1.48361,0.0889 2.40417,0.25417c0.93448,0.16777 1.90689,0.50471 2.92667,1.00534c0.54181,0.26599 1.08081,0.57179 2.14667,1.23199c0.52792,0.32701 1.03763,0.65756 2.42215,1.58701c0.40979,0.2751 1.15652,0.81299 1.83252,1.36499l0.62799,0.616" id="svg_3" stroke-width="2" stroke="#000" fill="none"/>
  <path t="5275,5475,5475,5475,5475,5475,5475,5475,5475,5500,5501,5501,5501,5501,5501,5501,5501,5501,5535,5535,5536,5536,5536,5558,5666,5675,5675,5675,5675,5686,5688,5689,5689,5689,5689,5689,5689,5689,5702,5702,5702,5702,5702,5704,5704,5704,5704,5725,5725,5725,5725,5725,5726,5726,5726,5726,5740,5741,5743,5743,5743,5743,5744,5744,5744,5757,5757,5757,5757,5758,5758,5758,5758,5758,5773,5774,5774,5774,5774,5775,5775,5775,5775,5856,5857,5857,5857,5857,5858,5858,5863,5864,5892,5892,5892,5893,5894,5894,5894,5894,5895,5907,5908,5910,5910,5910,5911,5911,5911,5911,5923,5924,5924,5925,5925,5925,5925,5926,5926" d="m316,31c-10.83334,-6.33333 -11.65085,-6.81307 -12.40668,-7.26267c-0.70746,-0.42083 -1.375,-0.82262 -2.00998,-1.2165c-0.61832,-0.38354 -1.83618,-1.16249 -3.08334,-2.02083c-0.66699,-0.45904 -1.35043,-0.94914 -2.04901,-1.4535c-0.70679,-0.51029 -1.40964,-1.02526 -2.103,-1.5345c-0.67593,-0.49644 -1.32306,-0.97777 -2.51465,-1.84533c-0.52405,-0.38153 -0.9996,-0.72191 -1.42502,-1.0245c-0.97406,-0.69282 -1.58066,-1.04713 -0.65134,-0.76367c0.55536,0.16939 1.35901,0.0135 2.01517,-0.05c0.87317,-0.0845 3.39447,-0.32874 5.09018,-0.4925c1.94965,-0.18828 4.09723,-0.39505 6.38699,-0.612c2.37558,-0.22508 4.78113,-0.45031 7.16101,-0.666c2.29745,-0.20823 6.42261,-0.56331 8.15201,-0.6935c1.50266,-0.11312 2.80368,-0.19837 3.92697,-0.2565c0.96881,-0.05013 1.80792,-0.0799 2.54102,-0.0945c0.65094,-0.01296 1.80301,-0.01198 2.34851,-0.014c0.53848,-0.002 1.07324,-0.00707 1.60648,-0.0315c0.53583,-0.02455 1.07721,-0.06651 1.62451,-0.1395c0.56088,-0.0748 1.72583,-0.32009 2.33282,-0.49233c0.62787,-0.17817 1.26276,-0.38935 1.90802,-0.6015c0.64941,-0.21352 1.29633,-0.4304 1.944,-0.6195c0.63516,-0.18545 1.87006,-0.46399 2.46198,-0.52967c0.56854,-0.06309 1.12003,-0.07651 1.65002,-0.0735c0.51004,0.00289 0.99991,0.0271 1.47,0.0345c0.44992,0.00708 1.29263,-0.03199 1.67966,-0.11067c0.37076,-0.07537 0.71527,-0.18868 1.02899,-0.3225c0.29364,-0.12525 0.55341,-0.26688 0.77701,-0.4125c0.19742,-0.12858 0.47873,-0.36115 0.55182,-0.45783c0.05164,-0.06831 0.07288,-0.13277 0.05252,-0.171c-0.01978,-0.03715 -0.16653,-0.18265 -0.74402,0.324c-0.50854,0.44617 -1.05527,1.43787 -1.49448,2.03967c-0.50867,0.69696 -1.07809,1.47286 -1.70551,2.307c-0.66541,0.88467 -1.36633,1.79917 -2.1015,2.721c-0.74081,0.92891 -2.24609,2.71066 -2.99918,3.52867c-0.72464,0.78712 -1.44717,1.52154 -2.15399,2.217c-0.68069,0.66974 -1.34955,1.30112 -1.992,1.911c-0.61884,0.58746 -1.78055,1.70856 -2.31134,2.25783c-0.51175,0.52959 -0.99136,1.05324 -1.44598,1.5645c-0.43796,0.49251 -0.85068,0.97467 -1.24802,1.4385l-0.38132,0.44683" id="svg_4" stroke-width="2" stroke="#000" fill="none"/>
  <path t="6840,7023,7024,7024,7024,7024,7024,7024,7041,7042,7042,7042,7042,7042,7042,7042,7073,7074,7074,7074,7124,7124,7124" d="m282,345c9.23584,0 9.94666,0 10.63751,0c0.67581,0 1.34164,0 2.0025,0c1.32666,0 2.69333,0 3.40216,0c0.72183,0 1.44965,0 2.17648,0c0.71884,0 2.10452,0 2.75735,0c1.19064,0 2.19064,0 2.99066,0c0.82498,0 1.33865,0 2.05417,0l0.7605,0" id="svg_5" stroke-width="2" stroke="#000" fill="none"/>
  <path t="7258,7440,7440,7440,7440,7440,7440,7440,7440,7441,7457,7457,7457,7457,7457,7457,7458,7458,7458,7473,7474,7474,7474,7474,7474,7474,7474,7474,7492,7493,7493,7493,7493,7493,7494,7494,7494,7528,7529,7529,7529,7529,7530,7530,7530,7530,7541,7542,7544,7544,7544,7544,7545,7545,7545,7557,7557,7558,7558,7558,7558,7559,7559,7559,7577,7577,7577,7577,7578,7578,7578,7578,7579,7629,7631,7631,7631,7631,7632,7632,7632,7632,7641,7641,7642,7642,7642,7643,7643,7643,7644,7652,7655,7655,7655,7656,7656,7656,7656,7657" d="m291,343c0,-9.83334 0,-10.78 0,-11.72665c0,-0.95667 0,-1.93335 0,-2.94c0,-1.04669 0,-2.14334 0,-3.30002c0,-2.53333 -0.00305,-3.9267 0.00534,-5.39999c0.00879,-1.54337 0.02805,-3.14691 0.078,-4.79999c0.05118,-1.69363 0.12097,-3.41843 0.258,-5.16c0.27625,-3.51089 0.52939,-5.2543 0.79868,-6.98935c0.26907,-1.73373 0.58609,-3.46005 0.92249,-5.18399c0.33694,-1.72678 0.7005,-3.45221 1.0575,-5.18399c0.71771,-3.48178 1.06467,-5.2363 1.392,-7.00134c0.32837,-1.77063 0.63837,-3.54941 0.92551,-5.33551c0.28754,-1.7886 0.55734,-3.58182 0.7905,-5.38049c0.46603,-3.59521 0.63608,-5.39954 0.80402,-7.21066c0.16949,-1.82788 0.31906,-3.68384 0.46799,-5.5755c0.15244,-1.93634 0.30011,-3.92743 0.46799,-5.9805c0.35431,-4.33292 0.57327,-6.62477 0.79733,-8.99333c0.22992,-2.43077 0.46985,-4.90881 0.69302,-7.422c0.22485,-2.53215 0.44333,-5.0699 0.603,-7.60201c0.31396,-4.97887 0.36594,-7.40643 0.40134,-9.784c0.0347,-2.33118 0.02795,-4.61868 0.01648,-6.864c-0.01126,-2.20535 -0.0397,-4.3727 -0.0285,-6.504c0.02191,-4.1629 0.10269,-6.19818 0.20267,-8.20267c0.09851,-1.97557 0.22977,-3.92027 0.36752,-5.83501c0.13565,-1.88525 0.28555,-3.73949 0.41248,-5.565c0.24744,-3.55905 0.32913,-5.29712 0.40002,-7.01866c0.07077,-1.71913 0.12491,-3.45073 0.1875,-5.20801c0.06403,-1.79739 0.12936,-3.64929 0.23248,-5.56799c0.22037,-4.10016 0.40332,-6.30116 0.60135,-8.59334c0.20438,-2.36554 0.43848,-4.7831 0.68698,-7.2345c0.25012,-2.46725 0.51324,-4.92982 0.77701,-7.36951c0.5119,-4.73497 0.76047,-6.99474 0.99466,-9.17599c0.2258,-2.10309 0.44,-4.12933 0.64502,-6.0795l0.19498,-1.87517l0.18503,-1.80116l0.17499,-1.72817" id="svg_6" stroke-width="2" stroke="#000" fill="none"/>
  <path t="8057,8173,8173,8173,8174,8174,8174,8174,8174,8174,8190,8191,8191,8191,8191,8191,8191,8191,8191,8206,8207,8207,8207,8207,8207,8207,8207,8208,8224,8224,8225,8225,8225,8225,8225,8225,8225,8260,8261,8261,8261,8261,8261,8262,8262,8262,8277,8278,8278,8278,8278,8279,8279,8279,8280,8291,8291,8291,8292,8292,8292,8292,8292,8293,8306,8307,8307,8307,8307,8308,8308,8308,8308,8342,8342,8343,8343,8343,8344,8344,8344,8344,8359,8360,8360,8361,8361,8361,8361,8361,8362,8386,8386,8387,8387,8387,8388,8388,8388,8389,8394,8394,8395,8395,8395,8396,8396,8396,8396,8428,8428,8429,8429,8429,8430,8430,8430,8430,8445,8445,8446,8446,8446,8446,8447,8447,8447,8473,8474,8474,8474,8475,8475,8475,8476,8476,8485,8485,8486,8486,8487,8487,8487,8488,8488,8517,8519,8519,8520,8521,8522,8523,8523,8523,8528,8529,8529,8530,8530,8531,8531,8531,8532,8540,8541,8542,8542,8542,8543,8543,8544,8544,8557,8557,8558,8558,8558,8559,8559,8559,8560" d="m300,327c0.33334,-13.66666 0.43405,-14.95895 0.57199,-16.23734c0.13773,-1.27634 0.30478,-2.55548 0.49051,-3.84601c0.18884,-1.31219 0.40079,-2.65112 0.62549,-4.026c0.47263,-2.89166 0.7338,-4.41907 0.996,-5.99866c0.26913,-1.6214 0.54254,-3.27582 0.81601,-4.9545c0.27585,-1.69333 0.55051,-3.39252 0.81601,-5.08951c0.52362,-3.34702 0.76486,-4.98334 0.99866,-6.59332c0.23053,-1.58734 0.45111,-3.1571 0.66449,-4.71301c0.21194,-1.54541 0.41791,-3.08511 0.61951,-4.62299c0.40442,-3.08493 0.60309,-4.6394 0.79868,-6.20001c0.19577,-1.56204 0.38574,-3.12213 0.561,-4.677c0.17404,-1.54382 0.33835,-3.07364 0.47098,-4.58699c0.25882,-2.95287 0.33301,-4.39125 0.40402,-5.80933c0.07062,-1.40961 0.12473,-2.82275 0.1875,-4.24951c0.06387,-1.45192 0.12897,-2.94048 0.23248,-4.4745c0.21976,-3.25658 0.40552,-4.99301 0.59735,-6.79733c0.19769,-1.85938 0.41791,-3.7583 0.62848,-5.68649c0.21213,-1.94249 0.42526,-3.88596 0.5835,-5.8215c0.30899,-3.77974 0.3663,-5.60817 0.39734,-7.38933c0.0303,-1.74063 0.0145,-3.44682 -0.02249,-5.1225c-0.03644,-1.65102 -0.09937,-3.28165 -0.1575,-4.89751c-0.11539,-3.20659 -0.16245,-4.80608 -0.19467,-6.40266c-0.0321,-1.59042 -0.05176,-3.17198 -0.06448,-4.7415c-0.0126,-1.55449 -0.01758,-3.091 -0.0195,-4.60651c-0.00372,-2.95599 -0.00134,-4.39316 -0.00134,-5.81332c0,-1.41617 0,-2.84134 0,-4.2885c0,-1.48218 0,-3.01234 0,-4.6035c0,-3.41734 0,-5.26468 0,-7.196c0,-1.99934 0,-4.05067 0,-6.138c0,-2.10735 0,-4.21867 0,-6.31801c0,-4.09866 0,-6.06934 0,-7.98399c0,-1.86267 0,-3.67734 0,-5.448c0,-1.73067 0,-3.42534 0,-5.088c0,-3.24535 0,-4.83534 0,-6.40533c0,-1.55 0,-3.08001 0,-4.59c0,-1.49001 0,-2.96 0,-4.41c0,-2.84 0,-4.23183 0,-5.61466c0,-1.38483 0,-2.78267 0,-4.20451c0,-1.45683 0,-2.95966 0,-4.5195c0,-3.33466 0,-5.126 0,-6.98533c0,-1.90533 0,-3.83467 0,-5.766c0,-1.91134 0,-3.78067 0,-5.58601c0,-3.33067 -0.00192,-4.81834 0.00266,-6.19199c0.00424,-1.27568 0.01297,-2.46945 0.039,-3.597c0.02487,-1.0778 0.06042,-2.12209 0.129,-3.147c0.13806,-2.06313 0.2673,-3.12605 0.39734,-4.21467c0.13254,-1.10974 0.28302,-2.23328 0.43201,-3.3675c0.14966,-1.13912 0.30365,-2.27728 0.43201,-3.4125c0.25229,-2.23141 0.33023,-3.32401 0.40134,-4.40133c0.07053,-1.0687 0.12448,-2.13612 0.1875,-3.207c0.06363,-1.08113 0.12793,-2.1792 0.23248,-3.297c0.21805,-2.33086 0.40442,-3.54742 0.59735,-4.796c0.19662,-1.27247 0.41669,-2.55566 0.62848,-3.8445c0.21088,-1.28316 0.42365,-2.55056 0.5835,-3.7995c0.30508,-2.38385 0.36429,-3.51252 0.40002,-4.588c0.03403,-1.02468 0.0282,-2.00003 0.01648,-2.925c-0.01111,-0.87504 -0.04074,-1.70009 -0.0285,-2.475c0.02213,-1.40069 0.10013,-2.02821 0.20267,-2.608c0.09662,-0.54637 0.23334,-1.056 0.36752,-1.542l0.13916,-0.466l0.13916,-0.452l0.13416,-0.444" id="svg_7" stroke-width="2" stroke="#000" fill="none"/>
  <path t="9016,9157,9157,9157,9157,9158,9158,9158,9158,9158,9174,9174,9175,9175,9175,9175,9175,9175,9175,9191,9191,9191,9191,9192,9192,9192,9192,9192,9208,9208,9208,9208,9208,9209,9209,9209,9209,9242,9242,9243,9243,9243,9243,9244,9244,9244,9257,9257,9258,9258,9258,9258,9259,9259,9260" d="m300,344c0.33334,-12 0.43558,-13.20267 0.57199,-14.41467c0.1391,-1.23572 0.30716,-2.50314 0.49051,-3.81448c0.19116,-1.36737 0.40488,-2.7995 0.62549,-4.30951c0.48132,-3.29428 0.73584,-5.09698 0.996,-6.996c0.2713,-1.98029 0.54388,-4.02899 0.81601,-6.13199c0.27722,-2.14233 0.55167,-4.31082 0.81601,-6.492c0.52597,-4.3403 0.76587,-6.47629 0.99731,-8.58401c0.22852,-2.08096 0.44403,-4.13828 0.64502,-6.17398c0.19894,-2.01495 0.38663,-4.01208 0.55499,-5.99402c0.33313,-3.92157 0.46967,-5.86734 0.60001,-7.80267c0.12964,-1.92468 0.24472,-3.83975 0.345,-5.745c0.09973,-1.89474 0.18726,-3.77972 0.255,-5.655c0.1344,-3.71951 0.16931,-5.56757 0.20132,-7.42133c0.03238,-1.87561 0.052,-3.78932 0.06448,-5.757c0.01294,-2.03764 0.01761,-4.16133 0.0195,-6.38699c0.00409,-4.82133 0.00134,-7.44301 0.00134,-10.19467c0,-2.86166 0,-5.81332 0,-8.83499l0,-3.07167l0,-3.10167l0,-3.11166" id="svg_8" stroke-width="2" stroke="#000" fill="none"/>
 </g>
 <g display="none">
  <title>muse_image</title>
  <image xlink:href="http://farm4.static.flickr.com/3066/3027997812_c32cfd7453.jpg" id="muse" height="480" width="298" y="0" x="171"/>
 </g>
 <g display="none">
  <title>bbox</title>
  <rect stroke="#f00" fill="none" stroke-width="3" height="444.48" width="174.39228" y="9.6" x="229.45016" id="bbox"/>
 </g>
</svg>
