<svg width="640" height="480" xmlns="http://www.w3.org/2000/svg" xmlns:svg="http://www.w3.org/2000/svg" xmlns:xlink="http://www.w3.org/1999/xlink">
 <!-- Sketchy ANNOTATION
  ImageNet ID: n03272010_9557
  URL: http://farm2.static.flickr.com/1246/960184912_562762b8f6.jpg
  Image Width: 375
  Image Height: 500
  BBox X: 51
  BBox Y: 23
  BBox Width: 300
  BBox Height: 451
  Exposure: 2000ms
  Synset Label: guitar
  Synset ID: n03467517
  Worker Tag: black electric guitar
  Sanity Check: 
   Saved
  Comment: 
   {}
  Worker ID: AXD2DZ7U6CK35
  Assignment ID: 3PB5A5BD0V6G505TRXDBP59POSZG7O
  HIT ID: 3P6ENY9P79WP7WJ64SUOCAGEDI3IH6
  Work Time: 53s
  Worker Score: 0.6940
 END ANNOTATION -->
 <g display="inline">
  <title>Layer 1</title>
  <path t="0,8,8,9,9,9,23,23,38,38,55,56,72,72,73,88,89,89,89,89,105,105,105,122,122,122,138,138,155,155,155,172,172,172,173,188,189,189,205,205,205,222,222,238,238,239,255,256,272,272,288,288,305,305,305,322,322,338,338,355,355,372,372,373,388,388,388,405,405,422,422,438,438,438,455,455,455,455,455,472,472,472,472,488,488,552,553" d="m213,258c0.44267,7.91351 0.53737,8.46414 0.85066,9.42401c0.27234,0.83438 0.65045,1.49039 1.03951,2.70898c0.23502,0.73611 0.50478,1.50885 0.75717,2.27151c0.32394,0.97888 0.2836,1.81876 0.57449,2.79584c0.25899,0.86993 0.57506,1.32837 1.32083,2.44232c0.44962,0.6716 0.95811,1.35678 1.20667,1.70667c0.48419,0.68161 1.27708,1.88263 1.72984,2.60901c0.39975,0.64133 1.00482,1.44165 1.52083,2.04166c0.51601,0.60001 1.10486,1.4072 1.62534,2.20001c0.53011,0.80746 1.02184,1.40936 1.58533,2c0.77579,0.81314 1.38933,1.39999 1.98933,2c0.40001,0.39999 1.2,1.19998 1.8,1.79999c0.60001,0.60001 1.38846,1.41086 2,1.97916c0.58913,0.54745 1.38834,1.15543 2,1.5c0.98235,0.55344 1.61443,0.78732 2.34283,1.22086c0.93059,0.55383 1.52681,1.07446 2.49316,1.27466c0.75703,0.15683 1.77124,0.36603 2.364,0.63599c1.01312,0.46136 1.78407,0.91403 2.40001,1.104c0.98013,0.30231 1.79999,0.28308 2.79999,0.28534c0.8,0.0018 1.8,0 2.60001,0c1,0 1.81067,0.00058 2.68533,0c0.99867,-0.00067 1.81995,0.02759 2.63066,-0.08533c1.00748,-0.14032 1.86897,-0.47552 2.66267,-1.01468c0.67618,-0.45932 1.3446,-0.99792 2.08383,-1.44165c0.71091,-0.4267 1.58322,-0.99707 2.24734,-1.46817c0.71414,-0.50659 1.07385,-0.77777 1.8075,-1.3075c1.05847,-0.76428 1.71738,-1.21973 2.32016,-1.64102c0.79169,-0.55331 1.59317,-1.15765 2.31067,-1.79431l0.57285,-0.56851l0.63733,-0.65799" id="svg_1" stroke-width="2" stroke="#000" fill="none"/>
  <path t="1286,1344,1368,1392,1412,1423,1424,1440,1457,1472,1472,1472,1489,1489,1506,1506,1522,1522,1522,1539,1539,1556,1556,1572,1572,1572,1589,1589,1589,1606,1606,1622,1622,1622,1639,1639,1639,1656,1656,1672,1672,1672,1689,1689,1689,1689,1706,1706,1706,1722,1722,1739,1739,1756,1756,1772,1772,1772,1772,1789,1789,1806,1806,1806,1822,1822,1839,1839,1856,1856,1856,1872,1872,1872,1889,1889,1889,1906,1906,1922,1922,1939,1939,1939,1956,1956,1956,1972,1972,1989,1989,2006,2006,2006,2022,2044,2044,2044,2060,2072,2104,2104,2132,2140,2156,2233,2356,2380,2396,2412,2424,2448,2448,2456,2500,2508,2522,2539,2556,2557,2557,2572,2572,2590,2590,2607,2607,2607,2623,2623,2639,2656,2657,2672,2673,2689,2706,2707,2722,2739,2757,2757,2773,2789,2789,2806,2822,2822,2839,2839,2856,2856,2872,2889,2907,2907,2907,2923,2923,2940,2956,2956,2972,2972,2972,2988,2989,3006,3022,3022,3039,3039,3056,3056,3072,3072,3072,3088,3105,3105,3122,3122,3122,3138,3138,3155,3155,3155,3171,3171,3171,3188,3205,3205,3206,3221,3221,3221,3238,3238,3255,3255,3256,3256,3271,3271,3272,3288,3289,3289,3305,3305,3321,3321,3321,3338,3338,3338,3356,3356,3356,3371,3372,3372,3372,3372,3388,3389,3389,3405,3405,3421,3422,3422,3438,3439,3439,3456,3456,3456,3471,3472,3488,3488,3489,3506,3506,3506,3506,3522,3522,3522,3522,3538,3539,3539,3539,3556,3556,3572,3572,3572,3572,3589,3589,3589,3589,3606,3606,3622,3622,3638,3639,3639,3656,3656,3656,3672,3672,3672,3672,3689,3689,3706,3706,3722,3722,3738,3756,3756,3756,3771,3772,3789,3789,3806,3806,3822,3823,3839,3839,3855,3856,3872,3872,3872,3872,3889,3889,3906,3906,3906,3922,3922,3922,3939,3939,3939,3956,3956,3956,3956,3956,3972,3972,3972,3972,3972,3989,3989,3989,3989,4006,4006,4006,4006,4022,4022,4022,4023,4039,4039,4039,4039,4039,4056,4056,4056,4072,4072,4072,4089,4089,4089,4106,4106,4106,4106,4122,4122,4122,4122,4139,4139,4139,4139,4156,4156,4156,4172,4172,4172,4172,4189,4189,4189,4189,4206,4206,4206,4222,4222,4222,4239,4239,4239,4256,4256,4256,4271,4272,4272,4272,4289,4289,4289,4306,4306,4306,4322,4322,4323,4323,4339,4340,4340,4359,4360,4360,4376,4391" d="m212,259c-0.80133,-1.99734 -1.72769,-2.18842 -2.60001,-1.96399c-0.86621,0.22287 -1.60089,0.98611 -2.04283,1.664c-0.47845,0.73392 -0.84428,1.54227 -1.19049,2.46664c-0.23994,0.64066 -0.18021,1.45667 -0.52383,2.43335c-0.28946,0.82269 -0.78412,1.58163 -1.12201,2.39999c-0.40488,0.98056 -0.50163,1.79944 -0.5195,2.60001c-0.02231,0.99976 0.01878,1.8002 -0.00266,2.80133c-0.0179,0.83517 -0.15302,1.76834 -0.35133,2.55133c-0.20906,0.82538 -0.51321,1.8764 -0.59018,2.59018c-0.09158,0.84937 -0.05716,1.85849 -0.05716,2.69315c0,0.93066 0,1.71667 0,2.53867c0,1.05869 0,1.76819 0,2.62085c0,1.00583 0,1.84048 0,2.77115c0,0.7905 0,1.64401 0,2.83334c0,0.60001 0,1.5 0,2.39999c0,1.19733 -0.00151,1.77869 0,2.58566c0.00226,1.2045 0.04144,1.91431 0.436,2.85034c0.32941,0.78146 0.78117,1.55731 1.164,2.39999c0.41898,0.92227 0.69946,1.71686 0.89999,2.26401c0.29919,0.81631 0.68716,1.82065 1.10001,2.68933c0.38802,0.81647 0.76457,1.6207 1.2,2.32535c0.46762,0.75674 1.09026,1.36444 1.68399,1.97064c0.52037,0.53128 1.36197,1.50616 1.76334,2.11469c0.39046,0.59198 1.06883,1.6044 1.578,2.19998c0.51678,0.60449 1.14726,1.40396 1.54933,1.98935c0.5018,0.73056 1.27635,1.45599 1.8,1.79999c0.9384,0.61649 1.57913,1.16672 2.14684,1.73218c0.70071,0.69794 1.27983,1.27982 1.87833,1.87833c0.58951,0.58951 1.12585,1.16058 1.91617,1.91483c0.62346,0.595 1.36227,1.09845 2.09467,1.48535c0.98003,0.5177 1.60071,0.76242 2.304,1.19998c0.89035,0.55396 1.64787,1.20688 2.31067,1.60001c0.68648,0.40717 1.47815,1.09567 2.27467,1.47867c0.85161,0.40952 1.55371,0.91632 2.39999,1.10049c0.86954,0.18924 1.3759,0.75278 2.14734,1.01636c0.82658,0.28241 1.75266,0.00449 2.65266,0.00449c0.89999,0 1.8,0 2.7,0c0.8,0 1.42899,0.37064 2.2215,0.87851c0.74658,0.47842 1.49098,0.60278 2.14017,1.06882c0.6778,0.48654 1.66125,0.56921 2.23967,0.854c0.99783,0.49127 1.77914,0.84491 2.51466,1.39999c0.67462,0.50912 1.34836,1.30499 1.90483,1.77783c0.56042,0.4762 1.58911,0.85376 2.32201,1.069c1.04807,0.3078 1.65717,0.95184 2.25717,1.55185c0.60001,0.60001 1.19992,1.20004 1.89999,1.89999c0.59998,0.59988 1.21445,1.1105 2.10001,1.52533c0.81433,0.38147 1.50079,1.07388 2,1.57468c0.69662,0.69885 1.13892,1.43594 1.48401,2.19998c0.34695,0.76816 1.05792,1.49945 1.39514,2.20001c0.45847,0.95248 0.53799,1.76529 0.8735,2.65268c0.26685,0.70581 0.53821,1.59473 0.64868,2.54865c0.11267,0.97287 0.47769,1.61636 0.71466,2.39999c0.29517,0.97607 0.17441,1.74844 0.29468,2.77335c0.11304,0.96338 0.57178,1.62189 0.82266,2.62534c0.19662,0.78638 0.16599,1.60001 0.16666,2.59549c0.00052,0.74734 0,1.77917 0,2.72583c0,0.67868 0,1.65735 0,2.43134c0,0.909 0,1.70901 0,2.66852c0,0.79349 0,1.80948 0,2.76898c0,0.9765 -0.05347,1.84467 0.16666,2.80984c0.13968,0.61246 0.56754,1.38077 0.74802,2.40134c0.14594,0.8252 0.07251,1.7655 0.08981,2.55133c0.0181,0.82239 0.12167,1.89304 0.42084,2.80066c0.19589,0.59427 0.55353,1.63156 0.57468,2.58002c0.01508,0.67633 -0.04062,1.46442 0.16666,2.5c0.18961,0.94714 0.54697,1.54675 0.74933,2.56799c0.16364,0.82574 0.2301,1.77057 0.44119,2.55582c0.23114,0.85983 0.44,1.44559 0.84283,2.64151c0.29694,0.88153 0.47455,1.45438 0.89999,2.47983c0.37766,0.91028 0.70895,1.51575 1.19998,2.526c0.30563,0.62881 0.70578,1.56 1,2.34818c0.30603,0.81976 0.68784,1.88596 1,2.59018c0.28882,0.65155 0.78836,1.66385 1.12134,2.27847c0.37949,0.7005 0.90729,1.51529 1.34668,2.14667c0.47757,0.68625 0.98853,1.37631 1.46399,2.06403c0.63486,0.91821 1.05621,1.72198 1.51617,2.30182c0.66739,0.84134 1.49561,1.2189 2.23065,1.98767c0.45316,0.47394 0.96014,1.31042 1.56384,1.87851c0.67584,0.63599 1.26163,0.94104 2.12399,1.79999c0.56177,0.55954 1.01645,1.4082 1.65485,1.97849c0.64142,0.573 1.67523,1.02817 2.28299,1.3215c0.84821,0.40936 1.81683,0.80109 2.35718,1.00452c0.88446,0.33298 1.53247,0.56354 2.55951,1.017c0.73251,0.32343 1.46835,0.68073 2.16898,1.08301c0.99188,0.56952 1.79852,1.18729 2.26819,1.57465c0.64316,0.53049 1.6438,1.27216 2.27765,1.64618c0.92725,0.54715 1.44513,0.86557 2.28485,1.37466c0.58078,0.35211 1.77408,0.98987 2.37466,1.24283c0.86176,0.36295 1.42572,0.54001 2.64282,1.05267c0.61841,0.2605 1.58365,0.59848 2.431,0.78851c0.80496,0.18054 1.55756,0.4202 2.34799,0.71732c1.00815,0.37897 1.70532,0.71585 2.45203,1.08401c0.87527,0.43155 1.52686,0.77252 2.54398,1.25333c0.63049,0.29803 1.62051,0.76511 2.43033,0.85233c0.90836,0.09781 1.87088,0.04733 2.65503,0.293c0.78122,0.24472 1.71472,0.67331 2.76797,0.716c0.66879,0.0271 1.43527,-0.03058 2.43335,0.00449c0.80124,0.02814 1.79251,0.30099 2.60001,0.57019c0.99133,0.33047 1.77899,0.41489 2.77866,0.42532c0.77396,0.00806 1.6785,0 2.42584,0c0.99817,0 1.86749,0 2.92883,0c0.63333,0 1.64581,0 2.30417,0c1.09833,0 2.00253,0.00644 2.90549,-0.00015c0.72906,-0.00534 1.57352,-0.00952 2.75684,-0.22119c0.60043,-0.10739 1.45468,-0.3963 2.53351,-0.612c0.71335,-0.14261 1.68231,-0.18411 2.80981,-0.38849c0.67987,-0.12323 1.42456,-0.32486 2.22302,-0.59702c0.42474,-0.14478 1.75992,-0.71402 2.68198,-1.18649c0.46909,-0.24039 1.38889,-0.74695 1.84201,-0.98932c1.27203,-0.68039 2.03384,-1.04739 2.73782,-1.33334c0.64603,-0.26242 1.87378,-0.66678 2.47202,-0.87332c0.90274,-0.31168 1.51971,-0.51569 2.70016,-1.12018c0.61533,-0.31509 1.21884,-0.70242 1.85699,-1.08301c1.00662,-0.60034 1.72302,-0.99881 2.45749,-1.38483c0.72162,-0.37924 1.41888,-0.71967 2.616,-1.32666c0.75031,-0.38046 1.46103,-0.75317 2.19052,-1.20551c0.80371,-0.49835 1.37683,-0.82431 2.24548,-1.6785c0.56989,-0.56039 0.92896,-1.25049 1.66669,-2c0.63669,-0.64685 1.20258,-1.0083 2.06934,-1.60001c0.89151,-0.60861 1.49731,-1 2.09732,-1.39999c0.60001,-0.39999 1.79889,-1.20126 2.39551,-1.59549c0.58273,-0.38507 1.41519,-0.92581 2.18317,-1.38333c0.69244,-0.41254 1.39825,-0.79999 2.34283,-1.56384c0.55035,-0.44507 1.08051,-0.98047 1.68298,-1.452c1.1608,-0.90848 1.78961,-1.19836 2.37466,-1.4845c0.8335,-0.40762 1.85361,-0.98447 2.5,-1.54169c0.42883,-0.36966 1.21164,-1.18851 1.82083,-1.76849c0.59122,-0.56287 1.39789,-1.19263 2.20001,-1.71066c0.59842,-0.38647 1.40274,-0.9837 2.02084,-1.52084c0.66599,-0.57874 1.397,-1.18387 2.2045,-1.77914c0.54697,-0.40323 1.11472,-0.77087 2.08932,-1.60001c0.68192,-0.58014 1.07852,-1.00235 1.8855,-1.80002c0.60876,-0.60175 1.24222,-1.2179 1.96649,-1.79999c0.77078,-0.61945 1.33917,-0.99216 1.88068,-1.39999c1.04242,-0.7851 1.72552,-1.38138 2.10599,-1.80002c0.87177,-0.95932 1.20001,-1.58932 1.56003,-2.31467l0.26581,-0.96448l-0.00049,-0.94217" id="svg_2" stroke-width="2" stroke="#000" fill="none"/>
  <path t="6050,6133,6141,6141,6158,6174,6189,6189,6189,6206,6206,6206,6222,6222,6222,6222,6239,6239,6256,6256,6256,6272,6289,6289,6289,6316,6377,6392,6406,6422,6422,6439,6439,6456,6456,6456,6456,6472,6472,6472,6489,6489,6507,6507,6522,6522,6544,6544,6564,6580,6580,6589,6769,6774,6789,6836,6848,6864,6864,6872,6905,6932,6940,7197,7204,7212,7223,7239,7256,7256,7272,7272,7272,7289,7289,7289,7306,7306,7322,7322,7339,7339,7339,7356,7356,7356,7371,7372,7372,7389,7389,7412,7412,7412" d="m267,290c1.2215,0.87866 2.21835,1.11462 2.64282,1.7045c0.56876,0.79041 0.828,1.6814 1.35718,2.46216c0.44058,0.65005 0.72452,1.26205 1.3215,2.03351c0.48862,0.63141 1.10718,1.23755 1.87833,2.22116c0.40872,0.52136 0.97363,1.34732 1.31485,1.89468c0.61594,0.9881 1.03424,1.63431 1.31866,2.68399c0.20972,0.77399 0.1109,1.5881 0.61331,2.37466c0.5762,0.90204 1.24857,1.2373 1.84351,1.97266c0.58969,0.72882 0.99219,1.60995 1.90985,1.65268c0.89902,0.04184 1.867,0.20569 2.5,-0.11432c0.76584,-0.38718 1.12885,-1.34357 1.79999,-1.88568c0.81531,-0.6586 1.51672,-0.98697 2.19916,-1.34283c0.96182,-0.50156 1.79379,-0.87836 2.44351,-1.24649c0.8522,-0.48285 1.42465,-1.03391 2.16183,-1.71066c0.56458,-0.51831 1.36212,-0.97668 2.04282,-1.40002c0.91534,-0.56927 1.45135,-1.09998 2.15268,-1.79999c0.70001,-0.69867 1.43707,-0.98126 2.14282,-1.55267c0.73065,-0.59158 1.2963,-1.16229 1.35718,-2.03134c0.06403,-0.91376 0.1543,-1.83224 1,-1.91599c0.79608,-0.07883 1.42892,-0.3707 2.2215,-0.87851c0.74673,-0.47845 2.01093,0.31277 2.61185,-0.28815c0.60092,-0.60092 -0.14832,-1.58292 -0.74933,-2.11734c-0.64606,-0.57449 -1.28549,-1.00418 -1.89835,-1.47766c-0.72693,-0.56165 -1.45746,-1.0477 -2.18033,-1.64285c-0.69318,-0.57071 -1.15161,-1.22583 -1.75351,-1.93832c-0.68817,-0.81461 -1.3027,-1.06262 -2.23032,-1.75732c-0.65039,-0.48706 -1.11499,-1.2254 -1.54236,-1.92068c-0.35892,-0.58395 -1.13016,-1.58484 -1.5,-1.97916c-0.57111,-0.60892 -1.39001,-1.38846 -1.95831,-2c-0.54745,-0.58911 -1.1355,-1.39999 -1.61017,-2.20001l-0.41068,-0.79999l-0.39999,-0.78934l-0.39999,-0.72534" id="svg_3" stroke-width="2" stroke="#000" fill="none"/>
  <path t="8306,8413,8417,8433,8433,8441,8459,8473,8473,8489,8507,8522,8522,8539,8539,8539,8556,8556,8556,8556,8572,8572,8589,8589,8589,8606,8606,8622,8639,8656,8656,8672,8672,8690,8706,8722,8722,8739,8740,8756,8756,8772,8772,8789,8789,8806,8806,8806,8822,8839,8839,8856,8856,8856,8872,8872,8872,8889,8889,8922,8922,8922,8939,8939,8939,8956,8956,8957,8975,8975,8975,8992,9009,9025,9039,9039,9059,9075,9123,9132,9144,9179,9272,9348,9364,9384,9408,9423,9423,9443,9454,9471,9471,9488,9488,9507,9507,9507,9521,9540,9554,9555,9574,9574,9588,9604,9604,9623,9655,9672,9691,9788,9896,9991,10007,10035,10059,10071,10088,10104,10121,10138,10154,10171,10171,10188,10188,10204,10204,10221,10222,10238,10254,10254,10254,10272,10289,10289,10289,10305,10305,10322,10322,10322,10339,10339,10339,10355,10355,10372,10372,10389,10389,10404,10405,10421,10422,10439,10439,10439,10455,10472,10472,10488,10507,10507,10532,10547,10583,10652,10677,10736,10756,10808,10832,10848,10848,10856,10888,10906,10923,10923,10940,10940,10956,10956,10973,10973,10990,10990,11006,11006,11006,11006,11023,11023,11040,11040,11040,11056,11056,11056,11073,11073,11073,11090,11090,11106,11106,11106,11123,11123,11140,11140,11141,11156,11156,11173,11173,11190,11190,11206,11206,11223,11223,11223,11240,11240,11240,11240,11256,11256,11256,11273,11273,11290,11290,11290,11290,11306,11306,11306,11307,11307,11323,11323,11323,11340,11340,11340,11340,11357,11357,11357,11357,11357,11373,11373,11373,11390,11390,11390,11406,11406,11407,11424,11424,11439,11439,11454,11455,11455,11473,11473,11473,11490,11490,11490,11506,11506,11507,11507,11522,11523,11539,11539,11539,11539,11556,11556,11556,11573,11573,11573,11588,11589,11589,11606,11606,11606,11606,11623,11623,11623,11623,11640,11640,11655,11655,11655,11673,11673,11673,11690,11690,11690,11704,11705,11705,11723,11723,11740,11740,11755,11755,11771,11772,11788,11804,11805,11822,11822,11838,11839,11839,11854,11871,11872,11888,11889,11905,11905,11921,11922,11942,11942,11958,11958,11958,11975,11992,12008,12055,12061,12074" d="m296,281c0.20001,0 1.15347,-0.18137 2,0.16666c0.67108,0.27591 1.53632,0.76038 2.29999,1.186c0.74173,0.41339 1.47592,0.77295 2.30002,1.22202c0.78967,0.4303 1.7215,0.42532 2.42084,0.42532c0.97916,0 1.80048,0 2.74982,0c0.87201,0 1.88,0 2.57867,0c0.68268,0 1.88,0 2.60901,0c1.04166,0 1.84164,0 2.64166,0c0.99548,0 1.9147,0.00558 2.87915,0c0.9209,-0.00534 1.7052,-0.30865 2.40619,-0.80133c0.74561,-0.52405 1.5206,-0.81204 2.09381,-1.69867c0.47934,-0.74142 0.93289,-1.48734 1.01636,-2.25717c0.09702,-0.89478 0.00449,-1.84415 0.00449,-2.84283c0,-0.79999 0,-1.79999 0,-2.60001c0,-1 0,-1.79999 0,-2.79999c0,-0.78934 0.10715,-1.5228 -0.02084,-2.5c-0.10983,-0.83859 -0.56097,-1.5206 -0.8125,-2.66666c-0.17026,-0.77576 -0.12601,-1.61893 -0.33331,-2.66669c-0.14151,-0.71524 -0.54022,-1.48755 -0.78067,-2.41849c-0.18268,-0.70718 -0.40063,-1.7674 -0.59433,-2.28983c-0.32242,-0.86972 -0.77646,-1.75989 -1.27301,-2.64767c-0.32202,-0.57579 -0.8765,-1.63658 -1.07999,-2.3535c-0.23984,-0.84492 -0.48917,-1.70566 -1.12619,-2.4155c-0.45709,-0.50934 -1.5213,-0.95464 -2.00449,-1.65234c-0.50656,-0.73149 -1.07547,-1.48853 -1.57468,-1.98933c-0.69662,-0.69887 -0.85471,-1.70016 -1.62149,-2.27849c-0.70795,-0.53394 -1.38751,-0.62869 -2.13568,-1.06435c-0.72894,-0.42445 -1.80066,-0.42763 -1.64148,-1.25583c0.1557,-0.81004 1.34872,-0.66965 2.09866,-1.02266c0.77551,-0.36504 1.50986,-0.66139 2.42084,-0.7995c0.98718,-0.14966 1.63055,-0.62666 2.5965,-0.89517c0.68008,-0.18904 1.65067,-0.368 2.38266,-0.584c0.73199,-0.216 1.82751,-0.48199 2.8045,-0.5c0.862,-0.01588 1.6955,0 2.67398,0c0.82019,0 1.6575,0 2.67419,0c0.69464,0 1.71133,-0.00069 2.64731,0c0.89868,0.00067 1.43884,0.60832 2.13602,0.964c0.76645,0.39104 1.43488,0.75261 2.13867,1.02533c0.86331,0.33453 1.58539,0.4409 2.14133,1.09467c0.52228,0.61418 0.9505,1.38815 1.67334,1.89067c0.67267,0.46765 0.96313,1.32967 1.61066,2.02533c0.59573,0.64001 1.09409,1.32486 1.5,2c0.59143,0.9837 1.09732,1.59198 1.70001,2.2c0.59735,0.60263 1.24841,1.17464 1.79999,1.96667c0.44037,0.63237 0.7836,1.36102 1.39999,2.20799c0.58469,0.80339 1.0567,1.43608 1.31467,2.22665c0.31808,0.97485 0.27103,1.81665 0.57068,2.80002c0.19318,0.63397 0.53986,1.27481 0.91333,2.28265c0.29984,0.80911 0.55087,1.62561 0.71732,2.62933c0.13855,0.83566 0.45563,1.75961 0.80002,2.57068c0.31543,0.74283 0.27731,1.53619 0.56799,2.51599c0.2421,0.81604 0.63635,1.79587 0.69516,2.60001c0.07294,0.99756 0.02084,1.78934 0.02084,2.51468c0,1.11066 -0.00217,1.96933 0,2.83264c0.00226,0.89551 0.33691,1.68393 0.716,2.45267c0.41684,0.84525 0.27859,1.80005 0.284,2.70001c0.00534,0.8894 0.72559,1.37393 0.98932,2.11066c0.29977,0.83737 -0.12204,1.79984 0.01517,2.68933c0.14368,0.9314 0.47757,1.63705 1.04819,2.34283c0.59109,0.73108 1.30365,1.12711 2.04733,1.57886c0.68988,0.41907 1.08487,1.27133 1.5,1.95297c0.58041,0.95303 1.13715,1.55099 1.884,2.02536c0.67371,0.42792 1.49557,0.89917 2.17734,1.43597c0.67276,0.52972 1.3428,1.02524 2.12399,1.53867c0.5282,0.34717 1.52396,0.94998 2.19382,1.3045c1.01294,0.53607 1.64429,0.78622 2.42084,1.27802c0.82703,0.52377 1.38763,1.08273 2,1.59015c0.78464,0.65018 1.59613,1.13925 2.20001,1.45135c0.99374,0.51358 1.79999,0.90134 2.60001,1.30133c0.79999,0.39999 1.39999,0.69998 2.39999,1.19998c0.60001,0.30002 1.60001,0.80002 2.39999,1.20001c0.60001,0.29999 1.58548,0.83069 2.20001,1.064c0.97992,0.37201 1.82074,0.2962 2.77866,0.65735c0.82666,0.31168 1.68402,0.69238 2.42584,0.83133c1.00769,0.18872 1.64072,0.48157 2.36615,0.83398c0.8764,0.42575 1.53467,0.76602 2.22934,1.11334c1.03201,0.51599 1.957,0.97852 2.728,1.36401c0.66299,0.33151 1.68594,0.81238 2.272,1.15683c1.02628,0.60321 1.60971,1.14001 2.04166,1.52081c0.73016,0.64368 1.59903,1.38217 2.26367,1.91101c0.3443,0.27396 1.04913,0.81558 1.72668,1.36334c0.93228,0.75372 1.70163,1.4537 2.18265,1.87332c0.94226,0.82196 1.47079,1.21182 2.02133,1.62134c0.86871,0.64621 1.76965,1.34949 2.36267,1.87201c0.59644,0.52551 1.15216,1.07117 1.716,1.54797c0.97787,0.82693 1.67847,1.22781 2.284,1.65201c0.82123,0.57526 1.40591,1.13348 2.00134,1.71866c0.80493,0.79105 1.37915,1.37784 1.91467,1.91336c0.73267,0.73267 1.23798,1.23798 1.96933,1.96933c0.51599,0.51599 1.34933,1.34933 1.89066,1.89066c0.50934,0.50934 1.29184,1.27829 1.836,1.87201c0.39758,0.43378 1.19891,1.43109 1.57867,1.98932c0.38586,0.5672 1.05591,1.75854 1.32532,2.36133c0.3815,0.85361 0.63547,1.65823 1.08667,2.436c0.39377,0.67877 1.13016,1.72531 1.44684,2.32916c0.34225,0.65259 0.72296,1.30951 1.10901,2.59467c0.23083,0.7684 0.25006,1.49921 0.46432,2.46417c0.18039,0.81235 0.47119,1.63062 0.87833,2.6575c0.2814,0.70978 0.60144,1.42038 0.77884,2.564c0.10278,0.66263 0.10458,1.37943 0.17401,2.10901c0.13608,1.43002 0.27811,2.09424 0.55798,3.0015c0.17438,0.56528 0.57651,1.56732 0.98935,2.436c0.388,0.81647 0.83313,1.60583 1.04282,2.26782c0.29977,0.94644 0.30991,1.7811 0.40985,2.64734c0.13837,1.19922 0.3056,1.78961 0.522,2.65952c0.26556,1.06763 0.39258,1.77768 0.42084,2.6315c0.03323,1.00394 0.01767,1.8046 0.00433,2.80432c-0.01041,0.77954 -0.29306,1.74344 -0.64719,2.55283c-0.38028,0.86914 -0.24329,1.66739 -0.70984,2.49017c-0.48993,0.86401 -1.19339,1.24249 -1.74283,2.07867c-0.44241,0.67331 -0.90762,1.67477 -1.1955,2.27399c-0.35684,0.74283 -0.61493,1.79758 -0.87115,2.57117c-0.2847,0.85956 -0.76196,1.73145 -1.35419,2.3125c-0.72308,0.70947 -1.51019,0.97241 -2.3125,1.52084c-0.67426,0.46091 -1.26678,1.10019 -1.80264,1.63599c-0.6853,0.68521 -1.32315,1.39462 -1.88,1.79468c-0.88553,0.63617 -1.48401,1.09018 -1.90933,1.96933l-0.45319,0.69968l-0.12149,0.27899l0,-0.87866" id="svg_4" stroke-width="2" stroke="#000" fill="none"/>
  <path t="20838,20844,20844,20844,20844,20844,20844,20844,20844,20844,20857,20857,20857,20857,20857,20857,20857,20857,20857,20880,20880,20880,20880,20880,20880,20880,20880,20880,20888,20888,20888,20888,20888,20888,20888,20905,20905,20905,20922,20922,20922,20922,20937,20937,20937,20937,20937,20954,20954,20954,20954,20971,20971,20971,20971,20987,20987,20987,20987,20987,21007,21007,21007,21007,21024,21024,21039,21040,21040,21040,21057,21057,21057,21057,21073,21073,21074,21074,21074,21090,21090,21090,21090,21107,21107,21107,21107,21107,21107,21123,21123,21123,21123,21140,21140,21140,21140,21155,21155,21155,21155,21174,21174,21174,21174,21174,21190,21190,21190,21190,21190,21207,21207,21207,21207,21207,21224,21224,21224,21224,21240,21240,21240,21240,21257,21257,21257,21257,21257,21274,21274,21274,21274,21290,21290,21290,21290,21290,21290,21306,21307,21307,21307,21324,21324,21324,21324,21339,21340,21340,21340,21356,21357,21357,21357,21357,21374,21374,21374,21374,21374,21390,21390,21390,21390,21405,21405,21405,21405,21424,21424,21424,21424,21440,21440,21440,21457,21457,21457,21457,21474,21474,21474,21490,21490,21490,21490,21507,21507,21507,21524,21524,21540,21540,21540,21557,21557,21573,21573,21573,21588,21588,21588,21588,21605,21606,21606,21624,21624,21624,21640,21640,21640,21657,21657,21657,21657,21674,21674,21690,21690,21690,21724,21724,21724,21740,21740,21740,21740,21740,21757,21757,21757,21774,21774,21774,21790,21790,21790,21807,21807,21824,21824,21824,21840,21840,21858,21858,21858,21873,21874,21888,21888,21888,21907,21908,21924,21924,21940,21940,21968" d="m133,113c3,3.5 3.75662,4.4201 4.61067,5.46267c0.93065,1.13607 1.91412,2.3391 2.931,3.57899c1.02579,1.25077 2.03792,2.48493 3.021,3.669c1.76575,2.12676 2.51979,3.01189 3.18266,3.78c0.57645,0.66795 1.08311,1.24211 1.5255,1.73851c0.38574,0.43285 0.72971,0.80995 1.0305,1.15349c0.53685,0.61313 0.77922,0.91615 1.01601,1.21867c0.23622,0.30182 0.46762,0.60962 0.70349,0.91949c0.24013,0.31546 0.48535,0.63927 0.7485,0.96451c0.55634,0.68761 0.87094,1.03767 1.19733,1.396c0.33192,0.3644 0.67018,0.72572 1.34668,1.42134c0.32266,0.33179 1.4225,1.43317 2,2.01067c0.48749,0.48749 1.22966,1.22966 1.70099,1.70099c0.52734,0.52734 1.09517,1.09416 1.98567,1.98567c0.599,0.59967 1.19576,1.19391 1.76401,1.8c0.55701,0.5941 1.32053,1.49518 1.77882,2.09549c0.44221,0.57924 1.03539,1.43573 1.6575,2.18333c0.60167,0.72305 1.06952,1.18463 1.57033,1.69051c0.86829,0.87704 1.53467,1.536 1.88,1.88133c0.69867,0.69867 1.38319,1.37947 2.30617,2.30634c0.52541,0.52762 1.00932,0.97668 1.55516,1.64034c0.63878,0.77666 1.10164,1.64557 1.65468,2.56934c0.3121,0.52132 0.84177,1.34222 1.23782,1.88066c0.77191,1.04939 1.20111,1.50352 1.8315,2.214c0.45012,0.50731 1.1909,1.37711 1.71667,2.04849c0.55322,0.70644 0.82698,1.07185 1.36333,1.80751c0.77,1.05614 1.22935,1.7347 1.70483,2.38266c0.48247,0.6575 1.30869,1.67004 1.62184,2.02116c0.65475,0.73413 1.35597,1.45934 1.70667,1.8175c0.68005,0.69456 1.61111,1.6151 2.13634,2.1515c0.4758,0.48593 1.127,1.18024 1.71449,1.93132c0.62714,0.80176 1.0253,1.39734 1.48517,1.97984c0.71977,0.91173 1.26733,1.49866 1.81467,2.09866c0.54733,0.60001 1.34274,1.49257 1.81599,2.10133c0.46809,0.60213 0.90814,1.2355 1.36801,1.884c0.7356,1.03734 1.2686,1.7708 1.83682,2.51466c0.28754,0.37643 0.86745,1.12718 1.77901,2.1785c0.29465,0.33983 0.89211,0.98311 1.46417,1.61084c0.55319,0.60703 1.32529,1.50247 1.77882,2.11066c0.66246,0.88832 1.05409,1.50116 1.65733,2.40001c0.40318,0.60077 0.7986,1.21672 1.48517,2.09999c0.71352,0.91794 1.26733,1.5 1.81467,2.10001c0.54733,0.60001 0.84985,0.87262 1.81599,2.10266c0.47572,0.60567 0.91518,1.26553 1.36801,1.968c0.48901,0.75861 0.99933,1.59644 1.26866,2.03017c0.54596,0.8792 1.08858,1.74072 1.36333,2.14584c0.74617,1.10025 1.22258,1.68991 1.87334,2.45732c0.40669,0.4796 1.21259,1.48091 1.62134,2.032c0.42592,0.57423 0.85901,1.17839 1.61067,2.06418c0.52065,0.61356 1.09435,1.20749 1.62599,1.85699c0.81039,0.99004 1.27335,1.72395 1.72734,2.46817c0.45537,0.74648 0.64159,1.14682 1.392,2.20799c0.49394,0.69849 1.05692,1.3322 1.608,1.95601c0.53963,0.61084 1.31284,1.5038 1.76816,2.11066c0.44525,0.59343 1.05629,1.49969 1.65717,2.40001c0.40031,0.59979 0.79997,1.20001 1.2,1.8c0.79996,1.19986 1.19362,1.79993 1.60001,2.37917c0.59077,0.84204 1.20302,1.5968 1.78934,2.2955c0.37672,0.44893 1.06528,1.38115 1.45799,2.17799c0.39996,0.81155 0.57643,1.40211 1.23801,2.36333c0.49251,0.71558 0.9442,1.11664 1.71449,2.1055c0.40926,0.52538 0.98178,1.37907 1.31483,1.97984c0.49019,0.88423 0.83134,1.78496 1.18083,2.58434c0.38489,0.88034 0.93111,1.61092 1.40468,2.33583c0.44633,0.68323 0.75513,1.30363 1.55249,2.2785c0.50351,0.6156 1.18985,1.39374 1.59917,2.0045c0.41901,0.62521 1.07394,1.5686 1.51617,2.0795c0.47467,0.54836 1.02573,1.05376 1.89867,2.14934c0.54779,0.6875 0.91405,1.35492 1.33333,2.16666c0.41267,0.79895 0.7233,1.42499 1.3215,2.20016c0.48778,0.63205 1.10527,1.23904 1.87833,2.22101c0.40764,0.51782 0.95613,1.32333 1.31483,1.80948c0.71678,0.97144 1.24341,1.51221 1.96933,2.25467c0.51991,0.53174 1.05632,1.09827 1.63466,1.91736c0.44199,0.62598 0.91531,1.38522 1.64536,2.23999c0.57794,0.6767 0.91452,1.00565 1.56,1.70667c0.62646,0.68039 1.42435,1.59836 1.80899,2.13632c0.48737,0.68161 1.19165,1.71176 1.69235,2.32501c0.52548,0.64362 1.0354,1.34222 1.41748,2.13751c0.37375,0.77798 0.72729,1.73718 1.15717,2.39047c0.56207,0.85422 1.00662,1.49393 1.39999,2.26266c0.40689,0.7952 0.79785,1.59976 1.20001,2.39868c0.39786,0.79041 0.76953,1.53687 1.41068,2.38535c0.4537,0.60043 1.09247,1.37088 1.56848,2.1355c0.32523,0.5224 0.79388,1.55365 1,2.4375c0.20322,0.87149 0.6315,1.63098 1.21951,2.24167l0.51599,0.59998l0.28534,0.78568" id="svg_6" stroke-width="2" stroke="#000" fill="none"/>
  <path t="22949,22956,22956,22956,22956,22956,22987,22988,22988,23015,23028,23039,23039,23060,23071,23072,23093,23105,23105,23127,23137,23260,23271" d="m134,110c3.08516,-1.54266 4.00682,-2.00405 4.49066,-2.25066c0.97331,-0.49609 1.45473,-0.72025 2.67601,-1.416c0.61354,-0.34953 1.35953,-0.91905 2.23332,-1.30801c0.7836,-0.3488 1.63824,-0.75925 2.40001,-1.10933c0.74974,-0.34455 1.39999,-1.116 2,-1.716c0.59999,-0.6 1.22142,-1.40195 1.89999,-1.84283c0.79233,-0.51479 1.35268,-1.0045 2.13333,-1.19051l-0.11732,0.74934" id="svg_7" stroke-width="2" stroke="#000" fill="none"/>
  <path t="23618,23624,23624,23624,23624,23624,23624,23624,23624,23640,23640,23640,23640,23640,23640,23640,23640,23657,23657,23657,23674,23674,23674,23674,23690,23690,23690,23706,23706,23706,23706,23722,23722,23722,23739,23739,23739,23739,23755,23755,23755,23755,23755,23772,23772,23772,23788,23788,23788,23806,23806,23806,23806,23822,23822,23822,23822,23822,23838,23838,23838,23856,23856,23856,23872,23872,23872,23872,23888,23889,23889,23889,23906,23906,23906,23906,23922,23922,23922,23922,23938,23938,23938,23956,23956,23956,23956,23976,23976,23976,23991,23991,23992,23992,24007,24007,24007,24007,24024,24024,24024,24040,24040,24040,24057,24057,24057,24057,24074,24074,24074,24074,24090,24090,24090,24090,24107,24107,24107,24107,24107,24107,24124,24124,24124,24124,24140,24140,24140,24157,24157,24157,24157,24174,24174,24174,24190,24190,24190,24190,24207,24207,24207,24207,24224,24224,24224,24240,24240,24240,24240,24257,24257,24257,24274,24274,24274,24290,24290,24290,24290,24307,24307,24307,24308,24324,24324,24324,24340,24340,24340,24357,24357,24357,24357,24357,24374,24374,24374,24390,24390,24390,24407,24407,24407,24407,24424,24424,24424,24424,24440,24440,24440,24457,24457,24457,24474,24474,24474,24490,24490,24490,24490,24490,24507,24508,24508,24524,24524,24524,24540,24540,24557,24557,24557,24574,24574,24574,24574,24590,24590,24590,24590,24607,24607,24607,24624,24624,24640,24640,24640,24655,24655,24655,24655,24674,24674,24689,24689,24689,24707,24707,24708,24708,24724,24724,24740,24740,24757,24758,24774,24774,24790,24807,24807,24863" d="m149,99c3.09216,1.9925 3.75992,2.55704 4.4785,3.1875c0.76292,0.66937 1.54507,1.37199 2.3295,2.0925c0.77791,0.71452 1.53607,1.405 2.85867,2.72c0.56755,0.5643 1.05408,1.08105 1.4715,1.548c0.36737,0.41095 0.67746,0.78285 0.94049,1.116c0.23094,0.2925 0.72893,1.02431 1.30667,1.68533c0.55988,0.64058 1.384,1.42 1.87601,1.91199c0.524,0.524 1.06177,1.05028 1.817,1.81734c0.68022,0.69088 1.30421,1.34528 1.75499,2.088c0.46092,0.75944 0.76642,1.62099 1.05067,2.14934c0.55284,1.0276 1.14424,1.67776 1.71733,2.368c0.60693,0.73099 0.99043,1.28683 1.67067,2.12667c0.48654,0.60069 1.36684,1.49319 1.69466,1.78799c0.666,0.59893 1.36163,1.14859 1.98001,1.716c0.80914,0.74246 1.35182,1.45229 1.797,2.08083c0.57265,0.8085 1.09599,1.42191 1.718,2.06168c0.69724,0.71713 1.23087,1.21992 2.03833,2.06366c0.55324,0.57809 1.34142,1.47276 1.81467,2.07784c0.45723,0.58458 0.86473,1.17287 1.284,1.716c0.78304,1.01439 1.39777,1.66795 1.80133,2.08083c0.79306,0.81136 1.40004,1.40448 2,2.0045c0.80022,0.80029 1.21373,1.20033 1.836,1.87201c0.45619,0.4924 1.18817,1.36841 1.71667,2.03333c0.55029,0.69234 1.08064,1.40085 1.88066,2.36134c0.47444,0.56961 0.91919,1.08476 1.61934,1.72433c0.69289,0.63292 1.50058,1.20821 2.04733,1.60899c0.81688,0.59882 1.60355,1.1734 2.25333,1.81067c0.41685,0.40883 1.10129,1.34515 1.494,2.142c0.39996,0.81155 0.56854,1.40768 1.23933,2.36333c0.50606,0.72096 0.97275,1.13892 1.93468,2.10535c0.53009,0.53256 1.07866,1.07866 1.62599,1.62599c0.786,0.786 1.26733,1.26733 1.93184,1.93184c0.61949,0.61949 1.42523,1.4153 1.81017,1.82083c0.56198,0.59206 1.33627,1.59547 1.71066,2.22083c0.39423,0.65849 0.9787,1.6698 1.34666,2.21516c0.39162,0.58043 0.82242,1.18001 1.57468,2.06401c0.51939,0.61035 1.08517,1.19411 1.62599,1.8c0.79568,0.89143 1.50468,1.80107 1.95267,2.42082c0.45747,0.63289 1.1657,1.64655 1.42134,2.0005c0.5293,0.7328 1.07954,1.47801 1.62599,2.226c0.2691,0.36835 1.0305,1.43147 1.4955,2.091c0.64557,0.91565 1.03859,1.48888 1.65717,2.24033c0.58403,0.70947 1.21689,1.36015 1.8,2.08801c0.61826,0.77173 0.9922,1.33911 1.39999,1.88066c0.78516,1.04268 1.20683,1.49402 1.8,2.17799c0.80939,0.93329 1.21246,1.45047 1.58934,2.01067c0.57489,0.85451 1.05499,1.759 1.45799,2.6595c0.25981,0.58054 0.59294,1.44594 1.07417,2.18317c0.47311,0.72478 1.09854,1.36133 1.6785,2.08801c0.61682,0.77287 0.98682,1.34319 1.60001,2.14932c0.58736,0.77216 1.2056,1.43411 1.74283,2.0795c0.65613,0.78821 1.03058,1.41591 1.40984,2.06168c0.56697,0.96542 0.90065,1.5025 1.45799,2.3535c0.388,0.59242 0.98285,1.49358 1.58934,2.37866c0.39578,0.57759 0.77396,1.14674 1.59999,2.12534c0.38805,0.45972 1.00572,1.07518 1.8,1.88567c0.6044,0.61673 1.04503,1.03918 1.8,2.133c0.42615,0.61742 0.79649,1.31937 1.2,2.01601c0.39656,0.68466 0.97542,1.62744 1.60001,2.37866c0.38524,0.46335 1.2,1.272 1.8,1.87201c0.59999,0.59999 1.40288,1.39714 1.79999,1.80133c0.60442,0.61519 1.21591,1.27132 1.80002,2.02c0.61707,0.79094 0.98953,1.36124 1.39999,1.89465c0.78036,1.01408 1.39542,1.66766 2,2.28267c0.59552,0.60577 1.20004,1.20128 1.79999,1.80133c0.80011,0.80025 1.41833,1.4057 1.80002,1.87201c0.8418,1.02847 1.2034,1.694 1.59998,2.37866c0.40353,0.69666 0.76465,1.40526 1.39984,2.30634c0.5592,0.79326 0.99869,1.1947 1.63351,2.043c0.57349,0.7663 0.86444,1.39859 1.65067,2.11734c0.64886,0.5932 1.38214,1.19698 1.76334,1.89249c0.41464,0.75656 0.90009,1.83675 1.23798,2.30617c0.50748,0.70506 1.1312,1.35593 1.71469,2.10535c0.6163,0.79155 0.98975,1.36107 1.39999,1.89465c0.77945,1.01375 1.40121,1.64478 1.91467,2.28267c0.62772,0.7798 0.97125,1.39783 1.48532,2.40134c0.30859,0.60242 0.74362,1.46521 1.32132,2.42133c0.32382,0.53595 0.85947,1.34952 1.19467,1.89468c0.60989,0.99185 0.96579,1.6618 1.48401,2.68399c0.30606,0.6037 0.61835,1.24628 1.16666,2.16666c0.47104,0.79065 0.81598,1.32474 1.34933,2.064c0.70428,0.97617 1.20786,1.49887 1.68402,2.25336c0.42596,0.67493 1.09283,1.57574 1.44281,2.26865c0.42834,0.84811 0.44119,1.76334 0.79318,2.61136l0.564,0.63599l0.564,0.60001l0.41516,0.85834" id="svg_8" stroke-width="2" stroke="#000" fill="none"/>
  <path t="26320,26616,26640,26662,26677,26692,26692,26712,26712,26727,26727,26751,26836,26853,26853,26903,26915,26915,26931,26939,26939,26960,26970,26971,26988,26988,26988,27005,27005,27005,27005,27026,27026,27026,27043,27044,27044,27061,27061,27061,27061,27061,27061,27071,27071,27071,27071,27071,27089,27089,27089,27089,27111,27111,27111,27111,27111,27111,27126,27126,27126,27126,27126,27144,27144,27144,27144,27160,27160,27160,27175,27175,27175,27175,27193,27193,27193,27193,27210,27210,27210,27210,27226,27226,27244,27244,27244,27260,27260,27274,27274,27274,27293,27293,27307,27307,27307,27307,27327,27327,27327,27343,27343,27391,27391,27720,27720,27744,27762,27777,27793,27810,27811,27826,27837,27860,27876,27887,27887,27888,27911,27911,27911,27923,27923,27923,27944,27944,27983,27995,28011,28011,28026,28038,28054,28076,28087,28104,28104,28120,28121,28137,28154,28170,28191,28215,28215,28236,28259,28275,28291,28311,28311,28508,28584,28612,28635,28655,28672,28689,28689,28706,28706,28721,28740,28740,28756,28756,28771,28772,28772,28788,28789,28789,28805,28821,28822,28822,28838,28856,28856,28856,28871,28872,28889,28889,28906,28906,28922,28938,28956,28956,28972,28972,28989,28989,29006,29021,29022,29039,29039,29056,29056,29072,29072,29088,29089,29105,29122,29139,29156,29171,29172,29189,29189,29206,29206,29221,29222,29239,29239,29239,29256,29256,29272,29272,29272,29289,29289,29306,29306,29321,29322,29339,29339,29339,29356,29356,29372,29372,29372,29389,29389,29406,29406,29406,29422,29439,29439,29439,29456,29456,29472,29472,29512" d="m134,112c-1.7,-0.05717 -2.42255,-0.68559 -3.3,-0.94283c-0.86674,-0.25411 -1.86803,-0.22041 -2.52533,-0.4825c-1.01011,-0.40276 -1.6745,-0.56425 -2.65867,-0.57467c-0.86329,-0.00914 -1.76387,0.09669 -2.716,-0.00134c-0.81261,-0.08366 -1.51501,-0.71433 -2.15717,-1.35583c-0.64317,-0.64249 -1.27786,-1.2098 -1.8415,-1.84283c-0.67907,-0.76267 -0.85683,-1.49842 -1.30133,-2.3c-0.45022,-0.8119 -0.56064,-1.56104 -0.78667,-2.55333c-0.14508,-0.63692 -0.27384,-1.34435 -0.88,-2.61333c-0.27894,-0.58395 -0.8595,-1.29404 -1.34933,-2.016c-0.4893,-0.7212 -0.85192,-1.5411 -1.1795,-2.36467c-0.40958,-1.02972 -0.71855,-1.74715 -1.06166,-2.51967c-0.41359,-0.93119 -0.72823,-1.68764 -1.07883,-2.53033c-0.18487,-0.44432 -0.5657,-1.36021 -0.76534,-1.82133c-0.59023,-1.36329 -0.99414,-2.21968 -1.37783,-3.03967c-0.18483,-0.395 -0.56339,-1.14339 -1.13683,-2.56033c-0.272,-0.67209 -0.51192,-1.37778 -0.76801,-2.13599c-0.44179,-1.30801 -0.60155,-1.79816 -0.94133,-2.832c-0.17547,-0.53391 -0.35468,-1.07165 -0.69067,-2.14667c-0.32247,-1.03175 -0.6017,-1.99382 -0.848,-2.884c-0.22814,-0.82456 -0.42558,-1.59727 -0.736,-2.66116c-0.19433,-0.66602 -0.4987,-1.61126 -0.7,-2.22017c-0.39743,-1.20218 -0.6,-1.80133 -0.89999,-2.70133c-0.3,-0.9 -0.60001,-1.8 -0.8,-2.4c-0.3,-0.9 -0.60398,-1.79886 -0.9,-2.71067c-0.20273,-0.62445 -0.40845,-1.27227 -0.8,-2.672c-0.20442,-0.73078 -0.3863,-1.46011 -0.60001,-2.148c-0.37478,-1.20635 -0.75288,-1.90545 -1.03333,-2.96933c-0.15568,-0.59056 -0.14131,-1.42142 -0.452,-2.4c-0.26133,-0.82313 -0.83363,-1.79114 -1.104,-2.4c-0.35049,-0.7893 -0.55293,-1.80962 -0.63599,-2.472c-0.13322,-1.06238 -0.32245,-2.03561 -0.49551,-2.728c-0.17423,-0.69709 -0.47096,-1.66967 -0.77467,-2.48567c-0.33823,-0.90877 -0.6049,-1.91662 -0.72983,-2.71433c-0.12569,-0.8026 -0.48961,-1.55861 -0.80801,-2.63333c-0.21928,-0.74013 -0.16666,-1.66667 -0.16666,-2.56667c0,-0.9 -0.16369,-1.85729 0.22134,-2.7c0.3058,-0.6693 0.43291,-1.57945 0.7995,-2.37917c0.33497,-0.73075 1.43535,-0.92418 1.97916,-1.6875c0.46093,-0.64699 0.74297,-1.30349 1.32133,-2.2545c0.32346,-0.53186 0.82185,-1.34066 1.512,-2.2455c0.5183,-0.67953 1.02756,-1.16866 1.98133,-1.72267c0.60239,-0.3499 1.62917,-0.49892 2.48534,-0.61517c0.82133,-0.11151 1.46861,-0.84732 2.39999,-0.991c0.88949,-0.13722 1.8,-0.0045 2.7,-0.0045c0.9045,0 1.76666,-0.00007 2.6,0c0.9785,0.00008 1.79421,0.09297 2.5,0.5c0.7906,0.45594 1.3395,1.00954 1.85717,1.8c0.52068,0.79506 1.33705,1.11395 1.60683,2.1c0.23769,0.86879 0.036,1.8 0.036,2.7c0,0.9 0,1.7 0,2.6c0,0.9 0,1.8 0,2.7c0,0.9 0,1.8 0,2.70017c0,0.78517 0,1.72517 0,2.41583c0,0.984 -0.07077,1.97543 0.036,2.65867c0.15061,0.96373 0.74059,1.62401 1.28533,2.36816c0.51841,0.70818 1.03972,1.50064 1.512,2.2905c0.41724,0.69782 0.84781,1.49156 1.114,2.414c0.26205,0.90808 0.44437,1.60331 0.854,2.26867c0.552,0.89661 1.36533,1.65067 1.85133,2.13667c0.522,0.522 1.32617,1.3255 1.93667,1.93666c0.611,0.61167 1.12656,1.15734 1.71067,2.05883c0.41132,0.6348 1.13724,1.21456 1.89999,1.63583c0.84949,0.46918 1.57991,0.70858 2.45267,1.07317c0.71664,0.29937 1.53529,1.02331 2.146,1.3575c0.78348,0.42873 1.71234,0.51907 2.54868,0.98983c0.79597,0.44805 1.34927,0.99438 2.06332,1.70617c0.47542,0.47392 1.24197,1.24203 1.76401,1.764c0.80379,0.80371 1.47662,1.2777 2.21466,1.8c0.65619,0.46437 0.51521,1.46988 0.89467,2.22533c0.43558,0.8672 0.71375,1.55716 0.716,2.45717c0.00186,0.74734 0,1.74284 0,2.54283c0,1.00017 0,1.82084 0,2.96667c0,0.7815 0,1.57201 0,2.5c0,0.83334 -0.01668,1.87645 0.01067,2.584c0.02878,0.7449 0.32811,1.7548 0.63667,2.49751c0.36725,0.88396 0.32816,1.67759 0.638,2.65183c0.26175,0.823 0.81465,1.8 1.11465,2.4c0.39999,0.8 0.8,1.59999 1.20001,2.39999c0.40001,0.8 0.79999,1.6 1.2,2.4c0.40001,0.8 0.80217,1.59892 1.2,2.4c0.39146,0.78827 0.67876,1.5263 1.02083,2.52084c0.28314,0.82319 0.67191,1.49571 1.16451,2.2285c0.62657,0.93209 1.0575,1.43633 1.81467,2.25066l0.47917,0.5l0.46367,0.8" id="svg_9" stroke-width="2" stroke="#000" fill="none"/>
 </g>
 <g display="none">
  <title>muse_image</title>
  <image xlink:href="http://farm2.static.flickr.com/1246/960184912_562762b8f6.jpg" id="muse" height="480" width="360" y="0" x="140"/>
 </g>
 <g display="none">
  <title>bbox</title>
  <rect stroke="#f00" fill="none" stroke-width="3" height="432.96" width="288" y="22.08" x="188.96" id="bbox"/>
 </g>
</svg>
