<svg width="640" height="480" xmlns="http://www.w3.org/2000/svg" xmlns:svg="http://www.w3.org/2000/svg" xmlns:xlink="http://www.w3.org/1999/xlink">
 <!-- Sketchy ANNOTATION
  ImageNet ID: n03272010_6255
  URL: http://farm4.static.flickr.com/3089/3120123337_f2e1759196.jpg
  Image Width: 333
  Image Height: 500
  BBox X: 42
  BBox Y: 63
  BBox Width: 105
  BBox Height: 311
  Exposure: 2000ms
  Synset Label: guitar
  Synset ID: n03467517
  Worker Tag: electric guitar and accessories
  Sanity Check: 
   Saved
  Comment: 
   {}
  Worker ID: A1P7U2ULSAE7YL
  Assignment ID: 3HMIGG0U4L6KR5VCV8RNA5CO3VR8Y6
  HIT ID: 3FO95NVK5C0RQ405590WUGO79P3SR5
  Work Time: 93s
  Worker Score: 0.7857
 END ANNOTATION -->
 <g display="inline">
  <title>Layer 1</title>
  <path t="0,175,183,207,223,231,239,255,264,271,271,287,303,311,335,343,351,359,367,367,375,383,391,399,415,423,423,431,439,439,447,455,455,464,471,471,481,483,484,495,503,511,511,525,527,527,535,543,551,559,567,567,575,575,584,591,591,601,607,623,623,631,631,631,639,647,655,664,664,671,680,687,687,695,703,711,720,720,728,728,736,751,759,768,783,791,791,799,799,807,817,823,839,847,863,863,871,871,880,887,897,903,911,927,943,951,951,967,967,975,975,983,991,999,1007,1015,1031,1047,1047,1063,1063,1071,1087,1096,1096,1111,1119,1151,1159,1175,1199" d="m243.51137,128.09091c0,1.8 0,2.64284 0,3.52083c0,0.97917 0,1.87917 0,2.77917c0,0.89999 0,1.8 0,2.7c0,0.8 0,1.7 0,2.60001c0,0.87917 0,1.75716 0,2.7c0,0.89999 0,1.8 0,2.7c0,0.8 0,1.7 0,2.60001c0,0.89999 0,1.79999 0,2.7c0,0.80016 0,1.58533 0,2.52533c0,1.008 0,1.87016 0,2.6955c0,0.96317 0,1.65384 0,2.7265c0,0.91934 0,1.73184 0,2.702c0,0.75601 0,1.71735 0,2.5715c0,0.88983 0,1.80051 0,2.65384c0,0.94 0,1.82533 0,2.71066c0,0.92934 0,1.78134 0,2.6355c0,0.88983 0,1.80051 0,2.65384c0,0.94133 0,1.70934 0,2.65067c0,1.008 0.03389,1.88281 0.42534,2.57466c0.46237,0.8172 0.57466,1.76668 0.57466,2.436c0,1.164 0,1.95334 0,2.67867c0,0.96451 0,1.88533 0,2.78984c0,0.86217 0,1.67467 0,2.6955c0,0.86133 0,1.83333 0,2.58932c0,0.91068 0,1.81067 0,2.71518c0,0.86217 0,1.6955 0,2.674c0,0.82016 0,1.73616 0,2.63217c0,0.88933 0,1.78932 0,2.69383c0,0.86217 0,1.6955 0,2.674c0,0.82016 0,1.7215 0,2.62151c0,0.96399 0,1.836 0,2.7045c0,0.86217 0,1.6955 0,2.674c0,0.82016 0,1.7215 0,2.62151c0,0.89999 0,1.79999 0,2.7c0,0.89999 0,1.8 0,2.7c0,0.75717 0,1.65717 0,2.60133c0,0.99417 0,1.7415 0,2.76266c0,0.836 0,1.73601 0,2.636c0,0.916 0,1.76167 0,2.65717c0,0.74733 0,1.7415 0,2.50684c0,1.07883 0,1.936 0,2.836c0,0.8 0,1.7 0,2.64284c0,0.87799 0,1.75716 0,2.65717l0,0.89999" id="svg_1" stroke-width="2" stroke="#000" fill="none"/>
  <path t="2311,2454,2478,2479,2487,2495,2503,2503,2512,2512,2519,2529,2541,2551,2559,2559,2567,2567,2575,2583,2583,2591,2599,2607,2623,2623,2639,2639,2648,2648,2665,2671,2671,2679,2687,2687,2695,2703,2711,2728,2728,2735,2735,2745,2751,2767,2767,2791,2791,2799,2799,2815,2815,2831,2831,2839,2854,2863,2863,2863,2879,2879,2887,2887,2895,2895,2903,2911,2919,2928,2935,2944,2959,2967,2967,2983,2991,2991,2998,3015,3023,3031,3047,3063,3079,3079,3087,3087,3095,3111,3119,3135,3144,3159,3175,3175,3191,3207,3215,3231,3249,3255,3271,3287,3303,3319,3335,3351,3364,3367,3383,3391,3407,3407,3423,3447,3487,3522,3535,3567,3571,3573,3655,3687,3735,3983,3991,4014,4039,4054,4071,4095,4111,4111,4119" d="m252.51137,128.09091c0.98933,2.55333 1,3.44283 1,4.35184c0,0.89099 0,1.84816 0,2.74832c0,0.78517 0,1.72517 0,2.41585c0,1.07332 0,1.98399 0,2.87332c0,0.89734 0,1.77734 0,2.61067c0,0.9785 0,1.79866 0,2.636c0,1.01666 0,1.71133 0,2.728c0,0.936 0,1.836 0,2.73616c0,0.78517 0,1.73584 0,2.50117c0,0.99417 0,1.7415 0,2.77333c0,0.94667 0,1.62534 0,2.74001c0,0.88533 0,1.68533 0,2.58533c0,0.90001 0.06245,1.73074 -0.22133,2.62134c-0.22275,0.69902 -0.71649,1.65065 -0.77734,2.47733c-0.06618,0.89891 -0.00133,1.83734 -0.00133,2.68401c0,0.8075 0,1.85066 0,2.55901c0,1.15816 0,1.9375 0,2.79166c0,0.91934 0,1.81934 0,2.51401c0,1.01666 0.07492,1.97597 -0.16667,2.81934c-0.2525,0.88144 -0.62866,1.41991 -0.77617,2.43333c-0.11548,0.79337 -0.05716,1.79999 -0.05716,2.59999c0,0.99983 0,1.964 0,2.91467c0,0.88533 0,1.76399 0,2.58983c0,0.89551 0,1.7955 0,2.70616c0,0.91068 0,1.76401 0,2.70401c0,0.88533 0,1.68533 0,2.58533c0,0.90001 0,1.8 0,2.7c0,0.90001 0,1.80135 0,2.76668c0,0.65866 0,1.66666 0,2.52882c0,0.90451 0,1.8045 0,2.69383c0,0.89601 0,1.81067 0,2.71068c0,0.89999 0,1.7 0,2.59999c0,0.90001 0,1.8 0,2.7c0,0.90001 0,1.8 0,2.69984c0,0.87483 0,1.70149 0,2.60016c0,0.90001 0,1.8 0,2.7c0,0.90001 0,1.8 0,2.70001c0,0.89999 0,1.7 0,2.61465c0,0.89601 0,1.78534 0,2.68533c0,0.90001 0,1.8 0,2.69984c0,0.87933 0,1.70149 0,2.60016c0,0.90001 0.1185,2.01276 -0.61067,2.28934c-0.83157,0.31543 -1.78932,0.01067 -2.68933,0.01067c-0.89999,0 -1.8,0 -2.7,0l-0.8,0l-0.91466,0" id="svg_2" stroke-width="2" stroke="#000" fill="none"/>
  <path t="5367,5550,5614,5634,5635,5782,5806,5815,5886,5918,5958,5974,6007,6007,6031,6047,6070,6079,6102,6126,6150,6158,6190,6214,6238,6262,6382,6430,6502,6502,6534,6663,6766,6775,6790,6830,6854,6862,6878,7094,7158,7166,7190,7222,7230,7262,7286,7286,7342,7350,7382,7478,7510,7542,7638,7654,7670,7679,7830,7854,7902,7902,7942,7966,7990,8022,8078,8102" d="m244.51137,128.09091c-0.87849,-1.2215 -1,-2.1 -1,-3c0,-0.8785 0,-1.7045 0,-2.6c0,-0.87917 0,-1.83601 0,-2.7c0,-0.9 0,-1.8 0,-2.7c0,-0.8 -0.01067,-1.70007 0,-2.6c0.01042,-0.87935 0.81433,-1.38807 0.9955,-2.1045c0.23004,-0.90971 0.16812,-1.74134 0.65184,-2.34817c0.51549,-0.64668 -0.06006,-1.77077 0.40982,-2.59017c0.39442,-0.68784 1.15807,-1.29627 2.04285,-1.35716c0.89787,-0.06179 1.7,0 2.59999,0c0.864,0 1.75327,0.06926 2.32533,0.57467c0.64313,0.56818 0.37538,1.4185 0.97467,2.25867c0.39775,0.55762 0.99933,0.96799 1,1.88133c0.00066,0.896 0,1.78533 0,2.68533c0,0.89999 0,1.8 0,2.7c0,0.9 0,1.7 0,2.6c0,0.9 0,1.77917 0,2.736c0,0.864 0.1498,1.77658 -0.00017,2.66383c-0.144,0.85203 -0.86253,1.26567 -0.99983,2.19567c-0.10573,0.71619 -1.10001,0.7045 -2,0.7045c-0.8,0 -1.7,0 -2.60001,0c-0.89999,0 -1.79999,0 -2.7,0l-0.89999,0" id="svg_3" stroke-width="2" stroke="#000" fill="none"/>
  <path t="9735,10038,10054,10086,10102,10110,10126,10142,10158,10167,10214,10230,10286,10302,10318,10326,10366,10366,10382,10390,10398,10414,10423,10438,10478,10486,10486,10502,10510,10519,10526,10542,10558,10558,10614,10662,10726,10780,10798,10942,10998,10998,11014,11054,11126,11142,11174,11230,11246,11270,11310,11342,11351,11415,11423,11469,11735,11744,11759,11768,11775,11799,11839,11879,11887,11935,11951,11967,11967,11983,12007,12015,12015,12023,12047,12063,12079,12103,12119,12135,12143,12167,12167,12183,12199,12207,12231,12255,12287,12295,12335,12335,12351,12359,12383,12407,12416,12423,12431,12455,12463,12497,12543,12554,12591,12591,12599,12623,12639,12663,12679,12695,12711,12735,12743,12759,12783,12791,12815,12831,12855,12871,12895,12903,12920,12927,12951,12967,12967,12991,13015,13023,13071,13111,13119,13127,13159,13207,13231,13255,13264,13295,13327,13359,13375,13391,13407,13432,13447,13475,13511,13526,13526,13567,13575,13591,13607,13616,13623,13633,13647,13663,13695,13719,13727,13737,13767,13775,13807,13831,13847,13863,13879,13895,13895,13911,13943,13951,13975,13999,14015,14023,14047,14047,14063,14079,14111,14159,14191,14215,14223,14247,14287,14335,14367,14383,14383,14399,14399,14423,14471,14471,14487,14503,14503,14519,14535,14543,14554,14615,14639,14647,14703,14703,14719,14735,14744,14759,14783,14793,14831,14911,14927,14975,15015,15024,15031,15048,15064,15071,15095,15111,15135,15167,15183,15223,15239,15287,15303,15327,15338,15343,15375,15391,15391,15431,15455,15487,15497,15520,15538,15538,15551,15559,15583,15586,15687,15696,15711,15711,15720,15775,15791,15815,15815,15855,15871,15927,15959,15975,16015,16047,16063,16063,16087,16111,16135,16144,16151,16169,16175,16186,16203,16207,16216,16223,16239,16255,16263,16280,16287,16296,16327,16343,16353,16353,16359,16375,16391,16404,16408,16425,16438,16440,16450,16456,16463,16480,16488,16503,16513,16520,16536,16537,16544,16567,16583,16604,16613,16617,16639,16639,16649,16656,16657,16667,16672,16680,16704,16716,16723,16728,16751,16761,16775,16791,16791,16803,16823,16839,16852,16855,16871,16879,16903,16912,16921,17039,17039,17175,17199,17215,17215,17236,17239,17279,17303,17327,17343,17367,17391,17402,17403,17431,17447,17457,17463,17487,17496,17519,17543,17559,17591,17615,17631,17646,17671,17695,17704,17705,17727,17751,17791,17847,17856,17871,17943,17952,17969,17975,18007,18017,18071,18095,18143,18192,18207,18223,18223,18240,18263,18274,18287,18298,18303,18319,18351,18447,18671" d="m243.51137,220.09091c-0.80133,0 -1.70006,-0.01067 -2.60001,0c-0.87935,0.01042 -1.3959,0.81963 -2.23332,1c-0.75992,0.16368 -1.6423,0.11861 -2.21935,0.64734c-0.6913,0.63342 -1.24805,1.17361 -2.04716,1.35283c-0.84238,0.18892 -0.90016,1.1985 -0.90016,2.05251c0,0.94733 0.01874,1.74753 0,2.64732c-0.01801,0.86456 -0.81915,1.3515 -0.99867,2.10133c-0.21361,0.89221 -1.13828,0.7928 -1.83466,1.36534c-0.6933,0.57001 -0.7655,1.42169 -1.14134,2.23332c-0.40918,0.88364 -1.17467,1.18555 -1.85866,1.76668c-0.6669,0.5666 -1.21349,1.1402 -1.96667,1.54933c-0.79752,0.43321 -1.24994,1.14018 -2.14734,1.284c-0.87483,0.1402 -1.36699,-0.39029 -1.88599,-1.16667c-0.47229,-0.70651 -0.29095,-1.61076 -0.74133,-2.43333c-0.42729,-0.78038 -0.42534,-1.7 -0.42534,-2.59866c0,-0.88533 0.32178,-1.93922 -0.16667,-2.63466c-0.50232,-0.71518 -0.60474,-1.38702 -1.11732,-2.08267c-0.50906,-0.69087 -1.3033,-0.75995 -2.10533,-1.09467c-0.75995,-0.31715 -1.08237,-1.22997 -1.90617,-0.98483c-0.76262,0.22693 -0.71516,1.38483 -1.2045,1.9955c-0.48933,0.61067 -0.5,1.5 -0.5,2.39999c0,0.89551 0,1.8215 0,2.70001c0,0.89999 0,1.7 0,2.59999c0,0.936 0.23196,1.83415 -0.05717,2.59016c-0.34317,0.89728 -0.94057,1.41432 -0.94283,2.30984c-0.00243,0.96399 0,1.836 0,2.7c0,0.89999 0,1.8 0,2.7c0,0.8 0,1.7 0,2.60001c0,0.89999 -0.21323,1.82324 0,2.78932c0.14542,0.65883 0.81326,1.10172 1.22133,1.83217c0.37172,0.66539 0.76601,1.47858 0.77867,2.37851c0.01266,0.90015 0.29002,1.793 1.09984,2.27866c0.72964,0.43756 0.50581,1.50372 1.1855,2.03601c0.72229,0.56567 1.67195,0.36642 1.71466,1.30667c0.03914,0.86176 0.2206,1.74533 0.57466,2.37866c0.48151,0.86127 0.18246,1.83481 0.42984,2.6955c0.22072,0.76788 0.98508,1.22516 0.9955,2.10449c0.01067,0.89993 0,1.80002 0,2.69983c0,0.90018 0,1.70151 0,2.60019c0,0.89999 0,1.79999 0,2.69998c0,0.89999 0.15935,1.89789 -0.35266,2.54733c-0.48456,0.61462 -0.46423,1.54855 -0.93268,2.25134c-0.53012,0.79532 -1.57503,0.32886 -2.3575,0.85849c-0.68311,0.46237 -0.67166,1.32999 -1.19049,2.1095c-0.47089,0.70746 -0.4843,1.57993 -1.08267,2.11734c-0.63846,0.57343 -1.07358,1.23666 -1.084,2.116c-0.01067,0.89993 0,1.80002 0,2.69983c0,0.90018 0,1.70151 0,2.60019c0,0.94281 0.14618,1.68423 0.64734,2.35266c0.49609,0.66168 0.59805,1.38516 1.18599,2.11398c0.56354,0.69858 0.79814,1.5123 1.60268,1.84399c0.74944,0.30899 1.04063,1.24872 1.73067,1.82269c0.65335,0.54346 1.78773,-0.26132 2.54799,0.25198c0.66771,0.45081 0.91457,1.44446 1.67467,1.87866c0.63184,0.36093 1.03674,1.11359 1.636,1.61069c0.61494,0.5101 1.57468,0.42532 2.47467,0.42532c0.89999,0 1.8,0 2.7,0c0.90001,0 1.8,0 2.60001,0c0.91466,0 1.81067,0 2.7,0c0.89999,0 1.8,0 2.7,0c0.90001,0 1.8,0 2.60001,0c0.89999,0 1.84958,0.29108 2.67917,0c0.64233,-0.22537 1.15375,-0.98416 1.92082,-1.42532c0.72282,-0.41571 1.26933,-1.12308 1.95717,-1.51752c0.81941,-0.46988 1.88564,0.08276 2.64284,-0.22382c0.83131,-0.33658 1.65123,-0.80096 2.34734,-0.82886c1.0052,-0.04031 1.98599,-0.00449 2.67349,-0.00449c1.09384,0 1.97916,0 2.77917,0c0.89999,0 1.79999,0 2.69998,0c0.88934,0 1.78534,0 2.69867,0c0.854,0 1.80133,0 2.60135,0c0.89999,0 1.6008,-0.20023 2.284,-0.716c0.61536,-0.46457 1.616,-0.284 2.51599,-0.284c0.89999,0 1.80002,0 2.6955,0c0.92603,0 1.93668,0.24426 2.62051,-0.284c0.6275,-0.48471 1.40567,-0.52112 2.28265,-0.71735c0.80707,-0.18057 1.27744,-0.74054 2.09683,-1.00314c0.75772,-0.24283 0.71518,-1.38486 1.2045,-1.99551c0.48935,-0.61066 0.35791,-1.513 0.51068,-2.39999c0.14349,-0.83316 0.86053,-1.59366 0.98932,-2.47867c0.12122,-0.83292 0.91626,-1.27563 1,-2.12134c0.07883,-0.79608 0.01041,-1.70007 0,-2.60001c-0.01041,-0.90018 -0.46594,-1.63608 -0.87866,-2.5c-0.40732,-0.85266 -0.5321,-1.60028 -1.12134,-2.37915c-0.46362,-0.61282 -1.56601,-0.49472 -1.99548,-1.16818c-0.42725,-0.67001 -0.94363,-1.44653 -1.00452,-2.35266c-0.05365,-0.79819 -0.3707,-1.42896 -0.87848,-2.2215c-0.47845,-0.74673 -0.12152,-1.7785 -0.12152,-2.57849c0,-0.90002 0,-1.76401 0,-2.72086c0,-0.87915 0,-1.77914 0,-2.67917c0,-0.89999 0,-1.79999 0,-2.59998c0,-0.90002 -0.0054,-1.80005 0,-2.70001c0.00534,-0.8894 0.52252,-1.45462 1.01068,-1.92532c0.59277,-0.57159 0.97647,-1.27927 0.98932,-2.17468c0.01263,-0.8793 0.81427,-1.38809 0.99551,-2.10449c0.21964,-0.86816 0.16727,-1.73357 0.65182,-2.34818c0.51202,-0.64944 0.17322,-1.66617 0.35266,-2.51132c0.18027,-0.84912 0.93912,-1.52989 1,-2.436c0.05362,-0.7982 0,-1.7 0,-2.60001c0,-0.89999 0,-1.79999 0,-2.7c0,-0.89999 0,-1.79984 0,-2.7c0,-0.80133 0,-1.7 0,-2.60001c0,-0.89999 0,-1.79999 0,-2.7c0,-0.89999 0,-1.8 0,-2.7c0,-0.8 0.18518,-1.74164 -0.03598,-2.61067c-0.21704,-0.85294 -0.9213,-1.58629 -0.96402,-2.48917c-0.04086,-0.8632 -0.24146,-1.61978 -0.80133,-2.06949c-0.70798,-0.56865 -1.10507,-1.65254 -1.18799,-2.42001c-0.09781,-0.90546 0.01816,-1.83511 -0.51068,-2.38983c-0.46732,-0.4902 -0.50009,-1.41878 -1,-2.02083c-0.51462,-0.61974 -0.95578,-1.38206 -1.41599,-2.19867c-0.39612,-0.7029 -1.21198,-0.98997 -1.784,-1.50583c-0.7272,-0.65579 -1.25729,-1.49246 -1.30002,-2.39534c-0.04135,-0.87386 0.39777,-1.86552 -0.11432,-2.543c-0.48441,-0.64084 -1.87207,-0.26587 -2.38568,-0.87799c-0.57645,-0.687 -1.06628,-1.43222 -1.85181,-1.47467c-0.88974,-0.04808 -1.9278,-0.21364 -2.74802,0.217c-0.64343,0.33783 -1.07697,1.16463 -1.61615,1.77718c-0.4458,0.50644 -0.28403,1.50133 -0.28403,2.40132c0,0.90001 0,1.8 0,2.70001c0,0.89999 -0.02725,1.70041 0,2.59999c0.02859,0.94414 0.94528,0.8829 1.64285,1.35716c0.68216,0.46376 0.49857,1.47049 1.00449,2c0.56851,0.595 0.35266,1.64284 0.35266,2.54285c0,0.89999 0,1.79999 0,2.6955c0,0.87117 0,1.8045 0,2.7045c0,0.8 0.00415,1.72267 -0.61066,2.036c-0.78418,0.39963 -1.60083,0.79726 -2.48917,0.96417c-0.79553,0.14948 -1.07318,1.10239 -1.90018,0.99983c-0.89923,-0.11151 -1.28235,-0.9572 -2.19998,-1c-0.89886,-0.04192 -1.38251,-0.40997 -1.96667,-1c-0.56326,-0.56889 -0.83334,-1.2 -0.83334,-2.10001c0,-0.89999 0,-1.7 0,-2.59999c0,-0.90001 0.28909,-1.85197 -0.01065,-2.68933c-0.26373,-0.73677 -1.04199,-1.25801 -1.70534,-1.69467l-0.29466,-0.88l-0.82266,-0.20267l-0.45067,-0.748" id="svg_4" stroke-width="2" stroke="#000" fill="none"/>
  <path t="20615,20711,20711,20727,20733,20733,20734,20745,20745,20751,20762,20767,20778,20783,20783,20791,20791,20808,20808,20815,20815,20824,20831,20839,20839,20848,20855,20863,20863,20871,20871,20871,20879,20879,20887,20903,20903,20911,20919,20928,20929,20935,20959" d="m245.51137,240.09091c-0.284,1.56934 -0.76436,2.32138 -0.94284,3.24733c-0.17433,0.90446 -0.05716,1.73184 -0.05716,2.68066c0,0.78185 0,1.58934 0,2.66133c0,0.91068 0,1.81067 0,2.71068c0,0.90134 0,1.58533 0,2.536c0,0.76534 0,1.76401 0,2.564c0,0.99866 0,1.94284 0,2.84283c0,0.95718 0.1465,1.8912 -0.08533,2.55716c-0.30832,0.88568 -0.89667,1.61017 -0.91467,2.52167c-0.01422,0.71985 0,1.845 0,2.6265c0,0.79053 0,1.90884 0,2.63052c0,0.98532 0,1.86417 0,2.60666c0,1.0575 0,1.91467 0,2.81467l0,0.79999l0,0.90002l0,0.89999" id="svg_5" stroke-width="2" stroke="#000" fill="none"/>
  <path t="21807,21928,21928,21935,21945,21951,21961,21967,21978,21994,22011,22011,22015,22024,22031,22047,22047,22058,22058,22063,22063,22071,22079,22095,22103,22103,22112,22112,22127,22127,22135,22135,22144,22151,22160,22191,22191,22199,22231" d="m247.51137,241.09091c1,1 1,1.8 1,2.7c0,0.90001 0,1.8 0,2.7c0,0.90001 0,1.8 0,2.70001c0,0.89999 0,1.7 0,2.59999c0,0.90001 0,1.82083 0,2.62151c0,0.88916 0,1.87833 0,2.65765c0,0.99933 0,1.81952 0,2.72086c0,0.89999 0,1.82083 0,2.62149c0,0.88916 0,1.87833 0,2.65765c0,0.99951 0.03973,1.77457 -0.0045,2.67352c-0.04262,0.86603 -0.61209,1.62552 -0.91017,2.54599c-0.27402,0.84616 -0.08533,1.80133 -0.17065,2.60132l-0.41467,0.70001l-0.464,0.89999" id="svg_6" stroke-width="2" stroke="#000" fill="none"/>
  <path t="23095,23239,23247,23255,23263,23271,23279,23279,23288,23296,23305,23319,23327,23336,23343,23351,23351,23359,23367,23380,23383,23399,23415,23425,23425,23442,23447,23447,23463,23464,23472,23476,23493,23495,23511,23527,23551,23560,23575,23831,23871,23927,23983,24055,24087,24135,24135,24159,24190,24246,24510,24574,24591,24607,24623,24647,24655,24679,24703,24887,24895,24910,24951,24951,24967,24982,25006,25047,25047,25095,25135,25191,25287,25319,25343,25367,25541,25703,25711,25723,25727,25727,25735,25743,25752,25759,25768,25783,25895" d="m251.51137,241.09091c0,1.8 -0.00195,2.61961 0.42534,3.39999c0.45038,0.82257 0.57466,1.70001 0.57466,2.60001c0,0.8 0,1.7 0,2.60001c0,0.96399 0,1.836 0,2.7c0,0.89999 0,1.8 0,2.7c0,0.8 0,1.70001 0,2.60001c0,0.89999 0,1.79999 0,2.6955c0,0.92599 0,1.80466 0,2.58984c0,0.93997 0,1.948 0,2.70398c0,0.91068 0,1.81067 0,2.71066c0,0.89868 0,1.86667 0,2.72534c0,0.776 0,1.67468 0,2.57468c0,0.89999 0.25081,1.83716 -0.0045,2.6955c-0.22684,0.76263 -1.39549,0.7045 -2.2955,0.7045c-0.89999,0 -1.8,0 -2.7,0c-0.8,0 -1.7,0 -2.60001,0c-0.87917,0 -1.79025,-0.26059 -2.68399,0.00134c-0.77448,0.22699 -0.716,1.29865 -0.716,2.19867c0,0.89981 0,1.77466 0,2.60132c0,0.89868 -0.05818,1.96744 0.7045,2.19418c0.89944,0.26743 1.86484,0.00449 2.64734,0.00449c1.01216,0 1.84816,0 2.74817,0c0.89999,0 1.7,0 2.59999,0c0.90001,0 1.82996,0.22885 2.68933,0c0.68521,-0.18246 1.18617,-0.94241 1.636,-1.61066c0.48886,-0.7262 0.9166,-1.44559 0.364,-2c-0.68596,-0.6882 -1.12621,-1.42624 -1.47333,-2.18933c-0.38858,-0.85428 -0.64772,-1.6416 -0.9205,-2.49551c-0.24211,-0.75793 -1.291,-0.70898 -1.97017,-1.1405l-0.38249,-0.86398" id="svg_7" stroke-width="2" stroke="#000" fill="none"/>
  <path t="27143,27271,27278,27311,27334,27358,27374,27398,27446,27446" d="m243.51137,139.09091c1.8,0 2.7,0 3.60001,0c0.79999,0 1.7,0 2.59999,0l0.90001,0l0.89999,0l0.8,0" id="svg_8" stroke-width="2" stroke="#000" fill="none"/>
  <path t="28255,28334,28350,28390,28407,28422,28463" d="m245.51137,147.09091c1.8,0 2.7,0 3.60001,0l0.79999,0l0.90001,0l0.89999,0" id="svg_9" stroke-width="2" stroke="#000" fill="none"/>
  <path t="29096,29223,29247,29271,29311" d="m247.51137,155.09091c1.8,0 2.7,0 3.60001,0l0.79999,0" id="svg_10" stroke-width="2" stroke="#000" fill="none"/>
  <path t="29911,29983,29999,29999,30015,30039,30047" d="m244.51137,166.09091c1.75717,0 2.65266,0 3.51601,0l0.96317,0l0.92082,0l0.90001,0" id="svg_11" stroke-width="2" stroke="#000" fill="none"/>
  <path t="30679,30767,30783,30807,30815,30831" d="m247.51137,177.09091c0.80133,0 1.7,0 2.60001,0l0.89999,0l0.89999,0" id="svg_12" stroke-width="2" stroke="#000" fill="none"/>
  <path t="31431,31511,31511,31527,31535,31559,31591" d="m246.51137,186.09091c1,1 1.8,1 2.7,1l0.90001,0l0.89999,0l0.89999,0" id="svg_13" stroke-width="2" stroke="#000" fill="none"/>
  <path t="32183,32263,32287,32319,32343,32343" d="m244.51137,203.09091c1.83333,0.16667 2.2215,0.87849 3.10001,1l0.89999,0l0.8,0" id="svg_14" stroke-width="2" stroke="#000" fill="none"/>
  <path t="32847,32951,32967,32983,32983,33072" d="m245.51137,219.09091c1.8,0 2.636,0 3.48399,0l0.86334,0l1.01666,0" id="svg_15" stroke-width="2" stroke="#000" fill="none"/>
  <path t="33551,33655,33663,33671,33695,33727,33772" d="m245.51137,230.09091c1.8,0 2.7,0 3.60001,0l0.79999,0l0.90001,0l0.9955,0" id="svg_16" stroke-width="2" stroke="#000" fill="none"/>
  <path t="35343,35463,35472,35489" d="m246.51137,210.09091" id="svg_17" stroke-width="2" stroke="#000" fill="none"/>
  <path t="36407,36519,36522,36523,36567,36575,36823" d="m244.51137,193.09091c0.88667,0.99867 1.81467,1 2.757,1l0.85367,0l0.88933,0l0.89999,0" id="svg_18" stroke-width="2" stroke="#000" fill="none"/>
  <path t="38256,38351,38367,38375,38383,38399,38415,38423,38447,38577" d="m246.51137,213.09091c1.8,0 2.61961,0.00195 3.39999,-0.42534c0.82257,-0.45038 1.70001,-0.57466 2.60001,-0.57466l0.916,0l0.7885,0l0.93834,0" id="svg_19" stroke-width="2" stroke="#000" fill="none"/>
  <path t="39615,39710,39719,39736,39743,39743,39753,39759,39759,39767,39775,39775,39783,39791,39799,39799,39807,39807,39815,39815,39823,39823,39831,39831,39839,39847,39847,39855,39855,39863,39863,39863,39871,39879,39887,39887,39895,39895,39903,39903,39911,39919,39919,39927,39927,39927,39936,39936,39943,39943,39952,39952,39959,39959,39967,39967,39967,39975,39990,39999,39999,40015,40039,40039" d="m248.51137,128.09091c0,1.8 0,2.64284 0,3.54167c0,0.94232 0,1.633 0,2.70116c0,0.85733 0,1.6425 0,2.5825c0,1.008 0,1.87016 0,2.67467c0,0.91066 0,1.82133 0,2.67467c0,0.94133 0,1.70934 0,2.66133c0,0.76534 0,1.76401 0,2.564c0,0.99867 0,1.94284 0,2.84283c0,0.85733 0,1.6425 0,2.60384c0,0.84 0,1.836 0,2.63251c0,0.7515 0,1.84883 0,2.72217c0,0.96533 0,1.79866 0,2.77733c0,0.774 0,1.674 0,2.53734c0,0.85866 0,1.80566 0,2.52567c0,1.125 0,1.90649 0,2.69699c0,1.1185 0,1.87601 0,2.74667c0,0.91916 0,1.91466 0,2.71466c0,1 0.00676,1.80002 0,2.8c-0.00534,0.7894 -0.00853,1.55228 -0.5,2.45833c-0.43503,0.80199 -0.5,1.64183 -0.5,2.427l0,0.94l0,1.008l0,0.756" id="svg_20" stroke-width="2" stroke="#000" fill="none"/>
  <path t="41535,41598,41607,41614,41622,41630,41630,41639,41639,41646,41655,41662,41670,41678,41687,41687,41687,41695,41695,41695,41702,41703,41710,41721,41721,41726,41726,41726,41734,41735,41742,41750,41759,41759,41767,41775,41790,41790,41800,41800,41815,41823,41830,41846,41847,41886" d="m247.51137,130.09091c0,1.61067 0,2.5 0,3.39999c0,0.90451 0,1.92134 0,2.60001c0,0.9785 0,1.79866 0,2.7c0,0.90001 0,1.8 0,2.68933c0,0.97684 0,1.944 0,2.625c0,0.80701 0,1.98567 0,2.58301c0,0.86099 0,2.06934 0,2.86099c0,0.84618 0,1.86317 0,2.5625c0,0.97917 0,1.77917 0,2.57918c0,0.9955 0,1.91466 0,2.76399c0,0.94051 0,1.95717 0,2.61517c0,1.03549 0,1.7825 0,2.67799c0,0.94417 0,1.93834 0,2.68567c0,1.02116 0,1.85716 0,2.75717l0,0.89999l0,0.8l0,1.03333" id="svg_21" stroke-width="2" stroke="#000" fill="none"/>
  <path t="42655,42678,42686,42694,42699,42710,42720,42727,42734,42742,42751,42758,42766,42782,42791,42791,42799,42806,42807,42815,42816,42822,42832,42838,42846,42855,42855,42862,42871,42878,42887,42887,42895,42895,42919,42927,42927,42937,42937,42954,42959,42975,42975,42975,42987,42987,42991,42999,42999" d="m252.51137,131.09091c0,1.8 0,2.7 0,3.60001c0,0.87917 0,1.75716 0,2.7c0,0.89999 0,1.8 0,2.7c0,0.83333 0,1.61067 0,2.60001c0,0.81065 0,1.72133 0,2.57466c0,0.94 0.00502,1.82535 0,2.71066c-0.00534,0.94005 -0.04327,1.64989 -0.5,2.59384c-0.40622,0.83955 -0.5,1.72083 -0.5,2.62083c0,0.89999 0.16132,1.72388 -0.036,2.5c-0.21921,0.86227 -0.9213,1.59851 -0.964,2.56667c-0.03673,0.83252 0.37585,1.79234 -0.08533,2.54666c-0.49141,0.80376 -0.91467,1.45334 -0.91467,2.112c0,1.008 0.18715,1.89738 -0.036,2.77467c-0.22284,0.87607 -1.00653,1.54367 -1.35333,2.23599c-0.37245,0.74355 -0.55801,1.75951 -0.66335,2.50684l-0.29999,0.89999l-0.48067,0.75717l-0.16534,0.8" id="svg_22" stroke-width="2" stroke="#000" fill="none"/>
  <path t="43935,44030,44038,44048,44048,44054,44054,44064,44064,44070,44078,44078,44094,44103,44110,44119,44119,44126,44127,44142,44142,44150,44150,44158,44166,44167,44174,44174,44174,44183,44190,44191,44199,44206,44207,44214,44223,44223,44231,44231,44247,44247,44254,44255,44264,44264,44271,44278,44279,44287,44287,44295,44295,44303,44303,44310,44310,44319,44327,44335,44343,44343,44351,44351,44359,44367,44367,44375,44385,44391,44391,44402,44407,44416,44423,44438,44455,44471" d="m247.51137,179.09091c0,1.61067 0,2.52083 0,3.48534c0,0.72533 0,1.71449 0,2.49384c0,0.99933 0,1.81949 0,2.778c0,0.89099 0,1.67349 0,2.67883c0,0.864 0,1.76534 0,2.73067c0,0.83333 0,1.66666 0,2.586c0,0.9045 0,1.65182 0,2.64467c0,0.88832 0,1.76517 0,2.66966c0,0.729 0,1.76633 0,2.68633c0,0.76001 0,1.74667 0,2.73067c0,0.69067 0,1.75883 0,2.61617c0,0.78517 0,1.72517 0,2.73317c0,0.79201 0,1.65201 0,2.57117c0,0.9955 0,1.7955 0,2.79533c0,0.77934 0,1.6335 0,2.49567c0,0.94051 0.07361,1.79749 -0.05717,2.709c-0.14482,1.00938 -0.55067,1.54025 -0.82132,2.57417c-0.19823,0.75728 -0.12151,1.6785 -0.12151,2.42583c0,0.99417 0,1.93834 0,2.83383c0,0.931 0,1.7825 0,2.74034c0,0.774 0,1.674 0,2.53734c0,0.98399 0,1.96799 0,2.65866c0,1.06816 0,1.92534 0,2.82533c0,0.8 0,1.7 0,2.60001c0,0.89999 0,1.79999 0,2.7l0,0.89999l0,0.90001" id="svg_23" stroke-width="2" stroke="#000" fill="none"/>
  <path t="45024,45046,45046,45046,45055,45055,45055,45063,45063,45063,45063,45071,45071,45071,45079,45079,45079,45087,45087,45087,45087,45096,45096,45103,45103,45103,45111,45111,45111,45119,45119,45127,45127,45135,45143,45151,45151" d="m249.51137,209.09091c0,3.60001 0,4.5 0,5.10001c0,1.2 0,2.09999 0,3c0,0.89999 0,1.79999 0,2.7c0,0.59999 0,1.8 0,2.7c0,0.60001 0,1.8 0,2.7c0,0.60001 0,1.8 0,2.6955c0,0.58368 0,1.41917 0,2.65184c0,0.67799 0,1.61934 0,2.40533c0,0.82199 0,1.88066 0,2.81133c0,0.83467 0,1.83601 0,2.636c0,0.99867 0,1.76401 0,2.71468l0,0.98534l0,0.89999l0,0.8" id="svg_24" stroke-width="2" stroke="#000" fill="none"/>
  <path t="46303,46455,46472,46543,46631" d="m246.51137,119.09091c-1.7,0 -2.64284,0 -3.52083,0l-0.87917,0" id="svg_25" stroke-width="2" stroke="#000" fill="none"/>
  <path t="47392,47535,47567,47599,47783,47927" d="m246.51137,116.09091c-0.80133,0 -1.7,0 -2.64284,0l-0.39316,-0.57467l-0.6685,-0.42083" id="svg_26" stroke-width="2" stroke="#000" fill="none"/>
  <path t="49311,49471,49471,49519,49561,49647" d="m243.51137,110.09091c1,0 1.8,0 2.7,0l0.94284,0l0.87799,0" id="svg_27" stroke-width="2" stroke="#000" fill="none"/>
  <path t="50383,50519,50559,50589" d="m252.51137,110.09091" id="svg_28" stroke-width="2" stroke="#000" fill="none"/>
  <path t="51287,51367,51383,51431,51431" d="m253.51137,115.09091c1.8,0 2.636,0 3.48399,0l0.86334,0" id="svg_29" stroke-width="2" stroke="#000" fill="none"/>
  <path t="51903,51999,52023,52055" d="m254.51137,111.09091" id="svg_30" stroke-width="2" stroke="#000" fill="none"/>
  <path t="52752,52903,52943,53023,53055" d="m254.51137,121.09091c1.8,0 2.7,0 3.59999,0l0.89999,0" id="svg_31" stroke-width="2" stroke="#000" fill="none"/>
  <path t="57071,57167,57176,57183,57191,57199,57207,57207,57216,57216,57223,57223,57233,57239,57239,57247,57247,57255,57271,57279,57303,57327,57343,57359,57367,57383,57399,57423,57423,57439,57447,57511,57520,57575,57599,57639,57647,57679,57703,57711,57711,57735,57743,57775,57791,57823,57855,57887,57903,57903,57919,57935,57959,57975,57987,58007,58031,58039,58063,58095,58119,58128,58143,58175,58175,58191,58231,58263,58271,58287,58335,58351,58423,58479" d="m263.51135,249.09091c0,2.58932 0,3.5 0,4.39999c0,0.90001 0.00781,1.80138 0,2.76666c-0.00534,0.65872 -0.18829,1.65631 -0.5,2.33334c-0.44604,0.96881 -0.49774,1.79016 -0.5,2.66251c-0.00232,0.89999 0,1.5975 0,2.69449c0,0.83401 0,1.74301 0,2.64301c0,0.89999 0,1.79999 0,2.70001c0,0.89981 0,1.79999 0,2.60132c0,0.89868 0,1.83466 0,2.68268c0,0.86331 -0.03085,1.89917 0.42535,2.49066c0.51917,0.6731 0.3952,1.73792 1.01065,2.02533c0.78284,0.3656 1.77673,0.1507 2.66385,-0.00015c0.85107,-0.14471 0.90015,-1.09985 0.90015,-1.99985c0,-0.79999 0,-1.70001 0,-2.64282c0,-0.87802 0,-1.75717 0,-2.65268c0,-0.92599 0,-1.8045 0,-2.7045c0,-0.79999 0,-1.70001 0,-2.60001c0,-0.89999 0,-1.79999 0,-2.69998c0,-0.90002 0.31308,-1.8638 -0.02081,-2.70001c-0.30569,-0.76563 -0.96118,-1.39944 -0.97919,-2.29999c-0.01801,-0.89984 0,-1.80002 0,-2.70001c0,-0.8 0,-1.7 0,-2.60001c0,-0.89999 -0.04926,-1.84993 -0.57465,-2.38933c-0.47314,-0.48576 -1.07266,-1.06334 -1.478,-1.71516l-0.44736,-0.77467" id="svg_32" stroke-width="2" stroke="#000" fill="none"/>
 </g>
 <g display="none">
  <title>muse_image</title>
  <image xlink:href="http://farm4.static.flickr.com/3089/3120123337_f2e1759196.jpg" id="muse" height="480" width="319" y="0" x="160.5"/>
 </g>
 <g display="none">
  <title>bbox</title>
  <rect stroke="#f00" fill="none" stroke-width="3" height="298.56" width="100.58559" y="60.48" x="200.73423" id="bbox"/>
 </g>
</svg>
