<svg width="640" height="480" xmlns="http://www.w3.org/2000/svg" xmlns:svg="http://www.w3.org/2000/svg" xmlns:xlink="http://www.w3.org/1999/xlink">
 <!-- Sketchy ANNOTATION
  ImageNet ID: n03272010_5887
  URL: http://farm1.static.flickr.com/6/9362744_b85f906c10.jpg
  Image Width: 500
  Image Height: 375
  BBox X: 56
  BBox Y: 137
  BBox Width: 416
  BBox Height: 116
  Exposure: 2000ms
  Synset Label: guitar
  Synset ID: n03467517
  Worker Tag: guitar kept in the box
  Sanity Check: 
   Saved
  Comment: 
   {}
  Worker ID: A1P7U2ULSAE7YL
  Assignment ID: 3TYCR1GOTCJFB2P0LJ2ATH7WUR5ZLQ
  HIT ID: 36D1BWBEHN17OP6F6MP9HZHT5852MO
  Work Time: 474s
  Worker Score: 0.7857
 END ANNOTATION -->
 <g display="inline">
  <title>Layer 1</title>
  <path t="0,237,245,261,269,285,285,293,293,309,309,317,317,325,325,341,349,349,358,358,358,365,375,375,375,381,381,389,389,397,397,405,405,405,413,413,421,421,429,429,429,437,437,437,445,445,445,453,453,461,461,469,469,469,477,477,477,485,485,485,493,493,501,501,509,509,509,517,517,517,525,525,533,533,533,533,541,541,541,541,541,549,550,550,558,558,558,565,565,565,565,574,575,575,575,581,581,581,589,589,589,597,597,605,605,613,613,621,621,621,629,637,637,645,646,653,653,661,669,669,669,677,678,678,685,685,685,694,694,694,701,701,701,711,711,711,717,717,717,727,728,728,733,733,733,741,741,741,749,749,758,758,758,758,765,765,765,774,774,774,781,781,789,789,797,797,805,805,805,813,813,821,821,829,837,837,845,845,853,853,853,861,861,869,877,877,877,885,885,894,894,901,901,911,911,917,917,917,927,927,933,941,949,949,949,957,965,965,974,981,981,991,991,997,997,1005,1005,1013,1021,1021,1029,1029,1037,1037,1037,1047,1047,1053,1053,1064,1069,1069,1077,1077,1077,1094,1101,1101,1111,1581,1597,1607,1622,1653,1653,1709,1781,1797,1828,1876,2077,2109,2133,2141" d="m189.51137,247.09091c1.8,0 2.7,0 3.60001,0c0.81065,0 1.72133,0 2.57466,0c0.94133,0 1.70934,0 2.66133,0c0.76534,0 1.76401,0 2.564,0c0.99734,0 1.88567,0 2.88667,0c0.88,0 1.73416,0 2.71333,0c0.78934,0 1.51466,0 2.52083,0c1.02184,0 1.72984,-0.00139 2.47383,0c1.20001,0.00226 1.97786,0.06796 2.77335,0.284c0.73653,0.20003 1.89069,0.60173 2.58133,0.68001c0.97839,0.11089 1.912,0.036 2.7025,0.036c1.0265,0 1.70149,0 2.78149,0c0.828,0 1.70967,0 2.43867,0c0.83699,0 2.028,0 2.62799,0c0.90001,0 2.10001,0 2.69734,0c0.86099,0 2.06934,0 2.88184,0c0.8425,0 1.5625,0 2.6875,0c0.786,0 1.60799,0 2.66666,0c0.714,0 1.61934,0 2.58784,0c0.79349,0 1.56898,0 2.769,0c0.69249,0 1.65649,0 2.49649,0c0.99867,0 1.83417,0 2.41783,0c1.19518,0 2.07417,0 2.88118,0c1.04765,0 1.87683,0 2.77899,0c0.95399,0 1.70334,0 2.52466,0c0.87735,0 1.79202,0 2.71469,0c0.89865,0 1.74133,0 2.83167,0c0.86697,0 1.608,0 2.586,0c0.82498,0 1.73999,0 2.745,0c0.71732,0 1.45865,0 2.20801,0c1.45865,0 2.13998,0 3.10449,0c0.61633,0 1.82065,0 2.41632,0c0.8685,0 1.93784,0 2.8685,0c0.83469,0 1.836,0 2.63602,0c1,0 1.79999,0 2.79999,0c0.79999,0 1.79999,0 2.58932,0c0.72534,0 1.71066,0 2.69601,0c0.72534,0 1.71451,0 2.49384,0c0.99933,0 1.82562,-0.07336 2.69284,0.036c0.88333,0.11139 1.84448,0.48067 2.37982,0.61134c1.25653,0.30673 1.96881,0.34117 2.7175,0.35133c1.19855,0.01628 1.88135,0.00133 2.57999,0.00133c1.31735,0 2.13635,0 2.82935,0c1.02167,0 1.86301,0 2.59201,0c1.19733,0 1.88,0 2.57864,0c1.31735,0 2.14084,0 2.86536,0c0.952,0 1.73798,0 2.56,0c1.05865,0 2,0 2.67798,0c0.96869,0 1.77267,0 2.59467,0c1.26868,0 1.95267,0 3.11935,0c0.7905,0 1.35416,0 2.23465,0c1.19867,0 1.79868,0 2.69867,0c1.19968,0 2.07867,0 2.62802,0c1.12915,0 2.02014,0 2.92917,0c0.74731,0 1.74414,0 2.57883,0c0.93066,0 1.71216,0 2.50266,0c1.1185,0 2.00949,0 2.914,0c0.86334,0 1.72202,0 2.66882,0c0.88919,0 1.87851,0 2.6785,0c1,0 1.80002,0 2.60001,0c0.99551,0 1.74283,0 2.78534,0c0.948,0 1.62,0 2.36401,0c1.10782,0 1.99881,0 2.90784,0c0.74731,0 1.74283,0 2.54282,0c1,0 1.79999,0 2.79999,0c0.80002,0 1.60001,0 2.59552,0c0.91916,0 1.88367,0 2.7135,0c1.02432,0 1.69183,0 2.62848,0c0.97586,0 1.77234,0 2.57983,0c0.98267,0 1.96802,0 2.69336,0c0.98932,0 1.78931,0 2.78931,0c0.78934,0 1.83334,0 2.58936,0c0.93149,0 1.896,0 2.62134,0c0.98932,0 1.78931,0 2.78931,0c0.80002,0 1.60001,0 2.60001,0c0.80002,0 1.79868,0 2.564,0c1.08334,0 2.00269,0 2.85684,0c0.97916,0 1.76849,0 2.49384,0c0.98532,0 1.96933,0 2.66,0c1.06366,0 2.25519,-0.35175 2.73999,0.28534c0.55557,0.73009 0.53802,1.43085 1.25201,1.88133c0.70987,0.44789 0.82797,1.43329 0.83331,2.33333c0.00531,0.89998 0,1.8 0,2.70001c0,0.89999 0,1.79999 -0.16666,2.63333l-0.74933,0.45065" id="svg_1" stroke-width="2" stroke="#000" fill="none"/>
  <path t="3798,4005,4014,4022,4022,4022,4030,4030,4038,4038,4046,4055,4055,4062,4062,4062,4071,4071,4078,4086,4094,4094,4094,4102,4102,4110,4110,4118,4118,4126,4126,4134,4134,4142,4150,4150,4158,4166,4166,4166,4174,4174,4182,4190,4198,4198,4206,4206,4214,4222,4230,4230,4238,4246,4261,4262,4271,4278,4278,4286,4286,4294,4302,4310,4318,4326,4338,4342,4342,4350,4358,4366,4373,4382,4389,4398,4398,4405,4414,4421,4421,4430,4437,4446,4446,4454,4454,4462,4471,4478,4478,4487,4488,4494,4494,4501,4510,4517,4518,4533,4533,4542,4542,4549,4550,4558,4558,4566,4566,4574,4582,4582,4591,4591,4598,4598,4598,4605,4605,4614,4614,4624,4624,4630,4630,4637,4638,4646,4654,4654,4662,4662,4671,4687,4687,4687,4694,4694,4702,4702,4710,4718,4718,4718,4726,4726,4726,4733,4734,4743,4743,4750,4750,4757,4758,4766,4766,4774,4782,4791,4791,4798,4807,4822,4822,4830,4830,4838,4838,4846,4854,4854,4862,4862,4870,4870,4887,4887,4909,4910,4926,4933,4949,4949,4965,4974,4974,4982,4991,4998,5013,5023,5024,5030,5040,5040,5046,5057,5057,5070,5101,5125,5141,5157,5173,5173,5182,5182,5213,5222,5245,5293,5309,5325,5341,5342,5357,5358,5373,5389,5469,5501,5541,5557,5573,5573,5589,5693,5718,5726,5757,5869,5909,5933,5973,6045,6061,6078,6133,6165,6174,6190,6197" d="m193.51137,260.09091c3.45833,0 4.3045,0 5.16667,0c0.875,0 1.51999,0 2.78149,0c0.7905,0 1.71851,0 2.51016,0c0.95233,0 1.86334,0 2.58334,0c1.125,0 1.90649,0 2.69699,0c1.11833,0 1.84,0 2.76134,0c0.92133,0 1.83333,0 2.75067,0c0.74399,0 1.78,0 2.4975,0c0.909,0 1.85316,0 2.85184,0c0.79999,0 1.79866,0 2.564,0c0.952,0 1.72,0 2.66133,0c1.008,0 1.76399,0 2.71634,0c1.00116,0 1.71967,0 2.51016,0c1.02634,0 1.88567,0 2.83833,0c0.87151,0 1.767,0 2.51433,0c0.99417,0 1.75951,0 2.83833,0c0.85718,0 1.75717,0 2.55717,0c0.89999,0 1.84344,-0.03232 2.76933,0.00134c0.78397,0.0285 1.60057,0.49243 2.43066,0.832c0.71669,0.29318 1.65266,0.16666 2.51601,0.16666c0.96317,0 1.88399,0 2.784,0c0.89867,0 1.80983,0 2.56133,0c0.972,0 1.83418,0 2.73866,0c0.89999,0 1.80002,0 2.70001,0c0.89999,0 1.79999,0 2.69998,0c0.80002,0 1.70001,0 2.63602,0c0.84799,0 1.71133,0 2.728,0c0.83734,0 1.80267,0 2.47202,0c1.16397,0 1.94266,0 2.83066,0c0.875,0 1.81866,0 2.54401,0c0.98917,0 1.76849,0 2.76782,0c0.82016,0 1.7215,0 2.6575,0c0.84665,0 1.65417,0 2.69733,0c0.85199,0 1.78268,0 2.55066,0c0.95203,0 1.71735,0 2.716,0c0.80002,0 1.79868,0 2.564,0c1.07886,0 1.93619,0 2.72134,0c0.96133,0 1.80133,0 2.79868,0c0.81598,0 1.63199,0 2.63065,0c0.87469,0 1.88519,0 2.66452,0c0.85416,0 1.77414,-0.02957 2.67801,0.00449c0.74863,0.0282 1.73868,0.28699 2.50681,0.57019c0.94733,0.34927 1.836,0.42532 2.59317,0.42532c0.89551,0 1.75885,0 2.70117,0c1.04166,0 1.83899,0 2.59799,0c1.022,0 1.90201,0 2.77701,0c0.86218,0 1.70834,0 2.7095,0c0.71851,0 1.509,0 2.53583,0c0.92133,0 1.60535,0 2.604,0c0.79651,0 1.98401,0 2.79651,0c0.84232,0 1.73151,0 2.72067,0c0.77933,0 1.77866,0 2.59882,0c0.90134,0 1.72217,0 2.68533,0c0.86334,0 1.75885,0 2.71735,0c0.96533,0 1.62399,0 2.63199,0c0.79199,0 1.81934,0 2.51401,0c1.02734,0 1.974,0 2.82733,0c0.94135,0 1.70932,0 2.66135,0c0.76532,0 1.75497,0 2.59332,0c1.01349,0 1.75598,0 2.68533,0c0.98532,0 1.88531,0 2.68533,0c0.836,0 1.90573,-0.22012 2.63068,0.08533c0.80917,0.34094 1.41949,0.89667 2.39999,0.91467c0.81583,0.01498 1.82199,0 2.51666,0c1.02734,0 1.974,0 2.65265,0c1.11469,0 2,0 2.80002,0c0.91467,0 1.81067,0 2.69998,0c0.90002,0 1.8045,0 2.66669,0c0.83331,0 1.81183,0 2.63199,0c0.90134,0 1.80133,0 2.68051,0c0.87799,0 1.82083,0 2.72083,0c0.90018,0 1.68533,0 2.62534,0c0.69067,0 1.76401,0 2.67465,0c0.90002,0 1.7955,0 2.72153,0c0.87848,0 1.77847,0 2.57849,0c0.89999,0 1.79999,0 2.69998,0c0.90002,0 1.80002,0.00009 2.70001,0c0.89984,-0.00009 1.73911,-0.21524 1.79999,-1.09982c0.06183,-0.89804 0,-1.70151 0,-2.61484c0,-0.896 0,-1.78534 0,-2.68533l0,-0.90001l0,-0.89867" id="svg_2" stroke-width="2" stroke="#000" fill="none"/>
  <path t="7462,7565,7565,7574,7613,7629,7677,7693,7733,7757,7773,7773,7869,7917,7941,7973,8005,8045" d="m188.51137,248.09091c-1,1 -1,1.8 -1,2.71466c0,0.89601 0,1.78534 0,2.68533c0,0.90001 0,1.8 0,2.70001c0,0.89999 -0.01874,1.70016 0,2.60001c0.01801,0.86453 0.7045,1.2955 1.60001,1.29999l0.89999,0l0.89999,0" id="svg_3" stroke-width="2" stroke="#000" fill="none"/>
  <path t="16085,16181,16197,16205,16213,16229,16253,16261,16277,16285,16301,16310,16317,16327,16333,16343,16349,16360,16360,16365,16373,16390,16390,16407,16429,16453,16469,16477,16485,16485,16501,16510,16510,16517,16533,16543,16549,16557,16573,16597,16613,16621,16637,16669,16709,16725,16741,16773,16781,16797,16797,16806,16823,16829,16837,16845,16861,16861,16869,17045,17054,17069,17085,17085,17101,17117,17117,17125,17133,17141,17157,17157,17165,17165,17173,17189,17221,17229,17245,17253,17261,17269,17269,17277,17285,17301,17309,17341,17349,17357,17373,17373,17381,17389,17405,17414,17429,17445,17701,17717,17717,17741,17741,17749,17765,17765,17775,17775,17781,17791,17797,17805,17813,17822,17822,17829,17838,17845,17853,17853,17861,17869,17885,17885,17901,17901,17909,17917,17933,17949,17965,17975,17975,18005,18021,18045,18061,18061,18077,18117,18149,18149,18173,18189,18229,18260,18285,18293,18310,18333,18341,18389,18533,18581,18590,18590,18608,18629,18637,18654,18661,18671,18677,18685,18685" d="m190.51137,250.09091c-0.87866,-1.22133 -1.38687,-1.90584 -1.97467,-2.42534c-0.58282,-0.51511 -1.56421,-0.51402 -2.32533,-0.92732c-0.74622,-0.4052 -1.24495,-1.09763 -1.98534,-1.56201c-0.7771,-0.48741 -1.69183,-0.23828 -2.32533,-0.65999c-0.81329,-0.54138 -1.78932,-0.42467 -2.68933,-0.42534c-0.89999,-0.00067 -1.82491,-0.19209 -2.39999,-0.7045c-0.62881,-0.56026 -1.39389,-1.23462 -2.3,-1.2955c-0.7982,-0.05363 -1.71466,0 -2.61067,0c-0.88933,0 -1.83386,0.09546 -2.58932,-0.284c-0.8672,-0.43558 -1.60001,-0.71533 -2.436,-0.716c-1.01666,-0.00081 -1.72484,0.1548 -2.728,-0.01067c-0.86658,-0.14294 -1.19754,-1.02257 -1.69318,-1.63667c-0.51685,-0.64038 -1.64288,-0.342 -2.54283,-0.35266c-0.87935,-0.01042 -1.39429,-0.8181 -2.20132,-0.99867c-0.87698,-0.19623 -1.79868,-0.00133 -2.69867,-0.00133c-0.88933,0 -1.79015,0.09238 -2.7,-0.00133c-0.81261,-0.08369 -1.45261,-0.79886 -2.3,-0.97784c-0.8808,-0.18605 -1.8,-0.02075 -2.7,-0.02083c-0.90001,-0.00009 -1.75569,-0.23863 -2.5,-0.64734c-0.74234,-0.40764 -1.3,0.08334 -1.3,0.94734c0,0.90134 0,1.86667 0,2.67917c0,0.9155 0,1.73067 0,2.53816c0,0.96184 0,1.88266 0,2.78717c0,1.01683 0,1.6955 0,2.674c0,0.82016 0,1.7215 0,2.66434c0,0.87799 0,1.75716 0,2.65717c0,0.89999 0,1.8 0,2.7c0,0.79999 0,1.70001 0,2.60001c0,0.89999 0,1.87915 0,2.75717c0,0.84283 0,1.74283 0,2.64282c0,0.79999 0,1.70001 0,2.60001c0,0.89999 0,1.79999 0,2.69998c0,0.89868 0.16667,1.70001 1,1.70001c0.75717,0 1.65266,0 2.51601,0c0.98399,0 1.96933,0 2.69466,0c0.98917,0 1.77576,0.12 2.76767,-0.00015c0.92038,-0.11148 1.30403,-0.95712 2.22166,-0.99985c0.89903,-0.04184 1.8,0 2.60001,0c0.89999,0 1.8,0.00009 2.72083,0c0.80034,-0.00009 1.7964,0.1886 2.45834,-0.52084c0.58803,-0.63022 1.11418,-1.41699 1.90616,-1.47781c0.93724,-0.07196 1.63068,-0.00134 2.70399,-0.00134c0.91068,0 1.81067,0.00067 2.71068,0c0.89999,-0.00067 1.64308,-0.25409 2.34283,-0.64734c0.82484,-0.46356 1.8017,-0.2572 2.55716,-0.63666c0.86722,-0.43558 1.62344,-0.3027 2.44284,-0.77316c0.81207,-0.46628 1.35716,-0.94284 2.15717,-0.94284c0.89999,0 1.84958,0.29108 2.67917,0c0.64233,-0.22537 1.13145,-0.99466 2.02083,-1c0.89998,-0.0054 1.8,0 2.7,0c0.90001,0 2.03241,0.43427 2.63333,-0.16666c0.60094,-0.60092 0.16667,-1.63333 0.16667,-2.548c0,-0.896 0,-1.78534 0,-2.68533c0,-0.89999 0,-1.80002 0,-2.70001l0,-0.89999l0,-0.8" id="svg_5" stroke-width="2" stroke="#000" fill="none"/>
  <path t="20894,20990,21014,21022,21022,21038,21062,21077,21093,21102,21125,21150,21166,21181,21213,21245,21262,21277,21278,21286,21302,21310,21326,21336,21365,21381,21397,21429,21453,21462,21478,21478,21493,21502,21510,21526,21535,21535,21542,21552,21559,21566,21574,21594,21597,21613,21629,21645,21646,21662,21672,21678,21691,21702,21710,21718,21726,21735,21758,21789,21813,21837,21877,21894,21925,21957,21966,21981,21982,21997,22013,22024,22077,22077,22090,22110,22118,22126,22134,22142,22157,22181,22191,22198,22213,22224,22230,22261,22269,22285,22304,22317,22326,22342,22351,22358,22373,22381,22389,22390,22397,22408,22408,22413,22414,22422,22429,22437,22438,22446,22453,22469,22469,22469,22478,22478,22494,22494,22509,22525,22534,22534,22542,22557,22567,22574,22583,22598,22613,22613,22622,22645,22661,22677,22677,22685,22685,22701,22710,22717,22726,22726,22749,22749,22757,22774,22783,22790,22797,22806,22813,22829,22829,22845,22845,22853,22862,22877,22886,22894,22903,22910,22917,22926,22936,22950,22958,22958,22966,22983,22983,22998,23006,23014,23022,23038,23046,23061,23070,23078,23085,23109,23119,23126,23126,23136,23152,23153,23166,23174,23174,23183,23190,23206,23214,23222,23245,23254,23269,23286,23301,23319,23319,23326,23341,23357,23366,23374,23374,23389,23406,23406,23414,23414,23422,23430,23438,23445,23461,23462,23470,23470,23478,23485,23494,23502,23510,23519,23526,23535,23542,23552,23552,23558,23558,23566,23574,23582,23583,23590,23599,23599,23606,23622,23629,23638,23638,23645,23661,23662,23669,23678,23678,23685,23709,23725,23735,23757,23774,23789,23799,23816,23822,23830,23838,23838,23854,23862,23870,23878,23893,23909,23920,23926,23936,23942,23952,23967,23982,23990,24006,24006,24021,24022,24030,24038,24054,24054,24062,24070,24101,24101,24117,24117,24126,24134,24142,24157,24168,24174,24174,24189,24213,24222,24238,24254,24254,24277,24285,24286,24301,24310,24318,24349,24358,24373,24389,24405,24405,24416,24438,24446,24461,24485,24485,24501,24510,24517,24533,24549,24567,24568,24589,24589,24605,24614,24631,24646,24669,24685,24701,24702,24717,24726,24737,24757,24757,24770,24770,24782,24805,24815,24831,24839,24848,24861,24862,24872,24878,24893,24909,24926,24938,24955,24955,24958,24959,24971,24975,24990,24998,25006,25014,25022,25023,25031,25038,25039,25054,25062,25072,25088,25089,25105,25110,25110,25125,25142,25155,25158,25174,25188,25189,25197,25198,25221,25238,25255,25255,25255,25262,25272,25273,25278,25286,25294,25309,25322,25326,25338,25343,25353,25358,25371,25374,25388,25397,25414,25423,25438,25438,25455,25470,25486,25503,25510,25510,25518,25526,25536,25542,25553,25558,25569,25570,25574,25574,25586,25590,25590,25613,25613,25622,25638,25638,25647,25654,25654,25663,25670,25678,25701,25710,25725,25737,25742,25742,25754,25758,25758,25771,25771,25774,25788,25788,25789,25814,25822,25822,25830,25839,25853,25854,25863,25870,25870,25878,25893,25904,25905,25910,25910,25917,25926,25936,25937,25942,25942,25949,25969,25974,25974,25989,26002,26006,26013,26022,26030,26046,26056,26069,26079,26094,26103,26110,26133,26149,26158,26159,26170,26174,26186,26202,26206,26220,26222,26237,26254,26263,26263,26270,26286,26286,26302,26319,26336,26342,26357,26357,26365,26385,26406,26437,26461,26477,26501,26517,26525,26549,26549,26565,26573,26573,26586,26590,26605,26621,26646,26662,26662,26677,26687,26703,26741,26751,26751,26781,26789,26821,26831,26838,26846,26862,26862,26879,26886,26886,26895,26949,26965,26973,26989,27013,27037,27046,27054,27062,27071,27079,27095,27117,27126,27149,27165,27165,27185,27201,27218,27245,27245,27269,27279,27301,27302,27333,27365,27381,27401,27421,27435,27438,27454,27477,27477,27493,27502,27511,27519,27526,27536,27549,27568,27568,27574,27574,27589,27601,27606,27629,27639,27640,27651,27670,27678,27695,27702,27702,27733,27743,27767,27781,27837,27861,27871,27925,27935,27965,28005,28045,28056,28067,28109" d="m367.51135,248.09091c1.22153,-0.87849 2.10001,-1 3,-1c0.80002,0 1.56668,-0.1035 2.05719,-0.64734c0.62546,-0.69348 1.18076,-1.1445 2.04266,-1.35283c0.83911,-0.20282 0.78937,-1.10667 0.90015,-1.99983c0.11151,-0.89923 0.95731,-1.2811 1,-2.2215c0.03986,-0.87761 0,-1.7785 0,-2.57851c0,-0.89999 0,-1.8 0,-2.7c0,-0.89999 0,-1.8 0,-2.7c0,-0.89984 0.33478,-1.91666 -0.16666,-2.63333c-0.50128,-0.71645 -1.23773,-1.01393 -2.03333,-1.45067c-0.64813,-0.35577 -1.3569,-0.87247 -1.80133,-1.632c-0.39474,-0.67462 -1.32373,-0.96231 -2.16534,-1.25067c-0.83847,-0.28728 -1.29913,-1.21101 -2.05484,-1.71182c-0.73926,-0.4899 -1.9274,0.21556 -2.61182,-0.28818c-0.65298,-0.48059 -1.26715,-0.79961 -2.16669,-0.83333c-0.76328,-0.02861 -1.67468,-0.31624 -2.34732,-0.7045c-0.92926,-0.53638 -1.64032,-1.21176 -2.48599,-1.2955c-0.77356,-0.0766 -1.7001,0.04651 -2.56668,-0.42534c-0.7323,-0.39873 -1.26834,-1.12195 -1.95267,-1.5175c-0.80792,-0.467 -1.63071,-0.47462 -2.14734,-1.05716c-0.53448,-0.60268 -0.91821,-1.41605 -1.69864,-1.916c-0.72845,-0.46666 -0.80136,-1.284 -0.80136,-2.18401c0,-0.89999 -0.02725,-1.70041 0,-2.59999c0.02859,-0.94414 0.80621,-1.36076 1,-2.3c0.16257,-0.78795 0.68552,-1.42258 0.94284,-2.3c0.25345,-0.86417 0.45987,-1.40923 1.35266,-1.7045c0.75543,-0.24985 0.49713,-1.31456 0.70468,-2.21683c0.18094,-0.78651 0.89655,-1.29924 1.6105,-1.804c0.71478,-0.50536 1.44681,-0.87907 2.38931,-0.97467c0.84552,-0.08575 1.23795,-0.79184 2.09985,-1.00017c0.83911,-0.20282 0.56909,-1.45259 1.18549,-1.91451c0.73514,-0.55089 1.81451,-0.08533 2.70001,-0.08533c0.87601,0 1.86975,0.14767 2.604,-0.036c0.88177,-0.22058 1.56866,-0.86102 2.41064,-0.94318c0.97427,-0.09506 1.75269,-0.02083 2.64819,-0.02083c1.01849,0 1.92114,0 2.70364,0c0.89102,0 1.87073,0.09381 2.81485,-0.16667c0.69174,-0.19086 1.41989,-0.62866 2.43332,-0.77617c0.7934,-0.11548 1.79733,-0.05716 2.52802,-0.05716c0.97733,0 1.89282,0 2.85049,0c0.82016,0 1.7215,0 2.62149,0c0.89999,0 1.80002,0 2.70001,0c0.89999,0 1.83401,-0.14651 2.5,0.08533c0.88565,0.30832 1.59946,0.89667 2.50449,0.91467c0.862,0.01715 1.74243,-0.13904 2.67401,0.22133c0.77786,0.3009 1.55356,0.71339 2.3215,1.13133c0.84094,0.45767 1.64975,0.88977 2.34283,1.29468c0.75482,0.44099 1.54343,0.32802 2.33633,0.85266c0.66626,0.44084 1.58054,0.19011 2.41016,0.51067c0.79294,0.30638 1.32391,0.8885 2.1315,1.01016c0.98767,0.14879 1.67969,0.5497 2.45767,1.07901c0.74362,0.50594 1.4133,0.98965 2.07416,1.5475c0.58658,0.49513 1.47092,0.81306 2.24283,1.29999c0.70245,0.44312 1.14581,1.20848 1.75717,1.70001c0.64453,0.5182 1.63593,0.43166 2.46817,0.85266c0.79004,0.39966 1.8187,0.26447 2.40717,0.92534c0.56418,0.63359 0.84192,1.42648 1.772,1.57016c0.88947,0.13741 1.79999,0.0045 2.70001,0.0045c0.89999,0 1.79999,0 2.69998,0c0.89999,0 1.50626,0.48381 2.18402,0.91467c0.79443,0.50504 1.81598,0.08533 2.71597,0.08533c0.80002,0 1.63602,0 2.65268,0c0.69467,0 1.72202,0 2.66867,0c0.67865,0 1.79199,0 2.65332,0c0.82669,0 1.72534,0 2.62534,0c0.89999,0 1.80002,0 2.70001,0c0.89999,0 1.80127,0.04779 2.69998,0c0.80341,-0.04272 1.47736,-0.77953 2.28403,-1c0.90433,-0.24716 1.81598,0 2.71597,0c0.80002,0 1.65961,0.03345 2.48401,-0.28534c0.89511,-0.34615 1.55798,-1.0274 2.31467,-1.42932c0.74811,-0.39737 1.73605,-0.23242 2.50134,-0.638c0.84589,-0.44829 1.79379,-0.40518 2.5,-0.81801c0.7829,-0.45766 0.87772,-1.51097 1.79999,-1.808c0.8569,-0.27599 1.80002,-0.02133 2.70001,-0.02133c0.89999,0 1.80685,0.11086 2.69998,0c0.89911,-0.1116 0.71271,-1.31981 1.33334,-1.83333c0.54504,-0.45097 1.6171,-0.43929 2.36218,-0.81401c0.87576,-0.44044 1.62503,-0.93489 2.40466,-1.23116c0.74249,-0.28215 1.72516,-0.12151 2.73315,-0.12151c0.75601,0 1.60965,-0.1709 2.27649,-0.64734c0.66354,-0.47409 1.72351,-0.35266 2.58569,-0.35266c0.82532,0 1.78848,0 2.65182,0c0.89999,0 1.81934,0 2.65265,0c0.97833,0 1.83334,0 2.70453,0c0.89548,0 1.79547,-0.00226 2.6955,0c0.89548,0.00226 1.4097,0.52638 1.88531,1.19867c0.552,0.78026 1.58612,0.96127 1.71466,1.80133c0.1217,0.79529 0.66174,1.47914 1.38934,1.97467c0.6658,0.45343 1.20926,1.03442 1.66333,1.72983c0.49487,0.7579 1.40491,1.07372 1.922,1.73151c0.50864,0.64703 1.06943,1.1828 1.74133,1.64932c0.77264,0.53645 1.24118,1.19704 1.284,2.11467c0.04193,0.89919 0.06137,1.69435 0.42535,2.62534c0.27286,0.69789 0.44376,1.72424 0.93182,2.47467c0.51816,0.79671 1.31738,1.11513 1.58566,2c0.26129,0.86174 -0.02472,1.88118 0.14252,2.58667c0.23029,0.97142 0.74991,1.60445 0.89383,2.5925c0.13281,0.91144 0.02081,1.82083 0.02081,2.72083c0,0.90001 0,1.8 0,2.60001c0,0.91466 0,1.81067 0,2.7c0,0.91066 0,1.82133 0,2.67467c0,0.94 0,1.82533 0,2.62534c0,0.89999 0,1.8 0,2.67917c0,0.95683 0,1.82083 0,2.72083c0,0.90001 0.16815,1.83644 -0.08533,2.60001c-0.25635,0.77217 -0.896,1.59946 -0.91467,2.5c-0.01865,0.8998 -0.2421,1.65378 -0.64731,2.39999c-0.4133,0.76112 -0.42456,1.73183 -0.92734,2.32533c-0.53683,0.6337 -0.90262,1.35622 -1.42535,2.14134c-0.42401,0.63687 -0.9064,1.6552 -0.98932,2.42265c-0.09781,0.90546 0.23526,1.84637 -0.01517,2.70618c-0.22092,0.75839 -0.88452,1.10922 -1.27951,1.90451c-0.43167,0.86914 -0.71533,1.59998 -0.716,2.5c-0.00067,0.89999 0.01904,1.71088 -0.00015,2.62131c-0.01797,0.85388 -0.37012,1.74594 -0.71582,2.47736c-0.37997,0.80396 -0.28403,1.72217 -0.28403,2.60132c0,0.89999 0,1.80002 0,2.70001c0,0.89999 0,1.69998 0,2.60001c0,0.89999 0,1.79999 0,2.69998c0,0.89999 0,1.80133 0,2.76666c0,0.83334 0,1.81183 0,2.63202c0,0.80133 0,1.70132 0,2.60132c0,0.89999 0,1.80002 0,2.70001c0,0.89999 0,1.69998 0,2.65717c0,0.89551 0,1.75882 0,2.72198c0,0.82083 0,1.72217 0,2.6875c0,0.8125 0,1.78268 0,2.54318c0,0.8075 0,1.87949 0,2.69016c0,0.89999 0.08212,1.8038 -0.00015,2.70001c-0.08368,0.91144 -0.70193,1.49536 -0.91449,2.38266c-0.22171,0.92554 -0.0145,1.87759 -0.08667,2.71866c-0.08374,0.9758 -0.39117,1.6488 -0.80002,2.31467c-0.54315,0.88461 -1.39618,1.50833 -1.84149,2.18402c-0.47165,0.71567 -0.87518,1.45889 -1.44116,2.01599c-0.67114,0.66064 -1.30289,1.18985 -1.89066,1.70932c-0.58282,0.51511 -1.57733,0.28558 -2.41467,0.58533c-0.73679,0.26373 -1.38553,0.92593 -1.60617,1.69385c-0.25912,0.90186 -0.55658,1.25433 -1.40451,1.72083c-0.73068,0.40198 -1.55377,0.8168 -2.29999,1.22202c-0.76114,0.4133 -1.70001,0.35266 -2.60001,0.35266c-0.90134,0 -1.86667,0 -2.67917,0c-0.91101,0 -1.72534,0 -2.62082,0c-0.90002,0 -1.80414,0.0817 -2.7045,-0.00449c-0.87332,-0.08359 -1.72482,-0.46866 -2.52884,-0.99551c-0.67264,-0.44077 -1.43365,-0.76385 -2.26651,-1.22134c-0.69165,-0.37991 -1.39444,-0.91843 -2.0495,-1.38931c-0.82187,-0.59079 -1.41708,-1.34042 -2.20248,-1.38486c-0.88965,-0.05032 -1.69272,-0.31552 -2.44818,-0.72049c-0.75595,-0.40521 -1.51035,-0.9021 -2.39999,-1.19867c-0.85748,-0.28583 -1.93811,0.23672 -2.63333,-0.25198c-0.71594,-0.50327 -1.20078,-1.16452 -1.96667,-1.54935c-0.78592,-0.39487 -1.68533,-0.284 -2.60449,-0.284c-0.99417,0 -1.75949,0 -2.71017,0c-0.88535,0 -1.68533,0 -2.60001,0c-0.93201,0 -1.76932,0 -2.63266,0c-1.01666,0 -1.85266,0 -2.75284,0c-0.78516,0 -1.72543,-0.02399 -2.73315,0c-0.75665,0.01801 -1.41519,0.69748 -2.33334,1c-0.79147,0.2608 -1.71866,0 -2.65866,0c-0.69067,0 -1.66043,-0.10037 -2.58533,0.01065c-0.9281,0.11142 -1.61935,0.46146 -2.42267,0.98935c-0.78824,0.51801 -1.57654,0.86554 -2.46667,1.00449c-0.81894,0.12784 -1.46686,0.84137 -2.29999,0.98483c-0.88702,0.15277 -1.85764,-0.31155 -2.78934,0.02133c-0.73694,0.26331 -1.22134,0.97876 -2.11069,0.98935c-0.89999,0.01074 -1.54172,0.53 -2.41599,0.91467c-0.72595,0.3194 -1.70319,-0.0799 -2.58401,0.10617c-0.84738,0.17899 -1.59836,0.87024 -2.5,0.97916c-0.79871,0.0965 -1.42096,0.70563 -2.39999,0.96399c-0.87091,0.22983 -1.90063,-0.14456 -2.51599,0.32001c-0.6832,0.51578 -1.384,0.716 -2.284,0.716c-0.89999,0 -1.80002,0 -2.60001,0c-0.836,0 -1.85266,0 -2.54733,0c-1.01666,0 -1.95267,0 -2.85266,0c-0.89999,0 -1.80002,0 -2.60001,0c-0.89999,0 -1.79999,0 -2.70001,0c-0.89999,0 -1.79999,0.00009 -2.69998,0c-0.89984,-0.00009 -1.53906,-0.44476 -2.15717,-0.94733c-0.70459,-0.57288 -1.44324,-0.85361 -2.14285,-1.55267c-0.60016,-0.59967 -0.90735,-1.34924 -1.52533,-2.064c-0.53372,-0.61728 -1.43546,-0.57458 -2.05865,-1.15201c-0.69077,-0.64001 -0.91153,-1.38416 -0.91602,-2.16934c-0.00534,-0.92935 -0.42761,-1.55432 -0.87848,-2.33615c-0.44302,-0.76828 -0.12152,-1.7785 -0.12152,-2.57849c0,-0.90002 -0.0054,-1.84286 0,-2.72086c0.00534,-0.86856 0.62772,-1.43182 0.94736,-2.18448c0.38544,-0.90759 0.90872,-1.3027 1.65265,-1.90533c0.65277,-0.52881 0.85349,-1.34543 1.48401,-2.104c0.60245,-0.72479 1.25281,-1.1366 1.89066,-1.71066c0.57874,-0.52087 1.02762,-1.36697 1.85867,-1.57468c0.84702,-0.2117 1.56284,-0.43164 2.36533,-0.91602c0.74066,-0.44702 0.7283,-1.43414 1.22668,-2.05865c0.4852,-0.60797 0.47922,-1.46985 0.85867,-2.22534c0.43558,-0.86719 0.7153,-1.59998 0.71597,-2.5c0.00064,-0.89999 0,-1.77914 0,-2.74283c0,-0.74249 0,-1.67181 0,-2.65717c0,-0.89999 0,-1.69998 0,-2.60001c0,-0.89999 0.30478,-1.85773 -0.01065,-2.68933c-0.27658,-0.72916 -1.42331,-0.37079 -2.28482,-0.61514c-0.7774,-0.22052 -1.40826,-0.96576 -2.13651,-0.99417c-1.00323,-0.03915 -1.87936,0.01599 -2.56802,-0.50134c-0.62567,-0.47 -1.55508,-0.20239 -2.38931,-0.51068c-0.7464,-0.27582 -0.92499,-1.34433 -1.49734,-1.78931c-0.875,-0.68027 -1.64813,-0.85754 -2.5925,-1.20001c-0.83597,-0.30316 -1.02533,-1.20352 -1.6875,-1.83334c-0.61578,-0.58569 -1.76974,0.23608 -2.548,-0.25198c-0.74042,-0.46436 -1.48981,-0.53073 -2.164,-1.13617c-0.61758,-0.5546 -0.77872,-1.56812 -1.62134,-1.75766c-0.95615,-0.21509 -1.44107,-0.78232 -2.21597,-1.0195c-0.82184,-0.25156 -1.28177,-0.70584 -1.28403,-1.64417c-0.00211,-0.87802 0,-1.75717 0,-2.65717c0,-0.90002 0,-1.80002 0,-2.70001l-0.22131,-0.87866l-0.69333,-0.40668" id="svg_6" stroke-width="2" stroke="#000" fill="none"/>
  <path t="29230,29317,29327,29334,29343,29350,29359,29360,29374,29374,29382,29382,29390,29398,29398,29405,29422,29422,29430,29430,29438,29446,29462,29470,29470,29477,29486,29494,29502,29509,29518,29534,29550,29559,29590,29590,29598,29630,29653,29654,29678,29686,29709,29741,29758,29854,29910,29933,29934,29950,30094,30110,30118,30149,30190,30301,30326,30342,30350,30366,30374,30382,30391,30398,30414,30414,30430,30437,30446,30453,30470,30470,30479,30485,30496,30496,30512,30518,30518,30542,30550,30558,30566,30574,30574,30582,30591,30598,30606,30622,30638,30654,30669,30670,30678,30695,30709,30717,30734,30757,30758,30775,30806,30886,30968,30998,31039,31047,31069,31125" d="m483.51135,236.09091c0,2.58932 0,3.5 0,4.39999c0,0.90001 0,1.80135 0,2.76668c0,0.65866 0,1.66666 0,2.45866c0,1.02733 0,1.722 0,2.74933c0,0.9465 0,1.76401 0,2.70801c0,0.91733 0,1.6745 0,2.56999c0,0.86334 0,1.82651 0,2.74733c0,0.90451 0,1.76666 0,2.60001c0,0.97833 0,1.87866 0,2.7045c0,0.89551 0,1.7955 0,2.6955c0,0.89999 0,1.80002 0,2.70001c0,0.89999 -0.40274,1.8364 0.08536,2.61465c0.46432,0.74039 0.91464,1.28534 0.91464,2.08533c0,0.90002 0,1.80002 0,2.70001c0,0.89999 0,1.79999 0,2.70001c0,0.89999 -0.0372,1.80084 0,2.59998c0.04272,0.91766 0.94736,1.20001 1.80136,1.20001c0.89865,0 1.79865,0.00226 2.67783,0c0.8735,-0.00226 1.51041,-0.52066 1.52081,-1.39999c0.01065,-0.89993 0.14981,-1.81259 -0.00015,-2.69983c-0.14401,-0.85205 -0.97122,-1.25589 -0.99985,-2.10019c-0.03049,-0.89963 0,-1.68533 0,-2.61465c0,-1.01599 0,-1.79599 0,-2.70618c0,-0.96317 0,-1.65384 0,-2.72198c0,-0.85718 0,-1.75717 0,-2.55716c0,-0.95718 0,-1.84818 0,-2.63068c0,-1.00534 0,-1.86932 0,-2.76935c0,-0.89999 0.02536,-1.80038 0,-2.59998c-0.02859,-0.90137 -0.68616,-1.62239 -0.94281,-2.50002c-0.25311,-0.86555 -0.05719,-1.79984 -0.05719,-2.72083c0,-0.8405 0,-1.8125 0,-2.56851c0,-0.91066 0,-1.81065 0,-2.71066c0,-0.89999 0,-1.8 0,-2.7c0,-0.8 0,-1.71466 0,-2.61067c0,-0.88933 0.18494,-2.03668 -0.52081,-2.3685c-0.88632,-0.41672 -1.87918,-0.02083 -2.77917,-0.02083l-0.89865,0" id="svg_7" stroke-width="2" stroke="#000" fill="none"/>
  <path t="32150,32285,32294,32301,32310,32310,32317,32318,32325,32325,32325,32333,32333,32334,32341,32341,32349,32349,32357,32357,32357,32365,32365,32373,32373,32373,32381,32381,32381,32389,32389,32389,32397,32398,32406,32406,32406,32406,32413,32413,32413,32422,32422,32429,32429,32429,32430,32439,32439,32439,32439,32445,32446,32446,32453,32453,32453,32462,32462,32462,32469,32470,32470,32478,32478,32478,32485,32494,32494,32501,32501,32510,32517,32518,32525,32533,32541,32550,32565,32573,32581,32582,32597,32605,32829,32861,32877,32893,32917,33045" d="m403.51135,249.09091c1.70001,0 2.70001,0 3.52084,0c0.96451,0 1.68985,0 2.67935,0c0.82065,0 1.96649,0 2.75247,0c0.82202,0 1.88068,0 2.59018,0c0.85266,0 1.85718,0 2.65717,0c1,0 1.79999,0 2.79999,0c0.80002,0 1.60001,0 2.60452,0c0.6315,0 1.81683,0 2.62082,0c0.82199,0 1.85333,0 2.54935,0c0.90933,0 1.90933,0 2.72531,0c0.81601,0 1.81601,0 2.72534,0c0.94135,0 1.73184,0 2.58533,0c0.59067,0 1.78802,0 2.66852,0c0.83548,0 1.83817,0 2.54166,0c1.3125,0 1.94852,0 2.6405,0c0.724,0 2.17203,0.00623 2.85333,-0.00133c0.96466,-0.0107 1.58853,-0.0069 2.78516,-0.22c0.60052,-0.10695 1.45413,-0.39908 2.53351,-0.612c0.70868,-0.1398 1.61932,-0.16441 2.58817,-0.16667c0.81451,-0.00189 1.68301,0 2.87851,0c0.60001,0 1.5,0 2.69998,0c0.59601,0 1.4375,0 2.5,0c0.94284,0 1.68533,0 2.61603,0c0.76797,0 1.70932,0 2.71732,0c0.86218,0 1.76666,0 2.66666,0c0.90002,0 1.7955,0 2.66669,0c0.93332,0 1.83331,0 2.63333,0c0.89999,0 1.79999,0 2.69998,0c0.90002,0 1.80002,0 2.70001,0l0.89984,0l0.8475,0" id="svg_8" stroke-width="2" stroke="#000" fill="none"/>
  <path t="33861,33997,34005,34005,34013,34013,34013,34021,34021,34021,34029,34029,34037,34037,34037,34045,34045,34045,34054,34054,34061,34061,34070,34070,34070,34077,34077,34078,34087,34087,34087,34093,34093,34101,34110,34110,34117,34117,34117,34126,34126,34133,34133,34142,34142,34149,34149,34157,34158,34158,34165,34165,34173,34173,34181,34181,34189,34189,34197,34197,34197,34197,34205,34205,34213,34213,34221,34221,34229,34229,34237,34237,34237,34245,34254,34254,34254,34261,34270,34270,34287,34287,34293,34293,34303,34309,34309,34325,34389,34413,34437" d="m403.51135,255.09091c2.5,0.5 3.31665,0.92899 4.21069,0.98932c0.9873,0.06665 1.59998,0.01068 2.47464,0.01068c0.99869,0 1.81467,0 2.63068,0c1,0 1.90933,0 2.85068,0c0.78598,0 1.608,0 2.66666,0c0.93066,0 1.76535,0 2.76666,0c0.80002,0 1.80133,0 2.42084,0c1.14584,0 1.93182,0 2.75385,0c1.05865,0 1.77264,0 2.67798,0c0.96851,0 1.76202,0 2.53751,0c1.0405,0 1.89252,0 2.83517,0c1.008,0 1.836,0 2.7175,0c0.71851,0 1.509,0 2.53549,0c0.88,0 1.90033,0 2.67435,0c0.90451,0 1.84866,0 2.85184,0c0.6315,0 1.81665,0 2.61017,0c0.77548,0 1.81598,0 2.53348,0c0.90903,0 1.85318,0 2.85184,0c0.80002,0 1.80295,-0.02808 2.42084,0.02084c1.15149,0.09119 1.93091,0.33527 2.75385,0.55383c0.54071,0.14362 1.767,0.39258 2.62082,0.42084c1.00262,0.03317 1.76849,0.00449 2.72052,0.00449c0.76797,0 1.73065,0 2.57065,0c0.996,0 1.79251,0 2.54401,0c1.11865,0 2.10266,0 2.77017,0c0.93665,0 1.91251,0 2.7135,0c0.88834,0 1.88565,0 2.68567,0c0.99866,0 1.76398,0 2.71466,0c0.88531,0 1.68533,0 2.58533,0l0.94284,0l0.87799,0l0.87918,0" id="svg_9" stroke-width="2" stroke="#000" fill="none"/>
  <path t="35270,35413,35413,35421,35421,35429,35429,35437,35437,35437,35445,35445,35445,35445,35453,35453,35453,35453,35461,35461,35461,35469,35469,35469,35469,35477,35477,35477,35485,35485,35485,35493,35493,35502,35502,35502,35509,35509,35509,35519,35519,35525,35525,35535,35535,35541,35541,35541,35549,35549,35549,35558,35565,35565,35574,35574,35574,35581,35581,35581,35590,35590,35597,35597,35597,35605,35605,35613,35613,35621,35621,35621,35629,35629,35637,35637,35645,35653,35653,35661,35661,35669,35677,35677,35685,35685,35693,35701,35709,35709,35725,35725,35725,35735,35735" d="m404.51135,261.09091c1.83603,0 2.60135,0 3.60001,0c0.80002,0 1.80002,0 2.60001,0c1.00034,0 1.84167,0 2.57068,0c1.19998,0 1.90134,0 2.65067,0c0.78131,0 1.97833,0 2.76965,0c0.76733,0 1.83835,0 2.76633,0c0.79202,0 1.548,0 2.68552,0c0.66699,0 1.74249,0 2.47449,0c1.061,0 2.03601,0 2.63602,0c1.07999,0 2.01065,0 2.84534,0c1.00583,0 1.85849,0 2.82266,0c0.80399,0 1.62598,0 2.65717,0c0.68549,0 1.52017,0 2.52148,0c0.80002,0 1.80002,0 2.60001,0c1.00018,0 1.82083,0 2.96667,0c0.78598,0 1.608,0 2.66666,0c0.70502,0 1.505,0 2.54135,0c0.94699,0 1.66699,0 2.79199,0c0.78598,0 1.608,0 2.66666,0c0.7095,0 1.56216,0 2.56799,0c0.83469,0 1.76535,0 2.54684,0c0.7905,0 1.909,0 2.6665,0c1.047,0 1.84698,0 2.80649,0c0.79352,0 1.569,0 2.6095,0c0.85202,0 1.79468,0 2.48535,0c0.98398,0 1.96933,0 2.69467,0c0.98917,0 1.95331,0 2.90399,0c0.88531,0 1.64249,0 2.53799,0c0.86334,0 1.82651,0 2.758,0c0.91083,0 1.61017,0 2.58932,0c0.80002,0 1.60001,0 2.59552,0l0.91916,0" id="svg_10" stroke-width="2" stroke="#000" fill="none"/>
  <path t="36813,36893,36901,36909,36917,36925,36934,36941,36941,36950,36957,36967,36981,36990,37013,37037,37053,37062,37069,37069,37077,37085,37109,37109,37117,37125,37133,37141,37141,37150,37157,37167,37173,37189,37205,37205,37213,37213,37221,37229,37237,37245,37253,37253,37261,37277,37285,37301,37317,37335,37341,37373,37373,37397,37421,37421,37445,37461,37477,37501,37501,37510,37510,37525,37525,37541,37549,37557,37573,37589,37597,37597,37613,37613,37629,37629,37637,37653,37653,37661,37669,37693,37709,37725,37725,37733,37749,37765,37766,37773,37789" d="m402.51135,252.09091c1.70001,0 2.70001,0 3.60001,0c0.89999,0 1.80002,0 2.70001,0c0.80017,0 1.58533,0 2.51465,0c1.01602,0 1.79602,0 2.78534,0c0.89999,0 1.80002,0 2.70001,0c0.89999,0 1.79999,0 2.69998,0c0.80002,0 1.70001,0 2.56403,0c0.87881,0 1.62131,0 2.67883,0c0.95715,0 1.85715,0 2.75714,0c0.80002,0 1.70001,0 2.60001,0c0.89999,0 1.80002,0 2.60135,0c0.96533,0 1.79865,0 2.77716,0c0.82016,0 1.74124,-0.1571 2.52148,0.02083c0.96204,0.21939 1.59387,0.91829 2.5,0.97917c0.79822,0.05363 1.71469,0 2.61069,0c0.88931,0 1.78934,0 2.68933,0c0.89999,0 1.79999,0 2.69998,0c0.80002,0 1.75717,0 2.64819,0c0.7825,0 1.78781,0 2.65182,0c0.90134,0 1.86667,0 2.69998,0c0.83334,0 1.75269,0 2.65268,0c0.86334,0 1.71133,0 2.64734,0c0.89865,0 1.80981,0 2.56134,0c0.97198,0 1.89133,0 2.79584,0c0.74731,0 1.74149,0 2.50681,0c1.08334,0 2.00269,0 2.81519,0c0.91098,0 1.72534,0 2.62082,0c0.92084,0 1.884,0 2.57468,0c1.06818,0 1.92532,0 2.82532,0l0.80002,0l0.89999,0l0.94284,0" id="svg_11" stroke-width="2" stroke="#000" fill="none"/>
  <path t="38726,38837,38846,38846,38854,38862,38862,38870,38870,38878,38878,38878,38886,38886,38894,38894,38902,38902,38910,38910,38918,38918,38926,38934,38934,38942,38950,38950,38958,38974,38982,38990,38999,39006,39015,39015,39022,39022,39032,39038,39046,39046,39062,39070,39070,39078,39078,39086,39102,39102,39110,39118,39126,39134,39134,39142,39142,39150,39158,39174,39190,39206,39206,39222,39232,39232,39238,39238,39246,39246,39254,39262,39262,39270,39278,39286,39286,39294,39302,39310,39310,39326,39342,39342,39350,39358,39366,39374,39374,39385,39390,39398,39406,39415,39422,39431,39446,39454,39454,39462,39470,39478,39486,39494,39502,39502,39518,39542,39542,39542,39558,39569,39574,39590,39590,39598,39615,39631,39638,39648,39654,39654,39662,39670,39678,39686,39694,39702,39702,39710,39718,39726,39734,39742,39758,39768,39785,39798,39806,39806,39822,39846,39854,39870,39878,39894,39910,39918,39918,39934,39942,39951,39968,39974,39984,39990,40001,40001,40006,40014,40031,40038,40047,40062,40070,40078,40078,40086,40094,40110,40126,40126,40134,40134,40150,40174,40174,40190,40202,40214,40222,40223,40231,40238,40238,40247,40254,40264,40264,40270,40278,40278,40286,40294,40294,40302,40310,40319,40342,40358,40374,40385,40390,40390,40401,40406,40406,40418,40431,40447,40464,40464,40526,40534,40542,40551,40551,40558,40558,40567,40574,40590,40622,40638,40654,40664,40670,40678,40686,40686,40694,40726,40726,40735,40774,40798" d="m188.51137,251.09091c1.82533,0 2.83333,0 3.6955,0c0.82533,0 1.78984,-0.00006 2.51517,0c0.98933,0.00009 1.80508,-0.06252 2.78934,0.16667c0.81888,0.19067 1.58528,0.6286 2.60001,0.77615c0.79338,0.11537 1.79866,0.05717 2.564,0.05717c0.95332,0 1.80533,0 2.604,0c0.98132,0 1.89867,0 2.81065,0c0.832,0 1.74268,0 2.59601,0c0.94,0 1.82533,0 2.62534,0c0.89999,0 1.8,0 2.7,0c0.89999,0 1.8,0 2.7,0c0.90033,0 1.77068,0 2.56667,0c0.94667,0 1.97867,0 2.77501,0c0.94232,0 1.633,0 2.70566,0c0.91934,0 1.75267,0 2.73117,0c0.82016,0 1.6575,0 2.50549,0c0.86334,0 1.88,0 2.716,0c0.90001,0 1.8,0 2.68533,0c0.94,0 1.63068,0 2.70399,0c0.81067,0 1.71068,0 2.61067,0c0.90016,0 1.68533,0 2.62534,0c1.008,0 1.8,0 2.66,0c0.91916,0 1.91333,0 2.67867,0c0.95067,0 1.836,0 2.636,0c0.89999,0 1.836,0 2.68399,0c0.86334,0 1.88,0 2.716,0c0.90018,0 1.68533,0 2.62534,0c1.008,0 1.87018,0 2.67465,0c0.90002,0 1.80475,-0.02217 2.82117,0.00017c0.81808,0.01799 1.3819,0.63046 2.19968,0.979c0.80902,0.3448 1.77917,0.02083 2.67917,0.02083c0.89984,0 1.77466,0 2.56168,0c0.89099,0 1.75433,0 2.7175,0c0.92084,0 1.82083,0 2.72083,0c0.89999,0 1.79999,0 2.60001,0c0.91467,0 1.86417,0 2.48666,0c0.94666,0 2.04132,0 2.91333,0c0.89999,0 1.79999,0 2.60001,0c0.89999,0 1.80002,-0.00533 2.69998,0c0.90009,0.00534 1.60721,0.45296 2.5,0.83333c0.75156,0.32021 1.70001,0.16667 2.60001,0.16667c0.89999,0 1.80002,0 2.60135,0c0.96533,0 1.77783,0 2.73734,0c0.86267,0 1.76132,0 2.66132,0c0.89999,0 1.80002,0 2.70001,0c0.89999,0 1.79999,0 2.69998,0c0.80002,0 1.64285,0 2.52084,0c0.97916,0 1.87918,0 2.77917,0c0.89999,0 1.79999,0 2.69998,0c0.80002,0 1.70001,0 2.60001,0c0.87918,0 1.75717,0 2.70001,0c0.89999,0 1.79999,0 2.69998,0c0.80002,0 1.70001,0 2.60001,0c0.89999,0 1.80002,0 2.6955,0c0.87119,0 1.8045,0 2.7045,0c0.80002,0 1.70001,0 2.60001,0c0.81067,0 1.7215,0 2.61069,0c0.98898,0 1.74765,0 2.73865,0c0.7605,0 1.56799,0 2.64001,0c0.91064,0 1.71515,0 2.73199,0c0.67865,0 1.65717,0 2.67865,0c0.80002,0 1.70001,0 2.52084,0c0.96317,0 1.65384,0 2.72202,0c0.9585,0 1.64249,0 2.58249,0c1.008,0 1.87024,-0.01071 2.77466,0c0.87936,0.01042 1.2785,0.77461 1.92084,1c0.82959,0.29108 1.77917,0 2.67917,0c0.90018,0 1.68533,0 2.62534,0c1.008,0 1.76404,-0.00597 2.73868,0c0.87204,0.00534 1.54318,0.45296 2.43597,0.83333c0.75156,0.32021 1.70001,0.16667 2.60001,0.16667c0.92084,0 1.7215,0 2.61069,0c0.98898,0 1.74765,0 2.76849,0c0.82217,0 1.72083,0 2.62082,0c0.89999,0 1.80002,0 2.70001,0c0.89999,0 1.79999,0 2.69998,0c0.80002,0 1.71469,0 2.56934,0c0.7825,0 1.79468,0 2.73068,0l0.89999,0" id="svg_12" stroke-width="2" stroke="#000" fill="none"/>
  <path t="41638,41735,41742,41742,41750,41758,41767,41767,41774,41774,41774,41774,41784,41784,41784,41790,41798,41799,41806,41806,41816,41816,41822,41830,41846,41846,41862,41879,41879,41886,41895,41912,41918,41926,41934,41942,41950,41950,41958,41966,41982,41982,41998,42006,42006,42014,42014,42022,42030,42038,42046,42054,42062,42078,42095,42095,42112,42112,42126,42126,42142,42158,42166,42174,42174,42182,42198,42198,42214,42214,42222,42230,42246,42262,42278,42295,42311,42326,42326,42342,42342,42350,42350,42366,42366,42382,42382,42390,42398,42406,42415,42415,42422,42431,42438,42438,42446,42465,42470,42478,42478,42486,42486,42495,42502,42511,42518,42528,42534,42534,42542,42542,42550,42558,42566,42574,42590,42606,42615,42632,42638,42648,42665,42670,42678,42686,42694,42694,42702,42711,42718,42728,42734,42742,42742,42750,42750,42758,42774,42790,42790,42798,42806,42806,42814,42822,42822,42831,42832,42832,42838,42838,42848,42854,42854,42865,42865,42870,42881,42886,42894,42911,42918,42928,42934,42942,42950,42958,42966,42974,42982,42990,42990,43006,43014,43037,43038,43047,43054,43062,43082,43082,43094,43094,43102,43111,43134,43144,43151,43158,43158,43167,43174,43174,43182,43190,43190,43198,43206,43215,43215,43222,43231,43238,43238,43248,43253,43264,43264,43269,43270,43280,43285,43297,43297,43301,43302,43310,43310,43317,43326,43327,43334,43334,43345,43345,43345,43351,43352,43358,43373,43374,43382" d="m187.51137,256.09091c1.75717,0 2.65266,0 3.51601,0c0.96317,0 1.7885,0 2.80566,0c0.72,0 1.845,0 2.6355,0c0.56366,0 1.44417,0 2.64017,0c0.86099,0 1.632,0 2.58833,0c0.91449,0 1.69966,0 2.65033,0c0.76534,0 1.75951,0 2.67867,0c0.96451,0 1.78984,0 2.80667,0c0.67867,0 1.65717,0 2.67867,0c0.8,0 1.7,0 2.60001,0c0.89999,0 1.79999,0 2.7,0c0.89999,0 1.8,0 2.7,0c0.8,0 1.7,0 2.564,0c0.87883,0 1.62134,0 2.68333,0c0.91934,0 1.75267,0 2.73117,0c0.82016,0 1.7215,0 2.62151,0c0.89999,0 1.79999,0 2.7,0c0.89999,0 1.8,0 2.7,0c0.75717,0 1.65717,0 2.4045,0c0.99417,0 1.93834,0 2.83833,0c0.95717,0 1.85718,0 2.75717,0c0.8,0 1.636,0 2.48534,0c0.91916,0 1.91333,0 2.67867,0c0.95067,0 1.936,0 2.836,0c0.83333,0 1.61067,0 2.60001,0c0.81065,0 1.72148,0 2.61067,0c0.98917,0 1.76849,0 2.76797,0c0.77402,0 1.66953,0 2.45203,0c1.01215,0 1.75464,0 2.81216,0c0.95715,0 1.85715,0 2.75714,0c0.80002,0 1.70001,0 2.52084,0c0.96317,0 1.65384,0 2.72202,0c0.95715,0 1.85715,0 2.75714,0c0.75717,0 1.65268,0 2.51602,0c0.96317,0 1.884,0 2.784,0c0.89999,0 1.79999,0 2.69998,0c0.75717,0 1.65268,0 2.51602,0c0.96317,0 1.884,0 2.784,0c0.89999,0 1.79999,0 2.69998,0c0.83334,0 1.61069,0 2.60001,0c0.89999,0 1.80002,0 2.70001,0c0.89999,0 1.79999,0 2.69998,0c0.80002,0 1.70001,0 2.60001,0c0.89999,0 1.80002,0 2.60135,0c0.96533,0 1.79865,0 2.77716,0c0.82016,0 1.7215,0 2.54233,0c0.96317,0 1.65384,0 2.72202,0c0.85733,0 1.64249,0 2.58249,0c1.008,0 1.836,0 2.7175,0c0.71851,0 1.509,0 2.77051,0c0.64499,0 1.66516,0 2.68665,0c0.75717,0 1.65268,0 2.51602,0c0.96317,0 1.884,0 2.784,0c0.89999,0 1.79999,0 2.69998,0c0.83334,0 1.61069,0 2.60001,0c0.89999,0 1.80002,0 2.70001,0c0.89999,0 1.79999,0 2.69998,0c0.80002,0 1.70001,0 2.56403,0c0.87881,0 1.62131,0 2.67883,0c0.95715,0 1.85715,0 2.75714,0c0.75717,0 1.65268,0 2.51602,0c0.96317,0 1.87332,0 2.76932,0c0.91467,0 1.81467,0 2.71466,0c0.80002,0 1.63602,0 2.48401,0c0.86334,0 1.89069,0 2.83716,0c0.8175,0 1.72702,0 2.56552,0c0.93866,0 1.62933,0 2.70267,0c0.82132,0 1.73199,0 2.58533,0c0.94,0 1.92532,0 2.82532,0c0.75717,0 1.65268,0 2.51602,0c0.96317,0 1.78848,0 2.80533,0c0.67865,0 1.65732,0 2.56265,0c0.94135,0 1.63202,0 2.616,0c0.98535,0 1.71069,0 2.70001,0c0.79999,0 1.79999,0 2.60001,0c0.79999,0 1.7955,0 2.71466,0c0.86002,0 1.80667,0 2.66,0l0.94,0" id="svg_13" stroke-width="2" stroke="#000" fill="none"/>
  <path t="44565,44637,44645,44646,44661,44685,44701,44709,44733,44742,44781,44791,44797,44814,44830" d="m196.51137,246.09091c0,1.82533 0,2.83333 0,3.6955c0,0.8685 -0.00221,1.82533 0,2.7045c0.00226,0.89552 0.40855,1.59364 1,2.10001c0.59444,0.50893 1.564,0.536 2.05266,1.14734l0.74867,0.43665l0.69867,0.41602" id="svg_14" stroke-width="2" stroke="#000" fill="none"/>
  <path t="45269,45341,45350,45350,45357,45365,45365,45374,45391,45397,45407,45407" d="m215.51137,245.09091c0,1.82533 -0.03424,2.83401 0,3.6955c0.03603,0.90666 0.63095,1.42354 1.29466,2.0045c0.71031,0.62175 0.70534,1.60001 0.70667,2.5l0.22,0.90001l0.42601,0.59999" id="svg_15" stroke-width="2" stroke="#000" fill="none"/>
  <path t="45925,45981,45990,45997,46007,46013,46013,46023,46023,46029,46030,46037,46045,46046,46061" d="m241.51137,247.09091c0,1.8 -0.1571,2.71976 0.02083,3.5c0.21939,0.96202 0.91702,1.59335 0.97784,2.38533c0.07278,0.94788 0.00133,1.716 0.00133,2.71017c0,0.91917 0,1.77916 0,2.72581l0,0.85333l0,0.93869" id="svg_16" stroke-width="2" stroke="#000" fill="none"/>
  <path t="46622,46709,46709,46718,46727,46743,46743,46749,46760,46765,46776,46782" d="m270.51135,251.09091c0,1 0,1.8 0,2.7c0,0.936 0,1.784 0,2.64732c0,1.01669 0,1.85269 0,2.75269l0,0.89999l0,0.91599" id="svg_17" stroke-width="2" stroke="#000" fill="none"/>
  <path t="47293,47341,47350,47357,47365,47381,47382,47382,47389,47389,47413,47437,47437" d="m292.51135,248.09091c0.97919,1.02083 1,1.97833 1,2.916c0,0.76666 0,1.62683 0,2.60483c0,0.79651 0,1.79251 0,2.63249l0,0.96133l0,0.88535l0,0.79999" id="svg_18" stroke-width="2" stroke="#000" fill="none"/>
  <path t="48077,48157,48166,48166,48173,48181,48181,48189,48189,48197,48197,48205" d="m321.51135,250.09091c0,1.75717 0,2.65266 0,3.51601c0,0.85866 -0.00009,1.8055 0,2.69466c0.00009,0.98917 0.02084,1.76849 0.22134,2.76782l0.35333,0.61084l0.40451,0.88983" id="svg_19" stroke-width="2" stroke="#000" fill="none"/>
  <path t="48853,48917,48926,48933,48933,48941,48974,48982,49005" d="m350.51135,250.09091c0.87851,1.2215 1,2.10001 1,3c0,0.8 0,1.7 0,2.60001l0,0.89999l0,0.89999" id="svg_20" stroke-width="2" stroke="#000" fill="none"/>
  <path t="49614,49661,49661,49669,49669,49678,49686,49686,49693,49702,49703,49709,49709,49719,49734" d="m380.51135,251.09091c0,1 0,1.75717 0,2.65266c0,0.86334 0,1.84734 0,2.83134c0,0.69064 0,1.76334 0,2.68265c0,0.83334 0,1.66669 0,2.52884l0,0.90451l0,0.89999" id="svg_21" stroke-width="2" stroke="#000" fill="none"/>
  <path t="50382,50429,50437,50445,50461,50461,50469,50469,50477,50478" d="m395.51135,251.09091c0.64734,0.7045 0.99466,1.59996 1,2.41066c0.00598,0.91083 0,1.8 0,2.78917l0,0.77933l0,0.99933l0,0.82019" id="svg_22" stroke-width="2" stroke="#000" fill="none"/>
  <path t="51566,51765,51797,51797,51829,51901" d="m155.51137,244.09091c0.16667,1.83333 1,2 1.8,2l0.91466,-0.08533l0.28401,-0.716" id="svg_23" stroke-width="2" stroke="#000" fill="none"/>
  <path t="52405,52509,52525,52645,52653,52782,52798" d="m170.51137,244.09091c0,1.8 0,2.7 0.036,3.564l0.6685,0.4315l0.8595,-0.03149l0.4315,-0.6685" id="svg_24" stroke-width="2" stroke="#000" fill="none"/>
  <path t="53189,53413,53437,53453" d="m182.51137,250.09091" id="svg_25" stroke-width="2" stroke="#000" fill="none"/>
  <path t="53989,54093,54141,54157,54181,54213" d="m156.51137,264.09091c0,-1.81467 0.00133,-2.82935 0.7045,-3l0.89551,0l0.96399,0" id="svg_26" stroke-width="2" stroke="#000" fill="none"/>
  <path t="54605,54709,54725,54733,54789,54805,54821,54861" d="m167.51137,261.09091c0,-1.70001 -0.44119,-2.72562 0.036,-3.564c0.3936,-0.6915 1.56401,-0.436 2.464,-0.436l0.88933,0.01065" id="svg_27" stroke-width="2" stroke="#000" fill="none"/>
  <path t="55357,55397,55413,55429,55477,55485,55525" d="m180.51137,259.09091c0,-1.70001 0,-2.60001 0.036,-3.564l0.6685,-0.4315l0.8595,-0.0045l0.436,0.52083" id="svg_28" stroke-width="2" stroke="#000" fill="none"/>
  <path t="56446,56525,56534,56542,56590" d="m154.51137,233.09091c0,1.8 0,2.7 0,3.60001l0,0.79999" id="svg_29" stroke-width="2" stroke="#000" fill="none"/>
  <path t="57062,57125,57134,57142,57150,57150,57166" d="m163.51137,234.09091c0.16667,1.83333 0.87849,2.2215 1,3.10001l0,0.89999l0,0.8l0,0.89999" id="svg_30" stroke-width="2" stroke="#000" fill="none"/>
  <path t="57654,57733,57742,57750,57750,57758,57766,57766,57774,57782" d="m181.51137,241.09091c0,0.88667 0,1.82533 0,2.83333c0,0.756 0,1.6875 0,2.65067l0,0.69067l0,1.06816l0,0.85718" id="svg_31" stroke-width="2" stroke="#000" fill="none"/>
  <path t="58614,58717,58733,58749,58773" d="m153.51137,271.09091c0,1.79999 0,2.70001 0,3.60001l0,0.89999" id="svg_32" stroke-width="2" stroke="#000" fill="none"/>
  <polyline timestamps="59190,59285,59301" startTime="1448869552170" id="svg_33" points="172.51136684417725,269.09091091156006 172.51136684417725,270.9242442448934 172.51136684417725,271.7015775782267 " stroke-linecap="round" stroke-width="2" stroke="#000" fill="none"/>
  <path t="59646,59701,59711,59711,59728,59728,59741" d="m183.51137,265.09091c0.97917,1.02084 1,1.97867 1,2.75266l0,0.90002l0,0.86331l0,0.96317" id="svg_34" stroke-width="2" stroke="#000" fill="none"/>
  <path t="60894,60934,60945,60945,60950,60963,60963,60965,60966,60974,60974,60982,60982,60990,60998,60998,61007,61015,61015,61024,61030,61039,61046,61064,61072,61086,61086,61102,61126,61126,61150,61150,61166,61286,61294,61315,61334,61345,61374,61550,61564,61578,61582,61594,61598,61606,61606,61614,61623,61631,61639,61639,61663,61671,61685,61685,61702,61702,61710,61728,61733,61744,61761,61790,61816,61830,61846,61856,61860,61871,61886,61886,61903,61903,62094,62118,62126,62158,62198,62209,62209,62214,62214,62230,62254,62278,62278" d="m455.51135,242.09091c0,1.75717 0,2.65266 0,3.51601c0,0.85866 0,1.8055 0,2.69466c0,0.98917 0,1.76851 0,2.76801c0,0.774 0,1.674 0,2.53734c0,0.85866 0,1.80533 0,2.65865c0,0.94 -0.0051,1.82535 0,2.71069c0.00534,0.92938 0.47049,1.4108 0.96402,2.12531c0.44983,0.65125 0.03598,1.68936 0.03598,2.62534c0,0.84802 0,1.71133 0,2.61136c0,0.91931 0,1.75266 0,2.73114c0,0.82019 -0.39572,1.85153 0.03601,2.59619c0.39621,0.68341 1.56403,0.43066 2.46399,0.42532c0.90009,-0.00534 1.71616,-0.50684 2.5,-0.83334c0.82562,-0.3439 1.68646,-0.60791 1.94284,-1.46664c0.258,-0.86414 0.05716,-1.80002 0.05716,-2.70001c0,-0.79999 0,-1.70001 0,-2.60001c0,-0.92084 0,-1.88266 0,-2.69016c0,-0.93134 0,-1.80984 0,-2.70984c0,-0.75717 0,-1.65268 0,-2.51599c0,-0.96318 0,-1.884 0,-2.78401c0,-0.89999 0,-1.79984 0,-2.7c0,-0.80133 0,-1.7 0,-2.60001c0,-0.89999 0,-1.79999 0,-2.7045c0,-0.86217 0,-1.6955 0,-2.674c0,-0.82016 0.04733,-1.87535 -0.61066,-2.0215c-0.86819,-0.19283 -1.78934,0 -2.69382,0c-1.01685,0 -1.69553,0 -2.67401,0c-0.82016,0 -1.7215,0 -2.6575,0l-0.84668,0l-0.948,0" id="svg_35" stroke-width="2" stroke="#000" fill="none"/>
  <path t="63142,63214,63230,63238,63238,63246,63262,63318,63326,63342,63350,63361,63366,63381,63397,63406,63422,63430,63446,63446,63454,63471,63478,63487,63494,63504,63510,63518,63526,63542,63558,63590,63590,63606,63622,63630,63654,63662,63678,63687,63694,63704,63710,63726,63742,63742,63750,63766,63806,63814,63838,63838,63846,63854,63870,63870,63878,63895,63910,63926,63934,63934,63958,63974,63982,63998,64030,64038,64054,64078,64094,64094,64118,64134,64158,64166,64174,64182,64198,64206,64214,64238,64246,64278,64302,64310,64335,64342,64350,64358,64366,64389,64414,64454,64486" d="m409.51135,217.09091c-1.69998,0 -2.63644,-0.02672 -3.48398,0.00133c-0.86469,0.02861 -1.72516,0.41066 -2.61584,0.87733c-0.7536,0.39485 -0.90018,1.22134 -0.90018,2.12134c0,0.83333 -0.689,1.09985 -1.08398,1.80133c-0.4599,0.81677 -0.89801,1.59813 -0.91602,2.49867c-0.01801,0.89981 -0.18134,1.85347 0.16669,2.7c0.27588,0.67108 0.65338,1.60854 1.19049,2.2955c0.5816,0.7439 1.38943,1.02213 1.92685,1.6205c0.57339,0.63846 1.3421,0.9124 2.01147,1.44116c0.741,0.58533 0.91977,1.58194 1.8045,1.64284c0.89786,0.0618 1.70001,0 2.60001,0c0.89999,0 1.77917,0 2.73599,0c0.86401,0 1.77658,0.1498 2.66385,-0.00017c0.85202,-0.144 1.25604,-0.97055 2.20016,-0.99983c0.89957,-0.02791 1.65768,-0.23499 2.39999,-0.64734c0.82443,-0.45796 1.23434,-1.01726 1.72534,-1.74199c0.53583,-0.79091 0.9787,-1.49084 1.37601,-2.12801c0.54544,-0.87468 0.96326,-1.74701 1.36533,-2.48267c0.40198,-0.73549 1.28946,-1.12788 1.88599,-1.64734c0.65363,-0.56918 1.42761,-0.89445 2.14734,-1.55133c0.5845,-0.53348 1.18475,-1.11272 1.96667,-1.63466c0.70682,-0.47182 1.67737,-0.21439 2.35416,-0.66667c0.74515,-0.49797 1.67917,-0.5 2.57916,-0.5c0.89999,0 1.70001,0 2.60001,0c0.89999,0 1.79999,-0.00226 2.70001,0c0.89548,0.00226 1.40646,0.67139 2.12082,0.97917c0.89944,0.38753 1.88474,0.0119 2.47916,0.52083c0.59146,0.50638 0.58734,1.32826 1.05719,2.14284c0.39615,0.68681 0.6203,1.49557 1.1095,2.19049c0.50333,0.71501 1.44507,0.90379 1.79733,1.60268c0.4342,0.86142 0.03598,1.864 0.03598,2.76266l0,0.854" id="svg_36" stroke-width="2" stroke="#000" fill="none"/>
  <path t="65622,65741,65758,65758,65766,65774,65791,65806,65830,65838,65862,65886,65886,65894,65909,65926,65981,66006,66030,66038,66054,66077,66126,66165,66214,66229,66262,66277,66285,66310,66310,66334,66342,66358,66373,66390,66398,66421,66430,66438,66454,66462,66478,66502,66502,66510,66542,66557,66558,66581,66621,66638,66646,66661,66669,66685,66701,66717,66749,66805,66822,66838,66853,66870,66933,66942,66942,66965,66981,67005,67029,67038,67054,67054,67069,67077,67086,67094,67101,67133" d="m417.51135,301.09091c-1.75714,0 -2.67477,0.125 -3.51599,-0.08533c-0.88071,-0.22018 -1.39273,-1.11395 -1.48401,-1.96735c-0.08014,-0.74924 -0.60126,-1.53458 -0.97464,-2.34732c-0.4075,-0.88702 -0.94031,-1.5874 -1.02402,-2.39999c-0.09222,-0.89529 -0.00134,-1.80002 -0.00134,-2.67917c0,-0.95685 0,-1.82083 0,-2.72086c0,-0.89999 -0.43427,-2.03241 0.16669,-2.63333c0.60092,-0.60089 1.74933,-0.16666 2.53784,-0.16666c0.89548,0 1.81119,-0.15714 2.6955,0.01065c0.94592,0.17947 1.58737,0.90433 2.39999,0.98801c0.89526,0.09219 1.69174,0.19012 2.284,0.71735c0.6022,0.53607 1.44577,0.91321 1.88,1.67334c0.36093,0.63181 0.90991,1.33624 1.64667,1.59998c0.83734,0.29974 1.83386,-0.08478 2.58932,0.29468c0.86719,0.43561 1.73666,0.31262 2.51468,0.80133c0.74008,0.46487 1.28531,0.91467 2.08533,0.91467c0.91467,0 1.9122,-0.39359 2.76401,0.03601c0.69879,0.35242 1.23734,0.96332 2.13599,0.96399c0.89999,0.00067 1.79999,0 2.70001,0c0.89999,0 1.79999,0 2.69983,0c0.87482,0 1.83774,0.4021 2.61484,-0.08533c0.74039,-0.46439 1.42636,-0.94781 1.92816,-1.61917c0.50562,-0.67645 0.35715,-1.73151 0.35715,-2.59549c0,-0.90002 0,-1.80002 0,-2.70001c0,-0.79999 0,-1.70001 0,-2.60001c0,-0.89999 0,-1.79999 0,-2.6955l0,-0.92599" id="svg_37" stroke-width="2" stroke="#000" fill="none"/>
  <path t="68062,68221,68230,68246,68269,68285,68301,68301,68317,68318,68334,68342,68373,68421,68421,68445,68493,68541,68573,68597,68613,68661,68685,68709,68749,68789,68797,68805,68829,68869,68885,68893,68917,68933,68941,68949,68965,68973,68989,68989,69005,69014,69021,69061,69077,69085,69173,69301,69333,69365,69413,69453,69501,69501,69509,69549,69597,69661,69749,69773,69773,69797,69821,69830" d="m490.51135,222.09091c-1.69998,0 -2.6196,0.00195 -3.39999,-0.42534c-0.82254,-0.45038 -1.74887,-0.40468 -2.60001,-0.74133c-0.70264,-0.27792 -1.48123,-0.78645 -2.34732,-0.82883c-1.01547,-0.04968 -1.85266,-0.0045 -2.75266,-0.0045c-0.90002,0 -1.70001,0 -2.60001,0c-0.89999,0 -1.80002,-0.00208 -2.68933,0c-0.96335,0.00226 -1.56287,0.5249 -2.03601,1.01067c-0.52539,0.5394 -0.57535,1.38933 -0.57468,2.28934c0.00067,0.89867 0.36215,1.63644 1,2.2c0.5835,0.51552 0.55069,1.35054 1.05719,2.14284c0.39706,0.62109 1.54282,0.35716 2.44281,0.35716c0.90002,0 1.80002,0 2.70001,0c0.89999,0 1.84543,-0.1938 2.60001,0.08533c0.8696,0.32169 1.20755,1.27451 1.77466,1.94c0.50882,0.59708 1.22668,0.974 2.14001,0.97467c0.896,0.00066 1.78531,0 2.68533,0c0.89999,0 2.06033,0.5126 2.59866,-0.08533c0.612,-0.67976 0.00131,-1.71468 0.00131,-2.61467c0,-0.90001 0.00223,-1.8 0,-2.7c-0.00226,-0.90002 -0.284,-1.8 -0.71597,-2.40001l-0.33667,-0.84283l-0.78067,-0.52383l-0.22385,-0.82883" id="svg_38" stroke-width="2" stroke="#000" fill="none"/>
 </g>
 <g display="none">
  <title>muse_image</title>
  <image xlink:href="http://farm1.static.flickr.com/6/9362744_b85f906c10.jpg" id="muse" height="480" width="640" y="0" x="0"/>
 </g>
 <g display="none">
  <title>bbox</title>
  <rect stroke="#f00" fill="none" stroke-width="3" height="148.48" width="532.48" y="175.36" x="71.68" id="bbox"/>
 </g>
</svg>
