<svg width="640" height="480" xmlns="http://www.w3.org/2000/svg" xmlns:svg="http://www.w3.org/2000/svg" xmlns:xlink="http://www.w3.org/1999/xlink">
 <!-- Sketchy ANNOTATION
  ImageNet ID: n03272010_3732
  URL: http://static.flickr.com/1432/561904014_4e4d6cc13a.jpg
  Image Width: 341
  Image Height: 500
  BBox X: 11
  BBox Y: 0
  BBox Width: 328
  BBox Height: 466
  Exposure: 2000ms
  Synset Label: guitar
  Synset ID: n03467517
  Worker Tag: guitar on floor
  Sanity Check: 
   Saved
  Comment: 
   {}
  Worker ID: A2DHLFPCDUTK2O
  Assignment ID: 36NEMU28XFDVNP2GA8JIUQS3D6PMWB
  HIT ID: 33EEIIWHK7776V29MPG10DY9C7VVQC
  Work Time: 298s
  Worker Score: 0.7857
 END ANNOTATION -->
 <g display="inline">
  <title>Layer 1</title>
  <path t="0,220,250,277,282,309,337,337,344,383,420,448,520,586,669,737,738,770,818,837,881,929,955,970,1037,1056,1088,1102,1169,1194,1300,1328,1352,1354,1391,1399,1416,1431,1447,1463,1511,1552,1561,1561,1599,1636,1702,1729,1761,1792,1820,1832,1832,1848,1863,1879,1890,1912,1936,1986,2001,2086,2121,2183,2215,2290,2313,2401,2453,2472,2535,2561,2568,2648,2687,2721,2752,2834,2848,2866,2897,2921,2937,2960,2975,3020,3103,3151,3168,3196,3197,3221,3240,3259,3275,3275,3304,3328,3337,3353,3375,3392,3407,3415,3423,3439,3447,3456,3456,3473,3489,3495,3519,3543,3567,3591,3600,3602,3615,3631,3647,3663,3688,3712,3712,3753,3784,3820,3840,3871,3880,3895,3911,3951,3984,4025,4040,4040,4081,4152,4172,4219,4248,4279" d="m319,170c-1.70001,0.05716 -2.42258,0.68552 -3.29999,0.94284c-0.8642,0.25345 -1.4856,0.49911 -1.98535,1.25583c-0.40213,0.60892 -1.14285,1.17113 -1.93616,1.67982c-0.74655,0.47873 -1.9274,-0.21558 -2.61185,0.28818c-0.65298,0.48059 -1.26666,0.83333 -2.16666,0.83333c-0.79999,0 -1.70001,0 -2.60001,0c-0.89999,0 -1.79999,0.00067 -2.69998,0c-0.89868,-0.00067 -1.43918,-0.60768 -2.13602,-0.964c-0.84982,-0.43456 -1.67789,-0.42542 -2.21133,-1.08867c-0.46317,-0.57584 -0.66714,-1.33447 -1.186,-2.114c-0.47089,-0.70746 -0.61279,-1.38089 -1.08133,-2.11867c-0.43912,-0.69147 0.23703,-1.86845 -0.30667,-2.59332c-0.4823,-0.64302 -0.61932,-1.41922 -1.13132,-2.06866c-0.48453,-0.61462 -0.51077,-1.40932 -0.93134,-2.25267c-0.32993,-0.66165 -0.71375,-1.49998 -0.716,-2.40001c-0.00223,-0.89999 0,-1.79999 0,-2.7c0,-0.89999 0,-1.8 0,-2.7c0,-0.8 0,-1.7 0,-2.60001c0,-0.89999 0.00067,-1.79999 0,-2.7c-0.00067,-0.89999 -0.28497,-1.75957 -0.64734,-2.39999c-0.46442,-0.82079 -1.05716,-1.29774 -1.95267,-1.3c-0.89999,-0.00226 -1.79999,0 -2.69998,0c-0.90002,0 -1.93216,-0.24423 -2.616,0.284c-0.6275,0.48471 -1.43417,0.64296 -2.05869,1.14134c-0.60797,0.48518 -1.39526,0.608 -2.05066,1.14932c-0.60483,0.49956 -1.14133,1.25867 -1.97467,1.42534c-0.83334,0.16667 -1.35193,0.82713 -1.94733,1.35266c-0.63815,0.56326 -0.71118,1.33656 -1.07352,2.12651c-0.33514,0.73065 -1.57727,0.84937 -1.89383,1.72083c-0.30869,0.84972 -0.08533,1.8 -0.08533,2.60001c0,0.89999 -0.24203,1.64835 -0.716,2.284c-0.57327,0.76881 -0.26526,1.7162 -0.284,2.616c-0.01801,0.86456 -0.85425,1.34396 -0.99866,2.10133c-0.16833,0.88277 -0.00134,1.79868 -0.00134,2.69867c0,0.89999 0,1.8 0,2.7c0,0.90001 0,1.8 0,2.60001c0,0.89999 0,1.8 0,2.7c0,0.89999 0,1.8 0,2.7c0,0.90001 0,1.8 0,2.60001c0,0.89999 -0.00534,1.80002 0,2.7c0.00534,0.90004 0.45297,1.60719 0.83334,2.5c0.32019,0.75154 0.22113,1.70148 0.66666,2.5c0.44467,0.797 1.16602,1.30881 1.47916,2.02083c0.34985,0.79553 0.73782,1.35623 1.01016,2.08984c0.30972,0.83426 0.59982,1.70724 0.88919,2.48933c0.31512,0.85173 0.12149,1.7 0.12149,2.59999c0,0.90001 0.03601,1.864 0.64734,2.35268l0.35132,0.74866l0.0585,0.84151" id="svg_1" stroke-width="2" stroke="#000" fill="none"/>
  <path t="5307,5465,5490,5506,5522,5529,5549,5576,5600,5631,5648,5663,5679,5703,5703,5711,5735,5752,5768,5784,5801,5816,5832,5832,5839,5839,5848,5856,5864,5873,5880,5890,5906,5906,5912,5920,5927,5943,5967,5992,5999,6012,6025,6031,6040,6057,6057,6063,6074,6080,6091,6107,6120,6120,6135,6143,6152,6168,6183,6192,6207,6215,6232,6240,6240,6247,6263,6273,6279,6290,6304,6319,6319,6328,6343,6343,6359,6375,6375,6384,6391,6407,6415,6431,6439,6456,6463,6473,6495,6505,6519,6536,6543,6575,6584,6601,6615,6631,6655,6703,6738,6745,6784,6784,6900,6929,7882,7921,7986,8037,8089,8137,8160,8176,8200,8284,8306,8314,8354,8361,8361,8361,8375,8384,8384,8400,8424,8440,8448,8458,8473,8480,8488,8495,8512,8520,8527,8543,8552,8552,8560,8575,8592,8608,8608,8615,8616,8623,8640,8647,8656,8673,8673,8679,8690,8711,8727,8727,8735,8751,8768,8784,8784,8791,8815,8831,8831,8840,8872,8889,8903,8911,8927,8939,8959,8959,8975,8985,9000,9031,9031,9055,9079,9095,9120,9136,9159,9159,9169,9184,9207,9223,9241,9264,9288,9288,9311,9336,9344,9371,9383,9400,9415,9431,9431,9455,9479,9497,9536,9575,9607,9616,9640,9641,9664,9688,9696,9719,9744,9768,9768,9776,9792,9802,9839,9840,9847,9863,9880,9888,9904,9911,9920,9927,9960,10008,10056,10746,10755,10778,10792,10803,10824,10824,10835,10848,10872,10872,10890,10911,10927,10943,10959,10967,10991,11015,11056,11064,11084,11085,11089,11104,11143,11167,11191,11200,11215,11224,11255,11263,11295,11303,11314,11327,11344,11351,11375,11401,11401,11416,11425,11455,11487,11503,11519,11536,11543,11559,11559,11568,11575,11591,11591,11607,11623,11633,11650,11664,11673,11680,11689,11706,11743,11743,11759,11767,11783,11793,11800,11800,11808,11823,11833,11841,11841,11856,11873,11879,11880,11890,11895,11903,11911,11927,11927,11935,11943,11943,11952,11959,11975,11975,11985,11991,12007,12023,12023,12032,12039,12047,12056,12063,12079,12079,12095,12111,12111,12119,12127,12143,12143,12159,12175,12185,12201,12216,12217,12223,12247,12271,12295,12295,12320,12328,12352,12375,12407,12416,12439,12447,12456,12473,12479,12495,12495,12511,12527,12551,12567,12583,12600,12616,12625,12625,12642,12659,12671,12679,12695,12703,12711,12728,12736,12751,12775,12791,12800,12800,12823,12839,12855,12863,12895,12927,12943,12952,12952,12967,13007,13047,13071,13189,13240,13256,13272,13272,13291,13304,13359,13376,13387,13431,13514,14518,14552,14599,14640,14656,14656,14665,14687,14707,14775,14807,14816,14855,14887,14887,14903,14912,14927,14951,14991,15008,15032,15071,15071,15135,15161,15171,15209,15216,15216,15263,15279,15303,15327,15336,15344,15376,15400,15400,15436,15481,15490,15511,15551,15619,15650,15651,15688,15697,15698,15816,15843,15884,15913,15915,15927,15944,15959,15959,16015,16048,16059,16082,16096,16097,16113,16124,16152,16200,16224,16232,16240,16256,16279,16303,16311,16320,16336,16345,16367,16376,16391,16407,16455,16464,16487,16506,16511,16520,16527,16544,16553,16559,16568,16577,16583,16591,16607,16615,16632,16649,16665,16665,16679,16688,16695,16719,16736,16751,16760,16775,16783,16791,16811,16816,16816,16823,16834,16848,16864,16865,16872,16879,16881,16888,16903,16911,16920,16920,16927,16943,16944,16952,16975,16983,16999,17016,17039,17049,17064,17064,17071,17081,17095,17103,17120,17127,17147,17168,17168,17191,17191,17210,17223,17239,17248,17255,17274,17275,17280,17298,17303,17311,17327,17336,17351,17367,17387,17388,17392,17400,17408,17416,17432,17452,17452,17464,17481,17481,17488,17497,17512,17527,17543,17567,17576,17599,17615,17624,17639,17651,17664,17665,17673,17681,17700,17705,17719,17728,17737,17751,17751,17767,17776,17786,17807,17807,17839,17871,17887,17911,17943,17944,17975,17991,17992,18008,18039,18055,18071,18090,18097,18119,18167,18183,18183,18231" d="m278,202c0,1.8 -0.01068,2.70006 0,3.60001c0.01044,0.87935 0.77481,1.33659 0.99551,2.10449c0.24738,0.86067 0.00449,1.7955 0.00449,2.6955c0,0.90001 0,1.8 0,2.70001c0,0.89999 0,1.7 0,2.59999c0,0.90001 0,1.8 0,2.7c0,0.90001 0.08212,1.80377 -0.00015,2.70001c-0.08368,0.91144 -0.66757,1.5042 -0.91583,2.38266c-0.22275,0.78812 -0.85901,1.44443 -1.07953,2.22183c-0.24438,0.86153 0.04843,1.83025 -0.35715,2.5955c-0.4483,0.8459 -0.47379,1.73825 -0.73267,2.5c-0.30176,0.88792 -0.90009,1.58025 -1.41467,2.2c-0.49991,0.60204 -0.44708,1.53474 -0.85266,2.3c-0.4483,0.8459 -0.32556,1.83789 -0.814,2.53333c-0.50232,0.71519 -0.65005,1.32095 -1,2.16667c-0.32468,0.78462 -0.77133,1.55768 -1.444,2.02533c-0.72284,0.50252 -1.2644,1.17931 -1.3895,2.07468c-0.12665,0.90646 -0.42389,1.59042 -0.99985,2.37917c-0.46753,0.64027 -1.05267,1.22533 -1.5,2.02083c-0.44733,0.7955 -1.04068,1.37463 -1.5,2.02083c-0.49548,0.69711 -0.72336,1.64465 -1.16666,2.47917c-0.33673,0.63391 -1.40656,0.92049 -1.83334,1.52083c-0.56589,0.79601 -0.68146,1.7115 -1.284,2.39516c-0.52673,0.59766 -0.97946,1.30356 -1.51733,1.884c-0.67224,0.72543 -1.29868,1.30002 -1.89868,1.90002c-0.69998,0.69998 -1.39398,1.22385 -1.86398,1.89999c-0.5601,0.80579 -1.08232,1.20963 -1.82533,1.836c-0.63054,0.53152 -0.94748,1.41522 -1.58534,1.98932c-0.57872,0.52087 -1.18422,1.09271 -1.74133,1.65869c-0.66061,0.67111 -1.13525,1.25278 -1.70934,1.89066c-0.52086,0.57874 -1.04979,1.22549 -1.74133,1.85867c-0.59804,0.54758 -1.2184,1.07452 -1.808,1.59198c-0.63776,0.55969 -1.21094,1.06342 -1.85866,1.74133c-0.60406,0.63223 -0.98059,1.25723 -1.45201,2.03336c-0.41081,0.67636 -1.18416,1.30576 -1.66199,2.09549c-0.39735,0.65671 -1.04005,1.22519 -1.05267,2.10449c-0.01286,0.89542 -0.38757,1.61499 -1.02533,2.17468c-0.5896,0.51746 -0.57196,1.36313 -1.06,2.13998c-0.46492,0.74005 -0.59221,1.43921 -1.136,2.164c-0.48418,0.64532 -1.09923,1.29822 -1.62933,1.94669c-0.43372,0.53055 -0.93573,1.46518 -1.37067,2.27466c-0.3483,0.64822 -0.7695,1.51819 -1.20401,2.29999c-0.45537,0.81931 -1.14145,1.27768 -1.53867,2.03601c-0.39925,0.76221 -0.42357,1.57898 -1.06133,2.13867c-0.5896,0.51746 -0.77838,1.26114 -1.03183,2.12534c-0.25732,0.87741 -0.77924,1.64703 -1.16417,2.39999c-0.39017,0.76318 -0.60606,1.52048 -0.7995,2.39999c-0.1864,0.84756 -1.09183,1.41568 -1.54317,2.13599c-0.48686,0.77701 -0.51678,1.63474 -1.01067,2.37869c-0.44691,0.67322 -0.34802,1.65286 -0.86134,2.38531c-0.55367,0.79004 -1.31374,1.13577 -1.54317,2.10001c-0.20847,0.8761 -0.4297,1.62732 -0.85416,2.5c-0.32086,0.65967 -0.85222,1.42255 -1.10951,2.29999c-0.25378,0.86548 -0.25023,1.82407 -0.76166,2.40002c-0.65021,0.73227 -1.23462,1.39386 -1.2955,2.29999c-0.05363,0.79819 -0.3707,1.42896 -0.87849,2.2215c-0.47844,0.74673 0.21558,1.9274 -0.28818,2.61185c-0.48059,0.65298 -0.83333,1.26666 -0.83333,2.16666c0,0.79999 0.41269,1.82343 -0.05716,2.64282c-0.39442,0.68787 -0.94284,1.35718 -0.94284,2.15717c0,0.90002 0,1.80002 0,2.70001c0,0.89999 0.13168,1.85007 -0.22133,2.60001c-0.36504,0.77551 -0.77333,1.49994 -0.77867,2.39999c-0.00533,0.89996 0,1.79999 0,2.70001c0,0.89999 0,1.79999 0,2.59998c0,0.90002 0,1.80002 0,2.70001c0,0.89999 0,1.79999 0,2.70001c0,0.89999 0,1.79999 0,2.59998c0,0.90002 0,1.80002 0,2.70001c0,0.89999 0,1.79999 0,2.70001c0,0.89999 0,1.79999 0,2.59998c0,0.90002 -0.16522,1.81921 0.02083,2.70001c0.17899,0.84738 0.91829,1.59387 0.97917,2.5c0.05363,0.79819 -0.41269,1.82343 0.05716,2.64282c0.39442,0.68787 0.77469,1.39362 1.02817,2.15717c0.25635,0.77219 0.886,1.49866 0.91467,2.40002c0.02861,0.89935 0.33681,1.65121 0.97467,2.22531c0.57872,0.52087 1.01999,1.18527 1.02533,2.07468c0.0054,0.89996 -0.02924,1.82047 0.5,2.5c0.49496,0.63553 0.96541,1.37561 1.37866,2.09982c0.45193,0.79199 1.24933,1.08884 1.82133,1.60468c0.7272,0.65579 1.10001,1.5416 1.46667,2.2955c0.3714,0.76361 0.91432,1.39905 1.48067,2.05267c0.52005,0.60019 1.11624,1.25848 1.70532,1.89465c0.53299,0.57559 1.12671,1.16455 1.70001,1.70001c0.68521,0.63998 1.27888,1.16608 2.04733,1.57401c0.64995,0.345 1.3226,0.9379 1.98399,1.49466c0.61678,0.51923 1.5699,0.76654 2.30533,1.25867c0.66948,0.448 1.05989,1.26413 1.69467,1.74133c0.76656,0.57626 1.46361,0.73007 2.20134,1.19867c0.6913,0.43912 1.38399,0.63373 2.07182,1.02817c0.81941,0.46988 2.0224,-0.18961 2.59016,0.41434c0.62114,0.66071 0.88188,1.29105 1.75267,1.6955c0.83128,0.38608 1.51671,0.75491 2.39984,0.94748c0.84427,0.18411 1.33562,0.9812 2.20016,0.99985c0.89978,0.01941 1.82404,0.19308 2.39999,0.7045c0.73227,0.65024 1.39389,1.23462 2.3,1.2955c0.7982,0.05362 1.7,0.05716 2.5,0.5c0.79999,0.44284 1.70001,0.5 2.60001,0.5c0.89999,0 1.45438,0.41769 2.12149,0.87851c0.72971,0.50406 1.81674,-0.05206 2.57849,0.20682c0.88794,0.30176 1.59949,0.896 2.5,0.91467c0.89984,0.01868 1.75693,0.2897 2.40002,0.64734c0.85312,0.4744 1.61789,0.9418 2.39999,1.23117c0.85175,0.31512 1.69998,0.12149 2.60001,0.12149c0.93597,0 1.83414,-0.23199 2.59015,0.05716c0.89728,0.34317 1.51126,0.93076 2.40985,0.94284c0.82101,0.01105 1.77676,0.30182 2.47464,0.57468c0.93097,0.36401 1.82535,0.42532 2.62534,0.42532c0.90002,0 1.836,0 2.68402,0c0.86331,0 1.75882,0 2.716,0c0.89999,0 1.79999,0 2.59998,0c0.90002,0 1.8786,-0.34305 2.67917,0.02084c0.77322,0.35147 1.2825,0.9769 2.17352,0.97916c0.86331,0.00217 1.84732,0 2.66864,0c0.85333,0 1.79333,0 2.77869,0c0.89999,0 1.73175,-0.18671 2.60001,0.05716c0.76144,0.21387 1.49698,0.90012 2.39999,0.94284c0.89899,0.04251 1.83035,-0.39297 2.61465,0.08533c0.80365,0.49008 1.38535,0.91467 2.28534,0.91467c0.79999,0 1.70001,0 2.60001,0c0.89999,0 1.79999,0 2.69998,0c0.90002,0 1.80441,-0.08868 2.70001,0c0.8457,0.08374 1.28201,0.95728 2.10001,1c0.89877,0.04694 1.69998,0 2.60001,0c0.89999,0 1.79999,0 2.69998,0c0.89999,0 1.80002,0 2.70001,0c0.89999,0 1.69998,0 2.60001,0c0.89999,0 1.79999,0 2.69998,0c0.89999,0 1.88113,-0.13733 2.54733,0.35266c0.68423,0.50323 1.45267,0.64734 2.35266,0.64734c0.90002,0 1.80002,0 2.70001,0c0.79999,0 1.70001,0 2.60001,0c0.89999,0 1.79999,0 2.69998,0c0.90002,0 1.80002,0 2.70001,0c0.79999,0 1.70001,0 2.60001,0c0.89999,0 1.79999,0 2.69998,0c0.90002,0 1.80002,0 2.70001,0c0.79999,0 1.70001,0 2.60001,0c0.89999,0 1.78934,0.01068 2.39999,0.5c0.61066,0.48932 1.5,0.5 2.39999,0.5c0.89999,0 1.80002,0 2.70001,0c0.89999,0 1.69998,0 2.60001,0c0.89999,0 1.79999,0 2.69998,0c0.89999,0 1.80002,0 2.70001,0c0.89999,0 1.69998,0 2.60001,0c0.89999,0 1.79999,0 2.69998,0c0.89999,0 1.80002,0 2.70001,0c0.89999,0 1.69998,0 2.60001,0c0.89999,0 1.80643,0.09793 2.71066,-0.01068c0.92801,-0.11145 1.58115,-0.51114 2.56766,-0.86798c0.84842,-0.30692 1.30368,-1.07861 2.12167,-1.12134c0.89877,-0.04694 1.56964,-0.39752 2.18533,-0.91599c0.6655,-0.56039 1.48151,-0.92987 2.31467,-1.07333c0.88699,-0.15274 1.8374,-0.07605 2.42532,-0.58536c0.64862,-0.56192 1.13461,-1.29678 1.97467,-1.42532c0.79526,-0.12167 1.60266,-0.60797 2.20001,-1.20001c0.60266,-0.59729 1.30621,-1.26874 2.09549,-1.74731c0.66168,-0.40118 1.17441,-1.11624 1.85382,-1.65268c0.71185,-0.56204 1.2551,-1.24725 2.05069,-1.68399c0.6481,-0.35577 1.18472,-1.0274 1.96664,-1.54935c0.70685,-0.47183 1.58359,-0.44861 2,-1.16666c0.42047,-0.72507 1.23376,-1.07941 1.88602,-1.64734c0.70712,-0.61572 1.25848,-1.11624 1.89465,-1.70532c0.57559,-0.53299 1.16455,-1.12671 1.70001,-1.70001c0.64001,-0.68521 1.19016,-1.29025 1.70532,-1.89465c0.55096,-0.64642 0.65802,-1.44202 1.14734,-2.05267c0.48932,-0.61066 0.4946,-1.62094 1.11066,-2.02533c0.73593,-0.48309 1.19693,-1.19138 1.3895,-2.07449c0.18411,-0.84427 0.71732,-1.3002 1.00433,-2.19568c0.24387,-0.76086 0.98288,-1.22519 0.99551,-2.10449c0.01285,-0.89542 0.44659,-1.65381 1.02533,-2.17468c0.63788,-0.5741 0.974,-1.22665 0.97467,-2.12534c0.00067,-0.89999 -0.05289,-1.83472 0.35266,-2.59998c0.4483,-0.84592 0.64734,-1.70001 0.64734,-2.5c0,-0.90002 0.20023,-1.6008 0.716,-2.28403c0.46454,-0.61533 0.284,-1.616 0.284,-2.51599c0,-0.89999 0,-1.79999 0,-2.69998c0,-0.90002 0,-1.80002 0,-2.70001c0,-0.79999 0,-1.70001 0,-2.60001c0,-0.92084 -0.0701,-1.89133 0.03601,-2.57465c0.14917,-0.96066 0.8761,-1.81168 0.9595,-2.52536c0.10446,-0.89392 0.00449,-1.79999 0.00449,-2.71066c0,-0.91064 0,-1.76398 0,-2.70398c0,-0.88535 0,-1.68533 0,-2.58536c0,-0.89999 0,-1.79999 0,-2.69998c0,-0.89999 0,-1.80002 0,-2.70001c0,-0.89999 0,-1.69998 0,-2.60001c0,-0.89999 0,-1.79999 0,-2.69998c0,-0.89999 0,-1.80002 0,-2.70001c0,-0.89999 0,-1.78534 0,-2.72534c0,-0.69064 0,-1.76398 0,-2.57465c0,-0.89999 0,-1.80002 0,-2.70001c0,-0.89999 0,-1.69998 0,-2.60001c0,-0.89999 -0.16281,-1.73804 -0.64734,-2.35266c-0.51199,-0.64944 -0.35266,-1.64734 -0.35266,-2.54733c0,-0.92084 0.00146,-1.884 0,-2.57465c-0.00226,-1.06369 -0.6102,-1.56323 -0.96399,-2.26135c-0.3909,-0.77133 -0.03601,-1.76401 -0.03601,-2.66415c0,-0.78519 0,-1.72519 0,-2.73318c0,-0.75598 -0.16281,-1.60471 -0.64734,-2.21933c-0.51199,-0.64944 -0.40982,-1.64734 -0.85266,-2.44733c-0.44284,-0.79999 -0.5,-1.70001 -0.5,-2.60001c0,-0.89999 -0.41769,-1.45438 -0.87851,-2.12149c-0.50406,-0.72971 0.05206,-1.81674 -0.20682,-2.57849c-0.30176,-0.88794 -0.896,-1.59949 -0.91467,-2.5c-0.01865,-0.8985 -0.49054,-1.51047 -0.97467,-2.13602c-0.57718,-0.74579 -0.94031,-1.55139 -1.02399,-2.36398c-0.09222,-0.89529 -0.24338,-1.64835 -0.71735,-2.28403c-0.57324,-0.76883 -0.09729,-1.74774 -0.34116,-2.616c-0.21387,-0.76144 -0.8179,-1.50464 -0.94299,-2.39999c-0.12665,-0.90646 -0.65347,-1.46042 -1.29535,-2.19998c-0.57864,-0.66669 -0.31091,-1.63062 -0.78983,-2.41467c-0.49066,-0.80328 -0.65842,-1.51025 -1.13602,-2.164c-0.51071,-0.69907 -0.53189,-1.50089 -1.13583,-2.06866c-0.66071,-0.62112 -1.47617,-1.05267 -1.72684,-1.76733l-0.79465,-0.50684" id="svg_2" stroke-width="2" stroke="#000" fill="none"/>
  <path t="22311,22759,22884,22904,22999,22999,23069,23096,23133,23146,23160,23192,23192,23218,23249,23259,23259,23281,23313,23336,23353,23385,23416,23416,23424,23448,23464,23502,23552,23585,23593,23614,23634,23726,23819,24825,24860,24885,24914,24914,24936,25001,25065,25107,25123,25164,25164,25170,25219,25327,25327,25357,25391,25409,25448,25465,25518,25518,25565,25610,25626,25650,25666,25673,25688,25704,25723,25753,25769,25785,25785,25808,25834,25856,25864,25878,25896,25920,25928,25944,25960,25984,26009,26032,26048,26080,26080,26096,26167,26196,26197,26226,26233,26233,26264,26303,26312,26385,26409,26417,26446,26456,26471,26496,26519,26544,26650,26673,26689,26729,26880,26880,26905,26914,26967,26971,26971,26996,27023,27039,27039,27047,27071,27087,27103,27128,27128,27135,27144,27144,27159,27175,27191,27207,27207,27223,27247,27247,27271,27303,27384,27415,27449,27586,27617,27634,27666,27666,27672,27672,27697,27698,27698,27713,27713,27713,27720,27744,27767,27799,27823,27823,27839,27885,28332,28370,28500,28516,28531,28539,28578,28668,28683,28699,28704,28734,28851,28874,28883,28883,28926,29008,29023,29043,29047,29071,29095,29095,29127,29135,29151,29167,29184,29192,29208,29308,29308,29337,29346,29391,29431,29431,29447,29447,29463,29480,29504,29535,29585,29625,29647,29679,29687,29783,29840,30111" d="m417,278c-0.16666,-1.83334 -0.85861,-2.22449 -1.00015,-3.10001c-0.14606,-0.90353 -0.7551,-1.43903 -0.979,-2.39999c-0.20193,-0.8667 -0.64703,-1.32834 -1.31635,-1.85718c-0.74094,-0.58542 -0.67743,-1.64328 -0.7045,-2.44281c-0.02859,-0.8443 -0.91626,-1.35431 -1,-2.20001c-0.07883,-0.79608 -0.05716,-1.70001 -0.5,-2.5c-0.44284,-0.79999 -0.41788,-1.7038 -0.50015,-2.60001c-0.08368,-0.91144 -0.42392,-1.59042 -0.99985,-2.37915c-0.46753,-0.64029 -0.99774,-1.22534 -1,-2.12085c-0.00226,-0.89999 0.00067,-1.79999 0,-2.7c-0.00067,-0.89867 -0.61172,-1.43712 -0.96399,-2.136c-0.4342,-0.86142 -0.03601,-1.864 -0.03601,-2.76399c0,-0.90001 0,-1.8 0,-2.60001c0,-0.89999 -0.00534,-1.80002 0,-2.7c0.00534,-0.90004 0.44232,-1.6118 0.83334,-2.5c0.28952,-0.65764 0.48114,-1.38715 1,-2.16667c0.47089,-0.70746 0.14865,-1.63351 0.16666,-2.53333c0.01801,-0.90054 0.61813,-1.61032 0.91467,-2.5c0.28589,-0.85765 0.08533,-1.8 0.08533,-2.60001c0,-0.89999 0,-1.8 0,-2.7c0,-0.89999 -0.07306,-1.85017 0.42532,-2.47467c0.4852,-0.60796 0.57468,-1.42532 0.57468,-2.32533c0,-0.89999 0,-1.8 0,-2.7c0,-0.8 0,-1.7 0,-2.60001c0,-0.89999 -0.24289,-1.83482 0.00449,-2.6955c0.2207,-0.7679 0.6665,-1.38814 1.01636,-2.18367c0.31314,-0.71202 0.96655,-1.2254 0.97916,-2.12083c0.01266,-0.90015 0.54321,-1.60329 0.87851,-2.5c0.31808,-0.85063 -0.28125,-1.83641 0.20682,-2.61465c0.46436,-0.74043 1.0412,-1.31723 1.52533,-1.88535c0.63519,-0.74536 1.12622,-1.43687 1.47336,-2.2c0.38858,-0.85426 0.9014,-1.58025 1.41599,-2.2c0.49991,-0.60204 0.1333,-1.57971 0.52084,-2.47917c0.3078,-0.71434 1.03448,-1.22383 1.47916,-2.02083c0.44553,-0.79852 0.38922,-1.60684 0.5,-2.5c0.11151,-0.89923 0.95728,-1.28236 1,-2.2c0.04184,-0.89903 0,-1.8 0,-2.60001c0,-0.89999 0,-1.8 0,-2.72083c0,-0.96317 0,-1.65384 0,-2.722c0,-0.85718 0,-1.75717 0,-2.55717c0,-0.89999 0,-1.8 0,-2.7c0,-0.91066 0,-1.82133 0,-2.67467c0,-0.94 0,-1.82533 0,-2.62534c0,-0.89999 0,-1.8 0,-2.72083c0,-0.96317 0.12973,-1.66229 -0.00449,-2.722c-0.11111,-0.87718 -0.79404,-1.41348 -0.98483,-2.35718c-0.17432,-0.86229 -0.44092,-1.56007 -1.0947,-2.116c-0.61417,-0.52226 -1.45316,-1.03094 -2.31598,-1.248c-0.8735,-0.21974 -1.80267,-0.036 -2.57068,-0.036c-1.03915,0 -1.8147,-0.00665 -2.86267,0c-0.70953,0.0045 -1.61667,0.00928 -2.56534,0.56799c-0.6235,0.3672 -1.21466,0.72136 -2.05966,1.41118c-0.69272,0.56551 -1.0304,1.3078 -1.76315,1.89949c-0.64581,0.52148 -1.22571,0.94318 -1.80383,1.68533c-0.48611,0.62402 -1.3175,1.04878 -1.85333,1.6575c-0.62305,0.70782 -0.56183,1.60268 -1.14667,2.3425c-0.53613,0.67822 -1.07761,1.3259 -1.836,1.82533c-0.61154,0.40274 -1.49673,0.71968 -2.19135,1.25801c-0.58411,0.45268 -1.55011,0.3829 -2.358,0.778c-0.9137,0.44684 -1.66006,0.39548 -2.47949,0.92732c-0.74567,0.48399 -1.50983,0.64734 -2.40982,0.64734c-0.90002,0 -1.80002,0 -2.70001,0c-0.79999,0 -1.70001,0 -2.60001,0c-0.89999,0 -1.79999,0 -2.69998,0c-0.90002,0 -1.80002,0 -2.70001,0c-0.79999,0 -1.70639,0.04584 -2.5,0.5c-0.70715,0.40468 -1.66666,0.5 -2.5,0.5c-0.97849,0 -1.6955,0 -2.60001,0c-0.89999,0 -1.79999,0 -2.69998,0c-0.90002,0 -1.80685,0.11076 -2.70001,0c-0.89923,-0.11151 -1.284,-0.916 -1.97467,-1.42534l-0.52533,-0.57466l-0.55267,-0.64734" id="svg_3" stroke-width="2" stroke="#000" fill="none"/>
  <path t="34247,34383,34408,34412,34412,34487,34487,34487,34487,34490,34490,34490,34491,34491,34491,34491,34499,34499,34499,34504,34512,34512,34523,34536,34536,34543,34543,34552,34559,34576,34576,34583,34583,34592,34592,34599,34608,34615,34623,34639,34656,34656,34663,34679,34679,34689,34695,34711,34722,34735,34751,34752,34768,34777,34784,34799,34815,34815,34826,34839,34847,34857,34879,34893,34904,34919,34943,34952,34967,34967,34983,34991,35000,35009,35016,35033,35047,35063,35064,35072,35072,35080,35088,35105,35122,35122,35128,35135,35136,35145,35159,35159,35167,35175,35183,35183,35192,35208,35215,35223,35231,35231,35239,35255,35263,35272,35280,35289,35296,35306,35306,35311,35322,35327,35336,35336,35343,35351,35359,35367,35376,35383,35383,35392,35399,35408,35415,35424,35425,35432,35447,35455,35456,35471,35471,35479,35488,35488,35496,35505,35512,35512,35522,35536,35552,35552,35559,35568,35568,35583,35592,35599,35615,35639,35663,35664,35679,35695,35711,35724,35725,35728,35739,35752,35760,35760,35768,35776,35784,35792,35808,35815,35824,35839,35855,35872,35872,35890,35890,35906,35920,35932,35936,35952,35960,35976,35984,36007,36031,36031,36058,36071,36095,36135,36191,36215,36240,36332,36484,36521,36538,36562,36569,36569,36588,36594,36594,36611,36626,36627,36640,36640,36663,36671,36695,36705,36768,36809,36825,36848,36856,36872,36903,36919,36959,36991,36999,37515,37531,37634,37674,37705,37720,37738,37739,37745,38292,38475,38506,38552,38553,38579,38600,38616,38632,38647,38749,38773,38815,38815,38838,38838,38885,38897,38913,38922,38929,38947,38947,38953,38953,38963,38969,38980,39000,39000,39055,39066,39074,39089,39096,39097,39112,39121,39121,39136,39160,39200,39217,39285,39310,39311,39349,39376,39376,39377,39433,39433,39433,39460,39460,39659,40110,40133,40170,40178,40197,40200,40215,40231,40231,40255,40264,40287,40327,40367,40375,40407,40431,40432,40456,40472,40495,40511,40537,40552,40552,40583,40619,40663,40679,40703,40719,40719,40735,40743,40759,40775,40784,40792,40808,40816,40832,40849,40879,40904,40904,40985,41017,41065,41065,41080,41081,41081,41082,41098,41098,41104,41104,41123,41123,41139,41139,41143,41152,41159,41168,41175,41191,41208,41215,41216,41225,41243,41247,41257,41271,41271,41287,41303,41303,41311,41319,41328,41336,41346,41352,41359,41375,41375,41391,41391,41399,41415,41433,41433,41441,41447,41447,41457,41471,41487,41487,41503,41503,41514,41514,41530,41531,41535,41551,41551,41559,41568,41568,41568,41575,41583,41591,41591,41599,41607,41608,41615,41615,41624,41631,41640,41640,41647,41648,41656,41665,41672,41673,41682,41682,41687,41698,41699,41712,41727,41727,41735,41735,41743,41751,41768,41768,41775,41775,41784,41800,41816,41833,41833,41850,41857,41872,41883,41896,41912,41912,41920,41920,41928,41936,41952,41960,41968,41976,41984,41992,41992,42008,42024,42024,42034,42041,42051,42064,42071,42073,42080,42088,42103,42120,42120,42128,42136,42144,42144,42153,42170,42176,42200,42231,42247,42255,42273,42273,42290,42295,42307,42320,42327,42336,42351,42368,42368,42399,42423,42455,42472,42488,42496,42514,42520,42520,42535,42544,42551,42560,42575,42583,42599,42624,42656,42701,42711,42736,42736,42753,42760,42761,43341,43367,43688,43716,43717,43720,43722,43723,43724,43726,43729,43761,43761,43762,43762,43763,43763,43763,43764,43764,43780,43780,43781,43781,43781,43782,43782,43783,43783,43799,43800,43800,43800,43801,43801,43801,43801,43802,43829,43829,43829,43830,43830,43834,43834,43835,43835,43859,43860,43860,43860,43861,43861,43861,43862,43862,43890,43890,43891,43891,43891,43892,43892,43892,43893,43952,43952,43952,43953,43953,43953,43954,43954,43954,43960,43960,43960,43961,43961,43961,43962,43962,43962,43969,43969,43970,43970,43970,43971,43972,43973,43973,44191,44191,44208,44209,44211,44212,44213,44216,44217,44235,44237,44240,44242,44242,44243,44244,44245,44245,44651,44653,44654,44656,44657,44659,44660,44662,44664,44683,44685,44688,44689,44691,44692,44693,44695,44696,44745,44746,44747,44747,44748,44748,44749,44751,44751,44777,44777,44778,44778,44778,44779,44779,44779,44780,44784,44784,44785,44785,44785,44786,44786,44787,44787,44808,44808,44809,44809,44809,44810,44810,44810,44811,44835,44836,44836,44836,44837,44839,44839,44840,44840,44864,44864,44865,44865,44865,44866,44866,44867,44867,44935,44935,44936,44936,44937,44937,44937,44938,44939,44944,44944,44945,44945,44945,44946,44946,44946,44947,44971,44972,44972,44973,44973,44973,44974,44975,44975,44999,44999,45000,45000,45000,45001,45001,45002,45002,45026,45026,45027,45027,45028,45028,45028,45029,45029,45150,45166,45166,45172,45174,45176,45178,45180,45181,45199,45201,45202,45204,45205,45206,45207,45209,45210,45257,45258,45259,45259,45260,45261,45262,45262,45262,45295,45296,45296,45296,45297,45297,45298,45298,45298,45319,45320,45320,45321,45321,45322,45322,45323,45323,45452,45454,45456,45457,45459,45462,45463,45465,45467" d="m350,3c-0.57468,1.6 -0.92288,2.4263 -1.22134,3.3215c-0.2381,0.71416 -0.63,1.67556 -0.76398,2.55317c-0.08786,0.57565 -0.16867,1.32545 -0.45734,2.8745c-0.11902,0.63871 -0.26178,1.31519 -0.40802,2.0175c-0.14841,0.71269 -0.29993,1.41973 -0.444,2.1075c-0.37534,1.7918 -0.57922,2.63736 -0.66367,3.45917c-0.08871,0.86312 -0.04166,1.76683 -0.04166,2.552c0,0.94 0,1.948 0,2.74c0,0.85867 0.00082,1.722 0,2.73867c-0.00067,0.83733 -0.16324,1.80402 -0.42532,2.46133c-0.40277,1.01011 -0.53104,1.67545 -0.57602,2.65733c-0.03705,0.80858 -0.77365,1.44444 -0.99417,2.22183c-0.24438,0.86152 -0.00449,1.7955 -0.00449,2.70617c0,0.91067 0,1.764 0,2.704c0,0.88533 0.19595,1.71977 -0.05716,2.58533c-0.25665,0.87763 -0.91425,1.59864 -0.94284,2.5c-0.02853,0.89954 0.02536,1.8004 0,2.6c-0.02859,0.90136 -0.68274,1.62339 -0.94284,2.5c-0.22815,0.76891 -0.05716,1.7 -0.05716,2.5c0,0.9 0.39819,1.90258 -0.03601,2.764c-0.35226,0.69887 -0.7677,1.27183 -1.02115,2.136c-0.25732,0.87743 -0.91425,1.59864 -0.94284,2.5c-0.02853,0.89954 0,1.8 0,2.6c0,0.9 -0.20023,1.6008 -0.716,2.284c-0.46454,0.61535 -0.284,1.616 -0.284,2.516c0,0.92084 0.0701,1.89132 -0.03601,2.57467c-0.14917,0.96066 -0.81583,1.59266 -0.9595,2.52533c-0.13702,0.88952 0.03745,1.84023 -0.28848,2.784c-0.24463,0.70829 -0.67328,1.62759 -0.716,2.516c-0.03842,0.79908 0,1.636 0,2.65266c0,0.69467 0.10556,1.75877 -0.284,2.54733c-0.42984,0.87007 -0.71375,1.49999 -0.716,2.4c-0.00223,0.9 0.13272,1.81052 -0.00449,2.7c-0.14368,0.93138 -0.84735,1.46861 -0.99103,2.39999c-0.13721,0.88949 -0.00449,1.8 -0.00449,2.7c0,0.9 0.08212,1.80376 -0.00015,2.7c-0.08368,0.91144 -0.80002,1.55261 -0.979,2.4c-0.18604,0.88081 0.11081,1.85006 -0.24219,2.6c-0.36505,0.77552 -0.7764,1.59999 -0.77866,2.5c-0.00223,0.9 0.11652,1.80816 -0.00449,2.7c-0.11142,0.82134 -0.83173,1.46858 -0.98483,2.3c-0.16309,0.88566 -0.55389,1.60329 -0.88919,2.5c-0.31808,0.85064 -0.10419,1.70017 -0.12149,2.6c-0.01801,0.93652 -0.30197,1.77671 -0.57468,2.47467c-0.36423,0.93221 -0.42465,1.70934 -0.42532,2.65067c-0.00073,1.008 -0.23322,1.64906 -0.716,2.344c-0.51215,0.73717 -0.53833,1.79124 -0.85867,2.42c-0.45236,0.88786 -0.42532,1.82133 -0.42532,2.732c0,0.85333 0.04703,1.79459 0,2.67867c-0.04272,0.80341 -0.70563,1.42094 -0.96399,2.39999c-0.22983,0.87091 -0.03601,1.8 -0.03601,2.70001c0,0.89999 0.16129,1.72388 -0.03601,2.5c-0.21921,0.86226 -0.75299,1.65363 -1.18533,2.5c-0.33472,0.6553 -0.77332,1.49995 -0.77866,2.39999c-0.0054,0.91064 0.16516,1.84549 -0.03601,2.63867c-0.21872,0.86238 -0.95355,1.38197 -0.96399,2.26132c-0.01068,0.89995 0.14981,1.81259 -0.00015,2.69984c-0.14401,0.85202 -0.84915,1.26814 -1.00433,2.20016c-0.13614,0.81778 -0.75873,1.42694 -0.93835,2.35266c-0.16479,0.8493 -0.05716,1.82651 -0.05716,2.74733c0,0.90001 0,1.8 0,2.70001c0,0.89999 -0.41769,1.45436 -0.87851,2.12149c-0.50406,0.72971 -0.12149,1.7785 -0.12149,2.57851c0,0.89999 0,1.8 0,2.7c0,0.89999 0.00009,1.8 0,2.7c-0.00009,0.89984 -0.5484,1.46933 -0.94284,2.15717c-0.46988,0.81941 -0.05716,1.84283 -0.05716,2.74284c0,0.89999 0.10043,1.71042 -0.03601,2.536c-0.14404,0.87169 -0.651,1.69907 -0.91132,2.61133c-0.25934,0.90886 -0.57086,1.54523 -0.88602,2.586c-0.22372,0.7388 -0.1644,1.66667 -0.16666,2.56667c-0.00226,0.89552 -0.6705,1.40686 -0.97916,2.12083c-0.34897,0.80722 -0.02075,1.77917 -0.02084,2.67917c-0.00009,0.89984 -0.5484,1.46933 -0.94284,2.15717c-0.46988,0.81941 -0.05716,1.84283 -0.05716,2.74284c0,0.89999 -0.28299,1.57118 -0.87866,2.12132c-0.63696,0.58826 -0.95087,1.2307 -1.13202,2.17867c-0.15866,0.83038 -0.87997,1.58916 -0.98483,2.3c-0.13791,0.93474 -1.27231,1.65862 -0.78299,2.1785c0.60785,0.64581 1.7785,0.12151 2.57849,0.12151c0.90002,0 1.80002,0 2.70001,0c0.89999,0 1.79999,0 2.70001,0c0.89999,0 1.79999,0 2.55716,0c0.89551,0 1.75882,0 2.72198,0c0.92084,0 1.82083,-0.00009 2.72086,0c0.89999,0.00009 1.76431,0.22853 2.43597,0.57466c0.81213,0.41853 1.71133,0.42308 2.72803,0.42534c0.836,0.00185 1.73599,0 2.63599,0c0.79999,0 1.70001,0 2.60001,0c0.89999,0 1.81067,0 2.72131,0c0.85333,0 1.79333,0 2.67868,0c0.79999,0 1.70001,0 2.60001,0c0.89999,0 1.84708,-0.09401 2.69998,0.35266c0.75223,0.39395 1.50613,0.57347 2.37201,0.68333c0.88342,0.11209 1.59299,0.41771 2.43701,0.61134c1.18216,0.27121 1.78113,0.31479 2.61899,0.342c1.12845,0.03665 1.96307,0.02144 2.87201,0.01067c0.87933,-0.01042 1.39465,-0.61063 1.39999,-1.5c0.0054,-0.89998 0,-1.8 0,-2.7c0,-0.90001 0,-1.8 0,-2.60001c0,-0.89999 0,-1.8 0,-2.7c0,-0.89999 0,-1.8 0,-2.7c0,-0.90001 0,-1.8 0,-2.60001c0,-0.89999 -0.16519,-1.8192 0.02084,-2.7c0.17899,-0.8474 0.91827,-1.59389 0.97916,-2.5c0.05362,-0.7982 0,-1.7 0,-2.60001c0,-0.89999 -0.13272,-1.8105 0.00449,-2.7c0.14368,-0.93138 0.84735,-1.46861 0.99103,-2.39999c0.13721,-0.8895 0.00223,-1.8 0.00449,-2.7c0.00226,-0.89552 0.6705,-1.40686 0.97916,-2.12083c0.34897,-0.80722 0.02084,-1.77917 0.02084,-2.67917c0,-0.90001 -0.02536,-1.8004 0,-2.60001c0.02859,-0.90135 0.64304,-1.63673 0.94733,-2.51799c0.2724,-0.78889 0.27203,-1.66771 0.40533,-2.39267c0.1452,-0.78973 0.30981,-1.57611 0.526,-2.90334c0.13049,-0.80124 0.51541,-1.52914 0.83734,-2.27133c0.39096,-0.90135 0.28333,-1.716 0.284,-2.71017c0.00052,-0.74733 -0.25275,-1.8047 0.00449,-2.7c0.22064,-0.76791 0.98489,-1.31517 0.99551,-2.2045c0.01074,-0.89999 0.44232,-1.6118 0.83334,-2.5c0.28952,-0.65764 0.16666,-1.60001 0.16666,-2.5c0,-0.89999 -0.13657,-1.85664 0.284,-2.7c0.32993,-0.66165 0.71375,-1.55716 0.716,-2.45267c0.00174,-0.69467 -0.0007,-1.71133 0,-2.64734c0.00067,-0.89867 0.61172,-1.43712 0.96399,-2.136c0.4342,-0.86142 -0.01834,-1.86572 0.03735,-2.76534c0.04257,-0.68781 0.47003,-1.60637 0.71466,-2.31467c0.32593,-0.94377 0.284,-1.89465 0.284,-2.80533c0,-0.85333 0,-1.79333 0,-2.67867c0,-0.8 -0.00073,-1.7 0,-2.636c0.00067,-0.84933 0.00201,-1.78191 0.22134,-2.56384c0.22354,-0.79689 0.71356,-1.77238 0.77417,-2.55283c0.0697,-0.8973 0.00449,-1.76333 0.00449,-2.74733c0,-0.82133 -0.07269,-1.67758 0.00134,-2.616c0.08368,-1.0603 0.47003,-1.69171 0.71466,-2.4c0.32593,-0.94377 0.284,-1.89467 0.284,-2.80534c0,-0.85333 -0.16531,-1.84145 0.16666,-2.67867c0.27853,-0.70242 0.78647,-1.48126 0.82886,-2.34734c0.04968,-1.01546 0.00449,-1.854 0.00449,-2.81933c0,-0.83334 -0.01425,-1.81198 0,-2.52884c0.01801,-0.90503 0.55923,-1.66002 0.87866,-2.62583c0.21649,-0.65456 0.39905,-1.62655 0.76868,-2.37417c0.39426,-0.79739 0.35266,-1.7885 0.35266,-2.47916c0,-1.07266 -0.00006,-1.992 0,-2.82533c0.00009,-0.9785 0.05716,-1.6955 0.5,-2.5c0.44284,-0.8045 0.5,-1.66666 0.5,-2.5c0,-0.9785 -0.39362,-1.9292 0.08533,-2.71467c0.49002,-0.80367 0.91467,-1.38533 0.91467,-2.28533c0,-0.8 0,-1.7 0,-2.6c0,-0.9 0,-1.8 0,-2.60133c0,-0.96533 0,-1.79867 0,-2.77717c0,-0.82017 0,-1.7215 0,-2.6215c0,-0.9 0,-1.8 0,-2.7c0,-0.9 0,-1.8 0,-2.7c0,-0.8 0,-1.636 0,-2.484c0,-0.86333 0,-1.88 0,-2.816c0,-0.9 0,-1.8 0,-2.7c0,-0.8 0,-1.7 0,-2.6c0,-0.81067 0,-1.72134 0,-2.57467c0,-0.94 0,-1.92533 0,-2.82533c0,-0.8 0,-1.7 0,-2.6c0,-0.9 0,-1.8 0,-2.7c0,-0.9 0,-1.8 0,-2.7c0,-0.8 0,-1.7 0,-2.6c0,-0.9 0,-1.8 0,-2.7c0,-0.9 0,-1.8 0,-2.7c0,-0.8 0,-1.7 0,-2.6c0,-0.9 0,-1.8 0,-2.7c0,-0.9 0,-1.8 0,-2.7c0,-0.8 0,-1.7 0,-2.6c0,-0.9 0.01068,-1.78933 0.5,-2.4c0.48932,-0.61067 0.5,-1.5 0.5,-2.4c0,-0.9 0,-1.8 0,-2.7c0,-0.9 -0.00186,-1.7 0,-2.536c0.00226,-1.01217 0.22516,-1.68382 0.716,-2.44667c0.41788,-0.64943 0.59259,-1.56083 1.784,-1.75067c0.48972,-0.07803 1.07031,-0.09561 2.44534,-0.12c0.78369,-0.0139 1.62274,-0.00445 2.50949,0.015c0.92795,0.02035 2.87866,0.10234 3.89551,0.15983c1.07913,0.06101 2.26187,0.13792 3.591,0.2145c1.51685,0.0874 3.26376,0.17967 5.28299,0.2685c2.33276,0.10262 8.10889,0.30035 11.6185,0.3955c3.88635,0.10537 8.08698,0.20203 12.53851,0.3c4.63943,0.10211 9.40399,0.19999 14.2305,0.3c4.8255,0.09999 14.22156,0.29675 18.67682,0.40033c4.2674,0.09922 8.34888,0.20173 12.246,0.321c3.71555,0.11372 7.25116,0.23937 10.608,0.393c3.18185,0.14562 9.02545,0.50112 11.69199,0.72933c2.51752,0.21546 4.90067,0.46804 7.164,0.771c2.17075,0.29057 4.25992,0.62996 6.28201,1.023c1.98605,0.38604 5.89029,1.31302 7.83847,1.84783c1.95197,0.53586 3.87909,1.11677 5.76752,1.7265c1.84662,0.59625 3.62427,1.2109 5.3175,1.8345c1.60663,0.5917 4.46826,1.7405 5.69403,2.28867c1.10577,0.4945 2.08551,0.97198 2.94446,1.4355c0.76758,0.41421 1.43506,0.81474 2.00854,1.2015c0.50989,0.34386 1.32196,0.98741 1.64099,1.28467c0.28442,0.26498 0.52155,0.51758 0.70648,0.7605c0.16327,0.21448 0.28674,0.42071 0.3645,0.6165c0.06934,0.17458 0.11462,0.50071 0.09332,0.64483c-0.02057,0.13932 -0.07593,0.2741 -0.16052,0.396c-0.09149,0.13181 -0.22125,0.25563 -0.37646,0.378c-0.17383,0.13703 -0.61835,0.41603 -0.88434,0.56917c-0.29254,0.16841 -0.6156,0.34444 -0.96448,0.5355c-0.37482,0.20528 -0.77557,0.42383 -1.19855,0.6615c-0.44775,0.25158 -1.40765,0.81091 -1.91345,1.12367c-0.51831,0.32051 -1.03271,0.65156 -1.52405,0.9975c-0.47253,0.33272 -0.90747,0.66051 -1.27197,0.9975c-0.32251,0.29817 -0.76251,0.85881 -0.74231,1.0965c0.01794,0.21119 0.28717,0.38894 0.68097,0.462c0.56653,0.10511 1.35913,0.06939 2.37299,-0.024c1.2724,-0.1172 4.66119,-0.66003 6.81653,-1.066c2.46509,-0.46432 5.21606,-1.02867 8.24249,-1.662c3.2887,-0.68821 6.82019,-1.44717 10.58252,-2.256c3.97766,-0.85512 12.51703,-2.68988 17.03979,-3.65067c4.61591,-0.98059 9.25092,-1.95816 13.82703,-2.928c4.44257,-0.94153 8.67578,-1.84016 12.62097,-2.694c3.58539,-0.77597 9.36823,-2.06099 11.42383,-2.5785c1.50983,-0.38011 2.62152,-0.51728 2.99249,-0.9195c0.10516,-0.11399 -0.31287,-0.2481 -1.0575,-0.2535c-1.08936,-0.00791 -4.1629,0.16244 -6.07764,0.28083c-2.12665,0.1315 -4.4361,0.29536 -6.89551,0.534c-2.58722,0.25104 -5.27045,0.56871 -8.01147,1.002c-2.78888,0.44085 -8.35779,1.63931 -11.06738,2.433c-2.67365,0.78316 -5.25513,1.69203 -7.73846,2.661c-2.4043,0.93813 -4.67816,1.92745 -6.8205,2.913c-2.01605,0.92748 -5.55426,2.67352 -7.06787,3.4425c-1.37689,0.69952 -2.64874,1.36349 -3.849,2.0205c-1.18042,0.64614 -2.36603,1.3263 -3.59698,2.0565c-1.32397,0.78538 -4.37207,2.65777 -6.16669,3.77167c-1.97083,1.22327 -4.08771,2.54565 -6.32697,3.9465c-2.33612,1.46146 -4.74127,2.96945 -7.19098,4.5045c-2.46765,1.54628 -7.35278,4.60389 -9.72101,6.0825c-2.29578,1.43338 -4.50885,2.81266 -6.62402,4.137c-2.00879,1.25772 -3.89825,2.44441 -5.65201,3.561c-1.61411,1.02769 -4.36105,2.81554 -5.46866,3.57433c-0.95309,0.65294 -1.75467,1.22758 -2.418,1.734c-0.55722,0.42543 -1.0098,0.7976 -1.37399,1.122c-0.30444,0.27116 -0.76227,0.72572 -0.95218,0.91633c-0.17142,0.17208 -0.32562,0.32742 -0.46048,0.471c-0.12137,0.12922 -0.22806,0.24853 -0.3165,0.363c-0.08069,0.10444 -0.20343,0.30733 -0.24469,0.409c-0.04001,0.09853 -0.06723,0.19943 -0.08548,0.3c-0.01807,0.09952 -0.02686,0.19991 -0.03152,0.3c-0.00467,0.09994 -0.00354,0.30001 -0.00482,0.4005c-0.00134,0.10352 -0.00565,0.21335 -0.021,0.3315c-0.017,0.13097 -0.04715,0.27695 -0.09299,0.4395c-0.05237,0.18567 -0.21631,0.62965 -0.32852,0.8925c-0.1235,0.28929 -0.26495,0.59499 -0.41849,0.912c-0.15741,0.32502 -0.32187,0.64912 -0.49051,0.966c-0.16345,0.30711 -0.47882,0.85966 -0.6265,1.0935c-0.13263,0.21003 -0.259,0.39371 -0.375,0.5565c-0.10413,0.14614 -0.20129,0.27509 -0.285,0.3945c-0.0762,0.10868 -0.19891,0.31183 -0.24017,0.4135c-0.04001,0.09853 -0.06723,0.19943 -0.08548,0.3c-0.01807,0.09952 -0.02686,0.19991 -0.03152,0.3c-0.00467,0.09995 -0.00449,0.3 -0.00449,0.39951c0,0.0965 0,0.187 0,0.26849c0,0.0695 0,0.124 0,0.16051c0,0.0155 0,-0.0285 0,-0.09283c0,-0.09033 0,-0.20267 0,-0.333c0,-0.14433 0,-0.29867 0,-0.459c0,-0.16234 -0.00055,-0.47701 0.00015,-0.622c0.00067,-0.135 0.00189,-0.26016 0.01053,-0.375c0.00793,-0.10519 0.02048,-0.20136 0.04648,-0.285c0.0238,-0.0765 0.10617,-0.19936 0.16418,-0.24033c0.05957,-0.04206 0.13089,-0.06986 0.20398,-0.096c0.07425,-0.02655 0.14935,-0.05066 0.22202,-0.078l0.06866,-0.03133" id="svg_4" stroke-width="2" stroke="#000" fill="none"/>
  <path t="48183,48278,48304,48379,48379,48384,48385,48385,48385,48385,48385,48385,48385,48385,48400,48400,48400,48416,48424,48424,48440,48448,48464,48472,48473,48480,48490,48490,48496,48496,48507,48512,48512,48525,48525,48528,48528,48540,48540,48552,48568,48584,48608,48616,48626,48632,48632,48648,48656,48656,48664,48673,48680,48680,48690,48690,48690,48696,48707,48707,48707,48712,48712,48712,48712,48724,48724,48728,48728,48740,48740,48740,48744,48744,48757,48760,48773,48773,48776,48776,48790,48793,48807,48807,48809,48825,48825,48828,48828,48828,48840,48840,48848,48848,48848,48857,48857,48864,48864,48873,48880,48880,48896,48906,48912,48923,48928,48928,48940,48940,48944,48952,48952,48960,48968,48975,48976,48976,48984,48984,48992,49000,49000,49008,49008,49024,49024,49040,49040,49056,49064,49072,49073,49073,49080,49080,49090,49096,49096,49107,49107,49107,49112,49112,49123,49128,49143,49152,49159,49168,49177,49184,49184,49192,49201,49208,49217,49217,49225,49225,49232,49241,49249,49260,49264,49265,49274,49281,49281,49291,49291,49297,49309,49309,49313,49352,49370,49385,49392,49401,49401,49409,49417,49417,49424,49433,49433,49440,49441,49449,49449,49457,49457,49465,49473,49490,49490,49497,49508,49508,49513,49524,49524,49528,49529,49529,49540,49540,49540,49544,49545,49545,49556,49556,49556,49560,49561,49561,49573,49573,49573,49576,49576,49589,49590,49601,49624,49649,49656,49657,49665,49665,49674,49681,49696,49723,49728,49752,49801,49801,49827,49861,49867,49867,49868,49868,49884,49890,49890,49912,49952,49978,50207,50232,50275,50275,50275,50276,50276,50276,50276,50281,50281,50281,50282,50282,50282,50282,50282,50283,50293,50293,50293,50293,50294,50294,50294,50295,50295,50321,50321,50321,50321,50322,50322,50322,50322,50322,50330,50331,50331,50331,50331,50331,50331,50332,50332,50337,50338,50338,50338,50338,50338,50338,50339,50339,50346,50346,50346,50346,50346,50347,50347,50347,50347,50353,50353,50353,50354,50354,50354,50354,50354,50355,50361,50361,50361,50362,50362,50362,50362,50383,50384,50441,50457,50465,50473,50480,50481,50490,50497,50497,50507,50507,50508,50512,50512,50512,50512,50523,50523,50523,50524,50528,50528,50528,50529,50538,50539,50539,50539,50539,50540,50544,50544,50544,50544,50555,50555,50555,50556,50556,50566,50567,50567,50567,50581,50582,50582,50588,50589,50589,50589,50597,50597,50597,50600,50600,50613,50613,50616,50616,50617,50628,50632,50633,50648,50658,50659,50680,50696,50708,50725,50776,50801,50801,50816,50817,50826,50848" d="m387,5c1.70001,0 2.70001,0 3.50665,0c0.76501,0 2.16,0 2.80667,0c0.72668,0 1.51334,0 2.34,0c0.84668,0 1.69336,0 2.52002,0c0.78665,0 2.16,0 3.17334,0c0.69333,0 1.75333,0 2.65332,0c0.79999,0 1.70001,0 2.60001,0c0.81067,0 1.72131,0 2.57465,0c0.94,0 1.82535,0 2.71069,0c0.94,0 1.63065,0 2.61465,0c0.98532,0 1.71066,0 2.69983,0c0.77933,0 1.77884,0 2.68417,0c0.94135,0 1.63199,0 2.70532,0c0.91068,0 1.81067,0 2.71066,0c0.90002,0 1.80002,0 2.70001,0c0.79999,0 1.63599,0 2.48401,0c0.86331,0 1.88,0 2.71732,0c0.96533,0 1.8353,-0.0612 2.79868,0.16667c0.80835,0.1912 1.49127,0.65514 2.38535,0.79733c0.93692,0.14901 1.629,0.036 2.43597,0.036c1.17868,0 2.07419,0 2.65784,0c0.83551,0 2.06943,-0.05484 2.91635,0.05717c0.814,0.10766 1.58109,0.52373 2.60449,0.77617c0.78699,0.19412 1.60001,0.166 2.59549,0.16667c0.74734,0.0005 1.76852,0 2.70901,0c0.86215,0 1.6955,0 2.67398,0c0.82019,0 1.72153,-0.00074 2.6575,0c0.84802,0.00067 1.75455,-0.05085 2.60684,0.35267c0.81061,0.38377 1.5715,0.64508 2.52652,0.64733c0.7515,0.00177 1.54816,-0.01836 2.54666,0.00133c0.90982,0.01794 1.85452,0.14969 2.63217,0.35133c0.7948,0.20609 1.728,0.43851 2.66647,0.67267c0.88004,0.21957 1.52484,0.66966 2.5,0.88933c0.86771,0.19547 1.68533,0.08533 2.58536,0.08533c0.89999,0 1.79999,-0.00008 2.71066,0c0.91064,0.00008 1.81262,-0.10407 2.70398,0.284c0.74176,0.32295 1.52127,0.71067 2.36935,0.716c0.86328,0.00543 1.88306,-0.07026 2.71732,0.00133c0.9758,0.08374 1.61636,0.47771 2.39999,0.71467c0.97607,0.29515 1.74152,0.28175 2.77335,0.284c0.94666,0.00206 1.79999,0 2.74133,0c0.76801,0 1.72,0 2.48532,0c0.99417,0 1.74152,-0.00244 2.7627,0c0.94049,0.00225 1.80002,0.17344 2.65683,0.5c0.57874,0.22059 1.59644,0.34266 2.49384,0.584c0.89349,0.24029 1.64355,0.81281 2.50616,0.89517c0.97495,0.09308 1.77914,0.02083 2.57916,0.02083c0.99551,0 1.79703,-0.316 2.75333,0.01067c0.7674,0.26214 1.25726,0.984 2.14667,0.98933c0.90002,0.0054 1.80652,-0.10696 2.70001,0.00133c0.91974,0.11148 1.56854,0.83489 2.39996,0.988c0.88568,0.1631 1.63641,0.51396 2.56671,0.844c0.7973,0.28285 1.66663,0.16667 2.52881,0.16667c0.90448,0 1.83923,-0.0529 2.60449,0.35267c0.84589,0.4483 1.7002,0.63012 2.5,0.64733c0.83661,0.018 1.67389,0.31439 2.41071,0.57467c0.97565,0.34466 1.76831,0.41492 2.76782,0.42533c1.02142,0.01065 1.82147,0 2.7215,0c0.89996,0 1.79999,-0.00225 2.70001,0c0.89996,0.00225 1.63403,0.33118 2.39996,0.716c0.78595,0.39487 1.68402,0.284 2.54736,0.284c0.89996,0 1.81934,0 2.65265,0c0.97864,0 1.75269,0 2.65717,0c0.94415,0 1.93835,0 2.68567,0c1.02118,0 1.85718,0 2.75732,0c0.78516,0 1.72516,0 2.73315,0c0.75604,0 1.6875,0 2.65338,0c0.75995,0 1.67999,0 2.46594,0c0.82202,0 1.88135,0.02689 2.82202,-0.01067c0.67902,-0.02711 1.64734,-0.20869 2.46136,-0.41467c0.86902,-0.21989 1.76202,-0.42461 2.65948,-0.522c0.86688,-0.09407 1.94385,-0.19743 2.65186,-0.40533c0.68451,-0.20101 1.8714,-0.55235 2.6673,-0.61133c0.77405,-0.05736 1.8277,0.0475 2.53351,-0.09317c0.93317,-0.18598 1.56641,-0.72647 2.61584,-0.90683c0.92316,-0.15865 1.836,-0.036 2.73615,-0.036c0.78516,0 1.72516,0 2.41583,0c1.07336,0 1.98401,0 2.88403,0c0.89996,0 1.79999,0 2.69995,0c0.90002,0 1.70001,0 2.60004,0c0.86249,0 1.79999,0 2.65796,0c0.64203,0 1.59521,0.10617 2.77051,-0.0045c0.88257,-0.08311 1.40918,-0.75667 2.37152,-0.97467c0.87799,-0.19889 1.79999,-0.02083 2.69733,-0.02083c0.17767,0 -0.8642,-0.01048 -1.57068,0.008c-0.46356,0.01213 -1.71082,0.10944 -2.53333,0.208c-0.98444,0.11797 -2.15045,0.27382 -5.09332,0.784c-1.81427,0.31451 -3.81543,0.70118 -5.95947,1.1205c-2.23871,0.43783 -4.5202,0.89789 -6.79651,1.3635c-2.22333,0.45478 -4.34375,0.89254 -8.07733,1.68267c-1.5296,0.3237 -2.83331,0.60553 -3.9375,0.843c-0.92914,0.19983 -1.70776,0.36831 -2.36255,0.501c-0.55365,0.11219 -1.03119,0.21254 -1.86664,0.32267c-0.40057,0.05281 -0.81189,0.08549 -1.24048,0.1185c-0.45538,0.03508 -0.94714,0.06723 -1.48352,0.1095c-0.5907,0.04655 -1.2453,0.09619 -2.776,0.272c-0.89331,0.10261 -1.86029,0.23372 -2.88751,0.3765c-1.07281,0.14912 -2.17511,0.31002 -3.29248,0.4755c-1.11761,0.16552 -2.21985,0.33308 -4.32001,0.648c-0.97028,0.14549 -1.88251,0.28111 -2.73901,0.405c-0.80219,0.11604 -1.55243,0.22184 -2.25299,0.315c-0.6521,0.08671 -1.25775,0.16884 -2.34131,0.28c-0.48016,0.04925 -0.92395,0.08355 -1.3335,0.114c-0.37848,0.02814 -0.72919,0.05069 -1.0545,0.078c-0.30371,0.02549 -0.59088,0.04219 -1.112,0.14133c-0.24658,0.04692 -0.48108,0.11401 -0.70502,0.186c-0.21606,0.06947 -0.42029,0.14649 -0.61499,0.222c-0.1853,0.07187 -0.35724,0.14918 -0.67999,0.25867c-0.14404,0.04886 -0.28107,0.08381 -0.40955,0.114c-0.12091,0.02841 -0.23779,0.04689 -0.3465,0.078c-0.41754,0.1195 -1.20032,0.46867 -1.88983,0.97467c-0.66052,0.48469 -1.04822,1.34575 -1.43683,2.2c-0.34711,0.76311 -0.83533,1.35696 -1.58398,1.82083c-0.75665,0.46883 -1.09088,1.2052 -1.60034,2.17917c-0.31537,0.60296 -0.83527,1.43548 -1.44269,2c-0.69159,0.64272 -1.27576,1.00376 -1.85962,1.4c-1.19214,0.80904 -1.80298,1.20288 -2.39734,1.636c-0.60583,0.44147 -1.5097,1.17505 -2.10004,1.72567c-0.61023,0.56921 -1.21411,1.18748 -2.09998,2.205c-0.30493,0.35026 -0.89703,1.08394 -1.5,1.8125c-0.29852,0.36071 -0.86829,1.08342 -1.79999,1.97816c-0.58093,0.55791 -1.21118,1.02966 -1.79999,1.548c-0.91791,0.80811 -1.50726,1.45535 -2.08936,2.14533c-0.58331,0.69145 -0.83997,1.05516 -1.64398,2.016c-0.69348,0.82878 -1.14825,1.27219 -1.67999,1.93066c-0.63245,0.78318 -0.99658,1.45117 -1.45605,2.17334c-0.56012,0.88036 -1.03113,1.53372 -1.53064,2.2085c-0.48993,0.66185 -1.14386,1.54049 -1.83865,2.3235c-0.52713,0.59407 -1.14536,1.18135 -1.836,1.872c-0.65869,0.65868 -1.24249,1.16012 -1.82535,1.992c-0.4422,0.63111 -0.74033,1.39488 -1.39999,2.19733c-0.64502,0.78463 -1.20001,1.23601 -1.89999,1.936c-0.70001,0.7 -1.37387,1.11532 -1.64285,2c-0.26196,0.86163 -0.68463,1.44771 -1.03632,2.22083c-0.35532,0.78107 -0.02084,0.47916 -0.02084,-0.278c0,-0.8955 0,-1.75883 0,-2.722l0,-0.92084" id="svg_5" stroke-width="20" stroke="#fff" fill="none"/>
  <path t="51736,51800,51822,51845,51845,51850,51850,51850,51863,51863,51867,51880,51882,51890,51895,51906,51922,51923,51927,51939,51956,51959,51975,51984,51992,52008,52008,52016,52069" d="m499,82c0,-1.7 0.01871,-2.63624 -0.00134,-3.48666c-0.01794,-0.76058 -0.20923,-1.93735 -0.42398,-2.728c-0.21146,-0.77845 -0.51236,-1.63665 -0.57333,-2.58266c-0.05164,-0.801 -0.00134,-1.70267 -0.00134,-2.60267c0,-0.9 0,-1.8 0,-2.7c0,-0.9 0,-1.7 0,-2.6c0,-0.9 0,-1.8 0,-2.7c0,-0.9 0,-1.8 0,-2.7c0,-0.9 0,-1.7 0,-2.6l0,-0.9" id="svg_6" stroke-width="20" stroke="#fff" fill="none"/>
  <path t="57567,57726,57891,57927,57948,57962,58064,58286,58306,58344,58344,58370,58370,58370,58370,58374,58374,58392,58393,58408,58464,58716,58744,58775,58775,58775,58779,58779,58779,58779,58779,58779,58779,58779,58793,58794,58794,58794,58794,58802,58802,58802,58802,58810,58817,58817,58868,58898,58935,58958,58958,58958,58958,58969,58969,58969,58986,58993,59007,59010,59024,59026,59040,59043,59043,59056,59058,59058,59065,59065,59072,59081,59096,59106,59112,59122,59122,59128,59139,59144,59160,59160,59169,59176,59185,59186,59192,59202,59224,59241,59248,59256,59265,59281,59281,59297,59555,59578,59593,59602,59618,59636,59648,59648,59673,59853,59900,59912,59930,59936,59946,59953,59969,59992,60018,60018,60032,60335" d="m314,202c-1.70001,0 -2.60001,0 -3.5,0c-0.89999,0 -1.79999,-0.0006 -2.70001,0c-0.99866,0.00067 -1.68243,0.289 -1.80264,1.20399c-0.08813,0.67102 -0.43951,1.56038 -0.84802,2.48267c-0.29831,0.67349 -0.66663,1.32162 -0.97867,2.54134c-0.17874,0.69864 0.00241,1.78763 -0.25598,2.57066c-0.25531,0.77373 -1.08731,1.51659 -0.91333,2.40001c0.15976,0.81123 1.32132,0.80133 1.90933,0.80133c0.89398,0 2.25598,0 2.83884,0c0.63983,0 1.32367,0 2.03848,0c1.47067,0 2.2005,0 2.90933,0c1.30267,0 2.392,0 2.86417,0c0.83435,0 1.91583,0 2.9595,0c0.72266,0 1.43735,0 2.42435,0c0.99866,0 2.05466,0 2.85464,0c0.90002,0 1.80002,0 2.63202,0c1.06799,0 1.62134,0 2.58884,0c0.67831,0 1.936,0 2.6965,0c0.79465,0 1.94476,-0.33223 2.76181,0.02083c0.71402,0.30855 1.22534,0.97691 2.12085,0.97917c0.89999,0.00226 1.81067,0 2.72131,0c0.85333,0 1.79333,0 2.67868,0c0.75717,0 1.65268,0 2.51599,0c0.96317,0 1.884,0 2.784,0c0.90002,0 1.80002,0 2.70001,0c0.79999,0 1.70001,0 2.60001,0c0.92084,0 1.884,0 2.57465,0c1.06818,0 1.92535,0 2.82535,0c0.79999,0 1.70001,0 2.60001,0c0.89999,0 1.79999,0 2.69998,0c0.90002,0 1.80002,0 2.70001,0c0.79999,0 1.85938,0.47043 2.64282,-0.05716c0.6842,-0.46075 0.35913,-1.56245 -0.06815,-2.34283c-0.45038,-0.82257 -0.57468,-1.70001 -0.57468,-2.60001c0,-0.8 0.47046,-1.85936 -0.05716,-2.64284c-0.46075,-0.68419 -1.64285,-0.35716 -2.54285,-0.35716c-0.89999,0 -1.79999,0 -2.69998,0c-0.90002,0 -1.80002,0 -2.70001,0l-0.79999,0l-0.90002,0l-0.89999,0" id="svg_7" stroke-width="2" stroke="#000" fill="none"/>
  <path t="62929,63046,63067,63098,63106,63106,63106,63121,63121,63124,63124,63136,63138,63147,63147,63152,63152,63160,63169,63176,63201,63238,63498,63529,63573,63573,63595,63595,63595,63595,63595,63595,63603,63603,63603,63603,63610,63611,63617,63624,63625,63635,63635,63642,63642,63648,63648,63656,63664,63664,63680,63680,63696,63706,63712,63729,63729,63744,63755,63755,63759,63760,63771,63775,63784,63784,63801,63801,63816,63816,63832,63840,63848,63856,63856,63865,63872,63872,63880,63888,63888,63896,63912,63912,63944,64000,64023,64047,64047,64311,64311,64333,64335,64373,64373,64395,64395,64395,64396,64411,64412,64426,64426,64440,64440,64456,64464,64480,64520,64584,64584,64605,64635,64894,64916,64952,64953,64980,64980,64980,64980,64981,64981,64982,64994,64994,64994,64994,64994,64994,64994,64994,65002,65002,65002,65002,65009,65017,65017,65024,65024,65033,65040,65040,65048,65056,65056,65072,65072,65080,65088,65105,65112,65128,65144,65144,65160,65160,65176,65184,65200,65235,65250,65259,65272,65273,65289,65304,65305,65322,65338,65355,65392,65433,65433,65583,65716,65734" d="m299,256c0,1.79999 0.00006,2.70001 0,3.54166c-0.00009,1.00101 0.04611,1.71475 -0.05716,2.453c-0.14691,1.05032 -0.70581,1.7236 -0.88568,2.65802c-0.16351,0.84952 -0.02655,1.84906 -0.40982,2.65182c-0.42529,0.89078 -0.47028,1.56201 -0.814,2.52884c-0.28775,0.80945 -0.81534,1.5661 -0.83334,2.46664c-0.01801,0.89984 -0.00009,1.80002 0,2.70001c0.00009,0.87851 0.70581,0.96738 1.625,1.02084c0.68887,0.04007 1.80341,0.20013 2.28168,0.26315c1.06674,0.14053 1.63452,0.21976 2.79166,0.36334c0.56812,0.0705 2.11475,0.24207 2.96851,0.2955c0.72849,0.04559 1.64249,0.05649 2.64648,0.05716c0.84,0.00055 1.80133,0 2.68668,0c0.75717,0 1.65717,0 2.40451,0c0.99548,0 1.7955,0 2.79532,0c0.96417,0 1.91483,0 2.80017,0c0.75717,0 1.65268,0 2.51599,0c0.96317,0 1.884,0 2.784,0c0.90134,0 1.58536,0 2.52536,0c1.008,0 1.79999,0 2.82733,0c0.69464,0 1.71133,0 2.64731,0c0.90134,0 1.58536,0 2.53601,0c0.76532,0 1.75949,0 2.67868,0c0.96448,0 1.88531,0 2.78531,0c0.90134,0 1.58536,0 2.52536,0c1.008,0 1.87015,0 2.6955,0c0.96317,0 1.82648,0 2.7265,0c0.91931,0 1.75717,-0.09387 2.73099,0.00015c0.86703,0.08371 1.23752,0.93896 2.18832,0.99985c0.66797,0.04276 1.8367,0.06226 2.612,-0.01068c0.89764,-0.08444 1.22,-0.87598 1.22134,-1.65549c0.00146,-0.85266 0,-1.9765 0,-2.63916c0,-0.69467 0,-1.72668 0,-2.92267c0,-0.7095 0,-1.75067 0,-2.52466c0,-0.90002 0,-1.76334 0,-2.7265c0,-0.82083 0,-1.72086 0,-2.62085c0,-0.89999 0,-1.69998 0,-2.60001c0,-0.89999 0.05817,-2.0687 -0.7045,-2.2955c-0.88232,-0.26239 -1.60751,-0.00449 -2.72467,-0.00449c-0.48416,0 -1.5975,0 -2.21667,0c-0.65414,0 -1.33832,0 -2.04749,0c-2.22733,0 -2.98535,0 -3.74133,0c-0.74802,0 -1.48199,0 -2.19601,0c-0.68799,0 -1.34399,0 -3.06149,0c-0.91299,0 -1.66199,0 -2.53049,0c-0.9675,0 -1.944,0 -2.77734,0c-0.97849,0 -1.79868,0 -2.63599,0c-1.01669,0 -1.72476,-0.15433 -2.72803,0.01068c-0.86911,0.14294 -1.50067,0.80414 -2.46133,0.95331c-0.68332,0.10611 -1.76398,0.03601 -2.67465,0.03601c-0.89999,0 -1.79999,0 -2.70132,0c-0.96533,0 -1.62402,0 -2.63202,0c-0.86215,0 -1.76666,0 -2.66666,0c-0.89999,0 -1.79999,0 -2.70001,0c-0.89999,0 -1.79999,0 -2.59998,0c-0.836,0 -1.85269,0 -2.54733,0c-1.01669,0 -1.95267,0 -2.85269,0c-0.89999,0 -1.79999,0 -2.59998,0l-0.90002,0l-0.89999,0l-0.89999,0" id="svg_8" stroke-width="2" stroke="#000" fill="none"/>
  <path t="68230,68267,68311,68323,68324,68354,68357,68392,68400,68410,68424,68488,68505,68533,68548,68649,68671,68697,68744,68752,68761,68768,68776,68784,68792,68800" d="m385,310c-1.70001,0.05716 -2.53101,0.49036 -3.19867,1.20001c-0.54224,0.57635 -0.80975,1.50003 -0.80133,2.39999c0.00824,0.87936 0.40363,1.59299 1.08401,2.116c0.61127,0.46988 1.616,0.284 2.51599,0.284c0.89999,0 1.83716,0.25082 2.6955,-0.00449c0.76263,-0.22684 0.94739,-1.43033 0.70001,-2.29102c-0.2207,-0.76788 -0.86945,-1.43008 -1.60617,-1.69382c-0.83737,-0.29977 -1.78934,-0.01068 -2.68933,-0.01068l-0.90002,0" id="svg_9" stroke-width="2" stroke="#000" fill="none"/>
  <path t="69481,69557,69579,69609,69626,69641,69656,69688,69720,69737,69737,69744,69754,69800,69833,69851,69874,69914,69929,69939,69955,69976,70000,70067,70099,70120,70147,70152,70168,70192,70233,70282,70283" d="m394,339c-1.70001,0 -2.72562,-0.44119 -3.564,0.03601c-0.6915,0.39359 -0.436,1.564 -0.436,2.46399c0,0.89999 -0.13168,1.85004 0.22134,2.60001c0.36505,0.77551 0.77151,1.71567 1.57999,1.89865c0.87653,0.19839 1.62573,-0.16583 2.28268,-0.71466c0.61871,-0.51688 1.39511,-0.94571 1.89066,-1.67334c0.45343,-0.6658 1.01868,-1.23834 1.45065,-2.01065c0.45758,-0.81808 1.19016,-1.33524 1.53867,-2.03601c0.42465,-0.85391 -0.48465,-1.55356 -1.36398,-1.564c-0.89993,-0.01068 -1.80002,0 -2.70001,0l-0.89999,0l-0.79999,0" id="svg_10" stroke-width="2" stroke="#000" fill="none"/>
  <path t="71058,71194,71221,71256,71256,71281,71301,71302,71316,71316,71336,71368,71384,71416,71440,71441,71472,71517,71536,71552,71552,71568,71608,71608,71616,71648,71656,71682,71704,71713,71744,71760,71784,71800,71824,71850,71850,71888,71914,71925,71931,71949,71968,71968,71985,72000,72040" d="m403,361c-1,-1 -1.72946,-0.78384 -2.16666,0c-0.36359,0.65189 -1.29623,1.19873 -1.66669,2c-0.32495,0.70285 -0.16666,1.65268 -0.16666,2.51599c0,0.96317 -0.00067,1.884 0,2.784c0.00067,0.90002 0.11462,1.91837 0.7045,2.34283c0.79041,0.56876 1.60757,0.97009 2.49551,1.27185c0.76175,0.25888 1.59998,0.08533 2.55716,0.08533c0.89551,0 1.84439,0.37207 2.70117,-0.02084c0.72137,-0.33081 0.5394,-1.47916 0.54166,-2.37915c0.00226,-0.89551 0.6705,-1.40686 0.97916,-2.12085c0.34894,-0.80719 0.02084,-1.77914 0.02084,-2.67917c0,-0.89999 0.0372,-1.80084 0,-2.59998c-0.04272,-0.91766 -0.60864,-1.70786 -1.35718,-2.14285c-0.73038,-0.42447 -1.74283,-0.05716 -2.64282,-0.05716c-0.79999,0 -1.70001,0 -2.64282,-0.05716l-0.44119,-0.65884" id="svg_11" stroke-width="2" stroke="#000" fill="none"/>
  <path t="75351,75407,75427,75456,75457,75481,75482,75482,75482,75502,75502,75502,75502,75505,75505,75505,75516,75516,75521,75531,75536,75544,75544,75554,75560,75560,75571,75571,75576,75584,75592,75592,75616,75648,75648,75656,75672,75680,75697,75706,75722,75722,75738,75760,75771,75784,75792,75800,75808,75816,75816,75832,75848,75856,75872,75880,75881,75888,75897,75897,75904,75913,75984,76021,76053,76118,76325,76349,76389,76390,76420,76421,76421,76439,76439,76465,76564,76697,76728,76777,76777,76804,76804,76804,76804,76805,76805,76805,76805,76805,76822,76823,76823,76823,76823,76823,76823,76826,76826,76826,76838,76839,76839,76842,76853,76856,76856,76865,76872,76880,76880,76890,76906,76913,76929,76938,76945,76955,76960,76960,76971,76976,76988,77006,77009,77023,77032,77048,77048,77056,77064,77080,77088,77128,77160,77170,77192,77249,77264,77273,77280,77289,77305,77313,77414,77543,77568,77607,77608,77634,77635,77635,77635,77640,77641" d="m297,291c1.60001,0.57468 2.41016,0.98199 3.32166,1c0.71985,0.01422 1.845,0 2.64001,0c0.88501,0 1.52499,0 2.55966,0c0.73132,0 1.85333,0 2.59467,0c1.06216,0 2.02667,0 2.60135,0c1.13965,0 1.97372,-0.01053 2.88266,0c0.90018,0.01044 1.60629,0.53528 2.50015,0.87851c0.74155,0.28473 1.72519,0.12149 2.73318,0.12149c0.79199,0 1.65067,0 2.51398,0c0.89551,0 1.85269,0 2.75284,0c0.78519,0 1.72519,0 2.73318,0c0.75598,0 1.66666,0 2.56665,0c0.89999,0 1.80002,0 2.70001,0c0.89999,0 1.69998,0 2.60001,0c0.89999,0 1.79999,0 2.69998,0c0.89999,0 1.80002,0 2.70001,0c0.89999,0 1.69998,0 2.60001,0c0.89999,0 1.79999,0 2.71066,0c0.91064,0 1.76398,0 2.70398,0c0.88535,0 1.68533,0 2.58536,0c0.89999,0 1.79999,0 2.69998,0c0.89999,0 1.81277,-0.15091 2.69983,0.00015c0.84982,0.14471 0.68414,1.10443 0.25351,1.67184c-0.66583,0.87732 -1.18491,1.56808 -1.492,2.07733c-0.65512,1.0863 -0.84512,1.82925 -0.86133,2.75067c-0.01563,0.88928 -0.52069,1.48746 -1.39999,1.5c-0.93591,0.01334 -1.48874,0.02798 -2.93335,0.16666c-0.53864,0.0517 -1.14661,0.11786 -1.815,0.186c-0.71826,0.07321 -1.47647,0.14923 -2.26498,0.22202c-0.80817,0.07462 -1.62585,0.15341 -3.25333,0.25867c-0.78915,0.05103 -2.29645,0.11212 -3.008,0.13065c-0.67944,0.01767 -1.32397,0.02921 -2.496,0.03467c-0.996,0.00464 -1.80267,0.00134 -2.72519,0.00134c-1.10416,0 -1.89349,0 -2.61884,0c-1.07465,0 -2.00616,0 -2.80664,0c-0.85333,0 -1.79333,0 -2.77869,0c-0.89999,0 -1.69998,0 -2.60001,0c-0.89999,0 -1.79999,0 -2.69998,0c-0.89999,0 -1.80002,0 -2.70001,0c-0.89999,0 -1.69998,0 -2.60001,0c-0.89999,0 -1.79999,0 -2.69998,0c-0.89999,0 -1.80002,0 -2.70001,0c-0.89999,0 -1.69998,0 -2.60001,0c-0.89999,0 -1.71735,-0.08948 -2.32532,-0.57468c-0.62451,-0.49838 -1.57468,-0.42532 -2.47467,-0.42532c-0.89999,0 -1.82169,0.19489 -2.69867,-0.00134c-0.80704,-0.18057 -1.32199,-0.98822 -2.20132,-0.99866c-0.89993,-0.01068 -1.80002,0 -2.70001,0c-0.89999,0 -1.90433,-0.15018 -1.89999,-1c0.00424,-0.83218 0.65076,-1.55466 1.28665,-2.25067c0.46375,-0.5076 0.94669,-0.98132 1.8945,-1.935l0.53085,-0.61166" id="svg_12" stroke-width="2" stroke="#000" fill="none"/>
  <path t="79553,79582,79583,79595,79595,79626,79626,79627,79627,79627,79632,79633,79633,79633,79633,79633,79633,79633,79633,79651,79651,79651,79651,79656,79656,79656,79656,79656,79668,79668,79669,79672,79672,79672,79682,79682,79683,79683,79688,79688,79689,79696,79697,79697,79697,79704,79704,79704,79713,79713,79713,79713,79713,79723,79723,79723,79723,79729,79729,79729,79729,79738,79738,79738,79738,79738,79745,79745,79745,79745,79754,79755,79755,79755,79761,79761,79762,79762,79762,79772,79772,79772,79772,79772,79776,79776,79776,79776,79787,79787,79787,79787,79791,79792,79792,79792,79799,79800,79800,79800,79808,79808,79809,79809,79816,79816,79816,79816,79824,79824,79824,79832,79832,79832,79832,79832,79840,79840,79840,79848,79848,79848,79848,79848,79857,79857,79857,79864,79864,79864,79864,79872,79872,79872,79880,79880,79888,79888,79888,79896,79896,79904,79904,79912,79912,79921,79921,79929,79938,79938,79945,79945,79954,79955,79961,79971,79971,79976,79977,79987,79988,79992,79992,80007,80007,80008,80012,80012,80027,80028,80032,80032,80032,80032,80046,80047,80049,80049,80065,80065,80072,80072,80072,80084,80088,80088,80104,80104,80104,80112,80113,80113,80123,80124,80124,80124,80129,80129,80145,80145,80145,80148,80148,80164,80164,80165,80168,80169,80184,80187,80187,80187,80202,80208,80208,80221,80225,80241,80241,80248,80261,80264,80280,80280,80283,80298,80313,80313,80329,80329,80338,80345,80345,80358,80362,80379,80384,80384,80398,80398,80402,80417,80418,80424,80424,80424,80436,80436,80437,80440,80440,80458,80459,80464,80464,80464,80475,80475,80477,80496,80496,80496,80504,80504,80504,80504,80505,80515,80515,80516,80520,80520,80520,80535,80535,80536,80539,80539,80554,80554,80561,80561,80561,80562,80575,80575,80575,80579,80595,80595,80596,80601,80601,80601,80601,80615,80615,80615,80620,80620,80634,80634,80634,80640,80640,80640,80640,80655,80655,80658,80658,80675,80680,80680,80680,80696,80699,80699,80715,80715,80720,80720,80736,80736,80745,80761,80761,81002,81027,81078,81079,81079,81198,81198,81201,81202" d="m297,295c0.42532,-1.836 0.74582,-2.59479 0.95184,-3.60449c0.12814,-0.62799 0.48685,-1.82037 0.767,-2.38419c0.33826,-0.68069 0.75552,-1.51239 0.96915,-2.00998c0.49796,-1.15991 0.73816,-1.84869 0.99335,-2.58801c0.26773,-0.77563 0.52655,-1.5788 0.77701,-2.39249c0.24817,-0.8063 0.48077,-1.59329 0.68698,-2.3475c0.36554,-1.33707 0.61969,-2.39117 0.75735,-3.21735c0.16461,-0.98785 0.25485,-1.95749 0.38266,-2.70801c0.14063,-0.82574 0.30862,-1.67603 0.51599,-2.49597c0.27655,-1.09351 0.59741,-1.9552 0.89868,-2.69568c0.39813,-0.97852 0.63074,-1.5032 0.86398,-2.367c0.3179,-1.17728 0.37314,-1.78799 0.41516,-2.68933c0.04193,-0.89923 0.02084,-1.79999 0.02084,-2.70001c0,-0.89999 -0.01352,-1.80017 0.00449,-2.69998c0.01801,-0.90036 0.04248,-1.50699 0.27951,-2.70134c0.12177,-0.61354 0.39761,-1.55011 0.54935,-2.56534c0.10693,-0.71545 0.13794,-1.46956 0.19199,-2.24399c0.05521,-0.79092 0.18149,-1.99181 0.33185,-2.78484c0.14914,-0.78658 0.43607,-1.92148 0.74283,-2.98334c0.19485,-0.6745 0.40744,-1.33987 0.60001,-2.03101c0.3121,-1.12018 0.50168,-1.95778 0.69998,-2.84082c0.20172,-0.8983 0.39084,-1.7836 0.60001,-2.61601c0.28311,-1.12668 0.49762,-1.80826 0.64282,-2.48149c0.21848,-1.01288 0.30518,-2.10896 0.35718,-2.87267c0.05338,-0.78363 0.15186,-1.98151 0.28534,-2.7805c0.13565,-0.812 0.32474,-1.6348 0.41916,-2.05583c0.29373,-1.30991 0.49551,-2.22551 0.59549,-2.69101c0.19998,-0.931 0.38367,-1.84595 0.70001,-3.1185c0.19022,-0.76517 0.39407,-1.4632 0.60001,-2.112c0.38882,-1.22493 0.60498,-1.82104 0.89999,-2.74216c0.20346,-0.63524 0.60733,-1.99854 0.7955,-2.73184c0.19128,-0.74541 0.37732,-1.48982 0.53784,-2.58066c0.1001,-0.68018 0.15289,-1.66653 0.16217,-2.31934c0.01947,-1.36853 -0.00101,-2.1003 0.02533,-2.84734c0.02634,-0.74774 0.12299,-1.8378 0.33182,-2.84283c0.13287,-0.63951 0.39655,-1.55046 0.526,-2.45734c0.12936,-0.90636 0.10925,-1.54033 0.28799,-2.8665c0.09711,-0.72035 0.26181,-1.45805 0.40802,-2.20799c0.14441,-0.74074 0.34497,-2.14102 0.39999,-2.8c0.05429,-0.65038 0.18259,-1.99361 0.30933,-2.70934c0.13159,-0.74312 0.30826,-1.48753 0.43201,-2.23199c0.23169,-1.39359 0.26144,-2.04765 0.27951,-2.97951c0.01755,-0.90434 -0.01218,-1.80548 0.0405,-2.7045c0.03522,-0.60098 0.24133,-1.80032 0.46399,-2.67917c0.14307,-0.56476 0.40402,-1.83711 0.5,-2.5c0.14822,-1.02367 0.4743,-1.8047 0.716,-2.62083c0.29144,-0.98416 0.2861,-1.81235 0.50534,-2.59999c0.22717,-0.81612 0.66336,-1.7932 0.74265,-2.58934c0.10352,-1.03947 0.03601,-1.8 0.03601,-2.73149c0,-0.96451 -0.01306,-1.68993 0.00015,-2.679c0.01041,-0.77954 0.2695,-1.75209 0.64719,-2.49567c0.40643,-0.80022 0.59195,-1.61913 0.85266,-2.32533c0.35822,-0.97034 0.48199,-1.76804 0.5,-2.8125c0.01364,-0.79189 -0.04074,-1.65643 0.03601,-2.41335c0.11993,-1.18297 0.39633,-1.96602 0.61133,-2.7435c0.23917,-0.86487 0.37347,-1.76918 0.70984,-2.67599c0.23181,-0.62497 0.65353,-1.66389 0.84149,-2.30049c0.29752,-1.00764 0.49075,-1.66187 0.67984,-2.76901c0.14737,-0.86288 0.01321,-1.76248 0.17865,-2.61166c0.18225,-0.93536 0.70087,-1.43672 1.14151,-2.42067c0.32037,-0.71542 0.61542,-1.4462 0.76532,-2.57066c0.10953,-0.82152 0.02313,-1.68225 0.03601,-2.66133c0.01068,-0.81088 0.13043,-1.70148 0.44266,-2.42149c0.36243,-0.83578 0.91974,-1.65779 1.224,-2.57851c0.28958,-0.87637 0.28003,-1.48383 0.41602,-2.31467c0.16486,-1.00719 0.52179,-1.90334 1.08398,-2.68533c0.44907,-0.62465 1.13229,-1.11716 1.59033,-2.2c0.32138,-0.75977 0.21115,-1.80106 0.25369,-2.60001c0.04272,-0.80234 0.36276,-1.78763 0.63666,-2.54283c0.32489,-0.89585 0.51138,-1.827 0.77798,-2.4825c0.28232,-0.69413 0.56424,-1.6745 0.57468,-2.65867c0.00916,-0.86329 -0.00009,-1.75883 0,-2.716c0.00009,-0.9 0.1243,-1.57743 0.57468,-2.4c0.42728,-0.78039 0.28876,-1.75664 0.70932,-2.6c0.32993,-0.66165 0.71375,-1.49999 0.716,-2.436c0.00204,-0.84933 0,-1.57467 0,-2.76266c0,-0.76534 -0.04703,-1.71725 0,-2.60133c0.04272,-0.80341 0.7449,-1.5377 0.96399,-2.4c0.22296,-0.87752 0.19925,-1.76802 0.46133,-2.42533c0.40277,-1.01012 0.56934,-1.76395 0.57468,-2.6955c0.00552,-0.96449 -0.01239,-1.68991 0.00015,-2.67933c0.01041,-0.82087 0.05411,-1.49185 0.28384,-2.48383c0.19043,-0.82234 0.48611,-1.62273 0.63068,-2.62933c0.11987,-0.83475 0.05182,-1.94777 0.17065,-2.74133c0.15079,-1.007 0.34769,-1.63034 0.48935,-2.30534c0.27359,-1.30363 0.38763,-2.12463 0.41464,-2.81866c0.0397,-1.02113 0.0119,-1.89147 0.18134,-2.67734c0.22006,-1.02076 0.53595,-1.80606 0.82935,-2.66483c0.14996,-0.43894 0.48007,-1.30073 0.75717,-2.536c0.16119,-0.71859 0.19028,-1.69734 0.40948,-2.7765c0.14624,-0.71994 0.54346,-1.55943 0.93317,-2.36667c0.38492,-0.79733 0.66394,-1.38983 0.8475,-2.4c0.14429,-0.79391 0.37326,-1.79128 0.62735,-2.672c0.3028,-1.04959 0.35431,-1.69511 0.38931,-2.37867c0.05341,-1.04311 0.03601,-2.016 0.03601,-2.8305c0,-0.85266 -0.01279,-1.89359 0.00015,-2.84083c0.01041,-0.76154 0.07028,-1.53746 0.22119,-2.542c0.11954,-0.79586 0.28455,-1.63499 0.42599,-2.478c0.19409,-1.15667 0.29932,-1.80017 0.34198,-2.826c0.04288,-1.03117 0.01068,-1.832 0.01068,-2.832c0,-0.609 0,-1.51433 0,-2.64267c0,-0.66267 0,-1.35733 0,-2.38933c0,-0.92483 0,-1.9055 0,-2.80133c0,-0.86217 -0.02042,-1.71749 0.22134,-2.70933c0.1745,-0.71584 0.51227,-1.43347 0.69333,-2.48667c0.1651,-0.96032 0.08533,-1.72783 0.08533,-2.62783c0,-0.74733 0,-1.74283 0,-2.54283c0,-0.99983 0,-1.964 0,-2.91467c0,-0.88533 -0.0173,-1.6855 0,-2.58533c0.01801,-0.93652 0.27454,-1.7936 0.64667,-2.58267c0.23248,-0.49295 0.83734,-1.68267 1.17868,-2.34667l0.3493,-0.648l0.34134,-0.584" id="svg_13" stroke-width="2" stroke="#000" fill="none"/>
  <path t="82062,82178,82201,82229,82229,82229,82230,82247,82247,82247,82247,82252,82252,82252,82263,82276,82280,82296,82296,82304,82321,82328,82337,82354,82354,82371,82377,82387,82392,82404,82408,82408,82420,82424,82437,82440,82440,82454,82454,82457,82457,82471,82474,82474,82488,82488,82490,82490,82490,82504,82512,82512,82512,82512,82521,82521,82521,82528,82528,82537,82544,82545,82545,82554,82554,82560,82561,82571,82577,82577,82588,82593,82593,82604,82608,82608,82620,82624,82639,82639,82641,82643,82655,82658,82658,82671,82671,82671,82674,82674,82688,82690,82690,82704,82704,82704,82712,82712,82712,82721,82721,82728,82740,82740,82740,82745,82745,82754,82761,82761,82771,82771,82777,82787,82787,82793,82793,82804,82804,82808,82821,82821,82824,82824,82837,82837,82838,82841,82854,82855,82857,82857,82871,82874,82888,82888,82890,82891,82904,82904,82912,82912,82912,82921,82921,82921,82928,82928,82937,82938,82945,82945,82945,82954,82954,82961,82961,82961,82971,82971,82971,82971,82977,82977,82987,82987,82993,82993,82993,83004,83004,83008,83008,83008,83020,83021,83024,83024,83041,83041,83048,83048,83048,83048,83062,83063,83065,83066,83082,83083,83088,83088,83088,83089,83104,83104,83107,83107,83123,83124,83129,83129,83129,83145,83145,83153,83153,83153,83165,83165,83169,83169,83185,83185,83185,83194,83194,83194,83205,83206,83210,83210,83227,83232,83232,83233,83248,83248,83256,83256,83267,83273,83287,83288,83288,83295,83296,83308,83309,83312,83329,83330,83336,83336,83337,83351,83351,83354,83370,83371,83371,83377,83378,83378,83393,83393,83396,83396,83413,83413,83418,83418,83434,83434,83441,83441,83455,83455,83459,83476,83480,83480,83497,83505,83505,83517,83521,83539,83546,83546,83561,83561,83581,83585,83585,83585,83586,83601,83601,83617,83617,83624,83625,83625,83644,83656,83656,83666,83666,83672,83673,83686,83689,83706,83712,83713,83713,83728,83728,83731,83731,83749,83753,83753,83769,83770,83778,83778,83794,83794,83812,83812,83825,83841,83853,83853,83865,83882,83896,83914,83914,83920,83936,84069,84217" d="m374,4c0,1.8 0.00534,2.56695 -0.16666,3.5c-0.16153,0.87636 -0.34772,1.55982 -0.48068,2.3135c-0.20865,1.18273 -0.27878,1.9832 -0.31665,2.76517c-0.03629,0.74888 -0.03601,2.088 -0.03601,2.9025c0,0.85267 0,1.76167 0,2.71883c0,0.9 0,1.8 0,2.6c0,0.9 0.00195,1.81962 -0.42532,2.6c-0.45038,0.82257 -0.57468,1.6 -0.57468,2.4c0,0.9 0.00195,1.81962 -0.42532,2.6c-0.45038,0.82257 -0.57468,1.7 -0.57468,2.6c0,0.8 0.01019,1.70006 0,2.6c-0.01044,0.92101 -0.24106,1.71344 -0.57468,2.57467c-0.36154,0.93327 -0.42465,1.70933 -0.42532,2.65067c-0.00049,0.69067 0.02286,1.67496 -0.00134,2.66c-0.01782,0.72594 -0.22537,1.71282 -0.49866,2.51467c-0.34006,0.99774 -0.47348,1.78894 -0.49866,2.51467c-0.03561,1.02662 -0.16464,1.98606 -0.354,2.84783c-0.14478,0.6589 -0.33969,1.32922 -0.52585,2.5945c-0.11292,0.76746 -0.12082,1.64033 -0.12149,2.6385c-0.00049,0.74733 0.03976,1.79953 -0.16666,2.73783c-0.14981,0.68098 -0.47635,1.39949 -0.71185,2.52383c-0.15695,0.7493 -0.12149,1.62683 -0.12149,2.49017c0,1.02734 0,1.974 0,2.65267c0,0.9785 0,2 0,2.8c0,0.836 0,1.684 0,2.54733c0,1.01666 0.07584,1.97623 -0.16666,2.81933c-0.19562,0.68007 -0.73987,1.6552 -0.82266,2.42267c-0.09991,0.92619 0.03769,1.90009 -0.04669,2.62134c-0.11697,0.99972 -0.50082,1.77732 -0.67999,2.38933c-0.28687,0.97989 -0.28333,1.91467 -0.284,2.9c-0.00055,0.8215 0,1.71067 0,2.70033c0,0.84133 0,1.57034 0,2.76633c0,0.67333 0,1.34666 0,2.53333c0,0.792 0.07355,1.82291 -0.16666,2.66666c-0.19647,0.69016 -0.63138,1.41946 -0.77618,2.42883c-0.13077,0.91153 -0.03998,1.90469 -0.05731,2.72584c-0.01801,0.8539 -0.3717,1.74519 -0.71585,2.47733c-0.37469,0.79713 -0.284,1.68667 -0.284,2.60583c0,0.99416 0,1.7595 0,2.71149c0,0.76801 0,1.70934 0,2.71734c0,0.792 0,1.65333 0,2.41333c0,1.1745 0,1.968 0,2.7435c0,1.03917 0.09149,2.02237 -0.05716,2.767c-0.1846,0.92475 -0.70834,1.5595 -0.88568,2.48567c-0.18033,0.94176 -0.05716,1.8575 -0.05716,2.5715c0,0.95367 0.01459,1.68576 0,2.85233c-0.01044,0.83353 -0.16574,1.66692 -0.42532,2.59467c-0.22125,0.79071 -0.45639,1.81674 -0.54935,2.50267c-0.11304,0.83417 -0.40683,1.82596 -0.67267,2.63599c-0.25967,0.79121 -0.34222,1.59984 -0.35266,2.60001c-0.00833,0.79996 0.02875,1.60054 -0.00449,2.60451c-0.02826,0.85382 -0.19983,1.8217 -0.43152,2.63148c-0.25006,0.87399 -0.57022,1.76198 -0.8595,2.6595c-0.18771,0.58238 -0.45645,1.41238 -0.62048,2.41917c-0.14175,0.87 -0.31073,1.88348 -0.58401,2.68533c-0.34006,0.99774 -0.47897,1.7995 -0.49866,2.60001c-0.02457,0.99971 -0.00885,1.8118 -0.22269,2.60016c-0.22687,0.83646 -0.54114,1.47696 -0.69464,2.4825c-0.12088,0.79175 -0.22913,1.99271 -0.50934,2.65601c-0.42123,0.99712 -0.56104,1.7029 -0.57468,2.828c-0.00952,0.78595 -0.00266,1.61209 -0.08533,2.14932c-0.19098,1.24101 -0.55963,1.85481 -0.79333,2.88383c-0.17468,0.76915 -0.40851,1.7504 -0.69601,2.4975c-0.39841,1.03528 -0.37167,1.66525 -0.42532,2.3235c-0.08252,1.01263 -0.26257,2.21405 -0.5,2.91667c-0.306,0.90553 -0.49466,1.68779 -0.5,2.54916c-0.0047,0.75999 0.01834,1.93497 -0.01068,2.728c-0.02841,0.77638 -0.30807,1.80217 -0.564,2.436c-0.35284,0.87393 -0.41315,1.87 -0.42398,2.66667c-0.01352,0.99591 0.0723,1.87108 -0.28534,2.8c-0.28098,0.72981 -0.65176,1.65184 -0.69516,2.42433c-0.03183,0.56667 -0.02084,1.758 -0.02084,2.63699c0,0.80701 0.09833,1.86781 -0.08533,2.70399c-0.17487,0.79611 -0.66977,1.62265 -0.88934,2.50267c-0.23416,0.93848 -0.38632,1.61758 -0.60001,2.364c-0.31619,1.10437 -0.41998,1.8653 -0.42532,2.90334c-0.00357,0.69466 0.08505,1.71559 -0.00449,2.65184c-0.08353,0.87331 -0.47327,1.51358 -0.71152,2.29683c-0.29834,0.98074 -0.26965,1.81659 -0.56799,2.79733c-0.23825,0.78325 -0.67328,1.71292 -0.716,2.60133c-0.03909,0.81339 0,1.76933 0,2.52083c0,0.79651 0.00171,1.79251 0,2.63251c-0.00226,1.09399 -0.15497,2.01808 -0.436,2.69333c-0.25784,0.61954 -0.67734,1.5697 -0.95334,2.368c-0.2666,0.7711 -0.56668,1.81294 -0.60931,2.668c-0.04749,0.95216 -0.00134,1.71867 -0.00134,2.71735c0,0.79999 0.00006,1.79999 0,2.59999c-0.00009,0.99983 0.12726,1.82072 -0.22134,2.77867c-0.25201,0.69247 -0.73178,1.50258 -0.77417,2.36867c-0.04968,1.01546 -0.00449,1.85266 -0.00449,2.75284c0,0.78516 0,1.72516 0,2.73315c0,0.75601 0,1.66667 0,2.56667c0,0.90451 0,1.92134 0,2.60001c0,0.9785 0.06088,1.80312 -0.03601,2.70799c-0.11414,1.06606 -0.31818,1.64966 -0.53867,2.61601c-0.1423,0.62376 -0.39536,1.8121 -0.42398,2.64265c-0.02765,0.8022 -0.00134,1.81868 -0.00134,2.86668c0,0.70499 0,1.505 0,2.54132c0,0.94666 0,1.62534 0,2.604c0,0.90533 0,1.84668 0,2.53732c0,1.07333 0,1.98401 0,2.793c0,1.02435 0,1.69635 0,2.68567c0,0.86252 0,1.75351 0,2.65802c0,0.86331 0,1.84732 0,2.66864c0,0.85333 0,1.79468 0,2.56268c0,0.952 0,1.71732 0,2.716c0,0.79999 0,1.79868 0,2.74283c0,0.89999 0.05438,1.85883 -0.00015,2.75717c-0.04272,0.70386 -0.74686,1.43716 -0.96384,2.29999c-0.22076,0.8779 -0.03595,1.92133 -0.03601,2.60001c-0.00009,0.97833 -0.22134,1.87866 -0.91467,2.28534l-0.08667,0.91333" id="svg_14" stroke-width="2" stroke="#000" fill="none"/>
  <path t="85054,85085,85100,85128,85128,85131,85131,85131,85131,85145,85145,85148,85148,85148,85162,85162,85164,85164,85176,85176,85178,85179,85188,85188,85193,85193,85193,85200,85201,85209,85209,85216,85216,85216,85224,85224,85233,85233,85233,85241,85241,85241,85249,85249,85257,85257,85265,85265,85273,85273,85281,85281,85291,85297,85297,85297,85305,85305,85313,85322,85322,85329,85329,85329,85338,85339,85339,85345,85345,85345,85345,85355,85355,85362,85362,85362,85362,85372,85372,85372,85378,85378,85378,85388,85388,85388,85393,85393,85393,85393,85393,85404,85404,85405,85408,85409,85409,85409,85421,85422,85426,85427,85427,85427,85438,85439,85443,85443,85443,85443,85455,85456,85460,85460,85460,85460,85472,85472,85472,85472,85476,85476,85476,85477,85488,85489,85493,85493,85493,85493,85505,85505,85505,85505,85514,85514,85514,85514,85515,85515,85522,85522,85522,85522,85529,85529,85529,85529,85529,85538,85539,85539,85539,85545,85545,85545,85545,85545,85555,85556,85556,85561,85562,85562,85562,85572,85572,85573,85573,85578,85578,85578,85578,85595,85595,85595,85595,85601,85601,85602,85602,85602,85602,85616,85616,85616,85616,85616,85620,85620,85620,85620,85621,85637,85637,85637,85637,85637,85642,85643,85643,85643,85643,85643,85643,85662,85663,85663,85663,85663,85682,85683,85683,85683,85683,85683,85684,85684,85702,85703,85703,85703,85703,85703,85703,85704,85704,85723,85723,85723,85724,85724,85724,85724,85724,85746,85746,85746,85746,85746,85747,85747,85747,85767,85767,85767,85767,85768,85768,85768,85787,85787,85787,85787,85787,85788,85788,85809,85809,85810,85810,85810,85810,85810,85831,85831,85831,85831,85832,85832,85851,85852,85852,85852,85852,85852,85853,85873,85873,85873,85873,85874,85874,85874,85895,85895,85896,85896,85896,85896,85916,85916,85916,85917,85917,85921,85921,85921,85921,85921,85938,85938,85938,85945,85946,85962,85962,85981,85981,85985,85985,86002,86010,86041,86064,86075,86080,86098,86104,86120,86128,86129,86145,86152,86164,86169,86185,86194" d="m305,294c0,-1.70001 -0.01791,-2.6362 0.00134,-3.48801c0.01797,-0.7952 0.15375,-1.84763 0.35132,-2.81284c0.13919,-0.68002 0.32043,-1.33157 0.526,-2.435c0.16776,-0.90051 0.34369,-1.80673 0.54666,-2.52548c0.22314,-0.79019 0.49438,-1.81326 0.55383,-2.69702c0.06848,-1.01825 -0.00873,-1.79495 0.02533,-2.69882c0.0282,-0.74866 0.30103,-1.73532 0.57019,-2.54285c0.33051,-0.99152 0.41489,-1.79984 0.42532,-2.79999c0.00833,-0.79996 -0.03061,-1.60062 0.00449,-2.60001c0.02814,-0.80124 0.28665,-1.79745 0.49551,-2.39999c0.34521,-0.99597 0.42471,-1.80841 0.58401,-2.60001c0.20514,-1.01935 0.57733,-1.6171 0.79449,-2.82132c0.14349,-0.79572 0.11615,-1.3533 0.12149,-2.65717c0.00281,-0.68552 -0.03067,-1.52078 0.00449,-2.52151c0.02814,-0.80122 0.28732,-1.79573 0.57019,-2.564c0.3497,-0.94981 0.41098,-1.64594 0.42667,-2.604c0.01199,-0.73216 0.12036,-1.91806 0.42398,-2.56c0.42801,-0.90497 0.54749,-1.83966 0.58536,-2.508c0.04349,-0.76773 0.37128,-1.74861 0.63666,-2.50684c0.35657,-1.01872 0.31152,-1.98111 0.3735,-2.67799c0.08771,-0.98608 0.4166,-1.78925 0.68365,-2.43634c0.39764,-0.96346 0.69955,-1.77744 0.99551,-2.64734c0.30417,-0.89407 0.60428,-1.78828 0.77914,-2.37466c0.24805,-0.83186 0.42349,-1.83853 0.54617,-2.74615c0.1275,-0.94331 0.30933,-1.74135 0.62134,-2.58534c0.22107,-0.59801 0.8356,-1.78821 1.168,-2.37866c0.32364,-0.57489 0.89905,-1.63094 1.0755,-2.358c0.21674,-0.8931 0.31943,-1.87752 0.54584,-2.69934c0.16595,-0.60245 0.56702,-1.91916 0.76401,-2.63733c0.20309,-0.74048 0.39566,-1.49185 0.59998,-2.23199c0.29379,-1.06424 0.59702,-2.04897 0.80002,-2.67334c0.39423,-1.21255 0.61353,-1.80473 0.87915,-2.68983c0.24951,-0.83142 0.43011,-1.83768 0.52084,-2.52083c0.15518,-1.16826 0.34613,-1.9561 0.52084,-2.5c0.26389,-0.8215 0.68491,-1.81349 1.07916,-2.72533c0.40591,-0.93881 0.70724,-1.72354 0.87915,-2.27467c0.2529,-0.81078 0.42938,-1.81822 0.54617,-2.76134c0.13287,-1.07307 0.25229,-1.70972 0.41068,-2.39999c0.16656,-0.72591 0.55951,-2.17334 0.76401,-2.85333c0.19568,-0.65065 0.50067,-1.58061 0.79999,-2.48534c0.29617,-0.89526 0.5177,-1.46925 0.71466,-2.31467c0.28445,-1.22092 0.27734,-1.91063 0.28534,-2.85201c0.00674,-0.79498 0.01529,-1.68193 0.08533,-2.31999c0.15445,-1.40709 0.34927,-2.17096 0.52533,-2.996c0.09311,-0.43633 0.39117,-1.85031 0.48935,-2.35983c0.2038,-1.0576 0.2977,-1.59793 0.5,-2.67084c0.09888,-0.52438 0.3891,-1.98932 0.60001,-2.832c0.19019,-0.75984 0.41046,-1.45564 0.79999,-2.82133c0.20416,-0.71579 0.40002,-1.45625 0.564,-2.20799c0.16119,-0.73911 0.33832,-1.80243 0.39999,-2.81067c0.04129,-0.6752 0.03247,-1.384 0.03616,-2.55733c0.00272,-0.86267 0.01007,-1.75783 0.05701,-2.65201c0.02298,-0.43764 0.14417,-1.66634 0.36816,-2.73334c0.13715,-0.65335 0.42172,-1.87027 0.49066,-2.47333c0.10489,-0.91734 0.09564,-1.56154 0.30551,-2.92c0.11356,-0.73509 0.29013,-1.48099 0.483,-2.226c0.28207,-1.08957 0.50549,-1.76411 0.77466,-2.73184c0.17087,-0.61436 0.41339,-1.82018 0.49551,-2.76349c0.06097,-0.70052 0.09943,-1.49962 0.19199,-2.42401c0.10721,-1.07053 0.18329,-1.64502 0.35419,-2.83333c0.08618,-0.5992 0.16138,-1.1935 0.47916,-2.83333c0.09348,-0.48232 0.29492,-1.34831 0.5,-2.125c0.19519,-0.73929 0.50519,-1.87378 0.70001,-2.70967c0.20544,-0.88141 0.39761,-1.78188 0.5,-2.22667c0.29318,-1.27358 0.50385,-2.04031 0.69998,-2.78667c0.20401,-0.77629 0.41504,-1.6398 0.60001,-2.652c0.21631,-1.18358 0.29813,-1.82963 0.38934,-2.49333c0.09247,-0.67297 0.25717,-2.0096 0.32532,-2.65334c0.12552,-1.18596 0.19614,-2.19919 0.27066,-3.08266c0.06989,-0.82854 0.08865,-1.24988 0.34802,-2.604c0.20746,-1.08319 0.37637,-1.67104 0.52798,-2.29867c0.15936,-0.65971 0.32724,-1.34859 0.49051,-2.067c0.16885,-0.74291 0.48755,-2.29994 0.6265,-3.11017c0.14114,-0.82314 0.26492,-1.65768 0.375,-2.4975c0.10992,-0.83854 0.20425,-1.6729 0.285,-2.4975c0.07919,-0.80877 0.19833,-2.3623 0.24033,-3.09834c0.04053,-0.71066 0.06927,-1.40164 0.12134,-2.74333c0.02563,-0.66082 0.04822,-1.32189 0.08401,-1.9875c0.07352,-1.36719 0.19815,-2.8018 0.27765,-3.53867c0.08047,-0.74583 0.1748,-1.49541 0.285,-2.244c0.10983,-0.74611 0.22034,-1.48664 0.51999,-2.91733c0.14502,-0.69239 0.31277,-1.3635 0.64801,-2.66134c0.16293,-0.63074 0.33545,-1.24794 0.47549,-1.863c0.41019,-1.80166 0.47507,-2.40807 0.54184,-3.009c0.13315,-1.19836 0.16403,-1.80035 0.21866,-2.4c0.10941,-1.20075 0.27075,-2.40231 0.39218,-2.99967c0.24319,-1.19642 0.41354,-1.78038 0.578,-2.35867c0.32138,-1.1301 0.50961,-1.66711 0.95749,-3.19933c0.1391,-0.47583 0.38382,-1.41112 0.48001,-1.884c0.19824,-0.97447 0.28604,-1.49434 0.4205,-3.24383c0.05005,-0.65105 0.07227,-1.3297 0.10648,-2.0265c0.03479,-0.70887 0.11176,-2.1357 0.18402,-2.83733c0.1394,-1.35342 0.26056,-1.98916 0.39999,-2.596c0.2673,-1.16328 0.4501,-1.71343 0.7825,-2.79833c0.16479,-0.53788 0.49493,-1.6197 0.76282,-2.739c0.13495,-0.56392 0.36569,-1.69627 0.47467,-2.256c0.10733,-0.55128 0.40604,-2.12898 0.61069,-3.092c0.09775,-0.45998 0.30109,-1.34825 0.5,-2.2175c0.30164,-1.31812 0.40482,-1.77179 0.59549,-2.6955c0.1886,-0.91366 0.36716,-1.78627 0.53784,-2.95633c0.09354,-0.64117 0.01318,-1.46065 0.388,-2.47867c0.25461,-0.69152 0.6665,-1.51129 0.83133,-2.42583c0.1442,-0.80013 0.55756,-1.53961 0.82584,-2.574c0.2081,-0.80237 -0.06223,-1.748 0.1575,-2.6215c0.21704,-0.86282 0.92126,-1.59697 0.96399,-2.5c0.04251,-0.89899 0.41769,-1.45438 0.87851,-2.1215c0.50406,-0.7297 -0.05206,-1.81675 0.20682,-2.5785c0.30176,-0.88792 0.88934,-1.58933 1.41467,-2.2l0.48932,-0.61067l0.01068,-0.88933l0,-0.9" id="svg_15" stroke-width="2" stroke="#000" fill="none"/>
  <path t="86666,86716,86732,86744,86770,86770,86792,86793,86793,86793,86793,86793,86793,86811,86811,86811,86811,86811,86812,86812,86812,86827,86827,86827,86827,86827,86827,86827,86827,86840,86840,86840,86840,86844,86844,86844,86844,86844,86855,86855,86856,86856,86860,86860,86860,86860,86872,86872,86872,86876,86876,86876,86888,86888,86888,86889,86893,86893,86893,86906,86906,86906,86906,86906,86913,86913,86913,86913,86913,86913,86913,86921,86922,86922,86922,86929,86929,86929,86929,86929,86938,86938,86938,86938,86945,86945,86945,86945,86945,86955,86955,86955,86955,86955,86961,86961,86961,86961,86972,86972,86972,86977,86977,86977,86988,86988,86988,86994,86994,86994,87004,87005,87005,87009,87010,87021,87021,87021,87026,87026,87026,87038,87039,87039,87043,87043,87055,87055,87055,87059,87060,87072,87072,87072,87077,87077,87077,87089,87089,87089,87096,87097,87097,87097,87097,87105,87105,87105,87105,87112,87113,87113,87122,87122,87122,87122,87129,87129,87129,87139,87139,87139,87140,87140,87155,87155,87155,87155,87156,87161,87161,87161,87161,87162,87172,87172,87172,87172,87172,87178,87178,87178,87196,87196,87196,87196,87201,87201,87202,87202,87218,87218,87218,87218,87225,87225,87225,87226,87226,87241,87241,87241,87263,87263,87264,87264,87284,87284,87284,87284,87285,87285,87285,87285,87306,87306,87307,87307,87308,87308,87308,87308,87309,87330,87330,87331,87331,87331,87331,87331,87331,87337,87337,87337,87337,87337,87337,87338,87338,87338,87352,87353,87353,87353,87353,87361,87361,87361,87361,87376,87377,87377,87398,87399,87399,87420,87420,87420,87420,87420,87421,87425,87426,87426,87426,87426,87426,87444,87445,87445,87449,87449,87466,87466,87472,87472,87488,87488,87493,87493,87513,87513,87514,87535,87536,87536,87539,87539,87539,87539,87558,87558,87559,87562,87562,87581,87581,87582,87586,87586,87586,87604,87609,87609,87610,87628,87628,87632,87651,87651,87657,87673,87697,87697,87702,87738,87769,87785,87811,87819,87826,87883,87907,87938,87952,87952,88000,88017,88017,88024,88036" d="m363,8c0,2.78933 0,3.51467 0,4.47917c0,0.84783 0,1.56383 0,2.52083c0,0.912 0,2.016 0,2.625c0,0.639 0,1.302 0,1.983c0,2.09217 0,2.79333 0,3.4965c0,0.70617 0,1.41633 0,2.1315c0,0.72117 0,1.44933 0,2.93067c0,0.754 0,2.268 0,3.016c0,0.734 0,1.448 0,2.136c0,0.656 0,2.37416 0,3.3045c0,0.81433 0.00092,1.56867 0,2.71017c-0.00067,0.83467 0.00549,1.27224 -0.02084,2.16667c-0.02634,0.89502 -0.12796,2.16963 -0.26315,2.92933c-0.12491,0.70179 -0.39795,1.65527 -0.54935,2.57067c-0.14804,0.89503 -0.17172,1.80233 -0.25067,2.4c-0.1593,1.20607 -0.43118,2.09647 -0.56332,2.7c-0.26138,1.19378 -0.31473,1.79922 -0.34198,2.7c-0.03629,1.1995 -0.01068,1.8 -0.01068,2.7c0,0.9 0,1.80017 0,2.71067c0,0.9465 0.00366,1.95602 -0.00134,2.67867c-0.0054,0.77871 -0.02277,1.63004 -0.08398,2.568c-0.06812,1.04361 -0.19714,2.19368 -0.27185,2.79617c-0.07593,0.6122 -0.15469,1.22706 -0.34732,2.43133c-0.09253,0.57854 -0.39117,2.13045 -0.591,2.99551c-0.17993,0.77887 -0.3866,1.51011 -0.53784,2.653c-0.11002,0.83137 -0.11948,1.27164 -0.14581,2.16666c-0.02634,0.89443 -0.01648,2.16669 -0.02219,2.93066c-0.00528,0.70804 -0.02814,1.72086 -0.16531,2.736c-0.09769,0.72293 -0.26584,1.4787 -0.40802,2.28c-0.14883,0.83871 -0.31113,2.174 -0.37265,3.1015c-0.03094,0.46628 -0.05759,1.39208 -0.13669,2.2825c-0.10919,1.22916 -0.26514,1.95578 -0.41599,2.62767c-0.21109,0.94012 -0.42877,2.14067 -0.46399,2.74166c-0.05267,0.89901 -0.03601,2.09984 -0.03601,2.6955c0,0.8685 0.01849,1.93819 -0.00449,2.65183c-0.02921,0.90639 -0.21069,1.87559 -0.42084,2.678c-0.2157,0.82368 -0.48154,1.85022 -0.53867,2.53867c-0.06909,0.83252 0.005,1.84454 -0.09317,2.69317c-0.1124,0.97157 -0.38602,1.76355 -0.59018,2.59016c-0.25345,1.02608 -0.33337,1.72685 -0.35132,2.63667c-0.01971,0.99981 -0.00079,1.816 -0.00134,2.632c-0.00067,0.99866 0.04111,1.89056 -0.22134,2.884c-0.21637,0.81905 -0.57587,1.38506 -0.7215,2.4045c-0.12082,0.84571 -0.05716,1.81683 -0.05716,2.62083c0,0.822 0,1.85332 0,2.77467c0,0.68401 0,1.688 0,2.5625c0,0.65633 0,1.77083 0,2.6055c0,0.88266 0.00006,1.78134 0,2.664c-0.00009,1.22501 0.01041,1.95419 -0.02084,2.62633c-0.0437,0.9402 -0.19199,1.84364 -0.40448,2.74167c-0.21347,0.90207 -0.42584,1.79793 -0.522,2.7c-0.09576,0.89828 -0.10083,1.50652 -0.33667,2.70267c-0.12277,0.62262 -0.40039,1.60616 -0.54935,2.73067c-0.11014,0.83148 -0.11398,1.272 -0.16666,2.16667c-0.05267,0.89467 -0.14722,2.16994 -0.28534,2.93333c-0.13214,0.73027 -0.33289,1.45149 -0.51599,2.22c-0.31158,1.30766 -0.40088,1.79823 -0.59866,2.82266c-0.20227,1.04758 -0.28342,1.56952 -0.60001,3.024c-0.09503,0.43661 -0.39304,1.5941 -0.60001,2.26801c-0.19348,0.63002 -0.60864,1.82892 -0.78934,2.43199c-0.26837,0.89568 -0.49048,2.10005 -0.5625,2.7045c-0.11099,0.93132 -0.17276,1.59369 -0.49081,2.61684c-0.23065,0.74205 -0.57446,1.47215 -0.85202,2.226c-0.39664,1.07724 -0.60635,2.10315 -0.68448,2.7735c-0.08017,0.68781 -0.17526,1.81433 -0.30618,2.64584c-0.13782,0.87544 -0.30756,1.75093 -0.51599,2.58c-0.27533,1.09512 -0.59744,1.95648 -0.89868,2.69699c-0.39838,0.97932 -0.62192,1.52974 -0.89999,2.547c-0.10864,0.39742 -0.40256,1.84222 -0.50034,2.41667c-0.1051,0.61754 -0.31784,1.96254 -0.44131,2.67599c-0.12711,0.73457 -0.2608,1.48456 -0.42902,2.23801c-0.33884,1.51752 -0.56537,2.25923 -0.79733,2.99333c-0.23077,0.73027 -0.48187,1.44962 -0.73199,2.16451c-0.24857,0.71043 -0.50339,1.41344 -0.73199,2.11949c-0.45197,1.39584 -0.80453,2.8027 -0.95816,3.51033c-0.15439,0.71109 -0.29102,1.43231 -0.4245,2.16301c-0.13556,0.74196 -0.26096,1.49995 -0.552,3.06133c-0.15085,0.80936 -0.31512,1.62952 -0.48151,2.45401c-0.16562,0.82085 -0.33218,1.62909 -0.49051,2.418c-0.15262,0.76044 -0.31094,1.48207 -0.52798,2.79466c-0.17972,1.08685 -0.27255,1.99461 -0.34802,2.772c-0.06848,0.70529 -0.19934,1.75052 -0.33798,2.47617c-0.13995,0.73245 -0.38806,1.7785 -0.526,2.70883c-0.14795,0.99774 -0.19061,1.64432 -0.474,2.6655c-0.21109,0.76062 -0.39813,1.40024 -0.526,2.68466c-0.05133,0.51564 -0.09631,1.65149 -0.12134,2.25534c-0.02563,0.61882 -0.06839,1.87465 -0.16666,3.10417c-0.04718,0.59047 -0.18228,1.70602 -0.25867,2.22932c-0.14243,0.97571 -0.31696,1.84175 -0.45319,2.9395c-0.10599,0.8542 -0.09006,1.76112 -0.12598,2.76451c-0.02869,0.80121 -0.2818,1.79779 -0.57019,2.564c-0.30627,0.81375 -0.38672,1.58965 -0.42981,2.49316c-0.04517,0.94655 -0.30099,1.73535 -0.57019,2.54283c-0.3306,0.99168 -0.40125,1.82433 -0.50934,2.48534c-0.16483,1.008 -0.43839,1.85587 -0.62048,2.47632c-0.39871,1.35852 -0.5983,2.08472 -0.77466,2.8175c-0.17075,0.70932 -0.42365,1.97552 -0.48483,2.74884c-0.05237,0.66168 0.00348,1.67603 -0.07202,2.508c-0.08493,0.93594 -0.3266,1.71405 -0.53867,2.53867c-0.27145,1.05548 -0.31345,1.99625 -0.50934,2.73868c-0.23892,0.90543 -0.78275,1.8154 -0.85883,2.492c-0.08328,0.74078 0.1282,1.88565 -0.11432,2.68567c-0.27051,0.89233 -1.26395,1.42242 -1.6575,2.10898c-0.42065,0.73383 -0.25284,1.72144 -0.28668,2.68268c-0.0285,0.80893 -0.77365,1.44446 -0.99417,2.22183c-0.24438,0.86154 -0.00223,1.7955 -0.00449,2.6955c-0.00226,0.89551 -0.4165,1.5845 -1,2.10001c-0.63788,0.56357 -0.95441,1.26303 -1.00449,2.14816c-0.04446,0.7854 -0.82886,1.51849 -0.99551,2.35184l0,0.79999l0,0.90002l-0.03601,0.86398" id="svg_16" stroke-width="2" stroke="#000" fill="none"/>
 </g>
 <g display="none">
  <title>muse_image</title>
  <image xlink:href="http://static.flickr.com/1432/561904014_4e4d6cc13a.jpg" id="muse" height="480" width="327" y="0" x="156.5"/>
 </g>
 <g display="none">
  <title>bbox</title>
  <rect stroke="#f00" fill="none" stroke-width="3" height="447.36" width="314.53372" y="0" x="167.04839" id="bbox"/>
 </g>
</svg>
