<svg width="640" height="480" xmlns="http://www.w3.org/2000/svg" xmlns:svg="http://www.w3.org/2000/svg" xmlns:xlink="http://www.w3.org/1999/xlink">
 <!-- Sketchy ANNOTATION
  ImageNet ID: n03272010_6820
  URL: http://farm4.static.flickr.com/3195/2735544685_2bf3eec067.jpg
  Image Width: 375
  Image Height: 500
  BBox X: 130
  BBox Y: 5
  BBox Width: 164
  BBox Height: 473
  Exposure: 2000ms
  Synset Label: guitar
  Synset ID: n03467517
  Worker Tag: Guitar
  Sanity Check: 
   Saved
  Comment: 
   {}
  Worker ID: AIH9VLD92GHFH
  Assignment ID: 3JZQSN0I3QATKTKZ9GBNDXM6M6IFG7
  HIT ID: 3QD8LUVX4XYAHYO62CTGQN03WMFX53
  Work Time: 51s
  Worker Score: 0.6679
 END ANNOTATION -->
 <g display="inline">
  <title>Layer 1</title>
  <path t="0,161,166,176,177,177,177,194,194,194,215,216,216,227,227,227,227,243,243,243,260,260,260,260,276,277,277,293,293,293,294,310,310,310,326,326,343,343,347,347,360,360,360,376,376,376,393,393,393,393,410,410,426,426,426,443,443,460,460,460,476,476,476,493,493,493,510,510,526,527,527,543,543,543,560,576,577,577,593,593,610,626,626,626,643,643,662,662,675,676,693,693,711,711,726,727,727,743,760,760,776,776,776,793,810,810,826,826,859,876,876,893,893,925,926,943,960,960,976,977,1009,1010,1026,1026,1043,1043,1059,1075,1108,1108,1125,1145,1145,1160,1160,1177,1177,1192,1210,1210,1210,1226,1242,1243,1260,1260,1276,1293,1293,1310,1326,1343,1343,1344,1360,1376,1393,1393,1393,1410,1426,1443,1443,1443,1460,1460,1476,1493,1493,1493,1510,1510,1526,1526,1543,1543,1559,1560,1560,1576,1576,1592,1592,1609,1610,1626,1626,1643,1643,1659,1660,1676,1676,1693,1710,1710,1710,1726,1726,1759,1760,1776,1776,1809,1826,1826,1843,1875,1893,1959,2009,2009,2026,2042,2059,2076,2093,2110,2110,2110,2126,2144,2160,2160,2176,2192,2193,2210,2210,2229,2275,2310,2359,2592,2675,2825,2825,3059,3059,4541,4575,4625,4625,4642,4691,4692,4710,4710,4726,4742,4760,4760,4775,4808,4809,4826,4826,4827,4858,4876,4876,4894,4894,4910,4910,4941,4942,4960,4975,4976,4992,4993,5010,5025,5026,5042,5064,5083,5084,5100,5100,5112,5125,5126,5126,5142,5143,5159,5159,5175,5176,5192,5192,5210,5210,5225,5226,5242,5243,5260,5260,5260,5275,5276,5276,5292,5293,5309,5310,5325,5326,5326,5342,5343,5343,5360,5360,5375,5376,5392,5393,5393,5410,5410,5410,5426,5426,5442,5443,5459,5460,5460,5475,5476,5492,5493,5493,5510,5510,5526,5527,5527,5542,5543,5559,5560,5560,5575,5576,5577,5592,5593,5609,5610,5625,5626,5627,5642,5643,5659,5660,5660,5676,5677,5677,5692,5693,5709,5710,5710,5725,5726,5742,5743,5759,5760,5760,5776,5777,5777,5792,5793,5810,5810,5810,5825,5826,5827,5842,5843,5843,5844,5859,5860,5860,5860,5875,5876,5877,5893,5893,5894,5909,5910,5935,5935,5935,5950,5950,5963,5963,5964,5976,5977,5992,5993,6009,6010,6026,6042,6043,6043,6060,6076,6077,6108,6109,6125,6142,6143,6159,6175,6191,6191,6209,6210,6225,6226,6241,6243,6258,6275,6276,6293,6309,6310,6325,6326,6343,6359,6360,6375,6393,6425,6426,6426,6442,6443,6460,6475,6508,6525,6526,6527,6541,6560,6575,6576,6592,6593,6609,6625,6626,6642,6659,6660,6676,6677,6692,6693,6693,6709,6710,6725,6751,6751,6765,6765,6779,6779,6792,6809,6810,6825,6841,6842,6859,6860,6875,6892,6893,6893,6909,6910,6925,6926,6942,6943,6943,6959,6960,6960,6975,6976,6977,6992,6993,7008,7010,7025,7026,7027,7042,7043,7059,7060,7060,7076,7077,7092,7109,7110,7125,7126,7127,7142,7143,7160,7161,7161,7176,7176,7193,7194,7210,7211,7211,7226,7226,7227,7242,7243,7243,7244,7259,7260,7260,7261,7276,7276,7277,7277,7292,7293,7293,7293,7294,7307,7308,7309,7309,7326,7327,7342,7343,7358,7360,7375,7393,7393,7424,7442,7443,7459,7460,7476,7476,7492,7493,7509,7536,7537,7551,7576,7576,7592,7593,7609,7610,7624,7624,7625,7641,7643,7643,7659,7660,7675,7676,7677,7692,7693,7694,7694,7708,7710,7725,7726,7742,7759,7760,7760,7776,7792,7793,7809,7810,7810,7824,7824,7842,7843,7843,7859,7875,7877,7892,7893,7908,7910,7941,7974,7975,8008,8058,8059,8076,8092,8124,8142,8143,8162,8162,8191,8208,8258,8275,8277,8291,8292,8309,8325,8326,8354,8369,8384,8384,8398,8399,8399,8413,8414,8414,8430,8430,8444,8444,8445,8459,8460,8460,8474,8492,8493,8493,8508,8510,8525,8542,8543,8543,8558,8560,8575,8576,8576,8592,8593,8593,8609,8610,8625,8626,8627,8627,8641,8642,8642,8659,8660,8676,8677,8677,8677,8692,8693,8693,8709,8724,8725,8726,8742,8742,8743,8759,8759,8760,8774,8775,8808,8809" d="m272,240c-6.69199,1.82933 -7.43689,1.97916 -8.5,2c-0.86234,0.01691 -1.52084,-0.00009 -2.19916,0c-1.25784,0.00017 -2.05975,-0.10335 -2.89816,0.17067c-0.85358,0.27898 -1.41574,0.88037 -2.08801,1.43199c-0.98872,0.81126 -1.54811,1.20102 -2.12534,1.59734c-0.5881,0.40378 -1.79056,1.19623 -2.37866,1.60001c-0.57722,0.39632 -1.65231,1.1902 -2.12534,1.59999c-0.67668,0.58623 -1.27928,1.20479 -1.88567,1.8c-0.61624,0.60489 -1.29407,1.2282 -2.133,1.8c-0.61804,0.42125 -1.3158,0.76959 -1.944,1.2c-1.09291,0.74879 -1.43102,1.43022 -1.819,2.14284c-0.52559,0.96539 -1.17282,1.26678 -1.90367,1.99051c-0.64041,0.63416 -0.99962,1.17413 -1.51466,1.98398c-0.62523,0.98309 -0.98331,1.67419 -1.284,2.36667c-0.42987,0.98996 -0.59071,1.56079 -0.95851,2.4205c-0.38731,0.90533 -0.89699,1.78766 -1.222,2.37466c-0.46002,0.83084 -0.87018,1.83307 -1,2.52084c-0.21918,1.16113 -0.37425,1.94797 -0.59549,2.73868c-0.25957,0.92773 -0.41492,1.76114 -0.42534,2.59467c-0.01173,0.9386 0.00224,1.77567 0,2.66666c-0.00226,0.89551 0.03571,1.77524 -0.16667,2.83334c-0.13779,0.72043 -0.49326,1.3342 -0.71182,2.36667c-0.16698,0.78882 -0.12151,1.79999 -0.12151,2.61066c0,0.87466 0,1.87201 0,2.66849c0,0.7515 0,1.87018 0,2.85419c0,0.672 -0.03885,1.6622 0.00017,2.52365c0.04271,0.94321 0.60403,1.64847 0.83316,2.47635c0.24716,0.89301 0.1142,1.66269 0.168,2.69733c0.04445,0.85498 0.28239,1.67316 0.76035,2.31665c0.62836,0.84601 1.45467,1.1817 2.21683,1.75284c0.65024,0.48727 1.18338,1.41031 1.6575,2.07449c0.49144,0.68845 1.20483,1.16565 1.88,1.62402c0.85808,0.58255 1.15106,1.42999 1.52567,2.18048c0.44493,0.89139 1.24323,0.97995 2.19167,1.01819c0.95158,0.03836 1.81851,0.30994 2.52383,0.64999c0.85069,0.41016 1.63263,0.3053 2.60683,0.77798c0.77792,0.37744 1.55663,0.69708 2.28867,1.28452c0.55072,0.44193 1.2585,1.3497 1.93668,1.84351c0.66006,0.48062 1.78398,0.57806 2.38983,0.98831c0.76935,0.52094 0.8737,1.49725 1.18748,2.29169c0.32208,0.81543 1.17319,1.28152 1.548,2.052c0.42545,0.87451 0.28467,1.63065 0.28534,2.70398c0.00058,0.93152 0,1.73199 0,2.58533c0,0.94 -0.15042,1.97418 0.17065,2.71069c0.37372,0.85733 1.13339,1.19299 1.58633,2.09314c0.38416,0.76349 0.24301,1.69351 0.24301,2.78952c0,0.73199 0,1.46399 0,2.57065c0,0.98267 0,1.66135 0,2.63983c0,0.82019 0,1.77869 0,2.67419c0,0.86331 0.14313,1.84058 -0.009,2.65182c-0.16977,0.90536 -0.87418,1.49484 -1.28568,2.04282c-0.64429,0.85797 -0.60895,1.87595 -0.87198,2.81934c-0.19006,0.68167 -0.66882,1.32443 -0.8125,2.3125c-0.13562,0.93259 0.00244,1.85477 -0.03152,2.77151c-0.02759,0.74493 -0.31714,1.75641 -0.63666,2.44034c-0.38647,0.82724 -0.35266,1.85165 -0.35266,2.55966c0,0.74399 0,1.944 0,2.71732c0,0.80002 0,1.78134 0,2.69867c0,0.83334 0,1.87601 0,2.58401c0,0.74399 0,1.93948 0,2.63199c0,0.95334 0,1.71866 0,2.71735c0,0.79999 0,1.79999 0,2.60001c0,1 0,1.79999 0,2.79999c0,0.78934 -0.01062,1.8334 0,2.6955c0.01044,0.84634 0.20309,1.853 0.436,2.55518c0.24899,0.75073 0.72733,1.57108 1.12799,2.36398c0.42325,0.83755 0.41998,1.82352 1.004,2.5c0.49045,0.56808 1.36359,1.185 1.43201,2.052c0.06393,0.81024 0.61157,1.52945 0.96399,2.26935c0.37,0.77682 0.59097,1.47049 0.98785,2.26932c0.33749,0.67932 1.03403,0.97372 1.87881,1.57867c0.68628,0.49142 1.05786,1.2373 1.711,1.73685c0.7041,0.53854 1.42151,1.0274 1.97433,1.41116c0.90994,0.63168 1.72742,1.05206 2.65067,1.40134c0.62033,0.23468 1.65118,0.45831 2,1.33331c0.25986,0.65189 0.78452,1.63873 1.53336,1.82434c0.83975,0.20816 1.40164,0.6777 2.29999,1.009c0.82364,0.30374 1.39856,0.73523 2.19867,1.00266c0.76831,0.25681 0.75565,1.51093 1.51117,1.88303c0.73129,0.36017 1.76932,0.11432 2.70084,0.11432c0.91064,0 1.76398,0 2.70398,0c0.88535,0 1.64252,0 2.53802,0c0.86331,0 1.82648,0 2.758,0c0.91064,0 1.76398,0 2.70398,0c0.88535,0 1.69968,0 2.65335,0c0.73199,0 1.46399,0 2.57065,0c0.98267,0 1.836,0 2.77869,0c0.6925,0 1.6525,-0.03439 2.38266,0.02084c1.17239,0.08865 1.88812,0.64352 2.70132,0.89383c0.92621,0.2851 1.79868,0.08533 2.63202,0.08533c0.86215,0 1.80264,0 2.65067,0c0.86331,0 1.88306,-0.07025 2.71732,0.00134c0.9758,0.08374 1.59125,0.51685 2.63202,0.832c0.73877,0.22372 1.58798,0.16666 2.5,0.16666c0.91733,0 1.66132,0 2.69733,0c0.85199,0 1.80533,0 2.57065,0c0.99869,0 1.79868,0 2.79736,0c0.76532,0 1.71866,0 2.57065,0c1.03601,0 1.78,0 2.69733,0c0.83334,0 1.87619,0 2.59467,0c0.7905,0 1.81735,0 2.73868,0c0.68399,0 1.68457,0.03754 2.47916,-0.02084c1.19321,-0.08765 1.82947,-0.52142 2.85419,-0.8125c0.65921,-0.18726 1.452,-0.1553 2.5,-0.16666c0.93066,-0.01007 1.77692,-0.04337 2.56665,-0.284c0.81424,-0.24811 1.79587,-0.63635 2.60001,-0.69516c0.99756,-0.07294 1.82809,0.06638 2.60001,-0.1915c0.84833,-0.28342 1.38171,-0.89651 2.08533,-1.26135c0.95349,-0.49442 1.82233,-0.41525 2.98132,-0.73465c0.69794,-0.19235 1.47699,-0.87589 2.16934,-1.22269c0.74353,-0.37244 1.80423,-0.45038 2.564,-0.77765c0.86484,-0.37256 1.37347,-1.12253 1.94284,-1.77499c0.61877,-0.70911 1.41812,-1.17282 1.85849,-1.91135c0.379,-0.63562 0.56192,-1.49356 1.45584,-2.33234c0.49503,-0.46448 1.55209,-0.89725 2.14282,-1.22501c0.81342,-0.45132 1.62073,-1.05173 2.17917,-1.61017c0.55844,-0.55844 1.20209,-1.3454 1.57419,-2.17917c0.34543,-0.77399 0.20538,-1.742 0.94666,-2.63333c0.44257,-0.53217 1.39362,-0.53104 2.13568,-1.267c0.58386,-0.57907 0.59778,-1.69049 0.92682,-2.39966c0.353,-0.76083 1.1972,-1.54163 1.67749,-1.83865c0.68793,-0.42545 1.50589,-1.147 1.80002,-1.87201c0.40155,-0.98981 0.8793,-1.5437 1.392,-2.38934c0.46246,-0.76282 0.38773,-1.58081 0.58148,-2.65182c0.13483,-0.74527 0.84128,-1.51514 1.26251,-2.00949c0.67041,-0.78674 1.31516,-1.53656 1.55249,-2.28152c0.26324,-0.82626 0.117,-1.86154 0.20752,-2.65717c0.11496,-1.01065 0.50275,-1.80945 0.67999,-2.48532c0.25876,-0.98669 0.24869,-1.84683 0.45334,-2.716c0.2153,-0.91452 0.54019,-1.50333 1.01599,-2.43466c0.33179,-0.64944 0.81168,-1.67877 1.05301,-2.41217c0.23862,-0.72513 0.44144,-1.43481 0.64032,-2.70898c0.12143,-0.77798 0.17627,-1.73178 0.40533,-2.72684c0.12552,-0.54523 0.3967,-1.35641 0.59485,-2.3945c0.17096,-0.89563 0.43018,-1.93729 0.82648,-2.52151c0.41901,-0.61774 1.13455,-1.58362 1.25302,-2.39999c0.14374,-0.99048 -0.01459,-1.80908 0.12698,-2.60001c0.1824,-1.01892 0.57358,-1.57819 0.79318,-2.59982c0.16513,-0.76825 0.12149,-1.77866 0.12149,-2.59885c0,-0.87332 0,-1.74399 0,-2.70132c0,-0.73199 0,-1.83865 0,-2.66666c0,-0.83334 0,-1.81183 0,-2.63202c0,-0.9585 0,-1.854 0,-2.71732c0,-0.84802 0.07849,-1.80835 -0.16666,-2.65067c-0.25082,-0.86179 -0.47592,-1.75333 -0.94318,-2.52884c-0.43958,-0.72958 -1.35635,-0.96884 -1.78033,-1.95718c-0.28085,-0.65469 -0.64252,-1.50305 -0.98834,-2.44748c-0.27313,-0.74588 0.21085,-1.85852 -0.28815,-2.5665c-0.47906,-0.67969 -1.5863,-0.54282 -2.26401,-1.13467c-0.68146,-0.59512 -0.87057,-1.67569 -1.14401,-2.37332c-0.3645,-0.92993 -0.72928,-1.6871 -1.59198,-1.992c-0.67484,-0.23849 -1.44354,-0.64105 -2.07169,-1.48602c-0.47821,-0.64328 -0.62625,-1.64655 -1.18698,-2.32199c-0.52521,-0.63266 -1.01413,-1.3493 -1.57468,-2.02533c-0.42957,-0.51804 -0.90479,-1.48389 -1.00449,-2.3045c-0.1058,-0.87088 -0.55093,-1.67542 -0.82886,-2.52884c-0.27545,-0.84589 -0.79587,-1.63834 -1.04517,-2.48798c-0.24228,-0.82568 -0.12149,-1.79333 -0.12149,-2.67868c0,-0.75717 0.09702,-1.67996 -0.11432,-2.40451c-0.30634,-1.05023 -0.94659,-1.55603 -1.31769,-2.1955c-0.5491,-0.9462 -0.39493,-1.93408 -0.58884,-2.87915c-0.17963,-0.87549 -0.76288,-1.47763 -0.89383,-2.28885c-0.15686,-0.97159 -0.08533,-1.89865 -0.08533,-2.81067c0,-0.832 0,-1.74265 0,-2.59598c0,-0.94 0,-1.92551 0,-2.71069c0,-0.94 0,-1.63065 0,-2.6355c0,-1.02182 0,-1.72983 0,-2.47382c0,-1.20001 0,-1.97333 0,-2.77469c0,-1.01599 -0.01434,-2.06424 0.00449,-2.77798c0.01788,-0.6785 0.18237,-1.88455 0.44217,-2.66733c0.17667,-0.53235 0.87543,-1.64175 1.36801,-2.13467c0.61713,-0.61752 1.03094,-1.4158 1.16449,-2.15067c0.21127,-1.1626 0.47369,-1.82742 1.02084,-2.66667c0.42392,-0.65022 0.85944,-1.37717 1.64816,-2.08516c0.47549,-0.42683 1.14648,-1.28227 1.2905,-1.99884c0.1954,-0.9724 0.38126,-1.96388 0.86267,-2.54666c0.63141,-0.76434 1.03976,-1.53291 1.21951,-2.2235c0.25888,-0.99469 0.72955,-1.54785 1.27383,-2.37917c0.50613,-0.77306 0.54306,-1.66191 1.03867,-2.43333c0.51761,-0.80571 1.25226,-1.08156 1.55234,-2.17201c0.19894,-0.7229 -0.00452,-1.87196 0.18631,-2.64532c0.23145,-0.93797 0.7944,-1.60202 1.07733,-2.13467c0.54825,-1.03215 0.78369,-1.76247 0.84167,-2.72449c0.04956,-0.82205 0.00403,-1.80028 0.02985,-2.511c0.02658,-0.73141 0.12527,-1.81648 0.33182,-2.82651c0.13406,-0.65552 0.39877,-1.63173 0.52585,-2.67416c0.08936,-0.73305 0.10736,-1.49922 0.117,-2.283c0.01471,-1.19542 0.00449,-1.9955 0.00449,-2.7955c0,-0.79999 0,-1.59999 0,-2.7995c0,-0.78699 0,-1.53799 0,-2.54449c0,-1.00267 0,-1.85683 0,-2.82401c0,-0.73199 0,-1.89867 0,-2.69032c0,-0.95233 0.17575,-1.88992 -0.03601,-2.68034c-0.23026,-0.85944 -1.28531,-0.86133 -2.13864,-0.86133c-0.94269,0 -1.63519,0 -2.59335,0c-0.73199,0 -1.89865,0 -2.69034,0c-0.95233,0 -1.86298,0 -2.71631,0c-0.94,0 -1.82535,-0.0038 -2.58252,0c-0.89554,0.0045 -1.86493,0.05209 -2.48566,0.71434c-0.56702,0.60493 -0.84589,1.49181 -1.27802,2.30649c-0.35516,0.66954 -0.95734,1.66562 -1.3045,2.19383c-0.51343,0.7812 -1.18695,1.61769 -1.65381,2.28534c-0.56314,0.80534 -0.80042,1.52097 -1.15683,2.28534c-0.49643,1.06464 -0.83673,1.53825 -1.36401,2.19383c-0.50531,0.62823 -1.23642,1.62029 -1.58932,2.18483c-0.59854,0.9575 -1.0307,1.54233 -1.43152,2.35683c-0.39957,0.81194 -0.99448,1.48453 -1.49649,1.99518c-0.71771,0.73007 -1.48029,1.32637 -2.297,1.53667c-0.94968,0.24454 -1.7366,0.37605 -2.33234,0.834c-0.82019,0.63049 -0.89319,1.58723 -1.70667,2.228c-0.59744,0.47061 -1.4068,0.63571 -2.33234,1.18083c-0.84088,0.49527 -1.60461,0.76556 -2.29834,1.27249c-0.72888,0.53262 -1.51245,1.14833 -2.21149,1.48018c-0.85001,0.4035 -1.62079,0.88075 -2.47916,0.94116c-0.93774,0.06599 -1.82535,0.00876 -2.58252,0.01067c-0.89099,0.00226 -1.7045,0.38902 -2.40948,0.83333c-0.71896,0.45311 -1.71869,0.16667 -2.65869,0.16667c-0.69064,0 -1.65381,0 -2.57465,0c-0.90451,0 -1.92133,0 -2.60001,0c-0.97849,0 -1.79868,0 -2.75717,0c-0.89551,0 -1.75882,0 -2.72198,0c-0.82535,0 -1.84235,0 -2.54169,0c-0.97916,0 -1.79535,0.03795 -2.66449,-0.08533c-1.00687,-0.14281 -1.78879,-0.43306 -2.54532,-0.63068c-0.95819,-0.25029 -1.73734,-0.28333 -2.78369,-0.284c-0.80698,-0.00052 -1.38834,0 -2.58298,0c-0.86102,0 -1.63202,0 -2.75201,0c-0.98401,0 -1.65601,0 -2.39999,0c-1.10767,0 -1.94168,0 -2.92267,0c-0.87067,0 -1.57867,0 -2.56,0c-0.96268,0 -1.73599,0 -2.78235,0c-0.80698,0 -1.38834,0 -2.58432,0c-0.88049,0 -1.716,0 -2.71735,0c-0.90933,0 -1.85065,0 -2.64114,0c-0.85352,0 -1.44418,0 -2.64151,0c-0.88049,0 -1.716,0 -2.71735,0c-0.90933,0 -1.85065,0 -2.64114,0c-0.85352,0 -1.44418,0 -2.64017,0c-0.86102,0 -1.63202,0 -2.75201,0c-0.98401,0 -1.66248,-0.02783 -2.436,0.036c-1.05255,0.08684 -1.9808,0.41725 -2.66733,0.61134c-0.95822,0.2709 -1.78436,0.23958 -2.53751,0.46249c-1.08951,0.32246 -1.5885,1.0755 -2.10999,1.8685l-0.53583,0.575" id="svg_1" stroke-width="2" stroke="#000" fill="none"/>
  <path t="9249,9458,9458,9458,9475,9475,9475,9475,9475,9475,9492,9492,9492,9492,9492,9492,9493,9509,9509,9509,9509,9510,9510,9525,9525,9526,9526,9526,9526,9526,9526,9546,9546,9546,9546,9546,9546,9546,9568,9568,9568,9568,9568,9568,9569,9569,9592,9592,9592,9592,9592,9592,9592,9592,9594,9594,9594,9594,9594,9594,9594,9616,9617,9617,9617,9617,9617,9617,9639,9639,9639,9639,9639,9639,9639,9639,9659,9659,9659,9659,9659,9659,9660,9660,9679,9679,9679,9679,9679,9680,9680,9698,9699,9699,9699,9699,9699,9699,9699,9719,9719,9719,9719,9719,9719,9719,9738,9738,9738,9738,9738,9738,9738,9759,9759,9759,9759,9759,9759,9759,9759,9761,9761,9761,9761,9761,9761,9761,9762,9762,9762,9763,9763,9763,9763,9763,9785,9785,9785,9785,9785,9785,9805,9805,9805,9805,9805,9806,9806,9826,9827,9827,9827,9827,9827,9827,9827,9846,9847,9847,9847,9847,9847,9847,9847,9867,9867,9867,9867,9867,9867,9867,9887,9887,9887,9887,9887,9887,9908,9908,9908,9908,9909,9909,9927,9928,9928,9928,9928,9928,9928,9930,9930,9930,9930,9930,9931,9931,9932,9932,9932,9933,9933,9933,9933,9953,9953,9953,9953,9954,9954,9975,9975,9975,9976,9976,9976,9976,9978,9978,9978,9978,9978,9978,9998,9999,9999,9999,9999,9999,9999,10019,10020,10020,10020,10020,10020,10040,10040,10041,10041,10041,10043,10043,10043,10043,10043,10063,10064,10064,10064,10087,10087,10088,10088,10088,10110,10110,10111,10111,10131,10131,10131,10131,10150,10151,10172,10172,10172" d="m285,226c0.94284,0.448 0.99341,-0.53596 0.99866,-1.37866c0.00595,-0.95465 0.00134,-1.992 0.00134,-2.53568c0,-1.12733 0,-1.707 0,-2.29466c0,-1.791 0,-2.39084 0,-2.98967c0,-1.19066 0,-1.7805 0,-2.36533c0,-1.15067 0,-2.26933 0,-3.35333c0,-0.5345 0,-1.6035 0,-2.14401c0,-1.10799 0.00098,-2.27199 -0.00015,-2.88165c-0.00232,-1.27135 -0.00815,-1.92905 -0.02069,-2.59868c-0.01276,-0.6797 -0.02792,-1.36772 -0.06448,-2.06099c-0.11066,-2.09866 -0.19653,-2.79622 -0.26733,-3.49284c-0.07053,-0.69405 -0.14801,-1.38359 -0.22202,-2.0685c-0.07333,-0.67876 -0.26138,-2.66914 -0.30432,-3.31467c-0.04236,-0.63716 -0.06433,-1.26961 -0.16266,-2.52133c-0.04916,-0.62589 -0.10324,-1.25613 -0.21301,-1.884c-0.34106,-1.95067 -0.5929,-2.60271 -0.80334,-3.27316c-0.2135,-0.68025 -0.44528,-1.36259 -0.66599,-2.0535c-0.22131,-0.69278 -0.50061,-1.37433 -0.91168,-3.48917c-0.13498,-0.6944 -0.2041,-1.39503 -0.267,-2.08951c-0.06241,-0.68925 -0.09631,-1.37495 -0.17865,-2.72533c-0.08044,-1.31897 -0.13562,-1.96445 -0.20267,-2.60133c-0.13263,-1.25961 -0.2171,-1.88387 -0.29068,-2.50934c-0.07376,-0.62721 -0.2634,-2.54103 -0.30383,-3.19617c-0.04095,-0.66356 -0.06863,-1.33554 -0.08548,-2.0145c-0.03406,-1.37448 -0.03278,-2.0685 -0.03467,-2.76534c-0.00381,-1.39867 0.00034,-2.09851 -0.004,-2.79733c-0.00433,-0.69685 -0.03284,-2.08081 -0.06934,-2.76534c-0.03622,-0.67918 -0.06036,-1.35596 -0.26135,-2.66933c-0.19724,-1.28896 -0.36987,-1.91449 -0.51733,-2.54134c-0.14722,-0.62584 -0.45453,-1.87581 -0.58133,-2.50934c-0.25595,-1.27859 -0.3367,-1.93616 -0.39734,-2.59999c-0.12234,-1.33939 -0.13297,-2.0159 -0.14932,-2.69067c-0.0163,-0.67258 -0.01999,-1.34134 -0.02133,-3.304c-0.00043,-0.63733 0,-1.26866 0,-1.896c0,-1.25067 0,-1.87801 0,-2.50934c0,-1.28267 0,-2.60133 0,-3.27316c0,-0.67883 0,-1.36366 0,-2.0535c0,-0.69383 0,-2.78934 0,-3.48917c0,-0.69883 0,-1.39566 0,-2.08949c0,-0.68983 0,-2.0535 0,-2.72533c0,-1.31867 0.00162,-1.96401 -0.00134,-2.60133c-0.00586,-1.25869 -0.01483,-1.88413 -0.03467,-2.50934c-0.03992,-1.259 -0.12701,-2.54164 -0.18533,-3.19583c-0.05899,-0.66183 -0.12964,-1.32718 -0.27866,-2.658c-0.07385,-0.65959 -0.15314,-1.31041 -0.216,-1.9515c-0.17902,-1.82513 -0.20349,-2.40112 -0.22684,-2.964c-0.04581,-1.10498 -0.05051,-1.65598 -0.05582,-2.77333c-0.00555,-1.16532 0.00232,-1.77502 -0.00583,-3.04633c-0.00421,-0.65768 -0.01349,-1.3274 -0.03152,-2.007c-0.01825,-0.68774 -0.12567,-2.77908 -0.18567,-3.4785c-0.06,-0.69927 -0.1348,-1.39632 -0.22498,-2.08949c-0.08984,-0.69053 -0.17749,-1.37887 -0.44,-2.72533c-0.25797,-1.32316 -0.43188,-1.96467 -0.59601,-2.60133c-0.1629,-0.632 -0.50049,-1.883 -0.65601,-2.50934c-0.15552,-0.62635 -0.34824,-1.25003 -0.61832,-3.19583c-0.09149,-0.65913 -0.13461,-1.32664 -0.17102,-1.9935c-0.03625,-0.6642 -0.06546,-1.97548 -0.06934,-2.616c-0.00745,-1.23598 -0.00134,-2.39869 -0.00714,-2.955c-0.0112,-1.07274 -0.01495,-1.59394 -0.08084,-2.61166c-0.065,-1.00386 -0.1969,-2.00558 -0.26733,-2.51167c-0.14377,-1.03316 -0.23706,-1.56116 -0.36334,-2.66167c-0.13324,-1.16095 -0.17395,-1.77146 -0.22684,-3.03466c-0.02701,-0.64511 -0.03903,-1.29463 -0.04648,-1.944c-0.01471,-1.28262 -0.01068,-2.51733 -0.01068,-3.108c0,-1.13734 0,-1.692 0,-2.79333c0,-0.55466 0,-1.11733 0,-2.892c0,-0.62534 0,-1.26267 0,-2.55733c0,-0.64933 0,-1.29467 0,-1.932c0,-1.82533 0,-2.4 0,-2.96267c0,-1.10533 0,-1.656 0,-2.77333c0,-1.16533 0,-1.7745 0,-3.03283c0,-0.63917 0,-1.27834 0,-1.9125c0,-1.23333 0,-2.38667 0,-3.43467c0,-0.494 0,-1.452 0,-2.41c0,-0.494 0,-2.10617 0,-2.69533c0,-0.60917 0,-1.8675 0,-2.50667c0,-0.63917 0.00183,-1.27333 -0.00015,-3.097c-0.00061,-0.57233 -0.00629,-1.6711 -0.02069,-2.20133c-0.02805,-1.03292 -0.03381,-1.54209 -0.2005,-3.0415c-0.11096,-0.99814 -0.20468,-1.48939 -0.35333,-2.46417c-0.073,-0.47878 -0.26947,-1.86839 -0.34131,-2.75067c-0.06909,-0.84855 -0.09259,-1.67606 -0.16803,-2.484c-0.11243,-1.20392 -0.26865,-2.00133 -0.41599,-2.80133c-0.14734,-0.8 -0.34924,-1.99854 -0.41467,-2.8c-0.06522,-0.79886 -0.07877,-1.59996 -0.08398,-2.4c-0.00784,-1.19981 0.0105,-1.99665 -0.043,-2.77917c-0.05231,-0.76533 -0.25168,-1.86943 -0.52768,-2.53283c-0.39557,-0.95076 -0.77344,-1.47572 -1.409,-2.34533c-0.4733,-0.64762 -0.90018,-1.68533 -0.98566,-2.39333l-0.03152,-0.744" id="svg_2" stroke-width="2" stroke="#000" fill="none"/>
  <path t="23817,24041,24042,24042,24071,24106,24106,24106,24106,24108,24108,24108,24109,24109,24130,24130,24158,24158,24158,24158,24160,24180,24180,24180,24198,24198,24215,24215,24215,24236,24236,24236,24255,24255,24274,24276,24276,24276,24295,24295,24313,24313,24313,24331,24331,24331,24349,24349,24366,24367,24367,24386,24386,24386,24429,24431,24432,24433,24434,24434,24436,24436,24436,24454,24455,24455,24480,24499,24500,24500,24522,24522,24544,24544,24546,24548,24566,24566,24566,24584,24587,24606,24625,24625,24625,24643,24644,24661,24662,24680,24680,24698,24698,24698,24716,24734,24735,24753,24753,24770,24771,24788,24789,24808,24826,24826,24828,24828,24829,24829,24847,24847,24876,24876,24877,24896,24896,24896,24917,24917,24937,24959,24959,24959,24961,24961,24982,24982,25002" d="m314,307c-6.59216,-1.75684 -7.65393,-2.20874 -8.42267,-1.91199c-0.83154,0.32101 -1.23538,1.46011 -1.63983,1.92181c-0.68729,0.78461 -1.21509,1.27332 -1.79434,2.06866c-0.63089,0.86624 -0.93634,1.50485 -1.086,2.52151c-0.11676,0.79318 0.01941,1.81174 -0.12915,2.63599c-0.17148,0.95132 -0.62933,1.71442 -0.92801,2.24316c-0.42633,0.75473 -0.91788,1.87521 -1.16666,2.85419c-0.17172,0.67578 -0.45496,1.40402 -0.66669,2.33331c-0.18796,0.82486 -0.16666,1.87634 -0.16666,2.60535c0,0.83701 0,2.02765 0,2.61899c0,0.83701 -0.03134,1.96658 0,2.80002c0.03128,0.8316 0.65216,1.64551 1.28665,2.13434c0.69971,0.53906 1.6424,1.08292 2.17169,1.6955c0.63846,0.73886 0.80746,1.50296 1.17764,2.22849c0.48166,0.944 0.99225,1.48199 1.76852,1.94168c0.76959,0.45572 1.57138,0.86545 2.59549,1.14233c0.78607,0.21255 1.6315,0.27811 2.40134,0.73465c0.64963,0.38525 1.2457,0.97879 2.284,1.26135c0.81573,0.22198 1.716,0.16931 2.6145,0.17065c0.8895,0.00131 1.74301,0 2.77884,0c0.92133,0 1.60532,0 2.604,0c0.79648,0 1.54797,0 2.66666,0c0.98401,0 1.90134,0 2.64532,0c1.03601,0 1.75351,0 2.65802,0c0.86331,0 1.8504,0.18945 2.758,-0.02133c0.97745,-0.22702 1.42279,-0.83154 2.10532,-1.496c0.60596,-0.5899 1.38446,-1.19861 1.87335,-1.90399c0.57779,-0.83371 0.49411,-1.59735 0.672,-2.328c0.27716,-1.1384 1.08542,-1.6131 1.60532,-2.41733c0.3847,-0.59512 0.33334,-1.66669 0.33334,-2.49469c0,-0.88132 0,-1.83865 0,-2.57065c0,-0.95367 0,-1.97067 0,-2.73868c0,-1.03467 0,-1.77866 0,-2.69598c0,-0.948 0.00433,-1.81735 0,-2.68066c-0.00452,-0.89554 -0.46954,-1.71939 -1,-2.17352c-0.70508,-0.60364 -0.82428,-1.53116 -1.2215,-2.45764c-0.2854,-0.66568 -1.06949,-1.34698 -1.59283,-1.77869c-0.92599,-0.76382 -1.43134,-1.10718 -2.29468,-1.53299c-0.86749,-0.42786 -1.78281,-0.59464 -2.61899,-0.72452c-0.93961,-0.14594 -1.68326,-0.58371 -2.47333,-0.90131c-0.92538,-0.37201 -1.61627,-0.56345 -2.39999,-0.80002c-0.98044,-0.29596 -1.79868,-0.27951 -2.79736,-0.284l-0.76532,0l-1.07434,-0.01349" id="svg_3" stroke-width="2" stroke="#000" fill="none"/>
  <path t="25800,25958,25958,25958,25958,25975,25976,25977,25977,25977,25992,25992,25992,25992,25992,26010,26011,26011,26011,26011,26024,26024,26024,26024,26024,26024,26042,26043,26043,26043,26043,26043,26060,26060,26060,26060,26060,26060,26075,26075,26076,26076,26076,26093,26093,26093,26094,26094,26108,26108,26109,26109,26109,26125,26125,26125,26125,26126,26126,26142,26143,26143,26143,26143,26158,26158,26159,26159,26175,26175,26176,26176,26193,26193,26193,26194,26194,26208,26208,26209,26210,26225,26225,26225,26225,26225,26242,26243,26243,26258,26258,26259,26259,26275,26275,26276,26276,26276,26292,26292,26292,26293,26293,26307,26307,26307,26308,26325,26325,26325,26326,26342,26343,26343,26343,26358,26358,26359,26359,26359,26376,26377,26377,26377,26393,26393,26394,26394,26408,26409,26409,26409,26409,26425,26426,26426,26426,26427,26444,26444,26444,26444,26444,26458,26459,26459,26460,26460,26475,26475,26476,26476,26476,26493,26493,26494,26494,26494,26510,26510,26510,26510,26510,26526,26526,26527,26527,26542,26542,26543,26543,26543,26543,26558,26558,26559,26559,26559,26560,26574,26574,26574,26574,26575,26607,26608,26608,26608,26608,26621,26622,26622,26622,26622,26622,26635,26635,26635,26636,26636,26650,26650,26650,26650,26651,26651,26663,26664,26664,26664,26664,26677,26677,26677,26677,26678,26691,26691,26691,26692,26692,26709,26709,26709,26709,26709,26724,26725,26725,26726,26726,26743,26744,26744,26744,26744,26758,26758,26758,26758,26775,26775,26776,26776,26776,26793,26794,26794,26794,26808,26808,26809,26809,26809,26825,26826,26826" d="m315,232c-0.91467,-2.972 -0.97229,-3.68243 -0.98932,-4.45734c-0.01825,-0.83051 -0.01068,-2.164 -0.01068,-3.09534c0,-0.47266 0,-1.422 0,-2.36333c0,-0.91733 0,-1.8 0,-2.65866c0,-0.85068 0,-1.70934 0,-3.04684c0,-0.46382 0,-1.41449 0,-2.38916c0,-0.49384 0,-1.98933 0,-2.4895c0,-1.00433 0,-2.02066 0,-2.53583c0,-1.04933 0,-2.13068 0,-3.248c0,-0.56866 0,-1.14134 0,-2.29066c0,-0.57268 0,-2.25867 0,-2.80367c0,-1.06001 0,-1.57501 0,-2.57501c0,-0.485 0,-1.87999 0,-2.76266c0,-0.85866 0,-1.70934 0,-2.56799c0,-0.88268 0,-1.8 0,-2.74133c0,-0.47467 0,-1.422 0,-2.808c0,-0.884 0,-1.752 0,-2.1875c0,-0.88901 0,-2.3125 0,-2.82184c0,-1.06267 0,-1.608 0,-2.70667c0,-0.54533 0,-2.11734 0,-2.60767c0,-0.92867 0,-1.80133 0,-2.634c0,-1.209 0,-2.00633 0,-2.78766c0,-0.74934 0,-2.08801 0,-2.925c0,-0.819 0,-1.435 0,-2.58167c0,-0.92534 0,-1.416 0,-2.41335c0,-0.96533 0,-2.21599 0,-2.89066c0,-0.912 0,-1.54668 0,-2.696c0,-0.92534 0,-1.416 0,-2.41335c0,-0.96533 0,-2.21567 0,-2.88167c0,-0.849 0,-1.95299 0,-2.59033c0,-0.70132 0,-1.83833 0,-3.02933c0,-0.80133 0,-1.61067 0,-2.02083c0,-0.83633 0,-2.14584 0,-3.06184c0,-0.93199 0,-1.3965 0,-2.3075c0,-1.2765 0,-2.0405 0,-3.089c0,-0.66899 0,-1.6875 0,-2.40483c0,-1.116 0,-1.86333 0,-2.94933c0,-0.68401 0,-1.6875 0,-2.37651c0,-1.1235 0,-1.95816 0,-2.84083c0,-0.89867 0,-1.344 0,-2.616c0,-0.764 0.00003,-1.8125 0,-2.4815c-0.00009,-1.37334 0.005,-2.10926 -0.02084,-2.87267c-0.02655,-0.78405 -0.13483,-1.98085 -0.26315,-2.78049c-0.13019,-0.8112 -0.29694,-1.63363 -0.36334,-2.05584c-0.20544,-1.30658 -0.26877,-2.22692 -0.33798,-3.16816c-0.03491,-0.47472 -0.0553,-1.43495 -0.34802,-2.80801c-0.19016,-0.89199 -0.36877,-1.31063 -0.66666,-2.14583c-0.29156,-0.81746 -0.69394,-2.01572 -0.83066,-2.82084c-0.13513,-0.79586 -0.17194,-1.60112 -0.25201,-2.39999c-0.12051,-1.20213 -0.2717,-2.0042 -0.41733,-2.82084c-0.14908,-0.83602 -0.25085,-1.26072 -0.37851,-2.60049c-0.08856,-0.92934 -0.10336,-1.87862 -0.11081,-2.35334c-0.01474,-0.94126 -0.01068,-2.30383 -0.01068,-3.16816c0,-0.42117 0,-1.24651 0,-2.05584c0,-1.2015 0,-2.00583 0,-2.82217c0,-0.83633 0,-2.14583 0,-3.06583c0,-0.475 0,-1.45499 0,-2.475c0,-0.525 0,-2.1595 0,-2.721c0,-0.5655 0,-1.6965 0,-2.256c0,-1.092 0,-2.128 0,-3.092c0,-0.908 0,-1.784 0,-2.2175c0,-1.3185 0.00394,-2.23724 -0.01068,-3.18784c-0.00748,-0.48488 -0.01965,-1.4707 -0.15598,-2.964c-0.04572,-0.50073 -0.18454,-1.49572 -0.25867,-1.98933c-0.14645,-0.97511 -0.30692,-1.9234 -0.40802,-2.844c-0.09692,-0.88243 -0.13879,-1.7518 -0.15598,-2.628c-0.01779,-0.90788 -0.01068,-1.872 -0.01068,-2.90667c0,-0.53733 0,-1.632 0,-2.18133c0,-1.08267 0,-2.11734 0,-3.08c0,-0.89867 0,-1.74933 0,-2.568c0,-1.20283 0,-2.00716 0,-2.41333c0,-0.82533 0,-1.67466 0,-3.01067c0,-0.93133 0,-1.404 0,-2.35333c0,-0.94133 0,-2.304 0,-2.74133c0,-0.85867 0,-1.70933 0,-2.568c0,-1.33733 0,-2.26867 0,-2.74133c0,-0.94933 0,-1.89067 0,-2.808c0,-0.88133 0,-1.73067 0,-2.556c0,-0.80933 0,-2.01083 0,-2.81517c0,-0.81633 0,-1.65267 0,-2.96217c0,-0.4545 0,-1.3815 0,-2.3125c0,-0.911 0,-2.1875 0,-2.9515c0,-0.708 0,-1.384 0,-2.736c0,-0.71733 0,-1.45867 0,-2.208c0,-0.74133 0,-2.13867 0,-2.77867l0,-0.885" id="svg_4" stroke-width="2" stroke="#000" fill="none"/>
  <path t="28199,28291,28291,28291,28291,28291,28291,28312,28312,28312,28312,28312,28312,28338,28338,28338,28338,28338,28338,28361,28361,28361,28361,28361,28362,28364,28364,28364,28364,28364,28389,28389,28389,28389,28389,28389,28413,28413,28413,28413,28413,28436,28436,28436,28436,28436,28459,28459,28459,28459,28459,28459,28482,28482,28482,28482,28482,28482,28482,28484,28484,28484,28484,28484,28484,28485,28485,28485,28485,28485,28507,28507,28507,28508,28508,28529,28529,28529,28529,28529,28529,28550,28550,28550,28550,28550,28550,28571,28571,28571,28571,28571,28572,28592,28592,28592,28592,28593,28593,28594,28594,28594,28594,28594,28594,28594,28595,28595,28596,28596,28596,28596,28596,28596,28617,28617,28617,28617,28618,28638,28638,28639,28639,28639,28639,28639,28660,28661,28661,28661,28661,28661,28682,28682,28682,28682,28682,28682,28707,28707,28707,28707,28707,28732,28732,28732,28733,28733,28734,28734,28734,28734,28734,28734,28736,28736,28736,28736,28736,28736,28775,28776,28776,28776,28776,28776,28778,28778,28778,28778,28778,28779,28803,28803,28804,28804,28804,28804,28806,28806,28806,28806,28806,28807,28832,28832,28833,28833,28833,28833,28834,28834,28835,28835,28835,28835,28859,28860,28860,28860,28860,28860,28862,28862,28862,28862,28862,28862,28888,28889,28889,28889,28889,28889,28889,28914,28914,28915,28915,28915,28939,28939,28939,28940,28940,28940,28965,28965,28965,28965,28965,28965,28967,28967,28967,28967,28967,28968,28969,28969,28969,28970,28970,28970,28994,28995,28995,28995,28995,28995,28995,28996,28997,28997,28997,28998,28998,28998,29022,29023,29023,29023,29023,29023,29023,29047,29047,29047,29047,29048,29048,29071,29071,29071,29072,29072,29072,29096,29097,29097,29097,29097,29097,29097,29098,29099,29099,29099,29100,29100,29100,29102,29102,29102,29102,29102,29103,29128,29128,29128,29128,29128,29129,29129,29130,29131,29131,29131,29131,29131,29159,29159,29159,29159,29159,29160,29161,29161,29162,29162,29162,29162,29189,29190,29190,29190,29190,29190,29217,29217,29217,29217,29218,29218,29218,29244,29245,29245,29245,29245,29274,29274,29275,29275,29275,29275,29277,29277,29278,29278,29278,29278,29281,29282,29282,29282,29282,29285,29285,29285,29286,29286,29314,29314,29314,29315,29315,29316,29317,29317,29317,29346,29347,29347,29347,29349,29350,29350,29382,29383,29383,29385,29385,29415,29415,29415,29456,29459,29460,29462" d="m307,358c1.75699,-8.13568 1.8385,-8.74454 1.88568,-9.33301c0.09015,-1.12408 0.10101,-1.67087 0.11166,-2.74832c0.01074,-1.08527 0.00266,-2.20267 0.00266,-2.77133c0,-1.14734 0,-1.72202 0,-2.29468c0,-1.686 0,-2.23117 0,-3.2955c0,-0.52115 0,-1.54648 0,-2.05267c0,-1.50449 0,-2.50314 0,-3c0,-0.98364 0.00006,-1.94733 0,-2.41916c-0.00018,-1.36417 0.0101,-2.23807 -0.04166,-3.10617c-0.0531,-0.89035 -0.09103,-1.35599 -0.401,-2.82184c-0.11172,-0.52838 -0.40869,-1.60779 -0.55734,-2.15732c-0.29602,-1.0943 -0.47491,-1.62347 -0.75717,-3.15717c-0.08673,-0.47125 -0.18515,-1.3812 -0.25751,-2.25751c-0.07162,-0.86768 -0.13882,-1.75378 -0.27066,-2.67065c-0.13702,-0.95276 -0.23035,-1.43649 -0.41916,-2.41916c-0.28766,-1.49704 -0.3999,-1.99478 -0.591,-3c-0.09616,-0.50577 -0.27692,-1.53033 -0.34732,-2.05267c-0.21649,-1.6062 -0.24695,-2.1636 -0.30002,-3.2955c-0.02686,-0.57242 -0.04132,-1.14728 -0.05267,-2.29468c-0.00562,-0.56863 -0.00122,-2.2312 -0.00714,-2.76733c-0.0116,-1.04941 -0.01862,-1.56613 -0.11166,-2.58084c-0.04623,-0.50418 -0.31427,-2.00815 -0.591,-3c-0.13834,-0.49582 -0.452,-1.46613 -0.58936,-1.94733c-0.39508,-1.38412 -0.54895,-2.27164 -0.64398,-3.13184c-0.04691,-0.42465 -0.08527,-1.2804 -0.228,-2.59198c-0.10034,-0.92203 -0.18884,-1.39459 -0.33334,-2.375c-0.1503,-1.01959 -0.24295,-1.54254 -0.37866,-3.17969c-0.04657,-0.56195 -0.0697,-1.13126 -0.12134,-2.27866c-0.02585,-0.57465 -0.06943,-1.71719 -0.16666,-2.83334c-0.04755,-0.54584 -0.18442,-1.60971 -0.25867,-2.13065c-0.14621,-1.02579 -0.30859,-2.03275 -0.40802,-3.03601c-0.09921,-1.00104 -0.11777,-1.50876 -0.14581,-2.54166c-0.0144,-0.53024 -0.02017,-1.629 -0.02084,-2.79169c-0.00037,-0.60965 0,-1.88098 0,-2.53867c0,-0.66965 0,-1.34933 0,-2.03699c0,-2.091 0,-2.7905 0,-3.487c0,-0.69051 0,-1.37201 0,-2.0415c0,-1.291 0.00146,-1.90649 0,-3.0625c-0.00134,-1.04666 -0.01315,-2.01376 -0.04166,-2.47917c-0.05649,-0.92279 -0.28427,-2.3558 -0.401,-2.86383c-0.24701,-1.07504 -0.41061,-1.62833 -0.55734,-2.19867c-0.29999,-1.16599 -0.46655,-1.75475 -0.66666,-2.95833c-0.19843,-1.19345 -0.22852,-1.79512 -0.272,-2.38933c-0.08591,-1.17398 -0.08414,-1.75548 -0.228,-3.444c-0.04651,-0.54576 -0.18393,-1.60532 -0.25867,-2.12001c-0.14529,-1.0006 -0.25043,-1.48151 -0.40802,-2.87999c-0.09927,-0.88084 -0.13715,-1.74117 -0.15598,-2.59201c-0.00946,-0.42726 -0.01068,-1.74133 -0.01068,-2.65999c0,-0.95067 0,-1.4355 0,-2.41917c0,-1.4955 0,-1.99567 0,-3c0,-0.50616 0,-1.53149 0,-2.05266c0,-1.60951 0,-2.164 0,-3.291c0,-0.56651 0,-1.69051 0,-2.242c0,-1.57651 0,-2.06717 0,-3.0045c0,-0.90533 0,-1.356 0,-2.27333c0,-1.47501 0,-2.00267 0,-3.104c0,-0.56967 0,-1.14934 0,-2.33067c0,-1.19733 0,-1.797 0,-2.98833c0,-0.58766 0,-1.737 0,-2.29466c0,-1.58101 0,-2.07167 0,-3.009c0,-0.90533 0,-1.356 0,-2.27333c0,-1.47501 0,-2.00267 0,-3.104c0,-0.56967 0,-1.14934 0,-2.33067c0,-1.19733 0,-1.797 0,-2.98833c0,-0.58766 0,-1.737 0,-2.29466c0,-1.58101 0,-2.07167 0,-3.009c0,-0.90533 0,-1.356 0,-2.27333c0,-1.47501 0,-2.00267 0,-3.104c0,-0.56967 0,-1.14934 0,-2.33067c0,-1.19733 0,-1.79716 0,-2.99283c0,-0.59383 0,-1.76849 0,-2.34734c0,-0.57182 0,-2.23566 0,-2.77184c0,-1.04933 0,-1.5645 0,-2.58083c0,-1.5045 0,-2.0045 0,-3.0045c0,-0.5 0,-1.5 0,-2.5c0,-1 0.00113,-2.00134 -0.00449,-2.5045c-0.01135,-1.01639 -0.01678,-1.53229 -0.08084,-2.58083c-0.06613,-1.08238 -0.19653,-2.19893 -0.26733,-2.76733c-0.14301,-1.14789 -0.22668,-1.72142 -0.29468,-2.29468c-0.19977,-1.68442 -0.23431,-2.23131 -0.3045,-3.30449c-0.03488,-0.53342 -0.09833,-1.61061 -0.15799,-2.158c-0.18832,-1.72769 -0.32831,-2.33376 -0.45816,-2.95816c-0.13272,-0.63832 -0.28558,-1.282 -0.58133,-2.58134c-0.14679,-0.645 -0.31305,-1.27728 -0.51733,-2.51733c-0.19125,-1.16099 -0.23492,-1.72707 -0.29169,-2.83333c-0.02823,-0.55032 -0.04019,-1.668 -0.04166,-2.83334c-0.00076,-0.60933 -0.00253,-1.87202 -0.01068,-2.51733c-0.00821,-0.64936 -0.01706,-1.29899 -0.04648,-1.944c-0.08548,-1.87325 -0.15439,-2.46352 -0.2955,-3.591c-0.06796,-0.54295 -0.22668,-1.59236 -0.29468,-2.10533c-0.19977,-1.50724 -0.23871,-2.00887 -0.29999,-3.01801c-0.0311,-0.51212 -0.0737,-1.56323 -0.10535,-2.10533c-0.10037,-1.71985 -0.16635,-2.32857 -0.23132,-2.95367c-0.06628,-0.63758 -0.21677,-1.93191 -0.29068,-2.58133c-0.07343,-0.64526 -0.16141,-1.28099 -0.30417,-3.10783c-0.04477,-0.57304 -0.10178,-1.68183 -0.142,-2.222c-0.07968,-1.06973 -0.10477,-1.6114 -0.42181,-3.24233c-0.11023,-0.56699 -0.2627,-1.13567 -0.55734,-2.29934c-0.14935,-0.58982 -0.34402,-1.17414 -0.66666,-2.97916c-0.10672,-0.59713 -0.18134,-1.19727 -0.26135,-2.38934c-0.03955,-0.58928 -0.05862,-1.17457 -0.06934,-2.32533c-0.01041,-1.11862 -0.00266,-2.20133 -0.00266,-2.73267c0,-1.05267 0,-1.578 0,-2.63667c0,-1.08266 0,-2.2 0,-2.76867c0,-0.57266 0,-1.722 0,-2.29466c0,-1.686 0.004,-2.23119 -0.00449,-3.2955c-0.00415,-0.52119 -0.02371,-1.54689 -0.05267,-2.05267c-0.08624,-1.50601 -0.15717,-2.00561 -0.2955,-3.009c-0.14026,-1.01733 -0.23557,-1.52976 -0.36334,-2.58083c-0.13126,-1.07973 -0.17377,-1.63541 -0.22684,-2.76733c-0.02686,-0.57243 -0.048,-1.72198 -0.05267,-2.29467c-0.00464,-0.56865 -0.00284,-2.23117 -0.00583,-2.76733c-0.00583,-1.04936 -0.02686,-2.07505 -0.05582,-2.58083c-0.08624,-1.50601 -0.15787,-2.00552 -0.2955,-3.009c-0.06949,-0.50661 -0.22815,-1.53068 -0.29468,-2.05267c-0.2049,-1.60721 -0.24228,-2.16342 -0.2955,-3.291c-0.02673,-0.56626 -0.0488,-1.69048 -0.05267,-2.242c-0.01111,-1.57647 -0.00449,-2.06683 -0.00449,-2.9955c0,-0.87267 0,-1.70533 0,-2.91433c0,-0.80133 0,-1.61067 0,-2.436c0,-0.84933 0.00784,-1.73072 -0.00266,-2.64667c-0.01068,-0.93213 -0.05212,-1.85795 -0.11166,-2.3075c-0.17007,-1.28394 -0.4415,-2.04548 -0.73636,-2.7485c-0.42654,-1.017 -0.84814,-2.02144 -0.97867,-2.744c-0.13129,-0.72686 -0.15997,-1.45587 -0.17065,-2.784c-0.00662,-0.82347 0,-1.548 0,-2.5c0,-0.7815 0.0195,-1.82372 -0.00015,-2.69067c-0.01801,-0.79394 -0.28384,-1.91067 -0.49985,-2.64267c-0.216,-0.732 -0.44284,-1.68567 -0.5,-2.60017l0,-0.78517l0,-0.94" id="svg_5" stroke-width="2" stroke="#000" fill="none"/>
  <path t="29899,30023,30024,30024,30024,30024,30024,30024,30041,30041,30041,30041,30041,30041,30041,30041,30058,30058,30058,30058,30058,30058,30058,30058,30058,30074,30075,30075,30075,30075,30075,30076,30076,30076,30090,30091,30091,30091,30091,30091,30091,30091,30091,30106,30106,30106,30106,30106,30107,30107,30107,30107,30124,30124,30124,30124,30124,30125,30125,30125,30125,30141,30141,30141,30142,30142,30142,30142,30142,30143,30158,30158,30158,30158,30159,30159,30159,30159,30159,30173,30173,30173,30173,30173,30173,30173,30173,30174,30191,30191,30191,30192,30192,30192,30192,30193,30193,30206,30206,30206,30206,30206,30206,30207,30207,30207,30224,30224,30224,30225,30225,30225,30225,30225,30226,30240,30240,30240,30240,30241,30241,30241,30241,30241,30257,30257,30257,30257,30257,30258,30258,30258,30258,30278,30278,30278,30278,30278,30278,30278,30300,30300,30300,30300,30300,30301,30301,30321,30321,30321,30322,30322,30322,30322,30342,30342,30342,30342,30342,30342,30343,30360,30360,30360,30360,30360,30360,30361,30361,30390,30390,30391,30391,30391,30391,30391,30391,30419,30420,30420,30420,30420,30420,30420,30422,30422,30422,30422,30422,30422,30422,30423,30424,30424,30424,30424,30425,30425,30425,30425,30427,30427,30428,30428,30428,30428,30428,30428,30458,30458,30458,30459,30459,30459,30459,30459,30461,30461,30461,30461,30462,30462,30462,30503,30503,30504,30504,30504,30504,30506,30506,30507,30507,30507,30507,30507,30507,30509,30509,30509,30510,30510,30510,30510,30541,30542,30542,30542,30542,30542,30544,30544,30545,30545,30545,30545,30545,30576,30576,30577,30577,30577,30577,30577,30579,30579,30579,30579,30580,30580,30613,30613,30613,30613,30613,30614,30614,30614,30616,30616,30616,30616,30617,30617,30617,30648,30649,30649,30649,30649,30649,30649,30651,30651,30652,30652,30652,30652,30684,30684,30685,30685,30685,30685,30685,30685,30687,30687,30688,30688,30688,30688,30688,30719,30719,30719,30719,30720,30720,30720,30722,30722,30723,30723,30723,30723,30723,30724,30755,30755,30755,30756,30756,30756,30758,30758,30759,30759,30759,30759,30791,30791,30792,30792,30792,30792,30793,30825,30825,30826,30826,30826,30826,30827,30827,30827,30829,30829,30829,30830,30830,30862,30862,30862,30864,30865,30896,30896" d="m325,349c-2.5,-12.5 -2.64359,-13.40582 -2.74399,-14.23468c-0.09192,-0.75897 -0.19913,-2.11923 -0.224,-2.74133c-0.0239,-0.59763 -0.03201,-2.35733 -0.03201,-2.96716c0,-0.62881 0,-1.27567 0,-2.61932c0,-0.69482 0,-1.40366 0,-2.12549c0,-1.47867 0.00079,-2.23352 -0.00134,-2.99734c-0.00217,-0.77182 -0.0069,-1.55069 -0.0195,-2.33551c-0.0127,-0.78986 -0.03015,-1.58389 -0.06448,-2.38049c-0.06894,-1.59924 -0.13303,-2.3989 -0.19867,-3.19867c-0.06567,-0.80023 -0.14133,-1.60001 -0.216,-2.39999c-0.07468,-0.79999 -0.15231,-1.59961 -0.216,-2.39999c-0.12726,-1.59924 -0.16653,-2.39999 -0.19867,-3.20132c-0.0322,-0.80304 -0.05185,-1.60931 -0.06448,-2.41953c-0.01273,-0.81512 -0.01761,-1.63632 -0.0195,-2.46448c-0.00388,-1.68134 0.00034,-2.53568 -0.004,-3.39603c-0.00433,-0.8623 -0.01349,-1.72281 -0.039,-2.577c-0.02521,-0.84451 -0.05844,-1.67575 -0.129,-2.487c-0.13544,-1.55728 -0.26407,-2.29248 -0.39868,-3.00531c-0.13254,-0.7019 -0.29074,-1.39496 -0.45151,-2.091c-0.16321,-0.70663 -0.33975,-1.42877 -0.49649,-2.181c-0.33481,-1.60687 -0.46744,-2.48358 -0.59732,-3.40134c-0.1347,-0.95193 -0.25262,-1.9343 -0.3645,-2.93851c-0.11346,-1.01846 -0.21698,-2.04559 -0.31952,-3.07349c-0.20258,-2.03055 -0.30124,-3.02084 -0.39999,-3.992c-0.09692,-0.95319 -0.19244,-1.88916 -0.28049,-2.80951c-0.08658,-0.905 -0.16928,-1.7959 -0.2355,-2.6745c-0.12967,-1.72055 -0.16599,-2.56641 -0.20267,-3.40268c-0.03632,-0.82806 -0.0654,-1.64944 -0.10352,-2.46448c-0.0379,-0.8103 -0.0777,-1.61725 -0.1485,-2.41953c-0.14148,-1.60347 -0.2673,-2.40211 -0.39865,-3.19998c-0.13135,-0.79784 -0.28223,-1.59076 -0.43201,-2.38051c-0.14886,-0.78493 -0.30347,-1.56215 -0.43201,-2.33549c-0.25192,-1.51588 -0.33185,-2.26335 -0.39865,-3.00133c-0.06613,-0.73077 -0.11047,-1.45854 -0.1485,-2.18401c-0.03799,-0.7252 -0.06555,-1.45284 -0.10352,-2.18401c-0.077,-1.48305 -0.13596,-2.23756 -0.20132,-3c-0.06592,-0.76891 -0.14133,-1.54132 -0.216,-2.31599c-0.07468,-0.77467 -0.15192,-1.54694 -0.216,-2.31599c-0.12637,-1.5166 -0.16544,-2.26221 -0.19998,-2.99734c-0.03406,-0.72487 -0.0585,-1.43999 -0.08401,-2.14499c-0.02515,-0.69501 -0.04724,-1.38028 -0.08401,-2.05501c-0.07199,-1.32062 -0.13235,-1.9659 -0.20264,-2.60266c-0.06976,-0.63194 -0.15512,-1.25943 -0.255,-1.884c-0.10013,-0.62613 -0.21207,-1.25429 -0.345,-1.884c-0.4101,-1.94264 -0.59601,-2.59999 -0.76151,-3.26866c-0.1665,-0.67267 -0.33701,-1.34595 -0.49051,-2.022c-0.30392,-1.33868 -0.53586,-2.65761 -0.6185,-3.30383c-0.08124,-0.63522 -0.18381,-1.88535 -0.22198,-2.50067c-0.03784,-0.61003 -0.0907,-1.82045 -0.1875,-3.02083c-0.04843,-0.60056 -0.18756,-1.8004 -0.26935,-2.39999c-0.08188,-0.60042 -0.17075,-1.20064 -0.36533,-2.40001c-0.19476,-1.20064 -0.29562,-1.80072 -0.50317,-3.0045c-0.10455,-0.60643 -0.20868,-1.21782 -0.45267,-2.45267c-0.12427,-0.62894 -0.40723,-1.91003 -0.564,-2.56433c-0.15921,-0.66438 -0.4964,-2.01381 -0.65799,-2.69933c-0.16245,-0.68915 -0.32211,-1.38152 -0.45151,-2.08051c-0.25821,-1.39473 -0.33603,-2.09756 -0.39999,-2.79733c-0.12695,-1.38907 -0.14938,-2.08046 -0.18402,-2.76534c-0.03433,-0.67879 -0.03928,-1.35291 -0.20682,-3.31467c-0.0545,-0.6382 -0.13138,-1.26921 -0.21451,-1.896c-0.16605,-1.25185 -0.26804,-1.87808 -0.36533,-2.50934c-0.19772,-1.28282 -0.30444,-1.93681 -0.49417,-3.27766c-0.09686,-0.68457 -0.18716,-1.37959 -0.26849,-2.08501c-0.0824,-0.7146 -0.16531,-1.43889 -0.26935,-2.92c-0.05298,-0.75418 -0.08459,-1.5173 -0.1185,-2.286c-0.03409,-0.77263 -0.10385,-2.32239 -0.15799,-3.09467c-0.05389,-0.76907 -0.21487,-2.28731 -0.33282,-3.03101c-0.11679,-0.7364 -0.25974,-1.46059 -0.40802,-2.17499c-0.14645,-0.70561 -0.30713,-1.39827 -0.444,-2.08501c-0.39664,-1.99023 -0.46912,-2.6396 -0.53598,-3.27766c-0.06607,-0.63068 -0.14957,-1.88394 -0.18402,-2.50934c-0.03455,-0.62727 -0.0441,-1.26053 -0.20682,-3.19583c-0.05566,-0.66223 -0.1326,-1.32736 -0.21451,-1.9935c-0.08176,-0.66489 -0.2655,-1.97595 -0.36533,-2.616c-0.1929,-1.23692 -0.39813,-2.4012 -0.49417,-2.964c-0.09464,-0.55453 -0.27719,-1.65482 -0.34732,-2.21066c-0.21759,-1.72479 -0.23999,-2.33728 -0.27185,-2.964c-0.03256,-0.64029 -0.06647,-1.95146 -0.07465,-2.616c-0.00818,-0.66649 -0.01001,-1.332 -0.01068,-2.64799c-0.00064,-1.28134 0,-1.90951 0,-2.53067c0,-1.22533 0,-1.8315 0,-2.43467c0,-1.80133 0,-2.40133 0,-3.00134c0,-1.2 0,-1.8 0,-2.39999c0,-1.8 0.00317,-2.40002 -0.00266,-3c-0.01166,-1.2001 -0.02954,-1.80055 -0.06934,-2.4c-0.07974,-1.20141 -0.25354,-2.40147 -0.37067,-2.99983c-0.11752,-0.60042 -0.40741,-1.78966 -0.55734,-2.37933c-0.14874,-0.58499 -0.46375,-1.72931 -0.66666,-2.85417c-0.19461,-1.07893 -0.23282,-1.61777 -0.3125,-2.6875c-0.04022,-0.54017 -0.09335,-1.64928 -0.1875,-2.8125c-0.04938,-0.60995 -0.1149,-1.23627 -0.25867,-2.528c-0.07343,-0.65964 -0.15128,-1.32379 -0.22202,-1.99049c-0.07059,-0.66531 -0.23502,-2.62663 -0.26733,-3.26417c-0.03198,-0.63115 -0.06647,-1.88397 -0.07465,-2.50934c-0.00821,-0.62731 -0.01001,-1.25867 -0.01068,-3.19583c-0.00024,-0.6615 0,-1.327 0,-1.9935c0,-0.6645 0,-1.9755 0,-2.616c0,-1.236 0.00021,-2.40134 -0.00449,-2.964c-0.00464,-0.55468 -0.02454,-1.65631 -0.05267,-2.21066c-0.08774,-1.72925 -0.16196,-2.33773 -0.22684,-2.964c-0.06638,-0.64074 -0.2171,-1.95138 -0.29068,-2.616c-0.07376,-0.66637 -0.16681,-1.33006 -0.30383,-3.29333c-0.04443,-0.6368 -0.06854,-1.26853 -0.08548,-1.896c-0.03375,-1.25047 -0.03278,-1.878 -0.03467,-2.50933c-0.00388,-1.28267 -0.00134,-2.60133 -0.00134,-3.27317c0,-0.67883 0,-1.36367 0,-2.0535c0,-0.69383 0,-2.78933 0,-3.489c0,-0.69767 0,-1.39133 0,-2.079c0,-0.67966 0,-2.007 0,-2.65067c0,-1.23734 0,-2.4 0,-2.95633c0,-0.54234 0,-1.593 0,-2.61167c0,-1.00267 0,-2.004 0,-2.50717c0,-1.01633 0,-1.5315 0,-2.58083c0,-1.08133 0,-2.20533 0,-2.78983c0,-0.6035 0,-1.8795 0,-2.558c0,-0.7095 0,-2.2335 0,-3.05167c0,-0.84717 0,-1.71233 0,-2.5845c0,-0.86817 0,-1.72133 0,-2.5485c0,-0.79017 0,-2.2155 0,-2.83167c0,-1.05033 0,-1.4985 0,-2.619c0,-0.9315 0,-1.8225 0,-2.6595c0,-1.12917 0,-1.88667 0,-2.75733l0,-0.91917" id="svg_6" stroke-width="2" stroke="#000" fill="none"/>
  <path t="31332,31457,31457,31457,31457,31457,31473,31473,31473,31473,31473,31473,31473,31473,31490,31490,31490,31490,31490,31490,31490,31490,31507,31507,31507,31507,31507,31507,31507,31507,31507,31523,31523,31523,31524,31524,31524,31524,31524,31524,31540,31541,31541,31541,31541,31541,31541,31541,31541,31558,31558,31558,31558,31558,31558,31558,31559,31559,31574,31574,31574,31574,31574,31574,31574,31575,31575,31590,31590,31590,31590,31590,31590,31590,31590,31590,31605,31606,31606,31606,31606,31606,31606,31606,31606,31623,31623,31623,31624,31624,31624,31624,31624,31624,31642,31642,31642,31642,31642,31642,31642,31642,31642,31659,31659,31659,31659,31660,31660,31660,31679,31679,31679,31679,31679,31679,31679,31698,31698,31698,31698,31698,31698,31698,31717,31717,31718,31718,31718,31718,31736,31736,31736,31736,31737,31737,31737,31737,31756,31756,31756,31756,31756,31757,31757,31757,31759,31759,31759,31759,31759,31759,31793,31793,31793,31794,31794,31794,31794,31795,31796,31796,31796,31796,31796,31796,31829,31829,31830,31830,31830,31830,31830,31832,31832,31832,31832,31832,31832,31832,31865,31865,31865,31866,31866,31866,31866,31867,31868,31868,31868,31868,31868,31868,31903,31904,31904,31904,31904,31904,31904,31904,31906,31906,31906,31907,31907,31907,31907,31907,31940,31941,31941,31941,31941,31941,31942,31942,31975,31976,31976,31976,31976,31976,31976,31976,31977,31978,31978,31978,31979,31979,31979,31979,31979,31979,32015,32015,32016,32016,32016,32016,32016,32016,32016,32018,32018,32018,32018,32019,32019,32019,32019,32019,32056,32056,32056,32056,32056,32057,32057,32057,32057,32059,32060,32060,32060,32060,32060,32061,32061,32061,32106,32106,32106,32107,32107,32107,32107,32107,32108,32143,32143,32143,32144,32144,32144,32144,32144,32145,32181,32181,32181,32182,32182,32182,32182,32182,32182,32184,32184,32184,32185,32185,32185,32185,32185,32186,32187,32187,32187,32188,32188,32188,32188,32188,32189,32190,32191,32191,32191,32191,32191,32192,32192,32192,32195,32195,32196,32196,32196,32196,32197,32197,32234,32235,32235,32235,32235,32235,32237,32237,32238,32238,32238,32238,32239,32240,32241,32241,32241,32241,32242,32280,32280,32281,32281,32283,32283,32283,32283,32284,32284,32322,32322,32322,32322,32323,32325,32325,32325,32326,32326,32366,32367,32367,32367,32367" d="m317,334c0,-4.62183 0,-5.56616 0,-6.5625c0,-0.52017 0,-1.05634 0,-2.77084c0,-0.60965 0,-1.23734 0,-2.53867c0,-0.66965 0,-1.34933 0,-2.03699c0,-0.69366 0,-2.091 0,-3.49368c0,-0.70633 0,-1.41864 0,-2.13898c0,-0.73035 0,-1.47269 0,-2.229c0,-1.56268 0.00162,-2.37234 -0.00266,-3.20001c-0.00436,-0.84366 -0.01385,-1.70145 -0.039,-2.57098c-0.02545,-0.87982 -0.06046,-1.76819 -0.129,-2.66101c-0.13812,-1.79938 -0.26599,-2.69803 -0.39734,-3.59601c-0.13132,-0.89771 -0.28229,-1.79071 -0.43201,-2.68048c-0.14893,-0.88492 -0.30365,-1.7623 -0.43201,-2.6355c-0.25229,-1.71619 -0.33182,-2.56329 -0.39865,-3.40002c-0.0661,-0.82767 -0.11038,-1.6492 -0.1485,-2.46448c-0.03787,-0.81006 -0.06522,-1.61652 -0.10352,-2.41953c-0.07642,-1.60168 -0.13568,-2.40155 -0.20132,-3.20132c-0.06567,-0.80023 -0.14133,-1.60001 -0.216,-2.39999c-0.07468,-0.79999 -0.15231,-1.59961 -0.216,-2.39999c-0.12726,-1.59924 -0.16565,-2.39987 -0.19998,-3.20001c-0.03433,-0.79987 -0.05869,-1.60001 -0.08401,-2.39999c-0.02533,-0.79999 -0.0477,-1.60022 -0.08401,-2.39999c-0.07269,-1.60049 -0.13425,-2.40009 -0.19998,-3.19867c-0.06561,-0.79709 -0.14108,-1.5907 -0.216,-2.38049c-0.07443,-0.78488 -0.15182,-1.56329 -0.216,-2.33551c-0.12616,-1.51797 -0.16638,-2.26382 -0.19867,-3.00134c-0.03201,-0.73117 -0.05182,-1.45859 -0.06448,-2.18399c-0.01266,-0.72531 -0.01761,-1.45267 -0.0195,-2.18401c-0.00385,-1.48267 0.00031,-2.2375 -0.004,-3.00133c-0.00433,-0.77185 -0.01376,-1.5508 -0.039,-2.33549c-0.02539,-0.79001 -0.06039,-1.58464 -0.129,-2.38051c-0.13803,-1.60098 -0.26566,-2.39919 -0.39734,-3.19466c-0.13104,-0.79158 -0.28125,-1.57228 -0.43201,-2.34151c-0.14792,-0.75478 -0.30121,-1.48978 -0.43201,-2.2065c-0.24704,-1.35381 -0.33109,-1.99115 -0.39865,-2.60268c-0.06522,-0.59021 -0.14932,-1.73245 -0.18402,-2.29332c-0.06967,-1.12657 -0.14777,-2.29373 -0.20667,-2.90285c-0.12259,-1.26787 -0.20425,-1.91846 -0.27866,-2.57799c-0.07495,-0.66447 -0.17081,-1.32895 -0.33334,-3.3125c-0.0528,-0.64442 -0.08609,-1.2798 -0.1095,-1.905c-0.04562,-1.21968 -0.0488,-1.81499 -0.05267,-2.40001c-0.01123,-1.69496 -0.00058,-2.24052 -0.00897,-3.31349c-0.00418,-0.53352 -0.02469,-1.60982 -0.05267,-2.158c-0.08801,-1.72473 -0.16205,-2.33337 -0.22684,-2.96083c-0.06647,-0.64391 -0.21741,-1.97086 -0.29068,-2.65067c-0.0741,-0.68752 -0.15448,-1.38029 -0.25867,-2.77867c-0.05209,-0.6992 -0.08188,-1.39745 -0.15198,-2.77867c-0.03448,-0.6797 -0.06992,-1.34981 -0.12451,-2.00699c-0.05353,-0.6442 -0.32333,-2.47383 -0.45816,-3.04634c-0.26419,-1.12186 -0.43671,-1.66675 -0.58133,-2.21866c-0.29218,-1.1149 -0.53134,-2.28076 -0.60767,-2.89218c-0.15775,-1.26372 -0.17609,-1.91827 -0.20135,-2.57799c-0.02545,-0.66432 -0.03693,-1.33099 -0.04166,-3.3125c-0.00156,-0.64517 0.00125,-1.28136 -0.00449,-1.9095c-0.01126,-1.2364 -0.02374,-1.84683 -0.05267,-2.45267c-0.08627,-1.80577 -0.15866,-2.40514 -0.22818,-3.0045c-0.13931,-1.20137 -0.23282,-1.80042 -0.32532,-2.40001c-0.18527,-1.20084 -0.39047,-2.39981 -0.48917,-3.00017c-0.19794,-1.20396 -0.2923,-1.81009 -0.37933,-2.42065c-0.08765,-0.61478 -0.25055,-1.8632 -0.35419,-3.14584c-0.05283,-0.65392 -0.09079,-1.31567 -0.13065,-2.64799c-0.01987,-0.66438 -0.02765,-1.32399 -0.03152,-1.97549c-0.01117,-1.87648 -0.00119,-2.46721 -0.00714,-3.04184c-0.0116,-1.11743 -0.02014,-1.6694 -0.11166,-2.77333c-0.04672,-0.56355 -0.20541,-1.73065 -0.45367,-2.96667c-0.13022,-0.64828 -0.28421,-1.31032 -0.43201,-1.99049c-0.15091,-0.6945 -0.30576,-1.40166 -0.43201,-2.1255c-0.25726,-1.4749 -0.34302,-2.23155 -0.45816,-3.75566c-0.0574,-0.7597 -0.08969,-1.51463 -0.12451,-2.259c-0.03415,-0.7303 -0.05185,-1.44377 -0.15198,-2.79733c-0.04724,-0.63861 -0.19006,-1.89606 -0.26935,-2.552c-0.08435,-0.69806 -0.1781,-1.45561 -0.26849,-2.29199c-0.10068,-0.93159 -0.30014,-3.15567 -0.39532,-4.47633c-0.10391,-1.44199 -0.19873,-2.9785 -0.28952,-4.58101c-0.09293,-1.64017 -0.17709,-3.29055 -0.25348,-4.923c-0.07422,-1.58623 -0.19321,-4.50891 -0.23569,-5.796c-0.0386,-1.16893 -0.06662,-2.23196 -0.08548,-3.201c-0.01727,-0.88696 -0.02676,-1.70399 -0.03152,-2.463c-0.00449,-0.71299 -0.00449,-2.049 -0.00449,-2.69417c0,-0.63617 0,-1.26434 0,-1.8855c0,-0.61517 0,-1.22533 0,-1.8315c0,-0.60316 0,-1.8045 0,-2.4045c0,-0.6 0,-1.2 0,-1.8c0,-0.6 0,-1.2 0,-1.8c0,-0.60001 0.00098,-1.8 -0.00034,-2.40017c-0.00134,-0.60117 -0.00473,-1.20442 -0.021,-1.8105c-0.01636,-0.61029 -0.04401,-1.22582 -0.09299,-1.8465c-0.04962,-0.62873 -0.21191,-1.91073 -0.32834,-2.564c-0.11813,-0.66283 -0.26056,-1.32746 -0.40802,-1.9935c-0.14722,-0.66496 -0.30136,-1.3234 -0.444,-1.9755c-0.13998,-0.63992 -0.38055,-1.87525 -0.46231,-2.46916c-0.08087,-0.58756 -0.13565,-1.18891 -0.17102,-1.818c-0.03778,-0.67229 -0.05399,-1.40529 -0.06299,-2.214c-0.01004,-0.90063 -0.009,-3.042 -0.009,-4.3075c0,-1.3785 0,-2.843 0,-4.3665c0,-1.5555 0,-3.116 0,-4.6545c0,-1.4895 0,-4.2135 0,-5.40067c0,-1.07017 0,-2.03633 0,-2.9115c0,-0.79717 0,-1.52934 0,-2.2095c0,-0.64117 0.00052,-1.8585 -0.00015,-2.45834c-0.00067,-0.59883 -0.00232,-1.19569 -0.01053,-1.7895c-0.00815,-0.58987 -0.02167,-1.17481 -0.04648,-1.7535c-0.02454,-0.572 -0.10504,-1.69096 -0.16418,-2.23567c-0.05826,-0.53666 -0.12991,-1.06453 -0.20398,-1.5855c-0.07327,-0.51537 -0.15112,-1.02509 -0.22202,-1.5315c-0.0704,-0.50293 -0.19055,-1.50411 -0.23117,-2.00483c-0.04071,-0.50198 -0.06744,-1.00855 -0.08548,-1.521c-0.01831,-0.52023 -0.02689,-1.05065 -0.03152,-1.593c-0.00476,-0.55632 -0.00449,-1.719 -0.00449,-2.32833c0,-0.62534 0,-1.26267 0,-1.908c0,-0.64933 0,-1.29867 0,-2.58133c0,-1.23467 0,-1.82517 0,-2.95817c0,-0.5485 0,-1.6245 0,-2.158c0,-1.6185 0,-2.17317 0,-2.73583c0,-1.14133 0,-1.716 0,-2.86333c0,-0.56867 0.00418,-1.68601 -0.00134,-2.766c-0.00531,-1.04003 -0.00864,-1.54546 -0.05582,-2.525c-0.02289,-0.47528 -0.15503,-1.84177 -0.2955,-2.709c-0.13834,-0.85417 -0.32208,-1.70175 -0.48068,-3.01933c-0.05463,-0.45379 -0.11765,-1.39023 -0.14581,-2.35417c-0.01431,-0.48973 -0.02017,-1.4805 -0.02084,-2.979c-0.00021,-0.49883 0,-1.4895 0,-1.97933c0,-0.96367 0,-2.35417 0,-3.2355c0,-0.84933 0,-1.2645 0,-2.08083c0,-1.2045 0,-2.0085 0,-2.8365l0,-0.876l0,-0.948" id="svg_7" stroke-width="2" stroke="#000" fill="none"/>
  <path t="32870,32990,32990,32990,32990,32990,32991,33010,33010,33010,33010,33010,33010,33010,33010,33031,33031,33031,33031,33032,33032,33032,33052,33052,33052,33052,33052,33052,33052,33052,33074,33074,33074,33074,33074,33074,33074,33074,33076,33076,33076,33076,33077,33077,33077,33077,33077,33098,33098,33098,33098,33098,33098,33098,33098,33098,33118,33118,33118,33118,33118,33118,33118,33118,33137,33137,33137,33137,33137,33137,33137,33137,33156,33156,33156,33156,33156,33156,33156,33156,33156,33158,33159,33159,33159,33159,33159,33159,33159,33179,33179,33179,33179,33179,33179,33179,33179,33179,33198,33198,33198,33198,33198,33198,33198,33199,33218,33219,33219,33219,33219,33219,33219,33219,33219,33241,33241,33242,33242,33242,33242,33242,33242,33242,33244,33244,33244,33244,33244,33244,33244,33263,33263,33263,33263,33263,33263,33284,33284,33284,33284,33284,33284,33284,33284,33309,33309,33309,33309,33309,33309,33309,33311,33311,33311,33311,33311,33311,33311,33335,33335,33335,33335,33335,33335,33335,33336,33357,33358,33358,33358,33358,33358,33358,33358,33360,33361,33361,33361,33361,33361,33361,33383,33383,33383,33384,33384,33384,33384,33384,33405,33405,33406,33406,33406,33406,33406,33427,33428,33428,33428,33428,33428,33428,33428,33450,33450,33450,33450,33450,33450,33451,33451,33472,33472,33473,33473,33473,33473,33473,33473,33496,33496,33496,33496,33496,33496,33497,33498,33498,33498,33498,33499,33499,33499,33499,33523,33523,33523,33523,33523,33523,33524,33524,33526,33526,33526,33526,33527,33527,33527,33551,33552,33552,33552,33552,33552,33553,33554,33555,33555,33555,33555,33555,33555,33556,33581,33581,33581,33582,33582,33582,33582,33584,33584,33584,33585,33585,33585,33585,33585,33623,33623,33623,33623,33624,33624,33624,33627,33627,33627,33628,33628,33628,33653,33653,33654,33654,33654,33654,33656,33657,33657,33657,33657,33657,33658,33658,33682,33682,33682,33682,33683,33683,33685,33685,33685,33685,33685,33686,33708,33709,33709,33709,33709,33710,33710,33712,33712,33712,33712,33712,33737,33737,33737,33737,33737,33760,33761,33761,33761,33761,33763,33763,33763,33764,33764,33787,33787,33787,33787,33787,33788,33811,33811,33811,33811,33834,33834,33834,33834,33834,33835,33859,33859,33859,33859,33860,33882,33882,33882,33883,33883,33883,33885,33885,33885,33885,33886,33887,33888,33888,33888,33931,33932,33932,33932,33932" d="m295,337c0,-9.89282 0,-10.57599 0,-11.22318c0,-0.61816 0,-1.7955 0,-2.36865c0,-1.74152 0,-2.35101 0,-2.97751c0,-0.6405 0,-1.95151 0,-2.616c0,-0.6665 0,-1.332 0,-2.64801c0,-1.28265 0,-1.914 0,-2.54132c0,-0.62534 0,-1.87799 0,-2.50934c0,-1.28265 0,-1.93765 0,-3.27765c0,-0.68503 0,-1.38 0,-2.08502c0,-0.715 0.00015,-1.44 0,-2.91998c-0.00009,-0.75485 0.00015,-1.51868 -0.00449,-2.2905c-0.00467,-0.77884 -0.01169,-1.56378 -0.03152,-2.35352c-0.03995,-1.59094 -0.12668,-3.18961 -0.18533,-3.98932c-0.05869,-0.80032 -0.13031,-1.6001 -0.20398,-2.40002c-0.07367,-0.80008 -0.15134,-1.59979 -0.22202,-2.39999c-0.07065,-0.7998 -0.18994,-2.39978 -0.23132,-3.19965c-0.04126,-0.79749 -0.06955,-1.59131 -0.09601,-2.37903c-0.02618,-0.77963 -0.04837,-1.54941 -0.078,-2.30698c-0.02908,-0.74377 -0.10925,-2.1814 -0.16867,-2.87152c-0.05801,-0.67392 -0.12927,-1.33322 -0.27866,-2.62198c-0.07367,-0.63562 -0.15503,-1.26822 -0.216,-1.9035c-0.18594,-1.93707 -0.20236,-2.60519 -0.22684,-3.28351c-0.02493,-0.69104 -0.03836,-1.3963 -0.04648,-2.11649c-0.0083,-0.73615 -0.01001,-1.48935 -0.01068,-3.05069c-0.00034,-0.80933 0,-1.63464 0,-2.47198c0,-0.84534 0,-1.69467 0,-2.54401c0,-0.84534 0.00034,-1.68268 0,-3.31732c-0.00018,-0.79051 0.00043,-1.56404 -0.009,-2.32352c-0.00931,-0.74854 -0.02661,-1.48927 -0.06299,-2.22449c-0.03632,-0.73383 -0.25418,-2.95308 -0.37067,-3.70668c-0.11807,-0.76382 -0.26093,-1.53165 -0.40802,-2.30399c-0.14758,-0.77501 -0.30219,-1.54869 -0.444,-2.32201c-0.14084,-0.76802 -0.38046,-2.28502 -0.46231,-3.03133c-0.08075,-0.73647 -0.13464,-1.46835 -0.17102,-2.19601c-0.03625,-0.72505 -0.05536,-1.45059 -0.06299,-2.17799c-0.02325,-2.2139 -0.009,-2.96883 -0.009,-3.73267c0,-0.77184 0,-1.55066 0,-2.33549c0,-0.78984 0,-1.58368 0,-2.38051c0,-1.59866 0,-2.39833 0,-3.196c0,-0.79367 0,-1.58133 0,-2.36099c0,-0.76967 0,-1.52734 0,-2.27101c0,-1.43733 0,-2.12749 0,-3.45183c0,-0.63617 0,-1.25633 0,-1.8615c0,-1.16934 0,-2.29066 0,-3.37466c0,-0.5345 0,-1.6035 0,-2.14401c0,-1.10799 0.00098,-2.27199 -0.00015,-2.88165c-0.00232,-1.27135 -0.00815,-1.92905 -0.02069,-2.59868c-0.01276,-0.6797 -0.02792,-1.36772 -0.06448,-2.06099c-0.11066,-2.09866 -0.19653,-2.79622 -0.26733,-3.49284c-0.07053,-0.69405 -0.14883,-1.3835 -0.22202,-2.0685c-0.14426,-1.35036 -0.26294,-2.66904 -0.30383,-3.31467c-0.04037,-0.63707 -0.08798,-1.89594 -0.10065,-2.52133c-0.01266,-0.62529 -0.01837,-1.25267 -0.02084,-3.16667c-0.00085,-0.65483 0.00015,-1.31868 -0.00449,-1.99049c-0.0047,-0.67885 -0.02808,-2.0536 -0.05267,-2.74733c-0.02472,-0.69698 -0.1055,-2.09583 -0.16418,-2.79533c-0.05865,-0.69919 -0.12958,-1.39586 -0.27866,-2.77934c-0.07382,-0.68492 -0.15173,-1.36322 -0.216,-2.03549c-0.12598,-1.31787 -0.20212,-2.6012 -0.22684,-3.23267c-0.02457,-0.62721 -0.04138,-1.25261 -0.05267,-2.50534c-0.00571,-0.63132 -0.00449,-1.914 -0.00449,-2.56883c0,-1.33566 0,-2.0145 0,-2.69933c0,-0.68983 0,-1.38367 0,-2.08051c0,-1.39867 0.00037,-2.79736 -0.009,-3.49417c-0.00934,-0.69388 -0.02649,-1.38397 -0.06299,-2.0685c-0.03622,-0.67918 -0.25296,-2.67081 -0.37067,-3.31483c-0.117,-0.64009 -0.26212,-1.27312 -0.55734,-2.54199c-0.14905,-0.64056 -0.30621,-1.2867 -0.43201,-1.9485c-0.25845,-1.3597 -0.33707,-2.0724 -0.39734,-2.8c-0.12344,-1.49016 -0.133,-2.2514 -0.14932,-3.01601c-0.01636,-0.76642 -0.01999,-1.532 -0.02133,-3.04799c-0.00064,-0.74501 0,-1.48001 0,-2.205c0,-0.715 0,-1.42 0,-2.11501c0,-1.36 0,-2.67999 0,-3.32533c0,-0.63733 0,-1.896 0,-2.52133c0,-0.62534 0,-1.884 0,-3.16666c0,-0.65484 0,-1.31867 0,-1.9905c0,-1.36367 0,-2.0535 0,-2.74734c0,-0.69683 0,-2.0955 0,-2.79533c0,-0.69883 0,-2.08949 0,-2.77933c0,-0.68484 0,-1.36367 0,-2.0355c0,-1.964 0,-2.60133 0,-3.23267c0,-0.62733 0,-1.87801 0,-2.50534c0,-0.63133 0,-1.91399 0,-3.23267c0,-0.67183 0,-1.35066 0,-2.0355c0,-0.68983 0,-1.38367 0,-3.47916c0,-0.69984 0,-1.39867 0,-2.0955c0,-0.69383 0,-1.38367 0,-2.0685c0,-1.35066 0,-2.66933 0,-3.31467c0,-0.63733 0,-1.896 0,-2.52133c0,-0.62534 0,-1.884 0,-3.16666c0,-0.65467 0,-1.31734 0,-1.986c0,-1.34734 0,-2.022 0,-2.69467c0,-0.66866 0,-1.986 0,-3.26733c0,-0.62817 0,-1.24933 0,-1.86449c0,-1.21634 0,-1.8195 0,-3.02084c0,-1.19867 0,-1.7955 0,-2.97916c0,-0.58484 0,-1.16367 0,-2.85417c0,-0.54549 0,-1.6185 0,-2.152c0,-1.076 0,-1.6245 0,-3.348c0,-0.60933 0,-1.23467 0,-1.872c0,-1.29467 0,-1.944 0,-2.58933c0,-0.63733 0,-2.46233 0,-3.03467c0,-1.09867 0,-1.629 0,-2.66167c0,-0.50633 0.00156,-2.00934 -0.00134,-2.51167c-0.00589,-1.01869 -0.01053,-1.53934 -0.05582,-2.61167c-0.0235,-0.55655 -0.16174,-2.32841 -0.22684,-2.95233c-0.06619,-0.63443 -0.14188,-1.27327 -0.29068,-2.54667c-0.07294,-0.62413 -0.16254,-1.23143 -0.30383,-2.92233c-0.04254,-0.50917 -0.09335,-1.46681 -0.11081,-2.36833c-0.017,-0.87722 -0.00681,-1.76268 -0.01202,-2.68c-0.00537,-0.94136 -0.02661,-1.8911 -0.05582,-2.36333c-0.08585,-1.38767 -0.22083,-2.26835 -0.36816,-3.11666c-0.14352,-0.82637 -0.31763,-1.63133 -0.45319,-2.83633c-0.04517,-0.40142 -0.09372,-1.22079 -0.11081,-2.07167c-0.01804,-0.89853 -0.00763,-2.37053 -0.01334,-2.89467c-0.01172,-1.07343 -0.01697,-1.61424 -0.11166,-2.67083c-0.04572,-0.51023 -0.30069,-1.90826 -0.59552,-2.7045c-0.28448,-0.76834 -0.68393,-1.50055 -1.1235,-2.758c-0.16046,-0.45904 -0.41333,-1.46074 -0.51999,-1.98667c-0.21701,-1.07003 -0.31006,-1.60959 -0.48001,-3.18c-0.05301,-0.48972 -0.11929,-1.42315 -0.14581,-2.3125c-0.02591,-0.86877 -0.01987,-2.1875 -0.021,-2.64217c-0.00232,-0.93134 -0.01584,-1.87885 -0.03586,-2.35333c-0.0397,-0.94179 -0.17514,-2.30544 -0.31665,-3.16817c-0.13745,-0.83801 -0.23746,-1.24395 -0.36334,-2.05583c-0.1857,-1.19784 -0.2193,-1.99846 -0.30484,-2.7805c-0.12451,-1.13838 -0.42181,-2.20017 -0.68448,-2.88617l-0.29468,-0.718l-0.29468,-0.798l-0.13733,-0.444" id="svg_8" stroke-width="2" stroke="#000" fill="none"/>
 </g>
 <g display="none">
  <title>muse_image</title>
  <image xlink:href="http://farm4.static.flickr.com/3195/2735544685_2bf3eec067.jpg" id="muse" height="480" width="360" y="0" x="140"/>
 </g>
 <g display="none">
  <title>bbox</title>
  <rect stroke="#f00" fill="none" stroke-width="3" height="454.08" width="157.44" y="4.8" x="264.8" id="bbox"/>
 </g>
</svg>
