<svg width="640" height="480" xmlns="http://www.w3.org/2000/svg" xmlns:svg="http://www.w3.org/2000/svg" xmlns:xlink="http://www.w3.org/1999/xlink">
 <!-- Sketchy ANNOTATION
  ImageNet ID: n03272010_5483
  URL: http://farm4.static.flickr.com/3306/3305355020_89c01617bc.jpg
  Image Width: 375
  Image Height: 500
  BBox X: 111
  BBox Y: 17
  BBox Width: 158
  BBox Height: 460
  Exposure: 2000ms
  Synset Label: guitar
  Synset ID: n03467517
  Worker Tag: brown guitar
  Sanity Check: 
   Saved
  Comment: 
   {}
  Worker ID: A1Y3PSVSU557SW
  Assignment ID: 3IAEQB9FMEKSJVW3XFKFB0594P7WD7
  HIT ID: 37NXA7GVST6WFYMWUK85JRZF218VLN
  Work Time: 45s
  Worker Score: 0.5893
 END ANNOTATION -->
 <g display="inline">
  <title>Layer 1</title>
  <path t="0,57,58,58,59,74,74,74,77,78,78,102,123,124,124,124,134,135,135,139,139,145,145,168,185,185,185,203,204,207,207,207,210,213,215,252,252,268,268,269,269,269,269,270,270,286,287,287,287,288,291,291,292,292,301,305,306,306,309,309,310,335,336,339,340,340,340,344,344,344,345,367,384,384,384,388,388,388,389,392,395,396,396,402,419,419,424,424,425,428,428,429,452,469,470,470,470,485,486,486,487,501,502,518,519,519,522,523,523,524,527,530,531,535,551,551,552,563,564,568,569,606,623,623,624,624,627,628,628,632,638,639,640,640,641,651,652,669,670,670,671,671,687,687,688,688,704,705,709,709,718,722,722,725,752,757,757,761,762,762,763,785,803,804,804,805,818,819,834,835,839,840,841,844,845,869,874,874,877,878,901,912,913,914,920,921,922,925,936,953,954,958,959,962,963,998,1002,1004,1009,1013,1020,1021,1047,1053,1054,1054,1058,1068,1090,1092,1092,1093,1102,1103,1104,1110,1110,1114,1117,1118,1145,1153,1154,1158,1159,1169,1190,1191,1192,1197,1198,1204,1205,1218,1226,1227,1228,1324,1325,1325,1329,1330,1333,1334,1335,1338,1338,1339,1340,1340,1341,1342,1342,1343,1350,1351,1351,1352,1355,1356,1357,1358,1359,1362,1367,1368,1384,1385,1389,1390,1391,1394,1418,1422,1423,1426,1427,1428,1452,1517,1518,1518,1553,1554,1555,1584,1585,1586,1668,1670,1675,1676,1680,1682,1703,1707,1708,1709,1713,1717,1718,1734,1735,1752,1754,1755,1757,1759,1760,1761,1778,1779,1780,1783,1784,1806,1807,1808,1809,1810,1811,1820,1823,1824,1826,1835,1836,1837,1845,1850,1851,1855,1857,1868,1884,1885,1886,1887,1889,1890,1901,1902,1903,1904,1906,1925,1926,1927,1932,1937,1941,1943,1944,1945,1950,1951,1978,1980,1984,1985,1991,1992,1994,2002,2007,2009,2010,2014,2017,2018,2019,2024,2025,2035,2056,2057,2062,2063,2065,2071,2076,2078,2079,2084,2086,2107,2120,2122,2123,2128,2129,2131,2136,2141,2142,2147,2149,2150,2155,2167,2170,2171,2191,2192,2194,2199,2201,2202,2207,2209,2218,2226,2228,2229,2230,2232,2237,2239,2252,2271,2272,2274,2275,2276,2283,2285,2286,2288,2294,2295,2303,2305,2306,2308,2310,2318,2320,2321,2324,2326,2327,2344,2346,2348,2350,2351,2353,2358,2360,2365,2371,2373,2374,2375,2377,2378,2380,2381,2387,2389,2390,2395,2397,2399,2401,2406,2408,2409,2411,2422,2424,2435,2437,2440,2441,2442,2444,2445,2446,2447,2457,2459,2460,2461,2468,2470,2471,2473,2477,2485,2487,2488,2489,2491,2492,2496,2498,2500,2501,2506,2517,2520,2522,2523,2524,2526,2541,2542,2544,2545,2546,2551,2553,2554,2556,2557,2562,2563,2565,2566,2568,2569,2574,2575,2584,2585,2587,2600,2602,2604,2618,2619,2621,2634,2636,2637,2639,2643,2647,2649,2651,2677,2703,2705,2707,2709,2711,2723,2725,2727,2729,2731,2734,2741,2743,2744,2746,2748,2754,2756,2758,2768,2774,2776,2777,2779,2781,2787,2789,2791,2804,2836,2839,2841,2843,2851,2854,2855,2857,2859,2861,2863,2865,2867,2874,2876,2878,2880,2886,2889,2907,2909,2916,2921,2923,2926,2934,2936,2943,2945,2947,2953,2954,2956,2957,2962,2964,2970,2971,2973,2974,2976,2985,2986,2988,2993,2995,3000,3001,3017,3038,3040,3041,3046,3051,3067,3069,3071,3075,3077,3079,3083,3085,3087,3101,3103,3117,3119,3126,3128,3139,3140,3142,3144,3148,3151,3156,3157,3168,3170,3172,3173,3185,3187,3189,3190,3201,3204,3205,3234,3236,3238,3251,3252,3254,3256,3258,3268,3270,3271,3273,3278,3284,3285,3303,3318,3323,3325,3328,3335,3351,3367,3369,3417,3420,3425,3427,3429,3435,3437,3451,3456,3458,3460,3465,3467,3469,3485,3491,3493,3500,3502,3504,3509,3511,3517,3520,3534,3536,3538,3540,3545,3547,3552,3555,3564,3566,3569,3582,3584,3590,3592,3593,3595,3597,3603,3605,3607,3612,3614,3620,3622,3624,3625,3627,3630,3636,3638,3640,3642,3651,3654,3661,3663,3665,3668,3670,3671,3674,3703,3705,3707,3709,3711,3713,3720,3722,3724,3726,3728,3734,3736,3738,3740,3745,3750,3753,3755,3757,3759,3761,3763,3771,3773,3779,3783,3785,3792,3795,3797,3798,3804,3810,3812,3817,3820,3833,3835,3838,3840,3842,3844,3845,3851,3854,3856,3858,3860,3865,3868,3870,3872,3874,3876,3886,3888,3893,3896,3901,3904,3906,3909,3912,3917,3920,3922,3928,3930,3932,3934,3936,3942,3951,3953,3959,3961,3964,3966,3968,3974,3979,3982,3984,3987,3994,3996,3998,4002,4008,4011,4013,4016,4018,4024,4026,4028,4034,4038,4044,4047,4049,4052,4058,4061,4063,4065,4071,4077,4079,4081,4084,4086,4091,4094,4096,4098,4111,4113,4119,4122,4124,4126,4128,4131,4134,4143,4145,4147,4150,4152,4154,4160,4162,4165,4167,4173,4176,4181,4184,4190,4192,4195,4197,4203,4207,4210,4212,4218,4221,4223,4225,4228,4233,4236,4238,4241,4246,4249,4255,4257,4260,4262,4264,4267,4269,4280,4283,4285,4288,4290,4296,4301,4304,4307,4313,4316,4318,4321,4323,4329,4332,4335,4337,4343,4346,4348,4355,4363,4365,4368,4374,4377,4379,4385,4391,4393,4396,4402,4407,4410,4423,4429,4432,4438,4445,4449,4452,4459,4461,4467,4474,4480,4482,4485,4517,4520,4523,4525" d="m263,314c-11,-10 -12.1636,-10.99075 -12.6095,-11.314c-0.80739,-0.58533 -1.51222,-1.2041 -1.84784,-1.97266c-0.31975,-0.73221 -0.83084,-1.44461 -1.5435,-1.8945c-0.6756,-0.42648 -1.765,-0.70544 -2.49916,-1.15219c-0.82957,-0.50479 -1.33215,-0.88776 -1.90401,-1.26932c-1.19231,-0.79553 -1.78166,-1.16312 -2.28799,-1.56134c-0.97992,-0.77069 -1.26649,-1.47757 -1.592,-2.31866c-0.31958,-0.82581 -0.82317,-1.68161 -1.28534,-2.37067c-0.4489,-0.66925 -0.9431,-1.3837 -1.54533,-2.17868c-0.47086,-0.62155 -1.0023,-1.50363 -1.27466,-2.20798c-0.3474,-0.89844 -0.636,-1.836 -0.89467,-2.612c-0.29066,-0.87201 -0.64696,-1.77878 -0.70534,-2.47601c-0.11169,-1.33401 -0.00861,-1.88568 -0.01466,-2.51468c-0.00668,-0.69302 -0.02081,-1.43228 -0.0585,-2.19897c-0.03822,-0.7774 0.02237,-1.57108 -0.4375,-3.625c-0.12784,-0.57095 -0.53198,-1.49811 -0.97917,-2.20834c-0.38737,-0.61523 -0.95331,-1.44882 -0.99666,-2.42133c-0.02953,-0.66248 0.54787,-1.54913 0.4185,-2.59167c-0.10674,-0.86017 -0.85272,-1.38907 -1.18018,-2.22549c-0.33705,-0.86093 -0.34897,-1.78342 -0.1665,-2.57849c0.24731,-1.07761 0.40334,-1.73068 0.40401,-2.73334c0.00049,-0.74402 0,-1.59201 0,-2.49602c0,-0.91199 0,-1.78799 0,-2.59999c0,-1.0455 0,-2.14134 0,-2.97867c0,-0.81866 0,-1.67067 0,-2.66667c0,-0.71333 -0.0004,-1.77083 0,-2.40916c0.00067,-1.08684 0.22133,-2.08817 0.42534,-2.70016c0.29066,-0.87199 0.48276,-1.83385 0.60666,-2.60666c0.13232,-0.82538 0.8147,-1.80554 1.244,-2.34267c0.44257,-0.55373 1.30661,-1.57491 1.55251,-2.3085c0.24277,-0.72426 0.33998,-1.68806 0.83583,-2.35184c0.40025,-0.53581 0.87138,-1.16068 1.392,-1.81799c0.76826,-0.96999 1.24631,-1.53421 1.90199,-2.23384c0.54623,-0.58284 1.31256,-1.29387 1.79434,-1.87233c0.77312,-0.92827 1.06563,-1.47441 1.709,-2.242c0.67609,-0.80664 1.20393,-1.28023 1.99666,-1.88567c0.46573,-0.3557 1.45131,-1.0083 2.24701,-1.41516c0.72337,-0.36987 1.44662,-0.91315 2.009,-1.70534c0.31839,-0.44849 0.78572,-1.27098 1.88567,-1.77499c0.75208,-0.3446 1.8071,-0.42757 2.528,-0.74167c0.85515,-0.37259 1.75539,-0.65733 2.29616,-0.7735c0.97847,-0.21019 1.69678,-0.36113 2.75385,-0.30901c0.96014,0.04735 1.71674,0.4288 2.67749,0.60001c1.12814,0.20103 1.84851,0.05716 2.6965,0.05716c0.448,0 1.33231,-0.02934 2.71982,0.00017c0.84476,0.01797 1.83569,0.22043 2.50952,0.35699c0.80222,0.1626 1.68436,0.34564 2.13998,0.44417c1.35779,0.29362 2.21075,0.48814 2.99533,0.69867c0.70996,0.19051 1.84033,0.56369 2.54169,1c0.89227,0.55508 1.45456,1.14589 2.37366,1.41467c0.84653,0.24756 1.68668,0.03513 2.62634,0.08533c0.79974,0.04272 1.61316,0.35716 2.37366,0.61067c1.168,0.38934 1.76401,0.58801 2.6055,0.8685c0.70651,0.2355 1.70996,0.5488 2.66934,0.74216c0.66061,0.13315 1.4129,0.28448 2.18698,0.42601c1.31857,0.24107 2.14349,0.34224 3.02783,0.35266c0.92496,0.01089 1.84518,-0.01331 2.62653,0.0045c0.79092,0.01802 1.91983,0.19595 2.59448,0.57016c0.72467,0.40196 1.52432,0.42534 2.51367,0.42534c1.02182,0 1.88116,0.00009 2.77701,0c0.83115,-0.00009 1.7308,-0.0011 2.28015,-0.05716c1.19113,-0.12155 2.05795,-0.3567 2.815,-0.59018c0.97885,-0.3019 1.90555,-0.32159 2.78583,-0.35716c0.69611,-0.02812 1.7088,-0.22849 2.44968,-0.60617c0.84634,-0.43144 1.42023,-1.13383 2.336,-1.556c0.75201,-0.34668 1.48166,-0.56053 2.52802,-0.748c0.84174,-0.1508 1.5394,-0.6539 2.12131,-1.23466c0.68335,-0.68201 1.51337,-1.07655 2.13733,-1.276c0.71088,-0.22722 1.92102,-0.37404 2.72,-0.59599c0.9393,-0.26093 1.41302,-0.68851 2.36401,-1.164c0.664,-0.332 1.57779,-0.81111 2.35733,-1.168c0.65616,-0.3004 1.71799,-0.42451 2.436,-0.744c0.9064,-0.40331 1.26877,-1.41331 1.54935,-2.05066c0.41852,-0.95073 1.1499,-1.33809 1.97464,-1.56801c0.9758,-0.27205 1.77631,-0.17097 2.81201,-0.284c0.84482,-0.09219 1.56055,-0.51268 2.10266,-0.88667c1.02698,-0.70851 1.44269,-1.34796 2.23334,-1.94533c0.54034,-0.40825 1.58716,-0.73615 2.31201,-1.02933c0.79785,-0.32271 1.60672,-0.64661 2.6875,-1.11717c0.59525,-0.25917 1.33356,-0.6087 2.36417,-1.12134c0.75946,-0.37776 1.55621,-0.78659 2.211,-1.06949c0.60785,-0.26262 1.58932,-0.664 2.24533,-0.93735c0.75198,-0.31332 1.57599,-0.65666 2.448,-1.01999c0.896,-0.37334 1.79199,-0.74667 2.664,-1.11c0.82401,-0.34334 2.2312,-0.9319 2.77499,-1.15567c0.44037,-0.18121 1.54886,-0.55498 2.457,-0.44099c0.70816,0.08888 1.552,0.25865 2.448,0.40799c0.84799,0.14133 1.88837,0.56401 2.77368,0.20401c0.63715,-0.25908 1.43875,-0.74594 2.23999,-0.77417c0.95892,-0.03378 1.75299,-0.0045 2.76898,-0.0045c0.9505,0 1.86682,-0.01328 2.62402,0.00133c0.94177,0.01816 1.99063,0.12503 2.67917,0.35133c0.76315,0.25084 1.68634,0.69794 2.60483,0.93268c0.58432,0.14934 1.57324,0.39357 2.52798,0.71466c0.82672,0.27803 1.51947,0.5851 2.53317,1.10017c0.59399,0.30182 1.44479,0.68192 2.034,1.55699c0.46027,0.68359 0.47607,1.77277 0.14484,2.50684c-0.38846,0.86092 -1.06177,1.31506 -1.46268,2.09067c-0.39679,0.76767 -0.51617,1.60808 -0.63199,2.23466c-0.25534,1.38139 -0.25763,2.10371 -0.27332,2.77733c-0.02905,1.24821 -0.1098,1.94635 -0.51068,2.90001c-0.3483,0.8286 -0.56268,1.31953 -1.0625,2.39583c-0.26486,0.57034 -0.53687,1.14783 -0.84149,1.70551c-0.85666,1.56836 -1.18414,2.00107 -1.78534,2.80933c-0.56488,0.7594 -0.90292,1.0862 -1.64401,2.256c-0.51529,0.81335 -0.72174,1.26433 -1.125,2.16667c-0.39661,0.88744 -0.56412,1.32857 -1.02014,2.55701c-0.26974,0.72667 -0.61215,1.72122 -0.82019,2.34033c-0.40253,1.19781 -0.58481,1.77263 -0.91599,2.74666c-0.30527,0.89784 -0.72134,1.728 -1.08667,2.45866c-0.39734,0.79468 -0.88666,1.47723 -1.17334,2.40001c-0.35001,1.12662 -0.30948,1.9895 -0.38251,2.47949c-0.16107,1.08073 -0.24869,1.64931 -0.34732,2.22067c-0.28186,1.6329 -0.37823,2.11537 -0.59549,2.96849c-0.27805,1.09184 -0.51007,1.72006 -0.89734,2.92601c-0.18619,0.57979 -0.68112,1.41722 -0.43335,2.43066c0.22073,0.90285 0.47141,1.64059 0.2735,2.38716c-0.24438,0.92197 -0.34174,1.58156 -0.84149,2.5275c-0.43222,0.81808 -0.61499,1.71967 -0.45767,2.48151c0.13116,0.63516 0.3493,1.35681 0.09216,2.75385c-0.12326,0.66962 -0.74911,1.42642 -1.10248,2.32199c-0.31192,0.79056 0.20959,1.59915 0.21198,2.35867c0.00314,1.01096 -0.29242,1.79538 -0.56616,2.59967c-0.26358,0.77448 -0.80707,1.66513 -0.9765,2.62033c-0.14111,0.79556 0.0321,1.77328 -0.08798,2.608c-0.14444,1.00397 -0.43674,1.76511 -0.63068,2.45865c-0.2681,0.95859 0.01843,1.98792 0.12,2.56668c0.16306,0.92917 0.16473,2.1344 -0.42484,2.70465c-0.68243,0.66003 -0.5166,1.23563 -0.12848,1.89136c0.46848,0.7915 0.8728,1.67984 1.035,2.57849c0.14401,0.79794 0.09134,1.74963 0.11566,2.68549c0.01782,0.68597 0.1442,1.60004 0.35132,2.37167c0.26761,0.99701 0.58667,1.90106 0.86902,2.72067c0.21881,0.63516 0.48163,1.42615 1.09949,2.41434c0.4523,0.72342 1.0741,1.32999 1.43616,2.3425c0.2749,0.76871 0.18503,1.65173 0.68533,2.43567c0.43298,0.67847 1.4855,1.08911 2.05734,1.9765c0.37122,0.57605 0.77988,1.30176 1.224,2.07599c0.21991,0.38339 0.95862,1.68735 1.168,2.336c0.28073,0.86972 0.76755,1.64447 1.18399,2.17883c0.50122,0.64316 1.0863,1.34427 1.41333,1.69583c1.00638,1.08197 1.74179,1.71909 2.44818,2.29666c0.63126,0.51614 1.42447,1.04868 2.0625,1.60419c0.70001,0.6095 1.1485,1.11258 1.72266,1.73383c0.65948,0.71356 1.02777,1.08691 1.944,2.41199c0.30688,0.44382 0.8306,1.38257 1.09335,1.84802c0.52283,0.92615 0.72919,1.43271 1.73999,2.65198c0.34033,0.41052 1.1445,1.11728 1.56534,1.42935c0.80606,0.59772 1.56766,1.10715 2.54849,1.53949c0.8844,0.38983 1.59488,0.64993 2.38617,1.69785c0.32941,0.43625 0.70401,0.93866 1.116,1.48798c0.436,0.58136 0.884,1.17868 1.76801,2.35736c0.41199,0.54932 1.12955,1.47806 1.60666,2.14398c0.61441,0.85757 0.9606,1.55927 1.37067,2.42133c0.33084,0.69547 0.68463,1.45068 1.117,2.65533c0.27863,0.77625 0.48538,1.51587 0.66,2.172c0.29196,1.09698 0.52603,1.71274 1.19501,2.92868c0.27148,0.49344 0.58807,1.05859 0.93448,1.68301c0.3696,0.66626 0.7533,1.35849 1.14151,2.06097c0.38477,0.6962 0.76413,1.36627 1.7045,3.10583c0.24564,0.45438 0.71439,1.18933 1.01102,2.133c0.35593,1.13232 0.33337,1.8129 0.36447,2.79453c0.01849,0.58377 0.05664,1.77203 0.51068,2.72266c0.34103,0.71402 0.565,1.12827 1.02084,2.0625c0.24048,0.49286 0.72318,1.48468 1.14581,2.4375c0.37079,0.83588 0.66306,1.55551 0.96716,2.41501c0.36649,1.0358 0.70322,2.08377 0.93417,2.79431c0.28729,0.88385 0.44376,1.37073 0.72668,2.40335c0.14331,0.52307 0.4707,2.04315 0.53598,2.51666c0.1236,0.89667 0.17093,1.75052 0.25201,2.56799c0.11954,1.20526 0.2709,2.01688 0.43817,2.86517c0.08792,0.44586 0.28909,1.39188 0.47916,2.4375c0.20813,1.14499 0.29718,1.73972 0.38934,2.33334c0.17792,1.14618 0.2637,1.67856 0.48917,3.31665c0.10544,0.76602 0.12149,1.70599 0.12149,2.41251c0,0.84149 0,2.03751 0,2.63751c0,0.89999 0,2.09998 0,2.69998c0,0.89999 0,2.10001 0,2.69733c0,0.86102 0,1.63202 0,2.75201c0,0.98401 0.01001,1.65155 0,2.58817c-0.01068,0.99734 -0.34729,1.72253 -0.70984,2.50467c-0.32355,0.698 -0.65555,1.54279 -0.8075,2.01917c-0.50674,1.58868 -0.60306,2.18814 -0.72549,2.79218c-0.24796,1.22336 -0.34451,1.83487 -0.45267,2.43134c-0.29904,1.64951 -0.39038,2.13257 -0.60449,2.98648c-0.18768,0.74854 -0.49918,1.7236 -0.79984,2.62817c-0.28873,0.86874 -0.51837,1.63763 -0.8855,2.64584c-0.32632,0.89621 -0.58282,1.47781 -0.87601,2.20267c-0.32269,0.79785 -0.6452,1.6073 -1.117,2.68716c-0.36664,0.83917 -0.70184,1.60931 -1.19101,2.41815c-0.37891,0.62656 -0.91803,1.43185 -1.12399,1.79468c-0.48965,0.86258 -1.04214,1.95096 -1.34949,2.57965c-0.3288,0.67258 -0.66461,1.38052 -1.01852,2.103c-0.35706,0.72888 -0.71622,1.44952 -1.09048,2.13901c-0.35812,0.65973 -1.37292,2.31183 -2.08652,2.97302c-0.57996,0.53738 -1.20306,0.81406 -2.23981,1.25714c-0.66653,0.28485 -1.62506,0.68835 -2.2605,1.24017c-0.58304,0.50632 -1.07202,1.07068 -1.66135,1.66c-0.58932,0.58932 -1.47348,1.56287 -2.1535,2.09634c-0.66718,0.52341 -1.41971,0.94312 -2.01715,1.25549c-0.98038,0.51257 -1.70258,0.78299 -2.76685,1.10651c-0.63455,0.1929 -1.74933,0.41565 -2.48383,0.79633c-0.70914,0.36752 -1.34879,0.81552 -2.14117,1.24533c-0.83875,0.45496 -1.24417,0.729 -2.49417,1.13568c-1.03024,0.33517 -1.69305,0.2056 -2.80051,0.58582c-0.80545,0.27652 -1.45203,0.90005 -2.28149,1.3425c-0.81021,0.43219 -1.71268,0.72623 -2.38217,0.936c-0.71045,0.22263 -1.811,0.375 -2.64615,0.55716c-0.93109,0.20306 -1.66501,0.5535 -2.237,0.74417c-1.19601,0.39868 -1.79602,0.59866 -2.69601,0.89868c-0.89999,0.29999 -1.78647,0.59558 -2.59198,0.86398c-0.94431,0.31464 -1.7309,0.41824 -2.73203,0.44c-0.73502,0.01596 -1.57089,0.04001 -2.41199,0.25201c-1.24811,0.31461 -1.60495,0.57434 -2.6015,1.22314c-0.60443,0.39352 -1.38937,1.06479 -2.30518,0.98752c-0.96802,-0.0817 -1.68091,-0.63712 -2.68134,-1.03601c-0.73434,-0.29279 -1.13724,-0.45474 -1.98416,-0.7825c-1.25662,-0.4863 -2.01984,-0.76285 -2.70917,-1.01218c-0.9165,-0.33151 -1.96588,-0.7254 -2.64667,-1.03598c-0.63608,-0.29019 -1.62985,-0.82745 -2.31934,-1.10001c-0.84528,-0.33414 -2.00128,-0.60318 -2.45267,-0.70001c-0.9639,-0.20679 -1.46606,-0.29004 -2.45331,-0.5c-1.34698,-0.28644 -2.086,-0.45386 -2.90652,-0.79999c-0.62921,-0.26541 -1.41614,-1.02692 -2.27081,-1.33334c-0.77704,-0.27859 -1.77103,-0.24039 -2.39584,-0.6875c-0.92566,-0.66241 -1.67532,-0.87457 -2.375,-1.12198c-0.96225,-0.34024 -1.55185,-1.00607 -2.54651,-1.27185c-0.67111,-0.17932 -1.64166,-0.14554 -2.48532,0c-0.81232,0.14014 -1.54346,0.4469 -2.34799,0.63068c-1.20642,0.2756 -1.98044,0.16919 -2.936,0.36932c-0.84384,0.17673 -1.57867,0.52533 -2.15067,0.716c-1.19202,0.39734 -2.02774,0.69586 -2.74002,0.91333c-1.01508,0.30991 -1.94211,0.2814 -2.62933,0.37067c-1.19836,0.15567 -1.85709,0.33533 -2.504,0.48935c-1.23932,0.29507 -1.98477,0.47821 -2.78964,0.7915c-0.74063,0.28827 -1.77975,0.95264 -2.25034,1.40048c-0.48218,0.45889 -1.12415,1.28705 -2.01602,1.73334c-0.92267,0.46167 -1.68738,0.45944 -2.41849,0.54367c-1.08133,0.1246 -2.0816,0.29358 -2.66483,0.45633c-1.09177,0.30469 -1.73428,0.59241 -2.69034,1.16434c-0.66739,0.39923 -1.43637,0.8746 -1.83835,1.13165c-0.80884,0.51724 -1.90125,1.26788 -2.47415,1.73785c-0.6907,0.56662 -1.31055,1.26666 -1.91452,1.62866c-0.95551,0.57272 -1.79889,0.90222 -2.26065,1.12415c-0.99503,0.47821 -1.51453,0.72049 -2.04266,0.94669c-1.5094,0.64642 -2.42838,0.95395 -2.84799,1.08398c-1.07227,0.33228 -2.06418,0.49063 -2.724,0.85202c-1.02185,0.55966 -1.3363,0.9436 -2.27734,1.59399c-0.53088,0.36691 -1.09299,0.74246 -1.67999,1.10999c-0.58972,0.3692 -2.32526,1.31354 -2.86884,1.51968c-0.9798,0.37158 -1.45688,0.45743 -2.33252,0.66165c-0.82834,0.19321 -2.04022,0.59247 -2.82748,0.99884c-0.79245,0.40906 -1.13681,0.70621 -1.91916,1.00916c-1.36465,0.52841 -2.11356,0.41812 -2.89069,0.36667c-0.90561,-0.05997 -1.99481,-0.10358 -2.62216,-0.08649c-0.67276,0.01834 -2.09277,0.11536 -2.81,0.17801c-0.70279,0.0614 -1.37518,0.1293 -2.0025,0.1965c-1.46742,0.15723 -2.57216,0.29868 -3.41733,0.28c-0.72687,-0.01605 -1.64572,-0.12048 -2.6635,-0.44c-0.72974,-0.2291 -1.41974,-0.55078 -2.05501,-0.85202c-1.21048,-0.57404 -1.95758,-0.34183 -2.71883,-0.05798c-0.78287,0.2919 -1.29999,-0.16071 -2.25517,-0.97549c-0.44215,-0.37717 -0.92747,-0.79822 -2.01266,-1.69269c-0.56564,-0.46625 -1.13455,-0.92783 -1.70551,-1.3605c-1.05482,-0.79935 -1.99014,-1.39737 -2.39883,-1.6553c-0.73045,-0.46103 -1.44873,-0.85043 -2.16649,-1.79669c-0.55734,-0.73477 -0.93268,-1.69241 -1.14584,-2.16666c-0.42026,-0.93491 -0.51985,-1.43991 -1.22049,-2.49234c-0.5107,-0.76712 -1.59613,-1.26563 -1.84851,-1.84616c-0.40063,-0.92157 -0.30487,-1.78723 -0.47266,-2.70316c-0.08769,-0.47873 -0.24989,-1.43274 -0.57901,-2.67285c-0.17912,-0.67493 -0.53035,-1.53821 -0.73349,-2.78549c-0.12117,-0.74393 -0.1382,-1.55444 -0.15601,-2.35199c-0.01619,-0.72522 -0.01067,-1.87119 -0.01067,-2.72269c0,-0.75467 0,-1.92532 0,-2.67465c0,-0.80533 0,-1.60266 0,-2.328c0,-1.29599 -0.00447,-2.25604 0.00133,-2.84534c0.01102,-1.11911 -0.04076,-1.53085 0.16534,-3.07733c0.08702,-0.65302 0.36089,-1.49783 0.53783,-2.05801c0.41103,-1.3013 0.59531,-2.10358 0.68483,-2.52866c0.18352,-0.87149 0.35196,-1.74341 0.48917,-2.96982c0.0799,-0.71411 -0.07443,-1.63272 0.1255,-2.69418c0.13284,-0.70529 0.85428,-1.66977 1.272,-2.40799c0.22743,-0.40192 0.73357,-1.22168 1.224,-2.508c0.28392,-0.74466 0.42943,-1.4259 0.4865,-2.25284c0.07065,-1.02371 0.17169,-1.91565 0.37517,-2.86185c0.17281,-0.80359 0.26227,-1.24234 0.52501,-2.13998c0.40013,-1.36703 0.58278,-1.79352 0.92799,-2.60001c0.31213,-0.72919 0.91208,-1.78809 1.18533,-2.56201c0.43071,-1.21988 0.44577,-1.68723 0.70534,-2.75598c0.14708,-0.60559 0.29741,-1.24341 0.444,-1.90201c0.1481,-0.66537 0.52591,-2.59073 0.60783,-3.17267c0.14857,-1.05527 0.18288,-1.54187 0.25749,-2.44333c0.06931,-0.83725 0.19669,-2.04404 0.338,-2.83368c0.13765,-0.76913 0.33698,-1.4877 0.52583,-2.76566c0.11035,-0.74673 0.09875,-1.8045 0.20683,-2.46735c0.16408,-1.00626 0.34647,-1.73352 0.48933,-2.55731c0.14803,-0.85355 0.30397,-2.07587 0.37717,-2.80884c0.06882,-0.68903 0.1768,-1.70407 0.49068,-2.73151c0.22899,-0.7496 0.55881,-1.51334 0.795,-2.34c0.12054,-0.42191 0.33542,-1.75986 0.2955,-2.673c-0.03865,-0.88431 -0.22075,-1.67865 -0.36633,-2.63199c-0.13303,-0.87109 0.16745,-1.99979 0.40266,-2.828c0.14098,-0.4964 0.295,-1.03519 0.616,-2.20801c0.16808,-0.61407 0.34598,-1.23251 0.793,-3.05383c0.13936,-0.56778 0.26984,-1.11359 0.48,-2.13934c0.18887,-0.92188 0.39149,-2.10229 0.45634,-2.75348c0.08659,-0.8696 0.08466,-1.78802 0.08533,-2.93619c0.00026,-0.45181 0,-1.42648 0,-2.44916c0,-0.51184 0,-1.96533 0,-2.80933c0,-0.74802 0,-1.42401 0,-2.65601c0,-0.88651 -0.1257,-1.70041 0.00017,-2.63583c0.11165,-0.82974 0.548,-1.43423 0.71584,-2.13751c0.28052,-1.17542 0.26176,-1.85562 0.2795,-2.80698c0.02017,-1.08215 0.0045,-2.08368 0.0045,-2.69568c0,-0.87201 0,-1.88199 0,-2.78201c0,-0.88397 0,-1.866 0,-2.79398c0,-0.64801 0,-1.784 0,-2.64801c0,-0.79733 0,-1.55634 0,-2.57834c0,-0.88 0,-1.89999 0,-2.755c0,-0.83115 -0.00012,-1.72916 0,-2.28015c0.00026,-1.18735 0.032,-2.13983 0.108,-2.86652l0.14799,-0.84665" id="svg_1" stroke-width="2" stroke="#000" fill="none"/>
  <path t="5232,5250,5251,5251,5251,5251,5268,5268,5271,5272,5272,5272,5272,5275,5275,5275,5302,5322,5322,5322,5322,5322,5325,5326,5326,5336,5336,5369,5370,5370,5370,5370,5370,5371,5371,5374,5375,5375,5375,5375,5376,5379,5379,5380,5380,5380,5384,5401,5401,5401,5418,5418,5418,5419,5424,5424,5424,5425,5428,5428,5428,5454,5454,5476,5476,5477,5477,5477,5480,5480,5481,5485,5485,5488,5488,5489,5489,5490,5492,5493,5493,5493,5494,5494,5518,5518,5534,5535,5535,5535,5536,5536,5551,5551,5552,5552,5552,5553,5556,5556,5557,5557,5557,5558,5563,5564,5564,5584,5588,5588,5589,5589,5590,5590,5592,5593,5593,5593,5617,5618,5621,5622,5622,5622,5623,5625,5626,5626,5626,5627,5651,5652,5670,5671,5671,5671,5672,5673,5673,5674,5674,5685,5686,5686,5687,5687,5688,5688,5688,5689,5692,5693,5693,5693,5696,5697,5697,5737,5737,5741,5741,5742,5742,5743,5745,5746,5746,5747,5752,5752,5756,5756,5757,5757,5758,5761,5761,5762,5762,5784,5785,5801,5801,5802,5802,5803,5804,5805,5805,5818,5818,5819,5819,5820,5820,5837,5838,5839,5839,5840,5840,5851,5851,5852,5853,5853,5867,5868,5869,5870,5885,5888,5888,5889,5892,5893,5893,5894,5897,5898,5899,5935,5950,5951,5952,5952,6117,6118,6134,6135,6138,6139,6153,6154,6155,6155,6158,6159,6159,6185,6190,6191,6196,6197,6197,6198,6203,6219,6220,6221,6235,6236,6269,6270,6271,6272,6277,6338,6338,6339,6344,6345,6350,6351,6354,6355,6356,6360,6360,6369,6370,6371,6379,6380,6381,6386,6387,6402,6434,6435,6436,6437,6437,6438,6439,6443,6444,6444,6445,6450,6451,6452,6453,6471,6476,6490,6491,6492,6493,6493,6494,6495,6496,6501,6502,6503,6504,6505,6505,6507,6507,6534,6535,6536,6537,6538,6538,6539,6540,6544,6545,6545,6546,6547,6548,6549,6550,6553,6555,6555,6556,6557,6572,6576,6577,6578,6579,6580,6583,6587,6589,6590,6601,6602,6618,6619,6620,6620,6621,6622,6634,6635,6636,6650,6652,6652,6657,6658,6659,6664,6666,6685,6700,6701,6703,6708,6719,6724,6725,6730,6733,6734,6763,6791,6792,6793,6798,6799,6801,6802,6807,6811,6813,6817,6819,6867,6868,6872,6873,6874,6878,6880,6884,6901,6917,6918,6952,6953,6959,6961,6967,6985,7003,7004,7006,7024,7025,7027,7034,7036,7037,7038,7040,7041,7051,7052,7054,7059,7060,7065,7067,7085,7101,7103,7104,7106,7118,7119,7121,7135,7136,7157,7158,7160,7162,7168,7170,7171,7177,7183,7188,7193,7195,7196,7199,7201,7210,7218,7220,7226,7227,7238,7243,7244,7246,7247,7250,7256,7258,7259,7261,7268,7270,7275,7277,7278,7280,7282,7284,7291,7294,7296,7297,7299,7302,7303,7309,7310,7312,7328,7329,7331,7333,7335,7336,7338,7340,7342,7348,7350,7352,7354,7355,7357,7358,7360,7361,7368,7370,7371,7373,7374,7375,7376,7377,7379,7389,7390,7392,7393,7395,7396,7398,7400,7401,7405,7407,7408,7409,7410,7412,7417,7418,7419,7421,7422,7423,7424,7426,7427,7431,7433,7435,7436,7437,7438,7440,7441,7443,7450,7452,7453,7455,7456,7458,7459,7460,7462,7467,7468,7470,7472,7478,7479,7481,7482,7484,7489,7490,7492,7493,7494,7496,7500,7502,7504,7506,7507,7508,7510,7511,7512,7518,7519,7521,7522,7523,7525,7526,7527,7529,7535,7537,7538,7540,7541,7543,7544,7546,7547,7552,7553,7555,7556,7558,7559,7561,7562,7564,7568,7570,7571,7573,7574,7578,7580,7582,7583,7585,7586,7588,7589,7591,7602,7605,7609,7611,7612,7614,7620,7622,7623,7625,7626,7628,7629,7631,7637,7640,7641,7643,7644,7646,7647,7649,7655,7657,7659,7663,7665,7670,7674,7676,7680" d="m304,227c-12.5,-14.16667 -13.17746,-14.93515 -13.72266,-15.552c-0.75815,-0.85779 -1.42734,-1.59665 -1.99619,-2.16682c-0.53787,-0.53914 -1.44406,-1.45166 -1.96649,-1.96384c-0.54675,-0.53601 -1.1048,-1.08176 -1.716,-1.548c-0.87051,-0.66406 -1.75888,-1.10602 -2.52716,-1.40317c-0.90494,-0.35001 -1.57397,-1.03099 -1.92484,-1.50616c-0.43643,-0.59106 -0.92584,-1.2543 -1.38,-1.98c-0.65149,-1.041 -1.09741,-2.0067 -1.30933,-2.56134c-0.40594,-1.06244 -0.79395,-1.70695 -1.45734,-2.48534c-0.70599,-0.82838 -1.12991,-1.31963 -1.58401,-1.85333c-0.47894,-0.56293 -0.97287,-1.14592 -1.4715,-1.73999c-0.49738,-0.59259 -1.44635,-1.73851 -1.87997,-2.27534c-0.79639,-0.98593 -1.15475,-1.44742 -1.83252,-2.29666c-0.31766,-0.39801 -1.22443,-1.50806 -1.828,-2.17867c-0.56497,-0.62772 -1.09665,-1.17001 -1.548,-1.632c-0.8364,-0.85611 -1.29898,-1.52184 -1.728,-2.16533c-0.53699,-0.80548 -1.1308,-1.69016 -1.52667,-2.29201c-0.39346,-0.59816 -0.97165,-1.48555 -1.43466,-2.39999c-0.29935,-0.59122 -0.6521,-1.49777 -0.86215,-2.10001c-0.41687,-1.19519 -0.69382,-2.06799 -0.94733,-2.82849c-0.30899,-0.927 -0.52844,-1.57886 -0.79984,-2.40001c-0.26453,-0.80038 -0.56161,-1.73273 -0.70667,-2.22749c-0.29129,-0.99353 -0.62872,-2.37581 -0.73636,-3.159c-0.09042,-0.65781 -0.07745,-1.78795 -0.15033,-2.46901c-0.12341,-1.15317 -0.32074,-1.95457 -0.39999,-2.42133c-0.17371,-1.02284 -0.26385,-1.56534 -0.564,-3.228c-0.09831,-0.54462 -0.29478,-1.58714 -0.38933,-2.07733c-0.17337,-0.89893 -0.34612,-1.65742 -0.558,-2.83501c-0.15158,-0.84245 -0.27625,-1.8042 -0.40533,-2.7455c-0.07396,-0.53934 -0.15392,-1.11223 -0.29468,-2.326c-0.07204,-0.62111 -0.1947,-1.84892 -0.26866,-3.0135c-0.03551,-0.55925 -0.08195,-1.64861 -0.10933,-2.18399c-0.05461,-1.06822 -0.13718,-2.15244 -0.19583,-2.70618c-0.11858,-1.11926 -0.20114,-1.67163 -0.3175,-2.74582c-0.05511,-0.50879 -0.21199,-1.87639 -0.0515,-2.89568c0.11572,-0.73492 0.54317,-1.72572 0.25684,-2.63766c-0.22394,-0.71324 -0.52907,-1.59431 -0.6875,-2.08334c-0.33325,-1.0286 -0.50688,-1.5509 -0.9575,-3.073c-0.13818,-0.46674 -0.37959,-1.32779 -0.575,-2.07833c-0.33282,-1.27832 -0.40376,-1.93924 -0.22551,-3.094c0.12437,-0.80575 0.20604,-1.26452 0.3175,-2.26334c0.05803,-0.51997 0.15356,-2.07597 0.092,-3.032c-0.02863,-0.44459 -0.21135,-1.61167 -0.34799,-2.232c-0.2489,-1.12989 -0.33676,-1.81187 -0.44934,-3.144c-0.05553,-0.65694 -0.11803,-1.41605 -0.19049,-2.259c-0.07816,-0.90906 -0.16225,-1.86613 -0.25351,-2.853c-0.09239,-0.99914 -0.18156,-1.99297 -0.38933,-3.888c-0.09549,-0.87096 -0.19717,-1.68401 -0.291,-2.4435c-0.08752,-0.70852 -0.17117,-1.36858 -0.237,-1.9845c-0.06125,-0.57313 -0.13904,-1.10728 -0.13867,-2.072c0.00032,-0.84466 0.20221,-1.93488 0.20418,-2.5865c0.00366,-1.21725 -0.25818,-1.82202 -0.69751,-2.6055c-0.54649,-0.97459 -0.83289,-1.63748 -0.84016,-2.63667c-0.00586,-0.80533 0.00035,-1.26633 -0.03583,-2.26334c-0.03795,-1.04581 -0.11122,-2.07725 -0.248,-3.032c-0.12378,-0.86404 -0.28703,-1.61153 -0.54933,-2.70934c-0.1644,-0.68805 -0.38727,-1.77418 -0.52383,-2.448c-0.1626,-0.80222 -0.34566,-1.68436 -0.44417,-2.14c-0.29352,-1.35759 -0.4921,-2.20399 -0.67784,-2.9745c-0.16187,-0.67143 -0.48843,-1.91454 -0.51633,-2.60066c-0.04076,-1.00269 -0.00464,-2.0662 -0.0135,-2.7c-0.00958,-0.68488 -0.02702,-1.40792 -0.063,-2.1555c-0.03659,-0.76013 -0.05087,-1.52477 -0.26132,-2.98133c-0.1925,-1.33235 -0.367,-1.94054 -0.528,-2.52267c-0.30602,-1.10647 -0.50937,-1.62015 -0.972,-3.144c-0.15118,-0.498 -0.41153,-1.49402 -0.52,-1.98933c-0.21286,-0.97194 -0.37672,-1.9233 -0.48,-2.844c-0.09868,-0.87969 -0.13678,-1.73096 -0.192,-2.556c-0.0542,-0.80965 -0.18147,-2.01315 -0.33183,-2.80617c-0.14914,-0.78656 -0.33624,-1.5504 -0.64284,-2.63783c-0.19304,-0.68467 -0.50316,-1.66571 -0.7,-2.31934c-0.30492,-1.01254 -0.6028,-2.0937 -0.77917,-2.8265c-0.17073,-0.70934 -0.39423,-1.68325 -0.48483,-2.7275c-0.06232,-0.71814 -0.036,-1.57017 -0.036,-2.71467c0,-0.716 0.00127,-1.488 0,-2.244c-0.002,-1.19201 -0.1362,-2.0852 -1.0625,-2.2775c-0.68445,-0.14209 -1.79433,-0.05717 -2.64951,-0.05717c-0.95467,0 -1.71216,0 -2.35049,0c-1.0575,0 -2.11549,0 -3.0695,0c-0.79199,0 -1.70604,-0.02686 -2.59132,0.0045c-0.80124,0.02838 -1.92041,0.21004 -2.573,0.34817c-0.6635,0.14044 -1.54376,0.48047 -2.68285,0.6265c-0.86862,0.11136 -1.5625,0.02225 -2.33949,0.02083c-1.23317,-0.00225 -1.94733,-0.00221 -3.01466,-0.16667c-0.63943,-0.09852 -1.68942,-0.34666 -2.4185,-0.53783c-1.08447,-0.28436 -1.76527,-0.48387 -2.7065,-0.7955c-0.58243,-0.19283 -1.62723,-0.58352 -2.47917,-0.97917c-0.82748,-0.38429 -1.31636,-0.86043 -1.91451,-1.65683c-0.42438,-0.56505 -0.93022,-1.12145 -1.64799,-2.19733c-0.47171,-0.70706 -0.21466,-1.52267 0.02083,-2.22917c0.2805,-0.8415 0.67204,-2.03733 0.87917,-2.61617c0.29007,-0.81062 0.74677,-1.89105 1.24284,-2.45517c0.51286,-0.58321 1.35568,-1.20128 2.06516,-1.7875c0.42064,-0.34756 1.3524,-1.10219 1.84801,-1.488c0.49741,-0.38721 0.96188,-0.80778 2.3795,-1.70483c0.77539,-0.49066 1.5024,-0.82249 2.151,-1.125c0.91405,-0.42631 1.80464,-0.9014 2.351,-1.24c0.71268,-0.44167 1.68874,-0.98009 2.32651,-0.93283c1.23299,0.09137 1.80122,0.19696 2.4415,0.26467c0.69705,0.07371 1.44012,0.1494 2.21849,0.222c0.80197,0.0748 1.61653,0.15317 3.24268,0.25867c0.78998,0.05125 2.31906,0.11721 3.06133,0.152c0.73039,0.03423 1.45108,0.07028 2.16301,0.1245c0.70679,0.05383 2.1104,0.21485 2.80916,0.33317c0.7027,0.11899 2.1115,0.42488 2.82066,0.59867c0.7162,0.17551 1.43654,0.36657 2.16451,0.561c1.48175,0.39577 2.23515,0.59786 2.99333,0.796c0.75581,0.19752 1.50401,0.39058 2.23801,0.5805c0.714,0.18475 1.40443,0.35455 3.25,0.85417c0.52603,0.14241 1.43571,0.39936 2.16666,0.625c0.80594,0.24879 1.85204,0.63625 2.66667,1.04167c0.70786,0.35228 1.57489,0.79437 2.04166,1.04167c0.9599,0.50858 1.45047,0.73669 2.672,1.5365c0.66321,0.43425 1.33145,1.08428 2.04453,1.6795c0.60162,0.50219 1.40884,0.90835 2.23114,1.37967c0.48407,0.27745 1.00031,0.5719 2.06934,1.19733c0.53064,0.31046 1.94376,1.16156 2.3125,1.40067c0.82904,0.53758 1.79065,1.12376 2.47552,1.23933c0.83527,0.14095 1.83838,0.29635 2.61166,0.52533c0.69049,0.20447 1.87524,0.51949 2.69098,0.5c0.87225,-0.02084 1.68857,-0.59278 2.37152,-0.97917c0.69775,-0.39476 1.53104,-0.16101 2.431,-0.0825c0.81628,0.07121 1.48312,-0.66498 2.24783,-1.2595c0.60062,-0.46694 1.12057,-1.28317 2.01999,-1.727c0.8526,-0.42072 1.52005,-0.37813 2.18701,-0.5985c1.4418,-0.4764 2.11249,-0.82059 2.72531,-1.168c0.80365,-0.45558 1.61041,-1.02383 2.43735,-1.47067c0.61288,-0.33117 1.51819,-0.94499 2.14401,-1.42933c0.7027,-0.54383 1.53488,-0.91798 2.45331,-1.28533c0.77429,-0.30971 1.56268,-0.709 2.5,-0.66667c0.79251,0.0358 1.50269,0.66593 2.35419,0.66667c0.95782,0.00083 1.75534,-0.00589 2.63184,0.35717c0.71753,0.29721 1.71786,0.86072 2.06067,1.52817c0.43976,0.85621 0.29727,1.87223 0.2865,2.779c-0.01041,0.87751 -0.01938,1.66985 -0.2865,2.65567c-0.20532,0.75774 -0.48572,1.30007 -0.88,2.34667c-0.32626,0.86603 -0.65851,1.83473 -0.83334,2.33333c-0.34695,0.98946 -0.49475,1.47206 -0.97849,2.714c-0.36942,0.94843 -0.71094,1.67103 -1.12152,2.48583c-0.3942,0.78228 -0.89969,1.63373 -1.37915,2.2585c-0.54584,0.71126 -0.73853,1.6493 -0.87802,2.3095c-0.1593,0.75393 -0.27692,1.54914 -0.74249,2.8465c-0.24295,0.67703 -0.58716,1.35423 -0.49948,2.4c0.06805,0.81196 0.1351,1.99594 -0.05286,2.58567c-0.29303,0.91937 -0.73859,1.47313 -0.88367,2.6995c-0.06897,0.58294 0.02615,1.70039 0.483,2.5335c0.4165,0.75952 1.04733,1.37228 1.05267,2.167c0.00473,0.70398 0,1.552 0,2.448c0,0.848 -0.11594,2.07765 0.2215,2.99483c0.22476,0.61088 0.89923,1.51924 1.3425,2.1105c0.57361,0.76511 0.87885,1.77516 1.14584,2.57617c0.15149,0.4545 0.47549,1.4265 0.642,1.926c0.48151,1.4445 0.76151,2.2845 1.0015,3.0045c0.20001,0.60001 0.56403,1.69199 0.81601,2.44801c0.27368,0.82115 0.54578,1.63924 0.70267,2.11866c0.35107,1.07276 0.53925,1.65679 0.73065,2.26667c0.60413,1.92479 0.79553,2.58241 0.98834,3.23233c0.18851,0.63541 0.36856,1.24898 0.69467,2.37867c0.1442,0.4995 0.55185,1.91755 0.75598,2.66233c0.18054,0.65865 0.62506,2.33332 0.84402,3.15467c0.25308,0.94931 0.53421,2.00461 0.83698,3.144c0.31921,1.20127 0.64847,2.44254 0.98102,3.702c0.33145,1.25522 0.96429,3.66566 1.25317,4.78217c0.2724,1.05285 0.52707,2.04965 0.7605,2.9985c0.22278,0.90553 0.42935,1.77644 0.61649,2.6205c0.1821,0.8213 0.5036,2.43077 0.64465,3.231c0.14026,0.79579 0.26642,1.58668 0.38553,2.3685c0.11719,0.7692 0.22528,1.524 0.33148,2.2605c0.10315,0.7155 0.30243,2.07183 0.40433,2.70617c0.09686,0.60299 0.19427,1.17158 0.28952,1.704c0.08853,0.4949 0.17389,0.94948 0.25348,1.362c0.07117,0.3688 0.19086,0.96593 0.23618,1.19483c0.03995,0.20178 0.08044,0.39912 0.21832,1.19917c0.16098,0.93405 0.40268,2.40533 0.56668,3.38934c0.18799,1.128 0.39401,2.364 0.612,3.672c0.224,1.344 0.44797,2.688 0.66599,3.996c0.20599,1.236 0.5578,3.34803 0.69385,4.16267c0.11066,0.6627 0.20071,1.20151 0.2775,1.644c0.06503,0.3748 0.12576,0.7095 0.1875,1.032c0.06488,0.33885 0.23196,1.17612 0.34235,1.724c0.12817,0.63614 0.27341,1.34848 0.43948,2.12401c0.17743,0.82852 0.37036,1.69701 0.5835,2.592c0.21744,0.91306 0.69412,2.73785 0.95483,3.625c0.25415,0.86485 0.51868,1.69533 0.78302,2.487c0.25055,0.75029 0.49661,1.44873 0.729,2.091c0.21045,0.58167 0.56879,1.53235 0.70297,1.89717c0.11353,0.30861 0.37289,1.15485 0.522,1.905c0.09998,0.50302 0.34216,1.89746 0.50616,2.82817c0.18936,1.07463 0.39902,2.2672 0.6225,3.55199c0.23489,1.35056 0.47482,2.74109 0.71252,4.14601c0.2356,1.39241 0.66962,4.03766 0.858,5.24432c0.17548,1.12404 0.33258,2.17473 0.48148,3.159c0.14014,0.92641 0.27274,1.80321 0.40952,2.63701c0.13138,0.80086 0.41339,2.33208 0.57315,3.07567c0.15765,0.73376 0.32828,1.45209 0.50403,2.15399c0.17163,0.68544 0.34811,1.34966 0.52197,1.992c0.16754,0.61897 0.48682,1.77579 0.63101,2.31084c0.13574,0.50363 0.26056,0.97552 0.375,1.41451c0.1055,0.40469 0.20032,0.77458 0.285,1.10849c0.07529,0.29677 0.19412,0.77573 0.24084,0.9585c0.12512,0.48962 0.34479,1.26605 0.46082,1.673c0.32617,1.14413 0.54532,1.90933 0.79599,2.78667c0.27466,0.96133 0.56534,1.97867 0.86401,3.024c0.29868,1.04533 0.58932,2.06267 0.86401,3.024c0.46936,1.64267 0.6507,2.27623 0.79733,2.79199c0.11929,0.41959 0.22244,0.76361 0.435,1.57834c0.24448,0.93707 0.47424,1.88905 0.60898,2.4675c0.14819,0.63618 0.30005,1.3246 0.444,2.05949c0.151,0.77075 0.31119,1.57092 0.51733,3.24535c0.10486,0.85167 0.16916,1.70625 0.21902,2.54999c0.04865,0.82298 0.07623,1.61658 0.09299,2.37001c0.01566,0.70326 0.02133,2.41333 0.02133,3.14932c0,1.00801 -0.00482,1.82202 0,2.70601c0.00534,0.98204 0.284,1.91 0.5,2.558l0.33334,1" id="svg_2" stroke-width="2" stroke="#000" fill="none"/>
  <path t="8108,8151,8151,8151,8151,8151,8151,8151,8152,8157,8157,8157,8157,8157,8157,8157,8157,8157,8160,8160,8160,8160,8160,8160,8160,8161,8161,8185,8185,8185,8186,8186,8186,8186,8186,8186,8205,8206,8206,8206,8206,8206,8207,8207,8207,8210,8211,8211,8211,8211,8212,8212,8212,8212,8218,8218,8218,8218,8219,8219,8219,8220,8220,8234,8235,8235,8236,8239,8240,8241,8242,8243,8253,8254,8254,8254,8255,8255,8256,8256,8256,8260,8260,8261,8261,8261,8262,8262,8262,8263,8267,8268,8268,8269,8269,8270,8270,8271,8271,8274,8275,8275,8276,8276,8277,8277,8278,8278,8281,8282,8283,8283,8284,8284,8285,8285,8286,8302,8303,8303,8304,8304,8305,8305,8305,8306,8310,8311,8311,8312,8312,8312,8313,8313,8314,8320,8321,8321,8322,8322,8323,8323,8324,8324,8351,8352,8352,8353,8354,8354,8355,8355,8356,8368,8368,8369,8370,8370,8371,8371,8372,8372,8376,8377,8377,8378,8378,8379,8380,8380,8381,8385,8386,8386,8387,8387,8388,8389,8390,8390" d="m269,35c7.5,24.16667 7.90692,25.47913 8.23868,26.54533c0.26898,0.86444 0.48953,1.57102 0.67798,2.163c0.16638,0.52265 0.49786,1.53305 0.91669,2.79167c0.27338,0.82154 0.59027,1.77126 0.93448,2.8305c0.37198,1.1447 0.75815,2.35543 1.14151,3.6135c0.38971,1.27892 0.78909,2.55537 1.42401,5.056c0.29596,1.16568 0.53284,2.27426 0.73349,3.3165c0.18674,0.96996 0.33447,1.87019 0.4545,2.6955c0.10846,0.7458 0.18942,1.41183 0.31201,2.488c0.04654,0.40861 0.08188,0.75031 0.13199,1.044c0.04636,0.27169 0.11267,0.54098 0.20401,0.828c0.10587,0.33268 0.25473,0.72581 0.664,1.79466c0.27313,0.71333 0.59348,1.54343 0.948,2.481c0.38962,1.03038 0.80505,2.14288 1.23599,3.327c0.4512,1.23984 0.92041,2.52243 1.81601,5.19199c0.45282,1.34974 0.87976,2.69882 1.2915,4.0275c0.40018,1.29136 0.7731,2.53438 1.12048,3.7125c0.32346,1.09692 0.61261,2.09982 1.08801,3.75999c0.18222,0.63627 0.33423,1.17119 0.474,1.641c0.13232,0.44483 0.27451,0.90115 0.43799,1.40701c0.19226,0.59489 0.43173,1.31476 1.08801,3.28533c0.43765,1.31406 0.94382,2.83162 1.5015,4.518c0.60107,1.81759 1.23026,3.73116 1.87048,5.706c0.64746,1.99715 1.29575,3.97871 2.46133,7.776c0.53366,1.73862 1.00937,3.36722 1.44751,4.88699c0.40833,1.41629 0.77972,2.73857 1.13251,3.96901c0.32901,1.14752 0.62097,2.22427 1.25333,4.144c0.28787,0.87392 0.58932,1.68262 0.88651,2.42999c0.27533,0.69249 0.54691,1.32184 0.80548,1.89001c0.23285,0.51167 0.45111,0.96045 0.80801,1.67999c0.13617,0.27451 0.25638,0.51277 0.3555,0.74699c0.10513,0.24841 0.20987,0.54373 0.32849,0.90901c0.14911,0.45917 0.32483,1.04242 0.81601,2.67732c0.32889,1.09467 0.70749,2.35843 1.125,3.7605c0.44922,1.50858 0.91852,3.09312 1.39499,4.72351c0.48022,1.64328 0.95947,3.26709 1.81335,6.34933c0.38611,1.39374 0.72629,2.68173 1.02899,3.864c0.27563,1.07649 0.51501,2.05209 0.72299,2.92799c0.18445,0.77684 0.33951,1.45848 0.58133,2.54134c0.09131,0.40892 0.16693,0.75224 0.237,1.05299c0.06601,0.28325 0.13712,0.57224 0.21902,0.89101c0.09592,0.37328 0.21564,0.8241 0.54398,2.056c0.21896,0.82156 0.47263,1.7722 0.75751,2.83051c0.30838,1.14571 0.63678,2.35742 0.98251,3.61349c0.35257,1.28094 0.70361,2.5668 1.42667,5.056c0.34009,1.17084 0.67484,2.27676 0.996,3.3165c0.30032,0.97221 0.58578,1.87149 0.85199,2.6955c0.2413,0.74695 0.4613,1.412 0.81866,2.48801c0.13651,0.411 0.25574,0.76689 0.3555,1.10699c0.1044,0.35588 0.20947,0.76741 0.32849,1.26901c0.14859,0.62627 0.32468,1.41585 0.81601,3.62399c0.32858,1.47675 0.70547,3.17464 1.12051,5.04449c0.44232,1.9928 0.90067,4.0596 1.36349,6.1515c0.45749,2.06776 0.89984,4.06212 1.68265,7.63733c0.32687,1.49295 0.60648,2.78539 0.8475,3.89551c0.20566,0.9472 0.37967,1.75079 0.5325,2.4285c0.12912,0.57256 0.23407,1.06075 0.45334,1.84267c0.09442,0.33672 0.19553,0.64244 0.2955,0.91949c0.091,0.25221 0.18365,0.47633 0.26849,0.6765l0.07883,0.17618l0.07184,0.15317" id="svg_3" stroke-width="2" stroke="#000" fill="none"/>
  <path t="8845,8868,8868,8868,8868,8868,8869,8869,8884,8884,8884,8884,8885,8885,8885,8885,8901,8901,8901,8901,8901,8902,8902,8902,8902,8910,8910,8911,8911,8911,8911,8911,8911,8912,8914,8915,8915,8915,8916,8916,8916,8916,8916,8920,8920,8920,8920,8921,8921,8921,8921,8921,8951,8952,8952,8952,8952,8952,8953,8953,8953,8956,8956,8956,8956,8957,8957,8957,8957,8958,8960,8960,8960,8961,8961,8961,8961,8962,8962,8985,8985,8986,8986,8986,8987,8987,8987,8988,8991,8992,8992,8993,8993,8993,8994,8994,8995,8999,8999,9000,9001,9001,9001,9002,9002,9003,9006,9006,9007,9007,9008,9008,9009,9009,9009,9018,9018,9019,9019,9020,9020,9021,9021,9022" d="m272,49c5,22.5 5.27048,23.7214 5.492,24.70934c0.17767,0.79235 0.31067,1.42868 0.552,2.36266c0.19333,0.74817 0.45905,1.59376 0.80933,2.78c0.211,0.71463 0.43668,1.49641 0.66751,2.3355c0.24271,0.8822 0.48798,1.79798 0.71249,2.7405c0.45279,1.90079 0.6282,2.85045 0.80133,3.792c0.17288,0.94013 0.33252,1.8873 0.50699,2.8425c0.17746,0.97149 0.3623,1.96519 0.59702,2.9775c0.49493,2.1346 0.83823,3.24783 1.19867,4.39467c0.36905,1.17429 0.77167,2.35703 1.1835,3.54449c0.41083,1.18454 0.8299,2.35152 1.22849,3.4995c0.75873,2.18521 1.09085,3.21094 1.392,4.184c0.28287,0.91405 0.53265,1.77106 0.75452,2.5665c0.20322,0.72865 0.37823,1.3905 0.52948,1.9815c0.24445,0.95521 0.33206,1.31991 0.40933,1.62667c0.06876,0.2729 0.13562,0.53477 0.207,0.8085c0.08057,0.30895 0.17783,0.67571 0.297,1.1235c0.32751,1.2308 0.54697,2.05349 0.80402,3.012c0.28986,1.08083 0.6106,2.26972 0.96149,3.552c0.37302,1.36308 0.76721,2.79239 1.18652,4.272c0.86816,3.06357 1.32947,4.61629 1.79199,6.17867c0.46448,1.56897 0.9343,3.14067 1.39648,4.716c0.46179,1.57399 0.92023,3.14478 1.3515,4.716c0.85428,3.11237 1.23203,4.65851 1.59467,6.17867c0.35287,1.47923 0.67444,2.90851 0.97052,4.272c0.27835,1.28191 0.5257,2.47092 0.74548,3.552c0.36203,1.78065 0.49503,2.46072 0.60535,3.01732c0.09125,0.46042 0.16776,0.85181 0.23248,1.20151c0.06189,0.33432 0.12231,0.68089 0.1875,1.0665c0.16833,0.99573 0.27563,1.65485 0.40668,2.42534c0.1488,0.87486 0.31747,1.84579 0.51001,2.90399c0.20728,1.13918 0.43353,2.35062 0.69,3.62401c0.54623,2.71214 0.86517,4.12685 1.19199,5.56267c0.32718,1.43753 0.66187,2.85385 0.99301,4.23c0.31696,1.31715 0.62085,2.5536 0.90298,3.69c0.47015,1.89378 0.65222,2.61774 0.80133,3.20667c0.12137,0.47937 0.22296,0.87399 0.3165,1.2075c0.08405,0.29977 0.17276,0.58884 0.27151,0.8925c0.24539,0.75461 0.41187,1.24751 0.60931,1.81999c0.22223,0.6443 0.48001,1.34666 0.76501,2.10001l0.315,0.79333l0.345,0.82333l0.375,0.84332" id="svg_4" stroke-width="2" stroke="#000" fill="none"/>
  <path t="9574,9619,9619,9619,9620,9620,9627,9627,9627,9627,9631,9631,9631,9631,9632,9632,9636,9636,9651,9652,9652,9652,9669,9670,9670,9670,9670,9670,9671,9687,9687,9688,9688,9688,9688,9692,9692,9692,9693,9696,9700,9700,9700,9700,9701,9701,9719,9719,9722,9722,9723,9723,9723,9723,9724,9726,9727,9727,9727,9727,9728,9756,9757,9768,9769,9769,9769,9772,9773,9773,9773,9774,9774,9778,9778,9781,9781,9782,9791,9792,9822,9822,9823,9823,9823,9824,9827,9828,9828,9829,9829,9832,9833,9833,9837,9842,9843,9843,9844,9844,9844,9848,9849,9850,9850,9873,9873,9877,9878,9878,9879,9884,9884,9885,9885,9902,9902,9921,9922,9923,9923,9925,9935,9936,9936,9937,9951,9951,9952,9952,9956,9956,9957,9957,9961,9961,9962,9985,9985,9989,9990,9990,9991,9994,9994,9995,9995,9996,9996,10021,10021,10025,10026,10026,10027,10031,10033,10034,10034,10035,10035,10051,10052,10052,10068,10069,10070,10071,10071,10072,10072,10073,10074,10084,10085,10086,10086,10087,10088,10092,10093,10094,10094,10101,10102,10106,10107,10108,10108,10109,10110,10113,10114,10115,10116,10135,10135,10139,10140,10141,10141,10142,10143,10143,10147,10148,10150,10151,10155,10156,10175,10176,10184,10185,10186,10187,10187,10188,10189,10190,10201,10202,10203,10203,10204,10205,10206,10206,10207,10217,10218,10219,10220,10221,10222,10223,10224,10224,10251,10253,10253,10254,10255,10256,10257,10258,10262,10263,10263,10264,10266,10267,10268,10272,10273,10274,10275,10284,10288,10289,10290,10291,10292,10296,10297,10298,10300,10318,10319,10334,10335,10336,10337,10338,10339,10340,10341,10352,10353,10354,10355,10356,10360,10361,10362,10363,10364,10375,10377,10377,10386,10391,10392,10393,10394,10395,10400,10402,10403,10407,10408,10435,10436,10437,10438,10452,10453,10454,10456,10458,10461,10462,10484,10485,10486,10487,10488,10489,10490,10491,10492,10497,10499,10501,10502,10503,10504,10505,10506,10507,10513,10514,10519,10521,10522" d="m335,294c-15.83334,12.5 -16.69241,13.17746 -17.38266,13.724c-0.54501,0.43158 -1.535,1.21118 -2.28201,1.94083c-0.41833,0.4086 -0.92557,0.93289 -1.50598,1.56302c-1.00812,1.09445 -1.35413,1.51102 -2.06851,2.36398c-0.35611,0.4252 -1.02829,1.24887 -1.33667,1.63135c-0.75946,0.94193 -1.38727,1.73193 -1.86749,2.44183c-0.45453,0.67194 -0.85001,1.27499 -1.33002,1.995c-0.56,0.84 -1.19595,1.79382 -1.53198,2.30701c-0.34668,0.52945 -0.70413,1.06879 -1.38934,2.18933c-0.3421,0.55945 -0.98721,1.66922 -1.53333,2.75565c-0.2605,0.51825 -0.50214,1.02518 -0.91467,2.00534c-0.38123,0.90576 -0.69522,1.74765 -0.97067,2.508c-0.35083,0.96844 -0.66791,1.69797 -0.88666,2.65802c-0.2435,1.06866 -0.284,1.90466 -0.35266,2.38531c-0.14734,1.03134 -0.22208,1.55402 -0.36334,2.54333c-0.20007,1.40134 -0.31009,2.20126 -0.45065,3.32135c-0.05499,0.43814 -0.18707,1.51038 -0.25867,2.12265c-0.07581,0.64804 -0.15985,1.32031 -0.29068,2.69867c-0.12759,1.34439 -0.16708,1.97977 -0.19867,2.58267c-0.05768,1.10092 -0.07828,2.05063 -0.08398,2.832c-0.00739,1.01062 -0.10312,1.84763 -0.28268,2.85867c-0.13507,0.76056 -0.22424,1.19446 -0.25165,2.15167c-0.04544,1.58667 0.08292,2.14328 0.18631,2.69766c0.2052,1.10028 0.35229,1.62302 0.64584,2.58417c0.34946,1.14417 0.68491,2.09555 0.92218,3.02383c0.20828,0.81488 0.30295,1.42725 0.612,2.448c0.25848,0.8537 0.83563,1.66513 1.30399,2.37598c0.27921,0.42377 0.88687,1.37198 1.19733,1.88269c0.31528,0.51862 1.17493,2.07013 1.401,2.56448c0.41513,0.90775 0.69672,1.75012 1.008,2.46301c0.3909,0.8952 1.06122,1.67627 1.68701,2.09116c0.71716,0.47546 1.40112,1.12424 1.99335,1.71201c0.73276,0.72726 1.1362,1.12137 1.55731,1.52267c0.8501,0.81015 1.67465,1.5675 2.444,2.19598c0.66168,0.54053 1.23065,0.97662 2.07468,1.52533c0.70343,0.45731 1.64401,0.89783 2.23334,1.216c0.67804,0.36609 1.41309,0.76855 2.44467,1.53833c0.66931,0.49945 1.24432,1.03137 1.746,1.51202c0.83759,0.80246 1.58353,1.151 2.40448,1.28833c0.80057,0.13394 1.73367,0.28094 2.22751,0.35333c0.99533,0.14594 2.37848,0.3226 3.177,0.36365c0.72467,0.03723 1.41748,0.05051 2.78833,-0.16c0.73596,-0.11301 1.48691,-0.2937 2.22601,-0.53998c1.09964,-0.36639 1.77859,-0.70157 2.40598,-1.07434c0.9043,-0.53732 1.69293,-1.14905 2.38052,-1.755c0.59494,-0.52429 1.28137,-1.2803 1.89017,-1.577c0.96976,-0.47263 1.74188,-0.7164 2.52133,-1.19733c0.41583,-0.25656 1.57773,-1.28384 1.88983,-1.71967c0.63293,-0.88382 0.85828,-1.3851 1.26083,-2.34167c0.18683,-0.44397 0.61942,-1.86145 0.95465,-2.65332c0.34958,-0.82578 0.66968,-1.35483 0.991,-2.04501c0.37436,-0.80411 0.96237,-2.20679 1.15802,-2.71701c0.3996,-1.04218 0.58252,-1.56473 0.92831,-2.56332c0.15933,-0.46011 0.52319,-1.6001 0.84268,-2.48532c0.23758,-0.65826 0.6962,-1.77591 0.91483,-2.32333c0.25211,-0.63126 0.53058,-1.33032 0.82651,-2.082c0.30981,-0.78696 0.6246,-1.5939 0.93451,-2.40601c0.30475,-0.79861 0.86041,-2.29562 1.08881,-2.96899c0.40088,-1.18195 0.57071,-1.70685 0.79669,-2.66501c0.20071,-0.85107 0.35928,-2.06238 0.41083,-2.84601c0.04828,-0.73395 -0.00568,-1.39111 0.06165,-2.62082c0.04337,-0.79211 0.21567,-1.74734 0.35269,-2.68384c0.07806,-0.53345 0.15958,-1.09732 0.34732,-2.27335c0.09476,-0.59366 0.39212,-2.27545 0.49417,-2.77866c0.18491,-0.91187 0.3728,-1.68353 0.63467,-2.79468c0.17157,-0.72803 0.33496,-1.83307 0.45065,-2.66266c0.06967,-0.49951 0.21823,-1.62872 0.29068,-2.24268c0.07498,-0.63538 0.16632,-1.28339 0.30383,-3.23883c0.04422,-0.62863 0.07135,-1.2381 0.10065,-2.37665c0.01337,-0.5191 0.07657,-1.4339 0.01819,-2.6445c-0.0351,-0.72781 -0.33429,-1.8338 -0.56668,-2.78934c-0.14273,-0.58682 -0.29565,-1.24188 -0.45151,-1.96201c-0.16846,-0.77847 -0.34024,-1.61298 -0.49649,-2.50201c-0.33591,-1.91125 -0.4679,-2.9321 -0.59467,-3.98132c-0.129,-1.06747 -0.23773,-2.14606 -0.3255,-3.22501c-0.08685,-1.06778 -0.15674,-2.11615 -0.19049,-3.13498c-0.06314,-1.90604 -0.03561,-2.77771 -0.00534,-3.59335c0.02844,-0.76608 0.07489,-1.48657 0.11249,-2.16748c0.03564,-0.64575 0.07516,-1.26166 0.0675,-1.85251c-0.01459,-1.12756 -0.09921,-1.67435 -0.20267,-2.21066c-0.10358,-0.53696 -0.24585,-1.06979 -0.40649,-1.60352c-0.16327,-0.54242 -0.36014,-1.08591 -0.9375,-2.8125c-0.20322,-0.60776 -0.39926,-1.2309 -0.60001,-1.85849c-0.39856,-1.24612 -0.5885,-1.85358 -0.79999,-2.43134c-0.56924,-1.55508 -0.74469,-2.00269 -1.37866,-2.97549c-0.32236,-0.49466 -1.13565,-1.29984 -1.72134,-2.23468c-0.36554,-0.58344 -0.80334,-1.31772 -1.0625,-1.70831c-0.54132,-0.81586 -1.42783,-1.96722 -1.737,-2.29352c-0.56967,-0.60123 -1.36292,-1.30518 -2.2005,-1.83148c-0.7323,-0.46014 -1.83322,-0.83368 -2.27133,-0.9975c-1.06769,-0.3992 -1.67365,-0.6235 -2.31201,-0.85669c-0.65762,-0.2402 -1.32233,-0.48303 -1.98599,-0.71249c-1.84036,-0.63635 -2.38501,-0.81442 -3.39734,-1.07333c-0.46841,-0.11981 -1.3696,-0.34109 -2.69998,-0.35999c-0.91528,-0.013 -1.83792,0.12381 -2.29169,0.1875c-0.87582,0.12292 -2.03891,0.33865 -2.96115,0.422c-0.85083,0.07687 -1.74042,0.12598 -2.68768,0.5c-0.67053,0.26477 -1.45468,0.57968 -2.30099,0.909c-0.42749,0.16635 -1.64621,0.63235 -2.68784,1.0015c-0.57352,0.20325 -1.70374,0.51138 -2.15601,0.98666c-0.69247,0.72772 -1.0593,1.41229 -1.57999,2.13867c-0.28329,0.3952 -1.17267,1.68494 -1.46799,2.14349c-0.60974,0.94681 -0.90799,1.45203 -1.20001,1.98199c-0.617,1.11978 -0.92026,1.72952 -1.5,3.0625c-0.31076,0.71451 -0.604,1.47137 -0.89551,2.25751c-0.29932,0.80716 -0.58783,1.63693 -0.8685,2.48251c-0.28305,0.85275 -0.56058,1.71036 -1.06934,3.42667c-0.24969,0.84238 -0.4808,1.67007 -0.7005,2.47348c-0.21091,0.7713 -0.40488,1.50534 -0.5835,2.19452c-0.16495,0.63651 -0.31339,1.21399 -0.54932,2.16531c-0.22156,0.89337 -0.33334,2 -0.33334,2.74402l0,0.888" id="svg_5" stroke-width="2" stroke="#000" fill="none"/>
  <path t="10958,11001,11001,11002,11002,11002,11002,11002,11002,11002,11010,11010,11010,11010,11010,11010,11011,11011,11011,11013,11014,11014,11014,11014,11014,11016,11016,11017,11034,11035,11035,11035,11035,11035,11036,11036,11036,11040,11040,11040,11040,11040,11041,11041,11041,11041,11044,11044,11044,11045,11045,11045,11045,11046,11046,11069,11070,11070,11070,11070,11071,11071,11071,11071,11085,11086,11086,11086,11087,11087,11087,11088,11088,11092,11092,11092,11093,11093,11093,11094,11094,11094,11097,11098,11098,11098,11099,11099,11100,11102,11103,11108,11109,11109,11110,11110,11110,11111,11111,11112,11120,11120,11121,11121,11122,11122,11122,11123,11123,11135,11135,11136,11136,11137,11137,11137,11138,11138,11155,11156,11156,11157,11157,11157,11158,11158,11159,11162,11162,11163,11163,11163,11164,11164,11165,11165,11169,11170,11170,11171,11171,11171,11173,11173,11174,11188,11188,11189,11189,11190,11190,11191,11191,11192,11202,11202,11203,11203,11204,11204,11205,11205,11206,11209,11210,11210,11211,11211,11212,11212,11213,11213,11217,11218,11218,11219,11220,11220,11221,11221,11222,11234,11235,11236,11236,11237,11237,11238,11238,11239,11252,11253,11254,11254,11255,11256,11257,11257,11259,11271,11271,11272,11273,11273,11274,11275,11275,11276,11285,11286,11286,11287,11288,11288,11289,11290,11290,11294,11295,11295,11296,11297,11297,11298,11299,11300,11304,11304,11305,11306,11307,11307,11308,11309,11309,11335,11335,11336,11337,11338,11338,11339,11340,11341" d="m289,174c5.33334,26 5.70856,27.68628 6.05865,29.16c0.30792,1.29614 0.59586,2.44038 0.858,3.465c0.23929,0.93535 0.47174,1.80841 0.67801,2.655c0.41833,1.71689 0.60892,2.64743 0.80533,3.62534c0.20374,1.01442 0.40045,2.05724 0.60001,3.11549c0.20047,1.06308 0.39539,2.12123 0.60001,3.16051c0.3912,1.98709 0.59552,2.91095 0.79733,3.78267c0.18976,0.81958 0.37863,1.58202 0.561,2.286c0.16718,0.64531 0.32578,1.22777 0.47098,1.746c0.2348,0.83804 0.33017,1.15579 0.40402,1.42934c0.06763,0.2505 0.12906,0.50348 0.1875,0.78299c0.06866,0.32843 0.14264,0.73183 0.23248,1.233c0.24942,1.39151 0.41016,2.32318 0.60266,3.40001c0.21439,1.19919 0.44934,2.49649 0.70651,3.86699c0.26672,1.42152 0.54282,2.86967 0.84149,4.317c0.58014,2.81133 0.8894,4.12396 1.19202,5.364c0.28476,1.16693 0.56802,2.25307 0.84149,3.2565c0.25085,0.9205 0.48874,1.75166 0.70651,2.4915c0.35236,1.19708 0.49371,1.65021 0.60532,2.03334c0.09854,0.33827 0.18756,0.66077 0.27151,0.99599c0.09366,0.37405 0.19534,0.81714 0.3165,1.35602c0.33203,1.47672 0.54895,2.4639 0.80267,3.61066c0.28467,1.28656 0.59445,2.69308 0.92249,4.20001c0.34534,1.58643 0.70154,3.23267 1.0575,4.91998c0.71982,3.41199 1.06039,5.10367 1.396,6.77869c0.33304,1.66232 0.65866,3.31732 0.98401,4.96799c0.32535,1.65067 0.64984,3.30591 0.98401,4.96799c0.67688,3.36652 1.03479,5.07245 1.396,6.77869c0.35715,1.68707 0.71216,3.33356 1.0575,4.91998c0.32803,1.50693 0.6377,2.91348 0.92249,4.20001c0.47229,2.13358 0.65631,2.94788 0.80002,3.61334c0.11761,0.54462 0.21173,0.99911 0.2775,1.39499c0.06052,0.36426 0.10492,0.72968 0.14249,1.125c0.09494,0.99924 0.13913,1.66013 0.21201,2.43866c0.08398,0.89722 0.19009,1.91156 0.33301,3.0405c0.15771,1.24588 0.34879,2.60645 0.603,4.0755c0.56845,3.28528 0.96945,5.08163 1.39468,6.96533c0.43976,1.94809 0.91882,3.92828 1.41898,5.91751c0.49719,1.97748 1.00204,3.9136 1.509,5.7825c0.93591,3.45032 1.38211,4.98062 1.79333,6.392c0.38196,1.31091 0.74878,2.53708 1.09351,3.7005c0.33124,1.11795 0.65594,2.20837 0.9585,3.2955c0.61823,2.22144 0.90912,3.39752 1.20132,4.61334c0.29926,1.24515 0.58664,2.51486 0.86102,3.7995c0.27496,1.28735 0.53619,2.57132 0.771,3.84448c0.45456,2.4649 0.63272,3.64624 0.79868,4.78c0.15811,1.08026 0.29263,2.10361 0.40948,3.06302c0.10825,0.88861 0.19818,1.70181 0.27451,2.43298c0.12439,1.19171 0.16367,1.64728 0.20932,2.03067c0.04074,0.34222 0.09119,0.67163 0.16202,1.0155c0.08054,0.39099 0.19592,0.85419 0.34198,1.4205c0.40234,1.56012 0.68298,2.59875 0.996,3.80267c0.34814,1.33905 0.72,2.78699 1.09952,4.31848c0.39264,1.58447 0.78552,3.19617 1.1445,4.81351c0.69223,3.11871 0.95462,4.58426 1.19998,5.97333c0.2334,1.32132 0.43756,2.58649 0.65552,3.79651c0.21027,1.1673 0.41812,2.30142 0.7005,3.39151c0.55557,2.14474 0.96808,3.17987 1.39731,4.19733c0.42343,1.00372 0.88776,1.96091 1.3605,2.86951c0.44916,0.86325 0.89545,1.65582 1.31552,2.37448c0.69724,1.19278 0.98355,1.6387 1.19733,2.02402c0.18436,0.33231 0.33548,0.64792 0.4455,0.9765c0.11905,0.35553 0.21246,0.77991 0.31049,1.2915c0.26694,1.39322 0.41623,2.32632 0.60535,3.39865c0.20923,1.18634 0.43347,2.45865 0.66751,3.789c0.23932,1.36029 0.47879,2.72256 0.71249,4.05899c0.43414,2.48251 0.62274,3.57935 0.79733,4.57468c0.15851,0.90369 0.30417,1.72473 0.44849,2.47049c0.13202,0.68219 0.25885,1.30948 0.4035,1.8855c0.26541,1.05685 0.43271,1.54413 0.60135,2.01202c0.16293,0.45209 0.33759,0.88159 0.51599,1.28998c0.17108,0.3916 0.34534,0.76096 0.51599,1.11002c0.31375,0.64175 0.46234,0.92999 0.59735,1.19998c0.125,0.25 0.23999,0.48001 0.345,0.69c0.095,0.19 0.17999,0.36002 0.255,0.51001c0.12,0.23999 0.16516,0.33032 0.20132,0.40268c0.02817,0.05634 0.04932,0.09866 0.06448,0.129c0.01016,0.02032 0.01633,0.03265 0.0195,0.039c0.00134,0.00266 0.00085,0.00217 -0.00266,-0.00134c-0.00949,-0.00949 -0.02802,-0.02802 -0.0585,-0.0585l-0.0455,-0.0455l-0.06351,-0.06351l-0.0845,-0.0845" id="svg_6" stroke-width="2" stroke="#000" fill="none"/>
  <path t="11773,11802,11802,11803,11803,11803,11803,11803,11803,11803,11806,11806,11806,11806,11806,11806,11806,11806,11807,11834,11834,11834,11834,11835,11835,11857,11857,11857,11857,11857,11857,11857,11858,11858,11861,11861,11861,11862,11862,11862,11862,11862,11862,11869,11869,11869,11869,11869,11870,11870,11870,11870,11885,11885,11885,11886,11886,11886,11886,11886,11887,11900,11901,11901,11901,11901,11902,11902,11902,11902,11917,11917,11918,11918,11918,11918,11919,11919,11919,11927,11927,11927,11928,11928,11928,11928,11929,11929,11932,11933,11933,11933,11934,11934,11934,11935,11935,11939,11940,11940,11940,11941,11941,11941,11942,11942,11967,11968,11969,11970,11970,11970,11971,11971,11971,11984,11985,11985,11985,11986,11986,11986,11987,11987,11990,11990,11990,11991,11991,11991,11992,11992,11992,12000,12001,12001,12002,12002,12002,12003,12003,12004" d="m317,155c1.66666,17.83333 1.76178,19.34827 1.832,20.79466c0.06689,1.37798 0.11594,2.68939 0.168,3.93451c0.04935,1.18022 0.09143,2.29724 0.168,3.34949c0.13995,1.92336 0.26349,2.79314 0.39999,3.60133c0.12698,0.75182 0.2753,1.4418 0.43201,2.07001c0.14261,0.57172 0.29044,1.08131 0.43201,1.53c0.22784,0.72218 0.32724,0.99277 0.40134,1.22667c0.06741,0.21283 0.19247,0.65886 0.32916,1.26666c0.35022,1.55719 0.50085,2.32745 0.69482,3.21733c0.21719,0.99649 0.45798,2.08212 0.72601,3.23851c0.28116,1.21298 0.57764,2.4648 0.90598,3.73349c0.65799,2.54242 1.02884,3.77451 1.39203,4.98801c0.3595,1.20117 0.72858,2.39293 1.077,3.591c0.35031,1.20461 0.69687,2.42532 0.987,3.681c0.60086,2.60042 0.80325,3.98026 0.99731,5.38266c0.19467,1.40672 0.34616,2.80328 0.474,4.1655c0.12253,1.30585 0.21658,2.53673 0.29401,3.6705c0.12918,1.89157 0.16324,2.62061 0.21335,3.23734c0.04514,0.55562 0.1073,1.09848 0.20099,1.67551c0.10788,0.66458 0.26758,1.46095 0.47101,2.44049c0.56216,2.70711 0.95386,4.51237 1.39734,6.60133c0.49316,2.32303 1.02628,4.83208 1.59,7.479c0.58292,2.73708 1.17545,5.51627 1.76999,8.289c1.14429,5.33652 1.68091,7.8136 2.19067,10.15466c0.48331,2.21957 0.94666,4.33096 1.39349,6.34799c0.42923,1.93762 0.84717,3.80908 1.25851,5.62802c0.80045,3.53946 1.20416,5.28268 1.59998,7.01199c0.39117,1.70901 0.77551,3.39255 1.14151,5.04749c0.35791,1.61841 0.70193,3.19614 1.0065,4.73251c0.57672,2.9093 0.79901,4.28131 0.99866,5.58667c0.1886,1.23306 0.34366,2.39273 0.474,3.4725c0.11993,0.99362 0.21552,1.89804 0.29401,2.70749c0.12729,1.3129 0.16718,1.81396 0.20801,2.23734c0.03662,0.37958 0.07578,0.74817 0.12299,1.13849c0.05389,0.44571 0.12469,0.9791 0.21301,1.63351c0.24353,1.80423 0.40912,3.01132 0.604,4.42133c0.22064,1.59631 0.46808,3.36169 0.74548,5.2785c0.29706,2.05255 0.61694,4.22336 0.97052,6.4935c0.74445,4.77957 1.16431,7.25012 1.59198,9.75467c0.43063,2.52179 0.87277,5.04141 1.3125,7.54349c0.43359,2.46725 0.86273,4.88159 1.26752,7.22852c0.76163,4.41589 1.09259,6.45618 1.39465,8.37332c0.28201,1.78989 0.5321,3.4516 0.75452,4.98151c0.2027,1.39413 0.37793,2.65079 0.52948,3.76651c0.24393,1.79565 0.33051,2.4769 0.40933,3.04132c0.06744,0.48288 0.13602,0.91733 0.207,1.33801l0.08102,0.44064l0.09698,0.49469l0.11899,0.58264" id="svg_7" stroke-width="2" stroke="#000" fill="none"/>
 </g>
 <g display="none">
  <title>muse_image</title>
  <image xlink:href="http://farm4.static.flickr.com/3306/3305355020_89c01617bc.jpg" id="muse" height="480" width="360" y="0" x="140"/>
 </g>
 <g display="none">
  <title>bbox</title>
  <rect stroke="#f00" fill="none" stroke-width="3" height="441.6" width="151.68" y="16.32" x="246.56" id="bbox"/>
 </g>
</svg>
