<svg width="640" height="480" xmlns="http://www.w3.org/2000/svg" xmlns:svg="http://www.w3.org/2000/svg" xmlns:xlink="http://www.w3.org/1999/xlink">
 <!-- Sketchy ANNOTATION
  ImageNet ID: n03272010_12468
  URL: http://farm1.static.flickr.com/173/470047824_4f8fae5a90.jpg
  Image Width: 297
  Image Height: 500
  BBox X: 83
  BBox Y: 27
  BBox Width: 122
  BBox Height: 395
  Exposure: 2000ms
  Synset Label: guitar
  Synset ID: n03467517
  Worker Tag: Guitar
  Sanity Check: 
   Saved
  Comment: 
   {}
  Worker ID: AIH9VLD92GHFH
  Assignment ID: 31LVTDXBL7A69B39B28X7E5XK9ERLE
  HIT ID: 386659BNTLH3WQHCYD2XEJ0BAZQ01U
  Work Time: 84s
  Worker Score: 0.7857
 END ANNOTATION -->
 <g display="inline">
  <title>Layer 1</title>
  <path t="0,199,200,214,214,230,231,231,246,254,265,266,280,280,297,297,297,297,313,313,313,314,329,330,330,346,346,347,347,363,364,364,379,380,384,384,396,396,397,397,413,414,414,430,430,430,430,446,446,446,447,447,463,463,464,464,479,480,480,480,480,496,496,497,497,513,514,514,514,514,530,530,530,530,546,547,547,547,563,564,564,564,564,579,580,580,580,596,596,597,613,614,630,630,647,763,764,779,780,780,796,797,813,814,814,829,830,830,848,848,849,849,863,864,864,879,880,880,880,896,896,897,914,914,929,930,930,946,946,947,947,963,963,964,979,980,996,996,1013,1013,1014,1029,1030,1046,1046,1063,1063,1064,1079,1080,1080,1096,1096,1113,1113,1129,1130,1146,1146,1163,1163,1237,1240,1241,1241,1250,1250,1250,1250,1263,1264,1287,1287,1296,1296,1296,1317,1317,1332,1333,1347,1347,1348,1364,1365,1365,1365,1379,1380,1396,1401,1413,1414,1414,1414,1429,1430,1430,1446,1447,1463,1463,1464,1479,1480,1480,1496,1497,1513,1514,1514,1529,1530,1546,1547,1563,1579,1580,1596,1597,1613,1629,1630,1646,1646,1663,1679,1696,1696,1729,1730,1746,1746,1763,1764,1779,1796,1796,1813,1813,1814,1829,1830,1846,1863,1879,1880,1896,1913,1913,1929,1930,1947,1963,1964,1979,1996,1996,2013,2031,2031,2063,2063,2079,2080,2080,2096,2096,2113,2114,2129,2130,2146,2146,2163,2163,2179,2196,2196,2197,2213,2214,2229,2230,2246,2263,2279,2279,2280,2296,2296,2313,2329,2330,2330,2346,2347,2363,2364,2379,2380,2396,2397,2413,2414,2429,2430,2430,2446,2446,2465,2466,2466,2479,2479,2496,2497,2513,2514,2531,2531,2531,2546,2547,2563,2564,2579,2596,2596,2613,2614,2629,2630,2646,2646,2647,2663,2663,2664,2679,2680,2696,2696,2713,2714,2714,2729,2730,2746,2746,2747,2766,2766,2766,2781,2781,2781,2795,2795,2796,2813,2814,2829,2830,2846,2846,2847,2847,2863,2863,2864,2864,2879,2880,2880,2896,2896,2897,2913,2913,2914,2929,2929,2929,2946,2946,2963,2963,2964,2978,2978,2996,2996,3013,3013,3014,3029,3030,3030,3046,3047,3068,3068,3068,3088,3088,3089,3116,3116,3117,3121,3121,3121,3122,3141,3141,3141,3165,3166,3169,3169,3238,3241,3241,3379,3380,3380,3380,3381,3398,3398,3399,3399,3399,3400,3400,3400,3401,3418,3418,3418,3419,3419,3419,3419,3420,3420,3443,3444,3444,3444,3445,3445,3445,3445,3446,3463,3463,3463,3464,3464,3464,3474,3474,3478,3478,3507,3507,3507,3522,3522,3522,3522,3539,3539,3555,3560,3560,3577,3577,3580,3580,3580,3583,3583,3601,3602,3602,3619,3620,3620,3638,3638,3639,3656,3656,3675,3675,3693,3694,3711,3711,3712,3729,3730,3747,3748,3765,3765,3791,3792,3812,3812,3830,3833,3833,3834,3837,3837,3856,3856,3874,3874,3874,3892,3892,3910,3911,3929,3929,3929,3947,3947,3948,3966,3966,3984,3985,3985,4001,4002,4002,4003,4021,4021,4038,4039,4039,4058,4058,4059,4059,4076,4077,4078,4078,4095,4096,4096,4097,4100,4100,4100,4101,4120,4120,4121,4123,4124,4124,4124,4142,4143,4144,4144,4164,4164,4165,4183,4184,4184,4185,4185,4203,4204,4204,4205,4205,4205,4222,4222,4223,4223,4224,4242,4242,4243,4243,4262,4262,4263,4263,4263,4266,4266,4267,4267,4271,4272,4272,4273,4292,4293,4293,4294,4312,4313,4313,4332,4333,4333,4352,4370,4371,4391,4392,4410,4429,4429,4448,4468,4468,4486,4487,4487,4506,4507,4526,4527,4546,4546,4547,4549,4550,4550,4551,4555,4556,4556,4573,4574,4574,4574,4594,4595,4595,4615,4616,4616,4635,4635,4654,4655,4655,4675,4675,4676,4736,4737,4755,4756,4756,4776,4777,4777,4778,4778,4778,4779,4804,4804,4804,4805,4808,4808,4811,4812,4844,4844,4844,4847,4848,4866,4870,4870,4890,4891,4910,4931,4931,4931,4951,4952,4971,4991,4992,5011,5011,5032,5035,5035,5055,5056,5075,5076,5099,5099,5119,5139,5162,5163,5195,5196,5228,5262,5264,5282,5306,5328,5328,5332,5333,5355,5377,5398,5399,5419,5420,5439,5440,5440,5462,5483,5483,5484,5488,5491,5492,5510,5510,5531,5532,5553,5553,5554,5573,5573,5574,5594,5595,5614,5635,5635,5654,5675,5676,5695,5696,5696,5699,5700,5706,5707,5726,5726,5746,5746,5766,5766,5787,5814,5839,5840,5840,5843,5844,5847,5848,5848,5853,5878,5879,5879,5901,5902,5922,5923,5944,5967,5967,5968,5972" d="m266,265c-2.59549,-1.89017 -3.54855,-2.00858 -4.38535,-2.436c-0.61343,-0.31335 -1.62552,-0.85626 -2.11465,-1.08484c-0.74084,-0.34619 -1.70038,-1.12137 -2.19101,-1.82648c-0.52634,-0.75644 -1.06302,-1.35269 -1.79298,-1.85535c-0.68776,-0.4736 -1.37741,-1.1142 -1.76784,-1.81166c-0.44203,-0.78966 -0.6749,-1.41702 -1.29066,-2.28551c-0.65379,-0.9221 -1.20708,-1.4375 -1.60417,-2.01483c-0.66179,-0.96217 -0.8096,-1.7065 -0.93466,-2.45467c-0.2007,-1.20056 -0.34814,-1.8936 -0.52934,-2.616c-0.18404,-0.7337 -0.5923,-2.12808 -0.77866,-2.77867c-0.1788,-0.62416 -0.4525,-1.83493 -0.5625,-2.74049c-0.07478,-0.61566 -0.17184,-1.59398 -0.49084,-2.61667c-0.23018,-0.73793 -0.56763,-1.45383 -0.85199,-2.16901c-0.38608,-0.97102 -0.63808,-1.80069 -0.69633,-2.81517c-0.04747,-0.82668 -0.009,-1.80899 -0.009,-2.53633c0,-0.76733 0,-1.95833 0,-2.75833c0,-0.8 0,-1.59999 0,-2.39999c0,-1.2 0,-2 0,-2.8c0,-0.8 0,-2 0,-2.8c0,-0.8 0,-1.59999 0,-2.39999c0,-1.2 0,-2 0,-2.8c0,-0.8 -0.00809,-2.00006 0.00267,-2.79866c0.01065,-0.79083 0.0246,-1.57259 0.168,-2.31601c0.20802,-1.07837 0.68907,-2.06079 1.01466,-2.71066c0.3304,-0.65947 0.80971,-1.69043 1.0575,-2.43184c0.25339,-0.75818 0.45438,-1.54691 0.75717,-2.74283c0.20248,-0.79971 0.39966,-1.60318 0.636,-2.39999c0.23828,-0.80336 0.67999,-2.00174 0.84799,-2.39601c0.33089,-0.77654 0.65071,-1.51866 1.34933,-2.70399c0.3835,-0.65067 0.89821,-1.27893 1.08134,-2.26801c0.13379,-0.72255 0.08533,-1.89867 0.08533,-2.69032c0,-0.95233 0.39455,-2.04686 -0.108,-2.60834c-0.51353,-0.57375 -1.43022,0.10315 -2.12534,0.58667c-0.98738,0.68681 -1.55933,1.20029 -2.53467,1.68266c-0.72308,0.35762 -1.34335,0.49263 -2.08899,1.34033c-0.57323,0.6517 -0.8367,1.56506 -1.14301,2.457c-0.30721,0.89456 -0.46796,1.50429 -0.88533,2.31467c-0.5345,1.03778 -0.95424,1.45703 -1.51917,2.138c-0.80025,0.96463 -1.21118,1.48917 -1.55383,2.06816c-0.50858,0.85936 -0.80962,1.77658 -0.99101,2.65784c-0.16571,0.80507 -0.5914,1.8857 -1.09233,2.30051c-0.90842,0.75221 -1.61455,1.12874 -2.08633,1.7675c-0.63339,0.85754 -0.76559,1.71069 -0.87199,2.27415c-0.16634,0.88083 -0.54613,2.08876 -0.86133,2.65784c-0.45757,0.82613 -0.93915,1.51598 -1.61784,2.27966c-0.59334,0.66765 -1.17947,1.19632 -1.842,2.08434c-0.33879,0.4541 -0.90096,1.16345 -1.3455,2.12401c-0.36258,0.78343 -0.2849,1.82277 -0.36932,2.54399c-0.11707,0.99991 -0.40724,1.59702 -0.76534,2.47467c-0.40556,0.99402 -0.701,1.78697 -0.91333,2.54533c-0.26648,0.95178 -0.41855,1.67844 -0.99068,2.422c-0.55553,0.72198 -1.20543,1.45259 -1.29199,2.31667c-0.07962,0.79471 0.07782,1.80431 -0.16934,2.69734c-0.22913,0.82785 -0.80473,1.63641 -0.83333,2.5c-0.02321,0.70094 0,1.69066 0,2.69716c0,0.78967 0,1.61534 0,2.42101c0,1.04849 0,1.98183 0,2.88184c0,0.85416 0,1.83333 0,2.63333c0,0.8 0,1.8 0,2.59999c0,1.00134 0,1.836 0,2.76668c0,0.7905 -0.00133,1.644 0,2.83333c0.00067,0.59734 -0.0601,1.46942 0.08533,2.22934c0.22002,1.1496 0.67375,1.72983 0.8665,2.78049c0.14133,0.77036 0.33719,1.84869 0.75801,2.53751c0.43175,0.70667 0.87325,1.10025 1.40349,2.13535c0.39574,0.77252 0.63057,1.54108 0.834,2.51199c0.16104,0.76862 0.39345,1.82736 0.69934,2.62665c0.22481,0.5874 0.65466,1.49011 1.17867,2.35736c0.33665,0.55719 1.01251,1.48444 1.53867,2.15997c0.64154,0.8237 1.09059,1.47278 1.35066,2.26266c0.31963,0.97079 0.26414,1.83624 0.85333,2.51334c0.61067,0.70178 1.29211,1.20007 1.59868,2.052c0.30389,0.84451 0.37843,1.80948 0.886,2.47168c0.49957,0.65176 1.69322,0.59802 2.23749,1.12332c0.77292,0.746 0.5372,1.6965 1.067,2.47668c0.55089,0.81125 1.4559,1.01611 1.81216,1.64832c0.46027,0.81677 1.01332,1.29065 1.80917,2.09183c0.6088,0.61288 1.36133,1.13638 1.73616,1.90686c0.42545,0.87451 0.01909,2.0383 0.39334,2.70398c0.47212,0.83975 1.46135,0.82919 2.03999,1.29602c0.79823,0.64398 0.85001,1.63065 0.85201,2.59381c0.00194,0.93152 -0.0004,1.84216 0,2.52084c0.00067,1.11465 0.22853,1.96432 0.57466,2.63599c0.41853,0.81213 0.42308,1.71133 0.42534,2.60684c0.00241,0.9585 0,1.64252 0,2.58252c0,1.008 0,1.87015 0,2.6955c0,0.96448 0,1.68982 0,2.67932c0,0.82068 0,1.96649 0,2.74802c0,0.7905 0,1.71848 0,2.66647c0,0.87067 0,1.59601 0,2.58536c0,0.79999 0,1.79999 0,2.58932c0,1.04401 0.00008,1.90616 0,2.75232c-0.00009,1.00101 0.04611,1.71475 -0.05716,2.453c-0.14693,1.05032 -0.7455,1.86761 -0.88568,2.65802c-0.15108,0.85181 -0.05716,1.82648 -0.05716,2.76865c0,0.91202 0,1.82935 0,2.57333c0,1.03467 0.07352,1.80881 -0.036,2.67734c-0.11136,0.88318 -0.41721,1.57086 -0.68001,2.56c-0.25397,0.95587 -0.28333,1.73599 -0.284,2.77335c-0.00047,0.74399 0,1.66132 0,2.60931c0,0.87067 0,1.59601 0,2.58536c0,0.79999 0,1.79999 0,2.59998c0,0.80002 0,1.8045 0,2.65717c0,0.96402 0,1.75751 0,2.7735c0,0.96402 0,1.73734 0,2.77469c0,0.74399 -0.00009,1.66132 0,2.64532c0.00009,0.892 -0.08507,1.61203 0.08533,2.58133c0.17223,0.97974 0.68327,1.63779 0.88934,2.59335c0.1474,0.68353 0.42387,1.59772 1.192,2.17465c0.61342,0.46072 1.55661,1.14603 1.77199,1.82535c0.31235,0.98514 0.58452,1.71735 1.39467,2.17465c0.64056,0.36157 1.54492,0.51501 2.16667,1.33334c0.60281,0.7934 0.40347,1.7562 1.06799,2.41464c0.59268,0.58728 1.1958,1.12772 1.51868,2.01202c0.34177,0.93597 0.94601,1.48569 1.67334,1.78265c1.06247,0.43381 1.75214,0.40643 2.78265,0.67902c0.7182,0.18997 1.52426,0.44186 2.31467,1.09964c0.71844,0.5979 1.05017,1.28598 1.91333,1.79202c0.72867,0.42722 1.62656,0.63306 2.52899,0.76532c0.87491,0.12823 1.72318,0.04507 2.73102,0.40533c0.75732,0.27072 1.64386,0.61276 2.431,0.82584c0.98074,0.26547 1.48938,0.61734 2.38501,1.03949c0.63284,0.29831 1.67023,0.63602 2.40598,0.73636c0.74399,0.10147 1.86334,0.11298 2.92569,0.11432c0.66,0.00082 1.57498,0 2.655,0c0.71399,0 1.61932,0 2.58817,0c0.81448,0 1.68298,0 2.87814,0c0.59134,0 1.42834,0 2.55768,0c0.79333,0 1.68533,0 2.64267,0c0.73199,0 1.69467,0 2.46799,0c1.04184,0 1.81735,0 2.86536,0c0.71399,0 1.61932,0 2.58783,0c0.79349,0 1.569,0 2.7735,0c0.77332,0 1.57883,0.03513 2.34698,-0.04166c0.8663,-0.08661 2.06641,-0.50937 2.64767,-0.81967c0.86841,-0.46359 1.63434,-0.98938 2.358,-1.3815c0.66946,-0.36276 1.61179,-0.7782 2.40982,-1.05267c0.8461,-0.29099 1.44183,-0.4335 2.63885,-0.62317c0.83997,-0.13309 1.72928,-0.20987 2.24149,-1.13934c0.33597,-0.60965 0.71365,-1.75134 1.41983,-1.94598c0.89056,-0.24545 1.73254,-0.27332 2.48135,-0.67868c0.9967,-0.53955 1.47556,-1.35321 1.84467,-1.96317c0.45255,-0.74783 0.70688,-1.19693 1.41666,-2.1875c0.41806,-0.58344 0.91302,-1.20291 1.44751,-1.884c0.57883,-0.73761 1.20349,-1.52872 1.85248,-2.388c0.6897,-0.91318 1.42621,-1.87662 2.86667,-4.06131c0.77142,-1.16998 1.51605,-2.40805 2.259,-3.6705c0.74243,-1.26157 1.45193,-2.51553 2.133,-3.73352c0.64816,-1.15912 1.23676,-2.24878 2.27469,-4.09598c0.41257,-0.73425 0.76511,-1.34039 1.06198,-1.83301c0.23969,-0.39774 0.43707,-0.70929 0.59399,-0.95099c0.12128,-0.18683 0.22784,-0.32416 0.34402,-0.54935c0.05045,-0.09778 0.08524,-0.20172 0.1095,-0.30899c0.02524,-0.11148 0.04309,-0.66183 0.0585,-1.45901c0.01898,-0.98175 0.16531,-1.89865 0.49866,-2.73199c0.33334,-0.83334 0.4624,-1.51346 0.48932,-2.32132c0.03925,-1.17807 0.01068,-2.07419 0.01068,-2.65784c0,-0.83551 -0.07251,-2.0769 0.07199,-2.71017c0.23947,-1.04953 0.84732,-1.56503 1.36002,-2.41068c0.46399,-0.76535 0.54938,-1.64203 0.73465,-2.56665c0.15784,-0.78769 0.45444,-1.56042 0.71201,-2.69067c0.17926,-0.78662 0.34369,-1.68524 0.54666,-2.40399c0.22314,-0.79019 0.42554,-1.82211 0.59552,-2.73868c0.12762,-0.6882 0.5368,-1.68839 0.97916,-2.47916c0.28799,-0.51483 0.90607,-1.54071 0.991,-2.32617c0.10349,-0.95715 0.009,-1.69467 0.009,-2.86133c0,-0.68268 0,-1.66669 0,-2.58401c0,-0.74399 -0.09976,-1.79611 0.08533,-2.63199c0.17746,-0.80142 0.63089,-1.51611 1.11334,-2.51733c0.28751,-0.59668 0.68604,-1.5932 0.76532,-2.38934c0.10352,-1.03949 -0.11017,-1.81778 0.07767,-2.75232c0.16626,-0.82718 0.67282,-1.45828 1.10767,-2.20767c0.52856,-0.91092 0.78836,-1.74286 1.07202,-2.57217c0.24362,-0.71231 0.62762,-1.6759 0.75333,-2.47849c0.12494,-0.79773 0.41397,-1.78766 0.67267,-2.60001c0.31433,-0.98697 0.23679,-1.6535 0.686,-2.60001c0.41098,-0.86594 1.05649,-1.37164 1.64514,-2.20001c0.41309,-0.58133 0.80768,-1.4064 1.22284,-2.19998c0.42206,-0.80673 0.96124,-1.6033 1.45135,-2.2045c0.5177,-0.63501 1.20584,-1.5495 1.59015,-2.34369c0.25317,-0.52316 0.48288,-1.32443 1.06168,-2.24649c0.40414,-0.6438 1.18964,-1.56924 1.52084,-2.07733c0.53867,-0.82635 1.02621,-1.71982 1.28931,-2.32932c0.392,-0.90814 0.58826,-1.55365 0.88535,-2.56534c0.31693,-1.07922 0.49872,-1.83051 0.81433,-2.5235c0.45834,-1.00641 0.94128,-1.55255 1.43634,-2.04852c0.72626,-0.72763 1.45663,-1.40237 1.93948,-2.21399c0.31647,-0.53192 0.63272,-1.40189 1.29517,-2.36334c0.49286,-0.71533 0.94171,-1.11859 1.71469,-2.1055c0.41223,-0.52631 0.80414,-1.09653 1.39999,-1.97983c0.60422,-0.89566 0.99362,-1.4986 1.39999,-2.07782c0.59079,-0.84204 1.20181,-1.59814 1.79999,-2.30618c0.40125,-0.47495 1.21661,-1.5379 1.60001,-2.18799c0.4184,-0.70947 0.80713,-1.51678 1,-1.95001c0.6232,-1.3999 0.802,-1.91824 1.20001,-2.97299c0.20099,-0.53262 0.37744,-1.07112 0.79999,-2.084c0.56985,-1.36597 0.98438,-2.09145 1.39999,-2.69701c0.38577,-0.56206 0.84122,-1.06165 1.60001,-2.29333c0.42346,-0.68741 0.60532,-1.06825 1,-1.83833c0.60825,-1.18681 1.00201,-1.98802 1.38934,-2.78033c0.37793,-0.77307 0.58096,-1.14163 1.18915,-2.58916c0.27695,-0.65918 0.50607,-1.29881 0.82019,-2.22017c0.30676,-0.89972 0.6055,-1.81438 0.83731,-2.43733c0.24258,-0.6519 0.68427,-1.68558 1.01218,-2.41217c0.33008,-0.73141 0.73019,-1.41292 1.10883,-2.709c0.22433,-0.7679 0.23849,-1.49097 0.24301,-2.72549c0.0029,-0.79651 0,-1.548 0,-2.50751c0,-0.9765 0,-1.80983 0,-2.78833c0,-0.82016 0.09839,-1.66318 -0.009,-2.66966c-0.08478,-0.79451 -0.85034,-1.31581 -1.82434,-1.35184c-0.82742,-0.03061 -1.70932,0 -2.41733,0c-0.98132,0 -1.944,0 -2.71732,0c-1.04184,0 -1.81738,-0.00656 -2.86536,0c-0.71851,0.0045 -1.68973,0.06953 -2.5,0.33333c-0.99115,0.32268 -1.66919,0.68221 -2.36133,1.01851c-0.97565,0.47406 -1.83484,0.83066 -2.448,1.30949c-0.75949,0.59311 -1.09415,1.35661 -1.51868,2.12401c-0.29758,0.53789 -1.09647,1.54051 -1.58932,1.97867c-0.72931,0.64838 -1.46323,1.1987 -2.07733,2.02533c-0.39471,0.53134 -0.93011,1.51772 -1.48633,1.90616c-0.88559,0.61844 -1.73495,0.77142 -2.41766,1.27518c-0.68164,0.50296 -1.13626,1.26033 -1.40182,2.02399c-0.35278,1.01451 -0.48169,1.92938 -1.09851,2.67601c-0.36279,0.43915 -0.89764,0.91396 -1.93433,1.82933c-0.4158,0.36714 -1.34567,1.15251 -1.84534,1.55467c-0.50598,0.40724 -0.99942,0.83104 -2.03735,1.52266c-0.93079,0.62022 -1.77847,1.03969 -2.52133,1.25334c-0.88828,0.25548 -1.93549,0.50645 -2.67749,0.81667c-0.88446,0.36977 -1.70502,0.36885 -2.65182,0.92065c-0.63879,0.37228 -1.15521,0.97762 -2.1955,1.32217c-0.72513,0.24017 -1.56024,0.64249 -2.50467,0.98833c-0.74588,0.27313 -1.74112,0.04153 -2.41583,0.20683c-0.90668,0.22212 -1.81241,0.78456 -2.48935,0.85751c-0.98502,0.10616 -2.02551,0.0088 -2.79199,0.05716c-0.90808,0.05728 -1.41589,0.78836 -1.95984,1.29466c-0.78537,0.73103 -1.59012,0.70084 -2.60684,0.70534c-0.94498,0.00418 -1.60666,0 -2.64133,0c-0.74399,0 -1.85184,0 -2.60931,0c-1.03802,0 -1.73267,0 -2.74936,0c-0.94049,0 -1.80264,0 -2.63599,0c-0.97849,0 -1.79868,0 -2.63599,0c-1.01669,0 -1.71133,0.00491 -2.72803,0c-0.93152,-0.0045 -1.36841,-0.64453 -1.74582,-1.29466c-0.42282,-0.72836 -1.4075,-0.70399 -2.47949,-0.70534c-0.82135,-0.00102 -1.73218,0 -2.62134,0c-0.98935,0 -1.78934,0 -2.78934,0c-0.78934,0 -1.51468,0 -2.52084,0c-1.02182,0 -1.72983,0 -2.47382,0c-1.19101,0 -2.10568,0 -2.81967,0c-0.95367,0 -1.68567,0 -2.85233,0c-0.83334,0 -1.66669,0 -2.60535,0c-0.54932,0 -1.728,0 -2.61899,0c-0.83701,0 -1.77567,0 -2.68768,0c-0.832,0 -1.74265,0 -2.59598,0c-0.94,0 -1.94919,-0.10014 -2.63968,0.11433c-1.00854,0.31328 -1.423,0.75946 -2.18033,1.18033c-1.01904,0.56633 -1.888,0.70399 -2.66251,0.70534c-0.94415,0.00163 -1.94946,-0.05832 -2.74283,0.05716c-1.01346,0.14751 -1.55875,0.50186 -2.57849,0.8215c-0.80679,0.2529 -1.61395,0.71127 -2.43219,1.10667c-0.74933,0.36211 -1.42096,0.86938 -1.93665,1.3665c-0.77966,0.75162 -1.44263,1.36778 -2.42068,1.56416c-0.72238,0.14505 -1.58789,-0.09204 -2.56,0.53067c-0.82932,0.53123 -1.03903,1.41042 -1.42917,1.90065c-0.65811,0.82703 -1.43918,1.20935 -2.22131,1.7525c-0.73874,0.51303 -1.54236,0.92102 -2.34283,1.34283l-0.67868,0.55734l-0.51599,0.43201l-0.94235,0.54715" id="svg_1" stroke-width="2" stroke="#000" fill="none"/>
  <path t="6254,6397,6397,6397,6397,6397,6397,6397,6397,6397,6412,6412,6412,6412,6412,6412,6412,6413,6428,6428,6428,6428,6429,6429,6445,6445,6445,6445,6445,6445,6445,6446,6462,6462,6463,6463,6463,6463,6463,6478,6478,6479,6479,6479,6479,6495,6495,6495,6495,6495,6495,6496,6512,6512,6512,6512,6512,6513,6552,6552,6552,6552,6552,6552,6553,6554,6554,6554,6554,6554,6554,6554,6595,6596,6596,6596,6596,6596,6596,6596,6635,6635,6635,6635,6635,6635,6635,6635,6635,6637,6637,6637,6637,6637,6637,6637,6637,6637,6672,6672,6672,6672,6672,6672,6672,6672,6672,6674,6674,6674,6674,6674,6674,6674,6674,6675,6717,6717,6717,6717,6718,6718,6718,6718,6718,6758,6758,6758,6759,6759,6759,6759,6759,6759,6761,6761,6761,6761,6762,6762,6762,6762,6762,6804,6804,6804,6804,6804,6805,6805,6805,6805,6841,6841,6841,6842,6842,6842,6842,6842,6842,6844,6844,6844,6844,6844,6844,6845,6845,6845,6882,6883,6883,6883,6883,6883,6883,6883,6884,6919,6919,6919,6920,6920,6920,6920,6920,6920,6922,6922,6922,6922,6922,6922,6922,6923,6923,6959,6959,6959,6959,6960,6960,6960,6960,6960,6962,6962,6962,6962,6962,6962,6963,6963,6963,7000,7001,7001,7001,7001,7001,7001,7002,7002,7037,7038,7038,7038,7038,7038,7038,7039,7039,7040,7040,7041,7041,7041,7041,7041,7041,7041" d="m283,243c1.66666,-8.16667 1.76508,-9.02052 1.82935,-9.88266c0.06445,-0.86494 0.10361,-1.73186 0.129,-2.59651c0.02524,-0.85936 0.03516,-1.71098 0.039,-2.5515c0.00751,-1.63599 0.00266,-2.42599 0.00266,-3.196c0,-0.75 0,-1.48 0,-2.19c0,-0.69 0,-2.00999 0,-3.25c0,-0.59067 0,-1.728 0,-2.28267c0,-1.10132 0,-1.65599 0,-3.38399c0,-0.60951 0,-1.23601 0,-1.87651c0,-1.31099 0,-1.97549 0,-2.642c0,-0.6655 0,-1.98149 0,-3.26149c0,-0.625 0,-1.24001 0,-2.44c0,-0.58501 0,-1.16 0,-2.8255c0,-0.5385 0,-1.60651 0,-2.142c0,-1.089 0,-1.6485 0,-3.42184c0,-0.62532 0,-1.26266 0,-1.90799c0,-1.29868 0,-1.944 0,-2.58134c0,-1.23466 -0.00125,-2.40001 0.00449,-2.96266c0.01126,-1.10539 0.01724,-1.65671 0.08084,-2.77333c0.06644,-1.16628 0.13293,-1.77499 0.19867,-2.39999c0.13498,-1.28336 0.21677,-1.93192 0.29068,-2.58134c0.07343,-0.64523 0.26212,-2.51707 0.30399,-3.108c0.04068,-0.57443 0.09555,-1.69202 0.12134,-2.24266c0.05176,-1.10538 0.06967,-1.66911 0.16666,-2.83333c0.10455,-1.25473 0.19363,-1.93517 0.28,-2.66667c0.09351,-0.79185 0.20044,-1.65327 0.315,-2.595c0.12549,-1.0316 0.40628,-3.40485 0.55966,-4.76083c0.16406,-1.45068 0.33148,-2.97165 0.50403,-4.53749c0.17477,-1.58583 0.34821,-3.16679 0.52197,-4.71751c0.16763,-1.49596 0.48361,-4.22279 0.63101,-5.4095c0.13281,-1.06927 0.25952,-2.03206 0.375,-2.901c0.10458,-0.78705 0.20215,-1.50372 0.285,-2.16299c0.077,-0.61275 0.19879,-1.74869 0.24033,-2.29466c0.04105,-0.5394 0.06979,-1.07727 0.09601,-1.617c0.02649,-0.54561 0.04913,-1.10141 0.078,-1.67101c0.02979,-0.58774 0.11121,-1.83322 0.16867,-2.49733c0.05975,-0.69058 0.13101,-1.40269 0.20398,-2.133c0.07437,-0.74437 0.15143,-1.49847 0.22202,-2.259c0.07074,-0.76215 0.18912,-2.27682 0.23166,-3.0245c0.04282,-0.75233 0.07568,-1.52509 0.117,-2.3325c0.04388,-0.8576 0.09613,-1.78038 0.17099,-2.7825c0.082,-1.09794 0.32733,-3.63815 0.49716,-5.103c0.18307,-1.57922 0.39551,-3.24337 0.6225,-4.9665c0.23129,-1.75588 0.47247,-3.51612 0.71252,-5.2545c0.23331,-1.68961 0.66791,-4.81344 0.858,-6.2005c0.17389,-1.26894 0.33118,-2.43225 0.48148,-3.501c0.13882,-0.98724 0.27182,-1.90466 0.40952,-2.763c0.13052,-0.81364 0.41367,-2.35001 0.57367,-3.09633c0.16132,-0.7524 0.34299,-1.521 0.53549,-2.322c0.20374,-0.84768 0.42712,-1.75423 0.6615,-2.736c0.25516,-1.06886 0.81824,-3.52719 1.1235,-4.93834c0.32697,-1.51147 0.65762,-3.09792 0.987,-4.731c0.3327,-1.6496 0.6528,-3.28976 0.95099,-4.893c0.28558,-1.53549 0.76105,-4.2978 0.93384,-5.47684c0.15295,-1.04381 0.26773,-1.97303 0.35251,-2.8035c0.07629,-0.7473 0.12811,-1.43056 0.17249,-2.0655c0.04221,-0.60374 0.12439,-1.78679 0.18234,-2.39767c0.06058,-0.63848 0.13535,-1.31037 0.21451,-2.0235c0.0845,-0.76121 0.17667,-1.57712 0.26849,-2.4555c0.099,-0.94694 0.29779,-3.07631 0.39566,-4.26817c0.10358,-1.26147 0.20276,-2.57346 0.31052,-3.915c0.10858,-1.3518 0.21933,-2.6939 0.3465,-4.005c0.12244,-1.26224 0.39734,-3.55696 0.564,-4.55167c0.15054,-0.89857 0.31967,-1.70505 0.4935,-2.43c0.15784,-0.65829 0.32394,-1.25335 0.47549,-1.8c0.14047,-0.50668 0.38455,-1.43844 0.46683,-1.88533c0.08026,-0.43595 0.13458,-0.86812 0.17102,-1.296c0.03619,-0.42488 0.05368,-0.85059 0.06299,-1.278c0.0094,-0.43128 0.009,-1.314 0.009,-1.7685c0,-0.4615 0,-0.927 0,-1.3935c0,-0.4645 0,-0.924 0,-1.3755c0,-0.4405 0,-1.2765 0,-1.66783c0,-0.37933 0,-0.75467 0,-1.134c0,-0.39133 0,-0.80267 0,-1.242c0,-0.47533 0,-1.566 0,-2.19383c0,-0.67483 0,-1.38367 0,-2.1135c0,-0.73783 0,-1.47067 0,-2.1855c0,-0.68383 0,-1.9065 0,-2.4225c0,-0.452 0,-0.846 0,-1.188c0,-0.296 0,-0.552 0,-0.774l0,-0.194" id="svg_2" stroke-width="2" stroke="#000" fill="none"/>
  <path t="7553,7944,7945,7962,7962,7962,7962,7979,7979,7979,7980,7980,7980,7994,7995,7995,7995,7995,8012,8012,8012,8012,8012,8012,8012,8028,8028,8028,8028,8028,8029,8029,8045,8045,8045,8046,8046,8046,8063,8063,8063,8063,8063,8063,8077,8077,8077,8077,8077,8078,8078,8095,8095,8095,8095,8095,8095,8112,8112,8112,8113,8113,8113,8128,8128,8129,8129,8129,8129,8145,8145,8145,8146,8146,8146,8146,8146,8174,8174,8174,8174,8174,8174,8189,8189,8189,8189,8189,8189,8205,8205,8205,8205,8205,8206,8206,8220,8220,8220,8220,8220,8220,8221,8221,8237,8237,8237,8237,8237,8237,8253,8253,8253,8254,8254,8254,8254,8254,8267,8267,8267,8267,8267,8267,8268,8268,8281,8281,8281,8281,8282,8282,8282,8294,8294,8295,8295,8295,8295,8295,8312,8312,8312,8313,8313,8313,8328,8328,8328,8329,8329,8329,8329,8330,8344,8345,8345,8345,8346,8346,8346,8361,8362,8362,8363,8363,8363,8363,8363,8377,8377,8377,8378,8378,8378,8394,8395,8395,8395,8396,8396,8396,8396,8412,8412,8413,8413,8413,8414,8414,8414,8427,8427,8427,8427,8427,8428,8428,8428,8444,8445,8445,8445,8446,8446,8446,8461,8462,8462,8463,8463,8463,8463,8464,8478,8479,8479,8479,8480,8480,8541,8541,8541,8541,8542,8542,8542,8542,8544,8545,8545,8545,8545,8545,8545,8546,8561,8562,8562,8563,8563,8563,8564,8564,8564,8577,8577,8578,8578,8578,8578,8578,8579,8579,8594,8594,8594,8594,8595,8595,8595,8595,8595,8649,8650,8650,8650,8650,8650,8651,8651,8651,8654,8655,8655,8655,8655,8656,8656,8656,8656,8659,8659,8659,8659,8660,8660,8660,8660,8661,8662,8663,8663,8663" d="m317,235c0,9.1875 0,8.496 0,7.47833c0,-0.74001 0,-1.52 0,-2.34c0,-1.30501 0,-2.22366 0,-3.17433c0,-0.48483 0,-1.46851 0,-1.96533c0,-1.49884 0,-2.50317 0,-3.00934c0,-1.02533 0,-1.54649 0,-3.15601c0,-0.55482 0,-1.69049 0,-2.26933c0,-0.58482 0,-1.76849 0,-2.36533c0,-1.19867 0,-2.39867 0,-2.99867c0,-0.59999 0,-1.8 0,-2.39999c0,-0.60001 0,-2.39984 0,-2.99867c0,-0.59683 0,-1.7805 0,-2.36533c0,-0.57884 -0.00104,-2.26933 0.00015,-2.81467c0.00232,-1.06866 0.00214,-1.59624 0.03586,-2.64667c0.01694,-0.5275 0.12598,-2.14183 0.18533,-2.69617c0.12173,-1.13673 0.2049,-1.71439 0.27866,-2.29933c0.1492,-1.18344 0.23325,-1.77895 0.33334,-2.97917c0.09985,-1.19736 0.11484,-1.79546 0.14133,-2.38933c0.05237,-1.17459 0.05042,-1.7556 0.19199,-3.444c0.04578,-0.54599 0.18442,-1.60974 0.25867,-2.13068c0.14621,-1.02579 0.24634,-1.52869 0.40802,-3.036c0.05359,-0.49954 0.11359,-1.50934 0.1875,-2.54167c0.03796,-0.53052 0.04761,-1.07855 0.3125,-2.79166c0.0946,-0.6118 0.22882,-1.23596 0.51733,-2.51733c0.14636,-0.65001 0.30167,-1.298 0.444,-1.944c0.14029,-0.6367 0.47284,-2.46127 0.53467,-3.03601c0.11896,-1.10599 0.13898,-1.64824 0.16165,-2.7175c0.01132,-0.53442 0.00735,-2.17334 0.01166,-2.73717c0.00436,-0.57184 0.03317,-1.73582 0.06934,-2.32533c0.03647,-0.59422 0.25375,-2.39076 0.37067,-2.9895c0.11771,-0.60271 0.4086,-1.81035 0.55734,-2.42065c0.1499,-0.61504 0.34756,-1.22679 0.66666,-3.14584c0.10837,-0.65175 0.16968,-1.31544 0.21902,-1.98149c0.04935,-0.66602 0.09592,-1.99046 0.10532,-2.642c0.00925,-0.64047 0.00375,-1.87654 0.01166,-3.04184c0.00381,-0.56268 0.02991,-1.66858 0.06934,-2.21866c0.0802,-1.11882 0.255,-2.28384 0.37085,-2.8925c0.11993,-0.63013 0.41782,-1.93965 0.578,-2.61934c0.16379,-0.69501 0.33636,-1.40247 0.49649,-2.1255c0.32697,-1.47629 0.46603,-2.23213 0.59601,-2.99333c0.13004,-0.76149 0.24429,-1.52208 0.345,-2.27699c0.09924,-0.74379 0.26666,-2.18604 0.375,-3.54167c0.05078,-0.63542 0.08588,-1.24652 0.14133,-2.41333c0.02689,-0.56577 0.07364,-1.68776 0.10934,-2.25334c0.07367,-1.16727 0.19846,-2.4015 0.26865,-3.03866c0.07111,-0.64552 0.1489,-1.29449 0.22202,-1.944c0.14438,-1.28233 0.26245,-2.51705 0.30417,-3.108c0.08026,-1.13685 0.09641,-1.69274 0.1825,-2.79333c0.04343,-0.55508 0.26547,-2.28388 0.3815,-2.89217c0.11975,-0.62782 0.26324,-1.26788 0.41849,-1.9185c0.31638,-1.32584 0.49319,-1.98983 0.65601,-2.656c0.32132,-1.31472 0.47424,-1.95869 0.72101,-3.23c0.12152,-0.6261 0.2276,-1.25156 0.315,-1.87801c0.17529,-1.25663 0.28418,-2.54105 0.32532,-3.19583c0.04153,-0.66125 0.06943,-1.32697 0.12134,-2.658c0.02573,-0.65948 0.04431,-1.31147 0.08401,-1.9515c0.11343,-1.82831 0.19498,-2.40199 0.34131,-3.51867c0.0722,-0.55099 0.1636,-1.09962 0.29068,-2.21867c0.13217,-1.16375 0.16718,-1.77493 0.23584,-3.05083c0.03574,-0.66372 0.06549,-1.34388 0.1095,-2.0385c0.04492,-0.70907 0.07553,-1.43463 0.272,-2.90933c0.20261,-1.52082 0.37244,-2.28231 0.52798,-3.048c0.15546,-0.76533 0.3233,-1.52415 0.49051,-2.2755c0.16483,-0.74065 0.48456,-2.17587 0.6265,-2.86684c0.13797,-0.67173 0.27225,-1.32661 0.48001,-2.60133c0.10095,-0.61939 0.18964,-1.23155 0.255,-1.839c0.19376,-1.80016 0.20648,-2.40512 0.22949,-3.01167c0.04678,-1.23232 0.04803,-1.86298 0.05267,-2.50533c0.00473,-0.65633 0.00369,-2.72817 0.00583,-3.45234c0.00217,-0.73417 0.00677,-1.47337 0.0195,-2.2125c0.01263,-0.73421 0.02618,-1.45881 0.06448,-2.1675c0.10757,-1.99091 0.19495,-2.60044 0.26733,-3.19083c0.14011,-1.14257 0.22815,-1.70174 0.29468,-2.26333c0.20496,-1.73036 0.23727,-2.34167 0.26733,-2.9685c0.06192,-1.29146 0.06647,-1.95147 0.07465,-2.616c0.00818,-0.66648 0.005,-1.33201 0.01117,-3.29583c0.00208,-0.65484 0.00815,-1.33381 0.03152,-2.0535c0.02527,-0.77802 0.06989,-1.6311 0.1395,-2.5755c0.0777,-1.05436 0.3237,-3.55704 0.49265,-5.0315c0.18396,-1.60561 0.39594,-3.3103 0.6225,-5.085c0.23175,-1.81531 0.47253,-3.64011 0.71252,-5.445c0.23337,-1.75511 0.66858,-4.99486 0.85767,-6.427c0.17215,-1.30387 0.32669,-2.4917 0.46048,-3.576c0.12238,-0.99173 0.229,-1.90361 0.3165,-2.748c0.0816,-0.78765 0.20303,-2.24378 0.24484,-2.9345c0.04074,-0.6733 0.06952,-1.33296 0.09601,-1.9815c0.02615,-0.64047 0.04868,-1.27609 0.078,-1.9095c0.02936,-0.63459 0.10934,-1.91891 0.16901,-2.57283c0.06027,-0.66078 0.13464,-1.32338 0.22498,-1.983c0.08972,-0.65508 0.19342,-1.2999 0.315,-1.929c0.11859,-0.61361 0.3974,-1.76926 0.55966,-2.3025c0.15543,-0.51077 0.32742,-0.99449 0.50403,-1.4565c0.17087,-0.44697 0.34943,-0.87595 0.52197,-1.2945c0.16879,-0.40945 0.49002,-1.21207 0.63101,-1.613c0.13895,-0.39513 0.26303,-0.7861 0.375,-1.1685c0.10794,-0.36866 0.20236,-0.72341 0.285,-1.0605c0.07721,-0.31497 0.19501,-0.8715 0.24017,-1.107l0.03616,-0.2085l0.04932,-0.348" id="svg_3" stroke-width="2" stroke="#000" fill="none"/>
  <path t="9286,9411,9412,9412,9412,9412,9412,9412,9412,9430,9430,9431,9431,9431,9431,9431,9458,9458,9458,9458,9459,9459,9459,9483,9484,9484,9484,9484,9484,9484,9484,9486,9486,9486,9486,9486,9486,9487,9487,9507,9508,9508,9508,9508,9508,9508,9529,9529,9529,9529,9529,9529,9530,9530,9530,9530,9530,9531,9550,9550,9550,9550,9550,9551,9571,9571,9571,9571,9571,9571,9590,9590,9590,9590,9590,9609,9609,9610,9610,9610,9610,9628,9628,9628,9628,9628,9647,9648,9648,9648,9648,9667,9667,9667,9667,9667,9667,9687,9687,9687,9687,9687,9687,9707,9707,9707,9707,9707,9707,9727,9727,9727,9727,9727,9727,9747,9747,9747,9747,9747,9747,9749,9749,9749,9749,9749,9751,9751,9751,9751,9751,9752,9773,9773,9773,9773,9774,9774,9794,9794,9794,9794,9794,9795,9796,9796,9796,9796,9796,9821,9821,9821,9821,9821,9822,9845,9845,9845,9845,9846,9846,9847,9847,9847,9847,9848,9848,9848,9870,9870,9871,9871,9871,9871,9892,9892,9893,9893,9893,9914,9914,9914,9914,9915,9915,9915,9937,9937,9937,9937,9937,9937,9959,9960,9960,9960,9960,9960,9960,9981,9982,9982,9982,9982,9982,9984,9984,9984,9984,9984,9984,9987,9987,9987,9987,9988,9988,9988,10009,10010,10010,10010,10010,10010,10010,10031,10031,10031,10031,10031,10032,10032,10054,10054,10054,10054,10055,10055,10076,10076,10076,10077,10077,10077,10098,10099,10099,10099,10099,10099,10099,10099,10102,10102,10102,10102,10103,10103,10103,10103,10106,10106,10106,10106,10107,10107,10107,10129,10129,10129,10130,10130,10130,10130,10132,10132,10133,10133,10133,10133,10133,10155,10156,10156,10156,10156,10156,10156,10157,10157,10180,10180,10180,10181,10181,10181,10181,10181,10183,10183,10183,10184,10184,10184,10184,10226,10226,10226,10227,10227,10227,10229,10229,10229,10229,10229,10230,10230,10276,10276,10276,10277,10277,10277,10277,10277,10317,10317,10318,10318,10318,10318,10319,10319,10319,10359,10359,10360,10360,10360,10360,10360,10360,10361,10363,10363,10363,10363,10363,10364,10364,10364,10364,10366,10366,10366,10367,10367,10367,10367,10368,10368,10409,10410,10410,10410,10410,10410,10411,10411,10411,10413,10414,10414,10414,10414,10415,10415,10415,10415,10455,10456,10456,10456,10456,10457,10457,10457,10457,10497,10498,10498,10498,10498,10499,10499,10499,10499" d="m285,357c-2.5,-11 -2.64484,-11.86996 -2.74399,-12.68933c-0.09332,-0.77115 -0.19922,-2.20627 -0.224,-2.88266c-0.02408,-0.65799 -0.03,-1.30533 -0.03201,-2.59467c-0.00204,-1.31735 0,-1.98602 0,-2.65869c0,-0.67465 0,-1.3493 0,-2.69064c0,-1.31735 0,-1.96268 0,-2.60001c0,-1.25867 0,-1.884 0,-2.50934c0,-0.62732 0,-2.54132 0,-3.19617c0,-0.66382 0,-1.33566 0,-2.0145c0,-1.37466 0,-2.06851 0,-2.76532c0,-1.39868 -0.00159,-2.09851 0.00134,-2.79736c0.00586,-1.39069 0.01642,-2.08054 0.03467,-2.76532c0.0181,-0.67892 0.02972,-1.35202 0.13065,-2.66934c0.0983,-1.28293 0.18451,-1.90967 0.25867,-2.53067c0.14639,-1.22568 0.22906,-1.83072 0.29068,-2.43466c0.18353,-1.79913 0.20358,-2.39978 0.22684,-2.99683c0.04608,-1.18332 0.0488,-1.76846 0.05267,-2.34732c0.01129,-1.69049 -0.00342,-2.23578 0.01349,-3.30002c0.0083,-0.52124 0.04755,-1.548 0.10532,-2.05267c0.17294,-1.51047 0.44971,-2.50693 0.591,-3.00897c0.28668,-1.01865 0.47003,-1.52484 0.72668,-2.58084c0.26132,-1.0752 0.34705,-1.63354 0.45367,-2.76285c0.05341,-0.56555 0.09756,-1.6904 0.10532,-2.242c0.02213,-1.57635 0.009,-2.06699 0.009,-3c0,-0.88898 0,-1.758 0,-3.07648c0,-0.45468 0,-1.38602 0,-2.33334c0,-0.47467 0,-1.41599 0,-2.77866c0,-0.86868 0,-1.72134 0,-2.57401c0,-0.43134 -0.00372,-1.76886 0.00449,-2.7045c0.00421,-0.47888 0.01593,-1.45441 0.08084,-2.44418c0.06558,-0.99982 0.19656,-2.00031 0.26733,-2.50314c0.1431,-1.01697 0.30026,-2.05197 0.36334,-2.58084c0.12878,-1.08002 0.20261,-2.19852 0.23132,-2.76733c0.05795,-1.14709 0.07233,-1.72232 0.10535,-2.29468c0.09729,-1.68704 0.16028,-2.23222 0.29999,-3.2955c0.06854,-0.52171 0.23337,-1.54497 0.36334,-2.55583c0.12857,-0.99994 0.20377,-2.0024 0.22684,-2.50583c0.04657,-1.01591 0.05051,-1.53146 0.05582,-2.58083c0.00549,-1.08133 0.00134,-2.19734 0.00134,-2.76283c0,-1.13101 0,-1.69051 0,-2.7825c0,-1.03601 0,-2 0,-2.908c0,-0.44051 -0.00189,-1.30949 0,-2.62801c0.00134,-0.91866 -0.01019,-1.39133 0.04166,-2.35416c0.05304,-0.98492 0.08005,-1.49022 0.401,-2.97934c0.10886,-0.505 0.40997,-1.50993 0.55734,-2.02066c0.29868,-1.03519 0.48776,-1.5544 0.75699,-3.20033c0.0914,-0.55873 0.17593,-1.69327 0.20135,-2.25801c0.02518,-0.5593 0.04031,-1.65149 0.04166,-3.17816c0.00043,-0.47467 0,-1.392 0,-2.29333c0,-0.45467 -0.00235,-1.88266 0.00134,-2.91867c0.00192,-0.5405 0.01654,-1.65158 0.03467,-2.21599c0.01819,-0.56662 0.12457,-2.24864 0.18533,-2.79333c0.11938,-1.07007 0.20624,-1.59569 0.35333,-2.64667c0.07379,-0.52719 0.26447,-2.1409 0.30399,-2.696c0.08047,-1.13055 0.09549,-1.70404 0.12134,-2.27867c0.05164,-1.14738 0.05585,-1.71857 0.22134,-3.37849c0.05356,-0.53717 0.20398,-1.58551 0.27866,-2.10068c0.14734,-1.01633 0.24896,-1.5163 0.37851,-3.021c0.08633,-1.00269 0.09204,-1.51036 0.11081,-2.53583c0.00952,-0.52112 0.01068,-2.13068 0.01068,-2.68533c0,-1.13133 0,-1.70401 0,-2.27867c0,-1.14734 0,-1.716 0,-3.37883c0,-0.5385 0,-1.60651 0,-2.142c0,-1.089 -0.00125,-1.6485 0,-2.8125c0.00134,-1.23466 0.00507,-1.8721 0.02133,-2.51733c0.01636,-0.64944 0.07935,-1.94536 0.14932,-2.58134c0.1362,-1.23787 0.2533,-1.82951 0.53467,-2.95366c0.13632,-0.54466 0.45291,-1.59056 0.58936,-2.10533c0.39816,-1.5023 0.48477,-2.00647 0.59549,-3.0135c0.11148,-1.0141 0.1178,-1.53195 0.1925,-2.58083c0.07706,-1.08186 0.12949,-1.63733 0.27451,-2.77184c0.07407,-0.57947 0.25226,-1.75371 0.34732,-2.34734c0.09561,-0.59703 0.39468,-2.39568 0.49683,-2.9955c0.1022,-0.60017 0.20114,-1.20157 0.43466,-2.40001c0.11707,-0.6008 0.22653,-1.20567 0.68518,-3c0.15387,-0.60199 0.33258,-1.19847 0.65799,-2.39999c0.16229,-0.59926 0.32623,-1.19664 0.45151,-1.8c0.37192,-1.791 0.40726,-2.39798 0.4595,-2.9955c0.10339,-1.1825 0.11536,-1.76907 0.1925,-2.91916c0.07507,-1.11929 0.13138,-1.66508 0.26999,-2.73717c0.06903,-0.534 0.22867,-1.60867 0.29468,-2.158c0.20685,-1.72112 0.23474,-2.33313 0.26865,-2.96217c0.03485,-0.64664 0.08328,-1.99052 0.10934,-2.68533c0.02658,-0.70886 0.04614,-1.43143 0.14133,-2.90933c0.04861,-0.75478 0.11496,-1.51518 0.19501,-2.277c0.07996,-0.76089 0.17404,-1.51553 0.285,-2.259c0.10913,-0.73123 0.51349,-2.79895 0.6745,-3.433c0.15524,-0.61129 0.32791,-1.19706 0.65799,-2.32267c0.15997,-0.54553 0.48883,-1.61555 0.6875,-2.70833c0.20224,-1.11239 0.229,-1.69007 0.272,-2.26933c0.08716,-1.1739 0.10376,-1.76886 0.14401,-2.36533c0.12152,-1.80059 0.19901,-2.40443 0.27451,-3.01667c0.15613,-1.26629 0.25388,-1.92595 0.34732,-2.61066c0.09726,-0.71262 0.29681,-2.23784 0.39566,-3.0565c0.10254,-0.84933 0.20261,-1.72121 0.31052,-2.6055c0.10843,-0.88871 0.22018,-1.77273 0.3465,-2.6415c0.12317,-0.84724 0.40082,-2.43639 0.56415,-3.16066c0.15451,-0.68507 0.32745,-1.33144 0.50403,-1.9485c0.1709,-0.59726 0.36343,-1.17322 0.69064,-2.32267c0.33173,-1.16534 0.47925,-1.7753 0.72235,-3.04133c0.1236,-0.64375 0.22687,-1.2937 0.315,-1.944c0.17358,-1.28091 0.28473,-2.51699 0.32532,-3.10783c0.07776,-1.13242 0.09378,-1.68161 0.14667,-2.7575c0.02625,-0.53355 0.13693,-2.15246 0.19635,-2.70683c0.06049,-0.56433 0.22055,-1.71524 0.31998,-2.29934c0.10052,-0.59061 0.33191,-1.78363 0.625,-2.97916c0.14792,-0.60332 0.48688,-1.84367 0.64801,-2.50667c0.1702,-0.7003 0.33478,-1.4514 0.47549,-2.265c0.15216,-0.87973 0.38733,-2.8942 0.46701,-4.0415c0.08505,-1.22475 0.13724,-2.50885 0.18149,-3.8295c0.04477,-1.33636 0.07486,-2.66803 0.1095,-3.9735c0.03339,-1.25853 0.11108,-3.55094 0.17319,-4.54734c0.05597,-0.89827 0.12668,-1.70814 0.20398,-2.4405c0.07043,-0.66729 0.14923,-1.27868 0.22202,-1.8465c0.06854,-0.53485 0.19052,-1.54911 0.23117,-2.04967c0.04068,-0.50082 0.06738,-1.00422 0.08548,-1.5105c0.01825,-0.51007 0.02689,-1.02532 0.03152,-1.5465c0.0047,-0.52816 0.00449,-1.6095 0.00449,-2.166c0,-0.5755 0,-1.179 0,-1.8195c0,-0.6865 0,-1.428 0,-2.2335c0,-0.8785 0,-2.8905 0,-4.037c0,-1.2255 0,-2.509 0,-3.8295c0,-1.3365 0,-2.668 0,-3.9735c0,-1.2585 0,-3.5505 0,-4.54717c0,-0.89667 0,-1.70333 0,-2.43c0,-0.65667 0,-1.25333 0,-1.8c0,-0.50667 0,-1.44 0,-1.88617c0,-0.44317 0,-0.89033 0,-1.3485c0,-0.47617 0,-0.97733 0,-1.5105c0,-0.57217 0,-1.8615 0,-2.58933c0,-0.77483 0,-1.58367 0,-2.4135c0,-0.83783 0,-1.67067 0,-2.4855l0,-0.78383" id="svg_4" stroke-width="2" stroke="#000" fill="none"/>
  <path t="11006,11161,11161,11161,11161,11161,11187,11187,11187,11187,11187,11187,11187,11215,11215,11215,11215,11215,11215,11215,11215,11217,11217,11217,11217,11217,11217,11217,11217,11217,11245,11245,11245,11245,11245,11245,11245,11246,11246,11247,11247,11247,11247,11247,11247,11247,11248,11276,11276,11277,11277,11277,11277,11277,11277,11277,11279,11279,11279,11279,11279,11279,11279,11279,11279,11304,11304,11304,11304,11304,11304,11304,11304,11328,11328,11328,11328,11331,11331,11333,11333,11333,11333,11333,11334,11334,11334,11357,11358,11358,11358,11358,11358,11358,11358,11382,11382,11382,11382,11382,11382,11382,11384,11384,11384,11384,11384,11385,11411,11411,11411,11411,11411,11411,11411,11413,11413,11413,11413,11413,11413,11440,11440,11440,11440,11440,11440,11465,11465,11465,11466,11466,11466,11466,11467,11468,11468,11468,11468,11468,11495,11495,11496,11496,11496,11496,11498,11498,11498,11498,11498,11498,11524,11524,11525,11525,11525,11550,11551,11551,11551,11551,11577,11578,11578,11578,11578,11578,11604,11604,11604,11604,11605,11605,11605,11606,11607,11607,11607,11607,11608,11609,11609,11609,11609,11635,11635,11635,11635,11635,11636,11637,11637,11638,11638,11638,11665,11665,11665,11665,11665,11665,11665,11667,11667,11667,11668,11668,11695,11695,11695,11696,11696,11696,11697,11698,11698,11698,11698,11698,11725,11725,11725,11725,11726,11726,11753,11753,11753,11753,11754,11779,11779,11779,11780,11780,11780,11806,11806,11807,11807,11807,11808,11809,11809,11809,11809,11809,11809,11811,11811,11811,11812,11812,11812,11814,11814,11814,11814,11814,11867,11868,11868,11868,11868,11868,11868,11920,11920,11920,11920,11920,11921,11921,11921,11921,11972,11972,11973,11973,11973,11973,11973,11973,11974,11976,11976,11976,11976,11977,11977,11977,11977,11977,11979,11979,11979,11979,11980,11980,11980,11980,11980,11982,11982,11982,11982,11983,11983,11983,11983,11983,12032,12033,12033,12033,12033,12033,12034,12034,12034,12082,12083,12083,12083,12083,12083,12084,12084,12084,12087,12088,12088,12088,12088,12088,12089,12089,12089,12091,12091,12092,12092,12092,12092,12092,12093,12093,12094,12095,12095,12095,12095,12095,12096,12096,12096,12145,12146,12146,12146,12146,12147,12147,12147,12147,12196,12197,12197,12197,12198,12198,12198,12198,12198,12200,12201,12201,12201,12201" d="m287,344c2.6355,-3.74316 2.85376,-4.61627 2.9375,-5.5625c0.0437,-0.49384 0.06049,-1.52551 0.0625,-2.60416c0.00208,-1.12134 0,-1.69952 0,-2.29068c0,-1.22534 0,-1.86151 0,-2.51465c0,-1.36136 0,-2.07086 0,-3.53784c0,-0.7515 0,-1.51102 0,-2.27551c0,-0.76648 0,-1.53198 0,-3.048c0,-0.74548 0,-1.48398 0,-2.21848c0,-0.73352 0,-1.46902 0,-2.2095c0,-0.7485 0,-1.50803 0,-3.07202c0,-0.80933 0,-1.63464 0,-2.47198c0,-0.84534 0,-1.69467 0,-2.54401c0,-0.84534 0,-1.68268 0,-3.31732c0,-0.7905 0,-1.564 0,-2.32352c0,-0.7485 0,-1.48898 0,-2.22449c0,-0.73352 0,-2.952 0,-3.70685c0,-0.76382 0,-1.53564 0,-2.31448c0,-0.78485 0,-1.57468 0,-2.3685c0,-0.79684 0,-2.39551 0,-3.19534c0,-0.79883 0,-1.59567 0,-2.3895c0,-0.78983 0,-1.57468 0,-2.35352c0,-0.77182 0,-2.2905 0,-3.03531c0,-0.73386 0,-1.45569 0,-2.16452c0,-1.37466 0,-2.03848 0,-2.68533c0,-1.23865 0,-2.40533 0,-2.97116c0,-1.12167 0,-1.6875 0,-2.26334c0,-1.83749 0,-2.50165 0,-3.19083c0,-0.70917 0,-1.43332 0,-2.16751c0,-0.73917 0,-1.47833 0,-3.64581c0,-0.69052 0,-1.36401 0,-2.0235c0,-0.6485 0,-1.9245 0,-2.55801c0,-0.63449 0,-1.91849 0,-3.2345c0,-0.6655 0,-1.332 0,-1.99651c0,-0.6595 0,-1.95149 0,-3.1875c0,-0.5905 0,-1.7235 0,-2.27199c0,-1.076 0,-1.60951 0,-3.22801c0,-0.55466 0,-1.68599 0,-2.25867c0,-0.57466 -0.00003,-1.722 0,-2.29066c0.00009,-1.66249 -0.00433,-2.19873 0.01068,-3.248c0.00739,-0.51521 0.03781,-1.53206 0.07465,-2.03467c0.11017,-1.50378 0.26724,-2.51035 0.34,-3.02266c0.1492,-1.0507 0.23074,-1.592 0.29068,-2.14934c0.19025,-1.76924 0.2038,-2.39711 0.22684,-3.03467c0.04675,-1.29433 0.04797,-1.94398 0.05267,-2.58932c0.00464,-0.63733 0.00449,-2.46251 0.00449,-3.03601c0,-0.55949 0,-1.6485 0,-2.18399c0,-1.06801 -0.00491,-2.15202 0.00266,-3.26933c0.00385,-0.56868 0.03296,-1.71635 0.06934,-2.29066c0.03632,-0.57309 0.24915,-2.26126 0.37067,-2.80367c0.23877,-1.06564 0.40753,-1.57515 0.70667,-2.57501c0.14511,-0.48508 0.54736,-1.87498 0.68002,-2.76266c0.12775,-0.85481 0.15738,-1.7092 0.168,-2.56799c0.01093,-0.88261 -0.00128,-1.80139 0.01334,-2.752c0.00748,-0.48488 0.01971,-1.4707 0.15598,-2.964c0.04572,-0.50107 0.18549,-1.50458 0.25867,-2.01067c0.14828,-1.02548 0.24924,-1.54358 0.40802,-3.15601c0.05453,-0.55382 0.11252,-1.68588 0.13065,-2.25867c0.01819,-0.57457 0.03284,-1.722 0.03467,-2.29066c0.00534,-1.66231 -0.00311,-2.19739 0.01202,-3.23734c0.00735,-0.50504 0.00693,-1.48868 0.15598,-2.87999c0.09488,-0.88573 0.17609,-1.31822 0.375,-2.16667c0.20099,-0.85735 0.62271,-2.16745 0.77951,-2.62134c0.3223,-0.93297 0.66354,-1.87683 0.8175,-2.35333c0.30301,-0.93785 0.62799,-2.30286 0.69199,-2.744c0.12689,-0.87479 0.1796,-1.77898 0.25201,-2.73599c0.07913,-1.04572 0.13065,-1.61029 0.27451,-2.80333c0.07458,-0.61853 0.15643,-1.24309 0.34732,-2.48401c0.09329,-0.60655 0.29123,-1.75882 0.49417,-2.80333c0.09482,-0.48807 0.29813,-1.40991 0.44415,-2.29834c0.2168,-1.31895 0.27502,-2.24295 0.30902,-2.71799c0.0701,-0.97993 0.08496,-1.48784 0.2175,-2.52501c0.13846,-1.08357 0.39536,-2.19814 0.53598,-2.76599c0.14203,-0.57352 0.453,-1.71979 0.58936,-2.29468c0.39841,-1.67993 0.47134,-2.22984 0.53598,-2.76599c0.12515,-1.03809 0.18018,-2.04028 0.2175,-2.52501c0.10745,-1.39589 0.23126,-2.27843 0.37717,-3.13632c0.14481,-0.85146 0.25552,-1.2737 0.40802,-2.59201c0.10599,-0.91626 0.14102,-1.86934 0.16666,-2.35416c0.05203,-0.9837 0.05508,-1.48343 0.22134,-2.97934c0.11188,-1.00668 0.20712,-1.51004 0.35333,-2.53583c0.07425,-0.52094 0.26349,-2.13029 0.30417,-2.68534c0.08286,-1.13065 0.10196,-1.70429 0.142,-2.27866c0.07999,-1.14799 0.09323,-1.72604 0.42181,-3.3785c0.10739,-0.54005 0.25867,-1.06548 0.55734,-2.10066c0.14737,-0.51074 0.48251,-1.50945 0.75717,-3.02067c0.09018,-0.49609 0.18417,-1.48929 0.22198,-1.97933c0.07431,-0.96327 0.17792,-2.35549 0.30618,-3.2515c0.06683,-0.4669 0.23825,-1.49809 0.32532,-2.09067c0.09692,-0.65972 0.20572,-1.39971 0.38934,-3.17867c0.1091,-1.05711 0.20313,-2.22385 0.3045,-3.486c0.10809,-1.34585 0.21524,-2.76408 0.33148,-4.242c0.12006,-1.52609 0.23605,-3.08921 0.53067,-6.272c0.14798,-1.59863 0.31335,-3.18443 0.48602,-4.746c0.16876,-1.52644 0.34375,-3.00444 0.52197,-4.422c0.16928,-1.34643 0.32922,-2.60976 0.65869,-4.832c0.13986,-0.94328 0.27863,-1.78023 0.405,-2.5275c0.11377,-0.67271 0.22256,-1.28458 0.315,-1.8525c0.08743,-0.53712 0.17728,-1.05819 0.28,-2.12c0.0545,-0.56351 0.08502,-1.15455 0.11398,-1.767c0.02979,-0.63022 0.05179,-1.2747 0.078,-1.929c0.02646,-0.66037 0.04434,-1.32365 0.14133,-2.63734c0.04764,-0.64539 0.11459,-1.27897 0.186,-1.9005c0.06998,-0.60915 0.14731,-1.20367 0.22202,-1.7835c0.07263,-0.56384 0.15173,-1.10954 0.25867,-2.14933c0.05057,-0.49185 0.08517,-0.97868 0.12299,-1.473c0.03949,-0.51634 0.0817,-1.06901 0.14099,-1.671c0.06567,-0.66674 0.14227,-1.41281 0.40268,-3.18933c0.15503,-1.05769 0.35062,-2.2109 0.55801,-3.441c0.21655,-1.28457 0.44394,-2.60034 0.66599,-3.927c0.21994,-1.31401 0.44684,-2.59139 0.776,-4.96533c0.1456,-1.05015 0.25156,-2.01131 0.32849,-2.8905c0.07043,-0.80492 0.11432,-1.54678 0.1395,-2.2335c0.02347,-0.64034 0.03,-1.244 0.03201,-2.376c0.00098,-0.54517 0,-1.08134 0,-1.6095c0,-0.52117 0,-1.03633 0,-1.5465c0,-0.50617 0,-1.00933 0,-2.01067c0,-0.49983 0,-0.99867 0,-1.4955c0,-0.49383 0,-0.98367 0,-1.4685c0,-0.47883 -0.00015,-0.95067 0,-1.86933c0.00009,-0.44633 -0.00009,-0.89068 0.00449,-1.341c0.00473,-0.46435 0.0141,-0.95074 0.03152,-1.467c0.01871,-0.55442 0.04208,-1.15512 0.13065,-2.52533c0.05057,-0.78244 0.11612,-1.61743 0.186,-2.4885c0.07141,-0.89027 0.14697,-1.78236 0.22202,-2.6595c0.0723,-0.8452 0.14362,-1.64114 0.25867,-3.01867c0.04608,-0.55176 0.08133,-1.01467 0.13065,-1.71733l0.03467,-0.82133" id="svg_5" stroke-width="2" stroke="#000" fill="none"/>
  <path t="12740,12861,12861,12861,12861,12861,12878,12878,12878,12878,12878,12901,12901,12902,12902,12902,12902,12902,12920,12920,12920,12920,12920,12920,12920,12942,12942,12942,12942,12942,12942,12942,12961,12961,12961,12961,12961,12961,12979,12979,12979,12979,12979,12980,12980,12996,12996,12996,12996,12996,12996,13012,13012,13012,13012,13012,13012,13013,13029,13029,13029,13029,13029,13029,13046,13046,13046,13046,13046,13046,13046,13046,13063,13063,13063,13063,13063,13063,13081,13081,13081,13081,13081,13081,13081,13081,13099,13099,13099,13099,13099,13099,13100,13161,13161,13161,13161,13161,13161,13161,13181,13181,13181,13181,13181,13181,13181,13181,13199,13199,13199,13199,13199,13200,13200,13200,13200,13222,13222,13223,13223,13223,13223,13224,13224,13224,13244,13244,13244,13245,13245,13245,13245,13245,13245,13277,13277,13277,13278,13278,13278,13278,13278,13278,13280,13280,13280,13280,13280,13280,13280,13281,13281,13282,13282,13282,13283,13283,13283,13283,13283,13283,13286,13286,13286,13286,13286,13286,13287,13287,13287,13309,13309,13309,13309,13309,13309,13309,13310,13310,13312,13312,13312,13312,13312,13312,13312,13335,13336,13336,13336,13336,13336,13336,13357,13357,13357,13358,13358,13358,13358,13378,13378,13379,13379,13379,13379,13379,13381,13381,13381,13381,13381,13381,13381,13381,13382,13402,13402,13402,13402,13402,13402,13403,13423,13423,13423,13423,13423,13424,13424,13424,13424,13458,13458,13458,13459,13459,13459,13459,13459,13459,13461,13461,13461,13461,13461,13462,13462,13462,13462,13463,13464,13464,13464,13464,13464,13464,13465,13502,13502,13502,13503,13503,13503,13503,13503,13504,13506,13507,13507,13507,13507,13507,13508,13508,13508,13542,13542,13542,13542,13543,13543,13543,13543,13545,13545,13545,13545,13546,13546,13546,13546,13546,13548,13548,13548,13548,13549,13549,13549,13549,13549,13587,13588,13588,13588,13588,13588,13588,13589,13589,13591,13591,13591,13591,13591,13592,13592,13592,13592,13629,13630,13630,13630,13630,13630,13631,13631,13631,13668,13668,13668,13668,13669,13669,13669,13669,13669,13671,13671,13672,13672,13672,13672,13672,13673,13673,13710,13710,13711,13711,13711,13711,13711,13712,13712,13714,13714,13714,13714,13714,13715,13715,13715,13715,13753,13753,13753,13754,13754,13754,13754,13755,13755" d="m295,320c0,-3.08566 0,-4.01965 0,-5.04166c0,-0.52902 0,-1.59302 0,-2.625c0,-0.96533 0,-1.88269 0,-2.33334c0,-0.90533 -0.00189,-2.33334 0.00034,-2.84317c0.0047,-1.07568 0.00555,-1.64026 0.07166,-2.81415c0.0343,-0.60938 0.07379,-1.2341 0.26135,-2.50934c0.09656,-0.65652 0.36987,-1.98196 0.51733,-2.64801c0.14722,-0.66495 0.30643,-1.32233 0.444,-1.97549c0.39432,-1.87192 0.47119,-2.46597 0.53598,-3.0405c0.12476,-1.10623 0.1485,-1.6485 0.2175,-2.7175c0.03452,-0.53452 0.16992,-2.17371 0.23584,-2.73718c0.13467,-1.15146 0.21829,-1.73523 0.29068,-2.32532c0.14597,-1.19012 0.26508,-2.38889 0.30383,-2.98917c0.07712,-1.19492 0.08893,-1.78943 0.10065,-2.37933c0.02313,-1.16354 0.0184,-1.7355 0.021,-3.39969c0.00082,-0.53848 0.00668,-1.60657 0.02069,-2.142c0.0285,-1.08923 0.04993,-1.6496 0.14581,-2.8125c0.1019,-1.23602 0.18524,-1.87207 0.25867,-2.51733c0.07391,-0.64941 0.15897,-1.29761 0.29068,-2.58133c0.12659,-1.23373 0.16501,-1.8252 0.23584,-2.96265c0.03455,-0.55463 0.09802,-1.65714 0.15799,-2.21069c0.18768,-1.73227 0.32831,-2.33823 0.45816,-2.96265c0.13272,-0.63831 0.28561,-1.28201 0.58133,-2.58133c0.14682,-0.64502 0.31238,-1.2774 0.51733,-2.51735c0.19193,-1.16106 0.2323,-1.72733 0.3125,-2.83333c0.03992,-0.55035 0.09332,-1.66878 0.1875,-2.83333c0.04935,-0.61012 0.11548,-1.23753 0.25867,-2.53867c0.0737,-0.66978 0.15161,-1.34911 0.22202,-2.037c0.07095,-0.69344 0.19827,-2.09035 0.26733,-3.48834c0.03424,-0.69339 0.05173,-1.38129 0.06448,-2.06099c0.01254,-0.66963 0.02017,-1.97101 0.02084,-3.20834c0.00034,-0.59067 0,-1.728 0,-2.28267c0,-1.10132 0,-1.65599 0,-2.21866c0,-1.77766 0,-2.424 0,-3.11833c0,-0.75633 0,-1.58867 0,-2.511c0,-1.02634 0,-2.17067 0,-4.86934c0,-1.57449 0,-3.276 0,-5.07149c0,-1.85651 0,-3.74101 0,-5.62051c0,-1.84149 0,-3.612 0,-6.808c0,-1.36783 0,-2.58266 0,-3.6615c0,-0.95982 0,-1.81766 0,-2.5905c0,-0.70483 0,-1.35866 0,-2.58133c0,-0.60001 0,-1.2 0,-1.8c0,-0.59999 0,-1.2 0,-1.8c0,-0.59999 0,-1.2 0,-2.39999c0,-0.59984 0,-1.19867 0,-1.7955c0,-0.59383 0,-1.18367 0,-1.76849c0,-0.57884 0,-1.15067 0,-2.26933c0,-0.5455 0,-1.084 0,-1.6185c0,-0.53351 0,-1.069 0,-1.60951c0,-0.54849 0,-1.10799 0,-2.27199c0,-0.60934 0,-1.23466 0,-1.87201c0,-0.64532 0,-1.29466 0,-1.944c0,-0.64532 0,-1.28267 0,-2.51733c0,-0.59067 0,-1.16533 0,-1.728c0,-0.55467 0,-1.10533 0,-1.65599c0,-0.55467 0,-1.11734 0,-2.28267c0,-0.60951 0,-1.23601 0,-1.87651c0,-0.65149 0,-1.31099 0,-1.97549c0,-0.6665 0,-1.332 0,-2.64799c0,-0.64534 0,-1.914 0,-2.54134c0,-0.62534 0,-1.25067 0,-2.50934c0,-1.28267 0,-1.93716 0,-2.59866c0,-1.332 0,-1.99651 0,-2.65601c0,-0.65149 -0.00055,-2.528 0.00015,-3.11867c0.00067,-0.57466 0.00656,-1.69209 0.02069,-2.24266c0.02835,-1.10556 0.05005,-1.6691 0.14581,-2.83333c0.10199,-1.24004 0.18588,-1.88551 0.25867,-2.54933c0.07455,-0.67986 0.15567,-1.37405 0.22202,-2.08351c0.2056,-2.19876 0.23358,-2.9549 0.26999,-3.71649c0.03659,-0.76541 0.06537,-1.53212 0.10352,-2.29651c0.0379,-0.75963 0.0766,-1.51209 0.1485,-2.2515c0.13992,-1.43855 0.26208,-2.12875 0.39999,-2.8c0.26971,-1.31277 0.45032,-1.94881 0.616,-2.584c0.16531,-0.63381 0.65338,-2.55083 0.79315,-3.20716c0.14163,-0.66503 0.2684,-1.34364 0.38553,-2.0355c0.11926,-0.70448 0.22791,-1.42496 0.33148,-2.16151c0.10583,-0.75279 0.30594,-2.31432 0.40433,-3.12383c0.10031,-0.82516 0.19788,-1.66242 0.28952,-2.508c0.09201,-0.8491 0.17776,-1.69839 0.25348,-2.544c0.07492,-0.83706 0.19305,-2.47186 0.23618,-3.2625c0.04218,-0.77337 0.0741,-1.53317 0.117,-2.2815c0.04245,-0.74068 0.09247,-1.47689 0.17099,-2.2095c0.07883,-0.7355 0.48956,-2.9752 0.685,-3.73717c0.19849,-0.77381 0.42465,-1.55048 0.64801,-2.3355c0.22467,-0.78964 0.45648,-1.58006 0.64801,-2.3805c0.38095,-1.59201 0.49838,-2.3971 0.59732,-3.19733c0.09836,-0.79559 0.1622,-1.59034 0.21301,-2.3805c0.05048,-0.78454 0.08249,-1.56381 0.12299,-2.3355c0.07974,-1.51897 0.13498,-2.26433 0.20532,-3c0.06967,-0.72869 0.15472,-1.45005 0.255,-2.1645c0.09976,-0.71092 0.21252,-1.41771 0.345,-2.1195c0.26508,-1.40424 0.59583,-2.80305 0.76602,-3.50584c0.17111,-0.70654 0.34894,-1.41595 0.52197,-2.1315c0.17429,-0.72078 0.35703,-1.44606 0.65869,-2.93066c0.15314,-0.75359 0.28571,-1.52063 0.40948,-2.2995c0.12564,-0.79047 0.23929,-1.59594 0.3465,-2.4165c0.10919,-0.83578 0.21292,-1.68893 0.41068,-3.45066c0.10202,-0.90879 0.19995,-1.83215 0.3045,-2.763c0.1048,-0.93316 0.21231,-1.86251 0.33148,-2.781c0.11722,-0.90352 0.22537,-1.78822 0.53067,-3.456c0.14343,-0.78347 0.31363,-1.53154 0.48602,-2.256c0.16901,-0.71022 0.34918,-1.41021 0.52197,-2.112c0.17453,-0.70888 0.36328,-1.43028 0.65869,-2.96534c0.1572,-0.81683 0.28607,-1.67168 0.41849,-2.553c0.13562,-0.90268 0.26541,-1.82255 0.40952,-2.751c0.1449,-0.93357 0.2764,-1.87056 0.672,-3.696c0.19406,-0.89548 0.43295,-1.77683 0.67648,-2.664c0.24838,-0.90486 0.51642,-1.83455 0.77551,-2.808c0.27216,-1.02251 0.56897,-2.10439 1.048,-4.528c0.26538,-1.3426 0.48752,-2.7707 0.7005,-4.2555c0.2179,-1.51923 0.41016,-3.05625 0.5835,-4.5885c0.17023,-1.50479 0.32825,-2.9625 0.54932,-5.656c0.09814,-1.19588 0.16779,-2.29173 0.21902,-3.2955c0.047,-0.92027 0.07617,-1.76692 0.09299,-2.5485c0.01559,-0.72544 0.01965,-1.404 0.02133,-2.656c0.00079,-0.59067 -0.00043,-1.16538 0.009,-1.728c0.00931,-0.55473 0.02682,-1.10568 0.06299,-1.656c0.03647,-0.55508 0.07605,-1.12071 0.26135,-2.28267c0.09747,-0.61118 0.23135,-1.23405 0.37198,-1.8675c0.14206,-0.63991 0.29544,-1.27815 0.444,-1.9125c0.14612,-0.62399 0.30222,-1.22953 0.51733,-2.38667c0.0994,-0.53456 0.16925,-1.04863 0.21902,-1.5465c0.04877,-0.48757 0.07266,-0.97433 0.09299,-1.4655l0.01233,-0.50317l0.00635,-0.52217" id="svg_6" stroke-width="2" stroke="#000" fill="none"/>
  <path t="14258,14393,14394,14394,14413,14413,14413,14413,14413,14435,14435,14435,14435,14435,14435,14435,14455,14455,14455,14455,14455,14455,14456,14456,14477,14477,14477,14477,14477,14477,14477,14477,14477,14479,14479,14479,14479,14479,14479,14479,14479,14479,14515,14515,14515,14515,14515,14515,14515,14516,14516,14517,14517,14517,14517,14517,14518,14518,14518,14552,14552,14552,14552,14552,14552,14552,14552,14552,14554,14554,14554,14554,14554,14554,14554,14587,14588,14588,14588,14588,14588,14588,14589,14589,14589,14589,14589,14590,14590,14625,14625,14625,14625,14625,14625,14625,14627,14627,14627,14627,14627,14627,14663,14664,14664,14664,14664,14664,14664,14664,14701,14701,14701,14701,14701,14701,14701,14701,14702,14704,14704,14704,14704,14704,14704,14704,14704,14705,14740,14740,14740,14740,14740,14741,14741,14742,14742,14742,14743,14743,14743,14743,14779,14779,14779,14780,14780,14780,14780,14817,14817,14818,14818,14818,14818,14818,14818,14818,14821,14821,14821,14821,14821,14821,14821,14821,14822,14860,14860,14860,14860,14860,14861,14861,14861,14861,14897,14897,14897,14897,14897,14898,14898,14898,14898,14899,14900,14900,14900,14900,14901,14901,14901,14901,14940,14940,14940,14940,14940,14940,14941,14941,14941,14942,14943,14943,14943,14943,14943,14943,14984,14985,14985,14985,14985,14985,14985,15069,15070,15070,15070,15070,15070,15070,15070,15071,15073,15073,15073,15074,15074,15074,15074,15075,15075,15115,15115,15115,15115,15115,15116,15116,15116,15116,15159,15159,15159,15159,15159,15160,15160,15160,15160,15162,15162,15162,15162,15162,15162,15163,15163,15163,15164,15165,15165,15165,15165,15165,15165,15165,15166,15215,15215,15216,15216,15216,15216,15216,15216,15217,15219,15220,15220,15220,15220,15220,15221,15221,15221,15224,15224,15224,15224,15224,15225,15225,15225,15225,15267,15267,15267,15267,15268,15268,15268,15268,15268,15311,15311,15311,15311,15311,15312,15312,15312,15312,15314,15314,15314,15315,15315,15315,15315,15315,15315,15317,15318,15318,15318,15318,15318,15319,15319,15319,15362,15362,15362,15363,15363,15363,15363,15363,15364" d="m301,316c0,2.33334 -0.00906,1.63339 0.05716,0.76767c0.08438,-1.10321 0.22586,-1.93848 0.36816,-2.83966c0.07416,-0.46976 0.24725,-1.43408 0.40802,-2.92801c0.05377,-0.49966 0.11545,-1.51343 0.14133,-2.03201c0.05368,-1.07584 0.0726,-1.6398 0.10934,-2.224c0.12006,-1.90967 0.19891,-2.60037 0.27765,-3.31549c0.08115,-0.73694 0.17596,-1.49155 0.285,-2.2605c0.1109,-0.78207 0.22617,-1.57449 0.51999,-3.168c0.14774,-0.80115 0.31512,-1.59915 0.48602,-2.39551c0.17044,-0.79431 0.34763,-1.58359 0.52197,-2.3685c0.17297,-0.77878 0.35175,-1.54852 0.65869,-3.06934c0.15024,-0.74448 0.28464,-1.4834 0.40948,-2.21848c0.12451,-0.73297 0.23883,-1.46866 0.3465,-2.2095c0.1087,-0.74814 0.2135,-1.50751 0.41068,-3.07202c0.10196,-0.80905 0.20059,-1.63443 0.2955,-2.47198c0.09576,-0.84512 0.18646,-1.6944 0.26849,-2.54401c0.0816,-0.84506 0.1629,-1.68182 0.26935,-3.31732c0.05142,-0.79013 0.08426,-1.564 0.1185,-2.32352c0.03375,-0.7485 0.06494,-1.48923 0.1095,-2.22449c0.04446,-0.73376 0.26474,-2.95309 0.38132,-3.70651c0.11801,-0.76266 0.26056,-1.5274 0.40802,-2.29349c0.14722,-0.76489 0.30154,-1.52347 0.444,-2.27551c0.14017,-0.73996 0.37988,-2.17551 0.46231,-2.86682c0.08005,-0.67145 0.17584,-1.97079 0.20135,-2.60135c0.02509,-0.62015 0.03714,-1.23264 0.04166,-3.04166c0.0015,-0.60001 0,-1.2 0,-2.39999c0,-0.60001 0,-1.20001 0,-2.40001c0,-1.2 -0.00388,-1.80002 0.00449,-3c0.00418,-0.60001 0.00638,-1.20035 0.05267,-2.39999c0.02316,-0.60022 0.09961,-1.80101 0.22684,-3c0.06372,-0.60056 0.14331,-1.19975 0.29068,-2.40001c0.07364,-0.59987 0.16818,-1.19777 0.30383,-3c0.0451,-0.59938 0.07233,-1.19978 0.10065,-2.39999c0.01416,-0.59993 0.01837,-1.2 0.02084,-3c0.00082,-0.60133 -0.00348,-1.21071 0.01068,-2.48534c0.00757,-0.68137 0.02277,-1.40274 0.04648,-2.172c0.02542,-0.82542 0.1073,-2.67612 0.16418,-3.713c0.0603,-1.09914 0.13055,-2.24205 0.20398,-3.411c0.07391,-1.17705 0.1499,-2.34398 0.22202,-3.483c0.06918,-1.09297 0.18839,-3.06888 0.23117,-3.92084c0.0383,-0.76273 0.06656,-1.44759 0.08548,-2.06551c0.01721,-0.56177 0.02676,-1.07864 0.03152,-1.56149c0.00452,-0.45982 0.00449,-1.35451 0.00449,-1.80951c0,-0.465 0,-0.93999 0,-1.42499c0,-1 0,-1.515 0,-3.12001c0,-0.55466 0,-1.68599 0,-2.25867c0,-1.14932 0,-1.722 0,-2.29066c0,-1.66434 0,-2.21333 0,-3.36533c0,-0.627 0,-1.304 0,-2.043c0,-0.813 0,-2.709 0,-3.81033c0,-1.18933 0,-2.44467 0,-3.744c0,-1.32133 0,-2.64267 0,-3.942c0,-1.25534 0,-3.54601 0,-4.54266c0,-0.89667 0,-1.70334 0,-2.43001c0,-0.65666 0,-1.25333 0,-1.79999c0,-0.50667 0,-1.44 0,-1.88718c0,-0.45016 0,-0.91634 0,-1.4115c0,-0.53717 0,-1.12933 0,-1.78951c0,-0.74117 0,-2.51849 0,-3.57449c0,-1.15199 0,-2.37601 0,-3.64799c0,-1.29601 0,-2.59201 0,-3.864c0,-1.22401 -0.00113,-3.43201 0.00034,-4.37434c0.00131,-0.83633 0.0036,-1.58076 0.021,-2.24699c0.01575,-0.60248 0.04248,-1.1554 0.09299,-1.67101c0.04849,-0.49515 0.21335,-1.47424 0.32834,-1.9825c0.11945,-0.52788 0.26181,-1.06723 0.40802,-1.6185c0.14847,-0.55972 0.30231,-1.12306 0.444,-1.69051c0.14099,-0.56459 0.38013,-1.68021 0.46231,-2.22649c0.08032,-0.53386 0.13437,-1.05959 0.17102,-1.57501c0.03589,-0.50462 0.06726,-1.48499 0.07199,-2.87999c0.00153,-0.44717 -0.00055,-1.3636 0.02084,-2.39584c0.01227,-0.59222 0.03345,-1.25246 0.06448,-1.9935c0.07446,-1.77763 0.13434,-2.8336 0.20001,-3.98666c0.06989,-1.22728 0.14835,-2.50549 0.2355,-3.8115c0.08749,-1.31133 0.17776,-2.6048 0.28049,-3.8565c0.18793,-2.29024 0.29453,-3.28932 0.39999,-4.20533c0.09912,-0.86098 0.20856,-1.69211 0.31952,-2.5215c0.11432,-0.85461 0.24051,-1.76047 0.3645,-2.74651c0.29111,-2.31478 0.43842,-3.69242 0.59998,-5.20933c0.17429,-1.63641 0.35123,-3.37328 0.53552,-5.19c0.19037,-1.87661 0.3819,-3.79352 0.58047,-5.73c0.39517,-3.85369 0.59753,-5.73242 0.79602,-7.56533c0.19287,-1.78108 0.3826,-3.50386 0.561,-5.163c0.17087,-1.58887 0.33359,-3.10139 0.47098,-4.533c0.24866,-2.59094 0.3313,-3.7431 0.40268,-4.80267c0.0657,-0.97514 0.11539,-1.87479 0.168,-2.706c0.04883,-0.77145 0.09222,-1.49202 0.168,-2.166c0.14096,-1.25365 0.26758,-1.84292 0.39999,-2.416c0.13037,-0.56432 0.28268,-1.11733 0.43201,-1.668c0.14932,-0.55067 0.30615,-1.10265 0.43201,-1.668c0.2583,-1.16032 0.33362,-1.77407 0.39734,-2.40267c0.06519,-0.64283 0.10382,-1.30112 0.129,-1.971c0.02554,-0.67949 0.03516,-1.36731 0.039,-2.061c0.00772,-1.39732 0.00183,-2.097 0.004,-2.79467c0.00217,-0.69367 0.00671,-1.38138 0.0195,-2.061c0.0126,-0.66972 0.02927,-1.32768 0.06448,-1.971c0.06778,-1.23815 0.13232,-1.82841 0.19867,-2.40267c0.06506,-0.5631 0.14133,-1.11733 0.216,-1.668c0.07468,-0.55067 0.15326,-1.10464 0.216,-1.668c0.12961,-1.16403 0.16501,-1.77655 0.20267,-2.416c0.03976,-0.67521 0.07434,-1.39485 0.12299,-2.166c0.05246,-0.83154 0.11517,-1.73164 0.21301,-2.706c0.22226,-2.2131 0.4046,-3.45768 0.59732,-4.78133c0.20108,-1.38106 0.42325,-2.79479 0.64801,-4.221c0.22324,-1.41645 0.44775,-2.79979 0.64801,-4.131c0.36243,-2.40912 0.49368,-3.45215 0.59732,-4.388c0.09308,-0.84059 0.16037,-1.6011 0.21301,-2.2935c0.04843,-0.63696 0.08215,-1.23255 0.12299,-1.7985c0.07919,-1.09779 0.13635,-1.65211 0.20401,-2.212c0.06802,-0.56281 0.14743,-1.12317 0.2355,-1.677c0.08664,-0.54485 0.17896,-1.07558 0.28049,-1.587c0.18988,-0.95645 0.29736,-1.39094 0.39734,-1.80267c0.09573,-0.39427 0.19067,-0.776 0.28049,-1.152l0.08484,-0.376l0.07883,-0.382l0.07184,-0.394" id="svg_7" stroke-width="2" stroke="#000" fill="none"/>
  <path t="15870,16010,16010,16010,16010,16027,16027,16028,16028,16028,16046,16046,16046,16046,16064,16064,16064,16064,16064,16083,16083,16083,16083,16110,16110,16110" d="m279,336c6.15701,0 7.08566,0 7.95834,0c0.83264,0 2.04166,0 2.84164,0c0.80002,0 1.60001,0 2.40002,0c1.19998,0 2,0 2.79999,0c0.79999,0 2,0 2.79999,0c0.80002,0 1.60001,0 2.40002,0c1.19965,0 1.991,0 2.75833,0c0.72733,0 1.99866,0 2.76965,0l0.66299,0" id="svg_8" stroke-width="2" stroke="#000" fill="none"/>
  <path t="16436,16543,16543,16543,16543,16570,16570,16570,16570,16570,16601,16601,16601,16601,16603,16603,16603,16603,16603,16633,16634,16634,16634,16637,16637,16637" d="m277,347c4.39999,-1.75699 5.19846,-1.90561 6,-1.95834c0.79892,-0.05255 2.00003,-0.03766 2.79999,-0.043c0.80005,-0.00534 1.60153,-0.01416 2.40002,-0.08398c1.20325,-0.10519 2.00418,-0.26904 2.82083,-0.41467c0.83603,-0.14908 2.14493,-0.34378 3.06183,-0.41599c0.46509,-0.03662 1.39743,-0.06976 2.3075,-0.13669c1.27811,-0.09399 2.04047,-0.21912 2.72717,-0.37265c0.92029,-0.20575 1.96115,-0.45319 2.64667,-0.53867l0.83466,-0.03467" id="svg_9" stroke-width="2" stroke="#000" fill="none"/>
  <path t="16917,17043,17043,17073,17073,17107,17107" d="m306,331c-0.94284,4.13751 -0.99866,4.96667 -1,6.00534l0,0.74399l0,1.10767l0,0.72168" id="svg_10" stroke-width="2" stroke="#000" fill="none"/>
  <path t="17350,17476,17476,17476,17492,17492,17492,17493,17493,17513,17513,17513,17513,17513,17513,17537,17537,17537,17537,17537,17560,17560,17560,17560,17561,17561" d="m282,312c2.056,-0.91467 3.06238,-0.9859 3.81351,-0.99551c1.1864,-0.01517 1.98917,-0.00449 2.80783,-0.00449c0.85065,0 1.293,0 2.71201,0c1.03467,0 1.57199,0 2.11731,0c1.09869,0 1.64401,0 3.216,0c0.96268,0 1.41901,0 2.29169,0c0.83264,0 2.04166,0 2.83765,0c0.772,0 1.83252,0 2.93951,0l0.702,0" id="svg_11" stroke-width="2" stroke="#000" fill="none"/>
  <path t="17792,17926,17926,17926,17926,17943,17943,17943,17943,17943,17943,17963,17963,17964,17964,17964,17964,17964,17988,17988,17988,17988,17988,18012,18012,18012,18012,18013,18013" d="m277,304c5.27866,-0.87866 6.14734,-0.94733 7,-1c0.85266,-0.05267 2.16745,-0.1604 2.62167,-0.22168c0.94183,-0.12704 1.92114,-0.31448 2.42499,-0.42499c1.04257,-0.22867 2.12204,-0.51285 3.23599,-0.83734c0.56659,-0.16504 1.13239,-0.34015 2.25601,-0.69064c0.5517,-0.17209 1.08817,-0.35425 2.61835,-0.80383c0.92639,-0.27219 1.37006,-0.38916 2.22165,-0.61084c0.81775,-0.21286 2.02048,-0.51202 2.80783,-0.70618c0.75064,-0.18512 1.75751,-0.41916 2.75751,-0.62183l0.74249,-0.1925" id="svg_12" stroke-width="2" stroke="#000" fill="none"/>
  <path t="18237,18343,18343,18343,18345,18345,18345,18345,18387,18387,18388,18389" d="m305,291c0.87851,6.59283 0.97809,7.64093 0.99551,8.49182c0.02356,1.1506 0.00449,1.81351 0.00449,2.50818c0,1.03201 0,1.95685 0,2.9375l0,0.89584l0,0.86215" id="svg_13" stroke-width="2" stroke="#000" fill="none"/>
  <path t="18764,18859,18860,18860,18860,18860,18899,18899,18899,18899,18899,18900,18900,18900,18900,18900,18900,18944,18944,18944,18944,18944,18944,18944,18944,18985,18985,18985,18985,18985,18985,18985,18985,18985,18987,18987,18987,18987,18987,18987,18987,18987,18987,19071,19071,19071,19071,19071,19071,19071,19071,19111,19111,19111,19111,19111,19111,19111,19111" d="m306,278c-0.87851,7.91415 -0.92557,8.4595 -0.96399,9.46667c-0.03534,0.92633 -0.03534,1.81332 -0.03601,2.69998c-0.0007,0.91867 0,1.86935 0,2.35419c0,0.98364 0,2.47916 0,2.97931c0,1.00433 0,1.51053 0,2.53586c0,0.52115 0,2.13065 0,2.68716c0,1.17899 0,1.81949 0,2.50598c0,0.74152 0,1.547 0,2.42551c0,2.01199 0,3.15833 0,4.38266c0,1.28033 0,2.59467 0,3.92102c0,1.31631 0,2.60065 0,3.83099c0,2.21066 0,3.15265 0,3.98666c0,0.73801 0,1.392 0,1.974c0,0.522 0,0.996 0,1.43399c0,0.81601 0,1.21667 0,1.62134c0,0.41266 0,0.83734 0,1.27802c0,0.46066 0,0.94531 0,2.58331c0,0.61816 0,1.26535 0,1.93051c0,0.67218 0,1.9935 0,2.62067l0,0.59018" id="svg_14" stroke-width="2" stroke="#000" fill="none"/>
  <path t="19349,19410,19411,19411,19411,19411,19411,19411,19411,19411,19433,19433,19433,19433,19433,19433,19433,19457,19457,19481,19481,19481,19504,19504" d="m295,308c0,7.66666 0,8.58484 0,9.53201c0,0.96515 0,1.93732 0,2.90549c0,0.95316 0,1.88034 0,2.77051c0,1.62534 0,2.34116 0,2.992c0,0.59082 0,1.12665 0,2.05331c0,0.76666 0,1.97733 0,2.72583c0,1.1875 0,1.96902 0,2.75952l0,0.92798l-0.03601,0.87601" id="svg_15" stroke-width="2" stroke="#000" fill="none"/>
 </g>
 <g display="none">
  <title>muse_image</title>
  <image xlink:href="http://farm1.static.flickr.com/173/470047824_4f8fae5a90.jpg" id="muse" height="480" width="285" y="0" x="177.5"/>
 </g>
 <g display="none">
  <title>bbox</title>
  <rect stroke="#f00" fill="none" stroke-width="3" height="379.2" width="117.07071" y="25.92" x="257.14646" id="bbox"/>
 </g>
</svg>
