<svg width="640" height="480" xmlns="http://www.w3.org/2000/svg" xmlns:svg="http://www.w3.org/2000/svg" xmlns:xlink="http://www.w3.org/1999/xlink">
 <!-- Sketchy ANNOTATION
  ImageNet ID: n03272010_6737
  URL: http://farm1.static.flickr.com/193/1515258895_c15addcc7f.jpg
  Image Width: 375
  Image Height: 500
  BBox X: 105
  BBox Y: 0
  BBox Width: 161
  BBox Height: 494
  Exposure: 2000ms
  Synset Label: guitar
  Synset ID: n03467517
  Worker Tag: brown electric guitar
  Sanity Check: 
   Saved
  Comment: 
   {}
  Worker ID: AXD2DZ7U6CK35
  Assignment ID: 3SEPORI8WNZYFJYWOSDKK3RL0L3ZAH
  HIT ID: 3MGHRFQY2LP0MWSFA296S6BLHKZY0Q
  Work Time: 55s
  Worker Score: 0.7202
 END ANNOTATION -->
 <g display="inline">
  <title>Layer 1</title>
  <path t="0,151,175,210,226,243,258,259,275,292,309,325,342,359,359,375,392,392,409,409,425,442,442,459,459,475,475,475,492,492,509,509,509,524,524,541,541,557,557,558,574,574,574,590,590,590,607,608,608,623,623,623,640,641,641,641,657,657,657,657,673,673,673,690,690,691,707,707,707,708,723,723,724,740,740,758,758,774,774,791,808,808,824,824,841,862,862,878,894,907,923,970,1127,1134,1143,1158,1174,1191,1208,1224,1419,1419,1434,1446,1462,1475,1492,1509,1525,1525,1525,1542,1542,1559,1559,1575,1575,1575,1592,1592,1592,1609,1609,1609,1609,1625,1625,1625,1642,1642,1642,1659,1660,1660,1660,1675,1675,1675,1675,1675,1692,1692,1692,1709,1709,1709,1709,1725,1725,1742,1742,1742,1742,1759,1759,1759,1759,1775,1775,1775,1775,1775,1792,1792,1792,1792,1809,1809,1809,1809,1809,1809,1825,1825,1825,1825,1825,1825,1825,1841,1841,1841,1841,1841,1858,1858,1858,1858,1858,1874,1874,1874,1874,1891,1891,1891,1891,1891,1907,1908,1908,1908,1908,1908,1923,1923,1924,1924,1924,1940,1941,1941,1941,1958,1958,1958,1958,1973,1974,1974,1974,1974,1974,1991,1991,1991,1991,1991,2008,2008,2008,2008,2023,2024,2024,2024,2040,2041,2041,2058,2058,2058,2058,2073,2074,2074,2074,2074,2090,2091,2091,2091,2108,2108,2108,2123,2124,2124,2124,2140,2141,2141,2141,2141,2157,2158,2158,2174,2174,2174,2191,2191,2191,2208,2208,2208,2224,2224,2241,2283,2642,2654,2662,2663,2675,2691,2708,2708,2724,2724,2741,2758,2758,2774,2791,2808,2808,2824,2841,2841,2858,2874,2891,2908,2908,2925,2941,2958,2959,2974,2975,2991,2991,3008,3008,3024,3024,3041,3041,3041,3058,3058,3075,3075,3091,3091,3091,3108,3108,3108,3124,3124,3124,3141,3141,3158,3159,3175,3175,3191,3191,3208,3208,3209,3224,3224,3242,3243,3258,3274,3291,3308,3363,3375,3527,3563,3615,3616,3631,3675,3731,3751,3752,3775,3793,3822,3822,3842,3859,3875,3875,3892,3892,3909,3910,3924,3925,3941,3959,3959,3974,3992,3992,4008,4009,4009,4024,4025,4042,4042,4058,4059,4059,4074,4075,4091,4092,4092,4109,4109,4124,4141,4142,4158,4174,4174,4175,4191,4191,4209,4209,4224,4225,4241,4258,4258,4274,4291,4308,4339,4351,4351,4361,4375,4395,4427,4450,4462,4474,4491,4508,4524,4541,4541,4558,4574,4591,4591,4608,4625,4641,4658,4658,4674,4691,4691,4708,4708,4726,4742,4743,4758,4774,4774,4791,4808,4808,4824,4841,4841,4841,4858,4875,4875,4891,4891,4908,4908,4924,4924,4941,4941,4958,4974,4991,4991,5008,5008,5024,5041,5058,5074,5074,5091,5091,5091,5108,5124,5124,5141,5141,5141,5158,5174,5174,5174,5191,5191,5208,5208,5224,5224,5224,5241,5241,5258,5258,5274,5274,5275,5291,5291,5308,5308,5324,5324,5341,5358,5358,5374,5374,5374,5391,5391,5408,5408,5424,5424,5424,5441,5441,5441,5458,5458,5474,5474,5474,5491,5508,5508,5508,5509,5524,5524,5524,5541,5541,5558,5558,5574,5574,5591,5591,5608,5608,5624,5624,5624,5641,5641,5658,5674,5691,5691,5708,5708,5724,5724,5741,5741,5758,5758,5774,5774,5791,5791,5791,5808,5808,5808,5824,5824,5824,5845,5858,5858,5875,5875,5892,5892,5909,5909,5910,5925,5925,5942,5942,5943,5959,5959,5975,5975,5975,5976,5992,5992,5993,6009,6010,6010,6010,6025,6025,6026,6026,6042,6042,6043,6043,6059,6060,6060,6060,6075,6075,6076,6076,6092,6093,6093,6109,6110,6110,6110,6110,6125,6125,6126,6126,6142,6143,6143,6143,6159,6160,6160,6160,6175,6176,6176,6176,6192,6192,6193,6209,6210,6210,6210,6210,6224,6224,6224,6225,6243,6243,6243,6259,6260,6260,6275,6275,6276,6276,6276,6292,6292,6293,6293,6293,6309,6310,6310,6310,6311,6325,6326,6326,6326,6326,6343,6343,6344,6344,6359,6360,6360,6360,6360,6375,6376,6376,6376,6392,6393,6393,6393,6409,6410,6410,6425,6426,6426,6442,6443,6443,6460,6460,6460,6476,6476,6476,6492,6492,6493,6509,6510,6510,6510,6525,6526,6526,6543,6543,6562,6562,6575,6593,6593,6609,6625,6626,6642,6662,6690,6691,6726,6750,6766,6775,6802,6825,6862,6886,6887,6914,7027" d="m238,23c-0.80133,0 -1.45149,0.33101 -2.16667,0.83333c-0.69543,0.48845 -1.58359,0.4486 -2,1.16667c-0.42047,0.72505 -1.36543,0.93469 -2.13333,1.35267c-0.84081,0.45766 -1.58282,0.93664 -1.70016,1.74733c-0.13112,0.90583 -0.70378,1.57793 -0.99983,2.42083c-0.27522,0.7836 -0.62187,1.63753 -0.87866,2.45767c-0.25264,0.80685 -0.81705,1.61856 -1.03601,2.50683c-0.17451,0.70797 -0.03796,1.71731 -0.10616,2.51467c-0.08612,1.0069 -0.40219,1.80606 -0.7805,2.6c-0.38425,0.80637 -0.8407,1.57872 -1.07733,2.6c-0.18265,0.78827 -0.1604,1.41317 -0.474,2.4c-0.25821,0.81251 -0.59496,1.79761 -0.63667,2.6c-0.05193,0.99887 0.00142,1.82486 -0.09599,2.48533c-0.14877,1.00863 -0.44183,1.82928 -0.63068,2.716c-0.1902,0.89308 -0.22873,1.79127 -0.33667,2.6415c-0.13217,1.04111 -0.42426,1.71693 -0.66333,2.64116c-0.25606,0.98984 -0.24591,1.56385 -0.33667,2.47767c-0.09996,1.00649 -0.29999,2.091 -0.44733,2.83833c-0.14734,0.74733 -0.34488,1.83203 -0.416,2.51466c-0.10033,0.96294 -0.08487,1.58923 -0.30533,2.78517c-0.16544,0.89747 -0.40167,1.45362 -0.612,2.5335c-0.18399,0.94468 -0.19229,1.68085 -0.388,2.80933c-0.11543,0.66562 -0.29544,1.35397 -0.49467,2.38933c-0.17747,0.92225 -0.2628,1.69553 -0.28267,2.56534c-0.02289,1.00242 0.01062,1.82092 -0.28532,2.80133c-0.23657,0.78374 -0.67207,1.71393 -0.71468,2.48534c-0.05191,0.9399 -0.00133,1.94933 -0.00133,2.74133c0,0.85867 0.15457,1.73546 -0.01067,2.73866c-0.14294,0.86785 -0.84116,1.40462 -0.98483,2.336c-0.13722,0.88949 -0.0045,1.8 -0.0045,2.7c0,0.9 -0.16553,1.90281 0.35266,2.54733c0.49153,0.61137 1.16808,1.03638 2.14734,1.05267c0.88927,0.01479 1.45267,0.62772 2.20534,0.94733c0.90759,0.38541 1.29332,0.854 1.29466,1.75266c0.00134,0.9 0,1.8 0,2.7c0,0.9 -0.09381,1.82255 0.16667,2.76666c0.19086,0.69173 0.62866,1.41991 0.77617,2.43333c0.11548,0.79337 0.05716,1.80134 0.05716,2.636c0,0.93066 -0.0302,1.71873 0.036,2.53867c0.08583,1.06325 0.34036,1.77018 0.53867,2.48666c0.29416,1.06282 0.37267,2.04401 0.42534,2.73867c0.05267,0.69466 0.20267,1.96228 0.42534,2.73867c0.20494,0.71461 0.48103,1.68038 0.53867,2.49733c0.06116,0.86691 0.036,2.06433 0.036,2.673c0,0.963 0,1.66167 0,2.83366c0,0.86267 0,1.308 0,2.20668c0,0.88266 -0.00922,2.10779 0.0045,2.83632c0.01871,0.99333 0.14812,2.21727 0.2795,2.813c0.19524,0.88535 0.48323,1.70718 0.63068,2.71733c0.09923,0.67984 0.08533,1.85068 0.08533,2.64568c0,0.58 0,1.52499 0,2.55983c0,0.73567 0,1.49933 0,2.283c0,1.1955 0,1.9955 0,2.7955c0,0.79999 0,1.59999 0,2.80016c0,0.80434 0,1.62067 0,2.457c0,1.30951 -0.00101,2.23085 0.0045,2.709c0.01147,0.9964 0.01807,1.5172 0.08083,2.60583c0.06702,1.16225 0.19696,2.39485 0.26733,3.02884c0.07097,0.63936 0.15005,1.27802 0.29468,2.53667c0.06998,0.60901 0.19945,1.76154 0.26733,2.8065c0.06154,0.94728 0.07109,1.39339 0.08083,2.24249c0.01392,1.21342 -0.00217,2.01364 0.01517,2.81351c0.01733,0.8002 0.04478,1.60376 0.21066,2.79999c0.11134,0.80302 0.29002,1.59799 0.42601,2.40001c0.20299,1.19724 0.27979,2.00201 0.31667,2.82133c0.03827,0.85017 0.03532,1.74933 0.036,2.71199c0.00072,1.03467 0,1.57201 0,2.66667c0,0.54933 0,1.632 0,2.66667c0,0.96133 0,1.85066 0,2.67599c0,0.76933 0,1.836 0,2.832c0,0.65067 -0.00786,1.30936 0.00133,2.71333c0.00504,0.76938 0.0284,1.59502 0.05583,2.03084c0.08914,1.41592 0.22504,2.44939 0.2955,2.9865c0.14368,1.09515 0.22601,1.64348 0.29468,2.18933c0.19756,1.57059 0.27191,2.53441 0.2955,2.991c0.04507,0.87225 0.0549,1.70534 0.05716,2.91434c0.00148,0.79866 0,1.58934 0,2.364c0,1.46933 0,2.15067 0,2.8c0,0.9315 0,2.136 0,2.73599c0,0.90001 0,2.10001 0,2.70267c0,0.93901 0,1.61168 0,2.73067c0,0.83467 0,1.71733 0,2.61601c0,0.88266 0,2.10767 0,2.83632c0,0.67267 0,1.61168 0,2.51434c0,0.89999 0.00223,1.8 0,2.7c-0.00226,0.90901 0.00638,1.54373 -0.08533,2.57066c-0.10495,1.17519 -0.26669,2.03477 -0.34001,2.48c-0.14803,0.8989 -0.31721,1.77811 -0.45316,3.00618c-0.08,0.72278 -0.11273,1.68581 -0.12151,2.77649c-0.00574,0.71399 -0.01825,1.62674 -0.22133,2.58801c-0.17145,0.81155 -0.42207,1.3392 -0.65717,2.65717c-0.12131,0.68008 -0.12083,1.52016 -0.12151,2.517c-0.0005,0.74733 0,1.76851 0,2.7c0,0.92599 0,1.8045 0,2.7045c0,0.79999 0.0992,1.70856 -0.02083,2.52084c-0.146,0.9881 -0.53101,1.69272 -1.07918,2.45764c-0.5446,0.75995 -1.0882,1.51465 -2,1.90002c-0.65421,0.27649 -1.66237,0.08472 -2.39999,0.64233c-0.77728,0.58759 -1.26799,1.32394 -2.136,1.46848c-0.83653,0.13931 -1.71133,0.01068 -2.728,0.01068c-0.936,0 -1.88446,0.15353 -2.636,-0.16666c-0.7812,-0.33282 -1.53209,-0.76804 -2.3,-1.186c-0.84116,-0.45782 -1.62062,-0.76974 -2.35266,-1.35718c-0.55072,-0.44193 -1.32607,-1.2684 -1.82651,-1.76932c-0.72116,-0.72183 -1.27748,-1.24237 -1.7195,-2.00751c-0.42181,-0.73016 -0.65285,-1.67755 -0.74866,-2.46152c-0.09636,-0.78848 -0.22546,-1.93607 -0.66335,-2.66647c-0.44205,-0.73734 -0.89494,-1.40335 -1.38933,-2.38535c-0.30347,-0.60278 -0.72301,-1.44794 -1.09984,-2.42133c-0.3085,-0.79691 -0.51656,-1.34138 -0.73349,-2.412c-0.18695,-0.92261 -0.20479,-1.77879 -0.51933,-2.76668c-0.19409,-0.60959 -0.5677,-1.59583 -0.62651,-2.39999c-0.07295,-0.99756 -0.02083,-1.78934 -0.02083,-2.83333c0,-0.828 0,-1.7095 0,-2.42801c0,-0.7905 0,-2.052 0,-2.69699c0,-1.02017 0,-1.84033 0,-2.74167c0,-0.90001 0,-1.8 0,-2.7c0,-0.90001 0.37384,-2.16302 -0.2215,-2.60001c-0.70821,-0.51982 -1.74519,-0.2206 -2.37851,-0.57466c-0.86127,-0.48151 -1.80817,-0.54193 -2.7,-0.42084c-0.82121,0.11151 -1.18039,0.93486 -1.75267,1.63834c-0.50273,0.61798 -0.77916,1.3936 -1.03265,2.15717c-0.25635,0.77217 -0.69029,1.58516 -1.20134,2.39999c-0.36644,0.58426 -1.44106,1.00879 -2.00349,1.55717c-0.64853,0.63232 -0.61015,1.65579 -1.067,2.48566c-0.34312,0.62329 -1.26044,1.22282 -1.52133,2.07851c-0.25096,0.82309 -0.12151,1.79333 -0.12151,2.77899c0,0.714 0.01927,1.66983 -0.02083,2.4205c-0.04263,0.79797 -0.27573,1.78976 -0.55383,2.6685c-0.31845,1.00621 -0.35806,1.82423 -0.59201,2.81067c-0.14496,0.61122 -0.54448,1.38499 -0.74933,2.39999c-0.15973,0.79149 -0.30119,1.80148 -0.584,2.60001c-0.21289,0.6011 -0.47012,1.59424 -0.49867,2.51468c-0.03055,0.98486 -0.00133,1.96933 -0.00133,2.65997c0,0.94135 0,1.992 0,2.66135c0,0.76532 0,1.76401 0,2.564c0,1 0,1.80002 0,2.79984c0,0.96417 0,1.91483 0,2.80017c0,0.79999 -0.01041,1.70007 0,2.60001c0.01042,0.90018 0.4765,1.6311 0.87866,2.5c0.30641,0.66202 0.86829,1.43716 1.08534,2.29999c0.21974,0.8735 0.036,1.80002 0.036,2.70001c0,0.89999 0.48317,1.50717 0.91467,2.18533c0.49315,0.77505 -0.09601,1.86813 0.252,2.71466c0.27589,0.67108 0.68091,1.51434 0.84399,2.39999c0.15311,0.83145 0.63802,1.42813 1.04201,2.30002c0.38533,0.83163 0.76044,1.65945 1.16882,2.39999c0.37196,0.6745 1.31126,1.22232 1.6945,2.10132c0.28149,0.64566 0.47653,1.64883 0.88533,2.31467c0.54314,0.88461 1.28445,1.41364 1.76266,2.08401c0.52507,0.73608 1.03658,1.55637 1.58534,2c0.7926,0.64078 1.04369,1.52408 1.55516,2.10001c0.66029,0.7435 1.30237,1.46252 1.6955,2.12534c0.40717,0.68646 1.11844,1.48972 1.43333,2.34131c0.29474,0.79709 0.29367,1.69028 0.77734,2.45868c0.45317,0.71994 0.95122,1.34485 1.26799,2.35333c0.23773,0.75684 0.50882,1.66025 0.76868,2.36865c0.36671,0.99973 0.20677,1.90207 0.57399,2.75284c0.31032,0.71893 0.74881,1.55118 0.77734,2.41583c0.03175,0.96265 0.00133,1.784 0.00133,2.68533c0,0.96533 0,1.81952 0,2.79868c0,0.78934 0.11836,1.52432 -0.02083,2.5c-0.14409,1.00998 -0.58559,1.71277 -0.97917,2.5c-0.39572,0.79147 -0.82419,1.4989 -1.2955,2.24734c-0.56755,0.90128 -0.63155,1.59698 -0.7885,2.35397c-0.21021,1.01382 -0.6187,1.79956 -1.01601,2.59869c-0.39819,0.80087 -0.89999,1.79999 -1.2,2.39999c-0.39999,0.79999 -0.77858,1.61121 -1.2,2.37915c-0.47615,0.86771 -1.04662,1.48874 -1.60001,2.34235c-0.43826,0.67603 -0.71997,1.27014 -1.1955,2.2785c-0.28038,0.59454 -0.55843,1.60406 -0.7045,2.37915c-0.18958,1.00586 -0.77246,1.65707 -1.2955,2.32535c-0.62628,0.8002 -0.59471,1.54861 -0.87117,2.6955c-0.14651,0.60782 -0.5006,1.36847 -1.13333,2.24734c-0.47299,0.65698 -1.02771,1.40103 -1.39999,2.21432c-0.43274,0.94534 -0.59537,1.49271 -0.90001,2.31299c-0.39401,1.06091 -0.69038,1.77277 -1.09999,2.62085c-0.39072,0.80896 -0.86859,1.57721 -1.13333,2.60449c-0.19966,0.77478 -0.03583,1.52835 -0.20834,2.54166c-0.16814,0.98752 -0.52838,1.51077 -0.80899,2.14502c-0.4473,1.01102 -0.86879,1.96765 -1.035,2.79898c-0.1371,0.68567 -0.02486,1.72171 -0.15033,2.67834c-0.10866,0.8284 -0.72427,1.5593 -0.90685,2.49316c-0.14374,0.73529 -0.05716,1.74283 -0.05716,2.54285c0,1 0,1.79999 0,2.79999c0,0.79999 0,1.60001 0,2.59549c0,0.74734 0,1.76852 0,2.70901c0,0.86215 0,1.6955 0,2.67416c0,0.77399 0,1.6785 0,2.42584c0,0.99548 -0.01848,1.79568 0.00017,2.79532c0.01801,0.96466 0.35861,1.88318 0.64717,2.61002c0.36813,0.92728 0.33904,1.73325 0.40533,2.29916c0.13995,1.19455 0.37752,2.07907 0.52199,2.655c0.26768,1.06711 0.30383,2.00949 0.50934,2.74933c0.28658,1.03171 0.77919,1.81094 0.916,2.48666c0.19908,0.98328 0.66418,1.73871 1.30901,2.29999c0.62555,0.54453 1.46729,0.88297 2.19099,1.22086c0.74095,0.34592 1.68021,1.14011 2.11467,1.65381c0.69122,0.81729 1.40048,1.31503 1.98666,1.62402c0.99387,0.52386 1.64537,0.81894 2.56534,1.36798c0.79558,0.47482 1.34224,0.84177 1.88066,1.23785c1.04909,0.77173 1.72151,1.39041 2.142,1.7955c0.82022,0.79019 1.40552,1.41034 2.04666,2c0.44278,0.40723 1.44431,1.20905 2.01068,1.59998c0.59348,0.40964 1.23256,0.81302 2.27466,1.40002c0.72627,0.40912 1.48135,0.79501 2.226,1.19998c1.08997,0.59277 1.77196,0.99063 2.40601,1.39999c0.60582,0.39114 1.68266,1.19681 2.16266,1.59869c0.68785,0.5759 1.33714,1.17075 2.37067,1.71732c0.5453,0.28839 1.48042,0.62375 2.48001,1.05066c0.72136,0.30807 1.45784,0.66046 2.20799,1.008c0.74052,0.34308 1.80231,0.80826 2.47267,1.07269c0.65105,0.25681 1.64253,0.62299 2.674,1.07397c0.73566,0.32166 1.47621,0.68402 2.226,1.026c1.0825,0.49374 1.76074,0.78467 2.41667,1.00601c0.92299,0.31149 1.83397,0.49731 2.73599,0.59399c0.59888,0.06418 1.50815,0.09293 2.70267,0.33801c0.62375,0.12799 1.26538,0.34042 2.73067,0.71466c0.40811,0.10422 1.26801,0.29776 2.14584,0.5c0.85883,0.19785 2.02635,0.483 2.66617,0.70001c0.82065,0.27835 1.52557,0.62729 2.53999,0.99866c0.82761,0.30298 1.40981,0.49799 2.61484,0.67999c0.90527,0.13672 1.54045,0.10843 2.8665,0.28799c0.72311,0.09793 1.48073,0.26605 2.28,0.444c0.84077,0.18719 1.71947,0.39178 2.63734,0.58936c0.94077,0.20248 1.4165,0.29758 2.36331,0.5c1.38678,0.29648 2.26825,0.50052 2.70001,0.59549c0.85187,0.18735 1.70056,0.38382 3.01932,0.53784c0.91342,0.10669 1.38116,0.11929 2.3125,0.14581c0.9108,0.02594 2.1875,0.02084 2.95151,0.02084c0.70801,0 1.384,0 2.73599,0c0.71869,0 1.46933,0 2.24402,0c0.79065,0 1.98917,0 2.78482,0c0.78366,0 1.54733,-0.00461 2.983,0.00015c0.66434,0.0022 1.6134,0.01059 2.22018,0.08517c1.20856,0.14859 1.7959,0.36325 2.70132,0.56201c1.19348,0.26199 1.79471,0.31439 2.664,0.34198c1.06885,0.03394 2.01065,0.01068 2.68866,0.01068c0.96866,0 1.77267,0 2.59467,0c1.03134,0 1.95267,0 2.63666,0c1.00269,0 1.85767,0 2.80267,0c1.03467,0 1.76599,0 2.51334,0c0.74734,0 2.17828,0.00937 2.83383,-0.00449c0.88388,-0.01868 1.83844,-0.14877 2.64532,-0.49551c0.8483,-0.36453 1.69547,-0.49466 2.6355,-0.5c0.88535,-0.00504 1.68533,0 2.64252,0c0.89551,0 1.77835,0.17328 2.72198,-0.02084c0.86719,-0.17841 1.51129,-0.86841 2.32083,-0.97781c0.8938,-0.12079 1.7236,-0.46176 2.49551,-0.94867c0.70242,-0.44308 1.23383,-0.92975 2.09384,-1.05267c0.85242,-0.12186 1.61066,-0.83334 2.31067,-1.05267l0.79999,-0.44733l0.79099,-0.44733" id="svg_1" stroke-width="2" stroke="#000" fill="none"/>
  <path t="8988,9183,9200,9209,9226,9243,9258,9278,9294,9326,9326,9344,9362,9382,9406,9459,9491,9508,9525,9542,9558,9579,9592,9619,9630,9663,9679,9693,9709,9726,9742,9742,9759,9776,9792,9793,9793,9808,9808,9825,9825,9826,9843,9843,9859,9859,9875,9875,9893,9893,9893,9908,9908,9925,9942,9942,9959,9959,9975,9976,9993,9993,10009,10025,10083,10180,10188,10247,10291,10524,10556,10572,10600,10632,10736,10763,10776,10792,10819,10820,10825,10863,10880,10899,10923,10951,10959,10990,11007,11035,11035,11051,11063,11079,11091,11107,11124,11124,11141,11157,11174,11174,11191,11191,11207,11224,11224,11241,11241,11257,11257,11274,11274,11291,11291,11307,11307,11324,11324,11324,11341,11342,11357,11357,11374,11374,11374,11391,11391,11407,11407,11424,11424,11441,11540,11552,11567,11575,11591,11608,11608,11624,11624,11641,11641,11659,11674,11900" d="m234,21c1.8,0 2.79263,0.35489 3.564,-0.036c0.69812,-0.35378 1.21426,-1.0877 2.03601,-1.53867c0.77997,-0.42804 1.75006,-0.29367 2.5,-0.64667c0.77553,-0.36504 1.50006,-0.76376 2.39999,-0.77867c0.97926,-0.01622 1.4366,-0.77479 2.2045,-0.9955c0.86067,-0.24738 1.67722,0.12204 2.34818,0.64283c0.58377,0.45312 1.6499,-0.04553 2.51132,0.38867c0.69888,0.35227 1.37381,0.56129 2.15067,1.04933c0.74005,0.46492 1.14281,1.24593 1.71068,1.88933c0.52461,0.5944 1.05116,1.25646 1.45332,2.12533c0.30643,0.66202 0.79968,1.45717 1.09601,2.32133c0.30231,0.8816 0.35019,1.59581 0.63599,2.328c0.44037,1.12819 0.93192,1.70107 1.48935,2.57217c0.43423,0.6786 0.70023,1.27971 1.19998,2.2785c0.40024,0.7999 0.77859,1.61121 1.20001,2.37917c0.47617,0.86768 1.05695,1.50927 1.5,2.35416c0.34091,0.65014 0.63339,1.39861 0.87851,2.52367c0.15543,0.71339 0.08926,1.67903 0.34283,2.4645c0.23129,0.7164 0.66336,1.6717 0.74265,2.46783c0.10352,1.03948 0.02216,1.852 0.32001,2.69467c0.31216,0.88313 0.68741,1.7574 0.716,2.616c0.02997,0.8995 0.33365,1.66935 0.34818,1.95717c0.0397,0.78694 -1.46652,0.58764 -2.18152,1.1095c-0.65491,0.478 -1.3988,0.5891 -2.08264,1.11733c-0.6275,0.48471 -1.384,0.71608 -2.28403,0.716c-0.89981,-0.00008 -1.57367,-0.27007 -2.02133,-1.1c-0.34933,-0.64764 -0.716,-1.65269 -1.48315,-1.8955c-0.82034,-0.25965 -1.33946,-0.85875 -2.09683,-1.00317c-0.88277,-0.16833 -1.67267,0.20189 -2.36534,0.832c-0.59987,0.54568 -1.13417,1.21749 -1.48067,1.86667c-0.45335,0.84937 -0.3504,1.8 -0.35266,2.7c-0.00226,0.89551 -0.61784,1.46762 -0.91467,2.16933c-0.30647,0.72451 -0.08533,1.79467 -0.08533,2.73517c0,0.86217 0,1.6955 0,2.674c0,0.82017 0,1.6575 0,2.67867c0,0.74734 -0.05453,1.74722 0.036,2.54283c0.11496,1.01035 0.54106,1.75298 0.79733,2.63334c0.22562,0.77505 0.11395,1.83008 0.22383,2.57117c0.14975,1.00997 0.52373,1.57208 0.77617,2.5955c0.19412,0.78702 0.13541,1.60062 0.17117,2.6c0.02867,0.80122 0.30089,1.79255 0.57016,2.6c0.33067,0.99155 0.3727,1.82314 0.59467,2.4c0.40746,1.05891 1.08044,1.54337 1.49734,2.4c0.36534,0.75069 0.50314,1.83173 0.83333,2.47916c0.46848,0.91857 0.5,1.72083 0.5,2.62083c0,0.9 -0.39748,1.56964 -0.916,2.18533c-0.56058,0.66562 -0.81549,1.45414 -1.284,2.19867c-0.42508,0.67552 -1,1.63067 -1.5,2.2115l-0.68933,0.7045l-0.52667,0.79867l-0.36934,0.716" id="svg_2" stroke-width="2" stroke="#000" fill="none"/>
  <path t="13358,13480,13480,13496,13512,13527,13541,13557,13575,13591,13591,13607,13607,13624,13642,13642,13658,13674,13674,13691,13691,13707,13707,13724,13724,13741,13741,13757,13758,13758,13774,13774,13791,13791,13807,13807,13824,13824,13824,13841,13841,13841,13841,13857,13857,13874,13874,13874,13891,13892,13907,13907,13907,13924,13924,13924,13924,13941,13941,13941,13957,13958,13958,13974,13974,13974,13994,13994,13994,13994,14007,14008,14008,14008,14024,14024,14024,14024,14041,14041,14041,14057,14057,14057,14074,14074,14074,14091,14091,14091,14091,14107,14107,14107,14107,14107,14107,14124,14124,14124,14124,14124,14141,14141,14141,14141,14141,14158,14159,14159,14159,14159,14174,14174,14174,14174,14174,14191,14191,14191,14191,14191,14207,14207,14207,14207,14207,14207,14224,14224,14224,14224,14224,14241,14241,14241,14241,14257,14257,14257,14257,14257,14274,14274,14274,14274,14291,14291,14291,14291,14307,14307,14307,14307,14307,14324,14324,14324,14324,14342,14342,14342,14342,14357,14357,14357,14374,14374,14374,14374,14391,14391,14391,14407,14407,14407,14407,14407,14424,14424,14424,14424,14441,14442,14442,14595,14596,14852,14868,14884,14906,14910,14924,14941,14957,14957,14974,14974,14974,14990,14990,15007,15024,15024,15040,15040,15057,15057,15074,15074,15090,15090,15108,15108,15108,15124,15124,15124,15140,15140,15157,15157,15174,15190,15191,15207,15224,15224,15240,15257,15274,15290,15290,15307,15307,15324,15324,15340,15340,15357,15357,15357,15374,15390,15407,15424,15424,15440,15457,15457,15474,15474,15490,15490,15507,15550,15550,15557,15579,15595,15607,15624,15641,15820,15880,15904,15909,15954,15970,15970,15990,16007,16024,16040,16058,16059,16074,16091,16091,16107,16124,16140,16140,16157,16174,16190,16190,16207,16208,16224,16240,16257,16258,16274,16274,16290,16290,16308,16308,16324,16324,16340,16341,16357,16357,16374,16390,16407,16407,16424,16440,16457,16457,16474,16475,16490,16507,16524,16524,16540,16540,16557,16574,16590,16590,16622,16638,16658,16674,16702,16702,16718,16726,16740,16757,16774,16790,16790,16807,16807,16826,16840,16857,16874,16874,16890,16907,16907,16924,16924,16940,16940,16957,16974,16990,16990,17007,17007,17024,17024,17040,17040,17058,17058,17074,17074,17075,17090,17091,17091,17091,17091,17107,17107,17125,17125,17140,17140,17140,17157,17158,17158,17174,17174,17190,17190,17191,17207,17207,17208,17208,17224,17224,17224,17240,17240,17240,17259,17259,17259,17275,17276,17276,17291,17291,17291,17292,17308,17309,17309,17325,17326,17326,17340,17340,17340,17359,17359,17374,17374,17375,17390,17390,17390,17390,17408,17409,17409,17426,17426,17426,17441,17441,17442,17459,17459,17459,17475,17476,17491,17492,17492,17509,17509,17525,17542,17542,17559,17560,17575,17591,17592,17609,17626,17626,17641,17642,17659,17659,17676,17676,17692,17709,17726,17742,17742,17759,17759,17775,17814,17814" d="m248,101c-1,1 -1,1.8 -1,2.7c0,0.9 0,1.8 0,2.7c0,0.9 0,1.8 0,2.70016c0,0.78516 0,1.72517 0,2.41583c0,1.10934 0,1.968 0,2.83134c0,0.89999 0,1.81933 0,2.65266c0,0.97867 0,1.75267 0,2.65717c0,0.74734 0,1.74284 0,2.54283c0,1 0,1.8 0,2.8c0,0.8 0,1.6 0,2.6c0,0.8 0,1.8 0,2.6c0,1 0,1.8 0,2.8c0,0.82133 -0.00446,1.77068 0.00017,2.64267c0.00534,1.00804 0.00439,1.70967 0.08516,2.38933c0.14323,1.20523 0.49248,1.90457 0.748,2.968c0.18938,0.78818 0.166,1.60001 0.16667,2.60451c0.00056,0.85266 -0.01636,1.81737 0.01067,2.63148c0.02885,0.86928 0.13939,1.76761 0.342,2.664c0.13622,0.60263 0.41199,1.49295 0.56201,2.69867c0.07318,0.5882 0.07155,1.44424 0.08549,2.48c0.01241,0.92149 0.05664,1.61143 0.28383,2.60667c0.19205,0.84132 0.46588,1.71053 0.59467,2.61501c0.13052,0.91673 0.13519,1.57271 0.20534,2.27032c0.11806,1.1741 0.26866,2.03467 0.416,2.92934c0.14734,0.89467 0.34666,2.16536 0.41467,2.92799c0.06139,0.68839 0.07529,1.60588 0.08549,2.65067c0.00681,0.69606 0.05664,1.61143 0.28383,2.60667c0.19205,0.84132 0.41383,1.41051 0.5945,2.61467c0.08952,0.59676 0.11485,1.49997 0.12151,2.7c0.00334,0.60399 0.00746,1.56331 0.05716,2.2715c0.08633,1.23035 0.22575,2.18199 0.2955,2.69099c0.14508,1.05864 0.2316,1.59628 0.36334,2.67084c0.12656,1.03226 0.20769,1.99689 0.248,2.90533c0.01955,0.44034 0.03374,1.30949 0.036,2.62801c0.00157,0.91733 0,1.85866 0,2.33333c0,0.94733 -0.00104,2.33333 0.00017,2.7785c0.00233,0.86435 0.00182,1.70172 0.05699,2.517c0.08167,1.20671 0.22298,2.00519 0.36818,2.8045c0.14546,0.8007 0.32071,1.5963 0.45332,2.80032c0.08885,0.8067 0.11774,1.64157 0.17401,2.51401c0.02945,0.45645 0.16574,1.92868 0.23132,2.45366c0.13535,1.08344 0.21967,1.63152 0.36334,2.72667c0.07047,0.53711 0.24396,2.06154 0.2955,2.991c0.04836,0.87209 0.0507,1.29297 0.05583,2.11166c0.00752,1.20265 0.00133,2.00267 0.00133,2.80267c0,0.8 0,2 0,2.8c0,0.8 0,1.59999 0,2.39999c0,1.19983 0,1.9955 0,3.164c0,0.75067 0,1.81483 0,2.48784c0,1.00949 0,1.7175 0,2.89082c0,0.86267 0,1.75734 0,2.20668c0,0.88266 0,2.10782 0,2.84082c0,1.02451 0,1.6925 0,2.73117c0,1.104 0.00006,1.85333 0,2.59467c-0.00009,1.0625 0.01027,2.04921 -0.036,2.67334c-0.09003,1.21436 -0.31824,2.11028 -0.464,2.71066c-0.21837,0.89943 -0.40324,1.79837 -0.464,2.72133c-0.04279,0.64975 -0.036,2.112 -0.036,2.52133c0,0.86267 0,1.75734 0,2.65199c0,1.272 0,2.03467 0,2.73334c0,0.96301 0,1.87201 0,2.763c0,0.83701 0,1.96585 0,2.74283c0,0.88702 0,1.76617 0,2.66617c0,0.90002 -0.08868,1.80441 0,2.70001c0.08374,0.8457 0.87422,1.44385 1.02533,2.22134c0.19041,0.97977 0.44858,1.56262 0.69067,2.37866c0.29068,0.9798 0.27087,1.76901 0.70932,2.77466c0.35608,0.81668 0.44659,1.66159 0.74133,2.45868c0.31488,0.85159 0.93069,1.48956 1.33334,2.16666c0.49673,0.8353 1.04111,1.4715 1.60001,2.32132c0.43286,0.6582 0.86765,1.53879 1.44165,2.19952c0.40701,0.46854 1.22635,1.24716 1.70901,1.72983c0.74399,0.74399 1.46686,1.36951 2.06665,2.07733c0.6171,0.72821 0.58386,1.64902 1.32935,2.23599c0.71365,0.56189 1.57462,0.32965 2.46799,0.72c0.95477,0.41718 1.58441,0.77039 2.38535,1.216c0.79904,0.44455 1.70001,0.5 2.60016,0.5c0.78519,0 1.74454,0.05188 2.50116,-0.08533c1.01727,-0.18448 1.78525,-0.61484 2.59869,-0.79333c0.79034,-0.17343 1.80875,-0.2627 2.58932,-0.54666c0.73434,-0.26715 1.86899,-0.25049 2.68982,-0.59552c0.74075,-0.31137 1.40121,-0.87189 2.03818,-1.06317c1.02994,-0.3093 1.6221,-0.9668 2.48267,-1.39514c0.81061,-0.4035 1.6402,-0.50113 2.48401,-0.80484c0.70505,-0.25375 1.68301,-0.49173 2.51599,-0.88266c0.76871,-0.36078 1.43356,-0.98834 2.05267,-1.48068c0.64728,-0.51471 1.67563,-0.1619 2.54733,-0.38867c0.85638,-0.22278 1.01727,-1.42834 1.68533,-1.87866c0.76053,-0.51266 1.42703,0.45798 2,0.91602c0.65912,0.52692 1.53018,0.67712 2.31467,1.02399c0.81802,0.36166 1.78101,0.67276 2.34732,1.33185c0.5918,0.68875 0.8537,1.44312 1.45267,2.04282c0.69949,0.70035 1.24283,1.30002 1.60001,2.10001c0.35718,0.79999 1.08746,1.42844 1.564,2.10001c0.51489,0.72568 1.05145,1.32095 1.63602,1.96933c0.49182,0.5455 1.07541,1.49396 1.44281,2.12616c0.49347,0.84909 0.89905,1.66306 1.19052,2.47116c0.28833,0.79944 0.42862,1.79144 0.74133,2.45868c0.39246,0.83734 0.40125,1.77948 0.42667,2.77335c0.01959,0.76587 0.34897,1.68381 0.646,2.35397c0.38556,0.86993 0.3504,1.65186 0.35266,2.64603c0.00174,0.76532 0,1.84415 0,2.70132c0,0.89999 0.0173,1.70013 0,2.60001c-0.01801,0.93649 -0.24493,1.80453 -0.61066,2.47464c-0.53119,0.97324 -1.18582,1.47614 -1.37866,2.42535c-0.17929,0.88251 -0.39163,1.68707 -0.81201,2.28534c-0.52472,0.7468 -0.88931,1.6384 -1.17334,2.47867c-0.28543,0.84445 -0.91458,1.62643 -1.02399,2.43597c-0.12079,0.8938 -0.68689,1.62256 -0.94418,2.5c-0.25378,0.86548 -0.29214,1.65771 -0.7045,2.40002c-0.45795,0.8244 -1.1452,1.30042 -1.35132,2.10132c-0.22446,0.87216 -0.56058,1.5542 -0.88,2.51999c-0.21649,0.65457 -0.40683,1.62274 -0.76868,2.37418c-0.41956,0.87125 -0.29205,1.84338 -0.70532,2.60449c-0.40521,0.74625 -0.79535,1.46558 -1.22202,2.336c-0.40268,0.82147 -0.41998,1.57465 -0.42532,2.56384c-0.00421,0.77933 0,1.77866 0,2.59885c0,0.90134 -0.0267,1.83777 0.00134,2.68533c0.02859,0.86465 0.36661,1.75595 0.79999,2.39999c0.51154,0.76016 0.86414,1.48734 1.49866,2.36334c0.47488,0.65561 0.97784,1.42664 1.45718,2.15717c0.53525,0.8157 1.09116,1.40683 1.45349,1.86749c0.81775,1.03961 1.19745,1.69067 1.57867,2.37866c0.38425,0.69345 0.7196,1.38425 1.32532,2.57733c0.36108,0.71124 0.88211,1.60776 1.28534,2.14667c0.59525,0.79556 0.97745,1.48297 1.48535,2.22665c0.56293,0.82425 1.13528,1.38153 1.63065,1.99869c0.62543,0.77924 1.07132,1.60104 1.48401,2.39999c0.41928,0.81174 0.78781,1.47733 1.33334,2.16666c0.64172,0.81091 1.17422,1.3266 1.66132,1.88068c0.68274,0.77667 1.18613,1.50177 1.62,2.142c0.69186,1.02087 1.22525,1.5983 1.73267,2.21066c0.65018,0.78464 1.02985,1.39297 1.45135,2.20001c0.41574,0.79596 0.83731,1.672 1.08667,2.17065c0.59869,1.19733 0.94,1.88 1.28931,2.57867c0.34134,0.68268 0.81213,1.60376 1.18936,2.38934c0.33899,0.70596 0.73886,1.68158 1.03598,2.48666c0.30295,0.82092 0.70944,1.84918 0.98935,2.53867c0.33694,0.83002 0.55826,1.63361 0.59998,2.436c0.05194,0.99905 0.00388,1.84464 0.09601,2.57065c0.15298,1.20535 0.3446,1.88974 0.48935,2.61469c0.14597,0.73108 0.35364,2.12845 0.38931,2.77866c0.05106,0.93063 0.03601,1.836 0.03601,2.73151c0,0.8685 0,1.93784 0,2.65182c0,0.90533 0,1.87399 0,2.67801c0,0.82199 0,1.85315 0,2.75381c0,1.02084 0,1.82083 0,2.62085c0,0.99548 0,1.74283 0,2.64734c0,0.91931 0,1.75266 0,2.73114c0,0.82019 -0.02051,1.79163 -0.35266,2.67419c-0.26578,0.70621 -0.45981,1.64569 -0.86884,2.44748c-0.37054,0.72638 -0.99167,1.37805 -1.37851,2.1105c-0.51758,0.97998 -0.87064,1.54773 -1.23334,2.62268c-0.24936,0.73904 -0.57016,1.60648 -1.36533,2.08264c-0.69324,0.4151 -1.23364,1.19968 -1.82217,1.58401c-0.7988,0.52164 -1.45831,0.97916 -2.27914,1.44733l-0.89868,0.33801l-0.51599,0.51599" id="svg_3" stroke-width="2" stroke="#000" fill="none"/>
  <path t="19632,19699,19772,19804,19820,19827,19841,19858,19875,19875,19914,19914,19947,19960,19977,19991,20008,20008,20025,20025,20054,20112,20119,20144" d="m228,29c0.02533,-0.42533 -0.52065,-0.98958 -1.39999,-1c-0.89995,-0.01066 -1.97957,-0.24678 -2.54733,0.35717c-0.62114,0.66072 -1.24136,1.18192 -1.76733,1.72683c-0.66631,0.6903 -0.28534,1.716 -0.28534,2.616c0,0.9 -0.11145,1.86957 0.35716,2.6c0.5132,0.79992 1.14284,1.2 1.84283,1.9c0.60001,0.6 1.2,1.18933 2,1.71466l0.89984,0.0855l0.81616,0.28516" id="svg_4" stroke-width="2" stroke="#000" fill="none"/>
  <path t="20638,20664,20664,20673,20693,20710,20710,20727,20727,20741,20741,20741,20763,20787,20832,20849,20860,20877,20891,20891,20907,20907,20927,20988,21012" d="m223,46c-6.68666,1.2 -7.60329,1.3666 -7.94284,2.3c-0.3083,0.84748 -0.05716,1.80017 -0.05716,2.58533c0,0.96133 0,1.57633 0,2.79733c0,0.7965 0,1.548 0,2.64533c0,0.872 -0.08868,1.77638 0,2.672c0.08374,0.8457 0.77292,1.39193 1.33333,2c0.56792,0.61622 1.64517,0.87867 2.36217,1.05267l0.8045,0.44733l0.7955,0.44733l0.6685,0.48867" id="svg_5" stroke-width="2" stroke="#000" fill="none"/>
  <path t="21402,21432,21432,21445,21459,21475,21492,21508,21509,21525,21525,21541,21558,21558,21575,21591,21591,21608,21608,21625,21641,21641,21658,21658,21676,21676,21691" d="m219,71c-6.68666,0.00134 -7.7326,-0.08499 -7.9955,0.7045c-0.28293,0.84965 0.02129,1.81635 -0.35716,2.6c-0.42928,0.88888 -0.47031,1.56199 -0.81401,2.52884c-0.28773,0.80944 -0.81532,1.5768 -0.83333,2.488c-0.01686,0.85316 -0.19304,1.85298 0.16667,2.67867c0.29811,0.6843 1.12595,1.3075 1.63333,1.8c0.71065,0.68981 1.52954,1.03706 2.37466,1.22533c0.95287,0.21227 1.578,0.622 2.478,0.9175l0.86334,0.05583l0.98399,0.00134" id="svg_6" stroke-width="2" stroke="#000" fill="none"/>
  <path t="22349,22377,22377,22377,22377,22393,22393,22411,22427,22443,22461,22461,22476,22491,22508,22525,22541,22541,22558,22558,22575,22591,22607,22640" d="m250,66c1.70399,0.00134 2.55211,0.00655 3,0.02084c0.88429,0.02821 2.52136,-0.05961 2.936,0.58983c0.48074,0.75299 0.60721,1.59263 0.9425,2.48933c0.31808,0.85064 0.12149,1.7 0.12149,2.6c0,0.9 0.09802,1.80645 -0.01068,2.71067c-0.11154,0.92791 -0.33704,1.73432 -1.08932,2.3465c-0.59877,0.48725 -1.5,0.8535 -2.2,1.53834l-0.7,0.53783l-0.83333,0.16666" id="svg_7" stroke-width="2" stroke="#000" fill="none"/>
  <path t="23006,23020,23020,23020,23036,23036,23052,23068,23080,23104,23104,23120,23120,23128,23142,23142,23159,23159" d="m257,86c5.14267,1.484 5.70728,1.79467 6.32935,2.34734c0.8201,0.72861 1.51511,1.41762 1.65997,2.25266c0.15384,0.88682 0.18713,1.89774 -0.35098,2.7c-0.40384,0.6021 -1.26721,1.04787 -1.98566,1.34283c-0.98935,0.40618 -1.854,0.6425 -2.53802,1.1585l-0.76733,0.49417l-0.69464,0.34733" id="svg_8" stroke-width="2" stroke="#000" fill="none"/>
 </g>
 <g display="none">
  <title>muse_image</title>
  <image xlink:href="http://farm1.static.flickr.com/193/1515258895_c15addcc7f.jpg" id="muse" height="480" width="360" y="0" x="140"/>
 </g>
 <g display="none">
  <title>bbox</title>
  <rect stroke="#f00" fill="none" stroke-width="3" height="474.24" width="154.56" y="0" x="240.8" id="bbox"/>
 </g>
</svg>
