<svg width="640" height="480" xmlns="http://www.w3.org/2000/svg" xmlns:svg="http://www.w3.org/2000/svg" xmlns:xlink="http://www.w3.org/1999/xlink">
 <!-- Sketchy ANNOTATION
  ImageNet ID: n03272010_1708
  URL: http://static.flickr.com/180/417055384_d172e82e45.jpg
  Image Width: 375
  Image Height: 500
  BBox X: 80
  BBox Y: 0
  BBox Width: 172
  BBox Height: 473
  Exposure: 2000ms
  Synset Label: guitar
  Synset ID: n03467517
  Worker Tag: green electric guitar
  Sanity Check: 
   Saved
  Comment: 
   {}
  Worker ID: AXD2DZ7U6CK35
  Assignment ID: 3ZQIG0FLQEGEDCWPO0K9HMBG4TZWVO
  HIT ID: 30UZJB2POHCY10HSINMSJ7BZPRG35B
  Work Time: 51s
  Worker Score: 0.6679
 END ANNOTATION -->
 <g display="inline">
  <title>Layer 1</title>
  <path t="0,8,9,9,9,22,22,39,56,56,56,71,72,88,89,105,106,121,121,138,138,138,156,156,171,172,188,188,205,222,239,239,254,272,272,289,304,322,338,354,372,388,388,405,422,438,439,454,481,481,496,508,524,549,565,572,592,604,621,639,655,671,672,688,705,705,722,738,755,755,771,788,789,805,822,839,854,855,855,872,872,888,889,904,904,921,921,939,939,954,954,954,971,971,989,989,989,1005,1005,1022,1022,1022,1038,1038,1039,1039,1054,1054,1071,1072,1088,1088,1089,1089,1105,1105,1105,1105,1121,1122,1122,1138,1138,1139,1154,1155,1172,1172,1172,1188,1189,1189,1205,1205,1205,1205,1222,1222,1222,1222,1239,1239,1239,1254,1255,1255,1271,1272,1272,1289,1289,1289,1304,1305,1305,1305,1322,1322,1322,1322,1338,1338,1354,1355,1355,1355,1371,1372,1372,1388,1388,1389,1405,1405,1405,1405,1422,1422,1422,1439,1439,1439,1455,1455,1455,1472,1472,1472,1488,1489,1489,1489,1504,1505,1505,1522,1522,1522,1539,1539,1539,1539,1554,1555,1555,1571,1572,1572,1589,1589,1589,1605,1605,1605,1622,1622,1622,1622,1622,1639,1639,1639,1655,1655,1655,1672,1672,1672,1689,1689,1705,1705,1705,1705,1722,1722,1723,1723,1739,1739,1739,1755,1755,1755,1772,1772,1772,1789,1789,1789,1789,1789,1805,1805,1805,1805,1822,1822,1822,1839,1839,1839,1839,1855,1855,1855,1872,1872,1872,1889,1889,1889,1905,1905,1905,1905,1922,1922,1922,1938,1939,1939,1954,1955,1955,1972,1972,2117,2118,2145,2189,2213,2229,2243,2256,2273,2291,2291,2307,2307,2323,2340,2356,2393,2409,2425,2440,2456,2456,2473,2473,2473,2490,2490,2508,2508,2508,2508,2523,2523,2523,2540,2540,2540,2540,2557,2557,2557,2573,2573,2573,2574,2574,2590,2590,2591,2591,2591,2606,2607,2607,2607,2607,2623,2623,2623,2624,2640,2640,2640,2656,2673,2673,2674,2690,2690,2706,2706,2723,2723,2739,2739,2755,2772,2789,2805,2805,2865,2880,2881,2889,2905,2922,2922,3077,3089,3106,3123,3123,3140,3140,3156,3174,3175,3189,3189,3189,3205,3222,3222,3239,3239,3239,3255,3255,3276,3385,3405,3424,3442,3442,3456,3456,3456,3456,3473,3473,3489,3490,3490,3490,3490,3506,3506,3506,3506,3523,3523,3523,3539,3539,3540,3556,3556,3556,3573,3573,3573,3589,3590,3590,3590,3606,3606,3606,3622,3623,3639,3640,3640,3655,3656,3656,3656,3674,3674,3675,3689,3690,3690,3706,3706,3706,3722,3723,3723,3739,3740,3756,3756,3773,3773,3790,3790,3790,3805,3806,3824,3825,3971,4081,4092,4108,4122,4139,4156,4172,4173,4189,4209,4433,4434,4449,4465,4476,4492,4508,4524,4524,4539,4555,4572,4572,4589,4589,4605,4605,4606,4622,4623,4623,4623,4639,4639,4655,4656,4656,4672,4673,4689,4689,4690,4705,4705,4706,4706,4722,4723,4723,4723,4739,4739,4740,4755,4756,4756,4756,4772,4772,4772,4789,4789,4789,4790,4790,4805,4806,4806,4806,4822,4822,4823,4823,4823,4839,4839,4839,4840,4855,4855,4856,4856,4856,4856,4872,4872,4872,4874,4874,4889,4889,4890,4890,4890,4890,4905,4906,4906,4906,4907,4907,4923,4924,4924,4924,4942,4942,4942,4942,4943,4955,4955,4955,4955,4972,4972,4972,4973,4989,4989,4989,4989,5005,5005,5005,5005,5006,5022,5022,5022,5022,5039,5039,5039,5055,5055,5055,5056,5072,5072,5072,5072,5073,5089,5089,5089,5089,5089,5090,5105,5105,5105,5106,5122,5122,5122,5122,5139,5139,5140,5155,5155,5155,5156,5156,5172,5172,5172,5172,5173,5173,5189,5189,5189,5189,5189,5205,5205,5205,5206,5206,5222,5222,5223,5239,5239,5239,5255,5255,5256,5256,5272,5273,5273,5289,5289,5290,5290,5305,5305,5306,5306,5322,5322,5323,5323,5339,5339,5339,5355,5356,5356,5372,5372,5372,5373,5389,5389,5389,5418,5426,5426,5440,5440,5455,5456,5478,5489,5505,5572,5849,5850,5881,5917,5933,5949,5965,5984,6000,6016,6016,6029,6052,6068,6076,6092,6106,6122,6144,6172,6196,6206,6206,6237,6255,6255,6272,6289,6305,6322,6322,6339,6355,6357,6357,6372,6372,6389,6389,6405,6405,6406,6422,6439,6455,6456,6472,6472,6489,6489,6505,6505,6505,6522,6539,6539,6556,6556,6572,6572,6589,6589,6605,6605,6606,6622,6622,6639,6639,6655,6655,6656,6672,6689,6689,6705,6705,6723,6723,6739,6755,6772,6789,6789,6805,6806,6806,6822,6839,6840,6855,6855,6872,6872,6916,6916,6936,6936,6952,6968,6996,7036,7048,7056,7072,7089,7105,7122,7122,7139,7139,7140,7155,7156,7172,7189,7189,7205,7205,7222,7222,7239,7239,7255,7272,7272,7289,7290,7305,7322,7322,7339,7340,7355,7355,7372,7372,7389,7390,7405,7405,7422,7439,7439,7455,7472,7473,7489,7490,7505,7522,7522,7539,7539,7555,7555,7576,7596,7612,7644,7656,7672,7689,7689,7705,7722,7739,7739,7755,7772,7789,7789,7805,7806,7822,7839,7839,7855,7855,7872,7872,7889,7889,7905,7906,7922,7922,7923,7939,7939,7955,7972,7989,7989,8005,8005,8022,8039,8055,8072,8089,8089,8105,8125,8125,8144,8144,8168,8176,8176,8196,8212,8228,8244,8256,8280,8296,8312,8312,8324,8340,8355,8372,8389,8389,8405,8406,8422,8439,8455,8455,8472,8489,8489,8505,8505,8506,8522,8540,8556,8556,8572,8588,8605,8623,8623,8638,8638,8655,8672,8672,8688,8688,8708,8708,8725,8725,8740,8741,8755,8756,8756,8775,8775,8775,8789,8789,8790,8808,8808,8809,8825,8825,8825,8839,8839,8855,8856,8856,8872,8872,8888,8888,8889,8889,8889,8905,8905,8906,8922,8922,8923,8938,8938,8955,8956,8956,8972,8972,8973,8988,8988,8989,9005,9006,9022,9022,9038,9038,9039,9055,9055,9056,9056,9072,9072,9073,9088,9088,9089,9107,9107,9123,9124,9124,9140,9140,9140,9157,9157,9174,9174,9174,9189,9190,9190,9207,9207,9208,9222,9222,9223,9240,9240,9257,9257,9257,9274,9276,9289,9290,9290,9291,9307,9307,9307,9323,9324,9340,9340,9340,9357,9357,9357,9373,9374,9389,9390,9390,9407,9407,9408,9423,9424,9424,9440,9440,9440,9457,9457,9473,9474,9489,9490,9507,9507,9524,9524,9524,9540,9540,9541,9557,9557,9558,9576,9576,9589,9590,9590,9591,9607,9608,9608,9623,9624,9624,9639,9640,9640,9657,9657,9657,9658,9674,9674,9674,9675,9689,9690,9690,9707,9707,9707,9723,9724,9724,9725,9740,9740,9740,9758,9758,9759,9773,9774,9775,9790,9790,9790,9791,9807,9807,9808,9824,9824,9840,9840,9857,9857,9857,9874,9874,9875,9890,9890,9890,9907,9907,9908,9924,9924,9940,9940,9957,9957,9958,9977,9977,9978,9991,9991,10009,10009,10024,10024,10041,10041,10057,10074,10089,10090,10090,10107,10107,10122,10140,10157,10174,10174,10190,10207,10224,10244,10288,10321,10344,10388,10388,10398,10408,10424,10440,10440,10457,10474,10500,10508,10544,10560,10604,10620,10648,10657,10672,10690,10712,10732,10740,10757,10774,10790,10790,10807,10824,10840,10840,10857,10874,10874,10888,10889,10907,10907,10936,10936,10957,10972,10990,10990,10991,10991,11007,11008,11025,11025,11040,11040,11057,11058,11074,11075,11093,11094,11094,11110,11111,11111,11127,11128,11128,11143,11143,11144,11145,11160,11161,11177,11178,11178,11193,11193,11208,11208,11209,11209,11222,11222,11223,11243,11244,11260,11261,11261,11277,11277,11278,11293,11293,11294,11310,11311,11311,11327,11328,11343,11343,11344,11360,11361,11362,11377,11378,11388,11389,11389,11389,11410,11410,11411,11411,11427,11428,11428,11443,11443,11444,11461,11462,11462,11463,11463,11477,11477,11478,11478,11491,11492,11492,11510,11511,11512,11512,11527,11528,11528,11543,11543,11544,11544,11560,11560,11561,11561,11577,11578,11579,11593,11593,11594,11594,11595,11610,11611,11611,11612,11627,11627,11628,11629,11643,11643,11644,11644,11660,11661,11661,11678,11678,11679,11679,11693,11693,11694,11694,11710,11710,11711,11727,11728,11728,11729,11743,11743,11760,11761,11762,11774,11774,11793,11794,11794,11810,11810,11811,11827,11843,11860,11861,11874,11888,11889,11910,11911,11922,11956,11956,11979,12016,12032,12044,12060,12077,12104,12127,12127,12143,12160,12177,12193,12193,12210,12228,12243,12260,12277,12293,12293,12294,12311,12327,12343,12360,12361,12377,12377,12393,12405,12410,12411,12427,12427,12444,12460,12461,12477,12477,12493,12493,12494,12510,12511,12527,12527,12543,12543,12560,12561,12577,12578,12578,12588,12589,12589,12610,12611,12629,12629,12630,12643,12643,12661,12662,12662,12700,12700,12701,12701,12709,12710,12727,12728,12728,12729,12743,12743,12760,12761,12761,12777,12778,12793,12793,12794,12810,12811,12827,12828,12843,12844,12860,12861,12872,12893,12894,12906,12907,12927,12928,12943,12943,12961,12961,12977,12996,13028,13038,13060,13077,13093,13110,13111,13123,13143,13161,13177,13178,13193,13220,13243,13244,13260,13277,13294,13310,13325,13343,13360,13424,13464" d="m197,235c0,10.32767 0,10.91467 0,11.89067c0,0.752 0,1.96632 0,2.688c0,0.963 0,1.96399 0,2.672c0,0.74399 -0.00476,1.78001 0,2.63199c0.00534,0.95338 0.03999,1.7319 0.35266,2.71735c0.25783,0.81262 0.55553,1.80115 0.64734,2.39999c0.15363,1.00208 0.4743,1.78384 0.716,2.60001c0.29144,0.98416 0.26967,1.81793 0.56799,2.79868c0.23825,0.78323 0.47279,1.62036 0.8,2.39999c0.36362,0.86639 0.75984,1.66537 1.20134,2.40134c0.40709,0.67859 1.18922,1.32642 1.91466,1.99866c0.58046,0.5379 1.28981,0.98669 1.884,1.51733c0.60133,0.53702 1.50323,0.88528 2.31599,1.25867c0.88704,0.4075 1.63449,0.76755 2.40001,1.10934c0.74353,0.33197 1.61012,0.89798 2.52133,0.91599c0.67853,0.0134 1.6586,-0.05426 2.67867,0c0.80341,0.04272 1.42236,0.68619 2.3,0.94284c0.86555,0.25311 1.80684,0.16794 2.7,0.05716c0.89923,-0.11151 1.31367,-0.75955 2.19867,-1.00134c0.79776,-0.21793 1.27693,-0.89334 2.10133,-1.35132c0.74229,-0.41235 1.55025,-0.65961 2.2,-1.16818c0.76804,-0.60114 1.36095,-1.22482 1.88933,-1.87915c0.60176,-0.74518 0.80151,-1.72604 1.31517,-2.30002c0.65802,-0.73532 1.38838,-1.22461 1.8595,-1.89999c0.5117,-0.73358 0.36031,-1.70328 0.43733,-2.60132c0.08369,-0.9758 0.4781,-1.61627 0.71468,-2.39999c0.29594,-0.98044 0.28174,-1.79868 0.284,-2.79868c0.0018,-0.80002 0,-1.80002 0,-2.60001c0,-1 0,-1.78934 0,-2.83333c0,-0.6875 0,-1.7095 0,-2.42801c0,-0.7905 0,-1.81717 0,-2.71783c0,-1.02083 -0.00179,-1.82083 0,-2.62083c0.00226,-1.0045 0.02026,-1.86418 0.22133,-2.82149c0.17259,-0.82173 0.40857,-1.37849 0.612,-2.57851c0.15079,-0.88948 0.15514,-1.479 0.16534,-2.31467c0.015,-1.22807 0.00133,-2.08083 0.00133,-3.08667c0,-0.61949 0,-1.76534 0,-2.56033c0,-0.88499 0,-1.52499 0,-2.55949c0,-0.72701 0,-1.8175 0,-2.50951c0,-1.2 0.00125,-1.9485 0,-2.65199c-0.00226,-1.27 0.03433,-1.82359 -0.08533,-2.63333c-0.18356,-1.24214 -0.5762,-1.8512 -0.79317,-2.88417c-0.16995,-0.80916 -0.12083,-1.48517 -0.12151,-2.4865c-0.00056,-0.85501 0,-1.8 0,-2.83467c0,-0.73134 0.00005,-1.47867 0,-2.226c-0.00009,-1.43117 0.01797,-2.09653 -0.036,-3.04201c-0.03484,-0.61034 -0.24564,-1.81123 -0.464,-2.71066c-0.14577,-0.60039 -0.39464,-1.79831 -0.44284,-2.39549c-0.06998,-0.86694 -0.05716,-1.93784 -0.05716,-2.87918c0,-0.67799 0,-1.64699 0,-2.472c0,-0.91499 0,-1.92 0,-2.63733c0,-1.116 0,-1.86333 0,-2.94933c0,-0.68001 0.00056,-1.625 0,-2.48001c-0.00067,-1.00266 0.04118,-1.69611 -0.16667,-2.85333c-0.14357,-0.79929 -0.36699,-1.34657 -0.54933,-2.23466c-0.24409,-1.1889 -0.26224,-1.78758 -0.2795,-2.64149c-0.02576,-1.27425 -0.0045,-1.978 -0.0045,-2.7265c0,-1.2 0,-1.892 0,-2.616c0,-0.73201 0,-2.12801 0,-2.76801c0,-0.88499 0.03279,-1.92667 -0.02083,-2.84666c-0.03998,-0.68588 -0.26837,-1.68401 -0.47917,-2.52083c-0.22147,-0.87915 -0.40273,-1.77739 -0.464,-2.68983c-0.04195,-0.62444 -0.036,-1.95601 -0.036,-2.672c0,-0.73201 0,-1.45601 0,-2.78401c0,-0.8235 0,-1.54799 0,-2.5c0,-0.7905 0,-1.644 0,-2.83333c0,-0.60001 0.00009,-1.5 0,-2.39999c-0.00009,-0.89984 0.03311,-1.79285 -0.05716,-2.64284c-0.11075,-1.04291 -0.42023,-1.71681 -0.65884,-2.64117c-0.25516,-0.98845 -0.27023,-1.83667 -0.2795,-2.4205c-0.01897,-1.19553 -0.0045,-2.10616 -0.0045,-2.73149c0,-1.33067 0,-2.048 0,-2.78934c0,-0.74933 0,-1.49066 0,-2.888c0,-0.64 0,-1.52499 0,-2.56534c0,-0.92133 0,-1.60533 0,-2.60533c0,-0.81599 0,-1.63199 0,-2.63333c0,-0.944 0,-2.01599 0,-2.65199c0,-1.05151 0,-1.7825 0,-2.86401c0,-0.68133 0,-1.64583 0,-2.26216c0,-1.20451 0,-2.1045 0,-2.70451c0,-1.2 0,-2.0955 0,-2.964c0,-1.06934 0,-1.79234 0,-2.53333c0,-1.20267 0,-1.956 0,-2.78934c0,-0.87333 0,-1.3125 0,-2.57999c0,-0.76267 0,-1.79167 0,-2.42434c0,-1.209 0,-2.10899 0,-2.709c0,-1.2 0,-2.1 0,-2.7c0,-0.9 0,-2.1 0,-2.7c0,-0.9 0,-2.09984 0,-2.6955c0,-0.8685 -0.02516,-1.93845 0.01067,-2.88983c0.02733,-0.72548 0.20735,-1.85815 0.342,-2.5245c0.14381,-0.71173 0.34004,-1.43539 0.52583,-2.86851c0.08525,-0.65762 0.11617,-1.57496 0.12151,-2.655c0.00352,-0.71399 0,-1.61933 0,-2.58783c0,-0.7935 0,-1.569 0,-2.6095c0,-0.852 0,-1.79466 0,-2.48533c0,-1.07333 0.00226,-1.984 0,-2.884c-0.00226,-0.89551 -0.53915,-1.47574 -1,-2.12083c-0.49825,-0.69744 -1,-1.47916 -1.60001,-2.07916c-0.59999,-0.6 -1.28806,-1.12421 -1.87917,-1.9c-0.55942,-0.73419 -1.19136,-1.30685 -1.5,-2.02084c-0.34895,-0.80722 -0.02083,-1.77917 -0.02083,-2.6805c0,-0.96534 -0.00775,-1.63469 0,-2.79867c0.00534,-0.80005 0.05338,-1.60859 0.284,-2.40267c0.25565,-0.88026 0.56325,-1.929 0.632,-2.56533c0.07361,-0.68122 0.08313,-1.73446 0.25067,-2.69867c0.1447,-0.83277 0.45854,-1.54218 0.83333,-2.5c0.30751,-0.7859 0.58879,-1.63822 0.71466,-2.23466c0.25127,-1.19055 0.27243,-2.1207 0.33801,-2.75583c0.14124,-1.36765 0.29854,-2.10699 0.489,-2.8845c0.09955,-0.40637 0.32343,-1.25222 0.77983,-2.5795c0.32059,-0.93232 0.50514,-1.39735 0.88916,-2.3175c0.18924,-0.45344 0.77718,-1.73449 1.18933,-2.492c0.38864,-0.7143 0.80528,-1.38086 1.20001,-2.052c0.608,-1.03374 0.99936,-1.76349 1.37917,-2.4965c0.3674,-0.70907 0.86346,-1.68294 1.25916,-2.502c0.4097,-0.84805 0.72574,-1.76509 0.76167,-2.6855c0.02611,-0.66891 0.01427,-1.45679 0.35716,-2.43333c0.28894,-0.82289 0.77127,-1.58655 1.12201,-2.37917c0.43558,-0.98431 0.53799,-1.78613 0.87349,-2.6735c0.26686,-0.70582 0.41287,-1.61786 0.64867,-2.546c0.20464,-0.80549 0.85571,-1.38329 1.05135,-2.15317c0.23154,-0.91119 0.6842,-1.68505 1.03133,-2.44817c0.38858,-0.85425 0.75986,-1.66406 1.20134,-2.4c0.40709,-0.67862 1.12958,-1.47522 2.01466,-1.74283c0.86313,-0.26097 1.64658,0.20639 2.45717,0.59017c0.85229,0.40352 1.59706,0.24356 2.61749,0.36333c0.96338,0.11308 1.62215,0.57069 2.62534,0.82267c0.77597,0.19491 1.51466,0.166 2.5,0.16667c0.98666,0.00067 1.74667,0 2.66666,0c0.78152,0 1.57202,0 2.69034,0c0.83401,0 1.86862,-0.44119 2.707,0.036c0.6915,0.3936 0.436,1.48483 0.436,2.452c0,0.79467 0,1.84533 0,2.47867c0,1.0125 0,1.67083 0,2.7695c0,0.97583 0,1.9305 0,2.6025c0,0.784 0,1.632 0,2.496c0,1.22233 0,1.951 0,2.944c0,0.61867 0,1.82133 0,2.72133c0,0.6 0,1.79983 0,2.68933c0,0.57467 0,1.644 0,2.58533c0,0.678 0,1.912 0,2.472c0,0.915 0,1.92 0,3.0015c0,0.731 0,1.442 0,2.70884c0,0.771 0,1.434 0,2.44433c0,0.83467 0,1.76534 0,2.55584c0,0.8535 -0.01001,2.04294 0.00449,2.94283c0.00967,0.60014 0.04703,1.50577 0.21686,2.39983c0.17032,0.89656 0.47668,1.73298 0.65717,2.77883c0.11926,0.69101 0.1098,1.60541 0.12283,2.60667c0.01086,0.83566 0.05032,1.72174 0.22,2.6145c0.17041,0.89654 0.4668,1.73472 0.65732,2.7785c0.12241,0.67071 0.29861,1.74979 0.62134,2.42167c0.39166,0.81539 0.42413,1.53682 0.66666,2.5c0.20612,0.81857 0.62726,1.60374 1.03336,2.39867c0.39285,0.76902 1.08191,1.66093 1.44281,2.29684c0.46155,0.81322 -0.07617,1.39724 -0.66815,1.87917c-0.61963,0.50442 -1.59433,0.258 -2.47467,0.44617c-0.84863,0.18139 -1.42462,1.07206 -2.10001,1.54317c-0.73358,0.5117 -1.79312,0.23391 -2.59866,0.72133c-0.62433,0.37777 -0.85571,1.41371 -1.30133,2.21467c-0.44455,0.79905 -0.5,1.7 -0.5,2.6c0,0.9 0,1.7 0,2.6c0,0.82084 0,1.78534 0,2.51067c0,0.98933 0,1.78933 0,2.78933c0,0.82133 0,1.51434 0,2.64267c0,0.66267 0,1.70667 0,2.38933c0,1.19733 0,1.92634 0,2.968c0,0.8 0,1.6 0,2.6c0,0.8 0,1.804 0,2.708c0,0.548 0,1.94534 0,2.3545c0,0.85834 0,1.73667 0,3.00417c0,0.76267 0,1.79167 0,2.42434c0,1.209 0,1.809 0,2.709c0,1.2 0,1.8 0,2.7c0,0.9 0,1.80033 0,2.72134c0,0.65067 0,2.112 0,2.94666c0,0.43733 0,1.332 0,2.22667c0,1.272 0,2.036 0,2.744c0,1.00951 0,2.02801 0,2.74667c0,0.75067 0,1.52533 0,2.31601c0,1.19899 0,2.00766 0,2.84033c0,0.87267 0,2.29166 0,2.80099c0,1.06267 0,1.608 0,2.70667c0,0.54533 0,2.11734 0,2.60783c0,0.933 0,1.82201 0,2.69099c0,1.31851 0,1.77351 0,2.7135c0,0.98001 0,1.485 0,2.52501c0,1.08 0,2.19466 0,2.757c0,0.56033 0,1.659 0,2.18933c0,1.467 0,2.31233 0,3.06966c0,1.041 0,2.06401 0,2.78267c0,0.75067 0,1.52533 0,2.31601c0,1.19865 0,1.99866 0,2.79866c0,0.8 0,2 0,2.79866c0,0.79068 0,1.56534 0,3.03467c0,0.68401 0,1.35201 0,2.37651c0,1.12349 0,1.95816 0,2.84082c0,0.44934 0,1.34401 0,2.61601c0,0.76266 0,1.79166 0,2.42433c0,1.209 0,1.80899 0,2.709c0,1.2 0,1.80133 0,2.72083c0,0.96451 0,2.00101 0,2.74533c0,0.79634 0.00003,1.65268 0,2.10583c-0.00009,1.47067 -0.00253,2.53337 -0.01068,3.07867c-0.00821,0.54936 -0.03665,1.64461 -0.07465,2.18134c-0.10809,1.52705 -0.26196,2.4501 -0.41467,3.3055c-0.14233,0.79726 -0.3511,1.89394 -0.41467,2.57716c-0.08957,0.96251 -0.08307,1.58084 -0.08533,2.78551c-0.00171,0.91049 0,1.53583 0,2.8665c0,0.72133 0,1.49066 0,2.31599c0,0.88933 0,1.85066 0,2.88533c0,0.53734 0,1.632 0,2.18134c0,1.08267 0,2.11734 0,3.08133c0,0.908 0,1.34851 0,2.2175c0,1.31851 0.0043,2.23325 -0.01068,3.15584c-0.00739,0.45439 0.01358,1.3362 -0.15598,2.496c-0.13763,0.94135 -0.4686,1.68973 -0.66669,2.66667c-0.1586,0.78212 -0.16132,1.64397 -0.16666,2.83333c-0.0027,0.60001 0,1.5 0,2.39999c0,0.90001 0,1.8 0,2.70001c0,0.89999 0,1.80449 0,2.73599c0,0.64934 0.00793,1.68542 -0.0045,2.41667c-0.01907,1.12227 -0.04486,1.86855 -0.21683,2.92583c-0.10872,0.66841 -0.37291,1.60663 -0.49467,2.22017c-0.23703,1.19437 -0.2702,2.10118 -0.2795,2.70134c-0.01857,1.19986 -0.0045,2.09999 -0.0045,2.7c0,1.2 0,2.09999 0,2.7c0,0.89999 0,2.09732 0,2.95834c0,0.771 0,1.73181 0,2.70831c0,0.83334 0,1.66669 0,2.586c0,0.90002 0,1.59467 0,2.61136c0,0.93597 0,1.836 0,2.73599c0,0.89999 0,1.69998 0,2.60001c0,0.89999 0,1.79999 0,2.69998c0,0.89999 0,1.80002 0,2.70001c0,0.89999 0,1.69998 0,2.60001c0,0.89999 0.16278,1.73804 0.64734,2.35266c0.51199,0.64944 0.40717,1.64883 0.85266,2.44733c0.44467,0.797 0.8996,1.35614 1.70001,1.784c0.85583,0.45749 1.28781,1.00299 2.02148,1.59467c0.64612,0.52109 1.47852,0.76868 2.2785,1.12134c0.79999,0.35266 1.59839,0.89108 2.5,1c0.79871,0.0965 1.50314,0.62415 2.54285,0.87851c0.70282,0.17194 1.50897,0.11923 2.53549,0.12149c0.88,0.00192 1.755,0 2.58301,0c0.88132,0 1.83865,0 2.57065,0c1.09601,0 1.96939,0.01205 2.93466,0c0.83353,-0.01044 1.64792,-0.20535 2.45868,-0.57468c0.84244,-0.38376 1.63745,-0.37216 2.57449,-0.86798c0.6337,-0.3353 1.2803,-1.05234 2.16418,-1.496c0.80994,-0.40656 1.37448,-0.79495 2.28867,-1.36133c0.68143,-0.42215 1.48413,-0.8754 2.04282,-1.40002c0.73502,-0.69019 1.14609,-1.25165 1.60449,-2.30981c0.33054,-0.763 0.46909,-1.3205 0.90002,-2.3035c0.37357,-0.85208 0.99017,-1.61212 1.36398,-2.34802c0.4238,-0.83429 0.41663,-1.58887 0.43466,-2.57065c0.01752,-0.95352 0.00134,-1.86816 0.00134,-2.65335c0,-0.95065 0,-1.71597 0,-2.71014c0,-0.91919 0,-1.88367 0,-2.7045c0,-0.90134 0.05264,-1.86957 -0.02084,-2.72086c-0.08514,-0.9863 -0.43704,-1.75629 -0.69516,-2.49384c-0.29666,-0.84763 -0.46982,-1.82352 -0.80484,-2.48532c-0.43417,-0.85764 -1.09802,-1.44577 -1.35767,-2.3215c-0.2547,-0.85907 -0.12149,-1.87833 -0.12149,-2.65765c0,-0.99934 0,-1.8195 0,-2.72084c0,-0.90001 -0.00226,-1.8 0,-2.7c0.00226,-0.89552 0.41748,-1.58339 1,-2.10001c0.60266,-0.53447 1.35474,-1.06171 2.3215,-1.37866c0.67447,-0.22112 1.68326,-0.27374 2.47849,-0.54668c0.80508,-0.27631 1.7941,-0.54381 2.54285,-0.57016c0.90396,-0.0318 1.84656,0.11284 2.65717,0.51633c0.86057,0.42834 1.45288,1.07503 2.32132,1.35783c0.65555,0.21347 1.70517,0.27829 2.37418,0.82584c0.76608,0.627 1.3045,1.2955 1.90451,1.89551c0.69998,0.7 1.24734,1.15685 1.89999,1.92082c0.64981,0.76064 0.95157,1.51021 1.5,2.3125c0.46091,0.67429 1.147,1.22682 1.70001,1.92384c0.54785,0.69052 0.93185,1.39481 1.21597,2.35883c0.22226,0.75409 0.55731,1.69107 0.80002,2.39999c0.32993,0.96368 0.28339,1.80533 0.284,2.65866c0.00067,0.94 0.26355,1.77191 0.64734,2.58252c0.40353,0.85229 0.3504,1.59015 0.35266,2.61749c0.00208,0.94684 0,1.64618 0,2.62534c0,0.78934 0,1.83334 0,2.6955c0,0.90451 0,1.8045 0,2.7045c0,0.89999 0,1.80002 0,2.70001c0,0.89999 0,1.69998 0,2.60001c0,0.82083 0,1.784 0,2.64731c0,0.89551 0,1.854 0,2.81934c0,0.65869 0,1.66669 0,2.52884c0,0.82535 0.0484,1.79391 -0.03601,2.51517c-0.11697,0.99957 -0.53534,1.74429 -0.84265,2.76801c-0.22809,0.7598 -0.50076,1.66327 -0.76868,2.36865c-0.33887,0.89221 -0.48712,1.64047 -0.922,2.42068c-0.41873,0.75122 -0.91757,1.48773 -1.54532,2.26132c-0.55478,0.68369 -1.38492,1.30533 -1.76401,2.07068c-0.4194,0.84677 -0.78906,1.50418 -1.03732,2.38266c-0.22275,0.78812 -0.89832,1.50128 -1.07953,2.22183c-0.21841,0.86847 0.03748,1.83575 -0.28848,2.77951c-0.24463,0.70828 -0.63986,1.62982 -0.716,2.51599c-0.065,0.75653 -0.38412,1.64017 -0.64734,2.34732c-0.37259,1.00098 -0.73874,1.79105 -1.06866,2.45267c-0.42056,0.84338 -0.284,1.80002 -0.284,2.70001c0,0.89999 0,1.79999 0,2.70001c0,0.89999 0,1.79999 0,2.59998c0,0.90002 -0.00241,1.81989 0.42532,2.60001c0.4512,0.82291 0.88354,1.65106 1.22202,2.35718c0.40762,0.85037 0.34799,1.59015 0.35266,2.60684c0.0043,0.93597 0.19525,1.75812 0.7045,2.336c0.6525,0.74048 1.13916,1.46469 1.2955,2.32083c0.17844,0.97708 0.46002,1.75552 0.716,2.49384c0.32938,0.94995 0.63712,1.78906 1.284,2.48532c0.56049,0.60327 0.95798,1.40411 1.5,2c0.50565,0.55588 0.94702,1.31775 1.5,2c0.672,0.82904 0.85651,1.54767 1.35718,2.29999c0.52655,0.7912 1.27692,1.31241 1.74283,2.02133c0.43268,0.65833 1.00616,1.65268 1.39999,2.17868c0.60962,0.81421 0.96368,1.52289 1.5,2.33334c0.46915,0.70892 1.01642,1.49295 1.29999,2.17648c0.31863,0.76804 0.68637,1.82944 1,2.53302c0.38348,0.86023 0.81213,1.65152 1.20001,2.478c0.30975,0.66 0.70081,1.66284 1,2.47916c0.20053,0.54715 0.58521,1.58521 1,2.47916c0.28973,0.62436 0.79999,1.62085 1.10001,2.22086c0.5,1 0.80051,1.59973 1.19998,2.39999c0.40054,0.80243 0.83078,1.66092 1.20001,2.73334c0.21692,0.63 0.40158,1.32516 0.564,2.052c0.16299,0.72934 0.35312,2.1279 0.41068,2.76797c0.07956,0.88486 0.20029,1.94199 0.54617,2.82584c0.24783,0.63327 0.79108,1.61981 1.07916,2.25684c0.41742,0.92297 0.72299,1.70819 0.96399,2.53867c0.30444,1.04913 0.3577,1.77603 0.48868,2.67801c0.1413,0.9729 0.34698,1.77554 0.65182,2.53751c0.35394,0.8847 0.96381,1.58926 1.21149,2.49515c0.19348,0.70755 0.29483,1.7189 0.60486,2.55634c0.27118,0.73251 0.59073,1.59766 0.77466,2.26367c0.28693,1.03909 0.46689,1.7197 0.61917,2.92532c0.09415,0.74536 0.08466,1.45203 0.08533,2.45334c0.00055,0.81601 0,1.63202 0,2.86334c0,0.67801 0,1.87399 0,2.67801c0,0.54932 0.02515,1.854 -0.01068,2.53867c-0.04379,0.83685 -0.32999,1.84323 -0.59998,2.436c-0.46152,1.01331 -0.80991,1.60153 -1.18933,2.48532c-0.42459,0.98898 -0.56937,1.55869 -0.95718,2.362c-0.51102,1.0585 -1.07626,1.71008 -1.59015,2.34818c-0.64136,0.79639 -1.02985,1.39749 -1.45135,2.2045c-0.41437,0.7933 -0.79492,1.60324 -1.20132,2.39999c-0.4043,0.7926 -0.84351,1.55945 -1.48532,2.11734c-0.6843,0.59482 -1.53128,1.20154 -2.11469,1.888c-0.41196,0.48474 -0.95071,1.27921 -1.79868,2.02533c-0.55072,0.48459 -1.18152,0.79489 -1.84866,1.6265c-0.56451,0.7037 -1.05066,1.56403 -1.58865,2.13217c-0.54556,0.57611 -1.34702,1.21741 -2.164,1.68982c-0.58847,0.34027 -1.60001,0.82083 -2.20001,1.12085c-1.00015,0.50012 -1.61972,0.79431 -2.48532,1.28534c-0.74405,0.42206 -1.5383,0.94272 -2.08932,1.28931c-1.05545,0.66388 -1.76404,1.07605 -2.41467,1.41467c-1.00439,0.52274 -1.58765,0.86359 -2.41068,1.12534c-0.97424,0.30981 -1.76785,0.27075 -2.65182,0.638c-0.74271,0.30856 -1.75253,0.60977 -2.4975,0.63666c-1.10733,0.03998 -1.90857,0.01477 -2.79352,0.23203c-0.72534,0.17807 -1.49759,0.48416 -2.53583,0.65717c-0.91422,0.15234 -1.60532,0.12082 -2.60532,0.12149c-0.81601,0.00055 -1.6322,-0.0177 -2.63333,0.00134c-0.94446,0.01797 -2.0173,0.15857 -2.65067,0.28265c-0.68414,0.13403 -1.72183,0.39072 -2.69867,0.54935c-0.81561,0.13245 -1.72433,0.1644 -2.73602,0.16666c-0.63898,0.0014 -1.36801,-0.00742 -2.56665,0.00134c-0.69205,0.00507 -1.42242,-0.02332 -2.86401,0.16531c-0.6868,0.08987 -1.33688,0.27914 -2.31934,0.48068c-1.00986,0.20715 -1.72919,0.28125 -2.46198,0.31665c-1.07471,0.05194 -2.052,0.03601 -2.87552,0.03601c-0.95801,0 -1.93173,-0.01199 -2.7565,0.01068c-0.60031,0.01651 -1.92172,0.14587 -2.63599,0.27332c-0.73392,0.13095 -1.45004,0.32339 -2.784,0.54935c-0.56183,0.09515 -1.54797,0.16132 -2.5,0.16666c-0.78601,0.00439 -1.60803,-0.00595 -2.66669,0c-0.95203,0.00534 -1.68109,0.02792 -2.80933,0.22134c-0.66583,0.11414 -1.35535,0.28836 -2.052,0.42599c-1.25899,0.24875 -2.03282,0.3334 -2.90266,0.35132c-1.00246,0.02066 -1.8029,-0.01962 -2.80266,0.00269c-0.80055,0.01788 -1.79837,0.22537 -2.62083,0.49866c-0.66309,0.22034 -1.66306,0.43762 -2.5,0.47916c-0.87964,0.04364 -1.77943,0.00208 -2.6685,0.03152c-0.85429,0.02829 -1.89404,0.19498 -2.57468,0.41464c-0.84111,0.27145 -1.83478,0.5415 -2.63599,0.57019c-1.00072,0.03583 -1.84306,-0.00259 -2.76668,0.17114c-0.79379,0.14929 -1.59781,0.45404 -2.66666,0.66669c-0.7041,0.14008 -1.56216,0.1644 -2.56667,0.16666c-0.8,0.0018 -1.79984,0 -2.57918,0c-0.9995,0 -1.7735,0 -2.67349,0c-0.86334,0 -1.82651,0 -2.76866,0c-0.912,0 -1.58981,0.0621 -2.57333,-0.05716c-0.87144,-0.10568 -1.64946,-0.74298 -2.50534,-0.922c-0.88116,-0.1843 -1.85664,0.11572 -2.7,-0.30484c-0.66165,-0.32993 -1.49904,-0.77039 -2.3,-1.216c-0.79906,-0.44455 -1.80064,-0.31946 -2.416,-0.784c-0.68321,-0.51578 -1.44064,-0.57944 -2.284,-1c-0.66165,-0.32993 -1.62668,-0.60397 -2.27917,-1.23685c-0.57965,-0.56223 -0.612,-1.73566 -1.32216,-2.19382c-0.7097,-0.45786 -1.73346,-0.23236 -2.49867,-0.638c-0.84579,-0.44836 -1.46968,-0.95291 -2.05266,-1.59467c-0.52625,-0.57932 -0.46495,-1.69476 -1.16817,-2.03183c-0.78369,-0.37564 -1.35623,-0.73782 -2.08984,-1.01016c-0.83426,-0.30972 -1.65904,-0.41257 -2.48917,-0.88934c-0.79021,-0.45386 -1.32402,-0.93527 -2.10016,-1.40668c-0.67638,-0.41083 -1.25438,-1.27728 -2,-1.63065c-0.85887,-0.40704 -1.50113,-0.78738 -2.2,-1.48401c-0.60097,-0.59903 -1.17546,-1.22562 -1.90451,-1.89999c-0.56261,-0.52042 -1.36061,-0.9653 -2.12616,-1.41467c-0.81,-0.47546 -1.39671,-0.93866 -2.26933,-1.33801c-0.74738,-0.34201 -1.63071,-1.11761 -2.06801,-1.43134c-0.72768,-0.52206 -1.4753,-1.01718 -2.26266,-1.63065c-0.72821,-0.56735 -1.45969,-1.07455 -2.144,-1.48535c-0.81175,-0.4873 -1.42596,-1.03702 -2.30933,-1.60001c-0.67307,-0.42896 -1.51823,-0.87292 -2.14134,-1.43597c-0.72491,-0.65506 -1.21066,-1.20001 -1.77916,-1.76852c-0.7955,-0.7955 -1.39551,-1.39548 -1.9955,-1.99548c-0.60001,-0.60001 -1.21591,-1.18976 -1.8,-1.836c-0.82292,-0.91046 -1.20229,-1.44406 -1.58934,-1.97867c-0.55873,-0.77176 -1.20253,-1.63199 -1.68983,-2.2645c-0.63864,-0.82892 -1.02403,-1.54004 -1.32083,-2.12216c-0.51004,-1.00037 -0.81955,-1.64426 -1.36667,-2.56534c-0.47195,-0.79453 -0.84309,-1.32724 -1.34933,-2.14935c-0.61052,-0.99146 -0.96742,-1.66098 -1.28265,-2.28265c-0.50824,-1.00235 -0.823,-1.62833 -1.20134,-2.56799c-0.31363,-0.77896 -0.61232,-1.59686 -0.83333,-2.66669c-0.14629,-0.70807 -0.17682,-1.62772 -0.38817,-2.58798c-0.17886,-0.81268 -0.46866,-1.63156 -0.7785,-2.41202c-0.37222,-0.93762 -0.73164,-1.54227 -0.91467,-2.56799c-0.1472,-0.82495 -0.08533,-1.76532 -0.08533,-2.55133c0,-0.82199 0,-1.88068 0,-2.81134c0,-0.83466 0,-1.845 0,-2.508c0,-1.06134 0,-1.69733 0,-2.74884c0,-0.73099 0,-1.8125 0,-2.82199c0,-0.63632 -0.00523,-1.55588 0.00017,-2.457c0.00533,-0.88956 -0.00488,-1.75473 0.22116,-2.77917c0.16061,-0.72794 0.46698,-1.48074 0.612,-2.42099c0.11552,-0.74899 0.13736,-1.58691 0.192,-2.45999c0.05469,-0.8736 0.17224,-2.10187 0.33183,-2.82568c0.22067,-1.00079 0.45105,-1.60941 0.84151,-2.81433c0.19408,-0.59891 0.47925,-1.49329 0.63466,-2.39999c0.15335,-0.89471 0.18523,-1.8093 0.336,-2.39999c0.31284,-1.22562 0.69202,-1.80002 1.01601,-2.39999c0.64801,-1.20001 0.94685,-1.79312 1.29384,-2.70001c0.22792,-0.5957 0.62828,-1.79755 0.81633,-2.39999c0.27986,-0.89651 0.45361,-1.49469 0.62183,-2.70267c0.13029,-0.93567 0.1488,-1.62128 0.416,-2.73068c0.20309,-0.84326 0.52502,-1.71838 0.6875,-2.16666c0.32506,-0.89682 0.81264,-2.1666 1.09517,-2.92932c0.25879,-0.69861 0.46738,-1.3688 1.05067,-2.57068c0.29636,-0.61063 0.66628,-1.19565 1.008,-1.79999c0.67378,-1.19159 0.95151,-1.79401 1.3045,-2.67917c0.22365,-0.56082 0.59296,-1.61285 1.04166,-2.52084c0.34337,-0.69485 0.80043,-1.42181 1.31517,-2.24667c0.3745,-0.60013 0.77885,-1.23227 1.36383,-2.27451c0.40511,-0.72177 0.78194,-1.45667 1.14301,-2.16898c0.49406,-0.9747 0.91414,-1.79343 1.24651,-2.52451c0.42909,-0.94385 0.70905,-1.73859 1.01067,-2.56c0.19893,-0.54175 0.69196,-1.77197 1,-2.41467c0.48737,-1.01685 0.79999,-1.61066 1.2,-2.41068c0.39999,-0.79999 0.79576,-1.60214 1.2,-2.39999c0.40642,-0.80215 0.71814,-1.42953 1.48267,-2.39868c0.4731,-0.5997 0.98975,-1.09341 1.49651,-2.08047c0.41275,-0.80392 1.10208,-1.45374 1.58482,-2.12085c0.47017,-0.64978 0.62183,-1.73819 0.95683,-2.39999c0.43416,-0.85767 1.03761,-1.43878 1.4265,-2.29999c0.34802,-0.77072 0.90437,-1.46658 1.04817,-2.34283c0.1422,-0.86646 0.0045,-1.85718 0.0045,-2.75717c0,-0.89999 0,-1.80002 0,-2.70001c0,-0.89999 0,-1.69998 0,-2.60001c0,-0.89999 0,-1.71066 0,-2.62131c0,-0.85333 0,-1.79333 0,-2.77869c0,-0.89999 -0.36641,-1.49292 -0.87866,-2.12167c-0.62398,-0.76587 -0.58458,-1.58893 -0.83734,-2.29431c-0.36516,-1.01904 -1.01416,-1.56296 -1.25867,-2.34534c-0.29555,-0.94568 -0.53549,-1.62802 -1.22533,-2.33868c-0.591,-0.60886 -1.25595,-1.16943 -1.8,-1.96664c-0.43649,-0.63959 -0.75955,-1.4252 -0.94733,-2.42883c-0.13881,-0.74185 -0.5918,-1.73026 -0.886,-2.57117c-0.28064,-0.80219 -0.38625,-1.64267 -0.74133,-2.49469c-0.35869,-0.86063 -0.40329,-1.59955 -0.42084,-2.39047c-0.02277,-1.02628 0.12784,-1.94901 -0.22583,-2.92685c-0.25064,-0.69296 -0.7267,-1.504 -0.76801,-2.23199c-0.05605,-0.98782 -0.01724,-1.78937 -0.01067,-2.78934c0.00534,-0.81073 0.04391,-1.69452 0.28534,-2.68401c0.20131,-0.82509 0.50565,-1.63617 0.91333,-2.63066c0.27359,-0.66739 0.65292,-1.68231 0.776,-2.48534c0.09166,-0.59805 0.33618,-1.59245 0.59999,-2.43599c0.28831,-0.92192 0.38759,-1.72034 0.41467,-2.57468c0.03769,-1.18878 -0.01216,-1.78886 0.03149,-2.6685c0.04155,-0.83694 0.24474,-1.84396 0.5,-2.52083c0.44505,-1.1801 0.67917,-1.68401 0.97917,-2.5c0.3,-0.81599 0.72058,-1.80583 0.97917,-2.47917c0.38739,-1.00868 0.44344,-1.8297 0.60483,-2.62083c0.2072,-1.01572 0.6187,-1.80087 1.01601,-2.59999c0.39819,-0.8009 0.6871,-1.40659 1.2,-2.39551c0.39026,-0.75246 0.92128,-1.50433 1.39999,-2.15717c0.52386,-0.71442 0.80205,-1.49237 1.5,-2.36066c0.53162,-0.66136 1.4567,-0.85222 2.284,-1.17201c0.71211,-0.27527 1.42497,-0.93079 2.26868,-1.3575c0.85164,-0.43073 1.6696,-0.34363 2.646,-0.64116c0.78313,-0.23863 1.57332,-0.65382 2.39999,-0.71468c0.89891,-0.06618 1.67528,0.20195 2.36801,0.832c0.59985,0.54556 1.32387,0.97713 1.808,1.60268c0.57719,0.7458 0.76221,1.60088 1.10933,2.364c0.38858,0.85426 0.79987,1.64133 1.2,2.39999c0.45271,0.85838 0.30269,1.62344 0.77316,2.44284c0.46626,0.81206 0.94284,1.35716 0.94284,2.15717c0,0.89999 0,1.8 0,2.7c0,0.89999 0,1.8 0,2.7l0,0.90001l0,0.89999l0.16667,0.83333" id="svg_1" stroke-width="2" stroke="#000" fill="none"/>
  <path t="16949,17003,17003,17003,17003,17003,17003,17003,17003,17014,17014,17015,17015,17031,17041,17056,17072,17072,17089,17089,17089,17106,17107,17107,17122,17122,17139,17139,17139,17156,17156,17157,17172,17172,17172,17189,17189,17189,17206,17206,17206,17222,17222,17239,17239,17256,17256,17272,17272,17290,17290,17290,17306,17306,17307,17322,17322,17339,17339,17373,17389,17397,17397,17406,17422,17438,17438,17455,17455,17471,17471,17488,17488,17505,17568,17576,17588,17605,17605,17621,17621,17638,17638,17638,17638,17655,17655,17655,17671,17671,17671,17688,17688,17688,17705,17705,17705,17705,17721,17721,17721,17738,17738,17755,17755,17771,17771,17771,17788,17788,17805,17805,17805,17822,17822,17822,17838,17838,17838,17855,17855,17872,17872,17872,17888,18120" d="m225,391c1.10001,3.53448 1.20227,4.32239 1.3,5.17484c0.10237,0.89288 0.19843,1.8045 0.3,2.71051c0.09846,0.87833 0.17081,1.70978 0.39999,3.11465c0.08875,0.54395 -0.18346,1.28125 0.60001,1.87201c0.72583,0.5473 1.79999,0.12799 2.7045,0.12799c0.86217,0 1.71632,0 2.6955,0c0.81067,0 1.45717,0 2.68401,0c0.81599,0 1.36333,0 2.63199,0c0.68401,0 1.85068,0 2.63667,0c0.82201,0 1.88066,0 2.59467,0c0.90533,0 1.87401,0 2.67799,0c0.82201,0 1.85406,0.02307 2.54935,-0.01068c0.91132,-0.04425 1.90933,-0.27332 2.72533,-0.48932c0.81599,-0.216 1.82014,-0.37259 2.65334,-0.52533c0.83438,-0.15295 1.56996,-0.73492 2.50383,-0.91751c0.73529,-0.14374 1.74417,-0.05716 2.57883,-0.05716c0.93066,0 1.71875,0.03018 2.53867,-0.03601c1.06326,-0.08585 1.75806,-0.34781 2.62085,-0.61133c0.99411,-0.30362 1.80447,-0.34732 2.80432,-0.35266c0.77933,-0.00415 2.01602,0.44772 2.63351,-0.16666c0.60245,-0.59943 0.18396,-1.63348 0.16666,-2.53336c-0.01801,-0.93649 -0.30212,-1.77664 -0.57468,-2.47464c-0.3645,-0.9335 -0.42465,-1.79468 -0.42532,-2.83069c-0.00049,-0.74399 0.18188,-1.68698 -0.03601,-2.57333c-0.21698,-0.88263 -0.49792,-1.82144 -1.24933,-2.336c-0.75797,-0.51904 -1.81482,-0.08533 -2.60001,-0.08533c-0.78082,0 -1.63348,0 -2.75748,0c-0.66702,0 -1.37802,0 -2.47452,0c-1.061,0 -1.72101,0 -2.63599,0c-1.08002,0 -1.79401,0 -2.69934,0c-0.96899,0 -1.79401,0 -2.709,0c-1.005,0 -1.72099,0 -2.453,0c-1.0755,0 -2.052,0 -2.871,0c-0.90533,0 -1.91432,0 -2.71432,0c-1,0 -1.8,0 -2.8,0c-0.8,0 -1.60001,0 -2.60451,0c-0.63148,0 -1.81723,-0.01727 -2.62082,0.01068c-0.82281,0.02863 -1.85663,0.19977 -2.54935,0.41464c-0.6814,0.21136 -1.90822,0.50357 -2.45065,0.53867c-0.82089,0.0531 -2.09149,0 -2.75385,0.05685c-1.02742,0.08817 -1.81017,0.40448 -2.53549,0.69516l-1.03867,0.30933l-0.49934,0.62201" id="svg_2" stroke-width="2" stroke="#000" fill="none"/>
  <path t="21115,21151,21163,21186,21217,21237,21253,21270,21297,21321,21357,21414,21426,21442,21462,21486,21486,21494,21510,21522,21522" d="m244,18c-0.95334,4.28133 -0.64413,4.9714 0.3,5c0.89958,0.02725 1.92664,0.25862 2.57866,-0.22133c0.69826,-0.51399 1.10333,-1.21411 1.12134,-2.07867c0.01874,-0.89981 0.33107,-2.15275 -0.28534,-2.61467c-0.73512,-0.55088 -1.81593,-0.13313 -2.71466,-0.08533c-0.80341,0.04273 -1.47917,0.52083 -1.97467,1.4l-0.30933,0.8l-0.43201,0.6" id="svg_3" stroke-width="2" stroke="#000" fill="none"/>
  <path t="21963,22027,22027,22051,22070,22101,22129,22133,22153,22189,22205,22221,22221,22245,22265,22282,22301,22317,22341,22353,22369,22370,22386,22393,22406" d="m240,31c-0.87849,8.128 -1.14775,9.12248 -0.99983,10.09983c0.12918,0.85357 1.09984,0.90017 1.99983,0.90017c0.94284,0 1.37062,-0.42986 1.87849,-1.2215c0.47888,-0.74645 0.12151,-1.7785 0.12151,-2.5785c0,-0.9 0.34077,-1.87754 -0.02083,-2.67917c-0.33054,-0.73277 -1.28947,-1.13903 -2.17917,-1.4355c-0.85767,-0.28579 -1.8,0.08133 -2.40001,0.52533l-0.7,0.68483l-0.7,0.53783l-0.83333,0.33334" id="svg_4" stroke-width="2" stroke="#000" fill="none"/>
  <path t="22953,22971,22971,22986,23018,23038,23054,23070,23090,23106,23130,23150,23166,23190,23206,23206,23226,23234,23250,23256,23256,23272" d="m232,58c-0.34534,6.40266 0.35597,6.98425 1.364,7c0.83589,0.01306 1.85635,0.22859 2.552,-0.284c0.69087,-0.50906 1.07358,-1.23665 1.084,-2.116c0.01067,-0.89993 0.15044,-1.81269 -0.00017,-2.69983c-0.1447,-0.85236 -1.02507,-1.23223 -1.71449,-1.61617c-0.74675,-0.41585 -1.68533,-0.27333 -2.58534,0.07317l-0.7,0.64283l-0.5,0.47917l-0.7955,0.46817" id="svg_5" stroke-width="2" stroke="#000" fill="none"/>
 </g>
 <g display="none">
  <title>muse_image</title>
  <image xlink:href="http://static.flickr.com/180/417055384_d172e82e45.jpg" id="muse" height="480" width="360" y="0" x="140"/>
 </g>
 <g display="none">
  <title>bbox</title>
  <rect stroke="#f00" fill="none" stroke-width="3" height="454.08" width="165.12" y="0" x="216.8" id="bbox"/>
 </g>
</svg>
