<svg width="640" height="480" xmlns="http://www.w3.org/2000/svg" xmlns:svg="http://www.w3.org/2000/svg" xmlns:xlink="http://www.w3.org/1999/xlink">
 <!-- Sketchy ANNOTATION
  ImageNet ID: n03272010_1708
  URL: http://static.flickr.com/180/417055384_d172e82e45.jpg
  Image Width: 375
  Image Height: 500
  BBox X: 80
  BBox Y: 0
  BBox Width: 172
  BBox Height: 473
  Exposure: 2000ms
  Synset Label: guitar
  Synset ID: n03467517
  Worker Tag: Guitar
  Sanity Check: 
   Saved
  Comment: 
   {}
  Worker ID: AIH9VLD92GHFH
  Assignment ID: 31QNSG6A5RT1CLZB8Z1NXSSRZX878W
  HIT ID: 30UZJB2POHCY10HSINMSJ7BZPRG35B
  Work Time: 36s
  Worker Score: 0.5500
 END ANNOTATION -->
 <g display="inline">
  <title>Layer 1</title>
  <path t="0,167,167,180,181,198,215,221,232,232,248,265,265,265,281,281,281,281,297,298,314,315,315,331,331,347,347,351,351,364,365,365,380,381,397,398,398,414,414,430,431,431,447,448,448,448,464,465,465,480,481,481,498,498,498,498,498,514,515,515,515,530,531,531,531,547,548,548,548,564,564,565,565,580,581,581,581,581,597,598,598,598,614,615,615,615,615,630,631,631,631,647,648,648,648,648,664,664,665,665,665,665,680,681,681,697,698,698,698,716,716,716,716,731,731,731,731,747,748,748,765,765,781,781,797,797,814,814,830,831,831,831,847,847,864,865,865,880,881,881,897,898,898,914,915,915,931,931,931,947,947,948,964,965,965,965,980,981,981,997,998,998,998,998,1014,1015,1015,1015,1015,1030,1031,1031,1031,1032,1047,1048,1048,1048,1048,1048,1048,1064,1065,1065,1065,1065,1099,1099,1099,1099,1102,1102,1102,1102,1102,1115,1115,1115,1116,1116,1130,1131,1131,1132,1132,1148,1149,1149,1149,1163,1164,1164,1164,1165,1180,1180,1181,1181,1199,1199,1199,1199,1199,1214,1215,1215,1215,1230,1231,1231,1231,1247,1247,1248,1248,1264,1265,1265,1265,1280,1281,1281,1282,1282,1298,1298,1298,1314,1315,1315,1315,1330,1331,1332,1332,1348,1348,1349,1364,1365,1365,1365,1365,1381,1381,1381,1397,1398,1398,1414,1415,1415,1430,1431,1431,1447,1448,1448,1448,1448,1464,1465,1465,1480,1481,1481,1497,1498,1498,1514,1515,1515,1530,1531,1547,1548,1548,1564,1565,1565,1580,1581,1581,1597,1598,1598,1614,1615,1630,1631,1631,1647,1648,1648,1664,1665,1665,1665,1681,1681,1682,1697,1698,1714,1715,1715,1730,1731,1731,1748,1748,1764,1765,1765,1781,1782,1782,1797,1798,1815,1815,1815,1832,1832,1832,1833,1847,1848,1848,1864,1865,1865,1880,1881,1881,1882,1897,1898,1914,1915,1915,1915,1930,1931,1931,1932,1948,1948,1949,1964,1965,1965,1965,1980,1981,1981,1997,1998,1998,2014,2015,2015,2030,2031,2032,2032,2047,2048,2048,2048,2064,2065,2065,2081,2082,2082,2082,2097,2098,2098,2099,2099,2114,2115,2116,2116,2130,2131,2132,2132,2150,2150,2150,2151,2163,2164,2165,2165,2180,2181,2181,2181,2182,2197,2198,2213,2214,2215,2215,2230,2231,2232,2246,2247,2248,2248,2248,2264,2265,2281,2282,2282,2282,2296,2297,2298,2314,2315,2315,2315,2316,2330,2331,2332,2332,2346,2347,2348,2348,2348,2389,2390,2390,2390,2391,2391,2395,2395,2395,2396,2396,2407,2407,2408,2408,2422,2422,2422,2423,2423,2436,2436,2436,2437,2437,2451,2451,2452,2452,2464,2464,2465,2465,2465,2480,2481,2482,2482,2498,2498,2498,2499,2499,2499,2514,2515,2515,2516,2529,2531,2531,2532,2532,2547,2548,2548,2565,2566,2566,2566,2566,2580,2581,2582,2598,2599,2599,2616,2617,2617,2643,2644,2644,2662,2662,2663,2680,2680,2681,2681,2699,2699,2700,2700,2716,2717,2717,2733,2733,2733,2749,2749,2750,2750,2766,2766,2766,2783,2783,2783,2784,2800,2800,2801,2817,2817,2817,2817,2818,2833,2834,2834,2834,2850,2851,2851,2866,2867,2867,2868,2884,2885,2885,2885,2886,2902,2903,2903,2903,2919,2919,2920,2920,2935,2935,2936,2936,2952,2952,2952,2953,2969,2969,2970,2970,2986,2986,2987,2987,3003,3004,3004,3005,3021,3021,3022,3022,3038,3038,3039,3039,3039,3056,3056,3056,3057,3073,3074,3074,3074,3075,3090,3091,3092,3092,3092,3093,3110,3110,3111,3112,3112,3129,3130,3130,3130,3131,3133,3133,3134,3134,3135,3135,3137,3138,3138,3139,3139,3158,3159,3159,3159,3160,3160,3180,3180,3181,3181,3181,3182,3184,3185,3185,3186,3186,3186,3207,3208,3209,3209,3210,3228,3228,3229,3229,3230,3249,3249,3250,3250,3250,3268,3268,3269,3269,3270,3270,3288,3288,3289,3289,3290,3290,3309,3309,3310,3310,3311,3312,3329,3330,3330,3331,3331,3334,3334,3335,3335,3336,3338,3339,3339,3340,3361,3362,3362,3363,3363,3380,3381,3381,3382,3382,3382,3401,3401,3402,3402,3403,3450,3451,3451,3452,3452,3471,3471,3471,3472,3489,3489,3490,3490,3491,3491,3491,3492,3492,3510,3511,3512,3512,3513,3513,3513,3531,3531,3532,3532,3535,3535,3536,3536,3539,3539,3540,3566,3567,3567,3568,3585,3585,3586,3586,3605,3605,3606,3606,3606,3625,3626,3626,3627,3646,3647,3647,3648,3651,3651,3652,3652,3655,3655,3656,3675,3675,3676,3695,3695,3696,3699,3700,3700,3719,3720,3720,3739,3740,3758,3779,3782,3783,3800,3801,3801,3820,3821,3844,3845,3845,3867,3867,3888,3888,3889,3909,3909,3932,3933,3933,3953,3953,3954,3957,3957,3958,3961,3962,3963,3963,3964,3983,3983,3984,3984,3987,3988,3988,3989,3989,4009,4010,4010,4011,4030,4030,4031,4050,4050,4051,4052,4071,4071,4072,4091,4091,4092,4092,4113,4114,4115,4115,4135,4135,4136,4136,4137,4137,4140,4141,4141,4142,4142,4146,4147,4148,4148,4168,4169,4169,4170,4171,4174,4174,4175,4197,4197,4198,4198,4201,4202,4227,4228,4228,4232,4233,4234,4253,4254,4276,4276,4297,4316,4317,4337,4337,4338,4386,4387,4387,4388,4407,4408,4408,4429,4430,4430,4431,4431,4432,4432,4452,4453,4453,4456,4457,4460,4460,4461,4485,4486,4487,4490,4490,4491,4511,4511,4512,4513,4513,4533,4533,4534,4534,4535,4535,4555,4556,4556,4557,4557,4577,4577,4578,4578,4579,4599,4600,4600,4601,4601,4605,4605,4606,4606,4607,4607,4610,4611,4612,4612,4613,4614,4634,4634,4635,4635,4636,4636,4640,4640,4641,4641,4642,4642,4664,4664,4665,4666,4666,4667,4670,4671,4671,4672,4672,4673,4695,4696,4697,4698,4698,4699,4702,4703,4703,4704,4705,4724,4725,4725,4726,4726,4727,4749,4749,4750,4750,4751,4752,4752,4774,4775,4776,4776,4777,4777,4799,4800,4801,4801,4802,4802,4806,4806,4807,4808,4808,4809,4813,4814,4815,4816,4816,4838,4839,4840,4840,4844,4845,4846,4846,4847,4848,4869,4870,4870,4871,4872,4875,4876,4876,4877,4878,4878,4900,4901,4902,4902,4903,4904,4907,4908,4909,4909,4910,4933,4934,4934,4935,4936,4936,4940,4941,4941,4942,4965,4965,4966,4967,4967,4971,4972,4972,4973,4973,4974,4997,4998,4999,5000,5000,5001,5002,5005,5006,5007,5007,5008,5030,5031,5032,5032,5033,5034,5037,5038,5039,5039,5040,5041,5063,5064,5065,5066,5066,5067,5068,5071,5072,5073,5074,5074,5075,5076,5099,5100,5101,5101,5102,5103,5106,5107,5108,5109,5110,5110,5134,5135,5136,5136,5137,5138,5141,5142,5143,5144,5144,5145,5169,5170,5171,5172,5172,5173,5177,5178,5178,5179,5180,5181,5248,5249,5249,5250,5250,5254,5255,5256,5256,5257,5258,5279,5280,5281,5282,5283,5283,5284,5309,5310,5310,5311,5311,5313,5313,5314,5315,5338,5339,5339,5340,5341,5341,5342,5343,5343,5373,5374,5374,5375,5376,5376,5377,5378,5379,5383,5384,5385,5385,5389,5390" d="m244,257c-1.88567,2.00534 -1.98933,2.74918 -2,3.85699c-0.00803,0.83398 0.02348,1.66415 -0.00133,2.62701c-0.01782,0.69128 -0.31458,1.79446 -0.8,2.31467c-0.68605,0.73517 -1.53032,1.04547 -2.47067,1.18665c-0.54842,0.08234 -1.74144,0.3165 -2.32533,0.58401c-0.88385,0.40494 -1.62593,0.95627 -2.43466,1.54401c-0.61412,0.44632 -1.50803,0.79346 -2.22934,0.85065c-0.78865,0.06253 -2.05466,0.03601 -2.73866,0.03601c-1.16667,0 -1.95717,0 -2.52083,0c-0.88051,0 -2.07784,0 -2.95834,0c-0.56366,0 -1.83682,0 -2.52083,0c-1.16667,0 -1.94817,0 -2.73866,0c-0.92801,0 -1.77554,0.04242 -2.80434,-0.22183c-0.74202,-0.19058 -1.32115,-0.3887 -2.457,-1.11151c-0.62325,-0.39661 -1.18794,-0.90729 -1.728,-1.41599c-0.9554,-0.8999 -1.52263,-1.39697 -1.963,-2.056c-0.60765,-0.90939 -0.70401,-1.4895 -1.12334,-2.36084c-0.48875,-1.01559 -0.94995,-1.72028 -1.43634,-2.45917c-0.24745,-0.37592 -0.78008,-1.10049 -1.416,-2.20801c-0.38492,-0.67035 -0.69063,-1.33093 -1.02432,-2.31932c-0.33908,-1.00435 -0.50186,-1.73248 -0.71967,-2.46201c-0.21692,-0.72656 -0.73804,-2.06244 -1.07201,-2.61732c-0.4716,-0.78354 -0.92343,-1.23242 -1.27434,-2.41101c-0.19505,-0.65512 -0.21475,-1.39821 -0.23399,-2.166c-0.02983,-1.19066 -0.00233,-1.99113 -0.01967,-2.791c-0.01733,-0.8002 -0.04478,-1.60376 -0.21066,-2.79999c-0.11134,-0.80302 -0.29002,-1.59799 -0.42601,-2.40001c-0.20299,-1.19724 -0.27931,-1.99934 -0.31667,-2.8c-0.03729,-0.79951 -0.03532,-1.59999 -0.036,-2.79999c-0.00044,-0.8 0,-1.60001 0,-2.40001c0,-1.2 0,-2.00267 0,-2.82133c0,-0.85066 0,-1.74933 0,-2.71199c0,-1.032 0,-1.563 0,-2.625c0,-1.022 0,-1.50301 0,-2.75601c0,-0.963 0,-1.782 0,-2.9285c0,-0.66699 0,-1.37799 0,-2.4745c0,-1.06133 0,-1.73 0,-2.70799c0,-0.65866 0.0137,-1.69604 -0.01067,-2.78934c-0.01614,-0.72426 0.02643,-1.43744 -0.276,-2.61467c-0.19217,-0.74802 -0.57912,-1.38394 -1.196,-2.17065c-0.48056,-0.61285 -1.21722,-1.58919 -1.45599,-2.37868c-0.26541,-0.87755 -0.86528,-1.38696 -1.49335,-2.08266c-0.44133,-0.48886 -1.31944,-1.14847 -1.9305,-1.377c-0.97977,-0.36644 -1.66385,-0.52211 -2.86684,-0.67635c-0.72589,-0.09306 -1.77066,-0.08533 -2.58133,-0.08533c-0.6465,0 -1.87466,0 -2.42532,0c-0.86852,0 -2.06384,0 -2.95334,0c-0.57468,0 -1.64468,-0.02689 -2.58534,0.01067c-0.67905,0.02711 -1.91991,0.24365 -2.43999,0.44667c-0.79704,0.31114 -1.68637,1.05852 -2.12401,1.81467c-0.30795,0.53207 -0.81709,1.7339 -1.14532,2.32666c-0.33047,0.59682 -0.88823,1.42941 -1.49451,2.48016c-0.40224,0.69711 -0.73955,1.423 -1.0215,2.2545c-0.33124,0.97684 -0.51929,1.72963 -0.636,2.12401c-0.24609,0.83162 -0.6814,2.16541 -1.01666,3.09534c-0.17067,0.47339 -0.52509,1.42088 -0.69467,1.89465c-0.495,1.38281 -0.77196,2.26866 -0.89549,2.70451c-0.24557,0.86642 -0.46445,1.75552 -0.75717,3.18149c-0.10439,0.5085 -0.30296,1.57231 -0.41066,2.11734c-0.10861,0.54964 -0.33466,1.64696 -0.47467,2.18134c-0.40199,1.53426 -0.76196,2.45398 -0.92934,2.896c-0.32234,0.85129 -0.67987,1.65379 -0.94234,2.87199c-0.17067,0.7921 -0.21465,1.59958 -0.23399,2.40001c-0.02899,1.19968 -0.009,2.00133 -0.009,2.81067c0,0.82533 0,1.67467 0,2.556c0,0.91733 0,1.85866 0,2.808c0,0.47266 0,1.85866 0,2.73999c0,0.84933 0,1.67467 0,2.48401c0,1.20132 0,2.00133 0,2.80133c0,0.8 0,2 0,2.8c0,0.8 0,1.59999 0,2.39999c0,1.2 0,2 0,2.8c0,0.79999 0,2 0,2.79868c0,0.79065 0,1.56534 0,2.31598c0,1.06403 0,2.06 0,2.71069c0,0.65866 0,2.06 0,2.81064c0,0.77469 -0.00636,1.56537 0.00034,2.76385c0.00444,0.79568 0.002,1.58408 0.114,2.34299c0.1624,1.10037 0.43581,1.7822 0.90649,2.75717c0.31816,0.65903 0.8338,1.65869 1.0925,2.384c0.26178,0.73392 0.46594,1.48553 0.60001,2.23199c0.25002,1.39212 0.26074,2.05835 0.276,2.70935c0.03142,1.34097 0.00414,2.05881 0.02133,2.79999c0.0174,0.74954 0.13217,2.21265 0.276,2.888c0.13741,0.6452 0.41484,1.55966 1.03467,2.56549c0.30296,0.49164 0.92783,1.14017 1.51199,2.25452c0.32263,0.61545 0.53973,1.32285 0.72,2.052c0.17982,0.72739 0.375,2.12845 0.41068,2.77866c0.05106,0.93063 0.02202,1.83618 0.0405,2.73151c0.01793,0.8689 0.14027,1.94391 0.34816,2.65182c0.20102,0.68451 0.52715,1.87421 0.63268,2.69934c0.07672,0.59991 0.3308,1.92584 0.58266,2.63733c0.26476,0.74792 0.60648,1.48157 0.86401,2.23199c0.36061,1.05078 0.49103,1.71933 0.54666,2.63733c0.06534,1.07825 -0.02374,1.79825 0.07849,2.69934c0.11078,0.97638 0.38799,1.7785 0.59018,2.65182c0.2063,0.89105 0.31398,1.78568 0.342,2.6235c0.03137,0.9382 0.00313,1.77203 0.01083,2.81485c0.00531,0.71854 -0.01199,1.5224 0.22116,2.53583c0.21581,0.93805 0.55447,1.59528 0.69334,2.60666c0.114,0.8302 0.08307,1.41916 0.08533,2.61432c0.00165,0.87903 0,1.686 0,2.73236c0,0.77332 -0.0381,1.74057 0.04167,2.48883c0.08554,0.80231 0.53595,1.79065 0.95833,2.5c0.44215,0.74255 0.79382,1.61612 0.93866,2.6405c0.10191,0.72079 0.09711,1.4632 0.28284,2.51682c0.17152,0.97308 0.31734,1.57278 0.87834,2.67917c0.33749,0.66559 0.73634,1.47556 0.8855,2.40399c0.12692,0.7901 0.43161,1.83316 0.86533,2.50269c0.41971,0.64789 0.94084,1.42728 1.12851,2.23599c0.23,0.99109 0.4772,1.80084 0.66817,2.45715c0.27696,0.9519 0.24419,1.76993 0.43666,2.7735c0.18851,0.98285 0.62144,1.56021 0.83467,2.54135c0.16991,0.78177 0.14981,1.43448 0.74533,2.74899c0.33966,0.74973 0.61031,1.08411 1.06,1.78168c0.77309,1.19922 1.12749,1.82953 1.35733,2.664c0.22052,0.80063 0.45256,1.58856 0.63467,2.52133c0.20038,1.02637 0.21687,1.75772 0.30482,2.47034c0.12225,0.9906 0.56847,1.97363 0.97917,2.54166c0.70421,0.97394 0.85692,1.55106 0.97917,2.54166c0.08795,0.71262 0.15468,1.79843 0.37799,2.80118c0.14282,0.64133 0.43713,1.5582 0.74301,2.457c0.30353,0.89191 0.46611,1.50171 1.0665,2.53351c0.43311,0.74432 1.01579,1.36691 1.26399,1.85065c0.49246,0.95981 0.52199,1.84723 0.73734,2.71735c0.22571,0.91202 0.69095,1.78375 0.98134,2.36267c0.53262,1.0618 0.66307,1.8132 1.01317,2.68866c0.40511,1.01303 0.8989,1.50537 1.35832,2.06818c0.4772,0.58456 1.17715,1.46158 1.66934,2.37466c0.30904,0.5733 0.64804,1.4472 1.29382,2.42181c0.31996,0.48288 0.91878,1.1622 1.34933,2.01602c0.47757,0.94702 0.65472,1.69174 0.91934,2.41849c0.39621,1.08817 0.72177,1.77008 1.08333,2.42282c0.36382,0.65683 0.77599,1.30328 1.364,2.34653c0.40742,0.72287 0.78638,1.46582 1.2,2.16898c0.58109,0.98788 1.19205,1.81091 1.62083,2.289c0.64615,0.72043 1.39497,1.44785 1.93634,1.96902c0.55786,0.53705 1.10883,1.09625 2.04283,1.71848c0.87163,0.58069 1.5262,0.82239 2.15717,1.13867c1.01848,0.5105 1.73174,0.95154 2.44684,1.44534c0.70631,0.48776 1.35207,0.96805 2.34267,1.78c0.53844,0.44135 1.38451,1.13898 2.06316,1.6265c0.5094,0.36594 1.31895,0.92987 2.069,1.54285c0.71771,0.58652 1.15071,1.04446 2.2545,1.79999c0.6179,0.42294 1.30916,0.7955 2.01601,1.12799c0.67525,0.31763 1.88762,0.67383 2.60899,0.87201c1.05464,0.28973 1.65312,0.70578 2.27766,1.22134c0.45448,0.37518 1.43376,1.20209 2.01068,1.55731c0.89076,0.54846 1.91391,0.91739 2.63866,1.052c0.74565,0.13849 1.52641,0.17236 2.31601,0.25201c1.20058,0.12112 2.00067,0.26498 2.79866,0.43817c0.80214,0.1741 2.0007,0.47635 2.80133,0.68048c0.81007,0.20651 1.63609,0.42984 2.05583,0.55585c1.31412,0.39447 2.22734,0.72543 2.69551,0.89551c0.94836,0.34448 1.89314,0.69891 2.36333,0.86331c1.35823,0.47488 2.22601,0.72971 2.64799,0.84802c0.82379,0.23096 1.63531,0.43213 2.836,0.73615c0.80045,0.20267 1.6051,0.40408 2.39999,0.65701c1.20828,0.38443 1.99948,0.72678 2.80002,1.0575c0.39972,0.16513 1.18213,0.53799 2.39999,0.85199c0.79053,0.2038 1.59915,0.27731 2.39999,0.31201c0.7995,0.03464 2.00006,0.01547 2.80002,0.02582c0.80008,0.01035 1.60342,0.01993 2.79999,0.16217c0.80289,0.09543 1.5993,0.26254 2.39999,0.40802c0.79932,0.1452 1.99918,0.31805 2.8045,0.36816c0.81558,0.05075 1.65268,0.0549 2.96216,0.05716c0.45468,0.00079 1.38602,0 2.33334,0c0.94733,0 1.41599,0 2.7785,0c0.86432,0 1.70065,0 2.517,0c1.2045,0 2.00317,0 2.79382,0c0.77469,0 1.52533,0 2.58936,0c0.99597,0 1.64667,0 2.98798,0c0.71735,0 1.45868,0 2.20801,0c0.74133,0 2.13867,0 2.77866,0c0.88501,0 1.9267,0.03278 2.84668,-0.02084c0.68585,-0.03998 1.68472,-0.26553 2.52084,-0.47916c0.58322,-0.14902 1.78043,-0.3674 2.66849,-0.48532c0.85504,-0.11353 1.90607,-0.43066 2.358,-0.729c0.70657,-0.4664 1.61258,-1.29459 2.138,-1.68567c0.82516,-0.61417 1.4183,-1.00125 2.31467,-1.60001c0.59811,-0.39954 1.4751,-0.98553 2.04285,-1.34283c1.02859,-0.64731 1.72232,-1.04135 2.40982,-1.35266c0.95648,-0.43311 1.78867,-0.70203 2.358,-0.94049c1.20123,-0.50314 1.79947,-0.82892 2.36801,-1.20001c0.82663,-0.53952 1.68982,-1.35501 2.17065,-1.96399c0.46701,-0.59146 1.18369,-1.41177 1.66049,-1.80002c0.76035,-0.61914 1.32886,-0.97409 2.30618,-1.80133c0.46924,-0.39716 1.13824,-1.05423 1.85065,-1.76532c0.51849,-0.51752 1.06476,-1.0636 1.608,-1.64401c0.54752,-0.58496 1.31253,-1.48254 1.98935,-2.37866c0.43091,-0.5705 0.82364,-1.13425 1.63467,-2.12799c0.38547,-0.47229 0.99966,-1.16187 1.43466,-2.01602c0.48212,-0.94669 0.66055,-1.69873 0.9765,-2.41849c0.48297,-1.10022 0.95111,-1.76938 1.44083,-2.42282c0.49164,-0.65601 1.03827,-1.2771 1.60666,-2.34653c0.37613,-0.7077 0.61096,-1.47244 0.948,-2.16898c0.48352,-0.99927 0.96027,-1.54282 1.43466,-2.05917c0.69592,-0.75748 1.30914,-1.56708 1.50668,-2.22c0.31186,-1.03076 0.28976,-1.79837 0.58667,-2.86401c0.19339,-0.69418 0.54294,-1.31888 0.96133,-2.26215c0.39655,-0.89401 0.59171,-1.81168 0.72617,-2.42535c0.21237,-0.96912 0.62613,-2.00983 1.03717,-2.72733c0.42462,-0.74121 0.93835,-1.41284 1.44199,-2.41849c0.27597,-0.55103 0.45438,-1.33398 0.58133,-2.10135c0.19913,-1.2037 0.35144,-1.90784 0.56534,-2.65332c0.22543,-0.78568 0.66791,-1.98151 1.00601,-2.77869c0.34055,-0.80289 0.53619,-1.19406 0.86331,-2c0.48367,-1.19162 0.73611,-1.99731 0.96317,-2.79999c0.22559,-0.79742 0.5264,-1.99866 0.71951,-2.80267c0.19632,-0.81732 0.37482,-1.66772 0.44415,-2.11166c0.22089,-1.41458 0.2399,-1.9281 0.30902,-2.991c0.03546,-0.5452 0.09518,-1.64548 0.15799,-2.18933c0.18213,-1.57733 0.30417,-2.07114 0.60001,-2.991c0.28363,-0.88196 0.66083,-1.698 1.1235,-2.91434c0.15134,-0.39789 0.4212,-1.2012 0.64581,-2.02084c0.2283,-0.83316 0.52054,-2.14587 0.72217,-3.06317c0.10303,-0.46869 0.31454,-1.41721 0.43466,-1.89066c0.23947,-0.94388 0.68018,-2.30588 1.01218,-3.17267c0.16403,-0.42828 0.52872,-1.26593 0.7825,-2.13666c0.38528,-1.32196 0.41461,-1.80115 0.508,-2.76266c0.048,-0.49432 0.10449,-1.51538 0.14401,-2.04001c0.12323,-1.63593 0.19394,-2.19852 0.35333,-3.33865c0.08044,-0.57532 0.1687,-1.15036 0.36533,-2.29068c0.19284,-1.11835 0.39847,-2.19711 0.49417,-2.72232c0.18582,-1.01962 0.2858,-1.51245 0.41916,-2.47501c0.18872,-1.36215 0.23114,-2.23453 0.30618,-3.08667c0.03748,-0.4256 0.09967,-1.29492 0.42181,-2.62134c0.22836,-0.94034 0.41107,-1.40305 0.70667,-2.35333c0.14688,-0.4722 0.54736,-1.85367 0.68002,-2.74133c0.12775,-0.85483 0.15738,-1.7092 0.168,-2.56799c0.01093,-0.8826 0.00266,-1.80267 0.00266,-2.76266c0,-0.495 0,-1.51501 0,-2.04001c0,-1.63467 0,-2.19733 0,-3.33865c0,-0.57468 0,-1.14935 0,-2.29068c0,-1.11734 0,-2.19867 0,-2.72684c0,-1.03632 0,-1.54648 0,-2.55582c0,-1.50119 0,-2 0,-2.99066c0,-0.97467 0,-1.45352 0,-2.84402c0,-0.88132 0,-1.73065 0,-2.556c0,-0.80933 0,-2.01065 0,-2.81067c0,-0.79999 0,-1.59998 0,-2.79999c0,-0.80267 0,-1.62134 0,-2.04166c0,-0.87268 0,-2.29169 0,-2.80103c0,-1.06265 0,-1.60797 0,-2.70667c0,-0.54532 0,-2.11731 0,-2.60767c0,-0.92865 0,-1.80133 0,-2.63397c0,-1.20901 0,-2.00769 0,-2.79834c0,-0.77469 0,-1.52533 0,-2.936c0,-0.724 0,-1.552 0,-2.0275c0,-1.78052 0,-2.51801 0,-3.3205c0,-0.85251 0,-1.74002 0,-2.64752c0,-0.91248 0,-1.815 0,-2.6925c0,-1.62 0,-2.336 0,-2.98798c0,-0.59399 0,-1.13602 0,-2.08801c0,-0.81601 0,-1.88934 0,-2.88531c0,-0.6507 0,-1.30934 0,-2.70801c0,-0.73201 0,-1.45601 0,-2.14801c0,-1.20132 0,-1.96933 0,-2.73734c0,-1.20267 0,-1.90399 0,-2.65332c0,-0.78134 0,-1.97867 0,-2.77867c0,-0.8 0,-1.60001 0,-2.8c0,-0.8 0,-1.60001 0,-2.39999c0,-0.8 0,-1.99983 0,-2.7955c0,-0.78368 -0.00336,-1.91917 0.00015,-2.98317c0.00223,-0.66869 0.01755,-1.6483 0.08517,-2.30533c0.10712,-1.04073 0.27124,-1.76791 0.48935,-2.89067c0.14392,-0.74083 0.31915,-1.80235 0.36816,-2.46367c0.06769,-0.91367 0.05716,-1.995 0.05716,-2.709c0,-0.90533 0,-1.87416 0,-2.68866c0,-0.86852 0,-2.06384 0,-2.6595c0,-0.86852 0,-1.93784 0,-2.86852c0,-0.63148 0,-1.63466 0,-2.57883c0,-0.89999 0.02344,-1.8588 0,-2.82384c-0.01602,-0.65924 -0.4624,-1.72479 -1.0625,-2.07166c-0.6626,-0.38301 -1.7894,-0.69067 -2.58817,-0.75101c-0.88971,-0.0672 -1.61066,-0.01067 -2.40115,-0.01067c-1.26419,0 -1.94818,0 -3.11484,0c-0.78152,0 -1.57202,0 -2.5,0c-0.83334,0 -1.87634,0 -2.60535,0c-0.83701,0 -1.72818,-0.01398 -2.6235,0.0045c-0.8689,0.01793 -1.9566,0.10426 -2.65182,0.36166c-0.70169,0.2598 -1.62775,0.95738 -2.138,1.4045c-0.56009,0.49078 -1.12753,1.04846 -1.716,1.632c-0.90167,0.89412 -1.50589,1.48727 -2.05701,2.11816c-0.5437,0.62239 -1.23096,1.63472 -1.57367,2.36183c-0.34015,0.72168 -0.57596,1.47722 -0.93597,2.14801c-0.51556,0.96065 -1.28455,1.70604 -1.78134,2.18399c-0.4845,0.46611 -1.30063,1.46033 -1.58932,2.02133c-0.43939,0.85379 -0.81796,1.76949 -1.30951,2.6595c-0.3244,0.58737 -0.83118,1.40013 -1.10934,2.18317c-0.32074,0.90295 -0.43713,1.6429 -1.09583,2.608c-0.39917,0.58484 -0.93732,1.13843 -1.38,1.8c-0.67203,1.00432 -0.96472,1.76917 -1.26666,2.53416c-0.30878,0.78232 -0.82306,1.98474 -1.043,2.379c-0.45056,0.80762 -0.99283,1.58366 -1.27832,1.96417c-0.56982,0.75946 -1.47787,1.81523 -2.07419,2.48334c-0.58304,0.65321 -0.88898,0.9614 -1.41916,1.63666c-0.7955,1.01321 -1.22812,1.76701 -1.68533,2.49518c-0.44821,0.71381 -1.14182,1.71146 -1.68533,2.25017c-0.52762,0.52296 -1.11993,0.95705 -1.716,1.368c-1.18677,0.81818 -1.79492,1.19289 -2.36267,1.60266c-1.08289,0.78157 -1.53656,1.21449 -2.21515,1.75833c-0.60727,0.48668 -1.63776,0.88025 -2.42084,1.147c-0.82205,0.28003 -1.39325,0.77985 -2.05716,1.24651c-0.94058,0.66115 -1.7453,1.03722 -2.53302,1.2865c-1.02673,0.32491 -1.77087,0.37798 -2.66251,0.71432c-0.70599,0.26633 -1.80084,0.51299 -2.44766,1.09001c-0.53049,0.47324 -1.21481,1.29182 -1.914,1.44301c-0.79398,0.17169 -1.98566,0.11432 -2.88116,0.11432c-0.58365,0 -1.41916,0 -2.67432,0c-0.53433,0 -1.54083,0 -2.43018,0c-1.104,0 -1.716,0 -2.35199,0c-0.64801,0 -1.93201,0 -2.54401,0c-1.57483,0 -2.35651,0.00168 -3.20401,0c-1.01465,-0.00201 -1.7587,-0.22171 -2.2045,-1.0715c-0.38538,-0.73465 -0.54559,-1.35083 -1.1795,-2.52716c-0.32364,-0.60056 -0.70895,-1.15427 -1.34933,-2.23466c-0.42166,-0.71143 -0.79095,-1.41525 -1.16666,-2.5c-0.21933,-0.63322 -0.40753,-1.35625 -0.564,-2.16c-0.17059,-0.87636 -0.28284,-1.83902 -0.35068,-2.87466c-0.03516,-0.53693 -0.0672,-1.63196 -0.07465,-2.18134c-0.01468,-1.08261 -0.01068,-2.11734 -0.01068,-3.08133c0,-0.908 0,-1.78401 0,-2.2175c0,-1.31851 0,-2.23584 0,-3.17717c0,-0.47467 0,-1.422 0,-2.808c0,-0.88268 0,-1.74133 0,-2.16667c0,-0.85266 0,-2.16667 0,-3.08667c0,-0.47499 0,-1.455 0,-2.47499c0,-0.52501 0,-2.15967 0,-2.72234c0,-0.56866 0,-1.716 0,-2.29066c0,-1.14134 -0.00253,-2.25867 0.00134,-3.34001c0.00189,-0.52817 0.01462,-1.56467 0.03467,-2.07466c0.03967,-1.00977 0.11496,-2.01265 0.24933,-3.01067c0.13495,-1.00224 0.23068,-1.5009 0.41916,-2.5c0.09442,-0.50046 0.39432,-2.00044 0.49683,-2.50133c0.20667,-1.00989 0.31235,-1.52116 0.55585,-2.55583c0.12451,-0.52904 0.56223,-2.16473 0.72684,-2.72684c0.16672,-0.56924 0.51663,-1.71581 0.69064,-2.29066c0.17331,-0.57248 0.66302,-2.25754 0.80383,-2.80367c0.27277,-1.05788 0.38898,-1.57423 0.61084,-2.57501c0.21265,-0.95926 0.41196,-1.8797 0.60934,-2.76266c0.19189,-0.85838 0.38254,-1.7065 0.51599,-2.56799c0.13632,-0.88013 0.19846,-1.80313 0.28134,-2.76266c0.04279,-0.49527 0.15009,-1.51892 0.25867,-2.04001c0.34381,-1.64989 0.59167,-2.20128 0.80783,-2.77049c0.44403,-1.1692 0.7002,-1.75244 0.93668,-2.34734c0.23685,-0.59578 0.8656,-2.39296 1.02884,-2.99283c0.16098,-0.5916 0.41534,-1.75995 0.51465,-2.33067c0.09686,-0.5567 0.29663,-2.13817 0.37466,-3.104c0.03735,-0.46243 0.08997,-1.36943 0.1925,-2.27333c0.05258,-0.4635 0.32727,-1.93869 0.45816,-2.46266c0.27121,-1.0856 0.439,-1.63014 0.72668,-2.72667c0.14075,-0.53645 0.47241,-2.0609 0.53467,-2.53467c0.1178,-0.89636 0.15775,-1.74918 0.168,-2.56799c0.01505,-1.20274 0.00266,-2.00717 0.00266,-2.8235c0,-0.83633 0,-2.14584 0,-3.0645c0,-0.47183 0,-1.4355 0,-2.41917c0,-0.49683 0,-1.9955 0,-2.4955c0,-1 0,-2 0,-2.5c0,-1.5 0,-2.00017 0,-3.0045c0,-0.50616 0,-1.53149 0,-2.58083c0,-1.08134 0,-1.63583 0,-2.76283c0,-0.56651 0,-1.69051 0,-2.242c0,-1.57651 0,-2.067 0,-3c0,-0.889 0,-1.758 0,-3.0765c0,-0.45467 0,-1.386 0,-2.33334c0,-0.47467 0,-1.416 0,-2.7785c0,-0.86433 0,-1.70066 0,-2.517c0,-1.2045 0,-2.00583 0,-2.81516c0,-0.82533 0.00189,-1.24651 0,-2.556c-0.00134,-0.92133 -0.01413,-1.89101 -0.04166,-2.39584c-0.05762,-1.05727 -0.10071,-1.61382 -0.29169,-2.77084c-0.20447,-1.23869 -0.37009,-1.86793 -0.51733,-2.50666c-0.14743,-0.6396 -0.45041,-1.8961 -0.58133,-2.50667c-0.24677,-1.1508 -0.41,-2.19746 -0.50665,-3.15601c-0.0459,-0.45515 -0.08374,-1.34355 -0.228,-2.66399c-0.10074,-0.92214 -0.18536,-1.39588 -0.35419,-2.375c-0.08716,-0.50547 -0.28369,-1.54442 -0.47916,-2.625c-0.202,-1.11674 -0.29883,-1.68547 -0.38934,-2.25867c-0.18134,-1.1483 -0.2782,-1.71939 -0.444,-3.408c-0.0535,-0.54477 -0.11639,-1.61864 -0.15198,-2.152c-0.07178,-1.07629 -0.11136,-1.62605 -0.18402,-2.184c-0.23169,-1.77927 -0.39566,-2.39964 -0.5405,-3.036c-0.14709,-0.64635 -0.47501,-1.94413 -0.642,-2.58934c-0.16501,-0.63746 -0.48788,-1.87047 -0.76282,-3.03466c-0.13123,-0.55563 -0.36606,-1.62868 -0.47467,-2.14934c-0.21237,-1.01804 -0.40826,-2.02182 -0.612,-3.02133c-0.10196,-0.50024 -0.315,-1.50106 -0.43466,-2c-0.24033,-1.00221 -0.5224,-2.00266 -0.84802,-3.00134c-0.16452,-0.50454 -0.51917,-1.51843 -0.69064,-2.03466c-0.34781,-1.04721 -0.6745,-2.12682 -0.93869,-3.24667c-0.133,-0.56368 -0.25305,-1.12976 -0.44,-2.256c-0.09137,-0.55048 -0.28467,-2.12759 -0.32532,-2.61867c-0.07755,-0.93664 -0.11703,-1.84293 -0.17401,-2.748c-0.02914,-0.46281 -0.16278,-1.93814 -0.23398,-2.46267c-0.14719,-1.08449 -0.23849,-1.63545 -0.47501,-2.72667c-0.11685,-0.53916 -0.55493,-2.06425 -0.72101,-2.53733c-0.32312,-0.92049 -0.67059,-1.81406 -0.8075,-2.27333c-0.42188,-1.41526 -0.5463,-2.46206 -0.60001,-3c-0.05438,-0.54478 -0.12073,-1.64425 -0.15799,-2.18933c-0.10754,-1.57279 -0.23651,-2.55785 -0.31802,-3.0675c-0.08759,-0.54775 -0.31775,-1.82828 -0.45267,-2.60067c-0.15457,-0.88492 -0.51727,-3.07007 -0.72366,-4.39967c-0.2272,-1.4637 -0.46042,-3.02802 -0.69748,-4.6575c-0.24133,-1.65885 -0.47571,-3.31301 -0.69751,-4.9275c-0.2114,-1.53886 -0.56665,-4.252 -0.698,-5.36533c-0.11203,-0.94942 -0.19745,-1.75326 -0.2565,-2.4285c-0.04919,-0.56252 -0.07962,-1.03051 -0.09451,-1.4205c-0.01254,-0.32873 -0.01349,-0.8715 -0.01349,-1.11683c0,-0.23733 0,-0.46867 0,-0.696c0,-0.22533 0,-0.45067 0,-0.678c0,-0.23133 0.00162,-0.71401 -0.00015,-0.9685c-0.00549,-0.79355 -0.05701,-1.569 -0.28384,-2.61083l-0.36334,-0.77333" id="svg_1" stroke-width="2" stroke="#000" fill="none"/>
  <path t="5823,5979,5979,5979,5979,5995,5996,5996,5996,6016,6016,6016,6016,6016,6016,6030,6030,6030,6030,6030,6030,6047,6047,6047,6047,6047,6047,6047,6062,6062,6062,6062,6063,6063,6079,6079,6079,6079,6079,6080,6080,6080,6094,6095,6095,6095,6095,6095,6113,6113,6113,6113,6113,6114,6114,6128,6128,6128,6128,6128,6128,6128,6145,6146,6146,6146,6146,6146,6146,6147,6163,6164,6164,6164,6164,6164,6178,6178,6179,6179,6179,6179,6179,6179,6197,6197,6197,6197,6198,6198,6198,6214,6214,6214,6214,6214,6214,6214,6236,6236,6236,6236,6236,6236,6236,6236,6253,6253,6253,6253,6253,6253,6253,6253,6269,6269,6269,6269,6269,6270,6270,6284,6285,6285,6285,6285,6285,6285,6285,6299,6299,6299,6299,6299,6299,6299,6299,6314,6314,6314,6314,6314,6314,6314,6315,6328,6329,6329,6329,6329,6329,6329,6345,6346,6346,6347,6347,6347,6347,6348,6362,6362,6362,6362,6363,6363,6363,6363,6363,6380,6380,6380,6380,6380,6380,6381,6396,6396,6396,6396,6397,6397,6397,6414,6414,6414,6414,6415,6415,6431,6432,6432,6432,6432,6432,6432,6449,6449,6449,6450,6450,6450,6466,6466,6466,6466,6466,6466,6509,6509,6509,6509,6510,6512,6512,6512,6512,6512,6512,6513,6513,6527,6528,6528,6528,6528,6528,6542,6542,6543,6543,6543,6543,6557,6557,6557,6557,6557,6558,6558,6572,6572,6573,6573,6573,6573,6573,6588,6588,6588,6588,6588,6588,6589,6603,6604,6604,6604,6604,6604,6625,6625,6625,6625,6625,6625,6639,6640,6640,6640,6640,6655,6655,6655,6655,6655,6670,6670,6670,6670,6670,6685,6685,6685,6685,6700,6701,6701,6701,6701,6716,6716,6716,6731,6731,6732,6778,6778,6778,6779,6781,6781,6782,6783,6783" d="m237,262c-0.91467,-3.88535 -0.97209,-4.63577 -0.98933,-5.41068c-0.01759,-0.79053 -0.01067,-1.98949 -0.01067,-2.79382c0,-0.81633 0,-1.65266 0,-2.96217c0,-0.45483 0,-1.39049 0,-2.35416c0,-0.48984 0,-1.4805 0,-2.97951c0,-0.50233 0,-1.521 0,-2.04134c0,-1.07266 0.00125,-1.629 0,-2.79166c-0.00134,-1.23466 -0.00507,-1.8721 -0.02133,-2.51733c-0.01637,-0.64944 -0.07936,-1.94536 -0.14934,-2.58134c-0.13618,-1.23787 -0.39259,-2.40117 -0.53467,-2.96266c-0.14066,-0.55588 -0.4563,-1.65291 -0.58932,-2.21066c-0.4101,-1.71936 -0.47078,-2.33643 -0.53467,-2.96266c-0.06493,-0.63652 -0.13297,-1.9319 -0.14934,-2.58134c-0.01627,-0.64523 -0.01999,-1.28267 -0.02133,-3.108c-0.00043,-0.57466 0,-1.13733 0,-2.24266c0,-0.55066 0.00017,-1.668 0,-2.83333c-0.00009,-0.60951 -0.00256,-1.87653 -0.01067,-2.528c-0.00821,-0.65953 -0.00888,-1.32472 -0.07466,-2.65601c-0.06508,-1.31689 -0.13271,-1.96167 -0.19867,-2.59866c-0.0654,-0.63168 -0.2171,-1.88388 -0.29066,-2.50934c-0.07378,-0.62721 -0.26334,-2.54103 -0.30383,-3.19583c-0.04089,-0.66122 -0.06856,-1.32687 -0.08551,-1.9935c-0.03368,-1.32382 -0.03273,-1.97549 -0.03467,-2.616c-0.00372,-1.23601 -0.00133,-2.40134 -0.00133,-2.964c0,-1.10533 0,-1.65599 0,-2.77333c0,-1.16533 0,-1.77499 0,-2.40266c0,-1.30133 0,-1.97101 0,-2.65067c0,-0.68767 0,-1.38133 0,-2.77867c0,-1.39867 0,-2.0955 0,-2.78934c0,-0.68983 0,-1.37466 0,-2.0535c0,-1.99049 0,-2.63583 0,-3.27316c0,-0.63133 0,-1.884 0,-2.50934c0,-0.62733 0,-2.54134 0,-3.19617c0,-0.66383 0,-1.33566 0,-2.0145c0,-0.68483 0,-2.0685 0,-2.76534c0,-1.39867 0,-2.0985 0,-2.79733c0,-0.69684 0,-2.08051 0,-2.76534c0,-0.67883 0,-1.35066 0,-2.66933c0,-1.28267 0,-1.914 0,-2.54134c0,-0.62534 0,-1.87801 0,-2.50934c0,-1.28267 0,-1.93767 0,-3.27766c0,-0.685 0,-1.38 0,-2.08501c0,-0.715 0,-1.43999 0,-2.92c0,-0.7545 0,-1.51599 0,-2.28149c0,-0.76649 0,-1.53101 0,-3.04201c0,-0.74049 0,-2.1765 0,-2.86699c0,-0.67351 0,-1.33301 0,-2.62201c0,-0.6355 0,-1.269 0,-1.90349c0,-1.93884 0,-2.60268 0,-3.27451c0,-0.67883 0,-1.36367 0,-2.0535c0,-1.39066 0,-2.78933 0,-3.48949c0,-0.70117 0,-1.40434 0,-2.1105c0,-0.71017 0,-2.1465 0,-2.87466c0,-1.48133 0,-2.23583 0,-2.99733c0,-0.7655 0,-1.53201 0,-2.2965c0,-0.75951 0,-1.511 0,-2.2515c0,-1.436 0,-2.79867 0,-3.455c0,-0.64233 0,-1.27267 0,-2.50533c0,-0.60633 0,-1.809 0,-3.009c0,-0.60001 0,-1.2 0,-2.4c0,-0.6 0,-1.2 0,-3c0,-0.6 0,-1.2 0,-2.4c0,-0.6 0,-1.2 0,-3c0,-0.59983 0,-1.19867 0,-2.38934c0,-0.58983 0,-1.17467 0,-2.32533c0,-1.11867 0,-2.2 0,-2.72816c0,-1.03633 0,-1.5465 0,-2.55583c0,-1.00134 0,-2.00134 0,-3.00134c0,-0.5 0,-1.5 0,-2c0,-1.50034 0,-2.509 0,-3.02133c0,-1.05067 0,-1.593 0,-3.312c0,-0.60933 0,-1.23466 0,-1.87199c0,-1.29467 0,-1.944 0,-2.58934c0,-0.63733 0,-2.4625 0,-3.036c0,-1.108 0,-1.6485 0,-2.7175c0,-0.5345 0,-2.17333 0,-2.73716c0,-0.57183 0,-1.7355 0,-2.32534c0,-0.59383 0,-2.38933 0,-2.98933c0,-0.6 0,-1.8 0,-2.4c0,-0.6 0,-1.8 0,-3c0,-0.6 0,-1.8 0,-2.4c0,-0.6 0,-1.8 0,-2.4c0,-1.2 0,-2.4 0,-3c0,-0.6 0,-1.8 0,-2.4c0,-0.6 0,-2.39983 0,-2.99866c0,-0.59684 0,-1.7805 0,-2.36533c0,-1.15067 0,-2.26933 0,-2.8145c0,-1.06433 0,-2.10067 0,-2.61083c0,-1.00933 0.00404,-2.01068 -0.00133,-3.00933c-0.00533,-0.9907 0.0002,-1.48144 -0.05583,-2.44417c-0.08105,-1.39245 -0.15398,-1.83728 -0.2955,-2.7c-0.13747,-0.83801 -0.32597,-1.64825 -0.48067,-2.85717c-0.10207,-0.79762 -0.13867,-1.59979 -0.15601,-2.4c-0.01733,-0.79987 -0.01067,-2 -0.01067,-2.8c0,-0.8 0,-1.6 0,-2.8c0,-0.79867 0,-1.58933 0,-2.364c0,-0.75067 0,-2.14933 0,-2.78933c0,-0.885 0,-1.9255 0,-2.632c0,-0.984 0,-1.8575 0,-2.876c0,-0.724 0,-1.456 0,-2.51683c0,-0.9645 0,-1.803 0,-2.85383l0,-0.77333" id="svg_2" stroke-width="2" stroke="#000" fill="none"/>
  <path t="7507,7612,7612,7613,7629,7629,7629,7646,7646,7646,7646,7662,7663,7663,7663,7680,7680,7680,7680,7680,7694,7694,7694,7713,7714,7714,7728,7728,7728,7728,7732,7747,7747,7747,7747,7747,7774,7774,7774,7774,7774,7801,7801,7801,7801,7801,7801,7803,7803,7803,7803,7828,7828,7828,7828,7828,7830,7830,7830,7830,7853,7853,7853,7853,7874,7875,7875,7897,7897,7897,7897,7898,7899,7899,7899,7899,7920,7921,7921,7921,7921,7943,7943,7943,7943,7965,7965,7965,7965,7966,7988,7988,7988,8009,8010,8010,8032,8033,8033,8034,8034,8035,8035,8035,8058,8058,8058,8058,8080,8080,8080,8080,8081,8081,8081,8104,8104,8104,8126,8126,8126,8148,8148,8149,8150,8150,8150,8150,8172,8172,8172,8172,8195,8195,8195,8195,8197,8197,8197,8197,8220,8220,8221,8221,8245,8245,8245,8245,8247,8247,8247,8248,8273,8296,8296,8296,8298,8298" d="m282,339c-4.51334,-0.91467 -5.15292,-0.97784 -6.03833,-0.99551c-1.04031,-0.02075 -1.98251,-0.00449 -2.73102,-0.00449c-1.20132,0 -1.90265,0 -2.65198,0c-0.78134,0 -1.97867,0 -2.77869,0c-0.79999,0 -1.59998,0 -2.79999,0c-0.79868,0 -1.58932,0 -2.36401,0c-0.75064,0 -2.15048,-0.02148 -2.78931,0.02133c-0.88788,0.05951 -1.96152,0.37048 -2.62134,0.87201c-0.47974,0.36465 -1.39549,1.43716 -1.64651,1.74966c-0.53448,0.66537 -1.08553,1.38101 -1.569,2.16599c-0.71831,1.16626 -0.88618,1.58328 -1.2,2.39102c-0.30803,0.79285 -0.5332,1.60892 -0.9765,2.79999c-0.30063,0.80774 -0.66049,1.60989 -0.83333,2.02084c-0.35107,0.83478 -0.84164,2.14325 -0.97833,2.60049c-0.27695,0.92645 -0.48692,1.87732 -0.575,2.35333c-0.17371,0.93887 -0.33853,2.30295 -0.38951,3.16815c-0.04924,0.83566 -0.0549,1.65268 -0.05716,2.85718c-0.0015,0.79868 0,1.58932 0,2.36401c0,0.75064 0,1.81467 0,2.81064c0,0.6507 -0.00815,1.30939 0.00133,2.70935c0.00502,0.74136 0.0119,1.49252 0.084,2.23199c0.10394,1.06604 0.31532,2.07013 0.63335,2.63733c0.65192,1.16272 1.31538,1.5939 1.98932,1.98935c0.70311,0.41257 1.47987,0.75092 2.692,1.01431c0.79181,0.17206 1.59958,0.21469 2.39999,0.23401c1.19971,0.02899 2,0.009 2.80002,0.009c0.79999,0 1.60001,0 2.79999,0c0.80002,0 1.60001,0 2.39999,0c1.20001,0 1.99869,0 2.78934,0c0.77469,0 1.52533,0 2.58902,0c0.97498,0 1.57501,0.00613 2.655,0c0.94135,-0.00534 1.63184,0.00217 2.84799,-0.28534c0.52936,-0.12515 1.6832,-0.32101 2.22134,-1.14667c0.3544,-0.54376 0.36951,-1.62643 0.54398,-2.26532c0.29105,-1.06586 0.7037,-2.14383 1.03735,-2.81735c0.32562,-0.65735 0.72775,-1.25519 1.34933,-2.48532c0.29807,-0.58987 0.64804,-1.47232 0.80499,-2.04285c0.28204,-1.02521 0.3501,-1.95694 0.36032,-2.64114c0.01495,-1.00122 0.00134,-1.83685 0.00134,-2.71735c0,-1.19733 0,-1.78799 0,-2.64151c0,-1.03598 0,-1.978 0,-2.7265c0,-1.20132 0,-1.90265 0,-2.65198c0,-0.78134 0.00598,-1.97858 -0.00449,-2.77417c-0.01031,-0.78375 -0.00098,-1.55377 -0.16217,-2.63785c-0.15134,-1.01782 -0.32993,-1.6781 -0.80533,-2.56534c-0.50385,-0.94037 -1.02682,-1.51126 -1.56967,-2.08047c-0.55194,-0.57877 -1.45395,-1.35968 -2.05701,-1.83685c-0.58646,-0.46402 -1.21222,-0.85861 -2.23468,-1.85065c-0.50711,-0.49203 -0.92017,-1.06699 -1.392,-1.57202c-0.90237,-0.96588 -1.43338,-1.33975 -2.25381,-1.69882c-0.73294,-0.32077 -1.87833,-0.49927 -2.85419,-0.72916c-0.67868,-0.15988 -1.41599,-0.40802 -2.52399,-0.71185l-0.79333,-0.11081" id="svg_3" stroke-width="2" stroke="#000" fill="none"/>
  <path t="8616,8713,8713,8713,8713,8713,8713,8728,8728,8728,8728,8728,8728,8728,8728,8744,8744,8744,8744,8744,8744,8744,8744,8744,8772,8772,8772,8772,8772,8772,8772,8772,8772,8831,8831,8831,8831,8831,8831,8831,8831,8831,8833,8833,8833,8833,8833,8833,8833,8833,8833,8857,8857,8857,8857,8857,8857,8857,8857,8857,8882,8882,8882,8882,8882,8882,8882,8882,8883,8884,8884,8884,8884,8884,8884,8884,8884,8884,8915,8915,8915,8915,8915,8915,8916,8916,8916,8940,8940,8940,8940,8940,8940,8941,8941,8941,8966,8967,8967,8967,8967,8967,8967,8967,8967,8996,8996,8996,8996,8996,8996,8996,8996,8997,8999,8999,8999,8999,8999,8999,8999,8999,8999,9001,9001,9001,9001,9001,9001,9001,9002,9002,9003,9003,9003,9003,9003,9003,9004,9004,9004,9033,9033,9033,9034,9034,9034,9034,9034,9034,9036,9036,9036,9036,9036,9036,9036,9036,9037,9066,9067,9067,9067,9067,9067,9067,9067,9068,9069,9069,9070,9070,9070,9070,9070,9070,9070,9100,9100,9101,9101,9101,9101,9101,9101,9101,9103,9103,9103,9103,9103,9103,9103,9104,9104,9132,9132,9133,9133,9133,9133,9133,9133,9133,9135,9135,9135,9135,9135,9136,9136,9136,9136,9164,9165,9165,9165,9165,9165,9165,9165,9166,9167,9167,9168,9168,9168,9168,9168,9168,9168,9197,9197,9198,9198,9198,9198,9198,9198,9198,9200,9200,9200,9200,9201,9201,9201,9201,9201,9232,9232,9232,9232,9233,9233,9233,9233,9233,9235,9235,9235,9236,9236,9236,9236,9236,9236,9268,9268,9268,9269,9269,9269,9269,9269,9269,9271,9271,9272,9272,9272,9272,9272,9272,9273" d="m260,371c0.87851,-6.379 0.92435,-6.91827 0.96399,-7.996c0.02005,-0.5455 0.03278,-1.67099 0.03467,-2.25867c0.004,-1.24533 0.00134,-2.60266 0.00134,-3.32132c0,-0.74268 0,-1.50735 0,-2.29202c0,-0.80264 0,-1.62131 0,-3.29865c0,-0.85486 0,-1.71869 0,-2.59052c0,-0.87881 0,-1.76367 0,-2.6535c0,-0.89383 0,-1.79065 0,-3.58932c0,-0.90051 0,-1.80399 0,-2.7135c0,-0.91849 0,-1.849 0,-2.79449c0,-0.9635 0.00046,-1.948 0,-3.992c-0.00024,-1.06482 0.00031,-2.15869 -0.01349,-3.28049c-0.01413,-1.1489 -0.04065,-2.32401 -0.09451,-3.5235c-0.05496,-1.22427 -0.10999,-2.47458 -0.392,-5.02936c-0.14526,-1.31613 -0.35266,-2.6716 -0.58051,-4.09348c-0.24243,-1.51288 -0.52496,-3.13547 -0.82349,-4.8945c-0.32529,-1.9166 -0.69241,-4.01132 -1.42935,-8.84534c-0.42145,-2.7645 -0.83725,-5.72995 -1.263,-8.841c-0.4384,-3.20361 -0.86598,-6.45016 -1.28099,-9.68701c-0.40692,-3.17383 -0.79652,-6.23315 -1.45599,-11.80533c-0.28627,-2.41885 -0.52898,-4.59576 -0.74251,-6.55649c-0.1929,-1.7713 -0.36092,-3.3811 -0.5175,-4.8555c-0.14514,-1.36658 -0.27322,-2.65363 -0.57333,-5.08801c-0.14804,-1.20084 -0.31537,-2.40027 -0.48599,-3.60001c-0.17072,-1.20027 -0.34831,-2.39986 -0.522,-3.59999c-0.17365,-1.19986 -0.35432,-2.39833 -0.65866,-4.8c-0.15199,-1.19952 -0.28484,-2.40257 -0.4185,-3.60899c-0.13432,-1.21225 -0.26576,-2.43306 -0.4095,-3.66301c-0.14523,-1.24271 -0.28572,-2.50192 -0.672,-5.06133c-0.19794,-1.31145 -0.43204,-2.63782 -0.67201,-3.981c-0.24266,-1.35815 -0.49728,-2.72687 -0.74399,-4.10699c-0.24797,-1.38721 -0.50929,-2.77733 -0.91734,-5.57867c-0.20363,-1.39795 -0.36943,-2.79791 -0.519,-4.1955c-0.14909,-1.39314 -0.27638,-2.78336 -0.39299,-4.1685c-0.11604,-1.37852 -0.21881,-2.75066 -0.42134,-5.46933c-0.10023,-1.3455 -0.19981,-2.68413 -0.3045,-4.01851c-0.10463,-1.33362 -0.2137,-2.66922 -0.3315,-4.00949c-0.11853,-1.34874 -0.2386,-2.70912 -0.53067,-5.472c-0.14903,-1.40976 -0.31578,-2.83337 -0.48149,-4.2675c-0.16629,-1.43919 -0.33444,-2.87796 -0.49051,-4.3125c-0.15489,-1.4238 -0.31676,-2.83133 -0.528,-5.58667c-0.10234,-1.33479 -0.16936,-2.64507 -0.21899,-3.933c-0.04893,-1.26942 -0.07664,-2.52527 -0.093,-3.771c-0.01628,-1.23962 -0.01984,-2.47734 -0.02133,-4.96268c-0.00076,-1.25516 0.00014,-2.52133 -0.0045,-3.7995c-0.00468,-1.29117 -0.01346,-2.59636 -0.03149,-3.91649c-0.01826,-1.33621 -0.03647,-2.68976 -0.13068,-5.45067c-0.0481,-1.40958 -0.11552,-2.83476 -0.18599,-4.272c-0.07086,-1.44542 -0.14822,-2.89462 -0.222,-4.34401c-0.07356,-1.44528 -0.15395,-2.88217 -0.25867,-5.71733c-0.05135,-1.39012 -0.08473,-2.7626 -0.10951,-4.11899c-0.02452,-1.34229 -0.03831,-2.67265 -0.04649,-3.99301c-0.00813,-1.31232 -0.00983,-2.61866 -0.01067,-5.22133c-0.00041,-1.30016 0.00017,-2.60134 -0.0045,-3.9045c-0.00467,-1.30618 -0.01338,-2.61637 -0.03149,-3.9315c-0.0182,-1.32121 -0.0359,-2.64978 -0.13068,-5.33067c-0.04788,-1.35443 -0.11519,-2.71344 -0.18599,-4.0725c-0.07056,-1.35428 -0.14778,-2.69831 -0.222,-4.0275c-0.0731,-1.30914 -0.15234,-2.59283 -0.25867,-5.06667c-0.05075,-1.18079 -0.08415,-2.32799 -0.1185,-3.447c-0.03366,-1.09699 -0.06493,-2.17816 -0.10951,-3.249c-0.04443,-1.06718 -0.08321,-2.13802 -0.27199,-4.304c-0.09682,-1.11085 -0.23151,-2.23789 -0.37651,-3.381c-0.14693,-1.15826 -0.31056,-2.32739 -0.47549,-3.507c-0.16608,-1.18772 -0.34477,-2.37968 -0.64799,-4.77866c-0.15155,-1.19904 -0.28465,-2.39832 -0.4095,-3.5955c-0.12447,-1.1935 -0.23807,-2.38351 -0.34651,-3.5685c-0.10786,-1.17868 -0.20894,-2.35069 -0.41066,-4.66933c-0.09966,-1.14535 -0.2,-2.28255 -0.2955,-3.414c-0.09515,-1.12722 -0.18672,-2.25244 -0.26849,-3.378c-0.08189,-1.12712 -0.16499,-2.25797 -0.26933,-4.54134c-0.05275,-1.15419 -0.0845,-2.31598 -0.1185,-3.4815c-0.03401,-1.16648 -0.06485,-2.33115 -0.10951,-3.4905c-0.04437,-1.15166 -0.07813,-2.29439 -0.27199,-4.528c-0.09477,-1.09186 -0.23,-2.16461 -0.37201,-3.2235c-0.1407,-1.04913 -0.29649,-2.08874 -0.444,-3.1245c-0.14716,-1.03324 -0.31032,-2.06507 -0.51733,-4.152c-0.10448,-1.05321 -0.16951,-2.11571 -0.2235,-3.1815c-0.054,-1.06623 -0.08987,-2.13097 -0.1245,-3.1905c-0.03436,-1.05147 -0.05388,-2.09263 -0.15201,-4.128c-0.04778,-0.99102 -0.11502,-1.9655 -0.18599,-2.928c-0.0704,-0.95484 -0.14848,-1.90524 -0.222,-2.856c-0.07382,-0.95458 -0.15599,-1.91651 -0.25867,-3.88267c-0.05269,-1.0088 -0.0849,-2.03324 -0.10951,-3.0675c-0.02473,-1.03909 -0.0383,-2.07832 -0.04649,-3.1125c-0.00812,-1.02415 -0.00999,-2.03333 -0.01067,-3.98667c-0.00032,-0.93517 0,-1.84133 0,-2.7195c0,-0.85117 0,-1.67633 0,-2.4765c0,-0.77617 0,-1.52933 0,-2.97067c0,-0.69 0,-1.36 0,-2.01c0,-0.63 0,-1.24 0,-1.83c0,-0.57 0,-1.12 0,-2.16c0,-0.49017 0,-0.96133 0,-1.4145c0,-0.43617 0,-0.85633 0,-1.2615l0,-0.39117l0,-0.37817" id="svg_4" stroke-width="2" stroke="#000" fill="none"/>
  <path t="9543,9678,9678,9679,9679,9679,9679,9694,9694,9694,9694,9694,9694,9695,9695,9714,9714,9714,9714,9714,9714,9714,9714,9714,9728,9728,9728,9728,9728,9728,9729,9729,9729,9748,9748,9749,9749,9749,9749,9749,9749,9749,9764,9764,9764,9764,9764,9765,9765,9765,9765,9781,9781,9781,9781,9781,9781,9781,9781,9781,9798,9798,9798,9798,9798,9798,9798,9798,9798,9815,9815,9815,9815,9815,9815,9815,9815,9816,9832,9832,9832,9832,9833,9833,9833,9833,9833,9850,9851,9851,9851,9851,9851,9851,9851,9851,9867,9867,9867,9867,9867,9868,9868,9868,9868,9882,9883,9883,9883,9883,9883,9883,9883,9883,9898,9898,9898,9898,9898,9899,9899,9899,9899,9914,9914,9914,9914,9914,9914,9914,9914,9915,9929,9929,9930,9930,9930,9930,9930,9930,9930,9945,9946,9946,9946,9946,9946,9946,9946,9946,9961,9961,9962,9962,9962,9962,9962,9962,9962,9978,9978,9978,9978,9978,9978,9978,9979,9979,9994,9994,9995,9995,9995,9995,9995,9995,9995,10011,10011,10011,10011,10012,10012,10012,10012,10012,10028,10028,10028,10028,10029,10029,10029,10029,10029,10046,10046,10046,10046,10046,10046,10046,10047,10047,10062,10063,10063,10063,10063,10063,10063,10063,10063,10079,10079,10080,10080,10080,10080,10080,10080,10080,10097,10097,10098,10098,10098,10098,10098,10098,10098,10142,10142,10142,10143,10143,10143,10143,10143,10143,10146,10146,10146,10146,10146,10146,10147,10147,10147,10149,10149,10149,10149,10149,10149,10150,10150,10150,10168,10169,10169,10170,10170,10170,10170,10170,10170,10187,10187,10188,10188,10188,10188,10188,10189,10189,10207,10208,10208,10208,10208,10208,10209,10209,10209,10230,10230,10230,10230,10231,10231,10231,10231,10232,10233,10234,10234,10234,10234,10234,10235,10235,10235,10262,10263,10263,10264,10264,10264,10264,10264,10265,10286,10286,10287,10287,10287,10287,10287,10287,10288,10289,10290,10290,10290,10290,10290,10290,10291,10291,10322,10322,10322,10323,10323,10323,10323,10323,10324,10325,10326,10326,10326,10326,10326,10327,10327,10327,10359,10359,10360,10360,10360,10360,10360,10361,10361,10363,10363,10363,10364,10364,10364,10364,10365,10365,10397,10397,10398,10398,10398,10398,10399,10399,10399" d="m250,4c-0.87849,7.25733 -0.92393,7.83163 -0.964,8.94933c-0.01973,0.55052 -0.03276,1.65599 -0.03467,2.21867c-0.00395,1.16533 -0.00133,2.40533 -0.00133,3.05533c0,0.67 0,1.36 0,2.07c0,0.73 0,1.48 0,3.04c0,0.80983 0,1.63867 0,2.4855c0,0.86383 0,1.74367 0,2.6385c0,0.90883 -0.00017,1.83067 0,3.70934c0.00009,0.95467 -0.00015,1.91734 0.0045,2.886c0.00467,0.97268 0.01331,1.94739 0.03149,2.922c0.01816,0.97273 0.0343,1.94203 0.13068,3.85867c0.04758,0.94607 0.11511,1.88574 0.19499,2.823c0.08011,0.9401 0.17589,1.8858 0.285,2.841c0.11082,0.97015 0.2317,1.95848 0.52,4.00267c0.15018,1.06479 0.31659,2.15324 0.48149,3.2625c0.1671,1.12408 0.33495,2.25779 0.49051,3.3975c0.15543,1.13864 0.31728,2.27081 0.528,4.50667c0.10266,1.08924 0.16936,2.16233 0.21899,3.219c0.04895,1.04205 0.07661,2.0726 0.093,3.093c0.01625,1.01228 0.01999,2.01866 0.02133,4.02133c0.00067,1.0005 0,2.004 0,3.0135c0,1.0185 0,2.049 0,3.09451c0,1.0635 -0.00017,2.14799 0,4.392c0.00009,1.16434 -0.00012,2.35468 0.0045,3.567c0.0047,1.23034 0.01338,2.4747 0.03149,3.729c0.0182,1.26038 0.03482,2.52318 0.13068,5.03734c0.04747,1.24496 0.11484,2.47748 0.18599,3.696c0.07022,1.20281 0.14763,2.38731 0.222,3.552c0.07297,1.14265 0.15295,2.26073 0.25867,4.41866c0.05074,1.03574 0.08472,2.0479 0.10951,3.042c0.02449,0.98193 0.03835,1.95798 0.04649,2.934c0.00819,0.98199 0.00999,1.97601 0.01067,4.024c0.00035,1.064 0,2.152 0,3.258c0,1.118 0,2.242 0,3.366c0,1.118 0,2.224 0,4.376c0,1.03566 0,2.04533 0,3.033c0,0.96967 0,1.92532 0,2.871c0,0.93967 0,1.87732 0,3.76266c0,0.9545 0,1.916 0,2.8815c0,0.96649 0,1.931 0,2.89049c0,0.95151 0,1.89201 0,3.72801c0,0.89049 0,1.76399 0,2.62349c0,0.84851 0,1.68901 0,2.52451c0,0.8335 0,1.668 0,3.35201c0,0.85483 0,1.71866 0,2.5905c0,0.87883 0,1.76366 0,2.65349c0,0.89384 0,1.79068 0,3.58934c0,0.90016 0,1.80133 0,2.7045c0,0.90617 0,1.81633 0,2.73151c0,0.92116 0,1.84933 0,3.73067c0,0.95483 0,1.91866 0,2.89049c0,0.97884 0,1.96367 0,2.95351c0,0.99384 0,1.99066 0,3.98933c0,1.00034 0,2.00267 0,3.009c0,1.01233 0,2.03267 0,3.063c0,1.04233 -0.00017,2.09866 0,4.26132c0.00009,1.10918 -0.00015,2.23334 0.0045,3.36751c0.00467,1.13916 0.01323,2.27838 0.03149,3.41249c0.0181,1.12424 0.03288,2.23402 0.13068,4.38667c0.04707,1.03622 0.11438,2.0471 0.19499,3.03751c0.07947,0.9763 0.17506,1.94221 0.285,2.9025c0.11006,0.96141 0.22966,1.92816 0.52,3.89333c0.14934,1.0108 0.31694,2.04007 0.48599,3.09001c0.17229,1.07005 0.34981,2.15961 0.522,3.26999c0.17519,1.12962 0.35825,2.27779 0.65866,4.64c0.15366,1.20827 0.28535,2.43416 0.40501,3.67201c0.12036,1.24483 0.22485,2.49429 0.315,3.74399c0.08981,1.245 0.1738,2.48203 0.28,4.91734c0.05191,1.19005 0.08472,2.36258 0.1095,3.519c0.02448,1.14227 0.03827,2.27264 0.04648,3.39301c0.00815,1.1123 0.01001,2.21866 0.01068,4.42133c0.00034,1.10017 0,2.20134 0,3.3045c0,1.10616 0,2.21632 0,3.33148c0,1.12119 0,2.24936 0,4.53067c0,1.15436 0,2.31467 0,3.47702c0,1.16031 0,2.31467 0,3.45898c0,1.13034 0,2.24268 0,4.39734c0,1.03549 0,2.04401 0,3.0285c0,0.9635 0,1.909 0,2.83951c0,0.91849 -0.00015,1.828 0,3.63199c0.00009,0.89999 -0.00018,1.79999 0.00449,2.70001c0.00467,0.89999 0.01337,1.80005 0.03152,2.69998c0.01816,0.90005 0.03534,1.80069 0.13065,3.60001c0.0477,0.90057 0.11548,1.80148 0.186,2.7045c0.0708,0.90631 0.14859,1.81625 0.22202,2.73151c0.07391,0.92108 0.15543,1.84851 0.25867,3.73065c0.05231,0.9538 0.08478,1.91324 0.1095,2.8725c0.0246,0.9541 0.03824,1.89832 0.04648,2.82751c0.00806,0.90918 0.00964,1.79333 0.01068,3.46667c0.00049,0.78082 -0.00055,1.52667 0.009,2.24249c0.00922,0.69089 0.02634,1.362 0.06299,2.01749c0.03613,0.64621 0.07303,1.29019 0.26135,2.57333c0.09641,0.65689 0.23151,1.31961 0.3765,1.99051c0.14694,0.67984 0.31052,1.3638 0.47549,2.0535c0.16602,0.69397 0.34445,1.38791 0.64801,2.78934c0.15137,0.69885 0.28494,1.4007 0.40948,2.10449c0.12485,0.70554 0.23871,1.41599 0.3465,2.1315c0.10858,0.72079 0.21201,1.44897 0.41068,2.93066c0.10117,0.75449 0.20038,1.51712 0.2955,2.28601c0.09555,0.77246 0.18652,1.54703 0.26849,2.32199c0.0817,0.77237 0.16364,1.54041 0.26935,3.05869c0.05188,0.7449 0.08441,1.48264 0.1185,2.21399c0.03391,0.72729 0.06509,1.45291 0.1095,2.17801c0.04456,0.72757 0.08307,1.46161 0.272,2.94131c0.09659,0.75641 0.23114,1.51797 0.37198,2.28601c0.14182,0.77335 0.29642,1.547 0.444,2.32199c0.14709,0.77234 0.3074,1.53772 0.51733,3.05869c0.10263,0.74356 0.16925,1.48093 0.22351,2.2095c0.05368,0.72079 0.0899,1.43628 0.12451,2.14648c0.03439,0.70615 0.0553,1.41016 0.15198,2.81067c0.04834,0.70029 0.1152,1.3989 0.186,2.09549c0.07053,0.69406 0.14801,1.38361 0.22202,2.06851c0.07333,0.67877 0.15378,1.34964 0.25867,2.66934c0.05124,0.64468 0.08472,1.28116 0.1095,1.90948c0.02451,0.62106 0.03827,1.2363 0.04648,1.8465c0.00815,0.60614 0.00986,1.20935 0.01068,2.41068c0.0004,0.59933 -0.00024,1.19467 0.00449,1.78201c0.00464,0.57532 0.01288,1.13477 0.03152,1.67398c0.01782,0.51547 0.02753,1.00497 0.13065,1.87735c0.04517,0.38208 0.11249,0.72775 0.186,1.04248c0.06818,0.2919 0.14691,0.5618 0.22202,0.8175c0.07224,0.24597 0.15622,0.48331 0.25867,0.97333c0.05292,0.25302 0.08484,0.51569 0.1095,0.78152c0.02469,0.26617 0.03632,0.53098 0.04648,0.7905l0.0062,0.2515l0.00314,0.24048" id="svg_5" stroke-width="2" stroke="#000" fill="none"/>
  <path t="11823,11961,11962,11962,11962,11962,11962,11979,11979,11979,11979,11979,11979,11979,11997,11997,11997,11997,11997,11997,11997,12013,12013,12013,12013,12013,12014,12014,12044,12044,12044,12044,12044,12044,12044,12045,12046,12046,12046,12046,12046,12046,12073,12073,12073,12073,12073,12073,12073,12073,12074,12099,12099,12099,12100,12100,12100,12100,12101,12101,12101,12101,12101,12101,12101,12125,12126,12126,12126,12126,12126,12150,12150,12150,12150,12150,12151,12151,12179,12179,12179,12179,12179,12179,12207,12207,12208,12208,12208,12208,12208,12208,12209,12210,12210,12210,12210,12210,12210,12211,12211,12212,12212,12212,12212,12212,12214,12214,12214,12214,12215,12215,12215,12215,12215,12243,12243,12243,12244,12244,12244,12244,12244,12246,12246,12246,12246,12246,12247,12247,12247,12247,12303,12304,12304,12304,12304,12304,12304,12304,12304,12330,12330,12330,12331,12331,12331,12331,12331,12332,12332,12333,12333,12333,12333,12333,12333,12335,12335,12335,12335,12335,12335,12335,12335,12335,12337,12337,12337,12337,12337,12337,12337,12337,12364,12364,12364,12364,12364,12365,12365,12365,12365,12366,12367,12367,12367,12367,12367,12367,12367,12393,12393,12393,12393,12394,12394,12394,12394,12396,12396,12396,12396,12396,12396,12397,12432,12432,12433,12433,12433,12433,12433,12433,12433,12435,12436,12436,12436,12436,12436,12436,12436,12436,12467,12467,12468,12468,12468,12468,12468,12468,12468,12470,12470,12470,12470,12471,12471,12471,12471,12504,12504,12505,12505,12505,12505,12505,12505,12507,12507,12507,12507,12508,12508,12508,12508,12542,12542,12542,12543,12543,12543,12543,12543,12543,12545,12546,12546,12546,12546,12546,12546,12547,12547,12549,12549,12549,12549,12549,12549,12550,12583,12583,12584,12584,12584,12584,12586,12586,12586,12586,12587,12587,12621,12622,12622,12622,12622,12622,12622,12624,12624,12625,12625,12625,12625,12625,12626,12626,12660,12661,12661,12661,12661,12661,12662,12662,12662,12697,12697,12697,12697,12697,12698,12698,12698,12698,12700,12700,12700,12701,12701,12701,12701,12701,12702,12737,12738,12738,12738,12739,12739,12739,12739,12740,12742,12742,12742,12743,12743,12743,12743,12743,12744,12783,12783,12784,12784,12784,12784,12785,12785,12785,12823,12823,12824,12824,12824,12824,12824,12825,12825,12827,12827,12827,12828,12828,12828,12828,12828,12829,12864,12865,12865,12865,12865,12866,12866,12866,12866,12901,12902,12902,12902,12902,12903,12903,12903,12903,12906,12906,12906,12907,12907,12907,12907,12908,12908" d="m286,376c-0.87851,-8.13583 -0.91934,-8.74646 -0.94284,-9.33749c-0.04535,-1.14133 -0.05051,-1.70248 -0.05582,-2.82916c-0.00549,-1.16669 0.00604,-1.77609 -0.01035,-3.03867c-0.00839,-0.64542 -0.02289,-1.2952 -0.06299,-1.944c-0.07935,-1.28403 -0.24741,-2.52008 -0.37085,-3.108c-0.24005,-1.14331 -0.41602,-1.69275 -0.578,-2.24268c-0.32602,-1.10681 -0.52106,-1.66162 -0.8125,-2.83334c-0.30591,-1.22983 -0.41049,-1.87555 -0.51999,-2.52798c-0.11053,-0.6586 -0.21909,-1.32184 -0.36002,-2.65601c-0.13882,-1.31415 -0.16904,-1.96094 -0.20264,-2.59732c-0.06598,-1.24899 -0.08188,-1.86459 -0.10934,-2.47467c-0.05444,-1.20953 -0.13611,-2.41116 -0.19601,-3.01102c-0.12082,-1.20975 -0.20456,-1.82092 -0.27866,-2.44131c-0.07526,-0.63028 -0.2309,-1.92783 -0.33334,-3.29169c-0.05325,-0.70877 -0.08469,-1.43463 -0.1185,-2.172c-0.03418,-0.7453 -0.06488,-1.4949 -0.1095,-2.24399c-0.0444,-0.74557 -0.04822,-1.49121 -0.38132,-3.60767c-0.10632,-0.6756 -0.25943,-1.32941 -0.40802,-1.97101c-0.14615,-0.63107 -0.45313,-1.86102 -0.58133,-2.46933c-0.25269,-1.19901 -0.40421,-2.40073 -0.45367,-2.99817c-0.04913,-0.59332 -0.09595,-1.76843 -0.10532,-2.34732c-0.00928,-0.57181 -0.00739,-2.23602 -0.01035,-2.77451c-0.00586,-1.06802 -0.01025,-1.60385 -0.05582,-2.6925c-0.02341,-0.55972 -0.16187,-2.33307 -0.22684,-2.95816c-0.06628,-0.63757 -0.14288,-1.2825 -0.29068,-2.58133c-0.07343,-0.64526 -0.15683,-1.28131 -0.25867,-2.51733c-0.09595,-1.16425 -0.11746,-1.72775 -0.14581,-2.83334c-0.01413,-0.55057 -0.02017,-1.668 -0.02084,-2.83334c-0.00037,-0.6095 0,-1.23599 0,-2.52798c0,-0.65952 0,-1.32401 0,-1.99051c0,-0.6655 0,-2.62683 0,-3.26416c0,-0.63135 0,-1.884 0,-2.50934c0,-0.62732 0.00165,-1.25867 -0.00015,-3.19632c-0.00061,-0.66501 -0.00241,-1.34003 -0.01053,-2.02502c-0.00821,-0.69501 -0.01816,-1.40024 -0.04648,-2.11499c-0.0874,-2.20596 -0.16138,-2.95975 -0.22684,-3.72101c-0.06586,-0.76575 -0.14108,-1.53201 -0.216,-2.29648c-0.07443,-0.75955 -0.1514,-1.51065 -0.216,-2.2515c-0.12518,-1.43533 -0.16486,-2.12689 -0.20132,-2.80402c-0.07196,-1.33578 -0.1001,-2.0072 -0.14401,-2.68799c-0.04498,-0.69727 -0.08829,-1.41827 -0.272,-2.944c-0.09872,-0.82001 -0.23199,-1.66977 -0.37198,-2.54401c-0.14267,-0.89108 -0.29596,-1.78912 -0.444,-2.688c-0.14664,-0.89046 -0.30316,-1.76259 -0.51733,-3.43466c-0.09988,-0.77985 -0.16901,-1.52753 -0.21902,-2.24701c-0.04843,-0.69659 -0.07663,-1.37788 -0.09299,-2.049c-0.01627,-0.6669 -0.01837,-1.336 -0.02148,-3.4135c-0.0011,-0.7265 -0.00241,-1.46701 -0.01053,-2.21851c-0.00821,-0.75952 -0.02182,-1.52411 -0.04648,-2.2905c-0.02466,-0.76563 -0.10468,-2.28186 -0.16434,-3.02682c-0.05908,-0.73773 -0.1326,-1.46901 -0.21451,-2.19601c-0.08176,-0.72568 -0.26791,-2.17807 -0.36533,-2.90933c-0.19751,-1.48282 -0.29907,-2.23729 -0.39868,-3c-0.10037,-0.76862 -0.19998,-1.54132 -0.29999,-2.31599c-0.10001,-0.77467 -0.19934,-1.54742 -0.29999,-2.31599c-0.1987,-1.5175 -0.30057,-2.26274 -0.39868,-3.00134c-0.09756,-0.73441 -0.19342,-1.46767 -0.28049,-2.20349c-0.08759,-0.74019 -0.25082,-2.24742 -0.35419,-3.8125c-0.05341,-0.80869 -0.08459,-1.6333 -0.1185,-2.4675c-0.03409,-0.83914 -0.06473,-1.67856 -0.1095,-2.51251c-0.04425,-0.8244 -0.07498,-1.63718 -0.272,-3.18666c-0.09381,-0.73784 -0.22882,-1.44684 -0.3765,-2.133c-0.14447,-0.67122 -0.30933,-1.32576 -0.47549,-1.97101c-0.16486,-0.64009 -0.65347,-2.56148 -0.793,-3.21716c-0.14053,-0.66035 -0.267,-1.32584 -0.375,-1.9935c-0.21384,-1.32184 -0.29135,-1.97478 -0.36002,-2.616c-0.13223,-1.23476 -0.20465,-2.40523 -0.23398,-2.97751c-0.02936,-0.57306 -0.07672,-1.75055 -0.10535,-2.36867c-0.03,-0.64722 -0.11075,-2.05673 -0.16901,-2.83032c-0.06155,-0.81709 -0.13617,-1.67006 -0.22498,-2.5515c-0.09109,-0.90424 -0.19516,-1.82329 -0.315,-2.74951c-0.12015,-0.92847 -0.39948,-2.75948 -0.55966,-3.64883c-0.15729,-0.87332 -0.32919,-1.7291 -0.50403,-2.571c-0.17252,-0.83076 -0.35062,-1.65039 -0.52197,-2.463c-0.16998,-0.80606 -0.49069,-2.40816 -0.63101,-3.20866c-0.13968,-0.79686 -0.26437,-1.59071 -0.375,-2.379c-0.10934,-0.77907 -0.20425,-1.54887 -0.285,-2.30701c-0.07916,-0.74324 -0.19904,-2.18074 -0.24017,-2.87149c-0.0401,-0.67328 -0.06723,-1.33292 -0.08548,-1.98151c-0.01804,-0.64043 -0.02768,-1.27599 -0.03152,-1.9095c-0.01163,-1.91847 -0.00449,-2.57333 -0.00449,-3.23717c0,-0.67183 0,-1.35066 0,-2.72533c0,-0.69383 0,-1.39067 0,-2.78934c0,-0.70033 0,-1.40266 0,-2.10899c0,-1.43268 0,-2.16301 0,-2.90533c0,-0.75633 0,-2.319 0,-3.12851c0,-0.82649 0,-1.66699 0,-2.51849c0,-0.8595 0,-1.724 0,-2.5905c0,-0.86551 0.00052,-2.5815 -0.00015,-3.42616c-0.00067,-0.83267 -0.00223,-1.65135 -0.01053,-2.45401c-0.00812,-0.7847 -0.02136,-1.54945 -0.04648,-2.292c-0.02432,-0.7188 -0.10419,-2.07648 -0.16418,-2.71149c-0.05756,-0.60901 -0.12701,-1.19358 -0.27866,-2.302c-0.07263,-0.53078 -0.2428,-1.55585 -0.37851,-3.06267c-0.04507,-0.50044 -0.08905,-1.51041 -0.10065,-2.02067c-0.02359,-1.03619 -0.02017,-1.5645 -0.02084,-3.20066c-0.00024,-0.56384 0,-1.7145 0,-2.29934c0,-0.58983 0,-1.78049 0,-2.97916c0,-0.60033 0,-1.809 0,-2.42133c0,-0.62033 0,-1.25066 0,-2.54933c0,-1.36267 0,-2.07217 0,-2.79867c0,-0.7405 0,-1.492 0,-2.2515c0,-0.7645 0,-1.531 0,-2.2965c0,-1.516 0,-2.26366 0,-3.01733c0,-0.77567 0,-1.58934 0,-2.457c0,-0.93767 0,-1.96133 0,-3.08701c0,-2.62133 0,-4.14149 0,-5.78266c0,-1.73317 0,-3.52934 0,-5.3595c0,-1.83517 0,-3.64633 0,-5.4045c0,-3.24133 0,-4.6735 0,-5.97867c0,-1.19117 0,-2.28133 0,-3.2835c0,-0.92717 0,-1.79233 0,-2.6085c0,-1.53733 0,-2.2825 0,-3.01867c0,-0.72816 0,-1.44933 0,-2.1645c0,-0.71017 0,-1.41633 0,-2.1195c0,-1.40133 0,-2.1015 0,-2.80267c0,-0.70317 0,-1.40933 0,-2.1195c0,-0.71517 0,-1.43633 0,-2.1645c0,-1.48133 0,-2.23817 0,-3.016c0,-0.80983 0,-1.66267 0,-2.5695c0,-0.97184 0,-2.01967 0,-3.1545c0,-2.57467 0,-4.03017 0,-5.57866c0,-1.6145 0,-3.268 0,-4.9335c0,-1.6505 0,-3.259 0,-4.7985c0,-2.764 0,-3.94183 0,-4.98667c0,-0.92883 0,-1.75867 0,-2.5065c0,-0.68283 0,-1.31767 0,-1.9215c0,-1.18267 0,-1.79333 0,-2.428c0,-0.66267 0,-1.35733 0,-2.088c0,-0.77067 0,-1.58533 0,-2.448c0,-1.88533 0,-2.91233 0,-3.98133c0,-1.093 0,-2.192 0,-3.279c0,-1.057 0,-2.066 0,-3.009c0,-1.616 0.00238,-2.25802 -0.00266,-2.792c-0.00412,-0.43803 -0.01868,-0.792 -0.039,-1.074l-0.03033,-0.222l-0.04233,-0.174l-0.05634,-0.138" id="svg_6" stroke-width="2" stroke="#000" fill="none"/>
 </g>
 <g display="none">
  <title>muse_image</title>
  <image xlink:href="http://static.flickr.com/180/417055384_d172e82e45.jpg" id="muse" height="480" width="360" y="0" x="140"/>
 </g>
 <g display="none">
  <title>bbox</title>
  <rect stroke="#f00" fill="none" stroke-width="3" height="454.08" width="165.12" y="0" x="216.8" id="bbox"/>
 </g>
</svg>
