<svg width="640" height="480" xmlns="http://www.w3.org/2000/svg" xmlns:svg="http://www.w3.org/2000/svg" xmlns:xlink="http://www.w3.org/1999/xlink">
 <!-- Sketchy ANNOTATION
  ImageNet ID: n03272010_6152
  URL: http://farm1.static.flickr.com/163/424633997_79eec62fda.jpg
  Image Width: 381
  Image Height: 500
  BBox X: 0
  BBox Y: 52
  BBox Width: 380
  BBox Height: 297
  Exposure: 2000ms
  Synset Label: guitar
  Synset ID: n03467517
  Worker Tag: Guitar
  Sanity Check: 
   Saved
  Comment: 
   {}
  Worker ID: AIH9VLD92GHFH
  Assignment ID: 3907X2AHF05FWC1MO4M3NN69ETKP2L
  HIT ID: 362E9TQF2HQB70OVKMC6RA4DYIQIG7
  Work Time: 48s
  Worker Score: 0.6286
 END ANNOTATION -->
 <g display="inline">
  <title>Layer 1</title>
  <path t="0,131,134,135,147,148,148,162,163,189,189,189,189,189,196,196,196,196,214,214,214,231,231,231,247,247,247,247,263,264,264,264,280,280,280,280,280,297,297,297,298,313,318,319,330,331,331,331,347,347,347,363,364,364,381,381,381,397,397,397,413,414,414,430,431,431,431,447,447,463,464,464,480,481,481,481,497,497,513,514,530,547,547,580,581,597,614,614,630,647,647,663,664,680,681,697,697,697,713,714,714,731,731,731,745,746,746,763,764,764,782,782,782,814,814,814,819,819,830,831,831,847,847,863,864,864,880,881,881,897,897,897,913,914,914,930,931,931,946,947,947,948,963,964,964,964,980,981,981,997,997,997,998,998,1013,1014,1014,1014,1030,1031,1031,1046,1047,1047,1048,1048,1063,1064,1081,1081,1081,1082,1096,1097,1113,1114,1114,1130,1131,1131,1132,1146,1147,1147,1164,1164,1165,1181,1181,1182,1196,1197,1197,1214,1215,1215,1230,1231,1231,1247,1247,1248,1263,1264,1264,1264,1283,1284,1284,1296,1297,1314,1315,1331,1332,1346,1347,1363,1364,1380,1397,1413,1414,1430,1431,1447,1447,1463,1480,1481,1481,1496,1497,1513,1530,1546,1547,1547,1563,1564,1580,1581,1613,1614,1614,1615,1630,1631,1631,1647,1648,1648,1663,1664,1664,1680,1681,1696,1697,1713,1714,1714,1730,1731,1746,1747,1763,1764,1764,1780,1781,1796,1797,1797,1813,1814,1814,1830,1831,1831,1846,1847,1863,1864,1864,1880,1881,1881,1882,1882,1896,1897,1898,1913,1914,1914,1930,1931,1931,1947,1948,1948,1949,1963,1964,1964,1965,1980,1981,1996,1997,1998,1998,2013,2014,2014,2015,2030,2031,2031,2032,2046,2047,2047,2048,2063,2064,2064,2065,2080,2081,2081,2096,2097,2098,2098,2113,2114,2115,2115,2115,2130,2131,2131,2132,2132,2146,2147,2148,2163,2164,2164,2180,2181,2181,2196,2197,2213,2214,2214,2215,2230,2231,2250,2250,2250,2251,2262,2262,2283,2284,2285,2297,2298,2298,2337,2338,2338,2339,2342,2342,2342,2343,2352,2353,2353,2363,2363,2363,2363,2380,2381,2381,2382,2396,2397,2398,2398,2399,2413,2414,2414,2415,2431,2432,2432,2433,2446,2447,2448,2448,2448,2463,2464,2465,2480,2481,2482,2482,2496,2497,2498,2498,2513,2515,2515,2530,2531,2531,2532,2546,2547,2548,2548,2563,2564,2565,2565,2580,2581,2581,2582,2582,2596,2597,2598,2598,2599,2613,2614,2615,2615,2615,2630,2631,2632,2632,2646,2647,2648,2648,2663,2664,2665,2680,2681,2682,2682,2682,2696,2697,2698,2698,2699,2713,2714,2714,2715,2715,2716,2730,2731,2732,2732,2732,2746,2747,2748,2748,2763,2764,2764,2764,2765,2765,2780,2781,2782,2782,2782,2796,2798,2798,2799,2813,2814,2815,2830,2831,2832,2832,2832,2846,2847,2848,2848,2863,2864,2865,2865,2880,2881,2882,2882,2896,2897,2898,2899,2899,2913,2914,2914,2915,2915,2930,2931,2932,2932,2933,2945,2946,2946,2946,2963,2964,2965,2980,2981,2982,2982,2996,2997,2998,2998,3013,3014,3015,3015,3029,3030,3030,3046,3047,3063,3064,3065,3080,3081,3082,3096,3096,3113,3114,3115,3115,3130,3132,3146,3147,3148,3163,3164,3165,3165,3179,3180,3180,3196,3197,3198,3198,3213,3214,3215,3215,3230,3232,3232,3276,3276,3277,3281,3281,3282,3285,3286,3300,3300,3301,3316,3317,3317,3330,3331,3331,3345,3346,3346,3363,3365,3365,3380,3381,3396,3396,3412,3412,3430,3431,3432,3446,3447,3448,3463,3464,3480,3482,3496,3513,3546,3547,3548,3580,3596,3597,3613,3630,3645,3646,3663,3664,3696,3713,3714,3730,3731,3745,3796,3830,3831,3846,3863,3864,3896,3897,3913,3930,3931,3945,3946,3963,3980,3981,3982,3996,3996,4013,4014,4030,4031,4045,4046,4062,4063,4080,4096,4097,4113,4114,4130,4131,4146,4147,4162,4180,4229,4231,4262,4264,4312,4314,4330,4331,4372,4387,4388,4402,4417,4432,4433,4448,4448,4464,4465,4480,4481,4496,4512,4514,4530,4531,4545,4562,4564,4596,4597,4598,4613,4629,4629,4630,4646,4648,4662,4662,4663,4680,4681,4695,4696,4712,4714,4714,4729,4730,4730,4745,4746,4746,4747,4762,4763,4779,4781,4782,4796,4812,4813,4829,4830,4846,4847,4862,4879,4895,4896" d="m214,230c-3.51416,-6.59267 -3.87817,-7.62828 -4.03917,-8.43466c-0.19641,-0.98381 -0.36043,-1.79358 -0.66533,-2.55551c-0.35417,-0.88509 -0.8468,-1.51123 -1.46217,-2.50983c-0.3356,-0.54459 -0.66815,-1.19795 -1.04399,-1.896c-0.38945,-0.72333 -0.99193,-1.78078 -1.38034,-2.44684c-0.37013,-0.6347 -0.90569,-1.5341 -1.16617,-2.457c-0.2466,-0.87369 -0.21774,-1.75797 -0.46449,-2.77899c-0.17418,-0.72073 -0.53874,-1.43163 -1.09967,-2.56401c-0.33058,-0.66736 -0.68645,-1.37434 -1.026,-2.10899c-0.49745,-1.07628 -0.76515,-1.76617 -1.03799,-2.42284c-0.27119,-0.65268 -0.94212,-1.99554 -1.15733,-2.3465c-0.45049,-0.73462 -0.95915,-1.45674 -1.452,-2.16901c-0.6745,-0.97478 -1.06165,-1.52567 -1.46367,-2.289c-0.36389,-0.69095 -0.73488,-1.70932 -1.0625,-2.54166c-0.23064,-0.58595 -0.78076,-1.79059 -1.13634,-2.37018c-0.52473,-0.85532 -0.89542,-1.38998 -1.74283,-2.14099c-0.56949,-0.5047 -1.25204,-0.88731 -1.99867,-1.73734c-0.62666,-0.71346 -0.95415,-1.27638 -1.58017,-2.30917c-0.41312,-0.68153 -0.78441,-1.36203 -1.56383,-2.12149c-0.43805,-0.42683 -1.26141,-0.94125 -2.12401,-1.8c-0.56641,-0.56389 -0.93643,-1.24316 -1.66666,-2c-0.40953,-0.42445 -1.16988,-0.97482 -1.89867,-1.51466c-0.80356,-0.59523 -1.39426,-1.1199 -2.31084,-1.58566c-0.70157,-0.35651 -1.5555,-0.65001 -2.2905,-1.233c-0.76321,-0.60536 -1.08829,-1.20432 -1.76534,-1.81334c-0.74287,-0.66824 -1.61308,-0.72881 -2.51601,-1.13733c-0.73706,-0.33348 -1.56409,-0.71182 -2.36932,-1.284c-0.54858,-0.38982 -1.30498,-1.24246 -2.10535,-1.41068c-0.91182,-0.19162 -1.89465,-0.02133 -2.58533,-0.02133c-1.06816,0 -1.92566,0 -2.79601,0c-0.79733,0 -1.77866,0 -2.696,0c-0.83333,0 -1.87633,0 -2.60533,0c-0.83699,0 -1.728,0 -2.62349,0c-0.86852,0 -1.93784,0 -2.65184,0c-0.90533,0 -1.87416,0 -2.68866,0c-0.86852,0 -1.76472,-0.02791 -2.6595,0.009c-0.87006,0.03589 -1.96118,0.28284 -2.64734,0.69633c-0.67174,0.40482 -1.43907,1.02188 -2.25717,1.23332c-0.787,0.2034 -1.80727,0.40196 -2.39999,0.67201c-1.01318,0.46159 -1.81844,0.88141 -2.40001,1.27466c-0.82683,0.55911 -1.38843,1.10529 -2.23332,1.948c-0.54741,0.54599 -1.05618,1.13188 -1.65201,1.93468c-0.54053,0.72829 -0.86115,1.28401 -1.71466,2.08932c-0.56438,0.5325 -1.25026,0.89696 -1.99983,1.68533c-0.63483,0.66768 -0.95369,1.2144 -1.6335,2.12401c-0.52268,0.69937 -0.99329,1.37582 -1.36934,2.388c-0.23642,0.63634 -0.43254,1.35765 -0.768,2.064c-0.51656,1.08768 -1.02657,1.72246 -1.5085,2.33966c-0.45496,0.58266 -1.18341,1.61024 -1.44484,2.32701c-0.26087,0.71524 -0.72881,1.86441 -1.1385,2.52449c-0.4461,0.71873 -0.71322,1.06558 -1.17083,1.80751c-0.64616,1.04762 -1.10619,2.04218 -1.34534,2.672c-0.2298,0.60521 -0.61658,1.81412 -0.832,2.42133c-0.33701,0.94992 -0.74767,1.95976 -1.07333,2.67067c-0.33286,0.72661 -0.67317,1.43094 -1.032,2.064c-0.68925,1.21602 -1.13438,1.70625 -1.36267,2.81883c-0.12106,0.58998 -0.12019,1.59868 -0.20533,2.26918c-0.15275,1.20294 -0.49603,1.90269 -0.74934,2.96666c-0.19262,0.80905 -0.16441,1.51433 -0.16666,2.64267c-0.00132,0.66266 0.00115,1.35733 0,2.38933c-0.00134,1.19867 0.02652,1.96317 -0.17067,2.65067c-0.29736,1.03673 -0.85107,1.8277 -1.124,2.42184c-0.40478,0.88116 -0.62873,1.78777 -0.684,2.6595c-0.06767,1.0674 -0.02133,1.78333 -0.02133,2.68866c0,0.96883 0,1.78333 0,2.65184c0,0.89549 0.03252,1.79312 -0.036,2.6595c-0.08493,1.07391 -0.34036,1.78084 -0.53867,2.49733c-0.29415,1.06281 -0.37815,2.04353 -0.4045,2.73866c-0.02631,0.69437 0.00677,1.95789 -0.0315,2.728c-0.0433,0.87146 -0.29471,1.66455 -0.564,2.472c-0.33064,0.99139 -0.25743,1.87439 -0.75867,2.63333c-0.51984,0.78711 -1.61354,1.05481 -2.125,1.6875c-0.56831,0.70302 -0.43992,1.69522 -0.967,2.41783c-0.49076,0.67282 -1.20188,1.1931 -1.724,1.69734c-0.78246,0.75568 -0.69881,1.60361 -1.136,2.47867c-0.38293,0.76646 -1.12533,1.29599 -1.88133,2.052c-0.48599,0.48599 -0.996,1.02016 -1.81184,1.81166c-0.60211,0.58414 -1.51688,0.89685 -2.04234,1.56332c-0.54889,0.6962 -0.99293,1.46524 -1.4965,1.97433c-0.72446,0.73242 -1.44516,1.22604 -2.25066,1.40268c-0.97432,0.21365 -1.95509,0.5336 -2.42667,1.14832c-0.52338,0.68225 -0.70355,1.31201 -1.57333,2.24768c-0.44898,0.483 -1.03231,0.8204 -1.89867,1.68533c-0.56322,0.56229 -1.07533,1.42474 -1.876,1.97849c-0.66304,0.45856 -1.49669,0.63297 -2.31434,1.12167c-0.77153,0.46115 -1.20832,1.24405 -1.66383,1.89984c-0.60146,0.86591 -1.30583,1.38055 -1.88367,1.6955c-0.97785,0.53296 -1.82626,0.80157 -2.42883,1.50583c-0.52184,0.60989 -1.02946,1.27121 -1.66666,1.81952c-0.65944,0.56744 -1.2091,1.39624 -1.576,2.17917c-0.38419,0.81985 -1.00256,1.37793 -1.648,2c-0.80247,0.77344 -1.13465,1.39856 -1.31966,2.25714c-0.20649,0.95825 -0.39194,1.75464 -0.60367,2.53302c-0.28241,1.03821 -0.36948,1.82455 -0.63934,2.78183c-0.22536,0.79944 -0.45988,1.40042 -0.88,2.39465c-0.3051,0.72205 -0.66037,1.45346 -0.972,2.20801c-0.30415,0.73642 -0.70613,2.13644 -0.8,2.77866c-0.12897,0.88239 -0.27424,1.92789 -0.48666,2.62134c-0.27962,0.91278 -0.49609,1.91147 -0.54934,2.47202c-0.08685,0.91418 -0.17843,1.92239 -0.378,3.00598c-0.13797,0.74911 -0.32219,1.49033 -0.48067,2.58069c-0.0985,0.6777 -0.15501,1.62485 -0.16533,2.47998c-0.0121,1.00262 -0.00134,1.68668 -0.00134,2.85333c0,0.79501 0,1.68002 0,2.32001c0,1.03485 0,1.77051 0,2.53418c0,1.18048 0,2.379 0,3.17465c0,0.78366 -0.00107,1.54733 0,2.63785c0.00067,0.68265 0.00389,1.66782 0.05717,2.31934c0.08311,1.01648 0.29352,2.09589 0.44283,2.82648c0.14539,0.7114 0.347,1.68573 0.44733,2.5155c0.12198,1.00882 0.1863,1.84601 0.41883,2.81519c0.17209,0.71725 0.38574,1.47644 0.96717,2.5235c0.39359,0.70877 0.93155,1.34738 1.488,1.992c0.57405,0.66501 1.18539,1.33575 1.776,2.056c0.58808,0.71716 1.1279,1.42349 1.632,2.064c0.62426,0.79318 1.15418,1.33148 1.568,2.02133c0.59562,0.99292 0.82097,1.82034 1.17333,2.26532c0.70001,0.884 1.5389,1.20642 2.26134,1.56534c0.97633,0.48508 1.57558,1.01474 2.31066,1.74533c0.46409,0.46124 1.20647,1.20688 1.68934,1.68933c0.79967,0.79901 1.40406,1.40121 2.10133,1.93466c0.65868,0.50391 1.42138,1.00052 1.89867,1.34933c0.97388,0.71173 1.56067,1.20432 2.536,1.68668c0.72308,0.3576 1.53141,0.70209 2.08933,1.34c0.5676,0.64899 0.84921,1.54742 1.68567,2.31467c0.42714,0.39182 1.29318,0.76755 1.85966,1.11066c1.23074,0.74548 1.78791,1.28125 2.36134,1.78134c0.55187,0.48129 1.5432,1.29733 2.02133,1.58932c0.71026,0.43375 1.85639,0.98489 2.5245,1.31403c0.70984,0.3497 1.43527,0.7099 2.52351,1.18066c0.6786,0.29358 1.35612,0.51944 2.31933,0.9765c1.03098,0.4892 1.73175,0.95618 2.10001,1.19098c0.74816,0.47702 1.4597,1.01004 2.58067,1.49918c0.66486,0.29013 1.66628,0.46136 2.31933,0.54367c1.01342,0.12769 2.10609,0.30624 2.86817,0.47717c0.78538,0.17618 1.97887,0.48035 2.7765,0.67783c0.39352,0.09741 1.52748,0.38101 2.232,0.51599c1.19785,0.22946 1.98016,0.26349 2.73866,0.45468c0.88874,0.224 1.54041,0.53943 2.25284,0.83066c0.72955,0.29822 2.15238,0.78815 2.822,0.88568c0.94113,0.13708 1.55583,0.11298 2.75717,0.11432c0.59999,0.00067 1.5,0 2.70016,0c0.60432,0 1.53583,0 2.18517,0c1.39999,0 2.15067,0 2.92532,0c0.79068,0 1.98933,0 2.78934,0c0.8,0 1.60001,0 2.8,0c0.8,0 1.60001,0 2.39999,0c0.8,0 2.00034,0 2.80901,0c0.83267,0 1.70534,0 2.16167,0c1.47166,0 1.99466,0 3.05867,0c0.52899,0 1.55099,0 2.90399,0c0.72801,0 1.625,0 2.43201,0c0.8775,0 1.896,0 2.62,0c0.73201,0 1.79333,0 2.78934,0c0.65067,0 1.99207,0.00751 2.71201,-0.00266c0.76015,-0.01074 1.56491,-0.034 2.39999,-0.168c1.34497,-0.21582 1.80251,-0.38434 2.73866,-0.70135c0.47745,-0.16168 1.42773,-0.52371 2.808,-1.12799c0.44707,-0.19574 1.31104,-0.59683 2.14584,-1c0.41092,-0.19846 1.21837,-0.60229 2.42082,-1.19983c0.79926,-0.39719 1.59821,-0.78329 2,-0.96417c0.79649,-0.35858 1.99939,-0.81662 2.8,-1.08783c0.79939,-0.27081 1.61937,-0.51569 2.8,-1.08151c0.4072,-0.19516 1.20406,-0.67017 2,-1.1875c0.40207,-0.26132 1.1861,-0.81885 2.39983,-1.55765c0.78693,-0.479 1.1889,-0.68665 1.96417,-1.11084c0.75008,-0.41043 1.82176,-0.99847 2.46983,-1.41068c0.61104,-0.38864 1.44417,-0.9527 2.19951,-1.80133c0.52411,-0.58884 0.99246,-1.31161 1.73099,-2.02017c0.58183,-0.55823 1.27728,-1.0994 1.63167,-1.38916c0.72256,-0.59079 1.78545,-1.48553 2.44234,-2.08032c0.62297,-0.56409 1.17517,-1.12476 1.995,-1.77567c0.69832,-0.55444 1.19299,-0.82465 1.936,-1.30133c0.88014,-0.56464 1.54178,-1.04007 2.2515,-1.55286c0.73233,-0.52914 1.81207,-1.31311 2.15767,-1.55783c0.66351,-0.46982 1.62027,-1.1344 2.22017,-1.60532c0.91628,-0.71924 1.5099,-1.27338 2.12216,-1.85767c0.31731,-0.3028 0.96562,-0.94391 2.00017,-1.97952c0.36072,-0.36108 1.08521,-1.09134 1.43733,-1.45798c0.67894,-0.70691 1.56575,-1.66934 1.98567,-2.2515c0.52451,-0.72711 0.85193,-1.45206 1.25867,-2.45468c0.33894,-0.83554 0.56636,-1.44699 1.13066,-2.31467c0.40335,-0.62021 1.17111,-1.47528 1.66133,-2.04285c0.67819,-0.78519 1.21474,-1.49783 1.62001,-2.21848c0.28154,-0.50064 0.87233,-1.70654 1.21066,-2.40002c0.35248,-0.72247 0.7085,-1.44839 1.153,-2.51682c0.27094,-0.65121 0.62932,-1.52481 0.855,-2.48849c0.1929,-0.82373 0.14597,-1.66714 0.17734,-2.60535c0.02802,-0.83783 0.13225,-1.73328 0.342,-2.61899c0.19954,-0.84265 0.42387,-1.7905 0.66817,-2.60901c0.25453,-0.85284 0.69681,-1.50293 1.12851,-2.28534c0.29103,-0.52747 0.74812,-1.76068 0.86533,-2.44c0.16211,-0.93964 0.35524,-1.72751 0.56,-2.58533c0.28258,-1.18387 0.3391,-1.78821 0.42534,-2.66849c0.08188,-0.83572 0.25729,-1.84952 0.54167,-2.54169c0.3132,-0.76236 0.78883,-1.61749 1.10649,-2.289c0.50546,-1.06854 0.83644,-1.79239 1.10901,-2.86865c0.16634,-0.65677 0.2404,-1.61298 0.3255,-2.22018c0.1689,-1.2052 0.42415,-2.08524 0.62183,-2.64417c0.36971,-1.04538 0.68765,-1.74161 1.05267,-2.40982c0.53732,-0.98364 1.06053,-1.76715 1.4175,-2.28601c0.645,-0.93753 1.22858,-1.57126 1.82533,-2.42798c0.45206,-0.64899 0.76552,-1.28546 1.54266,-2.03336c0.66869,-0.64352 1.26324,-0.93942 2.12401,-1.79999c0.56313,-0.56299 0.91769,-1.2218 1.5,-2c0.4626,-0.61823 1.05795,-1.16183 1.81183,-2.19983c0.41393,-0.56992 0.74992,-1.36905 1.326,-2.043c0.52237,-0.61111 1.34773,-1.06653 2.09999,-1.45718c0.98915,-0.5137 1.63161,-0.7681 2.5955,-1.46664c0.62521,-0.45313 1.1712,-1.04465 2,-1.66669c0.58099,-0.43607 1.39697,-0.86819 2.19983,-1.26648c0.77646,-0.38519 1.82031,-0.42496 2.43851,-1.01001c0.69785,-0.66046 0.65231,-1.71054 1.52832,-2.05682c0.6618,-0.2616 1.47797,-0.48892 2.18668,-1.24402c0.61282,-0.65295 0.4364,-1.68112 0.99933,-2.47949c0.48151,-0.68289 1.146,-1.14322 1.79666,-1.74582c0.672,-0.62238 0.84,-1.53848 0.85068,-2.47867c0.01004,-0.88528 0,-1.64252 0,-2.53802c0,-0.86333 0,-1.82649 0,-2.75798c0,-0.91068 0.19916,-1.78595 -0.00266,-2.70267c-0.17035,-0.77379 -1.23016,-0.77963 -2.112,-1.17067c-0.73956,-0.32796 -1.52344,-0.65752 -2.36935,-0.71867c-0.86823,-0.06277 -1.58734,-0.60217 -2.21149,-1.29199c-0.57147,-0.63161 -1.46857,-0.87877 -2.32535,-1.20534c-0.57874,-0.22058 -1.57791,-0.46735 -2.37915,-0.4955c-0.99808,-0.03506 -1.94284,-0.0045 -2.85184,-0.0045c-0.7175,0 -1.75351,0 -2.4975,0c-1.10767,0 -1.95326,0.11588 -2.88667,-0.036c-0.87204,-0.14189 -1.50386,-0.65782 -2.48134,-0.87868c-0.83507,-0.18869 -1.67126,0.05687 -2.59599,-0.15733c-0.96838,-0.2243 -0.97591,-1.37093 -1.72267,-1.85599c-0.73116,-0.47493 -1.7534,-0.18936 -2.564,-0.59283c-0.86055,-0.42834 -1.58836,-0.94423 -1.87866,-1.80051c-0.278,-0.82001 -0.39902,-1.62656 -0.76868,-2.37416c-0.39427,-0.79739 -0.35266,-1.7885 -0.35266,-2.65184c0,-0.89549 0.01563,-1.85413 0,-2.81934c-0.01067,-0.65892 -0.29845,-1.70305 -0.85066,-2.19733c-0.77089,-0.69 -1.10248,-1.27298 -1.15384,-2.28867c-0.03519,-0.69577 -0.53441,-1.65251 -0.87416,-2.44751c-0.31892,-0.74628 -0.57869,-1.71254 -0.83734,-2.41583c-0.34871,-0.94815 -0.87538,-1.65565 -1.46933,-2.12c-0.82582,-0.64561 -1.15698,-1.20346 -1.61333,-1.88c-0.58479,-0.86697 -1.34502,-1.52652 -2.03734,-1.87332c-0.74355,-0.37245 -1.78369,-0.4837 -2.564,-0.7205c-0.82915,-0.25162 -1.56091,-0.95044 -2.20001,-1.32217c-0.95082,-0.55305 -1.61888,-0.5063 -2.59999,-0.78949c-0.82066,-0.23688 -1.79033,-0.79918 -2.40451,-1.07401c-0.84039,-0.37605 -1.81766,-0.57831 -2.63148,-0.68983c-0.86926,-0.11913 -1.78429,-0.30322 -2.65501,-0.7245c-0.58238,-0.28177 -1.33228,-0.81575 -2.14099,-1.40349c-0.61412,-0.44632 -1.50996,-0.771 -2.468,-0.88667c-0.73149,-0.08832 -1.64514,-0.42912 -2.5,-0.83333c-0.72873,-0.34456 -1.46906,-0.7529 -2.17467,-1.31601c-0.78769,-0.62862 -1.52083,-0.89883 -2.3045,-1.37149l-0.46367,-0.77917l-0.05849,-0.90266l-0.084,-0.76801" id="svg_1" stroke-width="2" stroke="#000" fill="none"/>
  <path t="5273,5413,5413,5413,5413,5429,5430,5430,5430,5430,5446,5446,5446,5446,5446,5446,5446,5463,5463,5463,5463,5463,5464,5464,5479,5480,5480,5480,5480,5480,5480,5496,5496,5496,5496,5496,5496,5496,5512,5513,5513,5513,5513,5513,5513,5529,5530,5530,5530,5530,5530,5531,5531,5546,5546,5546,5546,5546,5547,5547,5547,5569,5569,5569,5569,5569,5569,5569,5569,5593,5593,5593,5593,5593,5594,5594,5594,5616,5617,5617,5617,5617,5617,5617,5620,5620,5620,5620,5620,5620,5643,5643,5643,5643,5643,5643,5643,5643,5665,5666,5666,5666,5666,5666,5666,5666,5687,5687,5687,5687,5687,5687,5687,5687,5688,5707,5707,5707,5708,5708,5708,5708,5708,5708,5729,5729,5729,5730,5730,5730,5730,5730,5730,5750,5750,5750,5750,5750,5751,5751,5751,5751,5752,5752,5753,5753,5753,5753,5753,5753,5753,5755,5755,5755,5755,5755,5755,5755,5756,5756,5783,5784,5784,5784,5784,5784,5784,5784,5785,5786,5786,5787,5787,5787,5787,5787,5787,5787,5830,5830,5830,5831,5831,5831,5831,5831,5831,5868,5868,5868,5868,5868,5868,5869,5869,5869,5871,5871,5871,5871,5871,5871,5872,5872,5872,5932,5933,5933,5933,5933,5934,5934,5934,5934,5938,5939,5939,5939,5939,5939,5940,5940,5940,5969,5969,5969,5969,5969,5970,5970,5970,5970,5999,5999,6000,6000,6000,6000,6001,6001,6001,6004,6004,6005,6005,6005,6005,6005,6005,6006,6035,6036,6036,6036,6036,6037,6037,6037,6037,6040,6041,6041,6041,6041,6041,6042,6042,6042,6067,6067,6068,6068,6068,6068,6068,6069,6069,6072,6072,6072,6072,6072,6073,6073,6073,6073,6100,6100,6100,6100,6101,6101,6101,6101,6101,6105,6105,6105,6106,6106,6106,6106,6107,6107" d="m196,201c6.59283,-4.17833 7.32701,-4.8345 7.64133,-5.15334c0.58456,-0.59296 1.67993,-1.6963 2.32935,-2.164c0.3376,-0.24313 1.08032,-0.68916 1.83833,-1.19249c1.20625,-0.80098 1.59535,-1.12833 2.4045,-1.8c0.42052,-0.34908 1.29036,-1.0808 1.758,-1.442c0.48032,-0.37099 1.51686,-1.10155 2.6805,-1.76418c0.60017,-0.34177 1.22401,-0.65866 1.84801,-0.98399c0.62399,-0.32533 1.2742,-0.59877 3,-1.66667c0.54637,-0.33809 1.05258,-0.70934 1.533,-1.0905c0.93987,-0.7457 1.37186,-1.15254 1.81067,-1.54733c1.32559,-1.19263 1.77682,-1.59662 2.24033,-1.99683c0.93964,-0.81131 1.41792,-1.21732 1.89067,-1.63467c0.47459,-0.41898 1.86272,-1.72673 2.304,-2.18533c0.44142,-0.45876 0.86972,-0.93039 1.72133,-1.87866c0.42586,-0.4742 0.82736,-0.97176 2.16667,-2.33333c0.44638,-0.45381 0.91618,-0.88524 1.386,-1.31851c0.94502,-0.87149 1.42567,-1.30565 1.89465,-1.758c0.47241,-0.45566 1.40126,-1.41066 2.27,-2.4595c0.44237,-0.53407 0.86766,-1.09225 1.3035,-1.65149c0.44016,-0.56477 0.88055,-1.13799 1.34851,-1.6965c0.9471,-1.13037 1.4649,-1.66959 2,-2.196c1.07501,-1.05756 1.64856,-1.54836 2.21599,-2.04001c0.56363,-0.48836 1.12987,-0.96259 2.248,-1.87999c0.54413,-0.44644 1.08087,-0.88191 1.60951,-1.30951c1.0354,-0.83748 1.54634,-1.24667 2.05266,-1.65266c0.50302,-0.40335 2.00473,-1.604 2.50317,-2.0045c0.49722,-0.39951 0.99414,-0.79579 1.96533,-1.59999c0.48058,-0.39793 0.96156,-0.78773 2.31483,-2c0.44211,-0.39603 0.87027,-0.80296 1.742,-1.60001c0.43912,-0.40149 0.86841,-0.82483 2.3125,-2c0.5025,-0.40892 1.03476,-0.80298 1.57648,-1.2045c0.55026,-0.40785 1.11578,-0.80994 2.242,-1.65266c0.56793,-0.42497 1.6861,-1.30408 2.22668,-1.76466c0.5408,-0.46078 1.06921,-0.93919 1.58548,-1.4355c0.52014,-0.50005 1.53891,-1.55489 2.03467,-2.11467c1.01666,-1.14795 1.50385,-1.76912 2.004,-2.39734c0.50854,-0.63876 1.01685,-1.29346 1.539,-1.95149c0.52847,-0.66599 1.06363,-1.33867 1.629,-1.99651c1.14459,-1.33176 1.76605,-1.96764 2.40134,-2.59734c0.64038,-0.63475 1.30612,-1.2544 1.99051,-1.86449c0.69028,-0.61532 1.39951,-1.22133 2.12549,-1.8195c1.47034,-1.2115 2.23166,-1.80273 2.99335,-2.39867c0.76099,-0.59539 1.52209,-1.18208 2.27701,-1.761c0.74377,-0.57039 1.4751,-1.12677 2.18698,-1.671c1.3555,-1.03626 1.99088,-1.52734 2.60135,-2.00134c0.59119,-0.45902 1.16638,-0.90835 1.73248,-1.3485c0.56058,-0.43585 1.12027,-0.87083 1.6875,-1.3035c1.16382,-0.88776 1.77673,-1.3382 2.40134,-1.80533c0.63806,-0.47719 1.28629,-0.96473 1.93201,-1.4745c0.65302,-0.51553 1.30588,-1.0437 1.93201,-1.6095c1.25763,-1.13642 1.83081,-1.76596 2.40265,-2.396c0.57422,-0.63264 1.13321,-1.28515 1.707,-1.932c0.57822,-0.65184 1.16196,-1.31066 1.797,-1.932c1.29608,-1.26813 2.03918,-1.83577 2.80002,-2.4c0.77316,-0.57338 1.58243,-1.11963 2.40298,-1.668c0.82745,-0.55299 1.6691,-1.09502 2.49301,-1.668c1.64636,-1.14492 2.4285,-1.76712 3.19467,-2.4c0.76254,-0.62988 1.50089,-1.28017 2.229,-1.932c0.72256,-0.64686 1.42874,-1.29903 2.13898,-1.932c1.39505,-1.24328 2.10175,-1.8314 2.82269,-2.41467c0.74396,-0.60189 1.53925,-1.22094 2.39249,-1.8825c0.9267,-0.71852 1.94745,-1.50188 3.0675,-2.3775c2.62573,-2.05269 4.14191,-3.26959 5.78534,-4.58933c1.74399,-1.4005 3.55704,-2.86566 5.418,-4.3665c1.88037,-1.5165 3.75214,-3.02831 5.59799,-4.5015c3.47934,-2.77686 5.08035,-4.02223 6.57333,-5.18266c1.39313,-1.08282 2.69925,-2.08918 3.91199,-3.045c1.1391,-0.89777 2.21136,-1.7476 3.19202,-2.595c1.83347,-1.58433 2.6431,-2.4045 3.41733,-3.212c0.75598,-0.78847 1.46835,-1.58801 2.1615,-2.3805c0.68414,-0.78222 1.34769,-1.5695 2.02649,-2.3355c1.3562,-1.53043 2.07208,-2.27129 2.81067,-3c0.74576,-0.73577 1.52267,-1.45686 2.3295,-2.1645c0.81848,-0.71786 1.66772,-1.42721 2.5545,-2.1195c1.82394,-1.42392 2.80679,-2.10817 3.82666,-2.82533c1.08231,-0.76108 2.25812,-1.56688 3.53552,-2.451c1.40402,-0.97177 2.95547,-2.04671 4.66049,-3.261c3.9975,-2.84697 6.2894,-4.54512 8.76401,-6.372c2.60617,-1.924 5.28882,-3.91846 8.013,-5.9295c2.71051,-2.00095 5.35812,-3.95761 7.923,-5.7945c4.59991,-3.29432 6.59286,-4.63092 8.36664,-5.77733c1.55847,-1.00725 2.95102,-1.85385 4.18951,-2.574c1.09415,-0.63622 2.08636,-1.17334 2.97449,-1.674c1.59409,-0.89862 2.32877,-1.3558 3.03067,-1.82667c0.68674,-0.4607 1.34235,-0.93646 1.974,-1.416c0.61899,-0.46992 1.21423,-0.94543 1.79401,-1.416c1.1257,-0.91364 1.66748,-1.36296 2.20401,-1.79867c0.5278,-0.42862 1.04907,-0.84963 1.56448,-1.2645c0.50992,-0.41046 1.01624,-0.81649 1.5195,-1.2195c1.0011,-0.80165 1.50092,-1.20231 2.004,-1.60133c0.50555,-0.40098 1.01685,-0.80239 1.539,-1.2c0.5285,-0.40243 1.06854,-0.80578 1.629,-1.2c1.15436,-0.81199 1.77008,-1.20234 2.39468,-1.59867c0.62939,-0.39936 1.26428,-0.79023 1.89301,-1.1805c0.61926,-0.3844 1.22598,-0.75751 1.80298,-1.1355c1.07959,-0.70723 1.55606,-1.05945 1.99869,-1.39867c0.41891,-0.32104 0.80725,-0.63928 1.17749,-0.945c0.35641,-0.29431 0.69748,-0.58527 1.04251,-0.855c0.67859,-0.53048 1.03918,-0.76836 1.40265,-1.00267c0.36356,-0.23438 0.73199,-0.45867 1.0965,-0.684l0.3595,-0.22533l0.3515,-0.22733l0.34052,-0.23133" id="svg_2" stroke-width="2" stroke="#000" fill="none"/>
  <path t="6605,6712,6712,6713,6713,6729,6730,6730,6730,6746,6746,6746,6747,6747,6762,6762,6762,6763,6763,6763,6779,6779,6780,6780,6780,6780,6780,6780,6795,6795,6795,6795,6795,6795,6795,6812,6812,6812,6812,6812,6812,6812,6828,6828,6828,6828,6828,6829,6829,6844,6845,6845,6845,6845,6845,6845,6861,6861,6861,6862,6862,6862,6862,6862,6878,6878,6878,6878,6879,6883,6883,6883,6903,6903,6903,6903,6903,6903,6903,6903,6903,6917,6917,6917,6917,6917,6917,6917,6918,6918,6933,6933,6933,6933,6933,6933,6933,6933,6949,6949,6949,6949,6950,6950,6950,6950,6965,6965,6965,6965,6965,6965,6965,6965,6965,6980,6980,6980,6980,6980,6980,6981,6981,6996,6996,6996,6996,6996,6996,6996,6997,6997,7012,7012,7012,7012,7012,7013,7013,7013,7034,7034,7035,7035,7035,7035,7035,7035,7055,7055,7055,7056,7056,7056,7056,7056,7056,7077,7077,7078,7078,7078,7078,7078,7078,7099,7099,7099,7099,7099,7100,7100,7100,7100,7133,7133,7134,7134,7134,7134,7134,7134,7138,7138,7138,7138,7138,7139,7139,7139,7139,7142,7142,7142,7142,7142,7142,7143,7143,7143,7145,7145,7145,7145,7145,7145,7145,7146,7146,7167,7168,7168,7168,7168,7168,7168,7168,7168,7189,7189,7189,7189,7190,7190,7190,7190,7190,7212,7212,7212,7213,7213,7213,7213,7213,7213,7215,7215,7216,7216,7216,7216,7216,7216,7217,7240,7240,7240,7240,7241,7241,7241,7241,7241,7290,7291,7291,7291,7291,7291,7291,7292,7292,7294,7294,7295,7295,7295,7295,7295,7295,7296,7297,7298,7298,7298,7298,7298,7299,7299,7299,7301,7302,7302,7302,7302,7303,7303,7324,7325,7325,7325,7325,7326,7326,7348,7348,7348,7348,7349,7349,7349,7352,7352,7352,7353,7353,7353,7353,7354,7354,7377,7377,7377,7378,7378,7378,7378,7378,7379,7399,7399,7400,7400,7400,7400,7400,7401,7401,7404,7404,7411,7411,7411,7411,7412,7412,7432,7432,7432,7433,7433,7433,7433,7436,7437,7437,7437,7437,7437,7438,7438,7458,7459,7459,7459,7459,7460,7460,7481,7481,7482,7482,7482,7482,7483,7504,7504,7505,7505,7505,7505,7525,7525,7526,7526" d="m217,217c5.27817,-3.5145 6.13316,-3.78764 6.9375,-3.97917c0.74306,-0.17693 1.77968,-0.45381 2.55716,-1.09233c0.54449,-0.44717 0.98262,-1.06906 1.83867,-1.9285c0.61774,-0.62018 1.33597,-1.20335 1.70834,-1.5c0.76187,-0.60693 1.95976,-1.49811 2.35832,-1.80051c0.8029,-0.60919 1.21231,-0.91719 2,-1.6075c0.40649,-0.35623 1.60603,-1.58687 2,-2.05617c0.40628,-0.48396 0.80476,-0.99474 1.60001,-2.05666c0.40242,-0.53737 0.79573,-1.08157 1.2,-1.6125c0.79169,-1.03973 1.59773,-2.00052 2.0045,-2.45683c0.40263,-0.45168 1.22998,-1.326 1.65266,-1.758c0.42664,-0.43602 1.76385,-1.77367 2.22816,-2.23584c0.47134,-0.46918 0.94872,-0.94333 1.4355,-1.416c0.97977,-0.95137 1.4735,-1.42369 2.47917,-2.33333c0.4964,-0.44899 0.99628,-0.88414 1.98933,-1.73067c0.48866,-0.41656 0.97678,-0.82286 1.45351,-1.23151c1.39671,-1.19727 1.83791,-1.60258 2.27449,-2.00583c0.87181,-0.80522 1.30272,-1.22034 1.744,-1.63467c0.90637,-0.85106 1.87027,-1.73262 2.3815,-2.18533c0.52472,-0.46468 1.0658,-0.93272 1.6185,-1.40399c0.55832,-0.47607 1.12131,-0.95256 2.25601,-1.89067c1.11337,-0.9205 1.66254,-1.36113 2.19598,-1.80267c0.52652,-0.43581 1.0563,-0.85956 2.04001,-1.77866c0.49332,-0.46091 0.98843,-0.93297 1.88,-2.00267c0.46033,-0.55232 0.88882,-1.15172 1.314,-1.7715c0.43369,-0.6322 0.85464,-1.28975 1.27798,-1.96049c0.42935,-0.68024 0.84982,-1.37766 1.74133,-2.76801c0.45038,-0.70238 0.91418,-1.39909 1.3905,-2.0865c0.4744,-0.68462 0.95804,-1.35527 1.45352,-2.00549c0.48828,-0.64076 0.96851,-1.2715 1.98932,-2.408c0.48972,-0.54523 0.99377,-1.05325 1.50449,-1.533c1.00177,-0.94109 1.52957,-1.37331 2.05267,-1.81067c0.52621,-0.43999 1.60989,-1.32253 2.16434,-1.77783c0.56424,-0.46335 1.71472,-1.41423 2.29935,-1.89932c0.59003,-0.48958 1.18375,-0.98355 1.78049,-1.4805c1.19888,-0.99841 1.79965,-1.49727 2.396,-2c0.59497,-0.5016 1.18478,-1.00543 1.76102,-1.5195c0.57315,-0.51131 1.13672,-1.02684 1.67099,-1.5645c1.05621,-1.0629 1.53302,-1.63181 2.00266,-2.19867c0.46771,-0.56453 0.91391,-1.14406 1.81866,-2.29066c0.45297,-0.57404 0.89572,-1.1604 1.88269,-2.25867c0.49875,-0.55501 1.03159,-1.08589 1.57648,-1.60951c0.54712,-0.52576 1.10959,-1.03793 1.67551,-1.54649c0.56506,-0.50777 1.13751,-1.00327 2.24802,-2.01067c0.54788,-0.49701 1.61093,-1.4985 2.13065,-2c0.5166,-0.4985 1.02609,-0.99924 1.53152,-1.5c0.50391,-0.49924 1.50449,-1.5 2.00464,-2.00017c1.00433,-1.00434 1.51053,-1.5105 2.02069,-2.02067c0.51517,-0.51517 1.03632,-1.03633 1.56448,-1.5645c1.08133,-1.08133 1.63519,-1.63682 2.20001,-2.19733c0.57086,-0.5665 1.14822,-1.13454 1.7355,-1.6965c0.58737,-0.56206 1.17743,-1.11795 1.78049,-1.6515c1.18658,-1.04982 1.79526,-1.53087 2.39868,-2c0.59662,-0.46384 1.19879,-0.90963 1.79999,-1.3485c0.59882,-0.43713 1.211,-0.85413 3,-2.1875c0.60358,-0.44985 1.20096,-0.9158 1.7955,-1.3905c0.59613,-0.47597 1.18588,-0.96101 1.76849,-1.4535c0.58109,-0.4912 1.15747,-0.98309 2.26935,-1.98933c0.54855,-0.49644 1.08377,-0.99879 1.6095,-1.5045c0.52359,-0.50365 1.54901,-1.52905 2.05267,-2.05267c0.50571,-0.52573 1.50616,-1.60799 2.00482,-2.16433c0.50403,-0.56232 1.00793,-1.13633 1.521,-1.7145c0.51956,-0.5855 1.04764,-1.17744 1.59299,-1.7685c0.55328,-0.59966 1.71539,-1.79921 2.32834,-2.39567c0.62167,-0.60495 1.26273,-1.20426 1.90802,-1.8105c0.64938,-0.6101 1.30234,-1.22152 1.944,-1.8465c0.64105,-0.62437 1.87793,-1.90417 2.46265,-2.56384c0.58066,-0.65509 1.13702,-1.32292 1.69202,-1.983c0.55035,-0.65459 1.09457,-1.30466 1.65601,-1.929c0.55603,-0.61835 1.71811,-1.77847 2.33731,-2.30267c0.61572,-0.52125 1.25864,-1.00291 1.90802,-1.467c0.64539,-0.46124 1.29947,-0.90013 1.944,-1.341c0.63815,-0.43649 1.87762,-1.31578 2.46231,-1.77783c0.578,-0.45677 1.13284,-0.93099 1.67102,-1.41451c0.53452,-0.48022 1.05286,-0.97239 1.56299,-1.4685c0.50854,-0.49458 1.509,-1.49551 2.00916,-1.99567c0.50119,-0.50117 1.00433,-1.00433 1.51053,-1.5105c0.51016,-0.51016 1.02533,-1.02534 1.54648,-1.5465c0.52817,-0.52818 1.6095,-1.6095 2.16434,-2.16433c0.56384,-0.56384 1.13568,-1.13567 1.71451,-1.7145c0.58484,-0.58484 1.17465,-1.17467 1.76849,-1.7685c0.59683,-0.59683 1.7955,-1.7955 2.39551,-2.3955c0.60001,-0.6 1.19998,-1.2 1.79999,-1.8c0.60001,-0.6 1.20001,-1.19999 1.80002,-1.8c0.59998,-0.59999 1.79974,-1.80025 2.39981,-2.39967c0.5986,-0.59792 1.19467,-1.19236 1.78952,-1.779c0.58881,-0.58068 1.17282,-1.15126 1.75348,-1.707c0.57004,-0.54556 1.68781,-1.58403 2.23602,-2.0715c0.53586,-0.47647 1.07059,-0.93587 1.60648,-1.3815c0.53314,-0.44337 1.07419,-0.87835 1.62451,-1.3095c0.55765,-0.43688 1.72275,-1.31951 2.33267,-1.77317c0.62341,-0.4637 1.25882,-0.93069 1.89749,-1.404c0.63965,-0.47402 1.27515,-0.94697 1.89749,-1.422c0.61096,-0.46635 2.30096,-1.82795 2.80783,-2.26733c0.49036,-0.42507 0.95917,-0.84735 1.85867,-1.67466c0.44055,-0.4052 0.8674,-0.82053 2.21735,-2.01083c0.45932,-0.40501 0.93436,-0.80085 1.87866,-1.62067c0.4762,-0.41342 0.95499,-0.8281 1.41599,-1.2645c1.38614,-1.31216 1.80432,-1.79882 2.23135,-2.28083c0.43173,-0.48732 0.86157,-0.98919 1.70532,-2.05267c0.43597,-0.54952 1.314,-1.7145 1.76935,-2.32383c0.46732,-0.62534 0.94406,-1.26624 1.44598,-1.908c0.51071,-0.653 1.04196,-1.30628 1.608,-1.944c0.57263,-0.64515 1.81415,-1.88328 2.48801,-2.46217c0.67825,-0.58268 1.3891,-1.13097 2.112,-1.6605c0.71918,-0.52681 1.44687,-1.02701 2.16599,-1.5165c0.7049,-0.47981 2.06027,-1.3963 2.6937,-1.84467c0.61185,-0.43309 1.19839,-0.8629 1.767,-1.2855c0.5567,-0.41376 1.10095,-0.82581 1.64099,-1.2315c0.53729,-0.40364 1.6218,-1.20615 2.17749,-1.6045c0.5603,-0.40166 1.12778,-0.79893 1.69351,-1.2c1.12549,-0.79788 1.67963,-1.19449 2.216,-1.6c1.0441,-0.78936 1.5347,-1.19087 2.46399,-2.0045c0.45871,-0.40162 0.9057,-0.81594 1.81067,-1.65267c0.46286,-0.42796 1.42648,-1.31121 1.93735,-1.76417c0.52377,-0.46442 1.60797,-1.404 2.15732,-1.87867c0.54935,-0.47467 1.09656,-0.94516 1.63199,-1.416c1.03839,-0.91313 1.52631,-1.36144 2.46268,-2.22683c0.45517,-0.42065 0.89844,-0.84405 1.81067,-1.65267c0.45923,-0.40708 1.42349,-1.21034 1.93735,-1.60433c1.0535,-0.80774 1.60678,-1.19117 2.15732,-1.57933c0.54819,-0.3865 1.0986,-0.75803 2.66666,-1.85417c0.49124,-0.34341 0.96643,-0.67272 1.84,-1.33067c0.41309,-0.31112 1.17001,-0.9315 2.16,-1.836l0.56268,-0.59733l0.49866,-0.58133l0.45068,-0.54933" id="svg_3" stroke-width="2" stroke="#000" fill="none"/>
  <path t="7973,8095,8095,8095,8095,8095,8096,8096,8096,8112,8112,8112,8112,8112,8112,8112,8112,8112,8129,8129,8129,8129,8129,8129,8129,8129,8130,8147,8148,8148,8148,8148,8148,8148,8148,8148,8167,8167,8167,8167,8167,8167,8167,8167,8168,8188,8188,8188,8188,8188,8188,8188,8188,8189,8207,8207,8207,8207,8208,8208,8208,8208,8208,8228,8228,8228,8229,8229,8229,8229,8229,8229,8230,8230,8230,8230,8230,8231,8231,8231,8231,8255,8255,8255,8256,8256,8256,8256,8256,8256,8281,8281,8281,8282,8282,8282,8282,8282,8282,8284,8284,8284,8284,8284,8284,8284,8284,8284,8309,8309,8309,8310,8310,8310,8310,8310,8310,8336,8336,8336,8336,8336,8337,8337,8337,8337,8364,8364,8364,8364,8364,8364,8365,8365,8365,8390,8390,8390,8390,8390,8390,8391,8391,8391,8392,8392,8392,8392,8393,8393,8393,8393,8393,8394,8395,8395,8395,8395,8395,8395,8395,8395,8397,8397,8397,8397,8397,8398,8398,8398,8398,8423,8423,8423,8423,8423,8423,8423,8424,8424" d="m226,214c7.036,-4.84334 7.55627,-5.36603 8.04201,-5.92334c0.49045,-0.56273 0.96091,-1.15771 1.43399,-1.76999c0.485,-0.6277 0.96552,-1.28815 2.024,-2.64c0.55933,-0.71436 1.15569,-1.44249 1.7805,-2.19c0.64577,-0.77258 1.32181,-1.56161 2.0235,-2.37c0.72191,-0.83167 1.46848,-1.68196 3.02933,-3.44c0.80853,-0.91068 1.63693,-1.83771 2.481,-2.78101c0.85725,-0.95804 1.72713,-1.92754 2.60701,-2.907c0.88744,-0.98787 1.78133,-1.98134 3.57866,-3.97867c0.90016,-1.00034 1.80199,-2.00208 2.7045,-3.009c0.90683,-1.01173 1.81763,-2.03152 2.73151,-3.063c0.92249,-1.04118 1.85495,-2.09378 3.73065,-4.26132c0.95837,-1.10751 1.92346,-2.24046 2.90851,-3.39c1.00296,-1.17047 2.02603,-2.36258 3.0795,-3.57001c1.07547,-1.23264 2.17191,-2.49474 4.51199,-5.03999c1.21054,-1.31668 2.46628,-2.63625 3.7485,-3.963c1.29242,-1.3373 2.60214,-2.66553 3.91949,-3.981c1.30838,-1.30652 2.60611,-2.59288 5.16534,-5.056c1.23172,-1.18546 2.44543,-2.33064 3.63751,-3.45151c1.17462,-1.10445 2.34216,-2.1938 3.5025,-3.2805c1.16135,-1.08763 2.33395,-2.17769 4.69333,-4.43466c1.21341,-1.16075 2.43985,-2.35475 3.681,-3.576c1.26025,-1.24004 2.52979,-2.50487 3.80698,-3.79199c1.29019,-1.3002 2.58853,-2.6144 5.17868,-5.29867c1.3038,-1.35118 2.60153,-2.71712 3.90451,-4.08601c1.30637,-1.37245 2.61426,-2.74931 3.93149,-4.12199c1.31909,-1.37465 2.63559,-2.75494 5.33066,-5.45867c1.3475,-1.35184 2.71265,-2.68209 4.077,-4.005c1.35834,-1.31709 2.71558,-2.61909 4.05902,-3.915c1.33121,-1.28409 2.65598,-2.54659 5.19733,-5.08c1.24252,-1.23864 2.44934,-2.48003 3.642,-3.7095c1.18335,-1.21987 2.35547,-2.4388 3.534,-3.6465c1.17947,-1.20865 2.35638,-2.4295 4.82401,-4.81067c1.25394,-1.21 2.54712,-2.40121 3.85349,-3.591c1.30832,-1.19156 2.62537,-2.36769 3.93451,-3.53699c1.29654,-1.15802 2.58582,-2.28909 5.04535,-4.53867c1.1864,-1.08512 2.33282,-2.16298 3.44699,-3.237c1.10178,-1.06206 2.18298,-2.13309 3.24899,-3.219c1.07205,-1.09208 2.14908,-2.2039 4.30402,-4.544c1.11679,-1.21277 2.23993,-2.47207 3.38998,-3.753c1.16995,-1.30307 2.35559,-2.62605 3.57001,-3.951c1.22556,-1.3371 2.45227,-2.69126 5.04001,-5.296c1.2951,-1.30362 2.62512,-2.56459 3.9585,-3.8055c1.32135,-1.22972 2.6441,-2.4254 3.94949,-3.5985c1.2803,-1.15054 2.54453,-2.25981 4.92532,-4.42933c1.13071,-1.03036 2.21036,-2.0415 3.25201,-3.0285c1.01428,-0.96108 1.99835,-1.90861 2.96399,-2.8395c0.95236,-0.91811 1.88995,-1.83435 3.784,-3.632c0.95148,-0.90304 1.91504,-1.79973 2.8815,-2.6955c0.96555,-0.8949 1.93134,-1.78329 2.8905,-2.6685c0.95184,-0.87846 1.89792,-1.74437 3.728,-3.46933c0.89307,-0.84177 1.76221,-1.67778 2.6145,-2.5005c0.83701,-0.80797 1.65573,-1.60431 2.46152,-2.3835c0.79056,-0.76446 1.56186,-1.5186 3.09067,-2.94933c0.74106,-0.69353 1.47433,-1.36068 2.19598,-2.001c0.6998,-0.62093 1.38388,-1.21146 2.052,-1.767c0.63937,-0.53164 1.2482,-1.03898 2.41867,-1.89867c0.52951,-0.38891 1.04041,-0.73011 1.52399,-1.0425c0.45526,-0.29409 0.89267,-0.56167 1.30801,-0.8175l0.39734,-0.24583l0.38132,-0.24083" id="svg_4" stroke-width="2" stroke="#000" fill="none"/>
  <path t="8887,9045,9045,9045,9045,9045,9062,9062,9062,9062,9062,9062,9079,9079,9079,9079,9079,9080,9096,9096,9096,9096,9096,9096,9096,9097,9142,9142,9142,9142,9142,9142,9142,9142,9143,9145,9145,9145,9145,9145,9145,9145,9146,9146,9147,9147,9147,9147,9147,9147,9167,9167,9167,9167,9167,9167,9167,9167,9185,9186,9186,9186,9186,9186,9186,9186,9206,9206,9206,9206,9206,9206,9206,9206,9206,9224,9225,9225,9225,9225,9225,9225,9225,9225,9246,9246,9246,9246,9246,9246,9246,9246,9246,9248,9248,9248,9248,9248,9248,9248,9248,9249,9269,9269,9269,9269,9269,9269,9269,9269,9288,9288,9288,9288,9288,9288,9288,9288,9288,9315,9315,9316,9316,9316,9316,9316,9316,9318,9318,9318,9318,9318,9318,9318,9318,9318,9347,9347,9347,9347,9348,9348,9348,9348,9348,9350,9350,9350,9350,9350,9350,9350,9350,9350,9378,9378,9379,9379,9379,9379,9379,9379,9379,9381,9381,9381,9381,9381,9381,9381,9382,9382,9410,9410,9410,9411,9411,9411,9411,9411,9411,9437,9437,9437,9437,9437,9437,9438,9438,9438,9465,9466,9466,9466,9466,9466,9466,9466,9467,9493,9493,9494,9494,9494,9494,9494,9494,9494,9496,9496,9496,9496,9496,9497,9497,9497,9497,9499,9499,9499,9499,9499,9499,9500,9500,9500,9503,9503,9503,9503,9504,9504,9504,9504,9504,9532,9532,9532,9532,9533,9533,9533,9533,9533,9536,9536,9536,9537,9537,9537,9537,9537,9537,9565,9565,9566,9566,9566,9566,9566,9566,9567,9569,9570,9570,9570,9570,9570,9571,9571,9571,9599,9600,9600,9600,9601,9601,9601,9601,9601,9605,9605,9605,9605,9605,9606,9606,9606,9606,9635,9635,9635,9636,9636,9636,9636,9636,9637,9638,9638,9639,9639,9639,9639,9639,9640,9640,9670,9670,9670,9671,9671,9671,9671,9672,9672,9674,9675,9675,9675,9675,9675,9676,9676,9676,9706,9706,9706,9707,9707,9707,9707,9708,9708,9710,9710,9710,9710,9711,9711,9711,9711,9713,9713,9714,9714,9743,9744,9744,9744,9771,9772,9772,9772,9772,9803,9803,9804,9804,9834,9834,9835,9835,9837,9837,9838,9838,9840" d="m236,226c2.42166,-5.05733 2.95197,-5.80275 3.54167,-6.5c0.30011,-0.35484 0.95358,-1.06049 1.97983,-2.24266c0.36693,-0.42267 0.73209,-0.86575 1.49933,-1.75734c0.38802,-0.45091 0.75687,-0.92041 1.97917,-2.16667c0.39159,-0.39925 1.20062,-1.13181 1.60001,-1.49333c0.80124,-0.7253 1.23694,-1.0677 2.39999,-2.34c0.41367,-0.45251 0.80539,-0.95285 1.2045,-1.4715c0.41037,-0.53329 1.23134,-1.66063 1.65266,-2.242c0.42801,-0.59062 1.30675,-1.7886 1.76418,-2.38634c0.4599,-0.60095 0.92975,-1.19693 1.40399,-1.78949c0.47308,-0.59111 0.94882,-1.17509 1.422,-1.75351c0.46814,-0.57225 1.38437,-1.69185 2.27002,-2.77184c0.43369,-0.52882 0.8653,-1.05161 1.3035,-1.5645c0.43784,-0.51245 1.33435,-1.53329 2.3125,-2.52083c0.5022,-0.50702 1.0321,-1.00146 1.57199,-1.4955c0.54276,-0.49666 1.09406,-0.98436 1.64401,-1.46851c0.54471,-0.47952 2.11948,-1.86696 2.60782,-2.31483c0.47562,-0.4362 0.94046,-0.86545 1.82199,-1.74199c0.43927,-0.43677 0.87363,-0.8847 1.3035,-1.34851c1.35345,-1.46025 1.80411,-2.00009 2.27451,-2.545c0.48032,-0.5564 0.96448,-1.12665 1.45352,-1.707c0.49463,-0.58698 0.99081,-1.18121 1.98932,-2.37866c0.5004,-0.60011 1.00165,-1.20219 1.509,-1.8045c0.51132,-0.60701 1.03073,-1.21799 1.56299,-1.8315c0.54037,-0.62286 1.09067,-1.25664 2.26135,-2.53067c0.60519,-0.65863 1.23428,-1.319 1.87198,-1.99049c0.64499,-0.67918 1.29672,-1.36174 1.944,-2.0535c0.6474,-0.69191 1.29831,-1.37703 2.51733,-2.78934c0.59808,-0.69289 1.16476,-1.39432 1.71902,-2.0865c0.54437,-0.67986 1.07068,-1.35257 1.59299,-2.00549c0.51041,-0.63805 0.99783,-1.27042 2.02133,-2.408c0.49002,-0.54466 0.99484,-1.04926 1.49551,-1.533c0.49011,-0.47353 0.98352,-0.92546 1.46848,-1.371c0.47873,-0.4398 0.96353,-0.86417 1.86935,-1.76266c0.452,-0.44836 0.88602,-0.91682 1.31848,-1.39049c0.43552,-0.47701 0.86337,-0.96881 1.758,-1.94734c0.45663,-0.49947 1.41968,-1.49944 1.93301,-1.99567c0.52261,-0.5052 1.06616,-1.00523 1.6185,-1.5105c0.55869,-0.51108 1.12595,-1.02321 1.69049,-1.54649c0.5675,-0.52603 2.22955,-2.16176 2.7655,-2.72684c0.53708,-0.56625 1.06668,-1.14258 1.60352,-1.716c0.53918,-0.57591 1.08093,-1.1554 1.6485,-1.716c1.14792,-1.13383 1.76932,-1.66734 2.39865,-2.2c0.63336,-0.53607 1.28268,-1.05867 1.93201,-1.584c0.64932,-0.52533 1.30136,-1.04475 1.93201,-1.584c1.24808,-1.06717 1.83099,-1.63145 2.39734,-2.20134c0.56238,-0.56589 1.10269,-1.14705 1.629,-1.73549c0.52435,-0.58626 1.03473,-1.18192 1.539,-1.7805c1.00684,-1.19517 1.50174,-1.79939 2.004,-2.39734c0.50208,-0.59773 1.00668,-1.19298 1.5195,-1.78049c0.51251,-0.58717 1.02985,-1.1697 1.56448,-1.7355c1.06857,-1.13087 1.63327,-1.6672 2.20001,-2.20267c0.56897,-0.53757 1.15079,-1.06788 1.7355,-1.6035c0.58994,-0.54037 1.1886,-1.08376 1.78049,-1.6485c1.20886,-1.15341 1.80176,-1.77069 2.39999,-2.4c0.60617,-0.63766 1.20926,-1.29208 1.81952,-1.9515c0.61505,-0.66458 1.2312,-1.33588 1.8645,-1.9965c1.27109,-1.32589 1.93387,-1.96354 2.59732,-2.6c0.66354,-0.63654 1.33444,-1.26546 1.99649,-1.9035c0.66196,-0.63796 1.32251,-1.27802 1.95151,-1.94849c1.2594,-1.34243 1.83331,-2.06842 2.40268,-2.8c0.57239,-0.73545 1.12622,-1.4923 1.6875,-2.2515c0.5654,-0.7648 1.12991,-1.54022 1.73248,-2.2965c1.22311,-1.53508 1.90393,-2.26752 2.59866,-2.99733c0.69931,-0.73462 1.42276,-1.4506 2.14801,-2.1645c0.72275,-0.71143 1.44904,-1.40932 2.14801,-2.1195c1.36591,-1.38778 1.9931,-2.0966 2.59866,-2.8c0.59604,-0.69236 1.16693,-1.39045 1.73248,-2.0805c0.56113,-0.68462 1.11353,-1.37061 1.6875,-2.0355c1.15054,-1.33279 1.77084,-1.96945 2.40402,-2.60133c0.63815,-0.63687 1.29901,-1.26115 1.97098,-1.884c0.67737,-0.62785 1.36868,-1.2512 2.061,-1.884c1.40005,-1.27969 2.09854,-1.93625 2.79868,-2.6c0.70419,-0.66758 1.40817,-1.34257 2.11951,-2.016c0.71396,-0.67591 1.431,-1.35316 2.16449,-2.016c1.47076,-1.3291 2.23355,-1.96542 2.99734,-2.6c0.76321,-0.63409 1.53299,-1.25745 2.29648,-1.884c0.76053,-0.62412 1.51834,-1.24417 2.2515,-1.884c1.45068,-1.26603 2.13202,-1.93197 2.80002,-2.60133c0.66501,-0.66637 1.31058,-1.34826 1.94849,-2.0355c0.63809,-0.68744 1.26761,-1.38496 1.9035,-2.0805c1.28116,-1.40128 1.93594,-2.1006 2.60001,-2.79467c0.66296,-0.69293 1.32947,-1.37452 1.99649,-2.0415c0.65704,-0.65699 1.30685,-1.29535 1.95151,-1.9065c1.22815,-1.16433 1.82434,-1.6939 2.39868,-2.20133c0.55441,-0.48983 1.0983,-0.95774 1.629,-1.413c0.51999,-0.44607 1.03497,-0.88266 1.539,-1.323c1.00732,-0.88002 1.50531,-1.33781 2.004,-1.80667c0.50571,-0.47546 1.01181,-0.96685 1.5195,-1.4745c0.5177,-0.51765 1.03979,-1.05303 1.56448,-1.6095c1.08859,-1.15453 1.63782,-1.76923 2.19867,-2.39733c0.5705,-0.63888 1.14255,-1.29093 1.716,-1.9515c0.57593,-0.66343 1.14838,-1.3301 1.716,-1.9965c1.11942,-1.31423 1.66287,-1.96085 2.19867,-2.59733c0.52853,-0.62786 1.04956,-1.24913 1.56448,-1.8645c0.51041,-0.60996 1.01648,-1.21624 1.5195,-1.8195c1.00156,-1.20114 1.49994,-1.80231 2.00269,-2.39867c0.50159,-0.59498 1.00543,-1.18479 1.5195,-1.761c0.51132,-0.57313 1.02682,-1.13672 1.56448,-1.671c1.0629,-1.05622 1.63104,-1.53342 2.19733,-2c0.56082,-0.46208 1.13049,-0.90066 1.6965,-1.329c0.55801,-0.4223 1.11398,-0.82875 1.65152,-1.239c1.04178,-0.79511 1.53033,-1.19762 1.996,-1.60267c0.45425,-0.39513 0.88501,-0.79491 1.28998,-1.2c0.39499,-0.3951 0.76892,-0.79238 1.11002,-1.2c0.65747,-0.78569 0.93387,-1.19748 1.20532,-1.59733c0.26581,-0.39155 0.51498,-0.78289 0.76801,-1.161c0.24838,-0.37121 0.49298,-0.73715 0.76801,-1.071c0.54169,-0.65754 0.86859,-0.93543 1.20132,-1.20133c0.33444,-0.26728 0.69009,-0.51088 1.05151,-0.7485c0.36261,-0.23841 0.73383,-0.46463 1.0965,-0.7035c0.72177,-0.47538 1.06418,-0.73485 1.39734,-1.00133c0.33121,-0.26491 0.65042,-0.54009 0.96448,-0.816c0.31125,-0.27344 0.90604,-0.83222 1.82068,-1.57867c0.58722,-0.47923 1.19269,-0.90518 1.74301,-1.374c0.81088,-0.69078 1.50928,-1.50068 1.95715,-2.06817c0.45761,-0.57981 1.15585,-1.48871 1.68533,-2.07783c0.53979,-0.6006 1.11292,-1.17897 1.716,-1.716c0.8808,-0.78433 1.50018,-1.22502 2.07782,-1.68533c0.84445,-0.67294 1.61438,-1.40882 2.06369,-1.95717c0.45178,-0.55135 1.05435,-1.44514 1.65698,-2.34233c0.39471,-0.58764 0.96417,-1.3925 1.31485,-1.8445l0.94366,-0.81433" id="svg_5" stroke-width="2" stroke="#000" fill="none"/>
  <path t="10875,10979,10979,10979,10979,10979,10979,10979,10979,10997,10998,10998,10998,10998,10998,10998,10998,10998,11019,11019,11019,11019,11020,11020,11020,11020,11020,11042,11042,11042,11042,11042,11042,11042,11042,11042,11064,11064,11064,11064,11065,11065,11065,11065,11065,11066,11067,11067,11067,11067,11067,11067,11067,11067,11090,11090,11090,11090,11090,11091,11091,11091,11091,11112,11112,11112,11112,11112,11112,11112,11112,11112,11114,11114,11114,11114,11114,11114,11114,11114,11114,11136,11137,11137,11137,11137,11137,11137,11137,11137,11168,11168,11168,11169,11169,11169,11169,11169,11169,11170,11170,11170,11170,11170,11171,11171,11171,11171,11206,11206,11206,11206,11206,11206,11206,11206,11206,11208,11208,11208,11208,11208,11208,11208,11208,11209,11241,11241,11241,11242,11242,11242,11242,11242,11242,11244,11244,11244,11244,11244,11244,11245,11245,11245,11278,11278,11278,11278,11279,11279,11279,11279,11279,11313,11313,11313,11313,11313,11313,11313,11314,11314,11315,11315,11315,11315,11316,11316,11316,11316,11316,11351,11352,11352,11352,11352,11352,11353,11353,11353,11355,11355,11355,11355,11355,11356,11356,11356,11356" d="m218,210c3.74333,-6.82167 4.16884,-7.48969 4.62334,-8.16167c0.46541,-0.68813 0.9559,-1.38298 1.47,-2.08501c0.52583,-0.71806 1.0692,-1.44852 2.23999,-2.92c0.60413,-0.75926 1.23497,-1.52065 1.88101,-2.2905c0.65526,-0.78084 1.32603,-1.56479 2.00699,-2.3535c0.68636,-0.79497 1.38081,-1.59113 2.77867,-3.18933c0.70007,-0.8004 1.40172,-1.60216 2.10899,-2.4045c0.7114,-0.80701 1.43086,-1.61797 2.16301,-2.4315c0.74049,-0.82281 1.49081,-1.65666 3.06133,-3.33067c0.80568,-0.85876 1.63623,-1.72108 2.481,-2.595c0.85654,-0.88609 1.72778,-1.77957 2.60701,-2.685c0.88811,-0.91457 1.7879,-1.83372 3.57866,-3.72c0.90349,-0.95169 1.80226,-1.91779 2.7045,-2.89049c0.90712,-0.97797 1.81572,-1.96423 2.73151,-2.95351c0.92055,-0.9944 1.84229,-1.99731 3.73065,-3.98933c0.95114,-1.00336 1.91632,-2.00099 2.88602,-3c0.97162,-1.00101 1.94785,-1.9995 2.922,-3c0.97318,-0.9995 1.94833,-1.99329 3.85867,-4c0.94882,-0.99667 1.88373,-1.99901 2.814,-3c0.92841,-0.99901 1.85211,-2.0005 2.77798,-3c0.92679,-1.0005 1.85165,-2.00662 3.74133,-4c0.95132,-1.00351 1.9176,-2.00235 2.8905,-3.0045c0.97778,-1.0072 1.96417,-2.01585 2.95352,-3.03149c0.99429,-1.02069 1.99725,-2.04301 3.98932,-4.13068c1.00333,-1.05148 2.00101,-2.11639 3,-3.18599c1.00101,-1.07174 1.99951,-2.1478 3,-3.22201c0.99951,-1.07313 1.99323,-2.14775 4,-4.25867c0.9968,-1.04853 1.99957,-2.0844 3.00449,-3.114c1.00443,-1.02908 2.01535,-2.05366 3.03152,-3.078c1.02014,-1.02834 2.04907,-2.05892 4.13065,-4.14133c1.05472,-1.05513 2.11942,-2.11926 3.19052,-3.195c1.07959,-1.08425 2.16513,-2.17855 3.25348,-3.285c1.09534,-1.11354 2.19772,-2.23323 4.38934,-4.52c1.10336,-1.15128 2.20047,-2.31566 3.2955,-3.486c1.09564,-1.17099 2.18478,-2.3463 3.26849,-3.522c1.07996,-1.17163 2.15158,-2.3405 4.26935,-4.65867c1.04611,-1.14509 2.08453,-2.28473 3.12299,-3.4185c1.03888,-1.13423 2.08356,-2.27064 3.14099,-3.4095c1.0679,-1.15015 2.14951,-2.31547 4.40268,-4.672c1.16013,-1.21336 2.35226,-2.43705 3.5625,-3.6765c1.22305,-1.25256 2.45883,-2.51051 3.69751,-3.7755c1.23965,-1.26601 2.48056,-2.52502 4.90665,-5.048c1.19357,-1.24124 2.36133,-2.47609 3.51001,-3.696c1.13129,-1.20145 2.23984,-2.38749 3.32999,-3.552c1.06985,-1.14281 2.11392,-2.26714 4.16,-4.41867c0.98773,-1.03864 1.96362,-2.04833 2.92801,-3.0375c0.953,-0.97748 1.90433,-1.94267 2.85599,-2.9025c0.95367,-0.96184 1.91687,-1.92715 3.88269,-3.89333c1.0119,-1.01208 2.05597,-2.05601 3.1485,-3.1395c1.14874,-1.13925 2.37006,-2.34198 3.6795,-3.6165c1.40274,-1.36532 2.91315,-2.83127 6.33865,-6.07733c1.91479,-1.81449 3.95206,-3.72016 6.07199,-5.691c2.16266,-2.01056 4.34146,-4.02083 6.504,-5.997c2.10223,-1.92107 4.10535,-3.76089 7.75735,-6.97867c1.55035,-1.36601 2.93481,-2.54914 4.16699,-3.567c1.07803,-0.89054 2.03525,-1.64934 2.88901,-2.289c0.74841,-0.56074 1.41986,-1.04382 2.61066,-1.81067c0.53134,-0.34218 1.04272,-0.64749 1.5285,-0.933c0.46231,-0.27172 0.90918,-0.525 1.33951,-0.771c0.41867,-0.23934 0.83392,-0.46768 1.63199,-0.96267c0.40256,-0.24967 0.79767,-0.51353 1.18649,-0.7815c0.38318,-0.26408 0.75101,-0.531 1.1055,-0.7905l0.33652,-0.2515l0.31549,-0.2405" id="svg_6" stroke-width="2" stroke="#000" fill="none"/>
  <path t="11704,11795,11796,11796,11796,11796,11796,11796,11796,11813,11814,11814,11814,11814,11814,11814,11814,11814,11835,11835,11835,11835,11835,11835,11835,11835,11835,11858,11858,11858,11858,11858,11858,11858,11858,11859,11882,11882,11882,11882,11882,11882,11882,11882,11882,11884,11884,11884,11884,11884,11884,11884,11884,11885,11909,11909,11909,11909,11909,11909,11909,11909,11909,11929,11930,11930,11930,11930,11930,11930,11930,11930,11951,11951,11951,11951,11951,11951,11951,11951,11951,11983,11983,11983,11983,11983,11983,11983,11983,11983,11986,11986,11986,11986,11986,11986,11986,11987,11987,11988,11988,11989,11989,11989,11989,11989,11989,11989,12022,12022,12022,12022,12022,12022,12022,12022,12023,12024,12024,12024,12024,12024,12024,12025,12025,12025,12058,12058,12059,12059,12059,12059,12059,12059,12059,12061,12061,12061,12061,12061,12062,12062,12062,12062,12063,12064,12064,12064,12064,12064,12064,12064,12064,12098,12098,12098,12098,12098,12099,12099,12099,12099" d="m206,205c5.06467,-3.96483 5.65894,-4.45677 6.276,-4.9805c0.64435,-0.54686 1.30931,-1.12141 1.992,-1.7235c0.70473,-0.62152 1.42891,-1.26248 2.89867,-2.62933c0.75893,-0.7058 1.52252,-1.43739 2.295,-2.19c0.7876,-0.76735 1.58244,-1.55757 2.38499,-2.37c0.81749,-0.82755 1.64673,-1.67361 3.32001,-3.44c0.85863,-0.9064 1.72134,-1.83733 2.5995,-2.78101c0.89117,-0.95766 1.7941,-1.92943 2.71649,-2.907c0.93393,-0.98979 1.87558,-1.99493 3.85066,-3.97867c1.0034,-1.0078 2.04022,-2.00923 3.099,-3.02251c1.07983,-1.03343 2.19263,-2.08171 3.33301,-3.15749c1.17229,-1.10588 2.38603,-2.23898 4.90134,-4.65334c1.32272,-1.26964 2.67247,-2.58749 4.04849,-3.93901c1.39868,-1.37378 2.80667,-2.76833 4.2195,-4.17299c1.41284,-1.40466 2.81491,-2.8051 5.56534,-5.55467c1.33612,-1.33571 2.64725,-2.64745 3.94199,-3.9375c1.28125,-1.2766 2.55652,-2.54317 3.83401,-3.80251c1.28052,-1.26234 2.56979,-2.53307 5.224,-5.09332c1.36115,-1.31297 2.75391,-2.63815 4.16699,-3.981c1.42953,-1.35849 2.87524,-2.72673 4.32901,-4.10699c1.46091,-1.38705 2.92914,-2.77463 5.83734,-5.57867c1.44839,-1.3965 2.88226,-2.79768 4.30948,-4.1955c1.42212,-1.39285 2.83582,-2.78418 4.24652,-4.1685c1.40564,-1.37936 2.80237,-2.75785 5.61066,-5.46934c1.39688,-1.34874 2.79953,-2.68468 4.20901,-4.0095c1.40918,-1.32452 2.82892,-2.6404 4.26297,-3.9465c1.43863,-1.31026 2.88635,-2.62344 5.86136,-5.21067c1.50345,-1.30749 3.03589,-2.60435 4.58099,-3.909c1.55621,-1.31403 3.1286,-2.63114 4.707,-3.96301c1.58899,-1.3408 3.19461,-2.68337 6.37866,-5.46133c1.60675,-1.40182 3.20273,-2.83298 4.79999,-4.2765c1.60275,-1.44848 3.2005,-2.91046 4.80002,-4.3755c1.60049,-1.46596 3.19348,-2.93914 6.39999,-5.848c1.59659,-1.44839 3.19608,-2.88156 4.7955,-4.3005c1.59128,-1.41172 3.18097,-2.80676 4.76849,-4.1835c1.57617,-1.36691 3.14221,-2.72068 6.26935,-5.34933c1.5405,-1.29494 3.07562,-2.56207 4.59598,-3.81c1.50101,-1.23205 2.98682,-2.44064 4.45203,-3.63c1.44214,-1.17064 2.86404,-2.31666 5.61865,-4.56c1.33682,-1.08871 2.64484,-2.16167 3.9285,-3.219c1.26428,-1.04136 2.50949,-2.07209 3.7395,-3.093c1.21899,-1.01176 2.42838,-2.01822 4.832,-4.02133c1.19968,-0.99978 2.39786,-1.99778 3.58649,-3c1.18338,-0.9978 2.35492,-1.9955 3.50552,-3c1.14038,-0.99556 2.27191,-1.97873 4.40799,-4c1.0452,-0.98902 2.04575,-1.9916 3.02399,-2.982c0.96039,-0.97233 1.89127,-1.93604 2.80801,-2.874c0.89597,-0.91668 1.75751,-1.82471 3.50134,-3.47733c0.83469,-0.79101 1.67221,-1.52866 2.496,-2.229c0.79773,-0.67817 1.58469,-1.31598 2.35199,-1.923c0.74014,-0.58554 1.46249,-1.13714 2.81866,-2.18133c0.63589,-0.48962 1.2439,-0.96112 1.82401,-1.419c0.55853,-0.44084 1.09265,-0.87267 1.608,-1.293l0.49731,-0.41233l0.48135,-0.40633" id="svg_7" stroke-width="2" stroke="#000" fill="none"/>
  <path t="12384,12494,12495,12495,12495,12495,12495,12495,12495,12518,12518,12518,12518,12518,12518,12518,12518,12518,12542,12542,12542,12542,12542,12543,12543,12543,12543,12569,12569,12569,12569,12569,12569,12569,12570,12570,12595,12595,12595,12595,12595,12595,12595,12595,12595,12619,12619,12619,12619,12619,12619,12619,12619,12619,12621,12621,12621,12621,12621,12621,12621,12621,12621,12622,12622,12622,12622,12622,12623,12623,12623,12623,12659,12659,12659,12660,12660,12660,12660,12660,12660,12663,12663,12663,12663,12663,12663,12663,12663,12663,12701,12702,12702,12702,12702,12702,12702,12702,12702,12740,12740,12740,12740,12740,12740,12740,12740,12740" d="m234,193c5.06517,-3.96533 5.66322,-4.46043 6.28951,-4.994c0.66318,-0.56499 1.35872,-1.16995 2.0865,-1.81799c0.76871,-0.68448 1.57793,-1.40947 3.29066,-3.02133c0.92433,-0.86989 1.88065,-1.7953 2.871,-2.77051c1.03111,-1.01534 2.09108,-2.07999 3.17699,-3.1935c1.12157,-1.15005 2.27388,-2.33897 4.61868,-4.86934c1.21667,-1.31297 2.44049,-2.67273 3.69449,-4.05299c1.27533,-1.40375 2.5704,-2.82751 3.90149,-4.25101c1.34521,-1.4386 2.69534,-2.89851 5.57068,-5.696c1.4476,-1.4084 2.9501,-2.77324 4.4715,-4.13249c1.53061,-1.36748 3.09088,-2.7218 4.66049,-4.08751c1.58139,-1.37596 3.19131,-2.7451 6.36801,-5.61333c1.61072,-1.4543 3.2113,-2.95645 4.82251,-4.4895c1.63556,-1.55621 3.28333,-3.15462 4.95749,-4.7865c1.70755,-1.66441 3.44168,-3.37444 7.05334,-6.89067c1.87143,-1.82198 3.79129,-3.6754 5.74799,-5.562c1.98727,-1.91608 4.00262,-3.85402 6.03601,-5.814c2.04865,-1.97469 4.11044,-3.95605 8.216,-7.95734c2.0484,-1.99637 4.08154,-3.9971 6.1095,-5.991c2.02136,-1.98744 4.03427,-3.96942 6.04648,-5.937c2.00418,-1.95974 3.99576,-3.91555 8.01068,-7.73866c1.9928,-1.89758 3.99536,-3.76469 5.98651,-5.6235c1.98083,-1.84918 3.95474,-3.68502 5.90549,-5.5245c1.94022,-1.82955 3.87924,-3.64042 7.608,-7.352c1.84879,-1.84026 3.64566,-3.70652 5.41949,-5.5635c1.75546,-1.83774 3.47467,-3.66725 5.17651,-5.4645c1.6745,-1.76839 3.30197,-3.52167 6.57065,-6.80533c1.5769,-1.58413 3.15414,-3.0942 4.71002,-4.557c1.52429,-1.4331 3.03854,-2.81958 4.53,-4.179c1.46857,-1.33856 2.93161,-2.64339 5.75998,-5.264c1.39743,-1.29479 2.77542,-2.60582 4.155,-3.927c1.3938,-1.3348 2.8027,-2.69865 4.24503,-4.089c1.48102,-1.42767 3.00345,-2.90642 6.26666,-5.984c1.72995,-1.63154 3.51996,-3.28949 5.3295,-4.962c1.79977,-1.66348 3.56631,-3.288 5.26648,-4.854l1.60617,-1.482l1.48318,-1.374" id="svg_8" stroke-width="2" stroke="#000" fill="none"/>
  <path t="13220,13311,13311,13311,13311,13311,13311,13311,13311,13328,13328,13328,13328,13328,13328,13329,13329,13329,13345,13345,13345,13345,13345,13345,13345,13346,13346,13361,13361,13361,13361,13362,13362,13362,13362,13362,13378,13378,13378,13379,13379,13379,13379,13379,13379,13396,13396,13396,13396,13396,13396,13396,13396,13397,13411,13412,13412,13412,13412,13412,13412,13412,13412,13428,13429,13429,13429,13430,13430,13430,13430,13430,13443,13443,13443,13443,13444,13444,13444,13444,13444,13461,13461,13461,13461,13462,13462,13462,13462,13462,13484,13484,13484,13484,13484,13484,13484,13484,13484,13507,13507,13507,13507,13507,13507,13508,13508,13508,13535,13535,13535,13535,13535,13535,13535,13536,13536,13561,13561,13561,13561,13561,13561,13561,13561,13562" d="m112,300c3.74333,-3.08633 4.17619,-3.54141 4.62334,-4.03766c0.47303,-0.52496 0.96116,-1.08633 1.46999,-1.677c0.53122,-0.61664 1.07814,-1.26294 2.24001,-2.61868c0.60902,-0.71063 1.23856,-1.43991 1.89,-2.18549c0.66853,-0.76511 1.35796,-1.5455 2.07,-2.3385c0.72792,-0.8107 1.47212,-1.63803 3.04,-3.30933c0.80613,-0.85931 1.64014,-1.72513 2.4945,-2.60852c0.87495,-0.90466 1.77664,-1.82867 2.70149,-2.77948c0.95149,-0.97821 1.93488,-1.9827 3.97067,-4.112c1.06691,-1.11591 2.1528,-2.26859 3.258,-3.444c1.11882,-1.18991 2.24159,-2.38971 3.366,-3.58801c1.11761,-1.19104 2.2182,-2.37085 4.37601,-4.63467c1.03355,-1.08432 2.0497,-2.13425 3.05099,-3.16498c0.99339,-1.02258 1.99106,-2.04297 2.99701,-3.07501c1.0247,-1.05128 2.07977,-2.12842 4.28532,-4.42667c1.17691,-1.22638 2.39456,-2.51085 3.65251,-3.843c1.29541,-1.37183 2.61899,-2.78139 3.9675,-4.22099c1.36983,-1.46237 2.75346,-2.94388 5.54666,-5.936c1.39973,-1.49944 2.79668,-2.99661 4.19099,-4.4865c1.38704,-1.48212 2.76601,-2.95226 4.13701,-4.4055c1.35635,-1.43774 2.69455,-2.85851 5.33867,-5.608c1.2872,-1.3385 2.56076,-2.64586 3.8235,-3.924c1.2453,-1.2605 2.48495,-2.4968 3.72449,-3.70801c1.22951,-1.20143 2.45415,-2.39357 4.95201,-4.70132c1.24762,-1.15266 2.51404,-2.28354 3.78149,-3.4095c1.26454,-1.12337 2.53175,-2.23549 3.7905,-3.34651c1.25226,-1.1053 2.50421,-2.19589 4.92801,-4.41066c1.19606,-1.09291 2.36252,-2.19334 3.50999,-3.2865c1.13249,-1.07889 2.24034,-2.15065 3.33,-3.20551c1.07033,-1.03615 2.1129,-2.05943 4.16,-4.008c0.98642,-0.93893 1.95801,-1.84338 2.9055,-2.724c0.92319,-0.85802 1.82526,-1.69096 2.69849,-2.508c0.8504,-0.79567 1.68443,-1.56471 3.22934,-3.10133c0.742,-0.73802 1.44507,-1.47508 2.12399,-2.196c0.65967,-0.70047 1.29202,-1.38795 1.908,-2.052c0.59669,-0.64326 1.16476,-1.27498 2.30133,-2.41867c0.53835,-0.54172 1.07478,-1.04562 1.60051,-1.5195c0.50513,-0.45532 1.00093,-0.87964 1.48349,-1.2765c0.46124,-0.37933 0.90637,-0.73499 1.74934,-1.37067c0.38803,-0.29262 0.75856,-0.56203 1.11,-0.81c0.32866,-0.2319 0.64,-0.44 0.92999,-0.63l0.27,-0.17l0.25,-0.14999" id="svg_9" stroke-width="2" stroke="#000" fill="none"/>
  <path t="13799,13861,13861,13861,13861,13861,13861,13861,13862,13862,13878,13878,13878,13878,13878,13878,13879,13879,13879,13894,13894,13894,13895,13895,13895,13895,13895,13895,13911,13911,13911,13911,13911,13911,13912,13912,13912,13928,13928,13928,13928,13929,13929,13929,13929,13929,13945,13945,13945,13945,13945,13945,13946,13946,13946,13960,13960,13960,13960,13960,13960,13960,13960,13960,13978,13978,13978,13979,13979,13979,13979,13979,13979,13994,13994,13994,13994,13994,13994,13994,13994,13994,14016,14016,14016,14016,14016,14016,14016,14016,14016,14040,14040,14041,14041,14041,14041,14041,14041,14041,14066,14066,14066,14066,14066,14066,14066,14066,14066,14069,14069,14069,14069,14069,14069,14070,14070,14070" d="m118,312c5,-6.16666 5.50099,-6.82129 6.004,-7.48666c0.50999,-0.67462 1.02573,-1.36176 1.5585,-2.05499c0.54319,-0.70679 1.10161,-1.42603 1.6935,-2.14502c1.22879,-1.49265 1.90509,-2.23856 2.60133,-3.00266c0.71501,-0.7847 1.46101,-1.57898 2.226,-2.39401c0.78433,-0.83563 1.5918,-1.68854 2.40601,-2.57397c1.68661,-1.8342 2.53642,-2.80426 3.39867,-3.80267c0.8822,-1.02151 1.77223,-2.07761 2.6745,-3.16501c0.92313,-1.11255 1.85896,-2.25787 2.80949,-3.435c1.96678,-2.43561 2.97104,-3.70447 4,-4.99466c1.04671,-1.31247 2.10858,-2.64435 3.19051,-3.987c1.09273,-1.35605 2.19728,-2.71997 3.3255,-4.077c2.26588,-2.72537 3.42984,-4.06351 4.59866,-5.39868c1.17117,-1.33786 2.35847,-2.66937 3.55501,-4.00351c1.20346,-1.34186 2.42143,-2.68771 3.64499,-4.04849c2.48291,-2.76138 3.73616,-4.17264 5,-5.60133c1.27617,-1.44263 2.55968,-2.90163 3.85501,-4.371c1.30466,-1.47995 2.61707,-2.96994 3.94499,-4.461c2.6741,-3.00259 4.03154,-4.49968 5.39734,-5.99333c1.36554,-1.49336 2.73758,-2.97552 4.116,-4.4415c1.37094,-1.45801 2.74045,-2.89771 4.116,-4.3065c2.70386,-2.76921 4.05872,-4.09435 5.39334,-5.39732c1.31244,-1.28131 2.61176,-2.5296 3.88649,-3.7545c1.24927,-1.20042 2.47577,-2.37144 3.6615,-3.52951c2.28523,-2.23193 3.36076,-3.32819 4.40401,-4.40533c1.02269,-1.05592 2.01741,-2.10667 2.99699,-3.1485c0.9724,-1.03418 1.9359,-2.07097 2.907,-3.1035c1.96376,-2.088 2.97514,-3.13948 3.99734,-4.196c1.02313,-1.05748 2.04546,-2.10387 3.054,-3.138c0.98878,-1.01387 1.95265,-1.99879 2.87399,-2.95799c1.71556,-1.78606 2.48358,-2.61485 3.19734,-3.39867c0.67207,-0.73804 1.2984,-1.44456 1.88699,-2.1225c0.56332,-0.64883 1.09935,-1.28055 1.617,-1.89751c1.01062,-1.20447 1.50729,-1.80617 2.004,-2.40134c0.4903,-0.58749 0.97145,-1.16312 1.4415,-1.722c0.45396,-0.53976 0.88936,-1.05606 1.3065,-1.54199c0.75304,-0.87721 1.09056,-1.25603 1.39867,-1.60001c0.28062,-0.31329 0.53867,-0.59734 0.774,-0.858l0.21533,-0.24066l0.19733,-0.22467l0.18134,-0.21266" id="svg_10" stroke-width="2" stroke="#000" fill="none"/>
  <path t="14322,14379,14379,14379,14379,14379,14379,14379,14379,14379,14394,14394,14394,14394,14394,14395,14395,14396,14396,14443,14443,14443,14443,14443,14443,14443,14443,14443,14445,14445,14445,14445,14445,14445,14445,14445,14445,14447,14447,14447,14447,14447,14447,14447,14447,14447,14470,14470,14470,14470,14470,14470,14470,14470,14470,14499,14499,14499,14499,14499,14499,14499,14500,14500,14502,14503,14503,14503,14503,14503,14503,14503,14503,14534,14534,14534,14534,14535,14535,14535,14535,14535,14537,14537,14537,14537,14538,14538,14538,14538,14538" d="m141,294c15,-18.66666 16.27026,-20.22937 17.49066,-21.72134c1.17432,-1.43564 2.3145,-2.82281 3.42601,-4.1745c1.09116,-1.32693 2.17195,-2.63858 3.246,-3.94949c2.17328,-2.65253 3.28099,-4.01904 4.41066,-5.41199c1.15033,-1.4184 2.31888,-2.86224 3.50999,-4.326c1.20888,-1.48558 2.43604,-2.9906 3.69,-4.50601c2.55194,-3.08401 3.86661,-4.6349 5.19867,-6.196c1.34358,-1.5746 2.70766,-3.15329 4.0905,-4.73549c1.39182,-1.59248 2.79944,-3.18744 4.22549,-4.7805c2.87018,-3.2063 4.33072,-4.80075 5.79601,-6.396c1.46605,-1.59608 2.93883,-3.18367 4.416,-4.761c1.47218,-1.57201 2.94368,-3.13081 4.416,-4.67101c2.91013,-3.04425 4.36041,-4.52853 5.79333,-5.996c1.41411,-1.4482 2.81212,-2.87054 4.18649,-4.27049c1.34962,-1.37473 2.67393,-2.72083 3.9615,-4.0455c2.48166,-2.55318 3.65814,-3.79245 4.80133,-5c1.11411,-1.17682 2.19638,-2.33023 3.25801,-3.4545c1.03972,-1.10106 2.05969,-2.18178 3.07799,-3.22951c1.99438,-2.05205 3.00127,-3.03502 4.00134,-4.00133c0.98698,-0.95364 1.97049,-1.88161 2.9415,-2.79001c0.95302,-0.89157 1.89226,-1.75865 2.8065,-2.61c1.75841,-1.63742 2.5919,-2.42973 3.40134,-3.2c0.78789,-0.74976 1.55463,-1.48288 2.31299,-2.19c0.74303,-0.69284 1.47673,-1.3699 2.22301,-2.00999c1.46866,-1.2597 2.23515,-1.836 2.99866,-2.40134c0.75491,-0.55896 1.51225,-1.09088 2.25751,-1.6095c0.72812,-0.5067 1.44228,-0.99075 2.1225,-1.4745c1.28085,-0.91087 1.85779,-1.36072 2.39468,-1.79866c0.50723,-0.41373 0.96933,-0.82133 1.39948,-1.20601l0.39517,-0.36465l0.36118,-0.34267l0.32816,-0.31868" id="svg_11" stroke-width="2" stroke="#000" fill="none"/>
  <path t="14780,14878,14878,14878,14878,14878,14878,14878,14878,14879,14893,14893,14893,14893,14893,14893,14893,14893,14893,14911,14911,14911,14911,14912,14912,14912,14912,14912,14928,14928,14928,14928,14928,14928,14928,14928,14929,14944,14944,14944,14944,14944,14944,14944,14944,14944,14963,14963,14964,14964,14964,14964,14964,14964,14964,14990,14990,14990,14990,14990,14990,14990,14990,14990,15019,15019,15019,15019,15019,15019,15019,15020,15020,15021,15021,15021,15021,15021,15021,15022,15022,15022,15049,15049,15049,15049,15049,15049,15049,15050,15050" d="m148,304c11.5,-12.83334 12.54106,-14.0755 13.55066,-15.32132c1.00505,-1.2402 1.99641,-2.49463 2.99101,-3.76202c1.0081,-1.28461 2.02826,-2.59985 3.08099,-3.94199c2.20564,-2.81195 3.38203,-4.28427 4.604,-5.80002c1.25629,-1.55832 2.5508,-3.14606 3.8775,-4.758c1.3466,-1.63611 2.71466,-3.28506 4.10249,-4.93799c2.786,-3.31818 4.19203,-4.95908 5.59601,-6.59732c1.40469,-1.6391 2.81827,-3.27768 4.239,-4.92302c1.42993,-1.65599 2.87413,-3.32407 4.32899,-5.013c2.96564,-3.44276 4.47305,-5.20874 5.99867,-6.99866c1.54138,-1.80841 3.09178,-3.63351 4.65149,-5.4675c1.56429,-1.83936 3.12885,-3.68019 4.6965,-5.51251c3.11169,-3.63701 4.6588,-5.42493 6.19467,-7.19199c1.51982,-1.7486 3.02867,-3.47243 4.5255,-5.1705c1.47786,-1.67657 2.9407,-3.32632 4.3905,-4.94551c2.83289,-3.16385 4.22739,-4.69563 5.60133,-6.20267c1.35474,-1.48595 2.69763,-2.94896 4.02899,-4.39349c1.31931,-1.43146 2.63216,-2.84949 3.93901,-4.2585c2.60161,-2.80498 3.90152,-4.20329 5.196,-5.59601c1.28386,-1.38129 2.55251,-2.74475 3.80249,-4.08299c1.22337,-1.30975 2.41605,-2.58415 3.5775,-3.813c2.18904,-2.31607 3.21678,-3.38481 4.19867,-4.39732c0.93558,-0.96474 1.83478,-1.87988 2.703,-2.748c0.83322,-0.83313 1.64124,-1.62959 2.43301,-2.388c1.51752,-1.45354 2.26816,-2.13736 3.00266,-2.80534c0.71689,-0.65196 1.42078,-1.28062 2.10599,-1.89c0.66412,-0.59061 1.30881,-1.15833 1.92603,-1.70999c1.1601,-1.0369 1.69403,-1.52831 2.19864,-2c0.47968,-0.44839 0.92935,-0.88 1.35452,-1.29001l0.40015,-0.39l0.37619,-0.37l0.35315,-0.35001" id="svg_12" stroke-width="2" stroke="#000" fill="none"/>
  <path t="15282,15377,15378,15378,15378,15378,15378,15378,15378,15378,15393,15393,15393,15393,15393,15393,15393,15393,15393,15411,15411,15411,15411,15411,15411,15412,15412,15412,15430,15430,15430,15430,15430,15430,15430,15430,15430,15446,15446,15446,15446,15446,15446,15446,15446,15447,15463,15463,15463,15463,15463,15463,15463,15463,15463,15487,15488,15488,15488,15488,15488,15488,15488,15488,15512,15512,15512,15512,15512,15512,15512,15512,15512,15514,15514,15514,15514,15514,15514,15514,15514,15514" d="m152,315c11.5,-16 12.53046,-17.37604 13.55066,-18.69199c0.99463,-1.28296 1.98799,-2.52948 2.99101,-3.74551c0.99971,-1.21201 2.02098,-2.41553 3.08099,-3.6105c2.19081,-2.46976 3.38261,-3.71909 4.60266,-5.01334c1.25391,-1.33014 2.54736,-2.68616 3.858,-4.0845c1.33743,-1.42694 2.69608,-2.88376 4.03801,-4.39948c2.74097,-3.09592 4.06601,-4.73398 5.39732,-6.39603c1.34615,-1.68057 2.67903,-3.40134 4.02301,-5.142c1.35738,-1.75803 2.71695,-3.5412 4.11299,-5.32199c2.82845,-3.60797 4.30362,-5.39957 5.79868,-7.19467c1.50323,-1.80493 3.03188,-3.60123 4.56749,-5.39999c1.53772,-1.80124 3.08344,-3.59567 4.6125,-5.39999c3.04352,-3.5914 4.52602,-5.39725 5.996,-7.19334c1.45866,-1.78226 2.89551,-3.55592 4.32899,-5.30249c1.41721,-1.72673 2.81844,-3.43051 4.239,-5.0775c2.77505,-3.21738 4.19351,-4.72707 5.59734,-6.19867c1.37904,-1.44563 2.76015,-2.83984 4.12201,-4.203c1.33685,-1.33813 2.66112,-2.63892 3.942,-3.933c2.48726,-2.51291 3.66019,-3.76456 4.79599,-4.99867c1.10841,-1.20436 2.17043,-2.39236 3.19951,-3.5475c0.9962,-1.11823 1.94981,-2.20421 2.88449,-3.2325c1.74922,-1.92441 2.59175,-2.78889 3.40134,-3.60133c0.77065,-0.77336 1.51973,-1.49628 2.235,-2.187c0.68475,-0.66125 1.34781,-1.29021 1.965,-1.91701c1.17505,-1.19334 1.70056,-1.80273 2.20267,-2.40132c0.48642,-0.57993 0.93866,-1.15334 1.37399,-1.7025l0.41534,-0.52417l0.39734,-0.49417l0.38132,-0.45917" id="svg_13" stroke-width="2" stroke="#000" fill="none"/>
  <path t="15871,16060,16061,16061,16061,16061,16061,16061,16078,16078,16078,16078,16078,16079,16079,16079,16093,16093,16093,16093,16093,16093,16093,16110,16110,16110,16110,16110,16110,16127,16127,16127,16127,16127,16143,16143,16143,16143,16178,16179,16179" d="m127,290c5.50034,2.64301 6.00566,2.96631 6.509,3.31433c1.03893,0.71835 1.56207,1.10828 2.10533,1.49466c0.55539,0.39499 1.7149,1.19733 2.32834,1.59067c1.25443,0.80435 1.90581,1.18277 2.55733,1.55869c0.64719,0.37341 1.2916,0.73306 1.93201,1.07098c1.22888,0.64841 1.81824,0.94278 2.95816,1.45184c0.54527,0.2435 1.08255,0.47418 2.158,0.85266c0.53146,0.18704 2.17198,0.64886 2.7345,0.78082c0.56451,0.13242 1.69623,0.36591 2.256,0.47467c1.09146,0.2121 2.12856,0.40799 3.09067,0.60934c0.89919,0.18817 1.32605,0.29623 2.16167,0.44415c1.20518,0.21332 2.0056,0.28537 2.78767,0.32117c1.10628,0.05066 2.088,0.03601 2.907,0.03601l0.90533,0" id="svg_14" stroke-width="2" stroke="#000" fill="none"/>
  <path t="16504,16628,16628,16628,16644,16644,16644,16644,16644,16661,16661,16661,16661,16661,16661,16677,16678,16678,16678,16678,16678,16693,16693,16693,16693,16693,16693,16710,16710,16710,16710,16710,16710,16727,16727,16727,16727,16727,16727,16744,16744,16744,16744,16744,16744,16744,16760,16761,16761,16761,16761,16777,16777,16778,16778,16778,16794,16794,16794,16809,16809,16827" d="m123,278c-2.11867,2.01883 -1.77243,2.85251 -1.47867,3.48801c0.47432,1.02612 0.72449,1.77759 1.02033,2.55365c0.31423,0.82431 0.46492,1.2717 1.22267,2.5795c0.27335,0.47177 0.92861,1.39682 1.27733,1.858c0.34997,0.46283 1.06748,1.35974 1.79167,2.1875c0.67521,0.77179 1.34826,1.47574 1.68749,1.8125c0.68158,0.67657 1.03682,1.01688 2.22217,2.04202c0.42355,0.3663 1.32596,1.09744 1.79868,1.45798c0.47662,0.36353 1.44785,1.07263 2.45833,1.6875c0.49379,0.30048 1.49434,0.82272 2,1.04001c0.98955,0.4252 1.48341,0.64053 3,0.95999c0.99397,0.20938 1.50798,0.23553 2.54167,0.29169c0.52994,0.02878 1.629,0.04031 2.79166,0.04166c0.60918,0.0007 1.86751,0 2.50667,0c0.63918,0 1.27333,0 2.50667,0c1.15334,0 2.19734,0 2.68184,0c0.909,0 1.758,0.00201 2.9715,0c0.79866,-0.00134 1.59142,0.00397 2.364,-0.07199c0.75349,-0.07407 1.83104,-0.33286 2.77867,-0.77869c0.58601,-0.2757 1.524,-0.81598 2.436,-1.12799l0.9005,-0.06299" id="svg_15" stroke-width="2" stroke="#000" fill="none"/>
  <path t="16994,17127,17128,17128,17128,17128,17128,17145,17145,17145,17145,17145,17145,17145,17161,17162,17162,17162,17162,17179,17179,17179,17179,17197,17197" d="m156,298c6.59283,-7.25684 6.98291,-7.82373 7.32317,-8.38116c0.32481,-0.53217 0.88724,-1.56619 1.16867,-2.05267c0.8177,-1.41354 1.1346,-1.85757 1.81799,-2.70898c0.34338,-0.42783 0.7085,-0.83859 1.442,-1.65268c0.36427,-0.4043 1.436,-1.59647 2.082,-2.39999c0.31358,-0.39008 0.90746,-1.15277 1.39417,-1.91916c0.66243,-1.04312 0.96217,-1.71918 1.25117,-2.32285l0.40349,-0.7905l0.60001,-0.80133l0.65601,-0.54935" id="svg_16" stroke-width="2" stroke="#000" fill="none"/>
  <path t="17455,17577,17577,17577,17577,17578,17578,17578,17578,17578,17593,17594,17594,17594,17594,17594,17609,17609,17609,17610,17610,17610,17610,17626,17627,17627,17627,17643,17643" d="m119,288c9.83333,-11.66666 10.55101,-12.52664 11.20134,-13.31732c0.59554,-0.72409 1.13864,-1.39258 1.63199,-2.01602c0.45848,-0.57938 0.88309,-1.12686 1.272,-1.65598c0.7377,-1.00363 1.41136,-2.00888 1.742,-2.5062c0.32802,-0.49335 0.97075,-1.47351 1.30533,-1.94733c0.99271,-1.40579 1.36342,-1.83975 1.73,-2.27051c0.72211,-0.84854 1.09727,-1.24429 1.80751,-2.02499c0.34087,-0.37466 1.27718,-1.43155 1.791,-2.09549c0.67549,-0.87286 1.03082,-1.39417 1.76166,-2.35632l0.45267,-0.55801" id="svg_17" stroke-width="2" stroke="#000" fill="none"/>
  <path t="19015,19160,19160,19160,19160,19160,19160,19160,19160,19160,19176,19176,19176,19176,19176,19177,19177,19177,19195,19195,19195,19195,19195,19211,19212,19212,19212" d="m160,249c12,4.33333 12.97972,4.82701 13.88533,5.36667c0.87163,0.51941 1.68298,1.06535 2.448,1.6125c0.73618,0.52654 1.4249,1.05891 2.08801,1.56749c1.24449,0.95444 1.83295,1.39218 2.40532,1.79733c0.54773,0.38773 1.07965,0.74854 1.59001,1.09351c0.48965,0.33099 1.42255,0.94141 2.25,1.5625c0.77475,0.58154 1.46025,1.17996 1.79166,1.45834c0.63063,0.52975 1.84151,1.39899 2.43716,1.73633l0.58368,0.30533l0.83549,0.46799" id="svg_18" stroke-width="2" stroke="#000" fill="none"/>
 </g>
 <g display="none">
  <title>muse_image</title>
  <image xlink:href="http://farm1.static.flickr.com/163/424633997_79eec62fda.jpg" id="muse" height="480" width="365" y="0" x="137.5"/>
 </g>
 <g display="none">
  <title>bbox</title>
  <rect stroke="#f00" fill="none" stroke-width="3" height="285.12" width="364.04199" y="49.92" x="137.5" id="bbox"/>
 </g>
</svg>
