<svg width="640" height="480" xmlns="http://www.w3.org/2000/svg" xmlns:svg="http://www.w3.org/2000/svg" xmlns:xlink="http://www.w3.org/1999/xlink">
 <!-- Sketchy ANNOTATION
  ImageNet ID: n03272010_12151
  URL: http://farm1.static.flickr.com/192/470063023_d5efc171a3.jpg
  Image Width: 288
  Image Height: 500
  BBox X: 62
  BBox Y: 7
  BBox Width: 160
  BBox Height: 452
  Exposure: 2000ms
  Synset Label: guitar
  Synset ID: n03467517
  Worker Tag: electric guitar
  Sanity Check: 
   Saved
  Comment: 
   {}
  Worker ID: A1VGZ2K3HF66TE
  Assignment ID: 3LRKMWOKB5H9AG3SBDK5EL8NNJIZ2O
  HIT ID: 3Z8UJEJOCZDH2NJ4LDZ9VNG1BNZ392
  Work Time: 70s
  Worker Score: 0.7857
 END ANNOTATION -->
 <g display="inline">
  <title>Layer 1</title>
  <path t="0,175,176,176,176,176,176,177,177,177,224,231,234,239,239,239,240,240,240,260,260,261,261,261,261,261,261,261,274,274,275,275,275,277,277,277,277,292,293,293,293,294,294,294,294,294,340,341,341,341,343,344,344,345,345,361,361,362,375,393,394,394,395,396,396,406,407,407,408,408,410,425,426,427,427,428,428,466,467,467,468,468,478,478,479,479,479,479,480,480,489,490,490,490,491,491,491,492,512,512,513,514,516,518,520,521,521,545,545,546,546,546,547,547,547,548,558,559,559,560,560,561,561,561,562,591,591,592,592,593,593,593,594,594,624,625,625,625,626,626,627,627,627,640,644,644,645,645,646,646,646,658,659,659,660,660,661,661,663,663,691,691,692,692,693,693,694,715,721,740,741,741,742,742,743,743,744,745,751,752,753,753,754,754,755,756,756,763,764,765,766,768,769,770,770,770,790,792,792,793,793,794,794,795,795,820,821,822,822,823,823,824,824,825,841,842,842,842,843,843,844,844,845,853,854,854,855,855,856,856,857,857,874,875,875,876,876,877,878,879,880,902,903,904,904,906,906,907,908,909,922,923,924,926,927,927,928,929,929,939,940,941,941,942,942,943,943,944,970,971,972,973,973,974,974,975,977,983,984,984,985,986,988,989,990,990,995,996,998,999,1002,1003,1004,1005,1005,1022,1024,1025,1025,1026,1026,1027,1027,1028,1042,1043,1044,1045,1045,1046,1047,1051,1052,1075,1077,1077,1078,1079,1081,1082,1083,1084,1100,1103,1104,1106,1106,1107,1108,1109,1109,1116,1117,1118,1120,1121,1124,1125,1127,1127,1146,1147,1148,1149,1150,1151,1152,1153,1154,1167,1169,1170,1171,1172,1173,1173,1174,1175,1203,1205,1212,1213,1214,1215,1215,1216,1217,1240,1243,1244,1244,1245,1246,1247,1249,1250,1256,1257,1258,1259,1260,1260,1261,1262,1263,1273,1274,1275,1276,1277,1279,1280,1281,1283,1291,1293,1294,1295,1296,1301,1303,1304,1305,1318,1339,1340,1341,1342,1343,1344,1345,1346,1355,1357,1358,1360,1360,1361,1362,1363,1364,1396,1398,1399,1400,1401,1402,1403,1405,1406,1418,1422,1424,1425,1426,1427,1428,1430,1431,1454,1456,1457,1458,1459,1460,1461,1462,1464,1471,1473,1474,1476,1477,1478,1480,1481,1483,1509,1511,1513,1514,1515,1517,1522,1524,1525,1532,1533,1535,1539,1541,1544,1546,1549,1554,1565,1567,1569,1570,1572,1574,1575,1578,1580,1594,1596,1598,1599,1600,1603,1606,1608,1610,1630,1632,1633,1634,1635,1638,1639,1641,1642,1656,1658,1660,1662,1663,1664,1666,1667,1670,1692,1694,1696,1697,1700,1702,1703,1705,1709,1724,1726,1727,1729,1730,1732,1734,1736,1738,1760,1762,1763,1764,1765,1766,1767,1769,1770,1790,1792,1794,1795,1797,1798,1800,1801,1805,1824,1826,1827,1828,1830,1831,1832,1834,1836,1862,1864,1866,1874,1878,1880,1881,1883,1884,1901,1903,1905,1906,1908,1910,1912,1915,1916,1925,1927,1929,1931,1932,1934,1935,1937,1939,1957,1959,1961,1963,1964,1965,1967,1968,1970,1987,1989,1990,1992,1993,1995,1996,1998,2000,2023,2025,2027,2028,2029,2030,2032,2033,2034,2040,2042,2044,2046,2048,2050,2052,2054,2056,2075,2077,2079,2081,2082,2083,2085,2087,2091,2108,2111,2112,2114,2116,2117,2121,2123,2125,2146,2148,2150,2152,2154,2156,2158,2159,2162,2173,2175,2177,2179,2180,2182,2183,2185,2188,2209,2211,2214,2215,2217,2219,2221,2224,2226,2239,2241,2243,2244,2246,2248,2250,2252,2254,2275,2278,2280,2281,2283,2284,2286,2288,2290,2298,2300,2302,2304,2305,2307,2308,2310,2311,2322,2325,2327,2329,2330,2332,2334,2336,2339,2356,2358,2362,2364,2366,2367,2368,2370,2373,2386,2389,2391,2393,2395,2397,2399,2400,2402" d="m290,241c-8.83334,6.16667 -9.67053,6.6102 -10.51468,6.96933c-0.82077,0.3492 -1.6441,0.6367 -2.46448,0.864c-0.80545,0.22316 -1.6127,0.39716 -2.41953,0.504c-1.59564,0.2113 -2.4021,0.20926 -3.20798,0.20801c-0.81592,-0.00127 -1.64691,-0.03847 -2.4975,-0.08701c-0.8761,-0.05 -1.7814,-0.11894 -2.7225,-0.177c-2.00613,-0.12378 -3.07971,-0.16417 -4.19202,-0.196c-1.14005,-0.03262 -2.2973,-0.05182 -3.46048,-0.0645c-1.15814,-0.01263 -2.30035,-0.01756 -3.41551,-0.0195c-2.10533,-0.00366 -3.07683,-0.00133 -3.99733,-0.00133c-0.87849,0 -1.724,0 -2.5455,0c-0.8065,0 -1.60699,0 -2.41051,0c-1.65199,0 -2.51549,0 -3.39999,0c-0.8965,0 -1.79601,0 -2.6895,0c-0.87849,0 -1.733,0 -2.5545,0c-1.508,0 -2.17816,0 -2.78932,0c-0.55318,0 -1.04935,0 -1.4895,0c-0.38518,0 -0.71634,0 -0.99451,0c-0.40134,0 -0.52341,-0.00972 -0.51334,0c0.43013,0.41504 -0.38899,1.54858 -0.57199,1.99466c-0.42355,1.03241 -0.64095,1.60532 -0.83734,2.20801c-0.40016,1.22797 -0.67361,2.46085 -0.72549,3.05417c-0.09801,1.12091 -0.06493,1.67126 0.16417,2.68582c0.11243,0.49789 0.7323,1.90125 1.01366,2.33551c0.56909,0.87836 0.91013,1.28577 1.63167,2.03915c0.70107,0.73203 1.42891,1.35968 2.12267,1.91602c0.66936,0.53677 1.37993,1.05167 1.74834,1.32916c1.23721,0.93195 1.6983,1.30081 2.189,1.69217c1.05376,0.84045 1.60565,1.28806 2.17601,1.74133c0.58063,0.46143 1.16537,0.9314 2.368,1.83734c0.59692,0.44968 1.19989,0.8847 1.8045,1.314c0.60472,0.42938 1.21573,0.85352 1.8315,1.27798c1.24814,0.86041 2.53123,1.74051 3.18533,2.19601c0.66324,0.46185 1.33147,0.93112 2.004,1.40399c0.6748,0.47446 1.34906,0.94974 2.022,1.422c0.6684,0.46906 1.98605,1.38593 2.63115,1.83167c0.63623,0.43958 1.26678,0.87393 1.88553,1.31702c0.61758,0.44226 1.23019,0.89508 1.83148,1.371c0.60818,0.48138 1.81113,1.52603 2.40433,2.09732c0.60568,0.58331 1.2002,1.19843 1.78952,1.83301c0.59442,0.64008 1.17715,1.29651 1.75348,1.95898c0.57434,0.66019 1.69177,1.97595 2.23535,2.62234c0.53506,0.63629 1.05945,1.26563 1.56448,1.896c0.4986,0.62234 0.9812,1.24588 1.43851,1.87799c0.45337,0.62668 1.29388,1.90906 1.67566,2.56836c0.37958,0.65552 0.72958,1.32001 1.06052,1.98297c0.32535,0.65179 0.62732,1.29776 0.9165,1.92902c0.28009,0.61145 0.80289,1.76547 1.04465,2.30484c0.47098,1.05072 0.6958,1.59982 0.90067,2.19131c0.22134,0.6391 0.43402,1.35339 0.61951,2.1615c0.44382,1.93344 0.60907,3.10712 0.79868,4.388c0.20227,1.36642 0.38684,2.79666 0.561,4.263c0.1752,1.47504 0.33453,2.93463 0.47098,4.353c0.25055,2.6041 0.33286,3.74719 0.40002,4.78268c0.06104,0.94086 0.10291,1.80118 0.129,2.59351c0.02426,0.73703 0.03516,1.43228 0.039,2.09848c0.00751,1.2973 0.00266,1.95285 0.00266,2.62134c0,0.68451 0,1.388 0,2.11349c0,0.75052 0,1.52902 0,2.3385c0,1.724 0,2.64401 0,3.604c0,1 0,2.04001 0,3.12c0,1.12 0,2.28 0,3.48001c0,2.51999 -0.00247,3.83768 0.004,5.18134c0.00653,1.35568 0.01999,2.70953 0.0585,4.047c0.03766,1.30792 0.08408,2.57333 0.19351,3.77701c0.19876,2.18591 0.38657,3.13855 0.60132,3.99731c0.19839,0.79337 0.44528,1.51855 0.72601,2.18402c0.26941,0.63864 0.57971,1.24017 0.90598,1.82397c0.66205,1.18469 1.03226,1.78549 1.39603,2.41202c0.37189,0.64047 0.74988,1.29245 1.1355,1.95151c0.38907,0.66495 0.78107,1.33255 1.18048,1.99649c0.79355,1.31912 1.19537,1.96304 1.60001,2.59467c0.39975,0.62402 0.80408,1.23434 1.21951,1.8255c0.41003,0.58347 0.82565,1.15219 1.2645,1.69049c0.86072,1.05579 1.32928,1.53589 1.80133,2c0.46814,0.46027 0.95422,0.89624 1.45499,1.30951c0.49936,0.41214 1.01343,0.80566 1.54501,1.1745c1.06705,0.74033 1.6322,1.07233 2.20401,1.40399c0.58118,0.3371 1.18542,0.66364 1.81348,0.98401c0.64792,0.33051 1.32642,0.65826 2.03851,0.98401c1.51855,0.69464 2.3414,1.04205 3.20001,1.39734c0.88831,0.36755 1.8089,0.73099 2.76147,1.077c0.97147,0.35287 1.96536,0.69366 2.98651,0.987c2.06528,0.59329 3.12793,0.80273 4.19067,0.99731c1.06006,0.19409 2.12149,0.34799 3.177,0.474c1.04324,0.12454 2.07397,0.22153 3.08698,0.29401c1.95352,0.13977 2.89169,0.17178 3.81201,0.20401c0.91605,0.03207 1.84131,0.052 2.78851,0.06448c0.98212,0.01294 2.01233,0.01764 3.10349,0.0195c2.41733,0.00415 3.76352,0.00134 5.18668,0.00134c1.47717,0 2.98532,0 4.5015,0c1.50116,0 2.96432,0 4.36649,0c2.52936,0 3.61755,0.004 4.5947,-0.00534c0.88522,-0.00845 1.69803,-0.02591 2.45547,-0.078c0.724,-0.04977 1.43372,-0.12567 2.1405,-0.258c1.51379,-0.28342 2.33612,-0.53668 3.21335,-0.79868c0.92398,-0.27594 1.8775,-0.58893 2.85449,-0.92249c0.99503,-0.33972 1.99393,-0.6958 2.9895,-1.0575c1.9498,-0.70837 2.88516,-1.05649 3.79733,-1.39999c0.89816,-0.33823 1.78757,-0.68115 2.67151,-1.04251c0.89343,-0.36523 1.79941,-0.75055 2.71649,-1.17749c1.94037,-0.90329 2.95044,-1.43979 3.99466,-1.996c1.06824,-0.569 2.13916,-1.16211 3.20551,-1.76401c1.05496,-0.59546 2.08148,-1.18732 3.0705,-1.76401c1.82751,-1.06561 2.64261,-1.54874 3.396,-1.99731c0.70123,-0.41754 1.35669,-0.81281 1.97101,-1.19702c0.58826,-0.36792 1.15491,-0.73172 1.70099,-1.10699c1.09937,-0.75549 1.64825,-1.17365 2.20667,-1.60532c0.5687,-0.43961 1.1355,-0.89719 1.6965,-1.371c0.56302,-0.47552 1.11755,-0.9603 1.65152,-1.461c1.04898,-0.98364 1.53296,-1.49396 2.008,-2.01068c0.4841,-0.52658 0.9686,-1.08951 1.46548,-1.69501c0.53146,-0.64761 1.09082,-1.36038 1.69052,-2.14499c1.38083,-1.80661 2.15588,-2.85898 2.99197,-3.98666c0.879,-1.18558 1.78165,-2.41214 2.6925,-3.66c0.90912,-1.24548 1.79889,-2.47055 2.64752,-3.66c1.54706,-2.1683 2.2095,-3.12128 2.79199,-4c0.53592,-0.80844 1.01749,-1.5791 1.43549,-2.34c0.40988,-0.74612 0.78659,-1.51843 1.12051,-2.34c0.73553,-1.80957 1.056,-2.87128 1.40533,-4.008c0.36957,-1.20255 0.72385,-2.46661 1.0575,-3.77701c0.3399,-1.33499 0.65909,-2.68716 0.92249,-4.047c0.51401,-2.65381 0.67227,-3.94086 0.79333,-5.19333c0.11859,-1.22687 0.17999,-2.44385 0.18002,-3.65552c0.00003,-1.21664 -0.05353,-2.44937 -0.18002,-3.7005c-0.26468,-2.61819 -0.52545,-3.98746 -0.79599,-5.39465c-0.27618,-1.43668 -0.59839,-2.88202 -0.96149,-4.3215c-0.36102,-1.4313 -0.74728,-2.83514 -1.18652,-4.18649c-0.83133,-2.55762 -1.31613,-3.71112 -1.79599,-4.79868c-0.46082,-1.04437 -0.9519,-2.03622 -1.45499,-2.99399c-0.49704,-0.94623 -1.02069,-1.87564 -1.54501,-2.814c-1.08136,-1.93524 -1.63608,-2.95343 -2.19733,-4.00134c-0.5701,-1.06442 -1.13815,-2.13904 -1.716,-3.20551c-0.57156,-1.05487 -1.13354,-2.08838 -1.716,-3.0705c-1.09171,-1.84079 -1.65244,-2.6485 -2.19598,-3.39468c-0.51276,-0.70386 -1.02643,-1.34882 -1.52551,-1.95148c-0.4758,-0.57452 -0.94748,-1.11111 -1.3905,-1.63651c-0.84598,-1.0032 -1.23373,-1.50595 -1.60266,-2.00934c-0.36404,-0.4967 -0.70972,-0.99884 -1.04849,-1.5c-0.33722,-0.49884 -0.66644,-1.00174 -1.00351,-1.5c-0.67883,-1.00351 -1.03577,-1.50266 -1.40533,-2.00134c-0.37476,-0.50571 -0.76602,-1.01196 -1.1745,-1.5195c-0.41681,-0.51788 -0.85168,-1.04031 -1.30951,-1.56448c-0.95178,-1.08975 -1.47244,-1.63583 -1.99731,-2.20935c-0.54218,-0.59244 -1.10019,-1.20914 -1.65152,-1.87198c-0.57306,-0.68896 -1.15335,-1.42255 -1.6965,-2.23203c-1.16492,-1.73615 -1.67746,-2.74295 -2.19064,-3.79599c-0.53021,-1.08798 -1.01981,-2.22937 -1.46701,-3.40948c-0.45172,-1.19208 -0.8642,-2.40466 -1.19699,-3.63451c-0.65298,-2.41298 -0.83868,-3.61501 -1.00134,-4.78534c-0.15863,-1.14133 -0.25842,-2.26059 -0.32251,-3.351c-0.06223,-1.05905 -0.08783,-2.08725 -0.0975,-3.08099c-0.01828,-1.87726 -0.00665,-2.759 -0.00665,-3.61067c0,-0.83167 0,-1.65334 0,-2.47501c0,-0.83167 0,-1.68333 0,-2.565c0,-1.89333 0.00232,-2.92218 -0.004,-4.004c-0.00656,-1.12784 -0.02097,-2.29486 -0.0585,-3.4935c-0.03833,-1.22408 -0.09052,-2.46706 -0.19351,-3.71849c-0.20691,-2.51399 -0.39423,-3.75874 -0.60397,-4.996c-0.21024,-1.24026 -0.46704,-2.48038 -0.76501,-3.72301c-0.30188,-1.25888 -0.64453,-2.52994 -1.035,-3.81299c-0.80807,-2.65526 -1.29623,-4.01157 -1.79468,-5.39201c-0.50418,-1.3963 -1.03485,-2.78976 -1.58698,-4.17c-0.54663,-1.36644 -1.10147,-2.70248 -1.677,-3.98999c-1.08978,-2.43796 -1.65204,-3.54608 -2.19202,-4.59201c-0.51175,-0.99124 -1.01822,-1.91907 -1.50598,-2.793c-0.46176,-0.82732 -0.91095,-1.60329 -1.32602,-2.343c-0.76401,-1.3616 -1.0972,-1.99803 -1.39999,-2.60533c-0.28564,-0.57288 -0.54144,-1.11873 -0.77399,-1.63499c-0.21793,-0.48384 -0.41306,-0.93983 -0.59402,-1.36501c-0.32333,-0.7597 -0.46658,-1.09563 -0.60266,-1.40132c-0.12402,-0.27861 -0.23923,-0.52969 -0.345,-0.7545c-0.09433,-0.20049 -0.17953,-0.37657 -0.255,-0.52951c-0.11926,-0.2417 -0.16516,-0.33167 -0.20132,-0.40399c-0.02817,-0.05634 -0.04932,-0.09866 -0.06448,-0.129c-0.01016,-0.02034 -0.01633,-0.03268 -0.0195,-0.039c-0.00134,-0.00267 -0.00134,-0.00267 -0.00134,-0.00267c0,0 0,0 0,0c0,0 0,0 0,0c0,0 -0.00134,0.00183 -0.01068,0.01466c-0.02533,0.03484 -0.07465,0.10268 -0.15598,0.21451c-0.12134,0.16682 -0.29068,0.39966 -0.51602,0.70949c-0.65067,0.89465 -1.09045,1.49693 -1.59732,2.20134c-0.56998,0.79214 -1.19046,1.66405 -1.845,2.61c-0.69232,1.00056 -1.40738,2.04971 -2.11499,3.14999c-1.44873,2.25264 -2.12347,3.41728 -2.78934,4.58134c-0.66278,1.15866 -1.30045,2.3217 -1.92902,3.47699c-0.6221,1.14339 -1.22711,2.27773 -1.83899,3.38701c-1.19186,2.16066 -1.79572,3.19565 -2.41068,4.20399c-0.61111,1.00201 -1.24698,1.99142 -1.91699,2.9715c-0.68192,0.99745 -1.40512,2.00415 -2.18701,3.01651c-1.66092,2.15051 -2.60959,3.25111 -3.58398,4.38666c-0.98755,1.15088 -1.98907,2.28395 -2.979,3.3885c-0.95419,1.06468 -1.86453,2.06369 -2.70901,2.98351c-1.41351,1.5396 -1.95798,2.12448 -2.392,2.59467c-0.33798,0.36615 -0.59198,0.64133 -0.77399,0.8385c-0.12201,0.13216 -0.19601,0.21233 -0.23401,0.25349c-0.01599,0.01733 -0.01599,0.01733 -0.01599,0.01733c0,0 0,0 0,0c0,0 0,0 0,0c0,0 0,0 0,0c0,0 0,0 0,0c0,0 0,0 0,0c0,0 0,0 0,0c0,0 0,0 0,0c0,0 0,0 0,0c0,0 -0.00049,0.00034 -0.004,0.00267c-0.00949,0.00633 -0.02802,0.01866 -0.0585,0.039c-0.0455,0.03035 -0.10901,0.07266 -0.19351,0.129c-0.24399,0.16266 -0.40799,0.272 -0.59598,0.39732c-0.20602,0.13734 -0.42401,0.28267 -0.64801,0.43201c-0.224,0.14934 -0.44199,0.29466 -0.64801,0.43201c-0.35199,0.23466 -0.48227,0.34476 -0.61465,0.37732c-0.1254,0.03084 -0.28696,-0.02942 -0.46649,-0.1635c-0.25574,-0.19101 -0.56116,-0.50899 -0.96152,-0.9285c-1.15274,-1.20781 -1.90994,-2.03763 -2.79199,-2.98799c-0.97842,-1.05418 -2.02838,-2.19189 -3.12149,-3.39601c-1.12433,-1.23849 -2.25439,-2.49191 -3.3465,-3.756c-2.06851,-2.39424 -2.97128,-3.52112 -3.80002,-4.61467c-0.81076,-1.06982 -1.58713,-2.17979 -2.35349,-3.35849c-0.8172,-1.25691 -1.66504,-2.65349 -2.57852,-4.2135c-2.17303,-3.711 -3.42062,-5.9469 -4.80533,-8.40134c-1.49323,-2.64676 -3.06659,-5.45915 -4.69949,-8.40601c-1.68588,-3.04242 -3.39822,-6.15269 -5.10449,-9.306c-3.39169,-6.26814 -5.0054,-9.34433 -6.57733,-12.356c-1.53665,-2.94406 -3.02139,-5.82927 -4.46402,-8.6505c-1.40799,-2.75346 -2.77182,-5.44409 -4.104,-8.06549c-2.56107,-5.03947 -3.7963,-7.45445 -5.00131,-9.8c-1.17068,-2.27876 -2.31128,-4.48903 -3.4155,-6.63451c-1.07043,-2.07985 -2.10797,-4.09414 -3.10052,-6.04949c-1.88687,-3.71719 -2.76151,-5.48861 -3.59598,-7.192c-0.79672,-1.62635 -1.54327,-3.17375 -2.241,-4.6335c-0.65149,-1.36298 -1.24799,-2.62537 -1.79102,-3.7785c-0.9184,-1.95016 -1.28763,-2.73774 -1.604,-3.40533c-0.26541,-0.56004 -0.48615,-1.02291 -0.66748,-1.3995c-0.14545,-0.30203 -0.26123,-0.53989 -0.35251,-0.7245c-0.12607,-0.25497 -0.17184,-0.345 -0.20801,-0.41733c-0.02817,-0.05634 -0.04932,-0.09867 -0.06448,-0.12901l-0.01016,-0.02033l-0.0062,-0.01233l-0.00314,-0.00633" id="svg_1" stroke-width="2" stroke="#000" fill="none"/>
  <path t="2852,3221,3221,3222,3222,3222,3222,3238,3239,3239,3239,3239,3239,3255,3256,3256,3256,3256,3256,3256,3272,3273,3273,3273,3273,3274,3274,3274,3306,3306,3306,3307,3307,3307,3307,3307,3307,3323,3323,3323,3323,3324,3324,3324,3324,3325,3339,3340,3340,3340,3341,3341,3341,3341,3341,3359,3359,3359,3359,3360,3360,3360,3360,3360,3406,3407,3407,3407,3407,3408,3408,3409,3409,3414,3414,3414,3414,3415,3415,3415,3415,3415,3422,3423,3423,3423,3424,3424,3425,3425,3425,3440,3440,3440,3441,3441,3441,3441,3442,3442,3472,3473,3474,3474,3474,3475,3475,3475,3476,3491,3492,3492,3493,3493,3493,3493,3494,3494,3506,3507,3507,3508,3508,3508,3509,3509,3509,3521,3522,3522,3522,3523,3523,3523,3524,3524,3557,3558,3558,3558,3559,3559,3591,3630,3630,3631,3631,3638,3738,3755,3756,3757,3757,3757,3758,3758,3791,3792,3793,3793,3794,3794,3795,3805,3806,3806,3807,3807,3808,3808,3808,3809,3822,3823,3824,3824,3824,3825,3852,3853,3854,3854,3854,3855,3855,3856,3856,3872,3873,3874,3874,3875,3876,3877,3878,3890,3891,3892,3892,3892,3893,3893,3894,3894,3905,3906,3907,3908,3908,3910,3910,3911,3912,3937,3938,3939,3939,3956,3973,3975,3976,3989,3989,4007,4008,4009,4010,4010,4011,4012,4043,4044,4045,4045,4046,4047,4048,4059,4060,4061,4061,4062,4062,4063,4064,4064,4089,4090,4091,4091,4092,4093,4093,4094,4095,4105,4107,4107,4109,4110,4111,4111,4112,4113,4125,4126,4127,4128,4129,4129,4130,4130,4131,4139,4140,4141,4142,4143,4144,4144,4145,4146,4172,4173,4173,4174,4174,4175,4175,4176,4176,4183,4185,4186,4187,4188,4190,4192,4193,4194,4208,4209,4210,4211,4212,4213,4213,4222,4224,4225,4226,4227,4228,4229,4241,4243,4244,4245,4246,4247,4249,4258,4260,4260,4261,4262,4262,4263,4291,4292,4292,4293,4294,4294,4295,4322,4324,4325,4326,4326,4327,4328,4329,4330,4335,4337,4338,4340,4341,4342,4344,4345,4346,4358,4360,4361,4362,4363,4364,4364,4365,4366" d="m287,243c3.29266,-8.13567 3.39719,-8.74408 3.41867,-9.33299c0.04105,-1.12459 -0.03247,-1.67136 -0.14001,-2.74834c-0.10843,-1.08571 -0.19696,-2.20384 -0.2215,-2.77583c-0.02481,-0.57869 -0.04883,-1.75349 -0.05267,-2.34734c-0.0116,-1.79547 0.00027,-2.39557 -0.00848,-2.9955c-0.01752,-1.2002 -0.04959,-1.80075 -0.104,-2.40001c-0.05457,-0.60088 -0.379,-2.40372 -0.55682,-3.00032c-0.18073,-0.6064 -0.65616,-1.82477 -0.93933,-2.44135c-0.29129,-0.63431 -0.61652,-1.27649 -0.97052,-1.929c-0.74371,-1.37088 -1.16629,-2.07491 -1.60132,-2.808c-0.45355,-0.76433 -0.9368,-1.55849 -1.44901,-2.388c-0.53839,-0.87189 -1.11115,-1.78629 -1.71899,-2.748c-1.31937,-2.08742 -2.04382,-3.21347 -2.79468,-4.40132c-0.78323,-1.23911 -1.59018,-2.52823 -2.40298,-3.87151c-0.83542,-1.38066 -1.67862,-2.80171 -2.49301,-4.2765c-1.6662,-3.01736 -2.43359,-4.59442 -3.19199,-6.18799c-0.76169,-1.60049 -1.48843,-3.22035 -2.19,-4.84801c-0.69843,-1.62039 -1.36786,-3.23885 -2.01001,-4.84801c-1.25537,-3.14589 -1.83279,-4.68584 -2.40134,-6.19066c-0.55573,-1.47087 -1.09024,-2.91034 -1.6095,-4.31551c-0.50607,-1.36949 -0.99463,-2.7043 -1.47449,-4.00049c-0.91809,-2.47989 -1.3638,-3.66124 -1.80667,-4.80934c-0.43454,-1.12656 -0.87305,-2.23642 -1.323,-3.336c-0.45139,-1.1031 -0.91821,-2.21378 -1.41302,-3.336c-1.03052,-2.33725 -1.60675,-3.54988 -2.19466,-4.79601c-0.5974,-1.26624 -1.2065,-2.53676 -1.80899,-3.8055c-0.59483,-1.25262 -1.17787,-2.47643 -1.71901,-3.6705c-1.00523,-2.21819 -1.423,-3.23784 -1.79466,-4.19066c-0.34512,-0.88481 -0.64352,-1.71526 -0.903,-2.49301c-0.24146,-0.72375 -0.44978,-1.40404 -0.633,-2.043c-0.33347,-1.16302 -0.47076,-1.69988 -0.60533,-2.20266c-0.1254,-0.46856 -0.23967,-0.90143 -0.345,-1.29601c-0.0947,-0.35475 -0.17719,-0.66814 -0.255,-0.936c-0.1158,-0.39857 -0.15973,-0.5271 -0.20534,-0.612c-0.03346,-0.06228 -0.07671,-0.10345 -0.123,-0.1395c-0.05495,-0.04278 -0.13002,-0.09508 -0.213,-0.18449c-0.2608,-0.28106 -0.41174,-0.52094 -0.59599,-0.79867c-0.20573,-0.3101 -0.4165,-0.64688 -0.62851,-0.996c-0.21066,-0.3469 -0.40961,-0.68178 -0.5835,-0.996c-0.27699,-0.50054 -0.36073,-0.67198 -0.39734,-0.79333c-0.02133,-0.07073 -0.00592,-0.11308 0.02251,-0.1065c0.0489,0.01131 0.09952,0.06435 0.1575,0.1185c0.11577,0.10811 0.15849,0.15583 0.19467,0.192c0.02817,0.02817 0.04933,0.04933 0.0645,0.0645c0.01016,0.01017 0.01633,0.01633 0.0195,0.0195c0.00133,0.00134 0.00133,0.00134 0.00133,0.00134c0,0 0,0 0,0c-0.009,-0.0225 -0.33171,-0.83399 -0.56799,-1.41866c-0.42906,-1.06169 -0.16853,-2.3578 -1.18901,-2.7525c-0.31039,-0.12005 -1.24088,-0.49871 -1.95366,-0.96617c-0.42657,-0.27976 -0.88707,-0.58733 -1.91734,-1.19733c-0.53793,-0.3185 -1.0667,-0.67653 -2.75133,-1.401c-0.53387,-0.22959 -1.07979,-0.41951 -2.20399,-0.72267c-0.58301,-0.15722 -1.19728,-0.28876 -1.84201,-0.423c-1.40645,-0.29282 -2.18103,-0.44057 -2.99333,-0.60133c-0.84001,-0.16625 -1.69696,-0.33396 -2.5605,-0.4965c-0.85779,-0.16145 -1.6993,-0.31719 -2.51549,-0.4515c-1.50351,-0.24741 -2.17648,-0.33127 -3.38034,-0.46851c-0.55144,-0.06286 -1.6073,-0.17302 -2.12666,-0.26333c-1.67375,-0.29105 -2.28563,-0.4967 -2.93834,-0.69083c-0.68573,-0.20396 -1.39336,-0.43326 -2.1225,-0.6675c-0.7442,-0.23908 -1.496,-0.48605 -2.25751,-0.71249c-1.50885,-0.44867 -2.25803,-0.62769 -2.99733,-0.80134c-0.73372,-0.17233 -1.4722,-0.31886 -2.944,-0.688c-0.75073,-0.18829 -1.52176,-0.37687 -3.07199,-0.944c-0.8166,-0.29874 -1.63554,-0.663 -2.45851,-1.0575c-0.83188,-0.39878 -1.65047,-0.82974 -2.44949,-1.2825c-0.78665,-0.44576 -1.55186,-0.88767 -2.92534,-1.82667c-0.6338,-0.43331 -1.21051,-0.87352 -1.743,-1.305c-0.50465,-0.40892 -0.96889,-0.81612 -1.401,-1.215c-0.4131,-0.38132 -0.79866,-0.75867 -1.86716,-1.8245c-0.64781,-0.64619 -1.30128,-1.14738 -1.68901,-1.689c-0.54482,-0.76105 -0.20375,-1.63621 -0.16916,-2.28516c0.05495,-1.03101 0.02502,-2.17495 0.63333,-2.552c0.92427,-0.5729 1.39693,-0.80124 1.88933,-1.12099c1.09874,-0.71349 1.67773,-1.09859 2.27333,-1.47334c0.59109,-0.37191 1.72302,-1.07059 2.79468,-1.56033c0.50243,-0.22961 1.54675,-0.56924 2.10133,-0.69867c0.58517,-0.13657 1.22054,-0.25294 2.67732,-0.44267c0.83673,-0.10897 1.74246,-0.20203 2.70151,-0.3c0.99962,-0.10212 2.02765,-0.20009 3.0705,-0.3c1.04482,-0.10009 2.07939,-0.19302 4.06134,-0.4c0.92635,-0.09674 1.80823,-0.19806 2.65199,-0.3c0.81223,-0.09814 1.59813,-0.19908 2.364,-0.3c0.75212,-0.0991 1.49583,-0.20123 2.98401,-0.4c0.75458,-0.10078 1.5175,-0.20013 2.286,-0.3045c0.77283,-0.10496 1.54779,-0.21326 2.32201,-0.3315c0.77313,-0.11809 1.54445,-0.23298 3.05865,-0.53066c0.74747,-0.14694 1.48767,-0.31586 2.22751,-0.495c0.74686,-0.18083 1.50223,-0.37787 2.27249,-0.585c0.79143,-0.21282 1.60652,-0.44054 3.33334,-0.92c0.91826,-0.25496 1.86682,-0.51678 2.83499,-0.786c0.97849,-0.2721 1.95715,-0.5456 2.925,-0.822c0.94882,-0.27097 1.87013,-0.53006 3.57333,-1.05867c0.77293,-0.23989 1.49098,-0.47904 2.166,-0.70499c0.63963,-0.2141 1.24976,-0.4228 1.842,-0.61501c0.57845,-0.18773 1.14952,-0.37949 2.32533,-0.68c0.60686,-0.1551 1.23361,-0.28552 1.87201,-0.405c0.6443,-0.12058 1.29401,-0.22465 1.944,-0.315c0.6447,-0.08961 1.28149,-0.1727 2.51733,-0.28c0.59016,-0.05124 1.72789,-0.11243 2.28267,-0.13066c0.55057,-0.01808 1.65601,-0.03304 2.21866,-0.03467c1.77451,-0.00516 2.39902,-0.00217 3.03284,0.02567c0.63962,0.02809 1.91733,0.16728 2.53665,0.316c0.61472,0.14761 1.81458,0.58645 2.80118,1.369c0.50067,0.39713 0.93756,0.88372 1.31549,1.413c0.7598,1.06409 1.05426,1.6628 1.47919,2.875c0.20728,0.59133 0.44983,1.79845 0.52264,2.4c0.07248,0.59869 0.13101,1.79991 0.13867,2.4c0.01532,1.19991 0.00586,2.40698 -0.02167,3.0225c-0.02826,0.63128 -0.07507,1.28514 -0.189,1.9575c-0.24667,1.45589 -0.7688,3.05921 -1.11267,3.92667c-0.36465,0.91985 -0.79608,1.86115 -1.26599,2.82c-0.47928,0.97799 -0.99155,1.94983 -1.51801,2.91c-0.51895,0.94648 -1.55051,2.73206 -2.04416,3.5555c-0.4679,0.78048 -0.92136,1.51488 -1.3605,2.2065c-0.41733,0.6573 -0.82306,1.27752 -1.21649,1.86449c-0.37601,0.56096 -1.09836,1.60432 -1.44452,2.09367c-0.33386,0.47196 -0.65945,0.92474 -0.97498,1.3605c-0.3045,0.42055 -0.60001,0.82533 -0.88501,1.2165l-0.27499,0.37817" id="svg_2" stroke-width="2" stroke="#000" fill="none"/>
  <path t="5070,5222,5222,5222,5222,5222,5222,5222,5222,5222,5256,5256,5256,5256,5256,5257,5257,5257,5257,5275,5276,5276,5276,5276,5276,5276,5276,5276,5307,5307,5307,5307,5307,5307,5308,5308,5308,5312,5312,5312,5312,5312,5313,5313,5313,5313,5340,5341,5341,5341,5341,5342,5342,5342,5342,5360,5361,5361,5361,5362,5362,5362,5363,5363,5372,5373,5373,5373,5373,5373,5374,5374,5374,5390,5390,5391,5391,5391,5391,5391,5392,5392,5423,5424,5424,5424,5424,5424,5425,5425,5425,5440,5442,5443,5443,5444,5444,5444,5444,5445,5456,5457,5457,5457,5457,5458,5458,5458,5459,5472,5473,5473,5473,5474,5474,5475,5475,5476,5527,5529,5529,5529,5530,5530,5530,5531,5531,5537,5537,5538,5538,5539,5539,5539,5540,5540,5544,5545,5546,5546,5547,5547,5547,5548,5548,5557,5558,5559,5559,5560,5560,5560,5561,5561,5590,5591,5592,5592,5592,5593,5593,5594,5594,5606,5607,5609,5611,5611,5612,5612,5613,5613,5624,5625,5625,5626,5626,5627,5627,5628,5629,5655,5656,5657,5657,5657,5658,5658,5659,5659,5687,5688,5689,5689,5689,5690,5690,5691,5691,5697,5697,5698,5699,5699,5700,5700,5700,5701,5724,5725,5726,5726,5726,5727,5727,5728,5728,5741,5743,5743,5744,5745,5746,5746,5747,5748" d="m360,352c-4.16666,-8.16666 -4.61948,-9.02271 -5.08667,-9.88535c-0.47281,-0.87302 -0.95728,-1.75217 -1.45499,-2.6355c-0.50226,-0.89139 -1.01505,-1.78659 -1.54501,-2.68048c-1.06998,-1.80466 -1.63339,-2.70132 -2.20401,-3.60934c-0.58234,-0.92667 -1.18814,-1.87457 -1.81348,-2.85599c-0.6507,-1.02121 -1.33249,-2.08847 -2.03851,-3.216c-1.53156,-2.44595 -2.34769,-3.78659 -3.19467,-5.20135c-0.8829,-1.47479 -1.78232,-3.01028 -2.6835,-4.60349c-0.92166,-1.62939 -1.84302,-3.29657 -2.72849,-5.00851c-1.78586,-3.45267 -2.59653,-5.22025 -3.39468,-6.98532c-0.79483,-1.75769 -1.55258,-3.52072 -2.29349,-5.27701c-0.73508,-1.7424 -1.44595,-3.47592 -2.15851,-5.18698c-1.39804,-3.35715 -2.09955,-4.99213 -2.80399,-6.59866c-0.69562,-1.58643 -1.39716,-3.14929 -2.10001,-4.69351c-0.6972,-1.53177 -1.39856,-3.04968 -2.10001,-4.5585c-1.39716,-3.00531 -2.10239,-4.5043 -2.80133,-6.01468c-0.70538,-1.52429 -1.41461,-3.07227 -2.11951,-4.65598c-0.72058,-1.61893 -1.44833,-3.28568 -2.16449,-5.01602c-1.50665,-3.64029 -2.24329,-5.58505 -2.99466,-7.58932c-0.76715,-2.04637 -1.52002,-4.1283 -2.25751,-6.228c-0.73584,-2.095 -1.44809,-4.17543 -2.1225,-6.228c-1.29211,-3.93256 -1.8588,-5.79788 -2.39868,-7.584c-0.51727,-1.71129 -0.9985,-3.35698 -1.45798,-4.938c-0.44183,-1.52032 -0.86029,-2.98682 -1.27802,-4.39799c-0.79572,-2.6882 -1.20071,-3.9671 -1.604,-5.20801c-0.39249,-1.20775 -0.78824,-2.37949 -1.18048,-3.519c-0.38251,-1.11115 -0.76376,-2.19264 -1.1355,-3.24899c-0.71884,-2.04263 -1.06323,-3.03412 -1.40533,-4.01068c-0.3396,-0.96944 -0.68176,-1.93781 -1.04251,-2.907c-0.36584,-0.98285 -0.74985,-1.98289 -1.17749,-2.99699c-0.90186,-2.13863 -1.44189,-3.24899 -1.996,-4.40266c-0.57111,-1.18906 -1.16922,-2.4008 -1.76401,-3.642c-0.6026,-1.25746 -1.20801,-2.52649 -1.76401,-3.82201c-1.10678,-2.57892 -1.56253,-3.88982 -1.996,-5.18933c-0.42807,-1.28333 -0.81094,-2.56142 -1.17749,-3.82201c-0.36002,-1.23813 -0.69357,-2.45702 -1.04251,-3.642c-0.67114,-2.27928 -1.03165,-3.35872 -1.40665,-4.39867c-0.3653,-1.01305 -0.75116,-1.99171 -1.155,-2.93849c-0.39636,-0.92924 -0.80939,-1.83418 -1.245,-2.7135c-0.85922,-1.73445 -1.32977,-2.5735 -1.80536,-3.41333c-0.48169,-0.85059 -0.99216,-1.70851 -1.53299,-2.58151c-0.56033,-0.9045 -1.15973,-1.83804 -1.80301,-2.80649c-1.39322,-2.09744 -2.17834,-3.21776 -2.99066,-4.39601c-0.84,-1.21843 -1.70135,-2.46394 -2.56049,-3.735c-0.86221,-1.27562 -1.71518,-2.54726 -2.5155,-3.825c-1.53397,-2.44897 -2.18747,-3.64088 -2.79333,-4.78799c-0.57971,-1.09758 -1.10165,-2.16667 -1.58701,-3.19951c-0.46643,-0.99261 -0.8952,-1.95761 -1.31699,-2.88449c-0.80264,-1.76379 -1.2038,-2.59885 -1.60669,-3.40533c-0.39288,-0.78648 -0.78949,-1.5486 -1.18048,-2.2935c-0.38373,-0.73109 -0.76709,-1.44722 -1.1355,-2.15849c-0.72543,-1.40054 -1.06686,-2.10281 -1.40134,-2.80534c-0.33417,-0.70183 -0.65961,-1.40891 -0.98401,-2.1195c-0.32629,-0.71473 -0.65091,-1.43713 -0.98399,-2.1645c-0.67911,-1.48297 -1.03516,-2.23631 -1.39867,-2.99333c-0.36349,-0.75697 -0.72998,-1.505 -1.09651,-2.238c-0.35753,-0.715 -0.70728,-1.40395 -1.0515,-2.05801c-0.62921,-1.19559 -0.92369,-1.71838 -1.19466,-2.19333c-0.24492,-0.42928 -0.46989,-0.8098 -0.6705,-1.1445c-0.17416,-0.29057 -0.32639,-0.53472 -0.44551,-0.7395c-0.1624,-0.27919 -0.21452,-0.36236 -0.20399,-0.408c0.00452,-0.01955 0.04419,-0.00887 0.08701,0.0225c0.05647,0.04137 0.11526,0.0977 0.177,0.1575c0.1158,0.11216 0.15982,0.15849 0.196,0.19466c0.02817,0.02817 0.04933,0.04933 0.0645,0.0645c0.01016,0.01017 0.01633,0.01633 0.0195,0.0195c0.00133,0.00134 0.00133,0.00134 0.00133,0.00134c0,0 0,0 0,0c0,0 0,0 0,0c0,0 0,0 0,0c0,0 0,0 0,0c0,0 0,0 0,0c0,0 0,0 0,0c0,0 0,0 0,0l0,0l0,0l0,0" id="svg_3" stroke-width="2" stroke="#000" fill="none"/>
  <path t="6107,6272,6272,6272,6272,6272,6272,6272,6272,6272,6305,6305,6305,6305,6305,6306,6306,6306,6306,6347,6348,6348,6348,6348,6348,6349,6349,6349,6358,6358,6358,6359,6359,6359,6359,6359,6359,6374,6374,6375,6375,6375,6375,6375,6375,6376,6406,6407,6407,6407,6407,6408,6408,6408,6408,6414,6414,6414,6415,6415,6415,6415,6415,6415,6422,6422,6422,6423,6423,6423,6423,6423,6424,6440,6440,6440,6441,6441,6441,6441,6441,6442,6473,6474,6474,6474,6474,6475,6475,6475,6475,6489,6490,6491,6491,6491,6492,6492,6493,6493,6508,6508,6509,6509,6509,6510,6510,6510,6511,6539,6540,6540,6540,6541,6541,6541,6542,6542,6556,6557,6557,6557,6558,6559,6559,6559,6560,6576,6577,6577,6577,6577,6578,6578,6578,6579,6588,6589,6589,6590,6590,6590,6591,6591,6591,6607,6607,6608,6608,6609,6609,6610,6610,6611" d="m370,336c-8.5,-17.5 -9.2323,-18.90854 -9.94135,-20.23599c-0.67542,-1.26447 -1.33289,-2.47009 -1.9545,-3.63901c-0.60364,-1.13513 -1.19241,-2.24817 -1.72949,-3.36899c-1.0737,-2.24078 -1.54068,-3.41928 -2.01468,-4.62668c-0.48962,-1.24722 -0.97174,-2.55524 -1.48499,-3.92099c-0.54001,-1.43695 -1.10849,-2.9566 -1.755,-4.55099c-1.42087,-3.50403 -2.28098,-5.39676 -3.19733,-7.38135c-0.95129,-2.0603 -1.95996,-4.1586 -3.00601,-6.276c-1.04996,-2.12534 -2.11288,-4.22644 -3.186,-6.276c-2.04291,-3.90176 -3.03943,-5.69064 -3.98798,-7.388c-0.90469,-1.6189 -1.78772,-3.1615 -2.63852,-4.6485c-0.82523,-1.44232 -1.63705,-2.84781 -2.41348,-4.2435c-1.54007,-2.76846 -2.27472,-4.18448 -3.008,-5.616c-0.73978,-1.44415 -1.46899,-2.91019 -2.20352,-4.3905c-0.74149,-1.49434 -1.48358,-3.00638 -2.2485,-4.5255c-1.55301,-3.08423 -2.37106,-4.638 -3.21066,-6.21733c-0.86197,-1.6214 -1.76605,-3.291 -2.70749,-5.028c-0.9852,-1.81769 -2.02527,-3.72673 -3.11249,-5.748c-2.37451,-4.41446 -3.65079,-6.83665 -4.98401,-9.37067c-1.37317,-2.60995 -2.76105,-5.26414 -4.1535,-7.923c-1.37689,-2.62914 -2.71759,-5.1945 -4.01849,-7.653c-2.36874,-4.47656 -3.42792,-6.42244 -4.39069,-8.19067c-0.88065,-1.61737 -1.69949,-3.10736 -2.44498,-4.5105c-0.70755,-1.33173 -1.38245,-2.6245 -1.995,-3.92549c-1.25269,-2.66051 -1.82239,-4.11252 -2.41202,-5.61867c-0.60632,-1.54881 -1.19366,-3.1389 -1.78049,-4.7475c-0.58783,-1.6114 -1.15814,-3.21703 -1.7355,-4.79251c-1.10812,-3.02388 -1.6571,-4.4407 -2.20667,-5.80133c-0.53665,-1.32867 -1.08954,-2.63217 -1.66202,-3.927c-0.57947,-1.31058 -1.19205,-2.64412 -1.84198,-4.017c-1.39529,-2.94739 -2.17905,-4.53372 -2.99335,-6.192c-0.83795,-1.70641 -1.69531,-3.43567 -2.56049,-5.166c-0.85617,-1.71234 -1.69662,-3.38257 -2.5155,-4.98599c-1.4985,-2.93416 -2.17529,-4.21906 -2.79333,-5.39334c-0.56805,-1.07933 -1.09866,-2.07727 -1.58701,-3.01649c-0.46353,-0.89153 -0.90744,-1.7531 -1.31699,-2.6115c-0.82715,-1.73367 -1.21353,-2.65891 -1.60535,-3.61201c-0.39966,-0.97222 -0.78574,-1.96368 -1.16101,-2.964c-0.37405,-0.99703 -0.73239,-1.98756 -1.07098,-2.964c-0.64703,-1.866 -0.92874,-2.74976 -1.20267,-3.59467c-0.26337,-0.81243 -0.51428,-1.59834 -0.76801,-2.35799c-0.24771,-0.74167 -0.4949,-1.46927 -0.76801,-2.178c-0.54465,-1.41348 -0.86899,-2.10768 -1.19998,-2.80267c-0.33167,-0.6964 -0.68063,-1.38239 -1.03201,-2.061c-0.34729,-0.67072 -0.69751,-1.32585 -1.03201,-1.971c-0.64008,-1.23452 -0.92783,-1.82492 -1.19333,-2.39066c-0.24997,-0.53269 -0.47321,-1.03223 -0.6705,-1.4925c-0.17712,-0.4132 -0.32745,-0.77687 -0.4455,-1.0875c-0.16394,-0.43137 -0.23395,-0.55764 -0.20398,-0.60533c0.00681,-0.01085 0.04266,0.036 0.08698,0.1095l0.05435,0.0985l0.06033,0.1145l0.06232,0.1215" id="svg_4" stroke-width="2" stroke="#000" fill="none"/>
  <path t="7062,7205,7205,7205,7205,7205,7205,7205,7205,7205,7222,7222,7222,7222,7222,7222,7222,7222,7222,7239,7239,7239,7239,7239,7240,7240,7240,7240,7276,7276,7276,7277,7277,7277,7277,7277,7277,7289,7290,7290,7290,7290,7290,7291,7291,7291,7307,7307,7307,7308,7308,7308,7308,7308,7309,7342,7343,7343,7343,7344,7344,7344,7344,7345,7350,7351,7351,7351,7351,7352,7352,7352,7352,7374,7375,7375,7375,7375,7375,7376,7376,7376,7390,7391,7391,7392,7392,7392,7392,7392,7393,7409,7410,7410,7411,7411,7411,7411,7411,7412,7422,7422,7423,7423,7423,7423,7424,7424,7424,7456,7457,7457,7458,7458,7459,7459,7460,7460,7477,7478,7478,7479,7479,7479,7480,7480,7480,7488,7489,7489,7489,7490,7490,7490,7491,7491,7505,7506,7506,7506,7507,7507,7508,7508,7508,7541,7542,7542,7543,7543,7543,7544,7544,7544,7556,7559,7559,7560,7560,7561,7561,7562,7562" d="m369,351c-6.66666,-11.66666 -7.26141,-12.75626 -7.83334,-13.84c-0.56973,-1.07962 -1.13062,-2.17136 -1.6875,-3.285c-0.56989,-1.13965 -1.14661,-2.32098 -1.73248,-3.55499c-1.25732,-2.64832 -1.91248,-4.09067 -2.60135,-5.59735c-0.71384,-1.56128 -1.44229,-3.16818 -2.18698,-4.806c-0.75394,-1.65817 -1.51099,-3.32568 -2.27701,-4.98599c-1.50745,-3.26736 -2.25708,-4.8457 -2.99466,-6.388c-0.72247,-1.51071 -1.43912,-2.98843 -2.14502,-4.43851c-0.69412,-1.4259 -1.38165,-2.82819 -2.05499,-4.2135c-1.32324,-2.72244 -1.96686,-4.06833 -2.60132,-5.40533c-0.62988,-1.32736 -1.25046,-2.6488 -1.8645,-3.96448c-0.61127,-1.30966 -1.21689,-2.61609 -1.81952,-3.91953c-1.20242,-2.6008 -1.80035,-3.90317 -2.40799,-5.20932c-0.61401,-1.31985 -1.24243,-2.65805 -1.89749,-4.017c-0.67151,-1.3931 -1.37238,-2.82272 -2.1225,-4.28699c-1.5871,-3.09814 -2.47546,-4.71954 -3.39868,-6.39734c-0.95062,-1.72763 -1.94077,-3.48718 -2.95801,-5.27402c-1.03073,-1.81052 -2.07983,-3.63058 -3.138,-5.45399c-2.10767,-3.63185 -3.15634,-5.41969 -4.19199,-7.18933c-1.02435,-1.75037 -2.03934,-3.48038 -3.04501,-5.19c-0.99435,-1.69038 -1.97894,-3.36061 -2.95499,-5.00999c-1.918,-3.2412 -2.86456,-4.82974 -3.79733,-6.39734c-0.91855,-1.54372 -1.82217,-3.06085 -2.70599,-4.55099c-0.86548,-1.4592 -1.71033,-2.88559 -2.526,-4.28101c-1.56305,-2.67398 -2.29782,-3.95688 -3.004,-5.21466c-0.69543,-1.23862 -1.37369,-2.47763 -2.0325,-3.73351c-0.668,-1.27344 -1.33401,-2.5864 -1.98752,-3.9585c-1.39307,-2.92491 -2.08115,-4.52808 -2.80399,-6.2c-0.74869,-1.73169 -1.50156,-3.51857 -2.271,-5.34151c-0.77988,-1.84773 -1.56021,-3.71072 -2.36102,-5.5665c-1.58319,-3.66878 -2.39172,-5.4454 -3.19464,-7.18533c-0.78851,-1.70871 -1.57959,-3.3795 -2.36102,-5.019c-0.76791,-1.61116 -1.53079,-3.19102 -2.271,-4.74899c-1.44409,-3.03947 -2.13126,-4.53096 -2.79868,-6.00267c-0.65683,-1.44833 -1.29196,-2.87885 -1.90948,-4.29001c-0.60776,-1.38885 -1.19833,-2.75912 -1.77451,-4.11c-1.12527,-2.63832 -1.66718,-3.93166 -2.20801,-5.21333c-0.54083,-1.28166 -1.08569,-2.57373 -1.64249,-3.88499c-0.56985,-1.34207 -1.15903,-2.72446 -1.7775,-4.155c-1.32108,-3.05576 -2.04523,-4.69121 -2.79599,-6.396c-0.77457,-1.75888 -1.56808,-3.55748 -2.36401,-5.38651c-0.80142,-1.84164 -1.59897,-3.68362 -2.36401,-5.5215c-1.48813,-3.5749 -2.15543,-5.30502 -2.7933,-6.97867c-0.61493,-1.61345 -1.18851,-3.17182 -1.73851,-4.6665c-0.52597,-1.42934 -1.01959,-2.79457 -1.5135,-4.0815c-0.90677,-2.36268 -1.36086,-3.42055 -1.80267,-4.404c-0.41438,-0.92239 -0.82655,-1.77804 -1.22549,-2.577c-0.37598,-0.75294 -0.74544,-1.45708 -1.0905,-2.127c-0.64197,-1.24631 -0.93265,-1.83703 -1.20267,-2.41334c-0.26289,-0.56109 -0.51012,-1.11641 -0.7485,-1.668c-0.23759,-0.54976 -0.46933,-1.10519 -0.70349,-1.668c-0.48471,-1.16505 -0.73781,-1.77365 -0.99733,-2.39067c-0.2588,-0.61532 -0.51334,-1.21733 -0.75751,-1.79549l-0.22917,-0.54317l-0.20917,-0.49717l-0.18416,-0.44016" id="svg_5" stroke-width="2" stroke="#000" fill="none"/>
  <path t="7902,8055,8055,8055,8055,8055,8055,8055,8055,8055,8072,8072,8072,8072,8072,8072,8073,8073,8073,8129,8130,8130,8130,8130,8130,8130,8130,8131,8140,8140,8140,8140,8140,8141,8141,8141,8141,8148,8148,8149,8149,8149,8149,8149,8149,8149,8156,8156,8157,8157,8157,8157,8157,8157,8158,8196,8196,8196,8197,8197,8197,8197,8197,8197,8233,8233,8234,8234,8234,8234,8234,8234,8235,8250,8251,8251,8256,8256,8256,8256,8257,8257,8262,8263,8263,8263,8263,8263,8264,8264,8264,8295,8296,8296,8296,8297,8297,8297,8297,8297,8303,8304,8304,8305,8305,8305,8305,8306,8306,8319,8320,8321,8321,8321,8322,8322,8322,8322,8339,8340,8340,8341,8341,8341,8341,8342,8342" d="m340,337c-7.33334,-20.16666 -7.9209,-21.99054 -8.46268,-23.77335c-0.52841,-1.73892 -1.02423,-3.44699 -1.51648,-5.1225c-0.48508,-1.65112 -0.95999,-3.28613 -1.4715,-4.89749c-1.02081,-3.21585 -1.6037,-4.81061 -2.20535,-6.40799c-0.60532,-1.60706 -1.24646,-3.21161 -1.90649,-4.81952c-0.66394,-1.61743 -1.3501,-3.23672 -2.0415,-4.8645c-1.39413,-3.2821 -2.09854,-4.9368 -2.79999,-6.612c-0.71158,-1.69943 -1.43033,-3.43372 -2.15851,-5.211c-0.74789,-1.82535 -1.51257,-3.70923 -2.29349,-5.66098c-1.65155,-4.12766 -2.509,-6.32291 -3.39868,-8.59067c-0.91302,-2.32724 -1.84088,-4.70071 -2.78699,-7.10251c-0.95258,-2.4182 -1.90762,-4.83784 -2.87701,-7.2375c-1.90088,-4.70558 -2.85373,-6.97284 -3.79468,-9.18266c-0.91922,-2.15881 -1.83484,-4.26096 -2.745,-6.30901c-0.88995,-2.00258 -1.77368,-3.95558 -2.655,-5.85899c-1.70776,-3.68835 -2.56198,-5.46445 -3.39999,-7.20534c-0.82205,-1.70775 -1.63806,-3.37961 -2.44501,-5.019c-0.79309,-1.61127 -1.57898,-3.19318 -2.35498,-4.74899c-1.51807,-3.04366 -2.26578,-4.53503 -3.00934,-6.02c-0.74677,-1.49136 -1.50443,-3.0018 -2.28149,-4.5435c-0.80023,-1.58765 -1.63245,-3.23331 -2.5065,-4.9485c-1.88522,-3.69942 -2.91696,-5.69836 -3.99066,-7.78534c-1.10562,-2.14902 -2.23129,-4.33499 -3.35703,-6.53699c-1.1196,-2.19002 -2.21866,-4.34433 -3.267,-6.44701c-1.95502,-3.9212 -2.8082,-5.71179 -3.59067,-7.38c-0.72748,-1.55101 -1.38831,-3.00266 -1.99649,-4.36049c-0.56897,-1.27025 -1.09259,-2.46777 -1.59149,-3.5955c-0.92612,-2.09343 -1.37292,-3.0743 -1.81201,-4.024c-0.42963,-0.92928 -0.85962,-1.84355 -1.284,-2.75549c-0.42627,-0.91606 -0.85809,-1.84456 -1.284,-2.80051c-0.8941,-2.00693 -1.34,-3.08344 -1.79733,-4.19333c-0.46539,-1.12943 -0.92352,-2.26898 -1.377,-3.40201c-0.44518,-1.11232 -0.87228,-2.19229 -1.287,-3.222c-0.75037,-1.86307 -1.08577,-2.66922 -1.39867,-3.38933c-0.28058,-0.64572 -0.54163,-1.21915 -0.7935,-1.722c-0.22484,-0.44888 -0.43687,-0.84569 -0.65849,-1.18201c-0.38351,-0.58203 -0.59767,-0.80888 -0.8,-1.00932c-0.18532,-0.18358 -0.36829,-0.33455 -0.5415,-0.4545c-0.15138,-0.10483 -0.28685,-0.18648 -0.40649,-0.22951c-0.15187,-0.05461 -0.20058,-0.03352 -0.20134,-0.00533c-0.00116,0.04231 0.04266,0.092 0.08701,0.15149l0.05432,0.0645l0.06033,0.06651l0.06235,0.06549" id="svg_6" stroke-width="2" stroke="#000" fill="none"/>
 </g>
 <g display="none">
  <title>muse_image</title>
  <image xlink:href="http://farm1.static.flickr.com/192/470063023_d5efc171a3.jpg" id="muse" height="480" width="276" y="0" x="182"/>
 </g>
 <g display="none">
  <title>bbox</title>
  <rect stroke="#f00" fill="none" stroke-width="3" height="433.92" width="153.33333" y="6.72" x="241.41667" id="bbox"/>
 </g>
</svg>
