<svg width="640" height="480" xmlns="http://www.w3.org/2000/svg" xmlns:svg="http://www.w3.org/2000/svg" xmlns:xlink="http://www.w3.org/1999/xlink">
 <!-- Sketchy ANNOTATION
  ImageNet ID: n03272010_6662
  URL: http://farm1.static.flickr.com/192/498791029_dd503c0a05.jpg
  Image Width: 375
  Image Height: 500
  BBox X: 146
  BBox Y: 30
  BBox Width: 153
  BBox Height: 419
  Exposure: 2000ms
  Synset Label: guitar
  Synset ID: n03467517
  Worker Tag: electric guitar put on holder
  Sanity Check: 
   Saved
  Comment: 
   {}
  Worker ID: A1P7U2ULSAE7YL
  Assignment ID: 3M68NM076H7OQQ02OY2VIVN0UAQR6Z
  HIT ID: 3GV1I4SEO9PB087VTC0X7ZJGL8HL6M
  Work Time: 131s
  Worker Score: 0.7857
 END ANNOTATION -->
 <g display="inline">
  <title>Layer 1</title>
  <path t="0,240,248,255,264,280,287,287,297,303,303,312,312,319,329,329,335,344,344,351,351,359,360,367,375,375,383,384,384,400,400,400,407,407,416,416,423,432,432,439,440,448,448,455,455,455,463,463,463,472,472,479,488,488,488,495,496,496,504,504,512,512,520,520,520,529,529,536,536,545,545,552,552,552,559,559,567,568,575,575,583,583,584,591,591,591,599,600,607,608,608,616,616,616,623,624,631,631,632,632,640,640,648,648,648,656,656,656,663,663,664,671,671,679,679,688,688,708,708,708,709,709,709,712,720,720,728,728,736,736,736,745,745,752,759,760,771,771,777,777,777,783,784,784,791,791,791,800,800,807,807,815,816,823,824,824,832,832,832,839,839,848,856,856,864,864,872,872,881,881,887,904,904,915,920,920,920,928,936,936,951,962,962,968,976,976,984,992,1000,1001,1008,1008,1016,1032,1048,1056,1056,1065,1080,1080,1088,1104,1104,1112,1120,1128,1145,1145,1168,1168,1176,1184,1192,1207,1216,1224,1271,1272,1287,1303,1335,1344,1383,1431,1439,1471,1495,1504,1543,1560,1576,1591,1631,1671,1680,1703,1727,1775,1839,1839,1863,1887,1935,1951,1991,2031,2111,2183,2183,2223,2255,2264,2271,2303,2343,2352,2367,2439,2511,2559,2583,2583,2599,2623,2623,2640,2655,2664,2703,2703,2719,2730,2730,2747,2751,2760,2776,2784,2793,2809,2824,2832,2847,2855,2864,2864,2871,2879,2879,2887,2887,2896,2903,2913,2919,2929,2935,2936,2946,2952,2960,2967,2991,2991,3000,3009,3009,3015,3023,3024,3032,3039,3048,3055,3064,3064,3071,3072,3080,3080,3087,3096,3103,3104,3113,3119,3130,3130,3135,3136,3136,3145,3146,3151,3151,3162,3167,3168,3179,3183,3192,3192,3200,3200,3209,3209,3215,3223,3231,3239,3240,3248,3255,3256,3264,3271,3272,3280,3280,3287,3287,3296,3296,3303,3303,3312,3313,3319,3320,3329,3329,3335,3345,3352,3359,3359,3368,3368,3375,3376,3384,3392,3408,3425,3425,3425,3431,3431,3439,3440,3448,3448,3455,3464,3471,3472,3480,3480,3487,3487,3495,3496,3503,3513,3519,3535,3535,3545,3546,3552,3562,3568,3568,3576,3584,3592,3592,3600,3600,3609,3615,3625,3625,3632,3640,3647,3679,3687,3703,3711,3712,3719,3729,3729,3736,3746,3746,3751,3762,3767,3768,3778,3791,3800,3808,3825,3832,3847,3855,3856,3864,3880,3896,3896,3903,3904,3919,3929,3929,3936,3951,3967,3983,3999,3999,4008,4025,4025,4032,4055,4071,4103,4119,4151,4175,4215,4216,4231,4247,4263,4280,4303,4327,4351,4360,4399,4423,4447,4447,4495,4527,4543,4552,4567,4578,4599,4671,4719,4728,4728,4815,4831,4863,4895,4919,4919,4927,4959,4991,5007,5016,5127,5167,5199,5231,5240,5295,5319,5359,5359,5471,5607,5655,5712,5751" d="m348.51135,89.09091c0,1.8 0,2.7 0,3.6c0,0.9 0,1.7045 0,2.72134c0,0.67867 0,1.65717 0,2.67867c0,0.75716 0,1.65266 0,2.516c0,0.85867 0,1.80534 0,2.65867c0,0.93999 0,1.82533 0,2.63966c0,0.95367 0,1.68567 0,2.85233c0,0.79167 0,1.63783 0,2.65484c0,0.69933 0,1.6785 0,2.48917c0,0.87466 0,1.87333 0,2.68933c0,0.816 0,1.81333 0,2.65334c0,0.96266 0,1.73067 0,2.672c0,1.008 0,1.8 0,2.66c0,0.91917 0,1.916 0,2.75067c0,0.93067 0,1.71667 0,2.53866c0,1.05867 0,1.76817 0,2.62083c0,1.00317 0,1.94734 0,2.85184c0,0.91934 0,1.79434 0,2.43933c0,0.99734 0,1.81334 0,2.62933c0,1.22684 0,1.87334 0,2.884c0,0.8 0,1.8 0,2.60001c0,0.8 0,1.8 0,2.59999c0,1 0,1.8 0,2.8c0,0.8 0,1.8 0,2.60001c0,0.8 0,1.8 0,2.59999c0,1 0,1.8 0,2.8c0,0.8 0,1.8 0,2.61067c0,0.87466 0,1.87334 0,2.68933c0,0.81599 0,1.81599 0,2.72533c0,0.94135 0,1.72734 0,2.54933c0,1.05867 0,1.76817 0,2.62083c0,1.00717 0,1.87651 0,2.93784c0,0.63333 0,1.64584 0,2.30417c0,1.09834 0,2.0025 0,2.9055c0,0.729 0,1.56599 0,2.75684c0,0.8895 0,1.46416 0,2.53349c0,0.93066 0,1.76534 0,2.76668c0,0.79999 0,1.79999 0,2.59999c0,1 0,1.8 0,2.8c0,0.81067 0,1.45717 0,2.68266c0,0.79651 0,1.548 0,2.50751c0,0.9765 0,1.80983 0,2.78867c0,0.6825 0,1.7905 0,2.54199c0,0.79651 0,1.79251 0,2.63251c0,0.96133 0,1.84666 0,2.73199c0,0.77634 0,1.57634 0,2.8c0,0.55066 0,1.41916 0,2.6145c0,0.8895 0,1.46416 0,2.53349c0,0.93066 0,1.76534 0,2.76668c0,0.79999 0,1.79999 0,2.59999c0,1 0,1.8 0,2.8c0,0.81067 0,1.45717 0,2.68401c0,0.54132 0,1.36333 0,2.62933c0,0.64499 0,1.66516 0,2.68666c0,0.75717 0,1.65717 0,2.4045c0,0.9955 0,1.7955 0,2.79517c0,0.92834 0,1.84851 0,2.80034c0,0.8 0,1.672 0,2.54266c0,0.70801 0,1.68933 0,2.64301c0,0.91449 0,1.69966 0,2.63966c0,1.008 0,1.87016 0,2.6955c0,0.96317 0,1.65384 0,2.722c0,0.95718 0,1.75717 0,2.64252c0,0.93997 0,1.63065 0,2.668c0,0.88266 0,1.75116 0,2.76797c0,0.67868 0,1.65717 0,2.67868c0,0.79999 0,1.63599 0,2.48401c0,0.86331 0,1.88 0,2.81598c0,0.90002 0,1.70001 0,2.58536c0,0.93997 0,1.63065 0,2.70398c0,0.91068 0,1.81067 0,2.71066c0,0.89868 0,1.75269 0,2.70001c0,0.79999 0,1.70001 0,2.60001c0,0.89999 0,1.79999 0,2.69998c0,0.90002 -0.25861,1.92664 0.22134,2.57867c0.51398,0.69827 1.25003,0.8345 2.13135,1.12582c0.71304,0.23569 1.04269,1.19943 1.73132,1.71152c0.67709,0.50351 0.44797,1.14716 0.97318,1.92682c0.46085,0.68411 1.32996,0.67166 2.1095,1.19052c0.70743,0.47086 1.63333,0.16666 2.53333,0.16666c0.89999,0 1.79999,0 2.70001,0c0.89999,0 1.79865,0 2.76666,0c0.83331,0 1.76376,0.39307 2.548,-0.08533c0.80362,-0.4902 1.14279,-1.24594 1.71066,-1.88934c0.5246,-0.59439 1.11615,-1.22925 1.45316,-2.12515c0.31097,-0.82669 0.56766,-1.44775 1.03616,-2.18552c0.43912,-0.69147 0.08533,-1.71466 0.08533,-2.51465c0,-0.95718 0,-1.85269 0,-2.716c0,-0.96317 0,-1.784 0,-2.68268c0,-0.96799 0,-1.68799 0,-2.62668c0,-1.008 0,-1.76398 0,-2.67465c0,-0.89999 0,-1.79999 0,-2.70001c0,-0.89999 0,-1.79999 0,-2.74731c0,-0.75717 0,-1.65268 0,-2.55267c0,-0.91068 0,-1.82132 0,-2.67468c0,-0.93997 0,-1.82532 0,-2.71066c0,-0.94 0,-1.63065 0,-2.70398c0,-0.81067 0,-1.71066 0,-2.61069c0,-0.89999 0,-1.79999 0,-2.59999c0,-0.89999 0,-1.8 0,-2.7c0,-0.97917 0,-1.83333 0,-2.68533c0,-0.92934 0,-1.81467 0,-2.61467c0,-0.95717 0,-1.85266 0,-2.716c0,-0.96317 0,-1.784 0,-2.68399c0,-0.90001 0,-1.8 0,-2.68533c0,-0.95067 0,-1.716 0,-2.71017c0,-0.74733 0,-1.76849 0,-2.60583c0,-0.96533 0,-1.77783 0,-2.73734c0,-0.823 0,-1.72299 0,-2.52299c0,-0.95967 0,-1.76367 0,-2.58566c0,-1.03101 0,-1.911 0,-2.93117c0,-0.717 0,-1.6575 0,-2.50549c0,-0.86334 0,-1.88 0,-2.71735c0,-0.96533 0,-1.79866 0,-2.77733c0,-0.774 0,-1.674 0,-2.53734c0,-0.96317 0,-1.784 0,-2.68399c0,-0.90018 0,-1.68533 0,-2.62534c0,-1.008 0,-1.76401 0,-2.6955c0,-0.96451 0,-1.68983 0,-2.67917c0,-0.8 0,-1.8 0,-2.58934c0,-1.04399 0,-1.836 0,-2.696c0,-0.91916 0.00052,-1.91333 0,-2.67867c-0.00067,-0.952 -0.0611,-1.72911 -0.42532,-2.66133c-0.27271,-0.69795 -0.56424,-1.65366 -0.57468,-2.57466c-0.01019,-0.89995 0,-1.80267 0,-2.57068c0,-1.03467 0,-1.77866 0,-2.696c0,-0.912 0,-1.83333 0,-2.72266c0,-0.89867 0,-1.944 0,-2.61601c0,-0.74399 0,-1.85182 0,-2.60933c0,-1.0425 0,-1.78983 0,-2.78267c0,-0.88834 0,-1.77066 0,-2.64433c0,-0.95833 0,-1.74767 0,-2.79166c0,-0.79201 0,-1.65201 0,-2.37733c0,-0.98917 0,-1.95334 0,-2.90266c0,-0.88667 0,-1.64835 0,-2.54384c0,-0.74733 0,-1.7415 0,-2.68567c0,-0.89999 0,-1.85716 0,-2.75734c0,-0.78516 0,-1.71449 0,-2.65717c0,-0.81332 0,-1.65166 0,-2.64133c0,-0.76534 0,-1.84416 0,-2.70134c0,-0.89999 0,-1.7 0,-2.59999c0,-0.90001 0,-1.77917 0,-2.73601c0,-0.864 0,-1.76399 0,-2.66417c0,-0.78516 0,-1.72516 0,-2.73315c0,-0.75601 0,-1.6875 0,-2.65067c0,-0.69067 0,-1.75883 0,-2.61601c0,-0.89999 0,-1.7 0,-2.6c0,-0.89999 0,-1.8 0,-2.7c0,-0.9 0,-1.8 0,-2.7c0,-0.9 0,-1.7 0,-2.60001c0,-0.936 0,-1.78533 0,-2.51067c0,-0.98917 0,-1.95333 0,-2.904c0,-0.88533 0,-1.68533 0,-2.6c0,-0.896 0,-1.78533 0,-2.696c0,-0.91067 0,-1.764 0,-2.704c0,-0.88533 0,-1.68533 0,-2.58533c0,-0.89999 0,-1.8 0,-2.7c0,-0.9 0,-1.8 0,-2.7c0,-0.9 0,-1.7 0,-2.60001c0,-0.89999 0,-1.8 0,-2.7c0,-0.8955 -0.49765,-1.28646 -0.94281,-1.95717c-0.52234,-0.787 -0.05719,-1.84283 -0.05719,-2.74283c0,-0.9 0,-1.7 0,-2.60001c0,-0.89999 -0.08945,-1.71736 -0.57465,-2.32533c-0.49838,-0.62449 -0.58728,-1.49149 -1.14133,-2.05866c-0.65805,-0.67361 -1.4455,-0.71573 -2.28403,-1.08266c-0.73535,-0.32178 -1.43597,-0.83334 -2.29999,-0.83334c-0.89999,0 -1.79999,0 -2.70001,0c-0.79999,0 -1.69998,0 -2.59998,0c-0.90002,0 -1.80002,0 -2.6955,0c-0.92603,0 -1.8089,-0.08868 -2.70453,0c-0.84567,0.08374 -1.31686,0.581 -1.87848,1.2215c-0.58469,0.66683 -0.12152,1.7785 -0.12152,2.5785c0,0.9 0,1.8 0,2.7l0,0.9l0,0.89999" id="svg_1" stroke-width="2" stroke="#000" fill="none"/>
  <path t="7567,7839,7839,7863,7887,7887,7903,7927,7935,7943,7975,8015,8015,8047,8071,8079,8103,8127,8143,8159,8167,8183,8199,8231,8247,8279,8303,8319,8327,8343,8359,8375,8383,8399,8407,8407,8423,8431,8447,8463,8471,8479,8495,8511,8511,8519,8519,8527,8535,8553,8559,8575,8599,8607,8615,8639,8639,8647,8671,8679,8711,8767,8791,8799,8815,8831,8839,8959,8975,9007,9039,9047,9047,9071,9119,9135,9151,9159,9183,9191,9207,9215,9239,9255,9255,9295,9327,9343,9367,9383,9391,9391,9407,9431,9439,9455,9471,9489,9495,9527,9527,9535,9543,9559,9568,9585,9599,9615,9623,9639,9656,9671,9671,9687,9695,9711,9719,9727,9735,9751,9768,9784,9791,9807,9815,9831,9831,9847,9855,9855,9863,9887,9895,9895,9903,9911,9911,9919,9935,9943,9951,9959,9967,9975,9984,9991,10001,10007,10015,10023,10039,10055,10063,10063,10079,10095,10111,10119,10120,10135,10151,10159,10167,10184,10201,10207,10223,10223,10239,10247,10263,10279,10287,10295,10311,10327,10343,10343,10351,10367,10384,10391,10407,10431,10447,10455,10471,10487,10495,10495,10519,10543,10551,10559,10559,10575,10583,10583,10601,10607,10617,10631,10639,10639,10656,10663,10687,10695,10695,10719,10735,10751,10751,10759,10783,10791,10807,10816,10823,10831,10831,10839,10847,10863,10879,10879,10887,10903,10920,10937,10943,10959,10975,10975,10983,11000,11023,11047,11055,11079,11095,11103,11127,11136,11143,11167,11167,11175,11183,11207,11216,11232,11239,11247,11255,11255,11263,11279,11279,11303,11319,11319,11335,11343,11367,11367,11383,11391,11399,11416,11423,11432,11439,11447,11455,11455,11471,11487,11495,11511,11527,11527,11535,11543,11559,11559,11567,11567,11575,11583,11591,11599,11607,11615,11632,11632,11649,11656,11671,11671,11687,11703,11711,11719,11727,11743,11751,11767,11791,11807,11807,11823,11823,11832,11848,11871,11887,11895,11903,11911,11920,11936,11943,11967,11975,11976,11983,12003,12015,12023,12063,12071,12087,12111,12111,12127,12136,12159,12183,12207,12207,12223,12239,12248,12248,12265,12279,12295,12295,12311,12343,12351,12367,12383,12399,12431,12463,12463,12487,12495,12503,12503,12511,12511,12519,12520,12527,12527" d="m346.51135,251.09091c0,1 0.00241,1.8 0,2.75717c-0.00226,0.89551 0.04468,1.63304 -0.42532,2.60684c-0.37567,0.77838 -0.25259,1.77408 -0.74133,2.46933c-0.50327,0.71591 -1.17221,1.18814 -1.54932,1.88132c-0.43283,0.79559 -0.17535,2.01022 -0.89468,2.27466c-0.83478,0.30685 -1.82416,-0.23221 -2.68481,0.01517c-0.76788,0.2207 -1.22519,0.98508 -2.20453,0.99551c-0.89993,0.00958 -1.79999,0 -2.69998,0c-0.89984,0 -1.74734,0 -2.60135,0c-0.89865,0 -1.79865,0 -2.69867,0c-0.89999,0 -1.80472,0.09085 -2.69998,-0.00134c-0.81262,-0.08368 -1.24722,-0.8205 -1.82535,-1.56265c-0.48608,-0.62402 -1.13397,-1.31018 -1.94931,-1.436c-0.82135,-0.12677 -1.47949,-0.60092 -2.436,-0.97467c-0.87878,-0.34338 -1.56927,-0.58078 -2.42267,-0.85867c-0.84592,-0.27548 -1.69284,-0.62305 -2.46216,-1.11398c-0.70532,-0.4501 -0.89133,-1.3837 -1.70453,-1.88602c-0.76358,-0.47166 -1.39786,-0.84993 -1.94733,-1.52382c-0.57355,-0.7034 -0.88501,-1.41466 -1.04816,-2.34283c-0.14972,-0.85188 -0.85907,-1.25185 -1.00452,-1.91068c-0.19171,-0.86842 0.32224,-1.84695 -0.01065,-2.77866c-0.26331,-0.73692 -0.63452,-1.30615 -1.01016,-2.08984c-0.3371,-0.70325 -1.47919,-0.52307 -2.37918,-0.52083c-0.89999,0.00226 -1.73813,0.38652 -2.39999,0.716c-0.85706,0.42662 -1.8107,0.27867 -2.70001,0.284c-0.88937,0.00534 -1.44119,0.75941 -2.2045,0.9955c-0.85635,0.26488 -1.74399,0.40071 -2.17416,1.10434c-0.47565,0.77798 -1.24536,1.09323 -1.82132,1.60466c-0.73227,0.65021 -1.76389,0.9131 -2.21466,1.58084c-0.51401,0.76138 -0.08536,1.81467 -0.08536,2.71466c0,0.8 0,1.7 0,2.60001c0,0.89999 0,1.79999 0,2.69998c0,0.89868 0,1.75269 0,2.70001c0,0.79999 0,1.70001 0,2.60001c0,0.89999 0,1.79999 0,2.69998c0,0.90002 0,1.80002 0,2.70001c0,0.83334 0,1.64667 0,2.65268c0,0.69464 0,1.71133 0,2.64731c0,0.90002 -0.25626,1.92493 0.22134,2.57867c0.51071,0.69907 0.62888,1.33392 0.77884,2.22116c0.14401,0.85202 0.71228,1.30185 1.00433,2.19568c0.24991,0.76486 1.34125,0.89102 1.71017,1.59116c0.45276,0.85922 0.27667,1.94675 0.28531,2.70267c0.01044,0.91086 0.34244,1.72449 1,2.41068c0.5871,0.61264 1.1058,1.34021 2,1.83334c0.66321,0.36575 1.11932,0.94736 1.57468,1.76666c0.43451,0.78177 0.97031,1.56488 1.34,2.31598c0.35385,0.71893 0.77084,1.50659 1.02817,2.384c0.25345,0.8642 0.66486,1.43918 1.02118,2.13602c0.43454,0.84982 0.66217,1.39233 1.33148,1.92117c0.74094,0.58542 0.55847,1.67053 0.76169,2.34283c0.26456,0.87524 0.80722,1.60852 0.94415,2.5c0.14069,0.9158 0.76303,1.44611 1.388,2.19998c0.54504,0.65744 0.2883,1.75381 0.832,2.47867c0.4823,0.64301 0.77866,1.32135 0.77866,2.22134c0,0.89999 0,1.69998 0,2.60001c0,0.89999 0,1.79999 0,2.69998c0,0.89999 0,1.79868 0,2.65268c0,0.83398 0,1.77264 0,2.46332c0,1.07333 0,1.98401 0,2.884c0,0.89999 0,1.80002 0,2.70001c0,0.89999 0.17474,1.80981 -0.05716,2.60449c-0.22186,0.76025 -1.16162,1.30627 -1.58566,1.99551c-0.50534,0.82138 -0.12735,1.83548 -0.37851,2.69998c-0.22794,0.78458 -1.27509,1.06598 -1.80933,1.80002c-0.57736,0.79327 -0.60187,1.63055 -1.19467,2.36398c-0.52597,0.65073 -1.53851,0.91187 -1.922,1.73599c-0.35675,0.76669 -0.89883,1.4668 -1.04199,2.30002c-0.16324,0.95013 0.1218,1.90829 -0.36783,2.69998c-0.35178,0.56882 -1.19153,1.16321 -1.59018,2c-0.41296,0.86679 -0.88828,1.33472 -1.75266,1.75269c-0.81836,0.39572 -1.18854,1.2883 -1.72534,1.922c-0.50278,0.59351 -0.43933,1.49152 -0.85999,2.22534c-0.39355,0.68655 -1.16071,1.32043 -1.66202,2.09549c-0.45911,0.70981 -1.30624,1.24442 -1.61667,1.88983c-0.42999,0.89401 -0.11935,1.9617 -0.60266,2.64801c-0.5032,0.71454 -0.83334,1.36667 -0.83334,2.26666c0,0.89999 0,1.69998 0,2.60001c0,0.89999 0.00226,1.79999 0,2.69998c-0.00226,0.89551 -0.6705,1.40686 -0.97916,2.12085c-0.34894,0.80719 -0.02084,1.77914 -0.02084,2.67917c0,0.89999 0,1.79999 0,2.59998c0,0.90002 0,1.80002 0,2.70001c0,0.88934 -0.05469,1.89713 0.42535,2.47467c0.51602,0.62082 0.85699,1.50873 1.14932,2.164c0.4216,0.94507 0.25388,1.89886 0.51068,2.66132c0.26883,0.79813 0.97888,1.54428 1.41464,2.17917c0.55594,0.80997 1.28485,1.28381 1.66669,2.02084c0.39063,0.75397 0.42776,1.59674 0.85416,2.47916c0.33929,0.70218 1.58844,0.35358 2.27466,0.87802c0.75024,0.57336 1.10196,1.31247 1.62051,1.92816c0.56049,0.66547 0.82971,1.37607 1.47333,2.104c0.65475,0.74054 0.89996,1.49347 1.71066,1.61081c0.90582,0.1311 1.55368,0.79501 2.39999,0.979c0.88,0.19131 1.68436,0.3295 2.38535,0.82217c0.74564,0.52405 1.50647,1.03198 2.09384,1.67783c0.56033,0.61609 0.59854,1.59372 1.24216,2.27783c0.56335,0.59879 1.38934,0.85367 2.07867,1.543c0.5,0.5 1.15735,1.26114 2,1.64734c0.76874,0.35229 1.46686,0.89853 2.29999,1.04199c0.88699,0.15274 1.85764,-0.31155 2.78934,0.02133c0.73691,0.26331 1.004,1.1665 1.60934,1.70535c0.50394,0.44858 1.54846,0.22299 2.48532,0.56934c0.71609,0.26471 1.43192,0.90897 2.21152,1.35748c0.7558,0.43481 1.7045,0.35718 2.60449,0.35718c0.89999,0 1.85861,-0.30475 2.67465,0.01065c0.79291,0.30649 1.4248,0.97134 2.32535,0.98935c0.89981,0.01801 1.79999,0 2.69998,0c0.80002,0 1.70001,0 2.60001,0c0.89999,0 1.78934,0 2.68533,0c0.91467,0 1.81467,0 2.71466,0c0.80002,0 1.70001,0 2.60001,0c0.89999,0 1.81067,0 2.72116,0c0.8175,0 1.78418,0 2.54019,0c0.97198,0 1.83417,0 2.73865,0c0.92084,0 1.884,0 2.57468,0c1.06818,0 1.92532,0 2.82532,0c0.87869,0 1.42984,-0.37064 2.22153,-0.87851c0.74643,-0.47885 1.77847,-0.12149 2.57849,-0.12149c0.89999,0 1.74713,0.061 2.68399,-0.28534c0.71609,-0.26471 1.6171,-0.70779 2.06934,-1.35065c0.53098,-0.75479 0.55649,-1.71133 1.01868,-2.48135l0.68533,-0.54401" id="svg_2" stroke-width="2" stroke="#000" fill="none"/>
  <path t="14663,14759,14775,14791,14799,14823,14847,14871,14871,14887,14935,14974,14991,15039,15070,15095,15135,15143,15159,15206,15223,15255,15279,15319,15350,15359,15503,15527,15631,15647,15647,15654,15671,15702,15735,15775,15815,15846,15863,15863,15943,15975,15992,16015,16047,16047,16056,16103,16167,16199,16216,16271,16336,16504,16515,16536,16570,16577,16577,16592,16616,16642,16648,16704,16714,16729,16760,16768,16777,16800,16807,16839,16855,16856,16864,16872,16887,16912,16927,16983,16992,17007,17016,17039,17047,17056,17071,17087,17111,17120,17120,17159,17191,17199,17231,17255,17264,17287,17303,17304,17327,17343,17367,17383,17407,17447,17471,17495,17496,17527,17560,17568,17591,17631,17655,17671,17680,17719,17727,17743,17767,17776,17792,17809,17809,17816,17839,17855,17879,17887,17927,17943,17959,17983,17991,18039,18063,18063,18079,18111,18119,18199,18223,18247,18271,18271,18287,18295,18319,18327,18351,18367,18375,18375,18384,18391,18408,18415,18431,18432,18463,18472,18487,18487,18495,18519,18527,18536,18559,18568,18575,18584,18615,18623,18632,18642,18656,18656,18664,18671,18687,18687,18695,18704,18712,18720,18751,18767,18778,18792,18815,18815,18825,18825,18848,18858,18858,18872,18887,18911,18920,18935,18951,18951,18967,18976,18984,18984,18999,19015,19024,19063,19079,19080,19095,19111,19112,19127,19136,19143,19159,19168,19175,19199,19207,19216,19231,19231,19241,19271,19279,19296,19319,19327,19336,19351,19367,19391,19400,19400,19415,19431,19447,19457,19464,19487,19496,19519,19535,19535,19543,19551,19575,19583,19591,19600,19607,19616,19623,19648,19657,19657,19687,19711,19720,19735,19751,19759,19775,19775,19791,19815,19839,19848,19848,19871,19895,19919,19943,19975,20007,20016,20055,20079,20103,20103,20135,20175,20215,20239,20255,20271,20295,20295,20311,20343,20359,20391,20480,20623,20632" d="m372.51135,250.09091c0,1.61067 0,2.5 0,3.39999c0,0.90001 0,1.8 0,2.70001c0,0.89999 0,1.69998 0,2.60001c0,0.89999 0.13586,1.76028 0.64734,2.35266c0.56641,0.65601 0.75784,1.50485 1.32733,2.33667c0.45508,0.66467 1.1637,1.06003 1.74133,1.69464c0.58862,0.64667 0.95334,1.46442 1.64117,1.85886c0.8194,0.46988 2.12189,-0.26782 2.58566,0.41434c0.47427,0.69757 0.41287,1.61423 1.25583,1.64282c0.96747,0.03281 1.80133,0 2.60135,0c0.89999,0 1.79999,0 2.69998,0c0.90002,0 1.80002,0.00006 2.70001,0c0.89999,-0.00009 1.74884,-0.24399 2.44284,-0.64734c0.80838,-0.46985 1.35129,-0.97992 1.7825,-1.75266c0.45697,-0.81891 0.53745,-1.60086 0.57465,-2.39999c0.04272,-0.91766 0.92886,-1.41602 1,-2.29984c0.07224,-0.89752 0.74481,-1.44778 0.96402,-2.30017c0.22327,-0.86816 0.47144,-1.582 1.336,-1.60001c0.89981,-0.01874 1.79999,0 2.69998,0c0.80002,0 1.85571,0.0528 2,1c0.13232,0.86865 0.28696,1.32999 0.87851,2.00015c0.4931,0.55862 0.73053,1.50705 1.47867,1.94269c0.72894,0.42447 1.43011,0.43991 1.64417,1.25583c0.21033,0.80179 1.39325,0.95218 1.832,1.80133c0.32983,0.63837 -0.23154,1.70258 0.20267,2.564c0.35226,0.69888 0.56131,1.37381 1.04935,2.15067c0.4649,0.74002 0.59229,1.43915 1.13599,2.164c0.4823,0.64301 0.61932,1.41922 1.13135,2.06866c0.48456,0.61462 0.64731,1.35266 0.64731,2.25269c0,0.89999 0,1.79999 0,2.59998c0,1.03336 0,1.81067 0,2.70001c0,0.89999 0,1.79999 0,2.70001c0,0.89999 0,1.79999 0,2.59998c0,0.90002 0,1.80002 0,2.76401c0,0.87201 0,1.73599 0,2.63602c0,0.89999 0,1.79999 0,2.59998c0,0.90002 0.00195,1.81961 -0.42532,2.60001c-0.45038,0.82257 -0.57468,1.69983 -0.57468,2.60001c0,0.80133 -0.22653,1.54248 -0.87866,2.22134c-0.55716,0.57999 -1.10269,1.21411 -1.12134,2.07864c-0.01938,0.89847 -0.44193,1.4856 -1.19864,1.98535c-0.60895,0.40216 -0.38657,1.53897 -0.85852,2.35748c-0.39606,0.68689 -1.26047,1.10376 -1.85883,1.64117c-0.63846,0.57343 -1.23981,1.15732 -1.73132,1.76868c-0.51819,0.64453 -0.68369,1.39883 -1.186,2.11398c-0.48846,0.69543 -0.13943,1.63376 -0.16669,2.53336c-0.02859,0.94412 -0.85635,1.35178 -1,2.29999c-0.13159,0.86874 0,1.64667 0,2.65268c0,0.69464 0.00174,1.70752 0.5,2.34732c0.4808,0.6174 0.49551,1.5 0.5,2.39999c0.00452,0.90002 0.47018,1.66324 1.14935,2.20001c0.71078,0.56177 1.21948,0.99832 1.76532,1.68533c0.50946,0.64124 0.55481,1.4978 1.23468,1.73999c0.8382,0.29855 1.35117,1.19348 1.68399,1.97467c0.32019,0.75153 0.39322,1.54248 1.04535,2.22134c0.55716,0.57999 1.01508,1.25266 1.40533,1.97867c0.45947,0.85477 1.10889,1.20938 1.70532,1.79999c0.60541,0.59949 0.74985,1.44461 1.36783,1.94733c0.70346,0.57227 1.53345,1.04184 1.63834,1.75269c0.13791,0.93469 0.86087,1.35178 1.00449,2.29999c0.11981,0.79095 0.05246,1.81848 0.80136,1.99866c0.89197,0.2146 1.1618,0.80334 1.19864,1.83469c0.02914,0.81549 0.83655,1.30774 0.97919,2.1875c0.15335,0.94571 -0.02301,1.73309 0.02533,2.62732c0.04245,0.78552 0.91174,1.50613 0.99548,2.35184c0.07883,0.79608 0.02783,1.71744 0.5,2.47916c0.47156,0.76071 1.11111,1.26144 1.46402,1.9675c0.39139,0.78305 0.03598,1.728 0.03598,2.668c0,0.98535 0,1.88535 0,2.68533c0,0.90002 0,1.80002 0,2.67917c0,0.88251 0,1.84216 0,2.52084c0,0.97849 0,2 0,2.79999c0,0.90002 0,1.80002 0,2.70001c0,0.89999 0.12247,1.89487 -0.42532,2.46399c-0.48288,0.50168 -0.57468,1.23602 -0.57468,2.13602c0,0.89999 0.39294,1.83035 -0.08533,2.61465c-0.49005,0.80362 -0.65839,1.51025 -1.13599,2.164c-0.51071,0.69907 -0.45282,1.60172 -1.13583,2.06418c-0.77866,0.52722 -1.53659,0.53116 -1.92685,1.25717c-0.45947,0.85477 -0.59488,1.63559 -1.23682,2.27914c-0.63922,0.64084 -1.49411,0.90842 -2.05383,1.54617c-0.51746,0.5896 -1.20755,1.00656 -1.48251,1.67917c-0.34842,0.85229 -1.06421,1.60306 -1.74283,2.01016c-0.73593,0.44147 -1.51804,0.82236 -2.36667,1.28534c-0.70346,0.38379 -1.30704,0.74945 -2.12881,1.00449c-0.76309,0.23682 -1.33249,0.9834 -1.72986,1.60617c-0.47861,0.75009 -1.21707,1.37393 -1.68933,2.104c-0.46838,0.72406 -0.5155,1.7963 -1.38531,2.16385c-0.83658,0.35352 -1.51282,0.46432 -2.12152,1.00015c-0.70779,0.62305 -1.49146,0.7392 -2.37848,1.14667c-0.81277,0.37338 -1.59662,0.93195 -2.40002,0.97467c-0.79886,0.04248 -1.37524,0.45139 -2.02081,0.97916c-0.60449,0.4942 -1.67917,0.02084 -2.57916,0.02084c-0.90002,0 -1.80002,-0.00067 -2.70001,0c-0.89999,0.00067 -1.75082,0.30084 -2.39999,0.64734c-0.84937,0.45334 -1.77917,0.35266 -2.65717,0.35266c-0.94284,0 -1.84283,0 -2.74283,0c-0.90002,0 -1.70001,0 -2.60001,0c-0.89999,0 -1.80002,0 -2.70001,0l-0.89548,0l-0.92584,-0.00015l-0.72601,-0.35251" id="svg_3" stroke-width="2" stroke="#000" fill="none"/>
  <path t="23296,23383,23399,23415,23431,23447,23456,23471,23479,23487,23488,23495,23503,23511,23519,23527,23527,23536,23544,23553,23569,23569,23575,23583,23591,23607,23615,23631,23831,23911,23919,24143,24159,24191,24207,24223,24247,24247,24271,24359,24447,24471,24487,24495,24503,24519,24535,24536,24544,24559,24560,24575,24576,24591,24607,24615,24639,24639,24663,24687,24703,24712,24719,24727,24743,24759,24759,24775,24799,24831,24879,24895,25151,25167,25168,25207,25271,25287,25335,25383,25455,25471,25487,25496" d="m350.51135,390.09091c1.70001,0 2.64285,0 3.52084,0c0.97916,0 1.87918,0 2.77917,0c0.89999,0 1.80072,0.03665 2.69998,0c0.70175,-0.02859 1.42236,-0.68619 2.30002,-0.94284c0.86557,-0.25311 1.79999,-0.05716 2.69998,-0.05716c0.80002,0 1.70001,0 2.60001,0c0.92084,0 1.884,0 2.57468,0c1.06818,0 1.92517,0 2.85068,0c0.776,0 1.67465,0 2.57465,0c0.89999,0 1.80002,-0.00067 2.70001,0c0.89865,0.00067 1.67139,0.35135 1.69998,1.28534c0.02798,0.91425 0,1.81467 0,2.71466c0,0.79999 0.01065,1.70007 0,2.60001c-0.01041,0.87933 -0.6106,1.39465 -1.5,1.39999c-0.89996,0.0054 -1.79999,0 -2.70132,0c-0.96533,0 -1.77783,0 -2.63068,0c-0.88232,0 -1.577,0 -2.56665,0c-0.94415,0 -1.84418,0 -2.80133,0c-0.89999,0 -1.80002,0 -2.60001,0c-0.91467,0 -1.81067,0 -2.70001,0c-0.89999,0 -1.79999,0 -2.69998,0c-0.89999,0 -1.80002,0 -2.60001,0c-0.89999,0 -1.79999,0 -2.67917,0c-0.87799,0 -1.82739,0.10703 -2.72083,-0.00134c-0.91965,-0.11157 -1.60748,-0.65582 -1.78934,-1.59866c-0.17044,-0.88376 -0.01068,-1.79999 -0.01068,-2.69998c0,-0.90002 0,-1.79984 0,-2.64734l0,-0.854l0,-0.89868" id="svg_4" stroke-width="2" stroke="#000" fill="none"/>
  <path t="26432,26559,26567,26575,26583,26591,26591,26599,26607,26607,26615,26623,26632,26639,26639,26649,26656,26656,26663,26663,26664,26672,26679,26688,26688,26695,26695,26704,26711,26711,26720,26727,26735,26735,26743,26751,26759,26767,26767,26775,26783,26783,26791,26791,26799,26799,26807,26815,26823,26823,26832,26832,26839,26839,26848,26855,26855,26871,26879,26879,26879,26888,26888,26895,26904,26911,26911,26927,26927,26935,26935,26943,26943,26951,26959,26967,26967,26975,26975,26983,26991,26999,27007,27015,27015,27023,27023,27031,27048,27048,27055,27071,27088,27095,27111,27111,27119,27127,27143,27151,27167,27175,27191,27231,27231,27247,27271,27319,27360,27431,27447" d="m348.51135,290.09091c0,1.61066 0.15714,2.51572 -0.01065,3.39999c-0.17947,0.94592 -0.90424,1.5874 -0.98801,2.39999c-0.08572,0.8316 -0.00134,1.85269 -0.00134,2.54733c0,1.01669 0,1.95267 0,2.85269c0,0.90015 0,1.68533 0,2.62531c0,1.00803 0,1.69553 0,2.71735c0,0.70801 0,1.68933 0,2.64301c0,0.91434 0,1.81433 0,2.5715c0,0.89551 0,1.75882 0,2.74283c0,0.98401 0,1.67465 0,2.74283c0,0.85718 0,1.75717 0,2.55716c0,0.90002 0,1.80002 0,2.72086c0,0.96317 0,1.65381 0,2.72198c0,0.85733 0,1.64252 0,2.59317c0,0.76532 0,1.75949 0,2.50684c0,1.02118 0,1.96167 0,2.82382c0,0.85419 0,1.83334 0,2.62268c0,1.04401 0,1.79999 0,2.73151c0,0.96182 0,1.76932 0,2.70084c0,0.94498 0,1.61432 0,2.37964c0,1.18802 0,1.91336 0,2.87784c0,0.93152 0,1.84216 0,2.6955c0,0.94135 -0.04092,1.71069 0.01068,2.66135c0.04169,0.76782 0.36392,1.75122 0.63666,2.50684c0.32159,0.89099 0.35266,1.85718 0.35266,2.75732c0,0.78519 0,1.72516 0,2.41583c0,1.07333 0,1.98401 0,2.884c0,0.90451 0,1.76666 0,2.60001c0,0.97849 0,1.79868 0,2.63599c0,1.01669 0,1.71133 0,2.71735c0,0.93201 0,1.84668 0,2.74667c0,0.89999 0,1.69998 0,2.60001c0,0.89999 0,1.79999 0,2.69998c0,0.89999 0,1.79868 0,2.65268c0,0.94733 0.09561,1.74133 0.5,2.44733c0.45447,0.79343 0.5,1.70001 0.5,2.60001l0,0.89999l0.22134,0.87866" id="svg_5" stroke-width="2" stroke="#000" fill="none"/>
  <path t="28440,28527,28535,28543,28543,28543,28552,28552,28559,28559,28567,28567,28575,28575,28575,28583,28583,28591,28591,28591,28599,28599,28607,28607,28607,28615,28615,28623,28623,28631,28631,28631,28639,28647,28655,28655,28663,28663,28663,28671,28671,28671,28680,28687,28687,28696,28696,28703,28703,28703,28713,28713,28720,28720,28728,28728,28736,28744,28744,28752,28759,28760,28775,28775,28775,28784,28784,28800,28800,28807,28808,28815,28816,28823,28823,28831,28832,28840,28847,28848,28863,28864,28872,28879,28880,28888,28896,28896,28904,28913,28919,28927,28927,28936,28944,28952,28959,28967,28968,28975,28983,28999,29015,29023,29023,29031,29047,29063,29079,29111,29151" d="m370.51135,291.09091c0,1.79999 0,2.672 0,3.54285c0,0.71848 0,1.50897 0,2.77182c0,0.66449 0,1.68533 0,2.47467c0,1.04401 0,1.87201 0,2.75351c0,0.71848 0,1.50897 0,2.77316c0,0.68399 0,1.85065 0,2.63214c0,0.79053 0,1.71851 0,2.55185c0,1.04285 0,1.76132 0,2.55182c0,1.02652 0,1.90652 0,2.927c0,0.68253 0,1.78918 0,2.52118c0,0.73199 0,1.828 0,2.70132c0,0.96533 0,1.81952 0,2.79868c0,0.81067 0,1.45715 0,2.68268c0,0.79648 0,1.54797 0,2.50748c0,0.9765 0,1.80984 0,2.78867c0,0.68253 0,1.7905 0,2.54202c0,0.79648 -0.00009,1.79382 0,2.66849c0.00009,1.0105 -0.13885,1.83569 0.22134,2.78915c0.24939,0.66013 0.76065,1.43167 0.77866,2.34283c0.01685,0.85318 0,1.79333 0,2.77902c0,0.71399 0,1.66898 0,2.4205c0,0.79648 0,2.013 0,2.76031c0,1.05219 0,1.73969 0,2.69751c0,0.90533 0,1.85733 0,2.62265c0,0.99869 0,1.79868 0,2.79733c0,0.76535 0,1.716 0,2.70151c0,0.78519 0,1.72516 0,2.41583c0,0.98401 0,1.96802 0,2.65866c0,1.06818 0,1.92551 0,2.71069c0,0.92932 0,1.94531 0,2.76132c0,0.83734 0,1.70065 0,2.71735c0,0.93597 0,1.836 0,2.73599c0,0.89999 0.05621,1.60056 0.5,2.39999c0.44189,0.79605 0.5,1.66934 0.5,2.52084c0,0.95764 0,1.77783 0,2.67917c0,0.89999 0,1.86398 0,2.73599l0,0.86398l0,0.89868" id="svg_6" stroke-width="2" stroke="#000" fill="none"/>
  <path t="31023,31111,31111,31120,31135,31135,31143,31144,31151,31151,31160,31167,31177,31177,31177,31183,31191,31191,31200,31207,31207,31215,31231,31231,31231,31239,31239,31247,31248,31255,31255,31255,31263,31271,31271,31279,31279,31279,31287,31287,31287,31295,31303,31303,31311,31311,31319,31327,31335,31335,31343,31351,31359,31360,31367,31383,31392,31392,31399,31407,31415,31431,31431,31439,31447,31455,31463,31487,31487,31495,31495,31511,31511,31519,31519,31535,31543,31543,31551,31575,31575,31583,31593,31607,31615,31615,31623,31631,31648,31655,31671,31687,31703,31703,31719,31743,31751,31767,31767,31791,31807,31839,31863,31879,31895,31911,31951,31983,32007,32031,32055" d="m353.51135,292.09091c-1,1 -0.99817,1.79999 -1,2.63599c-0.00226,1.02118 0.00287,1.78415 -0.284,2.76401c-0.17917,0.61203 -0.60098,1.59308 -0.67999,2.37866c-0.10535,1.04733 -0.03601,1.90402 -0.03601,2.76401c0,0.70801 0,1.68933 0,2.64301c0,1.01566 0,1.69968 0,2.63965c0,1.00803 0,1.87018 0,2.73868c0,0.936 0,1.72266 0,2.43518c0,1.1955 0,1.96881 0,2.77014c0,1.01602 0,2.06403 0,2.76901c0,0.79999 0,1.83633 0,2.78333c0,0.72 0,1.845 0,2.63101c0,0.82199 0,1.88068 0,2.58566c0,0.79999 -0.01431,1.83646 0.00018,2.78299c0.01041,0.67892 0.28531,1.62274 0.64716,2.37418c0.41956,0.87125 0.35266,1.71518 0.35266,2.62582c0,0.85333 0,1.79333 0,2.77869c0,0.89999 0,1.69998 0,2.60001c0,0.82083 0,1.784 0,2.64731c0,0.89551 0,1.85269 0,2.75269c0,0.89999 0,1.69998 0,2.60001c0,0.89999 0,1.79999 0,2.68933c0,0.944 0,1.6315 0,2.58932c0,0.90533 0,1.85733 0,2.62265c0,0.99417 0,1.74152 0,2.77335c0,0.9465 0,1.76401 0,2.67349c0,0.95184 0,1.75183 0,2.65186c0,0.89999 0,1.71066 0,2.62131c0,0.85333 0,1.79333 0,2.77869c0,0.89999 0,1.73334 0,2.60449c0,0.81635 0,1.77951 0,2.64282c0,0.89551 0,1.85269 0,2.75269c0,0.89999 0,1.69998 0,2.60001c0,0.86398 0,1.73599 0,2.69998c0,0.89999 -0.18051,1.90067 0.28403,2.51599c0.51578,0.6832 0.71597,1.384 0.71597,2.28403l0,0.89981l0,0.90018" id="svg_7" stroke-width="2" stroke="#000" fill="none"/>
  <path t="32920,32966,32975,32975,32983,32991,32991,32999,32999,33008,33008,33015,33015,33015,33024,33024,33031,33031,33031,33039,33039,33039,33047,33047,33055,33055,33055,33063,33063,33071,33071,33071,33071,33079,33080,33087,33087,33087,33095,33095,33095,33103,33103,33111,33111,33111,33119,33119,33127,33127,33135,33135,33143,33143,33151,33151,33151,33159,33159,33159,33167,33175,33175,33183,33183,33191,33191,33199,33199,33208,33208,33215,33224,33225,33231,33240,33240,33247,33255,33263,33264,33279,33279,33287,33303,33311,33312,33319,33327,33343,33343,33351,33359,33375,33375,33399,33424,33456,33472,33496,33496,33528" d="m357.51135,296.09091c0,1.75717 0,2.65268 0,3.51599c0,0.85867 0,1.80551 0,2.69467c0,0.98917 0,1.76849 0,2.76816c0,0.68253 0,1.7905 0,2.54202c0,0.79648 0,1.79382 0,2.66849c0,1.01083 0,1.83151 0,2.496c0,0.99866 0,1.81467 0,2.63068c0,1 0,1.90933 0,2.85065c0,0.78149 0,1.57202 0,2.69086c0,0.82916 0,1.90665 0,2.50497c0,0.9975 0,1.67084 0,2.86816c0,0.7485 0,1.936 0,2.72202c0,0.82199 0,1.88068 0,2.59018c0,0.85266 0,1.85715 0,2.65717c0,1.00015 0,1.82083 0,2.48532c0,0.99734 0,1.79382 0,2.98132c0,0.8125 0,1.65485 0,2.54401c0,0.98935 0,1.78934 0,2.78934c0,0.81067 0,1.45715 0,2.68268c0,0.79648 -0.00009,1.54797 0,2.50299c0.00009,0.91449 0.07611,1.70303 0.42535,2.65033c0.28317,0.76813 0.54202,1.76276 0.57016,2.564c0.03506,0.99805 0.00449,1.76401 0.00449,2.716c0,0.76801 0,1.70932 0,2.71735c0,0.75598 0,1.6875 0,2.65067c0,0.69064 0,1.75882 0,2.616c0,0.89999 0,1.65717 0,2.55267c0,0.86331 -0.00009,1.82648 0,2.758c0.00009,0.91049 -0.0755,1.79263 0.42535,2.52798c0.46091,0.6767 0.57465,1.54535 0.57465,2.23599c0,1.06818 0,1.92535 0,2.82535c0,0.79999 0.03925,1.80646 0.5,2.52084c0.48575,0.75314 0.5,1.67917 0.50018,2.57916l0.08517,0.69998l0.48932,0.80002" id="svg_8" stroke-width="2" stroke="#000" fill="none"/>
  <path t="34584,34640,34649,34657,34665,34665,34673,34680,34680,34680,34688,34688,34688,34696,34696,34704,34704,34712,34712,34712,34720,34720,34720,34728,34728,34728,34736,34736,34744,34744,34744,34752,34752,34752,34760,34760,34768,34768,34776,34776,34784,34784,34792,34792,34800,34800,34800,34808,34808,34816,34824,34824,34832,34832,34832,34840,34840,34848,34857,34857,34864,34864,34873,34880,34880,34890,34896,34904,34904,34912,34920,34928,34936,34944,34944,34952,34960,34960,34976,34984,34984,34992,35008,35024,35040,35048,35048,35064,35088,35088,35104,35128,35136,35160,35192,35208,35248,35472,35472,35512" d="m364.51135,297.09091c0,1.79999 0,2.70001 0,3.52084c0,0.96317 0,1.65381 0,2.7265c0,0.91931 0,1.79431 0,2.43933c0,0.99731 0,1.81332 0,2.62933c0,1.22684 0,1.87332 0,2.88416c0,0.82068 0,1.96649 0,2.7525c0,0.82199 0,1.88068 0,2.59467c0,0.67801 0,1.87384 0,2.66733c0,0.77551 0,1.81735 0,2.59067c0,0.96533 0,1.73633 0,2.59735c0,0.89716 0,1.78665 0,2.64017c0,1.03549 0,1.9155 0,2.93582c0,0.77399 0,1.6785 0,2.42584c0,0.99548 0,1.7955 0,2.79565c0,0.82068 0,1.96649 0,2.74799c0,0.79053 0,1.71851 0,2.63052c0,0.832 0,1.74298 0,2.46298c0,1.125 0,1.90649 0,2.69702c0,1.11832 0,1.95233 0,2.78217c0,0.96448 0,1.68982 0,2.67899c0,0.77933 0,1.77866 0,2.80017c0,0.79999 0,1.70001 0,2.52084c0,0.96317 0,1.65381 0,2.72198c0,0.95584 0,1.77802 0,2.6185c0,0.97202 -0.09927,1.84268 0.02084,2.65952c0.14526,0.98785 0.67416,1.61865 0.89383,2.59381c0.19547,0.86771 0.08533,1.68533 0.08533,2.58536c0,0.89999 0,1.79999 0,2.71066c0,0.91064 0,1.76398 0,2.70398c0,0.88535 0,1.68533 0,2.58536c0,0.89999 0,1.79999 0,2.68933c0,0.896 0,1.81067 0,2.71066l0,0.89999l0,0.79999l0,0.90002" id="svg_9" stroke-width="2" stroke="#000" fill="none"/>
  <path t="38102,38159,38159,38175,38184,38191,38207,38223,38231,38247,38271,38271,38287,38311,38317,38343,38367,38391,38399,38415,38415,38431,38455,38479,38495,38511,38511,38527,38535,38535,38543,38559,38568,38584,38599,38614,38631,38639,38639,38655,38679,38695,38695,38710,38734,38758,38758,38775,38791,38791,38807,38814,38838,38855,38871,38871,38887,38887,38895,38910,38919,38927,38943,38951,38959,38959,38967,38967,38984,38999,39007,39015,39023,39031,39031,39039,39046,39055,39063,39079,39103,39111,39119,39119,39127,39135,39143,39159,39175,39184,39201,39215,39223,39239,39255,39263,39279,39287,39303,39311,39334,39335,39351,39366,39382,39382,39398,39406,39423,39439,39439,39446,39462,39495,39495,39503,39510,39519,39535,39535,39543,39543,39551,39559,39567,39583,39600,39600,39617,39617,39617,39631,39647,39663,39663,39679,39695,39710,39710,39727,39727,39743,39759,39759,39767,39783,39791,39800,39816,39831,39847,39855,39871,39895,39911,39911,39926,39943,39951,39983,39999,40007,40023,40030,40030,40039,40054,40071,40087,40094,40111,40119,40135,40135,40142,40158,40166,40183,40183,40191,40207,40223,40232,40247,40271,40287,40295,40311,40327,40343,40353,40354,40370,40391,40415,40431,40447,40455,40471,40487,40487,40504,40520,40543,40566,40583,40599,40607,40631,40631,40655,40671,40671,40687,40695,40719,40735,40751,40751,40775,40808,40816,40839,40856,40863,40910,40934,40958,40990,41014,41046,41070,41086,41110,41150,41182" d="m351.51135,80.09091c0,1 0,1.8 0,2.7c0,0.9 0,1.8 0,2.7c0,0.89999 0,1.8 0,2.7c0,0.9 0,1.7 0,2.6c0,0.9 0,1.864 0,2.736c0,0.864 0,1.764 0,2.664c0,0.9 0,1.7 0,2.6c0,0.9 0,1.8 0,2.71067c0,0.91067 0,1.764 0,2.70399c0,0.88534 0,1.68533 0,2.58533c0,0.9 0,1.8 0,2.7c0,0.8955 0,1.8215 0,2.7c0,0.9 0,1.7 0,2.6c0,0.936 0,1.784 0,2.64734c0,1.01666 0,1.85266 0,2.75283c0,0.78516 0,1.72517 0,2.73317c0,0.756 0,1.66666 0,2.56667c0,0.89999 0,1.80133 0,2.76667c0,0.83333 0,1.66666 0,2.52882c0,0.90451 0,1.8045 0,2.7045c0,0.90001 0,1.8 0,2.70001c0,0.89999 0,1.65717 0,2.55266c0,0.86334 0,1.90067 0,2.78334c0,0.864 0,1.76399 0,2.664c0,0.89999 0,1.7 0,2.59999c0,0.90001 0,1.8 0,2.7c0,0.89551 0,1.8215 0,2.70001c0,0.89999 0,1.7 0,2.59999c0,0.90001 0,1.8 0,2.7c0,0.90001 0,1.8 0,2.69984c0,0.90016 0,1.70149 0,2.60016c0,0.90001 0,1.8 0,2.7c0,0.90001 0,1.8 0,2.70001c0,0.89999 0,1.7 0,2.59999c0,0.936 0,1.784 0,2.64734c0,1.01666 0,1.85266 0,2.75267c0,0.89999 0,1.7 0,2.59999c0,0.94284 0,1.86934 0,2.65184c0,1.01216 0,1.84816 0,2.74817c0,0.89999 0,1.65717 0,2.55266c0,0.86334 0,1.82651 0,2.74733c0,0.90001 0,1.80135 0,2.76668c0,0.66933 0,1.83333 0,2.62267c0,0.72533 0,1.68983 0,2.62132c0,0.91051 0,1.72801 0,2.69467c0,0.756 0,1.728 0,2.64734c0,0.89999 0,1.59467 0,2.62199c0,0.94667 0,1.8 0,2.74001c0,0.88533 0,1.80133 0,2.58983c0,0.89551 0,1.7955 0,2.6955c0,0.90001 0,1.8 0,2.70001c0,0.89999 0,1.7 0,2.59999c0,0.90001 0,1.864 0,2.73601c0,0.864 0,1.76399 0,2.664c0,0.89999 0,1.7 0,2.59999c0,0.90001 0,1.8 0,2.7c0,0.89551 0,1.8215 0,2.70001c0,0.89999 0,1.7 0,2.59999c0,0.90001 0,1.82083 0,2.784c0,0.69067 0,1.75883 0,2.61584c0,0.90016 0,1.70149 0,2.60016c0,0.90001 0,1.8 0,2.7c0,0.90001 0,1.8 0,2.70001c0,0.89999 0,1.7 0,2.61465c0,0.89601 0,1.78534 0,2.68533c0,0.90001 0,1.8 0,2.70001c0,0.89999 0,1.69998 0,2.60001c0,0.89999 0,1.86398 0,2.73599c0,0.86398 0,1.76401 0,2.664c0,0.89999 0,1.69998 0,2.65717c0,0.89551 0,1.59015 0,2.60684c0,0.93149 0,1.85748 0,2.73599c0,0.89999 0,1.69998 0,2.60001c0,0.89999 0,1.79999 0,2.69998c0,0.89999 0,1.80002 0,2.69983c0,0.90018 0,1.70151 0,2.60019c0,0.89999 -0.00226,1.79999 0,2.69998c0.00226,0.89551 0.42535,1.57468 0.98935,2.21066l0.01065,0.88934" id="svg_10" stroke-width="2" stroke="#000" fill="none"/>
  <path t="42487,42558,42567,42574,42590,42606,42606,42614,42614,42622,42630,42647,42647,42663,42663,42670,42680,42680,42686,42696,42710,42719,42726,42742,42751,42767,42767,42774,42774,42783,42790,42798,42798,42806,42814,42822,42830,42838,42846,42846,42854,42863,42871,42871,42879,42880,42887,42896,42902,42910,42918,42926,42926,42934,42934,42942,42958,42958,42967,42974,42974,42974,42982,42982,42982,42990,42999,43006,43006,43014,43022,43022,43030,43030,43038,43039,43054,43054,43062,43063,43070,43070,43079,43086,43086,43096,43096,43102,43112,43112,43118,43118,43126,43134,43142,43151,43151,43158,43158,43167,43182,43183,43198,43206,43222,43222,43231,43231,43238,43238,43246,43254,43262,43270,43279,43279,43286,43295,43302,43312,43318,43319,43326,43334,43342,43358,43367,43374,43374,43390,43398,43399,43406,43415,43422,43422,43438,43446,43446,43462,43462,43479,43479,43486,43495,43502,43512,43518,43534,43542,43550,43567,43574,43574,43582,43598,43614,43614,43630,43638,43670,43670,43678,43686,43702,43718,43718,43734,43734,43751,43758,43774,43782,43790,43798,43799,43806,43814,43814,43822,43832,43838,43849,43878,43878,43887,43903,43919,43919,43929,43943,43951,43959,43967,43975,43983,43990,43999,44007,44016,44016,44033,44033,44049,44049,44066,44066,44071,44083,44087,44095,44095,44103,44111,44119,44135,44166,44175,44182,44190,44190,44207,44230,44230,44247,44255,44279,44294,44318,44318,44335,44344,44359" d="m355.51135,79.09091c0,1.61066 0,2.5 0,3.4c0,0.9045 0,1.92133 0,2.6c0,0.9785 0,1.79867 0,2.7c0,0.936 0,1.78267 0,2.59017c0,1.04317 0,1.89516 0,2.82449c0,0.88534 0,1.68533 0,2.58533c0,0.9 0,1.8 0,2.7c0,0.89999 0,1.8 0,2.7c0,0.9 0,1.65717 0,2.55267c0,0.86333 0,1.8265 0,2.758c0,0.91067 0,1.764 0,2.70399c0,0.88534 0,1.80134 0,2.58984c0,0.9315 0,1.7795 0,2.64284c0,1.01666 0,1.854 0,2.81933c0,0.83334 0,1.66667 0,2.52883c0,0.9045 0,1.8045 0,2.70451c0,0.89999 0,1.80133 0,2.76666c0,0.83334 0,1.66667 0,2.52883c0,0.94051 0,1.7885 0,2.65184c0,0.9045 0,1.98599 0,2.66249c0,0.77551 0,1.8235 0,2.7435c0,0.76001 0,1.72585 0,2.65733c0,0.91068 0,1.76401 0,2.70401c0,0.88533 0,1.6425 0,2.5425c0,0.94417 0,1.94284 0,2.74283c0,1 0,1.8 0,2.79984c0,0.77934 0,1.6335 0,2.49567c0,0.94051 0,1.78984 0,2.709c0,0.99417 0,1.75951 0,2.71017c0,0.88533 0,1.6425 0,2.53799c0,0.86334 0,1.82651 0,2.74733c0,0.90451 0,1.92134 0,2.60001c0,0.9785 0,1.79866 0,2.75717c0,0.89549 0,1.75883 0,2.60683c0,0.94051 0,1.9575 0,2.65683c0,0.97917 0,1.76851 0,2.8125c0,0.756 0.15787,1.68253 -0.01065,2.56667c-0.17947,0.94165 -0.9599,1.53987 -1.34201,2.30984c-0.31403,0.63275 -0.62933,1.65364 -0.64734,2.59016c-0.0173,0.89983 0,1.8 0,2.7c0,0.8 0,1.7 0,2.60001c0,0.87917 0,1.75716 0,2.7c0,0.90134 0,1.58533 0,2.52533c0,1.008 0,1.87016 0,2.77467c0,0.81065 0,1.72116 0,2.53867c0,1.028 0,1.96149 0,2.74666c0,0.95067 0,1.716 0,2.71017c0,0.74733 0,1.76849 0,2.7045c0,0.89999 0,1.79984 0,2.64732c0,0.854 0,1.75267 0,2.65268c0,0.81065 0,1.72133 0,2.57466c0,0.94 0,1.92534 0,2.82533c0,0.8 0,1.7 0,2.564c0,0.87883 0,1.62134 0,2.67883c0,0.95717 0,1.85718 0,2.75717c0,0.75717 0,1.65266 0,2.51601c0,0.96317 0,1.87332 0,2.76933c0,0.91466 0,1.81467 0,2.71466c0,0.8 0,1.636 0,2.48399c0,0.86334 0,1.88 0,2.81601c0,0.89867 0,1.75267 0,2.7c0,0.8 0,1.7 0,2.52083c0,0.96317 0,1.65384 0,2.722c0,0.95717 0,1.85718 0,2.75717c0,0.83333 0,1.61067 0,2.60001c0,0.89999 0,1.79999 0,2.60133c0,0.96532 0,1.79866 0,2.77733c0,0.77399 0,1.66949 0,2.452c0,1.01218 0,1.75467 0,2.81216c0,0.95718 0,1.85718 0,2.75717c0,0.79999 0,1.70001 0,2.60001c0,0.89999 0,1.78934 0,2.68533c0,0.91467 0,1.81467 0,2.71466c0,0.79999 0,1.63599 0,2.48401c0,0.86331 0,1.88 0,2.81598c0,0.89868 0,1.75269 0,2.70001c0,0.79999 0,1.70001 0,2.60001l0,0.89999" id="svg_11" stroke-width="2" stroke="#000" fill="none"/>
  <path t="45975,46126,46134,46143,46150,46150,46159,46166,46166,46175,46175,46182,46182,46182,46198,46206,46206,46214,46214,46214,46222,46222,46222,46230,46238,46238,46246,46246,46246,46254,46254,46262,46263,46270,46270,46278,46278,46286,46286,46286,46294,46294,46302,46302,46310,46310,46310,46318,46318,46326,46326,46334,46334,46342,46342,46350,46350,46358,46358,46366,46375,46382,46382,46392,46392,46392,46398,46398,46406,46414,46422,46422,46430,46431,46431,46438,46446,46454,46454,46462,46463,46470,46478,46478,46486,46494,46502,46502,46510,46510,46518,46518,46526,46534,46534,46542,46550,46550,46558,46558,46566,46566,46575,46582,46592,46592,46598,46598,46608,46608,46614,46614,46622,46622,46630,46630,46638,46638,46646,46646,46654,46654,46662,46662,46670,46670,46678,46686,46694,46694,46702,46702,46710,46710,46718,46718,46726,46734,46734,46742,46742,46750,46750,46758,46758,46766,46775,46791,46798,46798,46808,46808,46814,46822,46838,46838,46854,46854,46862,46862,46870,46878,46879,46886,46894,46902,46902,46910,46918,46918,46926,46934,46958,46958,46966,46966,46974,46974,46982,46982,46991,46999,47008,47031,47032,47038,47039,47039,47046,47047,47054,47063,47071,47071,47082,47087,47096,47096,47102,47113,47118,47118,47129,47134,47135,47142,47162,47175,47175,47191,47191,47199,47199,47208,47224,47231,47238,47262,47270,47271,47278,47286,47302,47312,47318,47342,47358,47367,47379,47391,47408,47408,47425,47439,47439,47455,47463,47463,47479,47502,47558,47582,47622" d="m358.51135,78.09091c0,1.83334 0,2.61066 0,3.52084c0,0.96317 0,1.65383 0,2.722c0,0.8575 0,1.72783 0,2.5265c0,1.016 0,2.064 0,2.7645c0,0.89417 0,1.82784 0,2.78767c0,0.69933 0,1.6785 0,2.48917c0,0.87466 0,1.87199 0,2.6685c0,0.7515 0,1.8595 0,2.84234c0,0.69933 0,1.6785 0,2.47849c0,0.8 0,1.8 0,2.60001c0,1 0,1.8 0,2.79983c0,0.77934 0,1.77901 0,2.61c0,0.9595 0,1.71101 0,2.5075c0,1.2255 0,1.872 0,2.88267c0,0.8 0,1.8 0,2.6c0,0.8 0,1.8 0,2.60001c0,1 0,1.8 0,2.8c0,0.8 0,1.8 0,2.58933c0,1.04401 0,1.83601 0,2.69466c0,0.86334 0,1.88 0,2.71735c0,0.96533 0,1.81949 0,2.79866c0,0.8 0,1.60001 0,2.5955c0,0.74733 0,1.76849 0,2.60583c0,0.96533 0,1.81949 0,2.79866c0,0.78934 0,1.51466 0,2.58932c0,0.82133 0,1.73218 0,2.62134c0,0.989 0,1.74767 0,2.73866c0,0.76051 -0.00696,1.56802 0,2.64c0.00534,0.82138 0.23929,1.7253 0.5,2.4315c0.35822,0.97034 0.48199,1.76805 0.5,2.8125c0.01303,0.75589 0,1.6875 0,2.65067c0,0.69067 0,1.76334 0,2.68268c0,0.83333 0,1.66666 0,2.586c0,0.89999 0,1.59467 0,2.61133c0,0.94051 0,1.80267 0,2.65683c0,0.97917 0,1.76851 0,2.8125c0,0.79201 0,1.65201 0,2.57117c0,0.99417 0,1.75951 0,2.7115c0,0.76801 0,1.72 0,2.48534c0,0.99867 0,1.79866 0,2.79866c0,0.8 0,1.79984 0,2.57918c0,0.99933 0,1.81949 0,2.72083c0,0.936 0,1.78534 0,2.7045c0,0.99417 0.05118,1.76096 -0.00131,2.7115c-0.0426,0.77141 -0.47195,1.69107 -0.71466,2.40001c-0.3299,0.96367 -0.28403,1.80533 -0.28403,2.65866c0,0.94133 0,1.70934 0,2.66133c0,0.76534 0,1.75951 0,2.67867c0,0.96451 0,1.88533 0,2.78984c0,0.86217 0,1.6955 0,2.674c0,0.82016 0,1.7215 0,2.54233c0,0.96451 0,1.68983 0,2.67917c0,0.8 0,1.8 0,2.75833c0,0.87367 0,1.75151 0,2.55901c0,0.96184 0,1.89333 0,2.804c0,0.67867 0,1.79333 0,2.67867c0,0.8 0,1.7 0,2.564c0,0.879 0,1.65733 0,2.63583c0,0.77934 0,1.91617 0,2.68417c0,0.94133 0,1.632 0,2.70532c0,0.91068 0,1.8 0,2.744c0,0.70834 0,1.66667 0,2.46667c0,0.8 0,1.7955 0,2.71466c0,0.96451 0,1.896 0,2.8065c0,0.8175 -0.00055,1.72701 0,2.49767c0.00067,0.94783 -0.35565,1.79469 0.22134,2.81683c0.39832,0.7056 0.77866,1.36433 0.77866,2.16432c0,0.95718 0,1.85269 0,2.716c0,0.94235 0,1.84567 0,2.80551c0,0.69934 0,1.6785 0,2.46783c0,1.04401 0,1.79999 0,2.71066c0,0.89999 0,1.79999 0,2.69867c0,0.96799 0,1.80133 0,2.60132c0,0.90002 0,1.80002 0,2.70001c0,0.89999 0,1.79999 0,2.70001c0,0.89999 0,1.79999 0,2.74731c0,0.81433 0,1.70535 0,2.56866c0,0.85867 0,1.80533 0,2.65866c0,0.94 0,1.82535 0,2.62534c0,0.90002 0,1.84283 0,2.72086l0,0.87915l0,0.89999" id="svg_12" stroke-width="2" stroke="#000" fill="none"/>
  <path t="48958,49062,49062,49071,49071,49078,49078,49086,49095,49111,49111,49118,49119,49127,49127,49134,49148,49148,49160,49166,49166,49175,49182,49198,49206,49214,49214,49222,49222,49230,49239,49246,49255,49262,49272,49294,49296,49311,49311,49318,49318,49327,49334,49342,49350,49360,49366,49377,49382,49390,49398,49410,49414,49414,49424,49424,49430,49438,49446,49455,49455,49455,49472,49472,49478,49478,49486,49495,49510,49518,49527,49527,49534,49542,49542,49550,49558,49574,49574,49582,49582,49590,49598,49606,49614,49622,49630,49630,49638,49638,49646,49655,49671,49678,49678,49687,49694,49694,49710,49710,49718,49726,49726,49742,49758,49758,49774,49774,49774,49790,49806,49806,49814,49830,49838,49838,49846,49854,49862,49862,49871,49878,49894,49894,49902,49911,49918,49926,49926,49934,49942,49950,49950,49958,49966,49974,49982,49990,49998,49998,50006,50006,50014,50014,50022,50038,50038,50054,50062,50071,50071,50078,50087,50094,50110,50110,50118,50126,50126,50134,50142,50150,50150,50158,50166,50174,50174,50182,50190,50198,50206,50222,50230,50230,50238,50246,50254,50254,50262,50270,50287,50295,50304,50318,50334,50335,50343,50350,50358,50382,50392,50392,50398,50430,50438,50446,50457,50463,50471,50488,50504,50510,50518,50526,50526,50543,50559,50575,50592,50593,50598,50609,50623,50623,50630,50646,50663,50686,50718,50734,50758,50758,50774,50798,50798,50807,50814,50830,50846,50859,50870,50879,50903,50943,50952,50967,51015,51039,51039,51048,51103" d="m363.51135,80.09091c0,1 0,1.75716 0,2.65717c0,0.94417 0,1.93833 0,2.68567c0,1.02116 -0.09637,1.88042 0.16669,2.82383c0.19006,0.68164 0.73199,1.65567 0.8125,2.33334c0.11612,0.97735 0.02081,1.84734 0.02081,2.74284c0,0.9585 0,1.64249 0,2.5825c0,1.008 0,1.87016 0,2.77467c0,0.9 0,1.8 0,2.7045c0,0.86217 0,1.6955 0,2.674c0,0.82017 0,1.7215 0,2.6215c0,0.9 0,1.8 0,2.7c0,0.89867 0,1.76134 0,2.56134c0,0.972 0,1.764 0,2.79133c0,0.69467 0,1.71133 0,2.64733c0,0.9 0,1.8 0,2.7c0,0.83334 0,1.7045 0,2.6c0,0.9 0,1.8 0,2.7c0,0.90134 0,1.58533 0,2.536c0,0.76534 0,1.755 0,2.83067c0,0.79066 0,1.66666 0,2.584c0,0.74399 0,1.78 0,2.63199c0,0.94267 0,1.63335 0,2.70667c0,0.91068 0,1.81067 0,2.71068c0,0.90134 0,1.58533 0,2.52533c0,1.008 -0.04483,1.87706 -0.5,2.67467c-0.40381,0.70763 -0.5,1.66667 -0.5,2.5c0,0.9785 0,1.6955 0,2.60001c0,0.89999 0,1.79999 0,2.7c0,0.90134 0,1.86667 0,2.7c0,0.9785 0,1.6955 0,2.60001c0,0.96399 0,1.84666 0,2.72133c0,0.85333 0,1.79333 0,2.67867c0,0.88533 0,1.82533 0,2.51601c0,0.98399 0,1.96666 0,2.77415c0,0.99651 0,1.87651 0,2.73067c0,0.97917 0,1.76851 0,2.49384c0,0.98534 0,1.96933 0,2.66c0,1.06366 0,1.992 0,2.82533c0,0.8 0,1.7 0,2.636c0,0.84799 0,1.71133 0,2.728c0,0.83734 0,1.80267 0,2.61517c0,0.95949 -0.11395,1.73677 0.03601,2.65683c0.14215,0.87201 0.6832,1.49936 0.90683,2.60683c0.17004,0.84209 0.05716,1.75717 0.05716,2.55717c0,0.89999 0,1.8 0,2.7c0,0.89999 0,1.8045 0,2.66667c0,0.83333 0,1.812 0,2.586c0,0.89999 0,1.76334 0,2.74733c0,0.98267 0,1.63867 0,2.7215c0,0.87851 0,1.7785 0,2.57851c0,0.89999 0,1.8 0,2.72083c0,0.96317 -0.07272,1.65675 0.00134,2.59517c0.08368,1.0603 0.53717,1.65321 0.832,2.55067c0.27798,0.84624 0.16666,1.81732 0.16666,2.508c0,1.06816 -0.18326,1.9796 0.16669,2.82533c0.32465,0.78462 0.82291,1.49982 0.83331,2.39999c0.01041,0.89995 0,1.8 0,2.70001c0,0.89999 0,1.7 0,2.59999c0,0.936 0,1.784 0,2.64734c0,0.89549 0,1.85266 0,2.75267c0,0.89999 0,1.77866 0,2.54666c0,1.006 0,1.70067 0,2.71733c0,0.936 0,1.836 0,2.73601c0,0.89999 -0.40271,1.83641 0.08536,2.61465c0.46432,0.7404 0.91464,1.31067 0.91464,2.08667c0,0.89867 0,1.79868 0,2.69867c0,0.89999 0,1.79999 0,2.70001c0,0.89999 0,1.79999 0,2.59998c0,1.03336 0,1.81067 0,2.72086c0,0.96317 0,1.65381 0,2.72198c0,0.85718 0.02536,1.75757 0,2.55716c-0.02859,0.9014 -0.45752,1.72543 -0.94733,2.49551c-0.44104,0.69342 -1.05267,1.06168 -1.05267,2.00449c0,0.90134 0,1.58536 0,2.52533c0,1.00803 0.18478,1.89679 -0.03598,2.77469c-0.21698,0.86285 -0.90314,1.49387 -0.96402,2.39999c-0.06143,0.91391 0,1.7045 0,2.60001c0,0.89999 0,1.79999 0,2.69998c0,0.90002 0,1.80002 0,2.70001l0,0.79999l0,0.90002l0,0.94281" id="svg_13" stroke-width="2" stroke="#000" fill="none"/>
  <path t="53904,53998,53998,54015,54023,54023,54039,54047,54055,54055,54063,54063,54078,54102,54126,54334" d="m363.51135,286.09091c0,1 0,1.79999 0,2.75717c0,0.89099 0,1.67349 0,2.67883c0,0.8685 0,1.73065 0,2.564c0,0.97849 0,1.79868 0,2.70001l0,0.89999l0,0.89999l0,0.88934" id="svg_14" stroke-width="2" stroke="#000" fill="none"/>
  <path t="54943,54991,54999,55008,55016,55024,55024,55039,55039,55055,55063" d="m359.51135,291.09091c0,1.79999 0,2.70001 0,3.60001c0,0.81067 0,1.7215 0,2.61066c0,0.98917 0,1.76849 -0.00015,2.76767l-0.1665,0.85501" id="svg_15" stroke-width="2" stroke="#000" fill="none"/>
  <path t="57583,57790,57806,57817,57834,57851,57855,57886,57902,57902,57918,57934,57974,57990,58006,58006,58030,58038,58050,58050,58063,58079,58096,58112,58126,58134,58150,58150,58158,58167,58184,58184,58206,58206,58222,58233,58250,58267,58294,58350,58374,58382,58399,58417,58438,58694,58718,58742,58758,58774,58798,58806,58806,58822,58830,58838,58870,58886,58902,58918,58934,58934,58944,58958,58974,58990,58998,59022,59030,59046,59046,59070,59086,59118,59134,59158,59174,59198,59222,59230,59246,59286,59318,59350,59382,59406,59422,59454,59486,59558,59567,59590,59606,59614,59638,59654,59686,59686,59695,60014,60022,60046,60054,60055,60062,60078,60078,60086,60102,60118,60118,60126,60126,60134,60143,60160,60160,60166,60166,60176,60182,60182,60190,60206,60214,60230,60246,60247,60262,60262,60270,60294,60318,60327,60334,60350,60375,60391,60407,60415,60534,60622,60622,60646,60726,60751,60774" d="m349.51135,80.09091c0,-1.7 0.00955,-2.60005 0,-3.5c-0.01041,-0.97933 -0.44934,-1.63836 -1.08398,-2.216c-0.64667,-0.58858 -0.91602,-1.284 -0.91602,-2.084c0,-0.9 0.03085,-1.86018 -0.42532,-2.636c-0.46024,-0.78271 -0.81677,-1.51778 -1.22198,-2.264c-0.4133,-0.76112 -0.21735,-1.76617 -0.638,-2.5c-0.39355,-0.68658 -1.38919,-1.21513 -1.6575,-2.09999c-0.26129,-0.86174 -0.48709,-1.34822 -0.97183,-1.98534c-0.55634,-0.73118 -0.27747,-1.83957 -0.78986,-2.41467c-0.56024,-0.6288 -1.20053,-1.39682 -1.2955,-2.3c-0.07941,-0.75516 -0.383,-1.64057 -0.64731,-2.34734c-0.37057,-0.99089 -0.81171,-1.69025 -1.34201,-2.22733c-0.47644,-0.48255 -1.32187,-0.8132 -1.84399,-1.592c-0.47324,-0.70588 -0.61273,-1.38097 -1.08133,-2.11867c-0.43912,-0.6913 -0.94955,-1.30366 -1.03867,-2.14c-0.07724,-0.72497 1.35333,-0.57467 2.25333,-0.57467c0.89999,0 1.79999,0 2.69998,0c0.80002,0 1.70001,0 2.60001,0c0.96402,0 1.836,0 2.70001,0c0.89999,0 1.79999,0 2.69998,0c0.80002,0 1.70001,0 2.60001,0c0.89999,0 1.80002,0 2.6955,0c0.92603,0 1.8045,0 2.7045,0c0.80002,0 1.70001,0 2.60001,0c0.89999,0 1.80002,0 2.70001,0c0.89999,0 1.79984,0 2.72534,0c0.776,0 1.67465,0 2.57465,0c0.89999,0 1.80002,0 2.70001,0c0.89999,0 1.79999,0 2.69998,0c0.91602,0 1.70453,0 2.60001,0c0.89999,0 1.80002,0 2.70001,0c0.89999,0 1.79999,0 2.69998,0c0.80002,0 2.37265,-0.91375 2.6572,0.00016c0.22818,0.73288 -1.15768,1.21865 -1.49051,1.99984c-0.32019,0.75154 -0.22668,1.75885 -0.87201,2.3c-0.67587,0.56676 -1.22198,1.31366 -2,1.64734c-0.90622,0.38866 -1.23825,0.81627 -1.30533,1.878c-0.04379,0.69331 -0.48495,1.67272 -1.18933,2.092c-0.77484,0.46121 -1.26529,1.12592 -1.80002,1.916c-0.45074,0.66598 -0.96033,1.47018 -1,2.33333c-0.03732,0.81191 -0.38306,1.57854 -1.22131,1.8335c-0.77014,0.23425 -0.64001,1.35324 -1.00018,2.1c-0.35425,0.73447 -1.02658,1.35986 -1.3425,2.0745c-0.45712,1.0341 -1.04431,1.56419 -1.39999,2.26133c-0.39105,0.76646 -0.76062,1.43184 -1.02533,2.13867c-0.33185,0.88613 -0.01068,1.82533 -0.01068,2.72533c0,0.9 0,1.8 0,2.7c0,0.8 0,1.7 0,2.6l0,0.9l0,0.88934" id="svg_16" stroke-width="2" stroke="#000" fill="none"/>
  <path t="63742,63902,63910,63918,63934,63934,63942,63950,63950,63950,63958,63966,63974,63982,63990,64006,64023,64030,64046,64055,64062,64071,64086,64086,64094,64102,64110,64126,64134,64134,64142,64142,64150,64150,64158,64166,64166,64182,64190,64190,64198,64198,64206,64206,64214,64222,64222,64230,64246,64246,64255,64255,64255,64263,64263,64271,64278,64278,64278,64294,64302,64302,64310,64310,64318,64326,64334,64334,64342,64342,64358,64366,64382,64390,64406,64430,64438,64494,64494,64622,64654,64662,64694,64718,64734,64750,64758,64766,64782,64822,64870,64918,64942,64998,64998,65030,65070,65094,65110,65126,65150,65158,65166,65174,65182,65190,65190,65198,65206,65214,65222,65246,65262,65262,65270,65270,65278,65287,65294,65295,65304,65310,65318,65327,65334,65334,65342,65350,65358,65366,65374,65390,65398,65406,65414,65422,65430,65438,65438,65446,65454,65454,65462,65462,65470,65486,65494,65503,65503,65510,65510,65520,65520,65526,65534,65534,65558,65566,65582,65590,65590,65598,65614,65622,65646,65662,65686,65694,65734,65734,65743,65766,65790,65830,65854,65894,65926,65926,66006,66086,66102,66166,66206,66230,66230,66246,66334" d="m382.51135,301.09091c-0.7045,0.64734 -1.71127,0.61029 -2.47916,1.04166c-0.70908,0.39832 -0.32013,1.50507 -0.5625,2.45834c-0.22522,0.8858 -1.01114,1.46005 -1.39032,2.01599c-0.61844,0.90677 -0.56802,1.784 -0.56802,2.68402c0,0.89981 0,1.82532 0,2.60132c0,0.89868 0,1.79868 0,2.69867c0,0.89999 0,1.79999 0,2.70001c0,0.90015 0,1.68533 0,2.61465c0,1.01599 0,1.79599 0,2.70618c0,0.96448 0,1.68982 0,2.67899c0,0.77933 0,1.77866 0,2.59885c0,0.9585 0,1.84949 0,2.63199c0,1.01599 0,1.89084 0,2.78c0,0.98917 0,1.76849 0,2.76782c0,0.71701 0,1.6575 0,2.50552c0,0.86331 0,1.86932 0,2.84933c0,0.72916 0,1.83331 0,2.61481c0,0.79053 0,1.71851 0,2.63052c0,0.84265 0,1.75467 0,2.66132c0,0.69751 0,1.80002 0,2.63202c0,0.73065 0,1.72348 0,2.64267c0,0.96448 0,1.78983 0,2.80664c0,0.67868 0,1.65717 0,2.47736c0,0.90134 0,1.80133 0,2.70132c0,0.89999 0,1.79999 0,2.70001c0,0.89999 0,1.79999 0,2.59998c0,0.90002 -0.41666,1.91217 0.03601,2.76401c0.38858,0.73123 1.27435,1.05405 2.164,1.35068c0.85748,0.28592 1.65714,0.41687 2.22534,1.06c0.5054,0.57208 1.01065,1.02533 1.87466,1.02533c0.89999,0 1.80127,0.04779 2.69998,0c0.80341,-0.04272 1.66302,-0.46918 2.38934,-0.97467c0.65982,-0.4592 0.70013,-1.44269 1.18533,-2.05066c0.49838,-0.62451 0.41998,-1.57471 0.42532,-2.47467c0.00534,-0.90005 0.45297,-1.60724 0.83334,-2.5c0.32019,-0.75153 0.16666,-1.70001 0.16666,-2.60001c0,-0.89999 0,-1.78934 0,-2.68668c0,-0.87997 0,-1.71332 0,-2.69183c0,-0.82016 0,-1.7215 0,-2.54233c0,-0.96317 0,-1.82648 0,-2.72198c0,-0.95584 0,-1.80984 0,-2.64383c0,-0.93869 0,-1.62933 0,-2.70267c0,-0.91068 0,-1.81067 0,-2.71066c0,-0.90002 0,-1.80002 0,-2.70001c0,-0.83334 0,-1.7045 0,-2.60001c0,-0.81067 0,-1.72131 0,-2.57468c0,-0.93997 0,-1.92548 0,-2.71066c0,-0.94 0,-1.63065 0,-2.668c0,-0.88266 0,-1.84665 0,-2.64932c0,-0.76801 0,-1.80267 0,-2.54666c0,-1.10767 0,-1.94168 0,-2.77151c0,-0.96182 0,-1.76932 0,-2.7645c0,-0.91467 0,-1.81467 0,-2.71466c0,-0.79999 0,-1.70001 0,-2.60001c0,-0.89999 0,-1.79999 0,-2.69998c0,-0.89868 0,-1.75269 0,-2.70001c0,-0.79999 0,-1.70001 0,-2.60001c0,-0.89999 0.00064,-1.79999 0,-2.69998c-0.00067,-0.90002 -0.03073,-1.8443 -0.7045,-2.34283c-0.69427,-0.51373 -1.6955,-0.35718 -2.59549,-0.35718c-0.89999,0 -1.79999,0 -2.70001,0l-0.79999,0l-0.89999,0l-0.94284,0" id="svg_17" stroke-width="2" stroke="#000" fill="none"/>
  <path t="67230,67453,67462,67478,67494,67494,67518,67526,67558,67670,67702,67710,67806,67830,67870" d="m383.51135,314.09091c0.16669,-1.83334 0.93912,-1.78476 1,-0.89999c0.0618,0.89786 0,1.69998 0,2.60001c0,0.89999 0.30478,1.85773 -0.01065,2.68933c-0.27658,0.72916 -1.46851,0.61066 -1.98935,0.17465l0,-0.86398l0,-0.90002" id="svg_18" stroke-width="2" stroke="#000" fill="none"/>
  <path t="68583,68766,68766,68775,68799,68807,68815,68823,68839,68911,68991,68999,69007,69016,69031,69047,69071,69079" d="m382.51135,351.09091c1,-1 1.99265,-1.4826 2.71469,-0.91467c0.69034,0.54297 0.27469,1.61923 0.28531,2.51468c0.01044,0.87933 0.84555,1.38861 0.99869,2.20132c0.15619,0.82877 -0.97903,1.66287 -1.71335,1.11334c-0.6167,-0.46152 -0.28534,-1.61469 -0.28534,-2.51468l0,-0.89999l0,-0.88934" id="svg_19" stroke-width="2" stroke="#000" fill="none"/>
  <path t="75335,75382,75391,75391,75398,75406,75422,75430,75438,75447,75462,75462,75470,75518,75598" d="m366.51135,57.09091c1.82535,0 2.83334,0 3.69553,0c0.90448,0 1.78366,0 2.66165,0c0.94284,0 1.84283,0 2.74283,0c0.89999,0 1.70001,0 2.60001,0l0.89999,0l0.89999,0" id="svg_20" stroke-width="2" stroke="#000" fill="none"/>
  <path t="80638,80814,80822,80830,80840,80857,80862,80894,80910" d="m365.51135,64.09091c1.70001,0 2.70001,0 3.60001,0c0.89999,0 1.80002,0 2.6955,0l0.87119,0l0.93332,0" id="svg_22" stroke-width="2" stroke="#000" fill="none"/>
  <path t="82350,82470,82478,82486,82494,82494,82502,82502,82510,82518,82518" d="m364.51135,72.09091c1.70001,0 2.70001,0 3.52084,0c0.96451,0 1.68985,0 2.67902,0c0.77933,0 1.77866,0 2.80014,0l0.80002,0" id="svg_23" stroke-width="2" stroke="#000" fill="none"/>
  <path t="84294,84638,84646,84646,84670,84750,84862" d="m338.51135,57.09091c1.75717,0 2.64819,-0.0045 3.43069,-0.08533l0.65198,-0.63066l0.892,-0.284l0.82669,0" id="svg_24" stroke-width="2" stroke="#000" fill="none"/>
  <path t="86103,86230,86239,86239,86247,86264,86271,86280,86295,86391" d="m338.51135,64.09091c1.82535,0 2.83334,0 3.69553,0c0.8685,0 1.82532,0 2.7045,0l0.89999,0l0.89999,0l0.89999,0" id="svg_25" stroke-width="2" stroke="#000" fill="none"/>
  <path t="87215,87311,87319,87335,87335,87343,87350,87382,87382,87399,87415" d="m342.51135,74.09091c1.61069,0 2.52084,0 3.48401,0c0.69067,0 1.75885,0 2.616,0c0.89999,0 1.70001,0 2.60001,0l0.89999,0" id="svg_26" stroke-width="2" stroke="#000" fill="none"/>
  <path t="89479,89614,89614,89630,89639,89654,89678,89703,89710,89727,89743,89750,89759,89791,89807,89815,89815,89831,89854,89870,89870,89887,89902,89934,89943,89966,90007,90022,90062,90078,90166,90238,90279,90406,90406,90550,90654,90663,90678,90694,90718,90718,90742,90790,90814,90814,90846,90863,90887,90926,90935,90958,90982,90999,91008,91031,91047,91062,91078,91102,91126,91126,91134,91182,91246,91462,91526,91542,91551,91566,91622,91678,91678,91687,91710,91758" d="m350.51135,51.09091c0,1 0,1.8 0,2.7c0,0.9 0,1.8 0,2.7c0,0.9 0,1.8 0,2.7c0,0.9 -0.33847,1.93215 0.08536,2.616c0.49548,0.79945 0.91464,1.384 0.91464,2.284c0,0.8 0.31451,1.38715 0.83334,2.16666c0.47086,0.70747 0.1394,1.63374 0.16666,2.53333c0.02859,0.94413 0.91611,1.28544 1,2.0045c0.10376,0.88947 0,1.7955 0,2.6955c0,0.89999 -0.32535,2.07964 0.35718,2.54283c0.69901,0.47437 1.74283,0.05717 2.64282,0.05717c0.80002,0 1.8457,0.44958 2.64285,-0.05717c0.6221,-0.39547 0.35715,-1.54283 0.35715,-2.46367c0,-0.96317 0,-1.65383 0,-2.7175c0,-0.92833 0,-1.76167 0,-2.56167c0,-0.9 0,-1.8 0,-2.7c0,-0.9 0,-1.8 0,-2.7c0,-0.89983 0.13516,-1.74764 0.57468,-2.41067c0.53983,-0.81433 0.42532,-1.78933 0.42532,-2.68933c0,-0.9 0,-1.8 0,-2.7c0,-0.8 0,-1.7 0,-2.6c0,-0.87917 0.26291,-1.79606 -0.00449,-2.6955c-0.22675,-0.76267 -1.2955,-0.7045 -2.1955,-0.7045c-0.89999,0 -1.80002,0 -2.60001,0l-0.89999,0l-0.86401,0l-0.95682,0" id="svg_27" stroke-width="2" stroke="#000" fill="none"/>
 </g>
 <g display="none">
  <title>muse_image</title>
  <image xlink:href="http://farm1.static.flickr.com/192/498791029_dd503c0a05.jpg" id="muse" height="480" width="360" y="0" x="140"/>
 </g>
 <g display="none">
  <title>bbox</title>
  <rect stroke="#f00" fill="none" stroke-width="3" height="402.24" width="146.88" y="28.8" x="280.16" id="bbox"/>
 </g>
</svg>
