<svg width="640" height="480" xmlns="http://www.w3.org/2000/svg" xmlns:svg="http://www.w3.org/2000/svg" xmlns:xlink="http://www.w3.org/1999/xlink">
 <!-- Sketchy ANNOTATION
  ImageNet ID: n03467517_8929
  URL: http://static.flickr.com/29/46949167_6e0a232f9d.jpg
  Image Width: 500
  Image Height: 389
  BBox X: 217
  BBox Y: 99
  BBox Width: 125
  BBox Height: 279
  Exposure: 2000ms
  Synset Label: guitar
  Synset ID: n03467517
  Worker Tag: acoustic guitar slanted against wall
  Sanity Check: 
   Saved
  Comment: 
   {}
  Worker ID: A1P7U2ULSAE7YL
  Assignment ID: 3NGI5ARFTT587RJQ50MPI4W4LKYP1P
  HIT ID: 3RKHNXPHGWWLIDFE4UMZ85KHZUTUKT
  Work Time: 166s
  Worker Score: 0.7857
 END ANNOTATION -->
 <g display="inline">
  <title>Layer 1</title>
  <path t="0,189,205,237,268,292,316,324,332,341,365,374,374,405,428,460,469,485,501,517,533,557,565,589,597,629,637,653,669,700,716,732,772,780,781,790,812,837,845,853,884,892,916,917,940,972,989,1004,1020,1028,1068,1085,1094,1109,1125,1148,1157,1180,1205,1205,1220,1228,1237,1268,1276,1285,1308,1316,1325,1343,1360,1365,1388,1396,1397,1412,1428,1445,1468,1492,1500,1516,1517,1524,1533,1540,1564,1565,1573,1589,1597,1612,1621,1644,1644,1652,1668,1684,1700,1700,1716,1724,1732,1748,1756,1765,1780,1789,1796,1820,1836,1837,1852,1852,1868,1877,1908,1916,1932,1948,1956,1965,1980,1980,1989,2006,2013,2022,2028,2052,2061,2061,2069,2084,2100,2116,2124,2140,2149,2156,2172,2189,2205,2213,2236,2244,2252,2268,2284,2308,2308,2316,2324,2332,2356,2364,2374,2381,2388,2397,2405,2413,2429,2436,2445,2461,2469,2477,2485,2500,2501,2516,2532,2542,2549,2580,2596,2612,2628,2629,2637,2653,2670,2677,2685,2693,2709,2717,2732,2748,2749,2758,2765,2780,2790,2790,2797,2812,2822,2829,2829,2845,2861,2869,2884,2900,2909,2925,2933,2940,2949,2964,2972,2988,2997,3012,3012,3021,3028,3052,3060,3068,3076,3084,3092,3100,3116,3125,3125,3140,3149,3157,3164,3180,3204,3204,3212,3221,3221,3228,3244,3260,3260,3276,3292,3308,3316,3332,3340,3340,3357,3365,3372,3381,3388,3388,3396,3412,3428,3437,3445,3454,3469,3469,3477,3486,3500,3509,3509,3517,3532,3548,3564,3564,3573,3573,3589,3604,3604,3613,3613,3620,3636,3645,3660,3670,3685,3685,3692,3709,3716,3724,3756,3764,3780,3788,3788,3796,3812,3820,3828,3844,3860,3870,3900,3900,3916,3924,3940,3964,3980,3988,4004,4021,4037,4045,4060,4070,4085,4092,4100,4116,4132,4132,4148,4156,4188,4204,4212,4236,4244,4260,4260,4269,4277,4286,4293,4308,4332,4356,4356,4372,4380,4388,4420,4436,4436,4452,4484,4492,4501,4524,4548,4572,4572,4580,4604,4612,4628,4644,4652,4669,4677,4686,4701,4708,4732,4741,4741,4757,4772,4781,4788,4797,4812,4820,4836,4853,4876,4876,4886,4886,4908,4924,4932,4948,4948,4964,4972,4980,4996,4996,5004,5020,5036,5052,5061,5076,5092,5116,5124,5140,5140,5156,5180,5196,5212,5220,5236,5252,5252,5276,5276,5292,5308,5324,5332,5340,5357,5364,5364,5373,5388,5397,5405,5413,5444,5460,5484,5492,5492,5524,5548,5572,5572,5580,5612,5620,5652,5660,5668,5676,5692,5701,5709,5709,5732,5748,5764,5764,5780,5820,5828,5844,5852,5861,5876,5885,5901,5909,5918,5935,5956,5964,5973,5973,5988,6004,6020,6029,6044,6052,6061,6068,6092,6101,6109,6118,6134,6141,6149,6164,6188,6212,6220,6236,6252,6252,6268,6284,6300,6317,6318,6348,6372,6396,6396,6404,6421,6452,6460,6484,6500,6516,6524,6548,6572,6589,6613,6629,6661,6669,6677,6693,6709,6733,6789,6805,6806,6837,6877,6949,6965,6981,7053,7118,7221,7229,7309,7341,7349,7405,7453,7469,7493,7541,7549,7573,7605,7621,7677,7717,7773,7821,8069,8125,8125,8141,8181,8197,8221,8261,8277,8293,8303,8341,8357,8405,8421,8421,8429,8445,8469,8485,8533,8613,8629,8653,8653,8693,8709,8725,8741,8749,8757,8789,8813,8829,8885,8901,8941,8997,8997,9029,9109" d="m356.51135,273.09091c-1.69998,0 -2.64282,0 -3.52081,0c-0.87918,0 -1.77917,0 -2.67917,0c-0.89999,0 -2.03854,-0.27438 -2.67868,0.22134c-0.63638,0.49283 -1.15256,1.11554 -1.92133,1.49466c-0.84521,0.41681 -1.76401,0.27911 -2.63599,0.284c-0.95337,0.00534 -1.43796,0.72559 -2.17468,0.98932c-0.83737,0.29977 -1.78934,0.01001 -2.68933,0.01068c-0.89865,0.00067 -1.43918,0.60767 -2.13599,0.96399c-0.84982,0.43457 -1.70016,0.40814 -2.21133,1.08868c-0.51447,0.68494 -0.35776,1.73822 -1.15402,1.94598c-0.81619,0.21298 -1.35297,0.9176 -2.19867,1.00134c-0.79608,0.07883 -1.66959,0.11044 -2.08398,0.80133c-0.47675,0.79483 -1.56018,0.98874 -1.89517,1.71951c-0.36658,0.79971 -0.28534,1.91055 -1.02084,2.3125c-0.73566,0.40204 -1.73898,0.71085 -1.96399,1.56665c-0.22794,0.86694 -0.70721,1.40656 -1.01517,2.12085c-0.37949,0.88022 -0.02078,1.83633 -0.02084,2.67917c-0.00009,0.89981 -0.56885,1.47659 -0.96399,2.23599c-0.39917,0.76709 -0.03601,1.76401 -0.03601,2.664c0,0.89999 -0.01874,1.70016 0,2.60001c0.01801,0.86453 0.87518,0.83316 1.64734,1.35715c0.68097,0.4621 0.16891,1.66934 0.38867,2.54285c0.21707,0.86282 0.64658,1.63138 1.24802,2.31598c0.52332,0.59567 0.53424,1.54309 1.15198,2.05869c0.63318,0.52847 1.45227,0.75058 2.04318,1.52533c0.55978,0.73392 1.06149,1.37466 1.52081,2.02084c0.49548,0.69711 0.93912,1.57303 1,2.47916c0.05362,0.79819 0.05246,1.81848 0.80136,1.99866c0.89197,0.2146 1.17154,1.0018 1.19864,1.80133c0.02863,0.8443 0.83334,1.36667 1,2.20001c0.16669,0.83334 0.8038,1.1131 1.16669,2c0.27478,0.67154 0.81464,1.39948 0.83331,2.29999c0.01865,0.89984 0.32614,1.73666 0.716,2.5c0.38455,0.7529 0.12616,1.71585 0.29468,2.60001c0.17947,0.94165 0.96072,1.54572 0.98932,2.3045c0.03372,0.89487 0,1.7955 0,2.6955c0,0.90451 0,1.92133 0,2.60001c0,0.97867 0,1.75266 0,2.81467c0,0.85199 -0.77457,1.13144 -0.99548,1.88983c-0.25046,0.85977 0.13757,1.8085 -0.01517,2.6955c-0.14346,0.83316 -0.73154,1.63449 -1.07333,2.39999c-0.332,0.74356 -0.69287,1.52652 -0.91733,2.39868c-0.20612,0.8009 -0.86938,1.3526 -1.28268,2.08667c-0.44223,0.78543 -0.28671,1.66821 -0.80133,2.42932c-0.45126,0.66742 -1.52298,0.87448 -1.88931,1.68533c-0.35315,0.78168 -0.59604,1.76224 -1.19202,2.43335c-0.53842,0.60629 -1.32327,0.9776 -1.80798,1.60266c-0.57538,0.742 -1.13647,1.17075 -1.85867,1.73065c-0.64078,0.4968 -1.54575,0.44162 -2.08133,1.11868c-0.50818,0.64243 0.0882,1.7529 -0.17068,2.51465c-0.30176,0.88791 -0.90005,1.58026 -1.41467,2.20001c-0.49991,0.60202 -0.1333,1.57971 -0.52081,2.47916c-0.30777,0.71436 -1.04388,1.30783 -1.82983,1.48483c-1.0105,0.22757 -1.25565,0.71381 -1.95068,1.12c-0.82596,0.4827 -1.59503,1.14899 -2.03198,1.91602c-0.44427,0.77988 -1.0253,1.22449 -1.16684,2.10001c-0.14606,0.90353 -0.76099,1.43765 -0.979,2.39999c-0.19891,0.87799 0.10162,1.89487 -0.44617,2.46399c-0.48288,0.50168 -0.57468,1.23602 -0.57468,2.13602c0,0.89999 0,1.69998 0,2.60001c0,0.89999 0.05295,1.83475 -0.35266,2.59998c-0.44827,0.84573 -0.64734,1.70001 -0.64734,2.50134c0,0.89868 0,1.83466 0,2.68268c0,0.86331 -0.00009,1.75882 0,2.716c0.00009,0.89999 0.22061,1.76666 0.57468,2.39999c0.48151,0.86127 0.3299,1.84451 0.70935,2.60001c0.43558,0.86719 0.7153,1.59998 0.71597,2.5c0.00064,0.89999 0,1.79999 0,2.69998c0,0.89999 0,1.80002 0,2.69983c0,0.8475 -0.36371,1.8121 0.05719,2.543c0.46729,0.81146 1.48825,1.02826 1.88565,1.71436c0.42346,0.73108 0.16022,1.88147 0.85852,2.35748c0.7493,0.51077 1.56827,0.71451 2.07715,1.50684c0.47919,0.74609 0.42706,1.54816 1.06885,2.13116c0.57928,0.52621 1.56961,0.53583 2.05264,1.16818c0.52029,0.68112 1.08749,1.40756 1.56403,2.07916c0.51489,0.72565 0.98682,1.34009 1.73599,1.75266c0.83856,0.46179 1.46527,0.92078 1.86667,1.64734c0.42688,0.77271 1.12259,1.31091 1.83331,2c0.59122,0.57321 1.35947,1.01282 2.02084,1.5c0.66141,0.48718 1.54233,0.49283 2.4375,1c0.75436,0.4274 1.29208,0.94797 1.97766,1.47467c0.65363,0.50217 1.55139,0.94031 2.36401,1.02399c0.89526,0.09219 1.81961,-0.00061 2.60001,0.42667c0.82257,0.45038 1.60083,0.53748 2.39999,0.57468c0.91766,0.04272 1.21005,0.98199 2.00134,1c0.89841,0.02045 1.78882,0.09863 2.30847,0.7045c0.54831,0.63928 1.38318,1.11676 2.25418,1.25949c0.92438,0.15146 1.83743,0.02362 2.80267,0.03601c0.81271,0.01044 1.33163,0.57605 2,1c0.78815,0.49991 1.84586,-0.09149 2.59048,0.05716c0.92474,0.1846 1.55991,0.70709 2.49017,0.88568c0.9046,0.17368 1.75266,0.05716 2.73117,0.05716c0.82016,0 1.76315,-0.18512 2.63217,0.03601c0.85294,0.21704 1.5863,0.92126 2.48932,0.96399c0.89899,0.04251 1.70001,0 2.60001,0c0.89999,0 1.79999,0 2.68933,0c0.896,0 1.81067,0 2.71066,0c0.89999,0 1.70001,0 2.60001,0c0.89999,0 1.79999,0 2.70001,0c0.89999,0 1.79865,0 2.68399,0c0.91599,0 1.716,0 2.616,0c0.89999,0 1.79999,0 2.70001,0c0.89999,0 1.79999,0 2.69998,0c0.89999,0 1.77869,0 2.60452,0c0.89548,0 1.79547,0 2.6955,0c0.89999,0 1.79999,0 2.69998,0c0.89999,0 1.70001,0 2.60001,0c0.94284,0 1.82083,0 2.70001,0c0.89999,0 1.80377,0.08212 2.69998,-0.00015c0.91144,-0.08368 1.43765,-0.76102 2.39999,-0.979c0.87802,-0.19888 1.85504,0.05826 2.47467,-0.44617c0.59198,-0.48193 0.92813,-1.21671 1.73517,-1.51752c0.75845,-0.28271 1.82568,0.24756 2.6795,-0.06784c0.74643,-0.27573 0.87103,-1.4357 1.71066,-1.86798c0.64859,-0.33392 1.43774,-0.86603 2.30002,-1.08533c0.86874,-0.22095 1.54358,-0.60977 2.21066,-1.06134c0.73685,-0.49878 1.38834,-0.97565 1.98932,-1.57468c0.69888,-0.69662 1.39365,-1.27121 2.27869,-1.39999c0.83289,-0.12119 1.29749,-0.78699 2.22116,-1.00015c0.78891,-0.18207 1.29187,-0.9003 1.87482,-1.42517c0.58917,-0.53049 1.46152,-0.84036 1.90402,-1.67468c0.44275,-0.83481 0.72476,-1.4791 1.62131,-1.89999c0.78934,-0.37057 1.04257,-1.36575 1.72153,-1.87851c0.70758,-0.53439 1.54208,-0.43265 2.13116,-1.06882c0.53296,-0.57556 1.21234,-0.98462 2.13132,-1.33801c0.71259,-0.27402 1.63412,-0.69009 2.15433,-1.41467c0.496,-0.69083 0.40643,-1.69888 0.86166,-2.32083c0.4852,-0.6629 0.52225,-1.52408 0.92535,-2.34317c0.42752,-0.86868 1.11758,-1.45712 1.49066,-2.20398c0.33041,-0.6615 0.90213,-1.42209 1.08267,-2.23334c0.19522,-0.87723 0.00131,-1.79868 0.00131,-2.69867c0,-0.89999 0,-1.79999 0,-2.70001c0,-0.89999 0,-1.79999 0,-2.59998c0,-0.84283 0,-1.72086 0,-2.70001c0,-0.89999 0,-1.79999 0,-2.70001c0,-0.90015 0,-1.68533 0,-2.62534c0,-0.69064 0,-1.76398 0,-2.67465c0,-0.89999 0,-1.79999 0,-2.70001c0,-0.89999 0,-1.79999 0,-2.59998c0,-0.90002 0.0054,-1.80005 0,-2.70001c-0.00534,-0.8894 -0.72678,-1.31628 -1,-1.936c-0.34854,-0.79056 0.1637,-1.82129 -0.22131,-2.664c-0.30579,-0.66931 -0.51004,-1.55356 -0.82034,-2.39999c-0.30145,-0.8223 -1.38666,-0.89175 -1.84399,-1.7955c-0.42123,-0.8324 -0.5401,-1.51511 -1.31299,-1.98849c-0.77036,-0.47183 -1.24139,-1.13467 -2.09683,-1.66333c-0.655,-0.40479 -1.09875,-1.18726 -1.53784,-2.05267c-0.34268,-0.67538 -0.83633,-1.39746 -1.452,-1.91602c-0.66534,-0.56042 -1.19653,-1.02219 -1.76733,-1.72681c-0.59177,-0.7305 -1.45511,-0.96585 -1.89017,-1.71436c-0.42386,-0.72919 -0.26666,-1.63379 -0.7045,-2.34732c-0.50137,-0.81702 -0.06357,-1.84747 -0.36334,-2.68484c-0.26373,-0.73676 -0.81885,-1.24158 -1.01016,-2.11066c-0.18658,-0.84753 -1.07208,-1.42462 -1.54318,-2.10001c-0.51169,-0.73358 -0.22861,-1.71906 -0.43616,-2.62134c-0.18091,-0.7865 -0.67227,-1.27545 -1.0105,-2.168c-0.27731,-0.73175 -0.98401,-1.22125 -0.98935,-2.11066c-0.0054,-0.89996 0.00009,-1.79999 0,-2.70001c-0.00009,-0.89981 -0.41287,-1.56625 -0.94281,-2.15265c-0.49142,-0.54379 -1.03918,-1.08279 -1.05719,-1.94733c-0.01874,-0.89984 0,-1.80002 0,-2.70001c0,-0.79999 0,-1.70001 0,-2.60001c0,-0.92084 0,-1.88266 0,-2.69016c0,-0.93134 0,-1.80984 0,-2.70984c0,-0.79999 0,-1.70001 0,-2.60001c0,-0.89999 0,-1.79999 0,-2.69998c0,-0.90002 0,-1.79984 0,-2.72534c0,-0.776 0,-1.67468 0,-2.57468c0,-0.89999 0,-1.79999 0,-2.69998c0,-0.90002 0.24426,-1.93216 -0.284,-2.61603c-0.48468,-0.62747 -0.62509,-1.3887 -0.71732,-2.284c-0.08371,-0.81259 -0.79883,-1.45261 -0.97784,-2.29999c-0.18607,-0.8808 -0.02026,-1.79999 -0.02084,-2.70001c-0.00067,-0.99866 -0.56885,-1.47662 -0.96399,-2.23599c-0.39917,-0.76709 0.29156,-2.04367 -0.38867,-2.50684c-0.71957,-0.48996 -1.47211,-0.54385 -2.16815,-1.05716c-0.68832,-0.50763 -1.72296,-0.65482 -2.35785,-1.22134c-0.6001,-0.53549 -0.93011,-1.44467 -1.64215,-1.75781c-0.79553,-0.34985 -1.42026,-0.78232 -2.19516,-1.0195c-0.82184,-0.25156 -1.32208,-0.89102 -2.08536,-1c-0.90799,-0.12964 -1.19867,0.99866 -1.19867,1.79865c0,0.90002 0,1.80002 0,2.70001c0,0.88934 0,1.78534 0,2.70001c0,0.89999 0.33719,1.94894 -0.16666,2.63333c-0.48074,0.65298 -1.23773,1.01392 -2.03333,1.45065c-0.64813,0.35577 -1.34747,0.93094 -1.96667,1.54935c-0.61868,0.61789 -1.18918,1.13806 -2.12881,1.16666c-0.87079,0.02649 -1.8045,0 -2.70453,0c-0.79999,0 -1.70654,-0.0455 -2.5,-0.5c-0.70596,-0.40439 -1.71588,-0.27747 -2.41599,-0.784c-0.69354,-0.50177 -1.40591,-0.52011 -2.28265,-0.71735c-0.80286,-0.18063 -0.65451,-1.23254 -0.80151,-2.09848c-0.14468,-0.85239 -1.09967,-1.12167 -1.71451,-1.70151l-0.27466,-0.79868l-0.01068,-0.96399" id="svg_1" stroke-width="2" stroke="#000" fill="none"/>
  <path t="10925,11133,11142,11157,11173,11182,11189,11199,11216,11221,11221,11237,11247,11253,11269,11294,11317,11334,11342,11342,11350,11373,11382,11400,11406,11406,11413,11429,11453,11485,11501,11525,11533,11557,11557,11581,11597,11621,11645,11669,11709,11725,11741,11741,11773,11797,11813,11829,11845,11877,11893,11909,11925,11941,11950,11966,11997,12013,12029,12053,12085,12085,12093,12181,12533,12557,12581,12605,12645,12661,12670,12693,12709,12710,12733,12742,12773,12813,13013,13061,13525,13565,13565,13605,13653,13909,13933,13941,13957,13965,13997,14013,14013,14029,14045,14061,14077,14077,14085,14085,14101,14117,14149,14165,14189,14197,14214,14221,14221,14237,14253,14269,14285,14309,14325,14334,14349,14349,14365,14381,14389,14397,14413,14429,14429,14446,14453,14453,14461,14477,14501,14501,14517,14517,14525,14541,14565,14573,14589,14597,14605,14621,14621,14637,14645,14661,14693,14725,14765,14813,14829,14829,14885" d="m383.51135,255.09091c0,1.79999 0,2.70001 0,3.60001c0,0.89999 0,1.79999 0,2.69998c0,0.90002 0,1.80002 0,2.70001c0,0.79999 0,1.70001 0,2.60001c0,0.89999 0,1.79999 0,2.69998c0,0.90002 0,1.80002 0,2.70001c0,0.79999 -0.00192,1.6196 0.42535,2.39999c0.45038,0.82257 0.57465,1.70001 0.57465,2.60001c0,0.79999 0,1.70001 0,2.60001c0,0.96399 0,1.836 0,2.69998c0,0.90002 0,1.80002 0,2.70001c0,0.79999 0,1.70001 0,2.60001c0,0.89999 0,1.79999 0,2.6955c0,0.92599 0,1.8045 0,2.7045c0,0.79999 0,1.70001 0,2.60001c0,0.89999 0,1.79999 0,2.69998c0,0.90002 0,1.79984 0,2.72534c0,0.776 0,1.67468 0,2.57468c0,0.89999 0,1.79999 0,2.69998c0,0.90002 0,1.80002 0,2.70001c0,0.79999 0,1.71466 0,2.61066c0,0.88934 0.18484,2.03653 -0.52081,2.3685c-0.86737,0.40805 -1.83633,0.02084 -2.77917,0.02084c-0.89999,0 -1.79999,0 -2.70001,0c-0.79999,0 -1.69998,0 -2.59998,0c-0.90002,0 -1.80002,0 -2.6955,0c-0.87119,0 -1.8045,0 -2.70453,0c-0.79999,0 -1.70004,0.01068 -2.59998,0c-0.87936,-0.01044 -1.59299,-0.40366 -2.116,-1.08401c-0.46991,-0.61127 -0.57199,-1.40445 -1.16269,-2.13748c-0.52084,-0.64633 -0.92148,-1.43112 -1.10049,-2.2785c-0.18607,-0.8808 -0.02084,-1.8045 -0.02084,-2.82132c0,-0.67868 0,-1.6572 0,-2.47736c0,-0.90134 0,-1.84415 0,-2.72217c0,-0.87915 0,-1.77914 0,-2.67917c0,-0.89999 0,-1.79999 0,-2.59998c0,-0.90002 0,-1.80002 0,-2.70001c0,-0.97916 0,-1.85718 0,-2.70001c0,-0.89999 0,-1.79999 0,-2.59998c0,-0.90002 0.00531,-1.80005 0,-2.70001c-0.00534,-0.90005 -0.50049,-1.71881 -0.83331,-2.5c-0.32019,-0.75153 -0.16669,-1.75717 -0.16669,-2.65268c0,-0.69464 0,-1.71133 0,-2.65182c0,-0.86215 0,-1.6955 0,-2.67401c0,-0.82016 0,-1.7215 0,-2.66431c0,-0.87802 0,-1.75717 0,-2.65717c0,-0.90002 0,-1.80002 0,-2.70001c0,-0.79999 0,-1.70001 0,-2.60001c0,-0.89999 0,-1.78934 0,-2.75717c0,-0.84283 0,-1.74283 0,-2.64282l0,-0.79999l0,-0.90002" id="svg_2" stroke-width="2" stroke="#000" fill="none"/>
  <path t="16181,16429,16485,16509,16533,16557,16613,16613,16629,16685,16717,16725,16741,16757,16813,16837,16901,16941,16949,16965,16996,17020,17037,17053" d="m392.51135,302.09091c-0.03598,-0.98935 -0.81778,-1.23206 -1.00015,-2.09982c-0.16653,-0.79233 -0.84711,-1.3046 -1.28384,-2.10019c-0.35574,-0.64807 -1.04605,-1.25073 -1.54932,-1.96664c-0.48874,-0.69525 -0.48431,-1.57993 -1.08267,-2.11734c-0.63846,-0.57343 -0.8504,-1.26859 -1.08401,-2.10535c-0.19067,-0.68295 -1.07758,-1.03674 -1.57465,-1.63599c-0.5101,-0.61496 -0.42535,-1.57468 -0.46133,-2.53867l-0.66852,-0.43152l-0.8595,-0.0405" id="svg_3" stroke-width="2" stroke="#000" fill="none"/>
  <path t="18013,18229,18357,18421" d="m357.51135,273.09091" id="svg_4" stroke-width="2" stroke="#000" fill="none"/>
  <path t="21557,21740,21780,21804,21828,21876,21900,21932,21964,21964,21988,21996,22012,22028,22044,22060,22084,22100,22108,22119,22133,22156,22166,22180,22196,22204,22212,22212,22228,22236,22244,22252,22268,22286,22286,22292,22292,22302,22308,22324,22333,22341,22349,22357,22357,22366,22366,22373,22373,22382,22389,22396,22396,22405,22412,22421,22428,22437,22445,22454,22454,22460,22470,22470,22486,22492,22493,22502,22502,22508,22509,22519,22524,22532,22540,22549,22556,22573,22573,22582,22589,22589,22605,22613,22613,22628,22628,22638,22644,22653,22660,22669,22669,22676,22685,22692,22693,22702,22709,22719,22735,22740,22740,22749,22756,22756,22765,22772,22781,22788,22788,22796,22796,22805,22812,22820,22828,22837,22844,22844,22852,22860,22868,22876,22884,22902,22902,22918,22935,22935,22948,22956,22980,22988,23004,23005,23028,23028,23044,23053,23084,23108,23124,23140,23140,23151,23180,23204,23204,23220,23228,23252,23268,23292,23300,23372" d="m362.51135,258.09091c0,-1.70001 0,-2.60001 0,-3.5c0,-0.89999 0,-1.8 0,-2.7955c0,-0.87117 0,-1.7045 0,-2.5045c0,-0.89999 0,-1.8 0,-2.7c0,-0.89999 0,-1.8 0,-2.7c0,-0.90001 0,-1.89984 0,-2.74733c0,-0.75717 0,-1.65268 0,-2.55267c0,-0.89999 0,-1.8 0,-2.7c0,-0.90001 0,-1.8 0,-2.60001c0,-0.89999 0,-1.8 0,-2.7c0,-0.89999 0,-1.8045 0,-2.82133c0,-0.67867 0,-1.65717 0,-2.47733c0,-0.90134 0,-1.80135 0,-2.70134c0,-0.89999 0,-1.8 0,-2.70134c0,-0.96533 0,-1.79866 0,-2.77733c0,-0.774 0,-1.674 0,-2.53734c0,-0.96317 0,-1.7885 0,-2.80516c0,-0.8175 0,-1.72701 0,-2.48016c0,-0.89867 0,-1.79868 0,-2.69867c0,-0.91068 0.00061,-1.82133 0,-2.67467c-0.00067,-0.94 -0.24548,-1.7773 -0.64731,-2.52533c-0.41898,-0.77997 -0.30426,-1.78943 -0.38867,-2.51067c-0.11697,-0.99956 -0.54483,-1.74123 -0.79733,-2.62267c-0.24158,-0.84337 -0.16669,-1.76668 -0.16669,-2.66667c0,-0.89999 0,-1.8 0,-2.69867c0,-0.88533 0,-1.80133 0,-2.60133c0,-0.836 0,-1.85266 0,-2.54733c0,-1.02733 0,-1.97417 0,-2.67349c0,-0.97917 0,-1.9375 0,-2.86934c0,-0.81433 0,-1.70984 0,-2.63066c0,-0.80051 0,-1.65384 0,-2.59384c0,-0.98534 0,-1.88533 0,-2.68533c0,-0.89999 0,-1.8 0,-2.7c0,-0.91068 0,-1.82133 0,-2.67467c0,-0.94 0.02536,-1.82573 0,-2.62534c-0.02859,-0.90135 -0.68488,-1.62315 -0.94281,-2.5045c-0.24268,-0.82928 -0.05719,-1.6955 -0.05719,-2.674c0,-0.82016 0,-1.7215 0,-2.62151c0,-0.89999 0.11649,-1.80815 -0.00449,-2.7c-0.11142,-0.82135 -0.84134,-1.46686 -0.98483,-2.3c-0.15277,-0.88699 -0.01068,-1.79999 -0.01068,-2.7c0,-0.89999 0,-1.80017 0,-2.58533c0,-0.94 0,-1.948 0,-2.70401c0,-0.91066 0,-1.88983 0,-2.76782c0,-0.84283 0.09283,-1.75876 -0.08533,-2.52817c-0.22549,-0.97383 -0.74988,-1.6058 -0.89383,-2.59384c-0.13281,-0.91144 -0.02084,-1.82083 -0.02084,-2.72083c0,-0.90001 0.0372,-1.80087 0,-2.60001c-0.04272,-0.91763 -0.91626,-1.35429 -1,-2.2c-0.07883,-0.79611 0,-1.7 0,-2.6c0,-0.9 0,-1.8 0,-2.7l0,-0.89867l0,-0.96799" id="svg_5" stroke-width="2" stroke="#000" fill="none"/>
  <path t="26461,26669,26678,26695,26709,26733,26741,26749,26749,26765,26773,26781,26797,26813,26821,26821,26829,26837,26853,26861,26869,26878,26885,26894,26909,26909,26925,26933,26941,26941,26949,26957,26965,26973,26989,26989,26998,26998,27005,27021,27021,27031,27031,27037,27037,27048,27061,27069,27069,27077,27085,27094,27101,27101,27111,27117,27118,27125,27133,27133,27141,27141,27149,27157,27166,27166,27173,27173,27181,27181,27189,27198,27198,27205,27214,27221,27231,27231,27237,27247,27247,27253,27262,27269,27277,27277,27285,27294,27301,27310,27317,27317,27325,27325,27333,27341,27350,27357,27365,27373,27373,27381,27381,27397,27405,27413,27421,27430,27430,27437,27448,27453,27453,27453,27464,27464,27469,27469,27477,27494,27501,27511,27517,27517,27533,27533,27533,27541,27541,27549,27565,27573,27573,27581,27581,27589,27597,27605,27613,27621,27621,27637,27653,27677,27677,27685,27717,27741,27757,27829,27885,27885,28021,28085,28125,28149,28173,28213,28253,28269,28317,28325,28381,28413,28437,28469,28479,28501,28533,28549,28597,28645,28677,28741,28829,28861,28877,28893,28965,28973,29005,29021,29093" d="m382.51135,257.09091c0,-2.58934 0,-3.5 0,-4.39999c0,-0.89551 0,-1.8215 0,-2.70001c0,-0.89999 0,-1.7 0,-2.59999c0,-0.90001 0,-1.8 0,-2.7c0,-0.90451 0,-1.76668 0,-2.57918c0,-1 0,-1.82216 0,-2.72083c0,-0.90001 0,-1.8 0,-2.7c0,-0.90001 0,-1.8 0,-2.70018c0,-0.78516 0,-1.71449 0,-2.65717c0,-0.812 0,-1.5945 0,-2.60666c0,-0.936 0,-1.836 0,-2.73601c0,-0.89999 0,-1.65717 0,-2.55266c0,-0.86334 0,-1.80566 0,-2.79034c0,-0.77832 0,-1.75682 0,-2.53616c0,-0.99933 0,-1.81949 0,-2.72083c0,-0.82083 0,-1.784 0,-2.64734c0,-0.89549 0,-1.85266 0,-2.75267c0,-0.89999 -0.11462,-1.68391 -0.5,-2.42082c-0.41034,-0.78465 -0.49466,-1.65379 -0.5,-2.59384c-0.00558,-0.98566 0,-1.69966 0,-2.65199c0,-0.94667 0,-1.869 0,-2.68001c0,-0.87483 0,-1.76399 0,-2.75316c0,-0.77934 0.16806,-1.81416 -0.08533,-2.59883c-0.25592,-0.79247 -0.84357,-1.51762 -0.90399,-2.37601c-0.06592,-0.9364 -0.01068,-1.88667 -0.01068,-2.68666c0,-0.972 0,-1.83417 0,-2.6595c0,-0.96317 0,-1.82651 0,-2.722c0,-0.95717 0,-1.85718 0,-2.75717c0,-0.8 0.01041,-1.70006 0,-2.60001c-0.01041,-0.90018 -0.4928,-1.64017 -0.83331,-2.56667c-0.23166,-0.63028 -0.16669,-1.66666 -0.16669,-2.52882c0,-0.90451 0,-1.8045 0,-2.7045c0,-0.90001 0,-1.80135 0,-2.76668c0,-0.65866 0,-1.66666 0,-2.52882c0,-0.90451 0.00223,-1.8045 0,-2.7045c-0.00226,-0.90002 -0.33685,-1.63127 -0.71597,-2.40001c-0.41681,-0.84521 -0.26355,-1.75084 -0.50534,-2.74266c-0.1745,-0.71585 -0.50662,-1.43449 -0.69333,-2.48801c-0.14941,-0.843 -0.08536,-1.79466 -0.08536,-2.48534c0,-1.03732 0,-1.92 0,-2.784c0,-0.90134 0,-1.86667 0,-2.72083c0,-0.97917 0,-1.77917 0,-2.57918c0,-0.9955 0,-1.74283 0,-2.75333c0,-0.93333 0,-1.81334 0,-2.64667c0,-0.9785 0,-1.6955 0,-2.60001c0,-0.89999 0,-1.79999 0,-2.7045c0,-1.01666 0,-1.83417 0,-2.6955c0,-0.86133 0,-1.83333 0,-2.58934c0,-0.91066 0,-1.81066 0,-2.71066c0,-0.9 0,-1.8 0,-2.7c0,-0.8 0.01465,-1.83347 0,-2.61066c-0.01801,-0.95385 -0.7807,-1.39289 -0.99866,-2.19067c-0.24179,-0.885 -0.8031,-1.1708 -1.70132,-1.19867c-0.94412,-0.0293 -1.35092,-0.85629 -2.27466,-1c-0.81686,-0.12708 -1.72534,0 -2.62534,0c-0.90002,0 -1.80002,0 -2.70001,0c-0.89999,0 -1.79999,0 -2.70001,0c-0.87866,0 -1.73267,-0.18973 -2.59998,0.036c-0.85638,0.22288 -1.01797,1.42738 -1.68533,1.87867c-0.75998,0.51392 -1.66202,0.438 -2.14001,1.06l-0.57468,0.54617l-0.42532,0.8685" id="svg_6" stroke-width="2" stroke="#000" fill="none"/>
  <path t="36974,37341,37357,37549,37573,37598,37605,37621,37645,37653,37661,37669,37669,37677,37685,37686,37693,37694,37703,37709,37710,37719,37719,37725,37736,37736,37742,37742,37750,37757,37757,37773,37789,37789,37805,37813,37821,37838,37845,37845,37854,37869,37885,37902,37909,37933,37957,37966,37997,38021,38045,38061,38077,38101,38117,38117,38133,38149,38189,38245,38429,38438,38445,38454,38461,38462,38469,38469,38469,38477,38477,38477,38486,38486,38493,38494,38502,38502,38509,38517,38533,38541,38589,38613,38701,38749,38773,38773,38861,38997,39013,39037,39069,39077,39086,39094,39109,39413,39429,39462,39469,39469,39485,39501,39509,39518,39541,39550,39565,39589,39597,39621,39637,39661,39661,39685,39685,39701,39717,39717,39725,39741,39757,39773,39781,39789,39797,39813,39814,39837,39837,39847,39853,39869,39893,39909,39925,39925,39957,39965,39981,39997,40005,40037,40069,40093,40109,40157,40245,40293,40317,40365,40413,40437,40463,40470,40494,40502,40549" d="m355.51135,121.09091c-1.83331,-0.16666 -2,-0.97467 -2,-1.80133c0,-0.89867 0,-1.79867 0,-2.69867c0,-0.9 0,-1.8 0,-2.7c0,-0.89999 0,-1.8 0,-2.6c0,-0.836 0,-1.85716 0,-2.6045c0,-0.99416 0,-1.7595 0,-2.71149c0,-1.05067 0,-1.70934 0,-2.71734c0,-0.86217 0,-1.6875 0,-2.652c0,-0.72533 0,-1.7145 0,-2.67867c0,-0.95067 0,-1.836 0,-2.636c0,-0.836 0,-1.85266 0,-2.54733c0,-1.01666 0,-1.95267 0,-2.85267c0,-0.89999 0,-1.8 0,-2.6c0,-0.9 0,-1.8 0,-2.7c0,-0.9 0,-1.8 0,-2.7c0,-0.89983 0,-1.77467 0,-2.60133c0,-0.89867 0.16522,-1.81786 -0.02081,-2.69867c-0.17899,-0.8474 -0.9183,-1.59387 -0.97919,-2.5c-0.05365,-0.7982 0,-1.7 0,-2.6c0,-0.87917 -0.26291,-1.79607 0.00452,-2.6955c0.22675,-0.76266 1.2955,-0.70441 2.1955,-0.7045c0.90033,-0.00008 1.61911,-0.03796 2.57068,-0.284c0.77518,-0.20043 1.62607,-0.46902 2.52899,-0.5945c0.87473,-0.12157 1.686,-0.11925 2.73099,-0.1215c0.85202,-0.00184 1.80536,0 2.57068,0c0.99417,0 1.74149,0 2.76266,0c0.936,0 1.8446,0.12401 2.73584,-0.00017c0.80188,-0.11172 1.25153,-0.97124 2.18549,-0.99983c0.81427,-0.02493 1.71466,0 2.51468,0c0.89999,0 1.79999,0 2.69998,0c0.90002,0 1.82242,-0.19807 2.69867,0.00134c0.80429,0.18303 0.67889,1.39353 1.22668,1.96266c0.48285,0.50165 0.57465,1.23467 0.57465,2.20267c0,0.83334 0,1.63333 0,2.53333c0,0.9 0,1.8 0,2.7c0,0.89999 0,1.8 0,2.7c0,0.9 0,1.816 0,2.6045c0,0.9315 0,1.78083 0,2.7c0,0.99417 0,1.75951 0,2.71017c0,0.88534 0,1.68533 0,2.58533c0,0.9 0,1.8 0,2.7c0,0.89999 0,1.8 0,2.7c0,0.9 0,1.78533 0,2.72533c0,0.69067 0,1.65383 0,2.57467c0,0.8955 0,1.88533 0,2.7c0,0.9 0,1.7 0,2.6c0,0.9 0,1.8 0,2.7c0,0.89999 0,1.8 0,2.69983c0,0.9255 0,1.7015 0,2.60017c0,0.9 0.39587,1.89285 -0.02081,2.77917c-0.33182,0.70576 -1.47919,0.51858 -2.37918,0.52084c-0.89548,0.00225 -1.57465,0.42533 -2.12082,0.97916l-0.87918,0.02084l-0.89999,0" id="svg_8" stroke-width="2" stroke="#000" fill="none"/>
  <path t="43367,43398,43414,43430,43438,43470,43478,43494,43510,43510,43527,43527,43558,43606,43694,43742,43766,43806" d="m358.51135,135.09091c1.70001,0 2.70001,0 3.60001,0c0.87918,0 1.75717,0 2.70001,0c0.89999,0 1.69998,0 2.58533,0c0.94,0 1.63068,0 2.70401,0c0.91064,0 1.79999,0 2.69598,0l0.91467,0l0.89999,0" id="svg_9" stroke-width="2" stroke="#000" fill="none"/>
  <path t="44767,44814,44830,44846,44862,44862,44870,44879,44894,44918,44918,44934,45134,45182,45198,45294,45358" d="m361.51135,153.09091c1.83334,0 2.61069,0 3.52084,0c0.96317,0 1.65384,0 2.72202,0c0.95715,0 1.85715,0 2.75714,0c0.80002,0 1.64285,0 2.52084,0c0.97916,0 1.87918,0 2.77917,0l0.89999,0" id="svg_10" stroke-width="2" stroke="#000" fill="none"/>
  <path t="46038,46158,46166,46178,46190,46207,46207,46224,46224,46230,46254,46302,46318,46382,46518,46566,46638,46638" d="m362.51135,177.09091c1.61069,0 2.5,0 3.40002,0c0.90448,0 1.92133,0 2.59998,0c0.97852,0 1.79868,0 2.70001,0c0.94284,0 1.82083,0 2.70001,0c0.89999,0 1.79999,0 2.69998,0l0.89999,0l0.80002,0" id="svg_11" stroke-width="2" stroke="#000" fill="none"/>
  <path t="47406,47510,47526,47534,47550,47550,47558,47558,47566,47574,47590,47590,47606,47630,47710,47782" d="m363.51135,199.09091c1.70001,0 2.70001,0 3.52084,0c0.96451,0 1.68985,0 2.67902,0c0.77933,0 1.77847,0 2.75198,0c0.758,0 1.56549,0 2.63751,0l0.91064,0l0.90002,0l0.89999,0" id="svg_12" stroke-width="2" stroke="#000" fill="none"/>
  <path t="48614,48670,48686,48694,48726,48742,48742,48766,48766,48782,48790,48822,48838,48854,48894,48934,48934,48950,49014,49206" d="m363.51135,216.09091c0.91602,0.284 1.35587,0.97141 2.30002,1c0.89957,0.02725 1.80017,0 2.58533,0c0.94,0 1.63068,0 2.70401,0c0.88983,0 1.76782,0 2.71066,0c0.89999,0 1.79999,0 2.69998,0c0.80002,0 1.70001,0 2.60001,0l0.89999,0" id="svg_13" stroke-width="2" stroke="#000" fill="none"/>
  <path t="49758,49862,49872,49878,49878,49894,49903,49910,49926,49974,49998,50022,50046,50070,50094,50150,50198" d="m364.51135,237.09091c1.22153,0.87849 2.10001,1 3,1c0.80002,0 1.70001,0 2.60001,0c0.89999,0 1.78934,0.00066 2.68533,0c0.91333,-0.00067 1.45181,-0.61172 2.15067,-0.964c0.86145,-0.43423 1.86401,-0.036 2.76401,-0.036l0.89999,0" id="svg_14" stroke-width="2" stroke="#000" fill="none"/>
  <path t="50870,50966,50974,50990,51006,51006,51014,51014,51022,51030,51070,51134,51150,51174,51190,51294,51294,51382" d="m362.51135,267.09091c1.61069,0 2.50644,-0.09796 3.41068,0.01065c0.92807,0.11145 1.55319,0.60089 2.56784,0.86786c0.80164,0.21091 1.7215,0.12149 2.62149,0.12149c0.87918,0 1.75717,0 2.70001,0c0.89999,0 1.79999,0 2.69998,0l0.80002,0l0.89999,0" id="svg_15" stroke-width="2" stroke="#000" fill="none"/>
  <path t="52158,52246,52262,52271,52278,52286,52294,52302,52302,52310,52310,52318,52326,52342,52358,52366,52566" d="m367.51135,291.09091c1.70001,0 2.70001,0 3.60001,0c0.89999,0 1.80002,0 2.60135,0c0.96533,0 1.79865,0 2.77716,0c0.82016,0 1.7215,0 2.62149,0c0.89999,0 1.80002,0 2.6955,0l0.87119,0" id="svg_16" stroke-width="2" stroke="#000" fill="none"/>
  <path t="53038,53134,53142,53150,53166,53174,53190,53198,53198,53206,53206,53215,53222,53238,53238,53262" d="m366.51135,306.09091c1.70001,0 2.70001,0 3.60001,0c0.89999,0 1.78934,-0.00009 2.68533,0c0.81485,0.00009 1.60904,0.06134 2.54001,0.42532c0.69791,0.27286 1.65384,0.55383 2.58533,0.57468l0.91068,0l0.85333,0l0.94,0" id="svg_17" stroke-width="2" stroke="#000" fill="none"/>
  <path t="55654,55814,55846,55870,55910,55918,55958,55990,56006,56014,56038,56070,56086,56086,56102,56126,56158,56166,56190,56190,56238,56254,56286,56310,56326,56326,56350,56366,56390,56406,56430,56462,56478,56494,56502,56511,56518,56534,56542,56558,56566,56638,56670,56694,56742,56774,56774,56790,56806,56830,56862,56862,56870,56893,56942,56958,56990,57078,57078,57110,57142,57150,57166,57183,57199,57206,57222,57262,57294,57294,57318,57336,57358,57389,57398,57406,57454,57517,57526,57550,57566,57662,57710,57822,57838,57910,57950,57950,58030,58150,58166" d="m379.51135,344.09091c-1.59998,-0.57468 -2.39944,-0.98199 -3.29999,-1c-0.89981,-0.01801 -1.79999,0 -2.70001,0c-0.91599,0 -1.83347,-0.42102 -2.64282,0.05716c-0.65964,0.38971 -0.89893,1.42316 -1.55582,2.14285c-0.53348,0.5845 -0.61536,1.52686 -0.83734,2.39999c-0.21921,0.86227 -0.69778,1.56003 -1.13068,2.39999c-0.36771,0.71347 -0.83334,1.436 -0.83334,2.29999c0,0.90002 0,1.80002 0,2.70001c0,0.79999 0,1.70001 0,2.60001c0,0.89999 -0.17026,1.81631 0,2.6955c0.14465,0.74698 0.74948,1.17822 1.00452,2c0.23682,0.76309 1.15131,1.14581 1.64282,1.75717c0.51819,0.64453 -0.0105,1.74423 0.38867,2.51132c0.39514,0.75937 1.17963,1.36966 2.06384,1.436c0.86182,0.06467 1.05447,0.91626 1.90015,1c0.79611,0.07883 1.42896,0.3707 2.22153,0.87851c0.74673,0.47842 1.77887,0.14685 2.57849,0.12149c0.90137,-0.02859 1.62256,-0.68552 2.5,-0.94284c0.86417,-0.25345 1.40125,-0.43265 1.86667,-1.22382c0.38568,-0.65561 1.40137,-1.13779 1.71182,-1.93335c0.33014,-0.84604 0.60468,-1.50717 1.03616,-2.18533c0.49316,-0.77505 -0.24304,-1.99899 0.30667,-2.59317c0.56384,-0.60944 0.77866,-1.12149 0.77866,-1.92148c0,-0.90002 0.00955,-1.80008 0,-2.70001c-0.01041,-0.97931 -0.77478,-1.43661 -0.99548,-2.2045c-0.24738,-0.86066 -0.10086,-1.70175 -0.65182,-2.34818c-0.51517,-0.6044 -1.54297,-0.48212 -2.186,-1.11398c-0.58847,-0.57825 -0.61279,-1.38095 -1.08133,-2.11868c-0.43915,-0.69147 -0.08536,-1.71466 -0.08536,-2.51465l0,-0.90002l0,-0.89999l-0.03598,-0.96399" id="svg_18" stroke-width="2" stroke="#000" fill="none"/>
  <path t="60486,60566,60575,60582,60599,60615,60631,60646,60646,60663,60663,60678,60678,60695,60718,60735,60758,60758,60775,60775,60783,60791,60799,60815,60943,60983,60999,61110,61127,61135,61143,61191,61223,61231,61231,61240,61247,61262,61287,61319,61367,61399,61407" d="m368.51135,428.09091c1.70001,0 2.70001,0 3.56403,0c0.87198,0 1.836,0 2.63733,0c0.96533,0 1.79865,0 2.77731,0c0.77402,0 1.67401,0 2.53735,0c0.96317,0 1.884,0 2.68533,0c0.96533,0 1.79865,0 2.77716,0c0.82016,0 1.7215,0 2.62149,0c0.89999,0 1.80002,0 2.70001,0c0.89865,0 1.75726,-0.09335 2.69998,0c0.8457,0.08374 1.50821,0.60678 1.94284,1.35266c0.43839,0.75232 -0.1261,1.80161 0.22385,2.64734c0.32465,0.78464 0.94482,1.37381 1.48065,2.05267c0.45786,0.58005 0.40985,1.59015 1.186,2.11398l0.16666,0.83334l0.16669,0.83334l0.83331,0.16666" id="svg_19" stroke-width="2" stroke="#000" fill="none"/>
  <path t="62662,62766,62814,62847,62878,62910,62910,62927,63006,63174" d="m368.51135,429.09091c-0.64731,1.05716 -1.44611,1.54761 -1.91464,2.28534c-0.43915,0.69147 -0.08536,1.71466 -0.08536,2.51465l-0.08533,0.91467l-0.79315,0.50684l-0.12152,0.87851" id="svg_20" stroke-width="2" stroke="#000" fill="none"/>
  <path t="65094,65206,65222,65222,65231,65246,65246,65254,65254,65262,65262,65270,65286,65294,65302,65310,65310,65318,65326,65326,65335,65352,65352,65358,65366,65374,65375,65382,65382,65391,65398,65398,65414,65430,65430,65439,65446,65446,65455,65462,65462,65470,65470,65478,65478,65486,65494,65494,65502,65502,65510,65511,65519,65519,65526,65526,65535,65542,65542,65552,65552,65558,65566,65566,65574,65590,65590,65598,65598,65607,65614,65614,65623,65630,65630,65638,65646,65646,65654,65654,65662,65670,65678,65686,65686,65694,65694,65702,65702,65710,65718,65726,65735,65742,65742,65752,65752,65758,65774,65774,65782,65798,65806,65806,65814,65814,65823,65830,65846,65846,65855,65855,65862,65870,65886,65902,65902,65910,65918,65926,65942,65951,65952,65958,65990,66014,66030,66070,66086,66086" d="m363.51135,310.09091c0,1.64667 0,2.48401 0,3.34732c0,1.02734 0,1.97418 0,2.67352c0,0.97916 0,1.76849 0,2.8125c0,0.75598 0,1.73065 0,2.60266c0,0.86398 0,1.76401 0,2.66415c0,0.78519 0,1.72516 0,2.73318c0,0.75598 0,1.6875 0,2.65067c0,0.69064 0,1.75882 0,2.616c0,0.89999 0,1.65717 0,2.55267c0,0.86331 0,1.84732 0,2.83133c0,0.69064 0,1.75882 0,2.61615c0,0.78519 0,1.72516 0,2.73318c0,0.75598 0,1.6875 0,2.65198c0,0.72534 0,1.71469 0,2.51468c0,1 -0.00269,1.77866 0,2.832c0.00226,0.88232 -0.00351,1.59286 0.28403,2.56799c0.24075,0.81644 0.63516,1.79565 0.69516,2.57916c0.06522,0.85196 0.02081,1.7735 0.02081,2.67352c0,0.69464 0,1.72198 0,2.66864c0,0.85333 0,1.79468 0,2.56268c0,0.94131 0,1.94934 0,2.70532c0,0.93152 -0.0701,1.90201 0.03601,2.58533c0.14917,0.96066 0.81039,1.59222 0.95334,2.46133c0.16501,1.00327 0.01065,1.71133 0.01065,2.73868c0,0.94666 0,1.79999 0,2.73999c0,0.88535 0,1.64252 0,2.53802c0,0.86331 0,1.82648 0,2.74731c0,0.90451 0,1.76666 0,2.60001c0,0.97867 0,1.75266 0,2.65268c0,0.86331 0,1.82648 0,2.74731c0,0.89999 0,1.80133 0,2.76666c0,0.83334 0,1.66669 0,2.52884c0,0.94049 0,1.78851 0,2.65182c0,1.00601 0,1.87436 0,2.81934c0,0.83334 0,1.66669 0,2.52884c0,0.90451 0,1.82535 0,2.78983c0,0.72534 0,1.71436 0,2.47302c0,1.02081 0,1.84299 0,2.67764c0,1.01669 0,1.71133 0,2.72803c0,0.93597 0,1.836 0,2.73599c0,0.89999 0,1.69998 0,2.61465c0,0.896 0,1.78534 0,2.68533l0.00452,0.89999l0.27951,0.90002l0.43198,0.59998" id="svg_21" stroke-width="2" stroke="#000" fill="none"/>
  <path t="67102,67182,67191,67191,67200,67200,67206,67206,67214,67214,67222,67222,67230,67230,67239,67239,67246,67246,67254,67254,67262,67262,67270,67271,67278,67286,67286,67294,67294,67294,67302,67302,67310,67310,67318,67318,67326,67326,67326,67334,67334,67342,67350,67350,67358,67358,67366,67366,67374,67374,67374,67383,67383,67390,67390,67400,67400,67406,67414,67422,67422,67430,67430,67438,67438,67446,67446,67455,67462,67470,67470,67478,67478,67478,67488,67494,67494,67502,67510,67510,67519,67526,67539,67539,67555,67555,67566,67566,67574,67574,67592,67600,67600,67606,67622,67630,67630,67646,67646,67654,67671,67678,67686,67702,67702,67718,67726,67726,67734,67750,67758,67782,67798,67798,67814,67838,67838,67886,67894,67902,67918,67934,67982" d="m383.51135,312.09091c0.05719,1.75717 0.39484,2.64191 0.64734,3.40451c0.3237,0.9776 0.2316,1.81219 0.638,2.71149c0.3139,0.69464 0.97202,1.34262 1.27869,2.09467c0.39194,0.96112 0.42557,1.76834 0.43597,2.76801c0.00806,0.77396 -0.00052,1.6785 0,2.42584c0.00067,0.99548 -0.04333,1.81354 0.22134,2.79532c0.21545,0.7991 0.61862,1.78857 0.83133,2.55283c0.25436,0.91397 0.71158,1.56439 0.89017,2.49469c0.17365,0.90457 0.05716,1.7735 0.05716,2.75266c0,0.79999 0,1.60001 0,2.60001c0,0.79999 0,1.79999 0,2.60001c0,1 0,1.79999 0,2.79999c0,0.79999 0,1.60001 0,2.59549c0,0.74734 -0.01389,1.77927 0.00018,2.72601c0.01041,0.69955 0.14456,1.68604 0.42517,2.46783c0.37866,1.05499 0.56424,1.73135 0.57465,2.75333c0.0072,0.70798 0,1.452 0,2.65201c0,0.77332 0,1.81067 0,2.55466c0,0.91733 0,1.82935 0,2.75067c0,0.91068 0,1.8215 0,2.52084c0,0.97916 0,1.76849 0,2.8125c0,0.79199 -0.07932,1.83084 0.05719,2.51398c0.18475,0.92471 0.88193,1.74655 0.94281,2.65268c0.0546,0.8125 0,1.76801 0,2.5c0,0.73199 0,1.83865 0,2.82132c0,0.67868 0,1.79333 0,2.67868c0,0.79999 0,1.70001 0,2.52084c0,0.96448 0,1.68982 0,2.67917c0,0.79999 0,1.79999 0,2.58932c0,1.04401 0,1.90616 0,2.73151c0,0.96317 0,1.82648 0,2.72198c0,0.95718 0,1.85733 0,2.64252c0,0.93997 0,1.63065 0,2.668c0,0.88266 0,1.84665 0,2.74664c0,0.90134 0,1.58536 0,2.52533c0,1.00803 0,1.87018 0,2.77469c0,0.89999 0,1.78934 0,2.68533c0,0.91599 0,1.60001 0,2.53998c0,1.00803 0,1.87018 0,2.77469c0,0.89999 0,1.79999 0,2.69998l0,0.89868l0,0.854" id="svg_22" stroke-width="2" stroke="#000" fill="none"/>
  <path t="68751,68806,68814,68814,68822,68822,68831,68832,68838,68838,68848,68848,68848,68854,68854,68862,68862,68870,68870,68878,68879,68879,68886,68886,68886,68894,68894,68902,68902,68902,68910,68910,68910,68918,68918,68926,68926,68926,68926,68934,68934,68934,68942,68942,68942,68950,68950,68950,68958,68958,68958,68966,68966,68966,68974,68974,68974,68974,68982,68982,68982,68982,68990,68990,68998,68998,69006,69006,69014,69014,69015,69022,69022,69022,69031,69031,69038,69038,69038,69048,69048,69054,69054,69054,69062,69070,69070,69078,69086,69086,69094,69094,69102,69110,69110,69142,69142,69150,69150,69158,69166,69166,69174,69182,69190,69206,69222,69238,69262,69334,69342,69358,69374,69374,69390,69406,69510,69550,69646,69662,69678,69686,69686,69703" d="m379.51135,315.09091c0,1.75717 0,2.65717 0,3.40451c0,0.99414 0,1.93832 0,2.84732c0,0.7175 0,1.758 0,2.53351c0,1.048 0,1.75751 0,2.61017c0,1.00449 0,1.8045 0,2.80432c0,0.77933 0,1.77899 0,2.61002c0,0.96082 0,1.73181 0,2.59283c0,0.89716 0,1.78665 0,2.64017c0,1.03564 0,1.93631 0,2.95715c0,0.81067 0,1.45715 0,2.68399c0,0.54135 0,1.36334 0,2.63202c0,0.68399 0,1.85065 0,2.64114c0,0.56369 0,1.44418 0,2.64151c0,0.88049 0,1.44418 0,2.71866c0,0.70352 0,1.452 0,2.65067c0,0.68268 0,1.38135 0,2.69867c0,0.82352 0,1.548 0,2.5c0,0.7905 0,1.64401 0,2.83334c0,0.60132 0,1.52084 0,2.48532c0,1.03568 0,1.75833 0,2.47302c0,0.987 0,1.987 0,2.92297c0,0.95468 0,1.72 0,2.72318c0,0.6315 0,1.81683 0,2.62085c0,0.82199 0,1.85315 0,2.53867c0,0.83466 0,1.84048 0,2.69315c0,0.96417 0,1.76819 0,2.59018c0,1.03116 0,1.93182 0,2.95267c0,0.78934 0,1.51468 0,2.5c0,0.98401 0,1.67465 0,2.74734c0,0.91931 0,1.75266 0,2.73114c0,0.82019 0,1.6575 0,2.50418c0,0.948 0,1.96017 0,2.70267c0,0.93066 0,1.69867 0,2.63998c0,1.00803 0.03366,1.88297 0.42535,2.57468c0.4621,0.81604 0.57465,1.70001 0.57465,2.60001c0,0.91599 -0.01038,1.70456 0,2.60001c0.01044,0.90018 0.54321,1.6033 0.87851,2.5c0.31805,0.85065 0.12149,1.69998 0.12149,2.60001c0,0.89999 0,1.79999 0,2.68933c0,0.896 0,1.81067 0,2.71066l0,0.89999l0,0.79999l0,0.90002" id="svg_23" stroke-width="2" stroke="#000" fill="none"/>
  <path t="70654,70702,70711,70711,70718,70726,70734,70734,70742,70742,70750,70750,70750,70758,70758,70766,70766,70766,70774,70774,70774,70782,70782,70782,70790,70790,70798,70798,70798,70806,70806,70814,70814,70822,70822,70830,70830,70830,70838,70838,70846,70846,70846,70854,70854,70862,70862,70862,70870,70870,70878,70878,70886,70886,70886,70896,70896,70896,70902,70910,70918,70918,70926,70926,70926,70935,70942,70950,70950,70958,70958,70966,70974,70974,70990,70990,70998,70998,71006,71006,71006,71014,71022,71030,71038,71038,71038,71046,71046,71054,71062,71062,71070,71079,71095,71102,71102,71118,71134,71134,71150,71166,71167,71174,71198,71198,71206,71214,71238,71246,71254,71270,71286,71302,71334,71382,71422,71438,71462,71478,71495,71495" d="m368.51135,317.09091c0,1.75717 0,2.65268 0,3.51599c0,0.96317 0,1.884 0,2.68668c0,0.76801 0,1.80716 0,2.58267c0,1.048 0,1.75751 0,2.61017c0,1.00583 0,1.84048 0,2.77115c0,0.78601 0,1.608 0,2.66669c0,0.94131 0,1.61932 0,2.85065c0,0.54135 0,1.36334 0,2.63068c0,0.66449 0,1.68533 0,2.48532c0,0.80002 0,1.80002 0,2.60001c0,1 0,1.80002 0,2.80002c0,0.79999 0,1.79999 0,2.59998c0,0.80002 0,1.8045 0,2.65717c0,0.96417 -0.00006,1.76819 0,2.59018c0.00009,1.03116 -0.05963,1.94659 0.16669,2.95267c0.13785,0.61285 0.56558,1.38107 0.74799,2.39999c0.1416,0.79092 0.08533,1.80002 0.08533,2.60001c0,1 0,1.81067 0,2.68533c0,0.99734 0,1.79382 0,2.54532c0,1.09735 0,1.97067 0,2.936c0,0.85419 -0.03513,1.83459 0.01068,2.62268c0.04233,0.72794 0.65417,1.61758 0.90399,2.41199c0.29074,0.92447 0.08533,1.81952 0.08533,2.79868c0,0.77866 0,1.66666 0,2.57068c0,0.83832 0,1.82932 0,2.62933c0,1 0,1.79999 0,2.79999c0,0.78934 0,1.51468 0,2.47916c0,0.92084 0,1.82983 0,2.85419c0,0.672 0,1.41599 0,2.52365c0,0.83401 0,1.77899 0,2.62701c0,0.86331 0,1.86932 0,2.68533c0,0.8515 0,1.80914 0,2.62933c0,0.9585 0,1.854 0,2.71732c0,0.85867 0,1.80533 0,2.65866c0,0.94 0,1.82535 0,2.62534c0,0.90002 0,1.80002 0,2.70001c0,0.89999 0,1.79999 0,2.70001c0,0.89999 -0.32288,1.95416 0.22134,2.67865c0.48236,0.64212 1.27396,0.80939 1.7215,1.47852c0.46964,0.70218 0.05716,1.74283 0.05716,2.64282l0,0.79999" id="svg_24" stroke-width="2" stroke="#000" fill="none"/>
  <path t="72494,72574,72574,72582,72582,72590,72606,72616,72616,72622,72632,72632,72638,72649,72654,72654,72666,72682,72682,72686,72686,72697,72697,72702,72702,72702,72710,72710,72718,72718,72718,72727,72727,72734,72734,72743,72743,72750,72750,72760,72766,72773,72782,72782,72789,72797,72806,72806,72814,72814,72821,72829,72830,72837,72837,72846,72846,72846,72853,72862,72870,72870,72878,72878,72886,72886,72894,72894,72902,72902,72902,72910,72910,72918,72926,72934,72934,72943,72943,72950,72960,72960,72974,72974,72982,72982,72990,72990,72998,73006,73006,73014,73014,73022,73030,73046,73054,73070,73078,73078,73094,73102,73110,73126,73134,73143,73182,73182,73198,73214,73214,73222,73230,73246,73270,73286,73302,73318,73326,73342,73350,73366" d="m373.51135,315.09091c0,1.836 0,2.60132 0,3.59549c0,0.91919 0,1.86285 0,2.76617c0,0.95966 0,1.63834 0,2.75299c0,0.88535 0,1.68533 0,2.58536c0,0.82083 0,1.784 0,2.64731c0,0.89102 0,1.81934 0,2.62466c0,1.03336 0,1.77734 0,2.69467c0,0.83334 0,1.87619 0,2.59467c0,0.7905 0,1.81717 0,2.71783c0,1.02084 0,1.82083 0,2.62085c0,1 0,1.79999 0,2.79999c0,0.80002 0,1.79984 0,2.57916c0,0.99933 0,1.81952 0,2.72086c0,0.89999 0,1.82083 0,2.62131c0,0.85333 0,1.79333 0,2.77869c0,0.89999 0,1.71432 0,2.66666c0,0.71249 0,1.73334 0,2.67633c0,0.77835 0,1.75702 0,2.55701c0,1 0,1.78934 0,2.51468c0,1.07465 0,2.00616 0,2.80682c0,0.88916 -0.00006,1.87833 0,2.65765c0.00009,0.99951 0.0397,1.77936 0.35269,2.6825c0.27917,0.80554 0.55234,1.75711 0.61133,2.55301c0.05737,0.77402 0.03598,1.81467 0.03598,2.58267c0,0.90268 0,1.83865 0,2.68799c0,0.91919 0,1.91333 0,2.67868c0,0.95065 0,1.836 0,2.72134c0,0.95065 0,1.71597 0,2.71466c0,0.79999 0,1.79865 0,2.564c0,0.95065 0,1.836 0,2.72134c0,0.93997 0,1.63065 0,2.70398c0,0.88983 0,1.76785 0,2.61069c0,0.89999 0,1.79999 0,2.59998c0,0.90002 0,1.80002 0,2.70001c0,0.89999 0,1.79999 0,2.7955c0,0.87115 0,1.59116 0,2.52982c0,1.00803 0,1.87018 0,2.67468c0,0.89999 0,1.79999 0,2.70001c0,0.89999 0,1.79999 0,2.74731c0,0.75717 0,1.65268 0,2.55267l0,0.89999" id="svg_25" stroke-width="2" stroke="#000" fill="none"/>
  <path t="74574,74646,74654,74654,74654,74662,74678,74686,74686,74694,74694,74702,74710,74710,74718,74726,74734,74734,74742,74742,74750,74758,74758,74766,74774,74782,74782,74791,74798,74808,74808,74814,74814,74822,74830,74830,74838,74838,74838,74845,74854,74862,74869,74869,74877,74878,74886,74894,74902,74909,74918,74925,74933,74933,74941,74942,74942,74950,74958,74966,74974,74974,74982,74990,74998,74998,74998,75007,75014,75022,75022,75030,75030,75030,75038,75046,75054,75062,75062,75062,75070,75070,75078,75078,75094,75094,75102,75110,75110,75126,75126,75126,75134,75142,75142,75158,75158,75166,75166,75182,75182,75190,75191,75198,75214,75223,75238,75238,75254,75262,75270,75286,75294,75310,75318,75326,75326,75342,75518,75534,75622,75638,75654" d="m382.51135,315.09091c0,1.672 0,2.76801 0,3.5c0,0.73199 0,1.81732 0,2.78665c0,0.88 0,1.71335 0,2.69183c0,0.82019 0,1.6575 0,2.50552c0,0.86331 0,1.88 0,2.71732c0,0.96533 0,1.79868 0,2.77716c0,0.82019 0,1.6575 0,2.50552c0,0.86331 0,1.88 0,2.81598c0,0.80017 0,1.58536 0,2.51468c0,1.01733 0,1.89966 0,2.59433c0,0.98965 0,1.93384 0,2.83835c0,0.91931 -0.06119,1.78928 0.16669,2.75266c0.19119,0.80832 0.65527,1.49069 0.79733,2.36401c0.15039,0.9245 0.03598,1.83731 0.03598,2.80264c0,0.83334 0,1.66669 0,2.52884c0,0.90451 0,1.8045 0,2.7045c0,0.89999 0,1.80002 0,2.70001c0,0.89999 0,1.71432 0,2.668c0,0.73199 0,1.46399 0,2.69034c0,0.84164 0,1.74298 0,2.70831c0,0.8125 0,1.72351 0,2.51602c0,0.85999 0,1.81732 0,2.54932c0,1.09601 0,1.96933 0,2.93466c0,0.66934 0,1.83334 0,2.62268c0,0.72534 0,1.68982 0,2.61066c0,0.909 0,1.93335 0,2.60535c0,0.74399 0,1.85184 0,2.74283c0,0.89999 0,1.6825 0,2.69467c0,0.74249 0,1.8045 0,2.72382c0,0.66934 0,1.83334 0,2.62268c0,0.72534 0,1.71066 0,2.69333c0,0.8075 0,1.73917 0,2.48932c0,1.03336 0,1.77734 0,2.88519c0,0.75748 0,1.62683 0,2.49014c0,1.01669 0,1.85269 0,2.75269c0,0.89999 0,1.69998 0,2.60001c0,0.89999 0,1.79999 0,2.69998c0,0.89999 0,1.80002 0,2.70001c0,0.89999 0,1.69998 0,2.61465c0,0.896 0,1.78534 0,2.68533l0,0.89999l0,0.90002" id="svg_26" stroke-width="2" stroke="#000" fill="none"/>
  <path t="77055,77182,77190,77206,77214,77222,77222,77230,77238,77246,77246,77255,77262,77272,77286,77286,77295,77295,77302,77302,77311,77318,77318,77326,77334,77343,77343,77359,77359,77366,77366,77374,77382,77390,77398,77398,77406,77414,77422,77422,77430,77438,77446,77446,77455,77462,77462,77472,77478,77488,77488,77494,77502,77502,77510,77510,77522,77522,77527,77534,77542,77550,77550,77559,77566,77566,77574,77574,77582,77598,77598,77606,77606,77614,77615,77622,77630,77630,77638,77638,77646,77655,77662,77663,77671,77671,77678,77687,77687,77694,77702,77710,77718,77719,77726,77734,77750,77750,77759,77759,77767,77767,77776,77792,77798,77808,77815,77825,77830,77830,77842,77855,77855,77862,77872,77879,77888,77888,77902,77902,77910,77918,77918,77926,77942,77950,77958,77974,77990,78007,78007,78014,78022,78038,78046,78054,78054,78063,78078,78088,78095,78104,78105,78111,78119,78126,78134,78134,78142,78166,78166,78175,78182,78182,78191,78198,78208,78214,78230,78230,78246,78246,78262,78270,78270,78287,78295,78295,78304,78304,78310,78318,78334,78342,78350,78366,78382,78382,78398,78398,78398,78414,78430,78441,78446,78458,78462,78462,78470,78479,78487,78495,78510,78527,78534,78542,78542,78550,78558,78566,78574,78582,78598,78614,78630,78641,78657,78662,78674,78686,78695,78711,78750,78814,78814,78830" d="m366.51135,118.09091c0,1.8 0,2.64283 0,3.52084c0,0.88983 0,1.8005 0,2.65383c0,0.93999 0,1.92533 0,2.82533c0,0.8 0,1.7 0,2.60001c0,0.87917 0,1.84299 0,2.62132c0,0.9785 0,1.75784 0,2.75717c0,0.82016 0,1.6575 0,2.50549c0,0.86334 0,1.88 0,2.81601c0,0.80016 0,1.58533 0,2.536c0,0.76534 0,1.75951 0,2.67867c0,0.96451 0,1.88533 0,2.68668c0,0.96533 0,1.77783 0,2.73732c0,0.82301 0,1.714 0,2.57735c0,0.96317 0,1.7885 0,2.80533c0,0.67867 0,1.65717 0,2.67867c0,0.8 0,1.7 0,2.52083c0,0.96317 0,1.65384 0,2.7265c0,0.91934 0,1.75267 0,2.73134c0,0.774 0,1.674 0,2.53734c0,0.96317 0,1.88399 0,2.784c0,0.80016 0,1.58533 0,2.52533c0,1.008 0,1.8 0,2.65866c0,0.86334 0,1.86934 0,2.804c0,0.68401 0,1.71733 0,2.46133c0,1.10767 0,1.94167 0,2.7715c0,0.96451 0,1.68983 0,2.67883c0,0.92834 0,1.84851 0,2.61917c0,0.94917 0,1.68117 0,2.84784c0,0.79166 0,1.63783 0,2.65466c0,0.67867 0,1.65717 0,2.67867c0,0.83333 0,1.70984 0,2.51733c0,0.96184 0,1.78717 0,2.80417c0,0.69933 0,1.6785 0,2.46783c0,1.04399 0,1.90616 0,2.77466c0,0.87201 0,1.836 0,2.73601c0,0.89999 0,1.8 0,2.7c0,0.8 0,1.636 0,2.48399c0,0.86334 0,1.88 0,2.81601c0,0.89999 0,1.7 0,2.58533c0,0.94 0,1.63068 0,2.61467c0,0.98399 0,1.67467 0,2.74283c0,0.95717 0,1.85701 0,2.7045c0,0.75717 0,1.68867 0,2.53667c0,0.86334 0,1.88 0,2.81601c0,0.89999 0,1.8 0,2.7c0,0.8 -0.00534,1.64285 0,2.52083c0.00534,0.87921 0.50052,1.69798 0.83334,2.47917c0.32019,0.75154 0.16666,1.7 0.16666,2.60001c0,0.92082 0,1.88399 0,2.57466c0,1.06366 0,1.992 0,2.71201c0,0.93866 0,1.94666 0,2.70265c0,0.91068 0,1.81067 0,2.71066c0,0.90134 0,1.86667 0,2.70001c0,0.83334 0,1.6955 0,2.63599c0,0.84802 0,1.71133 0,2.61136c0,0.91931 0,1.75266 0,2.73114c0,0.82019 0,1.72153 0,2.66434c0,0.87802 0,1.75717 0,2.65717c0,0.90134 0,1.86667 0,2.53601c0,1.164 0,1.95334 0,2.67868c0,0.96448 0,1.88531 0,2.78531c0,0.90002 0,1.80002 0,2.70001c0,0.79999 0,1.70001 0,2.60001c0,0.89999 0,1.79999 0,2.69998c0,0.90002 0,1.80002 0,2.70001c0,0.79999 0,1.70001 0,2.60001c0,0.89999 0,1.79999 0,2.69998c0,0.90002 0,1.80002 0,2.70001c0,0.91599 0,1.7045 0,2.60001c0,0.89999 0,1.79999 0,2.69998c0,0.90002 0,1.80002 0,2.70001l0,0.79999l0,0.90002" id="svg_27" stroke-width="2" stroke="#000" fill="none"/>
  <path t="79943,80070,80079,80086,80086,80094,80094,80094,80102,80102,80102,80110,80110,80123,80126,80127,80137,80137,80137,80142,80142,80142,80152,80152,80158,80158,80166,80166,80175,80183,80183,80183,80190,80190,80198,80198,80207,80207,80214,80214,80214,80223,80223,80223,80230,80230,80240,80246,80246,80256,80256,80262,80262,80271,80271,80271,80271,80278,80286,80286,80294,80294,80302,80302,80302,80310,80310,80310,80318,80318,80326,80326,80326,80335,80335,80342,80352,80352,80352,80358,80358,80366,80374,80374,80382,80382,80390,80390,80398,80398,80406,80414,80414,80422,80430,80438,80438,80446,80446,80446,80454,80463,80478,80486,80486,80494,80494,80502,80510,80518,80518,80518,80526,80535,80535,80542,80551,80551,80551,80558,80568,80568,80568,80574,80574,80574,80582,80590,80590,80598,80606,80606,80614,80614,80622,80622,80622,80630,80639,80646,80646,80655,80656,80656,80662,80662,80672,80678,80689,80694,80694,80705,80722,80722,80726,80726,80734,80742,80743,80751,80759,80768,80768,80774,80782,80782,80790,80798,80798,80814,80822,80830,80838,80855,80855,80855,80862,80862,80871,80878,80888,80905,80910,80910,80922,80926,80926,80942,80958,80959,80967,80974,80984,81006,81014,81014,81022,81030,81046,81062,81062,81072,81086,81086,81094,81105,81110,81126,81138,81142,81206,81214,81230,81230,81246,81270,81318,81342,81351,81470" d="m370.51135,118.09091c0,2.58933 0,3.52084 0,4.3215c0,0.88916 0,1.87866 0,2.69933c0,0.6645 0,1.66316 0,2.47916c0,0.81599 0,2.03833 0,2.83833c0,0.909 0,1.82834 0,2.6825c0,0.97917 0,1.78984 0,2.43634c0,1.22684 0,2.04283 0,2.85883c0,0.99734 0,1.83734 0,2.8c0,0.76801 0,1.70934 0,2.40001c0,1.00482 0,2.02682 0,2.74533c0,0.7905 0,1.817 0,2.69699c0,1.02034 0,1.79434 0,2.70334c0,0.8 0,1.75966 0,2.56366c0,0.82201 0,1.85333 0,2.77467c0,0.68401 0,1.68134 0,2.70267c0,0.93317 0,1.86667 0,2.64917c0,0.89999 0,1.61749 0,2.66249c0,0.80701 0,1.98567 0,2.58301c0,0.86099 0,1.632 0,2.73067c0,0.981 0,1.64267 0,2.68182c0,0.77551 0,1.8235 0,2.76483c0,0.67801 0,1.64667 0,2.45067c0,0.82201 0,1.85318 0,2.75385c0,1.02083 0,1.82083 0,2.62083c0,0.9955 0,1.74283 0,2.78532c0,0.948 0,1.62 0,2.60933c0,1.03467 0,1.80267 0,2.64134c0,1.02116 0,1.76849 0,2.76399c0,0.8 0,1.79984 0,2.57918c0,0.99933 0,1.81949 0,2.65683c0,1.01666 0,1.71133 0,2.728c0,0.94051 -0.05264,1.80559 0.02084,2.65683c0.08514,0.9863 0.44656,1.75304 0.69516,2.49384c0.31805,0.94783 0.284,1.87466 0.284,2.772c0,0.88 0,1.71333 0,2.69183c0,0.717 0,1.62151 0,2.56317c0,1.00099 0,1.709 0,2.45299c0,1.19101 0,2.00534 0,2.80534c0,0.87199 0,1.968 0,2.7c0,0.73199 0,1.84933 0,2.83333c0,0.6765 0,1.45201 0,2.5c0,0.92 0,1.68001 0,2.66667c0,0.98399 0,1.67467 0,2.74283c0,0.8575 0,1.72784 0,2.5265c0,1.01601 0,2.064 0,2.769c0,0.8 0,1.82567 0,2.66301c0,0.96533 0,1.81949 0,2.79866c0,0.8 0,1.60001 0,2.5955c0,0.74733 0,1.76849 0,2.60449c0,0.90001 0,1.8 0,2.60001c0,0.95717 0,1.85716 0,2.60449c0,0.99416 0,1.93834 0,2.84285c0,0.91931 0,1.73181 0,2.69131c0,0.823 0,1.71402 0,2.57733c0,0.85867 0,1.80533 0,2.65866c0,0.94 0,1.82535 0,2.62534c0,0.90002 0,1.80002 0,2.70001c0,0.92133 0,1.83334 0,2.75067c0,0.74399 0,1.77866 0,2.54666c0,0.90268 0,1.80267 0,2.70267c0,0.91068 0,1.82132 0,2.67465c0,0.94 0,1.82535 0,2.62534c0,0.95718 0,1.85269 0,2.716c0,0.96317 0,1.784 0,2.77951c0,0.87115 0,1.7045 0,2.50449c0,0.90002 0,1.80002 0,2.72086c0,0.96317 0,1.65381 0,2.7265c0,0.91931 0,1.73181 0,2.69131c0,0.76584 0,1.66135 0,2.56134c0,0.89999 0,1.79999 0,2.70001c0,0.89999 0,1.79999 0,2.59998c0,0.90002 0,1.84283 0,2.72086l0,0.87915l0,0.89999l0,0.90002" id="svg_28" stroke-width="2" stroke="#000" fill="none"/>
  <path t="82838,82926,82937,82953,82958,82969,82986,82986,82990,82998,82998,83007,83007,83015,83022,83031,83038,83046,83046,83054,83062,83062,83070,83078,83078,83086,83094,83094,83102,83110,83118,83126,83134,83134,83142,83142,83142,83150,83158,83166,83166,83174,83174,83182,83182,83190,83190,83198,83198,83206,83206,83215,83222,83231,83231,83246,83246,83254,83254,83262,83262,83270,83278,83294,83302,83302,83310,83318,83326,83326,83334,83334,83342,83350,83350,83358,83358,83358,83366,83366,83374,83374,83382,83382,83390,83398,83398,83406,83414,83414,83422,83422,83431,83431,83438,83448,83448,83454,83454,83454,83462,83470,83478,83478,83486,83486,83494,83502,83502,83502,83510,83510,83510,83518,83519,83526,83526,83534,83535,83542,83550,83550,83550,83558,83558,83566,83566,83574,83582,83582,83590,83590,83590,83598,83606,83606,83614,83622,83622,83631,83631,83639,83648,83654,83662,83670,83670,83678,83686,83686,83702,83702,83710,83719,83726,83734,83742,83742,83752,83752,83758,83769,83774,83774,83790,83806,83806,83806,83814,83814,83822,83831,83838,83847,83847,83854,83864,83878,83878,83886,83886,83894,83904,83910,83910,83919,83919,83942,83942,83952,83968,83968,83974,83985,83985,83990,84006,84006,84022,84030,84038,84054,84055,84063,84070,84078,84094,84102,84126,84142,84158,84158,84174,84184,84190,84206,84238,84246,84246,84270" d="m372.51135,115.09091c0,1.8 0,2.7 0,3.6c0,0.9 0,1.78934 0,2.73334c0,0.6875 0,1.64516 0,2.66666c0,0.75716 0,1.65266 0,2.516c0,0.96317 -0.00009,1.884 0,2.784c0.00009,0.8 0.24551,1.65196 0.64734,2.39999c0.41898,0.77997 0.35266,1.784 0.35266,2.47467c0,1.06816 0,1.92549 0,2.71066c0,0.94 0,1.948 0,2.70399c0,0.91068 0,1.81067 0,2.71068c0,0.90134 -0.03922,1.86844 0.01068,2.536c0.08752,1.17114 0.37018,1.74901 0.63666,2.50684c0.35468,1.00861 0.35266,1.96167 0.35266,2.82384c0,0.83333 0,1.812 0,2.586c0,0.9045 0,1.65182 0,2.64732c0,0.8 0,1.8 0,2.60001c0,1 0,1.95833 0,2.89017c0,0.7565 0,1.767 0,2.51433c0,0.9955 0,1.7955 0,2.79533c0,0.77934 0,1.77867 0,2.59883c0,0.90134 0,1.76534 0,2.64801c0,0.87466 0,1.728 0,2.668c0,0.98534 0,1.88533 0,2.6425c0,0.89549 0,1.75883 0,2.74283c0,0.8215 0,1.71066 0,2.70016c0,0.82066 0,1.48517 0,2.4825c0,0.79651 0,1.98401 0,2.79651c0,0.84216 0,1.6955 0,2.6355c0,0.98549 0,1.77066 0,2.71066c0,1.008 0,1.8 0,2.66c0,0.72533 0,1.71449 0,2.67867c0,0.95067 0,1.836 0,2.65033c0,0.95367 0,1.68567 0,2.41766c0,1.09601 0,2.07251 0,2.93468c0,0.85416 -0.00006,1.83333 0,2.612c0.00009,0.97882 0.22998,1.88295 0.42535,2.51866c0.2323,0.75591 0.49023,1.77803 0.55383,2.70267c0.04697,0.68268 0.02081,1.68266 0.02081,2.47917c0,1.1875 0,2 0,2.84216c0,0.85333 0,1.79466 0,2.84534c0,0.66933 0,1.43466 0,2.43333c0,0.79999 0,1.79866 0,2.74283c0,0.9045 0,1.82384 0,2.67799c0,0.97917 0,1.76851 0,2.49384c0,0.98534 0,1.96933 0,2.83267c0,0.89999 0,1.81934 0,2.65266c0,0.9785 0,1.79866 0,2.7c0,0.90001 0,1.8 0,2.71066c0,0.91068 0,1.58934 0,2.70401c0,0.88533 0,1.6425 0,2.53799c0,0.86334 0,1.82651 0,2.74733c0,0.90001 0,1.80135 0,2.76668c0,0.65866 0,1.66666 0,2.52882c0,0.90451 0,1.82535 0,2.62567c0,0.8175 0,1.90051 0,2.84549c0,0.66934 0,1.43466 0,2.42883c0,0.91919 0,1.88367 0,2.8045c0,0.90451 0,1.76666 0,2.57916c0,0.9595 0,1.7825 0,2.67801c0,0.74734 0,1.74149 0,2.68567c0,0.89999 0,1.85849 0,2.82382c0,0.65866 0,1.66669 0,2.54666c0,0.85602 0,1.63852 0,2.66135c0,0.94666 0,1.62534 0,2.73999c0,0.88535 0,1.68533 0,2.52133c0,1.01218 0,1.79468 0,2.72119c0,0.94281 0.15353,1.8913 -0.16666,2.64282c-0.33282,0.78119 -0.82291,1.49982 -0.83334,2.39999c-0.01041,0.89993 0,1.80002 0,2.70001c0,0.89999 0,1.81732 0,2.60983c0,0.8075 0,1.87949 0,2.69016c0,0.89999 0,1.80002 0,2.70001l0,0.89999l0,0.79999l0,0.90002" id="svg_29" stroke-width="2" stroke="#000" fill="none"/>
  <path t="85238,85270,85278,85286,85296,85310,85318,85318,85326,85334,85334,85342,85350,85358,85366,85374,85382,85390,85390,85398,85406,85406,85414,85414,85414,85422,85422,85430,85438,85438,85446,85446,85446,85454,85454,85454,85462,85462,85470,85478,85479,85486,85486,85495,85495,85495,85502,85510,85518,85518,85518,85526,85526,85534,85534,85542,85550,85550,85558,85558,85566,85566,85574,85582,85582,85590,85590,85590,85598,85606,85606,85616,85616,85622,85622,85633,85638,85638,85650,85650,85650,85654,85654,85666,85666,85678,85695,85695,85703,85703,85703,85711,85719,85726,85742,85742,85750,85750,85758,85766,85774,85774,85790,85806,85806,85816,85816,85830,85850,85850,85866,85870,85882,85894,85895,85902,85912,85912,85918,85934,85942,85950,85958,85974,85974,85982,85983,85990,86006,86016,86038,86054,86086,86086,86102,86134,86150,86158,86174,86182,86190,86206,86216,86222,86233,86248,86254,86266,86266,86283,86286,86334,86366" d="m379.51135,175.09091c-0.57465,1.60001 -0.98199,2.39946 -1,3.3c-0.01797,0.89848 0,1.86667 0,2.7c0,0.8 0,1.75717 0,2.65266c0,0.86334 0,1.82651 0,2.64734c0,0.89999 0,1.8 0,2.7c0,0.91733 0,1.70984 0,2.51733c0,0.98267 0,1.96933 0,2.72932c0,0.92001 0,1.70601 0,2.528c0,1.05867 0,1.968 0,2.89201c0,0.90533 0,1.59067 0,2.75465c0,0.804 0,1.62601 0,2.65718c0,0.68549 0,1.52016 0,2.517c0,0.91916 0,1.77916 0,2.726c0,0.88916 0,1.87849 0,2.6785c0,1 0,1.78934 0,2.51466c0,0.96451 0,1.90666 0,2.81866c0,0.91734 0,1.66133 0,2.69734c0,0.85199 0,1.79466 0,2.48534c0,0.98399 0,1.96933 0,2.69466c0,0.98917 0,1.76851 0,2.76784c0,0.82016 0,1.77867 0,2.68317c0,0.8 0,1.75951 0,2.55299c0,0.77551 0,1.97101 0,2.78534c0,0.88533 0,1.65717 0,2.60133c0,0.99417 0,1.7415 0,2.77333c0,0.94684 0,1.64616 0,2.62534c0,0.8 0,1.60001 0,2.60001c0,0.79999 0,1.79733 0,2.68565c0,0.936 0,1.88101 0,2.73517c0,0.97917 0,1.76851 0,2.49384c0,0.96449 0,1.88533 0,2.78984c0,1.01682 0,1.6955 0,2.67398c0,0.82019 0,1.72153 0,2.6575c0,0.84802 0,1.71133 0,2.73868c0,0.94666 0,1.62534 0,2.60382c0,0.82019 0,1.85486 0,2.73135c0,0.8075 0,1.76932 0,2.59015c0,0.90002 0,1.80017 0,2.58536c0,0.93997 0,1.948 0,2.70398c0,0.97467 0,1.84668 0,2.71066c0,0.90002 0,1.80002 0,2.70001c0,0.88535 0,1.82532 0,2.51599c0,0.96317 0,1.884 0,2.77951c0,0.98984 0,1.8045 0,2.7045c0,0.79999 0,1.70001 0,2.60001c0,0.89999 0,1.79999 0,2.69998c0,0.90002 0.31732,1.86917 -0.03598,2.72534c-0.30344,0.73532 -0.94601,1.37411 -0.96402,2.27466c-0.01801,0.89984 0,1.80002 0,2.70001c0,0.79999 0,1.70001 0,2.60001l0,0.89999l0,0.97916" id="svg_30" stroke-width="2" stroke="#000" fill="none"/>
  <path t="88022,88126,88142,88150,88159,88175,88182,88182,88190,88190,88198,88206,88214,88221,88238,88238,88246,88246,88254,88254,88262,88270,88278,88294,88302,88310,88310,88318,88326,88334,88342,88350,88366,88382,88390,88390,88398,88406,88406,88422,88438,88454,88454,88462,88462,88478,88486,88486,88494,88502,88510,88518,88528,88528,88534,88542,88550,88566,88582,88582,88591,88598,88598,88606,88622,88638,88638,88678,88678,88694" d="m361.51135,120.09091c0,1.61066 0,2.5 0,3.4c0,0.89999 0,1.80133 0,2.76666c0,0.83334 0,1.66667 0,2.52883c0,0.90451 0,1.8045 0,2.7045c0,0.90451 0,1.92134 0,2.60001c0,0.97867 0,1.75267 0,2.65266c0,0.86334 0,1.82651 0,2.74733c0,0.89551 0,1.8215 0,2.70001c0,0.89999 0,1.7 0,2.59999c0,0.90001 0,1.8 0,2.7c0,0.90001 0,1.8 0,2.70001c0,0.89999 0,1.7 0,2.65717c0,0.89549 0,1.75883 0,2.60683c0,0.94051 0,1.95734 0,2.636c0,0.9785 0,1.79866 0,2.83333c0,0.87651 0,1.68401 0,2.53067c0,0.936 0,1.836 0,2.73601c0,0.89999 0,1.7 0,2.59999c0,0.90001 0,1.864 0,2.74667c0,0.87466 0,1.728 0,2.668c0,0.88533 0,1.68533 0,2.58533c0,0.936 0,1.78267 0,2.59016l0,1.04317l0,0.85201l0,0.92934" id="svg_31" stroke-width="2" stroke="#000" fill="none"/>
  <path t="91454,91646,91653,91678,91701,91749,91765,91805,91805,91997,92021,92045,92053,92070,92205,92221,92253,92285,92309,92325,92366,92397,92397,92406,92453" d="m354.51135,78.09091c-1.61066,0 -2.5,0 -3.39999,0c-0.89999,0 -1.79999,0 -2.69998,0c-0.90002,0 -1.90079,-0.49281 -2.61469,0.08533c-0.7446,0.603 -0.28534,1.748 -0.28534,2.61916c0,0.8955 -0.1185,2.00826 0.61069,2.28484c0.83157,0.31542 1.78934,0.01067 2.68933,0.01067c0.89999,0 1.79999,0 2.69998,0l0.80002,0l0.91467,0l0.3425,-0.64733" id="svg_32" stroke-width="2" stroke="#000" fill="none"/>
  <path t="92966,93101,93149,93181,93285,93294,93533,93557,93677,93861,93877,93885,93902,93909,93925,93957,93973,94158,94182,94190,94214,94223,94230" d="m354.51135,86.09091c-1.61066,0 -2.5,0 -3.39999,0c-0.89999,0 -1.8811,-0.13734 -2.54733,0.35267c-0.6842,0.50323 -1.48981,0.39654 -2.34814,0.65183c-0.76266,0.22684 -0.90259,1.31789 -0.70319,2.19417c0.18304,0.8043 1.28433,0.65788 1.94601,1.154c0.6684,0.50114 1.48865,0.64733 2.35266,0.64733c0.89999,0 1.79999,0 2.69998,0l0.87851,0" id="svg_33" stroke-width="2" stroke="#000" fill="none"/>
  <path t="94695,94782,94790,94918,94942,95022,95046,95086,95286,95294,95302,95318,95318,95334,95358,95510,95526,95526,95542,95551,95568,95606,95678" d="m354.51135,94.09091c-1.69998,0 -2.59998,0 -3.5,0c-0.89999,0 -1.79999,0 -2.69998,0c-0.89999,0 -2.14737,-0.3894 -2.6785,0.2215c-0.58188,0.66929 -0.12152,1.7785 -0.12152,2.5785c0,0.9 -0.38474,1.9092 0.04169,2.67917c0.39401,0.71146 1.47565,0.52016 2.4375,0.52084c0.92084,0.00064 1.82083,0 2.72083,0l0.89999,0" id="svg_34" stroke-width="2" stroke="#000" fill="none"/>
  <path t="96654,96790,96799,96822,96846,97110,97126,97142,97142,97150,97166,97166,97174,97198,97334,97358,97366,97382,97399,97470,97486" d="m381.51135,77.09091c1.61069,0 2.5,0 3.40002,0c0.89999,0 2.08304,-0.32552 2.54282,0.36166c0.53452,0.79887 0.05716,1.777 0.05716,2.6865c0,0.95184 0,1.75183 0,2.65183c0,0.9 0.11853,2.01276 -0.61066,2.28934c-0.8316,0.31543 -1.77866,0 -2.38934,-0.48933l-0.61066,-0.48933l-0.95334,-0.01067" id="svg_35" stroke-width="2" stroke="#000" fill="none"/>
  <path t="97870,98030,98086,98190,98206,98222,98222,98238,98248,98270,98463,98478,98510,98550,98550,98558" d="m382.51135,88.09091c1.70001,0 2.80597,-0.38013 3.56403,0.036c0.65237,0.35812 0.43597,1.61217 0.43597,2.39467c0,0.9265 0.00009,1.86933 0,2.76933c-0.00009,0.89983 -0.2215,1.6785 -1.09998,1.8l-0.90002,0l-0.79999,0l-0.91467,0" id="svg_36" stroke-width="2" stroke="#000" fill="none"/>
  <path t="99278,99454,99454,99494,99542,99566,99598,99614,99622,99686,99846,99870,99879,99902,99990" d="m382.51135,96.09091c1,0 1.97955,-0.46556 2.71469,0.08533c0.61639,0.46191 0.28531,1.61466 0.28531,2.51466c0,0.9 0.00211,1.87917 0,2.75716c-0.00226,0.93835 -0.35715,1.58567 -1.29999,1.64284l-0.89865,0l-0.88535,0" id="svg_37" stroke-width="2" stroke="#000" fill="none"/>
  <path t="100662,100790,100806,101182,101191,101206,101230,101246,101254,101266,101279,101279,101300,101300,101311,101311,101329,101342,101359,101374,101398,101398,101422,101470,101502,101519,101654,101742,101806,101870,101894,101910,101910,101926,101934,101950" d="m377.51135,78.09091c-1.69998,-0.9955 -2.72562,-1.44122 -3.564,-0.964c-0.6915,0.3936 -0.436,1.564 -0.436,2.464c0,0.9 0,1.8 0,2.7c0,0.90017 0,1.68533 0,2.636c0,0.76534 0,1.7595 0,2.50684c0,1.02116 0,1.95716 0,2.85583c0,0.854 0,1.80133 0,2.60133c0,0.9 0,1.8 0,2.7c0,0.9 -0.00009,1.8 0,2.7c0.00009,0.89983 0.21527,1.73911 1.10001,1.8c0.89786,0.0618 1.70001,0 2.60001,0l0.89999,0l0.89999,0" id="svg_38" stroke-width="2" stroke="#000" fill="none"/>
  <path t="102830,102926,102934,102966,103038,103182,103190,103199,103214,103222,103230,103238,103238,103246,103246,103254,103262,103262,103270,103278,103286,103286,103294,103310,103318,103350,103566,103582,103686,103726,103758,103782,103782,103830,103862,103870,103910" d="m357.51135,77.09091c1.70001,0 2.70001,0 3.60001,0c0.89999,0 2.04651,-0.18452 2.37918,0.52084c0.37512,0.79539 0.02081,1.77916 0.02081,2.67916c0,0.9 0,1.8 0,2.55717c0,0.8955 0,1.75883 0,2.74284c0,0.82133 0,1.67467 0,2.61466c0,0.98534 0,1.88534 0,2.68533c0,0.9 0,1.8 0,2.7c0,0.9 0,1.8 0,2.7c0,0.9 0.43427,2.03241 -0.16666,2.63334c-0.60092,0.60094 -1.63333,0.16666 -2.53333,0.16666l-0.89999,0l-0.90002,0l-0.89999,0" id="svg_39" stroke-width="2" stroke="#000" fill="none"/>
  <path t="105270,105366,105377,105382,105382,105395,105398,105406,105414,105414,105422,105430,105439,105439,105446,105454,105454,105462" d="m373.51135,101.09091c0,0.88667 0,1.82533 0,2.83334c0,0.756 0,1.66666 0,2.56667c0,0.9045 0,1.76666 0,2.6c0,0.97833 0,1.91734 0,2.70983c0,0.8075 0,1.79017 0,2.77417l0,0.69067l0,1.06817" id="svg_40" stroke-width="2" stroke="#000" fill="none"/>
  <path t="106038,106117,106126,106126,106133,106143,106143,106150,106150,106158,106166,106166,106174,106190,106190" d="m372.51135,101.09091c0,1.75716 0,2.65266 0,3.516c0,0.85867 0,1.80534 0,2.65867c0,0.94133 0,1.70934 0,2.65067c0,1.008 0,1.87016 0,2.6955l0,0.96317l0,0.69067" id="svg_41" stroke-width="2" stroke="#000" fill="none"/>
  <path t="106702,106765,106774,106774,106782,106782,106790,106790,106806,106814,106862,106878,106894" d="m364.51135,101.09091c0,1.82533 0,2.83334 0,3.62534c0,1.03183 0,1.77916 0,2.77333c0,0.76534 0,1.716 0,2.70116l0,0.87483l0,0.82667l0,0.89867" id="svg_42" stroke-width="2" stroke="#000" fill="none"/>
  <path t="107350,107405,107405,107414,107422,107430,107430,107438,107446,107446,107462,107470,107478,107494,107510,107533,107534" d="m359.51135,101.09091c0,2.78933 0,3.51466 0,4.47916c0,0.9315 0,1.84217 0,2.6955c0,0.93999 -0.02539,1.82574 0,2.62533c0.02859,0.90136 0.68619,1.62237 0.94284,2.5c0.25311,0.86556 0.05716,1.8 0.05716,2.7l0,0.8" id="svg_43" stroke-width="2" stroke="#000" fill="none"/>
  <path t="107942,108013,108021,108022,108030,108030,108038,108038,108038,108046,108054,108054,108062,108062,108062,108078,108078,108086" d="m360.51135,102.09091c1.47919,1.52084 1.92902,2.31666 1.98935,3.21066c0.06662,0.98714 0.01065,1.78934 0.01065,2.78934c0,0.78933 0,1.51466 0,2.5c0,0.98666 0,1.74667 0,2.66666c0,0.7815 0,1.8235 0.00018,2.69034l0.08517,0.94033l0.41464,0.70267" id="svg_44" stroke-width="2" stroke="#000" fill="none"/>
  <path t="111526,111599,111607,111639,111648,111655,111678,111687,111703,111727,111759,111775,111791,111807,111817,111855,111863,111887,111919,111943,111943,111951,111990,112039,112071,112079,112111,112150,112199,112207,112223,112232,112263,112311,112327,112351,112359,112399,112471" d="m386.51135,270.09091c1.22134,0.87851 2.36771,0.59814 2.91467,1.28534c0.51001,0.64078 0.42215,1.56589 1.06,2.13998c0.57874,0.52087 1.01947,1.20193 1.45068,1.97467c0.45697,0.81891 0.57465,1.69983 0.57465,2.57468c0,0.82666 0.21576,1.57361 0.83334,2.19199c0.6171,0.61792 1.16666,1.05484 1.16666,1.93335c0,0.89999 0.10608,1.68811 0.5,2.39999c0.49023,0.88599 0.33298,1.81589 0.50134,2.69867c0.14444,0.75735 0.98001,1.23679 0.99866,2.10132c0.01938,0.89847 0.36215,1.63644 1,2.20001c0.5835,0.51553 0.8808,1.33911 1.52084,1.97916c0.64005,0.64005 1.44318,0.95685 1.48367,1.81635l0.43149,0.66849l0.8595,0.03601" id="svg_45" stroke-width="2" stroke="#000" fill="none"/>
  <path t="120279,120430,120439,120456,120479,120486,120510,120518,120542,120550,120566,120574,120606,120670,120726,120750,120766,120766,120774,120782,120806,120830,120846,120846,120855,120874,120874,120887,120887,120902,120918,120930,120930,120947,120962,120966,120967,120978,120982,120996,121012,121013,121015,121022,121039,121039,121047,121070,121080,121095,121095,121110,121110,121110,121118,121134,121146,121150,121160,121180,121182,121182,121196,121210,121214,121224,121231,121247,121247,121255,121279,121287,121298,121303,121303,121312,121326,121342,121343,121358,121366,121382,121390,121398,121406,121414,121414,121422,121430,121438,121438,121447,121447,121455,121455,121462,121463,121471,121472,121478,121488,121488,121494,121502,121511,121527,121534,121542,121550,121566,121574,121582,121593,121606,121614,121614,121630,121643,121647,121647,121655,121670,121678,121694,121710,121710,121726,121726,121734,121742,121742,121750,121750,121766,121774,121790,121806,121806,121814,121822,121822,121830,121846,121862,121862,121902,121902,121926,121926,121950,121950,121966,121990,121990,121998,122006,122022,122038,122046,122054,122070,122070,122087,122087,122094,122104,122126,122134,122134,122142,122150,122166,122174,122190,122222,122222,122230,122230,122254,122262,122262,122286,122294,122310,122318,122327,122350,122358,122366,122390,122398,122422,122438,122438,122454,122478,122487,122504,122510,122534,122534,122550,122550,122558,122598,122598,122614,122638,122686,122694,122704,122720,122727,122734" d="m411.51135,294.09091c1.436,-1.42532 2.2973,-1.76712 2.91602,-2.284c0.65695,-0.54883 1.384,-0.71591 2.284,-0.716c0.89984,-0.00009 1.62714,-0.35193 2.15268,-0.94733c0.56323,-0.63812 1.25793,-1.04733 2.14731,-1.05267c0.88931,-0.00531 1.79199,-0.1087 2.70001,0.00134c0.91977,0.11148 1.61819,0.44678 2.36401,1.02399c0.62555,0.48413 1.09714,1.27701 1.72131,1.892c0.58905,0.58038 1.08783,1.2034 1.81451,1.83984c0.68219,0.59747 0.92493,1.15387 1.33615,2.06815c0.3205,0.71259 1.13086,1.44772 1.4425,2.27469c0.32025,0.84982 0.23508,1.68262 0.69617,2.46399c0.4585,0.77698 0.8114,1.57437 1.14133,2.23599c0.42056,0.84338 0.35052,1.72864 0.98853,2.30984c0.62256,0.56714 0.98636,1.41519 1.27014,2.25418c0.28561,0.84439 0.94028,1.62338 1.02402,2.43597c0.0864,0.83841 -0.00797,1.73517 0.42667,2.61069c0.38196,0.76947 0.56424,1.61002 0.57465,2.58932c0.00839,0.78931 0,1.51468 0,2.58932c0,0.91068 -0.0314,1.81122 0,2.70618c0.02863,0.81583 0.52136,1.53088 0.83334,2.53784c0.22845,0.73734 0.16666,1.66666 0.16666,2.56665c0,0.89999 0,1.80002 0,2.70001c0,0.89999 -0.24078,1.73224 0,2.61465c0.22046,0.80786 0.87506,1.48999 1.00018,2.38535c0.12665,0.90646 0.76114,1.43762 0.979,2.39999c0.20111,0.88843 0.02081,1.82132 0.02081,2.5c0,1.11465 -0.02731,2.00046 0,2.83334c0.02863,0.87256 0.62094,1.4762 0.91467,2.36798c0.30316,0.92044 -0.2298,1.83478 0.09601,2.73734c0.26367,0.73044 0.86624,1.55267 1.01468,2.23599c0.20737,0.95468 0.74075,1.57367 1.45731,2.30936c0.49963,0.51297 1.31119,1.30716 1.47568,2.01599c0.22266,0.95944 -0.00916,1.89053 0.39435,2.74283c0.38376,0.81058 0.7421,1.55087 1.14731,2.25717c0.45505,0.79312 0.35126,1.78967 0.85269,2.44733c0.51608,0.67685 1.10394,1.18317 1.73132,1.76868c0.68851,0.64255 1.4848,0.96066 1.88,1.72c0.39716,0.76309 -0.14655,1.85315 0.25751,2.664c0.34354,0.68939 1.18747,1.28665 1.65732,1.99982c0.47473,0.72058 1.56149,0.60327 2.04916,1.33618c0.47803,0.71838 0.58154,1.4035 1.37201,1.92117c0.79504,0.52069 1.3176,1.10849 1.57849,1.96414c0.25098,0.82309 0.12149,1.79468 0.12149,2.84534c0,0.65866 0,1.66669 0,2.52884c0,0.90451 0,1.8045 0,2.71518c0,0.91064 0,1.58932 0,2.70398c0,0.88535 0,1.68533 0,2.58536c0,0.82083 0,1.78265 0,2.59015c0,1.04318 0,1.73068 0,2.82584c0,0.76801 0,1.70932 0,2.39999c0,0.98401 0,1.96802 0,2.83133c0,0.89551 0.11145,1.85864 0,2.70535c-0.1116,0.84781 -0.87131,1.31253 -1.00131,2.14734c-0.14261,0.91559 -0.76187,1.52692 -0.9415,2.45267c-0.16479,0.84927 -0.13278,1.7569 -0.63184,2.37265c-0.47034,0.58035 -0.16379,1.73328 -0.59601,2.40533c-0.45572,0.70859 -1.64651,0.59064 -2.26532,0.99466c-0.84201,0.54974 -1.53226,0.99985 -1.56403,1.90802c-0.02405,0.68741 -0.06754,1.79196 -0.7045,2.30499c-0.69534,0.56006 -1.82971,0.55905 -2.43414,0.97232c-0.83936,0.57385 -1.53186,1.1962 -1.84052,1.91019c-0.34894,0.80719 0.2338,2.04807 -0.45682,2.44315c-0.75061,0.42941 -1.76401,0.03601 -2.664,0.03601c-0.90002,0 -1.66528,0.27344 -2.06668,1c-0.42688,0.77271 -1.07526,1.38489 -1.93317,1.87866c-0.73746,0.42444 -1.27774,0.93021 -2.10016,1.12399c-0.84259,0.19855 -1.11142,1.1965 -1.89999,1.75433c-0.60422,0.42743 -1.52219,0.38019 -2.06668,1.24301c-0.38306,0.60703 -1.36249,0.7121 -2.186,1.00449c-0.76825,0.27277 -1.22198,1.02084 -1.73132,1.71152l-0.71735,0.28265l-0.89865,0.00134l-0.936,0" id="svg_47" stroke-width="2" stroke="#000" fill="none"/>
  <path t="124038,124061,124078,124087,124096,124102,124111,124118,124142,124159,124190,124206,124206,124230,124246,124294,124302,124350,124422,124422,124510,124527,124542" d="m397.51135,292.09091c1.71469,1.08398 2.12372,1.77826 2.57468,2.60001c0.42804,0.77997 0.17215,1.9664 0.86133,2.36398c0.82675,0.47696 1.55139,0.5567 1.564,1.436c0.01291,0.8999 0.08478,1.86661 0.80136,2.31467c0.79831,0.49918 1.82385,0.27335 2.59866,0.71066c0.72614,0.40985 1.3613,0.93631 1.8215,1.6745c0.44711,0.71716 1.37848,0.8895 2.27847,0.90018l0.88934,-0.01068" id="svg_48" stroke-width="2" stroke="#000" fill="none"/>
 </g>
 <g display="none">
  <title>muse_image</title>
  <image xlink:href="http://static.flickr.com/29/46949167_6e0a232f9d.jpg" id="muse" height="480" width="616" y="0" x="12"/>
 </g>
 <g display="none">
  <title>bbox</title>
  <rect stroke="#f00" fill="none" stroke-width="3" height="344.26735" width="154" y="122.15938" x="279.344" id="bbox"/>
 </g>
</svg>
