<svg width="640" height="480" xmlns="http://www.w3.org/2000/svg" xmlns:svg="http://www.w3.org/2000/svg" xmlns:xlink="http://www.w3.org/1999/xlink">
 <!-- Sketchy ANNOTATION
  ImageNet ID: n03467517_23229
  URL: http://farm3.static.flickr.com/2022/2096646176_4df53fbac1.jpg
  Image Width: 500
  Image Height: 400
  BBox X: 11
  BBox Y: 32
  BBox Width: 124
  BBox Height: 326
  Exposure: 2000ms
  Synset Label: guitar
  Synset ID: n03467517
  Worker Tag: electric guitar
  Sanity Check: 
   Saved
  Comment: 
   {}
  Worker ID: A1VGZ2K3HF66TE
  Assignment ID: 3LKC68YZ3A3JNSNSNOYVMUH87FMOWR
  HIT ID: 3HA5ODM5KASJJBHMET56VDDAUVGSVY
  Work Time: 92s
  Worker Score: 0.7857
 END ANNOTATION -->
 <g display="inline">
  <title>Layer 1</title>
  <path t="0,167,168,168,168,168,168,200,201,201,201,201,201,201,225,225,226,226,226,226,233,233,234,242,242,243,243,243,243,243,243,244,252,252,252,252,253,253,253,253,284,284,285,285,286,334,335,335,336,336,344,346,346,347,367,368,369,369,369,369,370,370,370,385,385,385,386,386,386,386,387,387,400,400,400,401,401,401,401,401,405,417,417,417,418,418,418,418,419,419,451,452,452,452,452,453,453,453,453,492,493,493,493,493,494,494,494,494,502,503,503,503,504,504,504,504,505,539,539,540,540,540,541,541,541,542,553,553,554,554,554,555,556,556,556,566,566,567,567,568,568,568,568,569,582,583,583,584,584,585,585,586,586,618,619,619,619,620,620,620,621,621,660,661,661,663,664,664,665,665,666,671,672,673,673,673,674,678,690,690,701,702,702,703,703,704,704,704,705,723,724,724,725,725,726,726,727,727,734,735,736,736,737,737,738,738,739,751,752,752,753,753,754,754,755,759,784,785,785,786,786,787,787,788,788,799,800,801,801,802,803,803,804,805,815,817,817,818,819,820,820,821,821,839,840,841,841,842,843,843,844,845,867,868,869,869,870,871,871,872,873,886,887,888,889,890,890,891,892,894,903,904,904,905,906,908,909,909,910,917,918,919,919,920,920,921,922,923,957,958,959,960,961,961,977,978,982,988,989,990,992,993,994,995,996,996,1015,1016,1017,1018,1019,1021,1022,1023,1023,1055,1057,1058,1059,1060,1061,1061,1062,1063,1079,1080,1081,1082,1083,1084,1085,1086,1086,1100,1102,1102,1103,1104,1104,1105,1106,1107,1117,1118,1119,1120,1120,1121,1122,1123,1124,1150,1151,1152,1153,1153,1154,1155,1157,1159,1168,1169,1171,1172,1173,1174,1174,1176,1176,1187,1189,1190,1191,1192,1194,1209,1210,1212,1219,1222,1223,1223,1224,1225,1226,1227,1231,1244,1260,1266,1268,1269,1271,1273,1274,1276,1287,1289,1290,1291,1291,1292,1293,1294,1297,1307,1308,1310,1324,1329,1330,1332,1333,1334,1361,1365,1367,1368,1369,1371,1372,1373,1374,1382,1385,1386,1387,1390,1391,1392,1392,1393,1404,1408,1411,1413,1414,1416,1417,1418,1420,1438,1439,1441,1442,1443,1444,1446,1448,1449,1457,1459,1460,1461,1463,1464,1465,1466,1467,1475,1477,1479,1480,1482,1483,1484,1486,1487,1500,1501,1502,1504,1505,1506,1508,1510,1511,1519,1521,1522,1523,1524,1525,1526,1527,1528,1537,1539,1540,1541,1542,1543,1545,1546,1548,1576,1590,1593,1594,1601,1603,1606,1607,1608,1620,1622,1623,1624,1625,1626,1627,1628,1632,1647,1649,1651,1652,1654,1655,1657,1665,1667,1676,1692,1694,1701,1704,1706,1707,1709,1711,1718,1720,1722,1723,1725,1726,1728,1729,1731,1746,1749,1751,1753,1755,1757,1760,1763,1766,1772,1774,1776,1778,1781,1783,1784,1786,1788,1806,1809,1811,1813,1815,1817,1819,1821,1823,1840,1842,1843,1845,1848,1850,1852,1854,1856,1868,1871,1873,1874,1875,1877,1878,1880,1881,1890,1892,1894,1895,1897,1898,1899,1900,1902,1936,1938,1939,1941,1943,1944,1946,1949,1951" d="m159,237c-8.35667,2.41367 -9.02673,2.47342 -9.67667,2.46233c-0.63052,-0.01076 -1.83672,-0.14818 -2.39999,-0.29466c-1.6134,-0.41957 -2.09622,-0.68329 -3.03601,-1.2c-0.48747,-0.26802 -0.97745,-0.58276 -2.02133,-1.30533c-0.57915,-0.40088 -1.86536,-1.32991 -2.59416,-1.84767c-0.77649,-0.55162 -1.59158,-1.12639 -2.43451,-1.716c-0.85741,-0.59975 -1.72031,-1.19881 -2.57849,-1.78799c-0.83917,-0.57613 -2.42422,-1.64594 -3.15134,-2.12483c-0.67964,-0.44765 -1.32152,-0.86191 -1.92751,-1.2525c-0.57567,-0.37106 -1.12779,-0.72495 -1.65749,-1.07249c-0.51693,-0.33916 -1.52385,-1.02562 -2.02233,-1.38167c-0.5002,-0.35728 -0.99396,-0.72073 -1.4895,-1.07251c-0.48816,-0.34653 -0.95108,-0.71289 -1.92533,-1.26666c-0.89845,-0.51068 -1.78888,-0.86571 -2.64934,-0.964c-0.82039,-0.09372 -1.65173,0.03416 -2.436,0.32401c-0.81854,0.30251 -1.59221,0.77756 -2.328,1.29601c-0.715,0.5038 -1.67291,1.24219 -2.14417,1.78732c-0.47149,0.54543 -0.84652,1.31233 -1.02783,2.91667c-0.07794,0.68965 -0.05322,1.46584 -0.015,2.3055c0.04087,0.89792 0.12697,1.84195 0.255,2.8185c0.13163,1.00401 0.27226,2.02829 0.76,4.04268c0.2412,0.99614 0.54391,1.96593 0.876,2.91449c0.32941,0.94092 0.69716,1.86073 1.092,2.76151c0.39259,0.89566 0.80222,1.77921 1.69866,3.49066c0.44523,0.85001 0.91366,1.68211 1.386,2.505c0.46902,0.81711 0.94586,1.62088 1.422,2.41499c0.47121,0.78587 0.945,1.5578 1.85867,3.08c0.44663,0.74409 0.88206,1.47939 1.3005,2.20952c0.41219,0.71924 0.80914,1.43341 1.1835,2.14648c0.36926,0.70337 0.7354,1.39832 1.34933,2.81067c0.30244,0.69577 0.57158,1.40445 0.8145,2.12701c0.24662,0.73358 0.46689,1.49533 0.66151,2.28897c0.20216,0.8244 0.39621,1.69165 0.69067,3.58401c0.1596,1.02567 0.286,2.10199 0.405,3.21149c0.12111,1.12921 0.22429,2.2673 0.315,3.40051c0.08922,1.1145 0.17093,2.19806 0.28,4.22134c0.04945,0.91742 0.08555,1.78119 0.0915,2.60699c0.00579,0.80365 -0.0163,1.6022 -0.0795,2.409c-0.06539,0.83481 -0.15619,1.7149 -0.512,3.65067c-0.20154,1.09644 -0.46772,2.26599 -0.7665,3.50101c-0.31284,1.29312 -0.6632,2.62616 -1.0455,3.987c-0.38859,1.38324 -0.78584,2.77649 -1.688,5.51199c-0.44174,1.33945 -0.91113,2.6431 -1.3815,3.91949c-0.46172,1.25293 -0.93047,2.47656 -1.3905,3.67651c-0.45098,1.17636 -0.90694,2.32379 -1.728,4.57065c-0.39725,1.08707 -0.76522,2.15561 -1.11,3.20102c-0.33508,1.01602 -0.64491,2.00586 -0.93,2.96698c-0.27475,0.92627 -0.53485,1.81754 -0.96,3.49869c-0.19707,0.77927 -0.36744,1.5267 -0.5145,2.24698c-0.14207,0.69583 -0.26292,1.37701 -0.3615,2.04901c-0.09771,0.66608 -0.18639,1.33459 -0.29067,2.70401c-0.05401,0.7092 -0.08506,1.43854 -0.1095,2.18549c-0.02498,0.7637 -0.03838,1.54364 -0.0465,2.3385c-0.00826,0.80881 -0.01033,1.63068 -0.01067,3.30933c-0.00018,0.85468 -0.0003,1.71738 0.009,2.586c0.00935,0.87271 0.02663,1.74759 0.063,2.62201c0.03631,0.87296 0.06858,1.74445 0.26134,3.45868c0.09531,0.84763 0.23077,1.68863 0.3945,2.5275c0.16551,0.84796 0.36686,1.70416 0.60149,2.57248c0.24145,0.89352 0.50763,1.81403 1.17067,3.73334c0.35331,1.02274 0.74989,2.07281 1.1805,3.14401c0.4399,1.0943 0.91227,2.19458 1.4235,3.28799c0.51247,1.09607 1.02378,2.19229 2.22934,4.23468c0.58681,0.99414 1.22453,1.93115 1.87199,2.8335c0.63548,0.88565 1.29049,1.7323 1.944,2.5545c0.64125,0.80676 1.29073,1.58148 2.51734,3.112c0.59442,0.7417 1.16429,1.47845 1.7235,2.2005c0.54878,0.70862 1.08568,1.40628 1.6245,2.0835c0.53024,0.66641 1.04622,1.33008 2.15201,2.54932c0.5441,0.59991 1.11208,1.16681 1.68599,1.71451c0.56754,0.5416 1.14427,1.05984 1.722,1.56149c0.56967,0.49466 1.13878,0.97244 2.25867,1.89069c0.54477,0.44669 1.08479,0.88541 1.632,1.30948c0.54883,0.42532 1.11296,0.84363 1.70399,1.24652c0.60692,0.41373 1.23988,0.83838 2.664,1.61066c0.76581,0.41528 1.58884,0.80603 2.4525,1.18649c0.88965,0.39191 1.81429,0.76205 2.7675,1.1055c0.96519,0.34775 1.94241,0.69278 3.94667,1.20801c0.99449,0.25565 1.99406,0.45361 2.9865,0.62399c0.97971,0.16818 1.95007,0.30066 2.9055,0.40802c0.93567,0.10516 1.85109,0.19247 3.608,0.30133c0.83495,0.05173 1.64256,0.0845 2.424,0.1095c0.75725,0.02423 1.49265,0.03821 2.20801,0.04648c0.69731,0.00806 1.37866,0.01086 2.70132,0.01068c0.6465,-0.00009 1.29222,0.00046 1.94551,-0.02249c0.67079,-0.02356 1.36832,-0.06985 2.0985,-0.1575c0.7771,-0.09329 1.61293,-0.20795 3.45599,-0.65335c1.04285,-0.25201 2.14131,-0.58218 3.28801,-0.94348c1.18413,-0.37311 2.38081,-0.77954 3.57599,-1.2045c1.1835,-0.42081 2.3371,-0.83832 4.46935,-1.68533c0.96413,-0.383 1.85161,-0.75748 2.67149,-1.11902c0.76532,-0.33749 1.47647,-0.66827 2.1405,-0.99298c0.63022,-0.30817 1.22929,-0.6113 2.35466,-1.22134c0.54712,-0.2966 1.08287,-0.59866 1.60951,-0.90451c0.52269,-0.30353 1.03824,-0.61328 1.54649,-0.93149c0.50809,-0.31812 1.01639,-0.63907 2.01067,-1.33066c0.50395,-0.35052 1.00679,-0.72003 1.509,-1.11301c0.51662,-0.40424 1.03827,-0.83902 1.563,-1.311c0.54826,-0.49313 1.11852,-1.01849 2.26132,-2.24268c0.62029,-0.66446 1.24214,-1.38983 1.87201,-2.1615c0.65314,-0.80017 1.30345,-1.64459 1.944,-2.53049c0.65437,-0.90503 1.3167,-1.83093 2.51733,-3.80801c0.60704,-0.99963 1.17163,-2.03268 1.70099,-3.09c0.53215,-1.0629 1.02451,-2.15305 1.46701,-3.26999c0.44502,-1.12329 0.88219,-2.26337 1.49866,-4.64001c0.31145,-1.20071 0.53841,-2.42429 0.73351,-3.64499c0.19276,-1.20615 0.33806,-2.39572 0.4545,-3.55499c0.11224,-1.11749 0.19905,-2.186 0.312,-4.13333c0.05006,-0.86307 0.08456,-1.66656 0.10951,-2.43002c0.02429,-0.74323 0.03848,-1.48663 0.04649,-2.25c0.00842,-0.80328 0.01028,-1.66666 0.01067,-3.65332c0.00021,-1.15717 0.00003,-2.41736 -0.009,-3.76349c-0.00949,-1.41522 -0.02693,-2.88248 -0.063,-4.38452c-0.03651,-1.52029 -0.06554,-3.0433 -0.26132,-6.01865c-0.09381,-1.42563 -0.22679,-2.79721 -0.38101,-4.11151c-0.14758,-1.25772 -0.3176,-2.45258 -0.50699,-3.58051c-0.1785,-1.06308 -0.35182,-2.05893 -0.77867,-3.80798c-0.18665,-0.76477 -0.39247,-1.45306 -0.5865,-2.08051c-0.17828,-0.57651 -0.35579,-1.10553 -0.50549,-1.60352c-0.14104,-0.46915 -0.29448,-0.91757 -0.408,-1.81598c-0.05717,-0.45248 -0.05418,-0.91766 -0.033,-1.38602c0.02139,-0.47314 0.07159,-0.94769 0.129,-1.422c0.05725,-0.47305 0.1331,-0.94006 0.23734,-1.85867c0.05057,-0.44562 0.0849,-0.88925 0.1185,-1.33649c0.03442,-0.4581 0.06648,-0.93454 0.10951,-1.43552c0.04581,-0.53339 0.09303,-1.1073 0.27199,-2.39465c0.10153,-0.73038 0.23454,-1.51434 0.39,-2.3475c0.16423,-0.88025 0.35384,-1.79971 0.57001,-2.7525c0.22363,-0.98563 0.45706,-1.99963 1.03999,-4.06665c0.29816,-1.05719 0.62935,-2.1138 0.9855,-3.16351c0.35457,-1.04501 0.73192,-2.0704 1.1385,-3.06448c0.3974,-0.97162 0.7812,-1.92099 1.70934,-3.60535c0.43233,-0.78461 0.90942,-1.50085 1.39499,-2.17499c0.47478,-0.65915 0.97704,-1.2858 1.485,-1.905c0.51201,-0.62415 1.05597,-1.2406 2.12001,-2.58667c0.56335,-0.71268 1.12291,-1.47162 1.69049,-2.26202c0.58322,-0.81219 1.16602,-1.65305 1.75351,-2.51398c0.59622,-0.87372 1.19185,-1.76187 2.38933,-3.55734c0.59943,-0.89877 1.19469,-1.79071 1.76849,-2.67749c0.56078,-0.86664 1.095,-1.71283 1.57951,-2.54251c0.46075,-0.789 0.92001,-1.52557 1.48532,-2.94666c0.24522,-0.61646 0.39278,-1.21387 0.47101,-1.78351c0.0759,-0.55264 0.08081,-1.11267 0.05699,-1.68451c-0.02501,-0.60069 -0.10036,-1.24028 -0.19466,-2.69865c-0.05414,-0.83733 -0.08517,-1.74263 -0.1185,-2.70151c-0.03474,-0.99979 -0.06506,-2.02783 -0.10951,-3.0705c-0.04454,-1.04501 -0.07257,-2.08192 -0.27199,-4.06134c-0.09344,-0.92747 -0.2265,-1.80786 -0.39,-2.64299c-0.15707,-0.80231 -0.34703,-1.56917 -0.57001,-2.30101c-0.21742,-0.71361 -0.4487,-1.411 -1.03999,-2.72266c-0.29347,-0.651 -0.62433,-1.27417 -0.95851,-1.8735c-0.32077,-0.57526 -0.64156,-1.10825 -0.94949,-1.5945c-0.27814,-0.43919 -0.52238,-0.82359 -0.92534,-1.36534c-0.12233,-0.16446 -0.1987,-0.29489 -0.252,-0.28499c-0.02153,0.004 -0.00017,0.07753 0.03601,0.16499c0.0453,0.1095 0.10387,0.22673 0.21599,0.45334c0.04446,0.08986 0.08723,0.15634 0.09151,0.20549c0.00209,0.024 -0.03053,0.02654 -0.0795,-0.0015c-0.08133,-0.04655 -0.18835,-0.12886 -0.51201,-0.37067c-0.21974,-0.16418 -0.47557,-0.35658 -0.76649,-0.5715c-0.32103,-0.23714 -0.67015,-0.4922 -1.0455,-0.7605c-0.3956,-0.28276 -0.80774,-0.57831 -1.688,-1.168c-0.45168,-0.30258 -0.90948,-0.59651 -1.36349,-0.882c-0.4407,-0.27713 -0.8645,-0.53661 -1.2645,-0.774c-0.36578,-0.2171 -0.68718,-0.41708 -1.20534,-0.67732c-0.16985,-0.0853 -0.29727,-0.14236 -0.3885,-0.1335c-0.07304,0.0071 -0.13272,0.07065 -0.19949,0.14549c-0.08568,0.09604 -0.18413,0.23723 -0.57867,0.48801c-0.27243,0.17316 -0.62421,0.32253 -1.01549,0.495c-0.42596,0.18776 -0.88185,0.3766 -1.34851,0.58501c-0.47372,0.21155 -0.95816,0.40422 -1.80266,0.92c-0.39236,0.23964 -0.74292,0.51881 -1.07401,0.81749c-0.34132,0.30792 -0.67743,0.66031 -1.03799,1.04251c-0.3956,0.41934 -0.82028,0.89818 -1.888,1.97333c-0.63049,0.63489 -1.33713,1.30563 -2.088,2.01601c-0.77974,0.73769 -1.57944,1.48318 -2.37601,2.23199c-0.78207,0.7352 -1.54468,1.43378 -2.86934,2.752c-0.56773,0.56497 -1.05675,1.08487 -1.485,1.55701c-0.38477,0.42419 -0.72311,0.81818 -1.03499,1.17899c-0.29146,0.33719 -0.55957,0.66928 -1.14667,1.26401c-0.3029,0.30684 -0.63448,0.60364 -0.9855,0.89549c-0.3596,0.299 -0.73994,0.58891 -1.1385,0.86852c-0.40511,0.28419 -0.82065,0.56801 -1.70934,1.06932c-0.44977,0.25372 -0.91447,0.48479 -1.386,0.7005c-0.46989,0.21497 -0.94481,0.41045 -1.422,0.58351c-0.47028,0.17055 -0.93501,0.33641 -1.85866,0.54933c-0.44283,0.10208 -0.8829,0.17026 -1.31851,0.20099c-0.43277,0.03053 -0.87064,0.02243 -1.30949,-0.03299c-0.45071,-0.05692 -0.92245,-0.13834 -1.87199,-0.50134c-0.51797,-0.19801 -1.03984,-0.46581 -1.5675,-0.771c-0.54616,-0.31589 -1.08675,-0.67606 -1.6125,-1.077c-0.53294,-0.40642 -1.07077,-0.82545 -1.98666,-1.81866c-0.45529,-0.49373 -0.85995,-1.03854 -1.242,-1.6125c-0.3945,-0.59268 -0.76579,-1.23746 -1.134,-1.92751c-0.3903,-0.73145 -0.78188,-1.52383 -1.62399,-3.29333c-0.4666,-0.98044 -0.94968,-2.0146 -1.44,-3.084c-0.49638,-1.08261 -0.98256,-2.16345 -1.44,-3.228c-0.439,-1.02159 -0.87163,-1.97606 -1.45332,-3.688c-0.23463,-0.69054 -0.38789,-1.28886 -0.47101,-1.7955c-0.06863,-0.4184 -0.07066,-0.767 -0.05699,-1.04849l0.03566,-0.22549l0.04967,-0.17851" id="svg_1" stroke-width="2" stroke="#000" fill="none"/>
  <path t="2590,2765,2765,2765,2765,2765,2765,2765,2765,2766,2782,2782,2782,2782,2782,2782,2783,2783,2783,2817,2817,2817,2817,2817,2817,2817,2817,2818,2849,2849,2850,2850,2850,2850,2850,2850,2850,2857,2858,2858,2858,2858,2858,2858,2858,2859,2866,2866,2867,2868,2868,2868,2869,2869,2869,2899,2899,2899,2900,2900,2900,2900,2900,2900,2918,2918,2919,2919,2919,2919,2920,2920,2920,2936,2937,2937,2938,2938,2938,2939,2939,2939,2949,2949,2950,2950,2950,2951,2951,2951,2952,2983,2984,2984,2984,2984,2985,2985,2985,2987,3000,3001,3002,3002,3002,3003,3003,3003,3003,3017,3017,3018,3018,3018,3018,3019,3019,3019,3032,3033,3033,3033,3033,3034,3034,3035,3035,3067,3068,3068,3069,3069,3069,3070,3070,3070,3082,3083,3086,3087,3087,3088,3088,3089,3089,3102,3103,3103,3104,3104,3105,3105,3106,3106,3116,3117,3117,3117,3118,3118,3119,3119,3119,3149,3150,3151,3151,3152,3152,3152,3153,3153,3166,3167,3168,3168,3170,3171,3171,3172,3172,3185,3186,3186,3187,3187,3187,3188,3189,3189,3200,3201,3201,3202,3202,3203,3203,3204,3204,3233,3234,3234,3235,3235,3236,3236,3236,3237" d="m163,252c2.83333,-13.83333 3.08124,-15.17838 3.31599,-16.51733c0.2339,-1.33406 0.45909,-2.66792 0.68401,-4.00349c0.22574,-1.34042 0.44972,-2.68951 0.68401,-4.04851c0.47667,-2.76503 0.73412,-4.17415 1.00266,-5.59999c0.27144,-1.44118 0.55573,-2.89288 0.85501,-4.3515c0.30069,-1.46539 0.61203,-2.93279 0.94499,-4.3965c0.66415,-2.91965 1.03204,-4.3632 1.39867,-5.808c0.36902,-1.45422 0.7525,-2.92354 1.1355,-4.4205c0.39171,-1.53104 0.79318,-3.10472 1.18051,-4.7355c0.81877,-3.44728 1.20413,-5.28885 1.59866,-7.196c0.40564,-1.96085 0.80188,-3.96764 1.2,-6.006c0.40189,-2.05763 0.79715,-4.12456 1.2,-6.186c0.79439,-4.06509 1.19781,-6.04524 1.59866,-7.99066c0.39485,-1.91624 0.7916,-3.80649 1.18051,-5.67751c0.38573,-1.85565 0.76991,-3.70041 1.1355,-5.5425c0.73119,-3.68422 1.0677,-5.54013 1.39999,-7.40001c0.33205,-1.85847 0.65053,-3.71313 0.96451,-5.5575c0.31136,-1.82896 0.61356,-3.63881 0.91949,-5.4225c0.59592,-3.47426 0.89766,-5.15628 1.20534,-6.81067c0.30536,-1.64194 0.62326,-3.28227 0.9585,-4.9335c0.3407,-1.67815 0.70216,-3.39383 1.09351,-5.15849c0.82953,-3.74057 1.30623,-5.73026 1.79599,-7.79733c0.50418,-2.12794 1.02568,-4.29961 1.548,-6.5025c0.5257,-2.2171 1.05075,-4.43301 1.548,-6.6375c0.96906,-4.29619 1.39314,-6.3687 1.79599,-8.37867c0.38997,-1.94574 0.74933,-3.83041 1.09351,-5.6505c0.33179,-1.75459 0.64279,-3.44487 0.9585,-5.06551c0.59238,-3.04095 0.89822,-4.45575 1.20267,-5.80533c0.29146,-1.29205 0.58774,-2.52739 0.88051,-3.7125c0.28201,-1.14153 0.56447,-2.24146 0.83549,-3.3075c0.52022,-2.04626 0.76421,-3.03699 1.00267,-4.00933c0.23454,-0.95632 0.46442,-1.89958 0.70349,-2.829c0.23697,-0.92125 0.47798,-1.83589 0.7485,-2.739c0.54201,-1.8094 0.86708,-2.70446 1.19867,-3.59867c0.33109,-0.89284 0.68004,-1.77306 1.032,-2.6415c0.34674,-0.85555 0.69669,-1.69017 1.032,-2.5065c0.6385,-1.55443 0.92702,-2.29023 1.19734,-2.996c0.25826,-0.67427 0.49809,-1.32021 0.72899,-1.935c0.21979,-0.58521 0.42674,-1.14237 0.63901,-1.665c0.39175,-0.9645 0.59978,-1.39665 0.79866,-1.804c0.18826,-0.3856 0.37526,-0.74642 0.5415,-1.0935c0.15759,-0.32903 0.30731,-0.64339 0.40649,-0.9585c0.1873,-0.59504 0.20279,-0.90335 0.20134,-1.2c-0.00142,-0.29076 -0.03632,-0.57312 -0.08701,-0.8415c-0.04829,-0.25571 -0.11143,-0.49196 -0.177,-0.7065c-0.10931,-0.35768 -0.15982,-0.4915 -0.196,-0.6c-0.02817,-0.0845 -0.04933,-0.148 -0.0645,-0.1935c-0.01016,-0.0305 -0.01634,-0.049 -0.0195,-0.0585c-0.00133,-0.004 -0.00133,-0.004 -0.00133,-0.004c0,0 0,0 0,0c0,0 0,0 0,0c0,0 0,0 0,0c0,0 0,0 0,0c0,0 0,0 0,0c0,0 0,0 0,0c0,0 0,0 0,0c0,0 0,0 0,0c0,0 0,0 0,0c0,0 0,0 0,0c0,0 0,0 0,0c0,0 0,0 0,0c0,0 0,0 0,0c0,0 0,0 0,0c0,0 0,0 0,0c0,0 0,0 0,0c0,0 0,0 0,0c0,0 0,0 0,0c0,0 0,0 0,0l0,0l0,0l0,0" id="svg_2" stroke-width="2" stroke="#000" fill="none"/>
  <path t="3618,3831,3832,3832,3832,3832,3832,3832,3832,3832,3848,3849,3849,3849,3849,3849,3849,3849,3849,3884,3884,3884,3885,3885,3885,3885,3885,3885,3909,3909,3909,3910,3910,3910,3910,3910,3910,3916,3916,3916,3916,3916,3916,3917,3917,3917,3932,3932,3932,3933,3933,3933,3933,3933,3934,3967,3968,3968,3968,3969,3969,3969,3969,3969,3987,3988,3988,3988,3990,3990,3990,3990,3991,4013,4014,4014,4014,4015,4015,4015,4015,4016,4032,4033,4033,4033,4033,4034,4034,4034,4034,4075,4076,4076,4076,4076,4077,4077,4077,4078,4100,4100,4101,4101,4101,4101,4103,4103,4103,4116,4117,4117,4117,4118,4118,4118,4118,4119,4139,4140,4140,4140,4141,4141,4141,4142,4142,4153,4154,4155,4155,4156,4156,4156,4157,4157,4167,4167,4168,4168,4169,4169,4169,4170,4170,4199,4199,4200,4200,4200,4201,4201,4201,4202,4216,4217,4217,4218,4218,4218,4219,4219,4220,4232,4233,4234,4234,4235,4236,4236,4237,4265,4266,4267,4267,4267,4284,4285,4286,4286,4286,4300,4301,4301,4302,4302,4317,4318,4319,4320,4322,4322,4336,4337,4337,4338,4368,4369,4369,4370,4383,4384,4386,4387,4414,4423,4424,4424,4425,4450,4451,4482,4483,4484,4484,4492,4493" d="m172,244c3.66667,-13 3.95828,-14.0705 4.22934,-15.08667c0.25755,-0.96552 0.49907,-1.88655 0.72899,-2.7675c0.22073,-0.84572 0.43163,-1.66194 0.63901,-2.4525c0.40062,-1.52719 0.60268,-2.27194 0.80133,-3.00932c0.19702,-0.73129 0.39302,-1.45807 0.58051,-2.18401c0.18718,-0.72473 0.37064,-1.45107 0.53549,-2.18401c0.33278,-1.47957 0.46761,-2.23772 0.60268,-3.008c0.138,-0.78705 0.26793,-1.59735 0.40349,-2.433c0.14044,-0.86568 0.28381,-1.76624 0.4485,-2.703c0.35289,-2.00731 0.57001,-3.07954 0.8,-4.19333c0.23691,-1.14725 0.49014,-2.31641 0.7515,-3.4995c0.26263,-1.18892 0.53052,-2.37311 0.79651,-3.54451c0.51505,-2.2682 0.76047,-3.34869 0.99866,-4.392c0.23051,-1.00967 0.45581,-1.98868 0.68401,-2.93849c0.22252,-0.92618 0.44508,-1.83102 0.68401,-2.7135c0.46785,-1.72807 0.73314,-2.57033 1,-3.40401c0.26451,-0.82634 0.53978,-1.64053 0.81599,-2.44499c0.27315,-0.79552 0.54951,-1.57925 0.81599,-2.35501c0.52162,-1.51852 0.76465,-2.26524 1.00134,-3.00667c0.23631,-0.74025 0.46785,-1.48671 0.70349,-2.24249c0.24036,-0.77087 0.48584,-1.56267 0.7485,-2.3775c0.5573,-1.72884 0.87286,-2.64616 1.19867,-3.60133c0.33684,-0.9875 0.68564,-2.00168 1.032,-3.04199c0.35236,-1.05833 0.70518,-2.13147 1.032,-3.222c0.65584,-2.18845 0.93088,-3.2926 1.19867,-4.38934c0.26517,-1.08597 0.50822,-2.16261 0.7485,-3.222c0.23572,-1.03928 0.45938,-2.05699 0.70349,-3.04199c0.46573,-1.87929 0.73117,-2.75865 1.004,-3.60667c0.26735,-0.83099 0.55644,-1.64531 0.85501,-2.45549c0.30139,-0.81784 0.62206,-1.64622 0.94499,-2.5005c0.68437,-1.81035 1.03719,-2.78383 1.39467,-3.79466c0.36525,-1.03282 0.7249,-2.07793 1.077,-3.12151c0.34654,-1.0271 0.6779,-2.02661 0.987,-2.9865c0.56055,-1.7408 0.79468,-2.50385 0.99867,-3.20267c0.18866,-0.6463 0.3546,-1.25842 0.4935,-1.8525c0.13701,-0.58601 0.25752,-1.18356 0.35851,-1.8075c0.22287,-1.37708 0.30603,-2.16311 0.40533,-3.00667c0.10513,-0.8931 0.20801,-1.82682 0.31949,-2.79c0.11383,-0.98348 0.22879,-1.97767 0.3645,-2.97c0.26651,-1.94875 0.43077,-2.88226 0.59734,-3.784c0.16061,-0.86958 0.33035,-1.70168 0.49651,-2.496c0.15793,-0.75499 0.31517,-1.46647 0.45149,-2.13599c0.24348,-1.19584 0.33182,-1.72254 0.39867,-2.20534c0.06139,-0.44333 0.10309,-0.85568 0.129,-1.242c0.02454,-0.36575 0.03517,-0.71796 0.039,-1.062c0.00766,-0.68796 0.00105,-1.04268 0.00534,-1.40533c0.00435,-0.3687 0.01369,-0.74164 0.039,-1.116c0.02536,-0.37503 0.05956,-0.74957 0.129,-1.116c0.13698,-0.72269 0.26712,-1.06517 0.39732,-1.40533c0.1324,-0.34593 0.28601,-0.69465 0.43201,-1.062c0.15285,-0.38461 0.31056,-0.79339 0.43201,-1.242c0.27043,-0.999 0.33421,-1.58032 0.39732,-2.19466c0.06599,-0.64242 0.10365,-1.30647 0.129,-1.98c0.02533,-0.67316 0.03511,-1.33665 0.039,-1.98c0.00717,-1.18665 -0.00021,-1.71287 0.00667,-2.196c0.00636,-0.44722 0.0197,-0.86606 0.0585,-1.2615c0.03749,-0.38203 0.14128,-1.14588 0.60133,-2.30534c0.35057,-0.88353 0.6153,-1.31231 1.02417,-2.2425c0.20375,-0.46352 0.69238,-1.8423 0.776,-2.72933c0.07979,-0.84629 -0.02797,-1.68011 0.07199,-2.484c0.15143,-1.21788 0.39296,-1.60718 0.76534,-2.42266c0.38998,-0.85406 0.71825,-1.25864 1.032,-2.71201c0.21968,-1.01762 0.16782,-1.5687 0.10417,-2.64583c-0.03162,-0.53506 -0.16811,-1.56631 -0.27083,-2.52084c-0.09073,-0.84305 -0.15294,-1.93736 -0.16217,-2.5865c-0.01726,-1.21355 -0.04807,-1.82557 0.1035,-2.7495c0.1078,-0.6572 0.53514,-1.69635 0.9455,-2.39867c0.40558,-0.69415 1.27519,-1.49867 1.28568,-2.443c0.00891,-0.80173 -0.29201,-1.49062 -0.31834,-2.32233c-0.02632,-0.83108 -0.02083,-2.05083 -0.02083,-2.87333c0,-0.79717 0,-1.6435 0,-2.60583l0,-0.48217l0,-1.53867l0,-0.05867" id="svg_3" stroke-width="2" stroke="#000" fill="none"/>
  <path t="5039,5215,5215,5215,5215,5215,5215,5215,5215,5215,5232,5233,5233,5233,5233,5233,5233,5233,5233,5268,5269,5269,5269,5282,5351,5369,5370,5370,5370,5370,5370,5370,5383,5383,5384,5384,5384,5384,5385,5385,5399,5400,5400,5400,5400,5401,5401,5433,5433,5433,5433,5434,5449,5449,5449,5449,5450,5450,5450,5466,5467,5467,5467,5468,5468,5468,5468,5484,5485,5485,5485,5486,5517,5517,5518,5532,5566,5599,5600,5600,5600,5600,5601,5601,5601,5616,5617,5618,5618,5618,5619,5619,5619,5620" d="m217,49c-9.33333,-11 -10.11049,-11.87389 -10.85733,-12.68667c-0.70636,-0.76873 -1.3857,-1.48888 -2.0385,-2.1675c-0.62331,-0.64795 -1.22777,-1.26289 -1.81351,-1.8525c-1.12163,-1.12902 -1.66919,-1.67099 -2.20132,-2.20534c-0.51918,-0.52133 -1.02275,-1.02929 -1.50601,-1.5255c-0.46602,-0.47851 -0.91145,-0.93984 -1.32599,-1.3905c-0.76501,-0.83168 -1.40913,-1.5892 -1.92801,-2.268c-0.43419,-0.568 -1.29405,-1.65849 -1.07733,-1.796c0.84026,-0.53316 1.74486,0.74582 2.23917,0.9725c1.11809,0.51274 1.71544,0.81614 2.326,1.14733c0.62561,0.33935 1.85612,1.09611 2.44,1.51483c0.58023,0.41611 1.13766,0.85702 2.222,1.75733c0.53783,0.44654 1.06259,0.90262 1.6035,1.332c1.07153,0.85061 1.62666,1.24323 2.761,1.94917c0.55478,0.34526 1.11296,0.65938 1.659,0.9615c1.03947,0.57514 2.00131,1.08374 2.84534,1.57333c0.77971,0.45229 1.52629,0.91222 1.90999,1.13667c1.23659,0.72335 1.69713,0.98765 2.7225,1.4865c0.54387,0.2646 1.10976,0.53931 2.34734,0.93666c0.64035,0.2056 2.00369,0.47532 2.71449,0.53833c0.72163,0.06397 1.45421,0.07174 2.18701,0.0525c0.72932,-0.01915 2.15106,-0.12675 2.832,-0.18667c1.27211,-0.11193 1.85185,-0.17005 2.90549,-0.22283c0.92854,-0.04652 1.75801,-0.05492 2.8665,-0.05717c0.67734,-0.00138 1.62627,-0.30194 2.66667,0c0.32291,0.09371 -0.49876,0.83483 -1.21733,1.42933c-0.4429,0.36643 -0.94011,0.77351 -1.491,1.2165c-0.59834,0.48115 -1.24442,0.99478 -1.94101,1.5315c-1.51103,1.16423 -2.33406,1.76804 -3.18799,2.38933c-0.87569,0.63713 -1.77467,1.27333 -2.6835,1.9125l-0.91383,0.63417l-0.91183,0.62416l-0.90283,0.60917" id="svg_4" stroke-width="2" stroke="#000" fill="none"/>
  <path t="6174,6282,6282,6283,6283,6283,6283,6283,6283,6283,6317,6317,6317,6317,6317,6317,6318,6318,6318,6339,6339,6339,6340,6340,6340,6340,6340,6340,6380,6380,6380,6380,6381,6381,6381,6381,6381,6386,6387,6387,6387,6388,6388,6389,6389,6389,6401,6402,6402,6402,6402,6403,6403,6403,6403" d="m143,344c3,-14.16666 3.29941,-15.62115 3.60133,-17.08133c0.3024,-1.46249 0.6059,-2.9234 0.91949,-4.37701c0.31175,-1.44507 0.62634,-2.87701 0.96451,-4.28699c0.66182,-2.75943 1.03249,-4.09375 1.40134,-5.41867c0.37112,-1.3331 0.76309,-2.6871 1.155,-4.086c0.40822,-1.45712 0.8335,-2.99054 1.245,-4.62601c0.90994,-3.61658 1.3414,-5.64236 1.79601,-7.78265c0.47267,-2.22531 0.93393,-4.51028 1.3965,-6.8205c0.46143,-2.30444 0.90581,-4.57471 1.3515,-6.77551c0.82639,-4.08063 1.22035,-5.90228 1.59732,-7.57733c0.34782,-1.54556 0.68591,-2.9715 1.00951,-4.293c0.30196,-1.23312 0.59682,-2.38855 0.8745,-3.483c0.52225,-2.05841 0.76837,-3.04785 1.00134,-4.01599c0.22697,-0.94318 0.4415,-1.86099 0.64499,-2.75101c0.19647,-0.85934 0.38148,-1.68701 0.55501,-2.48099c0.32275,-1.47675 0.46602,-2.1573 0.59999,-2.79868c0.12596,-0.60297 0.24001,-1.16934 0.345,-1.69951l0.095,-0.49516l0.08501,-0.46117l0.075,-0.42816" id="svg_5" stroke-width="2" stroke="#000" fill="none"/>
  <path t="6617,6704,6706,6706,6706,6707,6707,6707,6707,6707,6736,6736,6736,6736,6736,6737,6737,6737,6737,6749,6749,6750,6750,6750,6750,6750,6751,6752,6767,6767,6767,6767,6767,6768,6768,6768,6768,6797,6798,6798,6798,6798,6798,6799,6799,6799,6826,6826,6827,6827,6827,6828,6828,6829,6829,6840,6841,6841,6841,6841,6842,6842,6842,6842" d="m154,347c0,-9.16666 -0.00246,-10.12152 0.004,-11.08533c0.00652,-0.97186 0.02063,-1.95093 0.0585,-2.93552c0.03809,-0.99014 0.09061,-1.98538 0.1935,-2.9805c0.20708,-2.00281 0.39822,-3.00238 0.60133,-4.01199c0.20799,-1.03387 0.45772,-2.09421 0.726,-3.19501c0.28088,-1.15256 0.5921,-2.36215 0.90601,-3.64499c0.68777,-2.81079 1.03511,-4.36038 1.39734,-5.99466c0.3779,-1.70505 0.75838,-3.4697 1.155,-5.27701c0.40335,-1.83804 0.81004,-3.69366 1.245,-5.547c0.86035,-3.66602 1.32806,-5.44339 1.79601,-7.18399c0.4592,-1.70807 0.93036,-3.37915 1.3965,-5.01901c0.45789,-1.61078 0.91698,-3.19098 1.3515,-4.74899c0.84769,-3.03943 1.23083,-4.53104 1.59866,-5.99869c0.36075,-1.43939 0.69945,-2.85181 1.02899,-4.23148c0.32111,-1.34433 0.62703,-2.65237 0.93901,-3.9165c0.59196,-2.39865 0.89789,-3.52353 1.20267,-4.60535c0.29536,-1.04846 0.5979,-2.06598 0.89999,-3.06149c0.29794,-0.98181 0.60175,-1.95383 0.89999,-2.92651c0.60352,-1.96826 0.90227,-2.97687 1.196,-3.99597c0.29327,-1.01755 0.57201,-2.02669 0.84151,-3.01501l0.2545,-0.95833l0.2365,-0.91833l0.2155,-0.86833" id="svg_6" stroke-width="2" stroke="#000" fill="none"/>
  <path t="7070,7169,7169,7169,7170,7170,7170,7170,7170,7171,7183,7183,7183,7183,7183,7184,7184,7184,7184,7215,7216,7216,7216,7216,7216,7216,7216,7216,7232,7233,7233,7233,7233,7233,7233,7233,7234,7249,7250,7250,7250,7251,7251,7251,7251,7251,7267,7268,7268,7268,7268,7268,7269,7269,7269,7316,7316,7317,7317,7317,7317,7317,7318,7318" d="m171,346c1.83333,-16.16666 1.97792,-17.36472 2.11467,-18.47067c0.12761,-1.03204 0.25061,-2.00784 0.3645,-2.94598c0.11142,-0.91785 0.22057,-1.83356 0.31949,-2.76602c0.21037,-1.98303 0.30342,-3.06714 0.40134,-4.21066c0.10217,-1.19315 0.20078,-2.42661 0.3,-3.69c0.1008,-1.28326 0.19922,-2.57672 0.3,-3.87c0.19847,-2.54678 0.29764,-3.78308 0.40266,-4.996c0.10368,-1.19742 0.214,-2.3858 0.339,-3.5715c0.12563,-1.19168 0.26338,-2.39554 0.429,-3.61649c0.34344,-2.53201 0.56712,-3.8494 0.79999,-5.20267c0.23834,-1.38507 0.49792,-2.79398 0.77101,-4.2225c0.2762,-1.44482 0.56468,-2.8989 0.86099,-4.35751c0.59206,-2.9144 0.89572,-4.35815 1.19734,-5.78931c0.2984,-1.41586 0.59734,-2.81259 0.89999,-4.18652c0.29739,-1.35007 0.59398,-2.67239 0.89999,-3.96149c0.58844,-2.47879 0.89656,-3.65683 1.19734,-4.79599c0.29066,-1.1008 0.58086,-2.16013 0.86099,-3.18002c0.26921,-0.9801 0.53174,-1.91879 0.77101,-2.81998c0.44551,-1.67789 0.63022,-2.46017 0.80266,-3.20535c0.16481,-0.71217 0.31734,-1.39732 0.468,-2.058l0.15067,-0.64066l0.15466,-0.62468l0.16267,-0.61266" id="svg_7" stroke-width="2" stroke="#000" fill="none"/>
  <path t="7534,7715,7716,7716,7716,7716,7716,7716,7716,7733,7733,7733,7734,7734,7734,7734,7734,7734,7750,7750,7750,7750,7751,7751,7751" d="m138,341c10.83333,5.5 11.65096,5.93451 12.40933,6.34534c0.71359,0.38657 1.39027,0.76053 2.049,1.11301c1.29265,0.69165 1.95187,1.0379 3.375,1.70831c0.76941,0.36246 1.58369,0.71854 2.42551,1.077c0.8555,0.36429 1.71899,0.71805 2.57849,1.05902c0.84088,0.33359 1.65315,0.65417 3.16267,1.19733c0.66818,0.24042 1.28,0.44266 1.83,0.62399l0.49001,0.15735l0.42999,0.13531l0.92999,0.29401" id="svg_8" stroke-width="2" stroke="#000" fill="none"/>
 </g>
 <g display="none">
  <title>muse_image</title>
  <image xlink:href="http://farm3.static.flickr.com/2022/2096646176_4df53fbac1.jpg" id="muse" height="480" width="600" y="0" x="20"/>
 </g>
 <g display="none">
  <title>bbox</title>
  <rect stroke="#f00" fill="none" stroke-width="3" height="391.2" width="148.8" y="38.4" x="33.2" id="bbox"/>
 </g>
</svg>
