<svg width="640" height="480" xmlns="http://www.w3.org/2000/svg" xmlns:svg="http://www.w3.org/2000/svg" xmlns:xlink="http://www.w3.org/1999/xlink">
 <!-- Sketchy ANNOTATION
  ImageNet ID: n03467517_22374
  URL: http://farm4.static.flickr.com/3414/3619604164_0747a31c9f.jpg
  Image Width: 390
  Image Height: 500
  BBox X: 62
  BBox Y: 231
  BBox Width: 317
  BBox Height: 241
  Exposure: 2000ms
  Synset Label: guitar
  Synset ID: n03467517
  Worker Tag: Guitar
  Sanity Check: 
   Saved
  Comment: 
   {}
  Worker ID: AIH9VLD92GHFH
  Assignment ID: 3ZDAD0O1T1DEPKXQTAGGIN12F38TX2
  HIT ID: 3PGQRAZX02K0N5CRJ4SQ2CH4CCISY7
  Work Time: 30s
  Worker Score: 0.5500
 END ANNOTATION -->
 <g display="inline">
  <title>Layer 1</title>
  <path t="0,181,184,184,197,198,198,198,215,215,215,215,232,233,238,239,239,249,249,249,249,264,265,265,265,282,282,282,282,283,316,316,319,319,322,322,322,333,333,333,347,348,348,370,371,371,371,382,382,401,401,401,413,414,414,432,432,448,449,449,464,465,465,481,485,497,498,498,514,514,515,531,531,532,532,547,548,548,564,564,564,581,581,581,597,598,598,614,614,614,631,631,631,647,648,664,664,681,697,731,731,764,764,781,781,798,798,813,814,832,848,848,864,865,881,881,897,898,898,914,914,931,931,931,947,948,948,948,964,964,964,981,981,997,998,998,1014,1014,1031,1031,1031,1047,1048,1064,1064,1064,1081,1081,1081,1097,1098,1114,1132,1133,1133,1147,1148,1164,1181,1182,1197,1198,1214,1231,1232,1247,1264,1264,1264,1281,1282,1297,1298,1314,1314,1331,1348,1348,1348,1349,1364,1381,1381,1397,1397,1414,1414,1431,1431,1447,1448,1464,1464,1465,1481,1481,1496,1496,1496,1513,1513,1513,1530,1530,1530,1530,1547,1548,1548,1562,1563,1563,1582,1582,1582,1596,1596,1596,1614,1614,1614,1615,1631,1631,1631,1647,1647,1648,1648,1663,1664,1664,1680,1681,1681,1697,1697,1698,1713,1714,1714,1730,1731,1747,1747,1748,1763,1764,1780,1781,1781,1800,1800,1800,1814,1814,1831,1832,1832,1847,1848,1848,1863,1864,1864,1880,1881,1897,1897,1898,1899,1913,1914,1915,1931,1931,1932,1932,1947,1947,1948,1963,1964,1964,1965,1981,1981,1982,1982,2004,2005,2005,2005,2014,2015,2015,2030,2031,2032,2032,2047,2048,2048,2064,2080,2081,2082,2082,2100,2101,2101,2113,2114,2115,2130,2131,2148,2149,2149,2149,2163,2164,2181,2181,2197,2198,2198,2213,2214,2215,2215,2215,2231,2232,2232,2247,2247,2248,2263,2264,2265,2265,2280,2281,2282,2282,2282,2297,2297,2298,2298,2313,2314,2315,2330,2331,2332,2332,2347,2347,2348,2348,2349,2349,2363,2364,2365,2365,2380,2381,2382,2382,2397,2397,2398,2413,2414,2415,2430,2431,2432,2432,2447,2447,2448,2448,2463,2464,2465,2465,2482,2483,2483,2483,2483,2497,2497,2498,2498,2499,2514,2514,2515,2515,2530,2531,2532,2532,2532,2547,2547,2548,2548,2563,2564,2565,2565,2580,2581,2582,2582,2596,2597,2598,2613,2614,2615,2615,2615,2630,2631,2632,2632,2647,2647,2648,2649,2663,2664,2665,2665,2680,2681,2682,2682,2697,2698,2699,2699,2713,2714,2715,2715,2730,2731,2732,2732,2755,2755,2756,2756,2765,2766,2766,2766,2783,2783,2784,2800,2801,2801,2813,2814,2814,2815,2832,2832,2833,2848,2848,2849,2864,2865,2865,2865,2881,2882,2882,2883,2897,2898,2899,2914,2915,2915,2931,2932,2932,2947,2948,2949,2964,2965,2981,2982,2997,2998,2998,3014,3015,3015,3031,3032,3047,3048,3064,3065,3065,3081,3082,3097,3098,3099,3114,3115,3131,3132,3132,3146,3148,3163,3164,3180,3181,3197,3198,3214,3215,3215,3230,3231,3232,3232,3246,3247,3263,3264,3280,3281,3296,3297,3298,3313,3330,3331,3332,3346,3347,3363,3364,3365,3380,3397,3398,3398,3421,3422,3436,3450,3450,3451,3470,3470,3471,3484,3485,3499,3500,3513,3513,3530,3531,3546,3547,3563,3564,3580,3596,3597,3613,3614,3630,3631,3647,3648,3648,3663,3696,3697,3730,3731,3732,3763,3880,3896,3897,3915,3916,3932,3933,3946,3947,3963,3963,3980,3982,3996,3997,4013,4014,4031,4032,4046,4047,4048,4063,4064,4080,4081,4082,4096,4113,4114,4114,4130,4131,4146,4148,4148,4163,4164,4180,4181,4196,4198,4213,4214,4215,4230,4246,4247,4263,4265,4292,4293,4293,4307,4308,4322,4322,4337,4363,4364,4365,4380,4381,4382,4382,4413,4446,4447,4448,4463,4464,4480,4496,4497,4498,4530,4531,4545,4546,4563,4564,4580,4582,4595,4596,4596,4613,4614,4630,4631,4632,4645,4646,4663,4664,4680,4681,4695,4696,4713,4714,4746,4748,4763" d="m257,314c-5.42667,-0.28799 -6.13744,-0.38815 -6.70667,-0.68268c-1.03003,-0.53293 -1.51176,-1.32245 -1.908,-2.17465c-0.28891,-0.62137 -0.70531,-1.66479 -1.03799,-2.39984c-0.34593,-0.76431 -0.71738,-1.53836 -1.18066,-2.74283c-0.15271,-0.39703 -0.41612,-1.19354 -0.64584,-1.97916c-0.22276,-0.76181 -0.62413,-2.19852 -0.81633,-2.86816c-0.18706,-0.65173 -0.44933,-1.63235 -0.58333,-2.67419c-0.09431,-0.73322 -0.11395,-1.50302 -0.231,-2.28299c-0.18048,-1.20273 -0.4511,-1.99802 -0.74083,-2.7955c-0.2916,-0.80261 -0.6324,-1.58734 -0.90634,-2.79965c-0.0891,-0.39426 -0.21431,-1.55823 -0.23399,-2.28601c-0.02652,-0.98068 -0.009,-1.8045 -0.009,-2.76251c0,-0.97314 0,-1.77716 0,-2.59915c0,-1.03149 0,-1.73801 0,-2.72202c0,-0.87332 0,-1.88132 0,-2.57999c0,-0.68268 0,-1.88 0,-2.82935c0,-0.82132 -0.00117,-1.63199 0,-2.50665c0.00134,-0.99734 -0.08231,-1.82602 0.17067,-2.54532c0.36574,-1.03992 1.24583,-1.51108 1.5865,-2.31235c0.29395,-0.69138 0.23479,-1.57556 0.46432,-2.75665c0.17262,-0.88821 0.31989,-1.46097 0.87834,-2.55768c0.33862,-0.66501 0.73634,-1.47556 0.8855,-2.40399c0.12692,-0.7901 0.42935,-1.83508 0.87599,-2.51334c0.30527,-0.46356 1.01256,-1.37251 1.377,-2.18251c0.24826,-0.55179 0.52502,-1.43683 0.67635,-2.64149c0.07388,-0.5881 0.0656,-1.44434 0.08665,-2.71733c0.01132,-0.68419 0.05548,-1.3741 0.28267,-2.36934c0.19205,-0.84132 0.45908,-1.71152 0.59483,-2.6145c0.13318,-0.88589 0.11964,-1.78564 0.56384,-2.77884c0.32938,-0.73647 0.96777,-1.3268 1.31433,-2.3425c0.26212,-0.76822 0.23849,-1.56897 0.243,-2.6095c0.00369,-0.85197 0,-1.79466 0,-2.48534c0,-1.07333 0.03798,-1.89546 -0.00034,-2.80533c-0.03603,-0.85558 -0.38124,-1.74226 -1.02049,-2.13699c-0.89008,-0.54962 -1.78899,-0.53941 -2.74718,-0.54167c-0.73199,-0.00172 -1.89867,0 -2.69032,0c-0.84618,0 -1.71347,-0.07376 -2.54167,0.02083c-0.99245,0.11334 -1.65907,0.57936 -2.19867,1.46451c-0.42273,0.69345 -0.65346,1.71986 -0.82216,2.51466c-0.12833,0.60464 -0.68582,1.60255 -1.16451,2.2c-0.64372,0.80344 -1.09662,1.38486 -1.51016,2.25717c-0.44798,0.94498 -0.59668,1.50488 -0.94051,2.3535c-0.24075,0.59422 -0.83551,1.79417 -1.18933,2.368c-0.50444,0.8181 -1.187,1.65369 -1.65384,2.32133c-0.56313,0.80534 -0.84233,1.49646 -1.08482,2.24933c-0.35313,1.09639 -0.44507,1.92554 -0.87868,2.79333c-0.36525,0.73097 -0.81918,1.15201 -1.31433,2.31467c-0.26389,0.61961 -0.22731,1.68591 -0.25366,2.40401c-0.02904,0.79134 -0.19475,1.82222 -0.48933,2.71782c-0.205,0.62323 -0.33113,1.6413 -0.584,2.53552c-0.2513,0.88867 -1.10217,1.45605 -1.73067,1.896c-0.6371,0.44595 -1.04858,1.43481 -1.26801,2.10532c-0.32909,1.00568 -1.1424,1.49823 -1.56017,2.24118c-0.46222,0.82199 -0.43884,1.8222 -1.21849,2.18149c-0.90674,0.41785 -1.65935,0.69095 -2.13467,1.47202c-0.47235,0.77615 -1.04616,1.26776 -1.76399,1.728c-0.88327,0.56628 -1.74794,0.74481 -2.54451,1.21851c-0.62846,0.37372 -1.32484,0.98953 -2.04283,1.28564c-1.01048,0.41675 -1.99197,0.6799 -2.658,1.0625c-0.49927,0.2868 -1.21278,0.75781 -2.32266,1.23334c-0.86324,0.36984 -1.54239,0.83481 -2.32916,1.00867c-0.93153,0.20584 -1.73898,0.34338 -2.50684,0.62735c-0.94896,0.35095 -1.74788,0.55682 -2.49316,1.13516c-0.57649,0.44736 -1.30533,1.18637 -2.14284,1.64349c-0.77005,0.42029 -1.6035,0.53949 -2.39999,0.672c-1.00545,0.16727 -1.83141,0.49667 -2.48534,0.86133c-1.01735,0.56729 -1.54373,0.95035 -2.12534,1.28799c-1.1758,0.68256 -1.78311,0.95203 -2.6685,1.3045c-0.83107,0.33087 -1.83682,0.72086 -2.52083,1.02084c-0.68401,0.29999 -1.67851,0.71985 -2.52083,0.97916c-0.57936,0.17834 -1.77913,0.39865 -2.37466,0.47269c-0.8687,0.108 -1.96303,0.33716 -2.65184,0.758c-0.70667,0.43173 -1.60342,1.15582 -2.40984,1.53299c-0.55363,0.25894 -1.44601,0.55042 -2.34267,0.85733c-0.89136,0.30511 -1.50301,0.46387 -2.53349,1.0665c-0.74559,0.436 -1.37537,1.03156 -1.85068,1.34933c-0.96986,0.64841 -1.8338,0.9715 -2.4205,1.1795c-1.18944,0.42166 -1.80791,0.56769 -2.6595,0.94049c-1.09357,0.47873 -1.5387,0.8631 -2.21516,1.34317c-1.00369,0.71228 -1.62395,0.896 -2.42082,1.069c-1.00563,0.21832 -1.82938,0.5787 -2.76668,0.95184c-0.77625,0.30902 -1.56419,0.5925 -2.5,0.83334c-0.82721,0.21289 -1.67786,0.48068 -2.33867,0.8765c-0.75746,0.4537 -1.66391,1.12021 -2.18483,1.53299c-0.69597,0.55148 -1.48387,1.03491 -2.21432,1.51434c-0.8154,0.53516 -1.40244,1.07159 -1.9955,1.64734c-0.8094,0.78577 -1.41182,1.37549 -1.94284,1.99548c-0.6647,0.77606 -1.03404,1.39313 -1.45583,2.20001c-0.41547,0.79477 -0.82114,1.64542 -1.36801,2.56665c-0.30959,0.52151 -0.82951,1.33197 -1.23782,1.82352c-0.75192,0.90521 -1.41786,1.33115 -1.9955,1.81516c-0.834,0.69882 -1.40482,1.45642 -1.76401,2.01599c-0.36674,0.57135 -0.95078,1.77789 -1.21066,2.36801c-0.37624,0.85431 -0.9362,1.89722 -1.2825,2.36249c-0.53728,0.72186 -0.9882,1.18942 -1.7415,2.41751c-0.41551,0.6774 -0.77808,1.41003 -1.116,2.14801c-0.48216,1.05295 -0.73492,1.72302 -0.96451,2.36182c-0.32922,0.91608 -0.60422,1.82672 -0.93149,2.71017c-0.21442,0.57883 -0.73535,1.65854 -1.242,2.358c-0.50195,0.69299 -0.92961,1.09988 -1.46067,2.13535c-0.39611,0.77234 -0.62063,1.54337 -0.86134,2.66666c-0.21007,0.98032 -0.3661,1.6727 -0.672,2.47198c-0.2248,0.5874 -0.83562,1.77756 -1.168,2.36801c-0.32362,0.57489 -0.91537,1.62747 -1.071,2.35352c-0.18006,0.84006 -0.11433,1.85983 -0.11433,2.72916c0,1.06134 0,1.69467 0,2.70715c0,0.65836 0,1.7565 0,2.62485c0,0.88266 0,1.64267 0,2.81766c0,0.82501 0,1.42502 0,2.745c0,0.71735 0,1.45868 0,2.20801c0,0.74133 -0.02148,2.13983 0.02133,2.77866c0.05951,0.88788 0.38155,1.95172 0.85067,2.62134c0.49627,0.70837 1.14513,1.37936 1.728,2.18701c0.41231,0.57132 0.81492,1.19122 1.4,2.20499c0.41055,0.71136 0.79832,1.45956 1.2,2.20801c0.39835,0.74222 0.98781,1.8111 1.40001,2.45917c0.38864,0.61105 0.74321,1.20276 1.59999,2.02368c0.56509,0.54144 1.26025,0.9549 2.00034,1.90683c0.44693,0.57486 0.81807,1.29327 1.314,1.992c0.78311,1.10336 1.10805,1.44333 1.7955,2.082c0.69112,0.64209 1.0677,0.92532 1.80751,1.47498c1.05013,0.78018 1.72833,1.22412 2.34099,1.68668c0.58719,0.4433 1.6293,1.41327 2.0845,1.94818c0.4454,0.52341 1.00084,1.34164 1.85716,2.08249c0.56651,0.49011 1.22096,0.8251 2.00134,1.45465c0.63734,0.51416 1.26813,1.13605 2.02032,1.71469c0.80855,0.62198 1.41844,1.01068 2.065,1.39999c1.02457,0.61691 1.76195,1.00351 2.51334,1.37915c0.74339,0.37164 1.82933,0.86411 2.51601,1.1355c0.65498,0.25888 1.63387,0.59027 2.65067,0.88535c0.71675,0.20801 1.47191,0.40198 2.24399,0.63599c0.79343,0.24048 1.99181,0.67941 2.78934,1.01669c0.40128,0.16971 1.19408,0.53619 2,0.86331c1.19162,0.48367 1.99731,0.73611 2.8,0.96317c0.79745,0.22559 1.99907,0.52463 2.8,0.71951c0.79909,0.19446 1.19656,0.29825 2,0.44415c1.19548,0.21707 1.99919,0.25546 3.15833,0.37802c0.7287,0.07706 1.7298,0.26804 2.53633,0.68448c0.77904,0.40225 1.24449,0.82739 2.47467,1.12534c0.68069,0.16486 1.41794,0.16562 2.14801,0.25201c1.40329,0.16605 2.05481,0.3541 2.70799,0.492c1.33659,0.2822 2.05928,0.35236 2.81067,0.38931c0.77414,0.03809 1.56534,0.03534 2.76382,0.03601c0.79567,0.00046 1.57935,0 2.343,0c1.43584,0 2.10451,0 2.75717,0c0.98399,0 2.02133,0 2.75267,0c0.74733,0 1.86333,0 2.92599,0c0.66867,0 1.64667,0 2.30533,0c1.03734,0 2.14134,0 2.89067,0c0.74133,0 1.804,0 2.8,0c0.65067,0 1.30936,0.00815 2.70934,-0.00134c0.74138,-0.00504 1.49252,-0.01202 2.23199,-0.08398c1.06635,-0.10379 2.064,-0.34476 2.70934,-0.56134c0.66458,-0.22305 1.69624,-0.67358 2.42284,-1.0015c0.73141,-0.33008 1.76587,-0.83423 2.709,-1.10901c0.77026,-0.22443 1.50557,-0.22525 2.72816,-0.53082c0.55891,-0.13968 1.44742,-0.48456 2.31467,-1.04535c0.62059,-0.40131 1.16655,-0.93549 2.04283,-1.60416c0.7713,-0.58856 1.49979,-0.91687 2.40984,-1.10617c0.96437,-0.20059 1.78522,-0.38623 2.358,-0.56699c1.19342,-0.37665 1.80736,-0.54547 2.6685,-0.931c0.85722,-0.38379 1.61186,-0.9888 2.06816,-1.46368c0.6974,-0.72583 1.06641,-1.3241 2.138,-2.02267c0.52109,-0.33969 1.41039,-0.65341 2.61433,-0.85083c0.58798,-0.09641 1.52043,0.02344 2.55766,-0.564c0.56204,-0.3183 1.05521,-1.15729 1.91068,-1.6705c0.69392,-0.41632 1.45705,-0.63068 2.42667,-0.83398c0.7686,-0.16116 1.83409,-0.35944 2.55466,-0.69934c0.95369,-0.44986 1.39771,-1.05096 2.056,-1.70065c0.69083,-0.68176 1.44864,-1.0094 2.18933,-1.34818c0.86627,-0.39618 1.60974,-0.92163 2.10568,-1.62582c0.46616,-0.66187 1.21124,-1.55008 1.905,-1.92151c0.72354,-0.38739 1.64371,-0.78983 2.34399,-1.14651c0.96194,-0.48996 1.66934,-0.49411 2.39999,-0.672c1.1384,-0.27716 1.44623,-0.96625 2.41733,-1.60532c0.60355,-0.39719 1.45108,-0.36157 2.42883,-0.686c0.76245,-0.25299 1.66119,-0.57126 2.37384,-0.73135c1.04425,-0.23459 1.76804,-0.5376 2.69733,-0.74933c0.82486,-0.18796 1.87781,-0.13718 2.60535,-0.18799c0.84012,-0.05865 1.74234,-0.27921 2.6235,-0.68399c0.59412,-0.27292 1.38315,-0.83322 2.41916,-1.12402c0.85431,-0.23981 1.88516,-0.17065 2.66449,-0.17065c0.85419,0 1.68219,0 2.56351,0c0.95734,0 1.68933,0 2.80667,0c0.98401,0 1.65601,0 2.39999,0c1.108,0 1.90134,0 2.79333,0c0.95734,0 1.69318,0.08237 2.80667,-0.01068c0.99283,-0.08298 1.65356,-0.35028 2.39999,-0.564c1.10422,-0.31616 1.83438,-0.34286 2.79233,-0.44617c0.80035,-0.0863 1.73941,-0.36197 2.453,-0.74081c0.90814,-0.48212 1.29474,-1.10553 1.888,-1.75433c0.71454,-0.78143 1.5134,-1.11237 2.23199,-1.68533c0.6286,-0.50119 1.03806,-1.31577 1.52133,-1.97333c0.62552,-0.85107 1.51318,-1.1373 2.12119,-1.92551c0.43887,-0.56897 0.55908,-1.57455 0.94733,-2.24716c0.53638,-0.92926 1.05017,-1.68625 1.40533,-2.40985c0.37857,-0.7713 1.14569,-1.34647 1.55682,-2.07617c0.43433,-0.7709 0.33334,-1.70932 0.33334,-2.66666c0,-0.73199 0,-1.69016 0,-2.66666c0,-0.85419 0,-1.83334 0,-2.62268c0,-0.72534 0.41794,-1.93823 -0.0625,-2.68982c-0.48627,-0.76068 -1.45819,-0.51041 -2.60416,-0.52084c-0.81247,-0.00739 -1.65466,0 -2.508,0c-0.94269,0 -1.7948,-0.01343 -2.59335,0.00134c-0.98178,0.01816 -1.96359,0.04614 -2.69034,0.5195c-0.72427,0.47177 -1.28336,1.17105 -2.19434,1.431c-0.68503,0.19547 -1.53003,0.82764 -2.15717,1.34283c-0.66965,0.55011 -1.44974,0.66156 -2.24197,0.69632c-1.26169,0.05536 -1.94397,-0.05872 -2.94818,0.17566c-0.8089,0.18878 -1.49072,0.66934 -2.52084,0.8125c-1.01248,0.14072 -1.74048,0.02084 -2.53098,0.02084c-1.02667,0 -1.92734,0 -2.94818,0c-0.79999,0 -1.60001,0 -2.60001,0c-0.79999,0 -1.79999,0 -2.60001,0c-1,0 -1.79999,0 -2.79999,0c-0.78934,0 -1.53387,0.17175 -2.47916,-0.02084c-0.87573,-0.17844 -1.48312,-0.73566 -2.52618,-0.931c-0.73917,-0.13843 -1.7211,-0.3132 -2.33331,-0.90948c-0.6105,-0.5946 -1.31467,-1.38049 -2.00867,-1.83417c-0.76807,-0.50208 -1.55832,-0.84827 -2.25269,-1.40182c-0.75696,-0.60345 -0.91022,-1.46985 -1.15717,-2.01617c-0.54095,-1.19684 -0.89212,-1.77682 -1.3815,-2.6145c-0.29266,-0.50095 -0.77921,-1.62637 -1.02798,-2.60535c-0.17172,-0.67578 -0.47238,-1.4003 -0.71185,-2.52365c-0.15222,-0.71408 -0.10107,-1.69382 -0.34283,-2.68567c-0.1745,-0.71585 -0.42227,-1.45297 -0.69598,-2.48801c-0.18991,-0.7182 -0.63531,-1.4686 -1.26801,-2.14398c-0.63171,-0.67435 -1.29382,-1.3045 -1.91483,-1.92551c-0.53583,-0.53583 -1.22116,-1.22116 -1.89984,-1.89984c-0.51599,-0.51599 -1.21027,-1.29953 -1.80984,-1.6955c-0.90411,-0.59708 -1.72607,-0.76071 -2.42215,-1.18985c-0.84805,-0.52283 -1.18976,-1.43698 -1.97067,-1.94531c-0.67743,-0.44098 -1.81857,-0.47519 -2.51067,-0.78c-0.9556,-0.42087 -1.23683,-1.18564 -1.64833,-2.03751c-0.32903,-0.68112 -1.121,-1.1825 -1.9285,-1.39999l-0.7245,-0.5625" id="svg_1" stroke-width="2" stroke="#000" fill="none"/>
  <path t="5163,5280,5280,5296,5296,5297,5313,5313,5313,5313,5331,5332,5346,5347,5347,5363,5363,5363,5363,5380,5380,5381,5381,5396,5396,5397,5397,5397,5413,5413,5413,5413,5413,5430,5430,5430,5430,5431,5431,5446,5446,5447,5447,5447,5463,5464,5464,5464,5464,5464,5480,5480,5480,5481,5481,5496,5496,5497,5497,5497,5497,5513,5513,5513,5513,5513,5514,5530,5530,5530,5531,5531,5531,5546,5547,5547,5547,5547,5563,5563,5564,5564,5580,5580,5580,5581,5581,5596,5596,5597,5597,5613,5613,5614,5614,5614,5630,5630,5630,5631,5646,5647,5647,5647,5663,5664,5664,5665,5680,5680,5681,5681,5696,5697,5697,5697,5713,5713,5713,5730,5731,5731,5731,5731,5746,5746,5747,5747,5747,5763,5763,5763,5764,5780,5780,5781,5781,5781,5796,5797,5797,5797,5797,5813,5813,5813,5814" d="m180,343c-7.60533,-1.82935 -8.39514,-1.97916 -9.33333,-2c-0.68083,-0.01511 -1.48801,-0.00131 -2.66667,0c-0.59866,0.00067 -1.48456,-0.0293 -2.31467,0.08533c-1.01022,0.1395 -1.88412,0.50623 -2.68533,0.91467c-0.81001,0.41293 -1.47127,0.81244 -2.19966,1.76434c-0.43668,0.57068 -0.79095,1.2634 -1.086,1.992c-0.42879,1.05887 -0.55345,1.75983 -0.71434,2.7645c-0.11021,0.68823 -0.31947,1.81653 -0.56799,2.6485c-0.26781,0.89658 -0.45232,1.34531 -0.72667,2.2825c-0.40196,1.37308 -0.48933,1.82324 -0.591,2.6955c-0.09908,0.85001 -0.11057,1.70529 -0.11433,3.01932c-0.00131,0.45468 -0.01625,1.38803 0.0625,2.33334c0.07916,0.95029 0.08946,1.45163 0.60217,2.77832c0.34366,0.88922 0.62103,1.29868 1.20332,2.07501c0.58904,0.78531 1.28664,1.49295 2.01733,2.16135c0.36594,0.33475 1.1312,0.96997 1.91917,1.58081c0.3947,0.30597 1.59337,1.20728 1.99683,1.50183c0.80482,0.58759 1.62598,1.14548 2.05583,1.38834c1.28506,0.72607 1.75281,0.90732 2.7045,1.1955c0.96951,0.29358 1.48112,0.38733 2.52501,0.53085c1.07666,0.14804 2.19716,0.20624 2.76599,0.23083c0.57254,0.02475 1.72198,0.04883 2.29468,0.05267c1.68596,0.01135 2.23099,0.00449 3.291,0.00449c0.515,0 1.515,0 2,0c1.39499,0 2.27632,0 3.12566,0c0.82533,0 1.63475,0.01276 2.83583,-0.00067c0.79581,-0.00888 1.597,-0.00946 2.343,-0.228c1.12778,-0.33038 1.80255,-0.87775 2.39984,-1.50467c0.61063,-0.6409 0.88214,-1.00082 1.524,-2.10001c0.38979,-0.66751 0.80693,-1.66141 1.02432,-2.31934c0.33257,-1.0065 0.51782,-1.73016 0.69833,-2.48331c0.1851,-0.77225 0.3587,-1.56125 0.48917,-2.76401c0.08655,-0.79791 0.10735,-1.59988 0.117,-2.39999c0.0145,-1.19992 0.0045,-1.99869 0.0045,-2.78934c0,-1.1535 0,-2.24402 0,-2.92535c0,-0.96448 0,-1.58081 0,-2.78549c0,-0.60434 0.00031,-1.53583 0,-2.18515c-0.00067,-1.39868 0.00157,-2.14053 -0.036,-2.88934c-0.03722,-0.74203 -0.11432,-1.82462 -0.43201,-2.77866c-0.20544,-0.61694 -1.00636,-1.71133 -1.588,-2.16135c-0.62628,-0.48453 -1.37184,-0.88263 -2.14799,-1.284c-0.79184,-0.40948 -1.59634,-0.79803 -2.38535,-1.20132c-0.77632,-0.39679 -1.5294,-0.79285 -2.58949,-1.39969c-0.67563,-0.38678 -1.3241,-0.79935 -2.03101,-1.086c-1.09938,-0.44577 -1.95752,-0.56342 -2.8515,-0.64233c-0.45871,-0.0405 -1.39047,-0.06747 -2.77199,-0.07199c-0.88,-0.00287 -1.30501,0 -2.125,0c-1.155,0 -2.22034,0 -2.88901,0l-0.978,0l-0.65866,0" id="svg_2" stroke-width="2" stroke="#000" fill="none"/>
  <path t="6188,6295,6296,6296,6296,6296,6312,6313,6313,6313,6329,6330,6330,6330,6330,6330,6330,6345,6346,6346,6346,6346,6346,6346,6346,6362,6362,6362,6363,6363,6363,6363,6363,6363,6379,6380,6380,6380,6380,6380,6380,6380,6380,6395,6396,6396,6396,6396,6396,6397,6412,6412,6412,6413,6413,6413,6413,6413,6413,6429,6430,6430,6430,6430,6430,6430,6430,6445,6446,6446,6446,6446,6446,6446,6447,6447,6466,6466,6466,6466,6466,6466,6467,6467,6467,6487,6487,6487,6488,6488,6488,6488,6488,6508,6508,6508,6508,6509,6509,6509,6509,6542,6542,6542,6542,6542,6542,6543,6543,6543,6544,6544,6545,6545,6545,6545,6545,6545,6545,6564,6564,6564,6564,6564,6564,6565,6565,6565,6566,6566,6566,6566,6567,6567,6567,6567,6585,6585,6585,6585,6585,6585,6585,6586,6586,6605,6605,6605,6605,6605,6605,6606,6606,6606,6625,6626,6626,6626,6626,6626,6626,6626,6626,6647,6647,6647,6647,6648,6648,6648,6648,6648,6649,6650,6650,6650,6650,6650,6650,6650,6650,6669,6669,6669,6669,6669,6669,6669,6669,6670,6688,6688,6689,6689,6689,6689,6689,6689,6689,6708,6708,6708,6708,6708,6708,6708,6709,6709,6729,6729,6729,6730,6730,6730,6730,6730,6730,6732,6732,6732,6732,6732,6733,6733,6733,6733,6754,6754,6755,6755,6755,6755,6755,6756,6756,6777,6777,6777,6778,6778,6778,6778,6778,6778,6799,6799,6799,6799,6799,6800,6800,6800,6800,6820,6821,6821,6821,6821,6822,6822,6822,6822,6861,6861,6861,6861,6862,6862,6862,6862,6862,6889,6889,6890,6890,6890,6890,6890,6890,6891,6916,6916,6916,6917,6917,6917,6917,6917,6918,6940,6941,6941,6941,6941,6941,6942,6942,6942,6944,6944,6944,6944,6945,6945,6945,6945,6945,6947,6947,6948,6948,6948,6948,6948,6948,6949" d="m248,310c1.424,-1.76801 1.76888,-2.01822 2.5625,-2.5c0.83749,-0.50839 1.25935,-0.76044 2.495,-1.35733c0.73366,-0.3544 1.4653,-0.63794 2.205,-0.948c1.24086,-0.52011 2.19481,-0.96399 2.709,-1.2135c0.53787,-0.26102 1.09586,-0.53448 2.242,-1.14734c0.59305,-0.31711 1.78833,-0.99741 2.38666,-1.35535c0.60303,-0.36075 1.20596,-0.73309 2.42068,-1.49933c0.61597,-0.38855 1.23514,-0.78555 1.8645,-1.18048c1.2789,-0.80252 1.93512,-1.20041 2.59998,-1.59866c0.67078,-0.40179 1.35004,-0.80109 2.03552,-1.20001c0.68918,-0.40109 1.38336,-0.80054 2.08047,-1.20001c1.39804,-0.80112 2.09842,-1.19974 2.79602,-1.59866c0.69373,-0.39673 1.3815,-0.79034 2.061,-1.18048c0.66983,-0.38455 1.32776,-0.76291 1.97098,-1.1355c1.23819,-0.71722 2.40314,-1.40158 2.96985,-1.72818c0.55994,-0.32269 1.11859,-0.64203 1.6875,-0.9465c1.16046,-0.62106 2.41147,-1.21481 3.07748,-1.51083c0.68729,-0.30545 1.39832,-0.60443 2.1225,-0.91049c0.73416,-0.31027 1.47504,-0.62149 2.21252,-0.9465c0.73587,-0.32431 2.1713,-1.0022 2.85782,-1.36435c0.67615,-0.35669 1.3316,-0.73074 1.97101,-1.11447c0.63327,-0.38004 1.25491,-0.76819 2.46933,-1.56534c1.20691,-0.79224 1.8024,-1.19958 2.40533,-1.59866c0.60571,-0.40094 1.21722,-0.80228 1.83899,-1.20001c0.62888,-0.40228 1.26941,-0.80542 1.92902,-1.20001c1.35602,-0.81119 2.07019,-1.20309 2.79733,-1.59866c0.73553,-0.40015 1.48166,-0.7926 2.23199,-1.18048c0.74832,-0.38681 1.49417,-0.76465 2.23199,-1.1355c1.43372,-0.72061 2.12543,-1.0632 2.79733,-1.40134c0.65674,-0.33051 1.30038,-0.65536 1.92902,-0.98401c1.23605,-0.64621 1.84497,-0.9736 3.04166,-1.66666c0.60339,-0.34946 1.20276,-0.71722 1.80899,-1.086c0.61243,-0.37256 1.22556,-0.75961 2.50534,-1.49469c0.65277,-0.37494 2.0155,-1.09329 2.72852,-1.431c0.72302,-0.34244 1.46463,-0.66565 2.21848,-0.97498c0.7572,-0.3107 1.52243,-0.60428 2.2905,-0.88501c0.76398,-0.27924 2.28073,-0.79745 3.02686,-1.04034c0.73654,-0.23975 1.46848,-0.46927 2.19598,-0.69598c0.72516,-0.22595 1.45108,-0.44943 2.17801,-0.67801c0.73172,-0.23007 2.215,-0.71106 2.96851,-0.96884c0.76251,-0.26086 1.52811,-0.53268 2.29349,-0.81448c0.76559,-0.28189 1.52527,-0.57147 2.27551,-0.8685c0.74173,-0.29367 2.17798,-0.89212 2.86716,-1.19568c0.67615,-0.29782 1.33847,-0.60193 1.992,-0.91049c0.65179,-0.30775 1.30292,-0.62212 2.61865,-1.27467c1.367,-0.67799 2.07507,-1.03577 2.80136,-1.39999c0.74069,-0.37144 1.49246,-0.74969 2.2515,-1.1355c0.76498,-0.38884 1.53229,-0.78114 2.29648,-1.18051c1.51865,-0.79364 2.26123,-1.19821 2.99734,-1.59599c0.72824,-0.39354 1.44781,-0.78423 2.16449,-1.161c0.70868,-0.37256 1.41165,-0.73714 2.11951,-1.071c1.39236,-0.65672 2.09927,-0.93291 2.80002,-1.20267c0.69495,-0.26753 1.39096,-0.51653 2.08047,-0.76801c0.68515,-0.24988 1.36801,-0.49452 2.03552,-0.76801c1.32764,-0.54395 1.96783,-0.8679 2.60266,-1.20267c0.63828,-0.33658 1.26953,-0.69872 1.9035,-1.071c0.64206,-0.37703 1.2872,-0.77036 1.94849,-1.161c1.36035,-0.80357 2.07144,-1.20125 2.80133,-1.59599c0.74146,-0.401 1.49933,-0.79466 2.271,-1.18051c0.77765,-0.38885 1.56451,-0.76976 2.36102,-1.1355c1.59177,-0.7309 2.39624,-1.06621 3.19598,-1.40134c0.79593,-0.33353 1.59103,-0.65778 2.38049,-0.98399c0.78522,-0.32446 1.56653,-0.64613 2.33551,-0.98399c1.52441,-0.66977 2.26581,-1.03372 3.00134,-1.40001c0.73312,-0.36508 1.45865,-0.74133 2.18399,-1.116c0.72534,-0.37466 1.44968,-0.75331 2.18399,-1.116c1.47678,-0.7294 2.23508,-1.06799 3.00134,-1.39734c0.76941,-0.33069 1.54868,-0.64519 2.33551,-0.94499c0.78787,-0.3002 1.58124,-0.58713 2.38049,-0.85501c1.59396,-0.53424 2.39783,-0.76808 3.19867,-1.00266c0.79919,-0.23409 1.60001,-0.45868 2.39999,-0.68401c0.79999,-0.22533 1.60135,-0.44807 2.39999,-0.68401c1.60275,-0.47346 2.40149,-0.73317 3.20001,-1.00266c0.80151,-0.27051 1.60162,-0.55563 2.39999,-0.85501c0.80164,-0.30061 1.60263,-0.61362 2.39999,-0.94499c1.60538,-0.66719 2.40076,-1.03322 3.20132,-1.396c0.80377,-0.36423 1.608,-0.73502 2.41953,-1.09651c0.81381,-0.36252 1.63156,-0.72281 2.46448,-1.0515c1.67212,-0.65985 2.53403,-0.93297 3.39868,-1.20132c0.8667,-0.269 1.74133,-0.51733 2.616,-0.76801c0.87466,-0.25067 1.75061,-0.49478 2.616,-0.76801c1.72412,-0.54436 2.56583,-0.86707 3.39999,-1.20267c0.83456,-0.33575 1.66052,-0.69719 2.48401,-1.071c0.82724,-0.37552 1.65274,-0.76723 2.48401,-1.161c1.68274,-0.7971 2.5368,-1.1981 3.39865,-1.59734c0.86514,-0.40077 1.73245,-0.79904 2.5965,-1.2c0.85995,-0.39905 1.71313,-0.79553 2.55151,-1.2c1.64023,-0.79129 2.42795,-1.19753 3.20132,-1.60001c0.76395,-0.39757 1.51733,-0.8 2.26801,-1.2c0.75067,-0.39999 1.50323,-0.80403 2.26801,-1.2c1.5611,-0.80826 2.37488,-1.20505 3.21866,-1.60533c0.87952,-0.41725 1.8114,-0.84169 2.80499,-1.278c1.05966,-0.46532 2.20105,-0.95087 3.435,-1.45801c2.76828,-1.13774 4.32822,-1.7455 5.97736,-2.39333c1.71381,-0.67323 3.46814,-1.35564 5.23349,-2.04451c1.75064,-0.68314 3.46085,-1.3484 5.09851,-1.9995c2.96732,-1.1797 4.2428,-1.70882 5.37866,-2.192c1.0116,-0.43033 1.90433,-0.82428 2.68948,-1.1835c0.69333,-0.31721 1.30084,-0.60661 1.8345,-0.8685c0.89664,-0.44002 1.27554,-0.63539 1.62534,-0.808c0.32492,-0.16034 0.63373,-0.31007 0.936,-0.4485c0.30038,-0.13756 0.60925,-0.27246 0.936,-0.40349c0.7276,-0.29176 1.14859,-0.44016 1.59866,-0.60001c0.47089,-0.16724 0.95599,-0.332 1.44452,-0.49651l0.48346,-0.1595l0.46954,-0.15149l0.44647,-0.1405" id="svg_3" stroke-width="2" stroke="#000" fill="none"/>
  <path t="7388,7512,7513,7513,7513,7530,7530,7530,7530,7530,7530,7545,7545,7545,7545,7545,7545,7562,7562,7562,7562,7563,7563,7579,7579,7580,7580,7580,7580,7580,7596,7596,7596,7596,7596,7596,7612,7612,7613,7613,7613,7629,7629,7629,7630,7630,7645,7646,7646,7646,7646,7662,7662,7662,7662,7663,7681,7681,7681,7681,7681,7704,7704,7704,7704,7705,7728,7728,7729,7729,7751,7752,7752,7752,7752,7775,7775,7775,7775,7775,7795,7795,7795,7795,7816,7816,7816,7817,7818,7818,7818,7819,7819,7819,7819,7840,7840,7840,7861,7861,7861,7861,7862,7862,7863,7863,7863,7884,7884,7884,7885,7908,7908,7908,7908,7909,7932,7932,7932,7932,7933,7933,7933,7935,7935,7935,7935,7935,7957,7958,7958,7958,7958,7981,7981,7981,7981,7981,7981,7983,7983,7983,7983,7983,8004,8004,8004,8004,8004,8005,8027,8027,8027,8027,8027,8027,8027,8048,8048,8048,8049,8049,8049,8049,8086,8087,8087,8087,8087,8109,8109,8109,8110,8110,8110,8110,8112,8112,8112,8112,8112,8112,8113,8114,8114,8114,8114,8114,8115,8115,8116,8116,8116,8116,8116,8117,8139,8140,8140,8140,8140,8141,8141,8162,8163,8163,8163,8163,8163,8163,8165,8165,8165,8165,8166,8166,8191,8191,8191,8192,8192,8192,8192,8214,8214,8214,8214,8215,8216,8216,8216,8217,8217,8217,8238,8238,8239,8239,8239,8262,8262,8262,8263,8263,8263,8265,8265,8265,8265,8265,8266,8287,8287,8287,8288,8288,8288,8288,8310,8311,8311,8311,8311,8332,8333,8333,8333,8333,8356,8356,8356,8356,8356,8357,8379,8380,8380,8380,8380,8380,8402,8402,8402,8403,8403,8403,8405,8405,8405,8405,8405,8406,8408,8408,8409,8409,8409,8432,8432,8432,8433,8433,8434,8435,8435,8435,8459,8459,8459,8460,8482,8482,8482,8505,8505,8505,8506,8506,8529,8529,8530,8553,8554,8554,8554,8556,8557,8557,8557,8557,8559,8559,8559,8582,8583,8583,8583,8585,8585,8585,8608,8609,8645,8646,8673,8674,8674,8700,8700,8701,8703,8703,8703,8730,8730,8730,8730,8731,8733,8733,8733,8733,8734,8760,8760,8760,8761,8761,8784,8784,8784,8784,8808,8809,8846,8846,8846,8869,8870,8870,8870" d="m258,337c4.51733,-2.11734 5.18851,-2.37769 5.86133,-2.66135c0.71146,-0.29993 1.88312,-0.87881 2.30933,-1.108c0.90442,-0.4863 1.36874,-0.75565 2.33835,-1.28247c0.49252,-0.26761 1.98959,-1.02948 2.48965,-1.26419c0.98825,-0.46384 1.48431,-0.67596 2.44418,-1.13666c0.47375,-0.22739 1.83917,-0.96365 2.27451,-1.23267c0.87445,-0.54034 1.30136,-0.83881 2.19247,-1.41916c0.4584,-0.29855 1.93051,-1.19962 2.4595,-1.49283c0.53799,-0.29822 1.64902,-0.86633 2.216,-1.13068c0.56406,-0.26297 1.11804,-0.53961 2.793,-1.12933c0.53085,-0.18692 1.57593,-0.48895 2.08002,-0.64267c0.98181,-0.29941 1.48441,-0.40262 2.82016,-1.04285c0.88589,-0.42462 1.28967,-0.71198 2.11084,-1.24249c0.81351,-0.52557 1.60355,-1.06 2.41064,-1.52933c0.79321,-0.46124 1.59906,-0.87653 2,-1.08084c1.19717,-0.61008 1.99686,-1.00967 2.80002,-1.39383c0.79691,-0.38116 1.18881,-0.58179 2.39999,-1.04401c0.79312,-0.30267 1.60501,-0.53793 2.39999,-0.828c0.80533,-0.29382 2.00415,-0.87433 2.39999,-1.108c0.80878,-0.47745 1.59863,-1.01807 2,-1.28247c1.19592,-0.78778 1.99591,-1.26779 2.78934,-1.71219c0.38849,-0.21759 1.16034,-0.61929 2.24402,-1.23599c0.68707,-0.39099 1.33044,-0.80887 1.992,-1.164c1.32077,-0.70898 2.05542,-0.96484 2.81064,-1.20001c0.77029,-0.23987 1.56476,-0.43698 2.76401,-0.73581c0.39981,-0.09961 1.19757,-0.30106 2,-0.46417c0.79776,-0.16217 1.99957,-0.31577 2.79102,-0.38785c0.76724,-0.06989 1.86832,-0.13101 2.76633,-0.49081c0.827,-0.33133 1.51541,-0.93533 2.37601,-1.224c0.94977,-0.31857 1.68805,-0.30701 2.41849,-0.3815c1.08237,-0.11038 2.09161,-0.29083 2.70651,-0.47269c0.86288,-0.25519 1.849,-0.70422 2.5625,-0.95831c0.7392,-0.26324 1.94998,-0.43661 2.65115,-0.50616c0.74948,-0.07434 1.54544,-0.12598 2.728,-0.45752c0.81207,-0.22769 1.60001,-0.578 2.39999,-0.909c0.40002,-0.1655 1.59589,-0.63943 2.40002,-0.89099c0.79611,-0.24905 1.59955,-0.45432 2.79999,-0.75717c0.8024,-0.20242 1.62231,-0.40707 2.47198,-0.63599c0.44287,-0.11932 1.86194,-0.52878 2.3707,-0.68533c1.06387,-0.32739 1.60776,-0.50467 2.70667,-0.85333c0.54523,-0.17297 1.07874,-0.35443 2.60767,-0.80383c0.92636,-0.27228 1.37006,-0.38916 2.22165,-0.61084c0.81775,-0.21286 2.02405,-0.50143 2.82584,-0.71967c0.81906,-0.22293 1.65707,-0.49374 2.08084,-0.66168c1.3512,-0.53546 2.27176,-1.03479 2.75067,-1.28c0.97452,-0.49893 1.46268,-0.75656 1.96533,-0.98132c1.4823,-0.66281 1.99573,-0.80505 2.98798,-1.11734c0.97311,-0.30627 1.47467,-0.40332 2.84402,-0.98401c0.45316,-0.19217 1.31787,-0.67303 2.1875,-1.16666c0.44019,-0.24985 1.3309,-0.77332 2.3125,-1.16666c1.02087,-0.40906 1.57993,-0.53195 2.13864,-0.68268c1.14719,-0.30945 1.7406,-0.44351 2.33069,-0.61865c1.80872,-0.53683 2.39703,-0.79559 2.98831,-1.04184c0.59009,-0.24576 1.73816,-0.77313 2.29468,-1.04199c0.5448,-0.26318 2.07166,-1.02686 2.54633,-1.26419c0.91736,-0.45865 1.36801,-0.68399 2.27335,-1.13666c1.42801,-0.71399 1.93784,-0.96817 2.46399,-1.23267c1.09271,-0.54929 1.65213,-0.83435 2.216,-1.12534c0.56711,-0.29266 2.2493,-1.18704 2.79318,-1.4895c0.53745,-0.29889 1.58725,-0.90756 2.10065,-1.22067c0.51196,-0.31223 1.52612,-0.95483 2.52084,-1.64581c0.50339,-0.34967 0.9993,-0.71698 2,-1.448c0.49963,-0.36499 0.98672,-0.74356 2,-1.41602c0.98746,-0.6553 1.4903,-0.94553 2.50449,-1.45499c0.5015,-0.25192 1.5289,-0.69958 2.05267,-0.90533c1.60172,-0.62918 2.16376,-0.81027 2.72684,-1.009c1.14044,-0.4025 1.71609,-0.5997 2.29068,-0.80002c0.57275,-0.19968 2.2598,-0.79694 2.80383,-1.00015c1.06656,-0.39838 1.5874,-0.60583 2.10065,-0.82068c1.02026,-0.42706 1.5289,-0.6456 3.021,-1.40033c0.50446,-0.25516 1.509,-0.79648 2.02069,-1.05798c0.51364,-0.26251 1.5535,-0.77979 2.64581,-1.1875c0.54935,-0.20505 1.68115,-0.52933 2.24802,-0.68268c1.12329,-0.30392 1.68134,-0.43777 2.216,-0.61865c1.54507,-0.52264 2.00708,-0.78696 2.90799,-1.28268c0.88312,-0.48593 1.28537,-0.79361 2.62799,-1.41599c0.44727,-0.20734 1.38345,-0.53204 2.33334,-0.8125c0.47342,-0.13977 1.42664,-0.3717 2.77866,-0.84235c0.44107,-0.15353 1.29831,-0.50935 2.14667,-0.88916c0.86102,-0.38547 1.74066,-0.79088 2.65869,-1.19067c0.46832,-0.20395 1.41812,-0.61481 1.89066,-0.83466c0.94571,-0.44 1.86783,-0.91541 2.74268,-1.44934c0.87741,-0.53549 1.30133,-0.83881 2.19247,-1.41917c0.4584,-0.29854 1.41763,-0.90578 2.45819,-1.49416c0.53436,-0.30214 1.07999,-0.59576 2.18134,-1.16534c0.54401,-0.28134 1.08347,-0.54904 2.60748,-1.31467c0.47141,-0.23682 1.36661,-0.68501 2.18585,-1.14665c0.39413,-0.22209 1.50293,-0.92558 2.17331,-1.46001c0.6713,-0.53517 1.30609,-1.129 1.96802,-1.716c0.67932,-0.60243 1.39413,-1.2104 2.17334,-1.78799c0.40021,-0.29665 1.25339,-0.86749 1.71466,-1.12534c1.44662,-0.80862 1.99338,-1.00755 3.07864,-1.46001c0.54803,-0.22849 1.10706,-0.43138 2.18134,-0.90933c1.04312,-0.4641 1.53165,-0.72588 2.45819,-1.26416c0.89536,-0.52017 1.31073,-0.81564 2.19247,-1.2825c0.87112,-0.46123 1.79709,-0.81342 2.74268,-1.108c0.47263,-0.14723 1.42422,-0.40199 1.89066,-0.54399c1.36938,-0.4169 2.23114,-0.7648 3.06317,-1.13817c0.41235,-0.18504 1.22055,-0.57841 2.42068,-1.17917c0.79636,-0.39862 1.58035,-0.79802 1.96417,-1c0.75272,-0.39612 1.81314,-1.00244 2.48331,-1.39551c0.9758,-0.57231 1.6207,-0.95668 2.67386,-1.383c0.71704,-0.29025 1.45947,-0.49579 2.16898,-0.717c1.26993,-0.39595 2.06302,-0.70685 2.56052,-0.94051c1.09131,-0.51256 1.71722,-0.85101 2.41064,-1.18933c0.72247,-0.35249 1.44739,-0.71098 2.51721,-1.15317c0.97797,-0.40421 1.61041,-0.61201 2.82147,-1.0215c0.60114,-0.20325 1.53076,-0.51955 2.15717,-0.81433c1.0271,-0.48332 1.72968,-0.94748 2.45752,-1.43634c0.36658,-0.24623 1.06213,-0.76384 2.052,-1.416c0.81287,-0.53552 1.53796,-0.93541 2.5,-1.33333c0.78278,-0.32376 1.6507,-0.62062 2.23462,-0.88533c0.90948,-0.41232 1.7854,-0.9276 2.32672,-1.28934c0.95337,-0.63715 1.79486,-1.07088 2.15045,-1.92566c0.33746,-0.81122 0.12152,-1.67033 0.12152,-2.44135c0,-0.86099 0.01007,-2.05728 -0.01068,-2.64766c-0.03003,-0.85423 -0.14801,-1.91479 -0.55182,-2.8315c-0.22253,-0.50526 -0.9765,-1.62505 -1.45184,-2.2935c-0.25543,-0.35922 -0.80573,-1.10797 -1.38831,-1.88834c-0.59601,-0.79832 -1.20203,-1.59207 -1.776,-2.39734c-0.28326,-0.39743 -0.85016,-1.17651 -1.48804,-2.39999c-0.20477,-0.39279 -0.52448,-1.19685 -0.83331,-1.97917c-0.302,-0.765 -0.80798,-1.871 -1.26666,-2.53282c-0.44916,-0.6481 -1.03979,-1.13528 -1.73334,-2.15468c-0.53497,-0.78633 -0.66608,-1.66682 -0.85266,-2.34766c-0.22125,-0.80721 -0.48065,-1.98567 -0.59467,-2.88116l-0.05267,-0.58368l-0.08398,-0.83549" id="svg_4" stroke-width="2" stroke="#000" fill="none"/>
  <path t="9503,9595,9595,9595,9595,9595,9595,9595,9595,9612,9612,9612,9612,9613,9613,9613,9613,9629,9629,9629,9629,9629,9629,9629,9630,9630,9645,9645,9645,9645,9646,9646,9646,9646,9646,9662,9662,9662,9662,9662,9662,9663,9663,9663,9679,9679,9679,9679,9679,9679,9680,9680,9680,9695,9695,9695,9695,9695,9696,9696,9696,9696,9712,9712,9712,9712,9713,9713,9713,9713,9713,9729,9729,9729,9729,9729,9730,9730,9730,9730,9744,9745,9745,9745,9745,9745,9745,9745,9745,9762,9762,9762,9763,9763,9763,9763,9764,9764,9779,9779,9779,9779,9780,9780,9780,9780,9780,9795,9796,9796,9796,9796,9796,9797,9797,9797,9814,9814,9814,9814,9814,9814,9814,9815,9815,9833,9833,9833,9833,9833,9833,9833,9833,9833,9852,9852,9852,9852,9853,9853,9853,9853,9853,9872,9873,9873,9873,9873,9873,9873,9873,9873,9892,9893,9893,9893,9893,9893,9893,9893,9894,9912,9912,9912,9912,9912,9912,9912,9913,9913,9929,9930,9930,9930,9930,9930,9930,9930,9930,9950,9950,9950,9950,9951,9951,9951,9951,9951,9982,9982,9983,9983,9983,9983,9983,9983,9983,10015,10015,10015,10015,10015,10015,10015,10016,10016,10017,10017,10017,10018,10018,10018,10018,10018,10018,10020,10020,10020,10020,10020,10020,10021,10021,10021,10023,10023,10023,10023,10024,10024,10024,10024,10024,10056,10057,10057,10057,10057,10058,10058,10058,10058,10060,10060,10060,10060,10061,10061,10061,10061,10061,10063,10063,10063,10063,10063,10064,10064,10064,10064,10109,10109,10109,10110,10110,10110,10110,10110,10110,10141,10141,10141,10142,10142,10142,10142,10142,10143,10144,10144,10145,10145,10145,10145,10145,10146,10146,10147,10148,10148,10148,10148,10148,10149,10149,10149,10150,10151,10151,10151,10151,10151,10152,10152,10152,10183,10184,10184,10184,10184,10184,10185,10185,10185,10187,10187,10187,10187,10188,10188,10188,10188,10189,10224,10224,10225,10225,10225,10225,10225,10226,10226,10228,10228,10228,10228,10229,10229,10229,10229,10229,10231,10231,10232,10232,10232,10232,10232,10233,10233,10263,10264,10264,10264,10264,10265,10265,10265,10265,10267,10267,10268,10268,10268,10268,10268,10269,10269,10299,10300,10300,10300,10300,10300,10301,10301,10301,10303,10304,10304,10304,10304,10305,10305,10305,10305,10337,10338,10338,10339,10339,10339,10339,10340,10340,10342,10342,10343,10343,10343,10343,10375,10375,10376,10376,10376,10376,10377" d="m148,366c6.83333,-5.66666 7.46657,-6.17358 8.74733,-7.07666c0.62158,-0.43826 1.24788,-0.84778 1.87801,-1.23001c0.6227,-0.37775 1.24458,-0.74905 2.54134,-1.35999c0.64812,-0.30536 1.31686,-0.56998 1.99049,-0.828c0.67706,-0.25934 2.05461,-0.75299 2.74733,-1.01068c0.69797,-0.25964 2.09859,-0.82114 2.79601,-1.13766c0.7067,-0.32074 1.41417,-0.66898 2.1315,-1.02899c0.73172,-0.36725 1.47508,-0.75113 2.2395,-1.13699c0.78357,-0.39554 2.42636,-1.19568 3.29266,-1.591c0.88699,-0.40479 1.79756,-0.80182 2.7225,-1.20001c0.93338,-0.40182 1.87373,-0.79907 2.8125,-1.19998c0.93456,-0.39911 2.76904,-1.19659 3.65784,-1.60001c0.87386,-0.39664 1.72978,-0.79767 2.571,-1.20001c0.83144,-0.39767 1.65126,-0.79877 2.463,-1.19998c0.80693,-0.39883 2.40891,-1.2002 3.20917,-1.60001c0.80107,-0.40021 1.60393,-0.80081 2.41049,-1.20001c0.80977,-0.40079 1.62468,-0.80133 2.4465,-1.19998c0.82751,-0.4014 2.50879,-1.20154 3.36417,-1.60001c0.86195,-0.40152 1.73117,-0.80038 2.604,-1.20001c0.8745,-0.40036 1.74968,-0.79922 2.62199,-1.19998c0.86902,-0.39926 2.58664,-1.19864 3.4315,-1.60001c0.83914,-0.39865 1.67282,-0.80042 2.5065,-1.20001c0.83531,-0.40039 1.67502,-0.80206 2.52451,-1.19998c0.85851,-0.40213 2.62238,-1.20255 3.5325,-1.60001c0.92186,-0.40259 1.85429,-0.79929 2.78699,-1.20001c0.92931,-0.39926 1.84987,-0.79581 2.75101,-1.19998c0.88283,-0.39597 2.55646,-1.19333 3.33434,-1.60001c0.75273,-0.39355 1.47565,-0.79831 2.18399,-1.20001c0.70232,-0.39828 1.40079,-0.80334 2.112,-1.19998c0.72343,-0.40344 2.25285,-1.20654 3.07468,-1.59985c0.84746,-0.40558 1.72395,-0.7988 2.616,-1.18948c0.89729,-0.39297 1.7973,-0.77478 2.688,-1.1535c0.87463,-0.37192 2.54535,-1.08746 3.325,-1.43585c0.74831,-0.33438 1.46709,-0.66632 2.16299,-0.99597c0.68207,-0.32309 1.3526,-0.64948 2.01901,-0.97803c0.66959,-0.33011 2.03668,-1.01459 2.74649,-1.3685c0.7262,-0.36209 1.46585,-0.72934 2.21851,-1.09348c0.75835,-0.36688 1.522,-0.72839 2.2905,-1.0755c0.76353,-0.34488 2.27931,-0.98221 3.02684,-1.26718c0.73523,-0.28027 1.46814,-0.53879 2.19598,-0.79199c0.72482,-0.25214 1.45172,-0.49844 2.17801,-0.75601c0.73236,-0.25974 2.21646,-0.82205 2.96851,-1.13748c0.76407,-0.32047 1.52869,-0.66336 2.29349,-1.01852c0.7662,-0.35583 1.5249,-0.7222 2.27551,-1.09048c0.74136,-0.36374 2.17627,-1.08191 2.86716,-1.42667c0.6745,-0.33658 1.33655,-0.66599 1.992,-0.9855c0.64987,-0.3168 1.30005,-0.62805 1.95599,-0.93149c0.66138,-0.30594 2.02658,-0.90793 2.73752,-1.20435c0.72507,-0.30231 1.46579,-0.59875 2.21848,-0.8895c0.75833,-0.29294 1.52295,-0.57764 2.2905,-0.85352c0.76443,-0.27478 2.28085,-0.79251 3.02634,-1.03583c0.73322,-0.23932 1.45605,-0.4675 2.16452,-0.69598c0.69519,-0.22421 1.37622,-0.4462 2.03848,-0.67801c0.64841,-0.22696 1.88867,-0.70676 2.47617,-0.96899c0.57788,-0.25793 1.1398,-0.53525 1.69202,-0.82501c0.55316,-0.29025 1.10248,-0.59796 1.65601,-0.91498c0.56384,-0.32294 1.72736,-1.0061 2.33783,-1.35968c0.62814,-0.3638 1.2742,-0.73395 1.93948,-1.104c0.67834,-0.37735 1.37247,-0.75354 2.0835,-1.12201c0.71964,-0.37292 2.19794,-1.09164 2.95517,-1.431c0.76013,-0.34067 1.52948,-0.66464 2.30402,-0.97498c0.77283,-0.30966 1.54794,-0.60379 2.32199,-0.88501c0.76733,-0.27875 2.28531,-0.79718 3.03101,-1.04034c0.73428,-0.23947 1.46017,-0.46811 2.17499,-0.69598c0.7052,-0.22479 1.40112,-0.44736 2.08502,-0.67801c0.67612,-0.22803 1.99716,-0.70859 2.63983,-0.96866c0.63599,-0.25735 1.25723,-0.52783 1.8645,-0.80402c0.59641,-0.27124 1.17551,-0.54755 1.73849,-0.82199c0.54764,-0.26697 1.58527,-0.78644 2.07648,-1.03134c0.47681,-0.23773 0.94525,-0.47025 1.41302,-0.69598c0.47021,-0.22693 0.9509,-0.45309 1.44897,-0.67801c0.51788,-0.23386 1.64627,-0.71579 2.26617,-0.96899c0.65341,-0.26691 1.33868,-0.53918 2.04752,-0.82501c0.72949,-0.29416 1.47473,-0.59668 2.22748,-0.91498c0.76062,-0.32166 2.27502,-0.99979 3.01752,-1.35968c0.73752,-0.35748 1.46149,-0.72849 2.17499,-1.104c0.70651,-0.37186 1.4003,-0.74878 2.08502,-1.12201c0.67529,-0.3681 1.99408,-1.08771 2.64047,-1.43134c0.63763,-0.33899 1.2724,-0.66983 1.90652,-0.99597c0.63489,-0.32654 1.2757,-0.65131 1.9245,-0.97803c0.65918,-0.33194 2.0231,-1.01477 2.73315,-1.3685c0.72726,-0.3623 1.46985,-0.7301 2.229,-1.09348c0.76816,-0.36768 1.54681,-0.72971 2.33701,-1.0755c0.7912,-0.34622 2.38834,-0.98392 3.19083,-1.267c0.79626,-0.28088 1.5947,-0.53613 2.3895,-0.78152c0.78888,-0.24356 1.5751,-0.47455 2.35352,-0.7095c0.77225,-0.23309 2.29242,-0.71292 3.03598,-0.97348c0.74045,-0.25949 1.47455,-0.53604 2.20651,-0.82501c0.73709,-0.29099 1.47693,-0.59775 2.22449,-0.91498c0.7605,-0.32272 2.3237,-1.00461 3.13284,-1.35968c0.8255,-0.36224 1.66269,-0.73123 2.508,-1.104c0.84937,-0.37457 1.69858,-0.74954 2.54401,-1.12201c0.83725,-0.36887 2.47186,-1.08624 3.26248,-1.43134c0.77338,-0.33755 1.53329,-0.668 2.28152,-0.99599c0.74075,-0.32471 1.47665,-0.64919 2.2095,-0.978c0.73517,-0.32985 2.21948,-1.01189 2.97314,-1.36884c0.76367,-0.36169 1.53232,-0.73366 2.30402,-1.1145c0.77567,-0.38281 1.55035,-0.77266 2.32199,-1.1685c0.76971,-0.39484 2.28659,-1.1944 3.03116,-1.59517c0.73676,-0.39658 1.46335,-0.7932 2.18552,-1.17899c0.71417,-0.38152 1.42279,-0.75438 2.1315,-1.10701c0.70068,-0.34865 2.10159,-0.98807 2.80466,-1.27167c0.69836,-0.28171 1.40347,-0.53972 2.1105,-0.79199c0.70932,-0.25308 1.42618,-0.49892 2.14648,-0.75601c0.72906,-0.26022 2.21207,-0.82181 2.96417,-1.13766c0.76532,-0.32141 1.53345,-0.66681 2.30402,-1.02899c0.77682,-0.36513 1.55093,-0.74614 2.32199,-1.13701c0.77029,-0.39049 2.28671,-1.1897 3.03134,-1.59082c0.73804,-0.39755 1.46805,-0.79681 2.19598,-1.18951c0.72473,-0.39098 1.44882,-0.77823 2.17801,-1.15349c0.72949,-0.37543 2.21191,-1.09508 2.96884,-1.436c0.76175,-0.34311 1.53555,-0.67325 2.31448,-1.0065c0.78476,-0.33574 1.57645,-0.67198 2.3685,-1.02451c0.79865,-0.35547 2.39874,-1.11722 3.1955,-1.53282c0.80334,-0.41904 1.60086,-0.86113 2.40002,-1.308c0.80084,-0.4478 1.59827,-0.90175 2.39999,-1.34401c0.79831,-0.44038 2.39673,-1.27878 3.19949,-1.66234c0.79333,-0.37904 1.58575,-0.73155 2.3685,-1.071c0.76828,-0.33318 1.52454,-0.6494 2.2605,-0.963c0.71603,-0.3051 2.07367,-0.90445 2.70734,-1.20883c0.61298,-0.29445 1.20187,-0.59521 1.7775,-0.8895c0.56604,-0.2894 1.12482,-0.57848 1.6875,-0.8535c0.56396,-0.27565 1.72992,-0.79704 2.34183,-1.03568c0.62277,-0.24286 1.26154,-0.46762 1.90802,-0.6855c0.64822,-0.21848 1.29858,-0.42552 1.944,-0.63148c0.63727,-0.20337 1.87289,-0.60185 2.46249,-0.8045c0.57437,-0.19742 1.13348,-0.39871 1.68149,-0.60001c0.54099,-0.19872 1.07596,-0.40016 1.6095,-0.59999c0.53445,-0.20018 1.61832,-0.60051 2.17285,-0.80017c0.56015,-0.20168 1.12366,-0.4016 1.68298,-0.6105c0.55539,-0.20744 1.10135,-0.41901 1.629,-0.6465c0.51501,-0.22203 1.47205,-0.70105 1.90302,-0.96416c0.41702,-0.25459 1.18723,-0.80504 1.564,-1.07867c0.75647,-0.54942 1.99432,-1.34438 2.46417,-1.57867c0.98694,-0.49216 1.52249,-0.696 2.05667,-0.92133l1.07831,-0.45267l0.53418,-0.23134" id="svg_5" stroke-width="2" stroke="#000" fill="none"/>
  <path t="10784,10878,10879,10879,10879,10879,10895,10895,10895,10895,10895,10895,10895,10895,10895,10911,10912,10912,10912,10912,10912,10912,10912,10913,10928,10929,10929,10929,10929,10929,10929,10929,10929,10948,10948,10949,10949,10949,10949,10949,10949,10949,10967,10967,10967,10967,10967,10967,10967,10968,10968,10984,10984,10984,10984,10984,10984,10984,10984,10985,11001,11001,11001,11002,11002,11002,11002,11002,11002,11018,11018,11018,11018,11018,11018,11019,11019,11019,11038,11038,11038,11038,11038,11039,11039,11039,11039,11056,11056,11056,11056,11056,11056,11056,11056,11056,11075,11075,11075,11075,11075,11075,11075,11075,11075,11093,11094,11094,11094,11094,11094,11094,11094,11094,11113,11113,11113,11113,11113,11114,11114,11114,11114,11164,11164,11164,11164,11164,11164,11164,11164,11165,11197,11197,11197,11197,11197,11197,11197,11197,11198,11230,11230,11230,11230,11230,11230,11231,11231,11231,11232,11232,11232,11232,11233,11233,11233,11233,11233,11234,11234,11234,11235,11235,11235,11235,11235,11235,11236,11236,11237,11237,11237,11237,11237,11237,11237,11276,11277,11277,11277,11277,11277,11277,11277,11277,11279,11279,11279,11280,11280,11280,11280,11280,11280,11282,11282,11282,11282,11282,11282,11282,11282,11283,11317,11317,11318,11318,11318,11318,11318,11318,11318,11320,11320,11320,11320,11320,11321,11321,11321,11321,11356,11356,11357,11357,11357,11357,11357,11357,11357,11359,11359,11359,11360,11360,11360,11360,11360,11360,11395,11395,11396,11396,11396,11396,11396,11396,11397,11431,11431,11431,11431,11431,11432,11432,11432,11432,11434,11434,11434,11434,11434,11435,11435,11435,11435,11473,11474,11474,11474,11474,11474,11475,11475,11475,11477,11477,11477,11477,11477,11478,11478,11478,11478,11512,11513,11513,11513,11513,11513,11514,11514,11514,11550,11550,11550,11550,11550,11551,11551,11551,11551,11553,11553,11553,11553,11554,11554,11554,11554,11555" d="m175,364c2.34534,-0.28934 3.17793,-0.46033 3.64583,-0.58334c1.04831,-0.2756 1.62363,-0.4519 2.85417,-0.91666c0.66962,-0.2529 1.36244,-0.55319 2.08501,-0.88049c0.7576,-0.34314 1.54176,-0.72009 2.355,-1.1235c0.84686,-0.4201 1.72289,-0.86517 3.56,-1.82935c0.96619,-0.50708 1.95877,-1.03732 2.976,-1.59c1.04414,-0.56729 2.10941,-1.15631 3.192,-1.76999c1.1048,-0.62625 2.22984,-1.26584 4.49867,-2.64001c1.15923,-0.70212 2.31947,-1.43338 3.49049,-2.172c1.17964,-0.74405 2.3622,-1.49698 3.5535,-2.24399c1.19237,-0.74768 2.37857,-1.50308 4.78934,-2.91733c1.19409,-0.7005 2.39705,-1.3681 3.60001,-2.01901c1.19708,-0.64774 2.39836,-1.27585 3.59999,-1.89301c1.19838,-0.61551 2.39955,-1.21957 4.8,-2.42133c1.19943,-0.60046 2.39795,-1.19879 3.591,-1.79999c1.18828,-0.59879 2.36859,-1.19754 3.537,-1.80002c1.15892,-0.59756 2.30768,-1.18823 4.53867,-2.39999c1.09348,-0.59393 2.16307,-1.19659 3.21899,-1.79099c1.04274,-0.58694 2.07104,-1.17026 3.093,-1.73703c1.01073,-0.56055 2.00743,-1.12329 4.02133,-2.13864c0.99457,-0.50143 1.99791,-0.9686 3,-1.42352c0.99794,-0.45306 1.99963,-0.88983 3,-1.32449c0.99963,-0.43436 2.00471,-0.85739 4,-1.75198c1.00226,-0.44937 1.99969,-0.91513 2.99551,-1.38602c0.99487,-0.47043 1.98383,-0.94696 2.96848,-1.422c0.97903,-0.47229 1.94806,-0.94684 3.86935,-1.85867c0.94403,-0.44803 1.88226,-0.88354 2.814,-1.314c0.92694,-0.42822 1.85287,-0.8522 2.77798,-1.27798c0.92755,-0.42688 1.86127,-0.85318 3.74133,-1.74133c0.95615,-0.45169 1.91821,-0.91696 2.8905,-1.3815c0.97839,-0.46747 1.96182,-0.93506 2.95352,-1.3905c0.99194,-0.45557 1.98093,-0.91565 3.98932,-1.728c0.995,-0.40247 1.9964,-0.76794 2.991,-1.12802c0.98672,-0.35724 1.96869,-0.70163 2.93701,-1.056c0.95901,-0.35098 1.9155,-0.68417 3.73865,-1.48267c0.89795,-0.39328 1.76843,-0.82999 2.62802,-1.27649c0.85776,-0.44556 1.70529,-0.91107 2.556,-1.37549c0.85461,-0.46658 1.70663,-0.95291 3.48267,-1.84802c0.90417,-0.45569 1.83322,-0.8862 2.77649,-1.30499c0.94876,-0.42123 1.90912,-0.82465 2.87549,-1.215c0.96466,-0.38965 1.92877,-0.76865 3.84802,-1.48001c0.9436,-0.34973 1.88156,-0.68332 2.80948,-1.01849c0.92142,-0.33282 1.83792,-0.66483 2.74652,-1.00949c0.90775,-0.34433 1.81943,-0.68466 3.61066,-1.47202c0.90894,-0.39954 1.83151,-0.84628 2.79901,-1.32599c1.03799,-0.51465 2.15939,-1.09055 3.39297,-1.72202c1.36578,-0.69916 2.88049,-1.48428 6.47467,-3.28531c2.10004,-1.05234 4.38177,-2.1752 6.79651,-3.36002c2.50388,-1.22858 5.05737,-2.47394 7.61551,-3.72c2.51953,-1.22726 4.95975,-2.41104 9.42133,-4.58667c1.94916,-0.95047 3.70874,-1.81317 5.30399,-2.59048c1.45016,-0.7066 2.77753,-1.35083 4.00803,-1.9335c1.14899,-0.54407 2.23773,-1.06143 4.35464,-1.97601c1.05081,-0.45398 2.11523,-0.88455 3.18152,-1.314c1.06573,-0.42923 2.1319,-0.8504 3.19049,-1.27798c1.05243,-0.42508 2.1015,-0.83707 4.12799,-1.74133c0.9953,-0.44412 1.96588,-0.91354 2.92352,-1.38602c0.95035,-0.46887 1.88876,-0.94772 2.82449,-1.422c0.93329,-0.47305 1.86035,-0.95718 3.75198,-1.85867c0.9509,-0.45316 1.91574,-0.88498 2.88602,-1.30948c0.97107,-0.42484 1.94675,-0.83768 2.922,-1.24652c0.97208,-0.4075 1.94305,-0.80518 3.85867,-1.61066c0.94601,-0.39778 1.88132,-0.79866 2.80948,-1.1955c0.92117,-0.39384 1.83557,-0.78551 2.74652,-1.1685c0.9054,-0.38066 1.80466,-0.76245 3.61066,-1.46933c0.89771,-0.35138 1.79984,-0.68445 2.70001,-1.01851c0.89984,-0.33394 1.80133,-0.6655 2.69998,-1.00949c0.90134,-0.34502 1.80991,-0.68509 3.60001,-1.472c0.90533,-0.39798 1.80319,-0.83218 2.7045,-1.2765c0.90805,-0.44766 1.81613,-0.91142 2.73151,-1.3755c0.92096,-0.46692 1.84171,-0.9478 3.73065,-1.84799c0.95093,-0.45317 1.91574,-0.88501 2.88602,-1.30951c0.97104,-0.42484 1.94678,-0.83768 2.922,-1.24649c0.97211,-0.4075 1.94312,-0.80505 3.85867,-1.61067c0.94604,-0.39787 1.88187,-0.79872 2.80948,-1.2c0.92172,-0.39873 1.83667,-0.79926 2.74652,-1.2c0.90649,-0.39926 1.80954,-0.79955 3.61066,-1.60001c0.90027,-0.4001 1.80222,-0.80075 2.7045,-1.209c0.90704,-0.4104 1.81812,-0.82895 2.73151,-1.263c0.92297,-0.43858 1.8576,-0.88266 3.73065,-1.86133c0.96201,-0.50264 1.94196,-1.04559 2.96701,-1.6125c1.08432,-0.59969 2.23972,-1.2446 3.48901,-1.92751c1.3519,-0.739 2.82013,-1.54434 6.21066,-3.29333c1.92383,-0.9924 3.9903,-2.02211 6.15298,-3.093c2.22125,-1.09988 4.47131,-2.20012 6.711,-3.29099c2.19229,-1.06778 4.30502,-2.08858 8.13602,-3.94934c1.65857,-0.8056 3.14578,-1.53105 4.4805,-2.1855c1.20258,-0.58965 2.29065,-1.1263 3.28348,-1.6185c0.91751,-0.45486 1.77756,-0.88359 3.40268,-1.696c0.80008,-0.39996 1.60062,-0.80014 2.39999,-1.2045c0.80063,-0.40498 1.60123,-0.814 2.39999,-1.23151c0.80124,-0.41881 1.6059,-0.83875 3.20001,-1.73067c0.80283,-0.44919 1.59927,-0.91498 2.39551,-1.3815c0.79443,-0.46547 1.5827,-0.93269 2.36847,-1.39049c0.77789,-0.45319 1.54218,-0.90767 3.06934,-1.72801c0.74152,-0.3983 1.48254,-0.76837 2.21851,-1.12799c0.73206,-0.3577 1.46906,-0.70523 2.20953,-1.056c0.74854,-0.35457 1.513,-0.7072 3.07196,-1.48267c0.81134,-0.40358 1.62958,-0.83023 2.45404,-1.2585c0.82086,-0.42639 1.62769,-0.84885 2.41797,-1.24951c0.75916,-0.38489 1.47192,-0.76541 2.79468,-1.32533c0.56525,-0.23927 1.0827,-0.41679 1.54797,-0.552c0.41248,-0.11986 0.78534,-0.198 1.11603,-0.26399l0.29468,-0.052l0.26263,-0.04401" id="svg_6" stroke-width="2" stroke="#000" fill="none"/>
  <path t="12032,12161,12161,12161,12161,12161,12162,12162,12178,12178,12179,12179,12179,12179,12179,12179,12179,12195,12195,12195,12195,12195,12195,12195,12195,12195,12214,12214,12214,12214,12214,12214,12214,12214,12214,12231,12232,12232,12232,12232,12232,12232,12232,12232,12250,12250,12250,12250,12250,12250,12250,12250,12250,12268,12268,12268,12268,12268,12268,12268,12268,12268,12288,12288,12288,12288,12288,12288,12288,12289,12289,12325,12325,12325,12325,12325,12325,12325,12325,12325,12327,12328,12328,12328,12328,12328,12328,12328,12328,12347,12347,12347,12347,12348,12348,12348,12348,12348,12349,12349,12349,12349,12349,12350,12350,12350,12350,12368,12368,12368,12368,12368,12369,12369,12369,12369,12389,12389,12389,12390,12390,12390,12390,12390,12390,12408,12409,12409,12409,12409,12409,12409,12409,12409,12431,12431,12431,12431,12431,12431,12431,12431,12432,12451,12451,12451,12451,12452,12452,12452,12452,12452,12488,12489,12489,12489,12489,12489,12489,12489,12489,12525,12525,12525,12526,12526,12526,12526,12526,12526,12528,12528,12528,12528,12528,12528,12529,12529,12529,12530,12530,12530,12531,12531,12531,12531,12531,12531,12569,12569,12569,12570,12570,12570,12570,12570,12570,12572,12572,12572,12573,12573,12573,12573,12573,12573,12612,12612,12612,12612,12613,12613,12613,12613,12613,12652,12652,12652,12652,12653,12653,12653,12653,12653,12655,12655,12655,12655,12655,12656,12656,12656,12656,12694,12695,12695,12695,12695,12695,12695,12696,12696,12734,12734,12734,12734,12734,12734,12735,12735,12735,12737,12737,12737,12737,12737,12737,12738,12738,12738,12778,12778,12779,12779,12779,12779,12779,12779,12780,12818,12819,12819,12819,12819,12819,12820,12820,12820,12822,12822,12822,12822,12822,12823,12823,12823,12823,12864,12864,12864,12865,12865,12865,12865,12865,12865,12905,12905,12905,12905,12905,12906,12906,12906,12906,12908,12909,12909,12909,12909,12909,12910,12910,12910,12951,12951,12951,12951,12951,12952,12952,12952,12952,12995,12996,12996,12996,12996,12996,12997,12997,12997,13040,13040,13040,13040,13041,13041,13041,13041,13041,13044,13044,13044,13044,13045,13045,13045,13045,13045,13104,13105,13105,13105,13106,13106,13106,13106,13106,13146,13146,13147,13147,13147,13147,13147,13148,13148" d="m177,375c5.06483,-0.22198 5.65991,-0.28024 6.2805,-0.37067c1.32664,-0.1933 2.02545,-0.33926 2.74733,-0.50534c0.74898,-0.1723 2.30876,-0.6142 3.11549,-0.88882c0.8335,-0.28375 1.68304,-0.60818 2.55,-0.96451c0.8932,-0.36713 1.80257,-0.76907 2.73001,-1.19849c0.95267,-0.4411 2.91185,-1.40182 3.91916,-1.91501c1.02609,-0.52274 2.05998,-1.06387 3.0975,-1.6185c1.04083,-0.5564 2.07491,-1.12115 3.0975,-1.69049c1.01071,-0.56271 2.96387,-1.67917 3.89816,-2.22668c0.91101,-0.53387 1.79787,-1.06345 2.66699,-1.58548c0.8562,-0.51428 1.70093,-1.026 2.541,-1.53152c0.83727,-0.50381 2.52177,-1.50659 3.37767,-2.00433c0.86143,-0.50095 1.73026,-0.99759 2.604,-1.48947c0.87358,-0.49176 1.74831,-0.97653 2.62199,-1.45352c0.86766,-0.47369 2.58511,-1.39218 3.43117,-1.83566c0.8353,-0.43784 1.66374,-0.86548 2.4855,-1.28549c0.81458,-0.41632 1.62503,-0.82593 2.4315,-1.23151c0.80287,-0.40375 2.4045,-1.2045 3.2045,-1.60449c0.8,-0.39999 1.59999,-0.80002 2.39999,-1.20001c0.8,-0.39999 1.60002,-0.79999 2.40001,-1.19998c0.8,-0.40002 2.39989,-1.20023 3.19983,-1.59985c0.79872,-0.39905 1.59526,-0.79648 2.3895,-1.18948c0.78944,-0.39066 1.57396,-0.77615 2.3535,-1.1535c0.77113,-0.37329 2.28946,-1.09277 3.03551,-1.43552c0.73399,-0.33722 1.45895,-0.66235 2.17499,-0.97498c0.70399,-0.30734 1.39896,-0.60254 2.08501,-0.88501c0.67398,-0.2775 1.99434,-0.79675 2.64034,-1.0405c0.63669,-0.2402 1.26913,-0.4718 1.896,-0.70651c0.62579,-0.23431 1.25229,-0.47195 1.87799,-0.72449c0.633,-0.25546 1.91635,-0.8186 2.569,-1.133c0.66745,-0.3215 1.34058,-0.66589 2.02502,-1.01852c0.69556,-0.35837 1.39877,-0.72638 2.11499,-1.09048c0.72379,-0.36792 2.20291,-1.08609 2.95984,-1.427c0.76178,-0.34311 1.53555,-0.67325 2.31448,-1.0065c0.78476,-0.33575 1.57645,-0.672 2.3685,-1.02451c0.79865,-0.35547 2.39935,-1.11606 3.1955,-1.53333c0.80399,-0.42136 1.60349,-0.86975 2.40002,-1.33951c0.80353,-0.47388 1.60294,-0.97006 2.39999,-1.48349c0.80298,-0.51724 2.40164,-1.59811 3.19949,-2.15466c0.79819,-0.55679 1.58664,-1.11887 2.3685,-1.67252c0.76913,-0.54465 1.52145,-1.07703 2.2605,-1.58249c0.7131,-0.48773 2.06714,-1.3649 2.70734,-1.73849c0.60678,-0.35406 1.1994,-0.67041 1.7775,-0.96301c0.56366,-0.28531 1.12659,-0.55215 1.6875,-0.819c0.56573,-0.26913 1.73474,-0.83267 2.34201,-1.147c0.62885,-0.3255 1.27026,-0.67429 1.91849,-1.04999c0.6629,-0.38422 1.32867,-0.79285 1.99051,-1.23001c0.67032,-0.44278 1.98672,-1.40344 2.62698,-1.91934c0.64383,-0.5188 1.27359,-1.06198 1.90652,-1.60797c0.63608,-0.54868 1.27179,-1.10373 1.9245,-1.64401c0.6553,-0.54242 2.01648,-1.58231 2.73315,-2.06235c0.72076,-0.48279 1.46725,-0.93573 2.229,-1.371c0.76563,-0.43747 1.54745,-0.85422 2.33701,-1.26297c0.79181,-0.40994 2.3912,-1.20862 3.19064,-1.60901c0.79788,-0.3996 1.59216,-0.7984 2.37903,-1.20001c0.78049,-0.39838 1.55087,-0.79706 2.30698,-1.19998c0.74524,-0.39713 2.18314,-1.19632 2.87186,-1.60019c0.67795,-0.39755 1.34253,-0.80286 2.00247,-1.21048c0.66174,-0.40872 1.32617,-0.8262 2.0025,-1.24652c0.69031,-0.42902 2.13583,-1.31229 2.90451,-1.76566c0.80725,-0.47614 1.67075,-0.97256 2.60101,-1.4985c1.00565,-0.56857 2.10318,-1.17874 3.30298,-1.84048c1.31216,-0.72372 4.32886,-2.3718 6.04852,-3.30869c1.83633,-1.00046 3.75745,-2.0455 5.72849,-3.12149c1.98996,-1.08633 3.96524,-2.16708 5.8905,-3.22949c1.84668,-1.01901 5.16415,-2.87387 6.57468,-3.685c1.25455,-0.72141 2.36435,-1.37564 3.34949,-1.96951c0.88501,-0.53351 1.68188,-1.02713 2.41351,-1.48349c0.68567,-0.42767 1.98871,-1.24341 2.64798,-1.64166c0.68069,-0.41119 1.40265,-0.8345 2.1825,-1.2735c0.845,-0.47568 1.77774,-0.9816 2.8125,-1.52551c1.14505,-0.6019 3.8461,-1.96933 5.42218,-2.74918c1.70114,-0.84174 3.50104,-1.71997 5.36401,-2.62799c1.89435,-0.92331 3.78998,-1.84399 5.65198,-2.754c1.79932,-0.87936 5.07803,-2.49805 6.49884,-3.21817c1.28168,-0.6496 2.43509,-1.24765 3.47852,-1.79849c0.95413,-0.50369 1.8309,-0.97687 2.65048,-1.4205c0.77908,-0.42172 2.28015,-1.23405 3.03885,-1.63251c0.77994,-0.40962 1.59894,-0.82941 2.47198,-1.263c0.93555,-0.46465 1.95306,-0.95544 3.06601,-1.479c1.21756,-0.57277 4.0372,-1.85878 5.6575,-2.58499c1.73563,-0.77791 3.55774,-1.58636 5.4285,-2.424c1.89023,-0.84636 3.7666,-1.69038 5.59048,-2.53201c1.74802,-0.80661 4.86755,-2.30431 6.17502,-2.98683c1.15994,-0.6055 2.17477,-1.17519 3.0705,-1.7025c0.80695,-0.47504 1.53088,-0.92844 2.20651,-1.3425c0.64044,-0.39252 1.90479,-1.12668 2.57599,-1.4635c0.70074,-0.35165 1.45651,-0.69174 2.2695,-1.03799c0.87387,-0.37219 1.82721,-0.75398 2.86349,-1.164c1.12766,-0.44617 3.70071,-1.45143 5.15601,-2.02499c1.54874,-0.6104 3.16254,-1.24918 4.8165,-1.899c1.66504,-0.65417 3.31473,-1.29936 4.9245,-1.91701c1.53827,-0.59019 4.3009,-1.61836 5.48117,-2.02733c1.04144,-0.36086 1.96753,-0.66052 2.793,-0.909c0.73611,-0.22157 1.40482,-0.40457 2.01898,-0.567c0.57523,-0.15213 1.67795,-0.43764 2.233,-0.59634c0.57303,-0.16385 1.16702,-0.34557 1.78802,-0.54599c0.65704,-0.21205 1.35284,-0.4482 2.09399,-0.70801c0.79495,-0.27867 2.56244,-0.92274 3.54431,-1.28783c1.03683,-0.38551 2.11066,-0.78979 3.207,-1.20151c1.10233,-0.41396 2.19409,-0.8242 3.26102,-1.2195c1.02377,-0.37932 2.88199,-1.05138 3.68948,-1.3295c0.72464,-0.24959 1.37933,-0.465 1.96951,-0.66299c0.5368,-0.18008 1.03003,-0.3465 1.48349,-0.51901c0.43051,-0.16379 1.24368,-0.53102 1.64185,-0.74699c0.41272,-0.22386 0.83481,-0.47974 1.284,-0.75c0.48151,-0.2897 1.00018,-0.60428 1.57199,-0.92999c0.62268,-0.35469 2.07315,-1.11591 2.91418,-1.51967c0.90414,-0.43405 1.87155,-0.87306 2.88449,-1.32901c1.04736,-0.47144 2.12216,-0.94739 3.20853,-1.437c1.091,-0.49171 3.23822,-1.48541 4.27014,-1.99066c1.00537,-0.49223 1.97388,-0.98651 2.90399,-1.479c0.89716,-0.47502 1.75177,-0.94504 2.56201,-1.407c0.771,-0.43959 2.16809,-1.27766 2.79169,-1.67101c0.5816,-0.36688 1.11792,-0.71907 1.617,-1.05c0.46619,-0.30913 0.89996,-0.60202 1.31097,-0.87c0.38641,-0.25192 1.11023,-0.69504 1.45831,-0.88049c0.33478,-0.17839 0.66736,-0.336 0.99603,-0.48151c0.32404,-0.14346 0.65051,-0.27628 0.97797,-0.4095c0.33124,-0.13477 1.01508,-0.41612 1.36816,-0.57317c0.36029,-0.16025 0.71979,-0.32851 1.07251,-0.504c0.34558,-0.17192 0.67334,-0.34933 0.98248,-0.522l0.28418,-0.16867" id="svg_7" stroke-width="2" stroke="#000" fill="none"/>
 </g>
 <g display="none">
  <title>muse_image</title>
  <image xlink:href="http://farm4.static.flickr.com/3414/3619604164_0747a31c9f.jpg" id="muse" height="480" width="374" y="0" x="133"/>
 </g>
 <g display="none">
  <title>bbox</title>
  <rect stroke="#f00" fill="none" stroke-width="3" height="231.36" width="303.99487" y="221.76" x="192.45641" id="bbox"/>
 </g>
</svg>
