<svg width="640" height="480" xmlns="http://www.w3.org/2000/svg" xmlns:svg="http://www.w3.org/2000/svg" xmlns:xlink="http://www.w3.org/1999/xlink">
 <!-- Sketchy ANNOTATION
  ImageNet ID: n03467517_3203
  URL: http://www.foto-diana.nl/webfoto's/kris%20met%20gitaar%20close-up%20bew.%20kl.jpg
  Image Width: 600
  Image Height: 400
  BBox X: 195
  BBox Y: 230
  BBox Width: 343
  BBox Height: 150
  Exposure: 2000ms
  Synset Label: guitar
  Synset ID: n03467517
  Worker Tag: man holding acoustic guitar
  Sanity Check: 
   Saved
  Comment: 
   {}
  Worker ID: AXD2DZ7U6CK35
  Assignment ID: 3JNQLM5FT4MP5RMOWCTW66XPA9ML23
  HIT ID: 3VJ4PFXFJ37F606SS39AERHLVG8UAK
  Work Time: 46s
  Worker Score: 0.6024
 END ANNOTATION -->
 <g display="inline">
  <title>Layer 1</title>
  <path t="0,12,12,12,12,17,17,17,25,39,56,73,73,73,92,92,92,107,107,123,123,124,140,140,141,157,157,173,173,190,190,191,207,207,208,223,223,223,240,241,241,257,257,258,273,273,274,274,274,290,290,291,291,307,307,308,323,323,323,324,341,341,358,358,358,358,373,373,373,390,390,408,408,408,423,424,424,441,441,457,457,473,473,490,490,507,507,507,523,523,523,541,541,541,557,557,573,573,574,574,590,590,591,607,607,607,623,623,623,640,641,657,657,658,673,673,673,674,690,690,690,691,707,707,708,723,723,724,740,741,741,757,757,773,773,774,790,791,791,807,807,808,823,823,823,840,857,858,858,874,874,891,891,891,911,911,911,924,924,941,941,941,958,958,974,974,974,991,991,991,1007,1008,1008,1023,1024,1024,1024,1041,1041,1041,1041,1057,1057,1058,1074,1074,1074,1074,1091,1091,1091,1091,1091,1108,1108,1108,1108,1123,1124,1124,1141,1141,1141,1141,1157,1158,1173,1174,1174,1174,1174,1191,1191,1191,1207,1208,1208,1208,1224,1224,1224,1242,1242,1242,1242,1257,1258,1258,1258,1273,1274,1274,1274,1291,1291,1291,1292,1308,1308,1308,1309,1323,1324,1341,1341,1341,1342,1358,1358,1358,1358,1373,1374,1374,1392,1393,1393,1393,1393,1408,1408,1408,1408,1424,1424,1424,1441,1442,1442,1458,1458,1459,1474,1474,1474,1474,1491,1491,1491,1492,1508,1508,1509,1524,1524,1524,1541,1541,1542,1542,1558,1558,1558,1558,1574,1574,1574,1574,1591,1591,1609,1609,1624,1624,1624,1641,1641,1641,1658,1658,1674,1674,1674,1692,1692,1692,1693,1708,1708,1724,1724,1741,1741,1758,1758,1758,1774,1774,1791,1808,1809,1823,1842,1858,1874,1874,1874,1892,1892,1893,1907,1907,1923,1923,1923,1940,1941,1941,1957,1957,1957,1973,1973,1973,1990,1990,1990,2007,2007,2007,2007,2023,2023,2023,2040,2040,2040,2057,2057,2057,2057,2073,2073,2074,2074,2090,2090,2090,2107,2107,2107,2124,2124,2124,2141,2141,2158,2158,2173,2173,2190,2190,2190,2207,2207,2223,2223,2223,2240,2240,2240,2257,2274,2274,2274,2289,2290,2307,2307,2323,2323,2323,2340,2340,2341,2357,2357,2357,2374,2374,2374,2390,2391,2407,2407,2407,2407,2423,2423,2440,2440,2457,2458,2458,2473,2473,2491,2491,2491,2507,2507,2523,2523,2523,2523,2540,2540,2541,2541,2557,2557,2573,2574,2574,2592,2592,2607,2608,2608,2622,2623,2640,2640,2657,2657,2657,2673,2673,2673,2690,2691,2691,2708,2708,2723,2723,2741,2741,2757,2758,2772,2773,2773,2790,2790,2807,2807,2823,2824,2840,2840,2840,2857,2857,2873,2873,2890,2890,2906,2907,2925,2925,2941,2942,2957,2958,2973,2973,2974,2990,2990,2990,3007,3007,3007,3022,3023,3023,3041,3041,3057,3057,3057,3073,3073,3073,3090,3090,3107,3107,3122,3140,3141,3157,3157,3173,3173,3173,3190,3190,3190,3207,3207,3207,3223,3223,3240,3241,3241,3258,3258,3258,3273,3273,3273,3290,3290,3307,3307,3323,3341,3341,3357,3357,3373,3373,3390,3390,3391,3406,3407,3407,3422,3423,3423,3423,3440,3440,3473,3473,3490,3506" d="m327,274c-1.70532,1.19867 -2.11826,1.30688 -3.02084,1.47916c-0.91818,0.17526 -2.14825,0.33728 -2.99332,0.46817c-0.78174,0.12109 -1.52298,0.79977 -2.38583,1.01666c-0.88226,0.22177 -1.93335,0.03601 -2.60983,0.03601c-0.77551,0 -1.82352,0 -2.75418,0c-0.6315,0 -1.63733,0 -2.47198,0c-1.18533,0 -1.98935,0 -2.53867,0c-1.30383,0 -1.98935,0 -2.82401,0c-1.00134,0 -1.80133,0 -2.80133,0c-0.80002,0 -1.80017,0 -2.62085,0c-0.66449,0 -1.66522,0.01944 -2.5,-0.02084c-0.88184,-0.04254 -2.07993,-0.26001 -2.67917,-0.40448c-0.90115,-0.21729 -1.79803,-0.42462 -2.6955,-0.522c-0.86691,-0.09406 -1.94162,-0.20517 -2.66083,-0.40533c-0.74521,-0.20743 -1.9422,-0.49536 -2.69699,-0.56332c-0.83203,-0.07492 -1.2684,-0.07095 -2.14584,-0.13669c-1.26904,-0.09509 -2.03259,-0.22006 -3.05917,-0.44733c-0.63425,-0.14041 -1.84009,-0.39508 -2.44165,-0.44284c-0.89838,-0.07129 -2.10001,-0.05716 -2.69867,-0.05716c-0.88049,0 -1.71619,0.0184 -2.71735,-0.00134c-0.90982,-0.01794 -1.8559,-0.14474 -2.64114,-0.35583c-0.85983,-0.23114 -1.4418,-0.45135 -2.64151,-0.84149c-0.87878,-0.28577 -1.43259,-0.50275 -2.47983,-0.67984c-0.89359,-0.15112 -1.92151,-0.12149 -2.73218,-0.12149c-0.87466,0 -1.87332,0 -2.68933,0c-0.81601,0 -1.81467,0 -2.68933,0c-1.0105,0 -1.78983,0 -2.644,0c-0.91934,0 -1.82834,0 -2.62834,0c-0.95982,0 -1.77432,0 -2.64284,0c-0.89549,0 -1.79099,0 -2.6595,0c-1.06932,0 -1.77882,-0.00058 -2.63148,0c-1.00717,0.00067 -1.88094,0.00406 -2.93784,0.16666c-0.63792,0.09814 -1.31512,0.26935 -2.36134,0.48068c-0.97005,0.19592 -1.79787,0.28055 -2.51999,0.37799c-1.2115,0.16351 -2.00879,0.4071 -2.56001,0.54935c-1.05522,0.27231 -1.99692,0.35266 -2.82399,0.50934c-0.81276,0.15396 -1.62326,0.548 -2.56801,0.74933c-0.78178,0.1666 -1.66771,0.13971 -2.83333,0.5c-0.616,0.1904 -1.1981,0.53146 -2.10001,1.01849c-0.89812,0.48499 -1.79321,0.89667 -2.37917,1.12732c-0.83235,0.32764 -1.84546,0.70428 -2.52083,1.04169c-0.69336,0.34637 -1.69156,0.95135 -2.21466,1.31516c-0.78943,0.54904 -1.65677,1.35245 -2.12401,1.95334c-0.42265,0.54352 -1.15894,1.30872 -1.836,1.836c-0.67264,0.52383 -1.17867,1.22528 -1.70934,1.97598c-0.57724,0.81659 -1.1496,1.39474 -1.632,2.08401c-0.49843,0.71216 -0.85188,1.53845 -1.17949,2.362c-0.40938,1.02908 -0.66357,1.72897 -1.10451,2.466c-0.45467,0.75998 -1.05556,1.64902 -1.17467,2.32266c-0.1346,0.76129 -0.37941,1.76974 -0.636,2.39999c-0.48354,1.18771 -0.68469,1.71838 -0.98933,2.53867c-0.39401,1.06091 -0.73936,1.75162 -1.04283,2.62085c-0.27632,0.79147 -0.34009,1.60443 -0.35716,2.60449c-0.01366,0.79996 -0.04903,1.61038 -0.35266,2.60449c-0.26352,0.86279 -0.53575,1.81573 -0.62201,2.62085c-0.08795,0.82098 -0.21982,1.86224 -0.46133,2.54932c-0.24182,0.68796 -0.67229,1.64386 -0.96399,2.46133c-0.30881,0.86542 -0.61185,1.76022 -0.89551,2.66852c-0.19171,0.61389 -0.45503,1.57578 -0.58299,2.61682c-0.08957,0.72867 -0.10762,1.47855 -0.117,2.22601c-0.01796,1.43091 0.0303,2.0932 -0.0405,3.00598c-0.08412,1.08463 -0.33641,1.80209 -0.53867,2.58002c-0.15674,0.60287 -0.31618,1.7514 -0.36818,2.68182c-0.02776,0.49649 -0.05046,1.51947 -0.05583,2.53418c-0.00504,0.95065 -0.00133,1.79465 -0.00133,2.54266c0,0.99448 0,2.20798 0,2.80798c0,0.89999 0,2.10001 0,2.69867c0,0.88049 -0.01773,1.71619 0.00133,2.71866c0.01796,0.94446 0.15585,2.01785 0.28401,2.65201c0.1403,0.69418 0.3172,1.41818 0.51599,2.14801c0.38177,1.40167 0.61519,2.03967 0.84151,2.97815c0.21671,0.89859 0.29953,1.80496 0.38249,2.7045c0.05536,0.60031 0.25552,1.80078 0.40001,2.40002c0.21727,0.90115 0.46227,2.09921 0.52199,2.7045c0.09178,0.93024 0.10568,1.58539 0.27417,2.61682c0.18132,1.10992 0.38094,1.8555 0.57983,2.59467c0.28683,1.06595 0.50006,1.7309 0.79868,2.70935c0.20093,0.65839 0.502,1.69543 0.7,2.42731c0.20204,0.7468 0.39107,1.49719 0.7,2.58069c0.28723,1.00742 0.5096,1.61719 0.71466,2.47998c0.23677,0.99625 0.28212,1.95215 0.45201,3.02002c0.10165,0.63892 0.25996,1.33032 0.444,2.052c0.37051,1.45291 0.58168,2.13043 0.78932,2.76797c0.28938,0.88855 0.68889,1.93057 1.01067,2.63202c0.33485,0.72995 0.75244,1.5498 1.24651,2.52451c0.36107,0.71231 0.545,1.08011 0.94417,1.8075c0.58611,1.06805 1.19353,2.0434 1.56267,2.672c0.356,0.60623 0.8317,1.50323 1.2,2.39999c0.34787,0.84698 0.62906,1.647 1.036,2.58533c0.29498,0.68021 0.69632,1.64835 1.01067,2.46133c0.22261,0.57574 0.74683,1.76895 1.07333,2.36401c0.33208,0.60519 0.88864,1.48679 1.34933,2.39999c0.29794,0.59058 0.6387,1.48193 0.96533,2.31467c0.39409,1.00476 0.70511,1.6947 1.08667,2.36932c0.57468,1.01608 0.94832,1.55353 1.32533,2.12668c0.78447,1.19257 1.18556,1.79056 1.58934,2.37866c0.39632,0.57721 1.19327,1.64969 1.59999,2.12668c0.59035,0.69235 1.21872,1.35315 1.79984,2.10532c0.60953,0.78894 0.97321,1.3476 1.31483,1.89468c0.61647,0.98721 1.0191,1.87442 1.58551,2.66266c0.49007,0.68201 1.21324,1.35104 1.73582,1.84668c0.55998,0.5311 1.37242,1.14072 2.14317,1.67465c0.54167,0.37524 1.22269,1.18814 1.7735,1.84732c0.6821,0.81628 1.30405,1.16354 2.01933,1.53668c0.86372,0.45056 1.53365,0.75943 2.54134,1.29065c0.63643,0.33551 1.63062,0.94189 2.29066,1.41467c0.71585,0.51276 1.42287,0.86841 2.22932,1.41068c0.69154,0.465 1.47981,1.11499 2.1875,1.5c0.57399,0.31229 1.5569,0.83664 2.32201,1.14282c0.88211,0.353 1.79552,0.74326 2.45717,1.07318c0.84335,0.42056 1.79578,0.32904 2.62134,0.70932c0.90746,0.418 1.58992,0.50891 2.364,0.60001c1.05023,0.1236 1.74738,0.35849 2.61017,0.62201c0.99411,0.30362 1.80447,0.34732 2.80484,0.35266c0.84131,0.00449 1.57031,0 2.44232,0c1.008,0 1.70667,0 3.02399,0c0.56268,0 1.51202,0 2.53351,0c0.82068,0 1.48517,0 2.48651,0c0.85498,0 1.79999,0 2.8345,0c0.72699,0 1.45798,0 2.50949,0c0.92648,0 1.70801,0.00064 2.65201,0c1.00266,-0.00067 1.84131,0.01312 2.71866,-0.08533c0.90341,-0.10135 1.81049,-0.34653 2.43466,-0.52533c0.65057,-0.18637 2.04694,-0.58832 2.77866,-0.78934c0.72427,-0.19897 1.42844,-0.36453 2.616,-0.80002c0.75708,-0.27762 1.44656,-0.61392 2.45334,-1c0.81177,-0.31128 1.37323,-0.4754 2.3945,-0.89999c0.90997,-0.3783 1.51077,-0.71948 2.52151,-1.1955c0.5947,-0.28006 1.60406,-0.55844 2.37915,-0.7045c1.0062,-0.18961 1.65747,-0.65808 2.56351,-1.10001c0.6911,-0.3371 1.49603,-0.51758 2.48935,-1.10132c0.65186,-0.38309 1.29785,-0.97018 1.97333,-1.45135c0.7402,-0.52731 1.67587,-1.16284 2.18033,-1.59015c0.63065,-0.53421 1.33517,-1.27802 1.98099,-1.92383c0.65869,-0.65869 1.19397,-1.1676 1.948,-1.94934c0.48334,-0.5011 1.09808,-1.36246 1.48535,-2.09467c0.41373,-0.78223 0.81339,-1.59396 1.10001,-2.24649c0.4198,-0.95572 0.69397,-1.77042 1,-2.59018c0.29422,-0.78818 0.67651,-1.73663 1.05716,-2.34818c0.51917,-0.83408 1.06091,-1.40076 1.59015,-1.94733c0.75974,-0.78461 1.31403,-1.31851 2.19534,-2.19983c0.46268,-0.46268 0.95728,-0.9574 1.68933,-1.68933c0.62515,-0.62506 1.20685,-1.28305 2.08951,-1.86801c0.67157,-0.44507 1.6785,-0.89996 2.2785,-1.19998c0.79999,-0.39999 1.58163,-0.84128 2.39999,-1.17917c0.98056,-0.40488 1.79947,-0.49985 2.60001,-0.5195c1.00421,-0.02466 1.64474,0.01196 2.82166,-0.22269c0.54501,-0.10867 1.42017,-0.37744 2.065,-0.49466c1.38751,-0.25223 2.12839,-0.25333 2.85199,-0.30933c0.69244,-0.05359 1.89307,-0.25079 2.61969,-0.47467c1.0452,-0.32205 1.84113,-0.479 2.64166,-0.49866c1.00421,-0.02466 1.86478,-0.01868 2.82117,-0.22269c0.80127,-0.1709 1.55161,-0.50641 2.6095,-0.69333c0.84305,-0.14896 1.63098,-0.08527 2.431,-0.08533c0.95984,-0.00009 1.77701,0.02533 2.64282,-0.05716c1.20114,-0.11444 1.78961,-0.30112 2.65952,-0.51752c1.06763,-0.26556 1.77768,-0.39258 2.6315,-0.42084c1.00394,-0.03323 1.8045,-0.00449 2.8045,-0.00449c0.79999,0 1.79999,0 2.58932,0c1.04401,0 1.87204,-0.00638 2.75351,0.00015c0.71854,0.00534 1.52875,-0.03391 2.77048,0.28384c0.659,0.16864 1.65891,0.65091 2.43933,0.71152c0.90628,0.07037 1.70901,0.00449 2.66867,0.00449c0.80402,0 1.62601,0 2.65701,0c0.88,0 1.755,0 2.67432,0c0.90451,0 1.65186,0 2.64734,0c0.80002,0 1.79984,0 2.57916,0c0.99951,0 1.7757,0.05493 2.6825,-0.009c0.80493,-0.05676 1.77106,-0.41269 2.56369,-0.85233c0.55771,-0.30933 1.60165,-0.98322 2.3175,-1.3815c0.64096,-0.35663 1.66641,-0.84009 2.25714,-1.16785c0.81342,-0.45132 1.60001,-1.07333 2.20001,-1.58932c0.60001,-0.51599 1.42313,-1.08102 2.164,-1.62534c0.69373,-0.50967 1.21564,-1.21832 1.58865,-1.83633c0.57635,-0.9549 1.06503,-1.75818 1.422,-2.27701c0.64502,-0.93753 1.36221,-1.4924 1.70386,-2.36148c0.29062,-0.73926 0.14438,-1.72546 0.12149,-2.73318c-0.01801,-0.7926 -0.27213,-1.65805 -0.61066,-2.37732c-0.37482,-0.79633 -0.76437,-1.62234 -1.20367,-2.18933c-0.66266,-0.85522 -1.44467,-1.38983 -1.935,-1.80002c-0.93356,-0.78098 -1.42032,-1.41138 -1.86533,-1.96399c-0.67639,-0.83997 -1.45624,-1.25595 -2.21869,-2.00266c-0.45651,-0.44708 -0.86887,-1.23447 -1.26666,-2.03351c-0.40689,-0.81729 -0.7106,-1.48099 -1.10001,-2.48251c-0.30844,-0.79324 -0.56784,-1.56528 -1.09549,-2.50748c-0.39551,-0.70627 -0.68533,-1.63455 -0.70316,-2.32584c-0.02536,-0.98367 -0.00134,-1.96802 -0.00134,-2.83133c0,-0.90451 -0.03766,-1.62302 0.009,-2.66251c0.03488,-0.77728 0.2735,-1.85294 0.70084,-2.53302c0.42697,-0.6795 1.14218,-1.44479 1.53751,-2.06165c0.39713,-0.61966 0.91473,-1.565 1.40533,-2.34818c0.34412,-0.54935 0.88766,-1.34915 1.46066,-2.36066c0.36053,-0.63647 0.72,-1.52002 0.88217,-2.38217l0.00449,-0.90451l-0.01068,-0.82132" id="svg_1" stroke-width="2" stroke="#000" fill="none"/>
  <path t="4391,4400,4400,4409,4409,4409,4424,4440,4440,4457,4457,4457,4457,4457,4473,4473,4473,4473,4473,4473,4490,4490,4490,4490,4490,4507,4507,4507,4507,4523,4523,4523,4540,4540,4540,4540,4557,4557,4557,4573,4573,4573,4590,4590,4590,4590,4607,4607,4623,4623,4623,4640,4640,4641,4657,4657,4657,4658,4673,4673,4673,4691,4691,4691,4691,4706,4706,4707,4723,4723,4740,4740,4741,4756,4757,4773,4773,4791,4791,4791,4806,4807,4807,4823,4823,4841,4841,4856,4856,4873,4873,4874,4891,4891,4906,4906,4907,4923,4923,4924,4924,4941,4941,4957,4957,4957,4974,4974,4991,4991,4991,5006,5006,5006,5023,5023,5040,5040,5056,5056,5073,5073,5090,5090,5119" d="m323,274c2.00983,-0.00449 2.79642,0.03384 3.83334,-0.16666c0.71585,-0.1384 1.47305,-0.61371 2.53067,-0.79733c0.82971,-0.14404 1.56732,-0.07684 2.62216,-0.25769c0.74905,-0.12842 1.61877,-0.31641 2.0925,-0.42499c1.01376,-0.23236 2.08939,-0.51511 3.20398,-0.836c0.56625,-0.16302 1.13,-0.33908 2.25601,-0.65601c0.55054,-0.15497 2.12628,-0.53772 2.61816,-0.6185c0.92154,-0.15131 1.78143,-0.21365 2.577,-0.29099c1.10071,-0.10699 2.10925,-0.3035 2.74533,-0.45184c0.91986,-0.21454 1.8187,-0.4054 2.72086,-0.46399c0.89865,-0.05835 1.79999,-0.03601 2.69998,-0.03601c0.89999,0 1.5,0 2.70001,0c0.89999,0 1.5,0 2.69998,0c0.90002,0 1.5,-0.00299 2.70001,0c0.89551,0.00226 1.48456,-0.0293 2.31467,0.08533c1.01022,0.1395 1.8761,0.52237 2.8855,1.01468c0.61139,0.29819 1.24911,0.61951 2.22134,1c0.80829,0.31635 1.68298,0.60001 2.57849,0.89999c0.89551,0.29999 1.48471,0.48499 2.31467,0.79999c1.00974,0.38321 1.70798,0.71716 2.45468,1.08536c0.87546,0.43167 1.53598,0.76733 2.23065,1.11465c1.03201,0.51599 1.957,0.97852 2.728,1.36401c0.66299,0.33151 1.69522,0.79633 2.25116,1.15683c0.8985,0.58261 1.36124,1.33112 1.7735,1.82648c0.67807,0.81479 1.46475,1.18024 2.22601,1.75302c0.6897,0.51892 1.35355,1.43497 1.66949,1.90948c0.50858,0.76379 1.05832,1.8121 1.242,2.5285c0.20255,0.78992 0.47864,1.70105 0.91116,2.34567c0.5126,0.76398 0.8996,1.52005 1.39868,2.51599c0.30054,0.59973 0.79996,1.60001 1.09998,2.20001c0.39999,0.79999 0.80002,1.60001 1.20001,2.39999c0.5,1 0.79355,1.61035 1.13599,2.23599c0.51437,0.93976 1.02277,1.71039 1.34317,2.26401c0.46713,0.80716 0.85391,1.81415 1.03552,2.68933c0.20959,1.0101 0.40912,1.61633 0.78665,2.41068c0.47882,1.00745 0.85519,1.5755 1.07718,2.60016c0.17508,0.80807 0.12082,1.48517 0.12149,2.7525c0.00031,0.54733 -0.03558,1.36398 0.00449,2.59018c0.02792,0.85382 0.22223,1.6553 0.49551,2.45715c0.34006,0.99774 0.48199,1.78888 0.5,2.83334c0.01364,0.79187 0,1.65067 0,2.51398l0,0.89102" id="svg_2" stroke-width="2" stroke="#000" fill="none"/>
  <path t="6259,6318,6326,6342,6358,6375,6375,6392,6392,6406,6406,6406,6423,6423,6423,6423,6423,6441,6441,6441,6441,6456,6456,6456,6456,6456,6473,6473,6473,6473,6473,6473,6490,6490,6490,6490,6490,6490,6508,6508,6508,6508,6508,6523,6523,6523,6523,6540,6540,6540,6560,6560,6560,6560,6576,6576,6576,6576,6592,6592,6592,6592,6592,6592,6593,6608,6608,6608,6608,6608,6609,6625,6625,6625,6625,6625,6625,6642,6642,6643,6643,6643,6643,6658,6658,6658,6658,6659,6659,6659,6675,6675,6675,6675,6676,6676,6692,6692,6693,6693,6693,6708,6708,6708,6708,6725,6725,6725,6725,6725,6725,6725,6743,6743,6743,6743,6743,6743,6758,6758,6758,6758,6759,6773,6773,6773,6773,6773,6773,6773,6792,6792,6792,6792,6792,6792,6792,6792,6808,6808,6808,6809,6809,6809,6809,6809,6825,6826,6826,6826,6826,6826,6842,6842,6843,6843,6843,6843,6843,6858,6859,6859,6859,6859,6875,6876,6876,6876,6893,6893,6893,6893,6893,6908,6909,6925,6925,6925,6942,6943,6943,6977" d="m378,323c-1.58566,1 -0.70001,1 0.20001,1c0.89999,0 1.79999,0 2.55716,0c0.89999,0 1.64752,0.01779 2.64816,-0.00134c0.93912,-0.01797 1.5379,-0.06885 2.68018,-0.22015c0.93137,-0.12335 1.42755,-0.20828 2.44916,-0.38916c0.51239,-0.09073 1.96799,-0.37845 2.81067,-0.58936c0.75986,-0.19019 1.45578,-0.40991 2.82132,-0.79999c0.71854,-0.20526 1.47888,-0.40451 2.28,-0.60001c0.83887,-0.20471 1.71915,-0.40399 2.64001,-0.60001c0.95911,-0.20416 1.45444,-0.30276 2.47501,-0.5c0.52472,-0.10141 2.15942,-0.40036 2.72098,-0.5c0.56546,-0.10034 1.69672,-0.2988 2.25601,-0.39999c1.09244,-0.19766 2.12872,-0.39642 3.08932,-0.59866c0.89005,-0.18738 1.71179,-0.38104 2.48401,-0.51599c1.06293,-0.18573 1.73138,-0.22614 2.67734,-0.31067c0.60974,-0.05447 1.81165,-0.26013 2.73151,-0.47467c0.63608,-0.14835 1.64383,-0.35315 2.36316,-0.41467c1.1138,-0.09525 1.86334,-0.08203 2.94934,-0.08533c0.68665,-0.00208 1.72989,-0.008 2.49081,-0.05716c1.34415,-0.08682 1.86188,-0.16113 2.41452,-0.22818c1.18484,-0.14377 1.80334,-0.23303 2.43198,-0.32532c1.26474,-0.1857 2.4964,-0.38712 3.08633,-0.48935c1.12943,-0.19571 1.67148,-0.29755 2.72168,-0.5c0.51257,-0.09882 2.02133,-0.39999 2.52133,-0.5c1,-0.19998 1.5,-0.29999 2.5,-0.5c0.5,-0.10001 1.99991,-0.40048 3.00134,-0.60001c0.50308,-0.10022 1.51932,-0.30087 2.03467,-0.39999c1.04898,-0.20178 2.13071,-0.39975 3.24933,-0.60132c0.57187,-0.10306 1.15201,-0.20242 2.32532,-0.43466c0.59454,-0.11768 1.19705,-0.22388 2.98883,-0.68533c0.59879,-0.15421 1.18811,-0.32767 1.76852,-0.50403c1.12619,-0.34216 1.66071,-0.52136 3.13199,-1.008c0.84546,-0.27963 1.59827,-0.5361 2.30399,-0.72c0.67349,-0.17548 1.71701,-0.33832 2.86401,-0.42133c0.41504,-0.03003 1.30939,-0.06107 2.832,-0.19199c0.56476,-0.04855 1.15421,-0.11163 2.38666,-0.26935c0.63467,-0.08121 1.27386,-0.17108 1.91251,-0.26849c1.86911,-0.2851 2.45776,-0.39478 3.02884,-0.49417c1.08951,-0.18964 1.60733,-0.29422 2.60583,-0.44415c1.39676,-0.20975 2.28333,-0.27567 2.71799,-0.3045c0.86871,-0.05765 1.75967,-0.08597 3.18152,-0.21933c0.51068,-0.04788 1.59021,-0.189 2.16,-0.26935c0.59021,-0.08325 1.82986,-0.26941 2.47998,-0.36533c1.35974,-0.20059 2.06921,-0.2995 2.79468,-0.39868c0.73721,-0.1008 1.48267,-0.19998 2.23199,-0.29999c0.74933,-0.10001 1.49564,-0.19312 3.66666,-0.5c0.69064,-0.09763 1.36261,-0.19913 2.01901,-0.2955c0.64227,-0.0943 1.89261,-0.27158 2.50534,-0.34732c0.60596,-0.07489 2.40878,-0.23969 3.009,-0.27185c0.59976,-0.03217 1.79996,-0.06647 2.39999,-0.07465c0.59998,-0.00818 2.39999,-0.01016 2.99966,-0.01083c0.59766,-0.00067 1.77905,-0.0079 2.35867,-0.02069c0.56973,-0.01257 1.67429,-0.03162 3.19864,-0.2005c0.47357,-0.05246 1.37085,-0.2052 2.22168,-0.35333c0.81848,-0.14249 2.02039,-0.31778 2.82135,-0.36816c0.79926,-0.05026 1.59998,-0.0549 2.79999,-0.05716c0.79736,-0.0015 1.57867,0 2.328,0c0.70135,0 1.90265,0 2.88666,0c0.95203,0 1.73798,0 2.56,0c1.05865,0 1.76367,0 2.73865,0l0.92419,0" id="svg_3" stroke-width="2" stroke="#000" fill="none"/>
  <path t="7639,7698,7698,7698,7698,7698,7698,7766,7766,7818,7818,7826,7842,7857,7874,7874,7874,7891,7891,7891,7891,7907,7907,7907,7907,7924,7924,7924,7924,7924,7941,7942,7942,7942,7942,7956,7956,7956,7974,7974,7974,7974,7974,7991,7991,7991,7991,7991,7991,8006,8007,8007,8007,8007,8024,8024,8024,8024,8041,8041,8041,8041,8057,8057,8057,8057,8057,8057,8057,8074,8074,8074,8074,8074,8074,8090,8091,8091,8091,8091,8106,8107,8107,8107,8107,8107,8123,8124,8124,8124,8124,8141,8141,8141,8141,8141,8156,8157,8157,8157,8157,8174,8174,8174,8174,8174,8174,8193,8194,8194,8194,8194,8207,8207,8207,8207,8207,8223,8223,8224,8224,8224,8241,8241,8241,8241,8241,8256,8257,8257,8257,8257,8273,8274,8274,8274,8274,8290,8291,8291,8291,8291,8291,8292,8292,8306,8307,8307,8307,8307,8307,8323,8324,8324,8324,8324,8341,8341,8341,8341,8341,8357,8357,8357,8357,8357,8373,8374,8374,8374,8374,8391,8391,8391,8391,8407,8407,8407,8424,8424,8424,8441,8441,8457,8457,8457,8457,8477,8477,8477,8477,8477,8494,8494,8510,8510,8510,8565,8574" d="m378,325c0.83334,17.16666 0.87994,18.2341 0.91467,19.14667c0.02939,0.77246 0.07068,1.9574 0.08084,2.76251c0.01193,0.9476 0.05667,1.94513 1.00449,2.09082c0.79071,0.12155 1.70004,0.00586 2.60001,0c0.82138,-0.00534 1.73642,-0.15594 2.41434,-0.35718c0.81088,-0.24072 1.98566,-0.64282 2.58566,-0.84283c0.89999,-0.29999 1.49915,-0.50253 2.70032,-0.89999c0.60825,-0.20126 1.56891,-0.50992 2.27036,-0.69998c1.16779,-0.31641 2.03833,-0.4996 2.49066,-0.58936c0.92236,-0.18301 1.85397,-0.34213 2.772,-0.444c0.87836,-0.09747 1.71979,-0.1384 2.51999,-0.15598c0.75989,-0.01669 2.16266,-0.01068 2.82132,-0.01068c0.97803,0 1.99203,0.00369 2.71335,-0.00134c0.76938,-0.00537 1.59573,-0.01825 2.48401,-0.08398c1.47293,-0.10898 1.99658,-0.19586 2.53333,-0.27185c1.09589,-0.15518 1.64551,-0.24518 2.72665,-0.44415c1.03616,-0.1907 1.99576,-0.39853 2.88535,-0.58801c0.8251,-0.17575 1.59088,-0.35214 2.66135,-0.48932c0.66672,-0.08542 1.64847,-0.12909 2.30533,-0.20535c1.41022,-0.16373 2.18405,-0.35168 2.59933,-0.43683c0.89279,-0.18301 2.41632,-0.48114 2.98065,-0.57916c0.58765,-0.10208 1.81201,-0.29999 2.436,-0.39999c0.62399,-0.10001 1.24438,-0.18634 3,-0.5c0.53644,-0.09583 1.53378,-0.29636 2.45834,-0.5c0.44604,-0.09824 1.32156,-0.30649 2.66315,-0.60001c0.93469,-0.2045 1.41428,-0.30124 2.38919,-0.5c0.49368,-0.10065 1.98941,-0.39954 2.98798,-0.60001c0.49689,-0.09976 1.48068,-0.29904 1.96533,-0.39999c0.95108,-0.19812 2.31415,-0.50217 3.18335,-0.6955c0.42709,-0.095 1.27438,-0.29074 2.13666,-0.41916c1.33267,-0.19849 1.79977,-0.20554 2.74133,-0.26001c0.9491,-0.0549 1.89267,-0.08936 2.80801,-0.19199c0.88638,-0.09937 1.75281,-0.2652 2.62799,-0.444c0.44891,-0.09171 1.87088,-0.39523 2.90668,-0.58801c0.53677,-0.09988 1.08145,-0.19843 2.18134,-0.36533c0.54474,-0.08267 2.11664,-0.27756 3.07999,-0.35199c0.45605,-0.03525 1.32993,-0.0712 2.16165,-0.13669c1.21063,-0.09534 2.01077,-0.22885 2.81967,-0.37265c0.82581,-0.14682 1.67166,-0.31787 3.01068,-0.45334c0.46182,-0.04672 1.40411,-0.09387 2.35333,-0.14667c0.47272,-0.02628 1.86069,-0.12701 2.73999,-0.25867c0.85153,-0.1275 1.67212,-0.30621 2.48401,-0.43201c1.19818,-0.18564 2.00574,-0.23276 2.82217,-0.284c0.41513,-0.02606 1.26752,-0.05719 2.60098,-0.2215c0.94687,-0.11667 1.43591,-0.21219 2.46085,-0.38916c0.53638,-0.09262 2.25046,-0.39059 2.85999,-0.48935c0.62512,-0.10129 1.2626,-0.20029 2.55734,-0.39999c0.64929,-0.10016 1.29504,-0.19766 1.93201,-0.29999c1.82608,-0.2933 2.39767,-0.39819 2.95367,-0.5c1.0733,-0.1965 1.59332,-0.29837 2.61166,-0.5c1.50299,-0.29758 2.00153,-0.39893 2.99197,-0.60001c0.48996,-0.09946 1.4548,-0.2941 2.84402,-0.60001c0.44559,-0.09811 1.31003,-0.29767 2.14581,-0.5c0.81689,-0.19775 2.0206,-0.50095 2.82217,-0.70001c0.80908,-0.20093 1.63385,-0.40341 2.48401,-0.59998c0.88055,-0.20358 1.79626,-0.40372 2.72931,-0.58936c0.46405,-0.09232 1.37195,-0.27905 2.65204,-0.444c0.75946,-0.09787 1.7738,-0.13977 2.36713,-0.21933c1.29132,-0.17316 1.95538,-0.48517 2.65021,-0.66333c0.98761,-0.25323 1.8158,-0.27237 2.63196,-0.28265c0.99994,-0.0126 1.90936,0.00131 2.85071,-0.00134c0.7995,-0.00226 1.71729,-0.02075 2.40533,-0.08533c1.17322,-0.11008 2.02911,-0.2655 2.90717,-0.41467c0.43433,-0.07379 1.26208,-0.25812 2.66479,-0.41467c0.7912,-0.08832 1.85602,-0.08533 2.64532,-0.08533l0.72534,0l1.06653,-0.05716l-0.38385,-0.65884" id="svg_4" stroke-width="2" stroke="#000" fill="none"/>
  <path t="9154,9180,9188,9205,9222,9239,9239,9255,9255,9272,9272,9272,9289,9289,9305,9445,9453,9465,9474,9474,9491,9507,9523,9523,9541,9541,9557,9557,9557,9557,9573,9574,9591,9591,9607,9623,9623,9641,9659,9701,9701,9706,9723,9741,9741,9741,9756,9757,9757,9757,9757,9773,9774,9774,9825,9825,9825" d="m535,302c2.58936,0 3.5,0 4.40002,0c0.90448,0 1.76666,0 2.59998,0c0.97882,0 1.80981,0 2.76935,0c0.75146,0 1.54797,0 2.54401,0c0.83997,0 1.80133,0 2.78662,0c0.90002,0 1.81628,0.1543 1.90002,1c0.07886,0.79608 0,1.70001 0,2.63599c0,0.84933 -0.01501,1.76865 0.00134,2.76535c0.01013,0.61972 0.15302,1.76834 0.35132,2.55133c0.20905,0.82538 0.43799,1.35187 0.59015,2.59018c0.10419,0.8479 0.05719,1.85583 0.05719,2.62115c0,0.95065 -0.02539,1.8364 0,2.63599c0.02863,0.9014 0.97675,1.65381 0.7785,2.42136c-0.19061,0.73795 -1.48358,0.7038 -2.32019,0.7995c-1.01477,0.11609 -1.74042,0.41687 -2.31567,0.58981c-1.30817,0.39328 -2.02637,0.59033 -2.76794,0.78934c-0.74915,0.20102 -1.49237,0.39432 -2.55322,0.69983c-0.987,0.28424 -1.61078,0.46417 -2.82147,0.73352l-0.59601,0.07999l-0.84149,0.04501" id="svg_5" stroke-width="2" stroke="#000" fill="none"/>
  <path t="10302,10313,10313,10313,10313,10313,10313,10313,10313,10325,10325,10325,10325,10325,10325,10325,10341,10342,10358,10358,10358,10358,10373,10373,10373,10373,10390,10390,10390,10390,10407,10407,10423,10423,10440,10473,10490,10506,10523,10540,10540,10556,10556,10573,10573,10573,10590,10590,10590,10590,10606,10606,10606,10623,10623,10623,10623,10623,10640,10640,10640,10640,10640,10656,10656,10656,10656,10673,10673,10673,10673,10690,10690,10690,10690,10707,10707,10707,10737,10794,10802,10810,10822,10839,10840,10840,10855,10855,10855,10872,10872,10872,10873,10873,10891,10891,10891,10891,10905,10906,10906,10906,10906,10922,10922,10923,10923,10923,10939,10939,10939,10940,10940,10955,10955,10955,10972,10972,10972,10972,10990,10990,10990,11033,11034,11034,11049,11057" d="m558,299c3.099,-1.09982 3.97821,-1.20294 4.94635,-1.2955c1.02924,-0.09839 2.09515,-0.18607 3.17096,-0.26849c1.05951,-0.08118 2.07703,-0.15503 3.88269,-0.26935c0.7417,-0.04697 1.37463,-0.08279 1.90948,-0.1095c0.44781,-0.02237 0.81958,-0.03964 1.12653,-0.04648c0.94281,-0.02103 1.83392,-0.05249 2.72833,-0.23203c0.93634,-0.18796 1.62891,-0.36813 2.35431,-0.49466c1.05646,-0.1843 2.05634,-0.25504 2.70667,-0.30933c0.659,-0.05502 2.05829,-0.25403 2.78937,-0.39999c0.72491,-0.14474 1.41162,-0.31857 2.61334,-0.49066c0.9118,-0.13058 1.85364,-0.42706 2.46747,-0.73135c0.86633,-0.4295 1.73462,-0.28311 2.35718,0.29468c0.61871,0.57422 0.93689,1.37332 0.94733,2.33133c0.00842,0.77396 0,1.68298 0,2.483c0,0.95984 0,1.77432 0,2.64282c0,0.89551 0,1.7955 0,2.6955c0,0.60001 -0.01428,1.80313 0.02081,2.74167c0.02515,0.67319 0.13489,1.79333 0.26453,2.62769c0.13892,0.89389 0.22809,1.353 0.41919,2.2825c0.28448,1.38379 0.49487,2.26132 0.59094,2.68649c0.18518,0.81967 0.39063,1.5936 0.58319,3.04034c0.08868,0.66629 0.09845,1.32355 0.20532,2.30533c0.11328,1.04044 0.26587,1.77478 0.43683,2.53683c0.17621,0.7854 0.48114,1.97867 0.67786,2.77649c0.19257,0.78088 0.40894,1.52264 0.63464,2.86932c0.13586,0.81055 0.20569,1.47665 0.16669,2.57169c-0.02515,0.70636 -0.6579,-0.03369 -1.5,-0.2175c-0.89026,-0.19431 -1.8241,-0.23651 -2.54169,-0.54169c-0.64722,-0.27524 -1.64124,-0.69437 -2.52081,-0.97916c-0.65277,-0.21136 -1.7688,-0.50873 -2.60553,-0.69867c-0.88062,-0.19989 -1.32947,-0.29495 -2.22662,-0.44415c-1.2688,-0.21103 -2.03583,-0.27515 -2.74402,-0.33185c-1.00928,-0.08081 -2.02936,-0.18396 -2.74799,-0.30933c-0.76154,-0.13284 -1.55701,-0.30978 -2.40002,-0.43201c-1.33063,-0.1929 -2.26593,-0.23239 -2.73865,-0.25867c-0.94922,-0.0528 -1.89264,-0.08978 -2.80798,-0.19199c-0.88232,-0.09851 -1.71997,-0.25894 -2.52002,-0.40802c-0.75995,-0.1416 -2.16235,-0.34497 -2.82135,-0.39999c-0.65033,-0.05429 -1.99371,-0.18188 -2.70801,-0.30933c-0.73395,-0.13095 -1.44879,-0.33075 -2.784,-0.54935c-0.81982,-0.13422 -1.54797,-0.15857 -2.5,-0.16666c-0.77698,-0.00659 -1.7663,-0.05716 -2.6618,-0.35718l-0.17151,-0.84283" id="svg_6" stroke-width="2" stroke="#000" fill="none"/>
  <path t="11563,11582,11582,11582,11582,11582,11598,11598,11598,11614,11626,11642,11659,11675,11690,11690,11706,11723,11723,11740,11756,11756,11773,11812,11837,11866,11882,11898,11898,11913,11923,11940,11955,11956,11973,11990,11990,12006,12006,12023,12040,12056,12073,12073,12090,12106,12106,12123,12123,12166,12174,12190,12206,12206,12223,12240,12240,12256,12273,12273,12290,12306,12306,12323,12323,12340,12356,12373,12373,12390,12390,12406,12423,12423" d="m553,297c-0.21436,-1.54935 0.11328,-2.47125 0.32269,-2.97733c0.43481,-1.0509 0.60144,-1.59766 1.34399,-2.85602c0.4704,-0.79721 1.13062,-1.16199 2.03333,-1.16666c0.89996,-0.00467 1.83478,-0.05295 2.59998,0.35266c0.84595,0.44839 1.73346,0.77203 2.29999,1.258c0.74323,0.63757 1.31494,1.37674 1.39868,2.18933c0.08569,0.8316 0.00134,1.85269 0.00134,2.54733c0,1.01669 -0.41919,2.36734 0,2.36734c0.91467,0 -0.04779,-1.81595 0,-2.71466c0.04272,-0.80338 0.70319,-1.4216 0.96399,-2.39999c0.23206,-0.87051 0.22467,-1.728 0.74054,-2.30002c0.65582,-0.7272 1.50684,-1.1795 2.18079,-1.384c0.95697,-0.29037 1.60583,-0.75119 2.59387,-0.89514c0.91144,-0.13278 1.91394,-0.22293 2.71948,0.2645c0.62433,0.37778 0.79059,1.36249 1.08533,2.19998c0.2594,0.73709 0.6366,1.71021 0.69519,2.49384c0.07452,0.99646 0.02081,1.47919 0.02081,0.61017c0,-0.91064 -0.086,-1.76804 0.00134,-2.70398c0.08368,-0.89676 0.56409,-1.53333 1.29865,-2.18085c0.66223,-0.58374 1.51837,-0.75958 2.22083,-1.22534c0.82343,-0.54596 1.44043,-1.07104 2.4577,-1.35767c0.69922,-0.19702 1.68909,-0.19891 2.42151,0.31451c0.7901,0.55386 1.25549,1.16339 1.79865,2.048c0.40881,0.66583 0.716,1.63065 0.80133,2.51599l0,0.79999" id="svg_7" stroke-width="2" stroke="#000" fill="none"/>
  <path t="13167,13182,13182,13190,13207,13224,13224,13239,13256,13256,13273,13289,13289,13307,13307,13324,13324,13324,13340,13340,13340,13357,13357,13374,13374,13390,13450,13474,13482,13482,13490,13507,13524,13539,13539,13556,13556,13573,13574,13594,13614,13624,13640,13690,13698,13707,13723,13739,13739,13755,13755,13773,13773,13788,13788,13846,13846,13846" d="m561,325c1,1 0.98859,1.80005 1,2.70001c0.01044,0.82101 0.30133,1.77695 0.57465,2.47464c0.36475,0.93118 0.55005,1.85883 1.03601,2.42535c0.63757,0.74326 1.37628,1.31589 2.14648,1.39551c0.89526,0.09253 1.88837,-0.08798 2.64288,-0.56619c0.64423,-0.40833 1.20691,-1.02509 1.99866,-1.82932c0.58569,-0.59494 1.16553,-1.16513 1.71466,-1.99869c0.48566,-0.73721 0.82446,-1.57327 0.88531,-2.39999c0.06616,-0.8989 0.16028,-2.46344 0.83466,-2.03467c0.71716,0.45596 0.14868,1.63351 0.16669,2.53336c0.01801,0.90054 0.42682,1.7088 1.09998,2.39999c0.49335,0.50656 1.17157,1.24103 1.78534,1.69998c0.73151,0.547 1.59772,1.15518 2.4787,1.15335c0.8681,-0.0018 1.22064,-1.10345 1.80267,-1.78668c0.56659,-0.6651 1.25684,-0.69351 1.78064,0.12885c0.4129,0.64825 1.37402,0.7045 2.05267,0.7045c1.11603,0 1.89026,0.08932 2.82532,-0.02133c0.70172,-0.08304 1.422,-0.69751 1.92737,-1.44482l0.56848,-0.95502l0.32703,-0.52701l0.49048,-0.7905" id="svg_8" stroke-width="2" stroke="#000" fill="none"/>
  <path t="15226,15235,15235,15235,15259,15259,15267,15278,15290,15306,15306,15323,15323,15339,15339,15339,15356,15356,15373,15373,15373,15389,15389,15406,15406,15406,15423,15423,15423,15439,15439,15439,15456,15456,15473,15473,15473,15489,15489,15489,15506,15506,15506,15523,15523,15523,15523,15539,15539,15539,15539,15556,15556,15573,15573,15589,15589,15589,15606,15606,15623,15623,15623,15639,15639,15639,15656,15656,15656,15673,15673,15673,15673,15689,15689,15706,15706,15723,15723,15723,15739,15739,15739,15756,15756,15756,15773,15773,15789,15789,15789,15806,15806,15806,15823,15823,15823,15823,15839,15839,15839,15856,15856,15856,15873,15873,15889,15906,15906,15906,15923,15923,15923,15923,15939,15939,15956,15956,15956,15973,15973,15973,15989,15989,16006,16006,16023,16023,16023,16039,16039,16056,16056,16073,16073,16073,16089,16089,16106,16106,16106,16123,16123,16123,16139,16139,16139,16156,16156,16173,16173,16189,16189,16189,16206,16206,16206,16206,16223,16223" d="m342,315c-9.22784,1.75717 -10.14063,1.8732 -10.8125,1.97916c-1.02524,0.16168 -1.73969,0.67227 -2.48749,1.31635c-0.66888,0.57611 -1.44034,0.9147 -1.86667,1.7045c-0.36844,0.68256 -0.95004,1.31223 -1.33334,2.02084c-0.52307,0.96704 -0.9299,1.76358 -1.14282,2.37915c-0.33929,0.9809 -0.34152,1.84314 -0.52383,2.76666c-0.15579,0.78918 -0.38205,1.60052 -0.83334,2.5c-0.423,0.84308 -0.91849,1.65085 -0.97916,2.39584c-0.05762,0.70743 -0.02084,1.90549 -0.02084,2.58817c0,0.69867 0,2.01599 0,2.83499c0,0.69302 -0.04736,1.71701 0.02084,2.51434c0.08612,1.0069 0.3718,1.83215 0.86581,2.60001c0.5408,0.84055 1.14691,1.39609 1.62933,2.08533c0.4986,0.71234 0.85413,1.55267 1.10934,2.12534c0.53189,1.19357 0.83765,1.80197 1.39551,2.66849c0.36911,0.57333 0.96295,1.36823 1.57916,2.06369c0.58493,0.66016 0.99966,1.05615 1.79868,1.85583c0.58023,0.58072 1.40909,1.46207 1.97598,1.96533c0.75958,0.67435 1.43839,1.08572 2.22665,1.35065c0.78198,0.26282 1.6442,0.25989 2.82001,0.50684c0.53668,0.1127 1.36133,0.36807 2.41202,0.7785c0.71976,0.28116 1.37137,0.65686 2.58832,0.87851c0.81601,0.14862 1.42499,0.11615 2.745,0.12149c0.71469,0.0029 1.43735,0 2.13602,0c1.19733,0 2.17325,0.04367 3.01883,-0.22134c0.71835,-0.22513 1.67508,-0.63333 2.48917,-0.75333c0.64423,-0.09494 1.8768,-0.29874 2.41467,-0.46133c0.82773,-0.25024 1.87408,-0.62192 2.52798,-0.97467c0.78864,-0.42545 1.45844,-1.26935 1.99933,-1.93665c0.5351,-0.66019 1.28036,-1.13489 1.84866,-1.53668c0.81696,-0.57764 1.41986,-1.13858 1.99869,-1.80267c0.62326,-0.71506 1.20148,-1.54156 1.564,-2.12399c0.36301,-0.58319 0.95926,-1.78442 1.20001,-2.37866c0.34384,-0.8486 0.74542,-1.88519 1.02533,-2.57468c0.33694,-0.83002 0.57822,-1.83014 0.60617,-2.57883c0.03891,-1.04181 0.00449,-1.99051 0.00449,-2.67151c0,-0.80698 0,-1.98566 0,-2.88116c0,-0.58365 0.02768,-1.41959 -0.00449,-2.64734c-0.01694,-0.64703 -0.19672,-1.66501 -0.51636,-2.478c-0.26392,-0.67123 -0.67139,-1.66483 -0.97916,-2.45831c-0.2926,-0.75439 -0.8092,-1.7045 -1.20001,-2.26901c-0.61926,-0.89447 -0.99673,-1.65891 -1.62149,-2.2305c-0.64355,-0.58881 -1.3132,-0.86398 -2.27399,-1.67401c-0.59006,-0.49747 -1.21228,-1.20807 -1.77917,-1.71133c-0.75958,-0.67435 -1.45792,-1.0426 -2.22665,-1.43597c-0.7952,-0.40689 -1.59698,-0.80347 -2.59885,-1.30002c-0.60947,-0.30209 -1.24777,-0.62299 -2.22116,-0.99982c-0.79694,-0.3085 -1.61636,-0.59012 -2.65717,-0.77884c-0.89423,-0.16214 -1.53339,-0.16019 -2.52151,-0.474c-0.81253,-0.25806 -1.79907,-0.59448 -2.63599,-0.63666c-0.92953,-0.04684 -1.72781,-0.06235 -2.57468,0.06131c-1.20493,0.17593 -1.78799,0.496 -2.37866,0.77869l-0.85352,0.444l-1.03549,0.46231l-0.67499,0.17102" id="svg_9" stroke-width="2" stroke="#000" fill="none"/>
  <path t="17180,17194,17194,17195,17195,17195,17202,17202,17202,17224,17224,17240,17240,17240,17240,17240,17257,17257,17257,17257,17274,17274,17274,17290,17290,17290,17290,17290,17307,17307,17307,17307,17324,17324,17324,17340,17340,17340,17357,17357,17374,17374,17390,17390,17390,17407,17430,17547,17555,17575,17591,17591,17592,17607,17607,17624" d="m290,321c3.5,13 3.7334,13.84238 4.12399,15.2095c0.15659,0.54803 0.45993,1.41461 0.70935,2.62384c0.14426,0.69943 0.14502,1.53296 0.52383,2.42749c0.29199,0.68948 0.75287,1.72217 0.94281,2.45883c0.21121,0.81918 0.39728,1.68463 0.5,2.11499c0.29221,1.22424 0.59534,2.2948 0.80002,2.944c0.19553,0.62012 0.60596,1.82211 0.79999,2.44269c0.30954,0.99005 0.60437,2.11096 0.80002,2.94666c0.10226,0.43683 0.29477,1.33319 0.5,2.22665c0.29257,1.27374 0.48831,2.03687 0.69998,2.72269c0.28439,0.92148 0.61627,1.70944 0.98935,2.65732c0.26511,0.67355 0.49905,1.64557 0.58533,2.45068c0.08795,0.82098 0.22156,1.86136 0.52533,2.733c0.30814,0.88419 0.48193,1.56244 0.50015,2.58417c0.01242,0.69745 0.0773,1.6087 0.57452,2.46149c0.41739,0.71588 0.47919,1.77048 -0.27917,1.99152c-0.80374,0.23425 -1.83835,0.00449 -2.55682,0.00449c-0.7905,0 -1.81702,0 -2.69702,0l-1.01999,-0.00015" id="svg_10" stroke-width="2" stroke="#000" fill="none"/>
  <path t="18244,18311,18311,18327,18341,18356,18373,18389,18389,18406,18406,18423,18423,18439,18439,18456,18456,18456,18473,18473,18567,18582,18590,18607,18607,18624,18640,18640,18657,18657,18674,18674,18690,18690,18690,18707,18724,18724,18724,18740,18823,18828,18842,18856,18873,18889,18889,18906,18906,18923,18923,18939,18939,18939,18956,18956,18956,18973,18973,18973,18973,18989,19006,19006,19023,19023,19039,19039,19056,19073,19073,19089,19106,19106,19106,19123,19123,19123,19139,19139,19156,19156,19173,19189,19206,19206,19223,19241,19257,19257,19273,19293,19293,19306,19323,19323,19339,19339,19339,19356,19356,19421,19433,19446,19456,19473,19489,19489,19505,19505,19522,19522,19523,19538,19538,19538,19561,19572,19588,19605,19661,19674" d="m289,321c-1,-1 -1.79999,-1 -2.70001,-1c-0.89999,0 -1.82083,-0.02579 -2.60449,0.35266c-0.88889,0.42926 -1.52036,0.62933 -2.52884,0.64734c-0.79187,0.01413 -1.83008,-0.05273 -2.57117,0.05716c-1.00995,0.14975 -1.57205,0.52377 -2.59549,0.77618c-0.78699,0.19412 -1.60001,0.16599 -2.59549,0.16666c-0.91919,0.00061 -2.03397,0.07358 -1.78317,0.61066c0.40793,0.87366 1.11261,1.42758 1.46268,2.18933c0.34454,0.74976 1.24091,1.3223 1.63065,2.08536c0.36728,0.71909 0.39172,1.75064 0.85333,2.51465c0.38232,0.63281 1.14471,1.58469 1.32217,2.1955c0.26202,0.90182 0.57513,1.75909 1.10983,2.57117c0.4238,0.64365 0.67972,1.45026 1.39999,2.18668c0.61188,0.62558 1.80695,1.19705 1.164,1.61066c-0.72363,0.46552 -1.44183,0.51889 -1.84933,1.23734c-0.42273,0.74527 -1.02423,1.45081 -1.41467,2.20319c-0.41013,0.79031 -0.80148,1.59476 -1.29999,2.59549c-0.3009,0.60403 -0.62903,1.22415 -1.09982,2.42151c-0.20868,0.53073 -0.51639,1.37854 -0.73352,2.57849c-0.10733,0.5932 -0.15509,1.45816 -0.16531,2.22934c-0.01471,1.10922 -0.07974,2.09894 0.03467,2.94531c0.11053,0.81769 0.70856,1.55246 1.16266,2.30936c0.40195,0.66998 0.56238,1.69006 0.96799,2.51599c0.32901,0.66998 1.05969,1.44812 2,1.83334c0.64478,0.26416 1.54141,0.28619 2.51733,0.73465c0.55493,0.255 1.32986,0.81003 2.39435,1.18918c0.65845,0.23453 1.75809,0.40359 2.40082,0.74283c0.82483,0.43533 1.79016,0.31113 2.62085,0.7215c0.69058,0.34116 1.46805,1.08295 1.7785,1.87851c0.33014,0.84604 0.12149,1.69998 0.12149,2.53598c0,1.01669 0,1.71133 0,2.73868c0,0.94699 0,1.66699 0,2.79199c0,0.78152 0,1.57202 0,2.5c0,0.91202 -0.11847,2.04608 0.61066,2.32266c0.83157,0.31546 1.90643,0.02802 2.41019,-0.51016c0.59659,-0.63733 1.35547,-1.14365 2.0965,-1.68048c0.5639,-0.40854 1.43402,-1.1084 2.12265,-1.63467c0.47964,-0.36658 1.35333,-1.12299 1.66269,-1.95334c0.26077,-0.70001 0.63068,-1.64972 1.39282,-2.15799c0.69095,-0.46078 1.22534,-1.03183 2.09384,-1.06335l0.569,-0.51016" id="svg_11" stroke-width="2" stroke="#000" fill="none"/>
  <path t="20966,20982,20991,20991,21009,21025,21025,21041,21058,21059,21059,21075,21075,21075,21091,21091,21108,21108,21124,21125,21125,21125,21139,21139,21160,21160,21175,21175,21189,21189,21208,21208,21208,21208,21225,21225,21265,21273,21273,21291,21308,21322,21341,21355,21376,21376,21389,21389,21408,21408,21421,21421,21421,21421,21440,21440,21440,21440,21458,21458,21458,21471,21472,21472,21472,21491,21491,21491,21506,21506,21506,21506,21506,21506,21521,21521,21521,21521,21541,21541,21541,21558,21558,21559,21559,21571,21571,21572,21589,21589,21589,21589,21606,21606,21606,21606,21606,21621,21622,21622,21622,21638,21638,21638,21655,21655,21656,21671,21671,21672,21672,21672,21688,21688,21689,21705,21705,21706,21706,21722,21722,21722,21722,21722,21739,21739,21739,21739,21755,21756,21756,21756,21771,21771,21772,21788,21789,21789,21789,21805,21806,21806,21821,21822,21822,21822,21822,21838,21839,21839,21839,21855,21856,21856,21856,21856,21872,21872,21872,21872,21889,21889,21889,21906,21906,21906,21906,21922,21922,21922,21939,21939,21939,21956,21956,21956,21972,21972,21972,21989,21989,21989,22006,22006,22006,22022,22022,22022,22039,22039,22039,22039,22057,22057,22072,22072,22072,22089,22089,22089,22105,22106,22106,22121,22122,22122,22141,22141,22141,22141,22158,22158,22158,22174,22174,22190,22191,22191,22206,22206,22206,22206,22224,22224,22239,22239,22258,22258,22272,22272,22272,22272,22291,22291,22291,22308,22308,22308,22322,22322,22338,22339,22355,22356,22372,22389,22457,22921,22937,22945,22945,22957,22973,22990,22990,23007,23022,23023,23039,23039,23056,23056,23071,23072,23088,23105,23106,23106,23121,23122,23139,23139,23156,23156,23171,23172,23172,23189,23189,23189,23206,23206,23222,23222,23222,23222,23239,23239,23239,23256,23256,23256,23256,23256,23272,23272,23272,23289,23289,23289,23306,23306,23322,23322,23339,23339,23356,23498,23514,23515" d="m214,281c-3.328,1.38934 -4.13806,1.7774 -4.8,2.08401c-0.86908,0.40256 -1.49635,1.21964 -2,1.71597c-0.71568,0.70526 -1.51863,1.30539 -2.04666,1.61069c-0.83527,0.48294 -1.58011,0.90192 -2.368,1.41467c-0.52782,0.34351 -1.47527,0.98026 -2.11334,1.53867c-0.8029,0.7027 -1.32324,1.29602 -1.83867,1.96933c-0.50572,0.66061 -1.01921,1.43713 -1.43466,1.89865c-0.75441,0.83804 -1.6042,1.2869 -2.37717,1.86816c-0.64941,0.48837 -1.21069,1.39023 -1.62151,2.07449c-0.48746,0.81192 -0.9426,1.32935 -1.56667,2.15869c-0.49927,0.66348 -1.00444,1.43542 -1.26399,1.98398c-0.45906,0.97021 -0.35194,1.93454 -0.85468,2.79602c-0.51131,0.87619 -1.40254,0.98511 -1.79866,1.68799c-0.46021,0.81659 -0.93283,1.55072 -1.49066,2.224c-0.48972,0.59106 -0.73967,1.44855 -1,2.18533c-0.34476,0.97571 -0.30759,1.80206 -0.64667,2.76834c-0.26508,0.75537 -0.63493,1.51828 -0.726,2.388c-0.07047,0.67303 -0.09839,1.75732 -0.27417,2.81149c-0.11153,0.66882 -0.38425,1.6124 -0.57983,2.22018c-0.3876,1.2045 -0.61783,1.79346 -0.84151,2.70132c-0.22008,0.89322 -0.31624,1.79929 -0.3465,2.69998c-0.02016,0.59973 0.00279,1.80444 -0.03149,2.76251c-0.02539,0.7095 -0.14258,1.9379 -0.2005,2.40149c-0.12431,0.99493 -0.2063,1.51169 -0.35333,2.56c-0.14359,1.02371 -0.27144,1.97488 -0.34001,2.82001c-0.06064,0.74719 -0.08307,1.74249 -0.08533,2.95599c-0.00111,0.60001 0,1.5 0,2.70001c0,0.60001 0,1.5 0,2.39999c0,0.89999 0,1.80002 0,2.70001c0,0.89999 0,1.80899 0,2.44165c0,1.02902 0,2.20102 0,3.06369c0,0.44531 0,1.34399 0,2.22665c0,1.22501 0,1.95367 0,2.94666c0,0.61868 -0.02283,1.82086 0.02083,2.7005c0.04155,0.83698 0.25826,1.84158 0.5,2.5625c0.27344,0.81543 0.59082,1.8197 0.77467,2.62085c0.19633,0.85553 0.285,1.2948 0.41916,2.17084c0.18689,1.22037 0.24709,1.95163 0.27467,2.94531c0.03391,1.22092 -0.01767,1.82581 0.05234,2.763c0.0504,0.67471 0.27673,1.79602 0.52632,2.62634c0.2668,0.88757 0.4471,1.32718 0.72667,2.22665c0.39336,1.26556 0.55005,2.03265 0.644,2.73334c0.1288,0.96063 0.21092,1.8757 0.414,2.772c0.20483,0.90405 0.40671,1.49356 0.56334,2.70001c0.11638,0.89639 0.08728,1.508 0.3055,2.69998c0.11078,0.6051 0.38506,1.50131 0.57983,2.10001c0.39174,1.20404 0.59309,1.81677 0.95584,2.75717c0.39206,1.01639 0.72009,1.73071 1.07883,2.46817c0.36647,0.75336 0.75398,1.49713 1.36383,2.55334c0.38849,0.67285 0.79836,1.3111 1.14301,1.974c0.51959,0.99939 0.77794,1.72968 1.03183,2.47266c0.25549,0.74771 0.45944,1.5126 0.94684,2.55301c0.46767,0.99829 0.87198,1.58737 1.27983,2.13498c0.76581,1.02823 1.40985,1.68527 1.7415,2.1965c0.70699,1.08984 0.9045,1.7955 1.15717,2.49017c0.25267,0.69467 0.62238,1.69461 1.15266,2.48566c0.48311,0.72067 1.20621,1.49768 1.59016,2.11435c0.48584,0.78027 0.84587,1.60614 1.278,2.42084c0.35513,0.66956 0.9623,1.6637 1.3045,2.2045c0.52068,0.82285 1.0192,1.60165 1.4175,2.3175c0.35663,0.64096 0.84921,1.66153 1.16783,2.26782c0.46294,0.88092 0.89911,1.61829 1.42534,2.41467c0.36656,0.55475 1.1577,1.61328 1.56267,2.08932c0.57172,0.67206 1.14722,1.26151 1.71733,2.08533c0.53969,0.77988 1.04019,1.60864 1.53667,2.20001c0.51137,0.6091 1.19293,1.39172 1.59467,2c0.52147,0.78958 1.05946,1.61295 1.58867,2.19998c0.55345,0.61392 1.35085,1.41397 1.97467,1.98935c0.41664,0.38431 1.34515,1.06531 2.142,1.45801c0.81154,0.39996 1.40085,0.57822 2.362,1.23666c0.69408,0.47549 1.26253,1.0618 2.08533,1.63199c0.58551,0.40576 1.60332,1.04657 2.20451,1.53668c0.63501,0.51767 1.55159,1.20102 2.0795,1.46198c0.80118,0.39603 1.63785,0.66971 2.62933,1.08401c0.64896,0.27118 1.67459,0.64301 2.43933,0.854c0.92686,0.25574 1.51549,0.59036 2.58066,0.78067c0.96291,0.17203 1.66655,0.15277 2.36134,0.16217c1.26239,0.01709 2.04399,0.00449 2.75349,0.00449c0.97318,0 1.77716,0 2.59917,0c1.26733,0 1.93184,0 2.95267,0c0.78934,0 1.83333,0 2.58934,0c0.91066,0 1.81065,0 2.71066,0c0.89999,0 1.8,0 2.7,0c0.8,0 1.7,0 2.63599,0c0.84802,0 1.71133,0 2.73868,0c0.94666,0 1.62534,0 2.604,0c0.77399,0 1.6879,0.07013 2.62265,-0.08533c0.81061,-0.1348 1.54587,-0.54236 2.64603,-0.862c0.90759,-0.26367 1.59164,-0.48245 2.35397,-0.854c0.80188,-0.39084 1.57788,-0.83868 2.59851,-1.07733c0.76801,-0.17957 1.69235,-0.20218 2.42551,-0.76801c0.76746,-0.59229 1.19223,-1.19949 1.77917,-1.70065c0.77225,-0.65939 1.59189,-1.1387 2.1955,-1.45135c0.99866,-0.51727 1.6467,-0.81894 2.56665,-1.36798c0.79559,-0.47482 1.34225,-0.84177 1.88068,-1.23785c1.04926,-0.77188 1.7323,-1.40094 2.17801,-1.83148c0.95206,-0.91965 1.45865,-1.448 2,-1.98935c0.54932,-0.54932 1.08777,-1.0936 1.85315,-1.853c0.68292,-0.67761 1.28574,-1.30142 2.12152,-1.90015c0.57974,-0.41531 1.40323,-0.81384 2.19867,-1.22153c0.76849,-0.39389 1.56827,-0.9155 2.22665,-1.39999c0.84283,-0.62021 1.51334,-1 2.20532,-1.59866l0.52652,-0.74866l0.84283,-0.33801l0.59998,-0.51599" id="svg_12" stroke-width="2" stroke="#000" fill="none"/>
  <path t="24094,24109,24109,24109,24109,24110,24113,24113,24123,24139,24139,24156,24156,24172,24172,24172,24189,24189,24189,24206,24206,24222,24222,24239,24239,24256,24256,24272,24272,24289,24289,24306,24306,24322,24322,24339,24339,24356,24372,24372,24389,24389,24406,24406,24422,24422,24422,24439,24439,24439,24456,24456,24456,24472,24472,24472,24489,24489,24506,24506,24522,24522,24539,24539,24556,24572,24572,24589,24589,24589,24606,24606,24622,24622,24639,24639,24639,24656,24656,24656,24672,24672,24672,24689,24689,24689,24689,24706,24706,24706,24722,24722,24722,24722,24738,24739,24755,24772,24772,24850,24866" d="m313,425c10.5,-9.33334 11.18414,-9.91644 12.3765,-10.72385c0.46985,-0.31818 1.23157,-0.80734 2.29016,-1.1095c0.77798,-0.22205 1.55862,-0.65604 2.4335,-1.04532c0.74149,-0.32996 1.54572,-0.52103 2.36151,-0.76868c0.94458,-0.28674 1.76678,-0.29962 2.58566,-0.40533c1.03625,-0.13376 1.92065,-0.48257 2.55133,-0.66333c0.98697,-0.28287 1.80133,-0.28174 2.80133,-0.284c0.80002,-0.0018 1.79984,0.00006 2.57916,0c0.99951,-0.00009 1.91074,-0.06888 2.67801,-0.35266c0.75345,-0.27866 1.74045,-0.595 2.54285,-0.63666c0.99872,-0.05185 1.79999,-0.01068 2.79999,-0.01068c0.78934,0 1.8334,-0.00845 2.58932,0c0.9317,0.01044 1.72171,0.24887 2.62134,0.57468c0.78101,0.28284 1.57822,0.40732 2.62268,0.42532c0.82788,0.01428 1.70966,0 2.43866,0c0.83701,0 2.02783,0 2.91733,0c0.57468,0 1.64401,0 2.58533,0c0.67801,0 1.90933,0 2.72534,0c0.54733,0 1.81467,0 2.47916,0c1.02084,0 1.81018,0 2.85419,0c0.79199,0 1.81934,0 2.51398,0c1.02734,0 1.97418,0 2.67352,0c0.97916,0 1.78854,0.05792 2.57916,-0.08533c1.01968,-0.18475 1.80087,-0.61737 2.60001,-1.01468c0.80087,-0.39819 1.80704,-0.88647 2.39999,-1.2045c0.81003,-0.43445 1.61295,-1.00229 2.19998,-1.53149c0.61392,-0.55347 1.39203,-1.37231 1.8045,-1.75949c0.61954,-0.58151 1.55161,-1.25854 2.34818,-1.65186c0.54053,-0.26688 1.40231,-0.57626 2.36334,-1.23932c0.47992,-0.33112 1.13992,-0.97171 1.85065,-1.67999c0.78061,-0.77792 1.30917,-1.29681 1.76636,-1.82352c0.73145,-0.84268 0.96262,-1.65536 1.50299,-2.40982c0.56174,-0.7843 1.20682,-1.30002 1.564,-2.10001l0.35718,-0.79999" id="svg_13" stroke-width="2" stroke="#000" fill="none"/>
 </g>
 <g display="none">
  <title>muse_image</title>
  <image xlink:href="http://www.foto-diana.nl/webfoto's/kris%20met%20gitaar%20close-up%20bew.%20kl.jpg" id="muse" height="426" width="640" y="27" x="0"/>
 </g>
 <g display="none">
  <title>bbox</title>
  <rect stroke="#f00" fill="none" stroke-width="3" height="159.75" width="365.86667" y="271.95" x="208" id="bbox"/>
 </g>
</svg>
