<svg width="640" height="480" xmlns="http://www.w3.org/2000/svg" xmlns:svg="http://www.w3.org/2000/svg" xmlns:xlink="http://www.w3.org/1999/xlink">
 <!-- Sketchy ANNOTATION
  ImageNet ID: n03467517_7007
  URL: http://users.owt.com/rpeto/randy/jake10/images/guitar.jpg
  Image Width: 261
  Image Height: 381
  BBox X: 92
  BBox Y: 2
  BBox Width: 119
  BBox Height: 365
  Exposure: 2000ms
  Synset Label: guitar
  Synset ID: n03467517
  Worker Tag: guitar kept on floor
  Sanity Check: 
   Saved
  Comment: 
   {}
  Worker ID: A1P7U2ULSAE7YL
  Assignment ID: 35L9RVQFCOIW37C0OBO4KXZAAMRUHM
  HIT ID: 3T6SSHJUZFAP3RUQAAC9CMHTDVIIIZ
  Work Time: 116s
  Worker Score: 0.7857
 END ANNOTATION -->
 <g display="inline">
  <title>Layer 1</title>
  <path t="0,357,372,372,393,418,418,493,493,493,493,493,509,535,535,542,560,560,582,597,597,597,615,627,627,645,645,645,660,660,682,682,682,682,700,700,700,717,717,717,717,732,732,732,732,750,750,750,750,765,765,765,767,767,777,777,777,777,777,797,797,797,797,815,815,815,815,830,830,842,842,842,860,862,862,880,880,892,892,892,917,917,917,917,927,927,927,927,927,927,950,950,950,950,950,965,965,965,980,982,982,982,1002,1002,1002,1002,1020,1022,1022,1022,1022,1030,1030,1030,1045,1045,1045,1045,1045,1062,1062,1062,1077,1077,1077,1077,1095,1095,1095,1095,1110,1110,1112,1112,1112,1112,1132,1132,1135,1135,1135,1147,1147,1147,1147,1147,1165,1165,1165,1165,1180,1180,1180,1180,1180,1180,1197,1197,1197,1197,1212,1215,1215,1215,1215,1230,1230,1230,1245,1245,1245,1245,1260,1262,1262,1277,1277,1277,1277,1277,1302,1302,1302,1302,1317,1317,1317,1317,1330,1330,1330,1330,1330,1350,1350,1350,1360,1362,1362,1362,1362,1385,1385,1385,1397,1397,1397,1412,1412,1430,1430,1430,1445,1445,1445,1465,1465,1465,1465,1477,1477,1477,1502,1502,1502,1517,1517,1542,1612,1628,1628,1653,1653,1686,1686,1698,1839,1854,1926,1926,1992,1992,2036,2054,2071,2094,2126,2126,2141,2156,2196,2221,2254,2294,2306" d="m333,81c0,2.62534 0,3.484 0,4.34734c0,0.89999 0,1.81933 0,2.65266c0,0.97884 0,1.80983 0,2.768c0,0.732 0,1.464 0,2.57067c0,0.98267 0,1.836 0,2.776c0,0.88533 0,1.68533 0,2.55733c0,0.87067 0,1.828 0,2.56001c0,0.95817 0,1.93466 0,2.78883c0,0.97916 0,1.77917 0,2.57916c0,1.009 0,1.672 0,2.73334c0,0.972 0,1.66666 0,2.36133c0,1.26267 0,2.05467 0,2.81067c0,1.1375 0,1.8045 0,2.5155c0,1.0965 0,2.15783 0,2.8265c0,0.978 0,1.63667 0,2.67416c0,1.1145 0,1.88917 0,2.67983c0,1.19884 0,2.00317 0,2.8195c0,0.83633 0,1.26451 0,2.60051c0,0.93134 0,1.87866 0,2.35333c0,0.94133 0,2.30367 0,3.16367c0,0.81999 0,1.59999 0,2.69499c0,0.68001 0,1.625 0,2.48001c0,1.00133 0,1.66583 0,2.68666c0,0.81067 0,1.68533 0,2.68401c0,0.81599 0,1.63199 0,2.63199c0,0.90933 0,1.85068 0,2.63667c0,0.82201 0,1.88066 0,2.61267c0,0.804 0,1.45999 0,2.74167c0,1.06532 0,1.64099 0,2.23466c0,1.20934 0,1.80899 0,2.95833c0,1.04266 0,1.98134 0,2.832c0,0.77867 0,1.8465 0,2.51083c0,0.9465 0,2.15717 0,2.7585c0,0.91949 0,1.55583 0,2.92017c0,0.73567 0,1.49933 0,2.283c0,1.1955 0,1.99416 0,2.78484c0,0.77466 0,1.52533 0,2.92667c0,0.65866 0,1.30933 0,2.65067c0,0.71733 0,1.45866 0,2.20799c0,0.74133 0,2.14134 0,2.8c0,0.978 0,1.992 0,2.70934c0,0.74133 0,1.86333 0,2.94933c0,0.68533 0,1.36267 0,2.43367c0,1.233 0,1.69717 0,2.6955c0,0.52417 0,1.5975 0,2.13667c0,1.5675 0,2.53017 0,2.9865c0,0.87267 0,1.70534 0,2.91434c0,0.8 0,1.60001 0,2.39999c0,0.8 0,2.00034 0,2.80901c0,0.83267 0,1.70534 0,3.12433c0,0.50917 0,1.5675 0,2.10667c0,1.07333 0,1.5975 0,3.06c0,0.84534 0,1.60266 0,2.304c0,1.36267 0,2.08 0,2.82133c0,0.74933 0,1.49066 0,2.89067c0,0.65866 0,1.30933 0,2.65067c0,0.71599 0,1.448 0,2.172c0,1.328 0,2.16049 0,2.948c0,1.21333 0,1.96666 0,2.8c0,0.43416 0,1.3125 0,2.58c0,0.76399 0,1.8125 0,2.48149c0,1.01851 0,2.10901 0,2.87267c0,0.78368 0,1.97917 0,2.77783c0,0.79068 0,1.56534 0,2.31601c0,1.064 0,2.06 0,2.71066c0,1.34132 0,2.05867 0,2.8c0,0.74933 0,1.49066 0,2.88934c0,0.64932 0,1.58081 0,2.48532c0,0.89099 0,1.728 0,2.66666c0,0.83334 0,1.87634 0,2.60535c0,0.83701 0,2.02798 0,2.62799c0,0.89999 0,2.10001 0,2.70001c0,0.89999 0,1.79999 0,2.69983c0,0.8895 0,1.74301 0,2.77866c0,0.68552 0,1.52017 0,2.517c0,0.91919 0,1.88367 0,2.8045c0,0.909 0,1.57068 0,2.60535c0,0.74399 -0.01047,1.85172 0,2.68567c0.01044,0.83002 0.24893,1.81137 0.61066,2.48364c0.44589,0.82867 1.11533,1.57867 2.04202,1.76819c0.6825,0.13959 1.71133,0.05716 2.64731,0.05716c0.90002,0 1.80002,0 2.70001,0c0.79999,0 1.70001,0 2.60001,0c0.89999,0 1.78934,-0.01068 2.39999,-0.5l0.61066,-0.48932l0.88934,-0.03152" id="svg_1" stroke-width="2" stroke="#000" fill="none"/>
  <path t="4151,4355,4398,4406,4406,4421,4438,4511,4575,4706,4742,4742,4782,4822,5022,5038,5038,5038,5061,5061,5068,5068,5078,5101,5101,5108,5108,5108,5133,5146,5146,5173,5201,5216,5246,5246,5258,5278,5296,5318,5318,5318,5333,5353,5353,5363,5376,5403,5403,5403,5413,5431,5431,5443,5443,5443,5461,5461,5481,5481,5493,5493,5493,5511,5511,5531,5548,5548,5566,5581,5581,5596,5598,5608,5608,5636,5636,5651,5651,5661,5661,5676,5703,5703,5718,5718,5718,5728,5728,5728,5748,5748,5748,5748,5768,5768,5776,5776,5776,5798,5798,5798,5813,5813,5813,5828,5828,5848,5848,5863,5863,5863,5863,5863,5881,5881,5881,5881,5898,5898,5898,5918,5918,5928,5928,5928,5943,5943,5966,5966,5981,5981,5993,5993,5993,6008,6008,6008,6028,6053,6053,6053,6058,6058,6058,6086,6098,6098,6098,6116,6118,6136,6136,6148,6148,6148,6161,6186,6186,6193,6193,6193,6216,6216,6231,6231,6231,6246,6246,6268,6268,6268,6276,6278,6278,6301,6301,6301,6318,6318,6318,6333,6333,6343,6343,6368,6368,6368,6376,6376,6393,6393,6418,6418,6426,6446,6463,6463,6476,6496,6511,6536,6546,6546,6561,6561,6561,6578,6578,6593,6596,6613,6613,6628,6628,6628,6646,6646,6661,6661,6661,6661,6676,6678,6701,6701,6701,6716,6716,6733,6733,6733,6748,6748,6748,6761,6761,6778,6778,6798,6813,6813,6828,6828,6851,6851,6908,6933,6946,6958,6958,6976" d="m334,80c-0.7785,0.8785 0.10001,1 1,1c0.79999,0 1.7265,-0.18374 2.60001,0.036c0.86282,0.21706 1.59698,0.92128 2.5,0.964c0.89899,0.04253 1.69998,0 2.60001,0c0.89999,0 1.90411,-0.03468 2.62115,0.66417c0.56888,0.55446 0.94662,1.0325 1.43582,2.193c0.30658,0.72729 0.24301,1.62683 0.24301,2.49017c0,0.89999 0,1.81933 0,2.6735c0,0.97916 0,1.76849 0,2.49383c0,1.11067 0,1.96934 0,2.83267c0,0.8955 0,1.85266 0,2.75266c0,0.9 0,1.7 0,2.6c0,0.9 0,1.72134 0,2.63334c0,0.91733 0,1.66133 0,2.696c0,0.97066 0,1.77067 0,2.67066c0,0.84167 0,1.84267 0,2.55067c0,0.744 0,1.93501 0,2.84967c0,0.714 0,1.669 0,2.4205c0,0.7965 0,2.022 0,2.6685c0,1.01067 0,1.81067 0,2.81067c0,0.8 0,1.6 0,2.5955c0,0.91917 0,1.9045 0,2.72584c0,0.85333 0,1.79333 0,2.77899c0,0.714 0,1.66768 0,2.39967c0,1.16667 0,1.97917 0,2.8215c0,0.88916 0,1.87833 0,2.65767c0,0.99933 0,1.81949 0,2.65683c0,1.02567 0,1.82567 0,2.78534c0,0.80399 0,1.62599 0,2.65749c0,0.70651 0,1.69051 0,2.56384c0,1.008 0,1.70667 0,2.38933c0,1.19867 0,1.94717 0,3.13467c0,0.786 0,1.608 0,2.66666c0,0.714 0,1.61934 0,2.58784c0,0.79349 0,1.569 0,2.6095c0,0.85199 0,1.83733 0,2.54533c0,0.924 0,1.67732 0,2.51067c0,0.87334 0,1.74666 0,2.97034c0,0.72865 0,1.72166 0,2.34033c0,1.20132 0,2.08183 0,2.91733c0,1 0,1.66451 0,2.68533c0,0.8 0,1.60001 0,2.60001c0,0.79999 0,1.79999 0,2.59999c0,1.00017 0,1.82083 0,2.96667c0,0.786 0,1.608 0,2.66666c0,0.705 0,1.505 0,2.552c0,0.948 0,1.6245 0,2.40001c0,1.04799 0,1.96799 0,2.728c0,1.00749 0,2.0295 0,2.748c0,0.7905 0,1.817 0,2.69699c0,1.02051 0,1.8515 0,2.80968c0,0.73199 0,1.46399 0,2.57066c0,0.983 0,1.703 0,2.828c0,0.78149 0,1.57199 0,2.5c0,0.83333 0,1.87616 0,2.59467c0,0.7905 0,1.81717 0,2.71783c0,1.02083 0,1.8315 0,2.478c0,1.22684 0,2.04283 0,2.85883c0,1.00134 0,1.70483 0,2.45334c0,1.19733 0,1.87067 0,2.86816c0,0.8625 0,1.82083 0,2.68401c0,0.88916 0,1.87866 0,2.69933c0,0.66451 0,1.66183 0,2.45834c0,1.1875 0,2 0,2.84216c0,0.85333 0,1.79333 0,2.77867c0,0.89999 0,1.7 0,2.59999c0,0.90001 0,1.8 0,2.71066c0,0.91084 0,1.61017 0,2.58934c0,0.8 0,1.60001 0,2.60001c0,0.79999 0,1.79999 0,2.59999c0,1.00002 0,1.8 0,2.8c0,0.79999 0,1.60001 0,2.60901c0,0.90533 0,2.03348 0,2.69183c0,0.67831 0,1.64581 0,2.64581c0,0.85419 0,1.82269 0,2.57419c0,0.79648 0,2.02649 0,2.7045c0,1.19598 0,1.72733 0,2.54932c0,1.05869 0,1.98935 0,2.82401c0,1.00134 0,1.80133 0,2.80002c0,0.76532 0,1.71732 0,2.76797c0,0.65869 0,1.66669 0,2.45868c0,1.02734 0,1.72198 0,2.73868c0,0.93597 0.00134,1.836 0.22134,2.73599l0.42599,0.60001l0.33182,0.82083" id="svg_2" stroke-width="2" stroke="#000" fill="none"/>
  <path t="8763,8890,8941,8956,8966,8991,9013,9013,9078,9078,9160,9160,9229,9260,9293,9293,9308,9310,9348,9365,9390,9390,9405,9420,9478,9516,9564,9564,9589,9614,9629,9644,9646,9666,9684,9696,9714,9741,9741,9774,9774,9796,9806,9854,9864,9864,9879,9901,9919,9926,9951,9964,9984,9991,9991,10016,10044,10101,10141,10154,10154,10189,10204,10221,10244,10259,10271,10271,10294,10319,10334,10341,10366,10369,10396,10396,10436,10436,10454,10454,10469,10469,10486,10501,10516,10536,10549,10569,10576,10576,10599,10599,10609,10611,10634,10634,10644,10644,10676,10676,10691,10691,10716,10716,10734,10749,10749,10761,10761,10784,10784,10801,10801,10809,10826,10826,10844,10844,10864,10864,10881,10881,10881,10899,10899,10916,10916,10916,10934,10956,10956,10969,10969,10969,10991,10991,11004,11006,11006,11024,11024,11044,11044,11061,11061,11079,11101,11101,11101,11114,11134,11134,11156,11156,11156,11169,11169,11186,11204,11204,11229,11246,11246,11266,11294,11294,11294,11311,11311,11334,11334,11356,11374,11374,11399,11419,11419,11436,11456,11456,11471,11499,11509,11511,11531,11531,11549,11549,11549,11566,11566,11566,11584,11586,11586,11586,11586,11616,11616,11616,11616,11616,11654,11654,11654,11701,11716,11716,11729,11729,11749,11749,11751,11769,11769,11769,11769,11801,11801,11836,11836,11909,11909,11925,11943,11943,11963,11963,11990,11990,11990,12005,12005,12005,12050,12050,12085,12085,12100,12128,12128,12128,12173,12173,12173,12190,12190,12190,12223,12223,12223,12223,12258,12258,12258,12260,12260,12303,12303,12373,12373,12385,12413,12453,12453,12453,12485,12485,12485,12485,12485,12533,12533,12533,12533,12548,12550,12550,12550,12580,12580,12580,12613,12613,12613,12640,12640,12640,12640,12678,12678,12678,12710,12710,12710,12740,12743,12743,12778,12778,12778,12778,12805,12805,12805,12805,12835,12835,12835,12835,12868,12870,12870,12870,12900,12900,12903,12928,12928,12960,12960,12960,12960,12995,12995,12995,12995,12995,12998,13028,13030,13030,13060,13060,13090,13090,13090,13090,13090,13125,13125,13125,13125,13155,13155,13155,13195,13195,13195,13195,13195,13220,13220,13223,13223,13223,13258,13258,13293,13293,13323,13323,13353,13353,13400,13400,13418,13448,13448,13478,13478,13520,13563,13563,13563,13580,13580,13605,13638,13638,13688,13688,13730,13753,13753,13775,13775,13818,13818,13853,13883,13883,13940,13958,13958,13983,13983,14053,14053,14085,14100,14128,14128,14165,14165,14203,14203,14228,14230,14255,14288,14288,14288,14333,14333,14365,14365,14390,14438,14438,14458,14490,14518,14518,14548,14578,14618,14618,14650,14695,14715,14780,14969" d="m333,248c-1.70001,0 -2.60001,0 -3.5,0c-0.89999,0 -1.86136,-0.14565 -2.70132,0.28534c-0.61938,0.31783 -1.46237,0.99611 -2.146,1.41466c-0.78049,0.47784 -1.47638,0.95425 -2.35269,1.35268c-0.73505,0.3342 -1.44467,0.98715 -2.12534,1.33665c-0.97983,0.50311 -1.78317,0.59924 -2.57465,1.03601c-0.82169,0.45345 -1.73801,0.61011 -2.24283,1.27916c-0.56665,0.75098 -0.83231,1.49564 -1.52383,2.12885c-0.59821,0.54776 -1.17337,1.1579 -1.83334,1.66666c-0.76505,0.58975 -1.35663,1.11234 -1.91599,1.78534c-0.55603,0.66901 -1.06613,1.14621 -1.72684,1.76733c-0.60394,0.56778 -0.1257,1.69424 -0.39883,2.44733c-0.29895,0.82431 -1.42828,1.15637 -1.78769,1.98401c-0.34982,0.80563 -0.17065,1.75882 -0.17065,2.716c0,0.89999 0,1.79999 0,2.59998c0,0.90002 0,1.80002 0,2.70001c0,0.89999 0,1.79999 0,2.70001c0,0.89999 -0.16815,1.83643 0.08533,2.59998c0.25635,0.77219 0.88608,1.49863 0.91467,2.40002c0.02853,0.89954 0,1.79999 0,2.59998c0,0.90002 0,1.80002 0,2.70001c0,0.89999 0.13657,1.85663 -0.284,2.70001c-0.32993,0.66162 -0.77039,1.49905 -1.216,2.29999c-0.44455,0.79904 -0.34357,1.74973 -0.66666,2.5c-0.30676,0.7124 -1.02252,1.49039 -1.43335,2.17465c-0.48727,0.81161 -1.02322,1.39267 -1.69998,2.12985c-0.51831,0.56458 -1.0618,1.31903 -1.41467,2.21149c-0.32239,0.81537 -0.8627,1.4252 -1.31067,2.09467c-0.49213,0.73544 -0.67328,1.76971 -1.33185,2.33667c-0.68762,0.59198 -1.41568,0.9241 -1.59015,1.70984c-0.20682,0.9313 -0.34384,1.73883 -0.62735,2.50684c-0.35022,0.94876 -0.46631,1.73703 -0.86133,2.672c-0.33005,0.78119 -0.81277,1.54297 -1.12799,2.36401c-0.37567,0.97849 -0.38602,1.78018 -0.43616,2.77847c-0.03607,0.71835 -0.63123,1.49258 -0.87836,2.34302c-0.25003,0.86044 -0.06619,1.88177 -0.14233,2.65765c-0.08463,0.8624 -0.67862,1.60675 -0.89383,2.50485c-0.20206,0.84323 -0.07382,1.7634 -0.08533,2.68265c-0.01044,0.83353 -0.26212,1.79135 -0.57468,2.45868c-0.39276,0.83859 -0.41998,1.62131 -0.42532,2.79584c-0.0036,0.79349 0,1.569 0,2.61084c0,0.77332 0,1.73599 0,2.46799c0,0.73199 0,1.83865 0,2.82166c0,0.72 0,1.845 0,2.62653c0,0.7905 0,1.71848 0,2.55182c0,1.04285 -0.00006,1.76132 0,2.55182c0.00009,1.02652 -0.13232,1.94901 0.22134,2.92685c0.25064,0.69296 0.52042,1.5538 0.83133,2.31149c0.36917,0.89972 1.17242,1.55267 1.42648,2.23068c0.26331,0.7027 0.38815,1.85013 0.74234,2.5795c0.37653,0.77542 0.8707,1.44586 1.18918,2.15033c0.3381,0.74783 1.06711,1.78436 1.56848,2.20767c0.77045,0.65051 0.84439,1.5809 1.10617,2.34164c0.26825,0.77957 1.11734,1.39737 1.71466,2c0.60269,0.60803 1.18542,1.37601 1.61069,2.02536c0.45914,0.70108 1.24292,1.41608 1.93665,1.87015c0.76837,0.50296 1.45172,1.10413 2.05267,1.7045c0.70026,0.69958 1.15573,1.34732 1.62085,2.10001c0.46692,0.75562 1.15735,1.08435 2.22198,1.44733c0.85178,0.29041 1.41342,0.85159 2.35718,1.04199c0.88275,0.1781 1.68738,0.3912 2.28534,0.81201c0.75146,0.52884 1.51569,0.90564 2.51599,1.39868c0.6174,0.30429 1.27933,0.61179 2.28534,1.00131c0.85117,0.32956 1.48087,0.54169 2.47998,0.96533c0.7244,0.30716 1.47559,0.66901 2.28,1.008c0.83554,0.35211 1.71423,0.67822 2.63467,0.93869c0.91736,0.25958 1.81989,0.44788 2.25168,0.52499c1.49768,0.26752 2.0899,0.32889 2.99634,0.35718c1.04483,0.03262 1.99197,0.00449 2.67065,0.00449c0.97882,0 1.80984,0 2.772,0c0.7905,0 1.716,0 2.74918,0c0.72699,0 1.45798,0 2.50949,0c0.92618,0 1.90683,0 2.80267,0c0.79199,0 1.81934,0 2.51398,0c1.02734,0 1.97827,0.05792 2.65268,-0.02084c0.9924,-0.11591 1.63422,-0.64841 2.543,-0.85782c0.98032,-0.22589 1.57449,-0.12222 2.75665,-0.34268c0.88708,-0.16544 1.41074,-0.42862 2.55753,-0.65717c0.88132,-0.17563 1.84561,0.09161 2.57349,-0.20682c0.77762,-0.31882 1.41769,-1.12961 2.11099,-1.41467c0.77032,-0.31671 1.78299,-0.68344 2.45834,-1.02084c0.69333,-0.34637 1.68454,-0.96231 2.22534,-1.3045c0.82281,-0.52066 1.60388,-1.0152 2.33099,-1.42648c0.73691,-0.41684 1.30219,-0.71078 2.3075,-1.29083c0.79276,-0.4574 1.61652,-0.95538 2.02417,-1.20667c0.77698,-0.47894 1.99341,-1.25195 2.52866,-1.70901c0.82034,-0.70053 1.21976,-1.31284 1.98334,-1.931c0.745,-0.60312 1.60577,-0.93951 2.03201,-1.49332c0.44556,-0.57889 1.32507,-1.54675 1.93048,-2.07001c0.3205,-0.27701 1.00101,-0.81763 1.67084,-1.36334c0.92874,-0.75665 1.70923,-1.45459 2.18134,-1.90933c0.47195,-0.45462 1.47205,-1.45471 2,-2c0.52808,-0.54541 1.05743,-1.05884 1.81601,-2.08932c0.47525,-0.64563 0.82474,-1.30521 1.45465,-2.08667c0.51392,-0.63754 1.14005,-1.26508 1.71436,-2.02017c0.60495,-0.79538 0.97299,-1.36841 1.22964,-1.97983c0.48923,-1.16556 0.54114,-2.09973 0.61884,-2.69867c0.15594,-1.20221 0.37234,-2.09427 0.5625,-2.664c0.36026,-1.07947 0.72629,-1.7735 0.95334,-2.49731c0.33084,-1.05466 0.38904,-2.04807 0.41516,-2.75952c0.02682,-0.73068 0.02084,-1.8125 0.02084,-2.82648c0,-0.65268 0,-1.30536 0,-2.67419c0,-0.73566 0,-1.49933 0,-2.28299c0,-1.1955 0,-1.99283 0,-2.77417c0,-0.74933 0,-2.08798 0,-2.90698c0,-0.69302 0,-1.71451 0,-2.53519c0,-1.14581 0,-1.66849 0,-2.5625c0,-0.69266 0,-1.91666 0,-2.86731c0,-0.50284 0,-1.5285 0,-2.53418c0,-0.47784 0,-1.72916 0,-2.67117c0,-0.93866 0.03943,-1.95941 -0.07199,-2.616c-0.18286,-1.07764 -0.48804,-1.70334 -0.80002,-2.39999c-0.33789,-0.75455 -0.7327,-1.52966 -1.32767,-2.72766c-0.39267,-0.79068 -0.59921,-1.16992 -0.92831,-1.92834c-0.5744,-1.32373 -0.7471,-2.17096 -0.92267,-2.92267c-0.25449,-1.08963 -0.50937,-1.72467 -0.82135,-2.42133c-0.33789,-0.75455 -0.72986,-1.53107 -1.12799,-2.328c-0.39789,-0.79639 -0.7836,-1.57098 -1.164,-2.29199c-0.34549,-0.65479 -1.02475,-1.89578 -1.58865,-2.3945c-0.66995,-0.59253 -1.49994,-0.8674 -2.22583,-1.63467c-0.56821,-0.60062 -1.10934,-1.46558 -1.77869,-1.72699c-0.88104,-0.34412 -1.59756,-0.577 -2.60684,-0.92651c-0.8439,-0.29227 -1.51596,-0.83499 -2.28415,-1.32532c-0.6376,-0.40698 -1.22729,-1.17889 -1.85184,-1.86667c-0.49747,-0.54782 -1.32312,-0.90649 -2,-1.66669c-0.60422,-0.67856 -0.95187,-1.55194 -1.59982,-2.26682c-0.47607,-0.52527 -0.85306,-1.38113 -0.89569,-2.24716c-0.04425,-0.89896 -0.00449,-1.81934 -0.00449,-2.65268c0,-0.97867 0,-1.75266 0,-2.65268c0,-0.86331 0,-1.84732 0,-2.83133c0,-0.69064 0,-1.76334 0,-2.68265c0,-0.83334 0,-1.66669 0,-2.586c0,-0.90002 0.15552,-1.60828 -0.01068,-2.61136c-0.14365,-0.86685 -1.06754,-1.32178 -1.68933,-1.74582c-0.84848,-0.57864 -1.03015,-1.46143 -1.60449,-2.133c-0.52252,-0.61099 -1.43213,-0.94022 -2.12616,-1.55716c-0.69629,-0.61896 -1.22232,-1.53543 -1.85599,-2.02536c-0.46539,-0.35983 -1.40323,-0.98029 -2.04135,-1.53867c-0.80267,-0.70241 -1.272,-1.23599 -1.97198,-1.93599c-0.70001,-0.70001 -1.11533,-1.37393 -2,-1.64284c-0.86295,-0.2623 -1.74683,-0.36403 -2.5,-0.77316c-0.79752,-0.43323 -1.22852,-1.08447 -1.90985,-1.5795c-0.73605,-0.53477 -1.65417,-0.6685 -2.59015,-0.7045l-0.89868,-0.00133l-0.74866,-0.35133l-0.48868,-0.62201" id="svg_3" stroke-width="2" stroke="#000" fill="none"/>
  <path t="16345,16911,16949,17137,17152,17152,17183,17215,17238,17253,17258,17278,17298,17318,17318,17330,17343,17360,17385,17393,17418,17425,17440,17465,17465,17483,17490,17510,17535,17550,17550,17565,17585,17585,17595,17615,17643,17693,17693,17713,17713,17725,17745,17773,17800,17820,17838,17838,17853,17868,17888,17888,17933,17953,18043,18059,18080,18080,18097,18125,18125,18135,18167,18167,18175,18197,18197,18222,18222,18235,18270,18310,18310,18340,18342,18355,18385,18385,18420,18420,18420,18450,18450,18450,18490,18490,18517,18517,18517,18575,18575,18575,18597,18635,18677,18702,18702,18732,18732,18760,18807,18807,18840,18865,18935,18982,19037,19037,19077,19120,19157,19167,19167,19405" d="m342,309c-1.70001,0.05716 -2.44907,0.60736 -3.3045,0.94733c-0.82672,0.32855 -1.81311,0.42346 -2.45267,1.1525c-0.55399,0.63153 -0.91315,1.44684 -1.60001,1.84302c-0.81458,0.46982 -1.57428,0.52521 -2.16367,1.078c-0.63614,0.59665 -1.14508,1.31 -1.77466,1.86932c-0.64642,0.57428 -1.47931,1.04645 -1.70001,1.81433c-0.24738,0.86069 0.0484,1.83023 -0.35715,2.59549c-0.4483,0.84592 -0.64734,1.70001 -0.64734,2.5c0,0.90002 0,1.80002 0,2.70001c0,0.8045 0,1.82132 0,2.5c0,0.97849 0,2 0,2.79999c0,0.90002 -0.08664,1.80582 0.01068,2.61069c0.11221,0.92798 0.42401,1.64575 1.08932,2.56766c0.44592,0.61789 1.41531,0.88199 1.89999,1.54251c0.50598,0.68951 0.60706,1.7691 1.2215,2.35782c0.68088,0.65237 1.59354,0.57361 2.3425,1.14667c0.69202,0.52948 1.116,1.33218 1.78784,1.61749c0.97742,0.41507 1.94815,0.35718 2.84818,0.35718c0.89999,0 1.80017,0.01721 2.59998,0c0.83658,-0.01801 1.67099,-0.31668 2.54733,-0.64734c0.88361,-0.3334 1.71106,-0.63974 2.35269,-1c0.77899,-0.43738 1.80234,-0.60162 2.47464,-0.96332c0.82864,-0.4458 1.32489,-1.17035 1.82535,-1.8685c0.49155,-0.68573 1.29303,-1.23508 1.70001,-1.87268c0.49033,-0.76819 0.95477,-1.47421 1.36133,-2.28415c0.44366,-0.88388 1.06601,-1.30936 1.60532,-2.36401c0.29272,-0.57245 0.32883,-1.45712 0.33334,-2.42133c0.00375,-0.80402 0,-1.62601 0,-2.65717c0,-0.90067 0,-1.92151 0,-2.73218c0,-0.64648 0,-1.87201 0,-2.66849c0,-0.7515 0.00006,-1.84885 0,-2.72086c-0.00009,-0.89999 -0.12558,-1.83267 -0.61066,-2.39999c-0.63843,-0.7467 -1.189,-1.20032 -1.88934,-1.89999c-0.69968,-0.69901 -1.26825,-1.33551 -2.10001,-1.48932c-0.88553,-0.16376 -1.7179,-0.59982 -2.5,-0.88919c-0.85175,-0.31512 -1.67984,-0.24136 -2.5,-0.69617c-0.7822,-0.43375 -1.60001,-0.70932 -2.39999,-1.25867l-0.70001,-0.21933l-0.79999,-0.44733" id="svg_4" stroke-width="2" stroke="#000" fill="none"/>
  <path t="20039,20391,20437,20450,20462,20475,20495,20515,20530,20530,20542,20557,20557,20585,20585,20630,20662,20710,20710,20742,20767,20767,20777,20777,20792,20807,20810,20810,20835,20835,21099,21099,21115,21115,21136,21136,21158,21158,21171,21171,21191,21191,21203,21203,21218,21246,21344,21344,21375,21393,21393,21393,21418,21418,21418,21428,21428,21428,21443,21463,21463,21493,21493,21493,21558,21560,21560,21584,21584,21596,21611,21629,21644,21644,21726,21726,21855,21855,22004,22019,22019,22040,22188,22344,22360,22360,22390,22415,22415,22415,22415,22537,22537,22568,22568,22568,22586,22586,22603,22623,22623,22641,22641,22668,22668,22676,22678,22693,22711,22711,22726,22726,22756,22756,22781,22999,23037,23037,23055,23065,23080,23102,23102,23122,23140,23140,23157,23177" d="m329,358c1.79999,0 2.70001,0 3.60001,0c0.89999,0 1.78259,-0.0192 2.39999,-0.5c0.6398,-0.49826 1.48401,-0.49783 2.34732,-0.5c0.90002,-0.00226 1.81934,-0.16666 2.65268,-0.5c0.83334,-0.33334 1.6955,-0.49774 2.60001,-0.5c0.81067,-0.00201 1.72131,0 2.57465,0c0.94,0 1.92551,0 2.71069,0c0.94,0 1.63065,0 2.6355,0c1.022,0 1.74048,0 2.53098,0c1.02667,0 1.92737,-0.00699 2.94818,0c0.77872,0.00534 1.82703,0.11288 1.99734,0.88666c0.2041,0.92715 -0.02792,1.71527 0.00714,2.71335c0.02814,0.80124 0.2818,1.79779 0.57019,2.564c0.30627,0.81375 0.42465,1.72 0.42532,2.66135c0.00049,0.69064 0.00006,1.76398 0,2.58533c-0.00009,0.91049 0.34058,2.1127 -0.44666,2.50665c-0.7923,0.39648 -1.60355,-0.44345 -2.24002,-0.80399c-1.01151,-0.573 -1.53436,-0.9455 -2.36066,-1.46066c-1.02576,-0.63953 -1.67978,-1.0676 -2.466,-1.36603c-0.83868,-0.31833 -1.81757,-0.20685 -2.50751,-0.32831c-1.0062,-0.17715 -1.74756,-0.83646 -2.32199,-1.25302c-0.87469,-0.63431 -1.82382,-0.70532 -2.48251,-0.70532c-1.008,0 -1.87015,0 -2.77466,0c-0.89999,0 -1.81067,0 -2.7215,0c-0.69934,0 -1.6785,0 -2.65765,0c-0.85419,0 -1.63782,0.15674 -2.19019,0.80133c-0.59015,0.68872 -1.12326,1.12097 -1.87881,1.84149c-0.57925,0.5524 -0.97153,1.27008 -1.30902,2.00534c-0.37537,0.81772 -1.21579,1.32373 -2.14282,1.68518c-0.55884,0.2179 -1.49557,0.67651 -2.142,0.96133c-1.08646,0.47867 -1.89044,0.76407 -2.67917,0.26233c-0.75058,-0.47748 -1.2576,-1.10437 -1.56451,-2.1525c-0.2121,-0.7243 -0.11432,-1.77917 -0.11432,-2.72583c0,-0.67868 0,-1.65735 0,-2.43134c0,-0.90451 0,-1.84866 0,-2.84283c0,-0.74734 0,-1.77917 0,-2.72583c0,-0.67868 0,-1.65735 0,-2.43134c0,-1.07269 -0.01129,-1.7634 0,-2.7265c0.01068,-0.91037 0.7084,-1.491 1.51733,-1.5195c0.96124,-0.03384 1.97855,-0.18442 2.68134,0.284c0.79532,0.53012 0.86975,1.46527 1.68799,1.79868c0.75314,0.30688 1.46066,0.62048 2.35168,1.21597l0.595,0.70001" id="svg_5" stroke-width="2" stroke="#000" fill="none"/>
  <path t="25767,25997,26036,26036,26049,26049,26301,26333,26333,26355,26355,26585,26585,26621,26621,26644,26644,26646,26684,26684,26746,26746,26746,26746,26759,26759,26844,26859,26881,27056,27107,27142,27227,27227,27286,27286,27301,27336,27406,27406,27406,27493,27493,27542,27572,27590,27595,27612,27630,27630,27647,27647,27677,27677,27677,27705,27707,27707,27757,27856,27856,27871,27910,27927,27927,28041,28041,28158,28158,28204,28204,28357,28377,28400,28400,28437,28437,28437,28452,28452,28482,28517,28517,28517,28535,28535,28535,28565,28565,28590,28590,28622,28622,28655,28655,28685,28685,28707,29059,29059,29075,29075" d="m335,80c-0.05716,-1.75716 -0.31934,-2.67291 -0.7045,-3.34734c-0.45242,-0.79221 -1.1839,-1.20702 -1.99551,-1.7625c-0.70023,-0.47924 -0.96664,-1.26526 -1.59998,-2.1375c-0.47565,-0.65508 -1.00964,-1.40475 -1.40002,-2.15717c-0.41,-0.79028 -0.86304,-1.56963 -1.13333,-2.5955c-0.207,-0.78558 -0.18747,-1.61869 -0.45331,-2.40134c-0.29236,-0.86069 -0.87396,-1.76909 -1.19736,-2.28133c-0.50662,-0.80249 -1.02063,-1.55661 -1.62933,-2.34667c-0.5155,-0.66909 -0.87622,-1.47049 -0.88666,-2.37067c-0.01041,-0.89994 0,-1.8 0,-2.7c0,-0.9 0.22693,-1.76235 0.88666,-1.984c0.94681,-0.31811 1.60443,-0.75148 2.5925,-0.89517c0.93259,-0.13562 1.85419,-0.02083 2.52618,-0.02083c0.98932,0 2.02399,0 2.79199,0c0.90268,0 1.80267,0 2.70267,0c0.89999,0 1.8045,0 2.66666,0c0.83334,0 1.81235,-0.00006 2.53067,0c1.06668,0.00008 1.97998,-0.01251 2.62668,0.036c1.17993,0.0885 1.77869,0.38717 2.55734,0.68c0.91614,0.34455 1.95038,0.45381 2.59781,0.784c0.91858,0.46847 1.82199,0.45688 2.621,0.50017c0.78864,0.04273 1.73871,0.42984 2.30435,0.70433c0.99936,0.48496 1.8035,0.83006 2.57382,1.3955c0.61429,0.45089 1.01123,1.39982 1.02167,2.31067c0.01041,0.91077 0.00653,1.61019 0,2.58933c-0.00534,0.80005 0.01028,1.63133 -0.35718,2.591c-0.27771,0.7253 -1.22012,1.36187 -1.80948,1.909c-0.5448,0.50578 -0.98993,1.2734 -1.66669,2.16666c-0.51709,0.68252 -0.98569,1.20333 -1.56665,2.15867c-0.4147,0.68193 -0.92883,1.40038 -1.39999,2.05867c-0.53369,0.74565 -0.86551,1.48733 -1.5,2.36333c-0.47488,0.65562 -1.04898,1.38109 -1.34283,2.10001c-0.40848,0.99933 -0.57852,1.974 -0.85718,2.65266l-0.33334,0.83334l-0.16217,0.86217" id="svg_6" stroke-width="2" stroke="#000" fill="none"/>
  <path t="32220,32441,32441,32457,32485,32495,32515,32535,32550,32550,32557,32560,32582,32582,32605,32605,32645,32655,32675,32675,32702,32712,32725,32752,32757,32757,32775,32792,32792,32812,32812,32830,32845,32847,32860,32860,32885,32885,32892,32892,32910,32910,32927,32927,32942,32942,32965,32965,32977,32992,32992,33007,33007,33007,33025,33025,33052,33052,33070,33070,33085,33102,33102,33115,33135,33152,33160,33190,33202,33210,33230,33230,33247,33262,33262,33262,33275,33275,33297,33297,33312,33315,33332,33342,33342,33370,33382,33397,33410,33410,33427,33457,33457,33470,33482,33505,33535,33550,33550,33575,33590,33602,33637,33652,33670,33682,33692,33692,33717,33735,33742,33760,33775,33777,33792,33830,33847,33860,33887,33902,33902,33927,33927,33950,33965,33965,33982,34002,34002,34022,34022,34040,34040,34055,34140,34140,34189,34247,34264,34277,34292,34292,34309,34334,34342,34367,34367,34374,34392,34392,34414,34414,34414,34427,34427,34447,34447,34462,34462,34474,34474,34474,34502,34512,34512,34527,34544,34544,34562,34562,34589,34589,34617,34654,34654,34677,34679,34694,34719,34719,34732,34732,34749,34769,34769,34782,34782,34782,34799,34799,34812,34812,34812,34827,34827,34854,34854,34862,34862,34862,34877,34902,34914,34914,34927,34947,34947,34959,34974,34977,34977,34994,34994,35014,35014,35029,35042,35042,35059,35059,35077,35077,35077,35094,35094,35094,35119,35127,35127,35127,35127,35144,35144,35159,35159,35174,35177,35194,35214,35214,35227,35227,35249,35262,35262,35277,35292,35312,35312,35334,35334,35342,35344,35344,35359,35387,35387,35397,35399,35414,35434,35434,35444,35447,35459,35477,35477,35494,35494,35509,35509,35509,35524,35542,35542,35557,35559,35559,35584,35584,35597,35597,35612,35634,35634,35634,35654,35654,35674,35677,35697,35697,35719,35719,35739,35739,35739,35739,35762,35762,35762,35799,35799,35799,35809,35809,36019,36055,36085,36098,36128,36128,36143,36160,36160,36180,36203" d="m338,82c0,1 0,1.8 0,2.7c0,0.9 0.00223,1.8 0,2.7c-0.00226,0.9045 -0.16666,1.76666 -0.5,2.6c-0.33334,0.83334 -0.49466,1.6253 -0.5,2.65717c-0.00388,0.74733 0,1.7415 0,2.50684c0,0.95067 0,1.936 0,2.836c0,0.8 0,1.7 0,2.6c0,0.9 0,1.81067 0,2.72134c0,0.67867 0,1.79333 0,2.67867c0,0.75716 0,1.65266 0,2.516c0,0.984 0,1.80534 0,2.65867c0,0.94133 0,1.70934 0,2.66133c0,0.76534 0,1.764 0,2.564c0,1 0,1.8 0,2.79984c0,0.77933 0,1.91616 0,2.68417c0,0.94133 0,1.632 0,2.616c0,0.98666 0,1.74667 0,2.66666c0,0.7815 0,1.82351 0,2.6905c0,0.89101 0.00052,1.8 0,2.54733c-0.00067,0.99417 0.05206,1.98187 -0.35266,2.83833c-0.38318,0.81088 -0.64667,1.55717 -0.64734,2.45717c-0.00067,0.90001 0,1.8 0,2.7c0,0.90001 0,1.8 0,2.70001c0,0.89999 0,1.7 0,2.57199c0,0.87083 0,1.58934 0,2.37984c0,1.26151 0,2.1015 0,3.06416c0,0.76801 0,1.70934 0,2.40001c0,0.98399 0,1.96799 0,2.83133c0,0.89549 0,1.85266 0,2.75267c0,0.89999 0,1.7 0,2.536c0,1.01666 0,1.71133 0,2.728c0,0.936 0,1.836 0,2.73601c0,0.89999 0,1.7 0,2.59999c0,0.90001 0,1.8 0,2.7c0,0.90001 0,1.8 0,2.70001c0,0.89999 -0.19595,1.73444 0.05716,2.59999c0.25665,0.87764 0.90012,1.49698 0.94284,2.40001c0.04251,0.89899 0,1.7 0,2.59999c0,0.90001 -0.15707,1.81572 0.01068,2.7c0.17947,0.94592 0.90137,1.58734 0.98483,2.35718c0.09653,0.89029 0.00449,1.75883 0.00449,2.74283c0,0.98399 0,1.67467 0,2.74733c0,0.91934 0,1.75267 0,2.586c0,0.91934 -0.09229,1.83356 0.05716,2.51401c0.23273,1.05969 1.03574,1.57727 1.50684,2.25267c0.51169,0.73358 0.436,1.7 0.436,2.59999c0,0.90001 0,1.8 0,2.60001c0,0.89999 0,1.8 0,2.72083c0,0.96317 0,1.65384 0,2.7265c0,0.91934 0,1.7735 0,2.75267c0,0.8 0,1.60001 0,2.60001c0,0.79999 0,1.79999 0,2.59999c0,1 0,1.8 0,2.8c0,0.78934 0,1.51466 0,2.5c0,0.98399 0,1.67467 0,2.74733c0,0.91934 0,1.75267 0,2.73134c0,0.774 0,1.674 0,2.53734c0,0.85866 0,1.80533 0,2.65866c0,0.94133 0,1.70934 0,2.65067c0,1.008 0,1.8 0,2.65866c0,0.86334 0,1.89067 0,2.83768c0,0.72 0,1.845 0,2.6265c0,0.7905 0,1.71851 0,2.55183c0,1.04283 0,1.76134 0,2.55183c0,1.0265 0,1.90649 0,2.927c0,0.6825 0,1.78917 0,2.52116c0,0.73199 0,1.828 0,2.70001c0,0.90015 0,1.68533 0,2.62534c0,1.008 0,1.87015 0,2.71631c0,1.00119 0,1.71967 0,2.51016c0,1.02652 0,1.90652 0,2.92667c0,0.71701 0,1.6575 0,2.50684c0,0.91919 0,1.91602 0,2.75067c0,0.93066 0,1.71667 0,2.53867c0,1.05869 0,1.76367 0,2.73868c0,0.88266 0,1.98666 0,2.53867c0,0.948 0,1.59 0,2.89334c0,0.79831 0,1.71182 0,2.45917c0,0.99417 0,1.75949 0,2.84283c0,0.91931 0,1.75266 0,2.73114c0,0.71701 0,1.6575 0,2.50552c0,0.86331 0,1.88 0,2.716c0,0.90033 0,1.77066 0,2.56934c0,1.01599 0,2.064 0,2.76898c0,0.80002 0,1.83633 0,2.78299c0,0.67868 0,1.65717 0,2.47736c0,0.9585 0,1.85849 0,2.60583c0,0.99417 0,1.75949 0,2.84283c0,0.91931 0,1.75266 0,2.73148c0,0.68253 0,1.78918 0,2.52118c0,0.73199 0,1.83865 0,2.82166c0,0.72 0,1.845 0,2.62653c0,0.7905 0,1.71848 0,2.53098c0,1.00485 0,1.6955 0,2.76819c0,0.91931 0,1.79431 0,2.43933c0,0.996 0,1.79248 0,2.97998c0,0.8125 0,1.65466 0,2.508c0,0.94534 0,1.74951 0,2.81085c0,0.72968 0,1.53534 0,2.36099c0,1.1535 0,2.08652 0,2.85751c0,0.96265 0,1.74417 0,2.53467c0,1.11832 0,1.95233 0,2.76132c0,0.89999 0,1.79999 0,2.70001c0,0.90015 0,1.68533 0,2.62534c0,1.008 0,1.87015 0,2.67465l0,0.89999" id="svg_7" stroke-width="2" stroke="#000" fill="none"/>
  <path t="37725,37886,37901,37922,37922,37939,37939,37952,37952,37964,37982,37982,37997,38009,38009,38024,38044,38044,38057,38059,38059,38079,38079,38079,38079,38094,38094,38109,38109,38109,38134,38134,38134,38144,38144,38144,38144,38159,38159,38159,38177,38194,38194,38219,38219,38232,38244,38247,38262,38262,38277,38294,38294,38309,38309,38309,38329,38329,38329,38349,38349,38349,38357,38359,38359,38359,38382,38382,38382,38404,38404,38409,38409,38409,38429,38429,38442,38444,38462,38462,38477,38477,38477,38494,38494,38494,38509,38534,38534,38544,38544,38544,38559,38559,38587,38587,38587,38597,38597,38619,38619,38629,38629,38644,38659,38659,38687,38687,38699,38719,38719,38734,38749,38749,38764,38764,38782,38782,38799,38799,38799,38809,38809,38837,38837,38837,38854" d="m340,81c0,1.8 0,2.636 0,3.48534c0,0.91917 0,1.91333 0,2.67867c0,0.952 0,1.72 0,2.66133c0,1.008 0,1.87017 0,2.6955c0,0.96317 0,1.65383 0,2.72649c0,0.91933 0,1.77351 0,2.75267c0,0.82133 0,1.51434 0,2.64267c0,0.66267 0,1.35733 0,2.38933c0,1.19733 0,1.92634 0,2.968c0,0.81067 0,1.45717 0,2.68667c0,0.56 0,1.475 0,2.48c0,0.716 0,1.8125 0,2.52351c0,0.97649 0,2.02716 0,2.82183c0,0.86266 0,1.80933 0,2.66267c0,0.94133 0,1.70934 0,2.65067c0,1.008 0,1.8 0,2.65867c0,0.86333 0,1.89066 0,2.83766c0,0.72001 0,1.84501 0,2.631c0,0.82201 0,1.88066 0,2.59467c0,0.67799 0,1.87416 0,2.68866c0,0.57468 0,1.76401 0,2.664c0,0.60001 0,1.5 0,2.69867c0,0.88051 0,1.44417 0,2.716c0,0.66451 0,1.68533 0,2.48534c0,0.8 0,1.8 0,2.59999c0,1 0,1.8 0,2.80017c0,0.82066 0,1.96651 0,2.7525c0,0.82201 0,1.88066 0,2.58566c0,0.8 0,1.83633 0,2.78334c0,0.72 0,1.845 0,2.6265c0,0.7905 0,1.71851 0,2.55183c0,1.04283 0,1.76134 0,2.55183c0,1.0265 0,1.90649 0,2.92683c0,0.774 0,1.674 0,2.53734c0,0.85866 0,1.80533 0,2.65866c0,0.94133 0,1.70934 0,2.65067c0,1.008 -0.06204,1.86766 -0.42532,2.58533c-0.45938,0.90756 -0.56424,1.58917 -0.57468,2.56801c-0.00964,0.90529 0,1.683 0,2.483c0,1.22234 0.00043,1.76366 0,2.58566c-0.00067,1.26733 -0.02084,1.93184 -0.16666,2.95267l-0.25867,0.78934l-0.29068,0.72533l-0.26315,0.96451" id="svg_8" stroke-width="2" stroke="#000" fill="none"/>
  <path t="40271,40460,40476,40476,40504,40532,40544,40564,40574,40574,40597,40617,40634,40647,40662,40674,40702,40702,40717,40717,40737,40757,40774,40802,40814,40829,40844,40844,40857,40857,40877,40877,40902,40907,40907,40907,40934,40934,40934,40942,40959,40984,41004,41007,41029,41029,41054,41072,41072,41102,41117,41117,41134,41134,41152,41152,41167,41184,41184,41199,41199,41207,41237,41244,41257,41282,41292,41309,41309,41334,41344,41359,41382,41392,41412,41412,41412,41429,41429,41429,41444,41444,41462,41462,41474,41474,41492,41492,41509,41509,41524,41524,41549,41549,41564,41564,41564,41574,41574,41594,41609,41634,41637,41662,41662,41694,41724,41724,41749,41749,41774,41774,41807,41844,41869,41884,41894,41894,41894" d="m344,84c1.08401,0.88667 1.40237,1.63339 1.716,2.516c0.29584,0.83252 0.284,1.784 0.284,2.684c0,0.9 0,1.8 0,2.60001c0,0.89999 0,1.8 0,2.7c0,0.9 0,1.8 0,2.70133c0,0.96533 0,1.79867 0,2.632c0,0.86217 0,1.76666 0,2.66666c0,0.9 0,1.8 0,2.7c0,0.9 0,1.8 0,2.55717c0,0.9 0,1.84417 0,2.83833c0,0.74734 0,1.65633 0,2.73784c0,0.6765 0,1.452 0,2.5c0,0.92 0.1738,1.69958 -0.02084,2.64583c-0.17838,0.86721 -0.91827,1.61472 -0.97916,2.52084c-0.05075,0.75546 0,1.65266 0,2.516c0,0.984 0,1.968 0,2.65867c0,0.94133 0,1.992 0,2.65067c0,1.008 0.03662,1.80081 -0.00449,2.82733c-0.02786,0.69611 -0.54483,1.66957 -0.82886,2.51401c-0.26971,0.80185 -0.16666,1.66666 -0.16666,2.52882c0,0.90451 0,1.8045 0,2.7045c0,0.90001 0,1.8 0,2.70001c0,0.89999 0,1.7 0,2.59999c0,0.90001 0,1.8 0,2.7c0,0.90451 0,1.76668 0,2.64168c0,0.64499 0,1.911 0,2.45833c0,0.81599 0,2.04283 0,2.89549c0,1.0045 0,1.8045 0,2.80434c0,0.77934 0,1.6335 0,2.55284c0,0.9045 0,1.65182 0,2.64732c0,0.8 0,1.8 0,2.60001c0,1 0,1.8 0,2.60001c0,0.9955 0.00204,1.91466 0,2.76399c-0.00226,0.93602 -0.38217,1.78444 -0.716,2.52133c-0.3302,0.72885 -0.28265,1.63068 -0.284,2.61467c-0.00134,0.98399 0.08157,1.71381 -0.284,2.616c-0.33093,0.81667 -0.6969,1.70869 -0.71466,2.40001c-0.02759,1.07298 -0.00003,1.88399 -0.00134,2.784c-0.00134,0.90134 -0.33334,1.86667 -0.70532,2.35716l-0.58936,0.74733" id="svg_9" stroke-width="2" stroke="#000" fill="none"/>
  <path t="43083,43188,43204,43227,43252,43262,43277,43295,43312,43312,43337,43355,43375,43407,43407,43470,43470,43487,43487,43502,43520,43520,43527,43527,43550,43550,43565,43580,43580,43595,43610,43610,43635,43635,43645,43647,43647,43660,43660,43677,43677,43692,43695,43712,43712,43712,43727,43727,43750,43750,43750,43750,43767,43767,43767,43767,43777,43777,43792,43792,43792,43820,43820,43827,43827,43827,43842,43842,43860,43860,43887,43887,43910,43930,43930,43952,43967,43967,43987,43987,44005,44005,44010,44010,44035,44035,44045,44045,44045,44060,44060,44087,44087,44102,44102,44102,44112,44112,44112,44130,44130,44145,44145,44160,44160,44177,44177,44205,44207,44247,44247,44295" d="m336,197c0,1.8 0,2.7 0,3.60001c0,0.79999 0,1.7 0,2.59999c0,0.90001 -0.0051,1.80002 0,2.68533c0.00534,0.92938 0.4314,1.55222 0.87851,2.33633c0.47195,0.82768 0.12149,1.60367 0.12149,2.61166c0,0.79201 0,1.81934 0,2.51401c0,1.02733 0,1.97417 0,2.67349c0,0.97917 0,1.76851 0,2.8125c0,0.86217 0,1.6875 0,2.65067c0,0.86334 0,1.76334 0,2.68268c0,0.83333 0,1.81216 0,2.64316c0,0.9595 0,1.711 0,2.50751c0,0.996 0,1.836 0,2.8c0,0.85199 0,1.89249 0,2.668c0,1.04799 0,1.75749 0,2.61015c0,1.00584 0,1.8405 0,2.77118c0,0.795 0,1.67999 0,2.31999c0,1.0345 0,2.12801 0,2.85201c0,0.692 0,1.892 0,2.6405c0,1.1875 0,1.96899 0,2.75949c0,0.92801 0,1.76134 0,2.80417c0,0.71851 0,1.509 0,2.53551c0,0.88 0,1.90033 0,2.67432c0,0.90002 0,1.76334 0,2.74734c0,0.82132 0,1.67465 0,2.616c0,1.05066 0,1.70935 0,2.71735c0,0.79199 0,1.82382 0,2.57117c0,0.99548 0,1.7955 0,2.7955c0,0.79999 0,1.79999 0,2.59998c0,0.80002 0,1.80002 0,2.60001c0,1.00134 0,1.836 0,2.76666c0,0.78601 0,1.608 0,2.66669c0,0.93066 0,1.56216 0,2.56665c0,0.80002 0,1.79984 0,2.76401c0,0.95334 0,1.64584 0,2.604c0,0.73199 0,1.89865 0,2.71115l0,0.84216l0,0.85333l0,0.94" id="svg_10" stroke-width="2" stroke="#000" fill="none"/>
  <path t="45239,45370,45401,45401,45416,45416,45426,45426,45426,45444,45444,45461,45461,45476,45476,45494,45494,45516,45516,45516,45516,45526,45526,45526,45544,45544,45559,45559,45559,45576,45576,45596,45596,45596,45614,45614,45614,45626,45626,45646,45646,45646,45646,45671,45671,45671,45701,45701,45701,45701,45701,45701,45716,45716,45716,45716,45729,45729,45729,45744,45759,45759,45761,45776,45776,45799,45809,45829,45844,45844,45859,45861,45876,45876,45876,45901,45901,45901,45909,45909,45909,45909,45929,45929,45929,45946,45946,45971,45971,46004,46004,46004,46011,46011,46031,46086,46104,46116,46139,46149,46149,46176,46221,46246,46264,46319,46336,46354" d="m346,192c0,1.75717 0,2.65717 0,3.4045c0,0.99684 0,1.8315 0,2.76218c0,0.78149 0,1.8235 0,2.69049c0,0.89101 0,1.8 0,2.54733c0,0.9955 0,1.7955 0,2.79567c0,0.82066 0,1.96651 0,2.757c0,0.56366 0,1.44417 0,2.64149c0,0.88051 0,1.44417 0,2.716c0,0.66451 0,1.68533 0,2.48534c0,0.8 0,1.8045 0,2.65717c0,0.96432 0,1.77882 0,2.64734c0,0.89549 0,1.7865 0,2.62349c0,1.1295 0,1.95866 0,2.772c0,0.8625 0,1.52083 0,2.53334c0,1.20265 0,1.74799 0,2.64349c0,1.15649 0,2.1445 0,2.69099c0,0.5695 0,1.7415 0,2.326c0,1.6395 0,2.12 0,2.97301c0,1.05449 0,2.16649 0,2.87149c0,0.8 0,1.847 0,2.795c0,0.67201 0,1.416 0,2.52367c0,0.94034 0,1.843 0,2.74301c0,0.81065 0,1.72133 0,2.57466c0,0.94267 0,1.79466 0,2.59599c0,0.771 0,1.63202 0,2.83066c0,0.60934 0,1.55585 0,2.56534c0,0.716 0,1.8125 0,2.5235c0,0.9765 0,2.03784 0,2.70084c0,1.009 0,1.80902 0,2.80902c0,0.79999 0,1.79999 0,2.59998c0,0.80002 0,1.7955 0,2.71469c0,0.96448 0,1.88531 0,2.78531c0,0.90002 0,1.80002 0,2.70001c0,0.79999 0,1.70001 0,2.60001c0,0.89999 0,1.79999 0,2.69998l0,0.90002l0,0.89999" id="svg_11" stroke-width="2" stroke="#000" fill="none"/>
  <path t="49289,49405,49420,49443,49443,49463,49463,49463,49463,49486,49486,49486,49486,49496,49496,49496,49496,49516,49516,49516,49533,49533,49551,49551,49573,49573,49591,49591,49601,49601,49621,49633,49636,49651,49668,49683,49683,49701,49701,49726,49726,49738,49738,49756,49756,49778,49778,49778,49806,49806,49806,49826,49826,49826,49826,49851,49851,49851,49851,49871,49871,49871,49893,49893,49893,49916,49936,49966,49986,49986,50011,50011" d="m337,296c-0.64734,0.7045 -0.98956,1.52066 -1,2.48801c-0.00858,0.79459 0,1.84534 0,2.48132c0,1.05151 0,1.7825 0,2.86401c0,0.68265 0,1.66666 0,2.31934c0,1.3685 0,2.09549 0,2.82648c0,0.711 0,1.97784 0,2.74884c0,0.86932 0,1.87201 0,2.672c0,0.99869 0,1.76401 0,2.716c0,0.76801 0,1.72 0,2.48532c0,0.99417 0,1.91336 0,2.89868c0,0.82132 0,1.67465 0,2.61465c0,0.98535 0,1.88535 0,2.64252c0,0.89999 0,1.64734 0,2.64151c0,0.94415 0,1.85315 0,2.57065c0,1.0405 0,1.81601 0,2.86401c0,0.71399 0.0061,1.61935 -0.00015,2.58832c-0.00534,0.82507 -0.03012,1.74329 -0.1665,2.745c-0.09808,0.72025 -0.26663,1.45712 -0.40802,2.20801c-0.27414,1.45584 -0.35364,2.13913 -0.38931,2.78934c-0.05106,0.93063 -0.03601,2.13583 -0.03601,2.73151c0,0.8685 0,1.93784 0,2.85782c0,0.76001 0.14548,1.73911 -0.01068,2.64667c-0.14337,0.83316 -0.82266,1.60001 -0.98483,2.35718l-0.00897,0.89551l-0.08084,0.86331" id="svg_12" stroke-width="2" stroke="#000" fill="none"/>
  <path t="51326,51406,51406,51406,51422,51422,51422,51422,51422,51442,51442,51462,51462,51462,51462,51462,51477,51477,51477,51477,51492,51492,51492,51492,51510,51510,51525,51525,51550,51550,51560,51560,51560,51582,51582,51597,51597,51597,51612,51612,51615,51615,51625,51625,51625,51625,51647,51647,51670,51670,51670,51695,51695,51695,51720,51720,51720,51720,51737,51737,51737,51767,51790,51790,51805,51805,51837,51837,51857,51857,51857,51872,51872,51895,51895,51920,51920,51920,51952" d="m345,291c0,2.96667 0,3.64001 0,4.63751c0,1.09833 0,1.84164 0,2.90515c0,0.70801 0,1.452 0,2.492c0,0.88501 0,1.95117 0,2.68948c0,0.83835 0,1.73669 0,2.19586c0,1.35831 0,2.21832 0,3.03833c0,0.78 0,1.875 0,2.88c0,0.62 0,1.47498 0,2.7045c0,0.64648 0,1.65698 0,2.43631c0,0.99966 0,1.83069 0,2.79019c0,0.7515 0,1.54797 0,2.54666c0,0.90933 0,1.85065 0,2.64114c0,0.85352 0,2.04285 0,2.64417c0,0.91953 0,1.884 0,2.91968c0,0.72266 0,1.43735 0,2.42435c0,1.00131 0,1.8555 0,2.82532c0,0.771 0,1.63202 0,2.52933c0,0.90002 0,1.80002 0,2.70001c0,0.89999 -0.00034,1.79999 0,2.39999c0.00067,1.19733 -0.06113,2.06964 0.08533,2.82935c0.2196,1.13928 0.80112,1.92899 0.87866,2.59601c0.11649,1.00189 0.00418,1.80063 0.0405,2.8363c0.02808,0.80127 0.20609,1.76236 0.42084,2.55301c0.21146,0.77847 0.52792,1.81271 0.57019,2.53351c0.05347,0.91193 0.00449,1.7135 0.00449,2.673l0,0.79349l0,0.77551l0,1.19998" id="svg_13" stroke-width="2" stroke="#000" fill="none"/>
  <path t="55713,55886,55920,55940,55972,55990,56007,56007,56030,56030,56045,56045,56045,56065,56065,56117,56117,56142,56165,56197,56197,56215,56237,56237,56277,56292,56325,56365,56365,56382,56390,56405,56430,56440,56470,56470,56490,56505,56535,56582,56607,56655,56670" d="m333,239c-1.70001,0 -2.60001,0 -3.5,0c-0.89999,0 -1.83206,-0.09846 -2.82132,0.2215c-0.70575,0.22827 -1.50888,0.78275 -2.17868,1.2785c-0.81769,0.60521 -1.5184,1.00479 -2.10132,1.3c-0.99457,0.50369 -1.57813,0.8389 -2.59836,1.07866c-0.91492,0.21501 -1.62064,0.48906 -1.80481,1.42134c-0.16064,0.81316 -0.58252,1.56906 -1.05685,2.3c-0.51776,0.79788 -1.51599,0.93289 -1.897,1.89999c-0.33044,0.83876 -0.48398,1.6118 -0.875,2.5c-0.28952,0.65764 0.25,1.71214 -0.20267,2.564c-0.38858,0.73123 -1.46362,0.80673 -1.87997,1.636c-0.42645,0.84935 -0.88293,1.45625 -1.07333,2.40001c-0.1781,0.88275 -0.36786,1.6955 -1.1105,2.27866l-0.77869,0.34283l-0.12149,0.87851l0,0.89999" id="svg_14" stroke-width="2" stroke="#000" fill="none"/>
  <path t="57852,58051,58066,58102,58132,58134,58157,58204,58204,58227,58269,58284,58284,58304,58304,58327,58367,58367,58367,58379,58379,58412,58427,58427,58452,58477,58517,58517,58517,58549,58549,58582,58614,58614,58677,58704,58704,58727,58749,58779,58779,58819,58819,58849,58874,58874,58904,58922,58922,58949,58962,58962,58999,59029,59059,59059,59134,59134,59167,59167,59189,59224,59224,59234,59272,59272,59287,59317,59332,59362,59362,59387,59454,59464,59497,59529,59529,59542,59592,59607,59607,59624,59667,59687,59722,59722,59729,59754,59754,59784,59847,59847,59874,59894,59894,59917,59917,59917,60012,60014,60029,60029,60062,60097,60097,60097,60124,60124,60149,60177,60177,60202,60229,60229,60267,60267,60279,60307,60307,60332,60332,60362,60362,60362,60412,60414,60414,60434,60434,60452,60497,60534,60534,60534,60577,60577,60614,60614,60654,60654,60821,60837" d="m350,239c1.60001,0.57466 2.41254,0.8494 3.29999,1.0045c0.92834,0.16226 1.61893,0.49741 2.41467,1.0795c0.7843,0.57372 1.31421,0.79071 2.26367,0.91617c0.91928,0.12148 1.47079,0.84959 2.207,1.02516c0.93747,0.22356 1.35925,0.882 1.91199,1.57468c0.60251,0.75507 1.45724,0.86134 2.13602,1.28532c0.84406,0.52722 1.20654,1.41727 2.06665,2.00484c0.71487,0.48834 1.37189,0.92915 1.72534,1.70984c0.3768,0.83228 1.1478,1.56033 1.62283,2.05266c0.49738,0.51547 1.1058,1.49538 1.43451,2.146c0.43274,0.85655 1.21732,1.50134 1.71732,2.00134c0.70001,0.7 1.52112,1.31343 1.91467,1.99998c0.42065,0.73383 0.20593,1.74973 0.64252,2.50452c0.36612,0.63293 1.01773,1.53598 1.44281,2.21149c0.46851,0.74454 1.13788,1.57639 1.19867,2.284c0.08194,0.95367 -0.0173,1.85291 0.00134,2.716c0.02084,0.96384 0.60123,1.63956 1.14932,2.08401c0.78912,0.63992 0.85068,1.60132 0.85068,2.56665c0,0.65869 0,1.66669 0,2.45868c0,1.02734 0,1.72198 0,2.74933c0,0.94666 0,1.62534 0,2.73999c0,0.88535 -0.20947,1.72385 0.05716,2.58536c0.26804,0.86615 1.31885,1.08447 2.04266,1.52148c0.72348,0.4368 0.74741,1.50073 1.33618,2.16785c0.61328,0.69489 1.34958,1.05261 1.84933,1.80933c0.40216,0.60892 1.21442,1.06808 1.88132,1.63467c0.68399,0.58112 1.62299,0.66068 2.3125,1.16666c0.66052,0.48468 0.94766,1.40881 1.62085,2.10001c0.49335,0.50656 1.21088,1.18924 1.89999,1.89999c0.57321,0.59122 0.84384,1.46405 1.28534,2.20001c0.40707,0.67859 1.30212,1.27539 1.59351,2.12149c0.23236,0.67471 0.43082,1.69385 0.82648,2.2785c0.55692,0.82291 1.13492,1.58295 1.25302,2.37915c0.14676,0.98938 0.04166,1.81952 0.04166,2.69284c0,0.87085 0,1.84885 0,2.64532c0,0.996 0,1.836 0,2.79733c0,0.88535 0,1.68533 0,2.64252c0,0.89999 0,1.64734 0,2.64151c0,0.76532 0,1.84415 0,2.70148c0,0.78519 0,1.74652 0,2.58652c0,0.99866 0,1.83417 0,2.41782c0,1.19516 0,2.07419 0,2.88116c0,1.04367 0,1.81168 0,2.71436c0,0.84164 0,1.84283 0,2.56131c0,0.7905 0,1.81717 0,2.71783c0,1.02084 0,1.81018 0,2.85419l0,0.75598l0,0.91068l0.01068,0.91068" id="svg_15" stroke-width="2" stroke="#000" fill="none"/>
 </g>
 <g display="none">
  <title>muse_image</title>
  <image xlink:href="http://users.owt.com/rpeto/randy/jake10/images/guitar.jpg" id="muse" height="480" width="328" y="0" x="156"/>
 </g>
 <g display="none">
  <title>bbox</title>
  <rect stroke="#f00" fill="none" stroke-width="3" height="459.84252" width="149.54789" y="2.51969" x="271.61686" id="bbox"/>
 </g>
</svg>
