<svg width="640" height="480" xmlns="http://www.w3.org/2000/svg" xmlns:svg="http://www.w3.org/2000/svg" xmlns:xlink="http://www.w3.org/1999/xlink">
 <!-- Sketchy ANNOTATION
  ImageNet ID: n03467517_19701
  URL: http://farm1.static.flickr.com/15/21599781_13d764a211.jpg
  Image Width: 500
  Image Height: 375
  BBox X: 19
  BBox Y: 71
  BBox Width: 423
  BBox Height: 210
  Exposure: 2000ms
  Synset Label: guitar
  Synset ID: n03467517
  Worker Tag: Guitar
  Sanity Check: 
   Saved
  Comment: 
   {}
  Worker ID: AIH9VLD92GHFH
  Assignment ID: 3UOUJI6MTDETPXCFTF6QNJN4ZKEXU3
  HIT ID: 37PGLWGSJT6G9MKEADXLP2W65Z7IKA
  Work Time: 38s
  Worker Score: 0.5500
 END ANNOTATION -->
 <g display="inline">
  <title>Layer 1</title>
  <path t="0,170,173,173,187,187,205,205,205,205,221,222,228,228,236,236,237,237,254,254,255,270,270,270,271,286,287,287,304,304,304,304,320,320,320,320,336,337,337,337,353,354,358,358,369,370,370,370,386,386,387,387,403,404,404,404,404,404,420,420,420,420,436,437,437,437,453,454,454,454,470,470,471,486,486,487,487,503,504,504,504,504,519,520,520,520,536,536,537,537,537,553,554,554,554,570,570,570,570,570,586,587,587,587,603,604,604,604,604,619,620,620,636,637,637,653,654,654,654,669,670,670,686,687,687,703,704,704,704,722,722,722,722,735,736,736,754,755,755,755,771,771,771,787,788,788,803,804,804,820,820,820,837,837,837,853,854,854,869,870,870,870,886,887,887,887,903,904,904,904,919,920,920,921,958,959,959,959,959,961,961,962,971,971,971,971,986,987,987,1003,1004,1004,1004,1005,1019,1020,1036,1037,1055,1056,1056,1056,1069,1070,1070,1071,1086,1087,1087,1103,1104,1104,1119,1120,1120,1121,1136,1137,1153,1154,1154,1169,1170,1170,1171,1186,1187,1203,1204,1204,1219,1220,1220,1236,1237,1254,1255,1255,1269,1269,1269,1285,1286,1286,1302,1302,1318,1319,1335,1336,1354,1355,1355,1370,1370,1386,1387,1387,1403,1404,1404,1419,1420,1436,1437,1453,1454,1470,1470,1471,1486,1487,1503,1504,1504,1519,1520,1536,1537,1537,1553,1554,1554,1555,1569,1570,1586,1587,1587,1588,1603,1604,1605,1605,1619,1620,1636,1637,1637,1653,1654,1669,1670,1670,1686,1687,1703,1704,1719,1720,1735,1735,1753,1754,1770,1771,1787,1788,1788,1803,1804,1819,1820,1821,1836,1837,1853,1854,1854,1869,1870,1886,1887,1903,1904,1919,1920,1920,1936,1953,1954,1955,1970,1971,1986,2003,2004,2019,2020,2036,2037,2053,2054,2069,2070,2087,2088,2103,2119,2120,2120,2136,2137,2137,2153,2169,2170,2170,2186,2188,2203,2204,2204,2219,2220,2236,2237,2237,2253,2254,2254,2255,2270,2286,2287,2287,2303,2304,2319,2320,2336,2337,2353,2354,2369,2370,2386,2387,2387,2403,2404,2421,2421,2436,2437,2437,2453,2454,2455,2469,2470,2471,2471,2486,2487,2503,2504,2519,2520,2520,2536,2536,2553,2554,2569,2570,2586,2587,2635,2636,2636,2639,2640,2642,2642,2643,2654,2654,2669,2670,2686,2687,2703,2704,2704,2720,2720,2741,2742,2742,2758,2759,2772,2773,2773,2786,2787,2787,2803,2804,2819,2820,2821,2836,2837,2838,2853,2854,2855,2869,2870,2886,2887,2887,2903,2904,2905,2919,2920,2936,2937,2953,2954,2955,2969,2970,2986,2987,2987,3003,3004,3019,3020,3021,3036,3036,3037,3037,3053,3054,3054,3069,3070,3071,3086,3087,3087,3103,3104,3104,3119,3120,3121,3136,3137,3153,3154,3154,3169,3170,3171,3186,3187,3188,3203,3204,3219,3220,3236,3237,3237,3252,3254,3269,3270,3271,3286,3287,3303,3304,3319,3320,3320,3321,3336,3337,3353,3354,3354,3369,3370,3371,3385,3387,3403,3404,3404,3418,3419,3419,3435,3436,3453,3454,3469,3470,3470,3485,3487,3503,3504,3504,3519,3520,3536,3537,3553,3554,3569,3570,3570,3585,3587,3603,3604,3604,3619,3620,3621,3635,3637,3653,3654,3654,3669,3670,3671,3718,3719,3719,3722,3723,3723,3726,3726,3741,3741,3758,3759,3779,3804,3805,3836,3852,3853" d="m307,138c-5.93518,0.87866 -7.07346,0.94763 -7.69601,1.02533c-1.16873,0.14586 -1.79666,0.52625 -2.63733,1.14134c-0.6752,0.49402 -1.19223,0.86118 -2.06934,1.34933c-0.8822,0.491 -1.49438,0.74753 -2.43332,1.07333c-0.64453,0.22365 -1.68738,0.50317 -2.41217,0.71516c-1.09393,0.31996 -1.81583,0.51611 -2.70898,1.017c-0.8161,0.45767 -1.2453,0.90413 -2.2095,1.6785c-0.5097,0.40935 -1.34229,0.98819 -1.82352,1.45717c-0.92862,0.90495 -1.16135,1.51752 -1.66049,2.28149c-0.63013,0.96446 -1.10812,1.31348 -1.89099,1.76134c-0.55923,0.31993 -1.77106,1.02686 -2.35385,1.50983c-0.59729,0.495 -1.14957,1.03975 -1.93784,1.8235c-0.48404,0.48128 -1.16669,1.16666 -1.61932,1.61934c-0.96869,0.96878 -1.50494,1.49976 -2.04733,2.06816c-0.5524,0.57889 -1.34143,1.47276 -1.81467,2.07784c-0.45721,0.58458 -0.85068,1.18396 -1.68533,2.23466c-0.39163,0.493 -1.03818,1.19087 -1.51434,1.6765c-0.81311,0.8293 -1.4577,1.45432 -2.12567,2.1515c-0.34192,0.35686 -1.00909,1.08101 -1.30664,1.45601c-0.82199,1.03595 -1.36334,2.04842 -1.69336,2.672c-0.32339,0.61107 -0.89575,1.51617 -1.36533,2.11516c-0.48758,0.62195 -1.05026,1.21466 -1.66132,2.26218c-0.40442,0.69327 -0.6716,1.44458 -1.02435,2.5235c-0.31827,0.97351 -0.58499,1.81374 -0.94498,2.52449c-0.49246,0.97234 -0.86189,1.46378 -1.36401,2.32701c-0.35732,0.6143 -0.84416,1.6208 -1.11734,2.34233c-0.27911,0.73721 -0.50696,1.50716 -0.85199,2.23199c-0.51897,1.09026 -1.03601,1.73134 -1.53067,2.384c-0.49466,0.65266 -1.2023,1.64984 -1.528,2.38533c-0.32574,0.7356 -0.54362,1.51968 -0.68401,2.31601c-0.2101,1.19179 -0.24083,1.99826 -0.26717,2.79866c-0.02632,0.79974 -0.01683,2.00002 -0.02216,2.8c-0.00534,0.80003 -0.01418,1.60152 -0.084,2.39999c-0.10519,1.20309 -0.26733,2 -0.41467,2.8c-0.14734,0.8 -0.34056,1.99927 -0.41733,2.79733c-0.07509,0.78069 -0.08568,1.54218 -0.252,2.23199c-0.29669,1.2305 -0.85873,1.93335 -1.12534,2.41884c-0.51874,0.94466 -0.66071,1.79703 -0.69633,2.7135c-0.03903,1.00429 -0.009,1.72099 -0.009,2.8175c0,0.711 0,1.6875 0,2.511c0,0.95799 0,1.93149 0,2.7565c0,0.59999 0,1.92 0,2.63733c0,0.74133 0,1.49066 0,2.94933c0,0.68001 0,1.32001 0,2.205c0,1.0405 0,1.9825 0,2.731c0,1.2 0,1.892 0,2.616c0,0.73201 0,2.12933 0,2.77867c0,0.9315 0,1.836 0,2.73149c0,0.86852 0,1.93784 0,2.65184c0,0.90533 0,1.87416 0,2.68866c0,0.86852 0,1.76401 0,2.6595c0,0.86852 0,1.93784 0,2.65634c0,0.7095 -0.01791,1.78183 0.009,2.758c0.01962,0.7115 0.02109,1.46254 0.32433,2.52351c0.29608,1.03595 0.68863,1.6452 1.01851,2.26215c0.48315,0.90363 0.91267,1.80029 1.10649,2.42535c0.29546,0.95285 0.42924,1.99991 0.489,2.73633c0.0619,0.76297 0.07196,1.55099 0.21935,2.74283c0.09898,0.80042 0.2538,1.59076 0.51599,2.328c0.25421,0.71481 1.07581,1.9104 1.55734,2.41068c0.46553,0.48361 1.34097,1.39856 1.59299,2.21848c0.25575,0.83206 0.19617,1.45428 0.45367,2.64417c0.13326,0.61575 0.45674,1.56335 0.88,2.56534c0.30429,0.72034 0.6501,1.44168 1.008,2.13602c0.3334,0.64682 0.95256,1.63367 1.52083,2.44098c0.5174,0.73502 0.92917,1.50964 1.47116,2.423c0.31091,0.5239 0.85217,1.36484 1.18066,1.995c0.51605,0.98993 0.77469,1.71719 1.01669,2.44235c0.23239,0.69635 0.57202,1.93158 1.04666,2.70932c0.42068,0.68933 1.08347,1.45059 1.41467,1.95868c0.53867,0.82635 1.03696,1.71545 1.41299,2.6235c0.23865,0.57629 0.5152,1.41187 0.67764,2.4205c0.14563,0.90424 0.19998,1.86536 0.4502,2.63217c0.26413,0.80951 0.94614,1.74496 1.40048,2.08383c0.68332,0.50964 1.51132,0.85229 1.98132,1.73465c0.47104,0.88428 0.71759,1.80457 1.53867,2.15735c0.68906,0.29605 1.6066,0.71326 2.052,1.35199c0.4472,0.6413 1.13046,1.5282 1.90802,1.728c0.90485,0.23251 1.71326,0.31906 2.492,0.60666c0.94403,0.34863 1.75763,0.91498 2.22931,1.27469c0.79388,0.60544 1.50885,1.13373 2.26401,1.54532c0.93665,0.5105 1.74094,0.6337 2.77335,0.922c0.7478,0.20883 1.66132,0.48068 2.49466,0.64734c0.83334,0.16666 1.74762,0.43582 2.49466,0.64734c0.85931,0.24332 1.81067,0.3504 2.776,0.35266c0.771,0.0018 1.63202,0 2.52899,0c0.87903,0 1.686,0 2.73236,0c0.77332,0 1.73599,0 2.46799,0c1.16666,0 2,0 2.83334,0c0.91733,0 1.66132,0 2.69867,0c0.77332,0 1.73734,0 2.48883,0c0.79648,0 2.02649,0 2.7045,0c0.94131,0 1.73181,0 2.58533,0c1.18933,0 2.08484,0 2.66849,0c0.83551,0 2.0744,0.02277 2.78217,-0.03601c1.07626,-0.08936 1.71011,-0.23999 2.40002,-0.39999c1.09402,-0.25372 2.17294,-0.56079 2.85065,-0.76266c0.92682,-0.27609 1.47311,-0.42911 2.68268,-0.75317c0.77594,-0.20789 1.58182,-0.60403 2.30533,-1.069c0.5007,-0.32178 1.5015,-1.13651 2.15067,-1.56848c0.85562,-0.56934 1.59167,-0.82596 2.34399,-1.0535c1.02588,-0.31027 1.7952,-0.40616 2.48935,-0.92651c0.74048,-0.55508 1.27899,-1.34601 1.99515,-1.88901c0.76572,-0.58057 1.49179,-0.52133 2.52618,-0.54614c0.74445,-0.01785 1.84384,-0.23645 2.49466,-0.49551c1.0307,-0.41028 1.772,-0.39349 2.49466,-0.60983c1.0864,-0.32523 1.39954,-1.04996 2.33868,-1.55682c0.62198,-0.33569 1.66129,-0.32883 2.69867,-0.33334c0.77332,-0.00336 1.73734,0 2.48883,0c0.79648,0 1.79382,0 2.66849,0c1.0105,0 1.78983,0 2.78949,0c0.83102,0 1.78918,0 2.52118,0c0.73199,0 1.84933,0 2.83334,0c0.672,0 1.66132,0 2.69598,0c0.76801,0 1.60666,0 2.62784,0c0.74734,0 1.74283,-0.00012 2.54285,0c0.99982,0.00018 1.89606,-0.17441 2.77847,0.44266c0.61398,0.42935 1.10934,1.34409 1.77869,1.6055c0.88104,0.34412 1.57431,0.65445 2.62817,0.92651c0.93652,0.24179 1.64343,0.33209 2.36398,0.672c0.95367,0.44986 1.49603,1.24081 2.048,1.784c0.659,0.64853 1.75116,0.77243 2.45334,1.00534c0.75073,0.24899 1.62497,0.638 2.39999,1.19998c0.70001,0.5076 1.34015,1.03494 2.09866,1.50269c0.90091,0.55554 1.60541,0.77786 2.58401,1.02798c0.68512,0.17511 1.48837,0.44278 2.66666,0.83334c0.59753,0.19806 1.45233,0.49982 2.22934,0.71466c0.94968,0.2626 1.75522,0.63113 2.31232,1.30618c0.41766,0.50607 1.20557,1.14056 1.95834,1.4375c1.13995,0.44968 1.85889,0.44644 2.82132,0.763c0.69693,0.22922 1.69528,0.55588 2.43134,0.88849c0.78745,0.35583 1.39917,1.14297 2.24734,1.55682c0.7594,0.37054 1.61328,0.37097 2.60001,0.686c0.60947,0.19458 1.60092,0.52017 2.39999,0.64734c1.00119,0.15933 1.80084,0.45633 2.45715,0.64734c0.95224,0.27713 1.7887,0.2822 2.64734,0.46249c1.21432,0.25497 1.79245,0.59268 2.37466,0.89017c0.83759,0.42798 1.82687,0.89435 2.71017,0.97867c1.00635,0.09607 1.82642,-0.04117 2.81067,0.18799c0.81888,0.19067 1.38107,0.56561 2.39999,0.74802c0.79092,0.14157 1.80002,0.08533 2.60001,0.08533c1,0 1.78934,0 2.83334,0c0.828,0 1.7095,0 2.42798,0c0.7905,0 2.05334,0 2.71783,0c1.02084,0 1.82083,0 2.62085,0c1,0 1.79999,0 2.79999,0c0.80002,0 1.80017,0 2.62085,0c1.14581,0 1.92734,0 2.71783,0c0.92798,0 1.76132,0 2.80399,0c0.70801,0 1.45306,0.04572 2.48935,-0.00134c0.93878,-0.04263 1.73578,-0.29321 2.50964,-0.49866c0.858,-0.22775 1.75986,-0.36456 2.63702,-0.48532c0.8089,-0.11136 1.82346,-0.61621 2.47198,-1.164c0.65436,-0.5527 1.61237,-0.77771 2.40115,-0.89883c1.0293,-0.15805 1.71429,-0.40518 2.40085,-0.59918c0.95819,-0.27075 1.7616,-0.3309 2.77798,-0.35132c0.96384,-0.01935 1.74911,-0.04553 2.77917,-0.36301c0.51776,-0.15958 1.33951,-0.47443 2.30484,-1.121c0.68918,-0.46161 1.24994,-1.02957 2.28082,-1.41199c0.728,-0.27005 1.46271,-0.73495 2.06586,-1.25467c0.81113,-0.69891 1.61023,-0.7215 2.33331,-0.95602c1.08096,-0.35062 1.59125,-1.15588 2.33868,-1.728c0.62488,-0.4783 1.44571,-0.69516 2.33331,-1.16666c0.6875,-0.3652 1.30533,-1.18561 1.76535,-1.836c0.41495,-0.58667 1.31879,-1.38495 1.93048,-1.755c0.64505,-0.39023 1.31494,-0.75729 2.59436,-1.1665c0.74957,-0.23975 1.63336,-0.42606 2.16049,-1.09583c0.48239,-0.61295 0.76407,-1.47906 1.65067,-2.17734c0.67441,-0.53116 1.53052,-0.77258 2.26401,-1.45465c0.52081,-0.48431 0.90256,-1.15085 1.73465,-1.91467c0.68619,-0.62991 1.3136,-0.89502 1.86902,-1.80002c0.4512,-0.7352 0.45496,-1.83185 0.82166,-2.59998c0.30179,-0.63217 1.08255,-1.40308 1.78265,-2c0.47159,-0.4021 1.36148,-1.15656 1.66269,-2c0.2757,-0.77197 0.41666,-1.81393 0.70798,-2.36401c0.52487,-0.99109 1.04852,-1.4798 1.71051,-2.37866c0.51178,-0.69492 0.89417,-1.16663 1.34549,-2.12399c0.37949,-0.80505 0.55136,-1.87698 0.7587,-2.58401c0.21851,-0.74503 0.44153,-1.79114 0.62732,-2.4975c0.2453,-0.93262 0.69678,-1.72067 1.11401,-2.41849c0.47229,-0.78986 0.99908,-1.57834 1.3493,-2.064c0.70459,-0.97705 1.21777,-1.55234 1.39868,-2.54001c0.1394,-0.76102 0.07574,-1.63208 0.08667,-2.82666c0.00531,-0.58142 -0.06061,-1.42053 0.28265,-2.43469c0.27393,-0.80933 0.61554,-1.73999 0.73682,-2.48883c0.12952,-0.79977 0.53644,-1.80093 0.97919,-2.45831c0.42188,-0.62643 0.87567,-1.62384 1.04816,-2.42084c0.21765,-1.00546 0.5351,-1.59985 0.78516,-2.76666c0.16541,-0.77164 0.14978,-1.57211 0.16669,-2.5c0.0152,-0.83347 0.21802,-1.87698 0.42535,-2.58401c0.21851,-0.74503 0.52783,-1.77829 0.57013,-2.55466c0.05237,-0.96126 -0.02466,-1.69504 0.00452,-2.86134c0.02087,-0.83411 0.32245,-1.67279 0.70532,-2.33867c0.43188,-0.7511 1.06366,-1.63054 1.22266,-2.34399c0.21466,-0.963 0.07202,-1.92267 0.07202,-2.472c0,-1.17867 0,-2.06967 0,-2.90666c0,-0.93867 0,-1.772 0,-2.81483c0,-0.71851 0,-1.509 0,-2.53584c0,-0.92133 0,-1.60533 0,-2.60666c0,-0.83549 0,-1.716 0,-2.61433c0,-0.879 0,-1.686 0,-2.73233c0,-0.936 0,-1.73601 0,-2.71733c0,-0.91734 0,-1.82933 0,-2.66133c0,-0.91068 0,-1.76401 0,-2.70401l0,-0.88533l0,-0.744" id="svg_1" stroke-width="2" stroke="#000" fill="none"/>
  <path t="4326,4603,4603,4603,4619,4635,4636,4652,4653,4669,4669,4686,4704,4704,4724,4724,4743,4743,4764,4785,4785,4786,4786,4802,4803,4820,4820,4836,4836,4853,4853,4868,4868,4885,4902,4902,4902,4920,4920,4937,4937,4956,4956,4973,5002,5003,5003,5019,5036,5036,5036,5053,5071,5071,5088,5088,5106,5106,5123,5138,5138,5154,5154,5169,5169,5185,5201,5202,5218,5235,5235,5236,5252,5253,5271,5288,5288,5306,5323,5341,5341,5359,5359,5385,5402,5402,5435,5436,5436,5452,5452,5452,5470,5470,5488,5488,5506,5506,5523,5542,5542,5542,5558,5559,5574,5574,5591,5591,5608,5609,5609,5626,5626,5645,5661,5678,5678,5696,5696,5715,5731,5731,5749,5749,5771,5771,5771,5792,5810,5810,5827,5827,5827,5844,5861,5861,5861,5877,5877,5894,5910,5910,5910,5926,5927,5943,5943,5960,5960,5960,5960,6005,6006,6022,6022,6022,6038,6039,6039,6039,6039,6055,6055,6055,6055,6071,6071,6087,6088,6088,6109,6109,6126,6126,6126,6144,6144,6160,6160,6161,6161,6182,6182,6182,6182,6199,6199,6199,6202,6202,6219,6219,6219,6221,6221,6221,6240,6241,6241,6258,6258,6278,6278,6278,6295,6296,6296,6313,6313,6314,6331,6331,6348,6348,6348,6366,6366,6382,6383,6399,6399,6400,6416,6417,6433,6434,6434,6434,6451,6451,6451,6468,6468,6469,6485,6485,6485,6502,6503,6519,6520,6520,6520,6537,6537,6554,6555,6555,6555,6572,6572,6572,6589,6590,6590,6607,6607,6624,6624,6624,6641,6641,6642,6659,6659,6659,6676,6677,6677,6695,6695,6695,6713,6714,6732,6732,6732,6749,6750,6750,6751,6752,6753,6753,6753,6755,6755,6755,6755,6774,6774,6774,6774,6794,6794,6795,6816,6817,6817,6817,6835,6835,6836,6856,6856,6857,6874,6874,6875,6893,6893,6893,6912,6912,6913,6931,6931,6931,6932,6950,6950,6951,6969,6969,6969,6969,6970,6971,6972,6972,6973,6993,6993" d="m295,144c4.228,-2.39734 4.90427,-3.00208 5.51199,-3.42934c0.81204,-0.57091 1.63113,-0.96474 2.37335,-1.28667c0.90134,-0.39095 1.71725,-0.23804 2.70566,-0.2885c0.84109,-0.04294 1.47144,-0.77884 2.28101,-0.9595c0.71393,-0.15932 1.728,-0.036 2.52798,-0.036c0.99869,0 1.94284,0 2.84283,0c0.9585,0 1.64252,0 2.59317,0c0.76532,0 1.76401,0 2.564,0c1,0 1.80002,0 2.80002,0c0.79999,0 1.79999,0 2.58932,0c1.04401,0 1.91113,-0.07306 2.75232,0.02083c1.01459,0.11324 1.70511,0.41803 2.453,0.62651c1.03098,0.2874 1.78754,0.31949 2.65802,0.71432c0.73001,0.33112 1.43048,1.14497 1.93665,1.77701c0.57745,0.72107 1.59137,0.99593 2.23602,1.29733c0.70776,0.33092 1.59564,0.93018 2.17465,1.73067c0.44629,0.61702 0.72159,1.3965 1.63599,1.84799c0.79782,0.39392 1.50388,0.67915 2.48135,0.90001c0.83508,0.18869 1.88974,0.0219 2.59601,0.12132c1.05231,0.14815 1.61023,0.87015 2.508,0.95334c0.97437,0.09029 1.75781,0.01067 2.75714,0.01067c0.71701,0 1.6575,0 2.50552,0c0.86331,0 1.76782,0 2.84933,0c0.672,0 1.41599,0 2.52365,0c0.83401,0 1.77899,0 2.62701,0c0.86331,0 1.88,0 2.71732,0c0.96533,0 1.79868,0 2.77716,0c0.71701,0 1.67642,0.02116 2.50684,-0.28534c0.74579,-0.27527 1.71823,-0.80827 2.32535,-1.12532c0.65018,-0.33952 1.62036,-0.89543 2.39334,-1.41467c0.5054,-0.33949 1.30765,-1.27438 1.87198,-1.728c0.66855,-0.53741 1.70795,-0.36278 2.59067,-0.61334c0.82635,-0.23456 1.69437,-0.67697 2.5,-1.16666c0.72137,-0.43848 1.18179,-1.01738 1.948,-1.78134c0.5817,-0.57997 1.13306,-1.29858 1.85602,-1.59999c0.97977,-0.40848 1.84387,-0.1835 2.69598,-0.61867c0.75528,-0.38571 1.15314,-1.239 2.15869,-1.60533c0.66287,-0.2415 1.60461,-0.66176 2.37598,-0.97734c0.9231,-0.37766 1.59125,-0.60216 2.63202,-0.91733c0.73877,-0.22372 1.6875,-0.16667 2.48816,-0.16667c0.88916,0 1.88867,0.09204 2.6785,-0.04167c1.02704,-0.17387 1.58627,-0.67574 2.164,-1.10767c0.93613,-0.69986 1.836,-0.85066 2.65033,-0.85066c0.95367,0 1.68567,0 2.41766,0c1.11734,0 2.10135,0 2.77335,0c0.98932,0 2.02399,0 2.79199,0c0.87466,0 1.74533,0 2.70267,0c0.73199,0 1.69467,0 2.46799,0c1.04636,0 1.85333,0 3.03201,0c0.59866,0 1.47916,0 2.31467,0c1,0 1.87466,0 2.88599,0c0.64203,0 1.42801,0 2.466,0c0.87067,0 1.84534,0 2.35419,0c1.02567,0 2.47916,0 2.91434,0c1.1355,0 1.76083,0 2.92215,0c0.79333,0 1.69009,-0.06238 2.64267,0.04167c0.73889,0.0807 1.52469,0.53511 2.15067,1.14366c0.6749,0.65611 1.3378,1.09625 2.09866,1.368c1.08768,0.38846 1.94238,0.44617 3.01501,0.66833c0.60583,0.12549 1.28436,0.29829 1.992,0.54001c1.08887,0.37193 2.08887,0.88669 2.72281,1.23833c0.61868,0.34315 1.81366,0.99448 2.41183,1.23833c0.82816,0.3376 1.77567,0.595 2.60901,0.76167c0.83334,0.16667 1.77151,0.42175 2.28534,0.64667c1.07175,0.46913 1.7583,1.00502 2.40399,1.528c0.81168,0.65742 1.37582,1.14267 2.21066,1.46367c0.96991,0.37294 1.84366,0.34352 2.76666,0.52834c0.78979,0.15814 1.63882,0.37556 2.5,1c0.58096,0.42126 1.07675,1.26117 1.87601,1.81183c0.66385,0.45737 1.49112,0.64235 2.31451,1.12167c0.80188,0.4668 1.46414,1.22115 1.96817,1.72516c0.522,0.52199 1.2525,1.33412 1.92731,1.87016c0.69653,0.55331 1.46219,0.89632 2.44717,1.40468c0.59207,0.30557 1.36469,0.74048 2.052,1.55699c0.44339,0.52675 1.06705,1.35944 1.75351,1.94284c0.48474,0.41196 1.27081,0.95808 2.02667,1.79866c0.49857,0.55446 0.89526,1.17421 1.73599,1.71867c0.70157,0.45435 1.57175,0.75728 2.26132,1.65067c0.51843,0.67165 0.69772,1.50366 1.17334,2.26399c0.4118,0.65836 1.34,1.51067 1.80267,1.97334c0.49466,0.49466 1.22665,1.22665 1.85199,1.85199c0.64267,0.64267 1.47601,1.476 1.91068,1.91068c0.48267,0.48267 1.22665,1.22665 1.89865,1.89867c0.68268,0.68268 1.14139,1.13594 1.87585,1.87599c0.7001,0.70543 1.2363,1.15436 1.95749,2.12401c0.46881,0.63036 1.00763,1.31955 1.776,1.75467c0.67288,0.38104 1.40518,1.10518 1.63733,1.82933c0.23422,0.73064 0.63745,1.80225 1.12833,2.24933c0.54013,0.49194 1.39719,1.2421 1.91669,2.04167c0.35684,0.54924 0.82065,1.75351 0.93182,2.34933c0.15521,0.83185 0.30402,1.97977 0.63068,2.60899c0.44293,0.85313 0.75873,1.52097 1.11514,2.28534c0.49643,1.06464 1.02469,1.76068 1.36401,2.23549c0.52859,0.73965 1.00751,1.61136 1.23834,2.289c0.36139,1.06082 0.50604,1.80313 0.64014,2.86884c0.08386,0.6665 0.11487,1.64662 0.12018,2.30533c0.01129,1.39996 -0.00018,2.14186 0.03735,2.89067c0.03723,0.74203 0.13965,1.81544 0.41064,2.77867c0.17133,0.60881 0.69934,1.69452 1.20599,2.394c0.50195,0.69299 0.93811,1.09569 1.46069,2.138c0.40509,0.80804 0.58649,1.40845 0.76514,2.6145c0.13092,0.88396 0.11011,1.46417 0.12152,2.53349c0.01007,0.94135 0.01227,1.62848 0.284,2.85068c0.12146,0.54614 0.42242,1.35184 0.59448,2.39482c0.15417,0.93474 0.12085,1.69051 0.12152,2.56401c0.00079,1.01849 0,1.74249 0,2.4745c0,1.39867 0,2.05733 0,2.70799c0,1.34134 0,2.05867 0,2.8c0,0.74933 0,1.49066 0,2.88666c0,0.63068 0,1.46918 0,2.67368l0,0.91466l0,0.714" id="svg_2" stroke-width="2" stroke="#000" fill="none"/>
  <path t="7344,7452,7452,7452,7468,7468,7468,7485,7485,7485,7485,7502,7502,7502,7502,7518,7518,7518,7535,7535,7535,7535,7552,7552,7552,7552,7568,7568,7568,7568,7585,7585,7585,7602,7602,7602,7602,7618,7619,7619,7635,7635,7635,7652,7652,7652,7652,7668,7669,7669,7669,7685,7685,7685,7685,7702,7702,7702,7702,7702,7719,7719,7719,7719,7735,7735,7735,7735,7752,7752,7752,7752,7753,7768,7769,7769,7769,7769,7787,7787,7787,7803,7803,7803,7803,7803,7822,7822,7822,7837,7837,7837,7837,7887,7887,7887,7889,7889,7889,7889,7889,7891,7891,7891,7891,7891,7903,7903,7903,7903,7903,7918,7918,7919,7919,7935,7935,7935,7935,7936,7952,7952,7968,7968,7969,7969,7988,7988,7988,7988,7988,8002,8002,8002,8018,8019,8019,8019,8035,8035,8035,8052,8052,8052,8053,8068,8068,8069,8069,8084,8084,8084,8084,8102,8102,8102,8103,8118,8118,8135,8135,8135,8135,8152,8152,8152,8153,8168,8168,8184,8185,8185,8185,8202,8203,8203,8218,8219,8219,8219,8235,8235,8235,8236,8251,8252,8252,8253,8253,8268,8268,8269,8269,8284,8285,8285,8286,8302,8302,8302,8318,8319,8319,8335,8335,8335,8352,8352,8352,8368,8368" d="m383,203c-6.59268,-2.6355 -7.62686,-2.93364 -8.43466,-2.9865c-0.98499,-0.06445 -1.81201,-0.0135 -2.41202,-0.0135c-1.31998,0 -2.03732,0 -2.77866,0c-0.74933,0 -2.20804,-0.0043 -2.888,0.00133c-0.64005,0.00529 -1.54282,-0.03226 -2.56549,0.22034c-0.96585,0.23856 -1.43161,0.53876 -2.564,1.09967c-0.66739,0.3306 -1.37436,0.68645 -2.10901,1.026c-1.07629,0.49745 -1.77158,0.74973 -2.72733,1.17349c-0.62228,0.27592 -1.53687,0.79134 -2.11816,1.2485c-0.59863,0.47083 -1.42346,1.25322 -2.06934,2.064c-0.54999,0.69041 -0.94193,1.37918 -1.33334,2.33334c-0.32028,0.78078 -0.52161,1.34389 -0.71466,2.23466c-0.25714,1.18637 -0.26324,1.7876 -0.28085,2.64149c-0.02136,1.03578 -0.00449,1.978 -0.00449,2.7265c0,0.8735 0,1.892 0,2.616c0,0.73201 0,1.7935 0,2.8c0,0.67599 -0.00287,1.384 0.00015,2.55733c0.00223,0.86269 0.00043,1.75839 0.05701,2.65201c0.08066,1.27415 0.2002,2.04402 0.40018,2.744c0.19574,0.68515 0.47949,1.36411 1.08551,2.38249c0.44186,0.74254 0.96616,1.467 1.50897,2.16901c0.76508,0.98946 1.26242,1.54341 1.72284,2.05916c0.44894,0.5029 1.39532,1.5813 1.91068,2.22c0.27359,0.33908 0.82901,1.05673 1.41916,1.7825c0.88583,1.08943 1.18524,1.43565 1.79102,2.082c0.57422,0.61266 1.10962,1.19402 2.18332,2.02333c0.45779,0.35361 1.17902,0.76433 2.25452,1.30951c0.63397,0.32135 1.32571,0.66345 2.052,1.008c0.72974,0.34618 1.78339,0.83043 2.77866,1.17867c0.61969,0.21683 1.83377,0.49857 2.43466,0.56134c0.87808,0.09172 1.716,0.08466 2.72134,0.08533c0.74249,0.00049 1.62,0 2.76566,0c0.93399,0 1.43701,0 2.48502,0c0.53299,0 2.09598,0 2.58633,0c0.92865,0 1.80133,0 2.63397,0c1.20901,0 2.009,0 2.80902,0c0.79999,0 1.60001,0 2.79999,0c0.80002,0 1.60001,0 2.39999,0c1.20001,0 1.99734,0 2.77869,0c0.74933,0 1.45242,0.06122 2.65198,-0.004c0.98804,-0.05371 1.9501,-0.47621 2.45468,-0.85066c0.56735,-0.42105 1.4057,-1.21748 2.31467,-1.97867c0.58878,-0.49306 1.19104,-0.9267 1.728,-1.392c0.51352,-0.44499 1.34152,-1.44057 1.73035,-2.2955c0.26013,-0.57196 0.62454,-1.78542 0.85065,-2.37466c0.33725,-0.87885 0.60297,-1.46873 1.45767,-2.42184c0.4444,-0.49556 1.09622,-0.84891 1.73334,-2.01599c0.32639,-0.5979 0.4324,-1.32526 0.48651,-2.4185c0.05347,-1.08026 0.01349,-1.76418 0.01349,-2.74817c0,-0.65266 0,-1.66667 0,-2.75267c0,-0.74733 0,-1.49466 0,-2.58066c0,-1.005 0,-1.625 0,-2.48001c0,-1.004 0,-1.948 0,-3.01999c0,-0.636 0,-1.328 0,-2.4185c0,-1.0815 0,-1.76151 0,-2.7065c0,-0.85501 0.0614,-1.86435 -0.04166,-2.54167c-0.18088,-1.1889 -0.487,-1.70906 -1,-2.47917c-0.5199,-0.78049 -1.12311,-1.42923 -2,-2c-0.45581,-0.29669 -1.60007,-0.84438 -2.26819,-1.17349c-0.70984,-0.34969 -1.43408,-0.71263 -2.5235,-1.18066c-0.67792,-0.29126 -1.32904,-0.56606 -2.31934,-0.80501c-1.00375,-0.2422 -1.73196,-0.28871 -2.48331,-0.32567c-0.77417,-0.03809 -1.56534,-0.03532 -2.76401,-0.036c-0.80002,-0.00044 -1.60001,0 -2.39999,0c-1.20001,0 -2.39102,0 -3.15836,0c-0.72733,0 -1.70831,0 -2.53183,0c-0.95801,0 -1.93134,0 -2.74582,0c-0.8685,0 -1.76401,0 -2.65952,0c-0.8685,0 -1.93784,0 -2.64734,0l-0.85266,0l-1.00317,0l-0.76532,0" id="svg_3" stroke-width="2" stroke="#000" fill="none"/>
  <path t="8759,8901,8902,8902,8902,8918,8918,8918,8918,8919,8919,8935,8935,8935,8935,8935,8961,8961,8961,8961,8961,8961,8961,8989,8989,8989,8989,8989,8989,8990,8990,8991,8991,8991,8991,8991,8991,8991,9019,9019,9019,9019,9019,9019,9019,9021,9021,9021,9021,9021,9021,9021,9049,9049,9049,9050,9050,9050,9050,9050,9073,9073,9073,9073,9073,9073,9074,9098,9098,9098,9098,9098,9098,9098,9098,9123,9123,9123,9123,9123,9123,9123,9147,9147,9147,9147,9148,9148,9148,9148,9150,9150,9150,9150,9150,9151,9151,9152,9152,9152,9152,9152,9153,9153,9154,9154,9154,9154,9154,9154,9154,9155,9178,9178,9178,9178,9178,9179,9179,9179,9204,9204,9204,9204,9204,9204,9204,9205,9206,9206,9206,9206,9207,9207,9207,9231,9231,9232,9232,9232,9232,9232,9233,9256,9257,9257,9257,9257,9257,9257,9257,9257,9281,9281,9282,9282,9282,9282,9282,9282,9282,9306,9307,9307,9307,9307,9307,9307,9309,9309,9309,9309,9309,9310,9310,9310,9311,9311,9311,9312,9312,9312,9312,9312,9312,9338,9338,9339,9339,9339,9339,9339,9340,9340,9341,9342,9342,9342,9342,9342,9342,9342,9343,9370,9370,9370,9370,9370,9371,9371,9371,9374,9374,9374,9375,9375,9375,9375,9375,9403,9403,9403,9403,9403,9404,9404,9404,9406,9406,9406,9406,9406,9407,9407,9407,9407,9432,9432,9433,9433,9433,9433,9433,9457,9458,9458,9458,9458,9458,9459,9483,9483,9483,9483,9483,9484,9484,9539,9539,9540,9540,9540,9540,9540,9542,9543,9543,9543,9543,9543,9545,9545,9545,9546,9546,9546,9546,9547,9572,9572,9572,9573,9573,9573,9573,9573,9574,9575,9576,9576,9576,9576,9576,9576,9577,9577,9603,9603,9604,9604,9604,9604,9604,9605,9607,9607,9607,9607" d="m258,189c-5.27867,-0.87849 -6.14697,-0.95284 -7,-0.97917c-0.85242,-0.02632 -2.16667,-0.02083 -2.62134,-0.02083c-0.93134,0 -1.87866,0 -2.82599,0c-0.46867,0 -1.83173,-0.00575 -2.709,0.0045c-0.88544,0.01035 -1.34174,0.01897 -2.29834,0.08083c-1.04631,0.06766 -2.19879,0.19756 -2.80783,0.26733c-0.62431,0.07153 -1.89731,0.22371 -2.53667,0.29468c-0.63399,0.07037 -1.86707,0.1924 -3.03416,0.26999c-0.56564,0.03761 -1.68776,0.09996 -2.25334,0.14401c-0.57613,0.04488 -2.41435,0.26598 -3.0775,0.3815c-0.69028,0.12025 -1.39893,0.26421 -2.1225,0.41849c-0.73477,0.15666 -1.47334,0.32394 -2.21249,0.49051c-0.73419,0.16544 -2.85736,0.62901 -3.53017,0.76283c-0.65588,0.13045 -1.29828,0.25154 -1.929,0.3645c-1.2319,0.22064 -1.83902,0.31938 -3.04167,0.52083c-1.20135,0.20123 -1.80496,0.30193 -2.41066,0.41066c-1.22629,0.22014 -1.84749,0.34184 -2.47467,0.47467c-1.2834,0.2718 -1.93723,0.43111 -3.26733,0.76733c-0.67329,0.1702 -1.34715,0.34804 -2.022,0.522c-0.67249,0.17337 -1.33661,0.36191 -3.304,0.80383c-0.63586,0.14284 -1.26791,0.26826 -1.896,0.3855c-1.24924,0.23317 -1.87769,0.33348 -2.50934,0.43466c-1.28203,0.20537 -1.93672,0.30659 -3.27316,0.49684c-0.67845,0.09657 -1.36328,0.18684 -2.0535,0.26849c-0.69347,0.08203 -1.38892,0.17485 -3.48917,0.31483c-0.69835,0.04654 -1.39574,0.0719 -2.08951,0.10651c-0.6899,0.03441 -1.37737,0.04636 -2.72533,0.18399c-1.32195,0.13498 -1.9655,0.26617 -2.60133,0.40001c-0.6329,0.13322 -1.88419,0.45081 -2.50934,0.616c-0.62752,0.16582 -1.25146,0.36336 -3.19583,0.793c-0.65923,0.14566 -1.3262,0.26471 -1.9935,0.375c-0.66374,0.1097 -1.97478,0.29134 -2.616,0.36c-1.23476,0.13222 -1.82648,0.17181 -2.96851,0.23399c-0.56067,0.03053 -1.68758,0.07642 -2.26334,0.10535c-0.59091,0.02969 -2.5022,0.16519 -3.19215,0.23399c-0.71274,0.07108 -1.44322,0.15578 -2.18701,0.255c-0.75491,0.10071 -1.51598,0.21228 -2.27699,0.345c-1.51743,0.26463 -2.26068,0.43092 -2.996,0.59732c-0.72902,0.16496 -1.44925,0.34172 -2.87466,0.69067c-0.70612,0.17287 -1.40648,0.35423 -2.81067,0.65866c-0.69847,0.15143 -1.39786,0.28461 -2.0955,0.405c-0.69305,0.1196 -2.06795,0.31955 -2.74733,0.40001c-0.67131,0.0795 -1.99016,0.20018 -2.63583,0.24033c-1.26807,0.07886 -1.896,0.09601 -2.52133,0.12134c-0.62534,0.02533 -1.88487,0.07156 -3.16667,0.16667c-0.6555,0.04865 -1.32074,0.11357 -1.995,0.19499c-1.38165,0.16685 -2.08566,0.28098 -2.8,0.40001c-0.72568,0.12091 -2.2055,0.40256 -2.95983,0.55949c-0.76435,0.15903 -1.53534,0.32855 -2.3145,0.4935c-0.78451,0.16608 -1.57362,0.32957 -2.3685,0.47549c-0.79583,0.14609 -2.39455,0.38533 -3.19517,0.46684c-0.79682,0.08112 -1.59104,0.13449 -2.379,0.17099c-0.77943,0.0361 -1.54929,0.05362 -2.307,0.063c-0.74364,0.00922 -2.18101,0.00638 -3.54501,0.01033c-0.65951,0.00191 -1.30807,0.00525 -1.94849,0.0195c-1.26921,0.02823 -1.90438,0.05167 -3.1875,0.14584c-0.65551,0.04811 -1.32024,0.11497 -2.68,0.25867c-0.69513,0.07346 -1.39976,0.15178 -2.11501,0.222c-0.72476,0.07115 -2.20475,0.1902 -2.95983,0.23132c-0.76361,0.0416 -1.53563,0.06976 -2.3145,0.09601c-0.7848,0.02644 -1.57474,0.04874 -2.3685,0.078c-0.79691,0.02939 -2.39578,0.11002 -3.1955,0.16866c-0.8003,0.05869 -1.60009,0.13036 -2.39999,0.20401c-0.80009,0.07368 -1.59983,0.15132 -2.4,0.222c-0.79983,0.07065 -2.39977,0.19044 -3.19984,0.23116c-0.79861,0.04063 -1.59559,0.06731 -2.3895,0.08551c-0.78977,0.01811 -1.57466,0.02681 -2.3535,0.03149c-0.77183,0.00464 -3.03568,0.00281 -3.77184,0.00717c-0.72818,0.00432 -1.44949,0.01357 -2.1645,0.039c-0.71037,0.02527 -1.41745,0.06015 -2.1195,0.129c-1.40401,0.13768 -2.80338,0.39378 -3.50584,0.53467c-0.70689,0.14177 -1.41582,0.29716 -2.1315,0.444c-0.72065,0.14786 -1.44514,0.31084 -2.93067,0.51733c-0.75282,0.10464 -1.51684,0.16974 -2.286,0.21899c-0.77224,0.04945 -1.54724,0.07664 -2.322,0.093c-0.77259,0.01631 -3.05867,0.02133 -3.80383,0.02133c-0.73617,0 -1.46433,0 -2.1855,0c-0.71517,0 -1.42533,0 -2.1315,0c-0.70317,0 -2.80433,0 -3.50317,0c-0.69683,0 -1.39067,0 -2.0805,0c-0.68483,0 -2.0355,0 -3.35416,0c-0.64517,0 -1.28133,0 -2.53067,0c-0.61517,0 -1.22533,0 -1.8315,0c-1.8045,0 -2.40451,-0.00159 -3.0045,0.00133c-1.20002,0.00583 -1.80014,0.01476 -2.4,0.03467c-1.20035,0.03984 -2.40052,0.12523 -3,0.18533c-1.20114,0.12042 -1.79994,0.2045 -2.4,0.27867c-1.19988,0.14832 -1.79839,0.23384 -3,0.33333c-1.19733,0.09914 -1.79537,0.11369 -2.38933,0.13068c-1.17446,0.03358 -1.7535,0.03374 -3.444,0.036c-0.547,0.00073 -1.659,0 -2.248,0c-0.627,0 -1.304,0 -2.043,0c-0.813,0 -2.709,0 -3.81033,0c-1.18933,0 -2.44467,0 -3.744,0c-1.32133,0 -2.64267,0 -3.942,0c-1.25533,0 -3.546,0 -4.54267,0c-0.89667,0 -1.70333,0 -2.43,0c-0.65667,0 -1.25333,0 -1.8,0c-0.50667,0 -1.44,0 -1.88517,0c-0.43617,0 -0.86433,0 -1.2855,0c-0.41517,0 -0.82533,0 -1.2315,0c-1.2045,0 -2.0005,0 -2.7725,0l-0.724,0" id="svg_4" stroke-width="2" stroke="#000" fill="none"/>
  <path t="10124,10334,10334,10351,10352,10352,10352,10368,10368,10368,10368,10384,10385,10385,10385,10401,10402,10402,10402,10402,10418,10418,10418,10418,10418,10418,10434,10435,10435,10435,10435,10436,10451,10452,10452,10452,10452,10452,10468,10468,10468,10468,10468,10484,10485,10485,10485,10485,10501,10502,10502,10502,10502,10502,10518,10518,10518,10518,10518,10519,10519,10534,10535,10535,10535,10535,10535,10551,10551,10551,10551,10551,10551,10551,10551,10568,10568,10568,10568,10569,10569,10584,10585,10585,10585,10585,10586,10586,10601,10602,10602,10602,10602,10602,10602,10603,10618,10618,10618,10618,10619,10619,10634,10635,10635,10635,10635,10635,10636,10636,10651,10652,10652,10652,10652,10652,10653,10668,10668,10669,10669,10669,10669,10669,10684,10685,10685,10685,10685,10686,10686,10701,10702,10702,10702,10702,10703,10703,10703,10718,10718,10718,10719,10719,10719,10719,10719,10734,10735,10735,10735,10736,10736,10751,10752,10752,10752,10753,10753,10753,10768,10768,10768,10769,10769,10769,10769,10784,10785,10785,10785,10786,10786,10786,10801,10801,10801,10801,10801,10802,10817,10818,10818,10818,10818,10818,10834,10834,10834,10835,10835,10835,10835,10852,10852,10852,10852,10852,10853,10868,10868,10868,10868,10868,10869,10884,10885,10885,10886,10886,10886,10886,10901,10901,10902,10902,10902,10902,10918,10918,10919,10919,10919,10919,10920,10934,10935,10935,10936,10936,10936,10936,10951,10952,10952,10953,10953,10953,10968,10968,10969,10969,10969,10969,10984,10985,10985,10986,10986,10986,11001,11001,11002,11002,11002,11002,11002,11018,11018,11019,11019,11019,11020,11035,11036,11036,11036,11036,11037,11037,11051,11052,11053,11053,11068,11068,11069,11069,11101,11102,11102,11103,11103,11118,11119,11119,11134,11135" d="m246,246c-4.23067,-0.91467 -5.21461,-0.99466 -6.16667,-1c-0.79498,-0.00446 -1.67999,0 -2.31999,0c-1.03484,0 -2.14934,0 -2.924,0c-0.79068,0 -1.98933,0 -2.78934,0c-0.8,0 -1.60001,0 -2.8,0c-0.80133,0 -1.61067,0 -2.436,0c-0.42116,0 -1.73068,0.00381 -2.65067,-0.00133c-0.96002,-0.00536 -1.45537,-0.01033 -2.47499,-0.05583c-0.52524,-0.02344 -2.15996,-0.16158 -2.72234,-0.22684c-0.56897,-0.06604 -1.71579,-0.21773 -2.29066,-0.29066c-1.14091,-0.14476 -2.25784,-0.27046 -3.34001,-0.34001c-0.52783,-0.03392 -1.56445,-0.06721 -2.07466,-0.07466c-1.00928,-0.01472 -2.01067,-0.01067 -3.00934,-0.01067c-0.99066,0 -1.4805,0 -2.44417,0c-1.39049,0 -1.83583,0 -2.7045,0c-0.85266,0 -1.70532,0 -3.01933,0c-0.92133,0 -1.39949,0 -2.39583,0c-0.52017,0 -1.6095,0 -2.77083,0c-0.60934,0 -1.87201,0 -2.51733,0c-0.64934,0 -1.29868,0 -2.58134,0c-1.23466,0 -1.82533,0 -2.96266,0c-0.55467,0 -1.65599,0 -2.21066,0c-1.728,0 -2.33734,0 -2.96266,0c-0.63734,0 -1.93201,0 -2.58134,0c-0.64532,0 -1.28267,0 -3.108,0c-0.57466,0 -1.13733,0 -2.24266,0c-0.55066,0 -1.668,0 -2.83333,0c-0.60966,0 -1.88101,0 -2.53867,0c-0.66968,0 -1.34933,0 -2.037,0c-2.091,0 -2.79066,-0.00085 -3.48834,0.00133c-0.69366,0.00217 -1.38141,0.00513 -2.06099,0.0195c-1.32753,0.02809 -1.97261,0.04305 -3.20834,0.14584c-1.16719,0.09709 -1.72816,0.18475 -2.28267,0.25867c-1.10165,0.14685 -1.65314,0.25076 -3.38399,0.40799c-0.60867,0.0553 -1.23579,0.08655 -1.87651,0.10951c-1.31065,0.04698 -1.97548,0.04799 -2.642,0.05266c-0.66548,0.00467 -1.98149,0.0045 -3.26416,0.0045c-0.63133,0 -1.25867,0 -2.50934,0c-0.62733,0 -1.25867,0 -2.54134,0c-1.31599,0 -1.98149,0 -2.64799,0c-0.66451,0 -1.32401,0 -2.616,0c-1.23601,0 -1.82687,-0.00394 -2.96851,0.0045c-0.56085,0.00415 -1.68762,0.02835 -2.26334,0.05266c-0.59097,0.02495 -1.83808,0.10294 -3.19216,0.22684c-0.71266,0.0652 -1.44262,0.14183 -2.187,0.216c-0.75429,0.07516 -1.51426,0.15211 -2.277,0.216c-1.51391,0.1268 -2.25932,0.16626 -2.99333,0.19867c-0.72169,0.03188 -2.12548,0.06642 -2.80534,0.07466c-0.66381,0.00804 -1.31067,0.00999 -3.14,0.01067c-0.57467,0.00021 -1.13734,0 -2.24267,0c-0.55067,0 -1.668,0 -2.83334,0c-0.60933,0 -1.87199,0 -2.51733,0c-0.64933,0 -1.29866,0 -2.58133,0c-1.23466,0 -1.82533,0 -2.96267,0c-0.55466,0 -1.656,0 -2.21066,0c-0.56267,0 -2.33733,0 -2.96267,0c-0.63733,0 -1.28267,0 -2.58133,0c-0.64534,0 -1.28267,0 -3.10767,0c-0.57233,0 -1.12866,0 -2.20133,0c-0.52033,0 -1.53899,0 -3.042,0c-0.50233,0 -1.521,0 -2.04133,0c-1.07267,0 -1.62901,-0.00314 -3.401,0.00034c-0.62534,0.00122 -1.26282,0.00224 -1.908,0.021c-1.2991,0.03775 -1.94535,0.07938 -2.58133,0.14934c-1.23786,0.13618 -2.39917,0.39009 -2.95367,0.53467c-1.07642,0.28067 -1.58745,0.46483 -2.61166,0.72667c-0.99768,0.25507 -2.0043,0.40761 -2.51167,0.45366c-1.03098,0.09358 -1.56289,0.10107 -2.66166,0.11166c-1.16262,0.01122 -1.77202,-0.00102 -3.03467,0.00717c-0.64535,0.0042 -1.2948,0.01143 -1.944,0.03149c-1.283,0.03966 -2.51801,0.12386 -3.10783,0.18533c-1.13444,0.11824 -1.68131,0.20535 -2.7575,0.35333c-0.53341,0.07335 -2.15167,0.26294 -2.70683,0.304c-0.56353,0.04167 -1.7145,0.09612 -2.29933,0.12134c-0.58983,0.02544 -1.78148,0.07083 -2.97917,0.16667c-0.60056,0.04807 -1.80012,0.18501 -2.4,0.25867c-0.60012,0.07368 -1.79945,0.22694 -2.4,0.29066c-1.19899,0.12721 -2.39864,0.20174 -2.9955,0.23582c-0.59381,0.03392 -1.76982,0.09567 -2.34733,0.158c-1.69536,0.18298 -2.23972,0.31691 -3.3,0.5955c-0.52329,0.1375 -1.03067,0.31494 -2.05267,0.58932c-1.4968,0.40187 -2.00243,0.48068 -3.009,0.5955c-0.50521,0.05763 -1.53166,0.12207 -2.05267,0.158c-1.61003,0.11102 -2.16488,0.16713 -3.2955,0.30449c-0.57305,0.06963 -1.14679,0.15167 -2.29467,0.29468c-0.5684,0.07082 -2.23115,0.23679 -2.77,0.26733c-1.06743,0.0605 -1.60344,0.06958 -2.6925,0.08083c-0.55948,0.00578 -1.7235,0.00206 -2.9555,0.00583c-0.63101,0.00192 -1.26408,0.00507 -1.893,0.0195c-1.22222,0.02805 -1.80814,0.01497 -3.35583,0.2005c-0.86542,0.10374 -1.62135,0.28848 -2.325,0.42601c-1.02481,0.2003 -1.74738,0.2574 -2.88167,0.37349c-0.78461,0.08031 -5.97351,1.67662 -6.77783,1.8085c-0.7863,0.12894 -1.56517,0.15773 -2.316,0.168c-1.0634,0.01454 -2.028,0.00267 -2.60267,0.00267l-1.13983,0l-0.891,0" id="svg_5" stroke-width="2" stroke="#000" fill="none"/>
  <path t="12537,12684,12684,12684,12684,12701,12701,12701,12701,12701,12718,12719,12719,12719,12719,12719,12734,12734,12734,12734,12734,12734,12751,12751,12752,12752,12752,12752,12768,12768,12768,12768,12768,12771,12771,12784,12784,12784,12784,12784,12784,12784,12802,12802,12802,12802,12802,12802,12802,12817,12818,12818,12818,12818,12818,12835,12835,12835,12835,12835,12835,12835,12851,12852,12852,12852,12852,12852,12868,12868,12868,12868,12868,12869,12884,12884,12884,12884,12884,12884,12884,12901,12901,12901,12901,12902,12902,12902,12917,12918,12918,12918,12918,12918,12934,12934,12934,12934,12934,12934,12951,12951,12952,12952,12952,12952,12967,12968,12968,12968,12968,12968,12968,12984,12984,12984,12984,12984,12985,13001,13001,13002,13002,13002,13002,13002,13002,13017,13018,13018,13018,13018,13018,13018,13034,13034,13034,13034,13034,13035,13051,13052,13052,13052,13052,13052,13053,13067,13068,13068,13068,13068,13068,13068,13068,13068,13084,13084,13084,13084,13085,13085,13085,13085,13101,13101,13102,13102,13102,13102,13103,13103,13117,13118,13118,13118,13118,13118,13118,13134,13134,13134,13134,13135,13135,13135,13135,13151,13152,13152,13152,13152,13153,13153,13153,13168,13168,13168,13168,13168,13169,13169,13169,13169,13184,13184,13184,13184,13185,13185,13185,13185,13185,13201,13202,13202,13202,13202,13203,13203,13203,13203,13217,13218,13218,13218,13218,13218,13218,13218,13218,13234,13234,13234,13235,13235,13235,13235,13235,13235,13251,13252,13252,13252,13253,13253,13253,13253,13253,13267,13268,13268,13268,13268,13268,13268,13269,13269,13284,13284,13284,13285,13285,13285,13285,13285,13285,13301,13302,13302,13303,13303,13303,13303,13303,13303,13317,13318,13318,13318,13318,13318,13318,13319,13334,13334,13334,13335,13335,13335,13335,13351,13352,13352,13353,13353,13353,13367,13368,13368,13368,13368,13368,13369,13369,13384,13384,13384,13385,13385,13385,13401,13402,13402,13403,13403,13403,13403,13417,13418,13418,13419,13419,13419,13433,13433,13433,13433,13434,13434,13451,13452,13452,13453,13453,13453,13467,13467,13467,13468,13468,13468,13494,13494,13494,13495,13495,13495,13520,13520,13521,13521,13521,13521,13522,13524,13524,13524,13524,13524,13525,13549,13550,13550,13550,13551,13551,13551,13574,13574,13574,13574,13574,13575,13575,13596,13596,13597,13597,13597,13597,13598,13598,13620,13620,13620,13620,13621,13621,13621,13623,13623,13623,13624,13624,13624,13624,13626,13626,13627,13627,13627,13627,13628,13628,13651,13652,13652,13652,13652,13653,13653,13655,13655,13655,13655,13656,13656,13656,13711,13711,13711,13712,13712,13712,13735,13736,13736,13736,13736,13737,13737,13739,13739,13739,13739,13740,13740,13764,13764,13765,13765,13765,13766,13766,13790,13790,13791,13791,13791,13791,13792,13792,13792" d="m2,228c5.432,0 6.14933,0 6.85067,0c0.71733,0 1.8925,0 2.76817,0c0.94367,0 1.4385,0 2.46917,0c1.07867,0 2.196,0 2.76467,0c1.14733,0 1.722,0 2.29467,0c1.686,0 2.23117,0 3.2955,0c0.52117,0 1.5465,0 2.05267,0c1.5045,0 2.50717,0 3.0135,0c1.03267,0 1.563,0 2.66166,0c1.16267,0 1.772,0 3.03467,0c0.64533,0 1.29467,0 1.944,0c1.28267,0 2.51733,0 3.108,0c1.13734,0 1.692,0 2.79333,0c0.55466,0 1.11733,0 2.892,0c0.62534,0 1.26267,0 1.908,0c1.29867,0 1.944,0 2.58133,0c1.23467,0 2.4,0 2.96267,0c1.10533,0 1.656,0 2.77333,0c1.16533,0 1.77467,0 3.03733,0c0.64533,0 1.29467,0 1.944,0c1.28267,0 2.51733,0 3.10767,0c1.12867,0 1.671,0 2.72167,0c0.51233,0 2.02133,0 2.52167,0c1.00867,0 2.04133,0 2.57166,0c0.54234,0 2.26134,0 2.87067,0c0.62534,0 1.908,0 2.55733,0c0.64933,0 1.29467,0 3.16666,0c0.5905,0 1.164,0 2.272,0c0.5405,0 1.6095,0 2.144,0c1.63867,0 2.20133,0 3.34267,0c0.57467,0 1.14934,0 2.29067,0c1.11733,0 2.19866,0 2.72683,0c1.03633,0 1.5465,0 2.55583,0c1.50167,0 2.00401,0 3.02267,0c0.52033,0 1.593,0 2.14934,0c1.772,0 2.39733,0 3.03466,0c0.64534,0 1.29467,0 2.58934,0c0.63733,0 1.87199,0 3.03733,0c0.56267,0 1.668,0 2.21867,0c0.55466,0 2.28267,0 2.89233,0c0.62766,0 1.929,0 2.59866,0c0.67967,0 1.36733,0 2.061,0c1.39733,0 2.79466,0 3.48833,0c0.68766,0 1.36733,0 2.03699,0c1.30134,0 2.53867,0 3.12917,0c1.133,0 1.6815,0 2.7575,0c0.53351,0 2.15201,0 2.70717,0c0.56616,0 1.7355,0 2.34067,0c0.62016,0 1.9095,0 3.27083,0c0.7095,0 1.436,0 2.1765,0c0.75151,0 1.511,0 2.27551,0c0.76649,0 1.532,0 3.04799,0c0.74518,0 2.2095,0 2.93068,0c0.71516,0 1.42532,0 2.13148,0c0.70317,0 2.10451,0 2.80434,0c1.39568,0 2.08951,0 2.77934,0c0.68483,0 1.36366,0 2.03549,0c1.96417,0 2.60268,0 3.23717,0c0.6335,0 1.9095,0 2.558,0c0.6595,0 2.0235,0 2.733,0c0.7265,0 2.21851,0 2.978,0c0.76451,0 1.53101,0 2.29651,0c1.51599,0 2.26134,0 2.99866,0c0.73134,0 1.45868,0 2.18401,0c0.72533,0 1.45267,0 3.66667,0c0.75465,0 1.51733,0 2.286,0c0.77266,0 1.54733,0 2.32201,0c0.77266,0 1.54132,0.00034 3.05865,0c0.7455,-0.00017 1.48404,0.00034 2.21851,-0.009c0.73355,-0.00932 1.46925,-0.02692 2.2095,-0.063c0.74879,-0.03651 1.51067,-0.07475 3.07199,-0.26132c0.81125,-0.09694 1.63779,-0.23193 2.481,-0.37201c0.85814,-0.14255 1.7269,-0.29726 2.60701,-0.444c0.88724,-0.14793 1.77805,-0.30928 3.57866,-0.51733c0.89839,-0.10381 1.79832,-0.1694 2.6955,-0.2235c0.89354,-0.05388 1.78365,-0.08987 2.6685,-0.1245c0.8788,-0.03438 1.75139,-0.05447 3.46933,-0.15201c0.84541,-0.048 1.68022,-0.1149 2.505,-0.18599c0.81522,-0.07027 1.61995,-0.14786 2.41499,-0.222c0.78496,-0.0732 1.55911,-0.15372 3.08,-0.25867c0.74495,-0.05141 1.48259,-0.08458 2.214,-0.114c0.72726,-0.02925 1.4527,-0.05171 2.17799,-0.078c0.72737,-0.02637 1.45941,-0.04639 2.94135,-0.14134c0.75542,-0.0484 1.52013,-0.1158 2.295,-0.18599c0.78514,-0.07112 1.57986,-0.14876 2.38499,-0.222c0.81487,-0.07413 1.63908,-0.15523 3.32001,-0.25867c0.85408,-0.05257 1.71597,-0.08452 2.5815,-0.1185c0.86649,-0.03403 1.73122,-0.06479 2.5905,-0.10951c0.85173,-0.04433 1.69537,-0.07726 3.328,-0.27199c0.79208,-0.09447 1.56235,-0.2292 2.3145,-0.37201c0.7372,-0.13997 1.45622,-0.29518 2.1615,-0.444c0.69106,-0.14583 1.36523,-0.30695 2.69066,-0.51733c0.64357,-0.10216 1.28209,-0.16949 1.914,-0.21899c0.62685,-0.0491 1.87796,-0.09602 2.50533,-0.10533c0.63132,-0.00937 2.56851,-0.00818 3.23001,-0.01033c0.6655,-0.00217 1.33206,-0.00522 1.99649,-0.0195c1.31122,-0.0282 1.9527,-0.0481 3.1875,-0.14584c0.59134,-0.04681 1.72815,-0.18475 2.28268,-0.25867c1.10165,-0.14685 1.65317,-0.2505 3.384,-0.40799c0.60849,-0.05537 1.23453,-0.08537 1.87198,-0.114c1.29443,-0.05814 1.94409,-0.07582 2.58936,-0.10535c0.63742,-0.02917 2.4632,-0.16371 3.03732,-0.23132c1.1185,-0.13173 1.66766,-0.21846 2.21866,-0.29066c1.1167,-0.14633 2.2822,-0.2657 2.892,-0.30383c1.26184,-0.0789 1.90796,-0.08801 2.55734,-0.10068c0.64929,-0.01266 1.93201,-0.02016 3.16666,-0.02083c0.59033,-0.00032 1.71902,0 2.26135,0c1.05066,0 1.56299,0 3.07199,0c1.00134,0 1.50449,0 2.52084,0c0.51517,0 1.56448,0 2.64581,0c1.11734,0 1.686,0 2.25867,0c1.14935,0 1.72202,0 3.40802,0c0.54517,0 1.6095,0 2.13065,0c1.02533,0 1.53152,0 3.03601,0c1.00134,0 1.50449,0 2.52084,0c0.51517,0 1.56448,0 2.64581,0c1.11868,0 1.69052,0 2.26935,0c1.17465,0 1.76849,0.00006 2.36533,0c1.79868,-0.00017 2.39874,0.00233 2.99866,-0.009c1.20026,-0.02267 1.80127,-0.04782 2.40002,-0.10533c1.80496,-0.17336 2.40164,-0.32072 3,-0.45366c1.20349,-0.26738 1.79907,-0.43579 2.39999,-0.58134c1.19818,-0.29022 2.39819,-0.53024 3.00015,-0.60767c1.20129,-0.1545 1.81027,-0.17606 2.42068,-0.20132c0.61496,-0.02545 1.8645,-0.04033 3.14581,-0.04167c0.65466,-0.00069 1.31735,0 2.65869,0c0.67465,0 1.3493,0 2.02197,0c0.66867,0 2.63135,0 3.26868,0c0.63135,0 1.25867,0 2.50934,0c0.62732,0 1.25867,0.00064 2.54132,0c1.31866,-0.00067 1.99054,-0.00255 2.66934,-0.01067c0.68488,-0.00819 1.37494,-0.01779 2.06851,-0.04649c2.09656,-0.08675 2.79559,-0.1611 3.49417,-0.22684c0.69711,-0.0656 1.39066,-0.1414 2.08047,-0.216c1.36368,-0.14746 2.03448,-0.22844 3.35419,-0.33333c0.64468,-0.05124 1.28098,-0.09061 2.53067,-0.13068c0.61502,-0.01973 1.22528,-0.02933 2.43466,-0.03467c1.20132,-0.00529 1.80115,-0.00133 2.99683,-0.00133c0.59384,0 1.18365,0 2.34732,0c0.57184,0 2.23602,0 2.77451,0c1.06799,0 1.60352,0 2.6925,0c0.55951,0 1.72351,0.00241 2.95816,-0.00133c0.63733,-0.00192 1.28275,-0.00531 1.93201,-0.0195c1.29489,-0.02831 1.93359,-0.04305 3.16666,-0.14584c1.16455,-0.09709 1.71933,-0.18384 2.26135,-0.25867c1.05124,-0.14514 2.06744,-0.30817 3.07199,-0.40799c1.00909,-0.10028 1.53586,-0.11728 2.66666,-0.16667c0.62128,-0.02713 1.2908,-0.05017 2.01602,-0.084c1.65094,-0.077 2.58774,-0.13579 3.58667,-0.2c1.04309,-0.06705 2.112,-0.14134 3.189,-0.216l1.06699,-0.07466l1.039,-0.07268l0.99301,-0.06866" id="svg_6" stroke-width="2" stroke="#000" fill="none"/>
  <path t="14319,14483,14483,14483,14501,14501,14501,14502,14502,14517,14518,14518,14518,14518,14518,14518,14534,14534,14534,14534,14534,14534,14534,14551,14551,14551,14551,14551,14551,14551,14551,14567,14567,14567,14568,14568,14568,14568,14568,14568,14584,14584,14584,14584,14584,14584,14584,14584,14601,14601,14601,14601,14601,14601,14602,14602,14602,14617,14617,14618,14618,14618,14618,14618,14618,14618,14634,14634,14634,14634,14634,14634,14634,14635,14635,14651,14651,14651,14651,14651,14651,14651,14651,14651,14667,14668,14668,14668,14668,14668,14668,14668,14668,14684,14684,14684,14684,14684,14685,14685,14685,14685,14701,14701,14701,14701,14701,14701,14701,14701,14701,14717,14717,14718,14718,14718,14718,14718,14718,14718,14734,14734,14734,14734,14735,14735,14735,14735,14735,14751,14751,14751,14751,14751,14751,14751,14752,14752,14767,14768,14768,14768,14768,14768,14768,14768,14768,14784,14784,14784,14784,14784,14785,14785,14785,14785,14801,14801,14801,14801,14801,14801,14802,14802,14802,14817,14817,14818,14818,14818,14818,14818,14818,14818,14834,14834,14834,14834,14834,14834,14835,14835,14835,14851,14851,14851,14851,14851,14852,14852,14852,14852,14868,14868,14868,14868,14869,14869,14869,14869,14869,14884,14884,14884,14885,14885,14885,14885,14885,14885,14901,14901,14901,14901,14901,14902,14902,14902,14902,14917,14918,14918,14918,14918,14918,14918,14919,14919,14934,14934,14934,14935,14935,14935,14935,14935,14935,14951,14951,14951,14951,14951,14952,14952,14952,14952,14967,14968,14968,14968,14968,14968,14969,14969,14969,14984,14984,14984,14985,14985,14985,14985,14985,14985,15001,15001,15001,15001,15002,15002,15002,15002,15002,15018,15018,15018,15018,15018,15019,15019,15019,15019,15034,15034,15035,15035,15035,15035,15035,15035,15035,15051,15051,15051,15051,15052,15052,15052,15052,15068,15068,15068,15068,15069,15069,15069,15084,15084,15084,15085,15085,15085,15085,15085,15086,15101,15101,15101,15102,15102,15102,15102,15117,15118,15118,15118,15118,15118,15119,15134,15135,15135,15135,15136,15136,15136,15150,15151,15151,15152,15152,15152,15153,15153,15178,15179,15179,15179,15179,15180,15180,15204,15204,15204,15204,15205,15205,15205,15205,15207,15208,15208,15208,15208,15209,15272,15272,15273,15273,15273,15273,15275,15276,15276,15276,15276,15276,15277,15298,15298,15298,15299,15299,15299,15299,15299,15300,15322,15322,15322,15322,15322,15323,15323,15323,15323,15346,15346,15346,15347,15347,15347,15347,15347,15348,15370,15371,15371,15371,15371,15372,15372,15372,15372,15374,15374,15375,15375,15375,15375,15376,15376,15376,15378,15378,15379,15379,15379,15379,15379,15380,15380,15408,15408,15409,15409,15409,15409,15410,15410,15410,15412,15412,15413,15413,15413,15413,15413,15414,15414,15437,15438,15438,15438,15438,15439,15439,15441,15441,15441,15442,15442,15442,15442,15443,15472,15472,15472,15472,15473,15475,15475,15475,15475,15476" d="m6,238c2.056,0 3.0625,0 3.8135,0c1.1865,0 1.98917,0 2.80783,0c0.85067,0 1.293,0 2.712,0c1.03733,0 1.581,0 2.13867,0c1.14933,0 1.737,0 2.33067,0c1.79767,0 2.4,0 3.00633,0c1.23267,0 1.863,0 2.50533,0c0.65633,0 2.72867,0 3.45633,0c0.74367,0 1.50133,0 2.271,0c0.77967,0 1.56734,0 2.361,0c1.59733,0 2.39717,0 3.196,0c0.79683,0 1.59067,0 2.3805,0c0.78483,0 1.56366,0 2.3355,0c1.51867,0 2.26417,0 3.00267,0c0.7345,0 1.468,0 2.2035,0c1.489,0 2.2485,0.00017 3.8125,0c0.80933,-0.00009 1.63467,0.00014 2.472,-0.0045c0.84534,-0.00468 1.69473,-0.01328 2.544,-0.03149c0.8454,-0.01813 1.68353,-0.03357 3.31733,-0.13068c0.79116,-0.04703 1.56555,-0.11496 2.328,-0.18599c0.75489,-0.07033 1.50522,-0.14851 2.256,-0.222c0.75455,-0.07385 1.51629,-0.15613 3.08267,-0.25867c0.8092,-0.05298 1.63725,-0.08488 2.481,-0.114c0.85759,-0.02959 1.72736,-0.05179 2.607,-0.078c0.8877,-0.02646 1.78199,-0.04544 3.57867,-0.14134c0.89988,-0.04803 1.79618,-0.11496 2.6865,-0.18599c0.88169,-0.07034 1.75098,-0.14755 2.6055,-0.222c0.83649,-0.07288 1.65122,-0.15221 3.208,-0.25867c0.73566,-0.05031 1.44787,-0.08466 2.142,-0.10951c0.68189,-0.02441 1.35797,-0.03836 2.034,-0.04649c0.68198,-0.00821 1.376,-0.00999 2.824,-0.01067c0.7645,-0.00035 1.556,0 2.3715,0c0.8365,0 1.691,0 2.5605,0c0.8815,0 1.772,0 3.568,0c0.90017,0 1.80133,0 2.7045,0c0.90617,0 1.81634,0 2.7315,0c0.92117,0 1.84933,0.00034 3.73067,0c0.95451,-0.00017 1.91602,0.00032 2.8815,-0.009c0.96653,-0.00934 1.93121,-0.0265 2.8905,-0.063c0.95175,-0.03621 1.89501,-0.06764 3.728,-0.26132c0.89223,-0.09427 1.76478,-0.22986 2.6235,-0.37201c0.8493,-0.14058 1.68868,-0.29643 2.5245,-0.444c0.83319,-0.14709 1.66436,-0.31047 3.352,-0.51733c0.85323,-0.10458 1.7183,-0.16968 2.59051,-0.2235c0.87849,-0.05421 1.76361,-0.09007 2.65349,-0.1245c0.8938,-0.03458 1.79131,-0.05544 3.58934,-0.15201c0.90036,-0.04836 1.80016,-0.11533 2.7,-0.18599c0.90016,-0.07068 1.79993,-0.14833 2.7,-0.222c0.89993,-0.07367 1.79918,-0.15479 3.60001,-0.25867c0.89931,-0.05188 1.79723,-0.08478 2.69099,-0.10951c0.88759,-0.02457 1.76732,-0.03828 2.63701,-0.04649c0.85765,-0.00809 1.70132,-0.00999 3.33867,-0.01067c0.79066,-0.00032 1.56532,0 2.32799,0c0.75467,0 1.50534,0 2.25601,0c0.75467,0 1.51733,0 3.08266,0c0.80984,0 1.63867,0 2.4855,0c0.86383,0 1.74367,0 2.6385,0c0.90883,0 1.83066,0.00017 3.70934,0c0.9545,-0.00009 1.916,0.00017 2.8815,-0.0045c0.96651,-0.00467 1.93106,-0.01324 2.89049,-0.03149c0.95157,-0.0181 1.89278,-0.03368 3.72801,-0.13068c0.89043,-0.04706 1.76022,-0.11446 2.61,-0.18599c0.83025,-0.06989 1.64,-0.14738 2.42999,-0.222c0.77,-0.07272 1.51912,-0.15286 2.96001,-0.25867c0.69028,-0.05069 1.36519,-0.08472 2.028,-0.10951c0.65454,-0.02449 1.3053,-0.03835 1.95599,-0.04649c0.65465,-0.00819 1.31734,-0.00999 2.68266,-0.01067c0.7095,-0.00035 1.436,0 2.1765,0c0.75151,0 1.511,0 2.27551,0c0.76649,0 1.532,0 3.04799,0c0.7455,0 1.48401,0 2.21851,0c0.73351,0 1.46899,0 2.2095,0c0.74849,0 1.508,0 3.07199,0c0.80951,0 1.636,0 2.4765,0c0.8515,0 1.711,0 2.5755,0c0.8665,0 1.73201,0 3.448,0c0.84467,0 1.67734,0 2.496,0c0.80267,0 1.58734,0 2.35201,0c0.74266,0 1.46133,0 2.81866,0c0.636,0 1.248,0 1.842,0c0.582,0 1.158,0 1.73401,0c0.582,0 1.17599,0 2.424,0c0.66451,0 1.356,0 2.0715,0c0.7365,0 1.491,0 2.2605,0c0.78149,0 1.57201,0 3.168,0c0.79984,0 1.59866,0 2.39549,0c0.79384,0 1.58368,0 2.36852,0c0.77882,0 1.55066,0 3.06932,0c0.74518,0 1.48134,0 2.2095,0c0.72118,0 1.43634,0 2.1465,0c0.70616,0 1.40933,0 2.81067,0c0.69983,0 1.39867,0 2.0955,0c0.69383,0 1.38365,0 2.0685,0c0.67883,0 1.35068,0 2.66934,0c0.64532,0 1.28265,0 1.914,0c0.62732,0 1.25266,0 1.87799,0c0.62732,0 1.25867,0 2.54132,0c0.65466,0 1.31735,0 1.98602,0c0.67267,0 1.34732,0 2.69464,0c0.66867,0 1.98602,0 2.6315,0c0.63852,0 1.90652,0 2.54202,0c0.6405,0 1.289,0 3.3125,0c0.70932,0 1.43466,0 2.172,0c0.74533,0 1.49466,0 2.24399,0c0.74533,0 1.48267,0 2.91733,0c1.36267,0 2.01901,0 2.66135,0c0.63034,0 1.86301,0 2.46933,0c1.20267,0 2.40399,0 3.00717,0c0.60617,0 1.83148,0 2.45267,0c0.62817,0 1.90948,0 3.22815,0c0.67184,0 1.35068,0 2.03552,0c0.68982,0 1.38367,0 3.47916,0c0.69983,0 1.39868,0 2.09549,0c0.69385,0 1.38367,0 2.74734,0c0.67184,0 1.99051,0 2.63583,0c1.26868,0 1.896,0 2.52133,0c0.62534,0 1.884,0 3.16666,0c0.65451,0 1.31601,0 1.98151,0c1.33099,0 1.99051,0 2.642,0c0.6405,0 2.46701,0 3.0405,0c1.108,0 1.6485,0 2.7175,0c0.53452,0 2.17334,0 2.73718,0c0.57184,0 1.7355,0 2.32532,0c0.59384,0 2.38934,0 2.9895,0c0.60117,0 1.81052,0 2.42068,0c0.61514,0 1.8645,0 3.14581,0c0.65701,0 1.336,0 2.04901,0c0.759,0 1.57599,0 2.46301,0c0.96899,0 2.03198,0 4.48798,0c1.41034,0 2.92267,0 4.509,0c1.63235,0 3.28268,0 4.923,0c1.60233,0 3.13867,0 5.90134,0c1.17783,0 2.22266,0 3.15149,0c0.82983,0 1.57767,0 2.2605,0c0.63486,0 1.23868,0 2.42136,0c0.60983,0 1.23865,0 1.8855,0c0.66382,0 1.34366,0 2.03848,0c0.70883,0 1.43066,0 2.90933,0c0.75452,0 1.51602,0 2.28152,0c0.76648,0 1.53098,0 2.2905,0c0.7515,0 1.49197,0 2.92798,0c0.69052,0 1.36401,0 2.0235,0c0.6485,0 1.289,0 1.9245,0c0.63351,0 1.26801,0 2.552,0c0.65451,0 1.31601,0 1.98151,0c0.6665,0 1.33099,0 1.99051,0c0.65149,0 1.29199,0 2.52798,0c0.59033,0 1.16269,0 1.71902,0c0.54233,0 1.07266,0 1.59299,0c0.51233,0 1.01868,0.00034 2.02133,0c0.50034,-0.00017 1.00275,0.00217 1.509,-0.009c1.03293,-0.0228 1.56577,-0.03587 2.66165,-0.16167c1.16635,-0.13388 1.77322,-0.26604 2.39734,-0.39732c1.28534,-0.27039 1.93167,-0.43349 2.58133,-0.58134c0.64502,-0.1468 1.27509,-0.32866 3.10751,-0.60767c0.56915,-0.08667 1.66016,-0.17761 2.18066,-0.20132c0.99585,-0.04535 2.39584,-0.04167 2.84033,-0.04184l0.84702,-0.00433l1.12048,-0.03149l0.612,-0.04933" id="svg_7" stroke-width="2" stroke="#000" fill="none"/>
  <path t="16040,16166,16167,16167,16184,16184,16184,16184,16184,16201,16201,16201,16201,16201,16217,16217,16217,16217,16217,16218,16218,16234,16234,16234,16235,16235,16235,16235,16235,16235,16251,16251,16251,16251,16251,16251,16251,16251,16251,16267,16268,16268,16268,16268,16268,16268,16268,16268,16284,16284,16284,16284,16284,16285,16285,16285,16285,16301,16301,16301,16301,16301,16301,16301,16301,16301,16317,16317,16318,16318,16318,16318,16318,16318,16318,16334,16334,16334,16334,16334,16335,16335,16335,16335,16351,16351,16351,16351,16351,16351,16352,16352,16352,16367,16367,16368,16368,16368,16368,16368,16368,16384,16384,16384,16384,16384,16384,16385,16385,16385,16401,16401,16401,16401,16401,16401,16401,16402,16417,16417,16418,16418,16418,16418,16418,16418,16434,16434,16434,16434,16434,16434,16435,16451,16451,16451,16451,16451,16451,16451,16467,16467,16468,16468,16468,16468,16468,16484,16485,16485,16485,16485,16485,16485,16501,16501,16501,16501,16501,16501,16502,16517,16518,16518,16518,16518,16518,16518,16534,16534,16534,16534,16534,16535,16551,16551,16551,16551,16551,16552,16552,16567,16568,16568,16568,16568,16568,16568,16584,16584,16584,16584,16584,16585,16585,16585,16601,16601,16601,16601,16602,16602,16602,16602,16617,16617,16618,16618,16618,16618,16618,16618,16618,16634,16634,16634,16635,16635,16635,16635,16651,16651,16651,16651,16652,16652,16652,16652,16695,16696,16696,16696,16696,16697,16697,16697,16697,16700,16700,16701,16701,16701,16701,16701,16701,16703,16703,16703,16703,16704,16704,16704,16704,16704,16717,16717,16717,16718,16718,16718,16718,16718,16718,16733,16733,16734,16734,16734,16734,16734,16751,16752,16752,16752,16752,16752,16753,16753,16753,16770,16770,16770,16770,16771,16771,16771,16787,16787,16787,16787,16787,16788,16788,16808,16809,16809,16809,16809,16809,16810,16825,16826,16826,16826,16826,16826,16827,16845,16846,16846,16846,16846,16846,16847,16847,16866,16866,16866,16866,16867,16867,16867,16867,16869,16869,16869,16869,16870,16870,16888,16889,16889,16889,16889,16890,16890,16909,16909,16909,16910,16910,16910,16910,16941,16942,16942,16942,16942,16942,16943,16944,16945,16945,16945,16945,16945,16946,16976,16976,16976,16976,16977,16977,16977,16977,16979,16979,16980,16980,16980,17010,17010,17010,17010,17011,17012,17013,17013,17013,17013,17014,17043,17043,17044,17044,17044,17044,17046,17046,17047,17047,17047,17078,17079,17079,17079,17080,17080,17083,17084,17084,17084,17084,17115,17116,17116,17117,17117,17119,17119,17119,17120,17120,17120,17150,17151,17151,17151,17151,17152,17152,17184,17184,17185,17185,17185,17186,17186,17186,17186,17188,17189,17189,17189,17189,17190,17190,17190,17191,17222,17222,17222,17223,17223,17223,17223,17225,17226,17226,17226,17226,17258,17258,17259,17261,17261,17261,17261,17293,17293,17293,17334,17335" d="m2,222c5.43067,-0.91467 6.13837,-0.974 6.81467,-0.98933c1.3517,-0.03065 2.072,-0.01067 2.832,-0.01067c0.8,0 1.64,0 2.975,0c0.465,0 1.425,0 2.425,0c0.515,0 2.12,0 2.67517,0c0.56617,0 1.7355,0 2.34067,0c0.62017,0 1.9095,0.00017 3.27083,0c0.70983,-0.00009 1.43867,0.00011 2.1855,-0.0045c0.76384,-0.0047 1.54373,-0.01352 2.3385,-0.03149c0.8089,-0.0183 1.63135,-0.03638 3.30933,-0.13068c0.85506,-0.04805 1.71748,-0.11549 2.586,-0.18599c0.87282,-0.07085 1.74726,-0.14824 2.622,-0.222c0.87259,-0.07358 1.74051,-0.15407 3.45866,-0.25867c0.84481,-0.05142 1.68122,-0.08475 2.5095,-0.10951c0.82107,-0.02454 1.63631,-0.03831 2.4465,-0.04649c0.80615,-0.00813 1.60933,-0.00966 3.21067,-0.01067c0.8,-0.0005 1.60003,0.00032 2.4,-0.009c0.80004,-0.00934 1.60025,-0.02669 2.4,-0.063c0.80029,-0.03635 1.60305,-0.07109 3.2,-0.26132c0.80193,-0.09552 1.60196,-0.23106 2.4045,-0.37201c0.80681,-0.14171 1.61589,-0.29712 2.4315,-0.444c0.82072,-0.1478 1.64568,-0.31058 3.33067,-0.51733c0.85288,-0.10466 1.71564,-0.16951 2.5815,-0.2235c0.86617,-0.054 1.73096,-0.08984 2.5905,-0.1245c0.85147,-0.03433 1.69281,-0.05351 3.328,-0.15201c0.79095,-0.04765 1.56423,-0.11481 2.3235,-0.18599c0.74874,-0.07019 1.48891,-0.14822 2.2245,-0.222c0.73341,-0.07356 1.46695,-0.15536 2.952,-0.25867c0.75404,-0.05246 1.51592,-0.08467 2.2815,-0.114c0.76643,-0.02936 1.53104,-0.05153 2.2905,-0.078c0.75153,-0.0262 1.49297,-0.04326 2.92799,-0.14134c0.69122,-0.04724 1.36559,-0.1149 2.028,-0.18599c0.65493,-0.07028 1.3052,-0.14854 1.956,-0.222c0.65453,-0.07388 2.68237,-0.26357 3.39217,-0.30383c0.72623,-0.0412 1.46692,-0.06743 2.2185,-0.08551c0.75944,-0.01828 1.52399,-0.02682 2.2905,-0.03149c0.7655,-0.00467 2.2815,-0.0045 3.02666,-0.0045c0.73617,0 1.46433,0 2.90067,0c0.71017,0 1.41634,0 2.1195,0c1.40134,0 2.10117,0 2.8,0c1.39066,0 2.0805,0 2.76534,0c0.67883,0 1.35066,0 2.66933,0c1.28266,0 1.91399,0 2.54133,0c1.25067,0 1.87801,0 2.50934,0c1.28266,0 2.59866,0 3.26417,0c0.6665,0 1.33099,0 1.9905,0c1.29199,0 2.528,0 3.11867,0c1.13733,0 1.692,0 2.79332,0c0.55467,0 1.11734,0 2.89218,0c0.6265,0 1.267,0 1.91849,0c1.32401,0 1.99051,0 2.65601,0c1.31599,0 2.59734,0 3.22549,0c0.62117,0 1.23634,0 2.45267,0c0.60316,0 1.8045,0 3.0045,0c0.60001,0 1.2,0 2.40001,0c0.59999,0 1.2,0 3,0c0.59999,0 1.2,0 2.39999,0c0.60001,0 1.2,0 3,0c0.60001,0 1.2,0 2.39999,0c0.60001,0 1.20001,0 2.40001,0c1.2,0 1.80019,0.00378 3.0045,-0.0045c0.60617,-0.00417 1.21664,-0.00679 2.45267,-0.05266c0.62836,-0.02332 1.90991,-0.10478 2.5645,-0.16417c1.34091,-0.12166 2.02493,-0.20453 2.72,-0.27867c0.70494,-0.0752 1.41949,-0.15289 2.14499,-0.216c1.47906,-0.12866 2.23456,-0.16495 2.99734,-0.20132c0.76855,-0.03665 1.54144,-0.06551 2.31599,-0.1035c0.7748,-0.03801 2.3194,-0.11966 3.83333,-0.3125c0.74696,-0.09515 1.48094,-0.22984 2.205,-0.37201c0.71594,-0.14056 1.4198,-0.29556 2.11501,-0.444c0.68481,-0.14621 1.35234,-0.33296 3.3255,-0.60767c0.63644,-0.08861 1.27248,-0.13722 1.90649,-0.17099c1.27519,-0.06792 1.92448,-0.06552 2.584,-0.06934c1.36398,-0.00789 2.07367,-0.00267 2.80133,-0.00267c1.50134,0 2.27101,0 3.05067,0c0.78766,0 1.58133,0 3.17867,0c0.79984,0 1.59866,0 2.39549,0c0.79384,0 1.58368,0 2.36852,0c0.77882,0 1.55066,0 3.06932,0c0.74535,0 1.48267,0 2.214,0c0.72734,0 1.45267,0 2.17799,0c0.72734,0 2.94135,0 3.69617,0c0.76384,0 1.53568,0 2.3145,0c0.78484,0 1.57468,0 2.36852,0c0.79683,0 2.39549,0 3.19516,0c0.79767,0 1.59134,0 2.379,0c0.77966,0 1.54933,0 2.30701,0c0.74367,0 2.181,0 2.87166,0c0.67467,0 1.992,0 2.64267,0c0.65067,0 1.30533,0.00024 3.33333,0c0.70934,-0.00009 1.43469,0.00014 2.17201,-0.0045c0.74535,-0.00468 1.49472,-0.01328 2.24399,-0.03149c0.74541,-0.01813 1.48401,-0.02837 2.91734,-0.13068c1.36423,-0.09738 2.0192,-0.18431 2.66133,-0.25867c0.63052,-0.07301 1.86249,-0.22672 2.46933,-0.29066c1.20172,-0.12665 2.40259,-0.20198 3.00266,-0.23132c0.59991,-0.02933 1.80011,-0.07602 2.40002,-0.10535c0.60007,-0.02934 2.40045,-0.1658 3.00131,-0.23132c0.60349,-0.06581 1.81937,-0.21733 2.43466,-0.29066c0.62103,-0.07402 1.24719,-0.16971 3.18552,-0.30383c0.66321,-0.0459 1.33557,-0.06741 2.0145,-0.08551c0.68478,-0.01825 1.37463,-0.02934 2.76532,-0.03467c1.39868,-0.00536 2.09869,0.00034 2.79868,-0.004c0.70001,-0.00433 1.40027,-0.01068 2.10001,-0.039c1.40073,-0.05669 2.10349,-0.10149 3.5,-0.29166c0.70169,-0.09555 1.39822,-0.23022 2.091,-0.37201c0.68857,-0.14091 2.03647,-0.44638 2.69467,-0.58932c0.64316,-0.13968 1.87805,-0.3947 3.04633,-0.53467c0.56146,-0.06726 1.66788,-0.13304 2.21866,-0.14934c0.5546,-0.0164 2.28268,-0.02084 2.892,-0.0215c0.62534,-0.00067 1.90805,-0.008 2.55734,-0.02066c0.64938,-0.01266 1.29678,-0.00468 3.16666,-0.14584c0.59152,-0.04466 1.16599,-0.11234 2.28268,-0.25867c0.55099,-0.0722 1.6553,-0.22794 2.21866,-0.29066c1.16403,-0.12961 2.40118,-0.20235 3.04184,-0.22684c0.65137,-0.0249 1.31094,-0.04132 2.642,-0.05266c0.66547,-0.00566 1.98151,-0.004 2.62683,-0.00467c0.63733,-0.00066 1.89603,-0.008 2.52133,-0.02066c0.6254,-0.01266 1.88489,-0.05168 3.16666,-0.14584c0.65488,-0.04811 1.31497,-0.11458 1.97702,-0.18599c1.31528,-0.14188 1.95886,-0.22299 2.58932,-0.29468c0.61221,-0.06963 2.30209,-0.24083 3.29999,-0.2955c0.46945,-0.02571 1.37097,-0.05074 2.24835,-0.05583c1.34012,-0.0078 1.80399,-0.00133 2.75467,-0.00133c0.97467,0 1.46848,0 2.96399,0c1.00134,0 1.50449,0 2.52084,0c0.51517,0 1.56448,0 2.64581,0c1.116,0 1.68152,0 2.8125,0c0.55951,0 1.11102,0 2.6875,0c0.96402,0 1.42352,0 2.3125,0c0.86902,0 2.18753,0.00482 3.10617,-0.00267c0.47186,-0.00385 1.43713,-0.01976 2.41916,-0.11166c0.49786,-0.0466 1.99741,-0.32042 2.49417,-0.45366c0.99503,-0.26688 1.47543,-0.44907 2.44418,-0.72667c1.38373,-0.39651 1.8324,-0.48985 2.70898,-0.591c0.8663,-0.09996 1.75797,-0.10983 3.18152,-0.11433c0.50934,-0.00162 1.57199,0 2.11731,0c1.09869,0 1.64401,0 3.216,0c0.492,0 1.46402,0 1.96802,0c1.104,0 1.728,0 2.41599,0c1.616,0 2.56302,0 3.59201,0c1.09299,0 2.23199,0 3.39899,0c1.177,0 2.34601,0 3.48901,0c2.13599,0 3.09698,0.00098 3.98401,-0.00133c0.819,-0.00212 1.57605,-0.00626 2.27698,-0.0195c0.65106,-0.0123 1.25845,-0.02837 1.827,-0.0645c1.04904,-0.06667 1.53891,-0.13188 2.01068,-0.19867c0.45691,-0.06468 0.8988,-0.14063 1.32901,-0.216c0.83289,-0.14595 2.04022,-0.34874 2.83899,-0.41467c0.78024,-0.06441 1.53064,-0.07895 2.23199,-0.084c1.20264,-0.00867 1.97067,-0.00133 2.73868,-0.00133c1.20132,0 1.89334,0 2.61734,0c0.73199,0 2.12799,0 2.76797,0l0.88501,0l1.03983,-0.00017l0.85934,-0.02066" id="svg_8" stroke-width="2" stroke="#000" fill="none"/>
  <path t="17790,17933,17933,17933,17933,17950,17950,17950,17950,17950,17967,17967,17967,17967,17967,17967,17967,17983,17983,17983,17983,17983,17983,18001,18001,18001,18001,18001,18001,18001,18001,18017,18017,18017,18017,18017,18017,18017,18033,18034,18034,18034,18034,18034,18034,18034,18051,18051,18051,18051,18051,18051,18051,18067,18067,18067,18068,18068,18068,18068,18068,18083,18084,18084,18084,18084,18084,18084,18084,18101,18101,18101,18101,18101,18101,18101,18101,18117,18117,18117,18118,18118,18118,18118,18118,18118,18133,18134,18134,18134,18134,18135,18135,18151,18151,18151,18151,18151,18151,18151,18151,18167,18167,18167,18168,18168,18168,18168,18184,18184,18184,18184,18184,18184,18184,18185,18199,18199,18199,18199,18199,18200,18200,18200,18217,18217,18217,18217,18218,18218,18218,18218,18234,18234,18234,18234,18234,18234,18234,18234,18251,18251,18251,18251,18252,18252,18252,18268,18268,18268,18268,18268,18269,18269,18269,18285,18286,18286,18286,18286,18286,18286,18302,18303,18303,18303,18303,18303,18303,18320,18320,18320,18320,18320,18321,18321,18321,18338,18338,18338,18338,18338,18338,18366,18366,18366,18367,18367,18367,18367,18367,18369,18369,18369,18369,18369,18369,18370,18403,18403,18403,18403,18403,18404,18404,18405,18405,18406,18406,18406,18406,18435,18435,18435,18435,18435,18436,18436,18437,18437,18437,18438,18438,18438,18467,18467,18467,18467,18467,18468,18469,18469,18469,18469,18470,18470,18470,18470,18500,18500,18500,18500,18500,18500,18503,18503,18503,18503,18503,18504,18533,18533,18533,18534,18534,18534,18535,18536,18536,18536,18536,18536,18565,18565,18565,18565,18566,18566,18594,18594,18594,18594,18595,18595,18623,18624,18624,18624,18624,18624,18653,18654,18654,18654,18654,18654,18656,18656,18656,18657,18657,18659,18659,18659,18659,18659,18661,18661,18661,18691,18691,18691,18692,18693,18694,18694,18694,18725,18725,18725,18727,18767,18768" d="m139,211c5.2785,0 6.14284,0 6.97917,0c0.81633,0 2.02083,0 2.82483,0c0.828,0 1.70399,0 2.1675,0c1.5285,0 2.09267,0 3.291,0c0.62418,0 1.25833,0 1.89751,0c1.27333,0 2.50667,0 3.09734,0c1.13733,0 1.692,0 2.79332,0c0.55467,0 2.28267,0 2.89218,0c0.6265,0 1.267,0 2.57799,0c0.66451,0 1.33101,0 1.99651,0c1.31599,0 2.59866,0 3.23,0c0.62733,0 1.25267,0 2.50534,0c0.63133,0 1.914,0 2.56883,0c1.33566,0 2.0145,0 2.69933,0c0.68983,0 1.38367,0 2.08051,0c2.0985,0 2.79733,0 3.49417,0c0.69383,0 1.38367,0 2.0685,0c1.35066,0 2.66933,0 3.31483,0c0.6385,0 1.90649,0 2.54199,0c0.6405,0 1.289,0 1.9485,0c2.0735,0 2.8,0 3.5405,0c0.75151,0 1.511,0 2.27551,0c0.76649,0 1.532,0 3.04799,0c0.74535,0 1.48267,0 2.214,0c0.72734,0 2.17799,0 2.90533,0c0.73134,0 2.214,0 2.96851,0c0.76149,0 1.52699,0 2.29349,0c0.76451,0 1.524,0 2.27551,0c0.74049,0 2.1765,0 3.5405,0c0.6595,0 1.308,0 1.9485,0c1.269,0 1.90349,0 3.1875,0c0.65483,0 1.99049,0 2.66933,0c0.68483,0 1.37466,0 2.0685,0c0.69684,0 2.0955,0 3.49417,0c0.69684,0 1.39067,0 2.08051,0c0.68483,0 1.36366,0 3.35416,0c0.64551,0 1.28401,0 1.9185,0c1.269,0 1.9095,0 2.558,0c0.6595,0 2.0235,0 3.4595,0c0.74049,0 1.492,0 2.2515,0c0.76451,0 1.53101,0 2.29651,0c1.51599,0 2.26117,0 2.99733,0c0.72818,0 1.44934,0 2.16449,0c1.41635,0 2.11951,0 3.52084,0c0.69983,0 1.39868,0 2.09549,0c0.69385,0 2.06851,0 2.74734,0c0.67184,0 1.99051,0 3.27316,0c0.63135,0 1.25867,0 1.884,0c1.25266,0 1.884,0 3.16666,0c0.65466,0 1.98602,0 2.65869,0c0.67465,0 1.3493,0 2.02197,0c0.66867,0 2.63135,0 3.26868,0c0.63135,0 1.884,0 2.50934,0c0.62732,0 1.25867,0 3.19617,0c0.66382,0 1.33566,0 2.0145,0c0.68484,0 1.37466,0 2.76532,0c1.39868,0 2.09836,0 2.79602,0c0.69366,0 1.38132,0 2.73065,0c0.65768,0 1.30133,0 2.53867,0c1.16534,0 1.728,0 2.83334,0c0.55066,0 1.668,0 2.83334,0c0.6095,0 1.23599,0 2.52798,0c0.65952,0 1.32401,0 1.99051,0c0.6655,0 2.62683,0 3.26416,0c0.63135,0 1.884,0 2.50934,0c0.62732,0 1.25867,0 3.19583,0c0.6615,0 1.327,0 1.9935,0c0.66449,0 1.97549,0 2.616,0c1.23599,0 2.39999,0 2.9595,0c0.54849,0 1.62451,0 2.15799,0c1.6185,0 2.17334,0 3.30902,0c0.57883,0 1.75348,0 2.34732,0c0.59683,0 2.39532,0 2.99417,0c0.59683,0 1.78049,0 2.36533,0c0.57883,0 2.26935,0 2.81485,0c1.073,0 1.60648,0 2.6825,0c0.54849,0 2.272,0 2.88132,0c0.62534,0 1.26266,0 2.55734,0c0.64932,0 1.29468,0 1.93201,0c1.82516,0 2.39865,0 3.50665,0c0.5405,0 1.6095,0 2.14401,0c1.63867,0 2.20132,0 2.76999,0c1.14734,0 1.72202,0 2.86334,0c1.11734,0 1.66251,0 2.72684,0c0.52115,0 1.54648,0 2.55582,0c1.00134,0 2.00269,0 2.50583,0c1.01636,0 2.05267,0 2.58084,0c1.63602,0 2.19867,0 2.76733,0c1.14734,0 1.72202,0 2.86334,0c1.11734,0 1.66251,0 2.72684,0c0.52115,0 1.54648,0 2.55582,0c1.00134,0 2.00269,0 2.50583,0c1.01636,0 2.05267,0 2.58084,0c1.63583,0 2.19733,0 2.76285,0c1.13098,0 1.69049,0 2.7825,0c1.03598,0 2,0 2.90799,0c0.87601,0 1.30951,0 2.62799,0c0.91467,0 1.83734,0 2.29169,0c0.87466,0 2.3775,0 2.97916,0c0.80249,0 1.89584,0 2.87234,0c0.711,0 1.44199,0 2.5235,0c1.00949,0 1.64581,0 2.56534,0c0.90097,0 1.78,0 2.58698,0l1.20001,0l0.81433,0l0.81433,-0.11433" id="svg_9" stroke-width="2" stroke="#000" fill="none"/>
 </g>
 <g display="none">
  <title>muse_image</title>
  <image xlink:href="http://farm1.static.flickr.com/15/21599781_13d764a211.jpg" id="muse" height="480" width="640" y="0" x="0"/>
 </g>
 <g display="none">
  <title>bbox</title>
  <rect stroke="#f00" fill="none" stroke-width="3" height="268.8" width="541.44" y="90.88" x="24.32" id="bbox"/>
 </g>
</svg>
