<svg width="640" height="480" xmlns="http://www.w3.org/2000/svg" xmlns:svg="http://www.w3.org/2000/svg" xmlns:xlink="http://www.w3.org/1999/xlink">
 <!-- Sketchy ANNOTATION
  ImageNet ID: n03467517_3203
  URL: http://www.foto-diana.nl/webfoto's/kris%20met%20gitaar%20close-up%20bew.%20kl.jpg
  Image Width: 600
  Image Height: 400
  BBox X: 195
  BBox Y: 230
  BBox Width: 343
  BBox Height: 150
  Exposure: 2000ms
  Synset Label: guitar
  Synset ID: n03467517
  Worker Tag: man playing guitar with strap
  Sanity Check: 
   Saved
  Comment: 
   {}
  Worker ID: A2HM35CWB7IIFM
  Assignment ID: 3EJPLAJKEMGXSHMTYFW84YPZ5JF6ZZ
  HIT ID: 3VJ4PFXFJ37F606SS39AERHLVG8UAK
  Work Time: 182s
  Worker Score: 0.7857
 END ANNOTATION -->
 <g display="inline">
  <title>Layer 1</title>
  <path t="0,500,558,583,607,631,668,681,682,698,699,705,729,766,781,828,877,925,953,954,969,988,1012,1012,1036,1048,1074,1097,1177,1177,1189,1234,1234,1248,1273,1296,1345,1369,1417,1431,1447,1447,1465,1481,1503,1515,1540,1564,1601,1601,1626,1675,1712,1736,1749,1765,1775,1798,1814,1822,1834,1848,1859,1859,1871,1884,1908,1945,1945,1969,2007,2008,2031,2031,2047,2079,2092,2092,2105,2116,2131,2131,2142,2153,2154,2179,2179,2191,2215,2229,2230,2314,2330,2349,2350,2365,2365,2375,2375,2386,2387,2399,2424,2435,2485,2634,2634,2659,2682,2705,2705,2709,2722,2723,2736,2736,2749,2756,2780,2800,2820,2855,2855,2892,2906,2921,2939,2952,2966,2982,3001,3016,3016,3038,3063,3063,3075,3111,3161" d="m403.5,339.89999c0,1.70001 0,2.70001 0,3.60001c0,0.89999 0,1.79999 0,2.60135c0,0.96533 0,1.79865 0,2.77716c0,0.82016 0,1.7215 0,2.62149c0,0.89999 0,1.79999 0,2.70001c0,0.89999 -0.03665,1.80072 0,2.69998c0.02859,0.70175 0.56198,1.46838 0.94733,2.30002c0.40399,0.87186 0.88593,1.47168 1.04819,2.39999c0.15512,0.88745 0.53189,1.64572 0.92047,2.5c0.34711,0.76309 0.78738,1.50113 1.384,2.10001c0.69867,0.70132 1.35254,1.17587 2.08936,1.67465c0.66705,0.45157 1.27246,1.06924 1.66333,1.72983c0.46475,0.78546 0.81183,1.60406 0.94867,2.49551c0.14059,0.91577 0.8085,1.4541 0.98798,2.39999c0.16779,0.88428 0.01068,1.79999 0.01068,2.70001c0,0.89999 0,1.79999 0,2.69998c0,0.80002 0,1.70001 0,2.60001c0,0.89999 0.00067,1.79999 0,2.70001c-0.00067,0.89865 -0.49924,1.50378 -0.97467,2.13599c-0.49539,0.65875 -0.61087,1.71335 -1.19199,2.39734c-0.56659,0.6669 -1.11832,1.22623 -1.48068,1.86667c-0.46442,0.82077 -0.84143,1.58698 -1.57416,2.17865c-0.64581,0.52148 -1.38116,0.72934 -2.07849,1.42136c-0.70267,0.6973 -1.17459,1.22641 -1.90002,1.89865c-0.58044,0.53787 -1.25073,1.13141 -1.96664,1.63467c-0.69525,0.48874 -1.63348,0.14935 -2.53336,0.16666c-0.93649,0.01801 -1.77472,0.3071 -2.47464,0.57468c-1.05536,0.40344 -1.94125,0.33249 -2.71069,0.51065c-0.97385,0.22549 -1.64926,0.57388 -2.59381,0.91467c-0.84036,0.30319 -1.55774,0.73691 -2.32083,1.08401c-0.85428,0.38858 -1.61017,0.89798 -2.52133,0.91599c-0.67856,0.0134 -1.79602,0 -2.48853,0c-0.95816,0 -1.69016,0 -2.85681,0c-0.79169,0 -1.73334,0 -2.63333,0c-0.90002,0 -1.80002,0 -2.70001,0c-0.79999,0 -1.70001,0 -2.52084,0c-0.96317,0 -1.83362,0.10837 -2.72198,-0.00449c-0.87726,-0.11145 -1.4841,-0.75873 -2.40985,-0.93835c-0.84927,-0.16479 -1.82648,-0.05716 -2.74731,-0.05716c-0.89999,0 -1.8038,0.08212 -2.70001,-0.00015c-0.91144,-0.08368 -1.43796,-0.74368 -2.29999,-0.96384c-0.95966,-0.24509 -1.47394,-0.7616 -2.21066,-1.02533c-0.83737,-0.29977 -1.78934,-0.01068 -2.68933,-0.01068c-0.90002,0 -1.80017,0 -2.58536,0c-0.94,0 -1.948,0 -2.70398,0l-0.91068,0l-0.89999,0l-0.89999,0" id="svg_1" stroke-width="2" stroke="#000" fill="none"/>
  <path t="4024,4229,4254,4267,4280,4303,4314,4364,4376,4390,4404,4420,4436,4436,4438,4450,4474,4487,4487,4498,4515,4536,4548,4549,4566,4566,4573,4574,4584,4598,4598,4615,4615,4622,4634,4649,4649,4649,4665,4665,4666,4671,4683,4683,4698,4698,4715,4732,4732,4749,4757,4783,4798,4798,4807,4818,4832,4849,4855,4866,4881,4897,4898,4898,4904,4904,4904,4916,4916,4931,4931,4931,4941,4953,4953,4964,4965,4981,5002,5015,5033,5051,5051,5064,5064,5081,5081,5088,5089,5089,5100,5100,5114,5114,5131,5131,5132,5137,5137,5149,5164,5185,5211,5224,5224,5235,5247,5264,5273,5284,5284,5298,5298" d="m346.5,399.89999c-1.70001,0 -2.70258,-0.39819 -3.564,0.03601c-0.69888,0.35226 -1.36777,0.57104 -2.15067,1.04932c-0.80325,0.49069 -1.51025,0.65842 -2.164,1.13602c-0.69907,0.51071 -1.37863,0.61499 -2.22134,1c-0.66931,0.30579 -1.52341,0.76022 -2.29999,1.20401c-0.72409,0.41379 -1.56033,0.80496 -2.30002,1.22198c-0.745,0.42001 -1.21951,1.02814 -1.73599,1.75266c-0.56015,0.78577 -1.20313,1.20966 -1.76401,2.08401c-0.43094,0.67181 -0.87341,1.51727 -1.39999,2.10535c-0.66333,0.74078 -1.0629,1.50607 -1.56934,2.21066c-0.52988,0.73718 -1.31104,0.96692 -1.84534,1.79999c-0.48859,0.76175 -1.3168,1.24457 -1.99515,1.35184c-0.77359,0.12234 -1.85123,0.33319 -2.5285,0.75351c-0.6445,0.39996 -1.56796,1.17517 -2.46167,1.29465c-0.75262,0.10062 -1.64172,0.37994 -2.34732,0.64734c-0.88315,0.33466 -1.80069,0.72006 -2.45267,1.06866c-0.84741,0.45309 -1.6604,0.85934 -2.40002,1.20001c-0.86322,0.39761 -1.4563,0.88254 -2.39999,1.07333c-0.86227,0.17432 -1.40088,0.80145 -2.20132,1.00934c-0.81644,0.21204 -1.34042,0.83771 -2.24033,0.9805c-0.94672,0.15024 -1.77258,-0.0043 -2.4155,0.07797c-1.23755,0.15839 -1.76361,0.38596 -2.59018,0.59018c-1.02594,0.25348 -1.94928,0.26813 -2.95267,0.51935c-0.80905,0.20258 -1.49924,0.65836 -2.24734,1.12881c-0.90161,0.56699 -1.57751,0.68649 -2.586,0.7045c-0.86203,0.01538 -1.76666,0 -2.66666,0c-0.89999,0 -1.85339,-0.13864 -2.60016,0.2215c-0.7345,0.35422 -1.35849,1.03586 -2.1105,1.3425c-0.9613,0.39197 -1.78918,0.4256 -2.78934,0.436c-0.79996,0.00833 -1.60062,-0.03058 -2.60001,0.00452c-0.80124,0.02814 -1.79251,0.30093 -2.60001,0.57016c-0.99152,0.33057 -1.60858,0.34915 -2.39999,0.50934c-1.01059,0.20456 -1.71017,0.69958 -2.76401,0.88c-0.92322,0.15808 -1.836,0.03598 -2.73599,0.03598c-0.89999,0 -1.69998,0 -2.60001,0c-0.89999,0 -1.80643,0.09793 -2.71066,-0.01065c-0.92804,-0.11145 -1.58932,-0.48935 -2.42267,-0.82266l-0.86215,-0.16217" id="svg_2" stroke-width="2" stroke="#000" fill="none"/>
  <path t="6294,6550,6563,6575,6590,6591,6605,6605,6614,6625,6625,6635,6647,6672,6672,6684,6697,6722,6722,6733,6733,6748,6764,6782,6782,6806,6807,6831,6831,6848,6863,6863,6869,6880,6898,6898,6906,6917,6917,6943,6943,6955,6955,6955,6967,6980,6980,6980,6999,6999,7004,7004,7016,7016,7040,7053,7077,7090,7090,7102,7126,7140,7151,7151,7163,7163,7181,7181,7188,7188,7188,7201,7201,7201,7214,7214,7230,7230,7231,7237,7237,7249,7249,7265,7265,7274,7286,7286,7298,7313,7323,7335,7335,7348,7365,7365,7365,7372,7372,7372,7384,7384,7384" d="m256.5,430.89999c-1.60001,-0.57465 -2.40511,-0.9003 -3.3045,-1.00449c-0.87146,-0.10095 -1.72479,-0.46866 -2.52882,-0.99551c-0.67264,-0.44077 -1.52614,-0.81311 -2.26668,-1.2215c-0.67448,-0.37195 -1.23462,-1.284 -2.09999,-1.69449c-0.75746,-0.35931 -1.26155,-0.8949 -1.82533,-1.64801c-0.46031,-0.6149 -1.33966,-1.11975 -1.61751,-1.845c-0.36716,-0.95837 -0.19217,-1.76962 -0.35849,-2.70432c-0.14938,-0.83951 -1.11435,-1.319 -1.49867,-1.9075c-0.52164,-0.79877 -0.99474,-1.4635 -1.7,-2.17917c-0.5956,-0.6044 -1.18283,-1.21762 -1.90001,-1.89984c-0.58632,-0.55774 -1.46783,-0.77618 -2.2,-1.25732c-0.79425,-0.52194 -1.28003,-1.24835 -2.09999,-1.61752c-0.78297,-0.35254 -1.4136,-0.90326 -1.90451,-1.6825c-0.46571,-0.73926 -1.01457,-1.54443 -1.51016,-2.13217c-0.61342,-0.72751 -1.03424,-1.47141 -1.35201,-2.37732c-0.23882,-0.68082 -0.63438,-1.43481 -1.13333,-2.43335c-0.29984,-0.60007 -0.82335,-1.58881 -1.17917,-2.37915c-0.37959,-0.84317 -0.5101,-1.61017 -0.52083,-2.52084c-0.0106,-0.89999 -0.46193,-1.73639 -0.83333,-2.5c-0.36667,-0.75391 -0.87233,-1.42093 -1.13068,-2.39999c-0.22981,-0.87091 0.01439,-1.81012 -0.12132,-2.57068c-0.14433,-0.80893 -0.45921,-1.51752 -0.748,-2.69598c-0.1974,-0.80557 -0.38234,-1.65744 -0.6875,-2.375c-0.27527,-0.64725 -0.69838,-1.63556 -0.95834,-2.45834c-0.25586,-0.80981 -0.46817,-1.8125 -0.51016,-2.68933c-0.04836,-1.00974 -0.01067,-1.83148 -0.01067,-2.496c0,-0.99731 0,-1.79382 0,-2.98132c0,-0.8125 0,-1.65466 0,-2.508c0,-0.94 0.1465,-1.95938 -0.08533,-2.62534c-0.30832,-0.88568 -0.79855,-1.64133 -1.19867,-2.39999c-0.45273,-0.8584 -0.71533,-1.60001 -0.716,-2.47202c-0.00066,-0.871 0,-1.60001 0,-2.43698c0,-1.19101 0,-2.091 0,-2.69101l0,-1.20001l0,-0.89099l0,-0.56732" id="svg_3" stroke-width="2" stroke="#000" fill="none"/>
  <path t="8283,8503,8526,8539,8551,8570,8582,8588,8588,8599,8614,8631,8648,8664,8665,8686,8698,8716,8723,8735,8747,8747,8764,8764,8771,8784,8797,8820,8833,8846,8870,8895,8895,8933,8953,8958,8968,8969,8980,8997,9005,9005,9016,9030,9030,9047,9054,9066,9091,9091,9103,9116,9130,9130,9143,9154,9177,9201,9225,9225,9239,9264,9276,9290,9312,9312,9324,9336,9349,9365,9386,9386,9399,9399,9416,9416,9424,9434,9435,9459,9459,9460,9472,9473,9484,9508,9508,9522,9570,9608,9608,9631,9631,9647,9656,9656,9668,9680,9680,9697,9697,9697,9706,9717,9731,9731,9747,9747,9754,9754,9765,9781,9790,9803,9814,9814,9831,9831,9840,9840,9852,9864,9881,9902" d="m218.5,353.89999c0,-1.69998 0,-2.60001 0,-3.5c0,-0.89999 0.10695,-1.80652 -0.00133,-2.69998c-0.11148,-0.9198 -0.84453,-1.56686 -0.98801,-2.40002c-0.15276,-0.88699 0.08334,-1.84708 -0.36333,-2.69998c-0.39395,-0.75223 -0.64667,-1.5 -0.64734,-2.39999c-0.00067,-0.90002 0,-1.80002 0,-2.70001c0,-0.90451 0,-1.76666 0,-2.60001c0,-0.97849 0,-1.79865 0,-2.69998c0,-0.90002 0,-1.80002 0,-2.70001c0,-0.89999 -0.08212,-1.80377 0.00017,-2.70001c0.08368,-0.91144 0.75531,-1.43896 0.979,-2.39999c0.20416,-0.87711 0.46315,-1.61179 0.85416,-2.5c0.28949,-0.65762 0.08936,-1.66754 0.60268,-2.39999c0.55367,-0.79004 1.36176,-1.2525 1.54317,-2.12082c0.19675,-0.94177 0.08318,-1.76566 0.59549,-2.49384c0.48293,-0.6864 0.85216,-1.39417 1.52534,-2.08536c0.59201,-0.60785 1.23465,-1.39957 2,-1.77866c0.84677,-0.41943 1.59923,-0.53351 2.37917,-1.12134c0.65425,-0.4931 0.88672,-1.50937 1.72083,-1.91599c0.75357,-0.36737 1.29134,-0.87839 1.8,-1.56317c0.51572,-0.69427 0.96211,-1.2861 1.52083,-2.02084c0.59039,-0.77637 1.1747,-1.24088 1.4265,-2.14816c0.27861,-1.00391 0.70914,-1.64877 1.27417,-2.23065c0.62799,-0.64673 1.22171,-1.17981 1.7785,-1.9545c0.47482,-0.66061 1.31633,-1.095 2.17467,-1.15601c0.93771,-0.06665 1.80983,-0.20175 2.49733,-0.62134c0.85254,-0.52029 1.58658,-0.77045 2.32266,-1.08932c0.87227,-0.37787 1.54619,-0.9415 2.30534,-1.59552c0.66879,-0.57617 1.63666,-0.30115 2.41466,-0.78983c0.74007,-0.46487 1.28534,-0.91467 2.17067,-0.91467c0.94,0 1.64026,0.11774 2.61467,-0.02081c1.00844,-0.1434 1.6395,-0.67416 2.61467,-0.89386c0.86769,-0.19547 1.69966,-0.08533 2.65334,-0.08533c0.73199,0 1.46399,0 2.56,0c0.9765,0 1.83865,0 2.69284,0c0.97916,0 1.76849,0 2.8125,0c0.75598,0 1.66666,0 2.56665,0c0.89999,0 1.80002,0 2.70016,0c0.78519,0 1.73584,0 2.50116,0c0.99417,0 1.74152,0 2.7627,0l0.93597,0l0.90002,0l0.89999,0" id="svg_4" stroke-width="2" stroke="#000" fill="none"/>
  <path t="10838,11045,11045,11069,11087,11087,11102,11117,11129,11148,11154,11181,11215,11230,11230,11277,11313,11338,11363,11375,11375,11387,11398,11414,11424,11448,11464,11465,11474,11510,11551,11552,11570,11574,11596,11621,11621,11636,11636,11648,11658,11670,11681" d="m281.5,290.89999c1.33334,0.83334 2.02069,0.98959 3.11465,1c0.88531,0.00842 1.67935,0.09561 2.38535,0.5c0.79343,0.45447 1.71259,0.35022 2.59982,0.50018c0.85202,0.14401 1.37418,0.89355 2.10019,1.28381c0.85477,0.45947 1.60016,0.69736 2.5,0.716c0.90051,0.01868 1.61792,0.58917 2.39999,0.87851c0.85175,0.31512 1.73441,-0.07446 2.60001,0.17865c0.87762,0.25665 1.5986,0.91425 2.5,0.94284c0.89954,0.02853 1.80084,-0.0372 2.59998,0c0.91766,0.04272 1.42053,0.8858 2.30002,1.00018c0.69925,0.09094 1.43771,0.74463 2.29999,0.96384c0.87314,0.22198 1.74841,0.41812 2.48535,0.75198c0.72885,0.3302 1.63065,0.28268 2.59381,0.284l0.92084,0l0.89999,0l0.90002,0" id="svg_5" stroke-width="2" stroke="#000" fill="none"/>
  <path t="12434,12628,12628,12628,12628,12642,12642,12642,12657,12658,12658,12672,12677,12688,12701,12725,12725,12738,12739,12750,12764,12787,12798,12798,12815,12815,12824,12849,12865,12875,12898,12923,12923,12947,12971,12997,12997,13009,13023,13023,13044,13046,13046,13056,13069,13069,13083,13098,13107,13107,13117,13143,13156,13156,13168,13192,13192,13206,13206,13217,13241,13265,13282,13303,13303,13327,13327,13341,13341,13351,13364,13381,13381,13390,13390,13401,13425,13450,13450,13474,13499,13499,13524,13547,13547,13570,13574,13575,13589,13600,13622,13622,13622,13634,13648,13663,13663,13695,13732,13746,13793,13817,13830,13855,13867,13867,13880,13905,13916,13929,13930,13941,13941,13941,13953,13965,14039,14090" d="m318.5,299.89999c3.884,0 4.62534,0 5.37466,0c0.74133,0 2.13898,0.0108 2.77866,-0.01065c0.88574,-0.02972 1.93277,-0.18658 2.60001,-0.41467c0.76996,-0.26321 1.836,-0.56387 2.74667,-0.57468c0.88934,-0.01053 1.40338,-0.63608 2.07068,-1.19867c0.57053,-0.48099 1.64523,-0.60367 2.38766,-0.80133c0.9628,-0.25632 1.47711,-0.98199 2.34616,-1c0.86197,-0.01785 1.6955,0 2.67398,0c0.82019,0 1.72159,0.01041 2.62152,0c0.90018,-0.01041 1.63608,-0.46594 2.5,-0.87866c0.85266,-0.40732 1.48721,-0.72263 2.29999,-1.09601c0.88702,-0.4075 1.63824,-0.75925 2.39999,-1.10931c0.74976,-0.34454 1.31085,-1.2417 2,-1.63068c0.76633,-0.43253 1.86691,-0.19305 2.54733,-0.3425c1.05972,-0.23273 1.5798,-1.03217 2.25269,-1.50684c0.7348,-0.51837 1.6188,-0.93649 2.39999,-1.26932c0.75153,-0.32019 1.76196,-0.13049 2.5,-0.6875c0.66565,-0.50238 1.26108,-1.12387 1.88934,-1.87918c0.54626,-0.65671 0.6156,-1.51926 1.04666,-2.41467c0.31067,-0.64529 1.07718,-1.34024 1.64801,-1.90134c0.67154,-0.66013 0.62869,-1.60379 1.24933,-2.11731c0.54504,-0.45099 1.60913,-0.4617 2.41931,-0.81403c0.86871,-0.37778 1.59467,-0.34799 2.61136,-0.35266c0.94049,-0.00433 1.80264,-0.16666 2.63599,-0.5c0.83334,-0.33331 1.46698,-0.73782 2.16934,-1.216c0.73669,-0.50156 1.80914,-0.284 2.62933,-0.284c0.83731,0 1.854,0 2.54865,0c1.02734,0 1.974,0 2.82733,0c0.94,0 1.82535,0 2.62534,0c0.90002,0 1.74167,0 2.74268,0c0.70801,0 1.452,0 2.64301,0c0.91434,0 1.81433,0 2.61432,0c0.90002,0 1.80002,0 2.70001,0c0.89999,0 1.95889,-0.18158 2.47467,0.436c0.52789,0.63208 1.01749,1.44131 1.82532,1.56268c0.90857,0.13651 1.50235,0.66248 2.11734,1.28665c0.58038,0.58905 1.17169,1.15799 1.91602,1.88135c0.45575,0.4429 0.86215,1.18066 1.46216,2.07614l0.53784,0.75717l0.33331,0.83334l0.74802,0.452" id="svg_6" stroke-width="2" stroke="#000" fill="none"/>
  <path t="15085,15465,15489,15505,15505,15525,15537,15574,15599,15623,15660,15672,15672,15685,15720,15758,15770,15782,15795,15820,15857,15857,15881,15917,15942,15942,15955,16005,16041,16066,16080,16089,16102,16126,16163,16179,16188,16200,16214,16229,16230,16237,16248,16264,16264" d="m411.5,287.89999c0,1.80002 0,2.63602 0,3.48401c0,0.86334 0,1.88 0,2.81601c0,0.89999 0.08868,1.80438 0,2.69998c-0.08374,0.8457 -1.11011,1.05463 -1.564,1.61069c-0.6145,0.75284 -1.16693,1.24094 -1.82535,1.82532c-0.69318,0.61523 -0.91727,1.35101 -1.80933,1.56534c-0.75015,0.18024 -1.10822,1.04547 -1.51733,1.79868c-0.4332,0.79752 -1.15546,1.35995 -1.284,2.19998c-0.12167,0.79529 -0.74695,1.5372 -0.96399,2.39999c-0.21976,0.87354 0.12332,1.89789 -0.38867,2.54733c-0.48453,0.61462 -0.59546,1.38654 -1.07266,2.02734c-0.50772,0.68179 -0.66418,1.44272 -1.14935,2.05066c-0.49838,0.62448 -0.42532,1.61069 -0.42532,2.45868c0,0.86334 -0.01068,1.86932 -0.42532,2.50134l-0.51752,0.72449l-0.05582,0.8075" id="svg_7" stroke-width="2" stroke="#000" fill="none"/>
  <path t="18620,18829,18842,18870,18890,18927,18939,18952,18967,18988,18988,19015,19015,19037,19052,19052,19076,19103,19103,19118,19159,19184,19185,19200,19200,19213,19222,19222,19233,19247,19247,19263,19269,19282,19307,19332,19332,19346,19357,19381,19405,19442,19467,19467,19479,19479,19496,19496,19504,19515,19515,19531,19540,19552,19577,19590,19601,19614,19614,19638,19638,19650,19662,19663,19687,19711,19736,19736,19761,19762,19786,19811,19811,19823,19835,19847,19848,19872,19872,19884,19885,19896,19914,19914,19921,19933,19957,19958,19970,19982,19982,19995,20018,20046,20070,20071,20093,20117,20118,20130,20154,20166,20179,20196,20196,20203,20203,20215,20230,20246,20252,20289,20289,20314,20335,20336,20352,20352,20438,20439,20439,20453,20454,20469,20469,20476,20536,20561,20597" d="m324.5,334.89999c-1.70001,0 -2.60007,-0.00958 -3.5,0c-0.97931,0.01044 -1.43661,0.77481 -2.2045,0.99551c-0.86069,0.24738 -1.84521,-0.07492 -2.60001,0.36166c-0.63293,0.36612 -1.53687,1.01633 -2.21149,1.44284c-0.74567,0.47144 -1.42593,1.2691 -1.98401,1.67917c-0.82791,0.60834 -1.8118,0.71371 -2.21466,1.32214c-0.54388,0.82144 -1.06729,1.46313 -1.452,2.19867c-0.35947,0.68735 -1.07745,1.46182 -1.39734,2.17468c-0.41074,0.91534 -0.436,1.82532 -0.436,2.62534c0,0.836 0,1.85266 0,2.54733c0,1.01666 0,1.95267 0,2.85266c0,0.89999 0,1.79999 0,2.60001c0,0.89999 0,1.79999 0,2.69998c0,0.89999 -0.01077,1.80457 0,2.66669c0.01044,0.8335 0.26132,1.79169 0.57468,2.45865c0.39291,0.83633 0.37195,1.76486 0.77798,2.61749c0.38562,0.80972 0.61942,1.55762 0.64734,2.45718c0.0293,0.94412 0.703,1.35532 1.5,1.79999c0.79849,0.4455 1.76053,0.32938 2.60016,0.7215c0.73886,0.34503 1.36166,1.02261 2.07449,1.3425c0.91534,0.41077 1.86359,0.26245 2.62534,0.52133c0.88794,0.30176 1.62787,0.83292 2.52133,1.13602c0.69476,0.23569 1.65063,0.71646 2.47736,0.77734c0.83505,0.06152 1.854,0.00131 2.54865,0.00131c1.01669,0 2.00607,0.13867 2.75284,-0.2215c0.7345,-0.35425 1.39264,-0.96368 2.07449,-1.37851c0.9527,-0.57959 1.52197,-1.09885 2.22534,-1.79999c0.60095,-0.59906 1.03009,-1.28027 1.60001,-2.07916c0.47507,-0.66595 0.84433,-1.25507 1.08401,-2.03818c0.30914,-1.01013 1.13477,-1.49344 1.55881,-2.18265c0.50537,-0.82141 0.35718,-1.80002 0.35718,-2.71066c0,-0.91068 -0.08597,-1.76807 0.00134,-2.70401c0.08365,-0.89676 0.75983,-1.423 0.97781,-2.38535c0.19888,-0.87799 0.02084,-1.79999 0.02084,-2.69998c0,-0.90018 0,-1.68533 0,-2.62534c0,-0.69067 0.0054,-1.76404 0,-2.67468c-0.00534,-0.90005 -0.40887,-1.62729 -0.83334,-2.5c-0.32083,-0.65967 -0.72565,-1.49457 -1.26666,-2.32132c-0.43137,-0.65918 -0.83417,-1.57114 -1.42084,-2.15784c-0.58667,-0.58667 -1.31204,-0.92682 -2.08047,-1.32083c-0.99023,-0.50775 -1.59085,-0.75748 -2.51334,-1.39868c-0.6004,-0.41733 -1.48535,-0.79065 -2.38535,-0.82214l-0.79999,-0.33185l-0.80002,-0.52582" id="svg_8" stroke-width="2" stroke="#000" fill="none"/>
  <path t="37585,37817,37818,37828,37829,37852,37864,37889,37914,37914,37938,37975,37989,38012,38036,38061,38061,38085,38085,38091,38103,38122,38122,38146,38172,38172,38183,38209,38232,38257,38257,38269,38270,38282,38296,38313,38314,38317,38318,38330,38367,38405,38416,38453,38490,38490,38639,38676,38736,38760,38872,39363,39425,39438,39473,39535,39536,39550,39567,39572,39572,39582,39595,39611,39621,39632,39668,39705,39718,39856,39873,39873,39889,39892,40309,40309,40332,40345,40604,40622,40644,40688,40738,40762,40786,40811,40811,40828,40847,40873,40897,40910,40927,40946,41033,41069,41081,41291,41488,41507,41536,41572,41659,41673,41673,41708,41733,41770,41770,41781,41797,41813,41830,41856,41880,41895,41953,41965,41977,42002,42088,42102,42187,42187,42297,42312" d="m292.5,335.89999c0.01068,1.836 0.02966,2.61801 0.35266,3.59552c0.25204,0.76276 0.62933,1.76791 0.64734,2.60449c0.01938,0.89978 0,1.79999 0,2.60001c0,0.89999 -0.00534,1.80002 0,2.69998c0.00534,0.90005 0.49771,1.72003 0.83334,2.5c0.30609,0.71127 0.16666,1.65268 0.16666,2.51602c0,0.96317 0,1.89465 0,2.80533c0,0.85333 0,1.79333 0,2.67865c0,0.80002 0.3707,1.42892 0.87851,2.2215c0.47845,0.74673 0.12149,1.7785 0.12149,2.53568c0,0.89551 -0.17239,1.7782 0.02084,2.72202c0.17844,0.87146 0.8656,1.67917 0.94315,2.34616c0.11649,1.00189 0.03601,1.87015 0.03601,2.77466c0,0.89999 0,1.79999 0,2.70001c0,0.89999 -0.14655,1.83405 0.08533,2.5c0.30835,0.88565 0.89667,1.59943 0.91467,2.5c0.01801,0.89981 0.01956,1.8002 0,2.69998c-0.01044,0.47952 -0.48849,-0.19061 -1.08401,-0.716c-0.7655,-0.67535 -1.59732,-0.7207 -2.39514,-1.284c-0.66824,-0.4718 -1.22925,-0.97021 -2.03818,-0.99866c-1.07132,-0.03766 -2.03464,0.28778 -2.87201,-0.01199c-0.73676,-0.26373 -1.24176,-0.81796 -2.11066,-1.01016c-0.84329,-0.18655 -1.10712,-1.26907 -1.7215,-1.85785c-0.68088,-0.65247 -1.54044,-0.7695 -2.16785,-1.52133c-0.54718,-0.65567 -0.61066,-1.60001 -0.61066,-2.39999c0,-0.89999 0.0054,-1.80005 0,-2.70001c-0.00534,-0.88937 -0.71698,-1.37708 -0.98932,-2.11066c-0.30972,-0.83426 -0.59982,-1.70724 -0.88919,-2.48935c-0.31512,-0.85175 -0.10349,-1.70016 -0.12149,-2.59998c-0.01801,-0.90057 -0.61813,-1.61035 -0.91467,-2.5c-0.28589,-0.85767 0.23645,-1.9379 -0.25198,-2.63333c-0.50232,-0.71521 -0.72256,-1.27353 -0.83334,-2.16669c-0.11151,-0.89923 -1.10944,-1.49557 -0.564,-1.97467c0.70853,-0.62234 1.82336,-0.50195 2.39734,-1.19199c0.54346,-0.65335 0.17685,-1.68805 0.77731,-2.43335c0.52704,-0.65417 1.30145,-1.38632 1.38486,-2.09998c0.10446,-0.89395 0.1673,-1.73807 0.65182,-2.35269c0.51199,-0.64944 0.40714,-1.6488 0.85266,-2.44733c0.44467,-0.797 0.90002,-1.21747 1.7955,-1.50449c0.76086,-0.24387 1.24222,-0.83185 2.10449,-1.00616c0.9437,-0.1908 1.60001,-0.82266 2.39999,-1.07333l0.70001,-0.41602l0.89999,-0.47467" id="svg_11" stroke-width="2" stroke="#000" fill="none"/>
  <path t="45356,45711,45735,45735,45748,45760,45784,45834,45858,45883,45920,45920,45944,45960,45980,46006,46006,46018,46030,46056,46079,46079,46105,46105,46117,46117,46129,46144,46165,46178,46202,46215,46227,46245,46264,46289,46289,46301,46313,46327,46424,46460,46460,46547,46547,46569,46575,46575,46596,46633,46658,46659,46694,46713,46713,46756,46830,46854,46878,46941,46984,46990,47014,47038,47069,47088,47088,47112,47136,47137,47160,47160,47185,47198,47222,47258,47283,47321,47333,47333,47351,47371,47382,47382,47398,47398,47414,47414,47419,47419,47431,47456,47467,47467,47492,47504,47517,47517,47530,47546,47546,47565,47565,47579,47603,47615,47615,47631,47631,47647,47647,47647,47652,47664,47680,47713,47728,47774,47787,47787,47799,47799,47811,47811,47828,47828,47885,47898,47911,47927,47984,48021,48022,48046,48063,48063,48071,48106,48157,48170,48171,48186,48205,48216,48217,48241,48255,48278,48296,48315,48340,48364,48365,48377,48394,48394,48401,48414,48435,48450,48475,48499,48499,48511,48549,48563,48585,48609,48627,48635,48646,48661,48679,48684,48684,48696,48696,48713,48732,48744,48769,48793,48819,48830,48855,48856,48868,48879,48879,48894,48894,48916,48978,48992,48993,49003,49015,49028,49044,49113,49137" d="m325.5,395.89999c0.97916,-1.02081 1,-1.97849 1,-2.79865c0,-0.90134 0.24203,-1.64969 0.716,-2.28534c0.57327,-0.76883 0.62677,-1.52884 1.16266,-2.13751c0.62305,-0.70767 0.94916,-1.21811 1.68533,-1.80383c0.67654,-0.53827 1.22012,-0.9682 2.08868,-1.33182c0.7164,-0.29993 1.53186,-1.03168 2.34732,-1.47617c0.78809,-0.42957 1.1633,-1.16904 1.61066,-1.80267c0.48572,-0.68793 0.84125,-1.39517 1.48917,-2.3425c0.43311,-0.63324 0.69614,-1.51669 1.18552,-2.22018c0.54581,-0.78461 1.2691,-1.21893 1.93616,-1.67981c0.72952,-0.50406 1.44876,-0.6683 2.13568,-1.06436c0.81851,-0.47192 1.68964,-0.36401 2.44281,-0.77316c0.79752,-0.43323 1.30515,-0.96149 2.00134,-1.36798c0.82617,-0.48239 1.5397,-1.18756 1.99866,-1.80133c0.547,-0.73151 0.82312,-1.46866 1.17468,-2.47867c0.29303,-0.84186 0.85938,-1.40753 1.02084,-2.336c0.16052,-0.92303 0.3063,-1.77676 0.57916,-2.47467c0.36398,-0.93097 0.25177,-1.86359 0.51065,-2.62534c0.30176,-0.88794 0.92224,-1.55984 1.48935,-2.22534c0.50879,-0.59708 1.25867,-1.14133 1.42532,-1.97467c0.16666,-0.83331 0.73871,-1.44519 1.35718,-1.94733c0.70459,-0.57205 1.63086,-0.95114 2.34283,-1.04816c0.92828,-0.1265 1.80453,-0.24945 2.47464,-0.61517c0.97324,-0.53119 1.47397,-1.19684 2.42535,-1.37866c0.88406,-0.16898 1.79999,-0.01068 2.69998,-0.01068c0.90002,0 1.80002,0 2.70001,0c0.79999,0 1.43784,0.24539 2.16666,0.83334c0.69858,0.56354 1.43546,0.84216 2.31866,1.08267c0.70776,0.19272 1.73816,0.25 2.49384,0.60483c0.88654,0.41626 1.59103,1.08331 2.42084,1.45383c0.7825,0.3494 1.1391,1.21402 1.68402,1.73999c0.69028,0.66629 1.66116,0.49295 2.08264,1.28534c0.34073,0.64063 0.7963,1.41071 0.8335,2.32135c0.03488,0.85336 0.36688,1.74747 0.71585,2.47733c0.36523,0.76382 0.24994,1.73886 0.56799,2.68668c0.2486,0.74078 0.63635,1.71051 0.69516,2.51465c0.07294,0.99756 0.02084,1.78934 0.02084,2.51468c0,0.96451 0,1.88531 0,2.78534c0,0.89999 -0.19781,1.8985 0.284,2.61731c0.44183,0.65921 0.71066,1.30399 0.716,2.28268c0.00436,0.79999 0,1.79999 0,2.58932c0,1.04401 0,1.80002 0,2.71066c0,0.89999 0.00006,1.80002 0,2.70001c-0.00009,0.89999 -0.12466,1.83347 -0.61066,2.39999c-0.63754,0.74326 -1.48172,1.33786 -2.18933,1.39868c-0.89673,0.07709 -1.80002,0.00131 -2.72086,0.00131c-0.96317,0 -1.65381,0 -2.72198,0c-0.85718,0 -1.75717,0 -2.55716,0c-0.90002,0 -1.80002,0 -2.70001,0c-0.89999,0 -1.79999,0 -2.70001,0c-0.90015,0 -1.68533,0 -2.62534,0c-1.008,0 -1.76398,0 -2.67465,0c-0.89999,0 -1.79999,0 -2.70001,0c-0.89999,0 -1.79999,0 -2.59998,0c-0.90002,0 -1.90259,0.39822 -2.76401,-0.03598c-0.69891,-0.35229 -1.23734,-0.96335 -2.13602,-0.96402c-0.89999,-0.00067 -1.79999,0 -2.69998,0c-0.90451,0 -1.76666,0 -2.60001,0c-0.97849,0 -1.79868,0 -2.70001,0c-0.89999,0 -1.79999,0 -2.69998,0c-0.89999,0 -1.80002,0 -2.70001,0c-0.89999,0 -1.67746,0.12717 -2.42084,0.5c-0.93784,0.47034 -1.702,0.39008 -2.59381,0.784c-0.74005,0.32687 -1.59705,0.59918 -2.52133,0.75201c-0.8717,0.14413 -1.55328,0.50089 -2.47736,0.88c-0.81689,0.33514 -1.24384,1.02682 -2.18216,1.0885l-0.67917,0.43149l-0.30933,0.76401" id="svg_12" stroke-width="2" stroke="#000" fill="none"/>
  <path t="58031,58202,58202,58215,58215,58215,58229,58229,58229,58246,58246,58246,58253,58253,58253,58264,58264,58264,58279,58279,58295,58295,58301,58301,58301,58312,58313,58329,58329,58329,58346,58346,58346,58350,58350,58362,58362,58362,58378,58378,58378,58393,58394,58399,58411,58430,58436,58447,58448,58460,58460,58477,58477,58490,58491,58499,58499,58510,58510,58527,58527,58527,58534,58534,58546,58546,58561,58561,58585,58585,58602,58602,58603,58603,58609,58609,58620,58631,58631,58645,58660,58660,58660,58669,58669,58669,58669,58681,58681,58681,58693,58694,58710,58710,58710,58719,58719,58729,58730,58744,58760,58760,58767,58779,58793,58810,58816,58816,58828,58844,58845,58854,58854,58854,58866,58866,58866,58878,58879,58879,58896,58896,58897,58903,58914,58914,58929,58944" d="m297.5,344.89999c1.84668,0 2.68668,0 3.68533,0c0.83551,0 1.716,0 2.61465,0c0.90002,0 1.80002,0.00226 2.70001,0c0.89551,-0.00226 1.77585,0.03885 2.83334,-0.16666c0.72113,-0.14014 1.35913,-0.43756 2.36667,-0.93335c0.80252,-0.3949 1.39044,-0.71973 2.39999,-1.1955c0.5946,-0.28024 1.60092,-0.57733 2.39999,-0.7045c1.00119,-0.15933 1.78384,-0.4743 2.60001,-0.716c0.98416,-0.29144 1.81149,-0.28912 2.60016,-0.50531c0.83588,-0.22913 1.47522,-0.55368 2.48383,-0.69336c0.81082,-0.1123 1.63202,-0.08466 2.86334,-0.08533c0.67801,-0.00037 1.87399,0 2.67801,0c0.54932,0 1.85315,0 2.53867,0c0.83466,0 1.83148,0 2.57883,0c1.02118,0 1.95715,0.00009 2.85718,0c0.89999,-0.00009 1.76456,-0.22806 2.43597,-0.57465c0.81229,-0.41931 1.74518,-0.39102 2.61136,-0.77802c0.66928,-0.29901 1.58807,-0.62814 2.35397,-0.646c0.99841,-0.02328 1.79892,0.01965 2.79868,-0.00266c0.80057,-0.01785 1.8125,-0.18872 2.60001,-0.5195c0.61066,-0.2565 1.58014,-0.82458 2.39999,-1.12201c0.784,-0.28442 1.60001,-0.33612 2.60001,-0.35718c0.97916,-0.0206 1.86472,-0.11411 2.52084,-0.54166c0.85883,-0.55963 1.4848,-1.11053 1.97916,-1.45834c0.73245,-0.51532 1.69882,-1.2287 2.29733,-1.79865c0.61655,-0.5871 1.2207,-1.40854 1.90268,-1.84418c0.77051,-0.49219 1.84537,-0.5708 2.57199,-0.79318c0.55118,-0.1687 1.72507,-0.57312 2.62799,-0.8595c0.59811,-0.1897 1.4939,-0.45718 2.39984,-0.58298c0.8851,-0.12289 1.74335,-0.09515 2.7785,-0.12186c0.88068,-0.02274 1.77844,-0.30951 2.29633,-0.85031c0.53458,-0.55823 1.45911,-1.10919 2.22665,-1.14667c0.99301,-0.04849 1.81488,0.10562 2.64151,-0.35983c0.86548,-0.48734 1.29095,-1.38397 2.15717,-1.60684c0.87231,-0.22443 1.86008,0.07196 2.55185,-0.38867c0.69498,-0.46277 1.39999,-0.64499 2.42282,-0.64734c0.94684,-0.00217 1.66107,0.05746 2.62534,-0.16666c0.82886,-0.19263 1.44531,-0.53726 2.42133,-0.71201c0.79706,-0.1427 1.64178,-0.09625 2.65735,-0.34283c0.94138,-0.22858 1.59756,-0.59991 2.604,-0.97717c0.79071,-0.29639 1.53171,-0.60071 2.50748,-0.74417c0.96777,-0.14227 1.80984,-0.05716 2.78818,-0.05731l0.85501,-0.1665" id="svg_13" stroke-width="2" stroke="#000" fill="none"/>
  <path t="59703,59898,59898,59922,59922,59922,59935,59945,59946,59971,59983,60007,60008,60027,60027,60032,60049,60050,60065,60065,60069,60069,60069,60080,60080,60094,60110,60110,60130,60130,60144,60144,60160,60167,60179,60193,60193,60210,60210,60216,60216,60216,60228,60229,60229,60244,60244,60260,60260,60260,60260,60265,60265,60265,60277,60277,60277,60302,60302,60314,60314,60338,60338,60351,60351,60363,60364,60376,60376,60393,60393,60401,60412,60412,60427,60427,60427,60444,60444,60444,60444,60449,60450,60450,60462,60462,60476,60476,60493,60493,60498,60511,60536,60536,60547,60560,60577,60578,60585,60585,60596,60596,60596,60609,60609,60609,60627,60627,60627,60634,60634,60634,60646,60660,60661,60661,60682,60683,60695,60720,60720,60732,60733,60744,60744,60761,60761,60769,60781,60782,60793,60793,60810,60810,60818,60819,60830,60830,60843,60860,60860,60860,60868,60879,60893,60893,60953,60990,61015,61027,61028" d="m406.5,318.89999c2.60449,-0.35266 3.44434,-0.70944 4.42117,-0.87848c0.78641,-0.13608 1.57294,-0.03238 2.60815,-0.12283c0.98093,-0.08572 1.50964,-0.75415 2.47067,-0.97784c0.87711,-0.20416 1.68268,-0.33188 2.38535,-0.82217c0.7485,-0.52228 1.4303,-0.96188 2.35748,-1.14151c0.94397,-0.18289 1.72784,-0.05716 2.767,-0.05716c0.77551,0 1.82391,0.01965 2.53302,-0.00449c0.85379,-0.02905 1.85306,-0.28696 2.62115,-0.57016c0.9473,-0.34924 1.84842,-0.33441 2.59317,-0.48251c0.92908,-0.18475 1.63345,-0.64804 2.64017,-0.85883c0.72311,-0.1514 1.45755,-0.60895 2.1235,-1.08401c0.79889,-0.56992 1.44257,-1.04132 2.11514,-1.60001c0.65262,-0.54208 1.36157,-0.95172 2.36401,-1.23331c0.78595,-0.22076 1.65775,-0.35095 2.39999,-1.01868c0.65656,-0.59064 0.88525,-1.25864 2.00134,-1.89468c0.57489,-0.32761 1.77484,-0.5668 2.28265,-0.82266c0.83286,-0.41959 1.35638,-0.79407 2.3945,-1.40933c0.68103,-0.40363 1.34744,-0.73392 2.3215,-1.50531c0.62039,-0.4913 1.16553,-1.08115 1.99869,-1.62933c0.73746,-0.48523 1.61792,-0.66388 2.35397,-0.99652c0.78745,-0.35587 1.40002,-1.14124 2.24734,-1.55682c0.74957,-0.36765 1.883,-0.4216 2.47916,-0.85416c0.80167,-0.58167 1.25531,-1.19949 2.17352,-1.42651c0.84851,-0.20978 1.69443,-0.5079 2.44766,-1.1525c0.55948,-0.47879 1.43985,-0.80756 2.17166,-0.86417c0.83511,-0.06458 2.02829,-0.02811 2.63251,-0.0405c0.93182,-0.0191 1.58643,-0.04477 2.97684,-0.27951c0.72607,-0.12259 1.41507,-0.3215 2.61865,-0.54932c0.79904,-0.15125 1.67175,-0.09305 2.5,-0.1875c0.99237,-0.11316 1.52899,-0.73456 2.5,-0.95834c0.87753,-0.20224 1.71548,-0.2887 2.29999,-0.82217c0.7197,-0.65689 1.50204,-1.11566 2.40134,-1.19998c0.68616,-0.06433 1.63211,-0.46484 2.26035,-0.64603c1.20349,-0.34708 1.77393,-0.33075 2.64282,-0.34814c1.1951,-0.02393 2.08484,-0.00452 2.65952,-0.00452c1.06934,0 2.01065,0 2.68866,0c1.23001,0 2.02649,0.00177 2.77798,0c0.9595,-0.00226 1.93527,-0.16858 2.60535,-0.42532c0.76447,-0.29291 1.75833,-0.53833 2.50684,-0.57016c1.03101,-0.04385 1.99536,-0.19031 2.65717,-0.52533c0.85767,-0.43417 1.46625,-0.99277 2.20132,-1.67917c0.54645,-0.51025 1.42938,-1.14346 2.146,-1.44284c0.87277,-0.36459 1.74387,-0.59116 2.40982,-1.06168c0.71875,-0.50781 1.42902,-0.95099 2.44287,-1.17398c0.78748,-0.17319 1.79999,-0.12152 2.58929,-0.12152c1.04401,0 1.84113,0.03922 2.62134,-0.436c0.80554,-0.49066 1.4317,-0.93588 2.10535,-1.36398c0.87158,-0.55389 1.5824,-1.09109 2.48401,-1.20001c0.79871,-0.0965 1.59998,-0.57465 2.40002,-0.97467l0.79999,-0.30933l0.79999,-0.54932l0.79999,-0.16534" id="svg_14" stroke-width="2" stroke="#000" fill="none"/>
  <path t="63191,63421,63421,63435,63447,63459,63459,63477,63508,63526,63534,63545,63545,63545,63561,63561,63570,63581,63581,63595,63595,63611,63612,63619,63619,63631,63631,63645,63646,63662,63681,63694,63694,63694,63711,63717,63729,63729,63743,63743,63743,63760,63760,63760,63767,63767,63779,63779,63779,63793,63793,63814,63814,63827,63827,63845,63854,63877,63896,63903,63903,63914,63914,63929,63929,63944,63944,63944,63951,63951,63962,63962,63977,63977,63993,63993,63994,63999,63999,64012,64027,64027,64044,64044,64048,64061,64076,64077,64077,64086,64086,64086,64098,64098,64098,64110,64110,64110,64128,64128,64134,64135,64146,64146,64160,64184,64196,64211,64211,64227,64233" d="m300.5,370.89999c1.82535,-0.436 2.51031,-0.80963 3.36401,-1.38931c0.7312,-0.49649 1.76953,-0.64951 2.27881,-1.31519c0.51831,-0.67752 0.98495,-1.2887 1.75717,-1.72083c0.81958,-0.45865 1.60922,-0.90094 2.01068,-1.436c0.48596,-0.64767 1.2066,-1.44598 1.93665,-1.77701c0.97839,-0.44363 1.70786,-0.84131 2.17352,-1.36166c0.7348,-0.82108 1.49951,-0.97253 2.47916,-1c0.78909,-0.02213 1.8569,-0.12549 2.5,-0.52081c0.85608,-0.52628 1.46671,-1.0502 2.33334,-1.3125c0.83966,-0.25412 1.80652,-0.13043 2.57733,-0.60269c0.80426,-0.49274 1.38696,-1.0202 2.10532,-1.27866c1.04248,-0.37509 1.89468,-0.28534 2.80551,-0.28534c0.88916,0 1.87991,0.02921 2.69934,-0.02081c0.66638,-0.04068 1.66931,-0.24414 2.47916,-0.5c0.82278,-0.25995 1.80585,-0.69977 2.47916,-0.95834c1.0087,-0.38739 1.82028,-0.50162 2.62085,-0.5195c0.99976,-0.02231 1.80026,0.0206 2.79868,-0.00266c0.7659,-0.01785 1.66528,-0.37598 2.39999,-0.71469c0.85699,-0.39511 1.82645,-0.27209 2.60132,-0.70932c0.72626,-0.40979 1.61243,-0.48373 2.35718,-0.63184c0.92908,-0.18475 1.63223,-0.65427 2.64282,-0.85883c0.79141,-0.16019 1.80148,-0.30121 2.60001,-0.58401c0.6011,-0.21289 1.59875,-0.46735 2.39999,-0.49548c0.99939,-0.0351 1.80011,0.008 2.80017,-0.00467c0.82086,-0.01041 1.97037,-0.15088 2.74802,-0.35251c0.7948,-0.20609 1.70984,-0.53989 2.51016,-0.6265c0.93671,-0.10138 1.68524,-0.41391 2.427,-0.73685c0.89136,-0.38806 1.66046,-0.06604 2.70398,-0.31998c0.88318,-0.2149 1.57281,-0.82312 2.45233,-0.96402c0.64227,-0.10291 1.64777,-0.2713 2.47919,-0.52081c0.8851,-0.26563 1.77621,-0.58771 2.66849,-0.8685c0.57294,-0.1803 1.63873,-0.48975 2.57468,-0.57468c0.83197,-0.0755 1.84146,0.0141 2.63599,-0.09317c0.8092,-0.10925 1.61203,-0.4093 2.43335,-0.94284c0.79095,-0.51379 1.56613,-0.98132 2.46664,-1c0.89984,-0.01865 1.80002,-0.22131 2.40002,-0.64734l0.86398,-0.37799l0.48868,-0.62201" id="svg_15" stroke-width="2" stroke="#000" fill="none"/>
  <path t="64995,65169,65185,65185,65205,65210,65223,65223,65234,65235,65246,65246,65247,65253,65253,65253,65264,65265,65265,65277,65278,65278,65294,65294,65301,65313,65314,65328,65344,65345,65351,65362,65378,65378,65378,65395,65400,65400,65400,65412,65412,65412,65428,65428,65428,65445,65445,65445,65448,65448,65449,65449,65461,65461,65478,65478,65478,65486,65486,65498,65511,65526,65526,65535,65535,65548,65548,65560,65560,65576,65576,65576,65576,65584,65584,65584,65584,65596,65596,65596,65610,65610,65610,65626,65626,65633,65633,65657,65657,65683,65683,65719,65719,65731" d="m392.5,340.89999c1.75717,0 2.65268,0 3.51599,0c0.96317,0 1.81607,0.09848 2.80533,-0.2215c0.70575,-0.22827 1.46811,-0.84866 2.19952,-1.25766c0.77359,-0.43259 1.74341,-0.47009 2.53098,-0.57352c1.03177,-0.1355 1.71429,-0.40067 2.40085,-0.59467c0.95853,-0.27087 1.78558,-0.30533 2.65182,-0.40533c1.19907,-0.13843 1.80008,-0.26334 2.6235,-0.55798c0.95679,-0.34238 1.65021,-1.06207 2.57651,-1.33218c0.8295,-0.24188 1.85129,0.24026 2.52615,-0.3425c0.68375,-0.59045 0.98685,-1.39059 1.76935,-1.73999c0.8298,-0.37051 1.56253,-0.98154 2.22534,-1.37466c0.68646,-0.40714 1.51569,-1.04718 2.34131,-1.60001c0.65555,-0.43896 1.28763,-0.7182 2.25467,-1.10001c0.79819,-0.31512 1.63358,-0.58099 2.65735,-1c0.70142,-0.28708 1.36646,-0.61877 2.34283,-1c0.80853,-0.31567 1.38803,-0.50339 2.57849,-0.89999c0.89465,-0.29807 1.47079,-0.51111 2.31467,-0.71466c0.99161,-0.2392 1.89133,-0.23862 2.88535,-0.50665c0.81793,-0.22055 1.39148,-0.53506 2.39548,-0.72601c0.91293,-0.17365 1.71832,-0.57587 2.60452,-0.96866c0.76645,-0.33969 1.40231,-0.74646 2.284,-1.28268c0.66754,-0.40601 1.62881,-0.75317 2.39999,-0.79999c0.97162,-0.05896 1.6398,-0.0274 2.75882,-0.22284c0.67053,-0.1171 1.38031,-0.29047 2.10901,-0.483c1.43137,-0.37817 2.0921,-0.59204 2.72733,-0.7955c0.92114,-0.29501 1.81699,-0.61139 2.71017,-0.88931c0.85016,-0.26456 1.88873,-0.4924 2.57468,-0.58536c0.83417,-0.11304 1.85635,-0.33334 2.57883,-0.72983c0.80444,-0.44144 1.38559,-1.02304 2.31433,-1.24283c0.73444,-0.17383 1.74152,-0.33667 2.50684,-0.62732l0.952,-0.34003l0.76801,-0.08398l0.93066,-0.01199" id="svg_16" stroke-width="2" stroke="#000" fill="none"/>
  <path t="66470,66642,66655,66655,66656,66668,66683,66683,66702,66727,66727,66745,66745,66752,66752,66770,66770,66770,66780,66780,66781,66863,66863,66863,66863,66874,66874,66874,66874,66874,66874,66874,66899,66899,66899,66910,66928,66929,66936,66937,66947,66948,66960,66960,66976,66985,66985,66996,66996,67010,67010,67026,67033,67044,67082,67095,67108,67126,67132,67156,67169,67193,67211,67218,67268,67269,67292" d="m471.5,314.89999c2.52084,0 3.54266,0 4.25067,0c0.74399,0 1.99329,0.16626 2.84933,-0.22131c0.67038,-0.3035 1.43817,-0.7254 2.384,-1.06268c0.70578,-0.25168 1.62885,-0.66782 2.39999,-0.71466c0.96097,-0.05838 1.81021,-0.05215 2.80133,-0.28668c0.55554,-0.13147 1.41876,-0.42035 2.6145,-0.81448c0.59549,-0.19629 1.45413,-0.50781 2.53351,-0.73349c0.73087,-0.1528 1.57611,-0.24655 2.27731,-0.42136c0.89517,-0.22318 1.99316,-0.59534 2.60083,-0.80783c0.63107,-0.2207 1.26944,-0.45364 1.90051,-0.69748c1.20215,-0.46448 2.24127,-0.86728 3.28784,-1.42117c0.63852,-0.33795 1.5506,-0.68607 2.30148,-1.10419c0.7486,-0.41684 1.4295,-1.07367 2.20319,-1.35748c0.96796,-0.35507 1.8075,-0.24637 2.71014,-0.64117c0.62772,-0.27457 1.53568,-0.69833 2.36935,-1c0.70459,-0.25497 1.64636,-0.57632 2.39996,-0.79999c0.95392,-0.28308 1.39905,-0.84894 2.16418,-1.55884c0.56726,-0.52631 1.37439,-1.04269 2.25183,-1.30002c0.8642,-0.25345 1.63641,-0.41928 2.20001,-1.05716c0.5155,-0.58347 1.23126,-0.81503 2.09998,-1.03598c0.8623,-0.2193 1.60004,-0.87869 2.5,-0.96402l0.90002,0l0.79999,0l0.90002,-0.05716" id="svg_17" stroke-width="2" stroke="#000" fill="none"/>
  <path t="69088,69283,69284,69284,69299,69300,69317,69317,69318,69323,69323,69334,69334,69334,69343,69343,69360,69360,69368,69368,69379,69379,69393,69409,69417,69417,69428,69444,69444,69444,69444,69453,69453,69454,69465,69465,69466,69478,69478,69493,69493,69503,69503,69514,69526,69526,69544,69544,69551,69564,69576,69577,69595,69595,69595,69602,69602,69602,69612,69612,69612,69627,69627,69627,69643,69644,69650,69650,69662,69677,69677,69677,69693,69699,69711,69711,69727,69736,69736,69747,69747,69747,69760,69760,69760,69776,69777,69777,69785,69785,69786,69797,69797,69797,69812,69812,69827,69827,69833,69834,69846,69846,69859,69879,69883,69895,69896,69909,69926" d="m300.5,354.89999c2.95267,-0.00449 3.50641,0.03543 4.31601,-0.08533c1.24716,-0.18604 1.90347,-0.53983 2.85065,-0.91467c0.77689,-0.30746 1.56421,-0.5925 2.5,-0.83331c0.82721,-0.21289 1.67789,-0.48068 2.33868,-0.87653c0.75745,-0.45374 1.64383,-1.14651 2.32266,-1.64349c0.75363,-0.55173 1.46585,-0.70471 2.32468,-1.35199c0.54724,-0.41245 1.30447,-1.14264 2.146,-1.29199c0.8894,-0.15787 1.68793,-0.53772 2.30133,-1.10251c0.68539,-0.63107 1.46234,-0.88733 2.39999,-0.90018c0.86243,-0.01184 1.52438,0.021 2.53333,-0.08533c0.92868,-0.09787 1.70691,-0.34665 2.64935,-0.716c1.00299,-0.39307 1.53381,-0.61874 2.36465,-0.84149c1.02151,-0.27386 1.91086,-0.34674 2.93134,-0.35718c0.77396,-0.0079 1.69455,0.11853 2.53732,-0.08533c0.88803,-0.21481 1.69534,-0.79416 2.36935,-0.99866c0.95697,-0.29034 1.60574,-0.75134 2.59381,-0.89517c0.92203,-0.13422 1.84235,-0.02084 2.54169,-0.02084c0.97916,0 1.78983,0.00058 2.66449,0c1,-0.00067 1.83865,0.01306 2.716,-0.08533c0.90308,-0.10126 1.78424,-0.35492 2.64151,-0.56201c1.03146,-0.24918 1.72064,-0.33344 2.55582,-0.35132c1.0011,-0.02145 1.80133,-0.00134 2.80002,-0.00134c0.76532,0 1.86938,0.0863 2.76797,-0.16666c0.68118,-0.19174 1.38104,-0.45529 2.42267,-0.85867c0.84299,-0.32645 1.50403,-0.91251 2.29602,-0.97333c0.93726,-0.07199 1.9537,0.06628 2.776,-0.03732c0.89371,-0.11261 1.59442,-0.41013 2.39047,-0.61136c1.02045,-0.25797 1.94797,-0.34109 2.63217,-0.35132c1.00122,-0.01495 1.83685,-0.00134 2.71735,-0.00134c0.89865,0 1.79868,0 2.69867,0c0.89999,0 1.79364,0.0376 2.62799,-0.03598c0.94406,-0.08325 1.7049,-0.59109 2.59332,-0.8425c0.828,-0.23431 1.81006,-0.03238 2.56268,-0.20685c0.97501,-0.22601 1.6506,-0.57388 2.59515,-0.91467c0.84036,-0.30319 1.62085,-0.87848 2.52084,-1l0.79999,0l0.90002,0l0.89999,0" id="svg_18" stroke-width="2" stroke="#000" fill="none"/>
  <path t="70576,70733,70733,70733,70743,70743,70759,70759,70759,70759,70768,70768,70778,70779,70779,70792,70792,70792,70809,70809,70809,70809,70816,70816,70816,70816,70817,70829,70829,70829,70829,70829,70843,70843,70843,70859,70859,70859,70865,70865,70878,70892,70893,70915,70927,70943,70952,70952,70963,70964,70976,70977,70977,70993,70993,71000,71001,71001,71012,71013,71013,71013,71026,71027,71043,71043,71043,71050,71061,71061,71076,71077,71077,71093,71093,71099,71099,71111,71111,71127,71127,71143,71149,71149,71149,71159,71160,71160,71160,71176,71177,71185,71186,71186,71197,71211,71211,71211,71228,71234,71246,71261,71262,71276,71283,71295,71319,71319,71333,71345,71359,71359,71370,71370,71381,71381,71381,71394,71394,71410,71410,71419,71419,71430,71431,71443,71460,71467,71467,71467,71479,71504,71517,71528,71528,71542,71559,71559,71567,71578,71593,71593,71610,71614,71615,71627,71627,71642,71652,71652,71700" d="m395.5,334.89999c2.00983,-2.24283 2.52094,-2.47891 3.31732,-2.79865c0.99881,-0.40103 1.67334,-0.72375 2.84933,-1.20135c0.51343,-0.20853 1.32434,-0.51294 2.14935,-0.71466c0.99088,-0.24228 1.91653,-0.26904 2.85065,-0.452c0.7937,-0.15543 1.6171,-0.4201 2.66669,-0.83334c0.72061,-0.28372 1.38272,-0.62262 2.33331,-1c0.79221,-0.31451 1.38626,-0.52481 2.40533,-0.71466c1.16226,-0.21652 2.03778,-0.23395 2.48935,-0.26001c0.92383,-0.05331 1.85803,-0.08917 2.772,-0.19199c0.88242,-0.09927 1.72278,-0.25702 2.51999,-0.444c0.76285,-0.17892 2.16245,-0.5817 2.79999,-0.78934c0.88852,-0.2894 1.67725,-0.60675 2.61069,-0.98932c0.62964,-0.25806 1.63223,-0.55725 2.39999,-0.60001c1.07727,-0.06 1.88681,-0.31152 2.53601,-0.65802c0.84937,-0.45334 1.81305,-0.21011 2.69998,-0.36331c0.83475,-0.14417 1.46552,-0.82281 2.25717,-1.28934c0.73029,-0.43036 1.54285,-0.80002 2.34283,-1.20001c0.60001,-0.29999 1.58698,-0.84116 2.23599,-1.064c1.1601,-0.39832 2.00082,-0.40195 2.57468,-0.46133c1.19135,-0.12326 2.08917,-0.31714 2.66849,-0.49548c0.84232,-0.25934 1.8403,-0.66879 2.5,-0.97919c1.02856,-0.48395 1.79086,-0.93637 2.53552,-1.21466c0.84158,-0.31448 1.81464,-0.4892 2.50616,-0.80615c0.991,-0.45419 1.59506,-0.74313 2.32199,-1.17917c0.93295,-0.55963 1.40433,-1.06277 2.14117,-1.78268c0.51221,-0.5004 1.30707,-1.32684 2.14133,-1.496c0.8418,-0.17068 1.72198,-0.02133 2.6265,-0.02133c1.08151,0 1.76416,0.02429 2.56949,-0.03598c1.18259,-0.08853 1.78516,-0.22192 2.65784,-0.48483c0.84387,-0.25424 1.82669,-0.69977 2.5,-0.95834c1.0087,-0.38739 1.82837,-0.40985 2.53552,-0.60483c0.89581,-0.24701 1.64786,-0.92288 2.31067,-1.31601c0.68646,-0.40714 1.52893,-1.00507 2.37332,-1.51599c0.74484,-0.45071 1.42297,-0.83044 2.09601,-1.13669c0.87369,-0.39755 1.47113,-0.90872 2.20532,-1.46814c0.77582,-0.59113 1.13608,-1.25079 1.89999,-1.8685c0.74478,-0.60223 1.59915,-0.77859 2.23599,-1.22134c0.84818,-0.58966 1.55396,-1.02798 2.56403,-1.26801c0.59116,-0.14047 1.42206,-0.13458 2.39999,-0.47849c0.82275,-0.28934 1.58655,-0.77127 2.37915,-1.12201c0.98431,-0.43558 1.78613,-0.53799 2.67352,-0.8735c0.70581,-0.26685 1.59473,-0.53821 2.54865,-0.64865c0.9729,-0.11267 1.60889,-0.46301 2.31467,-0.71469c0.94583,-0.33728 1.72009,-0.74994 2.58401,-1.16266c0.85266,-0.40732 1.43933,-0.88095 2.42084,-1.10049c0.78128,-0.17477 1.64926,-0.00397 2.45831,-0.52084c0.69748,-0.44559 1.51889,-0.39236 2.36816,-0.55716c0.92575,-0.17963 1.64023,-0.85291 2.40982,-0.93832c0.89008,-0.09879 1.75885,-0.08984 2.60687,-0.44052l0.73596,-0.66382l0.60004,-0.543l0.86401,-0.38251" id="svg_19" stroke-width="2" stroke="#000" fill="none"/>
  <path t="73890,74441,74454,74454,74470,74485,74488,74525,74562,74586,74660,74686,74734,74869,74920,74993,75017,75032,75042,75042,75065,75200,75237,75252,75266,75289,75410,75431,75431,75447,75471,75546,75558,75574,75574,75593,75608,75608,75630,75754,75791,75815,75827,75865,75926,75963,76000,76062,76085,76085,76121,76159,76183,76195,76209,76231,76244,76260,76260,76274,76293,76294,76331,76430,76447,76464,76477,76578,76638,76699,76736,76772,76797,76797,76821,76846,76846,76859,76878,76879,76884,76896,76920,76982,77002,77162,77190,77226,77264,77277,77337,77337,77510,77535,77559,77575,77584,77608,77626,77780,77792,77841,77866,77890,77903,77926,78015,78031,78048,78113,78113,78131,78149,78150,78223,78249,78249,78272,78333,78345,78358,78382,78382,78406,78406,78431,78442,78468,78505" d="m513.5,282.89999c-0.16669,-1.83331 -1.03345,-2.12466 -1.60001,-2.61066c-0.74326,-0.63754 -0.87668,-1.64868 -1.56665,-2.22266c-0.65335,-0.54349 -1.51178,-0.4519 -2.11734,-1.08267c-0.54999,-0.57288 -1.23666,-1.07358 -2.116,-1.08401c-0.89993,-0.01068 -1.80862,0.12399 -2.69983,-0.00015c-0.80188,-0.11172 -1.3046,-0.84711 -2.10019,-1.28384c-0.6481,-0.35577 -1.65353,-0.75958 -1.79865,-1.51733c-0.16904,-0.8826 0.16058,-1.71545 0.71466,-2.28265c0.65802,-0.67361 1.384,-0.91602 2.284,-0.91602c0.79999,0 1.70001,0 2.60001,0c0.89999,0 1.81067,0 2.72131,0c0.85333,0 1.79333,0 2.67868,0c0.79999,0 1.81342,-0.3934 2.56403,0.03601c0.69061,0.39508 0.43597,1.564 0.43597,2.46399c0,0.89999 -0.00012,1.80002 0,2.70001c0.00012,0.89984 0.33112,1.61429 1.09998,2.02133c0.75757,0.40103 1.49994,0.77872 2.40002,0.77866c0.8894,-0.00006 1.50165,-0.61023 2.20453,-1.05267c0.66418,-0.41806 1.0592,-1.21439 1.51697,-2.04733c0.37097,-0.67502 1.16931,-1.30933 1.7785,-1.89999c0.59119,-0.57321 2.06897,-0.83868 1.95331,-1.57465c-0.12128,-0.77145 -1.55328,-0.42535 -2.45331,-0.42535c-0.90002,0 -2.07037,0.25552 -2.46399,-0.436c-0.47717,-0.83835 -0.21948,-1.94073 0.18549,-2.66382c0.41296,-0.73737 1.41504,-0.8681 2.26251,-0.90149c0.8645,-0.03406 1.67493,-0.5228 2.61597,-0.87717c0.66467,-0.25031 1.73669,0.31351 2.54285,-0.17868c0.7384,-0.45078 0.79077,-1.61823 1.65717,-1.88568c0.86035,-0.26559 1.67139,0.29871 1.70001,1.24286c0.02728,0.89957 0,1.79999 0,2.69998c0,0.80002 -0.00293,1.81567 0.80133,1.99869c0.87628,0.1994 1.79865,0.00131 2.69867,0.00131c0.90002,0 1.82239,0.19809 2.69867,-0.00131c0.80426,-0.18301 0.95197,-1.2114 0.80115,-2.09851c-0.14471,-0.8511 -1.30457,-0.71426 -1.91583,-1.18417c-0.68036,-0.52301 -1.07355,-1.23663 -1.08398,-2.12665c-0.01062,-0.91061 0,-1.76401 0,-2.70401c0,-0.88535 -0.09827,-1.86295 0.64667,-2.44934c0.71332,-0.56149 1.52795,-0.43066 2.59619,-0.436c0.85712,-0.00427 2.03107,-0.45325 2.63562,0.2215c0.59198,0.66064 0.12152,1.66385 0.12152,2.60385c0,0.69067 0,1.76401 0,2.67465l0,0.89999l0,0.90002" id="svg_20" stroke-width="2" stroke="#000" fill="none"/>
  <path t="80022,80264,80264,80386,80484,80509,80546,80546,80581,80630,80692,80729,80764,80815,80832,80851,80887,80888,80901,80926,80953,80971,80986,80998,81010,81184,81270,81306,81320,81333,81379,81441,81490,81509,81526,81588,81662,81687,81724,81773,81835,81859,81871,81906,81906,81931,81956,81980,82044,82065,82227,82249,82313,82338,82366,82384,82389,82405,82473,82510,82532,82533,82619,82644,82659,82680,82718,82742,82779,82827,82888,83050,83087,83112,83112,83135,83184,83184,83258,83306,83354,83355,83373,83381,83381,83392,83454,83504,83505,83532,83601,83688,83712,83749,83872,83884,83908,83924,83933,83945" d="m519.5,298.89999c1,1.16669 1.75684,1.54407 1.97919,2.5c0.18134,0.77939 -0.14734,1.86264 -0.97919,2.33334c-0.63843,0.36124 -1.52802,0.62018 -2.29547,1.11398c-0.69641,0.44809 -0.70453,1.35269 -0.70453,2.25269c0,0.89999 -0.43427,2.03241 0.16669,2.63333c0.60089,0.60089 1.6333,0.16666 2.53333,0.16666c0.89996,0 1.8797,0.36673 2.77917,-0.02081c0.71436,-0.30777 1.20953,-1.07785 1.6048,-1.78052c0.45959,-0.81696 0.89868,-1.59811 0.91602,-2.49866c0.01727,-0.89853 -0.61023,-1.4379 -0.96399,-2.13602c-0.39087,-0.77133 -0.17334,-1.84512 0.31665,-2.51132c0.50323,-0.68423 0.39734,-2.03662 1.14734,-2.01099c0.82709,0.02826 0.49457,1.55835 0.5,2.45831c0.00537,0.8894 0.55078,1.44019 1.29999,1.85266c0.83862,0.4617 1.5,0.64667 2.40002,0.64734c0.89996,0.00064 1.79999,0.00485 2.70001,0c0.98938,-0.00534 1.58954,-0.52063 1.59998,-1.39999c0.01062,-0.89993 0.12408,-1.80862 -0.00018,-2.69983c-0.11182,-0.80173 -1.23285,-0.65485 -1.91583,-1.18417c-0.6297,-0.48798 -1.47858,-0.86688 -1.9173,-1.716c-0.32983,-0.63834 -0.60791,-1.72565 -0.13068,-2.564c0.39362,-0.6915 1.56396,-0.4306 2.46399,-0.436c0.8894,-0.00534 1.3739,-0.72559 2.11066,-0.98932c0.83734,-0.29977 2.03772,-0.1904 2.36853,0.53101c0.39288,0.85675 0.02081,1.633 0.02081,2.70566c0,0.91934 -0.09387,1.75717 0.00018,2.73099c0.08374,0.86703 1.03906,1.19809 1.7998,0.93634c0.77954,-0.26822 1.32416,-1.21771 2,-1.62933c0.84247,-0.51309 1.42957,-0.99161 2.20001,-1.452c0.71948,-0.42993 0.98956,-1.33316 1,-2.23334c0.01038,-0.89993 0.32495,-2.07907 -0.35718,-2.54285c-0.69757,-0.47424 -1.58563,-0.41431 -1.64282,-1.35715l0,-0.89999l0,-0.90002l0,-0.89999" id="svg_21" stroke-width="2" stroke="#000" fill="none"/>
  <path t="84622,84842,84860,84860,84866,84928,84977,85038,85063,85124,85186,85248,85273,85273,85285,85321,85383,85394,85394,85409,85410,85444,85444,85505,85517,85529,85566,85616,85627,85641,85658,85658,85665,85677,85691,85707,85714,85800,85825,85849,85886,85898,85922,85941,85959,85996,86046,86046,86069,86132,86144,86144,86157,86157,86181,86181,86205" d="m543.5,286.89999c1.82532,0 2.83331,0 3.6955,0c0.90448,0 1.8045,0 2.70453,0c0.89996,0 1.79999,0 2.69995,0c0.90002,0 1.81628,-0.1543 1.90002,-1c0.07886,-0.79608 0,-1.69998 0,-2.60001c0,-0.92081 0,-1.88531 0,-2.61066c0,-0.98917 0,-1.76849 0,-2.76782c0,-0.82016 0.42316,-1.85101 -0.05719,-2.66434c-0.38965,-0.6597 -1.61688,-0.79123 -1.88562,-1.65717c-0.26691,-0.86014 -0.63092,-1.50714 -0.97186,-2.26935c-0.32123,-0.71808 0.09564,-1.81479 -0.08667,-2.62933c-0.1806,-0.80704 -1.07623,-1.22742 -1.5733,-1.82666c-0.51013,-0.61496 -0.5874,-1.49139 -1.14136,-2.05865c-0.65796,-0.67374 -1.02185,-1.52621 -1.71997,-1.88c-0.77136,-0.39093 -1.76404,-0.03601 -2.664,-0.03601c-0.90002,0 -1.85175,-0.0856 -2.46405,0.61069c-0.59381,0.67526 -0.66425,1.70786 -0.93597,2.38931c-0.38867,0.97473 -0.55267,1.75269 -0.85266,2.65268l-0.29468,0.69467l-0.29547,0.89548" id="svg_22" stroke-width="2" stroke="#000" fill="none"/>
  <path t="88123,88307,88307,88320,88321,88333,88334,88334,88351,88351,88355,88367,88379,88391,88391,88411,88411,88417,88429,88429,88465,88478,88492,88510,88510,88515,88528,88528,88541,88541,88559,88559,88563,88588,88588,88589,88613,88613" d="m518.5,286.89999c2.59998,-0.35266 3.38501,-0.71115 4.40002,-0.91599c0.79144,-0.15973 1.80145,-0.30118 2.59998,-0.58401c0.60107,-0.21289 1.65894,-0.22632 2.42932,-0.58398c0.88177,-0.40939 1.7453,-0.61737 2.40137,-1.20135c0.67499,-0.60077 0.89203,-1.45001 1.11664,-2.36731c0.20789,-0.849 0.45679,-1.74139 1.15265,-2.44717c0.479,-0.48581 1.3999,-0.88751 2.30005,-0.90018c0.8999,-0.01266 1.64154,-0.31653 2.39996,-0.716c0.7887,-0.41541 1.69159,-0.55573 2.41071,-0.89465c0.99817,-0.47046 1.54767,-0.85995 2.62262,-1.22266c0.73914,-0.24939 1.54639,-0.64673 2.33337,-1.16669c0.646,-0.42685 1.43463,-0.71466 2.42883,-0.94284l0.74731,-0.05264" id="svg_23" stroke-width="2" stroke="#000" fill="none"/>
  <path t="89844,90025,90041,90050,90050,90050,90062,90062,90062,90076,90076,90076,90094,90094,90100,90100,90124,90124,90148,90161,90186,90199,90210,90227,90235,90259,90259,90259,90275,90275" d="m520.5,294.89999c1.70001,-1.05267 2.49493,-1.55835 3.32166,-2.10016c0.51013,-0.33435 1.36829,-0.77963 2.09967,-1.22101c0.80768,-0.48743 1.31055,-0.91385 2.41199,-1.34549c0.90277,-0.35376 1.58594,-0.2973 2.56537,-0.61868c0.79016,-0.25928 1.56781,-0.83078 2.22662,-1.31467c0.84369,-0.61966 1.51172,-1.08929 2.48938,-1.31467c0.8667,-0.1998 1.43286,-0.53146 2.17065,-1c0.69147,-0.43912 1.86908,0.23779 2.59351,-0.30682c0.72052,-0.54169 0.99316,-1.16782 1.72382,-1.49316l0.99286,-0.22818l0.91913,-0.05582" id="svg_24" stroke-width="2" stroke="#000" fill="none"/>
  <path t="106489,106660,106680,106697,106714,106714,106714,106723,106724,106740,106745,106757,106782,106818,106846,106846,106862,106882,106886,106895,106907,106923,106929,106929,106941,106941,106957,106957,106972,106978,106978,106978,107003,107003,107028,107052,107052,107066,107076,107089,107106,107113,107126,107126,107126,107139,107156,107156,107162,107163,107163,107175,107189,107200,107224,107224,107248,107248,107273,107289,107298,107298,107310,107322,107340,107340,107347,107359,107372,107372,107395,107408,107408,107422,107422,107439,107446,107469,107483,107507,107507,107529,107533,107534,107546,107567,107567,107580,107581,107591,107592,107606,107622,107623,107629,107641,107641,107666,107690" d="m265.5,288.89999c-1.70001,0 -2.60547,-0.08255 -3.54166,0.02084c-1.01474,0.11206 -1.72089,0.38434 -2.453,0.68365c-0.87808,0.35901 -1.51987,1.05093 -2.50534,1.27469c-0.8779,0.19931 -1.8,0.02081 -2.7,0.02081c-0.90001,0 -1.8,0 -2.60001,0c-0.89999,0 -1.6008,0.20023 -2.284,0.716c-0.61536,0.46457 -1.62746,0.16962 -2.552,0.32001c-0.87332,0.14206 -1.55249,0.6235 -2.56383,0.8425c-0.76802,0.16629 -1.77884,0.10458 -2.59883,0.12149c-0.87389,0.01801 -1.74477,0.21872 -2.45201,0.42535c-0.98239,0.28702 -1.938,0.54099 -2.63199,0.57333c-0.94173,0.04391 -2.08969,-0.00281 -2.67067,0.612c-0.60808,0.64349 -0.96732,1.37891 -1.84666,1.38931c-0.89995,0.01065 -1.82513,-0.10294 -2.76668,0.16669c-0.6841,0.19589 -1.32388,0.67365 -2.20799,1.22266c-0.77135,0.479 -1.646,0.60025 -2.62534,0.61066c-0.78929,0.00839 -1.51474,-0.0123 -2.58934,0c-0.91084,0.01044 -1.7245,0.34244 -2.41066,1c-0.51053,0.48926 -1.20454,1.1955 -1.8,1.80002c-0.68443,0.69482 -0.96375,1.46704 -1.42149,2.29999c-0.37097,0.67505 -1.27808,1.23465 -1.65717,2c-0.41942,0.84677 -0.76596,1.6012 -1.12134,2.39999c-0.35446,0.79672 -1.13504,1.28406 -1.8,1.58401c-0.90067,0.40628 -1.5229,1.01334 -2.2,1.41599c-0.83528,0.49673 -1.64328,0.97263 -2.38933,1.47467c-0.6683,0.44974 -1.28618,0.94479 -2.01067,1.46133c-0.78561,0.56012 -1.24585,1.12128 -1.89551,1.86401c-0.58118,0.66443 -0.57854,1.51587 -0.76166,2.45715c-0.18034,0.92703 -0.63292,1.59964 -1.14151,2.35883c-0.43207,0.64496 -0.77148,1.53534 -0.8,2.40002c-0.03242,0.98346 0.00012,1.96799 -0.00133,2.65866c-0.00226,1.06815 -0.22133,1.92532 -0.64734,2.52533l-0.342,0.89999l-0.01067,0.89999" id="svg_25" stroke-width="2" stroke="#000" fill="none"/>
  <path t="108419,108613,108625,108646,108651,108661,108661,108672,108673,108673,108690,108690,108698,108698,108723,108723,108748,108764,108765,108779,108790,108797,108809,108822,108822,108839,108845,108857,108873,108873,108882,108882,108894,108894,108906,108922,108933,108955,108973,108980,109005,109023,109023,109030,109030,109042,109056,109056,109067,109067,109078,109078,109078,109091,109091,109106,109116,109116,109140,109156,109156,109164,109165,109177,109189,109189,109205,109205,109205,109213,109213,109214,109228,109229,109229,109229,109241,109241,109255,109256,109263,109263" d="m199.5,330.89999c-0.98933,2.58936 -1,3.5 -1,4.39999c0,0.90451 0,1.76669 0,2.62085c0,0.97916 0,1.77917 0,2.57916c0,1 0,1.79999 0,2.79868c0,0.76532 0.00435,1.71732 0,2.48532c-0.00534,0.94138 -0.18459,1.93994 -0.57466,2.70535c-0.40833,0.80124 -0.42534,1.71066 -0.42534,2.61066c0,0.89999 0,1.79999 0,2.60001c0,0.89999 0,1.79999 0,2.61066c0,0.91083 0,1.79999 0,2.78915c0,0.77936 0,1.77869 0,2.59885c0,0.90134 0,1.80133 0,2.70132c0,0.89999 0,1.80002 0,2.70001c0,0.89999 0,1.79999 0,2.55716c0,0.89551 0,1.75885 0,2.74283c0,0.8215 -0.0127,1.71075 0.00017,2.70001c0.01041,0.8002 0.14989,1.80554 0.42517,2.60001c0.20946,0.60446 0.44354,1.6069 0.59999,2.36398c0.19939,0.96487 0.87314,1.82404 0.97017,2.53601c0.12651,0.92831 0.24908,1.80472 0.61517,2.47467c0.532,0.9736 1.0882,1.52194 1.78932,2.22531c0.59904,0.60095 1.23543,1.21155 1.70018,1.92169c0.45663,0.69775 0.7834,1.36603 1.38249,2.36365c0.33104,0.55124 0.87724,1.39297 1.18401,2.31467c0.29147,0.87573 0.32138,1.76794 0.416,2.31467c0.21463,1.24005 0.528,1.87466 1.01717,2.88516l0.28949,0.58951l0.444,1.04401l0.15601,0.75601" id="svg_26" stroke-width="2" stroke="#000" fill="none"/>
  <path t="110101,110283,110296,110307,110326,110332,110333,110344,110356,110356,110374,110393,110406,110406,110422,110422,110430,110431,110443,110456,110456,110473,110479,110504,110522,110540,110540,110565,110577,110602,110615,110627,110645,110664,110680,110693,110712,110725,110742,110762,110763,110775,110791,110811,110811,110835,110849,110860,110873,110891,110909,110924,110925,110942,110958,110983,110983,111007,111007,111033,111033,111044,111056,111056,111072" d="m208.5,402.89999c0,1.70001 -0.00241,2.61987 0.42534,3.39999c0.45122,0.82291 0.87968,1.64862 1.222,2.30002c0.46358,0.88214 0.12415,1.83282 0.40982,2.59015c0.32179,0.85309 1.39531,1.11584 1.94284,1.87653c0.44487,0.61804 0.96941,1.56296 1.636,1.84799c0.81807,0.34982 1.70927,0.63885 2.60683,0.93265c0.85526,0.27994 1.58134,0.49316 2.32117,1.078c0.67822,0.53613 1.04831,1.33136 1.72134,1.89069c0.66916,0.55609 1.48676,0.72375 2.10399,1.48398c0.60303,0.74271 0.94193,1.45749 1.58534,2.02536c0.59439,0.5246 1.53627,0.80484 1.90382,1.67465c0.3535,0.83655 0.40675,1.5784 1.03751,2.18399c0.57286,0.54999 1.02847,1.36493 1.79384,1.66333c0.76303,0.29749 1.60394,0.5759 2.49016,0.96869c0.76645,0.33969 1.45372,0.87897 2.3,1.06317c0.86952,0.18924 1.44119,0.78024 2.2045,1.01633c0.8564,0.26489 1.65477,0.5444 2.46217,0.83783c0.77953,0.28329 1.57198,0.6994 2.28,1.14133c0.77098,0.4812 1.57867,0.50455 2.38666,1.02533c0.69009,0.44479 1.483,0.92834 2.34134,0.98935c0.93771,0.06665 1.82533,0.17734 2.52533,0.65799l0.8,0.33185" id="svg_27" stroke-width="2" stroke="#000" fill="none"/>
  <path t="111880,112076,112088,112088,112105,112113,112150,112186,112187,112236,112260,112285,112285,112298,112310,112321,112346,112371,112371,112389,112408,112408,112425,112445,112469,112494,112507,112531,112543,112543,112558,112558,112574,112575,112580,112580,112592,112592,112606,112622,112641,112657,112673,112673,112679,112690,112690,112707,112707,112716,112717,112726,112727,112727,112739,112739,112757,112757,112757,112766,112766" d="m250.5,435.89999c2.62534,0 3.48399,0 4.34734,0c0.89549,0 1.85268,0 2.75267,0c0.89999,0 1.8364,-0.40274 2.61465,0.08533c0.74042,0.46436 1.28534,0.91467 2.08533,0.91467c0.90002,0 1.80002,0 2.70001,0c0.91068,0 1.82132,0 2.67465,0c0.94,0 1.82535,0 2.62534,0c0.90002,0 1.80002,0 2.70001,0c0.89999,0 1.79999,0 2.70001,0c0.90033,0 1.77078,0.01343 2.56799,-0.00131c0.98178,-0.01816 1.90427,-0.15198 2.71115,-0.49869c0.8483,-0.3645 1.52069,-0.48956 2.63684,-0.5c0.76797,-0.00717 1.80994,0.28229 2.55066,-0.16666c0.77182,-0.4678 1.43463,-0.78555 2.33334,-0.83334c0.80338,-0.04272 1.47641,-0.62366 2.48401,-0.91599c0.67157,-0.19482 1.63199,-0.36935 2.26865,-0.78851c0.90451,-0.59549 1.45694,-0.89764 2.44736,-1.39551c0.79913,-0.4017 1.39999,-0.69998 2.39999,-1.19998c0.60001,-0.30002 1.60001,-0.79984 2.39999,-1.17917l0.60001,-0.2355l1,-0.23715l0.79999,-0.15802" id="svg_28" stroke-width="2" stroke="#000" fill="none"/>
  <path t="113467,113724,113724,113734,113748,113772,113772,113797,113812,113812,113823,113846,113857,113857,113872,113882,113919,113943,113944,113969,113983,113983,113998,114013,114023,114029,114105,114105,114117,114145,114164,114215" d="m306.5,426.89999c1,-1.16666 1.58722,-1.60129 2.39999,-1.97467c0.88702,-0.4075 1.63824,-0.75925 2.39999,-1.10931c0.74976,-0.34454 1.39551,-1.12054 2,-1.716c0.69485,-0.68445 1.47858,-0.94345 2.29984,-1.42151c0.62808,-0.3656 1.02942,-1.22757 1.61618,-1.86249c0.63922,-0.69168 1.31668,-1.0416 1.884,-1.52667c0.7467,-0.63843 1.32843,-1.47681 2,-1.95334c0.72568,-0.51489 1.48407,-0.85052 2.04733,-1.48868c0.52554,-0.5954 1.3891,-0.77917 2.15265,-1.03265c0.77219,-0.25635 1.5,-0.85751 2.40002,-0.91467l0.89981,-0.00015" id="svg_29" stroke-width="2" stroke="#000" fill="none"/>
  <path t="114773,114965,114996,114996,115013,115013,115025,115038,115061,115112,115122,115147,115172,115172,115197,115208,115223,115238,115238,115238,115246,115258,115258,115282,115307,115321,115344,115356,115394,115432,115456,115479,115488,115507,115523,115528,115528,115540,115565,115565,115578,115589,115627" d="m329.5,410.89999c1.22168,-0.87848 2.16666,-1 2.82535,-1c1.008,0 1.87015,0 2.77466,0c0.89999,0 1.79999,0 2.69998,0c0.90002,0 1.80002,0 2.70001,0c0.79999,0 1.70001,0 2.60001,0c0.94165,0 1.73334,0 2.65067,0c0.74399,0 1.77866,0 2.74933,0c0.79999,0 1.70007,-0.01068 2.60001,0c0.87933,0.01044 1.39429,0.81812 2.20132,0.99869c0.87698,0.19623 1.63672,0.16409 2.25134,0.64865c0.64944,0.51202 1.6474,0.34247 2.54733,0.35266c0.92102,0.01044 1.71591,0.23468 2.57465,0.57468c0.79901,0.31635 1.82535,0.42532 2.62534,0.42532l0.90002,0l0.89999,0l0.89999,0" id="svg_30" stroke-width="2" stroke="#000" fill="none"/>
  <path t="116437,116609,116609,116621,116621,116637,116647,116658,116683,116708,116733,116733,116744,116768,116782,116794,116805,116821,116830,116855,116855,116880,116891,116892,116917,116953,116954,116971,117028,117044,117044,117066,117078,117101,117113,117139,117152,117167,117200,117212,117236,117249,117249,117273,117290,117298,117309,117334,117359,117396,117408,117446,117458,117473" d="m367.5,412.89999c1.836,0 2.60132,0 3.59549,0c0.91919,0 1.88367,0 2.8045,0c0.89999,0 1.80002,0 2.70001,0c0.89999,0 1.69998,0 2.60001,0c0.89999,0 1.79999,0 2.69998,0c0.89999,0 1.8038,0.08212 2.70001,-0.00015c0.91144,-0.08368 1.46039,-0.65347 2.19998,-1.29535c0.66669,-0.57861 1.55048,-0.71643 2.20001,-1.22531c0.767,-0.60092 1.15179,-1.30536 1.55267,-2.17917c0.33279,-0.7254 0.96875,-1.50195 1.64734,-1.94284c0.79233,-0.51477 1.61121,-0.74503 2.13333,-1.52383c0.47324,-0.7059 0.3819,-1.77243 1.26666,-1.83334c0.89786,-0.0618 1.45444,-0.4176 2.12149,-0.87848c0.72968,-0.50415 1.74518,-0.3421 2.37851,-0.69617c0.86127,-0.48151 1.79703,-0.42657 2.39999,-0.92535c0.65585,-0.54254 1.1095,-1.17004 1.80133,-1.58398c0.79535,-0.47586 1.19867,-1.39517 1.77335,-1.94135l0.42084,-0.67917l0.0405,-0.8595" id="svg_31" stroke-width="2" stroke="#000" fill="none"/>
 </g>
 <g display="none">
  <title>muse_image</title>
  <image xlink:href="http://www.foto-diana.nl/webfoto's/kris%20met%20gitaar%20close-up%20bew.%20kl.jpg" id="muse" height="426" width="640" y="27" x="0"/>
 </g>
 <g display="none">
  <title>bbox</title>
  <rect stroke="#f00" fill="none" stroke-width="3" height="159.75" width="365.86667" y="271.95" x="208" id="bbox"/>
 </g>
</svg>
