<svg width="640" height="480" xmlns="http://www.w3.org/2000/svg" xmlns:svg="http://www.w3.org/2000/svg" xmlns:xlink="http://www.w3.org/1999/xlink">
 <!-- Sketchy ANNOTATION
  ImageNet ID: n03467517_21884
  URL: http://farm4.static.flickr.com/3210/2613929040_ebf93a8752.jpg
  Image Width: 332
  Image Height: 500
  BBox X: 102
  BBox Y: 60
  BBox Width: 133
  BBox Height: 404
  Exposure: 2000ms
  Synset Label: guitar
  Synset ID: n03467517
  Worker Tag: guitar
  Sanity Check: 
   Saved
  Comment: 
   {}
  Worker ID: A25F8D227G0TL1
  Assignment ID: 3DHE4R9OCWB9JZ8NLLWGTESHDET2GE
  HIT ID: 3RBI0I35XE3W3ORCTPRPU49SKWJY3L
  Work Time: 271s
  Worker Score: 0.7857
 END ANNOTATION -->
 <g display="inline">
  <title>Layer 1</title>
  <path t="0,254,269,269,291,310,334,358,390,423,483,483,533,615,630,630,649,734,785,809,809,865,865,889,889,937,961,961,1003,1018,1034,1049,1050,1072,1088,1088,1099,1117,1133,1150,1167,1167,1182,1200,1200,1217,1217,1240,1256,1256,1304,1348,1363,1371,1433,1469,1482,1514,1562,1562,1602,1602,1610,1618,1658,1666,1666,1690,1714,1754,1786,1786,1794,1812,1826,1826,1842,1858,1882,1898,1922,1922,1938,1962,1962,1986,2026,2050,2050,2074,2091,2106,2122,2122,2138,2146,2178,2218,2218,2234,2234,2258,2258,2282,2282,2298,2330,2362,2386,2402,2540,2540,2848,2848,2864,2882,2901,2901,2917,2934,2951,2951,2968,2968,2994,2995,3050,3051,3100,3162,3178,3178,3194,3218,3242,3274,3274,3274,3314,3314,3323,3323,3333,3350,3368,3368,3383,3383,3400,3400,3417,3433,3450,3450,3450,3468,3483,3500,3500,3517,3533,3554,3555,3567,3583,3600,3600,3617,3635,3635,3652,3652,3667,3667,3706,3715,3715,3730,3755,3771,3786,3787,3810,3810,3819,3833,3850,3850,3867,3883,3883,3900,3917,3917,3917,3933,3950,3967,3983,3983,4000,4000,4020,4033,4033,4050,4067,4083,4083,4100,4117,4117,4138,4138,4150,4167,4183,4200,4200,4218,4218,4234,4234,4234,4258,4258,4274,4274,4290,4306,4306,4322,4322,4339,4339,4350,4350,4367,4367,4383,4400,4400,4400,4417,4433,4433,4450,4450,4482,4482,4522,4522,4538,4538,4554,4555,4555,4594,4642,4642,4658,4667,4667,4683,4707,4717,4733,4733,4750,4767,4767,4783,4783,4802,4802,4817,4833,4833,4850,4867,4867,4883,4900,4917,4917,4933,4933,4950,4967,4967,4967,4983,4983,4983,4984,5000,5000,5019,5019,5019,5033,5033,5034,5050,5050,5050,5067,5067,5068,5068,5083,5083,5084,5084,5100,5100,5117,5133,5133,5154,5154,5186,5186,5194,5211,5234,5243,5243,5258,5274,5298,5322,5323,5346,5346,5362,5362,5394,5410,5426,5434,5458,5498,5498,5514,5514,5523,5524,5562,5570,5570,5583,5600,5617,5633,5650,5650,5674,5674,5683,5700,5717,5738,5738,5739,5754,5767,5783,5800,5800,5817,5833,5834" d="m259,207c-1.82535,0 -2.83334,0 -3.6955,0c-0.90451,0 -1.8045,0 -2.7045,0c-0.90001,0 -1.80377,-0.08212 -2.70001,0.00017c-0.91144,0.08368 -1.48723,0.60112 -2.29999,0.9745c-0.88704,0.4075 -1.59216,0.90262 -2.40001,1.024c-0.90855,0.13651 -1.41522,0.94043 -2.3,1.00133c-0.89787,0.0618 -1.69109,0.06404 -2.38399,0.56799c-0.73009,0.53101 -1.51758,1.13779 -2.2115,1.48018c-0.83676,0.41287 -1.31528,1.17064 -2.0045,1.59467c-0.8214,0.50534 -1.78531,0.37199 -2.36134,0.96783c-0.65555,0.67809 -1.29187,1.0282 -2.18149,1.33665c-0.95866,0.3324 -1.71124,0.51433 -2.40001,1.10535c-0.65947,0.56587 -0.94658,1.55507 -1.75716,1.922c-0.78183,0.35391 -1.36237,0.86772 -2.12083,1.52533c-0.61711,0.53505 -1.34821,0.83202 -2.3125,1.5c-0.65794,0.45578 -0.95567,1.25363 -1.388,2.10001c-0.33473,0.6553 -0.97118,1.29596 -1.49467,1.98399c-0.46686,0.6136 -0.34116,1.616 -0.784,2.416c-0.44284,0.8 -0.5,1.7 -0.5,2.60001c0,0.89999 0,1.65717 0,2.55266c0,0.86334 0.05841,1.86317 -0.35266,2.64734c-0.44449,0.8479 -0.64734,1.7 -0.64734,2.5c0,0.89999 0,1.8 0,2.61066c0,0.91068 0,1.76401 0,2.70401c0,0.98534 0,1.88533 0,2.68533c0,0.89999 0,1.8 0,2.7c0,0.91066 0,1.82133 0,2.5c0,1.11467 0,2 0,2.8c0,0.89999 0,1.72084 0,2.68401c0,0.86331 0,1.75882 0,2.716c0,0.89999 0,1.79999 0,2.59998c0,0.90002 0,1.80002 0,2.61069c0,0.91064 0,1.76398 0,2.70667c0,0.85199 0,1.888 0,2.63199c0,0.91733 0,1.82935 0,2.75067c0,0.89999 0,1.79999 0,2.70001c0,0.89999 0.00191,1.79999 0,2.55716c-0.00226,0.89099 -0.03006,1.7399 -0.80133,2.3255c-0.65683,0.49872 -1.50252,1.04095 -1.91333,1.71732c-0.47142,0.77612 -1.01875,1.28333 -1.696,2.05069c-0.49661,0.56271 -1.29945,0.90427 -2.10535,1.31732c-0.80678,0.41348 -1.1559,1.2002 -1.7795,2.07483c-0.40416,0.56686 -0.76772,1.51718 -1.46617,1.80984c-0.86452,0.36221 -1.89926,0.62384 -2.19666,1.44733c-0.30602,0.84738 0.04208,1.8259 -0.20834,2.66666c-0.26396,0.88623 -0.62154,1.44135 -1.13333,2.42883c-0.39006,0.75259 -1.02344,1.44089 -1.41466,2.20319c-0.43106,0.83994 -0.26372,1.83035 -0.6425,2.51031c-0.38783,0.6962 -0.9325,1.70059 -1.24284,2.44034c-0.38716,0.92282 -0.74442,1.64536 -1.49983,2.12933c-0.7683,0.49222 -1.03476,1.30203 -1.33617,1.94669c-0.33092,0.70776 -1.06548,1.47775 -1.48,2.37466c-0.3517,0.76099 -0.72946,1.50082 -1.084,2.29999c-0.35529,0.80081 -1.08748,1.42844 -1.564,2.10001c-0.51489,0.72568 -1.08493,1.34448 -1.38333,2.10983c-0.2975,0.76303 -0.5047,1.64005 -1.15251,2.39032c-0.55704,0.64514 -0.72914,1.59247 -1.00999,2.24716c-0.42398,0.98834 -1.44444,1.1842 -1.81816,2.06335c-0.3573,0.84055 0.01665,1.80176 -0.49734,2.52798c-0.47258,0.66772 -1.06404,1.28662 -1.45332,2.1615c-0.32994,0.74149 -0.52272,1.5336 -0.83734,2.41583c-0.3373,0.94583 -0.74593,1.7204 -1.11732,2.48401c-0.36667,0.75391 -0.81468,1.46985 -1.08134,2.48401c-0.17665,0.67184 0.02672,1.65622 -0.252,2.68265c-0.18544,0.68292 -0.6777,1.32462 -0.82266,2.42267c-0.10611,0.80377 0.10045,1.755 -0.29466,2.612c-0.33873,0.73471 -0.69687,1.62338 -0.71468,2.31467c-0.02534,0.98367 -0.00133,1.96802 -0.00133,2.65866c0,1.06818 0,1.92535 0,2.82535c0,0.79999 -0.00491,1.78043 0.35716,2.65268c0.29776,0.71729 0.96628,1.3837 1.3575,2.146c0.43106,0.83994 0.28275,1.82129 0.71068,2.60132c0.45229,0.8244 0.70653,1.51297 1.2845,2.25717c0.44759,0.57629 1.1442,1.32928 1.65416,2.13217c0.45338,0.71381 0.8924,1.50858 1.52133,2.00934c0.71411,0.56857 1.54607,1.00073 2.11467,1.70132c0.56873,0.70074 1.34509,1.01074 1.83067,1.98532c0.33372,0.66977 0.33534,1.73816 0.69016,2.49384c0.41626,0.88654 0.97389,1.50513 1.57918,2.12085c0.59485,0.6051 1.34843,1.27463 1.89999,2.06665c0.4404,0.63239 0.80869,1.34335 1.38933,2.19736c0.49699,0.73096 0.73244,1.4957 1.472,2.03598c0.62041,0.45325 1.52014,1.00348 2.02267,1.48535c0.78395,0.75174 1.26791,1.354 2.116,1.78131c0.74876,0.37726 1.8895,0.61569 2.364,1.19467c0.49883,0.60864 1.02681,1.51147 1.636,2.13867c0.59122,0.60867 1.21675,1.42618 2,1.83334c0.65086,0.33835 1.42256,0.8522 2.3,1.1095c0.86545,0.25378 1.82404,0.25024 2.39999,0.76166c0.73227,0.65024 1.40024,1.17456 2.11433,1.34818c0.95355,0.23184 1.67461,0.48883 2.85234,0.78067c0.78526,0.19458 1.44052,0.61963 2.33333,1c0.75154,0.32019 1.636,0.16666 2.65266,0.16666c0.69467,0 1.71559,-0.08505 2.65184,0.00449c0.87331,0.08353 1.66928,0.5705 2.52882,0.82886c0.73926,0.2222 1.71658,0.14999 2.70967,0.388c0.73616,0.17642 1.26744,0.40921 2.457,0.612c0.88933,0.15161 1.76396,0.15933 2.31467,0.16531c1.2281,0.01334 2.09404,0.00623 3.088,0.28534c0.64941,0.18234 1.36011,0.48746 2.56534,0.63068c0.67966,0.08075 1.38132,0.07642 2.69867,0.08533c0.82799,0.00558 1.58859,0.00232 2.66666,0.16666c0.63934,0.09744 1.32474,0.27533 2.4185,0.48068c1.07854,0.20248 1.76041,0.28622 2.7065,0.33182c0.57956,0.02792 1.85501,0.02084 2.5,0.02084c1.02016,0 2.04167,0 2.79884,0c0.89999,0 1.64734,0 2.64151,0c0.94415,0 1.84415,0 2.80133,0c0.89999,0 1.79999,0 2.59998,0c0.90002,0 1.80002,0 2.61069,0c0.91083,0 1.79999,0 2.78915,0c0.77933,0 1.77866,0 2.59885,0c0.90134,0 1.80133,0 2.70132,0c0.89999,0 1.79999,0 2.70132,0c0.68402,0 1.63467,0.00174 2.39999,0c0.98969,-0.00226 1.64108,-0.33441 2.56534,-0.83334c0.74783,-0.40369 1.63351,-0.14865 2.53336,-0.16666c0.90054,-0.01801 1.61032,-0.61813 2.5,-0.91467c0.85779,-0.28592 1.68533,-0.08533 2.62534,-0.08533c0.69064,0 1.76398,0.0051 2.67465,0c0.80453,-0.00452 1.67551,-0.32227 2.32535,-0.85068c0.70041,-0.56955 1.53635,-1.11328 2.37466,-1.14932c0.89917,-0.03864 1.79999,0 2.59998,0l0.95718,-0.05716l0.73215,-0.22684l0.82935,-0.29068" id="svg_1" stroke-width="2" stroke="#000" fill="none"/>
  <path t="8472,8547,8563,8586,8602,8618,8633,8650,8650,8682,8721,8722,8738,8738,8754,8762,8802,8825,8834,8834,8882,8890,8914,8930,8930,8938,8949,8950,8965,8982,8983,9000,9000,9018,9018,9034,9034,9050,9074,9074,9090,9099,9100,9130,9130,9153,9177,9178,9194,9201,9216,9216,9233,9250,9266,9283,9283,9300,9300,9322,9322,9338,9338,9362,9370,9394,9410,9410,9426,9442,9450,9466,9505,9529,9529,9546,9546,9554,9566,9583,9600,9600,9617,9657,9658,9681,9682,9705,9722,9722,9738,9738,9761,9761,9777,9778,9785,9786,9801,9816,9833,9850,9850,9874,9874,9874,9889,9890,9906,9906,9922,9983,9999,10613,10677,10729,10769,10770,10793,10802,10802,10817,10849,10857,10905,10929,10930,10953,10993,10994,11001,11001,11016,11034,11058,11058,11073,11074,11083,11121,11121,11138,11153,11154,11162,11193,11241,11242,11242,11273,11273,11282,11305,11305,11306,11329,11369,11370,11370,11377,11378,11401,11425,11425,11450,11457,11482,11497,11505,11515,11533,11533,11554,11554,11565,11583,11600,11600,11600,11616,11616,11633,11650,11666,11683,11683,11700,11737,11738,11761,11761,11770,11785,11800,11800,11816,11816,11833,11833,11850,11866,11866,11866,11883,11883,11900,11916,11946,11970,11971,11994,11994,12002,12018,12034,12035,12050,12066,12083,12100,12100,12100,12116,12116,12116,12133,12150,12150,12166,12166,12183,12200,12216,12216,12250,12266,12267,12274,12283,12300,12316,12316,12346,12355,12366,12383,12400,12434,12466,12482,12483,12514,12538,12546,12570,12570,12602,12626,12626,12650,12682,12683,12690,12701,12716,12733,12755,12778,12802,12865,12865,12913,12914,12962,12993,13018,13034,13034,13050,13090,13090,13122,13122,13146,13146,13162,13162,13170,13183,13200,13216,13233,13250,13266,13306,13306" d="m301,209c1.79999,0 2.70001,0 3.60001,0c0.89999,0 1.79999,0 2.69998,0c0.80017,0 1.58536,0 2.52536,0c1.008,0 1.79999,0 2.65866,0c0.86331,0 1.90903,-0.2263 2.81149,0.0045c0.71799,0.18362 0.87265,1.35814 1.7045,1.82883c0.63846,0.36125 1.52615,0.62306 2.2955,1.114c0.70532,0.45009 1.04733,1.3658 1.50583,1.85268c0.67804,0.72 1.33429,1.48473 1.99866,1.91466c0.78152,0.50574 1.09628,1.18575 1.36935,1.888c0.40891,1.05157 1.05969,1.50751 1.58798,2.37584c0.41425,0.68088 1.04227,1.20657 1.67468,1.8215c0.63989,0.62221 0.56799,1.68399 0.56799,2.54733c0,0.89549 -0.07486,1.86775 0.08533,2.53799c0.23239,0.97221 0.75043,1.60625 0.89383,2.61467c0.13855,0.97441 0.02084,1.67467 0.02084,2.74283c0,0.85718 -0.17355,1.79543 0.08533,2.55717c0.30176,0.88792 0.89667,1.59946 0.91467,2.5045c0.01715,0.862 0,1.6955 0,2.67416c0,0.774 0,1.6785 0,2.42583c0,0.99417 0,1.93834 0,2.83833c0,0.95717 0,1.85718 0,2.75717c0,0.8 0,1.7 0,2.60001c0,0.89999 0,1.79999 0,2.7045c0,0.86217 0,1.6955 0,2.674c0,0.82018 0,1.72151 0,2.62151c0,0.92084 0,1.72131 0,2.57465c0,0.94135 0,1.992 0,2.6507c0,1.008 0.00058,1.87015 0,2.6955c-0.00067,0.96448 0.0528,1.71069 -0.2215,2.67899c-0.22754,0.80322 -0.83701,1.59515 -1.25766,2.30017c-0.46799,0.78433 -0.41092,1.72284 -0.80484,2.61465c-0.32687,0.74005 -0.70712,1.50339 -1.14133,2.28534c-0.4556,0.8205 -0.82108,1.68417 -1.18533,2.272c-0.52612,0.84903 -0.81229,1.57932 -1.03217,2.37982c-0.27896,1.01566 -0.22546,1.94226 -0.52383,2.78152c-0.28775,0.80945 -0.90781,1.5769 -1.40802,2.19199c-0.50412,0.61987 -0.59354,1.59451 -0.40448,2.47467c0.18137,0.84442 1.16281,1.22833 1.77914,1.66934c0.73831,0.52829 1.14746,1.65182 1.90002,1.82166c0.87796,0.19812 1.72247,0.09213 2.32532,0.58368c0.68036,0.55478 1.68735,0.68338 2.26483,1.12982c0.75232,0.58163 0.93842,1.55984 1.5965,2.09549c0.70651,0.57507 1.51724,0.8147 2.0925,1.70001c0.48209,0.74194 1.10919,1.43082 1.5,2.02084c0.58334,0.88071 0.57352,1.76932 1.02084,2.47916c0.44733,0.70984 0.44589,1.58905 0.936,2.36401c0.52979,0.83765 1.35196,1.28949 1.54315,2.13599c0.20084,0.88925 0.4689,1.81726 0.87152,2.336c0.58929,0.75922 1.04211,1.55301 1.12799,2.328c0.11935,1.07718 0.34256,2.01218 0.72665,2.48868c0.57169,0.70926 1.20062,1.4537 1.29468,2.51398c0.05917,0.66681 0.00281,1.461 0.35718,2.42883c0.28336,0.77386 1.09521,1.55746 1.47617,2.40451c0.29474,0.65533 0.16666,1.60001 0.16666,2.5c0,0.89999 0,1.79999 0,2.70001c0,0.89999 0,1.79999 0,2.55716c0,1.06818 -0.01089,1.75888 0,2.72198c0.01068,0.94235 0.32248,1.86032 0.70532,2.52618c0.43185,0.7511 1.08438,1.62631 1.25302,2.453c0.16843,0.82568 0.04166,1.74167 0.04166,2.64166c0,0.89999 0,1.69998 0,2.65717c0,0.89999 0,1.64734 0,2.64151c0,0.76532 0,1.84415 0,2.70132c0,0.89999 0,1.65717 0,2.55716c0,0.94415 0.00183,1.93832 0,2.68567c-0.00226,0.909 -0.15994,1.9924 -0.35266,2.66251c-0.21457,0.74615 -0.43622,1.87589 -0.67267,2.57333c-0.2933,0.86517 -0.93195,1.61832 -0.97467,2.52133c-0.04251,0.89899 -0.02051,1.6701 -0.35266,2.55267c-0.26578,0.70621 -0.62045,1.70175 -1.07266,2.33264c-0.52023,0.7258 -0.58844,1.56384 -1,2.37869c-0.38962,0.77145 -0.9902,1.42389 -1.57468,2.13599c-0.40695,0.49582 -0.58505,1.30188 -1,2.33334c-0.28528,0.70917 -0.67136,1.49631 -0.97467,2.54132c-0.27271,0.93954 -0.49847,1.65463 -1.02533,2.45868c-0.44073,0.67261 -0.86447,1.47519 -1.00134,2.36667c-0.14059,0.91577 -0.7988,1.45377 -0.97781,2.32083c-0.19479,0.94351 0.13281,1.92819 -0.37802,2.7175c-0.47592,0.73535 -1.51428,0.9216 -1.64282,1.76166c-0.12167,0.79526 -0.46918,1.66302 -0.97467,2.38934c-0.4592,0.65979 -1.5416,0.49969 -2.02533,1.1315c-0.51855,0.67731 -1.15054,1.23187 -2,1.64581c-0.65228,0.31787 -1.49982,0.82291 -2.39999,0.83334c-0.89993,0.01041 -1.80133,0 -2.48535,0c-0.94,0 -1.948,0 -2.81015,0c-0.82535,0 -1.78851,0 -2.65182,0c-0.89551,0 -1.8613,-0.12402 -2.7525,0.00015c-0.80188,0.11172 -1.25589,0.97125 -2.10019,0.99985c-0.89948,0.03046 -1.79999,-0.00189 -2.55716,0c-0.89551,0.00226 -1.78635,0.02344 -2.60684,0.42532c-0.86993,0.42609 -1.73599,0.57468 -2.63599,0.57468c-0.79999,0 -1.63599,0 -2.65717,0c-0.74734,0 -1.74283,0 -2.54285,0c-0.99982,0 -1.77914,0 -2.77847,0c-0.82019,0 -1.72153,0 -2.62152,0c-0.89999,0 -1.79999,0 -2.69998,0c-0.90002,0 -1.80002,0 -2.70001,0l-0.75717,-0.05716" id="svg_2" stroke-width="2" stroke="#000" fill="none"/>
  <path t="22473,22505,22521,22545,22561,22561,22570,22585,22598,22598,22615,22632,22648,22665,22665,22682,22698,22698,22698,22715,22732,22732,22753,22770,22785,22833,22857,22881,22889,22898,22898,22915,22932,22948,22948,22969,22969,22982,23009,23009,23020,23020,23049,23065,23121,23121,23176,23192,23209,23232,23248,23265,23265,23282,23298,23298,23315,23315,23337,23353,23369,23382,23401,23417,23433,23465,23465,23497,23497,23545,23545,23561,23561,23593,23593,23609,23633,23673,23681,23737,23737,23753,23761,23777,23801,23817,23817,23841,23841,23849,23881,23905,23929,23961,23961,24015,24015,24066,24066,24082,24098,24114,24114,24130,24170,24218,24218,24242,24274,24274,24377,24401,24417,24457,24457,24489,24513,24561,24601,24601,24633,24657,24673,24673,24705,24729,24761,24793,24848,24848" d="m277,299c-1.70001,0 -2.60001,0 -3.52084,0c-0.96317,0 -1.65381,0 -2.72198,0c-0.85718,0 -1.75757,0.02536 -2.55716,0c-0.9014,-0.02859 -1.62314,-0.68491 -2.50452,-0.94284c-0.82925,-0.24268 -1.72458,0.0368 -2.59467,-0.40982c-0.82593,-0.42395 -1.39923,-0.54672 -2.33417,-0.73135c-0.97076,-0.19171 -1.80115,-0.65823 -2.56665,-1c-0.74353,-0.33197 -1.49866,-0.88733 -2.40001,-0.91599c-0.89938,-0.02859 -1.75729,-0.28235 -1.8,-1.20001c-0.04184,-0.89902 0,-1.79999 0,-2.59998c0,-0.90002 0,-1.72086 0,-2.68533c0,-0.72534 0,-1.71451 0,-2.67868c0,-0.95065 -0.00191,-1.836 0,-2.59317c0.00226,-0.89551 0.02298,-1.78656 0.42534,-2.60684c0.4269,-0.8703 0.80861,-1.59427 1.222,-2.336c0.42563,-0.76367 0.65414,-1.67444 1.45248,-2.17865c0.77048,-0.4866 1.34213,-0.90692 2.09885,-1.40668c0.60892,-0.40216 0.91553,-1.49692 1.65466,-1.91333c0.63083,-0.35541 1.88962,-0.42773 2.58417,-0.80133c0.72397,-0.38943 1.267,-0.99774 2.16251,-1c0.89999,-0.00226 1.79999,0 2.69998,0c0.90002,0 1.80017,0 2.58536,0c0.95065,0 1.71597,0 2.71466,0c0.79999,0 1.80652,-0.07864 2.564,0.03601c0.97141,0.14703 1.65878,0.6214 2.53601,1.01666c0.72299,0.32578 1.681,0.64542 2.24731,1.3045c0.5918,0.68875 0.77792,1.53107 1.55267,2.12198c0.73392,0.55978 1.35614,0.92044 1.784,1.72086c0.45749,0.85583 0.67017,1.55853 0.72049,2.44815c0.04443,0.7854 0.83655,1.22745 1.47467,1.87268c0.63757,0.64465 0.37497,1.72855 0.74219,2.57932c0.3103,0.71893 0.74612,1.55566 0.77417,2.30435c0.0372,0.9935 0.00449,1.75949 0.00449,2.83832c0,0.85718 0,1.75717 0,2.55716c0,0.90002 0,1.836 0,2.68402c0,0.86331 0.19101,1.83954 -0.28534,2.716c-0.3779,0.69528 -1.01169,1.39749 -1.91467,1.71466c-0.85294,0.29959 -1.79999,0.08533 -2.59998,0.08533c-0.90002,0 -1.80002,0 -2.72086,0c-0.96317,0 -1.65381,0 -2.72198,0c-0.85718,0 -1.75717,0 -2.55716,0c-0.90002,0 -1.80002,0 -2.70001,0l-0.91068,0l-0.91064,0l-0.85333,0" id="svg_5" stroke-width="2" stroke="#000" fill="none"/>
  <path t="35070,35256,35272,35272,35290,35298,35298,35298,35314,35314,35314,35331,35331,35331,35348,35348,35368,35368,35392,35392,35392,35400,35416,35416,35416,35440,35440,35448,35448,35448,35472,35472,35488,35488,35498,35498,35514,35514,35531,35531,35548,35548,35564,35564,35581,35581,35581,35598,35598,35614,35614,35631,35631,35648,35648,35648,35664,35664,35681,35698,35698,35714,35714,35736,35736,35752,35764,35781,35800,35800,35824,35824,35840,35856,35864,35881,35897,35898,35913,35914,35936,35936,35960,35960,35976,35984,35997,35998,36013,36031,36048,36064,36064,36064,36081,36081,36099,36099,36114,36131,36131,36131,36148,36163,36164,36180,36181,36197,36198,36213,36214,36214,36230,36231,36231,36248,36248,36248,36264,36264,36264,36264,36281,36281,36298,36298,36313,36331,36331,36348,36348,36364,36364,36381,36381,36398,36413,36414,36414,36431,36431,36431,36448,36464,36464,36464,36481,36481,36497,36498,36513,36514,36514,36514,36514,36531,36531,36548,36548,36564,36564,36564,36581,36581,36598,36599,36599,36599,36614,36614,36614,36614,36632,36632,36632,36648,36648,36649,36664,36664,36665,36665,36681,36681,36681,36682,36698,36698,36698,36714,36714,36731,36748,36748,36764,36764,36781,36781,36798,36798,36814,36831,36831,36848,36849,36849,36864,36865,36888,36888,36888,36898,36898,36914,36931,36948,36948,36968,36968,36992,36992,37016,37048" d="m264,270c-0.99551,-1.75717 -1,-2.65268 -1,-3.51599c0,-0.86935 0,-1.81735 0,-2.74533c0,-0.7905 0,-1.81735 0,-2.51334c0,-0.90933 0,-1.90933 0,-2.72534c0,-0.81601 0,-1.81467 0,-2.68933c0,-1.01067 0,-1.81067 0,-2.81067c0,-0.78934 0,-1.51466 0,-2.52083c0,-1.022 0,-1.74051 0,-2.53101c0,-1.02667 0,-1.92734 0,-2.94817c0,-0.8 0,-1.60001 0,-2.60001c0,-0.79999 0,-1.79999 0,-2.59999c0,-0.99983 0,-1.77917 0,-2.63333c0,-0.91934 0,-1.82384 0,-2.57117c0,-0.9955 0,-1.7955 0,-2.7955c0,-0.8 0,-1.8 0,-2.60001c0,-0.8 0,-1.8 0,-2.59999c0,-1 0,-1.8 0,-2.8c0,-0.8 0,-1.8 0,-2.60001c0,-0.8 0.12692,-1.8167 -0.08533,-2.71466c-0.21271,-0.89996 -0.81161,-1.64336 -0.89383,-2.48534c-0.09512,-0.97426 -0.0405,-1.76587 -0.3735,-2.65266c-0.26526,-0.70642 -0.61874,-1.58888 -0.64734,-2.54733c-0.02682,-0.89961 0,-1.8 0,-2.55717c0,-0.89549 0,-1.75883 0,-2.722c0,-0.92082 0,-1.82083 0,-2.72083c0,-0.90018 0,-1.68533 0,-2.636c0,-0.76534 0,-1.76401 0,-2.564c0,-0.99867 0,-1.76401 0,-2.84283c0,-0.85718 0,-1.75717 0,-2.55717c0,-0.89999 0,-1.8 0,-2.74167c0,-1.00116 0,-1.71967 0,-2.51016c0,-1.0265 0,-1.90649 0,-2.78149c0,-0.86217 0,-1.70834 0,-2.70934c0,-0.70801 0,-1.68933 0,-2.64301c0,-0.91451 0,-1.69966 0,-2.65033c0,-0.76534 0,-1.76851 0,-2.62117c0,-0.96416 0,-1.76816 0,-2.59016c0,-1.03134 0,-1.72734 0,-2.63667c0,-1.00266 0,-1.85767 0,-2.47766c0,-1.35933 0,-2.082 0,-2.79666c0,-0.987 0,-1.987 0,-2.78534c0,-0.909 -0.10703,-1.78046 0.02084,-2.75633c0.10986,-0.83846 0.61478,-1.69324 0.8125,-2.5c0.19046,-0.77708 0.16666,-1.83333 0.16666,-2.62534c0,-1.02733 0,-1.722 0,-2.75999c0,-0.948 0,-1.6245 0,-2.40001c0,-1.04799 0,-1.96799 0,-2.728c0,-1.00749 0,-2.0295 0,-2.748c0,-0.7905 -0.07468,-1.82196 0.02084,-2.69699c0.11288,-1.03421 0.57431,-1.57982 0.8125,-2.70834c0.13928,-0.65987 0.13611,-1.43501 0.19199,-2.23199c0.05368,-0.7657 0.29495,-1.94719 0.62201,-2.8405c0.33301,-0.90962 0.3504,-1.72249 0.35266,-2.68201c0.00186,-0.7935 0,-1.56899 0,-2.61216c0,-0.82917 -0.02292,-1.73182 0.02133,-2.664c0.03323,-0.69971 0.0752,-1.44318 0.42133,-2.48116c0.33743,-1.01185 0.74213,-1.5956 0.98935,-2.22017c0.4657,-1.17652 0.54041,-2.10073 0.55899,-2.70133c0.03711,-1.19946 0.009,-2.1 0.009,-2.7c0,-1.2 0,-2.1045 0,-2.72083c0,-0.9645 -0.0058,-2.00039 0.00449,-2.72733c0.01035,-0.7311 0.02881,-1.79165 0.21686,-2.70883c0.16019,-0.78127 0.57166,-1.62591 0.7215,-2.6385c0.10968,-0.74112 0.03735,-1.77938 0.05731,-2.72584c0.01801,-0.8539 0.29547,-1.62088 0.64719,-2.43134c0.37881,-0.87289 0.3504,-1.65182 0.35266,-2.646c0.00174,-0.76534 0,-1.84866 0,-2.768c0,-0.66933 0,-1.83334 0,-2.63334c0,-0.8 0,-1.8045 0,-2.436c0,-1.18517 0,-1.97867 0,-2.75417c0,-1.03917 -0.20517,-1.84424 0.05716,-2.70983c0.26819,-0.88492 1.24582,-1.43208 1.58566,-2.05717c0.45313,-0.83347 0.35269,-1.64734 0.35718,-2.6415l0,-0.76534l0,-1.07883l0,-0.85716" id="svg_7" stroke-width="2" stroke="#000" fill="none"/>
  <path t="43991,44228,44243,44243,44272,44272,44289,44289,44289,44297,44314,44314,44337,44337,44337,44347,44364,44381,44398,44398,44414,44431,44447,44465,44481,44481,44497,44497,44497,44514,44537,44537,44547,44547,44564,44564,44584,44600,44600,44615,44615,44632,44632,44649,44665,44665,44682,44682,44698,44715,44737,44737,44748,44748,44748,44765,44765,44782,44798,44798,44815,44815,44832,44832,44832,44848,44865,44865,44865,44898,44898,44898,44929,44929,44945,44953,44969,44984,44984,45000,45014,45032,45048,45072,45104,45104,45112,45113,45133,45149,45164,45181,45181,45200,45200,45224,45232,45232,45248,45265,45281,45281,45298,45298,45314,45314,45331,45331,45347,45364,45364,45381,45381,45397,45398,45414,45414,45431,45447,45447,45464,45465,45481,45481,45497,45514,45514,45531,45531,45547,45547,45564,45564,45564,45581,45581,45582,45596,45597,45597,45615,45632,45632,45632,45632,45647,45647,45664,45664,45681,45681,45697,45697,45714,45714,45731,45747,45747,45776,45776,45776,45792,45792,45800,45816,45816,45816,45832,45832,45848,45866,45866,45866,45882,45883,45883,45898,45898,45898,45914,45915,45915,45932,45932,45932,45933,45947,45947,45947,45948,45964,45964,45964,45965,45981,45982,45982,45997,45997,45997,45999,46014,46014,46015,46015,46031,46032,46032,46047,46048,46064,46065,46083,46083,46083,46097,46098,46114,46133,46133,46133,46152,46152,46164,46184,46216,46232,46291,46374,46374,46847,46880,46904,46904,46912,46932,46948,46965,46965,46985,46985,47009,47016,47041,47056,47072,47088,47088,47104,47104,47114,47132,47147,47147,47148,47164,47164,47181,47197,47214,47215,47280,47280,47328,47469,47504,47613,47759,48212,48212,48246,48259,48259,48273,48288,48288,48298,48298,48315,48332,48348,48348,48365,48365,48365,48382,48398,48398,48398,48415,48415,48432,48432,48432,48448,48448,48465,48465,48482,48482,48498,48498,48498,48515,48515,48515,48532,48548,48548,48548,48565,48565,48565,48582,48582,48598,48598,48598,48615,48615,48615,48632,48632,48648,48648,48648,48673,48673,48689,48689,48704,48715,48731,48748,48748,48765,48863,48912,48944,48984,49291,49306,49344,49360,49360,49376,49400,49400,49416,49440,49464,49472,49480,49497,49498,49536,49560,49560,49584,49584,49592,49608,49625,49625,49641,49656,49656,49664,49680,49712,49720,49721,49730,49731,49752,49768,49784,49800,49816,49848,49864,49864,49971,50139,50139,50229,50280,50295,50295,50344,50352,50554,50592,50616,50616,50640,50640,50656,50680,50696,50720,50744,50828,50828,50828,50864,50912,50912,50928,50928,50968,51024,51024,51064,51064,51096,51112,51128,51136,51152,51178,51192,51200,51224,51241,51256,51272,51272,51296,51312,51344,51344,51384,51384,51392,51400,51416,51416,51431,51431,51448,51465,51481,51481,51498,51536,51536,51592,51592,51647,51647,51647,51647,51647,51680,51703,51728,51776,51776,51816,51824,51848,51871,51872,52086" d="m283,274c1,0 1.91495,-0.15268 1.99866,-0.88666c0.10876,-0.95383 0.00134,-1.80002 0.00134,-2.79602c0,-0.79648 -0.00009,-1.54797 0,-2.65598c0.00009,-0.98285 -0.06119,-1.69797 0.16666,-2.66135c0.19119,-0.80835 0.66855,-1.48984 0.8125,-2.47916c0.13263,-0.91147 0.0098,-1.82541 0.02084,-2.6875c0.01044,-0.81271 0.61359,-1.52847 0.96399,-2.26935c0.36972,-0.78171 0.02423,-1.76541 0.03601,-2.73067c0.01044,-0.85434 0.14136,-1.84207 0.42532,-2.62267c0.26715,-0.73431 0.55667,-1.58481 0.57468,-2.53217c0.01331,-0.6992 -0.0553,-1.88177 0.02084,-2.65767c0.08463,-0.86237 0.72614,-1.54886 0.94315,-2.43149c0.21759,-0.88503 -0.06381,-1.76959 0.03867,-2.70534c0.0856,-0.78149 0.72351,-1.51964 1.14667,-2.05867c0.7164,-0.91258 0.85068,-1.82533 0.85068,-2.5825c0,-0.89549 0,-1.75883 0,-2.722c0,-0.93149 0,-1.84233 0,-2.54166c0,-0.97917 -0.0018,-1.77917 0,-2.57918c0.00226,-0.9955 0.02341,-1.94214 0.42532,-2.76399c0.42606,-0.87125 0.53677,-1.52249 0.58536,-2.48267c0.04263,-0.84222 0.26733,-1.83765 0.48932,-2.63251c0.21033,-0.7531 0.47141,-1.70975 0.5,-2.6875c0.02557,-0.87462 0,-1.51999 0,-2.51733c0,-0.81599 0,-1.63199 0,-2.85432c0,-0.8 0,-1.7045 0,-2.66167c0,-0.90001 0,-1.8 0,-2.60001c0,-0.89999 0,-1.8 0,-2.7c0,-0.89999 0,-1.8045 0,-2.66667c0,-0.83333 0,-1.81183 0,-2.63199c0,-0.90134 0,-1.80135 0,-2.612c0,-0.91068 0,-1.76401 0,-2.70534c0,-0.76801 0,-1.70934 0,-2.71733c0,-0.86217 0,-1.76668 0,-2.57733c0,-0.91068 0,-1.76401 0,-2.70668c0,-0.85199 0,-1.65067 0,-2.63199c0,-0.91734 0,-1.82933 0,-2.66133c0,-0.91084 0,-1.8 0,-2.78917c0,-0.77934 -0.09351,-1.7915 0.05716,-2.55284c0.1839,-0.92924 0.70709,-1.56438 0.88568,-2.49466c0.17368,-0.9046 0.05716,-1.75267 0.05716,-2.73134c0,-0.774 0,-1.674 0,-2.53734c0,-0.98399 0,-1.96933 0,-2.69466c0,-0.98917 -0.03415,-1.7691 0.00015,-2.76817c0.02859,-0.83246 0.2912,-1.78979 0.49985,-2.56284c0.15274,-0.56589 0.38596,-1.7574 0.47467,-2.64766c0.08499,-0.85283 0.22256,-1.89677 0.45065,-2.564c0.26321,-0.76996 0.56424,-1.78818 0.57468,-2.74667c0.00937,-0.86246 -0.00003,-1.52083 0,-2.19917c0.00009,-1.25766 -0.16769,-2.05806 0.16666,-3.13416c0.22116,-0.71179 0.76227,-1.48334 0.82266,-2.37733c0.06668,-0.98697 -0.10507,-1.80347 0.17734,-2.62267c0.28,-0.81218 0.79706,-1.57735 0.8335,-2.48817c0.03558,-0.88918 0.15222,-1.68326 0.42517,-2.4785c0.27631,-0.80508 0.54224,-1.79417 0.57019,-2.54283c0.03891,-1.04178 0.00449,-1.99049 0.00449,-2.66251c0,-0.98932 -0.01581,-2.02415 0,-2.79199c0.01801,-0.87521 0.22235,-1.74521 0.42532,-2.464c0.22314,-0.79019 0.45737,-1.81682 0.57468,-2.73867c0.08701,-0.68362 0.28918,-1.68401 0.5,-2.52084c0.22147,-0.87914 0.4054,-1.77702 0.46399,-2.67916c0.05835,-0.89866 0.03601,-1.8 0.03601,-2.70451c0,-0.9315 0,-1.58083 0,-2.617c0,-0.73566 0,-1.49934 0,-2.283c0,-1.1955 0,-1.99284 0,-3.15384c0,-0.72733 0,-1.70833 0,-2.53633c0,-0.756 0,-1.83867 0,-2.81516c0,-0.71101 0,-1.442 0,-2.52351c0,-1.0095 0,-1.64583 0,-2.56533c0,-1.2 0,-1.79066 0,-2.64417c0,-1.0355 0,-1.9155 0,-2.936c0,-0.83099 0,-1.7905 0,-2.542c0,-0.7965 0,-1.7925 0,-2.6325c0,-1.09399 0,-2.01333 0,-2.68266c0,-0.76534 0,-1.95333 0,-2.67867c0,-0.9645 0,-1.88534 0,-2.78534c0,-0.89999 0,-1.8 0,-2.7c0,-0.8 -0.04889,-1.85399 -0.88666,-1.99866c-0.92499,-0.15974 -1.62933,-0.00134 -2.5925,-0.00134c-0.92084,0 -1.82535,0 -2.84216,0c-0.67868,0 -1.65756,-0.02597 -2.47736,0c-0.90271,0.02859 -1.62369,0.68619 -2.50131,0.94283c-0.8656,0.25312 -1.84891,-0.11282 -2.70001,0.22383c-0.70264,0.27793 -1.48129,0.78619 -2.34732,0.82883c-0.89444,0.04404 -1.87521,-0.08931 -2.81934,0.17117c-0.69174,0.19085 -1.42017,0.62647 -2.42883,0.77617c-0.74109,0.10999 -1.7728,-0.02788 -2.70901,0.06167c-0.87329,0.08353 -1.48807,0.51366 -2.52884,0.82883c-0.73877,0.22372 -1.66666,0.16666 -2.56665,0.16666c-0.89999,0 -1.80002,0 -2.70001,0c-0.89999,0 -1.83911,-0.21523 -1.89999,-1.1c-0.0618,-0.89788 -0.10025,-1.7104 0.03601,-2.536c0.14407,-0.87299 0.6084,-1.55588 0.84265,-2.56367c0.17395,-0.74836 0.65411,-1.53896 1.09601,-2.24699c0.48126,-0.77113 0.54346,-1.5755 1.02533,-2.55334c0.29385,-0.59631 0.67191,-1.33392 0.97467,-2.37466c0.27332,-0.93953 0.54242,-1.648 0.82666,-2.22667c0.49216,-1.00188 0.89868,-1.79867 1.29868,-2.59867c0.39999,-0.8 0.69998,-1.4 1.19998,-2.4c0.40002,-0.80001 0.82333,-1.58883 1.17917,-2.37917c0.37961,-0.84317 0.53506,-1.70407 0.9635,-2.56367c0.36856,-0.73951 0.7981,-1.20213 1.224,-2.2905c0.34961,-0.8934 0.3197,-1.72613 0.76935,-2.54134c0.4696,-0.85138 0.98227,-1.46341 1.26401,-2.087c0.42798,-0.94728 0.71249,-1.74581 0.94281,-2.5285c0.30402,-1.03325 0.36719,-1.82653 0.64383,-2.77917c0.22131,-0.7621 0.56058,-1.57191 1.03452,-2.30917c0.45676,-0.71051 1.10779,-1.25389 1.50949,-2.3215c0.28906,-0.76831 0.38654,-1.80146 0.66934,-2.6c0.21289,-0.60111 0.46683,-1.59878 0.49551,-2.4c0.03574,-0.99804 -0.15088,-2.04509 0.36166,-2.83833c0.47537,-0.73572 1.55908,-0.91597 1.64282,-1.76167c0.07883,-0.79611 0.37064,-1.42899 0.87851,-2.2215c0.47842,-0.74657 0.62869,-1.38751 1.06433,-2.13567c0.42447,-0.72895 0.41287,-1.61423 1.25717,-1.64283c0.89963,-0.03048 1.68533,0 2.62534,0c1.008,0 1.87015,0 2.67465,0c0.89999,0 1.79999,0 2.70001,0c0.89999,0 1.79999,0 2.59998,0c0.95718,0 1.85718,0 2.60452,0c0.99417,0 1.93832,0 2.83832,0c0.85718,0 1.75717,0 2.55716,0c0.95718,0 1.85269,0 2.716,0c0.96317,0 1.784,0 2.68533,0c0.96533,0 1.79868,0 2.77716,0c0.82019,0 1.62152,0 2.52151,0c0.89999,0 1.79999,0 2.70001,0c0.89999,0 1.79999,0 2.59998,0c0.95718,0 1.87323,-0.11853 2.716,0.08533c0.88803,0.21481 1.6806,0.87194 2.48401,0.91467c0.79886,0.04249 1.7283,-0.19077 2.60001,0.036c0.85638,0.22279 1.3573,1.16251 1.39999,2.13067c0.03671,0.83253 0,1.66667 0,2.52883c0,0.9045 0,1.8045 0,2.7045c0,0.9 0,1.8 0,2.7c0,0.9 -0.01022,1.75472 -0.61066,2.5c-0.52826,0.65566 -1.19812,1.27964 -1.68933,2.04817c-0.40738,0.63736 -1.20093,1.18259 -1.80002,1.79467c-0.62616,0.63971 -1.082,1.48027 -1.54282,2.25267c-0.44125,0.7396 -1.11661,1.2457 -1.35269,2.009c-0.26489,0.85639 -0.42096,1.71432 -1.20316,2.2115c-0.73145,0.46492 -1.1889,1.09896 -1.82666,1.65866c-0.5896,0.51744 -0.99353,1.19911 -1.32733,2.078c-0.26791,0.70541 -0.53619,1.7733 -1.08334,2.33266c-0.67242,0.68746 -1.11191,1.23535 -1.664,1.99317c-0.55054,0.75565 -1.40952,1.20294 -1.7785,2.1215c-0.33853,0.84271 -0.18304,1.66006 -0.97217,2.3c-0.54807,0.44447 -1.05865,1.26507 -1.58533,2c-0.56195,0.78413 -1.20764,1.29963 -1.564,2.1c-0.358,0.80413 -0.81418,1.37711 -1.3045,2.15717c-0.46497,0.73973 -1.00262,1.55511 -1.52084,2.13216c-0.50833,0.56605 -1.19818,1.44754 -1.97333,1.924c-0.77509,0.47642 -1.54413,0.8995 -2.07999,1.50816c-0.62314,0.70781 -0.76959,1.54031 -1.52133,2.16784c-0.65555,0.54723 -1.51599,0.896 -1.82135,1.71066l-0.42599,0.6l-0.37799,0.9" id="svg_9" stroke-width="2" stroke="#000" fill="none"/>
  <path t="53308,53552,53552,53552,53568,53630,53680,53680,53696,53747,53801,53801,53832,53864,53914,53929,53929,54044,54080,54096,54120,54136,54136,54168,54177,54177,54192,54208,54232,54280,54280,54455,54455" d="m321,56c1,-1 1.79999,-1 2.70001,-1c0.89999,0 1.84467,-0.05753 2.62115,0.2215c0.85205,0.30619 1.59314,0.96648 1.67883,1.8785c0.0842,0.89605 0,1.7 0,2.6c0,0.9 -0.0719,1.73183 -0.57468,2.32533c-0.5368,0.6337 -0.85916,1.64946 -1.72531,1.9175c-0.86154,0.26662 -1.8606,0.25533 -2.70001,-0.1095c-0.68457,-0.29753 -1.46579,-1.03073 -1.83334,-1.83333c-0.34015,-0.74272 -0.22476,-1.69947 -0.66666,-2.5c-0.44379,-0.80397 -0.5,-1.66667 -0.5,-2.52083l0,-0.97917l0.02133,-0.77867" id="svg_10" stroke-width="2" stroke="#000" fill="none"/>
  <path t="54974,55108,55190,55190,55278,55320,55344,55376,55392,55392,55494,55529,55561,55629,55744,55808,55808,55921,55921,55954,55979,56027,56027,56095,56095" d="m328,42c0.88666,-0.99866 1.84656,-1.10015 2.51599,-0.91467c1.00043,0.2772 1.45541,1.21331 1.48401,2.11467c0.02853,0.89954 0,1.8 0,2.6c0,0.9 0.05814,1.96866 -0.7045,2.1955c-0.85837,0.25531 -1.81635,0.0045 -2.78082,0.0045c-0.72534,0 -1.71451,0.00006 -2.49384,0c-0.99918,-0.00008 -1.89935,-0.2215 -2.02069,-1.10017l0.08517,-0.78517l0.27185,-0.76283l0.44415,-0.7825" id="svg_11" stroke-width="2" stroke="#000" fill="none"/>
  <path t="56581,56787,56830,56830,56846,56846,56868,57008,57090,57090,57132,57228,57228,57276,57377,57393,57420,57468,57468,57516,57516,57563,57563,57630,57669,57708,57733,57740,57756,57772,57804,57804" d="m336,33c0.80133,-0.74267 1.32654,0.05134 1.564,0.76c0.36258,1.08206 0.43066,1.81862 0.436,2.74c0.00528,0.91065 0.17575,1.84826 -0.03601,2.63867c-0.23026,0.85945 -1.28531,0.86133 -2.13864,0.86133c-0.94,0 -1.92975,0.08868 -2.82535,0c-0.8457,-0.08374 -1,-1 -1,-1.75717c0,-0.8955 0,-1.75883 0,-2.722c0,-0.92083 -0.07086,-1.86927 0.42532,-2.4955c0.52698,-0.66506 1.27917,-1.02308 2.17468,-1.02533c0.89999,-0.00226 1.7045,0 2.7215,0l0.69934,0" id="svg_12" stroke-width="2" stroke="#000" fill="none"/>
  <path t="59575,59694,59709,59709,59728,59747,59764,59764,59780,59780,59797,59797,59813,59813,59830,59847,59863,59863,59885,59885,59897,59913,59930,59947,59947,59963,59963,59980,59997,59998,60013,60013,60030,60076,60076" d="m296,33c-0.11432,1.7 -0.8093,2.17527 -1.43201,2.8c-0.68405,0.68624 -0.56799,1.72083 -0.56799,2.5215c0,0.88917 0.10651,1.89143 -0.04166,2.65767c-0.17136,0.88618 -1.15665,1.31689 -1.71533,2.12083c-0.42236,0.60777 -0.24155,1.6 -0.24301,2.536c-0.00134,0.848 0.01306,1.80265 -0.56799,2.47866c-0.4892,0.56915 -1.37473,1.17991 -1.43201,2.08533c-0.05682,0.8982 0.09149,1.81254 -0.05716,2.55717c-0.1846,0.92475 -0.56799,1.59758 -0.91751,2.60683c-0.29227,0.84394 -0.86899,1.49567 -1.32083,2.28867c-0.38449,0.6748 -0.65182,1.59016 -0.92584,2.44733l-0.49466,0.7" id="svg_13" stroke-width="2" stroke="#000" fill="none"/>
  <path t="60968,61044,61077,61092,61092,61092,61100,61100,61116,61132,61132,61147,61163,61163,61196,61196,61236,61236,61260,61260,61276,61292,61300,61340,61356,61388,61388,61412,61428,61436,61452,61452,61468,61530,61530,61546,61573" d="m317,39c-0.61066,1.564 -1.46844,1.88497 -2.32132,2.44283c-0.54825,0.35862 -1.19501,1.07417 -1.92151,1.8c-0.55609,0.55558 -1.15717,1.15717 -1.85718,1.85717c-0.60001,0.6 -1.19998,1.2 -1.89999,1.9c-0.60001,0.6 -1.24078,1.1672 -1.70001,1.75717c-0.66211,0.85059 -0.97345,1.60809 -1.49866,2.3575c-0.49173,0.70164 -0.4361,1.68309 -0.83734,2.44933c-0.39713,0.75835 -0.87192,1.20258 -0.97467,2.25067c-0.0845,0.86203 -0.94366,1.09688 -1.55331,1.796c-0.58157,0.66693 -0.29944,1.74597 -0.72,2.58933c-0.32993,0.66164 -0.74133,1.436 -1,2.284l-0.36334,0.86333l-0.29999,0.891l-0.40533,0.709" id="svg_14" stroke-width="2" stroke="#000" fill="none"/>
  <path t="64438,64685,64700,64724,64748,64749,64772,64773,64788,64789,64804,64821,64837,64837,64847,64863,64880,64880,64898,64917,64917,64940,64941,64949,64965,64981,64981,64997,65013,65013,65060,65128,65128,65238" d="m267,95c1.70001,-0.9955 2.60001,-1 3.52084,-1c0.96448,0 1.68982,0 2.67899,0c0.77933,0 1.77866,0 2.59885,0c0.90134,0 1.85278,-0.01185 2.68533,0.284c0.70605,0.2509 1.62787,0.67329 2.616,0.716c0.89914,0.03886 1.69998,0 2.53598,0c1.02118,0 1.76852,0 2.7627,0c0.76532,0 1.71597,0 2.70132,0c0.89999,0 1.69998,0 2.53598,0c1.01669,0 1.71133,0 2.73868,0l0.94666,0l0.67868,0l1.11465,0" id="svg_15" stroke-width="2" stroke="#000" fill="none"/>
  <path t="66001,66109,66141,66141,66149,66164,66181,66197,66214,66214,66231,66231,66246,66247,66264,66264,66281,66281,66297,66314,66314,66332,66332,66348,66348,66372,66372,66388,66404,66414,66431,66431,66447,66464,66500,66556,66556,66624,66624,66768,66768" d="m265,116c0.88666,-0.99866 1.82535,-1 2.51599,-1c1.07333,0 1.98401,0 2.884,0c0.90451,0 1.76666,0 2.60001,0c0.97867,0 1.75266,0 2.65717,0c0.74734,0 1.78458,0.18884 2.68567,-0.11433c0.84854,-0.28549 1.04459,-1.3102 1.96167,-1.77133c0.77701,-0.3907 1.6955,-0.11433 2.67416,-0.11433c0.77399,0 1.6785,0 2.42584,0c0.99417,0 1.93832,0 2.83832,0c0.95718,0 1.85718,0 2.75717,0c0.79999,0 1.70001,0 2.60001,0c0.92084,0 1.88531,0 2.61066,0c0.98917,0 1.76849,0 2.76782,0l0.82019,0" id="svg_16" stroke-width="2" stroke="#000" fill="none"/>
  <path t="67564,67707,67707,67723,67742,67764,67781,67781,67804,67804,67814,67814,67831,67831,67847,67864,67881,67881,67897,67897,67914,67914,67932,67932,67947,67964,67964,67981,67997,67997,68014,68036,68046,68047,68064,68081,68101,68124,68244" d="m264,134c1,-1 1.79999,-1 2.70001,-1c0.89999,0 1.82083,0 2.62149,0c0.88916,0 1.87833,-0.00006 2.65765,0c0.99951,0.00009 1.78668,0.01964 2.67352,0.35266c0.70639,0.26526 1.71075,0.62933 2.54733,0.64734c0.89993,0.01936 1.68533,0 2.63599,0c0.76532,0 1.77063,-0.05832 2.564,0.05716c1.01346,0.14751 1.72931,0.63739 2.71466,0.85751c0.86804,0.19391 1.68533,0.08348 2.52133,0.08533c1.01669,0.00226 1.75421,-0.04466 2.72803,0.42534c0.77838,0.37569 1.63599,0.57466 2.43597,0.57466c0.90002,0 1.80002,0 2.70001,0l0.89999,0l0.89551,0.0045" id="svg_17" stroke-width="2" stroke="#000" fill="none"/>
  <path t="68955,69012,69020,69044,69061,69061,69077,69077,69084,69084,69085,69096,69116,69130,69130,69146,69146,69163,69180,69180,69196,69213,69230,69230,69246,69246,69264,69280,69298,69313,69340,69380,69380,69471,69471,69471,69509" d="m260,156c1.79999,0 2.70001,-0.00056 3.52084,0c0.96448,0.00067 1.70648,-0.03763 2.67917,0.22133c0.81863,0.21794 1.79373,0.6581 2.58932,0.74268c0.72211,0.07677 1.68982,0.036 2.62134,0.036c0.91064,0 1.76398,0 2.70532,0c0.76801,0 1.70935,0 2.71735,0c0.75598,0 1.6731,-0.09793 2.57733,0.01067c0.92804,0.11145 1.55319,0.60086 2.56781,0.86783c0.80167,0.21094 1.72153,0.12151 2.62152,0.12151c0.89999,0 1.79999,0 2.7045,0c0.86215,0 1.71634,0 2.6955,0l0.78934,0l0.72534,0l1.07465,0" id="svg_18" stroke-width="2" stroke="#000" fill="none"/>
  <path t="70642,70684,70694,70694,70701,70713,70730,70730,70746,70746,70763,70763,70763,70780,70781,70796,70796,70796,70813,70813,70830,70830,70830,70846,70846,70846,70863,70863,70880,70896,70896,70916,70932,70933,70948,70948,71013,71063,71063" d="m259,180c2.62534,0 3.48401,0 4.34732,0c0.89551,0 1.85269,0 2.75284,0c0.78519,0 1.74652,0 2.36151,0c1.22232,0 2.03833,0 2.85434,0c0.99866,0 1.66315,0 2.68399,0c0.79999,0 1.60001,0 2.60449,0c0.85266,0 1.81702,0 2.6315,0c0.8685,0 2.06366,0 2.655,0c0.83701,0 1.966,0 2.80002,0c0.82983,0 1.793,0 2.65631,0c0.90002,0 1.81934,0 2.65268,0c0.97849,0 1.79868,0 2.63599,0l1.01669,0l0.69464,0" id="svg_19" stroke-width="2" stroke="#000" fill="none"/>
  <path t="72119,72225,72225,72241,72260,72260,72280,72297,72313,72313,72333,72348,72348,72364,72364,72364,72380,72380,72396,72396,72413,72413,72430,72446,72446,72463,72480,72532,72668,72668" d="m262,199c2.59549,0.35716 3.35379,0.68814 4.24283,1.2955c0.76688,0.5239 1.55716,0.70383 2.45718,0.7045c0.82083,0.00061 1.784,0 2.64731,0c0.90002,0 1.81934,0 2.67352,0c0.97916,0 1.77914,0 2.57916,0c1,0 1.79999,0 2.79868,0c0.76532,0 1.71732,0 2.48532,0c0.94135,0 1.94934,0 2.81149,0c0.90451,0 1.8045,0 2.71518,0l0.91064,0l0.67868,0" id="svg_20" stroke-width="2" stroke="#000" fill="none"/>
  <path t="73580,73708,73724,73742,73742,73763,73779,73779,73796,73796,73796,73796,73820,73820,73820,73836,73836,73853,73853,73863,73863,73879,73896,73924,73948,73956,74020,74020,74095,74095" d="m263,221c1.79999,0 2.63599,0 3.48401,0c0.86331,0 1.89066,0 2.83765,0c0.72,0 1.845,0 2.6355,0c0.56369,0 1.44418,0 2.64151,0c0.88049,0 1.44418,0 2.716,0c0.66449,0 1.68533,0 2.47467,0c1.04401,0 1.90616,0 2.81067,0c0.89999,0 1.79999,0 2.69998,0c0.90002,0 1.70001,0 2.58536,0l0.95065,0l0.76532,0" id="svg_21" stroke-width="2" stroke="#000" fill="none"/>
  <path t="75085,75222,75238,75238,75262,75269,75285,75296,75314,75314,75329,75329,75346,75346,75346,75363,75363,75389,75389,75437,75437,75493,75493,75509,75509,75541" d="m264,241c1.75717,0 2.65268,0 3.51599,0c0.96317,0 1.884,0 2.784,0c0.90002,0 1.742,-0.15933 2.45718,0.11433c1.00558,0.3848 1.39218,1.14359 2.24283,1.55234c0.75854,0.3645 1.60001,0.33199 2.60001,0.33333c0.79999,0.00107 1.79999,0 2.60001,0c0.99982,0 1.78024,-0.04677 2.77866,0.00017c0.90833,0.04271 1.66949,0.35699 2.452,0.80116l0.58401,0.76266" id="svg_22" stroke-width="2" stroke="#000" fill="none"/>
  <path t="76426,76558,76574,76597,76597,76613,76637,76637,76669,76669,76709,76709,76734,76791,76857,76909,76963,76963" d="m266,258c2.58932,0 3.52084,0 4.32132,0c0.85333,0 1.79333,0 2.77884,0c0.78519,0 1.73584,0 2.50116,0c0.99417,0 1.74152,0 2.7627,0c0.93597,0 1.836,0 2.73599,0l0.89999,0l0.79999,0" id="svg_23" stroke-width="2" stroke="#000" fill="none"/>
  <path t="79706,79904,79940,79940,80012,80012,80044,80076,80285,80316,80324,80340,80340,80357,80357,80373,80380,80396,80413,80429,80446,80446,80463,80463,80484,80500,80516,80540,80540,80557,80573,80580,80596,80620,80620,80636,80646,80646,80663,80679,80679,80696,80696,80696,80713,80713,80713,80729,80729,80729,80746,80763,80763,80779,80779,80796,80820,80820,80836,80852,80863,80863,80879,80896,80913,80948,80989,80989,81013,81029,81030,81053,81077,81109,81133,81142,81396,81396,81437,81464,81486,81497,81533,81533,81542,81565,81905,81905,81920,81949,81949,81958,81966,81980,81997,81997,82013,82013,82030,82047,82063,82093,82094,82141,82141,82142,82165,82182,82205,82229,82245,82245,82254,82254,82269,82293,82317,82317,82326,82327,82349,82349,82349,82365,82366,82374,82381,82397,82413,82413,82430,82430,82447,82447,82447,82463,82485,82485,82509,82517,82517,82533,82549,82597,82597,82598,82621,82653,82701,82763,82821,82821,83161,83271,83271,83287,83310" d="m238,357c0,-1.75717 0,-2.65717 0,-3.40451c0,-0.99417 0,-1.93832 0,-2.83832c0,-0.95718 -0.08868,-1.86157 0,-2.75717c0.08374,-0.8457 1,-1 1.75717,-1c0.89549,0 1.75883,0 2.722,0c0.92082,0 1.82083,0 2.72083,0c0.90001,0 1.81255,-0.09149 2.55717,0.05716c0.92474,0.1846 1.5578,0.72406 2.60683,0.90683c0.82436,0.14362 1.73601,0.03601 2.636,0.03601c0.8,0 1.70006,-0.01041 2.60001,0c0.90018,0.01044 1.60629,0.53528 2.50015,0.87851c0.74155,0.28473 1.72519,0.12149 2.73318,0.12149c0.75598,0 1.70145,-0.02838 2.48831,0.22134c0.73587,0.23352 1.84119,0.64429 2.63101,0.7215c0.8194,0.08011 1.88068,0.05716 2.59467,0.05716c0.90533,0 1.87384,0 2.66733,0c0.77551,0 1.81467,0 2.78534,0c0.75717,0 1.65268,0 2.51599,0c0.98401,0 1.80533,0 2.65866,0c0.94,0 1.92535,0 2.82535,0c0.79999,0 1.70001,0 2.60001,0c0.89999,0 1.81067,0 2.72131,0c0.85333,0 1.79333,0 2.67868,0c0.79999,0 1.70001,0 2.60001,0c0.89999,0 1.78934,0.01068 2.39999,0.5c0.61066,0.48932 1.62598,0.49133 2.02533,1.11066c0.47955,0.74368 0.93195,1.58633 0.97467,2.48935c0.04251,0.89899 0,1.69998 0,2.60001c0,0.89999 0.05807,2.06848 -0.7045,2.2955c-0.78241,0.23294 -1.77951,0.00449 -2.64282,0.00449c-0.89551,0 -1.85269,0 -2.75269,0c-0.89999,0 -1.65717,0 -2.55267,0c-0.86331,0 -1.82648,0 -2.74731,0c-0.90451,0 -1.76666,0 -2.62085,0c-0.97916,0 -1.76849,0 -2.49384,0c-1.07465,0 -1.98532,0 -2.88531,0c-0.90451,0 -1.76666,0 -2.60001,0c-0.97849,0 -1.79868,0 -2.70001,0c-0.82083,0 -1.78531,0.00006 -2.51065,0c-0.98935,-0.00009 -1.80508,0.0625 -2.78934,-0.16666c-0.81888,-0.19067 -1.58554,-0.62643 -2.59549,-0.77618c-0.74109,-0.10989 -1.76852,-0.05716 -2.60452,-0.05716c-0.89999,0 -1.79999,0 -2.68533,0c-0.77631,0 -1.57632,0 -2.53583,0c-0.79349,0 -1.80949,0 -2.7645,0c-0.91451,0 -1.69966,0 -2.63966,0c-1.008,0 -1.76407,0.01065 -2.67467,0c-0.91084,-0.01068 -1.82526,-0.43787 -2.32533,-0.85068c-0.6962,-0.57471 -1.53659,-1.11331 -2.47467,-1.14932c-0.89934,-0.03455 -1.8,0 -2.7,0c-0.8,0 -1.636,0 -2.65266,0l-0.69467,0l-1.01666,0l-0.936,0" id="svg_24" stroke-width="2" stroke="#000" fill="none"/>
  <path t="86959,87155,87170,87189,87229,87261,87261,87309,87309,87333,87333,87349,87373,87397,87413,87429,87453,87453,87477,87477,87493,87494,87509,87518,87519,87534,87548,87564,87581,87606,87679,87679,87745,87745,87782,87782,87805,87821,87837,87848,87870,87886,87886,87902,87902,87914,87931,87948,87948,87964,87964,87981,87981,87998,87998,88013,88013,88031,88031,88048,88048,88064,88064,88081,88081,88098,88114,88134,88134,88150,88150,88166,88181,88198,88214,88214,88214,88231,88232,88248,88248,88264,88264,88280,88298,88298,88314,88314,88331,88331,88348,88365,88365,88381,88381,88398,88398,88414,88414,88431,88448,88464,88464,88481,88498,88518,88518,88534,88548,88548,88564,88581,88598,88614,88614,88614,88631,88631,88631,88648,88648,88664,88681,88681,88681,88698,88698,88698,88698,88714,88714,88731,88731,88747,88764,88764,88781,88781,88807,88846,89048,89048,89144,89144,89190,89190,89206,89214,89231,89248,89264,89264,89281,89299,89314,89314,89330,89348,89365,89365,89381,89381,89398,89398,89414,89414,89446,89446,89462,89478,89478,89502,89518,89534,89550,89564,89581,89598,89629,89630,89645,89645,89661,89661,89670,89681,89698,89714,89734,89734,89750,89750,89750,89764,89781,89798,89814,89814,89831,89831,89847,89870,89870,89886,89886,89910,89918,89918,89931,89948,89964,89990,89990,90014,90014,90014,90046,90046,90062,90078,90094,90101,90102,90117,90133,90173,90205,90206,90229,90230,90230,90253,90277,90277,90285,90301,90302,90313,90330,90346,90347,90364,90381,90396,90397,90415,90430,90430,90446,90464,90486,90486,90501,90518,90518,90534,90558,90589,90590,90606,90606,90606,90638,90638,90654,90654,90663,90680,90696,90713,90714,90734,90734,90749,90750,90766,90766,90766,90781,90781,90797,90814,90814,90830,90831,90847,90864,90864,90864,90881,90901,90917,90918,90931,90931,90947,90965,90990,91006,91014,91061,91070,91102,91102,91134,91166,91182,91213,91245,91287,91377,91377,92148,92275,92275,92387,92556,92606,92606,92663,92663,92678" d="m273,80c0,1.8 0,2.7 0,3.6c0,0.81067 0.00006,1.7215 0,2.61067c-0.00009,0.98917 0.13885,1.81435 -0.22134,2.76783c-0.24939,0.66013 -0.76822,1.52132 -0.77866,2.4215c-0.01041,0.89994 0,1.8 0,2.7c0,0.9 -0.03104,1.66617 -0.35266,2.55717c-0.27277,0.75562 -0.59497,1.739 -0.63666,2.50684c-0.05154,0.94933 -0.01068,1.836 -0.01068,2.636c0,0.89999 0,1.8 0,2.7c0,0.9 0,1.8045 0,2.66666c0,0.85417 0,1.83334 0,2.62267c0,1.04401 0,1.8 0,2.71067c0,0.9 0,1.8 0,2.7c0,0.9 0,1.8 0,2.55717c0,0.8955 0,1.75883 0,2.722c0,0.9315 0,1.84234 0,2.54167c0,1.179 0,1.95833 0,2.8125c0,0.91933 0,1.82383 0,2.57116c0,0.9955 0,1.7955 0,2.7955c0,0.8 0,1.8 0,2.58934c0,1.04399 0,1.836 0,2.69466c0,0.86334 0,1.88 0,2.71735c0,0.96533 0,1.79866 0,2.63199c0,0.86217 0,1.76668 0,2.66667c0,0.92134 0,1.83333 0,2.75067c0,0.74399 0,1.78 0,2.4975c0,0.909 0,1.85316 0,2.84734c0,0.74733 0.08914,1.67336 -0.16666,2.57117c-0.24594,0.86317 -0.73837,1.65585 -0.82266,2.45866c-0.10727,1.02182 0.0051,1.74933 -0.36334,2.62199c-0.40353,0.95573 -0.62933,1.57751 -0.64734,2.586c-0.01413,0.79189 0,1.82384 0,2.57117c0,0.99417 0,1.75951 0,2.71017c0,0.98534 0.17355,1.92358 -0.08533,2.68533c-0.30176,0.88792 -0.89667,1.61012 -0.91467,2.52133c-0.0134,0.67853 0,1.79333 0,2.67867c0,0.8 0.00586,1.70001 0,2.60001c-0.00534,0.82138 -0.16312,1.73431 -0.35266,2.40982c-0.21793,0.77667 -0.5264,1.81822 -0.61133,2.75418c-0.0755,0.83195 0.05057,1.84357 -0.09317,2.57883c-0.18259,0.93387 -0.82797,1.81602 -0.90683,2.5145c-0.10269,0.90955 -0.03601,1.78534 -0.03601,2.79333c0,0.69867 0,1.38133 0,2.57733c0,0.91467 0,1.888 0,2.65601c0,0.94133 0,1.94933 0,2.74133c0,0.85866 0,1.722 0,2.61749c0,0.95717 0,1.85735 0,2.6425c0,0.95067 0,1.716 0,2.71017c0,0.74733 0,1.76849 0,2.7045c0,0.89999 0,1.8 0,2.7c0,0.8 0,1.7 0,2.636c0,0.84799 0,1.71133 0,2.60683c0,0.95717 -0.15039,1.90602 0.17065,2.6425c0.37372,0.85732 1.18466,1.17056 1.65869,2.23067c0.32092,0.71768 0.17065,1.72 0.17065,2.48534c0,0.99417 -0.15622,1.75517 0.01068,2.76266c0.14362,0.86688 1.00989,1.02083 1.70398,1.72c0.54355,0.54753 0.28534,1.616 0.28534,2.51601c0,0.89999 0,1.79999 0,2.7045c0,1.017 0,1.71632 0,2.6955c0,0.78934 0,1.83333 0,2.58934c0,0.91066 0,1.81065 0,2.71066c0,0.90134 0,1.86667 0,2.72083c0,0.97917 0,1.76851 0,2.49384c0,1.07468 0,1.88533 0,2.78984c0,1.01683 0,1.6955 0,2.674c0,0.82016 0,1.77867 0,2.67867c0,0.74734 0.09012,1.75119 -0.03601,2.50684c-0.18509,1.10901 -0.8761,1.82233 -0.9595,2.53601c-0.10446,0.89392 0.09341,1.80643 -0.01517,2.71066c-0.11145,0.92819 -0.56528,1.58752 -0.82266,2.58932c-0.20215,0.7868 -0.19537,1.61661 -0.51932,2.59549c-0.25238,0.76266 -0.61874,1.64606 -0.64734,2.60452c-0.02682,0.8996 0,1.79999 0,2.59998c0,0.90002 -0.017,1.80942 -0.42532,2.61069c-0.39008,0.76541 -0.56424,1.61002 -0.57468,2.58932c-0.00839,0.78931 0.11789,1.52426 -0.02084,2.5c-0.14337,1.00845 -0.67416,1.6395 -0.89383,2.61465c-0.19547,0.86771 -0.06802,1.68549 -0.08533,2.58536c-0.01801,0.93649 -0.30182,1.77676 -0.57468,2.47464c-0.36401,0.93097 -0.24396,1.97882 -0.59198,2.82535c-0.27591,0.67108 -0.79544,1.41077 -0.8335,2.32117c-0.03418,0.81757 -0.63266,1.56354 -0.99985,2.22049c-0.48019,0.85913 -0.60892,1.62128 -0.91599,2.573c-0.28253,0.8757 -0.83966,1.42429 -1.06317,2.38535c-0.20639,0.88754 -0.22473,1.82932 -0.54169,2.52084c-0.45419,0.99097 -0.77921,1.57913 -1.17917,2.37915c-0.39987,0.7998 -0.86935,1.54712 -1.13333,2.43335c-0.25043,0.84076 -0.40775,1.63904 -0.88266,2.336c-0.50188,0.73651 -0.19107,1.8219 -0.34116,2.58331c-0.18404,0.93359 -0.6682,1.63412 -0.85751,2.64734c-0.11084,0.5932 -0.05345,1.60107 -0.09599,2.39999c-0.04272,0.80237 -0.29292,1.82281 -0.69383,2.54285c-0.52379,0.9407 -1.20752,1.6445 -1.291,2.41434c-0.09654,0.89029 0.19583,1.78815 -0.04617,2.74283c-0.22458,0.88596 -0.86989,1.27838 -1.39034,2.01599c-0.56638,0.80273 -0.56799,1.78851 -0.56799,2.65067c0,0.83334 0,1.81183 0,2.63202c0,0.90134 0,1.80133 0,2.70132c0,0.89999 0,1.79999 0,2.70001c0,0.89999 0,1.79999 0,2.59998c0,0.90002 0,1.80002 0,2.70001c0,0.89999 0,1.79999 0,2.70001c0,0.90015 0,1.68533 0,2.62534c0,1.008 0,1.76398 0,2.67465c0,0.91068 0.00017,1.82117 0.036,2.63867l0.40001,0.78934l0.864,0.07199l0.90134,0" id="svg_25" stroke-width="2" stroke="#000" fill="none"/>
  <path t="93539,93674,93690,93690,93904,93904" d="m279,350c0,2.62534 0,3.48532 0,4.21066l0,0.98917l0,0.96417" id="svg_26" stroke-width="2" stroke="#000" fill="none"/>
  <path t="95618,95694,95728,95736,95736,95746,95746,95763,95763,95780,95780,95780,95796,95796,95813,95813,95813,95830,95830,95846,95846,95846,95863,95863,95881,95881,95896,95896,95896,95928,95996,95996,96051,96051,96083,96083,96115,96131,96146,96162,96170,96170,96186,96210,96234,96234,96242,96250,96264,96281,96281,96297,96297,96314,96331,96331,96347,96347,96364,96364,96364,96381,96381,96397,96397,96418,96418,96442,96442,96458,96458,96466,96481,96497,96497,96514,96514,96531,96531,96547,96547,96564,96564,96581,96581,96581,96597,96597,96614,96614,96630,96631,96646,96646,96664,96681,96681,96681,96697,96697,96714,96731,96731,96747,96747,96770,96770,96771,96781,96781,96797,96814,96814,96831,96831,96847,96847,96863,96880,96880,96896,96914,96946,96970,96970,96978,96997,96997,97014,97031,97047,97047,97064,97081,97097,97097,97123,97123,97131,97147,97164,97164,97180,97180,97197,97214,97214,97231,97231,97250,97251,97266,97267,97281,97281,97297,97314,97314,97331,97331,97347,97364,97381,97397,97414,97414,97430,97451,97483,97483,97499,97531,97531,97578,97606,97618,97652,97712,97743,97743,97774,97775,97775,97791,97798,97815,97831,97847,97848,97870,97870,97902,97902,97919,97934,97950,97966,97981,97997,97997,98014,98032,98048,98048,98048,98065,98094,98094,98110,98118,98134,98135,98147,98164,98181,98197,98214,98215,98231,98232,98232,98247,98248,98264,98264,98283,98283,98297,98297,98315,98331,98331,98347,98347,98364,98364,98381,98381,98398,98398,98414,98415,98431,98432,98447,98447,98464,98464,98481,98481,98497,98497,98514,98514,98531,98548,98548,98564,98564,98581,98581,98597,98597,98615,98631,98648,98665,98681,98698,98698,98714,98730,98731,98747,98765,98780,98780,98798,98798,98798,98822,98822,98838,98848,98865,98880,98897,98897,98914,98930,98959,98959,98990,98990,99006,99006,99015,99030,99048,99064,99080,99110,99110,99134,99134,99158,99158,99175,99191,99206,99214,99230,99230,99246,99263,99264,99286,99318,99318,99350" d="m295,74c-0.99551,1.7 -1,2.636 -1,3.48534c0,0.91917 0.07837,1.92113 -0.03601,2.67867c-0.14709,0.97401 -0.68967,1.62727 -0.87997,2.60533c-0.14441,0.74226 -0.10712,1.56217 -0.36801,2.54533c-0.23639,0.89087 -0.59698,1.679 -0.67999,2.48534c-0.082,0.79654 -0.03595,1.8045 -0.03601,2.65717c-0.00009,0.964 0.04913,1.76341 -0.05716,2.533c-0.14572,1.05493 -0.70502,1.72855 -0.88568,2.6715c-0.15088,0.78741 -0.05716,1.7595 -0.05716,2.553c0,1.016 0,1.971 0,2.8855c0,0.78516 0,1.73583 0,2.50117c0,0.99416 0,1.7415 0,2.76266c0,0.936 0,1.836 0,2.736c0,0.9 0,1.7 0,2.6c0,0.936 0,1.784 0,2.64734c0,0.8955 0,1.85266 0,2.75266c0,0.9 0,1.65717 0,2.55267c0,0.86333 0,1.84734 0,2.83267c0,0.72533 0,1.71466 0,2.51466c0,1 0,1.8 0,2.6c0,1.00001 -0.02194,1.80027 0.00134,2.79867c0.01785,0.76591 0.37241,1.67334 0.71466,2.48534c0.31296,0.74249 0.28333,1.71733 0.284,2.7115c0.00052,0.74733 0,1.76849 0,2.60449c0,0.90018 0,1.68533 0,2.636c0,0.76534 0.00055,1.76401 0,2.564c-0.00067,1 0.03934,1.81696 -0.22134,2.8c-0.21713,0.81885 -0.64658,1.79471 -0.7215,2.40001c-0.09845,0.79565 -0.05716,1.79999 -0.05716,2.59999c0,0.99983 0.05115,1.96545 -0.00134,2.916c-0.0426,0.77141 -0.46609,1.69308 -0.71466,2.40001c-0.29987,0.85281 -0.284,1.81732 -0.284,2.73466c0,0.74399 0.15665,1.81294 -0.08533,2.54666c-0.30411,0.92215 -0.86264,1.68535 -0.90399,2.41333c-0.05612,0.98796 0.0296,1.81961 -0.17734,2.95601c-0.14392,0.79033 -0.388,1.29849 -0.66669,2.5c-0.18188,0.78416 -0.16666,1.63783 -0.16666,2.65466c0,0.67867 0.11035,1.67464 -0.08533,2.56267c-0.17545,0.79622 -0.60391,1.47359 -1.21017,2.35883c-0.52478,0.76628 -0.70383,1.55717 -0.7045,2.45717c-0.00067,0.90001 0,1.82083 0,2.784c0,0.69067 0.189,1.69356 -0.22134,2.61601c-0.29907,0.67232 -0.77332,1.49995 -0.77866,2.31065c-0.00601,0.91066 0,1.76401 0,2.70401c0,0.98534 0.09149,1.89787 -0.05716,2.6425c-0.1846,0.92474 -0.72406,1.5578 -0.90683,2.60683c-0.14362,0.82436 0.05682,1.75192 -0.12134,2.52133c-0.22549,0.97383 -0.74832,1.60654 -0.89383,2.61467c-0.1174,0.81334 -0.02084,1.71066 -0.02084,2.69983c0,0.77934 0.09296,1.7914 -0.05716,2.55284c-0.18405,0.93358 -0.67325,1.63313 -0.85751,2.646c-0.13763,0.75655 -0.05197,1.71663 -0.08533,2.60133c-0.02859,0.75879 -0.38748,1.6389 -0.64734,2.34734c-0.3667,0.99971 -0.35266,1.95267 -0.35266,2.85266c0,0.90001 0.16815,1.83644 -0.08533,2.60001c-0.25635,0.77217 -0.88608,1.5033 -0.91467,2.52133c-0.01904,0.67839 0,1.65717 0,2.67867c0,0.8 0,1.7 0,2.60001c0,0.89999 0,1.79999 0,2.60133c0,0.96533 0,1.81949 0,2.79866c0,0.78934 0,1.51466 0,2.58934c0,0.91066 0,1.81065 0,2.612c0,0.96533 0,1.79866 0,2.77733c0,0.774 0,1.674 0,2.53734c0,0.96317 0,1.88399 0,2.784c0,0.89999 0,1.8 0,2.7c0,0.8 0.16769,1.72604 -0.04166,2.52083c-0.22806,0.8658 -1.01364,1.43752 -1.39035,1.99518c-0.62466,0.92471 -0.56799,1.96799 -0.56799,2.65866c0,1.06816 0,1.92534 0,2.82533c0,0.79999 0,1.70001 0,2.60001c0,0.89999 0,1.81067 0,2.7215c0,0.69934 0.03229,1.88 -0.02084,2.6785c-0.04007,0.60214 -0.3165,1.60892 -0.68365,2.39999c-0.46912,1.01071 -0.89203,1.53992 -1.17401,2.57867c-0.20508,0.75543 -0.12149,1.67401 -0.12149,2.53732c0,0.98401 0,1.80533 0,2.65866c0,0.94135 0,1.70935 0,2.66135c0,0.76532 0,1.76401 0,2.564c0,1 0,1.80002 0,2.79984c0,0.77933 0,1.77884 0,2.68417c0,0.952 0,1.71732 0,2.716c0,0.79999 0,1.79999 0,2.60001c0,0.99982 0,1.77914 0,2.77847c0,0.82019 0,1.6575 0,2.50684c0,0.91919 0,1.91467 0,2.71469c0,0.99982 0,1.77914 0,2.77847c0,0.82019 0,1.72153 0,2.62152c0,0.89999 0,1.79999 0,2.69998c0,0.90134 0,1.58536 0,2.52536c0,1.008 0,1.87015 0,2.77466c0,0.81067 -0.06412,1.72641 0.03601,2.61066c0.11325,1.00018 0.43964,1.57278 0.67999,2.38934c0.2883,0.97946 0.28333,1.91467 0.284,2.87915c0.00058,0.82083 0,1.72086 0,2.62085c0,0.89999 0.12643,1.67624 0.57468,2.5c0.42984,0.78992 0.42532,1.7215 0.42532,2.42084c0,1.17899 0,1.95831 0,2.8125c0,0.86215 0,1.76666 0,2.66666c0,0.89999 0,1.79999 0,2.70001c0,0.90015 0,1.68533 0,2.63599c0,0.76532 0,1.75949 0,2.50684c0,1.02118 0,1.95715 0,2.85718c0,0.89999 0,1.79999 0,2.59998c0,0.95718 0,1.85269 0,2.54733c0,1.02734 0,1.974 0,2.82733l0,0.94" id="svg_27" stroke-width="2" stroke="#000" fill="none"/>
  <path t="100255,100305,100305,100305,100316,100316,100316,100332,100332,100332,100347,100347,100348,100348,100348,100364,100364,100364,100364,100364,100364,100379,100380,100380,100380,100380,100380,100397,100397,100397,100397,100397,100397,100415,100415,100415,100415,100430,100430,100430,100447,100447,100447,100464,100464,100464,100480,100480,100480,100497,100497,100514,100514,100530,100530,100547,100547,100547,100564,100564,100580,100580,100597,100597,100597,100614,100614,100614,100630,100647,100647,100647,100647,100664,100664,100664,100680,100680,100680,100680,100697,100697,100714,100714,100714,100730,100730,100749,100749,100749,100764,100764,100781,100781,100781,100797,100797,100815,100815,100815,100830,100830,100830,100847,100864,100864,100864,100881,100881,100881,100881,100897,100897,100897,100914,100914,100930,100930,100930,100931,100947,100947,100964,100984,100984,100997,100997,101014,101031,101048,101048,101064,101064,101081,101081,101081,101098,101098,101098,101115,101115,101115,101136,101152,101152,101168,101169,101169,101184,101185,101198,101215,101215,101231,101231,101248,101264,101265,101282,101298,101298,101315,101315,101337,101338,101353,101363,101379,101396,101397,101415,101430,101446,101464,101465,101481,101481,101497,101498,101514,101514,101530,101530,101530,101547,101547,101547,101547,101547,101563,101564,101564,101564,101579,101580,101596,101597,101597,101613,101614,101614,101629,101646,101647,101663,101664,101679,101680,101696,101697,101715,101730,101730,101747,101747,101747,101764,101780,101780,101797,101814,101814,101830,101830,101830,101847,101847,101864,101864,101880,101880,101880,101897,101897,101897,101914,101914,101914,101914,101930,101930,101930,101930,101947,101947,101947,101947,101947,101948,101964,101964,101964,101964,101964,101964,101965,101966,101980,101980,101980,101980,101980,101980,101980,101981,101997,101997,101997,101997,101997,101997,102014,102014,102014,102014,102030,102030,102030,102030,102047,102064,102064,102080,102097,102097,102114,102114,102114,102130,102147,102170,102170,102225,102225,102242,102249,102264,102280,102305,102314,102314,102338,102347,102495,102797" d="m284,81c0,2.968 0,3.65067 0,4.69466c0,0.972 0,1.791 0,2.69633c0,1.01434 0,1.69234 0,2.55033c0,1.14434 0,2.07834 0,2.58134c0,1.048 0,1.581 0,3.144c0,0.49067 0,1.428 0,2.33334c0,0.90533 0,1.368 0,2.84283c0,0.5265 0,1.6185 0,2.178c0,1.131 0,1.6965 0,2.8125c0,1.07999 0,2.12 0,2.625c0,0.98 0,1.45499 0,2.82c0,0.86 0,1.68 0,2.46c0,1.44 0,2.1 0,3.015c0,1.08 0,1.794 0,2.472c0,1.196 0,2 0,2.822c0,1.03117 0,1.71667 0,2.55133c0,1.00134 0,1.80134 0,2.80133c0,0.8 0,1.8 0,2.60001c0,1 0,1.8 0,2.60001c0,1 0,1.79999 0,2.80133c0,0.83466 0,1.76534 0,2.55133c0,0.82201 0,1.88066 0,2.80066c0,0.76001 0,1.78835 0,2.74667c0,0.8625 0,1.52083 0,2.53334c0,0.924 0,1.71599 0,2.472c0,1.13733 0,1.79999 0,2.84399c0,0.68266 0,1.88 0,2.60899c0,1.04167 0,1.84167 0,2.64168c0,1.0045 0,1.85716 0,2.82133c0,0.80399 0.01178,1.62607 -0.00015,2.65717c-0.01041,0.90085 -0.15088,1.92656 -0.35251,2.5215c-0.27365,0.80742 -0.55481,1.80249 -0.67267,2.63599c-0.13181,0.93207 -0.33728,1.71405 -0.54935,2.53868c-0.27142,1.05545 -0.38925,1.76268 -0.42398,2.73866c-0.03064,0.86087 -0.22565,1.80737 -0.52219,2.54916c-0.28317,0.70844 -0.58777,1.57784 -0.87915,2.59883c-0.20612,0.72229 -0.39227,1.45822 -0.69983,2.51683c-0.19089,0.65707 -0.51483,1.52638 -0.77884,2.67934c-0.15051,0.65732 -0.27466,1.64557 -0.47852,2.5005c-0.15366,0.64447 -0.36606,1.62482 -0.84149,2.586c-0.38358,0.77551 -0.75262,1.59192 -1.02267,2.37733c-0.30029,0.87341 -0.53546,1.69772 -0.86267,2.47733c-0.36365,0.86641 -0.87894,1.61205 -0.91614,2.52267c-0.03488,0.85338 -0.30658,1.619 -0.64719,2.48849c-0.36343,0.92776 -0.3154,1.71582 -0.43668,2.50751c-0.15427,1.007 -0.44043,1.6812 -0.71732,2.36667c-0.40256,0.99657 -0.70547,1.78705 -0.91333,2.54666c-0.30038,1.09775 -0.52463,2.08395 -0.78534,2.79016c-0.35822,0.97034 -0.43106,1.78636 -0.58401,2.57918c-0.15598,0.80841 -0.61533,1.52826 -0.83066,2.51466c-0.21097,0.96643 -0.08533,1.77066 -0.08533,2.71066c0,0.69067 0,1.8 0,2.65866c0,0.86334 0.13239,1.80565 -0.22134,2.61618c-0.3132,0.71765 -0.74612,1.55566 -0.77417,2.30432c-0.0372,0.99348 -0.00449,1.93834 -0.00449,2.83833c0,0.95717 0,1.85718 0,2.75717c0,0.8 0,1.7 0,2.60001c0,0.92082 0,1.7215 0,2.61066c0,0.98917 0,1.76851 0,2.76801c0,0.774 0,1.683 0,2.483c0,0.95999 0,1.785 0,2.7c0,1.005 0,1.72366 0,2.47433c0,0.77466 0,1.56534 0,2.76367c0,0.79132 0,1.92833 0,2.62965c0,1.20001 0,1.929 0,2.97067c0,0.81067 0,1.45717 0,2.68268c0,0.79648 0,1.54797 0,2.50748c0,0.9765 0,1.80984 0,2.78851c0,0.77399 0,1.6785 0,2.42584c0,0.99417 0,1.93832 0,2.84283c0,0.91931 0,1.7735 0,2.75266c0,0.78934 0,1.51468 0,2.62534c0,0.85867 0,1.72198 0,2.62201c0,0.91931 0,1.7735 0,2.75266c0,0.79999 0,1.60001 0,2.60001c0,0.79999 0,1.80133 0,2.63599c0,0.93066 0,1.71667 0,2.53867c0,1.05869 0.03809,1.78046 -0.05716,2.73517c-0.11362,1.13919 -0.29742,1.79962 -0.44284,2.51102c-0.14932,0.73059 -0.36084,1.80994 -0.44284,2.83548c-0.05469,0.68411 -0.05579,1.41068 -0.05716,2.64368c-0.00107,0.95734 -0.00171,1.47614 0.02084,2.58334c0.0119,0.58472 0.01205,1.18887 0.14581,3.08331c0.0463,0.65564 0.11588,1.32016 0.186,1.995c0.0712,0.68518 0.15372,1.37936 0.29468,2.80002c0.0719,0.7247 0.18964,2.20477 0.23151,2.95917c0.04214,0.75897 0.07175,1.5184 0.10648,2.27249c0.03427,0.74423 0.05994,1.47461 0.12451,2.1825c0.17902,1.9621 0.31873,2.54144 0.45816,3.08151c0.2569,0.99503 0.60086,1.85724 0.86401,2.65201c0.35129,1.06097 0.48621,1.73541 0.54666,2.716c0.04056,0.65768 0.02133,1.69565 0.02133,2.77866c0,0.69867 0,1.34134 0,2.68799c0,0.80817 0,1.59335 0,2.53336c0,1.008 0,1.836 0,2.71732c0,0.70801 0,1.68933 0,2.64301c0,0.91434 0,1.81433 0,2.69968c0,0.94 0,1.63065 0,2.70398c0,0.81067 0,1.71066 0,2.61069c0,0.89999 0.02536,1.80038 0,2.59998c-0.02859,0.9014 -0.5,1.70001 -0.94733,2.491l-0.55267,0.20901" id="svg_28" stroke-width="2" stroke="#000" fill="none"/>
  <path t="103791,103830,103838,103838,103838,103850,103850,103864,103864,103864,103864,103881,103881,103881,103881,103881,103881,103897,103897,103897,103897,103897,103897,103914,103914,103914,103914,103914,103914,103930,103930,103930,103930,103930,103947,103947,103947,103947,103964,103965,103965,103965,103965,103980,103981,103981,103981,103997,103998,103998,104014,104014,104014,104014,104030,104030,104047,104047,104064,104064,104064,104080,104080,104097,104097,104097,104114,104114,104114,104130,104130,104147,104147,104164,104246,104261,104261,104279,104295,104320,104351,104351,104391,104391,104403,104419,104431,104431,104449,104481,104481,104513,104513,104521,104537,104548,104548,104565,104565,104581,104581,104581,104597,104597,104597,104598,104615,104615,104615,104616,104616,104631,104632,104632,104632,104647,104648,104648,104648,104648,104648,104665,104665,104665,104665,104666,104681,104682,104682,104697,104697,104721,104721,104721,104721,104737,104737,104737,104747,104764,104781,104782,104782,104801,104801,104801,104814,104829,104829,104830,104846,104847,104847,104864,104864,104880,104880,104880,104896,104897,104897,104914,104914,104914,104929,104930,104946,104946,104947,104963,104964,104980,104980,104980,104997,104997,105013,105014,105030,105030,105047,105047,105064,105064,105080,105080,105096,105097,105097,105113,105114,105114,105114,105130,105130,105146,105147,105147,105163,105164,105179,105180,105196,105197,105197,105213,105214,105214,105229,105230,105246,105247,105247,105264,105264,105264,105279,105280,105280,105297,105297,105297,105320,105320,105321,105329,105346,105363,105364,105380,105380,105380,105396,105397,105414,105414,105430,105430,105431,105431,105447,105447,105447,105464,105464,105480,105480,105497,105497,105514,105514,105514,105530,105530,105546,105547,105547,105563,105579,105580,105596,105614,105614,105630,105647,105664,105680,105680,105697,105697,105714,105714,105730,105730,105747,105747,105764,105764,105764,105780,105797,105797,105815,105816,105816,105830,105830,105847,105847,105847,105865,105865,105881,105897,105914,105930,105930,105953,105953,105969,105986,106010,106032,106033,106080,106087,106087,106111,106130,106286" d="m281,78c-1.97916,1.04166 -2.15005,2.00556 -2.42532,2.8c-0.20947,0.60449 -0.44489,1.61085 -0.63602,2.436c-0.21878,0.9446 -0.65817,1.72804 -0.93866,2.34734c-0.31055,0.68569 -0.69272,1.91255 -0.83066,2.87133c-0.07346,0.51053 -0.14969,1.58692 -0.18402,2.14133c-0.0347,0.56026 -0.14487,2.2381 -0.20682,2.78267c-0.12173,1.07034 -0.20853,1.59702 -0.38916,2.64666c-0.09085,0.52786 -0.3909,2.14106 -0.48917,2.69567c-0.19882,1.12212 -0.29214,1.68258 -0.37933,2.23734c-0.16876,1.07388 -0.35889,2.5412 -0.39951,2.97733c-0.10858,1.16589 -0.1315,1.86982 -0.20535,2.54566c-0.11398,1.04315 -0.34311,2.165 -0.41599,2.56033c-0.15106,0.81932 -0.3497,2.1237 -0.41467,3.041c-0.06595,0.93097 -0.07108,1.39641 -0.08084,2.3075c-0.0137,1.27643 -0.00449,2.03917 -0.00449,3.06817c0,0.63267 0,1.84167 0,2.44167c0,0.9 0.00595,2.10004 -0.00134,2.69866c-0.01074,0.88065 -0.02203,1.73033 -0.28265,2.716c-0.2356,0.89108 -0.63635,1.88117 -0.69516,2.68533c-0.07294,0.99756 -0.02084,1.8 -0.02084,2.60001c0,1.0045 0,1.63599 0,2.82133c0,0.80399 0,1.62599 0,2.65717c0,0.6855 0,1.52016 0,2.5215c0,0.79999 0,1.79866 0,2.564c0,1.07883 0,1.936 0,2.836c0,0.8 0,1.7 0,2.60001c0,0.92082 -0.0701,1.89131 0.03601,2.57466c0.14917,0.96065 0.81592,1.59264 0.9595,2.52533c0.14243,0.92511 0.00232,1.784 0.00449,2.64734c0.00226,0.90001 0.16666,1.81934 0.5,2.65266c0.33334,0.83333 0.49774,1.69548 0.5,2.60001c0.00229,0.92082 0,1.7215 0,2.61066c0,0.98933 0,1.78934 0,2.78934c0,0.82133 0,1.51433 0,2.64301c0,0.67133 0,1.39867 0,2.166c0,1.19099 0,1.991 0,2.791c0,0.79999 0,1.59999 0,2.80032c0,0.80867 0,1.64134 0,2.51401c0,1.41899 0,1.92833 0,2.991c0,0.54533 0,1.644 0,2.18933c0,1.57201 0,2.06216 0,2.9865c0,0.85634 0,1.65268 0,2.75217c0,1.0005 0.00946,1.6042 0,2.83334c-0.00534,0.69339 -0.15906,1.83501 -0.28534,2.38666c-0.2222,0.97064 -0.39429,1.65379 -0.71466,2.61334c-0.27438,0.82185 -0.76282,1.636 -0.94284,2.57616c-0.18057,0.94308 -0.03238,1.92468 -0.06784,2.60384c-0.04398,0.84216 -0.26733,1.83765 -0.48932,2.63251c-0.21033,0.7531 -0.48199,1.85892 -0.5,2.6875c-0.01901,0.87479 0,1.51999 0,2.51733c0,0.81599 0.02637,1.63237 -0.00449,2.86333c-0.017,0.67851 -0.21115,1.87546 -0.34818,2.40533c-0.21317,0.82434 -0.49692,1.87837 -0.62201,2.82201c-0.08969,0.67654 -0.24051,1.64825 -0.45065,2.45065c-0.2157,0.82368 -0.4942,1.84953 -0.55383,2.75385c-0.0672,1.01883 -0.02084,1.82083 -0.02084,2.62083c0,1.0045 0,1.63599 0,2.82133c0,0.80399 0.00797,1.62602 -0.00015,2.657c-0.00531,0.67505 -0.17712,1.74979 -0.49985,2.42166c-0.39166,0.81538 -0.45786,1.72647 -0.72134,2.69983c-0.16299,0.60213 -0.68463,1.6226 -0.76797,2.42551c-0.08893,0.8568 -0.00317,1.62137 -0.01083,2.79616c-0.00531,0.81454 0.02069,1.39676 -0.1665,2.57851c-0.1431,0.90334 -0.35718,1.47337 -0.54935,2.31467c-0.22702,0.99394 -0.26599,1.87477 -0.28415,2.8855c-0.01474,0.82079 -0.0513,1.49252 -0.28384,2.4825c-0.18872,0.80341 -0.60175,1.97604 -0.67999,2.66667c-0.11087,0.97839 -0.03598,1.66049 -0.03601,2.436c-0.00009,1.29315 0.06015,1.98807 -0.08533,2.81332c-0.18066,1.02493 -0.5683,1.61984 -0.79333,2.82266c-0.1489,0.79593 -0.05859,1.36966 -0.34268,2.65735c-0.15625,0.70822 -0.48859,1.36118 -0.65717,2.34265c-0.13687,0.79688 -0.10776,1.6261 -0.12164,2.65735c-0.01242,0.92148 -0.05112,1.6127 -0.28384,2.604c-0.18863,0.80341 -0.53455,1.52975 -0.67999,2.64532c-0.12573,0.96448 0.05441,1.90112 -0.20667,2.64267c-0.29623,0.84143 -0.85178,1.53833 -1.12402,2.08115c-0.50476,1.00632 -0.66031,1.90668 -0.70547,2.92734c-0.03339,0.7543 -0.16348,1.68805 -0.28384,2.35684c-0.13785,0.76596 -0.31363,1.55875 -0.54935,2.99734c-0.12134,0.74066 -0.12488,1.54803 -0.17734,2.50266c-0.04221,0.76779 -0.36557,1.75061 -0.63666,2.50684c-0.32401,0.90381 -0.35199,1.71182 -0.35266,2.70917c-0.00043,0.62399 0,1.59 0,2.68384c0,0.90417 0,1.80682 0,2.51483c0,0.98132 0,1.935 0,2.84949c0,0.78519 0,1.72519 0,2.73318c0,0.75598 0,1.66666 0,2.56665c0,0.90451 0,1.76666 0,2.60001c0,0.97867 -0.02957,1.7533 0.00449,2.65717c0.0282,0.74866 0.30103,1.73532 0.57019,2.54285c0.33051,0.99152 0.40814,1.79993 0.42532,2.79999c0.01358,0.78931 0.06894,1.52173 0.5,2.5c0.36475,0.8277 0.48956,1.52069 0.5,2.5c0.00851,0.79996 -0.06088,1.60242 0.009,2.60001c0.0564,0.80493 0.55899,1.79999 0.991,2.39999c0.43201,0.60001 0.94012,1.59052 0.99734,2.51468c0.0596,0.96265 0.00266,1.78531 0.00266,2.68665c0,0.96533 0,1.79868 0,2.77716c0,0.71701 0,1.62152 0,2.52151c0,0.91068 0,1.82132 0,2.67465c0,0.94 0,1.82535 0,2.62534l0,0.90002l0,0.89999l0,0.98566" id="svg_29" stroke-width="2" stroke="#000" fill="none"/>
  <path t="108088,108365,108365,108406,108406,108422,108422,108448,108448,108452,108469,108469,108484,108508,108549" d="m296,209c1,-1 1.75717,-1 2.65717,-1c0.74734,0 1.74283,0 2.54285,0c0.99982,0 1.96399,0 2.91464,0c0.88535,0 1.68533,0 2.58536,0l0.89999,0l0.89999,0.02083" id="svg_30" stroke-width="2" stroke="#000" fill="none"/>
  <path t="112415,112668,112668,112683,112713,112728,112752,112799,112861,112861,112908,112940,112972,113029,113029,113106,113106,113196,113196,113196,113278,113340,113340,113574,113662,113917,113994,114124,114124,114181,114197,114197,114252,114308,114362,114404,114468,114508,114611,114611,114652,114744,114804,114836,114868,114868,114876,114956,115020,115020,115044,115092,115124,115124,115156,115156,115180,115180,115204,115212,115252,115252,115292,115324,115356,115380,115439,115439,115492,115516,115516,115539,115539,115611,115611,115660,115708,115716,115748,115756,115796,115796,115820,115844,115868,115868,115884,115884,115884,115892,115912,115912,115929,115948,115948,115962,115979,115979,115995,116012,116012,116029,116029,116045,116045,116062,116062,116079,116095,116112,116129,116148,116148,116164,116164,116164,116188,116188,116196,116212,116229,116229,116245,116245,116276,116276,116300,116300,116316,116332,116340,116356,116372,116372,116404,116428,116436,116436,116452,116468,116480,116495,116512,116529,116529,116545,116562,116562,116637,116637,116667,116691,116692,116732,116732,116732,116852,117778,117828,117836,117895,117948,118006,118006,118104,118162,118162,118228,118228,118310,118310,118356,118412,118428,118428,118476,118484,118516,118540,118564,118564,118588,118645,118645,118661,118677,118693,118700,118716,118748,118772,118789,118805,118812,118830,118876,118877,118924,118925,118972,118973,118996,118997,119028,119029,119036,119068,119068,119085,119099,119112,119140,119141,119164,119165,119189,119204,119205,119220,119236,119237,119245,119263,119279,119279,119296,119324,119325,119348,119349,119388,119389,119428,119429,119444,119445,119452,119469,119480,119495,119512,119548,119549,119565,119580,119595,119612,119612,119629,119629,119645,119645,119662,119684,119685,119695,119695,119695,119712,119741,119748,119749,119780,119796,119797,119828,119828,119860,119868,119868,119892,119908,119932,119932,119948,119956,119957,119980,120012,120012,120013,120036,120036,120037,120068,120077,120132,120164,120165,120172,120172,120188,120204,120212,120236,120252,120262,120279,120295,120295,120312,120329,120329,120345,120345,120362,120362,120362,120379,120395,120412,120429,120429,120469,120469,120485,120517,120533,120556,120573,120573,120629,120676,120677,120684" d="m292,194c1.70001,-0.9955 2.60001,-1 3.5,-1c0.89999,0 1.79999,0 2.70001,0c0.89999,0 1.79999,0 2.59998,0c0.90002,0 1.86755,-0.07732 2.60001,0.436c0.79022,0.5538 1.20401,1.21207 2.08533,1.76399c0.70203,0.43965 1.52179,0.78627 2.30402,1.2c0.73221,0.38727 1.45639,0.89688 2.21066,1.60001c0.60233,0.56151 1.64401,0.79018 1.97916,1.52083c0.36234,0.78995 0.56287,1.44579 1.50485,1.4805c0.69104,0.02547 1.68469,0.49541 2.51599,0.832c0.75717,0.30658 1.70001,0.16667 2.60001,0.16667c0.89999,0 1.79999,0 2.69998,0c0.90002,0 1.80017,-0.0045 2.58536,0c0.92938,0.00534 1.55432,0.42764 2.33615,0.87849c0.76828,0.44302 1.77936,0.08432 2.57849,0.12151c0.91766,0.04271 1.35431,0.91626 2.20001,1c0.79608,0.07883 1.72729,0.01189 2.52084,0.52083c0.8317,0.5334 1.51019,0.93074 2.3125,1.47917c0.67426,0.46091 1.26437,1.10231 1.86667,1.7c0.69733,0.692 1.45053,1.05273 2.29999,1.46667c0.65225,0.31784 1.5321,0.76802 2.29999,1.18599c0.84082,0.45766 1.46527,0.92078 1.86667,1.64734c0.42688,0.77269 1.13333,1.3 1.83334,2c0.60001,0.60001 1.16772,1.24007 1.75717,1.7c0.84686,0.66081 1.66064,0.90045 2.18149,1.7c0.47562,0.73012 0.63211,1.76219 1.228,2.43333c0.53842,0.60641 1.13422,1.2175 1.48068,1.86667c0.45334,0.84938 0.29663,1.84415 0.57434,2.62134c0.25247,0.70656 0.92639,1.53555 1.59299,2.04266c0.60004,0.45645 1.17465,1.2718 1.18533,2.12c0.01086,0.86328 0,1.89067 0,2.83734c0,0.67867 0,1.65717 0,2.67867c0,0.8 0,1.636 0,2.48534c0,0.91916 0,1.91466 0,2.71466c0,0.99983 0,1.77917 0,2.7785c0,0.82016 0,1.7215 0,2.62151c0,0.89999 0,1.7045 0,2.7215c0,0.69933 0,1.6785 0,2.4785c0,0.8 0,1.7955 0,2.71466c0,0.96451 0,1.78984 0,2.80667c0,0.67867 0,1.65733 0,2.56267c0,0.952 0,1.71732 0,2.71149c0,0.74734 0,1.76852 0,2.7045c0,0.90002 0.03665,1.80075 0,2.70001c-0.02859,0.70175 -0.56198,1.46835 -0.94733,2.29999c-0.40399,0.87189 -0.90451,1.46863 -1.04819,2.40002c-0.13721,0.8895 0.13757,1.81299 -0.01517,2.69998c-0.14346,0.83316 -0.75543,1.62473 -1.04199,2.30002c-0.36514,0.86053 -0.78424,1.62955 -0.97266,2.47464c-0.21216,0.95157 -0.81879,1.59259 -0.96399,2.46133c-0.14005,0.83783 -0.03616,1.81131 -0.45334,2.56384c-0.46454,0.83798 -1.21719,1.22189 -1.51569,2.27933c-0.2233,0.79099 -0.04166,1.72086 -0.04166,2.62085c0,0.89999 0.27344,1.66525 1,2.06665c0.77271,0.42688 1.29999,1.13333 2,1.83334c0.60001,0.60001 1.16107,1.24927 1.88535,1.79999c0.72601,0.55206 1.52307,0.80667 2.05331,1.60001c0.55051,0.82361 0.7901,1.64066 1.14536,2.39999c0.34219,0.73141 1.4313,1.06033 1.91599,1.72086c0.50598,0.68951 0.90503,1.57513 0.99866,2.27914c0.12112,0.91074 0.94046,1.41525 1.00134,2.30002c0.0618,0.89786 -0.42865,1.85324 0.08533,2.61465c0.45078,0.66776 1.65588,0.82895 1.87866,1.68533c0.22678,0.8717 -0.12332,1.89789 0.38867,2.54733c0.48453,0.61462 0.50168,1.41403 0.93268,2.254c0.31781,0.61938 1.02426,1.45078 1.41467,2.20319c0.40997,0.79013 0.84644,1.54974 1.13333,2.42883c0.25284,0.77472 0.48334,1.63763 0.814,2.51398c0.3334,0.88361 0.6535,1.70352 1,2.35269c0.45334,0.84937 0.21082,1.81293 0.36334,2.69998c0.14346,0.83441 0.75812,1.47241 0.96399,2.42535c0.14767,0.68347 0.6535,1.62698 0.90384,2.49597c0.23822,0.82687 0.12149,1.79333 0.12149,2.67868c0,0.75717 -0.36588,1.78348 0.16666,2.66666c0.43033,0.71365 0.83267,1.22 0.83334,2.15869c0.00073,1.008 -0.00684,1.81351 0.284,2.65997c0.25391,0.73901 0.63635,1.71054 0.69516,2.51468c0.07294,0.99756 0.02084,1.78934 0.02084,2.83334c0,0.75598 -0.00226,1.66666 0,2.56665c0.00226,0.89551 0.67206,1.41098 0.97916,2.14166c0.36523,0.86896 0.02084,1.80566 0.02084,2.70117c0,0.95718 0,1.85718 0,2.75717c0,0.75717 0,1.65717 0,2.40451c0,0.99417 0,1.93832 0,2.84283c0,0.91931 0.00662,1.77353 0,2.75266c-0.00534,0.7894 -0.04407,1.53348 -0.5,2.47916c-0.40677,0.84369 -0.38879,1.69803 -0.52084,2.5c-0.14508,0.88104 -1.05511,1.30707 -1.45831,2.04169c-0.49924,0.90964 -0.47974,1.73712 -1.04169,2.47916c-0.58826,0.77679 -1.30508,1.27008 -1.46848,2.10001c-0.17416,0.88452 -0.63922,1.52179 -1.30536,2.10001c-0.71829,0.62347 -0.96881,1.5195 -1.50665,2.09998c-0.58633,0.63281 -1.35934,1.37277 -1.85583,1.85269c-0.547,0.52878 -1.54279,1.32538 -2.12149,1.71133c-0.651,0.43417 -1.04047,1.25787 -1.24219,2.13599c-0.19376,0.84348 -1.14581,1.33334 -1.97916,1.5c-0.83334,0.16666 -1.38977,0.71664 -2,1.47916c-0.49719,0.62128 -1.5,0.52084 -2.39999,0.52084c-0.89999,0 -1.8038,-0.08212 -2.70001,0.00015c-0.91144,0.08368 -1.43793,0.74692 -2.31067,0.96384c-0.88461,0.21988 -1.80008,0.02328 -2.78934,0.03616c-0.8002,0.01041 -1.80725,0.14468 -2.39548,0.35251c-0.93195,0.32925 -1.76801,0.62933 -2.7045,0.64734c-0.90118,0.01733 -1.87051,-0.06165 -2.70001,0.02084c-0.84186,0.08371 -1.52728,0.72601 -2.39999,0.94315c-0.87405,0.21747 -1.80002,0.03601 -2.70001,0.03601c-0.89999,0 -1.69998,0 -2.53598,0l-1.01669,0l-0.69464,0l-1.01669,0" id="svg_31" stroke-width="2" stroke="#000" fill="none"/>
  <path t="123387,123507,123525,123545,123877" d="m279,353c0,1.70001 0,2.70001 0,3.60001l-0.02084,0.87915" id="svg_32" stroke-width="2" stroke="#000" fill="none"/>
  <path t="124395,124491,124507,124545,124545" d="m256,351c1.47916,1.5 1.94284,2.29999 2.00134,3.20267l0.08398,0.76801" id="svg_33" stroke-width="2" stroke="#000" fill="none"/>
  <path t="125503,125593,125608,125608,125628,125628,125645,125645,125645,125662,125662,125662,125678,125695,125695,125695,125734,125734,125734,125734,125734,125766,125766,125774,125790" d="m257,353c1.82535,0 2.83334,-0.00345 3.62534,0c1.03635,0.00452 1.6532,-0.01697 2.79599,0.44266c0.5499,0.22116 1.31683,0.78925 2.41202,1.224c0.68616,0.27237 1.50497,0.32883 2.414,0.33334c0.91931,0.00455 1.84332,0.0036 2.60999,0.17065c1.01871,0.22198 1.79727,0.53162 2.62183,0.82935c0.40939,0.14783 1.1835,0.43201 2.59216,0.88568l0.72336,0.11166l0.90533,0.00266l0.89999,0" id="svg_34" stroke-width="2" stroke="#000" fill="none"/>
  <path t="126247,126295,126295,126332,126362,126362,126403,126403" d="m274,354c1.564,0.61066 1.9003,1.40509 2.00449,2.3045c0.10095,0.87143 0.49551,1.6955 0.82886,2.52884l0.25067,0.88" id="svg_35" stroke-width="2" stroke="#000" fill="none"/>
 </g>
 <g display="none">
  <title>muse_image</title>
  <image xlink:href="http://farm4.static.flickr.com/3210/2613929040_ebf93a8752.jpg" id="muse" height="480" width="318" y="0" x="161"/>
 </g>
 <g display="none">
  <title>bbox</title>
  <rect stroke="#f00" fill="none" stroke-width="3" height="387.84" width="127.39157" y="57.6" x="258.6988" id="bbox"/>
 </g>
</svg>
