<svg width="640" height="480" xmlns="http://www.w3.org/2000/svg" xmlns:svg="http://www.w3.org/2000/svg" xmlns:xlink="http://www.w3.org/1999/xlink">
 <!-- Sketchy ANNOTATION
  ImageNet ID: n03467517_24525
  URL: http://farm4.static.flickr.com/3164/2470155205_693c4b9bd5.jpg
  Image Width: 375
  Image Height: 500
  BBox X: 82
  BBox Y: 0
  BBox Width: 199
  BBox Height: 492
  Exposure: 2000ms
  Synset Label: guitar
  Synset ID: n03467517
  Worker Tag: electric guitar
  Sanity Check: 
   Saved
  Comment: 
   {}
  Worker ID: A1VGZ2K3HF66TE
  Assignment ID: 3NJM2BJS4W6SUUTOLXB9Z0FVPCYCP1
  HIT ID: 3H6W48L9F4PZL81ZCM68MARDEKBPWP
  Work Time: 67s
  Worker Score: 0.7857
 END ANNOTATION -->
 <g display="inline">
  <title>Layer 1</title>
  <path t="0,131,131,132,132,132,235,235,236,236,236,257,266,266,266,267,285,285,285,286,286,286,288,288,288,306,306,306,307,307,307,307,307,307,320,321,322,322,324,324,329,330,330,348,348,348,348,349,349,349,349,349,362,363,364,366,366,367,367,367,367,379,379,380,380,380,380,380,381,381,420,421,421,421,421,421,422,422,422,433,434,438,438,438,439,439,439,439,450,450,450,451,451,451,451,452,452,463,463,463,464,464,464,464,465,465,479,480,480,480,480,481,481,481,481,513,514,514,514,517,518,518,519,519,531,533,534,534,534,535,535,535,536,545,546,546,547,547,548,548,607,625,626,627,630,631,631,644,645,645,646,647,647,648,649,649,670,671,671,672,674,677,678,678,679,688,689,689,690,691,692,693,695,696,722,723,723,736,740,741,741,742,742,749,749,750,750,751,751,762,764,765,765,766,766,766,780,780,781,781,782,801,802,802,802,803,839,840,841,842,842,867,868,869,869,870,870,879,883,884,885,885,892,893,894,894,914,914,916,946,947,948,948,949,949,956,958,958,959,960,984,985,986,986,1000,1001,1001,1044,1066,1073,1074,1075,1079,1086,1088,1088,1089,1112,1113,1114,1115,1115,1123,1141,1143,1144,1145,1165,1167,1168,1168,1181,1198,1199,1200,1200,1202,1247,1248,1249,1250,1250,1251,1251,1284,1285,1286,1287,1293,1294,1295,1330,1337,1338,1339,1340,1340,1341,1362,1364,1368,1390,1391,1392,1393,1418,1419,1419,1420,1421,1433,1434,1435,1436,1437,1437,1462,1463,1464,1465,1466,1467,1467,1475,1477,1478,1478,1479,1480,1487,1489,1489,1490,1500,1502,1503,1503,1507,1535,1536,1537,1539,1544,1546,1547,1548,1549,1563,1564,1565,1566,1567,1579,1583,1584,1585,1586,1587,1599,1600,1601,1602,1603,1604,1611,1613,1614,1647,1648,1649,1650,1651,1666,1668,1669,1670,1672,1675,1677,1678,1685,1687,1688,1688,1689,1709,1710,1711,1712,1713,1729,1731,1747,1749,1771,1772,1773,1774,1778,1780,1781,1801,1802,1803,1804,1805,1806,1807,1835,1836,1837,1838,1839,1842,1843,1846,1869,1871,1872,1873,1874,1875,1897,1899,1900,1901,1902,1903,1905,1907,1908,1914,1915,1916,1917,1919,1920,1920,1921,1922,1928,1930,1932,1933,1934,1935,1936,1937,1939,1964,1967,1968,1969,1970,1971,1972,1973,1973,1992,1994,1996,1997,1999,2001,2007,2009,2011,2028,2029,2030,2045,2047,2049,2051,2064,2067,2069,2083,2085,2098,2100,2101,2103,2104,2138,2153,2155,2156,2158,2160,2209,2211,2212,2216,2217,2229,2232,2265,2267,2268,2290,2328,2329,2331,2339,2429,2463,2467,2470,2476,2478,2486,2488,2489,2490,2492,2494,2496,2498,2519,2521,2524,2526,2528,2529,2535,2537,2538,2539,2547,2549,2550,2562,2744,2779,2780,2782,2784,2786,2798,2801,2802,2820,2822,2824,2852,3082,3116,3118,3146,3154,3163,3165,3166,3169,3202,3204,3205,3207,3212,3221,3223,3226,3228,3229,3235,3238,3240,3241,3243,3267,3269,3271,3272,3281,3283,3285,3287,3291,3294,3296,3312,3315,3317,3318,3331,3334,3335,3337,3338,3364,3366,3368,3369,3371,3376,3401,3404,3407,3408,3411,3413,3421,3423,3439,3440,3444,3463,3465,3467,3469,3470,3472,3473,3474,3493,3510,3515,3518,3520,3522,3524,3533,3535,3536,3545,3547,3549,3553,3556,3557,3559,3561,3562,3568,3572,3574,3576,3578,3580,3582,3583,3585,3612,3616,3618,3620,3621,3622,3623,3624,3626,3641,3646,3648,3650,3652,3654,3658,3660,3661,3668,3670,3671,3672,3673,3678,3680,3682,3684,3711,3714,3716,3720,3722,3723,3725,3728,3730,3745,3747,3749,3750,3752,3754,3756,3757,3761,3769,3772,3774,3783,3788,3790,3800,3812,3814,3816,3818,3820,3857,3889,3895,3897,3899,3902,3904,3915,3917,3918,3920,3921,3923,3932,3934,3935,3938,3940,3943,3956,3958,4014,4017,4018,4034,4086,4088,4111,4114,4116,4119,4121,4124,4126,4129,4147,4149,4153,4155,4156,4159,4161,4180,4183,4185,4187,4189,4191,4193,4195,4197,4232,4235,4237,4238,4240,4242,4246,4248,4250,4265,4268,4269,4271,4273,4274,4277,4279,4281,4291,4293,4296,4297,4299,4305,4308,4310,4312,4314,4333,4336,4348,4350,4353,4366,4369,4374,4378,4381,4383,4390,4392,4394,4397,4399,4428,4432,4434,4437,4439,4464,4468,4492,4497,4500,4502,4504,4505,4529,4531,4534,4537,4539,4541,4558,4561,4564,4567,4570,4574,4587,4589,4591,4593,4595,4597,4600,4602,4605,4629,4632,4634,4637,4646,4648,4651,4653,4655,4656,4666,4671,4673,4677,4680,4704,4711,4716,4720,4723,4741,4746,4749,4752,4757,4777,4780,4782,4784,4786,4788,4797,4800,4802,4804,4807,4810,4813,4831,4833,4836,4838,4840,4849,4852,4854,4856,4858,4861,4869,4873,4877,4879,4881,4884,4886,4896,4898,4901,4905,4911,4928,4931,4933,4936,4941,4953,4956,4958,4960,4979,4983,4985,4988,4991,4995,5014,5018,5021,5023,5024,5027,5030,5047,5051,5054,5057,5060,5063,5074,5077,5080,5085,5089,5092,5119,5122,5127,5130,5133,5149,5152,5154,5156,5158,5161,5164,5193,5197,5199,5202,5205,5207,5210,5231,5233,5243,5247,5249,5252,5259,5263,5266,5268,5296,5828,5846,5848,5850,5852,5879,5953,5967,5969,5979,5984,5989,5991,5994,5997,5999" d="m279,242c-8.79251,-3.73517 -9.36578,-3.96634 -10.42001,-4.27066c-0.47272,-0.13646 -1.354,-0.3763 -2.57999,-0.39601c-0.80069,-0.01288 -1.60062,0.1241 -2.39999,0.252c-0.80066,0.1281 -2.00232,0.28357 -2.83151,0.38c-0.91574,0.10649 -1.4249,0.18431 -1.96866,0.31599c-1.98511,0.48076 -2.75458,0.81262 -3.58517,1.15201c-0.88068,0.35985 -1.78214,0.77881 -2.67299,1.27499c-0.9045,0.50378 -1.79634,1.05321 -2.58301,1.72501c-1.53748,1.31296 -2.09904,2.15213 -2.588,2.98534c-0.4817,0.82085 -0.84947,1.68886 -1.14149,2.5605c-0.28496,0.85056 -0.49231,1.69675 -0.6465,2.51549c-0.28239,1.4995 -0.34589,2.17665 -0.412,2.80135c-0.06218,0.5874 -0.10365,1.15175 -0.129,1.70399c-0.02533,0.55179 -0.03523,1.11597 -0.039,1.70401c-0.00832,1.29596 -0.0049,2.02502 0.00133,2.80798c0.00661,0.83102 0.02124,1.70425 0.0585,2.61301c0.03851,0.9393 0.09137,1.90369 0.1935,2.883c0.20816,1.99606 0.39757,2.99396 0.59866,3.99066c0.20157,0.99908 0.43738,1.99197 0.68701,2.9805c0.24905,0.98618 0.51543,1.96347 0.77699,2.93552c0.51617,1.91827 0.7646,2.86218 0.992,3.79733c0.22385,0.92056 0.42961,1.82898 0.606,2.72549c0.17279,0.87827 0.32578,1.74127 0.42599,2.59052c0.19293,1.63483 0.20413,2.42892 0.20267,3.20132c-0.00143,0.75641 -0.03732,1.49899 -0.08701,2.229c-0.04906,0.7207 -0.11694,1.43243 -0.177,2.13898c-0.1192,1.40231 -0.16397,2.10312 -0.196,2.80801c-0.03236,0.71249 -0.05197,1.43729 -0.0645,2.17801c-0.01286,0.76062 -0.01761,1.54532 -0.0195,2.358c-0.00403,1.72531 -0.00133,2.64398 -0.00133,3.59467c0,0.97467 0,1.96533 0,2.96399c0,0.99866 0,1.98932 0,2.96399c0,1.86935 0.0018,2.74966 -0.00267,3.59201c-0.00429,0.80634 -0.01303,1.57886 -0.039,2.319c-0.02493,0.71054 -0.05806,1.39407 -0.129,2.04901c-0.13495,1.24597 -0.26282,1.83517 -0.39999,2.40533c-0.1344,0.55865 -0.29529,1.10065 -0.47101,1.629c-0.17371,0.52234 -0.36429,1.03381 -0.56099,1.539c-0.39131,1.005 -0.59734,1.50305 -0.79868,2.00531c-0.203,0.50641 -0.40892,1.01883 -0.61949,1.539c-0.21475,0.53049 -0.43542,1.07303 -0.66451,1.629c-0.47942,1.16348 -0.73529,1.77255 -1,2.39868c-0.27095,0.64087 -0.54947,1.29251 -0.83549,1.95151c-0.28864,0.66501 -0.58122,1.33209 -0.88051,1.99649c-0.5938,1.31821 -0.89914,1.96063 -1.48967,3.22101c-0.28806,0.61481 -0.57048,1.21857 -0.83699,1.815c-0.26077,0.58362 -0.94669,2.27725 -1.1295,2.82565c-0.35742,1.0722 -0.50027,1.61768 -0.66333,2.16266c-0.33708,1.12671 -0.51193,1.72058 -0.97917,2.95834c-0.25278,0.66962 -0.55307,1.36166 -0.8535,2.09399c-0.31436,0.7663 -0.6373,1.56851 -0.93449,2.418c-0.30899,0.88318 -0.63936,1.80457 -1.04533,3.82135c-0.21478,1.06699 -0.34019,2.18515 -0.429,3.32999c-0.09015,1.16208 -0.12674,2.33664 -0.123,3.51001c0.00371,1.16345 0.02351,2.30972 0.21866,4.49332c0.09177,1.02676 0.22644,2.0015 0.37651,2.92502c0.14243,0.87653 0.30457,1.70139 0.47549,2.47501c0.16048,0.72632 0.32475,1.40192 0.64799,2.59998c0.14215,0.52686 0.27997,1.00879 0.414,1.452c0.12483,0.41278 0.24954,0.7991 0.37801,1.164c0.12431,0.35309 0.2511,0.69919 0.54134,1.384c0.15125,0.35684 0.49121,1.1037 0.89583,1.89584c0.21577,0.42242 0.69809,1.31625 1.27083,2.27084c0.62367,1.03949 0.97282,1.56543 1.328,2.09598c0.35582,0.53149 1.07791,1.56085 1.45601,2.03201c1.02766,1.28061 1.38638,1.61176 2.04666,2.216c0.61534,0.56314 1.2612,1.06152 2.13617,1.96533c0.62379,0.64435 0.89998,1.01755 1.53583,1.70667c0.63892,0.69244 1.30803,1.34756 2.05067,1.88c0.73874,0.52963 1.55621,0.95691 1.97499,1.16165c1.29375,0.63257 2.22025,1.01151 2.69101,1.20001c0.94324,0.37772 1.41154,0.57187 2.36331,0.83832c1.34952,0.37781 2.22592,0.46991 3.06317,0.54984c0.81555,0.07785 1.2233,0.07385 2.4205,0.24219c0.79437,0.11169 1.92593,0.36581 2.62967,0.49466c1.20163,0.22003 1.74094,0.26193 2.59033,0.27951c1.04678,0.02167 1.92035,0.00449 2.91367,0.00449c0.52917,0 1.6275,0 2.18668,0c1.11334,0 2.19199,0 3.22266,0c0.49484,0 1.43851,0 2.724,0c0.76266,0 1.46133,0 2.42435,0c0.909,0 1.7955,0 2.60098,0c1.06003,0 1.81601,0 3.01468,0c0.41833,0 1.33499,0 2.29166,0c1.33502,0 2.06567,0 2.70035,0c0.91199,0 1.96799,0 2.832,0c0.92801,0 1.38599,0 2.23001,0c1.31131,0 2.11798,0 2.89532,0c0.92133,0 1.40851,0 2.84399,0c0.84,0 1.875,0 2.64001,0c0.92249,0 1.85999,0 2.56131,0c0.82935,0 1.67468,0 2.42401,0c1.54132,0 2.32132,0 2.82382,0c1.155,0 1.7775,0 2.41,0c0.6275,0 2.33334,0 3.255,0c0.78168,0 1.46335,0 2.68518,0c0.85797,0 1.57199,0 2.49716,0c1.09583,0 1.56216,0 2.65283,0c0.59232,0 1.19467,0 2.36533,0c1.43533,0 2.09866,0.00024 3.02533,0c0.9245,-0.00024 1.87189,-0.00137 2.59201,-0.108c0.77759,-0.11514 1.9747,-0.54303 2.36798,-0.74799c0.81488,-0.42465 1.60327,-0.97144 2,-1.25751c1.21014,-0.87262 2.00281,-1.48724 2.40451,-1.7955c0.81937,-0.62875 1.2403,-0.95245 2.08084,-1.66168c0.89078,-0.75159 1.345,-1.16232 2.25833,-2.03915c0.46515,-0.44656 0.92126,-0.90482 1.35901,-1.37549c0.85568,-0.92004 1.60754,-1.84052 1.93265,-2.293c0.60812,-0.84637 1.09552,-1.67267 1.49402,-2.46002c0.18811,-0.37164 0.79144,-1.77716 1.04532,-2.44699c0.25552,-0.67419 0.50851,-1.38431 0.94635,-2.55734c0.32205,-0.86288 0.50668,-1.30045 0.78165,-2.20667c0.26578,-0.87598 0.47052,-2.1091 0.43033,-2.84534c-0.03867,-0.70822 -0.28143,-1.76965 -0.4115,-2.94815c-0.04694,-0.42548 -0.09351,-1.31833 -0.11081,-2.24249c-0.01743,-0.93188 -0.01068,-1.84802 -0.01068,-2.73203c0,-0.86798 0,-1.74399 0,-2.65198c0,-0.96402 0,-2 0,-2.5405c0,-1.11102 0,-1.67551 0,-2.242c0,-1.68152 0,-2.22617 0,-3.2775c0,-0.98734 0.0004,-1.45203 0,-2.31335c-0.00067,-1.40533 -0.004,-2.25867 -0.05716,-2.81534c-0.12524,-1.31104 -0.30429,-2.12012 -0.41083,-2.56064c-0.2308,-0.95438 -0.35086,-1.47556 -1.03201,-3.048c-0.24417,-0.56369 -0.53696,-1.12622 -1.19733,-2.24802c-0.33542,-0.56982 -0.69543,-1.12613 -1.05902,-1.67551c-0.35913,-0.54263 -1.42065,-2.0676 -1.75699,-2.53781c-0.63745,-0.89117 -0.94638,-1.3085 -1.52499,-2.10583c-0.79691,-1.09814 -1.27957,-1.77637 -1.715,-2.41949c-0.40427,-0.59714 -0.78058,-1.14792 -1.36002,-2.15869c-0.45639,-0.79614 -0.8475,-1.60965 -1.22665,-2.36798c-0.54568,-1.09134 -0.79871,-1.59735 -1.07968,-2.15933c-0.30301,-0.60602 -0.62198,-1.24402 -0.95099,-1.90201c-0.664,-1.328 -1.29752,-2.59125 -1.58618,-3.17349c-0.27258,-0.5498 -0.77194,-1.58972 -0.98065,-2.10602c-0.41956,-1.0379 -0.60309,-1.59326 -0.89584,-2.8125c-0.16077,-0.66956 -0.28613,-1.38431 -0.405,-2.12549c-0.12128,-0.7562 -0.23117,-1.51901 -0.39999,-3.02066c-0.08032,-0.7146 -0.19962,-2.02017 -0.24017,-2.59302c-0.07254,-1.02444 -0.10361,-1.98993 -0.11081,-2.48749c-0.0159,-1.09995 -0.01068,-2.44 -0.01068,-3.233c0,-0.871 0,-1.80801 0,-2.79901c0,-1.03299 0,-2.09598 0,-3.177c0,-1.08698 -0.00156,-3.23099 0.00049,-4.26648c0.00198,-1.00851 0.00674,-1.99316 0.03152,-2.95651c0.02432,-0.94568 0.06516,-1.87683 0.1395,-2.79449c0.07376,-0.91046 0.31595,-2.71588 0.49265,-3.61267c0.17667,-0.89673 0.39108,-1.78021 0.6225,-2.64749c0.22708,-0.8511 0.4707,-1.67413 0.71252,-2.4675c0.23163,-0.75995 0.67056,-2.15158 0.85767,-2.77884c0.17404,-0.58347 0.32983,-1.13327 0.46048,-1.659c0.12549,-0.50507 0.23212,-1.0015 0.3165,-1.49701c0.08502,-0.49921 0.20468,-1.5506 0.24469,-2.11465c0.0415,-0.5853 0.06729,-1.18524 0.08548,-1.79102c0.01813,-0.60358 0.02679,-1.19733 0.03152,-1.77298c0.00452,-0.54968 0.00449,-1.96518 0.00449,-3.01367c0,-0.85049 0,-1.69202 0,-2.66852c0,-0.711 0,-1.44199 0,-2.86816c0,-0.65134 0.1362,-1.51251 -0.004,-2.57532c-0.08566,-0.64948 -0.66,-1.79558 -0.84668,-2.23201c-0.41507,-0.97047 -0.63217,-1.47145 -1.03415,-2.43167c-0.45267,-1.08127 -0.78183,-1.91632 -1.05118,-2.45499c-0.36533,-0.73067 -0.70059,-1.55983 -1.12799,-2.25601c-0.67624,-1.10155 -1.16156,-1.4567 -1.66266,-2.06c-0.55286,-0.6656 -1.08856,-1.29147 -1.61652,-2.37666c-0.33701,-0.69269 -0.81769,-1.60562 -1.13815,-2.114c-0.4686,-0.74338 -1.10483,-1.3307 -1.45602,-1.62801c-0.71628,-0.60634 -0.87433,-1.41078 -1.69815,-2.20734c-0.38321,-0.37054 -0.80692,0.62215 -1.08334,1.30884c-0.34271,0.85138 -0.53748,1.33092 -0.74731,1.84201c-0.69714,1.69788 -0.95676,2.30498 -1.21384,2.93115c-0.26129,0.63647 -0.53683,1.27435 -0.98666,2.58134c-0.22076,0.64145 -0.45895,1.26994 -0.66669,2.51733c-0.19174,1.15146 -0.15988,1.70996 -0.16666,2.75c-0.00317,0.48997 0.10327,1.44669 -0.28568,2.64034c-0.24832,0.76212 -0.75616,1.40118 -1.21799,2.034c-0.66324,0.90881 -1.20856,1.78226 -1.539,2.60098c-0.32138,0.7963 -0.74295,1.47989 -1.56433,1.97217c-0.66516,0.39865 -1.43423,0.85739 -1.83835,1.09586c-0.8045,0.47473 -1.88058,1.11536 -2.75732,1.56799c-0.73318,0.37854 -1.71198,0.78867 -2.48001,1.05066c-0.78622,0.26819 0.19312,0.2204 0.01117,-0.37866c-0.25763,-0.84824 -1.82993,0.3222 -2.73117,-0.01068c-0.80688,-0.298 -1.43417,-1.31921 -1.86533,-1.75998c-0.48663,-0.49747 -1.05499,-0.99686 -1.89865,-2.22934c-0.39755,-0.58081 -0.68445,-1.22165 -0.87601,-1.90799c-0.20621,-0.73871 -0.34784,-2.05548 -0.40018,-3.0545c-0.02744,-0.52388 -0.0488,-1.59749 -0.05267,-2.13667c-0.01126,-1.56747 -0.00449,-2.05766 -0.00449,-2.98199c0,-0.85634 0,-1.65268 0,-2.75217c0,-1.02751 0,-1.72917 0,-2.49084c0,-1.3425 0,-1.86116 0,-2.9865c0,-0.59067 0,-1.18933 0,-2.37866c0,-0.57468 0,-2.125 0,-2.991c0,-0.778 0,-1.51601 0,-2.653c0,-0.836 0,-1.72801 0,-2.1875c0,-0.931 0,-2.3125 0,-3.19785c0,-0.43765 0,-1.323 0,-2.24832c0,-0.48767 0,-2.09683 0,-2.68367c0,-1.21466 0,-1.82851 0,-2.43733c0,-1.17467 -0.00888,-2.24539 0.00266,-3.17867c0.01056,-0.85347 0.05923,-1.70772 0.11166,-2.15834c0.18375,-1.5795 0.32568,-2.20473 0.45636,-2.88834c0.14044,-0.73479 0.30005,-1.51358 0.47098,-2.33249c0.17834,-0.85445 0.36774,-1.73825 0.561,-2.64751c0.39816,-1.87317 0.60007,-2.82787 0.79468,-3.79466c0.19678,-0.97754 0.38742,-1.96826 0.561,-2.9745c0.17581,-1.01912 0.34113,-2.05455 0.47098,-3.1095c0.26563,-2.15804 0.33624,-3.27115 0.40002,-4.40401c0.06509,-1.15587 0.10391,-2.33855 0.129,-3.549c0.0257,-1.24022 0.03519,-2.51265 0.039,-3.819c0.00793,-2.72266 0.00266,-4.14116 0.00266,-5.59067c0,-1.4715 0,-2.95599 0,-4.4445c0,-1.48349 0,-2.95299 0,-4.39949c0,-2.78801 0,-4.11284 0,-5.38667c0,-1.22183 0,-2.39067 0,-3.50549c0,-1.05984 0,-2.06367 0,-3.0105c0,-1.71867 0,-2.49001 0,-3.20934c0,-0.67534 0,-1.31467 0,-1.92601c0,-0.59132 0,-1.17065 0,-1.746c0,-1.17065 0,-1.77899 0,-2.39732c0,-0.61833 0,-1.22667 0,-1.815c0,-0.55833 0,-1.07666 0,-1.545c0,-0.74667 -0.00281,-1.00906 0.00266,-1.20534c0.00403,-0.14441 0.01236,-0.25249 0.039,-0.33299c0.02463,-0.07448 0.07452,-0.14757 0.129,-0.24301c0.16855,-0.29539 0.27362,-0.52594 0.39734,-0.80266c0.13913,-0.31119 0.28268,-0.64799 0.43201,-0.996c0.14932,-0.34801 0.29138,-0.68547 0.43201,-0.996c0.22931,-0.50644 0.37909,-0.63853 0.73599,-1.20799c0.4747,-0.75737 0.68961,-1.44133 0.94534,-2.14401c0.41556,-1.14189 0.71768,-2.15378 1.10666,-2.65599c0.50366,-0.65031 1.06287,-1.33667 1.56,-1.992c0.66968,-0.8828 1.04944,-1.67313 1.444,-2.29866c0.52942,-0.83932 0.83987,-1.30864 1.15735,-1.808c0.6575,-1.03421 1.28961,-2.06149 1.57581,-2.55467c0.5412,-0.93263 1.0242,-1.84152 1.25751,-2.29333c0.4725,-0.91503 0.952,-1.88267 1.20633,-2.39133c0.52267,-1.04533 0.78299,-1.566 1.28168,-2.56333c0.23035,-0.46067 1.00775,-1.51638 1.26532,-2.53066c0.2338,-0.92065 0.03201,-1.76534 0.03201,-2.36267c0,-1.21533 -0.20834,-1.8055 -0.85333,-2.128c-0.81332,-0.40667 -1.99042,-0.99519 -2.68683,-1.34116c-0.7449,-0.37006 -1.52173,-0.75423 -2.31451,-1.1415c-0.78958,-0.38571 -1.55692,-0.76541 -2.97867,-1.424c-0.61545,-0.28508 -1.17575,-0.53503 -1.698,-0.74699c-0.96347,-0.39104 -1.44296,-0.55827 -2.45667,-0.885c-1.17523,-0.37878 -1.86252,-0.57722 -2.608,-0.80667c-0.79987,-0.24618 -1.64609,-0.50826 -2.52899,-0.7905c-0.91446,-0.29234 -1.85175,-0.59666 -2.79901,-0.9255c-1.91431,-0.66454 -2.85593,-1.02797 -3.78531,-1.396c-0.91763,-0.36338 -1.81403,-0.73669 -2.68652,-1.116c-0.85147,-0.37015 -1.67395,-0.74102 -2.46149,-1.116c-1.48169,-0.70551 -2.15735,-1.06007 -2.79868,-1.39467c-0.60727,-0.31683 -1.17773,-0.62308 -1.71899,-0.906c-0.50949,-0.26631 -0.98779,-0.51785 -1.44901,-0.72601c-0.83426,-0.37653 -1.21921,-0.56566 -1.97067,-0.67233c-1.04648,-0.14855 -1.79324,0.02119 -2.94781,0.4795c-0.43256,0.17171 -1.30341,0.63359 -1.73666,0.898c-0.87064,0.53136 -2.03076,1.42677 -2.35651,1.73783c-0.61679,0.58897 -1.14011,1.22909 -1.608,1.914c-0.7515,1.10007 -1.24326,1.951 -1.49551,2.3955c-0.51251,0.90309 -0.79596,1.34948 -1.12082,2.3075c-0.45175,1.33229 -0.43958,1.80059 -0.40668,2.668c0.03333,0.87843 0.20511,1.78201 0.30002,2.748c0.10098,1.02759 0.11877,1.55372 0.14581,2.58333c0.02493,0.94915 -0.14529,2.10649 0.05286,2.92067c0.26022,1.06926 0.82401,1.58932 1.276,2.34267c0.25449,0.42416 0.80548,1.3425 1.09598,1.82667c0.59601,0.99334 1.19376,1.99203 1.496,2.48433c0.59558,0.97007 0.88458,1.44746 1.5,2.33833c0.58551,0.84755 1.20209,1.6096 1.51352,1.98334c0.64499,0.774 1.00687,1.17201 1.74249,2.09666c0.85861,1.07921 1.31055,1.71597 1.79199,2.39067c0.49966,0.70024 0.99765,1.41887 1.4895,2.1375c0.48007,0.7014 0.93384,1.37445 1.35449,2.0025c0.70938,1.05908 1.23499,1.78075 1.64551,2.51833c0.34027,0.61134 0.72748,1.59116 1.125,2.52383c0.22461,0.52698 0.46085,1.07928 0.93668,2.22067c0.23541,0.56465 0.68173,1.62508 1.02884,2.5585c0.30176,0.81148 0.54633,1.56142 0.68399,2.304c0.21677,1.16928 0.23901,2.0442 0.26715,2.95549c0.01434,0.4644 0.02017,1.3965 0.02084,2.75801c0.00043,0.873 0,1.30649 0,2.1825c0,0.908 0,2.38184 0,2.91066c0,1.11067 0,1.69051 0,2.28534c0,0.60883 0,2.50934 0,3.1635c0,0.65916 0,1.31833 0,2.61667c0,0.62917 0,1.23833 0,2.89583c0,0.48117 0,1.3515 0,2.14584c0,0.77432 0,2.02083 0,2.97682c0,0.5155 0,1.60651 0,2.17601c0,1.172 0,2.368 0,2.96767c0,1.19133 0,1.77899 0,2.35866c0,1.12733 0,1.67101 0,3.19884c0,0.933 0,1.82201 0,2.25751c0,0.868 0,2.2065 0,3.1335c0,0.46649 0,1.39049 0,2.2825c0,1.22682 0,1.96849 0,2.69016c0,0.74167 0,1.97917 0,2.93517c0,0.5155 0,1.60651 0,2.17601c0,1.172 0,2.368 0,2.96783c0,1.19566 0,1.78949 0,2.37933c0,1.16367 0,1.73549 0,3.39949c0,0.53734 0,1.59601 0,2.12134c0,1.05267 0,1.584 0,3.22099c0,0.56033 0,1.12268 0,2.23734c0,0.54434 0,1.58701 0,2.97801c0,0.81467 0,1.60533 0,2.43599c0,0.45033 0,2.035 0,2.653c0,0.65601 0,1.34401 0,2.058c0,1.48201 0,2.23801 0,3.75c0,0.744 0,1.472 0,2.17801c0,0.67799 0,1.32199 0,2.48399c0,1.338 0,2.1225 0,3.17134c0,0.76199 0,1.41666 0,2.15132c0,1.18201 0,1.97667 0,2.73933c0,1.01401 0.08893,2.26181 -0.42667,2.44267c-0.93985,0.32968 -1.72134,0 -2.51868,0c-0.80533,0 -1.88983,0 -2.9505,0c-0.86267,0 -1.60965,0 -2.60416,0c-1.056,0 -1.67401,0 -2.328,0l-0.672,0l-0.672,0l-1.272,0" id="svg_1" stroke-width="2" stroke="#000" fill="none"/>
  <path t="16289,16465,16466,16467,16467,16467,16467,16467,16467,16467,16489,16490,16490,16490,16490,16490,16490,16490,16490,16516,16517,16517,16517,16517,16517,16517,16517,16517,16530,16531,16531,16531,16531,16531,16531,16532,16532,16548,16549,16549,16549,16552,16552,16552,16552,16552,16563,16564,16564,16564,16564,16564,16564,16565,16565,16579,16579,16579,16579,16580,16580,16580,16580,16613,16614,16653" d="m258,369c10.66666,0 11.65683,0 12.62799,0c0.95319,0 1.88934,0 2.80951,0c0.90518,0 1.79633,0 2.6745,0c1.72134,0 2.5665,0 3.40268,0c0.82816,0 1.64932,0 2.46448,0c0.81018,0 1.61633,0 2.41953,0c1.60132,0 2.40131,0 3.20132,0c0.79999,0 1.60001,0 2.39999,0c0.79999,0 1.60001,0 2.39999,0c1.60001,0 2.40067,0 3.20535,0c0.81265,0 1.63733,0 2.478,0c0.86066,0 1.74533,0 2.65799,0c1.92532,0 2.94351,0 3.99066,0c1.06519,0 2.13733,0 3.20551,0c1.05316,0 2.08032,0 3.0705,0c1.82535,0 2.64151,0 3.39468,0c0.69714,0 1.34531,0 1.95148,0c0.57117,0 1.11435,0 1.63651,0c1.00934,0 1.50885,0 2.00534,0c0.49051,0 0.97198,0 1.4415,0c0.4545,0 1.30649,0 2.70383,0l0.75452,0l1.0625,0" id="svg_2" stroke-width="2" stroke="#000" fill="none"/>
  <path t="17472,17598,17598,17598,17598,17598,17598,17623,17624,17624,17624,17624,17624,17640,17641,17641,17662,17663,17663,17663,17663,17663,17663,17663,17663,17669,17670,17670,17670,17670,17670,17670,17671,17682,17683,17683,17683,17683,17683,17683,17683,17684,17695,17696,17696,17696,17696,17696,17696,17697,17697,17712,17712,17713,17713,17713,17713,17713,17713,17714,17764,17764,17764,17765,17765,17765,17765,17765,17766,17772,17772,17772,17786,17791,17793,17793,17794,17794,17800,17800,17801,17801,17801,17801,17801,17802,17802,17830,17830,17830,17831,17831,17831,17831,17831,17832" d="m273,364c0.44318,-9.67184 0.55542,-10.2991 0.71884,-10.87949c0.31226,-1.10901 0.5361,-1.63742 0.74731,-2.17935c0.69275,-1.77756 0.95819,-2.44724 1.21783,-3.16516c0.27185,-0.75171 0.54361,-1.53391 0.81601,-2.3385c0.27695,-0.81808 0.55008,-1.64478 0.81601,-2.47351c0.52271,-1.62894 0.76443,-2.4202 0.99731,-3.19199c0.22708,-0.75256 0.44275,-1.48859 0.64502,-2.2095c0.19766,-0.70444 0.38507,-1.39505 0.55499,-2.07449c0.32986,-1.31894 0.46777,-1.96738 0.60532,-2.61334c0.28168,-1.32309 0.42093,-2.02097 0.57867,-2.75198c0.16745,-0.776 0.34506,-1.60699 0.80267,-3.45602c0.25711,-1.03891 0.55008,-2.13785 0.858,-3.28348c0.31601,-1.17569 0.642,-2.36234 0.966,-3.54453c0.31799,-1.16016 0.63272,-2.27899 1.17599,-4.33865c0.23901,-0.90616 0.4491,-1.73557 0.61951,-2.50351c0.15836,-0.71359 0.28741,-1.39072 0.3765,-2.04449c0.08704,-0.63879 0.15851,-1.28076 0.17065,-2.61865c0.00653,-0.71954 -0.03159,-1.4761 -0.0675,-2.26651c-0.03735,-0.82159 -0.08362,-1.67081 -0.11249,-2.5455c-0.0296,-0.89633 -0.07291,-1.81342 0.01334,-3.68799c0.04401,-0.95663 0.14709,-1.92471 0.26251,-2.90851c0.1178,-1.00427 0.2601,-2.02875 0.39749,-3.0795c0.14099,-1.07825 0.30328,-2.18518 0.50665,-4.51199c0.10635,-1.21674 0.1694,-2.46384 0.228,-3.72601c0.05875,-1.26581 0.1026,-2.52411 0.15601,-3.76199c0.05203,-1.20612 0.07843,-2.37137 0.28268,-4.51199c0.09201,-0.96417 0.2272,-1.86017 0.3765,-2.703c0.1431,-0.80786 0.31046,-1.58881 0.47549,-2.36099c0.16595,-0.77646 0.35663,-1.56628 0.64801,-3.26935c0.15842,-0.92581 0.28625,-1.90323 0.405,-2.91599c0.1214,-1.03528 0.22,-2.08401 0.315,-3.13202l0.08499,-1.03601l0.07501,-1.01199" id="svg_3" stroke-width="2" stroke="#000" fill="none"/>
  <path t="18293,18432,18432,18432,18432,18433,18433,18433,18448,18448,18448,18448,18448,18448,18448,18448,18449,18500,18500,18500,18500,18500,18500,18500,18500,18500,18505,18505,18505,18505,18505,18505,18506,18506,18506,18512,18512,18512,18513,18513,18513,18513,18513,18513,18529,18529,18529,18529,18529,18530,18530,18530,18530,18563,18564,18564,18564,18567,18568,18568,18568,18568,18596,18597,18597,18597,18597,18597,18597,18598,18598,18620,18620,18620,18621,18621,18621,18621,18621,18622" d="m287,369c0.00049,-10.77182 -0.00089,-11.49475 0.01349,-12.1795c0.01382,-0.65796 0.02191,-1.30225 0.15802,-2.57932c0.0705,-0.6615 0.3223,-2.07587 0.49231,-2.84851c0.1803,-0.81946 0.3916,-1.67355 0.6015,-2.56201c0.21582,-0.91354 0.43256,-1.84601 0.61951,-2.79599c0.18777,-0.9541 0.46594,-2.8667 0.52933,-3.81467c0.06323,-0.94565 0.07126,-1.90344 0.05252,-2.88c-0.01932,-1.0069 -0.07236,-2.05341 -0.1275,-3.14999c-0.05817,-1.15674 -0.17789,-3.68985 -0.21768,-5.08167c-0.04181,-1.46152 -0.06738,-2.9733 -0.08548,-4.51501c-0.01822,-1.55164 -0.02679,-3.09332 -0.03152,-4.60498c-0.00458,-1.46167 -0.00449,-4.155 -0.00449,-5.35284c0,-1.10483 0,-2.13367 0,-3.10349c0,-0.92786 0,-1.83069 0,-2.72552c0,-0.90381 -0.00095,-2.80649 0.00034,-3.83481c0.00134,-1.07834 0.00485,-2.19675 0.021,-3.345c0.01645,-1.1684 0.04343,-2.34695 0.09299,-3.52502c0.04916,-1.16867 0.20923,-3.43604 0.32834,-4.51633c0.11581,-1.05042 0.26013,-2.07501 0.40802,-3.08398c0.14682,-1.00171 0.30362,-2.00198 0.444,-3.01202c0.1424,-1.02463 0.38196,-3.15521 0.46231,-4.27481c0.08261,-1.15115 0.13483,-2.32947 0.17102,-3.52652c0.03653,-1.20865 0.05362,-2.42264 0.06299,-3.63449c0.00928,-1.20279 0.00745,-3.5535 0.00949,-4.68866c0.00198,-1.10617 0.00662,-2.18445 0.03152,-3.2355c0.02429,-1.02533 0.07599,-2.02533 0.1395,-3.0015l0.0845,-0.95319" id="svg_4" stroke-width="2" stroke="#000" fill="none"/>
  <path t="19049,19178,19178,19178,19178,19178,19178,19178,19178,19178,19213,19213,19213,19214,19214,19214,19214,19214,19214,19242,19242,19242,19242,19242,19243,19243,19243,19243,19255,19255,19255,19256,19256,19256,19256,19256,19256,19263,19263,19264,19264,19264,19264,19264,19264,19265,19300,19301,19301,19301,19301,19301,19301,19301,19302,19331,19331,19331,19332,19332,19332,19332,19332,19333,19340,19340,19341,19341,19341,19341,19341,19342,19342" d="m309,354c-0.5,-9 -0.65421,-9.90182 -0.85333,-10.79733c-0.19922,-0.89594 -0.42972,-1.78232 -0.66751,-2.66101c-0.2356,-0.87064 -0.4834,-1.72592 -0.71249,-2.57098c-0.44315,-1.6347 -0.62994,-2.42786 -0.79868,-3.21201c-0.16861,-0.78357 -0.32031,-1.58212 -0.46799,-2.40451c-0.15378,-0.85626 -0.30453,-1.75977 -0.46799,-2.71948c-0.36362,-2.13498 -0.57291,-3.32788 -0.80267,-4.59735c-0.24149,-1.33423 -0.49884,-2.71915 -0.771,-4.14148c-0.27713,-1.44833 -0.56219,-2.90872 -0.86102,-4.36652c-0.58722,-2.86475 -0.89386,-4.24408 -1.19733,-5.58798c-0.2966,-1.31345 -0.59772,-2.5979 -0.89999,-3.858c-0.29773,-1.24121 -0.59882,-2.46564 -0.89999,-3.67801c-0.59766,-2.40591 -0.90085,-3.60452 -1.19733,-4.80133c-0.29486,-1.19019 -0.58444,-2.37128 -0.86102,-3.5415c-0.27271,-1.15381 -0.53564,-2.28918 -0.771,-3.40649c-0.45343,-2.15268 -0.63388,-3.19165 -0.80133,-4.20935c-0.16547,-1.00568 -0.31174,-2.01282 -0.44849,-3.03c-0.13931,-1.03613 -0.27002,-2.10321 -0.4035,-3.20999c-0.28619,-2.37305 -0.43878,-3.65564 -0.60001,-4.992c-0.1658,-1.3743 -0.33389,-2.77045 -0.49649,-4.173c-0.16138,-1.39212 -0.31763,-2.758 -0.45151,-4.08298c-0.24829,-2.45746 -0.33206,-3.56445 -0.39868,-4.58801c-0.06165,-0.94684 -0.09866,-1.82535 -0.129,-2.64151l-0.02032,-0.76117l-0.01233,-0.71317l-0.00635,-0.67215" id="svg_5" stroke-width="2" stroke="#000" fill="none"/>
  <path t="19825,19961,19961,19961,19962,19962,19962,19962,19962,19962,19979,19979,19979,19979,19979,19979,19980,19980,19980,19997,19998,19998,19998,19998,19998,19998,19998,19998,20029,20030,20030,20030,20030,20030,20031,20031,20031,20050,20050,20051,20051,20051,20051,20051,20051,20051,20063,20064,20064,20064,20064,20065,20065,20065,20065" d="m301,366c0,-11 0.00247,-12.10034 -0.004,-13.20267c-0.0065,-1.10635 -0.02072,-2.21887 -0.0585,-3.33899c-0.03815,-1.13062 -0.09171,-2.27408 -0.19351,-3.42902c-0.20859,-2.36606 -0.39896,-3.57382 -0.59866,-4.79999c-0.20282,-1.24527 -0.43878,-2.50211 -0.68698,-3.771c-0.25043,-1.28043 -0.51755,-2.56677 -0.77701,-3.86102c-0.52045,-2.59616 -0.7663,-3.89627 -0.992,-5.19864c-0.22565,-1.302 -0.43146,-2.60797 -0.60599,-3.91953c-0.17484,-1.31384 -0.32761,-2.63467 -0.42599,-3.96448c-0.19821,-2.67862 -0.20151,-4.03729 -0.2067,-5.40933c-0.00528,-1.39401 0.01727,-2.81598 0.0285,-4.272c0.01154,-1.49597 0.02518,-3.03842 -0.01648,-4.63202c-0.0881,-3.36932 -0.23798,-5.15134 -0.39868,-6.98798c-0.16437,-1.87842 -0.36508,-3.78006 -0.564,-5.6925c-0.19843,-1.90753 -0.40607,-3.79352 -0.564,-5.64752c-0.3013,-3.53741 -0.36475,-5.19995 -0.396,-6.78265c-0.02972,-1.50613 -0.00668,-2.93866 0.02249,-4.29901l0.04416,-1.29031l0.05417,-1.22235l0.05917,-1.15631" id="svg_6" stroke-width="2" stroke="#000" fill="none"/>
  <path t="20514,20711,20711,20711,20711,20711,20711,20712,20712,20712,20728,20728,20729,20729,20729,20729,20729,20729,20729,20781,20781,20782,20782,20782,20782,20782,20782,20782,20787,20788,20788,20788,20788,20788,20788,20788,20788,20795,20796,20796,20796,20796,20796,20797,20797,20797" d="m322,369c-3.83334,-15.33334 -4.17819,-16.71445 -4.51599,-18.06134c-0.33084,-1.31912 -0.65747,-2.6163 -0.98401,-3.897c-0.32416,-1.2713 -0.64987,-2.53873 -0.98401,-3.80698c-0.67697,-2.56952 -1.0361,-3.87823 -1.40134,-5.20667c-0.37039,-1.34726 -0.75027,-2.71078 -1.1355,-4.09052c-0.38947,-1.39493 -0.78476,-2.80338 -1.18048,-4.22549c-0.80087,-2.87805 -1.19894,-4.33511 -1.604,-5.80933c-0.41226,-1.50046 -0.83463,-3.03543 -1.27802,-4.61102c-0.45789,-1.62711 -0.93829,-3.31274 -1.45798,-5.061c-1.11032,-3.73514 -1.73965,-5.72375 -2.39603,-7.784c-0.67322,-2.11313 -1.37091,-4.25458 -2.0835,-6.405c-0.71008,-2.14291 -1.4201,-4.25522 -2.12848,-6.315c-1.34018,-3.89694 -1.98285,-5.69055 -2.59201,-7.38266c-0.57535,-1.59818 -1.12933,-3.10532 -1.65451,-4.53149l-0.50015,-1.35117l-0.47617,-1.28317l-0.45319,-1.22217" id="svg_7" stroke-width="2" stroke="#000" fill="none"/>
  <path t="21229,21361,21361,21361,21361,21361,21362,21362,21362,21362,21378,21378,21379,21379,21379,21379,21379,21379,21379,21418,21419,21419,21419,21419,21419,21420,21420,21420,21436,21437,21437,21437,21438,21438,21438,21438,21438,21446,21447,21447,21447,21447,21447,21447,21448,21448,21463,21464,21464,21464,21464,21464,21464,21465,21465,21497,21497,21498,21498,21498,21498,21498,21498,21499,21512,21513,21513,21513,21514,21514,21524,21524,21524,21545,21545,21546,21546,21546,21546,21547,21547,21547,21552,21552,21553,21553,21553,21553,21556,21556,21557,21581,21582,21582,21582,21582,21583,21583,21583,21584,21615,21616,21616,21616,21616,21617,21617,21618,21618,21624,21627,21628,21628,21628,21629,21629,21629,21630,21647,21648,21648,21649,21649,21649,21649,21650,21650,21664,21665,21665,21666,21667,21667,21668,21668,21668,21681,21682,21682,21682,21683,21683,21683,21684,21684,21697,21698,21699,21699,21699,21700,21700,21701,21701,21731,21732,21733,21733,21733,21733,21734,21734,21734,21746,21747,21747,21747,21748,21748,21748,21749,21749,21762,21763,21764,21764,21765,21766,21768,21769,21771,21798,21799,21800,21800,21800,21801,21802,21802,21803,21812,21813,21814,21815,21816,21816,21817,21817,21818,21831,21832,21833,21833,21834,21834,21835,21839,21840,21846,21847,21848,21848,21849,21849,21850,21851,21851,21862,21863" d="m284,351c0.5,-14.5 0.64746,-15.61005 0.85333,-16.63467c0.19351,-0.9631 0.4263,-1.86462 0.66751,-2.71948c0.23242,-0.82376 0.48676,-1.61722 0.71249,-2.40451c0.45016,-1.56995 0.63263,-2.38232 0.79599,-3.21066c0.16544,-0.83878 0.30392,-1.69122 0.42902,-2.55151c0.12561,-0.86374 0.23468,-1.73074 0.33899,-2.5965c0.20667,-1.71552 0.30383,-2.56216 0.40134,-3.40665c0.09818,-0.85019 0.19452,-1.71432 0.28049,-2.60101c0.08881,-0.91595 0.17221,-1.87009 0.2355,-2.871c0.13721,-2.16956 0.1683,-3.35321 0.20001,-4.59201c0.03278,-1.28052 0.05182,-2.58929 0.06448,-3.91199c0.01266,-1.32263 0.01758,-2.63135 0.0195,-3.91199c0.00363,-2.42136 -0.00052,-3.53717 0.004,-4.58801c0.00427,-0.99084 0.01288,-1.92682 0.039,-2.8125c0.02481,-0.841 0.05792,-1.64288 0.129,-2.4075c0.13477,-1.44952 0.26321,-2.13898 0.40002,-2.81067c0.1347,-0.66138 0.29602,-1.30942 0.47098,-1.94849c0.17441,-0.63696 0.36612,-1.26938 0.561,-1.9035c0.39487,-1.28476 0.6012,-1.93845 0.79468,-2.60934c0.19797,-0.68643 0.38925,-1.39545 0.561,-2.133c0.17789,-0.76379 0.34375,-1.56268 0.47098,-2.40302c0.27258,-1.80035 0.33411,-2.77823 0.40402,-3.79199c0.07193,-1.04294 0.12418,-2.10681 0.1875,-3.17999c0.06335,-1.07349 0.12253,-2.13849 0.23248,-3.17999c0.21017,-1.99084 0.39664,-2.91568 0.60001,-3.79333c0.19559,-0.84412 0.42743,-1.64847 0.66751,-2.42252c0.23346,-0.75262 0.48456,-1.47964 0.71249,-2.19748c0.4455,-1.40286 0.63187,-2.10451 0.79468,-2.80534c0.16144,-0.69496 0.29623,-1.3895 0.40948,-2.08051c0.11203,-0.68373 0.20441,-1.36276 0.27451,-2.03549c0.13721,-1.31711 0.16812,-1.96478 0.20667,-2.608c0.03879,-0.64711 0.07333,-1.3056 0.12299,-1.98151c0.05151,-0.70148 0.11331,-1.43579 0.21301,-2.2065c0.21899,-1.69295 0.4053,-2.61841 0.59601,-3.59599c0.19882,-1.01913 0.41797,-2.06601 0.62848,-3.13501c0.21219,-1.07767 0.42422,-2.15373 0.5835,-3.22499c0.30652,-2.06166 0.36441,-3.04643 0.40002,-3.98933c0.03424,-0.90596 0.02808,-1.7787 0.01648,-2.619c-0.01117,-0.81038 -0.04001,-1.59274 -0.0285,-2.349c0.02197,-1.44334 0.10339,-2.13541 0.20267,-2.81334c0.09912,-0.67688 0.23282,-1.35477 0.36752,-2.04599c0.13864,-0.71144 0.2916,-1.44849 0.41248,-2.226c0.26221,-1.68643 0.33258,-2.61787 0.39603,-3.59334c0.06555,-1.00827 0.10361,-2.03853 0.129,-3.07651c0.02524,-1.03271 0.03513,-2.04765 0.039,-3.03149c0.0072,-1.82265 0.00266,-2.63933 0.00266,-3.396c0,-0.70667 0,-1.37334 0,-2.01001c0,-0.61667 0,-1.22333 0,-1.83c0,-1.25333 0,-1.9175 0,-2.60666c0,-0.70917 0,-1.43333 0,-2.1675c0,-0.73917 0,-1.47833 0,-2.21251c0,-1.43333 0,-2.125 0,-2.80666c0,-0.68167 0,-1.37334 0,-2.08501c0,-0.74167 0,-1.52333 0,-2.355c0,-1.85333 0,-2.8905 0,-3.99068c0,-1.14616 0,-2.32133 0,-3.5085c0,-1.18216 0,-2.34233 0,-3.4635c0,-2.05733 0,-2.96432 0,-3.79332c0,-0.763 0,-1.472 0,-2.13901c0,-0.63699 0,-1.256 0,-1.869c0,-1.256 0,-1.92017 0,-2.60933c0,-0.70917 0,-1.43333 0,-2.1675c0,-0.73917 0,-1.47833 0,-2.21251c0,-1.43333 0,-2.12383 0,-2.79733c0,-0.6595 0,-1.308 0,-1.9485c0,-0.6355 0,-1.269 0,-1.90349c0,-1.28401 0,-1.938 0,-2.59601c0,-0.65601 0,-1.304 0,-1.938c0,-0.614 0,-1.202 0,-1.758c0,-0.992 0,-1.41733 0,-1.79466c0,-0.33133 0,-0.61867 0,-0.864c0,-0.20534 0,-0.37267 0,-0.504l0,-0.16267l0,-0.03566" id="svg_8" stroke-width="2" stroke="#000" fill="none"/>
  <path t="22163,22279,22279,22279,22280,22280,22280,22280,22313,22313,22314,22314,22316,22316,22316,22316,22317,22329,22329,22329,22329,22329,22329,22329,22330,22330,22348,22348,22348,22349,22349,22349,22349,22349,22349,22378,22378,22379,22379,22379,22379,22379,22380,22380,22399,22400,22400,22400,22400,22401,22401,22401,22401,22434,22435,22435,22435,22435,22435,22436,22436,22436,22441,22442,22443,22443,22443,22443,22444,22444,22444,22465,22466,22466,22466,22467,22467,22467,22467,22467,22494,22495,22495,22496,22496,22496,22497,22497,22497,22503,22504,22504,22504,22505,22505,22505,22505,22506,22519,22523,22524,22527,22527,22528,22528,22528,22528,22547,22548,22548,22549,22549,22549,22549,22550,22550" d="m286,271c0.22168,-7.70001 0.28174,-8.40054 0.36166,-9.10001c0.08005,-0.70056 0.17511,-1.40076 0.285,-2.10001c0.11011,-0.70078 0.5159,-2.8009 0.67499,-3.50098c0.16089,-0.70796 0.33823,-1.42647 0.52502,-2.16301c0.19315,-0.76147 0.40039,-1.5519 0.61499,-2.379c0.22543,-0.8689 0.70706,-2.75648 0.95966,-3.78551c0.26486,-1.07896 0.53305,-2.20061 0.80402,-3.3555c0.2764,-1.17809 0.5509,-2.37164 0.82199,-3.5715c0.27026,-1.19614 0.78882,-3.54388 1.03067,-4.67966c0.23541,-1.10559 0.45776,-2.18312 0.65399,-3.2355c0.19095,-1.02402 0.35971,-2.02386 0.492,-3.0015c0.12881,-0.95186 0.28793,-2.79411 0.31201,-3.68634c0.0238,-0.88258 0.00867,-1.76773 -0.01202,-2.6655c-0.02124,-0.92189 -0.05414,-1.87857 -0.06598,-2.8815c-0.01251,-1.05977 0.03183,-3.39505 0.10617,-4.68617c0.07843,-1.36232 0.19382,-2.77373 0.32248,-4.215c0.12964,-1.45207 0.27338,-2.89333 0.41251,-4.30499c0.13419,-1.36168 0.37311,-3.85457 0.45782,-4.95284c0.07748,-1.00446 0.13391,-1.93343 0.17102,-2.8035c0.03531,-0.82764 0.05368,-1.63063 0.06299,-2.42551c0.0094,-0.8038 0.009,-2.5065 0.009,-3.435c0,-0.97951 0,-2.00101 0,-3.0555c0,-1.07851 0,-2.17201 0,-3.2715c0,-1.09651 0,-3.24451 0,-4.28101c0,-1.0155 0,-2.019 0,-3.0195c0,-1.0065 0,-2.028 0,-3.0735c0,-1.07849 0,-3.3705 0,-4.59784c0,-1.27133 0,-2.57066 0,-3.88199c0,-1.30734 0,-2.59467 0,-3.84601c0,-1.19933 0,-3.37799 0,-4.3295c0,-0.8605 0,-1.63899 0,-2.3445c0,-0.64149 0,-1.228 0,-1.76849c0,-0.50351 0,-1.4355 0,-1.88034c0,-0.43384 0,-0.85567 0,-1.2645c0,-0.39484 0,-0.77467 0,-1.1385c0,-0.34683 0,-0.9855 0,-1.2755c0,-0.27 0,-0.52 0,-0.75c0,-0.21001 0,-0.40001 0,-0.57001l0,-0.14999" id="svg_9" stroke-width="2" stroke="#000" fill="none"/>
 </g>
 <g display="none">
  <title>muse_image</title>
  <image xlink:href="http://farm4.static.flickr.com/3164/2470155205_693c4b9bd5.jpg" id="muse" height="480" width="360" y="0" x="140"/>
 </g>
 <g display="none">
  <title>bbox</title>
  <rect stroke="#f00" fill="none" stroke-width="3" height="472.32" width="191.04" y="0" x="218.72" id="bbox"/>
 </g>
</svg>
