<svg width="640" height="480" xmlns="http://www.w3.org/2000/svg" xmlns:svg="http://www.w3.org/2000/svg" xmlns:xlink="http://www.w3.org/1999/xlink">
 <!-- Sketchy ANNOTATION
  ImageNet ID: n03467517_24525
  URL: http://farm4.static.flickr.com/3164/2470155205_693c4b9bd5.jpg
  Image Width: 375
  Image Height: 500
  BBox X: 82
  BBox Y: 0
  BBox Width: 199
  BBox Height: 492
  Exposure: 2000ms
  Synset Label: guitar
  Synset ID: n03467517
  Worker Tag: electric guitar with red bout
  Sanity Check: 
   Saved
  Comment: 
   {}
  Worker ID: A1P7U2ULSAE7YL
  Assignment ID: 3ZPPDN2SLVWMZ5XV0ZL73YFJ8MB9EL
  HIT ID: 3RZS0FBRWKAQ7AVUVV67AGKAN8UPCQ
  Work Time: 165s
  Worker Score: 0.7857
 END ANNOTATION -->
 <g display="inline">
  <title>Layer 1</title>
  <path t="0,120,136,144,152,168,168,176,192,208,224,240,256,256,272,272,288,288,296,304,336,336,344,350,368,368,376,384,392,400,400,408,416,416,432,448,448,456,466,466,472,480,496,512,520,520,536,552,560,568,568,576,584,592,592,600,608,624,648,664,664,672,688,704,712,712,720,728,728,736,752,752,761,776,792,800,800,808,816,824,840,856,856,872,880,904,920,936,945,952,968,976,976,984,1016,1032,1056,1064,1064,1080,1096,1096,1112,1120,1128,1128,1136,1152,1168,1184,1184,1192,1208,1224,1232,1232,1240,1240,1248,1256,1265,1265,1272,1280,1281,1288,1298,1304,1320,1336,1352,1352,1368,1377,1379,1379,1400,1400,1408,1416,1416,1424,1440,1456,1464,1472,1480,1488,1496,1504,1512,1520,1520,1528,1544,1544,1552,1552,1560,1577,1584,1592,1600,1624,1632,1640,1648,1656,1664,1680,1696,1712,1728,1760,1776,1784,1793,1808,1848,1848,1880,1888,1896,1904,1920,1928,1936,1976,1984,2000,2008,2016,2032,2032,2040,2040,2056,2072,2128,2128,2144,2176,2184,2197,2256,2264,2272,2288,2304,2314,2368,2400,2406,2456,2544,2568,2760,2816,2872,2888,2912,2920,2920,2944,2984,3000,3016,3024,3040,3040,3064,3072,3119,3136,3144,3152,3162,3176,3184,3184,3200,3200,3209,3216,3225,3248,3280,3296,3312,3320,3336,3360,3360,3368,3392,3408,3432,3464,3480,3496,3496,3512,3512,3512,3552,3560,3584,3592,3600,3616,3648,3680,3696,3720,3728,3728,3752,3776,3784,3800,3824,3848,3864,3880,3896,3912,3928,3944,3952,3960,3968,3976,3984,4000,4008,4032,4048,4057,4072,4072,4096,4104,4104,4120,4136,4144,4160,4184,4208,4224,4232,4248,4264,4264,4272,4280,4296,4304,4304,4312,4320,4320,4328,4336,4336,4344,4344,4360,4360,4376,4376,4384,4400,4400,4408,4416,4432,4440,4441,4448,4457,4457,4468,4480,4480,4488,4496,4496,4504,4512,4512,4528,4536,4536,4544,4544,4552,4560,4568,4576,4584,4592,4592,4608,4608,4616,4616,4624,4632,4640,4648,4648,4664,4664,4673,4674,4680,4688,4696,4696,4704,4712,4720,4720,4728,4728,4736,4736,4744,4760,4760,4768,4776,4784,4792,4792,4808,4816,4824,4824,4832,4840,4857,4873,4874,4880,4888,4896,4904,4904,4912,4920,4920,4928,4936,4944,4952,4952,4960,4968,4976,4984,4984,5000,5008,5008,5016,5016,5024,5024,5032,5040,5040,5048,5048,5056,5064,5064,5073,5074,5080,5088,5088,5096,5104,5104,5112,5112,5120,5128,5136,5136,5144,5152,5160,5168,5176,5192,5192,5192,5200,5200,5208,5208,5216,5216,5224,5224,5232,5232,5240,5240,5248,5248,5248,5256,5256,5264,5264,5273,5273,5280,5280,5289,5289,5289,5296,5296,5296,5304,5312,5312,5320,5320,5328,5328,5336,5336,5344,5344,5352,5352,5360,5368,5376,5376,5376,5384,5384,5392,5400,5400,5408,5416,5416,5416,5424,5424,5432,5432,5432,5440,5440,5440,5448,5448,5448,5456,5456,5457,5457,5464,5464,5464,5465,5473,5473,5473,5480,5480,5489,5490,5490,5495,5495,5496,5497,5504,5504,5512,5512,5513,5520,5520,5520,5528,5528,5529,5536,5536,5544,5544,5544,5552,5552,5560,5560,5568,5568,5568,5576,5577,5584,5584,5584,5592,5592,5592,5600,5600,5609,5610,5616,5616,5616,5624,5632,5632,5643,5648,5656,5656,5704,5735,5816,5863,5896,5896,5904,5928,5944,5952,5968,5975,5984,5993,6000,6000" d="m289.01135,298.09091c0.87869,-1.22134 1.49054,-1.81049 1.97467,-2.436c0.57721,-0.74579 0.94031,-1.55139 1.02402,-2.36398c0.09222,-0.89529 0.00131,-1.84283 0.00131,-2.72086c0,-0.87915 0,-1.78366 0,-2.64581c0,-0.83334 0,-1.81201 0,-2.586c0,-0.90002 0,-1.76334 0,-2.7265c0,-0.91019 -0.3291,-1.6655 -0.71597,-2.32217c-0.48712,-0.82687 -0.79816,-1.6644 -1.45068,-2.36533c-0.49149,-0.52795 -0.82446,-1.45139 -1.25867,-2.23334c-0.4556,-0.8205 -0.69815,-1.63541 -1.27917,-2.30002c-0.55637,-0.63641 -1.22644,-1.38394 -1.89548,-1.86398c-0.72696,-0.52164 -1.25528,-1.0184 -1.45267,-1.78784c-0.23395,-0.91205 -1.04025,-1.57278 -1.51135,-2.24817c-0.51169,-0.73358 -0.436,-1.69998 -0.436,-2.60001c0,-0.89999 0,-1.79999 0,-2.59998c0,-0.91467 0,-1.81067 0,-2.72086c0,-0.96317 0,-1.65384 0,-2.72198c0,-0.85718 0,-1.75717 0,-2.55717c0,-0.89999 0.03278,-1.83781 -0.42532,-2.58932c-0.50317,-0.82544 -0.57468,-1.61067 -0.57468,-2.41068c0,-0.89999 0,-1.8 0,-2.72083c0,-0.96317 -0.1297,-1.66229 0.00452,-2.722c0.11111,-0.87717 0.81104,-1.41118 0.991,-2.40001c0.16565,-0.91023 0.13046,-1.60271 0.65182,-2.40533c0.40472,-0.62305 0.3241,-1.58836 0.354,-2.43449c0.02859,-0.80891 0.72958,-1.36147 1.388,-1.95334c0.68954,-0.61983 0.38763,-1.73584 0.77734,-2.564c0.35687,-0.75839 1.3884,-0.70094 2.22266,-1.01067c0.73361,-0.27234 1.22134,-0.97873 2.11066,-0.98933c0.90002,-0.01073 1.64017,-0.59601 2.45184,-0.94284c0.69901,-0.29869 1.56549,-0.05716 2.63751,-0.05716c0.91064,0 1.85519,0.09546 2.61066,-0.284c0.86719,-0.43558 1.51172,-0.59895 2.436,-0.752c0.87036,-0.14412 1.60312,-0.78439 2.53067,-0.964c0.91629,-0.17743 1.83331,0 2.63333,0c0.89999,0 1.79999,-0.00008 2.61066,0c0.91049,0.00009 1.76639,-0.02762 2.56851,0.5c0.66745,0.43904 1.56323,0.44881 2.34216,0.7215c0.88522,0.30991 1.61774,0.93541 2.26801,1.3425c0.77026,0.48221 1.64703,0.89793 2.41064,1.26933c0.75394,0.36668 1.48029,0.70847 2.20001,1.36534c0.5845,0.53348 1.6153,0.40421 2.36401,0.83733c0.69858,0.40411 0.05792,1.6817 0.47766,2.44318c0.39386,0.71448 1.50119,0.55014 2.4375,1.02083c0.74359,0.37381 1.60361,0.74333 2.2355,1.216c0.70972,0.53087 1.59821,0.75288 2.17548,1.584c0.4939,0.71106 0.88269,1.53169 1.80984,1.6955c0.85178,0.15048 1.36987,0.62358 2.10135,1.0885c0.78223,0.49718 1.17444,1.30435 1.69864,1.916c0.55389,0.6463 1.26556,0.96178 2,1.52083c0.77536,0.59018 1.36823,1.06653 2.10001,1.5405c0.80115,0.51889 1.07031,1.37724 1.88266,1.76935c0.75314,0.36354 1.07147,0.90875 1.55334,1.73332c0.40146,0.68698 1.39105,0.60316 2.048,1.15201c0.61871,0.51691 1.38193,0.9549 1.89066,1.67332c0.46454,0.65605 1.46017,0.3678 2.32083,0.61517c0.76788,0.22072 1.35083,0.80515 2.09384,1.4315c0.63055,0.53152 0.91379,1.36243 1.77734,1.564c0.78036,0.18216 1.28143,0.85477 2.13333,1.00449c0.92816,0.16315 1.4686,0.84735 2.39999,0.99103c0.8895,0.13721 1.79999,0.00449 2.70001,0.00449c0.89999,0 1.79865,0 2.65265,0c0.94733,0 1.50177,-0.41763 2.16885,-0.87851c0.72952,-0.50403 1.55142,-0.51343 2.11182,-1.12149c0.5679,-0.61621 1.76654,-0.63004 2.38,-1.08401c0.75809,-0.56102 1.45279,-0.70535 2.28665,-1.08266c0.65399,-0.29591 0.71216,-1.36249 1.00452,-2.18599c0.27274,-0.76822 0.6539,-1.37512 1.01633,-2.14734c0.35495,-0.75629 0.95978,-1.30154 0.97916,-2.2c0.01865,-0.86455 0.81812,-1.29428 0.99869,-2.10133c0.19623,-0.87698 -0.34003,-1.92151 0.02216,-2.69867c0.35291,-0.75723 0.49307,-1.49754 1.03635,-2.14284c0.51471,-0.61137 1.48959,0.31313 1.88565,1c0.47195,0.81854 0.16022,1.88148 0.85852,2.3575c0.7493,0.51079 1.54681,0.89351 2.07715,1.50667c0.54315,0.62798 0.93579,1.10977 1.34283,1.87868c0.40103,0.75754 0.73938,1.53624 1.20401,2.28932c0.5076,0.82269 0.91147,1.46193 1.54932,2.03601c0.5787,0.52086 0.90891,1.19519 1.04617,2.09549c0.15054,0.98741 0.54907,1.6801 1.07901,2.45766c0.43207,0.63394 0.6011,1.5766 0.91083,2.41086c0.27234,0.73361 0.98706,1.258 0.98932,2.1315c0.00226,0.87915 0,1.77914 0,2.67917c0,0.89999 0,1.79999 0,2.59998c0,0.90002 0,1.80002 0,2.70001c0,0.88934 0,1.85718 0,2.70132c0,0.96533 0,1.63467 0,2.79868c0,0.78934 0,1.51468 0,2.47916c0,0.92084 0.07086,1.86929 -0.42532,2.49551c-0.52698,0.66507 -1.29788,1.02026 -1.61066,1.63599c-0.39862,0.7847 -0.9213,1.58633 -0.96402,2.48935c-0.04254,0.89899 0.19595,1.73441 -0.05716,2.60001c-0.25665,0.87762 -0.91425,1.5986 -0.94284,2.5c-0.02853,0.89935 0,1.74731 0,2.60132c0,0.89868 0,1.79868 0,2.69867c0,0.89999 -0.16702,1.81589 0.00134,2.69867c0.14444,0.75735 0.98001,1.23679 0.99866,2.10132c0.01938,0.89847 0.383,1.48636 1.19867,1.70135c0.79764,0.21024 0.71045,1.30338 0.80267,2.19867c0.08371,0.81259 0.79883,1.45374 0.97784,2.32083c0.19455,0.9422 0.06833,1.77631 0.59549,2.49384c0.46948,0.63901 1.26233,1.12564 1.40451,1.98532c0.16174,0.97794 0.50662,1.66315 0.99548,2.38934c0.44983,0.66824 1.00967,1.27112 1.30936,2.09467c0.25623,0.70413 0.47372,1.73376 1.06866,2.46332c0.49887,0.61172 0.47794,1.39926 0.68332,2.19135c0.22452,0.86578 1.37323,1.14963 1.67868,1.74799c0.44284,0.86749 0.41083,1.97025 0.80615,2.61334c0.52628,0.85608 1.04651,1.46783 1.3125,2.33334c0.23715,0.77161 0.07443,1.83356 0.22385,2.51398c0.23273,1.05972 1.03571,1.57727 1.50684,2.25269c0.51169,0.73358 0.43597,1.69998 0.43597,2.60001c0,0.90015 0,1.68533 0,2.62531c0,1.00803 -0.03571,1.80307 0.42535,2.56403c0.50095,0.82675 0.57465,1.49731 0.57465,2.43597c0,1.00803 0,1.76401 0,2.69553c0,0.96317 0,1.65381 0,2.7265c0,0.91931 0,1.7735 0,2.75266c0,0.77866 0,1.66666 0,2.52084c0,0.87915 0,1.77914 0,2.67917c0,0.90015 0,1.68533 0,2.63599c0,0.76532 0,1.75949 0,2.67868c0,0.96448 0,1.78531 0,2.68533c0,0.90015 0,1.68533 0,2.63599c0,0.76532 0.00992,1.75955 0,2.67868c-0.01041,0.96466 -0.50049,1.70413 -0.83331,2.48532c-0.32019,0.75153 0.11792,1.77054 -0.23868,2.60001c-0.37418,0.8703 -1.40244,1.0546 -1.75732,1.88531c-0.36667,0.85828 -0.02548,1.93399 -0.20667,2.64267c-0.22629,0.8851 -1.13879,1.27295 -1.52802,2.05734c-0.44119,0.88907 -0.88077,1.55371 -1.38333,2.17184c-0.57285,0.70459 -0.93112,1.37561 -1.53183,2.14282c-0.50912,0.65024 -0.86084,1.49121 -1.52084,2c-0.76501,0.58975 -1.42291,1.14954 -1.91599,1.78665c-0.56003,0.72363 -0.47156,1.80801 -1.08401,2.38c-0.71024,0.66333 -1.28394,1.08224 -2.09998,1.55484c-0.66656,0.38602 -1.29083,1.18784 -1.90002,1.7785c-0.59119,0.57321 -1.51141,0.86319 -2,1.52084c-0.50983,0.68628 -1.17807,1.26422 -1.97916,1.47916c-0.86694,0.2326 -1.38882,0.8493 -2.32083,1.00449c-0.8176,0.13614 -1.49155,0.73541 -2.336,1.02084c-0.84027,0.28403 -1.55389,0.56161 -2.48001,1.17334c-0.64774,0.42786 -1.55072,0.67953 -2.23132,0.854c-1.04889,0.26886 -1.76318,0.78989 -2.53799,1.03131c-0.95477,0.29749 -1.64862,0.57709 -2.59384,0.91602c-0.84875,0.30435 -1.48016,0.77396 -2.52167,0.94733c-0.70703,0.11771 -1.63538,0.27377 -2.16583,1.05267c-0.40842,0.5997 -0.75912,1.67053 -1.54767,1.94284c-0.65851,0.22742 -1.68433,0.05481 -2.62848,0.05716c-0.89551,0.00226 -1.53098,0.63666 -2.367,0.94284c-0.60486,0.22153 -1.65417,0.05716 -2.59018,0.05716c-0.89865,0 -1.784,0 -2.51883,0c-0.9505,0 -1.702,0 -2.4985,0c-1.22549,0 -2.07816,0 -3.08267,0c-0.79999,0 -1.79984,0 -2.57916,0c-0.85416,0 -1.7735,0 -2.67801,0c-0.74731,0 -1.74283,0 -2.54282,0c-1.00018,0 -1.82083,0 -2.48535,0c-1.26282,0 -2.05331,0 -2.98132,0c-0.8125,0 -1.81866,0 -2.54401,0c-0.98932,0 -1.78937,0.00659 -2.78934,0c-0.8107,-0.00534 -1.69269,-0.05145 -2.68265,-0.284c-0.80341,-0.18872 -1.53214,-0.51419 -2.50299,-0.65884c-0.90631,-0.13504 -1.70468,-0.12881 -2.65036,-0.48248c-0.57162,-0.21378 -1.56747,-0.46762 -2.36398,-0.60001c-1.0051,-0.16705 -1.75497,-0.54602 -2.77866,-0.85333c-0.75983,-0.22812 -1.66245,-0.50287 -2.36868,-0.76868c-0.88257,-0.33215 -1.85403,-0.34497 -2.81934,-0.35266c-0.6694,-0.00534 -1.45132,-0.02966 -2.42883,-0.35266c-0.76276,-0.25204 -1.79599,-0.56262 -2.57117,-0.814c-0.83539,-0.2709 -1.66068,-0.7662 -2.49765,-1.05469c-0.62878,-0.21674 -1.38174,-0.47946 -2.65036,-0.69467c-0.66034,-0.11203 -1.69568,-0.22131 -2.49597,-0.51999c-0.65585,-0.24478 -1.61804,-0.64551 -2.40402,-0.97467c-0.78345,-0.32809 -1.66449,-0.89081 -2.13464,-1.42532c-0.64996,-0.73895 -1.1723,-1.3916 -1.93335,-1.96399c-0.5596,-0.42087 -1.19714,-0.81433 -2.23849,-1.39984c-0.72147,-0.40564 -1.4567,-0.78192 -2.16901,-1.14301c-0.9747,-0.49408 -1.80502,-0.87442 -2.45248,-1.24649c-0.99783,-0.57346 -1.50391,-1.0661 -2.40018,-1.73199c-0.45966,-0.34149 -1.23053,-0.8728 -2.2905,-1.51202c-0.6929,-0.41785 -1.36145,-0.59818 -2.21735,-1.228c-0.74481,-0.5481 -1.10718,-1.20459 -2.14932,-1.69617c-0.57272,-0.27017 -1.46225,-0.42075 -2.20001,-1.09583c-0.66217,-0.6059 -0.93948,-1.20654 -1.79984,-2.00366c-0.5535,-0.51282 -1.31332,-0.9425 -2.18549,-1.543c-0.58304,-0.40143 -1.62552,-0.89227 -2.11469,-1.12085c-0.74084,-0.34619 -1.68024,-1.14008 -2.11465,-1.65384c-0.69113,-0.81738 -1.45081,-1.25085 -2.21866,-1.99197c-0.45691,-0.44101 -0.84955,-1.24286 -1.82385,-1.73251c-0.70798,-0.3558 -1.55585,-0.75232 -2.14282,-1.37683c-0.61392,-0.6532 -1.38365,-1.39832 -2,-1.63733c-0.78239,-0.30341 -1.62764,-0.62164 -2.364,-1.272c-0.69827,-0.61673 -1.24521,-1.15506 -1.836,-1.98132c-0.44621,-0.62408 -0.86398,-1.30426 -1.81467,-1.78268c-0.83479,-0.4201 -0.77379,-1.35635 -1.5425,-1.93634c-0.75859,-0.57236 -1.89935,-0.20551 -2.3575,-0.91565c-0.45787,-0.70972 -0.28307,-1.76266 -0.28534,-2.63467c-0.00226,-0.86398 -0.38608,-1.70236 -0.716,-2.36398c-0.42056,-0.84338 -0.284,-1.80002 -0.284,-2.70001c0,-0.89999 0,-1.79999 0,-2.70001c0,-0.89981 0,-1.78531 0,-2.672l0,-0.73065" id="svg_1" stroke-width="2" stroke="#000" fill="none"/>
  <path t="9633,9737,9745,9753,9761,9769,9785,9793,9802,9802,9817,9840,9849,9849,9857,9873,9881,9889,9897,9906,9906,9913,9923,9929,9929,9939,9945,9956,9956,9977,9985,9993,10002,10002,10018,10025,10041,10041,10057,10057,10065,10065,10073,10081,10090,10106,10113,10122,10122,10129,10139,10139,10145,10156,10156,10161,10171,10185,10185,10202,10209,10218,10218,10225,10233,10241,10249,10257,10265,10273,10280,10281,10290,10297,10297,10302,10313,10322,10329,10329,10339,10355,10373,10377,10385,10393,10408,10409,10418,10425,10441,10457,10457,10480,10489,10505,10505,10522,10522,10539,10539,10544,10544,10555,10561,10585,10601,10601,10624,10633,10641,10657,10665,10673,10721,10744,10769,10793,10825,10873,10913,10913,10945,10953,10976,10986,10993" d="m292.01135,295.09091c-1.71466,1.08398 -2.11707,1.78192 -2.57465,2.60001c-0.43198,0.77231 -0.97614,1.34012 -1.72534,1.75266c-0.83868,0.46182 -1.67007,0.86191 -2.29999,1.22202c-0.8642,0.49405 -1.72089,0.7605 -2.40002,1.42532c-0.49487,0.48447 -0.84622,1.51898 -1.43597,1.97467c-0.74628,0.57663 -1.80777,0.68024 -2.44284,1.24683c-0.67267,0.60013 -1.22974,1.15967 -1.78784,1.7785c-0.65088,0.72168 -1.30743,1.20761 -1.93332,1.57468c-0.77155,0.45248 -1.71384,0.76776 -2.40002,1.42532c-0.57587,0.55188 -1.45023,0.81079 -1.97464,1.436c-0.52924,0.63095 -1.06601,1.29272 -1.82535,1.64798c-0.73145,0.34222 -0.97562,1.30115 -1.48666,2.11603c-0.36642,0.58426 -1.37744,1.08075 -2.06067,1.5c-0.77966,0.47842 -1.30084,1.12732 -1.70532,2c-0.3317,0.71561 -1.43948,0.9187 -1.89017,1.65717c-0.49442,0.81009 0.05347,1.81992 -0.078,2.62198c-0.14438,0.88077 -0.81903,1.47241 -1.00452,2.20618c-0.2713,1.07324 -0.86212,1.80536 -0.97333,2.61465c-0.11502,0.83701 -0.81683,1.22205 -1.39066,2.06134c-0.41327,0.60446 -0.5321,1.65625 -0.96335,2.43866c-0.40988,0.74365 -0.64667,1.5 -0.64734,2.40002c-0.00067,0.89999 0,1.79999 0,2.69998c0,0.89999 0.08212,1.8038 -0.00015,2.70001c-0.08368,0.91144 -0.80057,1.55362 -0.979,2.42084c-0.19415,0.94363 -0.02084,1.65381 -0.02084,2.7175c0,0.83365 0,1.62299 0,2.595c0,0.86215 0,1.76666 0,2.64581c0,0.95685 0,1.82083 0,2.72086c0,0.89999 0,1.79999 0,2.59998c0,0.90002 0,1.80002 0,2.72086c0,0.96182 0,1.76932 0,2.70065c0,0.87851 -0.09093,1.79092 0.05719,2.53568c0.18478,0.92908 0.65128,1.63281 0.85883,2.64148c0.15582,0.75726 0.43658,1.67722 0.79999,2.40002c0.38583,0.76743 1.02103,1.55957 1.284,2.36798c0.28873,0.88757 0.1243,1.61078 0.57468,2.43335c0.42728,0.7804 0.38593,1.72855 0.92532,2.39999c0.48764,0.60703 1.22324,0.99493 1.53601,1.61066c0.39862,0.7847 0.77072,1.60623 0.96417,2.48917c0.18475,0.84329 1.09982,0.90018 1.99982,0.90018c0.80002,0 1.70001,0 2.64285,0l0.87799,0l0.87918,0l0.89999,0" id="svg_2" stroke-width="2" stroke="#000" fill="none"/>
  <path t="12752,12848,12856,12857,12857,12873,12873,12873,12873,12875,12875,12881,12881,12881,12888,12888,12888,12898,12898,12898,12898,12904,12904,12904,12913,12913,12913,12920,12920,12920,12928,12928,12928,12928,12936,12936,12944,12944,12953,12953,12961,12961,12961,12969,12969,12969,12977,12985,12993,12993,13001,13001,13009,13009,13017,13024,13025,13033,13033,13041,13049,13049,13057,13057,13065,13072,13073,13081,13082,13089,13089,13098,13098,13098,13098,13104,13104,13113,13113,13113,13121,13121,13121,13129,13129,13136,13136,13136,13144,13144,13153,13153,13169,13169,13177,13177,13185,13192,13202,13202,13209,13209,13225,13241,13252,13273,13288" d="m231.01137,323.09091c0.97917,1.04166 0.97783,2.00058 1.01067,2.82132c0.02777,0.69403 0.20444,1.82245 0.342,2.47952c0.2124,1.01453 0.34056,1.65054 0.59917,2.83667c0.14526,0.66623 0.61134,1.63556 1.069,2.38333c0.32663,0.53369 0.98276,1.54486 1.34317,2.2645c0.35678,0.71237 0.64528,1.5452 0.936,2.51999c0.2066,0.69275 0.3597,1.40283 0.8,2.65167c0.27509,0.78021 0.60432,1.43185 1.09999,2.44434c0.30266,0.61823 0.60823,1.28073 1.00134,2.284c0.32634,0.83286 0.51953,1.43698 1.11983,2.6145c0.30862,0.60541 0.70723,1.15454 1.1095,2.01483c0.45599,0.97519 0.54536,1.87473 0.5695,2.88516c0.01862,0.77939 0.27168,1.75513 0.57449,2.46152c0.3674,0.85709 0.34886,1.61221 0.53517,2.39047c0.25121,1.04935 0.66852,1.78128 1.4075,2.37619c0.76308,0.61429 1.35693,1.05954 1.83983,1.8765c0.37207,0.62946 1.00171,1.32635 1.28568,2.10001c0.35481,0.96667 0.31027,1.95743 0.87799,2.59549c0.5898,0.66287 1.03658,1.26071 1.80034,1.97849c0.60251,0.56625 1.14018,1.18631 1.8455,1.85486c0.52118,0.49402 1.21367,1.04037 1.63333,1.68399c0.56345,0.86411 1.03055,1.72253 1.36932,2.36801c0.43619,0.83109 1.01334,1.29193 1.80951,2.09348c0.54019,0.54382 1.3519,1.35712 1.78915,1.78784c0.72772,0.71686 1.16418,1.25601 2.08917,1.86917c0.71564,0.47437 1.4827,0.78635 2.16367,1.40582c0.59717,0.54324 1.37784,1.35699 1.95834,1.9375c0.53549,0.53552 1.28967,1.25391 1.7735,1.83069c0.59604,0.71057 1.04089,1.45508 1.59467,2.12766c0.5983,0.72665 1.42154,1.06265 2.30084,1.41516c0.65567,0.26285 1.69556,0.79449 2.37265,1.16818c0.82584,0.45575 1.37546,1.15353 2.27917,1.422c0.86575,0.2572 1.86667,0.05716 2.52533,0.05716c1.008,0 1.87219,0.05353 2.67465,0.5c0.79752,0.44373 1.46402,0.92532 1.85718,1.5l0.84283,0" id="svg_3" stroke-width="2" stroke="#000" fill="none"/>
  <path t="15104,15160,15160,15169,15169,15169,15176,15176,15176,15184,15184,15184,15184,15192,15192,15192,15192,15201,15201,15201,15201,15208,15208,15209,15209,15209,15216,15216,15216,15216,15216,15224,15224,15224,15224,15224,15224,15233,15233,15233,15240,15240,15240,15240,15248,15248,15248,15248,15248,15256,15256,15265,15265,15265,15272,15272,15272,15272,15280,15280,15280,15280,15288,15288,15288,15296,15296,15296,15304,15304,15304,15304,15312,15312,15312,15312,15320,15320,15320,15328,15328,15328,15336,15336,15345,15345,15345,15352,15352,15362,15368,15368,15376,15392,15392,15401,15408,15417,15417,15424,15424,15441,15450,15452,15452,15466,15473,15484,15505,15517,15521,15521,15529,15536,15536,15545,15545,15553,15553,15562,15569,15577,15577,15585,15608,15625,15637,15655,15669,15689,15706,15731" d="m229.01137,310.09091c0,1.71884 0,2.46616 0,3.42151c0,0.81448 -0.0045,1.68298 0,2.57849c0.0045,0.89554 -0.05568,1.80356 0.33333,2.83334c0.28665,0.75882 0.87602,1.41306 1.18401,1.93597c0.50136,0.85126 0.85805,1.89935 1.07199,2.65201c0.22116,0.77808 0.5061,1.97974 0.71518,2.77417c0.10381,0.39444 0.26468,1.1944 0.86217,2.63785c0.28835,0.69659 0.66779,1.34897 1.07999,1.99197c0.42751,0.66687 1.17557,1.69571 1.43735,2.06134c0.54318,0.75867 1.09883,1.55475 1.36333,1.97501c0.81142,1.28934 1.27203,2.21622 1.4865,2.68201c0.41814,0.90814 0.61426,1.3483 0.89417,2.20166c0.45454,1.38577 0.48538,1.97598 0.67734,2.75549c0.28476,1.15646 0.60335,1.814 0.9155,2.54083c0.32977,0.76785 0.82341,1.95456 1.09384,2.75433c0.25986,0.76852 0.44547,1.5061 0.68399,2.14801c0.45151,1.21512 0.96924,1.84879 1.52284,2.59885c0.52478,0.711 0.86571,1.26056 1.6785,2.2905c0.38898,0.49289 1.01753,1.17368 1.39999,1.67648c0.83952,1.1037 1.19556,1.79367 1.60001,2.46933c0.39566,0.66098 0.97774,1.54224 1.591,2.15836c0.51881,0.52124 1.20796,1.39633 1.34766,2.13449c0.15697,0.82941 0.17439,1.74158 0.42751,2.62799c0.26195,0.91736 0.56366,1.52817 1.1765,2.39984c0.43379,0.617 0.96466,1.17297 1.452,1.74301c0.87581,1.02441 1.33028,1.73029 1.75349,2.35266c0.55545,0.81686 1.0954,1.3891 1.59918,2.00449c0.79828,0.97516 1.06598,1.65454 1.81934,2.43335c0.58704,0.60687 1.42825,0.97473 1.71899,1.81934c0.28336,0.82309 0.04242,1.92511 0.68234,2.54733c0.50592,0.49194 1.21185,1.15515 1.6535,1.89999c0.39285,0.66254 1.19852,1.26022 1.97714,1.81732c0.69894,0.50006 0.66785,1.32797 1.08667,2.19733c0.31088,0.64532 1.07492,1.30536 1.63202,2.08401c0.49991,0.69873 1.40405,0.45963 2.08282,1.02267c0.62115,0.51526 0.98499,1.29938 0.99982,2.17865c0.01511,0.89542 0.61682,1.35736 1.29468,1.65268c0.86142,0.37531 1.27737,1.14313 2.05716,1.64734c0.76688,0.49588 1.37152,1.04599 2.13217,1.49866c0.83435,0.49649 1.77591,0.62201 2.616,0.80167c0.93842,0.20068 1.2012,0.90378 1.77869,1.75684c0.48776,0.72049 1.33823,1.04953 2.22116,1.24298c0.84329,0.18475 0.90033,1.09967 1.18549,1.91452l0.91467,0.08533l0.89999,0" id="svg_4" stroke-width="20" stroke="#fff" fill="none"/>
  <path t="18736,18840,18849,18858,18858,18864,18864,18872,18880,18880,18888,18896,18904,18904,18912,18920,18928,18928,18936,18944,18944,18944,18952,18952,18960,18968,18976,18984,18984,18992,19000,19000,19016,19016,19032,19032,19032,19040,19040,19048,19057,19064,19064,19072,19088,19088,19096,19096,19104,19104,19112,19128,19129,19136,19136,19145,19152,19160,19168,19168,19178,19184,19210,19216,19228,19229,19232,19241,19248,19280,19288,19289,19297,19376,19385,19400,19570,19664,19680,19712,19736" d="m256.01135,350.09091c0.03601,1.61066 0.57355,2.35095 0.87851,3.32132c0.20572,0.65454 0.09705,1.65753 0.12149,2.47736c0.02859,0.95978 0.38156,1.84244 0.64734,2.54865c0.33215,0.88257 0.1792,1.90997 0.51935,2.65268c0.36758,0.80261 1.34283,1.18143 1.71182,2.10001c0.3385,0.84271 0.2019,1.70291 0.64233,2.44165c0.47388,0.79486 0.80075,1.45477 1.04318,2.20767c0.35291,1.09604 0.03625,2.05713 0.47198,2.81467c0.39673,0.68973 1.6792,0.40164 2.25949,1.14584c0.44885,0.57562 0.5611,1.70804 0.98984,2.49149c0.3342,0.61072 1.02258,1.45163 1.31467,2.00934c0.51422,0.98193 0.86646,1.80988 1.28534,2.30402c0.68192,0.80444 1.51797,1.09631 2.09384,1.98532c0.48105,0.74261 1.09106,1.44107 1.5,2c0.59808,0.81747 0.77802,1.69177 1.22534,2.26166c0.54086,0.68903 0.83002,1.45813 1.49548,2.353c0.45734,0.61499 1.18228,1.30359 1.79999,1.88535c0.61884,0.58282 1.5397,0.72473 2.29019,1.05267c0.83795,0.36618 1.07571,1.4567 1.90982,1.86331c0.75357,0.36734 1.58963,0.74139 1.77917,1.58401c0.21509,0.95615 0.69519,1.42111 1.42084,1.936c0.67157,0.4765 1.28946,0.98141 2.07916,1.564c0.638,0.47067 1.00955,1.28696 1.74234,1.87866c0.64578,0.52145 1.43195,0.92529 2.3425,1.11066c0.84427,0.17188 1.36584,0.78436 2.08331,1.0062c0.88599,0.27393 1.78867,0.00449 2.75269,0.00449l0.89999,0l0.89999,0" id="svg_5" stroke-width="2" stroke="#000" fill="none"/>
  <path t="22440,22512,22512,22520,22520,22520,22520,22528,22528,22528,22537,22537,22537,22537,22544,22544,22544,22554,22554,22554,22560,22560,22560,22560,22568,22568,22568,22576,22576,22576,22584,22584,22584,22584,22592,22592,22600,22600,22600,22616,22616,22616,22632,22640,22680,22688,22696,22704,22712,22720,22728,22736,22754,22754,22760" d="m336.01135,228.09091c0.70984,1.66167 1.24918,2.20485 1.83334,3.16667c0.46216,0.76093 0.65686,1.35023 0.96533,2.23466c0.41629,1.19356 0.60135,1.79866 0.90134,2.69867c0.29999,0.89999 0.59573,1.79697 0.79999,2.37917c0.29388,0.83768 0.70001,1.83682 1,2.52083c0.30002,0.68401 0.69855,1.68771 1.02084,2.54167c0.23428,0.62077 0.63751,1.62877 0.96317,2.33966c0.33286,0.72661 0.83539,1.76793 1.34933,2.61867c0.39304,0.65062 0.92798,1.29428 1.48834,2.04283c0.53329,0.71237 0.8739,1.28967 1.845,2.2905c0.49008,0.50507 1.06381,0.88843 1.76633,1.505c0.84589,0.74243 1.07294,1.48186 1.35367,2.43098c0.2251,0.76102 0.39984,1.32721 1.03467,2.30884c0.45291,0.70035 1.22589,1.30185 2.03198,1.8605c0.64868,0.44955 1.16739,1.04617 2.04669,1.06134c0.98923,0.01706 1.47705,0.71698 2.21066,0.98932c0.83423,0.30969 1.68481,0.36786 2.26801,1.11069l0.28799,0.89999l0.444,0.60001l0.68481,0.69998" id="svg_6" stroke-width="20" stroke="#fff" fill="none"/>
  <path t="25721,25817,25827,25827,25837,25841,25855,25857,25865,25865,25874,25874,25881,25889,25897,25897,25906,25914,25914,25921,25922,25922,25929,25961,26009,26435,26457,26497,26497,26513,26521,26545,26553,26561,26569,26577,26585,26593,26601,26608,26624,26640,26680,26744,26784,26816,26816,26992,27352,27408,27456,27460,27496,27544,27720,27728,27744,27768,27776,27784,27784,27801,27808,27824,27840,27848,27880,27904,27920,27936,27984,28009,28017,28048,28065,28089" d="m331.01135,241.09091c0,1.02083 0,1.9785 0,2.79866c0,0.90134 -0.00165,1.82079 0.42535,2.60133c0.45062,0.82373 0.57465,1.76668 0.57465,2.60001c0,0.83333 0,1.6955 0,2.60001c0,0.92082 0,1.88399 0,2.57466c0,1.07266 0,1.99199 0,2.66133c0,1.164 0,1.95334 0,2.67868c0,1.03867 0,1.92133 0,2.78531c0,0.89868 0.08536,1.70001 1,1.70001c0.80002,0 1.70001,0 2.60001,0c0.89999,0 1.80002,0 2.70001,0c0.89999,0 1.79999,0 2.69998,0c0.87869,0 1.70453,0 2.60001,0c0.89999,0 1.80002,0 2.70001,0c0.89999,0 1.79999,0 2.69998,0c0.80002,0 1.70001,0 2.64285,0c0.87799,0 1.76752,0.13574 2.65265,0c0.7301,-0.11197 1.08749,-0.78635 1.90317,-1.00134c0.79764,-0.21024 0.80133,-1.29416 0.80133,-2.22015c0,-0.87851 0,-1.7785 0,-2.57849c0,-0.90002 0,-1.80002 0,-2.70001c0,-0.89999 0,-1.8 0,-2.7c0,-0.89984 0,-1.77467 0,-2.60133c0,-0.89867 0,-1.79868 0,-2.69867l0,-0.89999l0,-0.90001l0,-0.89999" id="svg_7" stroke-width="2" stroke="#000" fill="none"/>
  <path t="29057,29217,29225,29249,29265,29313,29345,29377,29393,29401" d="m369.01135,256.09091c-1.564,-0.61067 -2.04419,-1.43616 -2.57465,-2.02533c-0.5249,-0.58298 -1.22668,-0.97334 -2.14001,-1.06l-0.50665,-0.79333l-0.69467,-0.40533l-0.50934,-0.69067" id="svg_8" stroke-width="2" stroke="#000" fill="none"/>
  <path t="30737,30928,30944,30952,30961,30968,30984,31000,31000,31016,31016,31024,31032,31048,31056,31064,31072,31080,31089,31105,31105,31112,31112,31120,31120,31136,31136,31148,31148,31152,31152,31161,31161,31168,31177,31177,31184,31193,31193,31200,31208,31208,31217,31224,31224,31232,31233,31240,31240,31249,31249,31256,31256,31265,31265,31272,31272,31282,31282,31282,31288,31288,31298,31298,31304,31314,31314,31314,31320,31320,31320,31320,31329,31329,31330,31337,31337,31345,31345,31345,31353,31354,31354,31360,31360,31369,31369,31377,31377,31377,31385,31385,31385,31385,31394,31394,31401,31401,31408,31409,31409,31417,31417,31424,31424,31424,31433,31433,31440,31440,31450,31450,31456,31456,31456,31466,31466,31466,31472,31483,31483,31488,31488,31488,31500,31500,31500,31504,31512,31512,31521,31521,31533,31533,31536,31536,31536,31550,31550,31553,31566,31567,31569,31569,31576,31577,31583,31583,31593,31593,31600,31610,31610,31617,31624,31624,31624,31634,31634,31640,31640,31650,31650,31656,31656,31667,31667,31672,31672,31683,31688,31688,31700,31700,31700,31704,31714,31714,31721,31722,31732,31732,31736,31749,31753,31753,31767,31767,31776,31776,31785,31793,31794,31800,31810,31824,31833,31833,31840,31864,31864,31873,31888,31888,31904,31904,31916,31920,31933,31950,31968,31992,32008,32032" d="m333.01135,247.09091c0,-1.7 0,-2.60001 0,-3.5c0,-0.89999 0,-1.88933 0,-2.78667c0,-0.88 0,-1.71333 0,-2.69183c0,-0.82016 0,-1.62151 0,-2.5215c0,-0.89999 0,-1.8 0,-2.7c0,-0.99867 0,-1.85268 0,-2.68668c0,-0.94933 0,-1.71466 0,-2.71333c0,-0.79999 0,-1.79999 0,-2.59999c0,-0.99983 0,-1.77917 0,-2.77867c0,-0.774 0,-1.6785 0,-2.42583c0,-0.99417 0,-1.93834 0,-2.83833c0,-0.85735 0.06677,-1.64563 -0.01065,-2.5825c-0.08398,-1.01653 -0.67844,-1.57758 -0.93216,-2.47917c-0.27588,-0.98036 -0.05719,-1.6955 -0.05719,-2.674c0,-1.0215 0,-1.77867 0,-2.67867c0,-0.74733 0,-1.74283 0,-2.54283c0,-0.99983 0,-1.77917 0,-2.77867c0,-0.90533 0,-1.85733 0,-2.62267c0,-1.00317 0,-1.63467 0,-2.82001c0,-0.804 0,-1.62599 0,-2.657c0,-0.675 0,-1.75499 0,-2.61716c0,-0.84618 0,-1.8475 0,-2.57651c0,-0.83699 0,-1.728 0,-2.62799c0,-0.90001 0,-1.5 0,-2.69867c0,-0.88051 0,-1.716 0,-2.71733c0,-0.90935 0,-1.85068 0,-2.63667c0,-0.82201 0,-1.88066 0,-2.59016c0,-0.85268 0,-1.85716 0,-2.65717c0,-1 0,-1.8 0,-2.8c0,-0.82133 0,-1.51433 0,-2.64267c0,-0.66266 0,-1.70667 0,-2.38933c0,-1.196 0,-2.11067 0,-2.94684c0,-0.83099 0,-1.7905 0,-2.54199c0,-0.79651 0,-1.79517 0,-2.70451c0,-0.94133 0,-1.72282 0,-2.76483c0,-0.86699 0,-1.758 0,-2.66699c0,-0.74733 0,-1.74417 0,-2.57884c0,-0.93066 0,-1.71666 0,-2.53867c0,-1.05865 0,-1.97867 0,-2.73866c0,-0.98666 0,-1.97333 0,-2.73334c0,-0.92 0,-1.70599 0,-2.528c0,-1.05865 0,-1.97867 0,-2.73866c0,-0.98666 0,-1.97066 0,-2.66133c0,-1.07716 0,-1.79466 0,-2.83516c0,-0.77551 0,-1.82351 0,-2.533c0,-0.85267 0,-1.85583 0,-2.8c0,-0.9045 0,-1.82383 0,-2.65717c0,-0.97867 0,-1.75267 0,-2.65717c0,-0.74734 0,-1.74017 0,-2.6285c0,-1.04767 0,-1.73517 0,-2.69283c0,-1.0215 0,-1.8215 0,-2.6935c0,-0.87083 0,-1.58933 0,-2.37983c0,-1.2615 0,-1.9065 0,-2.92683c0,-0.90533 0,-1.85733 0,-2.62267c0,-0.99866 0,-1.79867 0,-2.79733c0,-0.76534 0,-1.71733 0,-2.48534c0,-0.94133 0,-1.94933 0,-2.77733c0,-0.88134 -0.00232,-1.58934 0,-2.57067c0.00226,-0.95818 0.16327,-1.93601 0.42535,-2.59333c0.40274,-1.01011 0.56931,-1.79996 0.57465,-2.65867c0.00534,-0.86332 0,-1.75883 0,-2.71733c0,-0.96533 -0.16821,-1.66855 0.16669,-2.632c0.27173,-0.78168 0.83331,-1.6095 0.83331,-2.352c0,-0.92934 0,-1.81467 0,-2.61467c0,-0.9 0,-1.8 0,-2.72083c0,-0.96317 0,-1.65383 0,-2.7175c0,-0.92833 0,-1.64833 0,-2.587c0,-1.008 0,-1.8 0,-2.65867c0,-0.86333 0,-1.88 0,-2.716c0,-0.99867 0,-1.85266 0,-2.60133l0,-0.89867l0,-0.9l0,-0.9" id="svg_9" stroke-width="2" stroke="#000" fill="none"/>
  <path t="32976,33152,33160,33168,33168,33176,33184,33184,33200,33216,33216,33225,33232,33241,33242,33248,33248,33256,33264,33272,33272,33280,33288,33295,33295,33304,33304,33312,33320,33320,33328,33336,33336,33345,33352,33352,33360,33368,33368,33376,33376,33384,33384,33392,33392,33400,33400,33408,33416,33416,33424,33424,33432,33432,33441,33441,33448,33448,33458,33464,33472,33472,33480,33480,33488,33496,33496,33504,33504,33512,33520,33520,33528,33528,33536,33544,33552,33552,33560,33560,33568,33576,33584,33584,33584,33592,33600,33608,33616,33616,33624,33624,33641,33641,33648,33658,33664,33664,33672,33672,33680,33688,33688,33704,33713,33720,33720,33728,33728,33736,33744,33744,33752,33761,33768,33776,33776,33784,33784,33794,33800,33800,33811,33816,33824,33832,33832,33841,33848,33848,33858,33864,33873,33873,33880,33889,33896,33896,33904,33912,33920,33920,33929,33936,33936,33945,33952,33952,33963,33968,33979,33979,33984,33984,33984,33995,33996,34000,34012,34013,34016,34016,34016,34024,34033,34043,34043,34050,34051,34057,34074,34080,34088,34096,34113,34120,34136,34136,34152,34162,34179,34193,34219,34232,34256,34265,34265,34280,34297,34305,34325,34344,34360,34369,34400,34401,34409,34417,34432,34443,34457,34473,34481,34488,34497,34513,34520,34528,34544,34552,34552,34560,34560,34568,34576,34576,34593" d="m348.01135,60.09091c0,1.61066 -0.02347,2.52115 0.00134,3.484c0.01782,0.69131 0.43445,1.55292 0.832,2.516c0.27417,0.66417 0.16666,1.636 0.16666,2.484c0,0.86333 -0.00009,1.88 0,2.716c0.00009,0.90017 0.06137,1.69436 0.42535,2.62534c0.27286,0.69789 0.46399,1.66123 0.58533,2.58533c0.1217,0.92676 0.60306,1.55263 0.86783,2.56767c0.21796,0.83563 0.12149,1.727 0.12149,2.45367c0,1.01083 0,1.75333 0,2.81084c0,0.85733 0,1.64249 0,2.5825c0,1.008 -0.00064,1.764 0,2.6955c0.00067,0.96317 -0.10049,1.70094 0.28403,2.59383c0.41211,0.95694 0.71371,1.64249 0.71597,2.5425c0.00186,0.74733 0,1.74284 0,2.54283c0,0.99983 0,1.77917 0,2.7785c0,0.82017 0,1.77866 0,2.67867c0,0.74733 0,1.74284 0,2.54283c0,0.99983 0,1.77917 0,2.77867c0,0.77399 0,1.84666 0,2.53733c0,0.96317 0,1.89467 0,2.80534c0,0.85333 0,1.79466 0,2.56267c0,0.94133 -0.0929,1.95906 0.03601,2.74133c0.14532,0.88187 0.66373,1.51311 0.87866,2.48933c0.21271,0.96606 0.08533,1.77067 0.08533,2.71067c0,0.69067 0,1.764 0,2.6955c0,0.80067 0,1.68983 0,2.67883c0,0.75867 0,1.77951 0,2.61917c0,0.94917 0,1.68117 0,2.41316c0,1.09601 0,2.06801 0,2.96935c0,0.96533 0,1.62399 0,2.63199c0,0.88 0,1.73601 0,2.51851c0,1.01216 0,1.95267 0,2.81483c0,0.83333 0,1.81183 0,2.63199c0,0.83734 0,1.8495 0,2.632c0,0.9265 0,1.87384 0,2.73601c0,0.83333 0,1.81183 0,2.63199c0,0.83734 0,1.854 0,2.54868c0,1.01666 0,1.95267 0,2.85266c0,0.90016 0,1.68533 0,2.62534c0,0.69067 0,1.8 0,2.65866c0,0.86334 0,1.75883 0,2.716c0,0.90001 0,1.8 0,2.60001c0,0.836 0,1.85266 0,2.54733c0,1.01666 0,1.95717 0,2.81934c0,0.83333 0,1.81166 0,2.71216c0,0.83101 0,1.6385 0,2.60034c0,0.93149 0,1.84216 0,2.6955c0,0.94 0,1.82533 0,2.62534c0,0.836 0,1.85266 0,2.54733c0,1.01666 -0.01053,1.95723 0,2.81934c0.01044,0.85434 0.15009,1.83888 0.42535,2.63333c0.20944,0.60448 0.52734,1.59618 0.57016,2.54283c0.04086,0.90358 0.00449,1.82384 0.00449,2.67799c0,0.97917 -0.01215,1.76862 0,2.49384c0.01801,1.07512 0.55167,1.84042 0.83334,2.65201c0.27737,0.79922 0.16666,1.81183 0.16666,2.63199c0,0.84418 0,1.72217 0,2.70134c0,0.89999 0,1.8 0,2.7c0,0.90001 0,1.8 0,2.60001c0,0.89999 0,1.8 0,2.7c0,0.88933 0,1.78534 0,2.7c0,0.90001 0,1.8 0,2.60001c0,0.89999 0,1.8 0,2.7c0,0.88933 0,1.78534 0,2.69867c0,0.854 0,1.80133 0,2.60133c0,0.89999 0,1.8 0,2.7c0,0.89999 0,1.8 0,2.7c0,0.90001 0,1.8 0,2.63333c0,0.87117 -0.00253,1.76668 0,2.66667c0.00226,0.80452 0.22443,1.82007 0.5,2.5c0.33713,0.8318 0.49551,1.6955 0.5,2.636l0,0.84799l0,0.86334l0,0.89549" id="svg_10" stroke-width="2" stroke="#000" fill="none"/>
  <path t="35656,35808,35817,35817,35824,35832,35845,35862,35862,35879,35879,35881,35888,35905,35920,35922,35929,35939,35955,35960,35968,35982,36000,36024,36336,36345,36352,36352,36361,36362,36368,36376,36376,36376,36384,36384,36384,36385,36385,36385,36392,36400,36408,36408,36416,36416,36416,36424,36424,36440,36440,36456,36456,36464,36480,36480,36496,36496,36504,36512,36576,36608,36824,36832,36840,36848,36848,36856,36864,36872,36888,36896,36904,36912,36912,36920,36928,36944,36944,36960,36960,36968,36976,37000,37024,37032,37040,37064,37080,37080,37104,37104,37136,37144,37153,37176,37240" d="m335.01135,56.09091c-0.87866,-1.2215 -1.28967,-2.05691 -1.64731,-2.7c-0.47443,-0.85312 -1.0365,-1.53894 -1.34201,-2.36133c-0.28235,-0.75999 -0.01068,-1.54134 -0.01068,-2.53417c0,-0.91917 -0.06802,-1.82029 -0.57465,-2.42983c-0.53085,-0.63869 -1.11084,-1.39725 -1.36816,-2.27467c-0.25345,-0.86418 -0.5477,-1.51048 -1.03183,-2.136c-0.57721,-0.74581 -0.61115,-1.71311 -1.19202,-2.39734c-0.56558,-0.66625 -0.94431,-1.27353 -0.83334,-2.16666c0.11169,-0.89913 1.16669,-1 1.82535,-1c1.008,0 1.87018,0 2.71634,0c1.00131,0 1.73032,0 2.56732,0c1.19101,0 1.79102,0 2.69101,0c1.19998,0 1.79599,0 2.63748,0c1.0625,0 1.92419,0 2.884,0c0.69934,0 1.6785,0 2.47852,0c0.79999,0 1.79999,0 2.60001,0c1,0 1.79999,0 2.79965,0c0.92834,0 1.85101,0 2.67233,0c0.73068,0 1.72351,0 2.64267,0c0.96451,0 1.88535,0 2.78534,0c0.89999,0 2.04739,-0.38941 2.57849,0.2215c0.58188,0.66929 0.15869,1.77937 0.12149,2.5785c-0.04272,0.91764 -0.94336,1.11343 -1.564,1.77467c-0.61304,0.65314 -0.32806,1.68539 -0.78867,2.37717c-0.46274,0.69498 -0.64267,1.4 -0.64734,2.41217c-0.00433,0.936 -0.30884,1.68708 -0.64731,2.39317c-0.40762,0.85035 0.00653,1.83857 -0.3735,2.70117c-0.30933,0.70214 -0.97919,1.0625 -0.97919,1.94167c0,0.9 0.24643,1.97916 -0.35715,2.54734c-0.66064,0.62193 -1.457,0.91841 -1.60684,1.878c-0.10669,0.68326 -0.03601,1.764 -0.05682,2.65383l-0.55383,0.54617l-0.50934,0.69067l-0.83066,0.284" id="svg_11" stroke-width="2" stroke="#000" fill="none"/>
  <path t="37728,37800,37816,37824,37832,37848,37856,37872,37872,37896,37944,37944,37968" d="m337.01135,60.09091c1.80002,0 2.70001,0 3.60001,0c0.87918,0 1.75717,0 2.70001,0c0.80017,0 1.58533,0 2.52533,0l1.008,0l0.86218,0l0.90448,0" id="svg_12" stroke-width="2" stroke="#000" fill="none"/>
  <path t="38688,38751,38760,38768,38784,38801,38808,38808,38816,38832,38840,38848,38856,38872" d="m333.01135,81.09091c1.80002,0 2.70001,0 3.60001,0c0.89999,0 1.7045,0 2.72134,0c0.67865,0 1.65698,0 2.62601,0c0.75717,0 1.75266,0 2.65265,0l0.89999,0" id="svg_13" stroke-width="2" stroke="#000" fill="none"/>
  <path t="39552,39639,39656,39656,39664,39672,39672,39680,39688,39696,39696,39712,39720,39728,39752,39760,39776,39776,39784,39808" d="m334.01135,105.09091c1.75717,0.05717 2.64093,0.38207 3.34735,0.64733c0.88681,0.33299 1.81934,0.35267 2.65265,0.35267c0.97833,0 1.87885,0 2.70984,0c0.8075,0 1.76935,0 2.69019,0c0.89999,0 1.79999,0 2.69998,0c0.89999,0 1.70001,0 2.61469,0.08533l0.50665,0.79317" id="svg_14" stroke-width="2" stroke="#000" fill="none"/>
  <path t="40304,40399,40399,40408,40416,40416,40424,40424,40433,40433,40440,40449,40456,40456,40464,40464,40472,40472,40488,40496,40504,40512" d="m334.01135,129.09091c1.82535,0.42534 2.49158,0.83578 3.5,0.97917c0.97577,0.13873 1.71069,0.02083 2.69986,0.02083c0.77933,0 1.77866,0 2.59882,0c0.90134,0 1.83734,0 2.68668,0c0.91916,0 1.91333,0 2.67865,0c0.95203,0 1.72,0 2.65067,0l1.01602,0l0.81665,0l0.78867,0.42534" id="svg_15" stroke-width="2" stroke="#000" fill="none"/>
  <path t="41144,41248,41264,41264,41272,41280,41280,41288,41295,41304,41304,41311,41320,41336" d="m334.01135,152.09091c1.75717,0 2.65268,0 3.51602,0c0.85867,0 1.80533,0 2.65866,0c0.94,0 1.92532,0 2.82532,0c0.80002,0 1.70001,0 2.60001,0l0.89999,0" id="svg_16" stroke-width="2" stroke="#000" fill="none"/>
  <path t="41904,42033,42088,42112,42127,42136,42143,42152,42159,42160,42168,42168,42176,42176,42191,42200,42200,42217,42217,42319,42328,42336,42344,42375" d="m329.01135,183.09091c1.83334,0 2.64734,0 3.52084,0c0.87918,0 1.87918,0 2.77917,0c0.89999,0 1.69998,0 2.58533,0c0.95068,0 1.716,0 2.70566,0c0.83835,0 1.79218,0.07498 2.73035,-0.22133c0.69958,-0.22095 1.50085,-0.69057 2.37418,-0.77417c0.90036,-0.0862 1.80447,-0.0045 2.7045,-0.0045l0.89999,0l0.89999,0" id="svg_17" stroke-width="2" stroke="#000" fill="none"/>
  <path t="43265,43320,43320,43329,43329,43336,43337,43337,43344,43352,43360,43360,43369,43369,43377,43386,43386,43393,43401,43401,43409,43409,43425,43433,43520" d="m332.01135,210.09091c1,0 1.75717,0 2.66168,0c0.79999,0 1.75949,0 2.55301,0c1.01599,0 1.97098,0 2.88531,0c0.89999,0 1.65717,0 2.55267,0c0.86334,0 1.84732,0 2.83133,0c0.69067,0 1.76334,0 2.68268,0c0.83331,0 1.66666,0 2.52884,0l0.90448,0l0.89999,0l0.90002,0" id="svg_18" stroke-width="2" stroke="#000" fill="none"/>
  <path t="44113,44217,44226,44233,44233,44241,44241,44241,44252,44252,44252,44252,44257,44257,44265,44273,44273,44282,44282,44289" d="m338.01135,225.09091c2.58936,0 3.53604,-0.03226 4.3215,0.22133c0.7164,0.23129 1.67245,0.65833 2.49985,0.74268c0.69012,0.07036 1.82132,0.036 2.48401,0.036c1.04398,0 1.72665,0 2.92133,0c0.88,0 1.82401,0 2.64532,0c0.73068,0 1.72351,0 2.64267,0l0.96451,0" id="svg_19" stroke-width="2" stroke="#000" fill="none"/>
  <path t="44921,44984,44992,45008,45017,45017,45024,45024,45033,45040,45040,45049,45049,45056,45056,45065,45073,45080,45089,45089,45104,45176,45185" d="m333.01135,247.09091c1.80002,0 2.70001,0 3.52084,0c0.96451,0 1.68985,0 2.67902,0c0.77933,0 1.77866,0 2.80014,0c0.75717,0 1.6572,0 2.40451,0c0.99417,0 1.93832,0 2.83835,0c0.95715,0 1.85715,0 2.75714,0c0.80002,0 1.64285,0 2.52084,0l0.97916,0" id="svg_20" stroke-width="2" stroke="#000" fill="none"/>
  <path t="46865,46960,46968,46976,46984,46992,47000,47012,47012,47016,47026,47040,47048,47048,47056,47064,47080,47080,47097,47097,47104,47113,47113,47120,47128,47129,47136,47152,47152,47168,47168,47176,47176,47180,47192,47200,47209,47209,47216,47226,47226,47232,47232,47240,47240,47248,47248,47256,47256,47264,47264,47264,47272,47272,47280,47280,47288,47296,47296,47304,47304,47304,47320,47320,47329,47329,47336,47336,47353,47353,47353,47355,47355,47363,47363,47363,47368,47368,47379,47380,47384,47384,47384,47395,47395,47395,47400,47400,47401,47412,47412,47416,47426,47426,47432,47432,47432,47433,47446,47446,47446,47448,47449,47457,47457,47464,47465,47465,47472,47472,47472,47480,47480,47488,47488,47489,47496,47497,47504,47504,47505,47516,47520,47520,47528,47528,47536,47537,47546,47546,47552,47552,47562,47568,47569,47579,47584,47584,47596,47601,47601,47609,47609,47617,47617,47626,47635,47646,47652,47657,47657,47665,47665,47673,47681,47688,47689,47704,47714,47714,47720,47721,47729,47729,47737,47745,47745,47752,47764,47765,47769,47778,47784,47792,47792,47809,47809,47816,47817,47825,47825,47842,47842,47842,47848,47849,47849,47856,47856,47856,47865,47865,47881,47888,47897,47897,47912,47912,47920,47928,47936,47952,47961,47980,47981,47994,47995,48017,48025,48042,48065,48072,48081,48097,48104,48136,48152,48192,48208,48256,48280,48296,48320,48320,48336,48352,48376,48392,48401" d="m342.01135,60.09091c0,1.61066 0,2.5 0,3.4c0,0.9 0,1.8 0,2.7c0,0.9 0,1.65717 0,2.71467c0,0.852 0,1.727 0,2.66933c0,0.69067 0,1.75883 0,2.616c0,0.9 0,1.65717 0,2.55267c0,0.86333 0,1.84734 0,2.83134c0,0.69067 0,1.75883 0,2.61617c0,0.78516 0,1.72517 0,2.73317c0,0.792 0,1.65199 0,2.57116c0,0.99417 0,1.75951 0,2.70884c0,0.9075 0,1.64833 0,2.53933c0,0.86333 0,1.84734 0,2.83266c0,0.72533 0,1.71467 0,2.51467c0,1 0.15134,1.82677 -0.16666,2.83334c-0.22455,0.71073 -0.7623,1.48332 -0.82266,2.37733c-0.06665,0.98731 -0.01068,1.81017 -0.01068,2.47467c0,0.99733 0,1.79383 0,2.98133c0,0.79167 0,1.63783 0,2.65484c0,0.69933 0,1.6785 0,2.47849c0,0.8 0,1.8 0,2.60001c0,1 0,1.8 0,2.8c0,0.8 0,1.8 0,2.6c0,0.8 0,1.8045 0,2.65717c0,0.96416 0,1.76817 0,2.59016c0,1.03101 0,1.911 0,2.9315c0,0.6825 0,1.79182 0,2.56284c0,0.56732 0,1.75816 0,2.64766c0,0.8535 0,1.88918 0,2.57466c0,0.83467 0,1.83151 0,2.75067c0,0.98534 0,1.80701 0,2.73199c0,0.92001 0,1.71501 0,2.60001c0,0.64 0,1.67433 0,2.75734c0,0.69867 0,1.896 0,2.69867c0,0.864 0,1.71815 0,2.69733c0,0.81067 0,1.45717 0,2.68401c0,0.54132 0,1.36333 0,2.63066c0,0.66451 0,1.68533 0,2.48534c0,0.8 0,1.80449 0,2.65717c0,0.964 0,1.75749 0,2.533c0,1.1955 0,2.11015 0,2.82416c0,0.95367 0,1.68567 0,2.85234c0,0.8125 0,1.65466 0,2.508c0,0.94133 0,1.70934 0,2.65067c0,1.008 0,1.87016 0,2.6955c0,0.96317 0,1.82651 0,2.722c0,0.95851 0,1.6425 0,2.59317c0,0.76534 0,1.75951 0,2.67867c0,0.96451 0,1.88533 0,2.78534c0,0.89999 0,1.80016 0,2.58533c0,0.94 0,1.63068 0,2.70399c0,0.82133 0,1.73184 0,2.54935c0,1.028 0,1.96165 0,2.67566c0,0.95367 0,1.68567 0,2.85234c0,0.79166 0,1.63783 0,2.65466c0,0.67867 0,1.65717 0,2.67867c0,0.8 0,1.7 0,2.60001c0,0.81065 0,1.72133 0,2.57466c0,0.94133 0,1.70934 0,2.66133c0,0.76534 0,1.755 0,2.59334c0,1.07066 0,1.868 0,2.627c0,1.02232 0,1.94366 0,2.62767c0,1 0,1.81599 0,2.63199c0,1.21783 0,1.96516 0,2.96935c0,0.91466 0,1.81482 0,2.59999c0,0.94 0,1.63068 0,2.70399c0,0.91068 0,1.81067 0,2.71068c0,0.89999 0,1.80016 0,2.58533c0,0.94 0,1.63068 0,2.70399c0,0.91068 0,1.81067 0,2.71068c0,0.89999 0,1.8 0,2.7c0,0.83333 0,1.7045 0,2.60001c0,0.89999 0,1.78932 0,2.68533c0,0.91467 0,1.81467 0,2.71466c0,0.79999 0,1.70001 0,2.564l0,0.87201l0,0.96399l0,0.89999" id="svg_21" stroke-width="2" stroke="#000" fill="none"/>
  <path t="49312,49376,49384,49392,49392,49392,49400,49400,49408,49416,49416,49424,49424,49432,49432,49432,49440,49448,49456,49456,49456,49464,49464,49464,49473,49473,49480,49480,49490,49490,49496,49496,49496,49504,49504,49504,49512,49512,49512,49520,49520,49520,49528,49528,49536,49536,49536,49544,49544,49544,49544,49552,49552,49560,49560,49560,49568,49568,49568,49577,49577,49584,49584,49592,49593,49600,49600,49600,49608,49608,49608,49616,49616,49616,49624,49624,49624,49632,49632,49632,49632,49640,49640,49640,49640,49648,49648,49648,49656,49656,49656,49656,49664,49664,49664,49665,49665,49673,49673,49673,49673,49680,49680,49681,49681,49681,49690,49690,49690,49696,49696,49697,49697,49704,49704,49704,49704,49704,49712,49712,49712,49712,49720,49720,49720,49728,49728,49728,49728,49729,49736,49736,49736,49744,49744,49744,49745,49752,49752,49752,49752,49752,49760,49760,49760,49768,49768,49768,49768,49776,49776,49776,49777,49784,49785,49785,49796,49796,49796,49800,49800,49801,49801,49812,49812,49812,49816,49816,49817,49817,49826,49826,49832,49833,49833,49843,49843,49848,49849,49849,49860,49860,49860,49865,49865,49865,49872,49873,49873,49873,49880,49880,49881,49881,49889,49889,49896,49896,49897,49905,49906,49912,49912,49920,49921,49929,49929,49929,49936,49936,49936,49944,49952,49952,49952,49962,49963,49968,49968,49968,49976,49984,49992,50000,50000,50009,50009,50016,50016,50027,50027,50033,50033,50044,50049,50049,50059,50065,50065,50065,50076,50081,50081,50089,50089,50097,50106,50106,50113,50113,50120,50129,50130,50137,50144,50145,50153,50168,50177,50177,50185,50185,50193,50209,50226,50226,50248,50272" d="m345.01135,62.09091c0,3.45834 0,4.309 0,5.33334c0,0.672 -0.03769,1.41664 0.00018,2.52367c0.02859,0.83546 0.6312,1.61405 0.87833,2.4645c0.25006,0.86044 0.12149,1.87849 0.12149,2.6785c0,1 0,1.78933 0,2.51466c0,0.9645 0,1.90667 0,2.81867c0,0.6765 0,1.7185 0,2.74516c0,0.6855 0,1.52016 0,2.5215c0,0.8 0,1.8 0,2.6c0,1 0,1.8 0,2.8c0,0.81067 -0.01099,1.68541 0.00134,2.68533c0.01031,0.83566 0.00284,1.42765 0.22,2.6145c0.16425,0.89769 0.40594,1.4528 0.612,2.5335c0.17603,0.92316 0.16599,1.76533 0.16666,2.77116c0.0004,0.6315 0,1.817 0,2.6315c0,0.57467 -0.01398,1.76418 0.00452,2.6595c0.01794,0.86889 0.00983,1.4368 0.34818,2.64733c0.18399,0.65832 0.56396,1.65355 0.6265,2.478c0.05029,0.66288 0.02081,1.93183 0.02081,2.47916c0,0.816 0,2.04283 0,2.8955c0,1.00317 0,1.7685 0,2.72183c0,0.6925 0,1.65334 0,2.42433c0,0.861 0,2.05833 0,2.65833c0,0.9 0,2.09984 0,2.6955c0,0.86849 0,1.93783 0,2.88984c0,0.72449 -0.00519,1.85773 0.00452,2.52899c0.0105,0.72745 0.02029,1.49809 0.16217,2.68567c0.09561,0.80023 0.26083,1.57823 0.40799,2.328c0.26257,1.33791 0.3877,2.16571 0.41467,2.92267c0.03857,1.08202 0.01065,1.72 0.01065,2.42133c0,1.13701 0,2.328 0,3.12666c0,0.79066 0,1.56534 0,2.31601c0,1.06416 0,2.07066 0,2.74666c0,0.70801 0,1.88133 0,2.744c0,0.89467 0,1.34399 0,2.22667c0,1.22499 0,2.29601 0,2.94667c0,1.22133 0,1.82399 0,2.763c0,0.67265 0,1.79166 0,2.62633c0,0.88266 0,1.78133 0,2.664c0,1.22499 0,1.95366 0,2.62633c0,0.93901 0,1.84201 0,2.763c0,0.65067 0,2.112 0,2.94534c0,0.43416 0,1.3125 0,2.17082c0,1.16251 0,2.10001 0,2.90251c0,1.09332 0,1.73067 0,2.43199c0,1.13701 0,2.328 0,3.12666c0,0.79066 0,1.56534 0,2.31601c0,1.06383 0,2.04933 0,2.67467c0,1.21066 0,1.812 0,2.73149c0,0.96451 0,2.00034 0,2.72734c0,0.731 0,1.7825 0,2.709c0,0.78149 0,1.72549 0,2.72949c0,0.85501 0,1.47501 0,2.8345c0,0.72701 0,1.45801 0,2.16901c0,1.26717 0,2.05916 0,2.81516c0,1.13734 0,1.8 0,2.49467c0,1.032 0,2.22934 0,2.95833c0,1.04167 0,1.84167 0,2.64168c0,1.00449 0,1.63599 0,2.82132c0,0.804 0,1.62601 0,2.65733c0,0.696 0,1.60535 0,2.608c0,0.85501 0,1.47501 0,2.83467c0,0.73134 0,1.47867 0,2.226c0,1.086 0,2.091 0,2.711c0,0.85501 0,1.85767 0,2.767c0,0.94135 0,1.72284 0,2.51334c0,1.1185 0,2.00951 0,2.9185c0,0.74733 0,1.74417 0,2.57883c0,0.93068 0,1.71667 0,2.53867c0,1.05867 0,1.97867 0,2.73868c0,1.00749 0,2.0295 0,2.748c0,0.7905 0,1.81717 0,2.71782c0,1.02084 0,1.81018 0,2.53552c0,1.07465 0,1.88531 0,2.78983c0,1.017 0,1.71634 0,2.6955c0,0.78934 0,1.83334 0,2.62534c0,0.85999 0,1.77917 0,2.77332c0,0.76535 0,1.716 0,2.60135c0,0.79999 0,1.672 0,2.76801c0,0.73199 -0.16019,1.47733 0.01068,2.56c0.14267,0.9039 0.80417,1.53668 0.95334,2.49731c0.10611,0.68335 -0.00992,1.69501 0.32001,2.65869c0.24271,0.70892 0.66766,1.62885 0.71466,2.39999c0.05725,0.93964 0.16284,1.95203 0.50131,2.59515c0.43622,0.82886 0.5,1.6875 0.5,2.5c0,1 0,1.7825 0,2.67801c0,0.74734 0,1.93832 0,2.68567c0,0.89999 0,1.85849 0,2.82382l0,0.8125l0,0.91101l0,0.82584" id="svg_22" stroke-width="2" stroke="#000" fill="none"/>
  <path t="51137,51208,51216,51216,51225,51232,51232,51241,51241,51241,51248,51249,51256,51265,51265,51272,51272,51280,51281,51281,51288,51296,51304,51305,51312,51321,51321,51329,51338,51338,51344,51361,51416,51440" d="m341.01135,259.09091c0,1.75717 0,2.65268 0,3.51599c0,0.85867 -0.00009,1.80551 0,2.69467c0.00009,0.9895 -0.01233,1.81424 0.08536,2.47467c0.14859,1.0047 0.47363,1.75595 0.74799,2.81467c0.21317,0.82266 0.16666,1.72134 0.16666,2.70001c0,0.79999 0,1.79999 0,2.58932c0,0.72534 0,1.68982 0,2.62134c0,0.91064 0,1.76398 0,2.70398c0,0.88535 0,1.68533 0,2.64252c0,0.89551 0,1.75882 0,2.72198l0,0.82083l0,0.90002l0,0.89999" id="svg_23" stroke-width="2" stroke="#000" fill="none"/>
  <path t="53328,53424,53424,53433,53433,53442,53442,53448,53448,53448,53459,53459,53459,53464,53464,53464,53473,53473,53480,53480,53480,53488,53488,53496,53496,53504,53504,53512,53512,53512,53520,53520,53528,53544,53576,53576,53600,53616,53616" d="m333.01135,260.09091c0,1.836 0,2.60132 0,3.60001c0,0.79999 0,1.80133 0,2.63599c0,0.93066 0,1.71667 0,2.53867c0,1.05869 0,2 0,2.67801c0,1.23132 0,2.04733 0,2.59467c0,1.26868 0,1.95267 0,3.11932c0,0.78149 0,1.57202 0,2.5c0,0.948 0,1.81866 0,2.54401c0,0.9895 0,1.81018 0,2.95599c0,0.78149 0,1.57202 0,2.5c0,0.91202 0,1.83334 0,2.72269c0,0.944 0,1.6315 0,2.72531l0,0.88535l0,0.79999" id="svg_24" stroke-width="2" stroke="#000" fill="none"/>
  <path t="54480,54568,54568,54576,54576,54584,54592,54592,54601,54601,54608,54617,54617,54624,54624,54624,54634,54634,54640,54640,54640,54648,54648,54657,54657,54664,54664,54664,54672,54672,54672,54680,54680,54688,54696,54696,54704,54705,54705,54712,54712,54720,54720,54728,54736,54744,54744,54744,54752,54760,54768,54768,54776,54776,54784,54792,54800,54800,54808,54817,54817,54834,54834,54840,54840,54848,54848,54857,54857,54864,54864,54872,54872,54880,54880,54889,54889,54896,54896,54905,54905,54912,54912,54920,54920,54920,54928,54928,54936,54944,54952,54952,54960,54968,54968,54976,54976,54984,54984,54992,55000,55008,55008,55016,55024,55024,55040,55049,55056,55064,55073,55104,55112,55224,55224,55233,55241,55250" d="m359.01135,261.09091c0,2.79999 0,3.60001 0,4.59549c0,0.74734 0,1.65186 0,2.57117c0,0.83334 0,1.81183 0,2.63202c0,0.83731 0,1.86298 0,2.66299c0,0.95966 0,1.76367 0,2.58566c0,1.03116 0,1.93182 0,2.95267c0,0.79999 0,1.60001 0,2.60001c0,0.79999 0,1.60016 0,2.42084c0,1.14581 0,1.93182 0,2.75381c0,1.05869 0,1.76819 0,2.62085c0,1.00314 0,1.76849 0,2.85184c0,0.91931 0,1.58865 0,2.75266c0,0.79999 0,1.60001 0,2.60001c0,0.79999 0,1.79733 0,2.52798c0,0.97736 0,1.74402 0,2.87201c0,0.78934 0,1.51468 0,2.47916c0,0.93152 0.09161,1.85098 -0.03598,2.6955c-0.14523,0.96127 -0.77399,1.47513 -0.95334,2.42535c-0.17081,0.90491 -0.01068,1.884 -0.01068,2.57465c0,1.06818 0,1.92569 0,2.63968c0,0.95367 0,1.68567 0,2.85233c0,0.8125 0.04843,1.82275 -0.03598,2.54401c-0.11697,0.99957 -0.54108,1.74231 -0.79733,2.62268c-0.22562,0.77505 -0.16669,1.82382 -0.16669,2.57117c0,0.99548 0,1.7955 0,2.79532c0,0.77933 0,1.77884 0,2.55283c0,0.90451 0,1.65186 0,2.64868c0,0.83466 0,1.76532 0,2.54681c0,1.04202 0,1.90884 0,2.84918c0,0.90268 0,1.72351 0,2.68668c0,0.86331 0,1.75882 0,2.71732c0,0.68402 0,1.63467 0,2.39999c0,0.99417 0,1.91336 0,2.87784c0,0.93152 0,1.84216 0,2.52084c0,1.11465 0,2 0,2.79999c0,0.90002 0,1.80002 0,2.70001c0,0.89999 0,1.7955 0,2.66666c0,0.93335 0,1.83334 0,2.63333l0,0.90002l0,0.89999l-0.01065,0.81067" id="svg_25" stroke-width="2" stroke="#000" fill="none"/>
  <path t="56080,56208,56225,56240,56264,56264,56288,56320,56336,56392,56392,56520,56536,56552,56560,56560,56568,56576,56584,56600,56600,56608,56608,56616,56616,56624,56632,56632,56640,56640,56648,56648,56656,56656,56665,56665,56672,56672,56681,56681,56688,56704,56928,56944,56960,56968,56968,56976,57134,57240,57256,57272,57273,57273,57282,57289,57299,57305,57313,57321,57322,57329,57345,57368,57368" d="m325.01135,403.09091c0,-0.76166 0,-1.64816 0,-2.66666c0,-0.90268 0,-1.68518 0,-2.57617c0,-0.95718 0,-1.85718 0,-2.75717c0,-0.79999 0.04489,-1.85355 0.80136,-1.99866c0.93869,-0.18005 1.85132,-0.00134 2.71466,-0.00134c0.84799,0 1.784,0 2.68265,0c0.96802,0 1.68802,0 2.63736,0c0.76532,0 1.75949,0 2.67865,0c0.86002,0 1.80682,0 2.69601,0c0.98917,0 1.76849,0 2.62265,0c0.91934,0 1.82385,0 2.57117,0c0.99551,0 1.7955,0 2.79535,0c0.77933,0 1.77866,0 2.59882,0c0.90134,0 1.84421,-0.00531 2.72217,0c0.87924,0.00534 1.69797,0.50052 2.47916,0.83334c0.75156,0.32019 1.44949,0.50052 2.16669,1c0.72635,0.50586 1.77243,0.3819 1.83331,1.26666c0.0618,0.89786 0,1.69998 0,2.60001c0,0.89999 0.05292,1.83472 -0.35266,2.59998c-0.4483,0.84589 -0.62936,1.70023 -0.64734,2.5c-0.01801,0.80063 -0.42532,1.61069 -0.87848,2.52133l-0.10068,0.67868" id="svg_26" stroke-width="2" stroke="#000" fill="none"/>
  <path t="58240,58312,58321,58321,58330,58330,58336,58336,58344,58352,58352,58360,58360,58369,58369,58376,58385,58385,58392,58408,58424,58424,58440,58448,58464,58488,58504,58512,58513,58529,58545,58560,58568" d="m356.01135,363.09091c0,1.75717 0,2.65717 0,3.40451c0,0.99548 0,1.7955 0,2.79532c0,0.77933 0,1.77866 0,2.80017c0,0.75717 0,1.65717 0,2.40451c0,0.99414 0,1.93832 0,2.84283c0,0.91931 0,1.75266 0,2.73099c0,0.85501 0,1.73151 0,2.539c0,0.96182 0,1.88266 0,2.78265c0,0.90002 0,1.80002 0,2.70001c0,0.79999 0,1.64282 0,2.52084l0,0.97916l-0.01065,0.88934" id="svg_27" stroke-width="2" stroke="#000" fill="none"/>
  <path t="59488,59536,59544,59544,59553,59561,59568,59568,59568,59576,59576,59586,59586,59592,59592,59592,59600,59600,59608,59608,59608,59617,59624,59624,59624,59635,59635,59640,59640,59650,59650,59650,59656,59664,59664,59664,59672,59672,59672,59680,59680,59688,59688,59688,59696,59696,59704,59704,59712,59712,59712,59720,59720,59720,59728,59728,59736,59736,59744,59752,59752,59761,59761,59768,59768,59768,59778,59784,59792,59792,59800,59800,59808,59808,59816,59816,59824,59832,59848,59856,59864,59872,59872,59880,59880,59888,59896,59904,59904,59917,59920,59920,59928,59928,59936,59944,59944,59952,59961,59977,59978,59984,59992,60000,60008,60016,60024,60032,60040,60040,60048,60071,60080,60103,60184,60216,60220,60221" d="m333.01135,291.09091c0,1.75717 0,2.65268 0,3.51599c0,0.96317 0,1.793 0,2.81735c0,0.672 0,1.41599 0,2.52383c0,0.89099 0,1.80447 0,2.60449c0,0.95966 0,1.76367 0,2.58566c0,1.03116 0,1.93182 0,2.95267c0,0.78934 0,1.51468 0,2.52084c0,1.02182 0,1.72983 0,2.47382c0,1.1955 0,1.888 0,2.85202c0,0.84 0,1.836 0,2.63248c0,0.7515 0,1.87018 0,2.85419c0,0.681 0,1.48798 0,2.66666c0,0.59732 0,1.45834 0,2.66666c0,0.68268 0,1.66669 0,2.58401c0,0.74399 0,1.78 0,2.63199c0,0.77899 0,1.57901 0,2.80267c0,0.55066 0,1.41916 0,2.61432c0,0.87903 0,1.686 0,2.55753c0,0.89099 0,1.7955 0,2.65881c0,0.85867 0,1.80551 0,2.69467c0,0.98935 0,1.78934 0,2.78934c0,0.78934 0,1.51468 0,2.58932c0,0.82135 0,1.73218 0,2.62134c0,0.98917 0,1.76849 0,2.76801c0,0.77399 0,1.67401 0,2.53732c0,0.96317 0,1.87335 0,2.76935c0,0.91467 0,1.81467 0,2.71466c0,0.75717 0,1.65268 0,2.51599c0,0.96317 0,1.78851 0,2.80533c0,0.67868 0,1.65717 0,2.67868c0,0.75717 0,1.65268 0,2.51599c0,0.85867 0,1.80533 0,2.65866c0,0.94 0,1.92535 0,2.82535c0,0.79999 0,1.70001 0,2.60001c0,0.89999 0,1.79999 0,2.69998c0,0.90002 0,1.80002 0,2.70001c0,0.79999 0,1.64282 0,2.52084c0,0.97916 0,1.87915 0,2.77914l0,0.90002l0,0.89981l0,0.84302" id="svg_28" stroke-width="2" stroke="#000" fill="none"/>
  <path t="61017,61089,61097,61097,61105,61105,61113,61113,61121,61121,61121,61129,61129,61129,61137,61137,61137,61145,61145,61145,61153,61153,61153,61161,61161,61161,61161,61169,61169,61169,61177,61177,61177,61185,61185,61185,61185,61194,61194,61194,61201,61201,61201,61201,61210,61210,61210,61210,61210,61217,61217,61217,61225,61225,61225,61225,61225,61233,61233,61233,61233,61241,61241,61241,61249,61249,61249,61252,61252,61252,61257,61265,61265,61273,61273,61273,61281,61281,61282,61289,61289,61297,61297,61297,61305,61305,61313,61313,61321,61321,61329,61329,61337,61337,61337,61345,61353,61361,61361,61377,61385,61385,61401,61401,61417,61417,61433,61449,61465,61481,61497,61505,61516,61521,61533,61545,61641,61649,61665" d="m342.01135,285.09091c0,1.75717 0,2.65717 0,3.40451c0,0.99548 0,1.7955 0,2.7955c0,0.79999 0,1.79999 0,2.61066c0,0.87466 0,1.87466 0,2.71017c0,0.58365 0,1.77899 0,2.66849c0,0.85352 0,1.88934 0,2.58533c0,0.90933 0,1.91202 0,2.767c0,0.62 0,1.97952 0,2.70651c0,0.73099 0,1.44199 0,2.70898c0,0.78152 0,1.491 0,2.72952c0,0.56 0,1.47498 0,2.47998c0,0.716 0,1.8125 0,2.5235c0,0.9765 0,1.8045 0,2.81519c0,0.828 0,1.80899 0,2.53632c0,0.76733 0,1.95834 0,2.75702c0,0.79065 0,1.56534 0,2.31598c0,1.40268 0,2.07068 0,2.74667c0,1.47202 0,2.30667 0,2.74402c0,0.89465 0,1.78931 0,3.06131c0,0.76135 0,1.45068 0,2.36719c0,1.04483 0,1.96616 0,2.65015c0,1.00134 0,1.83685 0,2.71735c0,0.89816 0,1.76666 0,2.74268c0,0.96399 0,1.92297 0,2.65198c0,1.03735 0,1.75134 0,2.65668c0,0.96866 0,1.77267 0,2.59467c0,1.03116 0,1.93182 0,2.95267c0,0.79999 0,1.60001 0,2.60001c0,0.79999 0,1.79999 0,2.60001c0,0.99982 0,1.77914 0,2.77881c0,0.68253 0,1.78918 0,2.52118c0,0.73199 0,1.828 0,2.70001c0,0.90015 0,1.68533 0,2.62531c0,1.00803 0,1.80002 0,2.66c0,0.91919 0,1.91333 0,2.67868c0,0.94934 0,1.88867 0,2.63733c0,0.89868 0,1.89868 0,2.69867c0,0.89999 0,1.89999 0,2.79999c0,0.90002 0,1.79984 0,2.64734l0,0.75717" id="svg_29" stroke-width="2" stroke="#000" fill="none"/>
  <path t="62609,62672,62682,62682,62689,62689,62697,62697,62705,62705,62705,62713,62713,62713,62721,62721,62721,62729,62729,62729,62736,62737,62737,62745,62745,62745,62745,62753,62753,62753,62761,62761,62761,62761,62769,62769,62769,62769,62777,62777,62777,62785,62785,62785,62793,62793,62793,62801,62801,62801,62809,62817,62817,62825,62825,62825,62832,62833,62833,62842,62842,62842,62849,62849,62849,62865,62865,62867,62867,62873,62873,62881,62881,62881,62889,62889,62889,62897,62897,62905,62905,62905,62913,62913,62921,62921,62929,62929,62937,62937,62945,62945,62945,62953,62953,62961,62977,62985,62993,62993,63009,63018,63025,63042,63049,63058,63136" d="m352.01135,295.09091c0,1.75717 0,2.65717 0,3.40451c0,0.99548 0,1.7955 0,2.7955c0,0.79999 0,1.79999 0,2.61066c0,0.87466 0,1.87466 0,2.71017c0,0.58365 0,1.77899 0,2.66849c0,0.85352 0,1.88934 0,2.58533c0,0.90933 0,1.91202 0,2.767c0,0.62 0,1.97952 0,2.70651c0,0.73099 0,1.44199 0,2.70917c0,0.79199 0,1.548 0,2.68549c0,0.66702 0,1.37802 0,2.47452c0,1.06116 0,1.72549 0,2.672c0,0.60931 0,1.81067 0,2.71066c0,0.60001 0,1.79984 0,2.68933c0,0.85352 0,1.88934 0,2.58533c0,0.90933 0,1.90802 0,2.7045c0,0.7515 0,1.8595 0,2.8425c0,0.72 0,1.845 0,2.63101c0,0.82199 0,1.88068 0,2.59467c0,0.67801 0,1.87399 0,2.67801c0,0.82199 0,1.85315 0,2.53867c0,0.83466 0,1.836 0,2.63599c0,1 0,1.80002 0,2.80002c0,0.79999 0,1.79999 0,2.61066c0,0.87466 0,1.87332 0,2.68933c0,0.81601 0,1.81467 0,2.68933c0,1.01083 0,1.83151 0,2.496c0,0.99734 0,1.79382 0,2.98132c0,0.8125 0,1.65485 0,2.54401c0,0.98935 0,1.78934 0,2.78934c0,0.79999 0,1.60001 0,2.59549c0,0.74734 0,1.75784 0,2.68985c0,0.81467 0,1.71466 0,2.51465c0,0.90002 0,1.80002 0,2.70001c0,0.89999 0,1.89999 0,2.7955l0,0.87115" id="svg_30" stroke-width="2" stroke="#000" fill="none"/>
  <path t="64273,64433,64441,64481,64481,64497,64673,64688,64721,64729,64745,64753,64769" d="m376.01135,242.09091c-0.05716,-1.64734 -0.85635,-2.05179 -1,-3c-0.11981,-0.79099 -0.6767,-1.49478 -0.52798,-2c0.26205,-0.89024 1.828,0 2.72665,0.00133l0.74869,0.35133l0.478,0.62201l0.60001,0.59999" id="svg_31" stroke-width="2" stroke="#000" fill="none"/>
  <path t="66033,66144,66153,66161,66161" d="m293.01135,396.09091c-0.57465,-0.61066 -0.98532,-1.39999 -1.44281,-2.10016l-0.74252,-0.53583" id="svg_32" stroke-width="2" stroke="#000" fill="none"/>
  <path t="68216,68320,68328,68336,68336,68344,68352,68352,68352,68360,68360,68360,68376,68376,68384,68392,68392,68402,68416,68416,68424,68424" d="m336.01135,41.09091c1,0.7045 1,1.52083 1,2.484c0,0.86333 -0.08759,1.78444 0.16669,2.68267c0.19922,0.70374 0.64975,1.51411 1.03198,2.51467c0.19855,0.51973 0.65735,1.43472 0.80133,2.48533c0.09778,0.71333 0,1.65867 0,2.66667c0,0.756 0.02084,1.6875 0.28534,2.65067l0.32535,0.69067l0.48917,0.80383l0.543,0.717" id="svg_33" stroke-width="2" stroke="#000" fill="none"/>
  <path t="68944,69000,69008,69008,69017,69024,69032,69032,69032,69040,69048,69048,69056,69056,69064,69072,69080,69088,69096,69146,69147" d="m344.01135,37.09091c0,1.82533 0,2.83333 0,3.6955c0,0.9045 0,1.72583 0,2.63783c0,0.91734 0,1.66133 0,2.696c0,0.97067 0,1.72783 0,2.62333c0,0.86333 0,1.8265 0,2.74733c0,0.9 0,1.8 0,2.7l0,0.9l0,0.83333" id="svg_34" stroke-width="2" stroke="#000" fill="none"/>
  <path t="69648,69752,69752,69760,69760,69768,69769,69769,69776,69776,69784,69792,69808,69808,69817,69817,69833,69833,69840,69856,69920" d="m350.01135,39.09091c0,2.443 0,3.22133 0,4.2c0,0.8 0,1.8 0,2.6c0,0.8 0,1.7955 0,2.71467c0,0.9645 0,1.896 0,2.80683c0,0.69933 0,1.6785 0,2.46783c0,1.044 0,1.90617 0,2.81067l0,0.9l0,0.9" id="svg_35" stroke-width="2" stroke="#000" fill="none"/>
  <path t="70464,70536,70568,70576,70600" d="m360.01135,44.09091c1.71469,-0.99867 2.61069,-1 3.5,-1l0.90002,0" id="svg_36" stroke-width="2" stroke="#000" fill="none"/>
  <polyline timestamps="71208,71320,71336" startTime="1452397126163" id="svg_37" points="359.01136684417725,53.09091091156006 360.7113668441772,53.148077578226726 361.4905335108439,53.59091091156006 " stroke-linecap="round" stroke-width="2" stroke="#000" fill="none"/>
  <path t="72000,72152,72184,72192,72224,72232,72256,72264,72280,72280,72297" d="m334.01135,41.09091c-1.83331,0 -2.61066,0 -3.5,0c-0.89999,0 -1.88931,0 -2.78531,0c-0.81467,0 -1.71469,0 -2.51468,0l-0.89999,0" id="svg_38" stroke-width="2" stroke="#000" fill="none"/>
  <path t="72696,72824,72840,72848,72848,72856,72872,72880,72888,72888" d="m332.01135,46.09091c-0.7045,0.64733 -1.52063,0.98958 -2.48398,1c-0.86328,0.00934 -1.75885,0 -2.716,0l-0.89999,0l-0.90002,0l-0.79999,0" id="svg_39" stroke-width="2" stroke="#000" fill="none"/>
  <path t="73208,73304,73312,73312,73320,73328,73336,73336" d="m332.01135,54.09091c-0.76166,0 -1.65265,0 -2.51599,0c-0.96317,0 -1.89465,0 -2.80533,0l-0.85333,0" id="svg_40" stroke-width="2" stroke="#000" fill="none"/>
 </g>
 <g display="none">
  <title>muse_image</title>
  <image xlink:href="http://farm4.static.flickr.com/3164/2470155205_693c4b9bd5.jpg" id="muse" height="480" width="360" y="0" x="140"/>
 </g>
 <g display="none">
  <title>bbox</title>
  <rect stroke="#f00" fill="none" stroke-width="3" height="472.32" width="191.04" y="0" x="218.72" id="bbox"/>
 </g>
</svg>
