<?xml version="1.0" standalone="no"?>

<!DOCTYPE svg PUBLIC "-//W3C//DTD SVG 20010904//EN"

 "http://www.w3.org/TR/2001/REC-SVG-20010904/DTD/svg10.dtd">

<svg version="1.0" xmlns="http://www.w3.org/2000/svg"

 width="106.000000pt" height="48.000000pt" viewBox="0 0 106.000000 48.000000"

 preserveAspectRatio="xMidYMid meet">

<path stroke="#010101" fill="none" d="
M1 27

C8 16 21 12 33 7

C37 5 42 3 46 3

C58 5 66 14 76 18

C85 23 98 26 105 33

C93 50 78 51 62 39

C57 36 48 34 49 27

C45 14 60 18 67 13

"/>

<path stroke="#010101" fill="none" d="
M54 17

L55 25

L55 25

L53 27

L53 27

L55 34

L55 34

"/>

<path stroke="#010101" fill="none" d="
M63 18

C64 32 74 34 76 19

"/>

<path stroke="#010101" fill="none" d="
M57 36

C51 42 35 44 26 40

C20 38 18 28 22 23

"/>

<path stroke="#010101" fill="none" d="
M55 25

L62 24

L62 24

"/>

<path stroke="#010101" fill="none" d="
M0 27

L1 27

L1 27

"/>

<path stroke="#010101" fill="none" d="
M49 27

L53 27

L53 27

"/>

<path stroke="#010101" fill="none" d="
M65 32

L59 37

L59 37

"/>

</svg>

