<?xml version="1.0" ?>
<svg baseProfile="full" height="327px" version="1.1" viewBox="-98.29945 51.029205665 1223.6989 664.973360545" width="600px" xmlns="http://www.w3.org/2000/svg" xmlns:ev="http://www.w3.org/2001/xml-events" xmlns:xlink="http://www.w3.org/1999/xlink">
	<defs/>
	<path d="M 894.3,221.6 C 838.2,179.2 712.1,126.1 712.1,126.1 C 636.9,85.3 577.6,122.1 577.6,122.1 C 556.4,134.9 520.4,140.5 520.4,140.5 L 512.0,141.5 C 512.0,141.5 476.0,135.9 454.8,123.1 C 454.8,123.1 395.5,86.3 320.3,127.1 C 320.3,127.1 194.2,180.3 138.1,222.6 C 138.1,222.6 75.9,257.2 4.1,385.64 C 4.1,385.64 96.9,607.5 434.7,655.4 C 434.7,655.4 479.2,661.7 506.3,659.4 L 526.2,659.7 C 553.3,662.1 597.8,654.4 597.8,654.4 C 930.1,595.0 1023.0,385.55 1023.0,385.55 C 965.6,265.1 894.3,221.6 894.3,221.6 M 513.5,441.7 C 321.0,455.4 179.2,338.1 179.2,338.1 C 233.5,342.5 303.2,325.5 303.2,325.5 C 373.7,305.7 411.7,313.0 411.7,313.0 C 463.3,337.2 510.1,338.1 513.4,338.1 C 516.7,338.1 563.6,337.2 615.1,313.0 C 615.1,313.0 653.1,305.7 723.6,325.5 C 723.6,325.5 793.4,342.5 847.6,338.1 C 847.8,338.1 706.0,455.4 513.5,441.7" fill="none" stroke="#000000" stroke-linecap="round" stroke-linejoin="round" stroke-miterlimit="10" stroke-width="2"/>
</svg>
