<?xml version="1.0" encoding="utf-8"?>
<!-- Generator: Adobe Illustrator 18.1.1, SVG Export Plug-In . SVG Version: 6.00 Build 0)  -->
<svg version="1.1" xmlns="http://www.w3.org/2000/svg" xmlns:xlink="http://www.w3.org/1999/xlink" x="0px" y="0px"
	 viewBox="0 0 287.5 81.5" enable-background="new 0 0 287.5 81.5" xml:space="preserve">
<g id="ears">
</g>
<g id="head">
</g>
<g id="cheeks">
</g>
<g id="mouth">
	<g>
		<path fill="#231F20" d="M3.1,4.7c0,0,0.2,0.3,0.6,0.8C4,6,4.6,6.8,5.2,7.8c1.4,2,3.4,5,6.1,8.6c2.8,3.6,6.3,7.9,10.6,12.4
			c4.4,4.6,9.6,9.4,15.7,14.2c6.1,4.8,13.1,9.5,20.9,13.7c7.8,4.2,16.4,8,25.6,11c9.2,3,19,5.3,29.1,6.7c10.1,1.4,20.5,2,30.8,1.9
			c10.3-0.1,20.7-1.1,30.7-3c10-1.9,19.7-4.7,28.7-8.1c9-3.5,17.5-7.6,25.2-12.2c7.7-4.5,14.5-9.4,20.6-14.3
			c12.1-9.8,20.9-19.5,26.6-26.5c2.9-3.5,5-6.4,6.4-8.4c1.4-2,2.2-3.1,2.2-3.1c0.5-0.8,1.6-1,2.4-0.4c0.8,0.5,0.9,1.6,0.4,2.3l0,0.1
			c0,0-0.7,1.1-2.1,3.1c-1.4,2.1-3.5,5.1-6.3,8.7c-5.7,7.3-14.4,17.4-26.7,27.6c-6.1,5.1-13.1,10.2-21,14.9
			c-7.8,4.7-16.5,9.1-25.8,12.7c-9.3,3.6-19.3,6.5-29.6,8.5c-10.3,2-20.9,3-31.6,3.2c-10.6,0.2-21.3-0.5-31.6-2
			c-10.4-1.5-20.5-3.9-29.9-7c-9.5-3.1-18.4-7.1-26.3-11.6c-8-4.5-15.2-9.4-21.4-14.4c-6.2-5-11.5-10.1-15.9-14.9
			c-4.4-4.8-7.9-9.2-10.7-13c-2.8-3.7-4.7-6.8-6.1-8.9c-0.7-1-1.2-1.8-1.5-2.4C0.5,6.9,0.3,6.6,0.3,6.6l0,0C-0.2,5.8,0,4.7,0.8,4.2
			C1.5,3.7,2.6,3.9,3.1,4.7z"/>
	</g>
</g>
<g id="nose">
</g>
<g id="eyes">
</g>
<g id="rainbow">
</g>
</svg>
