<?xml version="1.0" encoding="utf-8" ?>
<svg baseProfile="full" height="89.7807527147" version="1.1" width="755.143639334" xmlns="http://www.w3.org/2000/svg" xmlns:ev="http://www.w3.org/2001/xml-events" xmlns:xlink="http://www.w3.org/1999/xlink"><defs /><rect fill="white" height="89.7807527147" width="755.143639334" x="0" y="0" /><path d="M25,25 m0.0,0.0 m31.5460634232,29.9632799625 l2.94524222612,4.47240501642 0.981747433543,0.872664377093 l5.7814013958,2.50891000032 3.38157445192,0.545415244997 l7.9630625248,-1.30899652839 0.545415244997,-0.218166094273 l2.72707611322,-3.38157445192 m-27.3798465729,-5.1269030571 l1.63624569774,-0.763581320643 2.72707611322,-5.89048445225 l0.872664377093,-0.654498264194 4.14515584707,-1.09083048999 l2.61799305677,0.0 6.98131501675,0.872664377093 l5.23598611355,2.29074403644 2.50891000032,1.96349486709 l0.327249132097,5.01782000065 1.85441181064,4.79965418577 l-0.109083047137,0.872664377093 m-15.8170425892,-15.3807103634 l-0.436332188547,0.0 -1.09083048999,2.50891000032 l-2.61799305677,3.38157445192 -0.218166094273,2.83615916967 l0.436332188547,3.38157445192 0.654498264194,1.52716264129 l3.92698973417,5.01782000065 m9.92655754089,-17.9987037182 l-0.872664377093,0.981747433543 0.327249132097,6.32681667805 l-0.327249132097,2.39982709289 -1.41807958484,2.39982709289 l-3.92698973417,3.70882362127 m0.872664377093,-8.72664391994 l-2.94524222612,-0.981747433543 -2.18166097999,0.0 l-1.19991354644,0.545415244997 -0.872664377093,1.74532875419 l-0.109083047137,1.74532875419 0.763581320643,0.872664377093 l2.72707611322,1.41807958484 1.19991354644,0.109083047137 l2.83615916967,-3.92698973417 -0.109083047137,-1.63624569774 l-1.41807958484,-0.763581320643 m-1.63624569774,0.545415244997 l0.0,0.0 m59.3510368466,-4.22845777356 l0.532753206789,-3.6754488945 1.02417722344,-2.50103145838 l1.34931668639,-1.74436733127 3.57146054506,-2.65839874744 l2.55815625191,-1.06169462204 5.25070130825,-1.00484527647 l4.72186177969,-0.0850328151137 4.17283922434,0.720070973039 l3.49731326103,1.41657426953 2.73712515831,1.90901905298 l2.06128716469,2.3546487093 1.3936431706,2.61132031679 l0.864415615797,2.72417217493 0.568897426128,3.35017412901 l-0.297783706337,1.70133680105 -0.932610109448,1.39744892716 l-1.04684866965,0.593462027609 -3.0549710989,0.925785303116 l-6.40904784203,0.601562783122 -5.10045409203,8.93184642337e-05 l-4.28482085466,-0.749209299684 -5.39665341377,-2.07203999162 l-2.86831527948,-1.79167702794 -3.08746129274,-2.92315930128 m13.2133424282,-11.350992918 l-1.18469312787,0.237142927945 -2.2975872457,2.0349894464 l-1.82335183024,3.06030869484 -0.754109695554,3.37451010942 l0.0961723644286,3.65821301937 1.67756915092,3.40720504522 l2.39849895239,2.24363654852 2.59227395058,1.17583684623 l2.70378679037,0.393994264305 2.54756182432,-0.319958887994 l2.26477056742,-1.03697121143 2.05336123705,-1.65567606688 l1.59013569355,-2.1259008348 0.966263413429,-2.51074701548 l0.320446603,-2.61218905449 -0.336160287261,-2.52953320742 l-0.958734974265,-2.15148031712 -1.49871513247,-1.74436792731 l-1.96582376957,-1.2283038348 -2.32324331999,-0.68792834878 l-2.36938044429,-0.127683617175 -2.2343558073,0.518777780235 l-1.93912774324,1.15326315165 m2.7115291357,5.33127725124 l-1.14545576274,-0.0248284288682 -0.975163951516,0.639280900359 l-0.740043595433,1.66851267219 -0.0215899734758,2.01204478741 l0.520358458161,0.908915325999 1.22666351497,0.771683380008 l1.80438011885,0.323648676276 1.85624703765,-0.995588898659 l1.07134379447,-1.84317469597 0.222926996648,-1.81266248226 l-0.444404631853,-0.832999944687 -1.78711920977,-0.878392755985 l-1.62286549807,0.00557099643629 -1.02864816785,0.428490005434 l-0.801491588354,0.950337126851 -0.350310690701,1.71449244022 l0.278402958065,0.758855938911 0.893757492304,0.551286265254 l1.41569510102,0.0955096259713 1.43493697047,-0.565730519593 l0.781814604998,-1.43152847886 -0.121828494594,-0.72430960834 l-1.12826392055,-0.683637708426 -1.14425525069,0.125985406339 l-0.776545703411,0.988223403692 -0.185601487756,1.34404480457 l0.446032509208,0.458340197802 0.972748920321,0.0283660460263 l0.814226865768,-1.13311767578 -0.124410325661,-0.645114481449 l-0.723674297333,0.104512497783 -0.502315536141,0.878749340773 l0.291446838528,0.359133556485 0.473951026797,-0.342284925282 l-0.389357767999,-0.52705924958 -0.581990033388,0.323046222329 l-0.113873016089,0.763883888721 0.528191365302,0.254719294608 l0.52954107523,-0.880559310317 -0.628054365516,-0.220004804432 l-0.502369068563,0.558044426143 0.0246582715772,0.754331201315 l0.584622956812,0.183864664286 0.473503470421,-0.959134623408 l-0.616046376526,-0.19739581272 -0.531070716679,0.699154734612 l0.0731065357104,0.687789618969 0.610548853874,0.128505174071 l0.399436019361,-0.439999736845 -0.488859303296,-0.567708536983 l-0.583871044219,0.295578632504 -0.0241502374411,0.762449204922 l0.591766610742,0.209320876747 0.407079458237,-0.441086292267 l-0.285555627197,-0.453287698328 -0.520941615105,0.289408992976 l-0.043814163655,0.721677541733 0.550678297877,0.201958082616 l0.369520634413,-0.428534448147 -0.504905506968,-0.476598478854 l-0.493346825242,0.379004403949 0.0165961822495,0.664533898234 l0.606082305312,0.152922011912 0.32797627151,-0.493849590421 l-0.603939257562,-0.397238135338 -0.479542538524,0.411596670747 l0.0811025872827,0.705361589789 0.633378475904,0.178320091218 l0.328586995602,-0.446543395519 -0.512715764344,-0.507964454591 l-0.552145950496,0.312521755695 0.0530845811591,0.654156059027 l0.615827925503,0.137382009998 0.329906828701,-0.478998012841 l-0.330502130091,-0.415027216077 -0.460878163576,0.337594076991 m86.561403196,-8.40725322427 l-2.74934649467,-1.72125145793 -2.70710259676,-0.887289568782 l-5.007609725,-0.513058267534 -2.96087950468,0.230659674853 l-4.76008057594,1.63185462356 -3.53614032269,2.29054585099 l-2.05270305276,2.25875020027 -0.960183367133,2.1898470819 l-0.00716881884728,2.08073630929 0.683096498251,1.39603897929 l1.74234703183,1.72035962343 2.84992784262,1.69880077243 l3.83667647839,1.38081371784 6.99398875237,1.26061797142 l6.10314428806,-0.000561257511436 3.68937164545,-0.962015837431 l2.44521632791,-1.3203972578 1.53534606099,-1.64562344551 l0.665765926242,-1.84753075242 -0.0355789950117,-2.05884069204 l-1.28981530666,-3.23732197285 -2.60434985161,-2.93712496758 l-2.58123785257,-1.67059183121 m-9.72356557846,-0.265424754471 l-1.53252005577,-0.208272859454 -1.81278020144,0.470375828445 l-2.2422106564,1.9446246326 -1.20646573603,2.28803649545 l-0.288248099387,2.87595868111 1.16082526743,2.87802547216 l2.24410995841,2.27115035057 2.5313180685,1.32029846311 l2.64804363251,0.498832352459 2.48805716634,-0.20129494369 l2.12760180235,-0.924664437771 1.81803554296,-1.53064578772 l1.27114996314,-2.05706939101 0.57254716754,-2.31229871511 l-0.0629514362663,-2.22003832459 -0.757903233171,-1.93807259202 l-1.30024984479,-1.5971326828 -1.71713262796,-1.11724920571 l-2.13180735707,-0.643729045987 -2.30421692133,-0.138314217329 l-2.2727099061,0.490415878594 -1.81952029467,1.08887627721 m2.71579861641,3.84415239096 l-1.19511462748,-0.0518282223493 -1.02639093995,1.06250010431 l-0.385961830616,1.67012229562 0.25516634807,0.847169309855 l0.955749899149,0.771289914846 2.12346062064,0.301023833454 l1.03079915047,-0.345248654485 0.871547162533,-0.949834510684 l0.420054420829,-1.34821489453 -0.275025703013,-0.959461703897 l-0.935009121895,-0.768053531647 -2.34500780702,-0.492132492363 l-1.13422006369,0.28883183375 -0.886548683047,0.847037136555 l-0.307453759015,1.49356290698 0.953742414713,1.05744324625 l1.81802943349,0.35029001534 1.89144536853,-0.379308350384 l0.883197113872,-1.24397709966 -0.0301279174164,-0.788397789001 l-0.716119259596,-0.660629197955 -2.13665723801,-0.421792194247 l-1.12338386476,0.327885970473 -0.553417094052,1.08989745378 l0.0924726389349,1.32925450802 1.33210733533,0.579833164811 l1.12984865904,-0.000309201786877 1.00262500346,-0.573226474226 l0.371945090592,-1.40198916197 -0.397998653352,-0.543880723417 l-1.4086920023,-0.292613841593 -0.870027691126,0.37227705121 l-0.389498434961,0.999519228935 0.286253225058,0.487249717116 l0.811515599489,-0.000126124059534 0.682599395514,-0.994725003839 l-0.255814995617,-0.425876006484 -0.870890542865,-4.88995010528e-05 l-0.486856140196,0.557951815426 -0.0453243870288,0.893539264798 l0.54376527667,0.263734981418 0.831147804856,-0.228858068585 l0.319555811584,-1.08106121421 -0.440688841045,-0.3970515728 l-0.663021579385,0.272764600813 -0.299546048045,0.8468721807 l0.400198251009,0.313988961279 0.642271414399,-0.61568967998 l-0.485630221665,-0.299290437251 -0.580072067678,0.45520413667 l-0.0596827547997,0.696061849594 0.559621751308,0.174659155309 l0.383034832776,-0.877456814051 -0.727213993669,-0.0910783931613 l-0.332715325058,0.712993368506 0.422517582774,0.303056500852 l0.406695045531,-0.395081415772 -0.327351726592,-0.416838377714 l-0.490888468921,0.331725925207 -0.0322538358159,0.701052024961 l0.734438821673,-0.430316701531 -0.361546836793,-0.446627289057 l-0.542008280754,0.351103916764 -0.0495559489354,0.776729956269 l0.536212995648,0.214819349349 0.38601540029,-0.389033146203 l-0.479322187603,-0.532267950475 -0.567860640585,0.296189021319 l-0.0223544822074,0.755276083946 0.57620562613,0.219670254737 l0.376788303256,-0.430398359895 -0.555571690202,-0.590048655868 l-0.583167113364,0.270501598716 -0.0042983549065,0.692163407803 l0.518212094903,0.233891829848 0.371472872794,-0.412353724241 l-0.53434561938,-0.452261008322 -0.524409264326,0.339338965714 m92.5084078716,-8.92889175688 l-2.93828636408,-1.60237520933 -3.13241004944,-0.857049003243 l-5.9601098299,-0.293007586151 -6.87207579613,1.32546976209 l-4.42435950041,2.01041519642 -3.03912222385,2.36261546612 l-1.67030468583,2.28676959872 -0.291070584208,1.21834762394 l0.639479383826,2.39455655217 1.19375132024,1.55811578035 l2.52756536007,1.92021369934 3.8314306736,1.84275865555 l4.66681778431,1.40047088265 7.90957152843,1.22639797628 l7.20123827457,-0.000394902417611 3.45501750708,-0.842628628016 l2.34563574195,-1.2203181535 1.50794684887,-1.58168315887 l0.685667395592,-1.91370114684 -0.0421937648207,-2.21854045987 l-0.851208344102,-2.25156694651 -2.46949836612,-3.12823683023 l-2.54859060049,-2.007920295 -2.61767506599,-1.24734602869 l-4.05706256628,-0.77180609107 m-6.30099177361,0.804721862078 l-1.78282096982,-0.36627240479 -1.83069705963,0.348343327641 l-2.34414443374,1.81673273444 -1.37981250882,2.32480347157 l-0.377235710621,2.70520567894 0.500290580094,2.56108313799 l0.884766727686,1.44620671868 1.69451162219,1.44252315164 l2.33400031924,1.02194048464 2.73389309645,0.428570173681 l2.71549135447,-0.176346339285 2.43428602815,-0.860309228301 l2.09389045835,-1.46613299847 1.51344016194,-1.91232740879 l0.838596597314,-2.22070753574 0.153743308038,-2.19479963183 l-0.56476380676,-1.94574430585 -1.21637918055,-1.63932979107 l-1.76631942391,-1.24059304595 -2.28822439909,-0.747570618987 l-4.06635075808,-0.224197395146 -1.9118411839,0.393989682198 m1.93791106343,4.81364458799 l-1.25643104315,-0.129718920216 -1.16587005556,0.625917986035 l-0.81155590713,1.53070747852 -0.0757679017261,1.91576242447 l1.1706738919,1.19088955224 1.97721660137,0.445887595415 l1.15004785359,-0.303405057639 1.01954355836,-0.936303138733 l0.603650324047,-1.41364201903 -0.0380908488296,-1.45572900772 l-0.761257782578,-1.19702368975 -1.3345502317,-0.689585208893 l-1.58200398088,-0.155800338835 -1.30196705461,1.00458584726 l-0.564120747149,1.49659410119 0.0441254815087,1.71982005239 l0.534403733909,0.689736455679 1.15692086518,0.399707071483 l1.53237044811,-0.172834321856 1.31947860122,-0.868720933795 l0.802312791348,-1.24970577657 0.143495518714,-1.26785799861 l-0.517804957926,-0.631860941648 -1.12065568566,-0.327418409288 l-2.47525632381,0.416606739163 -1.11115902662,1.1846909672 l-0.303816404194,1.45516708493 0.351344682276,0.620709136128 l0.975396335125,0.338070094585 1.41205608845,-0.194672010839 l1.23935908079,-0.826847702265 0.691670402884,-1.11063815653 l-0.140398191288,-0.588142946362 -0.750585719943,-0.314233005047 l-1.97564467788,0.388968884945 -0.941583812237,1.08216136694 l-0.222996007651,1.16000309587 0.402434691787,0.407028049231 l0.979395955801,0.0293680978939 1.17260530591,-0.564319081604 l0.627778917551,-1.33675187826 -0.30184885487,-0.528791062534 l-1.10005058348,-0.000118104035209 -0.920088812709,0.98389044404 l-0.20818663761,1.12250864506 0.428309030831,0.350584052503 l0.909960716963,-0.128820231184 0.786214619875,-1.2524959445 l-0.189571548253,-0.551198236644 -0.788941532373,0.174277797341 l-0.575785301626,0.945491865277 0.217815153301,0.411902070045 l0.61173863709,-0.0135839974973 0.40022701025,-0.499674864113 l-0.294648148119,-0.399906784296 -0.646567642689,0.281138066202 l-0.297592766583,0.801224559546 0.387028940022,0.292791947722 l0.439129434526,-0.362009592354 -0.342957749963,-0.600478798151 l-0.62353104353,0.229377616197 -0.166549626738,0.765180513263 l0.469692908227,0.260832626373 0.407322384417,-0.39384432137 l0.158567838371,-1.18188746274 -1.06983602047,0.0918077398092 l-0.351958051324,0.771337896585 0.408042296767,0.316320806742 l0.442712455988,-0.356238633394 -0.500028207898,-0.48932261765 l-0.632412880659,0.326222516596 -0.0631458126009,0.754292830825 l0.543327108026,0.23505391553 0.408552028239,-0.419355072081 l-0.486424528062,-0.522502213717 -0.582088641822,0.297656320035 m91.059057375,-8.73787168624 l-2.61243730783,-1.68757647276 -3.15655827522,-0.954297557473 l-6.16075754166,-0.394946336746 -3.31199377775,0.453652814031 l-5.4196947813,2.08939313889 -3.41253012419,2.34764739871 l-1.9630689919,2.32981398702 -0.733121037483,2.17627122998 l0.211298521608,1.21312253177 1.16526953876,1.56107977033 l3.8462382555,2.74254113436 4.52258914709,1.96447119117 l7.30001926422,1.94266721606 8.12962532043,0.995934978127 l5.81385612488,-0.000803779257694 3.18380564451,-0.613474063575 l2.20068514347,-1.05766475201 0.839279443026,-0.986613929272 l0.596714131534,-2.55150616169 -0.384200289845,-2.43460506201 l-1.19954459369,-2.32601761818 -3.05804014206,-3.38783144951 l-3.02806019783,-2.15801104903 -4.39136505127,-1.77720949054 l-5.05452513695,-0.780235752463 m-1.98440551758,1.73559740186 l-1.93172872066,-0.435001701117 -1.90819352865,0.250946544111 l-3.60550999641,1.7085634172 -1.71312466264,1.95474714041 l-0.523526258767,2.25872352719 0.278828665614,2.52257794142 l1.91533505917,2.58640885353 3.01827192307,2.00174242258 l3.11633110046,0.929234921932 3.12491893768,0.157562419772 l2.64855742455,-0.589053183794 2.22516253591,-1.22292280197 l1.59793332219,-1.71908378601 0.93503639102,-2.11598783731 l0.290845241398,-2.30007842183 -0.418480783701,-2.08855599165 l-1.08351878822,-1.76683112979 -1.6906248033,-1.41518503428 l-2.19449743629,-0.927476286888 -2.48756557703,-0.393915101886 l-2.48077496886,0.193814411759 -2.11525499821,0.885188281536 m2.01354071498,4.1056406498 l-1.3290822506,-0.231957547367 -1.15403540432,0.510467886925 l-0.780824571848,1.44056171179 -0.0584418512881,1.82512938976 l1.19325391948,1.17504581809 2.21054181457,0.45101441443 l1.67206272483,-0.993224605918 0.734277591109,-1.92008987069 l-0.207614954561,-1.16147108376 -0.910270735621,-0.941796377301 l-1.42065137625,-0.496989116073 -1.65208756924,0.0716369505972 l-1.22863650322,1.17708861828 -0.386344268918,1.6210745275 l0.249760430306,0.768476724625 0.891096293926,0.637931525707 l1.50904744864,0.235419049859 1.62744611502,-0.414013154805 l1.15222409368,-0.97717911005 0.531506426632,-1.21192894876 l-0.147770866752,-1.15637637675 -0.775291249156,-0.51956102252 l-2.1910199523,-0.0870652496815 -1.47201389074,1.03804707527 l-0.610054321587,1.3308852911 0.0695648649707,1.48372843862 l0.580962747335,0.585396811366 1.12871341407,0.22140385583 l1.46193012595,-0.401506982744 1.0469403863,-1.45767554641 l0.0372102647088,-0.912922471762 -0.888463482261,-1.01511716843 l-1.33271932602,-0.143575752154 -1.10712781549,0.95963254571 l-0.359602868557,1.29094079137 0.262458175421,0.536929480731 l0.847121849656,0.214867293835 1.12675741315,-0.336153917015 l0.661427080631,-1.27054601908 -0.233081206679,-0.585873052478 l-1.18739873171,-0.329158194363 -0.834747105837,0.414224676788 l-0.384074412286,1.05666644871 0.296195205301,0.46353623271 l0.540095716715,-0.000385858038499 0.598896816373,-0.477483123541 l0.169174019247,-0.799132212996 -0.458773076534,-0.312665849924 l-0.647449195385,0.309828259051 -0.311999190599,0.951533690095 l0.391358397901,0.324089452624 0.432104691863,-0.3699227795 l-0.427121818066,-0.533808507025 -0.67108720541,0.227149501443 l-0.194486919791,0.773293972015 0.461235381663,0.310898832977 l0.447231307626,-0.397072769701 -0.371361374855,-0.544051267207 l-0.572969056666,0.245024114847 -0.106847640127,0.746320784092 l0.525056272745,0.239003170282 0.374121554196,-0.454571321607 l-0.287473648787,-0.485139079392 -0.50874479115,0.254888292402 l-0.0766726629809,0.785288438201 0.562307313085,0.236665569246 l0.361188687384,-0.43407894671 -0.285422857851,-0.489655062556 l-0.566297322512,0.211606062949 -0.080835474655,0.733441263437 l0.522061437368,0.230202525854 0.281445048749,-0.864500999451 l-0.39684869349,-0.455679967999 -0.514935478568,0.289060082287 l-0.0820200052112,0.775071978569 0.502264052629,0.261566005647 m90.3941230965,-8.31865353201 l-2.69578576088,-1.60761535168 -3.16856682301,-0.859356820583 l-6.25829339027,-0.346527546644 -3.43001753092,0.97865536809 l-3.42550188303,1.96242332458 -2.50564157963,2.46206879616 l-1.28173857927,2.44848921895 -0.191304963082,2.17690855265 l0.612945668399,1.34168997407 1.79593756795,1.71063065529 l3.13004285097,1.69694751501 6.55591905117,1.99805006385 l5.4414755106,0.880986303091 6.98211073875,-0.000590298768657 l2.96504586935,-0.851904600859 1.86317145824,-1.27373501658 l1.09645329416,-1.67647600174 0.389959737659,-2.08545848727 l-0.373073965311,-2.17992052436 -1.80906668305,-3.12468677759 l-2.24617093801,-2.16479346156 -2.523855865,-1.4190171659 l-4.03253436089,-0.962948575616 -5.12012958527,-0.0792243611068 m0.309310350567,2.9892668128 l-1.62123695016,-0.340084694326 -1.64918348193,0.333971790969 l-1.66051700711,1.5084604919 -0.747262090445,1.95488750935 l0.0874172151089,2.35160514712 1.58138930798,2.01766878366 l2.58320122957,1.22676126659 2.66252249479,0.304998643696 l2.21223786473,-0.449896417558 1.69121280313,-1.14939920604 l1.07994131744,-1.65070489049 0.412933342159,-1.8471609056 l-0.305477473885,-1.66905269027 -1.02823846042,-1.42207399011 l-1.63805097342,-1.01325392723 -3.34323465824,-0.71160517633 l-1.67314469814,0.190435443074 -1.43793195486,0.830017924309 m2.29802235961,2.70599722862 l-1.01598545909,-0.157686751336 -0.769985169172,0.543422214687 l-0.418466739357,1.37217000127 0.265882890671,0.690945014358 l0.949354916811,0.501321256161 1.37680947781,-0.015511874808 l0.651449337602,-0.53794965148 0.3138307482,-0.926782488823 l-0.312302168459,-0.770566985011 -0.881894975901,-0.515311509371 l-0.945193171501,0.154201537371 -0.565858744085,1.09637908638 l0.0902293249965,1.26780673862 0.554160289466,0.431374236941 l1.00314646959,0.0137981167063 0.679001882672,-1.2345738709 l-0.159260351211,-0.830046162009 -0.706045627594,-0.586605407298 l-0.822070613503,0.147233493626 -0.47051999718,1.01183645427 l0.226358808577,0.541484355927 0.769968479872,0.234302207828 l0.493753142655,-0.426884703338 -0.543076992035,-0.948674529791 l-0.814986228943,0.0315418024547 -0.381888896227,0.827220901847 l0.35673994571,0.442542843521 0.580329336226,-0.000177678466571 l0.493951290846,-0.482203476131 -0.726612582803,-0.652847737074 l-0.718681439757,0.215894430876 -0.226591285318,0.784768313169 l0.40274836123,0.367448553443 0.526953302324,-0.000155820689542 l0.255860313773,-0.480835027993 -0.230768006295,-0.627271384001 l-1.1943462491,-0.0623156130314 -0.418027043343,0.815895199776 l0.383346937597,0.41061475873 0.624652132392,-0.000293679186143 l0.309329815209,-0.496790260077 -0.375757627189,-0.383717752993 l-0.563981644809,0.270108133554 -0.0608122255653,0.751445069909 l0.504143275321,0.272585134953 0.39010297507,-0.376694202423 l-0.509392693639,-0.548392534256 -0.583161264658,0.235368385911 l-0.037846302148,0.71350902319 0.544693022966,0.2348943986 l0.344707593322,-0.436365418136 -0.618791133165,-0.498495474458 l-0.538053028286,0.305329505354 0.0704742688686,0.707885175943 l0.585528537631,0.228565111756 0.321780256927,-0.423913225532 l-0.653325021267,-0.577560737729 -0.59494074434,0.292505007237 l0.00967188796494,0.747902169824 0.553456060588,0.2629112266 l0.360187068582,-0.850291997194 -0.361065156758,-0.48939563334 l-0.527750588953,0.267313364893 -0.0717525044456,0.760477855802 l0.506773255765,0.278837122023 0.35574413836,-0.423561371863 l-0.609723888338,-0.578828752041 -0.609725229442,0.268038827926 l-0.0131037493702,0.773034989834 0.555602908134,0.252449531108 l0.359695926309,-0.418668091297 -0.601169355214,-0.627503022552 l-0.582539923489,0.253020171076 0.0206733704545,0.799819976091 l0.570779666305,0.260399226099 0.351172909141,-0.432122088969 l-0.606389455497,-0.569115281105 -0.555529668927,0.252383388579 l-0.0111140974332,0.760113969445 0.557344295084,0.272512305528 l0.345574207604,-0.40116854012 m95.482207606,-9.77791681202 l-2.71861106157,-1.90609395504 -3.41617226601,-1.12500354648 l-6.29385650158,-0.613229423761 -7.50233948231,0.809226036072 l-4.91988778114,1.62931993604 -3.73748451471,2.1116553247 l-2.28311702609,2.20304623246 -1.15225888789,2.22712576389 l0.0303115881979,1.1571906507 0.690948665142,1.0490039736 l5.9247726202,3.3456325531 6.92256331444,2.37439185381 l6.03534042835,1.33576363325 9.04719293118,0.995493084192 l7.20572352409,-0.000544454014744 1.74291297793,-0.415029339492 l1.44563555717,-0.94011567533 0.97388677299,-1.49999246001 l0.35192925483,-1.93950504065 -0.482766404748,-2.18358904123 l-2.12926387787,-3.14246714115 -2.64128744602,-2.2010037303 l-4.47736531496,-2.19609722495 -5.36839604378,-1.304602772 l-5.24820208549,-0.246700644493 m0.317911021411,1.47939428687 l-2.07189157605,-0.557916648686 -2.0724286139,0.147981401533 l-3.6916038394,1.41224592924 -1.79163888097,1.67858064175 l-0.520743504167,1.89057514071 0.3663431108,2.01610043645 l0.886869430542,1.28918379545 1.86428248882,1.39522179961 l2.79612898827,1.02381907403 3.19969147444,0.36325301975 l2.9280552268,-0.30129160732 2.27415397763,-0.914598926902 l1.6988658905,-1.35197356343 1.01944558322,-1.67488396168 l0.407612621784,-1.86252698302 -0.330746732652,-1.77365869284 l-1.09658420086,-1.55709534883 -1.69510602951,-1.13171480596 l-3.6635440588,-0.927746891975 -3.1781616807,0.00108470223495 l-2.36603528261,0.745858028531 m2.81143784523,3.65245878696 l-1.06268629432,-0.213461127132 -0.972996503115,0.53167514503 l-0.623811222613,1.37644469738 0.130466911942,0.788999423385 l0.832506194711,0.655393004417 1.4469730854,0.278554596007 l0.818368270993,-0.319602563977 0.624711550772,-0.843963101506 l0.111198117957,-1.08079530299 -0.574009642005,-0.958742648363 l-1.78151756525,-0.726322382689 -0.962058678269,0.231128372252 l-0.675307363272,1.27037346363 0.0754289887846,1.50435611606 l0.574252232909,0.594778731465 1.3053496182,-5.52400024389e-05 l0.722761228681,-0.546707473695 0.371762737632,-0.993638560176 l-0.275433342904,-0.702672749758 -1.31429374218,-0.580788701773 l-0.892393141985,0.271354932338 -0.453767180443,1.11359193921 l0.205857865512,1.20685145259 1.25603735447,0.401006415486 l0.702178627253,-0.368189811707 0.41554030031,-0.905766561627 l-0.82686856389,-1.02025106549 -0.972222164273,-0.0260716071352 l-0.583320446312,0.941597148776 0.0749747594818,1.1734431237 l0.593669041991,0.35255856812 0.97116060555,-0.151469288394 l0.480246059597,-1.24727614224 -0.301840361208,-0.640566423535 l-0.799443498254,0.00133900350193 -0.483855158091,0.982597544789 l0.276512745768,0.485742986202 0.463050082326,-0.000439996292698 l0.438702404499,-0.459195561707 -0.271776802838,-0.452484749258 l-0.612226910889,0.184133909643 -0.219136681408,0.829113721848 l0.444768629968,0.325237065554 0.409965924919,-0.405778586864 l-0.5383663252,-0.663868635893 -0.689043775201,0.168823674321 l-0.173986051232,0.780865326524 0.459020100534,0.32896310091 l0.406306125224,-0.382375121117 -0.405846647918,-0.664969012141 l-0.58750860393,0.190236382186 -0.0988917518407,0.787412598729 l0.53860232234,0.290234070271 0.371415615082,-0.446260310709 l-0.536000169814,-0.55720705539 -0.568039678037,0.304415524006 l-0.0149714632425,0.710747987032 0.534621328115,0.267295464873 l0.372989885509,-0.472490973771 -0.576703213155,-0.629449114203 l-0.615614317358,0.234992578626 -0.02978784265,0.764094591141 l0.540396906435,0.295537952334 0.374101549387,-0.403639264405 l-0.552093349397,-0.591134876013 -0.583814121783,0.273884050548 l0.0107579829637,0.780265182257 0.600313432515,0.280130691826 l0.359258502722,-0.442302934825 -0.523256622255,-0.661268234253 l-0.556029230356,0.223514288664 -0.00424913218012,0.808671861887 l0.548267364502,0.313887670636 0.367800630629,-0.43117582798 l-0.498768985271,-0.652710795403 -0.626461431384,0.154905533418 l-0.0427063321695,0.761183127761 m99.7069486821,-6.77047913917 l-2.66179382801,-2.00520545244 -3.43711078167,-1.19962729514 l-6.95847034454,-0.813701301813 -8.00786197186,0.662472844124 l-4.98972266912,1.53534963727 -3.78672540188,2.06911444664 l-2.36776947975,2.19728767872 -0.471686050296,1.09520144761 l0.311650969088,0.821767821908 1.5877585113,1.15161813796 l4.65989947319,1.96550086141 6.9657176733,1.84550732374 l8.09636235237,1.28557056189 8.67188870907,0.41267696768 l3.23700278997,-0.353357121348 2.14535415173,-0.828500241041 l1.27514109015,-1.19703985751 0.551579073071,-1.43299490213 l-0.184651352465,-1.52769625187 -1.04798078537,-1.46648451686 l-2.84859269857,-1.91971734166 -4.64800447226,-1.56380981207 l-5.71102082729,-0.748858004808 m-5.08243441582,-0.872816294432 l-1.78606644273,-0.500182136893 -1.84632062912,0.172817371786 l-1.31562128663,0.614316761494 -1.20749935508,1.61704093218 l-0.306383855641,1.98312267661 0.424990169704,1.10067270696 l1.3071988523,1.21969766915 2.93792277575,1.04020088911 l3.36079716682,0.000724380952306 2.32189446688,-1.11982308328 l1.3943170011,-1.53301283717 0.546330586076,-1.60924002528 l-0.180381778628,-1.47994473577 -0.998200252652,-1.28333970904 l-1.71843066812,-0.901109203696 -3.58453571796,-0.53462818265 l-1.77615106106,0.300610046834 -1.4421479404,0.925959870219 l-1.04636594653,1.46291777492 -0.35023406148,1.86535671353 l0.482484325767,1.65601193905 0.860004425049,0.838317647576 l1.58600449562,0.566543117166 2.16453880072,0.0516947777942 l2.22469359636,-0.596221014857 1.70659035444,-1.15300267935 l1.01287558675,-1.40439659357 0.33533398062,-1.46793231368 l-0.427363663912,-0.901618003845 -1.20767734945,-0.732893496752 l-1.98299452662,-0.370982699096 -2.20259413123,0.277561657131 l-2.06356585026,1.06132656336 -0.991465002298,1.46842032671 l-0.107382358983,1.87912642956 1.24863795936,1.14456482232 l2.25327953696,0.356147140265 2.27946683764,-0.473815575242 l1.65550723672,-1.1235127598 0.897356569767,-1.34483993053 l0.178276095539,-1.32142305374 -1.01423077285,-1.5984724462 l-1.26728132367,-0.550393387675 -1.72380715609,-0.0978826358914 l-1.86100766063,0.652417689562 -1.25477969646,1.43031269312 l-0.414808169007,1.77487447858 0.259890127927,0.818908512592 l0.916959494352,0.606672242284 1.52314946055,0.144085260108 l1.69034123421,-0.508951619267 1.33150547743,-1.10168606043 l0.702813118696,-1.29151836038 0.00137254668516,-1.18642829359 l-0.673449486494,-0.537377260625 -1.36007592082,-0.186388995498 l-1.73606604338,0.475477389991 -1.18593811989,1.28063634038 l-0.345752090216,1.52394622564 0.316687226295,0.60185931623 l0.919421836734,0.302645880729 1.38348266482,-0.252195578068 l1.22041836381,-0.934224799275 0.662199631333,-1.17371410131 l-0.0143065385055,-1.04421101511 -0.662071481347,-0.416189059615 l-1.86834782362,0.20142333582 -1.27644479275,1.15785419941 l-0.476962700486,1.31301537156 0.215232335031,0.548530966043 l0.812746137381,0.177577920258 1.2034752965,-0.386946983635 l0.998610556126,-0.994942486286 0.336751267314,-1.0861518234 l-0.473798513412,-0.430896691978 -0.967698469758,0.187797062099 l-0.958895459771,1.13678209484 -0.248442366719,1.1852761358 l0.370576046407,0.355923958123 0.884858369827,-0.152463475242 l0.832476317883,-1.32551893592 -0.17372418195,-0.637465938926 l-0.724372565746,-0.268730539829 -0.684340521693,0.381036885083 l-0.469474680722,1.11910529435 0.276518892497,0.448308289051 l0.453222431242,-0.000427233571827 0.51575858146,-0.500150695443 l0.160278119147,-0.759281665087 -0.34000992775,-0.617790110409 l-0.643749311566,0.181291047484 -0.42506672442,1.01401843131 l0.299199018627,0.426654852927 0.343102291226,-0.000339510625054 l0.270706191659,-0.436070710421 -0.0964508019388,-0.650841295719 l-1.07580721378,-0.101053752005 -0.475119166076,0.608204901218 l0.297239851207,0.342151634395 0.433081388474,-0.000242623500526 l0.380333550274,-0.413150601089 m86.3485878873,0.889737081889 l0.218166094273,-1.96349486709 -0.327249132097,-0.763581320643 l-2.61799305677,-1.52716264129 -6.6540658474,-2.61799305677 l-2.61799305677,-0.109083047137 -1.74532875419,0.545415244997 l-2.39982709289,0.763581320643 -3.59974056482,1.74532875419 l-5.23598611355,3.38157445192 -1.52716264129,1.52716264129 l-0.763581320643,1.63624569774 -0.109083047137,2.29074403644 l0.872664377093,1.85441181064 1.52716264129,1.09083048999 l4.79965418577,1.74532875419 13.1990492344,3.49065750837 l7.3085641861,2.29074403644 10.3628897667,1.96349486709 l4.58148807287,0.436332188547 3.81790667772,-0.109083047137 l1.19991354644,-1.09083048999 1.63624569774,-2.72707611322 l0.545415244997,-2.50891000032 -0.981747433543,-1.52716264129 l-2.72707611322,-2.50891000032 -4.79965418577,-3.70882362127 l-5.7814013958,-3.16340833902 -12.5445508957,-3.16340833902 m-2.94524222612,-1.52716264129 l-1.19991354644,0.109083047137 -9.05389308929,6.76314890385 l-2.94524222612,2.29074403644 -2.18166097999,2.61799305677 l-2.07257792354,1.41807958484 m33.5975790024,-6.98131501675 l-3.92698973417,5.01782000065 -5.7814013958,5.67231833935 l-3.27249139547,2.72707611322 -0.545415244997,0.0 l-1.09083048999,-1.63624569774 m1.41807958484,-9.49022531509 l0.545415244997,-0.218166094273 0.0,-0.654498264194 l-1.09083048999,-0.763581320643 -4.25423890352,0.109083047137 l-0.981747433543,0.872664377093 0.0,2.72707611322 l0.763581320643,0.327249132097 3.92698973417,0.0 l7.41764724255,1.09083048999 0.109083047137,-1.09083048999 l-0.545415244997,-0.545415244997 -3.05432528257,-2.61799305677 l-2.29074403644,-1.19991354644 -2.94524222612,0.0 l-1.19991354644,0.436332188547 -4.47240501642,0.545415244997 l-0.436332188547,0.763581320643 0.327249132097,0.763581320643 l3.16340833902,2.83615916967 1.85441181064,1.09083048999 l2.83615916967,0.981747433543 1.85441181064,-0.109083047137 l3.38157445192,-1.63624569774 0.109083047137,-1.09083048999 l-0.327249132097,-0.981747433543 -1.09083048999,-1.09083048999 l-1.96349486709,-1.19991354644 -1.52716264129,0.0 l-1.30899652839,0.763581320643 -1.09083048999,0.981747433543 l-0.327249132097,0.981747433543 m-4.03607279062,-14.8352944851 l2.07257792354,-0.327249132097 4.79965418577,-1.85441181064 l6.8722319603,-4.36332195997 2.29074403644,-0.654498264194 l4.58148807287,0.109083047137 m-16.3624572754,9.27205920219 l7.526730299,0.0 4.36332195997,-1.19991354644 l3.16340833902,0.0 2.07257792354,-0.545415244997 m-13.4172153473,7.526730299 l3.81790667772,0.0 7.63581335545,-2.50891000032 l7.85397946835,-0.981747433543 " fill="none" stroke="black" stroke-width="1" /></svg>